ISO-10303-21;
HEADER;
FILE_DESCRIPTION (( 'STEP AP214' ),
    '1' );
FILE_NAME ('ISO 7045 - M5 x 8 - Z - 8N.STEP',
    '2025-07-21T14:25:06',
    ( '' ),
    ( '' ),
    'SwSTEP 2.0',
    'SolidWorks 2025',
    '' );
FILE_SCHEMA (( 'AUTOMOTIVE_DESIGN' ));
ENDSEC;

DATA;
#1 = ORIENTED_EDGE ( 'NONE', *, *, #330, .T. ) ;
#2 = DIRECTION ( 'NONE',  ( 0.000000000000000000, 0.000000000000000000, 1.000000000000000000 ) ) ;
#3 = VECTOR ( 'NONE', #303, 1000.000000000000000 ) ;
#4 = EDGE_CURVE ( 'NONE', #708, #324, #450, .T. ) ;
#5 = FACE_OUTER_BOUND ( 'NONE', #155, .T. ) ;
#6 = DIRECTION ( 'NONE',  ( -0.000000000000000000, 0.000000000000000000, 1.000000000000000000 ) ) ;
#7 = VERTEX_POINT ( 'NONE', #402 ) ;
#8 = DIRECTION ( 'NONE',  ( -1.000000000000000000, 0.000000000000000000, 0.000000000000000000 ) ) ;
#9 = CARTESIAN_POINT ( 'NONE',  ( 2.740000000000000213, 0.000000000000000000, 0.000000000000000000 ) ) ;
#10 = ORIENTED_EDGE ( 'NONE', *, *, #621, .F. ) ;
#11 = ADVANCED_FACE ( 'NONE', ( #416 ), #121, .F. ) ;
#12 = DIRECTION ( 'NONE',  ( -1.000000000000000000, -0.000000000000000000, -0.000000000000000000 ) ) ;
#13 = ADVANCED_FACE ( 'NONE', ( #352 ), #544, .F. ) ;
#14 = CARTESIAN_POINT ( 'NONE',  ( 8.000000000000000000, -0.5150000000000003464, -1.854863749422734906E-15 ) ) ;
#15 = EDGE_LOOP ( 'NONE', ( #23, #247, #144, #462 ) ) ;
#16 = AXIS2_PLACEMENT_3D ( 'NONE', #115, #489, #232 ) ;
#17 = DIRECTION ( 'NONE',  ( -0.8949343913984706411, 0.4461977533473793778, 0.000000000000000000 ) ) ;
#18 = AXIS2_PLACEMENT_3D ( 'NONE', #96, #785, #36 ) ;
#19 = CARTESIAN_POINT ( 'NONE',  ( 0.06760930072668863700, -0.5150000000000031219, 0.9010842325122887519 ) ) ;
#20 = DIRECTION ( 'NONE',  ( 0.000000000000000000, 3.601677183345110531E-15, -1.000000000000000000 ) ) ;
#21 = DIRECTION ( 'NONE',  ( 0.000000000000000000, 0.000000000000000000, -1.000000000000000000 ) ) ;
#22 = DIRECTION ( 'NONE',  ( 0.000000000000000000, 3.601677183345110531E-15, -1.000000000000000000 ) ) ;
#23 = ORIENTED_EDGE ( 'NONE', *, *, #286, .T. ) ;
#24 = ORIENTED_EDGE ( 'NONE', *, *, #429, .T. ) ;
#25 =( NAMED_UNIT ( * ) SI_UNIT ( $, .STERADIAN. ) SOLID_ANGLE_UNIT ( ) );
#26 = DIRECTION ( 'NONE',  ( 0.000000000000000000, -1.000000000000000000, -1.101958445019772623E-16 ) ) ;
#27 = EDGE_LOOP ( 'NONE', ( #31, #168, #71, #422, #230, #217, #469, #591, #699, #656, #289, #259, #226, #383, #162, #202 ) ) ;
#28 = VERTEX_POINT ( 'NONE', #474 ) ;
#29 = VECTOR ( 'NONE', #48, 1000.000000000000114 ) ;
#30 = FACE_OUTER_BOUND ( 'NONE', #705, .T. ) ;
#31 = ORIENTED_EDGE ( 'NONE', *, *, #328, .F. ) ;
#32 = ORIENTED_EDGE ( 'NONE', *, *, #394, .T. ) ;
#33 = DIRECTION ( 'NONE',  ( 0.4461977533474924540, -0.8949343913984143528, 0.000000000000000000 ) ) ;
#34 = ORIENTED_EDGE ( 'NONE', *, *, #40, .F. ) ;
#35 = ORIENTED_EDGE ( 'NONE', *, *, #611, .F. ) ;
#36 = DIRECTION ( 'NONE',  ( 1.000000000000000000, 0.000000000000000000, 0.000000000000000000 ) ) ;
#37 = EDGE_CURVE ( 'NONE', #324, #183, #262, .T. ) ;
#38 = CARTESIAN_POINT ( 'NONE',  ( 0.06760930072668894231, 0.9010842325122884189, 0.5149999999999999023 ) ) ;
#39 = DIRECTION ( 'NONE',  ( 0.000000000000000000, 0.000000000000000000, 1.000000000000000000 ) ) ;
#40 = EDGE_CURVE ( 'NONE', #746, #441, #421, .T. ) ;
#41 = ORIENTED_EDGE ( 'NONE', *, *, #63, .T. ) ;
#42 = FACE_OUTER_BOUND ( 'NONE', #222, .T. ) ;
#43 = AXIS2_PLACEMENT_3D ( 'NONE', #92, #775, #763 ) ;
#44 = VECTOR ( 'NONE', #356, 1000.000000000000114 ) ;
#45 = DIRECTION ( 'NONE',  ( 0.000000000000000000, -1.000000000000000000, -1.101958445019772623E-16 ) ) ;
#46 = VECTOR ( 'NONE', #605, 1000.000000000000227 ) ;
#47 = ORIENTED_EDGE ( 'NONE', *, *, #234, .T. ) ;
#48 = DIRECTION ( 'NONE',  ( 0.8949343913984706411, 1.557891129246106293E-15, -0.4461977533473793778 ) ) ;
#49 = CARTESIAN_POINT ( 'NONE',  ( 2.740000000000000213, -0.5150000000000036771, 0.9838866223909983333 ) ) ;
#50 = EDGE_CURVE ( 'NONE', #208, #608, #215, .T. ) ;
#51 = CARTESIAN_POINT ( 'NONE',  ( 1.849560077140141257, 0.7556913915602414544, -0.5150000000000000133 ) ) ;
#52 = CARTESIAN_POINT ( 'NONE',  ( 2.740000000000000213, 0.9838866223910001096, 0.5150000000000001243 ) ) ;
#53 =( LENGTH_UNIT ( ) NAMED_UNIT ( * ) SI_UNIT ( .MILLI., .METRE. ) );
#54 = DIRECTION ( 'NONE',  ( -1.000000000000000000, -0.000000000000000000, -0.000000000000000000 ) ) ;
#55 = AXIS2_PLACEMENT_3D ( 'NONE', #749, #452, #65 ) ;
#56 = VECTOR ( 'NONE', #367, 1000.000000000000000 ) ;
#57 = CARTESIAN_POINT ( 'NONE',  ( 0.06760930072668863700, -0.5150000000000031219, 0.9010842325122887519 ) ) ;
#58 = CARTESIAN_POINT ( 'NONE',  ( 0.000000000000000000, -0.5149999999999913536, -2.350000000000001865 ) ) ;
#59 = ORIENTED_EDGE ( 'NONE', *, *, #193, .F. ) ;
#60 = PLANE ( 'NONE',  #84 ) ;
#61 = EDGE_LOOP ( 'NONE', ( #32, #266, #35, #713 ) ) ;
#62 = EDGE_CURVE ( 'NONE', #547, #263, #271, .T. ) ;
#63 = EDGE_CURVE ( 'NONE', #344, #221, #417, .T. ) ;
#64 = CARTESIAN_POINT ( 'NONE',  ( 11.70000000000000284, 0.000000000000000000, 0.000000000000000000 ) ) ;
#65 = DIRECTION ( 'NONE',  ( 0.000000000000000000, 0.000000000000000000, 1.000000000000000000 ) ) ;
#66 = ORIENTED_EDGE ( 'NONE', *, *, #780, .F. ) ;
#67 = AXIS2_PLACEMENT_3D ( 'NONE', #695, #595, #653 ) ;
#68 =( GEOMETRIC_REPRESENTATION_CONTEXT ( 3 ) GLOBAL_UNCERTAINTY_ASSIGNED_CONTEXT ( ( #257 ) ) GLOBAL_UNIT_ASSIGNED_CONTEXT ( ( #53, #426, #783 ) ) REPRESENTATION_CONTEXT ( 'NONE', 'WORKASPACE' ) );
#69 = PLANE ( 'NONE',  #282 ) ;
#70 = DIRECTION ( 'NONE',  ( -1.000000000000000000, -0.000000000000000000, -0.000000000000000000 ) ) ;
#71 = ORIENTED_EDGE ( 'NONE', *, *, #482, .T. ) ;
#72 = EDGE_CURVE ( 'NONE', #540, #73, #75, .T. ) ;
#73 = VERTEX_POINT ( 'NONE', #553 ) ;
#74 = DIRECTION ( 'NONE',  ( 0.000000000000000000, 1.000000000000000000, 1.086455722314322026E-16 ) ) ;
#75 = B_SPLINE_CURVE_WITH_KNOTS ( 'NONE', 3,
 ( #233, #617, #779, #784 ),
 .UNSPECIFIED., .F., .F.,
 ( 4, 4 ),
 ( 0.001586480565025038180, 0.004268227387428736100 ),
 .UNSPECIFIED. ) ;
#76 = DIRECTION ( 'NONE',  ( -0.000000000000000000, 0.000000000000000000, 1.000000000000000000 ) ) ;
#77 = EDGE_LOOP ( 'NONE', ( #581, #513, #321, #536 ) ) ;
#78 = DIRECTION ( 'NONE',  ( 0.8949343913984143528, -1.557891129246501118E-15, 0.4461977533474924540 ) ) ;
#79 = PRODUCT_DEFINITION_SHAPE ( 'NONE', 'NONE',  #164 ) ;
#80 = DIRECTION ( 'NONE',  ( -1.000000000000000000, -0.000000000000000000, -0.000000000000000000 ) ) ;
#81 = VERTEX_POINT ( 'NONE', #490 ) ;
#82 = AXIS2_PLACEMENT_3D ( 'NONE', #723, #616, #39 ) ;
#83 = CARTESIAN_POINT ( 'NONE',  ( 8.000000000000000000, -0.5150000000000003464, -1.854863749422734906E-15 ) ) ;
#84 = AXIS2_PLACEMENT_3D ( 'NONE', #446, #260, #312 ) ;
#85 = EDGE_CURVE ( 'NONE', #263, #709, #113, .T. ) ;
#86 = CARTESIAN_POINT ( 'NONE',  ( 0.9586399445693767341, -0.5149999999999969047, -0.8293189044373087127 ) ) ;
#87 = DIRECTION ( 'NONE',  ( -1.000000000000000000, -0.000000000000000000, -0.000000000000000000 ) ) ;
#88 = FACE_OUTER_BOUND ( 'NONE', #743, .T. ) ;
#89 = ORIENTED_EDGE ( 'NONE', *, *, #463, .F. ) ;
#90 = CARTESIAN_POINT ( 'NONE',  ( 3.900000000000000799, 0.000000000000000000, 2.500000000000000000 ) ) ;
#91 = CARTESIAN_POINT ( 'NONE',  ( 2.740000000000000213, 0.9838866223910001096, -0.5150000000000000133 ) ) ;
#92 = CARTESIAN_POINT ( 'NONE',  ( 2.740000000000000213, -0.5150000000000036771, 0.9838866223909983333 ) ) ;
#93 = ADVANCED_BREP_SHAPE_REPRESENTATION ( 'ISO 7045 - M5 x 8 - Z - 8N_ISO 7045 - M5 x 8 - Z - 8N', ( #497, #18 ), #374 ) ;
#94 = VECTOR ( 'NONE', #662, 1000.000000000000000 ) ;
#95 = VERTEX_POINT ( 'NONE', #606 ) ;
#96 = CARTESIAN_POINT ( 'NONE',  ( 0.000000000000000000, 0.000000000000000000, 0.000000000000000000 ) ) ;
#97 = AXIS2_PLACEMENT_3D ( 'NONE', #576, #6, #502 ) ;
#98 = CIRCLE ( 'NONE', #165, 4.750000000000000000 ) ;
#99 = CARTESIAN_POINT ( 'NONE',  ( 0.06760930072668806801, 4.163799117100990205E-16, 0.000000000000000000 ) ) ;
#100 = CARTESIAN_POINT ( 'NONE',  ( 2.740000000000000213, 0.000000000000000000, 0.000000000000000000 ) ) ;
#101 = EDGE_CURVE ( 'NONE', #459, #683, #148, .T. ) ;
#102 = EDGE_LOOP ( 'NONE', ( #156, #473, #679, #141 ) ) ;
#103 = DIRECTION ( 'NONE',  ( 6.376665489581438550E-17, 1.101958445019772500E-16, -1.000000000000000000 ) ) ;
#104 = EDGE_CURVE ( 'NONE', #649, #712, #187, .T. ) ;
#105 = CARTESIAN_POINT ( 'NONE',  ( 0.3226060873438270638, 0.5150000000000077849, -2.189154565102684469 ) ) ;
#106 = ORIENTED_EDGE ( 'NONE', *, *, #670, .T. ) ;
#107 = LINE ( 'NONE', #293, #535 ) ;
#108 = DIRECTION ( 'NONE',  ( 0.000000000000000000, 0.000000000000000000, 1.000000000000000000 ) ) ;
#109 = EDGE_LOOP ( 'NONE', ( #628 ) ) ;
#110 = DIRECTION ( 'NONE',  ( -0.000000000000000000, 0.000000000000000000, 1.000000000000000000 ) ) ;
#111 = AXIS2_PLACEMENT_3D ( 'NONE', #516, #382, #76 ) ;
#112 = CIRCLE ( 'NONE', #560, 1.037871761867651843 ) ;
#113 = LINE ( 'NONE', #52, #507 ) ;
#114 = AXIS2_PLACEMENT_3D ( 'NONE', #169, #777, #552 ) ;
#115 = CARTESIAN_POINT ( 'NONE',  ( 7.345657149124339647, -4.165871415246163777E-15, 1.312408941150046138 ) ) ;
#116 = DIRECTION ( 'NONE',  ( 0.000000000000000000, -1.000000000000000000, -3.491481338843133750E-15 ) ) ;
#117 = APPLICATION_CONTEXT ( 'automotive_design' ) ;
#118 = PRESENTATION_STYLE_ASSIGNMENT (( #718 ) ) ;
#119 = DIRECTION ( 'NONE',  ( 0.000000000000000000, 0.000000000000000000, 1.000000000000000000 ) ) ;
#120 = DIRECTION ( 'NONE',  ( 0.000000000000000000, 0.000000000000000000, 1.000000000000000000 ) ) ;
#121 = CONICAL_SURFACE ( 'NONE', #318, 0.8509999999999999787, 0.06981317007976595157 ) ;
#122 = PLANE ( 'NONE',  #267 ) ;
#123 = CIRCLE ( 'NONE', #97, 7.983406227920510467 ) ;
#124 = ORIENTED_EDGE ( 'NONE', *, *, #72, .F. ) ;
#125 = CIRCLE ( 'NONE', #439, 2.700000000000000178 ) ;
#126 = DIRECTION ( 'NONE',  ( 0.000000000000000000, 0.000000000000000000, 1.000000000000000000 ) ) ;
#127 = FACE_BOUND ( 'NONE', #773, .T. ) ;
#128 = EDGE_CURVE ( 'NONE', #324, #73, #633, .T. ) ;
#129 = VERTEX_POINT ( 'NONE', #782 ) ;
#130 = DIRECTION ( 'NONE',  ( 0.000000000000000000, 0.000000000000000000, 1.000000000000000000 ) ) ;
#131 = FACE_OUTER_BOUND ( 'NONE', #583, .T. ) ;
#132 = ORIENTED_EDGE ( 'NONE', *, *, #732, .F. ) ;
#133 = CARTESIAN_POINT ( 'NONE',  ( 0.3226060873438270638, -0.5149999999999920197, -2.189154565102687577 ) ) ;
#134 = DIRECTION ( 'NONE',  ( -1.000000000000000000, -0.000000000000000000, -0.000000000000000000 ) ) ;
#135 = ORIENTED_EDGE ( 'NONE', *, *, #541, .F. ) ;
#136 = CIRCLE ( 'NONE', #701, 0.8509999999999999787 ) ;
#137 = CIRCLE ( 'NONE', #508, 7.983406227920510467 ) ;
#138 = EDGE_CURVE ( 'NONE', #81, #208, #487, .T. ) ;
#139 = FACE_OUTER_BOUND ( 'NONE', #503, .T. ) ;
#140 = DIRECTION ( 'NONE',  ( 0.000000000000000000, -1.776356839400250465E-15, -1.000000000000000000 ) ) ;
#141 = ORIENTED_EDGE ( 'NONE', *, *, #755, .T. ) ;
#142 = CARTESIAN_POINT ( 'NONE',  ( 7.345657149124968477, -1.312408941149200370, 0.000000000000000000 ) ) ;
#143 = DIRECTION ( 'NONE',  ( 0.000000000000000000, 1.000000000000000000, 0.000000000000000000 ) ) ;
#144 = ORIENTED_EDGE ( 'NONE', *, *, #578, .T. ) ;
#145 = CARTESIAN_POINT ( 'NONE',  ( -996.9834933385058093, 0.000000000000000000, 0.000000000000000000 ) ) ;
#146 = DIRECTION ( 'NONE',  ( -1.000000000000000000, -0.000000000000000000, -0.000000000000000000 ) ) ;
#147 = ORIENTED_EDGE ( 'NONE', *, *, #517, .T. ) ;
#148 = CIRCLE ( 'NONE', #175, 7.983406227920510467 ) ;
#149 =( LENGTH_UNIT ( ) NAMED_UNIT ( * ) SI_UNIT ( .MILLI., .METRE. ) );
#150 = CIRCLE ( 'NONE', #349, 7.983406227920510467 ) ;
#151 = CARTESIAN_POINT ( 'NONE',  ( 2.740000000000000213, -0.5149999999999964606, -0.9838866223905694541 ) ) ;
#152 = ADVANCED_FACE ( 'NONE', ( #558 ), #237, .T. ) ;
#153 = EDGE_LOOP ( 'NONE', ( #527, #59, #393, #477 ) ) ;
#154 = FACE_OUTER_BOUND ( 'NONE', #793, .T. ) ;
#155 = EDGE_LOOP ( 'NONE', ( #635, #564, #720, #539, #485, #594, #47, #636 ) ) ;
#156 = ORIENTED_EDGE ( 'NONE', *, *, #578, .F. ) ;
#157 = CARTESIAN_POINT ( 'NONE',  ( 2.740000000000000213, 0.5149999999999965716, 0.9838866223910017750 ) ) ;
#158 = CARTESIAN_POINT ( 'NONE',  ( 2.740000000000000213, 0.5149999999999965716, 0.9838866223910013309 ) ) ;
#159 = ORIENTED_EDGE ( 'NONE', *, *, #72, .T. ) ;
#160 = EDGE_CURVE ( 'NONE', #251, #445, #427, .T. ) ;
#161 = EDGE_CURVE ( 'NONE', #551, #708, #136, .T. ) ;
#162 = ORIENTED_EDGE ( 'NONE', *, *, #104, .T. ) ;
#163 = AXIS2_PLACEMENT_3D ( 'NONE', #586, #415, #524 ) ;
#164 = PRODUCT_DEFINITION ( 'General', '', #587, #410 ) ;
#165 = AXIS2_PLACEMENT_3D ( 'NONE', #411, #652, #528 ) ;
#166 = SURFACE_SIDE_STYLE ('',( #486 ) ) ;
#167 = ORIENTED_EDGE ( 'NONE', *, *, #786, .F. ) ;
#168 = ORIENTED_EDGE ( 'NONE', *, *, #724, .F. ) ;
#169 = CARTESIAN_POINT ( 'NONE',  ( 2.740000000000000213, 0.000000000000000000, 0.000000000000000000 ) ) ;
#170 = CARTESIAN_POINT ( 'NONE',  ( 2.740000000000000213, 0.000000000000000000, 0.000000000000000000 ) ) ;
#171 = ORIENTED_EDGE ( 'NONE', *, *, #480, .T. ) ;
#172 = ADVANCED_FACE ( 'NONE', ( #726, #239 ), #731, .T. ) ;
#173 = DIRECTION ( 'NONE',  ( 0.8949343913984143528, 0.4461977533474925650, 0.000000000000000000 ) ) ;
#174 = CARTESIAN_POINT ( 'NONE',  ( 1.849560077140140590, 0.5149999999999973488, 0.7556913915602433418 ) ) ;
#175 = AXIS2_PLACEMENT_3D ( 'NONE', #549, #666, #672 ) ;
#176 = CIRCLE ( 'NONE', #297, 0.8509999999999999787 ) ;
#177 = PLANE ( 'NONE',  #778 ) ;
#178 = DIRECTION ( 'NONE',  ( 0.8949343913984706411, -0.4461977533473793778, 0.000000000000000000 ) ) ;
#179 = CARTESIAN_POINT ( 'NONE',  ( 0.06760930072668806801, 4.163799117100990205E-16, 0.000000000000000000 ) ) ;
#180 = DIRECTION ( 'NONE',  ( 0.000000000000000000, -1.000000000000000000, -3.491481338843133355E-15 ) ) ;
#181 = DIRECTION ( 'NONE',  ( 0.4461977533474924540, 3.124646727056501017E-15, -0.8949343913984143528 ) ) ;
#182 = EDGE_CURVE ( 'NONE', #683, #295, #520, .T. ) ;
#183 = VERTEX_POINT ( 'NONE', #371 ) ;
#184 = EDGE_CURVE ( 'NONE', #464, #464, #280, .T. ) ;
#185 = CARTESIAN_POINT ( 'NONE',  ( 2.740000000000000213, 0.000000000000000000, 0.000000000000000000 ) ) ;
#186 = CARTESIAN_POINT ( 'NONE',  ( 2.740000000000000213, 0.9838866223910001096, 0.5150000000000001243 ) ) ;
#187 = CIRCLE ( 'NONE', #319, 7.864440107515431322 ) ;
#188 = EDGE_LOOP ( 'NONE', ( #10, #389, #525, #89 ) ) ;
#189 = COLOUR_RGB ( '',0.7921568627450980005, 0.8196078431372548767, 0.9333333333333333481 ) ;
#190 = DIRECTION ( 'NONE',  ( -1.000000000000000000, -0.000000000000000000, -0.000000000000000000 ) ) ;
#191 = DIRECTION ( 'NONE',  ( 0.000000000000000000, 0.000000000000000000, 1.000000000000000000 ) ) ;
#192 = EDGE_LOOP ( 'NONE', ( #197, #135, #577, #479 ) ) ;
#193 = EDGE_CURVE ( 'NONE', #208, #760, #366, .T. ) ;
#194 = CARTESIAN_POINT ( 'NONE',  ( 1.849560077140140812, -0.5150000000000026779, 0.7556913915602396781 ) ) ;
#195 = DIRECTION ( 'NONE',  ( 0.000000000000000000, 0.000000000000000000, 1.000000000000000000 ) ) ;
#196 = EDGE_CURVE ( 'NONE', #746, #551, #310, .T. ) ;
#197 = ORIENTED_EDGE ( 'NONE', *, *, #514, .F. ) ;
#198 = ORIENTED_EDGE ( 'NONE', *, *, #463, .T. ) ;
#199 = DIRECTION ( 'NONE',  ( 1.000000000000000000, 0.000000000000000000, 0.000000000000000000 ) ) ;
#200 = FACE_OUTER_BOUND ( 'NONE', #419, .T. ) ;
#201 = APPLICATION_CONTEXT ( 'automotive_design' ) ;
#202 = ORIENTED_EDGE ( 'NONE', *, *, #480, .F. ) ;
#203 = AXIS2_PLACEMENT_3D ( 'NONE', #294, #668, #119 ) ;
#204 = CIRCLE ( 'NONE', #741, 2.500000000000000000 ) ;
#205 = CARTESIAN_POINT ( 'NONE',  ( 1.794155980045904153, 0.000000000000000000, 4.750000000000000000 ) ) ;
#206 = B_SPLINE_CURVE_WITH_KNOTS ( 'NONE', 3,
 ( #355, #432, #51, #238 ),
 .UNSPECIFIED., .F., .F.,
 ( 4, 4 ),
 ( 0.001586480563516617622, 0.004268227385920363680 ),
 .UNSPECIFIED. ) ;
#207 = CARTESIAN_POINT ( 'NONE',  ( 0.000000000000000000, -2.350000000000000089, -0.5150000000000000133 ) ) ;
#208 = VERTEX_POINT ( 'NONE', #492 ) ;
#209 = CARTESIAN_POINT ( 'NONE',  ( 2.740000000000000213, 0.9838866223910001096, 0.5150000000000001243 ) ) ;
#210 = DIRECTION ( 'NONE',  ( 0.000000000000000000, 0.000000000000000000, 1.000000000000000000 ) ) ;
#211 = CARTESIAN_POINT ( 'NONE',  ( 0.06760930072668894231, -0.9010842325122875307, -0.5149999999999997913 ) ) ;
#212 = CARTESIAN_POINT ( 'NONE',  ( 1.794155980045904153, 0.000000000000000000, 0.000000000000000000 ) ) ;
#213 = ADVANCED_FACE ( 'NONE', ( #563 ), #177, .F. ) ;
#214 = DIRECTION ( 'NONE',  ( 0.000000000000000000, -1.000000000000000000, -3.491481338843133355E-15 ) ) ;
#215 = LINE ( 'NONE', #334, #559 ) ;
#216 = CIRCLE ( 'NONE', #596, 1.037871761867651843 ) ;
#217 = ORIENTED_EDGE ( 'NONE', *, *, #286, .F. ) ;
#218 = PLANE ( 'NONE',  #219 ) ;
#219 = AXIS2_PLACEMENT_3D ( 'NONE', #470, #345, #329 ) ;
#220 = PLANE ( 'NONE',  #403 ) ;
#221 = VERTEX_POINT ( 'NONE', #105 ) ;
#222 = EDGE_LOOP ( 'NONE', ( #488, #337, #314, #340 ) ) ;
#223 = VERTEX_POINT ( 'NONE', #90 ) ;
#224 = EDGE_CURVE ( 'NONE', #540, #425, #451, .T. ) ;
#225 = CARTESIAN_POINT ( 'NONE',  ( 2.740000000000000213, 0.6774776749089226335, 0.5150000000000002354 ) ) ;
#226 = ORIENTED_EDGE ( 'NONE', *, *, #224, .F. ) ;
#227 = ADVANCED_FACE ( 'NONE', ( #323 ), #630, .T. ) ;
#228 = ORIENTED_EDGE ( 'NONE', *, *, #780, .T. ) ;
#229 = LINE ( 'NONE', #557, #46 ) ;
#230 = ORIENTED_EDGE ( 'NONE', *, *, #394, .F. ) ;
#231 = AXIS2_PLACEMENT_3D ( 'NONE', #364, #610, #478 ) ;
#232 = DIRECTION ( 'NONE',  ( -0.8949343913984143528, 0.000000000000000000, -0.4461977533474925095 ) ) ;
#233 = CARTESIAN_POINT ( 'NONE',  ( 0.06760930072668894231, -0.9010842325122877527, 0.5149999999999997913 ) ) ;
#234 = EDGE_CURVE ( 'NONE', #73, #608, #308, .T. ) ;
#235 = ORIENTED_EDGE ( 'NONE', *, *, #300, .F. ) ;
#236 = CARTESIAN_POINT ( 'NONE',  ( 0.9586399445693621901, 0.8293189044373077135, 0.5149999999999999023 ) ) ;
#237 = PLANE ( 'NONE',  #82 ) ;
#238 = CARTESIAN_POINT ( 'NONE',  ( 2.740000000000000213, 0.6774776749089226335, -0.5150000000000000133 ) ) ;
#239 = FACE_OUTER_BOUND ( 'NONE', #715, .T. ) ;
#240 = CARTESIAN_POINT ( 'NONE',  ( 0.9586399445693767341, 0.5149999999999971267, 0.8293189044373083796 ) ) ;
#241 = AXIS2_PLACEMENT_3D ( 'NONE', #593, #758, #331 ) ;
#242 = AXIS2_PLACEMENT_3D ( 'NONE', #634, #515, #249 ) ;
#243 = DIRECTION ( 'NONE',  ( 0.000000000000000000, 0.000000000000000000, 1.000000000000000000 ) ) ;
#244 = PLANE ( 'NONE',  #598 ) ;
#245 = ADVANCED_FACE ( 'NONE', ( #200 ), #443, .T. ) ;
#246 = DIRECTION ( 'NONE',  ( -1.000000000000000000, -0.000000000000000000, -0.000000000000000000 ) ) ;
#247 = ORIENTED_EDGE ( 'NONE', *, *, #505, .T. ) ;
#248 = ADVANCED_FACE ( 'NONE', ( #127, #131 ), #386, .F. ) ;
#249 = DIRECTION ( 'NONE',  ( 0.000000000000000000, -3.601677183345110531E-15, 1.000000000000000000 ) ) ;
#250 = CARTESIAN_POINT ( 'NONE',  ( 2.740000000000000213, -0.9838866223905676778, -0.5150000000000000133 ) ) ;
#251 = VERTEX_POINT ( 'NONE', #250 ) ;
#252 = CARTESIAN_POINT ( 'NONE',  ( 0.3226060873438383325, 2.189154565102731542, -0.5149999999999997913 ) ) ;
#253 = FACE_OUTER_BOUND ( 'NONE', #353, .T. ) ;
#254 = VECTOR ( 'NONE', #243, 1000.000000000000000 ) ;
#255 = ORIENTED_EDGE ( 'NONE', *, *, #85, .T. ) ;
#256 = VECTOR ( 'NONE', #78, 1000.000000000000227 ) ;
#257 = UNCERTAINTY_MEASURE_WITH_UNIT (LENGTH_MEASURE( 1.000000000000000082E-05 ), #53, 'distance_accuracy_value', 'NONE');
#258 = DIRECTION ( 'NONE',  ( 0.8949343913984143528, -1.664127239982211373E-15, 0.4461977533474924540 ) ) ;
#259 = ORIENTED_EDGE ( 'NONE', *, *, #306, .F. ) ;
#260 = DIRECTION ( 'NONE',  ( -0.000000000000000000, 0.000000000000000000, 1.000000000000000000 ) ) ;
#261 = CARTESIAN_POINT ( 'NONE',  ( 11.70000000000000284, 2.500000000000000000, 0.000000000000000000 ) ) ;
#262 = B_SPLINE_CURVE_WITH_KNOTS ( 'NONE', 3,
 ( #597, #759, #530, #211 ),
 .UNSPECIFIED., .F., .F.,
 ( 4, 4 ),
 ( 0.004656695504653253839, 0.007337072591785141762 ),
 .UNSPECIFIED. ) ;
#263 = VERTEX_POINT ( 'NONE', #186 ) ;
#264 = DIRECTION ( 'NONE',  ( 6.376665489581438550E-17, 1.000000000000000000, 3.601677183345110531E-15 ) ) ;
#265 = CARTESIAN_POINT ( 'NONE',  ( 2.740000000000000213, 0.000000000000000000, 0.000000000000000000 ) ) ;
#266 = ORIENTED_EDGE ( 'NONE', *, *, #623, .F. ) ;
#267 = AXIS2_PLACEMENT_3D ( 'NONE', #569, #624, #2 ) ;
#268 = CIRCLE ( 'NONE', #363, 7.983406227920510467 ) ;
#269 = DIRECTION ( 'NONE',  ( -1.000000000000000000, -0.000000000000000000, -0.000000000000000000 ) ) ;
#270 = FACE_OUTER_BOUND ( 'NONE', #357, .T. ) ;
#271 = LINE ( 'NONE', #467, #504 ) ;
#272 = ORIENTED_EDGE ( 'NONE', *, *, #101, .T. ) ;
#273 = DIRECTION ( 'NONE',  ( -1.000000000000000000, -0.000000000000000000, -0.000000000000000000 ) ) ;
#274 = PLANE ( 'NONE',  #163 ) ;
#275 = DIRECTION ( 'NONE',  ( 0.000000000000000000, 0.000000000000000000, 1.000000000000000000 ) ) ;
#276 = ORIENTED_EDGE ( 'NONE', *, *, #592, .F. ) ;
#277 = DIRECTION ( 'NONE',  ( 0.4461977533473794333, 0.8949343913984707521, 0.000000000000000000 ) ) ;
#278 = FACE_OUTER_BOUND ( 'NONE', #109, .T. ) ;
#279 = ORIENTED_EDGE ( 'NONE', *, *, #786, .T. ) ;
#280 = CIRCLE ( 'NONE', #362, 4.556291390728477886 ) ;
#281 = EDGE_CURVE ( 'NONE', #709, #129, #727, .T. ) ;
#282 = AXIS2_PLACEMENT_3D ( 'NONE', #568, #180, #199 ) ;
#283 = ORIENTED_EDGE ( 'NONE', *, *, #196, .T. ) ;
#284 = VERTEX_POINT ( 'NONE', #205 ) ;
#285 = CARTESIAN_POINT ( 'NONE',  ( 0.3226060873438392207, 0.5149999999999921307, 2.189154565102733319 ) ) ;
#286 = EDGE_CURVE ( 'NONE', #615, #7, #123, .T. ) ;
#287 = EDGE_LOOP ( 'NONE', ( #228 ) ) ;
#288 = PRODUCT ( 'ISO 7045 - M5 x 8 - Z - 8N_ISO 7045 - M5 x 8 - Z - 8N', 'ISO 7045 - M5 x 8 - Z - 8N_ISO 7045 - M5 x 8 - Z - 8N', '', ( #600 ) ) ;
#289 = ORIENTED_EDGE ( 'NONE', *, *, #698, .T. ) ;
#290 = DIRECTION ( 'NONE',  ( 0.000000000000000000, 0.000000000000000000, -1.000000000000000000 ) ) ;
#291 = EDGE_LOOP ( 'NONE', ( #781 ) ) ;
#292 = EDGE_LOOP ( 'NONE', ( #66 ) ) ;
#293 = CARTESIAN_POINT ( 'NONE',  ( 2.740000000000000213, -0.9838866223905676778, -0.5150000000000000133 ) ) ;
#294 = CARTESIAN_POINT ( 'NONE',  ( -25.39999999999996305, 0.000000000000000000, 0.000000000000000000 ) ) ;
#295 = VERTEX_POINT ( 'NONE', #692 ) ;
#296 = CIRCLE ( 'NONE', #493, 7.983406227920510467 ) ;
#297 = AXIS2_PLACEMENT_3D ( 'NONE', #437, #626, #126 ) ;
#298 = DIRECTION ( 'NONE',  ( -1.000000000000000000, -0.000000000000000000, -0.000000000000000000 ) ) ;
#299 = DIRECTION ( 'NONE',  ( 0.8949343913984706411, -0.4461977533473793778, 0.000000000000000000 ) ) ;
#300 = EDGE_CURVE ( 'NONE', #603, #441, #745, .T. ) ;
#301 = ADVANCED_FACE ( 'NONE', ( #391 ), #438, .F. ) ;
#302 = LINE ( 'NONE', #420, #29 ) ;
#303 = DIRECTION ( 'NONE',  ( 0.000000000000000000, -3.491481338843133355E-15, 1.000000000000000000 ) ) ;
#304 = CARTESIAN_POINT ( 'NONE',  ( 0.000000000000000000, 2.350000000000000089, -0.5150000000000000133 ) ) ;
#305 = CARTESIAN_POINT ( 'NONE',  ( 0.000000000000000000, -0.5150000000000084510, 2.349999999999998312 ) ) ;
#306 = EDGE_CURVE ( 'NONE', #425, #81, #296, .T. ) ;
#307 = CARTESIAN_POINT ( 'NONE',  ( 0.06760930072668894231, -0.9010842325122877527, 0.5149999999999997913 ) ) ;
#308 = CIRCLE ( 'NONE', #680, 0.8509999999999999787 ) ;
#309 = CIRCLE ( 'NONE', #454, 7.864440107515625833 ) ;
#310 = LINE ( 'NONE', #734, #3 ) ;
#311 = ORIENTED_EDGE ( 'NONE', *, *, #50, .T. ) ;
#312 = DIRECTION ( 'NONE',  ( 1.000000000000000000, 0.000000000000000000, 0.000000000000000000 ) ) ;
#313 = CARTESIAN_POINT ( 'NONE',  ( 2.740000000000000213, -0.6774776749089226335, -0.5150000000000000133 ) ) ;
#314 = ORIENTED_EDGE ( 'NONE', *, *, #196, .F. ) ;
#315 = ADVANCED_FACE ( 'NONE', ( #682 ), #585, .F. ) ;
#316 = ORIENTED_EDGE ( 'NONE', *, *, #592, .T. ) ;
#317 = DIRECTION ( 'NONE',  ( -1.000000000000000000, -0.000000000000000000, -0.000000000000000000 ) ) ;
#318 = AXIS2_PLACEMENT_3D ( 'NONE', #100, #87, #275 ) ;
#319 = AXIS2_PLACEMENT_3D ( 'NONE', #368, #619, #173 ) ;
#320 = AXIS2_PLACEMENT_3D ( 'NONE', #185, #442, #744 ) ;
#321 = ORIENTED_EDGE ( 'NONE', *, *, #664, .F. ) ;
#322 = CARTESIAN_POINT ( 'NONE',  ( 2.740000000000000213, -0.5150000000000025668, 0.6774776749089207462 ) ) ;
#323 = FACE_OUTER_BOUND ( 'NONE', #639, .T. ) ;
#324 = VERTEX_POINT ( 'NONE', #313 ) ;
#325 = FACE_OUTER_BOUND ( 'NONE', #292, .T. ) ;
#326 = DIRECTION ( 'NONE',  ( 1.000000000000000000, 0.000000000000000000, 0.000000000000000000 ) ) ;
#327 = ORIENTED_EDGE ( 'NONE', *, *, #4, .F. ) ;
#328 = EDGE_CURVE ( 'NONE', #769, #183, #112, .T. ) ;
#329 = DIRECTION ( 'NONE',  ( 0.000000000000000000, 1.000000000000000000, 1.101958445019772500E-16 ) ) ;
#330 = EDGE_CURVE ( 'NONE', #712, #251, #754, .T. ) ;
#331 = DIRECTION ( 'NONE',  ( 0.000000000000000000, 1.000000000000000000, 1.101958445019772500E-16 ) ) ;
#332 = AXIS2_PLACEMENT_3D ( 'NONE', #654, #772, #476 ) ;
#333 = ADVANCED_FACE ( 'NONE', ( #678 ), #122, .T. ) ;
#334 = CARTESIAN_POINT ( 'NONE',  ( 2.740000000000000213, -0.5150000000000036771, 0.9838866223909983333 ) ) ;
#335 = AXIS2_PLACEMENT_3D ( 'NONE', #521, #375, #326 ) ;
#336 = CIRCLE ( 'NONE', #387, 4.750000000000000000 ) ;
#337 = ORIENTED_EDGE ( 'NONE', *, *, #161, .F. ) ;
#338 = DIRECTION ( 'NONE',  ( 0.000000000000000000, -3.598884580166191478E-15, 1.000000000000000000 ) ) ;
#339 = DIRECTION ( 'NONE',  ( -1.000000000000000000, 0.000000000000000000, 0.000000000000000000 ) ) ;
#340 = ORIENTED_EDGE ( 'NONE', *, *, #40, .T. ) ;
#341 = PLANE ( 'NONE',  #67 ) ;
#342 = ORIENTED_EDGE ( 'NONE', *, *, #545, .T. ) ;
#343 = ADVANCED_FACE ( 'NONE', ( #253 ), #274, .T. ) ;
#344 = VERTEX_POINT ( 'NONE', #529 ) ;
#345 = DIRECTION ( 'NONE',  ( 6.376665489581438550E-17, 1.101958445019772500E-16, -1.000000000000000000 ) ) ;
#346 = PLANE ( 'NONE',  #348 ) ;
#347 = CARTESIAN_POINT ( 'NONE',  ( 2.740000000000000213, 0.5150000000000035660, -0.9838866223905660124 ) ) ;
#348 = AXIS2_PLACEMENT_3D ( 'NONE', #644, #339, #471 ) ;
#349 = AXIS2_PLACEMENT_3D ( 'NONE', #685, #690, #74 ) ;
#350 = ORIENTED_EDGE ( 'NONE', *, *, #62, .F. ) ;
#351 = FACE_OUTER_BOUND ( 'NONE', #399, .T. ) ;
#352 = FACE_OUTER_BOUND ( 'NONE', #153, .T. ) ;
#353 = EDGE_LOOP ( 'NONE', ( #625, #455, #756, #235 ) ) ;
#354 = APPLICATION_PROTOCOL_DEFINITION ( 'draft international standard', 'automotive_design', 1998, #117 ) ;
#355 = CARTESIAN_POINT ( 'NONE',  ( 0.06760930072668894231, 0.9010842325122884189, -0.5149999999999997913 ) ) ;
#356 = DIRECTION ( 'NONE',  ( 0.8949343913984706411, 1.557891129246106293E-15, -0.4461977533473793778 ) ) ;
#357 = EDGE_LOOP ( 'NONE', ( #510 ) ) ;
#358 = DIRECTION ( 'NONE',  ( 0.000000000000000000, 1.000000000000000000, 0.000000000000000000 ) ) ;
#359 = DIRECTION ( 'NONE',  ( 0.000000000000000000, 0.000000000000000000, 1.000000000000000000 ) ) ;
#360 = ADVANCED_FACE ( 'NONE', ( #412 ), #602, .F. ) ;
#361 = ORIENTED_EDGE ( 'NONE', *, *, #104, .F. ) ;
#362 = AXIS2_PLACEMENT_3D ( 'NONE', #424, #499, #359 ) ;
#363 = AXIS2_PLACEMENT_3D ( 'NONE', #83, #264, #338 ) ;
#364 = CARTESIAN_POINT ( 'NONE',  ( 3.900000000000000799, 0.000000000000000000, 0.000000000000000000 ) ) ;
#365 = B_SPLINE_CURVE_WITH_KNOTS ( 'NONE', 3,
 ( #725, #240, #174, #423 ),
 .UNSPECIFIED., .F., .F.,
 ( 4, 4 ),
 ( 0.001586480563516616104, 0.004268227385920363680 ),
 .UNSPECIFIED. ) ;
#366 = LINE ( 'NONE', #49, #789 ) ;
#367 = DIRECTION ( 'NONE',  ( 0.000000000000000000, -3.491481338843133355E-15, 1.000000000000000000 ) ) ;
#368 = CARTESIAN_POINT ( 'NONE',  ( 7.345657149124340535, 1.312408941150046582, 0.000000000000000000 ) ) ;
#369 = ADVANCED_FACE ( 'NONE', ( #278, #658 ), #762, .T. ) ;
#370 = CARTESIAN_POINT ( 'NONE',  ( 2.740000000000000213, 0.5150000000000035660, -0.9838866223905660124 ) ) ;
#371 = CARTESIAN_POINT ( 'NONE',  ( 0.06760930072668894231, -0.9010842325122875307, -0.5149999999999997913 ) ) ;
#372 = FACE_OUTER_BOUND ( 'NONE', #15, .T. ) ;
#373 = CIRCLE ( 'NONE', #669, 7.983406227920510467 ) ;
#374 =( GEOMETRIC_REPRESENTATION_CONTEXT ( 3 ) GLOBAL_UNCERTAINTY_ASSIGNED_CONTEXT ( ( #571 ) ) GLOBAL_UNIT_ASSIGNED_CONTEXT ( ( #149, #457, #25 ) ) REPRESENTATION_CONTEXT ( 'NONE', 'WORKASPACE' ) );
#375 = DIRECTION ( 'NONE',  ( -0.000000000000000000, 0.000000000000000000, 1.000000000000000000 ) ) ;
#376 = ORIENTED_EDGE ( 'NONE', *, *, #755, .F. ) ;
#377 = ADVANCED_FACE ( 'NONE', ( #351 ), #341, .F. ) ;
#378 = FACE_OUTER_BOUND ( 'NONE', #188, .T. ) ;
#379 = CARTESIAN_POINT ( 'NONE',  ( 0.06760930072668806801, 4.163799117100990205E-16, 0.000000000000000000 ) ) ;
#380 = ORIENTED_EDGE ( 'NONE', *, *, #733, .F. ) ;
#381 = CARTESIAN_POINT ( 'NONE',  ( 0.06760930072668755453, 0.5149999999999969047, 0.9010842325122923047 ) ) ;
#382 = DIRECTION ( 'NONE',  ( -1.000000000000000000, 0.000000000000000000, -0.000000000000000000 ) ) ;
#383 = ORIENTED_EDGE ( 'NONE', *, *, #545, .F. ) ;
#384 = CARTESIAN_POINT ( 'NONE',  ( 2.740000000000000213, -0.5150000000000025668, 0.6774776749089207462 ) ) ;
#385 = VECTOR ( 'NONE', #258, 1000.000000000000227 ) ;
#386 = PLANE ( 'NONE',  #111 ) ;
#387 = AXIS2_PLACEMENT_3D ( 'NONE', #212, #273, #657 ) ;
#388 = ORIENTED_EDGE ( 'NONE', *, *, #546, .F. ) ;
#389 = ORIENTED_EDGE ( 'NONE', *, *, #554, .F. ) ;
#390 = CARTESIAN_POINT ( 'NONE',  ( 1.849560077140106840, 0.5150000000000027889, -0.7556913915602427867 ) ) ;
#391 = FACE_OUTER_BOUND ( 'NONE', #738, .T. ) ;
#392 = B_SPLINE_CURVE_WITH_KNOTS ( 'NONE', 3,
 ( #322, #194, #677, #57 ),
 .UNSPECIFIED., .F., .F.,
 ( 4, 4 ),
 ( 0.004656695504653252972, 0.007337072591785140027 ),
 .UNSPECIFIED. ) ;
#393 = ORIENTED_EDGE ( 'NONE', *, *, #138, .F. ) ;
#394 = EDGE_CURVE ( 'NONE', #7, #344, #216, .T. ) ;
#395 = FACE_OUTER_BOUND ( 'NONE', #287, .T. ) ;
#396 = ADVANCED_FACE ( 'NONE', ( #88 ), #542, .T. ) ;
#397 = CARTESIAN_POINT ( 'NONE',  ( 0.06760930072668755453, -0.5149999999999965716, -0.9010842325122924157 ) ) ;
#398 = PRODUCT_RELATED_PRODUCT_CATEGORY ( 'part', '', ( #288 ) ) ;
#399 = EDGE_LOOP ( 'NONE', ( #147, #376, #350, #132 ) ) ;
#400 = DIRECTION ( 'NONE',  ( 0.000000000000000000, 0.000000000000000000, 1.000000000000000000 ) ) ;
#401 = FACE_OUTER_BOUND ( 'NONE', #192, .T. ) ;
#402 = CARTESIAN_POINT ( 'NONE',  ( 0.06760930072668894231, 0.9010842325122884189, -0.5149999999999997913 ) ) ;
#403 = AXIS2_PLACEMENT_3D ( 'NONE', #158, #214, #707 ) ;
#404 = VECTOR ( 'NONE', #178, 1000.000000000000114 ) ;
#405 = VERTEX_POINT ( 'NONE', #91 ) ;
#406 = DIRECTION ( 'NONE',  ( 0.000000000000000000, 0.000000000000000000, 1.000000000000000000 ) ) ;
#407 = ADVANCED_FACE ( 'NONE', ( #30 ), #220, .T. ) ;
#408 = LINE ( 'NONE', #702, #689 ) ;
#409 = ORIENTED_EDGE ( 'NONE', *, *, #514, .T. ) ;
#410 = PRODUCT_DEFINITION_CONTEXT ( 'detailed design', #201, 'design' ) ;
#411 = CARTESIAN_POINT ( 'NONE',  ( 3.700000000000001954, 0.000000000000000000, 0.000000000000000000 ) ) ;
#412 = FACE_OUTER_BOUND ( 'NONE', #667, .T. ) ;
#413 = ORIENTED_EDGE ( 'NONE', *, *, #554, .T. ) ;
#414 = EDGE_LOOP ( 'NONE', ( #663 ) ) ;
#415 = DIRECTION ( 'NONE',  ( 6.376665489581438550E-17, 1.000000000000000000, 3.601677183345110531E-15 ) ) ;
#416 = FACE_OUTER_BOUND ( 'NONE', #61, .T. ) ;
#417 = CIRCLE ( 'NONE', #764, 7.983406227920510467 ) ;
#418 = VECTOR ( 'NONE', #22, 1000.000000000000000 ) ;
#419 = EDGE_LOOP ( 'NONE', ( #570 ) ) ;
#420 = CARTESIAN_POINT ( 'NONE',  ( 0.000000000000000000, 0.5149999999999917977, 2.350000000000001865 ) ) ;
#421 = LINE ( 'NONE', #347, #94 ) ;
#422 = ORIENTED_EDGE ( 'NONE', *, *, #63, .F. ) ;
#423 = CARTESIAN_POINT ( 'NONE',  ( 2.740000000000000213, 0.5149999999999976819, 0.6774776749089244099 ) ) ;
#424 = CARTESIAN_POINT ( 'NONE',  ( 1.424271237134736801, 0.000000000000000000, 0.000000000000000000 ) ) ;
#425 = VERTEX_POINT ( 'NONE', #19 ) ;
#426 =( NAMED_UNIT ( * ) PLANE_ANGLE_UNIT ( ) SI_UNIT ( $, .RADIAN. ) );
#427 = LINE ( 'NONE', #788, #254 ) ;
#428 = AXIS2_PLACEMENT_3D ( 'NONE', #261, #686, #509 ) ;
#429 = EDGE_CURVE ( 'NONE', #73, #445, #408, .T. ) ;
#430 = CARTESIAN_POINT ( 'NONE',  ( 8.000000000000000000, 0.5149999999999997913, 1.798112889504211785E-15 ) ) ;
#431 = EDGE_CURVE ( 'NONE', #769, #708, #607, .T. ) ;
#432 = CARTESIAN_POINT ( 'NONE',  ( 0.9586399445693776222, 0.8293189044373064922, -0.5150000000000000133 ) ) ;
#433 = DIRECTION ( 'NONE',  ( 0.000000000000000000, 0.000000000000000000, 1.000000000000000000 ) ) ;
#434 = CYLINDRICAL_SURFACE ( 'NONE', #660, 4.750000000000000000 ) ;
#435 = DIRECTION ( 'NONE',  ( 0.8949343913984143528, -1.557891129246501118E-15, 0.4461977533474924540 ) ) ;
#436 = ORIENTED_EDGE ( 'NONE', *, *, #37, .T. ) ;
#437 = CARTESIAN_POINT ( 'NONE',  ( 2.740000000000000213, 0.000000000000000000, 0.000000000000000000 ) ) ;
#438 = CONICAL_SURFACE ( 'NONE', #572, 0.8509999999999999787, 0.06981317007976595157 ) ;
#439 = AXIS2_PLACEMENT_3D ( 'NONE', #729, #298, #491 ) ;
#440 = CARTESIAN_POINT ( 'NONE',  ( 2.740000000000000213, 0.000000000000000000, 0.000000000000000000 ) ) ;
#441 = VERTEX_POINT ( 'NONE', #151 ) ;
#442 = DIRECTION ( 'NONE',  ( -1.000000000000000000, -0.000000000000000000, -0.000000000000000000 ) ) ;
#443 = PLANE ( 'NONE',  #428 ) ;
#444 = ADVANCED_FACE ( 'NONE', ( #648, #270 ), #751, .F. ) ;
#445 = VERTEX_POINT ( 'NONE', #461 ) ;
#446 = CARTESIAN_POINT ( 'NONE',  ( 2.740000000000000213, 0.9838866223909996656, -0.5150000000000000133 ) ) ;
#447 = DIRECTION ( 'NONE',  ( 0.8949343913984143528, 0.4461977533474924540, 0.000000000000000000 ) ) ;
#448 = ORIENTED_EDGE ( 'NONE', *, *, #234, .F. ) ;
#449 = CARTESIAN_POINT ( 'NONE',  ( 2.740000000000000213, -0.9838866223905676778, -0.5150000000000000133 ) ) ;
#450 = CIRCLE ( 'NONE', #332, 0.8509999999999999787 ) ;
#451 = CIRCLE ( 'NONE', #533, 1.037871761867651843 ) ;
#452 = DIRECTION ( 'NONE',  ( -1.000000000000000000, -0.000000000000000000, -0.000000000000000000 ) ) ;
#453 = ADVANCED_FACE ( 'NONE', ( #401 ), #346, .T. ) ;
#454 = AXIS2_PLACEMENT_3D ( 'NONE', #142, #277, #17 ) ;
#455 = ORIENTED_EDGE ( 'NONE', *, *, #431, .T. ) ;
#456 = EDGE_CURVE ( 'NONE', #708, #441, #767, .T. ) ;
#457 =( NAMED_UNIT ( * ) PLANE_ANGLE_UNIT ( ) SI_UNIT ( $, .RADIAN. ) );
#458 = CARTESIAN_POINT ( 'NONE',  ( 3.900000000000000799, 0.000000000000000000, 0.000000000000000000 ) ) ;
#459 = VERTEX_POINT ( 'NONE', #285 ) ;
#460 = CARTESIAN_POINT ( 'NONE',  ( 3.700000000000000178, 0.000000000000000000, 2.700000000000000178 ) ) ;
#461 = CARTESIAN_POINT ( 'NONE',  ( 2.740000000000000213, -0.9838866223905676778, 0.5149999999999999023 ) ) ;
#462 = ORIENTED_EDGE ( 'NONE', *, *, #517, .F. ) ;
#463 = EDGE_CURVE ( 'NONE', #709, #295, #650, .T. ) ;
#464 = VERTEX_POINT ( 'NONE', #640 ) ;
#465 = DIRECTION ( 'NONE',  ( 0.8949343913984143528, 0.4461977533474924540, 0.000000000000000000 ) ) ;
#466 = AXIS2_PLACEMENT_3D ( 'NONE', #458, #80, #210 ) ;
#467 = CARTESIAN_POINT ( 'NONE',  ( 0.000000000000000000, 2.350000000000000089, 0.5150000000000001243 ) ) ;
#468 = AXIS2_PLACEMENT_3D ( 'NONE', #265, #512, #195 ) ;
#469 = ORIENTED_EDGE ( 'NONE', *, *, #732, .T. ) ;
#470 = CARTESIAN_POINT ( 'NONE',  ( 2.740000000000000213, -0.9838866223905672337, 0.5149999999999999023 ) ) ;
#471 = DIRECTION ( 'NONE',  ( 0.000000000000000000, 0.000000000000000000, 1.000000000000000000 ) ) ;
#472 = ORIENTED_EDGE ( 'NONE', *, *, #623, .T. ) ;
#473 = ORIENTED_EDGE ( 'NONE', *, *, #281, .F. ) ;
#474 = CARTESIAN_POINT ( 'NONE',  ( 3.700000000000001954, 0.000000000000000000, 4.750000000000000000 ) ) ;
#475 = CARTESIAN_POINT ( 'NONE',  ( 1.849560077140107062, 0.7556913915602444520, 0.5150000000000001243 ) ) ;
#476 = DIRECTION ( 'NONE',  ( 0.000000000000000000, 0.000000000000000000, 1.000000000000000000 ) ) ;
#477 = ORIENTED_EDGE ( 'NONE', *, *, #698, .F. ) ;
#478 = DIRECTION ( 'NONE',  ( 0.000000000000000000, 0.000000000000000000, 1.000000000000000000 ) ) ;
#479 = ORIENTED_EDGE ( 'NONE', *, *, #193, .T. ) ;
#480 = EDGE_CURVE ( 'NONE', #183, #712, #373, .T. ) ;
#481 = CLOSED_SHELL ( 'NONE', ( #369, #601, #227, #396, #730, #333, #580, #152, #407, #631, #655, #343, #172, #248, #676, #739, #245, #444, #377, #360, #453, #13, #213, #675, #301, #11, #315, #697 ) ) ;
#482 = EDGE_CURVE ( 'NONE', #603, #221, #766, .T. ) ;
#483 = CIRCLE ( 'NONE', #231, 2.500000000000000000 ) ;
#484 = EDGE_CURVE ( 'NONE', #223, #223, #483, .T. ) ;
#485 = ORIENTED_EDGE ( 'NONE', *, *, #4, .T. ) ;
#486 = SURFACE_STYLE_FILL_AREA ( #722 ) ;
#487 = LINE ( 'NONE', #305, #44 ) ;
#488 = ORIENTED_EDGE ( 'NONE', *, *, #456, .F. ) ;
#489 = DIRECTION ( 'NONE',  ( 0.4461977533474925650, 3.124646727056501017E-15, -0.8949343913984144638 ) ) ;
#490 = CARTESIAN_POINT ( 'NONE',  ( 0.3226060873438383325, -0.5150000000000078959, 2.189154565102729766 ) ) ;
#491 = DIRECTION ( 'NONE',  ( 0.000000000000000000, 0.000000000000000000, 1.000000000000000000 ) ) ;
#492 = CARTESIAN_POINT ( 'NONE',  ( 2.740000000000000213, -0.5150000000000036771, 0.9838866223909983333 ) ) ;
#493 = AXIS2_PLACEMENT_3D ( 'NONE', #14, #566, #737 ) ;
#494 = CIRCLE ( 'NONE', #114, 0.8509999999999999787 ) ;
#495 = FILL_AREA_STYLE_COLOUR ( '', #189 ) ;
#496 = DIRECTION ( 'NONE',  ( -1.000000000000000000, -0.000000000000000000, -0.000000000000000000 ) ) ;
#497 = MANIFOLD_SOLID_BREP ( 'RecessCore', #481 ) ;
#498 = DIRECTION ( 'NONE',  ( -1.000000000000000000, -0.000000000000000000, -0.000000000000000000 ) ) ;
#499 = DIRECTION ( 'NONE',  ( -1.000000000000000000, -0.000000000000000000, -0.000000000000000000 ) ) ;
#500 = ORIENTED_EDGE ( 'NONE', *, *, #546, .T. ) ;
#501 = CARTESIAN_POINT ( 'NONE',  ( 2.740000000000000213, 0.9838866223910001096, -0.5149999999999999023 ) ) ;
#502 = DIRECTION ( 'NONE',  ( 1.000000000000000000, 0.000000000000000000, 0.000000000000000000 ) ) ;
#503 = EDGE_LOOP ( 'NONE', ( #279 ) ) ;
#504 = VECTOR ( 'NONE', #299, 1000.000000000000114 ) ;
#505 = EDGE_CURVE ( 'NONE', #7, #129, #206, .T. ) ;
#506 = CARTESIAN_POINT ( 'NONE',  ( 2.740000000000000213, 0.5150000000000024558, -0.6774776749089207462 ) ) ;
#507 = VECTOR ( 'NONE', #45, 1000.000000000000000 ) ;
#508 = AXIS2_PLACEMENT_3D ( 'NONE', #555, #103, #562 ) ;
#509 = DIRECTION ( 'NONE',  ( 0.000000000000000000, 0.000000000000000000, -1.000000000000000000 ) ) ;
#510 = ORIENTED_EDGE ( 'NONE', *, *, #526, .F. ) ;
#511 = DIRECTION ( 'NONE',  ( 0.000000000000000000, 0.000000000000000000, 1.000000000000000000 ) ) ;
#512 = DIRECTION ( 'NONE',  ( -1.000000000000000000, -0.000000000000000000, -0.000000000000000000 ) ) ;
#513 = ORIENTED_EDGE ( 'NONE', *, *, #128, .F. ) ;
#514 = EDGE_CURVE ( 'NONE', #95, #760, #548, .T. ) ;
#515 = DIRECTION ( 'NONE',  ( 6.376665489581438550E-17, 1.000000000000000000, 3.601677183345110531E-15 ) ) ;
#516 = CARTESIAN_POINT ( 'NONE',  ( 3.700000000000000178, 2.500000000000000000, 0.000000000000000000 ) ) ;
#517 = EDGE_CURVE ( 'NONE', #615, #405, #618, .T. ) ;
#518 = ORIENTED_EDGE ( 'NONE', *, *, #664, .T. ) ;
#519 = CARTESIAN_POINT ( 'NONE',  ( 11.70000000000000284, 0.000000000000000000, 2.500000000000000000 ) ) ;
#520 = CIRCLE ( 'NONE', #659, 1.037871761867651843 ) ;
#521 = CARTESIAN_POINT ( 'NONE',  ( 2.740000000000000213, 0.9838866223909996656, -0.5150000000000000133 ) ) ;
#522 = ORIENTED_EDGE ( 'NONE', *, *, #733, .T. ) ;
#523 = VERTEX_POINT ( 'NONE', #519 ) ;
#524 = DIRECTION ( 'NONE',  ( 0.000000000000000000, -3.601677183345110531E-15, 1.000000000000000000 ) ) ;
#525 = ORIENTED_EDGE ( 'NONE', *, *, #182, .T. ) ;
#526 = EDGE_CURVE ( 'NONE', #700, #700, #125, .T. ) ;
#527 = ORIENTED_EDGE ( 'NONE', *, *, #543, .T. ) ;
#528 = DIRECTION ( 'NONE',  ( 0.000000000000000000, 0.000000000000000000, 1.000000000000000000 ) ) ;
#529 = CARTESIAN_POINT ( 'NONE',  ( 0.06760930072668835944, 0.5150000000000032330, -0.9010842325122887519 ) ) ;
#530 = CARTESIAN_POINT ( 'NONE',  ( 0.9586399445693780663, -0.8293189044373064922, -0.5150000000000000133 ) ) ;
#531 = CARTESIAN_POINT ( 'NONE',  ( 0.06760930072668755453, -0.5149999999999965716, -0.9010842325122924157 ) ) ;
#532 = CARTESIAN_POINT ( 'NONE',  ( 1.849560077140140812, -0.5149999999999972378, -0.7556913915602434528 ) ) ;
#533 = AXIS2_PLACEMENT_3D ( 'NONE', #742, #70, #140 ) ;
#534 = ORIENTED_EDGE ( 'NONE', *, *, #526, .T. ) ;
#535 = VECTOR ( 'NONE', #358, 1000.000000000000000 ) ;
#536 = ORIENTED_EDGE ( 'NONE', *, *, #160, .T. ) ;
#537 = LINE ( 'NONE', #584, #256 ) ;
#538 = CARTESIAN_POINT ( 'NONE',  ( 2.740000000000000213, -0.9838866223905676778, -0.5150000000000000133 ) ) ;
#539 = ORIENTED_EDGE ( 'NONE', *, *, #161, .T. ) ;
#540 = VERTEX_POINT ( 'NONE', #307 ) ;
#541 = EDGE_CURVE ( 'NONE', #608, #95, #494, .T. ) ;
#542 = PLANE ( 'NONE',  #241 ) ;
#543 = EDGE_CURVE ( 'NONE', #459, #760, #302, .T. ) ;
#544 = PLANE ( 'NONE',  #43 ) ;
#545 = EDGE_CURVE ( 'NONE', #649, #540, #137, .T. ) ;
#546 = EDGE_CURVE ( 'NONE', #649, #445, #229, .T. ) ;
#547 = VERTEX_POINT ( 'NONE', #787 ) ;
#548 = LINE ( 'NONE', #370, #56 ) ;
#549 = CARTESIAN_POINT ( 'NONE',  ( 8.000000000000000000, 0.5149999999999997913, 1.798112889504211785E-15 ) ) ;
#550 = CIRCLE ( 'NONE', #320, 0.8509999999999999787 ) ;
#551 = VERTEX_POINT ( 'NONE', #665 ) ;
#552 = DIRECTION ( 'NONE',  ( 0.000000000000000000, 0.000000000000000000, 1.000000000000000000 ) ) ;
#553 = CARTESIAN_POINT ( 'NONE',  ( 2.740000000000000213, -0.6774776749089227446, 0.5149999999999999023 ) ) ;
#554 = EDGE_CURVE ( 'NONE', #683, #95, #365, .T. ) ;
#555 = CARTESIAN_POINT ( 'NONE',  ( 8.000000000000000000, 3.596290517915806822E-16, 0.5150000000000003464 ) ) ;
#556 = CARTESIAN_POINT ( 'NONE',  ( 2.740000000000000213, 0.000000000000000000, 0.000000000000000000 ) ) ;
#557 = CARTESIAN_POINT ( 'NONE',  ( 0.000000000000000000, -2.350000000000000089, 0.5149999999999995692 ) ) ;
#558 = FACE_OUTER_BOUND ( 'NONE', #102, .T. ) ;
#559 = VECTOR ( 'NONE', #20, 1000.000000000000000 ) ;
#560 = AXIS2_PLACEMENT_3D ( 'NONE', #379, #795, #627 ) ;
#561 = AXIS2_PLACEMENT_3D ( 'NONE', #706, #269, #406 ) ;
#562 = DIRECTION ( 'NONE',  ( 0.000000000000000000, 1.000000000000000000, 1.086455722314322026E-16 ) ) ;
#563 = FACE_OUTER_BOUND ( 'NONE', #661, .T. ) ;
#564 = ORIENTED_EDGE ( 'NONE', *, *, #281, .T. ) ;
#565 = CARTESIAN_POINT ( 'NONE',  ( 0.06760930072668835944, 0.5150000000000032330, -0.9010842325122887519 ) ) ;
#566 = DIRECTION ( 'NONE',  ( 6.376665489581438550E-17, 1.000000000000000000, 3.601677183345110531E-15 ) ) ;
#567 = ORIENTED_EDGE ( 'NONE', *, *, #138, .T. ) ;
#568 = CARTESIAN_POINT ( 'NONE',  ( 2.740000000000000213, 0.5149999999999965716, 0.9838866223910013309 ) ) ;
#569 = CARTESIAN_POINT ( 'NONE',  ( 2.740000000000000213, 0.9838866223910001096, -0.5149999999999999023 ) ) ;
#570 = ORIENTED_EDGE ( 'NONE', *, *, #684, .F. ) ;
#571 = UNCERTAINTY_MEASURE_WITH_UNIT (LENGTH_MEASURE( 1.000000000000000082E-05 ), #149, 'distance_accuracy_value', 'NONE');
#572 = AXIS2_PLACEMENT_3D ( 'NONE', #440, #638, #582 ) ;
#573 = CARTESIAN_POINT ( 'NONE',  ( -25.39999999999996305, 0.000000000000000000, 0.000000000000000000 ) ) ;
#574 = VECTOR ( 'NONE', #21, 1000.000000000000000 ) ;
#575 = AXIS2_PLACEMENT_3D ( 'NONE', #765, #757, #752 ) ;
#576 = CARTESIAN_POINT ( 'NONE',  ( 8.000000000000000000, 4.163799117100990205E-16, -0.5149999999999997913 ) ) ;
#577 = ORIENTED_EDGE ( 'NONE', *, *, #50, .F. ) ;
#578 = EDGE_CURVE ( 'NONE', #129, #405, #107, .T. ) ;
#579 = DIRECTION ( 'NONE',  ( 0.000000000000000000, 1.000000000000000000, 0.000000000000000000 ) ) ;
#580 = ADVANCED_FACE ( 'NONE', ( #42 ), #244, .T. ) ;
#581 = ORIENTED_EDGE ( 'NONE', *, *, #429, .F. ) ;
#582 = DIRECTION ( 'NONE',  ( 0.000000000000000000, 0.000000000000000000, 1.000000000000000000 ) ) ;
#583 = EDGE_LOOP ( 'NONE', ( #167 ) ) ;
#584 = CARTESIAN_POINT ( 'NONE',  ( 0.000000000000000000, 0.5150000000000083400, -2.349999999999998312 ) ) ;
#585 = CONICAL_SURFACE ( 'NONE', #468, 0.8509999999999999787, 0.06981317007976595157 ) ;
#586 = CARTESIAN_POINT ( 'NONE',  ( 2.740000000000000213, -0.5149999999999964606, -0.9838866223905690100 ) ) ;
#587 = PRODUCT_DEFINITION_FORMATION_WITH_SPECIFIED_SOURCE ( 'Symmetric', '', #288, .NOT_KNOWN. ) ;
#588 = ORIENTED_EDGE ( 'NONE', *, *, #482, .F. ) ;
#589 = FACE_OUTER_BOUND ( 'NONE', #291, .T. ) ;
#590 = CARTESIAN_POINT ( 'NONE',  ( 2.740000000000000213, -0.5150000000000036771, 0.9838866223909983333 ) ) ;
#591 = ORIENTED_EDGE ( 'NONE', *, *, #670, .F. ) ;
#592 = EDGE_CURVE ( 'NONE', #608, #425, #392, .T. ) ;
#593 = CARTESIAN_POINT ( 'NONE',  ( 2.740000000000000213, -0.9838866223905672337, 0.5149999999999999023 ) ) ;
#594 = ORIENTED_EDGE ( 'NONE', *, *, #128, .T. ) ;
#595 = DIRECTION ( 'NONE',  ( 0.4461977533473794333, 0.8949343913984707521, 0.000000000000000000 ) ) ;
#596 = AXIS2_PLACEMENT_3D ( 'NONE', #99, #146, #290 ) ;
#597 = CARTESIAN_POINT ( 'NONE',  ( 2.740000000000000213, -0.6774776749089226335, -0.5150000000000000133 ) ) ;
#598 = AXIS2_PLACEMENT_3D ( 'NONE', #501, #8, #688 ) ;
#599 = ORIENTED_EDGE ( 'NONE', *, *, #306, .T. ) ;
#600 = PRODUCT_CONTEXT ( 'NONE', #117, 'mechanical' ) ;
#601 = ADVANCED_FACE ( 'NONE', ( #372 ), #60, .T. ) ;
#602 = PLANE ( 'NONE',  #740 ) ;
#603 = VERTEX_POINT ( 'NONE', #133 ) ;
#604 = ORIENTED_EDGE ( 'NONE', *, *, #300, .T. ) ;
#605 = DIRECTION ( 'NONE',  ( 0.8949343913984143528, 0.4461977533474924540, 1.062361107357102302E-16 ) ) ;
#606 = CARTESIAN_POINT ( 'NONE',  ( 2.740000000000000213, 0.5149999999999976819, 0.6774776749089244099 ) ) ;
#607 = B_SPLINE_CURVE_WITH_KNOTS ( 'NONE', 3,
 ( #397, #86, #532, #774 ),
 .UNSPECIFIED., .F., .F.,
 ( 4, 4 ),
 ( 0.001586480563516616104, 0.004268227385920363680 ),
 .UNSPECIFIED. ) ;
#608 = VERTEX_POINT ( 'NONE', #384 ) ;
#609 = APPLICATION_PROTOCOL_DEFINITION ( 'draft international standard', 'automotive_design', 1998, #201 ) ;
#610 = DIRECTION ( 'NONE',  ( 1.000000000000000000, 0.000000000000000000, 0.000000000000000000 ) ) ;
#611 = EDGE_CURVE ( 'NONE', #129, #551, #550, .T. ) ;
#612 = DIRECTION ( 'NONE',  ( 0.000000000000000000, 3.490239007934759657E-15, -1.000000000000000000 ) ) ;
#613 = AXIS2_PLACEMENT_3D ( 'NONE', #170, #246, #108 ) ;
#614 = CIRCLE ( 'NONE', #575, 7.864440107515624945 ) ;
#615 = VERTEX_POINT ( 'NONE', #252 ) ;
#616 = DIRECTION ( 'NONE',  ( -1.000000000000000000, 0.000000000000000000, 0.000000000000000000 ) ) ;
#617 = CARTESIAN_POINT ( 'NONE',  ( 0.9586399445693635224, -0.8293189044373080465, 0.5149999999999999023 ) ) ;
#618 = LINE ( 'NONE', #304, #404 ) ;
#619 = DIRECTION ( 'NONE',  ( 0.4461977533474925650, -0.8949343913984144638, 0.000000000000000000 ) ) ;
#620 = VECTOR ( 'NONE', #447, 1000.000000000000227 ) ;
#621 = EDGE_CURVE ( 'NONE', #95, #709, #176, .T. ) ;
#622 = CONICAL_SURFACE ( 'NONE', #703, 3077.683537175319998, 1.256637061435923686 ) ;
#623 = EDGE_CURVE ( 'NONE', #551, #344, #748, .T. ) ;
#624 = DIRECTION ( 'NONE',  ( -1.000000000000000000, 0.000000000000000000, 0.000000000000000000 ) ) ;
#625 = ORIENTED_EDGE ( 'NONE', *, *, #724, .T. ) ;
#626 = DIRECTION ( 'NONE',  ( -1.000000000000000000, -0.000000000000000000, -0.000000000000000000 ) ) ;
#627 = DIRECTION ( 'NONE',  ( 0.000000000000000000, 0.000000000000000000, -1.000000000000000000 ) ) ;
#628 = ORIENTED_EDGE ( 'NONE', *, *, #184, .T. ) ;
#629 = CARTESIAN_POINT ( 'NONE',  ( 0.3226060873438279519, -2.189154565102685801, 0.5149999999999995692 ) ) ;
#630 = PLANE ( 'NONE',  #335 ) ;
#631 = ADVANCED_FACE ( 'NONE', ( #794 ), #747, .T. ) ;
#632 = ORIENTED_EDGE ( 'NONE', *, *, #431, .F. ) ;
#633 = CIRCLE ( 'NONE', #613, 0.8509999999999999787 ) ;
#634 = CARTESIAN_POINT ( 'NONE',  ( 2.740000000000000213, -0.5149999999999964606, -0.9838866223905690100 ) ) ;
#635 = ORIENTED_EDGE ( 'NONE', *, *, #621, .T. ) ;
#636 = ORIENTED_EDGE ( 'NONE', *, *, #541, .T. ) ;
#637 = CARTESIAN_POINT ( 'NONE',  ( 0.9586399445693623012, 0.5150000000000030109, -0.8293189044373061591 ) ) ;
#638 = DIRECTION ( 'NONE',  ( -1.000000000000000000, -0.000000000000000000, -0.000000000000000000 ) ) ;
#639 = EDGE_LOOP ( 'NONE', ( #518, #436, #171, #1 ) ) ;
#640 = CARTESIAN_POINT ( 'NONE',  ( 1.424271237134736801, 0.000000000000000000, 4.556291390728477886 ) ) ;
#641 = CARTESIAN_POINT ( 'NONE',  ( 8.000000000000000000, 4.163799117100990205E-16, 0.000000000000000000 ) ) ;
#642 = ORIENTED_EDGE ( 'NONE', *, *, #543, .F. ) ;
#643 = CARTESIAN_POINT ( 'NONE',  ( 2.740000000000000213, 0.6774776749089226335, 0.5150000000000002354 ) ) ;
#644 = CARTESIAN_POINT ( 'NONE',  ( 2.740000000000000213, 0.9838866223910001096, -0.5149999999999999023 ) ) ;
#645 = STYLED_ITEM ( 'NONE', ( #118 ), #497 ) ;
#646 = ORIENTED_EDGE ( 'NONE', *, *, #224, .T. ) ;
#647 = EDGE_LOOP ( 'NONE', ( #283, #472, #41, #522 ) ) ;
#648 = FACE_OUTER_BOUND ( 'NONE', #414, .T. ) ;
#649 = VERTEX_POINT ( 'NONE', #629 ) ;
#650 = B_SPLINE_CURVE_WITH_KNOTS ( 'NONE', 3,
 ( #225, #475, #236, #38 ),
 .UNSPECIFIED., .F., .F.,
 ( 4, 4 ),
 ( 0.004656695506220396089, 0.007337072593346777132 ),
 .UNSPECIFIED. ) ;
#651 = ORIENTED_EDGE ( 'NONE', *, *, #684, .T. ) ;
#652 = DIRECTION ( 'NONE',  ( -1.000000000000000000, -0.000000000000000000, -0.000000000000000000 ) ) ;
#653 = DIRECTION ( 'NONE',  ( -0.8949343913984706411, 0.4461977533473793778, 0.000000000000000000 ) ) ;
#654 = CARTESIAN_POINT ( 'NONE',  ( 2.740000000000000213, 0.000000000000000000, 0.000000000000000000 ) ) ;
#655 = ADVANCED_FACE ( 'NONE', ( #736 ), #69, .T. ) ;
#656 = ORIENTED_EDGE ( 'NONE', *, *, #101, .F. ) ;
#657 = DIRECTION ( 'NONE',  ( 0.000000000000000000, 0.000000000000000000, 1.000000000000000000 ) ) ;
#658 = FACE_OUTER_BOUND ( 'NONE', #27, .T. ) ;
#659 = AXIS2_PLACEMENT_3D ( 'NONE', #179, #54, #674 ) ;
#660 = AXIS2_PLACEMENT_3D ( 'NONE', #573, #498, #130 ) ;
#661 = EDGE_LOOP ( 'NONE', ( #604, #34, #380, #588 ) ) ;
#662 = DIRECTION ( 'NONE',  ( 0.000000000000000000, -1.000000000000000000, -3.491481338843133355E-15 ) ) ;
#663 = ORIENTED_EDGE ( 'NONE', *, *, #484, .F. ) ;
#664 = EDGE_CURVE ( 'NONE', #251, #324, #681, .T. ) ;
#665 = CARTESIAN_POINT ( 'NONE',  ( 2.740000000000000213, 0.5150000000000024558, -0.6774776749089207462 ) ) ;
#666 = DIRECTION ( 'NONE',  ( 0.000000000000000000, -1.000000000000000000, -3.491481338843133750E-15 ) ) ;
#667 = EDGE_LOOP ( 'NONE', ( #500, #735, #696, #361 ) ) ;
#668 = DIRECTION ( 'NONE',  ( -1.000000000000000000, -0.000000000000000000, -0.000000000000000000 ) ) ;
#669 = AXIS2_PLACEMENT_3D ( 'NONE', #771, #110, #673 ) ;
#670 = EDGE_CURVE ( 'NONE', #295, #547, #150, .T. ) ;
#671 = MECHANICAL_DESIGN_GEOMETRIC_PRESENTATION_REPRESENTATION (  '', ( #645 ), #68 ) ;
#672 = DIRECTION ( 'NONE',  ( 0.000000000000000000, 3.490239007934759657E-15, -1.000000000000000000 ) ) ;
#673 = DIRECTION ( 'NONE',  ( 1.000000000000000000, 0.000000000000000000, 0.000000000000000000 ) ) ;
#674 = DIRECTION ( 'NONE',  ( 0.000000000000000000, 0.000000000000000000, -1.000000000000000000 ) ) ;
#675 = ADVANCED_FACE ( 'NONE', ( #378 ), #790, .F. ) ;
#676 = ADVANCED_FACE ( 'NONE', ( #139, #325 ), #434, .T. ) ;
#677 = CARTESIAN_POINT ( 'NONE',  ( 0.9586399445693775112, -0.5150000000000028999, 0.8293189044373048269 ) ) ;
#678 = FACE_OUTER_BOUND ( 'NONE', #77, .T. ) ;
#679 = ORIENTED_EDGE ( 'NONE', *, *, #85, .F. ) ;
#680 = AXIS2_PLACEMENT_3D ( 'NONE', #9, #134, #191 ) ;
#681 = LINE ( 'NONE', #449, #691 ) ;
#682 = FACE_OUTER_BOUND ( 'NONE', #717, .T. ) ;
#683 = VERTEX_POINT ( 'NONE', #381 ) ;
#684 = EDGE_CURVE ( 'NONE', #523, #523, #204, .T. ) ;
#685 = CARTESIAN_POINT ( 'NONE',  ( 8.000000000000000000, 3.596290517915806822E-16, 0.5150000000000003464 ) ) ;
#686 = DIRECTION ( 'NONE',  ( 1.000000000000000000, 0.000000000000000000, 0.000000000000000000 ) ) ;
#687 = ORIENTED_EDGE ( 'NONE', *, *, #484, .T. ) ;
#688 = DIRECTION ( 'NONE',  ( 0.000000000000000000, 0.000000000000000000, 1.000000000000000000 ) ) ;
#689 = VECTOR ( 'NONE', #26, 1000.000000000000000 ) ;
#690 = DIRECTION ( 'NONE',  ( 6.376665489581438550E-17, 1.101958445019772500E-16, -1.000000000000000000 ) ) ;
#691 = VECTOR ( 'NONE', #579, 1000.000000000000000 ) ;
#692 = CARTESIAN_POINT ( 'NONE',  ( 0.06760930072668894231, 0.9010842325122884189, 0.5149999999999999023 ) ) ;
#693 = ORIENTED_EDGE ( 'NONE', *, *, #37, .F. ) ;
#694 = CARTESIAN_POINT ( 'NONE',  ( 0.3226060873438279519, -2.189154565102685801, -0.5150000000000000133 ) ) ;
#695 = CARTESIAN_POINT ( 'NONE',  ( 2.740000000000000213, 0.9838866223910001096, 0.5150000000000001243 ) ) ;
#696 = ORIENTED_EDGE ( 'NONE', *, *, #330, .F. ) ;
#697 = ADVANCED_FACE ( 'NONE', ( #5 ), #622, .F. ) ;
#698 = EDGE_CURVE ( 'NONE', #459, #81, #614, .T. ) ;
#699 = ORIENTED_EDGE ( 'NONE', *, *, #182, .F. ) ;
#700 = VERTEX_POINT ( 'NONE', #460 ) ;
#701 = AXIS2_PLACEMENT_3D ( 'NONE', #556, #496, #433 ) ;
#702 = CARTESIAN_POINT ( 'NONE',  ( 2.740000000000000213, 0.9838866223910001096, 0.5150000000000001243 ) ) ;
#703 = AXIS2_PLACEMENT_3D ( 'NONE', #145, #12, #400 ) ;
#704 = ORIENTED_EDGE ( 'NONE', *, *, #328, .T. ) ;
#705 = EDGE_LOOP ( 'NONE', ( #272, #413, #409, #642 ) ) ;
#706 = CARTESIAN_POINT ( 'NONE',  ( 1.794155980045905929, 0.000000000000000000, 0.000000000000000000 ) ) ;
#707 = DIRECTION ( 'NONE',  ( 1.000000000000000000, 0.000000000000000000, 0.000000000000000000 ) ) ;
#708 = VERTEX_POINT ( 'NONE', #710 ) ;
#709 = VERTEX_POINT ( 'NONE', #643 ) ;
#710 = CARTESIAN_POINT ( 'NONE',  ( 2.740000000000000213, -0.5149999999999975708, -0.6774776749089246319 ) ) ;
#711 = DIRECTION ( 'NONE',  ( -0.000000000000000000, 0.000000000000000000, -1.000000000000000000 ) ) ;
#712 = VERTEX_POINT ( 'NONE', #694 ) ;
#713 = ORIENTED_EDGE ( 'NONE', *, *, #505, .F. ) ;
#714 = AXIS2_PLACEMENT_3D ( 'NONE', #641, #711, #143 ) ;
#715 = EDGE_LOOP ( 'NONE', ( #651 ) ) ;
#716 = AXIS2_PLACEMENT_3D ( 'NONE', #791, #190, #120 ) ;
#717 = EDGE_LOOP ( 'NONE', ( #327, #632, #704, #693 ) ) ;
#718 = SURFACE_STYLE_USAGE ( .BOTH. , #166 ) ;
#719 = CARTESIAN_POINT ( 'NONE',  ( 2.740000000000000213, 0.5150000000000035660, -0.9838866223905660124 ) ) ;
#720 = ORIENTED_EDGE ( 'NONE', *, *, #611, .T. ) ;
#721 = SHAPE_DEFINITION_REPRESENTATION ( #79, #93 ) ;
#722 = FILL_AREA_STYLE ('',( #495 ) ) ;
#723 = CARTESIAN_POINT ( 'NONE',  ( 2.740000000000000213, 0.9838866223910001096, -0.5149999999999999023 ) ) ;
#724 = EDGE_CURVE ( 'NONE', #603, #769, #268, .T. ) ;
#725 = CARTESIAN_POINT ( 'NONE',  ( 0.06760930072668755453, 0.5149999999999969047, 0.9010842325122923047 ) ) ;
#726 = FACE_OUTER_BOUND ( 'NONE', #776, .T. ) ;
#727 = CIRCLE ( 'NONE', #55, 0.8509999999999999787 ) ;
#728 = TOROIDAL_SURFACE ( 'NONE', #561, 4.300000000000000711, 0.4499999999999992339 ) ;
#729 = CARTESIAN_POINT ( 'NONE',  ( 3.700000000000000178, 0.000000000000000000, 0.000000000000000000 ) ) ;
#730 = ADVANCED_FACE ( 'NONE', ( #154 ), #218, .T. ) ;
#731 = CYLINDRICAL_SURFACE ( 'NONE', #203, 2.500000000000000000 ) ;
#732 = EDGE_CURVE ( 'NONE', #615, #547, #309, .T. ) ;
#733 = EDGE_CURVE ( 'NONE', #221, #746, #537, .T. ) ;
#734 = CARTESIAN_POINT ( 'NONE',  ( 2.740000000000000213, 0.5150000000000035660, -0.9838866223905660124 ) ) ;
#735 = ORIENTED_EDGE ( 'NONE', *, *, #160, .F. ) ;
#736 = FACE_OUTER_BOUND ( 'NONE', #647, .T. ) ;
#737 = DIRECTION ( 'NONE',  ( 0.000000000000000000, -3.598884580166191478E-15, 1.000000000000000000 ) ) ;
#738 = EDGE_LOOP ( 'NONE', ( #646, #276, #448, #124 ) ) ;
#739 = ADVANCED_FACE ( 'NONE', ( #395, #589 ), #728, .T. ) ;
#740 = AXIS2_PLACEMENT_3D ( 'NONE', #538, #33, #465 ) ;
#741 = AXIS2_PLACEMENT_3D ( 'NONE', #64, #317, #511 ) ;
#742 = CARTESIAN_POINT ( 'NONE',  ( 0.06760930072668806801, 4.163799117100990205E-16, 0.000000000000000000 ) ) ;
#743 = EDGE_LOOP ( 'NONE', ( #255, #198, #106, #768 ) ) ;
#744 = DIRECTION ( 'NONE',  ( 0.000000000000000000, 0.000000000000000000, 1.000000000000000000 ) ) ;
#745 = LINE ( 'NONE', #58, #385 ) ;
#746 = VERTEX_POINT ( 'NONE', #770 ) ;
#747 = PLANE ( 'NONE',  #242 ) ;
#748 = B_SPLINE_CURVE_WITH_KNOTS ( 'NONE', 3,
 ( #506, #390, #637, #565 ),
 .UNSPECIFIED., .F., .F.,
 ( 4, 4 ),
 ( 0.004656695506220393486, 0.007337072593346775397 ),
 .UNSPECIFIED. ) ;
#749 = CARTESIAN_POINT ( 'NONE',  ( 2.740000000000000213, 0.000000000000000000, 0.000000000000000000 ) ) ;
#750 = EDGE_LOOP ( 'NONE', ( #311, #316, #599, #567 ) ) ;
#751 = TOROIDAL_SURFACE ( 'NONE', #466, 2.700000000000000178, 0.2000000000000000111 ) ;
#752 = DIRECTION ( 'NONE',  ( 0.8949343913984706411, 0.000000000000000000, -0.4461977533473794333 ) ) ;
#753 = PRESENTATION_LAYER_ASSIGNMENT (  '', '', ( #645 ) ) ;
#754 = LINE ( 'NONE', #207, #620 ) ;
#755 = EDGE_CURVE ( 'NONE', #263, #405, #761, .T. ) ;
#756 = ORIENTED_EDGE ( 'NONE', *, *, #456, .T. ) ;
#757 = DIRECTION ( 'NONE',  ( 0.4461977533473794333, -3.124646727056697443E-15, 0.8949343913984707521 ) ) ;
#758 = DIRECTION ( 'NONE',  ( 6.376665489581438550E-17, 1.101958445019772500E-16, -1.000000000000000000 ) ) ;
#759 = CARTESIAN_POINT ( 'NONE',  ( 1.849560077140141923, -0.7556913915602414544, -0.5150000000000000133 ) ) ;
#760 = VERTEX_POINT ( 'NONE', #157 ) ;
#761 = LINE ( 'NONE', #209, #574 ) ;
#762 = SPHERICAL_SURFACE ( 'NONE', #714, 8.000000000000000000 ) ;
#763 = DIRECTION ( 'NONE',  ( -0.8949343913984706411, -1.557891129246106293E-15, 0.4461977533473793778 ) ) ;
#764 = AXIS2_PLACEMENT_3D ( 'NONE', #430, #116, #612 ) ;
#765 = CARTESIAN_POINT ( 'NONE',  ( 7.345657149124968477, 4.998631238663408027E-15, -1.312408941149200370 ) ) ;
#766 = CIRCLE ( 'NONE', #16, 7.864440107515431322 ) ;
#767 = LINE ( 'NONE', #590, #418 ) ;
#768 = ORIENTED_EDGE ( 'NONE', *, *, #62, .T. ) ;
#769 = VERTEX_POINT ( 'NONE', #531 ) ;
#770 = CARTESIAN_POINT ( 'NONE',  ( 2.740000000000000213, 0.5150000000000035660, -0.9838866223905660124 ) ) ;
#771 = CARTESIAN_POINT ( 'NONE',  ( 8.000000000000000000, 4.163799117100990205E-16, -0.5149999999999997913 ) ) ;
#772 = DIRECTION ( 'NONE',  ( -1.000000000000000000, -0.000000000000000000, -0.000000000000000000 ) ) ;
#773 = EDGE_LOOP ( 'NONE', ( #534 ) ) ;
#774 = CARTESIAN_POINT ( 'NONE',  ( 2.740000000000000213, -0.5149999999999975708, -0.6774776749089246319 ) ) ;
#775 = DIRECTION ( 'NONE',  ( 0.4461977533473794333, -3.124646727056696654E-15, 0.8949343913984707521 ) ) ;
#776 = EDGE_LOOP ( 'NONE', ( #687 ) ) ;
#777 = DIRECTION ( 'NONE',  ( -1.000000000000000000, -0.000000000000000000, -0.000000000000000000 ) ) ;
#778 = AXIS2_PLACEMENT_3D ( 'NONE', #719, #181, #435 ) ;
#779 = CARTESIAN_POINT ( 'NONE',  ( 1.849560077140107728, -0.7556913915602446741, 0.5149999999999997913 ) ) ;
#780 = EDGE_CURVE ( 'NONE', #284, #284, #336, .T. ) ;
#781 = ORIENTED_EDGE ( 'NONE', *, *, #184, .F. ) ;
#782 = CARTESIAN_POINT ( 'NONE',  ( 2.740000000000000213, 0.6774776749089226335, -0.5150000000000000133 ) ) ;
#783 =( NAMED_UNIT ( * ) SI_UNIT ( $, .STERADIAN. ) SOLID_ANGLE_UNIT ( ) );
#784 = CARTESIAN_POINT ( 'NONE',  ( 2.740000000000000213, -0.6774776749089227446, 0.5149999999999999023 ) ) ;
#785 = DIRECTION ( 'NONE',  ( 0.000000000000000000, 0.000000000000000000, 1.000000000000000000 ) ) ;
#786 = EDGE_CURVE ( 'NONE', #28, #28, #98, .T. ) ;
#787 = CARTESIAN_POINT ( 'NONE',  ( 0.3226060873438383325, 2.189154565102731542, 0.5150000000000001243 ) ) ;
#788 = CARTESIAN_POINT ( 'NONE',  ( 2.740000000000000213, -0.9838866223905676778, -0.5150000000000000133 ) ) ;
#789 = VECTOR ( 'NONE', #792, 1000.000000000000000 ) ;
#790 = CONICAL_SURFACE ( 'NONE', #716, 0.8509999999999999787, 0.06981317007976595157 ) ;
#791 = CARTESIAN_POINT ( 'NONE',  ( 2.740000000000000213, 0.000000000000000000, 0.000000000000000000 ) ) ;
#792 = DIRECTION ( 'NONE',  ( 0.000000000000000000, 1.000000000000000000, 3.491481338843133355E-15 ) ) ;
#793 = EDGE_LOOP ( 'NONE', ( #342, #159, #24, #388 ) ) ;
#794 = FACE_OUTER_BOUND ( 'NONE', #750, .T. ) ;
#795 = DIRECTION ( 'NONE',  ( -1.000000000000000000, -0.000000000000000000, -0.000000000000000000 ) ) ;
ENDSEC;
END-ISO-10303-21;
