ISO-10303-21;
HEADER;
FILE_DESCRIPTION (( 'STEP AP214' ),
    '1' );
FILE_NAME ('Part7.STEP',
    '2025-07-21T14:25:07',
    ( '' ),
    ( '' ),
    'SwSTEP 2.0',
    'SolidWorks 2025',
    '' );
FILE_SCHEMA (( 'AUTOMOTIVE_DESIGN' ));
ENDSEC;

DATA;
#1 =( GEOMETRIC_REPRESENTATION_CONTEXT ( 3 ) GLOBAL_UNCERTAINTY_ASSIGNED_CONTEXT ( ( #100 ) ) GLOBAL_UNIT_ASSIGNED_CONTEXT ( ( #18, #66, #11 ) ) REPRESENTATION_CONTEXT ( 'NONE', 'WORKASPACE' ) );
#2 = DIRECTION ( 'NONE',  ( 1.000000000000000000, 0.000000000000000000, 0.000000000000000000 ) ) ;
#3 = CYLINDRICAL_SURFACE ( 'NONE', #41, 3.249999999999996003 ) ;
#4 = DIRECTION ( 'NONE',  ( 1.000000000000000000, 0.000000000000000000, 0.000000000000000000 ) ) ;
#5 = FACE_OUTER_BOUND ( 'NONE', #86, .T. ) ;
#6 = APPLICATION_CONTEXT ( 'automotive_design' ) ;
#7 = CARTESIAN_POINT ( 'NONE',  ( -50.80559121499640440, -10.97220149465608152, 6.587584216557633709 ) ) ;
#8 = SURFACE_STYLE_FILL_AREA ( #55 ) ;
#9 = AXIS2_PLACEMENT_3D ( 'NONE', #73, #99, #98 ) ;
#10 =( LENGTH_UNIT ( ) NAMED_UNIT ( * ) SI_UNIT ( .MILLI., .METRE. ) );
#11 =( NAMED_UNIT ( * ) SI_UNIT ( $, .STERADIAN. ) SOLID_ANGLE_UNIT ( ) );
#12 = FILL_AREA_STYLE_COLOUR ( '', #77 ) ;
#13 = PRODUCT_DEFINITION_FORMATION_WITH_SPECIFIED_SOURCE ( 'Symmetric', '', #67, .NOT_KNOWN. ) ;
#14 = CIRCLE ( 'NONE', #59, 2.099999999999997868 ) ;
#15 = CARTESIAN_POINT ( 'NONE',  ( -50.80559121499640440, -10.97220149465608152, 4.287584216557633887 ) ) ;
#16 = AXIS2_PLACEMENT_3D ( 'NONE', #43, #115, #101 ) ;
#17 = VERTEX_POINT ( 'NONE', #63 ) ;
#18 =( LENGTH_UNIT ( ) NAMED_UNIT ( * ) SI_UNIT ( .MILLI., .METRE. ) );
#19 = AXIS2_PLACEMENT_3D ( 'NONE', #78, #42, #4 ) ;
#20 = PRODUCT_DEFINITION_CONTEXT ( 'detailed design', #6, 'design' ) ;
#21 = CARTESIAN_POINT ( 'NONE',  ( -50.80559121499640440, -10.97220149465608152, 4.287584216557633887 ) ) ;
#22 = EDGE_LOOP ( 'NONE', ( #104 ) ) ;
#23 = EDGE_LOOP ( 'NONE', ( #116 ) ) ;
#24 = FACE_OUTER_BOUND ( 'NONE', #68, .T. ) ;
#25 = CIRCLE ( 'NONE', #46, 3.249999999999996003 ) ;
#26 = PRODUCT_DEFINITION ( 'General', '', #13, #20 ) ;
#27 = VERTEX_POINT ( 'NONE', #62 ) ;
#28 = DIRECTION ( 'NONE',  ( 1.000000000000000000, 0.000000000000000000, 0.000000000000000000 ) ) ;
#29 = ADVANCED_FACE ( 'NONE', ( #24, #5 ), #84, .F. ) ;
#30 = SHAPE_DEFINITION_REPRESENTATION ( #31, #94 ) ;
#31 = PRODUCT_DEFINITION_SHAPE ( 'NONE', 'NONE',  #26 ) ;
#32 = ADVANCED_FACE ( 'NONE', ( #34, #52 ), #3, .T. ) ;
#33 = STYLED_ITEM ( 'NONE', ( #97 ), #112 ) ;
#34 = FACE_OUTER_BOUND ( 'NONE', #23, .T. ) ;
#35 = DIRECTION ( 'NONE',  ( -0.000000000000000000, -0.000000000000000000, -1.000000000000000000 ) ) ;
#36 =( NAMED_UNIT ( * ) PLANE_ANGLE_UNIT ( ) SI_UNIT ( $, .RADIAN. ) );
#37 = CARTESIAN_POINT ( 'NONE',  ( -48.70559121499641009, -10.97220149465608152, 4.287584216557633887 ) ) ;
#38 = CIRCLE ( 'NONE', #19, 3.249999999999996003 ) ;
#39 = APPLICATION_PROTOCOL_DEFINITION ( 'draft international standard', 'automotive_design', 1998, #119 ) ;
#40 = PRESENTATION_LAYER_ASSIGNMENT (  '', '', ( #33 ) ) ;
#41 = AXIS2_PLACEMENT_3D ( 'NONE', #53, #35, #70 ) ;
#42 = DIRECTION ( 'NONE',  ( 0.000000000000000000, 0.000000000000000000, 1.000000000000000000 ) ) ;
#43 = CARTESIAN_POINT ( 'NONE',  ( -50.80559121499640440, -10.97220149465608152, 15.77997237198273872 ) ) ;
#44 = EDGE_LOOP ( 'NONE', ( #91 ) ) ;
#45 = PLANE ( 'NONE',  #9 ) ;
#46 = AXIS2_PLACEMENT_3D ( 'NONE', #21, #71, #28 ) ;
#47 = VERTEX_POINT ( 'NONE', #90 ) ;
#48 = ADVANCED_FACE ( 'NONE', ( #93, #79 ), #105, .T. ) ;
#49 = MECHANICAL_DESIGN_GEOMETRIC_PRESENTATION_REPRESENTATION (  '', ( #33 ), #1 ) ;
#50 = EDGE_CURVE ( 'NONE', #109, #109, #103, .T. ) ;
#51 = EDGE_CURVE ( 'NONE', #27, #27, #14, .T. ) ;
#52 = FACE_OUTER_BOUND ( 'NONE', #22, .T. ) ;
#53 = CARTESIAN_POINT ( 'NONE',  ( -50.80559121499640440, -10.97220149465608152, 15.77997237198273872 ) ) ;
#54 = EDGE_LOOP ( 'NONE', ( #95 ) ) ;
#55 = FILL_AREA_STYLE ('',( #12 ) ) ;
#56 = EDGE_CURVE ( 'NONE', #17, #17, #38, .T. ) ;
#57 = EDGE_LOOP ( 'NONE', ( #81 ) ) ;
#58 = EDGE_LOOP ( 'NONE', ( #113 ) ) ;
#59 = AXIS2_PLACEMENT_3D ( 'NONE', #102, #85, #87 ) ;
#60 = DIRECTION ( 'NONE',  ( 0.000000000000000000, 0.000000000000000000, 1.000000000000000000 ) ) ;
#61 = FACE_OUTER_BOUND ( 'NONE', #44, .T. ) ;
#62 = CARTESIAN_POINT ( 'NONE',  ( -48.70559121499641009, -10.97220149465608152, 6.587584216557633709 ) ) ;
#63 = CARTESIAN_POINT ( 'NONE',  ( -47.55559121499641151, -10.97220149465608152, 6.587584216557633709 ) ) ;
#64 = EDGE_CURVE ( 'NONE', #47, #47, #25, .T. ) ;
#65 = AXIS2_PLACEMENT_3D ( 'NONE', #15, #114, #2 ) ;
#66 =( NAMED_UNIT ( * ) PLANE_ANGLE_UNIT ( ) SI_UNIT ( $, .RADIAN. ) );
#67 = PRODUCT ( 'Part7', 'Part7', '', ( #88 ) ) ;
#68 = EDGE_LOOP ( 'NONE', ( #80 ) ) ;
#69 = ORIENTED_EDGE ( 'NONE', *, *, #51, .T. ) ;
#70 = DIRECTION ( 'NONE',  ( -1.000000000000000000, 0.000000000000000000, 0.000000000000000000 ) ) ;
#71 = DIRECTION ( 'NONE',  ( 0.000000000000000000, 0.000000000000000000, 1.000000000000000000 ) ) ;
#72 =( NAMED_UNIT ( * ) SI_UNIT ( $, .STERADIAN. ) SOLID_ANGLE_UNIT ( ) );
#73 = CARTESIAN_POINT ( 'NONE',  ( -50.80559121499640440, -10.97220149465608152, 4.287584216557633887 ) ) ;
#74 = CARTESIAN_POINT ( 'NONE',  ( 0.000000000000000000, 0.000000000000000000, 0.000000000000000000 ) ) ;
#75 = PRODUCT_RELATED_PRODUCT_CATEGORY ( 'part', '', ( #67 ) ) ;
#76 = UNCERTAINTY_MEASURE_WITH_UNIT (LENGTH_MEASURE( 1.000000000000000082E-05 ), #10, 'distance_accuracy_value', 'NONE');
#77 = COLOUR_RGB ( '',0.7921568627450980005, 0.8196078431372548767, 0.9333333333333333481 ) ;
#78 = CARTESIAN_POINT ( 'NONE',  ( -50.80559121499640440, -10.97220149465608152, 6.587584216557633709 ) ) ;
#79 = FACE_OUTER_BOUND ( 'NONE', #58, .T. ) ;
#80 = ORIENTED_EDGE ( 'NONE', *, *, #50, .F. ) ;
#81 = ORIENTED_EDGE ( 'NONE', *, *, #50, .T. ) ;
#82 = ADVANCED_FACE ( 'NONE', ( #61, #117 ), #45, .F. ) ;
#83 = AXIS2_PLACEMENT_3D ( 'NONE', #74, #118, #110 ) ;
#84 = CYLINDRICAL_SURFACE ( 'NONE', #16, 2.099999999999997868 ) ;
#85 = DIRECTION ( 'NONE',  ( 0.000000000000000000, 0.000000000000000000, 1.000000000000000000 ) ) ;
#86 = EDGE_LOOP ( 'NONE', ( #69 ) ) ;
#87 = DIRECTION ( 'NONE',  ( 1.000000000000000000, 0.000000000000000000, 0.000000000000000000 ) ) ;
#88 = PRODUCT_CONTEXT ( 'NONE', #119, 'mechanical' ) ;
#89 = AXIS2_PLACEMENT_3D ( 'NONE', #7, #60, #96 ) ;
#90 = CARTESIAN_POINT ( 'NONE',  ( -47.55559121499641151, -10.97220149465608152, 4.287584216557633887 ) ) ;
#91 = ORIENTED_EDGE ( 'NONE', *, *, #64, .F. ) ;
#92 = CLOSED_SHELL ( 'NONE', ( #32, #82, #29, #48 ) ) ;
#93 = FACE_BOUND ( 'NONE', #54, .T. ) ;
#94 = ADVANCED_BREP_SHAPE_REPRESENTATION ( 'Part7', ( #112, #83 ), #106 ) ;
#95 = ORIENTED_EDGE ( 'NONE', *, *, #51, .F. ) ;
#96 = DIRECTION ( 'NONE',  ( 1.000000000000000000, 0.000000000000000000, -0.000000000000000000 ) ) ;
#97 = PRESENTATION_STYLE_ASSIGNMENT (( #108 ) ) ;
#98 = DIRECTION ( 'NONE',  ( 1.000000000000000000, 0.000000000000000000, -0.000000000000000000 ) ) ;
#99 = DIRECTION ( 'NONE',  ( 0.000000000000000000, 0.000000000000000000, 1.000000000000000000 ) ) ;
#100 = UNCERTAINTY_MEASURE_WITH_UNIT (LENGTH_MEASURE( 1.000000000000000082E-05 ), #18, 'distance_accuracy_value', 'NONE');
#101 = DIRECTION ( 'NONE',  ( -1.000000000000000000, 0.000000000000000000, 0.000000000000000000 ) ) ;
#102 = CARTESIAN_POINT ( 'NONE',  ( -50.80559121499640440, -10.97220149465608152, 6.587584216557633709 ) ) ;
#103 = CIRCLE ( 'NONE', #65, 2.099999999999997868 ) ;
#104 = ORIENTED_EDGE ( 'NONE', *, *, #56, .F. ) ;
#105 = PLANE ( 'NONE',  #89 ) ;
#106 =( GEOMETRIC_REPRESENTATION_CONTEXT ( 3 ) GLOBAL_UNCERTAINTY_ASSIGNED_CONTEXT ( ( #76 ) ) GLOBAL_UNIT_ASSIGNED_CONTEXT ( ( #10, #36, #72 ) ) REPRESENTATION_CONTEXT ( 'NONE', 'WORKASPACE' ) );
#107 = SURFACE_SIDE_STYLE ('',( #8 ) ) ;
#108 = SURFACE_STYLE_USAGE ( .BOTH. , #107 ) ;
#109 = VERTEX_POINT ( 'NONE', #37 ) ;
#110 = DIRECTION ( 'NONE',  ( 1.000000000000000000, 0.000000000000000000, 0.000000000000000000 ) ) ;
#111 = APPLICATION_PROTOCOL_DEFINITION ( 'draft international standard', 'automotive_design', 1998, #6 ) ;
#112 = MANIFOLD_SOLID_BREP ( 'Boss-Extrude1', #92 ) ;
#113 = ORIENTED_EDGE ( 'NONE', *, *, #56, .T. ) ;
#114 = DIRECTION ( 'NONE',  ( 0.000000000000000000, 0.000000000000000000, 1.000000000000000000 ) ) ;
#115 = DIRECTION ( 'NONE',  ( -0.000000000000000000, -0.000000000000000000, -1.000000000000000000 ) ) ;
#116 = ORIENTED_EDGE ( 'NONE', *, *, #64, .T. ) ;
#117 = FACE_BOUND ( 'NONE', #57, .T. ) ;
#118 = DIRECTION ( 'NONE',  ( 0.000000000000000000, 0.000000000000000000, 1.000000000000000000 ) ) ;
#119 = APPLICATION_CONTEXT ( 'automotive_design' ) ;
ENDSEC;
END-ISO-10303-21;
