ISO-10303-21;
HEADER;
FILE_DESCRIPTION (( 'STEP AP214' ),
    '1' );
FILE_NAME ('Tin Opener.STEP',
    '2025-07-21T14:25:07',
    ( '' ),
    ( '' ),
    'SwSTEP 2.0',
    'SolidWorks 2025',
    '' );
FILE_SCHEMA (( 'AUTOMOTIVE_DESIGN' ));
ENDSEC;

DATA;
#1 = APPLICATION_CONTEXT ( 'automotive_design' ) ;
#2 = UNCERTAINTY_MEASURE_WITH_UNIT (LENGTH_MEASURE( 1.000000000000000082E-05 ), #120, 'distance_accuracy_value', 'NONE');
#3 = CONTEXT_DEPENDENT_SHAPE_REPRESENTATION ( #208, #366 ) ;
#4 = CARTESIAN_POINT ( 'NONE',  ( 0.000000000000000000, 0.000000000000000000, 0.000000000000000000 ) ) ;
#5 = ITEM_DEFINED_TRANSFORMATION ( 'NONE', 'NONE', #404,  #156 ) ;
#6 = PRODUCT ( 'Part5', 'Part5', '', ( #106 ) ) ;
#7 = AXIS2_PLACEMENT_3D ( 'NONE', #169, #235, #202 ) ;
#8 = ITEM_DEFINED_TRANSFORMATION ( 'NONE', 'NONE', #367,  #183 ) ;
#9 = DIRECTION ( 'NONE',  ( 0.000000000000000000, 0.000000000000000000, 1.000000000000000000 ) ) ;
#10 = APPLICATION_PROTOCOL_DEFINITION ( 'draft international standard', 'automotive_design', 1998, #402 ) ;
#11 = DIRECTION ( 'NONE',  ( 1.000000000000000000, 0.000000000000000000, 0.000000000000000000 ) ) ;
#12 = PRODUCT_RELATED_PRODUCT_CATEGORY ( 'part', '', ( #313 ) ) ;
#13 = ROLE_ASSOCIATION ( #177, #324 ) ;
#14 = AXIS2_PLACEMENT_3D ( 'NONE', #233, #127, #196 ) ;
#15 =( NAMED_UNIT ( * ) PLANE_ANGLE_UNIT ( ) SI_UNIT ( $, .RADIAN. ) );
#16 = IDENTIFICATION_ROLE ( 'external document id and location', $) ;
#17 = PROPERTY_DEFINITION ('external definition','', #184 ) ;
#18 = CONTEXT_DEPENDENT_SHAPE_REPRESENTATION ( #298, #20 ) ;
#19 = APPLICATION_CONTEXT ( 'automotive_design' ) ;
#20 = PRODUCT_DEFINITION_SHAPE ( 'NONE', 'NONE',  #428 ) ;
#21 = PRODUCT_DEFINITION_SHAPE ( 'NONE', 'NONE',  #373 ) ;
#22 =( GEOMETRIC_REPRESENTATION_CONTEXT ( 3 ) GLOBAL_UNCERTAINTY_ASSIGNED_CONTEXT ( ( #344 ) ) GLOBAL_UNIT_ASSIGNED_CONTEXT ( ( #147, #75, #111 ) ) REPRESENTATION_CONTEXT ( 'NONE', 'WORKASPACE' ) );
#23 =( REPRESENTATION_RELATIONSHIP ('NONE','NONE', #33, #80 ) REPRESENTATION_RELATIONSHIP_WITH_TRANSFORMATION ( #5 )SHAPE_REPRESENTATION_RELATIONSHIP( ) );
#24 = ITEM_DEFINED_TRANSFORMATION ( 'NONE', 'NONE', #198,  #246 ) ;
#25 =( LENGTH_UNIT ( ) NAMED_UNIT ( * ) SI_UNIT ( .MILLI., .METRE. ) );
#26 = APPLICATION_CONTEXT ( 'automotive_design' ) ;
#27 = DIRECTION ( 'NONE',  ( 1.000000000000000000, 0.000000000000000000, 0.000000000000000000 ) ) ;
#28 = DIRECTION ( 'NONE',  ( 0.000000000000000000, 0.000000000000000000, 1.000000000000000000 ) ) ;
#29 = APPLIED_EXTERNAL_IDENTIFICATION_ASSIGNMENT ( 'Part3.STEP' , #126, #37,( #97) ) ;
#30 = DIRECTION ( 'NONE',  ( 0.000000000000000000, 0.000000000000000000, 1.000000000000000000 ) ) ;
#31 = APPLICATION_CONTEXT ( 'automotive_design' ) ;
#32 = CARTESIAN_POINT ( 'NONE',  ( -23.55559121499640796, -10.97220149465609040, -22.24999999999999645 ) ) ;
#33 = SHAPE_REPRESENTATION ( 'Tin Opener', ( #325, #404, #223, #367, #67, #358, #93, #206, #198, #14, #270 ), #87 ) ;
#34 =( NAMED_UNIT ( * ) PLANE_ANGLE_UNIT ( ) SI_UNIT ( $, .RADIAN. ) );
#35 = PRODUCT_RELATED_PRODUCT_CATEGORY ( 'part', '', ( #59 ) ) ;
#36 = PROPERTY_DEFINITION_REPRESENTATION ( #331, #62 ) ;
#37 = EXTERNAL_SOURCE (IDENTIFIER('') ) ;
#38 = PRODUCT_CONTEXT ( 'NONE', #369, 'mechanical' ) ;
#39 = DOCUMENT_TYPE ( 'geometry' ) ;
#40 = PRODUCT_CONTEXT ( 'NONE', #361, 'mechanical' ) ;
#41 = PRODUCT_DEFINITION_SHAPE ( 'NONE', 'NONE',  #340 ) ;
#42 = PRODUCT_DEFINITION_FORMATION_WITH_SPECIFIED_SOURCE ( 'Symmetric', '', #204, .NOT_KNOWN. ) ;
#43 = CONTEXT_DEPENDENT_SHAPE_REPRESENTATION ( #23, #242 ) ;
#44 = APPLICATION_CONTEXT ( 'automotive_design' ) ;
#45 = APPLICATION_PROTOCOL_DEFINITION ( 'draft international standard', 'automotive_design', 1998, #165 ) ;
#46 = PRODUCT_DEFINITION_SHAPE ( 'NONE', 'NONE',  #426 ) ;
#47 = UNCERTAINTY_MEASURE_WITH_UNIT (LENGTH_MEASURE( 1.000000000000000082E-05 ), #220, 'distance_accuracy_value', 'NONE');
#48 = APPLICATION_CONTEXT ( 'automotive_design' ) ;
#49 = PROPERTY_DEFINITION ('external definition','', #113 ) ;
#50 = PROPERTY_DEFINITION_REPRESENTATION ( #231, #187 ) ;
#51 = APPLIED_EXTERNAL_IDENTIFICATION_ASSIGNMENT ( 'Part2.STEP' , #301, #105,( #55) ) ;
#52 = DIRECTION ( 'NONE',  ( 1.000000000000000000, 0.000000000000000000, 0.000000000000000000 ) ) ;
#53 = APPLICATION_CONTEXT ( 'automotive_design' ) ;
#54 = ITEM_DEFINED_TRANSFORMATION ( 'NONE', 'NONE', #206,  #370 ) ;
#55 = DOCUMENT_FILE ( 'Part2.STEP' , '', '', #214, '' ,$ ) ;
#56 = PROPERTY_DEFINITION ('document property','', #130 ) ;
#57 =( GEOMETRIC_REPRESENTATION_CONTEXT ( 3 ) GLOBAL_UNCERTAINTY_ASSIGNED_CONTEXT ( ( #255 ) ) GLOBAL_UNIT_ASSIGNED_CONTEXT ( ( #135, #104, #185 ) ) REPRESENTATION_CONTEXT ( 'NONE', 'WORKASPACE' ) );
#58 = PRODUCT_DEFINITION_FORMATION_WITH_SPECIFIED_SOURCE ( 'Symmetric', '', #349, .NOT_KNOWN. ) ;
#59 = PRODUCT ( 'ISO 8752 - 8 x 10 - St_ISO 8752 - 8 x 10 - St', 'ISO 8752 - 8 x 10 - St_ISO 8752 - 8 x 10 - St', '', ( #315 ) ) ;
#60 = PRODUCT_RELATED_PRODUCT_CATEGORY ( 'part', '', ( #251 ) ) ;
#61 =( LENGTH_UNIT ( ) NAMED_UNIT ( * ) SI_UNIT ( .MILLI., .METRE. ) );
#62 = SHAPE_REPRESENTATION ( 'ISO 7045 - M5 x 8 - Z - 8N_ISO 7045 - M5 x 8 - Z - 8N', ( #370 ), #22 ) ;
#63 = DIRECTION ( 'NONE',  ( -3.939342641574817569E-16, 0.3746065934159170108, -0.9271838545667854259 ) ) ;
#64 = OBJECT_ROLE ('mandatory',$ ) ;
#65 = CONTEXT_DEPENDENT_SHAPE_REPRESENTATION ( #335, #383 ) ;
#66 = APPLICATION_CONTEXT ( 'automotive_design' ) ;
#67 = AXIS2_PLACEMENT_3D ( 'NONE', #32, #341, #342 ) ;
#68 = APPLIED_EXTERNAL_IDENTIFICATION_ASSIGNMENT ( 'Part6.STEP' , #163, #333,( #184) ) ;
#69 = PRODUCT_RELATED_PRODUCT_CATEGORY ( 'part', '', ( #204 ) ) ;
#70 = PRODUCT_DEFINITION_CONTEXT ( 'detailed design', #343, 'design' ) ;
#71 = PRODUCT_DEFINITION_SHAPE ( 'NONE', 'NONE',  #203 ) ;
#72 = ITEM_DEFINED_TRANSFORMATION ( 'NONE', 'NONE', #223,  #370 ) ;
#73 = IDENTIFICATION_ROLE ( 'external document id and location', $) ;
#74 = PRODUCT_CONTEXT ( 'NONE', #44, 'mechanical' ) ;
#75 =( NAMED_UNIT ( * ) PLANE_ANGLE_UNIT ( ) SI_UNIT ( $, .RADIAN. ) );
#76 = APPLIED_EXTERNAL_IDENTIFICATION_ASSIGNMENT ( 'Part7.STEP' , #228, #388,( #338) ) ;
#77 = APPLICATION_PROTOCOL_DEFINITION ( 'draft international standard', 'automotive_design', 1998, #369 ) ;
#78 = PRODUCT_RELATED_PRODUCT_CATEGORY ( 'part', '', ( #6 ) ) ;
#79 = DIRECTION ( 'NONE',  ( 1.000000000000000000, 0.000000000000000000, 0.000000000000000000 ) ) ;
#80 = SHAPE_REPRESENTATION ( 'ISO 8752 - 8 x 10 - St_ISO 8752 - 8 x 10 - St', ( #156 ), #232 ) ;
#81 = PROPERTY_DEFINITION ('external definition','', #138 ) ;
#82 = PRODUCT_DEFINITION_CONTEXT ( 'detailed design', #234, 'design' ) ;
#83 = DOCUMENT_FILE ( 'Part4.STEP' , '', '', #136, '' ,$ ) ;
#84 =( NAMED_UNIT ( * ) SI_UNIT ( $, .STERADIAN. ) SOLID_ANGLE_UNIT ( ) );
#85 = PROPERTY_DEFINITION_REPRESENTATION ( #365, #170 ) ;
#86 = PRODUCT_DEFINITION_SHAPE ( 'NONE', 'NONE',  #352 ) ;
#87 =( GEOMETRIC_REPRESENTATION_CONTEXT ( 3 ) GLOBAL_UNCERTAINTY_ASSIGNED_CONTEXT ( ( #309 ) ) GLOBAL_UNIT_ASSIGNED_CONTEXT ( ( #236, #166, #101 ) ) REPRESENTATION_CONTEXT ( 'NONE', 'WORKASPACE' ) );
#88 = PRODUCT_DEFINITION_FORMATION_WITH_SPECIFIED_SOURCE ( 'Symmetric', '', #134, .NOT_KNOWN. ) ;
#89 =( LENGTH_UNIT ( ) NAMED_UNIT ( * ) SI_UNIT ( .MILLI., .METRE. ) );
#90 = ROLE_ASSOCIATION ( #384, #293 ) ;
#91 = PROPERTY_DEFINITION_REPRESENTATION ( #153, #167 ) ;
#92 =( REPRESENTATION_RELATIONSHIP ('NONE','NONE', #33, #62 ) REPRESENTATION_RELATIONSHIP_WITH_TRANSFORMATION ( #54 )SHAPE_REPRESENTATION_RELATIONSHIP( ) );
#93 = AXIS2_PLACEMENT_3D ( 'NONE', #274, #30, #398 ) ;
#94 = IDENTIFICATION_ROLE ( 'external document id and location', $) ;
#95 = CARTESIAN_POINT ( 'NONE',  ( -23.11999999999999744, 7.055701534559752020, 11.61334752734252262 ) ) ;
#96 = CARTESIAN_POINT ( 'NONE',  ( -23.11999999999993705, 3.047391954994389085, 21.53426187214689591 ) ) ;
#97 = DOCUMENT_FILE ( 'Part3.STEP' , '', '', #399, '' ,$ ) ;
#98 = DIRECTION ( 'NONE',  ( -0.8063721209636846021, -0.5914084904129535136, -5.933578824952800514E-18 ) ) ;
#99 = DOCUMENT_TYPE ( 'geometry' ) ;
#100 = DIRECTION ( 'NONE',  ( 0.000000000000000000, 0.000000000000000000, 1.000000000000000000 ) ) ;
#101 =( NAMED_UNIT ( * ) SI_UNIT ( $, .STERADIAN. ) SOLID_ANGLE_UNIT ( ) );
#102 = APPLICATION_PROTOCOL_DEFINITION ( 'draft international standard', 'automotive_design', 1998, #44 ) ;
#103 = PRODUCT ( 'Part7', 'Part7', '', ( #244 ) ) ;
#104 =( NAMED_UNIT ( * ) PLANE_ANGLE_UNIT ( ) SI_UNIT ( $, .RADIAN. ) );
#105 = EXTERNAL_SOURCE (IDENTIFIER('') ) ;
#106 = PRODUCT_CONTEXT ( 'NONE', #53, 'mechanical' ) ;
#107 = SHAPE_DEFINITION_REPRESENTATION ( #379, #167 ) ;
#108 = APPLICATION_PROTOCOL_DEFINITION ( 'draft international standard', 'automotive_design', 1998, #414 ) ;
#109 = UNCERTAINTY_MEASURE_WITH_UNIT (LENGTH_MEASURE( 1.000000000000000082E-05 ), #89, 'distance_accuracy_value', 'NONE');
#110 = PROPERTY_DEFINITION_REPRESENTATION ( #363, #80 ) ;
#111 =( NAMED_UNIT ( * ) SI_UNIT ( $, .STERADIAN. ) SOLID_ANGLE_UNIT ( ) );
#112 = EXTERNAL_SOURCE (IDENTIFIER('') ) ;
#113 = DOCUMENT_FILE ( 'ISO 7045 - M5 x 8 - Z - 8N_ISO 7045 - M5 x 8 - Z - 8N.STEP' , '', '', #182, '' ,$ ) ;
#114 = DIRECTION ( 'NONE',  ( 1.000000000000000000, 0.000000000000000000, 0.000000000000000000 ) ) ;
#115 = CONTEXT_DEPENDENT_SHAPE_REPRESENTATION ( #326, #391 ) ;
#116 =( REPRESENTATION_RELATIONSHIP ('NONE','NONE', #33, #123 ) REPRESENTATION_RELATIONSHIP_WITH_TRANSFORMATION ( #219 )SHAPE_REPRESENTATION_RELATIONSHIP( ) );
#117 = CONTEXT_DEPENDENT_SHAPE_REPRESENTATION ( #116, #259 ) ;
#118 = EXTERNAL_SOURCE (IDENTIFIER('') ) ;
#119 = CONTEXT_DEPENDENT_SHAPE_REPRESENTATION ( #323, #253 ) ;
#120 =( LENGTH_UNIT ( ) NAMED_UNIT ( * ) SI_UNIT ( .MILLI., .METRE. ) );
#121 =( GEOMETRIC_REPRESENTATION_CONTEXT ( 3 ) GLOBAL_UNCERTAINTY_ASSIGNED_CONTEXT ( ( #47 ) ) GLOBAL_UNIT_ASSIGNED_CONTEXT ( ( #220, #217, #356 ) ) REPRESENTATION_CONTEXT ( 'NONE', 'WORKASPACE' ) );
#122 = PRODUCT_DEFINITION_FORMATION_WITH_SPECIFIED_SOURCE ( 'Symmetric', '', #251, .NOT_KNOWN. ) ;
#123 = SHAPE_REPRESENTATION ( 'Part6', ( #353 ), #258 ) ;
#124 = OBJECT_ROLE ('mandatory',$ ) ;
#125 = CARTESIAN_POINT ( 'NONE',  ( 0.000000000000000000, 0.000000000000000000, 0.000000000000000000 ) ) ;
#126 = IDENTIFICATION_ROLE ( 'external document id and location', $) ;
#127 = DIRECTION ( 'NONE',  ( 0.7482793243812418948, -0.6633837899011040262, -1.986508185019500435E-16 ) ) ;
#128 = PRODUCT_DEFINITION_SHAPE ( 'NONE', 'NONE',  #174 ) ;
#129 = OBJECT_ROLE ('mandatory',$ ) ;
#130 = DOCUMENT_FILE ( 'ISO 7045 - M5 x 8 - Z - 8N_ISO 7045 - M5 x 8 - Z - 8N.STEP' , '', '', #99, '' ,$ ) ;
#131 = DIRECTION ( 'NONE',  ( 0.000000000000000000, 0.000000000000000000, 1.000000000000000000 ) ) ;
#132 = PRODUCT_DEFINITION_CONTEXT ( 'detailed design', #48, 'design' ) ;
#133 = APPLICATION_PROTOCOL_DEFINITION ( 'draft international standard', 'automotive_design', 1998, #48 ) ;
#134 = PRODUCT ( 'Tin Opener', 'Tin Opener', '', ( #240 ) ) ;
#135 =( LENGTH_UNIT ( ) NAMED_UNIT ( * ) SI_UNIT ( .MILLI., .METRE. ) );
#136 = DOCUMENT_TYPE ( 'geometry' ) ;
#137 = PRODUCT_DEFINITION_FORMATION_WITH_SPECIFIED_SOURCE ( 'Symmetric', '', #313, .NOT_KNOWN. ) ;
#138 = DOCUMENT_FILE ( 'ISO 8752 - 8 x 10 - St_ISO 8752 - 8 x 10 - St.STEP' , '', '', #308, '' ,$ ) ;
#139 = DIRECTION ( 'NONE',  ( 0.000000000000000000, 0.000000000000000000, 1.000000000000000000 ) ) ;
#140 = PRODUCT_RELATED_PRODUCT_CATEGORY ( 'part', '', ( #103 ) ) ;
#141 = APPLICATION_CONTEXT ( 'automotive_design' ) ;
#142 = PRODUCT_DEFINITION_CONTEXT ( 'detailed design', #262, 'design' ) ;
#143 = PRODUCT_DEFINITION_SHAPE ( 'NONE', 'NONE',  #425 ) ;
#144 = APPLICATION_PROTOCOL_DEFINITION ( 'draft international standard', 'automotive_design', 1998, #141 ) ;
#145 = PROPERTY_DEFINITION ('document property','', #184 ) ;
#146 = ROLE_ASSOCIATION ( #267, #173 ) ;
#147 =( LENGTH_UNIT ( ) NAMED_UNIT ( * ) SI_UNIT ( .MILLI., .METRE. ) );
#148 = PRODUCT_DEFINITION_CONTEXT ( 'detailed design', #141, 'design' ) ;
#149 = APPLIED_DOCUMENT_REFERENCE ( #338,'',( #211) ) ;
#150 = ITEM_DEFINED_TRANSFORMATION ( 'NONE', 'NONE', #270,  #7 ) ;
#151 = EXTERNAL_SOURCE (IDENTIFIER('') ) ;
#152 = PROPERTY_DEFINITION_REPRESENTATION ( #49, #62 ) ;
#153 = PROPERTY_DEFINITION ('document property','', #239 ) ;
#154 = OBJECT_ROLE ('mandatory',$ ) ;
#155 = PROPERTY_DEFINITION_REPRESENTATION ( #289, #359 ) ;
#156 = AXIS2_PLACEMENT_3D ( 'NONE', #319, #9, #11 ) ;
#157 = PRODUCT_RELATED_PRODUCT_CATEGORY ( 'part', '', ( #134 ) ) ;
#158 = CARTESIAN_POINT ( 'NONE',  ( 0.000000000000000000, 0.000000000000000000, 0.000000000000000000 ) ) ;
#159 = DIRECTION ( 'NONE',  ( -3.957099296886702137E-16, 8.999887035898903190E-16, -1.000000000000000000 ) ) ;
#160 = IDENTIFICATION_ROLE ( 'external document id and location', $) ;
#161 = AXIS2_PLACEMENT_3D ( 'NONE', #175, #139, #339 ) ;
#162 = DIRECTION ( 'NONE',  ( 1.000000000000000000, 0.000000000000000000, 0.000000000000000000 ) ) ;
#163 = IDENTIFICATION_ROLE ( 'external document id and location', $) ;
#164 = DIRECTION ( 'NONE',  ( 0.5627701898553560955, -0.7664225986451876915, -0.3096548299253932823 ) ) ;
#165 = APPLICATION_CONTEXT ( 'automotive_design' ) ;
#166 =( NAMED_UNIT ( * ) PLANE_ANGLE_UNIT ( ) SI_UNIT ( $, .RADIAN. ) );
#167 = SHAPE_REPRESENTATION ( 'Part5', ( #237 ), #57 ) ;
#168 = PRODUCT ( 'ISO 7045 - M5 x 8 - Z - 8N_ISO 7045 - M5 x 8 - Z - 8N', 'ISO 7045 - M5 x 8 - Z - 8N_ISO 7045 - M5 x 8 - Z - 8N', '', ( #40 ) ) ;
#169 = CARTESIAN_POINT ( 'NONE',  ( 0.000000000000000000, 0.000000000000000000, 0.000000000000000000 ) ) ;
#170 = SHAPE_REPRESENTATION ( 'Part1', ( #161 ), #396 ) ;
#171 = APPLICATION_PROTOCOL_DEFINITION ( 'draft international standard', 'automotive_design', 1998, #19 ) ;
#172 = IDENTIFICATION_ROLE ( 'external document id and location', $) ;
#173 = APPLIED_DOCUMENT_REFERENCE ( #138,'',( #373) ) ;
#174 = PRODUCT_DEFINITION ( 'General', '', #137, #148 ) ;
#175 = CARTESIAN_POINT ( 'NONE',  ( 0.000000000000000000, 0.000000000000000000, 0.000000000000000000 ) ) ;
#176 = EXTERNAL_SOURCE (IDENTIFIER('') ) ;
#177 = OBJECT_ROLE ('mandatory',$ ) ;
#178 = SHAPE_DEFINITION_REPRESENTATION ( #21, #80 ) ;
#179 = PROPERTY_DEFINITION ('document property','', #97 ) ;
#180 = CONTEXT_DEPENDENT_SHAPE_REPRESENTATION ( #92, #382 ) ;
#181 = DIRECTION ( 'NONE',  ( 1.000000000000000000, 0.000000000000000000, 0.000000000000000000 ) ) ;
#182 = DOCUMENT_TYPE ( 'geometry' ) ;
#183 = AXIS2_PLACEMENT_3D ( 'NONE', #257, #254, #79 ) ;
#184 = DOCUMENT_FILE ( 'Part6.STEP' , '', '', #245, '' ,$ ) ;
#185 =( NAMED_UNIT ( * ) SI_UNIT ( $, .STERADIAN. ) SOLID_ANGLE_UNIT ( ) );
#186 = OBJECT_ROLE ('mandatory',$ ) ;
#187 = SHAPE_REPRESENTATION ( 'Part2', ( #183 ), #121 ) ;
#188 = ROLE_ASSOCIATION ( #377, #387 ) ;
#189 = EXTERNAL_SOURCE (IDENTIFIER('') ) ;
#190 = DIRECTION ( 'NONE',  ( 0.000000000000000000, 0.000000000000000000, 1.000000000000000000 ) ) ;
#191 = PRODUCT_RELATED_PRODUCT_CATEGORY ( 'part', '', ( #168 ) ) ;
#192 = PROPERTY_DEFINITION_REPRESENTATION ( #194, #187 ) ;
#193 = DIRECTION ( 'NONE',  ( 0.000000000000000000, 0.000000000000000000, 1.000000000000000000 ) ) ;
#194 = PROPERTY_DEFINITION ('document property','', #55 ) ;
#195 = IDENTIFICATION_ROLE ( 'external document id and location', $) ;
#196 = DIRECTION ( 'NONE',  ( -0.6633837899011041372, -0.7482793243812420059, 1.615238605690471361E-16 ) ) ;
#197 =( REPRESENTATION_RELATIONSHIP ('NONE','NONE', #33, #359 ) REPRESENTATION_RELATIONSHIP_WITH_TRANSFORMATION ( #227 )SHAPE_REPRESENTATION_RELATIONSHIP( ) );
#198 = AXIS2_PLACEMENT_3D ( 'NONE', #238, #98, #420 ) ;
#199 = DIRECTION ( 'NONE',  ( -0.9497173028330720967, -0.2903093116482711733, -0.1172925755100549527 ) ) ;
#200 = SHAPE_REPRESENTATION ( 'Part4', ( #246 ), #345 ) ;
#201 = PRODUCT_DEFINITION_CONTEXT ( 'detailed design', #26, 'design' ) ;
#202 = DIRECTION ( 'NONE',  ( 1.000000000000000000, 0.000000000000000000, 0.000000000000000000 ) ) ;
#203 = PRODUCT_DEFINITION ( 'General', '', #42, #292 ) ;
#204 = PRODUCT ( 'Part3', 'Part3', '', ( #410 ) ) ;
#205 = APPLICATION_PROTOCOL_DEFINITION ( 'draft international standard', 'automotive_design', 1998, #250 ) ;
#206 = AXIS2_PLACEMENT_3D ( 'NONE', #276, #272, #159 ) ;
#207 = PROPERTY_DEFINITION_REPRESENTATION ( #179, #216 ) ;
#208 =( REPRESENTATION_RELATIONSHIP ('NONE','NONE', #33, #187 ) REPRESENTATION_RELATIONSHIP_WITH_TRANSFORMATION ( #8 )SHAPE_REPRESENTATION_RELATIONSHIP( ) );
#209 = PROPERTY_DEFINITION_REPRESENTATION ( #81, #80 ) ;
#210 = PRODUCT_DEFINITION_SHAPE ( 'NONE', 'NONE',  #419 ) ;
#211 = PRODUCT_DEFINITION ( 'General', '', #247, #403 ) ;
#212 = UNCERTAINTY_MEASURE_WITH_UNIT (LENGTH_MEASURE( 1.000000000000000082E-05 ), #268, 'distance_accuracy_value', 'NONE');
#213 = APPLICATION_PROTOCOL_DEFINITION ( 'draft international standard', 'automotive_design', 1998, #343 ) ;
#214 = DOCUMENT_TYPE ( 'geometry' ) ;
#215 = SHAPE_DEFINITION_REPRESENTATION ( #401, #359 ) ;
#216 = SHAPE_REPRESENTATION ( 'Part3', ( #7 ), #405 ) ;
#217 =( NAMED_UNIT ( * ) PLANE_ANGLE_UNIT ( ) SI_UNIT ( $, .RADIAN. ) );
#218 = PRODUCT_DEFINITION_CONTEXT ( 'detailed design', #165, 'design' ) ;
#219 = ITEM_DEFINED_TRANSFORMATION ( 'NONE', 'NONE', #14,  #353 ) ;
#220 =( LENGTH_UNIT ( ) NAMED_UNIT ( * ) SI_UNIT ( .MILLI., .METRE. ) );
#221 = PRODUCT_DEFINITION ( 'General', '', #225, #142 ) ;
#222 = PROPERTY_DEFINITION ('document property','', #113 ) ;
#223 = AXIS2_PLACEMENT_3D ( 'NONE', #96, #199, #394 ) ;
#224 = UNCERTAINTY_MEASURE_WITH_UNIT (LENGTH_MEASURE( 1.000000000000000082E-05 ), #61, 'distance_accuracy_value', 'NONE');
#225 = PRODUCT_DEFINITION_FORMATION_WITH_SPECIFIED_SOURCE ( 'Symmetric', '', #6, .NOT_KNOWN. ) ;
#226 = PRODUCT_DEFINITION_FORMATION_WITH_SPECIFIED_SOURCE ( 'Symmetric', '', #59, .NOT_KNOWN. ) ;
#227 = ITEM_DEFINED_TRANSFORMATION ( 'NONE', 'NONE', #93,  #374 ) ;
#228 = IDENTIFICATION_ROLE ( 'external document id and location', $) ;
#229 = ITEM_DEFINED_TRANSFORMATION ( 'NONE', 'NONE', #358,  #161 ) ;
#230 = ROLE_ASSOCIATION ( #154, #381 ) ;
#231 = PROPERTY_DEFINITION ('external definition','', #55 ) ;
#232 =( GEOMETRIC_REPRESENTATION_CONTEXT ( 3 ) GLOBAL_UNCERTAINTY_ASSIGNED_CONTEXT ( ( #275 ) ) GLOBAL_UNIT_ASSIGNED_CONTEXT ( ( #281, #316, #322 ) ) REPRESENTATION_CONTEXT ( 'NONE', 'WORKASPACE' ) );
#233 = CARTESIAN_POINT ( 'NONE',  ( -23.55559121499641506, -10.97220149465610106, -32.24999999999999289 ) ) ;
#234 = APPLICATION_CONTEXT ( 'automotive_design' ) ;
#235 = DIRECTION ( 'NONE',  ( 0.000000000000000000, 0.000000000000000000, 1.000000000000000000 ) ) ;
#236 =( LENGTH_UNIT ( ) NAMED_UNIT ( * ) SI_UNIT ( .MILLI., .METRE. ) );
#237 = AXIS2_PLACEMENT_3D ( 'NONE', #4, #131, #355 ) ;
#238 = CARTESIAN_POINT ( 'NONE',  ( -23.55559121499640796, -10.97220149465608863, 4.500000000000001776 ) ) ;
#239 = DOCUMENT_FILE ( 'Part5.STEP' , '', '', #284, '' ,$ ) ;
#240 = PRODUCT_CONTEXT ( 'NONE', #347, 'mechanical' ) ;
#241 = PRODUCT_DEFINITION_SHAPE ( 'NONE', 'NONE',  #320 ) ;
#242 = PRODUCT_DEFINITION_SHAPE ( 'NONE', 'NONE',  #421 ) ;
#243 = PRODUCT_DEFINITION_SHAPE ( 'NONE', 'NONE',  #282 ) ;
#244 = PRODUCT_CONTEXT ( 'NONE', #279, 'mechanical' ) ;
#245 = DOCUMENT_TYPE ( 'geometry' ) ;
#246 = AXIS2_PLACEMENT_3D ( 'NONE', #286, #408, #52 ) ;
#247 = PRODUCT_DEFINITION_FORMATION_WITH_SPECIFIED_SOURCE ( 'Symmetric', '', #103, .NOT_KNOWN. ) ;
#248 = APPLICATION_PROTOCOL_DEFINITION ( 'draft international standard', 'automotive_design', 1998, #262 ) ;
#249 = CARTESIAN_POINT ( 'NONE',  ( 0.000000000000000000, 0.000000000000000000, 0.000000000000000000 ) ) ;
#250 = APPLICATION_CONTEXT ( 'automotive_design' ) ;
#251 = PRODUCT ( 'Part2', 'Part2', '', ( #380 ) ) ;
#252 = APPLIED_DOCUMENT_REFERENCE ( #130,'',( #352) ) ;
#253 = PRODUCT_DEFINITION_SHAPE ( 'NONE', 'NONE',  #430 ) ;
#254 = DIRECTION ( 'NONE',  ( 0.000000000000000000, 0.000000000000000000, 1.000000000000000000 ) ) ;
#255 = UNCERTAINTY_MEASURE_WITH_UNIT (LENGTH_MEASURE( 1.000000000000000082E-05 ), #135, 'distance_accuracy_value', 'NONE');
#256 = PRODUCT_CONTEXT ( 'NONE', #402, 'mechanical' ) ;
#257 = CARTESIAN_POINT ( 'NONE',  ( 0.000000000000000000, 0.000000000000000000, 0.000000000000000000 ) ) ;
#258 =( GEOMETRIC_REPRESENTATION_CONTEXT ( 3 ) GLOBAL_UNCERTAINTY_ASSIGNED_CONTEXT ( ( #212 ) ) GLOBAL_UNIT_ASSIGNED_CONTEXT ( ( #268, #15, #84 ) ) REPRESENTATION_CONTEXT ( 'NONE', 'WORKASPACE' ) );
#259 = PRODUCT_DEFINITION_SHAPE ( 'NONE', 'NONE',  #429 ) ;
#260 = CONTEXT_DEPENDENT_SHAPE_REPRESENTATION ( #354, #143 ) ;
#261 = ROLE_ASSOCIATION ( #64, #149 ) ;
#262 = APPLICATION_CONTEXT ( 'automotive_design' ) ;
#263 = ROLE_ASSOCIATION ( #371, #416 ) ;
#264 = CARTESIAN_POINT ( 'NONE',  ( 0.000000000000000000, 0.000000000000000000, 0.000000000000000000 ) ) ;
#265 = EXTERNAL_SOURCE (IDENTIFIER('') ) ;
#266 = PROPERTY_DEFINITION_REPRESENTATION ( #17, #123 ) ;
#267 = OBJECT_ROLE ('mandatory',$ ) ;
#268 =( LENGTH_UNIT ( ) NAMED_UNIT ( * ) SI_UNIT ( .MILLI., .METRE. ) );
#269 =( NAMED_UNIT ( * ) SI_UNIT ( $, .STERADIAN. ) SOLID_ANGLE_UNIT ( ) );
#270 = AXIS2_PLACEMENT_3D ( 'NONE', #95, #164, #63 ) ;
#271 = APPLIED_EXTERNAL_IDENTIFICATION_ASSIGNMENT ( 'ISO 7045 - M5 x 8 - Z - 8N_ISO 7045 - M5 x 8 - Z - 8N.STEP' , #160, #112,( #113) ) ;
#272 = DIRECTION ( 'NONE',  ( 0.9339463864733794640, 0.3574131323738914401, -4.790407727318819643E-17 ) ) ;
#273 = CARTESIAN_POINT ( 'NONE',  ( 0.000000000000000000, 0.000000000000000000, 0.000000000000000000 ) ) ;
#274 = CARTESIAN_POINT ( 'NONE',  ( 1.297044611471565781E-13, 4.044074103370933432E-14, 3.212415783442364337 ) ) ;
#275 = UNCERTAINTY_MEASURE_WITH_UNIT (LENGTH_MEASURE( 1.000000000000000082E-05 ), #281, 'distance_accuracy_value', 'NONE');
#276 = CARTESIAN_POINT ( 'NONE',  ( -50.80559121499643283, -10.97220149465609218, 13.49999999999999822 ) ) ;
#277 = PRODUCT_DEFINITION_FORMATION_WITH_SPECIFIED_SOURCE ( 'Symmetric', '', #168, .NOT_KNOWN. ) ;
#278 = SHAPE_DEFINITION_REPRESENTATION ( #128, #123 ) ;
#279 = APPLICATION_CONTEXT ( 'automotive_design' ) ;
#280 = APPLICATION_PROTOCOL_DEFINITION ( 'draft international standard', 'automotive_design', 1998, #26 ) ;
#281 =( LENGTH_UNIT ( ) NAMED_UNIT ( * ) SI_UNIT ( .MILLI., .METRE. ) );
#282 = PRODUCT_DEFINITION ( 'General', '', #296, #201 ) ;
#283 = DIRECTION ( 'NONE',  ( 1.000000000000000000, 0.000000000000000000, 0.000000000000000000 ) ) ;
#284 = DOCUMENT_TYPE ( 'geometry' ) ;
#285 = SHAPE_DEFINITION_REPRESENTATION ( #210, #170 ) ;
#286 = CARTESIAN_POINT ( 'NONE',  ( 0.000000000000000000, 0.000000000000000000, 0.000000000000000000 ) ) ;
#287 = UNCERTAINTY_MEASURE_WITH_UNIT (LENGTH_MEASURE( 1.000000000000000082E-05 ), #25, 'distance_accuracy_value', 'NONE');
#288 = SHAPE_DEFINITION_REPRESENTATION ( #241, #33 ) ;
#289 = PROPERTY_DEFINITION ('document property','', #338 ) ;
#290 =( NAMED_UNIT ( * ) SI_UNIT ( $, .STERADIAN. ) SOLID_ANGLE_UNIT ( ) );
#291 =( NAMED_UNIT ( * ) PLANE_ANGLE_UNIT ( ) SI_UNIT ( $, .RADIAN. ) );
#292 = PRODUCT_DEFINITION_CONTEXT ( 'detailed design', #1, 'design' ) ;
#293 = APPLIED_DOCUMENT_REFERENCE ( #239,'',( #221) ) ;
#294 = PRODUCT_RELATED_PRODUCT_CATEGORY ( 'part', '', ( #317 ) ) ;
#295 = PROPERTY_DEFINITION_REPRESENTATION ( #302, #200 ) ;
#296 = PRODUCT_DEFINITION_FORMATION_WITH_SPECIFIED_SOURCE ( 'Symmetric', '', #317, .NOT_KNOWN. ) ;
#297 = PROPERTY_DEFINITION ('external definition','', #338 ) ;
#298 =( REPRESENTATION_RELATIONSHIP ('NONE','NONE', #33, #200 ) REPRESENTATION_RELATIONSHIP_WITH_TRANSFORMATION ( #24 )SHAPE_REPRESENTATION_RELATIONSHIP( ) );
#299 = APPLIED_DOCUMENT_REFERENCE ( #97,'',( #203) ) ;
#300 =( NAMED_UNIT ( * ) SI_UNIT ( $, .STERADIAN. ) SOLID_ANGLE_UNIT ( ) );
#301 = IDENTIFICATION_ROLE ( 'external document id and location', $) ;
#302 = PROPERTY_DEFINITION ('document property','', #83 ) ;
#303 = ROLE_ASSOCIATION ( #186, #299 ) ;
#304 =( GEOMETRIC_REPRESENTATION_CONTEXT ( 3 ) GLOBAL_UNCERTAINTY_ASSIGNED_CONTEXT ( ( #109 ) ) GLOBAL_UNIT_ASSIGNED_CONTEXT ( ( #89, #291, #290 ) ) REPRESENTATION_CONTEXT ( 'NONE', 'WORKASPACE' ) );
#305 = APPLICATION_PROTOCOL_DEFINITION ( 'draft international standard', 'automotive_design', 1998, #347 ) ;
#306 = DIRECTION ( 'NONE',  ( 1.306564785803368058E-16, -0.3746065934159171773, 0.9271838545667853149 ) ) ;
#307 = CARTESIAN_POINT ( 'NONE',  ( 0.004408785003713567782, -0.002201494656056284839, -1.354752454186691039E-15 ) ) ;
#308 = DOCUMENT_TYPE ( 'geometry' ) ;
#309 = UNCERTAINTY_MEASURE_WITH_UNIT (LENGTH_MEASURE( 1.000000000000000082E-05 ), #236, 'distance_accuracy_value', 'NONE');
#310 = APPLIED_EXTERNAL_IDENTIFICATION_ASSIGNMENT ( 'ISO 8752 - 8 x 10 - St_ISO 8752 - 8 x 10 - St.STEP' , #73, #189,( #138) ) ;
#311 = APPLICATION_PROTOCOL_DEFINITION ( 'draft international standard', 'automotive_design', 1998, #361 ) ;
#312 = APPLIED_EXTERNAL_IDENTIFICATION_ASSIGNMENT ( 'ISO 7045 - M5 x 8 - Z - 8N_ISO 7045 - M5 x 8 - Z - 8N.STEP' , #94, #118,( #130) ) ;
#313 = PRODUCT ( 'Part6', 'Part6', '', ( #38 ) ) ;
#314 = DIRECTION ( 'NONE',  ( 0.000000000000000000, 0.000000000000000000, 1.000000000000000000 ) ) ;
#315 = PRODUCT_CONTEXT ( 'NONE', #66, 'mechanical' ) ;
#316 =( NAMED_UNIT ( * ) PLANE_ANGLE_UNIT ( ) SI_UNIT ( $, .RADIAN. ) );
#317 = PRODUCT ( 'Part4', 'Part4', '', ( #74 ) ) ;
#318 = SHAPE_DEFINITION_REPRESENTATION ( #71, #216 ) ;
#319 = CARTESIAN_POINT ( 'NONE',  ( 0.000000000000000000, 0.000000000000000000, 0.000000000000000000 ) ) ;
#320 = PRODUCT_DEFINITION ( 'General', '', #88, #70 ) ;
#321 = SHAPE_DEFINITION_REPRESENTATION ( #41, #187 ) ;
#322 =( NAMED_UNIT ( * ) SI_UNIT ( $, .STERADIAN. ) SOLID_ANGLE_UNIT ( ) );
#323 =( REPRESENTATION_RELATIONSHIP ('NONE','NONE', #33, #216 ) REPRESENTATION_RELATIONSHIP_WITH_TRANSFORMATION ( #150 )SHAPE_REPRESENTATION_RELATIONSHIP( ) );
#324 = APPLIED_DOCUMENT_REFERENCE ( #184,'',( #174) ) ;
#325 = AXIS2_PLACEMENT_3D ( 'NONE', #273, #100, #283 ) ;
#326 =( REPRESENTATION_RELATIONSHIP ('NONE','NONE', #33, #167 ) REPRESENTATION_RELATIONSHIP_WITH_TRANSFORMATION ( #376 )SHAPE_REPRESENTATION_RELATIONSHIP( ) );
#327 = PROPERTY_DEFINITION ('external definition','', #97 ) ;
#328 = PROPERTY_DEFINITION_REPRESENTATION ( #145, #123 ) ;
#329 = PROPERTY_DEFINITION ('external definition','', #83 ) ;
#330 = PROPERTY_DEFINITION_REPRESENTATION ( #297, #359 ) ;
#331 = PROPERTY_DEFINITION ('external definition','', #130 ) ;
#332 =( NAMED_UNIT ( * ) SI_UNIT ( $, .STERADIAN. ) SOLID_ANGLE_UNIT ( ) );
#333 = EXTERNAL_SOURCE (IDENTIFIER('') ) ;
#334 = PROPERTY_DEFINITION_REPRESENTATION ( #329, #200 ) ;
#335 =( REPRESENTATION_RELATIONSHIP ('NONE','NONE', #33, #62 ) REPRESENTATION_RELATIONSHIP_WITH_TRANSFORMATION ( #72 )SHAPE_REPRESENTATION_RELATIONSHIP( ) );
#336 = PROPERTY_DEFINITION ('document property','', #362 ) ;
#337 = APPLIED_EXTERNAL_IDENTIFICATION_ASSIGNMENT ( 'Part4.STEP' , #195, #265,( #83) ) ;
#338 = DOCUMENT_FILE ( 'Part7.STEP' , '', '', #411, '' ,$ ) ;
#339 = DIRECTION ( 'NONE',  ( 1.000000000000000000, 0.000000000000000000, 0.000000000000000000 ) ) ;
#340 = PRODUCT_DEFINITION ( 'General', '', #122, #218 ) ;
#341 = DIRECTION ( 'NONE',  ( -0.9438632865018232732, -0.3303363382886861377, -1.047723328216561191E-17 ) ) ;
#342 = DIRECTION ( 'NONE',  ( 2.775557015784938740E-17, -1.110222906147087516E-16, 0.9999999999999998890 ) ) ;
#343 = APPLICATION_CONTEXT ( 'automotive_design' ) ;
#344 = UNCERTAINTY_MEASURE_WITH_UNIT (LENGTH_MEASURE( 1.000000000000000082E-05 ), #147, 'distance_accuracy_value', 'NONE');
#345 =( GEOMETRIC_REPRESENTATION_CONTEXT ( 3 ) GLOBAL_UNCERTAINTY_ASSIGNED_CONTEXT ( ( #2 ) ) GLOBAL_UNIT_ASSIGNED_CONTEXT ( ( #120, #390, #332 ) ) REPRESENTATION_CONTEXT ( 'NONE', 'WORKASPACE' ) );
#346 = ROLE_ASSOCIATION ( #129, #252 ) ;
#347 = APPLICATION_CONTEXT ( 'automotive_design' ) ;
#348 = APPLICATION_PROTOCOL_DEFINITION ( 'draft international standard', 'automotive_design', 1998, #234 ) ;
#349 = PRODUCT ( 'Part1', 'Part1', '', ( #256 ) ) ;
#350 = PROPERTY_DEFINITION_REPRESENTATION ( #56, #62 ) ;
#351 = APPLICATION_PROTOCOL_DEFINITION ( 'draft international standard', 'automotive_design', 1998, #66 ) ;
#352 = PRODUCT_DEFINITION ( 'General', '', #277, #132 ) ;
#353 = AXIS2_PLACEMENT_3D ( 'NONE', #158, #190, #181 ) ;
#354 =( REPRESENTATION_RELATIONSHIP ('NONE','NONE', #33, #170 ) REPRESENTATION_RELATIONSHIP_WITH_TRANSFORMATION ( #229 )SHAPE_REPRESENTATION_RELATIONSHIP( ) );
#355 = DIRECTION ( 'NONE',  ( 1.000000000000000000, 0.000000000000000000, 0.000000000000000000 ) ) ;
#356 =( NAMED_UNIT ( * ) SI_UNIT ( $, .STERADIAN. ) SOLID_ANGLE_UNIT ( ) );
#357 = PROPERTY_DEFINITION_REPRESENTATION ( #222, #62 ) ;
#358 = AXIS2_PLACEMENT_3D ( 'NONE', #125, #28, #162 ) ;
#359 = SHAPE_REPRESENTATION ( 'Part7', ( #374 ), #304 ) ;
#360 = PROPERTY_DEFINITION_REPRESENTATION ( #417, #167 ) ;
#361 = APPLICATION_CONTEXT ( 'automotive_design' ) ;
#362 = DOCUMENT_FILE ( 'Part1.STEP' , '', '', #39, '' ,$ ) ;
#363 = PROPERTY_DEFINITION ('document property','', #138 ) ;
#364 = CONTEXT_DEPENDENT_SHAPE_REPRESENTATION ( #197, #46 ) ;
#365 = PROPERTY_DEFINITION ('external definition','', #362 ) ;
#366 = PRODUCT_DEFINITION_SHAPE ( 'NONE', 'NONE',  #423 ) ;
#367 = AXIS2_PLACEMENT_3D ( 'NONE', #307, #372, #27 ) ;
#368 = CARTESIAN_POINT ( 'NONE',  ( -23.12000000000011113, 8.273172963160702054, 8.600000000000127542 ) ) ;
#369 = APPLICATION_CONTEXT ( 'automotive_design' ) ;
#370 = AXIS2_PLACEMENT_3D ( 'NONE', #249, #314, #413 ) ;
#371 = OBJECT_ROLE ('mandatory',$ ) ;
#372 = DIRECTION ( 'NONE',  ( 0.000000000000000000, 0.000000000000000000, 1.000000000000000000 ) ) ;
#373 = PRODUCT_DEFINITION ( 'General', '', #226, #415 ) ;
#374 = AXIS2_PLACEMENT_3D ( 'NONE', #264, #193, #114 ) ;
#375 = APPLICATION_PROTOCOL_DEFINITION ( 'draft international standard', 'automotive_design', 1998, #31 ) ;
#376 = ITEM_DEFINED_TRANSFORMATION ( 'NONE', 'NONE', #67,  #237 ) ;
#377 = OBJECT_ROLE ('mandatory',$ ) ;
#378 = SHAPE_DEFINITION_REPRESENTATION ( #86, #62 ) ;
#379 = PRODUCT_DEFINITION_SHAPE ( 'NONE', 'NONE',  #221 ) ;
#380 = PRODUCT_CONTEXT ( 'NONE', #19, 'mechanical' ) ;
#381 = APPLIED_DOCUMENT_REFERENCE ( #113,'',( #352) ) ;
#382 = PRODUCT_DEFINITION_SHAPE ( 'NONE', 'NONE',  #427 ) ;
#383 = PRODUCT_DEFINITION_SHAPE ( 'NONE', 'NONE',  #422 ) ;
#384 = OBJECT_ROLE ('mandatory',$ ) ;
#385 = PROPERTY_DEFINITION_REPRESENTATION ( #336, #170 ) ;
#386 = APPLIED_DOCUMENT_REFERENCE ( #55,'',( #340) ) ;
#387 = APPLIED_DOCUMENT_REFERENCE ( #83,'',( #282) ) ;
#388 = EXTERNAL_SOURCE (IDENTIFIER('') ) ;
#389 =( NAMED_UNIT ( * ) PLANE_ANGLE_UNIT ( ) SI_UNIT ( $, .RADIAN. ) );
#390 =( NAMED_UNIT ( * ) PLANE_ANGLE_UNIT ( ) SI_UNIT ( $, .RADIAN. ) );
#391 = PRODUCT_DEFINITION_SHAPE ( 'NONE', 'NONE',  #424 ) ;
#392 = APPLIED_EXTERNAL_IDENTIFICATION_ASSIGNMENT ( 'Part5.STEP' , #172, #151,( #239) ) ;
#393 = PROPERTY_DEFINITION_REPRESENTATION ( #327, #216 ) ;
#394 = DIRECTION ( 'NONE',  ( -2.746366728286660962E-16, 0.3746065934159172883, -0.9271838545667853149 ) ) ;
#395 = DIRECTION ( 'NONE',  ( -0.4912134473550362479, -0.8076135155076562544, -0.3262970406040264226 ) ) ;
#396 =( GEOMETRIC_REPRESENTATION_CONTEXT ( 3 ) GLOBAL_UNCERTAINTY_ASSIGNED_CONTEXT ( ( #287 ) ) GLOBAL_UNIT_ASSIGNED_CONTEXT ( ( #25, #389, #269 ) ) REPRESENTATION_CONTEXT ( 'NONE', 'WORKASPACE' ) );
#397 = PRODUCT_RELATED_PRODUCT_CATEGORY ( 'part', '', ( #349 ) ) ;
#398 = DIRECTION ( 'NONE',  ( 1.000000000000000000, 0.000000000000000000, 0.000000000000000000 ) ) ;
#399 = DOCUMENT_TYPE ( 'geometry' ) ;
#400 = APPLICATION_PROTOCOL_DEFINITION ( 'draft international standard', 'automotive_design', 1998, #1 ) ;
#401 = PRODUCT_DEFINITION_SHAPE ( 'NONE', 'NONE',  #211 ) ;
#402 = APPLICATION_CONTEXT ( 'automotive_design' ) ;
#403 = PRODUCT_DEFINITION_CONTEXT ( 'detailed design', #250, 'design' ) ;
#404 = AXIS2_PLACEMENT_3D ( 'NONE', #368, #395, #306 ) ;
#405 =( GEOMETRIC_REPRESENTATION_CONTEXT ( 3 ) GLOBAL_UNCERTAINTY_ASSIGNED_CONTEXT ( ( #224 ) ) GLOBAL_UNIT_ASSIGNED_CONTEXT ( ( #61, #34, #300 ) ) REPRESENTATION_CONTEXT ( 'NONE', 'WORKASPACE' ) );
#406 = APPLICATION_PROTOCOL_DEFINITION ( 'draft international standard', 'automotive_design', 1998, #53 ) ;
#407 = APPLIED_EXTERNAL_IDENTIFICATION_ASSIGNMENT ( 'Part1.STEP' , #16, #176,( #362) ) ;
#408 = DIRECTION ( 'NONE',  ( 0.000000000000000000, 0.000000000000000000, 1.000000000000000000 ) ) ;
#409 = SHAPE_DEFINITION_REPRESENTATION ( #243, #200 ) ;
#410 = PRODUCT_CONTEXT ( 'NONE', #414, 'mechanical' ) ;
#411 = DOCUMENT_TYPE ( 'geometry' ) ;
#412 = APPLICATION_PROTOCOL_DEFINITION ( 'draft international standard', 'automotive_design', 1998, #279 ) ;
#413 = DIRECTION ( 'NONE',  ( 1.000000000000000000, 0.000000000000000000, 0.000000000000000000 ) ) ;
#414 = APPLICATION_CONTEXT ( 'automotive_design' ) ;
#415 = PRODUCT_DEFINITION_CONTEXT ( 'detailed design', #31, 'design' ) ;
#416 = APPLIED_DOCUMENT_REFERENCE ( #362,'',( #419) ) ;
#417 = PROPERTY_DEFINITION ('external definition','', #239 ) ;
#418 = ROLE_ASSOCIATION ( #124, #386 ) ;
#419 = PRODUCT_DEFINITION ( 'General', '', #58, #82 ) ;
#420 = DIRECTION ( 'NONE',  ( -2.801017050163519471E-16, 3.718793874282363886E-16, 0.9999999999999998890 ) ) ;
#421 = NEXT_ASSEMBLY_USAGE_OCCURRENCE ( 'NAUO1', ' ', ' ', #320, #373, $ ) ;
#422 = NEXT_ASSEMBLY_USAGE_OCCURRENCE ( 'NAUO2', ' ', ' ', #320, #352, $ ) ;
#423 = NEXT_ASSEMBLY_USAGE_OCCURRENCE ( 'NAUO3', ' ', ' ', #320, #340, $ ) ;
#424 = NEXT_ASSEMBLY_USAGE_OCCURRENCE ( 'NAUO4', ' ', ' ', #320, #221, $ ) ;
#425 = NEXT_ASSEMBLY_USAGE_OCCURRENCE ( 'NAUO5', ' ', ' ', #320, #419, $ ) ;
#426 = NEXT_ASSEMBLY_USAGE_OCCURRENCE ( 'NAUO6', ' ', ' ', #320, #211, $ ) ;
#427 = NEXT_ASSEMBLY_USAGE_OCCURRENCE ( 'NAUO7', ' ', ' ', #320, #352, $ ) ;
#428 = NEXT_ASSEMBLY_USAGE_OCCURRENCE ( 'NAUO8', ' ', ' ', #320, #282, $ ) ;
#429 = NEXT_ASSEMBLY_USAGE_OCCURRENCE ( 'NAUO9', ' ', ' ', #320, #174, $ ) ;
#430 = NEXT_ASSEMBLY_USAGE_OCCURRENCE ( 'NAUO10', ' ', ' ', #320, #203, $ ) ;
ENDSEC;
END-ISO-10303-21;
