ISO-10303-21;
HEADER;
FILE_DESCRIPTION (( 'STEP AP214' ),
    '1' );
FILE_NAME ('ISO - 4032 - M2 - W - N.STEP',
    '2025-08-05T07:38:47',
    ( '' ),
    ( '' ),
    'SwSTEP 2.0',
    'SolidWorks 2025',
    '' );
FILE_SCHEMA (( 'AUTOMOTIVE_DESIGN' ));
ENDSEC;

DATA;
#1 = EDGE_LOOP ( 'NONE', ( #163 ) ) ;
#2 = B_SPLINE_CURVE_WITH_KNOTS ( 'NONE', 3,
 ( #468, #522, #368, #633, #519, #466 ),
 .UNSPECIFIED., .F., .F.,
 ( 4, 2, 4 ),
 ( 0.001168606431211104135, 0.001750609284260045166, 0.002332612137308986196 ),
 .UNSPECIFIED. ) ;
#3 = DIRECTION ( 'NONE',  ( -1.000000000000000000, 0.000000000000000000, 0.000000000000000000 ) ) ;
#4 = ORIENTED_EDGE ( 'NONE', *, *, #455, .T. ) ;
#5 = CIRCLE ( 'NONE', #323, 2.000000000000000000 ) ;
#6 = ORIENTED_EDGE ( 'NONE', *, *, #16, .F. ) ;
#7 = CARTESIAN_POINT ( 'NONE',  ( 2.000000000000000000, 1.154700538379249908, -1.600000000000000089 ) ) ;
#8 = CARTESIAN_POINT ( 'NONE',  ( -1.339247740005899523, -1.536186033554504338, -0.01710519872702439409 ) ) ;
#9 = CARTESIAN_POINT ( 'NONE',  ( 0.000000000000000000, 12.30940107675850648, -1.400000000000000577 ) ) ;
#10 = VERTEX_POINT ( 'NONE', #644 ) ;
#11 = EDGE_CURVE ( 'NONE', #10, #445, #578, .T. ) ;
#12 = DIRECTION ( 'NONE',  ( 1.000000000000000000, 0.000000000000000000, 0.000000000000000000 ) ) ;
#13 = VERTEX_POINT ( 'NONE', #391 ) ;
#14 = VECTOR ( 'NONE', #49, 999.9999999999998863 ) ;
#15 = VERTEX_POINT ( 'NONE', #165 ) ;
#16 = EDGE_CURVE ( 'NONE', #456, #456, #425, .T. ) ;
#17 = CARTESIAN_POINT ( 'NONE',  ( 0.8302646929203316706, -1.830047532802314025, -1.743829080159790429E-15 ) ) ;
#18 = DIRECTION ( 'NONE',  ( 0.000000000000000000, 0.000000000000000000, 1.000000000000000000 ) ) ;
#19 = AXIS2_PLACEMENT_3D ( 'NONE', #627, #364, #529 ) ;
#20 = DIRECTION ( 'NONE',  ( 0.000000000000000000, 0.000000000000000000, 1.000000000000000000 ) ) ;
#21 = VERTEX_POINT ( 'NONE', #224 ) ;
#22 = CARTESIAN_POINT ( 'NONE',  ( -2.000000000000000000, 0.1952413320394008056, -1.905824131322175147E-17 ) ) ;
#23 = ORIENTED_EDGE ( 'NONE', *, *, #387, .T. ) ;
#24 = EDGE_CURVE ( 'NONE', #565, #449, #596, .T. ) ;
#25 = ORIENTED_EDGE ( 'NONE', *, *, #407, .T. ) ;
#26 = CARTESIAN_POINT ( 'NONE',  ( -2.000000000000000000, 0.000000000000000000, 0.000000000000000000 ) ) ;
#27 = EDGE_LOOP ( 'NONE', ( #57 ) ) ;
#28 = CIRCLE ( 'NONE', #523, 2.000000000000000000 ) ;
#29 = VERTEX_POINT ( 'NONE', #605 ) ;
#30 = EDGE_LOOP ( 'NONE', ( #285 ) ) ;
#31 = FACE_BOUND ( 'NONE', #30, .T. ) ;
#32 = DIRECTION ( 'NONE',  ( -0.000000000000000000, -0.000000000000000000, -1.000000000000000000 ) ) ;
#33 = ORIENTED_EDGE ( 'NONE', *, *, #133, .T. ) ;
#34 = EDGE_CURVE ( 'NONE', #212, #245, #438, .T. ) ;
#35 = AXIS2_PLACEMENT_3D ( 'NONE', #460, #286, #385 ) ;
#36 = DIRECTION ( 'NONE',  ( 1.000000000000000000, 0.000000000000000000, 0.000000000000000000 ) ) ;
#37 = CARTESIAN_POINT ( 'NONE',  ( 0.000000000000000000, -2.309401076758510918, -1.400000000000000577 ) ) ;
#38 = CLOSED_SHELL ( 'NONE', ( #254, #499, #238, #311, #272, #513, #221, #686, #40, #288, #480, #684, #93, #234, #576, #202, #586, #65, #305, #611, #379, #183, #359, #161, #115 ) ) ;
#39 = CARTESIAN_POINT ( 'NONE',  ( -2.000000000000000000, 0.000000000000000000, -1.400000000000001243 ) ) ;
#40 = ADVANCED_FACE ( 'NONE', ( #547, #79 ), #68, .F. ) ;
#41 = CYLINDRICAL_SURFACE ( 'NONE', #19, 2.000000000000000000 ) ;
#42 =( NAMED_UNIT ( * ) PLANE_ANGLE_UNIT ( ) SI_UNIT ( $, .RADIAN. ) );
#43 = CARTESIAN_POINT ( 'NONE',  ( 1.251928832280969886E-16, -2.309401076758510918, -1.400000000000000577 ) ) ;
#44 = CARTESIAN_POINT ( 'NONE',  ( 0.000000000000000000, 12.30940107675850648, -1.400000000000000577 ) ) ;
#45 = FACE_OUTER_BOUND ( 'NONE', #430, .T. ) ;
#46 = VECTOR ( 'NONE', #67, 1000.000000000000114 ) ;
#47 = DIRECTION ( 'NONE',  ( 0.000000000000000000, 0.000000000000000000, 1.000000000000000000 ) ) ;
#48 = AXIS2_PLACEMENT_3D ( 'NONE', #504, #669, #184 ) ;
#49 = DIRECTION ( 'NONE',  ( 0.8660254037844379305, 0.5000000000000014433, 0.000000000000000000 ) ) ;
#50 = LINE ( 'NONE', #91, #154 ) ;
#51 = CARTESIAN_POINT ( 'NONE',  ( 0.000000000000000000, 0.000000000000000000, -1.400000000000001243 ) ) ;
#52 = DIRECTION ( 'NONE',  ( 1.000000000000000000, 0.000000000000000000, 0.000000000000000000 ) ) ;
#53 = DIRECTION ( 'NONE',  ( -0.000000000000000000, -0.000000000000000000, 1.000000000000000000 ) ) ;
#54 = ORIENTED_EDGE ( 'NONE', *, *, #141, .T. ) ;
#55 = CARTESIAN_POINT ( 'NONE',  ( 0.000000000000000000, 0.000000000000000000, -1.400000000000001243 ) ) ;
#56 = LINE ( 'NONE', #211, #439 ) ;
#57 = ORIENTED_EDGE ( 'NONE', *, *, #653, .F. ) ;
#58 =( GEOMETRIC_REPRESENTATION_CONTEXT ( 3 ) GLOBAL_UNCERTAINTY_ASSIGNED_CONTEXT ( ( #317 ) ) GLOBAL_UNIT_ASSIGNED_CONTEXT ( ( #345, #70, #444 ) ) REPRESENTATION_CONTEXT ( 'NONE', 'WORKASPACE' ) );
#59 = DIRECTION ( 'NONE',  ( 0.000000000000000000, 0.000000000000000000, -1.000000000000000000 ) ) ;
#60 = ORIENTED_EDGE ( 'NONE', *, *, #132, .F. ) ;
#61 = EDGE_CURVE ( 'NONE', #398, #375, #336, .T. ) ;
#62 = ORIENTED_EDGE ( 'NONE', *, *, #403, .F. ) ;
#63 = CARTESIAN_POINT ( 'NONE',  ( 1.251928832280969886E-16, -2.309401076758510918, -1.600000000000000089 ) ) ;
#64 = ORIENTED_EDGE ( 'NONE', *, *, #452, .F. ) ;
#65 = ADVANCED_FACE ( 'NONE', ( #313 ), #689, .T. ) ;
#66 = ORIENTED_EDGE ( 'NONE', *, *, #680, .T. ) ;
#67 = DIRECTION ( 'NONE',  ( -0.8660254037844378194, -0.5000000000000013323, 0.000000000000000000 ) ) ;
#68 = PLANE ( 'NONE',  #413 ) ;
#69 = CIRCLE ( 'NONE', #348, 1.999999999999999112 ) ;
#70 =( NAMED_UNIT ( * ) PLANE_ANGLE_UNIT ( ) SI_UNIT ( $, .RADIAN. ) );
#71 = ORIENTED_EDGE ( 'NONE', *, *, #403, .T. ) ;
#72 = CARTESIAN_POINT ( 'NONE',  ( -2.000000000000000000, -1.154700538379255459, -1.400000000000000577 ) ) ;
#73 = EDGE_CURVE ( 'NONE', #222, #239, #84, .T. ) ;
#74 = CARTESIAN_POINT ( 'NONE',  ( -4.681546503268637031E-16, 2.309401076758504701, -1.600000000000000089 ) ) ;
#75 = CIRCLE ( 'NONE', #210, 0.8000000000000000444 ) ;
#76 = DIRECTION ( 'NONE',  ( 1.000000000000000000, 0.000000000000000000, -0.000000000000000000 ) ) ;
#77 = ORIENTED_EDGE ( 'NONE', *, *, #452, .T. ) ;
#78 = DIRECTION ( 'NONE',  ( 0.000000000000000000, 0.000000000000000000, -1.000000000000000000 ) ) ;
#79 = FACE_OUTER_BOUND ( 'NONE', #378, .T. ) ;
#80 = CARTESIAN_POINT ( 'NONE',  ( 0.8000000000000000444, 0.000000000000000000, -0.1400415076419428695 ) ) ;
#81 = ORIENTED_EDGE ( 'NONE', *, *, #265, .T. ) ;
#82 = CIRCLE ( 'NONE', #367, 2.000000000000000000 ) ;
#83 = AXIS2_PLACEMENT_3D ( 'NONE', #111, #270, #585 ) ;
#84 = CIRCLE ( 'NONE', #168, 2.000000000000000000 ) ;
#85 = EDGE_CURVE ( 'NONE', #171, #449, #563, .T. ) ;
#86 = EDGE_LOOP ( 'NONE', ( #217, #461, #289 ) ) ;
#87 = CARTESIAN_POINT ( 'NONE',  ( -1.000000000000002887, 1.732050807568875861, 0.000000000000000000 ) ) ;
#88 = CARTESIAN_POINT ( 'NONE',  ( -2.000000000000000000, -0.7745510564695450295, -0.07894766929796907806 ) ) ;
#89 = ORIENTED_EDGE ( 'NONE', *, *, #11, .F. ) ;
#90 = CARTESIAN_POINT ( 'NONE',  ( -1.340742937416025793, 1.535322780927270259, 1.205316236442435634E-15 ) ) ;
#91 = CARTESIAN_POINT ( 'NONE',  ( 2.000000000000000000, 1.154700538379249908, -1.600000000000000089 ) ) ;
#92 = FACE_OUTER_BOUND ( 'NONE', #134, .T. ) ;
#93 = ADVANCED_FACE ( 'NONE', ( #619 ), #514, .T. ) ;
#94 = LINE ( 'NONE', #355, #500 ) ;
#95 = CARTESIAN_POINT ( 'NONE',  ( 2.000000000000000000, 0.000000000000000000, -1.400000000000001243 ) ) ;
#96 = SURFACE_STYLE_USAGE ( .BOTH. , #634 ) ;
#97 = CARTESIAN_POINT ( 'NONE',  ( -2.000000000000000000, 1.154700538379249464, -1.400000000000000577 ) ) ;
#98 = B_SPLINE_CURVE_WITH_KNOTS ( 'NONE', 3,
 ( #616, #247, #296, #568 ),
 .UNSPECIFIED., .F., .F.,
 ( 4, 4 ),
 ( 2.380749485066644729E-07, 0.001168606431211095895 ),
 .UNSPECIFIED. ) ;
#99 = PLANE ( 'NONE',  #240 ) ;
#100 = LINE ( 'NONE', #139, #472 ) ;
#101 = EDGE_CURVE ( 'NONE', #392, #392, #668, .T. ) ;
#102 = DIRECTION ( 'NONE',  ( 1.000000000000000000, 1.776356839400250465E-15, 0.000000000000000000 ) ) ;
#103 = CARTESIAN_POINT ( 'NONE',  ( 1.251928832280969886E-16, -2.309401076758510918, -1.400000000000000577 ) ) ;
#104 = CONICAL_SURFACE ( 'NONE', #436, 2.000000000000000000, 1.047197551196596965 ) ;
#105 = PLANE ( 'NONE',  #376 ) ;
#106 = CARTESIAN_POINT ( 'NONE',  ( -2.000000000000000000, 1.154700538379249464, -1.600000000000000089 ) ) ;
#107 = DIRECTION ( 'NONE',  ( 0.000000000000000000, 0.000000000000000000, -1.000000000000000000 ) ) ;
#108 = EDGE_CURVE ( 'NONE', #180, #242, #448, .T. ) ;
#109 = ORIENTED_EDGE ( 'NONE', *, *, #290, .T. ) ;
#110 = DIRECTION ( 'NONE',  ( -0.8660254037844380415, 0.5000000000000009992, 0.000000000000000000 ) ) ;
#111 = CARTESIAN_POINT ( 'NONE',  ( 0.000000000000000000, 0.000000000000000000, 0.000000000000000000 ) ) ;
#112 = ORIENTED_EDGE ( 'NONE', *, *, #666, .F. ) ;
#113 = DIRECTION ( 'NONE',  ( 1.000000000000000000, 0.000000000000000000, 0.000000000000000000 ) ) ;
#114 = EDGE_LOOP ( 'NONE', ( #664, #160, #112, #457, #608, #488 ) ) ;
#115 = ADVANCED_FACE ( 'NONE', ( #465, #45 ), #625, .F. ) ;
#116 = VECTOR ( 'NONE', #581, 1000.000000000000114 ) ;
#117 = ORIENTED_EDGE ( 'NONE', *, *, #290, .F. ) ;
#118 = PLANE ( 'NONE',  #255 ) ;
#119 = DIRECTION ( 'NONE',  ( 0.000000000000000000, 0.000000000000000000, -1.000000000000000000 ) ) ;
#120 = CARTESIAN_POINT ( 'NONE',  ( 2.000000000000000000, -0.9668978507697957303, -0.1244188288311463969 ) ) ;
#121 = EDGE_LOOP ( 'NONE', ( #511, #71, #655 ) ) ;
#122 = CARTESIAN_POINT ( 'NONE',  ( -1.062518129035794345E-14, -2.309401076758504701, -0.1786327949540832127 ) ) ;
#123 = CARTESIAN_POINT ( 'NONE',  ( -1.672282218993689007, -1.343908487461476398, -0.07933779981236296908 ) ) ;
#124 = ORIENTED_EDGE ( 'NONE', *, *, #580, .T. ) ;
#125 = FACE_BOUND ( 'NONE', #677, .T. ) ;
#126 = EDGE_LOOP ( 'NONE', ( #77, #176, #231 ) ) ;
#127 = VECTOR ( 'NONE', #47, 1000.000000000000000 ) ;
#128 = ORIENTED_EDGE ( 'NONE', *, *, #189, .T. ) ;
#129 = DIRECTION ( 'NONE',  ( -1.000000000000000000, 0.000000000000000000, 0.000000000000000000 ) ) ;
#130 = CARTESIAN_POINT ( 'NONE',  ( 0.000000000000000000, 0.000000000000000000, -0.1400415076419428695 ) ) ;
#131 = VECTOR ( 'NONE', #543, 1000.000000000000000 ) ;
#132 = EDGE_CURVE ( 'NONE', #245, #670, #98, .T. ) ;
#133 = EDGE_CURVE ( 'NONE', #178, #554, #100, .T. ) ;
#134 = EDGE_LOOP ( 'NONE', ( #435, #673, #89 ) ) ;
#135 = CONICAL_SURFACE ( 'NONE', #537, 2.000000000000000000, 1.047197551196596965 ) ;
#136 = DIRECTION ( 'NONE',  ( 0.000000000000000000, -1.000000000000000000, 0.000000000000000000 ) ) ;
#137 = CARTESIAN_POINT ( 'NONE',  ( 2.000000000000000000, 1.154700538379249908, -1.600000000000000089 ) ) ;
#138 = ORIENTED_EDGE ( 'NONE', *, *, #61, .F. ) ;
#139 = CARTESIAN_POINT ( 'NONE',  ( 2.000000000000000000, 1.154700538379249908, -1.400000000000000577 ) ) ;
#140 = CARTESIAN_POINT ( 'NONE',  ( 2.000000000000000000, 0.9679918988505332722, -0.1247346533081147568 ) ) ;
#141 = EDGE_CURVE ( 'NONE', #554, #212, #94, .T. ) ;
#142 = DIRECTION ( 'NONE',  ( 0.8660254037844379305, -0.5000000000000013323, 0.000000000000000000 ) ) ;
#143 = APPLICATION_PROTOCOL_DEFINITION ( 'draft international standard', 'automotive_design', 1998, #243 ) ;
#144 = CIRCLE ( 'NONE', #237, 1.000000000000000000 ) ;
#145 = FILL_AREA_STYLE_COLOUR ( '', #394 ) ;
#146 = DIRECTION ( 'NONE',  ( -0.5000000000000013323, -0.8660254037844379305, 0.000000000000000000 ) ) ;
#147 = CARTESIAN_POINT ( 'NONE',  ( 0.000000000000000000, 12.30940107675850648, -1.400000000000000577 ) ) ;
#148 = CARTESIAN_POINT ( 'NONE',  ( 1.251928832280969886E-16, -2.309401076758510918, -1.600000000000000089 ) ) ;
#149 = CARTESIAN_POINT ( 'NONE',  ( 2.000000000000000000, 0.000000000000000000, 0.000000000000000000 ) ) ;
#150 = FACE_OUTER_BOUND ( 'NONE', #281, .T. ) ;
#151 = CARTESIAN_POINT ( 'NONE',  ( -2.000000000000000000, -1.154700538379255459, -1.400000000000000577 ) ) ;
#152 = DIRECTION ( 'NONE',  ( -0.000000000000000000, -0.000000000000000000, 1.000000000000000000 ) ) ;
#153 = FACE_OUTER_BOUND ( 'NONE', #114, .T. ) ;
#154 = VECTOR ( 'NONE', #251, 1000.000000000000000 ) ;
#155 = DIRECTION ( 'NONE',  ( -1.000000000000000000, 0.000000000000000000, -0.000000000000000000 ) ) ;
#156 = FACE_OUTER_BOUND ( 'NONE', #277, .T. ) ;
#157 = ORIENTED_EDGE ( 'NONE', *, *, #671, .F. ) ;
#158 = EDGE_CURVE ( 'NONE', #171, #565, #462, .T. ) ;
#159 = PLANE ( 'NONE',  #636 ) ;
#160 = ORIENTED_EDGE ( 'NONE', *, *, #265, .F. ) ;
#161 = ADVANCED_FACE ( 'NONE', ( #351, #31 ), #459, .F. ) ;
#162 = CARTESIAN_POINT ( 'NONE',  ( 2.000000000000000000, 0.000000000000000000, 0.000000000000000000 ) ) ;
#163 = ORIENTED_EDGE ( 'NONE', *, *, #101, .F. ) ;
#164 = DIRECTION ( 'NONE',  ( 0.5000000000000009992, 0.8660254037844380415, -0.000000000000000000 ) ) ;
#165 = CARTESIAN_POINT ( 'NONE',  ( -1.062518129035794345E-14, -2.309401076758504701, -0.1786327949540832127 ) ) ;
#166 = CIRCLE ( 'NONE', #550, 1.999999999999999112 ) ;
#167 = ORIENTED_EDGE ( 'NONE', *, *, #662, .T. ) ;
#168 = AXIS2_PLACEMENT_3D ( 'NONE', #532, #53, #332 ) ;
#169 = CARTESIAN_POINT ( 'NONE',  ( 2.000000000000000000, 0.7788341705667928272, -0.07984828284773047569 ) ) ;
#170 = EDGE_LOOP ( 'NONE', ( #54, #549, #226 ) ) ;
#171 = VERTEX_POINT ( 'NONE', #39 ) ;
#172 = CARTESIAN_POINT ( 'NONE',  ( -8.673617379884035472E-16, 2.309401076758505145, -0.1786327949540832127 ) ) ;
#173 = CARTESIAN_POINT ( 'NONE',  ( 2.000000000000000000, -1.154700538379255015, -1.600000000000000089 ) ) ;
#174 = ORIENTED_EDGE ( 'NONE', *, *, #431, .F. ) ;
#175 = DIRECTION ( 'NONE',  ( 1.000000000000000000, -1.776356839400250465E-15, 0.000000000000000000 ) ) ;
#176 = ORIENTED_EDGE ( 'NONE', *, *, #637, .F. ) ;
#177 = EDGE_CURVE ( 'NONE', #222, #398, #250, .T. ) ;
#178 = VERTEX_POINT ( 'NONE', #409 ) ;
#179 = CARTESIAN_POINT ( 'NONE',  ( -8.673617379884035472E-16, 2.309401076758505145, -0.1786327949540832127 ) ) ;
#180 = VERTEX_POINT ( 'NONE', #360 ) ;
#181 = EDGE_CURVE ( 'NONE', #453, #349, #521, .T. ) ;
#182 = ORIENTED_EDGE ( 'NONE', *, *, #132, .T. ) ;
#183 = ADVANCED_FACE ( 'NONE', ( #363 ), #135, .T. ) ;
#184 = DIRECTION ( 'NONE',  ( 1.000000000000000000, 0.000000000000000000, 0.000000000000000000 ) ) ;
#185 = DIRECTION ( 'NONE',  ( 1.000000000000000000, 0.000000000000000000, 0.000000000000000000 ) ) ;
#186 = ORIENTED_EDGE ( 'NONE', *, *, #177, .F. ) ;
#187 = AXIS2_PLACEMENT_3D ( 'NONE', #63, #469, #691 ) ;
#188 = CARTESIAN_POINT ( 'NONE',  ( 0.000000000000000000, 0.000000000000000000, -1.600000000000000755 ) ) ;
#189 = EDGE_CURVE ( 'NONE', #239, #171, #28, .T. ) ;
#190 = DIRECTION ( 'NONE',  ( -1.000000000000000000, 0.000000000000000000, 0.000000000000000000 ) ) ;
#191 = APPLICATION_PROTOCOL_DEFINITION ( 'draft international standard', 'automotive_design', 1998, #489 ) ;
#192 = VERTEX_POINT ( 'NONE', #218 ) ;
#193 = DIRECTION ( 'NONE',  ( -1.000000000000000000, 0.000000000000000000, 0.000000000000000000 ) ) ;
#194 = DIRECTION ( 'NONE',  ( -1.000000000000000000, 0.000000000000000000, -0.000000000000000000 ) ) ;
#195 = DIRECTION ( 'NONE',  ( 0.000000000000000000, 0.000000000000000000, -1.000000000000000000 ) ) ;
#196 = DIRECTION ( 'NONE',  ( -0.8660254037844380415, 0.5000000000000009992, 0.000000000000000000 ) ) ;
#197 = LINE ( 'NONE', #419, #678 ) ;
#198 = CARTESIAN_POINT ( 'NONE',  ( 0.000000000000000000, 0.000000000000000000, -1.574599999999998889 ) ) ;
#199 = CONICAL_SURFACE ( 'NONE', #628, 2.000000000000000000, 1.047197551196596965 ) ;
#200 = CARTESIAN_POINT ( 'NONE',  ( 0.000000000000000000, 0.000000000000000000, -1.600000000000000089 ) ) ;
#201 = DIRECTION ( 'NONE',  ( 0.000000000000000000, 0.000000000000000000, 1.000000000000000000 ) ) ;
#202 = ADVANCED_FACE ( 'NONE', ( #373 ), #118, .T. ) ;
#203 = DIRECTION ( 'NONE',  ( -1.000000000000000000, 0.000000000000000000, 0.000000000000000000 ) ) ;
#204 = DIRECTION ( 'NONE',  ( 0.000000000000000000, -1.000000000000000000, 0.000000000000000000 ) ) ;
#205 = DIRECTION ( 'NONE',  ( 0.000000000000000000, 0.000000000000000000, -1.000000000000000000 ) ) ;
#206 = DIRECTION ( 'NONE',  ( 1.000000000000000000, 0.000000000000000000, 0.000000000000000000 ) ) ;
#207 = CARTESIAN_POINT ( 'NONE',  ( 0.3271719972790535502, 2.120508236058134433, -0.06957546252590351976 ) ) ;
#208 = CARTESIAN_POINT ( 'NONE',  ( 0.000000000000000000, 12.30940107675850648, -1.400000000000000577 ) ) ;
#209 = EDGE_CURVE ( 'NONE', #13, #180, #640, .T. ) ;
#210 = AXIS2_PLACEMENT_3D ( 'NONE', #306, #638, #418 ) ;
#211 = CARTESIAN_POINT ( 'NONE',  ( 2.000000000000000000, 1.154700538379249908, -1.400000000000000577 ) ) ;
#212 = VERTEX_POINT ( 'NONE', #587 ) ;
#213 = DIRECTION ( 'NONE',  ( 0.8660254037844379305, 0.5000000000000014433, 0.000000000000000000 ) ) ;
#214 = EDGE_LOOP ( 'NONE', ( #614 ) ) ;
#215 = PRODUCT ( 'ISO - 4032 - M2 - W - N_ISO - 4032 - M2 - W - N', 'ISO - 4032 - M2 - W - N_ISO - 4032 - M2 - W - N', '', ( #316 ) ) ;
#216 = CARTESIAN_POINT ( 'NONE',  ( 2.000000000000000000, -0.3889866277140363038, -0.01677217554083860335 ) ) ;
#217 = ORIENTED_EDGE ( 'NONE', *, *, #497, .F. ) ;
#218 = CARTESIAN_POINT ( 'NONE',  ( 1.000000000000001998, 1.732050807568876083, 0.000000000000000000 ) ) ;
#219 = ORIENTED_EDGE ( 'NONE', *, *, #505, .T. ) ;
#220 = B_SPLINE_CURVE_WITH_KNOTS ( 'NONE', 3,
 ( #244, #342, #279, #169, #140, #651 ),
 .UNSPECIFIED., .F., .F.,
 ( 4, 2, 4 ),
 ( 0.003228283429323686171, 0.003812703409393315875, 0.004397123389462945578 ),
 .UNSPECIFIED. ) ;
#221 = ADVANCED_FACE ( 'NONE', ( #579 ), #482, .T. ) ;
#222 = VERTEX_POINT ( 'NONE', #476 ) ;
#223 = CARTESIAN_POINT ( 'NONE',  ( 0.6607522599941064723, -1.927915581583258930, -0.01710519872702480695 ) ) ;
#224 = CARTESIAN_POINT ( 'NONE',  ( 2.000000000000000000, 1.154700538379255459, -0.1786327949540832127 ) ) ;
#225 = AXIS2_PLACEMENT_3D ( 'NONE', #595, #205, #478 ) ;
#226 = ORIENTED_EDGE ( 'NONE', *, *, #666, .T. ) ;
#227 = CIRCLE ( 'NONE', #248, 1.000000000000000222 ) ;
#228 = CARTESIAN_POINT ( 'NONE',  ( 0.1631781751318162610, -2.215190113420284934, -0.1242400699092160166 ) ) ;
#229 = ORIENTED_EDGE ( 'NONE', *, *, #108, .T. ) ;
#230 = CARTESIAN_POINT ( 'NONE',  ( -0.8000000000000000444, 0.000000000000000000, -1.434558492358059212 ) ) ;
#231 = ORIENTED_EDGE ( 'NONE', *, *, #407, .F. ) ;
#232 = CARTESIAN_POINT ( 'NONE',  ( -2.000000000000000000, 0.3931374000439441518, -0.01723613881363292299 ) ) ;
#233 = ORIENTED_EDGE ( 'NONE', *, *, #463, .F. ) ;
#234 = ADVANCED_FACE ( 'NONE', ( #688 ), #473, .T. ) ;
#235 = ORIENTED_EDGE ( 'NONE', *, *, #141, .F. ) ;
#236 = CARTESIAN_POINT ( 'NONE',  ( -0.8302646929203304493, 1.830047532802308696, 1.224244953098215752E-15 ) ) ;
#237 = AXIS2_PLACEMENT_3D ( 'NONE', #635, #152, #643 ) ;
#238 = ADVANCED_FACE ( 'NONE', ( #150 ), #590, .T. ) ;
#239 = VERTEX_POINT ( 'NONE', #312 ) ;
#240 = AXIS2_PLACEMENT_3D ( 'NONE', #415, #146, #142 ) ;
#241 = EDGE_CURVE ( 'NONE', #349, #212, #535, .T. ) ;
#242 = VERTEX_POINT ( 'NONE', #315 ) ;
#243 = APPLICATION_CONTEXT ( 'automotive_design' ) ;
#244 = CARTESIAN_POINT ( 'NONE',  ( 2.000000000000000000, 0.000000000000000000, 0.000000000000000000 ) ) ;
#245 = VERTEX_POINT ( 'NONE', #321 ) ;
#246 = CIRCLE ( 'NONE', #337, 1.999999999999999112 ) ;
#247 = CARTESIAN_POINT ( 'NONE',  ( 1.672828002720947893, -1.343593379079623951, -0.06957546252590519897 ) ) ;
#248 = AXIS2_PLACEMENT_3D ( 'NONE', #198, #693, #533 ) ;
#249 = LINE ( 'NONE', #148, #127 ) ;
#250 = LINE ( 'NONE', #682, #320 ) ;
#251 = DIRECTION ( 'NONE',  ( 0.000000000000000000, 0.000000000000000000, 1.000000000000000000 ) ) ;
#252 = DIRECTION ( 'NONE',  ( -0.000000000000000000, -0.000000000000000000, -1.000000000000000000 ) ) ;
#253 = DIRECTION ( 'NONE',  ( -1.000000000000000000, 0.000000000000000000, 0.000000000000000000 ) ) ;
#254 = ADVANCED_FACE ( 'NONE', ( #377, #531 ), #542, .F. ) ;
#255 = AXIS2_PLACEMENT_3D ( 'NONE', #526, #632, #427 ) ;
#256 = DIRECTION ( 'NONE',  ( 0.000000000000000000, -1.000000000000000000, 0.000000000000000000 ) ) ;
#257 = CIRCLE ( 'NONE', #641, 2.000000000000000000 ) ;
#258 = AXIS2_PLACEMENT_3D ( 'NONE', #147, #575, #194 ) ;
#259 = PLANE ( 'NONE',  #479 ) ;
#260 = B_SPLINE_CURVE_WITH_KNOTS ( 'NONE', 3,
 ( #437, #352, #88, #676, #491, #382 ),
 .UNSPECIFIED., .F., .F.,
 ( 4, 2, 4 ),
 ( 0.002060137505873421357, 0.002644210467598554198, 0.003228283429323687038 ),
 .UNSPECIFIED. ) ;
#261 = DIRECTION ( 'NONE',  ( -0.000000000000000000, -0.000000000000000000, 1.000000000000000000 ) ) ;
#262 = CARTESIAN_POINT ( 'NONE',  ( 0.000000000000000000, 0.000000000000000000, 0.000000000000000000 ) ) ;
#263 = DIRECTION ( 'NONE',  ( 1.000000000000000000, 0.000000000000000000, 0.000000000000000000 ) ) ;
#264 = FACE_OUTER_BOUND ( 'NONE', #591, .T. ) ;
#265 = EDGE_CURVE ( 'NONE', #554, #222, #626, .T. ) ;
#266 = DIRECTION ( 'NONE',  ( -1.000000000000000000, 0.000000000000000000, 0.000000000000000000 ) ) ;
#267 = CARTESIAN_POINT ( 'NONE',  ( 0.6592570625839769827, 1.928778834210482351, 1.455701946705858867E-15 ) ) ;
#268 = ORIENTED_EDGE ( 'NONE', *, *, #11, .T. ) ;
#269 = DIRECTION ( 'NONE',  ( 0.000000000000000000, 0.000000000000000000, 1.000000000000000000 ) ) ;
#270 = DIRECTION ( 'NONE',  ( -0.000000000000000000, -0.000000000000000000, -1.000000000000000000 ) ) ;
#271 = CARTESIAN_POINT ( 'NONE',  ( -2.000000000000000000, 1.154700538379249464, -1.600000000000000089 ) ) ;
#272 = ADVANCED_FACE ( 'NONE', ( #264 ), #694, .T. ) ;
#273 = CARTESIAN_POINT ( 'NONE',  ( -1.000000000000002665, -1.732050807568876083, 0.000000000000000000 ) ) ;
#274 = ORIENTED_EDGE ( 'NONE', *, *, #629, .T. ) ;
#275 = CARTESIAN_POINT ( 'NONE',  ( 0.000000000000000000, 0.000000000000000000, 0.000000000000000000 ) ) ;
#276 = ORIENTED_EDGE ( 'NONE', *, *, #662, .F. ) ;
#277 = EDGE_LOOP ( 'NONE', ( #33, #81, #276 ) ) ;
#278 = EDGE_CURVE ( 'NONE', #612, #612, #144, .T. ) ;
#279 = CARTESIAN_POINT ( 'NONE',  ( 2.000000000000000000, 0.3931374000439457062, -0.01723613881363311728 ) ) ;
#280 = CARTESIAN_POINT ( 'NONE',  ( -3.999999999999994671, -3.035766082959412415E-15, -1.600000000000000089 ) ) ;
#281 = EDGE_LOOP ( 'NONE', ( #340, #589, #534, #657, #167, #495 ) ) ;
#282 = PRODUCT_DEFINITION ( 'UNKNOWN', '', #350, #557 ) ;
#283 = DIRECTION ( 'NONE',  ( 0.8660254037844379305, -0.5000000000000013323, 0.000000000000000000 ) ) ;
#284 = EDGE_LOOP ( 'NONE', ( #117, #443, #64, #62, #157, #174 ) ) ;
#285 = ORIENTED_EDGE ( 'NONE', *, *, #525, .T. ) ;
#286 = DIRECTION ( 'NONE',  ( 0.000000000000000000, 0.000000000000000000, -1.000000000000000000 ) ) ;
#287 = DIRECTION ( 'NONE',  ( 0.000000000000000000, 0.000000000000000000, 1.000000000000000000 ) ) ;
#288 = ADVANCED_FACE ( 'NONE', ( #156 ), #159, .T. ) ;
#289 = ORIENTED_EDGE ( 'NONE', *, *, #559, .F. ) ;
#290 = EDGE_CURVE ( 'NONE', #600, #670, #674, .T. ) ;
#291 = AXIS2_PLACEMENT_3D ( 'NONE', #423, #370, #390 ) ;
#292 = CARTESIAN_POINT ( 'NONE',  ( -3.999999999999994671, -3.035766082959412415E-15, 0.000000000000000000 ) ) ;
#293 = ORIENTED_EDGE ( 'NONE', *, *, #101, .T. ) ;
#294 = CONICAL_SURFACE ( 'NONE', #654, 2.000000000000000000, 1.047197551196596965 ) ;
#295 = AXIS2_PLACEMENT_3D ( 'NONE', #357, #402, #36 ) ;
#296 = CARTESIAN_POINT ( 'NONE',  ( 1.340742937416027125, -1.535322780927275366, -1.698886362379690770E-15 ) ) ;
#297 = PLANE ( 'NONE',  #515 ) ;
#298 = ORIENTED_EDGE ( 'NONE', *, *, #133, .F. ) ;
#299 = CARTESIAN_POINT ( 'NONE',  ( 0.000000000000000000, 0.000000000000000000, 0.000000000000000000 ) ) ;
#300 = EDGE_CURVE ( 'NONE', #398, #239, #599, .T. ) ;
#301 = CARTESIAN_POINT ( 'NONE',  ( 0.000000000000000000, 0.000000000000000000, -1.574599999999998889 ) ) ;
#302 = PRESENTATION_LAYER_ASSIGNMENT (  '', '', ( #527 ) ) ;
#303 = CARTESIAN_POINT ( 'NONE',  ( -2.000000000000000000, 1.154700538379249464, -1.400000000000000577 ) ) ;
#304 = CARTESIAN_POINT ( 'NONE',  ( -2.000000000000000000, 1.154700538379249464, -0.1786327949540832127 ) ) ;
#305 = ADVANCED_FACE ( 'NONE', ( #660 ), #104, .T. ) ;
#306 = CARTESIAN_POINT ( 'NONE',  ( 0.000000000000000000, 0.000000000000000000, -1.434558492358059212 ) ) ;
#307 = LINE ( 'NONE', #577, #116 ) ;
#308 = AXIS2_PLACEMENT_3D ( 'NONE', #539, #420, #326 ) ;
#309 = CARTESIAN_POINT ( 'NONE',  ( 0.000000000000000000, 0.000000000000000000, -1.400000000000001243 ) ) ;
#310 = DIRECTION ( 'NONE',  ( -0.8660254037844378194, -0.5000000000000013323, 0.000000000000000000 ) ) ;
#311 = ADVANCED_FACE ( 'NONE', ( #442 ), #297, .F. ) ;
#312 = CARTESIAN_POINT ( 'NONE',  ( -1.000000000000003109, 1.732050807568876305, -1.400000000000001243 ) ) ;
#313 = FACE_OUTER_BOUND ( 'NONE', #126, .T. ) ;
#314 = ORIENTED_EDGE ( 'NONE', *, *, #399, .F. ) ;
#315 = CARTESIAN_POINT ( 'NONE',  ( -1.000000000000002887, 1.732050807568875861, 0.000000000000000000 ) ) ;
#316 = PRODUCT_CONTEXT ( 'NONE', #243, 'mechanical' ) ;
#317 = UNCERTAINTY_MEASURE_WITH_UNIT (LENGTH_MEASURE( 1.000000000000000082E-05 ), #345, 'distance_accuracy_value', 'NONE');
#318 = CARTESIAN_POINT ( 'NONE',  ( 2.000000000000000000, -0.7745510564695443634, -0.07894766929796877275 ) ) ;
#319 = ORIENTED_EDGE ( 'NONE', *, *, #594, .F. ) ;
#320 = VECTOR ( 'NONE', #196, 1000.000000000000114 ) ;
#321 = CARTESIAN_POINT ( 'NONE',  ( 2.000000000000000444, -1.154700538379254571, -0.1786327949540832127 ) ) ;
#322 = ORIENTED_EDGE ( 'NONE', *, *, #653, .T. ) ;
#323 = AXIS2_PLACEMENT_3D ( 'NONE', #358, #569, #631 ) ;
#324 = FACE_OUTER_BOUND ( 'NONE', #558, .T. ) ;
#325 = ORIENTED_EDGE ( 'NONE', *, *, #458, .F. ) ;
#326 = DIRECTION ( 'NONE',  ( 1.000000000000000000, 0.000000000000000000, 0.000000000000000000 ) ) ;
#327 = CARTESIAN_POINT ( 'NONE',  ( -2.000000000000000000, -1.154700538379255459, -0.1786327949540832127 ) ) ;
#328 = EDGE_CURVE ( 'NONE', #600, #21, #220, .T. ) ;
#329 = ORIENTED_EDGE ( 'NONE', *, *, #347, .F. ) ;
#330 = DIRECTION ( 'NONE',  ( 1.000000000000000000, 0.000000000000000000, 0.000000000000000000 ) ) ;
#331 = CARTESIAN_POINT ( 'NONE',  ( -2.000000000000000000, -1.154700538379255459, -1.400000000000000577 ) ) ;
#332 = DIRECTION ( 'NONE',  ( 1.000000000000000000, 0.000000000000000000, 0.000000000000000000 ) ) ;
#333 = PRODUCT_RELATED_PRODUCT_CATEGORY ( 'part', '', ( #215 ) ) ;
#334 = EDGE_LOOP ( 'NONE', ( #389, #384, #23, #613, #219, #481 ) ) ;
#335 = DIRECTION ( 'NONE',  ( 0.000000000000000000, 0.000000000000000000, 1.000000000000000000 ) ) ;
#336 = LINE ( 'NONE', #74, #508 ) ;
#337 = AXIS2_PLACEMENT_3D ( 'NONE', #275, #564, #12 ) ;
#338 = ADVANCED_BREP_SHAPE_REPRESENTATION ( 'ISO - 4032 - M2 - W - N_ISO - 4032 - M2 - W - N', ( #624, #597 ), #58 ) ;
#339 = CARTESIAN_POINT ( 'NONE',  ( 1.000000000000000000, 0.000000000000000000, 0.000000000000000000 ) ) ;
#340 = ORIENTED_EDGE ( 'NONE', *, *, #61, .T. ) ;
#341 = CIRCLE ( 'NONE', #83, 1.999999999999999112 ) ;
#342 = CARTESIAN_POINT ( 'NONE',  ( 2.000000000000000000, 0.1952413320394015273, 0.000000000000000000 ) ) ;
#343 = EDGE_CURVE ( 'NONE', #445, #659, #260, .T. ) ;
#344 = DIRECTION ( 'NONE',  ( 1.000000000000000000, 0.000000000000000000, 0.000000000000000000 ) ) ;
#345 =( LENGTH_UNIT ( ) NAMED_UNIT ( * ) SI_UNIT ( .MILLI., .METRE. ) );
#346 = ORIENTED_EDGE ( 'NONE', *, *, #73, .T. ) ;
#347 = EDGE_CURVE ( 'NONE', #670, #15, #408, .T. ) ;
#348 = AXIS2_PLACEMENT_3D ( 'NONE', #299, #411, #102 ) ;
#349 = VERTEX_POINT ( 'NONE', #485 ) ;
#350 = PRODUCT_DEFINITION_FORMATION_WITH_SPECIFIED_SOURCE ( 'ANY', '', #215, .NOT_KNOWN. ) ;
#351 = FACE_OUTER_BOUND ( 'NONE', #27, .T. ) ;
#352 = CARTESIAN_POINT ( 'NONE',  ( -2.000000000000000000, -0.9668978507697961744, -0.1244188288311465079 ) ) ;
#353 = EDGE_LOOP ( 'NONE', ( #128, #396, #233 ) ) ;
#354 = B_SPLINE_CURVE_WITH_KNOTS ( 'NONE', 3,
 ( #679, #405, #371, #273 ),
 .UNSPECIFIED., .F., .F.,
 ( 4, 4 ),
 ( 2.380749485197559759E-07, 0.001168606431211108255 ),
 .UNSPECIFIED. ) ;
#355 = CARTESIAN_POINT ( 'NONE',  ( 2.000000000000000000, 1.154700538379249908, -1.400000000000000577 ) ) ;
#356 = FACE_OUTER_BOUND ( 'NONE', #428, .T. ) ;
#357 = CARTESIAN_POINT ( 'NONE',  ( 0.000000000000000000, 0.000000000000000000, -25.03750572909317285 ) ) ;
#358 = CARTESIAN_POINT ( 'NONE',  ( 0.000000000000000000, 0.000000000000000000, -1.400000000000001243 ) ) ;
#359 = ADVANCED_FACE ( 'NONE', ( #404, #125 ), #490, .F. ) ;
#360 = CARTESIAN_POINT ( 'NONE',  ( -2.000000000000000000, 1.154700538379249464, -0.1786327949540832127 ) ) ;
#361 = CARTESIAN_POINT ( 'NONE',  ( -1.000000000000005329, -1.732050807568880524, -1.400000000000001243 ) ) ;
#362 = LINE ( 'NONE', #303, #618 ) ;
#363 = FACE_OUTER_BOUND ( 'NONE', #447, .T. ) ;
#364 = DIRECTION ( 'NONE',  ( -0.000000000000000000, -0.000000000000000000, 1.000000000000000000 ) ) ;
#365 = CONICAL_SURFACE ( 'NONE', #35, 2.000000000000000000, 1.047197551196596965 ) ;
#366 = DIRECTION ( 'NONE',  ( -1.000000000000000000, 0.000000000000000000, -0.000000000000000000 ) ) ;
#367 = AXIS2_PLACEMENT_3D ( 'NONE', #692, #464, #206 ) ;
#368 = CARTESIAN_POINT ( 'NONE',  ( 1.339247740005896192, 1.536186033554500785, -0.01710519872702136526 ) ) ;
#369 = CARTESIAN_POINT ( 'NONE',  ( 1.000000000000001998, 1.732050807568876083, 0.000000000000000000 ) ) ;
#370 = DIRECTION ( 'NONE',  ( -0.000000000000000000, -0.000000000000000000, -1.000000000000000000 ) ) ;
#371 = CARTESIAN_POINT ( 'NONE',  ( -0.6592570625839831999, -1.928778834210484794, -1.711496590994766348E-15 ) ) ;
#372 = EDGE_LOOP ( 'NONE', ( #314, #506, #374 ) ) ;
#373 = FACE_OUTER_BOUND ( 'NONE', #441, .T. ) ;
#374 = ORIENTED_EDGE ( 'NONE', *, *, #181, .F. ) ;
#375 = VERTEX_POINT ( 'NONE', #172 ) ;
#376 = AXIS2_PLACEMENT_3D ( 'NONE', #44, #195, #622 ) ;
#377 = FACE_OUTER_BOUND ( 'NONE', #602, .T. ) ;
#378 = EDGE_LOOP ( 'NONE', ( #502 ) ) ;
#379 = ADVANCED_FACE ( 'NONE', ( #356 ), #365, .T. ) ;
#380 = FACE_OUTER_BOUND ( 'NONE', #284, .T. ) ;
#381 = ORIENTED_EDGE ( 'NONE', *, *, #85, .T. ) ;
#382 = CARTESIAN_POINT ( 'NONE',  ( -2.000000000000000000, 0.000000000000000000, 0.000000000000000000 ) ) ;
#383 = EDGE_LOOP ( 'NONE', ( #538 ) ) ;
#384 = ORIENTED_EDGE ( 'NONE', *, *, #343, .T. ) ;
#385 = DIRECTION ( 'NONE',  ( -1.000000000000000000, 0.000000000000000000, 0.000000000000000000 ) ) ;
#386 = ORIENTED_EDGE ( 'NONE', *, *, #278, .F. ) ;
#387 = EDGE_CURVE ( 'NONE', #659, #180, #417, .T. ) ;
#388 = DIRECTION ( 'NONE',  ( 0.000000000000000000, 0.000000000000000000, 1.000000000000000000 ) ) ;
#389 = ORIENTED_EDGE ( 'NONE', *, *, #594, .T. ) ;
#390 = DIRECTION ( 'NONE',  ( 1.000000000000000000, 0.000000000000000000, 0.000000000000000000 ) ) ;
#391 = CARTESIAN_POINT ( 'NONE',  ( -2.000000000000000000, 1.154700538379249464, -1.400000000000000577 ) ) ;
#392 = VERTEX_POINT ( 'NONE', #548 ) ;
#393 = ORIENTED_EDGE ( 'NONE', *, *, #300, .F. ) ;
#394 = COLOUR_RGB ( '',0.7921568627450980005, 0.8196078431372548767, 0.9333333333333333481 ) ;
#395 = LINE ( 'NONE', #72, #648 ) ;
#396 = ORIENTED_EDGE ( 'NONE', *, *, #505, .F. ) ;
#397 = CARTESIAN_POINT ( 'NONE',  ( 0.000000000000000000, 0.000000000000000000, 0.000000000000000000 ) ) ;
#398 = VERTEX_POINT ( 'NONE', #567 ) ;
#399 = EDGE_CURVE ( 'NONE', #449, #453, #395, .T. ) ;
#400 = VECTOR ( 'NONE', #269, 1000.000000000000000 ) ;
#401 = ORIENTED_EDGE ( 'NONE', *, *, #24, .F. ) ;
#402 = DIRECTION ( 'NONE',  ( -0.000000000000000000, -0.000000000000000000, 1.000000000000000000 ) ) ;
#403 = EDGE_CURVE ( 'NONE', #659, #242, #166, .T. ) ;
#404 = FACE_OUTER_BOUND ( 'NONE', #214, .T. ) ;
#405 = CARTESIAN_POINT ( 'NONE',  ( -0.3271719972790627651, -2.120508236058135765, -0.06957546252590532387 ) ) ;
#406 = FACE_OUTER_BOUND ( 'NONE', #544, .T. ) ;
#407 = EDGE_CURVE ( 'NONE', #242, #375, #630, .T. ) ;
#408 = B_SPLINE_CURVE_WITH_KNOTS ( 'NONE', 3,
 ( #551, #17, #223, #603, #228, #122 ),
 .UNSPECIFIED., .F., .F.,
 ( 4, 2, 4 ),
 ( 0.001168606431211095895, 0.001750609284260044732, 0.002332612137308993569 ),
 .UNSPECIFIED. ) ;
#409 = CARTESIAN_POINT ( 'NONE',  ( 2.000000000000000000, 1.154700538379249908, -1.400000000000000577 ) ) ;
#410 = CIRCLE ( 'NONE', #685, 2.000000000000000000 ) ;
#411 = DIRECTION ( 'NONE',  ( -0.000000000000000000, -0.000000000000000000, -1.000000000000000000 ) ) ;
#412 = CARTESIAN_POINT ( 'NONE',  ( 0.000000000000000000, 0.000000000000000000, 0.000000000000000000 ) ) ;
#413 = AXIS2_PLACEMENT_3D ( 'NONE', #280, #18, #604 ) ;
#414 = AXIS2_PLACEMENT_3D ( 'NONE', #188, #252, #572 ) ;
#415 = CARTESIAN_POINT ( 'NONE',  ( -2.000000000000000000, -1.154700538379255459, -1.600000000000000089 ) ) ;
#416 = DIRECTION ( 'NONE',  ( 0.000000000000000000, 0.000000000000000000, 1.000000000000000000 ) ) ;
#417 = B_SPLINE_CURVE_WITH_KNOTS ( 'NONE', 3,
 ( #26, #22, #232, #546, #510, #446 ),
 .UNSPECIFIED., .F., .F.,
 ( 4, 2, 4 ),
 ( 0.003228283429323687038, 0.003812703409393313706, 0.004397123389462940374 ),
 .UNSPECIFIED. ) ;
#418 = DIRECTION ( 'NONE',  ( -1.000000000000000000, 0.000000000000000000, 0.000000000000000000 ) ) ;
#419 = CARTESIAN_POINT ( 'NONE',  ( -2.000000000000000000, -1.154700538379255459, -1.600000000000000089 ) ) ;
#420 = DIRECTION ( 'NONE',  ( 0.000000000000000000, 0.000000000000000000, 1.000000000000000000 ) ) ;
#421 = DIRECTION ( 'NONE',  ( 1.000000000000000000, 0.000000000000000000, 0.000000000000000000 ) ) ;
#422 = DIRECTION ( 'NONE',  ( -0.8660254037844380415, 0.5000000000000009992, 0.000000000000000000 ) ) ;
#423 = CARTESIAN_POINT ( 'NONE',  ( 0.000000000000000000, 0.000000000000000000, 0.000000000000000000 ) ) ;
#424 = AXIS2_PLACEMENT_3D ( 'NONE', #292, #20, #76 ) ;
#425 = CIRCLE ( 'NONE', #470, 0.8000000000000000444 ) ;
#426 = ORIENTED_EDGE ( 'NONE', *, *, #209, .T. ) ;
#427 = DIRECTION ( 'NONE',  ( -1.000000000000000000, 0.000000000000000000, -0.000000000000000000 ) ) ;
#428 = EDGE_LOOP ( 'NONE', ( #492, #496, #329 ) ) ;
#429 = CARTESIAN_POINT ( 'NONE',  ( 2.000000000000000000, -0.1951254011572751967, -3.811648262644349985E-18 ) ) ;
#430 = EDGE_LOOP ( 'NONE', ( #293 ) ) ;
#431 = EDGE_CURVE ( 'NONE', #670, #10, #246, .T. ) ;
#432 = CARTESIAN_POINT ( 'NONE',  ( 0.000000000000000000, 0.000000000000000000, 0.000000000000000000 ) ) ;
#433 = CARTESIAN_POINT ( 'NONE',  ( -1.836821824868181796, -1.248911501717482997, -0.1242400699092124083 ) ) ;
#434 = DIRECTION ( 'NONE',  ( 0.000000000000000000, 0.000000000000000000, -1.000000000000000000 ) ) ;
#435 = ORIENTED_EDGE ( 'NONE', *, *, #671, .T. ) ;
#436 = AXIS2_PLACEMENT_3D ( 'NONE', #610, #78, #129 ) ;
#437 = CARTESIAN_POINT ( 'NONE',  ( -2.000000000000000000, -1.154700538379255459, -0.1786327949540832127 ) ) ;
#438 = LINE ( 'NONE', #173, #518 ) ;
#439 = VECTOR ( 'NONE', #422, 1000.000000000000114 ) ;
#440 = CARTESIAN_POINT ( 'NONE',  ( 2.000000000000000444, -1.154700538379254571, -0.1786327949540832127 ) ) ;
#441 = EDGE_LOOP ( 'NONE', ( #598, #381, #401 ) ) ;
#442 = FACE_OUTER_BOUND ( 'NONE', #493, .T. ) ;
#443 = ORIENTED_EDGE ( 'NONE', *, *, #497, .T. ) ;
#444 =( NAMED_UNIT ( * ) SI_UNIT ( $, .STERADIAN. ) SOLID_ANGLE_UNIT ( ) );
#445 = VERTEX_POINT ( 'NONE', #516 ) ;
#446 = CARTESIAN_POINT ( 'NONE',  ( -2.000000000000000000, 1.154700538379249464, -0.1786327949540832127 ) ) ;
#447 = EDGE_LOOP ( 'NONE', ( #66, #109, #60 ) ) ;
#448 = B_SPLINE_CURVE_WITH_KNOTS ( 'NONE', 3,
 ( #304, #672, #90, #87 ),
 .UNSPECIFIED., .F., .F.,
 ( 4, 4 ),
 ( 2.380749485066683110E-07, 0.001168606431211098497 ),
 .UNSPECIFIED. ) ;
#449 = VERTEX_POINT ( 'NONE', #361 ) ;
#450 = CARTESIAN_POINT ( 'NONE',  ( -0.3277177810063134911, 2.120193127676282430, -0.07933779981236117884 ) ) ;
#451 = AXIS2_PLACEMENT_3D ( 'NONE', #271, #203, #416 ) ;
#452 = EDGE_CURVE ( 'NONE', #242, #192, #69, .T. ) ;
#453 = VERTEX_POINT ( 'NONE', #37 ) ;
#454 = EDGE_LOOP ( 'NONE', ( #325 ) ) ;
#455 = EDGE_CURVE ( 'NONE', #453, #15, #249, .T. ) ;
#456 = VERTEX_POINT ( 'NONE', #80 ) ;
#457 = ORIENTED_EDGE ( 'NONE', *, *, #536, .F. ) ;
#458 = EDGE_CURVE ( 'NONE', #663, #663, #410, .T. ) ;
#459 = CONICAL_SURFACE ( 'NONE', #561, 1.000000000000000222, 0.9599310885968886931 ) ;
#460 = CARTESIAN_POINT ( 'NONE',  ( 0.000000000000000000, 0.000000000000000000, 0.000000000000000000 ) ) ;
#461 = ORIENTED_EDGE ( 'NONE', *, *, #328, .T. ) ;
#462 = LINE ( 'NONE', #97, #582 ) ;
#463 = EDGE_CURVE ( 'NONE', #239, #13, #307, .T. ) ;
#464 = DIRECTION ( 'NONE',  ( -0.000000000000000000, -0.000000000000000000, 1.000000000000000000 ) ) ;
#465 = FACE_OUTER_BOUND ( 'NONE', #560, .T. ) ;
#466 = CARTESIAN_POINT ( 'NONE',  ( 2.000000000000000000, 1.154700538379255459, -0.1786327949540832127 ) ) ;
#467 = AXIS2_PLACEMENT_3D ( 'NONE', #555, #656, #330 ) ;
#468 = CARTESIAN_POINT ( 'NONE',  ( 1.000000000000001998, 1.732050807568876083, 0.000000000000000000 ) ) ;
#469 = DIRECTION ( 'NONE',  ( 0.5000000000000014433, -0.8660254037844379305, 0.000000000000000000 ) ) ;
#470 = AXIS2_PLACEMENT_3D ( 'NONE', #130, #119, #344 ) ;
#471 = CARTESIAN_POINT ( 'NONE',  ( -4.681546503268637031E-16, 2.309401076758504701, -1.600000000000000089 ) ) ;
#472 = VECTOR ( 'NONE', #509, 1000.000000000000000 ) ;
#473 = PLANE ( 'NONE',  #225 ) ;
#474 = DIRECTION ( 'NONE',  ( 0.000000000000000000, 0.000000000000000000, -1.000000000000000000 ) ) ;
#475 = B_SPLINE_CURVE_WITH_KNOTS ( 'NONE', 3,
 ( #440, #120, #318, #216, #429, #162 ),
 .UNSPECIFIED., .F., .F.,
 ( 4, 2, 4 ),
 ( 0.002060137505873421791, 0.002644210467598553764, 0.003228283429323686171 ),
 .UNSPECIFIED. ) ;
#476 = CARTESIAN_POINT ( 'NONE',  ( 1.000000000000001998, 1.732050807568876305, -1.400000000000001243 ) ) ;
#477 = ORIENTED_EDGE ( 'NONE', *, *, #399, .T. ) ;
#478 = DIRECTION ( 'NONE',  ( -1.000000000000000000, 0.000000000000000000, -0.000000000000000000 ) ) ;
#479 = AXIS2_PLACEMENT_3D ( 'NONE', #471, #690, #310 ) ;
#480 = ADVANCED_FACE ( 'NONE', ( #524 ), #105, .T. ) ;
#481 = ORIENTED_EDGE ( 'NONE', *, *, #158, .T. ) ;
#482 = PLANE ( 'NONE',  #451 ) ;
#483 = CARTESIAN_POINT ( 'NONE',  ( -1.169735307079676323, -1.634054082335447244, -1.736205783634501726E-15 ) ) ;
#484 = CARTESIAN_POINT ( 'NONE',  ( -8.673617379884035472E-16, 2.309401076758505145, -0.1786327949540832127 ) ) ;
#485 = CARTESIAN_POINT ( 'NONE',  ( 1.000000000000005329, -1.732050807568879858, -1.400000000000001243 ) ) ;
#486 = ORIENTED_EDGE ( 'NONE', *, *, #463, .T. ) ;
#487 = DIRECTION ( 'NONE',  ( -0.000000000000000000, -0.000000000000000000, 1.000000000000000000 ) ) ;
#488 = ORIENTED_EDGE ( 'NONE', *, *, #189, .F. ) ;
#489 = APPLICATION_CONTEXT ( 'automotive_design' ) ;
#490 = CONICAL_SURFACE ( 'NONE', #467, 0.7800000000000001377, 0.9599310885968781459 ) ;
#491 = CARTESIAN_POINT ( 'NONE',  ( -2.000000000000000000, -0.1951254011572750580, 1.482307657695024977E-17 ) ) ;
#492 = ORIENTED_EDGE ( 'NONE', *, *, #431, .T. ) ;
#493 = EDGE_LOOP ( 'NONE', ( #645, #617, #235, #298, #124, #562 ) ) ;
#494 = CARTESIAN_POINT ( 'NONE',  ( 0.000000000000000000, 0.000000000000000000, 0.000000000000000000 ) ) ;
#495 = ORIENTED_EDGE ( 'NONE', *, *, #177, .T. ) ;
#496 = ORIENTED_EDGE ( 'NONE', *, *, #629, .F. ) ;
#497 = EDGE_CURVE ( 'NONE', #600, #192, #82, .T. ) ;
#498 = CARTESIAN_POINT ( 'NONE',  ( -1.000000000000002887, 1.732050807568875861, 0.000000000000000000 ) ) ;
#499 = ADVANCED_FACE ( 'NONE', ( #681 ), #259, .T. ) ;
#500 = VECTOR ( 'NONE', #136, 1000.000000000000000 ) ;
#501 = VERTEX_POINT ( 'NONE', #230 ) ;
#502 = ORIENTED_EDGE ( 'NONE', *, *, #458, .T. ) ;
#503 = VECTOR ( 'NONE', #213, 999.9999999999998863 ) ;
#504 = CARTESIAN_POINT ( 'NONE',  ( 0.000000000000000000, 0.000000000000000000, -1.400000000000001243 ) ) ;
#505 = EDGE_CURVE ( 'NONE', #13, #171, #362, .T. ) ;
#506 = ORIENTED_EDGE ( 'NONE', *, *, #536, .T. ) ;
#507 = AXIS2_PLACEMENT_3D ( 'NONE', #9, #434, #155 ) ;
#508 = VECTOR ( 'NONE', #287, 1000.000000000000000 ) ;
#509 = DIRECTION ( 'NONE',  ( 0.000000000000000000, -1.000000000000000000, 0.000000000000000000 ) ) ;
#510 = CARTESIAN_POINT ( 'NONE',  ( -2.000000000000000000, 0.9679918988505284982, -0.1247346533081135217 ) ) ;
#511 = ORIENTED_EDGE ( 'NONE', *, *, #387, .F. ) ;
#512 = PRESENTATION_STYLE_ASSIGNMENT (( #96 ) ) ;
#513 = ADVANCED_FACE ( 'NONE', ( #406 ), #99, .T. ) ;
#514 = PLANE ( 'NONE',  #258 ) ;
#515 = AXIS2_PLACEMENT_3D ( 'NONE', #137, #190, #335 ) ;
#516 = CARTESIAN_POINT ( 'NONE',  ( -2.000000000000000000, -1.154700538379255459, -0.1786327949540832127 ) ) ;
#517 = DIRECTION ( 'NONE',  ( 0.000000000000000000, 0.000000000000000000, -1.000000000000000000 ) ) ;
#518 = VECTOR ( 'NONE', #556, 1000.000000000000000 ) ;
#519 = CARTESIAN_POINT ( 'NONE',  ( 1.836821824868180020, 1.248911501717478334, -0.1242400699092097577 ) ) ;
#520 =( LENGTH_UNIT ( ) NAMED_UNIT ( * ) SI_UNIT ( .MILLI., .METRE. ) );
#521 = LINE ( 'NONE', #43, #503 ) ;
#522 = CARTESIAN_POINT ( 'NONE',  ( 1.169735307079673436, 1.634054082335443248, 1.471296229380719295E-15 ) ) ;
#523 = AXIS2_PLACEMENT_3D ( 'NONE', #309, #646, #113 ) ;
#524 = FACE_OUTER_BOUND ( 'NONE', #170, .T. ) ;
#525 = EDGE_CURVE ( 'NONE', #501, #501, #75, .T. ) ;
#526 = CARTESIAN_POINT ( 'NONE',  ( 0.000000000000000000, 12.30940107675850648, -1.400000000000000577 ) ) ;
#527 = STYLED_ITEM ( 'NONE', ( #512 ), #624 ) ;
#528 = AXIS2_PLACEMENT_3D ( 'NONE', #584, #107, #266 ) ;
#529 = DIRECTION ( 'NONE',  ( 1.000000000000000000, 0.000000000000000000, 0.000000000000000000 ) ) ;
#530 = CARTESIAN_POINT ( 'NONE',  ( -2.000000000000000000, 0.000000000000000000, 0.000000000000000000 ) ) ;
#531 = FACE_OUTER_BOUND ( 'NONE', #383, .T. ) ;
#532 = CARTESIAN_POINT ( 'NONE',  ( 0.000000000000000000, 0.000000000000000000, -1.400000000000001243 ) ) ;
#533 = DIRECTION ( 'NONE',  ( 1.000000000000000000, 0.000000000000000000, 0.000000000000000000 ) ) ;
#534 = ORIENTED_EDGE ( 'NONE', *, *, #559, .T. ) ;
#535 = LINE ( 'NONE', #103, #14 ) ;
#536 = EDGE_CURVE ( 'NONE', #449, #349, #5, .T. ) ;
#537 = AXIS2_PLACEMENT_3D ( 'NONE', #432, #583, #3 ) ;
#538 = ORIENTED_EDGE ( 'NONE', *, *, #525, .F. ) ;
#539 = CARTESIAN_POINT ( 'NONE',  ( 0.000000000000000000, 0.000000000000000000, -1.600000000000000089 ) ) ;
#540 = ORIENTED_EDGE ( 'NONE', *, *, #300, .T. ) ;
#541 = ORIENTED_EDGE ( 'NONE', *, *, #455, .F. ) ;
#542 = CYLINDRICAL_SURFACE ( 'NONE', #308, 0.8000000000000000444 ) ;
#543 = DIRECTION ( 'NONE',  ( 0.8660254037844379305, -0.5000000000000013323, 0.000000000000000000 ) ) ;
#544 = EDGE_LOOP ( 'NONE', ( #4, #274, #268, #319, #661, #477 ) ) ;
#545 = B_SPLINE_CURVE_WITH_KNOTS ( 'NONE', 3,
 ( #484, #207, #267, #369 ),
 .UNSPECIFIED., .F., .F.,
 ( 4, 4 ),
 ( 2.380749485061030754E-07, 0.001168606431211104135 ),
 .UNSPECIFIED. ) ;
#546 = CARTESIAN_POINT ( 'NONE',  ( -2.000000000000000000, 0.7788341705667892745, -0.07984828284772967077 ) ) ;
#547 = FACE_BOUND ( 'NONE', #1, .T. ) ;
#548 = CARTESIAN_POINT ( 'NONE',  ( 1.000000000000000222, 0.000000000000000000, -1.600000000000000755 ) ) ;
#549 = ORIENTED_EDGE ( 'NONE', *, *, #241, .F. ) ;
#550 = AXIS2_PLACEMENT_3D ( 'NONE', #494, #32, #175 ) ;
#551 = CARTESIAN_POINT ( 'NONE',  ( 1.000000000000002887, -1.732050807568875639, 0.000000000000000000 ) ) ;
#552 = CARTESIAN_POINT ( 'NONE',  ( -1.000000000000002665, -1.732050807568876083, 0.000000000000000000 ) ) ;
#553 =( GEOMETRIC_REPRESENTATION_CONTEXT ( 3 ) GLOBAL_UNCERTAINTY_ASSIGNED_CONTEXT ( ( #675 ) ) GLOBAL_UNIT_ASSIGNED_CONTEXT ( ( #520, #42, #574 ) ) REPRESENTATION_CONTEXT ( 'NONE', 'WORKASPACE' ) );
#554 = VERTEX_POINT ( 'NONE', #95 ) ;
#555 = CARTESIAN_POINT ( 'NONE',  ( 0.000000000000000000, 0.000000000000000000, -0.1540456584061371259 ) ) ;
#556 = DIRECTION ( 'NONE',  ( 0.000000000000000000, 0.000000000000000000, 1.000000000000000000 ) ) ;
#557 = PRODUCT_DEFINITION_CONTEXT ( 'detailed design', #489, 'design' ) ;
#558 = EDGE_LOOP ( 'NONE', ( #346, #393, #186 ) ) ;
#559 = EDGE_CURVE ( 'NONE', #192, #21, #2, .T. ) ;
#560 = EDGE_LOOP ( 'NONE', ( #322 ) ) ;
#561 = AXIS2_PLACEMENT_3D ( 'NONE', #301, #517, #566 ) ;
#562 = ORIENTED_EDGE ( 'NONE', *, *, #328, .F. ) ;
#563 = CIRCLE ( 'NONE', #48, 2.000000000000000000 ) ;
#564 = DIRECTION ( 'NONE',  ( -0.000000000000000000, -0.000000000000000000, -1.000000000000000000 ) ) ;
#565 = VERTEX_POINT ( 'NONE', #151 ) ;
#566 = DIRECTION ( 'NONE',  ( -1.000000000000000000, 0.000000000000000000, 0.000000000000000000 ) ) ;
#567 = CARTESIAN_POINT ( 'NONE',  ( -4.681546503268637031E-16, 2.309401076758504701, -1.400000000000000577 ) ) ;
#568 = CARTESIAN_POINT ( 'NONE',  ( 1.000000000000002887, -1.732050807568875639, 0.000000000000000000 ) ) ;
#569 = DIRECTION ( 'NONE',  ( -0.000000000000000000, -0.000000000000000000, 1.000000000000000000 ) ) ;
#570 = MECHANICAL_DESIGN_GEOMETRIC_PRESENTATION_REPRESENTATION (  '', ( #527 ), #553 ) ;
#571 = FILL_AREA_STYLE ('',( #145 ) ) ;
#572 = DIRECTION ( 'NONE',  ( 1.000000000000000000, 0.000000000000000000, 0.000000000000000000 ) ) ;
#573 = DIRECTION ( 'NONE',  ( -0.000000000000000000, -0.000000000000000000, -1.000000000000000000 ) ) ;
#574 =( NAMED_UNIT ( * ) SI_UNIT ( $, .STERADIAN. ) SOLID_ANGLE_UNIT ( ) );
#575 = DIRECTION ( 'NONE',  ( 0.000000000000000000, 0.000000000000000000, -1.000000000000000000 ) ) ;
#576 = ADVANCED_FACE ( 'NONE', ( #687, #153 ), #41, .T. ) ;
#577 = CARTESIAN_POINT ( 'NONE',  ( -4.681546503268637031E-16, 2.309401076758504701, -1.400000000000000577 ) ) ;
#578 = B_SPLINE_CURVE_WITH_KNOTS ( 'NONE', 3,
 ( #552, #483, #8, #123, #433, #327 ),
 .UNSPECIFIED., .F., .F.,
 ( 4, 2, 4 ),
 ( 0.001168606431211108255, 0.001750609284260048418, 0.002332612137308988365 ),
 .UNSPECIFIED. ) ;
#579 = FACE_OUTER_BOUND ( 'NONE', #334, .T. ) ;
#580 = EDGE_CURVE ( 'NONE', #178, #21, #50, .T. ) ;
#581 = DIRECTION ( 'NONE',  ( -0.8660254037844378194, -0.5000000000000013323, 0.000000000000000000 ) ) ;
#582 = VECTOR ( 'NONE', #256, 1000.000000000000000 ) ;
#583 = DIRECTION ( 'NONE',  ( 0.000000000000000000, 0.000000000000000000, -1.000000000000000000 ) ) ;
#584 = CARTESIAN_POINT ( 'NONE',  ( 0.000000000000000000, 0.000000000000000000, 0.000000000000000000 ) ) ;
#585 = DIRECTION ( 'NONE',  ( 1.000000000000000000, 0.000000000000000000, 0.000000000000000000 ) ) ;
#586 = ADVANCED_FACE ( 'NONE', ( #683 ), #294, .T. ) ;
#587 = CARTESIAN_POINT ( 'NONE',  ( 2.000000000000000000, -1.154700538379255015, -1.400000000000000577 ) ) ;
#588 = CARTESIAN_POINT ( 'NONE',  ( 1.000000000000002887, -1.732050807568875639, 0.000000000000000000 ) ) ;
#589 = ORIENTED_EDGE ( 'NONE', *, *, #637, .T. ) ;
#590 = PLANE ( 'NONE',  #615 ) ;
#591 = EDGE_LOOP ( 'NONE', ( #667, #182, #642, #541, #593, #606 ) ) ;
#592 = AXIS2_PLACEMENT_3D ( 'NONE', #55, #261, #52 ) ;
#593 = ORIENTED_EDGE ( 'NONE', *, *, #181, .T. ) ;
#594 = EDGE_CURVE ( 'NONE', #565, #445, #197, .T. ) ;
#595 = CARTESIAN_POINT ( 'NONE',  ( 0.000000000000000000, 12.30940107675850648, -1.400000000000000577 ) ) ;
#596 = LINE ( 'NONE', #331, #131 ) ;
#597 = AXIS2_PLACEMENT_3D ( 'NONE', #397, #388, #185 ) ;
#598 = ORIENTED_EDGE ( 'NONE', *, *, #158, .F. ) ;
#599 = LINE ( 'NONE', #607, #46 ) ;
#600 = VERTEX_POINT ( 'NONE', #149 ) ;
#601 = PLANE ( 'NONE',  #424 ) ;
#602 = EDGE_LOOP ( 'NONE', ( #6 ) ) ;
#603 = CARTESIAN_POINT ( 'NONE',  ( 0.3277177810063111596, -2.120193127676290423, -0.07933779981236513401 ) ) ;
#604 = DIRECTION ( 'NONE',  ( 1.000000000000000000, 0.000000000000000000, -0.000000000000000000 ) ) ;
#605 = CARTESIAN_POINT ( 'NONE',  ( 1.000000000000000222, 0.000000000000000000, -1.574599999999998889 ) ) ;
#606 = ORIENTED_EDGE ( 'NONE', *, *, #241, .T. ) ;
#607 = CARTESIAN_POINT ( 'NONE',  ( -4.681546503268637031E-16, 2.309401076758504701, -1.400000000000000577 ) ) ;
#608 = ORIENTED_EDGE ( 'NONE', *, *, #85, .F. ) ;
#609 = CARTESIAN_POINT ( 'NONE',  ( 2.000000000000000000, 0.000000000000000000, -1.600000000000000089 ) ) ;
#610 = CARTESIAN_POINT ( 'NONE',  ( 0.000000000000000000, 0.000000000000000000, 0.000000000000000000 ) ) ;
#611 = ADVANCED_FACE ( 'NONE', ( #92 ), #199, .T. ) ;
#612 = VERTEX_POINT ( 'NONE', #339 ) ;
#613 = ORIENTED_EDGE ( 'NONE', *, *, #209, .F. ) ;
#614 = ORIENTED_EDGE ( 'NONE', *, *, #278, .T. ) ;
#615 = AXIS2_PLACEMENT_3D ( 'NONE', #7, #164, #110 ) ;
#616 = CARTESIAN_POINT ( 'NONE',  ( 2.000000000000000444, -1.154700538379254571, -0.1786327949540832127 ) ) ;
#617 = ORIENTED_EDGE ( 'NONE', *, *, #34, .F. ) ;
#618 = VECTOR ( 'NONE', #204, 1000.000000000000000 ) ;
#619 = FACE_OUTER_BOUND ( 'NONE', #372, .T. ) ;
#620 = CARTESIAN_POINT ( 'NONE',  ( -0.6607522599941066943, 1.927915581583252713, -0.01710519872702158731 ) ) ;
#621 = SURFACE_STYLE_FILL_AREA ( #571 ) ;
#622 = DIRECTION ( 'NONE',  ( -1.000000000000000000, 0.000000000000000000, -0.000000000000000000 ) ) ;
#623 = DIRECTION ( 'NONE',  ( 0.000000000000000000, 0.000000000000000000, -1.000000000000000000 ) ) ;
#624 = MANIFOLD_SOLID_BREP ( 'EndChamfer', #38 ) ;
#625 = CYLINDRICAL_SURFACE ( 'NONE', #295, 1.000000000000000222 ) ;
#626 = CIRCLE ( 'NONE', #592, 2.000000000000000000 ) ;
#627 = CARTESIAN_POINT ( 'NONE',  ( 0.000000000000000000, 0.000000000000000000, 0.000000000000000000 ) ) ;
#628 = AXIS2_PLACEMENT_3D ( 'NONE', #412, #623, #193 ) ;
#629 = EDGE_CURVE ( 'NONE', #15, #10, #354, .T. ) ;
#630 = B_SPLINE_CURVE_WITH_KNOTS ( 'NONE', 3,
 ( #498, #236, #620, #450, #665, #179 ),
 .UNSPECIFIED., .F., .F.,
 ( 4, 2, 4 ),
 ( 0.001168606431211098497, 0.001750609284260043214, 0.002332612137308987931 ),
 .UNSPECIFIED. ) ;
#631 = DIRECTION ( 'NONE',  ( 1.000000000000000000, 0.000000000000000000, 0.000000000000000000 ) ) ;
#632 = DIRECTION ( 'NONE',  ( 0.000000000000000000, 0.000000000000000000, -1.000000000000000000 ) ) ;
#633 = CARTESIAN_POINT ( 'NONE',  ( 1.672282218993686564, 1.343908487461472401, -0.07933779981236016576 ) ) ;
#634 = SURFACE_SIDE_STYLE ('',( #621 ) ) ;
#635 = CARTESIAN_POINT ( 'NONE',  ( 0.000000000000000000, 0.000000000000000000, 0.000000000000000000 ) ) ;
#636 = AXIS2_PLACEMENT_3D ( 'NONE', #208, #59, #366 ) ;
#637 = EDGE_CURVE ( 'NONE', #375, #192, #545, .T. ) ;
#638 = DIRECTION ( 'NONE',  ( -0.000000000000000000, -0.000000000000000000, 1.000000000000000000 ) ) ;
#639 = PLANE ( 'NONE',  #507 ) ;
#640 = LINE ( 'NONE', #106, #400 ) ;
#641 = AXIS2_PLACEMENT_3D ( 'NONE', #51, #487, #263 ) ;
#642 = ORIENTED_EDGE ( 'NONE', *, *, #347, .T. ) ;
#643 = DIRECTION ( 'NONE',  ( 1.000000000000000000, 0.000000000000000000, 0.000000000000000000 ) ) ;
#644 = CARTESIAN_POINT ( 'NONE',  ( -1.000000000000002665, -1.732050807568876083, 0.000000000000000000 ) ) ;
#645 = ORIENTED_EDGE ( 'NONE', *, *, #680, .F. ) ;
#646 = DIRECTION ( 'NONE',  ( -0.000000000000000000, -0.000000000000000000, 1.000000000000000000 ) ) ;
#647 = ORIENTED_EDGE ( 'NONE', *, *, #16, .T. ) ;
#648 = VECTOR ( 'NONE', #283, 1000.000000000000000 ) ;
#649 = FACE_BOUND ( 'NONE', #650, .T. ) ;
#650 = EDGE_LOOP ( 'NONE', ( #386 ) ) ;
#651 = CARTESIAN_POINT ( 'NONE',  ( 2.000000000000000000, 1.154700538379255459, -0.1786327949540832127 ) ) ;
#652 = EDGE_LOOP ( 'NONE', ( #426, #229, #25, #138, #540, #486 ) ) ;
#653 = EDGE_CURVE ( 'NONE', #29, #29, #227, .T. ) ;
#654 = AXIS2_PLACEMENT_3D ( 'NONE', #262, #474, #253 ) ;
#655 = ORIENTED_EDGE ( 'NONE', *, *, #108, .F. ) ;
#656 = DIRECTION ( 'NONE',  ( -0.000000000000000000, -0.000000000000000000, 1.000000000000000000 ) ) ;
#657 = ORIENTED_EDGE ( 'NONE', *, *, #580, .F. ) ;
#658 = PRODUCT_DEFINITION_SHAPE ( 'NONE', 'NONE',  #282 ) ;
#659 = VERTEX_POINT ( 'NONE', #530 ) ;
#660 = FACE_OUTER_BOUND ( 'NONE', #121, .T. ) ;
#661 = ORIENTED_EDGE ( 'NONE', *, *, #24, .T. ) ;
#662 = EDGE_CURVE ( 'NONE', #178, #222, #56, .T. ) ;
#663 = VERTEX_POINT ( 'NONE', #609 ) ;
#664 = ORIENTED_EDGE ( 'NONE', *, *, #73, .F. ) ;
#665 = CARTESIAN_POINT ( 'NONE',  ( -0.1631781751318198970, 2.215190113420276496, -0.1242400699092114924 ) ) ;
#666 = EDGE_CURVE ( 'NONE', #349, #554, #257, .T. ) ;
#667 = ORIENTED_EDGE ( 'NONE', *, *, #34, .T. ) ;
#668 = CIRCLE ( 'NONE', #414, 1.000000000000000222 ) ;
#669 = DIRECTION ( 'NONE',  ( -0.000000000000000000, -0.000000000000000000, 1.000000000000000000 ) ) ;
#670 = VERTEX_POINT ( 'NONE', #588 ) ;
#671 = EDGE_CURVE ( 'NONE', #10, #659, #341, .T. ) ;
#672 = CARTESIAN_POINT ( 'NONE',  ( -1.672828002720947005, 1.343593379079618844, -0.06957546252590306179 ) ) ;
#673 = ORIENTED_EDGE ( 'NONE', *, *, #343, .F. ) ;
#674 = CIRCLE ( 'NONE', #291, 1.999999999999999112 ) ;
#675 = UNCERTAINTY_MEASURE_WITH_UNIT (LENGTH_MEASURE( 1.000000000000000082E-05 ), #520, 'distance_accuracy_value', 'NONE');
#676 = CARTESIAN_POINT ( 'NONE',  ( -2.000000000000000000, -0.3889866277140363593, -0.01677217554083880804 ) ) ;
#677 = EDGE_LOOP ( 'NONE', ( #647 ) ) ;
#678 = VECTOR ( 'NONE', #201, 1000.000000000000000 ) ;
#679 = CARTESIAN_POINT ( 'NONE',  ( -1.062518129035794345E-14, -2.309401076758504701, -0.1786327949540832127 ) ) ;
#680 = EDGE_CURVE ( 'NONE', #245, #600, #475, .T. ) ;
#681 = FACE_OUTER_BOUND ( 'NONE', #652, .T. ) ;
#682 = CARTESIAN_POINT ( 'NONE',  ( 2.000000000000000000, 1.154700538379249908, -1.400000000000000577 ) ) ;
#683 = FACE_OUTER_BOUND ( 'NONE', #86, .T. ) ;
#684 = ADVANCED_FACE ( 'NONE', ( #324 ), #639, .T. ) ;
#685 = AXIS2_PLACEMENT_3D ( 'NONE', #200, #573, #421 ) ;
#686 = ADVANCED_FACE ( 'NONE', ( #649, #380 ), #601, .T. ) ;
#687 = FACE_OUTER_BOUND ( 'NONE', #454, .T. ) ;
#688 = FACE_OUTER_BOUND ( 'NONE', #353, .T. ) ;
#689 = CONICAL_SURFACE ( 'NONE', #528, 2.000000000000000000, 1.047197551196596965 ) ;
#690 = DIRECTION ( 'NONE',  ( -0.5000000000000014433, 0.8660254037844379305, 0.000000000000000000 ) ) ;
#691 = DIRECTION ( 'NONE',  ( 0.8660254037844379305, 0.5000000000000014433, 0.000000000000000000 ) ) ;
#692 = CARTESIAN_POINT ( 'NONE',  ( 0.000000000000000000, 0.000000000000000000, 0.000000000000000000 ) ) ;
#693 = DIRECTION ( 'NONE',  ( -0.000000000000000000, -0.000000000000000000, 1.000000000000000000 ) ) ;
#694 = PLANE ( 'NONE',  #187 ) ;
#695 = SHAPE_DEFINITION_REPRESENTATION ( #658, #338 ) ;
ENDSEC;
END-ISO-10303-21;
