ISO-10303-21;
HEADER;
FILE_DESCRIPTION (( 'STEP AP214' ),
    '1' );
FILE_NAME ('ISO 4762 M2 x 8 - 8N.STEP',
    '2025-08-05T07:38:48',
    ( '' ),
    ( '' ),
    'SwSTEP 2.0',
    'SolidWorks 2025',
    '' );
FILE_SCHEMA (( 'AUTOMOTIVE_DESIGN' ));
ENDSEC;

DATA;
#1 = VERTEX_POINT ( 'NONE', #57 ) ;
#2 = DIRECTION ( 'NONE',  ( 0.000000000000000000, 0.5000000000000009992, 0.8660254037844380415 ) ) ;
#3 = DIRECTION ( 'NONE',  ( -0.000000000000000000, 1.215464885709676370E-15, 1.000000000000000000 ) ) ;
#4 = EDGE_CURVE ( 'NONE', #98, #215, #224, .T. ) ;
#5 = ADVANCED_FACE ( 'NONE', ( #260 ), #482, .T. ) ;
#6 = ORIENTED_EDGE ( 'NONE', *, *, #505, .T. ) ;
#7 = LINE ( 'NONE', #120, #388 ) ;
#8 = ORIENTED_EDGE ( 'NONE', *, *, #276, .T. ) ;
#9 = ORIENTED_EDGE ( 'NONE', *, *, #491, .T. ) ;
#10 = AXIS2_PLACEMENT_3D ( 'NONE', #357, #432, #179 ) ;
#11 = CARTESIAN_POINT ( 'NONE',  ( 1.000000000000000000, 0.4460030829489873838, 0.7724999999999986322 ) ) ;
#12 = SURFACE_STYLE_FILL_AREA ( #139 ) ;
#13 = EDGE_LOOP ( 'NONE', ( #342, #435, #361, #450, #107 ) ) ;
#14 = CARTESIAN_POINT ( 'NONE',  ( 2.000000000000001776, 0.000000000000000000, 0.000000000000000000 ) ) ;
#15 = PLANE ( 'NONE',  #328 ) ;
#16 = VERTEX_POINT ( 'NONE', #516 ) ;
#17 = FACE_OUTER_BOUND ( 'NONE', #264, .T. ) ;
#18 = DIRECTION ( 'NONE',  ( -1.000000000000000000, -0.000000000000000000, -0.000000000000000000 ) ) ;
#19 = VERTEX_POINT ( 'NONE', #509 ) ;
#20 = LINE ( 'NONE', #183, #285 ) ;
#21 = VECTOR ( 'NONE', #80, 1000.000000000000000 ) ;
#22 = VECTOR ( 'NONE', #33, 1000.000000000000000 ) ;
#23 = ORIENTED_EDGE ( 'NONE', *, *, #359, .F. ) ;
#24 = EDGE_CURVE ( 'NONE', #356, #253, #133, .T. ) ;
#25 = ADVANCED_FACE ( 'NONE', ( #94 ), #143, .F. ) ;
#26 = ADVANCED_FACE ( 'NONE', ( #391 ), #60, .F. ) ;
#27 = ORIENTED_EDGE ( 'NONE', *, *, #246, .F. ) ;
#28 = AXIS2_PLACEMENT_3D ( 'NONE', #463, #348, #108 ) ;
#29 = DIRECTION ( 'NONE',  ( 0.000000000000000000, 0.000000000000000000, 1.000000000000000000 ) ) ;
#30 = EDGE_LOOP ( 'NONE', ( #395, #321, #364, #480, #134 ) ) ;
#31 = CARTESIAN_POINT ( 'NONE',  ( 1.000000000000000000, 0.4460030829489856075, -0.7725000000000006306 ) ) ;
#32 = DIRECTION ( 'NONE',  ( 1.000000000000000000, 0.000000000000000000, 0.000000000000000000 ) ) ;
#33 = DIRECTION ( 'NONE',  ( 0.000000000000000000, -0.4999999999999990008, 0.8660254037844392627 ) ) ;
#34 = AXIS2_PLACEMENT_3D ( 'NONE', #428, #341, #2 ) ;
#35 = CARTESIAN_POINT ( 'NONE',  ( 1.000000000000000888, 0.000000000000000000, 0.000000000000000000 ) ) ;
#36 = PLANE ( 'NONE',  #406 ) ;
#37 = FACE_OUTER_BOUND ( 'NONE', #301, .T. ) ;
#38 = DIRECTION ( 'NONE',  ( 0.000000000000000000, 0.000000000000000000, -1.000000000000000000 ) ) ;
#39 = DIRECTION ( 'NONE',  ( -1.000000000000000000, -0.000000000000000000, -0.000000000000000000 ) ) ;
#40 =( NAMED_UNIT ( * ) PLANE_ANGLE_UNIT ( ) SI_UNIT ( $, .RADIAN. ) );
#41 = CIRCLE ( 'NONE', #28, 0.7740000000000000213 ) ;
#42 = VERTEX_POINT ( 'NONE', #128 ) ;
#43 = ADVANCED_FACE ( 'NONE', ( #513 ), #15, .F. ) ;
#44 = PLANE ( 'NONE',  #106 ) ;
#45 = MANIFOLD_SOLID_BREP ( 'Hex', #338 ) ;
#46 = CARTESIAN_POINT ( 'NONE',  ( 1.000000000000000888, 0.000000000000000000, 0.000000000000000000 ) ) ;
#47 = CARTESIAN_POINT ( 'NONE',  ( 1.000000000000000000, 1.338009248846956378, -0.7725000000000002975 ) ) ;
#48 = VECTOR ( 'NONE', #303, 1000.000000000000000 ) ;
#49 = EDGE_LOOP ( 'NONE', ( #89, #6, #431 ) ) ;
#50 = DIRECTION ( 'NONE',  ( -1.000000000000000000, -0.000000000000000000, -0.000000000000000000 ) ) ;
#51 = DIRECTION ( 'NONE',  ( 1.000000000000000000, 0.000000000000000000, 0.000000000000000000 ) ) ;
#52 = EDGE_CURVE ( 'NONE', #474, #42, #112, .T. ) ;
#53 = VECTOR ( 'NONE', #407, 1000.000000000000000 ) ;
#54 = FACE_OUTER_BOUND ( 'NONE', #261, .T. ) ;
#55 = ORIENTED_EDGE ( 'NONE', *, *, #246, .T. ) ;
#56 = DIRECTION ( 'NONE',  ( -1.000000000000000000, -0.000000000000000000, -0.000000000000000000 ) ) ;
#57 = CARTESIAN_POINT ( 'NONE',  ( 0.000000000000000000, 0.4460030829489856075, -0.7725000000000006306 ) ) ;
#58 = ORIENTED_EDGE ( 'NONE', *, *, #177, .F. ) ;
#59 = DIRECTION ( 'NONE',  ( -1.000000000000000000, -0.000000000000000000, -0.000000000000000000 ) ) ;
#60 = PLANE ( 'NONE',  #239 ) ;
#61 = ADVANCED_FACE ( 'NONE', ( #349, #405 ), #196, .T. ) ;
#62 = DIRECTION ( 'NONE',  ( 0.000000000000000000, 0.5000000000000009992, 0.8660254037844380415 ) ) ;
#63 = ADVANCED_FACE ( 'NONE', ( #235 ), #110, .F. ) ;
#64 = PRODUCT_DEFINITION_FORMATION_WITH_SPECIFIED_SOURCE ( 'Symmetric', '', #350, .NOT_KNOWN. ) ;
#65 = ORIENTED_EDGE ( 'NONE', *, *, #473, .F. ) ;
#66 = FACE_OUTER_BOUND ( 'NONE', #518, .T. ) ;
#67 = MECHANICAL_DESIGN_GEOMETRIC_PRESENTATION_REPRESENTATION (  '', ( #374 ), #420 ) ;
#68 = ORIENTED_EDGE ( 'NONE', *, *, #524, .T. ) ;
#69 = DIRECTION ( 'NONE',  ( 0.000000000000000000, 0.000000000000000000, 1.000000000000000000 ) ) ;
#70 = UNCERTAINTY_MEASURE_WITH_UNIT (LENGTH_MEASURE( 1.000000000000000082E-05 ), #433, 'distance_accuracy_value', 'NONE');
#71 = DIRECTION ( 'NONE',  ( -1.000000000000000000, -0.000000000000000000, -0.000000000000000000 ) ) ;
#72 = ORIENTED_EDGE ( 'NONE', *, *, #455, .F. ) ;
#73 = CIRCLE ( 'NONE', #417, 1.000000000000000444 ) ;
#74 = VERTEX_POINT ( 'NONE', #410 ) ;
#75 = DIRECTION ( 'NONE',  ( 1.000000000000000000, 0.000000000000000000, 0.000000000000000000 ) ) ;
#76 = CARTESIAN_POINT ( 'NONE',  ( 1.000000000000000000, 0.8920061658979722141, -1.517883041479706208E-15 ) ) ;
#77 = DIRECTION ( 'NONE',  ( -1.000000000000000000, -0.000000000000000000, -0.000000000000000000 ) ) ;
#78 = EDGE_CURVE ( 'NONE', #385, #1, #409, .T. ) ;
#79 = VECTOR ( 'NONE', #56, 1000.000000000000000 ) ;
#80 = DIRECTION ( 'NONE',  ( 0.000000000000000000, -0.5000000000000009992, -0.8660254037844380415 ) ) ;
#81 = LINE ( 'NONE', #540, #197 ) ;
#82 = FACE_OUTER_BOUND ( 'NONE', #170, .T. ) ;
#83 = FACE_OUTER_BOUND ( 'NONE', #408, .T. ) ;
#84 = EDGE_CURVE ( 'NONE', #529, #356, #362, .T. ) ;
#85 = EDGE_LOOP ( 'NONE', ( #269, #478, #382, #23, #212 ) ) ;
#86 = CARTESIAN_POINT ( 'NONE',  ( 1.000000000000000000, 1.338009248846956378, -0.7725000000000002975 ) ) ;
#87 = AXIS2_PLACEMENT_3D ( 'NONE', #158, #168, #378 ) ;
#88 = CIRCLE ( 'NONE', #467, 0.7725000000000006306 ) ;
#89 = ORIENTED_EDGE ( 'NONE', *, *, #160, .F. ) ;
#90 = DIRECTION ( 'NONE',  ( 1.000000000000000000, 0.000000000000000000, 0.000000000000000000 ) ) ;
#91 = EDGE_LOOP ( 'NONE', ( #242, #178, #55, #510, #141 ) ) ;
#92 = EDGE_LOOP ( 'NONE', ( #237, #8, #65 ) ) ;
#93 = PLANE ( 'NONE',  #310 ) ;
#94 = FACE_OUTER_BOUND ( 'NONE', #92, .T. ) ;
#95 = ORIENTED_EDGE ( 'NONE', *, *, #296, .T. ) ;
#96 = VECTOR ( 'NONE', #100, 1000.000000000000000 ) ;
#97 = LINE ( 'NONE', #397, #425 ) ;
#98 = VERTEX_POINT ( 'NONE', #157 ) ;
#99 = ORIENTED_EDGE ( 'NONE', *, *, #506, .F. ) ;
#100 = DIRECTION ( 'NONE',  ( 0.000000000000000000, -0.4999999999999990008, 0.8660254037844392627 ) ) ;
#101 = CARTESIAN_POINT ( 'NONE',  ( 1.000000000000000000, -0.4460030829489869397, -0.7725000000000009637 ) ) ;
#102 = VECTOR ( 'NONE', #18, 1000.000000000000000 ) ;
#103 = ADVANCED_FACE ( 'NONE', ( #446, #66 ), #461, .F. ) ;
#104 = ADVANCED_FACE ( 'NONE', ( #190 ), #195, .T. ) ;
#105 = CARTESIAN_POINT ( 'NONE',  ( 2.099999999999997868, 0.000000000000000000, 0.000000000000000000 ) ) ;
#106 = AXIS2_PLACEMENT_3D ( 'NONE', #86, #90, #127 ) ;
#107 = ORIENTED_EDGE ( 'NONE', *, *, #317, .T. ) ;
#108 = DIRECTION ( 'NONE',  ( 0.000000000000000000, 0.000000000000000000, 1.000000000000000000 ) ) ;
#109 = EDGE_LOOP ( 'NONE', ( #445 ) ) ;
#110 = PLANE ( 'NONE',  #185 ) ;
#111 = DIRECTION ( 'NONE',  ( -1.000000000000000000, -0.000000000000000000, -0.000000000000000000 ) ) ;
#112 = LINE ( 'NONE', #527, #329 ) ;
#113 = AXIS2_PLACEMENT_3D ( 'NONE', #335, #165, #421 ) ;
#114 = DIRECTION ( 'NONE',  ( 1.000000000000000000, 0.000000000000000000, 0.000000000000000000 ) ) ;
#115 = CARTESIAN_POINT ( 'NONE',  ( 2.000000000000000000, 0.000000000000000000, -1.100000000000001643 ) ) ;
#116 = EDGE_CURVE ( 'NONE', #249, #249, #159, .T. ) ;
#117 = ADVANCED_FACE ( 'NONE', ( #259 ), #44, .F. ) ;
#118 = APPLICATION_PROTOCOL_DEFINITION ( 'draft international standard', 'automotive_design', 1998, #218 ) ;
#119 = CARTESIAN_POINT ( 'NONE',  ( 9.774000000000004462, 0.000000000000000000, 1.000000000000000444 ) ) ;
#120 = CARTESIAN_POINT ( 'NONE',  ( 0.000000000000000000, -0.4460030829489841087, 0.7724999999999997424 ) ) ;
#121 = CIRCLE ( 'NONE', #176, 0.7725000000000006306 ) ;
#122 = PLANE ( 'NONE',  #507 ) ;
#123 = CARTESIAN_POINT ( 'NONE',  ( 0.000000000000000000, -0.4460030829489841087, 0.7724999999999997424 ) ) ;
#124 = DIRECTION ( 'NONE',  ( -1.000000000000000000, -0.000000000000000000, -0.000000000000000000 ) ) ;
#125 = CYLINDRICAL_SURFACE ( 'NONE', #244, 1.000000000000001554 ) ;
#126 = EDGE_LOOP ( 'NONE', ( #469 ) ) ;
#127 = DIRECTION ( 'NONE',  ( 0.000000000000000000, 0.000000000000000000, -1.000000000000000000 ) ) ;
#128 = CARTESIAN_POINT ( 'NONE',  ( 1.000000000000000000, 0.4460030829489873838, 0.7724999999999986322 ) ) ;
#129 = VECTOR ( 'NONE', #481, 1000.000000000000000 ) ;
#130 = EDGE_CURVE ( 'NONE', #215, #304, #7, .T. ) ;
#131 = ORIENTED_EDGE ( 'NONE', *, *, #358, .F. ) ;
#132 = DIRECTION ( 'NONE',  ( 0.000000000000000000, 0.4999999999999973910, -0.8660254037844400399 ) ) ;
#133 = LINE ( 'NONE', #101, #48 ) ;
#134 = ORIENTED_EDGE ( 'NONE', *, *, #4, .T. ) ;
#135 = PRESENTATION_LAYER_ASSIGNMENT (  '', '', ( #374 ) ) ;
#136 = DIRECTION ( 'NONE',  ( 0.000000000000000000, -0.5000000000000009992, -0.8660254037844380415 ) ) ;
#137 = EDGE_LOOP ( 'NONE', ( #228 ) ) ;
#138 = DIRECTION ( 'NONE',  ( 0.000000000000000000, 1.000000000000000000, -1.215464885709676370E-15 ) ) ;
#139 = FILL_AREA_STYLE ('',( #221 ) ) ;
#140 = VECTOR ( 'NONE', #499, 1000.000000000000000 ) ;
#141 = ORIENTED_EDGE ( 'NONE', *, *, #24, .T. ) ;
#142 = CARTESIAN_POINT ( 'NONE',  ( 1.000000000000000000, 0.8920061658979722141, -1.517883041479706208E-15 ) ) ;
#143 = PLANE ( 'NONE',  #281 ) ;
#144 = ADVANCED_FACE ( 'NONE', ( #37 ), #93, .T. ) ;
#145 = VERTEX_POINT ( 'NONE', #171 ) ;
#146 = CARTESIAN_POINT ( 'NONE',  ( 1.000000000000000000, 0.8920061658979722141, -1.517883041479706208E-15 ) ) ;
#147 = CARTESIAN_POINT ( 'NONE',  ( 1.000000000000000000, -0.4460030829489841087, 0.7724999999999997424 ) ) ;
#148 = ORIENTED_EDGE ( 'NONE', *, *, #4, .F. ) ;
#149 = DIRECTION ( 'NONE',  ( -1.000000000000000000, -0.000000000000000000, -0.000000000000000000 ) ) ;
#150 = ORIENTED_EDGE ( 'NONE', *, *, #506, .T. ) ;
#151 = EDGE_CURVE ( 'NONE', #424, #322, #250, .T. ) ;
#152 = CARTESIAN_POINT ( 'NONE',  ( 0.000000000000000000, 0.000000000000000000, 0.000000000000000000 ) ) ;
#153 = EDGE_LOOP ( 'NONE', ( #272 ) ) ;
#154 = DIRECTION ( 'NONE',  ( 0.000000000000000000, 1.000000000000000000, -1.215464885709676370E-15 ) ) ;
#155 = FACE_OUTER_BOUND ( 'NONE', #137, .T. ) ;
#156 = ORIENTED_EDGE ( 'NONE', *, *, #315, .T. ) ;
#157 = CARTESIAN_POINT ( 'NONE',  ( 1.000000000000000000, -0.4460030829489841087, 0.7724999999999997424 ) ) ;
#158 = CARTESIAN_POINT ( 'NONE',  ( 2.000000000000000000, 0.000000000000000000, 0.000000000000000000 ) ) ;
#159 = CIRCLE ( 'NONE', #233, 1.799999999999998934 ) ;
#160 = EDGE_CURVE ( 'NONE', #145, #234, #293, .T. ) ;
#161 = EDGE_CURVE ( 'NONE', #360, #356, #254, .T. ) ;
#162 = CARTESIAN_POINT ( 'NONE',  ( 1.000000000000000000, 0.4460030829489856075, -0.7725000000000006306 ) ) ;
#163 = CARTESIAN_POINT ( 'NONE',  ( 0.000000000000000000, 0.8920061658979722141, -1.517883041479706208E-15 ) ) ;
#164 = DIRECTION ( 'NONE',  ( 0.000000000000000000, 0.4999999999999973910, -0.8660254037844400399 ) ) ;
#165 = DIRECTION ( 'NONE',  ( -1.000000000000000000, -0.000000000000000000, -0.000000000000000000 ) ) ;
#166 = CARTESIAN_POINT ( 'NONE',  ( 1.000000000000000000, -0.8920061658979706598, 6.505213034913026604E-16 ) ) ;
#167 = CIRCLE ( 'NONE', #479, 0.7725000000000006306 ) ;
#168 = DIRECTION ( 'NONE',  ( -1.000000000000000000, -0.000000000000000000, -0.000000000000000000 ) ) ;
#169 = DIRECTION ( 'NONE',  ( -1.000000000000000000, -0.000000000000000000, -0.000000000000000000 ) ) ;
#170 = EDGE_LOOP ( 'NONE', ( #343 ) ) ;
#171 = CARTESIAN_POINT ( 'NONE',  ( 1.000000000000000000, 0.8920061658979722141, -1.517883041479706208E-15 ) ) ;
#172 = DIRECTION ( 'NONE',  ( 0.000000000000000000, -1.000000000000000000, 1.215464885709676370E-15 ) ) ;
#173 = CARTESIAN_POINT ( 'NONE',  ( 1.000000000000000000, 0.6690046244234794104, 0.3862499999999993161 ) ) ;
#174 = ORIENTED_EDGE ( 'NONE', *, *, #84, .T. ) ;
#175 = ADVANCED_FACE ( 'NONE', ( #331, #419 ), #125, .T. ) ;
#176 = AXIS2_PLACEMENT_3D ( 'NONE', #271, #483, #475 ) ;
#177 = EDGE_CURVE ( 'NONE', #292, #292, #73, .T. ) ;
#178 = ORIENTED_EDGE ( 'NONE', *, *, #151, .F. ) ;
#179 = DIRECTION ( 'NONE',  ( 0.000000000000000000, -0.4999999999999973355, 0.8660254037844401509 ) ) ;
#180 = SURFACE_SIDE_STYLE ('',( #12 ) ) ;
#181 = PRODUCT_RELATED_PRODUCT_CATEGORY ( 'part', '', ( #350 ) ) ;
#182 = EDGE_LOOP ( 'NONE', ( #429 ) ) ;
#183 = CARTESIAN_POINT ( 'NONE',  ( 0.000000000000000000, -0.8920061658979706598, 6.505213034913026604E-16 ) ) ;
#184 = DIRECTION ( 'NONE',  ( 0.000000000000000000, -0.8660254037844392627, -0.4999999999999990563 ) ) ;
#185 = AXIS2_PLACEMENT_3D ( 'NONE', #487, #75, #238 ) ;
#186 = DIRECTION ( 'NONE',  ( 0.000000000000000000, 0.4999999999999973910, -0.8660254037844400399 ) ) ;
#187 = CARTESIAN_POINT ( 'NONE',  ( 1.000000000000000000, -0.4460030829489841087, 0.7724999999999997424 ) ) ;
#188 = ORIENTED_EDGE ( 'NONE', *, *, #78, .F. ) ;
#189 = CARTESIAN_POINT ( 'NONE',  ( -31.74999999999995737, 0.000000000000000000, 0.000000000000000000 ) ) ;
#190 = FACE_OUTER_BOUND ( 'NONE', #472, .T. ) ;
#191 = ORIENTED_EDGE ( 'NONE', *, *, #473, .T. ) ;
#192 = UNCERTAINTY_MEASURE_WITH_UNIT (LENGTH_MEASURE( 1.000000000000000082E-05 ), #423, 'distance_accuracy_value', 'NONE');
#193 = ADVANCED_FACE ( 'NONE', ( #295 ), #208, .F. ) ;
#194 = ORIENTED_EDGE ( 'NONE', *, *, #130, .F. ) ;
#195 = PLANE ( 'NONE',  #211 ) ;
#196 = PLANE ( 'NONE',  #522 ) ;
#197 = VECTOR ( 'NONE', #344, 1000.000000000000000 ) ;
#198 = ADVANCED_BREP_SHAPE_REPRESENTATION ( 'ISO 4762 M2 x 8 - 8N_ISO 4762 M2 x 8 - 8N', ( #45, #534 ), #401 ) ;
#199 = CARTESIAN_POINT ( 'NONE',  ( 2.099999999999997868, 0.000000000000000000, 0.000000000000000000 ) ) ;
#200 = ORIENTED_EDGE ( 'NONE', *, *, #216, .F. ) ;
#201 = CARTESIAN_POINT ( 'NONE',  ( 1.000000000000000000, 0.8920061658979722141, -1.517883041479706208E-15 ) ) ;
#202 = PRODUCT_CONTEXT ( 'NONE', #218, 'mechanical' ) ;
#203 = ADVANCED_FACE ( 'NONE', ( #381 ), #503, .F. ) ;
#204 = VERTEX_POINT ( 'NONE', #460 ) ;
#205 = CIRCLE ( 'NONE', #334, 1.899999999999999023 ) ;
#206 = CARTESIAN_POINT ( 'NONE',  ( 2.000000000000000000, 1.899999999999999023, 0.000000000000000000 ) ) ;
#207 = DIRECTION ( 'NONE',  ( -1.000000000000000000, -0.000000000000000000, -0.000000000000000000 ) ) ;
#208 = PLANE ( 'NONE',  #291 ) ;
#209 = CARTESIAN_POINT ( 'NONE',  ( 1.000000000000000888, 0.000000000000000000, 0.000000000000000000 ) ) ;
#210 = DIRECTION ( 'NONE',  ( 1.000000000000000000, 0.000000000000000000, 0.000000000000000000 ) ) ;
#211 = AXIS2_PLACEMENT_3D ( 'NONE', #147, #443, #62 ) ;
#212 = ORIENTED_EDGE ( 'NONE', *, *, #78, .T. ) ;
#213 = DIRECTION ( 'NONE',  ( 0.000000000000000000, 0.000000000000000000, 1.000000000000000000 ) ) ;
#214 = DIRECTION ( 'NONE',  ( -1.000000000000000000, -0.000000000000000000, -0.000000000000000000 ) ) ;
#215 = VERTEX_POINT ( 'NONE', #123 ) ;
#216 = EDGE_CURVE ( 'NONE', #529, #360, #517, .T. ) ;
#217 = EDGE_CURVE ( 'NONE', #225, #424, #462, .T. ) ;
#218 = APPLICATION_CONTEXT ( 'automotive_design' ) ;
#219 = ORIENTED_EDGE ( 'NONE', *, *, #468, .T. ) ;
#220 = FACE_OUTER_BOUND ( 'NONE', #182, .T. ) ;
#221 = FILL_AREA_STYLE_COLOUR ( '', #305 ) ;
#222 = CONICAL_SURFACE ( 'NONE', #346, 0.7740000000000000213, 0.7853981633974557175 ) ;
#223 = CARTESIAN_POINT ( 'NONE',  ( 1.000000000000000000, -0.6690046244234800765, -0.3862499999999980949 ) ) ;
#224 = LINE ( 'NONE', #187, #102 ) ;
#225 = VERTEX_POINT ( 'NONE', #383 ) ;
#226 = DIRECTION ( 'NONE',  ( 1.000000000000000000, 0.000000000000000000, 0.000000000000000000 ) ) ;
#227 = ORIENTED_EDGE ( 'NONE', *, *, #236, .F. ) ;
#228 = ORIENTED_EDGE ( 'NONE', *, *, #455, .T. ) ;
#229 = DIRECTION ( 'NONE',  ( 0.000000000000000000, 0.000000000000000000, 1.000000000000000000 ) ) ;
#230 = CARTESIAN_POINT ( 'NONE',  ( 1.000000000000000000, -0.4460030829489841087, 0.7724999999999997424 ) ) ;
#231 = PRODUCT_DEFINITION_CONTEXT ( 'detailed design', #232, 'design' ) ;
#232 = APPLICATION_CONTEXT ( 'automotive_design' ) ;
#233 = AXIS2_PLACEMENT_3D ( 'NONE', #152, #149, #318 ) ;
#234 = VERTEX_POINT ( 'NONE', #173 ) ;
#235 = FACE_OUTER_BOUND ( 'NONE', #49, .T. ) ;
#236 = EDGE_CURVE ( 'NONE', #19, #1, #81, .T. ) ;
#237 = ORIENTED_EDGE ( 'NONE', *, *, #524, .F. ) ;
#238 = DIRECTION ( 'NONE',  ( 0.000000000000000000, 0.000000000000000000, -1.000000000000000000 ) ) ;
#239 = AXIS2_PLACEMENT_3D ( 'NONE', #230, #3, #172 ) ;
#240 = SHAPE_DEFINITION_REPRESENTATION ( #514, #198 ) ;
#241 = CARTESIAN_POINT ( 'NONE',  ( 0.000000000000000000, -0.4460030829489841087, 0.7724999999999997424 ) ) ;
#242 = ORIENTED_EDGE ( 'NONE', *, *, #319, .F. ) ;
#243 = VECTOR ( 'NONE', #136, 1000.000000000000000 ) ;
#244 = AXIS2_PLACEMENT_3D ( 'NONE', #496, #50, #373 ) ;
#245 = LINE ( 'NONE', #76, #485 ) ;
#246 = EDGE_CURVE ( 'NONE', #424, #360, #508, .T. ) ;
#247 = VERTEX_POINT ( 'NONE', #412 ) ;
#248 = VECTOR ( 'NONE', #457, 1000.000000000000000 ) ;
#249 = VERTEX_POINT ( 'NONE', #287 ) ;
#250 = LINE ( 'NONE', #262, #451 ) ;
#251 = DIRECTION ( 'NONE',  ( 0.000000000000000000, 0.000000000000000000, 1.000000000000000000 ) ) ;
#252 = FACE_BOUND ( 'NONE', #438, .T. ) ;
#253 = VERTEX_POINT ( 'NONE', #543 ) ;
#254 = LINE ( 'NONE', #380, #464 ) ;
#255 = AXIS2_PLACEMENT_3D ( 'NONE', #494, #207, #539 ) ;
#256 = ADVANCED_FACE ( 'NONE', ( #83, #252 ), #222, .T. ) ;
#257 = ORIENTED_EDGE ( 'NONE', *, *, #415, .F. ) ;
#258 = EDGE_CURVE ( 'NONE', #204, #204, #41, .T. ) ;
#259 = FACE_OUTER_BOUND ( 'NONE', #389, .T. ) ;
#260 = FACE_OUTER_BOUND ( 'NONE', #13, .T. ) ;
#261 = EDGE_LOOP ( 'NONE', ( #72 ) ) ;
#262 = CARTESIAN_POINT ( 'NONE',  ( 1.000000000000000000, -0.8920061658979706598, 6.505213034913026604E-16 ) ) ;
#263 = DIRECTION ( 'NONE',  ( 0.000000000000000000, 0.000000000000000000, -1.000000000000000000 ) ) ;
#264 = EDGE_LOOP ( 'NONE', ( #523, #156, #447, #312, #219, #191 ) ) ;
#265 = LINE ( 'NONE', #146, #129 ) ;
#266 =( NAMED_UNIT ( * ) SI_UNIT ( $, .STERADIAN. ) SOLID_ANGLE_UNIT ( ) );
#267 = AXIS2_PLACEMENT_3D ( 'NONE', #189, #59, #229 ) ;
#268 = FACE_BOUND ( 'NONE', #486, .T. ) ;
#269 = ORIENTED_EDGE ( 'NONE', *, *, #415, .T. ) ;
#270 = ORIENTED_EDGE ( 'NONE', *, *, #151, .T. ) ;
#271 = CARTESIAN_POINT ( 'NONE',  ( 1.000000000000000888, 0.000000000000000000, 0.000000000000000000 ) ) ;
#272 = ORIENTED_EDGE ( 'NONE', *, *, #116, .F. ) ;
#273 = DIRECTION ( 'NONE',  ( 1.000000000000000000, 0.000000000000000000, 0.000000000000000000 ) ) ;
#274 = VECTOR ( 'NONE', #132, 1000.000000000000114 ) ;
#275 = ORIENTED_EDGE ( 'NONE', *, *, #358, .T. ) ;
#276 = EDGE_CURVE ( 'NONE', #98, #474, #97, .T. ) ;
#277 = CARTESIAN_POINT ( 'NONE',  ( 0.000000000000000000, 0.000000000000000000, 0.000000000000000000 ) ) ;
#278 = EDGE_CURVE ( 'NONE', #234, #42, #365, .T. ) ;
#279 = ORIENTED_EDGE ( 'NONE', *, *, #52, .T. ) ;
#280 =( NAMED_UNIT ( * ) PLANE_ANGLE_UNIT ( ) SI_UNIT ( $, .RADIAN. ) );
#281 = AXIS2_PLACEMENT_3D ( 'NONE', #441, #466, #263 ) ;
#282 = DIRECTION ( 'NONE',  ( 0.000000000000000000, 0.000000000000000000, -1.000000000000000000 ) ) ;
#283 = EDGE_LOOP ( 'NONE', ( #27, #384, #316 ) ) ;
#284 = CARTESIAN_POINT ( 'NONE',  ( 1.000000000000000000, 0.4460030829489856075, -0.7725000000000006306 ) ) ;
#285 = VECTOR ( 'NONE', #186, 1000.000000000000114 ) ;
#286 = DIRECTION ( 'NONE',  ( -1.000000000000000000, -0.000000000000000000, -0.000000000000000000 ) ) ;
#287 = CARTESIAN_POINT ( 'NONE',  ( 0.000000000000000000, 0.000000000000000000, 1.799999999999998934 ) ) ;
#288 = CARTESIAN_POINT ( 'NONE',  ( 1.000000000000000000, 9.389466242107241727E-16, 0.7724999999999991873 ) ) ;
#289 = DIRECTION ( 'NONE',  ( 0.000000000000000000, -0.5000000000000009992, -0.8660254037844380415 ) ) ;
#290 = CARTESIAN_POINT ( 'NONE',  ( 9.774000000000004462, 0.000000000000000000, 0.000000000000000000 ) ) ;
#291 = AXIS2_PLACEMENT_3D ( 'NONE', #501, #465, #302 ) ;
#292 = VERTEX_POINT ( 'NONE', #119 ) ;
#293 = LINE ( 'NONE', #538, #140 ) ;
#294 = CARTESIAN_POINT ( 'NONE',  ( 1.000000000000000888, 2.816839872632173800E-16, -0.7725000000000006306 ) ) ;
#295 = FACE_OUTER_BOUND ( 'NONE', #442, .T. ) ;
#296 = EDGE_CURVE ( 'NONE', #74, #74, #320, .T. ) ;
#297 = ORIENTED_EDGE ( 'NONE', *, *, #161, .F. ) ;
#298 = DIRECTION ( 'NONE',  ( 0.000000000000000000, 0.000000000000000000, -1.000000000000000000 ) ) ;
#299 = ORIENTED_EDGE ( 'NONE', *, *, #258, .F. ) ;
#300 = AXIS2_PLACEMENT_3D ( 'NONE', #511, #71, #353 ) ;
#301 = EDGE_LOOP ( 'NONE', ( #299 ) ) ;
#302 = DIRECTION ( 'NONE',  ( 0.000000000000000000, 0.000000000000000000, -1.000000000000000000 ) ) ;
#303 = DIRECTION ( 'NONE',  ( -1.000000000000000000, -0.000000000000000000, -0.000000000000000000 ) ) ;
#304 = VERTEX_POINT ( 'NONE', #306 ) ;
#305 = COLOUR_RGB ( '',0.7921568627450980005, 0.8196078431372548767, 0.9333333333333333481 ) ;
#306 = CARTESIAN_POINT ( 'NONE',  ( 0.000000000000000000, 0.4460030829489873838, 0.7724999999999986322 ) ) ;
#307 = PRESENTATION_STYLE_ASSIGNMENT (( #512 ) ) ;
#308 = CARTESIAN_POINT ( 'NONE',  ( 0.1000000000000028644, 0.000000000000000000, 0.000000000000000000 ) ) ;
#309 = ORIENTED_EDGE ( 'NONE', *, *, #217, .T. ) ;
#310 = AXIS2_PLACEMENT_3D ( 'NONE', #426, #210, #298 ) ;
#311 = LINE ( 'NONE', #519, #53 ) ;
#312 = ORIENTED_EDGE ( 'NONE', *, *, #216, .T. ) ;
#313 = EDGE_LOOP ( 'NONE', ( #427 ) ) ;
#314 = CARTESIAN_POINT ( 'NONE',  ( 1.000000000000000000, -0.4460030829489869397, -0.7725000000000009637 ) ) ;
#315 = EDGE_CURVE ( 'NONE', #234, #16, #121, .T. ) ;
#316 = ORIENTED_EDGE ( 'NONE', *, *, #468, .F. ) ;
#317 = EDGE_CURVE ( 'NONE', #42, #304, #489, .T. ) ;
#318 = DIRECTION ( 'NONE',  ( 0.000000000000000000, 0.000000000000000000, 1.000000000000000000 ) ) ;
#319 = EDGE_CURVE ( 'NONE', #322, #253, #20, .T. ) ;
#320 = CIRCLE ( 'NONE', #525, 1.000000000000001554 ) ;
#321 = ORIENTED_EDGE ( 'NONE', *, *, #317, .F. ) ;
#322 = VERTEX_POINT ( 'NONE', #449 ) ;
#323 = DIRECTION ( 'NONE',  ( -1.000000000000000000, 0.000000000000000000, -0.000000000000000000 ) ) ;
#324 = PLANE ( 'NONE',  #10 ) ;
#325 = LINE ( 'NONE', #163, #22 ) ;
#326 = CIRCLE ( 'NONE', #87, 1.100000000000001643 ) ;
#327 = VERTEX_POINT ( 'NONE', #115 ) ;
#328 = AXIS2_PLACEMENT_3D ( 'NONE', #47, #51, #387 ) ;
#329 = VECTOR ( 'NONE', #154, 1000.000000000000000 ) ;
#330 = CARTESIAN_POINT ( 'NONE',  ( 0.000000000000000000, 0.000000000000000000, 0.000000000000000000 ) ) ;
#331 = FACE_OUTER_BOUND ( 'NONE', #488, .T. ) ;
#332 = FACE_OUTER_BOUND ( 'NONE', #85, .T. ) ;
#333 = DIRECTION ( 'NONE',  ( 0.000000000000000000, 1.000000000000000000, -1.215464885709676370E-15 ) ) ;
#334 = AXIS2_PLACEMENT_3D ( 'NONE', #532, #535, #251 ) ;
#335 = CARTESIAN_POINT ( 'NONE',  ( 1.000000000000000888, 0.000000000000000000, 0.000000000000000000 ) ) ;
#336 = DIRECTION ( 'NONE',  ( 0.000000000000000000, 0.000000000000000000, 1.000000000000000000 ) ) ;
#337 = ADVANCED_FACE ( 'NONE', ( #17 ), #533, .F. ) ;
#338 = CLOSED_SHELL ( 'NONE', ( #61, #413, #439, #175, #256, #144, #103, #399, #5, #26, #104, #396, #520, #203, #43, #456, #25, #117, #63, #193, #337 ) ) ;
#339 = PRODUCT_DEFINITION ( 'General', '', #64, #231 ) ;
#340 = ORIENTED_EDGE ( 'NONE', *, *, #505, .F. ) ;
#341 = DIRECTION ( 'NONE',  ( 0.000000000000000000, 0.8660254037844380415, -0.5000000000000009992 ) ) ;
#342 = ORIENTED_EDGE ( 'NONE', *, *, #531, .F. ) ;
#343 = ORIENTED_EDGE ( 'NONE', *, *, #370, .F. ) ;
#344 = DIRECTION ( 'NONE',  ( 0.000000000000000000, -0.5000000000000009992, -0.8660254037844380415 ) ) ;
#345 = DIRECTION ( 'NONE',  ( 0.000000000000000000, 0.4999999999999990008, -0.8660254037844391517 ) ) ;
#346 = AXIS2_PLACEMENT_3D ( 'NONE', #422, #169, #336 ) ;
#347 = ORIENTED_EDGE ( 'NONE', *, *, #371, .T. ) ;
#348 = DIRECTION ( 'NONE',  ( -1.000000000000000000, -0.000000000000000000, -0.000000000000000000 ) ) ;
#349 = FACE_BOUND ( 'NONE', #526, .T. ) ;
#350 = PRODUCT ( 'ISO 4762 M2 x 8 - 8N_ISO 4762 M2 x 8 - 8N', 'ISO 4762 M2 x 8 - 8N_ISO 4762 M2 x 8 - 8N', '', ( #202 ) ) ;
#351 = CARTESIAN_POINT ( 'NONE',  ( 0.000000000000000000, 0.4460030829489856075, -0.7725000000000006306 ) ) ;
#352 = ORIENTED_EDGE ( 'NONE', *, *, #258, .T. ) ;
#353 = DIRECTION ( 'NONE',  ( 0.000000000000000000, 0.000000000000000000, 1.000000000000000000 ) ) ;
#354 = CARTESIAN_POINT ( 'NONE',  ( 1.000000000000000000, 0.8920061658979722141, -1.517883041479706208E-15 ) ) ;
#355 = AXIS2_PLACEMENT_3D ( 'NONE', #14, #111, #29 ) ;
#356 = VERTEX_POINT ( 'NONE', #314 ) ;
#357 = CARTESIAN_POINT ( 'NONE',  ( 1.000000000000000000, -0.8920061658979706598, 6.505213034913026604E-16 ) ) ;
#358 = EDGE_CURVE ( 'NONE', #215, #322, #515, .T. ) ;
#359 = EDGE_CURVE ( 'NONE', #385, #529, #311, .T. ) ;
#360 = VERTEX_POINT ( 'NONE', #223 ) ;
#361 = ORIENTED_EDGE ( 'NONE', *, *, #160, .T. ) ;
#362 = LINE ( 'NONE', #448, #402 ) ;
#363 = AXIS2_PLACEMENT_3D ( 'NONE', #46, #214, #377 ) ;
#364 = ORIENTED_EDGE ( 'NONE', *, *, #52, .F. ) ;
#365 = LINE ( 'NONE', #142, #96 ) ;
#366 = ORIENTED_EDGE ( 'NONE', *, *, #236, .T. ) ;
#367 = DIRECTION ( 'NONE',  ( 0.000000000000000000, 1.000000000000000000, 3.646394657129024674E-16 ) ) ;
#368 = CARTESIAN_POINT ( 'NONE',  ( 0.1000000000000028644, 0.000000000000000000, 1.899999999999999023 ) ) ;
#369 = CIRCLE ( 'NONE', #355, 1.899999999999999023 ) ;
#370 = EDGE_CURVE ( 'NONE', #247, #247, #369, .T. ) ;
#371 = EDGE_CURVE ( 'NONE', #145, #19, #265, .T. ) ;
#372 = DIRECTION ( 'NONE',  ( 0.000000000000000000, 3.646394657129024674E-16, -1.000000000000000000 ) ) ;
#373 = DIRECTION ( 'NONE',  ( 0.000000000000000000, 0.000000000000000000, 1.000000000000000000 ) ) ;
#374 = STYLED_ITEM ( 'NONE', ( #307 ), #45 ) ;
#375 = PLANE ( 'NONE',  #444 ) ;
#376 = VECTOR ( 'NONE', #286, 1000.000000000000000 ) ;
#377 = DIRECTION ( 'NONE',  ( 0.000000000000000000, 0.000000000000000000, 1.000000000000000000 ) ) ;
#378 = DIRECTION ( 'NONE',  ( 0.000000000000000000, 0.000000000000000000, -1.000000000000000000 ) ) ;
#379 = CIRCLE ( 'NONE', #113, 0.7725000000000006306 ) ;
#380 = CARTESIAN_POINT ( 'NONE',  ( 1.000000000000000000, -0.8920061658979706598, 6.505213034913026604E-16 ) ) ;
#381 = FACE_OUTER_BOUND ( 'NONE', #502, .T. ) ;
#382 = ORIENTED_EDGE ( 'NONE', *, *, #84, .F. ) ;
#383 = CARTESIAN_POINT ( 'NONE',  ( 1.000000000000000000, -0.6690046244234774120, 0.3862500000000002043 ) ) ;
#384 = ORIENTED_EDGE ( 'NONE', *, *, #217, .F. ) ;
#385 = VERTEX_POINT ( 'NONE', #284 ) ;
#386 = DIRECTION ( 'NONE',  ( 0.000000000000000000, -1.000000000000000000, -3.646394657129024674E-16 ) ) ;
#387 = DIRECTION ( 'NONE',  ( 0.000000000000000000, 0.000000000000000000, -1.000000000000000000 ) ) ;
#388 = VECTOR ( 'NONE', #333, 1000.000000000000000 ) ;
#389 = EDGE_LOOP ( 'NONE', ( #279, #521, #403 ) ) ;
#390 = LINE ( 'NONE', #351, #542 ) ;
#391 = FACE_OUTER_BOUND ( 'NONE', #30, .T. ) ;
#392 = ORIENTED_EDGE ( 'NONE', *, *, #470, .F. ) ;
#393 = DIRECTION ( 'NONE',  ( 0.000000000000000000, 0.000000000000000000, 1.000000000000000000 ) ) ;
#394 = ORIENTED_EDGE ( 'NONE', *, *, #319, .T. ) ;
#395 = ORIENTED_EDGE ( 'NONE', *, *, #130, .T. ) ;
#396 = ADVANCED_FACE ( 'NONE', ( #452 ), #324, .T. ) ;
#397 = CARTESIAN_POINT ( 'NONE',  ( 1.000000000000000000, -0.4460030829489841087, 0.7724999999999997424 ) ) ;
#398 = DIRECTION ( 'NONE',  ( 0.000000000000000000, 0.000000000000000000, -1.000000000000000000 ) ) ;
#399 = ADVANCED_FACE ( 'NONE', ( #54, #440 ), #498, .T. ) ;
#400 = AXIS2_PLACEMENT_3D ( 'NONE', #105, #273, #398 ) ;
#401 =( GEOMETRIC_REPRESENTATION_CONTEXT ( 3 ) GLOBAL_UNCERTAINTY_ASSIGNED_CONTEXT ( ( #192 ) ) GLOBAL_UNIT_ASSIGNED_CONTEXT ( ( #423, #40, #266 ) ) REPRESENTATION_CONTEXT ( 'NONE', 'WORKASPACE' ) );
#402 = VECTOR ( 'NONE', #484, 1000.000000000000000 ) ;
#403 = ORIENTED_EDGE ( 'NONE', *, *, #536, .F. ) ;
#404 = EDGE_LOOP ( 'NONE', ( #174, #297, #200 ) ) ;
#405 = FACE_OUTER_BOUND ( 'NONE', #126, .T. ) ;
#406 = AXIS2_PLACEMENT_3D ( 'NONE', #492, #114, #418 ) ;
#407 = DIRECTION ( 'NONE',  ( 0.000000000000000000, -1.000000000000000000, -3.646394657129024674E-16 ) ) ;
#408 = EDGE_LOOP ( 'NONE', ( #58 ) ) ;
#409 = LINE ( 'NONE', #31, #376 ) ;
#410 = CARTESIAN_POINT ( 'NONE',  ( 2.099999999999997868, 0.000000000000000000, -1.000000000000001554 ) ) ;
#411 = AXIS2_PLACEMENT_3D ( 'NONE', #354, #184, #345 ) ;
#412 = CARTESIAN_POINT ( 'NONE',  ( 2.000000000000001776, 0.000000000000000000, 1.899999999999999023 ) ) ;
#413 = ADVANCED_FACE ( 'NONE', ( #155, #220 ), #528, .T. ) ;
#414 = DIRECTION ( 'NONE',  ( 1.000000000000000000, 0.000000000000000000, 0.000000000000000000 ) ) ;
#415 = EDGE_CURVE ( 'NONE', #1, #253, #390, .T. ) ;
#416 = CARTESIAN_POINT ( 'NONE',  ( 1.000000000000000000, -0.4460030829489841087, 0.7724999999999997424 ) ) ;
#417 = AXIS2_PLACEMENT_3D ( 'NONE', #290, #39, #213 ) ;
#418 = DIRECTION ( 'NONE',  ( 0.000000000000000000, 0.000000000000000000, -1.000000000000000000 ) ) ;
#419 = FACE_OUTER_BOUND ( 'NONE', #313, .T. ) ;
#420 =( GEOMETRIC_REPRESENTATION_CONTEXT ( 3 ) GLOBAL_UNCERTAINTY_ASSIGNED_CONTEXT ( ( #70 ) ) GLOBAL_UNIT_ASSIGNED_CONTEXT ( ( #433, #280, #453 ) ) REPRESENTATION_CONTEXT ( 'NONE', 'WORKASPACE' ) );
#421 = DIRECTION ( 'NONE',  ( 0.000000000000000000, 0.000000000000000000, 1.000000000000000000 ) ) ;
#422 = CARTESIAN_POINT ( 'NONE',  ( 10.00000000000000178, 0.000000000000000000, 0.000000000000000000 ) ) ;
#423 =( LENGTH_UNIT ( ) NAMED_UNIT ( * ) SI_UNIT ( .MILLI., .METRE. ) );
#424 = VERTEX_POINT ( 'NONE', #477 ) ;
#425 = VECTOR ( 'NONE', #138, 1000.000000000000000 ) ;
#426 = CARTESIAN_POINT ( 'NONE',  ( 10.00000000000000000, 0.7740000000000000213, 0.000000000000000000 ) ) ;
#427 = ORIENTED_EDGE ( 'NONE', *, *, #177, .T. ) ;
#428 = CARTESIAN_POINT ( 'NONE',  ( 1.000000000000000000, 0.8920061658979722141, -1.517883041479706208E-15 ) ) ;
#429 = ORIENTED_EDGE ( 'NONE', *, *, #370, .T. ) ;
#430 = DIRECTION ( 'NONE',  ( -1.000000000000000000, -0.000000000000000000, -0.000000000000000000 ) ) ;
#431 = ORIENTED_EDGE ( 'NONE', *, *, #315, .F. ) ;
#432 = DIRECTION ( 'NONE',  ( -0.000000000000000000, 0.8660254037844402619, 0.4999999999999973910 ) ) ;
#433 =( LENGTH_UNIT ( ) NAMED_UNIT ( * ) SI_UNIT ( .MILLI., .METRE. ) );
#434 = AXIS2_PLACEMENT_3D ( 'NONE', #308, #436, #393 ) ;
#435 = ORIENTED_EDGE ( 'NONE', *, *, #371, .F. ) ;
#436 = DIRECTION ( 'NONE',  ( -1.000000000000000000, -0.000000000000000000, -0.000000000000000000 ) ) ;
#437 = ORIENTED_EDGE ( 'NONE', *, *, #359, .T. ) ;
#438 = EDGE_LOOP ( 'NONE', ( #352 ) ) ;
#439 = ADVANCED_FACE ( 'NONE', ( #268, #82 ), #375, .T. ) ;
#440 = FACE_OUTER_BOUND ( 'NONE', #153, .T. ) ;
#441 = CARTESIAN_POINT ( 'NONE',  ( 1.000000000000000000, 1.338009248846956378, -0.7725000000000002975 ) ) ;
#442 = EDGE_LOOP ( 'NONE', ( #9, #437, #392 ) ) ;
#443 = DIRECTION ( 'NONE',  ( 0.000000000000000000, 0.8660254037844380415, -0.5000000000000009992 ) ) ;
#444 = AXIS2_PLACEMENT_3D ( 'NONE', #206, #32, #38 ) ;
#445 = ORIENTED_EDGE ( 'NONE', *, *, #296, .F. ) ;
#446 = FACE_OUTER_BOUND ( 'NONE', #109, .T. ) ;
#447 = ORIENTED_EDGE ( 'NONE', *, *, #470, .T. ) ;
#448 = CARTESIAN_POINT ( 'NONE',  ( 1.000000000000000000, 0.4460030829489856075, -0.7725000000000006306 ) ) ;
#449 = CARTESIAN_POINT ( 'NONE',  ( 0.000000000000000000, -0.8920061658979706598, 6.505213034913026604E-16 ) ) ;
#450 = ORIENTED_EDGE ( 'NONE', *, *, #278, .T. ) ;
#451 = VECTOR ( 'NONE', #430, 1000.000000000000000 ) ;
#452 = FACE_OUTER_BOUND ( 'NONE', #91, .T. ) ;
#453 =( NAMED_UNIT ( * ) SI_UNIT ( $, .STERADIAN. ) SOLID_ANGLE_UNIT ( ) );
#454 = LINE ( 'NONE', #201, #21 ) ;
#455 = EDGE_CURVE ( 'NONE', #537, #537, #205, .T. ) ;
#456 = ADVANCED_FACE ( 'NONE', ( #495 ), #36, .F. ) ;
#457 = DIRECTION ( 'NONE',  ( 0.000000000000000000, -0.5000000000000009992, -0.8660254037844380415 ) ) ;
#458 = VECTOR ( 'NONE', #459, 1000.000000000000000 ) ;
#459 = DIRECTION ( 'NONE',  ( 0.000000000000000000, -0.5000000000000009992, -0.8660254037844380415 ) ) ;
#460 = CARTESIAN_POINT ( 'NONE',  ( 10.00000000000000178, 0.000000000000000000, 0.7740000000000000213 ) ) ;
#461 = TOROIDAL_SURFACE ( 'NONE', #400, 1.100000000000001643, 0.1000000000000000056 ) ;
#462 = LINE ( 'NONE', #471, #458 ) ;
#463 = CARTESIAN_POINT ( 'NONE',  ( 10.00000000000000178, 0.000000000000000000, 0.000000000000000000 ) ) ;
#464 = VECTOR ( 'NONE', #164, 1000.000000000000114 ) ;
#465 = DIRECTION ( 'NONE',  ( 1.000000000000000000, 0.000000000000000000, 0.000000000000000000 ) ) ;
#466 = DIRECTION ( 'NONE',  ( 1.000000000000000000, 0.000000000000000000, 0.000000000000000000 ) ) ;
#467 = AXIS2_PLACEMENT_3D ( 'NONE', #35, #124, #500 ) ;
#468 = EDGE_CURVE ( 'NONE', #360, #225, #167, .T. ) ;
#469 = ORIENTED_EDGE ( 'NONE', *, *, #116, .T. ) ;
#470 = EDGE_CURVE ( 'NONE', #16, #529, #490, .T. ) ;
#471 = CARTESIAN_POINT ( 'NONE',  ( 1.000000000000000000, -0.4460030829489841087, 0.7724999999999997424 ) ) ;
#472 = EDGE_LOOP ( 'NONE', ( #131, #148, #68, #309, #270 ) ) ;
#473 = EDGE_CURVE ( 'NONE', #225, #474, #379, .T. ) ;
#474 = VERTEX_POINT ( 'NONE', #288 ) ;
#475 = DIRECTION ( 'NONE',  ( 0.000000000000000000, 0.000000000000000000, 1.000000000000000000 ) ) ;
#476 = ORIENTED_EDGE ( 'NONE', *, *, #491, .F. ) ;
#477 = CARTESIAN_POINT ( 'NONE',  ( 1.000000000000000000, -0.8920061658979706598, 6.505213034913026604E-16 ) ) ;
#478 = ORIENTED_EDGE ( 'NONE', *, *, #24, .F. ) ;
#479 = AXIS2_PLACEMENT_3D ( 'NONE', #209, #77, #497 ) ;
#480 = ORIENTED_EDGE ( 'NONE', *, *, #276, .F. ) ;
#481 = DIRECTION ( 'NONE',  ( -1.000000000000000000, -0.000000000000000000, -0.000000000000000000 ) ) ;
#482 = PLANE ( 'NONE',  #411 ) ;
#483 = DIRECTION ( 'NONE',  ( -1.000000000000000000, -0.000000000000000000, -0.000000000000000000 ) ) ;
#484 = DIRECTION ( 'NONE',  ( 0.000000000000000000, -1.000000000000000000, -3.646394657129024674E-16 ) ) ;
#485 = VECTOR ( 'NONE', #289, 1000.000000000000000 ) ;
#486 = EDGE_LOOP ( 'NONE', ( #150 ) ) ;
#487 = CARTESIAN_POINT ( 'NONE',  ( 1.000000000000000000, 1.338009248846956378, -0.7725000000000002975 ) ) ;
#488 = EDGE_LOOP ( 'NONE', ( #95 ) ) ;
#489 = LINE ( 'NONE', #11, #79 ) ;
#490 = CIRCLE ( 'NONE', #255, 0.7725000000000006306 ) ;
#491 = EDGE_CURVE ( 'NONE', #16, #385, #245, .T. ) ;
#492 = CARTESIAN_POINT ( 'NONE',  ( 1.000000000000000000, 1.338009248846956378, -0.7725000000000002975 ) ) ;
#493 = APPLICATION_PROTOCOL_DEFINITION ( 'draft international standard', 'automotive_design', 1998, #232 ) ;
#494 = CARTESIAN_POINT ( 'NONE',  ( 1.000000000000000888, 0.000000000000000000, 0.000000000000000000 ) ) ;
#495 = FACE_OUTER_BOUND ( 'NONE', #283, .T. ) ;
#496 = CARTESIAN_POINT ( 'NONE',  ( -31.74999999999995737, 0.000000000000000000, 0.000000000000000000 ) ) ;
#497 = DIRECTION ( 'NONE',  ( 0.000000000000000000, 0.000000000000000000, 1.000000000000000000 ) ) ;
#498 = TOROIDAL_SURFACE ( 'NONE', #434, 1.799999999999998934, 0.1000000000000000056 ) ;
#499 = DIRECTION ( 'NONE',  ( 0.000000000000000000, -0.4999999999999990008, 0.8660254037844392627 ) ) ;
#500 = DIRECTION ( 'NONE',  ( 0.000000000000000000, 0.000000000000000000, 1.000000000000000000 ) ) ;
#501 = CARTESIAN_POINT ( 'NONE',  ( 1.000000000000000000, 1.338009248846956378, -0.7725000000000002975 ) ) ;
#502 = EDGE_LOOP ( 'NONE', ( #366, #188, #476, #340, #347 ) ) ;
#503 = PLANE ( 'NONE',  #34 ) ;
#504 = ORIENTED_EDGE ( 'NONE', *, *, #531, .T. ) ;
#505 = EDGE_CURVE ( 'NONE', #145, #16, #454, .T. ) ;
#506 = EDGE_CURVE ( 'NONE', #327, #327, #326, .T. ) ;
#507 = AXIS2_PLACEMENT_3D ( 'NONE', #162, #372, #367 ) ;
#508 = LINE ( 'NONE', #166, #274 ) ;
#509 = CARTESIAN_POINT ( 'NONE',  ( 0.000000000000000000, 0.8920061658979722141, -1.517883041479706208E-15 ) ) ;
#510 = ORIENTED_EDGE ( 'NONE', *, *, #161, .T. ) ;
#511 = CARTESIAN_POINT ( 'NONE',  ( 1.000000000000000888, 0.000000000000000000, 0.000000000000000000 ) ) ;
#512 = SURFACE_STYLE_USAGE ( .BOTH. , #180 ) ;
#513 = FACE_OUTER_BOUND ( 'NONE', #404, .T. ) ;
#514 = PRODUCT_DEFINITION_SHAPE ( 'NONE', 'NONE',  #339 ) ;
#515 = LINE ( 'NONE', #241, #243 ) ;
#516 = CARTESIAN_POINT ( 'NONE',  ( 1.000000000000000000, 0.6690046244234789663, -0.3862500000000010925 ) ) ;
#517 = CIRCLE ( 'NONE', #363, 0.7725000000000006306 ) ;
#518 = EDGE_LOOP ( 'NONE', ( #99 ) ) ;
#519 = CARTESIAN_POINT ( 'NONE',  ( 1.000000000000000000, 0.4460030829489856075, -0.7725000000000006306 ) ) ;
#520 = ADVANCED_FACE ( 'NONE', ( #332 ), #122, .F. ) ;
#521 = ORIENTED_EDGE ( 'NONE', *, *, #278, .F. ) ;
#522 = AXIS2_PLACEMENT_3D ( 'NONE', #277, #323, #530 ) ;
#523 = ORIENTED_EDGE ( 'NONE', *, *, #536, .T. ) ;
#524 = EDGE_CURVE ( 'NONE', #98, #225, #541, .T. ) ;
#525 = AXIS2_PLACEMENT_3D ( 'NONE', #199, #226, #282 ) ;
#526 = EDGE_LOOP ( 'NONE', ( #504, #194, #275, #394, #257, #227 ) ) ;
#527 = CARTESIAN_POINT ( 'NONE',  ( 1.000000000000000000, -0.4460030829489841087, 0.7724999999999997424 ) ) ;
#528 = CYLINDRICAL_SURFACE ( 'NONE', #267, 1.899999999999999023 ) ;
#529 = VERTEX_POINT ( 'NONE', #294 ) ;
#530 = DIRECTION ( 'NONE',  ( -0.000000000000000000, 0.000000000000000000, 1.000000000000000000 ) ) ;
#531 = EDGE_CURVE ( 'NONE', #19, #304, #325, .T. ) ;
#532 = CARTESIAN_POINT ( 'NONE',  ( 0.1000000000000028644, 0.000000000000000000, 0.000000000000000000 ) ) ;
#533 = CONICAL_SURFACE ( 'NONE', #300, 0.7725000000000006306, 1.047197551196588972 ) ;
#534 = AXIS2_PLACEMENT_3D ( 'NONE', #330, #69, #414 ) ;
#535 = DIRECTION ( 'NONE',  ( 1.000000000000000000, 0.000000000000000000, 0.000000000000000000 ) ) ;
#536 = EDGE_CURVE ( 'NONE', #474, #234, #88, .T. ) ;
#537 = VERTEX_POINT ( 'NONE', #368 ) ;
#538 = CARTESIAN_POINT ( 'NONE',  ( 1.000000000000000000, 0.8920061658979722141, -1.517883041479706208E-15 ) ) ;
#539 = DIRECTION ( 'NONE',  ( 0.000000000000000000, 0.000000000000000000, 1.000000000000000000 ) ) ;
#540 = CARTESIAN_POINT ( 'NONE',  ( 0.000000000000000000, 0.8920061658979722141, -1.517883041479706208E-15 ) ) ;
#541 = LINE ( 'NONE', #416, #248 ) ;
#542 = VECTOR ( 'NONE', #386, 1000.000000000000000 ) ;
#543 = CARTESIAN_POINT ( 'NONE',  ( 0.000000000000000000, -0.4460030829489869397, -0.7725000000000009637 ) ) ;
ENDSEC;
END-ISO-10303-21;
