ISO-10303-21;
HEADER;
FILE_DESCRIPTION (( 'STEP AP214' ),
    '1' );
FILE_NAME ('Part3_PC.STEP',
    '2025-07-16T13:04:39',
    ( '' ),
    ( '' ),
    'SwSTEP 2.0',
    'SolidWorks 2025',
    '' );
FILE_SCHEMA (( 'AUTOMOTIVE_DESIGN' ));
ENDSEC;

DATA;
#1 = DIRECTION ( 'NONE',  ( 0.000000000000000000, 0.000000000000000000, 1.000000000000000000 ) ) ;
#2 = EDGE_LOOP ( 'NONE', ( #362, #138, #357, #440 ) ) ;
#3 = ORIENTED_EDGE ( 'NONE', *, *, #37, .T. ) ;
#4 = PRODUCT_DEFINITION_FORMATION_WITH_SPECIFIED_SOURCE ( 'Symmetric', '', #450, .NOT_KNOWN. ) ;
#5 = DIRECTION ( 'NONE',  ( 1.000000000000000000, 0.000000000000000000, 0.000000000000000000 ) ) ;
#6 = DIRECTION ( 'NONE',  ( 1.000000000000000000, -1.156482317317871331E-15, 0.000000000000000000 ) ) ;
#7 = EDGE_LOOP ( 'NONE', ( #19 ) ) ;
#8 = DIRECTION ( 'NONE',  ( -0.000000000000000000, 1.000000000000000000, -0.000000000000000000 ) ) ;
#9 = EDGE_CURVE ( 'NONE', #304, #389, #161, .T. ) ;
#10 = CARTESIAN_POINT ( 'NONE',  ( -0.3750000000000000000, -4.526858932953434334, -7.750000000000001776 ) ) ;
#11 = ORIENTED_EDGE ( 'NONE', *, *, #390, .F. ) ;
#12 = DIRECTION ( 'NONE',  ( -1.000000000000000000, 0.000000000000000000, 0.000000000000000000 ) ) ;
#13 = AXIS2_PLACEMENT_3D ( 'NONE', #209, #492, #29 ) ;
#14 = ORIENTED_EDGE ( 'NONE', *, *, #463, .F. ) ;
#15 = VECTOR ( 'NONE', #488, 1000.000000000000000 ) ;
#16 = AXIS2_PLACEMENT_3D ( 'NONE', #485, #366, #270 ) ;
#17 = CARTESIAN_POINT ( 'NONE',  ( 3.776858932953434334, 0.000000000000000000, -7.750000000000001776 ) ) ;
#18 = EDGE_CURVE ( 'NONE', #269, #351, #238, .T. ) ;
#19 = ORIENTED_EDGE ( 'NONE', *, *, #375, .F. ) ;
#20 = DIRECTION ( 'NONE',  ( -0.000000000000000000, -0.000000000000000000, -1.000000000000000000 ) ) ;
#21 = ORIENTED_EDGE ( 'NONE', *, *, #446, .T. ) ;
#22 = DIRECTION ( 'NONE',  ( 1.000000000000000000, 0.000000000000000000, -0.000000000000000000 ) ) ;
#23 = FACE_OUTER_BOUND ( 'NONE', #224, .T. ) ;
#24 = AXIS2_PLACEMENT_3D ( 'NONE', #152, #241, #413 ) ;
#25 = COLOUR_RGB ( '',0.7921568627450980005, 0.8196078431372548767, 0.9333333333333333481 ) ;
#26 = CIRCLE ( 'NONE', #189, 0.2500000000000001110 ) ;
#27 = FACE_OUTER_BOUND ( 'NONE', #93, .T. ) ;
#28 = UNCERTAINTY_MEASURE_WITH_UNIT (LENGTH_MEASURE( 1.000000000000000082E-05 ), #342, 'distance_accuracy_value', 'NONE');
#29 = DIRECTION ( 'NONE',  ( -0.000000000000000000, 0.000000000000000000, -1.000000000000000000 ) ) ;
#30 = ADVANCED_FACE ( 'NONE', ( #531, #281 ), #36, .F. ) ;
#31 = CARTESIAN_POINT ( 'NONE',  ( 0.3750000000000002220, -3.026858932953434334, -7.750000000000001776 ) ) ;
#32 = DIRECTION ( 'NONE',  ( 1.000000000000000000, 0.000000000000000000, 0.000000000000000000 ) ) ;
#33 = ORIENTED_EDGE ( 'NONE', *, *, #88, .F. ) ;
#34 = DIRECTION ( 'NONE',  ( 1.000000000000000000, 0.000000000000000000, 0.000000000000000000 ) ) ;
#35 = VECTOR ( 'NONE', #239, 1000.000000000000000 ) ;
#36 = CYLINDRICAL_SURFACE ( 'NONE', #24, 3.050000000000000711 ) ;
#37 = EDGE_CURVE ( 'NONE', #49, #149, #333, .T. ) ;
#38 = FILL_AREA_STYLE_COLOUR ( '', #25 ) ;
#39 = CARTESIAN_POINT ( 'NONE',  ( 0.000000000000000000, 0.000000000000000000, -9.250000000000001776 ) ) ;
#40 =( LENGTH_UNIT ( ) NAMED_UNIT ( * ) SI_UNIT ( .MILLI., .METRE. ) );
#41 = LINE ( 'NONE', #421, #177 ) ;
#42 = VERTEX_POINT ( 'NONE', #533 ) ;
#43 = CARTESIAN_POINT ( 'NONE',  ( 3.026858932953434334, 0.3750000000000000000, -7.750000000000001776 ) ) ;
#44 = CLOSED_SHELL ( 'NONE', ( #290, #174, #274, #30, #217 ) ) ;
#45 = PRODUCT_DEFINITION_CONTEXT ( 'detailed design', #76, 'design' ) ;
#46 = CARTESIAN_POINT ( 'NONE',  ( 3.776858932953434334, 0.000000000000000000, -7.750000000000001776 ) ) ;
#47 = EDGE_LOOP ( 'NONE', ( #227, #130, #14, #400 ) ) ;
#48 =( LENGTH_UNIT ( ) NAMED_UNIT ( * ) SI_UNIT ( .MILLI., .METRE. ) );
#49 = VERTEX_POINT ( 'NONE', #447 ) ;
#50 = CARTESIAN_POINT ( 'NONE',  ( 3.050000000000000711, 0.000000000000000000, -9.250000000000001776 ) ) ;
#51 = DIRECTION ( 'NONE',  ( -0.000000000000000000, 0.000000000000000000, 1.000000000000000000 ) ) ;
#52 =( GEOMETRIC_REPRESENTATION_CONTEXT ( 3 ) GLOBAL_UNCERTAINTY_ASSIGNED_CONTEXT ( ( #110 ) ) GLOBAL_UNIT_ASSIGNED_CONTEXT ( ( #515, #123, #297 ) ) REPRESENTATION_CONTEXT ( 'NONE', 'WORKASPACE' ) );
#53 =( GEOMETRIC_REPRESENTATION_CONTEXT ( 3 ) GLOBAL_UNCERTAINTY_ASSIGNED_CONTEXT ( ( #28 ) ) GLOBAL_UNIT_ASSIGNED_CONTEXT ( ( #342, #119, #164 ) ) REPRESENTATION_CONTEXT ( 'NONE', 'WORKASPACE' ) );
#54 = ORIENTED_EDGE ( 'NONE', *, *, #301, .T. ) ;
#55 = ADVANCED_FACE ( 'NONE', ( #23 ), #205, .F. ) ;
#56 = DIRECTION ( 'NONE',  ( -1.000000000000000000, 0.000000000000000000, 0.000000000000000000 ) ) ;
#57 = DIRECTION ( 'NONE',  ( 1.000000000000000000, 0.000000000000000000, 0.000000000000000000 ) ) ;
#58 = ORIENTED_EDGE ( 'NONE', *, *, #454, .F. ) ;
#59 = LINE ( 'NONE', #126, #276 ) ;
#60 = ORIENTED_EDGE ( 'NONE', *, *, #287, .F. ) ;
#61 = PLANE ( 'NONE',  #392 ) ;
#62 = ADVANCED_FACE ( 'NONE', ( #202, #336 ), #371, .T. ) ;
#63 = EDGE_LOOP ( 'NONE', ( #142 ) ) ;
#64 = AXIS2_PLACEMENT_3D ( 'NONE', #459, #148, #193 ) ;
#65 = AXIS2_PLACEMENT_3D ( 'NONE', #360, #314, #267 ) ;
#66 = CARTESIAN_POINT ( 'NONE',  ( 3.026858932953434334, 0.3750000000000000000, -8.000000000000001776 ) ) ;
#67 = ORIENTED_EDGE ( 'NONE', *, *, #257, .T. ) ;
#68 = LINE ( 'NONE', #445, #35 ) ;
#69 = DIRECTION ( 'NONE',  ( -0.000000000000000000, 0.000000000000000000, 1.000000000000000000 ) ) ;
#70 = DIRECTION ( 'NONE',  ( 0.000000000000000000, 0.000000000000000000, 1.000000000000000000 ) ) ;
#71 = ORIENTED_EDGE ( 'NONE', *, *, #257, .F. ) ;
#72 = EDGE_CURVE ( 'NONE', #354, #49, #77, .T. ) ;
#73 = PRESENTATION_STYLE_ASSIGNMENT (( #416 ) ) ;
#74 = FACE_OUTER_BOUND ( 'NONE', #47, .T. ) ;
#75 = LINE ( 'NONE', #116, #402 ) ;
#76 = APPLICATION_CONTEXT ( 'automotive_design' ) ;
#77 = LINE ( 'NONE', #154, #176 ) ;
#78 = PRODUCT_RELATED_PRODUCT_CATEGORY ( 'part', '', ( #450 ) ) ;
#79 = FACE_OUTER_BOUND ( 'NONE', #184, .T. ) ;
#80 = FACE_OUTER_BOUND ( 'NONE', #108, .T. ) ;
#81 = DIRECTION ( 'NONE',  ( 0.000000000000000000, -1.000000000000000000, 0.000000000000000000 ) ) ;
#82 = ORIENTED_EDGE ( 'NONE', *, *, #250, .T. ) ;
#83 = FILL_AREA_STYLE ('',( #378 ) ) ;
#84 = PLANE ( 'NONE',  #293 ) ;
#85 = DIRECTION ( 'NONE',  ( 0.000000000000000000, -1.000000000000000000, 0.000000000000000000 ) ) ;
#86 = CARTESIAN_POINT ( 'NONE',  ( 3.026858932953434334, 0.3750000000000000000, -7.750000000000001776 ) ) ;
#87 = EDGE_LOOP ( 'NONE', ( #359 ) ) ;
#88 = EDGE_CURVE ( 'NONE', #486, #269, #494, .T. ) ;
#89 = CARTESIAN_POINT ( 'NONE',  ( 4.026858932953434334, 0.000000000000000000, -9.250000000000001776 ) ) ;
#90 = STYLED_ITEM ( 'NONE', ( #73 ), #377 ) ;
#91 = ORIENTED_EDGE ( 'NONE', *, *, #550, .F. ) ;
#92 = LINE ( 'NONE', #182, #286 ) ;
#93 = EDGE_LOOP ( 'NONE', ( #384 ) ) ;
#94 = CARTESIAN_POINT ( 'NONE',  ( 3.026858932953434334, -0.3750000000000000000, -7.750000000000001776 ) ) ;
#95 = ADVANCED_FACE ( 'NONE', ( #74 ), #288, .F. ) ;
#96 = EDGE_LOOP ( 'NONE', ( #114 ) ) ;
#97 = CYLINDRICAL_SURFACE ( 'NONE', #323, 0.2500000000000002220 ) ;
#98 = AXIS2_PLACEMENT_3D ( 'NONE', #457, #157, #499 ) ;
#99 = AXIS2_PLACEMENT_3D ( 'NONE', #532, #328, #105 ) ;
#100 = EDGE_LOOP ( 'NONE', ( #91 ) ) ;
#101 = FACE_OUTER_BOUND ( 'NONE', #190, .T. ) ;
#102 = VERTEX_POINT ( 'NONE', #497 ) ;
#103 = CARTESIAN_POINT ( 'NONE',  ( -0.3750000000000002220, -3.026858932953434334, -7.750000000000001776 ) ) ;
#104 = ORIENTED_EDGE ( 'NONE', *, *, #204, .T. ) ;
#105 = DIRECTION ( 'NONE',  ( -1.445602896647338917E-16, -1.000000000000000000, 0.000000000000000000 ) ) ;
#106 = ORIENTED_EDGE ( 'NONE', *, *, #422, .F. ) ;
#107 = FACE_BOUND ( 'NONE', #87, .T. ) ;
#108 = EDGE_LOOP ( 'NONE', ( #3, #380, #124, #128 ) ) ;
#109 = FACE_BOUND ( 'NONE', #218, .T. ) ;
#110 = UNCERTAINTY_MEASURE_WITH_UNIT (LENGTH_MEASURE( 1.000000000000000082E-05 ), #515, 'distance_accuracy_value', 'NONE');
#111 = EDGE_CURVE ( 'NONE', #476, #476, #441, .T. ) ;
#112 = DIRECTION ( 'NONE',  ( -1.000000000000000000, -0.000000000000000000, -0.000000000000000000 ) ) ;
#113 = FACE_OUTER_BOUND ( 'NONE', #318, .T. ) ;
#114 = ORIENTED_EDGE ( 'NONE', *, *, #235, .F. ) ;
#115 = VECTOR ( 'NONE', #234, 1000.000000000000000 ) ;
#116 = CARTESIAN_POINT ( 'NONE',  ( 0.3750000000000000000, -4.526858932953435222, -7.750000000000001776 ) ) ;
#117 = DIRECTION ( 'NONE',  ( 1.000000000000000000, 0.000000000000000000, 0.000000000000000000 ) ) ;
#118 = EDGE_CURVE ( 'NONE', #423, #423, #291, .T. ) ;
#119 =( NAMED_UNIT ( * ) PLANE_ANGLE_UNIT ( ) SI_UNIT ( $, .RADIAN. ) );
#120 = DIRECTION ( 'NONE',  ( 0.000000000000000000, 0.000000000000000000, 1.000000000000000000 ) ) ;
#121 = DIRECTION ( 'NONE',  ( 0.000000000000000000, 0.000000000000000000, 1.000000000000000000 ) ) ;
#122 = CARTESIAN_POINT ( 'NONE',  ( 4.526858932953434334, 0.3750000000000000000, -8.000000000000001776 ) ) ;
#123 =( NAMED_UNIT ( * ) PLANE_ANGLE_UNIT ( ) SI_UNIT ( $, .RADIAN. ) );
#124 = ORIENTED_EDGE ( 'NONE', *, *, #489, .F. ) ;
#125 = SURFACE_STYLE_FILL_AREA ( #414 ) ;
#126 = CARTESIAN_POINT ( 'NONE',  ( 3.026858932953434334, 0.3750000000000000000, -7.750000000000001776 ) ) ;
#127 = ADVANCED_FACE ( 'NONE', ( #79, #527 ), #324, .F. ) ;
#128 = ORIENTED_EDGE ( 'NONE', *, *, #72, .T. ) ;
#129 = VERTEX_POINT ( 'NONE', #302 ) ;
#130 = ORIENTED_EDGE ( 'NONE', *, *, #204, .F. ) ;
#131 = CARTESIAN_POINT ( 'NONE',  ( 4.026858932953434334, 0.000000000000000000, -8.000000000000001776 ) ) ;
#132 = AXIS2_PLACEMENT_3D ( 'NONE', #408, #534, #369 ) ;
#133 = DIRECTION ( 'NONE',  ( 1.445602896647339656E-16, -1.000000000000000000, 0.000000000000000000 ) ) ;
#134 = EDGE_CURVE ( 'NONE', #510, #510, #511, .T. ) ;
#135 = ORIENTED_EDGE ( 'NONE', *, *, #37, .F. ) ;
#136 = CARTESIAN_POINT ( 'NONE',  ( -0.3750000000000002220, -3.026858932953434334, -7.750000000000001776 ) ) ;
#137 = DIRECTION ( 'NONE',  ( 1.000000000000000000, 0.000000000000000000, 0.000000000000000000 ) ) ;
#138 = ORIENTED_EDGE ( 'NONE', *, *, #195, .T. ) ;
#139 = LINE ( 'NONE', #136, #374 ) ;
#140 = DIRECTION ( 'NONE',  ( 0.000000000000000000, 0.000000000000000000, 1.000000000000000000 ) ) ;
#141 = CIRCLE ( 'NONE', #334, 0.2500000000000002220 ) ;
#142 = ORIENTED_EDGE ( 'NONE', *, *, #375, .T. ) ;
#143 = CARTESIAN_POINT ( 'NONE',  ( 4.526858932953434334, -0.3750000000000000000, -7.750000000000001776 ) ) ;
#144 = ORIENTED_EDGE ( 'NONE', *, *, #502, .F. ) ;
#145 = EDGE_CURVE ( 'NONE', #521, #233, #59, .T. ) ;
#146 = DIRECTION ( 'NONE',  ( 0.000000000000000000, 0.000000000000000000, 1.000000000000000000 ) ) ;
#147 = EDGE_LOOP ( 'NONE', ( #298 ) ) ;
#148 = DIRECTION ( 'NONE',  ( 0.000000000000000000, 0.000000000000000000, -1.000000000000000000 ) ) ;
#149 = VERTEX_POINT ( 'NONE', #420 ) ;
#150 = LINE ( 'NONE', #143, #242 ) ;
#151 = ADVANCED_FACE ( 'NONE', ( #165, #518 ), #84, .T. ) ;
#152 = CARTESIAN_POINT ( 'NONE',  ( 0.000000000000000000, 0.000000000000000000, -8.000000000000001776 ) ) ;
#153 = CARTESIAN_POINT ( 'NONE',  ( 0.3750000000000002220, -3.026858932953434334, -7.750000000000001776 ) ) ;
#154 = CARTESIAN_POINT ( 'NONE',  ( 3.026858932953434334, -0.3750000000000000000, -7.750000000000001776 ) ) ;
#155 = DIRECTION ( 'NONE',  ( -1.000000000000000000, -0.000000000000000000, -0.000000000000000000 ) ) ;
#156 = ADVANCED_BREP_SHAPE_REPRESENTATION ( 'Part3_PC', ( #201, #394, #377, #65 ), #264 ) ;
#157 = DIRECTION ( 'NONE',  ( 1.000000000000000000, 1.445602896647339656E-16, -0.000000000000000000 ) ) ;
#158 = EDGE_CURVE ( 'NONE', #149, #389, #41, .T. ) ;
#159 = VECTOR ( 'NONE', #8, 1000.000000000000000 ) ;
#160 = CARTESIAN_POINT ( 'NONE',  ( 4.526858932953434334, 0.3750000000000000000, -7.750000000000001776 ) ) ;
#161 = LINE ( 'NONE', #207, #469 ) ;
#162 = SURFACE_SIDE_STYLE ('',( #203 ) ) ;
#163 = FACE_OUTER_BOUND ( 'NONE', #147, .T. ) ;
#164 =( NAMED_UNIT ( * ) SI_UNIT ( $, .STERADIAN. ) SOLID_ANGLE_UNIT ( ) );
#165 = FACE_OUTER_BOUND ( 'NONE', #300, .T. ) ;
#166 = EDGE_LOOP ( 'NONE', ( #279 ) ) ;
#167 = CIRCLE ( 'NONE', #548, 0.2500000000000002220 ) ;
#168 = EDGE_CURVE ( 'NONE', #507, #507, #232, .T. ) ;
#169 = FILL_AREA_STYLE_COLOUR ( '', #322 ) ;
#170 = PLANE ( 'NONE',  #427 ) ;
#171 = ORIENTED_EDGE ( 'NONE', *, *, #489, .T. ) ;
#172 = CARTESIAN_POINT ( 'NONE',  ( -0.3750000000000002220, -3.026858932953434334, -7.750000000000001776 ) ) ;
#173 = ORIENTED_EDGE ( 'NONE', *, *, #111, .T. ) ;
#174 = ADVANCED_FACE ( 'NONE', ( #249, #101, #379 ), #213, .F. ) ;
#175 =( NAMED_UNIT ( * ) PLANE_ANGLE_UNIT ( ) SI_UNIT ( $, .RADIAN. ) );
#176 = VECTOR ( 'NONE', #330, 1000.000000000000000 ) ;
#177 = VECTOR ( 'NONE', #393, 1000.000000000000000 ) ;
#178 = EDGE_LOOP ( 'NONE', ( #60, #316, #277, #327 ) ) ;
#179 = DIRECTION ( 'NONE',  ( -0.000000000000000000, -0.000000000000000000, -1.000000000000000000 ) ) ;
#180 = SURFACE_SIDE_STYLE ('',( #226 ) ) ;
#181 = ORIENTED_EDGE ( 'NONE', *, *, #356, .T. ) ;
#182 = CARTESIAN_POINT ( 'NONE',  ( 3.026858932953434334, 0.3750000000000000000, -8.000000000000001776 ) ) ;
#183 = FACE_OUTER_BOUND ( 'NONE', #365, .T. ) ;
#184 = EDGE_LOOP ( 'NONE', ( #436, #449, #473, #135 ) ) ;
#185 = DIRECTION ( 'NONE',  ( -0.000000000000000000, -0.000000000000000000, -1.000000000000000000 ) ) ;
#186 = VECTOR ( 'NONE', #117, 1000.000000000000000 ) ;
#187 = EDGE_CURVE ( 'NONE', #521, #354, #292, .T. ) ;
#188 = VECTOR ( 'NONE', #155, 1000.000000000000000 ) ;
#189 = AXIS2_PLACEMENT_3D ( 'NONE', #435, #1, #215 ) ;
#190 = EDGE_LOOP ( 'NONE', ( #313 ) ) ;
#191 = CARTESIAN_POINT ( 'NONE',  ( 0.3750000000000002220, -3.026858932953434334, -7.750000000000001776 ) ) ;
#192 = EDGE_LOOP ( 'NONE', ( #54, #395, #512, #67 ) ) ;
#193 = DIRECTION ( 'NONE',  ( -1.000000000000000000, 0.000000000000000000, 0.000000000000000000 ) ) ;
#194 = ORIENTED_EDGE ( 'NONE', *, *, #454, .T. ) ;
#195 = EDGE_CURVE ( 'NONE', #516, #486, #544, .T. ) ;
#196 = APPLICATION_PROTOCOL_DEFINITION ( 'draft international standard', 'automotive_design', 1998, #76 ) ;
#197 = FACE_OUTER_BOUND ( 'NONE', #178, .T. ) ;
#198 = VECTOR ( 'NONE', #451, 1000.000000000000000 ) ;
#199 = VERTEX_POINT ( 'NONE', #477 ) ;
#200 = PLANE ( 'NONE',  #99 ) ;
#201 = MANIFOLD_SOLID_BREP ( 'Boss-Extrude2[1]', #520 ) ;
#202 = FACE_OUTER_BOUND ( 'NONE', #2, .T. ) ;
#203 = SURFACE_STYLE_FILL_AREA ( #83 ) ;
#204 = EDGE_CURVE ( 'NONE', #516, #429, #397, .T. ) ;
#205 = PLANE ( 'NONE',  #13 ) ;
#206 = CARTESIAN_POINT ( 'NONE',  ( 3.026858932953434334, 0.3750000000000000000, -7.750000000000001776 ) ) ;
#207 = CARTESIAN_POINT ( 'NONE',  ( 4.526858932953434334, 0.3750000000000000000, -7.750000000000001776 ) ) ;
#208 = FACE_OUTER_BOUND ( 'NONE', #236, .T. ) ;
#209 = CARTESIAN_POINT ( 'NONE',  ( 3.026858932953434334, 0.3750000000000000000, -7.750000000000001776 ) ) ;
#210 = PLANE ( 'NONE',  #546 ) ;
#211 = DIRECTION ( 'NONE',  ( 1.000000000000000000, 0.000000000000000000, 0.000000000000000000 ) ) ;
#212 = ADVANCED_FACE ( 'NONE', ( #183 ), #353, .F. ) ;
#213 = PLANE ( 'NONE',  #479 ) ;
#214 = STYLED_ITEM ( 'NONE', ( #340 ), #201 ) ;
#215 = DIRECTION ( 'NONE',  ( 1.000000000000000000, 0.000000000000000000, 0.000000000000000000 ) ) ;
#216 = CARTESIAN_POINT ( 'NONE',  ( -0.3750000000000000000, -4.526858932953434334, -7.750000000000001776 ) ) ;
#217 = ADVANCED_FACE ( 'NONE', ( #437, #163 ), #339, .F. ) ;
#218 = EDGE_LOOP ( 'NONE', ( #406 ) ) ;
#219 = ORIENTED_EDGE ( 'NONE', *, *, #356, .F. ) ;
#220 = VECTOR ( 'NONE', #453, 1000.000000000000000 ) ;
#221 = DIRECTION ( 'NONE',  ( 1.000000000000000000, 0.000000000000000000, 0.000000000000000000 ) ) ;
#222 = DIRECTION ( 'NONE',  ( 1.000000000000000000, 0.000000000000000000, 0.000000000000000000 ) ) ;
#223 = COLOUR_RGB ( '',0.7921568627450980005, 0.8196078431372548767, 0.9333333333333333481 ) ;
#224 = EDGE_LOOP ( 'NONE', ( #230, #478, #426, #415 ) ) ;
#225 = CARTESIAN_POINT ( 'NONE',  ( -0.3750000000000002220, -3.026858932953434334, -7.750000000000001776 ) ) ;
#226 = SURFACE_STYLE_FILL_AREA ( #263 ) ;
#227 = ORIENTED_EDGE ( 'NONE', *, *, #287, .T. ) ;
#228 = EDGE_CURVE ( 'NONE', #102, #42, #68, .T. ) ;
#229 = CARTESIAN_POINT ( 'NONE',  ( -0.3750000000000002220, -3.026858932953434334, -8.000000000000001776 ) ) ;
#230 = ORIENTED_EDGE ( 'NONE', *, *, #519, .T. ) ;
#231 = LINE ( 'NONE', #229, #364 ) ;
#232 = CIRCLE ( 'NONE', #496, 3.050000000000000711 ) ;
#233 = VERTEX_POINT ( 'NONE', #66 ) ;
#234 = DIRECTION ( 'NONE',  ( -0.000000000000000000, -0.000000000000000000, -1.000000000000000000 ) ) ;
#235 = EDGE_CURVE ( 'NONE', #262, #262, #433, .T. ) ;
#236 = EDGE_LOOP ( 'NONE', ( #271, #470, #58, #341 ) ) ;
#237 = DIRECTION ( 'NONE',  ( 1.000000000000000000, 0.000000000000000000, 0.000000000000000000 ) ) ;
#238 = LINE ( 'NONE', #417, #535 ) ;
#239 = DIRECTION ( 'NONE',  ( 1.445602896647338917E-16, 1.000000000000000000, -0.000000000000000000 ) ) ;
#240 = VECTOR ( 'NONE', #376, 1000.000000000000000 ) ;
#241 = DIRECTION ( 'NONE',  ( -0.000000000000000000, -0.000000000000000000, -1.000000000000000000 ) ) ;
#242 = VECTOR ( 'NONE', #185, 1000.000000000000000 ) ;
#243 = DIRECTION ( 'NONE',  ( 0.000000000000000000, -0.000000000000000000, 1.000000000000000000 ) ) ;
#244 = EDGE_LOOP ( 'NONE', ( #343, #71, #33, #21 ) ) ;
#245 = DIRECTION ( 'NONE',  ( 0.000000000000000000, 0.000000000000000000, 1.000000000000000000 ) ) ;
#246 = CARTESIAN_POINT ( 'NONE',  ( 3.026858932953434334, -0.3750000000000000000, -7.750000000000001776 ) ) ;
#247 = EDGE_LOOP ( 'NONE', ( #398, #481, #508, #104 ) ) ;
#248 = CIRCLE ( 'NONE', #285, 0.2500000000000002220 ) ;
#249 = FACE_BOUND ( 'NONE', #404, .T. ) ;
#250 = EDGE_CURVE ( 'NONE', #389, #233, #399, .T. ) ;
#251 = DIRECTION ( 'NONE',  ( 0.000000000000000000, 0.000000000000000000, 1.000000000000000000 ) ) ;
#252 = DIRECTION ( 'NONE',  ( 0.000000000000000000, 0.000000000000000000, 1.000000000000000000 ) ) ;
#253 = LINE ( 'NONE', #387, #347 ) ;
#254 = UNCERTAINTY_MEASURE_WITH_UNIT (LENGTH_MEASURE( 1.000000000000000082E-05 ), #40, 'distance_accuracy_value', 'NONE');
#255 = MECHANICAL_DESIGN_GEOMETRIC_PRESENTATION_REPRESENTATION (  '', ( #214 ), #52 ) ;
#256 = CARTESIAN_POINT ( 'NONE',  ( 4.526858932953434334, -0.3750000000000000000, -7.750000000000001776 ) ) ;
#257 = EDGE_CURVE ( 'NONE', #269, #42, #317, .T. ) ;
#258 = ORIENTED_EDGE ( 'NONE', *, *, #422, .T. ) ;
#259 = CARTESIAN_POINT ( 'NONE',  ( 4.026858932953434334, 0.000000000000000000, -8.000000000000001776 ) ) ;
#260 = DIRECTION ( 'NONE',  ( 0.000000000000000000, -1.000000000000000000, 0.000000000000000000 ) ) ;
#261 = EDGE_LOOP ( 'NONE', ( #306 ) ) ;
#262 = VERTEX_POINT ( 'NONE', #344 ) ;
#263 = FILL_AREA_STYLE ('',( #169 ) ) ;
#264 =( GEOMETRIC_REPRESENTATION_CONTEXT ( 3 ) GLOBAL_UNCERTAINTY_ASSIGNED_CONTEXT ( ( #465 ) ) GLOBAL_UNIT_ASSIGNED_CONTEXT ( ( #48, #175, #325 ) ) REPRESENTATION_CONTEXT ( 'NONE', 'WORKASPACE' ) );
#265 = EDGE_LOOP ( 'NONE', ( #173 ) ) ;
#266 = ADVANCED_FACE ( 'NONE', ( #361 ), #355, .F. ) ;
#267 = DIRECTION ( 'NONE',  ( 1.000000000000000000, 0.000000000000000000, 0.000000000000000000 ) ) ;
#268 = SURFACE_STYLE_USAGE ( .BOTH. , #180 ) ;
#269 = VERTEX_POINT ( 'NONE', #153 ) ;
#270 = DIRECTION ( 'NONE',  ( -1.000000000000000000, 0.000000000000000000, 0.000000000000000000 ) ) ;
#271 = ORIENTED_EDGE ( 'NONE', *, *, #158, .T. ) ;
#272 = PRODUCT_CONTEXT ( 'NONE', #551, 'mechanical' ) ;
#273 = CYLINDRICAL_SURFACE ( 'NONE', #295, 0.2500000000000001110 ) ;
#274 = ADVANCED_FACE ( 'NONE', ( #448, #315 ), #407, .T. ) ;
#275 = AXIS2_PLACEMENT_3D ( 'NONE', #455, #245, #373 ) ;
#276 = VECTOR ( 'NONE', #382, 1000.000000000000000 ) ;
#277 = ORIENTED_EDGE ( 'NONE', *, *, #228, .F. ) ;
#278 = FACE_BOUND ( 'NONE', #265, .T. ) ;
#279 = ORIENTED_EDGE ( 'NONE', *, *, #502, .T. ) ;
#280 = DIRECTION ( 'NONE',  ( -1.000000000000000000, -0.000000000000000000, -0.000000000000000000 ) ) ;
#281 = FACE_OUTER_BOUND ( 'NONE', #432, .T. ) ;
#282 = CARTESIAN_POINT ( 'NONE',  ( 0.000000000000000000, -3.776858932953434334, -7.750000000000001776 ) ) ;
#283 = AXIS2_PLACEMENT_3D ( 'NONE', #541, #312, #480 ) ;
#284 = DIRECTION ( 'NONE',  ( -0.000000000000000000, -0.000000000000000000, -1.000000000000000000 ) ) ;
#285 = AXIS2_PLACEMENT_3D ( 'NONE', #17, #461, #506 ) ;
#286 = VECTOR ( 'NONE', #85, 1000.000000000000000 ) ;
#287 = EDGE_CURVE ( 'NONE', #199, #429, #491, .T. ) ;
#288 = PLANE ( 'NONE',  #98 ) ;
#289 = DIRECTION ( 'NONE',  ( 1.000000000000000000, 0.000000000000000000, 0.000000000000000000 ) ) ;
#290 = ADVANCED_FACE ( 'NONE', ( #109, #27, #107 ), #61, .T. ) ;
#291 = CIRCLE ( 'NONE', #321, 15.49999999999967315 ) ;
#292 = LINE ( 'NONE', #86, #537 ) ;
#293 = AXIS2_PLACEMENT_3D ( 'NONE', #299, #51, #222 ) ;
#294 = MECHANICAL_DESIGN_GEOMETRIC_PRESENTATION_REPRESENTATION (  '', ( #90 ), #53 ) ;
#295 = AXIS2_PLACEMENT_3D ( 'NONE', #282, #20, #12 ) ;
#296 = DIRECTION ( 'NONE',  ( 0.000000000000000000, 1.000000000000000000, 0.000000000000000000 ) ) ;
#297 =( NAMED_UNIT ( * ) SI_UNIT ( $, .STERADIAN. ) SOLID_ANGLE_UNIT ( ) );
#298 = ORIENTED_EDGE ( 'NONE', *, *, #390, .T. ) ;
#299 = CARTESIAN_POINT ( 'NONE',  ( 0.000000000000000000, 0.000000000000000000, -7.750000000000001776 ) ) ;
#300 = EDGE_LOOP ( 'NONE', ( #525, #171, #194, #258 ) ) ;
#301 = EDGE_CURVE ( 'NONE', #42, #199, #231, .T. ) ;
#302 = CARTESIAN_POINT ( 'NONE',  ( 4.026858932953434334, 0.000000000000000000, -7.750000000000001776 ) ) ;
#303 = CARTESIAN_POINT ( 'NONE',  ( 0.2500000000000001110, -3.776858932953434334, -7.750000000000001776 ) ) ;
#304 = VERTEX_POINT ( 'NONE', #524 ) ;
#305 = FACE_OUTER_BOUND ( 'NONE', #7, .T. ) ;
#306 = ORIENTED_EDGE ( 'NONE', *, *, #168, .T. ) ;
#307 = CARTESIAN_POINT ( 'NONE',  ( 3.776858932953434334, 0.000000000000000000, -8.000000000000001776 ) ) ;
#308 = PRODUCT_DEFINITION ( 'General', '', #4, #45 ) ;
#309 = ORIENTED_EDGE ( 'NONE', *, *, #118, .T. ) ;
#310 = AXIS2_PLACEMENT_3D ( 'NONE', #39, #121, #57 ) ;
#311 = STYLED_ITEM ( 'NONE', ( #543 ), #394 ) ;
#312 = DIRECTION ( 'NONE',  ( 0.000000000000000000, -1.000000000000000000, 0.000000000000000000 ) ) ;
#313 = ORIENTED_EDGE ( 'NONE', *, *, #118, .F. ) ;
#314 = DIRECTION ( 'NONE',  ( 0.000000000000000000, 0.000000000000000000, 1.000000000000000000 ) ) ;
#315 = FACE_OUTER_BOUND ( 'NONE', #430, .T. ) ;
#316 = ORIENTED_EDGE ( 'NONE', *, *, #301, .F. ) ;
#317 = LINE ( 'NONE', #191, #115 ) ;
#318 = EDGE_LOOP ( 'NONE', ( #444 ) ) ;
#319 = SHAPE_DEFINITION_REPRESENTATION ( #368, #156 ) ;
#320 = DIRECTION ( 'NONE',  ( -1.000000000000000000, 1.156482317317871331E-15, 0.000000000000000000 ) ) ;
#321 = AXIS2_PLACEMENT_3D ( 'NONE', #539, #120, #289 ) ;
#322 = COLOUR_RGB ( '',0.7921568627450980005, 0.8196078431372548767, 0.9333333333333333481 ) ;
#323 = AXIS2_PLACEMENT_3D ( 'NONE', #46, #396, #56 ) ;
#324 = PLANE ( 'NONE',  #528 ) ;
#325 =( NAMED_UNIT ( * ) SI_UNIT ( $, .STERADIAN. ) SOLID_ANGLE_UNIT ( ) );
#326 = CARTESIAN_POINT ( 'NONE',  ( -0.3750000000000000000, -4.526858932953434334, -7.750000000000001776 ) ) ;
#327 = ORIENTED_EDGE ( 'NONE', *, *, #542, .F. ) ;
#328 = DIRECTION ( 'NONE',  ( -1.000000000000000000, 1.445602896647338917E-16, 0.000000000000000000 ) ) ;
#329 = ADVANCED_FACE ( 'NONE', ( #197, #278 ), #405, .F. ) ;
#330 = DIRECTION ( 'NONE',  ( -0.000000000000000000, -0.000000000000000000, -1.000000000000000000 ) ) ;
#331 = DIRECTION ( 'NONE',  ( -1.000000000000000000, 0.000000000000000000, 0.000000000000000000 ) ) ;
#332 = CLOSED_SHELL ( 'NONE', ( #62, #329, #95, #266, #345, #509, #350 ) ) ;
#333 = LINE ( 'NONE', #411, #186 ) ;
#334 = AXIS2_PLACEMENT_3D ( 'NONE', #338, #540, #34 ) ;
#335 = SURFACE_SIDE_STYLE ('',( #125 ) ) ;
#336 = FACE_BOUND ( 'NONE', #475, .T. ) ;
#337 = EDGE_CURVE ( 'NONE', #460, #149, #150, .T. ) ;
#338 = CARTESIAN_POINT ( 'NONE',  ( 3.776858932953434334, 0.000000000000000000, -8.000000000000001776 ) ) ;
#339 = CYLINDRICAL_SURFACE ( 'NONE', #64, 0.2500000000000002220 ) ;
#340 = PRESENTATION_STYLE_ASSIGNMENT (( #268 ) ) ;
#341 = ORIENTED_EDGE ( 'NONE', *, *, #337, .T. ) ;
#342 =( LENGTH_UNIT ( ) NAMED_UNIT ( * ) SI_UNIT ( .MILLI., .METRE. ) );
#343 = ORIENTED_EDGE ( 'NONE', *, *, #228, .T. ) ;
#344 = CARTESIAN_POINT ( 'NONE',  ( 15.49999999999967315, 0.000000000000000000, -8.000000000000001776 ) ) ;
#345 = ADVANCED_FACE ( 'NONE', ( #483 ), #200, .F. ) ;
#346 = FACE_OUTER_BOUND ( 'NONE', #192, .T. ) ;
#347 = VECTOR ( 'NONE', #391, 1000.000000000000000 ) ;
#348 = ORIENTED_EDGE ( 'NONE', *, *, #134, .T. ) ;
#349 = CARTESIAN_POINT ( 'NONE',  ( 0.3750000000000000000, -4.526858932953435222, -7.750000000000001776 ) ) ;
#350 = ADVANCED_FACE ( 'NONE', ( #526, #113 ), #273, .F. ) ;
#351 = VERTEX_POINT ( 'NONE', #103 ) ;
#352 = DIRECTION ( 'NONE',  ( -0.000000000000000000, -0.000000000000000000, -1.000000000000000000 ) ) ;
#353 = PLANE ( 'NONE',  #283 ) ;
#354 = VERTEX_POINT ( 'NONE', #403 ) ;
#355 = PLANE ( 'NONE',  #424 ) ;
#356 = EDGE_CURVE ( 'NONE', #129, #129, #248, .T. ) ;
#357 = ORIENTED_EDGE ( 'NONE', *, *, #88, .T. ) ;
#358 = CARTESIAN_POINT ( 'NONE',  ( 3.026858932953434334, 0.3750000000000000000, -8.000000000000001776 ) ) ;
#359 = ORIENTED_EDGE ( 'NONE', *, *, #168, .F. ) ;
#360 = CARTESIAN_POINT ( 'NONE',  ( 0.000000000000000000, 0.000000000000000000, 0.000000000000000000 ) ) ;
#361 = FACE_OUTER_BOUND ( 'NONE', #247, .T. ) ;
#362 = ORIENTED_EDGE ( 'NONE', *, *, #463, .T. ) ;
#363 = DIRECTION ( 'NONE',  ( 1.000000000000000000, 0.000000000000000000, -0.000000000000000000 ) ) ;
#364 = VECTOR ( 'NONE', #280, 1000.000000000000000 ) ;
#365 = EDGE_LOOP ( 'NONE', ( #82, #388, #106, #438 ) ) ;
#366 = DIRECTION ( 'NONE',  ( -0.000000000000000000, -0.000000000000000000, -1.000000000000000000 ) ) ;
#367 = ADVANCED_FACE ( 'NONE', ( #80 ), #498, .F. ) ;
#368 = PRODUCT_DEFINITION_SHAPE ( 'NONE', 'NONE',  #308 ) ;
#369 = DIRECTION ( 'NONE',  ( 1.000000000000000000, 0.000000000000000000, -0.000000000000000000 ) ) ;
#370 = LINE ( 'NONE', #206, #188 ) ;
#371 = PLANE ( 'NONE',  #132 ) ;
#372 = DIRECTION ( 'NONE',  ( -0.000000000000000000, -0.000000000000000000, -1.000000000000000000 ) ) ;
#373 = DIRECTION ( 'NONE',  ( 1.000000000000000000, 0.000000000000000000, 0.000000000000000000 ) ) ;
#374 = VECTOR ( 'NONE', #133, 1000.000000000000000 ) ;
#375 = EDGE_CURVE ( 'NONE', #468, #468, #141, .T. ) ;
#376 = DIRECTION ( 'NONE',  ( -0.000000000000000000, -0.000000000000000000, -1.000000000000000000 ) ) ;
#377 = MANIFOLD_SOLID_BREP ( 'Cut-Extrude1', #44 ) ;
#378 = FILL_AREA_STYLE_COLOUR ( '', #223 ) ;
#379 = FACE_BOUND ( 'NONE', #505, .T. ) ;
#380 = ORIENTED_EDGE ( 'NONE', *, *, #337, .F. ) ;
#381 =( NAMED_UNIT ( * ) SI_UNIT ( $, .STERADIAN. ) SOLID_ANGLE_UNIT ( ) );
#382 = DIRECTION ( 'NONE',  ( -0.000000000000000000, -0.000000000000000000, -1.000000000000000000 ) ) ;
#383 = MECHANICAL_DESIGN_GEOMETRIC_PRESENTATION_REPRESENTATION (  '', ( #311 ), #425 ) ;
#384 = ORIENTED_EDGE ( 'NONE', *, *, #235, .T. ) ;
#385 = CARTESIAN_POINT ( 'NONE',  ( 15.49999999999967315, 0.000000000000000000, -9.250000000000001776 ) ) ;
#386 = ADVANCED_FACE ( 'NONE', ( #208 ), #210, .F. ) ;
#387 = CARTESIAN_POINT ( 'NONE',  ( -0.3750000000000000000, -4.526858932953434334, -8.000000000000001776 ) ) ;
#388 = ORIENTED_EDGE ( 'NONE', *, *, #145, .F. ) ;
#389 = VERTEX_POINT ( 'NONE', #122 ) ;
#390 = EDGE_CURVE ( 'NONE', #513, #513, #452, .T. ) ;
#391 = DIRECTION ( 'NONE',  ( 1.000000000000000000, -1.156482317317871331E-15, 0.000000000000000000 ) ) ;
#392 = AXIS2_PLACEMENT_3D ( 'NONE', #439, #493, #22 ) ;
#393 = DIRECTION ( 'NONE',  ( -0.000000000000000000, 1.000000000000000000, -0.000000000000000000 ) ) ;
#394 = MANIFOLD_SOLID_BREP ( 'Boss-Extrude2[2]', #332 ) ;
#395 = ORIENTED_EDGE ( 'NONE', *, *, #482, .F. ) ;
#396 = DIRECTION ( 'NONE',  ( -0.000000000000000000, -0.000000000000000000, -1.000000000000000000 ) ) ;
#397 = LINE ( 'NONE', #10, #240 ) ;
#398 = ORIENTED_EDGE ( 'NONE', *, *, #542, .T. ) ;
#399 = LINE ( 'NONE', #358, #198 ) ;
#400 = ORIENTED_EDGE ( 'NONE', *, *, #482, .T. ) ;
#401 = APPLICATION_PROTOCOL_DEFINITION ( 'draft international standard', 'automotive_design', 1998, #551 ) ;
#402 = VECTOR ( 'NONE', #372, 1000.000000000000000 ) ;
#403 = CARTESIAN_POINT ( 'NONE',  ( 3.026858932953434334, -0.3750000000000000000, -7.750000000000001776 ) ) ;
#404 = EDGE_LOOP ( 'NONE', ( #11 ) ) ;
#405 = PLANE ( 'NONE',  #418 ) ;
#406 = ORIENTED_EDGE ( 'NONE', *, *, #550, .T. ) ;
#407 = CYLINDRICAL_SURFACE ( 'NONE', #16, 15.49999999999967315 ) ;
#408 = CARTESIAN_POINT ( 'NONE',  ( 0.000000000000000000, 0.000000000000000000, -7.750000000000001776 ) ) ;
#409 = CARTESIAN_POINT ( 'NONE',  ( -0.3750000000000002220, -3.026858932953434334, -8.000000000000001776 ) ) ;
#410 = VECTOR ( 'NONE', #221, 1000.000000000000000 ) ;
#411 = CARTESIAN_POINT ( 'NONE',  ( 3.026858932953434334, -0.3750000000000000000, -8.000000000000001776 ) ) ;
#412 = SURFACE_STYLE_USAGE ( .BOTH. , #335 ) ;
#413 = DIRECTION ( 'NONE',  ( -1.000000000000000000, 0.000000000000000000, 0.000000000000000000 ) ) ;
#414 = FILL_AREA_STYLE ('',( #38 ) ) ;
#415 = ORIENTED_EDGE ( 'NONE', *, *, #145, .T. ) ;
#416 = SURFACE_STYLE_USAGE ( .BOTH. , #162 ) ;
#417 = CARTESIAN_POINT ( 'NONE',  ( -0.3750000000000002220, -3.026858932953434334, -7.750000000000001776 ) ) ;
#418 = AXIS2_PLACEMENT_3D ( 'NONE', #443, #70, #363 ) ;
#419 = CARTESIAN_POINT ( 'NONE',  ( 3.776858932953434334, 0.000000000000000000, -9.250000000000001776 ) ) ;
#420 = CARTESIAN_POINT ( 'NONE',  ( 4.526858932953434334, -0.3750000000000000000, -8.000000000000001776 ) ) ;
#421 = CARTESIAN_POINT ( 'NONE',  ( 4.526858932953434334, 0.3750000000000000000, -8.000000000000001776 ) ) ;
#422 = EDGE_CURVE ( 'NONE', #304, #521, #370, .T. ) ;
#423 = VERTEX_POINT ( 'NONE', #385 ) ;
#424 = AXIS2_PLACEMENT_3D ( 'NONE', #326, #522, #320 ) ;
#425 =( GEOMETRIC_REPRESENTATION_CONTEXT ( 3 ) GLOBAL_UNCERTAINTY_ASSIGNED_CONTEXT ( ( #254 ) ) GLOBAL_UNIT_ASSIGNED_CONTEXT ( ( #40, #501, #381 ) ) REPRESENTATION_CONTEXT ( 'NONE', 'WORKASPACE' ) );
#426 = ORIENTED_EDGE ( 'NONE', *, *, #187, .F. ) ;
#427 = AXIS2_PLACEMENT_3D ( 'NONE', #225, #260, #514 ) ;
#428 = VERTEX_POINT ( 'NONE', #303 ) ;
#429 = VERTEX_POINT ( 'NONE', #495 ) ;
#430 = EDGE_LOOP ( 'NONE', ( #309 ) ) ;
#431 = CARTESIAN_POINT ( 'NONE',  ( 0.2500000000000001110, -3.776858932953434334, -8.000000000000001776 ) ) ;
#432 = EDGE_LOOP ( 'NONE', ( #523 ) ) ;
#433 = CIRCLE ( 'NONE', #503, 15.49999999999967315 ) ;
#434 = AXIS2_PLACEMENT_3D ( 'NONE', #419, #456, #32 ) ;
#435 = CARTESIAN_POINT ( 'NONE',  ( 0.000000000000000000, -3.776858932953434334, -7.750000000000001776 ) ) ;
#436 = ORIENTED_EDGE ( 'NONE', *, *, #519, .F. ) ;
#437 = FACE_OUTER_BOUND ( 'NONE', #100, .T. ) ;
#438 = ORIENTED_EDGE ( 'NONE', *, *, #9, .T. ) ;
#439 = CARTESIAN_POINT ( 'NONE',  ( 0.000000000000000000, 0.000000000000000000, -8.000000000000001776 ) ) ;
#440 = ORIENTED_EDGE ( 'NONE', *, *, #18, .T. ) ;
#441 = CIRCLE ( 'NONE', #275, 0.2500000000000001110 ) ;
#442 = VECTOR ( 'NONE', #179, 1000.000000000000000 ) ;
#443 = CARTESIAN_POINT ( 'NONE',  ( 0.000000000000000000, 0.000000000000000000, -8.000000000000001776 ) ) ;
#444 = ORIENTED_EDGE ( 'NONE', *, *, #111, .F. ) ;
#445 = CARTESIAN_POINT ( 'NONE',  ( 0.3750000000000002220, -3.026858932953434334, -8.000000000000001776 ) ) ;
#446 = EDGE_CURVE ( 'NONE', #486, #102, #75, .T. ) ;
#447 = CARTESIAN_POINT ( 'NONE',  ( 3.026858932953434334, -0.3750000000000000000, -8.000000000000001776 ) ) ;
#448 = FACE_OUTER_BOUND ( 'NONE', #96, .T. ) ;
#449 = ORIENTED_EDGE ( 'NONE', *, *, #250, .F. ) ;
#450 = PRODUCT ( 'Part3_PC', 'Part3_PC', '', ( #272 ) ) ;
#451 = DIRECTION ( 'NONE',  ( -1.000000000000000000, -0.000000000000000000, -0.000000000000000000 ) ) ;
#452 = CIRCLE ( 'NONE', #434, 0.2500000000000002220 ) ;
#453 = DIRECTION ( 'NONE',  ( 1.445602896647338917E-16, 1.000000000000000000, -0.000000000000000000 ) ) ;
#454 = EDGE_CURVE ( 'NONE', #460, #304, #536, .T. ) ;
#455 = CARTESIAN_POINT ( 'NONE',  ( 0.000000000000000000, -3.776858932953434334, -8.000000000000001776 ) ) ;
#456 = DIRECTION ( 'NONE',  ( -0.000000000000000000, -0.000000000000000000, -1.000000000000000000 ) ) ;
#457 = CARTESIAN_POINT ( 'NONE',  ( -0.3750000000000002220, -3.026858932953434334, -7.750000000000001776 ) ) ;
#458 = PRESENTATION_LAYER_ASSIGNMENT (  '', '', ( #214 ) ) ;
#459 = CARTESIAN_POINT ( 'NONE',  ( 3.776858932953434334, 0.000000000000000000, -7.750000000000001776 ) ) ;
#460 = VERTEX_POINT ( 'NONE', #256 ) ;
#461 = DIRECTION ( 'NONE',  ( 0.000000000000000000, 0.000000000000000000, 1.000000000000000000 ) ) ;
#462 = CARTESIAN_POINT ( 'NONE',  ( 0.000000000000000000, 0.000000000000000000, -8.000000000000001776 ) ) ;
#463 = EDGE_CURVE ( 'NONE', #351, #516, #139, .T. ) ;
#464 = LINE ( 'NONE', #172, #442 ) ;
#465 = UNCERTAINTY_MEASURE_WITH_UNIT (LENGTH_MEASURE( 1.000000000000000082E-05 ), #48, 'distance_accuracy_value', 'NONE');
#466 = DIRECTION ( 'NONE',  ( 1.000000000000000000, 0.000000000000000000, -0.000000000000000000 ) ) ;
#467 = EDGE_LOOP ( 'NONE', ( #181 ) ) ;
#468 = VERTEX_POINT ( 'NONE', #131 ) ;
#469 = VECTOR ( 'NONE', #284, 1000.000000000000000 ) ;
#470 = ORIENTED_EDGE ( 'NONE', *, *, #9, .F. ) ;
#471 = VERTEX_POINT ( 'NONE', #259 ) ;
#472 = ADVANCED_FACE ( 'NONE', ( #517, #305 ), #97, .F. ) ;
#473 = ORIENTED_EDGE ( 'NONE', *, *, #158, .F. ) ;
#474 = LINE ( 'NONE', #94, #410 ) ;
#475 = EDGE_LOOP ( 'NONE', ( #144 ) ) ;
#476 = VERTEX_POINT ( 'NONE', #431 ) ;
#477 = CARTESIAN_POINT ( 'NONE',  ( -0.3750000000000002220, -3.026858932953434334, -8.000000000000001776 ) ) ;
#478 = ORIENTED_EDGE ( 'NONE', *, *, #72, .F. ) ;
#479 = AXIS2_PLACEMENT_3D ( 'NONE', #547, #252, #466 ) ;
#480 = DIRECTION ( 'NONE',  ( 0.000000000000000000, -0.000000000000000000, -1.000000000000000000 ) ) ;
#481 = ORIENTED_EDGE ( 'NONE', *, *, #446, .F. ) ;
#482 = EDGE_CURVE ( 'NONE', #351, #199, #464, .T. ) ;
#483 = FACE_OUTER_BOUND ( 'NONE', #244, .T. ) ;
#484 = EDGE_LOOP ( 'NONE', ( #219 ) ) ;
#485 = CARTESIAN_POINT ( 'NONE',  ( 0.000000000000000000, 0.000000000000000000, -8.000000000000001776 ) ) ;
#486 = VERTEX_POINT ( 'NONE', #349 ) ;
#487 = VECTOR ( 'NONE', #6, 1000.000000000000000 ) ;
#488 = DIRECTION ( 'NONE',  ( 1.445602896647339656E-16, -1.000000000000000000, 0.000000000000000000 ) ) ;
#489 = EDGE_CURVE ( 'NONE', #354, #460, #474, .T. ) ;
#490 = CARTESIAN_POINT ( 'NONE',  ( 0.000000000000000000, 0.000000000000000000, -8.000000000000001776 ) ) ;
#491 = LINE ( 'NONE', #409, #15 ) ;
#492 = DIRECTION ( 'NONE',  ( 1.000000000000000000, 0.000000000000000000, -0.000000000000000000 ) ) ;
#493 = DIRECTION ( 'NONE',  ( 0.000000000000000000, 0.000000000000000000, 1.000000000000000000 ) ) ;
#494 = LINE ( 'NONE', #31, #220 ) ;
#495 = CARTESIAN_POINT ( 'NONE',  ( -0.3750000000000000000, -4.526858932953434334, -8.000000000000001776 ) ) ;
#496 = AXIS2_PLACEMENT_3D ( 'NONE', #462, #140, #211 ) ;
#497 = CARTESIAN_POINT ( 'NONE',  ( 0.3750000000000000000, -4.526858932953435222, -8.000000000000001776 ) ) ;
#498 = PLANE ( 'NONE',  #504 ) ;
#499 = DIRECTION ( 'NONE',  ( -1.445602896647339656E-16, 1.000000000000000000, 0.000000000000000000 ) ) ;
#500 = CARTESIAN_POINT ( 'NONE',  ( -0.3750000000000000000, -4.526858932953434334, -7.750000000000001776 ) ) ;
#501 =( NAMED_UNIT ( * ) PLANE_ANGLE_UNIT ( ) SI_UNIT ( $, .RADIAN. ) );
#502 = EDGE_CURVE ( 'NONE', #428, #428, #26, .T. ) ;
#503 = AXIS2_PLACEMENT_3D ( 'NONE', #530, #146, #237 ) ;
#504 = AXIS2_PLACEMENT_3D ( 'NONE', #246, #296, #243 ) ;
#505 = EDGE_LOOP ( 'NONE', ( #348 ) ) ;
#506 = DIRECTION ( 'NONE',  ( 1.000000000000000000, 0.000000000000000000, 0.000000000000000000 ) ) ;
#507 = VERTEX_POINT ( 'NONE', #549 ) ;
#508 = ORIENTED_EDGE ( 'NONE', *, *, #195, .F. ) ;
#509 = ADVANCED_FACE ( 'NONE', ( #346 ), #170, .F. ) ;
#510 = VERTEX_POINT ( 'NONE', #50 ) ;
#511 = CIRCLE ( 'NONE', #310, 3.050000000000000711 ) ;
#512 = ORIENTED_EDGE ( 'NONE', *, *, #18, .F. ) ;
#513 = VERTEX_POINT ( 'NONE', #89 ) ;
#514 = DIRECTION ( 'NONE',  ( 0.000000000000000000, -0.000000000000000000, -1.000000000000000000 ) ) ;
#515 =( LENGTH_UNIT ( ) NAMED_UNIT ( * ) SI_UNIT ( .MILLI., .METRE. ) );
#516 = VERTEX_POINT ( 'NONE', #216 ) ;
#517 = FACE_OUTER_BOUND ( 'NONE', #467, .T. ) ;
#518 = FACE_BOUND ( 'NONE', #484, .T. ) ;
#519 = EDGE_CURVE ( 'NONE', #233, #49, #92, .T. ) ;
#520 = CLOSED_SHELL ( 'NONE', ( #151, #127, #55, #367, #386, #212, #472 ) ) ;
#521 = VERTEX_POINT ( 'NONE', #43 ) ;
#522 = DIRECTION ( 'NONE',  ( 1.156482317317871331E-15, 1.000000000000000000, -0.000000000000000000 ) ) ;
#523 = ORIENTED_EDGE ( 'NONE', *, *, #134, .F. ) ;
#524 = CARTESIAN_POINT ( 'NONE',  ( 4.526858932953434334, 0.3750000000000000000, -7.750000000000001776 ) ) ;
#525 = ORIENTED_EDGE ( 'NONE', *, *, #187, .T. ) ;
#526 = FACE_OUTER_BOUND ( 'NONE', #166, .T. ) ;
#527 = FACE_BOUND ( 'NONE', #63, .T. ) ;
#528 = AXIS2_PLACEMENT_3D ( 'NONE', #490, #69, #137 ) ;
#529 = PRESENTATION_LAYER_ASSIGNMENT (  '', '', ( #90 ) ) ;
#530 = CARTESIAN_POINT ( 'NONE',  ( 0.000000000000000000, 0.000000000000000000, -8.000000000000001776 ) ) ;
#531 = FACE_OUTER_BOUND ( 'NONE', #261, .T. ) ;
#532 = CARTESIAN_POINT ( 'NONE',  ( 0.3750000000000002220, -3.026858932953434334, -7.750000000000001776 ) ) ;
#533 = CARTESIAN_POINT ( 'NONE',  ( 0.3750000000000002220, -3.026858932953434334, -8.000000000000001776 ) ) ;
#534 = DIRECTION ( 'NONE',  ( 0.000000000000000000, 0.000000000000000000, 1.000000000000000000 ) ) ;
#535 = VECTOR ( 'NONE', #112, 1000.000000000000000 ) ;
#536 = LINE ( 'NONE', #160, #159 ) ;
#537 = VECTOR ( 'NONE', #81, 1000.000000000000000 ) ;
#538 = PRESENTATION_LAYER_ASSIGNMENT (  '', '', ( #311 ) ) ;
#539 = CARTESIAN_POINT ( 'NONE',  ( 0.000000000000000000, 0.000000000000000000, -9.250000000000001776 ) ) ;
#540 = DIRECTION ( 'NONE',  ( 0.000000000000000000, 0.000000000000000000, 1.000000000000000000 ) ) ;
#541 = CARTESIAN_POINT ( 'NONE',  ( 3.026858932953434334, 0.3750000000000000000, -7.750000000000001776 ) ) ;
#542 = EDGE_CURVE ( 'NONE', #429, #102, #253, .T. ) ;
#543 = PRESENTATION_STYLE_ASSIGNMENT (( #412 ) ) ;
#544 = LINE ( 'NONE', #500, #487 ) ;
#545 = CARTESIAN_POINT ( 'NONE',  ( 4.526858932953434334, 0.3750000000000000000, -7.750000000000001776 ) ) ;
#546 = AXIS2_PLACEMENT_3D ( 'NONE', #545, #331, #251 ) ;
#547 = CARTESIAN_POINT ( 'NONE',  ( 0.000000000000000000, 0.000000000000000000, -9.250000000000001776 ) ) ;
#548 = AXIS2_PLACEMENT_3D ( 'NONE', #307, #352, #5 ) ;
#549 = CARTESIAN_POINT ( 'NONE',  ( 3.050000000000000711, 0.000000000000000000, -8.000000000000001776 ) ) ;
#550 = EDGE_CURVE ( 'NONE', #471, #471, #167, .T. ) ;
#551 = APPLICATION_CONTEXT ( 'automotive_design' ) ;
ENDSEC;
END-ISO-10303-21;
