ISO-10303-21;
HEADER;
FILE_DESCRIPTION (( 'STEP AP214' ),
    '1' );
FILE_NAME ('PC Fan Assembly.STEP',
    '2025-07-16T13:04:42',
    ( '' ),
    ( '' ),
    'SwSTEP 2.0',
    'SolidWorks 2025',
    '' );
FILE_SCHEMA (( 'AUTOMOTIVE_DESIGN' ));
ENDSEC;

DATA;
#1 = ITEM_DEFINED_TRANSFORMATION ( 'NONE', 'NONE', #233,  #59 ) ;
#2 = SHAPE_REPRESENTATION ( 'Part2_PC', ( #77 ), #144 ) ;
#3 = DOCUMENT_FILE ( 'Part1_PC.STEP' , '', '', #61, '' ,$ ) ;
#4 = CARTESIAN_POINT ( 'NONE',  ( 0.000000000000000000, 0.000000000000000000, 0.000000000000000000 ) ) ;
#5 = PRODUCT_DEFINITION_CONTEXT ( 'detailed design', #171, 'design' ) ;
#6 = DIRECTION ( 'NONE',  ( 1.000000000000000000, 0.000000000000000000, 0.000000000000000000 ) ) ;
#7 = OBJECT_ROLE ('mandatory',$ ) ;
#8 =( GEOMETRIC_REPRESENTATION_CONTEXT ( 3 ) GLOBAL_UNCERTAINTY_ASSIGNED_CONTEXT ( ( #73 ) ) GLOBAL_UNIT_ASSIGNED_CONTEXT ( ( #266, #101, #287 ) ) REPRESENTATION_CONTEXT ( 'NONE', 'WORKASPACE' ) );
#9 = PROPERTY_DEFINITION ('document property','', #176 ) ;
#10 = DIRECTION ( 'NONE',  ( 0.000000000000000000, 0.000000000000000000, 1.000000000000000000 ) ) ;
#11 = APPLICATION_PROTOCOL_DEFINITION ( 'draft international standard', 'automotive_design', 1998, #95 ) ;
#12 = SHAPE_REPRESENTATION ( 'Part3_PC', ( #212 ), #208 ) ;
#13 = PRODUCT_DEFINITION_FORMATION_WITH_SPECIFIED_SOURCE ( 'Symmetric', '', #50, .NOT_KNOWN. ) ;
#14 = PRODUCT_CONTEXT ( 'NONE', #187, 'mechanical' ) ;
#15 = IDENTIFICATION_ROLE ( 'external document id and location', $) ;
#16 = APPLICATION_PROTOCOL_DEFINITION ( 'draft international standard', 'automotive_design', 1998, #171 ) ;
#17 = OBJECT_ROLE ('mandatory',$ ) ;
#18 =( LENGTH_UNIT ( ) NAMED_UNIT ( * ) SI_UNIT ( .MILLI., .METRE. ) );
#19 = APPLIED_DOCUMENT_REFERENCE ( #176,'',( #259) ) ;
#20 =( NAMED_UNIT ( * ) SI_UNIT ( $, .STERADIAN. ) SOLID_ANGLE_UNIT ( ) );
#21 = PRODUCT_RELATED_PRODUCT_CATEGORY ( 'part', '', ( #56 ) ) ;
#22 = ITEM_DEFINED_TRANSFORMATION ( 'NONE', 'NONE', #89,  #77 ) ;
#23 = IDENTIFICATION_ROLE ( 'external document id and location', $) ;
#24 = AXIS2_PLACEMENT_3D ( 'NONE', #174, #109, #264 ) ;
#25 = APPLIED_EXTERNAL_IDENTIFICATION_ASSIGNMENT ( 'Part10_DCM.STEP' , #162, #92,( #263) ) ;
#26 = CARTESIAN_POINT ( 'NONE',  ( 0.000000000000000000, 0.000000000000000000, 0.000000000000000000 ) ) ;
#27 = DIRECTION ( 'NONE',  ( 0.000000000000000000, 0.000000000000000000, 1.000000000000000000 ) ) ;
#28 = PROPERTY_DEFINITION_REPRESENTATION ( #34, #136 ) ;
#29 = APPLICATION_CONTEXT ( 'automotive_design' ) ;
#30 = DIRECTION ( 'NONE',  ( 1.000000000000000000, 0.000000000000000000, 0.000000000000000000 ) ) ;
#31 =( REPRESENTATION_RELATIONSHIP ('NONE','NONE', #33, #136 ) REPRESENTATION_RELATIONSHIP_WITH_TRANSFORMATION ( #1 )SHAPE_REPRESENTATION_RELATIONSHIP( ) );
#32 = PRODUCT_CONTEXT ( 'NONE', #204, 'mechanical' ) ;
#33 = SHAPE_REPRESENTATION ( 'PC Fan Assembly', ( #237, #283, #277, #36, #131, #233, #100, #89 ), #226 ) ;
#34 = PROPERTY_DEFINITION ('external definition','', #265 ) ;
#35 = DIRECTION ( 'NONE',  ( -0.8354837999669146864, -0.5495150771296856140, 6.729618803417464760E-17 ) ) ;
#36 = AXIS2_PLACEMENT_3D ( 'NONE', #108, #79, #155 ) ;
#37 = APPLICATION_PROTOCOL_DEFINITION ( 'draft international standard', 'automotive_design', 1998, #44 ) ;
#38 = PRODUCT ( 'Part10_DCM', 'Part10_DCM', '', ( #14 ) ) ;
#39 = DOCUMENT_TYPE ( 'geometry' ) ;
#40 = PRODUCT_RELATED_PRODUCT_CATEGORY ( 'part', '', ( #38 ) ) ;
#41 = PRODUCT_DEFINITION_CONTEXT ( 'detailed design', #69, 'design' ) ;
#42 = PRODUCT_CONTEXT ( 'NONE', #29, 'mechanical' ) ;
#43 = CONTEXT_DEPENDENT_SHAPE_REPRESENTATION ( #31, #271 ) ;
#44 = APPLICATION_CONTEXT ( 'automotive_design' ) ;
#45 =( GEOMETRIC_REPRESENTATION_CONTEXT ( 3 ) GLOBAL_UNCERTAINTY_ASSIGNED_CONTEXT ( ( #197 ) ) GLOBAL_UNIT_ASSIGNED_CONTEXT ( ( #188, #160, #115 ) ) REPRESENTATION_CONTEXT ( 'NONE', 'WORKASPACE' ) );
#46 = PROPERTY_DEFINITION_REPRESENTATION ( #99, #136 ) ;
#47 = SHAPE_REPRESENTATION ( 'Part1_PC', ( #24 ), #8 ) ;
#48 = EXTERNAL_SOURCE (IDENTIFIER('') ) ;
#49 = APPLICATION_PROTOCOL_DEFINITION ( 'draft international standard', 'automotive_design', 1998, #130 ) ;
#50 = PRODUCT ( 'ISO 1224 - 170204 - R,12,DE,NC,12_68_ISO 1224 - 170204 - R,12,DE,NC,12_68', 'ISO 1224 - 170204 - R,12,DE,NC,12_68_ISO 1224 - 170204 - R,12,DE,NC,12_68', '', ( #167 ) ) ;
#51 = PRODUCT_DEFINITION_CONTEXT ( 'detailed design', #44, 'design' ) ;
#52 = CONTEXT_DEPENDENT_SHAPE_REPRESENTATION ( #75, #114 ) ;
#53 = OBJECT_ROLE ('mandatory',$ ) ;
#54 = PROPERTY_DEFINITION ('external definition','', #263 ) ;
#55 = DIRECTION ( 'NONE',  ( 1.000000000000000000, 0.000000000000000000, 0.000000000000000000 ) ) ;
#56 = PRODUCT ( 'Part4_PC wires', 'Part4_PC wires', '', ( #32 ) ) ;
#57 = DIRECTION ( 'NONE',  ( -0.5495150771296856140, 0.8354837999669146864, -1.023172561287239684E-16 ) ) ;
#58 = PROPERTY_DEFINITION ('external definition','', #313 ) ;
#59 = AXIS2_PLACEMENT_3D ( 'NONE', #143, #222, #30 ) ;
#60 = PROPERTY_DEFINITION_REPRESENTATION ( #105, #275 ) ;
#61 = DOCUMENT_TYPE ( 'geometry' ) ;
#62 = PRODUCT_CONTEXT ( 'NONE', #255, 'mechanical' ) ;
#63 = PRODUCT_CONTEXT ( 'NONE', #82, 'mechanical' ) ;
#64 = AXIS2_PLACEMENT_3D ( 'NONE', #205, #224, #293 ) ;
#65 =( GEOMETRIC_REPRESENTATION_CONTEXT ( 3 ) GLOBAL_UNCERTAINTY_ASSIGNED_CONTEXT ( ( #172 ) ) GLOBAL_UNIT_ASSIGNED_CONTEXT ( ( #18, #289, #314 ) ) REPRESENTATION_CONTEXT ( 'NONE', 'WORKASPACE' ) );
#66 = APPLICATION_PROTOCOL_DEFINITION ( 'draft international standard', 'automotive_design', 1998, #29 ) ;
#67 = APPLIED_EXTERNAL_IDENTIFICATION_ASSIGNMENT ( 'Part3_PC.STEP' , #285, #273,( #176) ) ;
#68 = CONTEXT_DEPENDENT_SHAPE_REPRESENTATION ( #261, #83 ) ;
#69 = APPLICATION_CONTEXT ( 'automotive_design' ) ;
#70 = DIRECTION ( 'NONE',  ( 0.000000000000000000, 0.000000000000000000, 1.000000000000000000 ) ) ;
#71 = PRODUCT_RELATED_PRODUCT_CATEGORY ( 'part', '', ( #81 ) ) ;
#72 = DIRECTION ( 'NONE',  ( 1.000000000000000000, 0.000000000000000000, 0.000000000000000000 ) ) ;
#73 = UNCERTAINTY_MEASURE_WITH_UNIT (LENGTH_MEASURE( 1.000000000000000082E-05 ), #266, 'distance_accuracy_value', 'NONE');
#74 = PROPERTY_DEFINITION ('document property','', #263 ) ;
#75 =( REPRESENTATION_RELATIONSHIP ('NONE','NONE', #33, #218 ) REPRESENTATION_RELATIONSHIP_WITH_TRANSFORMATION ( #269 )SHAPE_REPRESENTATION_RELATIONSHIP( ) );
#76 = DIRECTION ( 'NONE',  ( 1.000000000000000000, 0.000000000000000000, 0.000000000000000000 ) ) ;
#77 = AXIS2_PLACEMENT_3D ( 'NONE', #106, #145, #6 ) ;
#78 = PROPERTY_DEFINITION_REPRESENTATION ( #268, #201 ) ;
#79 = DIRECTION ( 'NONE',  ( -0.5984468099024796706, 0.8011625401362353349, -9.050847799007874626E-17 ) ) ;
#80 = PROPERTY_DEFINITION_REPRESENTATION ( #58, #201 ) ;
#81 = PRODUCT ( 'Part1_PC', 'Part1_PC', '', ( #42 ) ) ;
#82 = APPLICATION_CONTEXT ( 'automotive_design' ) ;
#83 = PRODUCT_DEFINITION_SHAPE ( 'NONE', 'NONE',  #320 ) ;
#84 = PRODUCT_DEFINITION_FORMATION_WITH_SPECIFIED_SOURCE ( 'Symmetric', '', #56, .NOT_KNOWN. ) ;
#85 = PRODUCT_DEFINITION_SHAPE ( 'NONE', 'NONE',  #318 ) ;
#86 = ITEM_DEFINED_TRANSFORMATION ( 'NONE', 'NONE', #283,  #203 ) ;
#87 = DOCUMENT_TYPE ( 'geometry' ) ;
#88 = PRODUCT_DEFINITION_SHAPE ( 'NONE', 'NONE',  #292 ) ;
#89 = AXIS2_PLACEMENT_3D ( 'NONE', #242, #57, #35 ) ;
#90 = SHAPE_DEFINITION_REPRESENTATION ( #154, #218 ) ;
#91 = APPLICATION_PROTOCOL_DEFINITION ( 'draft international standard', 'automotive_design', 1998, #187 ) ;
#92 = EXTERNAL_SOURCE (IDENTIFIER('') ) ;
#93 = PRODUCT_DEFINITION_FORMATION_WITH_SPECIFIED_SOURCE ( 'Symmetric', '', #191, .NOT_KNOWN. ) ;
#94 = DOCUMENT_FILE ( 'Part2_PC.STEP' , '', '', #87, '' ,$ ) ;
#95 = APPLICATION_CONTEXT ( 'automotive_design' ) ;
#96 = ROLE_ASSOCIATION ( #7, #19 ) ;
#97 = UNCERTAINTY_MEASURE_WITH_UNIT (LENGTH_MEASURE( 1.000000000000000082E-05 ), #177, 'distance_accuracy_value', 'NONE');
#98 = IDENTIFICATION_ROLE ( 'external document id and location', $) ;
#99 = PROPERTY_DEFINITION ('document property','', #265 ) ;
#100 = AXIS2_PLACEMENT_3D ( 'NONE', #135, #10, #215 ) ;
#101 =( NAMED_UNIT ( * ) PLANE_ANGLE_UNIT ( ) SI_UNIT ( $, .RADIAN. ) );
#102 = APPLIED_EXTERNAL_IDENTIFICATION_ASSIGNMENT ( 'Part2_PC.STEP' , #15, #48,( #94) ) ;
#103 =( LENGTH_UNIT ( ) NAMED_UNIT ( * ) SI_UNIT ( .MILLI., .METRE. ) );
#104 = PRODUCT_DEFINITION_CONTEXT ( 'detailed design', #149, 'design' ) ;
#105 = PROPERTY_DEFINITION ('external definition','', #239 ) ;
#106 = CARTESIAN_POINT ( 'NONE',  ( 0.000000000000000000, 0.000000000000000000, 0.000000000000000000 ) ) ;
#107 = ITEM_DEFINED_TRANSFORMATION ( 'NONE', 'NONE', #277,  #24 ) ;
#108 = CARTESIAN_POINT ( 'NONE',  ( 3.334151453237830369E-15, 2.748338462812066162E-15, 7.799999999999994493 ) ) ;
#109 = DIRECTION ( 'NONE',  ( 0.000000000000000000, 0.000000000000000000, 1.000000000000000000 ) ) ;
#110 = PROPERTY_DEFINITION_REPRESENTATION ( #290, #47 ) ;
#111 =( LENGTH_UNIT ( ) NAMED_UNIT ( * ) SI_UNIT ( .MILLI., .METRE. ) );
#112 = PRODUCT_CONTEXT ( 'NONE', #130, 'mechanical' ) ;
#113 = PRODUCT_DEFINITION_SHAPE ( 'NONE', 'NONE',  #238 ) ;
#114 = PRODUCT_DEFINITION_SHAPE ( 'NONE', 'NONE',  #322 ) ;
#115 =( NAMED_UNIT ( * ) SI_UNIT ( $, .STERADIAN. ) SOLID_ANGLE_UNIT ( ) );
#116 = DOCUMENT_TYPE ( 'geometry' ) ;
#117 = AXIS2_PLACEMENT_3D ( 'NONE', #236, #270, #55 ) ;
#118 = SHAPE_DEFINITION_REPRESENTATION ( #88, #275 ) ;
#119 = OBJECT_ROLE ('mandatory',$ ) ;
#120 = APPLICATION_PROTOCOL_DEFINITION ( 'draft international standard', 'automotive_design', 1998, #151 ) ;
#121 =( GEOMETRIC_REPRESENTATION_CONTEXT ( 3 ) GLOBAL_UNCERTAINTY_ASSIGNED_CONTEXT ( ( #183 ) ) GLOBAL_UNIT_ASSIGNED_CONTEXT ( ( #111, #252, #274 ) ) REPRESENTATION_CONTEXT ( 'NONE', 'WORKASPACE' ) );
#122 = APPLIED_EXTERNAL_IDENTIFICATION_ASSIGNMENT ( 'Part5.STEP' , #23, #179,( #265) ) ;
#123 = DIRECTION ( 'NONE',  ( 2.174298234116002136E-32, -1.000000000000000000, 2.449293598294706907E-16 ) ) ;
#124 = IDENTIFICATION_ROLE ( 'external document id and location', $) ;
#125 = APPLIED_DOCUMENT_REFERENCE ( #313,'',( #302) ) ;
#126 = PROPERTY_DEFINITION_REPRESENTATION ( #175, #2 ) ;
#127 = APPLIED_EXTERNAL_IDENTIFICATION_ASSIGNMENT ( 'Part4_PC wires.STEP' , #245, #235,( #239) ) ;
#128 = CARTESIAN_POINT ( 'NONE',  ( 0.000000000000000000, 0.000000000000000000, 0.000000000000000000 ) ) ;
#129 = PROPERTY_DEFINITION_REPRESENTATION ( #9, #12 ) ;
#130 = APPLICATION_CONTEXT ( 'automotive_design' ) ;
#131 = AXIS2_PLACEMENT_3D ( 'NONE', #4, #301, #272 ) ;
#132 = OBJECT_ROLE ('mandatory',$ ) ;
#133 = CONTEXT_DEPENDENT_SHAPE_REPRESENTATION ( #267, #178 ) ;
#134 = SHAPE_DEFINITION_REPRESENTATION ( #185, #201 ) ;
#135 = CARTESIAN_POINT ( 'NONE',  ( 8.121959936053724806E-17, 2.010550937245941212E-16, 1.399999999999998579 ) ) ;
#136 = SHAPE_REPRESENTATION ( 'Part5', ( #59 ), #121 ) ;
#137 = PRODUCT_DEFINITION_FORMATION_WITH_SPECIFIED_SOURCE ( 'Symmetric', '', #81, .NOT_KNOWN. ) ;
#138 = PRODUCT ( 'Part2_PC', 'Part2_PC', '', ( #63 ) ) ;
#139 =( LENGTH_UNIT ( ) NAMED_UNIT ( * ) SI_UNIT ( .MILLI., .METRE. ) );
#140 = APPLICATION_CONTEXT ( 'automotive_design' ) ;
#141 = PRODUCT_RELATED_PRODUCT_CATEGORY ( 'part', '', ( #191 ) ) ;
#142 = APPLICATION_PROTOCOL_DEFINITION ( 'draft international standard', 'automotive_design', 1998, #69 ) ;
#143 = CARTESIAN_POINT ( 'NONE',  ( 0.000000000000000000, 0.000000000000000000, 0.000000000000000000 ) ) ;
#144 =( GEOMETRIC_REPRESENTATION_CONTEXT ( 3 ) GLOBAL_UNCERTAINTY_ASSIGNED_CONTEXT ( ( #281 ) ) GLOBAL_UNIT_ASSIGNED_CONTEXT ( ( #206, #298, #295 ) ) REPRESENTATION_CONTEXT ( 'NONE', 'WORKASPACE' ) );
#145 = DIRECTION ( 'NONE',  ( 0.000000000000000000, 0.000000000000000000, 1.000000000000000000 ) ) ;
#146 =( REPRESENTATION_RELATIONSHIP ('NONE','NONE', #33, #201 ) REPRESENTATION_RELATIONSHIP_WITH_TRANSFORMATION ( #288 )SHAPE_REPRESENTATION_RELATIONSHIP( ) );
#147 = APPLIED_DOCUMENT_REFERENCE ( #94,'',( #284) ) ;
#148 = PROPERTY_DEFINITION ('external definition','', #176 ) ;
#149 = APPLICATION_CONTEXT ( 'automotive_design' ) ;
#150 = UNCERTAINTY_MEASURE_WITH_UNIT (LENGTH_MEASURE( 1.000000000000000082E-05 ), #103, 'distance_accuracy_value', 'NONE');
#151 = APPLICATION_CONTEXT ( 'automotive_design' ) ;
#152 = DIRECTION ( 'NONE',  ( 1.000000000000000000, 0.000000000000000000, 0.000000000000000000 ) ) ;
#153 = APPLIED_DOCUMENT_REFERENCE ( #3,'',( #238) ) ;
#154 = PRODUCT_DEFINITION_SHAPE ( 'NONE', 'NONE',  #254 ) ;
#155 = DIRECTION ( 'NONE',  ( 2.003997868212067133E-16, 1.651893891998234910E-16, 1.000000000000000000 ) ) ;
#156 = ROLE_ASSOCIATION ( #53, #207 ) ;
#157 = PROPERTY_DEFINITION ('external definition','', #3 ) ;
#158 = PRODUCT_DEFINITION_CONTEXT ( 'detailed design', #151, 'design' ) ;
#159 = PRODUCT_DEFINITION_SHAPE ( 'NONE', 'NONE',  #259 ) ;
#160 =( NAMED_UNIT ( * ) PLANE_ANGLE_UNIT ( ) SI_UNIT ( $, .RADIAN. ) );
#161 = PRODUCT_DEFINITION ( 'General', '', #312, #158 ) ;
#162 = IDENTIFICATION_ROLE ( 'external document id and location', $) ;
#163 = DIRECTION ( 'NONE',  ( 1.000000000000000000, 0.000000000000000000, 0.000000000000000000 ) ) ;
#164 =( GEOMETRIC_REPRESENTATION_CONTEXT ( 3 ) GLOBAL_UNCERTAINTY_ASSIGNED_CONTEXT ( ( #150 ) ) GLOBAL_UNIT_ASSIGNED_CONTEXT ( ( #103, #250, #20 ) ) REPRESENTATION_CONTEXT ( 'NONE', 'WORKASPACE' ) );
#165 = PRODUCT_RELATED_PRODUCT_CATEGORY ( 'part', '', ( #138 ) ) ;
#166 = EXTERNAL_SOURCE (IDENTIFIER('') ) ;
#167 = PRODUCT_CONTEXT ( 'NONE', #240, 'mechanical' ) ;
#168 = PRODUCT_DEFINITION_FORMATION_WITH_SPECIFIED_SOURCE ( 'Symmetric', '', #138, .NOT_KNOWN. ) ;
#169 = PRODUCT_DEFINITION_CONTEXT ( 'detailed design', #221, 'design' ) ;
#170 = APPLICATION_PROTOCOL_DEFINITION ( 'draft international standard', 'automotive_design', 1998, #82 ) ;
#171 = APPLICATION_CONTEXT ( 'automotive_design' ) ;
#172 = UNCERTAINTY_MEASURE_WITH_UNIT (LENGTH_MEASURE( 1.000000000000000082E-05 ), #18, 'distance_accuracy_value', 'NONE');
#173 = PROPERTY_DEFINITION_REPRESENTATION ( #54, #218 ) ;
#174 = CARTESIAN_POINT ( 'NONE',  ( 0.000000000000000000, 0.000000000000000000, 0.000000000000000000 ) ) ;
#175 = PROPERTY_DEFINITION ('document property','', #94 ) ;
#176 = DOCUMENT_FILE ( 'Part3_PC.STEP' , '', '', #294, '' ,$ ) ;
#177 =( LENGTH_UNIT ( ) NAMED_UNIT ( * ) SI_UNIT ( .MILLI., .METRE. ) );
#178 = PRODUCT_DEFINITION_SHAPE ( 'NONE', 'NONE',  #317 ) ;
#179 = EXTERNAL_SOURCE (IDENTIFIER('') ) ;
#180 = PRODUCT_DEFINITION_FORMATION_WITH_SPECIFIED_SOURCE ( 'Symmetric', '', #305, .NOT_KNOWN. ) ;
#181 =( NAMED_UNIT ( * ) PLANE_ANGLE_UNIT ( ) SI_UNIT ( $, .RADIAN. ) );
#182 = APPLICATION_PROTOCOL_DEFINITION ( 'draft international standard', 'automotive_design', 1998, #315 ) ;
#183 = UNCERTAINTY_MEASURE_WITH_UNIT (LENGTH_MEASURE( 1.000000000000000082E-05 ), #111, 'distance_accuracy_value', 'NONE');
#184 = ITEM_DEFINED_TRANSFORMATION ( 'NONE', 'NONE', #131,  #212 ) ;
#185 = PRODUCT_DEFINITION_SHAPE ( 'NONE', 'NONE',  #302 ) ;
#186 = PRODUCT_DEFINITION_SHAPE ( 'NONE', 'NONE',  #319 ) ;
#187 = APPLICATION_CONTEXT ( 'automotive_design' ) ;
#188 =( LENGTH_UNIT ( ) NAMED_UNIT ( * ) SI_UNIT ( .MILLI., .METRE. ) );
#189 = EXTERNAL_SOURCE (IDENTIFIER('') ) ;
#190 = APPLIED_DOCUMENT_REFERENCE ( #239,'',( #292) ) ;
#191 = PRODUCT ( 'PC Fan Assembly', 'PC Fan Assembly', '', ( #112 ) ) ;
#192 = APPLICATION_PROTOCOL_DEFINITION ( 'draft international standard', 'automotive_design', 1998, #149 ) ;
#193 = CARTESIAN_POINT ( 'NONE',  ( 0.000000000000000000, 0.000000000000000000, 0.000000000000000000 ) ) ;
#194 = SHAPE_DEFINITION_REPRESENTATION ( #228, #136 ) ;
#195 = DOCUMENT_TYPE ( 'geometry' ) ;
#196 = APPLIED_EXTERNAL_IDENTIFICATION_ASSIGNMENT ( 'Part1_PC.STEP' , #98, #189,( #3) ) ;
#197 = UNCERTAINTY_MEASURE_WITH_UNIT (LENGTH_MEASURE( 1.000000000000000082E-05 ), #188, 'distance_accuracy_value', 'NONE');
#198 = CONTEXT_DEPENDENT_SHAPE_REPRESENTATION ( #303, #306 ) ;
#199 = ROLE_ASSOCIATION ( #132, #147 ) ;
#200 = PRODUCT_DEFINITION_CONTEXT ( 'detailed design', #315, 'design' ) ;
#201 = SHAPE_REPRESENTATION ( 'ISO 1224 - 170204 - R,12,DE,NC,12_68_ISO 1224 - 170204 - R,12,DE,NC,12_68', ( #64 ), #164 ) ;
#202 = PRODUCT_RELATED_PRODUCT_CATEGORY ( 'part', '', ( #305 ) ) ;
#203 = AXIS2_PLACEMENT_3D ( 'NONE', #26, #70, #76 ) ;
#204 = APPLICATION_CONTEXT ( 'automotive_design' ) ;
#205 = CARTESIAN_POINT ( 'NONE',  ( 0.000000000000000000, 0.000000000000000000, 0.000000000000000000 ) ) ;
#206 =( LENGTH_UNIT ( ) NAMED_UNIT ( * ) SI_UNIT ( .MILLI., .METRE. ) );
#207 = APPLIED_DOCUMENT_REFERENCE ( #265,'',( #161) ) ;
#208 =( GEOMETRIC_REPRESENTATION_CONTEXT ( 3 ) GLOBAL_UNCERTAINTY_ASSIGNED_CONTEXT ( ( #97 ) ) GLOBAL_UNIT_ASSIGNED_CONTEXT ( ( #177, #181, #213 ) ) REPRESENTATION_CONTEXT ( 'NONE', 'WORKASPACE' ) );
#209 = CONTEXT_DEPENDENT_SHAPE_REPRESENTATION ( #146, #186 ) ;
#210 = UNCERTAINTY_MEASURE_WITH_UNIT (LENGTH_MEASURE( 1.000000000000000082E-05 ), #139, 'distance_accuracy_value', 'NONE');
#211 = CARTESIAN_POINT ( 'NONE',  ( 0.000000000000000000, 0.000000000000000000, 0.000000000000000000 ) ) ;
#212 = AXIS2_PLACEMENT_3D ( 'NONE', #128, #229, #72 ) ;
#213 =( NAMED_UNIT ( * ) SI_UNIT ( $, .STERADIAN. ) SOLID_ANGLE_UNIT ( ) );
#214 = DOCUMENT_TYPE ( 'geometry' ) ;
#215 = DIRECTION ( 'NONE',  ( -0.4999999999999980016, 0.8660254037844399289, 0.000000000000000000 ) ) ;
#216 = SHAPE_DEFINITION_REPRESENTATION ( #113, #47 ) ;
#217 = DIRECTION ( 'NONE',  ( 1.000000000000000000, 2.174298234116002683E-32, 2.174298234116001588E-32 ) ) ;
#218 = SHAPE_REPRESENTATION ( 'Part10_DCM', ( #117 ), #45 ) ;
#219 = PRODUCT_DEFINITION ( 'General', '', #93, #200 ) ;
#220 = ROLE_ASSOCIATION ( #231, #296 ) ;
#221 = APPLICATION_CONTEXT ( 'automotive_design' ) ;
#222 = DIRECTION ( 'NONE',  ( 0.000000000000000000, 0.000000000000000000, 1.000000000000000000 ) ) ;
#223 = PROPERTY_DEFINITION ('external definition','', #94 ) ;
#224 = DIRECTION ( 'NONE',  ( 0.000000000000000000, 0.000000000000000000, 1.000000000000000000 ) ) ;
#225 = PROPERTY_DEFINITION_REPRESENTATION ( #148, #12 ) ;
#226 =( GEOMETRIC_REPRESENTATION_CONTEXT ( 3 ) GLOBAL_UNCERTAINTY_ASSIGNED_CONTEXT ( ( #210 ) ) GLOBAL_UNIT_ASSIGNED_CONTEXT ( ( #139, #257, #282 ) ) REPRESENTATION_CONTEXT ( 'NONE', 'WORKASPACE' ) );
#227 = APPLIED_EXTERNAL_IDENTIFICATION_ASSIGNMENT ( 'ISO 1224 - 170204 - R,12,DE,NC,12_68_ISO 1224 - 170204 - R,12,DE,NC,12_68.STEP' , #124, #166,( #313) ) ;
#228 = PRODUCT_DEFINITION_SHAPE ( 'NONE', 'NONE',  #161 ) ;
#229 = DIRECTION ( 'NONE',  ( 0.000000000000000000, 0.000000000000000000, 1.000000000000000000 ) ) ;
#230 = PRODUCT_DEFINITION_CONTEXT ( 'detailed design', #95, 'design' ) ;
#231 = OBJECT_ROLE ('mandatory',$ ) ;
#232 = DIRECTION ( 'NONE',  ( 1.000000000000000000, 0.000000000000000000, 0.000000000000000000 ) ) ;
#233 = AXIS2_PLACEMENT_3D ( 'NONE', #276, #123, #217 ) ;
#234 = PRODUCT ( 'Part5', 'Part5', '', ( #262 ) ) ;
#235 = EXTERNAL_SOURCE (IDENTIFIER('') ) ;
#236 = CARTESIAN_POINT ( 'NONE',  ( 0.000000000000000000, 0.000000000000000000, 0.000000000000000000 ) ) ;
#237 = AXIS2_PLACEMENT_3D ( 'NONE', #193, #310, #163 ) ;
#238 = PRODUCT_DEFINITION ( 'General', '', #137, #41 ) ;
#239 = DOCUMENT_FILE ( 'Part4_PC wires.STEP' , '', '', #195, '' ,$ ) ;
#240 = APPLICATION_CONTEXT ( 'automotive_design' ) ;
#241 = PROPERTY_DEFINITION_REPRESENTATION ( #279, #275 ) ;
#242 = CARTESIAN_POINT ( 'NONE',  ( 3.855190898905819228E-15, 2.244037690412156647E-15, 2.774999999999996358 ) ) ;
#243 = APPLICATION_PROTOCOL_DEFINITION ( 'draft international standard', 'automotive_design', 1998, #204 ) ;
#244 = PRODUCT_DEFINITION_SHAPE ( 'NONE', 'NONE',  #284 ) ;
#245 = IDENTIFICATION_ROLE ( 'external document id and location', $) ;
#246 = PROPERTY_DEFINITION_REPRESENTATION ( #157, #47 ) ;
#247 = CONTEXT_DEPENDENT_SHAPE_REPRESENTATION ( #297, #85 ) ;
#248 = OBJECT_ROLE ('mandatory',$ ) ;
#249 = PRODUCT_RELATED_PRODUCT_CATEGORY ( 'part', '', ( #234 ) ) ;
#250 =( NAMED_UNIT ( * ) PLANE_ANGLE_UNIT ( ) SI_UNIT ( $, .RADIAN. ) );
#251 = CARTESIAN_POINT ( 'NONE',  ( 0.000000000000000000, 0.000000000000000000, 0.000000000000000000 ) ) ;
#252 =( NAMED_UNIT ( * ) PLANE_ANGLE_UNIT ( ) SI_UNIT ( $, .RADIAN. ) );
#253 = ROLE_ASSOCIATION ( #17, #125 ) ;
#254 = PRODUCT_DEFINITION ( 'General', '', #291, #5 ) ;
#255 = APPLICATION_CONTEXT ( 'automotive_design' ) ;
#256 = SHAPE_DEFINITION_REPRESENTATION ( #159, #12 ) ;
#257 =( NAMED_UNIT ( * ) PLANE_ANGLE_UNIT ( ) SI_UNIT ( $, .RADIAN. ) );
#258 = APPLICATION_PROTOCOL_DEFINITION ( 'draft international standard', 'automotive_design', 1998, #140 ) ;
#259 = PRODUCT_DEFINITION ( 'General', '', #180, #169 ) ;
#260 = APPLICATION_PROTOCOL_DEFINITION ( 'draft international standard', 'automotive_design', 1998, #240 ) ;
#261 =( REPRESENTATION_RELATIONSHIP ('NONE','NONE', #33, #12 ) REPRESENTATION_RELATIONSHIP_WITH_TRANSFORMATION ( #184 )SHAPE_REPRESENTATION_RELATIONSHIP( ) );
#262 = PRODUCT_CONTEXT ( 'NONE', #140, 'mechanical' ) ;
#263 = DOCUMENT_FILE ( 'Part10_DCM.STEP' , '', '', #214, '' ,$ ) ;
#264 = DIRECTION ( 'NONE',  ( 1.000000000000000000, 0.000000000000000000, 0.000000000000000000 ) ) ;
#265 = DOCUMENT_FILE ( 'Part5.STEP' , '', '', #39, '' ,$ ) ;
#266 =( LENGTH_UNIT ( ) NAMED_UNIT ( * ) SI_UNIT ( .MILLI., .METRE. ) );
#267 =( REPRESENTATION_RELATIONSHIP ('NONE','NONE', #33, #275 ) REPRESENTATION_RELATIONSHIP_WITH_TRANSFORMATION ( #86 )SHAPE_REPRESENTATION_RELATIONSHIP( ) );
#268 = PROPERTY_DEFINITION ('document property','', #313 ) ;
#269 = ITEM_DEFINED_TRANSFORMATION ( 'NONE', 'NONE', #100,  #117 ) ;
#270 = DIRECTION ( 'NONE',  ( 0.000000000000000000, 0.000000000000000000, 1.000000000000000000 ) ) ;
#271 = PRODUCT_DEFINITION_SHAPE ( 'NONE', 'NONE',  #321 ) ;
#272 = DIRECTION ( 'NONE',  ( 1.000000000000000000, 0.000000000000000000, 0.000000000000000000 ) ) ;
#273 = EXTERNAL_SOURCE (IDENTIFIER('') ) ;
#274 =( NAMED_UNIT ( * ) SI_UNIT ( $, .STERADIAN. ) SOLID_ANGLE_UNIT ( ) );
#275 = SHAPE_REPRESENTATION ( 'Part4_PC wires', ( #203 ), #65 ) ;
#276 = CARTESIAN_POINT ( 'NONE',  ( 3.855190898990583122E-15, -9.859682423773668850E-16, -5.600000000000004086 ) ) ;
#277 = AXIS2_PLACEMENT_3D ( 'NONE', #251, #27, #232 ) ;
#278 = ROLE_ASSOCIATION ( #248, #190 ) ;
#279 = PROPERTY_DEFINITION ('document property','', #239 ) ;
#280 = APPLICATION_PROTOCOL_DEFINITION ( 'draft international standard', 'automotive_design', 1998, #221 ) ;
#281 = UNCERTAINTY_MEASURE_WITH_UNIT (LENGTH_MEASURE( 1.000000000000000082E-05 ), #206, 'distance_accuracy_value', 'NONE');
#282 =( NAMED_UNIT ( * ) SI_UNIT ( $, .STERADIAN. ) SOLID_ANGLE_UNIT ( ) );
#283 = AXIS2_PLACEMENT_3D ( 'NONE', #211, #300, #152 ) ;
#284 = PRODUCT_DEFINITION ( 'General', '', #168, #230 ) ;
#285 = IDENTIFICATION_ROLE ( 'external document id and location', $) ;
#286 = PROPERTY_DEFINITION_REPRESENTATION ( #223, #2 ) ;
#287 =( NAMED_UNIT ( * ) SI_UNIT ( $, .STERADIAN. ) SOLID_ANGLE_UNIT ( ) );
#288 = ITEM_DEFINED_TRANSFORMATION ( 'NONE', 'NONE', #36,  #64 ) ;
#289 =( NAMED_UNIT ( * ) PLANE_ANGLE_UNIT ( ) SI_UNIT ( $, .RADIAN. ) );
#290 = PROPERTY_DEFINITION ('document property','', #3 ) ;
#291 = PRODUCT_DEFINITION_FORMATION_WITH_SPECIFIED_SOURCE ( 'Symmetric', '', #38, .NOT_KNOWN. ) ;
#292 = PRODUCT_DEFINITION ( 'General', '', #84, #104 ) ;
#293 = DIRECTION ( 'NONE',  ( 1.000000000000000000, 0.000000000000000000, 0.000000000000000000 ) ) ;
#294 = DOCUMENT_TYPE ( 'geometry' ) ;
#295 =( NAMED_UNIT ( * ) SI_UNIT ( $, .STERADIAN. ) SOLID_ANGLE_UNIT ( ) );
#296 = APPLIED_DOCUMENT_REFERENCE ( #263,'',( #254) ) ;
#297 =( REPRESENTATION_RELATIONSHIP ('NONE','NONE', #33, #47 ) REPRESENTATION_RELATIONSHIP_WITH_TRANSFORMATION ( #107 )SHAPE_REPRESENTATION_RELATIONSHIP( ) );
#298 =( NAMED_UNIT ( * ) PLANE_ANGLE_UNIT ( ) SI_UNIT ( $, .RADIAN. ) );
#299 = ROLE_ASSOCIATION ( #119, #153 ) ;
#300 = DIRECTION ( 'NONE',  ( 0.000000000000000000, 0.000000000000000000, 1.000000000000000000 ) ) ;
#301 = DIRECTION ( 'NONE',  ( 0.000000000000000000, 0.000000000000000000, 1.000000000000000000 ) ) ;
#302 = PRODUCT_DEFINITION ( 'General', '', #13, #51 ) ;
#303 =( REPRESENTATION_RELATIONSHIP ('NONE','NONE', #33, #2 ) REPRESENTATION_RELATIONSHIP_WITH_TRANSFORMATION ( #22 )SHAPE_REPRESENTATION_RELATIONSHIP( ) );
#304 = SHAPE_DEFINITION_REPRESENTATION ( #308, #33 ) ;
#305 = PRODUCT ( 'Part3_PC', 'Part3_PC', '', ( #62 ) ) ;
#306 = PRODUCT_DEFINITION_SHAPE ( 'NONE', 'NONE',  #323 ) ;
#307 = APPLICATION_PROTOCOL_DEFINITION ( 'draft international standard', 'automotive_design', 1998, #255 ) ;
#308 = PRODUCT_DEFINITION_SHAPE ( 'NONE', 'NONE',  #219 ) ;
#309 = SHAPE_DEFINITION_REPRESENTATION ( #244, #2 ) ;
#310 = DIRECTION ( 'NONE',  ( 0.000000000000000000, 0.000000000000000000, 1.000000000000000000 ) ) ;
#311 = PROPERTY_DEFINITION_REPRESENTATION ( #74, #218 ) ;
#312 = PRODUCT_DEFINITION_FORMATION_WITH_SPECIFIED_SOURCE ( 'Symmetric', '', #234, .NOT_KNOWN. ) ;
#313 = DOCUMENT_FILE ( 'ISO 1224 - 170204 - R,12,DE,NC,12_68_ISO 1224 - 170204 - R,12,DE,NC,12_68.STEP' , '', '', #116, '' ,$ ) ;
#314 =( NAMED_UNIT ( * ) SI_UNIT ( $, .STERADIAN. ) SOLID_ANGLE_UNIT ( ) );
#315 = APPLICATION_CONTEXT ( 'automotive_design' ) ;
#316 = PRODUCT_RELATED_PRODUCT_CATEGORY ( 'part', '', ( #50 ) ) ;
#317 = NEXT_ASSEMBLY_USAGE_OCCURRENCE ( 'NAUO1', ' ', ' ', #219, #292, $ ) ;
#318 = NEXT_ASSEMBLY_USAGE_OCCURRENCE ( 'NAUO2', ' ', ' ', #219, #238, $ ) ;
#319 = NEXT_ASSEMBLY_USAGE_OCCURRENCE ( 'NAUO3', ' ', ' ', #219, #302, $ ) ;
#320 = NEXT_ASSEMBLY_USAGE_OCCURRENCE ( 'NAUO4', ' ', ' ', #219, #259, $ ) ;
#321 = NEXT_ASSEMBLY_USAGE_OCCURRENCE ( 'NAUO5', ' ', ' ', #219, #161, $ ) ;
#322 = NEXT_ASSEMBLY_USAGE_OCCURRENCE ( 'NAUO6', ' ', ' ', #219, #254, $ ) ;
#323 = NEXT_ASSEMBLY_USAGE_OCCURRENCE ( 'NAUO7', ' ', ' ', #219, #284, $ ) ;
ENDSEC;
END-ISO-10303-21;
