ISO-10303-21;
HEADER;
FILE_DESCRIPTION (( 'STEP AP214' ),
    '1' );
FILE_NAME ('Bicycle Seat Post Assembly.STEP',
    '2025-08-01T10:42:33',
    ( '' ),
    ( '' ),
    'SwSTEP 2.0',
    'SolidWorks 2025',
    '' );
FILE_SCHEMA (( 'AUTOMOTIVE_DESIGN' ));
ENDSEC;

DATA;
#1 = EXTERNAL_SOURCE (IDENTIFIER('') ) ;
#2 = PROPERTY_DEFINITION ('document property','', #279 ) ;
#3 = SHAPE_DEFINITION_REPRESENTATION ( #132, #320 ) ;
#4 = DOCUMENT_TYPE ( 'geometry' ) ;
#5 = PROPERTY_DEFINITION_REPRESENTATION ( #248, #118 ) ;
#6 = DOCUMENT_TYPE ( 'geometry' ) ;
#7 = CONTEXT_DEPENDENT_SHAPE_REPRESENTATION ( #163, #35 ) ;
#8 =( NAMED_UNIT ( * ) PLANE_ANGLE_UNIT ( ) SI_UNIT ( $, .RADIAN. ) );
#9 = SHAPE_DEFINITION_REPRESENTATION ( #257, #118 ) ;
#10 = AXIS2_PLACEMENT_3D ( 'NONE', #104, #285, #385 ) ;
#11 = APPLIED_EXTERNAL_IDENTIFICATION_ASSIGNMENT ( 'Part5 washer spot 2.STEP' , #230, #222,( #396) ) ;
#12 =( NAMED_UNIT ( * ) PLANE_ANGLE_UNIT ( ) SI_UNIT ( $, .RADIAN. ) );
#13 = PROPERTY_DEFINITION_REPRESENTATION ( #184, #173 ) ;
#14 = CARTESIAN_POINT ( 'NONE',  ( 0.000000000000000000, 0.000000000000000000, 0.000000000000000000 ) ) ;
#15 = PROPERTY_DEFINITION_REPRESENTATION ( #330, #19 ) ;
#16 =( REPRESENTATION_RELATIONSHIP ('NONE','NONE', #168, #173 ) REPRESENTATION_RELATIONSHIP_WITH_TRANSFORMATION ( #57 )SHAPE_REPRESENTATION_RELATIONSHIP( ) );
#17 = PROPERTY_DEFINITION_REPRESENTATION ( #215, #320 ) ;
#18 = PRODUCT_DEFINITION_FORMATION_WITH_SPECIFIED_SOURCE ( 'Symmetric', '', #217, .NOT_KNOWN. ) ;
#19 = SHAPE_REPRESENTATION ( 'Part5 washer spot 2', ( #122 ), #315 ) ;
#20 = IDENTIFICATION_ROLE ( 'external document id and location', $) ;
#21 = CONTEXT_DEPENDENT_SHAPE_REPRESENTATION ( #417, #105 ) ;
#22 = SHAPE_REPRESENTATION ( 'Part3 Post', ( #394 ), #128 ) ;
#23 =( LENGTH_UNIT ( ) NAMED_UNIT ( * ) SI_UNIT ( .MILLI., .METRE. ) );
#24 = ITEM_DEFINED_TRANSFORMATION ( 'NONE', 'NONE', #410,  #122 ) ;
#25 = APPLICATION_CONTEXT ( 'automotive_design' ) ;
#26 = PRODUCT_RELATED_PRODUCT_CATEGORY ( 'part', '', ( #273 ) ) ;
#27 = PRODUCT_DEFINITION_SHAPE ( 'NONE', 'NONE',  #440 ) ;
#28 = UNCERTAINTY_MEASURE_WITH_UNIT (LENGTH_MEASURE( 1.000000000000000082E-05 ), #312, 'distance_accuracy_value', 'NONE');
#29 = CARTESIAN_POINT ( 'NONE',  ( 11.99999999999999289, 30.80056818640388627, -5.015514917043324897E-15 ) ) ;
#30 = PRODUCT_DEFINITION_CONTEXT ( 'detailed design', #73, 'design' ) ;
#31 =( REPRESENTATION_RELATIONSHIP ('NONE','NONE', #168, #19 ) REPRESENTATION_RELATIONSHIP_WITH_TRANSFORMATION ( #90 )SHAPE_REPRESENTATION_RELATIONSHIP( ) );
#32 = DIRECTION ( 'NONE',  ( -1.000000000000000000, -2.775557561562890858E-16, -3.529051685687928757E-17 ) ) ;
#33 = PRODUCT_DEFINITION_SHAPE ( 'NONE', 'NONE',  #79 ) ;
#34 = AXIS2_PLACEMENT_3D ( 'NONE', #262, #334, #289 ) ;
#35 = PRODUCT_DEFINITION_SHAPE ( 'NONE', 'NONE',  #442 ) ;
#36 = DIRECTION ( 'NONE',  ( -1.000000000000000000, -1.754619344863035329E-16, -1.526450161849696453E-16 ) ) ;
#37 = PRODUCT_DEFINITION_CONTEXT ( 'detailed design', #134, 'design' ) ;
#38 = PROPERTY_DEFINITION ('external definition','', #199 ) ;
#39 = CARTESIAN_POINT ( 'NONE',  ( 0.000000000000000000, 0.000000000000000000, 0.000000000000000000 ) ) ;
#40 = OBJECT_ROLE ('mandatory',$ ) ;
#41 = APPLICATION_PROTOCOL_DEFINITION ( 'draft international standard', 'automotive_design', 1998, #306 ) ;
#42 = APPLICATION_CONTEXT ( 'automotive_design' ) ;
#43 = PROPERTY_DEFINITION ('document property','', #365 ) ;
#44 = PRODUCT_DEFINITION ( 'General', '', #401, #177 ) ;
#45 =( GEOMETRIC_REPRESENTATION_CONTEXT ( 3 ) GLOBAL_UNCERTAINTY_ASSIGNED_CONTEXT ( ( #135 ) ) GLOBAL_UNIT_ASSIGNED_CONTEXT ( ( #23, #95, #54 ) ) REPRESENTATION_CONTEXT ( 'NONE', 'WORKASPACE' ) );
#46 = APPLIED_DOCUMENT_REFERENCE ( #299,'',( #49) ) ;
#47 = PRODUCT_CONTEXT ( 'NONE', #48, 'mechanical' ) ;
#48 = APPLICATION_CONTEXT ( 'automotive_design' ) ;
#49 = PRODUCT_DEFINITION ( 'General', '', #261, #182 ) ;
#50 = APPLICATION_PROTOCOL_DEFINITION ( 'draft international standard', 'automotive_design', 1998, #350 ) ;
#51 = APPLIED_EXTERNAL_IDENTIFICATION_ASSIGNMENT ( 'ISO - 4161 - M6 - N_ISO - 4161 - M6 - N.STEP' , #424, #258,( #152) ) ;
#52 = APPLICATION_CONTEXT ( 'automotive_design' ) ;
#53 = APPLICATION_PROTOCOL_DEFINITION ( 'draft international standard', 'automotive_design', 1998, #48 ) ;
#54 =( NAMED_UNIT ( * ) SI_UNIT ( $, .STERADIAN. ) SOLID_ANGLE_UNIT ( ) );
#55 = APPLICATION_CONTEXT ( 'automotive_design' ) ;
#56 = AXIS2_PLACEMENT_3D ( 'NONE', #112, #189, #231 ) ;
#57 = ITEM_DEFINED_TRANSFORMATION ( 'NONE', 'NONE', #303,  #71 ) ;
#58 = PROPERTY_DEFINITION_REPRESENTATION ( #43, #223 ) ;
#59 = CARTESIAN_POINT ( 'NONE',  ( 0.000000000000000000, 0.000000000000000000, 0.000000000000000000 ) ) ;
#60 = PRODUCT ( 'Part1 Seatpost tube', 'Part1 Seatpost tube', '', ( #193 ) ) ;
#61 = DOCUMENT_TYPE ( 'geometry' ) ;
#62 = PRODUCT_DEFINITION_SHAPE ( 'NONE', 'NONE',  #445 ) ;
#63 = UNCERTAINTY_MEASURE_WITH_UNIT (LENGTH_MEASURE( 1.000000000000000082E-05 ), #369, 'distance_accuracy_value', 'NONE');
#64 = SHAPE_REPRESENTATION ( 'Part4 washer spot 1', ( #359 ), #232 ) ;
#65 =( REPRESENTATION_RELATIONSHIP ('NONE','NONE', #168, #64 ) REPRESENTATION_RELATIONSHIP_WITH_TRANSFORMATION ( #131 )SHAPE_REPRESENTATION_RELATIONSHIP( ) );
#66 = DIRECTION ( 'NONE',  ( 0.000000000000000000, 0.000000000000000000, 1.000000000000000000 ) ) ;
#67 = CARTESIAN_POINT ( 'NONE',  ( -12.00000000000000711, 39.05056818640387917, 6.071532165918824830E-15 ) ) ;
#68 = PROPERTY_DEFINITION ('external definition','', #299 ) ;
#69 = IDENTIFICATION_ROLE ( 'external document id and location', $) ;
#70 =( GEOMETRIC_REPRESENTATION_CONTEXT ( 3 ) GLOBAL_UNCERTAINTY_ASSIGNED_CONTEXT ( ( #373 ) ) GLOBAL_UNIT_ASSIGNED_CONTEXT ( ( #84, #271, #162 ) ) REPRESENTATION_CONTEXT ( 'NONE', 'WORKASPACE' ) );
#71 = AXIS2_PLACEMENT_3D ( 'NONE', #119, #192, #393 ) ;
#72 = CARTESIAN_POINT ( 'NONE',  ( 0.000000000000000000, 0.000000000000000000, 0.000000000000000000 ) ) ;
#73 = APPLICATION_CONTEXT ( 'automotive_design' ) ;
#74 = PROPERTY_DEFINITION ('external definition','', #365 ) ;
#75 = CARTESIAN_POINT ( 'NONE',  ( 12.00000000000000000, -2.602085213965210642E-15, -3.469446951953614189E-15 ) ) ;
#76 = APPLICATION_PROTOCOL_DEFINITION ( 'draft international standard', 'automotive_design', 1998, #355 ) ;
#77 =( REPRESENTATION_RELATIONSHIP ('NONE','NONE', #168, #118 ) REPRESENTATION_RELATIONSHIP_WITH_TRANSFORMATION ( #388 )SHAPE_REPRESENTATION_RELATIONSHIP( ) );
#78 = PRODUCT_RELATED_PRODUCT_CATEGORY ( 'part', '', ( #60 ) ) ;
#79 = PRODUCT_DEFINITION ( 'General', '', #316, #37 ) ;
#80 = PROPERTY_DEFINITION_REPRESENTATION ( #68, #425 ) ;
#81 = APPLICATION_PROTOCOL_DEFINITION ( 'draft international standard', 'automotive_design', 1998, #399 ) ;
#82 = CONTEXT_DEPENDENT_SHAPE_REPRESENTATION ( #77, #97 ) ;
#83 = APPLIED_EXTERNAL_IDENTIFICATION_ASSIGNMENT ( 'Part3 Post.STEP' , #154, #364,( #199) ) ;
#84 =( LENGTH_UNIT ( ) NAMED_UNIT ( * ) SI_UNIT ( .MILLI., .METRE. ) );
#85 = EXTERNAL_SOURCE (IDENTIFIER('') ) ;
#86 = DOCUMENT_FILE ( 'Part5 washer spot 2.STEP' , '', '', #235, '' ,$ ) ;
#87 = APPLIED_DOCUMENT_REFERENCE ( #208,'',( #79) ) ;
#88 = AXIS2_PLACEMENT_3D ( 'NONE', #313, #407, #375 ) ;
#89 = IDENTIFICATION_ROLE ( 'external document id and location', $) ;
#90 = ITEM_DEFINED_TRANSFORMATION ( 'NONE', 'NONE', #400,  #122 ) ;
#91 = PROPERTY_DEFINITION ('external definition','', #152 ) ;
#92 = PRODUCT_DEFINITION_CONTEXT ( 'detailed design', #146, 'design' ) ;
#93 = APPLICATION_CONTEXT ( 'automotive_design' ) ;
#94 = PROPERTY_DEFINITION_REPRESENTATION ( #325, #64 ) ;
#95 =( NAMED_UNIT ( * ) PLANE_ANGLE_UNIT ( ) SI_UNIT ( $, .RADIAN. ) );
#96 = UNCERTAINTY_MEASURE_WITH_UNIT (LENGTH_MEASURE( 1.000000000000000082E-05 ), #156, 'distance_accuracy_value', 'NONE');
#97 = PRODUCT_DEFINITION_SHAPE ( 'NONE', 'NONE',  #439 ) ;
#98 = DOCUMENT_TYPE ( 'geometry' ) ;
#99 = APPLICATION_PROTOCOL_DEFINITION ( 'draft international standard', 'automotive_design', 1998, #55 ) ;
#100 = PRODUCT_DEFINITION_FORMATION_WITH_SPECIFIED_SOURCE ( 'Symmetric', '', #259, .NOT_KNOWN. ) ;
#101 = CARTESIAN_POINT ( 'NONE',  ( -12.00000000000000000, -5.963111948670274387E-15, 8.250131177601483799E-15 ) ) ;
#102 = EXTERNAL_SOURCE (IDENTIFIER('') ) ;
#103 = APPLICATION_PROTOCOL_DEFINITION ( 'draft international standard', 'automotive_design', 1998, #295 ) ;
#104 = CARTESIAN_POINT ( 'NONE',  ( 0.000000000000000000, 31.49999999999997158, 0.000000000000000000 ) ) ;
#105 = PRODUCT_DEFINITION_SHAPE ( 'NONE', 'NONE',  #443 ) ;
#106 = OBJECT_ROLE ('mandatory',$ ) ;
#107 = DIRECTION ( 'NONE',  ( -5.551115123125782702E-17, 0.000000000000000000, -1.000000000000000000 ) ) ;
#108 = PRODUCT_DEFINITION_SHAPE ( 'NONE', 'NONE',  #447 ) ;
#109 = PRODUCT_CONTEXT ( 'NONE', #372, 'mechanical' ) ;
#110 = DOCUMENT_TYPE ( 'geometry' ) ;
#111 = ITEM_DEFINED_TRANSFORMATION ( 'NONE', 'NONE', #423,  #333 ) ;
#112 = CARTESIAN_POINT ( 'NONE',  ( 0.000000000000000000, 0.000000000000000000, 0.000000000000000000 ) ) ;
#113 = AXIS2_PLACEMENT_3D ( 'NONE', #143, #342, #140 ) ;
#114 = APPLIED_EXTERNAL_IDENTIFICATION_ASSIGNMENT ( 'Part2.STEP' , #89, #362,( #365) ) ;
#115 = PROPERTY_DEFINITION_REPRESENTATION ( #341, #425 ) ;
#116 =( NAMED_UNIT ( * ) SI_UNIT ( $, .STERADIAN. ) SOLID_ANGLE_UNIT ( ) );
#117 = SHAPE_DEFINITION_REPRESENTATION ( #229, #173 ) ;
#118 = SHAPE_REPRESENTATION ( 'ISO - 4161 - M6 - N_ISO - 4161 - M6 - N', ( #164 ), #329 ) ;
#119 = CARTESIAN_POINT ( 'NONE',  ( 0.000000000000000000, 0.000000000000000000, 0.000000000000000000 ) ) ;
#120 = IDENTIFICATION_ROLE ( 'external document id and location', $) ;
#121 = APPLICATION_PROTOCOL_DEFINITION ( 'draft international standard', 'automotive_design', 1998, #93 ) ;
#122 = AXIS2_PLACEMENT_3D ( 'NONE', #247, #209, #338 ) ;
#123 =( NAMED_UNIT ( * ) PLANE_ANGLE_UNIT ( ) SI_UNIT ( $, .RADIAN. ) );
#124 = ROLE_ASSOCIATION ( #178, #87 ) ;
#125 = IDENTIFICATION_ROLE ( 'external document id and location', $) ;
#126 = PROPERTY_DEFINITION_REPRESENTATION ( #225, #19 ) ;
#127 = PRODUCT_RELATED_PRODUCT_CATEGORY ( 'part', '', ( #217 ) ) ;
#128 =( GEOMETRIC_REPRESENTATION_CONTEXT ( 3 ) GLOBAL_UNCERTAINTY_ASSIGNED_CONTEXT ( ( #28 ) ) GLOBAL_UNIT_ASSIGNED_CONTEXT ( ( #312, #123, #167 ) ) REPRESENTATION_CONTEXT ( 'NONE', 'WORKASPACE' ) );
#129 =( NAMED_UNIT ( * ) SI_UNIT ( $, .STERADIAN. ) SOLID_ANGLE_UNIT ( ) );
#130 = APPLIED_EXTERNAL_IDENTIFICATION_ASSIGNMENT ( 'ISO 14580 - #6 x 40 x 38 - 4.8-N_ISO 14580 - #6 x 40 x 38 - 4.8-N.STEP' , #20, #435,( #267) ) ;
#131 = ITEM_DEFINED_TRANSFORMATION ( 'NONE', 'NONE', #278,  #359 ) ;
#132 = PRODUCT_DEFINITION_SHAPE ( 'NONE', 'NONE',  #367 ) ;
#133 = CARTESIAN_POINT ( 'NONE',  ( -12.00000000000000355, 30.80056818640388272, 4.486797968400152522E-14 ) ) ;
#134 = APPLICATION_CONTEXT ( 'automotive_design' ) ;
#135 = UNCERTAINTY_MEASURE_WITH_UNIT (LENGTH_MEASURE( 1.000000000000000082E-05 ), #23, 'distance_accuracy_value', 'NONE');
#136 = PROPERTY_DEFINITION ('external definition','', #279 ) ;
#137 = PROPERTY_DEFINITION_REPRESENTATION ( #159, #64 ) ;
#138 = PRODUCT_CONTEXT ( 'NONE', #306, 'mechanical' ) ;
#139 = PRODUCT_DEFINITION_CONTEXT ( 'detailed design', #93, 'design' ) ;
#140 = DIRECTION ( 'NONE',  ( 1.000000000000000000, 1.754619344863035575E-16, 4.930380657631322689E-32 ) ) ;
#141 = PROPERTY_DEFINITION ('external definition','', #361 ) ;
#142 = EXTERNAL_SOURCE (IDENTIFIER('') ) ;
#143 = CARTESIAN_POINT ( 'NONE',  ( 11.99999999999998934, 39.05056818640388627, -4.134197390796568553E-15 ) ) ;
#144 = PRODUCT_DEFINITION ( 'General', '', #148, #276 ) ;
#145 = DIRECTION ( 'NONE',  ( -1.173544993280903885E-16, 1.947440475593223362E-16, -1.000000000000000000 ) ) ;
#146 = APPLICATION_CONTEXT ( 'automotive_design' ) ;
#147 = PROPERTY_DEFINITION ('document property','', #86 ) ;
#148 = PRODUCT_DEFINITION_FORMATION_WITH_SPECIFIED_SOURCE ( 'Symmetric', '', #253, .NOT_KNOWN. ) ;
#149 = SHAPE_DEFINITION_REPRESENTATION ( #371, #425 ) ;
#150 = EXTERNAL_SOURCE (IDENTIFIER('') ) ;
#151 = PROPERTY_DEFINITION ('external definition','', #208 ) ;
#152 = DOCUMENT_FILE ( 'ISO - 4161 - M6 - N_ISO - 4161 - M6 - N.STEP' , '', '', #205, '' ,$ ) ;
#153 =( NAMED_UNIT ( * ) PLANE_ANGLE_UNIT ( ) SI_UNIT ( $, .RADIAN. ) );
#154 = IDENTIFICATION_ROLE ( 'external document id and location', $) ;
#155 = SHAPE_DEFINITION_REPRESENTATION ( #281, #19 ) ;
#156 =( LENGTH_UNIT ( ) NAMED_UNIT ( * ) SI_UNIT ( .MILLI., .METRE. ) );
#157 = AXIS2_PLACEMENT_3D ( 'NONE', #234, #390, #397 ) ;
#158 = ITEM_DEFINED_TRANSFORMATION ( 'NONE', 'NONE', #113,  #164 ) ;
#159 = PROPERTY_DEFINITION ('external definition','', #183 ) ;
#160 = ITEM_DEFINED_TRANSFORMATION ( 'NONE', 'NONE', #34,  #56 ) ;
#161 = ROLE_ASSOCIATION ( #263, #172 ) ;
#162 =( NAMED_UNIT ( * ) SI_UNIT ( $, .STERADIAN. ) SOLID_ANGLE_UNIT ( ) );
#163 =( REPRESENTATION_RELATIONSHIP ('NONE','NONE', #168, #173 ) REPRESENTATION_RELATIONSHIP_WITH_TRANSFORMATION ( #304 )SHAPE_REPRESENTATION_RELATIONSHIP( ) );
#164 = AXIS2_PLACEMENT_3D ( 'NONE', #301, #197, #240 ) ;
#165 = ROLE_ASSOCIATION ( #288, #282 ) ;
#166 = APPLIED_EXTERNAL_IDENTIFICATION_ASSIGNMENT ( 'ISO 14580 - #6 x 40 x 38 - 4.8-N_ISO 14580 - #6 x 40 x 38 - 4.8-N.STEP' , #213, #85,( #279) ) ;
#167 =( NAMED_UNIT ( * ) SI_UNIT ( $, .STERADIAN. ) SOLID_ANGLE_UNIT ( ) );
#168 = SHAPE_REPRESENTATION ( 'Bicycle Seat Post Assembly', ( #246, #204, #113, #423, #244, #34, #303, #88, #400, #10, #278, #410, #212 ), #383 ) ;
#169 = CONTEXT_DEPENDENT_SHAPE_REPRESENTATION ( #31, #291 ) ;
#170 = DOCUMENT_TYPE ( 'geometry' ) ;
#171 = PRODUCT_RELATED_PRODUCT_CATEGORY ( 'part', '', ( #210 ) ) ;
#172 = APPLIED_DOCUMENT_REFERENCE ( #365,'',( #44) ) ;
#173 = SHAPE_REPRESENTATION ( 'ISO 14580 - #6 x 40 x 38 - 4.8-N_ISO 14580 - #6 x 40 x 38 - 4.8-N', ( #71 ), #70 ) ;
#174 = PROPERTY_DEFINITION_REPRESENTATION ( #243, #19 ) ;
#175 = PRODUCT_CONTEXT ( 'NONE', #55, 'mechanical' ) ;
#176 =( REPRESENTATION_RELATIONSHIP ('NONE','NONE', #168, #118 ) REPRESENTATION_RELATIONSHIP_WITH_TRANSFORMATION ( #158 )SHAPE_REPRESENTATION_RELATIONSHIP( ) );
#177 = PRODUCT_DEFINITION_CONTEXT ( 'detailed design', #42, 'design' ) ;
#178 = OBJECT_ROLE ('mandatory',$ ) ;
#179 = CARTESIAN_POINT ( 'NONE',  ( -12.00000000000000000, 37.74999999999999289, 6.071532165918824830E-15 ) ) ;
#180 = APPLIED_DOCUMENT_REFERENCE ( #183,'',( #79) ) ;
#181 = DIRECTION ( 'NONE',  ( 3.529051685687928757E-17, 4.897543045678698555E-33, -1.000000000000000000 ) ) ;
#182 = PRODUCT_DEFINITION_CONTEXT ( 'detailed design', #378, 'design' ) ;
#183 = DOCUMENT_FILE ( 'Part4 washer spot 1.STEP' , '', '', #170, '' ,$ ) ;
#184 = PROPERTY_DEFINITION ('document property','', #267 ) ;
#185 = DIRECTION ( 'NONE',  ( 0.000000000000000000, 0.000000000000000000, 1.000000000000000000 ) ) ;
#186 = PRODUCT_CONTEXT ( 'NONE', #242, 'mechanical' ) ;
#187 = DOCUMENT_TYPE ( 'geometry' ) ;
#188 = PROPERTY_DEFINITION_REPRESENTATION ( #141, #118 ) ;
#189 = DIRECTION ( 'NONE',  ( 0.000000000000000000, 0.000000000000000000, 1.000000000000000000 ) ) ;
#190 = ROLE_ASSOCIATION ( #106, #298 ) ;
#191 = DOCUMENT_TYPE ( 'geometry' ) ;
#192 = DIRECTION ( 'NONE',  ( 0.000000000000000000, 0.000000000000000000, 1.000000000000000000 ) ) ;
#193 = PRODUCT_CONTEXT ( 'NONE', #403, 'mechanical' ) ;
#194 = OBJECT_ROLE ('mandatory',$ ) ;
#195 = PRODUCT_DEFINITION_FORMATION_WITH_SPECIFIED_SOURCE ( 'Symmetric', '', #210, .NOT_KNOWN. ) ;
#196 = APPLICATION_PROTOCOL_DEFINITION ( 'draft international standard', 'automotive_design', 1998, #372 ) ;
#197 = DIRECTION ( 'NONE',  ( 0.000000000000000000, 0.000000000000000000, 1.000000000000000000 ) ) ;
#198 = IDENTIFICATION_ROLE ( 'external document id and location', $) ;
#199 = DOCUMENT_FILE ( 'Part3 Post.STEP' , '', '', #6, '' ,$ ) ;
#200 = CONTEXT_DEPENDENT_SHAPE_REPRESENTATION ( #300, #108 ) ;
#201 =( REPRESENTATION_RELATIONSHIP ('NONE','NONE', #168, #19 ) REPRESENTATION_RELATIONSHIP_WITH_TRANSFORMATION ( #24 )SHAPE_REPRESENTATION_RELATIONSHIP( ) );
#202 = APPLIED_EXTERNAL_IDENTIFICATION_ASSIGNMENT ( 'ISO - 4161 - M6 - N_ISO - 4161 - M6 - N.STEP' , #120, #1,( #361) ) ;
#203 = APPLIED_DOCUMENT_REFERENCE ( #396,'',( #221) ) ;
#204 = AXIS2_PLACEMENT_3D ( 'NONE', #67, #214, #224 ) ;
#205 = DOCUMENT_TYPE ( 'geometry' ) ;
#206 =( NAMED_UNIT ( * ) PLANE_ANGLE_UNIT ( ) SI_UNIT ( $, .RADIAN. ) );
#207 = PROPERTY_DEFINITION_REPRESENTATION ( #2, #173 ) ;
#208 = DOCUMENT_FILE ( 'Part4 washer spot 1.STEP' , '', '', #4, '' ,$ ) ;
#209 = DIRECTION ( 'NONE',  ( 0.000000000000000000, 0.000000000000000000, 1.000000000000000000 ) ) ;
#210 = PRODUCT ( 'MTB Saddle', 'MTB Saddle', '', ( #47 ) ) ;
#211 =( NAMED_UNIT ( * ) SI_UNIT ( $, .STERADIAN. ) SOLID_ANGLE_UNIT ( ) );
#212 = AXIS2_PLACEMENT_3D ( 'NONE', #101, #181, #32 ) ;
#213 = IDENTIFICATION_ROLE ( 'external document id and location', $) ;
#214 = DIRECTION ( 'NONE',  ( -2.775557561562890858E-16, 1.000000000000000000, -4.897543045678698555E-33 ) ) ;
#215 = PROPERTY_DEFINITION ('document property','', #249 ) ;
#216 = UNCERTAINTY_MEASURE_WITH_UNIT (LENGTH_MEASURE( 1.000000000000000082E-05 ), #238, 'distance_accuracy_value', 'NONE');
#217 = PRODUCT ( 'ISO 14580 - #6 x 40 x 38 - 4.8-N_ISO 14580 - #6 x 40 x 38 - 4.8-N', 'ISO 14580 - #6 x 40 x 38 - 4.8-N_ISO 14580 - #6 x 40 x 38 - 4.8-N', '', ( #109 ) ) ;
#218 = CONTEXT_DEPENDENT_SHAPE_REPRESENTATION ( #332, #322 ) ;
#219 = PRODUCT_RELATED_PRODUCT_CATEGORY ( 'part', '', ( #376 ) ) ;
#220 = DIRECTION ( 'NONE',  ( 0.000000000000000000, 0.000000000000000000, 1.000000000000000000 ) ) ;
#221 = PRODUCT_DEFINITION ( 'General', '', #366, #286 ) ;
#222 = EXTERNAL_SOURCE (IDENTIFIER('') ) ;
#223 = SHAPE_REPRESENTATION ( 'Part2', ( #157 ), #45 ) ;
#224 = DIRECTION ( 'NONE',  ( 1.000000000000000000, 2.775557561562890858E-16, 0.000000000000000000 ) ) ;
#225 = PROPERTY_DEFINITION ('external definition','', #86 ) ;
#226 = OBJECT_ROLE ('mandatory',$ ) ;
#227 =( LENGTH_UNIT ( ) NAMED_UNIT ( * ) SI_UNIT ( .MILLI., .METRE. ) );
#228 = APPLICATION_PROTOCOL_DEFINITION ( 'draft international standard', 'automotive_design', 1998, #378 ) ;
#229 = PRODUCT_DEFINITION_SHAPE ( 'NONE', 'NONE',  #269 ) ;
#230 = IDENTIFICATION_ROLE ( 'external document id and location', $) ;
#231 = DIRECTION ( 'NONE',  ( 1.000000000000000000, 0.000000000000000000, 0.000000000000000000 ) ) ;
#232 =( GEOMETRIC_REPRESENTATION_CONTEXT ( 3 ) GLOBAL_UNCERTAINTY_ASSIGNED_CONTEXT ( ( #409 ) ) GLOBAL_UNIT_ASSIGNED_CONTEXT ( ( #283, #252, #211 ) ) REPRESENTATION_CONTEXT ( 'NONE', 'WORKASPACE' ) );
#233 = PRODUCT_DEFINITION_FORMATION_WITH_SPECIFIED_SOURCE ( 'Symmetric', '', #346, .NOT_KNOWN. ) ;
#234 = CARTESIAN_POINT ( 'NONE',  ( 0.000000000000000000, 0.000000000000000000, 0.000000000000000000 ) ) ;
#235 = DOCUMENT_TYPE ( 'geometry' ) ;
#236 = ROLE_ASSOCIATION ( #428, #270 ) ;
#237 = APPLICATION_PROTOCOL_DEFINITION ( 'draft international standard', 'automotive_design', 1998, #146 ) ;
#238 =( LENGTH_UNIT ( ) NAMED_UNIT ( * ) SI_UNIT ( .MILLI., .METRE. ) );
#239 = APPLICATION_PROTOCOL_DEFINITION ( 'draft international standard', 'automotive_design', 1998, #42 ) ;
#240 = DIRECTION ( 'NONE',  ( 1.000000000000000000, 0.000000000000000000, 0.000000000000000000 ) ) ;
#241 = ROLE_ASSOCIATION ( #194, #203 ) ;
#242 = APPLICATION_CONTEXT ( 'automotive_design' ) ;
#243 = PROPERTY_DEFINITION ('external definition','', #396 ) ;
#244 = AXIS2_PLACEMENT_3D ( 'NONE', #254, #290, #412 ) ;
#245 = PROPERTY_DEFINITION_REPRESENTATION ( #38, #22 ) ;
#246 = AXIS2_PLACEMENT_3D ( 'NONE', #39, #185, #310 ) ;
#247 = CARTESIAN_POINT ( 'NONE',  ( 0.000000000000000000, 0.000000000000000000, 0.000000000000000000 ) ) ;
#248 = PROPERTY_DEFINITION ('document property','', #361 ) ;
#249 = DOCUMENT_FILE ( 'MTB Saddle.STEP' , '', '', #187, '' ,$ ) ;
#250 = CONTEXT_DEPENDENT_SHAPE_REPRESENTATION ( #201, #430 ) ;
#251 =( REPRESENTATION_RELATIONSHIP ('NONE','NONE', #168, #425 ) REPRESENTATION_RELATIONSHIP_WITH_TRANSFORMATION ( #111 )SHAPE_REPRESENTATION_RELATIONSHIP( ) );
#252 =( NAMED_UNIT ( * ) PLANE_ANGLE_UNIT ( ) SI_UNIT ( $, .RADIAN. ) );
#253 = PRODUCT ( 'Bicycle Seat Post Assembly', 'Bicycle Seat Post Assembly', '', ( #175 ) ) ;
#254 = CARTESIAN_POINT ( 'NONE',  ( 12.00000000000000000, 37.75000000000000000, 0.000000000000000000 ) ) ;
#255 = UNCERTAINTY_MEASURE_WITH_UNIT (LENGTH_MEASURE( 1.000000000000000082E-05 ), #227, 'distance_accuracy_value', 'NONE');
#256 = DIRECTION ( 'NONE',  ( 1.000000000000000000, 0.000000000000000000, 0.000000000000000000 ) ) ;
#257 = PRODUCT_DEFINITION_SHAPE ( 'NONE', 'NONE',  #381 ) ;
#258 = EXTERNAL_SOURCE (IDENTIFIER('') ) ;
#259 = PRODUCT ( 'ISO - 4161 - M6 - N_ISO - 4161 - M6 - N', 'ISO - 4161 - M6 - N_ISO - 4161 - M6 - N', '', ( #351 ) ) ;
#260 = DIRECTION ( 'NONE',  ( 1.000000000000000000, 0.000000000000000000, 0.000000000000000000 ) ) ;
#261 = PRODUCT_DEFINITION_FORMATION_WITH_SPECIFIED_SOURCE ( 'Symmetric', '', #60, .NOT_KNOWN. ) ;
#262 = CARTESIAN_POINT ( 'NONE',  ( -7.480994990149980595E-15, 72.00000000000002842, 2.079327823426650258E-15 ) ) ;
#263 = OBJECT_ROLE ('mandatory',$ ) ;
#264 = PRODUCT_DEFINITION_SHAPE ( 'NONE', 'NONE',  #444 ) ;
#265 = DOCUMENT_TYPE ( 'geometry' ) ;
#266 = ROLE_ASSOCIATION ( #336, #296 ) ;
#267 = DOCUMENT_FILE ( 'ISO 14580 - #6 x 40 x 38 - 4.8-N_ISO 14580 - #6 x 40 x 38 - 4.8-N.STEP' , '', '', #395, '' ,$ ) ;
#268 =( NAMED_UNIT ( * ) SI_UNIT ( $, .STERADIAN. ) SOLID_ANGLE_UNIT ( ) );
#269 = PRODUCT_DEFINITION ( 'General', '', #18, #139 ) ;
#270 = APPLIED_DOCUMENT_REFERENCE ( #267,'',( #269) ) ;
#271 =( NAMED_UNIT ( * ) PLANE_ANGLE_UNIT ( ) SI_UNIT ( $, .RADIAN. ) );
#272 = PRODUCT_CONTEXT ( 'NONE', #25, 'mechanical' ) ;
#273 = PRODUCT ( 'Part4 washer spot 1', 'Part4 washer spot 1', '', ( #186 ) ) ;
#274 = PROPERTY_DEFINITION_REPRESENTATION ( #147, #19 ) ;
#275 = ROLE_ASSOCIATION ( #343, #335 ) ;
#276 = PRODUCT_DEFINITION_CONTEXT ( 'detailed design', #295, 'design' ) ;
#277 = OBJECT_ROLE ('mandatory',$ ) ;
#278 = AXIS2_PLACEMENT_3D ( 'NONE', #75, #66, #260 ) ;
#279 = DOCUMENT_FILE ( 'ISO 14580 - #6 x 40 x 38 - 4.8-N_ISO 14580 - #6 x 40 x 38 - 4.8-N.STEP' , '', '', #265, '' ,$ ) ;
#280 = APPLIED_EXTERNAL_IDENTIFICATION_ASSIGNMENT ( 'Part4 washer spot 1.STEP' , #69, #142,( #183) ) ;
#281 = PRODUCT_DEFINITION_SHAPE ( 'NONE', 'NONE',  #221 ) ;
#282 = APPLIED_DOCUMENT_REFERENCE ( #279,'',( #269) ) ;
#283 =( LENGTH_UNIT ( ) NAMED_UNIT ( * ) SI_UNIT ( .MILLI., .METRE. ) );
#284 = UNCERTAINTY_MEASURE_WITH_UNIT (LENGTH_MEASURE( 1.000000000000000082E-05 ), #353, 'distance_accuracy_value', 'NONE');
#285 = DIRECTION ( 'NONE',  ( 1.000000000000000000, 0.000000000000000000, 0.000000000000000000 ) ) ;
#286 = PRODUCT_DEFINITION_CONTEXT ( 'detailed design', #52, 'design' ) ;
#287 = PROPERTY_DEFINITION ('external definition','', #249 ) ;
#288 = OBJECT_ROLE ('mandatory',$ ) ;
#289 = DIRECTION ( 'NONE',  ( -1.303354081867511557E-17, -1.947440475593216459E-16, 1.000000000000000000 ) ) ;
#290 = DIRECTION ( 'NONE',  ( 5.551115123125782702E-17, 0.000000000000000000, 1.000000000000000000 ) ) ;
#291 = PRODUCT_DEFINITION_SHAPE ( 'NONE', 'NONE',  #446 ) ;
#292 = SHAPE_DEFINITION_REPRESENTATION ( #33, #64 ) ;
#293 =( GEOMETRIC_REPRESENTATION_CONTEXT ( 3 ) GLOBAL_UNCERTAINTY_ASSIGNED_CONTEXT ( ( #96 ) ) GLOBAL_UNIT_ASSIGNED_CONTEXT ( ( #156, #12, #268 ) ) REPRESENTATION_CONTEXT ( 'NONE', 'WORKASPACE' ) );
#294 = APPLIED_EXTERNAL_IDENTIFICATION_ASSIGNMENT ( 'Part5 washer spot 2.STEP' , #125, #317,( #86) ) ;
#295 = APPLICATION_CONTEXT ( 'automotive_design' ) ;
#296 = APPLIED_DOCUMENT_REFERENCE ( #361,'',( #381) ) ;
#297 = PRODUCT_DEFINITION_SHAPE ( 'NONE', 'NONE',  #414 ) ;
#298 = APPLIED_DOCUMENT_REFERENCE ( #152,'',( #381) ) ;
#299 = DOCUMENT_FILE ( 'Part1 Seatpost tube.STEP' , '', '', #110, '' ,$ ) ;
#300 =( REPRESENTATION_RELATIONSHIP ('NONE','NONE', #168, #223 ) REPRESENTATION_RELATIONSHIP_WITH_TRANSFORMATION ( #389 )SHAPE_REPRESENTATION_RELATIONSHIP( ) );
#301 = CARTESIAN_POINT ( 'NONE',  ( 0.000000000000000000, 0.000000000000000000, 0.000000000000000000 ) ) ;
#302 = PRODUCT_RELATED_PRODUCT_CATEGORY ( 'part', '', ( #346 ) ) ;
#303 = AXIS2_PLACEMENT_3D ( 'NONE', #179, #107, #415 ) ;
#304 = ITEM_DEFINED_TRANSFORMATION ( 'NONE', 'NONE', #244,  #71 ) ;
#305 = ITEM_DEFINED_TRANSFORMATION ( 'NONE', 'NONE', #212,  #359 ) ;
#306 = APPLICATION_CONTEXT ( 'automotive_design' ) ;
#307 = PROPERTY_DEFINITION_REPRESENTATION ( #348, #22 ) ;
#308 = CONTEXT_DEPENDENT_SHAPE_REPRESENTATION ( #65, #419 ) ;
#309 = DIRECTION ( 'NONE',  ( 1.000000000000000000, 0.000000000000000000, 0.000000000000000000 ) ) ;
#310 = DIRECTION ( 'NONE',  ( 1.000000000000000000, 0.000000000000000000, 0.000000000000000000 ) ) ;
#311 = PRODUCT_DEFINITION_SHAPE ( 'NONE', 'NONE',  #44 ) ;
#312 =( LENGTH_UNIT ( ) NAMED_UNIT ( * ) SI_UNIT ( .MILLI., .METRE. ) );
#313 = CARTESIAN_POINT ( 'NONE',  ( -4.336808689942016158E-15, 23.99999999999996803, -3.469446951953614189E-15 ) ) ;
#314 = PRODUCT ( 'Part5 washer spot 2', 'Part5 washer spot 2', '', ( #272 ) ) ;
#315 =( GEOMETRIC_REPRESENTATION_CONTEXT ( 3 ) GLOBAL_UNCERTAINTY_ASSIGNED_CONTEXT ( ( #63 ) ) GLOBAL_UNIT_ASSIGNED_CONTEXT ( ( #369, #206, #129 ) ) REPRESENTATION_CONTEXT ( 'NONE', 'WORKASPACE' ) );
#316 = PRODUCT_DEFINITION_FORMATION_WITH_SPECIFIED_SOURCE ( 'Symmetric', '', #273, .NOT_KNOWN. ) ;
#317 = EXTERNAL_SOURCE (IDENTIFIER('') ) ;
#318 =( NAMED_UNIT ( * ) SI_UNIT ( $, .STERADIAN. ) SOLID_ANGLE_UNIT ( ) );
#319 = SHAPE_DEFINITION_REPRESENTATION ( #416, #168 ) ;
#320 = SHAPE_REPRESENTATION ( 'MTB Saddle', ( #56 ), #328 ) ;
#321 = APPLICATION_PROTOCOL_DEFINITION ( 'draft international standard', 'automotive_design', 1998, #403 ) ;
#322 = PRODUCT_DEFINITION_SHAPE ( 'NONE', 'NONE',  #450 ) ;
#323 = APPLICATION_PROTOCOL_DEFINITION ( 'draft international standard', 'automotive_design', 1998, #52 ) ;
#324 =( REPRESENTATION_RELATIONSHIP ('NONE','NONE', #168, #22 ) REPRESENTATION_RELATIONSHIP_WITH_TRANSFORMATION ( #368 )SHAPE_REPRESENTATION_RELATIONSHIP( ) );
#325 = PROPERTY_DEFINITION ('document property','', #208 ) ;
#326 = DIRECTION ( 'NONE',  ( 0.000000000000000000, 0.000000000000000000, 1.000000000000000000 ) ) ;
#327 = SHAPE_DEFINITION_REPRESENTATION ( #311, #223 ) ;
#328 =( GEOMETRIC_REPRESENTATION_CONTEXT ( 3 ) GLOBAL_UNCERTAINTY_ASSIGNED_CONTEXT ( ( #216 ) ) GLOBAL_UNIT_ASSIGNED_CONTEXT ( ( #238, #153, #357 ) ) REPRESENTATION_CONTEXT ( 'NONE', 'WORKASPACE' ) );
#329 =( GEOMETRIC_REPRESENTATION_CONTEXT ( 3 ) GLOBAL_UNCERTAINTY_ASSIGNED_CONTEXT ( ( #284 ) ) GLOBAL_UNIT_ASSIGNED_CONTEXT ( ( #353, #8, #116 ) ) REPRESENTATION_CONTEXT ( 'NONE', 'WORKASPACE' ) );
#330 = PROPERTY_DEFINITION ('document property','', #396 ) ;
#331 = CONTEXT_DEPENDENT_SHAPE_REPRESENTATION ( #16, #264 ) ;
#332 =( REPRESENTATION_RELATIONSHIP ('NONE','NONE', #168, #64 ) REPRESENTATION_RELATIONSHIP_WITH_TRANSFORMATION ( #305 )SHAPE_REPRESENTATION_RELATIONSHIP( ) );
#333 = AXIS2_PLACEMENT_3D ( 'NONE', #14, #326, #427 ) ;
#334 = DIRECTION ( 'NONE',  ( -0.9999999999999997780, -1.595945597898662527E-16, 1.432646428068997959E-18 ) ) ;
#335 = APPLIED_DOCUMENT_REFERENCE ( #249,'',( #367) ) ;
#336 = OBJECT_ROLE ('mandatory',$ ) ;
#337 = APPLIED_DOCUMENT_REFERENCE ( #199,'',( #414) ) ;
#338 = DIRECTION ( 'NONE',  ( 1.000000000000000000, 0.000000000000000000, 0.000000000000000000 ) ) ;
#339 = PROPERTY_DEFINITION_REPRESENTATION ( #74, #223 ) ;
#340 = DIRECTION ( 'NONE',  ( 0.000000000000000000, 0.000000000000000000, 1.000000000000000000 ) ) ;
#341 = PROPERTY_DEFINITION ('document property','', #299 ) ;
#342 = DIRECTION ( 'NONE',  ( -1.754619344863036068E-16, 1.000000000000000000, 1.947440475593223362E-16 ) ) ;
#343 = OBJECT_ROLE ('mandatory',$ ) ;
#344 = PROPERTY_DEFINITION_REPRESENTATION ( #398, #64 ) ;
#345 = PRODUCT_DEFINITION_CONTEXT ( 'detailed design', #355, 'design' ) ;
#346 = PRODUCT ( 'Part3 Post', 'Part3 Post', '', ( #418 ) ) ;
#347 = DIRECTION ( 'NONE',  ( -1.526450161849695960E-16, -1.947440475593223855E-16, 1.000000000000000000 ) ) ;
#348 = PROPERTY_DEFINITION ('document property','', #199 ) ;
#349 =( NAMED_UNIT ( * ) PLANE_ANGLE_UNIT ( ) SI_UNIT ( $, .RADIAN. ) );
#350 = APPLICATION_CONTEXT ( 'automotive_design' ) ;
#351 = PRODUCT_CONTEXT ( 'NONE', #399, 'mechanical' ) ;
#352 = APPLIED_EXTERNAL_IDENTIFICATION_ASSIGNMENT ( 'MTB Saddle.STEP' , #374, #411,( #249) ) ;
#353 =( LENGTH_UNIT ( ) NAMED_UNIT ( * ) SI_UNIT ( .MILLI., .METRE. ) );
#354 = CONTEXT_DEPENDENT_SHAPE_REPRESENTATION ( #251, #404 ) ;
#355 = APPLICATION_CONTEXT ( 'automotive_design' ) ;
#356 = PROPERTY_DEFINITION_REPRESENTATION ( #380, #173 ) ;
#357 =( NAMED_UNIT ( * ) SI_UNIT ( $, .STERADIAN. ) SOLID_ANGLE_UNIT ( ) );
#358 = ROLE_ASSOCIATION ( #226, #46 ) ;
#359 = AXIS2_PLACEMENT_3D ( 'NONE', #59, #340, #382 ) ;
#360 = APPLIED_EXTERNAL_IDENTIFICATION_ASSIGNMENT ( 'Part1 Seatpost tube.STEP' , #198, #102,( #299) ) ;
#361 = DOCUMENT_FILE ( 'ISO - 4161 - M6 - N_ISO - 4161 - M6 - N.STEP' , '', '', #61, '' ,$ ) ;
#362 = EXTERNAL_SOURCE (IDENTIFIER('') ) ;
#363 = CONTEXT_DEPENDENT_SHAPE_REPRESENTATION ( #324, #62 ) ;
#364 = EXTERNAL_SOURCE (IDENTIFIER('') ) ;
#365 = DOCUMENT_FILE ( 'Part2.STEP' , '', '', #98, '' ,$ ) ;
#366 = PRODUCT_DEFINITION_FORMATION_WITH_SPECIFIED_SOURCE ( 'Symmetric', '', #314, .NOT_KNOWN. ) ;
#367 = PRODUCT_DEFINITION ( 'General', '', #195, #345 ) ;
#368 = ITEM_DEFINED_TRANSFORMATION ( 'NONE', 'NONE', #88,  #394 ) ;
#369 =( LENGTH_UNIT ( ) NAMED_UNIT ( * ) SI_UNIT ( .MILLI., .METRE. ) );
#370 = ROLE_ASSOCIATION ( #277, #434 ) ;
#371 = PRODUCT_DEFINITION_SHAPE ( 'NONE', 'NONE',  #49 ) ;
#372 = APPLICATION_CONTEXT ( 'automotive_design' ) ;
#373 = UNCERTAINTY_MEASURE_WITH_UNIT (LENGTH_MEASURE( 1.000000000000000082E-05 ), #84, 'distance_accuracy_value', 'NONE');
#374 = IDENTIFICATION_ROLE ( 'external document id and location', $) ;
#375 = DIRECTION ( 'NONE',  ( 1.764525842843963146E-17, 5.779219419273229270E-17, -0.9999999999999998890 ) ) ;
#376 = PRODUCT ( 'Part2', 'Part2', '', ( #138 ) ) ;
#377 = APPLICATION_PROTOCOL_DEFINITION ( 'draft international standard', 'automotive_design', 1998, #134 ) ;
#378 = APPLICATION_CONTEXT ( 'automotive_design' ) ;
#379 = APPLICATION_PROTOCOL_DEFINITION ( 'draft international standard', 'automotive_design', 1998, #242 ) ;
#380 = PROPERTY_DEFINITION ('external definition','', #267 ) ;
#381 = PRODUCT_DEFINITION ( 'General', '', #100, #92 ) ;
#382 = DIRECTION ( 'NONE',  ( 1.000000000000000000, 0.000000000000000000, 0.000000000000000000 ) ) ;
#383 =( GEOMETRIC_REPRESENTATION_CONTEXT ( 3 ) GLOBAL_UNCERTAINTY_ASSIGNED_CONTEXT ( ( #255 ) ) GLOBAL_UNIT_ASSIGNED_CONTEXT ( ( #227, #349, #318 ) ) REPRESENTATION_CONTEXT ( 'NONE', 'WORKASPACE' ) );
#384 = PRODUCT_RELATED_PRODUCT_CATEGORY ( 'part', '', ( #314 ) ) ;
#385 = DIRECTION ( 'NONE',  ( 0.000000000000000000, 1.249000902703300861E-16, -1.000000000000000000 ) ) ;
#386 = APPLICATION_PROTOCOL_DEFINITION ( 'draft international standard', 'automotive_design', 1998, #25 ) ;
#387 = OBJECT_ROLE ('mandatory',$ ) ;
#388 = ITEM_DEFINED_TRANSFORMATION ( 'NONE', 'NONE', #204,  #164 ) ;
#389 = ITEM_DEFINED_TRANSFORMATION ( 'NONE', 'NONE', #10,  #157 ) ;
#390 = DIRECTION ( 'NONE',  ( 0.000000000000000000, 0.000000000000000000, 1.000000000000000000 ) ) ;
#391 = PROPERTY_DEFINITION_REPRESENTATION ( #408, #118 ) ;
#392 = PRODUCT_RELATED_PRODUCT_CATEGORY ( 'part', '', ( #253 ) ) ;
#393 = DIRECTION ( 'NONE',  ( 1.000000000000000000, 0.000000000000000000, 0.000000000000000000 ) ) ;
#394 = AXIS2_PLACEMENT_3D ( 'NONE', #432, #421, #309 ) ;
#395 = DOCUMENT_TYPE ( 'geometry' ) ;
#396 = DOCUMENT_FILE ( 'Part5 washer spot 2.STEP' , '', '', #191, '' ,$ ) ;
#397 = DIRECTION ( 'NONE',  ( 1.000000000000000000, 0.000000000000000000, 0.000000000000000000 ) ) ;
#398 = PROPERTY_DEFINITION ('document property','', #183 ) ;
#399 = APPLICATION_CONTEXT ( 'automotive_design' ) ;
#400 = AXIS2_PLACEMENT_3D ( 'NONE', #29, #347, #36 ) ;
#401 = PRODUCT_DEFINITION_FORMATION_WITH_SPECIFIED_SOURCE ( 'Symmetric', '', #376, .NOT_KNOWN. ) ;
#402 = ROLE_ASSOCIATION ( #387, #337 ) ;
#403 = APPLICATION_CONTEXT ( 'automotive_design' ) ;
#404 = PRODUCT_DEFINITION_SHAPE ( 'NONE', 'NONE',  #441 ) ;
#405 = PROPERTY_DEFINITION_REPRESENTATION ( #151, #64 ) ;
#406 = ROLE_ASSOCIATION ( #40, #180 ) ;
#407 = DIRECTION ( 'NONE',  ( 0.9999999999999998890, 1.387778780781445182E-16, 1.764525842843964071E-17 ) ) ;
#408 = PROPERTY_DEFINITION ('document property','', #152 ) ;
#409 = UNCERTAINTY_MEASURE_WITH_UNIT (LENGTH_MEASURE( 1.000000000000000082E-05 ), #283, 'distance_accuracy_value', 'NONE');
#410 = AXIS2_PLACEMENT_3D ( 'NONE', #133, #145, #438 ) ;
#411 = EXTERNAL_SOURCE (IDENTIFIER('') ) ;
#412 = DIRECTION ( 'NONE',  ( -1.000000000000000000, 0.000000000000000000, 5.551115123125782702E-17 ) ) ;
#413 = PRODUCT_RELATED_PRODUCT_CATEGORY ( 'part', '', ( #259 ) ) ;
#414 = PRODUCT_DEFINITION ( 'General', '', #233, #30 ) ;
#415 = DIRECTION ( 'NONE',  ( 1.000000000000000000, 0.000000000000000000, -5.551115123125782702E-17 ) ) ;
#416 = PRODUCT_DEFINITION_SHAPE ( 'NONE', 'NONE',  #144 ) ;
#417 =( REPRESENTATION_RELATIONSHIP ('NONE','NONE', #168, #320 ) REPRESENTATION_RELATIONSHIP_WITH_TRANSFORMATION ( #160 )SHAPE_REPRESENTATION_RELATIONSHIP( ) );
#418 = PRODUCT_CONTEXT ( 'NONE', #350, 'mechanical' ) ;
#419 = PRODUCT_DEFINITION_SHAPE ( 'NONE', 'NONE',  #448 ) ;
#420 = PROPERTY_DEFINITION_REPRESENTATION ( #91, #118 ) ;
#421 = DIRECTION ( 'NONE',  ( 0.000000000000000000, 0.000000000000000000, 1.000000000000000000 ) ) ;
#422 = CONTEXT_DEPENDENT_SHAPE_REPRESENTATION ( #176, #27 ) ;
#423 = AXIS2_PLACEMENT_3D ( 'NONE', #72, #220, #256 ) ;
#424 = IDENTIFICATION_ROLE ( 'external document id and location', $) ;
#425 = SHAPE_REPRESENTATION ( 'Part1 Seatpost tube', ( #333 ), #293 ) ;
#426 = SHAPE_DEFINITION_REPRESENTATION ( #297, #22 ) ;
#427 = DIRECTION ( 'NONE',  ( 1.000000000000000000, 0.000000000000000000, 0.000000000000000000 ) ) ;
#428 = OBJECT_ROLE ('mandatory',$ ) ;
#429 = APPLICATION_PROTOCOL_DEFINITION ( 'draft international standard', 'automotive_design', 1998, #73 ) ;
#430 = PRODUCT_DEFINITION_SHAPE ( 'NONE', 'NONE',  #449 ) ;
#431 = IDENTIFICATION_ROLE ( 'external document id and location', $) ;
#432 = CARTESIAN_POINT ( 'NONE',  ( 0.000000000000000000, 0.000000000000000000, 0.000000000000000000 ) ) ;
#433 = APPLIED_EXTERNAL_IDENTIFICATION_ASSIGNMENT ( 'Part4 washer spot 1.STEP' , #431, #150,( #208) ) ;
#434 = APPLIED_DOCUMENT_REFERENCE ( #86,'',( #221) ) ;
#435 = EXTERNAL_SOURCE (IDENTIFIER('') ) ;
#436 = PROPERTY_DEFINITION_REPRESENTATION ( #136, #173 ) ;
#437 = PROPERTY_DEFINITION_REPRESENTATION ( #287, #320 ) ;
#438 = DIRECTION ( 'NONE',  ( 1.000000000000000000, 1.020938216699855529E-16, -1.173544993280903639E-16 ) ) ;
#439 = NEXT_ASSEMBLY_USAGE_OCCURRENCE ( 'NAUO1', ' ', ' ', #144, #381, $ ) ;
#440 = NEXT_ASSEMBLY_USAGE_OCCURRENCE ( 'NAUO2', ' ', ' ', #144, #381, $ ) ;
#441 = NEXT_ASSEMBLY_USAGE_OCCURRENCE ( 'NAUO3', ' ', ' ', #144, #49, $ ) ;
#442 = NEXT_ASSEMBLY_USAGE_OCCURRENCE ( 'NAUO4', ' ', ' ', #144, #269, $ ) ;
#443 = NEXT_ASSEMBLY_USAGE_OCCURRENCE ( 'NAUO5', ' ', ' ', #144, #367, $ ) ;
#444 = NEXT_ASSEMBLY_USAGE_OCCURRENCE ( 'NAUO6', ' ', ' ', #144, #269, $ ) ;
#445 = NEXT_ASSEMBLY_USAGE_OCCURRENCE ( 'NAUO7', ' ', ' ', #144, #414, $ ) ;
#446 = NEXT_ASSEMBLY_USAGE_OCCURRENCE ( 'NAUO8', ' ', ' ', #144, #221, $ ) ;
#447 = NEXT_ASSEMBLY_USAGE_OCCURRENCE ( 'NAUO9', ' ', ' ', #144, #44, $ ) ;
#448 = NEXT_ASSEMBLY_USAGE_OCCURRENCE ( 'NAUO10', ' ', ' ', #144, #79, $ ) ;
#449 = NEXT_ASSEMBLY_USAGE_OCCURRENCE ( 'NAUO11', ' ', ' ', #144, #221, $ ) ;
#450 = NEXT_ASSEMBLY_USAGE_OCCURRENCE ( 'NAUO12', ' ', ' ', #144, #79, $ ) ;
ENDSEC;
END-ISO-10303-21;
