ISO-10303-21;
HEADER;
FILE_DESCRIPTION (( 'STEP AP214' ),
    '1' );
FILE_NAME ('ISO 14580 - #6 x 40 x 38 - 4.8-N.STEP',
    '2025-08-01T10:42:31',
    ( '' ),
    ( '' ),
    'SwSTEP 2.0',
    'SolidWorks 2025',
    '' );
FILE_SCHEMA (( 'AUTOMOTIVE_DESIGN' ));
ENDSEC;

DATA;
#1 = PLANE ( 'NONE',  #49 ) ;
#2 = AXIS2_PLACEMENT_3D ( 'NONE', #493, #108, #26 ) ;
#3 = AXIS2_PLACEMENT_3D ( 'NONE', #142, #393, #478 ) ;
#4 = CARTESIAN_POINT ( 'NONE',  ( 0.000000000000000000, 44.39999999999999858, 0.000000000000000000 ) ) ;
#5 = VERTEX_POINT ( 'NONE', #437 ) ;
#6 = EDGE_CURVE ( 'NONE', #96, #260, #197, .T. ) ;
#7 = FACE_OUTER_BOUND ( 'NONE', #41, .T. ) ;
#8 = EDGE_LOOP ( 'NONE', ( #461, #481 ) ) ;
#9 = VERTEX_POINT ( 'NONE', #307 ) ;
#10 = CARTESIAN_POINT ( 'NONE',  ( 3.277773254286092534E-15, 42.10999999999999943, 3.677002381171413425 ) ) ;
#11 = ORIENTED_EDGE ( 'NONE', *, *, #84, .T. ) ;
#12 = CIRCLE ( 'NONE', #101, 1.866666666666499941 ) ;
#13 = DIRECTION ( 'NONE',  ( 0.000000000000000000, 0.000000000000000000, -1.000000000000000000 ) ) ;
#14 = AXIS2_PLACEMENT_3D ( 'NONE', #223, #264, #140 ) ;
#15 = PLANE ( 'NONE',  #14 ) ;
#16 = EDGE_LOOP ( 'NONE', ( #133, #361, #244, #365, #419, #265 ) ) ;
#17 =( NAMED_UNIT ( * ) SI_UNIT ( $, .STERADIAN. ) SOLID_ANGLE_UNIT ( ) );
#18 = CARTESIAN_POINT ( 'NONE',  ( 0.000000000000000000, 44.39999999999999858, 0.000000000000000000 ) ) ;
#19 = EDGE_LOOP ( 'NONE', ( #506, #136, #184, #235, #206, #332 ) ) ;
#20 = CARTESIAN_POINT ( 'NONE',  ( 0.000000000000000000, 2.081899558550500526E-16, -3.000000000000000000 ) ) ;
#21 = CARTESIAN_POINT ( 'NONE',  ( 1.464062911978391668, 42.10999999999999943, 1.310163888633343987 ) ) ;
#22 = DIRECTION ( 'NONE',  ( 0.000000000000000000, -0.000000000000000000, 1.000000000000000000 ) ) ;
#23 = SURFACE_STYLE_FILL_AREA ( #435 ) ;
#24 = CIRCLE ( 'NONE', #154, 2.659805806756907920 ) ;
#25 = PLANE ( 'NONE',  #254 ) ;
#26 = DIRECTION ( 'NONE',  ( 0.000000000000000000, 0.000000000000000000, 1.000000000000000000 ) ) ;
#27 = FACE_OUTER_BOUND ( 'NONE', #306, .T. ) ;
#28 = DIRECTION ( 'NONE',  ( 0.000000000000000000, -0.000000000000000000, 1.000000000000000000 ) ) ;
#29 = CARTESIAN_POINT ( 'NONE',  ( 3.184377471870327714, 42.10999999999999943, 1.838501190585708933 ) ) ;
#30 = CARTESIAN_POINT ( 'NONE',  ( 0.000000000000000000, 44.17099999999999937, 0.000000000000000000 ) ) ;
#31 = EDGE_LOOP ( 'NONE', ( #483 ) ) ;
#32 = CIRCLE ( 'NONE', #303, 2.799999999999999822 ) ;
#33 = COLOUR_RGB ( '',0.7921568627450980005, 0.8196078431372548767, 0.9333333333333333481 ) ;
#34 = PRODUCT_RELATED_PRODUCT_CATEGORY ( 'part', '', ( #115 ) ) ;
#35 = CARTESIAN_POINT ( 'NONE',  ( 2.818925648462311528E-15, 42.10999999999999233, -3.677002381171428524 ) ) ;
#36 = CARTESIAN_POINT ( 'NONE',  ( 2.525522069268482106, 44.17099999999999227, -1.225667460390460706 ) ) ;
#37 = ADVANCED_FACE ( 'NONE', ( #310 ), #318, .T. ) ;
#38 = ORIENTED_EDGE ( 'NONE', *, *, #287, .T. ) ;
#39 = FACE_OUTER_BOUND ( 'NONE', #534, .T. ) ;
#40 = EDGE_CURVE ( 'NONE', #146, #146, #126, .T. ) ;
#41 = EDGE_LOOP ( 'NONE', ( #292 ) ) ;
#42 = B_SPLINE_CURVE_WITH_KNOTS ( 'NONE', 3,
 ( #314, #406, #520, #525, #139 ),
 .UNSPECIFIED., .F., .F.,
 ( 4, 1, 4 ),
 ( 0.1666666666666676011, 0.2500000000000001110, 0.3333333333333324822 ),
 .UNSPECIFIED. ) ;
#43 = FACE_OUTER_BOUND ( 'NONE', #148, .T. ) ;
#44 = AXIS2_PLACEMENT_3D ( 'NONE', #183, #186, #268 ) ;
#45 = EDGE_CURVE ( 'NONE', #57, #209, #32, .T. ) ;
#46 = CARTESIAN_POINT ( 'NONE',  ( 3.680055216716029007E-15, 42.10999999999999943, 3.677002381171415202 ) ) ;
#47 = CARTESIAN_POINT ( 'NONE',  ( -0.9333333333332552995, 42.11000000000000654, -1.616580753730805009 ) ) ;
#48 = CARTESIAN_POINT ( 'NONE',  ( 0.000000000000000000, 40.00000000000000000, 0.000000000000000000 ) ) ;
#49 = AXIS2_PLACEMENT_3D ( 'NONE', #468, #341, #466 ) ;
#50 = CARTESIAN_POINT ( 'NONE',  ( 1.207811264064835299, 42.10999999999999943, -2.754589237198687081E-16 ) ) ;
#51 = DIRECTION ( 'NONE',  ( 0.000000000000000000, 0.000000000000000000, -1.000000000000000000 ) ) ;
#52 = PRESENTATION_STYLE_ASSIGNMENT (( #104 ) ) ;
#53 = CARTESIAN_POINT ( 'NONE',  ( 0.000000000000000000, 39.75000000000000000, 0.000000000000000000 ) ) ;
#54 = EDGE_LOOP ( 'NONE', ( #267 ) ) ;
#55 = EDGE_CURVE ( 'NONE', #500, #489, #172, .T. ) ;
#56 = CARTESIAN_POINT ( 'NONE',  ( 0.000000000000000000, 44.17099999999999937, 0.000000000000000000 ) ) ;
#57 = VERTEX_POINT ( 'NONE', #283 ) ;
#58 = DIRECTION ( 'NONE',  ( -0.000000000000000000, -1.000000000000000000, -0.000000000000000000 ) ) ;
#59 = ORIENTED_EDGE ( 'NONE', *, *, #258, .F. ) ;
#60 = VERTEX_POINT ( 'NONE', #263 ) ;
#61 = CARTESIAN_POINT ( 'NONE',  ( -2.324220191924382117, 44.17099999999999227, -1.574332539609529125 ) ) ;
#62 = CARTESIAN_POINT ( 'NONE',  ( 0.000000000000000000, 44.17099999999999937, 0.000000000000000000 ) ) ;
#63 =( NAMED_UNIT ( * ) PLANE_ANGLE_UNIT ( ) SI_UNIT ( $, .RADIAN. ) );
#64 = PLANE ( 'NONE',  #471 ) ;
#65 = EDGE_CURVE ( 'NONE', #500, #489, #239, .T. ) ;
#66 = CARTESIAN_POINT ( 'NONE',  ( 0.4026037546882762497, 42.10999999999999943, -1.922997618828568678 ) ) ;
#67 = EDGE_CURVE ( 'NONE', #94, #5, #442, .T. ) ;
#68 = AXIS2_PLACEMENT_3D ( 'NONE', #91, #434, #51 ) ;
#69 = CARTESIAN_POINT ( 'NONE',  ( -2.424871130596427005, 44.17099999999999937, 1.400000000000001243 ) ) ;
#70 = DIRECTION ( 'NONE',  ( 0.000000000000000000, 1.000000000000000000, 0.000000000000000000 ) ) ;
#71 = ADVANCED_FACE ( 'NONE', ( #371, #238 ), #80, .T. ) ;
#72 = CARTESIAN_POINT ( 'NONE',  ( 2.424871130596427449, 44.17099999999999937, 1.400000000000000355 ) ) ;
#73 = CARTESIAN_POINT ( 'NONE',  ( 1.207811264064852175, 44.17099999999999227, 5.409996173156882552E-16 ) ) ;
#74 = VERTEX_POINT ( 'NONE', #277 ) ;
#75 = DIRECTION ( 'NONE',  ( -0.000000000000000000, 1.000000000000000000, 0.000000000000000000 ) ) ;
#76 = CARTESIAN_POINT ( 'NONE',  ( -0.9333333333332552995, 42.11000000000000654, -1.616580753730805009 ) ) ;
#77 = ORIENTED_EDGE ( 'NONE', *, *, #287, .F. ) ;
#78 = AXIS2_PLACEMENT_3D ( 'NONE', #411, #536, #28 ) ;
#79 = B_SPLINE_CURVE_WITH_KNOTS ( 'NONE', 3,
 ( #252, #428, #509, #339, #424 ),
 .UNSPECIFIED., .F., .F.,
 ( 4, 1, 4 ),
 ( 0.5833333333333334814, 0.6666666666666665186, 0.7499999999999998890 ),
 .UNSPECIFIED. ) ;
#80 = PLANE ( 'NONE',  #487 ) ;
#81 = EDGE_LOOP ( 'NONE', ( #130, #415 ) ) ;
#82 = DIRECTION ( 'NONE',  ( 0.000000000000000000, 0.000000000000000000, -1.000000000000000000 ) ) ;
#83 = CARTESIAN_POINT ( 'NONE',  ( 0.000000000000000000, 40.00000000000000000, 0.000000000000000000 ) ) ;
#84 = EDGE_CURVE ( 'NONE', #530, #96, #384, .T. ) ;
#85 = CIRCLE ( 'NONE', #170, 2.799999999999999822 ) ;
#86 = DIRECTION ( 'NONE',  ( 0.000000000000000000, 0.000000000000000000, -1.000000000000000000 ) ) ;
#87 = CIRCLE ( 'NONE', #212, 1.866666666666499941 ) ;
#88 = PLANE ( 'NONE',  #192 ) ;
#89 = CARTESIAN_POINT ( 'NONE',  ( -0.9333333333332501924, 42.11000000000000654, 1.616580753730807452 ) ) ;
#90 = EDGE_LOOP ( 'NONE', ( #350 ) ) ;
#91 = CARTESIAN_POINT ( 'NONE',  ( 0.000000000000000000, 38.00000000000000000, 0.000000000000000000 ) ) ;
#92 = AXIS2_PLACEMENT_3D ( 'NONE', #245, #198, #413 ) ;
#93 = DIRECTION ( 'NONE',  ( 0.000000000000000000, 0.000000000000000000, -1.000000000000000000 ) ) ;
#94 = VERTEX_POINT ( 'NONE', #204 ) ;
#95 = FACE_OUTER_BOUND ( 'NONE', #514, .T. ) ;
#96 = VERTEX_POINT ( 'NONE', #285 ) ;
#97 = ADVANCED_FACE ( 'NONE', ( #414 ), #375, .T. ) ;
#98 = VERTEX_POINT ( 'NONE', #351 ) ;
#99 = CARTESIAN_POINT ( 'NONE',  ( 0.2013018773441398457, 42.10999999999999943, -2.799999999999995826 ) ) ;
#100 = ORIENTED_EDGE ( 'NONE', *, *, #40, .F. ) ;
#101 = AXIS2_PLACEMENT_3D ( 'NONE', #386, #298, #86 ) ;
#102 = CARTESIAN_POINT ( 'NONE',  ( 0.6039056320324118765, 42.10999999999999943, -1.045995237657146193 ) ) ;
#103 = ORIENTED_EDGE ( 'NONE', *, *, #216, .F. ) ;
#104 = SURFACE_STYLE_USAGE ( .BOTH. , #185 ) ;
#105 = ADVANCED_FACE ( 'NONE', ( #369 ), #420, .T. ) ;
#106 = CARTESIAN_POINT ( 'NONE',  ( -0.6039056320324348581, 44.17099999999999937, -1.045995237657155297 ) ) ;
#107 = ADVANCED_FACE ( 'NONE', ( #279 ), #453, .T. ) ;
#108 = DIRECTION ( 'NONE',  ( 0.000000000000000000, 1.000000000000000000, 0.000000000000000000 ) ) ;
#109 = CARTESIAN_POINT ( 'NONE',  ( 0.000000000000000000, 44.17099999999999937, 0.000000000000000000 ) ) ;
#110 = CARTESIAN_POINT ( 'NONE',  ( 0.000000000000000000, 44.17099999999999937, 0.000000000000000000 ) ) ;
#111 = ADVANCED_FACE ( 'NONE', ( #202 ), #243, .T. ) ;
#112 = CARTESIAN_POINT ( 'NONE',  ( -3.184377471870323273, 44.17099999999999937, -1.838501190585705380 ) ) ;
#113 = DIRECTION ( 'NONE',  ( 0.000000000000000000, 0.000000000000000000, -1.000000000000000000 ) ) ;
#114 = ADVANCED_FACE ( 'NONE', ( #539 ), #455, .T. ) ;
#115 = PRODUCT ( 'ISO 14580 - #6 x 40 x 38 - 4.8-N_ISO 14580 - #6 x 40 x 38 - 4.8-N', 'ISO 14580 - #6 x 40 x 38 - 4.8-N_ISO 14580 - #6 x 40 x 38 - 4.8-N', '', ( #319 ) ) ;
#116 = CARTESIAN_POINT ( 'NONE',  ( -3.184377471870324161, 44.17099999999999937, 1.838501190585705825 ) ) ;
#117 = CARTESIAN_POINT ( 'NONE',  ( 0.6039056320324145410, 44.17099999999999227, -1.045995237657134425 ) ) ;
#118 = ORIENTED_EDGE ( 'NONE', *, *, #554, .F. ) ;
#119 = CARTESIAN_POINT ( 'NONE',  ( 2.324220191924382561, 44.17099999999999937, -1.574332539609533788 ) ) ;
#120 = EDGE_LOOP ( 'NONE', ( #229, #503 ) ) ;
#121 = CARTESIAN_POINT ( 'NONE',  ( 0.000000000000000000, 0.000000000000000000, 0.000000000000000000 ) ) ;
#122 = ORIENTED_EDGE ( 'NONE', *, *, #211, .T. ) ;
#123 = DIRECTION ( 'NONE',  ( 0.000000000000000000, 1.000000000000000000, 0.000000000000000000 ) ) ;
#124 = EDGE_CURVE ( 'NONE', #209, #500, #464, .T. ) ;
#125 = CARTESIAN_POINT ( 'NONE',  ( -1.866666666666499941, 42.11000000000000654, 2.280131473890833924E-15 ) ) ;
#126 = CIRCLE ( 'NONE', #68, 3.000000000000000000 ) ;
#127 = CARTESIAN_POINT ( 'NONE',  ( 1.866666666666499941, 42.11000000000000654, 5.421010862427038993E-17 ) ) ;
#128 = PRODUCT_DEFINITION ( 'General', '', #479, #161 ) ;
#129 = DIRECTION ( 'NONE',  ( 0.000000000000000000, 1.000000000000000000, 0.000000000000000000 ) ) ;
#130 = ORIENTED_EDGE ( 'NONE', *, *, #163, .F. ) ;
#131 = EDGE_CURVE ( 'NONE', #484, #484, #179, .T. ) ;
#132 = DIRECTION ( 'NONE',  ( -0.000000000000000000, 1.000000000000000000, -0.000000000000000000 ) ) ;
#133 = ORIENTED_EDGE ( 'NONE', *, *, #467, .F. ) ;
#134 = CARTESIAN_POINT ( 'NONE',  ( 0.000000000000000000, 40.00000000000000000, -5.000000000000000000 ) ) ;
#135 = DIRECTION ( 'NONE',  ( 0.000000000000000000, 0.000000000000000000, -1.000000000000000000 ) ) ;
#136 = ORIENTED_EDGE ( 'NONE', *, *, #412, .T. ) ;
#137 = CARTESIAN_POINT ( 'NONE',  ( 3.184377471870329046, 44.17099999999999937, 1.838501190585710043 ) ) ;
#138 = CARTESIAN_POINT ( 'NONE',  ( 1.464062911978385451, 42.11000000000000654, -1.310163888633336438 ) ) ;
#139 = CARTESIAN_POINT ( 'NONE',  ( -2.424871130596427005, 44.17099999999999937, 1.400000000000001243 ) ) ;
#140 = DIRECTION ( 'NONE',  ( 0.000000000000000000, -0.000000000000000000, 1.000000000000000000 ) ) ;
#141 = ORIENTED_EDGE ( 'NONE', *, *, #55, .F. ) ;
#142 = CARTESIAN_POINT ( 'NONE',  ( 0.000000000000000000, 0.000000000000000000, 0.000000000000000000 ) ) ;
#143 = FACE_OUTER_BOUND ( 'NONE', #19, .T. ) ;
#144 = CARTESIAN_POINT ( 'NONE',  ( 1.866666666666499941, 42.11000000000000654, 5.421010862427038993E-17 ) ) ;
#145 = CIRCLE ( 'NONE', #219, 4.615049880485964096 ) ;
#146 = VERTEX_POINT ( 'NONE', #177 ) ;
#147 = CARTESIAN_POINT ( 'NONE',  ( 2.424871130596427893, 44.17099999999999937, -1.399999999999999911 ) ) ;
#148 = EDGE_LOOP ( 'NONE', ( #395, #222 ) ) ;
#149 = CARTESIAN_POINT ( 'NONE',  ( 0.000000000000000000, 44.17099999999999937, 2.799999999999999822 ) ) ;
#150 = DIRECTION ( 'NONE',  ( 0.000000000000000000, 0.000000000000000000, 1.000000000000000000 ) ) ;
#151 = DIRECTION ( 'NONE',  ( 0.000000000000000000, 1.000000000000000000, 0.000000000000000000 ) ) ;
#152 = EDGE_CURVE ( 'NONE', #530, #96, #549, .T. ) ;
#153 = CARTESIAN_POINT ( 'NONE',  ( 3.000000000000000000, 1.040949779275250263E-16, 0.000000000000000000 ) ) ;
#154 = AXIS2_PLACEMENT_3D ( 'NONE', #291, #295, #293 ) ;
#155 = CARTESIAN_POINT ( 'NONE',  ( 0.2013018773441421494, 44.17099999999998516, 2.800000000000002487 ) ) ;
#156 = DIRECTION ( 'NONE',  ( 0.000000000000000000, -0.000000000000000000, 1.000000000000000000 ) ) ;
#157 = ORIENTED_EDGE ( 'NONE', *, *, #194, .T. ) ;
#158 = DIRECTION ( 'NONE',  ( 0.000000000000000000, -0.000000000000000000, 1.000000000000000000 ) ) ;
#159 = ORIENTED_EDGE ( 'NONE', *, *, #300, .T. ) ;
#160 = FACE_OUTER_BOUND ( 'NONE', #90, .T. ) ;
#161 = PRODUCT_DEFINITION_CONTEXT ( 'detailed design', #201, 'design' ) ;
#162 = ORIENTED_EDGE ( 'NONE', *, *, #194, .F. ) ;
#163 = EDGE_CURVE ( 'NONE', #400, #530, #213, .T. ) ;
#164 = CLOSED_SHELL ( 'NONE', ( #205, #208, #107, #111, #367, #427, #71, #366, #527, #438, #305, #105, #340, #331, #97, #309, #423, #37, #187, #114, #421, #294 ) ) ;
#165 = EDGE_CURVE ( 'NONE', #286, #400, #79, .T. ) ;
#166 =( GEOMETRIC_REPRESENTATION_CONTEXT ( 3 ) GLOBAL_UNCERTAINTY_ASSIGNED_CONTEXT ( ( #334 ) ) GLOBAL_UNIT_ASSIGNED_CONTEXT ( ( #236, #63, #17 ) ) REPRESENTATION_CONTEXT ( 'NONE', 'WORKASPACE' ) );
#167 = DIRECTION ( 'NONE',  ( -0.000000000000000000, -1.000000000000000000, -0.000000000000000000 ) ) ;
#168 = DIRECTION ( 'NONE',  ( 0.000000000000000000, 1.000000000000000000, 0.000000000000000000 ) ) ;
#169 = CARTESIAN_POINT ( 'NONE',  ( -0.9333333333332501924, 42.11000000000000654, 1.616580753730807452 ) ) ;
#170 = AXIS2_PLACEMENT_3D ( 'NONE', #220, #168, #388 ) ;
#171 = DIRECTION ( 'NONE',  ( -0.000000000000000000, 1.000000000000000000, 0.000000000000000000 ) ) ;
#172 = B_SPLINE_CURVE_WITH_KNOTS ( 'NONE', 3,
 ( #417, #119, #117, #457, #323 ),
 .UNSPECIFIED., .F., .F.,
 ( 4, 1, 4 ),
 ( 0.8333333333333319271, 0.9166666666666666297, 1.000000000000000000 ),
 .UNSPECIFIED. ) ;
#173 = CARTESIAN_POINT ( 'NONE',  ( -2.710505431213761085E-17, 42.10999999999999943, -2.800000000000000266 ) ) ;
#174 = EDGE_LOOP ( 'NONE', ( #248 ) ) ;
#175 = DIRECTION ( 'NONE',  ( 0.000000000000000000, 0.000000000000000000, -1.000000000000000000 ) ) ;
#176 = ORIENTED_EDGE ( 'NONE', *, *, #258, .T. ) ;
#177 = CARTESIAN_POINT ( 'NONE',  ( 0.000000000000000000, 38.00000000000000000, -3.000000000000000000 ) ) ;
#178 = CARTESIAN_POINT ( 'NONE',  ( 3.277773254286092534E-15, 44.17099999999999937, 3.677002381171413425 ) ) ;
#179 = CIRCLE ( 'NONE', #289, 3.000000000000000000 ) ;
#180 = ORIENTED_EDGE ( 'NONE', *, *, #6, .T. ) ;
#181 = AXIS2_PLACEMENT_3D ( 'NONE', #362, #233, #227 ) ;
#182 = APPLICATION_PROTOCOL_DEFINITION ( 'draft international standard', 'automotive_design', 1998, #201 ) ;
#183 = CARTESIAN_POINT ( 'NONE',  ( 0.000000000000000000, 44.17099999999999937, 0.000000000000000000 ) ) ;
#184 = ORIENTED_EDGE ( 'NONE', *, *, #537, .T. ) ;
#185 = SURFACE_SIDE_STYLE ('',( #23 ) ) ;
#186 = DIRECTION ( 'NONE',  ( 0.000000000000000000, 1.000000000000000000, 0.000000000000000000 ) ) ;
#187 = ADVANCED_FACE ( 'NONE', ( #343 ), #422, .T. ) ;
#188 = ORIENTED_EDGE ( 'NONE', *, *, #163, .T. ) ;
#189 = APPLICATION_PROTOCOL_DEFINITION ( 'draft international standard', 'automotive_design', 1998, #383 ) ;
#190 = CARTESIAN_POINT ( 'NONE',  ( 0.6039056320324243110, 44.17099999999999227, 1.045995237657150634 ) ) ;
#191 = EDGE_LOOP ( 'NONE', ( #440 ) ) ;
#192 = AXIS2_PLACEMENT_3D ( 'NONE', #379, #171, #218 ) ;
#193 =( GEOMETRIC_REPRESENTATION_CONTEXT ( 3 ) GLOBAL_UNCERTAINTY_ASSIGNED_CONTEXT ( ( #460 ) ) GLOBAL_UNIT_ASSIGNED_CONTEXT ( ( #401, #275, #449 ) ) REPRESENTATION_CONTEXT ( 'NONE', 'WORKASPACE' ) );
#194 = EDGE_CURVE ( 'NONE', #98, #98, #24, .T. ) ;
#195 = CARTESIAN_POINT ( 'NONE',  ( 0.000000000000000000, 44.17099999999999937, 2.799999999999999822 ) ) ;
#196 = DIRECTION ( 'NONE',  ( 0.000000000000000000, 1.000000000000000000, 0.000000000000000000 ) ) ;
#197 = B_SPLINE_CURVE_WITH_KNOTS ( 'NONE', 3,
 ( #476, #138, #357, #524, #144 ),
 .UNSPECIFIED., .F., .F.,
 ( 4, 1, 4 ),
 ( 0.08333333333333317605, 0.1666666666666671293, 0.2500000000000004996 ),
 .UNSPECIFIED. ) ;
#198 = DIRECTION ( 'NONE',  ( -0.000000000000000000, -1.000000000000000000, -0.000000000000000000 ) ) ;
#199 = CARTESIAN_POINT ( 'NONE',  ( 2.525522069268481218, 44.17099999999999227, 1.225667460390457375 ) ) ;
#200 = CARTESIAN_POINT ( 'NONE',  ( -3.184377471870323273, 42.10999999999999943, -1.838501190585705380 ) ) ;
#201 = APPLICATION_CONTEXT ( 'automotive_design' ) ;
#202 = FACE_OUTER_BOUND ( 'NONE', #374, .T. ) ;
#203 = EDGE_LOOP ( 'NONE', ( #353 ) ) ;
#204 = CARTESIAN_POINT ( 'NONE',  ( -2.424871130596428337, 44.17099999999999937, -1.399999999999999467 ) ) ;
#205 = ADVANCED_FACE ( 'NONE', ( #385 ), #1, .T. ) ;
#206 = ORIENTED_EDGE ( 'NONE', *, *, #499, .T. ) ;
#207 = CARTESIAN_POINT ( 'NONE',  ( 0.000000000000000000, 44.39999999999999858, 0.000000000000000000 ) ) ;
#208 = ADVANCED_FACE ( 'NONE', ( #43 ), #88, .T. ) ;
#209 = VERTEX_POINT ( 'NONE', #508 ) ;
#210 = EDGE_LOOP ( 'NONE', ( #381 ) ) ;
#211 = EDGE_CURVE ( 'NONE', #396, #396, #505, .T. ) ;
#212 = AXIS2_PLACEMENT_3D ( 'NONE', #511, #473, #297 ) ;
#213 = B_SPLINE_CURVE_WITH_KNOTS ( 'NONE', 3,
 ( #125, #255, #507, #429, #47 ),
 .UNSPECIFIED., .F., .F.,
 ( 4, 1, 4 ),
 ( 0.7499999999999998890, 0.8333333333333338144, 0.9166666666666664076 ),
 .UNSPECIFIED. ) ;
#214 = CIRCLE ( 'NONE', #181, 1.866666666666499941 ) ;
#215 = DIRECTION ( 'NONE',  ( 0.000000000000000000, 0.000000000000000000, -1.000000000000000000 ) ) ;
#216 = EDGE_CURVE ( 'NONE', #74, #286, #12, .T. ) ;
#217 = CARTESIAN_POINT ( 'NONE',  ( -0.4026037546882907381, 42.10999999999999943, 1.922997618828589994 ) ) ;
#218 = DIRECTION ( 'NONE',  ( 0.000000000000000000, -0.000000000000000000, 1.000000000000000000 ) ) ;
#219 = AXIS2_PLACEMENT_3D ( 'NONE', #18, #58, #526 ) ;
#220 = CARTESIAN_POINT ( 'NONE',  ( 0.000000000000000000, 44.17099999999999937, 0.000000000000000000 ) ) ;
#221 = MECHANICAL_DESIGN_GEOMETRIC_PRESENTATION_REPRESENTATION (  '', ( #432 ), #193 ) ;
#222 = ORIENTED_EDGE ( 'NONE', *, *, #516, .T. ) ;
#223 = CARTESIAN_POINT ( 'NONE',  ( 3.214051190472014544E-15, 42.10999999999999943, 2.799999999999999378 ) ) ;
#224 = ORIENTED_EDGE ( 'NONE', *, *, #378, .F. ) ;
#225 = CYLINDRICAL_SURFACE ( 'NONE', #296, 2.799999999999999822 ) ;
#226 = EDGE_LOOP ( 'NONE', ( #550, #302 ) ) ;
#227 = DIRECTION ( 'NONE',  ( 0.000000000000000000, 0.000000000000000000, -1.000000000000000000 ) ) ;
#228 = FACE_OUTER_BOUND ( 'NONE', #174, .T. ) ;
#229 = ORIENTED_EDGE ( 'NONE', *, *, #326, .T. ) ;
#230 = EDGE_CURVE ( 'NONE', #515, #515, #327, .T. ) ;
#231 = DIRECTION ( 'NONE',  ( 0.000000000000000000, 1.000000000000000000, 0.000000000000000000 ) ) ;
#232 = ORIENTED_EDGE ( 'NONE', *, *, #165, .F. ) ;
#233 = DIRECTION ( 'NONE',  ( -0.000000000000000000, -1.000000000000000000, -0.000000000000000000 ) ) ;
#234 = PLANE ( 'NONE',  #408 ) ;
#235 = ORIENTED_EDGE ( 'NONE', *, *, #523, .T. ) ;
#236 =( LENGTH_UNIT ( ) NAMED_UNIT ( * ) SI_UNIT ( .MILLI., .METRE. ) );
#237 = CARTESIAN_POINT ( 'NONE',  ( -1.471500323675310343E-15, 44.17099999999998516, -2.800000000000000266 ) ) ;
#238 = FACE_OUTER_BOUND ( 'NONE', #54, .T. ) ;
#239 = CIRCLE ( 'NONE', #2, 2.799999999999999822 ) ;
#240 = CARTESIAN_POINT ( 'NONE',  ( -2.324220191924379897, 44.17099999999998516, 1.574332539609534898 ) ) ;
#241 = DIRECTION ( 'NONE',  ( 0.000000000000000000, -0.000000000000000000, 1.000000000000000000 ) ) ;
#242 = CARTESIAN_POINT ( 'NONE',  ( -0.2013018773441429266, 42.10999999999999943, -2.800000000000004707 ) ) ;
#243 = PLANE ( 'NONE',  #418 ) ;
#244 = ORIENTED_EDGE ( 'NONE', *, *, #300, .F. ) ;
#245 = CARTESIAN_POINT ( 'NONE',  ( 0.000000000000000000, 38.00000000000000000, 0.000000000000000000 ) ) ;
#246 = DIRECTION ( 'NONE',  ( 0.000000000000000000, -0.000000000000000000, 1.000000000000000000 ) ) ;
#247 = AXIS2_PLACEMENT_3D ( 'NONE', #48, #555, #253 ) ;
#248 = ORIENTED_EDGE ( 'NONE', *, *, #230, .F. ) ;
#249 = AXIS2_PLACEMENT_3D ( 'NONE', #495, #404, #372 ) ;
#250 = CARTESIAN_POINT ( 'NONE',  ( 0.9333333333333289072, 42.10999999999999943, -1.616580753730954667 ) ) ;
#251 = ORIENTED_EDGE ( 'NONE', *, *, #152, .T. ) ;
#252 = CARTESIAN_POINT ( 'NONE',  ( -0.9333333333332501924, 42.11000000000000654, 1.616580753730807452 ) ) ;
#253 = DIRECTION ( 'NONE',  ( 0.000000000000000000, 0.000000000000000000, -1.000000000000000000 ) ) ;
#254 = AXIS2_PLACEMENT_3D ( 'NONE', #531, #271, #13 ) ;
#255 = CARTESIAN_POINT ( 'NONE',  ( -1.866666666666664920, 42.10999999999999943, -0.6128337301952364591 ) ) ;
#256 = DIRECTION ( 'NONE',  ( 0.000000000000000000, 0.000000000000000000, -1.000000000000000000 ) ) ;
#257 = B_SPLINE_CURVE_WITH_KNOTS ( 'NONE', 3,
 ( #195, #155, #190, #363, #72 ),
 .UNSPECIFIED., .F., .F.,
 ( 4, 1, 4 ),
 ( 0.4999999999999993339, 0.5833333333333328152, 0.6666666666666670737 ),
 .UNSPECIFIED. ) ;
#258 = EDGE_CURVE ( 'NONE', #74, #286, #274, .T. ) ;
#259 = DIRECTION ( 'NONE',  ( 0.000000000000000000, 1.000000000000000000, 0.000000000000000000 ) ) ;
#260 = VERTEX_POINT ( 'NONE', #127 ) ;
#261 = FACE_OUTER_BOUND ( 'NONE', #210, .T. ) ;
#262 = ORIENTED_EDGE ( 'NONE', *, *, #537, .F. ) ;
#263 = CARTESIAN_POINT ( 'NONE',  ( 0.000000000000000000, 44.39999999999999858, -4.615049880485964096 ) ) ;
#264 = DIRECTION ( 'NONE',  ( -0.000000000000000000, 1.000000000000000000, 0.000000000000000000 ) ) ;
#265 = ORIENTED_EDGE ( 'NONE', *, *, #65, .F. ) ;
#266 = DIRECTION ( 'NONE',  ( 0.000000000000000000, 1.000000000000000000, 0.000000000000000000 ) ) ;
#267 = ORIENTED_EDGE ( 'NONE', *, *, #344, .F. ) ;
#268 = DIRECTION ( 'NONE',  ( 0.000000000000000000, 0.000000000000000000, 1.000000000000000000 ) ) ;
#269 = AXIS2_PLACEMENT_3D ( 'NONE', #497, #535, #407 ) ;
#270 = ORIENTED_EDGE ( 'NONE', *, *, #216, .T. ) ;
#271 = DIRECTION ( 'NONE',  ( 0.000000000000000000, -1.000000000000000000, -0.000000000000000000 ) ) ;
#272 = DIRECTION ( 'NONE',  ( -0.000000000000000000, -1.000000000000000000, -0.000000000000000000 ) ) ;
#273 = ORIENTED_EDGE ( 'NONE', *, *, #165, .T. ) ;
#274 = B_SPLINE_CURVE_WITH_KNOTS ( 'NONE', 3,
 ( #548, #346, #46, #217, #169 ),
 .UNSPECIFIED., .F., .F.,
 ( 4, 1, 4 ),
 ( 0.4166666666666674068, 0.5000000000000003331, 0.5833333333333334814 ),
 .UNSPECIFIED. ) ;
#275 =( NAMED_UNIT ( * ) PLANE_ANGLE_UNIT ( ) SI_UNIT ( $, .RADIAN. ) );
#276 = FACE_BOUND ( 'NONE', #528, .T. ) ;
#277 = CARTESIAN_POINT ( 'NONE',  ( 0.9333333333332471948, 42.11000000000000654, 1.616580753730809228 ) ) ;
#278 = CARTESIAN_POINT ( 'NONE',  ( -0.2013018773441429266, 44.17099999999999937, -2.800000000000004707 ) ) ;
#279 = FACE_OUTER_BOUND ( 'NONE', #347, .T. ) ;
#280 = AXIS2_PLACEMENT_3D ( 'NONE', #110, #70, #330 ) ;
#281 = CIRCLE ( 'NONE', #249, 2.799999999999999822 ) ;
#282 = CARTESIAN_POINT ( 'NONE',  ( -0.6039056320324429628, 44.17099999999999227, 1.045995237657166843 ) ) ;
#283 = CARTESIAN_POINT ( 'NONE',  ( 0.000000000000000000, 44.17099999999999937, 2.799999999999999822 ) ) ;
#284 = CARTESIAN_POINT ( 'NONE',  ( -0.6039056320324348581, 42.10999999999999943, -1.045995237657155297 ) ) ;
#285 = CARTESIAN_POINT ( 'NONE',  ( 0.9333333333333289072, 42.10999999999999943, -1.616580753730954667 ) ) ;
#286 = VERTEX_POINT ( 'NONE', #89 ) ;
#287 = EDGE_CURVE ( 'NONE', #286, #400, #87, .T. ) ;
#288 = CARTESIAN_POINT ( 'NONE',  ( 0.000000000000000000, 2.081899558550500526E-16, 0.000000000000000000 ) ) ;
#289 = AXIS2_PLACEMENT_3D ( 'NONE', #288, #458, #377 ) ;
#290 = AXIS2_PLACEMENT_3D ( 'NONE', #109, #151, #452 ) ;
#291 = CARTESIAN_POINT ( 'NONE',  ( 0.000000000000000000, 39.70097096621545774, 0.000000000000000000 ) ) ;
#292 = ORIENTED_EDGE ( 'NONE', *, *, #348, .T. ) ;
#293 = DIRECTION ( 'NONE',  ( 0.000000000000000000, 0.000000000000000000, -1.000000000000000000 ) ) ;
#294 = ADVANCED_FACE ( 'NONE', ( #382 ), #398, .F. ) ;
#295 = DIRECTION ( 'NONE',  ( -0.000000000000000000, -1.000000000000000000, -0.000000000000000000 ) ) ;
#296 = AXIS2_PLACEMENT_3D ( 'NONE', #56, #132, #522 ) ;
#297 = DIRECTION ( 'NONE',  ( 0.000000000000000000, 0.000000000000000000, -1.000000000000000000 ) ) ;
#298 = DIRECTION ( 'NONE',  ( -0.000000000000000000, -1.000000000000000000, -0.000000000000000000 ) ) ;
#299 = EDGE_LOOP ( 'NONE', ( #122 ) ) ;
#300 = EDGE_CURVE ( 'NONE', #5, #57, #85, .T. ) ;
#301 = CARTESIAN_POINT ( 'NONE',  ( 3.184377471870333043, 42.10999999999999943, -1.838501190585716927 ) ) ;
#302 = ORIENTED_EDGE ( 'NONE', *, *, #124, .F. ) ;
#303 = AXIS2_PLACEMENT_3D ( 'NONE', #30, #196, #150 ) ;
#304 = FACE_OUTER_BOUND ( 'NONE', #465, .T. ) ;
#305 = ADVANCED_FACE ( 'NONE', ( #160, #336 ), #504, .T. ) ;
#306 = EDGE_LOOP ( 'NONE', ( #518, #251 ) ) ;
#307 = CARTESIAN_POINT ( 'NONE',  ( 0.000000000000000000, 44.39999999999999858, 2.799999999999999822 ) ) ;
#308 = CARTESIAN_POINT ( 'NONE',  ( -0.6039056320324381888, 44.17099999999999937, 1.045995237657176613 ) ) ;
#309 = ADVANCED_FACE ( 'NONE', ( #39 ), #234, .T. ) ;
#310 = FACE_OUTER_BOUND ( 'NONE', #313, .T. ) ;
#311 = FILL_AREA_STYLE_COLOUR ( '', #33 ) ;
#312 = CARTESIAN_POINT ( 'NONE',  ( -0.2013018773441428433, 44.17099999999999227, -2.800000000000005151 ) ) ;
#313 = EDGE_LOOP ( 'NONE', ( #430, #389 ) ) ;
#314 = CARTESIAN_POINT ( 'NONE',  ( -2.424871130596428337, 44.17099999999999937, -1.399999999999999467 ) ) ;
#315 = CARTESIAN_POINT ( 'NONE',  ( 0.2013018773441398457, 44.17099999999999937, -2.799999999999995826 ) ) ;
#316 = AXIS2_PLACEMENT_3D ( 'NONE', #121, #167, #82 ) ;
#317 = PRESENTATION_LAYER_ASSIGNMENT (  '', '', ( #432 ) ) ;
#318 = PLANE ( 'NONE',  #477 ) ;
#319 = PRODUCT_CONTEXT ( 'NONE', #383, 'mechanical' ) ;
#320 = FACE_BOUND ( 'NONE', #299, .T. ) ;
#321 = CARTESIAN_POINT ( 'NONE',  ( 0.000000000000000000, 42.11000000000000654, 0.000000000000000000 ) ) ;
#322 = CARTESIAN_POINT ( 'NONE',  ( -3.184377471870324161, 42.10999999999999943, 1.838501190585705825 ) ) ;
#323 = CARTESIAN_POINT ( 'NONE',  ( -1.471500323675310343E-15, 44.17099999999998516, -2.800000000000000266 ) ) ;
#324 = DIRECTION ( 'NONE',  ( 0.000000000000000000, -0.000000000000000000, 1.000000000000000000 ) ) ;
#325 = CARTESIAN_POINT ( 'NONE',  ( -0.4026037546882883511, 42.10999999999999233, -1.922997618828582000 ) ) ;
#326 = EDGE_CURVE ( 'NONE', #489, #94, #519, .T. ) ;
#327 = CIRCLE ( 'NONE', #247, 5.000000000000000000 ) ;
#328 = CIRCLE ( 'NONE', #269, 1.866666666666499941 ) ;
#329 = FACE_OUTER_BOUND ( 'NONE', #543, .T. ) ;
#330 = DIRECTION ( 'NONE',  ( 0.000000000000000000, 0.000000000000000000, 1.000000000000000000 ) ) ;
#331 = ADVANCED_FACE ( 'NONE', ( #7, #447 ), #225, .F. ) ;
#332 = ORIENTED_EDGE ( 'NONE', *, *, #124, .T. ) ;
#333 = CARTESIAN_POINT ( 'NONE',  ( 0.000000000000000000, 44.17099999999999937, 0.000000000000000000 ) ) ;
#334 = UNCERTAINTY_MEASURE_WITH_UNIT (LENGTH_MEASURE( 1.000000000000000082E-05 ), #236, 'distance_accuracy_value', 'NONE');
#335 = EDGE_LOOP ( 'NONE', ( #486, #141 ) ) ;
#336 = FACE_OUTER_BOUND ( 'NONE', #448, .T. ) ;
#337 = AXIS2_PLACEMENT_3D ( 'NONE', #83, #129, #215 ) ;
#338 = EDGE_LOOP ( 'NONE', ( #159, #359 ) ) ;
#339 = CARTESIAN_POINT ( 'NONE',  ( -1.866666666666667584, 42.10999999999999943, 0.6128337301952384575 ) ) ;
#340 = ADVANCED_FACE ( 'NONE', ( #261, #95 ), #387, .F. ) ;
#341 = DIRECTION ( 'NONE',  ( -0.000000000000000000, 1.000000000000000000, 0.000000000000000000 ) ) ;
#342 = ADVANCED_BREP_SHAPE_REPRESENTATION ( 'ISO 14580 - #6 x 40 x 38 - 4.8-N_ISO 14580 - #6 x 40 x 38 - 4.8-N', ( #553, #3 ), #166 ) ;
#343 = FACE_OUTER_BOUND ( 'NONE', #226, .T. ) ;
#344 = EDGE_CURVE ( 'NONE', #60, #60, #145, .T. ) ;
#345 = AXIS2_PLACEMENT_3D ( 'NONE', #321, #491, #256 ) ;
#346 = CARTESIAN_POINT ( 'NONE',  ( 0.4026037546882835771, 42.10999999999999943, 1.922997618828580668 ) ) ;
#347 = EDGE_LOOP ( 'NONE', ( #59, #270 ) ) ;
#348 = EDGE_CURVE ( 'NONE', #9, #9, #540, .T. ) ;
#349 = CARTESIAN_POINT ( 'NONE',  ( -2.710505431213761085E-17, 44.17099999999999937, -2.800000000000000266 ) ) ;
#350 = ORIENTED_EDGE ( 'NONE', *, *, #40, .T. ) ;
#351 = CARTESIAN_POINT ( 'NONE',  ( 0.000000000000000000, 39.70097096621545774, -2.659805806756907920 ) ) ;
#352 = CARTESIAN_POINT ( 'NONE',  ( 1.207811264064835299, 44.17099999999999937, -2.754589237198687081E-16 ) ) ;
#353 = ORIENTED_EDGE ( 'NONE', *, *, #344, .T. ) ;
#354 = CARTESIAN_POINT ( 'NONE',  ( 0.000000000000000000, 40.00000000000000000, -2.904950975679638336 ) ) ;
#355 = AXIS2_PLACEMENT_3D ( 'NONE', #4, #266, #402 ) ;
#356 = CARTESIAN_POINT ( 'NONE',  ( -0.6039056320324381888, 42.10999999999999943, 1.045995237657176613 ) ) ;
#357 = CARTESIAN_POINT ( 'NONE',  ( 3.184377471870330822, 42.11000000000000654, -1.838501190585714706 ) ) ;
#358 = DIRECTION ( 'NONE',  ( 0.000000000000000000, -0.000000000000000000, 1.000000000000000000 ) ) ;
#359 = ORIENTED_EDGE ( 'NONE', *, *, #523, .F. ) ;
#360 = CARTESIAN_POINT ( 'NONE',  ( 0.000000000000000000, 40.00000000000000000, 0.000000000000000000 ) ) ;
#361 = ORIENTED_EDGE ( 'NONE', *, *, #45, .F. ) ;
#362 = CARTESIAN_POINT ( 'NONE',  ( 0.000000000000000000, 42.11000000000000654, 0.000000000000000000 ) ) ;
#363 = CARTESIAN_POINT ( 'NONE',  ( 2.324220191924379453, 44.17099999999999227, 1.574332539609532899 ) ) ;
#364 = AXIS2_PLACEMENT_3D ( 'NONE', #153, #409, #113 ) ;
#365 = ORIENTED_EDGE ( 'NONE', *, *, #67, .F. ) ;
#366 = ADVANCED_FACE ( 'NONE', ( #488, #228 ), #521, .T. ) ;
#367 = ADVANCED_FACE ( 'NONE', ( #433 ), #15, .T. ) ;
#368 = CARTESIAN_POINT ( 'NONE',  ( 3.214051190472014544E-15, 42.10999999999999943, 2.799999999999999378 ) ) ;
#369 = FACE_OUTER_BOUND ( 'NONE', #191, .T. ) ;
#370 = CARTESIAN_POINT ( 'NONE',  ( -1.207811264064833967, 44.17099999999999937, -1.132594953169099864E-16 ) ) ;
#371 = FACE_BOUND ( 'NONE', #403, .T. ) ;
#372 = DIRECTION ( 'NONE',  ( 0.000000000000000000, 0.000000000000000000, 1.000000000000000000 ) ) ;
#373 = CARTESIAN_POINT ( 'NONE',  ( 3.214051190472014544E-15, 42.10999999999999943, 2.799999999999999378 ) ) ;
#374 = EDGE_LOOP ( 'NONE', ( #232, #38 ) ) ;
#375 = PLANE ( 'NONE',  #397 ) ;
#376 = ORIENTED_EDGE ( 'NONE', *, *, #348, .F. ) ;
#377 = DIRECTION ( 'NONE',  ( 0.000000000000000000, 0.000000000000000000, -1.000000000000000000 ) ) ;
#378 = EDGE_CURVE ( 'NONE', #400, #530, #510, .T. ) ;
#379 = CARTESIAN_POINT ( 'NONE',  ( 3.214051190472014544E-15, 42.10999999999999943, 2.799999999999999378 ) ) ;
#380 = AXIS2_PLACEMENT_3D ( 'NONE', #462, #123, #426 ) ;
#381 = ORIENTED_EDGE ( 'NONE', *, *, #211, .F. ) ;
#382 = FACE_OUTER_BOUND ( 'NONE', #445, .T. ) ;
#383 = APPLICATION_CONTEXT ( 'automotive_design' ) ;
#384 = B_SPLINE_CURVE_WITH_KNOTS ( 'NONE', 3,
 ( #76, #325, #35, #66, #250 ),
 .UNSPECIFIED., .F., .F.,
 ( 4, 1, 4 ),
 ( 0.9166666666666664076, 1.000000000000000444, 1.083333333333333259 ),
 .UNSPECIFIED. ) ;
#385 = FACE_OUTER_BOUND ( 'NONE', #8, .T. ) ;
#386 = CARTESIAN_POINT ( 'NONE',  ( 0.000000000000000000, 42.11000000000000654, 0.000000000000000000 ) ) ;
#387 = TOROIDAL_SURFACE ( 'NONE', #469, 2.904950975679638336, 0.2500000000000000000 ) ;
#388 = DIRECTION ( 'NONE',  ( 0.000000000000000000, 0.000000000000000000, 1.000000000000000000 ) ) ;
#389 = ORIENTED_EDGE ( 'NONE', *, *, #499, .F. ) ;
#390 = CARTESIAN_POINT ( 'NONE',  ( 0.000000000000000000, 42.11000000000000654, 0.000000000000000000 ) ) ;
#391 = ORIENTED_EDGE ( 'NONE', *, *, #516, .F. ) ;
#392 = B_SPLINE_CURVE_WITH_KNOTS ( 'NONE', 3,
 ( #541, #450, #29, #21, #538 ),
 .UNSPECIFIED., .F., .F.,
 ( 4, 1, 4 ),
 ( 0.2500000000000004996, 0.3333333333333338144, 0.4166666666666674068 ),
 .UNSPECIFIED. ) ;
#393 = DIRECTION ( 'NONE',  ( 0.000000000000000000, 0.000000000000000000, 1.000000000000000000 ) ) ;
#394 = CARTESIAN_POINT ( 'NONE',  ( -2.424871130596428337, 44.17099999999999937, -1.399999999999999467 ) ) ;
#395 = ORIENTED_EDGE ( 'NONE', *, *, #470, .F. ) ;
#396 = VERTEX_POINT ( 'NONE', #354 ) ;
#397 = AXIS2_PLACEMENT_3D ( 'NONE', #451, #496, #158 ) ;
#398 = CONICAL_SURFACE ( 'NONE', #459, 1117.764471057781293, 0.8409488688831929792 ) ;
#399 = CARTESIAN_POINT ( 'NONE',  ( -1.471500323675310343E-15, 44.17099999999998516, -2.800000000000000266 ) ) ;
#400 = VERTEX_POINT ( 'NONE', #529 ) ;
#401 =( LENGTH_UNIT ( ) NAMED_UNIT ( * ) SI_UNIT ( .MILLI., .METRE. ) );
#402 = DIRECTION ( 'NONE',  ( 0.000000000000000000, 0.000000000000000000, 1.000000000000000000 ) ) ;
#403 = EDGE_LOOP ( 'NONE', ( #376 ) ) ;
#404 = DIRECTION ( 'NONE',  ( 0.000000000000000000, 1.000000000000000000, 0.000000000000000000 ) ) ;
#405 = DIRECTION ( 'NONE',  ( 0.000000000000000000, 1.000000000000000000, 0.000000000000000000 ) ) ;
#406 = CARTESIAN_POINT ( 'NONE',  ( -2.525522069268481662, 44.17099999999999937, -1.225667460390458929 ) ) ;
#407 = DIRECTION ( 'NONE',  ( 0.000000000000000000, 0.000000000000000000, -1.000000000000000000 ) ) ;
#408 = AXIS2_PLACEMENT_3D ( 'NONE', #482, #231, #358 ) ;
#409 = DIRECTION ( 'NONE',  ( 0.000000000000000000, -1.000000000000000000, -0.000000000000000000 ) ) ;
#410 = CARTESIAN_POINT ( 'NONE',  ( -2.710505431213761085E-17, 44.17099999999999937, -2.800000000000000266 ) ) ;
#411 = CARTESIAN_POINT ( 'NONE',  ( 3.214051190472014544E-15, 42.10999999999999943, 2.799999999999999378 ) ) ;
#412 = EDGE_CURVE ( 'NONE', #489, #94, #441, .T. ) ;
#413 = DIRECTION ( 'NONE',  ( 0.000000000000000000, 0.000000000000000000, -1.000000000000000000 ) ) ;
#414 = FACE_OUTER_BOUND ( 'NONE', #120, .T. ) ;
#415 = ORIENTED_EDGE ( 'NONE', *, *, #378, .T. ) ;
#416 = FACE_OUTER_BOUND ( 'NONE', #338, .T. ) ;
#417 = CARTESIAN_POINT ( 'NONE',  ( 2.424871130596427893, 44.17099999999999937, -1.399999999999999911 ) ) ;
#418 = AXIS2_PLACEMENT_3D ( 'NONE', #373, #498, #156 ) ;
#419 = ORIENTED_EDGE ( 'NONE', *, *, #326, .F. ) ;
#420 = PLANE ( 'NONE',  #364 ) ;
#421 = ADVANCED_FACE ( 'NONE', ( #304, #143 ), #463, .T. ) ;
#422 = PLANE ( 'NONE',  #380 ) ;
#423 = ADVANCED_FACE ( 'NONE', ( #416 ), #533, .T. ) ;
#424 = CARTESIAN_POINT ( 'NONE',  ( -1.866666666666499941, 42.11000000000000654, 2.280131473890833924E-15 ) ) ;
#425 = AXIS2_PLACEMENT_3D ( 'NONE', #360, #444, #93 ) ;
#426 = DIRECTION ( 'NONE',  ( 0.000000000000000000, -0.000000000000000000, 1.000000000000000000 ) ) ;
#427 = ADVANCED_FACE ( 'NONE', ( #27 ), #64, .T. ) ;
#428 = CARTESIAN_POINT ( 'NONE',  ( -1.464062911978398551, 42.10999999999999943, 1.310163888633352425 ) ) ;
#429 = CARTESIAN_POINT ( 'NONE',  ( -1.464062911978394776, 42.10999999999999943, -1.310163888633337992 ) ) ;
#430 = ORIENTED_EDGE ( 'NONE', *, *, #45, .T. ) ;
#431 = AXIS2_PLACEMENT_3D ( 'NONE', #333, #544, #246 ) ;
#432 = STYLED_ITEM ( 'NONE', ( #52 ), #553 ) ;
#433 = FACE_OUTER_BOUND ( 'NONE', #81, .T. ) ;
#434 = DIRECTION ( 'NONE',  ( -0.000000000000000000, -1.000000000000000000, -0.000000000000000000 ) ) ;
#435 = FILL_AREA_STYLE ('',( #311 ) ) ;
#436 = CARTESIAN_POINT ( 'NONE',  ( 0.6039056320324242000, 44.17099999999999937, 1.045995237657161736 ) ) ;
#437 = CARTESIAN_POINT ( 'NONE',  ( -2.424871130596427005, 44.17099999999999937, 1.400000000000001243 ) ) ;
#438 = ADVANCED_FACE ( 'NONE', ( #276, #329 ), #532, .T. ) ;
#439 = DIRECTION ( 'NONE',  ( -0.000000000000000000, -1.000000000000000000, -0.000000000000000000 ) ) ;
#440 = ORIENTED_EDGE ( 'NONE', *, *, #131, .T. ) ;
#441 = B_SPLINE_CURVE_WITH_KNOTS ( 'NONE', 3,
 ( #399, #312, #485, #61, #394 ),
 .UNSPECIFIED., .F., .F.,
 ( 4, 1, 4 ),
 ( 0.000000000000000000, 0.08333333333333474424, 0.1666666666666676011 ),
 .UNSPECIFIED. ) ;
#442 = CIRCLE ( 'NONE', #280, 2.799999999999999822 ) ;
#443 = AXIS2_PLACEMENT_3D ( 'NONE', #390, #272, #175 ) ;
#444 = DIRECTION ( 'NONE',  ( -0.000000000000000000, -1.000000000000000000, -0.000000000000000000 ) ) ;
#445 = EDGE_LOOP ( 'NONE', ( #118, #547, #224, #77, #103, #391 ) ) ;
#446 = CARTESIAN_POINT ( 'NONE',  ( -0.9333333333332552995, 42.11000000000000654, -1.616580753730805009 ) ) ;
#447 = FACE_OUTER_BOUND ( 'NONE', #16, .T. ) ;
#448 = EDGE_LOOP ( 'NONE', ( #545 ) ) ;
#449 =( NAMED_UNIT ( * ) SI_UNIT ( $, .STERADIAN. ) SOLID_ANGLE_UNIT ( ) );
#450 = CARTESIAN_POINT ( 'NONE',  ( 1.866666666666666696, 42.11000000000000654, 0.6128337301952364591 ) ) ;
#451 = CARTESIAN_POINT ( 'NONE',  ( 0.000000000000000000, 44.17099999999999937, 0.000000000000000000 ) ) ;
#452 = DIRECTION ( 'NONE',  ( 0.000000000000000000, -0.000000000000000000, 1.000000000000000000 ) ) ;
#453 = PLANE ( 'NONE',  #78 ) ;
#454 = CARTESIAN_POINT ( 'NONE',  ( -0.2013018773441453690, 44.17099999999999227, 2.799999999999994493 ) ) ;
#455 = PLANE ( 'NONE',  #431 ) ;
#456 = CARTESIAN_POINT ( 'NONE',  ( -2.710505431213761085E-17, 42.10999999999999943, -2.800000000000000266 ) ) ;
#457 = CARTESIAN_POINT ( 'NONE',  ( 0.2013018773441407616, 44.17099999999999227, -2.799999999999991385 ) ) ;
#458 = DIRECTION ( 'NONE',  ( -0.000000000000000000, -1.000000000000000000, -0.000000000000000000 ) ) ;
#459 = AXIS2_PLACEMENT_3D ( 'NONE', #472, #259, #551 ) ;
#460 = UNCERTAINTY_MEASURE_WITH_UNIT (LENGTH_MEASURE( 1.000000000000000082E-05 ), #401, 'distance_accuracy_value', 'NONE');
#461 = ORIENTED_EDGE ( 'NONE', *, *, #6, .F. ) ;
#462 = CARTESIAN_POINT ( 'NONE',  ( 0.000000000000000000, 44.17099999999999937, 0.000000000000000000 ) ) ;
#463 = B_SPLINE_SURFACE_WITH_KNOTS ( 'NONE', 3, 1, ( 
 ( #173, #349 ),
 ( #99, #315 ),
 ( #102, #513 ),
 ( #301, #475 ),
 ( #50, #352 ),
 ( #517, #137 ),
 ( #480, #436 ),
 ( #10, #178 ),
 ( #356, #308 ),
 ( #322, #116 ),
 ( #492, #370 ),
 ( #200, #112 ),
 ( #284, #106 ),
 ( #242, #278 ),
 ( #456, #410 ) ),
 .UNSPECIFIED., .T., .F., .F.,
 ( 4, 1, 1, 1, 1, 1, 1, 1, 1, 1, 1, 1, 4 ),
 ( 2, 2 ),
 ( 0.000000000000000000, 0.08333333333333285686, 0.1666666666666669627, 0.2500000000000004996, 0.3333333333333339255, 0.4166666666666675733, 0.5000000000000004441, 0.5833333333333334814, 0.6666666666666665186, 0.7500000000000000000, 0.8333333333333335924, 0.9166666666666658525, 1.000000000000000000 ),
 ( 0.000000000000000000, 1.000000000000000000 ),
 .UNSPECIFIED. ) ;
#464 = B_SPLINE_CURVE_WITH_KNOTS ( 'NONE', 3,
 ( #501, #199, #73, #36, #546 ),
 .UNSPECIFIED., .F., .F.,
 ( 4, 1, 4 ),
 ( 0.6666666666666670737, 0.7499999999999995559, 0.8333333333333319271 ),
 .UNSPECIFIED. ) ;
#465 = EDGE_LOOP ( 'NONE', ( #180, #512, #176, #273, #188, #11 ) ) ;
#466 = DIRECTION ( 'NONE',  ( 0.000000000000000000, -0.000000000000000000, 1.000000000000000000 ) ) ;
#467 = EDGE_CURVE ( 'NONE', #209, #500, #281, .T. ) ;
#468 = CARTESIAN_POINT ( 'NONE',  ( 3.214051190472014544E-15, 42.10999999999999943, 2.799999999999999378 ) ) ;
#469 = AXIS2_PLACEMENT_3D ( 'NONE', #53, #439, #135 ) ;
#470 = EDGE_CURVE ( 'NONE', #260, #74, #392, .T. ) ;
#471 = AXIS2_PLACEMENT_3D ( 'NONE', #368, #75, #324 ) ;
#472 = CARTESIAN_POINT ( 'NONE',  ( 0.000000000000000000, 1040.440000000000055, 0.000000000000000000 ) ) ;
#473 = DIRECTION ( 'NONE',  ( -0.000000000000000000, -1.000000000000000000, -0.000000000000000000 ) ) ;
#474 = ORIENTED_EDGE ( 'NONE', *, *, #67, .T. ) ;
#475 = CARTESIAN_POINT ( 'NONE',  ( 3.184377471870333043, 44.17099999999999937, -1.838501190585716927 ) ) ;
#476 = CARTESIAN_POINT ( 'NONE',  ( 0.9333333333333289072, 42.10999999999999943, -1.616580753730954667 ) ) ;
#477 = AXIS2_PLACEMENT_3D ( 'NONE', #62, #405, #22 ) ;
#478 = DIRECTION ( 'NONE',  ( 1.000000000000000000, 0.000000000000000000, 0.000000000000000000 ) ) ;
#479 = PRODUCT_DEFINITION_FORMATION_WITH_SPECIFIED_SOURCE ( 'Symmetric', '', #115, .NOT_KNOWN. ) ;
#480 = CARTESIAN_POINT ( 'NONE',  ( 0.6039056320324242000, 42.10999999999999943, 1.045995237657161736 ) ) ;
#481 = ORIENTED_EDGE ( 'NONE', *, *, #554, .T. ) ;
#482 = CARTESIAN_POINT ( 'NONE',  ( 0.000000000000000000, 44.17099999999999937, 0.000000000000000000 ) ) ;
#483 = ORIENTED_EDGE ( 'NONE', *, *, #230, .T. ) ;
#484 = VERTEX_POINT ( 'NONE', #20 ) ;
#485 = CARTESIAN_POINT ( 'NONE',  ( -0.6039056320324377447, 44.17099999999999227, -1.045995237657142640 ) ) ;
#486 = ORIENTED_EDGE ( 'NONE', *, *, #65, .T. ) ;
#487 = AXIS2_PLACEMENT_3D ( 'NONE', #207, #542, #241 ) ;
#488 = FACE_BOUND ( 'NONE', #203, .T. ) ;
#489 = VERTEX_POINT ( 'NONE', #237 ) ;
#490 = FACE_OUTER_BOUND ( 'NONE', #31, .T. ) ;
#491 = DIRECTION ( 'NONE',  ( -0.000000000000000000, -1.000000000000000000, -0.000000000000000000 ) ) ;
#492 = CARTESIAN_POINT ( 'NONE',  ( -1.207811264064833967, 42.10999999999999943, -1.132594953169099864E-16 ) ) ;
#493 = CARTESIAN_POINT ( 'NONE',  ( 0.000000000000000000, 44.17099999999999937, 0.000000000000000000 ) ) ;
#494 = B_SPLINE_CURVE_WITH_KNOTS ( 'NONE', 3,
 ( #69, #240, #282, #454, #149 ),
 .UNSPECIFIED., .F., .F.,
 ( 4, 1, 4 ),
 ( 0.3333333333333324822, 0.4166666666666659080, 0.4999999999999993339 ),
 .UNSPECIFIED. ) ;
#495 = CARTESIAN_POINT ( 'NONE',  ( 0.000000000000000000, 44.17099999999999937, 0.000000000000000000 ) ) ;
#496 = DIRECTION ( 'NONE',  ( 0.000000000000000000, 1.000000000000000000, 0.000000000000000000 ) ) ;
#497 = CARTESIAN_POINT ( 'NONE',  ( 0.000000000000000000, 42.11000000000000654, 0.000000000000000000 ) ) ;
#498 = DIRECTION ( 'NONE',  ( -0.000000000000000000, 1.000000000000000000, 0.000000000000000000 ) ) ;
#499 = EDGE_CURVE ( 'NONE', #57, #209, #257, .T. ) ;
#500 = VERTEX_POINT ( 'NONE', #147 ) ;
#501 = CARTESIAN_POINT ( 'NONE',  ( 2.424871130596427449, 44.17099999999999937, 1.400000000000000355 ) ) ;
#502 = SHAPE_DEFINITION_REPRESENTATION ( #552, #342 ) ;
#503 = ORIENTED_EDGE ( 'NONE', *, *, #412, .F. ) ;
#504 = CYLINDRICAL_SURFACE ( 'NONE', #316, 3.000000000000000000 ) ;
#505 = CIRCLE ( 'NONE', #337, 2.904950975679638336 ) ;
#506 = ORIENTED_EDGE ( 'NONE', *, *, #55, .T. ) ;
#507 = CARTESIAN_POINT ( 'NONE',  ( -3.184377471870328158, 42.10999999999999943, -1.838501190585710043 ) ) ;
#508 = CARTESIAN_POINT ( 'NONE',  ( 2.424871130596427449, 44.17099999999999937, 1.400000000000000355 ) ) ;
#509 = CARTESIAN_POINT ( 'NONE',  ( -3.184377471870322829, 42.10999999999999943, 1.838501190585705380 ) ) ;
#510 = CIRCLE ( 'NONE', #443, 1.866666666666499941 ) ;
#511 = CARTESIAN_POINT ( 'NONE',  ( 0.000000000000000000, 42.11000000000000654, 0.000000000000000000 ) ) ;
#512 = ORIENTED_EDGE ( 'NONE', *, *, #470, .T. ) ;
#513 = CARTESIAN_POINT ( 'NONE',  ( 0.6039056320324118765, 44.17099999999999937, -1.045995237657146193 ) ) ;
#514 = EDGE_LOOP ( 'NONE', ( #162 ) ) ;
#515 = VERTEX_POINT ( 'NONE', #134 ) ;
#516 = EDGE_CURVE ( 'NONE', #260, #74, #328, .T. ) ;
#517 = CARTESIAN_POINT ( 'NONE',  ( 3.184377471870329046, 42.10999999999999943, 1.838501190585710043 ) ) ;
#518 = ORIENTED_EDGE ( 'NONE', *, *, #84, .F. ) ;
#519 = CIRCLE ( 'NONE', #44, 2.799999999999999822 ) ;
#520 = CARTESIAN_POINT ( 'NONE',  ( -1.207811264064851509, 44.17099999999999227, 1.315542951495412198E-15 ) ) ;
#521 = CONICAL_SURFACE ( 'NONE', #425, 5.000000000000000000, 0.08726646259970978481 ) ;
#522 = DIRECTION ( 'NONE',  ( 0.000000000000000000, 0.000000000000000000, 1.000000000000000000 ) ) ;
#523 = EDGE_CURVE ( 'NONE', #5, #57, #494, .T. ) ;
#524 = CARTESIAN_POINT ( 'NONE',  ( 1.866666666666665364, 42.11000000000000654, -0.6128337301952364591 ) ) ;
#525 = CARTESIAN_POINT ( 'NONE',  ( -2.525522069268483882, 44.17099999999999227, 1.225667460390460928 ) ) ;
#526 = DIRECTION ( 'NONE',  ( 0.000000000000000000, 0.000000000000000000, -1.000000000000000000 ) ) ;
#527 = ADVANCED_FACE ( 'NONE', ( #320, #490 ), #25, .T. ) ;
#528 = EDGE_LOOP ( 'NONE', ( #157 ) ) ;
#529 = CARTESIAN_POINT ( 'NONE',  ( -1.866666666666499941, 42.11000000000000654, 2.280131473890833924E-15 ) ) ;
#530 = VERTEX_POINT ( 'NONE', #446 ) ;
#531 = CARTESIAN_POINT ( 'NONE',  ( 2.600000000000000089, 40.00000000000000000, 0.000000000000000000 ) ) ;
#532 = CONICAL_SURFACE ( 'NONE', #92, 3.000000000000000000, 0.1973955598498806085 ) ;
#533 = PLANE ( 'NONE',  #290 ) ;
#534 = EDGE_LOOP ( 'NONE', ( #474, #262 ) ) ;
#535 = DIRECTION ( 'NONE',  ( -0.000000000000000000, -1.000000000000000000, -0.000000000000000000 ) ) ;
#536 = DIRECTION ( 'NONE',  ( -0.000000000000000000, 1.000000000000000000, 0.000000000000000000 ) ) ;
#537 = EDGE_CURVE ( 'NONE', #94, #5, #42, .T. ) ;
#538 = CARTESIAN_POINT ( 'NONE',  ( 0.9333333333332471948, 42.11000000000000654, 1.616580753730809228 ) ) ;
#539 = FACE_OUTER_BOUND ( 'NONE', #335, .T. ) ;
#540 = CIRCLE ( 'NONE', #355, 2.799999999999999822 ) ;
#541 = CARTESIAN_POINT ( 'NONE',  ( 1.866666666666499941, 42.11000000000000654, 5.421010862427038993E-17 ) ) ;
#542 = DIRECTION ( 'NONE',  ( 0.000000000000000000, 1.000000000000000000, 0.000000000000000000 ) ) ;
#543 = EDGE_LOOP ( 'NONE', ( #100 ) ) ;
#544 = DIRECTION ( 'NONE',  ( 0.000000000000000000, 1.000000000000000000, 0.000000000000000000 ) ) ;
#545 = ORIENTED_EDGE ( 'NONE', *, *, #131, .F. ) ;
#546 = CARTESIAN_POINT ( 'NONE',  ( 2.424871130596427893, 44.17099999999999937, -1.399999999999999911 ) ) ;
#547 = ORIENTED_EDGE ( 'NONE', *, *, #152, .F. ) ;
#548 = CARTESIAN_POINT ( 'NONE',  ( 0.9333333333332471948, 42.11000000000000654, 1.616580753730809228 ) ) ;
#549 = CIRCLE ( 'NONE', #345, 1.866666666666499941 ) ;
#550 = ORIENTED_EDGE ( 'NONE', *, *, #467, .T. ) ;
#551 = DIRECTION ( 'NONE',  ( 0.000000000000000000, 0.000000000000000000, 1.000000000000000000 ) ) ;
#552 = PRODUCT_DEFINITION_SHAPE ( 'NONE', 'NONE',  #128 ) ;
#553 = MANIFOLD_SOLID_BREP ( 'Drill-Cut-Revolve', #164 ) ;
#554 = EDGE_CURVE ( 'NONE', #96, #260, #214, .T. ) ;
#555 = DIRECTION ( 'NONE',  ( -0.000000000000000000, -1.000000000000000000, -0.000000000000000000 ) ) ;
ENDSEC;
END-ISO-10303-21;
