ISO-10303-21;
HEADER;
FILE_DESCRIPTION (( 'STEP AP214' ),
    '1' );
FILE_NAME ('ISO 4162 - M10 x 20 x 20-N.STEP',
    '2025-08-04T11:00:08',
    ( '' ),
    ( '' ),
    'SwSTEP 2.0',
    'SolidWorks 2025',
    '' );
FILE_SCHEMA (( 'AUTOMOTIVE_DESIGN' ));
ENDSEC;

DATA;
#1 = ORIENTED_EDGE ( 'NONE', *, *, #264, .F. ) ;
#2 = CARTESIAN_POINT ( 'NONE',  ( 0.000000000000000000, 0.000000000000000000, 0.000000000000000000 ) ) ;
#3 = FACE_OUTER_BOUND ( 'NONE', #257, .T. ) ;
#4 =( LENGTH_UNIT ( ) NAMED_UNIT ( * ) SI_UNIT ( .MILLI., .METRE. ) );
#5 = ORIENTED_EDGE ( 'NONE', *, *, #522, .F. ) ;
#6 = CARTESIAN_POINT ( 'NONE',  ( 0.05458999538792663753, -1.264741368075135597, 6.499999999999999112 ) ) ;
#7 = CARTESIAN_POINT ( 'NONE',  ( 6.731338960781602765, 5.629165124598851655, 3.250000000000001332 ) ) ;
#8 = EDGE_LOOP ( 'NONE', ( #509, #781, #460 ) ) ;
#9 = CARTESIAN_POINT ( 'NONE',  ( 7.430510270226313274, 3.834044789237921247, 6.640760373454795307 ) ) ;
#10 = CARTESIAN_POINT ( 'NONE',  ( 7.206712378148132814, 7.058550514999874181, -1.046391884220037261 ) ) ;
#11 = VERTEX_POINT ( 'NONE', #225 ) ;
#12 = CARTESIAN_POINT ( 'NONE',  ( 7.007440284498108518, 4.953608119516368369, 4.420099056213158129 ) ) ;
#13 = CARTESIAN_POINT ( 'NONE',  ( 7.018814527559926297, 2.649485831428818994, -6.499999999999999112 ) ) ;
#14 = CARTESIAN_POINT ( 'NONE',  ( 29.69999999999999574, 0.000000000000000000, 0.000000000000000000 ) ) ;
#15 = EDGE_CURVE ( 'NONE', #240, #84, #582, .T. ) ;
#16 = ORIENTED_EDGE ( 'NONE', *, *, #458, .T. ) ;
#17 = CARTESIAN_POINT ( 'NONE',  ( 9.699999999999999289, 0.000000000000000000, -5.000000000000000888 ) ) ;
#18 = CARTESIAN_POINT ( 'NONE',  ( 7.206712378148013798, -7.058550514999545555, 1.046391884219829649 ) ) ;
#19 = CARTESIAN_POINT ( 'NONE',  ( 7.269153674877134819, -3.752776749732574135, -6.500000000000000000 ) ) ;
#20 = CARTESIAN_POINT ( 'NONE',  ( 7.438728979646336725, 3.811859538749430509, 6.679531156778794276 ) ) ;
#21 = EDGE_CURVE ( 'NONE', #365, #521, #182, .T. ) ;
#22 = CARTESIAN_POINT ( 'NONE',  ( 9.699999999999999289, -3.752776749732574135, -6.500000000000000000 ) ) ;
#23 = ORIENTED_EDGE ( 'NONE', *, *, #692, .F. ) ;
#24 =( NAMED_UNIT ( * ) SI_UNIT ( $, .STERADIAN. ) SOLID_ANGLE_UNIT ( ) );
#25 = DIRECTION ( 'NONE',  ( 0.000000000000000000, 0.000000000000000000, 1.000000000000000000 ) ) ;
#26 = EDGE_CURVE ( 'NONE', #81, #81, #629, .T. ) ;
#27 = CARTESIAN_POINT ( 'NONE',  ( 7.054022740708436601, 1.291410434130526808, -6.631617438107562101 ) ) ;
#28 = ORIENTED_EDGE ( 'NONE', *, *, #581, .T. ) ;
#29 = TOROIDAL_SURFACE ( 'NONE', #432, 9.650000000000002132, 0.7499999999999974465 ) ;
#30 = B_SPLINE_CURVE_WITH_KNOTS ( 'NONE', 3,
 ( #609, #88, #670, #807, #19, #265 ),
 .UNSPECIFIED., .F., .F.,
 ( 4, 2, 4 ),
 ( -2.985078214016835599E-06, 0.0001373665985435196918, 0.0002777182753010561892 ),
 .UNSPECIFIED. ) ;
#31 = CARTESIAN_POINT ( 'NONE',  ( 7.269155673949606822, -3.752776749732551487, 6.500000000000005329 ) ) ;
#32 = CARTESIAN_POINT ( 'NONE',  ( 7.314465908138448214, 3.762193837935738916, 6.516310875227260269 ) ) ;
#33 = CARTESIAN_POINT ( 'NONE',  ( 0.000000000000000000, -5.629165124598843661, 3.250000000000012879 ) ) ;
#34 = CARTESIAN_POINT ( 'NONE',  ( 6.867382134443785091, -1.361426594587758165, 6.500000000000000000 ) ) ;
#35 = CARTESIAN_POINT ( 'NONE',  ( 7.012937862231176211, -6.938047165644606551, -0.9829498037943100730 ) ) ;
#36 = ORIENTED_EDGE ( 'NONE', *, *, #576, .T. ) ;
#37 = CARTESIAN_POINT ( 'NONE',  ( 7.018836566768792196, -2.649604834249219110, 6.500000000000000000 ) ) ;
#38 = LINE ( 'NONE', #284, #776 ) ;
#39 = EDGE_CURVE ( 'NONE', #309, #203, #334, .T. ) ;
#40 = ORIENTED_EDGE ( 'NONE', *, *, #348, .F. ) ;
#41 = CARTESIAN_POINT ( 'NONE',  ( 7.250790182324913680, -3.913211308504760400, 6.500000000000000000 ) ) ;
#42 = CARTESIAN_POINT ( 'NONE',  ( 6.999298889343626762, 2.501851166488370914, -6.500000000000000000 ) ) ;
#43 = B_SPLINE_CURVE_WITH_KNOTS ( 'NONE', 3,
 ( #787, #565, #642, #647, #724, #708, #431, #626 ),
 .UNSPECIFIED., .F., .F.,
 ( 4, 2, 2, 4 ),
 ( 0.000000000000000000, 0.001939758518513012234, 0.003879517037026024469, 0.007759034074052048938 ),
 .UNSPECIFIED. ) ;
#44 = FACE_OUTER_BOUND ( 'NONE', #514, .T. ) ;
#45 = EDGE_CURVE ( 'NONE', #138, #521, #483, .T. ) ;
#46 = DIRECTION ( 'NONE',  ( 0.000000000000000000, 0.000000000000000000, 1.000000000000000000 ) ) ;
#47 = CARTESIAN_POINT ( 'NONE',  ( 6.999298889343632091, -6.880090707843051767, -1.083333333333331705 ) ) ;
#48 = ORIENTED_EDGE ( 'NONE', *, *, #649, .F. ) ;
#49 = DIRECTION ( 'NONE',  ( -1.000000000000000000, -0.000000000000000000, -0.000000000000000000 ) ) ;
#50 = DIRECTION ( 'NONE',  ( 0.000000000000000000, 0.000000000000000000, -1.000000000000000000 ) ) ;
#51 = VECTOR ( 'NONE', #49, 1000.000000000000000 ) ;
#52 = CARTESIAN_POINT ( 'NONE',  ( 6.999298889343630314, -4.378239541354669306, -5.416666666666667851 ) ) ;
#53 = EDGE_CURVE ( 'NONE', #573, #229, #285, .T. ) ;
#54 = EDGE_LOOP ( 'NONE', ( #142 ) ) ;
#55 = CARTESIAN_POINT ( 'NONE',  ( 0.5805565836007589020, -3.752776749732555039, 6.500000000000000000 ) ) ;
#56 = CARTESIAN_POINT ( 'NONE',  ( 7.055307086255377058, 6.416896266859882125, -2.148916565939751333 ) ) ;
#57 = CARTESIAN_POINT ( 'NONE',  ( 7.414571593842609332, 7.624298425015625824, -2.481790389693679745E-13 ) ) ;
#58 = ORIENTED_EDGE ( 'NONE', *, *, #324, .T. ) ;
#59 = CARTESIAN_POINT ( 'NONE',  ( 7.221794902845453556, -7.505553499465142053, 0.000000000000000000 ) ) ;
#60 = CARTESIAN_POINT ( 'NONE',  ( 7.051250413379132276, 5.097083779551128124, -4.434671271632559808 ) ) ;
#61 =( NAMED_UNIT ( * ) SI_UNIT ( $, .STERADIAN. ) SOLID_ANGLE_UNIT ( ) );
#62 = ORIENTED_EDGE ( 'NONE', *, *, #457, .F. ) ;
#63 = LINE ( 'NONE', #188, #144 ) ;
#64 = FACE_OUTER_BOUND ( 'NONE', #67, .T. ) ;
#65 = CARTESIAN_POINT ( 'NONE',  ( 7.221794902845450004, 3.752776749732562589, 6.500000000000000000 ) ) ;
#66 = B_SPLINE_CURVE_WITH_KNOTS ( 'NONE', 3,
 ( #129, #319, #256, #74, #261, #635, #716, #563 ),
 .UNSPECIFIED., .F., .F.,
 ( 4, 2, 2, 4 ),
 ( 1.012152770718925781E-19, 0.001939758518513010500, 0.003879517037026020999, 0.007759034074052041999 ),
 .UNSPECIFIED. ) ;
#67 = EDGE_LOOP ( 'NONE', ( #106, #589, #28, #707, #387 ) ) ;
#68 = CARTESIAN_POINT ( 'NONE',  ( 7.430510270226316827, 7.668089578475858481, -1.196630429611302695E-16 ) ) ;
#69 = EDGE_CURVE ( 'NONE', #113, #11, #473, .T. ) ;
#70 = EDGE_CURVE ( 'NONE', #761, #833, #250, .T. ) ;
#71 = ORIENTED_EDGE ( 'NONE', *, *, #496, .F. ) ;
#72 = VERTEX_POINT ( 'NONE', #208 ) ;
#73 = CARTESIAN_POINT ( 'NONE',  ( 7.396099516199861057, 3.685285113954948066, -6.616898942252756655 ) ) ;
#74 = CARTESIAN_POINT ( 'NONE',  ( 7.087313109477541673, -6.379997729624006020, -2.214685913637188364 ) ) ;
#75 = ORIENTED_EDGE ( 'NONE', *, *, #711, .F. ) ;
#76 = CARTESIAN_POINT ( 'NONE',  ( 6.867368561558812701, 4.948500118066680997, 4.428946374247915152 ) ) ;
#77 = CARTESIAN_POINT ( 'NONE',  ( 7.012924339751136493, -2.617689933378959388, -6.500000000000000000 ) ) ;
#78 = CYLINDRICAL_SURFACE ( 'NONE', #115, 5.000000000000000888 ) ;
#79 = AXIS2_PLACEMENT_3D ( 'NONE', #816, #487, #361 ) ;
#80 = ORIENTED_EDGE ( 'NONE', *, *, #636, .F. ) ;
#81 = VERTEX_POINT ( 'NONE', #85 ) ;
#82 = CARTESIAN_POINT ( 'NONE',  ( 7.438728979646340278, -7.690573436514820393, -0.03859838217435167945 ) ) ;
#83 = LINE ( 'NONE', #141, #751 ) ;
#84 = VERTEX_POINT ( 'NONE', #243 ) ;
#85 = CARTESIAN_POINT ( 'NONE',  ( 8.245230534410570300, 0.000000000000000000, 9.906515107494248795 ) ) ;
#86 = CARTESIAN_POINT ( 'NONE',  ( 7.251008349381919516, -3.671965286670900941, 6.639969559856758963 ) ) ;
#87 = EDGE_CURVE ( 'NONE', #11, #240, #551, .T. ) ;
#88 = CARTESIAN_POINT ( 'NONE',  ( 7.414509003003696641, -3.812063229049627022, -6.602687194378789926 ) ) ;
#89 = ORIENTED_EDGE ( 'NONE', *, *, #832, .F. ) ;
#90 = FACE_BOUND ( 'NONE', #799, .T. ) ;
#91 = CARTESIAN_POINT ( 'NONE',  ( 0.000000000000000000, -5.629165124598843661, 3.250000000000012879 ) ) ;
#92 = CARTESIAN_POINT ( 'NONE',  ( 29.69999999999999574, 0.000000000000000000, 0.000000000000000000 ) ) ;
#93 = ORIENTED_EDGE ( 'NONE', *, *, #482, .T. ) ;
#94 = CIRCLE ( 'NONE', #679, 5.000000000000000888 ) ;
#95 = STYLED_ITEM ( 'NONE', ( #121 ), #145 ) ;
#96 = CARTESIAN_POINT ( 'NONE',  ( 7.396099140579336151, -3.887758010235799588, -6.499999999999999112 ) ) ;
#97 = CARTESIAN_POINT ( 'NONE',  ( 7.430510270226315050, -3.834044789237932793, -6.640760373454795307 ) ) ;
#98 = B_SPLINE_CURVE_WITH_KNOTS ( 'NONE', 3,
 ( #488, #163, #553, #763, #367, #542 ),
 .UNSPECIFIED., .F., .F.,
 ( 4, 2, 4 ),
 ( 0.02294124189247800927, 0.02484059228080998799, 0.02673994266914196671 ),
 .UNSPECIFIED. ) ;
#99 = PLANE ( 'NONE',  #79 ) ;
#100 = CARTESIAN_POINT ( 'NONE',  ( 7.206712378148495191, -4.435477211546744236, -5.589688117777670051 ) ) ;
#101 = CARTESIAN_POINT ( 'NONE',  ( 7.395878793765809256, -3.886578153151500015, 6.499999999999999112 ) ) ;
#102 = CARTESIAN_POINT ( 'NONE',  ( 7.054022740708436601, -1.291410434130526363, 6.631617438107563878 ) ) ;
#103 = ADVANCED_FACE ( 'NONE', ( #577 ), #780, .F. ) ;
#104 = CARTESIAN_POINT ( 'NONE',  ( 0.5805565836007589020, -3.752776749732555039, 6.500000000000000000 ) ) ;
#105 = CIRCLE ( 'NONE', #220, 6.500000000000000000 ) ;
#106 = ORIENTED_EDGE ( 'NONE', *, *, #684, .F. ) ;
#107 = DIRECTION ( 'NONE',  ( -1.000000000000000000, -0.000000000000000000, 0.000000000000000000 ) ) ;
#108 = CARTESIAN_POINT ( 'NONE',  ( 7.018829150757880164, -4.304382728307571071, -5.544590419349353816 ) ) ;
#109 = CARTESIAN_POINT ( 'NONE',  ( 6.731338960781604541, -5.629165124598856984, -3.250000000000001332 ) ) ;
#110 = ORIENTED_EDGE ( 'NONE', *, *, #604, .F. ) ;
#111 = CARTESIAN_POINT ( 'NONE',  ( 7.414571593842605779, 3.812149212508308072, 6.602836122096921834 ) ) ;
#112 = CARTESIAN_POINT ( 'NONE',  ( 7.051250413379190007, -6.389079868440759924, -2.196868402495723682 ) ) ;
#113 = VERTEX_POINT ( 'NONE', #439 ) ;
#114 = CARTESIAN_POINT ( 'NONE',  ( 7.198009690730578392, 7.029299486301191280, -1.096634249695115582 ) ) ;
#115 = AXIS2_PLACEMENT_3D ( 'NONE', #150, #202, #468 ) ;
#116 = DIRECTION ( 'NONE',  ( 1.000000000000000000, 0.000000000000000000, -0.000000000000000000 ) ) ;
#117 = CONICAL_SURFACE ( 'NONE', #448, 4.171999999999999709, 0.7853981633974437271 ) ;
#118 = ADVANCED_FACE ( 'NONE', ( #373 ), #303, .F. ) ;
#119 = EDGE_LOOP ( 'NONE', ( #383 ) ) ;
#120 = LINE ( 'NONE', #375, #51 ) ;
#121 = PRESENTATION_STYLE_ASSIGNMENT (( #710 ) ) ;
#122 = ORIENTED_EDGE ( 'NONE', *, *, #711, .T. ) ;
#123 = CARTESIAN_POINT ( 'NONE',  ( 7.221794902845450004, 3.752776749732560813, -6.499999999999999112 ) ) ;
#124 = CARTESIAN_POINT ( 'NONE',  ( 6.999298889343630314, 4.378239541354657760, -5.416666666666667851 ) ) ;
#125 =( NAMED_UNIT ( * ) PLANE_ANGLE_UNIT ( ) SI_UNIT ( $, .RADIAN. ) );
#126 = EDGE_CURVE ( 'NONE', #138, #315, #66, .T. ) ;
#127 = CARTESIAN_POINT ( 'NONE',  ( 4.404571325722360531E-17, -0.6346842323199914926, 6.499999999999999112 ) ) ;
#128 = CARTESIAN_POINT ( 'NONE',  ( 7.054022740708437489, 5.097443952515758880, 4.434202961723114456 ) ) ;
#129 = CARTESIAN_POINT ( 'NONE',  ( 7.430510270226316827, -7.668089578475859369, 1.183515151487694476E-15 ) ) ;
#130 = CLOSED_SHELL ( 'NONE', ( #801, #212, #748, #103, #417, #583, #774, #299, #537, #157, #317, #206, #735, #474, #528, #434, #118, #465, #595, #560, #330, #613, #512, #815, #424 ) ) ;
#131 = ORIENTED_EDGE ( 'NONE', *, *, #272, .F. ) ;
#132 = CARTESIAN_POINT ( 'NONE',  ( 7.395879070129796951, 3.685875308038640163, 6.615876696113478950 ) ) ;
#133 = CARTESIAN_POINT ( 'NONE',  ( 9.699999999999999289, 3.752776749732560813, -6.499999999999999112 ) ) ;
#134 = CARTESIAN_POINT ( 'NONE',  ( 0.1061556211655321075, 4.836380039389416297, -4.623144047065556705 ) ) ;
#135 = ORIENTED_EDGE ( 'NONE', *, *, #45, .T. ) ;
#136 = CARTESIAN_POINT ( 'NONE',  ( 7.395879070129800503, -7.572454941159063146, -0.1158766961134781864 ) ) ;
#137 = DIRECTION ( 'NONE',  ( 1.000000000000000000, 0.000000000000000000, 0.000000000000000000 ) ) ;
#138 = VERTEX_POINT ( 'NONE', #835 ) ;
#139 = FACE_OUTER_BOUND ( 'NONE', #119, .T. ) ;
#140 = DIRECTION ( 'NONE',  ( 1.000000000000000000, 0.000000000000000000, 0.000000000000000000 ) ) ;
#141 = CARTESIAN_POINT ( 'NONE',  ( 9.699999999999999289, -3.752776749732574135, -6.500000000000000000 ) ) ;
#142 = ORIENTED_EDGE ( 'NONE', *, *, #324, .F. ) ;
#143 = DIRECTION ( 'NONE',  ( 1.000000000000000000, 0.000000000000000000, -0.000000000000000000 ) ) ;
#144 = VECTOR ( 'NONE', #718, 1000.000000000000000 ) ;
#145 = MANIFOLD_SOLID_BREP ( 'FlangeHexFillet', #130 ) ;
#146 = CARTESIAN_POINT ( 'NONE',  ( 7.012937862232150543, -4.320283083554502745, 5.517050196203246770 ) ) ;
#147 = DIRECTION ( 'NONE',  ( 0.000000000000000000, 0.000000000000000000, -1.000000000000000000 ) ) ;
#148 = ORIENTED_EDGE ( 'NONE', *, *, #832, .T. ) ;
#149 = CARTESIAN_POINT ( 'NONE',  ( 0.000000000000000000, 0.000000000000000000, 0.000000000000000000 ) ) ;
#150 = CARTESIAN_POINT ( 'NONE',  ( 0.000000000000000000, 0.000000000000000000, 0.000000000000000000 ) ) ;
#151 = CARTESIAN_POINT ( 'NONE',  ( 0.5805565836007601233, 3.752776749732560813, -6.499999999999999112 ) ) ;
#152 = CARTESIAN_POINT ( 'NONE',  ( 7.395879610902837520, 3.886582529036625377, -6.499999999999997335 ) ) ;
#153 = B_SPLINE_CURVE_WITH_KNOTS ( 'NONE', 3,
 ( #216, #472, #660, #277, #328, #741, #524, #398 ),
 .UNSPECIFIED., .F., .F.,
 ( 4, 2, 2, 4 ),
 ( 0.003797433802554435467, 0.004743183970586234421, 0.005688934138618033376, 0.007580434474681629550 ),
 .UNSPECIFIED. ) ;
#154 = DIRECTION ( 'NONE',  ( -1.000000000000000000, -0.000000000000000000, -0.000000000000000000 ) ) ;
#155 = AXIS2_PLACEMENT_3D ( 'NONE', #504, #187, #377 ) ;
#156 = CARTESIAN_POINT ( 'NONE',  ( 7.221794902845450004, 3.752776749732562589, 6.500000000000000000 ) ) ;
#157 = ADVANCED_FACE ( 'NONE', ( #508 ), #314, .T. ) ;
#158 = DIRECTION ( 'NONE',  ( 0.000000000000000000, 0.000000000000000000, -1.000000000000000000 ) ) ;
#159 = CARTESIAN_POINT ( 'NONE',  ( 7.157550077484991391, 2.610579830098536114, 6.500000000000000000 ) ) ;
#160 = CARTESIAN_POINT ( 'NONE',  ( 7.007440284496379235, -4.953608119514958830, -4.420099056214033872 ) ) ;
#161 = EDGE_CURVE ( 'NONE', #203, #761, #211, .T. ) ;
#162 = CARTESIAN_POINT ( 'NONE',  ( 9.699999999999999289, -3.752776749732555484, 6.500000000000000000 ) ) ;
#163 = CARTESIAN_POINT ( 'NONE',  ( -2.401338405465940475E-16, -0.6346842323187762425, -6.500000000000000000 ) ) ;
#164 = CARTESIAN_POINT ( 'NONE',  ( 7.387245605886989530, -7.583981320058382991, 2.490026750787890259E-16 ) ) ;
#165 = CARTESIAN_POINT ( 'NONE',  ( 7.206719805991061101, -2.623113148260856509, 6.636080156412877962 ) ) ;
#166 = AXIS2_PLACEMENT_3D ( 'NONE', #461, #143, #470 ) ;
#167 = CARTESIAN_POINT ( 'NONE',  ( 7.087313109477539896, 1.272024602198644105, 6.632583066760019186 ) ) ;
#168 = VERTEX_POINT ( 'NONE', #784 ) ;
#169 = ORIENTED_EDGE ( 'NONE', *, *, #53, .F. ) ;
#170 = CARTESIAN_POINT ( 'NONE',  ( 7.396099790023686005, 3.887761487325278598, 6.499999999999999112 ) ) ;
#171 = CARTESIAN_POINT ( 'NONE',  ( 7.052879593076076148, 0.6296077276296776493, 6.631585372299158010 ) ) ;
#172 = CARTESIAN_POINT ( 'NONE',  ( -4.358831546570629545E-15, 5.948846446048898784, -2.696295709017757947 ) ) ;
#173 = ORIENTED_EDGE ( 'NONE', *, *, #773, .F. ) ;
#174 = DIRECTION ( 'NONE',  ( -1.000000000000000000, -0.000000000000000000, -0.000000000000000000 ) ) ;
#175 = EDGE_CURVE ( 'NONE', #309, #325, #362, .T. ) ;
#176 = CARTESIAN_POINT ( 'NONE',  ( 7.438946873539103777, 3.811273946203592278, -6.680554546890238754 ) ) ;
#177 = ORIENTED_EDGE ( 'NONE', *, *, #452, .T. ) ;
#178 = ORIENTED_EDGE ( 'NONE', *, *, #522, .T. ) ;
#179 = DIRECTION ( 'NONE',  ( 1.000000000000000000, 0.000000000000000000, 0.000000000000000000 ) ) ;
#180 = FACE_OUTER_BOUND ( 'NONE', #430, .T. ) ;
#181 = CIRCLE ( 'NONE', #739, 5.000000000000000888 ) ;
#182 = B_SPLINE_CURVE_WITH_KNOTS ( 'NONE', 3,
 ( #364, #52, #109, #47, #340 ),
 .UNSPECIFIED., .F., .F.,
 ( 4, 1, 4 ),
 ( 0.000000000000000000, 0.003752776749732567030, 0.007505553499465134060 ),
 .UNSPECIFIED. ) ;
#183 = SURFACE_SIDE_STYLE ('',( #794 ) ) ;
#184 = ORIENTED_EDGE ( 'NONE', *, *, #126, .F. ) ;
#185 = FACE_OUTER_BOUND ( 'NONE', #723, .T. ) ;
#186 = CARTESIAN_POINT ( 'NONE',  ( 7.313992842541622075, 7.347960576939218669, 0.5495771329367872271 ) ) ;
#187 = DIRECTION ( 'NONE',  ( 1.000000000000000000, 0.000000000000000000, 0.000000000000000000 ) ) ;
#188 = CARTESIAN_POINT ( 'NONE',  ( 9.699999999999999289, 7.505553499465140277, 0.000000000000000000 ) ) ;
#189 = DIRECTION ( 'NONE',  ( 0.000000000000000000, 0.000000000000000000, -1.000000000000000000 ) ) ;
#190 = FILL_AREA_STYLE ('',( #775 ) ) ;
#191 = ORIENTED_EDGE ( 'NONE', *, *, #264, .T. ) ;
#192 = CARTESIAN_POINT ( 'NONE',  ( 6.731338960781601877, -5.629165124598848102, 3.250000000000000000 ) ) ;
#193 = CARTESIAN_POINT ( 'NONE',  ( 7.200818918525441426, 4.451173784384832466, -5.562255861681404845 ) ) ;
#194 = CARTESIAN_POINT ( 'NONE',  ( 7.269155673949608598, 7.505553499465138501, 4.091503946963824434E-17 ) ) ;
#195 = CONICAL_SURFACE ( 'NONE', #690, 6.500000000000000000, 1.047197551196600296 ) ;
#196 = ORIENTED_EDGE ( 'NONE', *, *, #671, .F. ) ;
#197 = CARTESIAN_POINT ( 'NONE',  ( 9.699999999999997513, 0.000000000000000000, 9.650000000000002132 ) ) ;
#198 = FACE_OUTER_BOUND ( 'NONE', #564, .T. ) ;
#199 = ORIENTED_EDGE ( 'NONE', *, *, #420, .F. ) ;
#200 = CARTESIAN_POINT ( 'NONE',  ( 7.012937862231356512, 6.938047165644628755, 0.9829498037942682176 ) ) ;
#201 = CARTESIAN_POINT ( 'NONE',  ( 7.221794902845453556, -7.505553499465142053, 0.000000000000000000 ) ) ;
#202 = DIRECTION ( 'NONE',  ( -1.000000000000000000, -0.000000000000000000, -0.000000000000000000 ) ) ;
#203 = VERTEX_POINT ( 'NONE', #402 ) ;
#204 = APPLICATION_PROTOCOL_DEFINITION ( 'draft international standard', 'automotive_design', 1998, #641 ) ;
#205 = DIRECTION ( 'NONE',  ( 1.000000000000000000, 0.000000000000000000, -0.000000000000000000 ) ) ;
#206 = ADVANCED_FACE ( 'NONE', ( #811 ), #534, .T. ) ;
#207 = ORIENTED_EDGE ( 'NONE', *, *, #458, .F. ) ;
#208 = CARTESIAN_POINT ( 'NONE',  ( 28.87199999999998923, 0.000000000000000000, 5.000000000000000888 ) ) ;
#209 = B_SPLINE_CURVE_WITH_KNOTS ( 'NONE', 3,
 ( #156, #623, #32, #223, #111, #9 ),
 .UNSPECIFIED., .F., .F.,
 ( 4, 2, 4 ),
 ( 0.000000000000000000, 0.0001398026746648446217, 0.0002796053493296892433 ),
 .UNSPECIFIED. ) ;
#210 = CARTESIAN_POINT ( 'NONE',  ( 0.000000000000000000, 0.000000000000000000, 6.500000000000000000 ) ) ;
#211 = B_SPLINE_CURVE_WITH_KNOTS ( 'NONE', 3,
 ( #65, #313, #7, #252, #513 ),
 .UNSPECIFIED., .F., .F.,
 ( 4, 1, 4 ),
 ( 4.336808689942017255E-19, 0.003752776749732570066, 0.007505553499465139264 ),
 .UNSPECIFIED. ) ;
#212 = ADVANCED_FACE ( 'NONE', ( #389, #279 ), #78, .T. ) ;
#213 = CARTESIAN_POINT ( 'NONE',  ( 7.221794902845450004, 3.752776749732562589, 6.500000000000000000 ) ) ;
#214 = CARTESIAN_POINT ( 'NONE',  ( 6.863311889761331663, 6.281826373774089589, 2.119557556297118062 ) ) ;
#215 = CARTESIAN_POINT ( 'NONE',  ( 7.250790990001117819, 3.913215708455433539, -6.499999999999999112 ) ) ;
#216 = CARTESIAN_POINT ( 'NONE',  ( 0.000000000000000000, 5.629165124598847214, 3.250000000000007550 ) ) ;
#217 = CARTESIAN_POINT ( 'NONE',  ( 0.000000000000000000, 0.000000000000000000, 0.000000000000000000 ) ) ;
#218 = PRODUCT_DEFINITION_CONTEXT ( 'detailed design', #689, 'design' ) ;
#219 = CARTESIAN_POINT ( 'NONE',  ( 7.387250901308424211, -3.791993585479783047, 6.567925552026285807 ) ) ;
#220 = AXIS2_PLACEMENT_3D ( 'NONE', #527, #678, #25 ) ;
#221 = DIRECTION ( 'NONE',  ( -1.000000000000000000, -0.000000000000000000, -0.000000000000000000 ) ) ;
#222 = EDGE_CURVE ( 'NONE', #568, #113, #153, .T. ) ;
#223 = CARTESIAN_POINT ( 'NONE',  ( 7.387250901308425988, 3.791993585479790152, 6.567925552026282254 ) ) ;
#224 = FACE_OUTER_BOUND ( 'NONE', #236, .T. ) ;
#225 = CARTESIAN_POINT ( 'NONE',  ( 0.000000000000000000, 5.629165124598846326, -3.250000000000008882 ) ) ;
#226 = CARTESIAN_POINT ( 'NONE',  ( 0.1061556211655309140, -4.836380039389410967, 4.623144047065557594 ) ) ;
#227 = CARTESIAN_POINT ( 'NONE',  ( 7.430510270226313274, 3.834044789237921247, 6.640760373454795307 ) ) ;
#228 = CARTESIAN_POINT ( 'NONE',  ( 7.221794902845450004, -3.752776749732555484, 6.500000000000000000 ) ) ;
#229 = VERTEX_POINT ( 'NONE', #744 ) ;
#230 = DIRECTION ( 'NONE',  ( -1.000000000000000000, -0.000000000000000000, -0.000000000000000000 ) ) ;
#231 = AXIS2_PLACEMENT_3D ( 'NONE', #681, #688, #479 ) ;
#232 = AXIS2_PLACEMENT_3D ( 'NONE', #382, #435, #720 ) ;
#233 = CARTESIAN_POINT ( 'NONE',  ( 7.003324241844755882, -6.276791171356696175, -2.128278782710790296 ) ) ;
#234 = AXIS2_PLACEMENT_3D ( 'NONE', #539, #588, #147 ) ;
#235 = CARTESIAN_POINT ( 'NONE',  ( 0.4033376246892505512, 7.198601258566904804, -0.5316568767328679890 ) ) ;
#236 = EDGE_LOOP ( 'NONE', ( #262, #640, #525 ) ) ;
#237 = CARTESIAN_POINT ( 'NONE',  ( 0.4037800551813757188, -7.199367570657607907, -0.5303295852573142177 ) ) ;
#238 = CARTESIAN_POINT ( 'NONE',  ( 7.163365005557857934, 6.949881905450864039, -0.9624514331598555961 ) ) ;
#239 = EDGE_LOOP ( 'NONE', ( #248 ) ) ;
#240 = VERTEX_POINT ( 'NONE', #335 ) ;
#241 = CARTESIAN_POINT ( 'NONE',  ( 0.5805565836007662295, -7.505553499465141165, 4.805557419452355804E-16 ) ) ;
#242 = CARTESIAN_POINT ( 'NONE',  ( -3.896351557369781560E-15, 5.309483803148794756, 3.803704290982253600 ) ) ;
#243 = CARTESIAN_POINT ( 'NONE',  ( 0.000000000000000000, 7.511572993685796142E-16, -6.499999999999999112 ) ) ;
#244 = ORIENTED_EDGE ( 'NONE', *, *, #698, .F. ) ;
#245 = CARTESIAN_POINT ( 'NONE',  ( 7.087313109477540785, 5.107973127425354143, -4.417897153122827270 ) ) ;
#246 = CARTESIAN_POINT ( 'NONE',  ( 7.221794902845450004, 3.752776749732560813, -6.499999999999999112 ) ) ;
#247 =( GEOMETRIC_REPRESENTATION_CONTEXT ( 3 ) GLOBAL_UNCERTAINTY_ASSIGNED_CONTEXT ( ( #454 ) ) GLOBAL_UNIT_ASSIGNED_CONTEXT ( ( #526, #728, #24 ) ) REPRESENTATION_CONTEXT ( 'NONE', 'WORKASPACE' ) );
#248 = ORIENTED_EDGE ( 'NONE', *, *, #603, .T. ) ;
#249 = CARTESIAN_POINT ( 'NONE',  ( 7.052879593076076148, 5.428317535961518558, -3.861048972695871218 ) ) ;
#250 = B_SPLINE_CURVE_WITH_KNOTS ( 'NONE', 3,
 ( #368, #194, #572, #726, #57, #450 ),
 .UNSPECIFIED., .F., .F.,
 ( 4, 2, 4 ),
 ( 8.673617379884035472E-19, 0.0001398026746648456788, 0.0002796053493296904902 ),
 .UNSPECIFIED. ) ;
#251 = CARTESIAN_POINT ( 'NONE',  ( 7.221794902845453556, 7.505553499465140277, 0.000000000000000000 ) ) ;
#252 = CARTESIAN_POINT ( 'NONE',  ( 6.999298889343633867, 6.880090707843046438, 1.083333333333331927 ) ) ;
#253 = ORIENTED_EDGE ( 'NONE', *, *, #785, .F. ) ;
#254 = CARTESIAN_POINT ( 'NONE',  ( 0.000000000000000000, 0.000000000000000000, 6.500000000000000000 ) ) ;
#255 = DIRECTION ( 'NONE',  ( 0.000000000000000000, 0.5000000000000018874, 0.8660254037844374864 ) ) ;
#256 = CARTESIAN_POINT ( 'NONE',  ( 7.218382701090443554, -7.026211734546324195, -1.102197859566135696 ) ) ;
#257 = EDGE_LOOP ( 'NONE', ( #628, #501, #717, #75 ) ) ;
#258 = CARTESIAN_POINT ( 'NONE',  ( 7.206712378148765197, 4.435477211547556919, 5.589688117778063514 ) ) ;
#259 = B_SPLINE_CURVE_WITH_KNOTS ( 'NONE', 3,
 ( #372, #634, #302, #276, #535, #810 ),
 .UNSPECIFIED., .F., .F.,
 ( 4, 2, 4 ),
 ( 2.380733003139562229E-07, 0.001898835937927375282, 0.003797433802554436334 ),
 .UNSPECIFIED. ) ;
#260 = DIRECTION ( 'NONE',  ( 0.000000000000000000, -0.4999999999999999445, 0.8660254037844385966 ) ) ;
#261 = CARTESIAN_POINT ( 'NONE',  ( 7.052879593076078812, -6.057925263591199538, -2.770536399603286792 ) ) ;
#262 = ORIENTED_EDGE ( 'NONE', *, *, #293, .T. ) ;
#263 = CARTESIAN_POINT ( 'NONE',  ( 7.163350505795867740, 2.641356597155256392, -6.500000000001652900 ) ) ;
#264 = EDGE_CURVE ( 'NONE', #315, #365, #30, .T. ) ;
#265 = CARTESIAN_POINT ( 'NONE',  ( 7.221794902845452668, -3.752776749732574135, -6.500000000000000000 ) ) ;
#266 = CARTESIAN_POINT ( 'NONE',  ( 7.003324241843013276, 6.276791171356948418, 2.128278782708759032 ) ) ;
#267 = CARTESIAN_POINT ( 'NONE',  ( 6.863311889761331663, -4.976503875421799172, 4.380442443706014544 ) ) ;
#268 = CARTESIAN_POINT ( 'NONE',  ( 0.5805565836007662295, -7.505553499465141165, 4.805557419452355804E-16 ) ) ;
#269 = EDGE_LOOP ( 'NONE', ( #667, #378, #497, #23 ) ) ;
#270 = PRODUCT_CONTEXT ( 'NONE', #641, 'mechanical' ) ;
#271 = CARTESIAN_POINT ( 'NONE',  ( 7.396099516199858392, -3.685285113954943625, 6.616898942252756655 ) ) ;
#272 = EDGE_CURVE ( 'NONE', #315, #657, #655, .T. ) ;
#273 = CARTESIAN_POINT ( 'NONE',  ( -5.566700529355261828E-15, -5.948846446048897008, 2.696295709017760611 ) ) ;
#274 = VECTOR ( 'NONE', #230, 1000.000000000000000 ) ;
#275 = EDGE_LOOP ( 'NONE', ( #93, #646, #331 ) ) ;
#276 = CARTESIAN_POINT ( 'NONE',  ( 0.05533025579362382818, -4.993776679985861833, -4.350525068611869273 ) ) ;
#277 = CARTESIAN_POINT ( 'NONE',  ( 0.06682554136337896800, 6.264794173742276762, 2.149058192116896304 ) ) ;
#278 = LINE ( 'NONE', #162, #274 ) ;
#279 = FACE_OUTER_BOUND ( 'NONE', #812, .T. ) ;
#280 = CARTESIAN_POINT ( 'NONE',  ( 7.051237406338221270, 1.291724743777824980, 6.631539309290689133 ) ) ;
#281 = CARTESIAN_POINT ( 'NONE',  ( 7.251008349381925733, -7.586364962526796596, 0.1399695598567634869 ) ) ;
#282 = EDGE_CURVE ( 'NONE', #653, #653, #616, .T. ) ;
#283 = CARTESIAN_POINT ( 'NONE',  ( 7.200834686177161714, 2.591553658740415322, 6.635957835469495691 ) ) ;
#284 = CARTESIAN_POINT ( 'NONE',  ( 9.699999999999999289, 3.752776749732562589, 6.500000000000000000 ) ) ;
#285 = B_SPLINE_CURVE_WITH_KNOTS ( 'NONE', 3,
 ( #700, #294, #828, #469, #554, #745 ),
 .UNSPECIFIED., .F., .F.,
 ( 4, 2, 4 ),
 ( 0.01067228060976417071, 0.01257272967502432240, 0.01447317874028447408 ),
 .UNSPECIFIED. ) ;
#286 = VERTEX_POINT ( 'NONE', #339 ) ;
#287 =( BOUNDED_SURFACE ( )  B_SPLINE_SURFACE ( 3, 2, ( 
 ( #793, #136, #82 ),
 ( #342, #587, #18 ),
 ( #333, #401, #674 ),
 ( #267, #800, #463 ),
 ( #146, #669, #338 ),
 ( #86, #271, #532 ) ),
 .UNSPECIFIED., .F., .F., .T. ) 
 B_SPLINE_SURFACE_WITH_KNOTS ( ( 4, 2, 4 ),
 ( 3, 3 ),
 ( 0.03378808774327293762, 0.03761845727077248180, 0.04144882679827203292 ),
 ( 0.000000000000000000, 1.000000000000000000 ),
 .UNSPECIFIED. ) 
 GEOMETRIC_REPRESENTATION_ITEM ( )  RATIONAL_B_SPLINE_SURFACE ( (
 ( 1.000000000000000000, 0.8047782697668290908, 1.000000000000000000),
 ( 1.000000000000000000, 0.8123729076551798878, 1.000000000000000000),
 ( 1.000000000000000000, 0.8190643126442223032, 1.000000000000000000),
 ( 1.000000000000000000, 0.8192379524381057099, 1.000000000000000000),
 ( 1.000000000000000000, 0.8126148761532500098, 1.000000000000000000),
 ( 1.000000000000000000, 0.8047711916451731895, 1.000000000000000000) ) ) 
 REPRESENTATION_ITEM ( '' )  SURFACE ( )  );
#288 = CARTESIAN_POINT ( 'NONE',  ( 7.163372372492598394, -2.641472663284815781, 6.500000000001654676 ) ) ;
#289 = FACE_OUTER_BOUND ( 'NONE', #456, .T. ) ;
#290 = EDGE_LOOP ( 'NONE', ( #321, #16, #36 ) ) ;
#291 = DIRECTION ( 'NONE',  ( 1.000000000000000000, 0.000000000000000000, -0.000000000000000000 ) ) ;
#292 = CARTESIAN_POINT ( 'NONE',  ( 7.396099516199863722, -7.573045135242755244, 0.1168989422527612065 ) ) ;
#293 = EDGE_CURVE ( 'NONE', #754, #578, #320, .T. ) ;
#294 = CARTESIAN_POINT ( 'NONE',  ( -2.286988957586610299E-17, 0.6351314446054976415, 6.500000000000000000 ) ) ;
#295 = ORIENTED_EDGE ( 'NONE', *, *, #69, .F. ) ;
#296 = CARTESIAN_POINT ( 'NONE',  ( 6.999298889343625873, -4.378239541354652431, 5.416666666666665186 ) ) ;
#297 = CARTESIAN_POINT ( 'NONE',  ( 7.221794902845452668, -3.752776749732574135, -6.500000000000000000 ) ) ;
#298 = ORIENTED_EDGE ( 'NONE', *, *, #282, .F. ) ;
#299 = ADVANCED_FACE ( 'NONE', ( #536 ), #393, .T. ) ;
#300 = EDGE_LOOP ( 'NONE', ( #736, #593, #359, #173, #632 ) ) ;
#301 = CARTESIAN_POINT ( 'NONE',  ( 7.430510270226312386, 3.834044789237919915, -6.640760373454794419 ) ) ;
#302 = CARTESIAN_POINT ( 'NONE',  ( 0.2573354458087848129, -4.368923434677197903, -5.432802636760777126 ) ) ;
#303 = PLANE ( 'NONE',  #232 ) ;
#304 = ORIENTED_EDGE ( 'NONE', *, *, #354, .T. ) ;
#305 = CARTESIAN_POINT ( 'NONE',  ( 7.221794902845450004, -3.752776749732555484, 6.500000000000000000 ) ) ;
#306 = EDGE_CURVE ( 'NONE', #365, #168, #83, .T. ) ;
#307 = B_SPLINE_CURVE_WITH_KNOTS ( 'NONE', 3,
 ( #301, #515, #638, #245, #249, #510, #114, #68 ),
 .UNSPECIFIED., .F., .F.,
 ( 4, 2, 2, 4 ),
 ( 0.000000000000000000, 0.001939758518513012451, 0.003879517037026024903, 0.007759034074052049805 ),
 .UNSPECIFIED. ) ;
#308 = CARTESIAN_POINT ( 'NONE',  ( 7.251008349381921292, 3.671965286670906714, -6.639969559856758963 ) ) ;
#309 = VERTEX_POINT ( 'NONE', #665 ) ;
#310 = DIRECTION ( 'NONE',  ( 0.000000000000000000, 0.000000000000000000, -1.000000000000000000 ) ) ;
#311 = CARTESIAN_POINT ( 'NONE',  ( 7.087313109477540785, 6.379997729623998026, 2.214685913637188808 ) ) ;
#312 = CONICAL_SURFACE ( 'NONE', #478, 6.500000000000000000, 1.047197551196600296 ) ;
#313 = CARTESIAN_POINT ( 'NONE',  ( 6.999298889343626762, 4.378239541354656872, 5.416666666666667851 ) ) ;
#314 = CONICAL_SURFACE ( 'NONE', #155, 6.500000000000000000, 1.047197551196600296 ) ;
#315 = VERTEX_POINT ( 'NONE', #802 ) ;
#316 = CARTESIAN_POINT ( 'NONE',  ( 0.5805565836007662295, -7.505553499465141165, 4.805557419452355804E-16 ) ) ;
#317 = ADVANCED_FACE ( 'NONE', ( #224 ), #195, .T. ) ;
#318 = CARTESIAN_POINT ( 'NONE',  ( 7.250790455489159569, 7.585771522905305098, 0.1389416922811157473 ) ) ;
#319 = CARTESIAN_POINT ( 'NONE',  ( 7.313992842541621187, -7.347960576939222221, -0.5495771329367864499 ) ) ;
#320 = B_SPLINE_CURVE_WITH_KNOTS ( 'NONE', 3,
 ( #268, #597, #529, #406, #273, #33 ),
 .UNSPECIFIED., .F., .F.,
 ( 4, 2, 4 ),
 ( 2.380733003152363809E-07, 0.001898835937927387859, 0.003797433802554460187 ),
 .UNSPECIFIED. ) ;
#321 = ORIENTED_EDGE ( 'NONE', *, *, #698, .T. ) ;
#322 = DIRECTION ( 'NONE',  ( 0.000000000000000000, 0.000000000000000000, 1.000000000000000000 ) ) ;
#323 = CARTESIAN_POINT ( 'NONE',  ( 9.699999999999999289, 7.505553499465140277, 0.000000000000000000 ) ) ;
#324 = EDGE_CURVE ( 'NONE', #72, #72, #181, .T. ) ;
#325 = VERTEX_POINT ( 'NONE', #683 ) ;
#326 = CARTESIAN_POINT ( 'NONE',  ( 7.051250413379118953, 6.389079868440594723, 2.196868402495626427 ) ) ;
#327 = FACE_OUTER_BOUND ( 'NONE', #269, .T. ) ;
#328 = CARTESIAN_POINT ( 'NONE',  ( 0.1061556211655335508, 6.421950209808279020, 1.876855952934452842 ) ) ;
#329 = AXIS2_PLACEMENT_3D ( 'NONE', #14, #644, #520 ) ;
#330 = ADVANCED_FACE ( 'NONE', ( #289 ), #494, .F. ) ;
#331 = ORIENTED_EDGE ( 'NONE', *, *, #337, .T. ) ;
#332 = CARTESIAN_POINT ( 'NONE',  ( 0.000000000000000000, 0.000000000000000000, 0.000000000000000000 ) ) ;
#333 = CARTESIAN_POINT ( 'NONE',  ( 6.867368561558812701, -6.309830131132831532, 2.071053625748945581 ) ) ;
#334 = B_SPLINE_CURVE_WITH_KNOTS ( 'NONE', 3,
 ( #228, #345, #486, #757, #213 ),
 .UNSPECIFIED., .F., .F.,
 ( 4, 1, 4 ),
 ( 0.000000000000000000, 0.003752776749732559224, 0.007505553499465118447 ),
 .UNSPECIFIED. ) ;
#335 = CARTESIAN_POINT ( 'NONE',  ( 0.5805565836007601233, 3.752776749732560813, -6.499999999999999112 ) ) ;
#336 = ORIENTED_EDGE ( 'NONE', *, *, #348, .T. ) ;
#337 = EDGE_CURVE ( 'NONE', #84, #168, #98, .T. ) ;
#338 = CARTESIAN_POINT ( 'NONE',  ( 7.200818918525707879, -4.451173784385615839, 5.562255861681803637 ) ) ;
#339 = CARTESIAN_POINT ( 'NONE',  ( 0.5805565836007589020, -3.752776749732555039, 6.500000000000000000 ) ) ;
#340 = CARTESIAN_POINT ( 'NONE',  ( 7.221794902845453556, -7.505553499465142053, 0.000000000000000000 ) ) ;
#341 = VERTEX_POINT ( 'NONE', #197 ) ;
#342 = CARTESIAN_POINT ( 'NONE',  ( 7.018829150758183033, -6.953947520888710265, 0.9554095806531245350 ) ) ;
#343 = DIRECTION ( 'NONE',  ( 0.000000000000000000, 0.000000000000000000, 1.000000000000000000 ) ) ;
#344 = CIRCLE ( 'NONE', #446, 6.500000000000000888 ) ;
#345 = CARTESIAN_POINT ( 'NONE',  ( 6.999298889343627650, -2.501851166488368694, 6.500000000000000000 ) ) ;
#346 = CARTESIAN_POINT ( 'NONE',  ( 7.438729514158300304, 3.878716790466717246, -6.640932785784089631 ) ) ;
#347 = UNCERTAINTY_MEASURE_WITH_UNIT (LENGTH_MEASURE( 1.000000000000000082E-05 ), #4, 'distance_accuracy_value', 'NONE');
#348 = EDGE_CURVE ( 'NONE', #614, #365, #541, .T. ) ;
#349 = DIRECTION ( 'NONE',  ( 1.000000000000000000, 0.000000000000000000, -0.000000000000000000 ) ) ;
#350 = DIRECTION ( 'NONE',  ( 1.000000000000000000, 0.000000000000000000, 0.000000000000000000 ) ) ;
#351 = ORIENTED_EDGE ( 'NONE', *, *, #87, .T. ) ;
#352 = DIRECTION ( 'NONE',  ( 0.000000000000000000, 0.000000000000000000, -1.000000000000000000 ) ) ;
#353 = CARTESIAN_POINT ( 'NONE',  ( 7.438728979646340278, -3.811859538749438947, -6.679531156778802270 ) ) ;
#354 = EDGE_CURVE ( 'NONE', #584, #325, #608, .T. ) ;
#355 = AXIS2_PLACEMENT_3D ( 'NONE', #471, #205, #591 ) ;
#356 = ORIENTED_EDGE ( 'NONE', *, *, #649, .T. ) ;
#357 = CARTESIAN_POINT ( 'NONE',  ( 7.430510270226313274, 3.834044789237921247, 6.640760373454795307 ) ) ;
#358 = CARTESIAN_POINT ( 'NONE',  ( 7.438946873539108218, -7.691166922076395629, 0.03961721525104004021 ) ) ;
#359 = ORIENTED_EDGE ( 'NONE', *, *, #684, .T. ) ;
#360 =( BOUNDED_SURFACE ( )  B_SPLINE_SURFACE ( 3, 2, ( 
 ( #396, #132, #20 ),
 ( #668, #391, #258 ),
 ( #76, #12, #673 ),
 ( #214, #266, #326 ),
 ( #200, #594, #518 ),
 ( #579, #662, #658 ) ),
 .UNSPECIFIED., .F., .F., .T. ) 
 B_SPLINE_SURFACE_WITH_KNOTS ( ( 4, 2, 4 ),
 ( 3, 3 ),
 ( 0.03378808774327293762, 0.03761845727077248180, 0.04144882679827203292 ),
 ( 0.000000000000000000, 1.000000000000000000 ),
 .UNSPECIFIED. ) 
 GEOMETRIC_REPRESENTATION_ITEM ( )  RATIONAL_B_SPLINE_SURFACE ( (
 ( 1.000000000000000000, 0.8047782697668302010, 1.000000000000000000),
 ( 1.000000000000000000, 0.8123729076546235550, 1.000000000000000000),
 ( 1.000000000000000000, 0.8190643126449632661, 1.000000000000000000),
 ( 1.000000000000000000, 0.8192379524373663013, 1.000000000000000000),
 ( 1.000000000000000000, 0.8126148761538043441, 1.000000000000000000),
 ( 1.000000000000000000, 0.8047711916451737446, 1.000000000000000000) ) ) 
 REPRESENTATION_ITEM ( '' )  SURFACE ( )  );
#361 = DIRECTION ( 'NONE',  ( 0.000000000000000000, -0.5000000000000012212, -0.8660254037844380415 ) ) ;
#362 = B_SPLINE_CURVE_WITH_KNOTS ( 'NONE', 3,
 ( #605, #31, #734, #219, #464, #730 ),
 .UNSPECIFIED., .F., .F.,
 ( 4, 2, 4 ),
 ( 0.000000000000000000, 0.0001398026746648436459, 0.0002796053493296872918 ),
 .UNSPECIFIED. ) ;
#363 = CARTESIAN_POINT ( 'NONE',  ( 6.863311889761912532, -6.281826373774094030, -2.119557556297120726 ) ) ;
#364 = CARTESIAN_POINT ( 'NONE',  ( 7.221794902845452668, -3.752776749732574135, -6.500000000000000000 ) ) ;
#365 = VERTEX_POINT ( 'NONE', #699 ) ;
#366 = CARTESIAN_POINT ( 'NONE',  ( 7.221794902845453556, 7.505553499465140277, 0.000000000000000000 ) ) ;
#367 = CARTESIAN_POINT ( 'NONE',  ( 0.4042117618284694069, -3.141900367810047001, -6.500000000000000000 ) ) ;
#368 = CARTESIAN_POINT ( 'NONE',  ( 7.221794902845453556, 7.505553499465140277, 0.000000000000000000 ) ) ;
#369 = ORIENTED_EDGE ( 'NONE', *, *, #87, .F. ) ;
#370 = CARTESIAN_POINT ( 'NONE',  ( 0.06682554136338217377, -6.264794173742281203, -2.149058192116893196 ) ) ;
#371 = PRESENTATION_LAYER_ASSIGNMENT (  '', '', ( #95 ) ) ;
#372 = CARTESIAN_POINT ( 'NONE',  ( 0.5805565836007642311, -3.752776749732574135, -6.500000000000000000 ) ) ;
#373 = FACE_OUTER_BOUND ( 'NONE', #517, .T. ) ;
#374 = FACE_OUTER_BOUND ( 'NONE', #54, .T. ) ;
#375 = CARTESIAN_POINT ( 'NONE',  ( 9.699999999999999289, -7.505553499465142053, 0.000000000000000000 ) ) ;
#376 = CARTESIAN_POINT ( 'NONE',  ( 7.012937862228921126, 4.320283083554118164, -5.517050196203920898 ) ) ;
#377 = DIRECTION ( 'NONE',  ( 0.000000000000000000, 0.000000000000000000, -1.000000000000000000 ) ) ;
#378 = ORIENTED_EDGE ( 'NONE', *, *, #682, .F. ) ;
#379 = DIRECTION ( 'NONE',  ( 1.000000000000000000, 0.000000000000000000, -0.000000000000000000 ) ) ;
#380 = AXIS2_PLACEMENT_3D ( 'NONE', #133, #499, #768 ) ;
#381 = CARTESIAN_POINT ( 'NONE',  ( 0.000000000000000000, 0.000000000000000000, 0.000000000000000000 ) ) ;
#382 = CARTESIAN_POINT ( 'NONE',  ( 9.699999999999999289, 3.752776749732562589, 6.500000000000000000 ) ) ;
#383 = ORIENTED_EDGE ( 'NONE', *, *, #603, .F. ) ;
#384 = CARTESIAN_POINT ( 'NONE',  ( 9.699999999999999289, 3.752776749732560813, -6.499999999999999112 ) ) ;
#385 = CARTESIAN_POINT ( 'NONE',  ( 0.01372220897661598389, 5.309964801958114045, -3.802871176606131165 ) ) ;
#386 = PRODUCT_DEFINITION ( 'General', '', #570, #218 ) ;
#387 = ORIENTED_EDGE ( 'NONE', *, *, #293, .F. ) ;
#388 = CARTESIAN_POINT ( 'NONE',  ( 7.157520600704597946, -2.610421171329520895, -6.499999999997734257 ) ) ;
#389 = FACE_OUTER_BOUND ( 'NONE', #829, .T. ) ;
#390 = ORIENTED_EDGE ( 'NONE', *, *, #457, .T. ) ;
#391 = CARTESIAN_POINT ( 'NONE',  ( 7.163365005557027487, 4.308448343747654619, 5.537548566843433662 ) ) ;
#392 = DIRECTION ( 'NONE',  ( 0.000000000000000000, 0.000000000000000000, -1.000000000000000000 ) ) ;
#393 = CONICAL_SURFACE ( 'NONE', #738, 6.500000000000000000, 1.047197551196600296 ) ;
#394 = DIRECTION ( 'NONE',  ( -1.000000000000000000, -0.000000000000000000, -0.000000000000000000 ) ) ;
#395 = ORIENTED_EDGE ( 'NONE', *, *, #414, .F. ) ;
#396 = CARTESIAN_POINT ( 'NONE',  ( 7.250790455489154240, 3.672558726292401765, 6.638941692281106199 ) ) ;
#397 = CARTESIAN_POINT ( 'NONE',  ( 7.251007978109826446, -3.914397653745870009, -6.500000000000000000 ) ) ;
#398 = CARTESIAN_POINT ( 'NONE',  ( 0.5805565836007653413, 7.505553499465140277, 2.134917932617038921E-16 ) ) ;
#399 = ORIENTED_EDGE ( 'NONE', *, *, #636, .T. ) ;
#400 = PLANE ( 'NONE',  #166 ) ;
#401 = CARTESIAN_POINT ( 'NONE',  ( 7.007440284496954774, -6.304722129684241061, 2.079900943783488998 ) ) ;
#402 = CARTESIAN_POINT ( 'NONE',  ( 7.221794902845450004, 3.752776749732562589, 6.500000000000000000 ) ) ;
#403 = CARTESIAN_POINT ( 'NONE',  ( 0.05613245601036472715, 1.278525034529251592, -6.499999999999999112 ) ) ;
#404 = PRODUCT_DEFINITION_SHAPE ( 'NONE', 'NONE',  #386 ) ;
#405 = CARTESIAN_POINT ( 'NONE',  ( 6.863328304328098817, -1.305629925025281857, -6.499999999999999112 ) ) ;
#406 = CARTESIAN_POINT ( 'NONE',  ( 0.05533025579362000484, -6.264553569211840589, 2.149474931388139165 ) ) ;
#407 = AXIS2_PLACEMENT_3D ( 'NONE', #217, #422, #416 ) ;
#408 = B_SPLINE_CURVE_WITH_KNOTS ( 'NONE', 3,
 ( #59, #562, #192, #296, #305 ),
 .UNSPECIFIED., .F., .F.,
 ( 4, 1, 4 ),
 ( 0.000000000000000000, 0.003752776749732573535, 0.007505553499465145335 ),
 .UNSPECIFIED. ) ;
#409 = CARTESIAN_POINT ( 'NONE',  ( 8.950000000000001066, 0.000000000000000000, 0.000000000000000000 ) ) ;
#410 = DIRECTION ( 'NONE',  ( -1.000000000000000000, -0.000000000000000000, -0.000000000000000000 ) ) ;
#411 = CARTESIAN_POINT ( 'NONE',  ( 7.395879070129800503, -3.685875308038647713, -6.615876696113485167 ) ) ;
#412 = FACE_OUTER_BOUND ( 'NONE', #713, .T. ) ;
#413 = CARTESIAN_POINT ( 'NONE',  ( 0.5805565836007603453, 3.752776749732561701, 6.500000000000000000 ) ) ;
#414 = EDGE_CURVE ( 'NONE', #203, #229, #38, .T. ) ;
#415 = AXIS2_PLACEMENT_3D ( 'NONE', #22, #467, #260 ) ;
#416 = DIRECTION ( 'NONE',  ( 0.000000000000000000, 0.000000000000000000, -1.000000000000000000 ) ) ;
#417 = ADVANCED_FACE ( 'NONE', ( #627, #485 ), #645, .T. ) ;
#418 = CARTESIAN_POINT ( 'NONE',  ( 7.430510270226311498, -3.834044789237914141, 6.640760373454795307 ) ) ;
#419 = ORIENTED_EDGE ( 'NONE', *, *, #222, .F. ) ;
#420 = EDGE_CURVE ( 'NONE', #229, #568, #685, .T. ) ;
#421 = VERTEX_POINT ( 'NONE', #709 ) ;
#422 = DIRECTION ( 'NONE',  ( 1.000000000000000000, 0.000000000000000000, -0.000000000000000000 ) ) ;
#423 = CARTESIAN_POINT ( 'NONE',  ( 7.198009690730575727, -2.564936624254526620, 6.635869050793290924 ) ) ;
#424 = ADVANCED_FACE ( 'NONE', ( #3 ), #712, .F. ) ;
#425 = CARTESIAN_POINT ( 'NONE',  ( 0.000000000000000000, 5.629165124598846326, -3.250000000000008882 ) ) ;
#426 = ORIENTED_EDGE ( 'NONE', *, *, #70, .F. ) ;
#427 = CARTESIAN_POINT ( 'NONE',  ( 0.1061556211655361459, -6.421950209808284349, -1.876855952934449956 ) ) ;
#428 = CARTESIAN_POINT ( 'NONE',  ( 6.863311889761331663, 4.976503875421931511, -4.380442443705789834 ) ) ;
#429 = CARTESIAN_POINT ( 'NONE',  ( 7.269153674877134819, -7.505553499465142053, 2.223290713481436893E-16 ) ) ;
#430 = EDGE_LOOP ( 'NONE', ( #395, #505, #742, #419, #199 ) ) ;
#431 = CARTESIAN_POINT ( 'NONE',  ( 7.198009690730577503, -7.029299486301192168, 1.096634249695116470 ) ) ;
#432 = AXIS2_PLACEMENT_3D ( 'NONE', #409, #221, #492 ) ;
#433 = CARTESIAN_POINT ( 'NONE',  ( 0.000000000000000000, 5.629165124598847214, 3.250000000000007550 ) ) ;
#434 = ADVANCED_FACE ( 'NONE', ( #64 ), #503, .F. ) ;
#435 = DIRECTION ( 'NONE',  ( 0.000000000000000000, 0.000000000000000000, -1.000000000000000000 ) ) ;
#436 = ORIENTED_EDGE ( 'NONE', *, *, #337, .F. ) ;
#437 = CARTESIAN_POINT ( 'NONE',  ( 7.314461986807042848, 3.762192989944669996, -6.516309406463644649 ) ) ;
#438 = CARTESIAN_POINT ( 'NONE',  ( 6.731338960781601877, 5.629165124598851655, -3.249999999999999556 ) ) ;
#439 = CARTESIAN_POINT ( 'NONE',  ( 0.5805565836007653413, 7.505553499465140277, 2.134917932617038921E-16 ) ) ;
#440 = ORIENTED_EDGE ( 'NONE', *, *, #306, .T. ) ;
#441 = CARTESIAN_POINT ( 'NONE',  ( 0.01372220897661999804, -5.948365447239587489, -2.697128823393877717 ) ) ;
#442 = PLANE ( 'NONE',  #380 ) ;
#443 = CARTESIAN_POINT ( 'NONE',  ( 0.5805565836007601233, 3.752776749732560813, -6.499999999999999112 ) ) ;
#444 = ORIENTED_EDGE ( 'NONE', *, *, #26, .F. ) ;
#445 = FACE_BOUND ( 'NONE', #466, .T. ) ;
#446 = AXIS2_PLACEMENT_3D ( 'NONE', #686, #291, #352 ) ;
#447 = CARTESIAN_POINT ( 'NONE',  ( 7.198009690730577503, 4.464362862046650449, 5.539234801098174010 ) ) ;
#448 = AXIS2_PLACEMENT_3D ( 'NONE', #782, #174, #574 ) ;
#449 =( BOUNDED_SURFACE ( )  B_SPLINE_SURFACE ( 3, 2, ( 
 ( #41, #101, #752 ),
 ( #37, #288, #165 ),
 ( #34, #825, #762 ),
 ( #615, #607, #280 ),
 ( #547, #159, #283 ),
 ( #545, #170, #821 ) ),
 .UNSPECIFIED., .F., .F., .T. ) 
 B_SPLINE_SURFACE_WITH_KNOTS ( ( 4, 2, 4 ),
 ( 3, 3 ),
 ( 0.03369613755692955209, 0.03752645086253127149, 0.04135676416813299089 ),
 ( 0.000000000000000000, 1.000000000000000000 ),
 .UNSPECIFIED. ) 
 GEOMETRIC_REPRESENTATION_ITEM ( )  RATIONAL_B_SPLINE_SURFACE ( (
 ( 1.000000000000000000, 0.8047782786410149214, 1.000000000000000000),
 ( 1.000000000000000000, 0.8123726761301989230, 1.000000000000000000),
 ( 1.000000000000000000, 0.8190637316965507786, 1.000000000000000000),
 ( 1.000000000000000000, 0.8192385091656804175, 1.000000000000000000),
 ( 1.000000000000000000, 0.8126151291494925211, 1.000000000000000000),
 ( 1.000000000000000000, 0.8047711828538240963, 1.000000000000000000) ) ) 
 REPRESENTATION_ITEM ( '' )  SURFACE ( )  );
#450 = CARTESIAN_POINT ( 'NONE',  ( 7.430510270226316827, 7.668089578475858481, -1.196630429611302695E-16 ) ) ;
#451 = ORIENTED_EDGE ( 'NONE', *, *, #420, .T. ) ;
#452 = EDGE_CURVE ( 'NONE', #761, #614, #559, .T. ) ;
#453 = FACE_OUTER_BOUND ( 'NONE', #300, .T. ) ;
#454 = UNCERTAINTY_MEASURE_WITH_UNIT (LENGTH_MEASURE( 1.000000000000000082E-05 ), #526, 'distance_accuracy_value', 'NONE');
#455 = CARTESIAN_POINT ( 'NONE',  ( 0.4037800551813705008, 4.058962678540095403, -5.969670414742687115 ) ) ;
#456 = EDGE_LOOP ( 'NONE', ( #135, #530, #1, #184 ) ) ;
#457 = EDGE_CURVE ( 'NONE', #833, #584, #706, .T. ) ;
#458 = EDGE_CURVE ( 'NONE', #573, #578, #586, .T. ) ;
#459 = DIRECTION ( 'NONE',  ( 0.000000000000000000, 0.000000000000000000, -1.000000000000000000 ) ) ;
#460 = ORIENTED_EDGE ( 'NONE', *, *, #612, .T. ) ;
#461 = CARTESIAN_POINT ( 'NONE',  ( 9.699999999999999289, 7.505553499465140277, 2.749426538070113249E-16 ) ) ;
#462 = B_SPLINE_CURVE_WITH_KNOTS ( 'NONE', 3,
 ( #767, #506, #778, #437, #714, #123 ),
 .UNSPECIFIED., .F., .F.,
 ( 4, 2, 4 ),
 ( -2.985078214018771493E-06, 0.0001373665985435185263, 0.0002777182753010558640 ),
 .UNSPECIFIED. ) ;
#463 = CARTESIAN_POINT ( 'NONE',  ( 7.051250413379132276, -5.097083779551121907, 4.434671271632566913 ) ) ;
#464 = CARTESIAN_POINT ( 'NONE',  ( 7.414571593842604003, -3.812149212507748075, 6.602836122097240690 ) ) ;
#465 = ADVANCED_FACE ( 'NONE', ( #180 ), #575, .F. ) ;
#466 = EDGE_LOOP ( 'NONE', ( #777 ) ) ;
#467 = DIRECTION ( 'NONE',  ( -0.000000000000000000, 0.8660254037844387076, 0.5000000000000000000 ) ) ;
#468 = DIRECTION ( 'NONE',  ( 0.000000000000000000, 0.000000000000000000, 1.000000000000000000 ) ) ;
#469 = CARTESIAN_POINT ( 'NONE',  ( 0.2595206531159285901, 2.531175536751829380, 6.499999999999999112 ) ) ;
#470 = DIRECTION ( 'NONE',  ( -0.000000000000000000, 0.000000000000000000, -1.000000000000000000 ) ) ;
#471 = CARTESIAN_POINT ( 'NONE',  ( 0.000000000000000000, 0.000000000000000000, 0.000000000000000000 ) ) ;
#472 = CARTESIAN_POINT ( 'NONE',  ( -3.964114193150125587E-15, 5.788408252967898626, 2.974182810908597929 ) ) ;
#473 = B_SPLINE_CURVE_WITH_KNOTS ( 'NONE', 3,
 ( #598, #235, #622, #495, #172, #425 ),
 .UNSPECIFIED., .F., .F.,
 ( 4, 2, 4 ),
 ( 2.380733003136389561E-07, 0.001898835937927384173, 0.003797433802554454115 ),
 .UNSPECIFIED. ) ;
#474 = ADVANCED_FACE ( 'NONE', ( #643 ), #442, .F. ) ;
#475 = CARTESIAN_POINT ( 'NONE',  ( 0.000000000000000000, -5.629165124598843661, 3.250000000000012879 ) ) ;
#476 = CARTESIAN_POINT ( 'NONE',  ( 8.245230534410570300, 0.000000000000000000, 0.000000000000000000 ) ) ;
#477 = AXIS2_PLACEMENT_3D ( 'NONE', #566, #719, #255 ) ;
#478 = AXIS2_PLACEMENT_3D ( 'NONE', #2, #179, #310 ) ;
#479 = DIRECTION ( 'NONE',  ( 0.000000000000000000, 0.000000000000000000, 1.000000000000000000 ) ) ;
#480 = CARTESIAN_POINT ( 'NONE',  ( 7.200818918525628831, -7.042641770757916753, -1.073701643093139868 ) ) ;
#481 = B_SPLINE_CURVE_WITH_KNOTS ( 'NONE', 3,
 ( #569, #830, #441, #370, #427, #502, #237, #316 ),
 .UNSPECIFIED., .F., .F.,
 ( 4, 2, 2, 4 ),
 ( 0.003797433802554436334, 0.004743183970586234421, 0.005688934138618031641, 0.007580434474681626948 ),
 .UNSPECIFIED. ) ;
#482 = EDGE_CURVE ( 'NONE', #168, #421, #259, .T. ) ;
#483 = B_SPLINE_CURVE_WITH_KNOTS ( 'NONE', 3,
 ( #606, #489, #164, #691, #429, #760 ),
 .UNSPECIFIED., .F., .F.,
 ( 4, 2, 4 ),
 ( -2.985078214018415739E-06, 0.0001373665985435186890, 0.0002777182753010557555 ),
 .UNSPECIFIED. ) ;
#484 = CARTESIAN_POINT ( 'NONE',  ( 0.2578475836320666681, -4.367703157927321556, 5.434916218090832807 ) ) ;
#485 = FACE_OUTER_BOUND ( 'NONE', #704, .T. ) ;
#486 = CARTESIAN_POINT ( 'NONE',  ( 6.731338960781603653, 3.903127820947815962E-15, 6.500000000000000000 ) ) ;
#487 = DIRECTION ( 'NONE',  ( 0.000000000000000000, -0.8660254037844380415, 0.5000000000000012212 ) ) ;
#488 = CARTESIAN_POINT ( 'NONE',  ( 0.000000000000000000, 7.511572993685796142E-16, -6.499999999999999112 ) ) ;
#489 = CARTESIAN_POINT ( 'NONE',  ( 7.414509003003698417, -7.624126458099049763, 5.009926861654249673E-13 ) ) ;
#490 = AXIS2_PLACEMENT_3D ( 'NONE', #381, #116, #189 ) ;
#491 = ORIENTED_EDGE ( 'NONE', *, *, #612, .F. ) ;
#492 = DIRECTION ( 'NONE',  ( 0.000000000000000000, 0.000000000000000000, 1.000000000000000000 ) ) ;
#493 = CARTESIAN_POINT ( 'NONE',  ( 7.218382701090440001, 2.558574520892047843, 6.635976784268505568 ) ) ;
#494 =( BOUNDED_SURFACE ( )  B_SPLINE_SURFACE ( 3, 2, ( 
 ( #621, #411, #353 ),
 ( #108, #611, #100 ),
 ( #756, #160, #818 ),
 ( #363, #233, #112 ),
 ( #35, #546, #480 ),
 ( #281, #292, #358 ) ),
 .UNSPECIFIED., .F., .F., .T. ) 
 B_SPLINE_SURFACE_WITH_KNOTS ( ( 4, 2, 4 ),
 ( 3, 3 ),
 ( 0.03378808774327293762, 0.03761845727077248180, 0.04144882679827203292 ),
 ( 0.000000000000000000, 1.000000000000000000 ),
 .UNSPECIFIED. ) 
 GEOMETRIC_REPRESENTATION_ITEM ( )  RATIONAL_B_SPLINE_SURFACE ( (
 ( 1.000000000000000000, 0.8047782697668306451, 1.000000000000000000),
 ( 1.000000000000000000, 0.8123729076554022654, 1.000000000000000000),
 ( 1.000000000000000000, 0.8190643126439259847, 1.000000000000000000),
 ( 1.000000000000000000, 0.8192379524384013623, 1.000000000000000000),
 ( 1.000000000000000000, 0.8126148761530275211, 1.000000000000000000),
 ( 1.000000000000000000, 0.8047711916451737446, 1.000000000000000000) ) ) 
 REPRESENTATION_ITEM ( '' )  SURFACE ( )  );
#495 = CARTESIAN_POINT ( 'NONE',  ( 0.05533025579362087915, 6.264553569211845030, -2.149474931388136500 ) ) ;
#496 = EDGE_CURVE ( 'NONE', #578, #421, #827, .T. ) ;
#497 = ORIENTED_EDGE ( 'NONE', *, *, #45, .F. ) ;
#498 = DIRECTION ( 'NONE',  ( -0.000000000000000000, 0.000000000000000000, -1.000000000000000000 ) ) ;
#499 = DIRECTION ( 'NONE',  ( 0.000000000000000000, -1.155626614413199577E-16, 1.000000000000000000 ) ) ;
#500 = CARTESIAN_POINT ( 'NONE',  ( -2.608861477543245044E-16, 0.6351314446025478899, -6.500000000000000000 ) ) ;
#501 = ORIENTED_EDGE ( 'NONE', *, *, #452, .F. ) ;
#502 = CARTESIAN_POINT ( 'NONE',  ( 0.2578475836320726078, -6.890627091270376425, -1.065083781909172744 ) ) ;
#503 = PLANE ( 'NONE',  #477 ) ;
#504 = CARTESIAN_POINT ( 'NONE',  ( 0.000000000000000000, 0.000000000000000000, 0.000000000000000000 ) ) ;
#505 = ORIENTED_EDGE ( 'NONE', *, *, #161, .T. ) ;
#506 = CARTESIAN_POINT ( 'NONE',  ( 7.414509003003693977, 3.812063229049219792, -6.602687194379015523 ) ) ;
#507 = CARTESIAN_POINT ( 'NONE',  ( 7.430510270226316827, 7.668089578475858481, -1.196630429611302695E-16 ) ) ;
#508 = FACE_OUTER_BOUND ( 'NONE', #290, .T. ) ;
#509 = ORIENTED_EDGE ( 'NONE', *, *, #222, .T. ) ;
#510 = CARTESIAN_POINT ( 'NONE',  ( 7.054022740708438377, 6.388854386646294792, -2.197414476384449866 ) ) ;
#511 = CARTESIAN_POINT ( 'NONE',  ( 7.003324241843016829, 4.981539077837926044, -4.371721217293148776 ) ) ;
#512 = ADVANCED_FACE ( 'NONE', ( #740 ), #796, .F. ) ;
#513 = CARTESIAN_POINT ( 'NONE',  ( 7.221794902845453556, 7.505553499465140277, 0.000000000000000000 ) ) ;
#514 = EDGE_LOOP ( 'NONE', ( #444 ) ) ;
#515 = CARTESIAN_POINT ( 'NONE',  ( 7.313992842541617634, 4.149928046931876224, -6.088731959167522412 ) ) ;
#516 = CARTESIAN_POINT ( 'NONE',  ( 7.395879070129803168, 7.572454941159067587, 0.1158766961134874152 ) ) ;
#517 = EDGE_LOOP ( 'NONE', ( #795, #672, #637, #169, #244 ) ) ;
#518 = CARTESIAN_POINT ( 'NONE',  ( 7.200818918525063950, 7.042641770756358888, 1.073701643092098035 ) ) ;
#519 = AXIS2_PLACEMENT_3D ( 'NONE', #332, #322, #590 ) ;
#520 = DIRECTION ( 'NONE',  ( -0.000000000000000000, 0.000000000000000000, 1.000000000000000000 ) ) ;
#521 = VERTEX_POINT ( 'NONE', #201 ) ;
#522 = EDGE_CURVE ( 'NONE', #573, #568, #105, .T. ) ;
#523 = PLANE ( 'NONE',  #415 ) ;
#524 = CARTESIAN_POINT ( 'NONE',  ( 0.4037800551813744421, 7.199367570657603466, 0.5303295852573155500 ) ) ;
#525 = ORIENTED_EDGE ( 'NONE', *, *, #773, .T. ) ;
#526 =( LENGTH_UNIT ( ) NAMED_UNIT ( * ) SI_UNIT ( .MILLI., .METRE. ) );
#527 = CARTESIAN_POINT ( 'NONE',  ( 0.000000000000000000, 0.000000000000000000, 0.000000000000000000 ) ) ;
#528 = ADVANCED_FACE ( 'NONE', ( #453 ), #523, .F. ) ;
#529 = CARTESIAN_POINT ( 'NONE',  ( 0.2573354458087833696, -6.889406814520512512, 1.067197363239227315 ) ) ;
#530 = ORIENTED_EDGE ( 'NONE', *, *, #21, .F. ) ;
#531 = APPLICATION_PROTOCOL_DEFINITION ( 'draft international standard', 'automotive_design', 1998, #689 ) ;
#532 = CARTESIAN_POINT ( 'NONE',  ( 7.438946873539102000, -3.811273946203586949, 6.680554546890238754 ) ) ;
#533 = CARTESIAN_POINT ( 'NONE',  ( 7.052879593076076148, -0.6296077276296817571, -6.631585372299158010 ) ) ;
#534 = CONICAL_SURFACE ( 'NONE', #234, 6.500000000000000000, 1.047197551196600296 ) ;
#535 = CARTESIAN_POINT ( 'NONE',  ( -8.097634975751111241E-16, -5.309483803148802750, -3.803704290982251379 ) ) ;
#536 = FACE_OUTER_BOUND ( 'NONE', #8, .T. ) ;
#537 = ADVANCED_FACE ( 'NONE', ( #198 ), #705, .T. ) ;
#538 = DIRECTION ( 'NONE',  ( 0.000000000000000000, 0.000000000000000000, -1.000000000000000000 ) ) ;
#539 = CARTESIAN_POINT ( 'NONE',  ( 0.000000000000000000, 0.000000000000000000, 0.000000000000000000 ) ) ;
#540 = CARTESIAN_POINT ( 'NONE',  ( 0.4037800551813696681, -4.058962678540090074, 5.969670414742689779 ) ) ;
#541 = B_SPLINE_CURVE_WITH_KNOTS ( 'NONE', 3,
 ( #753, #42, #822, #687, #297 ),
 .UNSPECIFIED., .F., .F.,
 ( 4, 1, 4 ),
 ( 0.000000000000000000, 0.003752776749732567464, 0.007505553499465134927 ),
 .UNSPECIFIED. ) ;
#542 = CARTESIAN_POINT ( 'NONE',  ( 0.5805565836007642311, -3.752776749732574135, -6.500000000000000000 ) ) ;
#543 = CIRCLE ( 'NONE', #721, 6.500000000000000888 ) ;
#544 = ORIENTED_EDGE ( 'NONE', *, *, #15, .T. ) ;
#545 = CARTESIAN_POINT ( 'NONE',  ( 7.251008620035785945, 3.914401149954544135, 6.500000000000000000 ) ) ;
#546 = CARTESIAN_POINT ( 'NONE',  ( 7.157534174278061379, -6.934412289766036075, -0.9892455934947873564 ) ) ;
#547 = CARTESIAN_POINT ( 'NONE',  ( 7.012953738075764498, 2.617850912878291414, 6.500000000000000000 ) ) ;
#548 = ADVANCED_BREP_SHAPE_REPRESENTATION ( 'ISO 4162 - M10 x 20 x 20-N_ISO 4162 - M10 x 20 x 20-N', ( #145, #519 ), #247 ) ;
#549 = CARTESIAN_POINT ( 'NONE',  ( 0.000000000000000000, 0.000000000000000000, 0.000000000000000000 ) ) ;
#550 = EDGE_LOOP ( 'NONE', ( #791, #618, #196, #625 ) ) ;
#551 = B_SPLINE_CURVE_WITH_KNOTS ( 'NONE', 3,
 ( #567, #580, #385, #651, #134, #656, #455, #443 ),
 .UNSPECIFIED., .F., .F.,
 ( 4, 2, 2, 4 ),
 ( 0.003797433802554454115, 0.004743183970586248299, 0.005688934138618042917, 0.007580434474681630418 ),
 .UNSPECIFIED. ) ;
#552 = FACE_OUTER_BOUND ( 'NONE', #550, .T. ) ;
#553 = CARTESIAN_POINT ( 'NONE',  ( 0.05458999538772812965, -1.264741368073336147, -6.500000000000000888 ) ) ;
#554 = CARTESIAN_POINT ( 'NONE',  ( 0.4053525175235893618, 3.145852061455925330, 6.500000000000000000 ) ) ;
#555 = ORIENTED_EDGE ( 'NONE', *, *, #161, .F. ) ;
#556 = FACE_OUTER_BOUND ( 'NONE', #275, .T. ) ;
#557 = CARTESIAN_POINT ( 'NONE',  ( 0.4033376246892471095, 4.059728990630799395, 5.968343123267134231 ) ) ;
#558 = EDGE_LOOP ( 'NONE', ( #191, #40, #253, #131 ) ) ;
#559 = B_SPLINE_CURVE_WITH_KNOTS ( 'NONE', 3,
 ( #251, #788, #438, #124, #246 ),
 .UNSPECIFIED., .F., .F.,
 ( 4, 1, 4 ),
 ( 2.604172100283217543E-34, 0.003752776749732570066, 0.007505553499465140131 ),
 .UNSPECIFIED. ) ;
#560 = ADVANCED_FACE ( 'NONE', ( #327 ), #287, .F. ) ;
#561 = ORIENTED_EDGE ( 'NONE', *, *, #692, .T. ) ;
#562 = CARTESIAN_POINT ( 'NONE',  ( 6.999298889343630314, -6.880090707843043774, 1.083333333333333925 ) ) ;
#563 = CARTESIAN_POINT ( 'NONE',  ( 7.430510270226315050, -3.834044789237932793, -6.640760373454795307 ) ) ;
#564 = EDGE_LOOP ( 'NONE', ( #727, #451, #5 ) ) ;
#565 = CARTESIAN_POINT ( 'NONE',  ( 7.313992842541618522, -4.149928046931871783, 6.088731959167524188 ) ) ;
#566 = CARTESIAN_POINT ( 'NONE',  ( 9.699999999999999289, -7.505553499465142053, 0.000000000000000000 ) ) ;
#567 = CARTESIAN_POINT ( 'NONE',  ( 0.000000000000000000, 5.629165124598846326, -3.250000000000008882 ) ) ;
#568 = VERTEX_POINT ( 'NONE', #806 ) ;
#569 = CARTESIAN_POINT ( 'NONE',  ( 0.000000000000000000, -5.629165124598850767, -3.250000000000000444 ) ) ;
#570 = PRODUCT_DEFINITION_FORMATION_WITH_SPECIFIED_SOURCE ( 'Symmetric', '', #676, .NOT_KNOWN. ) ;
#571 = CARTESIAN_POINT ( 'NONE',  ( 6.867368561558812701, 6.309830131132713404, -2.071053625749152083 ) ) ;
#572 = CARTESIAN_POINT ( 'NONE',  ( 7.314465908138453543, 7.524387675871493819, -4.173842836210467890E-16 ) ) ;
#573 = VERTEX_POINT ( 'NONE', #210 ) ;
#574 = DIRECTION ( 'NONE',  ( 0.000000000000000000, 0.000000000000000000, 1.000000000000000000 ) ) ;
#575 = PLANE ( 'NONE',  #817 ) ;
#576 = EDGE_CURVE ( 'NONE', #578, #286, #617, .T. ) ;
#577 = FACE_OUTER_BOUND ( 'NONE', #624, .T. ) ;
#578 = VERTEX_POINT ( 'NONE', #475 ) ;
#579 = CARTESIAN_POINT ( 'NONE',  ( 7.251008349381925733, 7.586364962526796596, -0.1399695598567640142 ) ) ;
#580 = CARTESIAN_POINT ( 'NONE',  ( -4.284857335843755034E-15, 5.469921996229794914, -3.525817189091416726 ) ) ;
#581 = EDGE_CURVE ( 'NONE', #309, #286, #278, .T. ) ;
#582 = B_SPLINE_CURVE_WITH_KNOTS ( 'NONE', 3,
 ( #151, #695, #764, #403, #500, #808 ),
 .UNSPECIFIED., .F., .F.,
 ( 4, 2, 4 ),
 ( 0.01913986446880883846, 0.02104055318064342386, 0.02294124189247800927 ),
 .UNSPECIFIED. ) ;
#583 = ADVANCED_FACE ( 'NONE', ( #44, #619 ), #29, .T. ) ;
#584 = VERTEX_POINT ( 'NONE', #357 ) ;
#585 = VERTEX_POINT ( 'NONE', #17 ) ;
#586 = CIRCLE ( 'NONE', #490, 6.500000000000000888 ) ;
#587 = CARTESIAN_POINT ( 'NONE',  ( 7.163365005559386489, -6.949881905448490826, 0.9624514331576815573 ) ) ;
#588 = DIRECTION ( 'NONE',  ( 1.000000000000000000, 0.000000000000000000, 0.000000000000000000 ) ) ;
#589 = ORIENTED_EDGE ( 'NONE', *, *, #682, .T. ) ;
#590 = DIRECTION ( 'NONE',  ( 1.000000000000000000, 0.000000000000000000, 0.000000000000000000 ) ) ;
#591 = DIRECTION ( 'NONE',  ( 0.000000000000000000, 0.000000000000000000, -1.000000000000000000 ) ) ;
#592 = CARTESIAN_POINT ( 'NONE',  ( 7.087313109477540785, -1.272024602198650545, -6.632583066760018298 ) ) ;
#593 = ORIENTED_EDGE ( 'NONE', *, *, #21, .T. ) ;
#594 = CARTESIAN_POINT ( 'NONE',  ( 7.157534174278461947, 6.934412289764849469, 0.9892455934926274175 ) ) ;
#595 = ADVANCED_FACE ( 'NONE', ( #412 ), #99, .F. ) ;
#596 = CARTESIAN_POINT ( 'NONE',  ( 7.003340893046050120, -1.295558329464137959, -6.500000000000000000 ) ) ;
#597 = CARTESIAN_POINT ( 'NONE',  ( 0.4033376246892507178, -7.198601258566901251, 0.5316568767328689882 ) ) ;
#598 = CARTESIAN_POINT ( 'NONE',  ( 0.5805565836007653413, 7.505553499465140277, 2.134917932617038921E-16 ) ) ;
#599 = CARTESIAN_POINT ( 'NONE',  ( 29.69999999999999574, 0.000000000000000000, 4.171999999999999709 ) ) ;
#600 = CARTESIAN_POINT ( 'NONE',  ( -5.570088661144273508E-15, -5.469921996229789585, 3.525817189091419390 ) ) ;
#601 = CIRCLE ( 'NONE', #231, 9.650000000000002132 ) ;
#602 = AXIS2_PLACEMENT_3D ( 'NONE', #769, #677, #823 ) ;
#603 = EDGE_CURVE ( 'NONE', #341, #341, #601, .T. ) ;
#604 = EDGE_CURVE ( 'NONE', #421, #84, #543, .T. ) ;
#605 = CARTESIAN_POINT ( 'NONE',  ( 7.221794902845450004, -3.752776749732555484, 6.500000000000000000 ) ) ;
#606 = CARTESIAN_POINT ( 'NONE',  ( 7.430510270226316827, -7.668089578475859369, 1.183515151487694476E-15 ) ) ;
#607 = CARTESIAN_POINT ( 'NONE',  ( 7.003311047312351434, 1.294979123752099337, 6.500000000000000000 ) ) ;
#608 = B_SPLINE_CURVE_WITH_KNOTS ( 'NONE', 3,
 ( #227, #758, #493, #167, #171, #102, #423, #418 ),
 .UNSPECIFIED., .F., .F.,
 ( 4, 2, 2, 4 ),
 ( 0.000000000000000000, 0.001939758518513006163, 0.003879517037026012326, 0.007759034074052024652 ),
 .UNSPECIFIED. ) ;
#609 = CARTESIAN_POINT ( 'NONE',  ( 7.430510270226315050, -3.834044789237932793, -6.640760373454795307 ) ) ;
#610 = DIRECTION ( 'NONE',  ( 0.000000000000000000, 0.000000000000000000, -1.000000000000000000 ) ) ;
#611 = CARTESIAN_POINT ( 'NONE',  ( 7.163365005558603116, -4.308448343747788734, -5.537548566845061693 ) ) ;
#612 = EDGE_CURVE ( 'NONE', #11, #568, #344, .T. ) ;
#613 = ADVANCED_FACE ( 'NONE', ( #552 ), #449, .F. ) ;
#614 = VERTEX_POINT ( 'NONE', #819 ) ;
#615 = CARTESIAN_POINT ( 'NONE',  ( 6.863298882720139105, 1.305048349639988503, 6.500000000000000000 ) ) ;
#616 = CIRCLE ( 'NONE', #666, 4.171999999999999709 ) ;
#617 = B_SPLINE_CURVE_WITH_KNOTS ( 'NONE', 3,
 ( #91, #600, #755, #813, #226, #484, #540, #104 ),
 .UNSPECIFIED., .F., .F.,
 ( 4, 2, 2, 4 ),
 ( 0.003797433802554460187, 0.004743183970586254371, 0.005688934138618048121, 0.007580434474681637357 ),
 .UNSPECIFIED. ) ;
#618 = ORIENTED_EDGE ( 'NONE', *, *, #354, .F. ) ;
#619 = FACE_OUTER_BOUND ( 'NONE', #239, .T. ) ;
#620 = PRODUCT_RELATED_PRODUCT_CATEGORY ( 'part', '', ( #676 ) ) ;
#621 = CARTESIAN_POINT ( 'NONE',  ( 7.250790455489157793, -3.672558726292410647, -6.638941692281113305 ) ) ;
#622 = CARTESIAN_POINT ( 'NONE',  ( 0.2573354458087838137, 6.889406814520513400, -1.067197363239225316 ) ) ;
#623 = CARTESIAN_POINT ( 'NONE',  ( 7.269155673949605934, 3.752776749732560368, 6.499999999999999112 ) ) ;
#624 = EDGE_LOOP ( 'NONE', ( #298 ) ) ;
#625 = ORIENTED_EDGE ( 'NONE', *, *, #39, .F. ) ;
#626 = CARTESIAN_POINT ( 'NONE',  ( 7.430510270226316827, -7.668089578475859369, 1.183515151487694476E-15 ) ) ;
#627 = FACE_BOUND ( 'NONE', #652, .T. ) ;
#628 = ORIENTED_EDGE ( 'NONE', *, *, #785, .T. ) ;
#629 = CIRCLE ( 'NONE', #602, 9.906515107494248795 ) ;
#630 = AXIS2_PLACEMENT_3D ( 'NONE', #771, #379, #498 ) ;
#631 =( GEOMETRIC_REPRESENTATION_CONTEXT ( 3 ) GLOBAL_UNCERTAINTY_ASSIGNED_CONTEXT ( ( #347 ) ) GLOBAL_UNIT_ASSIGNED_CONTEXT ( ( #4, #125, #61 ) ) REPRESENTATION_CONTEXT ( 'NONE', 'WORKASPACE' ) );
#632 = ORIENTED_EDGE ( 'NONE', *, *, #482, .F. ) ;
#633 = PLANE ( 'NONE',  #630 ) ;
#634 = CARTESIAN_POINT ( 'NONE',  ( 0.4033376246892502182, -4.059728990630809164, -5.968343123267133343 ) ) ;
#635 = CARTESIAN_POINT ( 'NONE',  ( 7.054022740708439265, -5.097443952515767762, -4.434202961723112679 ) ) ;
#636 = EDGE_CURVE ( 'NONE', #585, #585, #94, .T. ) ;
#637 = ORIENTED_EDGE ( 'NONE', *, *, #414, .T. ) ;
#638 = CARTESIAN_POINT ( 'NONE',  ( 7.218382701090440001, 4.467637213654263029, -5.533778924702364321 ) ) ;
#639 = CARTESIAN_POINT ( 'NONE',  ( 7.018829150757091462, 6.953947520888906553, -0.9554095806527826973 ) ) ;
#640 = ORIENTED_EDGE ( 'NONE', *, *, #496, .T. ) ;
#641 = APPLICATION_CONTEXT ( 'automotive_design' ) ;
#642 = CARTESIAN_POINT ( 'NONE',  ( 7.218382701090438225, -4.467637213654258588, 5.533778924702366098 ) ) ;
#643 = FACE_OUTER_BOUND ( 'NONE', #766, .T. ) ;
#644 = DIRECTION ( 'NONE',  ( -1.000000000000000000, 0.000000000000000000, -0.000000000000000000 ) ) ;
#645 = CONICAL_SURFACE ( 'NONE', #805, 9.906515107494248795, 1.221730476396037490 ) ;
#646 = ORIENTED_EDGE ( 'NONE', *, *, #604, .T. ) ;
#647 = CARTESIAN_POINT ( 'NONE',  ( 7.087313109477539008, -5.107973127425348814, 4.417897153122831710 ) ) ;
#648 = VECTOR ( 'NONE', #792, 1000.000000000000000 ) ;
#649 = EDGE_CURVE ( 'NONE', #84, #11, #789, .T. ) ;
#650 = CARTESIAN_POINT ( 'NONE',  ( 7.007440284498108518, 6.304722129684289911, -2.079900943784700473 ) ) ;
#651 = CARTESIAN_POINT ( 'NONE',  ( 0.06682554136337789941, 4.993536075455418555, -4.350941807883112133 ) ) ;
#652 = EDGE_LOOP ( 'NONE', ( #770, #122, #390, #304, #561, #803 ) ) ;
#653 = VERTEX_POINT ( 'NONE', #599 ) ;
#654 = CARTESIAN_POINT ( 'NONE',  ( 7.157534174277182082, 4.323917959431806679, -5.510754406504191572 ) ) ;
#655 = B_SPLINE_CURVE_WITH_KNOTS ( 'NONE', 3,
 ( #97, #798, #675, #592, #533, #27, #814, #680 ),
 .UNSPECIFIED., .F., .F.,
 ( 4, 2, 2, 4 ),
 ( 0.000000000000000000, 0.001939758518513010066, 0.003879517037026020999, 0.007759034074052043733 ),
 .UNSPECIFIED. ) ;
#656 = CARTESIAN_POINT ( 'NONE',  ( 0.2578475836320681114, 4.367703157927327773, -5.434916218090832807 ) ) ;
#657 = VERTEX_POINT ( 'NONE', #697 ) ;
#658 = CARTESIAN_POINT ( 'NONE',  ( 7.438946873539108218, 7.691166922076395629, -0.03961721525104037328 ) ) ;
#659 = CARTESIAN_POINT ( 'NONE',  ( 7.206697742414401198, 2.622994788959096990, -6.636079697716676051 ) ) ;
#660 = CARTESIAN_POINT ( 'NONE',  ( 0.01372220897661646961, 5.948365447239580384, 2.697128823393880381 ) ) ;
#661 = ORIENTED_EDGE ( 'NONE', *, *, #26, .T. ) ;
#662 = CARTESIAN_POINT ( 'NONE',  ( 7.396099516199863722, 7.573045135242755244, -0.1168989422527617339 ) ) ;
#663 = CARTESIAN_POINT ( 'NONE',  ( 7.007422909664679622, 1.350955386047621998, -6.499999999999999112 ) ) ;
#664 = B_SPLINE_CURVE_WITH_KNOTS ( 'NONE', 3,
 ( #55, #702, #834, #6, #127, #254 ),
 .UNSPECIFIED., .F., .F.,
 ( 4, 2, 4 ),
 ( 0.006874058788776907236, 0.008773169699270538108, 0.01067228060976417071 ),
 .UNSPECIFIED. ) ;
#665 = CARTESIAN_POINT ( 'NONE',  ( 7.221794902845450004, -3.752776749732555484, 6.500000000000000000 ) ) ;
#666 = AXIS2_PLACEMENT_3D ( 'NONE', #92, #154, #343 ) ;
#667 = ORIENTED_EDGE ( 'NONE', *, *, #175, .F. ) ;
#668 = CARTESIAN_POINT ( 'NONE',  ( 7.018829150757813551, 4.304382728307597716, 5.544590419349288979 ) ) ;
#669 = CARTESIAN_POINT ( 'NONE',  ( 7.157534174281932060, -4.323917959433127400, 5.510754406502843317 ) ) ;
#670 = CARTESIAN_POINT ( 'NONE',  ( 7.387245605886987754, -3.791990660029195936, -6.567920484997195274 ) ) ;
#671 = EDGE_CURVE ( 'NONE', #203, #584, #209, .T. ) ;
#672 = ORIENTED_EDGE ( 'NONE', *, *, #39, .T. ) ;
#673 = CARTESIAN_POINT ( 'NONE',  ( 7.055307086255390381, 5.069464470148803414, 4.482736897577261459 ) ) ;
#674 = CARTESIAN_POINT ( 'NONE',  ( 7.055307086255377058, -6.416896266859875020, 2.148916565939761547 ) ) ;
#675 = CARTESIAN_POINT ( 'NONE',  ( 7.218382701090440001, -2.558574520892056725, -6.635976784268502016 ) ) ;
#676 = PRODUCT ( 'ISO 4162 - M10 x 20 x 20-N_ISO 4162 - M10 x 20 x 20-N', 'ISO 4162 - M10 x 20 x 20-N_ISO 4162 - M10 x 20 x 20-N', '', ( #270 ) ) ;
#677 = DIRECTION ( 'NONE',  ( -1.000000000000000000, -0.000000000000000000, -0.000000000000000000 ) ) ;
#678 = DIRECTION ( 'NONE',  ( -1.000000000000000000, -0.000000000000000000, -0.000000000000000000 ) ) ;
#679 = AXIS2_PLACEMENT_3D ( 'NONE', #693, #107, #538 ) ;
#680 = CARTESIAN_POINT ( 'NONE',  ( 7.430510270226312386, 3.834044789237919915, -6.640760373454794419 ) ) ;
#681 = CARTESIAN_POINT ( 'NONE',  ( 9.699999999999997513, 0.000000000000000000, 0.000000000000000000 ) ) ;
#682 = EDGE_CURVE ( 'NONE', #521, #309, #408, .T. ) ;
#683 = CARTESIAN_POINT ( 'NONE',  ( 7.430510270226311498, -3.834044789237914141, 6.640760373454795307 ) ) ;
#684 = EDGE_CURVE ( 'NONE', #521, #754, #120, .T. ) ;
#685 = B_SPLINE_CURVE_WITH_KNOTS ( 'NONE', 3,
 ( #413, #557, #831, #750, #242, #433 ),
 .UNSPECIFIED., .F., .F.,
 ( 4, 2, 4 ),
 ( 2.380733003139562229E-07, 0.001898835937927374849, 0.003797433802554435467 ),
 .UNSPECIFIED. ) ;
#686 = CARTESIAN_POINT ( 'NONE',  ( 0.000000000000000000, 0.000000000000000000, 0.000000000000000000 ) ) ;
#687 = CARTESIAN_POINT ( 'NONE',  ( 6.999298889343632091, -2.501851166488387790, -6.500000000000001776 ) ) ;
#688 = DIRECTION ( 'NONE',  ( -1.000000000000000000, -0.000000000000000000, -0.000000000000000000 ) ) ;
#689 = APPLICATION_CONTEXT ( 'automotive_design' ) ;
#690 = AXIS2_PLACEMENT_3D ( 'NONE', #549, #350, #158 ) ;
#691 = CARTESIAN_POINT ( 'NONE',  ( 7.314461986807047289, -7.524385979889361309, 2.581047250795055736E-16 ) ) ;
#692 = EDGE_CURVE ( 'NONE', #325, #138, #43, .T. ) ;
#693 = CARTESIAN_POINT ( 'NONE',  ( 9.699999999999999289, 0.000000000000000000, 0.000000000000000000 ) ) ;
#694 = DIRECTION ( 'NONE',  ( 1.000000000000000000, 0.000000000000000000, 0.000000000000000000 ) ) ;
#695 = CARTESIAN_POINT ( 'NONE',  ( 0.4053525175236804001, 3.145852061456242854, -6.500000000000000000 ) ) ;
#696 = ORIENTED_EDGE ( 'NONE', *, *, #765, .F. ) ;
#697 = CARTESIAN_POINT ( 'NONE',  ( 7.430510270226312386, 3.834044789237919915, -6.640760373454794419 ) ) ;
#698 = EDGE_CURVE ( 'NONE', #286, #573, #664, .T. ) ;
#699 = CARTESIAN_POINT ( 'NONE',  ( 7.221794902845452668, -3.752776749732574135, -6.500000000000000000 ) ) ;
#700 = CARTESIAN_POINT ( 'NONE',  ( 0.000000000000000000, 0.000000000000000000, 6.500000000000000000 ) ) ;
#701 = EDGE_LOOP ( 'NONE', ( #351, #544, #356 ) ) ;
#702 = CARTESIAN_POINT ( 'NONE',  ( 0.4042117618287660585, -3.141900367811073735, 6.500000000000001776 ) ) ;
#703 = CARTESIAN_POINT ( 'NONE',  ( 7.218382701090440889, 7.026211734546321530, 1.102197859566136584 ) ) ;
#704 = EDGE_LOOP ( 'NONE', ( #661 ) ) ;
#705 = CONICAL_SURFACE ( 'NONE', #759, 6.500000000000000000, 1.047197551196600296 ) ;
#706 = B_SPLINE_CURVE_WITH_KNOTS ( 'NONE', 3,
 ( #507, #186, #703, #311, #772, #128, #447, #779 ),
 .UNSPECIFIED., .F., .F.,
 ( 4, 2, 2, 4 ),
 ( 0.000000000000000000, 0.001939758518513011584, 0.003879517037026023168, 0.007759034074052049805 ),
 .UNSPECIFIED. ) ;
#707 = ORIENTED_EDGE ( 'NONE', *, *, #576, .F. ) ;
#708 = CARTESIAN_POINT ( 'NONE',  ( 7.054022740708438377, -6.388854386646293015, 2.197414476384450754 ) ) ;
#709 = CARTESIAN_POINT ( 'NONE',  ( 0.000000000000000000, -5.629165124598850767, -3.250000000000000444 ) ) ;
#710 = SURFACE_STYLE_USAGE ( .BOTH. , #183 ) ;
#711 = EDGE_CURVE ( 'NONE', #657, #833, #307, .T. ) ;
#712 =( BOUNDED_SURFACE ( )  B_SPLINE_SURFACE ( 3, 2, ( 
 ( #318, #516, #725 ),
 ( #639, #238, #10 ),
 ( #571, #650, #56 ),
 ( #428, #511, #60 ),
 ( #376, #654, #193 ),
 ( #308, #73, #176 ) ),
 .UNSPECIFIED., .F., .F., .T. ) 
 B_SPLINE_SURFACE_WITH_KNOTS ( ( 4, 2, 4 ),
 ( 3, 3 ),
 ( 0.03378808774327293069, 0.03761845727077248180, 0.04144882679827203292 ),
 ( 0.000000000000000000, 1.000000000000000000 ),
 .UNSPECIFIED. ) 
 GEOMETRIC_REPRESENTATION_ITEM ( )  RATIONAL_B_SPLINE_SURFACE ( (
 ( 1.000000000000000000, 0.8047782697668314222, 1.000000000000000000),
 ( 1.000000000000000000, 0.8123729076546778449, 1.000000000000000000),
 ( 1.000000000000000000, 0.8190643126448881040, 1.000000000000000000),
 ( 1.000000000000000000, 0.8192379524374392430, 1.000000000000000000),
 ( 1.000000000000000000, 0.8126148761537521636, 1.000000000000000000),
 ( 1.000000000000000000, 0.8047711916451726344, 1.000000000000000000) ) ) 
 REPRESENTATION_ITEM ( '' )  SURFACE ( )  );
#713 = EDGE_LOOP ( 'NONE', ( #696, #177, #148, #369, #295 ) ) ;
#714 = CARTESIAN_POINT ( 'NONE',  ( 7.269153674877131266, 3.752776749732557704, -6.500000000000005329 ) ) ;
#715 = DIRECTION ( 'NONE',  ( 0.000000000000000000, -0.8660254037844380415, -0.5000000000000012212 ) ) ;
#716 = CARTESIAN_POINT ( 'NONE',  ( 7.198009690730578392, -4.464362862046657554, -5.539234801098173122 ) ) ;
#717 = ORIENTED_EDGE ( 'NONE', *, *, #70, .T. ) ;
#718 = DIRECTION ( 'NONE',  ( -1.000000000000000000, -0.000000000000000000, -0.000000000000000000 ) ) ;
#719 = DIRECTION ( 'NONE',  ( 0.000000000000000000, 0.8660254037844375974, -0.5000000000000019984 ) ) ;
#720 = DIRECTION ( 'NONE',  ( -1.000000000000000000, 0.000000000000000000, -0.000000000000000000 ) ) ;
#721 = AXIS2_PLACEMENT_3D ( 'NONE', #749, #349, #610 ) ;
#722 = COLOUR_RGB ( '',0.7921568627450980005, 0.8196078431372548767, 0.9333333333333333481 ) ;
#723 = EDGE_LOOP ( 'NONE', ( #48, #110, #71, #207, #178, #491 ) ) ;
#724 = CARTESIAN_POINT ( 'NONE',  ( 7.052879593076074372, -5.428317535961515006, 3.861048972695872550 ) ) ;
#725 = CARTESIAN_POINT ( 'NONE',  ( 7.438728979646342054, 7.690573436514823058, 0.03859838217436130370 ) ) ;
#726 = CARTESIAN_POINT ( 'NONE',  ( 7.387250901308428652, 7.583987170959598068, -8.361093647411629120E-16 ) ) ;
#727 = ORIENTED_EDGE ( 'NONE', *, *, #53, .T. ) ;
#728 =( NAMED_UNIT ( * ) PLANE_ANGLE_UNIT ( ) SI_UNIT ( $, .RADIAN. ) );
#729 = CARTESIAN_POINT ( 'NONE',  ( 7.051266827946230720, -1.292300371041735341, -6.631540134537617703 ) ) ;
#730 = CARTESIAN_POINT ( 'NONE',  ( 7.430510270226311498, -3.834044789237914141, 6.640760373454795307 ) ) ;
#731 = EDGE_LOOP ( 'NONE', ( #786, #62, #426, #555 ) ) ;
#732 = CARTESIAN_POINT ( 'NONE',  ( 7.430510270226316827, 7.668089578475858481, -1.196630429611302695E-16 ) ) ;
#733 = CARTESIAN_POINT ( 'NONE',  ( 7.200805508451000314, -2.591394936397593440, -6.635957223030193752 ) ) ;
#734 = CARTESIAN_POINT ( 'NONE',  ( 7.314465908138448214, -3.762193837935731811, 6.516310875227261157 ) ) ;
#735 = ADVANCED_FACE ( 'NONE', ( #556 ), #312, .T. ) ;
#736 = ORIENTED_EDGE ( 'NONE', *, *, #306, .F. ) ;
#737 = LINE ( 'NONE', #384, #648 ) ;
#738 = AXIS2_PLACEMENT_3D ( 'NONE', #747, #137, #459 ) ;
#739 = AXIS2_PLACEMENT_3D ( 'NONE', #826, #410, #46 ) ;
#740 = FACE_OUTER_BOUND ( 'NONE', #558, .T. ) ;
#741 = CARTESIAN_POINT ( 'NONE',  ( 0.2578475836320706094, 6.890627091270371096, 1.065083781909174299 ) ) ;
#742 = ORIENTED_EDGE ( 'NONE', *, *, #765, .T. ) ;
#743 = CARTESIAN_POINT ( 'NONE',  ( 7.438946502267008043, -3.879890967052198381, -6.640937323875013121 ) ) ;
#744 = CARTESIAN_POINT ( 'NONE',  ( 0.5805565836007603453, 3.752776749732561701, 6.500000000000000000 ) ) ;
#745 = CARTESIAN_POINT ( 'NONE',  ( 0.5805565836007603453, 3.752776749732561701, 6.500000000000000000 ) ) ;
#746 = CARTESIAN_POINT ( 'NONE',  ( 7.055289965574850441, 1.347274734588362000, -6.631652983301091098 ) ) ;
#747 = CARTESIAN_POINT ( 'NONE',  ( 0.000000000000000000, 0.000000000000000000, 0.000000000000000000 ) ) ;
#748 = ADVANCED_FACE ( 'NONE', ( #374, #445 ), #117, .T. ) ;
#749 = CARTESIAN_POINT ( 'NONE',  ( 0.000000000000000000, 0.000000000000000000, 0.000000000000000000 ) ) ;
#750 = CARTESIAN_POINT ( 'NONE',  ( 0.05533025579362033097, 4.993776679985852063, 4.350525068611871937 ) ) ;
#751 = VECTOR ( 'NONE', #394, 1000.000000000000000 ) ;
#752 = CARTESIAN_POINT ( 'NONE',  ( 7.438728706482096165, -3.878712419439441561, 6.640932768891041782 ) ) ;
#753 = CARTESIAN_POINT ( 'NONE',  ( 7.221794902845450004, 3.752776749732560813, -6.499999999999999112 ) ) ;
#754 = VERTEX_POINT ( 'NONE', #241 ) ;
#755 = CARTESIAN_POINT ( 'NONE',  ( 0.01372220897661535245, -5.309964801958109604, 3.802871176606132941 ) ) ;
#756 = CARTESIAN_POINT ( 'NONE',  ( 6.867368561558238049, -4.948500118066688103, -4.428946374247920481 ) ) ;
#757 = CARTESIAN_POINT ( 'NONE',  ( 6.999298889343628538, 2.501851166488378464, 6.500000000000001776 ) ) ;
#758 = CARTESIAN_POINT ( 'NONE',  ( 7.313992842541620298, 3.198032530007327345, 6.638309092104311304 ) ) ;
#759 = AXIS2_PLACEMENT_3D ( 'NONE', #149, #140, #392 ) ;
#760 = CARTESIAN_POINT ( 'NONE',  ( 7.221794902845453556, -7.505553499465142053, 0.000000000000000000 ) ) ;
#761 = VERTEX_POINT ( 'NONE', #366 ) ;
#762 = CARTESIAN_POINT ( 'NONE',  ( 7.055320659140068784, -1.347527396941897271, 6.631653844226469197 ) ) ;
#763 = CARTESIAN_POINT ( 'NONE',  ( 0.2565376335216140724, -2.516992571280033175, -6.499999999999999112 ) ) ;
#764 = CARTESIAN_POINT ( 'NONE',  ( 0.2595206531158505969, 2.531175536751802735, -6.499999999999999112 ) ) ;
#765 = EDGE_CURVE ( 'NONE', #761, #113, #63, .T. ) ;
#766 = EDGE_LOOP ( 'NONE', ( #89, #336, #440, #436, #824 ) ) ;
#767 = CARTESIAN_POINT ( 'NONE',  ( 7.430510270226312386, 3.834044789237919915, -6.640760373454794419 ) ) ;
#768 = DIRECTION ( 'NONE',  ( 0.000000000000000000, -1.000000000000000000, -1.155626614413199577E-16 ) ) ;
#769 = CARTESIAN_POINT ( 'NONE',  ( 8.245230534410570300, 0.000000000000000000, 0.000000000000000000 ) ) ;
#770 = ORIENTED_EDGE ( 'NONE', *, *, #272, .T. ) ;
#771 = CARTESIAN_POINT ( 'NONE',  ( 0.000000000000000000, 7.505553499465140277, 2.749426538070113249E-16 ) ) ;
#772 = CARTESIAN_POINT ( 'NONE',  ( 7.052879593076075260, 6.057925263591193321, 2.770536399603287681 ) ) ;
#773 = EDGE_CURVE ( 'NONE', #421, #754, #481, .T. ) ;
#774 = ADVANCED_FACE ( 'NONE', ( #185 ), #633, .F. ) ;
#775 = FILL_AREA_STYLE_COLOUR ( '', #722 ) ;
#776 = VECTOR ( 'NONE', #820, 1000.000000000000000 ) ;
#777 = ORIENTED_EDGE ( 'NONE', *, *, #282, .T. ) ;
#778 = CARTESIAN_POINT ( 'NONE',  ( 7.387245605886986866, 3.791990660029181281, -6.567920484997195274 ) ) ;
#779 = CARTESIAN_POINT ( 'NONE',  ( 7.430510270226313274, 3.834044789237921247, 6.640760373454795307 ) ) ;
#780 = PLANE ( 'NONE',  #329 ) ;
#781 = ORIENTED_EDGE ( 'NONE', *, *, #69, .T. ) ;
#782 = CARTESIAN_POINT ( 'NONE',  ( 29.69999999999999574, 0.000000000000000000, 0.000000000000000000 ) ) ;
#783 = DIRECTION ( 'NONE',  ( 0.000000000000000000, 0.5000000000000011102, -0.8660254037844379305 ) ) ;
#784 = CARTESIAN_POINT ( 'NONE',  ( 0.5805565836007642311, -3.752776749732574135, -6.500000000000000000 ) ) ;
#785 = EDGE_CURVE ( 'NONE', #657, #614, #462, .T. ) ;
#786 = ORIENTED_EDGE ( 'NONE', *, *, #671, .T. ) ;
#787 = CARTESIAN_POINT ( 'NONE',  ( 7.430510270226311498, -3.834044789237914141, 6.640760373454795307 ) ) ;
#788 = CARTESIAN_POINT ( 'NONE',  ( 6.999298889343629426, 6.880090707843040221, -1.083333333333333037 ) ) ;
#789 = CIRCLE ( 'NONE', #407, 6.500000000000000888 ) ;
#790 = MECHANICAL_DESIGN_GEOMETRIC_PRESENTATION_REPRESENTATION (  '', ( #95 ), #631 ) ;
#791 = ORIENTED_EDGE ( 'NONE', *, *, #175, .T. ) ;
#792 = DIRECTION ( 'NONE',  ( -1.000000000000000000, -0.000000000000000000, -0.000000000000000000 ) ) ;
#793 = CARTESIAN_POINT ( 'NONE',  ( 7.250790455489157793, -7.585771522905301545, -0.1389416922811061716 ) ) ;
#794 = SURFACE_STYLE_FILL_AREA ( #190 ) ;
#795 = ORIENTED_EDGE ( 'NONE', *, *, #581, .F. ) ;
#796 =( BOUNDED_SURFACE ( )  B_SPLINE_SURFACE ( 3, 2, ( 
 ( #215, #152, #346 ),
 ( #13, #263, #659 ),
 ( #797, #663, #746 ),
 ( #405, #596, #729 ),
 ( #77, #388, #733 ),
 ( #397, #96, #743 ) ),
 .UNSPECIFIED., .F., .F., .T. ) 
 B_SPLINE_SURFACE_WITH_KNOTS ( ( 4, 2, 4 ),
 ( 3, 3 ),
 ( 0.03370609115121561694, 0.03753673849805867768, 0.04136738584490173842 ),
 ( 0.000000000000000000, 1.000000000000000000 ),
 .UNSPECIFIED. ) 
 GEOMETRIC_REPRESENTATION_ITEM ( )  RATIONAL_B_SPLINE_SURFACE ( (
 ( 1.000000000000000000, 0.8047782524023442408, 1.000000000000000000),
 ( 1.000000000000000000, 0.8123734413737757620, 1.000000000000000000),
 ( 1.000000000000000000, 0.8190650454452366169, 1.000000000000000000),
 ( 1.000000000000000000, 0.8192372498612308096, 1.000000000000000000),
 ( 1.000000000000000000, 0.8126145246037459469, 1.000000000000000000),
 ( 1.000000000000000000, 0.8047712037047967115, 1.000000000000000000) ) ) 
 REPRESENTATION_ITEM ( '' )  SURFACE ( )  );
#797 = CARTESIAN_POINT ( 'NONE',  ( 6.867351440878618263, 1.361171336884392069, -6.499999999999999112 ) ) ;
#798 = CARTESIAN_POINT ( 'NONE',  ( 7.313992842541622075, -3.198032530007337559, -6.638309092104312192 ) ) ;
#799 = EDGE_LOOP ( 'NONE', ( #399 ) ) ;
#800 = CARTESIAN_POINT ( 'NONE',  ( 7.003324241844174125, -4.981539077839034491, 4.371721217292514616 ) ) ;
#801 = ADVANCED_FACE ( 'NONE', ( #90, #139 ), #400, .T. ) ;
#802 = CARTESIAN_POINT ( 'NONE',  ( 7.430510270226315050, -3.834044789237932793, -6.640760373454795307 ) ) ;
#803 = ORIENTED_EDGE ( 'NONE', *, *, #126, .T. ) ;
#804 = SHAPE_DEFINITION_REPRESENTATION ( #404, #548 ) ;
#805 = AXIS2_PLACEMENT_3D ( 'NONE', #476, #694, #50 ) ;
#806 = CARTESIAN_POINT ( 'NONE',  ( 0.000000000000000000, 5.629165124598847214, 3.250000000000007550 ) ) ;
#807 = CARTESIAN_POINT ( 'NONE',  ( 7.314461986807046401, -3.762192989944684207, -6.516309406463645537 ) ) ;
#808 = CARTESIAN_POINT ( 'NONE',  ( 0.000000000000000000, 7.511572993685796142E-16, -6.499999999999999112 ) ) ;
#809 = FACE_OUTER_BOUND ( 'NONE', #731, .T. ) ;
#810 = CARTESIAN_POINT ( 'NONE',  ( 0.000000000000000000, -5.629165124598850767, -3.250000000000000444 ) ) ;
#811 = FACE_OUTER_BOUND ( 'NONE', #701, .T. ) ;
#812 = EDGE_LOOP ( 'NONE', ( #58 ) ) ;
#813 = CARTESIAN_POINT ( 'NONE',  ( 0.06682554136337720552, -4.993536075455413226, 4.350941807883112133 ) ) ;
#814 = CARTESIAN_POINT ( 'NONE',  ( 7.198009690730576615, 2.564936624254530617, -6.635869050793290924 ) ) ;
#815 = ADVANCED_FACE ( 'NONE', ( #809 ), #360, .F. ) ;
#816 = CARTESIAN_POINT ( 'NONE',  ( 9.699999999999999289, 3.752776749732560813, -6.499999999999999112 ) ) ;
#817 = AXIS2_PLACEMENT_3D ( 'NONE', #323, #715, #783 ) ;
#818 = CARTESIAN_POINT ( 'NONE',  ( 7.055307086255325544, -5.069464470148647983, -4.482736897577171753 ) ) ;
#819 = CARTESIAN_POINT ( 'NONE',  ( 7.221794902845450004, 3.752776749732560813, -6.499999999999999112 ) ) ;
#820 = DIRECTION ( 'NONE',  ( -1.000000000000000000, -0.000000000000000000, -0.000000000000000000 ) ) ;
#821 = CARTESIAN_POINT ( 'NONE',  ( 7.438947144192968430, 3.879894440283604418, 6.640937337299222420 ) ) ;
#822 = CARTESIAN_POINT ( 'NONE',  ( 6.731338960781602765, -5.204170427930421283E-15, -6.500000000000000000 ) ) ;
#823 = DIRECTION ( 'NONE',  ( 0.000000000000000000, 0.000000000000000000, 1.000000000000000000 ) ) ;
#824 = ORIENTED_EDGE ( 'NONE', *, *, #15, .F. ) ;
#825 = CARTESIAN_POINT ( 'NONE',  ( 7.007454058889261539, -1.351210769228049724, 6.500000000000000000 ) ) ;
#826 = CARTESIAN_POINT ( 'NONE',  ( 28.87199999999998923, 0.000000000000000000, 0.000000000000000000 ) ) ;
#827 = CIRCLE ( 'NONE', #355, 6.500000000000000888 ) ;
#828 = CARTESIAN_POINT ( 'NONE',  ( 0.05613245601076817526, 1.278525034532177473, 6.500000000000000888 ) ) ;
#829 = EDGE_LOOP ( 'NONE', ( #80 ) ) ;
#830 = CARTESIAN_POINT ( 'NONE',  ( -9.910285482875310023E-16, -5.788408252967905732, -2.974182810908594821 ) ) ;
#831 = CARTESIAN_POINT ( 'NONE',  ( 0.2573354458087813157, 4.368923434677186357, 5.432802636760778903 ) ) ;
#832 = EDGE_CURVE ( 'NONE', #614, #240, #737, .T. ) ;
#833 = VERTEX_POINT ( 'NONE', #732 ) ;
#834 = CARTESIAN_POINT ( 'NONE',  ( 0.2565376335220195814, -2.516992571281975621, 6.500000000000002665 ) ) ;
#835 = CARTESIAN_POINT ( 'NONE',  ( 7.430510270226316827, -7.668089578475859369, 1.183515151487694476E-15 ) ) ;
ENDSEC;
END-ISO-10303-21;
