ISO-10303-21;
HEADER;
FILE_DESCRIPTION (( 'STEP AP214' ),
    '1' );
FILE_NAME ('ISO 1234-4x18-F.STEP',
    '2025-08-04T11:00:08',
    ( '' ),
    ( '' ),
    'SwSTEP 2.0',
    'SolidWorks 2025',
    '' );
FILE_SCHEMA (( 'AUTOMOTIVE_DESIGN' ));
ENDSEC;

DATA;
#1 = DIRECTION ( 'NONE',  ( -1.000000000000000000, -1.448841047135829285E-14, 0.000000000000000000 ) ) ;
#2 = AXIS2_PLACEMENT_3D ( 'NONE', #47, #70, #144 ) ;
#3 = CARTESIAN_POINT ( 'NONE',  ( -4.299999999999999822, 0.000000000000000000, -1.849998918918603241 ) ) ;
#4 = SHAPE_DEFINITION_REPRESENTATION ( #100, #17 ) ;
#5 = SURFACE_SIDE_STYLE ('',( #256 ) ) ;
#6 = ADVANCED_FACE ( 'NONE', ( #299 ), #296, .T. ) ;
#7 = LINE ( 'NONE', #176, #167 ) ;
#8 = EDGE_CURVE ( 'NONE', #317, #262, #280, .T. ) ;
#9 = ADVANCED_FACE ( 'NONE', ( #165 ), #93, .T. ) ;
#10 = CARTESIAN_POINT ( 'NONE',  ( -4.299999999999999822, 0.000000000000000000, 0.000000000000000000 ) ) ;
#11 = TOROIDAL_SURFACE ( 'NONE', #103, 1.850000000000000533, 1.850000000000000089 ) ;
#12 = ORIENTED_EDGE ( 'NONE', *, *, #173, .T. ) ;
#13 = EDGE_LOOP ( 'NONE', ( #219, #236, #187, #270 ) ) ;
#14 = ORIENTED_EDGE ( 'NONE', *, *, #178, .T. ) ;
#15 = ORIENTED_EDGE ( 'NONE', *, *, #253, .F. ) ;
#16 = EDGE_LOOP ( 'NONE', ( #313, #15, #12, #240 ) ) ;
#17 = ADVANCED_BREP_SHAPE_REPRESENTATION ( 'ISO 1234-4x18-F_ISO 1234-4x18-F', ( #126, #257 ), #202 ) ;
#18 = ADVANCED_FACE ( 'NONE', ( #95 ), #112, .T. ) ;
#19 = FACE_OUTER_BOUND ( 'NONE', #16, .T. ) ;
#20 = CARTESIAN_POINT ( 'NONE',  ( -2.955319110096957136, -1.273474500855656499, 1.849998918918603241 ) ) ;
#21 = AXIS2_PLACEMENT_3D ( 'NONE', #197, #46, #65 ) ;
#22 = CARTESIAN_POINT ( 'NONE',  ( 8.294400438429635977E-29, 4.072297297297295060, 0.000000000000000000 ) ) ;
#23 = EDGE_CURVE ( 'NONE', #262, #317, #218, .T. ) ;
#24 = DIRECTION ( 'NONE',  ( -0.000000000000000000, -0.000000000000000000, -1.000000000000000000 ) ) ;
#25 = DIRECTION ( 'NONE',  ( 1.000000000000000000, -0.000000000000000000, -0.000000000000000000 ) ) ;
#26 = DIRECTION ( 'NONE',  ( -0.000000000000000000, -0.000000000000000000, -1.000000000000000000 ) ) ;
#27 = CIRCLE ( 'NONE', #2, 1.850000000000000089 ) ;
#28 = CARTESIAN_POINT ( 'NONE',  ( 2.688821387764050996E-14, 0.000000000000000000, 0.000000000000000000 ) ) ;
#29 = EDGE_CURVE ( 'NONE', #39, #133, #244, .T. ) ;
#30 =( NAMED_UNIT ( * ) PLANE_ANGLE_UNIT ( ) SI_UNIT ( $, .RADIAN. ) );
#31 = CARTESIAN_POINT ( 'NONE',  ( 0.000000000000000000, 0.001999999999999999608, 1.849998918918603241 ) ) ;
#32 = AXIS2_PLACEMENT_3D ( 'NONE', #192, #64, #113 ) ;
#33 = LINE ( 'NONE', #152, #263 ) ;
#34 = PLANE ( 'NONE',  #83 ) ;
#35 = CARTESIAN_POINT ( 'NONE',  ( -2.955319110096975788, 1.273474500855676039, 1.849998918918603241 ) ) ;
#36 = VECTOR ( 'NONE', #154, 1000.000000000000000 ) ;
#37 = ORIENTED_EDGE ( 'NONE', *, *, #102, .T. ) ;
#38 = ORIENTED_EDGE ( 'NONE', *, *, #225, .F. ) ;
#39 = VERTEX_POINT ( 'NONE', #164 ) ;
#40 = STYLED_ITEM ( 'NONE', ( #146 ), #126 ) ;
#41 = CARTESIAN_POINT ( 'NONE',  ( 8.294400438429635977E-29, 4.072297297297295060, -1.849998918918603241 ) ) ;
#42 = ORIENTED_EDGE ( 'NONE', *, *, #265, .T. ) ;
#43 = DIRECTION ( 'NONE',  ( 0.000000000000000000, 0.000000000000000000, -1.000000000000000000 ) ) ;
#44 = DIRECTION ( 'NONE',  ( 0.000000000000000000, 0.000000000000000000, -1.000000000000000000 ) ) ;
#45 = CIRCLE ( 'NONE', #203, 1.850000000000000089 ) ;
#46 = DIRECTION ( 'NONE',  ( -0.000000000000000000, -0.000000000000000000, -1.000000000000000000 ) ) ;
#47 = CARTESIAN_POINT ( 'NONE',  ( 18.00000000000000000, 0.000000000000000000, 0.000000000000000000 ) ) ;
#48 = EDGE_CURVE ( 'NONE', #182, #161, #169, .T. ) ;
#49 = DIRECTION ( 'NONE',  ( 0.000000000000000000, 0.000000000000000000, 1.000000000000000000 ) ) ;
#50 = CARTESIAN_POINT ( 'NONE',  ( 22.00000000000002487, 0.000000000000000000, 0.000000000000000000 ) ) ;
#51 = PRODUCT_DEFINITION_CONTEXT ( 'detailed design', #174, 'design' ) ;
#52 = FILL_AREA_STYLE_COLOUR ( '', #290 ) ;
#53 = DIRECTION ( 'NONE',  ( 0.000000000000000000, 0.000000000000000000, -1.000000000000000000 ) ) ;
#54 =( LENGTH_UNIT ( ) NAMED_UNIT ( * ) SI_UNIT ( .MILLI., .METRE. ) );
#55 = DIRECTION ( 'NONE',  ( 1.000000000000000000, 0.000000000000000000, 0.000000000000000000 ) ) ;
#56 = ORIENTED_EDGE ( 'NONE', *, *, #178, .F. ) ;
#57 = ORIENTED_EDGE ( 'NONE', *, *, #253, .T. ) ;
#58 = VECTOR ( 'NONE', #44, 1000.000000000000000 ) ;
#59 = EDGE_CURVE ( 'NONE', #266, #252, #304, .T. ) ;
#60 = ORIENTED_EDGE ( 'NONE', *, *, #107, .F. ) ;
#61 = ORIENTED_EDGE ( 'NONE', *, *, #204, .T. ) ;
#62 = FACE_OUTER_BOUND ( 'NONE', #292, .T. ) ;
#63 = PRODUCT_DEFINITION_FORMATION_WITH_SPECIFIED_SOURCE ( 'Symmetric', '', #213, .NOT_KNOWN. ) ;
#64 = DIRECTION ( 'NONE',  ( -0.000000000000000000, -0.000000000000000000, -1.000000000000000000 ) ) ;
#65 = DIRECTION ( 'NONE',  ( -1.000000000000000000, 0.000000000000000000, 0.000000000000000000 ) ) ;
#66 = DIRECTION ( 'NONE',  ( 1.000000000000000000, -0.000000000000000000, -0.000000000000000000 ) ) ;
#67 = VERTEX_POINT ( 'NONE', #89 ) ;
#68 = EDGE_CURVE ( 'NONE', #84, #159, #27, .T. ) ;
#69 =( NAMED_UNIT ( * ) PLANE_ANGLE_UNIT ( ) SI_UNIT ( $, .RADIAN. ) );
#70 = DIRECTION ( 'NONE',  ( 1.000000000000000000, 0.000000000000000000, 0.000000000000000000 ) ) ;
#71 = VECTOR ( 'NONE', #66, 1000.000000000000000 ) ;
#72 = CARTESIAN_POINT ( 'NONE',  ( 22.00000000000002487, 0.000000000000000000, 0.000000000000000000 ) ) ;
#73 =( NAMED_UNIT ( * ) SI_UNIT ( $, .STERADIAN. ) SOLID_ANGLE_UNIT ( ) );
#74 = CIRCLE ( 'NONE', #315, 1.850000000000000089 ) ;
#75 = CARTESIAN_POINT ( 'NONE',  ( -4.299999999999999822, 0.000000000000000000, 0.000000000000000000 ) ) ;
#76 = CARTESIAN_POINT ( 'NONE',  ( 18.00000000000000000, 0.000000000000000000, 0.000000000000000000 ) ) ;
#77 = CARTESIAN_POINT ( 'NONE',  ( 22.00000000000002487, -0.002000000000000482295, 1.849998918918603241 ) ) ;
#78 = CARTESIAN_POINT ( 'NONE',  ( -2.956771249286936243, 1.272099258414147283, 0.000000000000000000 ) ) ;
#79 = AXIS2_PLACEMENT_3D ( 'NONE', #249, #26, #116 ) ;
#80 = CARTESIAN_POINT ( 'NONE',  ( 0.000000000000000000, 0.001999999999999999608, -1.849998918918603241 ) ) ;
#81 = ORIENTED_EDGE ( 'NONE', *, *, #102, .F. ) ;
#82 = ORIENTED_EDGE ( 'NONE', *, *, #180, .F. ) ;
#83 = AXIS2_PLACEMENT_3D ( 'NONE', #123, #228, #101 ) ;
#84 = VERTEX_POINT ( 'NONE', #323 ) ;
#85 = EDGE_CURVE ( 'NONE', #177, #182, #221, .T. ) ;
#86 = EDGE_LOOP ( 'NONE', ( #289, #293, #135, #82 ) ) ;
#87 = ORIENTED_EDGE ( 'NONE', *, *, #301, .T. ) ;
#88 = DIRECTION ( 'NONE',  ( 1.000000000000000000, 0.000000000000000000, 0.000000000000000000 ) ) ;
#89 = CARTESIAN_POINT ( 'NONE',  ( 0.000000000000000000, 0.001999999999999999608, -1.849998918918603241 ) ) ;
#90 = CLOSED_SHELL ( 'NONE', ( #183, #9, #122, #114, #163, #231, #18, #247, #6, #309, #168, #131 ) ) ;
#91 = VECTOR ( 'NONE', #277, 1000.000000000000000 ) ;
#92 = PLANE ( 'NONE',  #306 ) ;
#93 = CYLINDRICAL_SURFACE ( 'NONE', #201, 1.850000000000000089 ) ;
#94 = DIRECTION ( 'NONE',  ( -1.000000000000000000, -1.448841047135829285E-14, 0.000000000000000000 ) ) ;
#95 = FACE_OUTER_BOUND ( 'NONE', #13, .T. ) ;
#96 = DIRECTION ( 'NONE',  ( 0.000000000000000000, 0.000000000000000000, 1.000000000000000000 ) ) ;
#97 = CARTESIAN_POINT ( 'NONE',  ( 0.000000000000000000, 0.000000000000000000, 0.000000000000000000 ) ) ;
#98 = SURFACE_STYLE_USAGE ( .BOTH. , #5 ) ;
#99 = CARTESIAN_POINT ( 'NONE',  ( 0.000000000000000000, -4.072297297297295060, 0.000000000000000000 ) ) ;
#100 = PRODUCT_DEFINITION_SHAPE ( 'NONE', 'NONE',  #206 ) ;
#101 = DIRECTION ( 'NONE',  ( 0.000000000000000000, -0.000000000000000000, -1.000000000000000000 ) ) ;
#102 = EDGE_CURVE ( 'NONE', #266, #262, #245, .T. ) ;
#103 = AXIS2_PLACEMENT_3D ( 'NONE', #10, #269, #55 ) ;
#104 = DIRECTION ( 'NONE',  ( -1.000000000000000000, 0.000000000000000000, 0.000000000000000000 ) ) ;
#105 = ORIENTED_EDGE ( 'NONE', *, *, #301, .F. ) ;
#106 = ORIENTED_EDGE ( 'NONE', *, *, #85, .F. ) ;
#107 = EDGE_CURVE ( 'NONE', #161, #252, #117, .T. ) ;
#108 = ORIENTED_EDGE ( 'NONE', *, *, #68, .F. ) ;
#109 = FACE_OUTER_BOUND ( 'NONE', #238, .T. ) ;
#110 = EDGE_LOOP ( 'NONE', ( #210, #233, #14, #38 ) ) ;
#111 = CARTESIAN_POINT ( 'NONE',  ( 2.688821387764050996E-14, -0.002000000000000482295, -1.849998918918603241 ) ) ;
#112 = CYLINDRICAL_SURFACE ( 'NONE', #21, 4.070297297297295280 ) ;
#113 = DIRECTION ( 'NONE',  ( -1.000000000000000000, 0.000000000000000000, 0.000000000000000000 ) ) ;
#114 = ADVANCED_FACE ( 'NONE', ( #142 ), #151, .T. ) ;
#115 = EDGE_LOOP ( 'NONE', ( #108, #184, #267, #57 ) ) ;
#116 = DIRECTION ( 'NONE',  ( -1.000000000000000000, 0.000000000000000000, 0.000000000000000000 ) ) ;
#117 = CIRCLE ( 'NONE', #258, 1.852000000000000313 ) ;
#118 = EDGE_LOOP ( 'NONE', ( #300, #37, #314, #105 ) ) ;
#119 = CARTESIAN_POINT ( 'NONE',  ( 22.00000000000002487, -0.002000000000000482295, 1.849998918918603241 ) ) ;
#120 = TOROIDAL_SURFACE ( 'NONE', #190, 4.072297297297295060, 1.850000000000000089 ) ;
#121 = AXIS2_PLACEMENT_3D ( 'NONE', #248, #25, #194 ) ;
#122 = ADVANCED_FACE ( 'NONE', ( #325 ), #199, .T. ) ;
#123 = CARTESIAN_POINT ( 'NONE',  ( 2.688821387764050996E-14, -0.002000000000000482295, 1.849998918918603241 ) ) ;
#124 = EDGE_CURVE ( 'NONE', #67, #177, #45, .T. ) ;
#125 = LINE ( 'NONE', #162, #36 ) ;
#126 = MANIFOLD_SOLID_BREP ( 'Body', #90 ) ;
#127 = VECTOR ( 'NONE', #318, 1000.000000000000000 ) ;
#128 = DIRECTION ( 'NONE',  ( 0.000000000000000000, -1.000000000000000000, -0.000000000000000000 ) ) ;
#129 = ORIENTED_EDGE ( 'NONE', *, *, #68, .T. ) ;
#130 = UNCERTAINTY_MEASURE_WITH_UNIT (LENGTH_MEASURE( 1.000000000000000082E-05 ), #195, 'distance_accuracy_value', 'NONE');
#131 = ADVANCED_FACE ( 'NONE', ( #308 ), #200, .T. ) ;
#132 = EDGE_LOOP ( 'NONE', ( #129, #42 ) ) ;
#133 = VERTEX_POINT ( 'NONE', #77 ) ;
#134 = CIRCLE ( 'NONE', #208, 1.850000000000000089 ) ;
#135 = ORIENTED_EDGE ( 'NONE', *, *, #29, .T. ) ;
#136 = DIRECTION ( 'NONE',  ( -0.000000000000000000, -0.000000000000000000, -1.000000000000000000 ) ) ;
#137 = ORIENTED_EDGE ( 'NONE', *, *, #48, .F. ) ;
#138 = DIRECTION ( 'NONE',  ( -1.000000000000000000, 0.000000000000000000, 0.000000000000000000 ) ) ;
#139 = ORIENTED_EDGE ( 'NONE', *, *, #59, .T. ) ;
#140 = LINE ( 'NONE', #261, #127 ) ;
#141 = APPLICATION_CONTEXT ( 'automotive_design' ) ;
#142 = FACE_OUTER_BOUND ( 'NONE', #234, .T. ) ;
#143 = AXIS2_PLACEMENT_3D ( 'NONE', #72, #94, #43 ) ;
#144 = DIRECTION ( 'NONE',  ( 0.000000000000000000, 0.000000000000000000, -1.000000000000000000 ) ) ;
#145 = AXIS2_PLACEMENT_3D ( 'NONE', #41, #136, #104 ) ;
#146 = PRESENTATION_STYLE_ASSIGNMENT (( #98 ) ) ;
#147 = DIRECTION ( 'NONE',  ( 1.000000000000000000, 0.000000000000000000, 0.000000000000000000 ) ) ;
#148 = DIRECTION ( 'NONE',  ( -0.000000000000000000, -0.000000000000000000, -1.000000000000000000 ) ) ;
#149 = LINE ( 'NONE', #119, #302 ) ;
#150 = ORIENTED_EDGE ( 'NONE', *, *, #204, .F. ) ;
#151 = TOROIDAL_SURFACE ( 'NONE', #237, 4.072297297297295060, 1.850000000000000089 ) ;
#152 = CARTESIAN_POINT ( 'NONE',  ( 2.688821387764050996E-14, -0.002000000000000482295, 1.849998918918603241 ) ) ;
#153 = DIRECTION ( 'NONE',  ( 0.6876212207644036845, -0.7260695949800344273, 0.000000000000000000 ) ) ;
#154 = DIRECTION ( 'NONE',  ( 0.000000000000000000, 0.000000000000000000, -1.000000000000000000 ) ) ;
#155 = ORIENTED_EDGE ( 'NONE', *, *, #298, .T. ) ;
#156 = CIRCLE ( 'NONE', #32, 4.070297297297295280 ) ;
#157 = VECTOR ( 'NONE', #191, 1000.000000000000000 ) ;
#158 = ORIENTED_EDGE ( 'NONE', *, *, #8, .T. ) ;
#159 = VERTEX_POINT ( 'NONE', #307 ) ;
#160 = AXIS2_PLACEMENT_3D ( 'NONE', #50, #282, #255 ) ;
#161 = VERTEX_POINT ( 'NONE', #283 ) ;
#162 = CARTESIAN_POINT ( 'NONE',  ( 18.00000000000000000, 0.001999999999999999608, 1.849998918918603241 ) ) ;
#163 = ADVANCED_FACE ( 'NONE', ( #179 ), #171, .F. ) ;
#164 = CARTESIAN_POINT ( 'NONE',  ( 22.00000000000002487, -0.002000000000000482295, -1.849998918918603241 ) ) ;
#165 = FACE_OUTER_BOUND ( 'NONE', #86, .T. ) ;
#166 = DIRECTION ( 'NONE',  ( 1.000000000000000000, 0.000000000000000000, 0.000000000000000000 ) ) ;
#167 = VECTOR ( 'NONE', #53, 1000.000000000000000 ) ;
#168 = ADVANCED_FACE ( 'NONE', ( #207 ), #284, .F. ) ;
#169 = LINE ( 'NONE', #319, #58 ) ;
#170 = DIRECTION ( 'NONE',  ( -1.000000000000000000, 0.000000000000000000, 0.000000000000000000 ) ) ;
#171 = CYLINDRICAL_SURFACE ( 'NONE', #230, 1.852000000000000313 ) ;
#172 = DIRECTION ( 'NONE',  ( 0.000000000000000000, 0.000000000000000000, 1.000000000000000000 ) ) ;
#173 = EDGE_CURVE ( 'NONE', #177, #67, #7, .T. ) ;
#174 = APPLICATION_CONTEXT ( 'automotive_design' ) ;
#175 = UNCERTAINTY_MEASURE_WITH_UNIT (LENGTH_MEASURE( 1.000000000000000082E-05 ), #54, 'distance_accuracy_value', 'NONE');
#176 = CARTESIAN_POINT ( 'NONE',  ( 0.000000000000000000, 0.001999999999999999608, 1.849998918918603241 ) ) ;
#177 = VERTEX_POINT ( 'NONE', #31 ) ;
#178 = EDGE_CURVE ( 'NONE', #133, #39, #149, .T. ) ;
#179 = FACE_OUTER_BOUND ( 'NONE', #264, .T. ) ;
#180 = EDGE_CURVE ( 'NONE', #262, #133, #33, .T. ) ;
#181 = DIRECTION ( 'NONE',  ( 1.000000000000000000, 0.000000000000000000, 0.000000000000000000 ) ) ;
#182 = VERTEX_POINT ( 'NONE', #35 ) ;
#183 = ADVANCED_FACE ( 'NONE', ( #259 ), #34, .F. ) ;
#184 = ORIENTED_EDGE ( 'NONE', *, *, #324, .F. ) ;
#185 = PRESENTATION_LAYER_ASSIGNMENT (  '', '', ( #40 ) ) ;
#186 = EDGE_LOOP ( 'NONE', ( #291, #56 ) ) ;
#187 = ORIENTED_EDGE ( 'NONE', *, *, #48, .T. ) ;
#188 = ORIENTED_EDGE ( 'NONE', *, *, #107, .T. ) ;
#189 = CARTESIAN_POINT ( 'NONE',  ( -2.955319110096957136, -1.273474500855656499, 1.849998918918603241 ) ) ;
#190 = AXIS2_PLACEMENT_3D ( 'NONE', #22, #271, #138 ) ;
#191 = DIRECTION ( 'NONE',  ( 0.000000000000000000, 0.000000000000000000, -1.000000000000000000 ) ) ;
#192 = CARTESIAN_POINT ( 'NONE',  ( 0.000000000000000000, -4.072297297297295060, -1.849998918918603241 ) ) ;
#193 = PRODUCT_RELATED_PRODUCT_CATEGORY ( 'part', '', ( #213 ) ) ;
#194 = DIRECTION ( 'NONE',  ( 0.000000000000000000, 0.000000000000000000, -1.000000000000000000 ) ) ;
#195 =( LENGTH_UNIT ( ) NAMED_UNIT ( * ) SI_UNIT ( .MILLI., .METRE. ) );
#196 = ORIENTED_EDGE ( 'NONE', *, *, #223, .T. ) ;
#197 = CARTESIAN_POINT ( 'NONE',  ( 8.294400438429635977E-29, 4.072297297297295060, 0.000000000000000000 ) ) ;
#198 = CARTESIAN_POINT ( 'NONE',  ( 0.000000000000000000, -4.072297297297295060, 0.000000000000000000 ) ) ;
#199 = CYLINDRICAL_SURFACE ( 'NONE', #285, 4.070297297297295280 ) ;
#200 = PLANE ( 'NONE',  #286 ) ;
#201 = AXIS2_PLACEMENT_3D ( 'NONE', #242, #276, #273 ) ;
#202 =( GEOMETRIC_REPRESENTATION_CONTEXT ( 3 ) GLOBAL_UNCERTAINTY_ASSIGNED_CONTEXT ( ( #130 ) ) GLOBAL_UNIT_ASSIGNED_CONTEXT ( ( #195, #69, #232 ) ) REPRESENTATION_CONTEXT ( 'NONE', 'WORKASPACE' ) );
#203 = AXIS2_PLACEMENT_3D ( 'NONE', #97, #305, #310 ) ;
#204 = EDGE_CURVE ( 'NONE', #161, #182, #134, .T. ) ;
#205 = DIRECTION ( 'NONE',  ( -1.000000000000000000, 0.000000000000000000, 0.000000000000000000 ) ) ;
#206 = PRODUCT_DEFINITION ( 'General', '', #63, #51 ) ;
#207 = FACE_OUTER_BOUND ( 'NONE', #186, .T. ) ;
#208 = AXIS2_PLACEMENT_3D ( 'NONE', #78, #153, #260 ) ;
#209 = AXIS2_PLACEMENT_3D ( 'NONE', #220, #24, #170 ) ;
#210 = ORIENTED_EDGE ( 'NONE', *, *, #23, .F. ) ;
#211 = ORIENTED_EDGE ( 'NONE', *, *, #124, .F. ) ;
#212 = ORIENTED_EDGE ( 'NONE', *, *, #235, .T. ) ;
#213 = PRODUCT ( 'ISO 1234-4x18-F_ISO 1234-4x18-F', 'ISO 1234-4x18-F_ISO 1234-4x18-F', '', ( #254 ) ) ;
#214 = DIRECTION ( 'NONE',  ( 0.000000000000000000, 0.000000000000000000, 1.000000000000000000 ) ) ;
#215 = LINE ( 'NONE', #80, #71 ) ;
#216 = ORIENTED_EDGE ( 'NONE', *, *, #298, .F. ) ;
#217 = CARTESIAN_POINT ( 'NONE',  ( 0.000000000000000000, 0.000000000000000000, 0.000000000000000000 ) ) ;
#218 = LINE ( 'NONE', #303, #157 ) ;
#219 = ORIENTED_EDGE ( 'NONE', *, *, #173, .F. ) ;
#220 = CARTESIAN_POINT ( 'NONE',  ( 0.000000000000000000, -4.072297297297295060, 1.849998918918603241 ) ) ;
#221 = CIRCLE ( 'NONE', #79, 4.070297297297295280 ) ;
#222 = FILL_AREA_STYLE ('',( #52 ) ) ;
#223 = EDGE_CURVE ( 'NONE', #182, #266, #275, .T. ) ;
#224 = APPLICATION_PROTOCOL_DEFINITION ( 'draft international standard', 'automotive_design', 1998, #174 ) ;
#225 = EDGE_CURVE ( 'NONE', #317, #39, #311, .T. ) ;
#226 = DIRECTION ( 'NONE',  ( 0.000000000000000000, 0.000000000000000000, -1.000000000000000000 ) ) ;
#227 = DIRECTION ( 'NONE',  ( 0.000000000000000000, 0.000000000000000000, -1.000000000000000000 ) ) ;
#228 = DIRECTION ( 'NONE',  ( 0.000000000000000000, -1.000000000000000000, 0.000000000000000000 ) ) ;
#229 = DIRECTION ( 'NONE',  ( 1.000000000000000000, 0.000000000000000000, 0.000000000000000000 ) ) ;
#230 = AXIS2_PLACEMENT_3D ( 'NONE', #75, #172, #281 ) ;
#231 = ADVANCED_FACE ( 'NONE', ( #62 ), #11, .T. ) ;
#232 =( NAMED_UNIT ( * ) SI_UNIT ( $, .STERADIAN. ) SOLID_ANGLE_UNIT ( ) );
#233 = ORIENTED_EDGE ( 'NONE', *, *, #180, .T. ) ;
#234 = EDGE_LOOP ( 'NONE', ( #216, #87, #158, #81 ) ) ;
#235 = EDGE_CURVE ( 'NONE', #67, #161, #294, .T. ) ;
#236 = ORIENTED_EDGE ( 'NONE', *, *, #85, .T. ) ;
#237 = AXIS2_PLACEMENT_3D ( 'NONE', #198, #278, #272 ) ;
#238 = EDGE_LOOP ( 'NONE', ( #211, #212, #61, #106 ) ) ;
#239 = CARTESIAN_POINT ( 'NONE',  ( -2.955319110096957136, -1.273474500855656499, -1.849998918918603241 ) ) ;
#240 = ORIENTED_EDGE ( 'NONE', *, *, #324, .T. ) ;
#241 = CARTESIAN_POINT ( 'NONE',  ( -2.956771249286917591, -1.272099258414127299, 0.000000000000000000 ) ) ;
#242 = CARTESIAN_POINT ( 'NONE',  ( 2.688821387764050996E-14, 0.000000000000000000, 0.000000000000000000 ) ) ;
#243 = CARTESIAN_POINT ( 'NONE',  ( -4.299999999999999822, 0.000000000000000000, 1.849998918918603241 ) ) ;
#244 = CIRCLE ( 'NONE', #143, 1.850000000000000089 ) ;
#245 = CIRCLE ( 'NONE', #209, 4.070297297297295280 ) ;
#246 = DIRECTION ( 'NONE',  ( 0.000000000000000000, 0.000000000000000000, -1.000000000000000000 ) ) ;
#247 = ADVANCED_FACE ( 'NONE', ( #109 ), #120, .T. ) ;
#248 = CARTESIAN_POINT ( 'NONE',  ( 0.000000000000000000, 0.000000000000000000, 0.000000000000000000 ) ) ;
#249 = CARTESIAN_POINT ( 'NONE',  ( 8.294400438429635977E-29, 4.072297297297295060, 1.849998918918603241 ) ) ;
#250 = APPLICATION_PROTOCOL_DEFINITION ( 'draft international standard', 'automotive_design', 1998, #141 ) ;
#251 = AXIS2_PLACEMENT_3D ( 'NONE', #243, #214, #88 ) ;
#252 = VERTEX_POINT ( 'NONE', #239 ) ;
#253 = EDGE_CURVE ( 'NONE', #177, #159, #140, .T. ) ;
#254 = PRODUCT_CONTEXT ( 'NONE', #141, 'mechanical' ) ;
#255 = DIRECTION ( 'NONE',  ( 0.000000000000000000, 0.000000000000000000, -1.000000000000000000 ) ) ;
#256 = SURFACE_STYLE_FILL_AREA ( #222 ) ;
#257 = AXIS2_PLACEMENT_3D ( 'NONE', #217, #49, #147 ) ;
#258 = AXIS2_PLACEMENT_3D ( 'NONE', #3, #96, #166 ) ;
#259 = FACE_OUTER_BOUND ( 'NONE', #110, .T. ) ;
#260 = DIRECTION ( 'NONE',  ( 0.000000000000000000, 0.000000000000000000, -1.000000000000000000 ) ) ;
#261 = CARTESIAN_POINT ( 'NONE',  ( 0.000000000000000000, 0.001999999999999999608, 1.849998918918603241 ) ) ;
#262 = VERTEX_POINT ( 'NONE', #322 ) ;
#263 = VECTOR ( 'NONE', #181, 1000.000000000000000 ) ;
#264 = EDGE_LOOP ( 'NONE', ( #137, #196, #139, #60 ) ) ;
#265 = EDGE_CURVE ( 'NONE', #159, #84, #125, .T. ) ;
#266 = VERTEX_POINT ( 'NONE', #189 ) ;
#267 = ORIENTED_EDGE ( 'NONE', *, *, #124, .T. ) ;
#268 =( GEOMETRIC_REPRESENTATION_CONTEXT ( 3 ) GLOBAL_UNCERTAINTY_ASSIGNED_CONTEXT ( ( #175 ) ) GLOBAL_UNIT_ASSIGNED_CONTEXT ( ( #54, #30, #73 ) ) REPRESENTATION_CONTEXT ( 'NONE', 'WORKASPACE' ) );
#269 = DIRECTION ( 'NONE',  ( 0.000000000000000000, 0.000000000000000000, 1.000000000000000000 ) ) ;
#270 = ORIENTED_EDGE ( 'NONE', *, *, #235, .F. ) ;
#271 = DIRECTION ( 'NONE',  ( -0.000000000000000000, -0.000000000000000000, -1.000000000000000000 ) ) ;
#272 = DIRECTION ( 'NONE',  ( -1.000000000000000000, 0.000000000000000000, 0.000000000000000000 ) ) ;
#273 = DIRECTION ( 'NONE',  ( 0.000000000000000000, 0.000000000000000000, -1.000000000000000000 ) ) ;
#274 = DIRECTION ( 'NONE',  ( 0.000000000000000000, 0.000000000000000000, -1.000000000000000000 ) ) ;
#275 = CIRCLE ( 'NONE', #251, 1.852000000000000313 ) ;
#276 = DIRECTION ( 'NONE',  ( 1.000000000000000000, 0.000000000000000000, 0.000000000000000000 ) ) ;
#277 = DIRECTION ( 'NONE',  ( 0.000000000000000000, 0.000000000000000000, -1.000000000000000000 ) ) ;
#278 = DIRECTION ( 'NONE',  ( -0.000000000000000000, -0.000000000000000000, -1.000000000000000000 ) ) ;
#279 = VECTOR ( 'NONE', #229, 1000.000000000000000 ) ;
#280 = CIRCLE ( 'NONE', #321, 1.850000000000000089 ) ;
#281 = DIRECTION ( 'NONE',  ( 1.000000000000000000, 0.000000000000000000, 0.000000000000000000 ) ) ;
#282 = DIRECTION ( 'NONE',  ( -1.000000000000000000, -1.448841047135829285E-14, -0.000000000000000000 ) ) ;
#283 = CARTESIAN_POINT ( 'NONE',  ( -2.955319110096975788, 1.273474500855676039, -1.849998918918603241 ) ) ;
#284 = PLANE ( 'NONE',  #160 ) ;
#285 = AXIS2_PLACEMENT_3D ( 'NONE', #99, #148, #205 ) ;
#286 = AXIS2_PLACEMENT_3D ( 'NONE', #76, #287, #227 ) ;
#287 = DIRECTION ( 'NONE',  ( 1.000000000000000000, 0.000000000000000000, 0.000000000000000000 ) ) ;
#288 = CARTESIAN_POINT ( 'NONE',  ( 2.688821387764050996E-14, -0.002000000000000482295, -1.849998918918603241 ) ) ;
#289 = ORIENTED_EDGE ( 'NONE', *, *, #8, .F. ) ;
#290 = COLOUR_RGB ( '',0.7921568627450980005, 0.8196078431372548767, 0.9333333333333333481 ) ;
#291 = ORIENTED_EDGE ( 'NONE', *, *, #29, .F. ) ;
#292 = EDGE_LOOP ( 'NONE', ( #150, #188, #155, #316 ) ) ;
#293 = ORIENTED_EDGE ( 'NONE', *, *, #225, .T. ) ;
#294 = CIRCLE ( 'NONE', #145, 4.070297297297295280 ) ;
#295 = DIRECTION ( 'NONE',  ( 0.000000000000000000, 0.000000000000000000, -1.000000000000000000 ) ) ;
#296 = CYLINDRICAL_SURFACE ( 'NONE', #121, 1.850000000000000089 ) ;
#297 = CARTESIAN_POINT ( 'NONE',  ( 0.000000000000000000, 0.001999999999999999608, 1.849998918918603241 ) ) ;
#298 = EDGE_CURVE ( 'NONE', #252, #266, #74, .T. ) ;
#299 = FACE_OUTER_BOUND ( 'NONE', #115, .T. ) ;
#300 = ORIENTED_EDGE ( 'NONE', *, *, #59, .F. ) ;
#301 = EDGE_CURVE ( 'NONE', #252, #317, #156, .T. ) ;
#302 = VECTOR ( 'NONE', #226, 1000.000000000000000 ) ;
#303 = CARTESIAN_POINT ( 'NONE',  ( 2.688821387764050996E-14, -0.002000000000000482295, 1.849998918918603241 ) ) ;
#304 = LINE ( 'NONE', #20, #91 ) ;
#305 = DIRECTION ( 'NONE',  ( 1.000000000000000000, 0.000000000000000000, 0.000000000000000000 ) ) ;
#306 = AXIS2_PLACEMENT_3D ( 'NONE', #297, #128, #274 ) ;
#307 = CARTESIAN_POINT ( 'NONE',  ( 18.00000000000000000, 0.001999999999999999608, 1.849998918918603241 ) ) ;
#308 = FACE_OUTER_BOUND ( 'NONE', #132, .T. ) ;
#309 = ADVANCED_FACE ( 'NONE', ( #19 ), #92, .T. ) ;
#310 = DIRECTION ( 'NONE',  ( 0.000000000000000000, 0.000000000000000000, -1.000000000000000000 ) ) ;
#311 = LINE ( 'NONE', #288, #279 ) ;
#312 = DIRECTION ( 'NONE',  ( -0.6876212207643932484, -0.7260695949800444193, 0.000000000000000000 ) ) ;
#313 = ORIENTED_EDGE ( 'NONE', *, *, #265, .F. ) ;
#314 = ORIENTED_EDGE ( 'NONE', *, *, #23, .T. ) ;
#315 = AXIS2_PLACEMENT_3D ( 'NONE', #241, #312, #295 ) ;
#316 = ORIENTED_EDGE ( 'NONE', *, *, #223, .F. ) ;
#317 = VERTEX_POINT ( 'NONE', #111 ) ;
#318 = DIRECTION ( 'NONE',  ( 1.000000000000000000, -0.000000000000000000, -0.000000000000000000 ) ) ;
#319 = CARTESIAN_POINT ( 'NONE',  ( -2.955319110096975788, 1.273474500855676039, 1.849998918918603241 ) ) ;
#320 = MECHANICAL_DESIGN_GEOMETRIC_PRESENTATION_REPRESENTATION (  '', ( #40 ), #268 ) ;
#321 = AXIS2_PLACEMENT_3D ( 'NONE', #28, #1, #246 ) ;
#322 = CARTESIAN_POINT ( 'NONE',  ( 2.688821387764050996E-14, -0.002000000000000482295, 1.849998918918603241 ) ) ;
#323 = CARTESIAN_POINT ( 'NONE',  ( 18.00000000000000000, 0.001999999999999999608, -1.849998918918603241 ) ) ;
#324 = EDGE_CURVE ( 'NONE', #67, #84, #215, .T. ) ;
#325 = FACE_OUTER_BOUND ( 'NONE', #118, .T. ) ;
ENDSEC;
END-ISO-10303-21;
