ISO-10303-21;
HEADER;
FILE_DESCRIPTION (( 'STEP AP214' ),
    '1' );
FILE_NAME ('ISO - 4036 - M8 - N.STEP',
    '2025-08-04T11:00:08',
    ( '' ),
    ( '' ),
    'SwSTEP 2.0',
    'SolidWorks 2025',
    '' );
FILE_SCHEMA (( 'AUTOMOTIVE_DESIGN' ));
ENDSEC;

DATA;
#1 = ORIENTED_EDGE ( 'NONE', *, *, #9, .F. ) ;
#2 = CARTESIAN_POINT ( 'NONE',  ( 4.000000000000001776, 0.000000000000000000, -3.974599999999998357 ) ) ;
#3 = AXIS2_PLACEMENT_3D ( 'NONE', #258, #23, #125 ) ;
#4 = LINE ( 'NONE', #209, #235 ) ;
#5 = DIRECTION ( 'NONE',  ( -0.000000000000000000, -0.000000000000000000, 1.000000000000000000 ) ) ;
#6 = FACE_OUTER_BOUND ( 'NONE', #146, .T. ) ;
#7 = EDGE_CURVE ( 'NONE', #188, #188, #57, .T. ) ;
#8 = DIRECTION ( 'NONE',  ( 0.8660254037844382635, -0.5000000000000005551, 0.000000000000000000 ) ) ;
#9 = EDGE_CURVE ( 'NONE', #27, #282, #176, .T. ) ;
#10 = DIRECTION ( 'NONE',  ( -0.000000000000000000, -0.000000000000000000, 1.000000000000000000 ) ) ;
#11 = EDGE_CURVE ( 'NONE', #191, #191, #101, .T. ) ;
#12 = CARTESIAN_POINT ( 'NONE',  ( 6.500000000000000000, 3.752776749732563033, -4.000000000000000000 ) ) ;
#13 = VECTOR ( 'NONE', #277, 1000.000000000000000 ) ;
#14 = APPLICATION_CONTEXT ( 'automotive_design' ) ;
#15 = ORIENTED_EDGE ( 'NONE', *, *, #263, .F. ) ;
#16 = ORIENTED_EDGE ( 'NONE', *, *, #218, .F. ) ;
#17 = ORIENTED_EDGE ( 'NONE', *, *, #321, .T. ) ;
#18 = EDGE_LOOP ( 'NONE', ( #19 ) ) ;
#19 = ORIENTED_EDGE ( 'NONE', *, *, #127, .F. ) ;
#20 = ADVANCED_BREP_SHAPE_REPRESENTATION ( 'ISO - 4036 - M8 - N_ISO - 4036 - M8 - N', ( #275, #136 ), #179 ) ;
#21 = EDGE_CURVE ( 'NONE', #65, #202, #266, .T. ) ;
#22 = PRESENTATION_STYLE_ASSIGNMENT (( #175 ) ) ;
#23 = DIRECTION ( 'NONE',  ( 0.000000000000000000, 0.000000000000000000, -1.000000000000000000 ) ) ;
#24 = AXIS2_PLACEMENT_3D ( 'NONE', #114, #304, #276 ) ;
#25 = VECTOR ( 'NONE', #79, 1000.000000000000000 ) ;
#26 = EDGE_CURVE ( 'NONE', #261, #172, #211, .T. ) ;
#27 = VERTEX_POINT ( 'NONE', #268 ) ;
#28 = DIRECTION ( 'NONE',  ( -0.8660254037844378194, -0.5000000000000014433, 0.000000000000000000 ) ) ;
#29 = DIRECTION ( 'NONE',  ( 0.5000000000000008882, 0.8660254037844381525, -0.000000000000000000 ) ) ;
#30 = DIRECTION ( 'NONE',  ( -0.8660254037844381525, 0.5000000000000008882, 0.000000000000000000 ) ) ;
#31 = DIRECTION ( 'NONE',  ( 0.000000000000000000, 0.000000000000000000, 1.000000000000000000 ) ) ;
#32 = CIRCLE ( 'NONE', #223, 4.000000000000000000 ) ;
#33 = VERTEX_POINT ( 'NONE', #210 ) ;
#34 = ADVANCED_FACE ( 'NONE', ( #73 ), #174, .T. ) ;
#35 = FACE_OUTER_BOUND ( 'NONE', #110, .T. ) ;
#36 = DIRECTION ( 'NONE',  ( 0.000000000000000000, 0.000000000000000000, 1.000000000000000000 ) ) ;
#37 = PRODUCT_DEFINITION_FORMATION_WITH_SPECIFIED_SOURCE ( 'Symmetric', '', #312, .NOT_KNOWN. ) ;
#38 = CARTESIAN_POINT ( 'NONE',  ( 0.000000000000000000, 0.000000000000000000, 0.000000000000000000 ) ) ;
#39 = FACE_OUTER_BOUND ( 'NONE', #44, .T. ) ;
#40 = DIRECTION ( 'NONE',  ( -1.000000000000000000, 0.000000000000000000, 0.000000000000000000 ) ) ;
#41 = LINE ( 'NONE', #142, #246 ) ;
#42 = CIRCLE ( 'NONE', #201, 4.000000000000001776 ) ;
#43 = VERTEX_POINT ( 'NONE', #130 ) ;
#44 = EDGE_LOOP ( 'NONE', ( #309, #169, #337, #226 ) ) ;
#45 = ORIENTED_EDGE ( 'NONE', *, *, #115, .T. ) ;
#46 = VECTOR ( 'NONE', #49, 1000.000000000000114 ) ;
#47 = DIRECTION ( 'NONE',  ( -1.000000000000000000, 0.000000000000000000, 0.000000000000000000 ) ) ;
#48 = ORIENTED_EDGE ( 'NONE', *, *, #330, .T. ) ;
#49 = DIRECTION ( 'NONE',  ( 0.8660254037844382635, -0.5000000000000005551, 0.000000000000000000 ) ) ;
#50 = DIRECTION ( 'NONE',  ( 0.8660254037844380415, 0.5000000000000012212, 0.000000000000000000 ) ) ;
#51 = LINE ( 'NONE', #154, #86 ) ;
#52 = AXIS2_PLACEMENT_3D ( 'NONE', #189, #221, #133 ) ;
#53 = CARTESIAN_POINT ( 'NONE',  ( 0.000000000000000000, 0.000000000000000000, -0.4201245229258295799 ) ) ;
#54 = ORIENTED_EDGE ( 'NONE', *, *, #280, .F. ) ;
#55 = DIRECTION ( 'NONE',  ( -0.5000000000000014433, 0.8660254037844378194, 0.000000000000000000 ) ) ;
#56 = EDGE_CURVE ( 'NONE', #43, #256, #290, .T. ) ;
#57 = CIRCLE ( 'NONE', #260, 4.000000000000001776 ) ;
#58 = LINE ( 'NONE', #302, #254 ) ;
#59 = PLANE ( 'NONE',  #24 ) ;
#60 = UNCERTAINTY_MEASURE_WITH_UNIT (LENGTH_MEASURE( 1.000000000000000082E-05 ), #265, 'distance_accuracy_value', 'NONE');
#61 = CARTESIAN_POINT ( 'NONE',  ( -6.500000000000000000, -3.752776749732580353, 0.000000000000000000 ) ) ;
#62 = CARTESIAN_POINT ( 'NONE',  ( 1.377121715509066406E-15, -7.505553499465153600, -4.000000000000000000 ) ) ;
#63 = DIRECTION ( 'NONE',  ( 0.000000000000000000, 0.000000000000000000, 1.000000000000000000 ) ) ;
#64 = DIRECTION ( 'NONE',  ( 0.000000000000000000, -0.000000000000000000, 1.000000000000000000 ) ) ;
#65 = VERTEX_POINT ( 'NONE', #323 ) ;
#66 = ORIENTED_EDGE ( 'NONE', *, *, #239, .F. ) ;
#67 = CONICAL_SURFACE ( 'NONE', #3, 4.000000000000001776, 0.9599310885968821427 ) ;
#68 = ADVANCED_FACE ( 'NONE', ( #153, #129 ), #67, .F. ) ;
#69 = ORIENTED_EDGE ( 'NONE', *, *, #93, .T. ) ;
#70 = ORIENTED_EDGE ( 'NONE', *, *, #193, .F. ) ;
#71 = FACE_OUTER_BOUND ( 'NONE', #95, .T. ) ;
#72 = DIRECTION ( 'NONE',  ( -1.000000000000000000, 0.000000000000000000, 0.000000000000000000 ) ) ;
#73 = FACE_OUTER_BOUND ( 'NONE', #78, .T. ) ;
#74 = CARTESIAN_POINT ( 'NONE',  ( -1.914626053583080418E-15, 7.505553499465140277, -4.000000000000000000 ) ) ;
#75 = CARTESIAN_POINT ( 'NONE',  ( 0.000000000000000000, 0.000000000000000000, -3.974599999999998357 ) ) ;
#76 = EDGE_CURVE ( 'NONE', #261, #256, #229, .T. ) ;
#77 = CARTESIAN_POINT ( 'NONE',  ( 6.500000000000000000, -3.752776749732575912, 0.000000000000000000 ) ) ;
#78 = EDGE_LOOP ( 'NONE', ( #279, #16, #233, #320 ) ) ;
#79 = DIRECTION ( 'NONE',  ( 0.000000000000000000, -1.000000000000000000, 0.000000000000000000 ) ) ;
#80 = CARTESIAN_POINT ( 'NONE',  ( -6.500000000000000000, 3.752776749732559036, 0.000000000000000000 ) ) ;
#81 = APPLICATION_PROTOCOL_DEFINITION ( 'draft international standard', 'automotive_design', 1998, #94 ) ;
#82 = CARTESIAN_POINT ( 'NONE',  ( -6.500000000000000000, 3.752776749732559036, -4.000000000000000000 ) ) ;
#83 = DIRECTION ( 'NONE',  ( -1.000000000000000000, 0.000000000000000000, 0.000000000000000000 ) ) ;
#84 = DIRECTION ( 'NONE',  ( 0.000000000000000000, -1.000000000000000000, 0.000000000000000000 ) ) ;
#85 = CARTESIAN_POINT ( 'NONE',  ( 6.500000000000000000, 3.752776749732563033, -4.000000000000000000 ) ) ;
#86 = VECTOR ( 'NONE', #84, 1000.000000000000000 ) ;
#87 = DIRECTION ( 'NONE',  ( 1.000000000000000000, 0.000000000000000000, 0.000000000000000000 ) ) ;
#88 = ORIENTED_EDGE ( 'NONE', *, *, #321, .F. ) ;
#89 = EDGE_LOOP ( 'NONE', ( #224 ) ) ;
#90 = PRODUCT_DEFINITION_CONTEXT ( 'detailed design', #14, 'design' ) ;
#91 = VECTOR ( 'NONE', #126, 1000.000000000000000 ) ;
#92 = VERTEX_POINT ( 'NONE', #294 ) ;
#93 = EDGE_CURVE ( 'NONE', #128, #92, #4, .T. ) ;
#94 = APPLICATION_CONTEXT ( 'automotive_design' ) ;
#95 = EDGE_LOOP ( 'NONE', ( #286 ) ) ;
#96 = CARTESIAN_POINT ( 'NONE',  ( 0.000000000000000000, 0.000000000000000000, -3.554475477074171774 ) ) ;
#97 = ORIENTED_EDGE ( 'NONE', *, *, #21, .F. ) ;
#98 = DIRECTION ( 'NONE',  ( -0.000000000000000000, -0.000000000000000000, 1.000000000000000000 ) ) ;
#99 = EDGE_LOOP ( 'NONE', ( #132 ) ) ;
#100 = AXIS2_PLACEMENT_3D ( 'NONE', #333, #124, #87 ) ;
#101 = CIRCLE ( 'NONE', #187, 3.399999999999999911 ) ;
#102 = AXIS2_PLACEMENT_3D ( 'NONE', #85, #83, #135 ) ;
#103 = LINE ( 'NONE', #152, #222 ) ;
#104 = CARTESIAN_POINT ( 'NONE',  ( 1.377121715509066406E-15, -7.505553499465153600, 0.000000000000000000 ) ) ;
#105 = DIRECTION ( 'NONE',  ( -0.8660254037844381525, 0.5000000000000008882, 0.000000000000000000 ) ) ;
#106 = ORIENTED_EDGE ( 'NONE', *, *, #248, .T. ) ;
#107 = DIRECTION ( 'NONE',  ( 1.000000000000000000, 0.000000000000000000, 0.000000000000000000 ) ) ;
#108 = DIRECTION ( 'NONE',  ( 0.8660254037844380415, 0.5000000000000012212, 0.000000000000000000 ) ) ;
#109 = PLANE ( 'NONE',  #298 ) ;
#110 = EDGE_LOOP ( 'NONE', ( #292 ) ) ;
#111 = FACE_OUTER_BOUND ( 'NONE', #123, .T. ) ;
#112 = DIRECTION ( 'NONE',  ( 0.000000000000000000, 0.000000000000000000, 1.000000000000000000 ) ) ;
#113 = FACE_BOUND ( 'NONE', #313, .T. ) ;
#114 = CARTESIAN_POINT ( 'NONE',  ( -1.734723475976807094E-15, 7.505553499465140277, -4.000000000000000000 ) ) ;
#115 = EDGE_CURVE ( 'NONE', #250, #282, #51, .T. ) ;
#116 = AXIS2_PLACEMENT_3D ( 'NONE', #196, #40, #236 ) ;
#117 =( NAMED_UNIT ( * ) SI_UNIT ( $, .STERADIAN. ) SOLID_ANGLE_UNIT ( ) );
#118 = ORIENTED_EDGE ( 'NONE', *, *, #76, .F. ) ;
#119 = ORIENTED_EDGE ( 'NONE', *, *, #11, .T. ) ;
#120 = ADVANCED_FACE ( 'NONE', ( #219 ), #192, .T. ) ;
#121 = ORIENTED_EDGE ( 'NONE', *, *, #127, .T. ) ;
#122 = LINE ( 'NONE', #259, #46 ) ;
#123 = EDGE_LOOP ( 'NONE', ( #156, #88, #170, #48 ) ) ;
#124 = DIRECTION ( 'NONE',  ( -0.000000000000000000, -0.000000000000000000, 1.000000000000000000 ) ) ;
#125 = DIRECTION ( 'NONE',  ( -1.000000000000000000, 0.000000000000000000, 0.000000000000000000 ) ) ;
#126 = DIRECTION ( 'NONE',  ( 0.000000000000000000, 0.000000000000000000, 1.000000000000000000 ) ) ;
#127 = EDGE_CURVE ( 'NONE', #301, #301, #32, .T. ) ;
#128 = VERTEX_POINT ( 'NONE', #80 ) ;
#129 = FACE_BOUND ( 'NONE', #225, .T. ) ;
#130 = CARTESIAN_POINT ( 'NONE',  ( 1.377121715509066406E-15, -7.505553499465153600, 0.000000000000000000 ) ) ;
#131 = AXIS2_PLACEMENT_3D ( 'NONE', #327, #242, #8 ) ;
#132 = ORIENTED_EDGE ( 'NONE', *, *, #318, .T. ) ;
#133 = DIRECTION ( 'NONE',  ( -1.000000000000000000, 0.000000000000000000, 0.000000000000000000 ) ) ;
#134 = PRODUCT_DEFINITION_SHAPE ( 'NONE', 'NONE',  #244 ) ;
#135 = DIRECTION ( 'NONE',  ( 0.000000000000000000, 0.000000000000000000, 1.000000000000000000 ) ) ;
#136 = AXIS2_PLACEMENT_3D ( 'NONE', #295, #31, #107 ) ;
#137 = CLOSED_SHELL ( 'NONE', ( #195, #345, #34, #138, #145, #120, #220, #199, #180, #141, #68, #237 ) ) ;
#138 = ADVANCED_FACE ( 'NONE', ( #272 ), #160, .F. ) ;
#139 = LINE ( 'NONE', #82, #163 ) ;
#140 = CARTESIAN_POINT ( 'NONE',  ( -6.500000000000000000, 3.752776749732559036, -4.000000000000000000 ) ) ;
#141 = ADVANCED_FACE ( 'NONE', ( #214, #113 ), #273, .F. ) ;
#142 = CARTESIAN_POINT ( 'NONE',  ( 6.500000000000000000, -3.752776749732575912, -4.000000000000000000 ) ) ;
#143 = EDGE_LOOP ( 'NONE', ( #15, #54, #251, #338 ) ) ;
#144 = UNCERTAINTY_MEASURE_WITH_UNIT (LENGTH_MEASURE( 1.000000000000000082E-05 ), #308, 'distance_accuracy_value', 'NONE');
#145 = ADVANCED_FACE ( 'NONE', ( #111 ), #213, .T. ) ;
#146 = EDGE_LOOP ( 'NONE', ( #97, #66, #45, #1, #281, #203 ) ) ;
#147 = ORIENTED_EDGE ( 'NONE', *, *, #252, .T. ) ;
#148 = VECTOR ( 'NONE', #150, 1000.000000000000000 ) ;
#149 = EDGE_LOOP ( 'NONE', ( #205, #69, #167, #340, #118, #198 ) ) ;
#150 = DIRECTION ( 'NONE',  ( 0.000000000000000000, -1.000000000000000000, 0.000000000000000000 ) ) ;
#151 = ORIENTED_EDGE ( 'NONE', *, *, #7, .F. ) ;
#152 = CARTESIAN_POINT ( 'NONE',  ( -1.914626053583080418E-15, 7.505553499465140277, 0.000000000000000000 ) ) ;
#153 = FACE_OUTER_BOUND ( 'NONE', #253, .T. ) ;
#154 = CARTESIAN_POINT ( 'NONE',  ( 6.500000000000000000, 3.752776749732563033, -4.000000000000000000 ) ) ;
#155 = VECTOR ( 'NONE', #183, 1000.000000000000114 ) ;
#156 = ORIENTED_EDGE ( 'NONE', *, *, #56, .F. ) ;
#157 =( GEOMETRIC_REPRESENTATION_CONTEXT ( 3 ) GLOBAL_UNCERTAINTY_ASSIGNED_CONTEXT ( ( #144 ) ) GLOBAL_UNIT_ASSIGNED_CONTEXT ( ( #308, #206, #117 ) ) REPRESENTATION_CONTEXT ( 'NONE', 'WORKASPACE' ) );
#158 = LINE ( 'NONE', #61, #162 ) ;
#159 = APPLICATION_PROTOCOL_DEFINITION ( 'draft international standard', 'automotive_design', 1998, #14 ) ;
#160 = PLANE ( 'NONE',  #102 ) ;
#161 = CYLINDRICAL_SURFACE ( 'NONE', #341, 3.399999999999999911 ) ;
#162 = VECTOR ( 'NONE', #217, 1000.000000000000114 ) ;
#163 = VECTOR ( 'NONE', #36, 1000.000000000000000 ) ;
#164 = LINE ( 'NONE', #274, #332 ) ;
#165 = DIRECTION ( 'NONE',  ( 1.000000000000000000, 0.000000000000000000, 0.000000000000000000 ) ) ;
#166 = LINE ( 'NONE', #289, #13 ) ;
#167 = ORIENTED_EDGE ( 'NONE', *, *, #193, .T. ) ;
#168 = MECHANICAL_DESIGN_GEOMETRIC_PRESENTATION_REPRESENTATION (  '', ( #306 ), #157 ) ;
#169 = ORIENTED_EDGE ( 'NONE', *, *, #173, .F. ) ;
#170 = ORIENTED_EDGE ( 'NONE', *, *, #9, .T. ) ;
#171 = CIRCLE ( 'NONE', #241, 3.399999999999999911 ) ;
#172 = VERTEX_POINT ( 'NONE', #185 ) ;
#173 = EDGE_CURVE ( 'NONE', #202, #128, #139, .T. ) ;
#174 = PLANE ( 'NONE',  #342 ) ;
#175 = SURFACE_STYLE_USAGE ( .BOTH. , #177 ) ;
#176 = LINE ( 'NONE', #346, #247 ) ;
#177 = SURFACE_SIDE_STYLE ('',( #339 ) ) ;
#178 = DIRECTION ( 'NONE',  ( -0.000000000000000000, -0.000000000000000000, 1.000000000000000000 ) ) ;
#179 =( GEOMETRIC_REPRESENTATION_CONTEXT ( 3 ) GLOBAL_UNCERTAINTY_ASSIGNED_CONTEXT ( ( #60 ) ) GLOBAL_UNIT_ASSIGNED_CONTEXT ( ( #265, #267, #297 ) ) REPRESENTATION_CONTEXT ( 'NONE', 'WORKASPACE' ) );
#180 = ADVANCED_FACE ( 'NONE', ( #303, #329 ), #300, .F. ) ;
#181 = EDGE_LOOP ( 'NONE', ( #121 ) ) ;
#182 = CARTESIAN_POINT ( 'NONE',  ( 3.399999999999999911, 0.000000000000000000, -0.4201245229258295799 ) ) ;
#183 = DIRECTION ( 'NONE',  ( -0.8660254037844378194, -0.5000000000000014433, 0.000000000000000000 ) ) ;
#184 = PRODUCT_CONTEXT ( 'NONE', #94, 'mechanical' ) ;
#185 = CARTESIAN_POINT ( 'NONE',  ( -1.914626053583080418E-15, 7.505553499465140277, 0.000000000000000000 ) ) ;
#186 = PRESENTATION_LAYER_ASSIGNMENT (  '', '', ( #306 ) ) ;
#187 = AXIS2_PLACEMENT_3D ( 'NONE', #53, #234, #317 ) ;
#188 = VERTEX_POINT ( 'NONE', #2 ) ;
#189 = CARTESIAN_POINT ( 'NONE',  ( -1.734723475976807094E-15, 7.505553499465140277, 0.000000000000000000 ) ) ;
#190 = EDGE_CURVE ( 'NONE', #33, #92, #58, .T. ) ;
#191 = VERTEX_POINT ( 'NONE', #182 ) ;
#192 = PLANE ( 'NONE',  #131 ) ;
#193 = EDGE_CURVE ( 'NONE', #92, #43, #158, .T. ) ;
#194 = CARTESIAN_POINT ( 'NONE',  ( 0.000000000000000000, 0.000000000000000000, -4.000000000000000000 ) ) ;
#195 = ADVANCED_FACE ( 'NONE', ( #270, #35 ), #161, .F. ) ;
#196 = CARTESIAN_POINT ( 'NONE',  ( -6.500000000000000000, 3.752776749732559036, -4.000000000000000000 ) ) ;
#197 = CARTESIAN_POINT ( 'NONE',  ( 6.500000000000000000, 3.752776749732563033, 0.000000000000000000 ) ) ;
#198 = ORIENTED_EDGE ( 'NONE', *, *, #26, .T. ) ;
#199 = ADVANCED_FACE ( 'NONE', ( #238, #6 ), #59, .T. ) ;
#200 = EDGE_LOOP ( 'NONE', ( #70, #336, #147, #17 ) ) ;
#201 = AXIS2_PLACEMENT_3D ( 'NONE', #314, #64, #72 ) ;
#202 = VERTEX_POINT ( 'NONE', #140 ) ;
#203 = ORIENTED_EDGE ( 'NONE', *, *, #269, .F. ) ;
#204 = DIRECTION ( 'NONE',  ( -0.8660254037844378194, -0.5000000000000014433, 0.000000000000000000 ) ) ;
#205 = ORIENTED_EDGE ( 'NONE', *, *, #263, .T. ) ;
#206 =( NAMED_UNIT ( * ) PLANE_ANGLE_UNIT ( ) SI_UNIT ( $, .RADIAN. ) );
#207 = VECTOR ( 'NONE', #105, 1000.000000000000000 ) ;
#208 = CARTESIAN_POINT ( 'NONE',  ( 6.500000000000000000, 3.752776749732563033, 0.000000000000000000 ) ) ;
#209 = CARTESIAN_POINT ( 'NONE',  ( -6.500000000000000000, 3.752776749732559036, 0.000000000000000000 ) ) ;
#210 = CARTESIAN_POINT ( 'NONE',  ( -6.500000000000000000, -3.752776749732580353, -4.000000000000000000 ) ) ;
#211 = LINE ( 'NONE', #208, #299 ) ;
#212 = ORIENTED_EDGE ( 'NONE', *, *, #76, .T. ) ;
#213 = PLANE ( 'NONE',  #310 ) ;
#214 = FACE_OUTER_BOUND ( 'NONE', #181, .T. ) ;
#215 = VECTOR ( 'NONE', #50, 999.9999999999998863 ) ;
#216 = VERTEX_POINT ( 'NONE', #325 ) ;
#217 = DIRECTION ( 'NONE',  ( 0.8660254037844382635, -0.5000000000000005551, 0.000000000000000000 ) ) ;
#218 = EDGE_CURVE ( 'NONE', #250, #261, #164, .T. ) ;
#219 = FACE_OUTER_BOUND ( 'NONE', #200, .T. ) ;
#220 = ADVANCED_FACE ( 'NONE', ( #39 ), #243, .T. ) ;
#221 = DIRECTION ( 'NONE',  ( 0.000000000000000000, 0.000000000000000000, -1.000000000000000000 ) ) ;
#222 = VECTOR ( 'NONE', #204, 1000.000000000000114 ) ;
#223 = AXIS2_PLACEMENT_3D ( 'NONE', #38, #10, #328 ) ;
#224 = ORIENTED_EDGE ( 'NONE', *, *, #11, .F. ) ;
#225 = EDGE_LOOP ( 'NONE', ( #106 ) ) ;
#226 = ORIENTED_EDGE ( 'NONE', *, *, #190, .T. ) ;
#227 = CARTESIAN_POINT ( 'NONE',  ( -6.500000000000000000, 3.752776749732559036, -4.000000000000000000 ) ) ;
#228 = LINE ( 'NONE', #227, #148 ) ;
#229 = LINE ( 'NONE', #344, #25 ) ;
#230 = FACE_OUTER_BOUND ( 'NONE', #143, .T. ) ;
#231 = DIRECTION ( 'NONE',  ( 1.000000000000000000, 0.000000000000000000, 0.000000000000000000 ) ) ;
#232 = CARTESIAN_POINT ( 'NONE',  ( -1.914626053583080418E-15, 7.505553499465140277, -4.000000000000000000 ) ) ;
#233 = ORIENTED_EDGE ( 'NONE', *, *, #239, .T. ) ;
#234 = DIRECTION ( 'NONE',  ( 0.000000000000000000, 0.000000000000000000, -1.000000000000000000 ) ) ;
#235 = VECTOR ( 'NONE', #319, 1000.000000000000000 ) ;
#236 = DIRECTION ( 'NONE',  ( 0.000000000000000000, 0.000000000000000000, 1.000000000000000000 ) ) ;
#237 = ADVANCED_FACE ( 'NONE', ( #334, #71 ), #343, .F. ) ;
#238 = FACE_BOUND ( 'NONE', #99, .T. ) ;
#239 = EDGE_CURVE ( 'NONE', #250, #65, #284, .T. ) ;
#240 = DIRECTION ( 'NONE',  ( 0.8660254037844380415, 0.5000000000000012212, 0.000000000000000000 ) ) ;
#241 = AXIS2_PLACEMENT_3D ( 'NONE', #96, #98, #47 ) ;
#242 = DIRECTION ( 'NONE',  ( -0.5000000000000006661, -0.8660254037844383745, 0.000000000000000000 ) ) ;
#243 = PLANE ( 'NONE',  #116 ) ;
#244 = PRODUCT_DEFINITION ( 'General', '', #37, #90 ) ;
#245 = FILL_AREA_STYLE ('',( #257 ) ) ;
#246 = VECTOR ( 'NONE', #249, 1000.000000000000000 ) ;
#247 = VECTOR ( 'NONE', #108, 999.9999999999998863 ) ;
#248 = EDGE_CURVE ( 'NONE', #262, #262, #171, .T. ) ;
#249 = DIRECTION ( 'NONE',  ( 0.000000000000000000, 0.000000000000000000, 1.000000000000000000 ) ) ;
#250 = VERTEX_POINT ( 'NONE', #12 ) ;
#251 = ORIENTED_EDGE ( 'NONE', *, *, #21, .T. ) ;
#252 = EDGE_CURVE ( 'NONE', #33, #27, #122, .T. ) ;
#253 = EDGE_LOOP ( 'NONE', ( #151 ) ) ;
#254 = VECTOR ( 'NONE', #112, 1000.000000000000000 ) ;
#255 = EDGE_LOOP ( 'NONE', ( #311 ) ) ;
#256 = VERTEX_POINT ( 'NONE', #77 ) ;
#257 = FILL_AREA_STYLE_COLOUR ( '', #283 ) ;
#258 = CARTESIAN_POINT ( 'NONE',  ( 0.000000000000000000, 0.000000000000000000, -3.974599999999998357 ) ) ;
#259 = CARTESIAN_POINT ( 'NONE',  ( -6.500000000000000000, -3.752776749732580353, -4.000000000000000000 ) ) ;
#260 = AXIS2_PLACEMENT_3D ( 'NONE', #75, #178, #231 ) ;
#261 = VERTEX_POINT ( 'NONE', #197 ) ;
#262 = VERTEX_POINT ( 'NONE', #293 ) ;
#263 = EDGE_CURVE ( 'NONE', #172, #128, #103, .T. ) ;
#264 = CARTESIAN_POINT ( 'NONE',  ( 6.500000000000000000, 3.752776749732563033, -4.000000000000000000 ) ) ;
#265 =( LENGTH_UNIT ( ) NAMED_UNIT ( * ) SI_UNIT ( .MILLI., .METRE. ) );
#266 = LINE ( 'NONE', #324, #155 ) ;
#267 =( NAMED_UNIT ( * ) PLANE_ANGLE_UNIT ( ) SI_UNIT ( $, .RADIAN. ) );
#268 = CARTESIAN_POINT ( 'NONE',  ( 1.377121715509066406E-15, -7.505553499465153600, -4.000000000000000000 ) ) ;
#269 = EDGE_CURVE ( 'NONE', #202, #33, #228, .T. ) ;
#270 = FACE_OUTER_BOUND ( 'NONE', #89, .T. ) ;
#271 = CARTESIAN_POINT ( 'NONE',  ( 0.000000000000000000, 0.000000000000000000, -0.4621369752184113500 ) ) ;
#272 = FACE_OUTER_BOUND ( 'NONE', #315, .T. ) ;
#273 = CONICAL_SURFACE ( 'NONE', #305, 3.340000000000001190, 0.9599310885968773688 ) ;
#274 = CARTESIAN_POINT ( 'NONE',  ( 6.500000000000000000, 3.752776749732563033, -4.000000000000000000 ) ) ;
#275 = MANIFOLD_SOLID_BREP ( 'EndChamfer', #137 ) ;
#276 = DIRECTION ( 'NONE',  ( -1.000000000000000000, 0.000000000000000000, 0.000000000000000000 ) ) ;
#277 = DIRECTION ( 'NONE',  ( 0.000000000000000000, 0.000000000000000000, 1.000000000000000000 ) ) ;
#278 = ORIENTED_EDGE ( 'NONE', *, *, #115, .F. ) ;
#279 = ORIENTED_EDGE ( 'NONE', *, *, #26, .F. ) ;
#280 = EDGE_CURVE ( 'NONE', #65, #172, #316, .T. ) ;
#281 = ORIENTED_EDGE ( 'NONE', *, *, #252, .F. ) ;
#282 = VERTEX_POINT ( 'NONE', #291 ) ;
#283 = COLOUR_RGB ( '',0.7921568627450980005, 0.8196078431372548767, 0.9333333333333333481 ) ;
#284 = LINE ( 'NONE', #287, #207 ) ;
#285 = PRODUCT_RELATED_PRODUCT_CATEGORY ( 'part', '', ( #312 ) ) ;
#286 = ORIENTED_EDGE ( 'NONE', *, *, #7, .T. ) ;
#287 = CARTESIAN_POINT ( 'NONE',  ( 6.500000000000000000, 3.752776749732563033, -4.000000000000000000 ) ) ;
#288 = DIRECTION ( 'NONE',  ( -0.8660254037844381525, 0.5000000000000008882, 0.000000000000000000 ) ) ;
#289 = CARTESIAN_POINT ( 'NONE',  ( 1.377121715509066406E-15, -7.505553499465153600, -4.000000000000000000 ) ) ;
#290 = LINE ( 'NONE', #104, #215 ) ;
#291 = CARTESIAN_POINT ( 'NONE',  ( 6.500000000000000000, -3.752776749732575912, -4.000000000000000000 ) ) ;
#292 = ORIENTED_EDGE ( 'NONE', *, *, #248, .F. ) ;
#293 = CARTESIAN_POINT ( 'NONE',  ( -3.399999999999999911, 0.000000000000000000, -3.554475477074171774 ) ) ;
#294 = CARTESIAN_POINT ( 'NONE',  ( -6.500000000000000000, -3.752776749732580353, 0.000000000000000000 ) ) ;
#295 = CARTESIAN_POINT ( 'NONE',  ( 0.000000000000000000, 0.000000000000000000, 0.000000000000000000 ) ) ;
#296 = ORIENTED_EDGE ( 'NONE', *, *, #330, .F. ) ;
#297 =( NAMED_UNIT ( * ) SI_UNIT ( $, .STERADIAN. ) SOLID_ANGLE_UNIT ( ) );
#298 = AXIS2_PLACEMENT_3D ( 'NONE', #232, #55, #28 ) ;
#299 = VECTOR ( 'NONE', #30, 1000.000000000000000 ) ;
#300 = PLANE ( 'NONE',  #52 ) ;
#301 = VERTEX_POINT ( 'NONE', #347 ) ;
#302 = CARTESIAN_POINT ( 'NONE',  ( -6.500000000000000000, -3.752776749732580353, -4.000000000000000000 ) ) ;
#303 = FACE_BOUND ( 'NONE', #18, .T. ) ;
#304 = DIRECTION ( 'NONE',  ( 0.000000000000000000, 0.000000000000000000, -1.000000000000000000 ) ) ;
#305 = AXIS2_PLACEMENT_3D ( 'NONE', #271, #5, #165 ) ;
#306 = STYLED_ITEM ( 'NONE', ( #22 ), #275 ) ;
#307 = DIRECTION ( 'NONE',  ( 0.000000000000000000, 0.000000000000000000, 1.000000000000000000 ) ) ;
#308 =( LENGTH_UNIT ( ) NAMED_UNIT ( * ) SI_UNIT ( .MILLI., .METRE. ) );
#309 = ORIENTED_EDGE ( 'NONE', *, *, #93, .F. ) ;
#310 = AXIS2_PLACEMENT_3D ( 'NONE', #62, #326, #240 ) ;
#311 = ORIENTED_EDGE ( 'NONE', *, *, #318, .F. ) ;
#312 = PRODUCT ( 'ISO - 4036 - M8 - N_ISO - 4036 - M8 - N', 'ISO - 4036 - M8 - N_ISO - 4036 - M8 - N', '', ( #184 ) ) ;
#313 = EDGE_LOOP ( 'NONE', ( #119 ) ) ;
#314 = CARTESIAN_POINT ( 'NONE',  ( 0.000000000000000000, 0.000000000000000000, -4.000000000000000000 ) ) ;
#315 = EDGE_LOOP ( 'NONE', ( #212, #296, #278, #335 ) ) ;
#316 = LINE ( 'NONE', #74, #91 ) ;
#317 = DIRECTION ( 'NONE',  ( 1.000000000000000000, 0.000000000000000000, 0.000000000000000000 ) ) ;
#318 = EDGE_CURVE ( 'NONE', #216, #216, #42, .T. ) ;
#319 = DIRECTION ( 'NONE',  ( 0.000000000000000000, -1.000000000000000000, 0.000000000000000000 ) ) ;
#320 = ORIENTED_EDGE ( 'NONE', *, *, #280, .T. ) ;
#321 = EDGE_CURVE ( 'NONE', #27, #43, #166, .T. ) ;
#322 = SHAPE_DEFINITION_REPRESENTATION ( #134, #20 ) ;
#323 = CARTESIAN_POINT ( 'NONE',  ( -1.914626053583080418E-15, 7.505553499465140277, -4.000000000000000000 ) ) ;
#324 = CARTESIAN_POINT ( 'NONE',  ( -1.914626053583080418E-15, 7.505553499465140277, -4.000000000000000000 ) ) ;
#325 = CARTESIAN_POINT ( 'NONE',  ( -4.000000000000001776, 0.000000000000000000, -4.000000000000000000 ) ) ;
#326 = DIRECTION ( 'NONE',  ( 0.5000000000000012212, -0.8660254037844380415, 0.000000000000000000 ) ) ;
#327 = CARTESIAN_POINT ( 'NONE',  ( -6.500000000000000000, -3.752776749732580353, -4.000000000000000000 ) ) ;
#328 = DIRECTION ( 'NONE',  ( 1.000000000000000000, 0.000000000000000000, 0.000000000000000000 ) ) ;
#329 = FACE_OUTER_BOUND ( 'NONE', #149, .T. ) ;
#330 = EDGE_CURVE ( 'NONE', #282, #256, #41, .T. ) ;
#331 = DIRECTION ( 'NONE',  ( 1.000000000000000000, 0.000000000000000000, 0.000000000000000000 ) ) ;
#332 = VECTOR ( 'NONE', #307, 1000.000000000000000 ) ;
#333 = CARTESIAN_POINT ( 'NONE',  ( 0.000000000000000000, 0.000000000000000000, -25.03750572909317285 ) ) ;
#334 = FACE_OUTER_BOUND ( 'NONE', #255, .T. ) ;
#335 = ORIENTED_EDGE ( 'NONE', *, *, #218, .T. ) ;
#336 = ORIENTED_EDGE ( 'NONE', *, *, #190, .F. ) ;
#337 = ORIENTED_EDGE ( 'NONE', *, *, #269, .T. ) ;
#338 = ORIENTED_EDGE ( 'NONE', *, *, #173, .T. ) ;
#339 = SURFACE_STYLE_FILL_AREA ( #245 ) ;
#340 = ORIENTED_EDGE ( 'NONE', *, *, #56, .T. ) ;
#341 = AXIS2_PLACEMENT_3D ( 'NONE', #194, #63, #331 ) ;
#342 = AXIS2_PLACEMENT_3D ( 'NONE', #264, #29, #288 ) ;
#343 = CYLINDRICAL_SURFACE ( 'NONE', #100, 4.000000000000001776 ) ;
#344 = CARTESIAN_POINT ( 'NONE',  ( 6.500000000000000000, 3.752776749732563033, 0.000000000000000000 ) ) ;
#345 = ADVANCED_FACE ( 'NONE', ( #230 ), #109, .T. ) ;
#346 = CARTESIAN_POINT ( 'NONE',  ( 1.377121715509066406E-15, -7.505553499465153600, -4.000000000000000000 ) ) ;
#347 = CARTESIAN_POINT ( 'NONE',  ( 4.000000000000000000, 0.000000000000000000, 0.000000000000000000 ) ) ;
ENDSEC;
END-ISO-10303-21;
