ISO-10303-21;
HEADER;
FILE_DESCRIPTION (( 'STEP AP214' ),
    '1' );
FILE_NAME ('ISO 2341 - B - 10 x 26 x 3.2 - St.STEP',
    '2025-08-04T11:00:08',
    ( '' ),
    ( '' ),
    'SwSTEP 2.0',
    'SolidWorks 2025',
    '' );
FILE_SCHEMA (( 'AUTOMOTIVE_DESIGN' ));
ENDSEC;

DATA;
#1 = CARTESIAN_POINT ( 'NONE',  ( 27.36674092306479267, -1.226630860915486565, 4.870516835508020392 ) ) ;
#2 = CARTESIAN_POINT ( 'NONE',  ( 25.36639732919542567, 2.333699761791270255, -4.421973043372116940 ) ) ;
#3 = CARTESIAN_POINT ( 'NONE',  ( 24.56683429336339586, -1.301261743436750606, -4.165724956271309232 ) ) ;
#4 = PRESENTATION_LAYER_ASSIGNMENT (  '', '', ( #134 ) ) ;
#5 = CARTESIAN_POINT ( 'NONE',  ( 24.22213126325584298, -1.853007134937981082, 4.644242743740782053 ) ) ;
#6 = CARTESIAN_POINT ( 'NONE',  ( 26.79255073091420414, -0.9449993934714915333, -4.325010833114605546 ) ) ;
#7 = CARTESIAN_POINT ( 'NONE',  ( 23.40264389538750223, 0.1342126723510217445, 4.998470560479159275 ) ) ;
#8 = CARTESIAN_POINT ( 'NONE',  ( 27.39516003154244927, 1.031879028856796943, -4.894371160447025915 ) ) ;
#9 = CARTESIAN_POINT ( 'NONE',  ( 23.99772802656669413, 0.5506168521184260367, -4.436626687318394602 ) ) ;
#10 = FACE_OUTER_BOUND ( 'NONE', #87, .T. ) ;
#11 = CARTESIAN_POINT ( 'NONE',  ( 24.65672574464346312, -2.135031663484982190, -4.521274989455129401 ) ) ;
#12 = CARTESIAN_POINT ( 'NONE',  ( 26.71604853547760072, -1.040287193168260904, -4.287896855659940165 ) ) ;
#13 = CARTESIAN_POINT ( 'NONE',  ( 26.43330030985255519, 2.089066103583845369, 4.542700597780860328 ) ) ;
#14 = CARTESIAN_POINT ( 'NONE',  ( 25.97376143037881491, -2.273774872374723088, -4.453115132577451618 ) ) ;
#15 = CARTESIAN_POINT ( 'NONE',  ( 4.000000000000000000, 0.000000000000000000, 0.000000000000000000 ) ) ;
#16 = ORIENTED_EDGE ( 'NONE', *, *, #428, .F. ) ;
#17 = CARTESIAN_POINT ( 'NONE',  ( 23.99067631359570640, -1.622760672266772675, -4.729426332772959540 ) ) ;
#18 = CARTESIAN_POINT ( 'NONE',  ( 26.96666002588281330, 0.6479955009071975969, 4.415688075099637899 ) ) ;
#19 = CARTESIAN_POINT ( 'NONE',  ( 23.46494807648306136, -0.6164229417204979411, 4.964113297130094971 ) ) ;
#20 = EDGE_LOOP ( 'NONE', ( #174 ) ) ;
#21 = CARTESIAN_POINT ( 'NONE',  ( 26.27616513624297312, -2.166553787617462312, -4.506252539022457704 ) ) ;
#22 = CARTESIAN_POINT ( 'NONE',  ( 26.85748153011697426, 0.8469025300418461244, 4.357860668110119740 ) ) ;
#23 = FILL_AREA_STYLE ('',( #521 ) ) ;
#24 = AXIS2_PLACEMENT_3D ( 'NONE', #680, #192, #341 ) ;
#25 = CARTESIAN_POINT ( 'NONE',  ( 26.67461087529643038, 1.086858213633443260, 4.268191828578220104 ) ) ;
#26 = CARTESIAN_POINT ( 'NONE',  ( 23.90062485727469976, -0.4317591245323644245, 4.499612101845197110 ) ) ;
#27 = CARTESIAN_POINT ( 'NONE',  ( 24.56192268961279979, 1.324119380303845128, -4.157955011686447655 ) ) ;
#28 = CARTESIAN_POINT ( 'NONE',  ( 27.10000000000000142, 1.626303258728256651E-16, 4.500000054540269190 ) ) ;
#29 = FACE_OUTER_BOUND ( 'NONE', #324, .T. ) ;
#30 = CARTESIAN_POINT ( 'NONE',  ( 24.97578138984880525, -1.511686094654295598, 4.046516726105199524 ) ) ;
#31 = ADVANCED_FACE ( 'NONE', ( #516 ), #611, .T. ) ;
#32 = EDGE_LOOP ( 'NONE', ( #550 ) ) ;
#33 = CARTESIAN_POINT ( 'NONE',  ( 27.27885163326944351, -1.240044038654192882, -4.844222289121837832 ) ) ;
#34 = CARTESIAN_POINT ( 'NONE',  ( 26.33105286562359026, -1.367242163824251122, 4.130808675817629450 ) ) ;
#35 = CYLINDRICAL_SURFACE ( 'NONE', #500, 1.600000000000000755 ) ;
#36 = CARTESIAN_POINT ( 'NONE',  ( 27.24124480952630378, -1.302604621665284013, -4.827341007181512822 ) ) ;
#37 = CARTESIAN_POINT ( 'NONE',  ( 26.43332574513042488, -1.301139805733799060, 4.165640238278161434 ) ) ;
#38 = EDGE_LOOP ( 'NONE', ( #403 ) ) ;
#39 = CARTESIAN_POINT ( 'NONE',  ( 27.37836667691670911, -1.041172716174319390, -4.890877791446033740 ) ) ;
#40 = B_SPLINE_CURVE_WITH_KNOTS ( 'NONE', 3,
 ( #119, #291, #224, #501, #18, #444, #22, #451, #560, #552, #506, #331, #74, #25, #660, #448, #279, #668, #116, #664, #227, #283, #231, #671, #184, #510, #397, #456, #394, #682, #359, #630, #251, #190, #353, #562, #245, #138, #401, #136, #348, #405, #688, #301, #565, #83, #294, #97, #305, #508, #514, #86, #350, #615, #467, #625, #140, #464, #148, #308, #30, #621, #461, #240, #675, #297, #576, #618, #143, #34, #242, #37, #459, #520, #89, #45, #679, #194, #356, #572, #93, #41, #248, #685, #200 ),
 .UNSPECIFIED., .T., .F.,
 ( 4, 3, 3, 3, 3, 3, 3, 3, 3, 3, 3, 3, 3, 3, 3, 3, 3, 3, 3, 3, 3, 3, 3, 3, 3, 3, 3, 3, 4 ),
 ( 0.000000000000000000, 0.03571428571428571230, 0.07142857142857142461, 0.1071428571428571369, 0.1428571428571428492, 0.1785714285714285754, 0.2142857142857142738, 0.2500000000000000000, 0.2857142857142856984, 0.3214285714285714524, 0.3571428571428571508, 0.3928571428571428492, 0.4285714285714285476, 0.4642857142857143016, 0.5000000000000000000, 0.5357142857142856984, 0.5714285714285713969, 0.6071428571428570953, 0.6428571428571429047, 0.6785714285714286031, 0.7142857142857143016, 0.7500000000000000000, 0.7857142857142856984, 0.8214285714285713969, 0.8571428571428570953, 0.8928571428571429047, 0.9285714285714286031, 0.9642857142857143016, 1.000000000000000000 ),
 .UNSPECIFIED. ) ;
#41 = CARTESIAN_POINT ( 'NONE',  ( 27.00300712021855887, -0.5486069600108169908, 4.437099086305855700 ) ) ;
#42 = ADVANCED_FACE ( 'NONE', ( #623, #352 ), #566, .T. ) ;
#43 = CARTESIAN_POINT ( 'NONE',  ( 27.46270385003569814, -0.8289819075598167109, 4.931333386443864875 ) ) ;
#44 = APPLICATION_PROTOCOL_DEFINITION ( 'draft international standard', 'automotive_design', 1998, #487 ) ;
#45 = CARTESIAN_POINT ( 'NONE',  ( 26.55827104974438058, -1.200025993582194195, 4.215434561274562952 ) ) ;
#46 = AXIS2_PLACEMENT_3D ( 'NONE', #469, #367, #422 ) ;
#47 = DIRECTION ( 'NONE',  ( 1.000000000000000000, 0.000000000000000000, 0.000000000000000000 ) ) ;
#48 = FACE_OUTER_BOUND ( 'NONE', #38, .T. ) ;
#49 = DIRECTION ( 'NONE',  ( -1.000000000000000000, -0.000000000000000000, -0.000000000000000000 ) ) ;
#50 = CARTESIAN_POINT ( 'NONE',  ( 24.93676318311099749, 2.332153403197652963, 4.422763657195827314 ) ) ;
#51 = CARTESIAN_POINT ( 'NONE',  ( 26.40494789251338759, 2.103424218334491336, -4.536034232424168700 ) ) ;
#52 = CARTESIAN_POINT ( 'NONE',  ( 26.73585092999536528, -1.016661344913670328, -4.297421358242403677 ) ) ;
#53 = PRODUCT_DEFINITION ( 'General', '', #647, #220 ) ;
#54 = CARTESIAN_POINT ( 'NONE',  ( 27.59999997272986505, 3.794707603699265519E-16, 4.999999999999999112 ) ) ;
#55 = CARTESIAN_POINT ( 'NONE',  ( 25.02794406687444351, 2.273820928710474920, -4.453091596500886595 ) ) ;
#56 = CARTESIAN_POINT ( 'NONE',  ( 24.87477654006452354, -1.476495025002896977, -4.069512576486102873 ) ) ;
#57 = CARTESIAN_POINT ( 'NONE',  ( 25.02794406687303663, -2.273820928710243994, 4.453091596501007388 ) ) ;
#58 = CARTESIAN_POINT ( 'NONE',  ( 24.66933372757800313, -1.367477072517325976, -4.130872034377023994 ) ) ;
#59 = FACE_BOUND ( 'NONE', #139, .T. ) ;
#60 = ORIENTED_EDGE ( 'NONE', *, *, #602, .F. ) ;
#61 = DIRECTION ( 'NONE',  ( 0.000000000000000000, 0.000000000000000000, 1.000000000000000000 ) ) ;
#62 = CARTESIAN_POINT ( 'NONE',  ( 24.14294941019883822, 0.8475928838306311386, -4.357672041423957587 ) ) ;
#63 = ADVANCED_FACE ( 'NONE', ( #557, #503 ), #35, .F. ) ;
#64 = FACE_BOUND ( 'NONE', #334, .T. ) ;
#65 = EDGE_LOOP ( 'NONE', ( #133 ) ) ;
#66 = CARTESIAN_POINT ( 'NONE',  ( 24.44425085900408945, -2.017216871383108678, -4.575188847970333761 ) ) ;
#67 = CARTESIAN_POINT ( 'NONE',  ( 24.77785779843454961, 1.443050661428701753, -4.091058987353917153 ) ) ;
#68 = CARTESIAN_POINT ( 'NONE',  ( 25.22439307025219790, 2.317767187594145906, 4.430476304871822535 ) ) ;
#69 = ORIENTED_EDGE ( 'NONE', *, *, #526, .T. ) ;
#70 = CARTESIAN_POINT ( 'NONE',  ( 24.01718241171526103, 1.652253168557925145, -4.719116386251803519 ) ) ;
#71 = CARTESIAN_POINT ( 'NONE',  ( 24.24575280394543242, 0.9934102733459480028, -4.306377494816793217 ) ) ;
#72 = CARTESIAN_POINT ( 'NONE',  ( 23.40670077105383129, -0.2012927437909603767, 4.996095820228606321 ) ) ;
#73 = CARTESIAN_POINT ( 'NONE',  ( 23.60430243994996502, -1.029950860086296771, -4.894787049380056487 ) ) ;
#74 = CARTESIAN_POINT ( 'NONE',  ( 26.69532970538712391, 1.063572703400726516, 4.278044342119080135 ) ) ;
#75 = CARTESIAN_POINT ( 'NONE',  ( 25.77337082332032026, 2.334010824161447673, 4.421808912942812420 ) ) ;
#76 = CARTESIAN_POINT ( 'NONE',  ( 24.62646351077136941, -2.120026081202925461, -4.528334231495827922 ) ) ;
#77 = DIRECTION ( 'NONE',  ( 0.000000000000000000, 0.000000000000000000, 1.000000000000000000 ) ) ;
#78 = CARTESIAN_POINT ( 'NONE',  ( 27.36595388902064130, -1.226328627904178736, -4.870378938665506752 ) ) ;
#79 = EDGE_LOOP ( 'NONE', ( #69 ) ) ;
#80 = CARTESIAN_POINT ( 'NONE',  ( 24.27662358648129270, 1.897622977828851587, -4.626127602798716154 ) ) ;
#81 = CARTESIAN_POINT ( 'NONE',  ( 25.83011914648010787, 1.579455923935865203, -4.002519909600147585 ) ) ;
#82 = CARTESIAN_POINT ( 'NONE',  ( 26.33915269412356963, 1.423738842440495089, 4.111664476277374192 ) ) ;
#83 = CARTESIAN_POINT ( 'NONE',  ( 23.99772802656581305, -0.5506168521160206275, 4.436626687318861784 ) ) ;
#84 = CARTESIAN_POINT ( 'NONE',  ( 25.92629102207492764, 1.600807795935545785, 3.979413181209944028 ) ) ;
#85 = APPLICATION_PROTOCOL_DEFINITION ( 'draft international standard', 'automotive_design', 1998, #399 ) ;
#86 = CARTESIAN_POINT ( 'NONE',  ( 24.24575280394473964, -0.9934102733450700384, 4.306377494816999274 ) ) ;
#87 = EDGE_LOOP ( 'NONE', ( #285 ) ) ;
#88 = DIRECTION ( 'NONE',  ( -1.000000000000000000, -0.000000000000000000, -0.000000000000000000 ) ) ;
#89 = CARTESIAN_POINT ( 'NONE',  ( 26.53365268742161120, -1.221736273424160579, 4.204989206792558498 ) ) ;
#90 = CARTESIAN_POINT ( 'NONE',  ( 24.93676318311099749, -2.332153403197652075, -4.422763657195830866 ) ) ;
#91 = DIRECTION ( 'NONE',  ( -0.000000000000000000, -0.000000000000000000, 1.000000000000000000 ) ) ;
#92 = DIRECTION ( 'NONE',  ( -1.000000000000000000, -0.000000000000000000, -0.000000000000000000 ) ) ;
#93 = CARTESIAN_POINT ( 'NONE',  ( 26.93117215394469710, -0.7454117285615942112, 4.395067927722593026 ) ) ;
#94 = SURFACE_STYLE_FILL_AREA ( #23 ) ;
#95 = CARTESIAN_POINT ( 'NONE',  ( 23.39918790188599118, 0.6205388366551873869, 5.000426910456937435 ) ) ;
#96 = CARTESIAN_POINT ( 'NONE',  ( 27.31379737149615750, -1.175247627983701415, -4.860403194045173514 ) ) ;
#97 = CARTESIAN_POINT ( 'NONE',  ( 24.08142858807728004, -0.7490941003486081273, 4.389242356126953126 ) ) ;
#98 = CARTESIAN_POINT ( 'NONE',  ( 27.48727495644122598, -0.7539719555597407252, 4.943390982003786682 ) ) ;
#99 = FACE_OUTER_BOUND ( 'NONE', #32, .T. ) ;
#100 = CARTESIAN_POINT ( 'NONE',  ( 23.63441827833958797, -1.228612267652409829, 4.869922219326413781 ) ) ;
#101 = PRODUCT_CONTEXT ( 'NONE', #399, 'mechanical' ) ;
#102 = CARTESIAN_POINT ( 'NONE',  ( 24.44159862723742194, -1.199911052592774974, -4.215550898062404350 ) ) ;
#103 = CARTESIAN_POINT ( 'NONE',  ( 24.56582577007351631, -2.092886882965371953, 4.541375501660997571 ) ) ;
#104 = CARTESIAN_POINT ( 'NONE',  ( 27.33102601511599872, 1.163960712074893156, -4.864383575622557743 ) ) ;
#105 = CARTESIAN_POINT ( 'NONE',  ( 25.82684700113541254, -1.580202836314249737, -4.002016691941191695 ) ) ;
#106 = CARTESIAN_POINT ( 'NONE',  ( 26.31102475666705942, 2.149978220689804154, -4.514154810211928215 ) ) ;
#107 = CARTESIAN_POINT ( 'NONE',  ( 27.00266601124879529, -0.5495405887080878626, -4.436729515592882755 ) ) ;
#108 = AXIS2_PLACEMENT_3D ( 'NONE', #289, #130, #295 ) ;
#109 = CARTESIAN_POINT ( 'NONE',  ( 23.40301196052760702, -0.1429285167314825467, 4.998226842125186309 ) ) ;
#110 = ADVANCED_FACE ( 'NONE', ( #303, #676 ), #666, .T. ) ;
#111 = CARTESIAN_POINT ( 'NONE',  ( 26.55592568081702254, 2.016971423897207849, -4.575296676035790711 ) ) ;
#112 = B_SPLINE_CURVE_WITH_KNOTS ( 'NONE', 3,
 ( #574, #206, #635, #638, #152, #98, #43, #253, #523, #307, #260, #466, #256, #687, #203, #412, #689, #314, #364, #582, #683, #527, #471, #57, #209, #418, #370, #156, #585, #103, #530, #474, #5, #212, #641, #159, #588, #318, #379, #323, #19, #442, #222, #72, #109, #653, #439, #540, #657, #215, #549, #477, #327, #7, #553, #228, #172, #280, #493, #425, #120, #270, #321, #435, #607, #277, #165, #649, #126, #644, #337, #489, #661, #68, #382, #75, #598, #376, #177, #13, #480, #594, #385, #169, #162, #373, #591, #114, #117, #603, #333, #267, #543, #537, #218 ),
 .UNSPECIFIED., .T., .F.,
 ( 4, 2, 2, 2, 2, 2, 2, 2, 2, 2, 2, 2, 2, 2, 2, 2, 2, 2, 2, 2, 2, 2, 1, 1, 2, 2, 2, 1, 1, 1, 2, 2, 2, 2, 1, 2, 2, 2, 2, 2, 2, 2, 2, 1, 2, 2, 2, 2, 2, 2, 4 ),
 ( 0.000000000000000000, 0.03124999999999882039, 0.04687499999999831385, 0.06249999999999780731, 0.09374999999999682199, 0.1249999999999958367, 0.1562499999999948375, 0.1718749999999946432, 0.1796874999999948652, 0.1874999999999950595, 0.2499999999999993339, 0.2812500000000014988, 0.2968750000000021649, 0.3046875000000025535, 0.3125000000000028866, 0.3437500000000021649, 0.3593750000000021094, 0.3671875000000019984, 0.3750000000000019429, 0.4375000000000020539, 0.4687500000000022760, 0.4843750000000023870, 0.4921875000000024425, 0.4960937500000024980, 0.4980468750000024980, 0.5000000000000025535, 0.5019531250000025535, 0.5039062500000026645, 0.5078125000000026645, 0.5156250000000027756, 0.5312500000000027756, 0.5625000000000029976, 0.6250000000000032196, 0.6328125000000033307, 0.6406250000000033307, 0.6562500000000027756, 0.6875000000000016653, 0.6953125000000018874, 0.7031250000000019984, 0.7187500000000022204, 0.7500000000000033307, 0.8125000000000048850, 0.8203125000000048850, 0.8281250000000048850, 0.8437500000000044409, 0.8750000000000035527, 0.9062500000000027756, 0.9375000000000018874, 0.9531250000000014433, 0.9687500000000009992, 1.000000000000000000 ),
 .UNSPECIFIED. ) ;
#113 = CARTESIAN_POINT ( 'NONE',  ( 24.08142858807840270, 0.7490941003506728091, -4.389242356126524136 ) ) ;
#114 = CARTESIAN_POINT ( 'NONE',  ( 27.38103128730433511, 1.043395742060651221, 4.892081389843562000 ) ) ;
#115 = CARTESIAN_POINT ( 'NONE',  ( 23.91632492328682602, -1.533651883422141760, -4.759082476731226308 ) ) ;
#116 = CARTESIAN_POINT ( 'NONE',  ( 26.02471510487412942, 1.511513830144115555, 4.046608776322217160 ) ) ;
#117 = CARTESIAN_POINT ( 'NONE',  ( 27.46190898797800628, 0.8288924566833789642, 4.931350833707166537 ) ) ;
#118 = CARTESIAN_POINT ( 'NONE',  ( 24.09194566010986804, 1.731145005334888465, -4.690750150083039749 ) ) ;
#119 = CARTESIAN_POINT ( 'NONE',  ( 27.09999999999999787, 0.000000000000000000, 4.500000054540269190 ) ) ;
#120 = CARTESIAN_POINT ( 'NONE',  ( 24.04056534399541079, 1.678274122090668286, 4.710022425291837678 ) ) ;
#121 = EDGE_LOOP ( 'NONE', ( #512 ) ) ;
#122 = CARTESIAN_POINT ( 'NONE',  ( 26.30805956285347591, -2.151797058541737862, -4.513288093934521683 ) ) ;
#123 = UNCERTAINTY_MEASURE_WITH_UNIT (LENGTH_MEASURE( 1.000000000000000082E-05 ), #669, 'distance_accuracy_value', 'NONE');
#124 = CARTESIAN_POINT ( 'NONE',  ( 26.12602658562830271, 1.476145531686758883, -4.069485377457334074 ) ) ;
#125 = PRODUCT_RELATED_PRODUCT_CATEGORY ( 'part', '', ( #505 ) ) ;
#126 = CARTESIAN_POINT ( 'NONE',  ( 24.75564457187030598, 2.179950210961580481, 4.499781986421147018 ) ) ;
#127 = CARTESIAN_POINT ( 'NONE',  ( 26.78093082169017336, -1.855581797696484792, -4.643809084390667863 ) ) ;
#128 = CARTESIAN_POINT ( 'NONE',  ( 24.97578138984705376, 1.511686094653688084, -4.046516726105408246 ) ) ;
#129 = CARTESIAN_POINT ( 'NONE',  ( 27.59999997272986505, 5.421010862427522170E-16, -4.999999999999999112 ) ) ;
#130 = DIRECTION ( 'NONE',  ( -1.000000000000000000, 0.000000000000000000, -0.000000000000000000 ) ) ;
#131 = CARTESIAN_POINT ( 'NONE',  ( 24.06655956154875753, 1.705654077892807097, -4.700157705444292233 ) ) ;
#132 = CARTESIAN_POINT ( 'NONE',  ( 25.50254989040931619, 1.599997968142118143, -3.979951231611945417 ) ) ;
#133 = ORIENTED_EDGE ( 'NONE', *, *, #420, .F. ) ;
#134 = STYLED_ITEM ( 'NONE', ( #202 ), #273 ) ;
#135 =( NAMED_UNIT ( * ) PLANE_ANGLE_UNIT ( ) SI_UNIT ( $, .RADIAN. ) );
#136 = CARTESIAN_POINT ( 'NONE',  ( 23.99640976293958161, 0.5470067632274890901, 4.437160390483149364 ) ) ;
#137 = CARTESIAN_POINT ( 'NONE',  ( 27.09951476455570685, 0.4273876237571278547, 4.499746504004867198 ) ) ;
#138 = CARTESIAN_POINT ( 'NONE',  ( 24.18787040039664404, 0.9506053887330273566, 4.332082418137327195 ) ) ;
#139 = EDGE_LOOP ( 'NONE', ( #268 ) ) ;
#140 = CARTESIAN_POINT ( 'NONE',  ( 24.34627314304947632, -1.109080410920665782, 4.258361022530087858 ) ) ;
#141 = CARTESIAN_POINT ( 'NONE',  ( 23.90062485727469976, 0.4317591245323632587, -4.499612101845194445 ) ) ;
#142 = CARTESIAN_POINT ( 'NONE',  ( 1.000000000000000000, 0.000000000000000000, 9.000000000000001776 ) ) ;
#143 = CARTESIAN_POINT ( 'NONE',  ( 26.22868014611495369, -1.429467528255207842, 4.097367084450594277 ) ) ;
#144 = CARTESIAN_POINT ( 'NONE',  ( 27.10000000000000142, 1.084202172485504434E-16, -4.500000054540270078 ) ) ;
#145 = ADVANCED_FACE ( 'NONE', ( #250 ), #578, .T. ) ;
#146 = CARTESIAN_POINT ( 'NONE',  ( 23.40082014428570290, -0.6296424675795354586, 4.999568945737404846 ) ) ;
#147 = CARTESIAN_POINT ( 'NONE',  ( 27.59980265550716894, -0.3074138320839299721, -4.999999999999999112 ) ) ;
#148 = CARTESIAN_POINT ( 'NONE',  ( 24.56192268961367731, -1.324119380304717319, 4.157955011686309987 ) ) ;
#149 = CARTESIAN_POINT ( 'NONE',  ( 24.39994654509093408, 2.075894069463439795, -4.568310553177190592 ) ) ;
#150 = FACE_OUTER_BOUND ( 'NONE', #346, .T. ) ;
#151 = CARTESIAN_POINT ( 'NONE',  ( 27.17385161957653139, 1.414642114156116737, -4.796116841686512089 ) ) ;
#152 = CARTESIAN_POINT ( 'NONE',  ( 27.52839429867924181, -0.6058533600939896013, 4.963721367763279879 ) ) ;
#153 = CARTESIAN_POINT ( 'NONE',  ( 26.61390712851436646, 1.978509360626397928, -4.592116077860811885 ) ) ;
#154 = AXIS2_PLACEMENT_3D ( 'NONE', #538, #261, #61 ) ;
#155 = CARTESIAN_POINT ( 'NONE',  ( 26.60237716348362014, 2.074012008768741921, -4.569067723507411749 ) ) ;
#156 = CARTESIAN_POINT ( 'NONE',  ( 24.75998688054725960, -2.181585475035884070, 4.498989486820946126 ) ) ;
#157 = CARTESIAN_POINT ( 'NONE',  ( 26.46617312355088103, 2.070182092658796602, -4.551343148222879442 ) ) ;
#158 = CARTESIAN_POINT ( 'NONE',  ( 24.49125928752572534, -1.242361567837866110, -4.194994542403641447 ) ) ;
#159 = CARTESIAN_POINT ( 'NONE',  ( 24.06655956154877174, -1.705654077892684306, 4.700157705444336642 ) ) ;
#160 = CARTESIAN_POINT ( 'NONE',  ( 27.60020466292840169, 0.3189006892680554817, -4.999999999999997335 ) ) ;
#161 = CARTESIAN_POINT ( 'NONE',  ( 25.49857761447195870, -1.599999367755942314, -3.979950262332632605 ) ) ;
#162 = CARTESIAN_POINT ( 'NONE',  ( 27.08126504632408071, 1.542675289494994662, 4.757457578997473568 ) ) ;
#163 = CARTESIAN_POINT ( 'NONE',  ( 24.79336667798441241, 2.194960242776904380, -4.492454733509146259 ) ) ;
#164 = CARTESIAN_POINT ( 'NONE',  ( 27.09999999999999787, -3.918869757271534898E-16, -4.500000054540270078 ) ) ;
#165 = CARTESIAN_POINT ( 'NONE',  ( 24.56231646716634387, 2.091185503203707885, 4.542162043458890963 ) ) ;
#166 = EDGE_LOOP ( 'NONE', ( #544 ) ) ;
#167 = CARTESIAN_POINT ( 'NONE',  ( 24.56463561871099444, -2.087494142751511905, -4.543422685717857235 ) ) ;
#168 = CARTESIAN_POINT ( 'NONE',  ( 23.92570137178270429, 0.3541033883444056340, -4.478758919105845671 ) ) ;
#169 = CARTESIAN_POINT ( 'NONE',  ( 26.88604671123827217, 1.759971956729119658, 4.681425891361095992 ) ) ;
#170 = CARTESIAN_POINT ( 'NONE',  ( 26.24155669850989980, -2.181532170808041737, -4.499015334664839827 ) ) ;
#171 = CARTESIAN_POINT ( 'NONE',  ( 26.33105286562375014, 1.367242163824154089, -4.130808675817471354 ) ) ;
#172 = CARTESIAN_POINT ( 'NONE',  ( 23.46351009643182195, 0.6095570548287431167, 4.964978290132599170 ) ) ;
#173 = PRODUCT_DEFINITION_SHAPE ( 'NONE', 'NONE',  #53 ) ;
#174 = ORIENTED_EDGE ( 'NONE', *, *, #678, .F. ) ;
#175 = CARTESIAN_POINT ( 'NONE',  ( 23.55304875764060313, -0.8917075262200697683, -4.919843258446601197 ) ) ;
#176 = ADVANCED_FACE ( 'NONE', ( #150, #358 ), #345, .T. ) ;
#177 = CARTESIAN_POINT ( 'NONE',  ( 26.37137788793075543, 2.121546200932149517, 4.527622145538445331 ) ) ;
#178 = CARTESIAN_POINT ( 'NONE',  ( 26.55572706235124159, -2.021975775716910118, -4.573812477859778625 ) ) ;
#179 = CARTESIAN_POINT ( 'NONE',  ( 24.66186395519046570, 1.423470186782696434, -4.111479579468864110 ) ) ;
#180 = ORIENTED_EDGE ( 'NONE', *, *, #445, .F. ) ;
#181 = CARTESIAN_POINT ( 'NONE',  ( 24.21750001564966936, -1.853910723387651061, -4.644476138476923310 ) ) ;
#182 = CARTESIAN_POINT ( 'NONE',  ( 27.00300712021827465, 0.5486069600115980327, -4.437099086305858364 ) ) ;
#183 = CARTESIAN_POINT ( 'NONE',  ( 24.66186395519046570, -1.423470186782696434, 4.111479579468866774 ) ) ;
#184 = CARTESIAN_POINT ( 'NONE',  ( 24.97355593865772860, 1.510912522377606981, 4.047179233438711776 ) ) ;
#185 = B_SPLINE_CURVE_WITH_KNOTS ( 'NONE', 3,
 ( #204, #160, #423, #528, #8, #104, #633, #639, #151, #362, #642, #426, #371, #535, #475, #645, #368, #316, #472, #153, #111, #416, #157, #254, #51, #586, #589, #106, #636, #531, #319, #2, #579, #312, #55, #265, #478, #216, #210, #163, #374, #592, #524, #600, #272, #335, #80, #608, #342, #558, #491, #118, #131, #278, #70, #219, #290, #282, #545, #390, #175, #73, #596, #432, #380, #667, #486, #230, #115, #329, #605, #17, #232, #226, #181, #655, #440, #66, #541, #495, #167, #650, #76, #11, #551, #377, #325, #447, #443, #286, #498, #14, #338, #223, #659, #437, #383, #170, #21, #122, #663, #178, #386, #127, #554, #612, #684, #404, #36, #33, #96, #197, #39, #677, #629, #567, #147, #239 ),
 .UNSPECIFIED., .T., .F.,
 ( 4, 3, 3, 3, 3, 3, 3, 3, 3, 3, 3, 3, 3, 3, 3, 3, 3, 3, 3, 3, 3, 3, 3, 3, 3, 3, 3, 3, 3, 3, 3, 3, 3, 3, 3, 3, 3, 3, 3, 4 ),
 ( 0.000000000000000000, 0.02564102564102564014, 0.05128205128205128027, 0.07692307692307692735, 0.1025641025641025605, 0.1282051282051281937, 0.1538461538461538547, 0.1794871794871794879, 0.2051282051282051211, 0.2307692307692307820, 0.2564102564102563875, 0.2820512820512820484, 0.3076923076923077094, 0.3333333333333333148, 0.3589743589743589758, 0.3846153846153846367, 0.4102564102564102422, 0.4358974358974359031, 0.4615384615384615641, 0.4871794871794871695, 0.5128205128205127750, 0.5384615384615384359, 0.5641025641025640969, 0.5897435897435897578, 0.6153846153846154188, 0.6410256410256410797, 0.6666666666666666297, 0.6923076923076922906, 0.7179487179487179516, 0.7435897435897436125, 0.7692307692307692735, 0.7948717948717948234, 0.8205128205128204844, 0.8461538461538461453, 0.8717948717948718063, 0.8974358974358974672, 0.9230769230769231282, 0.9487179487179486781, 0.9743589743589743390, 1.000000000000000000 ),
 .UNSPECIFIED. ) ;
#186 = CARTESIAN_POINT ( 'NONE',  ( 26.60138779271990828, 2.076285875397358538, 4.568515988315204446 ) ) ;
#187 = CARTESIAN_POINT ( 'NONE',  ( 30.00000000000000000, 0.000000000000000000, 3.845299461620741432 ) ) ;
#188 = CARTESIAN_POINT ( 'NONE',  ( 25.07086420686898620, 1.599190939576338399, 3.980487343455319404 ) ) ;
#189 = VERTEX_POINT ( 'NONE', #400 ) ;
#190 = CARTESIAN_POINT ( 'NONE',  ( 24.44159862723741483, 1.199911052592765648, 4.215550898062502050 ) ) ;
#191 =( NAMED_UNIT ( * ) SI_UNIT ( $, .STERADIAN. ) SOLID_ANGLE_UNIT ( ) );
#192 = DIRECTION ( 'NONE',  ( 1.000000000000000000, 0.000000000000000000, 0.000000000000000000 ) ) ;
#193 = DIRECTION ( 'NONE',  ( 0.000000000000000000, 0.000000000000000000, 1.000000000000000000 ) ) ;
#194 = CARTESIAN_POINT ( 'NONE',  ( 26.60853011311227334, -1.154200425063464985, 4.237293165924839400 ) ) ;
#195 = CARTESIAN_POINT ( 'NONE',  ( 24.07681625141058745, -0.8396574715947494605, -4.383755093829146965 ) ) ;
#196 = CARTESIAN_POINT ( 'NONE',  ( 26.05950305492637398, 2.334511302263310384, 4.421570151905052093 ) ) ;
#197 = CARTESIAN_POINT ( 'NONE',  ( 27.34608202420643153, -1.108210172079010514, -4.875640492745603183 ) ) ;
#198 = CIRCLE ( 'NONE', #568, 3.845299461620741432 ) ;
#199 = AXIS2_PLACEMENT_3D ( 'NONE', #518, #47, #310 ) ;
#200 = CARTESIAN_POINT ( 'NONE',  ( 27.09999999999999787, 0.000000000000000000, 4.500000054540269190 ) ) ;
#201 =( GEOMETRIC_REPRESENTATION_CONTEXT ( 3 ) GLOBAL_UNCERTAINTY_ASSIGNED_CONTEXT ( ( #123 ) ) GLOBAL_UNIT_ASSIGNED_CONTEXT ( ( #669, #309, #191 ) ) REPRESENTATION_CONTEXT ( 'NONE', 'WORKASPACE' ) );
#202 = PRESENTATION_STYLE_ASSIGNMENT (( #306 ) ) ;
#203 = CARTESIAN_POINT ( 'NONE',  ( 26.55592568081517513, -2.016971423899210691, 4.575296676034906973 ) ) ;
#204 = CARTESIAN_POINT ( 'NONE',  ( 27.59999997272986505, 6.123233995736764310E-16, -4.999999999999998224 ) ) ;
#205 = FACE_OUTER_BOUND ( 'NONE', #121, .T. ) ;
#206 = CARTESIAN_POINT ( 'NONE',  ( 27.60015693933691239, -0.1536151966555940329, 4.999999999999997335 ) ) ;
#207 = CARTESIAN_POINT ( 'NONE',  ( 30.00000000000000000, 0.000000000000000000, 0.000000000000000000 ) ) ;
#208 = CARTESIAN_POINT ( 'NONE',  ( 27.99999999999999645, 0.000000000000000000, 0.000000000000000000 ) ) ;
#209 = CARTESIAN_POINT ( 'NONE',  ( 24.96069444168879414, -2.254930415673490174, 4.462727696622801332 ) ) ;
#210 = CARTESIAN_POINT ( 'NONE',  ( 24.82674647542113178, 2.208335010517851860, -4.485919980197381030 ) ) ;
#211 = CARTESIAN_POINT ( 'NONE',  ( 23.92463058939197040, -0.3497030517821038131, -4.479168358970507136 ) ) ;
#212 = CARTESIAN_POINT ( 'NONE',  ( 24.14318287299503751, -1.781323681327943387, 4.671995555281517554 ) ) ;
#213 = CYLINDRICAL_SURFACE ( 'NONE', #559, 9.000000000000001776 ) ;
#214 = CARTESIAN_POINT ( 'NONE',  ( 24.61803702571689456, -1.336317178886300416, -4.147602963166028722 ) ) ;
#215 = CARTESIAN_POINT ( 'NONE',  ( 23.39999244846880089, 0.003197339958999848714, 5.000004982645185336 ) ) ;
#216 = CARTESIAN_POINT ( 'NONE',  ( 24.86018752664672249, 2.220718670825340801, -4.479795866273501126 ) ) ;
#217 = CARTESIAN_POINT ( 'NONE',  ( 26.43862715035034228, -1.323790386967820920, -4.158165524803641766 ) ) ;
#218 = CARTESIAN_POINT ( 'NONE',  ( 27.59999997272987571, -1.219727444046192488E-15, 5.000000000000000000 ) ) ;
#219 = CARTESIAN_POINT ( 'NONE',  ( 23.60668235323259623, 1.197260164553614947, -4.878418164594869211 ) ) ;
#220 = PRODUCT_DEFINITION_CONTEXT ( 'detailed design', #487, 'design' ) ;
#221 = CARTESIAN_POINT ( 'NONE',  ( 26.02471510487640671, -1.511513830143325965, -4.046608776322637269 ) ) ;
#222 = CARTESIAN_POINT ( 'NONE',  ( 23.41647808658606422, -0.3170468432005278392, 4.990536058746714687 ) ) ;
#223 = CARTESIAN_POINT ( 'NONE',  ( 26.10795636623715765, -2.232071383861414127, -4.474132020554040245 ) ) ;
#224 = CARTESIAN_POINT ( 'NONE',  ( 27.07467798198187481, 0.3526307643068479769, 4.478812396579377797 ) ) ;
#225 = EDGE_CURVE ( 'NONE', #409, #409, #112, .T. ) ;
#226 = CARTESIAN_POINT ( 'NONE',  ( 24.11253579960809290, -1.758383059305334672, -4.682018710135628758 ) ) ;
#227 = CARTESIAN_POINT ( 'NONE',  ( 25.64604706448726645, 1.600130466814952745, 3.979797634357531866 ) ) ;
#228 = CARTESIAN_POINT ( 'NONE',  ( 23.42522815434801231, 0.3851667360082524638, 4.985708464362675230 ) ) ;
#229 = EDGE_LOOP ( 'NONE', ( #490 ) ) ;
#230 = CARTESIAN_POINT ( 'NONE',  ( 23.89305209817345244, -1.503934168672263150, -4.768560986130320423 ) ) ;
#231 = CARTESIAN_POINT ( 'NONE',  ( 25.35110816445664739, 1.599868268696932105, 3.980102890307731123 ) ) ;
#232 = CARTESIAN_POINT ( 'NONE',  ( 24.01504821079818441, -1.649885149674485074, -4.719944808245493562 ) ) ;
#233 = CARTESIAN_POINT ( 'NONE',  ( 27.09999999999999787, 0.1638072929909498432, -4.500097234300591609 ) ) ;
#234 = ADVANCED_FACE ( 'NONE', ( #64, #59, #10, #484 ), #429, .T. ) ;
#235 = CARTESIAN_POINT ( 'NONE',  ( 26.92167909275169890, 0.8409111595364991976, 4.383341060965245006 ) ) ;
#236 = DIRECTION ( 'NONE',  ( 0.000000000000000000, 0.000000000000000000, 1.000000000000000000 ) ) ;
#237 = CARTESIAN_POINT ( 'NONE',  ( 26.60853011311232308, 1.154200425063415247, -4.237293165924839400 ) ) ;
#238 = CARTESIAN_POINT ( 'NONE',  ( 27.59999997272986505, 3.794707603699265519E-16, 4.999999999999999112 ) ) ;
#239 = CARTESIAN_POINT ( 'NONE',  ( 27.59999997272986505, 6.123233995736764310E-16, -4.999999999999998224 ) ) ;
#240 = CARTESIAN_POINT ( 'NONE',  ( 25.50254989040931619, -1.599997968142118143, 3.979951231611946305 ) ) ;
#241 = VERTEX_POINT ( 'NONE', #187 ) ;
#242 = CARTESIAN_POINT ( 'NONE',  ( 26.38223922537790855, -1.336129481608772762, 4.147529471501147924 ) ) ;
#243 = EDGE_LOOP ( 'NONE', ( #494 ) ) ;
#244 = FACE_OUTER_BOUND ( 'NONE', #65, .T. ) ;
#245 = CARTESIAN_POINT ( 'NONE',  ( 24.36860814591613789, 1.131349845323137870, 4.247950378906355517 ) ) ;
#246 = ORIENTED_EDGE ( 'NONE', *, *, #548, .F. ) ;
#247 = CARTESIAN_POINT ( 'NONE',  ( 27.09999999999999787, -3.918869757271534898E-16, -4.500000054540270078 ) ) ;
#248 = CARTESIAN_POINT ( 'NONE',  ( 27.07484208649242419, -0.3518021914600398814, 4.479130244889118373 ) ) ;
#249 = CARTESIAN_POINT ( 'NONE',  ( 23.89938123158740879, -0.4255166345989486731, -4.500384277810210776 ) ) ;
#250 = FACE_OUTER_BOUND ( 'NONE', #166, .T. ) ;
#251 = CARTESIAN_POINT ( 'NONE',  ( 24.46627442766670057, 1.221676750135046507, 4.205098837193617101 ) ) ;
#252 = DIRECTION ( 'NONE',  ( -1.000000000000000000, -0.000000000000000000, -0.000000000000000000 ) ) ;
#253 = CARTESIAN_POINT ( 'NONE',  ( 27.38210191090462331, -1.043002551617606910, 4.892155512919517335 ) ) ;
#254 = CARTESIAN_POINT ( 'NONE',  ( 26.43579220684214448, 2.087171874585928677, -4.543570677630216714 ) ) ;
#255 = CARTESIAN_POINT ( 'NONE',  ( 27.59999997272986505, 5.421010862427522170E-16, -4.999999999999999112 ) ) ;
#256 = CARTESIAN_POINT ( 'NONE',  ( 26.78229070016413615, -1.853917040399895022, 4.644470804930434404 ) ) ;
#257 = SHAPE_DEFINITION_REPRESENTATION ( #173, #455 ) ;
#258 = DIRECTION ( 'NONE',  ( -1.000000000000000000, -0.000000000000000000, -0.000000000000000000 ) ) ;
#259 = CARTESIAN_POINT ( 'NONE',  ( 24.06818893648701518, -0.7443104746723673282, -4.395152421996725955 ) ) ;
#260 = CARTESIAN_POINT ( 'NONE',  ( 27.08198603386941627, -1.542067343291489312, 4.757644379158591619 ) ) ;
#261 = DIRECTION ( 'NONE',  ( -1.000000000000000000, -0.000000000000000000, -0.000000000000000000 ) ) ;
#262 = CARTESIAN_POINT ( 'NONE',  ( 26.82673612535681329, -0.8961836664387141660, -4.342091772529155236 ) ) ;
#263 = CIRCLE ( 'NONE', #446, 9.000000000000001776 ) ;
#264 = CARTESIAN_POINT ( 'NONE',  ( 26.06438692949754810, -2.332066993247173592, 4.422802185242877826 ) ) ;
#265 = CARTESIAN_POINT ( 'NONE',  ( 24.96069444169008023, 2.254930415673702004, -4.462727696622693863 ) ) ;
#266 = CARTESIAN_POINT ( 'NONE',  ( 26.63041589343763249, -1.132325000988497088, -4.247502768621310487 ) ) ;
#267 = CARTESIAN_POINT ( 'NONE',  ( 27.54474625632650842, 0.5316249421012358978, 4.972229569238494129 ) ) ;
#268 = ORIENTED_EDGE ( 'NONE', *, *, #548, .T. ) ;
#269 = DIRECTION ( 'NONE',  ( 0.000000000000000000, 0.000000000000000000, 1.000000000000000000 ) ) ;
#270 = CARTESIAN_POINT ( 'NONE',  ( 24.06424046293760455, 1.703298027632043743, 4.701012187409658871 ) ) ;
#271 = ORIENTED_EDGE ( 'NONE', *, *, #678, .T. ) ;
#272 = CARTESIAN_POINT ( 'NONE',  ( 24.44568074531268920, 2.022196807069622349, -4.573711657605711522 ) ) ;
#273 = MANIFOLD_SOLID_BREP ( 'HoleChamfers', #648 ) ;
#274 = CARTESIAN_POINT ( 'NONE',  ( 26.43332574513053856, 1.301139805733716681, -4.165640238278043306 ) ) ;
#275 = AXIS2_PLACEMENT_3D ( 'NONE', #571, #92, #236 ) ;
#276 = EDGE_CURVE ( 'NONE', #624, #624, #263, .T. ) ;
#277 = CARTESIAN_POINT ( 'NONE',  ( 24.44241514911418989, 2.020325707675475257, 4.574541365797013093 ) ) ;
#278 = CARTESIAN_POINT ( 'NONE',  ( 24.04283866537042869, 1.680690231308194615, -4.709160025105362912 ) ) ;
#279 = CARTESIAN_POINT ( 'NONE',  ( 26.43862715034920896, 1.323790386968954236, 4.158165524803361102 ) ) ;
#280 = CARTESIAN_POINT ( 'NONE',  ( 23.50189120049128988, 0.7536607389013886271, 4.944869403825586929 ) ) ;
#281 = ORIENTED_EDGE ( 'NONE', *, *, #276, .T. ) ;
#282 = CARTESIAN_POINT ( 'NONE',  ( 23.40000402308584881, 0.004551815462171158837, -4.999997928097169364 ) ) ;
#283 = CARTESIAN_POINT ( 'NONE',  ( 25.49857761447195870, 1.599999367755942314, 3.979950262332631716 ) ) ;
#284 = CARTESIAN_POINT ( 'NONE',  ( 25.93001202812143191, 1.599131686715176581, -3.980522018879734780 ) ) ;
#285 = ORIENTED_EDGE ( 'NONE', *, *, #445, .T. ) ;
#286 = CARTESIAN_POINT ( 'NONE',  ( 25.77127981942011559, -2.318925334563806118, -4.429868114250143485 ) ) ;
#287 = CARTESIAN_POINT ( 'NONE',  ( 26.93117215394431341, 0.7454117285623372835, -4.395067927722595691 ) ) ;
#288 =( GEOMETRIC_REPRESENTATION_CONTEXT ( 3 ) GLOBAL_UNCERTAINTY_ASSIGNED_CONTEXT ( ( #651 ) ) GLOBAL_UNIT_ASSIGNED_CONTEXT ( ( #513, #135, #293 ) ) REPRESENTATION_CONTEXT ( 'NONE', 'WORKASPACE' ) );
#289 = CARTESIAN_POINT ( 'NONE',  ( 4.336808689963495707E-18, 0.000000000000000000, 0.000000000000000000 ) ) ;
#290 = CARTESIAN_POINT ( 'NONE',  ( 23.40095910625028708, 0.6439758102272161722, -4.999415819850703713 ) ) ;
#291 = CARTESIAN_POINT ( 'NONE',  ( 27.09999999999999787, 0.1643105346490554286, 4.499902576228506312 ) ) ;
#292 = CARTESIAN_POINT ( 'NONE',  ( 26.92227873804072757, -0.8411184045212264371, 4.383465168303426474 ) ) ;
#293 =( NAMED_UNIT ( * ) SI_UNIT ( $, .STERADIAN. ) SOLID_ANGLE_UNIT ( ) );
#294 = CARTESIAN_POINT ( 'NONE',  ( 24.03374135395764455, -0.6488735840030881441, 4.415560571425135805 ) ) ;
#295 = DIRECTION ( 'NONE',  ( -0.000000000000000000, 0.000000000000000000, 1.000000000000000000 ) ) ;
#296 = CARTESIAN_POINT ( 'NONE',  ( 4.599999999999999645, 0.000000000000000000, 0.000000000000000000 ) ) ;
#297 = CARTESIAN_POINT ( 'NONE',  ( 25.83011914647986629, -1.579455923935916051, 4.002519909600358083 ) ) ;
#298 = ADVANCED_FACE ( 'NONE', ( #665, #205 ), #482, .T. ) ;
#299 = CARTESIAN_POINT ( 'NONE',  ( 24.66040004042168476, 1.423042219051527502, 4.112145663983564958 ) ) ;
#300 = VERTEX_POINT ( 'NONE', #247 ) ;
#301 = CARTESIAN_POINT ( 'NONE',  ( 23.90032172537571142, -0.1664818740367463579, 4.499882753275926461 ) ) ;
#302 = CARTESIAN_POINT ( 'NONE',  ( 23.63441827833958797, 1.228612267652409829, -4.869922219326413781 ) ) ;
#303 = FACE_OUTER_BOUND ( 'NONE', #354, .T. ) ;
#304 = CARTESIAN_POINT ( 'NONE',  ( 27.99999999999999645, 0.000000000000000000, 4.999999999999997335 ) ) ;
#305 = CARTESIAN_POINT ( 'NONE',  ( 24.14294941019782215, -0.8475928838290025524, 4.357672041424309306 ) ) ;
#306 = SURFACE_STYLE_USAGE ( .BOTH. , #468 ) ;
#307 = CARTESIAN_POINT ( 'NONE',  ( 27.16720230881185216, -1.426779866644789063, 4.793855665549966005 ) ) ;
#308 = CARTESIAN_POINT ( 'NONE',  ( 24.77785779843621938, -1.443050661429538417, 4.091058987353709320 ) ) ;
#309 =( NAMED_UNIT ( * ) PLANE_ANGLE_UNIT ( ) SI_UNIT ( $, .RADIAN. ) );
#310 = DIRECTION ( 'NONE',  ( 0.000000000000000000, 0.000000000000000000, -1.000000000000000000 ) ) ;
#311 = AXIS2_PLACEMENT_3D ( 'NONE', #573, #556, #634 ) ;
#312 = CARTESIAN_POINT ( 'NONE',  ( 25.09543870721427083, 2.288866504438006544, -4.445344770078213159 ) ) ;
#313 = CARTESIAN_POINT ( 'NONE',  ( 24.39120036410608705, -1.153942902396916992, -4.237433874002445755 ) ) ;
#314 = CARTESIAN_POINT ( 'NONE',  ( 26.37410357818399831, -2.119676562083733007, 4.528497787217800941 ) ) ;
#315 = CARTESIAN_POINT ( 'NONE',  ( 24.18787040039651615, -0.9506053887328995700, -4.332082418137638058 ) ) ;
#316 = CARTESIAN_POINT ( 'NONE',  ( 26.78229070016615765, 1.853917040397677019, -4.644470804931318142 ) ) ;
#317 = CARTESIAN_POINT ( 'NONE',  ( 26.06438692949754810, 2.332066993247169151, -4.422802185242879602 ) ) ;
#318 = CARTESIAN_POINT ( 'NONE',  ( 23.81193238247394106, -1.424756666556392659, 4.798767275423121426 ) ) ;
#319 = CARTESIAN_POINT ( 'NONE',  ( 25.50334673111876427, 2.333330311626869769, -4.422167981527074687 ) ) ;
#320 = CARTESIAN_POINT ( 'NONE',  ( 27.09999999999999787, -0.1643105346497701902, -4.499902576228506312 ) ) ;
#321 = CARTESIAN_POINT ( 'NONE',  ( 24.11486979005220732, 1.754339843609439731, 4.682204270057034101 ) ) ;
#322 = CARTESIAN_POINT ( 'NONE',  ( 27.07467798198163678, -0.3526307643079024667, -4.478812396579376909 ) ) ;
#323 = CARTESIAN_POINT ( 'NONE',  ( 23.50358123831012236, -0.7599456022424492252, 4.943891947757149019 ) ) ;
#324 = EDGE_LOOP ( 'NONE', ( #662 ) ) ;
#325 = CARTESIAN_POINT ( 'NONE',  ( 25.22392934557619881, -2.332633259418368521, -4.422535777340169894 ) ) ;
#326 = CARTESIAN_POINT ( 'NONE',  ( 27.07484208649223945, 0.3518021914608586709, -4.479130244889121037 ) ) ;
#327 = CARTESIAN_POINT ( 'NONE',  ( 23.40062084964686662, 0.06503401740731203085, 4.999646035738421368 ) ) ;
#328 = EDGE_LOOP ( 'NONE', ( #271 ) ) ;
#329 = CARTESIAN_POINT ( 'NONE',  ( 23.94040231797989193, -1.562992730593165458, -4.749426673200977334 ) ) ;
#330 = CIRCLE ( 'NONE', #547, 5.599999999999998757 ) ;
#331 = CARTESIAN_POINT ( 'NONE',  ( 26.71604853547781744, 1.040287193168009994, 4.287896855659941053 ) ) ;
#332 = CIRCLE ( 'NONE', #154, 4.999999999999999112 ) ;
#333 = CARTESIAN_POINT ( 'NONE',  ( 27.52757281985424243, 0.6062285077103429787, 4.963674781722919427 ) ) ;
#334 = EDGE_LOOP ( 'NONE', ( #658 ) ) ;
#335 = CARTESIAN_POINT ( 'NONE',  ( 24.33297597275842250, 1.939147587575775100, -4.608655621067714314 ) ) ;
#336 = CARTESIAN_POINT ( 'NONE',  ( 26.81159266688904097, 0.9512377102172844268, -4.331972599967540916 ) ) ;
#337 = CARTESIAN_POINT ( 'NONE',  ( 24.85521097422703818, 2.219037980670046206, 4.480628643985878234 ) ) ;
#338 = CARTESIAN_POINT ( 'NONE',  ( 26.04099103243811797, -2.254881112469580451, -4.462752619529205766 ) ) ;
#339 = CARTESIAN_POINT ( 'NONE',  ( 26.48359263746956316, 1.261960983357121258, -4.185140976148580272 ) ) ;
#340 = CARTESIAN_POINT ( 'NONE',  ( 27.59936310854721953, -0.6232664290970031384, -4.999718280428636419 ) ) ;
#341 = DIRECTION ( 'NONE',  ( 0.000000000000000000, 0.000000000000000000, -1.000000000000000000 ) ) ;
#342 = CARTESIAN_POINT ( 'NONE',  ( 24.16949900308193477, 1.805218165864913349, -4.662744618101156924 ) ) ;
#343 = DIRECTION ( 'NONE',  ( -1.000000000000000000, -0.000000000000000000, -0.000000000000000000 ) ) ;
#344 = TOROIDAL_SURFACE ( 'NONE', #499, 5.599999999999998757, 0.5999999999999998668 ) ;
#345 = CONICAL_SURFACE ( 'NONE', #46, 7.999999999999996447, 0.7853981633974504994 ) ;
#346 = EDGE_LOOP ( 'NONE', ( #281 ) ) ;
#347 = VERTEX_POINT ( 'NONE', #355 ) ;
#348 = CARTESIAN_POINT ( 'NONE',  ( 23.92463058939203080, 0.3497030517823689899, 4.479168358970040842 ) ) ;
#349 = DIRECTION ( 'NONE',  ( 0.000000000000000000, 0.000000000000000000, 1.000000000000000000 ) ) ;
#350 = CARTESIAN_POINT ( 'NONE',  ( 24.26467025807119526, -1.017294829838245152, 4.297171891290222590 ) ) ;
#351 = ADVANCED_FACE ( 'NONE', ( #587, #525 ), #511, .T. ) ;
#352 = FACE_OUTER_BOUND ( 'NONE', #430, .T. ) ;
#353 = CARTESIAN_POINT ( 'NONE',  ( 24.41692282680812554, 1.178145355050484788, 4.226002958931386999 ) ) ;
#354 = EDGE_LOOP ( 'NONE', ( #599 ) ) ;
#355 = CARTESIAN_POINT ( 'NONE',  ( 27.09999999999999787, 0.000000000000000000, 4.500000054540269190 ) ) ;
#356 = CARTESIAN_POINT ( 'NONE',  ( 26.63109261908751080, -1.131649012302734736, 4.247813103040694926 ) ) ;
#357 = CARTESIAN_POINT ( 'NONE',  ( 26.33990650013429757, 1.422179620084241591, -4.112161037777961603 ) ) ;
#358 = FACE_BOUND ( 'NONE', #20, .T. ) ;
#359 = CARTESIAN_POINT ( 'NONE',  ( 24.51645095613826086, 1.261994959704145769, 4.185238013693048487 ) ) ;
#360 = CARTESIAN_POINT ( 'NONE',  ( 25.07508775269720047, 1.600864249569106779, -3.979380444344158274 ) ) ;
#361 = CARTESIAN_POINT ( 'NONE',  ( 24.39994654509093408, -2.075894069463441571, 4.568310553177192368 ) ) ;
#362 = CARTESIAN_POINT ( 'NONE',  ( 27.12893733905816163, 1.474688326657282778, -4.777582478536683830 ) ) ;
#363 = CARTESIAN_POINT ( 'NONE',  ( 26.92167909275169890, -0.8409111595364985314, -4.383341060965245006 ) ) ;
#364 = CARTESIAN_POINT ( 'NONE',  ( 26.34398431804623186, -2.134638351711904303, 4.521460803381703641 ) ) ;
#365 = DIRECTION ( 'NONE',  ( -1.000000000000000000, -0.000000000000000000, -0.000000000000000000 ) ) ;
#366 = CARTESIAN_POINT ( 'NONE',  ( 24.97355593865778545, -1.510912522377626965, -4.047179233438292556 ) ) ;
#367 = DIRECTION ( 'NONE',  ( 1.000000000000000000, 0.000000000000000000, 0.000000000000000000 ) ) ;
#368 = CARTESIAN_POINT ( 'NONE',  ( 26.88713205268034656, 1.758575526391241040, -4.681940179857365436 ) ) ;
#369 = CARTESIAN_POINT ( 'NONE',  ( 26.75475086363497823, -0.9927740277662774337, -4.306617849866470671 ) ) ;
#370 = CARTESIAN_POINT ( 'NONE',  ( 24.82674647542035018, -2.208335010517721297, 4.485919980197446755 ) ) ;
#371 = CARTESIAN_POINT ( 'NONE',  ( 27.05915705472340349, 1.563631169287534206, -4.749216521325647200 ) ) ;
#372 = CARTESIAN_POINT ( 'NONE',  ( 27.60063683691251413, 0.6232664290970042487, -5.000281719571361805 ) ) ;
#373 = CARTESIAN_POINT ( 'NONE',  ( 27.16603631639968341, 1.427712872896064633, 4.793582290057747386 ) ) ;
#374 = CARTESIAN_POINT ( 'NONE',  ( 24.75998688054769303, 2.181585475035956456, -4.498989486820911488 ) ) ;
#375 = CARTESIAN_POINT ( 'NONE',  ( 24.41692282680813264, -1.178145355050491450, -4.226002958931319498 ) ) ;
#376 = CARTESIAN_POINT ( 'NONE',  ( 26.34119984894204691, 2.136463500460226594, 4.520598792038555302 ) ) ;
#377 = CARTESIAN_POINT ( 'NONE',  ( 24.95343347679150980, -2.272856656959910016, -4.455618656897522456 ) ) ;
#378 = CARTESIAN_POINT ( 'NONE',  ( 23.90032172537571853, 0.1664818740384541862, -4.499882753275613823 ) ) ;
#379 = CARTESIAN_POINT ( 'NONE',  ( 23.65787583546748252, -1.172963052858164712, 4.868521060290502689 ) ) ;
#380 = CARTESIAN_POINT ( 'NONE',  ( 23.78392909882384032, -1.351953609353128583, -4.814197711977533878 ) ) ;
#381 = CARTESIAN_POINT ( 'NONE',  ( 26.50872608363907901, 1.242371572168823546, -4.194891345083847867 ) ) ;
#382 = CARTESIAN_POINT ( 'NONE',  ( 25.36057426862127429, 2.332991905577697089, 4.422346539562425072 ) ) ;
#383 = CARTESIAN_POINT ( 'NONE',  ( 26.20820616574051343, -2.194907209046599306, -4.492480644774693666 ) ) ;
#384 = CARTESIAN_POINT ( 'NONE',  ( 25.65019440827174790, 1.599762669505756296, -3.980115801858038704 ) ) ;
#385 = CARTESIAN_POINT ( 'NONE',  ( 26.78094163618090207, 1.855572236035612610, 4.643812863664846802 ) ) ;
#386 = CARTESIAN_POINT ( 'NONE',  ( 26.66832894202070747, -1.938778786706697455, -4.608810781125223244 ) ) ;
#387 = CARTESIAN_POINT ( 'NONE',  ( 26.38223922537804711, 1.336129481608680614, -4.147529471501006704 ) ) ;
#388 = CARTESIAN_POINT ( 'NONE',  ( 27.10000000000000142, 1.084202172485504434E-16, -4.500000054540270078 ) ) ;
#389 = ORIENTED_EDGE ( 'NONE', *, *, #428, .T. ) ;
#390 = CARTESIAN_POINT ( 'NONE',  ( 23.45054139302187934, -0.6152208584876157627, -4.969955676579690618 ) ) ;
#391 = CARTESIAN_POINT ( 'NONE',  ( 24.28449325868861663, 1.040920725765967614, -4.287638031550524254 ) ) ;
#392 = CARTESIAN_POINT ( 'NONE',  ( 25.07508775269720402, -1.600864249569106113, 3.979380444344158718 ) ) ;
#393 = DIRECTION ( 'NONE',  ( 0.000000000000000000, 0.000000000000000000, 1.000000000000000000 ) ) ;
#394 = CARTESIAN_POINT ( 'NONE',  ( 24.61803702571686614, 1.336317178886278212, 4.147602963166310275 ) ) ;
#395 = CARTESIAN_POINT ( 'NONE',  ( 25.93001202812142836, -1.599131686715177247, 3.980522018879733892 ) ) ;
#396 = CARTESIAN_POINT ( 'NONE',  ( 8.673617379926991414E-18, 0.000000000000000000, 0.000000000000000000 ) ) ;
#397 = CARTESIAN_POINT ( 'NONE',  ( 24.77192713130016344, 1.429796859779350671, 4.097410176799398229 ) ) ;
#398 = EDGE_LOOP ( 'NONE', ( #16 ) ) ;
#399 = APPLICATION_CONTEXT ( 'automotive_design' ) ;
#400 = CARTESIAN_POINT ( 'NONE',  ( 8.673617379926991414E-18, 0.000000000000000000, 7.999999999999996447 ) ) ;
#401 = CARTESIAN_POINT ( 'NONE',  ( 24.06818893648713598, 0.7443104746726091347, 4.395152421996257885 ) ) ;
#402 = CARTESIAN_POINT ( 'NONE',  ( 1.000000000000000000, 0.000000000000000000, 0.000000000000000000 ) ) ;
#403 = ORIENTED_EDGE ( 'NONE', *, *, #276, .F. ) ;
#404 = CARTESIAN_POINT ( 'NONE',  ( 27.16603116204002433, -1.427725787687466275, -4.793578443300863690 ) ) ;
#405 = CARTESIAN_POINT ( 'NONE',  ( 23.89968436348641134, 0.1602393841033330213, 4.500113626379479648 ) ) ;
#406 = EDGE_CURVE ( 'NONE', #300, #300, #519, .T. ) ;
#407 = CIRCLE ( 'NONE', #674, 7.999999999999996447 ) ;
#408 = CARTESIAN_POINT ( 'NONE',  ( 24.39802509478388970, 2.075269881138827710, 4.569050671578614775 ) ) ;
#409 = VERTEX_POINT ( 'NONE', #460 ) ;
#410 = CARTESIAN_POINT ( 'NONE',  ( 27.99999999999999645, 0.000000000000000000, 0.000000000000000000 ) ) ;
#411 = CARTESIAN_POINT ( 'NONE',  ( 23.40082014428570290, 0.6296424675795305737, -4.999568945737404846 ) ) ;
#412 = CARTESIAN_POINT ( 'NONE',  ( 26.46617312354953455, -2.070182092660245221, 4.551343148222221302 ) ) ;
#413 = DIRECTION ( 'NONE',  ( 0.000000000000000000, 0.000000000000000000, 1.000000000000000000 ) ) ;
#414 = CARTESIAN_POINT ( 'NONE',  ( 26.33915269412356963, -1.423738842440495533, -4.111664476277375080 ) ) ;
#415 = CARTESIAN_POINT ( 'NONE',  ( 27.60063683691251413, -0.6232664290970075793, 5.000281719571362693 ) ) ;
#416 = CARTESIAN_POINT ( 'NONE',  ( 26.49609064263959368, 2.052445203071600499, -4.559327657493850161 ) ) ;
#417 = CARTESIAN_POINT ( 'NONE',  ( 26.67461087529631314, -1.086858213633570491, -4.268191828578219216 ) ) ;
#418 = CARTESIAN_POINT ( 'NONE',  ( 24.86018752664578457, -2.220718670825186702, 4.479795866273578397 ) ) ;
#419 = DIRECTION ( 'NONE',  ( -1.000000000000000000, -0.000000000000000000, -0.000000000000000000 ) ) ;
#420 = EDGE_CURVE ( 'NONE', #614, #614, #330, .T. ) ;
#421 = CARTESIAN_POINT ( 'NONE',  ( 24.46627442766671479, -1.221676750135058276, -4.205098837193489203 ) ) ;
#422 = DIRECTION ( 'NONE',  ( 0.000000000000000000, 0.000000000000000000, -1.000000000000000000 ) ) ;
#423 = CARTESIAN_POINT ( 'NONE',  ( 27.54902026390636749, 0.6181897674301756185, -4.969548767955171087 ) ) ;
#424 = CARTESIAN_POINT ( 'NONE',  ( 23.90000304443106316, 0.003121244966707036484, -4.499998189827701722 ) ) ;
#425 = CARTESIAN_POINT ( 'NONE',  ( 23.80953500482111451, 1.421239956330620613, 4.799859854925915492 ) ) ;
#426 = CARTESIAN_POINT ( 'NONE',  ( 27.08322010402073232, 1.534359059373654244, -4.758854065380887732 ) ) ;
#427 = CARTESIAN_POINT ( 'NONE',  ( 26.96666002588237632, -0.6479955009081805883, -4.415688075099636123 ) ) ;
#428 = EDGE_CURVE ( 'NONE', #347, #347, #40, .T. ) ;
#429 = CYLINDRICAL_SURFACE ( 'NONE', #311, 4.999999999999998224 ) ;
#430 = EDGE_LOOP ( 'NONE', ( #60 ) ) ;
#431 = COLOUR_RGB ( '',0.7921568627450980005, 0.8196078431372548767, 0.9333333333333333481 ) ;
#432 = CARTESIAN_POINT ( 'NONE',  ( 23.74542914439404129, -1.288755914541652059, -4.831056633153237634 ) ) ;
#433 = CARTESIAN_POINT ( 'NONE',  ( 24.94230653273998399, 2.334593630006921217, -4.421533777811932353 ) ) ;
#434 = AXIS2_PLACEMENT_3D ( 'NONE', #208, #49, #470 ) ;
#435 = CARTESIAN_POINT ( 'NONE',  ( 24.19221198051087640, 1.828497085804418498, 4.654167235180583617 ) ) ;
#436 = EDGE_LOOP ( 'NONE', ( #246 ) ) ;
#437 = CARTESIAN_POINT ( 'NONE',  ( 26.17485563297112705, -2.208282247285156874, -4.485945954884548392 ) ) ;
#438 = CARTESIAN_POINT ( 'NONE',  ( 24.30523632105242271, 1.064208509394498625, -4.277775915598224898 ) ) ;
#439 = CARTESIAN_POINT ( 'NONE',  ( 23.40031350379856079, -0.04429984965871000546, 4.999813595262925681 ) ) ;
#440 = CARTESIAN_POINT ( 'NONE',  ( 24.38616128055954491, -1.978701905165084263, -4.592033826453085332 ) ) ;
#441 = CARTESIAN_POINT ( 'NONE',  ( 25.35490537254688448, 1.600233266778479990, -3.979786661365852574 ) ) ;
#442 = CARTESIAN_POINT ( 'NONE',  ( 23.42619588958055488, -0.3929162543538834429, 4.985099430755651539 ) ) ;
#443 = CARTESIAN_POINT ( 'NONE',  ( 25.63523500573992919, -2.333681899386533587, -4.421982468155577273 ) ) ;
#444 = CARTESIAN_POINT ( 'NONE',  ( 26.91897233963649327, 0.7483402572492950933, 4.389398459272049635 ) ) ;
#445 = EDGE_CURVE ( 'NONE', #463, #463, #604, .T. ) ;
#446 = AXIS2_PLACEMENT_3D ( 'NONE', #402, #252, #515 ) ;
#447 = CARTESIAN_POINT ( 'NONE',  ( 25.49813311901868573, -2.333332352730478565, -4.422166904550441480 ) ) ;
#448 = CARTESIAN_POINT ( 'NONE',  ( 26.63041589343763249, 1.132325000988496422, 4.247502768621310487 ) ) ;
#449 = CARTESIAN_POINT ( 'NONE',  ( 27.10000000000000142, 1.626303258728256651E-16, 4.500000054540269190 ) ) ;
#450 = DIRECTION ( 'NONE',  ( 1.000000000000000000, 0.000000000000000000, 0.000000000000000000 ) ) ;
#451 = CARTESIAN_POINT ( 'NONE',  ( 26.82673612535721475, 0.8961836664381215289, 4.342091772529155236 ) ) ;
#452 = EDGE_CURVE ( 'NONE', #458, #458, #332, .T. ) ;
#453 = CARTESIAN_POINT ( 'NONE',  ( 27.59936310854721953, 0.6232664290970075793, 4.999718280428635531 ) ) ;
#454 = CARTESIAN_POINT ( 'NONE',  ( 0.000000000000000000, 0.000000000000000000, 0.000000000000000000 ) ) ;
#455 = ADVANCED_BREP_SHAPE_REPRESENTATION ( 'ISO 2341 - B - 10 x 26 x 3.2 - St_ISO 2341 - B - 10 x 26 x 3.2 - St', ( #273, #626 ), #288 ) ;
#456 = CARTESIAN_POINT ( 'NONE',  ( 24.66933372757796405, 1.367477072517302439, 4.130872034377339297 ) ) ;
#457 = CARTESIAN_POINT ( 'NONE',  ( 25.50000000000000000, 0.000000000000000000, -5.000000000000000000 ) ) ;
#458 = VERTEX_POINT ( 'NONE', #673 ) ;
#459 = CARTESIAN_POINT ( 'NONE',  ( 26.48359263746947789, -1.261960983357188315, 4.185140976148671754 ) ) ;
#460 = CARTESIAN_POINT ( 'NONE',  ( 27.59999997272986505, -1.224646799147352862E-15, 4.999999999999998224 ) ) ;
#461 = CARTESIAN_POINT ( 'NONE',  ( 25.35490537254704790, -1.600233266778479546, 3.979786661365713130 ) ) ;
#462 = CARTESIAN_POINT ( 'NONE',  ( 25.92629102207492409, -1.600807795935545341, -3.979413181209943140 ) ) ;
#463 = VERTEX_POINT ( 'NONE', #304 ) ;
#464 = CARTESIAN_POINT ( 'NONE',  ( 24.37023420377883198, -1.132973629741115928, 4.247204799103000639 ) ) ;
#465 = CARTESIAN_POINT ( 'NONE',  ( 24.07860445236719826, 0.8424770726995359782, -4.382930018737134503 ) ) ;
#466 = CARTESIAN_POINT ( 'NONE',  ( 26.88713205267899298, -1.758575526392740507, 4.681940179856837858 ) ) ;
#467 = CARTESIAN_POINT ( 'NONE',  ( 24.30523632105202125, -1.064208509394050095, 4.277775915598335033 ) ) ;
#468 = SURFACE_SIDE_STYLE ('',( #94 ) ) ;
#469 = CARTESIAN_POINT ( 'NONE',  ( 8.673617379926991414E-18, 0.000000000000000000, 0.000000000000000000 ) ) ;
#470 = DIRECTION ( 'NONE',  ( 0.000000000000000000, 0.000000000000000000, 1.000000000000000000 ) ) ;
#471 = CARTESIAN_POINT ( 'NONE',  ( 25.23042798789250440, -2.318957655892838865, 4.429851117232988855 ) ) ;
#472 = CARTESIAN_POINT ( 'NONE',  ( 26.67003498573162901, 1.936978587216824144, -4.609567653550980637 ) ) ;
#473 = CARTESIAN_POINT ( 'NONE',  ( 23.99640976293949279, -0.5470067632272356262, -4.437160390483616546 ) ) ;
#474 = CARTESIAN_POINT ( 'NONE',  ( 24.27662358648132468, -1.897622977828459234, 4.626127602798877803 ) ) ;
#475 = CARTESIAN_POINT ( 'NONE',  ( 27.00891579092266781, 1.623257911954832933, -4.729255304420305173 ) ) ;
#476 = CARTESIAN_POINT ( 'NONE',  ( 24.77192713130021318, -1.429796859779376650, -4.097410176799012760 ) ) ;
#477 = CARTESIAN_POINT ( 'NONE',  ( 23.40020593271574967, 0.03521179816702185023, 4.999885931955563301 ) ) ;
#478 = CARTESIAN_POINT ( 'NONE',  ( 24.89368983166117388, 2.232122585774794388, -4.474106476389898113 ) ) ;
#479 = CARTESIAN_POINT ( 'NONE',  ( 24.36860814591613789, -1.131349845323137204, -4.247950378906356406 ) ) ;
#480 = CARTESIAN_POINT ( 'NONE',  ( 26.52477846007627704, 2.038111231715928451, 4.566035540495375855 ) ) ;
#481 = DIRECTION ( 'NONE',  ( 0.000000000000000000, 0.000000000000000000, 1.000000000000000000 ) ) ;
#482 = B_SPLINE_SURFACE_WITH_KNOTS ( 'NONE', 1, 3, ( 
 ( #144, #627, #363, #414, #462, #577, #610, #195, #249, #141, #465, #179, #360, #284, #357, #497, #581, #388 ),
 ( #129, #340, #78, #631, #502, #90, #622, #686, #569, #411, #302, #149, #433, #317, #155, #637, #372, #255 ) ),
 .UNSPECIFIED., .F., .T., .F.,
 ( 2, 2 ),
 ( 4, 2, 2, 2, 2, 2, 2, 2, 4 ),
 ( 0.000000000000000000, 1.000000000000000000 ),
 ( -0.01323381773489659338, -0.01156845339258769784, -0.009903089050278802291, -0.008237724707969906746, -0.006572360365661012935, -0.004906996023352117389, -0.003241631681043222711, -0.001576267338734327599, 8.909700357456751263E-05 ),
 .UNSPECIFIED. ) ;
#483 = CARTESIAN_POINT ( 'NONE',  ( 24.17370982125905599, 0.8968422755706102478, -4.341886884072675201 ) ) ;
#484 = FACE_OUTER_BOUND ( 'NONE', #595, .T. ) ;
#485 = CIRCLE ( 'NONE', #275, 9.000000000000001776 ) ;
#486 = CARTESIAN_POINT ( 'NONE',  ( 23.87058384263977473, -1.473839632678277223, -4.777844360917038458 ) ) ;
#487 = APPLICATION_CONTEXT ( 'automotive_design' ) ;
#488 = CARTESIAN_POINT ( 'NONE',  ( 27.09999999999999787, -3.918869757271534898E-16, -4.500000054540270078 ) ) ;
#489 = CARTESIAN_POINT ( 'NONE',  ( 24.95522039320792373, 2.253275744346125986, 4.463563468776170495 ) ) ;
#490 = ORIENTED_EDGE ( 'NONE', *, *, #406, .T. ) ;
#491 = CARTESIAN_POINT ( 'NONE',  ( 24.11733175867098211, 1.756635932776969833, -4.681342594721786377 ) ) ;
#492 = CARTESIAN_POINT ( 'NONE',  ( 24.32597938341622523, 1.087496293023029637, -4.267913799645925543 ) ) ;
#493 = CARTESIAN_POINT ( 'NONE',  ( 23.65561394068051015, 1.168376226615842395, 4.869686716215554156 ) ) ;
#494 = ORIENTED_EDGE ( 'NONE', *, *, #420, .T. ) ;
#495 = CARTESIAN_POINT ( 'NONE',  ( 24.53418896188278353, -2.070487571512360958, -4.551204284737065286 ) ) ;
#496 = CARTESIAN_POINT ( 'NONE',  ( 25.17370498125955791, 1.580321527878674415, -4.001974464856899338 ) ) ;
#497 = CARTESIAN_POINT ( 'NONE',  ( 26.92227873804072757, 0.8411184045212266591, -4.383465168303427362 ) ) ;
#498 = CARTESIAN_POINT ( 'NONE',  ( 25.90626756005924847, -2.288825026437750765, -4.445366126468348611 ) ) ;
#499 = AXIS2_PLACEMENT_3D ( 'NONE', #296, #88, #393 ) ;
#500 = AXIS2_PLACEMENT_3D ( 'NONE', #457, #91, #563 ) ;
#501 = CARTESIAN_POINT ( 'NONE',  ( 27.00266601124916477, 0.5495405887070811124, 4.436729515592883644 ) ) ;
#502 = CARTESIAN_POINT ( 'NONE',  ( 26.05950305492637753, -2.334511302263308608, -4.421570151905050317 ) ) ;
#503 = FACE_OUTER_BOUND ( 'NONE', #229, .T. ) ;
#504 = CARTESIAN_POINT ( 'NONE',  ( 3.999999999999999112, 0.000000000000000000, 9.000000000000001776 ) ) ;
#505 = PRODUCT ( 'ISO 2341 - B - 10 x 26 x 3.2 - St_ISO 2341 - B - 10 x 26 x 3.2 - St', 'ISO 2341 - B - 10 x 26 x 3.2 - St_ISO 2341 - B - 10 x 26 x 3.2 - St', '', ( #101 ) ) ;
#506 = CARTESIAN_POINT ( 'NONE',  ( 26.73585092999562107, 1.016661344913359910, 4.297421358242404565 ) ) ;
#507 = CARTESIAN_POINT ( 'NONE',  ( 27.10048523544429955, -0.4273876237571279657, 4.500253605075672070 ) ) ;
#508 = CARTESIAN_POINT ( 'NONE',  ( 24.17370982125808965, -0.8968422755691997095, 4.341886884072986952 ) ) ;
#509 = CARTESIAN_POINT ( 'NONE',  ( 23.89938123158740879, 0.4255166345989496723, 4.500384277810208111 ) ) ;
#510 = CARTESIAN_POINT ( 'NONE',  ( 24.87477654006446670, 1.476495025002872996, 4.069512576486522093 ) ) ;
#511 = CONICAL_SURFACE ( 'NONE', #434, 4.999999999999997335, 0.5235987755983001479 ) ;
#512 = ORIENTED_EDGE ( 'NONE', *, *, #406, .F. ) ;
#513 =( LENGTH_UNIT ( ) NAMED_UNIT ( * ) SI_UNIT ( .MILLI., .METRE. ) );
#514 = CARTESIAN_POINT ( 'NONE',  ( 24.20791789569182839, -0.9456411603587198123, 4.324788701870550867 ) ) ;
#515 = DIRECTION ( 'NONE',  ( 0.000000000000000000, 0.000000000000000000, 1.000000000000000000 ) ) ;
#516 = FACE_OUTER_BOUND ( 'NONE', #328, .T. ) ;
#517 = VERTEX_POINT ( 'NONE', #620 ) ;
#518 = CARTESIAN_POINT ( 'NONE',  ( 30.00000000000000000, 3.845299461620741432, 0.000000000000000000 ) ) ;
#519 = B_SPLINE_CURVE_WITH_KNOTS ( 'NONE', 3,
 ( #164, #320, #322, #107, #427, #590, #539, #262, #6, #369, #52, #12, #532, #417, #536, #266, #217, #690, #221, #105, #593, #161, #529, #652, #366, #56, #476, #58, #214, #3, #584, #158, #421, #102, #375, #313, #479, #315, #259, #473, #211, #640, #424, #378, #168, #9, #643, #113, #62, #483, #646, #71, #597, #391, #438, #492, #613, #542, #27, #67, #128, #496, #441, #132, #384, #81, #546, #124, #656, #171, #387, #274, #339, #381, #609, #555, #601, #237, #606, #336, #287, #182, #326, #233, #488 ),
 .UNSPECIFIED., .T., .F.,
 ( 4, 3, 3, 3, 3, 3, 3, 3, 3, 3, 3, 3, 3, 3, 3, 3, 3, 3, 3, 3, 3, 3, 3, 3, 3, 3, 3, 3, 4 ),
 ( 0.000000000000000000, 0.03571428571428571230, 0.07142857142857142461, 0.1071428571428571369, 0.1428571428571428492, 0.1785714285714285754, 0.2142857142857142738, 0.2500000000000000000, 0.2857142857142856984, 0.3214285714285714524, 0.3571428571428571508, 0.3928571428571428492, 0.4285714285714285476, 0.4642857142857143016, 0.5000000000000000000, 0.5357142857142856984, 0.5714285714285713969, 0.6071428571428570953, 0.6428571428571429047, 0.6785714285714286031, 0.7142857142857143016, 0.7500000000000000000, 0.7857142857142856984, 0.8214285714285713969, 0.8571428571428570953, 0.8928571428571429047, 0.9285714285714286031, 0.9642857142857143016, 1.000000000000000000 ),
 .UNSPECIFIED. ) ;
#520 = CARTESIAN_POINT ( 'NONE',  ( 26.50872608363900085, -1.242371572168883054, 4.194891345083927803 ) ) ;
#521 = FILL_AREA_STYLE_COLOUR ( '', #431 ) ;
#522 = MECHANICAL_DESIGN_GEOMETRIC_PRESENTATION_REPRESENTATION (  '', ( #134 ), #201 ) ;
#523 = CARTESIAN_POINT ( 'NONE',  ( 27.31762814005112006, -1.176841675815682331, 4.861254632299337963 ) ) ;
#524 = CARTESIAN_POINT ( 'NONE',  ( 24.69341104704084344, 2.151849874063526347, -4.513262912737609156 ) ) ;
#525 = FACE_OUTER_BOUND ( 'NONE', #619, .T. ) ;
#526 = EDGE_CURVE ( 'NONE', #241, #241, #198, .T. ) ;
#527 = CARTESIAN_POINT ( 'NONE',  ( 25.36639732919448420, -2.333699761791116600, 4.421973043372198653 ) ) ;
#528 = CARTESIAN_POINT ( 'NONE',  ( 27.44644677566375535, 0.8939826083812565383, -4.919430362949741564 ) ) ;
#529 = CARTESIAN_POINT ( 'NONE',  ( 25.35110816445669002, -1.599868268696932105, -3.980102890307452235 ) ) ;
#530 = CARTESIAN_POINT ( 'NONE',  ( 24.44568074531271407, -2.022196807069234659, 4.573711657605881165 ) ) ;
#531 = CARTESIAN_POINT ( 'NONE',  ( 25.77724553496544857, 2.332591411298069684, -4.422557857836989292 ) ) ;
#532 = CARTESIAN_POINT ( 'NONE',  ( 26.69532970538695693, -1.063572703400915698, -4.278044342119079246 ) ) ;
#533 = CARTESIAN_POINT ( 'NONE',  ( 26.60237716348362014, -2.074012008768743698, 4.569067723507411749 ) ) ;
#534 = ADVANCED_FACE ( 'NONE', ( #99, #48 ), #213, .T. ) ;
#535 = CARTESIAN_POINT ( 'NONE',  ( 27.03509400542607466, 1.592903279201414168, -4.739578977270406668 ) ) ;
#536 = CARTESIAN_POINT ( 'NONE',  ( 26.65438948632354510, -1.108391827741081581, -4.258669924098517967 ) ) ;
#537 = CARTESIAN_POINT ( 'NONE',  ( 27.59984300612283903, 0.1536151966555921455, 5.000000000000002665 ) ) ;
#538 = CARTESIAN_POINT ( 'NONE',  ( 4.599999999999999645, 0.000000000000000000, 0.000000000000000000 ) ) ;
#539 = CARTESIAN_POINT ( 'NONE',  ( 26.85748153011654793, -0.8469025300425297997, -4.357860668110119740 ) ) ;
#540 = CARTESIAN_POINT ( 'NONE',  ( 23.40008377298969933, -0.02445450751627577593, 4.999950043862225080 ) ) ;
#541 = CARTESIAN_POINT ( 'NONE',  ( 24.50420959425655099, -2.052730671469277013, -4.559199139148154778 ) ) ;
#542 = CARTESIAN_POINT ( 'NONE',  ( 24.37023420377883198, 1.132973629741116151, -4.247204799102998862 ) ) ;
#543 = CARTESIAN_POINT ( 'NONE',  ( 27.58600967012712601, 0.3062348232998409192, 4.992893760745726439 ) ) ;
#544 = ORIENTED_EDGE ( 'NONE', *, *, #526, .F. ) ;
#545 = CARTESIAN_POINT ( 'NONE',  ( 23.39952648150362435, -0.3151601819203513899, -5.000288982220402190 ) ) ;
#546 = CARTESIAN_POINT ( 'NONE',  ( 26.02739077257890443, 1.510582329103127730, -4.047163554838271615 ) ) ;
#547 = AXIS2_PLACEMENT_3D ( 'NONE', #15, #343, #77 ) ;
#548 = EDGE_CURVE ( 'NONE', #517, #517, #185, .T. ) ;
#549 = CARTESIAN_POINT ( 'NONE',  ( 23.40002978868876937, 0.01529196300493988400, 4.999986535818462308 ) ) ;
#550 = ORIENTED_EDGE ( 'NONE', *, *, #602, .T. ) ;
#551 = CARTESIAN_POINT ( 'NONE',  ( 24.68969327043769013, -2.150345551648863207, -4.513979841393172876 ) ) ;
#552 = CARTESIAN_POINT ( 'NONE',  ( 26.75475086363526955, 0.9927740277659090617, 4.306617849866471559 ) ) ;
#553 = CARTESIAN_POINT ( 'NONE',  ( 23.41090961180745822, 0.2709178347249204810, 4.993713615507848758 ) ) ;
#554 = CARTESIAN_POINT ( 'NONE',  ( 26.88716850925253254, -1.758721643014853120, -4.681863791934876673 ) ) ;
#555 = CARTESIAN_POINT ( 'NONE',  ( 26.55827104974442321, 1.200025993582156225, -4.215434561274511438 ) ) ;
#556 = DIRECTION ( 'NONE',  ( -1.000000000000000000, -0.000000000000000000, -0.000000000000000000 ) ) ;
#557 = FACE_OUTER_BOUND ( 'NONE', #654, .T. ) ;
#558 = CARTESIAN_POINT ( 'NONE',  ( 24.14318287299500199, 1.781323681328201403, -4.671995555281417190 ) ) ;
#559 = AXIS2_PLACEMENT_3D ( 'NONE', #583, #365, #269 ) ;
#560 = CARTESIAN_POINT ( 'NONE',  ( 26.79255073091456296, 0.9449993934710070320, 4.325010833114606434 ) ) ;
#561 = CARTESIAN_POINT ( 'NONE',  ( 24.07860445236719826, -0.8424770726995359782, 4.382930018737135391 ) ) ;
#562 = CARTESIAN_POINT ( 'NONE',  ( 24.39120036410607284, 1.153942902396901893, 4.237433874002483947 ) ) ;
#563 = DIRECTION ( 'NONE',  ( 1.000000000000000000, 0.000000000000000000, 0.000000000000000000 ) ) ;
#564 = DIRECTION ( 'NONE',  ( -1.000000000000000000, -0.000000000000000000, -0.000000000000000000 ) ) ;
#565 = CARTESIAN_POINT ( 'NONE',  ( 23.92570137178213940, -0.3541033883418853723, 4.478758919106311964 ) ) ;
#566 = PLANE ( 'NONE',  #24 ) ;
#567 = CARTESIAN_POINT ( 'NONE',  ( 27.54478690652653583, -0.6090911190191377056, -4.971589733848884585 ) ) ;
#568 = AXIS2_PLACEMENT_3D ( 'NONE', #207, #258, #413 ) ;
#569 = CARTESIAN_POINT ( 'NONE',  ( 23.39918790188599118, -0.6205388366551874979, -5.000426910456937435 ) ) ;
#570 = ORIENTED_EDGE ( 'NONE', *, *, #452, .F. ) ;
#571 = CARTESIAN_POINT ( 'NONE',  ( 3.999999999999999112, 0.000000000000000000, 0.000000000000000000 ) ) ;
#572 = CARTESIAN_POINT ( 'NONE',  ( 26.81159266688942822, -0.9512377102168937393, 4.331972599967540027 ) ) ;
#573 = CARTESIAN_POINT ( 'NONE',  ( 0.000000000000000000, 0.000000000000000000, 0.000000000000000000 ) ) ;
#574 = CARTESIAN_POINT ( 'NONE',  ( 27.59999997272987571, -1.219727444046192488E-15, 5.000000000000000000 ) ) ;
#575 = VERTEX_POINT ( 'NONE', #504 ) ;
#576 = CARTESIAN_POINT ( 'NONE',  ( 26.02739077257867351, -1.510582329103209220, 4.047163554838483002 ) ) ;
#577 = CARTESIAN_POINT ( 'NONE',  ( 25.07086420686899331, -1.599190939576338844, -3.980487343455322069 ) ) ;
#578 = PLANE ( 'NONE',  #199 ) ;
#579 = CARTESIAN_POINT ( 'NONE',  ( 25.23042798789392549, 2.318957655893070235, -4.429851117232868063 ) ) ;
#580 = ADVANCED_FACE ( 'NONE', ( #244, #29 ), #344, .F. ) ;
#581 = CARTESIAN_POINT ( 'NONE',  ( 27.10048523544429955, 0.4273876237571277992, -4.500253605075674734 ) ) ;
#582 = CARTESIAN_POINT ( 'NONE',  ( 26.04734826563358752, -2.272697172513049146, 4.455706864853697269 ) ) ;
#583 = CARTESIAN_POINT ( 'NONE',  ( 0.000000000000000000, 0.000000000000000000, 0.000000000000000000 ) ) ;
#584 = CARTESIAN_POINT ( 'NONE',  ( 24.51645095613828218, -1.261994959704161090, -4.185238013692864634 ) ) ;
#585 = CARTESIAN_POINT ( 'NONE',  ( 24.72530736628266723, -2.166590621838068831, 4.506234765506759388 ) ) ;
#586 = CARTESIAN_POINT ( 'NONE',  ( 26.37410357818463069, 2.119676562083053550, -4.528497787218120685 ) ) ;
#587 = FACE_BOUND ( 'NONE', #79, .T. ) ;
#588 = CARTESIAN_POINT ( 'NONE',  ( 24.04283866537042869, -1.680690231308118010, 4.709160025105389558 ) ) ;
#589 = CARTESIAN_POINT ( 'NONE',  ( 26.34398431804570251, 2.134638351711941162, -4.521460803381686766 ) ) ;
#590 = CARTESIAN_POINT ( 'NONE',  ( 26.91897233963602076, -0.7483402572501609562, -4.389398459272049635 ) ) ;
#591 = CARTESIAN_POINT ( 'NONE',  ( 27.31646490627710833, 1.177470343308665734, 4.861106747399912109 ) ) ;
#592 = CARTESIAN_POINT ( 'NONE',  ( 24.72530736628268144, 2.166590621838001773, -4.506234765506791362 ) ) ;
#593 = CARTESIAN_POINT ( 'NONE',  ( 25.64604706448722737, -1.600130466814952745, -3.979797634357812974 ) ) ;
#594 = CARTESIAN_POINT ( 'NONE',  ( 26.61204016232310110, 1.980364906103315725, 4.591316956783283665 ) ) ;
#595 = EDGE_LOOP ( 'NONE', ( #570 ) ) ;
#596 = CARTESIAN_POINT ( 'NONE',  ( 23.66842923553444322, -1.162360524918698346, -4.864774475504644258 ) ) ;
#597 = CARTESIAN_POINT ( 'NONE',  ( 24.26467025807180633, 1.017294829838984338, -4.297171891290047618 ) ) ;
#598 = CARTESIAN_POINT ( 'NONE',  ( 26.04233082588264026, 2.274743355077440299, 4.454670046232481972 ) ) ;
#599 = ORIENTED_EDGE ( 'NONE', *, *, #225, .F. ) ;
#600 = CARTESIAN_POINT ( 'NONE',  ( 24.56582577007349144, 2.092886882965625528, -4.541375501660877667 ) ) ;
#601 = CARTESIAN_POINT ( 'NONE',  ( 26.58288941206717482, 1.178315713740200721, -4.225879915756530991 ) ) ;
#602 = EDGE_CURVE ( 'NONE', #575, #575, #485, .T. ) ;
#603 = CARTESIAN_POINT ( 'NONE',  ( 27.48638801649892471, 0.7542427869419845443, 4.943348881135011474 ) ) ;
#604 = CIRCLE ( 'NONE', #616, 4.999999999999997335 ) ;
#605 = CARTESIAN_POINT ( 'NONE',  ( 23.96447971267295785, -1.592333577764189156, -4.739770869670727471 ) ) ;
#606 = CARTESIAN_POINT ( 'NONE',  ( 26.63109261908751080, 1.131649012302733848, -4.247813103040694926 ) ) ;
#607 = CARTESIAN_POINT ( 'NONE',  ( 24.27374877032968925, 1.895526330111359181, 4.626987799851558059 ) ) ;
#608 = CARTESIAN_POINT ( 'NONE',  ( 24.22213126325579680, 1.853007134938337241, -4.644242743740636392 ) ) ;
#609 = CARTESIAN_POINT ( 'NONE',  ( 26.53365268742166805, 1.221736273424111729, -4.204989206792492773 ) ) ;
#610 = CARTESIAN_POINT ( 'NONE',  ( 24.66040004042168476, -1.423042219051524615, -4.112145663983565846 ) ) ;
#611 = PLANE ( 'NONE',  #108 ) ;
#612 = CARTESIAN_POINT ( 'NONE',  ( 26.98367084087027479, -1.651307251650768082, -4.719447463490357819 ) ) ;
#613 = CARTESIAN_POINT ( 'NONE',  ( 24.34627314304958645, 1.109080410920775250, -4.258361022530068318 ) ) ;
#614 = VERTEX_POINT ( 'NONE', #681 ) ;
#615 = CARTESIAN_POINT ( 'NONE',  ( 24.28449325868809794, -1.040920725765371646, 4.287638031550668138 ) ) ;
#616 = AXIS2_PLACEMENT_3D ( 'NONE', #410, #419, #481 ) ;
#617 = CARTESIAN_POINT ( 'NONE',  ( 26.33990650013429757, -1.422179620084241813, 4.112161037777962491 ) ) ;
#618 = CARTESIAN_POINT ( 'NONE',  ( 26.12602658562807889, -1.476145531686855916, 4.069485377457545461 ) ) ;
#619 = EDGE_LOOP ( 'NONE', ( #180 ) ) ;
#620 = CARTESIAN_POINT ( 'NONE',  ( 27.59999997272986505, 6.123233995736764310E-16, -4.999999999999998224 ) ) ;
#621 = CARTESIAN_POINT ( 'NONE',  ( 25.17370498126139111, -1.580321527879052779, 4.001974464856689728 ) ) ;
#622 = CARTESIAN_POINT ( 'NONE',  ( 24.39802509478388970, -2.075269881138821493, -4.569050671578616551 ) ) ;
#623 = FACE_BOUND ( 'NONE', #243, .T. ) ;
#624 = VERTEX_POINT ( 'NONE', #142 ) ;
#625 = CARTESIAN_POINT ( 'NONE',  ( 24.32597938341594457, -1.087496293022728322, 4.267913799646001927 ) ) ;
#626 = AXIS2_PLACEMENT_3D ( 'NONE', #454, #349, #450 ) ;
#627 = CARTESIAN_POINT ( 'NONE',  ( 27.09951476455570685, -0.4273876237571275771, -4.499746504004866310 ) ) ;
#628 = CARTESIAN_POINT ( 'NONE',  ( 23.63207132681247913, 1.224500418210153763, 4.870838944912367019 ) ) ;
#629 = CARTESIAN_POINT ( 'NONE',  ( 27.43495272578796573, -0.9003859351109306797, -4.918262413480435136 ) ) ;
#630 = CARTESIAN_POINT ( 'NONE',  ( 24.49125928752570758, 1.242361567837853009, 4.194994542403799542 ) ) ;
#631 = CARTESIAN_POINT ( 'NONE',  ( 26.60138779271990828, -2.076285875397356762, -4.568515988315207110 ) ) ;
#632 = CARTESIAN_POINT ( 'NONE',  ( 24.94230653273998399, -2.334593630006921217, 4.421533777811932353 ) ) ;
#633 = CARTESIAN_POINT ( 'NONE',  ( 27.25404472638441078, 1.290049166130166514, -4.830711453706052261 ) ) ;
#634 = DIRECTION ( 'NONE',  ( 0.000000000000000000, 0.000000000000000000, 1.000000000000000000 ) ) ;
#635 = CARTESIAN_POINT ( 'NONE',  ( 27.58655513632895762, -0.3058552201861062803, 4.992916616488586534 ) ) ;
#636 = CARTESIAN_POINT ( 'NONE',  ( 26.04734826563790051, 2.272697172512707198, -4.455706864853860694 ) ) ;
#637 = CARTESIAN_POINT ( 'NONE',  ( 27.36674092306479267, 1.226630860915486565, -4.870516835508020392 ) ) ;
#638 = CARTESIAN_POINT ( 'NONE',  ( 27.54551427739448144, -0.5312265806490188425, 4.972272041908271767 ) ) ;
#639 = CARTESIAN_POINT ( 'NONE',  ( 27.21555408201861326, 1.353093393157803082, -4.813875392747799964 ) ) ;
#640 = CARTESIAN_POINT ( 'NONE',  ( 23.89968436348640424, -0.1602393841050401002, -4.500113626379790510 ) ) ;
#641 = CARTESIAN_POINT ( 'NONE',  ( 24.11733175867101053, -1.756635932776747788, 4.681342594721869865 ) ) ;
#642 = CARTESIAN_POINT ( 'NONE',  ( 27.10648019879898030, 1.504711432907865909, -4.768315296961770144 ) ) ;
#643 = CARTESIAN_POINT ( 'NONE',  ( 24.03374135395868549, 0.6488735840054362658, -4.415560571424669511 ) ) ;
#644 = CARTESIAN_POINT ( 'NONE',  ( 24.82196310455822896, 2.206659859387646971, 4.486744155014744884 ) ) ;
#645 = CARTESIAN_POINT ( 'NONE',  ( 26.98455904327420640, 1.650321434842114465, -4.719792279507716515 ) ) ;
#646 = CARTESIAN_POINT ( 'NONE',  ( 24.20791789569268815, 0.9456411603598753324, -4.324788701870286189 ) ) ;
#647 = PRODUCT_DEFINITION_FORMATION_WITH_SPECIFIED_SOURCE ( 'Symmetric', '', #505, .NOT_KNOWN. ) ;
#648 = CLOSED_SHELL ( 'NONE', ( #31, #176, #534, #42, #580, #234, #351, #145, #63, #110, #298 ) ) ;
#649 = CARTESIAN_POINT ( 'NONE',  ( 24.72151444664304520, 2.165124283091244717, 4.506939664687571678 ) ) ;
#650 = CARTESIAN_POINT ( 'NONE',  ( 24.59554956474118370, -2.103760111977218905, -4.535878458606842578 ) ) ;
#651 = UNCERTAINTY_MEASURE_WITH_UNIT (LENGTH_MEASURE( 1.000000000000000082E-05 ), #513, 'distance_accuracy_value', 'NONE');
#652 = CARTESIAN_POINT ( 'NONE',  ( 25.17111473584430925, -1.579747517127087386, -4.002512547342671922 ) ) ;
#653 = CARTESIAN_POINT ( 'NONE',  ( 23.40080808091681064, -0.07401033741080054185, 4.999520698207303937 ) ) ;
#654 = EDGE_LOOP ( 'NONE', ( #389 ) ) ;
#655 = CARTESIAN_POINT ( 'NONE',  ( 24.32994085892292091, -1.937104844572606233, -4.609514597127698288 ) ) ;
#656 = CARTESIAN_POINT ( 'NONE',  ( 26.22868014611515619, 1.429467528255101483, -4.097367084450400654 ) ) ;
#657 = CARTESIAN_POINT ( 'NONE',  ( 23.40001559770290740, -0.01230097088334804536, 4.999990873549155168 ) ) ;
#658 = ORIENTED_EDGE ( 'NONE', *, *, #225, .T. ) ;
#659 = CARTESIAN_POINT ( 'NONE',  ( 26.14143903313667749, -2.220666519557330965, -4.479821721066456597 ) ) ;
#660 = CARTESIAN_POINT ( 'NONE',  ( 26.65438948632368721, 1.108391827740939029, 4.258669924098554382 ) ) ;
#661 = CARTESIAN_POINT ( 'NONE',  ( 25.02224775249450772, 2.272240395013772840, 4.453898836216122703 ) ) ;
#662 = ORIENTED_EDGE ( 'NONE', *, *, #452, .T. ) ;
#663 = CARTESIAN_POINT ( 'NONE',  ( 26.43563726929549773, -2.092770142238838726, -4.541430313582778489 ) ) ;
#664 = CARTESIAN_POINT ( 'NONE',  ( 25.82684700113303222, 1.580202836314741566, 4.002016691940771587 ) ) ;
#665 = FACE_OUTER_BOUND ( 'NONE', #436, .T. ) ;
#666 = B_SPLINE_SURFACE_WITH_KNOTS ( 'NONE', 1, 3, ( 
 ( #449, #137, #235, #82, #84, #188, #299, #670, #509, #26, #561, #183, #392, #395, #617, #292, #507, #28 ),
 ( #238, #453, #672, #186, #196, #50, #408, #628, #95, #146, #100, #361, #632, #264, #533, #1, #415, #54 ) ),
 .UNSPECIFIED., .F., .T., .F.,
 ( 2, 2 ),
 ( 4, 2, 2, 2, 2, 2, 2, 2, 4 ),
 ( 0.000000000000000000, 1.000000000000000000 ),
 ( -0.01323381773489659165, -0.01156845339258769784, -0.009903089050278802291, -0.008237724707969906746, -0.006572360365661012067, -0.004906996023352117389, -0.003241631681043222277, -0.001576267338734327382, 8.909700357456751263E-05 ),
 .UNSPECIFIED. ) ;
#667 = CARTESIAN_POINT ( 'NONE',  ( 23.82564733157241577, -1.413650560690305147, -4.796411110490473639 ) ) ;
#668 = CARTESIAN_POINT ( 'NONE',  ( 26.22258320861523018, 1.442824823973489323, 4.091200860703663622 ) ) ;
#669 =( LENGTH_UNIT ( ) NAMED_UNIT ( * ) SI_UNIT ( .MILLI., .METRE. ) );
#670 = CARTESIAN_POINT ( 'NONE',  ( 24.07681625141058745, 0.8396574715947486833, 4.383755093829145189 ) ) ;
#671 = CARTESIAN_POINT ( 'NONE',  ( 25.17111473584425596, 1.579747517127074730, 4.002512547343091143 ) ) ;
#672 = CARTESIAN_POINT ( 'NONE',  ( 27.36595388902064130, 1.226328627904180735, 4.870378938665508528 ) ) ;
#673 = CARTESIAN_POINT ( 'NONE',  ( 4.599999999999999645, 0.000000000000000000, 4.999999999999999112 ) ) ;
#674 = AXIS2_PLACEMENT_3D ( 'NONE', #396, #564, #193 ) ;
#675 = CARTESIAN_POINT ( 'NONE',  ( 25.65019440827158093, -1.599762669505756518, 3.980115801858179925 ) ) ;
#676 = FACE_OUTER_BOUND ( 'NONE', #398, .T. ) ;
#677 = CARTESIAN_POINT ( 'NONE',  ( 27.40749418060332232, -0.9732096391338789232, -4.904930583388322773 ) ) ;
#678 = EDGE_CURVE ( 'NONE', #189, #189, #407, .T. ) ;
#679 = CARTESIAN_POINT ( 'NONE',  ( 26.58288941206714995, -1.178315713740227588, 4.225879915756567407 ) ) ;
#680 = CARTESIAN_POINT ( 'NONE',  ( 4.000000000000000000, 9.000000000000001776, 0.000000000000000000 ) ) ;
#681 = CARTESIAN_POINT ( 'NONE',  ( 4.000000000000000000, 0.000000000000000000, 5.599999999999998757 ) ) ;
#682 = CARTESIAN_POINT ( 'NONE',  ( 24.56683429336336744, 1.301261743436731511, 4.165724956271545487 ) ) ;
#683 = CARTESIAN_POINT ( 'NONE',  ( 25.77724553496733506, -2.332591411298383210, 4.422557857836819650 ) ) ;
#684 = CARTESIAN_POINT ( 'NONE',  ( 27.08017317248801703, -1.543892860286682822, -4.757031135045838965 ) ) ;
#685 = CARTESIAN_POINT ( 'NONE',  ( 27.09999999999999787, -0.1638072929903961472, 4.500097234300589832 ) ) ;
#686 = CARTESIAN_POINT ( 'NONE',  ( 23.63207132681247913, -1.224500418210153985, -4.870838944912368795 ) ) ;
#687 = CARTESIAN_POINT ( 'NONE',  ( 26.61390712851233786, -1.978509360628588398, 4.592116077859867751 ) ) ;
#688 = CARTESIAN_POINT ( 'NONE',  ( 23.90000304443106316, -0.003121244966706644437, 4.499998189827702610 ) ) ;
#689 = CARTESIAN_POINT ( 'NONE',  ( 26.43579220684099695, -2.087171874587150366, 4.543570677629652721 ) ) ;
#690 = CARTESIAN_POINT ( 'NONE',  ( 26.22258320861740089, -1.442824823972402193, -4.091200860704082842 ) ) ;
ENDSEC;
END-ISO-10303-21;
