ISO-10303-21;
HEADER;
FILE_DESCRIPTION (( 'STEP AP214' ),
    '1' );
FILE_NAME ('ISO - 4036 - M10 - N.STEP',
    '2025-08-04T11:00:08',
    ( '' ),
    ( '' ),
    'SwSTEP 2.0',
    'SolidWorks 2025',
    '' );
FILE_SCHEMA (( 'AUTOMOTIVE_DESIGN' ));
ENDSEC;

DATA;
#1 = EDGE_LOOP ( 'NONE', ( #145 ) ) ;
#2 = CARTESIAN_POINT ( 'NONE',  ( 0.000000000000000000, 0.000000000000000000, 0.000000000000000000 ) ) ;
#3 = AXIS2_PLACEMENT_3D ( 'NONE', #262, #104, #207 ) ;
#4 = LINE ( 'NONE', #22, #184 ) ;
#5 = VERTEX_POINT ( 'NONE', #324 ) ;
#6 = CARTESIAN_POINT ( 'NONE',  ( 8.000000000000003553, -4.618802153517030717, 0.000000000000000000 ) ) ;
#7 = DIRECTION ( 'NONE',  ( -0.8660254037844369313, -0.5000000000000028866, 0.000000000000000000 ) ) ;
#8 = SHAPE_DEFINITION_REPRESENTATION ( #304, #275 ) ;
#9 = ADVANCED_FACE ( 'NONE', ( #74 ), #321, .T. ) ;
#10 = FACE_BOUND ( 'NONE', #127, .T. ) ;
#11 = ADVANCED_FACE ( 'NONE', ( #48 ), #231, .T. ) ;
#12 = CARTESIAN_POINT ( 'NONE',  ( -8.000000000000000000, -4.618802153517040487, 0.000000000000000000 ) ) ;
#13 = EDGE_CURVE ( 'NONE', #66, #340, #291, .T. ) ;
#14 = CARTESIAN_POINT ( 'NONE',  ( 0.000000000000000000, 0.000000000000000000, 3.469446951953614189E-15 ) ) ;
#15 = ORIENTED_EDGE ( 'NONE', *, *, #33, .T. ) ;
#16 = ORIENTED_EDGE ( 'NONE', *, *, #319, .F. ) ;
#17 = ORIENTED_EDGE ( 'NONE', *, *, #65, .T. ) ;
#18 = ORIENTED_EDGE ( 'NONE', *, *, #13, .F. ) ;
#19 = ORIENTED_EDGE ( 'NONE', *, *, #89, .F. ) ;
#20 = EDGE_CURVE ( 'NONE', #142, #223, #4, .T. ) ;
#21 = LINE ( 'NONE', #344, #311 ) ;
#22 = CARTESIAN_POINT ( 'NONE',  ( 4.488966906994947006E-15, -9.237604307034068540, 0.000000000000000000 ) ) ;
#23 = VECTOR ( 'NONE', #25, 1000.000000000000000 ) ;
#24 = VECTOR ( 'NONE', #156, 1000.000000000000000 ) ;
#25 = DIRECTION ( 'NONE',  ( 0.000000000000000000, -1.000000000000000000, 0.000000000000000000 ) ) ;
#26 = EDGE_CURVE ( 'NONE', #308, #286, #288, .T. ) ;
#27 = ORIENTED_EDGE ( 'NONE', *, *, #216, .T. ) ;
#28 = LINE ( 'NONE', #53, #24 ) ;
#29 = CARTESIAN_POINT ( 'NONE',  ( 5.000000000000002665, 0.000000000000000000, -4.974599999999998801 ) ) ;
#30 = DIRECTION ( 'NONE',  ( -1.000000000000000000, 0.000000000000000000, 0.000000000000000000 ) ) ;
#31 = VECTOR ( 'NONE', #110, 1000.000000000000000 ) ;
#32 = FACE_OUTER_BOUND ( 'NONE', #200, .T. ) ;
#33 = EDGE_CURVE ( 'NONE', #173, #170, #257, .T. ) ;
#34 = DIRECTION ( 'NONE',  ( 0.8660254037844370423, 0.5000000000000026645, 0.000000000000000000 ) ) ;
#35 = LINE ( 'NONE', #12, #232 ) ;
#36 = LINE ( 'NONE', #159, #31 ) ;
#37 = DIRECTION ( 'NONE',  ( 0.8660254037844378194, -0.5000000000000014433, 0.000000000000000000 ) ) ;
#38 = FACE_BOUND ( 'NONE', #277, .T. ) ;
#39 = LINE ( 'NONE', #71, #283 ) ;
#40 = VECTOR ( 'NONE', #347, 1000.000000000000000 ) ;
#41 = EDGE_LOOP ( 'NONE', ( #18, #244, #305, #101 ) ) ;
#42 = ORIENTED_EDGE ( 'NONE', *, *, #214, .F. ) ;
#43 = ORIENTED_EDGE ( 'NONE', *, *, #346, .F. ) ;
#44 =( GEOMETRIC_REPRESENTATION_CONTEXT ( 3 ) GLOBAL_UNCERTAINTY_ASSIGNED_CONTEXT ( ( #59 ) ) GLOBAL_UNIT_ASSIGNED_CONTEXT ( ( #152, #93, #120 ) ) REPRESENTATION_CONTEXT ( 'NONE', 'WORKASPACE' ) );
#45 = DIRECTION ( 'NONE',  ( 1.000000000000000000, 0.000000000000000000, 0.000000000000000000 ) ) ;
#46 = VERTEX_POINT ( 'NONE', #102 ) ;
#47 = CARTESIAN_POINT ( 'NONE',  ( 8.000000000000003553, 4.618802153516996967, 0.000000000000000000 ) ) ;
#48 = FACE_OUTER_BOUND ( 'NONE', #309, .T. ) ;
#49 = APPLICATION_CONTEXT ( 'automotive_design' ) ;
#50 = DIRECTION ( 'NONE',  ( -0.8660254037844370423, -0.5000000000000028866, 0.000000000000000000 ) ) ;
#51 = AXIS2_PLACEMENT_3D ( 'NONE', #131, #235, #82 ) ;
#52 = ORIENTED_EDGE ( 'NONE', *, *, #331, .T. ) ;
#53 = CARTESIAN_POINT ( 'NONE',  ( -8.000000000000000000, 4.618802153516985420, -5.000000000000000000 ) ) ;
#54 = ADVANCED_FACE ( 'NONE', ( #76, #32 ), #264, .F. ) ;
#55 = FACE_OUTER_BOUND ( 'NONE', #125, .T. ) ;
#56 = CARTESIAN_POINT ( 'NONE',  ( 0.000000000000000000, 0.000000000000000000, -4.974599999999998801 ) ) ;
#57 = DIRECTION ( 'NONE',  ( 0.000000000000000000, 0.000000000000000000, 1.000000000000000000 ) ) ;
#58 = PLANE ( 'NONE',  #162 ) ;
#59 = UNCERTAINTY_MEASURE_WITH_UNIT (LENGTH_MEASURE( 1.000000000000000082E-05 ), #152, 'distance_accuracy_value', 'NONE');
#60 = CARTESIAN_POINT ( 'NONE',  ( -2.515551893077945608E-15, 9.237604307034024131, -5.000000000000000000 ) ) ;
#61 = DIRECTION ( 'NONE',  ( -0.000000000000000000, -0.000000000000000000, 1.000000000000000000 ) ) ;
#62 = EDGE_LOOP ( 'NONE', ( #114 ) ) ;
#63 = EDGE_LOOP ( 'NONE', ( #197 ) ) ;
#64 = VECTOR ( 'NONE', #108, 1000.000000000000000 ) ;
#65 = EDGE_CURVE ( 'NONE', #103, #103, #134, .T. ) ;
#66 = VERTEX_POINT ( 'NONE', #94 ) ;
#67 = ORIENTED_EDGE ( 'NONE', *, *, #280, .F. ) ;
#68 = CARTESIAN_POINT ( 'NONE',  ( 0.000000000000000000, 0.000000000000000000, -5.000000000000000888 ) ) ;
#69 = CARTESIAN_POINT ( 'NONE',  ( 8.000000000000003553, 4.618802153516996967, -5.000000000000000000 ) ) ;
#70 = ORIENTED_EDGE ( 'NONE', *, *, #138, .T. ) ;
#71 = CARTESIAN_POINT ( 'NONE',  ( 8.000000000000003553, 4.618802153516996967, 0.000000000000000000 ) ) ;
#72 = DIRECTION ( 'NONE',  ( -0.8660254037844370423, -0.5000000000000028866, 0.000000000000000000 ) ) ;
#73 = EDGE_CURVE ( 'NONE', #286, #340, #28, .T. ) ;
#74 = FACE_OUTER_BOUND ( 'NONE', #117, .T. ) ;
#75 = APPLICATION_PROTOCOL_DEFINITION ( 'draft international standard', 'automotive_design', 1998, #49 ) ;
#76 = FACE_OUTER_BOUND ( 'NONE', #86, .T. ) ;
#77 = CARTESIAN_POINT ( 'NONE',  ( 8.000000000000003553, 4.618802153516996967, -5.000000000000000000 ) ) ;
#78 = DIRECTION ( 'NONE',  ( 0.000000000000000000, 0.000000000000000000, 1.000000000000000000 ) ) ;
#79 = FACE_OUTER_BOUND ( 'NONE', #148, .T. ) ;
#80 = DIRECTION ( 'NONE',  ( -1.000000000000000000, 0.000000000000000000, 0.000000000000000000 ) ) ;
#81 = DIRECTION ( 'NONE',  ( 0.8660254037844378194, -0.5000000000000014433, 0.000000000000000000 ) ) ;
#82 = DIRECTION ( 'NONE',  ( 0.8660254037844379305, -0.5000000000000014433, 0.000000000000000000 ) ) ;
#83 = CIRCLE ( 'NONE', #128, 4.250000000000000000 ) ;
#84 = DIRECTION ( 'NONE',  ( 1.000000000000000000, 0.000000000000000000, 0.000000000000000000 ) ) ;
#85 = ORIENTED_EDGE ( 'NONE', *, *, #214, .T. ) ;
#86 = EDGE_LOOP ( 'NONE', ( #195 ) ) ;
#87 = CIRCLE ( 'NONE', #290, 5.000000000000002665 ) ;
#88 = ORIENTED_EDGE ( 'NONE', *, *, #265, .F. ) ;
#89 = EDGE_CURVE ( 'NONE', #294, #294, #210, .T. ) ;
#90 = EDGE_LOOP ( 'NONE', ( #43 ) ) ;
#91 = DIRECTION ( 'NONE',  ( 0.000000000000000000, -1.000000000000000000, 0.000000000000000000 ) ) ;
#92 = EDGE_LOOP ( 'NONE', ( #52, #221, #16, #198 ) ) ;
#93 =( NAMED_UNIT ( * ) PLANE_ANGLE_UNIT ( ) SI_UNIT ( $, .RADIAN. ) );
#94 = CARTESIAN_POINT ( 'NONE',  ( -2.515551893077945608E-15, 9.237604307034024131, 0.000000000000000000 ) ) ;
#95 = AXIS2_PLACEMENT_3D ( 'NONE', #314, #61, #227 ) ;
#96 = CLOSED_SHELL ( 'NONE', ( #54, #194, #11, #111, #186, #188, #9, #179, #234, #243, #190, #236 ) ) ;
#97 = AXIS2_PLACEMENT_3D ( 'NONE', #77, #99, #295 ) ;
#98 = CARTESIAN_POINT ( 'NONE',  ( -8.000000000000000000, -4.618802153517040487, -5.000000000000000000 ) ) ;
#99 = DIRECTION ( 'NONE',  ( -1.000000000000000000, 0.000000000000000000, 0.000000000000000000 ) ) ;
#100 = CARTESIAN_POINT ( 'NONE',  ( -2.515551893077945608E-15, 9.237604307034024131, -5.000000000000000000 ) ) ;
#101 = ORIENTED_EDGE ( 'NONE', *, *, #73, .T. ) ;
#102 = CARTESIAN_POINT ( 'NONE',  ( 8.000000000000003553, 4.618802153516996967, -5.000000000000000000 ) ) ;
#103 = VERTEX_POINT ( 'NONE', #29 ) ;
#104 = DIRECTION ( 'NONE',  ( -0.000000000000000000, -0.000000000000000000, 1.000000000000000000 ) ) ;
#105 = VERTEX_POINT ( 'NONE', #126 ) ;
#106 = CARTESIAN_POINT ( 'NONE',  ( -8.000000000000000000, -4.618802153517040487, 0.000000000000000000 ) ) ;
#107 = CARTESIAN_POINT ( 'NONE',  ( -2.515551893077945608E-15, 9.237604307034024131, -5.000000000000000000 ) ) ;
#108 = DIRECTION ( 'NONE',  ( 0.000000000000000000, 0.000000000000000000, 1.000000000000000000 ) ) ;
#109 = ORIENTED_EDGE ( 'NONE', *, *, #116, .F. ) ;
#110 = DIRECTION ( 'NONE',  ( 0.000000000000000000, 0.000000000000000000, 1.000000000000000000 ) ) ;
#111 = ADVANCED_FACE ( 'NONE', ( #345 ), #323, .F. ) ;
#112 = VECTOR ( 'NONE', #225, 1000.000000000000000 ) ;
#113 = DIRECTION ( 'NONE',  ( -0.000000000000000000, -0.000000000000000000, 1.000000000000000000 ) ) ;
#114 = ORIENTED_EDGE ( 'NONE', *, *, #135, .T. ) ;
#115 = ORIENTED_EDGE ( 'NONE', *, *, #315, .T. ) ;
#116 = EDGE_CURVE ( 'NONE', #46, #281, #204, .T. ) ;
#117 = EDGE_LOOP ( 'NONE', ( #272, #293, #310, #251 ) ) ;
#118 = FACE_OUTER_BOUND ( 'NONE', #1, .T. ) ;
#119 = ORIENTED_EDGE ( 'NONE', *, *, #172, .T. ) ;
#120 =( NAMED_UNIT ( * ) SI_UNIT ( $, .STERADIAN. ) SOLID_ANGLE_UNIT ( ) );
#121 = CARTESIAN_POINT ( 'NONE',  ( 0.000000000000000000, 0.000000000000000000, -4.974599999999998801 ) ) ;
#122 = CARTESIAN_POINT ( 'NONE',  ( -8.000000000000000000, 4.618802153516985420, 0.000000000000000000 ) ) ;
#123 = EDGE_CURVE ( 'NONE', #129, #142, #35, .T. ) ;
#124 = CARTESIAN_POINT ( 'NONE',  ( -2.515551893077945608E-15, 9.237604307034024131, -5.000000000000000000 ) ) ;
#125 = EDGE_LOOP ( 'NONE', ( #284, #339, #15, #27 ) ) ;
#126 = CARTESIAN_POINT ( 'NONE',  ( 5.000000000000000888, 0.000000000000000000, 3.469446951953614189E-15 ) ) ;
#127 = EDGE_LOOP ( 'NONE', ( #153 ) ) ;
#128 = AXIS2_PLACEMENT_3D ( 'NONE', #189, #298, #208 ) ;
#129 = VERTEX_POINT ( 'NONE', #106 ) ;
#130 = PRODUCT_CONTEXT ( 'NONE', #49, 'mechanical' ) ;
#131 = CARTESIAN_POINT ( 'NONE',  ( -8.000000000000000000, -4.618802153517040487, -5.000000000000000000 ) ) ;
#132 = DIRECTION ( 'NONE',  ( 0.000000000000000000, -1.000000000000000000, 0.000000000000000000 ) ) ;
#133 = PRESENTATION_LAYER_ASSIGNMENT (  '', '', ( #263 ) ) ;
#134 = CIRCLE ( 'NONE', #326, 5.000000000000002665 ) ;
#135 = EDGE_CURVE ( 'NONE', #5, #5, #83, .T. ) ;
#136 = CARTESIAN_POINT ( 'NONE',  ( 4.488966906994947006E-15, -9.237604307034068540, 0.000000000000000000 ) ) ;
#137 = CARTESIAN_POINT ( 'NONE',  ( 8.000000000000003553, -4.618802153517030717, -5.000000000000000000 ) ) ;
#138 = EDGE_CURVE ( 'NONE', #308, #66, #191, .T. ) ;
#139 = CARTESIAN_POINT ( 'NONE',  ( -8.000000000000000000, 4.618802153516985420, -5.000000000000000000 ) ) ;
#140 = PRODUCT_DEFINITION_FORMATION_WITH_SPECIFIED_SOURCE ( 'Symmetric', '', #332, .NOT_KNOWN. ) ;
#141 = SURFACE_STYLE_FILL_AREA ( #224 ) ;
#142 = VERTEX_POINT ( 'NONE', #136 ) ;
#143 = UNCERTAINTY_MEASURE_WITH_UNIT (LENGTH_MEASURE( 1.000000000000000082E-05 ), #322, 'distance_accuracy_value', 'NONE');
#144 = EDGE_CURVE ( 'NONE', #247, #129, #36, .T. ) ;
#145 = ORIENTED_EDGE ( 'NONE', *, *, #346, .T. ) ;
#146 = EDGE_LOOP ( 'NONE', ( #337 ) ) ;
#147 = PRODUCT_RELATED_PRODUCT_CATEGORY ( 'part', '', ( #332 ) ) ;
#148 = EDGE_LOOP ( 'NONE', ( #181, #119, #279, #282, #175, #168 ) ) ;
#149 = EDGE_LOOP ( 'NONE', ( #165, #67, #193, #338, #42, #245 ) ) ;
#150 = PRESENTATION_STYLE_ASSIGNMENT (( #341 ) ) ;
#151 = DIRECTION ( 'NONE',  ( -0.8660254037844379305, 0.5000000000000014433, 0.000000000000000000 ) ) ;
#152 =( LENGTH_UNIT ( ) NAMED_UNIT ( * ) SI_UNIT ( .MILLI., .METRE. ) );
#153 = ORIENTED_EDGE ( 'NONE', *, *, #89, .T. ) ;
#154 = CARTESIAN_POINT ( 'NONE',  ( -4.250000000000000000, 0.000000000000000000, -4.449444346342713352 ) ) ;
#155 = CARTESIAN_POINT ( 'NONE',  ( 0.000000000000000000, 0.000000000000000000, -5.000000000000000000 ) ) ;
#156 = DIRECTION ( 'NONE',  ( 0.000000000000000000, 0.000000000000000000, 1.000000000000000000 ) ) ;
#157 = VECTOR ( 'NONE', #91, 1000.000000000000000 ) ;
#158 = CARTESIAN_POINT ( 'NONE',  ( 5.000000000000002665, 0.000000000000000000, -5.000000000000000888 ) ) ;
#159 = CARTESIAN_POINT ( 'NONE',  ( -8.000000000000000000, -4.618802153517040487, -5.000000000000000000 ) ) ;
#160 = CARTESIAN_POINT ( 'NONE',  ( 4.488966906994947006E-15, -9.237604307034068540, -5.000000000000000000 ) ) ;
#161 = DIRECTION ( 'NONE',  ( 1.000000000000000000, 0.000000000000000000, -0.000000000000000000 ) ) ;
#162 = AXIS2_PLACEMENT_3D ( 'NONE', #266, #333, #34 ) ;
#163 = FACE_OUTER_BOUND ( 'NONE', #249, .T. ) ;
#164 = DIRECTION ( 'NONE',  ( -0.5000000000000029976, 0.8660254037844370423, 0.000000000000000000 ) ) ;
#165 = ORIENTED_EDGE ( 'NONE', *, *, #26, .F. ) ;
#166 = AXIS2_PLACEMENT_3D ( 'NONE', #155, #318, #177 ) ;
#167 = EDGE_LOOP ( 'NONE', ( #17 ) ) ;
#168 = ORIENTED_EDGE ( 'NONE', *, *, #265, .T. ) ;
#169 = MECHANICAL_DESIGN_GEOMETRIC_PRESENTATION_REPRESENTATION (  '', ( #263 ), #44 ) ;
#170 = VERTEX_POINT ( 'NONE', #137 ) ;
#171 = DIRECTION ( 'NONE',  ( -0.8660254037844378194, 0.5000000000000014433, 0.000000000000000000 ) ) ;
#172 = EDGE_CURVE ( 'NONE', #340, #129, #329, .T. ) ;
#173 = VERTEX_POINT ( 'NONE', #160 ) ;
#174 = FACE_BOUND ( 'NONE', #62, .T. ) ;
#175 = ORIENTED_EDGE ( 'NONE', *, *, #331, .F. ) ;
#176 = CARTESIAN_POINT ( 'NONE',  ( -8.000000000000000000, 4.618802153516985420, -5.000000000000000000 ) ) ;
#177 = DIRECTION ( 'NONE',  ( 1.000000000000000000, 0.000000000000000000, 0.000000000000000000 ) ) ;
#178 = VECTOR ( 'NONE', #171, 1000.000000000000114 ) ;
#179 = ADVANCED_FACE ( 'NONE', ( #38, #325 ), #330, .F. ) ;
#180 = DIRECTION ( 'NONE',  ( 0.5000000000000014433, 0.8660254037844379305, -0.000000000000000000 ) ) ;
#181 = ORIENTED_EDGE ( 'NONE', *, *, #13, .T. ) ;
#182 = APPLICATION_PROTOCOL_DEFINITION ( 'draft international standard', 'automotive_design', 1998, #258 ) ;
#183 = DIRECTION ( 'NONE',  ( 0.000000000000000000, 0.000000000000000000, 1.000000000000000000 ) ) ;
#184 = VECTOR ( 'NONE', #229, 1000.000000000000000 ) ;
#185 = CARTESIAN_POINT ( 'NONE',  ( -15.99999999999996625, -3.642919299551294898E-14, 0.000000000000000000 ) ) ;
#186 = ADVANCED_FACE ( 'NONE', ( #55 ), #58, .T. ) ;
#187 = CARTESIAN_POINT ( 'NONE',  ( -8.000000000000000000, 4.618802153516985420, 0.000000000000000000 ) ) ;
#188 = ADVANCED_FACE ( 'NONE', ( #163 ), #237, .T. ) ;
#189 = CARTESIAN_POINT ( 'NONE',  ( 0.000000000000000000, 0.000000000000000000, -0.5251556536572891121 ) ) ;
#190 = ADVANCED_FACE ( 'NONE', ( #299, #10 ), #248, .F. ) ;
#191 = LINE ( 'NONE', #60, #256 ) ;
#192 = SURFACE_SIDE_STYLE ('',( #141 ) ) ;
#193 = ORIENTED_EDGE ( 'NONE', *, *, #319, .T. ) ;
#194 = ADVANCED_FACE ( 'NONE', ( #239 ), #269, .T. ) ;
#195 = ORIENTED_EDGE ( 'NONE', *, *, #135, .F. ) ;
#196 = AXIS2_PLACEMENT_3D ( 'NONE', #185, #57, #161 ) ;
#197 = ORIENTED_EDGE ( 'NONE', *, *, #259, .T. ) ;
#198 = ORIENTED_EDGE ( 'NONE', *, *, #116, .T. ) ;
#199 = LINE ( 'NONE', #69, #178 ) ;
#200 = EDGE_LOOP ( 'NONE', ( #19 ) ) ;
#201 = CIRCLE ( 'NONE', #278, 5.000000000000000888 ) ;
#202 = CARTESIAN_POINT ( 'NONE',  ( -8.000000000000000000, 4.618802153516985420, -5.000000000000000000 ) ) ;
#203 = LINE ( 'NONE', #287, #23 ) ;
#204 = LINE ( 'NONE', #268, #64 ) ;
#205 = ORIENTED_EDGE ( 'NONE', *, *, #144, .F. ) ;
#206 = CARTESIAN_POINT ( 'NONE',  ( 8.000000000000003553, 4.618802153516996967, -5.000000000000000000 ) ) ;
#207 = DIRECTION ( 'NONE',  ( -1.000000000000000000, 0.000000000000000000, 0.000000000000000000 ) ) ;
#208 = DIRECTION ( 'NONE',  ( 1.000000000000000000, 0.000000000000000000, 0.000000000000000000 ) ) ;
#209 = LINE ( 'NONE', #327, #212 ) ;
#210 = CIRCLE ( 'NONE', #3, 4.250000000000000000 ) ;
#211 = DIRECTION ( 'NONE',  ( 0.000000000000000000, 0.000000000000000000, 1.000000000000000000 ) ) ;
#212 = VECTOR ( 'NONE', #37, 1000.000000000000114 ) ;
#213 = CARTESIAN_POINT ( 'NONE',  ( 8.000000000000003553, -4.618802153517030717, -5.000000000000000000 ) ) ;
#214 = EDGE_CURVE ( 'NONE', #247, #173, #209, .T. ) ;
#215 = FACE_OUTER_BOUND ( 'NONE', #63, .T. ) ;
#216 = EDGE_CURVE ( 'NONE', #170, #223, #233, .T. ) ;
#217 = DIRECTION ( 'NONE',  ( 0.000000000000000000, 0.000000000000000000, 1.000000000000000000 ) ) ;
#218 = VECTOR ( 'NONE', #217, 1000.000000000000000 ) ;
#219 = VECTOR ( 'NONE', #132, 1000.000000000000000 ) ;
#220 = ORIENTED_EDGE ( 'NONE', *, *, #259, .F. ) ;
#221 = ORIENTED_EDGE ( 'NONE', *, *, #216, .F. ) ;
#222 =( GEOMETRIC_REPRESENTATION_CONTEXT ( 3 ) GLOBAL_UNCERTAINTY_ASSIGNED_CONTEXT ( ( #143 ) ) GLOBAL_UNIT_ASSIGNED_CONTEXT ( ( #322, #230, #267 ) ) REPRESENTATION_CONTEXT ( 'NONE', 'WORKASPACE' ) );
#223 = VERTEX_POINT ( 'NONE', #6 ) ;
#224 = FILL_AREA_STYLE ('',( #317 ) ) ;
#225 = DIRECTION ( 'NONE',  ( 0.000000000000000000, 0.000000000000000000, 1.000000000000000000 ) ) ;
#226 = DIRECTION ( 'NONE',  ( -0.000000000000000000, -0.000000000000000000, 1.000000000000000000 ) ) ;
#227 = DIRECTION ( 'NONE',  ( 1.000000000000000000, 0.000000000000000000, 0.000000000000000000 ) ) ;
#228 = CARTESIAN_POINT ( 'NONE',  ( 4.488966906994947006E-15, -9.237604307034068540, -5.000000000000000000 ) ) ;
#229 = DIRECTION ( 'NONE',  ( 0.8660254037844371533, 0.5000000000000026645, 0.000000000000000000 ) ) ;
#230 =( NAMED_UNIT ( * ) PLANE_ANGLE_UNIT ( ) SI_UNIT ( $, .RADIAN. ) );
#231 = PLANE ( 'NONE',  #297 ) ;
#232 = VECTOR ( 'NONE', #81, 1000.000000000000114 ) ;
#233 = LINE ( 'NONE', #213, #218 ) ;
#234 = ADVANCED_FACE ( 'NONE', ( #273, #79 ), #300, .T. ) ;
#235 = DIRECTION ( 'NONE',  ( -0.5000000000000014433, -0.8660254037844379305, 0.000000000000000000 ) ) ;
#236 = ADVANCED_FACE ( 'NONE', ( #240, #215 ), #285, .F. ) ;
#237 = PLANE ( 'NONE',  #51 ) ;
#238 = AXIS2_PLACEMENT_3D ( 'NONE', #250, #336, #276 ) ;
#239 = FACE_OUTER_BOUND ( 'NONE', #41, .T. ) ;
#240 = FACE_OUTER_BOUND ( 'NONE', #167, .T. ) ;
#241 = DIRECTION ( 'NONE',  ( -0.8660254037844378194, 0.5000000000000014433, 0.000000000000000000 ) ) ;
#242 = AXIS2_PLACEMENT_3D ( 'NONE', #202, #30, #342 ) ;
#243 = ADVANCED_FACE ( 'NONE', ( #118, #174 ), #334, .F. ) ;
#244 = ORIENTED_EDGE ( 'NONE', *, *, #138, .F. ) ;
#245 = ORIENTED_EDGE ( 'NONE', *, *, #246, .F. ) ;
#246 = EDGE_CURVE ( 'NONE', #286, #247, #312, .T. ) ;
#247 = VERTEX_POINT ( 'NONE', #98 ) ;
#248 = CONICAL_SURFACE ( 'NONE', #302, 5.000000000000002665, 0.9599310885968801443 ) ;
#249 = EDGE_LOOP ( 'NONE', ( #313, #205, #85, #115 ) ) ;
#250 = CARTESIAN_POINT ( 'NONE',  ( 0.000000000000000000, 0.000000000000000000, -0.5776712190230168797 ) ) ;
#251 = ORIENTED_EDGE ( 'NONE', *, *, #144, .T. ) ;
#252 = CARTESIAN_POINT ( 'NONE',  ( 4.488966906994947006E-15, -9.237604307034068540, -5.000000000000000000 ) ) ;
#253 = ORIENTED_EDGE ( 'NONE', *, *, #280, .T. ) ;
#254 = DIRECTION ( 'NONE',  ( -0.000000000000000000, -0.000000000000000000, -1.000000000000000000 ) ) ;
#255 = VECTOR ( 'NONE', #50, 999.9999999999998863 ) ;
#256 = VECTOR ( 'NONE', #183, 1000.000000000000000 ) ;
#257 = LINE ( 'NONE', #228, #40 ) ;
#258 = APPLICATION_CONTEXT ( 'automotive_design' ) ;
#259 = EDGE_CURVE ( 'NONE', #261, #261, #87, .T. ) ;
#260 = DIRECTION ( 'NONE',  ( 1.000000000000000000, 0.000000000000000000, 0.000000000000000000 ) ) ;
#261 = VERTEX_POINT ( 'NONE', #158 ) ;
#262 = CARTESIAN_POINT ( 'NONE',  ( 0.000000000000000000, 0.000000000000000000, -4.449444346342713352 ) ) ;
#263 = STYLED_ITEM ( 'NONE', ( #150 ), #274 ) ;
#264 = CYLINDRICAL_SURFACE ( 'NONE', #166, 4.250000000000000000 ) ;
#265 = EDGE_CURVE ( 'NONE', #281, #66, #39, .T. ) ;
#266 = CARTESIAN_POINT ( 'NONE',  ( 4.488966906994947006E-15, -9.237604307034068540, -5.000000000000000000 ) ) ;
#267 =( NAMED_UNIT ( * ) SI_UNIT ( $, .STERADIAN. ) SOLID_ANGLE_UNIT ( ) );
#268 = CARTESIAN_POINT ( 'NONE',  ( 8.000000000000003553, 4.618802153516996967, -5.000000000000000000 ) ) ;
#269 = PLANE ( 'NONE',  #307 ) ;
#270 = AXIS2_PLACEMENT_3D ( 'NONE', #301, #78, #303 ) ;
#271 = DIRECTION ( 'NONE',  ( 0.000000000000000000, 0.000000000000000000, -1.000000000000000000 ) ) ;
#272 = ORIENTED_EDGE ( 'NONE', *, *, #172, .F. ) ;
#273 = FACE_BOUND ( 'NONE', #90, .T. ) ;
#274 = MANIFOLD_SOLID_BREP ( 'EndChamfer', #96 ) ;
#275 = ADVANCED_BREP_SHAPE_REPRESENTATION ( 'ISO - 4036 - M10 - N_ISO - 4036 - M10 - N', ( #274, #296 ), #222 ) ;
#276 = DIRECTION ( 'NONE',  ( 1.000000000000000000, 0.000000000000000000, 0.000000000000000000 ) ) ;
#277 = EDGE_LOOP ( 'NONE', ( #220 ) ) ;
#278 = AXIS2_PLACEMENT_3D ( 'NONE', #14, #113, #84 ) ;
#279 = ORIENTED_EDGE ( 'NONE', *, *, #123, .T. ) ;
#280 = EDGE_CURVE ( 'NONE', #46, #308, #199, .T. ) ;
#281 = VERTEX_POINT ( 'NONE', #47 ) ;
#282 = ORIENTED_EDGE ( 'NONE', *, *, #20, .T. ) ;
#283 = VECTOR ( 'NONE', #241, 1000.000000000000114 ) ;
#284 = ORIENTED_EDGE ( 'NONE', *, *, #20, .F. ) ;
#285 = CYLINDRICAL_SURFACE ( 'NONE', #95, 5.000000000000002665 ) ;
#286 = VERTEX_POINT ( 'NONE', #176 ) ;
#287 = CARTESIAN_POINT ( 'NONE',  ( 8.000000000000003553, 4.618802153516996967, 0.000000000000000000 ) ) ;
#288 = LINE ( 'NONE', #124, #255 ) ;
#289 = DIRECTION ( 'NONE',  ( 0.000000000000000000, -1.000000000000000000, 0.000000000000000000 ) ) ;
#290 = AXIS2_PLACEMENT_3D ( 'NONE', #68, #254, #45 ) ;
#291 = LINE ( 'NONE', #316, #343 ) ;
#292 = DIRECTION ( 'NONE',  ( 1.000000000000000000, 0.000000000000000000, 0.000000000000000000 ) ) ;
#293 = ORIENTED_EDGE ( 'NONE', *, *, #73, .F. ) ;
#294 = VERTEX_POINT ( 'NONE', #154 ) ;
#295 = DIRECTION ( 'NONE',  ( 0.000000000000000000, 0.000000000000000000, 1.000000000000000000 ) ) ;
#296 = AXIS2_PLACEMENT_3D ( 'NONE', #2, #211, #292 ) ;
#297 = AXIS2_PLACEMENT_3D ( 'NONE', #206, #180, #151 ) ;
#298 = DIRECTION ( 'NONE',  ( 0.000000000000000000, 0.000000000000000000, -1.000000000000000000 ) ) ;
#299 = FACE_OUTER_BOUND ( 'NONE', #146, .T. ) ;
#300 = PLANE ( 'NONE',  #196 ) ;
#301 = CARTESIAN_POINT ( 'NONE',  ( -15.99999999999996625, -3.642919299551294898E-14, -5.000000000000000000 ) ) ;
#302 = AXIS2_PLACEMENT_3D ( 'NONE', #56, #271, #80 ) ;
#303 = DIRECTION ( 'NONE',  ( 1.000000000000000000, 0.000000000000000000, -0.000000000000000000 ) ) ;
#304 = PRODUCT_DEFINITION_SHAPE ( 'NONE', 'NONE',  #306 ) ;
#305 = ORIENTED_EDGE ( 'NONE', *, *, #26, .T. ) ;
#306 = PRODUCT_DEFINITION ( 'General', '', #140, #328 ) ;
#307 = AXIS2_PLACEMENT_3D ( 'NONE', #107, #164, #7 ) ;
#308 = VERTEX_POINT ( 'NONE', #100 ) ;
#309 = EDGE_LOOP ( 'NONE', ( #88, #109, #253, #70 ) ) ;
#310 = ORIENTED_EDGE ( 'NONE', *, *, #246, .T. ) ;
#311 = VECTOR ( 'NONE', #289, 1000.000000000000000 ) ;
#312 = LINE ( 'NONE', #139, #157 ) ;
#313 = ORIENTED_EDGE ( 'NONE', *, *, #123, .F. ) ;
#314 = CARTESIAN_POINT ( 'NONE',  ( 0.000000000000000000, 0.000000000000000000, -25.03750572909317285 ) ) ;
#315 = EDGE_CURVE ( 'NONE', #173, #142, #335, .T. ) ;
#316 = CARTESIAN_POINT ( 'NONE',  ( -2.515551893077945608E-15, 9.237604307034024131, 0.000000000000000000 ) ) ;
#317 = FILL_AREA_STYLE_COLOUR ( '', #320 ) ;
#318 = DIRECTION ( 'NONE',  ( 0.000000000000000000, 0.000000000000000000, 1.000000000000000000 ) ) ;
#319 = EDGE_CURVE ( 'NONE', #46, #170, #21, .T. ) ;
#320 = COLOUR_RGB ( '',0.7921568627450980005, 0.8196078431372548767, 0.9333333333333333481 ) ;
#321 = PLANE ( 'NONE',  #242 ) ;
#322 =( LENGTH_UNIT ( ) NAMED_UNIT ( * ) SI_UNIT ( .MILLI., .METRE. ) );
#323 = PLANE ( 'NONE',  #97 ) ;
#324 = CARTESIAN_POINT ( 'NONE',  ( 4.250000000000000000, 0.000000000000000000, -0.5251556536572891121 ) ) ;
#325 = FACE_OUTER_BOUND ( 'NONE', #149, .T. ) ;
#326 = AXIS2_PLACEMENT_3D ( 'NONE', #121, #226, #260 ) ;
#327 = CARTESIAN_POINT ( 'NONE',  ( -8.000000000000000000, -4.618802153517040487, -5.000000000000000000 ) ) ;
#328 = PRODUCT_DEFINITION_CONTEXT ( 'detailed design', #258, 'design' ) ;
#329 = LINE ( 'NONE', #187, #219 ) ;
#330 = PLANE ( 'NONE',  #270 ) ;
#331 = EDGE_CURVE ( 'NONE', #281, #223, #203, .T. ) ;
#332 = PRODUCT ( 'ISO - 4036 - M10 - N_ISO - 4036 - M10 - N', 'ISO - 4036 - M10 - N_ISO - 4036 - M10 - N', '', ( #130 ) ) ;
#333 = DIRECTION ( 'NONE',  ( 0.5000000000000027756, -0.8660254037844371533, 0.000000000000000000 ) ) ;
#334 = CONICAL_SURFACE ( 'NONE', #238, 4.175000000000002487, 0.9599310885968724838 ) ;
#335 = LINE ( 'NONE', #252, #112 ) ;
#336 = DIRECTION ( 'NONE',  ( -0.000000000000000000, -0.000000000000000000, 1.000000000000000000 ) ) ;
#337 = ORIENTED_EDGE ( 'NONE', *, *, #65, .F. ) ;
#338 = ORIENTED_EDGE ( 'NONE', *, *, #33, .F. ) ;
#339 = ORIENTED_EDGE ( 'NONE', *, *, #315, .F. ) ;
#340 = VERTEX_POINT ( 'NONE', #122 ) ;
#341 = SURFACE_STYLE_USAGE ( .BOTH. , #192 ) ;
#342 = DIRECTION ( 'NONE',  ( 0.000000000000000000, 0.000000000000000000, 1.000000000000000000 ) ) ;
#343 = VECTOR ( 'NONE', #72, 999.9999999999998863 ) ;
#344 = CARTESIAN_POINT ( 'NONE',  ( 8.000000000000003553, 4.618802153516996967, -5.000000000000000000 ) ) ;
#345 = FACE_OUTER_BOUND ( 'NONE', #92, .T. ) ;
#346 = EDGE_CURVE ( 'NONE', #105, #105, #201, .T. ) ;
#347 = DIRECTION ( 'NONE',  ( 0.8660254037844371533, 0.5000000000000026645, 0.000000000000000000 ) ) ;
ENDSEC;
END-ISO-10303-21;
