ISO-10303-21;
HEADER;
FILE_DESCRIPTION (( 'STEP AP214' ),
    '1' );
FILE_NAME ('Part4 Handle Grip.STEP',
    '2025-08-04T11:00:07',
    ( '' ),
    ( '' ),
    'SwSTEP 2.0',
    'SolidWorks 2025',
    '' );
FILE_SCHEMA (( 'AUTOMOTIVE_DESIGN' ));
ENDSEC;

DATA;
#1 = ORIENTED_EDGE ( 'NONE', *, *, #882, .T. ) ;
#2 = CARTESIAN_POINT ( 'NONE',  ( 17.25000000000000000, 125.0000000000000000, -9.000000000000000000 ) ) ;
#3 = DIRECTION ( 'NONE',  ( -1.000000000000000000, 0.000000000000000000, 1.005636797667714163E-16 ) ) ;
#4 = FACE_OUTER_BOUND ( 'NONE', #156, .T. ) ;
#5 = APPLICATION_PROTOCOL_DEFINITION ( 'draft international standard', 'automotive_design', 1998, #49 ) ;
#6 = VECTOR ( 'NONE', #800, 1000.000000000000000 ) ;
#7 = VERTEX_POINT ( 'NONE', #17 ) ;
#8 = CARTESIAN_POINT ( 'NONE',  ( 18.17157287525381193, 2.240142493553380655E-15, 7.146446609406726047 ) ) ;
#9 = CARTESIAN_POINT ( 'NONE',  ( 18.59021539935341139, 0.7800206380060572542, 7.198776924919179088 ) ) ;
#10 = ORIENTED_EDGE ( 'NONE', *, *, #922, .F. ) ;
#11 = DIRECTION ( 'NONE',  ( -0.000000000000000000, -1.000000000000000000, -0.000000000000000000 ) ) ;
#12 = CARTESIAN_POINT ( 'NONE',  ( 17.25000000000000000, 123.0000000000000000, -7.499999999999999112 ) ) ;
#13 = CARTESIAN_POINT ( 'NONE',  ( 17.62359042312764501, 0.04500991363539107865, 7.623590423127756921 ) ) ;
#14 = EDGE_LOOP ( 'NONE', ( #644, #289, #513 ) ) ;
#15 = CARTESIAN_POINT ( 'NONE',  ( -19.00000000000000355, 2.000000000000001776, -7.249999999999982236 ) ) ;
#16 = CARTESIAN_POINT ( 'NONE',  ( 17.25000000000000000, 2.000000000000000000, -7.499999999999999112 ) ) ;
#17 = CARTESIAN_POINT ( 'NONE',  ( 17.00000000000000000, 0.000000000000000000, -6.999999999999999112 ) ) ;
#18 = EDGE_CURVE ( 'NONE', #649, #350, #701, .T. ) ;
#19 = ORIENTED_EDGE ( 'NONE', *, *, #181, .F. ) ;
#20 = DIRECTION ( 'NONE',  ( -1.000000000000000000, 0.000000000000000000, 0.000000000000000000 ) ) ;
#21 = DIRECTION ( 'NONE',  ( 0.000000000000000000, 0.000000000000000000, 1.000000000000000000 ) ) ;
#22 = EDGE_CURVE ( 'NONE', #763, #350, #566, .T. ) ;
#23 = DIRECTION ( 'NONE',  ( 0.000000000000000000, 1.000000000000000000, 0.000000000000000000 ) ) ;
#24 = CARTESIAN_POINT ( 'NONE',  ( 17.26184632816873332, 1.734723475976807094E-15, 7.032730791020892269 ) ) ;
#25 = ORIENTED_EDGE ( 'NONE', *, *, #581, .F. ) ;
#26 = CARTESIAN_POINT ( 'NONE',  ( -17.21695788123209425, 0.9976984299155224889, -8.735663049856754014 ) ) ;
#27 = CARTESIAN_POINT ( 'NONE',  ( 17.25000000000000000, 123.0000000000000000, 7.500000000000001776 ) ) ;
#28 = EDGE_CURVE ( 'NONE', #151, #875, #857, .T. ) ;
#29 = CYLINDRICAL_SURFACE ( 'NONE', #238, 2.000000000000000000 ) ;
#30 = EDGE_CURVE ( 'NONE', #397, #196, #506, .T. ) ;
#31 = ORIENTED_EDGE ( 'NONE', *, *, #775, .T. ) ;
#32 = CARTESIAN_POINT ( 'NONE',  ( -17.25000000000000000, 2.000000000000001776, -8.999999999999996447 ) ) ;
#33 = VECTOR ( 'NONE', #153, 1000.000000000000000 ) ;
#34 = STYLED_ITEM ( 'NONE', ( #503 ), #809 ) ;
#35 = VECTOR ( 'NONE', #925, 1000.000000000000000 ) ;
#36 = CARTESIAN_POINT ( 'NONE',  ( 17.25000000000000000, 123.0000000000000000, -7.249999999999998224 ) ) ;
#37 = DIRECTION ( 'NONE',  ( 0.000000000000000000, 0.000000000000000000, 1.000000000000000000 ) ) ;
#38 = LINE ( 'NONE', #198, #103 ) ;
#39 = CARTESIAN_POINT ( 'NONE',  ( -17.00000000000000000, 0.000000000000000000, -6.999999999999995559 ) ) ;
#40 = LINE ( 'NONE', #451, #903 ) ;
#41 = CARTESIAN_POINT ( 'NONE',  ( -18.89785209266166888, 1.355568401976453341, 7.237231511582710830 ) ) ;
#42 = CARTESIAN_POINT ( 'NONE',  ( 18.10555849596298827, 0.2219347995166909004, -8.105558495963004262 ) ) ;
#43 = FACE_OUTER_BOUND ( 'NONE', #854, .T. ) ;
#44 = CARTESIAN_POINT ( 'NONE',  ( -18.17157287525381193, 2.240142493553380655E-15, 7.146446609406729600 ) ) ;
#45 = CARTESIAN_POINT ( 'NONE',  ( 17.00000000000000000, 0.000000000000000000, 7.000000000000000888 ) ) ;
#46 = FACE_OUTER_BOUND ( 'NONE', #815, .T. ) ;
#47 = ADVANCED_FACE ( 'NONE', ( #4 ), #214, .F. ) ;
#48 =( BOUNDED_CURVE ( )  B_SPLINE_CURVE ( 3, ( #369, #657, #587, #174 ),
 .UNSPECIFIED., .F., .F. ) 
 B_SPLINE_CURVE_WITH_KNOTS ( ( 4, 4 ),
 ( 0.000000000000000000, 1.570796326794896558 ),
 .UNSPECIFIED. ) 
 CURVE ( )  GEOMETRIC_REPRESENTATION_ITEM ( )  RATIONAL_B_SPLINE_CURVE ( ( 1.000000000000000000, 0.8047378541243649375, 0.8047378541243649375, 1.000000000000000000 ) ) 
 REPRESENTATION_ITEM ( '' )  );
#49 = APPLICATION_CONTEXT ( 'automotive_design' ) ;
#50 = CARTESIAN_POINT ( 'NONE',  ( -18.79766603738348252, 1.113697868563197968, 7.224708254672940200 ) ) ;
#51 = CARTESIAN_POINT ( 'NONE',  ( 18.96403972038150343, 1.512701482218054228, -8.964039720381533627 ) ) ;
#52 =( BOUNDED_CURVE ( )  B_SPLINE_CURVE ( 3, ( #325, #527, #44, #604 ),
 .UNSPECIFIED., .F., .F. ) 
 B_SPLINE_CURVE_WITH_KNOTS ( ( 4, 4 ),
 ( 0.000000000000000000, 1.570796326794896558 ),
 .UNSPECIFIED. ) 
 CURVE ( )  GEOMETRIC_REPRESENTATION_ITEM ( )  RATIONAL_B_SPLINE_CURVE ( ( 1.000000000000000000, 0.8047378541243649375, 0.8047378541243649375, 1.000000000000000000 ) ) 
 REPRESENTATION_ITEM ( '' )  );
#53 = CARTESIAN_POINT ( 'NONE',  ( -17.19877692491917998, 0.7800206380060722422, -8.590215399353416714 ) ) ;
#54 = CARTESIAN_POINT ( 'NONE',  ( -17.25000000000000000, 2.000000000000001776, -8.999999999999996447 ) ) ;
#55 = ADVANCED_FACE ( 'NONE', ( #67 ), #190, .T. ) ;
#56 = CARTESIAN_POINT ( 'NONE',  ( 17.03273079102130438, 1.761055706343200611E-15, -7.261846328168818587 ) ) ;
#57 = ORIENTED_EDGE ( 'NONE', *, *, #327, .F. ) ;
#58 = ORIENTED_EDGE ( 'NONE', *, *, #642, .F. ) ;
#59 = DIRECTION ( 'NONE',  ( 0.000000000000000000, 0.000000000000000000, 1.000000000000000000 ) ) ;
#60 = VECTOR ( 'NONE', #806, 1000.000000000000000 ) ;
#61 = AXIS2_PLACEMENT_3D ( 'NONE', #247, #87, #165 ) ;
#62 = EDGE_LOOP ( 'NONE', ( #912, #211, #840, #10 ) ) ;
#63 = EDGE_CURVE ( 'NONE', #350, #282, #48, .T. ) ;
#64 = ORIENTED_EDGE ( 'NONE', *, *, #872, .T. ) ;
#65 = CARTESIAN_POINT ( 'NONE',  ( 19.00000000000000355, 123.0000000000000000, 7.250000000000000888 ) ) ;
#66 = CARTESIAN_POINT ( 'NONE',  ( 17.25000000000000000, 2.000000000000000000, 7.500000000000001776 ) ) ;
#67 = FACE_OUTER_BOUND ( 'NONE', #894, .T. ) ;
#68 = VERTEX_POINT ( 'NONE', #39 ) ;
#69 = DIRECTION ( 'NONE',  ( -0.000000000000000000, -1.000000000000000000, -0.000000000000000000 ) ) ;
#70 = CARTESIAN_POINT ( 'NONE',  ( 19.00000000000000355, 123.0000000000000000, 7.250000000000000888 ) ) ;
#71 = CARTESIAN_POINT ( 'NONE',  ( 18.43141810747840381, 0.4678725928725850913, 8.431418107478348745 ) ) ;
#72 = ORIENTED_EDGE ( 'NONE', *, *, #28, .T. ) ;
#73 = LINE ( 'NONE', #65, #822 ) ;
#74 = DIRECTION ( 'NONE',  ( -0.000000000000000000, -1.000000000000000000, -0.000000000000000000 ) ) ;
#75 = DIRECTION ( 'NONE',  ( -0.000000000000000000, -1.000000000000000000, -0.000000000000000000 ) ) ;
#76 = AXIS2_PLACEMENT_3D ( 'NONE', #36, #533, #600 ) ;
#77 = FACE_OUTER_BOUND ( 'NONE', #62, .T. ) ;
#78 = EDGE_CURVE ( 'NONE', #579, #845, #808, .T. ) ;
#79 = EDGE_CURVE ( 'NONE', #476, #202, #106, .T. ) ;
#80 = CARTESIAN_POINT ( 'NONE',  ( 18.10555849596298472, 0.2219347995166919274, 8.105558495963007815 ) ) ;
#81 = ORIENTED_EDGE ( 'NONE', *, *, #30, .F. ) ;
#82 = DIRECTION ( 'NONE',  ( 0.000000000000000000, 1.000000000000000000, 0.000000000000000000 ) ) ;
#83 = CARTESIAN_POINT ( 'NONE',  ( 17.15363672113153726, 0.4006666443059416771, 8.229093769052132856 ) ) ;
#84 = ORIENTED_EDGE ( 'NONE', *, *, #730, .T. ) ;
#85 = CARTESIAN_POINT ( 'NONE',  ( -18.96403972038149988, 1.512701482218050897, -8.964039720381528298 ) ) ;
#86 = PLANE ( 'NONE',  #263 ) ;
#87 = DIRECTION ( 'NONE',  ( -0.000000000000000000, 1.000000000000000000, 0.000000000000000000 ) ) ;
#88 = ORIENTED_EDGE ( 'NONE', *, *, #79, .F. ) ;
#89 = CARTESIAN_POINT ( 'NONE',  ( -18.99999991713795566, 1.754133268581840710, -8.999999917137964545 ) ) ;
#90 = AXIS2_PLACEMENT_3D ( 'NONE', #855, #11, #283 ) ;
#91 = CARTESIAN_POINT ( 'NONE',  ( -17.25000000000000000, 123.0000000000000000, 7.250000000000003553 ) ) ;
#92 = CARTESIAN_POINT ( 'NONE',  ( 19.00000000000000355, 2.000000000000001776, 7.249999999999999112 ) ) ;
#93 = ORIENTED_EDGE ( 'NONE', *, *, #96, .F. ) ;
#94 = CARTESIAN_POINT ( 'NONE',  ( -19.00000000000000000, 2.000000000000001776, -8.999999999999994671 ) ) ;
#95 = CARTESIAN_POINT ( 'NONE',  ( 17.50000000000000000, 123.0000000000000000, -7.249999999999997335 ) ) ;
#96 = EDGE_CURVE ( 'NONE', #837, #427, #897, .T. ) ;
#97 = CARTESIAN_POINT ( 'NONE',  ( 17.00000000000000000, 2.000000000000001776, 7.249999999999999112 ) ) ;
#98 = ORIENTED_EDGE ( 'NONE', *, *, #485, .T. ) ;
#99 = DIRECTION ( 'NONE',  ( 0.000000000000000000, 1.000000000000000000, 0.000000000000000000 ) ) ;
#100 = DIRECTION ( 'NONE',  ( -1.000000000000000000, 0.000000000000000000, 7.542275982507857147E-17 ) ) ;
#101 = EDGE_LOOP ( 'NONE', ( #191, #584, #864, #401 ) ) ;
#102 = FACE_OUTER_BOUND ( 'NONE', #370, .T. ) ;
#103 = VECTOR ( 'NONE', #685, 1000.000000000000000 ) ;
#104 = VECTOR ( 'NONE', #439, 1000.000000000000000 ) ;
#105 = FACE_OUTER_BOUND ( 'NONE', #225, .T. ) ;
#106 = LINE ( 'NONE', #598, #574 ) ;
#107 = ADVANCED_FACE ( 'NONE', ( #244 ), #814, .T. ) ;
#108 = CARTESIAN_POINT ( 'NONE',  ( 0.000000000000000000, 0.000000000000000000, 0.000000000000000000 ) ) ;
#109 = CARTESIAN_POINT ( 'NONE',  ( 17.14644660940673049, 1.953189899223893112E-15, -8.171572875253808377 ) ) ;
#110 = CARTESIAN_POINT ( 'NONE',  ( 18.99999991713792724, 1.754133268581837823, -8.999999917137968097 ) ) ;
#111 = CYLINDRICAL_SURFACE ( 'NONE', #464, 1.750000000000000666 ) ;
#112 = CARTESIAN_POINT ( 'NONE',  ( 17.25000000000000000, 2.000000000000001776, -9.000000000000000000 ) ) ;
#113 = CARTESIAN_POINT ( 'NONE',  ( 17.22470825467291533, 1.113697868563264359, -8.797666037383510940 ) ) ;
#114 = EDGE_CURVE ( 'NONE', #202, #440, #449, .T. ) ;
#115 = CARTESIAN_POINT ( 'NONE',  ( 17.25000000000000000, 125.0000000000000000, -7.249999999999998224 ) ) ;
#116 = CARTESIAN_POINT ( 'NONE',  ( 17.00000000000000000, 0.000000000000000000, -6.999999999999999112 ) ) ;
#117 = VECTOR ( 'NONE', #856, 1000.000000000000000 ) ;
#118 = DIRECTION ( 'NONE',  ( 0.000000000000000000, 1.000000000000000000, 0.000000000000000000 ) ) ;
#119 = ORIENTED_EDGE ( 'NONE', *, *, #340, .T. ) ;
#120 = CARTESIAN_POINT ( 'NONE',  ( -18.00723761276715607, 0.2524270791556695870, -7.125904701595906943 ) ) ;
#121 = CARTESIAN_POINT ( 'NONE',  ( -17.12590470159589273, 0.2524270791557247651, 8.007237612767292845 ) ) ;
#122 = CARTESIAN_POINT ( 'NONE',  ( 17.24999999973818277, 1.869099068902343674, -9.000000000000000000 ) ) ;
#123 = ORIENTED_EDGE ( 'NONE', *, *, #329, .T. ) ;
#124 = ORIENTED_EDGE ( 'NONE', *, *, #586, .F. ) ;
#125 = CARTESIAN_POINT ( 'NONE',  ( -17.00000000000000000, 0.000000000000000000, -6.999999999999995559 ) ) ;
#126 = CARTESIAN_POINT ( 'NONE',  ( 18.93603336297425699, 1.481435192787674104, -7.242004170371779459 ) ) ;
#127 = DIRECTION ( 'NONE',  ( 0.000000000000000000, 0.000000000000000000, 1.000000000000000000 ) ) ;
#128 = VECTOR ( 'NONE', #416, 1000.000000000000000 ) ;
#129 = CARTESIAN_POINT ( 'NONE',  ( -19.00000000000000355, 2.000000000000001776, 7.250000000000001776 ) ) ;
#130 = AXIS2_PLACEMENT_3D ( 'NONE', #207, #708, #133 ) ;
#131 = EDGE_CURVE ( 'NONE', #411, #763, #176, .T. ) ;
#132 = ORIENTED_EDGE ( 'NONE', *, *, #820, .F. ) ;
#133 = DIRECTION ( 'NONE',  ( 0.000000000000000000, 0.000000000000000000, 1.000000000000000000 ) ) ;
#134 = CARTESIAN_POINT ( 'NONE',  ( 18.73566304985677178, 0.9976984299155373659, 7.216957881232094252 ) ) ;
#135 = ORIENTED_EDGE ( 'NONE', *, *, #565, .T. ) ;
#136 = CARTESIAN_POINT ( 'NONE',  ( 17.25000000000000000, 123.0000000000000000, 9.000000000000001776 ) ) ;
#137 = CARTESIAN_POINT ( 'NONE',  ( 17.25000000000000000, 2.000000000000001776, 9.000000000000001776 ) ) ;
#138 = ORIENTED_EDGE ( 'NONE', *, *, #426, .T. ) ;
#139 = EDGE_CURVE ( 'NONE', #68, #7, #374, .T. ) ;
#140 = ORIENTED_EDGE ( 'NONE', *, *, #461, .F. ) ;
#141 =( BOUNDED_CURVE ( )  B_SPLINE_CURVE ( 3, ( #727, #306, #891, #15 ),
 .UNSPECIFIED., .F., .F. ) 
 B_SPLINE_CURVE_WITH_KNOTS ( ( 4, 4 ),
 ( 4.712388980384689674, 6.283185307179586232 ),
 .UNSPECIFIED. ) 
 CURVE ( )  GEOMETRIC_REPRESENTATION_ITEM ( )  RATIONAL_B_SPLINE_CURVE ( ( 1.000000000000000000, 0.8047378541243649375, 0.8047378541243649375, 1.000000000000000000 ) ) 
 REPRESENTATION_ITEM ( '' )  );
#142 = DIRECTION ( 'NONE',  ( 1.005636797667714163E-16, -0.000000000000000000, 1.000000000000000000 ) ) ;
#143 = DIRECTION ( 'NONE',  ( -0.000000000000000000, -1.000000000000000000, -0.000000000000000000 ) ) ;
#144 = EDGE_LOOP ( 'NONE', ( #539, #25, #653, #132 ) ) ;
#145 = AXIS2_PLACEMENT_3D ( 'NONE', #268, #551, #203 ) ;
#146 = VECTOR ( 'NONE', #280, 1000.000000000000000 ) ;
#147 = ORIENTED_EDGE ( 'NONE', *, *, #181, .T. ) ;
#148 = DIRECTION ( 'NONE',  ( 0.000000000000000000, 1.000000000000000000, 0.000000000000000000 ) ) ;
#149 = CARTESIAN_POINT ( 'NONE',  ( 17.25000000000000000, 2.000000000000001776, -9.000000000000000000 ) ) ;
#150 = CARTESIAN_POINT ( 'NONE',  ( -17.25000000000000000, 123.0000000000000000, -7.499999999999995559 ) ) ;
#151 = VERTEX_POINT ( 'NONE', #159 ) ;
#152 = CARTESIAN_POINT ( 'NONE',  ( -18.83479962945024866, 1.079418774859636443, -8.834799629450214908 ) ) ;
#153 = DIRECTION ( 'NONE',  ( 1.000000000000000000, 0.000000000000000000, -1.005636797667714163E-16 ) ) ;
#154 = CARTESIAN_POINT ( 'NONE',  ( 17.25000000000000000, 0.000000000000000000, -6.999999999999999112 ) ) ;
#155 = PRODUCT_DEFINITION ( 'General', '', #332, #383 ) ;
#156 = EDGE_LOOP ( 'NONE', ( #431, #140, #322, #333 ) ) ;
#157 = CARTESIAN_POINT ( 'NONE',  ( -18.54181562659777782, 0.5864909859806594072, -8.541815626597815125 ) ) ;
#158 = FACE_OUTER_BOUND ( 'NONE', #298, .T. ) ;
#159 = CARTESIAN_POINT ( 'NONE',  ( 17.50000000000000000, 123.0000000000000000, 7.249999999999999112 ) ) ;
#160 = ORIENTED_EDGE ( 'NONE', *, *, #240, .F. ) ;
#161 = CARTESIAN_POINT ( 'NONE',  ( 17.50000000000000000, 2.000000000000000000, 7.249999999999999112 ) ) ;
#162 = CIRCLE ( 'NONE', #394, 0.2500000000000002220 ) ;
#163 = DIRECTION ( 'NONE',  ( 0.000000000000000000, 0.000000000000000000, 1.000000000000000000 ) ) ;
#164 = UNCERTAINTY_MEASURE_WITH_UNIT (LENGTH_MEASURE( 1.000000000000000082E-05 ), #290, 'distance_accuracy_value', 'NONE');
#165 = DIRECTION ( 'NONE',  ( 0.000000000000000000, 0.000000000000000000, 1.000000000000000000 ) ) ;
#166 = EDGE_LOOP ( 'NONE', ( #255, #170, #328, #870 ) ) ;
#167 =( NAMED_UNIT ( * ) SI_UNIT ( $, .STERADIAN. ) SOLID_ANGLE_UNIT ( ) );
#168 = CARTESIAN_POINT ( 'NONE',  ( -17.25000000000000000, 125.0000000000000000, 7.250000000000003553 ) ) ;
#169 = DIRECTION ( 'NONE',  ( 1.000000000000000000, 0.000000000000000000, 0.000000000000000000 ) ) ;
#170 = ORIENTED_EDGE ( 'NONE', *, *, #22, .T. ) ;
#171 = CARTESIAN_POINT ( 'NONE',  ( -18.10555849596298827, 0.2219347995166896237, -8.105558495963002485 ) ) ;
#172 = DIRECTION ( 'NONE',  ( 0.000000000000000000, 0.000000000000000000, 1.000000000000000000 ) ) ;
#173 = EDGE_CURVE ( 'NONE', #553, #919, #293, .T. ) ;
#174 = CARTESIAN_POINT ( 'NONE',  ( 17.00000000000000000, 0.000000000000000000, 7.000000000000000888 ) ) ;
#175 = CARTESIAN_POINT ( 'NONE',  ( -17.50000000000000000, 2.000000000000000000, -7.249999999999993783 ) ) ;
#176 = CIRCLE ( 'NONE', #691, 1.750000000000000666 ) ;
#177 =( BOUNDED_CURVE ( )  B_SPLINE_CURVE ( 3, ( #595, #893, #818, #921 ),
 .UNSPECIFIED., .F., .F. ) 
 B_SPLINE_CURVE_WITH_KNOTS ( ( 4, 4 ),
 ( 4.712388980384689674, 6.283185307179586232 ),
 .UNSPECIFIED. ) 
 CURVE ( )  GEOMETRIC_REPRESENTATION_ITEM ( )  RATIONAL_B_SPLINE_CURVE ( ( 1.000000000000000000, 0.8047378541243649375, 0.8047378541243649375, 1.000000000000000000 ) ) 
 REPRESENTATION_ITEM ( '' )  );
#178 = AXIS2_PLACEMENT_3D ( 'NONE', #650, #99, #639 ) ;
#179 = VECTOR ( 'NONE', #648, 1000.000000000000000 ) ;
#180 = CARTESIAN_POINT ( 'NONE',  ( -18.99999991713792724, 1.754133268581834049, 8.999999917138030270 ) ) ;
#181 = EDGE_CURVE ( 'NONE', #553, #229, #583, .T. ) ;
#182 = FACE_OUTER_BOUND ( 'NONE', #759, .T. ) ;
#183 = CARTESIAN_POINT ( 'NONE',  ( -17.12590470159589273, 0.2524270791557246540, -8.007237612767283963 ) ) ;
#184 = CARTESIAN_POINT ( 'NONE',  ( -17.25000000000000000, 2.000000000000001776, 9.000000000000003553 ) ) ;
#185 = CARTESIAN_POINT ( 'NONE',  ( 18.83479962945024866, 1.079418774859632446, -8.834799629450214908 ) ) ;
#186 = EDGE_CURVE ( 'NONE', #151, #781, #592, .T. ) ;
#187 = CYLINDRICAL_SURFACE ( 'NONE', #888, 2.000000000000000000 ) ;
#188 = CARTESIAN_POINT ( 'NONE',  ( 17.50000000000000000, 2.000000000000000000, -7.249999999999997335 ) ) ;
#189 = CARTESIAN_POINT ( 'NONE',  ( 18.59021539935341139, 0.7800206380060572542, -7.198776924919177311 ) ) ;
#190 =( BOUNDED_SURFACE ( )  B_SPLINE_SURFACE ( 3, 2, ( 
 ( #210, #557, #490 ),
 ( #862, #218, #867 ),
 ( #712, #422, #228 ),
 ( #417, #705, #850 ),
 ( #784, #632, #641 ),
 ( #500, #486, #791 ),
 ( #774, #71, #134 ),
 ( #413, #626, #9 ),
 ( #716, #80, #288 ),
 ( #83, #342, #354 ),
 ( #637, #13, #222 ),
 ( #285, #310, #516 ),
 ( #378, #447, #24 ),
 ( #878, #795, #521 ) ),
 .UNSPECIFIED., .F., .F., .T. ) 
 B_SPLINE_SURFACE_WITH_KNOTS ( ( 4, 2, 2, 2, 2, 2, 4 ),
 ( 3, 3 ),
 ( 6.283185307179586232, 6.479534848028948524, 6.675884388878310816, 6.872233929727672219, 7.068583470577034511, 7.461282552275758206, 7.853981633974482790 ),
 ( 0.000000000000000000, 1.000000000000000000 ),
 .UNSPECIFIED. ) 
 GEOMETRIC_REPRESENTATION_ITEM ( )  RATIONAL_B_SPLINE_SURFACE ( (
 ( 1.000000000000000000, 0.7071067811865475727, 1.000000000000000000),
 ( 1.000000000000000000, 0.7070716182662661886, 1.000000000000000000),
 ( 1.000000000000000000, 0.7117461491382265359, 1.000000000000000000),
 ( 1.000000000000000000, 0.7291287474050899275, 1.000000000000000000),
 ( 1.000000000000000000, 0.7418336156464838682, 1.000000000000000000),
 ( 1.000000000000000000, 0.7723966240507197378, 1.000000000000000000),
 ( 1.000000000000000000, 0.7902181801049086296, 1.000000000000000000),
 ( 1.000000000000000000, 0.8275940981384327655, 1.000000000000000000),
 ( 1.000000000000000000, 0.8471317835661495987, 1.000000000000000000),
 ( 1.000000000000000000, 0.9038126442210158151, 1.000000000000000000),
 ( 1.000000000000000000, 0.9386557458668471909, 1.000000000000000000),
 ( 1.000000000000000000, 0.9867290938954643709, 1.000000000000000000),
 ( 1.000000000000000000, 1.000158652389542935, 1.000000000000000000),
 ( 1.000000000000000000, 1.000000000000000000, 1.000000000000000000) ) ) 
 REPRESENTATION_ITEM ( '' )  SURFACE ( )  );
#191 = ORIENTED_EDGE ( 'NONE', *, *, #18, .T. ) ;
#192 = CARTESIAN_POINT ( 'NONE',  ( -17.15363672113153726, 0.4006666443059416771, -8.229093769052127527 ) ) ;
#193 = CARTESIAN_POINT ( 'NONE',  ( -17.62359042312764501, 0.04500991363541019530, 7.623590423127758697 ) ) ;
#194 = AXIS2_PLACEMENT_3D ( 'NONE', #2, #142, #330 ) ;
#195 = CARTESIAN_POINT ( 'NONE',  ( 17.23723151158273126, 1.355568401976386950, -8.897852092661640455 ) ) ;
#196 = VERTEX_POINT ( 'NONE', #435 ) ;
#197 = ORIENTED_EDGE ( 'NONE', *, *, #301, .F. ) ;
#198 = CARTESIAN_POINT ( 'NONE',  ( 17.00000000000000000, 0.000000000000000000, 7.250000000000000888 ) ) ;
#199 = CARTESIAN_POINT ( 'NONE',  ( 17.26184632816873332, 1.734723475976807094E-15, -7.032730791020890493 ) ) ;
#200 = ORIENTED_EDGE ( 'NONE', *, *, #586, .T. ) ;
#201 = SHAPE_DEFINITION_REPRESENTATION ( #799, #619 ) ;
#202 = VERTEX_POINT ( 'NONE', #664 ) ;
#203 = DIRECTION ( 'NONE',  ( 0.000000000000000000, -0.000000000000000000, 1.000000000000000000 ) ) ;
#204 = LINE ( 'NONE', #341, #805 ) ;
#205 = ORIENTED_EDGE ( 'NONE', *, *, #663, .F. ) ;
#206 = ORIENTED_EDGE ( 'NONE', *, *, #364, .T. ) ;
#207 = CARTESIAN_POINT ( 'NONE',  ( 17.25000000000000000, 2.000000000000000000, 7.250000000000000888 ) ) ;
#208 = CARTESIAN_POINT ( 'NONE',  ( -17.25000000000000000, 125.0000000000000000, -7.249999999999995559 ) ) ;
#209 = AXIS2_PLACEMENT_3D ( 'NONE', #168, #442, #732 ) ;
#210 = CARTESIAN_POINT ( 'NONE',  ( 17.25000000000000000, 2.000000000000001776, 9.000000000000001776 ) ) ;
#211 = ORIENTED_EDGE ( 'NONE', *, *, #357, .T. ) ;
#212 = FACE_BOUND ( 'NONE', #358, .T. ) ;
#213 = CYLINDRICAL_SURFACE ( 'NONE', #591, 0.2500000000000002220 ) ;
#214 = CYLINDRICAL_SURFACE ( 'NONE', #497, 0.2500000000000002220 ) ;
#215 = ORIENTED_EDGE ( 'NONE', *, *, #467, .F. ) ;
#216 = CARTESIAN_POINT ( 'NONE',  ( -17.00000000000000000, 1.734723475976807094E-15, 7.000000000000003553 ) ) ;
#217 = CARTESIAN_POINT ( 'NONE',  ( 17.25000000000000000, 2.000000000000000000, -7.499999999999999112 ) ) ;
#218 = CARTESIAN_POINT ( 'NONE',  ( 18.99999991713792724, 1.754133268581838934, 8.999999917137969874 ) ) ;
#219 = VERTEX_POINT ( 'NONE', #92 ) ;
#220 = LINE ( 'NONE', #481, #234 ) ;
#221 = CARTESIAN_POINT ( 'NONE',  ( -19.00000000000000355, 123.0000000000000000, -7.249999999999983125 ) ) ;
#222 = CARTESIAN_POINT ( 'NONE',  ( 18.00723761276715607, 0.2524270791556695870, 7.125904701595912272 ) ) ;
#223 = CIRCLE ( 'NONE', #769, 0.2500000000000002220 ) ;
#224 =( GEOMETRIC_REPRESENTATION_CONTEXT ( 3 ) GLOBAL_UNCERTAINTY_ASSIGNED_CONTEXT ( ( #164 ) ) GLOBAL_UNIT_ASSIGNED_CONTEXT ( ( #290, #232, #167 ) ) REPRESENTATION_CONTEXT ( 'NONE', 'WORKASPACE' ) );
#225 = EDGE_LOOP ( 'NONE', ( #1, #479, #721, #923 ) ) ;
#226 = CARTESIAN_POINT ( 'NONE',  ( 17.50000000000000000, 2.000000000000000000, 7.249999999999999112 ) ) ;
#227 = FACE_OUTER_BOUND ( 'NONE', #909, .T. ) ;
#228 = CARTESIAN_POINT ( 'NONE',  ( 18.98710775863866473, 1.738203519147816234, 7.248388469829835756 ) ) ;
#229 = VERTEX_POINT ( 'NONE', #733 ) ;
#230 = DIRECTION ( 'NONE',  ( 0.000000000000000000, 1.000000000000000000, 0.000000000000000000 ) ) ;
#231 = VERTEX_POINT ( 'NONE', #729 ) ;
#232 =( NAMED_UNIT ( * ) PLANE_ANGLE_UNIT ( ) SI_UNIT ( $, .RADIAN. ) );
#233 = LINE ( 'NONE', #798, #868 ) ;
#234 = VECTOR ( 'NONE', #69, 1000.000000000000000 ) ;
#235 = ADVANCED_FACE ( 'NONE', ( #297 ), #29, .T. ) ;
#236 = ORIENTED_EDGE ( 'NONE', *, *, #465, .T. ) ;
#237 = FILL_AREA_STYLE_COLOUR ( '', #421 ) ;
#238 = AXIS2_PLACEMENT_3D ( 'NONE', #97, #302, #889 ) ;
#239 = LINE ( 'NONE', #95, #915 ) ;
#240 = EDGE_CURVE ( 'NONE', #7, #202, #177, .T. ) ;
#241 = EDGE_LOOP ( 'NONE', ( #507, #406, #205, #197 ) ) ;
#242 = FACE_OUTER_BOUND ( 'NONE', #572, .T. ) ;
#243 = DIRECTION ( 'NONE',  ( 0.000000000000000000, 0.000000000000000000, 1.000000000000000000 ) ) ;
#244 = FACE_OUTER_BOUND ( 'NONE', #786, .T. ) ;
#245 = DIRECTION ( 'NONE',  ( -1.000000000000000000, 0.000000000000000000, 1.005636797667714163E-16 ) ) ;
#246 = DIRECTION ( 'NONE',  ( 0.000000000000000000, 0.000000000000000000, 1.000000000000000000 ) ) ;
#247 = CARTESIAN_POINT ( 'NONE',  ( 17.25000000000000000, 2.000000000000001776, -7.249999999999998224 ) ) ;
#248 = CARTESIAN_POINT ( 'NONE',  ( 19.00000000000000355, 125.0000000000000000, 7.249999999999999112 ) ) ;
#249 = CIRCLE ( 'NONE', #833, 1.749999999999999778 ) ;
#250 = CARTESIAN_POINT ( 'NONE',  ( -17.22470825467291533, 1.113697868563264359, 8.797666037383516269 ) ) ;
#251 = EDGE_CURVE ( 'NONE', #476, #267, #630, .T. ) ;
#252 = CARTESIAN_POINT ( 'NONE',  ( -17.80710905664767552, 0.08215198297904865998, -7.807109056647634659 ) ) ;
#253 = CARTESIAN_POINT ( 'NONE',  ( -18.73566304985677178, 0.9976984299155373659, 7.216957881232096916 ) ) ;
#254 = CARTESIAN_POINT ( 'NONE',  ( 17.52349611669323437, 0.05205479079919667768, -7.065437014586633424 ) ) ;
#255 = ORIENTED_EDGE ( 'NONE', *, *, #511, .T. ) ;
#256 = CARTESIAN_POINT ( 'NONE',  ( -17.00000000000000000, 1.734723475976807094E-15, -6.999999999999995559 ) ) ;
#257 = CARTESIAN_POINT ( 'NONE',  ( -19.00000000000000355, 2.000000000000001776, 7.250000000000002665 ) ) ;
#258 = DIRECTION ( 'NONE',  ( 0.000000000000000000, 0.000000000000000000, 1.000000000000000000 ) ) ;
#259 = EDGE_LOOP ( 'NONE', ( #236, #471, #717, #414, #562, #98, #123, #338 ) ) ;
#260 = CARTESIAN_POINT ( 'NONE',  ( -17.62359042312764501, 0.04500991363539393053, -7.623590423127751592 ) ) ;
#261 = ORIENTED_EDGE ( 'NONE', *, *, #186, .F. ) ;
#262 = CARTESIAN_POINT ( 'NONE',  ( -17.23723151158273126, 1.355568401976386950, 8.897852092661645784 ) ) ;
#263 = AXIS2_PLACEMENT_3D ( 'NONE', #377, #20, #243 ) ;
#264 = CARTESIAN_POINT ( 'NONE',  ( 17.18834668237918706, 0.6783463342873949919, -8.506773459033581730 ) ) ;
#265 = VECTOR ( 'NONE', #21, 1000.000000000000000 ) ;
#266 = ORIENTED_EDGE ( 'NONE', *, *, #22, .F. ) ;
#267 = VERTEX_POINT ( 'NONE', #326 ) ;
#268 = CARTESIAN_POINT ( 'NONE',  ( 17.25000000000000000, 123.0000000000000000, 7.250000000000000888 ) ) ;
#269 = FACE_OUTER_BOUND ( 'NONE', #770, .T. ) ;
#270 = ORIENTED_EDGE ( 'NONE', *, *, #470, .T. ) ;
#271 = VERTEX_POINT ( 'NONE', #908 ) ;
#272 = CARTESIAN_POINT ( 'NONE',  ( -17.29847652695766413, 0.004990747888078382773, 7.298476526957545119 ) ) ;
#273 = CARTESIAN_POINT ( 'NONE',  ( 17.00000000000000000, 1.734723475976807094E-15, -6.999999999999999112 ) ) ;
#274 = CARTESIAN_POINT ( 'NONE',  ( 17.50000000000000000, 123.0000000000000000, 7.249999999999999112 ) ) ;
#275 = VERTEX_POINT ( 'NONE', #744 ) ;
#276 = CARTESIAN_POINT ( 'NONE',  ( -17.00000000000000000, 1.734723475976807094E-15, 7.000000000000003553 ) ) ;
#277 = CARTESIAN_POINT ( 'NONE',  ( -17.25000000000000000, 123.0000000000000000, -7.249999999999995559 ) ) ;
#278 = DIRECTION ( 'NONE',  ( 0.000000000000000000, 0.000000000000000000, -1.000000000000000000 ) ) ;
#279 = FACE_OUTER_BOUND ( 'NONE', #241, .T. ) ;
#280 = DIRECTION ( 'NONE',  ( 1.000000000000000000, 0.000000000000000000, -7.542275982507855914E-17 ) ) ;
#281 = EDGE_CURVE ( 'NONE', #845, #491, #348, .T. ) ;
#282 = VERTEX_POINT ( 'NONE', #45 ) ;
#283 = DIRECTION ( 'NONE',  ( 0.000000000000000000, 0.000000000000000000, -1.000000000000000000 ) ) ;
#284 = LINE ( 'NONE', #783, #303 ) ;
#285 = CARTESIAN_POINT ( 'NONE',  ( 17.06543701458665652, 0.05205479079913288148, 7.523496116693073610 ) ) ;
#286 = ORIENTED_EDGE ( 'NONE', *, *, #139, .T. ) ;
#287 = DIRECTION ( 'NONE',  ( -0.000000000000000000, 0.000000000000000000, -1.000000000000000000 ) ) ;
#288 = CARTESIAN_POINT ( 'NONE',  ( 18.50677345903354620, 0.6783463342873613522, 7.188346682379198604 ) ) ;
#289 = ORIENTED_EDGE ( 'NONE', *, *, #642, .T. ) ;
#290 =( LENGTH_UNIT ( ) NAMED_UNIT ( * ) SI_UNIT ( .MILLI., .METRE. ) );
#291 = PLANE ( 'NONE',  #901 ) ;
#292 = ADVANCED_FACE ( 'NONE', ( #832 ), #456, .F. ) ;
#293 = LINE ( 'NONE', #652, #179 ) ;
#294 = ORIENTED_EDGE ( 'NONE', *, *, #63, .F. ) ;
#295 = CARTESIAN_POINT ( 'NONE',  ( -17.25000000000000000, 123.0000000000000000, 7.500000000000004441 ) ) ;
#296 = DIRECTION ( 'NONE',  ( 0.000000000000000000, 0.000000000000000000, 1.000000000000000000 ) ) ;
#297 = FACE_OUTER_BOUND ( 'NONE', #144, .T. ) ;
#298 = EDGE_LOOP ( 'NONE', ( #57, #768, #138, #779 ) ) ;
#299 = CARTESIAN_POINT ( 'NONE',  ( -18.43141810747839671, 0.4678725928725848138, -8.431418107478362955 ) ) ;
#300 = CARTESIAN_POINT ( 'NONE',  ( 17.25000000000000000, 2.000000000000000000, 7.250000000000000888 ) ) ;
#301 = EDGE_CURVE ( 'NONE', #579, #347, #578, .T. ) ;
#302 = DIRECTION ( 'NONE',  ( 0.000000000000000000, 0.000000000000000000, -1.000000000000000000 ) ) ;
#303 = VECTOR ( 'NONE', #143, 1000.000000000000000 ) ;
#304 = AXIS2_PLACEMENT_3D ( 'NONE', #403, #634, #278 ) ;
#305 = EDGE_LOOP ( 'NONE', ( #623, #261, #72, #135 ) ) ;
#306 = CARTESIAN_POINT ( 'NONE',  ( -18.17157287525381193, 1.953189899223893112E-15, -7.146446609406721606 ) ) ;
#307 = CARTESIAN_POINT ( 'NONE',  ( 19.00000000000000355, 123.0000000000000000, -7.249999999999996447 ) ) ;
#308 = DIRECTION ( 'NONE',  ( -0.000000000000000000, -1.000000000000000000, -0.000000000000000000 ) ) ;
#309 = CARTESIAN_POINT ( 'NONE',  ( 17.25000000000000000, 0.000000000000000000, 7.250000000000000888 ) ) ;
#310 = CARTESIAN_POINT ( 'NONE',  ( 17.29847652695765703, 0.004990747888097938310, 7.298476526957540678 ) ) ;
#311 = CARTESIAN_POINT ( 'NONE',  ( -17.24200417037180344, 1.481435192787643018, 8.936033362974253436 ) ) ;
#312 = UNCERTAINTY_MEASURE_WITH_UNIT (LENGTH_MEASURE( 1.000000000000000082E-05 ), #606, 'distance_accuracy_value', 'NONE');
#313 = CARTESIAN_POINT ( 'NONE',  ( 17.19877692491917998, 0.7800206380060722422, -8.590215399353420267 ) ) ;
#314 =( NAMED_UNIT ( * ) SI_UNIT ( $, .STERADIAN. ) SOLID_ANGLE_UNIT ( ) );
#315 = ADVANCED_FACE ( 'NONE', ( #182 ), #675, .T. ) ;
#316 = CARTESIAN_POINT ( 'NONE',  ( -17.24838846982981266, 1.738203519147849763, 8.987107758638673616 ) ) ;
#317 = ADVANCED_FACE ( 'NONE', ( #336 ), #570, .T. ) ;
#318 = CARTESIAN_POINT ( 'NONE',  ( 18.43141810747839671, 0.4678725928725859240, -8.431418107478366508 ) ) ;
#319 = DIRECTION ( 'NONE',  ( -0.000000000000000000, -1.000000000000000000, -0.000000000000000000 ) ) ;
#320 = CARTESIAN_POINT ( 'NONE',  ( -18.59021539935341139, 0.7800206380060572542, 7.198776924919181752 ) ) ;
#321 = CARTESIAN_POINT ( 'NONE',  ( 18.89785209266166888, 1.355568401976453341, -7.237231511582706389 ) ) ;
#322 = ORIENTED_EDGE ( 'NONE', *, *, #548, .T. ) ;
#323 = CARTESIAN_POINT ( 'NONE',  ( -17.18834668237918706, 0.6783463342873949919, -8.506773459033578177 ) ) ;
#324 =( BOUNDED_SURFACE ( )  B_SPLINE_SURFACE ( 3, 2, ( 
 ( #580, #94, #371 ),
 ( #573, #89, #654 ),
 ( #876, #85, #508 ),
 ( #871, #152, #428 ),
 ( #718, #359, #645 ),
 ( #797, #157, #432 ),
 ( #26, #299, #597 ),
 ( #53, #535, #386 ),
 ( #323, #171, #611 ),
 ( #192, #252, #827 ),
 ( #183, #260, #120 ),
 ( #670, #741, #667 ),
 ( #531, #898, #463 ),
 ( #256, #816, #445 ) ),
 .UNSPECIFIED., .F., .F., .T. ) 
 B_SPLINE_SURFACE_WITH_KNOTS ( ( 4, 2, 2, 2, 2, 2, 4 ),
 ( 3, 3 ),
 ( 6.283185307179586232, 6.479534848028948524, 6.675884388878310816, 6.872233929727672219, 7.068583470577034511, 7.461282552275758206, 7.853981633974482790 ),
 ( 0.000000000000000000, 1.000000000000000000 ),
 .UNSPECIFIED. ) 
 GEOMETRIC_REPRESENTATION_ITEM ( )  RATIONAL_B_SPLINE_SURFACE ( (
 ( 1.000000000000000000, 0.7071067811865475727, 1.000000000000000000),
 ( 1.000000000000000000, 0.7070716182662669658, 1.000000000000000000),
 ( 1.000000000000000000, 0.7117461491382255367, 1.000000000000000000),
 ( 1.000000000000000000, 0.7291287474050909267, 1.000000000000000000),
 ( 1.000000000000000000, 0.7418336156464846454, 1.000000000000000000),
 ( 1.000000000000000000, 0.7723966240507186276, 1.000000000000000000),
 ( 1.000000000000000000, 0.7902181801049075194, 1.000000000000000000),
 ( 1.000000000000000000, 0.8275940981384337647, 1.000000000000000000),
 ( 1.000000000000000000, 0.8471317835661507090, 1.000000000000000000),
 ( 1.000000000000000000, 0.9038126442210135947, 1.000000000000000000),
 ( 1.000000000000000000, 0.9386557458668496334, 1.000000000000000000),
 ( 1.000000000000000000, 0.9867290938954619284, 1.000000000000000000),
 ( 1.000000000000000000, 1.000158652389545377, 1.000000000000000000),
 ( 1.000000000000000000, 1.000000000000000000, 1.000000000000000000) ) ) 
 REPRESENTATION_ITEM ( '' )  SURFACE ( )  );
#325 = CARTESIAN_POINT ( 'NONE',  ( -19.00000000000000355, 2.000000000000001776, 7.250000000000001776 ) ) ;
#326 = CARTESIAN_POINT ( 'NONE',  ( 17.25000000000000000, 123.0000000000000000, -9.000000000000000000 ) ) ;
#327 = EDGE_CURVE ( 'NONE', #275, #436, #704, .T. ) ;
#328 = ORIENTED_EDGE ( 'NONE', *, *, #18, .F. ) ;
#329 = EDGE_CURVE ( 'NONE', #834, #666, #677, .T. ) ;
#330 = DIRECTION ( 'NONE',  ( 1.000000000000000000, 0.000000000000000000, -1.005636797667714163E-16 ) ) ;
#331 = CARTESIAN_POINT ( 'NONE',  ( -17.25000000000000000, 2.000000000000001776, -7.249999999999996447 ) ) ;
#332 = PRODUCT_DEFINITION_FORMATION_WITH_SPECIFIED_SOURCE ( 'Symmetric', '', #734, .NOT_KNOWN. ) ;
#333 = ORIENTED_EDGE ( 'NONE', *, *, #186, .T. ) ;
#334 = ADVANCED_FACE ( 'NONE', ( #279 ), #356, .T. ) ;
#335 = CARTESIAN_POINT ( 'NONE',  ( -17.25000000000000000, 0.8284271247461921783, 9.000000000000005329 ) ) ;
#336 = FACE_OUTER_BOUND ( 'NONE', #305, .T. ) ;
#337 = ORIENTED_EDGE ( 'NONE', *, *, #841, .T. ) ;
#338 = ORIENTED_EDGE ( 'NONE', *, *, #504, .T. ) ;
#339 = CARTESIAN_POINT ( 'NONE',  ( 19.00000000000000355, 0.8284271247461921783, 7.250000000000000888 ) ) ;
#340 = EDGE_CURVE ( 'NONE', #282, #271, #204, .T. ) ;
#341 = CARTESIAN_POINT ( 'NONE',  ( 17.25000000000000000, 0.000000000000000000, 7.000000000000000888 ) ) ;
#342 = CARTESIAN_POINT ( 'NONE',  ( 17.80710905664766841, 0.08215198297904474645, 7.807109056647639989 ) ) ;
#343 = ORIENTED_EDGE ( 'NONE', *, *, #467, .T. ) ;
#344 = CARTESIAN_POINT ( 'NONE',  ( -19.00000000000000355, 125.0000000000000000, -7.249999999999982236 ) ) ;
#345 = DIRECTION ( 'NONE',  ( -1.000000000000000000, 0.000000000000000000, 1.005636797667714163E-16 ) ) ;
#346 = VECTOR ( 'NONE', #765, 1000.000000000000000 ) ;
#347 = VERTEX_POINT ( 'NONE', #221 ) ;
#348 = CIRCLE ( 'NONE', #593, 1.749999999999999778 ) ;
#349 = APPLICATION_PROTOCOL_DEFINITION ( 'draft international standard', 'automotive_design', 1998, #647 ) ;
#350 = VERTEX_POINT ( 'NONE', #137 ) ;
#351 = CARTESIAN_POINT ( 'NONE',  ( -17.25000000000000000, 2.000000000000001776, 9.000000000000005329 ) ) ;
#352 = EDGE_CURVE ( 'NONE', #837, #397, #484, .T. ) ;
#353 = DIRECTION ( 'NONE',  ( -1.000000000000000000, -0.000000000000000000, 7.542275982507855914E-17 ) ) ;
#354 = CARTESIAN_POINT ( 'NONE',  ( 18.22909376905218792, 0.4006666443059998528, 7.153636721131517717 ) ) ;
#355 = VERTEX_POINT ( 'NONE', #70 ) ;
#356 = CYLINDRICAL_SURFACE ( 'NONE', #529, 1.750000000000000666 ) ;
#357 = EDGE_CURVE ( 'NONE', #440, #845, #790, .T. ) ;
#358 = EDGE_LOOP ( 'NONE', ( #690, #522, #19, #693, #757, #444, #614, #558 ) ) ;
#359 = CARTESIAN_POINT ( 'NONE',  ( -18.74474240374855682, 0.8917309400912243333, -8.744742403748505311 ) ) ;
#360 = CARTESIAN_POINT ( 'NONE',  ( -17.25000000000000000, 123.0000000000000000, 9.000000000000005329 ) ) ;
#361 = DIRECTION ( 'NONE',  ( 1.000000000000000000, -0.000000000000000000, -1.005636797667714163E-16 ) ) ;
#362 = VECTOR ( 'NONE', #575, 1000.000000000000000 ) ;
#363 = VECTOR ( 'NONE', #75, 1000.000000000000000 ) ;
#364 = EDGE_CURVE ( 'NONE', #397, #553, #886, .T. ) ;
#365 = AXIS2_PLACEMENT_3D ( 'NONE', #309, #895, #819 ) ;
#366 = ORIENTED_EDGE ( 'NONE', *, *, #526, .F. ) ;
#367 = CARTESIAN_POINT ( 'NONE',  ( 19.00000000000000355, 2.000000000000001776, 7.249999999999999112 ) ) ;
#368 = LINE ( 'NONE', #646, #362 ) ;
#369 = CARTESIAN_POINT ( 'NONE',  ( 17.25000000000000000, 2.000000000000001776, 9.000000000000001776 ) ) ;
#370 = EDGE_LOOP ( 'NONE', ( #475, #810, #124, #830 ) ) ;
#371 = CARTESIAN_POINT ( 'NONE',  ( -19.00000000000000355, 2.000000000000001776, -7.249999999999995559 ) ) ;
#372 = ADVANCED_FACE ( 'NONE', ( #631 ), #560, .T. ) ;
#373 = FACE_OUTER_BOUND ( 'NONE', #418, .T. ) ;
#374 = LINE ( 'NONE', #154, #408 ) ;
#375 = ORIENTED_EDGE ( 'NONE', *, *, #63, .T. ) ;
#376 = CARTESIAN_POINT ( 'NONE',  ( 17.25000000000000000, 123.0000000000000000, -7.249999999999998224 ) ) ;
#377 = CARTESIAN_POINT ( 'NONE',  ( 19.00000000000000355, 125.0000000000000000, 7.249999999999999112 ) ) ;
#378 = CARTESIAN_POINT ( 'NONE',  ( 17.03273079102130438, 1.714974303307770841E-15, 7.261846328168816811 ) ) ;
#379 = AXIS2_PLACEMENT_3D ( 'NONE', #446, #887, #433 ) ;
#380 = ORIENTED_EDGE ( 'NONE', *, *, #882, .F. ) ;
#381 = CYLINDRICAL_SURFACE ( 'NONE', #918, 2.000000000000000000 ) ;
#382 = FACE_OUTER_BOUND ( 'NONE', #802, .T. ) ;
#383 = PRODUCT_DEFINITION_CONTEXT ( 'detailed design', #647, 'design' ) ;
#384 = CARTESIAN_POINT ( 'NONE',  ( -17.50000000000000000, 123.0000000000000000, 7.250000000000001776 ) ) ;
#385 = EDGE_CURVE ( 'NONE', #229, #577, #772, .T. ) ;
#386 = CARTESIAN_POINT ( 'NONE',  ( -18.59021539935341139, 0.7800206380060572542, -7.198776924919173759 ) ) ;
#387 = CARTESIAN_POINT ( 'NONE',  ( -18.93603336297425699, 1.481435192787674104, 7.242004170371783900 ) ) ;
#388 = CARTESIAN_POINT ( 'NONE',  ( 18.73566304985677178, 0.9976984299155373659, -7.216957881232092475 ) ) ;
#389 = CARTESIAN_POINT ( 'NONE',  ( -17.25000000000000000, 123.0000000000000000, -8.999999999999996447 ) ) ;
#390 = CARTESIAN_POINT ( 'NONE',  ( 18.21312125441423291, 0.2867862932411906485, -8.213121254414266659 ) ) ;
#391 = ADVANCED_FACE ( 'NONE', ( #269 ), #213, .F. ) ;
#392 = DIRECTION ( 'NONE',  ( -0.000000000000000000, -1.000000000000000000, -0.000000000000000000 ) ) ;
#393 = AXIS2_PLACEMENT_3D ( 'NONE', #640, #489, #635 ) ;
#394 = AXIS2_PLACEMENT_3D ( 'NONE', #407, #865, #59 ) ;
#395 = CARTESIAN_POINT ( 'NONE',  ( -17.24999999973818277, 1.869099068902343674, 9.000000000000003553 ) ) ;
#396 = DIRECTION ( 'NONE',  ( 0.000000000000000000, 0.000000000000000000, 1.000000000000000000 ) ) ;
#397 = VERTEX_POINT ( 'NONE', #778 ) ;
#398 = LINE ( 'NONE', #911, #789 ) ;
#399 = CARTESIAN_POINT ( 'NONE',  ( -18.21312125441423291, 0.2867862932411945898, 8.213121254414252448 ) ) ;
#400 = CARTESIAN_POINT ( 'NONE',  ( 17.12590470159589273, 0.2524270791557247651, -8.007237612767289292 ) ) ;
#401 = ORIENTED_EDGE ( 'NONE', *, *, #465, .F. ) ;
#402 = ORIENTED_EDGE ( 'NONE', *, *, #30, .T. ) ;
#403 = CARTESIAN_POINT ( 'NONE',  ( -17.25000000000000000, 2.000000000000000000, 7.250000000000003553 ) ) ;
#404 = DIRECTION ( 'NONE',  ( -7.542275982507855914E-17, 0.000000000000000000, -1.000000000000000000 ) ) ;
#405 = ORIENTED_EDGE ( 'NONE', *, *, #327, .T. ) ;
#406 = ORIENTED_EDGE ( 'NONE', *, *, #281, .T. ) ;
#407 = CARTESIAN_POINT ( 'NONE',  ( -17.25000000000000000, 2.000000000000000000, -7.249999999999995559 ) ) ;
#408 = VECTOR ( 'NONE', #361, 1000.000000000000000 ) ;
#409 = CARTESIAN_POINT ( 'NONE',  ( 17.25000000000000000, 123.0000000000000000, 7.500000000000001776 ) ) ;
#410 = CARTESIAN_POINT ( 'NONE',  ( 17.25000000000000000, 123.0000000000000000, 7.250000000000000888 ) ) ;
#411 = VERTEX_POINT ( 'NONE', #129 ) ;
#412 = CARTESIAN_POINT ( 'NONE',  ( -17.50000000000000000, 2.000000000000000000, 7.250000000000001776 ) ) ;
#413 = CARTESIAN_POINT ( 'NONE',  ( 17.19877692491917998, 0.7800206380060722422, 8.590215399353422043 ) ) ;
#414 = ORIENTED_EDGE ( 'NONE', *, *, #922, .T. ) ;
#415 = CARTESIAN_POINT ( 'NONE',  ( -17.26184632816873332, 1.734723475976807094E-15, 7.032730791020894934 ) ) ;
#416 = DIRECTION ( 'NONE',  ( 1.000000000000000000, 0.000000000000000000, -7.542275982507855914E-17 ) ) ;
#417 = CARTESIAN_POINT ( 'NONE',  ( 17.24200417037180344, 1.481435192787643018, 8.936033362974253436 ) ) ;
#418 = EDGE_LOOP ( 'NONE', ( #64, #764, #88, #554 ) ) ;
#419 = VECTOR ( 'NONE', #582, 1000.000000000000000 ) ;
#420 = CARTESIAN_POINT ( 'NONE',  ( 17.25000000000000000, 123.0000000000000000, 7.250000000000000888 ) ) ;
#421 = COLOUR_RGB ( '',0.7921568627450980005, 0.8196078431372548767, 0.9333333333333333481 ) ;
#422 = CARTESIAN_POINT ( 'NONE',  ( 18.96403972038150343, 1.512701482218052673, 8.964039720381537180 ) ) ;
#423 = ORIENTED_EDGE ( 'NONE', *, *, #173, .F. ) ;
#424 = SURFACE_STYLE_FILL_AREA ( #803 ) ;
#425 = ORIENTED_EDGE ( 'NONE', *, *, #96, .T. ) ;
#426 = EDGE_CURVE ( 'NONE', #752, #231, #498, .T. ) ;
#427 = VERTEX_POINT ( 'NONE', #217 ) ;
#428 = CARTESIAN_POINT ( 'NONE',  ( -18.93603336297425699, 1.481435192787674104, -7.242004170371776794 ) ) ;
#429 = LINE ( 'NONE', #892, #60 ) ;
#430 = CARTESIAN_POINT ( 'NONE',  ( -17.50000000000000000, 123.0000000000000000, 7.250000000000001776 ) ) ;
#431 = ORIENTED_EDGE ( 'NONE', *, *, #673, .F. ) ;
#432 = CARTESIAN_POINT ( 'NONE',  ( -18.79766603738348252, 1.113697868563197968, -7.224708254672933094 ) ) ;
#433 = DIRECTION ( 'NONE',  ( 0.000000000000000000, 0.000000000000000000, -1.000000000000000000 ) ) ;
#434 = AXIS2_PLACEMENT_3D ( 'NONE', #914, #404, #839 ) ;
#435 = CARTESIAN_POINT ( 'NONE',  ( -17.25000000000000000, 2.000000000000000000, -7.499999999999995559 ) ) ;
#436 = VERTEX_POINT ( 'NONE', #66 ) ;
#437 = DIRECTION ( 'NONE',  ( 0.000000000000000000, 0.000000000000000000, -1.000000000000000000 ) ) ;
#438 = LINE ( 'NONE', #16, #419 ) ;
#439 = DIRECTION ( 'NONE',  ( -0.000000000000000000, -1.000000000000000000, -0.000000000000000000 ) ) ;
#440 = VERTEX_POINT ( 'NONE', #493 ) ;
#441 = DIRECTION ( 'NONE',  ( -0.000000000000000000, -1.000000000000000000, -0.000000000000000000 ) ) ;
#442 = DIRECTION ( 'NONE',  ( -0.000000000000000000, -1.000000000000000000, -0.000000000000000000 ) ) ;
#443 = DIRECTION ( 'NONE',  ( 0.000000000000000000, 0.000000000000000000, -1.000000000000000000 ) ) ;
#444 = ORIENTED_EDGE ( 'NONE', *, *, #801, .F. ) ;
#445 = CARTESIAN_POINT ( 'NONE',  ( -17.00000000000000000, 1.734723475976807094E-15, -6.999999999999995559 ) ) ;
#446 = CARTESIAN_POINT ( 'NONE',  ( 17.25000000000000000, 125.0000000000000000, 7.250000000000000888 ) ) ;
#447 = CARTESIAN_POINT ( 'NONE',  ( 17.14723599002701349, -3.595139819726867526E-09, 7.147235990028021568 ) ) ;
#448 = VECTOR ( 'NONE', #3, 1000.000000000000000 ) ;
#449 = CIRCLE ( 'NONE', #61, 1.750000000000000666 ) ;
#450 =( BOUNDED_SURFACE ( )  B_SPLINE_SURFACE ( 3, 2, ( 
 ( #257, #612, #184 ),
 ( #742, #180, #395 ),
 ( #913, #452, #316 ),
 ( #387, #750, #311 ),
 ( #41, #599, #262 ),
 ( #50, #905, #250 ),
 ( #253, #532, #455 ),
 ( #320, #399, #746 ),
 ( #466, #545, #755 ),
 ( #608, #907, #541 ),
 ( #831, #193, #121 ),
 ( #838, #272, #569 ),
 ( #415, #860, #777 ),
 ( #624, #276, #216 ) ),
 .UNSPECIFIED., .F., .F., .T. ) 
 B_SPLINE_SURFACE_WITH_KNOTS ( ( 4, 2, 2, 2, 2, 2, 4 ),
 ( 3, 3 ),
 ( 6.283185307179586232, 6.479534848028948524, 6.675884388878310816, 6.872233929727672219, 7.068583470577034511, 7.461282552275758206, 7.853981633974482790 ),
 ( 0.000000000000000000, 1.000000000000000000 ),
 .UNSPECIFIED. ) 
 GEOMETRIC_REPRESENTATION_ITEM ( )  RATIONAL_B_SPLINE_SURFACE ( (
 ( 1.000000000000000000, 0.7071067811865475727, 1.000000000000000000),
 ( 1.000000000000000000, 0.7070716182662656335, 1.000000000000000000),
 ( 1.000000000000000000, 0.7117461491382273131, 1.000000000000000000),
 ( 1.000000000000000000, 0.7291287474050889283, 1.000000000000000000),
 ( 1.000000000000000000, 0.7418336156464846454, 1.000000000000000000),
 ( 1.000000000000000000, 0.7723966240507186276, 1.000000000000000000),
 ( 1.000000000000000000, 0.7902181801049076304, 1.000000000000000000),
 ( 1.000000000000000000, 0.8275940981384338757, 1.000000000000000000),
 ( 1.000000000000000000, 0.8471317835661484885, 1.000000000000000000),
 ( 1.000000000000000000, 0.9038126442210180356, 1.000000000000000000),
 ( 1.000000000000000000, 0.9386557458668496334, 1.000000000000000000),
 ( 1.000000000000000000, 0.9867290938954619284, 1.000000000000000000),
 ( 1.000000000000000000, 1.000158652389545377, 1.000000000000000000),
 ( 1.000000000000000000, 1.000000000000000000, 1.000000000000000000) ) ) 
 REPRESENTATION_ITEM ( '' )  SURFACE ( )  );
#451 = CARTESIAN_POINT ( 'NONE',  ( 17.25000000000000000, 123.0000000000000000, -9.000000000000000000 ) ) ;
#452 = CARTESIAN_POINT ( 'NONE',  ( -18.96403972038150698, 1.512701482218057114, 8.964039720381535403 ) ) ;
#453 = DIRECTION ( 'NONE',  ( 0.000000000000000000, 1.000000000000000000, 0.000000000000000000 ) ) ;
#454 = PLANE ( 'NONE',  #365 ) ;
#455 = CARTESIAN_POINT ( 'NONE',  ( -17.21695788123209425, 0.9976984299155298164, 8.735663049856766449 ) ) ;
#456 = PLANE ( 'NONE',  #434 ) ;
#457 = DIRECTION ( 'NONE',  ( 1.000000000000000000, 0.000000000000000000, -7.542275982507855914E-17 ) ) ;
#458 = CARTESIAN_POINT ( 'NONE',  ( 17.25000000000000000, 2.000000000000001776, 7.250000000000000888 ) ) ;
#459 = CARTESIAN_POINT ( 'NONE',  ( 17.62359042312764501, 0.04500991363539273704, -7.623590423127755145 ) ) ;
#460 = ORIENTED_EDGE ( 'NONE', *, *, #710, .F. ) ;
#461 = EDGE_CURVE ( 'NONE', #231, #436, #284, .T. ) ;
#462 = AXIS2_PLACEMENT_3D ( 'NONE', #277, #564, #711 ) ;
#463 = CARTESIAN_POINT ( 'NONE',  ( -17.26184632816873332, 1.734723475976807094E-15, -7.032730791020886940 ) ) ;
#464 = AXIS2_PLACEMENT_3D ( 'NONE', #115, #392, #525 ) ;
#465 = EDGE_CURVE ( 'NONE', #649, #355, #249, .T. ) ;
#466 = CARTESIAN_POINT ( 'NONE',  ( -18.50677345903354620, 0.6783463342873613522, 7.188346682379201269 ) ) ;
#467 = EDGE_CURVE ( 'NONE', #427, #196, #438, .T. ) ;
#468 = CARTESIAN_POINT ( 'NONE',  ( 18.79766603738348252, 1.113697868563197968, -7.224708254672936647 ) ) ;
#469 = ORIENTED_EDGE ( 'NONE', *, *, #281, .F. ) ;
#470 = EDGE_CURVE ( 'NONE', #271, #68, #233, .T. ) ;
#471 = ORIENTED_EDGE ( 'NONE', *, *, #681, .T. ) ;
#472 = CARTESIAN_POINT ( 'NONE',  ( 17.25000000000000000, 0.8284271247461921783, -9.000000000000000000 ) ) ;
#473 = CARTESIAN_POINT ( 'NONE',  ( 18.22909376905218792, 0.4006666443059998528, -7.153636721131515941 ) ) ;
#474 = EDGE_CURVE ( 'NONE', #615, #427, #223, .T. ) ;
#475 = ORIENTED_EDGE ( 'NONE', *, *, #596, .T. ) ;
#476 = VERTEX_POINT ( 'NONE', #307 ) ;
#477 = LINE ( 'NONE', #412, #483 ) ;
#478 = DIRECTION ( 'NONE',  ( 0.000000000000000000, 0.000000000000000000, -1.000000000000000000 ) ) ;
#479 = ORIENTED_EDGE ( 'NONE', *, *, #131, .T. ) ;
#480 = ORIENTED_EDGE ( 'NONE', *, *, #673, .T. ) ;
#481 = CARTESIAN_POINT ( 'NONE',  ( 17.25000000000000000, 125.0000000000000000, -9.000000000000000000 ) ) ;
#482 = VECTOR ( 'NONE', #296, 1000.000000000000000 ) ;
#483 = VECTOR ( 'NONE', #127, 1000.000000000000000 ) ;
#484 = LINE ( 'NONE', #12, #751 ) ;
#485 = EDGE_CURVE ( 'NONE', #347, #834, #368, .T. ) ;
#486 = CARTESIAN_POINT ( 'NONE',  ( 18.54181562659777782, 0.5864909859806624048, 8.541815626597836442 ) ) ;
#487 = ORIENTED_EDGE ( 'NONE', *, *, #251, .F. ) ;
#488 = CARTESIAN_POINT ( 'NONE',  ( 19.00000000000000355, 2.000000000000001776, 7.249999999999999112 ) ) ;
#489 = DIRECTION ( 'NONE',  ( 1.005636797667714286E-16, -0.000000000000000000, 1.000000000000000000 ) ) ;
#490 = CARTESIAN_POINT ( 'NONE',  ( 19.00000000000000355, 2.000000000000001776, 7.250000000000000000 ) ) ;
#491 = VERTEX_POINT ( 'NONE', #590 ) ;
#492 = PLANE ( 'NONE',  #194 ) ;
#493 = CARTESIAN_POINT ( 'NONE',  ( 17.25000000000000000, 2.000000000000001776, -9.000000000000000000 ) ) ;
#494 = DIRECTION ( 'NONE',  ( 0.000000000000000000, 0.000000000000000000, -1.000000000000000000 ) ) ;
#495 = ORIENTED_EDGE ( 'NONE', *, *, #801, .T. ) ;
#496 = AXIS2_PLACEMENT_3D ( 'NONE', #27, #881, #100 ) ;
#497 = AXIS2_PLACEMENT_3D ( 'NONE', #410, #874, #494 ) ;
#498 = LINE ( 'NONE', #409, #706 ) ;
#499 = AXIS2_PLACEMENT_3D ( 'NONE', #555, #771, #699 ) ;
#500 = CARTESIAN_POINT ( 'NONE',  ( 17.22470825467291533, 1.113697868563264359, 8.797666037383512716 ) ) ;
#501 = AXIS2_PLACEMENT_3D ( 'NONE', #108, #758, #852 ) ;
#502 = ORIENTED_EDGE ( 'NONE', *, *, #636, .F. ) ;
#503 = PRESENTATION_STYLE_ASSIGNMENT (( #880 ) ) ;
#504 = EDGE_CURVE ( 'NONE', #666, #649, #873, .T. ) ;
#505 = DIRECTION ( 'NONE',  ( 0.000000000000000000, 1.000000000000000000, 0.000000000000000000 ) ) ;
#506 = LINE ( 'NONE', #150, #363 ) ;
#507 = ORIENTED_EDGE ( 'NONE', *, *, #78, .T. ) ;
#508 = CARTESIAN_POINT ( 'NONE',  ( -18.98710775863866473, 1.738203519147816234, -7.248388469829830427 ) ) ;
#509 = ADVANCED_FACE ( 'NONE', ( #227 ), #651, .F. ) ;
#510 = CARTESIAN_POINT ( 'NONE',  ( -19.00000000000000355, 2.000000000000001776, 7.250000000000001776 ) ) ;
#511 = EDGE_CURVE ( 'NONE', #666, #763, #429, .T. ) ;
#512 = CARTESIAN_POINT ( 'NONE',  ( 17.50000000000000000, 123.0000000000000000, 7.249999999999999112 ) ) ;
#513 = ORIENTED_EDGE ( 'NONE', *, *, #697, .F. ) ;
#514 = SURFACE_SIDE_STYLE ('',( #424 ) ) ;
#515 = CYLINDRICAL_SURFACE ( 'NONE', #379, 1.749999999999999778 ) ;
#516 = CARTESIAN_POINT ( 'NONE',  ( 17.52349611669323437, 0.05205479079919667768, 7.065437014586635200 ) ) ;
#517 = ADVANCED_FACE ( 'NONE', ( #373 ), #86, .F. ) ;
#518 = ADVANCED_FACE ( 'NONE', ( #382 ), #291, .T. ) ;
#519 = ORIENTED_EDGE ( 'NONE', *, *, #655, .F. ) ;
#520 = CYLINDRICAL_SURFACE ( 'NONE', #209, 1.750000000000000666 ) ;
#521 = CARTESIAN_POINT ( 'NONE',  ( 17.00000000000000000, 1.734723475976807094E-15, 7.000000000000000888 ) ) ;
#522 = ORIENTED_EDGE ( 'NONE', *, *, #841, .F. ) ;
#523 = FACE_OUTER_BOUND ( 'NONE', #101, .T. ) ;
#524 = DIRECTION ( 'NONE',  ( 0.000000000000000000, 1.000000000000000000, -0.000000000000000000 ) ) ;
#525 = DIRECTION ( 'NONE',  ( 0.000000000000000000, 0.000000000000000000, -1.000000000000000000 ) ) ;
#526 = EDGE_CURVE ( 'NONE', #491, #411, #813, .T. ) ;
#527 = CARTESIAN_POINT ( 'NONE',  ( -19.00000000000000355, 0.8284271247461921783, 7.250000000000002665 ) ) ;
#528 = CARTESIAN_POINT ( 'NONE',  ( 18.98710775863866473, 1.738203519147816234, -7.248388469829833980 ) ) ;
#529 = AXIS2_PLACEMENT_3D ( 'NONE', #208, #74, #478 ) ;
#530 = AXIS2_PLACEMENT_3D ( 'NONE', #458, #896, #246 ) ;
#531 = CARTESIAN_POINT ( 'NONE',  ( -17.03273079102130438, 1.708391245610413775E-15, -7.261846328168811482 ) ) ;
#532 = CARTESIAN_POINT ( 'NONE',  ( -18.43141810747840381, 0.4678725928725818162, 8.431418107478386048 ) ) ;
#533 = DIRECTION ( 'NONE',  ( 0.000000000000000000, 1.000000000000000000, 0.000000000000000000 ) ) ;
#534 = ADVANCED_FACE ( 'NONE', ( #158 ), #737, .T. ) ;
#535 = CARTESIAN_POINT ( 'NONE',  ( -18.21312125441423291, 0.2867862932411917032, -8.213121254414261330 ) ) ;
#536 = CARTESIAN_POINT ( 'NONE',  ( -17.14644660940673049, 1.953189899223893112E-15, -8.171572875253804824 ) ) ;
#537 = CARTESIAN_POINT ( 'NONE',  ( 17.29847652695766413, 0.004990747888094771573, -7.298476526957538901 ) ) ;
#538 = ADVANCED_FACE ( 'NONE', ( #523 ), #515, .T. ) ;
#539 = ORIENTED_EDGE ( 'NONE', *, *, #710, .T. ) ;
#540 =( NAMED_UNIT ( * ) PLANE_ANGLE_UNIT ( ) SI_UNIT ( $, .RADIAN. ) );
#541 = CARTESIAN_POINT ( 'NONE',  ( -17.15363672113153726, 0.4006666443059243021, 8.229093769052116869 ) ) ;
#542 = CARTESIAN_POINT ( 'NONE',  ( 18.74474240374855682, 0.8917309400912206696, -8.744742403748510640 ) ) ;
#543 = ORIENTED_EDGE ( 'NONE', *, *, #385, .F. ) ;
#544 = AXIS2_PLACEMENT_3D ( 'NONE', #91, #594, #877 ) ;
#545 = CARTESIAN_POINT ( 'NONE',  ( -18.10555849596298472, 0.2219347995166923715, 8.105558495963027354 ) ) ;
#546 = CARTESIAN_POINT ( 'NONE',  ( 17.00000000000000000, 1.734723475976807094E-15, -6.999999999999999112 ) ) ;
#547 = ORIENTED_EDGE ( 'NONE', *, *, #352, .T. ) ;
#548 = EDGE_CURVE ( 'NONE', #231, #151, #785, .T. ) ;
#549 = PRODUCT_CONTEXT ( 'NONE', #49, 'mechanical' ) ;
#550 = ORIENTED_EDGE ( 'NONE', *, *, #526, .T. ) ;
#551 = DIRECTION ( 'NONE',  ( 0.000000000000000000, 1.000000000000000000, 0.000000000000000000 ) ) ;
#552 = CARTESIAN_POINT ( 'NONE',  ( -17.50000000000000000, 123.0000000000000000, 7.250000000000001776 ) ) ;
#553 = VERTEX_POINT ( 'NONE', #728 ) ;
#554 = ORIENTED_EDGE ( 'NONE', *, *, #681, .F. ) ;
#555 = CARTESIAN_POINT ( 'NONE',  ( -17.00000000000000000, 2.000000000000001776, 7.250000000000001776 ) ) ;
#556 = DIRECTION ( 'NONE',  ( -1.000000000000000000, 0.000000000000000000, 0.000000000000000000 ) ) ;
#557 = CARTESIAN_POINT ( 'NONE',  ( 19.00000000000000000, 2.000000000000001776, 9.000000000000000000 ) ) ;
#558 = ORIENTED_EDGE ( 'NONE', *, *, #548, .F. ) ;
#559 = CYLINDRICAL_SURFACE ( 'NONE', #90, 0.2500000000000002220 ) ;
#560 = PLANE ( 'NONE',  #393 ) ;
#561 = CARTESIAN_POINT ( 'NONE',  ( 17.25000000000000000, 2.000000000000001776, 9.000000000000001776 ) ) ;
#562 = ORIENTED_EDGE ( 'NONE', *, *, #301, .T. ) ;
#563 = FACE_OUTER_BOUND ( 'NONE', #879, .T. ) ;
#564 = DIRECTION ( 'NONE',  ( 0.000000000000000000, 1.000000000000000000, 0.000000000000000000 ) ) ;
#565 = EDGE_CURVE ( 'NONE', #875, #615, #239, .T. ) ;
#566 = LINE ( 'NONE', #561, #146 ) ;
#567 = ADVANCED_FACE ( 'NONE', ( #105 ), #520, .T. ) ;
#568 = ORIENTED_EDGE ( 'NONE', *, *, #470, .F. ) ;
#569 = CARTESIAN_POINT ( 'NONE',  ( -17.06543701458665652, 0.05205479079913281210, 7.523496116693077163 ) ) ;
#570 = PLANE ( 'NONE',  #725 ) ;
#571 = CARTESIAN_POINT ( 'NONE',  ( 17.25000000000000000, 125.0000000000000000, 9.000000000000001776 ) ) ;
#572 = EDGE_LOOP ( 'NONE', ( #618, #469, #735 ) ) ;
#573 = CARTESIAN_POINT ( 'NONE',  ( -17.24999999973818277, 1.869099068902343674, -8.999999999999996447 ) ) ;
#574 = VECTOR ( 'NONE', #308, 1000.000000000000000 ) ;
#575 = DIRECTION ( 'NONE',  ( 0.000000000000000000, 0.000000000000000000, 1.000000000000000000 ) ) ;
#576 = VECTOR ( 'NONE', #437, 1000.000000000000000 ) ;
#577 = VERTEX_POINT ( 'NONE', #660 ) ;
#578 = CIRCLE ( 'NONE', #823, 1.750000000000000666 ) ;
#579 = VERTEX_POINT ( 'NONE', #389 ) ;
#580 = CARTESIAN_POINT ( 'NONE',  ( -17.25000000000000000, 2.000000000000001776, -8.999999999999996447 ) ) ;
#581 = EDGE_CURVE ( 'NONE', #7, #282, #38, .T. ) ;
#582 = DIRECTION ( 'NONE',  ( -1.000000000000000000, 0.000000000000000000, 1.005636797667714163E-16 ) ) ;
#583 = LINE ( 'NONE', #430, #265 ) ;
#584 = ORIENTED_EDGE ( 'NONE', *, *, #636, .T. ) ;
#585 = DIRECTION ( 'NONE',  ( 0.000000000000000000, 1.000000000000000000, 0.000000000000000000 ) ) ;
#586 = EDGE_CURVE ( 'NONE', #7, #440, #767, .T. ) ;
#587 = CARTESIAN_POINT ( 'NONE',  ( 17.14644660940673049, 2.240142493553380655E-15, 8.171572875253810153 ) ) ;
#588 = EDGE_LOOP ( 'NONE', ( #698, #550, #380, #792 ) ) ;
#589 = LINE ( 'NONE', #295, #835 ) ;
#590 = CARTESIAN_POINT ( 'NONE',  ( -19.00000000000000355, 2.000000000000001776, -7.249999999999982236 ) ) ;
#591 = AXIS2_PLACEMENT_3D ( 'NONE', #844, #861, #766 ) ;
#592 = LINE ( 'NONE', #512, #6 ) ;
#593 = AXIS2_PLACEMENT_3D ( 'NONE', #331, #118, #258 ) ;
#594 = DIRECTION ( 'NONE',  ( -0.000000000000000000, -1.000000000000000000, -0.000000000000000000 ) ) ;
#595 = CARTESIAN_POINT ( 'NONE',  ( 17.00000000000000000, 0.000000000000000000, -6.999999999999999112 ) ) ;
#596 = EDGE_CURVE ( 'NONE', #68, #845, #780, .T. ) ;
#597 = CARTESIAN_POINT ( 'NONE',  ( -18.73566304985677178, 0.9976984299155373659, -7.216957881232089811 ) ) ;
#598 = CARTESIAN_POINT ( 'NONE',  ( 19.00000000000000355, 125.0000000000000000, -7.249999999999996447 ) ) ;
#599 = CARTESIAN_POINT ( 'NONE',  ( -18.74474240374855682, 0.8917309400912237782, 8.744742403748517745 ) ) ;
#600 = DIRECTION ( 'NONE',  ( 0.000000000000000000, 0.000000000000000000, 1.000000000000000000 ) ) ;
#601 = AXIS2_PLACEMENT_3D ( 'NONE', #723, #23, #163 ) ;
#602 = CARTESIAN_POINT ( 'NONE',  ( 17.50000000000000000, 123.0000000000000000, -7.249999999999997335 ) ) ;
#603 =( GEOMETRIC_REPRESENTATION_CONTEXT ( 3 ) GLOBAL_UNCERTAINTY_ASSIGNED_CONTEXT ( ( #312 ) ) GLOBAL_UNIT_ASSIGNED_CONTEXT ( ( #606, #540, #314 ) ) REPRESENTATION_CONTEXT ( 'NONE', 'WORKASPACE' ) );
#604 = CARTESIAN_POINT ( 'NONE',  ( -17.00000000000000000, 0.000000000000000000, 7.000000000000003553 ) ) ;
#605 = CARTESIAN_POINT ( 'NONE',  ( 18.50677345903354620, 0.6783463342873613522, -7.188346682379196828 ) ) ;
#606 =( LENGTH_UNIT ( ) NAMED_UNIT ( * ) SI_UNIT ( .MILLI., .METRE. ) );
#607 =( BOUNDED_CURVE ( )  B_SPLINE_CURVE ( 3, ( #488, #339, #8, #843 ),
 .UNSPECIFIED., .F., .F. ) 
 B_SPLINE_CURVE_WITH_KNOTS ( ( 4, 4 ),
 ( 0.000000000000000000, 1.570796326794896558 ),
 .UNSPECIFIED. ) 
 CURVE ( )  GEOMETRIC_REPRESENTATION_ITEM ( )  RATIONAL_B_SPLINE_CURVE ( ( 1.000000000000000000, 0.8047378541243649375, 0.8047378541243649375, 1.000000000000000000 ) ) 
 REPRESENTATION_ITEM ( '' )  );
#608 = CARTESIAN_POINT ( 'NONE',  ( -18.22909376905218792, 0.4006666443059998528, 7.153636721131520382 ) ) ;
#609 = CARTESIAN_POINT ( 'NONE',  ( 19.00000000000000000, 2.000000000000001776, -9.000000000000000000 ) ) ;
#610 = ORIENTED_EDGE ( 'NONE', *, *, #79, .T. ) ;
#611 = CARTESIAN_POINT ( 'NONE',  ( -18.50677345903354620, 0.6783463342873613522, -7.188346682379193275 ) ) ;
#612 = CARTESIAN_POINT ( 'NONE',  ( -19.00000000000000000, 2.000000000000001776, 9.000000000000003553 ) ) ;
#613 = CARTESIAN_POINT ( 'NONE',  ( 17.80710905664767552, 0.08215198297904664770, -7.807109056647637324 ) ) ;
#614 = ORIENTED_EDGE ( 'NONE', *, *, #28, .F. ) ;
#615 = VERTEX_POINT ( 'NONE', #188 ) ;
#616 = LINE ( 'NONE', #344, #346 ) ;
#617 = CARTESIAN_POINT ( 'NONE',  ( 17.25000000000000000, 2.000000000000001776, -9.000000000000000000 ) ) ;
#618 = ORIENTED_EDGE ( 'NONE', *, *, #848, .T. ) ;
#619 = ADVANCED_BREP_SHAPE_REPRESENTATION ( 'Part4 Handle Grip', ( #809, #501 ), #603 ) ;
#620 = ADVANCED_FACE ( 'NONE', ( #671 ), #825, .F. ) ;
#621 = FACE_OUTER_BOUND ( 'NONE', #622, .T. ) ;
#622 = EDGE_LOOP ( 'NONE', ( #58, #366, #707, #568 ) ) ;
#623 = ORIENTED_EDGE ( 'NONE', *, *, #761, .F. ) ;
#624 = CARTESIAN_POINT ( 'NONE',  ( -17.00000000000000000, 1.734723475976807094E-15, 7.000000000000003553 ) ) ;
#625 = DIRECTION ( 'NONE',  ( 0.000000000000000000, 0.000000000000000000, 1.000000000000000000 ) ) ;
#626 = CARTESIAN_POINT ( 'NONE',  ( 18.21312125441423646, 0.2867862932411900379, 8.213121254414284422 ) ) ;
#627 = EDGE_LOOP ( 'NONE', ( #610, #917, #713, #487 ) ) ;
#628 = DIRECTION ( 'NONE',  ( 0.000000000000000000, 0.000000000000000000, -1.000000000000000000 ) ) ;
#629 = CIRCLE ( 'NONE', #530, 1.749999999999999778 ) ;
#630 = CIRCLE ( 'NONE', #76, 1.750000000000000666 ) ;
#631 = FACE_OUTER_BOUND ( 'NONE', #683, .T. ) ;
#632 = CARTESIAN_POINT ( 'NONE',  ( 18.74474240374855682, 0.8917309400912216688, 8.744742403748496429 ) ) ;
#633 = ORIENTED_EDGE ( 'NONE', *, *, #581, .T. ) ;
#634 = DIRECTION ( 'NONE',  ( 0.000000000000000000, 1.000000000000000000, 0.000000000000000000 ) ) ;
#635 = DIRECTION ( 'NONE',  ( 1.000000000000000000, 0.000000000000000000, -1.005636797667714286E-16 ) ) ;
#636 = EDGE_CURVE ( 'NONE', #350, #219, #629, .T. ) ;
#637 = CARTESIAN_POINT ( 'NONE',  ( 17.12590470159589273, 0.2524270791557246540, 8.007237612767289292 ) ) ;
#638 = ORIENTED_EDGE ( 'NONE', *, *, #565, .F. ) ;
#639 = DIRECTION ( 'NONE',  ( 0.000000000000000000, 0.000000000000000000, -1.000000000000000000 ) ) ;
#640 = CARTESIAN_POINT ( 'NONE',  ( 17.25000000000000000, 123.0000000000000000, -7.499999999999999112 ) ) ;
#641 = CARTESIAN_POINT ( 'NONE',  ( 18.89785209266166888, 1.355568401976453341, 7.237231511582708166 ) ) ;
#642 = EDGE_CURVE ( 'NONE', #411, #271, #52, .T. ) ;
#643 = ADVANCED_FACE ( 'NONE', ( #828 ), #450, .T. ) ;
#644 = ORIENTED_EDGE ( 'NONE', *, *, #131, .F. ) ;
#645 = CARTESIAN_POINT ( 'NONE',  ( -18.89785209266166888, 1.355568401976453341, -7.237231511582702836 ) ) ;
#646 = CARTESIAN_POINT ( 'NONE',  ( -19.00000000000000355, 123.0000000000000000, -7.249999999999983125 ) ) ;
#647 = APPLICATION_CONTEXT ( 'automotive_design' ) ;
#648 = DIRECTION ( 'NONE',  ( -0.000000000000000000, -1.000000000000000000, -0.000000000000000000 ) ) ;
#649 = VERTEX_POINT ( 'NONE', #136 ) ;
#650 = CARTESIAN_POINT ( 'NONE',  ( -17.25000000000000000, 123.0000000000000000, 7.250000000000003553 ) ) ;
#651 = CYLINDRICAL_SURFACE ( 'NONE', #544, 0.2500000000000002220 ) ;
#652 = CARTESIAN_POINT ( 'NONE',  ( -17.50000000000000000, 123.0000000000000000, -7.249999999999993783 ) ) ;
#653 = ORIENTED_EDGE ( 'NONE', *, *, #240, .T. ) ;
#654 = CARTESIAN_POINT ( 'NONE',  ( -19.00000000000000355, 1.869099068902370320, -7.249999999738212075 ) ) ;
#655 = EDGE_CURVE ( 'NONE', #196, #919, #162, .T. ) ;
#656 = DIRECTION ( 'NONE',  ( 0.000000000000000000, -0.000000000000000000, 1.000000000000000000 ) ) ;
#657 = CARTESIAN_POINT ( 'NONE',  ( 17.25000000000000000, 0.8284271247461921783, 9.000000000000001776 ) ) ;
#658 = ORIENTED_EDGE ( 'NONE', *, *, #730, .F. ) ;
#659 = DIRECTION ( 'NONE',  ( 0.000000000000000000, 0.000000000000000000, 1.000000000000000000 ) ) ;
#660 = CARTESIAN_POINT ( 'NONE',  ( -17.50000000000000000, 2.000000000000000000, 7.250000000000001776 ) ) ;
#661 = VECTOR ( 'NONE', #696, 1000.000000000000000 ) ;
#662 = EDGE_CURVE ( 'NONE', #267, #440, #220, .T. ) ;
#663 = EDGE_CURVE ( 'NONE', #347, #491, #616, .T. ) ;
#664 = CARTESIAN_POINT ( 'NONE',  ( 19.00000000000000355, 2.000000000000001776, -7.249999999999996447 ) ) ;
#665 = AXIS2_PLACEMENT_3D ( 'NONE', #376, #148, #659 ) ;
#666 = VERTEX_POINT ( 'NONE', #703 ) ;
#667 = CARTESIAN_POINT ( 'NONE',  ( -17.52349611669323437, 0.05205479079919667768, -7.065437014586629871 ) ) ;
#668 = CARTESIAN_POINT ( 'NONE',  ( -19.00000000000000355, 125.0000000000000000, 7.250000000000001776 ) ) ;
#669 = DIRECTION ( 'NONE',  ( 0.000000000000000000, 0.000000000000000000, 1.000000000000000000 ) ) ;
#670 = CARTESIAN_POINT ( 'NONE',  ( -17.06543701458665652, 0.05205479079913288148, -7.523496116693068281 ) ) ;
#671 = FACE_OUTER_BOUND ( 'NONE', #588, .T. ) ;
#672 = CARTESIAN_POINT ( 'NONE',  ( 17.21695788123209425, 0.9976984299155224889, -8.735663049856757567 ) ) ;
#673 = EDGE_CURVE ( 'NONE', #436, #781, #692, .T. ) ;
#674 = ADVANCED_FACE ( 'NONE', ( #77 ), #492, .F. ) ;
#675 =( BOUNDED_SURFACE ( )  B_SPLINE_SURFACE ( 3, 2, ( 
 ( #689, #609, #617 ),
 ( #682, #110, #122 ),
 ( #528, #51, #826 ),
 ( #126, #185, #821 ),
 ( #321, #542, #195 ),
 ( #468, #756, #113 ),
 ( #388, #318, #672 ),
 ( #189, #390, #313 ),
 ( #605, #42, #264 ),
 ( #473, #613, #906 ),
 ( #902, #459, #400 ),
 ( #254, #537, #676 ),
 ( #199, #829, #56 ),
 ( #546, #762, #273 ) ),
 .UNSPECIFIED., .F., .F., .T. ) 
 B_SPLINE_SURFACE_WITH_KNOTS ( ( 4, 2, 2, 2, 2, 2, 4 ),
 ( 3, 3 ),
 ( 6.283185307179586232, 6.479534848028948524, 6.675884388878310816, 6.872233929727672219, 7.068583470577034511, 7.461282552275758206, 7.853981633974482790 ),
 ( 0.000000000000000000, 1.000000000000000000 ),
 .UNSPECIFIED. ) 
 GEOMETRIC_REPRESENTATION_ITEM ( )  RATIONAL_B_SPLINE_SURFACE ( (
 ( 1.000000000000000000, 0.7071067811865475727, 1.000000000000000000),
 ( 1.000000000000000000, 0.7070716182662658555, 1.000000000000000000),
 ( 1.000000000000000000, 0.7117461491382274241, 1.000000000000000000),
 ( 1.000000000000000000, 0.7291287474050890394, 1.000000000000000000),
 ( 1.000000000000000000, 0.7418336156464827580, 1.000000000000000000),
 ( 1.000000000000000000, 0.7723966240507206260, 1.000000000000000000),
 ( 1.000000000000000000, 0.7902181801049075194, 1.000000000000000000),
 ( 1.000000000000000000, 0.8275940981384337647, 1.000000000000000000),
 ( 1.000000000000000000, 0.8471317835661507090, 1.000000000000000000),
 ( 1.000000000000000000, 0.9038126442210135947, 1.000000000000000000),
 ( 1.000000000000000000, 0.9386557458668496334, 1.000000000000000000),
 ( 1.000000000000000000, 0.9867290938954619284, 1.000000000000000000),
 ( 1.000000000000000000, 1.000158652389545377, 1.000000000000000000),
 ( 1.000000000000000000, 1.000000000000000000, 1.000000000000000000) ) ) 
 REPRESENTATION_ITEM ( '' )  SURFACE ( )  );
#676 = CARTESIAN_POINT ( 'NONE',  ( 17.06543701458665652, 0.05205479079913281210, -7.523496116693072722 ) ) ;
#677 = CIRCLE ( 'NONE', #804, 1.750000000000000666 ) ;
#678 = VECTOR ( 'NONE', #714, 1000.000000000000000 ) ;
#679 = DIRECTION ( 'NONE',  ( -0.000000000000000000, -1.000000000000000000, -0.000000000000000000 ) ) ;
#680 = DIRECTION ( 'NONE',  ( 0.000000000000000000, 0.000000000000000000, -1.000000000000000000 ) ) ;
#681 = EDGE_CURVE ( 'NONE', #355, #476, #73, .T. ) ;
#682 = CARTESIAN_POINT ( 'NONE',  ( 19.00000000000000355, 1.869099068902369210, -7.249999999738195200 ) ) ;
#683 = EDGE_LOOP ( 'NONE', ( #215, #93, #547, #402 ) ) ;
#684 = CARTESIAN_POINT ( 'NONE',  ( 17.25000000000000000, 2.000000000000001776, -6.999999999999999112 ) ) ;
#685 = DIRECTION ( 'NONE',  ( -0.000000000000000000, -0.000000000000000000, 1.000000000000000000 ) ) ;
#686 = ORIENTED_EDGE ( 'NONE', *, *, #749, .T. ) ;
#687 = ORIENTED_EDGE ( 'NONE', *, *, #474, .T. ) ;
#688 = FACE_OUTER_BOUND ( 'NONE', #259, .T. ) ;
#689 = CARTESIAN_POINT ( 'NONE',  ( 19.00000000000000355, 2.000000000000001776, -7.249999999999999112 ) ) ;
#690 = ORIENTED_EDGE ( 'NONE', *, *, #426, .F. ) ;
#691 = AXIS2_PLACEMENT_3D ( 'NONE', #724, #524, #669 ) ;
#692 = CIRCLE ( 'NONE', #130, 0.2500000000000002220 ) ;
#693 = ORIENTED_EDGE ( 'NONE', *, *, #364, .F. ) ;
#694 = CARTESIAN_POINT ( 'NONE',  ( -17.25000000000000000, 123.0000000000000000, 7.500000000000004441 ) ) ;
#695 = DIRECTION ( 'NONE',  ( 1.000000000000000000, 0.000000000000000000, -7.542275982507855914E-17 ) ) ;
#696 = DIRECTION ( 'NONE',  ( 0.000000000000000000, 0.000000000000000000, -1.000000000000000000 ) ) ;
#697 = EDGE_CURVE ( 'NONE', #763, #271, #773, .T. ) ;
#698 = ORIENTED_EDGE ( 'NONE', *, *, #663, .T. ) ;
#699 = DIRECTION ( 'NONE',  ( 1.000000000000000000, 0.000000000000000000, 0.000000000000000000 ) ) ;
#700 = CARTESIAN_POINT ( 'NONE',  ( 17.25000000000000000, 2.000000000000000000, 7.500000000000001776 ) ) ;
#701 = LINE ( 'NONE', #571, #35 ) ;
#702 = ORIENTED_EDGE ( 'NONE', *, *, #655, .T. ) ;
#703 = CARTESIAN_POINT ( 'NONE',  ( -17.25000000000000000, 123.0000000000000000, 9.000000000000005329 ) ) ;
#704 = LINE ( 'NONE', #700, #128 ) ;
#705 = CARTESIAN_POINT ( 'NONE',  ( 18.83479962945024866, 1.079418774859634667, 8.834799629450220237 ) ) ;
#706 = VECTOR ( 'NONE', #695, 1000.000000000000000 ) ;
#707 = ORIENTED_EDGE ( 'NONE', *, *, #848, .F. ) ;
#708 = DIRECTION ( 'NONE',  ( 0.000000000000000000, 1.000000000000000000, 0.000000000000000000 ) ) ;
#709 = CIRCLE ( 'NONE', #304, 0.2500000000000002220 ) ;
#710 = EDGE_CURVE ( 'NONE', #219, #282, #607, .T. ) ;
#711 = DIRECTION ( 'NONE',  ( 0.000000000000000000, 0.000000000000000000, 1.000000000000000000 ) ) ;
#712 = CARTESIAN_POINT ( 'NONE',  ( 17.24838846982981266, 1.738203519147849763, 8.987107758638671839 ) ) ;
#713 = ORIENTED_EDGE ( 'NONE', *, *, #662, .F. ) ;
#714 = DIRECTION ( 'NONE',  ( 0.000000000000000000, 0.000000000000000000, -1.000000000000000000 ) ) ;
#715 = DIRECTION ( 'NONE',  ( 0.000000000000000000, 0.000000000000000000, 1.000000000000000000 ) ) ;
#716 = CARTESIAN_POINT ( 'NONE',  ( 17.18834668237918706, 0.6783463342873949919, 8.506773459033583507 ) ) ;
#717 = ORIENTED_EDGE ( 'NONE', *, *, #251, .T. ) ;
#718 = CARTESIAN_POINT ( 'NONE',  ( -17.23723151158273126, 1.355568401976386950, -8.897852092661636902 ) ) ;
#719 = CARTESIAN_POINT ( 'NONE',  ( 17.25000000000000000, 2.000000000000000000, -7.249999999999998224 ) ) ;
#720 = CARTESIAN_POINT ( 'NONE',  ( -17.25000000000000000, 125.0000000000000000, -8.999999999999996447 ) ) ;
#721 = ORIENTED_EDGE ( 'NONE', *, *, #511, .F. ) ;
#722 = CARTESIAN_POINT ( 'NONE',  ( 17.25000000000000000, 123.0000000000000000, -7.499999999999999112 ) ) ;
#723 = CARTESIAN_POINT ( 'NONE',  ( 17.25000000000000000, 123.0000000000000000, 7.250000000000000888 ) ) ;
#724 = CARTESIAN_POINT ( 'NONE',  ( -17.25000000000000000, 2.000000000000001776, 7.250000000000003553 ) ) ;
#725 = AXIS2_PLACEMENT_3D ( 'NONE', #866, #556, #715 ) ;
#726 = ORIENTED_EDGE ( 'NONE', *, *, #385, .T. ) ;
#727 = CARTESIAN_POINT ( 'NONE',  ( -17.00000000000000000, 0.000000000000000000, -6.999999999999995559 ) ) ;
#728 = CARTESIAN_POINT ( 'NONE',  ( -17.50000000000000000, 123.0000000000000000, -7.249999999999993783 ) ) ;
#729 = CARTESIAN_POINT ( 'NONE',  ( 17.25000000000000000, 123.0000000000000000, 7.500000000000001776 ) ) ;
#730 = EDGE_CURVE ( 'NONE', #577, #275, #709, .T. ) ;
#731 = ORIENTED_EDGE ( 'NONE', *, *, #761, .T. ) ;
#732 = DIRECTION ( 'NONE',  ( 0.000000000000000000, 0.000000000000000000, -1.000000000000000000 ) ) ;
#733 = CARTESIAN_POINT ( 'NONE',  ( -17.50000000000000000, 123.0000000000000000, 7.250000000000001776 ) ) ;
#734 = PRODUCT ( 'Part4 Handle Grip', 'Part4 Handle Grip', '', ( #549 ) ) ;
#735 = ORIENTED_EDGE ( 'NONE', *, *, #596, .F. ) ;
#736 = LINE ( 'NONE', #248, #740 ) ;
#737 = PLANE ( 'NONE',  #496 ) ;
#738 = DIRECTION ( 'NONE',  ( -0.000000000000000000, -1.000000000000000000, -0.000000000000000000 ) ) ;
#739 = MECHANICAL_DESIGN_GEOMETRIC_PRESENTATION_REPRESENTATION (  '', ( #34 ), #224 ) ;
#740 = VECTOR ( 'NONE', #679, 1000.000000000000000 ) ;
#741 = CARTESIAN_POINT ( 'NONE',  ( -17.29847652695766413, 0.004990747888095968532, -7.298476526957536237 ) ) ;
#742 = CARTESIAN_POINT ( 'NONE',  ( -19.00000000000000355, 1.869099068902370320, 7.249999999738220069 ) ) ;
#743 = ADVANCED_FACE ( 'NONE', ( #563 ), #559, .F. ) ;
#744 = CARTESIAN_POINT ( 'NONE',  ( -17.25000000000000000, 2.000000000000000000, 7.500000000000004441 ) ) ;
#745 = ADVANCED_FACE ( 'NONE', ( #212, #688 ), #920, .T. ) ;
#746 = CARTESIAN_POINT ( 'NONE',  ( -17.19877692491917998, 0.7800206380060646927, 8.590215399353418491 ) ) ;
#747 = CARTESIAN_POINT ( 'NONE',  ( -17.25000000000000000, 123.0000000000000000, -7.249999999999995559 ) ) ;
#748 = DIRECTION ( 'NONE',  ( 0.000000000000000000, 0.000000000000000000, -1.000000000000000000 ) ) ;
#749 = EDGE_CURVE ( 'NONE', #919, #577, #477, .T. ) ;
#750 = CARTESIAN_POINT ( 'NONE',  ( -18.83479962945024511, 1.079418774859628893, 8.834799629450220237 ) ) ;
#751 = VECTOR ( 'NONE', #345, 1000.000000000000000 ) ;
#752 = VERTEX_POINT ( 'NONE', #694 ) ;
#753 = ADVANCED_FACE ( 'NONE', ( #621 ), #924, .T. ) ;
#754 = CARTESIAN_POINT ( 'NONE',  ( 17.25000000000000000, 2.000000000000001776, 7.000000000000000888 ) ) ;
#755 = CARTESIAN_POINT ( 'NONE',  ( -17.18834668237918706, 0.6783463342874036517, 8.506773459033594165 ) ) ;
#756 = CARTESIAN_POINT ( 'NONE',  ( 18.54181562659777782, 0.5864909859806635151, -8.541815626597818678 ) ) ;
#757 = ORIENTED_EDGE ( 'NONE', *, *, #352, .F. ) ;
#758 = DIRECTION ( 'NONE',  ( 0.000000000000000000, 0.000000000000000000, 1.000000000000000000 ) ) ;
#759 = EDGE_LOOP ( 'NONE', ( #200, #884, #160 ) ) ;
#760 = DIRECTION ( 'NONE',  ( 1.000000000000000000, 0.000000000000000000, 0.000000000000000000 ) ) ;
#761 = EDGE_CURVE ( 'NONE', #781, #615, #846, .T. ) ;
#762 = CARTESIAN_POINT ( 'NONE',  ( 17.00000000000000000, 1.734723475976807094E-15, -6.999999999999999112 ) ) ;
#763 = VERTEX_POINT ( 'NONE', #885 ) ;
#764 = ORIENTED_EDGE ( 'NONE', *, *, #820, .T. ) ;
#765 = DIRECTION ( 'NONE',  ( -0.000000000000000000, -1.000000000000000000, -0.000000000000000000 ) ) ;
#766 = DIRECTION ( 'NONE',  ( 0.000000000000000000, 0.000000000000000000, -1.000000000000000000 ) ) ;
#767 =( BOUNDED_CURVE ( )  B_SPLINE_CURVE ( 3, ( #116, #109, #472, #112 ),
 .UNSPECIFIED., .F., .F. ) 
 B_SPLINE_CURVE_WITH_KNOTS ( ( 4, 4 ),
 ( 4.712388980384689674, 6.283185307179586232 ),
 .UNSPECIFIED. ) 
 CURVE ( )  GEOMETRIC_REPRESENTATION_ITEM ( )  RATIONAL_B_SPLINE_CURVE ( ( 1.000000000000000000, 0.8047378541243649375, 0.8047378541243649375, 1.000000000000000000 ) ) 
 REPRESENTATION_ITEM ( '' )  );
#768 = ORIENTED_EDGE ( 'NONE', *, *, #775, .F. ) ;
#769 = AXIS2_PLACEMENT_3D ( 'NONE', #719, #585, #172 ) ;
#770 = EDGE_LOOP ( 'NONE', ( #519, #81, #206, #796 ) ) ;
#771 = DIRECTION ( 'NONE',  ( 0.000000000000000000, 0.000000000000000000, 1.000000000000000000 ) ) ;
#772 = LINE ( 'NONE', #552, #117 ) ;
#773 =( BOUNDED_CURVE ( )  B_SPLINE_CURVE ( 3, ( #351, #335, #782, #787 ),
 .UNSPECIFIED., .F., .F. ) 
 B_SPLINE_CURVE_WITH_KNOTS ( ( 4, 4 ),
 ( 0.000000000000000000, 1.570796326794896558 ),
 .UNSPECIFIED. ) 
 CURVE ( )  GEOMETRIC_REPRESENTATION_ITEM ( )  RATIONAL_B_SPLINE_CURVE ( ( 1.000000000000000000, 0.8047378541243649375, 0.8047378541243649375, 1.000000000000000000 ) ) 
 REPRESENTATION_ITEM ( '' )  );
#774 = CARTESIAN_POINT ( 'NONE',  ( 17.21695788123209425, 0.9976984299155224889, 8.735663049856759343 ) ) ;
#775 = EDGE_CURVE ( 'NONE', #752, #275, #589, .T. ) ;
#776 = ORIENTED_EDGE ( 'NONE', *, *, #697, .T. ) ;
#777 = CARTESIAN_POINT ( 'NONE',  ( -17.03273079102130438, 1.754472648645843545E-15, 7.261846328168819475 ) ) ;
#778 = CARTESIAN_POINT ( 'NONE',  ( -17.25000000000000000, 123.0000000000000000, -7.499999999999995559 ) ) ;
#779 = ORIENTED_EDGE ( 'NONE', *, *, #461, .T. ) ;
#780 =( BOUNDED_CURVE ( )  B_SPLINE_CURVE ( 3, ( #125, #536, #900, #54 ),
 .UNSPECIFIED., .F., .F. ) 
 B_SPLINE_CURVE_WITH_KNOTS ( ( 4, 4 ),
 ( 4.712388980384689674, 6.283185307179586232 ),
 .UNSPECIFIED. ) 
 CURVE ( )  GEOMETRIC_REPRESENTATION_ITEM ( )  RATIONAL_B_SPLINE_CURVE ( ( 1.000000000000000000, 0.8047378541243649375, 0.8047378541243649375, 1.000000000000000000 ) ) 
 REPRESENTATION_ITEM ( '' )  );
#781 = VERTEX_POINT ( 'NONE', #226 ) ;
#782 = CARTESIAN_POINT ( 'NONE',  ( -17.14644660940673049, 2.240142493553380655E-15, 8.171572875253813706 ) ) ;
#783 = CARTESIAN_POINT ( 'NONE',  ( 17.25000000000000000, 123.0000000000000000, 7.500000000000001776 ) ) ;
#784 = CARTESIAN_POINT ( 'NONE',  ( 17.23723151158273126, 1.355568401976386950, 8.897852092661642232 ) ) ;
#785 = CIRCLE ( 'NONE', #601, 0.2500000000000002220 ) ;
#786 = EDGE_LOOP ( 'NONE', ( #842, #423, #147, #726 ) ) ;
#787 = CARTESIAN_POINT ( 'NONE',  ( -17.00000000000000000, 0.000000000000000000, 7.000000000000003553 ) ) ;
#788 = PRESENTATION_LAYER_ASSIGNMENT (  '', '', ( #34 ) ) ;
#789 = VECTOR ( 'NONE', #319, 1000.000000000000000 ) ;
#790 = LINE ( 'NONE', #149, #448 ) ;
#791 = CARTESIAN_POINT ( 'NONE',  ( 18.79766603738348252, 1.113697868563197968, 7.224708254672937535 ) ) ;
#792 = ORIENTED_EDGE ( 'NONE', *, *, #485, .F. ) ;
#793 = LINE ( 'NONE', #367, #576 ) ;
#794 = DIRECTION ( 'NONE',  ( 0.000000000000000000, 0.000000000000000000, 1.000000000000000000 ) ) ;
#795 = CARTESIAN_POINT ( 'NONE',  ( 17.00000000000000000, 1.734723475976807094E-15, 7.000000000000000888 ) ) ;
#796 = ORIENTED_EDGE ( 'NONE', *, *, #173, .T. ) ;
#797 = CARTESIAN_POINT ( 'NONE',  ( -17.22470825467291533, 1.113697868563264359, -8.797666037383507387 ) ) ;
#798 = CARTESIAN_POINT ( 'NONE',  ( -17.00000000000000000, 0.000000000000000000, 7.250000000000000888 ) ) ;
#799 = PRODUCT_DEFINITION_SHAPE ( 'NONE', 'NONE',  #155 ) ;
#800 = DIRECTION ( 'NONE',  ( -0.000000000000000000, -1.000000000000000000, -0.000000000000000000 ) ) ;
#801 = EDGE_CURVE ( 'NONE', #875, #837, #853, .T. ) ;
#802 = EDGE_LOOP ( 'NONE', ( #480, #731, #687, #343, #702, #686, #84, #405 ) ) ;
#803 = FILL_AREA_STYLE ('',( #237 ) ) ;
#804 = AXIS2_PLACEMENT_3D ( 'NONE', #847, #82, #625 ) ;
#805 = VECTOR ( 'NONE', #353, 1000.000000000000000 ) ;
#806 = DIRECTION ( 'NONE',  ( -0.000000000000000000, -1.000000000000000000, -0.000000000000000000 ) ) ;
#807 = CIRCLE ( 'NONE', #178, 0.2500000000000002220 ) ;
#808 = LINE ( 'NONE', #720, #916 ) ;
#809 = MANIFOLD_SOLID_BREP ( 'Fillet1', #836 ) ;
#810 = ORIENTED_EDGE ( 'NONE', *, *, #357, .F. ) ;
#811 = CARTESIAN_POINT ( 'NONE',  ( -19.00000000000000355, 123.0000000000000000, 7.250000000000001776 ) ) ;
#812 = PRODUCT_RELATED_PRODUCT_CATEGORY ( 'part', '', ( #734 ) ) ;
#813 = LINE ( 'NONE', #510, #482 ) ;
#814 = PLANE ( 'NONE',  #869 ) ;
#815 = EDGE_LOOP ( 'NONE', ( #286, #633, #119, #270 ) ) ;
#816 = CARTESIAN_POINT ( 'NONE',  ( -17.00000000000000000, 1.734723475976807094E-15, -6.999999999999995559 ) ) ;
#817 = DIRECTION ( 'NONE',  ( -0.000000000000000000, -1.000000000000000000, -0.000000000000000000 ) ) ;
#818 = CARTESIAN_POINT ( 'NONE',  ( 19.00000000000000355, 0.8284271247461921783, -7.249999999999998224 ) ) ;
#819 = DIRECTION ( 'NONE',  ( 0.000000000000000000, -0.000000000000000000, 1.000000000000000000 ) ) ;
#820 = EDGE_CURVE ( 'NONE', #219, #202, #793, .T. ) ;
#821 = CARTESIAN_POINT ( 'NONE',  ( 17.24200417037180344, 1.481435192787643018, -8.936033362974251659 ) ) ;
#822 = VECTOR ( 'NONE', #628, 1000.000000000000000 ) ;
#823 = AXIS2_PLACEMENT_3D ( 'NONE', #747, #453, #396 ) ;
#824 = FACE_OUTER_BOUND ( 'NONE', #627, .T. ) ;
#825 = PLANE ( 'NONE',  #851 ) ;
#826 = CARTESIAN_POINT ( 'NONE',  ( 17.24838846982981266, 1.738203519147849763, -8.987107758638670063 ) ) ;
#827 = CARTESIAN_POINT ( 'NONE',  ( -18.22909376905218792, 0.4006666443059998528, -7.153636721131512388 ) ) ;
#828 = FACE_OUTER_BOUND ( 'NONE', #14, .T. ) ;
#829 = CARTESIAN_POINT ( 'NONE',  ( 17.14723599002707388, -3.595139819728215830E-09, -7.147235990027974495 ) ) ;
#830 = ORIENTED_EDGE ( 'NONE', *, *, #139, .F. ) ;
#831 = CARTESIAN_POINT ( 'NONE',  ( -18.00723761276715607, 0.2524270791556695870, 7.125904701595914936 ) ) ;
#832 = FACE_OUTER_BOUND ( 'NONE', #166, .T. ) ;
#833 = AXIS2_PLACEMENT_3D ( 'NONE', #420, #505, #794 ) ;
#834 = VERTEX_POINT ( 'NONE', #811 ) ;
#835 = VECTOR ( 'NONE', #441, 1000.000000000000000 ) ;
#836 = CLOSED_SHELL ( 'NONE', ( #538, #517, #863, #674, #334, #620, #567, #292, #910, #745, #47, #317, #743, #372, #391, #107, #509, #534, #518, #753, #643, #849, #858, #899, #55, #315, #235 ) ) ;
#837 = VERTEX_POINT ( 'NONE', #722 ) ;
#838 = CARTESIAN_POINT ( 'NONE',  ( -17.52349611669323437, 0.05205479079919667768, 7.065437014586636977 ) ) ;
#839 = DIRECTION ( 'NONE',  ( -1.000000000000000000, 0.000000000000000000, 7.542275982507855914E-17 ) ) ;
#840 = ORIENTED_EDGE ( 'NONE', *, *, #78, .F. ) ;
#841 = EDGE_CURVE ( 'NONE', #229, #752, #807, .T. ) ;
#842 = ORIENTED_EDGE ( 'NONE', *, *, #749, .F. ) ;
#843 = CARTESIAN_POINT ( 'NONE',  ( 17.00000000000000000, 0.000000000000000000, 7.000000000000000888 ) ) ;
#844 = CARTESIAN_POINT ( 'NONE',  ( -17.25000000000000000, 123.0000000000000000, -7.249999999999995559 ) ) ;
#845 = VERTEX_POINT ( 'NONE', #32 ) ;
#846 = LINE ( 'NONE', #161, #678 ) ;
#847 = CARTESIAN_POINT ( 'NONE',  ( -17.25000000000000000, 123.0000000000000000, 7.250000000000003553 ) ) ;
#848 = EDGE_CURVE ( 'NONE', #68, #491, #141, .T. ) ;
#849 = ADVANCED_FACE ( 'NONE', ( #242 ), #324, .T. ) ;
#850 = CARTESIAN_POINT ( 'NONE',  ( 18.93603336297425699, 1.481435192787674104, 7.242004170371781235 ) ) ;
#851 = AXIS2_PLACEMENT_3D ( 'NONE', #668, #760, #680 ) ;
#852 = DIRECTION ( 'NONE',  ( 1.000000000000000000, 0.000000000000000000, 0.000000000000000000 ) ) ;
#853 = CIRCLE ( 'NONE', #665, 0.2500000000000002220 ) ;
#854 = EDGE_LOOP ( 'NONE', ( #776, #859, #294, #266 ) ) ;
#855 = CARTESIAN_POINT ( 'NONE',  ( 17.25000000000000000, 123.0000000000000000, -7.249999999999998224 ) ) ;
#856 = DIRECTION ( 'NONE',  ( -0.000000000000000000, -1.000000000000000000, -0.000000000000000000 ) ) ;
#857 = LINE ( 'NONE', #274, #661 ) ;
#858 = ADVANCED_FACE ( 'NONE', ( #43 ), #187, .T. ) ;
#859 = ORIENTED_EDGE ( 'NONE', *, *, #340, .F. ) ;
#860 = CARTESIAN_POINT ( 'NONE',  ( -17.14723599002702414, -3.595139819726989948E-09, 7.147235990028028674 ) ) ;
#861 = DIRECTION ( 'NONE',  ( -0.000000000000000000, -1.000000000000000000, -0.000000000000000000 ) ) ;
#862 = CARTESIAN_POINT ( 'NONE',  ( 17.24999999973818277, 1.869099068902343674, 9.000000000000001776 ) ) ;
#863 = ADVANCED_FACE ( 'NONE', ( #824 ), #111, .T. ) ;
#864 = ORIENTED_EDGE ( 'NONE', *, *, #872, .F. ) ;
#865 = DIRECTION ( 'NONE',  ( 0.000000000000000000, 1.000000000000000000, 0.000000000000000000 ) ) ;
#866 = CARTESIAN_POINT ( 'NONE',  ( 17.50000000000000000, 123.0000000000000000, 7.249999999999999112 ) ) ;
#867 = CARTESIAN_POINT ( 'NONE',  ( 19.00000000000000355, 1.869099068902370320, 7.249999999738217404 ) ) ;
#868 = VECTOR ( 'NONE', #287, 1000.000000000000000 ) ;
#869 = AXIS2_PLACEMENT_3D ( 'NONE', #384, #169, #443 ) ;
#870 = ORIENTED_EDGE ( 'NONE', *, *, #504, .F. ) ;
#871 = CARTESIAN_POINT ( 'NONE',  ( -17.24200417037180344, 1.481435192787643018, -8.936033362974248107 ) ) ;
#872 = EDGE_CURVE ( 'NONE', #355, #219, #736, .T. ) ;
#873 = LINE ( 'NONE', #360, #33 ) ;
#874 = DIRECTION ( 'NONE',  ( -0.000000000000000000, -1.000000000000000000, -0.000000000000000000 ) ) ;
#875 = VERTEX_POINT ( 'NONE', #602 ) ;
#876 = CARTESIAN_POINT ( 'NONE',  ( -17.24838846982981266, 1.738203519147849763, -8.987107758638666510 ) ) ;
#877 = DIRECTION ( 'NONE',  ( 0.000000000000000000, 0.000000000000000000, -1.000000000000000000 ) ) ;
#878 = CARTESIAN_POINT ( 'NONE',  ( 17.00000000000000000, 1.734723475976807094E-15, 7.000000000000000888 ) ) ;
#879 = EDGE_LOOP ( 'NONE', ( #890, #638, #495, #425 ) ) ;
#880 = SURFACE_STYLE_USAGE ( .BOTH. , #514 ) ;
#881 = DIRECTION ( 'NONE',  ( -7.542275982507857147E-17, 0.000000000000000000, -1.000000000000000000 ) ) ;
#882 = EDGE_CURVE ( 'NONE', #834, #411, #398, .T. ) ;
#883 = CARTESIAN_POINT ( 'NONE',  ( 17.25000000000000000, 123.0000000000000000, -7.499999999999999112 ) ) ;
#884 = ORIENTED_EDGE ( 'NONE', *, *, #114, .F. ) ;
#885 = CARTESIAN_POINT ( 'NONE',  ( -17.25000000000000000, 2.000000000000001776, 9.000000000000005329 ) ) ;
#886 = CIRCLE ( 'NONE', #462, 0.2500000000000002220 ) ;
#887 = DIRECTION ( 'NONE',  ( -0.000000000000000000, -1.000000000000000000, -0.000000000000000000 ) ) ;
#888 = AXIS2_PLACEMENT_3D ( 'NONE', #754, #457, #748 ) ;
#889 = DIRECTION ( 'NONE',  ( -1.000000000000000000, 0.000000000000000000, 0.000000000000000000 ) ) ;
#890 = ORIENTED_EDGE ( 'NONE', *, *, #474, .F. ) ;
#891 = CARTESIAN_POINT ( 'NONE',  ( -19.00000000000000355, 0.8284271247461921783, -7.249999999999995559 ) ) ;
#892 = CARTESIAN_POINT ( 'NONE',  ( -17.25000000000000000, 125.0000000000000000, 9.000000000000005329 ) ) ;
#893 = CARTESIAN_POINT ( 'NONE',  ( 18.17157287525381193, 1.953189899223893112E-15, -7.146446609406725159 ) ) ;
#894 = EDGE_LOOP ( 'NONE', ( #502, #375, #460 ) ) ;
#895 = DIRECTION ( 'NONE',  ( 0.000000000000000000, 1.000000000000000000, 0.000000000000000000 ) ) ;
#896 = DIRECTION ( 'NONE',  ( 0.000000000000000000, 1.000000000000000000, 0.000000000000000000 ) ) ;
#897 = LINE ( 'NONE', #883, #104 ) ;
#898 = CARTESIAN_POINT ( 'NONE',  ( -17.14723599002702414, -3.595139819726989948E-09, -7.147235990028020680 ) ) ;
#899 = ADVANCED_FACE ( 'NONE', ( #102 ), #381, .T. ) ;
#900 = CARTESIAN_POINT ( 'NONE',  ( -17.25000000000000000, 0.8284271247461921783, -8.999999999999996447 ) ) ;
#901 = AXIS2_PLACEMENT_3D ( 'NONE', #300, #230, #656 ) ;
#902 = CARTESIAN_POINT ( 'NONE',  ( 18.00723761276715607, 0.2524270791556695870, -7.125904701595910495 ) ) ;
#903 = VECTOR ( 'NONE', #904, 1000.000000000000000 ) ;
#904 = DIRECTION ( 'NONE',  ( -1.000000000000000000, 0.000000000000000000, 1.005636797667714163E-16 ) ) ;
#905 = CARTESIAN_POINT ( 'NONE',  ( -18.54181562659777782, 0.5864909859806591852, 8.541815626597825784 ) ) ;
#906 = CARTESIAN_POINT ( 'NONE',  ( 17.15363672113153726, 0.4006666443059416771, -8.229093769052131080 ) ) ;
#907 = CARTESIAN_POINT ( 'NONE',  ( -17.80710905664766841, 0.08215198297904527380, 7.807109056647607126 ) ) ;
#908 = CARTESIAN_POINT ( 'NONE',  ( -17.00000000000000000, 0.000000000000000000, 7.000000000000003553 ) ) ;
#909 = EDGE_LOOP ( 'NONE', ( #658, #543, #337, #31 ) ) ;
#910 = ADVANCED_FACE ( 'NONE', ( #46 ), #454, .F. ) ;
#911 = CARTESIAN_POINT ( 'NONE',  ( -19.00000000000000355, 125.0000000000000000, 7.250000000000001776 ) ) ;
#912 = ORIENTED_EDGE ( 'NONE', *, *, #662, .T. ) ;
#913 = CARTESIAN_POINT ( 'NONE',  ( -18.98710775863866473, 1.738203519147816234, 7.248388469829837533 ) ) ;
#914 = CARTESIAN_POINT ( 'NONE',  ( 17.25000000000000000, 125.0000000000000000, 9.000000000000001776 ) ) ;
#915 = VECTOR ( 'NONE', #817, 1000.000000000000000 ) ;
#916 = VECTOR ( 'NONE', #738, 1000.000000000000000 ) ;
#917 = ORIENTED_EDGE ( 'NONE', *, *, #114, .T. ) ;
#918 = AXIS2_PLACEMENT_3D ( 'NONE', #684, #245, #37 ) ;
#919 = VERTEX_POINT ( 'NONE', #175 ) ;
#920 = PLANE ( 'NONE',  #145 ) ;
#921 = CARTESIAN_POINT ( 'NONE',  ( 19.00000000000000355, 2.000000000000001776, -7.249999999999996447 ) ) ;
#922 = EDGE_CURVE ( 'NONE', #267, #579, #40, .T. ) ;
#923 = ORIENTED_EDGE ( 'NONE', *, *, #329, .F. ) ;
#924 = CYLINDRICAL_SURFACE ( 'NONE', #499, 2.000000000000000000 ) ;
#925 = DIRECTION ( 'NONE',  ( -0.000000000000000000, -1.000000000000000000, -0.000000000000000000 ) ) ;
ENDSEC;
END-ISO-10303-21;
