ISO-10303-21;
HEADER;
FILE_DESCRIPTION (( 'STEP AP214' ),
    '1' );
FILE_NAME ('Part3 Handle.STEP',
    '2025-08-04T11:00:08',
    ( '' ),
    ( '' ),
    'SwSTEP 2.0',
    'SolidWorks 2025',
    '' );
FILE_SCHEMA (( 'AUTOMOTIVE_DESIGN' ));
ENDSEC;

DATA;
#1 = DIRECTION ( 'NONE',  ( -0.000000000000000000, -0.000000000000000000, -1.000000000000000000 ) ) ;
#2 = DIRECTION ( 'NONE',  ( -1.000000000000000000, 0.000000000000000000, 9.912705577010325549E-17 ) ) ;
#3 = ORIENTED_EDGE ( 'NONE', *, *, #568, .T. ) ;
#4 = CARTESIAN_POINT ( 'NONE',  ( -16.25000000000001066, 0.000000000000000000, 6.000000000000001776 ) ) ;
#5 = AXIS2_PLACEMENT_3D ( 'NONE', #164, #169, #422 ) ;
#6 = VECTOR ( 'NONE', #387, 1000.000000000000000 ) ;
#7 = DIRECTION ( 'NONE',  ( -0.000000000000000000, 1.000000000000000000, 0.000000000000000000 ) ) ;
#8 = AXIS2_PLACEMENT_3D ( 'NONE', #1059, #942, #172 ) ;
#9 = ORIENTED_EDGE ( 'NONE', *, *, #1090, .T. ) ;
#10 = DIRECTION ( 'NONE',  ( 1.881733940042639107E-15, 0.000000000000000000, -1.000000000000000000 ) ) ;
#11 = VERTEX_POINT ( 'NONE', #467 ) ;
#12 = CARTESIAN_POINT ( 'NONE',  ( 17.49999999999998934, 0.000000000000000000, 5.999999999999998224 ) ) ;
#13 = PLANE ( 'NONE',  #89 ) ;
#14 = ORIENTED_EDGE ( 'NONE', *, *, #1057, .T. ) ;
#15 = CARTESIAN_POINT ( 'NONE',  ( 17.49999999999998934, 0.000000000000000000, 5.999999999999998224 ) ) ;
#16 = ORIENTED_EDGE ( 'NONE', *, *, #543, .T. ) ;
#17 = FACE_OUTER_BOUND ( 'NONE', #519, .T. ) ;
#18 = LINE ( 'NONE', #182, #713 ) ;
#19 = VERTEX_POINT ( 'NONE', #654 ) ;
#20 = EDGE_CURVE ( 'NONE', #189, #209, #1081, .T. ) ;
#21 = CARTESIAN_POINT ( 'NONE',  ( 17.49999999999998934, 450.0000000000000000, -6.000000000000001776 ) ) ;
#22 = ORIENTED_EDGE ( 'NONE', *, *, #385, .T. ) ;
#23 = PLANE ( 'NONE',  #1022 ) ;
#24 = CIRCLE ( 'NONE', #642, 0.2500000000000002220 ) ;
#25 = DIRECTION ( 'NONE',  ( -0.000000000000000000, -1.000000000000000000, -0.000000000000000000 ) ) ;
#26 = ORIENTED_EDGE ( 'NONE', *, *, #167, .F. ) ;
#27 = DIRECTION ( 'NONE',  ( 1.000000000000000000, 0.000000000000000000, 2.081668171172166936E-15 ) ) ;
#28 = DIRECTION ( 'NONE',  ( 0.000000000000000000, 1.000000000000000000, 0.000000000000000000 ) ) ;
#29 = EDGE_CURVE ( 'NONE', #976, #901, #1003, .T. ) ;
#30 = CARTESIAN_POINT ( 'NONE',  ( -17.50000000000001066, 450.0000000000000000, -5.999999999999991118 ) ) ;
#31 = VERTEX_POINT ( 'NONE', #233 ) ;
#32 = CARTESIAN_POINT ( 'NONE',  ( -3.999999999999994227, 35.00000000000000000, -6.249999999999999112 ) ) ;
#33 = ORIENTED_EDGE ( 'NONE', *, *, #931, .F. ) ;
#34 = CARTESIAN_POINT ( 'NONE',  ( -17.50000000000001066, 450.0000000000000000, 5.999999999999999112 ) ) ;
#35 = SURFACE_STYLE_USAGE ( .BOTH. , #1064 ) ;
#36 = EDGE_CURVE ( 'NONE', #178, #1007, #126, .T. ) ;
#37 = VERTEX_POINT ( 'NONE', #991 ) ;
#38 = ADVANCED_FACE ( 'NONE', ( #727 ), #732, .T. ) ;
#39 = EDGE_LOOP ( 'NONE', ( #694 ) ) ;
#40 = DIRECTION ( 'NONE',  ( -1.881733940042639107E-15, 0.000000000000000000, 1.000000000000000000 ) ) ;
#41 = AXIS2_PLACEMENT_3D ( 'NONE', #57, #808, #475 ) ;
#42 = VECTOR ( 'NONE', #490, 1000.000000000000000 ) ;
#43 = AXIS2_PLACEMENT_3D ( 'NONE', #136, #660, #554 ) ;
#44 = ORIENTED_EDGE ( 'NONE', *, *, #208, .F. ) ;
#45 = CARTESIAN_POINT ( 'NONE',  ( 15.99999999999998579, 0.000000000000000000, 7.499999999999998224 ) ) ;
#46 = CARTESIAN_POINT ( 'NONE',  ( -16.25000000000001421, 450.0000000000000000, -5.999999999999996447 ) ) ;
#47 = ORIENTED_EDGE ( 'NONE', *, *, #64, .T. ) ;
#48 = CYLINDRICAL_SURFACE ( 'NONE', #874, 1.500000000000000444 ) ;
#49 = CARTESIAN_POINT ( 'NONE',  ( 17.49999999999998934, 450.0000000000000000, -6.250000000000000888 ) ) ;
#50 = CARTESIAN_POINT ( 'NONE',  ( 15.99999999999998579, 450.0000000000000000, 7.499999999999998224 ) ) ;
#51 = CARTESIAN_POINT ( 'NONE',  ( 15.99999999999998579, 0.000000000000000000, -7.500000000000001776 ) ) ;
#52 = CARTESIAN_POINT ( 'NONE',  ( -16.00000000000001421, 0.000000000000000000, -7.499999999999998224 ) ) ;
#53 = CARTESIAN_POINT ( 'NONE',  ( -16.00000000000001421, 450.0000000000000000, 6.000000000000001776 ) ) ;
#54 = VECTOR ( 'NONE', #992, 1000.000000000000000 ) ;
#55 = CARTESIAN_POINT ( 'NONE',  ( 17.49999999999998934, 0.000000000000000000, -6.250000000000000888 ) ) ;
#56 = EDGE_CURVE ( 'NONE', #479, #592, #304, .T. ) ;
#57 = CARTESIAN_POINT ( 'NONE',  ( -7.434529182757744409E-16, 35.00000000000000000, -6.249999999999999112 ) ) ;
#58 = VERTEX_POINT ( 'NONE', #216 ) ;
#59 = ADVANCED_FACE ( 'NONE', ( #548, #648, #399 ), #146, .T. ) ;
#60 = CARTESIAN_POINT ( 'NONE',  ( 17.49999999999998934, 450.0000000000000000, 6.249999999999997335 ) ) ;
#61 = DIRECTION ( 'NONE',  ( 0.000000000000000000, 1.000000000000000000, 0.000000000000000000 ) ) ;
#62 = EDGE_CURVE ( 'NONE', #346, #161, #897, .T. ) ;
#63 = DIRECTION ( 'NONE',  ( 1.000000000000000000, 0.000000000000000000, 0.000000000000000000 ) ) ;
#64 = EDGE_CURVE ( 'NONE', #620, #58, #314, .T. ) ;
#65 = ORIENTED_EDGE ( 'NONE', *, *, #71, .T. ) ;
#66 = DIRECTION ( 'NONE',  ( 0.000000000000000000, 0.000000000000000000, -1.000000000000000000 ) ) ;
#67 = LINE ( 'NONE', #259, #852 ) ;
#68 = FACE_OUTER_BOUND ( 'NONE', #697, .T. ) ;
#69 = CIRCLE ( 'NONE', #691, 1.500000000000000444 ) ;
#70 = ORIENTED_EDGE ( 'NONE', *, *, #577, .F. ) ;
#71 = EDGE_CURVE ( 'NONE', #250, #784, #69, .T. ) ;
#72 = VECTOR ( 'NONE', #376, 1000.000000000000000 ) ;
#73 = CARTESIAN_POINT ( 'NONE',  ( 15.99999999999998579, 450.0000000000000000, -7.500000000000001776 ) ) ;
#74 = VECTOR ( 'NONE', #526, 1000.000000000000000 ) ;
#75 = ADVANCED_FACE ( 'NONE', ( #68 ), #1101, .T. ) ;
#76 = DIRECTION ( 'NONE',  ( 1.000000000000000000, 0.000000000000000000, 2.363560736018397694E-15 ) ) ;
#77 = DIRECTION ( 'NONE',  ( 1.886511780124776137E-15, -0.000000000000000000, 1.000000000000000000 ) ) ;
#78 = ORIENTED_EDGE ( 'NONE', *, *, #854, .F. ) ;
#79 = FACE_OUTER_BOUND ( 'NONE', #667, .T. ) ;
#80 = LINE ( 'NONE', #574, #832 ) ;
#81 = LINE ( 'NONE', #674, #759 ) ;
#82 = EDGE_LOOP ( 'NONE', ( #768, #256, #702, #328 ) ) ;
#83 = PLANE ( 'NONE',  #438 ) ;
#84 = CARTESIAN_POINT ( 'NONE',  ( -16.00000000000001421, 0.000000000000000000, 7.500000000000001776 ) ) ;
#85 = FACE_BOUND ( 'NONE', #655, .T. ) ;
#86 = ORIENTED_EDGE ( 'NONE', *, *, #624, .T. ) ;
#87 = DIRECTION ( 'NONE',  ( -0.000000000000000000, -1.000000000000000000, -0.000000000000000000 ) ) ;
#88 = AXIS2_PLACEMENT_3D ( 'NONE', #729, #545, #989 ) ;
#89 = AXIS2_PLACEMENT_3D ( 'NONE', #239, #340, #1030 ) ;
#90 = ORIENTED_EDGE ( 'NONE', *, *, #394, .F. ) ;
#91 = DIRECTION ( 'NONE',  ( -1.000000000000000000, 0.000000000000000000, 0.000000000000000000 ) ) ;
#92 = ADVANCED_FACE ( 'NONE', ( #587, #85, #598 ), #665, .F. ) ;
#93 = ADVANCED_FACE ( 'NONE', ( #323 ), #935, .T. ) ;
#94 = ORIENTED_EDGE ( 'NONE', *, *, #853, .F. ) ;
#95 = CYLINDRICAL_SURFACE ( 'NONE', #8, 0.2500000000000002220 ) ;
#96 = EDGE_LOOP ( 'NONE', ( #430, #1089, #936, #867 ) ) ;
#97 = CARTESIAN_POINT ( 'NONE',  ( 17.49999999999998934, 0.000000000000000000, -6.000000000000001776 ) ) ;
#98 = FACE_OUTER_BOUND ( 'NONE', #454, .T. ) ;
#99 = ORIENTED_EDGE ( 'NONE', *, *, #543, .F. ) ;
#100 = CARTESIAN_POINT ( 'NONE',  ( -16.25000000000000000, 0.000000000000000000, -0.1250000000000002220 ) ) ;
#101 = ORIENTED_EDGE ( 'NONE', *, *, #645, .F. ) ;
#102 = FACE_BOUND ( 'NONE', #537, .T. ) ;
#103 = VERTEX_POINT ( 'NONE', #177 ) ;
#104 = CARTESIAN_POINT ( 'NONE',  ( -17.50000000000000000, 450.0000000000000000, 0.1250000000000041078 ) ) ;
#105 = VECTOR ( 'NONE', #700, 1000.000000000000000 ) ;
#106 = ORIENTED_EDGE ( 'NONE', *, *, #56, .F. ) ;
#107 = DIRECTION ( 'NONE',  ( -1.000000000000000000, 0.000000000000000000, 9.912705577010325549E-17 ) ) ;
#108 = AXIS2_PLACEMENT_3D ( 'NONE', #1011, #7, #326 ) ;
#109 = EDGE_CURVE ( 'NONE', #309, #250, #81, .T. ) ;
#110 = LINE ( 'NONE', #441, #1063 ) ;
#111 = VERTEX_POINT ( 'NONE', #760 ) ;
#112 = CARTESIAN_POINT ( 'NONE',  ( 3.999999999999992450, 15.00000000000000000, 6.250000000000000000 ) ) ;
#113 = ORIENTED_EDGE ( 'NONE', *, *, #116, .F. ) ;
#114 = DIRECTION ( 'NONE',  ( 0.000000000000000000, 0.000000000000000000, -1.000000000000000000 ) ) ;
#115 = DIRECTION ( 'NONE',  ( 1.000000000000000000, 0.000000000000000000, -0.000000000000000000 ) ) ;
#116 = EDGE_CURVE ( 'NONE', #456, #178, #410, .T. ) ;
#117 = ORIENTED_EDGE ( 'NONE', *, *, #378, .F. ) ;
#118 = LINE ( 'NONE', #354, #602 ) ;
#119 = EDGE_LOOP ( 'NONE', ( #930, #944, #94, #941 ) ) ;
#120 = DIRECTION ( 'NONE',  ( -0.000000000000000000, 1.000000000000000000, 0.000000000000000000 ) ) ;
#121 = CARTESIAN_POINT ( 'NONE',  ( -16.25000000000001421, 450.0000000000000000, -5.999999999999996447 ) ) ;
#122 = ORIENTED_EDGE ( 'NONE', *, *, #29, .T. ) ;
#123 = ORIENTED_EDGE ( 'NONE', *, *, #109, .F. ) ;
#124 = CARTESIAN_POINT ( 'NONE',  ( -16.00000000000001421, 0.000000000000000000, -5.999999999999997335 ) ) ;
#125 = AXIS2_PLACEMENT_3D ( 'NONE', #905, #377, #149 ) ;
#126 = CIRCLE ( 'NONE', #171, 1.499999999999999556 ) ;
#127 = VECTOR ( 'NONE', #824, 1000.000000000000000 ) ;
#128 = VECTOR ( 'NONE', #351, 1000.000000000000000 ) ;
#129 = ORIENTED_EDGE ( 'NONE', *, *, #925, .T. ) ;
#130 = ADVANCED_FACE ( 'NONE', ( #98, #948 ), #679, .F. ) ;
#131 = CARTESIAN_POINT ( 'NONE',  ( -16.25000000000001421, 0.000000000000000000, -5.999999999999996447 ) ) ;
#132 = LINE ( 'NONE', #983, #365 ) ;
#133 = DIRECTION ( 'NONE',  ( -0.000000000000000000, -1.000000000000000000, -0.000000000000000000 ) ) ;
#134 = CARTESIAN_POINT ( 'NONE',  ( 17.49999999999998934, 450.0000000000000000, 7.499999999999998224 ) ) ;
#135 = FACE_OUTER_BOUND ( 'NONE', #1072, .T. ) ;
#136 = CARTESIAN_POINT ( 'NONE',  ( 15.99999999999998579, 450.0000000000000000, -6.000000000000001776 ) ) ;
#137 = ADVANCED_FACE ( 'NONE', ( #766 ), #13, .T. ) ;
#138 = LINE ( 'NONE', #55, #6 ) ;
#139 = PLANE ( 'NONE',  #850 ) ;
#140 = STYLED_ITEM ( 'NONE', ( #718 ), #252 ) ;
#141 = CARTESIAN_POINT ( 'NONE',  ( 15.99999999999998579, 450.0000000000000000, 6.249999999999997335 ) ) ;
#142 = VECTOR ( 'NONE', #87, 1000.000000000000000 ) ;
#143 = ORIENTED_EDGE ( 'NONE', *, *, #409, .T. ) ;
#144 = CYLINDRICAL_SURFACE ( 'NONE', #369, 1.499999999999999556 ) ;
#145 = LINE ( 'NONE', #993, #312 ) ;
#146 = PLANE ( 'NONE',  #1095 ) ;
#147 = ORIENTED_EDGE ( 'NONE', *, *, #774, .T. ) ;
#148 = DIRECTION ( 'NONE',  ( -0.000000000000000000, -1.000000000000000000, -0.000000000000000000 ) ) ;
#149 = DIRECTION ( 'NONE',  ( 0.000000000000000000, 0.000000000000000000, -1.000000000000000000 ) ) ;
#150 = CARTESIAN_POINT ( 'NONE',  ( -16.00000000000001421, 450.0000000000000000, -5.999999999999997335 ) ) ;
#151 = LINE ( 'NONE', #4, #173 ) ;
#152 = LINE ( 'NONE', #84, #42 ) ;
#153 = AXIS2_PLACEMENT_3D ( 'NONE', #929, #432, #541 ) ;
#154 = PLANE ( 'NONE',  #528 ) ;
#155 = AXIS2_PLACEMENT_3D ( 'NONE', #213, #1079, #745 ) ;
#156 = VECTOR ( 'NONE', #1102, 1000.000000000000000 ) ;
#157 = CARTESIAN_POINT ( 'NONE',  ( -16.00000000000001421, 0.000000000000000000, 6.000000000000001776 ) ) ;
#158 = PRODUCT_DEFINITION_FORMATION_WITH_SPECIFIED_SOURCE ( 'Symmetric', '', #960, .NOT_KNOWN. ) ;
#159 = EDGE_CURVE ( 'NONE', #708, #161, #427, .T. ) ;
#160 = DIRECTION ( 'NONE',  ( 0.000000000000000000, 0.000000000000000000, 1.000000000000000000 ) ) ;
#161 = VERTEX_POINT ( 'NONE', #837 ) ;
#162 = DIRECTION ( 'NONE',  ( -0.000000000000000000, -1.000000000000000000, -0.000000000000000000 ) ) ;
#163 = LINE ( 'NONE', #333, #801 ) ;
#164 = CARTESIAN_POINT ( 'NONE',  ( -17.50000000000000000, 450.0000000000000000, 0.1250000000000041078 ) ) ;
#165 = EDGE_LOOP ( 'NONE', ( #508 ) ) ;
#166 = CARTESIAN_POINT ( 'NONE',  ( -16.25000000000000000, 450.0000000000000000, -0.1250000000000002220 ) ) ;
#167 = EDGE_CURVE ( 'NONE', #178, #877, #591, .T. ) ;
#168 = FACE_OUTER_BOUND ( 'NONE', #174, .T. ) ;
#169 = DIRECTION ( 'NONE',  ( 2.363560736018398088E-15, 0.000000000000000000, -1.000000000000000000 ) ) ;
#170 = ORIENTED_EDGE ( 'NONE', *, *, #1044, .T. ) ;
#171 = AXIS2_PLACEMENT_3D ( 'NONE', #53, #389, #386 ) ;
#172 = DIRECTION ( 'NONE',  ( 0.000000000000000000, 0.000000000000000000, -1.000000000000000000 ) ) ;
#173 = VECTOR ( 'NONE', #741, 1000.000000000000000 ) ;
#174 = EDGE_LOOP ( 'NONE', ( #689, #1034, #551, #78 ) ) ;
#175 = CARTESIAN_POINT ( 'NONE',  ( -16.00000000000001421, 0.000000000000000000, 6.000000000000001776 ) ) ;
#176 = PRODUCT_DEFINITION ( 'General', '', #158, #293 ) ;
#177 = CARTESIAN_POINT ( 'NONE',  ( 16.24999999999998579, 0.000000000000000000, 5.999999999999998224 ) ) ;
#178 = VERTEX_POINT ( 'NONE', #414 ) ;
#179 = CARTESIAN_POINT ( 'NONE',  ( 15.99999999999998579, 0.000000000000000000, 6.249999999999997335 ) ) ;
#180 = ORIENTED_EDGE ( 'NONE', *, *, #531, .T. ) ;
#181 = LINE ( 'NONE', #431, #128 ) ;
#182 = CARTESIAN_POINT ( 'NONE',  ( -16.00000000000001421, 450.0000000000000000, -7.499999999999998224 ) ) ;
#183 = EDGE_LOOP ( 'NONE', ( #822 ) ) ;
#184 = DIRECTION ( 'NONE',  ( 1.000000000000000000, 0.000000000000000000, 0.000000000000000000 ) ) ;
#185 = EDGE_CURVE ( 'NONE', #200, #1096, #243, .T. ) ;
#186 = ORIENTED_EDGE ( 'NONE', *, *, #286, .F. ) ;
#187 = LINE ( 'NONE', #618, #969 ) ;
#188 =( NAMED_UNIT ( * ) SI_UNIT ( $, .STERADIAN. ) SOLID_ANGLE_UNIT ( ) );
#189 = VERTEX_POINT ( 'NONE', #940 ) ;
#190 = DIRECTION ( 'NONE',  ( -1.000000000000000000, 0.000000000000000000, -1.881733940042639107E-15 ) ) ;
#191 = ORIENTED_EDGE ( 'NONE', *, *, #363, .F. ) ;
#192 = CARTESIAN_POINT ( 'NONE',  ( 17.49999999999998934, 0.000000000000000000, 7.499999999999998224 ) ) ;
#193 = VECTOR ( 'NONE', #796, 1000.000000000000000 ) ;
#194 = VECTOR ( 'NONE', #217, 1000.000000000000000 ) ;
#195 =( LENGTH_UNIT ( ) NAMED_UNIT ( * ) SI_UNIT ( .MILLI., .METRE. ) );
#196 = AXIS2_PLACEMENT_3D ( 'NONE', #342, #190, #783 ) ;
#197 = UNCERTAINTY_MEASURE_WITH_UNIT (LENGTH_MEASURE( 1.000000000000000082E-05 ), #1071, 'distance_accuracy_value', 'NONE');
#198 = ORIENTED_EDGE ( 'NONE', *, *, #898, .F. ) ;
#199 = CARTESIAN_POINT ( 'NONE',  ( -17.50000000000001066, 0.000000000000000000, 5.999999999999999112 ) ) ;
#200 = VERTEX_POINT ( 'NONE', #327 ) ;
#201 = FACE_OUTER_BOUND ( 'NONE', #1037, .T. ) ;
#202 = LINE ( 'NONE', #607, #262 ) ;
#203 = ORIENTED_EDGE ( 'NONE', *, *, #931, .T. ) ;
#204 = DIRECTION ( 'NONE',  ( 1.000000000000000000, 0.000000000000000000, 0.000000000000000000 ) ) ;
#205 = ORIENTED_EDGE ( 'NONE', *, *, #363, .T. ) ;
#206 = CARTESIAN_POINT ( 'NONE',  ( -17.50000000000001066, 0.000000000000000000, -5.999999999999991118 ) ) ;
#207 = SURFACE_STYLE_FILL_AREA ( #269 ) ;
#208 = EDGE_CURVE ( 'NONE', #338, #449, #695, .T. ) ;
#209 = VERTEX_POINT ( 'NONE', #581 ) ;
#210 = DIRECTION ( 'NONE',  ( -0.000000000000000000, -1.000000000000000000, -0.000000000000000000 ) ) ;
#211 = CIRCLE ( 'NONE', #227, 1.499999999999999556 ) ;
#212 = VECTOR ( 'NONE', #492, 1000.000000000000000 ) ;
#213 = CARTESIAN_POINT ( 'NONE',  ( -7.434529182757744409E-16, 35.00000000000000000, 6.250000000000000000 ) ) ;
#214 = ADVANCED_FACE ( 'NONE', ( #924 ), #154, .T. ) ;
#215 = CIRCLE ( 'NONE', #458, 0.2500000000000002220 ) ;
#216 = CARTESIAN_POINT ( 'NONE',  ( -16.00000000000001421, 0.000000000000000000, 6.250000000000001776 ) ) ;
#217 = DIRECTION ( 'NONE',  ( 1.881733940042639107E-15, 0.000000000000000000, -1.000000000000000000 ) ) ;
#218 = FACE_OUTER_BOUND ( 'NONE', #425, .T. ) ;
#219 = ORIENTED_EDGE ( 'NONE', *, *, #1090, .F. ) ;
#220 = ADVANCED_FACE ( 'NONE', ( #405 ), #1016, .T. ) ;
#221 = DIRECTION ( 'NONE',  ( -0.000000000000000000, -1.000000000000000000, -0.000000000000000000 ) ) ;
#222 = CYLINDRICAL_SURFACE ( 'NONE', #125, 1.499999999999999556 ) ;
#223 = ORIENTED_EDGE ( 'NONE', *, *, #299, .F. ) ;
#224 = ORIENTED_EDGE ( 'NONE', *, *, #762, .F. ) ;
#225 = DIRECTION ( 'NONE',  ( 0.000000000000000000, 0.000000000000000000, 1.000000000000000000 ) ) ;
#226 = DIRECTION ( 'NONE',  ( 0.000000000000000000, -1.000000000000000000, -0.000000000000000000 ) ) ;
#227 = AXIS2_PLACEMENT_3D ( 'NONE', #1035, #1100, #160 ) ;
#228 = DIRECTION ( 'NONE',  ( -0.000000000000000000, -1.000000000000000000, -0.000000000000000000 ) ) ;
#229 = EDGE_LOOP ( 'NONE', ( #360, #671, #320, #978 ) ) ;
#230 = CARTESIAN_POINT ( 'NONE',  ( 15.99999999999998579, 450.0000000000000000, 7.499999999999998224 ) ) ;
#231 = ADVANCED_FACE ( 'NONE', ( #1056 ), #362, .F. ) ;
#232 = CARTESIAN_POINT ( 'NONE',  ( -16.00000000000001421, 450.0000000000000000, -6.249999999999997335 ) ) ;
#233 = CARTESIAN_POINT ( 'NONE',  ( -16.25000000000001066, 0.000000000000000000, 6.000000000000001776 ) ) ;
#234 = EDGE_CURVE ( 'NONE', #37, #189, #815, .T. ) ;
#235 = ORIENTED_EDGE ( 'NONE', *, *, #911, .F. ) ;
#236 = DIRECTION ( 'NONE',  ( 1.000000000000000000, 0.000000000000000000, 0.000000000000000000 ) ) ;
#237 = DIRECTION ( 'NONE',  ( 0.000000000000000000, 0.000000000000000000, -1.000000000000000000 ) ) ;
#238 = ADVANCED_FACE ( 'NONE', ( #712 ), #370, .F. ) ;
#239 = CARTESIAN_POINT ( 'NONE',  ( 16.24999999999998579, 0.000000000000000000, -6.000000000000001776 ) ) ;
#240 = ORIENTED_EDGE ( 'NONE', *, *, #20, .T. ) ;
#241 = DIRECTION ( 'NONE',  ( -0.000000000000000000, -0.000000000000000000, -1.000000000000000000 ) ) ;
#242 = FACE_OUTER_BOUND ( 'NONE', #482, .T. ) ;
#243 = LINE ( 'NONE', #319, #875 ) ;
#244 = AXIS2_PLACEMENT_3D ( 'NONE', #392, #990, #466 ) ;
#245 = ORIENTED_EDGE ( 'NONE', *, *, #791, .F. ) ;
#246 = AXIS2_PLACEMENT_3D ( 'NONE', #344, #690, #40 ) ;
#247 = LINE ( 'NONE', #495, #265 ) ;
#248 = CARTESIAN_POINT ( 'NONE',  ( -7.434529182757744409E-16, 35.00000000000000000, -7.500000000000000888 ) ) ;
#249 = DIRECTION ( 'NONE',  ( 1.000000000000000000, 0.000000000000000000, 0.000000000000000000 ) ) ;
#250 = VERTEX_POINT ( 'NONE', #30 ) ;
#251 = CARTESIAN_POINT ( 'NONE',  ( -17.50000000000001066, 450.0000000000000000, 5.999999999999999112 ) ) ;
#252 = MANIFOLD_SOLID_BREP ( '\X2\00d8\X0\8.0mm Dowel Hole1', #491 ) ;
#253 = EDGE_CURVE ( 'NONE', #828, #708, #434, .T. ) ;
#254 = DIRECTION ( 'NONE',  ( 0.000000000000000000, 1.000000000000000000, 0.000000000000000000 ) ) ;
#255 = DIRECTION ( 'NONE',  ( -0.000000000000000000, -0.000000000000000000, -1.000000000000000000 ) ) ;
#256 = ORIENTED_EDGE ( 'NONE', *, *, #904, .T. ) ;
#257 = CARTESIAN_POINT ( 'NONE',  ( -7.434529182757744409E-16, 15.00000000000000000, 7.500000000000003553 ) ) ;
#258 = ORIENTED_EDGE ( 'NONE', *, *, #301, .F. ) ;
#259 = CARTESIAN_POINT ( 'NONE',  ( -16.25000000000001066, 450.0000000000000000, 6.000000000000001776 ) ) ;
#260 = CARTESIAN_POINT ( 'NONE',  ( -16.25000000000000000, 450.0000000000000000, -0.1250000000000002220 ) ) ;
#261 = ORIENTED_EDGE ( 'NONE', *, *, #281, .T. ) ;
#262 = VECTOR ( 'NONE', #523, 1000.000000000000000 ) ;
#263 = AXIS2_PLACEMENT_3D ( 'NONE', #1029, #254, #590 ) ;
#264 = DIRECTION ( 'NONE',  ( -0.000000000000000000, -0.000000000000000000, -1.000000000000000000 ) ) ;
#265 = VECTOR ( 'NONE', #10, 1000.000000000000000 ) ;
#266 = AXIS2_PLACEMENT_3D ( 'NONE', #682, #437, #1033 ) ;
#267 = ORIENTED_EDGE ( 'NONE', *, *, #964, .F. ) ;
#268 = CARTESIAN_POINT ( 'NONE',  ( 15.99999999999998579, 0.000000000000000000, -6.000000000000001776 ) ) ;
#269 = FILL_AREA_STYLE ('',( #959 ) ) ;
#270 = EDGE_LOOP ( 'NONE', ( #650, #106, #343, #761 ) ) ;
#271 = CARTESIAN_POINT ( 'NONE',  ( -3.999999999999994227, 15.00000000000000000, -6.249999999999999112 ) ) ;
#272 = EDGE_LOOP ( 'NONE', ( #22, #800, #33, #629 ) ) ;
#273 = DIRECTION ( 'NONE',  ( 0.000000000000000000, -1.000000000000000000, -0.000000000000000000 ) ) ;
#274 = PLANE ( 'NONE',  #244 ) ;
#275 = ORIENTED_EDGE ( 'NONE', *, *, #577, .T. ) ;
#276 = CARTESIAN_POINT ( 'NONE',  ( -7.434529182757744409E-16, 35.00000000000000000, 7.500000000000003553 ) ) ;
#277 = ORIENTED_EDGE ( 'NONE', *, *, #421, .F. ) ;
#278 = FACE_OUTER_BOUND ( 'NONE', #390, .T. ) ;
#279 = FACE_OUTER_BOUND ( 'NONE', #1054, .T. ) ;
#280 = AXIS2_PLACEMENT_3D ( 'NONE', #998, #547, #561 ) ;
#281 = EDGE_CURVE ( 'NONE', #869, #37, #202, .T. ) ;
#282 = ORIENTED_EDGE ( 'NONE', *, *, #421, .T. ) ;
#283 = DIRECTION ( 'NONE',  ( -0.000000000000000000, -1.000000000000000000, -0.000000000000000000 ) ) ;
#284 = AXIS2_PLACEMENT_3D ( 'NONE', #632, #884, #790 ) ;
#285 =( NAMED_UNIT ( * ) SI_UNIT ( $, .STERADIAN. ) SOLID_ANGLE_UNIT ( ) );
#286 = EDGE_CURVE ( 'NONE', #411, #828, #110, .T. ) ;
#287 = ORIENTED_EDGE ( 'NONE', *, *, #1044, .F. ) ;
#288 = CARTESIAN_POINT ( 'NONE',  ( 17.49999999999998934, 450.0000000000000000, -6.250000000000000888 ) ) ;
#289 = DIRECTION ( 'NONE',  ( -1.000000000000000000, 0.000000000000000000, 0.000000000000000000 ) ) ;
#290 = ORIENTED_EDGE ( 'NONE', *, *, #1073, .F. ) ;
#291 = CYLINDRICAL_SURFACE ( 'NONE', #88, 1.499999999999999556 ) ;
#292 = CARTESIAN_POINT ( 'NONE',  ( 16.24999999999998579, 0.000000000000000000, 7.499999999999998224 ) ) ;
#293 = PRODUCT_DEFINITION_CONTEXT ( 'detailed design', #485, 'design' ) ;
#294 = ORIENTED_EDGE ( 'NONE', *, *, #896, .F. ) ;
#295 = DIRECTION ( 'NONE',  ( 0.000000000000000000, 0.000000000000000000, 1.000000000000000000 ) ) ;
#296 = DIRECTION ( 'NONE',  ( 1.000000000000000000, 0.000000000000000000, -4.163336342344344915E-15 ) ) ;
#297 = MECHANICAL_DESIGN_GEOMETRIC_PRESENTATION_REPRESENTATION (  '', ( #140 ), #1094 ) ;
#298 = LINE ( 'NONE', #303, #640 ) ;
#299 = EDGE_CURVE ( 'NONE', #863, #863, #557, .T. ) ;
#300 = VECTOR ( 'NONE', #641, 1000.000000000000000 ) ;
#301 = EDGE_CURVE ( 'NONE', #784, #449, #18, .T. ) ;
#302 = DIRECTION ( 'NONE',  ( -0.000000000000000000, -1.000000000000000000, -0.000000000000000000 ) ) ;
#303 = CARTESIAN_POINT ( 'NONE',  ( 17.49999999999998934, 450.0000000000000000, -7.500000000000001776 ) ) ;
#304 = LINE ( 'NONE', #915, #313 ) ;
#305 = ORIENTED_EDGE ( 'NONE', *, *, #1018, .F. ) ;
#306 = CARTESIAN_POINT ( 'NONE',  ( 17.49999999999998934, 450.0000000000000000, -6.000000000000001776 ) ) ;
#307 = DIRECTION ( 'NONE',  ( -0.000000000000000000, -1.000000000000000000, -0.000000000000000000 ) ) ;
#308 = ORIENTED_EDGE ( 'NONE', *, *, #185, .F. ) ;
#309 = VERTEX_POINT ( 'NONE', #1051 ) ;
#310 = CARTESIAN_POINT ( 'NONE',  ( 16.24999999999998579, 450.0000000000000000, -6.000000000000001776 ) ) ;
#311 = PLANE ( 'NONE',  #1039 ) ;
#312 = VECTOR ( 'NONE', #653, 1000.000000000000000 ) ;
#313 = VECTOR ( 'NONE', #564, 1000.000000000000000 ) ;
#314 = LINE ( 'NONE', #570, #544 ) ;
#315 = VECTOR ( 'NONE', #2, 1000.000000000000000 ) ;
#316 = ORIENTED_EDGE ( 'NONE', *, *, #253, .T. ) ;
#317 = CARTESIAN_POINT ( 'NONE',  ( -16.00000000000001421, 450.0000000000000000, 6.000000000000001776 ) ) ;
#318 = CARTESIAN_POINT ( 'NONE',  ( -17.50000000000000000, 450.0000000000000000, -0.1249999999999978628 ) ) ;
#319 = CARTESIAN_POINT ( 'NONE',  ( -17.50000000000000000, 0.000000000000000000, -0.1249999999999978628 ) ) ;
#320 = ORIENTED_EDGE ( 'NONE', *, *, #281, .F. ) ;
#321 = CARTESIAN_POINT ( 'NONE',  ( 16.24999999999998579, 450.0000000000000000, -6.000000000000001776 ) ) ;
#322 = FACE_OUTER_BOUND ( 'NONE', #793, .T. ) ;
#323 = FACE_OUTER_BOUND ( 'NONE', #353, .T. ) ;
#324 = ORIENTED_EDGE ( 'NONE', *, *, #820, .T. ) ;
#325 = DIRECTION ( 'NONE',  ( -1.000000000000000000, 0.000000000000000000, 9.912705577010325549E-17 ) ) ;
#326 = DIRECTION ( 'NONE',  ( 1.000000000000000000, 0.000000000000000000, 0.000000000000000000 ) ) ;
#327 = CARTESIAN_POINT ( 'NONE',  ( -17.50000000000000000, 0.000000000000000000, -0.1249999999999978628 ) ) ;
#328 = ORIENTED_EDGE ( 'NONE', *, *, #496, .T. ) ;
#329 = VECTOR ( 'NONE', #778, 1000.000000000000000 ) ;
#330 = ADVANCED_FACE ( 'NONE', ( #619, #1045 ), #954, .F. ) ;
#331 = VECTOR ( 'NONE', #1077, 1000.000000000000000 ) ;
#332 = DIRECTION ( 'NONE',  ( 1.881733940042637923E-15, 0.000000000000000000, 1.000000000000000000 ) ) ;
#333 = CARTESIAN_POINT ( 'NONE',  ( -16.25000000000000000, 0.000000000000000000, -0.1250000000000002220 ) ) ;
#334 = DIRECTION ( 'NONE',  ( 9.912705577010325549E-17, -0.000000000000000000, 1.000000000000000000 ) ) ;
#335 = EDGE_LOOP ( 'NONE', ( #258, #862, #513, #916 ) ) ;
#336 = EDGE_CURVE ( 'NONE', #309, #200, #633, .T. ) ;
#337 = FACE_OUTER_BOUND ( 'NONE', #1019, .T. ) ;
#338 = VERTEX_POINT ( 'NONE', #121 ) ;
#339 = DIRECTION ( 'NONE',  ( 0.000000000000000000, -1.000000000000000000, -0.000000000000000000 ) ) ;
#340 = DIRECTION ( 'NONE',  ( 0.000000000000000000, -1.000000000000000000, -0.000000000000000000 ) ) ;
#341 = EDGE_LOOP ( 'NONE', ( #406, #198, #525, #1088 ) ) ;
#342 = CARTESIAN_POINT ( 'NONE',  ( -17.50000000000001421, 450.0000000000000000, 7.500000000000001776 ) ) ;
#343 = ORIENTED_EDGE ( 'NONE', *, *, #446, .F. ) ;
#344 = CARTESIAN_POINT ( 'NONE',  ( -16.25000000000001421, 450.0000000000000000, 7.500000000000004441 ) ) ;
#345 = DIRECTION ( 'NONE',  ( -0.000000000000000000, 0.000000000000000000, -1.000000000000000000 ) ) ;
#346 = VERTEX_POINT ( 'NONE', #866 ) ;
#347 = CARTESIAN_POINT ( 'NONE',  ( 3.999999999999992450, 35.00000000000000000, 6.250000000000000000 ) ) ;
#348 = CIRCLE ( 'NONE', #493, 0.2500000000000002220 ) ;
#349 = AXIS2_PLACEMENT_3D ( 'NONE', #630, #295, #204 ) ;
#350 = ORIENTED_EDGE ( 'NONE', *, *, #651, .T. ) ;
#351 = DIRECTION ( 'NONE',  ( 1.000000000000000000, 0.000000000000000000, 0.000000000000000000 ) ) ;
#352 = ADVANCED_FACE ( 'NONE', ( #453 ), #274, .T. ) ;
#353 = EDGE_LOOP ( 'NONE', ( #1076, #305, #143, #442 ) ) ;
#354 = CARTESIAN_POINT ( 'NONE',  ( -17.50000000000001421, 450.0000000000000000, 7.500000000000001776 ) ) ;
#355 = DIRECTION ( 'NONE',  ( 0.000000000000000000, -0.000000000000000000, 1.000000000000000000 ) ) ;
#356 = PRODUCT_RELATED_PRODUCT_CATEGORY ( 'part', '', ( #960 ) ) ;
#357 = CARTESIAN_POINT ( 'NONE',  ( 15.99999999999998579, 450.0000000000000000, -6.000000000000001776 ) ) ;
#358 = EDGE_LOOP ( 'NONE', ( #594, #566, #681, #1041 ) ) ;
#359 = CARTESIAN_POINT ( 'NONE',  ( -3.999999999999988898, 35.00000000000000000, -7.500000000000000888 ) ) ;
#360 = ORIENTED_EDGE ( 'NONE', *, *, #448, .T. ) ;
#361 = CARTESIAN_POINT ( 'NONE',  ( 16.24999999999998579, 450.0000000000000000, 5.999999999999998224 ) ) ;
#362 = PLANE ( 'NONE',  #524 ) ;
#363 = EDGE_CURVE ( 'NONE', #877, #1061, #1020, .T. ) ;
#364 = ORIENTED_EDGE ( 'NONE', *, *, #464, .F. ) ;
#365 = VECTOR ( 'NONE', #895, 1000.000000000000000 ) ;
#366 = CIRCLE ( 'NONE', #580, 3.999999999999988010 ) ;
#367 = ORIENTED_EDGE ( 'NONE', *, *, #382, .T. ) ;
#368 = DIRECTION ( 'NONE',  ( -0.000000000000000000, -0.000000000000000000, -1.000000000000000000 ) ) ;
#369 = AXIS2_PLACEMENT_3D ( 'NONE', #1083, #480, #646 ) ;
#370 = CYLINDRICAL_SURFACE ( 'NONE', #968, 0.2500000000000002220 ) ;
#371 = ORIENTED_EDGE ( 'NONE', *, *, #1018, .T. ) ;
#372 = ADVANCED_FACE ( 'NONE', ( #643 ), #139, .T. ) ;
#373 = CARTESIAN_POINT ( 'NONE',  ( -16.00000000000001421, 450.0000000000000000, -7.499999999999998224 ) ) ;
#374 = FACE_OUTER_BOUND ( 'NONE', #848, .T. ) ;
#375 = ORIENTED_EDGE ( 'NONE', *, *, #649, .F. ) ;
#376 = DIRECTION ( 'NONE',  ( -0.000000000000000000, -1.000000000000000000, -0.000000000000000000 ) ) ;
#377 = DIRECTION ( 'NONE',  ( -0.000000000000000000, -1.000000000000000000, -0.000000000000000000 ) ) ;
#378 = EDGE_CURVE ( 'NONE', #684, #411, #145, .T. ) ;
#379 = DIRECTION ( 'NONE',  ( 0.000000000000000000, 1.000000000000000000, 0.000000000000000000 ) ) ;
#380 = CARTESIAN_POINT ( 'NONE',  ( -3.999999999999999112, 35.00000000000000000, 7.500000000000003553 ) ) ;
#381 = FACE_OUTER_BOUND ( 'NONE', #542, .T. ) ;
#382 = EDGE_CURVE ( 'NONE', #479, #976, #132, .T. ) ;
#383 = DIRECTION ( 'NONE',  ( 1.000000000000000000, 0.000000000000000000, 2.363560736018397694E-15 ) ) ;
#384 = AXIS2_PLACEMENT_3D ( 'NONE', #21, #515, #533 ) ;
#385 = EDGE_CURVE ( 'NONE', #1052, #751, #918, .T. ) ;
#386 = DIRECTION ( 'NONE',  ( 0.000000000000000000, 0.000000000000000000, 1.000000000000000000 ) ) ;
#387 = DIRECTION ( 'NONE',  ( 1.000000000000000000, 0.000000000000000000, -9.912705577010325549E-17 ) ) ;
#388 = CARTESIAN_POINT ( 'NONE',  ( -16.00000000000001421, 0.000000000000000000, 6.000000000000001776 ) ) ;
#389 = DIRECTION ( 'NONE',  ( -0.000000000000000000, -1.000000000000000000, -0.000000000000000000 ) ) ;
#390 = EDGE_LOOP ( 'NONE', ( #704, #661, #887, #16 ) ) ;
#391 = LINE ( 'NONE', #310, #546 ) ;
#392 = CARTESIAN_POINT ( 'NONE',  ( -16.00000000000001421, 0.000000000000000000, -6.249999999999997335 ) ) ;
#393 = CARTESIAN_POINT ( 'NONE',  ( 17.49999999999998934, 450.0000000000000000, -7.500000000000001776 ) ) ;
#394 = EDGE_CURVE ( 'NONE', #443, #443, #505, .T. ) ;
#395 = EDGE_LOOP ( 'NONE', ( #433, #494, #952, #275 ) ) ;
#396 = EDGE_CURVE ( 'NONE', #338, #250, #553, .T. ) ;
#397 = DIRECTION ( 'NONE',  ( 0.000000000000000000, 1.000000000000000000, 0.000000000000000000 ) ) ;
#398 = PLANE ( 'NONE',  #1002 ) ;
#399 = FACE_OUTER_BOUND ( 'NONE', #584, .T. ) ;
#400 = VECTOR ( 'NONE', #27, 1000.000000000000000 ) ;
#401 = EDGE_LOOP ( 'NONE', ( #588, #101, #9, #371 ) ) ;
#402 = ADVANCED_FACE ( 'NONE', ( #218 ), #222, .T. ) ;
#403 = CARTESIAN_POINT ( 'NONE',  ( -16.00000000000001421, 0.000000000000000000, 7.500000000000001776 ) ) ;
#404 = DIRECTION ( 'NONE',  ( 1.881733940042637923E-15, 0.000000000000000000, 1.000000000000000000 ) ) ;
#405 = FACE_OUTER_BOUND ( 'NONE', #926, .T. ) ;
#406 = ORIENTED_EDGE ( 'NONE', *, *, #624, .F. ) ;
#407 = DIRECTION ( 'NONE',  ( -0.000000000000000000, -1.000000000000000000, -0.000000000000000000 ) ) ;
#408 = PLANE ( 'NONE',  #946 ) ;
#409 = EDGE_CURVE ( 'NONE', #795, #19, #805, .T. ) ;
#410 = LINE ( 'NONE', #501, #315 ) ;
#411 = VERTEX_POINT ( 'NONE', #52 ) ;
#412 = CARTESIAN_POINT ( 'NONE',  ( -16.25000000000000000, 450.0000000000000000, -0.1250000000000002220 ) ) ;
#413 = CARTESIAN_POINT ( 'NONE',  ( -7.434529182757744409E-16, 35.00000000000000000, -7.500000000000000000 ) ) ;
#414 = CARTESIAN_POINT ( 'NONE',  ( -16.00000000000001421, 450.0000000000000000, 7.500000000000001776 ) ) ;
#415 = VECTOR ( 'NONE', #579, 1000.000000000000000 ) ;
#416 = ORIENTED_EDGE ( 'NONE', *, *, #854, .T. ) ;
#417 = AXIS2_PLACEMENT_3D ( 'NONE', #754, #255, #1012 ) ;
#418 = CIRCLE ( 'NONE', #987, 0.2500000000000002220 ) ;
#419 = DIRECTION ( 'NONE',  ( -0.000000000000000000, -1.000000000000000000, -0.000000000000000000 ) ) ;
#420 = DIRECTION ( 'NONE',  ( -9.912705577010325549E-17, 0.000000000000000000, -1.000000000000000000 ) ) ;
#421 = EDGE_CURVE ( 'NONE', #976, #828, #731, .T. ) ;
#422 = DIRECTION ( 'NONE',  ( -1.000000000000000000, 0.000000000000000000, -2.363560736018398088E-15 ) ) ;
#423 = EDGE_LOOP ( 'NONE', ( #610, #205, #773, #444 ) ) ;
#424 = CARTESIAN_POINT ( 'NONE',  ( 16.24999999999998579, 0.000000000000000000, -6.000000000000001776 ) ) ;
#425 = EDGE_LOOP ( 'NONE', ( #821, #277, #122, #908 ) ) ;
#426 = CARTESIAN_POINT ( 'NONE',  ( -16.00000000000001421, 450.0000000000000000, 6.250000000000001776 ) ) ;
#427 = LINE ( 'NONE', #772, #212 ) ;
#428 = ADVANCED_FACE ( 'NONE', ( #374 ), #311, .T. ) ;
#429 = DIRECTION ( 'NONE',  ( 1.000000000000000000, 0.000000000000000000, 0.000000000000000000 ) ) ;
#430 = ORIENTED_EDGE ( 'NONE', *, *, #847, .F. ) ;
#431 = CARTESIAN_POINT ( 'NONE',  ( 16.24999999999998579, 0.000000000000000000, -6.000000000000001776 ) ) ;
#432 = DIRECTION ( 'NONE',  ( 0.000000000000000000, 1.000000000000000000, 0.000000000000000000 ) ) ;
#433 = ORIENTED_EDGE ( 'NONE', *, *, #185, .T. ) ;
#434 = CIRCLE ( 'NONE', #907, 1.499999999999999556 ) ;
#435 = VECTOR ( 'NONE', #76, 1000.000000000000000 ) ;
#436 = ADVANCED_FACE ( 'NONE', ( #135 ), #1084, .F. ) ;
#437 = DIRECTION ( 'NONE',  ( 0.000000000000000000, 1.000000000000000000, 0.000000000000000000 ) ) ;
#438 = AXIS2_PLACEMENT_3D ( 'NONE', #412, #756, #332 ) ;
#439 = EDGE_LOOP ( 'NONE', ( #308, #724, #631, #3 ) ) ;
#440 = LINE ( 'NONE', #426, #329 ) ;
#441 = CARTESIAN_POINT ( 'NONE',  ( 17.49999999999998934, 0.000000000000000000, -7.500000000000001776 ) ) ;
#442 = ORIENTED_EDGE ( 'NONE', *, *, #811, .T. ) ;
#443 = VERTEX_POINT ( 'NONE', #32 ) ;
#444 = ORIENTED_EDGE ( 'NONE', *, *, #974, .F. ) ;
#445 = FACE_OUTER_BOUND ( 'NONE', #270, .T. ) ;
#446 = EDGE_CURVE ( 'NONE', #449, #479, #914, .T. ) ;
#447 = CARTESIAN_POINT ( 'NONE',  ( 16.24999999999998579, 450.0000000000000000, 7.499999999999998224 ) ) ;
#448 = EDGE_CURVE ( 'NONE', #1026, #103, #481, .T. ) ;
#449 = VERTEX_POINT ( 'NONE', #232 ) ;
#450 = DIRECTION ( 'NONE',  ( 1.881733940042639107E-15, 0.000000000000000000, -1.000000000000000000 ) ) ;
#451 = EDGE_LOOP ( 'NONE', ( #1066 ) ) ;
#452 = LINE ( 'NONE', #192, #872 ) ;
#453 = FACE_OUTER_BOUND ( 'NONE', #395, .T. ) ;
#454 = EDGE_LOOP ( 'NONE', ( #287 ) ) ;
#455 = VECTOR ( 'NONE', #383, 1000.000000000000000 ) ;
#456 = VERTEX_POINT ( 'NONE', #1006 ) ;
#457 = LINE ( 'NONE', #540, #72 ) ;
#458 = AXIS2_PLACEMENT_3D ( 'NONE', #917, #407, #236 ) ;
#459 = CIRCLE ( 'NONE', #625, 3.999999999999998224 ) ;
#460 = CARTESIAN_POINT ( 'NONE',  ( -7.434529182757744409E-16, 15.00000000000000000, 6.250000000000000000 ) ) ;
#461 = UNCERTAINTY_MEASURE_WITH_UNIT (LENGTH_MEASURE( 1.000000000000000082E-05 ), #195, 'distance_accuracy_value', 'NONE');
#462 = ORIENTED_EDGE ( 'NONE', *, *, #62, .F. ) ;
#463 = EDGE_CURVE ( 'NONE', #1061, #111, #726, .T. ) ;
#464 = EDGE_CURVE ( 'NONE', #784, #976, #298, .T. ) ;
#465 = DIRECTION ( 'NONE',  ( 1.000000000000000000, 0.000000000000000000, -9.912705577010325549E-17 ) ) ;
#466 = DIRECTION ( 'NONE',  ( 0.000000000000000000, 0.000000000000000000, -1.000000000000000000 ) ) ;
#467 = CARTESIAN_POINT ( 'NONE',  ( -16.25000000000000000, 450.0000000000000000, -0.1250000000000002220 ) ) ;
#468 = CARTESIAN_POINT ( 'NONE',  ( -16.00000000000001421, 450.0000000000000000, -5.999999999999997335 ) ) ;
#469 = DIRECTION ( 'NONE',  ( -1.881733940042637923E-15, 0.000000000000000000, -1.000000000000000000 ) ) ;
#470 = EDGE_LOOP ( 'NONE', ( #129, #829, #529, #240 ) ) ;
#471 = EDGE_CURVE ( 'NONE', #775, #775, #758, .T. ) ;
#472 = LINE ( 'NONE', #306, #54 ) ;
#473 = COLOUR_RGB ( '',0.7921568627450980005, 0.8196078431372548767, 0.9333333333333333481 ) ;
#474 = AXIS2_PLACEMENT_3D ( 'NONE', #413, #1, #669 ) ;
#475 = DIRECTION ( 'NONE',  ( -1.000000000000000000, 0.000000000000000000, 0.000000000000000000 ) ) ;
#476 = VECTOR ( 'NONE', #903, 1000.000000000000000 ) ;
#477 = ORIENTED_EDGE ( 'NONE', *, *, #555, .T. ) ;
#478 = CIRCLE ( 'NONE', #565, 3.999999999999998224 ) ;
#479 = VERTEX_POINT ( 'NONE', #1104 ) ;
#480 = DIRECTION ( 'NONE',  ( -0.000000000000000000, -1.000000000000000000, -0.000000000000000000 ) ) ;
#481 = LINE ( 'NONE', #292, #127 ) ;
#482 = EDGE_LOOP ( 'NONE', ( #477 ) ) ;
#483 = ORIENTED_EDGE ( 'NONE', *, *, #882, .F. ) ;
#484 = DIRECTION ( 'NONE',  ( 1.000000000000000000, 0.000000000000000000, 0.000000000000000000 ) ) ;
#485 = APPLICATION_CONTEXT ( 'automotive_design' ) ;
#486 = FACE_OUTER_BOUND ( 'NONE', #639, .T. ) ;
#487 = DIRECTION ( 'NONE',  ( -0.000000000000000000, -1.000000000000000000, -0.000000000000000000 ) ) ;
#488 = ORIENTED_EDGE ( 'NONE', *, *, #925, .F. ) ;
#489 = DIRECTION ( 'NONE',  ( 0.000000000000000000, 0.000000000000000000, 1.000000000000000000 ) ) ;
#490 = DIRECTION ( 'NONE',  ( 0.000000000000000000, 0.000000000000000000, -1.000000000000000000 ) ) ;
#491 = CLOSED_SHELL ( 'NONE', ( #614, #372, #636, #352, #1017, #1032, #563, #137, #75, #683, #621, #962, #220, #919, #666, #428, #701, #93, #1060, #799, #767, #839, #38, #402, #59, #779, #560, #214, #995, #436, #662, #238, #231, #743, #92, #1027, #562, #699, #130, #986, #571, #330 ) ) ;
#492 = DIRECTION ( 'NONE',  ( 0.000000000000000000, 0.000000000000000000, 1.000000000000000000 ) ) ;
#493 = AXIS2_PLACEMENT_3D ( 'NONE', #317, #148, #932 ) ;
#494 = ORIENTED_EDGE ( 'NONE', *, *, #791, .T. ) ;
#495 = CARTESIAN_POINT ( 'NONE',  ( -16.25000000000001421, 0.000000000000000000, 7.500000000000004441 ) ) ;
#496 = EDGE_CURVE ( 'NONE', #111, #626, #586, .T. ) ;
#497 = FACE_OUTER_BOUND ( 'NONE', #439, .T. ) ;
#498 = ORIENTED_EDGE ( 'NONE', *, *, #471, .T. ) ;
#499 = DIRECTION ( 'NONE',  ( 0.000000000000000000, -0.000000000000000000, 1.000000000000000000 ) ) ;
#500 = CARTESIAN_POINT ( 'NONE',  ( -7.434529182757744409E-16, 15.00000000000000000, -6.249999999999999112 ) ) ;
#501 = CARTESIAN_POINT ( 'NONE',  ( 17.49999999999998934, 450.0000000000000000, 7.499999999999998224 ) ) ;
#502 = ORIENTED_EDGE ( 'NONE', *, *, #514, .F. ) ;
#503 = LINE ( 'NONE', #849, #156 ) ;
#504 = PLANE ( 'NONE',  #985 ) ;
#505 = CIRCLE ( 'NONE', #41, 3.999999999999993339 ) ;
#506 = DIRECTION ( 'NONE',  ( -0.000000000000000000, -1.000000000000000000, -0.000000000000000000 ) ) ;
#507 = CIRCLE ( 'NONE', #892, 3.999999999999993339 ) ;
#508 = ORIENTED_EDGE ( 'NONE', *, *, #555, .F. ) ;
#509 = VECTOR ( 'NONE', #419, 1000.000000000000000 ) ;
#510 = LINE ( 'NONE', #15, #1099 ) ;
#511 = ORIENTED_EDGE ( 'NONE', *, *, #471, .F. ) ;
#512 = PLANE ( 'NONE',  #284 ) ;
#513 = ORIENTED_EDGE ( 'NONE', *, *, #396, .F. ) ;
#514 = EDGE_CURVE ( 'NONE', #11, #1052, #685, .T. ) ;
#515 = DIRECTION ( 'NONE',  ( 0.000000000000000000, 1.000000000000000000, 0.000000000000000000 ) ) ;
#516 = ORIENTED_EDGE ( 'NONE', *, *, #606, .T. ) ;
#517 = CYLINDRICAL_SURFACE ( 'NONE', #910, 0.2500000000000002220 ) ;
#518 = DIRECTION ( 'NONE',  ( 1.000000000000000000, 0.000000000000000000, -9.912705577010325549E-17 ) ) ;
#519 = EDGE_LOOP ( 'NONE', ( #113, #1058, #147, #350 ) ) ;
#520 = LINE ( 'NONE', #104, #1023 ) ;
#521 = ORIENTED_EDGE ( 'NONE', *, *, #336, .T. ) ;
#522 = LINE ( 'NONE', #1050, #816 ) ;
#523 = DIRECTION ( 'NONE',  ( -0.000000000000000000, -0.000000000000000000, 1.000000000000000000 ) ) ;
#524 = AXIS2_PLACEMENT_3D ( 'NONE', #447, #115, #345 ) ;
#525 = ORIENTED_EDGE ( 'NONE', *, *, #116, .T. ) ;
#526 = DIRECTION ( 'NONE',  ( 0.000000000000000000, 0.000000000000000000, 1.000000000000000000 ) ) ;
#527 = VECTOR ( 'NONE', #325, 1000.000000000000000 ) ;
#528 = AXIS2_PLACEMENT_3D ( 'NONE', #260, #77, #856 ) ;
#529 = ORIENTED_EDGE ( 'NONE', *, *, #774, .F. ) ;
#530 = DIRECTION ( 'NONE',  ( -1.000000000000000000, 0.000000000000000000, 9.912705577010325549E-17 ) ) ;
#531 = EDGE_CURVE ( 'NONE', #346, #456, #211, .T. ) ;
#532 = ORIENTED_EDGE ( 'NONE', *, *, #531, .F. ) ;
#533 = DIRECTION ( 'NONE',  ( 0.000000000000000000, -0.000000000000000000, 1.000000000000000000 ) ) ;
#534 = ORIENTED_EDGE ( 'NONE', *, *, #680, .T. ) ;
#535 = FACE_BOUND ( 'NONE', #183, .T. ) ;
#536 = CARTESIAN_POINT ( 'NONE',  ( -7.434529182757744409E-16, 35.00000000000000000, -7.500000000000000000 ) ) ;
#537 = EDGE_LOOP ( 'NONE', ( #965 ) ) ;
#538 = APPLICATION_PROTOCOL_DEFINITION ( 'draft international standard', 'automotive_design', 1998, #906 ) ;
#539 = ORIENTED_EDGE ( 'NONE', *, *, #898, .T. ) ;
#540 = CARTESIAN_POINT ( 'NONE',  ( 16.24999999999998579, 450.0000000000000000, 5.999999999999998224 ) ) ;
#541 = DIRECTION ( 'NONE',  ( 0.000000000000000000, -0.000000000000000000, 1.000000000000000000 ) ) ;
#542 = EDGE_LOOP ( 'NONE', ( #235, #462, #180, #539 ) ) ;
#543 = EDGE_CURVE ( 'NONE', #710, #31, #67, .T. ) ;
#544 = VECTOR ( 'NONE', #920, 1000.000000000000000 ) ;
#545 = DIRECTION ( 'NONE',  ( -0.000000000000000000, -1.000000000000000000, -0.000000000000000000 ) ) ;
#546 = VECTOR ( 'NONE', #807, 1000.000000000000000 ) ;
#547 = DIRECTION ( 'NONE',  ( -0.000000000000000000, -1.000000000000000000, -0.000000000000000000 ) ) ;
#548 = FACE_BOUND ( 'NONE', #165, .T. ) ;
#549 = LINE ( 'NONE', #981, #715 ) ;
#550 = DIRECTION ( 'NONE',  ( 1.881733940042639107E-15, 0.000000000000000000, -1.000000000000000000 ) ) ;
#551 = ORIENTED_EDGE ( 'NONE', *, *, #1105, .F. ) ;
#552 = DIRECTION ( 'NONE',  ( 0.000000000000000000, 0.000000000000000000, -1.000000000000000000 ) ) ;
#553 = LINE ( 'NONE', #46, #943 ) ;
#554 = DIRECTION ( 'NONE',  ( 0.000000000000000000, 0.000000000000000000, 1.000000000000000000 ) ) ;
#555 = EDGE_CURVE ( 'NONE', #696, #696, #366, .T. ) ;
#556 = APPLICATION_PROTOCOL_DEFINITION ( 'draft international standard', 'automotive_design', 1998, #485 ) ;
#557 = CIRCLE ( 'NONE', #1080, 3.999999999999993339 ) ;
#558 = LINE ( 'NONE', #60, #300 ) ;
#559 = VECTOR ( 'NONE', #296, 1000.000000000000000 ) ;
#560 = ADVANCED_FACE ( 'NONE', ( #497 ), #408, .T. ) ;
#561 = DIRECTION ( 'NONE',  ( 0.000000000000000000, 0.000000000000000000, -1.000000000000000000 ) ) ;
#562 = ADVANCED_FACE ( 'NONE', ( #486 ), #673, .T. ) ;
#563 = ADVANCED_FACE ( 'NONE', ( #322 ), #398, .T. ) ;
#564 = DIRECTION ( 'NONE',  ( -0.000000000000000000, -1.000000000000000000, -0.000000000000000000 ) ) ;
#565 = AXIS2_PLACEMENT_3D ( 'NONE', #276, #876, #616 ) ;
#566 = ORIENTED_EDGE ( 'NONE', *, *, #776, .F. ) ;
#567 = CARTESIAN_POINT ( 'NONE',  ( 17.49999999999998934, 0.000000000000000000, 6.249999999999997335 ) ) ;
#568 = EDGE_CURVE ( 'NONE', #250, #1096, #80, .T. ) ;
#569 = DIRECTION ( 'NONE',  ( 0.000000000000000000, -0.000000000000000000, 1.000000000000000000 ) ) ;
#570 = CARTESIAN_POINT ( 'NONE',  ( -16.00000000000001421, 450.0000000000000000, 6.250000000000001776 ) ) ;
#571 = ADVANCED_FACE ( 'NONE', ( #242, #845 ), #753, .F. ) ;
#572 = ORIENTED_EDGE ( 'NONE', *, *, #1078, .T. ) ;
#573 = CARTESIAN_POINT ( 'NONE',  ( 17.49999999999998934, 450.0000000000000000, -6.000000000000001776 ) ) ;
#574 = CARTESIAN_POINT ( 'NONE',  ( -17.50000000000001066, 450.0000000000000000, -5.999999999999991118 ) ) ;
#575 = CARTESIAN_POINT ( 'NONE',  ( -16.00000000000001421, 450.0000000000000000, 7.500000000000001776 ) ) ;
#576 = ORIENTED_EDGE ( 'NONE', *, *, #612, .F. ) ;
#577 = EDGE_CURVE ( 'NONE', #1052, #200, #163, .T. ) ;
#578 = DIRECTION ( 'NONE',  ( -0.000000000000000000, -1.000000000000000000, -0.000000000000000000 ) ) ;
#579 = DIRECTION ( 'NONE',  ( -0.000000000000000000, -1.000000000000000000, -0.000000000000000000 ) ) ;
#580 = AXIS2_PLACEMENT_3D ( 'NONE', #248, #827, #595 ) ;
#581 = CARTESIAN_POINT ( 'NONE',  ( 15.99999999999998579, 0.000000000000000000, 6.249999999999997335 ) ) ;
#582 = CIRCLE ( 'NONE', #730, 0.2500000000000002220 ) ;
#583 = EDGE_CURVE ( 'NONE', #1048, #1048, #507, .T. ) ;
#584 = EDGE_LOOP ( 'NONE', ( #186, #972, #873, #282 ) ) ;
#585 = CARTESIAN_POINT ( 'NONE',  ( -16.00000000000001421, 450.0000000000000000, 6.250000000000001776 ) ) ;
#586 = LINE ( 'NONE', #851, #435 ) ;
#587 = FACE_BOUND ( 'NONE', #921, .T. ) ;
#588 = ORIENTED_EDGE ( 'NONE', *, *, #463, .F. ) ;
#589 = CARTESIAN_POINT ( 'NONE',  ( 15.99999999999998579, 450.0000000000000000, -6.000000000000001776 ) ) ;
#590 = DIRECTION ( 'NONE',  ( 0.000000000000000000, -0.000000000000000000, 1.000000000000000000 ) ) ;
#591 = LINE ( 'NONE', #575, #716 ) ;
#592 = VERTEX_POINT ( 'NONE', #750 ) ;
#593 = DIRECTION ( 'NONE',  ( -1.000000000000000000, 0.000000000000000000, 0.000000000000000000 ) ) ;
#594 = ORIENTED_EDGE ( 'NONE', *, *, #707, .T. ) ;
#595 = DIRECTION ( 'NONE',  ( -1.000000000000000000, 0.000000000000000000, 0.000000000000000000 ) ) ;
#596 = AXIS2_PLACEMENT_3D ( 'NONE', #536, #885, #289 ) ;
#597 = VECTOR ( 'NONE', #228, 1000.000000000000000 ) ;
#598 = FACE_OUTER_BOUND ( 'NONE', #470, .T. ) ;
#599 = VECTOR ( 'NONE', #835, 1000.000000000000000 ) ;
#600 = EDGE_LOOP ( 'NONE', ( #90 ) ) ;
#601 = AXIS2_PLACEMENT_3D ( 'NONE', #124, #221, #225 ) ;
#602 = VECTOR ( 'NONE', #450, 1000.000000000000000 ) ;
#603 = LINE ( 'NONE', #703, #400 ) ;
#604 = ORIENTED_EDGE ( 'NONE', *, *, #448, .F. ) ;
#605 = CARTESIAN_POINT ( 'NONE',  ( -16.25000000000001066, 450.0000000000000000, 6.000000000000001776 ) ) ;
#606 = EDGE_CURVE ( 'NONE', #877, #58, #152, .T. ) ;
#607 = CARTESIAN_POINT ( 'NONE',  ( 16.24999999999998579, 450.0000000000000000, 7.499999999999998224 ) ) ;
#608 = ORIENTED_EDGE ( 'NONE', *, *, #1103, .T. ) ;
#609 = VERTEX_POINT ( 'NONE', #622 ) ;
#610 = ORIENTED_EDGE ( 'NONE', *, *, #606, .F. ) ;
#611 = FACE_OUTER_BOUND ( 'NONE', #423, .T. ) ;
#612 = EDGE_CURVE ( 'NONE', #11, #309, #757, .T. ) ;
#613 = DIRECTION ( 'NONE',  ( 0.000000000000000000, 0.000000000000000000, -1.000000000000000000 ) ) ;
#614 = ADVANCED_FACE ( 'NONE', ( #1024 ), #678, .T. ) ;
#615 = ORIENTED_EDGE ( 'NONE', *, *, #974, .T. ) ;
#616 = DIRECTION ( 'NONE',  ( -1.000000000000000000, 0.000000000000000000, 0.000000000000000000 ) ) ;
#617 = EDGE_LOOP ( 'NONE', ( #219, #572, #957, #644 ) ) ;
#618 = CARTESIAN_POINT ( 'NONE',  ( 15.99999999999998579, 0.000000000000000000, -7.500000000000001776 ) ) ;
#619 = FACE_OUTER_BOUND ( 'NONE', #787, .T. ) ;
#620 = VERTEX_POINT ( 'NONE', #938 ) ;
#621 = ADVANCED_FACE ( 'NONE', ( #168 ), #504, .T. ) ;
#622 = CARTESIAN_POINT ( 'NONE',  ( -3.999999999999988898, 15.00000000000000000, -7.500000000000000888 ) ) ;
#623 = AXIS2_PLACEMENT_3D ( 'NONE', #361, #28, #355 ) ;
#624 = EDGE_CURVE ( 'NONE', #777, #877, #452, .T. ) ;
#625 = AXIS2_PLACEMENT_3D ( 'NONE', #257, #264, #593 ) ;
#626 = VERTEX_POINT ( 'NONE', #771 ) ;
#627 = DIRECTION ( 'NONE',  ( 1.000000000000000000, 0.000000000000000000, 0.000000000000000000 ) ) ;
#628 = DIRECTION ( 'NONE',  ( -0.000000000000000000, -1.000000000000000000, -0.000000000000000000 ) ) ;
#629 = ORIENTED_EDGE ( 'NONE', *, *, #514, .T. ) ;
#630 = CARTESIAN_POINT ( 'NONE',  ( 0.000000000000000000, 0.000000000000000000, 0.000000000000000000 ) ) ;
#631 = ORIENTED_EDGE ( 'NONE', *, *, #109, .T. ) ;
#632 = CARTESIAN_POINT ( 'NONE',  ( -16.00000000000001421, 0.000000000000000000, 7.500000000000001776 ) ) ;
#633 = LINE ( 'NONE', #879, #105 ) ;
#634 = ORIENTED_EDGE ( 'NONE', *, *, #234, .F. ) ;
#635 = LINE ( 'NONE', #817, #194 ) ;
#636 = ADVANCED_FACE ( 'NONE', ( #878 ), #23, .T. ) ;
#637 = PRODUCT_DEFINITION_SHAPE ( 'NONE', 'NONE',  #176 ) ;
#638 = CARTESIAN_POINT ( 'NONE',  ( -17.50000000000001421, 0.000000000000000000, 7.500000000000001776 ) ) ;
#639 = EDGE_LOOP ( 'NONE', ( #203, #996, #123, #576 ) ) ;
#640 = VECTOR ( 'NONE', #647, 1000.000000000000000 ) ;
#641 = DIRECTION ( 'NONE',  ( -1.000000000000000000, 0.000000000000000000, 9.912705577010325549E-17 ) ) ;
#642 = AXIS2_PLACEMENT_3D ( 'NONE', #157, #1009, #831 ) ;
#643 = FACE_OUTER_BOUND ( 'NONE', #687, .T. ) ;
#644 = ORIENTED_EDGE ( 'NONE', *, *, #409, .F. ) ;
#645 = EDGE_CURVE ( 'NONE', #1007, #1061, #966, .T. ) ;
#646 = DIRECTION ( 'NONE',  ( 0.000000000000000000, 0.000000000000000000, -1.000000000000000000 ) ) ;
#647 = DIRECTION ( 'NONE',  ( 1.000000000000000000, 0.000000000000000000, -9.912705577010325549E-17 ) ) ;
#648 = FACE_BOUND ( 'NONE', #451, .T. ) ;
#649 = EDGE_CURVE ( 'NONE', #456, #189, #522, .T. ) ;
#650 = ORIENTED_EDGE ( 'NONE', *, *, #853, .T. ) ;
#651 = EDGE_CURVE ( 'NONE', #620, #178, #440, .T. ) ;
#652 = CARTESIAN_POINT ( 'NONE',  ( 15.99999999999998579, 0.000000000000000000, 5.999999999999998224 ) ) ;
#653 = DIRECTION ( 'NONE',  ( 0.000000000000000000, 0.000000000000000000, -1.000000000000000000 ) ) ;
#654 = CARTESIAN_POINT ( 'NONE',  ( -16.25000000000000000, 450.0000000000000000, 0.1250000000000070499 ) ) ;
#655 = EDGE_LOOP ( 'NONE', ( #994 ) ) ;
#656 = EDGE_CURVE ( 'NONE', #828, #592, #187, .T. ) ;
#657 = FACE_OUTER_BOUND ( 'NONE', #1049, .T. ) ;
#658 = AXIS2_PLACEMENT_3D ( 'NONE', #134, #804, #465 ) ;
#659 = DIRECTION ( 'NONE',  ( 1.000000000000000000, 0.000000000000000000, -9.912705577010325549E-17 ) ) ;
#660 = DIRECTION ( 'NONE',  ( -0.000000000000000000, -1.000000000000000000, -0.000000000000000000 ) ) ;
#661 = ORIENTED_EDGE ( 'NONE', *, *, #811, .F. ) ;
#662 = ADVANCED_FACE ( 'NONE', ( #102, #535, #445 ), #1068, .F. ) ;
#663 = DIRECTION ( 'NONE',  ( -1.881733940042637923E-15, 0.000000000000000000, -1.000000000000000000 ) ) ;
#664 = DIRECTION ( 'NONE',  ( -0.000000000000000000, -1.000000000000000000, -0.000000000000000000 ) ) ;
#665 = PLANE ( 'NONE',  #833 ) ;
#666 = ADVANCED_FACE ( 'NONE', ( #611 ), #512, .T. ) ;
#667 = EDGE_LOOP ( 'NONE', ( #955 ) ) ;
#668 = FACE_OUTER_BOUND ( 'NONE', #39, .T. ) ;
#669 = DIRECTION ( 'NONE',  ( -1.000000000000000000, 0.000000000000000000, 0.000000000000000000 ) ) ;
#670 = DIRECTION ( 'NONE',  ( -1.881733940042638318E-15, 0.000000000000000000, -1.000000000000000000 ) ) ;
#671 = ORIENTED_EDGE ( 'NONE', *, *, #798, .F. ) ;
#672 = CARTESIAN_POINT ( 'NONE',  ( -16.00000000000001421, 450.0000000000000000, -6.249999999999997335 ) ) ;
#673 = PLANE ( 'NONE',  #108 ) ;
#674 = CARTESIAN_POINT ( 'NONE',  ( -17.50000000000000000, 450.0000000000000000, -0.1249999999999978628 ) ) ;
#675 = AXIS2_PLACEMENT_3D ( 'NONE', #652, #997, #484 ) ;
#676 = ORIENTED_EDGE ( 'NONE', *, *, #159, .F. ) ;
#677 = LINE ( 'NONE', #166, #834 ) ;
#678 = PLANE ( 'NONE',  #263 ) ;
#679 = CYLINDRICAL_SURFACE ( 'NONE', #417, 3.999999999999993339 ) ;
#680 = EDGE_CURVE ( 'NONE', #1026, #708, #181, .T. ) ;
#681 = ORIENTED_EDGE ( 'NONE', *, *, #1010, .F. ) ;
#682 = CARTESIAN_POINT ( 'NONE',  ( 15.99999999999998579, 450.0000000000000000, -6.250000000000001776 ) ) ;
#683 = ADVANCED_FACE ( 'NONE', ( #17 ), #785, .T. ) ;
#684 = VERTEX_POINT ( 'NONE', #705 ) ;
#685 = LINE ( 'NONE', #945, #415 ) ;
#686 = DIRECTION ( 'NONE',  ( 1.000000000000000000, 0.000000000000000000, -9.912705577010325549E-17 ) ) ;
#687 = EDGE_LOOP ( 'NONE', ( #364, #1008, #886, #367 ) ) ;
#688 = LINE ( 'NONE', #1038, #1046 ) ;
#689 = ORIENTED_EDGE ( 'NONE', *, *, #1057, .F. ) ;
#690 = DIRECTION ( 'NONE',  ( -1.000000000000000000, 0.000000000000000000, -1.881733940042639107E-15 ) ) ;
#691 = AXIS2_PLACEMENT_3D ( 'NONE', #150, #487, #809 ) ;
#692 = DIRECTION ( 'NONE',  ( 0.000000000000000000, 0.000000000000000000, 1.000000000000000000 ) ) ;
#693 = VECTOR ( 'NONE', #659, 1000.000000000000000 ) ;
#694 = ORIENTED_EDGE ( 'NONE', *, *, #721, .T. ) ;
#695 = CIRCLE ( 'NONE', #988, 0.2500000000000002220 ) ;
#696 = VERTEX_POINT ( 'NONE', #359 ) ;
#697 = EDGE_LOOP ( 'NONE', ( #375, #532, #290, #747 ) ) ;
#698 = DIRECTION ( 'NONE',  ( 0.000000000000000000, 0.000000000000000000, -1.000000000000000000 ) ) ;
#699 = ADVANCED_FACE ( 'NONE', ( #1055 ), #860, .F. ) ;
#700 = DIRECTION ( 'NONE',  ( -0.000000000000000000, -1.000000000000000000, -0.000000000000000000 ) ) ;
#701 = ADVANCED_FACE ( 'NONE', ( #278 ), #1062, .F. ) ;
#702 = ORIENTED_EDGE ( 'NONE', *, *, #463, .T. ) ;
#703 = CARTESIAN_POINT ( 'NONE',  ( -17.50000000000001066, 450.0000000000000000, 5.999999999999999112 ) ) ;
#704 = ORIENTED_EDGE ( 'NONE', *, *, #949, .T. ) ;
#705 = CARTESIAN_POINT ( 'NONE',  ( -16.00000000000001421, 0.000000000000000000, -6.249999999999997335 ) ) ;
#706 =( NAMED_UNIT ( * ) PLANE_ANGLE_UNIT ( ) SI_UNIT ( $, .RADIAN. ) );
#707 = EDGE_CURVE ( 'NONE', #592, #1026, #418, .T. ) ;
#708 = VERTEX_POINT ( 'NONE', #97 ) ;
#709 = DIRECTION ( 'NONE',  ( -0.000000000000000000, -1.000000000000000000, -0.000000000000000000 ) ) ;
#710 = VERTEX_POINT ( 'NONE', #605 ) ;
#711 = DIRECTION ( 'NONE',  ( 1.000000000000000000, 0.000000000000000000, 0.000000000000000000 ) ) ;
#712 = FACE_OUTER_BOUND ( 'NONE', #358, .T. ) ;
#713 = VECTOR ( 'NONE', #692, 1000.000000000000000 ) ;
#714 = EDGE_LOOP ( 'NONE', ( #245, #1013, #117, #483 ) ) ;
#715 = VECTOR ( 'NONE', #210, 1000.000000000000000 ) ;
#716 = VECTOR ( 'NONE', #1036, 1000.000000000000000 ) ;
#717 = DIRECTION ( 'NONE',  ( -9.912705577010325549E-17, 0.000000000000000000, -1.000000000000000000 ) ) ;
#718 = PRESENTATION_STYLE_ASSIGNMENT (( #35 ) ) ;
#719 = ORIENTED_EDGE ( 'NONE', *, *, #798, .T. ) ;
#720 = SHAPE_DEFINITION_REPRESENTATION ( #637, #939 ) ;
#721 = EDGE_CURVE ( 'NONE', #609, #609, #1065, .T. ) ;
#722 = FACE_OUTER_BOUND ( 'NONE', #341, .T. ) ;
#723 = CARTESIAN_POINT ( 'NONE',  ( -16.25000000000000000, 0.000000000000000000, -0.1250000000000002220 ) ) ;
#724 = ORIENTED_EDGE ( 'NONE', *, *, #336, .F. ) ;
#725 = DIRECTION ( 'NONE',  ( 0.000000000000000000, 0.000000000000000000, -1.000000000000000000 ) ) ;
#726 = LINE ( 'NONE', #638, #742 ) ;
#727 = FACE_OUTER_BOUND ( 'NONE', #999, .T. ) ;
#728 = AXIS2_PLACEMENT_3D ( 'NONE', #388, #307, #1075 ) ;
#729 = CARTESIAN_POINT ( 'NONE',  ( -16.00000000000001421, 450.0000000000000000, 6.000000000000001776 ) ) ;
#730 = AXIS2_PLACEMENT_3D ( 'NONE', #589, #963, #184 ) ;
#731 = LINE ( 'NONE', #734, #890 ) ;
#732 = PLANE ( 'NONE',  #797 ) ;
#733 = LINE ( 'NONE', #899, #476 ) ;
#734 = CARTESIAN_POINT ( 'NONE',  ( 15.99999999999998579, 450.0000000000000000, -7.500000000000001776 ) ) ;
#735 = ORIENTED_EDGE ( 'NONE', *, *, #36, .F. ) ;
#736 = EDGE_LOOP ( 'NONE', ( #223 ) ) ;
#737 = LINE ( 'NONE', #1086, #331 ) ;
#738 = CARTESIAN_POINT ( 'NONE',  ( -16.25000000000001421, 450.0000000000000000, -5.999999999999996447 ) ) ;
#739 = DIRECTION ( 'NONE',  ( -9.912705577010325549E-17, 0.000000000000000000, -1.000000000000000000 ) ) ;
#740 = ORIENTED_EDGE ( 'NONE', *, *, #159, .T. ) ;
#741 = DIRECTION ( 'NONE',  ( -1.000000000000000000, 0.000000000000000000, -2.081668171172166936E-15 ) ) ;
#742 = VECTOR ( 'NONE', #550, 1000.000000000000000 ) ;
#743 = ADVANCED_FACE ( 'NONE', ( #201 ), #517, .F. ) ;
#744 = VECTOR ( 'NONE', #162, 1000.000000000000000 ) ;
#745 = DIRECTION ( 'NONE',  ( 1.000000000000000000, 0.000000000000000000, 0.000000000000000000 ) ) ;
#746 = CARTESIAN_POINT ( 'NONE',  ( 17.49999999999998934, 450.0000000000000000, 5.999999999999998224 ) ) ;
#747 = ORIENTED_EDGE ( 'NONE', *, *, #234, .T. ) ;
#748 = EDGE_CURVE ( 'NONE', #338, #751, #737, .T. ) ;
#749 = CARTESIAN_POINT ( 'NONE',  ( 15.99999999999998579, 0.000000000000000000, 6.249999999999997335 ) ) ;
#750 = CARTESIAN_POINT ( 'NONE',  ( 15.99999999999998579, 0.000000000000000000, -6.250000000000001776 ) ) ;
#751 = VERTEX_POINT ( 'NONE', #131 ) ;
#752 = DIRECTION ( 'NONE',  ( -1.000000000000000000, 0.000000000000000000, 0.000000000000000000 ) ) ;
#753 = CYLINDRICAL_SURFACE ( 'NONE', #474, 3.999999999999993339 ) ;
#754 = CARTESIAN_POINT ( 'NONE',  ( -7.434529182757744409E-16, 15.00000000000000000, -7.500000000000000000 ) ) ;
#755 = ORIENTED_EDGE ( 'NONE', *, *, #964, .T. ) ;
#756 = DIRECTION ( 'NONE',  ( -1.000000000000000000, 0.000000000000000000, 1.881733940042637923E-15 ) ) ;
#757 = LINE ( 'NONE', #1015, #599 ) ;
#758 = CIRCLE ( 'NONE', #155, 3.999999999999993339 ) ;
#759 = VECTOR ( 'NONE', #1025, 1000.000000000000000 ) ;
#760 = CARTESIAN_POINT ( 'NONE',  ( -17.50000000000000000, 0.000000000000000000, 0.1250000000000041078 ) ) ;
#761 = ORIENTED_EDGE ( 'NONE', *, *, #933, .T. ) ;
#762 = EDGE_CURVE ( 'NONE', #1096, #411, #1043, .T. ) ;
#763 = FACE_OUTER_BOUND ( 'NONE', #617, .T. ) ;
#764 = ORIENTED_EDGE ( 'NONE', *, *, #882, .T. ) ;
#765 = DIRECTION ( 'NONE',  ( -1.000000000000000000, 0.000000000000000000, 1.886511780124776137E-15 ) ) ;
#766 = FACE_OUTER_BOUND ( 'NONE', #119, .T. ) ;
#767 = ADVANCED_FACE ( 'NONE', ( #1091, #823, #722 ), #888, .T. ) ;
#768 = ORIENTED_EDGE ( 'NONE', *, *, #949, .F. ) ;
#769 = DIRECTION ( 'NONE',  ( -1.000000000000000000, 0.000000000000000000, 0.000000000000000000 ) ) ;
#770 = ORIENTED_EDGE ( 'NONE', *, *, #1073, .T. ) ;
#771 = CARTESIAN_POINT ( 'NONE',  ( -16.25000000000000000, 0.000000000000000000, 0.1250000000000070499 ) ) ;
#772 = CARTESIAN_POINT ( 'NONE',  ( 17.49999999999998934, 0.000000000000000000, 7.499999999999998224 ) ) ;
#773 = ORIENTED_EDGE ( 'NONE', *, *, #904, .F. ) ;
#774 = EDGE_CURVE ( 'NONE', #189, #620, #558, .T. ) ;
#775 = VERTEX_POINT ( 'NONE', #347 ) ;
#776 = EDGE_CURVE ( 'NONE', #869, #1026, #391, .T. ) ;
#777 = VERTEX_POINT ( 'NONE', #45 ) ;
#778 = DIRECTION ( 'NONE',  ( 0.000000000000000000, 0.000000000000000000, 1.000000000000000000 ) ) ;
#779 = ADVANCED_FACE ( 'NONE', ( #912 ), #48, .T. ) ;
#780 = PRESENTATION_LAYER_ASSIGNMENT (  '', '', ( #140 ) ) ;
#781 = CARTESIAN_POINT ( 'NONE',  ( 15.99999999999998579, 0.000000000000000000, -6.000000000000001776 ) ) ;
#782 = EDGE_LOOP ( 'NONE', ( #70, #502, #970, #521 ) ) ;
#783 = DIRECTION ( 'NONE',  ( -1.881733940042639107E-15, 0.000000000000000000, 1.000000000000000000 ) ) ;
#784 = VERTEX_POINT ( 'NONE', #373 ) ;
#785 = PLANE ( 'NONE',  #623 ) ;
#786 = DIRECTION ( 'NONE',  ( 9.912705577010325549E-17, -0.000000000000000000, 1.000000000000000000 ) ) ;
#787 = EDGE_LOOP ( 'NONE', ( #789 ) ) ;
#788 = PLANE ( 'NONE',  #266 ) ;
#789 = ORIENTED_EDGE ( 'NONE', *, *, #1103, .F. ) ;
#790 = DIRECTION ( 'NONE',  ( 0.000000000000000000, 0.000000000000000000, -1.000000000000000000 ) ) ;
#791 = EDGE_CURVE ( 'NONE', #1096, #751, #979, .T. ) ;
#792 = DIRECTION ( 'NONE',  ( -0.000000000000000000, -1.000000000000000000, -0.000000000000000000 ) ) ;
#793 = EDGE_LOOP ( 'NONE', ( #814, #316, #980, #1047 ) ) ;
#794 = FACE_OUTER_BOUND ( 'NONE', #401, .T. ) ;
#795 = VERTEX_POINT ( 'NONE', #812 ) ;
#796 = DIRECTION ( 'NONE',  ( -0.000000000000000000, -1.000000000000000000, -0.000000000000000000 ) ) ;
#797 = AXIS2_PLACEMENT_3D ( 'NONE', #1085, #63, #984 ) ;
#798 = EDGE_CURVE ( 'NONE', #37, #103, #457, .T. ) ;
#799 = ADVANCED_FACE ( 'NONE', ( #1074 ), #291, .T. ) ;
#800 = ORIENTED_EDGE ( 'NONE', *, *, #748, .F. ) ;
#801 = VECTOR ( 'NONE', #765, 1000.000000000000000 ) ;
#802 = CIRCLE ( 'NONE', #947, 1.499999999999999556 ) ;
#803 = ORIENTED_EDGE ( 'NONE', *, *, #933, .F. ) ;
#804 = DIRECTION ( 'NONE',  ( 9.912705577010325549E-17, -0.000000000000000000, 1.000000000000000000 ) ) ;
#805 = LINE ( 'NONE', #900, #455 ) ;
#806 = ORIENTED_EDGE ( 'NONE', *, *, #645, .T. ) ;
#807 = DIRECTION ( 'NONE',  ( -0.000000000000000000, -1.000000000000000000, -0.000000000000000000 ) ) ;
#808 = DIRECTION ( 'NONE',  ( -9.912705577010325549E-17, 0.000000000000000000, -1.000000000000000000 ) ) ;
#809 = DIRECTION ( 'NONE',  ( 0.000000000000000000, 0.000000000000000000, 1.000000000000000000 ) ) ;
#810 = EDGE_CURVE ( 'NONE', #710, #19, #635, .T. ) ;
#811 = EDGE_CURVE ( 'NONE', #19, #626, #549, .T. ) ;
#812 = CARTESIAN_POINT ( 'NONE',  ( -17.50000000000000000, 450.0000000000000000, 0.1250000000000041078 ) ) ;
#813 = DIRECTION ( 'NONE',  ( -1.000000000000000000, 0.000000000000000000, 4.163336342344344915E-15 ) ) ;
#814 = ORIENTED_EDGE ( 'NONE', *, *, #656, .F. ) ;
#815 = CIRCLE ( 'NONE', #967, 0.2500000000000002220 ) ;
#816 = VECTOR ( 'NONE', #114, 1000.000000000000000 ) ;
#817 = CARTESIAN_POINT ( 'NONE',  ( -16.25000000000001421, 450.0000000000000000, 7.500000000000004441 ) ) ;
#818 = AXIS2_PLACEMENT_3D ( 'NONE', #953, #368, #973 ) ;
#819 = CARTESIAN_POINT ( 'NONE',  ( -16.25000000000001066, 0.000000000000000000, 6.000000000000001776 ) ) ;
#820 = EDGE_CURVE ( 'NONE', #784, #411, #733, .T. ) ;
#821 = ORIENTED_EDGE ( 'NONE', *, *, #253, .F. ) ;
#822 = ORIENTED_EDGE ( 'NONE', *, *, #583, .T. ) ;
#823 = FACE_BOUND ( 'NONE', #825, .T. ) ;
#824 = DIRECTION ( 'NONE',  ( -0.000000000000000000, -0.000000000000000000, 1.000000000000000000 ) ) ;
#825 = EDGE_LOOP ( 'NONE', ( #170 ) ) ;
#826 = LINE ( 'NONE', #230, #509 ) ;
#827 = DIRECTION ( 'NONE',  ( -0.000000000000000000, -0.000000000000000000, -1.000000000000000000 ) ) ;
#828 = VERTEX_POINT ( 'NONE', #51 ) ;
#829 = ORIENTED_EDGE ( 'NONE', *, *, #64, .F. ) ;
#830 = AXIS2_PLACEMENT_3D ( 'NONE', #50, #379, #842 ) ;
#831 = DIRECTION ( 'NONE',  ( 1.000000000000000000, 0.000000000000000000, 0.000000000000000000 ) ) ;
#832 = VECTOR ( 'NONE', #923, 1000.000000000000000 ) ;
#833 = AXIS2_PLACEMENT_3D ( 'NONE', #861, #334, #686 ) ;
#834 = VECTOR ( 'NONE', #663, 1000.000000000000000 ) ;
#835 = DIRECTION ( 'NONE',  ( -1.000000000000000000, 0.000000000000000000, 1.886511780124776137E-15 ) ) ;
#836 =( GEOMETRIC_REPRESENTATION_CONTEXT ( 3 ) GLOBAL_UNCERTAINTY_ASSIGNED_CONTEXT ( ( #197 ) ) GLOBAL_UNIT_ASSIGNED_CONTEXT ( ( #1071, #909, #285 ) ) REPRESENTATION_CONTEXT ( 'NONE', 'WORKASPACE' ) );
#837 = CARTESIAN_POINT ( 'NONE',  ( 17.49999999999998934, 0.000000000000000000, 5.999999999999998224 ) ) ;
#838 = ORIENTED_EDGE ( 'NONE', *, *, #568, .F. ) ;
#839 = ADVANCED_FACE ( 'NONE', ( #381 ), #144, .T. ) ;
#840 = LINE ( 'NONE', #672, #744 ) ;
#841 = DIRECTION ( 'NONE',  ( 0.000000000000000000, -1.000000000000000000, -0.000000000000000000 ) ) ;
#842 = DIRECTION ( 'NONE',  ( 0.000000000000000000, -0.000000000000000000, 1.000000000000000000 ) ) ;
#843 = ORIENTED_EDGE ( 'NONE', *, *, #748, .T. ) ;
#844 = FACE_OUTER_BOUND ( 'NONE', #272, .T. ) ;
#845 = FACE_OUTER_BOUND ( 'NONE', #600, .T. ) ;
#846 = CARTESIAN_POINT ( 'NONE',  ( -16.00000000000001421, 450.0000000000000000, -5.999999999999997335 ) ) ;
#847 = EDGE_CURVE ( 'NONE', #901, #869, #472, .T. ) ;
#848 = EDGE_LOOP ( 'NONE', ( #86, #516, #488, #864 ) ) ;
#849 = CARTESIAN_POINT ( 'NONE',  ( 17.49999999999998934, 450.0000000000000000, 7.499999999999998224 ) ) ;
#850 = AXIS2_PLACEMENT_3D ( 'NONE', #738, #61, #569 ) ;
#851 = CARTESIAN_POINT ( 'NONE',  ( -17.50000000000000000, 0.000000000000000000, 0.1250000000000041078 ) ) ;
#852 = VECTOR ( 'NONE', #664, 1000.000000000000000 ) ;
#853 = EDGE_CURVE ( 'NONE', #684, #592, #138, .T. ) ;
#854 = EDGE_CURVE ( 'NONE', #103, #209, #1004, .T. ) ;
#855 = AXIS2_PLACEMENT_3D ( 'NONE', #288, #717, #107 ) ;
#856 = DIRECTION ( 'NONE',  ( 1.000000000000000000, 0.000000000000000000, -1.886511780124776137E-15 ) ) ;
#857 = ORIENTED_EDGE ( 'NONE', *, *, #1078, .F. ) ;
#858 = FACE_OUTER_BOUND ( 'NONE', #96, .T. ) ;
#859 = EDGE_LOOP ( 'NONE', ( #511 ) ) ;
#860 = PLANE ( 'NONE',  #913 ) ;
#861 = CARTESIAN_POINT ( 'NONE',  ( 17.49999999999998934, 450.0000000000000000, 6.249999999999997335 ) ) ;
#862 = ORIENTED_EDGE ( 'NONE', *, *, #71, .F. ) ;
#863 = VERTEX_POINT ( 'NONE', #112 ) ;
#864 = ORIENTED_EDGE ( 'NONE', *, *, #1105, .T. ) ;
#865 = CARTESIAN_POINT ( 'NONE',  ( 15.99999999999998579, 450.0000000000000000, 5.999999999999998224 ) ) ;
#866 = CARTESIAN_POINT ( 'NONE',  ( 17.49999999999998934, 450.0000000000000000, 5.999999999999998224 ) ) ;
#867 = ORIENTED_EDGE ( 'NONE', *, *, #1010, .T. ) ;
#868 = PLANE ( 'NONE',  #196 ) ;
#869 = VERTEX_POINT ( 'NONE', #321 ) ;
#870 = DIRECTION ( 'NONE',  ( 0.000000000000000000, 0.000000000000000000, 1.000000000000000000 ) ) ;
#871 = DIRECTION ( 'NONE',  ( 1.000000000000000000, 0.000000000000000000, 0.000000000000000000 ) ) ;
#872 = VECTOR ( 'NONE', #530, 1000.000000000000000 ) ;
#873 = ORIENTED_EDGE ( 'NONE', *, *, #464, .T. ) ;
#874 = AXIS2_PLACEMENT_3D ( 'NONE', #468, #302, #552 ) ;
#875 = VECTOR ( 'NONE', #670, 1000.000000000000000 ) ;
#876 = DIRECTION ( 'NONE',  ( -0.000000000000000000, -0.000000000000000000, -1.000000000000000000 ) ) ;
#877 = VERTEX_POINT ( 'NONE', #403 ) ;
#878 = FACE_OUTER_BOUND ( 'NONE', #714, .T. ) ;
#879 = CARTESIAN_POINT ( 'NONE',  ( -17.50000000000000000, 450.0000000000000000, -0.1249999999999978628 ) ) ;
#880 = ORIENTED_EDGE ( 'NONE', *, *, #62, .T. ) ;
#881 = PLANE ( 'NONE',  #384 ) ;
#882 = EDGE_CURVE ( 'NONE', #751, #684, #215, .T. ) ;
#883 = EDGE_LOOP ( 'NONE', ( #191, #26, #1070, #806 ) ) ;
#884 = DIRECTION ( 'NONE',  ( 0.000000000000000000, -1.000000000000000000, -0.000000000000000000 ) ) ;
#885 = DIRECTION ( 'NONE',  ( -0.000000000000000000, -0.000000000000000000, -1.000000000000000000 ) ) ;
#886 = ORIENTED_EDGE ( 'NONE', *, *, #446, .T. ) ;
#887 = ORIENTED_EDGE ( 'NONE', *, *, #810, .F. ) ;
#888 = PLANE ( 'NONE',  #658 ) ;
#889 = CARTESIAN_POINT ( 'NONE',  ( 15.99999999999998579, 450.0000000000000000, 5.999999999999998224 ) ) ;
#890 = VECTOR ( 'NONE', #1092, 1000.000000000000000 ) ;
#891 = ORIENTED_EDGE ( 'NONE', *, *, #982, .F. ) ;
#892 = AXIS2_PLACEMENT_3D ( 'NONE', #500, #420, #91 ) ;
#893 = AXIS2_PLACEMENT_3D ( 'NONE', #749, #1098, #66 ) ;
#894 = DIRECTION ( 'NONE',  ( -0.000000000000000000, -1.000000000000000000, -0.000000000000000000 ) ) ;
#895 = DIRECTION ( 'NONE',  ( 0.000000000000000000, 0.000000000000000000, -1.000000000000000000 ) ) ;
#896 = EDGE_CURVE ( 'NONE', #901, #708, #1107, .T. ) ;
#897 = LINE ( 'NONE', #746, #1040 ) ;
#898 = EDGE_CURVE ( 'NONE', #456, #777, #826, .T. ) ;
#899 = CARTESIAN_POINT ( 'NONE',  ( -16.00000000000001421, 450.0000000000000000, -7.499999999999998224 ) ) ;
#900 = CARTESIAN_POINT ( 'NONE',  ( -17.50000000000000000, 450.0000000000000000, 0.1250000000000041078 ) ) ;
#901 = VERTEX_POINT ( 'NONE', #922 ) ;
#902 = PRODUCT_CONTEXT ( 'NONE', #906, 'mechanical' ) ;
#903 = DIRECTION ( 'NONE',  ( -0.000000000000000000, -1.000000000000000000, -0.000000000000000000 ) ) ;
#904 = EDGE_CURVE ( 'NONE', #31, #1061, #151, .T. ) ;
#905 = CARTESIAN_POINT ( 'NONE',  ( 15.99999999999998579, 450.0000000000000000, -6.000000000000001776 ) ) ;
#906 = APPLICATION_CONTEXT ( 'automotive_design' ) ;
#907 = AXIS2_PLACEMENT_3D ( 'NONE', #781, #628, #975 ) ;
#908 = ORIENTED_EDGE ( 'NONE', *, *, #896, .T. ) ;
#909 =( NAMED_UNIT ( * ) PLANE_ANGLE_UNIT ( ) SI_UNIT ( $, .RADIAN. ) );
#910 = AXIS2_PLACEMENT_3D ( 'NONE', #865, #894, #725 ) ;
#911 = EDGE_CURVE ( 'NONE', #161, #777, #802, .T. ) ;
#912 = FACE_OUTER_BOUND ( 'NONE', #961, .T. ) ;
#913 = AXIS2_PLACEMENT_3D ( 'NONE', #175, #120, #711 ) ;
#914 = LINE ( 'NONE', #49, #693 ) ;
#915 = CARTESIAN_POINT ( 'NONE',  ( 15.99999999999998579, 450.0000000000000000, -6.250000000000001776 ) ) ;
#916 = ORIENTED_EDGE ( 'NONE', *, *, #208, .T. ) ;
#917 = CARTESIAN_POINT ( 'NONE',  ( -16.00000000000001421, 0.000000000000000000, -5.999999999999997335 ) ) ;
#918 = LINE ( 'NONE', #723, #1000 ) ;
#919 = ADVANCED_FACE ( 'NONE', ( #763 ), #927, .T. ) ;
#920 = DIRECTION ( 'NONE',  ( -0.000000000000000000, -1.000000000000000000, -0.000000000000000000 ) ) ;
#921 = EDGE_LOOP ( 'NONE', ( #498 ) ) ;
#922 = CARTESIAN_POINT ( 'NONE',  ( 17.49999999999998934, 450.0000000000000000, -6.000000000000001776 ) ) ;
#923 = DIRECTION ( 'NONE',  ( -0.000000000000000000, -1.000000000000000000, -0.000000000000000000 ) ) ;
#924 = FACE_OUTER_BOUND ( 'NONE', #782, .T. ) ;
#925 = EDGE_CURVE ( 'NONE', #209, #58, #1021, .T. ) ;
#926 = EDGE_LOOP ( 'NONE', ( #857, #735, #1067, #755 ) ) ;
#927 = PLANE ( 'NONE',  #1097 ) ;
#928 = CARTESIAN_POINT ( 'NONE',  ( 15.99999999999998579, 0.000000000000000000, -7.500000000000001776 ) ) ;
#929 = CARTESIAN_POINT ( 'NONE',  ( -17.50000000000001066, 450.0000000000000000, 5.999999999999999112 ) ) ;
#930 = ORIENTED_EDGE ( 'NONE', *, *, #286, .T. ) ;
#931 = EDGE_CURVE ( 'NONE', #11, #338, #677, .T. ) ;
#932 = DIRECTION ( 'NONE',  ( 1.000000000000000000, 0.000000000000000000, 0.000000000000000000 ) ) ;
#933 = EDGE_CURVE ( 'NONE', #449, #684, #840, .T. ) ;
#934 = DIRECTION ( 'NONE',  ( -1.000000000000000000, 0.000000000000000000, 1.881733940042637923E-15 ) ) ;
#935 = PLANE ( 'NONE',  #5 ) ;
#936 = ORIENTED_EDGE ( 'NONE', *, *, #382, .F. ) ;
#937 = CARTESIAN_POINT ( 'NONE',  ( 15.99999999999998579, 0.000000000000000000, 5.999999999999998224 ) ) ;
#938 = CARTESIAN_POINT ( 'NONE',  ( -16.00000000000001421, 450.0000000000000000, 6.250000000000001776 ) ) ;
#939 = ADVANCED_BREP_SHAPE_REPRESENTATION ( 'Part3 Handle', ( #252, #349 ), #836 ) ;
#940 = CARTESIAN_POINT ( 'NONE',  ( 15.99999999999998579, 450.0000000000000000, 6.249999999999997335 ) ) ;
#941 = ORIENTED_EDGE ( 'NONE', *, *, #378, .T. ) ;
#942 = DIRECTION ( 'NONE',  ( -0.000000000000000000, -1.000000000000000000, -0.000000000000000000 ) ) ;
#943 = VECTOR ( 'NONE', #813, 1000.000000000000000 ) ;
#944 = ORIENTED_EDGE ( 'NONE', *, *, #656, .T. ) ;
#945 = CARTESIAN_POINT ( 'NONE',  ( -16.25000000000000000, 450.0000000000000000, -0.1250000000000002220 ) ) ;
#946 = AXIS2_PLACEMENT_3D ( 'NONE', #318, #934, #404 ) ;
#947 = AXIS2_PLACEMENT_3D ( 'NONE', #937, #578, #489 ) ;
#948 = FACE_OUTER_BOUND ( 'NONE', #736, .T. ) ;
#949 = EDGE_CURVE ( 'NONE', #31, #626, #247, .T. ) ;
#950 = ORIENTED_EDGE ( 'NONE', *, *, #20, .F. ) ;
#951 = LINE ( 'NONE', #179, #74 ) ;
#952 = ORIENTED_EDGE ( 'NONE', *, *, #385, .F. ) ;
#953 = CARTESIAN_POINT ( 'NONE',  ( -7.434529182757744409E-16, 15.00000000000000000, -7.500000000000000888 ) ) ;
#954 = CYLINDRICAL_SURFACE ( 'NONE', #596, 3.999999999999993339 ) ;
#955 = ORIENTED_EDGE ( 'NONE', *, *, #583, .F. ) ;
#956 = CARTESIAN_POINT ( 'NONE',  ( -3.999999999999999112, 15.00000000000000000, 7.500000000000003553 ) ) ;
#957 = ORIENTED_EDGE ( 'NONE', *, *, #810, .T. ) ;
#958 = DIRECTION ( 'NONE',  ( 0.000000000000000000, 0.000000000000000000, -1.000000000000000000 ) ) ;
#959 = FILL_AREA_STYLE_COLOUR ( '', #473 ) ;
#960 = PRODUCT ( 'Part3 Handle', 'Part3 Handle', '', ( #902 ) ) ;
#961 = EDGE_LOOP ( 'NONE', ( #224, #838, #65, #324 ) ) ;
#962 = ADVANCED_FACE ( 'NONE', ( #657 ), #1005, .T. ) ;
#963 = DIRECTION ( 'NONE',  ( -0.000000000000000000, -1.000000000000000000, -0.000000000000000000 ) ) ;
#964 = EDGE_CURVE ( 'NONE', #620, #710, #348, .T. ) ;
#965 = ORIENTED_EDGE ( 'NONE', *, *, #394, .T. ) ;
#966 = LINE ( 'NONE', #34, #193 ) ;
#967 = AXIS2_PLACEMENT_3D ( 'NONE', #889, #792, #871 ) ;
#968 = AXIS2_PLACEMENT_3D ( 'NONE', #357, #25, #613 ) ;
#969 = VECTOR ( 'NONE', #870, 1000.000000000000000 ) ;
#970 = ORIENTED_EDGE ( 'NONE', *, *, #612, .T. ) ;
#971 = VERTEX_POINT ( 'NONE', #956 ) ;
#972 = ORIENTED_EDGE ( 'NONE', *, *, #820, .F. ) ;
#973 = DIRECTION ( 'NONE',  ( -1.000000000000000000, 0.000000000000000000, 0.000000000000000000 ) ) ;
#974 = EDGE_CURVE ( 'NONE', #58, #31, #24, .T. ) ;
#975 = DIRECTION ( 'NONE',  ( 0.000000000000000000, 0.000000000000000000, 1.000000000000000000 ) ) ;
#976 = VERTEX_POINT ( 'NONE', #73 ) ;
#977 = VERTEX_POINT ( 'NONE', #380 ) ;
#978 = ORIENTED_EDGE ( 'NONE', *, *, #776, .T. ) ;
#979 = LINE ( 'NONE', #206, #559 ) ;
#980 = ORIENTED_EDGE ( 'NONE', *, *, #680, .F. ) ;
#981 = CARTESIAN_POINT ( 'NONE',  ( -16.25000000000000000, 450.0000000000000000, 0.1250000000000070499 ) ) ;
#982 = EDGE_CURVE ( 'NONE', #901, #346, #503, .T. ) ;
#983 = CARTESIAN_POINT ( 'NONE',  ( 15.99999999999998579, 450.0000000000000000, -6.250000000000001776 ) ) ;
#984 = DIRECTION ( 'NONE',  ( 0.000000000000000000, 0.000000000000000000, -1.000000000000000000 ) ) ;
#985 = AXIS2_PLACEMENT_3D ( 'NONE', #12, #339, #958 ) ;
#986 = ADVANCED_FACE ( 'NONE', ( #668, #79 ), #1014, .F. ) ;
#987 = AXIS2_PLACEMENT_3D ( 'NONE', #268, #283, #627 ) ;
#988 = AXIS2_PLACEMENT_3D ( 'NONE', #846, #506, #249 ) ;
#989 = DIRECTION ( 'NONE',  ( 0.000000000000000000, 0.000000000000000000, -1.000000000000000000 ) ) ;
#990 = DIRECTION ( 'NONE',  ( 0.000000000000000000, -1.000000000000000000, -0.000000000000000000 ) ) ;
#991 = CARTESIAN_POINT ( 'NONE',  ( 16.24999999999998579, 450.0000000000000000, 5.999999999999998224 ) ) ;
#992 = DIRECTION ( 'NONE',  ( -1.000000000000000000, 0.000000000000000000, 0.000000000000000000 ) ) ;
#993 = CARTESIAN_POINT ( 'NONE',  ( -16.00000000000001421, 0.000000000000000000, -6.249999999999997335 ) ) ;
#994 = ORIENTED_EDGE ( 'NONE', *, *, #299, .T. ) ;
#995 = ADVANCED_FACE ( 'NONE', ( #844 ), #83, .F. ) ;
#996 = ORIENTED_EDGE ( 'NONE', *, *, #396, .T. ) ;
#997 = DIRECTION ( 'NONE',  ( -0.000000000000000000, -1.000000000000000000, -0.000000000000000000 ) ) ;
#998 = CARTESIAN_POINT ( 'NONE',  ( -16.00000000000001421, 450.0000000000000000, -5.999999999999997335 ) ) ;
#999 = EDGE_LOOP ( 'NONE', ( #676, #294, #1001, #880 ) ) ;
#1000 = VECTOR ( 'NONE', #469, 1000.000000000000000 ) ;
#1001 = ORIENTED_EDGE ( 'NONE', *, *, #982, .T. ) ;
#1002 = AXIS2_PLACEMENT_3D ( 'NONE', #928, #841, #237 ) ;
#1003 = CIRCLE ( 'NONE', #43, 1.499999999999999556 ) ;
#1004 = CIRCLE ( 'NONE', #675, 0.2500000000000002220 ) ;
#1005 = PLANE ( 'NONE',  #893 ) ;
#1006 = CARTESIAN_POINT ( 'NONE',  ( 15.99999999999998579, 450.0000000000000000, 7.499999999999998224 ) ) ;
#1007 = VERTEX_POINT ( 'NONE', #251 ) ;
#1008 = ORIENTED_EDGE ( 'NONE', *, *, #301, .T. ) ;
#1009 = DIRECTION ( 'NONE',  ( -0.000000000000000000, -1.000000000000000000, -0.000000000000000000 ) ) ;
#1010 = EDGE_CURVE ( 'NONE', #479, #869, #582, .T. ) ;
#1011 = CARTESIAN_POINT ( 'NONE',  ( -16.00000000000001421, 450.0000000000000000, 6.000000000000001776 ) ) ;
#1012 = DIRECTION ( 'NONE',  ( -1.000000000000000000, 0.000000000000000000, 0.000000000000000000 ) ) ;
#1013 = ORIENTED_EDGE ( 'NONE', *, *, #762, .T. ) ;
#1014 = CYLINDRICAL_SURFACE ( 'NONE', #1082, 3.999999999999993339 ) ;
#1015 = CARTESIAN_POINT ( 'NONE',  ( -16.25000000000000000, 450.0000000000000000, -0.1250000000000002220 ) ) ;
#1016 = PLANE ( 'NONE',  #153 ) ;
#1017 = ADVANCED_FACE ( 'NONE', ( #858 ), #881, .T. ) ;
#1018 = EDGE_CURVE ( 'NONE', #795, #111, #520, .T. ) ;
#1019 = EDGE_LOOP ( 'NONE', ( #615, #99, #267, #47 ) ) ;
#1020 = CIRCLE ( 'NONE', #728, 1.499999999999999556 ) ;
#1021 = LINE ( 'NONE', #567, #527 ) ;
#1022 = AXIS2_PLACEMENT_3D ( 'NONE', #1042, #273, #698 ) ;
#1023 = VECTOR ( 'NONE', #709, 1000.000000000000000 ) ;
#1024 = FACE_OUTER_BOUND ( 'NONE', #335, .T. ) ;
#1025 = DIRECTION ( 'NONE',  ( -1.881733940042638318E-15, 0.000000000000000000, -1.000000000000000000 ) ) ;
#1026 = VERTEX_POINT ( 'NONE', #424 ) ;
#1027 = ADVANCED_FACE ( 'NONE', ( #337 ), #95, .F. ) ;
#1028 = CARTESIAN_POINT ( 'NONE',  ( -7.434529182757744409E-16, 15.00000000000000000, -7.500000000000000000 ) ) ;
#1029 = CARTESIAN_POINT ( 'NONE',  ( -16.00000000000001421, 450.0000000000000000, -7.499999999999998224 ) ) ;
#1030 = DIRECTION ( 'NONE',  ( 0.000000000000000000, 0.000000000000000000, -1.000000000000000000 ) ) ;
#1031 = ORIENTED_EDGE ( 'NONE', *, *, #847, .T. ) ;
#1032 = ADVANCED_FACE ( 'NONE', ( #279 ), #788, .T. ) ;
#1033 = DIRECTION ( 'NONE',  ( 0.000000000000000000, -0.000000000000000000, 1.000000000000000000 ) ) ;
#1034 = ORIENTED_EDGE ( 'NONE', *, *, #911, .T. ) ;
#1035 = CARTESIAN_POINT ( 'NONE',  ( 15.99999999999998579, 450.0000000000000000, 5.999999999999998224 ) ) ;
#1036 = DIRECTION ( 'NONE',  ( -0.000000000000000000, -1.000000000000000000, -0.000000000000000000 ) ) ;
#1037 = EDGE_LOOP ( 'NONE', ( #416, #950, #634, #719 ) ) ;
#1038 = CARTESIAN_POINT ( 'NONE',  ( 16.24999999999998579, 450.0000000000000000, 5.999999999999998224 ) ) ;
#1039 = AXIS2_PLACEMENT_3D ( 'NONE', #819, #226, #1087 ) ;
#1040 = VECTOR ( 'NONE', #133, 1000.000000000000000 ) ;
#1041 = ORIENTED_EDGE ( 'NONE', *, *, #56, .T. ) ;
#1042 = CARTESIAN_POINT ( 'NONE',  ( -17.50000000000001066, 0.000000000000000000, -5.999999999999991118 ) ) ;
#1043 = CIRCLE ( 'NONE', #601, 1.500000000000000444 ) ;
#1044 = EDGE_CURVE ( 'NONE', #971, #971, #459, .T. ) ;
#1045 = FACE_OUTER_BOUND ( 'NONE', #859, .T. ) ;
#1046 = VECTOR ( 'NONE', #429, 1000.000000000000000 ) ;
#1047 = ORIENTED_EDGE ( 'NONE', *, *, #707, .F. ) ;
#1048 = VERTEX_POINT ( 'NONE', #271 ) ;
#1049 = EDGE_LOOP ( 'NONE', ( #740, #14, #604, #534 ) ) ;
#1050 = CARTESIAN_POINT ( 'NONE',  ( 15.99999999999998579, 450.0000000000000000, 7.499999999999998224 ) ) ;
#1051 = CARTESIAN_POINT ( 'NONE',  ( -17.50000000000000000, 450.0000000000000000, -0.1249999999999978628 ) ) ;
#1052 = VERTEX_POINT ( 'NONE', #100 ) ;
#1053 = CARTESIAN_POINT ( 'NONE',  ( -17.50000000000001066, 0.000000000000000000, -5.999999999999991118 ) ) ;
#1054 = EDGE_LOOP ( 'NONE', ( #891, #1031, #261, #770 ) ) ;
#1055 = FACE_OUTER_BOUND ( 'NONE', #82, .T. ) ;
#1056 = FACE_OUTER_BOUND ( 'NONE', #229, .T. ) ;
#1057 = EDGE_CURVE ( 'NONE', #161, #103, #510, .T. ) ;
#1058 = ORIENTED_EDGE ( 'NONE', *, *, #649, .T. ) ;
#1059 = CARTESIAN_POINT ( 'NONE',  ( -16.00000000000001421, 450.0000000000000000, 6.000000000000001776 ) ) ;
#1060 = ADVANCED_FACE ( 'NONE', ( #794 ), #868, .T. ) ;
#1061 = VERTEX_POINT ( 'NONE', #199 ) ;
#1062 = PLANE ( 'NONE',  #246 ) ;
#1063 = VECTOR ( 'NONE', #518, 1000.000000000000000 ) ;
#1064 = SURFACE_SIDE_STYLE ('',( #207 ) ) ;
#1065 = CIRCLE ( 'NONE', #818, 3.999999999999988010 ) ;
#1066 = ORIENTED_EDGE ( 'NONE', *, *, #721, .F. ) ;
#1067 = ORIENTED_EDGE ( 'NONE', *, *, #651, .F. ) ;
#1068 = PLANE ( 'NONE',  #855 ) ;
#1069 = DIRECTION ( 'NONE',  ( 1.000000000000000000, 0.000000000000000000, 0.000000000000000000 ) ) ;
#1070 = ORIENTED_EDGE ( 'NONE', *, *, #36, .T. ) ;
#1071 =( LENGTH_UNIT ( ) NAMED_UNIT ( * ) SI_UNIT ( .MILLI., .METRE. ) );
#1072 = EDGE_LOOP ( 'NONE', ( #764, #803, #44, #843 ) ) ;
#1073 = EDGE_CURVE ( 'NONE', #37, #346, #688, .T. ) ;
#1074 = FACE_OUTER_BOUND ( 'NONE', #883, .T. ) ;
#1075 = DIRECTION ( 'NONE',  ( 0.000000000000000000, 0.000000000000000000, 1.000000000000000000 ) ) ;
#1076 = ORIENTED_EDGE ( 'NONE', *, *, #496, .F. ) ;
#1077 = DIRECTION ( 'NONE',  ( -0.000000000000000000, -1.000000000000000000, -0.000000000000000000 ) ) ;
#1078 = EDGE_CURVE ( 'NONE', #1007, #710, #603, .T. ) ;
#1079 = DIRECTION ( 'NONE',  ( 9.912705577010325549E-17, -0.000000000000000000, 1.000000000000000000 ) ) ;
#1080 = AXIS2_PLACEMENT_3D ( 'NONE', #460, #786, #1069 ) ;
#1081 = LINE ( 'NONE', #141, #597 ) ;
#1082 = AXIS2_PLACEMENT_3D ( 'NONE', #1028, #241, #752 ) ;
#1083 = CARTESIAN_POINT ( 'NONE',  ( 15.99999999999998579, 450.0000000000000000, 5.999999999999998224 ) ) ;
#1084 = CYLINDRICAL_SURFACE ( 'NONE', #280, 0.2500000000000002220 ) ;
#1085 = CARTESIAN_POINT ( 'NONE',  ( 17.49999999999998934, 450.0000000000000000, 7.499999999999998224 ) ) ;
#1086 = CARTESIAN_POINT ( 'NONE',  ( -16.25000000000001421, 450.0000000000000000, -5.999999999999996447 ) ) ;
#1087 = DIRECTION ( 'NONE',  ( 0.000000000000000000, 0.000000000000000000, -1.000000000000000000 ) ) ;
#1088 = ORIENTED_EDGE ( 'NONE', *, *, #167, .T. ) ;
#1089 = ORIENTED_EDGE ( 'NONE', *, *, #29, .F. ) ;
#1090 = EDGE_CURVE ( 'NONE', #1007, #795, #118, .T. ) ;
#1091 = FACE_BOUND ( 'NONE', #1106, .T. ) ;
#1092 = DIRECTION ( 'NONE',  ( -0.000000000000000000, -1.000000000000000000, -0.000000000000000000 ) ) ;
#1093 = DIRECTION ( 'NONE',  ( -1.000000000000000000, 0.000000000000000000, 9.912705577010325549E-17 ) ) ;
#1094 =( GEOMETRIC_REPRESENTATION_CONTEXT ( 3 ) GLOBAL_UNCERTAINTY_ASSIGNED_CONTEXT ( ( #461 ) ) GLOBAL_UNIT_ASSIGNED_CONTEXT ( ( #195, #706, #188 ) ) REPRESENTATION_CONTEXT ( 'NONE', 'WORKASPACE' ) );
#1095 = AXIS2_PLACEMENT_3D ( 'NONE', #393, #739, #1093 ) ;
#1096 = VERTEX_POINT ( 'NONE', #1053 ) ;
#1097 = AXIS2_PLACEMENT_3D ( 'NONE', #585, #397, #499 ) ;
#1098 = DIRECTION ( 'NONE',  ( 0.000000000000000000, -1.000000000000000000, -0.000000000000000000 ) ) ;
#1099 = VECTOR ( 'NONE', #769, 1000.000000000000000 ) ;
#1100 = DIRECTION ( 'NONE',  ( -0.000000000000000000, -1.000000000000000000, -0.000000000000000000 ) ) ;
#1101 = PLANE ( 'NONE',  #830 ) ;
#1102 = DIRECTION ( 'NONE',  ( 0.000000000000000000, 0.000000000000000000, 1.000000000000000000 ) ) ;
#1103 = EDGE_CURVE ( 'NONE', #977, #977, #478, .T. ) ;
#1104 = CARTESIAN_POINT ( 'NONE',  ( 15.99999999999998579, 450.0000000000000000, -6.250000000000001776 ) ) ;
#1105 = EDGE_CURVE ( 'NONE', #209, #777, #951, .T. ) ;
#1106 = EDGE_LOOP ( 'NONE', ( #608 ) ) ;
#1107 = LINE ( 'NONE', #573, #142 ) ;
ENDSEC;
END-ISO-10303-21;
