ISO-10303-21;
HEADER;
FILE_DESCRIPTION (( 'STEP AP214' ),
    '1' );
FILE_NAME ('Part2.STEP',
    '2025-08-04T11:00:08',
    ( '' ),
    ( '' ),
    'SwSTEP 2.0',
    'SolidWorks 2025',
    '' );
FILE_SCHEMA (( 'AUTOMOTIVE_DESIGN' ));
ENDSEC;

DATA;
#1 = CARTESIAN_POINT ( 'NONE',  ( 4.000000000000000000, 31.81980515339468596, 31.81980515339458293 ) ) ;
#2 = ADVANCED_FACE ( 'NONE', ( #850 ), #476, .T. ) ;
#3 = CARTESIAN_POINT ( 'NONE',  ( -3.000000000000000000, -24.00000000000000000, -6.627416997969535650 ) ) ;
#4 = VERTEX_POINT ( 'NONE', #1020 ) ;
#5 = CARTESIAN_POINT ( 'NONE',  ( -5.000000000000000000, 0.000000000000000000, -49.00000000000002132 ) ) ;
#6 = AXIS2_PLACEMENT_3D ( 'NONE', #457, #653, #190 ) ;
#7 = AXIS2_PLACEMENT_3D ( 'NONE', #1140, #575, #566 ) ;
#8 = DIRECTION ( 'NONE',  ( 0.000000000000000000, 0.000000000000000000, -1.000000000000000000 ) ) ;
#9 = VECTOR ( 'NONE', #404, 1000.000000000000000 ) ;
#10 = EDGE_CURVE ( 'NONE', #590, #74, #487, .T. ) ;
#11 = EDGE_LOOP ( 'NONE', ( #846, #534, #164, #811 ) ) ;
#12 = LINE ( 'NONE', #747, #238 ) ;
#13 = CARTESIAN_POINT ( 'NONE',  ( 3.000000000000000000, -24.00000000000000000, 0.000000000000000000 ) ) ;
#14 = DIRECTION ( 'NONE',  ( 0.000000000000000000, 0.7071067811865441310, -0.7071067811865510144 ) ) ;
#15 = ORIENTED_EDGE ( 'NONE', *, *, #67, .F. ) ;
#16 = ORIENTED_EDGE ( 'NONE', *, *, #1091, .F. ) ;
#17 = CARTESIAN_POINT ( 'NONE',  ( 3.000000000000000000, 28.97918471982870869, 5.393398282201788518 ) ) ;
#18 = FACE_OUTER_BOUND ( 'NONE', #212, .T. ) ;
#19 = ORIENTED_EDGE ( 'NONE', *, *, #286, .F. ) ;
#20 = EDGE_CURVE ( 'NONE', #689, #693, #463, .T. ) ;
#21 = DIRECTION ( 'NONE',  ( 0.000000000000000000, -0.7071067811865467956, 0.7071067811865484609 ) ) ;
#22 = DIRECTION ( 'NONE',  ( 0.000000000000000000, 0.000000000000000000, 1.000000000000000000 ) ) ;
#23 = VECTOR ( 'NONE', #290, 1000.000000000000000 ) ;
#24 = DIRECTION ( 'NONE',  ( 0.000000000000000000, 0.000000000000000000, -1.000000000000000000 ) ) ;
#25 = AXIS2_PLACEMENT_3D ( 'NONE', #146, #713, #336 ) ;
#26 = ORIENTED_EDGE ( 'NONE', *, *, #83, .F. ) ;
#27 = CARTESIAN_POINT ( 'NONE',  ( 4.000000000000000000, 25.00000000000000000, -6.627416997969536538 ) ) ;
#28 = PRODUCT_DEFINITION_SHAPE ( 'NONE', 'NONE',  #342 ) ;
#29 = CARTESIAN_POINT ( 'NONE',  ( -3.000000000000000000, 44.31980515339463977, 19.31980515339457938 ) ) ;
#30 = ADVANCED_FACE ( 'NONE', ( #558 ), #361, .T. ) ;
#31 = CARTESIAN_POINT ( 'NONE',  ( -5.000000000000000000, 17.91421356237309581, -49.58578643762692906 ) ) ;
#32 = VERTEX_POINT ( 'NONE', #378 ) ;
#33 = FACE_OUTER_BOUND ( 'NONE', #595, .T. ) ;
#34 = ORIENTED_EDGE ( 'NONE', *, *, #1164, .T. ) ;
#35 = LINE ( 'NONE', #868, #529 ) ;
#36 = CARTESIAN_POINT ( 'NONE',  ( 4.000000000000000000, 0.000000000000000000, -20.00000000000000000 ) ) ;
#37 = ADVANCED_FACE ( 'NONE', ( #659 ), #749, .T. ) ;
#38 = EDGE_LOOP ( 'NONE', ( #568, #1096, #137, #90 ) ) ;
#39 = ADVANCED_FACE ( 'NONE', ( #1112 ), #174, .F. ) ;
#40 = CARTESIAN_POINT ( 'NONE',  ( -5.000000000000000000, -17.91421356237309936, -49.58578643762692906 ) ) ;
#41 = ORIENTED_EDGE ( 'NONE', *, *, #777, .T. ) ;
#42 = CARTESIAN_POINT ( 'NONE',  ( 3.000000000000000000, -11.79289321881341301, 11.79289321881345387 ) ) ;
#43 = VECTOR ( 'NONE', #1103, 1000.000000000000000 ) ;
#44 = AXIS2_PLACEMENT_3D ( 'NONE', #775, #312, #484 ) ;
#45 = CLOSED_SHELL ( 'NONE', ( #132, #1135, #960, #63, #39, #1184, #517, #922, #731, #475, #714, #115, #107, #1008, #145, #706, #966, #317, #2, #1118, #553, #985, #491, #1160, #380, #30, #73, #586, #1074, #983, #770, #784, #263, #57, #260, #37, #188, #1078, #869, #87, #98 ) ) ;
#46 = EDGE_LOOP ( 'NONE', ( #181, #357, #901, #1128 ) ) ;
#47 = AXIS2_PLACEMENT_3D ( 'NONE', #161, #1195, #707 ) ;
#48 = DIRECTION ( 'NONE',  ( -1.000000000000000000, -0.000000000000000000, -0.000000000000000000 ) ) ;
#49 = CARTESIAN_POINT ( 'NONE',  ( 4.000000000000000000, 0.000000000000000000, -65.00000000000000000 ) ) ;
#50 = CARTESIAN_POINT ( 'NONE',  ( 4.000000000000000000, 41.00000000000000000, -6.627416997969537427 ) ) ;
#51 = ORIENTED_EDGE ( 'NONE', *, *, #750, .T. ) ;
#52 = CARTESIAN_POINT ( 'NONE',  ( -3.000000000000000000, 25.00000000000000000, -6.627416997969536538 ) ) ;
#53 = FILL_AREA_STYLE ('',( #537 ) ) ;
#54 = ORIENTED_EDGE ( 'NONE', *, *, #431, .F. ) ;
#55 = CARTESIAN_POINT ( 'NONE',  ( 3.000000000000000000, 41.00000000000000000, -6.627416997969537427 ) ) ;
#56 = DIRECTION ( 'NONE',  ( 0.000000000000000000, 0.000000000000000000, -1.000000000000000000 ) ) ;
#57 = ADVANCED_FACE ( 'NONE', ( #940 ), #80, .T. ) ;
#58 = DIRECTION ( 'NONE',  ( 0.000000000000000000, 0.000000000000000000, -1.000000000000000000 ) ) ;
#59 = ORIENTED_EDGE ( 'NONE', *, *, #445, .T. ) ;
#60 = CARTESIAN_POINT ( 'NONE',  ( -5.000000000000000000, -18.50000000000000355, -100.0000000000000000 ) ) ;
#61 = VECTOR ( 'NONE', #733, 1000.000000000000000 ) ;
#62 = CARTESIAN_POINT ( 'NONE',  ( -5.000000000000000000, 24.00000000000000000, -36.00000000000002842 ) ) ;
#63 = ADVANCED_FACE ( 'NONE', ( #282 ), #648, .F. ) ;
#64 = DIRECTION ( 'NONE',  ( 0.000000000000000000, 0.000000000000000000, -1.000000000000000000 ) ) ;
#65 = ORIENTED_EDGE ( 'NONE', *, *, #220, .T. ) ;
#66 =( BOUNDED_CURVE ( )  B_SPLINE_CURVE ( 3, ( #278, #929, #1030, #1006 ),
 .UNSPECIFIED., .F., .F. ) 
 B_SPLINE_CURVE_WITH_KNOTS ( ( 4, 4 ),
 ( 3.141592653589793116, 4.712388980384689674 ),
 .UNSPECIFIED. ) 
 CURVE ( )  GEOMETRIC_REPRESENTATION_ITEM ( )  RATIONAL_B_SPLINE_CURVE ( ( 1.000000000000000000, 0.8047378541243649375, 0.8047378541243649375, 1.000000000000000000 ) ) 
 REPRESENTATION_ITEM ( '' )  );
#67 = EDGE_CURVE ( 'NONE', #218, #451, #235, .T. ) ;
#68 = FACE_OUTER_BOUND ( 'NONE', #1045, .T. ) ;
#69 = CARTESIAN_POINT ( 'NONE',  ( -3.000000000000000000, 31.81980515339468596, 31.81980515339458293 ) ) ;
#70 = SURFACE_STYLE_USAGE ( .BOTH. , #607 ) ;
#71 = EDGE_CURVE ( 'NONE', #860, #1066, #837, .T. ) ;
#72 = EDGE_LOOP ( 'NONE', ( #840, #191, #210, #539 ) ) ;
#73 = ADVANCED_FACE ( 'NONE', ( #1065 ), #974, .T. ) ;
#74 = VERTEX_POINT ( 'NONE', #875 ) ;
#75 =( LENGTH_UNIT ( ) NAMED_UNIT ( * ) SI_UNIT ( .MILLI., .METRE. ) );
#76 = LINE ( 'NONE', #5, #1169 ) ;
#77 = DIRECTION ( 'NONE',  ( -1.000000000000000000, -0.000000000000000000, -0.000000000000000000 ) ) ;
#78 = ORIENTED_EDGE ( 'NONE', *, *, #1051, .T. ) ;
#79 = AXIS2_PLACEMENT_3D ( 'NONE', #467, #287, #189 ) ;
#80 = TOROIDAL_SURFACE ( 'NONE', #913, 15.00000000000000000, 1.000000000000000000 ) ;
#81 = ORIENTED_EDGE ( 'NONE', *, *, #489, .T. ) ;
#82 = CARTESIAN_POINT ( 'NONE',  ( 4.000000000000000000, 0.000000000000000000, -25.00000000000000000 ) ) ;
#83 = EDGE_CURVE ( 'NONE', #403, #838, #1157, .T. ) ;
#84 = CIRCLE ( 'NONE', #682, 16.00000000000000000 ) ;
#85 = DIRECTION ( 'NONE',  ( 0.7071067811865462405, 0.000000000000000000, 0.7071067811865489050 ) ) ;
#86 = AXIS2_PLACEMENT_3D ( 'NONE', #219, #116, #853 ) ;
#87 = ADVANCED_FACE ( 'NONE', ( #668, #870 ), #407, .F. ) ;
#88 = LINE ( 'NONE', #634, #915 ) ;
#89 = DIRECTION ( 'NONE',  ( -0.000000000000000000, 1.000000000000000000, 0.000000000000000000 ) ) ;
#90 = ORIENTED_EDGE ( 'NONE', *, *, #609, .F. ) ;
#91 = CARTESIAN_POINT ( 'NONE',  ( 4.000000000000000000, 31.81980515339468596, 31.81980515339458293 ) ) ;
#92 = LINE ( 'NONE', #259, #881 ) ;
#93 = DIRECTION ( 'NONE',  ( 1.000000000000000000, -0.000000000000000000, 0.000000000000000000 ) ) ;
#94 = DIRECTION ( 'NONE',  ( 0.000000000000000000, 0.7071067811865487940, 0.7071067811865463515 ) ) ;
#95 = ORIENTED_EDGE ( 'NONE', *, *, #245, .T. ) ;
#96 = VERTEX_POINT ( 'NONE', #369 ) ;
#97 = CARTESIAN_POINT ( 'NONE',  ( -3.000000000000000000, 28.97918471982871225, 5.393398282201786742 ) ) ;
#98 = ADVANCED_FACE ( 'NONE', ( #1154, #790 ), #762, .F. ) ;
#99 = DIRECTION ( 'NONE',  ( -0.000000000000000000, 0.7071067811865510144, 0.7071067811865440200 ) ) ;
#100 = DIRECTION ( 'NONE',  ( 0.000000000000000000, -0.000000000000000000, 1.000000000000000000 ) ) ;
#101 = ORIENTED_EDGE ( 'NONE', *, *, #431, .T. ) ;
#102 = CARTESIAN_POINT ( 'NONE',  ( -3.000000000000000000, 31.81980515339468596, 31.81980515339458293 ) ) ;
#103 = CIRCLE ( 'NONE', #642, 0.9999999999999988898 ) ;
#104 = AXIS2_PLACEMENT_3D ( 'NONE', #1043, #402, #501 ) ;
#105 = CYLINDRICAL_SURFACE ( 'NONE', #599, 1.000000000000000000 ) ;
#106 = VECTOR ( 'NONE', #1189, 1000.000000000000000 ) ;
#107 = ADVANCED_FACE ( 'NONE', ( #204 ), #776, .F. ) ;
#108 = EDGE_CURVE ( 'NONE', #4, #806, #313, .T. ) ;
#109 = ORIENTED_EDGE ( 'NONE', *, *, #1193, .F. ) ;
#110 = CYLINDRICAL_SURFACE ( 'NONE', #217, 16.00000000000000000 ) ;
#111 = ORIENTED_EDGE ( 'NONE', *, *, #1162, .T. ) ;
#112 = LINE ( 'NONE', #480, #192 ) ;
#113 = ORIENTED_EDGE ( 'NONE', *, *, #268, .T. ) ;
#114 = ORIENTED_EDGE ( 'NONE', *, *, #742, .F. ) ;
#115 = ADVANCED_FACE ( 'NONE', ( #302 ), #322, .T. ) ;
#116 = DIRECTION ( 'NONE',  ( -1.000000000000000000, 0.000000000000000000, 0.000000000000000000 ) ) ;
#117 = EDGE_LOOP ( 'NONE', ( #669 ) ) ;
#118 = FACE_OUTER_BOUND ( 'NONE', #244, .T. ) ;
#119 = PLANE ( 'NONE',  #1056 ) ;
#120 = ORIENTED_EDGE ( 'NONE', *, *, #695, .T. ) ;
#121 = DIRECTION ( 'NONE',  ( 1.000000000000000000, 0.000000000000000000, 0.000000000000000000 ) ) ;
#122 = VECTOR ( 'NONE', #930, 999.9999999999998863 ) ;
#123 = DIRECTION ( 'NONE',  ( 0.000000000000000000, -0.7071067811865457964, 0.7071067811865492381 ) ) ;
#124 = AXIS2_PLACEMENT_3D ( 'NONE', #849, #760, #874 ) ;
#125 = PRODUCT_RELATED_PRODUCT_CATEGORY ( 'part', '', ( #780 ) ) ;
#126 = LINE ( 'NONE', #962, #410 ) ;
#127 = EDGE_LOOP ( 'NONE', ( #418 ) ) ;
#128 = DIRECTION ( 'NONE',  ( 0.000000000000000000, 0.000000000000000000, -1.000000000000000000 ) ) ;
#129 = ORIENTED_EDGE ( 'NONE', *, *, #453, .T. ) ;
#130 = CARTESIAN_POINT ( 'NONE',  ( -2.000000000000000000, 0.000000000000000000, -85.00000000000000000 ) ) ;
#131 = DIRECTION ( 'NONE',  ( 1.000000000000000000, -0.000000000000000000, -0.000000000000000000 ) ) ;
#132 = ADVANCED_FACE ( 'NONE', ( #330, #573, #495 ), #119, .F. ) ;
#133 = ORIENTED_EDGE ( 'NONE', *, *, #672, .F. ) ;
#134 = FACE_OUTER_BOUND ( 'NONE', #564, .T. ) ;
#135 = DIRECTION ( 'NONE',  ( 0.000000000000000000, 0.7071067811865464625, -0.7071067811865486830 ) ) ;
#136 = DIRECTION ( 'NONE',  ( 0.7071067811865462405, 0.000000000000000000, 0.7071067811865489050 ) ) ;
#137 = ORIENTED_EDGE ( 'NONE', *, *, #711, .T. ) ;
#138 = CYLINDRICAL_SURFACE ( 'NONE', #417, 1.000000000000000888 ) ;
#139 = ORIENTED_EDGE ( 'NONE', *, *, #108, .F. ) ;
#140 = DIRECTION ( 'NONE',  ( -0.000000000000000000, 3.469446951953614189E-17, 1.000000000000000000 ) ) ;
#141 = VECTOR ( 'NONE', #1031, 999.9999999999998863 ) ;
#142 = CARTESIAN_POINT ( 'NONE',  ( -4.585786437626905077, 17.49999999999999645, -50.00000000000002132 ) ) ;
#143 = VECTOR ( 'NONE', #307, 1000.000000000000000 ) ;
#144 = ORIENTED_EDGE ( 'NONE', *, *, #1117, .F. ) ;
#145 = ADVANCED_FACE ( 'NONE', ( #18, #678 ), #1058, .F. ) ;
#146 = CARTESIAN_POINT ( 'NONE',  ( -3.000000000000000000, 41.00000000000000000, -6.627416997969537427 ) ) ;
#147 = DIRECTION ( 'NONE',  ( 1.000000000000000000, -0.000000000000000000, 0.000000000000000000 ) ) ;
#148 = LINE ( 'NONE', #885, #935 ) ;
#149 = ORIENTED_EDGE ( 'NONE', *, *, #1044, .F. ) ;
#150 = CARTESIAN_POINT ( 'NONE',  ( -4.000000000000000000, 28.97918471982870869, 5.393398282201787630 ) ) ;
#151 = DIRECTION ( 'NONE',  ( 0.000000000000000000, 0.000000000000000000, -1.000000000000000000 ) ) ;
#152 = DIRECTION ( 'NONE',  ( -0.000000000000000000, -0.000000000000000000, 1.000000000000000000 ) ) ;
#153 = VERTEX_POINT ( 'NONE', #507 ) ;
#154 = EDGE_CURVE ( 'NONE', #299, #538, #216, .T. ) ;
#155 = DIRECTION ( 'NONE',  ( 0.000000000000000000, 0.000000000000000000, -1.000000000000000000 ) ) ;
#156 = CARTESIAN_POINT ( 'NONE',  ( -5.000000000000000000, 17.49999999999999645, -50.00000000000002132 ) ) ;
#157 = CARTESIAN_POINT ( 'NONE',  ( -3.292893218813454759, -24.00000000000000000, -35.70710678118656745 ) ) ;
#158 = ORIENTED_EDGE ( 'NONE', *, *, #1051, .F. ) ;
#159 = CIRCLE ( 'NONE', #1188, 1.000000000000000000 ) ;
#160 = EDGE_LOOP ( 'NONE', ( #783, #574, #624, #1022 ) ) ;
#161 = CARTESIAN_POINT ( 'NONE',  ( 4.000000000000000888, 0.000000000000000000, -85.00000000000000000 ) ) ;
#162 = LINE ( 'NONE', #226, #1038 ) ;
#163 = CARTESIAN_POINT ( 'NONE',  ( 4.000000000000000000, 41.00000000000000000, -6.627416997969537427 ) ) ;
#164 = ORIENTED_EDGE ( 'NONE', *, *, #750, .F. ) ;
#165 = ORIENTED_EDGE ( 'NONE', *, *, #442, .T. ) ;
#166 = CARTESIAN_POINT ( 'NONE',  ( 4.000000000000000000, -20.31370849898474162, 4.686291501015245053 ) ) ;
#167 = DIRECTION ( 'NONE',  ( -0.000000000000000000, 3.469446951953614189E-17, 1.000000000000000000 ) ) ;
#168 =( LENGTH_UNIT ( ) NAMED_UNIT ( * ) SI_UNIT ( .MILLI., .METRE. ) );
#169 = ORIENTED_EDGE ( 'NONE', *, *, #938, .F. ) ;
#170 = VERTEX_POINT ( 'NONE', #276 ) ;
#171 = CARTESIAN_POINT ( 'NONE',  ( -4.000000000000003553, -24.00000000000000000, -35.00000000000002132 ) ) ;
#172 = DIRECTION ( 'NONE',  ( 1.000000000000000000, 0.000000000000000000, 0.000000000000000000 ) ) ;
#173 = AXIS2_PLACEMENT_3D ( 'NONE', #686, #396, #222 ) ;
#174 = PLANE ( 'NONE',  #233 ) ;
#175 = DIRECTION ( 'NONE',  ( 1.000000000000000000, -0.000000000000000000, 0.000000000000000000 ) ) ;
#176 = VECTOR ( 'NONE', #310, 1000.000000000000000 ) ;
#177 = DIRECTION ( 'NONE',  ( 0.000000000000000000, 0.000000000000000000, -1.000000000000000000 ) ) ;
#178 = EDGE_CURVE ( 'NONE', #732, #368, #597, .T. ) ;
#179 = AXIS2_PLACEMENT_3D ( 'NONE', #745, #452, #258 ) ;
#180 = LINE ( 'NONE', #447, #763 ) ;
#181 = ORIENTED_EDGE ( 'NONE', *, *, #527, .T. ) ;
#182 = DIRECTION ( 'NONE',  ( 0.000000000000000000, -6.938893903907230843E-17, 1.000000000000000000 ) ) ;
#183 = CARTESIAN_POINT ( 'NONE',  ( -5.000000000000000000, -24.00000000000000000, -36.00000000000002132 ) ) ;
#184 = ORIENTED_EDGE ( 'NONE', *, *, #619, .T. ) ;
#185 = EDGE_LOOP ( 'NONE', ( #1029, #656, #1165, #665 ) ) ;
#186 = LINE ( 'NONE', #166, #1190 ) ;
#187 = DIRECTION ( 'NONE',  ( -1.000000000000000000, -0.000000000000000000, -0.000000000000000000 ) ) ;
#188 = ADVANCED_FACE ( 'NONE', ( #308 ), #1049, .T. ) ;
#189 = DIRECTION ( 'NONE',  ( 0.000000000000000000, 0.7071067811865454633, -0.7071067811865497932 ) ) ;
#190 = DIRECTION ( 'NONE',  ( 1.000000000000000000, 0.000000000000000000, 0.000000000000000000 ) ) ;
#191 = ORIENTED_EDGE ( 'NONE', *, *, #453, .F. ) ;
#192 = VECTOR ( 'NONE', #666, 1000.000000000000000 ) ;
#193 = AXIS2_PLACEMENT_3D ( 'NONE', #3, #1032, #1138 ) ;
#194 = CARTESIAN_POINT ( 'NONE',  ( 4.000000000000000000, 24.99999999999999645, -100.0000000000000000 ) ) ;
#195 = AXIS2_PLACEMENT_3D ( 'NONE', #455, #825, #734 ) ;
#196 = EDGE_LOOP ( 'NONE', ( #995 ) ) ;
#197 = PLANE ( 'NONE',  #977 ) ;
#198 = EDGE_CURVE ( 'NONE', #1004, #538, #126, .T. ) ;
#199 = DIRECTION ( 'NONE',  ( 0.000000000000000000, -3.469446951953614189E-17, -1.000000000000000000 ) ) ;
#200 = VERTEX_POINT ( 'NONE', #889 ) ;
#201 = DIRECTION ( 'NONE',  ( -0.000000000000000000, -0.000000000000000000, -1.000000000000000000 ) ) ;
#202 = EDGE_LOOP ( 'NONE', ( #367, #386, #883, #516 ) ) ;
#203 = CYLINDRICAL_SURFACE ( 'NONE', #897, 1.000000000000000000 ) ;
#204 = FACE_OUTER_BOUND ( 'NONE', #1009, .T. ) ;
#205 = ORIENTED_EDGE ( 'NONE', *, *, #876, .T. ) ;
#206 = LINE ( 'NONE', #953, #9 ) ;
#207 = ORIENTED_EDGE ( 'NONE', *, *, #799, .F. ) ;
#208 = DIRECTION ( 'NONE',  ( -2.453269466693392310E-15, 0.7071067811865492381, 0.7071067811865457964 ) ) ;
#209 = CARTESIAN_POINT ( 'NONE',  ( -4.000000000000000000, -18.50000000000000355, 0.000000000000000000 ) ) ;
#210 = ORIENTED_EDGE ( 'NONE', *, *, #527, .F. ) ;
#211 = DIRECTION ( 'NONE',  ( 0.000000000000000000, 0.000000000000000000, -1.000000000000000000 ) ) ;
#212 = EDGE_LOOP ( 'NONE', ( #275 ) ) ;
#213 = DIRECTION ( 'NONE',  ( -1.000000000000000000, 0.000000000000000000, -0.000000000000000000 ) ) ;
#214 = CIRCLE ( 'NONE', #374, 16.00000000000000000 ) ;
#215 = CIRCLE ( 'NONE', #376, 0.9999999999999994449 ) ;
#216 = LINE ( 'NONE', #592, #1080 ) ;
#217 = AXIS2_PLACEMENT_3D ( 'NONE', #1052, #478, #211 ) ;
#218 = VERTEX_POINT ( 'NONE', #334 ) ;
#219 = CARTESIAN_POINT ( 'NONE',  ( -2.000000000000000000, 0.000000000000000000, 0.000000000000000000 ) ) ;
#220 = EDGE_CURVE ( 'NONE', #422, #588, #698, .T. ) ;
#221 = DIRECTION ( 'NONE',  ( 0.000000000000000000, 0.7071067811865487940, 0.7071067811865463515 ) ) ;
#222 = DIRECTION ( 'NONE',  ( 0.000000000000000000, 0.000000000000000000, -1.000000000000000000 ) ) ;
#223 = ORIENTED_EDGE ( 'NONE', *, *, #939, .T. ) ;
#224 = CARTESIAN_POINT ( 'NONE',  ( 3.000000000000000000, -25.00000000000000000, -6.627416997969535650 ) ) ;
#225 = EDGE_LOOP ( 'NONE', ( #270, #291, #521, #133 ) ) ;
#226 = CARTESIAN_POINT ( 'NONE',  ( 4.000000000000000000, 44.31980515339463977, 19.31980515339457938 ) ) ;
#227 = CARTESIAN_POINT ( 'NONE',  ( -5.000000000000000000, 0.000000000000000000, 0.000000000000000000 ) ) ;
#228 =( BOUNDED_CURVE ( )  B_SPLINE_CURVE ( 3, ( #427, #1072, #986, #242 ),
 .UNSPECIFIED., .F., .F. ) 
 B_SPLINE_CURVE_WITH_KNOTS ( ( 4, 4 ),
 ( 4.712388980384689674, 6.283185307179586232 ),
 .UNSPECIFIED. ) 
 CURVE ( )  GEOMETRIC_REPRESENTATION_ITEM ( )  RATIONAL_B_SPLINE_CURVE ( ( 1.000000000000000000, 0.8047378541243649375, 0.8047378541243649375, 1.000000000000000000 ) ) 
 REPRESENTATION_ITEM ( '' )  );
#229 = EDGE_CURVE ( 'NONE', #451, #1105, #982, .T. ) ;
#230 = ORIENTED_EDGE ( 'NONE', *, *, #268, .F. ) ;
#231 = DIRECTION ( 'NONE',  ( 0.000000000000000000, -1.000000000000000000, -0.000000000000000000 ) ) ;
#232 = CARTESIAN_POINT ( 'NONE',  ( -4.585786437626906853, 25.00000000000000000, -36.17157287525383680 ) ) ;
#233 = AXIS2_PLACEMENT_3D ( 'NONE', #548, #1133, #293 ) ;
#234 = AXIS2_PLACEMENT_3D ( 'NONE', #917, #93, #1019 ) ;
#235 = CIRCLE ( 'NONE', #6, 1.000000000000000000 ) ;
#236 = CARTESIAN_POINT ( 'NONE',  ( -4.000000000000000000, 0.000000000000000000, -20.00000000000000000 ) ) ;
#237 = EDGE_CURVE ( 'NONE', #903, #903, #528, .T. ) ;
#238 = VECTOR ( 'NONE', #638, 1000.000000000000000 ) ;
#239 = VERTEX_POINT ( 'NONE', #350 ) ;
#240 = VECTOR ( 'NONE', #979, 1000.000000000000000 ) ;
#241 = AXIS2_PLACEMENT_3D ( 'NONE', #792, #411, #694 ) ;
#242 = CARTESIAN_POINT ( 'NONE',  ( -4.000000000000000000, 24.00000000000000000, -35.00000000000002842 ) ) ;
#243 = FACE_OUTER_BOUND ( 'NONE', #335, .T. ) ;
#244 = EDGE_LOOP ( 'NONE', ( #223, #801, #964, #54 ) ) ;
#245 = EDGE_CURVE ( 'NONE', #1105, #590, #261, .T. ) ;
#246 = DIRECTION ( 'NONE',  ( 0.000000000000000000, 0.000000000000000000, 1.000000000000000000 ) ) ;
#247 = CARTESIAN_POINT ( 'NONE',  ( -4.000000000000000000, -17.50000000000000000, -50.00000000000002132 ) ) ;
#248 =( NAMED_UNIT ( * ) SI_UNIT ( $, .STERADIAN. ) SOLID_ANGLE_UNIT ( ) );
#249 = ORIENTED_EDGE ( 'NONE', *, *, #630, .F. ) ;
#250 = ORIENTED_EDGE ( 'NONE', *, *, #237, .F. ) ;
#251 = CYLINDRICAL_SURFACE ( 'NONE', #723, 17.67766952966365324 ) ;
#252 = CARTESIAN_POINT ( 'NONE',  ( -3.000000000000000000, -20.31370849898474162, 4.686291501015245053 ) ) ;
#253 = DIRECTION ( 'NONE',  ( 1.000000000000000000, -0.000000000000000000, -0.000000000000000000 ) ) ;
#254 = CIRCLE ( 'NONE', #234, 16.00000000000000000 ) ;
#255 = ORIENTED_EDGE ( 'NONE', *, *, #923, .F. ) ;
#256 = AXIS2_PLACEMENT_3D ( 'NONE', #102, #1101, #934 ) ;
#257 = VERTEX_POINT ( 'NONE', #696 ) ;
#258 = DIRECTION ( 'NONE',  ( 0.000000000000000000, 0.000000000000000000, -1.000000000000000000 ) ) ;
#259 = CARTESIAN_POINT ( 'NONE',  ( -5.000000000000000000, -17.50000000000000000, -50.00000000000002132 ) ) ;
#260 = ADVANCED_FACE ( 'NONE', ( #628 ), #604, .T. ) ;
#261 = LINE ( 'NONE', #612, #43 ) ;
#262 = VERTEX_POINT ( 'NONE', #421 ) ;
#263 = ADVANCED_FACE ( 'NONE', ( #620 ), #1095, .T. ) ;
#264 = ORIENTED_EDGE ( 'NONE', *, *, #627, .F. ) ;
#265 = CARTESIAN_POINT ( 'NONE',  ( -5.000000000000000000, 18.50000000000000355, -100.0000000000000000 ) ) ;
#266 = DIRECTION ( 'NONE',  ( 1.000000000000000000, -0.000000000000000000, -0.000000000000000000 ) ) ;
#267 = LINE ( 'NONE', #843, #1205 ) ;
#268 = EDGE_CURVE ( 'NONE', #352, #737, #795, .T. ) ;
#269 = DIRECTION ( 'NONE',  ( -1.000000000000000000, 0.000000000000000000, 0.000000000000000000 ) ) ;
#270 = ORIENTED_EDGE ( 'NONE', *, *, #742, .T. ) ;
#271 = CARTESIAN_POINT ( 'NONE',  ( -4.000000000000000000, 18.49999999999999645, 1.283695372222837447E-15 ) ) ;
#272 = CARTESIAN_POINT ( 'NONE',  ( -3.000000000000000000, 44.31980515339463267, 19.31980515339457583 ) ) ;
#273 = EDGE_LOOP ( 'NONE', ( #1113, #1207, #19, #149 ) ) ;
#274 = STYLED_ITEM ( 'NONE', ( #339 ), #325 ) ;
#275 = ORIENTED_EDGE ( 'NONE', *, *, #621, .T. ) ;
#276 = CARTESIAN_POINT ( 'NONE',  ( 4.000000000000000888, 0.000000000000000000, -68.99999999999998579 ) ) ;
#277 = VECTOR ( 'NONE', #167, 1000.000000000000000 ) ;
#278 = CARTESIAN_POINT ( 'NONE',  ( -4.000000000000000000, -24.00000000000000000, -35.00000000000001421 ) ) ;
#279 = TOROIDAL_SURFACE ( 'NONE', #241, 15.00000000000000000, 1.000000000000000000 ) ;
#280 = LINE ( 'NONE', #1212, #836 ) ;
#281 = CIRCLE ( 'NONE', #1104, 15.00000000000000178 ) ;
#282 = FACE_OUTER_BOUND ( 'NONE', #1060, .T. ) ;
#283 = ORIENTED_EDGE ( 'NONE', *, *, #683, .T. ) ;
#284 = PLANE ( 'NONE',  #494 ) ;
#285 = LINE ( 'NONE', #651, #341 ) ;
#286 = EDGE_CURVE ( 'NONE', #873, #1105, #1018, .T. ) ;
#287 = DIRECTION ( 'NONE',  ( 0.000000000000000000, -0.7071067811865492381, -0.7071067811865457964 ) ) ;
#288 = CARTESIAN_POINT ( 'NONE',  ( 3.000000000000000000, -12.49999999999995914, 12.50000000000000178 ) ) ;
#289 = EDGE_LOOP ( 'NONE', ( #1180 ) ) ;
#290 = DIRECTION ( 'NONE',  ( -1.000000000000000000, -0.000000000000000000, -0.000000000000000000 ) ) ;
#291 = ORIENTED_EDGE ( 'NONE', *, *, #1177, .F. ) ;
#292 = LINE ( 'NONE', #909, #880 ) ;
#293 = DIRECTION ( 'NONE',  ( 1.000000000000000000, 0.000000000000000000, -0.000000000000000000 ) ) ;
#294 = ORIENTED_EDGE ( 'NONE', *, *, #286, .T. ) ;
#295 = AXIS2_PLACEMENT_3D ( 'NONE', #50, #716, #905 ) ;
#296 = AXIS2_PLACEMENT_3D ( 'NONE', #329, #213, #954 ) ;
#297 = FACE_OUTER_BOUND ( 'NONE', #160, .T. ) ;
#298 = TOROIDAL_SURFACE ( 'NONE', #623, 16.67766952966365324, 1.000000000000000000 ) ;
#299 = VERTEX_POINT ( 'NONE', #988 ) ;
#300 = CARTESIAN_POINT ( 'NONE',  ( 4.000000000000000000, 28.97918471982870869, 5.393398282201788518 ) ) ;
#301 = CIRCLE ( 'NONE', #454, 1.000000000000000000 ) ;
#302 = FACE_OUTER_BOUND ( 'NONE', #1050, .T. ) ;
#303 = AXIS2_PLACEMENT_3D ( 'NONE', #637, #1208, #358 ) ;
#304 = ORIENTED_EDGE ( 'NONE', *, *, #845, .T. ) ;
#305 = CARTESIAN_POINT ( 'NONE',  ( -4.000000000000000000, 24.00000000000000000, -35.00000000000002842 ) ) ;
#306 = ORIENTED_EDGE ( 'NONE', *, *, #340, .T. ) ;
#307 = DIRECTION ( 'NONE',  ( 0.000000000000000000, -1.000000000000000000, 0.000000000000000000 ) ) ;
#308 = FACE_OUTER_BOUND ( 'NONE', #505, .T. ) ;
#309 = ORIENTED_EDGE ( 'NONE', *, *, #1193, .T. ) ;
#310 = DIRECTION ( 'NONE',  ( 1.000000000000000000, -0.000000000000000000, -0.000000000000000000 ) ) ;
#311 = ORIENTED_EDGE ( 'NONE', *, *, #1109, .T. ) ;
#312 = DIRECTION ( 'NONE',  ( 0.000000000000000000, 3.469446951953614189E-17, 1.000000000000000000 ) ) ;
#313 = LINE ( 'NONE', #1146, #583 ) ;
#314 = EDGE_CURVE ( 'NONE', #458, #613, #148, .T. ) ;
#315 = CARTESIAN_POINT ( 'NONE',  ( -4.000000000000000000, 17.50000000000000000, -100.0000000000000000 ) ) ;
#316 = CIRCLE ( 'NONE', #469, 4.999999999999997335 ) ;
#317 = ADVANCED_FACE ( 'NONE', ( #993 ), #1203, .F. ) ;
#318 = ORIENTED_EDGE ( 'NONE', *, *, #1053, .T. ) ;
#319 = LINE ( 'NONE', #1153, #143 ) ;
#320 = AXIS2_PLACEMENT_3D ( 'NONE', #563, #844, #14 ) ;
#321 = VECTOR ( 'NONE', #708, 1000.000000000000000 ) ;
#322 = PLANE ( 'NONE',  #895 ) ;
#323 = AXIS2_PLACEMENT_3D ( 'NONE', #807, #1175, #525 ) ;
#324 =( BOUNDED_CURVE ( )  B_SPLINE_CURVE ( 3, ( #813, #232, #804, #1191 ),
 .UNSPECIFIED., .F., .F. ) 
 B_SPLINE_CURVE_WITH_KNOTS ( ( 4, 4 ),
 ( 1.570796326794896114, 3.141592653589793116 ),
 .UNSPECIFIED. ) 
 CURVE ( )  GEOMETRIC_REPRESENTATION_ITEM ( )  RATIONAL_B_SPLINE_CURVE ( ( 1.000000000000000000, 0.8047378541243649375, 0.8047378541243649375, 1.000000000000000000 ) ) 
 REPRESENTATION_ITEM ( '' )  );
#325 = MANIFOLD_SOLID_BREP ( '\X2\00d8\X0\10.0mm Dowel Hole1', #45 ) ;
#326 = CARTESIAN_POINT ( 'NONE',  ( 4.000000000000000000, 20.02691193458127472, 43.61269837220802970 ) ) ;
#327 = EDGE_CURVE ( 'NONE', #693, #860, #345, .T. ) ;
#328 = EDGE_LOOP ( 'NONE', ( #379, #865, #394, #1071 ) ) ;
#329 = CARTESIAN_POINT ( 'NONE',  ( -4.000000000000000000, 31.81980515339468596, 31.81980515339458293 ) ) ;
#330 = FACE_BOUND ( 'NONE', #1150, .T. ) ;
#331 = EDGE_LOOP ( 'NONE', ( #1039, #717, #437, #947 ) ) ;
#332 = CARTESIAN_POINT ( 'NONE',  ( -4.000000000000000000, -18.50000000000000355, -100.0000000000000000 ) ) ;
#333 = PLANE ( 'NONE',  #978 ) ;
#334 = CARTESIAN_POINT ( 'NONE',  ( 4.000000000000000000, -24.00000000000000000, -100.0000000000000000 ) ) ;
#335 = EDGE_LOOP ( 'NONE', ( #34 ) ) ;
#336 = DIRECTION ( 'NONE',  ( 0.000000000000000000, 0.000000000000000000, -1.000000000000000000 ) ) ;
#337 = DIRECTION ( 'NONE',  ( 0.000000000000000000, -1.000000000000000000, -0.000000000000000000 ) ) ;
#338 = VECTOR ( 'NONE', #152, 1000.000000000000000 ) ;
#339 = PRESENTATION_STYLE_ASSIGNMENT (( #70 ) ) ;
#340 = EDGE_CURVE ( 'NONE', #1204, #32, #800, .T. ) ;
#341 = VECTOR ( 'NONE', #187, 1000.000000000000000 ) ;
#342 = PRODUCT_DEFINITION ( 'General', '', #1127, #1148 ) ;
#343 = DIRECTION ( 'NONE',  ( 1.000000000000000000, -0.000000000000000000, 0.000000000000000000 ) ) ;
#344 = CARTESIAN_POINT ( 'NONE',  ( -3.000000000000000000, 29.68629150101525482, 4.686291501015240613 ) ) ;
#345 = LINE ( 'NONE', #709, #509 ) ;
#346 = ORIENTED_EDGE ( 'NONE', *, *, #462, .F. ) ;
#347 = EDGE_LOOP ( 'NONE', ( #952 ) ) ;
#348 = CARTESIAN_POINT ( 'NONE',  ( -5.000000000000000000, -18.50000000000000355, -49.00000000000002132 ) ) ;
#349 = FACE_OUTER_BOUND ( 'NONE', #949, .T. ) ;
#350 = CARTESIAN_POINT ( 'NONE',  ( -4.000000000000000000, 43.61269837220809364, 20.02691193458112906 ) ) ;
#351 = ORIENTED_EDGE ( 'NONE', *, *, #711, .F. ) ;
#352 = VERTEX_POINT ( 'NONE', #542 ) ;
#353 = DIRECTION ( 'NONE',  ( -0.000000000000000000, -1.000000000000000000, -0.000000000000000000 ) ) ;
#354 = DIRECTION ( 'NONE',  ( -0.000000000000000000, 1.000000000000000000, -2.775557561562890858E-16 ) ) ;
#355 = AXIS2_PLACEMENT_3D ( 'NONE', #756, #199, #1014 ) ;
#356 = ORIENTED_EDGE ( 'NONE', *, *, #614, .F. ) ;
#357 = ORIENTED_EDGE ( 'NONE', *, *, #852, .F. ) ;
#358 = DIRECTION ( 'NONE',  ( 1.000000000000000000, 0.000000000000000000, 0.000000000000000000 ) ) ;
#359 = DIRECTION ( 'NONE',  ( 0.000000000000000000, -1.000000000000000000, -0.000000000000000000 ) ) ;
#360 = DIRECTION ( 'NONE',  ( -0.000000000000000000, 0.7071067811865486830, 0.7071067811865464625 ) ) ;
#361 = CYLINDRICAL_SURFACE ( 'NONE', #600, 1.000000000000000888 ) ;
#362 = ORIENTED_EDGE ( 'NONE', *, *, #891, .F. ) ;
#363 = CARTESIAN_POINT ( 'NONE',  ( -4.000000000000000000, 31.81980515339468596, 26.81980515339458293 ) ) ;
#364 = CARTESIAN_POINT ( 'NONE',  ( -3.000000000000000000, -20.31370849898474162, 4.686291501015245053 ) ) ;
#365 =( BOUNDED_CURVE ( )  B_SPLINE_CURVE ( 3, ( #826, #1217, #830, #1115 ),
 .UNSPECIFIED., .F., .F. ) 
 B_SPLINE_CURVE_WITH_KNOTS ( ( 4, 4 ),
 ( 0.000000000000000000, 1.570796326794898112 ),
 .UNSPECIFIED. ) 
 CURVE ( )  GEOMETRIC_REPRESENTATION_ITEM ( )  RATIONAL_B_SPLINE_CURVE ( ( 1.000000000000000000, 0.8047378541243646044, 0.8047378541243646044, 1.000000000000000000 ) ) 
 REPRESENTATION_ITEM ( '' )  );
#366 = CARTESIAN_POINT ( 'NONE',  ( -4.000000000000000000, -19.60660171779819549, 3.979184719828696704 ) ) ;
#367 = ORIENTED_EDGE ( 'NONE', *, *, #1145, .T. ) ;
#368 = VERTEX_POINT ( 'NONE', #821 ) ;
#369 = CARTESIAN_POINT ( 'NONE',  ( -2.000000000000000000, 0.000000000000000000, -81.00000000000001421 ) ) ;
#370 = CARTESIAN_POINT ( 'NONE',  ( -5.000000000000000000, 18.49999999999999645, 1.283695372222837447E-15 ) ) ;
#371 = DIRECTION ( 'NONE',  ( 1.000000000000000000, -0.000000000000000000, -0.000000000000000000 ) ) ;
#372 = CARTESIAN_POINT ( 'NONE',  ( -4.000000000000000000, 24.00000000000000000, -8.326672684688674053E-16 ) ) ;
#373 = ORIENTED_EDGE ( 'NONE', *, *, #198, .T. ) ;
#374 = AXIS2_PLACEMENT_3D ( 'NONE', #1143, #864, #788 ) ;
#375 = EDGE_CURVE ( 'NONE', #441, #481, #267, .T. ) ;
#376 = AXIS2_PLACEMENT_3D ( 'NONE', #97, #626, #556 ) ;
#377 = DIRECTION ( 'NONE',  ( 0.000000000000000000, -6.938893903907230843E-17, 1.000000000000000000 ) ) ;
#378 = CARTESIAN_POINT ( 'NONE',  ( -4.000000000000000000, 24.00000000000000000, -35.00000000000002842 ) ) ;
#379 = ORIENTED_EDGE ( 'NONE', *, *, #680, .F. ) ;
#380 = ADVANCED_FACE ( 'NONE', ( #735 ), #105, .T. ) ;
#381 = CARTESIAN_POINT ( 'NONE',  ( -2.000000000000000000, -17.50000000000000000, -50.00000000000002132 ) ) ;
#382 = CARTESIAN_POINT ( 'NONE',  ( -4.000000000000000000, 17.49999999999999645, -50.00000000000002132 ) ) ;
#383 = ORIENTED_EDGE ( 'NONE', *, *, #892, .T. ) ;
#384 = VERTEX_POINT ( 'NONE', #366 ) ;
#385 = FACE_BOUND ( 'NONE', #289, .T. ) ;
#386 = ORIENTED_EDGE ( 'NONE', *, *, #1216, .F. ) ;
#387 = CARTESIAN_POINT ( 'NONE',  ( 3.000000000000000000, 11.79289321881341834, -11.79289321881345209 ) ) ;
#388 = DIRECTION ( 'NONE',  ( 0.000000000000000000, 0.000000000000000000, -1.000000000000000000 ) ) ;
#389 = UNCERTAINTY_MEASURE_WITH_UNIT (LENGTH_MEASURE( 1.000000000000000082E-05 ), #75, 'distance_accuracy_value', 'NONE');
#390 = VERTEX_POINT ( 'NONE', #1013 ) ;
#391 = CYLINDRICAL_SURFACE ( 'NONE', #941, 1.000000000000000000 ) ;
#392 = CIRCLE ( 'NONE', #195, 16.00000000000000000 ) ;
#393 = TOROIDAL_SURFACE ( 'NONE', #25, 17.00000000000000000, 1.000000000000000000 ) ;
#394 = ORIENTED_EDGE ( 'NONE', *, *, #1183, .T. ) ;
#395 = DIRECTION ( 'NONE',  ( -1.000000000000000000, 0.000000000000000000, 0.000000000000000000 ) ) ;
#396 = DIRECTION ( 'NONE',  ( 1.000000000000000000, -0.000000000000000000, -0.000000000000000000 ) ) ;
#397 = EDGE_CURVE ( 'NONE', #724, #635, #1027, .T. ) ;
#398 = ORIENTED_EDGE ( 'NONE', *, *, #375, .T. ) ;
#399 = PLANE ( 'NONE',  #549 ) ;
#400 = DIRECTION ( 'NONE',  ( 0.000000000000000000, -0.7071067811865457964, 0.7071067811865492381 ) ) ;
#401 = EDGE_CURVE ( 'NONE', #257, #689, #658, .T. ) ;
#402 = DIRECTION ( 'NONE',  ( 0.7071067811865462405, 2.453269466693402935E-17, 0.7071067811865487940 ) ) ;
#403 = VERTEX_POINT ( 'NONE', #382 ) ;
#404 = DIRECTION ( 'NONE',  ( -0.000000000000000000, -0.000000000000000000, -1.000000000000000000 ) ) ;
#405 = ORIENTED_EDGE ( 'NONE', *, *, #1091, .T. ) ;
#406 = DIRECTION ( 'NONE',  ( -1.000000000000000000, 0.000000000000000000, 0.000000000000000000 ) ) ;
#407 = CYLINDRICAL_SURFACE ( 'NONE', #786, 5.000000000000000888 ) ;
#408 = EDGE_CURVE ( 'NONE', #588, #390, #88, .T. ) ;
#409 = EDGE_LOOP ( 'NONE', ( #944, #1010, #757, #383 ) ) ;
#410 = VECTOR ( 'NONE', #253, 1000.000000000000000 ) ;
#411 = DIRECTION ( 'NONE',  ( 1.000000000000000000, -0.000000000000000000, 0.000000000000000000 ) ) ;
#412 = CIRCLE ( 'NONE', #296, 16.67766952966365324 ) ;
#413 = ORIENTED_EDGE ( 'NONE', *, *, #672, .T. ) ;
#414 = CYLINDRICAL_SURFACE ( 'NONE', #1059, 1.000000000000000000 ) ;
#415 = VECTOR ( 'NONE', #646, 999.9999999999998863 ) ;
#416 = CARTESIAN_POINT ( 'NONE',  ( -4.000000000000000000, 17.49999999999999645, -50.00000000000002132 ) ) ;
#417 = AXIS2_PLACEMENT_3D ( 'NONE', #594, #231, #510 ) ;
#418 = ORIENTED_EDGE ( 'NONE', *, *, #621, .F. ) ;
#419 = EDGE_CURVE ( 'NONE', #590, #4, #292, .T. ) ;
#420 = DIRECTION ( 'NONE',  ( 0.000000000000000000, 0.000000000000000000, 1.000000000000000000 ) ) ;
#421 = CARTESIAN_POINT ( 'NONE',  ( -3.000000000000000000, 25.00000000000000000, -6.627416997969536538 ) ) ;
#422 = VERTEX_POINT ( 'NONE', #1036 ) ;
#423 = CARTESIAN_POINT ( 'NONE',  ( -4.585786437626905077, -17.50000000000000000, -50.00000000000002132 ) ) ;
#424 = LINE ( 'NONE', #720, #277 ) ;
#425 = DIRECTION ( 'NONE',  ( 0.000000000000000000, 0.000000000000000000, -1.000000000000000000 ) ) ;
#426 = ORIENTED_EDGE ( 'NONE', *, *, #667, .T. ) ;
#427 = CARTESIAN_POINT ( 'NONE',  ( -3.000000000000000000, 25.00000000000000000, -35.41421356237312068 ) ) ;
#428 = CARTESIAN_POINT ( 'NONE',  ( -5.000000000000000000, 17.49999999999999645, -50.00000000000002132 ) ) ;
#429 = EDGE_CURVE ( 'NONE', #352, #200, #180, .T. ) ;
#430 = AXIS2_PLACEMENT_3D ( 'NONE', #512, #337, #1178 ) ;
#431 = EDGE_CURVE ( 'NONE', #1054, #257, #280, .T. ) ;
#432 = ORIENTED_EDGE ( 'NONE', *, *, #619, .F. ) ;
#433 = DIRECTION ( 'NONE',  ( 1.000000000000000000, 0.000000000000000000, 0.000000000000000000 ) ) ;
#434 = CARTESIAN_POINT ( 'NONE',  ( 4.000000000000000000, 24.00000000000000000, -8.326672684688674053E-16 ) ) ;
#435 = DIRECTION ( 'NONE',  ( -0.7071067811865494601, 0.000000000000000000, 0.7071067811865455743 ) ) ;
#436 = EDGE_LOOP ( 'NONE', ( #1119, #842, #576, #207 ) ) ;
#437 = ORIENTED_EDGE ( 'NONE', *, *, #445, .F. ) ;
#438 = CARTESIAN_POINT ( 'NONE',  ( 4.000000000000000000, 25.00000000000000000, -8.673617379884035472E-16 ) ) ;
#439 = DIRECTION ( 'NONE',  ( 0.000000000000000000, -0.7071067811865486830, -0.7071067811865464625 ) ) ;
#440 =( NAMED_UNIT ( * ) PLANE_ANGLE_UNIT ( ) SI_UNIT ( $, .RADIAN. ) );
#441 = VERTEX_POINT ( 'NONE', #1111 ) ;
#442 = EDGE_CURVE ( 'NONE', #1004, #1213, #1037, .T. ) ;
#443 = ORIENTED_EDGE ( 'NONE', *, *, #429, .F. ) ;
#444 = CARTESIAN_POINT ( 'NONE',  ( -4.000000000000000000, -25.00000000000000000, -100.0000000000000000 ) ) ;
#445 = EDGE_CURVE ( 'NONE', #481, #806, #365, .T. ) ;
#446 = DIRECTION ( 'NONE',  ( 1.000000000000000000, 0.000000000000000000, 0.000000000000000000 ) ) ;
#447 = CARTESIAN_POINT ( 'NONE',  ( -5.000000000000000000, -17.50000000000000000, -100.0000000000000000 ) ) ;
#448 = ORIENTED_EDGE ( 'NONE', *, *, #462, .T. ) ;
#449 = CIRCLE ( 'NONE', #603, 1.000000000000000000 ) ;
#450 = AXIS2_PLACEMENT_3D ( 'NONE', #959, #201, #121 ) ;
#451 = VERTEX_POINT ( 'NONE', #639 ) ;
#452 = DIRECTION ( 'NONE',  ( 1.000000000000000000, -0.000000000000000000, -0.000000000000000000 ) ) ;
#453 = EDGE_CURVE ( 'NONE', #153, #773, #254, .T. ) ;
#454 = AXIS2_PLACEMENT_3D ( 'NONE', #332, #971, #433 ) ;
#455 = CARTESIAN_POINT ( 'NONE',  ( -3.000000000000000000, -9.000000000000001776, -6.627416997969535650 ) ) ;
#456 = DIRECTION ( 'NONE',  ( 1.000000000000000000, -0.000000000000000000, -0.000000000000000000 ) ) ;
#457 = CARTESIAN_POINT ( 'NONE',  ( 3.000000000000000000, -24.00000000000000000, -100.0000000000000000 ) ) ;
#458 = VERTEX_POINT ( 'NONE', #461 ) ;
#459 = DIRECTION ( 'NONE',  ( 0.000000000000000000, 0.000000000000000000, -1.000000000000000000 ) ) ;
#460 = FACE_OUTER_BOUND ( 'NONE', #436, .T. ) ;
#461 = CARTESIAN_POINT ( 'NONE',  ( -3.999999999999998224, 25.00000000000000000, -36.41421356237312068 ) ) ;
#462 = EDGE_CURVE ( 'NONE', #645, #645, #316, .T. ) ;
#463 = LINE ( 'NONE', #288, #1206 ) ;
#464 = ORIENTED_EDGE ( 'NONE', *, *, #683, .F. ) ;
#465 =( NAMED_UNIT ( * ) SI_UNIT ( $, .STERADIAN. ) SOLID_ANGLE_UNIT ( ) );
#466 = CARTESIAN_POINT ( 'NONE',  ( -3.000000000000000000, 19.31980515339472504, 44.31980515339457583 ) ) ;
#467 = CARTESIAN_POINT ( 'NONE',  ( 3.000000000000000000, -19.60660171779819549, 3.979184719828696704 ) ) ;
#468 = DIRECTION ( 'NONE',  ( 0.000000000000000000, 0.000000000000000000, -1.000000000000000000 ) ) ;
#469 = AXIS2_PLACEMENT_3D ( 'NONE', #1, #371, #8 ) ;
#470 = ORIENTED_EDGE ( 'NONE', *, *, #630, .T. ) ;
#471 = VECTOR ( 'NONE', #1087, 1000.000000000000000 ) ;
#472 = AXIS2_PLACEMENT_3D ( 'NONE', #49, #973, #56 ) ;
#473 = FACE_OUTER_BOUND ( 'NONE', #972, .T. ) ;
#474 = DIRECTION ( 'NONE',  ( 0.000000000000000000, 1.000000000000000000, -2.775557561562890858E-16 ) ) ;
#475 = ADVANCED_FACE ( 'NONE', ( #740 ), #1125, .F. ) ;
#476 = CYLINDRICAL_SURFACE ( 'NONE', #355, 1.000000000000000888 ) ;
#477 = EDGE_LOOP ( 'NONE', ( #649, #555, #1068, #470, #1047, #532, #684, #815 ) ) ;
#478 = DIRECTION ( 'NONE',  ( 1.000000000000000000, 0.000000000000000000, 0.000000000000000000 ) ) ;
#479 = ORIENTED_EDGE ( 'NONE', *, *, #923, .T. ) ;
#480 = CARTESIAN_POINT ( 'NONE',  ( -5.000000000000000000, -18.50000000000000355, 0.000000000000000000 ) ) ;
#481 = VERTEX_POINT ( 'NONE', #183 ) ;
#482 = EDGE_CURVE ( 'NONE', #390, #1161, #1077, .T. ) ;
#483 = DIRECTION ( 'NONE',  ( 1.000000000000000000, -0.000000000000000000, 0.000000000000000000 ) ) ;
#484 = DIRECTION ( 'NONE',  ( 0.000000000000000000, -1.000000000000000000, 3.469446951953614189E-17 ) ) ;
#485 = CARTESIAN_POINT ( 'NONE',  ( -4.000000000000000000, 0.000000000000000000, 0.000000000000000000 ) ) ;
#486 = ORIENTED_EDGE ( 'NONE', *, *, #154, .F. ) ;
#487 = CIRCLE ( 'NONE', #193, 1.000000000000000000 ) ;
#488 = AXIS2_PLACEMENT_3D ( 'NONE', #17, #577, #123 ) ;
#489 = EDGE_CURVE ( 'NONE', #32, #732, #1132, .T. ) ;
#490 = LINE ( 'NONE', #194, #23 ) ;
#491 = ADVANCED_FACE ( 'NONE', ( #118 ), #203, .T. ) ;
#492 = CIRCLE ( 'NONE', #805, 1.000000000000000000 ) ;
#493 = DIRECTION ( 'NONE',  ( 0.000000000000000000, -0.7071067811865467956, 0.7071067811865484609 ) ) ;
#494 = AXIS2_PLACEMENT_3D ( 'NONE', #438, #1129, #828 ) ;
#495 = FACE_OUTER_BOUND ( 'NONE', #477, .T. ) ;
#496 = ORIENTED_EDGE ( 'NONE', *, *, #20, .T. ) ;
#497 = FACE_BOUND ( 'NONE', #127, .T. ) ;
#498 = EDGE_LOOP ( 'NONE', ( #443, #113, #41, #1098 ) ) ;
#499 = CARTESIAN_POINT ( 'NONE',  ( -3.000000000000000000, 43.61269837220809364, 20.02691193458113261 ) ) ;
#500 = EDGE_CURVE ( 'NONE', #1066, #239, #412, .T. ) ;
#501 = DIRECTION ( 'NONE',  ( 0.7071067811865484609, 0.000000000000000000, -0.7071067811865467956 ) ) ;
#502 = EDGE_CURVE ( 'NONE', #912, #912, #640, .T. ) ;
#503 = ORIENTED_EDGE ( 'NONE', *, *, #680, .T. ) ;
#504 = FACE_OUTER_BOUND ( 'NONE', #571, .T. ) ;
#505 = EDGE_LOOP ( 'NONE', ( #791, #356, #1106, #230 ) ) ;
#506 = FACE_OUTER_BOUND ( 'NONE', #328, .T. ) ;
#507 = CARTESIAN_POINT ( 'NONE',  ( 3.000000000000000000, 29.68629150101525482, 4.686291501015240613 ) ) ;
#508 = EDGE_LOOP ( 'NONE', ( #1171 ) ) ;
#509 = VECTOR ( 'NONE', #77, 1000.000000000000000 ) ;
#510 = DIRECTION ( 'NONE',  ( 0.000000000000000000, 0.000000000000000000, -1.000000000000000000 ) ) ;
#511 = ORIENTED_EDGE ( 'NONE', *, *, #719, .F. ) ;
#512 = CARTESIAN_POINT ( 'NONE',  ( -5.000000000000000000, -17.50000000000000000, -50.00000000000002132 ) ) ;
#513 = TOROIDAL_SURFACE ( 'NONE', #256, 16.67766952966365324, 1.000000000000000000 ) ;
#514 = CARTESIAN_POINT ( 'NONE',  ( 4.000000000000000000, 31.81980515339468596, 31.81980515339458293 ) ) ;
#515 = UNCERTAINTY_MEASURE_WITH_UNIT (LENGTH_MEASURE( 1.000000000000000082E-05 ), #168, 'distance_accuracy_value', 'NONE');
#516 = ORIENTED_EDGE ( 'NONE', *, *, #892, .F. ) ;
#517 = ADVANCED_FACE ( 'NONE', ( #506 ), #197, .T. ) ;
#518 = DIRECTION ( 'NONE',  ( -0.000000000000000000, -0.000000000000000000, 1.000000000000000000 ) ) ;
#519 = DIRECTION ( 'NONE',  ( 1.000000000000000000, -0.000000000000000000, 0.000000000000000000 ) ) ;
#520 = DIRECTION ( 'NONE',  ( 0.7071067811865462405, 2.453269466693403243E-17, 0.7071067811865489050 ) ) ;
#521 = ORIENTED_EDGE ( 'NONE', *, *, #824, .F. ) ;
#522 = CARTESIAN_POINT ( 'NONE',  ( -4.000000000000000000, -24.00000000000000000, 0.000000000000000000 ) ) ;
#523 = CARTESIAN_POINT ( 'NONE',  ( -3.000000000000000000, 24.00000000000000000, -6.627416997969536538 ) ) ;
#524 = EDGE_LOOP ( 'NONE', ( #51, #631, #158, #1040 ) ) ;
#525 = DIRECTION ( 'NONE',  ( 0.000000000000000000, 0.000000000000000000, -1.000000000000000000 ) ) ;
#526 = EDGE_CURVE ( 'NONE', #1218, #441, #819, .T. ) ;
#527 = EDGE_CURVE ( 'NONE', #588, #153, #1099, .T. ) ;
#528 = CIRCLE ( 'NONE', #975, 5.000000000000000888 ) ;
#529 = VECTOR ( 'NONE', #945, 1000.000000000000000 ) ;
#530 = CARTESIAN_POINT ( 'NONE',  ( -4.000000000000000000, -17.50000000000000000, -50.00000000000002132 ) ) ;
#531 = VECTOR ( 'NONE', #354, 1000.000000000000000 ) ;
#532 = ORIENTED_EDGE ( 'NONE', *, *, #719, .T. ) ;
#533 = AXIS2_PLACEMENT_3D ( 'NONE', #758, #1062, #128 ) ;
#534 = ORIENTED_EDGE ( 'NONE', *, *, #178, .F. ) ;
#535 = CARTESIAN_POINT ( 'NONE',  ( 3.000000000000000000, 44.31980515339463977, 19.31980515339457938 ) ) ;
#536 = DIRECTION ( 'NONE',  ( -1.000000000000000000, -0.000000000000000000, -0.000000000000000000 ) ) ;
#537 = FILL_AREA_STYLE_COLOUR ( '', #802 ) ;
#538 = VERTEX_POINT ( 'NONE', #781 ) ;
#539 = ORIENTED_EDGE ( 'NONE', *, *, #220, .F. ) ;
#540 = DIRECTION ( 'NONE',  ( -1.000000000000000000, 0.000000000000000000, -0.000000000000000000 ) ) ;
#541 = CARTESIAN_POINT ( 'NONE',  ( -4.000000000000000888, -25.00000000000000000, -36.41421356237312068 ) ) ;
#542 = CARTESIAN_POINT ( 'NONE',  ( -4.000000000000000000, -17.50000000000000000, -100.0000000000000000 ) ) ;
#543 = ORIENTED_EDGE ( 'NONE', *, *, #10, .T. ) ;
#544 = VERTEX_POINT ( 'NONE', #572 ) ;
#545 = CARTESIAN_POINT ( 'NONE',  ( -5.000000000000000000, 18.50000000000000000, -49.00000000000002132 ) ) ;
#546 = DIRECTION ( 'NONE',  ( 0.000000000000000000, 0.000000000000000000, 1.000000000000000000 ) ) ;
#547 = AXIS2_PLACEMENT_3D ( 'NONE', #1028, #89, #100 ) ;
#548 = CARTESIAN_POINT ( 'NONE',  ( 4.000000000000000000, 0.000000000000000000, -100.0000000000000000 ) ) ;
#549 = AXIS2_PLACEMENT_3D ( 'NONE', #676, #581, #1136 ) ;
#550 = ORIENTED_EDGE ( 'NONE', *, *, #674, .F. ) ;
#551 = CARTESIAN_POINT ( 'NONE',  ( -4.000000000000000000, -9.000000000000001776, -6.627416997969535650 ) ) ;
#552 = CARTESIAN_POINT ( 'NONE',  ( 3.000000000000000000, 25.00000000000000000, -6.627416997969536538 ) ) ;
#553 = ADVANCED_FACE ( 'NONE', ( #1055 ), #414, .T. ) ;
#554 = DIRECTION ( 'NONE',  ( -0.000000000000000000, -0.7071067811865487940, -0.7071067811865463515 ) ) ;
#555 = ORIENTED_EDGE ( 'NONE', *, *, #1026, .T. ) ;
#556 = DIRECTION ( 'NONE',  ( 0.000000000000000000, -0.7071067811865454633, 0.7071067811865497932 ) ) ;
#557 = CARTESIAN_POINT ( 'NONE',  ( 3.000000000000000000, 43.61269837220809364, 20.02691193458113617 ) ) ;
#558 = FACE_OUTER_BOUND ( 'NONE', #11, .T. ) ;
#559 = ORIENTED_EDGE ( 'NONE', *, *, #154, .T. ) ;
#560 = CARTESIAN_POINT ( 'NONE',  ( 3.000000000000000000, 24.00000000000000000, -6.627416997969536538 ) ) ;
#561 = DIRECTION ( 'NONE',  ( 0.000000000000000000, -0.000000000000000000, 1.000000000000000000 ) ) ;
#562 = MECHANICAL_DESIGN_GEOMETRIC_PRESENTATION_REPRESENTATION (  '', ( #274 ), #1035 ) ;
#563 = CARTESIAN_POINT ( 'NONE',  ( -3.000000000000000000, 20.02691193458127472, 43.61269837220802970 ) ) ;
#564 = EDGE_LOOP ( 'NONE', ( #890, #496, #605, #283 ) ) ;
#565 = VECTOR ( 'NONE', #1108, 1000.000000000000000 ) ;
#566 = DIRECTION ( 'NONE',  ( 0.000000000000000000, 0.7071067811865441310, -0.7071067811865510144 ) ) ;
#567 = DIRECTION ( 'NONE',  ( 0.000000000000000000, -0.7071067811865485719, -0.7071067811865464625 ) ) ;
#568 = ORIENTED_EDGE ( 'NONE', *, *, #777, .F. ) ;
#569 = EDGE_CURVE ( 'NONE', #1105, #689, #214, .T. ) ;
#570 = PLANE ( 'NONE',  #86 ) ;
#571 = EDGE_LOOP ( 'NONE', ( #1142, #511, #641, #768 ) ) ;
#572 = CARTESIAN_POINT ( 'NONE',  ( -5.000000000000000000, -18.50000000000000355, -49.00000000000002132 ) ) ;
#573 = FACE_BOUND ( 'NONE', #598, .T. ) ;
#574 = ORIENTED_EDGE ( 'NONE', *, *, #998, .F. ) ;
#575 = DIRECTION ( 'NONE',  ( 0.000000000000000000, -0.7071067811865510144, -0.7071067811865440200 ) ) ;
#576 = ORIENTED_EDGE ( 'NONE', *, *, #83, .T. ) ;
#577 = DIRECTION ( 'NONE',  ( -0.000000000000000000, 0.7071067811865487940, 0.7071067811865462405 ) ) ;
#578 = DIRECTION ( 'NONE',  ( -1.000000000000000000, 0.000000000000000000, 0.000000000000000000 ) ) ;
#579 = AXIS2_PLACEMENT_3D ( 'NONE', #227, #1168, #673 ) ;
#580 = ORIENTED_EDGE ( 'NONE', *, *, #772, .T. ) ;
#581 = DIRECTION ( 'NONE',  ( 1.000000000000000000, -0.000000000000000000, 0.000000000000000000 ) ) ;
#582 = VECTOR ( 'NONE', #420, 1000.000000000000000 ) ;
#583 = VECTOR ( 'NONE', #951, 999.9999999999998863 ) ;
#584 = ORIENTED_EDGE ( 'NONE', *, *, #614, .T. ) ;
#585 = CARTESIAN_POINT ( 'NONE',  ( -3.000000000000000000, -25.00000000000000000, -6.627416997969535650 ) ) ;
#586 = ADVANCED_FACE ( 'NONE', ( #690 ), #950, .T. ) ;
#587 = DIRECTION ( 'NONE',  ( 0.000000000000000000, 0.000000000000000000, -1.000000000000000000 ) ) ;
#588 = VERTEX_POINT ( 'NONE', #300 ) ;
#589 = CARTESIAN_POINT ( 'NONE',  ( -4.000000000000000000, 24.99999999999999645, -100.0000000000000000 ) ) ;
#590 = VERTEX_POINT ( 'NONE', #585 ) ;
#591 = DIRECTION ( 'NONE',  ( 0.000000000000000000, 0.7071067811865486830, 0.7071067811865464625 ) ) ;
#592 = CARTESIAN_POINT ( 'NONE',  ( -2.000000000000000000, 17.49999999999999645, -50.00000000000002132 ) ) ;
#593 = ORIENTED_EDGE ( 'NONE', *, *, #1145, .F. ) ;
#594 = CARTESIAN_POINT ( 'NONE',  ( -4.000000000000000000, 0.000000000000000000, -49.00000000000002132 ) ) ;
#595 = EDGE_LOOP ( 'NONE', ( #778, #559, #926, #426 ) ) ;
#596 = CYLINDRICAL_SURFACE ( 'NONE', #472, 3.999999999999989786 ) ;
#597 = LINE ( 'NONE', #1070, #994 ) ;
#598 = EDGE_LOOP ( 'NONE', ( #1092 ) ) ;
#599 = AXIS2_PLACEMENT_3D ( 'NONE', #13, #546, #1137 ) ;
#600 = AXIS2_PLACEMENT_3D ( 'NONE', #372, #831, #730 ) ;
#601 = CARTESIAN_POINT ( 'NONE',  ( -4.000000000000000000, -17.50000000000000000, -50.00000000000002132 ) ) ;
#602 = LINE ( 'NONE', #434, #861 ) ;
#603 = AXIS2_PLACEMENT_3D ( 'NONE', #560, #908, #446 ) ;
#604 = CYLINDRICAL_SURFACE ( 'NONE', #858, 0.9999999999999992228 ) ;
#605 = ORIENTED_EDGE ( 'NONE', *, *, #327, .T. ) ;
#606 = DIRECTION ( 'NONE',  ( -1.000000000000000000, 0.000000000000000000, -0.000000000000000000 ) ) ;
#607 = SURFACE_SIDE_STYLE ('',( #1185 ) ) ;
#608 = EDGE_LOOP ( 'NONE', ( #976, #184, #405, #120, #65, #942, #111, #101 ) ) ;
#609 = EDGE_CURVE ( 'NONE', #906, #299, #35, .T. ) ;
#610 = CARTESIAN_POINT ( 'NONE',  ( -4.000000000000000000, 17.49999999999999645, -50.00000000000002132 ) ) ;
#611 = FACE_OUTER_BOUND ( 'NONE', #185, .T. ) ;
#612 = CARTESIAN_POINT ( 'NONE',  ( -4.000000000000000000, -25.00000000000000000, -6.627416997969535650 ) ) ;
#613 = VERTEX_POINT ( 'NONE', #961 ) ;
#614 = EDGE_CURVE ( 'NONE', #544, #1152, #112, .T. ) ;
#615 = DIRECTION ( 'NONE',  ( -0.000000000000000000, -0.7071067811865492381, -0.7071067811865457964 ) ) ;
#616 = AXIS2_PLACEMENT_3D ( 'NONE', #1007, #425, #1088 ) ;
#617 = LINE ( 'NONE', #904, #997 ) ;
#618 = AXIS2_PLACEMENT_3D ( 'NONE', #271, #377, #1131 ) ;
#619 = EDGE_CURVE ( 'NONE', #873, #218, #856, .T. ) ;
#620 = FACE_OUTER_BOUND ( 'NONE', #331, .T. ) ;
#621 = EDGE_CURVE ( 'NONE', #96, #96, #820, .T. ) ;
#622 = ORIENTED_EDGE ( 'NONE', *, *, #900, .F. ) ;
#623 = AXIS2_PLACEMENT_3D ( 'NONE', #664, #483, #948 ) ;
#624 = ORIENTED_EDGE ( 'NONE', *, *, #939, .F. ) ;
#625 = CARTESIAN_POINT ( 'NONE',  ( -4.000000000000000000, 41.00000000000000000, -6.627416997969537427 ) ) ;
#626 = DIRECTION ( 'NONE',  ( -1.839952100020056263E-15, 0.7071067811865492381, 0.7071067811865457964 ) ) ;
#627 = EDGE_CURVE ( 'NONE', #538, #200, #319, .T. ) ;
#628 = FACE_OUTER_BOUND ( 'NONE', #644, .T. ) ;
#629 = ORIENTED_EDGE ( 'NONE', *, *, #857, .F. ) ;
#630 = EDGE_CURVE ( 'NONE', #384, #1066, #671, .T. ) ;
#631 = ORIENTED_EDGE ( 'NONE', *, *, #489, .F. ) ;
#632 = DIRECTION ( 'NONE',  ( 1.000000000000000000, -0.000000000000000000, -0.000000000000000000 ) ) ;
#633 = CARTESIAN_POINT ( 'NONE',  ( 3.000000000000000000, 24.99999999999999645, -100.0000000000000000 ) ) ;
#634 = CARTESIAN_POINT ( 'NONE',  ( 4.000000000000000000, 11.79289321881341479, -11.79289321881344854 ) ) ;
#635 = VERTEX_POINT ( 'NONE', #29 ) ;
#636 = VERTEX_POINT ( 'NONE', #1048 ) ;
#637 = CARTESIAN_POINT ( 'NONE',  ( 0.000000000000000000, 0.000000000000000000, 0.000000000000000000 ) ) ;
#638 = DIRECTION ( 'NONE',  ( -0.000000000000000000, -1.000000000000000000, -0.000000000000000000 ) ) ;
#639 = CARTESIAN_POINT ( 'NONE',  ( 3.000000000000000000, -25.00000000000000000, -100.0000000000000000 ) ) ;
#640 = CIRCLE ( 'NONE', #1123, 3.999999999999989786 ) ;
#641 = ORIENTED_EDGE ( 'NONE', *, *, #643, .F. ) ;
#642 = AXIS2_PLACEMENT_3D ( 'NONE', #499, #208, #400 ) ;
#643 = EDGE_CURVE ( 'NONE', #635, #239, #103, .T. ) ;
#644 = EDGE_LOOP ( 'NONE', ( #59, #139, #629, #362 ) ) ;
#645 = VERTEX_POINT ( 'NONE', #817 ) ;
#646 = DIRECTION ( 'NONE',  ( 0.000000000000000000, -0.7071067811865486830, -0.7071067811865464625 ) ) ;
#647 = DIRECTION ( 'NONE',  ( 1.000000000000000000, 0.000000000000000000, -0.000000000000000000 ) ) ;
#648 = PLANE ( 'NONE',  #547 ) ;
#649 = ORIENTED_EDGE ( 'NONE', *, *, #340, .F. ) ;
#650 = DIRECTION ( 'NONE',  ( 0.000000000000000000, 0.000000000000000000, -1.000000000000000000 ) ) ;
#651 = CARTESIAN_POINT ( 'NONE',  ( 4.000000000000000000, -25.00000000000000000, -100.0000000000000000 ) ) ;
#652 = CARTESIAN_POINT ( 'NONE',  ( -4.999999999999999112, 24.00000000000000000, -36.00000000000002842 ) ) ;
#653 = DIRECTION ( 'NONE',  ( -0.000000000000000000, -0.000000000000000000, -1.000000000000000000 ) ) ;
#654 = ORIENTED_EDGE ( 'NONE', *, *, #71, .T. ) ;
#655 = CARTESIAN_POINT ( 'NONE',  ( 3.000000000000000000, 23.99999999999999645, -100.0000000000000000 ) ) ;
#656 = ORIENTED_EDGE ( 'NONE', *, *, #500, .F. ) ;
#657 = DIRECTION ( 'NONE',  ( 0.000000000000000000, 0.000000000000000000, -1.000000000000000000 ) ) ;
#658 = CIRCLE ( 'NONE', #79, 0.9999999999999994449 ) ;
#659 = FACE_OUTER_BOUND ( 'NONE', #1033, .T. ) ;
#660 = AXIS2_PLACEMENT_3D ( 'NONE', #729, #925, #172 ) ;
#661 = EDGE_LOOP ( 'NONE', ( #970, #712, #503, #796 ) ) ;
#662 = AXIS2_PLACEMENT_3D ( 'NONE', #914, #834, #177 ) ;
#663 = CIRCLE ( 'NONE', #450, 1.000000000000000000 ) ;
#664 = CARTESIAN_POINT ( 'NONE',  ( 3.000000000000000000, 31.81980515339468596, 31.81980515339458293 ) ) ;
#665 = ORIENTED_EDGE ( 'NONE', *, *, #726, .F. ) ;
#666 = DIRECTION ( 'NONE',  ( 0.000000000000000000, 0.000000000000000000, -1.000000000000000000 ) ) ;
#667 = EDGE_CURVE ( 'NONE', #200, #906, #1158, .T. ) ;
#668 = FACE_OUTER_BOUND ( 'NONE', #347, .T. ) ;
#669 = ORIENTED_EDGE ( 'NONE', *, *, #502, .T. ) ;
#670 = DIRECTION ( 'NONE',  ( 0.000000000000000000, -0.7071067811865487940, -0.7071067811865463515 ) ) ;
#671 = LINE ( 'NONE', #685, #743 ) ;
#672 = EDGE_CURVE ( 'NONE', #262, #724, #84, .T. ) ;
#673 = DIRECTION ( 'NONE',  ( 0.000000000000000000, 0.000000000000000000, -1.000000000000000000 ) ) ;
#674 = EDGE_CURVE ( 'NONE', #1120, #1120, #916, .T. ) ;
#675 = ORIENTED_EDGE ( 'NONE', *, *, #1183, .F. ) ;
#676 = CARTESIAN_POINT ( 'NONE',  ( 4.000000000000000000, 0.000000000000000000, 0.000000000000000000 ) ) ;
#677 = CARTESIAN_POINT ( 'NONE',  ( 4.000000000000000000, 12.49999999999996447, -12.50000000000000000 ) ) ;
#678 = FACE_OUTER_BOUND ( 'NONE', #508, .T. ) ;
#679 = ORIENTED_EDGE ( 'NONE', *, *, #759, .T. ) ;
#680 = EDGE_CURVE ( 'NONE', #1161, #635, #162, .T. ) ;
#681 = DIRECTION ( 'NONE',  ( 1.000000000000000000, 0.000000000000000000, 0.000000000000000000 ) ) ;
#682 = AXIS2_PLACEMENT_3D ( 'NONE', #991, #606, #888 ) ;
#683 = EDGE_CURVE ( 'NONE', #860, #816, #987, .T. ) ;
#684 = ORIENTED_EDGE ( 'NONE', *, *, #1177, .T. ) ;
#685 = CARTESIAN_POINT ( 'NONE',  ( -4.000000000000000000, 20.02691193458127472, 43.61269837220803680 ) ) ;
#686 = CARTESIAN_POINT ( 'NONE',  ( 4.000000000000000000, 0.000000000000000000, -85.00000000000000000 ) ) ;
#687 = ORIENTED_EDGE ( 'NONE', *, *, #932, .F. ) ;
#688 = CARTESIAN_POINT ( 'NONE',  ( 4.000000000000000000, 0.000000000000000000, -100.0000000000000000 ) ) ;
#689 = VERTEX_POINT ( 'NONE', #981 ) ;
#690 = FACE_OUTER_BOUND ( 'NONE', #878, .T. ) ;
#691 = DIRECTION ( 'NONE',  ( 0.000000000000000000, 6.938893903907230843E-17, -1.000000000000000000 ) ) ;
#692 = SHAPE_DEFINITION_REPRESENTATION ( #28, #767 ) ;
#693 = VERTEX_POINT ( 'NONE', #798 ) ;
#694 = DIRECTION ( 'NONE',  ( 0.000000000000000000, 0.000000000000000000, -1.000000000000000000 ) ) ;
#695 = EDGE_CURVE ( 'NONE', #911, #422, #602, .T. ) ;
#696 = CARTESIAN_POINT ( 'NONE',  ( 4.000000000000000000, -19.60660171779819549, 3.979184719828696704 ) ) ;
#697 = ORIENTED_EDGE ( 'NONE', *, *, #879, .F. ) ;
#698 = CIRCLE ( 'NONE', #295, 17.00000000000000000 ) ;
#699 = FACE_OUTER_BOUND ( 'NONE', #72, .T. ) ;
#700 = AXIS2_PLACEMENT_3D ( 'NONE', #557, #99, #835 ) ;
#701 = DIRECTION ( 'NONE',  ( 1.000000000000000000, -0.000000000000000000, -0.000000000000000000 ) ) ;
#702 = AXIS2_PLACEMENT_3D ( 'NONE', #1210, #841, #1215 ) ;
#703 = DIRECTION ( 'NONE',  ( -0.000000000000000000, -0.000000000000000000, 1.000000000000000000 ) ) ;
#704 = VECTOR ( 'NONE', #1067, 1000.000000000000000 ) ;
#705 = EDGE_LOOP ( 'NONE', ( #448 ) ) ;
#706 = ADVANCED_FACE ( 'NONE', ( #794, #243 ), #596, .F. ) ;
#707 = DIRECTION ( 'NONE',  ( 0.000000000000000000, 0.000000000000000000, -1.000000000000000000 ) ) ;
#708 = DIRECTION ( 'NONE',  ( -0.000000000000000000, -0.7071067811865487940, -0.7071067811865463515 ) ) ;
#709 = CARTESIAN_POINT ( 'NONE',  ( 4.000000000000000000, 19.31980515339472504, 44.31980515339457583 ) ) ;
#710 = ORIENTED_EDGE ( 'NONE', *, *, #526, .T. ) ;
#711 = EDGE_CURVE ( 'NONE', #403, #299, #1182, .T. ) ;
#712 = ORIENTED_EDGE ( 'NONE', *, *, #998, .T. ) ;
#713 = DIRECTION ( 'NONE',  ( 1.000000000000000000, -0.000000000000000000, 0.000000000000000000 ) ) ;
#714 = ADVANCED_FACE ( 'NONE', ( #1083 ), #808, .F. ) ;
#715 = DIRECTION ( 'NONE',  ( 0.000000000000000000, -6.938893903907230843E-17, 1.000000000000000000 ) ) ;
#716 = DIRECTION ( 'NONE',  ( -1.000000000000000000, 0.000000000000000000, -0.000000000000000000 ) ) ;
#717 = ORIENTED_EDGE ( 'NONE', *, *, #1015, .F. ) ;
#718 = EDGE_LOOP ( 'NONE', ( #169, #697, #902, #989 ) ) ;
#719 = EDGE_CURVE ( 'NONE', #239, #1134, #617, .T. ) ;
#720 = CARTESIAN_POINT ( 'NONE',  ( -4.000000000000000000, 25.00000000000000000, -36.00000000000002842 ) ) ;
#721 = VECTOR ( 'NONE', #85, 999.9999999999998863 ) ;
#722 = ORIENTED_EDGE ( 'NONE', *, *, #879, .T. ) ;
#723 = AXIS2_PLACEMENT_3D ( 'NONE', #882, #48, #246 ) ;
#724 = VERTEX_POINT ( 'NONE', #344 ) ;
#725 = APPLICATION_PROTOCOL_DEFINITION ( 'draft international standard', 'automotive_design', 1998, #1089 ) ;
#726 = EDGE_CURVE ( 'NONE', #635, #860, #1144, .T. ) ;
#727 = CARTESIAN_POINT ( 'NONE',  ( 3.000000000000000000, 25.00000000000000000, -8.673617379884035472E-16 ) ) ;
#728 =( BOUNDED_CURVE ( )  B_SPLINE_CURVE ( 3, ( #803, #423, #40, #348 ),
 .UNSPECIFIED., .F., .F. ) 
 B_SPLINE_CURVE_WITH_KNOTS ( ( 4, 4 ),
 ( 0.000000000000000000, 1.570796326794896558 ),
 .UNSPECIFIED. ) 
 CURVE ( )  GEOMETRIC_REPRESENTATION_ITEM ( )  RATIONAL_B_SPLINE_CURVE ( ( 1.000000000000000000, 0.8047378541243649375, 0.8047378541243649375, 1.000000000000000000 ) ) 
 REPRESENTATION_ITEM ( '' )  );
#729 = CARTESIAN_POINT ( 'NONE',  ( -4.000000000000000000, 18.50000000000000355, -100.0000000000000000 ) ) ;
#730 = DIRECTION ( 'NONE',  ( 0.000000000000000000, -1.000000000000000000, 3.469446951953614189E-17 ) ) ;
#731 = ADVANCED_FACE ( 'NONE', ( #349 ), #333, .F. ) ;
#732 = VERTEX_POINT ( 'NONE', #62 ) ;
#733 = DIRECTION ( 'NONE',  ( -1.000000000000000000, 0.000000000000000000, 0.000000000000000000 ) ) ;
#734 = DIRECTION ( 'NONE',  ( 0.000000000000000000, 0.000000000000000000, -1.000000000000000000 ) ) ;
#735 = FACE_OUTER_BOUND ( 'NONE', #1016, .T. ) ;
#736 = CARTESIAN_POINT ( 'NONE',  ( -3.000000000000000000, -9.000000000000001776, -6.627416997969535650 ) ) ;
#737 = VERTEX_POINT ( 'NONE', #247 ) ;
#738 = CARTESIAN_POINT ( 'NONE',  ( -4.000000000000000000, 29.68629150101525482, 4.686291501015240613 ) ) ;
#739 = CARTESIAN_POINT ( 'NONE',  ( 3.000000000000000000, 12.49999999999996447, -12.50000000000000000 ) ) ;
#740 = FACE_OUTER_BOUND ( 'NONE', #38, .T. ) ;
#741 = CARTESIAN_POINT ( 'NONE',  ( -3.000000000000000000, -24.00000000000000000, 0.000000000000000000 ) ) ;
#742 = EDGE_CURVE ( 'NONE', #262, #636, #159, .T. ) ;
#743 = VECTOR ( 'NONE', #221, 1000.000000000000000 ) ;
#744 = ORIENTED_EDGE ( 'NONE', *, *, #932, .T. ) ;
#745 = CARTESIAN_POINT ( 'NONE',  ( 4.000000000000000888, 0.000000000000000000, -65.00000000000000000 ) ) ;
#746 = VECTOR ( 'NONE', #353, 1000.000000000000000 ) ;
#747 = CARTESIAN_POINT ( 'NONE',  ( -5.000000000000000000, -25.00000000000000000, -100.0000000000000000 ) ) ;
#748 = CARTESIAN_POINT ( 'NONE',  ( -5.000000000000000000, -17.50000000000000000, -50.00000000000002132 ) ) ;
#749 = CYLINDRICAL_SURFACE ( 'NONE', #761, 1.000000000000000000 ) ;
#750 = EDGE_CURVE ( 'NONE', #458, #732, #324, .T. ) ;
#751 = EDGE_LOOP ( 'NONE', ( #346 ) ) ;
#752 = CARTESIAN_POINT ( 'NONE',  ( 4.000000000000000000, 23.99999999999999645, -100.0000000000000000 ) ) ;
#753 = EDGE_CURVE ( 'NONE', #481, #732, #999, .T. ) ;
#754 = ORIENTED_EDGE ( 'NONE', *, *, #753, .T. ) ;
#755 = DIRECTION ( 'NONE',  ( 0.000000000000000000, -0.000000000000000000, 1.000000000000000000 ) ) ;
#756 = CARTESIAN_POINT ( 'NONE',  ( 3.000000000000000000, 24.00000000000000000, -8.326672684688674053E-16 ) ) ;
#757 = ORIENTED_EDGE ( 'NONE', *, *, #1201, .F. ) ;
#758 = CARTESIAN_POINT ( 'NONE',  ( 3.000000000000000000, 31.81980515339468596, 31.81980515339458293 ) ) ;
#759 = EDGE_CURVE ( 'NONE', #613, #262, #1073, .T. ) ;
#760 = DIRECTION ( 'NONE',  ( -0.000000000000000000, -0.000000000000000000, -1.000000000000000000 ) ) ;
#761 = AXIS2_PLACEMENT_3D ( 'NONE', #741, #1126, #269 ) ;
#762 = CYLINDRICAL_SURFACE ( 'NONE', #958, 4.999999999999997335 ) ;
#763 = VECTOR ( 'NONE', #456, 1000.000000000000000 ) ;
#764 = EDGE_LOOP ( 'NONE', ( #984 ) ) ;
#765 = FACE_BOUND ( 'NONE', #1139, .T. ) ;
#766 = AXIS2_PLACEMENT_3D ( 'NONE', #55, #343, #155 ) ;
#767 = ADVANCED_BREP_SHAPE_REPRESENTATION ( 'Part2', ( #325, #303 ), #1084 ) ;
#768 = ORIENTED_EDGE ( 'NONE', *, *, #397, .F. ) ;
#769 = DIRECTION ( 'NONE',  ( 0.000000000000000000, 0.7071067811865467956, -0.7071067811865484609 ) ) ;
#770 = ADVANCED_FACE ( 'NONE', ( #611 ), #513, .T. ) ;
#771 = DIRECTION ( 'NONE',  ( 0.000000000000000000, -3.469446951953614189E-17, -1.000000000000000000 ) ) ;
#772 = EDGE_CURVE ( 'NONE', #933, #458, #424, .T. ) ;
#773 = VERTEX_POINT ( 'NONE', #552 ) ;
#774 = LINE ( 'NONE', #27, #176 ) ;
#775 = CARTESIAN_POINT ( 'NONE',  ( -3.000000000000000000, 24.00000000000000000, -8.326672684688674053E-16 ) ) ;
#776 = PLANE ( 'NONE',  #579 ) ;
#777 = EDGE_CURVE ( 'NONE', #737, #906, #92, .T. ) ;
#778 = ORIENTED_EDGE ( 'NONE', *, *, #609, .T. ) ;
#779 = LINE ( 'NONE', #610, #240 ) ;
#780 = PRODUCT ( 'Part2', 'Part2', '', ( #1107 ) ) ;
#781 = CARTESIAN_POINT ( 'NONE',  ( -2.000000000000000000, 17.50000000000000000, -100.0000000000000000 ) ) ;
#782 = DIRECTION ( 'NONE',  ( 1.000000000000000000, -0.000000000000000000, -0.000000000000000000 ) ) ;
#783 = ORIENTED_EDGE ( 'NONE', *, *, #482, .T. ) ;
#784 = ADVANCED_FACE ( 'NONE', ( #473 ), #1220, .T. ) ;
#785 = AXIS2_PLACEMENT_3D ( 'NONE', #884, #519, #893 ) ;
#786 = AXIS2_PLACEMENT_3D ( 'NONE', #36, #131, #388 ) ;
#787 = LINE ( 'NONE', #522, #839 ) ;
#788 = DIRECTION ( 'NONE',  ( 0.000000000000000000, 0.000000000000000000, -1.000000000000000000 ) ) ;
#789 = TOROIDAL_SURFACE ( 'NONE', #766, 17.00000000000000000, 1.000000000000000000 ) ;
#790 = FACE_OUTER_BOUND ( 'NONE', #946, .T. ) ;
#791 = ORIENTED_EDGE ( 'NONE', *, *, #1109, .F. ) ;
#792 = CARTESIAN_POINT ( 'NONE',  ( 3.000000000000000000, -9.000000000000001776, -6.627416997969535650 ) ) ;
#793 = EDGE_CURVE ( 'NONE', #1011, #1011, #1209, .T. ) ;
#794 = FACE_OUTER_BOUND ( 'NONE', #117, .T. ) ;
#795 = LINE ( 'NONE', #530, #338 ) ;
#796 = ORIENTED_EDGE ( 'NONE', *, *, #726, .T. ) ;
#797 = CARTESIAN_POINT ( 'NONE',  ( -4.000000000000000000, 20.02691193458127117, 43.61269837220802259 ) ) ;
#798 = CARTESIAN_POINT ( 'NONE',  ( 3.000000000000000000, 19.31980515339472504, 44.31980515339457583 ) ) ;
#799 = EDGE_CURVE ( 'NONE', #1213, #838, #924, .T. ) ;
#800 = LINE ( 'NONE', #936, #1141 ) ;
#801 = ORIENTED_EDGE ( 'NONE', *, *, #20, .F. ) ;
#802 = COLOUR_RGB ( '',0.7921568627450980005, 0.8196078431372548767, 0.9333333333333333481 ) ;
#803 = CARTESIAN_POINT ( 'NONE',  ( -4.000000000000000000, -17.50000000000000000, -50.00000000000002132 ) ) ;
#804 = CARTESIAN_POINT ( 'NONE',  ( -5.000000000000003553, 24.58578643762690774, -36.00000000000002842 ) ) ;
#805 = AXIS2_PLACEMENT_3D ( 'NONE', #655, #1034, #681 ) ;
#806 = VERTEX_POINT ( 'NONE', #541 ) ;
#807 = CARTESIAN_POINT ( 'NONE',  ( 4.000000000000000000, -9.000000000000001776, -6.627416997969535650 ) ) ;
#808 = PLANE ( 'NONE',  #430 ) ;
#809 = DIRECTION ( 'NONE',  ( 1.000000000000000000, 0.000000000000000000, 0.000000000000000000 ) ) ;
#810 = ORIENTED_EDGE ( 'NONE', *, *, #876, .F. ) ;
#811 = ORIENTED_EDGE ( 'NONE', *, *, #772, .F. ) ;
#812 = CARTESIAN_POINT ( 'NONE',  ( -4.000000000000000000, -24.00000000000000000, -35.00000000000001421 ) ) ;
#813 = CARTESIAN_POINT ( 'NONE',  ( -3.999999999999998224, 25.00000000000000000, -36.41421356237312068 ) ) ;
#814 = DIRECTION ( 'NONE',  ( 0.000000000000000000, -0.000000000000000000, 1.000000000000000000 ) ) ;
#815 = ORIENTED_EDGE ( 'NONE', *, *, #900, .T. ) ;
#816 = VERTEX_POINT ( 'NONE', #364 ) ;
#817 = CARTESIAN_POINT ( 'NONE',  ( 4.000000000000000000, 31.81980515339468596, 26.81980515339458293 ) ) ;
#818 = LINE ( 'NONE', #727, #565 ) ;
#819 = CIRCLE ( 'NONE', #124, 1.000000000000000000 ) ;
#820 = CIRCLE ( 'NONE', #1100, 3.999999999999989786 ) ;
#821 = CARTESIAN_POINT ( 'NONE',  ( -5.000000000000000000, 23.99999999999999645, -100.0000000000000000 ) ) ;
#822 = ORIENTED_EDGE ( 'NONE', *, *, #1026, .F. ) ;
#823 = ORIENTED_EDGE ( 'NONE', *, *, #429, .T. ) ;
#824 = EDGE_CURVE ( 'NONE', #724, #1134, #215, .T. ) ;
#825 = DIRECTION ( 'NONE',  ( 1.000000000000000000, -0.000000000000000000, 0.000000000000000000 ) ) ;
#826 = CARTESIAN_POINT ( 'NONE',  ( -5.000000000000000000, -24.00000000000000000, -36.00000000000002132 ) ) ;
#827 = ORIENTED_EDGE ( 'NONE', *, *, #178, .T. ) ;
#828 = DIRECTION ( 'NONE',  ( 0.000000000000000000, 3.469446951953614189E-17, 1.000000000000000000 ) ) ;
#829 = CARTESIAN_POINT ( 'NONE',  ( 4.000000000000000000, -24.00000000000000000, -6.627416997969535650 ) ) ;
#830 = CARTESIAN_POINT ( 'NONE',  ( -4.585786437626905077, -25.00000000000000355, -36.17157287525383680 ) ) ;
#831 = DIRECTION ( 'NONE',  ( -0.000000000000000000, 3.469446951953614189E-17, 1.000000000000000000 ) ) ;
#832 = ORIENTED_EDGE ( 'NONE', *, *, #67, .T. ) ;
#833 = CARTESIAN_POINT ( 'NONE',  ( -5.000000000000000000, 17.50000000000000000, -100.0000000000000000 ) ) ;
#834 = DIRECTION ( 'NONE',  ( 1.000000000000000000, -0.000000000000000000, -0.000000000000000000 ) ) ;
#835 = DIRECTION ( 'NONE',  ( 0.000000000000000000, -0.7071067811865441310, 0.7071067811865510144 ) ) ;
#836 = VECTOR ( 'NONE', #554, 1000.000000000000000 ) ;
#837 = CIRCLE ( 'NONE', #320, 1.000000000000001332 ) ;
#838 = VERTEX_POINT ( 'NONE', #545 ) ;
#839 = VECTOR ( 'NONE', #518, 1000.000000000000000 ) ;
#840 = ORIENTED_EDGE ( 'NONE', *, *, #877, .T. ) ;
#841 = DIRECTION ( 'NONE',  ( 0.000000000000000000, -0.7071067811865487940, -0.7071067811865463515 ) ) ;
#842 = ORIENTED_EDGE ( 'NONE', *, *, #1024, .F. ) ;
#843 = CARTESIAN_POINT ( 'NONE',  ( -5.000000000000000000, -24.00000000000000000, 0.000000000000000000 ) ) ;
#844 = DIRECTION ( 'NONE',  ( 7.359808400080184030E-15, -0.7071067811865510144, -0.7071067811865440200 ) ) ;
#845 = EDGE_CURVE ( 'NONE', #838, #544, #76, .T. ) ;
#846 = ORIENTED_EDGE ( 'NONE', *, *, #992, .F. ) ;
#847 = DIRECTION ( 'NONE',  ( 0.000000000000000000, 0.7071067811865485719, 0.7071067811865464625 ) ) ;
#848 = VERTEX_POINT ( 'NONE', #633 ) ;
#849 = CARTESIAN_POINT ( 'NONE',  ( -4.000000000000000000, -24.00000000000000000, -100.0000000000000000 ) ) ;
#850 = FACE_OUTER_BOUND ( 'NONE', #718, .T. ) ;
#851 = ORIENTED_EDGE ( 'NONE', *, *, #857, .T. ) ;
#852 = EDGE_CURVE ( 'NONE', #1161, #153, #1122, .T. ) ;
#853 = DIRECTION ( 'NONE',  ( 0.000000000000000000, 0.000000000000000000, 1.000000000000000000 ) ) ;
#854 = EDGE_CURVE ( 'NONE', #1152, #441, #12, .T. ) ;
#855 = ORIENTED_EDGE ( 'NONE', *, *, #753, .F. ) ;
#856 = LINE ( 'NONE', #1064, #1124 ) ;
#857 = EDGE_CURVE ( 'NONE', #1204, #4, #66, .T. ) ;
#858 = AXIS2_PLACEMENT_3D ( 'NONE', #157, #1075, #435 ) ;
#859 = DIRECTION ( 'NONE',  ( 1.000000000000000000, -0.000000000000000000, 0.000000000000000000 ) ) ;
#860 = VERTEX_POINT ( 'NONE', #466 ) ;
#861 = VECTOR ( 'NONE', #140, 1000.000000000000000 ) ;
#862 = FACE_BOUND ( 'NONE', #751, .T. ) ;
#863 = CIRCLE ( 'NONE', #1021, 17.00000000000000000 ) ;
#864 = DIRECTION ( 'NONE',  ( -1.000000000000000000, 0.000000000000000000, -0.000000000000000000 ) ) ;
#865 = ORIENTED_EDGE ( 'NONE', *, *, #852, .T. ) ;
#866 = CARTESIAN_POINT ( 'NONE',  ( 4.000000000000000000, -12.49999999999995914, 12.50000000000000178 ) ) ;
#867 = ORIENTED_EDGE ( 'NONE', *, *, #419, .T. ) ;
#868 = CARTESIAN_POINT ( 'NONE',  ( -2.000000000000000000, -17.50000000000000000, -50.00000000000002132 ) ) ;
#869 = ADVANCED_FACE ( 'NONE', ( #460 ), #1025, .T. ) ;
#870 = FACE_OUTER_BOUND ( 'NONE', #886, .T. ) ;
#871 = ORIENTED_EDGE ( 'NONE', *, *, #674, .T. ) ;
#872 = CARTESIAN_POINT ( 'NONE',  ( -3.000000000000000000, 11.79289321881341834, -11.79289321881345209 ) ) ;
#873 = VERTEX_POINT ( 'NONE', #829 ) ;
#874 = DIRECTION ( 'NONE',  ( 1.000000000000000000, 0.000000000000000000, 0.000000000000000000 ) ) ;
#875 = CARTESIAN_POINT ( 'NONE',  ( -4.000000000000000000, -24.00000000000000000, -6.627416997969535650 ) ) ;
#876 = EDGE_CURVE ( 'NONE', #451, #1218, #285, .T. ) ;
#877 = EDGE_CURVE ( 'NONE', #422, #773, #449, .T. ) ;
#878 = EDGE_LOOP ( 'NONE', ( #78, #622, #114, #920 ) ) ;
#879 = EDGE_CURVE ( 'NONE', #773, #848, #818, .T. ) ;
#880 = VECTOR ( 'NONE', #657, 1000.000000000000000 ) ;
#881 = VECTOR ( 'NONE', #266, 1000.000000000000000 ) ;
#882 = CARTESIAN_POINT ( 'NONE',  ( 4.000000000000000000, 31.81980515339468596, 31.81980515339458293 ) ) ;
#883 = ORIENTED_EDGE ( 'NONE', *, *, #10, .F. ) ;
#884 = CARTESIAN_POINT ( 'NONE',  ( -4.000000000000000000, 31.81980515339468596, 31.81980515339458293 ) ) ;
#885 = CARTESIAN_POINT ( 'NONE',  ( -3.292893218813455203, 25.00000000000000000, -35.70710678118657455 ) ) ;
#886 = EDGE_LOOP ( 'NONE', ( #250 ) ) ;
#887 = FACE_OUTER_BOUND ( 'NONE', #225, .T. ) ;
#888 = DIRECTION ( 'NONE',  ( 0.000000000000000000, 0.000000000000000000, -1.000000000000000000 ) ) ;
#889 = CARTESIAN_POINT ( 'NONE',  ( -2.000000000000000000, -17.50000000000000000, -100.0000000000000000 ) ) ;
#890 = ORIENTED_EDGE ( 'NONE', *, *, #1201, .T. ) ;
#891 = EDGE_CURVE ( 'NONE', #481, #1204, #1012, .T. ) ;
#892 = EDGE_CURVE ( 'NONE', #816, #590, #392, .T. ) ;
#893 = DIRECTION ( 'NONE',  ( 0.000000000000000000, 0.000000000000000000, -1.000000000000000000 ) ) ;
#894 = ORIENTED_EDGE ( 'NONE', *, *, #419, .F. ) ;
#895 = AXIS2_PLACEMENT_3D ( 'NONE', #969, #1173, #136 ) ;
#896 = DIRECTION ( 'NONE',  ( 0.000000000000000000, 0.7071067811865454633, -0.7071067811865497932 ) ) ;
#897 = AXIS2_PLACEMENT_3D ( 'NONE', #42, #1172, #493 ) ;
#898 = CARTESIAN_POINT ( 'NONE',  ( -2.000000000000000000, -17.50000000000000000, -100.0000000000000000 ) ) ;
#899 = VECTOR ( 'NONE', #182, 1000.000000000000000 ) ;
#900 = EDGE_CURVE ( 'NONE', #636, #32, #1114, .T. ) ;
#901 = ORIENTED_EDGE ( 'NONE', *, *, #482, .F. ) ;
#902 = ORIENTED_EDGE ( 'NONE', *, *, #877, .F. ) ;
#903 = VERTEX_POINT ( 'NONE', #928 ) ;
#904 = CARTESIAN_POINT ( 'NONE',  ( -4.000000000000000000, 28.97918471982870869, 5.393398282201786742 ) ) ;
#905 = DIRECTION ( 'NONE',  ( 0.000000000000000000, 8.163404592832032979E-16, -1.000000000000000000 ) ) ;
#906 = VERTEX_POINT ( 'NONE', #381 ) ;
#907 = VERTEX_POINT ( 'NONE', #1219 ) ;
#908 = DIRECTION ( 'NONE',  ( 0.000000000000000000, 0.000000000000000000, 1.000000000000000000 ) ) ;
#909 = CARTESIAN_POINT ( 'NONE',  ( -3.000000000000000000, -25.00000000000000000, 0.000000000000000000 ) ) ;
#910 = EDGE_LOOP ( 'NONE', ( #318, #956, #26, #144 ) ) ;
#911 = VERTEX_POINT ( 'NONE', #752 ) ;
#912 = VERTEX_POINT ( 'NONE', #1200 ) ;
#913 = AXIS2_PLACEMENT_3D ( 'NONE', #736, #931, #468 ) ;
#914 = CARTESIAN_POINT ( 'NONE',  ( 4.000000000000000000, 0.000000000000000000, -20.00000000000000000 ) ) ;
#915 = VECTOR ( 'NONE', #360, 999.9999999999998863 ) ;
#916 = CIRCLE ( 'NONE', #785, 4.999999999999997335 ) ;
#917 = CARTESIAN_POINT ( 'NONE',  ( 3.000000000000000000, 41.00000000000000000, -6.627416997969537427 ) ) ;
#918 = CIRCLE ( 'NONE', #323, 15.00000000000000178 ) ;
#919 = AXIS2_PLACEMENT_3D ( 'NONE', #91, #175, #1017 ) ;
#920 = ORIENTED_EDGE ( 'NONE', *, *, #759, .F. ) ;
#921 = LINE ( 'NONE', #738, #61 ) ;
#922 = ADVANCED_FACE ( 'NONE', ( #862, #765, #385, #1046, #1163 ), #399, .T. ) ;
#923 = EDGE_CURVE ( 'NONE', #848, #933, #490, .T. ) ;
#924 = LINE ( 'NONE', #370, #899 ) ;
#925 = DIRECTION ( 'NONE',  ( -0.000000000000000000, -0.000000000000000000, -1.000000000000000000 ) ) ;
#926 = ORIENTED_EDGE ( 'NONE', *, *, #627, .T. ) ;
#927 = ORIENTED_EDGE ( 'NONE', *, *, #314, .T. ) ;
#928 = CARTESIAN_POINT ( 'NONE',  ( -4.000000000000000000, 0.000000000000000000, -25.00000000000000000 ) ) ;
#929 = CARTESIAN_POINT ( 'NONE',  ( -4.000000000000001776, -24.58578643762690774, -35.00000000000002132 ) ) ;
#930 = DIRECTION ( 'NONE',  ( -0.000000000000000000, 0.7071067811865486830, 0.7071067811865464625 ) ) ;
#931 = DIRECTION ( 'NONE',  ( 1.000000000000000000, -0.000000000000000000, 0.000000000000000000 ) ) ;
#932 = EDGE_CURVE ( 'NONE', #262, #773, #774, .T. ) ;
#933 = VERTEX_POINT ( 'NONE', #589 ) ;
#934 = DIRECTION ( 'NONE',  ( 0.000000000000000000, 0.000000000000000000, -1.000000000000000000 ) ) ;
#935 = VECTOR ( 'NONE', #520, 999.9999999999998863 ) ;
#936 = CARTESIAN_POINT ( 'NONE',  ( -4.000000000000000000, -9.714451465470126040E-15, -35.00000000000002132 ) ) ;
#937 = AXIS2_PLACEMENT_3D ( 'NONE', #748, #561, #647 ) ;
#938 = EDGE_CURVE ( 'NONE', #848, #911, #492, .T. ) ;
#939 = EDGE_CURVE ( 'NONE', #1054, #693, #957, .T. ) ;
#940 = FACE_OUTER_BOUND ( 'NONE', #202, .T. ) ;
#941 = AXIS2_PLACEMENT_3D ( 'NONE', #872, #847, #21 ) ;
#942 = ORIENTED_EDGE ( 'NONE', *, *, #408, .T. ) ;
#943 = DIRECTION ( 'NONE',  ( 0.000000000000000000, -0.7071067811865463515, 0.7071067811865487940 ) ) ;
#944 = ORIENTED_EDGE ( 'NONE', *, *, #245, .F. ) ;
#945 = DIRECTION ( 'NONE',  ( 0.000000000000000000, 1.000000000000000000, 0.000000000000000000 ) ) ;
#946 = EDGE_LOOP ( 'NONE', ( #550 ) ) ;
#947 = ORIENTED_EDGE ( 'NONE', *, *, #375, .F. ) ;
#948 = DIRECTION ( 'NONE',  ( 0.000000000000000000, 0.000000000000000000, -1.000000000000000000 ) ) ;
#949 = EDGE_LOOP ( 'NONE', ( #351, #1003, #373, #486 ) ) ;
#950 = CYLINDRICAL_SURFACE ( 'NONE', #44, 1.000000000000000888 ) ;
#951 = DIRECTION ( 'NONE',  ( -0.7071067811865462405, 0.000000000000000000, -0.7071067811865489050 ) ) ;
#952 = ORIENTED_EDGE ( 'NONE', *, *, #793, .T. ) ;
#953 = CARTESIAN_POINT ( 'NONE',  ( -4.000000000000000000, -25.00000000000000000, 0.000000000000000000 ) ) ;
#954 = DIRECTION ( 'NONE',  ( 0.000000000000000000, 8.321179276955212252E-16, -1.000000000000000000 ) ) ;
#955 = DIRECTION ( 'NONE',  ( 0.000000000000000000, 0.000000000000000000, -1.000000000000000000 ) ) ;
#956 = ORIENTED_EDGE ( 'NONE', *, *, #845, .F. ) ;
#957 = CIRCLE ( 'NONE', #7, 1.000000000000001332 ) ;
#958 = AXIS2_PLACEMENT_3D ( 'NONE', #514, #782, #955 ) ;
#959 = CARTESIAN_POINT ( 'NONE',  ( -4.000000000000000000, 23.99999999999999645, -100.0000000000000000 ) ) ;
#960 = ADVANCED_FACE ( 'NONE', ( #134 ), #1151, .T. ) ;
#961 = CARTESIAN_POINT ( 'NONE',  ( -3.000000000000000000, 25.00000000000000000, -35.41421356237312068 ) ) ;
#962 = CARTESIAN_POINT ( 'NONE',  ( -5.000000000000000000, 17.50000000000000000, -100.0000000000000000 ) ) ;
#963 = APPLICATION_PROTOCOL_DEFINITION ( 'draft international standard', 'automotive_design', 1998, #1110 ) ;
#964 = ORIENTED_EDGE ( 'NONE', *, *, #401, .F. ) ;
#965 = DIRECTION ( 'NONE',  ( 0.000000000000000000, -3.469446951953614189E-17, -1.000000000000000000 ) ) ;
#966 = ADVANCED_FACE ( 'NONE', ( #1156 ), #110, .T. ) ;
#967 = ORIENTED_EDGE ( 'NONE', *, *, #108, .T. ) ;
#968 = CARTESIAN_POINT ( 'NONE',  ( -2.000000000000000000, 0.000000000000000000, -65.00000000000000000 ) ) ;
#969 = CARTESIAN_POINT ( 'NONE',  ( -4.000000000000000000, -9.714451465470126040E-15, -35.00000000000002132 ) ) ;
#970 = ORIENTED_EDGE ( 'NONE', *, *, #327, .F. ) ;
#971 = DIRECTION ( 'NONE',  ( -0.000000000000000000, -0.000000000000000000, -1.000000000000000000 ) ) ;
#972 = EDGE_LOOP ( 'NONE', ( #654, #249, #593, #464 ) ) ;
#973 = DIRECTION ( 'NONE',  ( 1.000000000000000000, -0.000000000000000000, -0.000000000000000000 ) ) ;
#974 = CYLINDRICAL_SURFACE ( 'NONE', #104, 1.000000000000000000 ) ;
#975 = AXIS2_PLACEMENT_3D ( 'NONE', #236, #1192, #64 ) ;
#976 = ORIENTED_EDGE ( 'NONE', *, *, #1044, .T. ) ;
#977 = AXIS2_PLACEMENT_3D ( 'NONE', #677, #135, #591 ) ;
#978 = AXIS2_PLACEMENT_3D ( 'NONE', #156, #1196, #715 ) ;
#979 = DIRECTION ( 'NONE',  ( -0.000000000000000000, 6.938893903907230843E-17, -1.000000000000000000 ) ) ;
#980 = CIRCLE ( 'NONE', #1002, 0.9999999999999994449 ) ;
#981 = CARTESIAN_POINT ( 'NONE',  ( 3.000000000000000000, -20.31370849898474162, 4.686291501015245053 ) ) ;
#982 = LINE ( 'NONE', #1179, #1121 ) ;
#983 = ADVANCED_FACE ( 'NONE', ( #504 ), #391, .T. ) ;
#984 = ORIENTED_EDGE ( 'NONE', *, *, #502, .F. ) ;
#985 = ADVANCED_FACE ( 'NONE', ( #297 ), #298, .T. ) ;
#986 = CARTESIAN_POINT ( 'NONE',  ( -4.000000000000000000, 24.58578643762690774, -35.00000000000002132 ) ) ;
#987 = LINE ( 'NONE', #252, #321 ) ;
#988 = CARTESIAN_POINT ( 'NONE',  ( -2.000000000000000000, 17.49999999999999645, -50.00000000000002132 ) ) ;
#989 = ORIENTED_EDGE ( 'NONE', *, *, #695, .F. ) ;
#990 = CARTESIAN_POINT ( 'NONE',  ( -3.000000000000000000, -19.60660171779819549, 3.979184719828696704 ) ) ;
#991 = CARTESIAN_POINT ( 'NONE',  ( -3.000000000000000000, 41.00000000000000000, -6.627416997969537427 ) ) ;
#992 = EDGE_CURVE ( 'NONE', #368, #933, #663, .T. ) ;
#993 = FACE_OUTER_BOUND ( 'NONE', #1090, .T. ) ;
#994 = VECTOR ( 'NONE', #771, 1000.000000000000000 ) ;
#995 = ORIENTED_EDGE ( 'NONE', *, *, #1130, .F. ) ;
#996 = FACE_OUTER_BOUND ( 'NONE', #273, .T. ) ;
#997 = VECTOR ( 'NONE', #439, 999.9999999999998863 ) ;
#998 = EDGE_CURVE ( 'NONE', #693, #1161, #1147, .T. ) ;
#999 = LINE ( 'NONE', #1202, #531 ) ;
#1000 = VECTOR ( 'NONE', #701, 1000.000000000000000 ) ;
#1001 = CARTESIAN_POINT ( 'NONE',  ( -4.000000000000000000, -24.00000000000000000, 0.000000000000000000 ) ) ;
#1002 = AXIS2_PLACEMENT_3D ( 'NONE', #990, #615, #896 ) ;
#1003 = ORIENTED_EDGE ( 'NONE', *, *, #1024, .T. ) ;
#1004 = VERTEX_POINT ( 'NONE', #315 ) ;
#1005 = LINE ( 'NONE', #833, #746 ) ;
#1006 = CARTESIAN_POINT ( 'NONE',  ( -2.999999999999998224, -25.00000000000000000, -35.41421356237311358 ) ) ;
#1007 = CARTESIAN_POINT ( 'NONE',  ( 3.000000000000000000, -24.00000000000000000, -6.627416997969535650 ) ) ;
#1008 = ADVANCED_FACE ( 'NONE', ( #1041, #497, #33 ), #570, .T. ) ;
#1009 = EDGE_LOOP ( 'NONE', ( #309, #1176, #304, #584, #1170, #398, #754, #827 ) ) ;
#1010 = ORIENTED_EDGE ( 'NONE', *, *, #569, .T. ) ;
#1011 = VERTEX_POINT ( 'NONE', #82 ) ;
#1012 = LINE ( 'NONE', #171, #721 ) ;
#1013 = CARTESIAN_POINT ( 'NONE',  ( 4.000000000000000000, 43.61269837220809364, 20.02691193458113617 ) ) ;
#1014 = DIRECTION ( 'NONE',  ( 0.000000000000000000, 1.000000000000000000, -3.469446951953614189E-17 ) ) ;
#1015 = EDGE_CURVE ( 'NONE', #806, #1218, #206, .T. ) ;
#1016 = EDGE_LOOP ( 'NONE', ( #294, #1187, #15, #432 ) ) ;
#1017 = DIRECTION ( 'NONE',  ( 0.000000000000000000, 0.000000000000000000, -1.000000000000000000 ) ) ;
#1018 = CIRCLE ( 'NONE', #616, 1.000000000000000000 ) ;
#1019 = DIRECTION ( 'NONE',  ( 0.000000000000000000, 0.000000000000000000, -1.000000000000000000 ) ) ;
#1020 = CARTESIAN_POINT ( 'NONE',  ( -2.999999999999998224, -25.00000000000000000, -35.41421356237311358 ) ) ;
#1021 = AXIS2_PLACEMENT_3D ( 'NONE', #625, #1214, #459 ) ;
#1022 = ORIENTED_EDGE ( 'NONE', *, *, #1162, .F. ) ;
#1023 =( NAMED_UNIT ( * ) PLANE_ANGLE_UNIT ( ) SI_UNIT ( $, .RADIAN. ) );
#1024 = EDGE_CURVE ( 'NONE', #403, #1004, #779, .T. ) ;
#1025 = CYLINDRICAL_SURFACE ( 'NONE', #618, 1.000000000000000888 ) ;
#1026 = EDGE_CURVE ( 'NONE', #1204, #74, #787, .T. ) ;
#1027 = LINE ( 'NONE', #272, #122 ) ;
#1028 = CARTESIAN_POINT ( 'NONE',  ( 4.000000000000000000, -25.00000000000000000, 0.000000000000000000 ) ) ;
#1029 = ORIENTED_EDGE ( 'NONE', *, *, #643, .T. ) ;
#1030 = CARTESIAN_POINT ( 'NONE',  ( -3.585786437626906409, -25.00000000000000000, -35.17157287525382969 ) ) ;
#1031 = DIRECTION ( 'NONE',  ( -0.7071067811865462405, -2.453269466693403859E-17, -0.7071067811865489050 ) ) ;
#1032 = DIRECTION ( 'NONE',  ( -0.000000000000000000, -0.000000000000000000, -1.000000000000000000 ) ) ;
#1033 = EDGE_LOOP ( 'NONE', ( #543, #822, #851, #894 ) ) ;
#1034 = DIRECTION ( 'NONE',  ( -0.000000000000000000, -0.000000000000000000, -1.000000000000000000 ) ) ;
#1035 =( GEOMETRIC_REPRESENTATION_CONTEXT ( 3 ) GLOBAL_UNCERTAINTY_ASSIGNED_CONTEXT ( ( #515 ) ) GLOBAL_UNIT_ASSIGNED_CONTEXT ( ( #168, #440, #248 ) ) REPRESENTATION_CONTEXT ( 'NONE', 'WORKASPACE' ) );
#1036 = CARTESIAN_POINT ( 'NONE',  ( 4.000000000000000000, 24.00000000000000000, -6.627416997969536538 ) ) ;
#1037 = CIRCLE ( 'NONE', #660, 1.000000000000000000 ) ;
#1038 = VECTOR ( 'NONE', #536, 1000.000000000000000 ) ;
#1039 = ORIENTED_EDGE ( 'NONE', *, *, #526, .F. ) ;
#1040 = ORIENTED_EDGE ( 'NONE', *, *, #314, .F. ) ;
#1041 = FACE_BOUND ( 'NONE', #764, .T. ) ;
#1042 = DIRECTION ( 'NONE',  ( 0.000000000000000000, 0.000000000000000000, 1.000000000000000000 ) ) ;
#1043 = CARTESIAN_POINT ( 'NONE',  ( 18.20710678118654613, 24.00000000000000000, -14.20710678118649639 ) ) ;
#1044 = EDGE_CURVE ( 'NONE', #257, #873, #918, .T. ) ;
#1045 = EDGE_LOOP ( 'NONE', ( #927, #679, #744, #722, #479, #580 ) ) ;
#1046 = FACE_BOUND ( 'NONE', #196, .T. ) ;
#1047 = ORIENTED_EDGE ( 'NONE', *, *, #500, .T. ) ;
#1048 = CARTESIAN_POINT ( 'NONE',  ( -4.000000000000000000, 24.00000000000000000, -6.627416997969536538 ) ) ;
#1049 = CYLINDRICAL_SURFACE ( 'NONE', #1057, 1.000000000000000000 ) ;
#1050 = EDGE_LOOP ( 'NONE', ( #855, #1198, #306, #81 ) ) ;
#1051 = EDGE_CURVE ( 'NONE', #613, #32, #228, .T. ) ;
#1052 = CARTESIAN_POINT ( 'NONE',  ( 4.000000000000000000, -9.000000000000001776, -6.627416997969535650 ) ) ;
#1053 = EDGE_CURVE ( 'NONE', #737, #544, #728, .T. ) ;
#1054 = VERTEX_POINT ( 'NONE', #326 ) ;
#1055 = FACE_OUTER_BOUND ( 'NONE', #46, .T. ) ;
#1056 = AXIS2_PLACEMENT_3D ( 'NONE', #485, #859, #24 ) ;
#1057 = AXIS2_PLACEMENT_3D ( 'NONE', #209, #587, #578 ) ;
#1058 = CYLINDRICAL_SURFACE ( 'NONE', #173, 3.999999999999989786 ) ;
#1059 = AXIS2_PLACEMENT_3D ( 'NONE', #387, #567, #769 ) ;
#1060 = EDGE_LOOP ( 'NONE', ( #810, #1174, #95, #867, #967, #1063 ) ) ;
#1061 = AXIS2_PLACEMENT_3D ( 'NONE', #69, #147, #151 ) ;
#1062 = DIRECTION ( 'NONE',  ( -1.000000000000000000, 0.000000000000000000, -0.000000000000000000 ) ) ;
#1063 = ORIENTED_EDGE ( 'NONE', *, *, #1015, .T. ) ;
#1064 = CARTESIAN_POINT ( 'NONE',  ( 4.000000000000000000, -24.00000000000000000, -100.0000000000000000 ) ) ;
#1065 = FACE_OUTER_BOUND ( 'NONE', #524, .T. ) ;
#1066 = VERTEX_POINT ( 'NONE', #797 ) ;
#1067 = DIRECTION ( 'NONE',  ( 0.000000000000000000, 1.000000000000000000, 0.000000000000000000 ) ) ;
#1068 = ORIENTED_EDGE ( 'NONE', *, *, #1216, .T. ) ;
#1069 = DIRECTION ( 'NONE',  ( 1.000000000000000000, 0.000000000000000000, 0.000000000000000000 ) ) ;
#1070 = CARTESIAN_POINT ( 'NONE',  ( -5.000000000000000000, 23.99999999999999645, -100.0000000000000000 ) ) ;
#1071 = ORIENTED_EDGE ( 'NONE', *, *, #397, .T. ) ;
#1072 = CARTESIAN_POINT ( 'NONE',  ( -3.585786437626905077, 25.00000000000000000, -35.17157287525382969 ) ) ;
#1073 = LINE ( 'NONE', #52, #471 ) ;
#1074 = ADVANCED_FACE ( 'NONE', ( #887 ), #393, .T. ) ;
#1075 = DIRECTION ( 'NONE',  ( -0.7071067811865462405, 0.000000000000000000, -0.7071067811865487940 ) ) ;
#1076 = ORIENTED_EDGE ( 'NONE', *, *, #992, .T. ) ;
#1077 = CIRCLE ( 'NONE', #700, 1.000000000000001332 ) ;
#1078 = ADVANCED_FACE ( 'NONE', ( #1081 ), #138, .T. ) ;
#1079 = VECTOR ( 'NONE', #965, 1000.000000000000000 ) ;
#1080 = VECTOR ( 'NONE', #691, 1000.000000000000000 ) ;
#1081 = FACE_OUTER_BOUND ( 'NONE', #910, .T. ) ;
#1082 = CIRCLE ( 'NONE', #179, 3.999999999999989786 ) ;
#1083 = FACE_OUTER_BOUND ( 'NONE', #498, .T. ) ;
#1084 =( GEOMETRIC_REPRESENTATION_CONTEXT ( 3 ) GLOBAL_UNCERTAINTY_ASSIGNED_CONTEXT ( ( #389 ) ) GLOBAL_UNIT_ASSIGNED_CONTEXT ( ( #75, #1023, #465 ) ) REPRESENTATION_CONTEXT ( 'NONE', 'WORKASPACE' ) );
#1085 = ORIENTED_EDGE ( 'NONE', *, *, #854, .F. ) ;
#1086 = FACE_OUTER_BOUND ( 'NONE', #661, .T. ) ;
#1087 = DIRECTION ( 'NONE',  ( -0.000000000000000000, 3.469446951953614189E-17, 1.000000000000000000 ) ) ;
#1088 = DIRECTION ( 'NONE',  ( -1.000000000000000000, 0.000000000000000000, 0.000000000000000000 ) ) ;
#1089 = APPLICATION_CONTEXT ( 'automotive_design' ) ;
#1090 = EDGE_LOOP ( 'NONE', ( #675, #129, #687, #413 ) ) ;
#1091 = EDGE_CURVE ( 'NONE', #218, #911, #1093, .T. ) ;
#1092 = ORIENTED_EDGE ( 'NONE', *, *, #237, .T. ) ;
#1093 = LINE ( 'NONE', #688, #704 ) ;
#1094 = DIRECTION ( 'NONE',  ( 0.000000000000000000, -0.000000000000000000, 1.000000000000000000 ) ) ;
#1095 = CYLINDRICAL_SURFACE ( 'NONE', #1167, 1.000000000000000000 ) ;
#1096 = ORIENTED_EDGE ( 'NONE', *, *, #1117, .T. ) ;
#1097 = PRESENTATION_LAYER_ASSIGNMENT (  '', '', ( #274 ) ) ;
#1098 = ORIENTED_EDGE ( 'NONE', *, *, #667, .F. ) ;
#1099 = CIRCLE ( 'NONE', #488, 0.9999999999999988898 ) ;
#1100 = AXIS2_PLACEMENT_3D ( 'NONE', #130, #406, #22 ) ;
#1101 = DIRECTION ( 'NONE',  ( 1.000000000000000000, -0.000000000000000000, 0.000000000000000000 ) ) ;
#1102 = CIRCLE ( 'NONE', #47, 3.999999999999989786 ) ;
#1103 = DIRECTION ( 'NONE',  ( -1.000000000000000000, 0.000000000000000000, 0.000000000000000000 ) ) ;
#1104 = AXIS2_PLACEMENT_3D ( 'NONE', #551, #540, #650 ) ;
#1105 = VERTEX_POINT ( 'NONE', #224 ) ;
#1106 = ORIENTED_EDGE ( 'NONE', *, *, #1053, .F. ) ;
#1107 = PRODUCT_CONTEXT ( 'NONE', #1089, 'mechanical' ) ;
#1108 = DIRECTION ( 'NONE',  ( 0.000000000000000000, -3.469446951953614189E-17, -1.000000000000000000 ) ) ;
#1109 = EDGE_CURVE ( 'NONE', #1152, #352, #301, .T. ) ;
#1110 = APPLICATION_CONTEXT ( 'automotive_design' ) ;
#1111 = CARTESIAN_POINT ( 'NONE',  ( -5.000000000000000000, -24.00000000000000000, -100.0000000000000000 ) ) ;
#1112 = FACE_OUTER_BOUND ( 'NONE', #1116, .T. ) ;
#1113 = ORIENTED_EDGE ( 'NONE', *, *, #401, .T. ) ;
#1114 = LINE ( 'NONE', #305, #1079 ) ;
#1115 = CARTESIAN_POINT ( 'NONE',  ( -4.000000000000000888, -25.00000000000000000, -36.41421356237312068 ) ) ;
#1116 = EDGE_LOOP ( 'NONE', ( #16, #832, #205, #710, #1085, #311, #823, #264, #1194, #165, #109, #1076, #255, #1199 ) ) ;
#1117 = EDGE_CURVE ( 'NONE', #737, #403, #1181, .T. ) ;
#1118 = ADVANCED_FACE ( 'NONE', ( #699 ), #789, .T. ) ;
#1119 = ORIENTED_EDGE ( 'NONE', *, *, #442, .F. ) ;
#1120 = VERTEX_POINT ( 'NONE', #363 ) ;
#1121 = VECTOR ( 'NONE', #703, 1000.000000000000000 ) ;
#1122 = LINE ( 'NONE', #739, #415 ) ;
#1123 = AXIS2_PLACEMENT_3D ( 'NONE', #968, #395, #1042 ) ;
#1124 = VECTOR ( 'NONE', #1166, 1000.000000000000000 ) ;
#1125 = PLANE ( 'NONE',  #937 ) ;
#1126 = DIRECTION ( 'NONE',  ( 0.000000000000000000, 0.000000000000000000, -1.000000000000000000 ) ) ;
#1127 = PRODUCT_DEFINITION_FORMATION_WITH_SPECIFIED_SOURCE ( 'Symmetric', '', #780, .NOT_KNOWN. ) ;
#1128 = ORIENTED_EDGE ( 'NONE', *, *, #408, .F. ) ;
#1129 = DIRECTION ( 'NONE',  ( 0.000000000000000000, 1.000000000000000000, -3.469446951953614189E-17 ) ) ;
#1130 = EDGE_CURVE ( 'NONE', #907, #907, #1102, .T. ) ;
#1131 = DIRECTION ( 'NONE',  ( 0.000000000000000000, -1.000000000000000000, -6.938893903907228378E-17 ) ) ;
#1132 = LINE ( 'NONE', #652, #141 ) ;
#1133 = DIRECTION ( 'NONE',  ( 0.000000000000000000, 0.000000000000000000, 1.000000000000000000 ) ) ;
#1134 = VERTEX_POINT ( 'NONE', #150 ) ;
#1135 = ADVANCED_FACE ( 'NONE', ( #1086 ), #251, .T. ) ;
#1136 = DIRECTION ( 'NONE',  ( 0.000000000000000000, 0.000000000000000000, -1.000000000000000000 ) ) ;
#1137 = DIRECTION ( 'NONE',  ( 1.000000000000000000, 0.000000000000000000, 0.000000000000000000 ) ) ;
#1138 = DIRECTION ( 'NONE',  ( -1.000000000000000000, 0.000000000000000000, 0.000000000000000000 ) ) ;
#1139 = EDGE_LOOP ( 'NONE', ( #1155 ) ) ;
#1140 = CARTESIAN_POINT ( 'NONE',  ( 3.000000000000000000, 20.02691193458127472, 43.61269837220802970 ) ) ;
#1141 = VECTOR ( 'NONE', #474, 1000.000000000000000 ) ;
#1142 = ORIENTED_EDGE ( 'NONE', *, *, #824, .T. ) ;
#1143 = CARTESIAN_POINT ( 'NONE',  ( 3.000000000000000000, -9.000000000000001776, -6.627416997969535650 ) ) ;
#1144 = CIRCLE ( 'NONE', #1061, 17.67766952966365324 ) ;
#1145 = EDGE_CURVE ( 'NONE', #816, #384, #980, .T. ) ;
#1146 = CARTESIAN_POINT ( 'NONE',  ( 18.20710678118654613, -25.00000000000000000, -14.20710678118649462 ) ) ;
#1147 = CIRCLE ( 'NONE', #533, 17.67766952966365324 ) ;
#1148 = PRODUCT_DEFINITION_CONTEXT ( 'detailed design', #1110, 'design' ) ;
#1149 = CIRCLE ( 'NONE', #919, 16.67766952966365324 ) ;
#1150 = EDGE_LOOP ( 'NONE', ( #871 ) ) ;
#1151 = PLANE ( 'NONE',  #1211 ) ;
#1152 = VERTEX_POINT ( 'NONE', #60 ) ;
#1153 = CARTESIAN_POINT ( 'NONE',  ( -2.000000000000000000, 17.50000000000000000, -100.0000000000000000 ) ) ;
#1154 = FACE_OUTER_BOUND ( 'NONE', #705, .T. ) ;
#1155 = ORIENTED_EDGE ( 'NONE', *, *, #793, .F. ) ;
#1156 = FACE_OUTER_BOUND ( 'NONE', #409, .T. ) ;
#1157 =( BOUNDED_CURVE ( )  B_SPLINE_CURVE ( 3, ( #416, #142, #31, #1159 ),
 .UNSPECIFIED., .F., .F. ) 
 B_SPLINE_CURVE_WITH_KNOTS ( ( 4, 4 ),
 ( 3.141592653589793116, 4.712388980384689674 ),
 .UNSPECIFIED. ) 
 CURVE ( )  GEOMETRIC_REPRESENTATION_ITEM ( )  RATIONAL_B_SPLINE_CURVE ( ( 1.000000000000000000, 0.8047378541243649375, 0.8047378541243649375, 1.000000000000000000 ) ) 
 REPRESENTATION_ITEM ( '' )  );
#1158 = LINE ( 'NONE', #898, #582 ) ;
#1159 = CARTESIAN_POINT ( 'NONE',  ( -5.000000000000000000, 18.50000000000000000, -49.00000000000002132 ) ) ;
#1160 = ADVANCED_FACE ( 'NONE', ( #996 ), #279, .T. ) ;
#1161 = VERTEX_POINT ( 'NONE', #535 ) ;
#1162 = EDGE_CURVE ( 'NONE', #390, #1054, #1149, .T. ) ;
#1163 = FACE_OUTER_BOUND ( 'NONE', #608, .T. ) ;
#1164 = EDGE_CURVE ( 'NONE', #170, #170, #1082, .T. ) ;
#1165 = ORIENTED_EDGE ( 'NONE', *, *, #71, .F. ) ;
#1166 = DIRECTION ( 'NONE',  ( 0.000000000000000000, 0.000000000000000000, -1.000000000000000000 ) ) ;
#1167 = AXIS2_PLACEMENT_3D ( 'NONE', #1001, #814, #809 ) ;
#1168 = DIRECTION ( 'NONE',  ( 1.000000000000000000, 0.000000000000000000, 0.000000000000000000 ) ) ;
#1169 = VECTOR ( 'NONE', #359, 1000.000000000000000 ) ;
#1170 = ORIENTED_EDGE ( 'NONE', *, *, #854, .T. ) ;
#1171 = ORIENTED_EDGE ( 'NONE', *, *, #1130, .T. ) ;
#1172 = DIRECTION ( 'NONE',  ( 0.000000000000000000, 0.7071067811865487940, 0.7071067811865463515 ) ) ;
#1173 = DIRECTION ( 'NONE',  ( -0.7071067811865489050, 1.962615573354714952E-16, 0.7071067811865462405 ) ) ;
#1174 = ORIENTED_EDGE ( 'NONE', *, *, #229, .T. ) ;
#1175 = DIRECTION ( 'NONE',  ( 1.000000000000000000, -0.000000000000000000, 0.000000000000000000 ) ) ;
#1176 = ORIENTED_EDGE ( 'NONE', *, *, #799, .T. ) ;
#1177 = EDGE_CURVE ( 'NONE', #1134, #636, #863, .T. ) ;
#1178 = DIRECTION ( 'NONE',  ( 0.000000000000000000, 0.000000000000000000, -1.000000000000000000 ) ) ;
#1179 = CARTESIAN_POINT ( 'NONE',  ( 3.000000000000000000, -25.00000000000000000, -6.627416997969535650 ) ) ;
#1180 = ORIENTED_EDGE ( 'NONE', *, *, #1164, .F. ) ;
#1181 = LINE ( 'NONE', #601, #106 ) ;
#1182 = LINE ( 'NONE', #428, #1000 ) ;
#1183 = EDGE_CURVE ( 'NONE', #153, #724, #921, .T. ) ;
#1184 = ADVANCED_FACE ( 'NONE', ( #68 ), #284, .T. ) ;
#1185 = SURFACE_STYLE_FILL_AREA ( #53 ) ;
#1186 = AXIS2_PLACEMENT_3D ( 'NONE', #163, #1197, #58 ) ;
#1187 = ORIENTED_EDGE ( 'NONE', *, *, #229, .F. ) ;
#1188 = AXIS2_PLACEMENT_3D ( 'NONE', #523, #1094, #1069 ) ;
#1189 = DIRECTION ( 'NONE',  ( -0.000000000000000000, 1.000000000000000000, 0.000000000000000000 ) ) ;
#1190 = VECTOR ( 'NONE', #632, 1000.000000000000000 ) ;
#1191 = CARTESIAN_POINT ( 'NONE',  ( -5.000000000000000000, 24.00000000000000000, -36.00000000000002842 ) ) ;
#1192 = DIRECTION ( 'NONE',  ( 1.000000000000000000, -0.000000000000000000, 0.000000000000000000 ) ) ;
#1193 = EDGE_CURVE ( 'NONE', #368, #1213, #1005, .T. ) ;
#1194 = ORIENTED_EDGE ( 'NONE', *, *, #198, .F. ) ;
#1195 = DIRECTION ( 'NONE',  ( 1.000000000000000000, -0.000000000000000000, -0.000000000000000000 ) ) ;
#1196 = DIRECTION ( 'NONE',  ( 0.000000000000000000, 1.000000000000000000, 6.938893903907230843E-17 ) ) ;
#1197 = DIRECTION ( 'NONE',  ( 1.000000000000000000, 0.000000000000000000, 0.000000000000000000 ) ) ;
#1198 = ORIENTED_EDGE ( 'NONE', *, *, #891, .T. ) ;
#1199 = ORIENTED_EDGE ( 'NONE', *, *, #938, .T. ) ;
#1200 = CARTESIAN_POINT ( 'NONE',  ( -2.000000000000000000, 0.000000000000000000, -61.00000000000001421 ) ) ;
#1201 = EDGE_CURVE ( 'NONE', #816, #689, #186, .T. ) ;
#1202 = CARTESIAN_POINT ( 'NONE',  ( -5.000000000000000000, -9.992007221626415175E-15, -36.00000000000002842 ) ) ;
#1203 = CYLINDRICAL_SURFACE ( 'NONE', #1186, 16.00000000000000000 ) ;
#1204 = VERTEX_POINT ( 'NONE', #812 ) ;
#1205 = VECTOR ( 'NONE', #755, 1000.000000000000000 ) ;
#1206 = VECTOR ( 'NONE', #94, 1000.000000000000000 ) ;
#1207 = ORIENTED_EDGE ( 'NONE', *, *, #569, .F. ) ;
#1208 = DIRECTION ( 'NONE',  ( 0.000000000000000000, 0.000000000000000000, 1.000000000000000000 ) ) ;
#1209 = CIRCLE ( 'NONE', #662, 5.000000000000000888 ) ;
#1210 = CARTESIAN_POINT ( 'NONE',  ( -3.000000000000000000, -11.79289321881341657, 11.79289321881345565 ) ) ;
#1211 = AXIS2_PLACEMENT_3D ( 'NONE', #866, #943, #670 ) ;
#1212 = CARTESIAN_POINT ( 'NONE',  ( 4.000000000000000000, -11.79289321881341657, 11.79289321881345565 ) ) ;
#1213 = VERTEX_POINT ( 'NONE', #265 ) ;
#1214 = DIRECTION ( 'NONE',  ( 1.000000000000000000, -0.000000000000000000, 0.000000000000000000 ) ) ;
#1215 = DIRECTION ( 'NONE',  ( 0.000000000000000000, 0.7071067811865467956, -0.7071067811865484609 ) ) ;
#1216 = EDGE_CURVE ( 'NONE', #74, #384, #281, .T. ) ;
#1217 = CARTESIAN_POINT ( 'NONE',  ( -5.000000000000000000, -24.58578643762690419, -36.00000000000002132 ) ) ;
#1218 = VERTEX_POINT ( 'NONE', #444 ) ;
#1219 = CARTESIAN_POINT ( 'NONE',  ( 4.000000000000000888, 0.000000000000000000, -89.00000000000000000 ) ) ;
#1220 = CYLINDRICAL_SURFACE ( 'NONE', #702, 1.000000000000000000 ) ;
ENDSEC;
END-ISO-10303-21;
