ISO-10303-21;
HEADER;
FILE_DESCRIPTION (( 'STEP AP214' ),
    '1' );
FILE_NAME ('Part6 Blade 2.STEP',
    '2025-08-04T11:00:07',
    ( '' ),
    ( '' ),
    'SwSTEP 2.0',
    'SolidWorks 2025',
    '' );
FILE_SCHEMA (( 'AUTOMOTIVE_DESIGN' ));
ENDSEC;

DATA;
#1 = PRESENTATION_STYLE_ASSIGNMENT (( #132 ) ) ;
#2 = AXIS2_PLACEMENT_3D ( 'NONE', #224, #44, #270 ) ;
#3 = DIRECTION ( 'NONE',  ( -0.000000000000000000, -1.000000000000000000, -0.000000000000000000 ) ) ;
#4 = CARTESIAN_POINT ( 'NONE',  ( 130.0000000000000000, 7.250000000000000000, 0.000000000000000000 ) ) ;
#5 = DIRECTION ( 'NONE',  ( -0.000000000000000000, -0.9961946980917449901, -0.08715574274766497986 ) ) ;
#6 = PLANE ( 'NONE',  #84 ) ;
#7 = EDGE_CURVE ( 'NONE', #149, #257, #287, .T. ) ;
#8 = DIRECTION ( 'NONE',  ( 0.000000000000000000, 0.000000000000000000, -1.000000000000000000 ) ) ;
#9 = EDGE_LOOP ( 'NONE', ( #212, #124, #125, #102 ) ) ;
#10 = AXIS2_PLACEMENT_3D ( 'NONE', #190, #167, #127 ) ;
#11 = ORIENTED_EDGE ( 'NONE', *, *, #153, .F. ) ;
#12 = EDGE_LOOP ( 'NONE', ( #101 ) ) ;
#13 = VERTEX_POINT ( 'NONE', #211 ) ;
#14 = FACE_OUTER_BOUND ( 'NONE', #36, .T. ) ;
#15 = ORIENTED_EDGE ( 'NONE', *, *, #278, .F. ) ;
#16 = EDGE_CURVE ( 'NONE', #257, #183, #146, .T. ) ;
#17 = DIRECTION ( 'NONE',  ( 1.000000000000000000, 0.000000000000000000, 0.000000000000000000 ) ) ;
#18 = AXIS2_PLACEMENT_3D ( 'NONE', #22, #265, #223 ) ;
#19 = EDGE_CURVE ( 'NONE', #279, #279, #55, .T. ) ;
#20 = CARTESIAN_POINT ( 'NONE',  ( 0.000000000000000000, 7.250000000000000000, 0.000000000000000000 ) ) ;
#21 = DIRECTION ( 'NONE',  ( 0.000000000000000000, 0.000000000000000000, -1.000000000000000000 ) ) ;
#22 = CARTESIAN_POINT ( 'NONE',  ( 0.000000000000000000, 7.250000000000000000, 0.000000000000000000 ) ) ;
#23 = MECHANICAL_DESIGN_GEOMETRIC_PRESENTATION_REPRESENTATION (  '', ( #73 ), #220 ) ;
#24 = LINE ( 'NONE', #195, #178 ) ;
#25 = ADVANCED_FACE ( 'NONE', ( #216, #14 ), #81, .F. ) ;
#26 = CARTESIAN_POINT ( 'NONE',  ( 110.0000000000000000, -9.429780353434593392E-16, -20.00000000000000000 ) ) ;
#27 = FACE_BOUND ( 'NONE', #34, .T. ) ;
#28 = ORIENTED_EDGE ( 'NONE', *, *, #289, .T. ) ;
#29 = LINE ( 'NONE', #250, #225 ) ;
#30 = CARTESIAN_POINT ( 'NONE',  ( 110.0000000000000000, 0.000000000000000000, -20.00000000000000000 ) ) ;
#31 = ORIENTED_EDGE ( 'NONE', *, *, #164, .T. ) ;
#32 = LINE ( 'NONE', #198, #203 ) ;
#33 = VECTOR ( 'NONE', #244, 1000.000000000000000 ) ;
#34 = EDGE_LOOP ( 'NONE', ( #54 ) ) ;
#35 = ORIENTED_EDGE ( 'NONE', *, *, #210, .T. ) ;
#36 = EDGE_LOOP ( 'NONE', ( #31 ) ) ;
#37 = EDGE_CURVE ( 'NONE', #254, #254, #274, .T. ) ;
#38 = DIRECTION ( 'NONE',  ( 0.000000000000000000, 0.000000000000000000, -1.000000000000000000 ) ) ;
#39 = AXIS2_PLACEMENT_3D ( 'NONE', #26, #114, #93 ) ;
#40 = ORIENTED_EDGE ( 'NONE', *, *, #78, .F. ) ;
#41 = FILL_AREA_STYLE ('',( #242 ) ) ;
#42 = SURFACE_SIDE_STYLE ('',( #65 ) ) ;
#43 = AXIS2_PLACEMENT_3D ( 'NONE', #272, #228, #67 ) ;
#44 = DIRECTION ( 'NONE',  ( 1.000000000000000000, -0.000000000000000000, 0.000000000000000000 ) ) ;
#45 = CARTESIAN_POINT ( 'NONE',  ( 0.000000000000000000, 0.000000000000000000, -41.94313236870812744 ) ) ;
#46 = EDGE_CURVE ( 'NONE', #120, #149, #288, .T. ) ;
#47 = CARTESIAN_POINT ( 'NONE',  ( 130.0000000000000000, 7.250000000000000000, 0.000000000000000000 ) ) ;
#48 = DIRECTION ( 'NONE',  ( 1.000000000000000000, -0.000000000000000000, -0.000000000000000000 ) ) ;
#49 = ORIENTED_EDGE ( 'NONE', *, *, #103, .T. ) ;
#50 = DIRECTION ( 'NONE',  ( 1.000000000000000000, 0.000000000000000000, 0.000000000000000000 ) ) ;
#51 = CARTESIAN_POINT ( 'NONE',  ( 110.0000000000000000, 7.249999999999999112, -25.00000000000000355 ) ) ;
#52 = PRODUCT_DEFINITION_CONTEXT ( 'detailed design', #197, 'design' ) ;
#53 = DIRECTION ( 'NONE',  ( -0.000000000000000000, -1.000000000000000000, -0.000000000000000000 ) ) ;
#54 = ORIENTED_EDGE ( 'NONE', *, *, #236, .F. ) ;
#55 = CIRCLE ( 'NONE', #10, 5.000000000000004441 ) ;
#56 = EDGE_LOOP ( 'NONE', ( #186, #49, #58, #237 ) ) ;
#57 = VERTEX_POINT ( 'NONE', #64 ) ;
#58 = ORIENTED_EDGE ( 'NONE', *, *, #158, .F. ) ;
#59 = EDGE_LOOP ( 'NONE', ( #79 ) ) ;
#60 = CARTESIAN_POINT ( 'NONE',  ( 20.00000000000000000, 7.249999999999999112, -24.99999999999999645 ) ) ;
#61 = CARTESIAN_POINT ( 'NONE',  ( 0.000000000000000000, 0.000000000000000000, 0.000000000000000000 ) ) ;
#62 = DIRECTION ( 'NONE',  ( -0.000000000000000000, -1.000000000000000000, -0.000000000000000000 ) ) ;
#63 = ADVANCED_FACE ( 'NONE', ( #221, #174 ), #154, .F. ) ;
#64 = CARTESIAN_POINT ( 'NONE',  ( 0.000000000000000000, 0.000000000000000000, 0.000000000000000000 ) ) ;
#65 = SURFACE_STYLE_FILL_AREA ( #41 ) ;
#66 = CARTESIAN_POINT ( 'NONE',  ( 110.0000000000000000, 7.249999999999999112, -20.00000000000000000 ) ) ;
#67 = DIRECTION ( 'NONE',  ( 0.000000000000000000, 0.000000000000000000, -1.000000000000000000 ) ) ;
#68 = PRODUCT_DEFINITION_FORMATION_WITH_SPECIFIED_SOURCE ( 'Symmetric', '', #241, .NOT_KNOWN. ) ;
#69 = CARTESIAN_POINT ( 'NONE',  ( 0.000000000000000000, -0.000000000000000000, -41.94313236870814166 ) ) ;
#70 = CARTESIAN_POINT ( 'NONE',  ( 20.00000000000000000, 7.249999999999999112, -20.00000000000000000 ) ) ;
#71 = DIRECTION ( 'NONE',  ( -1.000000000000000000, 0.000000000000000000, 0.000000000000000000 ) ) ;
#72 = DIRECTION ( 'NONE',  ( -0.000000000000000000, -1.000000000000000000, -0.000000000000000000 ) ) ;
#73 = STYLED_ITEM ( 'NONE', ( #1 ), #135 ) ;
#74 = ORIENTED_EDGE ( 'NONE', *, *, #19, .F. ) ;
#75 = EDGE_LOOP ( 'NONE', ( #285 ) ) ;
#76 = VECTOR ( 'NONE', #71, 1000.000000000000000 ) ;
#77 = CARTESIAN_POINT ( 'NONE',  ( 130.0000000000000000, 7.250000000000000000, 0.000000000000000000 ) ) ;
#78 = EDGE_CURVE ( 'NONE', #106, #57, #247, .T. ) ;
#79 = ORIENTED_EDGE ( 'NONE', *, *, #236, .T. ) ;
#80 =( NAMED_UNIT ( * ) SI_UNIT ( $, .STERADIAN. ) SOLID_ANGLE_UNIT ( ) );
#81 = CYLINDRICAL_SURFACE ( 'NONE', #85, 4.999999999999993783 ) ;
#82 = VERTEX_POINT ( 'NONE', #60 ) ;
#83 = FACE_BOUND ( 'NONE', #12, .T. ) ;
#84 = AXIS2_PLACEMENT_3D ( 'NONE', #47, #96, #185 ) ;
#85 = AXIS2_PLACEMENT_3D ( 'NONE', #104, #62, #267 ) ;
#86 = DIRECTION ( 'NONE',  ( 0.000000000000000000, 0.000000000000000000, -1.000000000000000000 ) ) ;
#87 = DIRECTION ( 'NONE',  ( 1.000000000000000000, 0.000000000000000000, 0.000000000000000000 ) ) ;
#88 = DIRECTION ( 'NONE',  ( -0.000000000000000000, -1.000000000000000000, -0.000000000000000000 ) ) ;
#89 = PRODUCT_DEFINITION_SHAPE ( 'NONE', 'NONE',  #222 ) ;
#90 = FACE_BOUND ( 'NONE', #168, .T. ) ;
#91 = FACE_OUTER_BOUND ( 'NONE', #260, .T. ) ;
#92 = PLANE ( 'NONE',  #259 ) ;
#93 = DIRECTION ( 'NONE',  ( 0.000000000000000000, 0.000000000000000000, -1.000000000000000000 ) ) ;
#94 = UNCERTAINTY_MEASURE_WITH_UNIT (LENGTH_MEASURE( 1.000000000000000082E-05 ), #111, 'distance_accuracy_value', 'NONE');
#95 = LINE ( 'NONE', #233, #166 ) ;
#96 = DIRECTION ( 'NONE',  ( -1.000000000000000000, 0.000000000000000000, 0.000000000000000000 ) ) ;
#97 = DIRECTION ( 'NONE',  ( -0.000000000000000000, -0.000000000000000000, 1.000000000000000000 ) ) ;
#98 = ADVANCED_FACE ( 'NONE', ( #271, #83, #90, #109 ), #172, .F. ) ;
#99 = CLOSED_SHELL ( 'NONE', ( #123, #169, #227, #98, #181, #25, #63, #184, #119 ) ) ;
#100 = ORIENTED_EDGE ( 'NONE', *, *, #46, .T. ) ;
#101 = ORIENTED_EDGE ( 'NONE', *, *, #19, .T. ) ;
#102 = ORIENTED_EDGE ( 'NONE', *, *, #201, .F. ) ;
#103 = EDGE_CURVE ( 'NONE', #183, #13, #24, .T. ) ;
#104 = CARTESIAN_POINT ( 'NONE',  ( 20.00000000000000000, 0.000000000000000000, -20.00000000000000000 ) ) ;
#105 = CARTESIAN_POINT ( 'NONE',  ( 110.0000000000000000, -9.429780353434593392E-16, -24.99999999999998934 ) ) ;
#106 = VERTEX_POINT ( 'NONE', #45 ) ;
#107 =( NAMED_UNIT ( * ) SI_UNIT ( $, .STERADIAN. ) SOLID_ANGLE_UNIT ( ) );
#108 = DIRECTION ( 'NONE',  ( 0.000000000000000000, 0.000000000000000000, 1.000000000000000000 ) ) ;
#109 = FACE_OUTER_BOUND ( 'NONE', #165, .T. ) ;
#110 = CARTESIAN_POINT ( 'NONE',  ( 65.00000000000000000, 0.000000000000000000, -20.00000000000000000 ) ) ;
#111 =( LENGTH_UNIT ( ) NAMED_UNIT ( * ) SI_UNIT ( .MILLI., .METRE. ) );
#112 = PRESENTATION_LAYER_ASSIGNMENT (  '', '', ( #73 ) ) ;
#113 = DIRECTION ( 'NONE',  ( -1.000000000000000000, 0.000000000000000000, 0.000000000000000000 ) ) ;
#114 = DIRECTION ( 'NONE',  ( -0.000000000000000000, -1.000000000000000000, -0.000000000000000000 ) ) ;
#115 = DIRECTION ( 'NONE',  ( 0.000000000000000000, -1.000000000000000000, 0.000000000000000000 ) ) ;
#116 = VECTOR ( 'NONE', #238, 1000.000000000000000 ) ;
#117 = CARTESIAN_POINT ( 'NONE',  ( 0.000000000000000000, 7.250000000000000000, -41.30883955814514508 ) ) ;
#118 = DIRECTION ( 'NONE',  ( 0.000000000000000000, -0.000000000000000000, -1.000000000000000000 ) ) ;
#119 = ADVANCED_FACE ( 'NONE', ( #91 ), #268, .F. ) ;
#120 = VERTEX_POINT ( 'NONE', #150 ) ;
#121 = EDGE_LOOP ( 'NONE', ( #147 ) ) ;
#122 = UNCERTAINTY_MEASURE_WITH_UNIT (LENGTH_MEASURE( 1.000000000000000082E-05 ), #131, 'distance_accuracy_value', 'NONE');
#123 = ADVANCED_FACE ( 'NONE', ( #152 ), #133, .F. ) ;
#124 = ORIENTED_EDGE ( 'NONE', *, *, #213, .T. ) ;
#125 = ORIENTED_EDGE ( 'NONE', *, *, #78, .T. ) ;
#126 =( GEOMETRIC_REPRESENTATION_CONTEXT ( 3 ) GLOBAL_UNCERTAINTY_ASSIGNED_CONTEXT ( ( #122 ) ) GLOBAL_UNIT_ASSIGNED_CONTEXT ( ( #131, #128, #80 ) ) REPRESENTATION_CONTEXT ( 'NONE', 'WORKASPACE' ) );
#127 = DIRECTION ( 'NONE',  ( 0.000000000000000000, 0.000000000000000000, -1.000000000000000000 ) ) ;
#128 =( NAMED_UNIT ( * ) PLANE_ANGLE_UNIT ( ) SI_UNIT ( $, .RADIAN. ) );
#129 = ORIENTED_EDGE ( 'NONE', *, *, #160, .F. ) ;
#130 = DIRECTION ( 'NONE',  ( 0.000000000000000000, -0.08715574274766497986, 0.9961946980917449901 ) ) ;
#131 =( LENGTH_UNIT ( ) NAMED_UNIT ( * ) SI_UNIT ( .MILLI., .METRE. ) );
#132 = SURFACE_STYLE_USAGE ( .BOTH. , #42 ) ;
#133 = PLANE ( 'NONE',  #2 ) ;
#134 = CARTESIAN_POINT ( 'NONE',  ( 130.0000000000000000, 0.000000000000000000, -41.94313236870812744 ) ) ;
#135 = MANIFOLD_SOLID_BREP ( 'Chamfer1', #99 ) ;
#136 = DIRECTION ( 'NONE',  ( -0.000000000000000000, -1.000000000000000000, -0.000000000000000000 ) ) ;
#137 = ORIENTED_EDGE ( 'NONE', *, *, #16, .F. ) ;
#138 = DIRECTION ( 'NONE',  ( 0.000000000000000000, 0.000000000000000000, -1.000000000000000000 ) ) ;
#139 = CIRCLE ( 'NONE', #179, 4.999999999999990230 ) ;
#140 = CIRCLE ( 'NONE', #43, 4.999999999999986677 ) ;
#141 = VERTEX_POINT ( 'NONE', #232 ) ;
#142 = DIRECTION ( 'NONE',  ( 0.000000000000000000, 0.000000000000000000, -1.000000000000000000 ) ) ;
#143 = ORIENTED_EDGE ( 'NONE', *, *, #37, .F. ) ;
#144 = VECTOR ( 'NONE', #48, 1000.000000000000000 ) ;
#145 = AXIS2_PLACEMENT_3D ( 'NONE', #110, #194, #246 ) ;
#146 = LINE ( 'NONE', #235, #264 ) ;
#147 = ORIENTED_EDGE ( 'NONE', *, *, #153, .T. ) ;
#148 = EDGE_LOOP ( 'NONE', ( #11 ) ) ;
#149 = VERTEX_POINT ( 'NONE', #248 ) ;
#150 = CARTESIAN_POINT ( 'NONE',  ( 0.000000000000000000, 7.250000000000000000, 0.000000000000000000 ) ) ;
#151 = DIRECTION ( 'NONE',  ( -0.000000000000000000, 0.9961946980917449901, 0.08715574274766497986 ) ) ;
#152 = FACE_OUTER_BOUND ( 'NONE', #9, .T. ) ;
#153 = EDGE_CURVE ( 'NONE', #141, #141, #139, .T. ) ;
#154 = CYLINDRICAL_SURFACE ( 'NONE', #145, 4.999999999999997335 ) ;
#155 = FACE_BOUND ( 'NONE', #148, .T. ) ;
#156 = LINE ( 'NONE', #157, #231 ) ;
#157 = CARTESIAN_POINT ( 'NONE',  ( 0.000000000000000000, 0.000000000000000000, 0.000000000000000000 ) ) ;
#158 = EDGE_CURVE ( 'NONE', #149, #13, #173, .T. ) ;
#159 = CARTESIAN_POINT ( 'NONE',  ( 65.00000000000000000, 7.249999999999999112, -25.00000000000000355 ) ) ;
#160 = EDGE_CURVE ( 'NONE', #57, #257, #156, .T. ) ;
#161 = CARTESIAN_POINT ( 'NONE',  ( 0.000000000000000000, 7.250000000000000000, 0.000000000000000000 ) ) ;
#162 = ORIENTED_EDGE ( 'NONE', *, *, #269, .T. ) ;
#163 = EDGE_LOOP ( 'NONE', ( #143 ) ) ;
#164 = EDGE_CURVE ( 'NONE', #205, #205, #140, .T. ) ;
#165 = EDGE_LOOP ( 'NONE', ( #206, #28, #35, #100 ) ) ;
#166 = VECTOR ( 'NONE', #97, 1000.000000000000000 ) ;
#167 = DIRECTION ( 'NONE',  ( -0.000000000000000000, -1.000000000000000000, -0.000000000000000000 ) ) ;
#168 = EDGE_LOOP ( 'NONE', ( #208 ) ) ;
#169 = ADVANCED_FACE ( 'NONE', ( #182 ), #200, .F. ) ;
#170 = CARTESIAN_POINT ( 'NONE',  ( 20.00000000000000000, -9.429780353434593392E-16, -24.99999999999998579 ) ) ;
#171 = ORIENTED_EDGE ( 'NONE', *, *, #46, .F. ) ;
#172 = PLANE ( 'NONE',  #18 ) ;
#173 = LINE ( 'NONE', #4, #215 ) ;
#174 = FACE_OUTER_BOUND ( 'NONE', #121, .T. ) ;
#175 = CARTESIAN_POINT ( 'NONE',  ( 0.000000000000000000, 7.250000000000000000, -41.30883955814514508 ) ) ;
#176 = FACE_OUTER_BOUND ( 'NONE', #240, .T. ) ;
#177 = CYLINDRICAL_SURFACE ( 'NONE', #245, 4.999999999999997335 ) ;
#178 = VECTOR ( 'NONE', #151, 1000.000000000000000 ) ;
#179 = AXIS2_PLACEMENT_3D ( 'NONE', #226, #88, #86 ) ;
#180 = CARTESIAN_POINT ( 'NONE',  ( 130.0000000000000000, 0.000000000000000000, 0.000000000000000000 ) ) ;
#181 = ADVANCED_FACE ( 'NONE', ( #27, #155, #277, #176 ), #92, .T. ) ;
#182 = FACE_OUTER_BOUND ( 'NONE', #258, .T. ) ;
#183 = VERTEX_POINT ( 'NONE', #134 ) ;
#184 = ADVANCED_FACE ( 'NONE', ( #229, #251 ), #177, .F. ) ;
#185 = DIRECTION ( 'NONE',  ( 0.000000000000000000, 0.000000000000000000, 1.000000000000000000 ) ) ;
#186 = ORIENTED_EDGE ( 'NONE', *, *, #16, .T. ) ;
#187 = EDGE_LOOP ( 'NONE', ( #281 ) ) ;
#188 = ORIENTED_EDGE ( 'NONE', *, *, #213, .F. ) ;
#189 = VERTEX_POINT ( 'NONE', #202 ) ;
#190 = CARTESIAN_POINT ( 'NONE',  ( 65.00000000000000000, 7.249999999999999112, -20.00000000000000000 ) ) ;
#191 = ORIENTED_EDGE ( 'NONE', *, *, #289, .F. ) ;
#192 = APPLICATION_CONTEXT ( 'automotive_design' ) ;
#193 = APPLICATION_PROTOCOL_DEFINITION ( 'draft international standard', 'automotive_design', 1998, #197 ) ;
#194 = DIRECTION ( 'NONE',  ( -0.000000000000000000, -1.000000000000000000, -0.000000000000000000 ) ) ;
#195 = CARTESIAN_POINT ( 'NONE',  ( 130.0000000000000000, 7.250000000000000000, -41.30883955814514508 ) ) ;
#196 = COLOUR_RGB ( '',0.7921568627450980005, 0.8196078431372548767, 0.9333333333333333481 ) ;
#197 = APPLICATION_CONTEXT ( 'automotive_design' ) ;
#198 = CARTESIAN_POINT ( 'NONE',  ( 0.000000000000000000, 7.250000000000000000, -41.30883955814514508 ) ) ;
#199 = PRODUCT_RELATED_PRODUCT_CATEGORY ( 'part', '', ( #241 ) ) ;
#200 = PLANE ( 'NONE',  #255 ) ;
#201 = EDGE_CURVE ( 'NONE', #120, #57, #29, .T. ) ;
#202 = CARTESIAN_POINT ( 'NONE',  ( 0.000000000000000000, 7.250000000000000000, -41.30883955814513087 ) ) ;
#203 = VECTOR ( 'NONE', #5, 1000.000000000000000 ) ;
#204 = FACE_OUTER_BOUND ( 'NONE', #56, .T. ) ;
#205 = VERTEX_POINT ( 'NONE', #170 ) ;
#206 = ORIENTED_EDGE ( 'NONE', *, *, #158, .T. ) ;
#207 = SHAPE_DEFINITION_REPRESENTATION ( #89, #252 ) ;
#208 = ORIENTED_EDGE ( 'NONE', *, *, #278, .T. ) ;
#209 = AXIS2_PLACEMENT_3D ( 'NONE', #66, #3, #21 ) ;
#210 = EDGE_CURVE ( 'NONE', #189, #120, #95, .T. ) ;
#211 = CARTESIAN_POINT ( 'NONE',  ( 130.0000000000000000, 7.250000000000000000, -41.30883955814513087 ) ) ;
#212 = ORIENTED_EDGE ( 'NONE', *, *, #210, .F. ) ;
#213 = EDGE_CURVE ( 'NONE', #189, #106, #32, .T. ) ;
#214 = ORIENTED_EDGE ( 'NONE', *, *, #7, .F. ) ;
#215 = VECTOR ( 'NONE', #253, 1000.000000000000000 ) ;
#216 = FACE_OUTER_BOUND ( 'NONE', #284, .T. ) ;
#217 = EDGE_LOOP ( 'NONE', ( #74 ) ) ;
#218 =( NAMED_UNIT ( * ) PLANE_ANGLE_UNIT ( ) SI_UNIT ( $, .RADIAN. ) );
#219 = AXIS2_PLACEMENT_3D ( 'NONE', #175, #130, #113 ) ;
#220 =( GEOMETRIC_REPRESENTATION_CONTEXT ( 3 ) GLOBAL_UNCERTAINTY_ASSIGNED_CONTEXT ( ( #94 ) ) GLOBAL_UNIT_ASSIGNED_CONTEXT ( ( #111, #218, #107 ) ) REPRESENTATION_CONTEXT ( 'NONE', 'WORKASPACE' ) );
#221 = FACE_OUTER_BOUND ( 'NONE', #217, .T. ) ;
#222 = PRODUCT_DEFINITION ( 'General', '', #68, #52 ) ;
#223 = DIRECTION ( 'NONE',  ( 0.000000000000000000, -0.000000000000000000, -1.000000000000000000 ) ) ;
#224 = CARTESIAN_POINT ( 'NONE',  ( 0.000000000000000000, 7.250000000000000000, 0.000000000000000000 ) ) ;
#225 = VECTOR ( 'NONE', #72, 1000.000000000000000 ) ;
#226 = CARTESIAN_POINT ( 'NONE',  ( 65.00000000000000000, -9.429780353434593392E-16, -20.00000000000000000 ) ) ;
#227 = ADVANCED_FACE ( 'NONE', ( #204 ), #6, .F. ) ;
#228 = DIRECTION ( 'NONE',  ( -0.000000000000000000, -1.000000000000000000, -0.000000000000000000 ) ) ;
#229 = FACE_OUTER_BOUND ( 'NONE', #163, .T. ) ;
#230 = LINE ( 'NONE', #117, #76 ) ;
#231 = VECTOR ( 'NONE', #50, 1000.000000000000000 ) ;
#232 = CARTESIAN_POINT ( 'NONE',  ( 65.00000000000000000, -9.429780353434593392E-16, -24.99999999999998934 ) ) ;
#233 = CARTESIAN_POINT ( 'NONE',  ( 0.000000000000000000, 7.250000000000000000, 0.000000000000000000 ) ) ;
#234 = ORIENTED_EDGE ( 'NONE', *, *, #103, .F. ) ;
#235 = CARTESIAN_POINT ( 'NONE',  ( 130.0000000000000000, 0.000000000000000000, 0.000000000000000000 ) ) ;
#236 = EDGE_CURVE ( 'NONE', #243, #243, #263, .T. ) ;
#237 = ORIENTED_EDGE ( 'NONE', *, *, #7, .T. ) ;
#238 = DIRECTION ( 'NONE',  ( -0.000000000000000000, -1.000000000000000000, -0.000000000000000000 ) ) ;
#239 = CIRCLE ( 'NONE', #280, 4.999999999999997335 ) ;
#240 = EDGE_LOOP ( 'NONE', ( #40, #162, #137, #129 ) ) ;
#241 = PRODUCT ( 'Part6 Blade 2', 'Part6 Blade 2', '', ( #266 ) ) ;
#242 = FILL_AREA_STYLE_COLOUR ( '', #196 ) ;
#243 = VERTEX_POINT ( 'NONE', #105 ) ;
#244 = DIRECTION ( 'NONE',  ( -0.000000000000000000, -0.000000000000000000, 1.000000000000000000 ) ) ;
#245 = AXIS2_PLACEMENT_3D ( 'NONE', #30, #53, #8 ) ;
#246 = DIRECTION ( 'NONE',  ( 0.000000000000000000, 0.000000000000000000, -1.000000000000000000 ) ) ;
#247 = LINE ( 'NONE', #61, #33 ) ;
#248 = CARTESIAN_POINT ( 'NONE',  ( 130.0000000000000000, 7.250000000000000000, 0.000000000000000000 ) ) ;
#249 = VECTOR ( 'NONE', #17, 1000.000000000000000 ) ;
#250 = CARTESIAN_POINT ( 'NONE',  ( 0.000000000000000000, 7.250000000000000000, 0.000000000000000000 ) ) ;
#251 = FACE_OUTER_BOUND ( 'NONE', #59, .T. ) ;
#252 = ADVANCED_BREP_SHAPE_REPRESENTATION ( 'Part6 Blade 2', ( #135, #273 ), #126 ) ;
#253 = DIRECTION ( 'NONE',  ( 0.000000000000000000, 0.000000000000000000, -1.000000000000000000 ) ) ;
#254 = VERTEX_POINT ( 'NONE', #51 ) ;
#255 = AXIS2_PLACEMENT_3D ( 'NONE', #161, #142, #276 ) ;
#256 = CARTESIAN_POINT ( 'NONE',  ( 0.000000000000000000, 0.000000000000000000, 0.000000000000000000 ) ) ;
#257 = VERTEX_POINT ( 'NONE', #180 ) ;
#258 = EDGE_LOOP ( 'NONE', ( #286, #214, #171, #262 ) ) ;
#259 = AXIS2_PLACEMENT_3D ( 'NONE', #256, #115, #118 ) ;
#260 = EDGE_LOOP ( 'NONE', ( #234, #261, #188, #191 ) ) ;
#261 = ORIENTED_EDGE ( 'NONE', *, *, #269, .F. ) ;
#262 = ORIENTED_EDGE ( 'NONE', *, *, #201, .T. ) ;
#263 = CIRCLE ( 'NONE', #39, 4.999999999999990230 ) ;
#264 = VECTOR ( 'NONE', #38, 1000.000000000000000 ) ;
#265 = DIRECTION ( 'NONE',  ( 0.000000000000000000, -1.000000000000000000, 0.000000000000000000 ) ) ;
#266 = PRODUCT_CONTEXT ( 'NONE', #192, 'mechanical' ) ;
#267 = DIRECTION ( 'NONE',  ( 0.000000000000000000, 0.000000000000000000, -1.000000000000000000 ) ) ;
#268 = PLANE ( 'NONE',  #219 ) ;
#269 = EDGE_CURVE ( 'NONE', #106, #183, #275, .T. ) ;
#270 = DIRECTION ( 'NONE',  ( 0.000000000000000000, 0.000000000000000000, -1.000000000000000000 ) ) ;
#271 = FACE_BOUND ( 'NONE', #75, .T. ) ;
#272 = CARTESIAN_POINT ( 'NONE',  ( 20.00000000000000000, -9.429780353434593392E-16, -20.00000000000000000 ) ) ;
#273 = AXIS2_PLACEMENT_3D ( 'NONE', #283, #108, #87 ) ;
#274 = CIRCLE ( 'NONE', #209, 5.000000000000004441 ) ;
#275 = LINE ( 'NONE', #69, #144 ) ;
#276 = DIRECTION ( 'NONE',  ( -1.000000000000000000, 0.000000000000000000, -0.000000000000000000 ) ) ;
#277 = FACE_BOUND ( 'NONE', #187, .T. ) ;
#278 = EDGE_CURVE ( 'NONE', #82, #82, #239, .T. ) ;
#279 = VERTEX_POINT ( 'NONE', #159 ) ;
#280 = AXIS2_PLACEMENT_3D ( 'NONE', #70, #136, #138 ) ;
#281 = ORIENTED_EDGE ( 'NONE', *, *, #164, .F. ) ;
#282 = APPLICATION_PROTOCOL_DEFINITION ( 'draft international standard', 'automotive_design', 1998, #192 ) ;
#283 = CARTESIAN_POINT ( 'NONE',  ( 0.000000000000000000, 0.000000000000000000, 0.000000000000000000 ) ) ;
#284 = EDGE_LOOP ( 'NONE', ( #15 ) ) ;
#285 = ORIENTED_EDGE ( 'NONE', *, *, #37, .T. ) ;
#286 = ORIENTED_EDGE ( 'NONE', *, *, #160, .T. ) ;
#287 = LINE ( 'NONE', #77, #116 ) ;
#288 = LINE ( 'NONE', #20, #249 ) ;
#289 = EDGE_CURVE ( 'NONE', #13, #189, #230, .T. ) ;
ENDSEC;
END-ISO-10303-21;
