ISO-10303-21;
HEADER;
FILE_DESCRIPTION (( 'STEP AP214' ),
    '1' );
FILE_NAME ('Part5 Blade 1.STEP',
    '2025-08-04T11:00:08',
    ( '' ),
    ( '' ),
    'SwSTEP 2.0',
    'SolidWorks 2025',
    '' );
FILE_SCHEMA (( 'AUTOMOTIVE_DESIGN' ));
ENDSEC;

DATA;
#1 = ORIENTED_EDGE ( 'NONE', *, *, #307, .T. ) ;
#2 = B_SPLINE_CURVE_WITH_KNOTS ( 'NONE', 3,
 ( #365, #395, #267, #451 ),
 .UNSPECIFIED., .F., .F.,
 ( 4, 4 ),
 ( 0.000000000000000000, 0.007930379415221089703 ),
 .UNSPECIFIED. ) ;
#3 = EDGE_CURVE ( 'NONE', #88, #552, #348, .T. ) ;
#4 = CARTESIAN_POINT ( 'NONE',  ( -1.846174103990930071, 3.319698841427698444, 30.09263710955401905 ) ) ;
#5 = DIRECTION ( 'NONE',  ( 0.000000000000000000, 0.000000000000000000, 1.000000000000000000 ) ) ;
#6 = ORIENTED_EDGE ( 'NONE', *, *, #494, .F. ) ;
#7 = ADVANCED_FACE ( 'NONE', ( #486 ), #532, .T. ) ;
#8 = LINE ( 'NONE', #434, #76 ) ;
#9 = EDGE_LOOP ( 'NONE', ( #375, #179, #328, #140 ) ) ;
#10 = LINE ( 'NONE', #12, #278 ) ;
#11 = ORIENTED_EDGE ( 'NONE', *, *, #222, .T. ) ;
#12 = CARTESIAN_POINT ( 'NONE',  ( 0.000000000000000000, 7.900000000000000355, 2.500000000000000444 ) ) ;
#13 = CARTESIAN_POINT ( 'NONE',  ( -2.500000000000000000, 7.900000000000000355, 2.500000000000000444 ) ) ;
#14 = DIRECTION ( 'NONE',  ( 1.387778780781445478E-15, 0.000000000000000000, 1.000000000000000000 ) ) ;
#15 = EDGE_CURVE ( 'NONE', #159, #161, #401, .T. ) ;
#16 = CARTESIAN_POINT ( 'NONE',  ( -1.712758856070828895, -0.000000000000000000, 29.75529309297139946 ) ) ;
#17 = ORIENTED_EDGE ( 'NONE', *, *, #123, .F. ) ;
#18 = ADVANCED_FACE ( 'NONE', ( #492 ), #262, .T. ) ;
#19 = CARTESIAN_POINT ( 'NONE',  ( -155.0000000000000284, 7.900000000000000355, 30.00000000000002132 ) ) ;
#20 = CARTESIAN_POINT ( 'NONE',  ( -155.0000000000000284, 0.000000000000000000, 15.00000000000001776 ) ) ;
#21 = AXIS2_PLACEMENT_3D ( 'NONE', #264, #185, #543 ) ;
#22 = VECTOR ( 'NONE', #396, 1000.000000000000000 ) ;
#23 = LINE ( 'NONE', #545, #458 ) ;
#24 = CARTESIAN_POINT ( 'NONE',  ( -1.845534180791821743, 0.000000000000000000, 29.79145559564411272 ) ) ;
#25 = ORIENTED_EDGE ( 'NONE', *, *, #366, .T. ) ;
#26 = PLANE ( 'NONE',  #38 ) ;
#27 = B_SPLINE_CURVE_WITH_KNOTS ( 'NONE', 3,
 ( #488, #130, #483, #346, #292, #391, #207, #53, #173, #529 ),
 .UNSPECIFIED., .F., .F.,
 ( 4, 2, 2, 2, 4 ),
 ( 2.385244779468109755E-18, 0.0008142955101275806216, 0.001628591020255158858, 0.002442886530382736877, 0.003257182040510315547 ),
 .UNSPECIFIED. ) ;
#28 = ADVANCED_FACE ( 'NONE', ( #101 ), #142, .F. ) ;
#29 = ORIENTED_EDGE ( 'NONE', *, *, #40, .F. ) ;
#30 = CARTESIAN_POINT ( 'NONE',  ( -155.0000000000000284, 0.000000000000000000, 30.00000000000002132 ) ) ;
#31 = DIRECTION ( 'NONE',  ( -1.387778780781445478E-15, 0.000000000000000000, -1.000000000000000000 ) ) ;
#32 = PRODUCT_DEFINITION ( 'General', '', #241, #233 ) ;
#33 = CARTESIAN_POINT ( 'NONE',  ( -2.500000000000000444, 7.900000000000000355, 3.061616997868383141E-16 ) ) ;
#34 = EDGE_CURVE ( 'NONE', #552, #246, #558, .T. ) ;
#35 = DIRECTION ( 'NONE',  ( 0.000000000000000000, 0.000000000000000000, 1.000000000000000000 ) ) ;
#36 = EDGE_LOOP ( 'NONE', ( #306, #126, #309, #86 ) ) ;
#37 = CARTESIAN_POINT ( 'NONE',  ( -105.0000000000000000, 7.900000000000000355, 30.00000000000001421 ) ) ;
#38 = AXIS2_PLACEMENT_3D ( 'NONE', #413, #549, #31 ) ;
#39 = CIRCLE ( 'NONE', #349, 5.000000000000002665 ) ;
#40 = EDGE_CURVE ( 'NONE', #217, #217, #39, .T. ) ;
#41 = VERTEX_POINT ( 'NONE', #137 ) ;
#42 = PRODUCT_CONTEXT ( 'NONE', #297, 'mechanical' ) ;
#43 = LINE ( 'NONE', #431, #139 ) ;
#44 = ORIENTED_EDGE ( 'NONE', *, *, #226, .F. ) ;
#45 = PLANE ( 'NONE',  #523 ) ;
#46 = ADVANCED_FACE ( 'NONE', ( #108 ), #248, .F. ) ;
#47 = ORIENTED_EDGE ( 'NONE', *, *, #494, .T. ) ;
#48 = CARTESIAN_POINT ( 'NONE',  ( -1.846867685415863880, 6.926516205724969844, 30.41983747734288457 ) ) ;
#49 = CARTESIAN_POINT ( 'NONE',  ( 0.000000000000000000, 0.000000000000000000, 27.36874206744403537 ) ) ;
#50 = VECTOR ( 'NONE', #228, 1000.000000000000000 ) ;
#51 = ORIENTED_EDGE ( 'NONE', *, *, #562, .F. ) ;
#52 = EDGE_CURVE ( 'NONE', #41, #489, #148, .T. ) ;
#53 = CARTESIAN_POINT ( 'NONE',  ( -0.04468413878918822690, 7.900000000000002132, 28.63128804531209326 ) ) ;
#54 = ORIENTED_EDGE ( 'NONE', *, *, #105, .T. ) ;
#55 = CARTESIAN_POINT ( 'NONE',  ( -1.845854377301604954, 1.659849043157962889, 29.94205051338500567 ) ) ;
#56 = CARTESIAN_POINT ( 'NONE',  ( -1.847063957988280158, 7.948707371404703181, 30.51256258461135218 ) ) ;
#57 = ADVANCED_FACE ( 'NONE', ( #512 ), #518, .F. ) ;
#58 = DIRECTION ( 'NONE',  ( 0.000000000000000000, 1.000000000000000000, 0.000000000000000000 ) ) ;
#59 = DIRECTION ( 'NONE',  ( 1.000000000000000000, 0.000000000000000000, -1.224646799147352961E-16 ) ) ;
#60 = AXIS2_PLACEMENT_3D ( 'NONE', #399, #62, #503 ) ;
#61 = ORIENTED_EDGE ( 'NONE', *, *, #326, .T. ) ;
#62 = DIRECTION ( 'NONE',  ( -0.000000000000000000, 1.000000000000000000, -0.000000000000000000 ) ) ;
#63 = DIRECTION ( 'NONE',  ( -1.000000000000000000, 0.000000000000000000, 1.067522139062649809E-16 ) ) ;
#64 = DIRECTION ( 'NONE',  ( 0.000000000000000000, 0.000000000000000000, 1.000000000000000000 ) ) ;
#65 = DIRECTION ( 'NONE',  ( 0.000000000000000000, 0.000000000000000000, 1.000000000000000000 ) ) ;
#66 = CARTESIAN_POINT ( 'NONE',  ( -1.845534180791821743, 0.000000000000000000, 29.79145559564411272 ) ) ;
#67 = DIRECTION ( 'NONE',  ( 0.000000000000000000, 0.000000000000000000, 1.000000000000000000 ) ) ;
#68 = AXIS2_PLACEMENT_3D ( 'NONE', #98, #445, #454 ) ;
#69 = AXIS2_PLACEMENT_3D ( 'NONE', #13, #144, #182 ) ;
#70 =( GEOMETRIC_REPRESENTATION_CONTEXT ( 3 ) GLOBAL_UNCERTAINTY_ASSIGNED_CONTEXT ( ( #533 ) ) GLOBAL_UNIT_ASSIGNED_CONTEXT ( ( #135, #89, #253 ) ) REPRESENTATION_CONTEXT ( 'NONE', 'WORKASPACE' ) );
#71 = ORIENTED_EDGE ( 'NONE', *, *, #402, .F. ) ;
#72 = DIRECTION ( 'NONE',  ( 1.224646799147352961E-16, -0.000000000000000000, 1.000000000000000000 ) ) ;
#73 = ORIENTED_EDGE ( 'NONE', *, *, #472, .T. ) ;
#74 = FACE_BOUND ( 'NONE', #293, .T. ) ;
#75 = PLANE ( 'NONE',  #524 ) ;
#76 = VECTOR ( 'NONE', #96, 1000.000000000000000 ) ;
#77 = FACE_BOUND ( 'NONE', #478, .T. ) ;
#78 = DIRECTION ( 'NONE',  ( -0.000000000000000000, 1.000000000000000000, -0.000000000000000000 ) ) ;
#79 = CARTESIAN_POINT ( 'NONE',  ( -105.0000000000000000, 7.900000000000000355, 32.50000000000000711 ) ) ;
#80 = CARTESIAN_POINT ( 'NONE',  ( 0.000000000000000000, 7.900000000000000355, 2.500000000000000444 ) ) ;
#81 = VERTEX_POINT ( 'NONE', #80 ) ;
#82 = DIRECTION ( 'NONE',  ( 0.000000000000000000, 1.000000000000000000, 0.000000000000000000 ) ) ;
#83 = EDGE_LOOP ( 'NONE', ( #109, #177, #446, #1 ) ) ;
#84 = AXIS2_PLACEMENT_3D ( 'NONE', #417, #158, #406 ) ;
#85 = AXIS2_PLACEMENT_3D ( 'NONE', #466, #244, #410 ) ;
#86 = ORIENTED_EDGE ( 'NONE', *, *, #404, .F. ) ;
#87 = CARTESIAN_POINT ( 'NONE',  ( -4.336808689942017736E-16, 2.689725372813291493, 27.61263579400557688 ) ) ;
#88 = VERTEX_POINT ( 'NONE', #125 ) ;
#89 =( NAMED_UNIT ( * ) PLANE_ANGLE_UNIT ( ) SI_UNIT ( $, .RADIAN. ) );
#90 = CARTESIAN_POINT ( 'NONE',  ( -4.918128788558054753E-12, 5.255650155607143326, 29.76617582159777697 ) ) ;
#91 = EDGE_CURVE ( 'NONE', #114, #424, #465, .T. ) ;
#92 = CARTESIAN_POINT ( 'NONE',  ( 0.000000000000000000, 4.122413213499872775, 27.74252906767016569 ) ) ;
#93 = EDGE_LOOP ( 'NONE', ( #216, #502, #6, #444 ) ) ;
#94 = EDGE_CURVE ( 'NONE', #482, #482, #423, .T. ) ;
#95 = CARTESIAN_POINT ( 'NONE',  ( -155.0000000000000284, 7.900000000000000355, 20.00000000000002487 ) ) ;
#96 = DIRECTION ( 'NONE',  ( 1.000000000000000000, -0.000000000000000000, -1.067522139062649809E-16 ) ) ;
#97 = DIRECTION ( 'NONE',  ( 0.000000000000000000, 0.000000000000000000, -1.000000000000000000 ) ) ;
#98 = CARTESIAN_POINT ( 'NONE',  ( -14.99999999999999822, 0.000000000000000000, 15.00000000000000355 ) ) ;
#99 = EDGE_LOOP ( 'NONE', ( #382 ) ) ;
#100 = CARTESIAN_POINT ( 'NONE',  ( -2.500000000000000000, 7.900000000000000355, 2.500000000000000444 ) ) ;
#101 = FACE_OUTER_BOUND ( 'NONE', #287, .T. ) ;
#102 = AXIS2_PLACEMENT_3D ( 'NONE', #197, #82, #242 ) ;
#103 = CARTESIAN_POINT ( 'NONE',  ( -2.500000000000000000, 0.000000000000000000, 2.500000000000000444 ) ) ;
#104 = PRODUCT ( 'Part5 Blade 1', 'Part5 Blade 1', '', ( #42 ) ) ;
#105 = EDGE_CURVE ( 'NONE', #324, #41, #456, .T. ) ;
#106 = EDGE_LOOP ( 'NONE', ( #170, #510, #537, #563 ) ) ;
#107 = DIRECTION ( 'NONE',  ( 0.000000000000000000, 0.000000000000000000, 1.000000000000000000 ) ) ;
#108 = FACE_OUTER_BOUND ( 'NONE', #251, .T. ) ;
#109 = ORIENTED_EDGE ( 'NONE', *, *, #427, .F. ) ;
#110 = DIRECTION ( 'NONE',  ( -0.000000000000000000, -1.000000000000000000, -0.000000000000000000 ) ) ;
#111 = AXIS2_PLACEMENT_3D ( 'NONE', #467, #202, #67 ) ;
#112 = CARTESIAN_POINT ( 'NONE',  ( -155.0000000000000284, 7.900000000000000355, 15.00000000000001776 ) ) ;
#113 = LINE ( 'NONE', #430, #146 ) ;
#114 = VERTEX_POINT ( 'NONE', #473 ) ;
#115 = LINE ( 'NONE', #277, #405 ) ;
#116 = CIRCLE ( 'NONE', #437, 5.000000000000002665 ) ;
#117 = LINE ( 'NONE', #370, #415 ) ;
#118 = EDGE_CURVE ( 'NONE', #119, #88, #352, .T. ) ;
#119 = VERTEX_POINT ( 'NONE', #371 ) ;
#120 = CARTESIAN_POINT ( 'NONE',  ( -170.0000000000000000, 0.000000000000000000, 15.00000000000000533 ) ) ;
#121 = DIRECTION ( 'NONE',  ( 0.000000000000000000, 0.000000000000000000, -1.000000000000000000 ) ) ;
#122 = EDGE_LOOP ( 'NONE', ( #378 ) ) ;
#123 = EDGE_CURVE ( 'NONE', #236, #424, #414, .T. ) ;
#124 = VERTEX_POINT ( 'NONE', #433 ) ;
#125 = CARTESIAN_POINT ( 'NONE',  ( -170.0000000000000000, 7.900000000000000355, 2.500000000000018208 ) ) ;
#126 = ORIENTED_EDGE ( 'NONE', *, *, #307, .F. ) ;
#127 = MANIFOLD_SOLID_BREP ( 'Fillet2', #191 ) ;
#128 = CARTESIAN_POINT ( 'NONE',  ( 0.000000000000000000, 0.000000000000000000, 0.000000000000000000 ) ) ;
#129 = VECTOR ( 'NONE', #219, 1000.000000000000000 ) ;
#130 = CARTESIAN_POINT ( 'NONE',  ( -1.581334558454813966, 7.900000000000002132, 30.43595365101616679 ) ) ;
#131 = EDGE_LOOP ( 'NONE', ( #258 ) ) ;
#132 = CARTESIAN_POINT ( 'NONE',  ( -1.846493362921139969, 4.979549391103129885, 30.24321542360853954 ) ) ;
#133 = CARTESIAN_POINT ( 'NONE',  ( -1.845482748387143879, -0.2665966576064883742, 29.76726772045683944 ) ) ;
#134 = ORIENTED_EDGE ( 'NONE', *, *, #548, .T. ) ;
#135 =( LENGTH_UNIT ( ) NAMED_UNIT ( * ) SI_UNIT ( .MILLI., .METRE. ) );
#136 = CARTESIAN_POINT ( 'NONE',  ( -1.846538161068410400, 5.210270701050521147, 30.26415350580244734 ) ) ;
#137 = CARTESIAN_POINT ( 'NONE',  ( -107.5000000000000000, 7.900000000000000355, 30.00000000000001421 ) ) ;
#138 = CARTESIAN_POINT ( 'NONE',  ( -104.9999999999999858, 7.900000000000000355, 40.00000000000001421 ) ) ;
#139 = VECTOR ( 'NONE', #440, 1000.000000000000000 ) ;
#140 = ORIENTED_EDGE ( 'NONE', *, *, #339, .F. ) ;
#141 = CARTESIAN_POINT ( 'NONE',  ( -170.0000000000000000, 0.000000000000000000, 2.500000000000018208 ) ) ;
#142 = PLANE ( 'NONE',  #422 ) ;
#143 = CARTESIAN_POINT ( 'NONE',  ( 0.000000000000000000, 0.000000000000000000, 27.36874206744403537 ) ) ;
#144 = DIRECTION ( 'NONE',  ( 0.000000000000000000, -1.000000000000000000, 0.000000000000000000 ) ) ;
#145 = ADVANCED_FACE ( 'NONE', ( #373 ), #559, .T. ) ;
#146 = VECTOR ( 'NONE', #390, 1000.000000000000000 ) ;
#147 = DIRECTION ( 'NONE',  ( -0.000000000000000000, 1.000000000000000000, -0.000000000000000000 ) ) ;
#148 = CIRCLE ( 'NONE', #111, 2.500000000000002220 ) ;
#149 = PRESENTATION_STYLE_ASSIGNMENT (( #544 ) ) ;
#150 = DIRECTION ( 'NONE',  ( -0.000000000000000000, -0.000000000000000000, -1.000000000000000000 ) ) ;
#151 = ORIENTED_EDGE ( 'NONE', *, *, #322, .T. ) ;
#152 = CARTESIAN_POINT ( 'NONE',  ( -0.6781467920313725140, -0.000000000000000000, 29.10951979117716348 ) ) ;
#153 = AXIS2_PLACEMENT_3D ( 'NONE', #323, #515, #121 ) ;
#154 = ORIENTED_EDGE ( 'NONE', *, *, #361, .F. ) ;
#155 = EDGE_CURVE ( 'NONE', #479, #479, #557, .T. ) ;
#156 = ORIENTED_EDGE ( 'NONE', *, *, #222, .F. ) ;
#157 = FACE_BOUND ( 'NONE', #312, .T. ) ;
#158 = DIRECTION ( 'NONE',  ( 0.000000000000000000, 1.000000000000000000, 0.000000000000000000 ) ) ;
#159 = VERTEX_POINT ( 'NONE', #138 ) ;
#160 = DIRECTION ( 'NONE',  ( 0.000000000000000000, 0.000000000000000000, 1.000000000000000000 ) ) ;
#161 = VERTEX_POINT ( 'NONE', #211 ) ;
#162 = CIRCLE ( 'NONE', #68, 5.000000000000000888 ) ;
#163 = AXIS2_PLACEMENT_3D ( 'NONE', #530, #225, #97 ) ;
#164 = DIRECTION ( 'NONE',  ( 0.000000000000000000, 0.000000000000000000, 1.000000000000000000 ) ) ;
#165 = VECTOR ( 'NONE', #78, 1000.000000000000000 ) ;
#166 = SURFACE_STYLE_FILL_AREA ( #168 ) ;
#167 = VERTEX_POINT ( 'NONE', #522 ) ;
#168 = FILL_AREA_STYLE ('',( #286 ) ) ;
#169 = B_SPLINE_CURVE_WITH_KNOTS ( 'NONE', 3,
 ( #351, #250, #181, #92, #259, #299, #257 ),
 .UNSPECIFIED., .F., .F.,
 ( 4, 3, 4 ),
 ( 0.000000000000000000, 0.003793080849272318592, 0.007932405362332689905 ),
 .UNSPECIFIED. ) ;
#170 = ORIENTED_EDGE ( 'NONE', *, *, #548, .F. ) ;
#171 = CARTESIAN_POINT ( 'NONE',  ( -4.336808689942017736E-16, -0.04870730073737403187, 27.36432548321843328 ) ) ;
#172 = ORIENTED_EDGE ( 'NONE', *, *, #509, .F. ) ;
#173 = CARTESIAN_POINT ( 'NONE',  ( -6.700030612781512527E-15, 7.900000000000000355, 28.36034267458424551 ) ) ;
#174 = ORIENTED_EDGE ( 'NONE', *, *, #52, .F. ) ;
#175 = VERTEX_POINT ( 'NONE', #332 ) ;
#176 = CARTESIAN_POINT ( 'NONE',  ( 0.000000000000000000, 0.000000000000000000, 2.500000000000000444 ) ) ;
#177 = ORIENTED_EDGE ( 'NONE', *, *, #187, .T. ) ;
#178 = DIRECTION ( 'NONE',  ( -0.000000000000000000, 1.000000000000000000, -0.000000000000000000 ) ) ;
#179 = ORIENTED_EDGE ( 'NONE', *, *, #562, .T. ) ;
#180 = UNCERTAINTY_MEASURE_WITH_UNIT (LENGTH_MEASURE( 1.000000000000000082E-05 ), #418, 'distance_accuracy_value', 'NONE');
#181 = CARTESIAN_POINT ( 'NONE',  ( 0.000000000000000000, 5.381608387039519492, 27.85669754139140863 ) ) ;
#182 = DIRECTION ( 'NONE',  ( 0.000000000000000000, 0.000000000000000000, -1.000000000000000000 ) ) ;
#183 = CARTESIAN_POINT ( 'NONE',  ( -3.445730029430492596E-15, 0.000000000000000000, 27.64393693779016559 ) ) ;
#184 = EDGE_CURVE ( 'NONE', #236, #495, #303, .T. ) ;
#185 = DIRECTION ( 'NONE',  ( -0.000000000000000000, 1.000000000000000000, -0.000000000000000000 ) ) ;
#186 = CARTESIAN_POINT ( 'NONE',  ( -80.49979935722657842, 7.900000000000000355, -258.9978932508786329 ) ) ;
#187 = EDGE_CURVE ( 'NONE', #380, #255, #169, .T. ) ;
#188 = CARTESIAN_POINT ( 'NONE',  ( -0.3465100987692495416, 0.000000000000000000, 28.67300342144622860 ) ) ;
#189 = AXIS2_PLACEMENT_3D ( 'NONE', #100, #501, #107 ) ;
#190 = CIRCLE ( 'NONE', #350, 15.00000000000000178 ) ;
#191 = CLOSED_SHELL ( 'NONE', ( #57, #311, #291, #28, #438, #449, #439, #145, #428, #392, #521, #317, #275, #46, #18, #7 ) ) ;
#192 = CARTESIAN_POINT ( 'NONE',  ( -107.5000000000000000, 7.900000000000000355, 32.50000000000001421 ) ) ;
#193 = PLANE ( 'NONE',  #497 ) ;
#194 = CARTESIAN_POINT ( 'NONE',  ( -1.216793832647199869, -0.000000000000000000, 29.52745867951746916 ) ) ;
#195 = VERTEX_POINT ( 'NONE', #254 ) ;
#196 = FACE_OUTER_BOUND ( 'NONE', #507, .T. ) ;
#197 = CARTESIAN_POINT ( 'NONE',  ( -80.49979935722657842, 0.000000000000000000, -258.9978932508786329 ) ) ;
#198 = DIRECTION ( 'NONE',  ( 0.000000000000000000, -1.000000000000000000, 0.000000000000000000 ) ) ;
#199 = DIRECTION ( 'NONE',  ( -1.000000000000000000, 0.000000000000000000, 0.000000000000000000 ) ) ;
#200 = ORIENTED_EDGE ( 'NONE', *, *, #155, .T. ) ;
#201 = FACE_OUTER_BOUND ( 'NONE', #223, .T. ) ;
#202 = DIRECTION ( 'NONE',  ( -0.000000000000000000, -1.000000000000000000, -0.000000000000000000 ) ) ;
#203 = ORIENTED_EDGE ( 'NONE', *, *, #184, .T. ) ;
#204 = CARTESIAN_POINT ( 'NONE',  ( -126.2100000000000222, 0.000000000000000000, 15.00000000000001421 ) ) ;
#205 = CARTESIAN_POINT ( 'NONE',  ( 0.000000000000000000, 7.900000000000000355, 0.000000000000000000 ) ) ;
#206 = ORIENTED_EDGE ( 'NONE', *, *, #538, .F. ) ;
#207 = CARTESIAN_POINT ( 'NONE',  ( -0.2200034958628730997, 7.900000000000000355, 29.15058314960778674 ) ) ;
#208 = ORIENTED_EDGE ( 'NONE', *, *, #187, .F. ) ;
#209 = DIRECTION ( 'NONE',  ( 1.000000000000000000, -0.000000000000000000, 9.251858538542971828E-16 ) ) ;
#210 = ORIENTED_EDGE ( 'NONE', *, *, #91, .T. ) ;
#211 = CARTESIAN_POINT ( 'NONE',  ( -1.847054605734963051, 7.900000000000000355, 30.50814423894077265 ) ) ;
#212 = AXIS2_PLACEMENT_3D ( 'NONE', #205, #199, #421 ) ;
#213 = EDGE_LOOP ( 'NONE', ( #304, #341, #337, #25, #555, #353, #298, #468, #432, #243, #134 ) ) ;
#214 = CARTESIAN_POINT ( 'NONE',  ( 5.962456693602089293E-12, 2.517245366837318699, 29.51745569948678138 ) ) ;
#215 = ADVANCED_BREP_SHAPE_REPRESENTATION ( 'Part5 Blade 1', ( #127, #374 ), #70 ) ;
#216 = ORIENTED_EDGE ( 'NONE', *, *, #34, .F. ) ;
#217 = VERTEX_POINT ( 'NONE', #442 ) ;
#218 = EDGE_LOOP ( 'NONE', ( #44, #51, #154, #208 ) ) ;
#219 = DIRECTION ( 'NONE',  ( -0.000000000000000000, 1.000000000000000000, -0.000000000000000000 ) ) ;
#220 = AXIS2_PLACEMENT_3D ( 'NONE', #477, #534, #296 ) ;
#221 = AXIS2_PLACEMENT_3D ( 'NONE', #463, #238, #369 ) ;
#222 = EDGE_CURVE ( 'NONE', #88, #236, #43, .T. ) ;
#223 = EDGE_LOOP ( 'NONE', ( #334 ) ) ;
#224 = LINE ( 'NONE', #540, #256 ) ;
#225 = DIRECTION ( 'NONE',  ( 0.000000000000000000, -1.000000000000000000, 0.000000000000000000 ) ) ;
#226 = EDGE_CURVE ( 'NONE', #161, #380, #27, .T. ) ;
#227 = CARTESIAN_POINT ( 'NONE',  ( -107.5000000000000000, 0.000000000000000000, 30.00000000000001421 ) ) ;
#228 = DIRECTION ( 'NONE',  ( -1.000000000000000000, 0.000000000000000000, 1.224646799147352961E-16 ) ) ;
#229 = CARTESIAN_POINT ( 'NONE',  ( -167.5000000000000000, 0.000000000000000000, 2.051283388571816256E-14 ) ) ;
#230 = AXIS2_PLACEMENT_3D ( 'NONE', #283, #336, #5 ) ;
#231 = CARTESIAN_POINT ( 'NONE',  ( 0.000000000000000000, 0.000000000000000000, 0.000000000000000000 ) ) ;
#232 = EDGE_LOOP ( 'NONE', ( #356 ) ) ;
#233 = PRODUCT_DEFINITION_CONTEXT ( 'detailed design', #452, 'design' ) ;
#234 = FACE_OUTER_BOUND ( 'NONE', #232, .T. ) ;
#235 = EDGE_CURVE ( 'NONE', #338, #338, #474, .T. ) ;
#236 = VERTEX_POINT ( 'NONE', #141 ) ;
#237 = CARTESIAN_POINT ( 'NONE',  ( -80.49979935722657842, 7.900000000000000355, -258.9978932508786329 ) ) ;
#238 = DIRECTION ( 'NONE',  ( -0.000000000000000000, 1.000000000000000000, -0.000000000000000000 ) ) ;
#239 = EDGE_CURVE ( 'NONE', #441, #324, #8, .T. ) ;
#240 = VECTOR ( 'NONE', #547, 1000.000000000000000 ) ;
#241 = PRODUCT_DEFINITION_FORMATION_WITH_SPECIFIED_SOURCE ( 'Symmetric', '', #104, .NOT_KNOWN. ) ;
#242 = DIRECTION ( 'NONE',  ( 0.000000000000000000, -0.000000000000000000, 1.000000000000000000 ) ) ;
#243 = ORIENTED_EDGE ( 'NONE', *, *, #52, .T. ) ;
#244 = DIRECTION ( 'NONE',  ( 0.000000000000000000, 1.000000000000000000, 0.000000000000000000 ) ) ;
#245 = DIRECTION ( 'NONE',  ( 0.000000000000000000, 0.000000000000000000, 1.000000000000000000 ) ) ;
#246 = VERTEX_POINT ( 'NONE', #305 ) ;
#247 = DIRECTION ( 'NONE',  ( -1.000000000000000000, 0.000000000000000000, 1.224646799147352961E-16 ) ) ;
#248 = CYLINDRICAL_SURFACE ( 'NONE', #384, 2.500000000000002220 ) ;
#249 = EDGE_LOOP ( 'NONE', ( #389 ) ) ;
#250 = CARTESIAN_POINT ( 'NONE',  ( 0.000000000000000000, 6.640803983059847759, 27.97086135555339226 ) ) ;
#251 = EDGE_LOOP ( 'NONE', ( #174, #407, #172, #409 ) ) ;
#252 = CARTESIAN_POINT ( 'NONE',  ( 4.336808689942017736E-16, 8.166596728273818329, 28.10919021371140403 ) ) ;
#253 =( NAMED_UNIT ( * ) SI_UNIT ( $, .STERADIAN. ) SOLID_ANGLE_UNIT ( ) );
#254 = CARTESIAN_POINT ( 'NONE',  ( -104.9999999999999858, 0.000000000000000000, 39.30651772238768871 ) ) ;
#255 = VERTEX_POINT ( 'NONE', #49 ) ;
#256 = VECTOR ( 'NONE', #14, 1000.000000000000000 ) ;
#257 = CARTESIAN_POINT ( 'NONE',  ( 0.000000000000000000, 0.000000000000000000, 27.36874206744403537 ) ) ;
#258 = ORIENTED_EDGE ( 'NONE', *, *, #94, .T. ) ;
#259 = CARTESIAN_POINT ( 'NONE',  ( 0.000000000000000000, 2.748274971876867756, 27.61793895723710079 ) ) ;
#260 = VERTEX_POINT ( 'NONE', #176 ) ;
#261 = CARTESIAN_POINT ( 'NONE',  ( 0.000000000000000000, 7.900000000000000355, 28.08502052679877892 ) ) ;
#262 = CYLINDRICAL_SURFACE ( 'NONE', #69, 2.500000000000000000 ) ;
#263 = PRESENTATION_LAYER_ASSIGNMENT (  '', '', ( #448 ) ) ;
#264 = CARTESIAN_POINT ( 'NONE',  ( -126.2100000000000222, 7.900000000000000355, 15.00000000000001421 ) ) ;
#265 = MECHANICAL_DESIGN_GEOMETRIC_PRESENTATION_REPRESENTATION (  '', ( #448 ), #394 ) ;
#266 = CARTESIAN_POINT ( 'NONE',  ( -105.0000000000000000, 7.900000000000000355, 30.00000000000001421 ) ) ;
#267 = CARTESIAN_POINT ( 'NONE',  ( -104.9999999999999858, 5.266666510560295222, 39.76884101914136949 ) ) ;
#268 = EDGE_LOOP ( 'NONE', ( #457 ) ) ;
#269 = DIRECTION ( 'NONE',  ( 0.000000000000000000, -1.000000000000000000, 0.000000000000000000 ) ) ;
#270 = DIRECTION ( 'NONE',  ( -0.000000000000000000, -1.000000000000000000, -0.000000000000000000 ) ) ;
#271 = AXIS2_PLACEMENT_3D ( 'NONE', #103, #270, #357 ) ;
#272 = AXIS2_PLACEMENT_3D ( 'NONE', #398, #358, #500 ) ;
#273 = DIRECTION ( 'NONE',  ( 0.000000000000000000, 0.000000000000000000, 1.000000000000000000 ) ) ;
#274 = FACE_OUTER_BOUND ( 'NONE', #364, .T. ) ;
#275 = ADVANCED_FACE ( 'NONE', ( #379 ), #314, .T. ) ;
#276 = ORIENTED_EDGE ( 'NONE', *, *, #404, .T. ) ;
#277 = CARTESIAN_POINT ( 'NONE',  ( -105.0000000000000000, 0.000000000000000000, 32.50000000000000711 ) ) ;
#278 = VECTOR ( 'NONE', #178, 1000.000000000000000 ) ;
#279 = DIRECTION ( 'NONE',  ( -0.000000000000000000, 1.000000000000000000, -0.000000000000000000 ) ) ;
#280 =( NAMED_UNIT ( * ) SI_UNIT ( $, .STERADIAN. ) SOLID_ANGLE_UNIT ( ) );
#281 = EDGE_LOOP ( 'NONE', ( #284, #11, #203, #462 ) ) ;
#282 = DIRECTION ( 'NONE',  ( -0.000000000000000000, 1.000000000000000000, -0.000000000000000000 ) ) ;
#283 = CARTESIAN_POINT ( 'NONE',  ( -14.99999999999999822, 7.900000000000000355, 15.00000000000000355 ) ) ;
#284 = ORIENTED_EDGE ( 'NONE', *, *, #3, .F. ) ;
#285 = CARTESIAN_POINT ( 'NONE',  ( -1.846680604615879462, 5.953032669178107028, 30.33152787487197699 ) ) ;
#286 = FILL_AREA_STYLE_COLOUR ( '', #505 ) ;
#287 = EDGE_LOOP ( 'NONE', ( #535, #54, #318, #300 ) ) ;
#288 = CIRCLE ( 'NONE', #368, 299.3088395581452232 ) ;
#289 = AXIS2_PLACEMENT_3D ( 'NONE', #112, #282, #273 ) ;
#290 = APPLICATION_PROTOCOL_DEFINITION ( 'draft international standard', 'automotive_design', 1998, #297 ) ;
#291 = ADVANCED_FACE ( 'NONE', ( #340 ), #45, .F. ) ;
#292 = CARTESIAN_POINT ( 'NONE',  ( -0.6807071788052186934, 7.900000000000000355, 29.82855192358530516 ) ) ;
#293 = EDGE_LOOP ( 'NONE', ( #29 ) ) ;
#294 = CARTESIAN_POINT ( 'NONE',  ( -155.0000000000000284, 0.000000000000000000, 20.00000000000002487 ) ) ;
#295 = B_SPLINE_CURVE_WITH_KNOTS ( 'NONE', 3,
 ( #143, #183, #397, #493, #188, #152, #403, #194, #491, #310, #16, #24 ),
 .UNSPECIFIED., .F., .F.,
 ( 4, 2, 2, 2, 2, 4 ),
 ( 0.000000000000000000, 0.0008138856152706273927, 0.001627771230541254785, 0.002441656845811882286, 0.002848599653447195929, 0.003255542461082509571 ),
 .UNSPECIFIED. ) ;
#296 = DIRECTION ( 'NONE',  ( 0.000000000000000000, 0.000000000000000000, 1.000000000000000000 ) ) ;
#297 = APPLICATION_CONTEXT ( 'automotive_design' ) ;
#298 = ORIENTED_EDGE ( 'NONE', *, *, #3, .T. ) ;
#299 = CARTESIAN_POINT ( 'NONE',  ( 0.000000000000000000, 1.374137233363847077, 27.49334329774149310 ) ) ;
#300 = ORIENTED_EDGE ( 'NONE', *, *, #354, .T. ) ;
#301 = CIRCLE ( 'NONE', #271, 2.500000000000000444 ) ;
#302 = VECTOR ( 'NONE', #506, 1000.000000000000000 ) ;
#303 = LINE ( 'NONE', #443, #484 ) ;
#304 = ORIENTED_EDGE ( 'NONE', *, *, #15, .T. ) ;
#305 = CARTESIAN_POINT ( 'NONE',  ( -155.0000000000000284, 7.900000000000000355, 30.00000000000002132 ) ) ;
#306 = ORIENTED_EDGE ( 'NONE', *, *, #366, .F. ) ;
#307 = EDGE_CURVE ( 'NONE', #260, #81, #10, .T. ) ;
#308 = CARTESIAN_POINT ( 'NONE',  ( -167.5000000000000000, 7.900000000000000355, 2.051283388571816256E-14 ) ) ;
#309 = ORIENTED_EDGE ( 'NONE', *, *, #326, .F. ) ;
#310 = CARTESIAN_POINT ( 'NONE',  ( -1.584559545792023849, -0.000000000000000000, 29.70864330352348759 ) ) ;
#311 = ADVANCED_FACE ( 'NONE', ( #531 ), #193, .F. ) ;
#312 = EDGE_LOOP ( 'NONE', ( #525 ) ) ;
#313 = CARTESIAN_POINT ( 'NONE',  ( -80.49979935722657842, 0.000000000000000000, -258.9978932508786329 ) ) ;
#314 =( BOUNDED_SURFACE ( )  B_SPLINE_SURFACE ( 3, 2, ( 
 ( #171, #480, #133 ),
 ( #87, #214, #526 ),
 ( #385, #90, #136 ),
 ( #252, #381, #56 ) ),
 .UNSPECIFIED., .F., .F., .F. ) 
 B_SPLINE_SURFACE_WITH_KNOTS ( ( 4, 4 ),
 ( 3, 3 ),
 ( 0.1228811398452485520, 0.1311301423721737414 ),
 ( 0.000000000000000000, 1.000000000000000000 ),
 .UNSPECIFIED. ) 
 GEOMETRIC_REPRESENTATION_ITEM ( )  RATIONAL_B_SPLINE_SURFACE ( (
 ( 1.000000000000000000, 0.7942943096375367773, 1.000000000000000000),
 ( 1.000000000000000000, 0.7942277919911925332, 1.000000000000000000),
 ( 1.000000000000000000, 0.7941614270243847473, 1.000000000000000000),
 ( 1.000000000000000000, 0.7940952136880967682, 1.000000000000000000) ) ) 
 REPRESENTATION_ITEM ( '' )  SURFACE ( )  );
#315 = DIRECTION ( 'NONE',  ( -0.000000000000000000, -1.000000000000000000, -0.000000000000000000 ) ) ;
#316 = FACE_OUTER_BOUND ( 'NONE', #122, .T. ) ;
#317 = ADVANCED_FACE ( 'NONE', ( #363 ), #359, .T. ) ;
#318 = ORIENTED_EDGE ( 'NONE', *, *, #541, .F. ) ;
#319 = FACE_BOUND ( 'NONE', #249, .T. ) ;
#320 = CARTESIAN_POINT ( 'NONE',  ( -105.0000000000000000, 7.900000000000000355, 30.00000000000001421 ) ) ;
#321 = FACE_OUTER_BOUND ( 'NONE', #213, .T. ) ;
#322 = EDGE_CURVE ( 'NONE', #412, #195, #288, .T. ) ;
#323 = CARTESIAN_POINT ( 'NONE',  ( -155.0000000000000284, 7.900000000000000355, 15.00000000000001776 ) ) ;
#324 = VERTEX_POINT ( 'NONE', #227 ) ;
#325 = DIRECTION ( 'NONE',  ( -0.000000000000000000, -0.000000000000000000, -1.000000000000000000 ) ) ;
#326 = EDGE_CURVE ( 'NONE', #114, #260, #301, .T. ) ;
#327 = VECTOR ( 'NONE', #269, 1000.000000000000000 ) ;
#328 = ORIENTED_EDGE ( 'NONE', *, *, #15, .F. ) ;
#329 = CYLINDRICAL_SURFACE ( 'NONE', #289, 5.000000000000006217 ) ;
#330 = SURFACE_SIDE_STYLE ('',( #166 ) ) ;
#331 = ORIENTED_EDGE ( 'NONE', *, *, #239, .F. ) ;
#332 = CARTESIAN_POINT ( 'NONE',  ( -126.2100000000000222, 0.000000000000000000, 20.00000000000001776 ) ) ;
#333 =( NAMED_UNIT ( * ) PLANE_ANGLE_UNIT ( ) SI_UNIT ( $, .RADIAN. ) );
#334 = ORIENTED_EDGE ( 'NONE', *, *, #94, .F. ) ;
#335 = DIRECTION ( 'NONE',  ( 0.000000000000000000, 0.000000000000000000, 1.000000000000000000 ) ) ;
#336 = DIRECTION ( 'NONE',  ( -0.000000000000000000, 1.000000000000000000, -0.000000000000000000 ) ) ;
#337 = ORIENTED_EDGE ( 'NONE', *, *, #427, .T. ) ;
#338 = VERTEX_POINT ( 'NONE', #95 ) ;
#339 = EDGE_CURVE ( 'NONE', #195, #159, #2, .T. ) ;
#340 = FACE_OUTER_BOUND ( 'NONE', #281, .T. ) ;
#341 = ORIENTED_EDGE ( 'NONE', *, *, #226, .T. ) ;
#342 = CARTESIAN_POINT ( 'NONE',  ( -170.0000000000000000, 7.900000000000000355, 15.00000000000000533 ) ) ;
#343 = CARTESIAN_POINT ( 'NONE',  ( -170.0000000000000000, 7.900000000000000355, 2.081899558550500043E-14 ) ) ;
#344 = CARTESIAN_POINT ( 'NONE',  ( -170.0000000000000000, 7.900000000000000355, 2.081899558550500043E-14 ) ) ;
#345 = CARTESIAN_POINT ( 'NONE',  ( -1.845534180791821743, 0.000000000000000000, 29.79145559564411272 ) ) ;
#346 = CARTESIAN_POINT ( 'NONE',  ( -0.8786811659399484942, 7.899999999999999467, 30.01558611037464885 ) ) ;
#347 = EDGE_CURVE ( 'NONE', #424, #119, #536, .T. ) ;
#348 = LINE ( 'NONE', #344, #22 ) ;
#349 = AXIS2_PLACEMENT_3D ( 'NONE', #542, #147, #65 ) ;
#350 = AXIS2_PLACEMENT_3D ( 'NONE', #511, #504, #164 ) ;
#351 = CARTESIAN_POINT ( 'NONE',  ( 0.000000000000000000, 7.900000000000000355, 28.08502052679877892 ) ) ;
#352 = CIRCLE ( 'NONE', #84, 2.499999999999999556 ) ;
#353 = ORIENTED_EDGE ( 'NONE', *, *, #118, .T. ) ;
#354 = EDGE_CURVE ( 'NONE', #246, #441, #459, .T. ) ;
#355 = CARTESIAN_POINT ( 'NONE',  ( 0.000000000000000000, 7.900000000000000355, 0.000000000000000000 ) ) ;
#356 = ORIENTED_EDGE ( 'NONE', *, *, #472, .F. ) ;
#357 = DIRECTION ( 'NONE',  ( 0.000000000000000000, 0.000000000000000000, 1.000000000000000000 ) ) ;
#358 = DIRECTION ( 'NONE',  ( 0.000000000000000000, 1.000000000000000000, 0.000000000000000000 ) ) ;
#359 = CONICAL_SURFACE ( 'NONE', #60, 300.0000000000000000, 0.08726646259970399777 ) ;
#360 = CYLINDRICAL_SURFACE ( 'NONE', #21, 5.000000000000002665 ) ;
#361 = EDGE_CURVE ( 'NONE', #255, #412, #295, .T. ) ;
#362 = AXIS2_PLACEMENT_3D ( 'NONE', #20, #546, #377 ) ;
#363 = FACE_OUTER_BOUND ( 'NONE', #9, .T. ) ;
#364 = EDGE_LOOP ( 'NONE', ( #200 ) ) ;
#365 = CARTESIAN_POINT ( 'NONE',  ( -104.9999999999999858, 0.000000000000000000, 39.30651772238768871 ) ) ;
#366 = EDGE_CURVE ( 'NONE', #81, #516, #435, .T. ) ;
#367 = LINE ( 'NONE', #469, #498 ) ;
#368 = AXIS2_PLACEMENT_3D ( 'NONE', #313, #110, #64 ) ;
#369 = DIRECTION ( 'NONE',  ( 0.000000000000000000, 0.000000000000000000, 1.000000000000000000 ) ) ;
#370 = CARTESIAN_POINT ( 'NONE',  ( 0.000000000000000000, 0.000000000000000000, 0.000000000000000000 ) ) ;
#371 = CARTESIAN_POINT ( 'NONE',  ( -167.5000000000000000, 7.900000000000000355, 2.051283388571816256E-14 ) ) ;
#372 = FACE_BOUND ( 'NONE', #475, .T. ) ;
#373 = FACE_OUTER_BOUND ( 'NONE', #93, .T. ) ;
#374 = AXIS2_PLACEMENT_3D ( 'NONE', #128, #335, #425 ) ;
#375 = ORIENTED_EDGE ( 'NONE', *, *, #322, .F. ) ;
#376 = DIRECTION ( 'NONE',  ( 1.000000000000000000, -0.000000000000000000, -1.067522139062649809E-16 ) ) ;
#377 = DIRECTION ( 'NONE',  ( 0.000000000000000000, 0.000000000000000000, 1.000000000000000000 ) ) ;
#378 = ORIENTED_EDGE ( 'NONE', *, *, #411, .F. ) ;
#379 = FACE_OUTER_BOUND ( 'NONE', #218, .T. ) ;
#380 = VERTEX_POINT ( 'NONE', #261 ) ;
#381 = CARTESIAN_POINT ( 'NONE',  ( 4.336808689942017736E-16, 7.993829699411023171, 30.01485237976543630 ) ) ;
#382 = ORIENTED_EDGE ( 'NONE', *, *, #40, .T. ) ;
#383 = CIRCLE ( 'NONE', #85, 2.500000000000002220 ) ;
#384 = AXIS2_PLACEMENT_3D ( 'NONE', #192, #470, #35 ) ;
#385 = CARTESIAN_POINT ( 'NONE',  ( 4.336808689942017736E-16, 5.428160057915991210, 27.86092398079367172 ) ) ;
#386 = EDGE_LOOP ( 'NONE', ( #206, #276, #210, #519 ) ) ;
#387 = PRODUCT_RELATED_PRODUCT_CATEGORY ( 'part', '', ( #104 ) ) ;
#388 = DIRECTION ( 'NONE',  ( 9.251858538542971828E-16, 0.000000000000000000, -1.000000000000000000 ) ) ;
#389 = ORIENTED_EDGE ( 'NONE', *, *, #155, .F. ) ;
#390 = DIRECTION ( 'NONE',  ( -0.000000000000000000, 1.000000000000000000, -0.000000000000000000 ) ) ;
#391 = CARTESIAN_POINT ( 'NONE',  ( -0.3480365440568058411, 7.900000000000002132, 29.39189571083530339 ) ) ;
#392 = ADVANCED_FACE ( 'NONE', ( #234, #447 ), #360, .F. ) ;
#393 = DIRECTION ( 'NONE',  ( 0.000000000000000000, 0.000000000000000000, 1.000000000000000000 ) ) ;
#394 =( GEOMETRIC_REPRESENTATION_CONTEXT ( 3 ) GLOBAL_UNCERTAINTY_ASSIGNED_CONTEXT ( ( #180 ) ) GLOBAL_UNIT_ASSIGNED_CONTEXT ( ( #418, #333, #280 ) ) REPRESENTATION_CONTEXT ( 'NONE', 'WORKASPACE' ) );
#395 = CARTESIAN_POINT ( 'NONE',  ( -104.9999999999999858, 2.633333176862486358, 39.53768026407117731 ) ) ;
#396 = DIRECTION ( 'NONE',  ( -9.251858538542971828E-16, 0.000000000000000000, 1.000000000000000000 ) ) ;
#397 = CARTESIAN_POINT ( 'NONE',  ( -0.04388389653470382845, -0.000000000000000000, 27.91166443473254333 ) ) ;
#398 = CARTESIAN_POINT ( 'NONE',  ( -155.0000000000000284, 7.900000000000000355, 15.00000000000001776 ) ) ;
#399 = CARTESIAN_POINT ( 'NONE',  ( -80.49979935722657842, 7.900000000001128342, -258.9978932508786329 ) ) ;
#400 = CARTESIAN_POINT ( 'NONE',  ( -107.5000000000000000, 7.900000000000000355, 30.00000000000001421 ) ) ;
#401 = CIRCLE ( 'NONE', #485, 300.0000000000000000 ) ;
#402 = EDGE_CURVE ( 'NONE', #167, #195, #224, .T. ) ;
#403 = CARTESIAN_POINT ( 'NONE',  ( -0.8767776106013027704, 0.000000000000000000, 29.29751818154679199 ) ) ;
#404 = EDGE_CURVE ( 'NONE', #516, #114, #499, .T. ) ;
#405 = VECTOR ( 'NONE', #198, 1000.000000000000000 ) ;
#406 = DIRECTION ( 'NONE',  ( 0.000000000000000000, 0.000000000000000000, 1.000000000000000000 ) ) ;
#407 = ORIENTED_EDGE ( 'NONE', *, *, #105, .F. ) ;
#408 = CARTESIAN_POINT ( 'NONE',  ( -2.500000000000000444, 7.900000000000000355, 3.061616997868383141E-16 ) ) ;
#409 = ORIENTED_EDGE ( 'NONE', *, *, #461, .F. ) ;
#410 = DIRECTION ( 'NONE',  ( 0.000000000000000000, 0.000000000000000000, 1.000000000000000000 ) ) ;
#411 = EDGE_CURVE ( 'NONE', #124, #124, #162, .T. ) ;
#412 = VERTEX_POINT ( 'NONE', #66 ) ;
#413 = CARTESIAN_POINT ( 'NONE',  ( -105.0000000000000000, 7.900000000000000355, 30.00000000000001421 ) ) ;
#414 = CIRCLE ( 'NONE', #496, 2.499999999999999556 ) ;
#415 = VECTOR ( 'NONE', #325, 1000.000000000000000 ) ;
#416 = CYLINDRICAL_SURFACE ( 'NONE', #221, 5.000000000000000888 ) ;
#417 = CARTESIAN_POINT ( 'NONE',  ( -167.5000000000000000, 7.900000000000000355, 2.500000000000020428 ) ) ;
#418 =( LENGTH_UNIT ( ) NAMED_UNIT ( * ) SI_UNIT ( .MILLI., .METRE. ) );
#419 = ORIENTED_EDGE ( 'NONE', *, *, #123, .T. ) ;
#420 = LINE ( 'NONE', #37, #487 ) ;
#421 = DIRECTION ( 'NONE',  ( 0.000000000000000000, 0.000000000000000000, 1.000000000000000000 ) ) ;
#422 = AXIS2_PLACEMENT_3D ( 'NONE', #266, #450, #63 ) ;
#423 = CIRCLE ( 'NONE', #362, 5.000000000000006217 ) ;
#424 = VERTEX_POINT ( 'NONE', #229 ) ;
#425 = DIRECTION ( 'NONE',  ( 1.000000000000000000, 0.000000000000000000, 0.000000000000000000 ) ) ;
#426 = DIRECTION ( 'NONE',  ( -9.251858538542971828E-16, 0.000000000000000000, 1.000000000000000000 ) ) ;
#427 = EDGE_CURVE ( 'NONE', #380, #81, #23, .T. ) ;
#428 = ADVANCED_FACE ( 'NONE', ( #316, #274 ), #416, .F. ) ;
#429 = ORIENTED_EDGE ( 'NONE', *, *, #118, .F. ) ;
#430 = CARTESIAN_POINT ( 'NONE',  ( -170.0000000000000000, 7.900000000000000355, 15.00000000000000533 ) ) ;
#431 = CARTESIAN_POINT ( 'NONE',  ( -170.0000000000000000, 7.900000000000000355, 2.500000000000018208 ) ) ;
#432 = ORIENTED_EDGE ( 'NONE', *, *, #541, .T. ) ;
#433 = CARTESIAN_POINT ( 'NONE',  ( -14.99999999999999822, 0.000000000000000000, 20.00000000000000355 ) ) ;
#434 = CARTESIAN_POINT ( 'NONE',  ( -105.0000000000000000, 0.000000000000000000, 30.00000000000001421 ) ) ;
#435 = CIRCLE ( 'NONE', #189, 2.500000000000000444 ) ;
#436 = ORIENTED_EDGE ( 'NONE', *, *, #509, .T. ) ;
#437 = AXIS2_PLACEMENT_3D ( 'NONE', #204, #279, #160 ) ;
#438 = ADVANCED_FACE ( 'NONE', ( #460 ), #26, .F. ) ;
#439 = ADVANCED_FACE ( 'NONE', ( #551, #372, #77, #196 ), #553, .F. ) ;
#440 = DIRECTION ( 'NONE',  ( 0.000000000000000000, -1.000000000000000000, 0.000000000000000000 ) ) ;
#441 = VERTEX_POINT ( 'NONE', #30 ) ;
#442 = CARTESIAN_POINT ( 'NONE',  ( -126.2100000000000222, 7.900000000000000355, 20.00000000000001776 ) ) ;
#443 = CARTESIAN_POINT ( 'NONE',  ( -170.0000000000000000, 0.000000000000000000, 2.081899558550500043E-14 ) ) ;
#444 = ORIENTED_EDGE ( 'NONE', *, *, #354, .F. ) ;
#445 = DIRECTION ( 'NONE',  ( -0.000000000000000000, 1.000000000000000000, -0.000000000000000000 ) ) ;
#446 = ORIENTED_EDGE ( 'NONE', *, *, #490, .T. ) ;
#447 = FACE_OUTER_BOUND ( 'NONE', #99, .T. ) ;
#448 = STYLED_ITEM ( 'NONE', ( #149 ), #127 ) ;
#449 = ADVANCED_FACE ( 'NONE', ( #157, #74, #319, #321 ), #75, .T. ) ;
#450 = DIRECTION ( 'NONE',  ( -1.067522139062649809E-16, 0.000000000000000000, -1.000000000000000000 ) ) ;
#451 = CARTESIAN_POINT ( 'NONE',  ( -104.9999999999999858, 7.900000000000000355, 40.00000000000001421 ) ) ;
#452 = APPLICATION_CONTEXT ( 'automotive_design' ) ;
#453 = ORIENTED_EDGE ( 'NONE', *, *, #490, .F. ) ;
#454 = DIRECTION ( 'NONE',  ( 0.000000000000000000, 0.000000000000000000, 1.000000000000000000 ) ) ;
#455 = B_SPLINE_CURVE_WITH_KNOTS ( 'NONE', 3,
 ( #345, #55, #4, #132, #285, #48, #520 ),
 .UNSPECIFIED., .F., .F.,
 ( 4, 3, 4 ),
 ( 1.344254248476240664E-19, 0.005000000000062836125, 0.007932442557224224713 ),
 .UNSPECIFIED. ) ;
#456 = LINE ( 'NONE', #400, #165 ) ;
#457 = ORIENTED_EDGE ( 'NONE', *, *, #235, .T. ) ;
#458 = VECTOR ( 'NONE', #150, 1000.000000000000000 ) ;
#459 = LINE ( 'NONE', #19, #240 ) ;
#460 = FACE_OUTER_BOUND ( 'NONE', #106, .T. ) ;
#461 = EDGE_CURVE ( 'NONE', #489, #167, #115, .T. ) ;
#462 = ORIENTED_EDGE ( 'NONE', *, *, #550, .T. ) ;
#463 = CARTESIAN_POINT ( 'NONE',  ( -14.99999999999999822, 7.900000000000000355, 15.00000000000000355 ) ) ;
#464 = ORIENTED_EDGE ( 'NONE', *, *, #347, .F. ) ;
#465 = LINE ( 'NONE', #231, #50 ) ;
#466 = CARTESIAN_POINT ( 'NONE',  ( -107.5000000000000000, 0.000000000000000000, 32.50000000000001421 ) ) ;
#467 = CARTESIAN_POINT ( 'NONE',  ( -107.5000000000000000, 7.900000000000000355, 32.50000000000001421 ) ) ;
#468 = ORIENTED_EDGE ( 'NONE', *, *, #34, .T. ) ;
#469 = CARTESIAN_POINT ( 'NONE',  ( 0.000000000000000000, 7.900000000000000355, 0.000000000000000000 ) ) ;
#470 = DIRECTION ( 'NONE',  ( 0.000000000000000000, 1.000000000000000000, 0.000000000000000000 ) ) ;
#471 = ORIENTED_EDGE ( 'NONE', *, *, #411, .T. ) ;
#472 = EDGE_CURVE ( 'NONE', #175, #175, #116, .T. ) ;
#473 = CARTESIAN_POINT ( 'NONE',  ( -2.500000000000000444, 0.000000000000000000, 3.061616997868383141E-16 ) ) ;
#474 = CIRCLE ( 'NONE', #220, 5.000000000000006217 ) ;
#475 = EDGE_LOOP ( 'NONE', ( #73 ) ) ;
#476 = SHAPE_DEFINITION_REPRESENTATION ( #539, #215 ) ;
#477 = CARTESIAN_POINT ( 'NONE',  ( -155.0000000000000284, 7.900000000000000355, 15.00000000000001776 ) ) ;
#478 = EDGE_LOOP ( 'NONE', ( #471 ) ) ;
#479 = VERTEX_POINT ( 'NONE', #517 ) ;
#480 = CARTESIAN_POINT ( 'NONE',  ( -4.336808689942017243E-16, -0.2213877296981848763, 29.26869154430893971 ) ) ;
#481 = ORIENTED_EDGE ( 'NONE', *, *, #361, .T. ) ;
#482 = VERTEX_POINT ( 'NONE', #294 ) ;
#483 = CARTESIAN_POINT ( 'NONE',  ( -1.334576148957386854, 7.900000000000000355, 30.32287390194499110 ) ) ;
#484 = VECTOR ( 'NONE', #426, 1000.000000000000000 ) ;
#485 = AXIS2_PLACEMENT_3D ( 'NONE', #186, #58, #393 ) ;
#486 = FACE_OUTER_BOUND ( 'NONE', #513, .T. ) ;
#487 = VECTOR ( 'NONE', #376, 1000.000000000000000 ) ;
#488 = CARTESIAN_POINT ( 'NONE',  ( -1.847054605734963051, 7.900000000000000355, 30.50814423894077265 ) ) ;
#489 = VERTEX_POINT ( 'NONE', #79 ) ;
#490 = EDGE_CURVE ( 'NONE', #255, #260, #117, .T. ) ;
#491 = CARTESIAN_POINT ( 'NONE',  ( -1.337019087157531816, 0.000000000000000000, 29.59504263389403178 ) ) ;
#492 = FACE_OUTER_BOUND ( 'NONE', #36, .T. ) ;
#493 = CARTESIAN_POINT ( 'NONE',  ( -0.2189861715659161268, -0.000000000000000000, 28.43225841491218020 ) ) ;
#494 = EDGE_CURVE ( 'NONE', #441, #495, #190, .T. ) ;
#495 = VERTEX_POINT ( 'NONE', #120 ) ;
#496 = AXIS2_PLACEMENT_3D ( 'NONE', #554, #315, #245 ) ;
#497 = AXIS2_PLACEMENT_3D ( 'NONE', #355, #72, #59 ) ;
#498 = VECTOR ( 'NONE', #247, 1000.000000000000000 ) ;
#499 = LINE ( 'NONE', #408, #327 ) ;
#500 = DIRECTION ( 'NONE',  ( 0.000000000000000000, 0.000000000000000000, 1.000000000000000000 ) ) ;
#501 = DIRECTION ( 'NONE',  ( 0.000000000000000000, 1.000000000000000000, 0.000000000000000000 ) ) ;
#502 = ORIENTED_EDGE ( 'NONE', *, *, #550, .F. ) ;
#503 = DIRECTION ( 'NONE',  ( 0.000000000000000000, 0.000000000000000000, 1.000000000000000000 ) ) ;
#504 = DIRECTION ( 'NONE',  ( -0.000000000000000000, -1.000000000000000000, -0.000000000000000000 ) ) ;
#505 = COLOUR_RGB ( '',0.7921568627450980005, 0.8196078431372548767, 0.9333333333333333481 ) ;
#506 = DIRECTION ( 'NONE',  ( 1.387778780781445478E-15, 0.000000000000000000, 1.000000000000000000 ) ) ;
#507 = EDGE_LOOP ( 'NONE', ( #453, #481, #151, #71, #436, #331, #47, #560, #419, #527, #61 ) ) ;
#508 = DIRECTION ( 'NONE',  ( 0.000000000000000000, -0.000000000000000000, 1.000000000000000000 ) ) ;
#509 = EDGE_CURVE ( 'NONE', #167, #324, #383, .T. ) ;
#510 = ORIENTED_EDGE ( 'NONE', *, *, #461, .T. ) ;
#511 = CARTESIAN_POINT ( 'NONE',  ( -155.0000000000000284, 0.000000000000000000, 15.00000000000001776 ) ) ;
#512 = FACE_OUTER_BOUND ( 'NONE', #83, .T. ) ;
#513 = EDGE_LOOP ( 'NONE', ( #429, #464, #17, #156 ) ) ;
#514 = DIRECTION ( 'NONE',  ( 0.000000000000000000, 1.000000000000000000, 0.000000000000000000 ) ) ;
#515 = DIRECTION ( 'NONE',  ( 0.000000000000000000, -1.000000000000000000, 0.000000000000000000 ) ) ;
#516 = VERTEX_POINT ( 'NONE', #33 ) ;
#517 = CARTESIAN_POINT ( 'NONE',  ( -14.99999999999999822, 7.900000000000000355, 20.00000000000000355 ) ) ;
#518 = PLANE ( 'NONE',  #212 ) ;
#519 = ORIENTED_EDGE ( 'NONE', *, *, #347, .T. ) ;
#520 = CARTESIAN_POINT ( 'NONE',  ( -1.847054605734963051, 7.900000000000000355, 30.50814423894077265 ) ) ;
#521 = ADVANCED_FACE ( 'NONE', ( #201, #556 ), #329, .F. ) ;
#522 = CARTESIAN_POINT ( 'NONE',  ( -105.0000000000000000, 0.000000000000000000, 32.50000000000000711 ) ) ;
#523 = AXIS2_PLACEMENT_3D ( 'NONE', #343, #209, #388 ) ;
#524 = AXIS2_PLACEMENT_3D ( 'NONE', #237, #514, #508 ) ;
#525 = ORIENTED_EDGE ( 'NONE', *, *, #235, .F. ) ;
#526 = CARTESIAN_POINT ( 'NONE',  ( -1.846011094230003646, 2.471836015932405317, 30.01572194306930541 ) ) ;
#527 = ORIENTED_EDGE ( 'NONE', *, *, #91, .F. ) ;
#528 = APPLICATION_PROTOCOL_DEFINITION ( 'draft international standard', 'automotive_design', 1998, #452 ) ;
#529 = CARTESIAN_POINT ( 'NONE',  ( 0.000000000000000000, 7.900000000000000355, 28.08502052679877892 ) ) ;
#530 = CARTESIAN_POINT ( 'NONE',  ( -167.5000000000000000, 7.900000000000000355, 2.500000000000020428 ) ) ;
#531 = FACE_OUTER_BOUND ( 'NONE', #386, .T. ) ;
#532 = CYLINDRICAL_SURFACE ( 'NONE', #163, 2.500000000000000000 ) ;
#533 = UNCERTAINTY_MEASURE_WITH_UNIT (LENGTH_MEASURE( 1.000000000000000082E-05 ), #135, 'distance_accuracy_value', 'NONE');
#534 = DIRECTION ( 'NONE',  ( -0.000000000000000000, 1.000000000000000000, -0.000000000000000000 ) ) ;
#535 = ORIENTED_EDGE ( 'NONE', *, *, #239, .T. ) ;
#536 = LINE ( 'NONE', #308, #129 ) ;
#537 = ORIENTED_EDGE ( 'NONE', *, *, #402, .T. ) ;
#538 = EDGE_CURVE ( 'NONE', #516, #119, #367, .T. ) ;
#539 = PRODUCT_DEFINITION_SHAPE ( 'NONE', 'NONE',  #32 ) ;
#540 = CARTESIAN_POINT ( 'NONE',  ( -105.0000000000000000, 0.000000000000000000, 30.00000000000001421 ) ) ;
#541 = EDGE_CURVE ( 'NONE', #246, #41, #420, .T. ) ;
#542 = CARTESIAN_POINT ( 'NONE',  ( -126.2100000000000222, 7.900000000000000355, 15.00000000000001421 ) ) ;
#543 = DIRECTION ( 'NONE',  ( 0.000000000000000000, 0.000000000000000000, 1.000000000000000000 ) ) ;
#544 = SURFACE_STYLE_USAGE ( .BOTH. , #330 ) ;
#545 = CARTESIAN_POINT ( 'NONE',  ( 0.000000000000000000, 7.900000000000000355, 0.000000000000000000 ) ) ;
#546 = DIRECTION ( 'NONE',  ( -0.000000000000000000, 1.000000000000000000, -0.000000000000000000 ) ) ;
#547 = DIRECTION ( 'NONE',  ( 0.000000000000000000, -1.000000000000000000, 0.000000000000000000 ) ) ;
#548 = EDGE_CURVE ( 'NONE', #489, #159, #561, .T. ) ;
#549 = DIRECTION ( 'NONE',  ( 1.000000000000000000, 0.000000000000000000, -1.387778780781445478E-15 ) ) ;
#550 = EDGE_CURVE ( 'NONE', #495, #552, #113, .T. ) ;
#551 = FACE_BOUND ( 'NONE', #131, .T. ) ;
#552 = VERTEX_POINT ( 'NONE', #342 ) ;
#553 = PLANE ( 'NONE',  #102 ) ;
#554 = CARTESIAN_POINT ( 'NONE',  ( -167.5000000000000000, 0.000000000000000000, 2.500000000000020428 ) ) ;
#555 = ORIENTED_EDGE ( 'NONE', *, *, #538, .T. ) ;
#556 = FACE_OUTER_BOUND ( 'NONE', #268, .T. ) ;
#557 = CIRCLE ( 'NONE', #230, 5.000000000000000888 ) ;
#558 = CIRCLE ( 'NONE', #272, 15.00000000000000178 ) ;
#559 = CYLINDRICAL_SURFACE ( 'NONE', #153, 15.00000000000000000 ) ;
#560 = ORIENTED_EDGE ( 'NONE', *, *, #184, .F. ) ;
#561 = LINE ( 'NONE', #320, #302 ) ;
#562 = EDGE_CURVE ( 'NONE', #412, #161, #455, .T. ) ;
#563 = ORIENTED_EDGE ( 'NONE', *, *, #339, .T. ) ;
ENDSEC;
END-ISO-10303-21;
