ISO-10303-21;
HEADER;
FILE_DESCRIPTION (( 'STEP AP214' ),
    '1' );
FILE_NAME ('Washer ISO 7089 - 10.STEP',
    '2025-08-04T11:00:07',
    ( '' ),
    ( '' ),
    'SwSTEP 2.0',
    'SolidWorks 2025',
    '' );
FILE_SCHEMA (( 'AUTOMOTIVE_DESIGN' ));
ENDSEC;

DATA;
#1 = AXIS2_PLACEMENT_3D ( 'NONE', #68, #7, #107 ) ;
#2 =( LENGTH_UNIT ( ) NAMED_UNIT ( * ) SI_UNIT ( .MILLI., .METRE. ) );
#3 = APPLICATION_CONTEXT ( 'automotive_design' ) ;
#4 = PRODUCT_RELATED_PRODUCT_CATEGORY ( 'part', '', ( #88 ) ) ;
#5 =( NAMED_UNIT ( * ) SI_UNIT ( $, .STERADIAN. ) SOLID_ANGLE_UNIT ( ) );
#6 = CARTESIAN_POINT ( 'NONE',  ( -2.000000000000001776, 0.000000000000000000, 10.00000000000000000 ) ) ;
#7 = DIRECTION ( 'NONE',  ( -1.000000000000000000, -0.000000000000000000, -0.000000000000000000 ) ) ;
#8 = CARTESIAN_POINT ( 'NONE',  ( -2.000000000000000888, 10.00000000000000000, 0.000000000000000000 ) ) ;
#9 =( GEOMETRIC_REPRESENTATION_CONTEXT ( 3 ) GLOBAL_UNCERTAINTY_ASSIGNED_CONTEXT ( ( #113 ) ) GLOBAL_UNIT_ASSIGNED_CONTEXT ( ( #2, #64, #91 ) ) REPRESENTATION_CONTEXT ( 'NONE', 'WORKASPACE' ) );
#10 = PRODUCT_DEFINITION_SHAPE ( 'NONE', 'NONE',  #111 ) ;
#11 = CIRCLE ( 'NONE', #1, 10.00000000000000000 ) ;
#12 = PLANE ( 'NONE',  #110 ) ;
#13 = FACE_BOUND ( 'NONE', #95, .T. ) ;
#14 = ORIENTED_EDGE ( 'NONE', *, *, #48, .T. ) ;
#15 = EDGE_LOOP ( 'NONE', ( #31 ) ) ;
#16 = VERTEX_POINT ( 'NONE', #78 ) ;
#17 = DIRECTION ( 'NONE',  ( 0.000000000000000000, 0.000000000000000000, 1.000000000000000000 ) ) ;
#18 =( GEOMETRIC_REPRESENTATION_CONTEXT ( 3 ) GLOBAL_UNCERTAINTY_ASSIGNED_CONTEXT ( ( #21 ) ) GLOBAL_UNIT_ASSIGNED_CONTEXT ( ( #58, #98, #5 ) ) REPRESENTATION_CONTEXT ( 'NONE', 'WORKASPACE' ) );
#19 = CLOSED_SHELL ( 'NONE', ( #101, #29, #54, #60 ) ) ;
#20 = EDGE_LOOP ( 'NONE', ( #66 ) ) ;
#21 = UNCERTAINTY_MEASURE_WITH_UNIT (LENGTH_MEASURE( 1.000000000000000082E-05 ), #58, 'distance_accuracy_value', 'NONE');
#22 = FACE_OUTER_BOUND ( 'NONE', #30, .T. ) ;
#23 = CIRCLE ( 'NONE', #90, 5.250000000000000000 ) ;
#24 = CYLINDRICAL_SURFACE ( 'NONE', #38, 10.00000000000000000 ) ;
#25 = CIRCLE ( 'NONE', #74, 5.250000000000000000 ) ;
#26 = DIRECTION ( 'NONE',  ( -1.000000000000000000, -0.000000000000000000, -0.000000000000000000 ) ) ;
#27 = VERTEX_POINT ( 'NONE', #86 ) ;
#28 = EDGE_CURVE ( 'NONE', #16, #16, #63, .T. ) ;
#29 = ADVANCED_FACE ( 'NONE', ( #56, #13 ), #12, .F. ) ;
#30 = EDGE_LOOP ( 'NONE', ( #112 ) ) ;
#31 = ORIENTED_EDGE ( 'NONE', *, *, #79, .T. ) ;
#32 = ORIENTED_EDGE ( 'NONE', *, *, #119, .T. ) ;
#33 = FACE_BOUND ( 'NONE', #114, .T. ) ;
#34 = DIRECTION ( 'NONE',  ( 0.000000000000000000, 0.000000000000000000, 1.000000000000000000 ) ) ;
#35 = CARTESIAN_POINT ( 'NONE',  ( -34.92499999999994742, 0.000000000000000000, 0.000000000000000000 ) ) ;
#36 = APPLICATION_PROTOCOL_DEFINITION ( 'draft international standard', 'automotive_design', 1998, #3 ) ;
#37 = STYLED_ITEM ( 'NONE', ( #82 ), #42 ) ;
#38 = AXIS2_PLACEMENT_3D ( 'NONE', #89, #100, #34 ) ;
#39 = AXIS2_PLACEMENT_3D ( 'NONE', #106, #104, #92 ) ;
#40 = DIRECTION ( 'NONE',  ( 0.000000000000000000, 0.000000000000000000, 1.000000000000000000 ) ) ;
#41 = DIRECTION ( 'NONE',  ( -1.000000000000000000, -0.000000000000000000, -0.000000000000000000 ) ) ;
#42 = MANIFOLD_SOLID_BREP ( 'Base-Revolve', #19 ) ;
#43 = AXIS2_PLACEMENT_3D ( 'NONE', #35, #41, #96 ) ;
#44 = DIRECTION ( 'NONE',  ( -1.000000000000000000, 0.000000000000000000, -0.000000000000000000 ) ) ;
#45 = AXIS2_PLACEMENT_3D ( 'NONE', #8, #116, #50 ) ;
#46 = CARTESIAN_POINT ( 'NONE',  ( 0.000000000000000000, 5.250000000000000000, 0.000000000000000000 ) ) ;
#47 = DIRECTION ( 'NONE',  ( -0.000000000000000000, 0.000000000000000000, 1.000000000000000000 ) ) ;
#48 = EDGE_CURVE ( 'NONE', #27, #27, #23, .T. ) ;
#49 = CYLINDRICAL_SURFACE ( 'NONE', #43, 5.250000000000000000 ) ;
#50 = DIRECTION ( 'NONE',  ( 0.000000000000000000, 0.000000000000000000, -1.000000000000000000 ) ) ;
#51 = PLANE ( 'NONE',  #45 ) ;
#52 = APPLICATION_CONTEXT ( 'automotive_design' ) ;
#53 = EDGE_LOOP ( 'NONE', ( #67 ) ) ;
#54 = ADVANCED_FACE ( 'NONE', ( #71, #70 ), #24, .T. ) ;
#55 = ORIENTED_EDGE ( 'NONE', *, *, #48, .F. ) ;
#56 = FACE_OUTER_BOUND ( 'NONE', #53, .T. ) ;
#57 = DIRECTION ( 'NONE',  ( 0.000000000000000000, 0.000000000000000000, 1.000000000000000000 ) ) ;
#58 =( LENGTH_UNIT ( ) NAMED_UNIT ( * ) SI_UNIT ( .MILLI., .METRE. ) );
#59 = CARTESIAN_POINT ( 'NONE',  ( 0.000000000000000000, 0.000000000000000000, 5.250000000000000000 ) ) ;
#60 = ADVANCED_FACE ( 'NONE', ( #33, #108 ), #51, .F. ) ;
#61 = ADVANCED_BREP_SHAPE_REPRESENTATION ( 'Washer ISO 7089 - 10_Washer ISO 7089 - 10', ( #42, #87 ), #18 ) ;
#62 = ORIENTED_EDGE ( 'NONE', *, *, #79, .F. ) ;
#63 = CIRCLE ( 'NONE', #39, 10.00000000000000000 ) ;
#64 =( NAMED_UNIT ( * ) PLANE_ANGLE_UNIT ( ) SI_UNIT ( $, .RADIAN. ) );
#65 = PRODUCT_DEFINITION_CONTEXT ( 'detailed design', #3, 'design' ) ;
#66 = ORIENTED_EDGE ( 'NONE', *, *, #28, .T. ) ;
#67 = ORIENTED_EDGE ( 'NONE', *, *, #28, .F. ) ;
#68 = CARTESIAN_POINT ( 'NONE',  ( -2.000000000000001776, 0.000000000000000000, 0.000000000000000000 ) ) ;
#69 = DIRECTION ( 'NONE',  ( -1.000000000000000000, -0.000000000000000000, -0.000000000000000000 ) ) ;
#70 = FACE_OUTER_BOUND ( 'NONE', #20, .T. ) ;
#71 = FACE_OUTER_BOUND ( 'NONE', #105, .T. ) ;
#72 = FACE_OUTER_BOUND ( 'NONE', #103, .T. ) ;
#73 = SURFACE_STYLE_FILL_AREA ( #80 ) ;
#74 = AXIS2_PLACEMENT_3D ( 'NONE', #85, #69, #17 ) ;
#75 = SURFACE_SIDE_STYLE ('',( #73 ) ) ;
#76 = PRODUCT_CONTEXT ( 'NONE', #52, 'mechanical' ) ;
#77 = APPLICATION_PROTOCOL_DEFINITION ( 'draft international standard', 'automotive_design', 1998, #52 ) ;
#78 = CARTESIAN_POINT ( 'NONE',  ( 0.000000000000000000, 0.000000000000000000, 10.00000000000000000 ) ) ;
#79 = EDGE_CURVE ( 'NONE', #109, #109, #11, .T. ) ;
#80 = FILL_AREA_STYLE ('',( #83 ) ) ;
#81 = CARTESIAN_POINT ( 'NONE',  ( -2.000000000000001776, 0.000000000000000000, 0.000000000000000000 ) ) ;
#82 = PRESENTATION_STYLE_ASSIGNMENT (( #94 ) ) ;
#83 = FILL_AREA_STYLE_COLOUR ( '', #84 ) ;
#84 = COLOUR_RGB ( '',0.7921568627450980005, 0.8196078431372548767, 0.9333333333333333481 ) ;
#85 = CARTESIAN_POINT ( 'NONE',  ( 0.000000000000000000, 0.000000000000000000, 0.000000000000000000 ) ) ;
#86 = CARTESIAN_POINT ( 'NONE',  ( -2.000000000000001776, 0.000000000000000000, 5.250000000000000000 ) ) ;
#87 = AXIS2_PLACEMENT_3D ( 'NONE', #97, #40, #117 ) ;
#88 = PRODUCT ( 'Washer ISO 7089 - 10_Washer ISO 7089 - 10', 'Washer ISO 7089 - 10_Washer ISO 7089 - 10', '', ( #76 ) ) ;
#89 = CARTESIAN_POINT ( 'NONE',  ( -34.92499999999994742, 0.000000000000000000, 0.000000000000000000 ) ) ;
#90 = AXIS2_PLACEMENT_3D ( 'NONE', #81, #26, #57 ) ;
#91 =( NAMED_UNIT ( * ) SI_UNIT ( $, .STERADIAN. ) SOLID_ANGLE_UNIT ( ) );
#92 = DIRECTION ( 'NONE',  ( 0.000000000000000000, 0.000000000000000000, 1.000000000000000000 ) ) ;
#93 = PRODUCT_DEFINITION_FORMATION_WITH_SPECIFIED_SOURCE ( 'Symmetric', '', #88, .NOT_KNOWN. ) ;
#94 = SURFACE_STYLE_USAGE ( .BOTH. , #75 ) ;
#95 = EDGE_LOOP ( 'NONE', ( #32 ) ) ;
#96 = DIRECTION ( 'NONE',  ( 0.000000000000000000, 0.000000000000000000, 1.000000000000000000 ) ) ;
#97 = CARTESIAN_POINT ( 'NONE',  ( 0.000000000000000000, 0.000000000000000000, 0.000000000000000000 ) ) ;
#98 =( NAMED_UNIT ( * ) PLANE_ANGLE_UNIT ( ) SI_UNIT ( $, .RADIAN. ) );
#99 = SHAPE_DEFINITION_REPRESENTATION ( #10, #61 ) ;
#100 = DIRECTION ( 'NONE',  ( -1.000000000000000000, -0.000000000000000000, -0.000000000000000000 ) ) ;
#101 = ADVANCED_FACE ( 'NONE', ( #22, #72 ), #49, .F. ) ;
#102 = PRESENTATION_LAYER_ASSIGNMENT (  '', '', ( #37 ) ) ;
#103 = EDGE_LOOP ( 'NONE', ( #14 ) ) ;
#104 = DIRECTION ( 'NONE',  ( -1.000000000000000000, -0.000000000000000000, -0.000000000000000000 ) ) ;
#105 = EDGE_LOOP ( 'NONE', ( #62 ) ) ;
#106 = CARTESIAN_POINT ( 'NONE',  ( 0.000000000000000000, 0.000000000000000000, 0.000000000000000000 ) ) ;
#107 = DIRECTION ( 'NONE',  ( 0.000000000000000000, 0.000000000000000000, 1.000000000000000000 ) ) ;
#108 = FACE_OUTER_BOUND ( 'NONE', #15, .T. ) ;
#109 = VERTEX_POINT ( 'NONE', #6 ) ;
#110 = AXIS2_PLACEMENT_3D ( 'NONE', #46, #44, #47 ) ;
#111 = PRODUCT_DEFINITION ( 'General', '', #93, #65 ) ;
#112 = ORIENTED_EDGE ( 'NONE', *, *, #119, .F. ) ;
#113 = UNCERTAINTY_MEASURE_WITH_UNIT (LENGTH_MEASURE( 1.000000000000000082E-05 ), #2, 'distance_accuracy_value', 'NONE');
#114 = EDGE_LOOP ( 'NONE', ( #55 ) ) ;
#115 = VERTEX_POINT ( 'NONE', #59 ) ;
#116 = DIRECTION ( 'NONE',  ( 1.000000000000000000, 0.000000000000000000, 0.000000000000000000 ) ) ;
#117 = DIRECTION ( 'NONE',  ( 1.000000000000000000, 0.000000000000000000, 0.000000000000000000 ) ) ;
#118 = MECHANICAL_DESIGN_GEOMETRIC_PRESENTATION_REPRESENTATION (  '', ( #37 ), #9 ) ;
#119 = EDGE_CURVE ( 'NONE', #115, #115, #25, .T. ) ;
ENDSEC;
END-ISO-10303-21;
