ISO-10303-21;
HEADER;
FILE_DESCRIPTION (( 'STEP AP214' ),
    '1' );
FILE_NAME ('Washer ISO 7089 - 8.STEP',
    '2025-08-04T11:00:08',
    ( '' ),
    ( '' ),
    'SwSTEP 2.0',
    'SolidWorks 2025',
    '' );
FILE_SCHEMA (( 'AUTOMOTIVE_DESIGN' ));
ENDSEC;

DATA;
#1 = PRODUCT_DEFINITION_SHAPE ( 'NONE', 'NONE',  #89 ) ;
#2 = DIRECTION ( 'NONE',  ( -1.000000000000000000, -0.000000000000000000, -0.000000000000000000 ) ) ;
#3 = EDGE_LOOP ( 'NONE', ( #50 ) ) ;
#4 = APPLICATION_CONTEXT ( 'automotive_design' ) ;
#5 = ORIENTED_EDGE ( 'NONE', *, *, #12, .F. ) ;
#6 = DIRECTION ( 'NONE',  ( 0.000000000000000000, 0.000000000000000000, 1.000000000000000000 ) ) ;
#7 =( NAMED_UNIT ( * ) SI_UNIT ( $, .STERADIAN. ) SOLID_ANGLE_UNIT ( ) );
#8 = DIRECTION ( 'NONE',  ( 0.000000000000000000, 0.000000000000000000, 1.000000000000000000 ) ) ;
#9 = CARTESIAN_POINT ( 'NONE',  ( 0.000000000000000000, 4.200000000000000178, 0.000000000000000000 ) ) ;
#10 = FACE_OUTER_BOUND ( 'NONE', #73, .T. ) ;
#11 = STYLED_ITEM ( 'NONE', ( #70 ), #48 ) ;
#12 = EDGE_CURVE ( 'NONE', #24, #24, #88, .T. ) ;
#13 = CIRCLE ( 'NONE', #78, 4.200000000000000178 ) ;
#14 = ADVANCED_FACE ( 'NONE', ( #62, #39 ), #114, .T. ) ;
#15 = EDGE_LOOP ( 'NONE', ( #85 ) ) ;
#16 = ORIENTED_EDGE ( 'NONE', *, *, #22, .T. ) ;
#17 = DIRECTION ( 'NONE',  ( 0.000000000000000000, 0.000000000000000000, 1.000000000000000000 ) ) ;
#18 = CIRCLE ( 'NONE', #110, 8.000000000000000000 ) ;
#19 = DIRECTION ( 'NONE',  ( -1.000000000000000000, -0.000000000000000000, -0.000000000000000000 ) ) ;
#20 = CYLINDRICAL_SURFACE ( 'NONE', #81, 4.200000000000000178 ) ;
#21 =( NAMED_UNIT ( * ) PLANE_ANGLE_UNIT ( ) SI_UNIT ( $, .RADIAN. ) );
#22 = EDGE_CURVE ( 'NONE', #83, #83, #118, .T. ) ;
#23 = UNCERTAINTY_MEASURE_WITH_UNIT (LENGTH_MEASURE( 1.000000000000000082E-05 ), #63, 'distance_accuracy_value', 'NONE');
#24 = VERTEX_POINT ( 'NONE', #64 ) ;
#25 = PRODUCT ( 'Washer ISO 7089 - 8_Washer ISO 7089 - 8', 'Washer ISO 7089 - 8_Washer ISO 7089 - 8', '', ( #36 ) ) ;
#26 = FACE_BOUND ( 'NONE', #96, .T. ) ;
#27 = PLANE ( 'NONE',  #30 ) ;
#28 = PLANE ( 'NONE',  #94 ) ;
#29 = CARTESIAN_POINT ( 'NONE',  ( 0.000000000000000000, 0.000000000000000000, 0.000000000000000000 ) ) ;
#30 = AXIS2_PLACEMENT_3D ( 'NONE', #9, #45, #100 ) ;
#31 =( NAMED_UNIT ( * ) PLANE_ANGLE_UNIT ( ) SI_UNIT ( $, .RADIAN. ) );
#32 = PRODUCT_DEFINITION_CONTEXT ( 'detailed design', #4, 'design' ) ;
#33 = FACE_OUTER_BOUND ( 'NONE', #3, .T. ) ;
#34 = PRODUCT_RELATED_PRODUCT_CATEGORY ( 'part', '', ( #25 ) ) ;
#35 = CARTESIAN_POINT ( 'NONE',  ( 0.000000000000000000, 0.000000000000000000, 4.200000000000000178 ) ) ;
#36 = PRODUCT_CONTEXT ( 'NONE', #40, 'mechanical' ) ;
#37 = AXIS2_PLACEMENT_3D ( 'NONE', #79, #82, #17 ) ;
#38 = DIRECTION ( 'NONE',  ( -1.000000000000000000, -0.000000000000000000, -0.000000000000000000 ) ) ;
#39 = FACE_OUTER_BOUND ( 'NONE', #43, .T. ) ;
#40 = APPLICATION_CONTEXT ( 'automotive_design' ) ;
#41 = SURFACE_SIDE_STYLE ('',( #71 ) ) ;
#42 = EDGE_CURVE ( 'NONE', #116, #116, #18, .T. ) ;
#43 = EDGE_LOOP ( 'NONE', ( #87 ) ) ;
#44 = DIRECTION ( 'NONE',  ( 1.000000000000000000, 0.000000000000000000, 0.000000000000000000 ) ) ;
#45 = DIRECTION ( 'NONE',  ( -1.000000000000000000, 0.000000000000000000, -0.000000000000000000 ) ) ;
#46 = APPLICATION_PROTOCOL_DEFINITION ( 'draft international standard', 'automotive_design', 1998, #40 ) ;
#47 = CARTESIAN_POINT ( 'NONE',  ( 0.000000000000000000, 0.000000000000000000, 0.000000000000000000 ) ) ;
#48 = MANIFOLD_SOLID_BREP ( 'Base-Revolve', #59 ) ;
#49 = EDGE_LOOP ( 'NONE', ( #5 ) ) ;
#50 = ORIENTED_EDGE ( 'NONE', *, *, #119, .F. ) ;
#51 = SURFACE_STYLE_USAGE ( .BOTH. , #41 ) ;
#52 = ADVANCED_FACE ( 'NONE', ( #117, #67 ), #28, .F. ) ;
#53 = EDGE_LOOP ( 'NONE', ( #103 ) ) ;
#54 = VERTEX_POINT ( 'NONE', #35 ) ;
#55 = UNCERTAINTY_MEASURE_WITH_UNIT (LENGTH_MEASURE( 1.000000000000000082E-05 ), #108, 'distance_accuracy_value', 'NONE');
#56 = DIRECTION ( 'NONE',  ( -1.000000000000000000, -0.000000000000000000, -0.000000000000000000 ) ) ;
#57 = DIRECTION ( 'NONE',  ( 0.000000000000000000, 0.000000000000000000, 1.000000000000000000 ) ) ;
#58 = CARTESIAN_POINT ( 'NONE',  ( 0.000000000000000000, 0.000000000000000000, 8.000000000000000000 ) ) ;
#59 = CLOSED_SHELL ( 'NONE', ( #113, #86, #14, #52 ) ) ;
#60 = EDGE_LOOP ( 'NONE', ( #95 ) ) ;
#61 =( GEOMETRIC_REPRESENTATION_CONTEXT ( 3 ) GLOBAL_UNCERTAINTY_ASSIGNED_CONTEXT ( ( #55 ) ) GLOBAL_UNIT_ASSIGNED_CONTEXT ( ( #108, #31, #99 ) ) REPRESENTATION_CONTEXT ( 'NONE', 'WORKASPACE' ) );
#62 = FACE_OUTER_BOUND ( 'NONE', #49, .T. ) ;
#63 =( LENGTH_UNIT ( ) NAMED_UNIT ( * ) SI_UNIT ( .MILLI., .METRE. ) );
#64 = CARTESIAN_POINT ( 'NONE',  ( -1.599999999999997202, 0.000000000000000000, 8.000000000000000000 ) ) ;
#65 = COLOUR_RGB ( '',0.7921568627450980005, 0.8196078431372548767, 0.9333333333333333481 ) ;
#66 = FACE_OUTER_BOUND ( 'NONE', #53, .T. ) ;
#67 = FACE_OUTER_BOUND ( 'NONE', #60, .T. ) ;
#68 = CARTESIAN_POINT ( 'NONE',  ( -1.599999999999997202, 0.000000000000000000, 0.000000000000000000 ) ) ;
#69 = AXIS2_PLACEMENT_3D ( 'NONE', #68, #2, #111 ) ;
#70 = PRESENTATION_STYLE_ASSIGNMENT (( #51 ) ) ;
#71 = SURFACE_STYLE_FILL_AREA ( #97 ) ;
#72 = CARTESIAN_POINT ( 'NONE',  ( -34.92499999999994742, 0.000000000000000000, 0.000000000000000000 ) ) ;
#73 = EDGE_LOOP ( 'NONE', ( #16 ) ) ;
#74 = ADVANCED_BREP_SHAPE_REPRESENTATION ( 'Washer ISO 7089 - 8_Washer ISO 7089 - 8', ( #48, #90 ), #61 ) ;
#75 = CARTESIAN_POINT ( 'NONE',  ( 0.000000000000000000, 0.000000000000000000, 0.000000000000000000 ) ) ;
#76 = FILL_AREA_STYLE_COLOUR ( '', #65 ) ;
#77 = PRESENTATION_LAYER_ASSIGNMENT (  '', '', ( #11 ) ) ;
#78 = AXIS2_PLACEMENT_3D ( 'NONE', #47, #19, #8 ) ;
#79 = CARTESIAN_POINT ( 'NONE',  ( -1.599999999999997202, 0.000000000000000000, 0.000000000000000000 ) ) ;
#80 = ORIENTED_EDGE ( 'NONE', *, *, #119, .T. ) ;
#81 = AXIS2_PLACEMENT_3D ( 'NONE', #92, #56, #106 ) ;
#82 = DIRECTION ( 'NONE',  ( -1.000000000000000000, -0.000000000000000000, -0.000000000000000000 ) ) ;
#83 = VERTEX_POINT ( 'NONE', #98 ) ;
#84 =( GEOMETRIC_REPRESENTATION_CONTEXT ( 3 ) GLOBAL_UNCERTAINTY_ASSIGNED_CONTEXT ( ( #23 ) ) GLOBAL_UNIT_ASSIGNED_CONTEXT ( ( #63, #21, #7 ) ) REPRESENTATION_CONTEXT ( 'NONE', 'WORKASPACE' ) );
#85 = ORIENTED_EDGE ( 'NONE', *, *, #22, .F. ) ;
#86 = ADVANCED_FACE ( 'NONE', ( #66, #26 ), #27, .F. ) ;
#87 = ORIENTED_EDGE ( 'NONE', *, *, #42, .T. ) ;
#88 = CIRCLE ( 'NONE', #37, 8.000000000000000000 ) ;
#89 = PRODUCT_DEFINITION ( 'General', '', #104, #32 ) ;
#90 = AXIS2_PLACEMENT_3D ( 'NONE', #75, #57, #91 ) ;
#91 = DIRECTION ( 'NONE',  ( 1.000000000000000000, 0.000000000000000000, 0.000000000000000000 ) ) ;
#92 = CARTESIAN_POINT ( 'NONE',  ( -34.92499999999994742, 0.000000000000000000, 0.000000000000000000 ) ) ;
#93 = MECHANICAL_DESIGN_GEOMETRIC_PRESENTATION_REPRESENTATION (  '', ( #11 ), #84 ) ;
#94 = AXIS2_PLACEMENT_3D ( 'NONE', #115, #44, #107 ) ;
#95 = ORIENTED_EDGE ( 'NONE', *, *, #12, .T. ) ;
#96 = EDGE_LOOP ( 'NONE', ( #80 ) ) ;
#97 = FILL_AREA_STYLE ('',( #76 ) ) ;
#98 = CARTESIAN_POINT ( 'NONE',  ( -1.599999999999997202, 0.000000000000000000, 4.200000000000000178 ) ) ;
#99 =( NAMED_UNIT ( * ) SI_UNIT ( $, .STERADIAN. ) SOLID_ANGLE_UNIT ( ) );
#100 = DIRECTION ( 'NONE',  ( -0.000000000000000000, 0.000000000000000000, 1.000000000000000000 ) ) ;
#101 = SHAPE_DEFINITION_REPRESENTATION ( #1, #74 ) ;
#102 = AXIS2_PLACEMENT_3D ( 'NONE', #72, #105, #112 ) ;
#103 = ORIENTED_EDGE ( 'NONE', *, *, #42, .F. ) ;
#104 = PRODUCT_DEFINITION_FORMATION_WITH_SPECIFIED_SOURCE ( 'Symmetric', '', #25, .NOT_KNOWN. ) ;
#105 = DIRECTION ( 'NONE',  ( -1.000000000000000000, -0.000000000000000000, -0.000000000000000000 ) ) ;
#106 = DIRECTION ( 'NONE',  ( 0.000000000000000000, 0.000000000000000000, 1.000000000000000000 ) ) ;
#107 = DIRECTION ( 'NONE',  ( 0.000000000000000000, 0.000000000000000000, -1.000000000000000000 ) ) ;
#108 =( LENGTH_UNIT ( ) NAMED_UNIT ( * ) SI_UNIT ( .MILLI., .METRE. ) );
#109 = APPLICATION_PROTOCOL_DEFINITION ( 'draft international standard', 'automotive_design', 1998, #4 ) ;
#110 = AXIS2_PLACEMENT_3D ( 'NONE', #29, #38, #6 ) ;
#111 = DIRECTION ( 'NONE',  ( 0.000000000000000000, 0.000000000000000000, 1.000000000000000000 ) ) ;
#112 = DIRECTION ( 'NONE',  ( 0.000000000000000000, 0.000000000000000000, 1.000000000000000000 ) ) ;
#113 = ADVANCED_FACE ( 'NONE', ( #33, #10 ), #20, .F. ) ;
#114 = CYLINDRICAL_SURFACE ( 'NONE', #102, 8.000000000000000000 ) ;
#115 = CARTESIAN_POINT ( 'NONE',  ( -1.599999999999998535, 8.000000000000000000, 0.000000000000000000 ) ) ;
#116 = VERTEX_POINT ( 'NONE', #58 ) ;
#117 = FACE_BOUND ( 'NONE', #15, .T. ) ;
#118 = CIRCLE ( 'NONE', #69, 4.200000000000000178 ) ;
#119 = EDGE_CURVE ( 'NONE', #54, #54, #13, .T. ) ;
ENDSEC;
END-ISO-10303-21;
