ISO-10303-21;
HEADER;
FILE_DESCRIPTION (( 'STEP AP214' ),
    '1' );
FILE_NAME ('ISO 7045 - M4 x 30 - Z - 30N.STEP',
    '2025-07-30T15:09:17',
    ( '' ),
    ( '' ),
    'SwSTEP 2.0',
    'SolidWorks 2025',
    '' );
FILE_SCHEMA (( 'AUTOMOTIVE_DESIGN' ));
ENDSEC;

DATA;
#1 = DIRECTION ( 'NONE',  ( 0.8949343913984795229, -1.557891129246044565E-15, 0.4461977533473616697 ) ) ;
#2 = ORIENTED_EDGE ( 'NONE', *, *, #137, .T. ) ;
#3 = EDGE_CURVE ( 'NONE', #653, #6, #639, .T. ) ;
#4 = DIRECTION ( 'NONE',  ( 0.000000000000000000, 0.000000000000000000, 1.000000000000000000 ) ) ;
#5 = DIRECTION ( 'NONE',  ( 0.4461977533475102176, -3.124646727056469857E-15, 0.8949343913984055821 ) ) ;
#6 = VERTEX_POINT ( 'NONE', #705 ) ;
#7 = CARTESIAN_POINT ( 'NONE',  ( 2.339999999999999858, -0.6774776749089228556, 0.5149999999999997913 ) ) ;
#8 = AXIS2_PLACEMENT_3D ( 'NONE', #545, #163, #590 ) ;
#9 = CARTESIAN_POINT ( 'NONE',  ( 1.586512658500329298, -0.5150000000000026779, 0.7436618653472073515 ) ) ;
#10 = VERTEX_POINT ( 'NONE', #399 ) ;
#11 = DIRECTION ( 'NONE',  ( 0.000000000000000000, 0.000000000000000000, 1.000000000000000000 ) ) ;
#12 = FACE_OUTER_BOUND ( 'NONE', #357, .T. ) ;
#13 = EDGE_CURVE ( 'NONE', #649, #197, #386, .T. ) ;
#14 = CIRCLE ( 'NONE', #39, 6.426280380454416630 ) ;
#15 = ORIENTED_EDGE ( 'NONE', *, *, #332, .F. ) ;
#16 = CARTESIAN_POINT ( 'NONE',  ( 1.586512658500328854, -0.7436618653472093499, -0.5150000000000000133 ) ) ;
#17 = DIRECTION ( 'NONE',  ( 0.000000000000000000, 1.000000000000000000, 1.338610863216202098E-16 ) ) ;
#18 = ADVANCED_FACE ( 'NONE', ( #270, #90 ), #743, .F. ) ;
#19 = ORIENTED_EDGE ( 'NONE', *, *, #568, .F. ) ;
#20 = DIRECTION ( 'NONE',  ( 1.000000000000000000, 0.000000000000000000, 0.000000000000000000 ) ) ;
#21 = DIRECTION ( 'NONE',  ( -1.000000000000000000, -0.000000000000000000, -0.000000000000000000 ) ) ;
#22 = AXIS2_PLACEMENT_3D ( 'NONE', #541, #360, #651 ) ;
#23 = ORIENTED_EDGE ( 'NONE', *, *, #486, .T. ) ;
#24 = EDGE_CURVE ( 'NONE', #197, #498, #503, .T. ) ;
#25 = LINE ( 'NONE', #574, #608 ) ;
#26 = DIRECTION ( 'NONE',  ( 0.000000000000000000, 0.000000000000000000, 1.000000000000000000 ) ) ;
#27 = CARTESIAN_POINT ( 'NONE',  ( 1.586512658500329076, 0.7436618653472092388, -0.5150000000000000133 ) ) ;
#28 = FACE_BOUND ( 'NONE', #727, .T. ) ;
#29 = VERTEX_POINT ( 'NONE', #165 ) ;
#30 = CARTESIAN_POINT ( 'NONE',  ( 2.339999999999999858, -0.6774776749089228556, -0.5150000000000000133 ) ) ;
#31 = ADVANCED_FACE ( 'NONE', ( #531 ), #156, .T. ) ;
#32 = CARTESIAN_POINT ( 'NONE',  ( 6.500000000000000000, -5.267959233760015702E-17, 0.5150000000000000133 ) ) ;
#33 = CIRCLE ( 'NONE', #482, 0.8509999999999999787 ) ;
#34 = ORIENTED_EDGE ( 'NONE', *, *, #440, .F. ) ;
#35 = FACE_OUTER_BOUND ( 'NONE', #540, .T. ) ;
#36 = EDGE_CURVE ( 'NONE', #10, #485, #115, .T. ) ;
#37 = CARTESIAN_POINT ( 'NONE',  ( 2.339999999999999858, 0.6774776749089228556, -0.5150000000000000133 ) ) ;
#38 = ORIENTED_EDGE ( 'NONE', *, *, #660, .T. ) ;
#39 = AXIS2_PLACEMENT_3D ( 'NONE', #41, #159, #147 ) ;
#40 = CARTESIAN_POINT ( 'NONE',  ( 0.000000000000000000, -0.5149999999999921307, -2.149999999999999911 ) ) ;
#41 = CARTESIAN_POINT ( 'NONE',  ( 6.064432258796359498, -3.037960097938776809E-15, 0.8736138818776859605 ) ) ;
#42 = EDGE_LOOP ( 'NONE', ( #366, #337, #516, #257 ) ) ;
#43 = AXIS2_PLACEMENT_3D ( 'NONE', #494, #313, #566 ) ;
#44 = DIRECTION ( 'NONE',  ( -1.000000000000000000, 0.000000000000000000, 0.000000000000000000 ) ) ;
#45 = CARTESIAN_POINT ( 'NONE',  ( 6.064432258795712016, -0.8736138818786205462, 0.000000000000000000 ) ) ;
#46 = ORIENTED_EDGE ( 'NONE', *, *, #647, .F. ) ;
#47 = AXIS2_PLACEMENT_3D ( 'NONE', #542, #732, #181 ) ;
#48 = EDGE_CURVE ( 'NONE', #544, #653, #678, .T. ) ;
#49 = CARTESIAN_POINT ( 'NONE',  ( 0.07880998200162317446, 0.5149999999999970157, 0.8678097445627273032 ) ) ;
#50 = CARTESIAN_POINT ( 'NONE',  ( 2.339999999999999858, -0.5150000000000036771, 0.9833192322604982216 ) ) ;
#51 = ORIENTED_EDGE ( 'NONE', *, *, #154, .F. ) ;
#52 = AXIS2_PLACEMENT_3D ( 'NONE', #248, #491, #664 ) ;
#53 = FACE_OUTER_BOUND ( 'NONE', #760, .T. ) ;
#54 = ORIENTED_EDGE ( 'NONE', *, *, #300, .F. ) ;
#55 = DIRECTION ( 'NONE',  ( 0.000000000000000000, 0.000000000000000000, 1.000000000000000000 ) ) ;
#56 = FACE_OUTER_BOUND ( 'NONE', #523, .T. ) ;
#57 = ADVANCED_FACE ( 'NONE', ( #766 ), #588, .T. ) ;
#58 = EDGE_LOOP ( 'NONE', ( #693, #92, #353, #723 ) ) ;
#59 = DIRECTION ( 'NONE',  ( 0.000000000000000000, 0.000000000000000000, 1.000000000000000000 ) ) ;
#60 = CARTESIAN_POINT ( 'NONE',  ( 0.000000000000000000, -0.5149999999999921307, -2.150000000000001688 ) ) ;
#61 = ADVANCED_FACE ( 'NONE', ( #218 ), #210, .T. ) ;
#62 = EDGE_LOOP ( 'NONE', ( #585 ) ) ;
#63 = DIRECTION ( 'NONE',  ( 0.000000000000000000, -1.776356839400250465E-15, -1.000000000000000000 ) ) ;
#64 = CARTESIAN_POINT ( 'NONE',  ( 2.339999999999999858, 0.000000000000000000, 0.000000000000000000 ) ) ;
#65 = VERTEX_POINT ( 'NONE', #37 ) ;
#66 = CARTESIAN_POINT ( 'NONE',  ( 0.07880998200162454836, 0.8678097445627294126, 0.5149999999999999023 ) ) ;
#67 = PRODUCT_DEFINITION_FORMATION_WITH_SPECIFIED_SOURCE ( 'Symmetric', '', #376, .NOT_KNOWN. ) ;
#68 = CARTESIAN_POINT ( 'NONE',  ( 1.265388954528028798, 0.000000000000000000, 0.000000000000000000 ) ) ;
#69 = VERTEX_POINT ( 'NONE', #223 ) ;
#70 = PRODUCT_DEFINITION_CONTEXT ( 'detailed design', #756, 'design' ) ;
#71 = EDGE_CURVE ( 'NONE', #6, #290, #281, .T. ) ;
#72 = DIRECTION ( 'NONE',  ( -1.000000000000000000, -0.000000000000000000, -0.000000000000000000 ) ) ;
#73 = AXIS2_PLACEMENT_3D ( 'NONE', #212, #525, #699 ) ;
#74 = CARTESIAN_POINT ( 'NONE',  ( 3.100000000000000089, 0.000000000000000000, 0.000000000000000000 ) ) ;
#75 = EDGE_LOOP ( 'NONE', ( #103, #392, #253, #467 ) ) ;
#76 = LINE ( 'NONE', #322, #529 ) ;
#77 = CARTESIAN_POINT ( 'NONE',  ( 2.339999999999999858, 0.000000000000000000, 0.000000000000000000 ) ) ;
#78 = AXIS2_PLACEMENT_3D ( 'NONE', #648, #471, #713 ) ;
#79 = ORIENTED_EDGE ( 'NONE', *, *, #354, .T. ) ;
#80 = UNCERTAINTY_MEASURE_WITH_UNIT (LENGTH_MEASURE( 1.000000000000000082E-05 ), #234, 'distance_accuracy_value', 'NONE');
#81 = CARTESIAN_POINT ( 'NONE',  ( 0.000000000000000000, 0.000000000000000000, 0.000000000000000000 ) ) ;
#82 = DIRECTION ( 'NONE',  ( 0.4461977533475102176, 0.8949343913984055821, 0.000000000000000000 ) ) ;
#83 = ADVANCED_FACE ( 'NONE', ( #229 ), #397, .F. ) ;
#84 = ORIENTED_EDGE ( 'NONE', *, *, #13, .F. ) ;
#85 = CYLINDRICAL_SURFACE ( 'NONE', #519, 2.000000000000000000 ) ;
#86 = AXIS2_PLACEMENT_3D ( 'NONE', #264, #314, #629 ) ;
#87 = DIRECTION ( 'NONE',  ( 0.000000000000000000, -3.614249330683745220E-15, 1.000000000000000000 ) ) ;
#88 = CIRCLE ( 'NONE', #435, 4.000000000000000000 ) ;
#89 = DIRECTION ( 'NONE',  ( -1.000000000000000000, -0.000000000000000000, -0.000000000000000000 ) ) ;
#90 = FACE_OUTER_BOUND ( 'NONE', #237, .T. ) ;
#91 = VECTOR ( 'NONE', #395, 1000.000000000000227 ) ;
#92 = ORIENTED_EDGE ( 'NONE', *, *, #707, .F. ) ;
#93 = B_SPLINE_CURVE_WITH_KNOTS ( 'NONE', 3,
 ( #209, #149, #579, #638 ),
 .UNSPECIFIED., .F., .F.,
 ( 4, 4 ),
 ( 0.004243790224673705744, 0.006512406268448421576 ),
 .UNSPECIFIED. ) ;
#94 = DIRECTION ( 'NONE',  ( 0.000000000000000000, 0.000000000000000000, 1.000000000000000000 ) ) ;
#95 = DIRECTION ( 'NONE',  ( -1.000000000000000000, -0.000000000000000000, -0.000000000000000000 ) ) ;
#96 = ORIENTED_EDGE ( 'NONE', *, *, #426, .T. ) ;
#97 = EDGE_CURVE ( 'NONE', #768, #279, #14, .T. ) ;
#98 = CARTESIAN_POINT ( 'NONE',  ( 0.07880998200162411815, 1.224646799147365903E-17, 0.000000000000000000 ) ) ;
#99 = CIRCLE ( 'NONE', #511, 1.009117809157098700 ) ;
#100 = VERTEX_POINT ( 'NONE', #408 ) ;
#101 = DIRECTION ( 'NONE',  ( -1.000000000000000000, -0.000000000000000000, -0.000000000000000000 ) ) ;
#102 = DIRECTION ( 'NONE',  ( 1.000000000000000000, 0.000000000000000000, 0.000000000000000000 ) ) ;
#103 = ORIENTED_EDGE ( 'NONE', *, *, #440, .T. ) ;
#104 = CARTESIAN_POINT ( 'NONE',  ( 33.09999999999999432, 0.000000000000000000, 2.000000000000000000 ) ) ;
#105 = AXIS2_PLACEMENT_3D ( 'NONE', #45, #785, #721 ) ;
#106 = DIRECTION ( 'NONE',  ( 0.8949343913984054710, -0.4461977533475101620, 0.000000000000000000 ) ) ;
#107 = CARTESIAN_POINT ( 'NONE',  ( 2.339999999999999858, 0.9833192322605002200, 0.5150000000000001243 ) ) ;
#108 = ADVANCED_FACE ( 'NONE', ( #28, #700 ), #331, .F. ) ;
#109 = ORIENTED_EDGE ( 'NONE', *, *, #71, .F. ) ;
#110 = DIRECTION ( 'NONE',  ( 0.000000000000000000, 3.497120880152328011E-15, -1.000000000000000000 ) ) ;
#111 = ORIENTED_EDGE ( 'NONE', *, *, #734, .T. ) ;
#112 = VECTOR ( 'NONE', #583, 1000.000000000000227 ) ;
#113 = CARTESIAN_POINT ( 'NONE',  ( 0.8327192892707017124, -0.5149999999999970157, -0.8065069628489068831 ) ) ;
#114 = ORIENTED_EDGE ( 'NONE', *, *, #381, .F. ) ;
#115 = CIRCLE ( 'NONE', #586, 6.479565957685747613 ) ;
#116 = ADVANCED_FACE ( 'NONE', ( #151 ), #575, .T. ) ;
#117 = FACE_OUTER_BOUND ( 'NONE', #58, .T. ) ;
#118 = SURFACE_SIDE_STYLE ('',( #667 ) ) ;
#119 = ORIENTED_EDGE ( 'NONE', *, *, #365, .F. ) ;
#120 = DIRECTION ( 'NONE',  ( 0.000000000000000000, -1.000000000000000000, -3.491481338843133355E-15 ) ) ;
#121 = LINE ( 'NONE', #60, #553 ) ;
#122 = ORIENTED_EDGE ( 'NONE', *, *, #226, .T. ) ;
#123 = VECTOR ( 'NONE', #106, 1000.000000000000227 ) ;
#124 = CARTESIAN_POINT ( 'NONE',  ( 0.000000000000000000, -2.149999999999998135, 0.5149999999999995692 ) ) ;
#125 = DIRECTION ( 'NONE',  ( 0.000000000000000000, 0.000000000000000000, 1.000000000000000000 ) ) ;
#126 = ORIENTED_EDGE ( 'NONE', *, *, #568, .T. ) ;
#127 = CARTESIAN_POINT ( 'NONE',  ( 2.339999999999999858, 0.6774776749089227446, 0.5150000000000001243 ) ) ;
#128 = LINE ( 'NONE', #374, #407 ) ;
#129 = ORIENTED_EDGE ( 'NONE', *, *, #164, .F. ) ;
#130 = DIRECTION ( 'NONE',  ( 0.4461977533475101620, -3.124646727056469462E-15, 0.8949343913984054710 ) ) ;
#131 = ORIENTED_EDGE ( 'NONE', *, *, #637, .T. ) ;
#132 = ADVANCED_FACE ( 'NONE', ( #591 ), #239, .T. ) ;
#133 = CARTESIAN_POINT ( 'NONE',  ( 0.000000000000000000, 0.5149999999999925748, 2.149999999999999911 ) ) ;
#134 = AXIS2_PLACEMENT_3D ( 'NONE', #275, #771, #708 ) ;
#135 = DIRECTION ( 'NONE',  ( 0.000000000000000000, -3.617551358899587488E-15, 1.000000000000000000 ) ) ;
#136 = DIRECTION ( 'NONE',  ( 0.8949343913984795229, 0.4461977533473616697, 0.000000000000000000 ) ) ;
#137 = EDGE_CURVE ( 'NONE', #603, #194, #650, .T. ) ;
#138 = CARTESIAN_POINT ( 'NONE',  ( 2.339999999999999858, -0.9833192322609848324, -0.5150000000000000133 ) ) ;
#139 = VECTOR ( 'NONE', #652, 1000.000000000000000 ) ;
#140 = ORIENTED_EDGE ( 'NONE', *, *, #748, .F. ) ;
#141 = FACE_OUTER_BOUND ( 'NONE', #170, .T. ) ;
#142 = EDGE_CURVE ( 'NONE', #29, #781, #169, .T. ) ;
#143 = ORIENTED_EDGE ( 'NONE', *, *, #307, .F. ) ;
#144 = AXIS2_PLACEMENT_3D ( 'NONE', #81, #719, #20 ) ;
#145 = DIRECTION ( 'NONE',  ( 0.000000000000000000, 0.000000000000000000, -1.000000000000000000 ) ) ;
#146 = CIRCLE ( 'NONE', #228, 0.8509999999999999787 ) ;
#147 = DIRECTION ( 'NONE',  ( -0.8949343913984796339, 0.000000000000000000, -0.4461977533473617252 ) ) ;
#148 = EDGE_LOOP ( 'NONE', ( #335, #111, #752, #665 ) ) ;
#149 = CARTESIAN_POINT ( 'NONE',  ( 1.586512658500282447, 0.5150000000000026779, -0.7436618653472115703 ) ) ;
#150 = AXIS2_PLACEMENT_3D ( 'NONE', #469, #186, #557 ) ;
#151 = FACE_OUTER_BOUND ( 'NONE', #685, .T. ) ;
#152 = VECTOR ( 'NONE', #364, 1000.000000000000000 ) ;
#153 = VERTEX_POINT ( 'NONE', #788 ) ;
#154 = EDGE_CURVE ( 'NONE', #173, #69, #602, .T. ) ;
#155 = FACE_OUTER_BOUND ( 'NONE', #347, .T. ) ;
#156 = PLANE ( 'NONE',  #565 ) ;
#157 = VERTEX_POINT ( 'NONE', #172 ) ;
#158 = VERTEX_POINT ( 'NONE', #528 ) ;
#159 = DIRECTION ( 'NONE',  ( 0.4461977533473616697, 3.124646727056728209E-15, -0.8949343913984795229 ) ) ;
#160 = VECTOR ( 'NONE', #539, 1000.000000000000000 ) ;
#161 = ORIENTED_EDGE ( 'NONE', *, *, #711, .T. ) ;
#162 = SHAPE_DEFINITION_REPRESENTATION ( #625, #476 ) ;
#163 = DIRECTION ( 'NONE',  ( 0.4461977533473616697, 3.124646727056728209E-15, -0.8949343913984795229 ) ) ;
#164 = EDGE_CURVE ( 'NONE', #396, #498, #690, .T. ) ;
#165 = CARTESIAN_POINT ( 'NONE',  ( 2.339999999999999858, 0.5149999999999976819, 0.6774776749089244099 ) ) ;
#166 = ORIENTED_EDGE ( 'NONE', *, *, #296, .T. ) ;
#167 = AXIS2_PLACEMENT_3D ( 'NONE', #124, #562, #499 ) ;
#168 = DIRECTION ( 'NONE',  ( 0.000000000000000000, 0.000000000000000000, 1.000000000000000000 ) ) ;
#169 = LINE ( 'NONE', #289, #152 ) ;
#170 = EDGE_LOOP ( 'NONE', ( #447, #306, #109, #421 ) ) ;
#171 = CARTESIAN_POINT ( 'NONE',  ( 0.07880998200162329936, -0.5150000000000031219, 0.8678097445627236395 ) ) ;
#172 = CARTESIAN_POINT ( 'NONE',  ( 2.339999999999999858, 0.5150000000000035660, -0.9833192322609830560 ) ) ;
#173 = VERTEX_POINT ( 'NONE', #107 ) ;
#174 = AXIS2_PLACEMENT_3D ( 'NONE', #295, #44, #59 ) ;
#175 = EDGE_CURVE ( 'NONE', #153, #350, #420, .T. ) ;
#176 = CARTESIAN_POINT ( 'NONE',  ( 6.500000000000000000, 0.5150000000000000133, 1.798112889504214151E-15 ) ) ;
#177 = DIRECTION ( 'NONE',  ( 0.8949343913984796339, 0.4461977533473616697, 0.000000000000000000 ) ) ;
#178 = ORIENTED_EDGE ( 'NONE', *, *, #137, .F. ) ;
#179 = CIRCLE ( 'NONE', #769, 2.000000000000000000 ) ;
#180 = DIRECTION ( 'NONE',  ( -1.000000000000000000, -0.000000000000000000, -0.000000000000000000 ) ) ;
#181 = DIRECTION ( 'NONE',  ( 0.000000000000000000, 0.000000000000000000, 1.000000000000000000 ) ) ;
#182 = ORIENTED_EDGE ( 'NONE', *, *, #240, .T. ) ;
#183 = CARTESIAN_POINT ( 'NONE',  ( 2.339999999999999858, -0.6774776749089228556, -0.5150000000000000133 ) ) ;
#184 = CARTESIAN_POINT ( 'NONE',  ( 2.339999999999999858, 0.9833192322604999980, 0.5150000000000001243 ) ) ;
#185 = CIRCLE ( 'NONE', #595, 2.200000000000000178 ) ;
#186 = DIRECTION ( 'NONE',  ( 1.000000000000000000, 0.000000000000000000, 0.000000000000000000 ) ) ;
#187 = CARTESIAN_POINT ( 'NONE',  ( 0.07880998200162329936, -0.5150000000000031219, 0.8678097445627236395 ) ) ;
#188 = EDGE_CURVE ( 'NONE', #603, #485, #770, .T. ) ;
#189 = ORIENTED_EDGE ( 'NONE', *, *, #250, .F. ) ;
#190 = CARTESIAN_POINT ( 'NONE',  ( 2.339999999999999858, -0.9833192322609848324, 0.5149999999999997913 ) ) ;
#191 = AXIS2_PLACEMENT_3D ( 'NONE', #522, #518, #580 ) ;
#192 = MANIFOLD_SOLID_BREP ( 'RecessCore', #205 ) ;
#193 = CARTESIAN_POINT ( 'NONE',  ( 2.339999999999999858, -0.5150000000000036771, 0.9833192322604982216 ) ) ;
#194 = VERTEX_POINT ( 'NONE', #297 ) ;
#195 = CARTESIAN_POINT ( 'NONE',  ( 0.8327192892707027116, -0.8065069628489048847, 0.5149999999999997913 ) ) ;
#196 = LINE ( 'NONE', #612, #573 ) ;
#197 = VERTEX_POINT ( 'NONE', #483 ) ;
#198 = ADVANCED_FACE ( 'NONE', ( #361, #56 ), #301, .T. ) ;
#199 = CARTESIAN_POINT ( 'NONE',  ( 2.339999999999999858, 0.5149999999999965716, 0.9833192322605018854 ) ) ;
#200 = CIRCLE ( 'NONE', #582, 0.8509999999999999787 ) ;
#201 = DIRECTION ( 'NONE',  ( 0.000000000000000000, 1.000000000000000000, 0.000000000000000000 ) ) ;
#202 = EDGE_LOOP ( 'NONE', ( #19, #416, #221, #315 ) ) ;
#203 = EDGE_CURVE ( 'NONE', #768, #350, #121, .T. ) ;
#204 = CARTESIAN_POINT ( 'NONE',  ( 0.3318305201578438668, 0.5149999999999931299, 1.984555433326006035 ) ) ;
#205 = CLOSED_SHELL ( 'NONE', ( #422, #464, #31, #61, #695, #589, #548, #116, #57, #449, #686, #340, #501, #108, #198, #728, #132, #18, #271, #594, #415, #261, #533, #624, #282, #578, #401, #83 ) ) ;
#206 = ORIENTED_EDGE ( 'NONE', *, *, #276, .F. ) ;
#207 = B_SPLINE_CURVE_WITH_KNOTS ( 'NONE', 3,
 ( #418, #423, #661, #478 ),
 .UNSPECIFIED., .F., .F.,
 ( 4, 4 ),
 ( 0.001595836497732684061, 0.003865027713271409864 ),
 .UNSPECIFIED. ) ;
#208 = VERTEX_POINT ( 'NONE', #452 ) ;
#209 = CARTESIAN_POINT ( 'NONE',  ( 2.339999999999999858, 0.5150000000000024558, -0.6774776749089207462 ) ) ;
#210 = PLANE ( 'NONE',  #358 ) ;
#211 = ORIENTED_EDGE ( 'NONE', *, *, #391, .T. ) ;
#212 = CARTESIAN_POINT ( 'NONE',  ( 0.000000000000000000, 2.149999999999998135, -0.5150000000000000133 ) ) ;
#213 = AXIS2_PLACEMENT_3D ( 'NONE', #646, #765, #94 ) ;
#214 = EDGE_CURVE ( 'NONE', #6, #781, #717, .T. ) ;
#215 = CARTESIAN_POINT ( 'NONE',  ( 0.000000000000000000, 0.5149999999999925748, 2.149999999999999911 ) ) ;
#216 = ORIENTED_EDGE ( 'NONE', *, *, #641, .F. ) ;
#217 = DIRECTION ( 'NONE',  ( 2.981066953365987194E-17, 1.000000000000000000, 3.617551358899587488E-15 ) ) ;
#218 = FACE_OUTER_BOUND ( 'NONE', #148, .T. ) ;
#219 = COLOUR_RGB ( '',0.7921568627450980005, 0.8196078431372548767, 0.9333333333333333481 ) ;
#220 = PRODUCT_RELATED_PRODUCT_CATEGORY ( 'part', '', ( #376 ) ) ;
#221 = ORIENTED_EDGE ( 'NONE', *, *, #13, .T. ) ;
#222 = DIRECTION ( 'NONE',  ( 0.000000000000000000, 0.000000000000000000, 1.000000000000000000 ) ) ;
#223 = CARTESIAN_POINT ( 'NONE',  ( 2.339999999999999858, 0.9833192322605002200, -0.5150000000000000133 ) ) ;
#224 = ORIENTED_EDGE ( 'NONE', *, *, #370, .T. ) ;
#225 = VERTEX_POINT ( 'NONE', #104 ) ;
#226 = EDGE_CURVE ( 'NONE', #279, #157, #551, .T. ) ;
#227 = CARTESIAN_POINT ( 'NONE',  ( 0.07880998200162314671, -0.5149999999999967937, -0.8678097445627273032 ) ) ;
#228 = AXIS2_PLACEMENT_3D ( 'NONE', #291, #783, #243 ) ;
#229 = FACE_OUTER_BOUND ( 'NONE', #326, .T. ) ;
#230 = AXIS2_PLACEMENT_3D ( 'NONE', #461, #89, #334 ) ;
#231 = ORIENTED_EDGE ( 'NONE', *, *, #486, .F. ) ;
#232 = CARTESIAN_POINT ( 'NONE',  ( 2.339999999999999858, -0.5149999999999975708, -0.6774776749089246319 ) ) ;
#233 = EDGE_LOOP ( 'NONE', ( #2, #737, #268, #472 ) ) ;
#234 =( LENGTH_UNIT ( ) NAMED_UNIT ( * ) SI_UNIT ( .MILLI., .METRE. ) );
#235 = DIRECTION ( 'NONE',  ( -1.000000000000000000, 0.000000000000000000, 0.000000000000000000 ) ) ;
#236 = CARTESIAN_POINT ( 'NONE',  ( 0.000000000000000000, 0.5150000000000075628, -2.149999999999998135 ) ) ;
#237 = EDGE_LOOP ( 'NONE', ( #630 ) ) ;
#238 = CARTESIAN_POINT ( 'NONE',  ( 2.339999999999999858, 0.000000000000000000, 0.000000000000000000 ) ) ;
#239 = PLANE ( 'NONE',  #294 ) ;
#240 = EDGE_CURVE ( 'NONE', #507, #653, #670, .T. ) ;
#241 = ORIENTED_EDGE ( 'NONE', *, *, #682, .T. ) ;
#242 = AXIS2_PLACEMENT_3D ( 'NONE', #554, #252, #567 ) ;
#243 = DIRECTION ( 'NONE',  ( 0.000000000000000000, 0.000000000000000000, 1.000000000000000000 ) ) ;
#244 =( LENGTH_UNIT ( ) NAMED_UNIT ( * ) SI_UNIT ( .MILLI., .METRE. ) );
#245 = ORIENTED_EDGE ( 'NONE', *, *, #387, .F. ) ;
#246 = AXIS2_PLACEMENT_3D ( 'NONE', #98, #95, #635 ) ;
#247 = VERTEX_POINT ( 'NONE', #738 ) ;
#248 = CARTESIAN_POINT ( 'NONE',  ( 2.339999999999999858, 0.9833192322604999980, -0.5149999999999999023 ) ) ;
#249 = ORIENTED_EDGE ( 'NONE', *, *, #556, .F. ) ;
#250 = EDGE_CURVE ( 'NONE', #157, #350, #196, .T. ) ;
#251 = CARTESIAN_POINT ( 'NONE',  ( 2.339999999999999858, 0.6774776749089227446, 0.5150000000000001243 ) ) ;
#252 = DIRECTION ( 'NONE',  ( -1.000000000000000000, -0.000000000000000000, -0.000000000000000000 ) ) ;
#253 = ORIENTED_EDGE ( 'NONE', *, *, #175, .T. ) ;
#254 = AXIS2_PLACEMENT_3D ( 'NONE', #779, #180, #168 ) ;
#255 = PLANE ( 'NONE',  #448 ) ;
#256 = DIRECTION ( 'NONE',  ( -1.000000000000000000, -0.000000000000000000, -0.000000000000000000 ) ) ;
#257 = ORIENTED_EDGE ( 'NONE', *, *, #784, .T. ) ;
#258 = CARTESIAN_POINT ( 'NONE',  ( 2.339999999999999858, -0.9833192322609848324, -0.5150000000000000133 ) ) ;
#259 = PRESENTATION_LAYER_ASSIGNMENT (  '', '', ( #308 ) ) ;
#260 = DIRECTION ( 'NONE',  ( 0.000000000000000000, 3.497120880152328011E-15, -1.000000000000000000 ) ) ;
#261 = ADVANCED_FACE ( 'NONE', ( #383 ), #500, .F. ) ;
#262 = ORIENTED_EDGE ( 'NONE', *, *, #203, .T. ) ;
#263 = CARTESIAN_POINT ( 'NONE',  ( 0.8327192892707037108, -0.8065069628489044407, -0.5150000000000000133 ) ) ;
#264 = CARTESIAN_POINT ( 'NONE',  ( 2.339999999999999858, 0.000000000000000000, 0.000000000000000000 ) ) ;
#265 = ORIENTED_EDGE ( 'NONE', *, *, #605, .T. ) ;
#266 = CIRCLE ( 'NONE', #497, 0.8509999999999999787 ) ;
#267 = DIRECTION ( 'NONE',  ( 0.000000000000000000, 0.000000000000000000, 1.000000000000000000 ) ) ;
#268 = ORIENTED_EDGE ( 'NONE', *, *, #332, .T. ) ;
#269 = FACE_OUTER_BOUND ( 'NONE', #286, .T. ) ;
#270 = FACE_OUTER_BOUND ( 'NONE', #564, .T. ) ;
#271 = ADVANCED_FACE ( 'NONE', ( #12 ), #430, .F. ) ;
#272 = CARTESIAN_POINT ( 'NONE',  ( 0.3318305201578438668, 1.984555433326004259, 0.5149999999999999023 ) ) ;
#273 = CARTESIAN_POINT ( 'NONE',  ( 0.000000000000000000, -0.5150000000000076739, 2.149999999999998135 ) ) ;
#274 = EDGE_LOOP ( 'NONE', ( #262, #189, #772, #613 ) ) ;
#275 = CARTESIAN_POINT ( 'NONE',  ( 6.500000000000000000, -0.5150000000000001243, -1.863038949833288239E-15 ) ) ;
#276 = EDGE_CURVE ( 'NONE', #247, #247, #534, .T. ) ;
#277 = CIRCLE ( 'NONE', #134, 6.479565957685747613 ) ;
#278 = DIRECTION ( 'NONE',  ( 2.981066953365987194E-17, 1.000000000000000000, 3.617551358899587488E-15 ) ) ;
#279 = VERTEX_POINT ( 'NONE', #680 ) ;
#280 = CARTESIAN_POINT ( 'NONE',  ( 2.339999999999999858, -0.6774776749089228556, 0.5149999999999997913 ) ) ;
#281 = LINE ( 'NONE', #526, #346 ) ;
#282 = ADVANCED_FACE ( 'NONE', ( #563 ), #621, .F. ) ;
#283 = ORIENTED_EDGE ( 'NONE', *, *, #188, .T. ) ;
#284 = DIRECTION ( 'NONE',  ( 0.000000000000000000, 1.000000000000000000, 0.000000000000000000 ) ) ;
#285 = ORIENTED_EDGE ( 'NONE', *, *, #722, .F. ) ;
#286 = EDGE_LOOP ( 'NONE', ( #84, #34, #733, #569, #668, #178, #283, #789, #659, #216, #182, #375, #285, #143, #459, #675 ) ) ;
#287 = CARTESIAN_POINT ( 'NONE',  ( 0.3318305201578438668, 1.984555433326004259, -0.5150000000000000133 ) ) ;
#288 = AXIS2_PLACEMENT_3D ( 'NONE', #446, #683, #135 ) ;
#289 = CARTESIAN_POINT ( 'NONE',  ( 2.339999999999999858, 0.5150000000000035660, -0.9833192322609830560 ) ) ;
#290 = VERTEX_POINT ( 'NONE', #558 ) ;
#291 = CARTESIAN_POINT ( 'NONE',  ( 2.339999999999999858, 0.000000000000000000, 0.000000000000000000 ) ) ;
#292 = CARTESIAN_POINT ( 'NONE',  ( 6.064432258796359498, 0.8736138818776859605, 0.000000000000000000 ) ) ;
#293 = EDGE_LOOP ( 'NONE', ( #96, #622, #428, #329 ) ) ;
#294 = AXIS2_PLACEMENT_3D ( 'NONE', #410, #736, #349 ) ;
#295 = CARTESIAN_POINT ( 'NONE',  ( 2.339999999999999858, 0.9833192322604999980, -0.5149999999999999023 ) ) ;
#296 = EDGE_CURVE ( 'NONE', #786, #279, #751, .T. ) ;
#297 = CARTESIAN_POINT ( 'NONE',  ( 0.07880998200162454836, 0.8678097445627294126, -0.5150000000000000133 ) ) ;
#298 = ORIENTED_EDGE ( 'NONE', *, *, #784, .F. ) ;
#299 = FACE_OUTER_BOUND ( 'NONE', #754, .T. ) ;
#300 = EDGE_CURVE ( 'NONE', #389, #451, #352, .T. ) ;
#301 = CYLINDRICAL_SURFACE ( 'NONE', #47, 4.000000000000000000 ) ;
#302 = ORIENTED_EDGE ( 'NONE', *, *, #426, .F. ) ;
#303 = AXIS2_PLACEMENT_3D ( 'NONE', #184, #82, #378 ) ;
#304 = CARTESIAN_POINT ( 'NONE',  ( 1.555305873969553776, 0.000000000000000000, 0.000000000000000000 ) ) ;
#305 = DIRECTION ( 'NONE',  ( 0.8949343913984795229, -1.640821882355978220E-15, 0.4461977533473616697 ) ) ;
#306 = ORIENTED_EDGE ( 'NONE', *, *, #354, .F. ) ;
#307 = EDGE_CURVE ( 'NONE', #396, #100, #724, .T. ) ;
#308 = STYLED_ITEM ( 'NONE', ( #780 ), #192 ) ;
#309 = DIRECTION ( 'NONE',  ( -1.000000000000000000, -0.000000000000000000, -0.000000000000000000 ) ) ;
#310 = CARTESIAN_POINT ( 'NONE',  ( 2.339999999999999858, -0.5149999999999963496, -0.9833192322609866087 ) ) ;
#311 = ORIENTED_EDGE ( 'NONE', *, *, #300, .T. ) ;
#312 = B_SPLINE_CURVE_WITH_KNOTS ( 'NONE', 3,
 ( #183, #16, #263, #508 ),
 .UNSPECIFIED., .F., .F.,
 ( 4, 4 ),
 ( 0.004243790223852924801, 0.006512406267628397839 ),
 .UNSPECIFIED. ) ;
#313 = DIRECTION ( 'NONE',  ( -1.000000000000000000, -0.000000000000000000, -0.000000000000000000 ) ) ;
#314 = DIRECTION ( 'NONE',  ( -1.000000000000000000, -0.000000000000000000, -0.000000000000000000 ) ) ;
#315 = ORIENTED_EDGE ( 'NONE', *, *, #767, .F. ) ;
#316 = VECTOR ( 'NONE', #201, 1000.000000000000000 ) ;
#317 = AXIS2_PLACEMENT_3D ( 'NONE', #725, #412, #666 ) ;
#318 = FACE_OUTER_BOUND ( 'NONE', #581, .T. ) ;
#319 = DIRECTION ( 'NONE',  ( -1.000000000000000000, -0.000000000000000000, -0.000000000000000000 ) ) ;
#320 = ORIENTED_EDGE ( 'NONE', *, *, #794, .T. ) ;
#321 = CIRCLE ( 'NONE', #333, 0.8509999999999999787 ) ;
#322 = CARTESIAN_POINT ( 'NONE',  ( 2.339999999999999858, -0.9833192322609848324, -0.5150000000000000133 ) ) ;
#323 = AXIS2_PLACEMENT_3D ( 'NONE', #292, #658, #177 ) ;
#324 = DIRECTION ( 'NONE',  ( -1.000000000000000000, -0.000000000000000000, -0.000000000000000000 ) ) ;
#325 = B_SPLINE_CURVE_WITH_KNOTS ( 'NONE', 3,
 ( #787, #113, #487, #232 ),
 .UNSPECIFIED., .F., .F.,
 ( 4, 4 ),
 ( 0.001595836497732683627, 0.003865027713271409864 ),
 .UNSPECIFIED. ) ;
#326 = EDGE_LOOP ( 'NONE', ( #532, #510, #384, #740, #126, #311, #131, #79 ) ) ;
#327 = B_SPLINE_CURVE_WITH_KNOTS ( 'NONE', 3,
 ( #739, #9, #388, #187 ),
 .UNSPECIFIED., .F., .F.,
 ( 4, 4 ),
 ( 0.004243790223852922198, 0.006512406267628396972 ),
 .UNSPECIFIED. ) ;
#328 = LINE ( 'NONE', #434, #697 ) ;
#329 = ORIENTED_EDGE ( 'NONE', *, *, #240, .F. ) ;
#330 = LINE ( 'NONE', #465, #112 ) ;
#331 = PLANE ( 'NONE',  #78 ) ;
#332 = EDGE_CURVE ( 'NONE', #65, #69, #506, .T. ) ;
#333 = AXIS2_PLACEMENT_3D ( 'NONE', #368, #745, #615 ) ;
#334 = DIRECTION ( 'NONE',  ( 0.000000000000000000, 0.000000000000000000, 1.000000000000000000 ) ) ;
#335 = ORIENTED_EDGE ( 'NONE', *, *, #673, .T. ) ;
#336 = CARTESIAN_POINT ( 'NONE',  ( 2.339999999999999858, 0.000000000000000000, 0.000000000000000000 ) ) ;
#337 = ORIENTED_EDGE ( 'NONE', *, *, #767, .T. ) ;
#338 = CARTESIAN_POINT ( 'NONE',  ( 6.500000000000000000, 1.224646799147365903E-17, 0.000000000000000000 ) ) ;
#339 = VECTOR ( 'NONE', #1, 1000.000000000000000 ) ;
#340 = ADVANCED_FACE ( 'NONE', ( #672 ), #443, .T. ) ;
#341 = DIRECTION ( 'NONE',  ( 2.981066953365987194E-17, 1.260700200564540091E-16, -1.000000000000000000 ) ) ;
#342 = ORIENTED_EDGE ( 'NONE', *, *, #370, .F. ) ;
#343 = DIRECTION ( 'NONE',  ( 0.000000000000000000, 0.000000000000000000, 1.000000000000000000 ) ) ;
#344 = EDGE_CURVE ( 'NONE', #782, #782, #185, .T. ) ;
#345 = DIRECTION ( 'NONE',  ( 2.981066953365987194E-17, 1.260700200564540091E-16, -1.000000000000000000 ) ) ;
#346 = VECTOR ( 'NONE', #577, 1000.000000000000000 ) ;
#347 = EDGE_LOOP ( 'NONE', ( #38 ) ) ;
#348 = CARTESIAN_POINT ( 'NONE',  ( 2.339999999999999858, 0.9833192322604999980, -0.5149999999999999023 ) ) ;
#349 = DIRECTION ( 'NONE',  ( 0.000000000000000000, 0.000000000000000000, -1.000000000000000000 ) ) ;
#350 = VERTEX_POINT ( 'NONE', #310 ) ;
#351 = CARTESIAN_POINT ( 'NONE',  ( 2.339999999999999858, 0.000000000000000000, 0.000000000000000000 ) ) ;
#352 = CIRCLE ( 'NONE', #684, 0.8509999999999999787 ) ;
#353 = ORIENTED_EDGE ( 'NONE', *, *, #572, .F. ) ;
#354 = EDGE_CURVE ( 'NONE', #290, #29, #33, .T. ) ;
#355 = DIRECTION ( 'NONE',  ( -1.000000000000000000, -0.000000000000000000, -0.000000000000000000 ) ) ;
#356 = CARTESIAN_POINT ( 'NONE',  ( 6.500000000000000000, 1.224646799147365903E-17, -0.5150000000000000133 ) ) ;
#357 = EDGE_LOOP ( 'NONE', ( #265, #51, #114, #571 ) ) ;
#358 = AXIS2_PLACEMENT_3D ( 'NONE', #696, #341, #584 ) ;
#359 = EDGE_CURVE ( 'NONE', #718, #389, #688, .T. ) ;
#360 = DIRECTION ( 'NONE',  ( 0.4461977533473616697, -0.8949343913984795229, 0.000000000000000000 ) ) ;
#361 = FACE_OUTER_BOUND ( 'NONE', #439, .T. ) ;
#362 = ORIENTED_EDGE ( 'NONE', *, *, #48, .T. ) ;
#363 = CARTESIAN_POINT ( 'NONE',  ( 2.339999999999999858, 0.5150000000000024558, -0.6774776749089207462 ) ) ;
#364 = DIRECTION ( 'NONE',  ( 0.000000000000000000, -3.491481338843133355E-15, 1.000000000000000000 ) ) ;
#365 = EDGE_CURVE ( 'NONE', #290, #544, #327, .T. ) ;
#366 = ORIENTED_EDGE ( 'NONE', *, *, #359, .T. ) ;
#367 = AXIS2_PLACEMENT_3D ( 'NONE', #348, #235, #657 ) ;
#368 = CARTESIAN_POINT ( 'NONE',  ( 2.339999999999999858, 0.000000000000000000, 0.000000000000000000 ) ) ;
#369 = DIRECTION ( 'NONE',  ( 0.8949343913984054710, 0.000000000000000000, -0.4461977533475101620 ) ) ;
#370 = EDGE_CURVE ( 'NONE', #451, #681, #328, .T. ) ;
#371 = ORIENTED_EDGE ( 'NONE', *, *, #572, .T. ) ;
#372 = AXIS2_PLACEMENT_3D ( 'NONE', #377, #611, #63 ) ;
#373 = CARTESIAN_POINT ( 'NONE',  ( 1.586512658500282447, 0.7436618653472133467, 0.5150000000000000133 ) ) ;
#374 = CARTESIAN_POINT ( 'NONE',  ( 0.000000000000000000, 2.149999999999999911, 0.5150000000000001243 ) ) ;
#375 = ORIENTED_EDGE ( 'NONE', *, *, #48, .F. ) ;
#376 = PRODUCT ( 'ISO 7045 - M4 x 30 - Z - 30N_ISO 7045 - M4 x 30 - Z - 30N', 'ISO 7045 - M4 x 30 - Z - 30N_ISO 7045 - M4 x 30 - Z - 30N', '', ( #691 ) ) ;
#377 = CARTESIAN_POINT ( 'NONE',  ( 0.07880998200162411815, 1.224646799147365903E-17, 0.000000000000000000 ) ) ;
#378 = DIRECTION ( 'NONE',  ( -0.8949343913984054710, 0.4461977533475101620, 0.000000000000000000 ) ) ;
#379 = ORIENTED_EDGE ( 'NONE', *, *, #142, .T. ) ;
#380 = AXIS2_PLACEMENT_3D ( 'NONE', #746, #750, #260 ) ;
#381 = EDGE_CURVE ( 'NONE', #485, #173, #128, .T. ) ;
#382 = FACE_OUTER_BOUND ( 'NONE', #62, .T. ) ;
#383 = FACE_OUTER_BOUND ( 'NONE', #293, .T. ) ;
#384 = ORIENTED_EDGE ( 'NONE', *, *, #475, .T. ) ;
#385 = CARTESIAN_POINT ( 'NONE',  ( 0.07880998200162314671, 0.5150000000000031219, -0.8678097445627235285 ) ) ;
#386 = CIRCLE ( 'NONE', #246, 1.009117809157098700 ) ;
#387 = EDGE_CURVE ( 'NONE', #208, #208, #546, .T. ) ;
#388 = CARTESIAN_POINT ( 'NONE',  ( 0.8327192892707033778, -0.5150000000000028999, 0.8065069628489027753 ) ) ;
#389 = VERTEX_POINT ( 'NONE', #30 ) ;
#390 = CARTESIAN_POINT ( 'NONE',  ( 0.3318305201578637953, -1.984555433326063323, 0.5149999999999995692 ) ) ;
#391 = EDGE_CURVE ( 'NONE', #396, #681, #25, .T. ) ;
#392 = ORIENTED_EDGE ( 'NONE', *, *, #543, .T. ) ;
#393 = CONICAL_SURFACE ( 'NONE', #254, 0.8509999999999999787, 0.06981317007976585443 ) ;
#394 = FACE_OUTER_BOUND ( 'NONE', #274, .T. ) ;
#395 = DIRECTION ( 'NONE',  ( 0.8949343913984054710, 1.557891129246563043E-15, -0.4461977533475101620 ) ) ;
#396 = VERTEX_POINT ( 'NONE', #390 ) ;
#397 = CONICAL_SURFACE ( 'NONE', #731, 3077.683537175311358, 1.256637061435922798 ) ;
#398 = SPHERICAL_SURFACE ( 'NONE', #419, 6.500000000000000888 ) ;
#399 = CARTESIAN_POINT ( 'NONE',  ( 0.07880998200162454836, 0.8678097445627294126, 0.5149999999999999023 ) ) ;
#400 = ORIENTED_EDGE ( 'NONE', *, *, #647, .T. ) ;
#401 = ADVANCED_FACE ( 'NONE', ( #517 ), #444, .F. ) ;
#402 = CARTESIAN_POINT ( 'NONE',  ( -25.39999999999996305, 0.000000000000000000, 0.000000000000000000 ) ) ;
#403 = DIRECTION ( 'NONE',  ( -0.000000000000000000, 0.000000000000000000, 1.000000000000000000 ) ) ;
#404 = ORIENTED_EDGE ( 'NONE', *, *, #359, .F. ) ;
#405 = PRODUCT_DEFINITION ( 'General', '', #67, #70 ) ;
#406 = PLANE ( 'NONE',  #213 ) ;
#407 = VECTOR ( 'NONE', #616, 1000.000000000000227 ) ;
#408 = CARTESIAN_POINT ( 'NONE',  ( 0.07880998200162454836, -0.8678097445627295237, 0.5149999999999996803 ) ) ;
#409 = LINE ( 'NONE', #530, #671 ) ;
#410 = CARTESIAN_POINT ( 'NONE',  ( 33.09999999999999432, 2.000000000000000000, 0.000000000000000000 ) ) ;
#411 = ORIENTED_EDGE ( 'NONE', *, *, #660, .F. ) ;
#412 = DIRECTION ( 'NONE',  ( -1.000000000000000000, -0.000000000000000000, -0.000000000000000000 ) ) ;
#413 = AXIS2_PLACEMENT_3D ( 'NONE', #628, #550, #795 ) ;
#414 = DIRECTION ( 'NONE',  ( 0.000000000000000000, 3.656870482609724350E-15, -1.000000000000000000 ) ) ;
#415 = ADVANCED_FACE ( 'NONE', ( #141 ), #406, .T. ) ;
#416 = ORIENTED_EDGE ( 'NONE', *, *, #543, .F. ) ;
#417 = AXIS2_PLACEMENT_3D ( 'NONE', #304, #72, #504 ) ;
#418 = CARTESIAN_POINT ( 'NONE',  ( 0.07880998200162317446, 0.5149999999999970157, 0.8678097445627273032 ) ) ;
#419 = AXIS2_PLACEMENT_3D ( 'NONE', #338, #631, #284 ) ;
#420 = LINE ( 'NONE', #50, #601 ) ;
#421 = ORIENTED_EDGE ( 'NONE', *, *, #214, .T. ) ;
#422 = ADVANCED_FACE ( 'NONE', ( #457, #269 ), #398, .T. ) ;
#423 = CARTESIAN_POINT ( 'NONE',  ( 0.8327192892707016014, 0.5149999999999972378, 0.8065069628489067721 ) ) ;
#424 = FILL_AREA_STYLE_COLOUR ( '', #219 ) ;
#425 = ORIENTED_EDGE ( 'NONE', *, *, #512, .T. ) ;
#426 = EDGE_CURVE ( 'NONE', #507, #781, #330, .T. ) ;
#427 = CARTESIAN_POINT ( 'NONE',  ( 0.000000000000000000, 2.149999999999999911, -0.5150000000000000133 ) ) ;
#428 = ORIENTED_EDGE ( 'NONE', *, *, #3, .F. ) ;
#429 = DIRECTION ( 'NONE',  ( 1.000000000000000000, 0.000000000000000000, 0.000000000000000000 ) ) ;
#430 = PLANE ( 'NONE',  #303 ) ;
#431 = AXIS2_PLACEMENT_3D ( 'NONE', #68, #256, #222 ) ;
#432 = EDGE_LOOP ( 'NONE', ( #689 ) ) ;
#433 = DIRECTION ( 'NONE',  ( 0.000000000000000000, -1.000000000000000000, -1.653891437665908470E-16 ) ) ;
#434 = CARTESIAN_POINT ( 'NONE',  ( 2.339999999999999858, 0.9833192322604999980, 0.5150000000000001243 ) ) ;
#435 = AXIS2_PLACEMENT_3D ( 'NONE', #607, #774, #655 ) ;
#436 = ORIENTED_EDGE ( 'NONE', *, *, #722, .T. ) ;
#437 = CARTESIAN_POINT ( 'NONE',  ( 0.07880998200162454836, -0.8678097445627295237, 0.5149999999999996803 ) ) ;
#438 = DIRECTION ( 'NONE',  ( 0.000000000000000000, -1.000000000000000000, -1.653891437665908470E-16 ) ) ;
#439 = EDGE_LOOP ( 'NONE', ( #400 ) ) ;
#440 = EDGE_CURVE ( 'NONE', #768, #649, #277, .T. ) ;
#441 = CIRCLE ( 'NONE', #413, 1.009117809157098700 ) ;
#442 = CARTESIAN_POINT ( 'NONE',  ( 1.586512658500282891, -0.7436618653472135687, 0.5149999999999997913 ) ) ;
#443 = PLANE ( 'NONE',  #288 ) ;
#444 = CONICAL_SURFACE ( 'NONE', #230, 0.8509999999999999787, 0.06981317007976585443 ) ;
#445 = LINE ( 'NONE', #687, #493 ) ;
#446 = CARTESIAN_POINT ( 'NONE',  ( 0.000000000000000000, -0.5149999999999921307, -2.149999999999999911 ) ) ;
#447 = ORIENTED_EDGE ( 'NONE', *, *, #142, .F. ) ;
#448 = AXIS2_PLACEMENT_3D ( 'NONE', #133, #619, #429 ) ;
#449 = ADVANCED_FACE ( 'NONE', ( #35 ), #587, .T. ) ;
#450 = CARTESIAN_POINT ( 'NONE',  ( 0.07880998200162411815, 1.224646799147365903E-17, 0.000000000000000000 ) ) ;
#451 = VERTEX_POINT ( 'NONE', #280 ) ;
#452 = CARTESIAN_POINT ( 'NONE',  ( 1.265388954528028798, 0.000000000000000000, 3.853420195439739793 ) ) ;
#453 = CARTESIAN_POINT ( 'NONE',  ( 0.3318305201578637953, -1.984555433326063323, -0.5150000000000000133 ) ) ;
#454 = DIRECTION ( 'NONE',  ( 0.000000000000000000, 0.000000000000000000, 1.000000000000000000 ) ) ;
#455 = ORIENTED_EDGE ( 'NONE', *, *, #391, .F. ) ;
#456 = AXIS2_PLACEMENT_3D ( 'NONE', #193, #5, #626 ) ;
#457 = FACE_OUTER_BOUND ( 'NONE', #488, .T. ) ;
#458 = DIRECTION ( 'NONE',  ( 1.000000000000000000, 0.000000000000000000, 0.000000000000000000 ) ) ;
#459 = ORIENTED_EDGE ( 'NONE', *, *, #164, .T. ) ;
#460 = AXIS2_PLACEMENT_3D ( 'NONE', #762, #515, #26 ) ;
#461 = CARTESIAN_POINT ( 'NONE',  ( 2.339999999999999858, 0.000000000000000000, 0.000000000000000000 ) ) ;
#462 = DIRECTION ( 'NONE',  ( 0.000000000000000000, 1.000000000000000000, 1.338610863216202098E-16 ) ) ;
#463 = EDGE_LOOP ( 'NONE', ( #46 ) ) ;
#464 = ADVANCED_FACE ( 'NONE', ( #520 ), #704, .T. ) ;
#465 = CARTESIAN_POINT ( 'NONE',  ( 0.000000000000000000, 0.5149999999999925748, 2.150000000000001688 ) ) ;
#466 = CARTESIAN_POINT ( 'NONE',  ( -997.3834933385059003, 0.000000000000000000, 0.000000000000000000 ) ) ;
#467 = ORIENTED_EDGE ( 'NONE', *, *, #203, .F. ) ;
#468 =( NAMED_UNIT ( * ) SI_UNIT ( $, .STERADIAN. ) SOLID_ANGLE_UNIT ( ) );
#469 = CARTESIAN_POINT ( 'NONE',  ( 3.300000000000000711, 0.000000000000000000, 0.000000000000000000 ) ) ;
#470 = CONICAL_SURFACE ( 'NONE', #633, 0.8509999999999999787, 0.06981317007976585443 ) ;
#471 = DIRECTION ( 'NONE',  ( -1.000000000000000000, 0.000000000000000000, -0.000000000000000000 ) ) ;
#472 = ORIENTED_EDGE ( 'NONE', *, *, #605, .F. ) ;
#473 = APPLICATION_PROTOCOL_DEFINITION ( 'draft international standard', 'automotive_design', 1998, #505 ) ;
#474 = PLANE ( 'NONE',  #8 ) ;
#475 = EDGE_CURVE ( 'NONE', #65, #537, #266, .T. ) ;
#476 = ADVANCED_BREP_SHAPE_REPRESENTATION ( 'ISO 7045 - M4 x 30 - Z - 30N_ISO 7045 - M4 x 30 - Z - 30N', ( #192, #144 ), #640 ) ;
#477 = ORIENTED_EDGE ( 'NONE', *, *, #673, .F. ) ;
#478 = CARTESIAN_POINT ( 'NONE',  ( 2.339999999999999858, 0.5149999999999976819, 0.6774776749089244099 ) ) ;
#479 = CARTESIAN_POINT ( 'NONE',  ( 2.339999999999999858, 0.9833192322604999980, 0.5150000000000001243 ) ) ;
#480 = EDGE_LOOP ( 'NONE', ( #245 ) ) ;
#481 = DIRECTION ( 'NONE',  ( 0.000000000000000000, -3.491481338843133355E-15, 1.000000000000000000 ) ) ;
#482 = AXIS2_PLACEMENT_3D ( 'NONE', #77, #324, #496 ) ;
#483 = CARTESIAN_POINT ( 'NONE',  ( 0.07880998200162454836, -0.8678097445627294126, -0.5150000000000000133 ) ) ;
#484 = CIRCLE ( 'NONE', #598, 6.479565957685747613 ) ;
#485 = VERTEX_POINT ( 'NONE', #272 ) ;
#486 = EDGE_CURVE ( 'NONE', #537, #786, #93, .T. ) ;
#487 = CARTESIAN_POINT ( 'NONE',  ( 1.586512658500282447, -0.5149999999999973488, -0.7436618653472153451 ) ) ;
#488 = EDGE_LOOP ( 'NONE', ( #793 ) ) ;
#489 = AXIS2_PLACEMENT_3D ( 'NONE', #356, #547, #726 ) ;
#490 = CARTESIAN_POINT ( 'NONE',  ( 33.09999999999999432, 0.000000000000000000, 0.000000000000000000 ) ) ;
#491 = DIRECTION ( 'NONE',  ( -1.000000000000000000, 0.000000000000000000, 0.000000000000000000 ) ) ;
#492 = ORIENTED_EDGE ( 'NONE', *, *, #556, .T. ) ;
#493 = VECTOR ( 'NONE', #136, 1000.000000000000000 ) ;
#494 = CARTESIAN_POINT ( 'NONE',  ( 2.339999999999999858, 0.000000000000000000, 0.000000000000000000 ) ) ;
#495 = B_SPLINE_CURVE_WITH_KNOTS ( 'NONE', 3,
 ( #251, #373, #623, #66 ),
 .UNSPECIFIED., .F., .F.,
 ( 4, 4 ),
 ( 0.004243790224673708346, 0.006512406268448421576 ),
 .UNSPECIFIED. ) ;
#496 = DIRECTION ( 'NONE',  ( 0.000000000000000000, 0.000000000000000000, 1.000000000000000000 ) ) ;
#497 = AXIS2_PLACEMENT_3D ( 'NONE', #336, #101, #343 ) ;
#498 = VERTEX_POINT ( 'NONE', #453 ) ;
#499 = DIRECTION ( 'NONE',  ( 0.000000000000000000, 1.000000000000000000, 1.260700200564540091E-16 ) ) ;
#500 = PLANE ( 'NONE',  #456 ) ;
#501 = ADVANCED_FACE ( 'NONE', ( #155, #694 ), #85, .T. ) ;
#502 = EDGE_LOOP ( 'NONE', ( #342, #54, #404, #710 ) ) ;
#503 = CIRCLE ( 'NONE', #191, 6.479565957685747613 ) ;
#504 = DIRECTION ( 'NONE',  ( 0.000000000000000000, 0.000000000000000000, 1.000000000000000000 ) ) ;
#505 = APPLICATION_CONTEXT ( 'automotive_design' ) ;
#506 = LINE ( 'NONE', #570, #316 ) ;
#507 = VERTEX_POINT ( 'NONE', #204 ) ;
#508 = CARTESIAN_POINT ( 'NONE',  ( 0.07880998200162454836, -0.8678097445627294126, -0.5150000000000000133 ) ) ;
#509 = CARTESIAN_POINT ( 'NONE',  ( 6.500000000000000000, -5.267959233760015702E-17, 0.5150000000000000133 ) ) ;
#510 = ORIENTED_EDGE ( 'NONE', *, *, #757, .T. ) ;
#511 = AXIS2_PLACEMENT_3D ( 'NONE', #450, #692, #145 ) ;
#512 = EDGE_CURVE ( 'NONE', #599, #10, #99, .T. ) ;
#513 = CARTESIAN_POINT ( 'NONE',  ( 6.064432258795712016, 3.062453033924986646E-15, -0.8736138818786205462 ) ) ;
#514 = ORIENTED_EDGE ( 'NONE', *, *, #154, .T. ) ;
#515 = DIRECTION ( 'NONE',  ( -1.000000000000000000, -0.000000000000000000, -0.000000000000000000 ) ) ;
#516 = ORIENTED_EDGE ( 'NONE', *, *, #24, .T. ) ;
#517 = FACE_OUTER_BOUND ( 'NONE', #202, .T. ) ;
#518 = DIRECTION ( 'NONE',  ( -0.000000000000000000, 0.000000000000000000, 1.000000000000000000 ) ) ;
#519 = AXIS2_PLACEMENT_3D ( 'NONE', #402, #642, #753 ) ;
#520 = FACE_OUTER_BOUND ( 'NONE', #233, .T. ) ;
#521 = EDGE_CURVE ( 'NONE', #194, #65, #617, .T. ) ;
#522 = CARTESIAN_POINT ( 'NONE',  ( 6.500000000000000000, 1.224646799147365903E-17, -0.5150000000000000133 ) ) ;
#523 = EDGE_LOOP ( 'NONE', ( #206 ) ) ;
#524 = AXIS2_PLACEMENT_3D ( 'NONE', #775, #278, #87 ) ;
#525 = DIRECTION ( 'NONE',  ( -0.000000000000000000, 0.000000000000000000, 1.000000000000000000 ) ) ;
#526 = CARTESIAN_POINT ( 'NONE',  ( 2.339999999999999858, -0.5150000000000036771, 0.9833192322604982216 ) ) ;
#527 = ORIENTED_EDGE ( 'NONE', *, *, #637, .F. ) ;
#528 = CARTESIAN_POINT ( 'NONE',  ( 3.099999999999998757, 0.000000000000000000, 4.000000000000000000 ) ) ;
#529 = VECTOR ( 'NONE', #4, 1000.000000000000000 ) ;
#530 = CARTESIAN_POINT ( 'NONE',  ( 2.339999999999999858, 0.5150000000000035660, -0.9833192322609830560 ) ) ;
#531 = FACE_OUTER_BOUND ( 'NONE', #42, .T. ) ;
#532 = ORIENTED_EDGE ( 'NONE', *, *, #614, .T. ) ;
#533 = ADVANCED_FACE ( 'NONE', ( #394 ), #474, .F. ) ;
#534 = CIRCLE ( 'NONE', #242, 4.000000000000000000 ) ;
#535 = FACE_OUTER_BOUND ( 'NONE', #549, .T. ) ;
#536 = SURFACE_STYLE_USAGE ( .BOTH. , #118 ) ;
#537 = VERTEX_POINT ( 'NONE', #363 ) ;
#538 = PLANE ( 'NONE',  #174 ) ;
#539 = DIRECTION ( 'NONE',  ( 0.000000000000000000, 1.000000000000000000, 3.491481338843133355E-15 ) ) ;
#540 = EDGE_LOOP ( 'NONE', ( #656, #747, #362, #627 ) ) ;
#541 = CARTESIAN_POINT ( 'NONE',  ( 2.339999999999999858, -0.9833192322609848324, -0.5150000000000000133 ) ) ;
#542 = CARTESIAN_POINT ( 'NONE',  ( -25.39999999999996305, 0.000000000000000000, 0.000000000000000000 ) ) ;
#543 = EDGE_CURVE ( 'NONE', #649, #153, #325, .T. ) ;
#544 = VERTEX_POINT ( 'NONE', #171 ) ;
#545 = CARTESIAN_POINT ( 'NONE',  ( 2.339999999999999858, 0.5150000000000035660, -0.9833192322609830560 ) ) ;
#546 = CIRCLE ( 'NONE', #431, 3.853420195439739793 ) ;
#547 = DIRECTION ( 'NONE',  ( -0.000000000000000000, 0.000000000000000000, 1.000000000000000000 ) ) ;
#548 = ADVANCED_FACE ( 'NONE', ( #117 ), #604, .T. ) ;
#549 = EDGE_LOOP ( 'NONE', ( #744, #249, #425, #636 ) ) ;
#550 = DIRECTION ( 'NONE',  ( -1.000000000000000000, -0.000000000000000000, -0.000000000000000000 ) ) ;
#551 = LINE ( 'NONE', #236, #339 ) ;
#552 = ORIENTED_EDGE ( 'NONE', *, *, #475, .F. ) ;
#553 = VECTOR ( 'NONE', #305, 1000.000000000000000 ) ;
#554 = CARTESIAN_POINT ( 'NONE',  ( 1.555305873969552888, 0.000000000000000000, 0.000000000000000000 ) ) ;
#555 = EDGE_LOOP ( 'NONE', ( #698, #492, #379, #302 ) ) ;
#556 = EDGE_CURVE ( 'NONE', #599, #29, #207, .T. ) ;
#557 = DIRECTION ( 'NONE',  ( 0.000000000000000000, 0.000000000000000000, 1.000000000000000000 ) ) ;
#558 = CARTESIAN_POINT ( 'NONE',  ( 2.339999999999999858, -0.5150000000000025668, 0.6774776749089207462 ) ) ;
#559 = VECTOR ( 'NONE', #677, 1000.000000000000000 ) ;
#560 = EDGE_LOOP ( 'NONE', ( #161 ) ) ;
#561 = UNCERTAINTY_MEASURE_WITH_UNIT (LENGTH_MEASURE( 1.000000000000000082E-05 ), #244, 'distance_accuracy_value', 'NONE');
#562 = DIRECTION ( 'NONE',  ( 2.981066953365987194E-17, 1.260700200564540091E-16, -1.000000000000000000 ) ) ;
#563 = FACE_OUTER_BOUND ( 'NONE', #592, .T. ) ;
#564 = EDGE_LOOP ( 'NONE', ( #411 ) ) ;
#565 = AXIS2_PLACEMENT_3D ( 'NONE', #632, #403, #102 ) ;
#566 = DIRECTION ( 'NONE',  ( 0.000000000000000000, 0.000000000000000000, 1.000000000000000000 ) ) ;
#567 = DIRECTION ( 'NONE',  ( 0.000000000000000000, 0.000000000000000000, 1.000000000000000000 ) ) ;
#568 = EDGE_CURVE ( 'NONE', #153, #389, #200, .T. ) ;
#569 = ORIENTED_EDGE ( 'NONE', *, *, #296, .F. ) ;
#570 = CARTESIAN_POINT ( 'NONE',  ( 2.339999999999999858, -0.9833192322609848324, -0.5150000000000000133 ) ) ;
#571 = ORIENTED_EDGE ( 'NONE', *, *, #188, .F. ) ;
#572 = EDGE_CURVE ( 'NONE', #157, #537, #409, .T. ) ;
#573 = VECTOR ( 'NONE', #742, 1000.000000000000000 ) ;
#574 = CARTESIAN_POINT ( 'NONE',  ( 0.000000000000000000, -2.149999999999999911, 0.5149999999999995692 ) ) ;
#575 = PLANE ( 'NONE',  #52 ) ;
#576 = CARTESIAN_POINT ( 'NONE',  ( 0.8327192892707033778, 0.8065069628489045517, -0.5150000000000000133 ) ) ;
#577 = DIRECTION ( 'NONE',  ( 0.000000000000000000, 3.656870482609724350E-15, -1.000000000000000000 ) ) ;
#578 = ADVANCED_FACE ( 'NONE', ( #53 ), #470, .F. ) ;
#579 = CARTESIAN_POINT ( 'NONE',  ( 0.8327192892707019345, 0.5150000000000028999, -0.8065069628489029974 ) ) ;
#580 = DIRECTION ( 'NONE',  ( 1.000000000000000000, 0.000000000000000000, 0.000000000000000000 ) ) ;
#581 = EDGE_LOOP ( 'NONE', ( #371, #23, #166, #122 ) ) ;
#582 = AXIS2_PLACEMENT_3D ( 'NONE', #238, #355, #55 ) ;
#583 = DIRECTION ( 'NONE',  ( 0.8949343913984054710, 1.557891129246563043E-15, -0.4461977533475101620 ) ) ;
#584 = DIRECTION ( 'NONE',  ( 0.000000000000000000, 1.000000000000000000, 1.260700200564540091E-16 ) ) ;
#585 = ORIENTED_EDGE ( 'NONE', *, *, #276, .T. ) ;
#586 = AXIS2_PLACEMENT_3D ( 'NONE', #32, #345, #462 ) ;
#587 = PLANE ( 'NONE',  #763 ) ;
#588 = PLANE ( 'NONE',  #703 ) ;
#589 = ADVANCED_FACE ( 'NONE', ( #729 ), #538, .T. ) ;
#590 = DIRECTION ( 'NONE',  ( 0.8949343913984795229, -1.557891129246044565E-15, 0.4461977533473616697 ) ) ;
#591 = FACE_OUTER_BOUND ( 'NONE', #432, .T. ) ;
#592 = EDGE_LOOP ( 'NONE', ( #436, #119, #527, #714 ) ) ;
#593 = APPLICATION_PROTOCOL_DEFINITION ( 'draft international standard', 'automotive_design', 1998, #756 ) ;
#594 = ADVANCED_FACE ( 'NONE', ( #299 ), #791, .F. ) ;
#595 = AXIS2_PLACEMENT_3D ( 'NONE', #74, #319, #125 ) ;
#596 = CARTESIAN_POINT ( 'NONE',  ( 0.3318305201578438668, -0.5150000000000070077, 1.984555433326002483 ) ) ;
#597 = CARTESIAN_POINT ( 'NONE',  ( 2.339999999999999858, -0.5150000000000036771, 0.9833192322604982216 ) ) ;
#598 = AXIS2_PLACEMENT_3D ( 'NONE', #176, #120, #110 ) ;
#599 = VERTEX_POINT ( 'NONE', #49 ) ;
#600 = CARTESIAN_POINT ( 'NONE',  ( 2.339999999999999858, 0.6774776749089228556, -0.5150000000000000133 ) ) ;
#601 = VECTOR ( 'NONE', #414, 1000.000000000000000 ) ;
#602 = LINE ( 'NONE', #479, #139 ) ;
#603 = VERTEX_POINT ( 'NONE', #287 ) ;
#604 = PLANE ( 'NONE',  #367 ) ;
#605 = EDGE_CURVE ( 'NONE', #603, #69, #716, .T. ) ;
#606 =( NAMED_UNIT ( * ) PLANE_ANGLE_UNIT ( ) SI_UNIT ( $, .RADIAN. ) );
#607 = CARTESIAN_POINT ( 'NONE',  ( 3.099999999999998757, 0.000000000000000000, 0.000000000000000000 ) ) ;
#608 = VECTOR ( 'NONE', #758, 1000.000000000000000 ) ;
#609 =( NAMED_UNIT ( * ) SI_UNIT ( $, .STERADIAN. ) SOLID_ANGLE_UNIT ( ) );
#610 = ORIENTED_EDGE ( 'NONE', *, *, #521, .F. ) ;
#611 = DIRECTION ( 'NONE',  ( -1.000000000000000000, -0.000000000000000000, -0.000000000000000000 ) ) ;
#612 = CARTESIAN_POINT ( 'NONE',  ( 2.339999999999999858, 0.5150000000000035660, -0.9833192322609830560 ) ) ;
#613 = ORIENTED_EDGE ( 'NONE', *, *, #97, .F. ) ;
#614 = EDGE_CURVE ( 'NONE', #29, #702, #146, .T. ) ;
#615 = DIRECTION ( 'NONE',  ( 0.000000000000000000, 0.000000000000000000, 1.000000000000000000 ) ) ;
#616 = DIRECTION ( 'NONE',  ( 0.8949343913984054710, -0.4461977533475101620, 0.000000000000000000 ) ) ;
#617 = B_SPLINE_CURVE_WITH_KNOTS ( 'NONE', 3,
 ( #634, #576, #27, #600 ),
 .UNSPECIFIED., .F., .F.,
 ( 4, 4 ),
 ( 0.001595836496941432881, 0.003865027712480163455 ),
 .UNSPECIFIED. ) ;
#618 = EDGE_LOOP ( 'NONE', ( #759, #241, #224, #455 ) ) ;
#619 = DIRECTION ( 'NONE',  ( 0.000000000000000000, -1.000000000000000000, -3.491481338843133355E-15 ) ) ;
#620 = DIRECTION ( 'NONE',  ( 2.981066953365987194E-17, 1.260700200564540091E-16, -1.000000000000000000 ) ) ;
#621 = CONICAL_SURFACE ( 'NONE', #86, 0.8509999999999999787, 0.06981317007976585443 ) ;
#622 = ORIENTED_EDGE ( 'NONE', *, *, #214, .F. ) ;
#623 = CARTESIAN_POINT ( 'NONE',  ( 0.8327192892707020455, 0.8065069628489046627, 0.5150000000000000133 ) ) ;
#624 = ADVANCED_FACE ( 'NONE', ( #535 ), #393, .F. ) ;
#625 = PRODUCT_DEFINITION_SHAPE ( 'NONE', 'NONE',  #405 ) ;
#626 = DIRECTION ( 'NONE',  ( -0.8949343913984054710, -1.557891129246563043E-15, 0.4461977533475101620 ) ) ;
#627 = ORIENTED_EDGE ( 'NONE', *, *, #3, .T. ) ;
#628 = CARTESIAN_POINT ( 'NONE',  ( 0.07880998200162411815, 1.224646799147365903E-17, 0.000000000000000000 ) ) ;
#629 = DIRECTION ( 'NONE',  ( 0.000000000000000000, 0.000000000000000000, 1.000000000000000000 ) ) ;
#630 = ORIENTED_EDGE ( 'NONE', *, *, #344, .F. ) ;
#631 = DIRECTION ( 'NONE',  ( -0.000000000000000000, 0.000000000000000000, -1.000000000000000000 ) ) ;
#632 = CARTESIAN_POINT ( 'NONE',  ( 0.000000000000000000, 2.149999999999998135, -0.5150000000000000133 ) ) ;
#633 = AXIS2_PLACEMENT_3D ( 'NONE', #351, #712, #720 ) ;
#634 = CARTESIAN_POINT ( 'NONE',  ( 0.07880998200162454836, 0.8678097445627294126, -0.5150000000000000133 ) ) ;
#635 = DIRECTION ( 'NONE',  ( 0.000000000000000000, 0.000000000000000000, -1.000000000000000000 ) ) ;
#636 = ORIENTED_EDGE ( 'NONE', *, *, #734, .F. ) ;
#637 = EDGE_CURVE ( 'NONE', #451, #290, #778, .T. ) ;
#638 = CARTESIAN_POINT ( 'NONE',  ( 0.07880998200162314671, 0.5150000000000031219, -0.8678097445627235285 ) ) ;
#639 = LINE ( 'NONE', #273, #91 ) ;
#640 =( GEOMETRIC_REPRESENTATION_CONTEXT ( 3 ) GLOBAL_UNCERTAINTY_ASSIGNED_CONTEXT ( ( #80 ) ) GLOBAL_UNIT_ASSIGNED_CONTEXT ( ( #234, #777, #468 ) ) REPRESENTATION_CONTEXT ( 'NONE', 'WORKASPACE' ) );
#641 = EDGE_CURVE ( 'NONE', #507, #599, #484, .T. ) ;
#642 = DIRECTION ( 'NONE',  ( -1.000000000000000000, -0.000000000000000000, -0.000000000000000000 ) ) ;
#643 = DIRECTION ( 'NONE',  ( 0.000000000000000000, -1.000000000000000000, -3.491481338843133355E-15 ) ) ;
#644 = CARTESIAN_POINT ( 'NONE',  ( 3.100000000000000089, 0.000000000000000000, 2.200000000000000178 ) ) ;
#645 = AXIS2_PLACEMENT_3D ( 'NONE', #513, #130, #369 ) ;
#646 = CARTESIAN_POINT ( 'NONE',  ( 2.339999999999999858, 0.9833192322604999980, -0.5149999999999999023 ) ) ;
#647 = EDGE_CURVE ( 'NONE', #158, #158, #88, .T. ) ;
#648 = CARTESIAN_POINT ( 'NONE',  ( 3.100000000000000089, 2.000000000000000000, 0.000000000000000000 ) ) ;
#649 = VERTEX_POINT ( 'NONE', #227 ) ;
#650 = CIRCLE ( 'NONE', #489, 6.479565957685747613 ) ;
#651 = DIRECTION ( 'NONE',  ( 0.8949343913984795229, 0.4461977533473616697, 0.000000000000000000 ) ) ;
#652 = DIRECTION ( 'NONE',  ( 0.000000000000000000, 0.000000000000000000, -1.000000000000000000 ) ) ;
#653 = VERTEX_POINT ( 'NONE', #596 ) ;
#654 = CIRCLE ( 'NONE', #43, 0.8509999999999999787 ) ;
#655 = DIRECTION ( 'NONE',  ( 0.000000000000000000, 0.000000000000000000, 1.000000000000000000 ) ) ;
#656 = ORIENTED_EDGE ( 'NONE', *, *, #71, .T. ) ;
#657 = DIRECTION ( 'NONE',  ( 0.000000000000000000, 0.000000000000000000, 1.000000000000000000 ) ) ;
#658 = DIRECTION ( 'NONE',  ( 0.4461977533473616697, -0.8949343913984795229, 0.000000000000000000 ) ) ;
#659 = ORIENTED_EDGE ( 'NONE', *, *, #512, .F. ) ;
#660 = EDGE_CURVE ( 'NONE', #706, #706, #701, .T. ) ;
#661 = CARTESIAN_POINT ( 'NONE',  ( 1.586512658500282447, 0.5149999999999974598, 0.7436618653472151230 ) ) ;
#662 = VECTOR ( 'NONE', #433, 1000.000000000000000 ) ;
#663 =( GEOMETRIC_REPRESENTATION_CONTEXT ( 3 ) GLOBAL_UNCERTAINTY_ASSIGNED_CONTEXT ( ( #561 ) ) GLOBAL_UNIT_ASSIGNED_CONTEXT ( ( #244, #606, #609 ) ) REPRESENTATION_CONTEXT ( 'NONE', 'WORKASPACE' ) );
#664 = DIRECTION ( 'NONE',  ( 0.000000000000000000, 0.000000000000000000, 1.000000000000000000 ) ) ;
#665 = ORIENTED_EDGE ( 'NONE', *, *, #381, .T. ) ;
#666 = DIRECTION ( 'NONE',  ( 0.000000000000000000, 0.000000000000000000, 1.000000000000000000 ) ) ;
#667 = SURFACE_STYLE_FILL_AREA ( #792 ) ;
#668 = ORIENTED_EDGE ( 'NONE', *, *, #794, .F. ) ;
#669 = PLANE ( 'NONE',  #167 ) ;
#670 = CIRCLE ( 'NONE', #645, 6.426280380454246099 ) ;
#671 = VECTOR ( 'NONE', #481, 1000.000000000000000 ) ;
#672 = FACE_OUTER_BOUND ( 'NONE', #75, .T. ) ;
#673 = EDGE_CURVE ( 'NONE', #173, #702, #741, .T. ) ;
#674 = B_SPLINE_CURVE_WITH_KNOTS ( 'NONE', 3,
 ( #437, #195, #442, #7 ),
 .UNSPECIFIED., .F., .F.,
 ( 4, 4 ),
 ( 0.001595836497732685145, 0.003865027713271410297 ),
 .UNSPECIFIED. ) ;
#675 = ORIENTED_EDGE ( 'NONE', *, *, #24, .F. ) ;
#676 = FACE_OUTER_BOUND ( 'NONE', #618, .T. ) ;
#677 = DIRECTION ( 'NONE',  ( 0.000000000000000000, 1.000000000000000000, 0.000000000000000000 ) ) ;
#678 = CIRCLE ( 'NONE', #524, 6.479565957685747613 ) ;
#679 = FACE_OUTER_BOUND ( 'NONE', #480, .T. ) ;
#680 = CARTESIAN_POINT ( 'NONE',  ( 0.3318305201578637953, 0.5150000000000070077, -1.984555433326061546 ) ) ;
#681 = VERTEX_POINT ( 'NONE', #190 ) ;
#682 = EDGE_CURVE ( 'NONE', #100, #451, #674, .T. ) ;
#683 = DIRECTION ( 'NONE',  ( 2.981066953365987194E-17, 1.000000000000000000, 3.617551358899587488E-15 ) ) ;
#684 = AXIS2_PLACEMENT_3D ( 'NONE', #64, #21, #267 ) ;
#685 = EDGE_LOOP ( 'NONE', ( #15, #776, #477, #514 ) ) ;
#686 = ADVANCED_FACE ( 'NONE', ( #318 ), #255, .T. ) ;
#687 = CARTESIAN_POINT ( 'NONE',  ( 0.000000000000000000, -2.149999999999999911, -0.5150000000000000133 ) ) ;
#688 = LINE ( 'NONE', #138, #559 ) ;
#689 = ORIENTED_EDGE ( 'NONE', *, *, #711, .F. ) ;
#690 = CIRCLE ( 'NONE', #323, 6.426280380454417518 ) ;
#691 = PRODUCT_CONTEXT ( 'NONE', #505, 'mechanical' ) ;
#692 = DIRECTION ( 'NONE',  ( -1.000000000000000000, -0.000000000000000000, -0.000000000000000000 ) ) ;
#693 = ORIENTED_EDGE ( 'NONE', *, *, #175, .F. ) ;
#694 = FACE_OUTER_BOUND ( 'NONE', #560, .T. ) ;
#695 = ADVANCED_FACE ( 'NONE', ( #676 ), #669, .T. ) ;
#696 = CARTESIAN_POINT ( 'NONE',  ( 0.000000000000000000, -2.149999999999998135, 0.5149999999999995692 ) ) ;
#697 = VECTOR ( 'NONE', #438, 1000.000000000000000 ) ;
#698 = ORIENTED_EDGE ( 'NONE', *, *, #641, .T. ) ;
#699 = DIRECTION ( 'NONE',  ( 1.000000000000000000, 0.000000000000000000, 0.000000000000000000 ) ) ;
#700 = FACE_OUTER_BOUND ( 'NONE', #463, .T. ) ;
#701 = CIRCLE ( 'NONE', #150, 2.000000000000000000 ) ;
#702 = VERTEX_POINT ( 'NONE', #127 ) ;
#703 = AXIS2_PLACEMENT_3D ( 'NONE', #215, #643, #458 ) ;
#704 = PLANE ( 'NONE',  #73 ) ;
#705 = CARTESIAN_POINT ( 'NONE',  ( 2.339999999999999858, -0.5150000000000036771, 0.9833192322604984437 ) ) ;
#706 = VERTEX_POINT ( 'NONE', #773 ) ;
#707 = EDGE_CURVE ( 'NONE', #537, #153, #321, .T. ) ;
#708 = DIRECTION ( 'NONE',  ( 0.000000000000000000, -3.614249330683745220E-15, 1.000000000000000000 ) ) ;
#709 = DIRECTION ( 'NONE',  ( -1.000000000000000000, -0.000000000000000000, -0.000000000000000000 ) ) ;
#710 = ORIENTED_EDGE ( 'NONE', *, *, #748, .T. ) ;
#711 = EDGE_CURVE ( 'NONE', #225, #225, #179, .T. ) ;
#712 = DIRECTION ( 'NONE',  ( -1.000000000000000000, -0.000000000000000000, -0.000000000000000000 ) ) ;
#713 = DIRECTION ( 'NONE',  ( -0.000000000000000000, 0.000000000000000000, 1.000000000000000000 ) ) ;
#714 = ORIENTED_EDGE ( 'NONE', *, *, #682, .F. ) ;
#715 = CIRCLE ( 'NONE', #372, 1.009117809157098700 ) ;
#716 = LINE ( 'NONE', #427, #123 ) ;
#717 = LINE ( 'NONE', #597, #160 ) ;
#718 = VERTEX_POINT ( 'NONE', #258 ) ;
#719 = DIRECTION ( 'NONE',  ( 0.000000000000000000, 0.000000000000000000, 1.000000000000000000 ) ) ;
#720 = DIRECTION ( 'NONE',  ( 0.000000000000000000, 0.000000000000000000, 1.000000000000000000 ) ) ;
#721 = DIRECTION ( 'NONE',  ( -0.8949343913984054710, 0.4461977533475101620, 0.000000000000000000 ) ) ;
#722 = EDGE_CURVE ( 'NONE', #100, #544, #715, .T. ) ;
#723 = ORIENTED_EDGE ( 'NONE', *, *, #250, .T. ) ;
#724 = CIRCLE ( 'NONE', #790, 6.479565957685747613 ) ;
#725 = CARTESIAN_POINT ( 'NONE',  ( 2.339999999999999858, 0.000000000000000000, 0.000000000000000000 ) ) ;
#726 = DIRECTION ( 'NONE',  ( 1.000000000000000000, 0.000000000000000000, 0.000000000000000000 ) ) ;
#727 = EDGE_LOOP ( 'NONE', ( #764 ) ) ;
#728 = ADVANCED_FACE ( 'NONE', ( #382, #679 ), #730, .T. ) ;
#729 = FACE_OUTER_BOUND ( 'NONE', #502, .T. ) ;
#730 = TOROIDAL_SURFACE ( 'NONE', #417, 3.640000000000000124, 0.3600000000000002087 ) ;
#731 = AXIS2_PLACEMENT_3D ( 'NONE', #466, #709, #454 ) ;
#732 = DIRECTION ( 'NONE',  ( -1.000000000000000000, -0.000000000000000000, -0.000000000000000000 ) ) ;
#733 = ORIENTED_EDGE ( 'NONE', *, *, #97, .T. ) ;
#734 = EDGE_CURVE ( 'NONE', #702, #10, #495, .T. ) ;
#735 = CARTESIAN_POINT ( 'NONE',  ( 2.339999999999999858, 0.9833192322604999980, 0.5150000000000001243 ) ) ;
#736 = DIRECTION ( 'NONE',  ( 1.000000000000000000, 0.000000000000000000, 0.000000000000000000 ) ) ;
#737 = ORIENTED_EDGE ( 'NONE', *, *, #521, .T. ) ;
#738 = CARTESIAN_POINT ( 'NONE',  ( 1.555305873969552888, 0.000000000000000000, 4.000000000000000000 ) ) ;
#739 = CARTESIAN_POINT ( 'NONE',  ( 2.339999999999999858, -0.5150000000000025668, 0.6774776749089207462 ) ) ;
#740 = ORIENTED_EDGE ( 'NONE', *, *, #707, .T. ) ;
#741 = LINE ( 'NONE', #735, #662 ) ;
#742 = DIRECTION ( 'NONE',  ( 0.000000000000000000, -1.000000000000000000, -3.491481338843133355E-15 ) ) ;
#743 = TOROIDAL_SURFACE ( 'NONE', #460, 2.200000000000000178, 0.2000000000000000111 ) ;
#744 = ORIENTED_EDGE ( 'NONE', *, *, #614, .F. ) ;
#745 = DIRECTION ( 'NONE',  ( -1.000000000000000000, -0.000000000000000000, -0.000000000000000000 ) ) ;
#746 = CARTESIAN_POINT ( 'NONE',  ( 6.500000000000000000, 0.5150000000000000133, 1.798112889504214151E-15 ) ) ;
#747 = ORIENTED_EDGE ( 'NONE', *, *, #365, .T. ) ;
#748 = EDGE_CURVE ( 'NONE', #718, #681, #76, .T. ) ;
#749 = CARTESIAN_POINT ( 'NONE',  ( 0.3318305201578637953, -0.5149999999999926859, -1.984555433326064877 ) ) ;
#750 = DIRECTION ( 'NONE',  ( 0.000000000000000000, -1.000000000000000000, -3.491481338843133355E-15 ) ) ;
#751 = CIRCLE ( 'NONE', #380, 6.479565957685747613 ) ;
#752 = ORIENTED_EDGE ( 'NONE', *, *, #36, .T. ) ;
#753 = DIRECTION ( 'NONE',  ( 0.000000000000000000, 0.000000000000000000, 1.000000000000000000 ) ) ;
#754 = EDGE_LOOP ( 'NONE', ( #211, #140, #298, #129 ) ) ;
#755 = MECHANICAL_DESIGN_GEOMETRIC_PRESENTATION_REPRESENTATION (  '', ( #308 ), #663 ) ;
#756 = APPLICATION_CONTEXT ( 'automotive_design' ) ;
#757 = EDGE_CURVE ( 'NONE', #702, #65, #654, .T. ) ;
#758 = DIRECTION ( 'NONE',  ( 0.8949343913984795229, 0.4461977533473616697, 8.293075310993369208E-17 ) ) ;
#759 = ORIENTED_EDGE ( 'NONE', *, *, #307, .T. ) ;
#760 = EDGE_LOOP ( 'NONE', ( #320, #231, #552, #610 ) ) ;
#761 = DIRECTION ( 'NONE',  ( 0.000000000000000000, -3.617551358899587488E-15, 1.000000000000000000 ) ) ;
#762 = CARTESIAN_POINT ( 'NONE',  ( 3.300000000000000711, 0.000000000000000000, 0.000000000000000000 ) ) ;
#763 = AXIS2_PLACEMENT_3D ( 'NONE', #40, #217, #761 ) ;
#764 = ORIENTED_EDGE ( 'NONE', *, *, #344, .T. ) ;
#765 = DIRECTION ( 'NONE',  ( -1.000000000000000000, 0.000000000000000000, 0.000000000000000000 ) ) ;
#766 = FACE_OUTER_BOUND ( 'NONE', #555, .T. ) ;
#767 = EDGE_CURVE ( 'NONE', #389, #197, #312, .T. ) ;
#768 = VERTEX_POINT ( 'NONE', #749 ) ;
#769 = AXIS2_PLACEMENT_3D ( 'NONE', #490, #309, #11 ) ;
#770 = CIRCLE ( 'NONE', #105, 6.426280380454246099 ) ;
#771 = DIRECTION ( 'NONE',  ( 2.981066953365987194E-17, 1.000000000000000000, 3.617551358899587488E-15 ) ) ;
#772 = ORIENTED_EDGE ( 'NONE', *, *, #226, .F. ) ;
#773 = CARTESIAN_POINT ( 'NONE',  ( 3.300000000000000711, 0.000000000000000000, 2.000000000000000000 ) ) ;
#774 = DIRECTION ( 'NONE',  ( -1.000000000000000000, -0.000000000000000000, -0.000000000000000000 ) ) ;
#775 = CARTESIAN_POINT ( 'NONE',  ( 6.500000000000000000, -0.5150000000000001243, -1.863038949833288239E-15 ) ) ;
#776 = ORIENTED_EDGE ( 'NONE', *, *, #757, .F. ) ;
#777 =( NAMED_UNIT ( * ) PLANE_ANGLE_UNIT ( ) SI_UNIT ( $, .RADIAN. ) );
#778 = CIRCLE ( 'NONE', #317, 0.8509999999999999787 ) ;
#779 = CARTESIAN_POINT ( 'NONE',  ( 2.339999999999999858, 0.000000000000000000, 0.000000000000000000 ) ) ;
#780 = PRESENTATION_STYLE_ASSIGNMENT (( #536 ) ) ;
#781 = VERTEX_POINT ( 'NONE', #199 ) ;
#782 = VERTEX_POINT ( 'NONE', #644 ) ;
#783 = DIRECTION ( 'NONE',  ( -1.000000000000000000, -0.000000000000000000, -0.000000000000000000 ) ) ;
#784 = EDGE_CURVE ( 'NONE', #498, #718, #445, .T. ) ;
#785 = DIRECTION ( 'NONE',  ( 0.4461977533475101620, 0.8949343913984054710, 0.000000000000000000 ) ) ;
#786 = VERTEX_POINT ( 'NONE', #385 ) ;
#787 = CARTESIAN_POINT ( 'NONE',  ( 0.07880998200162314671, -0.5149999999999967937, -0.8678097445627273032 ) ) ;
#788 = CARTESIAN_POINT ( 'NONE',  ( 2.339999999999999858, -0.5149999999999975708, -0.6774776749089246319 ) ) ;
#789 = ORIENTED_EDGE ( 'NONE', *, *, #36, .F. ) ;
#790 = AXIS2_PLACEMENT_3D ( 'NONE', #509, #620, #17 ) ;
#791 = PLANE ( 'NONE',  #22 ) ;
#792 = FILL_AREA_STYLE ('',( #424 ) ) ;
#793 = ORIENTED_EDGE ( 'NONE', *, *, #387, .T. ) ;
#794 = EDGE_CURVE ( 'NONE', #194, #786, #441, .T. ) ;
#795 = DIRECTION ( 'NONE',  ( 0.000000000000000000, -2.664535259100375697E-15, -1.000000000000000000 ) ) ;
ENDSEC;
END-ISO-10303-21;
