ISO-10303-21;
HEADER;
FILE_DESCRIPTION (( 'STEP AP214' ),
    '1' );
FILE_NAME ('ISO - 4036 - M3 - N.STEP',
    '2025-07-30T15:09:17',
    ( '' ),
    ( '' ),
    'SwSTEP 2.0',
    'SolidWorks 2025',
    '' );
FILE_SCHEMA (( 'AUTOMOTIVE_DESIGN' ));
ENDSEC;

DATA;
#1 = CIRCLE ( 'NONE', #93, 1.250000000000000000 ) ;
#2 = LINE ( 'NONE', #318, #219 ) ;
#3 = CARTESIAN_POINT ( 'NONE',  ( -1.877893248421454459E-16, -3.175426480542947072, -1.800000000000000044 ) ) ;
#4 = ORIENTED_EDGE ( 'NONE', *, *, #200, .T. ) ;
#5 =( GEOMETRIC_REPRESENTATION_CONTEXT ( 3 ) GLOBAL_UNCERTAINTY_ASSIGNED_CONTEXT ( ( #253 ) ) GLOBAL_UNIT_ASSIGNED_CONTEXT ( ( #214, #204, #206 ) ) REPRESENTATION_CONTEXT ( 'NONE', 'WORKASPACE' ) );
#6 = CARTESIAN_POINT ( 'NONE',  ( -2.750000000000000000, 1.587713240271469761, -1.800000000000000044 ) ) ;
#7 = ORIENTED_EDGE ( 'NONE', *, *, #27, .T. ) ;
#8 = DIRECTION ( 'NONE',  ( -0.000000000000000000, -0.000000000000000000, 1.000000000000000000 ) ) ;
#9 = ORIENTED_EDGE ( 'NONE', *, *, #14, .T. ) ;
#10 = EDGE_LOOP ( 'NONE', ( #138, #182, #298, #108 ) ) ;
#11 = EDGE_CURVE ( 'NONE', #178, #210, #302, .T. ) ;
#12 = EDGE_LOOP ( 'NONE', ( #155 ) ) ;
#13 = LINE ( 'NONE', #305, #75 ) ;
#14 = EDGE_CURVE ( 'NONE', #184, #262, #303, .T. ) ;
#15 = DIRECTION ( 'NONE',  ( -0.5000000000000006661, 0.8660254037844382635, 0.000000000000000000 ) ) ;
#16 = CARTESIAN_POINT ( 'NONE',  ( 2.750000000000000000, 1.587713240271469095, -1.800000000000000044 ) ) ;
#17 = MECHANICAL_DESIGN_GEOMETRIC_PRESENTATION_REPRESENTATION (  '', ( #231 ), #281 ) ;
#18 = FACE_OUTER_BOUND ( 'NONE', #237, .T. ) ;
#19 = DIRECTION ( 'NONE',  ( -0.8660254037844382635, -0.5000000000000006661, 0.000000000000000000 ) ) ;
#20 = PRODUCT_DEFINITION_FORMATION_WITH_SPECIFIED_SOURCE ( 'Symmetric', '', #62, .NOT_KNOWN. ) ;
#21 = FACE_OUTER_BOUND ( 'NONE', #80, .T. ) ;
#22 = DIRECTION ( 'NONE',  ( -0.000000000000000000, -0.000000000000000000, 1.000000000000000000 ) ) ;
#23 = DIRECTION ( 'NONE',  ( 0.000000000000000000, -0.000000000000000000, 1.000000000000000000 ) ) ;
#24 = FACE_OUTER_BOUND ( 'NONE', #31, .T. ) ;
#25 = ORIENTED_EDGE ( 'NONE', *, *, #27, .F. ) ;
#26 = EDGE_LOOP ( 'NONE', ( #295, #193, #216, #85 ) ) ;
#27 = EDGE_CURVE ( 'NONE', #241, #184, #13, .T. ) ;
#28 = ORIENTED_EDGE ( 'NONE', *, *, #275, .T. ) ;
#29 = CIRCLE ( 'NONE', #101, 1.500000000000000222 ) ;
#30 = DIRECTION ( 'NONE',  ( -1.000000000000000000, 0.000000000000000000, 0.000000000000000000 ) ) ;
#31 = EDGE_LOOP ( 'NONE', ( #130, #291, #4, #274, #269, #9 ) ) ;
#32 = CARTESIAN_POINT ( 'NONE',  ( 1.250000000000000000, 0.000000000000000000, -0.1750518845524261513 ) ) ;
#33 = VERTEX_POINT ( 'NONE', #338 ) ;
#34 = ORIENTED_EDGE ( 'NONE', *, *, #222, .T. ) ;
#35 = PRODUCT_DEFINITION_SHAPE ( 'NONE', 'NONE',  #162 ) ;
#36 = AXIS2_PLACEMENT_3D ( 'NONE', #6, #238, #57 ) ;
#37 = DIRECTION ( 'NONE',  ( -0.5000000000000007772, -0.8660254037844382635, 0.000000000000000000 ) ) ;
#38 = CARTESIAN_POINT ( 'NONE',  ( 2.750000000000000000, -1.587713240271473758, -1.800000000000000044 ) ) ;
#39 = ADVANCED_FACE ( 'NONE', ( #189 ), #218, .T. ) ;
#40 = DIRECTION ( 'NONE',  ( 0.8660254037844381525, -0.5000000000000006661, 0.000000000000000000 ) ) ;
#41 = DIRECTION ( 'NONE',  ( 0.000000000000000000, 0.000000000000000000, 1.000000000000000000 ) ) ;
#42 = LINE ( 'NONE', #248, #256 ) ;
#43 = VECTOR ( 'NONE', #72, 1000.000000000000000 ) ;
#44 = PLANE ( 'NONE',  #152 ) ;
#45 = CARTESIAN_POINT ( 'NONE',  ( -2.750000000000000000, -1.587713240271473314, 0.000000000000000000 ) ) ;
#46 = CARTESIAN_POINT ( 'NONE',  ( 2.750000000000000000, 1.587713240271469095, 0.000000000000000000 ) ) ;
#47 = AXIS2_PLACEMENT_3D ( 'NONE', #273, #15, #94 ) ;
#48 = CYLINDRICAL_SURFACE ( 'NONE', #202, 1.500000000000000222 ) ;
#49 = DIRECTION ( 'NONE',  ( 0.000000000000000000, 0.000000000000000000, 1.000000000000000000 ) ) ;
#50 = PLANE ( 'NONE',  #36 ) ;
#51 = EDGE_CURVE ( 'NONE', #33, #178, #168, .T. ) ;
#52 = VERTEX_POINT ( 'NONE', #38 ) ;
#53 = ORIENTED_EDGE ( 'NONE', *, *, #68, .T. ) ;
#54 = DIRECTION ( 'NONE',  ( 0.8660254037844382635, 0.5000000000000005551, 0.000000000000000000 ) ) ;
#55 = VERTEX_POINT ( 'NONE', #142 ) ;
#56 = VECTOR ( 'NONE', #171, 1000.000000000000000 ) ;
#57 = DIRECTION ( 'NONE',  ( 0.000000000000000000, 0.000000000000000000, 1.000000000000000000 ) ) ;
#58 = EDGE_LOOP ( 'NONE', ( #115 ) ) ;
#59 = CARTESIAN_POINT ( 'NONE',  ( -4.336808689942017736E-16, 3.175426480542943519, 0.000000000000000000 ) ) ;
#60 = ORIENTED_EDGE ( 'NONE', *, *, #325, .T. ) ;
#61 = LINE ( 'NONE', #336, #278 ) ;
#62 = PRODUCT ( 'ISO - 4036 - M3 - N_ISO - 4036 - M3 - N', 'ISO - 4036 - M3 - N_ISO - 4036 - M3 - N', '', ( #190 ) ) ;
#63 = AXIS2_PLACEMENT_3D ( 'NONE', #179, #8, #234 ) ;
#64 = FACE_OUTER_BOUND ( 'NONE', #90, .T. ) ;
#65 = ADVANCED_FACE ( 'NONE', ( #64 ), #341, .T. ) ;
#66 = ORIENTED_EDGE ( 'NONE', *, *, #147, .F. ) ;
#67 = DIRECTION ( 'NONE',  ( 0.000000000000000000, 0.000000000000000000, 1.000000000000000000 ) ) ;
#68 = EDGE_CURVE ( 'NONE', #241, #284, #42, .T. ) ;
#69 = CARTESIAN_POINT ( 'NONE',  ( -2.750000000000000000, 1.587713240271469761, -1.800000000000000044 ) ) ;
#70 = AXIS2_PLACEMENT_3D ( 'NONE', #195, #37, #40 ) ;
#71 = DIRECTION ( 'NONE',  ( -0.000000000000000000, -0.000000000000000000, 1.000000000000000000 ) ) ;
#72 = DIRECTION ( 'NONE',  ( 0.8660254037844382635, -0.5000000000000006661, 0.000000000000000000 ) ) ;
#73 = ADVANCED_FACE ( 'NONE', ( #167 ), #95, .T. ) ;
#74 = CARTESIAN_POINT ( 'NONE',  ( -2.750000000000000000, -1.587713240271473314, 0.000000000000000000 ) ) ;
#75 = VECTOR ( 'NONE', #67, 1000.000000000000000 ) ;
#76 = FILL_AREA_STYLE_COLOUR ( '', #304 ) ;
#77 = CARTESIAN_POINT ( 'NONE',  ( 2.750000000000000000, -1.587713240271473758, 0.000000000000000000 ) ) ;
#78 = ADVANCED_FACE ( 'NONE', ( #18 ), #44, .F. ) ;
#79 = FACE_BOUND ( 'NONE', #320, .T. ) ;
#80 = EDGE_LOOP ( 'NONE', ( #114 ) ) ;
#81 = VECTOR ( 'NONE', #160, 1000.000000000000000 ) ;
#82 = VERTEX_POINT ( 'NONE', #211 ) ;
#83 = ORIENTED_EDGE ( 'NONE', *, *, #205, .F. ) ;
#84 = FACE_OUTER_BOUND ( 'NONE', #259, .T. ) ;
#85 = ORIENTED_EDGE ( 'NONE', *, *, #271, .T. ) ;
#86 = PRODUCT_RELATED_PRODUCT_CATEGORY ( 'part', '', ( #62 ) ) ;
#87 = DIRECTION ( 'NONE',  ( -1.000000000000000000, 0.000000000000000000, 0.000000000000000000 ) ) ;
#88 = ORIENTED_EDGE ( 'NONE', *, *, #271, .F. ) ;
#89 = VECTOR ( 'NONE', #286, 1000.000000000000000 ) ;
#90 = EDGE_LOOP ( 'NONE', ( #215, #128, #220, #28 ) ) ;
#91 = CARTESIAN_POINT ( 'NONE',  ( 2.750000000000000000, 1.587713240271469095, 0.000000000000000000 ) ) ;
#92 = DIRECTION ( 'NONE',  ( -0.8660254037844382635, -0.5000000000000006661, 0.000000000000000000 ) ) ;
#93 = AXIS2_PLACEMENT_3D ( 'NONE', #197, #121, #254 ) ;
#94 = DIRECTION ( 'NONE',  ( -0.8660254037844382635, -0.5000000000000006661, 0.000000000000000000 ) ) ;
#95 = PLANE ( 'NONE',  #310 ) ;
#96 = EDGE_CURVE ( 'NONE', #262, #55, #221, .T. ) ;
#97 = LINE ( 'NONE', #69, #56 ) ;
#98 =( NAMED_UNIT ( * ) SI_UNIT ( $, .STERADIAN. ) SOLID_ANGLE_UNIT ( ) );
#99 = DIRECTION ( 'NONE',  ( 1.000000000000000000, 0.000000000000000000, 0.000000000000000000 ) ) ;
#100 = LINE ( 'NONE', #46, #340 ) ;
#101 = AXIS2_PLACEMENT_3D ( 'NONE', #175, #23, #124 ) ;
#102 = DIRECTION ( 'NONE',  ( 1.000000000000000000, 0.000000000000000000, 0.000000000000000000 ) ) ;
#103 = PRODUCT_DEFINITION_CONTEXT ( 'detailed design', #229, 'design' ) ;
#104 = EDGE_CURVE ( 'NONE', #33, #55, #97, .T. ) ;
#105 = VERTEX_POINT ( 'NONE', #153 ) ;
#106 = APPLICATION_CONTEXT ( 'automotive_design' ) ;
#107 = PLANE ( 'NONE',  #177 ) ;
#108 = ORIENTED_EDGE ( 'NONE', *, *, #104, .T. ) ;
#109 = DIRECTION ( 'NONE',  ( 0.8660254037844382635, 0.5000000000000005551, 0.000000000000000000 ) ) ;
#110 = ORIENTED_EDGE ( 'NONE', *, *, #244, .T. ) ;
#111 = VERTEX_POINT ( 'NONE', #296 ) ;
#112 = ORIENTED_EDGE ( 'NONE', *, *, #222, .F. ) ;
#113 = CARTESIAN_POINT ( 'NONE',  ( 0.000000000000000000, 0.000000000000000000, 0.000000000000000000 ) ) ;
#114 = ORIENTED_EDGE ( 'NONE', *, *, #258, .F. ) ;
#115 = ORIENTED_EDGE ( 'NONE', *, *, #233, .F. ) ;
#116 = DIRECTION ( 'NONE',  ( -1.000000000000000000, 0.000000000000000000, 0.000000000000000000 ) ) ;
#117 = CARTESIAN_POINT ( 'NONE',  ( 2.750000000000000000, 1.587713240271469095, 0.000000000000000000 ) ) ;
#118 = CARTESIAN_POINT ( 'NONE',  ( 3.838292477526749133E-17, 3.175426480542943075, 0.000000000000000000 ) ) ;
#119 = DIRECTION ( 'NONE',  ( -0.8660254037844381525, 0.5000000000000007772, 0.000000000000000000 ) ) ;
#120 = DIRECTION ( 'NONE',  ( 1.000000000000000000, 0.000000000000000000, 0.000000000000000000 ) ) ;
#121 = DIRECTION ( 'NONE',  ( 0.000000000000000000, 0.000000000000000000, -1.000000000000000000 ) ) ;
#122 = DIRECTION ( 'NONE',  ( 0.000000000000000000, -1.000000000000000000, 0.000000000000000000 ) ) ;
#123 = CYLINDRICAL_SURFACE ( 'NONE', #170, 1.250000000000000000 ) ;
#124 = DIRECTION ( 'NONE',  ( -1.000000000000000000, 0.000000000000000000, 0.000000000000000000 ) ) ;
#125 = EDGE_LOOP ( 'NONE', ( #161 ) ) ;
#126 = VECTOR ( 'NONE', #270, 1000.000000000000000 ) ;
#127 = LINE ( 'NONE', #3, #224 ) ;
#128 = ORIENTED_EDGE ( 'NONE', *, *, #196, .F. ) ;
#129 = DIRECTION ( 'NONE',  ( 0.000000000000000000, -1.000000000000000000, 0.000000000000000000 ) ) ;
#130 = ORIENTED_EDGE ( 'NONE', *, *, #96, .T. ) ;
#131 = LINE ( 'NONE', #330, #81 ) ;
#132 = ORIENTED_EDGE ( 'NONE', *, *, #68, .F. ) ;
#133 = AXIS2_PLACEMENT_3D ( 'NONE', #146, #228, #102 ) ;
#134 = CARTESIAN_POINT ( 'NONE',  ( -4.336808689942017736E-16, 3.175426480542943519, -1.800000000000000044 ) ) ;
#135 = ORIENTED_EDGE ( 'NONE', *, *, #11, .F. ) ;
#136 = VERTEX_POINT ( 'NONE', #240 ) ;
#137 = ORIENTED_EDGE ( 'NONE', *, *, #344, .T. ) ;
#138 = ORIENTED_EDGE ( 'NONE', *, *, #96, .F. ) ;
#139 = CLOSED_SHELL ( 'NONE', ( #213, #187, #39, #78, #73, #65, #301, #292, #312, #247, #337, #226 ) ) ;
#140 = CONICAL_SURFACE ( 'NONE', #343, 1.224999999999999867, 0.9599310885968848073 ) ;
#141 = DIRECTION ( 'NONE',  ( 0.5000000000000006661, -0.8660254037844383745, 0.000000000000000000 ) ) ;
#142 = CARTESIAN_POINT ( 'NONE',  ( -2.750000000000000000, 1.587713240271469761, 0.000000000000000000 ) ) ;
#143 = DIRECTION ( 'NONE',  ( -0.8660254037844381525, 0.5000000000000007772, 0.000000000000000000 ) ) ;
#144 = CARTESIAN_POINT ( 'NONE',  ( 2.750000000000000000, 1.587713240271469095, -1.800000000000000044 ) ) ;
#145 = DIRECTION ( 'NONE',  ( 0.8660254037844382635, -0.5000000000000006661, 0.000000000000000000 ) ) ;
#146 = CARTESIAN_POINT ( 'NONE',  ( 0.000000000000000000, 0.000000000000000000, 0.000000000000000000 ) ) ;
#147 = EDGE_CURVE ( 'NONE', #284, #33, #61, .T. ) ;
#148 = FACE_OUTER_BOUND ( 'NONE', #58, .T. ) ;
#149 = FACE_BOUND ( 'NONE', #212, .T. ) ;
#150 = FILL_AREA_STYLE ('',( #76 ) ) ;
#151 = CARTESIAN_POINT ( 'NONE',  ( 0.000000000000000000, 0.000000000000000000, -25.03750572909317285 ) ) ;
#152 = AXIS2_PLACEMENT_3D ( 'NONE', #16, #116, #245 ) ;
#153 = CARTESIAN_POINT ( 'NONE',  ( 1.500000000000000222, 0.000000000000000000, -1.774600000000001288 ) ) ;
#154 = VERTEX_POINT ( 'NONE', #279 ) ;
#155 = ORIENTED_EDGE ( 'NONE', *, *, #258, .T. ) ;
#156 = EDGE_CURVE ( 'NONE', #55, #188, #335, .T. ) ;
#157 = CARTESIAN_POINT ( 'NONE',  ( 2.750000000000000000, 1.587713240271469095, -1.800000000000000044 ) ) ;
#158 = ORIENTED_EDGE ( 'NONE', *, *, #14, .F. ) ;
#159 = CIRCLE ( 'NONE', #133, 1.500000000000000000 ) ;
#160 = DIRECTION ( 'NONE',  ( 0.000000000000000000, 0.000000000000000000, 1.000000000000000000 ) ) ;
#161 = ORIENTED_EDGE ( 'NONE', *, *, #333, .F. ) ;
#162 = PRODUCT_DEFINITION ( 'General', '', #20, #103 ) ;
#163 = CARTESIAN_POINT ( 'NONE',  ( 3.838292477526749133E-17, 3.175426480542943075, -1.800000000000000044 ) ) ;
#164 = ORIENTED_EDGE ( 'NONE', *, *, #51, .F. ) ;
#165 = CARTESIAN_POINT ( 'NONE',  ( -2.750000000000000000, 1.587713240271469761, 0.000000000000000000 ) ) ;
#166 = AXIS2_PLACEMENT_3D ( 'NONE', #324, #261, #176 ) ;
#167 = FACE_OUTER_BOUND ( 'NONE', #26, .T. ) ;
#168 = LINE ( 'NONE', #249, #185 ) ;
#169 = DIRECTION ( 'NONE',  ( 0.5000000000000008882, 0.8660254037844382635, -0.000000000000000000 ) ) ;
#170 = AXIS2_PLACEMENT_3D ( 'NONE', #347, #346, #99 ) ;
#171 = DIRECTION ( 'NONE',  ( 0.000000000000000000, 0.000000000000000000, 1.000000000000000000 ) ) ;
#172 =( NAMED_UNIT ( * ) PLANE_ANGLE_UNIT ( ) SI_UNIT ( $, .RADIAN. ) );
#173 = CARTESIAN_POINT ( 'NONE',  ( 2.750000000000000000, 1.587713240271469095, -1.800000000000000044 ) ) ;
#174 = CARTESIAN_POINT ( 'NONE',  ( 0.000000000000000000, 0.000000000000000000, -1.774600000000001288 ) ) ;
#175 = CARTESIAN_POINT ( 'NONE',  ( 0.000000000000000000, 0.000000000000000000, -1.799999999999999600 ) ) ;
#176 = DIRECTION ( 'NONE',  ( -1.000000000000000000, 0.000000000000000000, 0.000000000000000000 ) ) ;
#177 = AXIS2_PLACEMENT_3D ( 'NONE', #59, #322, #87 ) ;
#178 = VERTEX_POINT ( 'NONE', #243 ) ;
#179 = CARTESIAN_POINT ( 'NONE',  ( 0.000000000000000000, 0.000000000000000000, -1.599548115447571472 ) ) ;
#180 = ORIENTED_EDGE ( 'NONE', *, *, #51, .T. ) ;
#181 = DIRECTION ( 'NONE',  ( 0.000000000000000000, 0.000000000000000000, -1.000000000000000000 ) ) ;
#182 = ORIENTED_EDGE ( 'NONE', *, *, #325, .F. ) ;
#183 = FACE_OUTER_BOUND ( 'NONE', #239, .T. ) ;
#184 = VERTEX_POINT ( 'NONE', #117 ) ;
#185 = VECTOR ( 'NONE', #276, 1000.000000000000000 ) ;
#186 = AXIS2_PLACEMENT_3D ( 'NONE', #134, #181, #30 ) ;
#187 = ADVANCED_FACE ( 'NONE', ( #217 ), #191, .T. ) ;
#188 = VERTEX_POINT ( 'NONE', #45 ) ;
#189 = FACE_OUTER_BOUND ( 'NONE', #208, .T. ) ;
#190 = PRODUCT_CONTEXT ( 'NONE', #106, 'mechanical' ) ;
#191 = PLANE ( 'NONE',  #47 ) ;
#192 = VECTOR ( 'NONE', #92, 1000.000000000000114 ) ;
#193 = ORIENTED_EDGE ( 'NONE', *, *, #275, .F. ) ;
#194 = DIRECTION ( 'NONE',  ( -0.8660254037844381525, 0.5000000000000007772, 0.000000000000000000 ) ) ;
#195 = CARTESIAN_POINT ( 'NONE',  ( -2.750000000000000000, -1.587713240271473314, -1.800000000000000044 ) ) ;
#196 = EDGE_CURVE ( 'NONE', #178, #188, #311, .T. ) ;
#197 = CARTESIAN_POINT ( 'NONE',  ( 0.000000000000000000, 0.000000000000000000, -0.1750518845524261513 ) ) ;
#198 = LINE ( 'NONE', #74, #43 ) ;
#199 = FACE_OUTER_BOUND ( 'NONE', #265, .T. ) ;
#200 = EDGE_CURVE ( 'NONE', #188, #154, #198, .T. ) ;
#201 = FACE_OUTER_BOUND ( 'NONE', #242, .T. ) ;
#202 = AXIS2_PLACEMENT_3D ( 'NONE', #151, #227, #280 ) ;
#203 = CARTESIAN_POINT ( 'NONE',  ( -2.750000000000000000, -1.587713240271473314, -1.800000000000000044 ) ) ;
#204 =( NAMED_UNIT ( * ) PLANE_ANGLE_UNIT ( ) SI_UNIT ( $, .RADIAN. ) );
#205 = EDGE_CURVE ( 'NONE', #111, #111, #159, .T. ) ;
#206 =( NAMED_UNIT ( * ) SI_UNIT ( $, .STERADIAN. ) SOLID_ANGLE_UNIT ( ) );
#207 = CIRCLE ( 'NONE', #297, 1.500000000000000222 ) ;
#208 = EDGE_LOOP ( 'NONE', ( #158, #25, #53, #60 ) ) ;
#209 = FACE_BOUND ( 'NONE', #289, .T. ) ;
#210 = VERTEX_POINT ( 'NONE', #223 ) ;
#211 = CARTESIAN_POINT ( 'NONE',  ( -1.500000000000000222, 0.000000000000000000, -1.799999999999999600 ) ) ;
#212 = EDGE_LOOP ( 'NONE', ( #235 ) ) ;
#213 = ADVANCED_FACE ( 'NONE', ( #148, #257 ), #123, .F. ) ;
#214 =( LENGTH_UNIT ( ) NAMED_UNIT ( * ) SI_UNIT ( .MILLI., .METRE. ) );
#215 = ORIENTED_EDGE ( 'NONE', *, *, #200, .F. ) ;
#216 = ORIENTED_EDGE ( 'NONE', *, *, #317, .T. ) ;
#217 = FACE_OUTER_BOUND ( 'NONE', #10, .T. ) ;
#218 = PLANE ( 'NONE',  #314 ) ;
#219 = VECTOR ( 'NONE', #49, 1000.000000000000000 ) ;
#220 = ORIENTED_EDGE ( 'NONE', *, *, #11, .T. ) ;
#221 = LINE ( 'NONE', #118, #192 ) ;
#222 = EDGE_CURVE ( 'NONE', #105, #105, #207, .T. ) ;
#223 = CARTESIAN_POINT ( 'NONE',  ( -1.877893248421454459E-16, -3.175426480542947072, -1.800000000000000044 ) ) ;
#224 = VECTOR ( 'NONE', #109, 1000.000000000000114 ) ;
#225 = MANIFOLD_SOLID_BREP ( 'EndChamfer', #139 ) ;
#226 = ADVANCED_FACE ( 'NONE', ( #21, #199 ), #48, .F. ) ;
#227 = DIRECTION ( 'NONE',  ( -0.000000000000000000, -0.000000000000000000, 1.000000000000000000 ) ) ;
#228 = DIRECTION ( 'NONE',  ( -0.000000000000000000, -0.000000000000000000, 1.000000000000000000 ) ) ;
#229 = APPLICATION_CONTEXT ( 'automotive_design' ) ;
#230 = CARTESIAN_POINT ( 'NONE',  ( 3.838292477526749133E-17, 3.175426480542943075, 0.000000000000000000 ) ) ;
#231 = STYLED_ITEM ( 'NONE', ( #345 ), #225 ) ;
#232 = LINE ( 'NONE', #236, #264 ) ;
#233 = EDGE_CURVE ( 'NONE', #327, #327, #1, .T. ) ;
#234 = DIRECTION ( 'NONE',  ( -1.000000000000000000, 0.000000000000000000, 0.000000000000000000 ) ) ;
#235 = ORIENTED_EDGE ( 'NONE', *, *, #233, .T. ) ;
#236 = CARTESIAN_POINT ( 'NONE',  ( -1.877893248421454459E-16, -3.175426480542947072, -1.800000000000000044 ) ) ;
#237 = EDGE_LOOP ( 'NONE', ( #110, #88, #267, #7 ) ) ;
#238 = DIRECTION ( 'NONE',  ( -1.000000000000000000, 0.000000000000000000, 0.000000000000000000 ) ) ;
#239 = EDGE_LOOP ( 'NONE', ( #112 ) ) ;
#240 = CARTESIAN_POINT ( 'NONE',  ( -1.250000000000000000, 0.000000000000000000, -1.599548115447571472 ) ) ;
#241 = VERTEX_POINT ( 'NONE', #173 ) ;
#242 = EDGE_LOOP ( 'NONE', ( #342 ) ) ;
#243 = CARTESIAN_POINT ( 'NONE',  ( -2.750000000000000000, -1.587713240271473314, -1.800000000000000044 ) ) ;
#244 = EDGE_CURVE ( 'NONE', #184, #255, #100, .T. ) ;
#245 = DIRECTION ( 'NONE',  ( 0.000000000000000000, 0.000000000000000000, 1.000000000000000000 ) ) ;
#246 = DIRECTION ( 'NONE',  ( 0.8660254037844382635, 0.5000000000000005551, 0.000000000000000000 ) ) ;
#247 = ADVANCED_FACE ( 'NONE', ( #201, #149 ), #140, .F. ) ;
#248 = CARTESIAN_POINT ( 'NONE',  ( 2.750000000000000000, 1.587713240271469095, -1.800000000000000044 ) ) ;
#249 = CARTESIAN_POINT ( 'NONE',  ( -2.750000000000000000, 1.587713240271469761, -1.800000000000000044 ) ) ;
#250 = CONICAL_SURFACE ( 'NONE', #166, 1.500000000000000222, 0.9599310885968759255 ) ;
#251 =( LENGTH_UNIT ( ) NAMED_UNIT ( * ) SI_UNIT ( .MILLI., .METRE. ) );
#252 = CARTESIAN_POINT ( 'NONE',  ( 0.000000000000000000, 0.000000000000000000, -0.1925570730076688053 ) ) ;
#253 = UNCERTAINTY_MEASURE_WITH_UNIT (LENGTH_MEASURE( 1.000000000000000082E-05 ), #214, 'distance_accuracy_value', 'NONE');
#254 = DIRECTION ( 'NONE',  ( 1.000000000000000000, 0.000000000000000000, 0.000000000000000000 ) ) ;
#255 = VERTEX_POINT ( 'NONE', #77 ) ;
#256 = VECTOR ( 'NONE', #119, 1000.000000000000114 ) ;
#257 = FACE_OUTER_BOUND ( 'NONE', #125, .T. ) ;
#258 = EDGE_CURVE ( 'NONE', #82, #82, #29, .T. ) ;
#259 = EDGE_LOOP ( 'NONE', ( #66, #132, #137, #329, #135, #164 ) ) ;
#260 = ORIENTED_EDGE ( 'NONE', *, *, #104, .F. ) ;
#261 = DIRECTION ( 'NONE',  ( 0.000000000000000000, 0.000000000000000000, -1.000000000000000000 ) ) ;
#262 = VERTEX_POINT ( 'NONE', #230 ) ;
#263 = LINE ( 'NONE', #288, #315 ) ;
#264 = VECTOR ( 'NONE', #319, 1000.000000000000000 ) ;
#265 = EDGE_LOOP ( 'NONE', ( #34 ) ) ;
#266 = FACE_BOUND ( 'NONE', #12, .T. ) ;
#267 = ORIENTED_EDGE ( 'NONE', *, *, #344, .F. ) ;
#268 = APPLICATION_PROTOCOL_DEFINITION ( 'draft international standard', 'automotive_design', 1998, #106 ) ;
#269 = ORIENTED_EDGE ( 'NONE', *, *, #244, .F. ) ;
#270 = DIRECTION ( 'NONE',  ( 0.000000000000000000, -1.000000000000000000, 0.000000000000000000 ) ) ;
#271 = EDGE_CURVE ( 'NONE', #52, #255, #2, .T. ) ;
#272 = CIRCLE ( 'NONE', #63, 1.250000000000000000 ) ;
#273 = CARTESIAN_POINT ( 'NONE',  ( 3.838292477526749133E-17, 3.175426480542943075, -1.800000000000000044 ) ) ;
#274 = ORIENTED_EDGE ( 'NONE', *, *, #285, .T. ) ;
#275 = EDGE_CURVE ( 'NONE', #210, #154, #232, .T. ) ;
#276 = DIRECTION ( 'NONE',  ( 0.000000000000000000, -1.000000000000000000, 0.000000000000000000 ) ) ;
#277 = VECTOR ( 'NONE', #194, 1000.000000000000114 ) ;
#278 = VECTOR ( 'NONE', #19, 1000.000000000000114 ) ;
#279 = CARTESIAN_POINT ( 'NONE',  ( -1.877893248421454459E-16, -3.175426480542947072, 0.000000000000000000 ) ) ;
#280 = DIRECTION ( 'NONE',  ( 1.000000000000000000, 0.000000000000000000, 0.000000000000000000 ) ) ;
#281 =( GEOMETRIC_REPRESENTATION_CONTEXT ( 3 ) GLOBAL_UNCERTAINTY_ASSIGNED_CONTEXT ( ( #328 ) ) GLOBAL_UNIT_ASSIGNED_CONTEXT ( ( #251, #172, #98 ) ) REPRESENTATION_CONTEXT ( 'NONE', 'WORKASPACE' ) );
#282 = SURFACE_STYLE_USAGE ( .BOTH. , #313 ) ;
#283 = SURFACE_STYLE_FILL_AREA ( #150 ) ;
#284 = VERTEX_POINT ( 'NONE', #163 ) ;
#285 = EDGE_CURVE ( 'NONE', #154, #255, #263, .T. ) ;
#286 = DIRECTION ( 'NONE',  ( 0.000000000000000000, 0.000000000000000000, 1.000000000000000000 ) ) ;
#287 = ADVANCED_BREP_SHAPE_REPRESENTATION ( 'ISO - 4036 - M3 - N_ISO - 4036 - M3 - N', ( #225, #293 ), #5 ) ;
#288 = CARTESIAN_POINT ( 'NONE',  ( -1.877893248421454459E-16, -3.175426480542947072, 0.000000000000000000 ) ) ;
#289 = EDGE_LOOP ( 'NONE', ( #326 ) ) ;
#290 = LINE ( 'NONE', #157, #321 ) ;
#291 = ORIENTED_EDGE ( 'NONE', *, *, #156, .T. ) ;
#292 = ADVANCED_FACE ( 'NONE', ( #266, #84 ), #299, .T. ) ;
#293 = AXIS2_PLACEMENT_3D ( 'NONE', #113, #41, #306 ) ;
#294 = FACE_OUTER_BOUND ( 'NONE', #300, .T. ) ;
#295 = ORIENTED_EDGE ( 'NONE', *, *, #285, .F. ) ;
#296 = CARTESIAN_POINT ( 'NONE',  ( 1.500000000000000000, 0.000000000000000000, 0.000000000000000000 ) ) ;
#297 = AXIS2_PLACEMENT_3D ( 'NONE', #174, #71, #120 ) ;
#298 = ORIENTED_EDGE ( 'NONE', *, *, #147, .T. ) ;
#299 = PLANE ( 'NONE',  #186 ) ;
#300 = EDGE_LOOP ( 'NONE', ( #323, #260, #180, #332 ) ) ;
#301 = ADVANCED_FACE ( 'NONE', ( #294 ), #50, .T. ) ;
#302 = LINE ( 'NONE', #307, #339 ) ;
#303 = LINE ( 'NONE', #91, #277 ) ;
#304 = COLOUR_RGB ( '',0.7921568627450980005, 0.8196078431372548767, 0.9333333333333333481 ) ;
#305 = CARTESIAN_POINT ( 'NONE',  ( 2.750000000000000000, 1.587713240271469095, -1.800000000000000044 ) ) ;
#306 = DIRECTION ( 'NONE',  ( 1.000000000000000000, 0.000000000000000000, 0.000000000000000000 ) ) ;
#307 = CARTESIAN_POINT ( 'NONE',  ( -2.750000000000000000, -1.587713240271473314, -1.800000000000000044 ) ) ;
#308 = SHAPE_DEFINITION_REPRESENTATION ( #35, #287 ) ;
#309 = CARTESIAN_POINT ( 'NONE',  ( -1.877893248421454459E-16, -3.175426480542947072, -1.800000000000000044 ) ) ;
#310 = AXIS2_PLACEMENT_3D ( 'NONE', #309, #141, #246 ) ;
#311 = LINE ( 'NONE', #203, #89 ) ;
#312 = ADVANCED_FACE ( 'NONE', ( #79, #24 ), #107, .F. ) ;
#313 = SURFACE_SIDE_STYLE ('',( #283 ) ) ;
#314 = AXIS2_PLACEMENT_3D ( 'NONE', #144, #169, #143 ) ;
#315 = VECTOR ( 'NONE', #54, 1000.000000000000114 ) ;
#316 = DIRECTION ( 'NONE',  ( 1.000000000000000000, 0.000000000000000000, 0.000000000000000000 ) ) ;
#317 = EDGE_CURVE ( 'NONE', #210, #52, #127, .T. ) ;
#318 = CARTESIAN_POINT ( 'NONE',  ( 2.750000000000000000, -1.587713240271473758, -1.800000000000000044 ) ) ;
#319 = DIRECTION ( 'NONE',  ( 0.000000000000000000, 0.000000000000000000, 1.000000000000000000 ) ) ;
#320 = EDGE_LOOP ( 'NONE', ( #83 ) ) ;
#321 = VECTOR ( 'NONE', #129, 1000.000000000000000 ) ;
#322 = DIRECTION ( 'NONE',  ( 0.000000000000000000, 0.000000000000000000, -1.000000000000000000 ) ) ;
#323 = ORIENTED_EDGE ( 'NONE', *, *, #156, .F. ) ;
#324 = CARTESIAN_POINT ( 'NONE',  ( 0.000000000000000000, 0.000000000000000000, -1.774600000000001288 ) ) ;
#325 = EDGE_CURVE ( 'NONE', #284, #262, #131, .T. ) ;
#326 = ORIENTED_EDGE ( 'NONE', *, *, #333, .T. ) ;
#327 = VERTEX_POINT ( 'NONE', #32 ) ;
#328 = UNCERTAINTY_MEASURE_WITH_UNIT (LENGTH_MEASURE( 1.000000000000000082E-05 ), #251, 'distance_accuracy_value', 'NONE');
#329 = ORIENTED_EDGE ( 'NONE', *, *, #317, .F. ) ;
#330 = CARTESIAN_POINT ( 'NONE',  ( 3.838292477526749133E-17, 3.175426480542943075, -1.800000000000000044 ) ) ;
#331 = PRESENTATION_LAYER_ASSIGNMENT (  '', '', ( #231 ) ) ;
#332 = ORIENTED_EDGE ( 'NONE', *, *, #196, .T. ) ;
#333 = EDGE_CURVE ( 'NONE', #136, #136, #272, .T. ) ;
#334 = APPLICATION_PROTOCOL_DEFINITION ( 'draft international standard', 'automotive_design', 1998, #229 ) ;
#335 = LINE ( 'NONE', #165, #126 ) ;
#336 = CARTESIAN_POINT ( 'NONE',  ( 3.838292477526749133E-17, 3.175426480542943075, -1.800000000000000044 ) ) ;
#337 = ADVANCED_FACE ( 'NONE', ( #183, #209 ), #250, .F. ) ;
#338 = CARTESIAN_POINT ( 'NONE',  ( -2.750000000000000000, 1.587713240271469761, -1.800000000000000044 ) ) ;
#339 = VECTOR ( 'NONE', #145, 1000.000000000000000 ) ;
#340 = VECTOR ( 'NONE', #122, 1000.000000000000000 ) ;
#341 = PLANE ( 'NONE',  #70 ) ;
#342 = ORIENTED_EDGE ( 'NONE', *, *, #205, .T. ) ;
#343 = AXIS2_PLACEMENT_3D ( 'NONE', #252, #22, #316 ) ;
#344 = EDGE_CURVE ( 'NONE', #241, #52, #290, .T. ) ;
#345 = PRESENTATION_STYLE_ASSIGNMENT (( #282 ) ) ;
#346 = DIRECTION ( 'NONE',  ( 0.000000000000000000, 0.000000000000000000, 1.000000000000000000 ) ) ;
#347 = CARTESIAN_POINT ( 'NONE',  ( 0.000000000000000000, 0.000000000000000000, -1.800000000000000044 ) ) ;
ENDSEC;
END-ISO-10303-21;
