ISO-10303-21;
HEADER;
FILE_DESCRIPTION (( 'STEP AP214' ),
    '1' );
FILE_NAME ('ISO - 4032 - M3 - D - S.STEP',
    '2025-07-30T15:09:17',
    ( '' ),
    ( '' ),
    'SwSTEP 2.0',
    'SolidWorks 2025',
    '' );
FILE_SCHEMA (( 'AUTOMOTIVE_DESIGN' ));
ENDSEC;

DATA;
#1 = AXIS2_PLACEMENT_3D ( 'NONE', #780, #159, #12 ) ;
#2 = DIRECTION ( 'NONE',  ( -1.000000000000000000, 0.000000000000000000, 0.000000000000000000 ) ) ;
#3 = VERTEX_POINT ( 'NONE', #265 ) ;
#4 = FACE_BOUND ( 'NONE', #643, .T. ) ;
#5 = CARTESIAN_POINT ( 'NONE',  ( 2.750000000000000888, 0.000000000000000000, -2.399999999999999911 ) ) ;
#6 = SURFACE_STYLE_USAGE ( .BOTH. , #245 ) ;
#7 = AXIS2_PLACEMENT_3D ( 'NONE', #834, #747, #902 ) ;
#8 = EDGE_LOOP ( 'NONE', ( #252 ) ) ;
#9 = CARTESIAN_POINT ( 'NONE',  ( -1.375000000000003553, 2.381569860407205308, 0.000000000000000000 ) ) ;
#10 = CARTESIAN_POINT ( 'NONE',  ( 0.4498622899576193990, 2.915698366337650338, -0.09566599640799437754 ) ) ;
#11 = CIRCLE ( 'NONE', #296, 2.750000000000000888 ) ;
#12 = DIRECTION ( 'NONE',  ( 1.000000000000000000, 0.000000000000000000, 0.000000000000000000 ) ) ;
#13 = ORIENTED_EDGE ( 'NONE', *, *, #741, .F. ) ;
#14 =( NAMED_UNIT ( * ) PLANE_ANGLE_UNIT ( ) SI_UNIT ( $, .RADIAN. ) );
#15 = CARTESIAN_POINT ( 'NONE',  ( -1.841465337348303200, -2.112255972321541275, -0.02351960456806323138 ) ) ;
#16 = CARTESIAN_POINT ( 'NONE',  ( 2.749999999999999112, 1.070896984529285501, -2.290208611084169288 ) ) ;
#17 = ADVANCED_FACE ( 'NONE', ( #954 ), #657, .T. ) ;
#18 = AXIS2_PLACEMENT_3D ( 'NONE', #105, #718, #642 ) ;
#19 = ORIENTED_EDGE ( 'NONE', *, *, #351, .F. ) ;
#20 = CARTESIAN_POINT ( 'NONE',  ( -2.750000000000000000, -1.587713240271475978, -0.2456200930618644140 ) ) ;
#21 = CARTESIAN_POINT ( 'NONE',  ( 2.750000000000000888, 0.000000000000000000, 0.000000000000000000 ) ) ;
#22 = ADVANCED_FACE ( 'NONE', ( #33, #115 ), #805, .F. ) ;
#23 = VERTEX_POINT ( 'NONE', #575 ) ;
#24 = VERTEX_POINT ( 'NONE', #620 ) ;
#25 = FACE_OUTER_BOUND ( 'NONE', #147, .T. ) ;
#26 = AXIS2_PLACEMENT_3D ( 'NONE', #262, #570, #566 ) ;
#27 = EDGE_LOOP ( 'NONE', ( #567 ) ) ;
#28 = EDGE_CURVE ( 'NONE', #499, #739, #458, .T. ) ;
#29 = DIRECTION ( 'NONE',  ( -1.000000000000000000, 0.000000000000000000, 0.000000000000000000 ) ) ;
#30 = CARTESIAN_POINT ( 'NONE',  ( -1.251928832280970872E-16, -3.175426480542951957, -2.399999999999999911 ) ) ;
#31 = VERTEX_POINT ( 'NONE', #879 ) ;
#32 = CARTESIAN_POINT ( 'NONE',  ( 0.000000000000000000, 0.000000000000000000, -2.399999999999999911 ) ) ;
#33 = FACE_OUTER_BOUND ( 'NONE', #880, .T. ) ;
#34 = EDGE_LOOP ( 'NONE', ( #885, #223, #187 ) ) ;
#35 = CARTESIAN_POINT ( 'NONE',  ( 0.000000000000000000, 0.000000000000000000, 0.000000000000000000 ) ) ;
#36 = EDGE_CURVE ( 'NONE', #3, #499, #648, .T. ) ;
#37 = CARTESIAN_POINT ( 'NONE',  ( 0.000000000000000000, 0.000000000000000000, -0.02540000000000001978 ) ) ;
#38 = AXIS2_PLACEMENT_3D ( 'NONE', #762, #164, #309 ) ;
#39 = ORIENTED_EDGE ( 'NONE', *, *, #982, .T. ) ;
#40 = CARTESIAN_POINT ( 'NONE',  ( 0.000000000000000000, 0.000000000000000000, -0.6702918845524294955 ) ) ;
#41 = ADVANCED_FACE ( 'NONE', ( #341, #726 ), #192, .F. ) ;
#42 = DIRECTION ( 'NONE',  ( -0.8660254037844378194, 0.5000000000000013323, 0.000000000000000000 ) ) ;
#43 = ORIENTED_EDGE ( 'NONE', *, *, #324, .F. ) ;
#44 = CARTESIAN_POINT ( 'NONE',  ( 2.299387885565522982, 1.847874265840321106, -0.1090894304641060325 ) ) ;
#45 = DIRECTION ( 'NONE',  ( -1.000000000000000000, 0.000000000000000000, 0.000000000000000000 ) ) ;
#46 = ORIENTED_EDGE ( 'NONE', *, *, #543, .F. ) ;
#47 = CARTESIAN_POINT ( 'NONE',  ( -2.750000000000000000, -0.2682974265912531631, -2.399999999999999911 ) ) ;
#48 = CARTESIAN_POINT ( 'NONE',  ( -2.750000000000000000, 1.587713240271468651, -2.399999999999999911 ) ) ;
#49 = CARTESIAN_POINT ( 'NONE',  ( 0.000000000000000000, 0.000000000000000000, -1.140131884552429531 ) ) ;
#50 = EDGE_LOOP ( 'NONE', ( #170, #112, #920 ) ) ;
#51 = CARTESIAN_POINT ( 'NONE',  ( -2.750000000000000000, 1.587713240271468651, -0.2456200930618620826 ) ) ;
#52 = CIRCLE ( 'NONE', #613, 2.750000000000000888 ) ;
#53 = EDGE_CURVE ( 'NONE', #138, #138, #887, .T. ) ;
#54 = CARTESIAN_POINT ( 'NONE',  ( 0.2243700767916219363, -3.045886356309211340, -2.229169932536016141 ) ) ;
#55 = PLANE ( 'NONE',  #169 ) ;
#56 = ORIENTED_EDGE ( 'NONE', *, *, #705, .F. ) ;
#57 = CARTESIAN_POINT ( 'NONE',  ( 2.750000000000000000, -1.587713240271475978, -0.2456200930618644140 ) ) ;
#58 = AXIS2_PLACEMENT_3D ( 'NONE', #633, #926, #541 ) ;
#59 = CARTESIAN_POINT ( 'NONE',  ( 1.375000000000003553, -2.381569860407205308, 0.000000000000000000 ) ) ;
#60 = DIRECTION ( 'NONE',  ( 0.8660254037844378194, -0.5000000000000013323, 0.000000000000000000 ) ) ;
#61 = EDGE_LOOP ( 'NONE', ( #597, #183, #271, #151, #639, #572 ) ) ;
#62 = CARTESIAN_POINT ( 'NONE',  ( 0.000000000000000000, 0.000000000000000000, -2.399999999999999911 ) ) ;
#63 = UNCERTAINTY_MEASURE_WITH_UNIT (LENGTH_MEASURE( 1.000000000000000082E-05 ), #558, 'distance_accuracy_value', 'NONE');
#64 = CARTESIAN_POINT ( 'NONE',  ( 0.000000000000000000, 0.000000000000000000, -2.399999999999999911 ) ) ;
#65 = DIRECTION ( 'NONE',  ( 0.000000000000000000, 0.000000000000000000, 1.000000000000000000 ) ) ;
#66 = ADVANCED_FACE ( 'NONE', ( #722, #403 ), #790, .F. ) ;
#67 = ORIENTED_EDGE ( 'NONE', *, *, #660, .F. ) ;
#68 = VERTEX_POINT ( 'NONE', #435 ) ;
#69 = AXIS2_PLACEMENT_3D ( 'NONE', #208, #819, #842 ) ;
#70 = CARTESIAN_POINT ( 'NONE',  ( 1.375000000000003553, -2.381569860407205308, -2.399999999999999911 ) ) ;
#71 = CYLINDRICAL_SURFACE ( 'NONE', #1, 1.250000000000000000 ) ;
#72 = ADVANCED_FACE ( 'NONE', ( #802 ), #731, .F. ) ;
#73 = ORIENTED_EDGE ( 'NONE', *, *, #770, .T. ) ;
#74 = FACE_OUTER_BOUND ( 'NONE', #628, .T. ) ;
#75 = CARTESIAN_POINT ( 'NONE',  ( 2.750000000000000444, -1.065007702645624166, -2.291446954715292694 ) ) ;
#76 = ORIENTED_EDGE ( 'NONE', *, *, #854, .T. ) ;
#77 = CARTESIAN_POINT ( 'NONE',  ( 2.749999999999999112, -0.5348566131067998830, -0.02306174136865279251 ) ) ;
#78 = CARTESIAN_POINT ( 'NONE',  ( 1.084202172485504434E-15, 3.175426480542944851, -0.2456200930618644140 ) ) ;
#79 = CONICAL_SURFACE ( 'NONE', #308, 2.750000000000000888, 1.047197551196596299 ) ;
#80 = CARTESIAN_POINT ( 'NONE',  ( 0.000000000000000000, 0.000000000000000000, -2.399999999999999911 ) ) ;
#81 = ORIENTED_EDGE ( 'NONE', *, *, #870, .T. ) ;
#82 = VERTEX_POINT ( 'NONE', #323 ) ;
#83 = ADVANCED_FACE ( 'NONE', ( #787, #120 ), #423, .F. ) ;
#84 = CARTESIAN_POINT ( 'NONE',  ( -2.750000000000000888, 0.000000000000000000, 0.000000000000000000 ) ) ;
#85 = AXIS2_PLACEMENT_3D ( 'NONE', #904, #883, #438 ) ;
#86 =( NAMED_UNIT ( * ) SI_UNIT ( $, .STERADIAN. ) SOLID_ANGLE_UNIT ( ) );
#87 = EDGE_LOOP ( 'NONE', ( #299, #803, #372 ) ) ;
#88 = FACE_OUTER_BOUND ( 'NONE', #875, .T. ) ;
#89 =( LENGTH_UNIT ( ) NAMED_UNIT ( * ) SI_UNIT ( .MILLI., .METRE. ) );
#90 = CIRCLE ( 'NONE', #729, 1.250000000000000000 ) ;
#91 = ORIENTED_EDGE ( 'NONE', *, *, #555, .F. ) ;
#92 = CARTESIAN_POINT ( 'NONE',  ( -1.481862520314375153, 0.000000000000000000, -0.01270000000000025449 ) ) ;
#93 = CARTESIAN_POINT ( 'NONE',  ( -2.750000000000000888, 0.5405639250603675450, -0.02369969086895101773 ) ) ;
#94 = CARTESIAN_POINT ( 'NONE',  ( 1.375000000000003553, -2.381569860407205308, -2.399999999999999911 ) ) ;
#95 = ADVANCED_FACE ( 'NONE', ( #354, #663 ), #424, .F. ) ;
#96 = ORIENTED_EDGE ( 'NONE', *, *, #437, .T. ) ;
#97 = DIRECTION ( 'NONE',  ( 0.000000000000000000, 0.000000000000000000, 1.000000000000000000 ) ) ;
#98 = CARTESIAN_POINT ( 'NONE',  ( 0.000000000000000000, 0.000000000000000000, -0.2004518845524295989 ) ) ;
#99 = DIRECTION ( 'NONE',  ( 1.000000000000000000, 3.552713678800500929E-15, 0.000000000000000000 ) ) ;
#100 = AXIS2_PLACEMENT_3D ( 'NONE', #626, #771, #153 ) ;
#101 = CARTESIAN_POINT ( 'NONE',  ( 0.000000000000000000, 0.000000000000000000, -1.259868115447576375 ) ) ;
#102 = PRODUCT_RELATED_PRODUCT_CATEGORY ( 'part', '', ( #241 ) ) ;
#103 = CIRCLE ( 'NONE', #869, 1.500000000000000000 ) ;
#104 = FACE_BOUND ( 'NONE', #440, .T. ) ;
#105 = CARTESIAN_POINT ( 'NONE',  ( 0.000000000000000000, 0.000000000000000000, -2.399999999999999911 ) ) ;
#106 = CIRCLE ( 'NONE', #38, 1.500000000000000000 ) ;
#107 = ORIENTED_EDGE ( 'NONE', *, *, #753, .T. ) ;
#108 = B_SPLINE_CURVE_WITH_KNOTS ( 'NONE', 3,
 ( #78, #10, #385, #846 ),
 .UNSPECIFIED., .F., .F.,
 ( 4, 4 ),
 ( 2.380742992396528492E-07, 0.001606744326298694021 ),
 .UNSPECIFIED. ) ;
#109 = DIRECTION ( 'NONE',  ( 1.000000000000000000, 0.000000000000000000, 0.000000000000000000 ) ) ;
#110 = ORIENTED_EDGE ( 'NONE', *, *, #732, .T. ) ;
#111 = AXIS2_PLACEMENT_3D ( 'NONE', #876, #935, #29 ) ;
#112 = ORIENTED_EDGE ( 'NONE', *, *, #156, .T. ) ;
#113 = EDGE_CURVE ( 'NONE', #768, #494, #669, .T. ) ;
#114 = CARTESIAN_POINT ( 'NONE',  ( -2.750000000000000000, 1.587713240271475978, -2.154379906938135303 ) ) ;
#115 = FACE_BOUND ( 'NONE', #27, .T. ) ;
#116 = CIRCLE ( 'NONE', #163, 2.750000000000000444 ) ;
#117 = ORIENTED_EDGE ( 'NONE', *, *, #370, .F. ) ;
#118 = CARTESIAN_POINT ( 'NONE',  ( 0.000000000000000000, 0.000000000000000000, 0.000000000000000000 ) ) ;
#119 = CARTESIAN_POINT ( 'NONE',  ( 2.750000000000000888, 0.000000000000000000, -2.399999999999999911 ) ) ;
#120 = FACE_OUTER_BOUND ( 'NONE', #868, .T. ) ;
#121 = ORIENTED_EDGE ( 'NONE', *, *, #485, .T. ) ;
#122 = DIRECTION ( 'NONE',  ( -0.8660254037844380415, -0.5000000000000012212, 0.000000000000000000 ) ) ;
#123 = AXIS2_PLACEMENT_3D ( 'NONE', #146, #809, #428 ) ;
#124 = CARTESIAN_POINT ( 'NONE',  ( -1.409462824231155764E-14, -3.175426480542944851, -0.2456200930618644140 ) ) ;
#125 = CARTESIAN_POINT ( 'NONE',  ( 1.375000000000003775, 2.381569860407204864, -2.399999999999999911 ) ) ;
#126 = EDGE_CURVE ( 'NONE', #534, #534, #139, .T. ) ;
#127 = DIRECTION ( 'NONE',  ( -0.000000000000000000, -0.000000000000000000, -1.000000000000000000 ) ) ;
#128 = CIRCLE ( 'NONE', #172, 2.750000000000000444 ) ;
#129 = DIRECTION ( 'NONE',  ( -0.000000000000000000, -0.000000000000000000, -1.000000000000000000 ) ) ;
#130 = FACE_BOUND ( 'NONE', #654, .T. ) ;
#131 = EDGE_LOOP ( 'NONE', ( #229 ) ) ;
#132 = VERTEX_POINT ( 'NONE', #975 ) ;
#133 = EDGE_CURVE ( 'NONE', #764, #764, #90, .T. ) ;
#134 = AXIS2_PLACEMENT_3D ( 'NONE', #411, #641, #336 ) ;
#135 = CARTESIAN_POINT ( 'NONE',  ( -1.608385152161864173, -2.246824879981700107, -2.399999999999998579 ) ) ;
#136 = DIRECTION ( 'NONE',  ( -0.000000000000000000, -0.000000000000000000, 1.000000000000000000 ) ) ;
#137 = EDGE_LOOP ( 'NONE', ( #890 ) ) ;
#138 = VERTEX_POINT ( 'NONE', #152 ) ;
#139 = CIRCLE ( 'NONE', #504, 1.250000000000000000 ) ;
#140 = EDGE_CURVE ( 'NONE', #289, #289, #182, .T. ) ;
#141 = LINE ( 'NONE', #48, #898 ) ;
#142 = DIRECTION ( 'NONE',  ( 0.000000000000000000, 0.000000000000000000, -1.000000000000000000 ) ) ;
#143 = EDGE_LOOP ( 'NONE', ( #456 ) ) ;
#144 = DIRECTION ( 'NONE',  ( -0.000000000000000000, -0.000000000000000000, 1.000000000000000000 ) ) ;
#145 = FACE_BOUND ( 'NONE', #493, .T. ) ;
#146 = CARTESIAN_POINT ( 'NONE',  ( 0.000000000000000000, 0.000000000000000000, -2.399999999999999911 ) ) ;
#147 = EDGE_LOOP ( 'NONE', ( #586, #750, #13 ) ) ;
#148 = CARTESIAN_POINT ( 'NONE',  ( 2.750000000000000888, 0.000000000000000000, 0.000000000000000000 ) ) ;
#149 = DIRECTION ( 'NONE',  ( -1.000000000000000000, 0.000000000000000000, 0.000000000000000000 ) ) ;
#150 = PRESENTATION_STYLE_ASSIGNMENT (( #6 ) ) ;
#151 = ORIENTED_EDGE ( 'NONE', *, *, #765, .F. ) ;
#152 = CARTESIAN_POINT ( 'NONE',  ( -1.250000000000000222, 0.000000000000000000, -1.259868115447576375 ) ) ;
#153 = DIRECTION ( 'NONE',  ( 1.000000000000000000, 0.000000000000000000, 0.000000000000000000 ) ) ;
#154 = DIRECTION ( 'NONE',  ( -1.000000000000000000, 0.000000000000000000, 0.000000000000000000 ) ) ;
#155 = ORIENTED_EDGE ( 'NONE', *, *, #877, .F. ) ;
#156 = EDGE_CURVE ( 'NONE', #377, #366, #637, .T. ) ;
#157 = DIRECTION ( 'NONE',  ( 1.000000000000000000, 0.000000000000000000, 0.000000000000000000 ) ) ;
#158 = AXIS2_PLACEMENT_3D ( 'NONE', #971, #144, #817 ) ;
#159 = DIRECTION ( 'NONE',  ( 0.000000000000000000, 0.000000000000000000, 1.000000000000000000 ) ) ;
#160 = ORIENTED_EDGE ( 'NONE', *, *, #910, .T. ) ;
#161 = ADVANCED_FACE ( 'NONE', ( #737 ), #966, .T. ) ;
#162 = CARTESIAN_POINT ( 'NONE',  ( -2.750000000000000444, -1.329484544808470670, -0.1710758896428262732 ) ) ;
#163 = AXIS2_PLACEMENT_3D ( 'NONE', #695, #776, #622 ) ;
#164 = DIRECTION ( 'NONE',  ( -0.000000000000000000, -0.000000000000000000, -1.000000000000000000 ) ) ;
#165 = ORIENTED_EDGE ( 'NONE', *, *, #823, .F. ) ;
#166 = CARTESIAN_POINT ( 'NONE',  ( -2.750000000000000888, -1.065007702645624610, -0.1085530452847070088 ) ) ;
#167 = EDGE_CURVE ( 'NONE', #465, #194, #292, .T. ) ;
#168 = CARTESIAN_POINT ( 'NONE',  ( 0.000000000000000000, 0.000000000000000000, -1.904760000000000009 ) ) ;
#169 = AXIS2_PLACEMENT_3D ( 'NONE', #674, #215, #520 ) ;
#170 = ORIENTED_EDGE ( 'NONE', *, *, #789, .T. ) ;
#171 = DIRECTION ( 'NONE',  ( 1.000000000000000000, 0.000000000000000000, 0.000000000000000000 ) ) ;
#172 = AXIS2_PLACEMENT_3D ( 'NONE', #709, #356, #782 ) ;
#173 = DIRECTION ( 'NONE',  ( 1.000000000000000000, 0.000000000000000000, 0.000000000000000000 ) ) ;
#174 = ADVANCED_FACE ( 'NONE', ( #820 ), #744, .T. ) ;
#175 = ORIENTED_EDGE ( 'NONE', *, *, #675, .F. ) ;
#176 = CONICAL_SURFACE ( 'NONE', #7, 1.500000000000000000, 0.9599310885968911355 ) ;
#177 = DIRECTION ( 'NONE',  ( 1.000000000000000000, 0.000000000000000000, 0.000000000000000000 ) ) ;
#178 = AXIS2_PLACEMENT_3D ( 'NONE', #168, #469, #154 ) ;
#179 = DIRECTION ( 'NONE',  ( -0.000000000000000000, -0.000000000000000000, -1.000000000000000000 ) ) ;
#180 = CARTESIAN_POINT ( 'NONE',  ( -2.750000000000000000, -1.587713240271475978, -0.2456200930618644140 ) ) ;
#181 = ORIENTED_EDGE ( 'NONE', *, *, #770, .F. ) ;
#182 = CIRCLE ( 'NONE', #872, 1.500000000000000444 ) ;
#183 = ORIENTED_EDGE ( 'NONE', *, *, #248, .T. ) ;
#184 = ADVANCED_FACE ( 'NONE', ( #283 ), #603, .T. ) ;
#185 = CARTESIAN_POINT ( 'NONE',  ( -1.409462824231155764E-14, -3.175426480542944851, -0.2456200930618644140 ) ) ;
#186 = ORIENTED_EDGE ( 'NONE', *, *, #675, .T. ) ;
#187 = ORIENTED_EDGE ( 'NONE', *, *, #496, .F. ) ;
#188 = CARTESIAN_POINT ( 'NONE',  ( -2.750000000000000000, 1.330988860919476657, -0.1715101482986561288 ) ) ;
#189 = ADVANCED_FACE ( 'NONE', ( #814 ), #952, .T. ) ;
#190 = FACE_OUTER_BOUND ( 'NONE', #259, .T. ) ;
#191 = APPLICATION_CONTEXT ( 'automotive_design' ) ;
#192 = CYLINDRICAL_SURFACE ( 'NONE', #905, 1.250000000000000000 ) ;
#193 = CONICAL_SURFACE ( 'NONE', #26, 1.500000000000000000, 0.9599310885968911355 ) ;
#194 = VERTEX_POINT ( 'NONE', #359 ) ;
#195 = DIRECTION ( 'NONE',  ( -0.000000000000000000, -0.000000000000000000, -1.000000000000000000 ) ) ;
#196 = CYLINDRICAL_SURFACE ( 'NONE', #976, 1.500000000000000444 ) ;
#197 = ADVANCED_FACE ( 'NONE', ( #826 ), #554, .T. ) ;
#198 = ORIENTED_EDGE ( 'NONE', *, *, #480, .T. ) ;
#199 = EDGE_LOOP ( 'NONE', ( #840, #360, #788, #755, #117, #383 ) ) ;
#200 = AXIS2_PLACEMENT_3D ( 'NONE', #792, #269, #562 ) ;
#201 = DIRECTION ( 'NONE',  ( -0.000000000000000000, -0.000000000000000000, -1.000000000000000000 ) ) ;
#202 = B_SPLINE_CURVE_WITH_KNOTS ( 'NONE', 3,
 ( #114, #943, #948, #638 ),
 .UNSPECIFIED., .F., .F.,
 ( 4, 4 ),
 ( 2.380742992422008566E-07, 0.001606744326298685348 ),
 .UNSPECIFIED. ) ;
#203 = DIRECTION ( 'NONE',  ( 1.000000000000000000, 0.000000000000000000, 0.000000000000000000 ) ) ;
#204 = DIRECTION ( 'NONE',  ( -0.000000000000000000, -0.000000000000000000, 1.000000000000000000 ) ) ;
#205 = ORIENTED_EDGE ( 'NONE', *, *, #653, .T. ) ;
#206 = CARTESIAN_POINT ( 'NONE',  ( -1.141614847838144042, 2.516314840832715394, -2.400000000000002132 ) ) ;
#207 = AXIS2_PLACEMENT_3D ( 'NONE', #734, #859, #559 ) ;
#208 = CARTESIAN_POINT ( 'NONE',  ( 0.000000000000000000, 0.000000000000000000, -2.399999999999999911 ) ) ;
#209 = CARTESIAN_POINT ( 'NONE',  ( -1.251928832280970872E-16, -3.175426480542951957, -2.399999999999999911 ) ) ;
#210 = ORIENTED_EDGE ( 'NONE', *, *, #849, .F. ) ;
#211 = DIRECTION ( 'NONE',  ( -0.000000000000000000, -0.000000000000000000, 1.000000000000000000 ) ) ;
#212 = AXIS2_PLACEMENT_3D ( 'NONE', #255, #878, #330 ) ;
#213 = ADVANCED_FACE ( 'NONE', ( #302 ), #749, .T. ) ;
#214 = DIRECTION ( 'NONE',  ( -0.000000000000000000, -0.000000000000000000, 1.000000000000000000 ) ) ;
#215 = DIRECTION ( 'NONE',  ( 0.000000000000000000, 0.000000000000000000, 1.000000000000000000 ) ) ;
#216 = B_SPLINE_CURVE_WITH_KNOTS ( 'NONE', 3,
 ( #743, #135, #507, #443, #578, #813 ),
 .UNSPECIFIED., .F., .F.,
 ( 4, 2, 4 ),
 ( 0.001606744326298697925, 0.002406996759593255271, 0.003207249192887812184 ),
 .UNSPECIFIED. ) ;
#217 = ORIENTED_EDGE ( 'NONE', *, *, #982, .F. ) ;
#218 = CARTESIAN_POINT ( 'NONE',  ( -1.500000000000000000, 0.000000000000000000, -0.9650799999999999379 ) ) ;
#219 = AXIS2_PLACEMENT_3D ( 'NONE', #348, #331, #418 ) ;
#220 = AXIS2_PLACEMENT_3D ( 'NONE', #585, #136, #444 ) ;
#221 = DIRECTION ( 'NONE',  ( 1.000000000000000000, 0.000000000000000000, 0.000000000000000000 ) ) ;
#222 = CARTESIAN_POINT ( 'NONE',  ( -1.375000000000003553, 2.381569860407205308, 0.000000000000000000 ) ) ;
#223 = ORIENTED_EDGE ( 'NONE', *, *, #36, .T. ) ;
#224 = FACE_OUTER_BOUND ( 'NONE', #527, .T. ) ;
#225 = UNCERTAINTY_MEASURE_WITH_UNIT (LENGTH_MEASURE( 1.000000000000000082E-05 ), #89, 'distance_accuracy_value', 'NONE');
#226 = AXIS2_PLACEMENT_3D ( 'NONE', #426, #728, #122 ) ;
#227 = CARTESIAN_POINT ( 'NONE',  ( 1.843520544858954002, -2.111069397712025619, -1.615147373202882468E-15 ) ) ;
#228 = AXIS2_PLACEMENT_3D ( 'NONE', #881, #195, #587 ) ;
#229 = ORIENTED_EDGE ( 'NONE', *, *, #509, .F. ) ;
#230 = CARTESIAN_POINT ( 'NONE',  ( -1.375000000000003775, -2.381569860407204864, 0.000000000000000000 ) ) ;
#231 = CIRCLE ( 'NONE', #250, 1.500000000000000444 ) ;
#232 = CARTESIAN_POINT ( 'NONE',  ( 5.765545923118024225E-17, 3.175426480542944407, -2.399999999999999911 ) ) ;
#233 = CARTESIAN_POINT ( 'NONE',  ( 2.750000000000000444, 0.5405639250603698764, -2.376300309131048838 ) ) ;
#234 = ADVANCED_FACE ( 'NONE', ( #130, #433 ), #55, .F. ) ;
#235 = EDGE_LOOP ( 'NONE', ( #701 ) ) ;
#236 = DIRECTION ( 'NONE',  ( 1.000000000000000000, 0.000000000000000000, 0.000000000000000000 ) ) ;
#237 = CARTESIAN_POINT ( 'NONE',  ( -1.608385152161863729, -2.246824879981700551, -1.639008752937071156E-15 ) ) ;
#238 = PRESENTATION_LAYER_ASSIGNMENT (  '', '', ( #473 ) ) ;
#239 = FILL_AREA_STYLE ('',( #397 ) ) ;
#240 = ORIENTED_EDGE ( 'NONE', *, *, #599, .F. ) ;
#241 = PRODUCT ( 'ISO - 4032 - M3 - D - S_ISO - 4032 - M3 - D - S', 'ISO - 4032 - M3 - D - S_ISO - 4032 - M3 - D - S', '', ( #399 ) ) ;
#242 = DIRECTION ( 'NONE',  ( -1.000000000000000000, 0.000000000000000000, 0.000000000000000000 ) ) ;
#243 = AXIS2_PLACEMENT_3D ( 'NONE', #98, #201, #665 ) ;
#244 = CONICAL_SURFACE ( 'NONE', #863, 1.250000000000000000, 0.9599310885968755924 ) ;
#245 = SURFACE_SIDE_STYLE ('',( #536 ) ) ;
#246 = B_SPLINE_CURVE_WITH_KNOTS ( 'NONE', 3,
 ( #464, #772, #627, #531, #856, #550 ),
 .UNSPECIFIED., .F., .F.,
 ( 4, 2, 4 ),
 ( 0.004438889715320070220, 0.005242467187915810303, 0.006046044660511551254 ),
 .UNSPECIFIED. ) ;
#247 = ORIENTED_EDGE ( 'NONE', *, *, #660, .T. ) ;
#248 = EDGE_CURVE ( 'NONE', #746, #949, #303, .T. ) ;
#249 = CARTESIAN_POINT ( 'NONE',  ( -2.750000000000000000, -1.587713240271475978, -0.2456200930618644140 ) ) ;
#250 = AXIS2_PLACEMENT_3D ( 'NONE', #724, #407, #560 ) ;
#251 = FACE_OUTER_BOUND ( 'NONE', #970, .T. ) ;
#252 = ORIENTED_EDGE ( 'NONE', *, *, #332, .T. ) ;
#253 = ADVANCED_FACE ( 'NONE', ( #525, #758 ), #71, .F. ) ;
#254 = CARTESIAN_POINT ( 'NONE',  ( -2.750000000000000000, -1.587713240271475978, -2.154379906938135303 ) ) ;
#255 = CARTESIAN_POINT ( 'NONE',  ( -5.499999999999992895, -3.035766082959412415E-15, 0.000000000000000000 ) ) ;
#256 = EDGE_LOOP ( 'NONE', ( #56 ) ) ;
#257 = CARTESIAN_POINT ( 'NONE',  ( -0.9085346626517036839, 2.650883748492875558, -2.376480395431940007 ) ) ;
#258 = DIRECTION ( 'NONE',  ( 1.000000000000000000, 0.000000000000000000, 0.000000000000000000 ) ) ;
#259 = EDGE_LOOP ( 'NONE', ( #155 ) ) ;
#260 = EDGE_LOOP ( 'NONE', ( #901 ) ) ;
#261 = MANIFOLD_SOLID_BREP ( 'ThdSchPat', #406 ) ;
#262 = CARTESIAN_POINT ( 'NONE',  ( 0.000000000000000000, 0.000000000000000000, -0.9650799999999999379 ) ) ;
#263 = CIRCLE ( 'NONE', #178, 1.500000000000000000 ) ;
#264 = ADVANCED_FACE ( 'NONE', ( #391 ), #539, .T. ) ;
#265 = CARTESIAN_POINT ( 'NONE',  ( -1.409462824231155764E-14, -3.175426480542944851, -2.154379906938135303 ) ) ;
#266 = ORIENTED_EDGE ( 'NONE', *, *, #895, .F. ) ;
#267 = B_SPLINE_CURVE_WITH_KNOTS ( 'NONE', 3,
 ( #922, #605, #227, #529 ),
 .UNSPECIFIED., .F., .F.,
 ( 4, 4 ),
 ( 2.380742992387856727E-07, 0.001606744326298681878 ),
 .UNSPECIFIED. ) ;
#268 = FACE_BOUND ( 'NONE', #649, .T. ) ;
#269 = DIRECTION ( 'NONE',  ( 0.000000000000000000, 0.000000000000000000, 1.000000000000000000 ) ) ;
#270 = AXIS2_PLACEMENT_3D ( 'NONE', #209, #365, #376 ) ;
#271 = ORIENTED_EDGE ( 'NONE', *, *, #849, .T. ) ;
#272 = CARTESIAN_POINT ( 'NONE',  ( 0.000000000000000000, 0.000000000000000000, 0.000000000000000000 ) ) ;
#273 = CARTESIAN_POINT ( 'NONE',  ( 2.750000000000000000, 1.587713240271467985, -2.399999999999999911 ) ) ;
#274 = CARTESIAN_POINT ( 'NONE',  ( -1.141614847838144042, 2.516314840832715394, 2.220285112990333975E-15 ) ) ;
#275 = ADVANCED_FACE ( 'NONE', ( #394, #844 ), #487, .F. ) ;
#276 = FACE_OUTER_BOUND ( 'NONE', #451, .T. ) ;
#277 = B_SPLINE_CURVE_WITH_KNOTS ( 'NONE', 3,
 ( #939, #798, #285, #44, #345, #956 ),
 .UNSPECIFIED., .F., .F.,
 ( 4, 2, 4 ),
 ( 0.001606744326298694021, 0.002406996759593251368, 0.003207249192887808280 ),
 .UNSPECIFIED. ) ;
#278 = CIRCLE ( 'NONE', #661, 1.250000000000000222 ) ;
#279 = ORIENTED_EDGE ( 'NONE', *, *, #324, .T. ) ;
#280 = ORIENTED_EDGE ( 'NONE', *, *, #523, .T. ) ;
#281 = DIRECTION ( 'NONE',  ( -1.000000000000000000, 0.000000000000000000, 0.000000000000000000 ) ) ;
#282 = FACE_OUTER_BOUND ( 'NONE', #87, .T. ) ;
#283 = FACE_OUTER_BOUND ( 'NONE', #942, .T. ) ;
#284 = ORIENTED_EDGE ( 'NONE', *, *, #450, .F. ) ;
#285 = CARTESIAN_POINT ( 'NONE',  ( 1.841465337348298981, 2.112255972321535946, -0.02351960456805939417 ) ) ;
#286 = LINE ( 'NONE', #357, #432 ) ;
#287 = DIRECTION ( 'NONE',  ( -1.000000000000000000, 0.000000000000000000, 0.000000000000000000 ) ) ;
#288 = EDGE_LOOP ( 'NONE', ( #951 ) ) ;
#289 = VERTEX_POINT ( 'NONE', #828 ) ;
#290 = CONICAL_SURFACE ( 'NONE', #436, 2.750000000000000888, 1.047197551196596299 ) ;
#291 = CARTESIAN_POINT ( 'NONE',  ( 0.4506121144344735208, -2.915265454974101722, -0.1090894304641128465 ) ) ;
#292 = LINE ( 'NONE', #595, #687 ) ;
#293 = EDGE_CURVE ( 'NONE', #634, #355, #326, .T. ) ;
#294 = ORIENTED_EDGE ( 'NONE', *, *, #248, .F. ) ;
#295 = CARTESIAN_POINT ( 'NONE',  ( 0.000000000000000000, 0.000000000000000000, -2.079811884552429380 ) ) ;
#296 = AXIS2_PLACEMENT_3D ( 'NONE', #972, #214, #524 ) ;
#297 = DIRECTION ( 'NONE',  ( 0.000000000000000000, 0.000000000000000000, 1.000000000000000000 ) ) ;
#298 = CARTESIAN_POINT ( 'NONE',  ( -2.300137710042382988, 1.847441354476760944, -0.09566599640799347548 ) ) ;
#299 = ORIENTED_EDGE ( 'NONE', *, *, #293, .T. ) ;
#300 = CARTESIAN_POINT ( 'NONE',  ( 2.749999999999999556, -1.329484544808470448, -0.1710758896428262732 ) ) ;
#301 = CARTESIAN_POINT ( 'NONE',  ( 0.000000000000000000, 0.000000000000000000, 0.000000000000000000 ) ) ;
#302 = FACE_OUTER_BOUND ( 'NONE', #310, .T. ) ;
#303 = B_SPLINE_CURVE_WITH_KNOTS ( 'NONE', 3,
 ( #754, #298, #601, #222 ),
 .UNSPECIFIED., .F., .F.,
 ( 4, 4 ),
 ( 2.380742992391574408E-07, 0.001606744326298685348 ),
 .UNSPECIFIED. ) ;
#304 = ORIENTED_EDGE ( 'NONE', *, *, #732, .F. ) ;
#305 = CARTESIAN_POINT ( 'NONE',  ( 2.749999999999999556, 0.2684568315541772665, 4.878909776184767981E-16 ) ) ;
#306 = EDGE_CURVE ( 'NONE', #739, #947, #246, .T. ) ;
#307 = CARTESIAN_POINT ( 'NONE',  ( 2.750000000000000000, -1.587713240271475978, -2.154379906938135303 ) ) ;
#308 = AXIS2_PLACEMENT_3D ( 'NONE', #301, #616, #703 ) ;
#309 = DIRECTION ( 'NONE',  ( -1.000000000000000000, 0.000000000000000000, 0.000000000000000000 ) ) ;
#310 = EDGE_LOOP ( 'NONE', ( #821, #420, #676, #602, #853, #793 ) ) ;
#311 = CARTESIAN_POINT ( 'NONE',  ( 2.750000000000000000, 1.587713240271475978, -0.2456200930618644140 ) ) ;
#312 = CONICAL_SURFACE ( 'NONE', #134, 1.250000000000000000, 0.9599310885968755924 ) ;
#313 = CARTESIAN_POINT ( 'NONE',  ( 0.000000000000000000, 0.000000000000000000, -0.01270000000000025449 ) ) ;
#314 = VERTEX_POINT ( 'NONE', #838 ) ;
#315 = CARTESIAN_POINT ( 'NONE',  ( 0.000000000000000000, 0.000000000000000000, -1.434919999999999973 ) ) ;
#316 = CARTESIAN_POINT ( 'NONE',  ( 2.750000000000000000, 1.330988860919482653, -2.228489851701342506 ) ) ;
#317 = EDGE_CURVE ( 'NONE', #132, #132, #106, .T. ) ;
#318 = ORIENTED_EDGE ( 'NONE', *, *, #910, .F. ) ;
#319 =( NAMED_UNIT ( * ) SI_UNIT ( $, .STERADIAN. ) SOLID_ANGLE_UNIT ( ) );
#320 = CARTESIAN_POINT ( 'NONE',  ( -2.750000000000000000, 1.587713240271468651, -2.399999999999999911 ) ) ;
#321 = CARTESIAN_POINT ( 'NONE',  ( 1.375000000000003553, -2.381569860407205308, -2.399999999999999911 ) ) ;
#322 = ORIENTED_EDGE ( 'NONE', *, *, #113, .T. ) ;
#323 = CARTESIAN_POINT ( 'NONE',  ( -1.250000000000000000, 0.000000000000000000, -0.2004518845524295989 ) ) ;
#324 = EDGE_CURVE ( 'NONE', #413, #465, #416, .T. ) ;
#325 = FACE_OUTER_BOUND ( 'NONE', #614, .T. ) ;
#326 = B_SPLINE_CURVE_WITH_KNOTS ( 'NONE', 3,
 ( #460, #847, #700, #94 ),
 .UNSPECIFIED., .F., .F.,
 ( 4, 4 ),
 ( 2.380742992387856462E-07, 0.001606744326298682095 ),
 .UNSPECIFIED. ) ;
#327 = VERTEX_POINT ( 'NONE', #21 ) ;
#328 = APPLICATION_PROTOCOL_DEFINITION ( 'draft international standard', 'automotive_design', 1998, #448 ) ;
#329 = CARTESIAN_POINT ( 'NONE',  ( -2.750000000000000444, -1.065007702645624610, -2.291446954715292694 ) ) ;
#330 = DIRECTION ( 'NONE',  ( 1.000000000000000000, 0.000000000000000000, -0.000000000000000000 ) ) ;
#331 = DIRECTION ( 'NONE',  ( -0.000000000000000000, -0.000000000000000000, -1.000000000000000000 ) ) ;
#332 = EDGE_CURVE ( 'NONE', #68, #68, #263, .T. ) ;
#333 = CARTESIAN_POINT ( 'NONE',  ( 1.375000000000003775, 2.381569860407204864, -2.399999999999999911 ) ) ;
#334 = CARTESIAN_POINT ( 'NONE',  ( 0.000000000000000000, 0.000000000000000000, -2.399999999999999911 ) ) ;
#335 = EDGE_LOOP ( 'NONE', ( #318 ) ) ;
#336 = DIRECTION ( 'NONE',  ( 1.000000000000000000, 0.000000000000000000, 0.000000000000000000 ) ) ;
#337 = CIRCLE ( 'NONE', #882, 2.750000000000000444 ) ;
#338 = CARTESIAN_POINT ( 'NONE',  ( -1.375000000000003775, -2.381569860407204864, -2.399999999999999911 ) ) ;
#339 = EDGE_LOOP ( 'NONE', ( #67 ) ) ;
#340 = FACE_OUTER_BOUND ( 'NONE', #344, .T. ) ;
#341 = FACE_OUTER_BOUND ( 'NONE', #711, .T. ) ;
#342 = AXIS2_PLACEMENT_3D ( 'NONE', #969, #979, #60 ) ;
#343 = ADVANCED_FACE ( 'NONE', ( #767 ), #594, .T. ) ;
#344 = EDGE_LOOP ( 'NONE', ( #96, #505, #198, #576, #76, #81 ) ) ;
#345 = CARTESIAN_POINT ( 'NONE',  ( 2.525629923208370986, 1.717253364505212376, -0.1708300674639753047 ) ) ;
#346 = B_SPLINE_CURVE_WITH_KNOTS ( 'NONE', 3,
 ( #249, #162, #166, #472, #684, #84 ),
 .UNSPECIFIED., .F., .F.,
 ( 4, 2, 4 ),
 ( 0.002832689070575954149, 0.003635789392948012184, 0.004438889715320070220 ),
 .UNSPECIFIED. ) ;
#347 = CARTESIAN_POINT ( 'NONE',  ( 1.084202172485504434E-15, 3.175426480542944851, -2.154379906938135303 ) ) ;
#348 = CARTESIAN_POINT ( 'NONE',  ( 0.000000000000000000, 0.000000000000000000, -2.399999999999999911 ) ) ;
#349 = EDGE_LOOP ( 'NONE', ( #568 ) ) ;
#350 = CARTESIAN_POINT ( 'NONE',  ( -0.4498622899576294465, -2.915698366337652558, -0.09566599640799654247 ) ) ;
#351 = EDGE_CURVE ( 'NONE', #949, #706, #116, .T. ) ;
#352 = CARTESIAN_POINT ( 'NONE',  ( 0.000000000000000000, 0.000000000000000000, -1.434919999999999973 ) ) ;
#353 = CIRCLE ( 'NONE', #69, 2.750000000000000444 ) ;
#354 = FACE_OUTER_BOUND ( 'NONE', #260, .T. ) ;
#355 = VERTEX_POINT ( 'NONE', #321 ) ;
#356 = DIRECTION ( 'NONE',  ( 0.000000000000000000, 0.000000000000000000, 1.000000000000000000 ) ) ;
#357 = CARTESIAN_POINT ( 'NONE',  ( 2.750000000000000000, -1.587713240271475978, -2.399999999999999911 ) ) ;
#358 = B_SPLINE_CURVE_WITH_KNOTS ( 'NONE', 3,
 ( #70, #831, #957, #519, #54, #656 ),
 .UNSPECIFIED., .F., .F.,
 ( 4, 2, 4 ),
 ( 0.001606744326298682095, 0.002406996759593250934, 0.003207249192887819990 ),
 .UNSPECIFIED. ) ;
#359 = CARTESIAN_POINT ( 'NONE',  ( 2.750000000000000000, 1.587713240271475978, -0.2456200930618644140 ) ) ;
#360 = ORIENTED_EDGE ( 'NONE', *, *, #699, .T. ) ;
#361 = MECHANICAL_DESIGN_GEOMETRIC_PRESENTATION_REPRESENTATION (  '', ( #473 ), #380 ) ;
#362 = CARTESIAN_POINT ( 'NONE',  ( -1.250000000000000000, 0.000000000000000000, -0.6702918845524294955 ) ) ;
#363 = CARTESIAN_POINT ( 'NONE',  ( 0.000000000000000000, 0.000000000000000000, -2.079811884552429380 ) ) ;
#364 = ADVANCED_FACE ( 'NONE', ( #931, #251 ), #795, .F. ) ;
#365 = DIRECTION ( 'NONE',  ( 0.5000000000000012212, -0.8660254037844379305, 0.000000000000000000 ) ) ;
#366 = VERTEX_POINT ( 'NONE', #860 ) ;
#367 = DIRECTION ( 'NONE',  ( 0.000000000000000000, 0.000000000000000000, 1.000000000000000000 ) ) ;
#368 = FACE_OUTER_BOUND ( 'NONE', #521, .T. ) ;
#369 = B_SPLINE_CURVE_WITH_KNOTS ( 'NONE', 3,
 ( #421, #632, #93, #501, #188, #51 ),
 .UNSPECIFIED., .F., .F.,
 ( 4, 2, 4 ),
 ( 0.004438889715320070220, 0.005242467187915806834, 0.006046044660511543448 ),
 .UNSPECIFIED. ) ;
#370 = EDGE_CURVE ( 'NONE', #366, #465, #374, .T. ) ;
#371 = CARTESIAN_POINT ( 'NONE',  ( 0.000000000000000000, 0.000000000000000000, -2.374600000000000932 ) ) ;
#372 = ORIENTED_EDGE ( 'NONE', *, *, #753, .F. ) ;
#373 = VERTEX_POINT ( 'NONE', #528 ) ;
#374 = B_SPLINE_CURVE_WITH_KNOTS ( 'NONE', 3,
 ( #333, #492, #478, #800, #483, #936 ),
 .UNSPECIFIED., .F., .F.,
 ( 4, 2, 4 ),
 ( 0.001606744326298693588, 0.002406996759593251368, 0.003207249192887808280 ),
 .UNSPECIFIED. ) ;
#375 = PLANE ( 'NONE',  #918 ) ;
#376 = DIRECTION ( 'NONE',  ( 0.8660254037844379305, 0.5000000000000012212, 0.000000000000000000 ) ) ;
#377 = VERTEX_POINT ( 'NONE', #347 ) ;
#378 = DIRECTION ( 'NONE',  ( 1.000000000000000000, 0.000000000000000000, 0.000000000000000000 ) ) ;
#379 = ADVANCED_FACE ( 'NONE', ( #864, #104 ), #312, .F. ) ;
#380 =( GEOMETRIC_REPRESENTATION_CONTEXT ( 3 ) GLOBAL_UNCERTAINTY_ASSIGNED_CONTEXT ( ( #225 ) ) GLOBAL_UNIT_ASSIGNED_CONTEXT ( ( #89, #851, #86 ) ) REPRESENTATION_CONTEXT ( 'NONE', 'WORKASPACE' ) );
#381 = CARTESIAN_POINT ( 'NONE',  ( 2.750000000000000000, -0.2682974265912533296, -2.399999999999999911 ) ) ;
#382 = PRODUCT_DEFINITION_SHAPE ( 'NONE', 'NONE',  #410 ) ;
#383 = ORIENTED_EDGE ( 'NONE', *, *, #156, .F. ) ;
#384 = DIRECTION ( 'NONE',  ( 0.000000000000000000, 0.000000000000000000, 1.000000000000000000 ) ) ;
#385 = CARTESIAN_POINT ( 'NONE',  ( 0.9064794551410524370, 2.652070323102390770, 2.116541974522577745E-15 ) ) ;
#386 = DIRECTION ( 'NONE',  ( 1.000000000000000000, 0.000000000000000000, 0.000000000000000000 ) ) ;
#387 = ORIENTED_EDGE ( 'NONE', *, *, #693, .F. ) ;
#388 = VERTEX_POINT ( 'NONE', #92 ) ;
#389 = CIRCLE ( 'NONE', #514, 2.750000000000000444 ) ;
#390 = CARTESIAN_POINT ( 'NONE',  ( 0.000000000000000000, 0.000000000000000000, -2.399999999999999911 ) ) ;
#391 = FACE_OUTER_BOUND ( 'NONE', #857, .T. ) ;
#392 = EDGE_LOOP ( 'NONE', ( #546, #39, #778 ) ) ;
#393 = CARTESIAN_POINT ( 'NONE',  ( 2.749999999999999556, -1.329484544808470226, -2.228924110357173749 ) ) ;
#394 = FACE_BOUND ( 'NONE', #335, .T. ) ;
#395 = ORIENTED_EDGE ( 'NONE', *, *, #808, .F. ) ;
#396 = CARTESIAN_POINT ( 'NONE',  ( -2.750000000000000000, 0.000000000000000000, -2.399999999999999911 ) ) ;
#397 = FILL_AREA_STYLE_COLOUR ( '', #906 ) ;
#398 = ORIENTED_EDGE ( 'NONE', *, *, #306, .F. ) ;
#399 = PRODUCT_CONTEXT ( 'NONE', #191, 'mechanical' ) ;
#400 = CONICAL_SURFACE ( 'NONE', #532, 2.750000000000000888, 1.047197551196596299 ) ;
#401 = CARTESIAN_POINT ( 'NONE',  ( 1.084202172485504434E-15, 3.175426480542944851, -2.154379906938135303 ) ) ;
#402 = CARTESIAN_POINT ( 'NONE',  ( 2.750000000000000000, 1.587713240271475978, -2.154379906938135303 ) ) ;
#403 = FACE_OUTER_BOUND ( 'NONE', #288, .T. ) ;
#404 = EDGE_CURVE ( 'NONE', #314, #366, #466, .T. ) ;
#405 =( GEOMETRIC_REPRESENTATION_CONTEXT ( 3 ) GLOBAL_UNCERTAINTY_ASSIGNED_CONTEXT ( ( #63 ) ) GLOBAL_UNIT_ASSIGNED_CONTEXT ( ( #558, #14, #319 ) ) REPRESENTATION_CONTEXT ( 'NONE', 'WORKASPACE' ) );
#406 = CLOSED_SHELL ( 'NONE', ( #364, #83, #41, #253, #518, #839, #17, #72, #174, #213, #666, #417, #234, #161, #189, #184, #343, #950, #646, #197, #801, #865, #561, #264, #720, #917, #95, #589, #66, #22, #275, #944, #491, #379, #631, #573, #940, #968 ) ) ;
#407 = DIRECTION ( 'NONE',  ( -0.000000000000000000, -0.000000000000000000, 1.000000000000000000 ) ) ;
#408 = DIRECTION ( 'NONE',  ( -1.000000000000000000, 0.000000000000000000, 0.000000000000000000 ) ) ;
#409 = VERTEX_POINT ( 'NONE', #185 ) ;
#410 = PRODUCT_DEFINITION ( 'General', '', #569, #708 ) ;
#411 = CARTESIAN_POINT ( 'NONE',  ( 0.000000000000000000, 0.000000000000000000, -1.140131884552429531 ) ) ;
#412 = DIRECTION ( 'NONE',  ( -1.000000000000000000, 0.000000000000000000, 0.000000000000000000 ) ) ;
#413 = VERTEX_POINT ( 'NONE', #119 ) ;
#414 = DIRECTION ( 'NONE',  ( -0.000000000000000000, -0.000000000000000000, -1.000000000000000000 ) ) ;
#415 = VECTOR ( 'NONE', #786, 1000.000000000000000 ) ;
#416 = B_SPLINE_CURVE_WITH_KNOTS ( 'NONE', 3,
 ( #612, #919, #233, #16, #316, #704 ),
 .UNSPECIFIED., .F., .F.,
 ( 4, 2, 4 ),
 ( 0.004438889715320070220, 0.005242467187915811171, 0.006046044660511552121 ),
 .UNSPECIFIED. ) ;
#417 = ADVANCED_FACE ( 'NONE', ( #422, #340 ), #721, .T. ) ;
#418 = DIRECTION ( 'NONE',  ( 1.000000000000000000, 0.000000000000000000, 0.000000000000000000 ) ) ;
#419 = ADVANCED_BREP_SHAPE_REPRESENTATION ( 'ISO - 4032 - M3 - D - S_ISO - 4032 - M3 - D - S', ( #261, #965 ), #405 ) ;
#420 = ORIENTED_EDGE ( 'NONE', *, *, #775, .T. ) ;
#421 = CARTESIAN_POINT ( 'NONE',  ( -2.750000000000000888, 0.000000000000000000, 0.000000000000000000 ) ) ;
#422 = FACE_BOUND ( 'NONE', #339, .T. ) ;
#423 = CYLINDRICAL_SURFACE ( 'NONE', #18, 1.250000000000000000 ) ;
#424 = CONICAL_SURFACE ( 'NONE', #668, 1.500000000000000444, 0.9599310885968762586 ) ;
#425 = ORIENTED_EDGE ( 'NONE', *, *, #28, .F. ) ;
#426 = CARTESIAN_POINT ( 'NONE',  ( 5.765545923118024225E-17, 3.175426480542944407, -2.399999999999999911 ) ) ;
#427 = CARTESIAN_POINT ( 'NONE',  ( 0.000000000000000000, 0.000000000000000000, 0.000000000000000000 ) ) ;
#428 = DIRECTION ( 'NONE',  ( 1.000000000000000000, 0.000000000000000000, 0.000000000000000000 ) ) ;
#429 = EDGE_LOOP ( 'NONE', ( #46 ) ) ;
#430 = FACE_OUTER_BOUND ( 'NONE', #61, .T. ) ;
#431 = DIRECTION ( 'NONE',  ( 0.000000000000000000, 0.000000000000000000, -1.000000000000000000 ) ) ;
#432 = VECTOR ( 'NONE', #297, 1000.000000000000000 ) ;
#433 = FACE_OUTER_BOUND ( 'NONE', #848, .T. ) ;
#434 = EDGE_LOOP ( 'NONE', ( #959, #773, #304 ) ) ;
#435 = CARTESIAN_POINT ( 'NONE',  ( -1.500000000000000000, 0.000000000000000000, -1.904760000000000009 ) ) ;
#436 = AXIS2_PLACEMENT_3D ( 'NONE', #62, #211, #760 ) ;
#437 = EDGE_CURVE ( 'NONE', #23, #327, #696, .T. ) ;
#438 = DIRECTION ( 'NONE',  ( 1.000000000000000000, 0.000000000000000000, 0.000000000000000000 ) ) ;
#439 = CARTESIAN_POINT ( 'NONE',  ( 1.084202172485504434E-15, 3.175426480542944851, -2.154379906938135303 ) ) ;
#440 = EDGE_LOOP ( 'NONE', ( #958 ) ) ;
#441 = AXIS2_PLACEMENT_3D ( 'NONE', #101, #652, #412 ) ;
#442 = CARTESIAN_POINT ( 'NONE',  ( -1.500000000000000000, 0.000000000000000000, -0.4952399999999999580 ) ) ;
#443 = CARTESIAN_POINT ( 'NONE',  ( -2.299387885565525647, -1.847874265840326213, -2.290910569535890229 ) ) ;
#444 = DIRECTION ( 'NONE',  ( 1.000000000000000000, 0.000000000000000000, 0.000000000000000000 ) ) ;
#445 = EDGE_LOOP ( 'NONE', ( #871 ) ) ;
#446 = CARTESIAN_POINT ( 'NONE',  ( 2.750000000000000888, 0.000000000000000000, 0.000000000000000000 ) ) ;
#447 = DIRECTION ( 'NONE',  ( -1.000000000000000000, 0.000000000000000000, 0.000000000000000000 ) ) ;
#448 = APPLICATION_CONTEXT ( 'automotive_design' ) ;
#449 = CARTESIAN_POINT ( 'NONE',  ( 0.000000000000000000, 0.000000000000000000, 0.000000000000000000 ) ) ;
#450 = EDGE_CURVE ( 'NONE', #373, #373, #278, .T. ) ;
#451 = EDGE_LOOP ( 'NONE', ( #73 ) ) ;
#452 = CARTESIAN_POINT ( 'NONE',  ( 0.000000000000000000, 0.000000000000000000, -0.6702918845524294955 ) ) ;
#453 = B_SPLINE_CURVE_WITH_KNOTS ( 'NONE', 3,
 ( #655, #274, #740, #553, #582, #636 ),
 .UNSPECIFIED., .F., .F.,
 ( 4, 2, 4 ),
 ( 0.001606744326298685348, 0.002406996759593249199, 0.003207249192887813051 ),
 .UNSPECIFIED. ) ;
#454 = CARTESIAN_POINT ( 'NONE',  ( -1.375000000000003775, -2.381569860407204864, 0.000000000000000000 ) ) ;
#455 = DIRECTION ( 'NONE',  ( -0.000000000000000000, -0.000000000000000000, -1.000000000000000000 ) ) ;
#456 = ORIENTED_EDGE ( 'NONE', *, *, #126, .T. ) ;
#457 = VERTEX_POINT ( 'NONE', #517 ) ;
#458 = CIRCLE ( 'NONE', #219, 2.750000000000000444 ) ;
#459 = DIRECTION ( 'NONE',  ( -0.000000000000000000, -0.000000000000000000, 1.000000000000000000 ) ) ;
#460 = CARTESIAN_POINT ( 'NONE',  ( 2.750000000000000000, -1.587713240271475978, -2.154379906938135303 ) ) ;
#461 = EDGE_LOOP ( 'NONE', ( #280, #481, #425 ) ) ;
#462 = VERTEX_POINT ( 'NONE', #769 ) ;
#463 = DIRECTION ( 'NONE',  ( 0.000000000000000000, 0.000000000000000000, 1.000000000000000000 ) ) ;
#464 = CARTESIAN_POINT ( 'NONE',  ( -2.750000000000000000, 0.000000000000000000, -2.399999999999999911 ) ) ;
#465 = VERTEX_POINT ( 'NONE', #402 ) ;
#466 = CIRCLE ( 'NONE', #837, 2.750000000000000444 ) ;
#467 = EDGE_CURVE ( 'NONE', #3, #409, #645, .T. ) ;
#468 = CARTESIAN_POINT ( 'NONE',  ( 2.749999999999999112, -0.5348566131067995499, -2.376938258631346113 ) ) ;
#469 = DIRECTION ( 'NONE',  ( -0.000000000000000000, -0.000000000000000000, -1.000000000000000000 ) ) ;
#470 = ORIENTED_EDGE ( 'NONE', *, *, #496, .T. ) ;
#471 = CARTESIAN_POINT ( 'NONE',  ( -1.250000000000000222, 0.000000000000000000, -0.3201881154475763602 ) ) ;
#472 = CARTESIAN_POINT ( 'NONE',  ( -2.749999999999998668, -0.5348566131067995499, -0.02306174136865276475 ) ) ;
#473 = STYLED_ITEM ( 'NONE', ( #150 ), #261 ) ;
#474 = EDGE_CURVE ( 'NONE', #947, #314, #202, .T. ) ;
#475 = DIRECTION ( 'NONE',  ( -0.000000000000000000, -0.000000000000000000, 1.000000000000000000 ) ) ;
#476 = ORIENTED_EDGE ( 'NONE', *, *, #547, .F. ) ;
#477 = CARTESIAN_POINT ( 'NONE',  ( -2.749999999999999112, -0.5348566131067996610, -2.376938258631346113 ) ) ;
#478 = CARTESIAN_POINT ( 'NONE',  ( 1.841465337348298759, 2.112255972321535946, -2.376480395431940451 ) ) ;
#479 = CIRCLE ( 'NONE', #862, 1.250000000000000000 ) ;
#480 = EDGE_CURVE ( 'NONE', #542, #949, #337, .T. ) ;
#481 = ORIENTED_EDGE ( 'NONE', *, *, #830, .T. ) ;
#482 = AXIS2_PLACEMENT_3D ( 'NONE', #488, #791, #109 ) ;
#483 = CARTESIAN_POINT ( 'NONE',  ( 2.525629923208370542, 1.717253364505211932, -2.229169932536024135 ) ) ;
#484 = ORIENTED_EDGE ( 'NONE', *, *, #699, .F. ) ;
#485 = EDGE_CURVE ( 'NONE', #915, #915, #231, .T. ) ;
#486 = ORIENTED_EDGE ( 'NONE', *, *, #725, .T. ) ;
#487 = CONICAL_SURFACE ( 'NONE', #565, 1.500000000000000000, 0.9599310885968911355 ) ;
#488 = CARTESIAN_POINT ( 'NONE',  ( 0.000000000000000000, 0.000000000000000000, -2.399999999999999911 ) ) ;
#489 = ORIENTED_EDGE ( 'NONE', *, *, #547, .T. ) ;
#490 = ORIENTED_EDGE ( 'NONE', *, *, #140, .F. ) ;
#491 = ADVANCED_FACE ( 'NONE', ( #268, #717 ), #193, .F. ) ;
#492 = CARTESIAN_POINT ( 'NONE',  ( 1.608385152161860843, 2.246824879981694778, -2.400000000000002576 ) ) ;
#493 = EDGE_LOOP ( 'NONE', ( #608 ) ) ;
#494 = VERTEX_POINT ( 'NONE', #180 ) ;
#495 = CARTESIAN_POINT ( 'NONE',  ( 0.000000000000000000, 0.000000000000000000, -0.7900281154475763401 ) ) ;
#496 = EDGE_CURVE ( 'NONE', #355, #499, #799, .T. ) ;
#497 = CYLINDRICAL_SURFACE ( 'NONE', #498, 1.250000000000000000 ) ;
#498 = AXIS2_PLACEMENT_3D ( 'NONE', #64, #502, #899 ) ;
#499 = VERTEX_POINT ( 'NONE', #873 ) ;
#500 = B_SPLINE_CURVE_WITH_KNOTS ( 'NONE', 3,
 ( #254, #659, #329, #477, #47, #396 ),
 .UNSPECIFIED., .F., .F.,
 ( 4, 2, 4 ),
 ( 0.002832689070575954149, 0.003635789392948012184, 0.004438889715320070220 ),
 .UNSPECIFIED. ) ;
#501 = CARTESIAN_POINT ( 'NONE',  ( -2.749999999999998668, 1.070896984529280838, -0.1097913889158289302 ) ) ;
#502 = DIRECTION ( 'NONE',  ( 0.000000000000000000, 0.000000000000000000, 1.000000000000000000 ) ) ;
#503 = CARTESIAN_POINT ( 'NONE',  ( 0.9064794551410519929, 2.652070323102390770, -2.400000000000002132 ) ) ;
#504 = AXIS2_PLACEMENT_3D ( 'NONE', #680, #907, #894 ) ;
#505 = ORIENTED_EDGE ( 'NONE', *, *, #530, .T. ) ;
#506 = CARTESIAN_POINT ( 'NONE',  ( 0.000000000000000000, 0.000000000000000000, -1.609971884552429566 ) ) ;
#507 = CARTESIAN_POINT ( 'NONE',  ( -1.841465337348302533, -2.112255972321540831, -2.376480395431936898 ) ) ;
#508 = DIRECTION ( 'NONE',  ( 1.000000000000000000, 0.000000000000000000, 0.000000000000000000 ) ) ;
#509 = EDGE_CURVE ( 'NONE', #592, #592, #946, .T. ) ;
#510 = EDGE_LOOP ( 'NONE', ( #923 ) ) ;
#511 = CARTESIAN_POINT ( 'NONE',  ( -0.4506121144344761298, 2.915265454974091508, -2.290910569535891117 ) ) ;
#512 = CIRCLE ( 'NONE', #544, 1.500000000000000000 ) ;
#513 = CARTESIAN_POINT ( 'NONE',  ( 0.2243700767916218530, -3.045886356309211340, -0.1708300674639837147 ) ) ;
#514 = AXIS2_PLACEMENT_3D ( 'NONE', #757, #593, #967 ) ;
#515 = CARTESIAN_POINT ( 'NONE',  ( 0.000000000000000000, 0.000000000000000000, -2.399999999999999911 ) ) ;
#516 = ORIENTED_EDGE ( 'NONE', *, *, #775, .F. ) ;
#517 = CARTESIAN_POINT ( 'NONE',  ( 1.500000000000000000, 0.000000000000000000, 0.000000000000000000 ) ) ;
#518 = ADVANCED_FACE ( 'NONE', ( #574, #190 ), #497, .F. ) ;
#519 = CARTESIAN_POINT ( 'NONE',  ( 0.4506121144344734097, -2.915265454974101722, -2.290910569535886232 ) ) ;
#520 = DIRECTION ( 'NONE',  ( 1.000000000000000000, 0.000000000000000000, -0.000000000000000000 ) ) ;
#521 = EDGE_LOOP ( 'NONE', ( #121 ) ) ;
#522 = CARTESIAN_POINT ( 'NONE',  ( 2.749999999999999112, 1.070896984529285501, -0.1097913889158300405 ) ) ;
#523 = EDGE_CURVE ( 'NONE', #499, #768, #216, .T. ) ;
#524 = DIRECTION ( 'NONE',  ( 1.000000000000000000, 0.000000000000000000, 0.000000000000000000 ) ) ;
#525 = FACE_OUTER_BOUND ( 'NONE', #619, .T. ) ;
#526 = B_SPLINE_CURVE_WITH_KNOTS ( 'NONE', 3,
 ( #307, #393, #75, #468, #381, #5 ),
 .UNSPECIFIED., .F., .F.,
 ( 4, 2, 4 ),
 ( 0.002832689070575955016, 0.003635789392948012618, 0.004438889715320070220 ),
 .UNSPECIFIED. ) ;
#527 = EDGE_LOOP ( 'NONE', ( #247 ) ) ;
#528 = CARTESIAN_POINT ( 'NONE',  ( -1.250000000000000222, 0.000000000000000000, -1.729708115447576411 ) ) ;
#529 = CARTESIAN_POINT ( 'NONE',  ( 1.375000000000003553, -2.381569860407205308, 0.000000000000000000 ) ) ;
#530 = EDGE_CURVE ( 'NONE', #327, #542, #11, .T. ) ;
#531 = CARTESIAN_POINT ( 'NONE',  ( -2.749999999999999112, 1.070896984529285501, -2.290208611084170176 ) ) ;
#532 = AXIS2_PLACEMENT_3D ( 'NONE', #583, #888, #203 ) ;
#533 = ORIENTED_EDGE ( 'NONE', *, *, #167, .T. ) ;
#534 = VERTEX_POINT ( 'NONE', #615 ) ;
#535 = FACE_OUTER_BOUND ( 'NONE', #392, .T. ) ;
#536 = SURFACE_STYLE_FILL_AREA ( #239 ) ;
#537 = CIRCLE ( 'NONE', #812, 1.481862520314375153 ) ;
#538 = EDGE_LOOP ( 'NONE', ( #664, #43, #186 ) ) ;
#539 = CONICAL_SURFACE ( 'NONE', #58, 2.750000000000000888, 1.047197551196596299 ) ;
#540 = DIRECTION ( 'NONE',  ( 0.000000000000000000, 0.000000000000000000, 1.000000000000000000 ) ) ;
#541 = DIRECTION ( 'NONE',  ( -1.000000000000000000, 0.000000000000000000, 0.000000000000000000 ) ) ;
#542 = VERTEX_POINT ( 'NONE', #672 ) ;
#543 = EDGE_CURVE ( 'NONE', #897, #897, #836, .T. ) ;
#544 = AXIS2_PLACEMENT_3D ( 'NONE', #315, #925, #242 ) ;
#545 = CARTESIAN_POINT ( 'NONE',  ( -1.375000000000003553, 2.381569860407205308, -2.399999999999999911 ) ) ;
#546 = ORIENTED_EDGE ( 'NONE', *, *, #530, .F. ) ;
#547 = EDGE_CURVE ( 'NONE', #23, #409, #978, .T. ) ;
#548 = CONICAL_SURFACE ( 'NONE', #932, 1.500000000000000000, 0.9599310885968911355 ) ;
#549 = CARTESIAN_POINT ( 'NONE',  ( 0.000000000000000000, 0.000000000000000000, -0.4952399999999999580 ) ) ;
#550 = CARTESIAN_POINT ( 'NONE',  ( -2.750000000000000000, 1.587713240271475978, -2.154379906938135303 ) ) ;
#551 = EDGE_LOOP ( 'NONE', ( #727 ) ) ;
#552 = AXIS2_PLACEMENT_3D ( 'NONE', #295, #367, #236 ) ;
#553 = CARTESIAN_POINT ( 'NONE',  ( -0.4506121144344761298, 2.915265454974091508, -0.1090894304641077672 ) ) ;
#554 = CONICAL_SURFACE ( 'NONE', #858, 2.750000000000000888, 1.047197551196596299 ) ;
#555 = EDGE_CURVE ( 'NONE', #739, #314, #389, .T. ) ;
#556 = DIRECTION ( 'NONE',  ( 0.000000000000000000, 0.000000000000000000, 1.000000000000000000 ) ) ;
#557 = ORIENTED_EDGE ( 'NONE', *, *, #53, .T. ) ;
#558 =( LENGTH_UNIT ( ) NAMED_UNIT ( * ) SI_UNIT ( .MILLI., .METRE. ) );
#559 = DIRECTION ( 'NONE',  ( -1.000000000000000000, 0.000000000000000000, 0.000000000000000000 ) ) ;
#560 = DIRECTION ( 'NONE',  ( 1.000000000000000000, 0.000000000000000000, 0.000000000000000000 ) ) ;
#561 = ADVANCED_FACE ( 'NONE', ( #748 ), #742, .T. ) ;
#562 = DIRECTION ( 'NONE',  ( 1.000000000000000000, 0.000000000000000000, 0.000000000000000000 ) ) ;
#563 = B_SPLINE_CURVE_WITH_KNOTS ( 'NONE', 3,
 ( #774, #350, #811, #960 ),
 .UNSPECIFIED., .F., .F.,
 ( 4, 4 ),
 ( 2.380742992551845217E-07, 0.001606744326298697708 ),
 .UNSPECIFIED. ) ;
#564 = EDGE_LOOP ( 'NONE', ( #691, #240, #107, #279, #533, #217 ) ) ;
#565 = AXIS2_PLACEMENT_3D ( 'NONE', #710, #455, #617 ) ;
#566 = DIRECTION ( 'NONE',  ( -1.000000000000000000, 0.000000000000000000, 0.000000000000000000 ) ) ;
#567 = ORIENTED_EDGE ( 'NONE', *, *, #877, .T. ) ;
#568 = ORIENTED_EDGE ( 'NONE', *, *, #332, .F. ) ;
#569 = PRODUCT_DEFINITION_FORMATION_WITH_SPECIFIED_SOURCE ( 'Symmetric', '', #241, .NOT_KNOWN. ) ;
#570 = DIRECTION ( 'NONE',  ( -0.000000000000000000, -0.000000000000000000, -1.000000000000000000 ) ) ;
#571 = ORIENTED_EDGE ( 'NONE', *, *, #317, .F. ) ;
#572 = ORIENTED_EDGE ( 'NONE', *, *, #474, .F. ) ;
#573 = ADVANCED_FACE ( 'NONE', ( #600, #736 ), #712, .F. ) ;
#574 = FACE_OUTER_BOUND ( 'NONE', #623, .T. ) ;
#575 = CARTESIAN_POINT ( 'NONE',  ( 1.375000000000003553, -2.381569860407205308, 0.000000000000000000 ) ) ;
#576 = ORIENTED_EDGE ( 'NONE', *, *, #351, .T. ) ;
#577 = CARTESIAN_POINT ( 'NONE',  ( -0.2243700767916260996, 3.045886356309201570, -2.229169932536022358 ) ) ;
#578 = CARTESIAN_POINT ( 'NONE',  ( -2.525629923208374539, -1.717253364505217927, -2.229169932536021026 ) ) ;
#579 = AXIS2_PLACEMENT_3D ( 'NONE', #32, #783, #173 ) ;
#580 = CARTESIAN_POINT ( 'NONE',  ( -1.409462824231155764E-14, -3.175426480542944851, -2.154379906938135303 ) ) ;
#581 = EDGE_LOOP ( 'NONE', ( #165, #19, #294 ) ) ;
#582 = CARTESIAN_POINT ( 'NONE',  ( -0.2243700767916259053, 3.045886356309201570, -0.1708300674639781080 ) ) ;
#583 = CARTESIAN_POINT ( 'NONE',  ( 0.000000000000000000, 0.000000000000000000, -2.399999999999999911 ) ) ;
#584 = EDGE_CURVE ( 'NONE', #355, #3, #358, .T. ) ;
#585 = CARTESIAN_POINT ( 'NONE',  ( 0.000000000000000000, 0.000000000000000000, -2.399999999999999911 ) ) ;
#586 = ORIENTED_EDGE ( 'NONE', *, *, #854, .F. ) ;
#587 = DIRECTION ( 'NONE',  ( -1.000000000000000000, 0.000000000000000000, 0.000000000000000000 ) ) ;
#588 = CARTESIAN_POINT ( 'NONE',  ( 0.000000000000000000, 0.000000000000000000, -25.03750572909317285 ) ) ;
#589 = ADVANCED_FACE ( 'NONE', ( #368, #977 ), #196, .F. ) ;
#590 = DIRECTION ( 'NONE',  ( -0.000000000000000000, -0.000000000000000000, -1.000000000000000000 ) ) ;
#591 = ORIENTED_EDGE ( 'NONE', *, *, #293, .F. ) ;
#592 = VERTEX_POINT ( 'NONE', #362 ) ;
#593 = DIRECTION ( 'NONE',  ( -0.000000000000000000, -0.000000000000000000, -1.000000000000000000 ) ) ;
#594 = CONICAL_SURFACE ( 'NONE', #644, 2.750000000000000888, 1.047197551196596299 ) ;
#595 = CARTESIAN_POINT ( 'NONE',  ( 2.750000000000000000, 1.587713240271467985, -2.399999999999999911 ) ) ;
#596 = CIRCLE ( 'NONE', #745, 1.500000000000000000 ) ;
#597 = ORIENTED_EDGE ( 'NONE', *, *, #618, .T. ) ;
#598 = CARTESIAN_POINT ( 'NONE',  ( 1.500000000000000444, 0.000000000000000000, -2.374600000000000932 ) ) ;
#599 = EDGE_CURVE ( 'NONE', #634, #31, #286, .T. ) ;
#600 = FACE_OUTER_BOUND ( 'NONE', #845, .T. ) ;
#601 = CARTESIAN_POINT ( 'NONE',  ( -1.843520544858952004, 2.111069397712019402, 2.196477197000966452E-15 ) ) ;
#602 = ORIENTED_EDGE ( 'NONE', *, *, #113, .F. ) ;
#603 = CONICAL_SURFACE ( 'NONE', #806, 2.750000000000000888, 1.047197551196596299 ) ;
#604 = CARTESIAN_POINT ( 'NONE',  ( 2.750000000000000444, -1.065007702645624388, -0.1085530452847070088 ) ) ;
#605 = CARTESIAN_POINT ( 'NONE',  ( 2.300137710042384320, -1.847441354476767827, -0.09566599640799679227 ) ) ;
#606 = DIRECTION ( 'NONE',  ( 0.000000000000000000, 0.000000000000000000, -1.000000000000000000 ) ) ;
#607 = CONICAL_SURFACE ( 'NONE', #111, 2.750000000000000888, 1.047197551196596299 ) ;
#608 = ORIENTED_EDGE ( 'NONE', *, *, #53, .F. ) ;
#609 = CARTESIAN_POINT ( 'NONE',  ( -1.250000000000000000, 0.000000000000000000, -1.140131884552429531 ) ) ;
#610 = CONICAL_SURFACE ( 'NONE', #207, 2.750000000000000888, 1.047197551196596299 ) ;
#611 = CARTESIAN_POINT ( 'NONE',  ( 1.084202172485504434E-15, 3.175426480542944851, -0.2456200930618644140 ) ) ;
#612 = CARTESIAN_POINT ( 'NONE',  ( 2.750000000000000888, 0.000000000000000000, -2.399999999999999911 ) ) ;
#613 = AXIS2_PLACEMENT_3D ( 'NONE', #390, #459, #157 ) ;
#614 = EDGE_LOOP ( 'NONE', ( #719, #516, #476 ) ) ;
#615 = CARTESIAN_POINT ( 'NONE',  ( -1.250000000000000000, 0.000000000000000000, -2.199548115447571561 ) ) ;
#616 = DIRECTION ( 'NONE',  ( 0.000000000000000000, 0.000000000000000000, -1.000000000000000000 ) ) ;
#617 = DIRECTION ( 'NONE',  ( -1.000000000000000000, 0.000000000000000000, 0.000000000000000000 ) ) ;
#618 = EDGE_CURVE ( 'NONE', #947, #746, #141, .T. ) ;
#619 = EDGE_LOOP ( 'NONE', ( #797 ) ) ;
#620 = CARTESIAN_POINT ( 'NONE',  ( -1.500000000000000000, 0.000000000000000000, -1.434919999999999973 ) ) ;
#621 = CARTESIAN_POINT ( 'NONE',  ( -2.525629923208374095, -1.717253364505217705, -0.1708300674639785521 ) ) ;
#622 = DIRECTION ( 'NONE',  ( 1.000000000000000000, 0.000000000000000000, 0.000000000000000000 ) ) ;
#623 = EDGE_LOOP ( 'NONE', ( #160 ) ) ;
#624 = CARTESIAN_POINT ( 'NONE',  ( -1.250000000000000000, 0.000000000000000000, -1.609971884552429566 ) ) ;
#625 = B_SPLINE_CURVE_WITH_KNOTS ( 'NONE', 3,
 ( #454, #237, #15, #930, #621, #20 ),
 .UNSPECIFIED., .F., .F.,
 ( 4, 2, 4 ),
 ( 0.001606744326298697708, 0.002406996759593254404, 0.003207249192887811750 ),
 .UNSPECIFIED. ) ;
#626 = CARTESIAN_POINT ( 'NONE',  ( 0.000000000000000000, 0.000000000000000000, 0.000000000000000000 ) ) ;
#627 = CARTESIAN_POINT ( 'NONE',  ( -2.750000000000000444, 0.5405639250603698764, -2.376300309131048838 ) ) ;
#628 = EDGE_LOOP ( 'NONE', ( #896 ) ) ;
#629 = VERTEX_POINT ( 'NONE', #471 ) ;
#630 = CIRCLE ( 'NONE', #100, 1.500000000000000000 ) ;
#631 = ADVANCED_FACE ( 'NONE', ( #145, #276 ), #548, .F. ) ;
#632 = CARTESIAN_POINT ( 'NONE',  ( -2.750000000000000444, 0.2684568315541762673, 4.669269121739330619E-16 ) ) ;
#633 = CARTESIAN_POINT ( 'NONE',  ( 0.000000000000000000, 0.000000000000000000, 0.000000000000000000 ) ) ;
#634 = VERTEX_POINT ( 'NONE', #893 ) ;
#635 = B_SPLINE_CURVE_WITH_KNOTS ( 'NONE', 3,
 ( #57, #300, #604, #77, #671, #446 ),
 .UNSPECIFIED., .F., .F.,
 ( 4, 2, 4 ),
 ( 0.002832689070575955016, 0.003635789392948012618, 0.004438889715320070220 ),
 .UNSPECIFIED. ) ;
#636 = CARTESIAN_POINT ( 'NONE',  ( 1.084202172485504434E-15, 3.175426480542944851, -0.2456200930618644140 ) ) ;
#637 = B_SPLINE_CURVE_WITH_KNOTS ( 'NONE', 3,
 ( #439, #832, #503, #125 ),
 .UNSPECIFIED., .F., .F.,
 ( 4, 4 ),
 ( 2.380742992396487199E-07, 0.001606744326298693588 ),
 .UNSPECIFIED. ) ;
#638 = CARTESIAN_POINT ( 'NONE',  ( -1.375000000000003553, 2.381569860407205308, -2.399999999999999911 ) ) ;
#639 = ORIENTED_EDGE ( 'NONE', *, *, #789, .F. ) ;
#640 = EDGE_LOOP ( 'NONE', ( #833 ) ) ;
#641 = DIRECTION ( 'NONE',  ( 0.000000000000000000, 0.000000000000000000, 1.000000000000000000 ) ) ;
#642 = DIRECTION ( 'NONE',  ( 1.000000000000000000, 0.000000000000000000, 0.000000000000000000 ) ) ;
#643 = EDGE_LOOP ( 'NONE', ( #810 ) ) ;
#644 = AXIS2_PLACEMENT_3D ( 'NONE', #80, #475, #386 ) ;
#645 = LINE ( 'NONE', #30, #415 ) ;
#646 = ADVANCED_FACE ( 'NONE', ( #282 ), #400, .T. ) ;
#647 = DIRECTION ( 'NONE',  ( -1.000000000000000000, 0.000000000000000000, 0.000000000000000000 ) ) ;
#648 = B_SPLINE_CURVE_WITH_KNOTS ( 'NONE', 3,
 ( #580, #884, #866, #338 ),
 .UNSPECIFIED., .F., .F.,
 ( 4, 4 ),
 ( 2.380742992552010653E-07, 0.001606744326298697925 ),
 .UNSPECIFIED. ) ;
#649 = EDGE_LOOP ( 'NONE', ( #266 ) ) ;
#650 = VECTOR ( 'NONE', #65, 1000.000000000000000 ) ;
#651 = DIRECTION ( 'NONE',  ( -0.000000000000000000, -0.000000000000000000, -1.000000000000000000 ) ) ;
#652 = DIRECTION ( 'NONE',  ( -0.000000000000000000, -0.000000000000000000, -1.000000000000000000 ) ) ;
#653 = EDGE_CURVE ( 'NONE', #413, #355, #353, .T. ) ;
#654 = EDGE_LOOP ( 'NONE', ( #490 ) ) ;
#655 = CARTESIAN_POINT ( 'NONE',  ( -1.375000000000003553, 2.381569860407205308, 0.000000000000000000 ) ) ;
#656 = CARTESIAN_POINT ( 'NONE',  ( -1.409462824231155764E-14, -3.175426480542944851, -2.154379906938135303 ) ) ;
#657 = PLANE ( 'NONE',  #825 ) ;
#658 = EDGE_LOOP ( 'NONE', ( #387 ) ) ;
#659 = CARTESIAN_POINT ( 'NONE',  ( -2.749999999999999556, -1.329484544808470226, -2.228924110357173749 ) ) ;
#660 = EDGE_CURVE ( 'NONE', #457, #457, #630, .T. ) ;
#661 = AXIS2_PLACEMENT_3D ( 'NONE', #730, #414, #45 ) ;
#662 = DIRECTION ( 'NONE',  ( -1.000000000000000000, 0.000000000000000000, 0.000000000000000000 ) ) ;
#663 = FACE_BOUND ( 'NONE', #143, .T. ) ;
#664 = ORIENTED_EDGE ( 'NONE', *, *, #370, .T. ) ;
#665 = DIRECTION ( 'NONE',  ( -1.000000000000000000, 0.000000000000000000, 0.000000000000000000 ) ) ;
#666 = ADVANCED_FACE ( 'NONE', ( #88 ), #375, .T. ) ;
#667 = DIRECTION ( 'NONE',  ( -0.000000000000000000, -0.000000000000000000, -1.000000000000000000 ) ) ;
#668 = AXIS2_PLACEMENT_3D ( 'NONE', #371, #142, #2 ) ;
#669 = LINE ( 'NONE', #912, #650 ) ;
#670 = ORIENTED_EDGE ( 'NONE', *, *, #555, .T. ) ;
#671 = CARTESIAN_POINT ( 'NONE',  ( 2.750000000000000000, -0.2682974265912534406, 5.099138342470888041E-16 ) ) ;
#672 = CARTESIAN_POINT ( 'NONE',  ( 1.375000000000003775, 2.381569860407204864, 0.000000000000000000 ) ) ;
#673 = AXIS2_PLACEMENT_3D ( 'NONE', #118, #886, #171 ) ;
#674 = CARTESIAN_POINT ( 'NONE',  ( -5.499999999999992895, -3.035766082959412415E-15, -2.399999999999999911 ) ) ;
#675 = EDGE_CURVE ( 'NONE', #413, #366, #52, .T. ) ;
#676 = ORIENTED_EDGE ( 'NONE', *, *, #741, .T. ) ;
#677 = CARTESIAN_POINT ( 'NONE',  ( 2.750000000000000444, 0.5405639250603699875, -0.02369969086895131957 ) ) ;
#678 = CARTESIAN_POINT ( 'NONE',  ( 1.141614847838146041, -2.516314840832722499, -1.701900949270702365E-15 ) ) ;
#679 = AXIS2_PLACEMENT_3D ( 'NONE', #35, #556, #177 ) ;
#680 = CARTESIAN_POINT ( 'NONE',  ( 0.000000000000000000, 0.000000000000000000, -2.199548115447571561 ) ) ;
#681 = EDGE_CURVE ( 'NONE', #822, #822, #596, .T. ) ;
#682 = ORIENTED_EDGE ( 'NONE', *, *, #306, .T. ) ;
#683 = CARTESIAN_POINT ( 'NONE',  ( 2.750000000000000000, 1.330988860919483541, -0.1715101482986575721 ) ) ;
#684 = CARTESIAN_POINT ( 'NONE',  ( -2.750000000000000000, -0.2682974265912531076, 5.293955920339376133E-16 ) ) ;
#685 = DIRECTION ( 'NONE',  ( -0.000000000000000000, -0.000000000000000000, -1.000000000000000000 ) ) ;
#686 = ORIENTED_EDGE ( 'NONE', *, *, #830, .F. ) ;
#687 = VECTOR ( 'NONE', #889, 1000.000000000000000 ) ;
#688 = FACE_BOUND ( 'NONE', #235, .T. ) ;
#689 = DIRECTION ( 'NONE',  ( -0.000000000000000000, -0.000000000000000000, -1.000000000000000000 ) ) ;
#690 = CIRCLE ( 'NONE', #892, 1.250000000000000222 ) ;
#691 = ORIENTED_EDGE ( 'NONE', *, *, #929, .F. ) ;
#692 = CARTESIAN_POINT ( 'NONE',  ( -2.750000000000000000, 1.587713240271475978, -2.154379906938135303 ) ) ;
#693 = EDGE_CURVE ( 'NONE', #751, #751, #103, .T. ) ;
#694 = CARTESIAN_POINT ( 'NONE',  ( 0.000000000000000000, 0.000000000000000000, -0.9650799999999999379 ) ) ;
#695 = CARTESIAN_POINT ( 'NONE',  ( 0.000000000000000000, 0.000000000000000000, 0.000000000000000000 ) ) ;
#696 = CIRCLE ( 'NONE', #679, 2.750000000000000444 ) ;
#697 = ORIENTED_EDGE ( 'NONE', *, *, #584, .F. ) ;
#698 = CARTESIAN_POINT ( 'NONE',  ( -2.750000000000000000, -1.587713240271475978, -2.154379906938135303 ) ) ;
#699 = EDGE_CURVE ( 'NONE', #763, #542, #108, .T. ) ;
#700 = CARTESIAN_POINT ( 'NONE',  ( 1.843520544858953558, -2.111069397712025619, -2.399999999999998135 ) ) ;
#701 = ORIENTED_EDGE ( 'NONE', *, *, #509, .T. ) ;
#702 = AXIS2_PLACEMENT_3D ( 'NONE', #273, #408, #715 ) ;
#703 = DIRECTION ( 'NONE',  ( -1.000000000000000000, 0.000000000000000000, 0.000000000000000000 ) ) ;
#704 = CARTESIAN_POINT ( 'NONE',  ( 2.750000000000000000, 1.587713240271475978, -2.154379906938135303 ) ) ;
#705 = EDGE_CURVE ( 'NONE', #388, #388, #537, .T. ) ;
#706 = VERTEX_POINT ( 'NONE', #850 ) ;
#707 = CARTESIAN_POINT ( 'NONE',  ( 0.000000000000000000, 0.000000000000000000, 0.000000000000000000 ) ) ;
#708 = PRODUCT_DEFINITION_CONTEXT ( 'detailed design', #448, 'design' ) ;
#709 = CARTESIAN_POINT ( 'NONE',  ( 0.000000000000000000, 0.000000000000000000, 0.000000000000000000 ) ) ;
#710 = CARTESIAN_POINT ( 'NONE',  ( 0.000000000000000000, 0.000000000000000000, -0.4952399999999999580 ) ) ;
#711 = EDGE_LOOP ( 'NONE', ( #557 ) ) ;
#712 = CONICAL_SURFACE ( 'NONE', #85, 1.250000000000000000, 0.9599310885968755924 ) ;
#713 = DIRECTION ( 'NONE',  ( -1.000000000000000000, 0.000000000000000000, 0.000000000000000000 ) ) ;
#714 = CARTESIAN_POINT ( 'NONE',  ( 0.000000000000000000, 0.000000000000000000, -2.399999999999999911 ) ) ;
#715 = DIRECTION ( 'NONE',  ( 0.000000000000000000, 0.000000000000000000, 1.000000000000000000 ) ) ;
#716 = DIRECTION ( 'NONE',  ( 1.000000000000000000, 0.000000000000000000, 0.000000000000000000 ) ) ;
#717 = FACE_OUTER_BOUND ( 'NONE', #551, .T. ) ;
#718 = DIRECTION ( 'NONE',  ( 0.000000000000000000, 0.000000000000000000, 1.000000000000000000 ) ) ;
#719 = ORIENTED_EDGE ( 'NONE', *, *, #870, .F. ) ;
#720 = ADVANCED_FACE ( 'NONE', ( #535 ), #79, .T. ) ;
#721 = PLANE ( 'NONE',  #212 ) ;
#722 = FACE_BOUND ( 'NONE', #640, .T. ) ;
#723 = ORIENTED_EDGE ( 'NONE', *, *, #140, .T. ) ;
#724 = CARTESIAN_POINT ( 'NONE',  ( 0.000000000000000000, 0.000000000000000000, -2.374600000000000932 ) ) ;
#725 = EDGE_CURVE ( 'NONE', #494, #706, #346, .T. ) ;
#726 = FACE_OUTER_BOUND ( 'NONE', #137, .T. ) ;
#727 = ORIENTED_EDGE ( 'NONE', *, *, #693, .T. ) ;
#728 = DIRECTION ( 'NONE',  ( -0.5000000000000012212, 0.8660254037844380415, 0.000000000000000000 ) ) ;
#729 = AXIS2_PLACEMENT_3D ( 'NONE', #49, #685, #962 ) ;
#730 = CARTESIAN_POINT ( 'NONE',  ( 0.000000000000000000, 0.000000000000000000, -1.729708115447576411 ) ) ;
#731 = PLANE ( 'NONE',  #702 ) ;
#732 = EDGE_CURVE ( 'NONE', #31, #23, #267, .T. ) ;
#733 = ORIENTED_EDGE ( 'NONE', *, *, #599, .T. ) ;
#734 = CARTESIAN_POINT ( 'NONE',  ( 0.000000000000000000, 0.000000000000000000, 0.000000000000000000 ) ) ;
#735 = CIRCLE ( 'NONE', #243, 1.250000000000000000 ) ;
#736 = FACE_BOUND ( 'NONE', #759, .T. ) ;
#737 = FACE_OUTER_BOUND ( 'NONE', #538, .T. ) ;
#738 = CIRCLE ( 'NONE', #673, 2.750000000000000444 ) ;
#739 = VERTEX_POINT ( 'NONE', #835 ) ;
#740 = CARTESIAN_POINT ( 'NONE',  ( -0.9085346626517036839, 2.650883748492875558, -0.02351960456805975846 ) ) ;
#741 = EDGE_CURVE ( 'NONE', #980, #494, #625, .T. ) ;
#742 = CONICAL_SURFACE ( 'NONE', #852, 2.750000000000000888, 1.047197551196596299 ) ;
#743 = CARTESIAN_POINT ( 'NONE',  ( -1.375000000000003775, -2.381569860407204864, -2.399999999999999911 ) ) ;
#744 = PLANE ( 'NONE',  #270 ) ;
#745 = AXIS2_PLACEMENT_3D ( 'NONE', #549, #689, #149 ) ;
#746 = VERTEX_POINT ( 'NONE', #983 ) ;
#747 = DIRECTION ( 'NONE',  ( -0.000000000000000000, -0.000000000000000000, -1.000000000000000000 ) ) ;
#748 = FACE_OUTER_BOUND ( 'NONE', #581, .T. ) ;
#749 = PLANE ( 'NONE',  #342 ) ;
#750 = ORIENTED_EDGE ( 'NONE', *, *, #725, .F. ) ;
#751 = VERTEX_POINT ( 'NONE', #218 ) ;
#752 = CARTESIAN_POINT ( 'NONE',  ( 0.9085346626517036839, -2.650883748492883552, -0.02351960456806391486 ) ) ;
#753 = EDGE_CURVE ( 'NONE', #634, #413, #526, .T. ) ;
#754 = CARTESIAN_POINT ( 'NONE',  ( -2.750000000000000000, 1.587713240271468651, -0.2456200930618620826 ) ) ;
#755 = ORIENTED_EDGE ( 'NONE', *, *, #167, .F. ) ;
#756 = FACE_OUTER_BOUND ( 'NONE', #34, .T. ) ;
#757 = CARTESIAN_POINT ( 'NONE',  ( 0.000000000000000000, 0.000000000000000000, -2.399999999999999911 ) ) ;
#758 = FACE_OUTER_BOUND ( 'NONE', #131, .T. ) ;
#759 = EDGE_LOOP ( 'NONE', ( #827 ) ) ;
#760 = DIRECTION ( 'NONE',  ( 1.000000000000000000, 0.000000000000000000, 0.000000000000000000 ) ) ;
#761 = DIRECTION ( 'NONE',  ( -1.000000000000000000, 0.000000000000000000, 0.000000000000000000 ) ) ;
#762 = CARTESIAN_POINT ( 'NONE',  ( 0.000000000000000000, 0.000000000000000000, -0.02540000000000001978 ) ) ;
#763 = VERTEX_POINT ( 'NONE', #611 ) ;
#764 = VERTEX_POINT ( 'NONE', #609 ) ;
#765 = EDGE_CURVE ( 'NONE', #377, #763, #916, .T. ) ;
#766 = DIRECTION ( 'NONE',  ( -1.000000000000000000, 0.000000000000000000, 0.000000000000000000 ) ) ;
#767 = FACE_OUTER_BOUND ( 'NONE', #461, .T. ) ;
#768 = VERTEX_POINT ( 'NONE', #698 ) ;
#769 = CARTESIAN_POINT ( 'NONE',  ( -1.250000000000000222, 0.000000000000000000, -0.7900281154475763401 ) ) ;
#770 = EDGE_CURVE ( 'NONE', #24, #24, #512, .T. ) ;
#771 = DIRECTION ( 'NONE',  ( -0.000000000000000000, -0.000000000000000000, 1.000000000000000000 ) ) ;
#772 = CARTESIAN_POINT ( 'NONE',  ( -2.749999999999999556, 0.2684568315541776551, -2.400000000000000355 ) ) ;
#773 = ORIENTED_EDGE ( 'NONE', *, *, #437, .F. ) ;
#774 = CARTESIAN_POINT ( 'NONE',  ( -1.409462824231155764E-14, -3.175426480542944851, -0.2456200930618644140 ) ) ;
#775 = EDGE_CURVE ( 'NONE', #409, #980, #563, .T. ) ;
#776 = DIRECTION ( 'NONE',  ( 0.000000000000000000, 0.000000000000000000, 1.000000000000000000 ) ) ;
#777 = B_SPLINE_CURVE_WITH_KNOTS ( 'NONE', 3,
 ( #545, #206, #257, #511, #577, #401 ),
 .UNSPECIFIED., .F., .F.,
 ( 4, 2, 4 ),
 ( 0.001606744326298685348, 0.002406996759593249199, 0.003207249192887813051 ),
 .UNSPECIFIED. ) ;
#778 = ORIENTED_EDGE ( 'NONE', *, *, #903, .F. ) ;
#779 = DIRECTION ( 'NONE',  ( -1.000000000000000000, 0.000000000000000000, 0.000000000000000000 ) ) ;
#780 = CARTESIAN_POINT ( 'NONE',  ( 0.000000000000000000, 0.000000000000000000, -2.399999999999999911 ) ) ;
#781 = EDGE_LOOP ( 'NONE', ( #733, #110, #489, #933, #697, #591 ) ) ;
#782 = DIRECTION ( 'NONE',  ( 1.000000000000000000, 0.000000000000000000, 0.000000000000000000 ) ) ;
#783 = DIRECTION ( 'NONE',  ( 0.000000000000000000, 0.000000000000000000, 1.000000000000000000 ) ) ;
#784 = DIRECTION ( 'NONE',  ( 1.000000000000000000, 0.000000000000000000, 0.000000000000000000 ) ) ;
#785 = AXIS2_PLACEMENT_3D ( 'NONE', #363, #129, #447 ) ;
#786 = DIRECTION ( 'NONE',  ( 0.000000000000000000, 0.000000000000000000, 1.000000000000000000 ) ) ;
#787 = FACE_OUTER_BOUND ( 'NONE', #510, .T. ) ;
#788 = ORIENTED_EDGE ( 'NONE', *, *, #903, .T. ) ;
#789 = EDGE_CURVE ( 'NONE', #314, #377, #777, .T. ) ;
#790 = CONICAL_SURFACE ( 'NONE', #938, 1.500000000000000000, 0.9599310885968911355 ) ;
#791 = DIRECTION ( 'NONE',  ( -0.000000000000000000, -0.000000000000000000, -1.000000000000000000 ) ) ;
#792 = CARTESIAN_POINT ( 'NONE',  ( 0.000000000000000000, 0.000000000000000000, -0.2004518845524295989 ) ) ;
#793 = ORIENTED_EDGE ( 'NONE', *, *, #36, .F. ) ;
#794 = CIRCLE ( 'NONE', #228, 1.250000000000000222 ) ;
#795 = CYLINDRICAL_SURFACE ( 'NONE', #579, 1.250000000000000000 ) ;
#796 = CARTESIAN_POINT ( 'NONE',  ( 2.750000000000000000, 1.587713240271467985, -2.399999999999999911 ) ) ;
#797 = ORIENTED_EDGE ( 'NONE', *, *, #895, .T. ) ;
#798 = CARTESIAN_POINT ( 'NONE',  ( 1.608385152161860399, 2.246824879981694334, 2.168404344971009657E-15 ) ) ;
#799 = CIRCLE ( 'NONE', #482, 2.750000000000000444 ) ;
#800 = CARTESIAN_POINT ( 'NONE',  ( 2.299387885565522982, 1.847874265840320218, -2.290910569535892449 ) ) ;
#801 = ADVANCED_FACE ( 'NONE', ( #325 ), #607, .T. ) ;
#802 = FACE_OUTER_BOUND ( 'NONE', #564, .T. ) ;
#803 = ORIENTED_EDGE ( 'NONE', *, *, #653, .F. ) ;
#804 = PLANE ( 'NONE',  #226 ) ;
#805 = CONICAL_SURFACE ( 'NONE', #200, 1.250000000000000000, 0.9599310885968755924 ) ;
#806 = AXIS2_PLACEMENT_3D ( 'NONE', #515, #204, #508 ) ;
#807 = DIRECTION ( 'NONE',  ( 0.000000000000000000, 0.000000000000000000, 1.000000000000000000 ) ) ;
#808 = EDGE_CURVE ( 'NONE', #934, #934, #479, .T. ) ;
#809 = DIRECTION ( 'NONE',  ( -0.000000000000000000, -0.000000000000000000, 1.000000000000000000 ) ) ;
#810 = ORIENTED_EDGE ( 'NONE', *, *, #543, .T. ) ;
#811 = CARTESIAN_POINT ( 'NONE',  ( -0.9064794551410590984, -2.652070323102394322, -1.719179729087771220E-15 ) ) ;
#812 = AXIS2_PLACEMENT_3D ( 'NONE', #313, #463, #779 ) ;
#813 = CARTESIAN_POINT ( 'NONE',  ( -2.750000000000000000, -1.587713240271475978, -2.154379906938135303 ) ) ;
#814 = FACE_OUTER_BOUND ( 'NONE', #50, .T. ) ;
#815 = VECTOR ( 'NONE', #540, 1000.000000000000000 ) ;
#816 = ORIENTED_EDGE ( 'NONE', *, *, #480, .F. ) ;
#817 = DIRECTION ( 'NONE',  ( 1.000000000000000000, 0.000000000000000000, 0.000000000000000000 ) ) ;
#818 = AXIS2_PLACEMENT_3D ( 'NONE', #40, #651, #953 ) ;
#819 = DIRECTION ( 'NONE',  ( -0.000000000000000000, -0.000000000000000000, -1.000000000000000000 ) ) ;
#820 = FACE_OUTER_BOUND ( 'NONE', #781, .T. ) ;
#821 = ORIENTED_EDGE ( 'NONE', *, *, #467, .T. ) ;
#822 = VERTEX_POINT ( 'NONE', #442 ) ;
#823 = EDGE_CURVE ( 'NONE', #706, #746, #369, .T. ) ;
#824 = DIRECTION ( 'NONE',  ( -0.000000000000000000, -0.000000000000000000, 1.000000000000000000 ) ) ;
#825 = AXIS2_PLACEMENT_3D ( 'NONE', #796, #874, #42 ) ;
#826 = FACE_OUTER_BOUND ( 'NONE', #434, .T. ) ;
#827 = ORIENTED_EDGE ( 'NONE', *, *, #808, .T. ) ;
#828 = CARTESIAN_POINT ( 'NONE',  ( 1.500000000000000444, 0.000000000000000000, -2.399999999999999467 ) ) ;
#829 = B_SPLINE_CURVE_WITH_KNOTS ( 'NONE', 3,
 ( #148, #305, #677, #522, #683, #311 ),
 .UNSPECIFIED., .F., .F.,
 ( 4, 2, 4 ),
 ( 0.004438889715320070220, 0.005242467187915811171, 0.006046044660511552121 ),
 .UNSPECIFIED. ) ;
#830 = EDGE_CURVE ( 'NONE', #768, #739, #500, .T. ) ;
#831 = CARTESIAN_POINT ( 'NONE',  ( 1.141614847838145597, -2.516314840832722499, -2.399999999999998135 ) ) ;
#832 = CARTESIAN_POINT ( 'NONE',  ( 0.4498622899576193435, 2.915698366337650782, -2.304334003592005686 ) ) ;
#833 = ORIENTED_EDGE ( 'NONE', *, *, #705, .T. ) ;
#834 = CARTESIAN_POINT ( 'NONE',  ( 0.000000000000000000, 0.000000000000000000, -1.904760000000000009 ) ) ;
#835 = CARTESIAN_POINT ( 'NONE',  ( -2.750000000000000000, 0.000000000000000000, -2.399999999999999911 ) ) ;
#836 = CIRCLE ( 'NONE', #785, 1.250000000000000000 ) ;
#837 = AXIS2_PLACEMENT_3D ( 'NONE', #714, #867, #99 ) ;
#838 = CARTESIAN_POINT ( 'NONE',  ( -1.375000000000003553, 2.381569860407205308, -2.399999999999999911 ) ) ;
#839 = ADVANCED_FACE ( 'NONE', ( #430 ), #804, .T. ) ;
#840 = ORIENTED_EDGE ( 'NONE', *, *, #765, .T. ) ;
#841 = CARTESIAN_POINT ( 'NONE',  ( -1.250000000000000000, 0.000000000000000000, -2.079811884552429380 ) ) ;
#842 = DIRECTION ( 'NONE',  ( 1.000000000000000000, 0.000000000000000000, 0.000000000000000000 ) ) ;
#843 = CONICAL_SURFACE ( 'NONE', #552, 1.250000000000000000, 0.9599310885968755924 ) ;
#844 = FACE_OUTER_BOUND ( 'NONE', #445, .T. ) ;
#845 = EDGE_LOOP ( 'NONE', ( #181 ) ) ;
#846 = CARTESIAN_POINT ( 'NONE',  ( 1.375000000000003775, 2.381569860407204864, 0.000000000000000000 ) ) ;
#847 = CARTESIAN_POINT ( 'NONE',  ( 2.300137710042384320, -1.847441354476768050, -2.304334003592003022 ) ) ;
#848 = EDGE_LOOP ( 'NONE', ( #175, #205, #470, #927, #670, #974 ) ) ;
#849 = EDGE_CURVE ( 'NONE', #949, #763, #453, .T. ) ;
#850 = CARTESIAN_POINT ( 'NONE',  ( -2.750000000000000888, 0.000000000000000000, 0.000000000000000000 ) ) ;
#851 =( NAMED_UNIT ( * ) PLANE_ANGLE_UNIT ( ) SI_UNIT ( $, .RADIAN. ) );
#852 = AXIS2_PLACEMENT_3D ( 'NONE', #427, #431, #961 ) ;
#853 = ORIENTED_EDGE ( 'NONE', *, *, #523, .F. ) ;
#854 = EDGE_CURVE ( 'NONE', #706, #980, #128, .T. ) ;
#855 = DIRECTION ( 'NONE',  ( 0.000000000000000000, 0.000000000000000000, 1.000000000000000000 ) ) ;
#856 = CARTESIAN_POINT ( 'NONE',  ( -2.750000000000000000, 1.330988860919483541, -2.228489851701342062 ) ) ;
#857 = EDGE_LOOP ( 'NONE', ( #816, #484, #210 ) ) ;
#858 = AXIS2_PLACEMENT_3D ( 'NONE', #449, #606, #287 ) ;
#859 = DIRECTION ( 'NONE',  ( 0.000000000000000000, 0.000000000000000000, -1.000000000000000000 ) ) ;
#860 = CARTESIAN_POINT ( 'NONE',  ( 1.375000000000003775, 2.381569860407204864, -2.399999999999999911 ) ) ;
#861 = ORIENTED_EDGE ( 'NONE', *, *, #823, .T. ) ;
#862 = AXIS2_PLACEMENT_3D ( 'NONE', #506, #127, #281 ) ;
#863 = AXIS2_PLACEMENT_3D ( 'NONE', #452, #384, #378 ) ;
#864 = FACE_OUTER_BOUND ( 'NONE', #658, .T. ) ;
#865 = ADVANCED_FACE ( 'NONE', ( #25 ), #610, .T. ) ;
#866 = CARTESIAN_POINT ( 'NONE',  ( -0.9064794551410589873, -2.652070323102394322, -2.399999999999998135 ) ) ;
#867 = DIRECTION ( 'NONE',  ( -0.000000000000000000, -0.000000000000000000, -1.000000000000000000 ) ) ;
#868 = EDGE_LOOP ( 'NONE', ( #395 ) ) ;
#869 = AXIS2_PLACEMENT_3D ( 'NONE', #694, #911, #766 ) ;
#870 = EDGE_CURVE ( 'NONE', #980, #23, #738, .T. ) ;
#871 = ORIENTED_EDGE ( 'NONE', *, *, #681, .T. ) ;
#872 = AXIS2_PLACEMENT_3D ( 'NONE', #973, #590, #900 ) ;
#873 = CARTESIAN_POINT ( 'NONE',  ( -1.375000000000003775, -2.381569860407204864, -2.399999999999999911 ) ) ;
#874 = DIRECTION ( 'NONE',  ( 0.5000000000000014433, 0.8660254037844379305, -0.000000000000000000 ) ) ;
#875 = EDGE_LOOP ( 'NONE', ( #322, #486, #861, #963, #398, #686 ) ) ;
#876 = CARTESIAN_POINT ( 'NONE',  ( 0.000000000000000000, 0.000000000000000000, 0.000000000000000000 ) ) ;
#877 = EDGE_CURVE ( 'NONE', #82, #82, #735, .T. ) ;
#878 = DIRECTION ( 'NONE',  ( 0.000000000000000000, 0.000000000000000000, 1.000000000000000000 ) ) ;
#879 = CARTESIAN_POINT ( 'NONE',  ( 2.750000000000000000, -1.587713240271475978, -0.2456200930618644140 ) ) ;
#880 = EDGE_LOOP ( 'NONE', ( #571 ) ) ;
#881 = CARTESIAN_POINT ( 'NONE',  ( 0.000000000000000000, 0.000000000000000000, -0.3201881154475763602 ) ) ;
#882 = AXIS2_PLACEMENT_3D ( 'NONE', #272, #941, #258 ) ;
#883 = DIRECTION ( 'NONE',  ( 0.000000000000000000, 0.000000000000000000, 1.000000000000000000 ) ) ;
#884 = CARTESIAN_POINT ( 'NONE',  ( -0.4498622899576294465, -2.915698366337652558, -2.304334003592003466 ) ) ;
#885 = ORIENTED_EDGE ( 'NONE', *, *, #584, .T. ) ;
#886 = DIRECTION ( 'NONE',  ( 0.000000000000000000, 0.000000000000000000, 1.000000000000000000 ) ) ;
#887 = CIRCLE ( 'NONE', #441, 1.250000000000000222 ) ;
#888 = DIRECTION ( 'NONE',  ( -0.000000000000000000, -0.000000000000000000, 1.000000000000000000 ) ) ;
#889 = DIRECTION ( 'NONE',  ( 0.000000000000000000, 0.000000000000000000, 1.000000000000000000 ) ) ;
#890 = ORIENTED_EDGE ( 'NONE', *, *, #133, .F. ) ;
#891 = FACE_BOUND ( 'NONE', #256, .T. ) ;
#892 = AXIS2_PLACEMENT_3D ( 'NONE', #495, #964, #713 ) ;
#893 = CARTESIAN_POINT ( 'NONE',  ( 2.750000000000000000, -1.587713240271475978, -2.154379906938135303 ) ) ;
#894 = DIRECTION ( 'NONE',  ( -1.000000000000000000, 0.000000000000000000, 0.000000000000000000 ) ) ;
#895 = EDGE_CURVE ( 'NONE', #462, #462, #690, .T. ) ;
#896 = ORIENTED_EDGE ( 'NONE', *, *, #681, .F. ) ;
#897 = VERTEX_POINT ( 'NONE', #841 ) ;
#898 = VECTOR ( 'NONE', #807, 1000.000000000000000 ) ;
#899 = DIRECTION ( 'NONE',  ( 1.000000000000000000, 0.000000000000000000, 0.000000000000000000 ) ) ;
#900 = DIRECTION ( 'NONE',  ( 1.000000000000000000, 0.000000000000000000, 0.000000000000000000 ) ) ;
#901 = ORIENTED_EDGE ( 'NONE', *, *, #485, .F. ) ;
#902 = DIRECTION ( 'NONE',  ( -1.000000000000000000, 0.000000000000000000, 0.000000000000000000 ) ) ;
#903 = EDGE_CURVE ( 'NONE', #542, #194, #277, .T. ) ;
#904 = CARTESIAN_POINT ( 'NONE',  ( 0.000000000000000000, 0.000000000000000000, -1.609971884552429566 ) ) ;
#905 = AXIS2_PLACEMENT_3D ( 'NONE', #334, #945, #784 ) ;
#906 = COLOUR_RGB ( '',0.7921568627450980005, 0.8196078431372548767, 0.9333333333333333481 ) ;
#907 = DIRECTION ( 'NONE',  ( -0.000000000000000000, -0.000000000000000000, 1.000000000000000000 ) ) ;
#908 = EDGE_LOOP ( 'NONE', ( #723 ) ) ;
#909 = FACE_OUTER_BOUND ( 'NONE', #349, .T. ) ;
#910 = EDGE_CURVE ( 'NONE', #629, #629, #794, .T. ) ;
#911 = DIRECTION ( 'NONE',  ( -0.000000000000000000, -0.000000000000000000, -1.000000000000000000 ) ) ;
#912 = CARTESIAN_POINT ( 'NONE',  ( -2.750000000000000000, -1.587713240271475534, -2.399999999999999911 ) ) ;
#913 = EDGE_LOOP ( 'NONE', ( #284 ) ) ;
#914 = CONICAL_SURFACE ( 'NONE', #158, 1.225000000000000311, 0.9599310885968755924 ) ;
#915 = VERTEX_POINT ( 'NONE', #598 ) ;
#916 = LINE ( 'NONE', #232, #815 ) ;
#917 = ADVANCED_FACE ( 'NONE', ( #891, #224 ), #914, .F. ) ;
#918 = AXIS2_PLACEMENT_3D ( 'NONE', #320, #761, #855 ) ;
#919 = CARTESIAN_POINT ( 'NONE',  ( 2.749999999999999556, 0.2684568315541772665, -2.400000000000000355 ) ) ;
#920 = ORIENTED_EDGE ( 'NONE', *, *, #404, .F. ) ;
#921 = FACE_OUTER_BOUND ( 'NONE', #8, .T. ) ;
#922 = CARTESIAN_POINT ( 'NONE',  ( 2.750000000000000000, -1.587713240271475978, -0.2456200930618644140 ) ) ;
#923 = ORIENTED_EDGE ( 'NONE', *, *, #450, .T. ) ;
#924 = APPLICATION_PROTOCOL_DEFINITION ( 'draft international standard', 'automotive_design', 1998, #191 ) ;
#925 = DIRECTION ( 'NONE',  ( -0.000000000000000000, -0.000000000000000000, -1.000000000000000000 ) ) ;
#926 = DIRECTION ( 'NONE',  ( 0.000000000000000000, 0.000000000000000000, -1.000000000000000000 ) ) ;
#927 = ORIENTED_EDGE ( 'NONE', *, *, #28, .T. ) ;
#928 = SHAPE_DEFINITION_REPRESENTATION ( #382, #419 ) ;
#929 = EDGE_CURVE ( 'NONE', #31, #327, #635, .T. ) ;
#930 = CARTESIAN_POINT ( 'NONE',  ( -2.299387885565525202, -1.847874265840325991, -0.1090894304641096269 ) ) ;
#931 = FACE_OUTER_BOUND ( 'NONE', #429, .T. ) ;
#932 = AXIS2_PLACEMENT_3D ( 'NONE', #352, #667, #662 ) ;
#933 = ORIENTED_EDGE ( 'NONE', *, *, #467, .F. ) ;
#934 = VERTEX_POINT ( 'NONE', #624 ) ;
#935 = DIRECTION ( 'NONE',  ( 0.000000000000000000, 0.000000000000000000, -1.000000000000000000 ) ) ;
#936 = CARTESIAN_POINT ( 'NONE',  ( 2.750000000000000000, 1.587713240271475978, -2.154379906938135303 ) ) ;
#937 = ORIENTED_EDGE ( 'NONE', *, *, #126, .F. ) ;
#938 = AXIS2_PLACEMENT_3D ( 'NONE', #37, #179, #647 ) ;
#939 = CARTESIAN_POINT ( 'NONE',  ( 1.375000000000003775, 2.381569860407204864, 0.000000000000000000 ) ) ;
#940 = ADVANCED_FACE ( 'NONE', ( #981, #921 ), #176, .F. ) ;
#941 = DIRECTION ( 'NONE',  ( 0.000000000000000000, 0.000000000000000000, 1.000000000000000000 ) ) ;
#942 = EDGE_LOOP ( 'NONE', ( #955, #91, #682 ) ) ;
#943 = CARTESIAN_POINT ( 'NONE',  ( -2.300137710042381212, 1.847441354476761832, -2.304334003592006574 ) ) ;
#944 = ADVANCED_FACE ( 'NONE', ( #74, #688 ), #244, .F. ) ;
#945 = DIRECTION ( 'NONE',  ( 0.000000000000000000, 0.000000000000000000, 1.000000000000000000 ) ) ;
#946 = CIRCLE ( 'NONE', #818, 1.250000000000000000 ) ;
#947 = VERTEX_POINT ( 'NONE', #692 ) ;
#948 = CARTESIAN_POINT ( 'NONE',  ( -1.843520544858951116, 2.111069397712019846, -2.400000000000002132 ) ) ;
#949 = VERTEX_POINT ( 'NONE', #9 ) ;
#950 = ADVANCED_FACE ( 'NONE', ( #756 ), #290, .T. ) ;
#951 = ORIENTED_EDGE ( 'NONE', *, *, #317, .T. ) ;
#952 = CONICAL_SURFACE ( 'NONE', #123, 2.750000000000000888, 1.047197551196596299 ) ;
#953 = DIRECTION ( 'NONE',  ( -1.000000000000000000, 0.000000000000000000, 0.000000000000000000 ) ) ;
#954 = FACE_OUTER_BOUND ( 'NONE', #199, .T. ) ;
#955 = ORIENTED_EDGE ( 'NONE', *, *, #474, .T. ) ;
#956 = CARTESIAN_POINT ( 'NONE',  ( 2.750000000000000000, 1.587713240271475978, -0.2456200930618644140 ) ) ;
#957 = CARTESIAN_POINT ( 'NONE',  ( 0.9085346626517039059, -2.650883748492883552, -2.376480395431936010 ) ) ;
#958 = ORIENTED_EDGE ( 'NONE', *, *, #133, .T. ) ;
#959 = ORIENTED_EDGE ( 'NONE', *, *, #929, .T. ) ;
#960 = CARTESIAN_POINT ( 'NONE',  ( -1.375000000000003775, -2.381569860407204864, 0.000000000000000000 ) ) ;
#961 = DIRECTION ( 'NONE',  ( -1.000000000000000000, 0.000000000000000000, 0.000000000000000000 ) ) ;
#962 = DIRECTION ( 'NONE',  ( -1.000000000000000000, 0.000000000000000000, 0.000000000000000000 ) ) ;
#963 = ORIENTED_EDGE ( 'NONE', *, *, #618, .F. ) ;
#964 = DIRECTION ( 'NONE',  ( -0.000000000000000000, -0.000000000000000000, -1.000000000000000000 ) ) ;
#965 = AXIS2_PLACEMENT_3D ( 'NONE', #707, #97, #716 ) ;
#966 = CONICAL_SURFACE ( 'NONE', #220, 2.750000000000000888, 1.047197551196596299 ) ;
#967 = DIRECTION ( 'NONE',  ( 1.000000000000000000, -1.776356839400250465E-15, 0.000000000000000000 ) ) ;
#968 = ADVANCED_FACE ( 'NONE', ( #909, #4 ), #843, .F. ) ;
#969 = CARTESIAN_POINT ( 'NONE',  ( -2.750000000000000000, -1.587713240271475534, -2.399999999999999911 ) ) ;
#970 = EDGE_LOOP ( 'NONE', ( #937 ) ) ;
#971 = CARTESIAN_POINT ( 'NONE',  ( 0.000000000000000000, 0.000000000000000000, -0.1925570730076722747 ) ) ;
#972 = CARTESIAN_POINT ( 'NONE',  ( 0.000000000000000000, 0.000000000000000000, 0.000000000000000000 ) ) ;
#973 = CARTESIAN_POINT ( 'NONE',  ( 0.000000000000000000, 0.000000000000000000, -2.399999999999999467 ) ) ;
#974 = ORIENTED_EDGE ( 'NONE', *, *, #404, .T. ) ;
#975 = CARTESIAN_POINT ( 'NONE',  ( -1.500000000000000000, 0.000000000000000000, -0.02540000000000001978 ) ) ;
#976 = AXIS2_PLACEMENT_3D ( 'NONE', #588, #824, #221 ) ;
#977 = FACE_OUTER_BOUND ( 'NONE', #908, .T. ) ;
#978 = B_SPLINE_CURVE_WITH_KNOTS ( 'NONE', 3,
 ( #59, #678, #752, #291, #513, #124 ),
 .UNSPECIFIED., .F., .F.,
 ( 4, 2, 4 ),
 ( 0.001606744326298681878, 0.002406996759593250500, 0.003207249192887819123 ),
 .UNSPECIFIED. ) ;
#979 = DIRECTION ( 'NONE',  ( -0.5000000000000014433, -0.8660254037844379305, 0.000000000000000000 ) ) ;
#980 = VERTEX_POINT ( 'NONE', #230 ) ;
#981 = FACE_BOUND ( 'NONE', #913, .T. ) ;
#982 = EDGE_CURVE ( 'NONE', #327, #194, #829, .T. ) ;
#983 = CARTESIAN_POINT ( 'NONE',  ( -2.750000000000000000, 1.587713240271468651, -0.2456200930618620826 ) ) ;
ENDSEC;
END-ISO-10303-21;
