ISO-10303-21;
HEADER;
FILE_DESCRIPTION (( 'STEP AP214' ),
    '1' );
FILE_NAME ('ISO 13337 - 6 x 18 - St.STEP',
    '2025-07-30T15:09:17',
    ( '' ),
    ( '' ),
    'SwSTEP 2.0',
    'SolidWorks 2025',
    '' );
FILE_SCHEMA (( 'AUTOMOTIVE_DESIGN' ));
ENDSEC;

DATA;
#1 =( LENGTH_UNIT ( ) NAMED_UNIT ( * ) SI_UNIT ( .MILLI., .METRE. ) );
#2 = ORIENTED_EDGE ( 'NONE', *, *, #246, .T. ) ;
#3 = MECHANICAL_DESIGN_GEOMETRIC_PRESENTATION_REPRESENTATION (  '', ( #64 ), #146 ) ;
#4 = ORIENTED_EDGE ( 'NONE', *, *, #204, .T. ) ;
#5 = EDGE_CURVE ( 'NONE', #6, #102, #154, .T. ) ;
#6 = VERTEX_POINT ( 'NONE', #165 ) ;
#7 = ORIENTED_EDGE ( 'NONE', *, *, #214, .F. ) ;
#8 = ORIENTED_EDGE ( 'NONE', *, *, #72, .T. ) ;
#9 = PRODUCT_DEFINITION ( 'General', '', #160, #158 ) ;
#10 = ORIENTED_EDGE ( 'NONE', *, *, #5, .T. ) ;
#11 = VECTOR ( 'NONE', #128, 1000.000000000000114 ) ;
#12 = LINE ( 'NONE', #168, #176 ) ;
#13 =( NAMED_UNIT ( * ) PLANE_ANGLE_UNIT ( ) SI_UNIT ( $, .RADIAN. ) );
#14 = DIRECTION ( 'NONE',  ( -1.000000000000000000, -0.000000000000000000, -0.000000000000000000 ) ) ;
#15 = CARTESIAN_POINT ( 'NONE',  ( -9.524999999999986144, -0.1765329653876526184, 2.243064000899537724 ) ) ;
#16 = AXIS2_PLACEMENT_3D ( 'NONE', #252, #14, #33 ) ;
#17 = DIRECTION ( 'NONE',  ( 0.000000000000000000, 0.07845909572784560970, 0.9969173337331278528 ) ) ;
#18 = EDGE_CURVE ( 'NONE', #238, #67, #69, .T. ) ;
#19 = DIRECTION ( 'NONE',  ( -0.9659480515032441428, 0.02030019927884464323, 0.2579384882221438247 ) ) ;
#20 = EDGE_CURVE ( 'NONE', #38, #247, #120, .T. ) ;
#21 = CARTESIAN_POINT ( 'NONE',  ( 0.000000000000000000, -0.1765329653876526184, 2.243064000899537724 ) ) ;
#22 =( NAMED_UNIT ( * ) PLANE_ANGLE_UNIT ( ) SI_UNIT ( $, .RADIAN. ) );
#23 = CIRCLE ( 'NONE', #132, 2.812500000000000000 ) ;
#24 = AXIS2_PLACEMENT_3D ( 'NONE', #35, #51, #166 ) ;
#25 = ORIENTED_EDGE ( 'NONE', *, *, #134, .T. ) ;
#26 = ORIENTED_EDGE ( 'NONE', *, *, #99, .T. ) ;
#27 = ORIENTED_EDGE ( 'NONE', *, *, #254, .T. ) ;
#28 = DIRECTION ( 'NONE',  ( 0.000000000000000000, 0.000000000000000000, 1.000000000000000000 ) ) ;
#29 = ORIENTED_EDGE ( 'NONE', *, *, #55, .T. ) ;
#30 = AXIS2_PLACEMENT_3D ( 'NONE', #155, #136, #101 ) ;
#31 = FACE_OUTER_BOUND ( 'NONE', #65, .T. ) ;
#32 = DIRECTION ( 'NONE',  ( -1.000000000000000000, -0.000000000000000000, -0.000000000000000000 ) ) ;
#33 = DIRECTION ( 'NONE',  ( 0.000000000000000000, 0.000000000000000000, 1.000000000000000000 ) ) ;
#34 = CARTESIAN_POINT ( 'NONE',  ( 18.00000000000000355, -0.1765329653876526184, 2.243064000899537724 ) ) ;
#35 = CARTESIAN_POINT ( 'NONE',  ( 0.000000000000000000, 0.000000000000000000, 0.000000000000000000 ) ) ;
#36 = VECTOR ( 'NONE', #144, 1000.000000000000000 ) ;
#37 = DIRECTION ( 'NONE',  ( -1.000000000000000000, -0.000000000000000000, -0.000000000000000000 ) ) ;
#38 = VERTEX_POINT ( 'NONE', #220 ) ;
#39 = APPLICATION_PROTOCOL_DEFINITION ( 'draft international standard', 'automotive_design', 1998, #188 ) ;
#40 = CARTESIAN_POINT ( 'NONE',  ( 18.00000000000000355, 0.2206662067345658007, 2.803830001124422378 ) ) ;
#41 = LINE ( 'NONE', #235, #74 ) ;
#42 = EDGE_LOOP ( 'NONE', ( #71, #10, #84, #87 ) ) ;
#43 = ORIENTED_EDGE ( 'NONE', *, *, #76, .F. ) ;
#44 = CARTESIAN_POINT ( 'NONE',  ( 18.00000000000000355, -0.2206662067345658007, 2.803830001124422378 ) ) ;
#45 = EDGE_CURVE ( 'NONE', #105, #102, #89, .T. ) ;
#46 = VERTEX_POINT ( 'NONE', #201 ) ;
#47 = VECTOR ( 'NONE', #251, 1000.000000000000114 ) ;
#48 = PRESENTATION_LAYER_ASSIGNMENT (  '', '', ( #64 ) ) ;
#49 = VERTEX_POINT ( 'NONE', #44 ) ;
#50 = DIRECTION ( 'NONE',  ( 0.000000000000000000, 0.000000000000000000, 1.000000000000000000 ) ) ;
#51 = DIRECTION ( 'NONE',  ( -1.000000000000000000, -0.000000000000000000, -0.000000000000000000 ) ) ;
#52 = EDGE_CURVE ( 'NONE', #238, #91, #140, .T. ) ;
#53 = FACE_OUTER_BOUND ( 'NONE', #138, .T. ) ;
#54 = CARTESIAN_POINT ( 'NONE',  ( 18.00000000000000355, 0.000000000000000000, 0.000000000000000000 ) ) ;
#55 = EDGE_CURVE ( 'NONE', #46, #38, #12, .T. ) ;
#56 =( NAMED_UNIT ( * ) SI_UNIT ( $, .STERADIAN. ) SOLID_ANGLE_UNIT ( ) );
#57 = LINE ( 'NONE', #133, #228 ) ;
#58 = AXIS2_PLACEMENT_3D ( 'NONE', #167, #226, #253 ) ;
#59 = PRODUCT_CONTEXT ( 'NONE', #222, 'mechanical' ) ;
#60 = DIRECTION ( 'NONE',  ( 0.000000000000000000, 0.000000000000000000, 1.000000000000000000 ) ) ;
#61 = LINE ( 'NONE', #152, #98 ) ;
#62 = CLOSED_SHELL ( 'NONE', ( #172, #159, #190, #66, #182, #179, #122, #107 ) ) ;
#63 = ORIENTED_EDGE ( 'NONE', *, *, #239, .F. ) ;
#64 = STYLED_ITEM ( 'NONE', ( #109 ), #163 ) ;
#65 = EDGE_LOOP ( 'NONE', ( #29, #119, #115, #73, #4, #242 ) ) ;
#66 = ADVANCED_FACE ( 'NONE', ( #94 ), #70, .T. ) ;
#67 = VERTEX_POINT ( 'NONE', #124 ) ;
#68 = AXIS2_PLACEMENT_3D ( 'NONE', #259, #240, #83 ) ;
#69 = LINE ( 'NONE', #75, #36 ) ;
#70 = CONICAL_SURFACE ( 'NONE', #193, 2.812500000000000000, 0.2617135024012084421 ) ;
#71 = ORIENTED_EDGE ( 'NONE', *, *, #82, .T. ) ;
#72 = EDGE_CURVE ( 'NONE', #181, #102, #147, .T. ) ;
#73 = ORIENTED_EDGE ( 'NONE', *, *, #18, .T. ) ;
#74 = VECTOR ( 'NONE', #19, 1000.000000000000114 ) ;
#75 = CARTESIAN_POINT ( 'NONE',  ( -9.524999999999986144, 0.2353772871835369540, 2.990752001199385113 ) ) ;
#76 = EDGE_CURVE ( 'NONE', #181, #137, #255, .T. ) ;
#77 = PLANE ( 'NONE',  #233 ) ;
#78 = CARTESIAN_POINT ( 'NONE',  ( 18.00000000000000355, 0.000000000000000000, 0.000000000000000000 ) ) ;
#79 = DIRECTION ( 'NONE',  ( 1.000000000000000000, 0.000000000000000000, 0.000000000000000000 ) ) ;
#80 = SURFACE_STYLE_USAGE ( .BOTH. , #111 ) ;
#81 = CARTESIAN_POINT ( 'NONE',  ( 0.000000000000000000, 2.812500000000000000, 0.000000000000000000 ) ) ;
#82 = EDGE_CURVE ( 'NONE', #46, #6, #187, .T. ) ;
#83 = DIRECTION ( 'NONE',  ( -0.000000000000000000, 0.000000000000000000, 1.000000000000000000 ) ) ;
#84 = ORIENTED_EDGE ( 'NONE', *, *, #72, .F. ) ;
#85 =( NAMED_UNIT ( * ) SI_UNIT ( $, .STERADIAN. ) SOLID_ANGLE_UNIT ( ) );
#86 = VECTOR ( 'NONE', #203, 1000.000000000000000 ) ;
#87 = ORIENTED_EDGE ( 'NONE', *, *, #139, .F. ) ;
#88 = ORIENTED_EDGE ( 'NONE', *, *, #55, .F. ) ;
#89 = LINE ( 'NONE', #118, #223 ) ;
#90 = ORIENTED_EDGE ( 'NONE', *, *, #214, .T. ) ;
#91 = VERTEX_POINT ( 'NONE', #129 ) ;
#92 = DIRECTION ( 'NONE',  ( -1.000000000000000000, -0.000000000000000000, -0.000000000000000000 ) ) ;
#93 = EDGE_CURVE ( 'NONE', #38, #137, #192, .T. ) ;
#94 = FACE_OUTER_BOUND ( 'NONE', #200, .T. ) ;
#95 = DIRECTION ( 'NONE',  ( 0.000000000000000000, 0.000000000000000000, 1.000000000000000000 ) ) ;
#96 = DIRECTION ( 'NONE',  ( 0.000000000000000000, 0.000000000000000000, -1.000000000000000000 ) ) ;
#97 = DIRECTION ( 'NONE',  ( 1.000000000000000000, 0.000000000000000000, 0.000000000000000000 ) ) ;
#98 = VECTOR ( 'NONE', #113, 999.9999999999998863 ) ;
#99 = EDGE_CURVE ( 'NONE', #247, #49, #23, .T. ) ;
#100 = LINE ( 'NONE', #196, #174 ) ;
#101 = DIRECTION ( 'NONE',  ( 0.000000000000000000, 0.000000000000000000, -1.000000000000000000 ) ) ;
#102 = VERTEX_POINT ( 'NONE', #230 ) ;
#103 = ORIENTED_EDGE ( 'NONE', *, *, #139, .T. ) ;
#104 = CARTESIAN_POINT ( 'NONE',  ( 0.000000000000000000, 0.000000000000000000, 0.000000000000000000 ) ) ;
#105 = VERTEX_POINT ( 'NONE', #209 ) ;
#106 = ORIENTED_EDGE ( 'NONE', *, *, #20, .F. ) ;
#107 = ADVANCED_FACE ( 'NONE', ( #31 ), #108, .T. ) ;
#108 = PLANE ( 'NONE',  #58 ) ;
#109 = PRESENTATION_STYLE_ASSIGNMENT (( #80 ) ) ;
#110 = PLANE ( 'NONE',  #237 ) ;
#111 = SURFACE_SIDE_STYLE ('',( #206 ) ) ;
#112 = FILL_AREA_STYLE ('',( #189 ) ) ;
#113 = DIRECTION ( 'NONE',  ( -0.9659480515032450310, -0.02030019927884442812, -0.2579384882221411601 ) ) ;
#114 = SHAPE_DEFINITION_REPRESENTATION ( #249, #231 ) ;
#115 = ORIENTED_EDGE ( 'NONE', *, *, #239, .T. ) ;
#116 = CARTESIAN_POINT ( 'NONE',  ( 0.000000000000000000, 0.000000000000000000, 0.000000000000000000 ) ) ;
#117 = ORIENTED_EDGE ( 'NONE', *, *, #52, .T. ) ;
#118 = CARTESIAN_POINT ( 'NONE',  ( -10.49999999999998046, 0.000000000000000000, 0.000000000000000000 ) ) ;
#119 = ORIENTED_EDGE ( 'NONE', *, *, #20, .T. ) ;
#120 = LINE ( 'NONE', #141, #47 ) ;
#121 = AXIS2_PLACEMENT_3D ( 'NONE', #104, #221, #248 ) ;
#122 = ADVANCED_FACE ( 'NONE', ( #53 ), #77, .F. ) ;
#123 = DIRECTION ( 'NONE',  ( -0.9659480515032450310, 0.02030019927884442812, -0.2579384882221411601 ) ) ;
#124 = CARTESIAN_POINT ( 'NONE',  ( 0.6999999999999992895, 0.2353772871835368430, 2.990752001199383781 ) ) ;
#125 = CIRCLE ( 'NONE', #205, 3.000000000000000000 ) ;
#126 = FACE_OUTER_BOUND ( 'NONE', #186, .T. ) ;
#127 = DIRECTION ( 'NONE',  ( 0.000000000000000000, 0.07845909572784560970, -0.9969173337331278528 ) ) ;
#128 = DIRECTION ( 'NONE',  ( 0.000000000000000000, -0.07845909572784560970, 0.9969173337331278528 ) ) ;
#129 = CARTESIAN_POINT ( 'NONE',  ( 17.30000000000000426, -0.2353772871835369540, 2.990752001199385113 ) ) ;
#130 = AXIS2_PLACEMENT_3D ( 'NONE', #54, #32, #95 ) ;
#131 = CARTESIAN_POINT ( 'NONE',  ( -9.524999999999986144, 0.000000000000000000, 0.000000000000000000 ) ) ;
#132 = AXIS2_PLACEMENT_3D ( 'NONE', #257, #191, #50 ) ;
#133 = CARTESIAN_POINT ( 'NONE',  ( -9.524999999999986144, -0.2353772871835369540, 2.990752001199385113 ) ) ;
#134 = EDGE_CURVE ( 'NONE', #137, #49, #208, .T. ) ;
#135 = DIRECTION ( 'NONE',  ( -0.9659480515032441428, -0.02030019927884464323, 0.2579384882221438247 ) ) ;
#136 = DIRECTION ( 'NONE',  ( 1.000000000000000000, 0.000000000000000000, 0.000000000000000000 ) ) ;
#137 = VERTEX_POINT ( 'NONE', #34 ) ;
#138 = EDGE_LOOP ( 'NONE', ( #8, #142, #245, #7, #195, #43 ) ) ;
#139 = EDGE_CURVE ( 'NONE', #46, #181, #241, .T. ) ;
#140 = CIRCLE ( 'NONE', #157, 3.000000000000002220 ) ;
#141 = CARTESIAN_POINT ( 'NONE',  ( 18.00000000000000355, 0.000000000000000000, 0.000000000000000000 ) ) ;
#142 = ORIENTED_EDGE ( 'NONE', *, *, #45, .F. ) ;
#143 = ORIENTED_EDGE ( 'NONE', *, *, #93, .F. ) ;
#144 = DIRECTION ( 'NONE',  ( -1.000000000000000000, -0.000000000000000000, -0.000000000000000000 ) ) ;
#145 = DIRECTION ( 'NONE',  ( 0.000000000000000000, -0.9969173337331279638, -0.07845909572784562358 ) ) ;
#146 =( GEOMETRIC_REPRESENTATION_CONTEXT ( 3 ) GLOBAL_UNCERTAINTY_ASSIGNED_CONTEXT ( ( #218 ) ) GLOBAL_UNIT_ASSIGNED_CONTEXT ( ( #149, #13, #56 ) ) REPRESENTATION_CONTEXT ( 'NONE', 'WORKASPACE' ) );
#147 = LINE ( 'NONE', #229, #211 ) ;
#148 = CARTESIAN_POINT ( 'NONE',  ( 18.00000000000000355, 0.000000000000000000, 0.000000000000000000 ) ) ;
#149 =( LENGTH_UNIT ( ) NAMED_UNIT ( * ) SI_UNIT ( .MILLI., .METRE. ) );
#150 = DIRECTION ( 'NONE',  ( 0.000000000000000000, 0.000000000000000000, 1.000000000000000000 ) ) ;
#151 = FACE_OUTER_BOUND ( 'NONE', #213, .T. ) ;
#152 = CARTESIAN_POINT ( 'NONE',  ( -10.49999999999998046, 0.000000000000000000, 0.000000000000000000 ) ) ;
#153 = AXIS2_PLACEMENT_3D ( 'NONE', #116, #197, #97 ) ;
#154 = CIRCLE ( 'NONE', #121, 2.812500000000000000 ) ;
#155 = CARTESIAN_POINT ( 'NONE',  ( 0.6999999999999992895, 0.000000000000000000, 0.000000000000000000 ) ) ;
#156 = ORIENTED_EDGE ( 'NONE', *, *, #5, .F. ) ;
#157 = AXIS2_PLACEMENT_3D ( 'NONE', #224, #199, #28 ) ;
#158 = PRODUCT_DEFINITION_CONTEXT ( 'detailed design', #188, 'design' ) ;
#159 = ADVANCED_FACE ( 'NONE', ( #126 ), #171, .F. ) ;
#160 = PRODUCT_DEFINITION_FORMATION_WITH_SPECIFIED_SOURCE ( 'Symmetric', '', #185, .NOT_KNOWN. ) ;
#161 = ORIENTED_EDGE ( 'NONE', *, *, #204, .F. ) ;
#162 = ORIENTED_EDGE ( 'NONE', *, *, #246, .F. ) ;
#163 = MANIFOLD_SOLID_BREP ( 'Gap', #62 ) ;
#164 = ORIENTED_EDGE ( 'NONE', *, *, #76, .T. ) ;
#165 = CARTESIAN_POINT ( 'NONE',  ( 0.000000000000000000, 0.2206662067345658285, 2.803830001124422822 ) ) ;
#166 = DIRECTION ( 'NONE',  ( 0.000000000000000000, 0.000000000000000000, 1.000000000000000000 ) ) ;
#167 = CARTESIAN_POINT ( 'NONE',  ( 18.00000000000000355, 0.000000000000000000, 0.000000000000000000 ) ) ;
#168 = CARTESIAN_POINT ( 'NONE',  ( -9.524999999999986144, 0.1765329653876526184, 2.243064000899537724 ) ) ;
#169 = DIRECTION ( 'NONE',  ( 0.000000000000000000, -0.07845909572784560970, 0.9969173337331278528 ) ) ;
#170 = COLOUR_RGB ( '',0.7921568627450980005, 0.8196078431372548767, 0.9333333333333333481 ) ;
#171 = CYLINDRICAL_SURFACE ( 'NONE', #16, 2.250000000000000000 ) ;
#172 = ADVANCED_FACE ( 'NONE', ( #215 ), #110, .F. ) ;
#173 = CYLINDRICAL_SURFACE ( 'NONE', #250, 3.000000000000000888 ) ;
#174 = VECTOR ( 'NONE', #135, 1000.000000000000114 ) ;
#175 = DIRECTION ( 'NONE',  ( 1.000000000000000000, 0.000000000000000000, 0.000000000000000000 ) ) ;
#176 = VECTOR ( 'NONE', #79, 1000.000000000000000 ) ;
#177 = CARTESIAN_POINT ( 'NONE',  ( 0.6999999999999992895, 0.000000000000000000, 0.000000000000000000 ) ) ;
#178 = FACE_OUTER_BOUND ( 'NONE', #219, .T. ) ;
#179 = ADVANCED_FACE ( 'NONE', ( #178 ), #217, .T. ) ;
#180 = ORIENTED_EDGE ( 'NONE', *, *, #52, .F. ) ;
#181 = VERTEX_POINT ( 'NONE', #21 ) ;
#182 = ADVANCED_FACE ( 'NONE', ( #151 ), #173, .T. ) ;
#183 = ORIENTED_EDGE ( 'NONE', *, *, #99, .F. ) ;
#184 = ORIENTED_EDGE ( 'NONE', *, *, #45, .T. ) ;
#185 = PRODUCT ( 'ISO 13337 - 6 x 18 - St_ISO 13337 - 6 x 18 - St', 'ISO 13337 - 6 x 18 - St_ISO 13337 - 6 x 18 - St', '', ( #59 ) ) ;
#186 = EDGE_LOOP ( 'NONE', ( #88, #103, #164, #143 ) ) ;
#187 = LINE ( 'NONE', #256, #207 ) ;
#188 = APPLICATION_CONTEXT ( 'automotive_design' ) ;
#189 = FILL_AREA_STYLE_COLOUR ( '', #170 ) ;
#190 = ADVANCED_FACE ( 'NONE', ( #232 ), #212, .F. ) ;
#191 = DIRECTION ( 'NONE',  ( -1.000000000000000000, -0.000000000000000000, -0.000000000000000000 ) ) ;
#192 = CIRCLE ( 'NONE', #130, 2.250000000000000000 ) ;
#193 = AXIS2_PLACEMENT_3D ( 'NONE', #78, #92, #210 ) ;
#194 = CARTESIAN_POINT ( 'NONE',  ( 17.30000000000000426, 0.2353772871835369540, 2.990752001199385113 ) ) ;
#195 = ORIENTED_EDGE ( 'NONE', *, *, #134, .F. ) ;
#196 = CARTESIAN_POINT ( 'NONE',  ( 28.49999999999985789, 0.000000000000000000, 0.000000000000000000 ) ) ;
#197 = DIRECTION ( 'NONE',  ( 0.000000000000000000, 0.000000000000000000, 1.000000000000000000 ) ) ;
#198 = EDGE_LOOP ( 'NONE', ( #106, #202, #25, #183 ) ) ;
#199 = DIRECTION ( 'NONE',  ( -1.000000000000000000, -0.000000000000000000, -0.000000000000000000 ) ) ;
#200 = EDGE_LOOP ( 'NONE', ( #63, #26, #90, #180 ) ) ;
#201 = CARTESIAN_POINT ( 'NONE',  ( 0.000000000000000000, 0.1765329653876526184, 2.243064000899537724 ) ) ;
#202 = ORIENTED_EDGE ( 'NONE', *, *, #93, .T. ) ;
#203 = DIRECTION ( 'NONE',  ( 1.000000000000000000, 0.000000000000000000, 0.000000000000000000 ) ) ;
#204 = EDGE_CURVE ( 'NONE', #67, #6, #61, .T. ) ;
#205 = AXIS2_PLACEMENT_3D ( 'NONE', #177, #37, #60 ) ;
#206 = SURFACE_STYLE_FILL_AREA ( #112 ) ;
#207 = VECTOR ( 'NONE', #17, 1000.000000000000114 ) ;
#208 = LINE ( 'NONE', #227, #11 ) ;
#209 = CARTESIAN_POINT ( 'NONE',  ( 0.6999999999999975131, -0.2353772871835368152, 2.990752001199383336 ) ) ;
#210 = DIRECTION ( 'NONE',  ( 0.000000000000000000, 0.000000000000000000, 1.000000000000000000 ) ) ;
#211 = VECTOR ( 'NONE', #169, 1000.000000000000114 ) ;
#212 = PLANE ( 'NONE',  #68 ) ;
#213 = EDGE_LOOP ( 'NONE', ( #243, #117, #27, #162 ) ) ;
#214 = EDGE_CURVE ( 'NONE', #49, #91, #100, .T. ) ;
#215 = FACE_OUTER_BOUND ( 'NONE', #42, .T. ) ;
#216 = DIRECTION ( 'NONE',  ( -1.000000000000000000, -0.000000000000000000, -0.000000000000000000 ) ) ;
#217 = CONICAL_SURFACE ( 'NONE', #30, 3.000000000000000000, 0.2617135024012055555 ) ;
#218 = UNCERTAINTY_MEASURE_WITH_UNIT (LENGTH_MEASURE( 1.000000000000000082E-05 ), #149, 'distance_accuracy_value', 'NONE');
#219 = EDGE_LOOP ( 'NONE', ( #161, #2, #184, #156 ) ) ;
#220 = CARTESIAN_POINT ( 'NONE',  ( 18.00000000000000355, 0.1765329653876526739, 2.243064000899538168 ) ) ;
#221 = DIRECTION ( 'NONE',  ( -1.000000000000000000, -0.000000000000000000, -0.000000000000000000 ) ) ;
#222 = APPLICATION_CONTEXT ( 'automotive_design' ) ;
#223 = VECTOR ( 'NONE', #123, 999.9999999999998863 ) ;
#224 = CARTESIAN_POINT ( 'NONE',  ( 17.30000000000000426, 0.000000000000000000, 0.000000000000000000 ) ) ;
#225 = PRODUCT_RELATED_PRODUCT_CATEGORY ( 'part', '', ( #185 ) ) ;
#226 = DIRECTION ( 'NONE',  ( 0.000000000000000000, -0.9969173337331279638, 0.07845909572784562358 ) ) ;
#227 = CARTESIAN_POINT ( 'NONE',  ( 18.00000000000000355, 0.000000000000000000, 0.000000000000000000 ) ) ;
#228 = VECTOR ( 'NONE', #258, 1000.000000000000000 ) ;
#229 = CARTESIAN_POINT ( 'NONE',  ( 0.000000000000000000, 0.000000000000000000, 0.000000000000000000 ) ) ;
#230 = CARTESIAN_POINT ( 'NONE',  ( 0.000000000000000000, -0.2206662067345657730, 2.803830001124421933 ) ) ;
#231 = ADVANCED_BREP_SHAPE_REPRESENTATION ( 'ISO 13337 - 6 x 18 - St_ISO 13337 - 6 x 18 - St', ( #163, #153 ), #244 ) ;
#232 = FACE_OUTER_BOUND ( 'NONE', #198, .T. ) ;
#233 = AXIS2_PLACEMENT_3D ( 'NONE', #148, #145, #127 ) ;
#234 = APPLICATION_PROTOCOL_DEFINITION ( 'draft international standard', 'automotive_design', 1998, #222 ) ;
#235 = CARTESIAN_POINT ( 'NONE',  ( 28.49999999999985789, 0.000000000000000000, 0.000000000000000000 ) ) ;
#236 = UNCERTAINTY_MEASURE_WITH_UNIT (LENGTH_MEASURE( 1.000000000000000082E-05 ), #1, 'distance_accuracy_value', 'NONE');
#237 = AXIS2_PLACEMENT_3D ( 'NONE', #81, #175, #96 ) ;
#238 = VERTEX_POINT ( 'NONE', #194 ) ;
#239 = EDGE_CURVE ( 'NONE', #247, #238, #41, .T. ) ;
#240 = DIRECTION ( 'NONE',  ( -1.000000000000000000, 0.000000000000000000, -0.000000000000000000 ) ) ;
#241 = CIRCLE ( 'NONE', #24, 2.250000000000000000 ) ;
#242 = ORIENTED_EDGE ( 'NONE', *, *, #82, .F. ) ;
#243 = ORIENTED_EDGE ( 'NONE', *, *, #18, .F. ) ;
#244 =( GEOMETRIC_REPRESENTATION_CONTEXT ( 3 ) GLOBAL_UNCERTAINTY_ASSIGNED_CONTEXT ( ( #236 ) ) GLOBAL_UNIT_ASSIGNED_CONTEXT ( ( #1, #22, #85 ) ) REPRESENTATION_CONTEXT ( 'NONE', 'WORKASPACE' ) );
#245 = ORIENTED_EDGE ( 'NONE', *, *, #254, .F. ) ;
#246 = EDGE_CURVE ( 'NONE', #67, #105, #125, .T. ) ;
#247 = VERTEX_POINT ( 'NONE', #40 ) ;
#248 = DIRECTION ( 'NONE',  ( 0.000000000000000000, 0.000000000000000000, 1.000000000000000000 ) ) ;
#249 = PRODUCT_DEFINITION_SHAPE ( 'NONE', 'NONE',  #9 ) ;
#250 = AXIS2_PLACEMENT_3D ( 'NONE', #131, #216, #150 ) ;
#251 = DIRECTION ( 'NONE',  ( 0.000000000000000000, 0.07845909572784560970, 0.9969173337331278528 ) ) ;
#252 = CARTESIAN_POINT ( 'NONE',  ( -9.524999999999986144, 0.000000000000000000, 0.000000000000000000 ) ) ;
#253 = DIRECTION ( 'NONE',  ( 0.000000000000000000, -0.07845909572784560970, -0.9969173337331278528 ) ) ;
#254 = EDGE_CURVE ( 'NONE', #91, #105, #57, .T. ) ;
#255 = LINE ( 'NONE', #15, #86 ) ;
#256 = CARTESIAN_POINT ( 'NONE',  ( 0.000000000000000000, 0.000000000000000000, 0.000000000000000000 ) ) ;
#257 = CARTESIAN_POINT ( 'NONE',  ( 18.00000000000000355, 0.000000000000000000, 0.000000000000000000 ) ) ;
#258 = DIRECTION ( 'NONE',  ( -1.000000000000000000, -0.000000000000000000, -0.000000000000000000 ) ) ;
#259 = CARTESIAN_POINT ( 'NONE',  ( 18.00000000000000000, 2.250000000000000000, 0.000000000000000000 ) ) ;
ENDSEC;
END-ISO-10303-21;
