ISO-10303-21;
HEADER;
FILE_DESCRIPTION (( 'STEP AP214' ),
    '1' );
FILE_NAME ('ISO 7045 - M2 x 8 - Z - 8N.STEP',
    '2025-07-30T15:09:17',
    ( '' ),
    ( '' ),
    'SwSTEP 2.0',
    'SolidWorks 2025',
    '' );
FILE_SCHEMA (( 'AUTOMOTIVE_DESIGN' ));
ENDSEC;

DATA;
#1 = AXIS2_PLACEMENT_3D ( 'NONE', #540, #295, #544 ) ;
#2 = DIRECTION ( 'NONE',  ( -0.000000000000000000, 0.000000000000000000, 1.000000000000000000 ) ) ;
#3 = ORIENTED_EDGE ( 'NONE', *, *, #88, .T. ) ;
#4 = DIRECTION ( 'NONE',  ( 0.000000000000000000, -1.000000000000000000, -3.491481338843133355E-15 ) ) ;
#5 = PLANE ( 'NONE',  #929 ) ;
#6 = CARTESIAN_POINT ( 'NONE',  ( 1.419999999999999929, -0.2400000000000011846, 0.3420142349614992416 ) ) ;
#7 = AXIS2_PLACEMENT_3D ( 'NONE', #777, #858, #644 ) ;
#8 = EDGE_LOOP ( 'NONE', ( #576, #973, #879, #300 ) ) ;
#9 = PLANE ( 'NONE',  #810 ) ;
#10 = DIRECTION ( 'NONE',  ( 0.000000000000000000, 1.000000000000000000, 1.585024922437928498E-16 ) ) ;
#11 = CONICAL_SURFACE ( 'NONE', #262, 3077.683537175311358, 1.256637061435922798 ) ;
#12 = DIRECTION ( 'NONE',  ( 0.000000000000000000, 0.000000000000000000, 1.000000000000000000 ) ) ;
#13 = ORIENTED_EDGE ( 'NONE', *, *, #265, .F. ) ;
#14 = DIRECTION ( 'NONE',  ( 0.000000000000000000, 0.000000000000000000, 1.000000000000000000 ) ) ;
#15 = DIRECTION ( 'NONE',  ( -2.674148579671462509E-18, 1.585024922437928498E-16, -1.000000000000000000 ) ) ;
#16 = CARTESIAN_POINT ( 'NONE',  ( 0.03216144679288562847, -0.3836650893874222201, -0.2399999999999999911 ) ) ;
#17 = EDGE_CURVE ( 'NONE', #253, #424, #196, .T. ) ;
#18 = AXIS2_PLACEMENT_3D ( 'NONE', #775, #476, #241 ) ;
#19 = ORIENTED_EDGE ( 'NONE', *, *, #941, .T. ) ;
#20 = LINE ( 'NONE', #867, #238 ) ;
#21 = DIRECTION ( 'NONE',  ( -1.000000000000000000, 0.000000000000000000, 0.000000000000000000 ) ) ;
#22 = DIRECTION ( 'NONE',  ( 0.4461977533475103841, -3.124646727056469857E-15, 0.8949343913984054710 ) ) ;
#23 = EDGE_CURVE ( 'NONE', #616, #605, #474, .T. ) ;
#24 = ORIENTED_EDGE ( 'NONE', *, *, #359, .F. ) ;
#25 = DIRECTION ( 'NONE',  ( 0.000000000000000000, 0.000000000000000000, 1.000000000000000000 ) ) ;
#26 = CARTESIAN_POINT ( 'NONE',  ( 1.419999999999999485, 0.2399999999999990474, 0.2622598901852901121 ) ) ;
#27 = DIRECTION ( 'NONE',  ( -1.000000000000000000, -0.000000000000000000, -0.000000000000000000 ) ) ;
#28 = CIRCLE ( 'NONE', #615, 0.3554999999999999827 ) ;
#29 = ORIENTED_EDGE ( 'NONE', *, *, #843, .T. ) ;
#30 = CARTESIAN_POINT ( 'NONE',  ( 0.6463795994461132288, 0.000000000000000000, 1.928476821192053103 ) ) ;
#31 = ADVANCED_FACE ( 'NONE', ( #222 ), #620, .T. ) ;
#32 = DIRECTION ( 'NONE',  ( 0.000000000000000000, 0.000000000000000000, -1.000000000000000000 ) ) ;
#33 = DIRECTION ( 'NONE',  ( 0.000000000000000000, 3.649983831086925983E-15, -1.000000000000000000 ) ) ;
#34 = VERTEX_POINT ( 'NONE', #141 ) ;
#35 = EDGE_CURVE ( 'NONE', #142, #396, #231, .T. ) ;
#36 = CARTESIAN_POINT ( 'NONE',  ( 0.4949750842865071609, 0.3454916401347370991, 0.2399999999999999911 ) ) ;
#37 = ORIENTED_EDGE ( 'NONE', *, *, #744, .T. ) ;
#38 = CONICAL_SURFACE ( 'NONE', #167, 0.3554999999999999827, 0.06981317007976597933 ) ;
#39 = DIRECTION ( 'NONE',  ( 0.000000000000000000, 0.000000000000000000, 1.000000000000000000 ) ) ;
#40 = ADVANCED_FACE ( 'NONE', ( #534 ), #450, .T. ) ;
#41 = ORIENTED_EDGE ( 'NONE', *, *, #704, .F. ) ;
#42 = VECTOR ( 'NONE', #947, 1000.000000000000000 ) ;
#43 = LINE ( 'NONE', #735, #840 ) ;
#44 = EDGE_CURVE ( 'NONE', #148, #965, #967, .T. ) ;
#45 = ORIENTED_EDGE ( 'NONE', *, *, #399, .F. ) ;
#46 = LINE ( 'NONE', #56, #555 ) ;
#47 = AXIS2_PLACEMENT_3D ( 'NONE', #803, #873, #351 ) ;
#48 = CARTESIAN_POINT ( 'NONE',  ( 0.000000000000000000, -0.2399999999999961053, -1.050000000000000933 ) ) ;
#49 = ORIENTED_EDGE ( 'NONE', *, *, #563, .T. ) ;
#50 = ORIENTED_EDGE ( 'NONE', *, *, #383, .F. ) ;
#51 = DIRECTION ( 'NONE',  ( 0.000000000000000000, -1.000000000000000000, -1.585024922437928251E-16 ) ) ;
#52 = CIRCLE ( 'NONE', #750, 3.190987308028661928 ) ;
#53 = DIRECTION ( 'NONE',  ( 0.000000000000000000, 0.000000000000000000, 1.000000000000000000 ) ) ;
#54 = DIRECTION ( 'NONE',  ( 0.000000000000000000, 0.000000000000000000, -1.000000000000000000 ) ) ;
#55 =( BOUNDED_CURVE ( )  B_SPLINE_CURVE ( 3, ( #91, #406, #651, #560 ),
 .UNSPECIFIED., .F., .F. ) 
 B_SPLINE_CURVE_WITH_KNOTS ( ( 4, 4 ),
 ( 5.965618998246690730, 6.600751616112480846 ),
 .UNSPECIFIED. ) 
 CURVE ( )  GEOMETRIC_REPRESENTATION_ITEM ( )  RATIONAL_B_SPLINE_CURVE ( ( 1.000000000000000000, 0.9666654427107657099, 0.9666654427107657099, 1.000000000000000000 ) ) 
 REPRESENTATION_ITEM ( '' )  );
#56 = CARTESIAN_POINT ( 'NONE',  ( 0.000000000000000000, -1.050000000000000044, -0.2399999999999999911 ) ) ;
#57 = CIRCLE ( 'NONE', #785, 0.3554999999999999827 ) ;
#58 = EDGE_CURVE ( 'NONE', #595, #846, #132, .T. ) ;
#59 = CARTESIAN_POINT ( 'NONE',  ( 1.419999999999999485, 0.09698717999663379608, 0.3420142349615005739 ) ) ;
#60 = CARTESIAN_POINT ( 'NONE',  ( 1.419999999999999485, 0.000000000000000000, 0.000000000000000000 ) ) ;
#61 = ORIENTED_EDGE ( 'NONE', *, *, #152, .F. ) ;
#62 = DIRECTION ( 'NONE',  ( 0.000000000000000000, -3.491481338843133355E-15, 1.000000000000000000 ) ) ;
#63 = AXIS2_PLACEMENT_3D ( 'NONE', #579, #123, #195 ) ;
#64 = EDGE_CURVE ( 'NONE', #77, #229, #741, .T. ) ;
#65 = CARTESIAN_POINT ( 'NONE',  ( 1.419999999999999485, -0.2622598901852885023, -0.2400000000000009348 ) ) ;
#66 = DIRECTION ( 'NONE',  ( -1.000000000000000000, 0.000000000000000000, 0.000000000000000000 ) ) ;
#67 = VERTEX_POINT ( 'NONE', #677 ) ;
#68 = CARTESIAN_POINT ( 'NONE',  ( 3.200000000000000178, -0.2399999999999998801, -8.759961194608613406E-16 ) ) ;
#69 = CARTESIAN_POINT ( 'NONE',  ( 0.4949750842865071609, -0.3454916401347370991, -0.2399999999999999911 ) ) ;
#70 = DIRECTION ( 'NONE',  ( 0.000000000000000000, 0.000000000000000000, 1.000000000000000000 ) ) ;
#71 = EDGE_CURVE ( 'NONE', #595, #846, #375, .T. ) ;
#72 = ORIENTED_EDGE ( 'NONE', *, *, #454, .T. ) ;
#73 = CARTESIAN_POINT ( 'NONE',  ( 0.000000000000000000, 0.2400000000000036271, -1.049999999999999378 ) ) ;
#74 = CIRCLE ( 'NONE', #675, 0.4525471255180573693 ) ;
#75 = CARTESIAN_POINT ( 'NONE',  ( 1.419999999999999929, -0.2399999999999989642, -0.2622598901852883357 ) ) ;
#76 = CARTESIAN_POINT ( 'NONE',  ( 1.419999999999999929, 0.3420142349615000188, -0.2399999999999999911 ) ) ;
#77 = VERTEX_POINT ( 'NONE', #147 ) ;
#78 = DIRECTION ( 'NONE',  ( 1.000000000000000000, 0.000000000000000000, 0.000000000000000000 ) ) ;
#79 = CARTESIAN_POINT ( 'NONE',  ( 1.419999999999999929, 0.3420142349615000188, -0.2399999999999999911 ) ) ;
#80 = CYLINDRICAL_SURFACE ( 'NONE', #639, 2.000000000000000000 ) ;
#81 = ORIENTED_EDGE ( 'NONE', *, *, #71, .T. ) ;
#82 = FILL_AREA_STYLE_COLOUR ( '', #829 ) ;
#83 = DIRECTION ( 'NONE',  ( -1.000000000000000000, -0.000000000000000000, -0.000000000000000000 ) ) ;
#84 = FACE_OUTER_BOUND ( 'NONE', #429, .T. ) ;
#85 = ORIENTED_EDGE ( 'NONE', *, *, #58, .T. ) ;
#86 = MECHANICAL_DESIGN_GEOMETRIC_PRESENTATION_REPRESENTATION (  '', ( #701 ), #670 ) ;
#87 = DIRECTION ( 'NONE',  ( 0.000000000000000000, 0.000000000000000000, 1.000000000000000000 ) ) ;
#88 = EDGE_CURVE ( 'NONE', #93, #93, #181, .T. ) ;
#89 = CARTESIAN_POINT ( 'NONE',  ( 1.419999999999999485, 0.3420142349615013511, 0.09698717999663118705 ) ) ;
#90 = CONICAL_SURFACE ( 'NONE', #865, 0.3554999999999999827, 0.06981317007976597933 ) ;
#91 = CARTESIAN_POINT ( 'NONE',  ( 1.419999999999999485, 0.09698717999559776370, -0.3420142349617943944 ) ) ;
#92 = VERTEX_POINT ( 'NONE', #687 ) ;
#93 = VERTEX_POINT ( 'NONE', #713 ) ;
#94 = DIRECTION ( 'NONE',  ( -1.000000000000000000, -0.000000000000000000, -0.000000000000000000 ) ) ;
#95 = EDGE_CURVE ( 'NONE', #511, #415, #693, .T. ) ;
#96 = FACE_OUTER_BOUND ( 'NONE', #668, .T. ) ;
#97 = TOROIDAL_SURFACE ( 'NONE', #794, 1.100000000000000089, 0.1000000000000000056 ) ;
#98 = ORIENTED_EDGE ( 'NONE', *, *, #863, .T. ) ;
#99 = CARTESIAN_POINT ( 'NONE',  ( 0.03216144679288562847, 0.3836650893874219981, -0.2399999999999999911 ) ) ;
#100 = CARTESIAN_POINT ( 'NONE',  ( -25.39999999999996305, 0.000000000000000000, 0.000000000000000000 ) ) ;
#101 = B_SPLINE_CURVE_WITH_KNOTS ( 'NONE', 3,
 ( #986, #464, #611, #536 ),
 .UNSPECIFIED., .F., .F.,
 ( 4, 4 ),
 ( 0.0008975940788892029353, 0.002290662657314788703 ),
 .UNSPECIFIED. ) ;
#102 = EDGE_CURVE ( 'NONE', #463, #861, #761, .T. ) ;
#103 = EDGE_LOOP ( 'NONE', ( #247, #571, #279 ) ) ;
#104 = CARTESIAN_POINT ( 'NONE',  ( 0.03216144679288497621, -0.2400000000000013234, 0.3836650893874183343 ) ) ;
#105 = CARTESIAN_POINT ( 'NONE',  ( 0.9577065399045073812, 0.2399999999999988809, 0.3060795708522671132 ) ) ;
#106 = CARTESIAN_POINT ( 'NONE',  ( 1.419999999999999485, -0.09698717999559539060, -0.3420142349617950606 ) ) ;
#107 = AXIS2_PLACEMENT_3D ( 'NONE', #514, #439, #892 ) ;
#108 = EDGE_LOOP ( 'NONE', ( #545, #842, #19, #72 ) ) ;
#109 = ADVANCED_FACE ( 'NONE', ( #527, #989 ), #587, .T. ) ;
#110 = AXIS2_PLACEMENT_3D ( 'NONE', #438, #606, #519 ) ;
#111 = CARTESIAN_POINT ( 'NONE',  ( 0.1600766733660975716, -0.2400000000000032385, 0.9701887281282285391 ) ) ;
#112 = VERTEX_POINT ( 'NONE', #299 ) ;
#113 = CIRCLE ( 'NONE', #505, 0.3554999999999999827 ) ;
#114 = B_SPLINE_CURVE_WITH_KNOTS ( 'NONE', 3,
 ( #799, #530, #105, #26 ),
 .UNSPECIFIED., .F., .F.,
 ( 4, 4 ),
 ( 0.0006611328646872212779, 0.002054287873658128174 ),
 .UNSPECIFIED. ) ;
#115 = LINE ( 'NONE', #48, #282 ) ;
#116 = ORIENTED_EDGE ( 'NONE', *, *, #246, .T. ) ;
#117 = ORIENTED_EDGE ( 'NONE', *, *, #863, .F. ) ;
#118 = ADVANCED_FACE ( 'NONE', ( #771 ), #614, .T. ) ;
#119 = DIRECTION ( 'NONE',  ( 0.8949343913984795229, -1.626221397653525123E-15, 0.4461977533473616697 ) ) ;
#120 = EDGE_LOOP ( 'NONE', ( #772, #812, #188 ) ) ;
#121 = AXIS2_PLACEMENT_3D ( 'NONE', #922, #475, #239 ) ;
#122 = CARTESIAN_POINT ( 'NONE',  ( 1.419999999999999485, 0.000000000000000000, 0.000000000000000000 ) ) ;
#123 = DIRECTION ( 'NONE',  ( -1.000000000000000000, 0.000000000000000000, 0.000000000000000000 ) ) ;
#124 = ORIENTED_EDGE ( 'NONE', *, *, #466, .F. ) ;
#125 = DIRECTION ( 'NONE',  ( -1.000000000000000000, 0.000000000000000000, 0.000000000000000000 ) ) ;
#126 = AXIS2_PLACEMENT_3D ( 'NONE', #824, #66, #70 ) ;
#127 = PLANE ( 'NONE',  #368 ) ;
#128 = DIRECTION ( 'NONE',  ( 0.4461977533475103286, 0.8949343913984053600, 0.000000000000000000 ) ) ;
#129 = EDGE_CURVE ( 'NONE', #478, #605, #860, .T. ) ;
#130 = DIRECTION ( 'NONE',  ( 0.000000000000000000, 1.000000000000000000, 0.000000000000000000 ) ) ;
#131 = CIRCLE ( 'NONE', #240, 3.162547694191714331 ) ;
#132 =( BOUNDED_CURVE ( )  B_SPLINE_CURVE ( 3, ( #384, #379, #604, #445 ),
 .UNSPECIFIED., .F., .F. ) 
 B_SPLINE_CURVE_WITH_KNOTS ( ( 4, 4 ),
 ( 5.965618998243247262, 6.600751616115925202 ),
 .UNSPECIFIED. ) 
 CURVE ( )  GEOMETRIC_REPRESENTATION_ITEM ( )  RATIONAL_B_SPLINE_CURVE ( ( 1.000000000000000000, 0.9666654427100489499, 0.9666654427100489499, 1.000000000000000000 ) ) 
 REPRESENTATION_ITEM ( '' )  );
#133 = DIRECTION ( 'NONE',  ( 0.000000000000000000, 0.000000000000000000, 1.000000000000000000 ) ) ;
#134 = DIRECTION ( 'NONE',  ( -1.000000000000000000, -0.000000000000000000, -0.000000000000000000 ) ) ;
#135 = ORIENTED_EDGE ( 'NONE', *, *, #64, .T. ) ;
#136 = CARTESIAN_POINT ( 'NONE',  ( 1.419999999999999929, 0.2400000000000011846, -0.3420142349617935618 ) ) ;
#137 = EDGE_CURVE ( 'NONE', #511, #112, #358, .T. ) ;
#138 = VECTOR ( 'NONE', #294, 1000.000000000000227 ) ;
#139 = B_SPLINE_CURVE_WITH_KNOTS ( 'NONE', 3,
 ( #140, #377, #69, #543 ),
 .UNSPECIFIED., .F., .F.,
 ( 4, 4 ),
 ( 0.0008975940788892038027, 0.002290662657314788270 ),
 .UNSPECIFIED. ) ;
#140 = CARTESIAN_POINT ( 'NONE',  ( 1.419999999999999485, -0.2622598901852885023, -0.2400000000000009348 ) ) ;
#141 = CARTESIAN_POINT ( 'NONE',  ( 1.419999999999999485, 0.2399999999999990474, 0.2622598901852901121 ) ) ;
#142 = VERTEX_POINT ( 'NONE', #16 ) ;
#143 = DIRECTION ( 'NONE',  ( -2.674148579671462509E-18, 1.585024922437928498E-16, -1.000000000000000000 ) ) ;
#144 = AXIS2_PLACEMENT_3D ( 'NONE', #204, #815, #962 ) ;
#145 = ADVANCED_FACE ( 'NONE', ( #395, #96 ), #80, .T. ) ;
#146 = FACE_OUTER_BOUND ( 'NONE', #316, .T. ) ;
#147 = CARTESIAN_POINT ( 'NONE',  ( 0.1600766733660975716, 0.9701887281282294273, -0.2399999999999999911 ) ) ;
#148 = VERTEX_POINT ( 'NONE', #320 ) ;
#149 = PLANE ( 'NONE',  #686 ) ;
#150 = UNCERTAINTY_MEASURE_WITH_UNIT (LENGTH_MEASURE( 1.000000000000000082E-05 ), #793, 'distance_accuracy_value', 'NONE');
#151 = DIRECTION ( 'NONE',  ( 0.000000000000000000, 0.000000000000000000, 1.000000000000000000 ) ) ;
#152 = EDGE_CURVE ( 'NONE', #605, #463, #168, .T. ) ;
#153 = CARTESIAN_POINT ( 'NONE',  ( 0.03216144679288540642, -1.347111479062087024E-16, 0.000000000000000000 ) ) ;
#154 = ORIENTED_EDGE ( 'NONE', *, *, #17, .T. ) ;
#155 = FACE_OUTER_BOUND ( 'NONE', #591, .T. ) ;
#156 = AXIS2_PLACEMENT_3D ( 'NONE', #208, #676, #382 ) ;
#157 = CARTESIAN_POINT ( 'NONE',  ( 3.200000000000000178, -1.727517460447189696E-16, 0.2399999999999998801 ) ) ;
#158 = DIRECTION ( 'NONE',  ( 0.000000000000000000, 1.000000000000000000, 3.491481338843133355E-15 ) ) ;
#159 = ORIENTED_EDGE ( 'NONE', *, *, #704, .T. ) ;
#160 = CARTESIAN_POINT ( 'NONE',  ( 3.200000000000000178, -1.727517460447189696E-16, 0.2399999999999998801 ) ) ;
#161 = CARTESIAN_POINT ( 'NONE',  ( 1.419999999999999929, -0.2399999999999989642, -0.2622598901852883357 ) ) ;
#162 = CARTESIAN_POINT ( 'NONE',  ( 1.377690807556257946, -0.03344389751664770399, 0.3631088166378690918 ) ) ;
#163 = B_SPLINE_CURVE_WITH_KNOTS ( 'NONE', 3,
 ( #502, #800, #423, #726 ),
 .UNSPECIFIED., .F., .F.,
 ( 4, 4 ),
 ( 0.0006611328647346683502, 0.002054287873705574162 ),
 .UNSPECIFIED. ) ;
#164 = ORIENTED_EDGE ( 'NONE', *, *, #246, .F. ) ;
#165 = EDGE_CURVE ( 'NONE', #870, #253, #55, .T. ) ;
#166 = CARTESIAN_POINT ( 'NONE',  ( 2.982187808281909103, 0.4368637443197727621, 0.000000000000000000 ) ) ;
#167 = AXIS2_PLACEMENT_3D ( 'NONE', #376, #763, #997 ) ;
#168 =( BOUNDED_CURVE ( )  B_SPLINE_CURVE ( 3, ( #784, #162, #471, #325 ),
 .UNSPECIFIED., .F., .F. ) 
 B_SPLINE_CURVE_WITH_KNOTS ( ( 4, 4 ),
 ( 5.965618998243234827, 6.600751616115937637 ),
 .UNSPECIFIED. ) 
 CURVE ( )  GEOMETRIC_REPRESENTATION_ITEM ( )  RATIONAL_B_SPLINE_CURVE ( ( 1.000000000000000000, 0.9666654427100462854, 0.9666654427100462854, 1.000000000000000000 ) ) 
 REPRESENTATION_ITEM ( '' )  );
#169 = DIRECTION ( 'NONE',  ( -1.000000000000000000, -0.000000000000000000, -0.000000000000000000 ) ) ;
#170 = VERTEX_POINT ( 'NONE', #711 ) ;
#171 = DIRECTION ( 'NONE',  ( 0.000000000000000000, -1.000000000000000000, -3.604419065143706471E-15 ) ) ;
#172 = EDGE_CURVE ( 'NONE', #621, #148, #412, .T. ) ;
#173 = DIRECTION ( 'NONE',  ( -1.000000000000000000, -0.000000000000000000, -0.000000000000000000 ) ) ;
#174 = AXIS2_PLACEMENT_3D ( 'NONE', #166, #480, #547 ) ;
#175 = CARTESIAN_POINT ( 'NONE',  ( 1.419999999999999485, 0.2400000000000009071, -0.2622598901852885023 ) ) ;
#176 = VERTEX_POINT ( 'NONE', #548 ) ;
#177 = CARTESIAN_POINT ( 'NONE',  ( 0.03216144679288519131, 0.3836650893874198331, 0.2399999999999999356 ) ) ;
#178 = DIRECTION ( 'NONE',  ( -1.000000000000000000, -0.000000000000000000, -0.000000000000000000 ) ) ;
#179 = ADVANCED_FACE ( 'NONE', ( #493 ), #721, .F. ) ;
#180 = CARTESIAN_POINT ( 'NONE',  ( 0.03216144679288494845, 0.2400000000000012956, -0.3836650893874183899 ) ) ;
#181 = CIRCLE ( 'NONE', #1, 1.100000000000000089 ) ;
#182 = ORIENTED_EDGE ( 'NONE', *, *, #332, .T. ) ;
#183 =( NAMED_UNIT ( * ) PLANE_ANGLE_UNIT ( ) SI_UNIT ( $, .RADIAN. ) );
#184 = PRODUCT_DEFINITION_CONTEXT ( 'detailed design', #992, 'design' ) ;
#185 = FACE_OUTER_BOUND ( 'NONE', #541, .T. ) ;
#186 = AXIS2_PLACEMENT_3D ( 'NONE', #386, #301, #78 ) ;
#187 = DIRECTION ( 'NONE',  ( 0.8949343913984795229, 0.4461977533473616697, 0.000000000000000000 ) ) ;
#188 = ORIENTED_EDGE ( 'NONE', *, *, #717, .F. ) ;
#189 = DIRECTION ( 'NONE',  ( -1.000000000000000000, -0.000000000000000000, -0.000000000000000000 ) ) ;
#190 = AXIS2_PLACEMENT_3D ( 'NONE', #68, #546, #847 ) ;
#191 = DIRECTION ( 'NONE',  ( 0.000000000000000000, -1.129377263005734114E-16, 1.000000000000000000 ) ) ;
#192 = AXIS2_PLACEMENT_3D ( 'NONE', #577, #524, #725 ) ;
#193 = ORIENTED_EDGE ( 'NONE', *, *, #574, .F. ) ;
#194 = ORIENTED_EDGE ( 'NONE', *, *, #426, .T. ) ;
#195 = DIRECTION ( 'NONE',  ( 0.000000000000000000, 0.000000000000000000, 1.000000000000000000 ) ) ;
#196 = CIRCLE ( 'NONE', #820, 0.3554999999999999827 ) ;
#197 = ORIENTED_EDGE ( 'NONE', *, *, #454, .F. ) ;
#198 = AXIS2_PLACEMENT_3D ( 'NONE', #153, #235, #54 ) ;
#199 = ORIENTED_EDGE ( 'NONE', *, *, #662, .T. ) ;
#200 = EDGE_CURVE ( 'NONE', #170, #92, #313, .T. ) ;
#201 = CARTESIAN_POINT ( 'NONE',  ( 0.1600766733661066754, -0.2399999999999965217, -0.9701887281282587372 ) ) ;
#202 = EDGE_LOOP ( 'NONE', ( #3 ) ) ;
#203 = DIRECTION ( 'NONE',  ( -1.000000000000000000, -0.000000000000000000, -0.000000000000000000 ) ) ;
#204 = CARTESIAN_POINT ( 'NONE',  ( 0.7900207469772670965, 0.000000000000000000, 0.000000000000000000 ) ) ;
#205 = ORIENTED_EDGE ( 'NONE', *, *, #265, .T. ) ;
#206 = ORIENTED_EDGE ( 'NONE', *, *, #278, .T. ) ;
#207 = CARTESIAN_POINT ( 'NONE',  ( 1.419999999999999929, -0.3420142349617943944, -0.2399999999999999911 ) ) ;
#208 = CARTESIAN_POINT ( 'NONE',  ( 1.600000000000000089, 1.000000000000000000, 0.000000000000000000 ) ) ;
#209 = ADVANCED_FACE ( 'NONE', ( #930 ), #573, .F. ) ;
#210 = EDGE_LOOP ( 'NONE', ( #745, #749, #582 ) ) ;
#211 = ORIENTED_EDGE ( 'NONE', *, *, #971, .T. ) ;
#212 = CLOSED_SHELL ( 'NONE', ( #765, #823, #460, #642, #31, #667, #378, #608, #118, #891, #305, #782, #260, #40, #878, #568, #179, #216, #908, #885, #513, #509, #145, #109, #498, #232, #637, #440, #618, #852, #209, #436, #688, #366, #797, #528 ) ) ;
#213 = LINE ( 'NONE', #601, #404 ) ;
#214 = B_SPLINE_CURVE_WITH_KNOTS ( 'NONE', 3,
 ( #99, #951, #417, #720 ),
 .UNSPECIFIED., .F., .F.,
 ( 4, 4 ),
 ( 0.0006611328646872217116, 0.002054287873658128174 ),
 .UNSPECIFIED. ) ;
#215 = CARTESIAN_POINT ( 'NONE',  ( 1.419999999999999485, 0.2622598901852885023, -0.2400000000000009348 ) ) ;
#216 = ADVANCED_FACE ( 'NONE', ( #245 ), #938, .F. ) ;
#217 = DIRECTION ( 'NONE',  ( 0.000000000000000000, 1.000000000000000000, 3.491481338843133355E-15 ) ) ;
#218 = EDGE_LOOP ( 'NONE', ( #13, #657, #516 ) ) ;
#219 = DIRECTION ( 'NONE',  ( 0.000000000000000000, 0.000000000000000000, 1.000000000000000000 ) ) ;
#220 = AXIS2_PLACEMENT_3D ( 'NONE', #932, #4, #684 ) ;
#221 = CARTESIAN_POINT ( 'NONE',  ( 9.599999999999997868, 1.000000000000000000, 0.000000000000000000 ) ) ;
#222 = FACE_OUTER_BOUND ( 'NONE', #8, .T. ) ;
#223 = ORIENTED_EDGE ( 'NONE', *, *, #603, .F. ) ;
#224 = DIRECTION ( 'NONE',  ( 0.000000000000000000, 0.000000000000000000, 1.000000000000000000 ) ) ;
#225 = VECTOR ( 'NONE', #685, 1000.000000000000000 ) ;
#226 = EDGE_CURVE ( 'NONE', #939, #595, #113, .T. ) ;
#227 = DIRECTION ( 'NONE',  ( -1.000000000000000000, -0.000000000000000000, -0.000000000000000000 ) ) ;
#228 = DIRECTION ( 'NONE',  ( -1.000000000000000000, -0.000000000000000000, -0.000000000000000000 ) ) ;
#229 = VERTEX_POINT ( 'NONE', #780 ) ;
#230 = PRESENTATION_STYLE_ASSIGNMENT (( #381 ) ) ;
#231 = CIRCLE ( 'NONE', #966, 3.190987308028662373 ) ;
#232 = ADVANCED_FACE ( 'NONE', ( #257, #84 ), #97, .F. ) ;
#233 = AXIS2_PLACEMENT_3D ( 'NONE', #76, #697, #851 ) ;
#234 = DIRECTION ( 'NONE',  ( -1.000000000000000000, -0.000000000000000000, -0.000000000000000000 ) ) ;
#235 = DIRECTION ( 'NONE',  ( -1.000000000000000000, -0.000000000000000000, -0.000000000000000000 ) ) ;
#236 = ORIENTED_EDGE ( 'NONE', *, *, #998, .F. ) ;
#237 = FACE_OUTER_BOUND ( 'NONE', #210, .T. ) ;
#238 = VECTOR ( 'NONE', #171, 1000.000000000000000 ) ;
#239 = DIRECTION ( 'NONE',  ( 0.000000000000000000, 0.000000000000000000, 1.000000000000000000 ) ) ;
#240 = AXIS2_PLACEMENT_3D ( 'NONE', #926, #552, #836 ) ;
#241 = DIRECTION ( 'NONE',  ( 0.000000000000000000, 3.491138085776583977E-15, -1.000000000000000000 ) ) ;
#242 = DIRECTION ( 'NONE',  ( -2.674148579671462124E-18, 1.000000000000000000, 3.649983831086925983E-15 ) ) ;
#243 = CIRCLE ( 'NONE', #121, 0.3554999999999999827 ) ;
#244 = CARTESIAN_POINT ( 'NONE',  ( 0.03216144679288540642, -1.347111479062087024E-16, 0.000000000000000000 ) ) ;
#245 = FACE_OUTER_BOUND ( 'NONE', #566, .T. ) ;
#246 = EDGE_CURVE ( 'NONE', #112, #170, #342, .T. ) ;
#247 = ORIENTED_EDGE ( 'NONE', *, *, #674, .F. ) ;
#248 = CARTESIAN_POINT ( 'NONE',  ( 1.419999999999999929, 0.3420142349615000188, -0.2399999999999999911 ) ) ;
#249 = FACE_OUTER_BOUND ( 'NONE', #306, .T. ) ;
#250 = AXIS2_PLACEMENT_3D ( 'NONE', #882, #506, #807 ) ;
#251 = DIRECTION ( 'NONE',  ( -1.000000000000000000, -0.000000000000000000, -0.000000000000000000 ) ) ;
#252 = EDGE_CURVE ( 'NONE', #653, #653, #917, .T. ) ;
#253 = VERTEX_POINT ( 'NONE', #106 ) ;
#254 = CARTESIAN_POINT ( 'NONE',  ( 1.600000000000000755, 0.000000000000000000, 0.000000000000000000 ) ) ;
#255 = VECTOR ( 'NONE', #307, 1000.000000000000114 ) ;
#256 = AXIS2_PLACEMENT_3D ( 'NONE', #557, #709, #719 ) ;
#257 = FACE_OUTER_BOUND ( 'NONE', #888, .T. ) ;
#258 = ORIENTED_EDGE ( 'NONE', *, *, #466, .T. ) ;
#259 = CARTESIAN_POINT ( 'NONE',  ( 9.599999999999997868, 0.000000000000000000, 1.000000000000000000 ) ) ;
#260 = ADVANCED_FACE ( 'NONE', ( #276 ), #280, .T. ) ;
#261 = CARTESIAN_POINT ( 'NONE',  ( 1.377690807557169661, -0.3631088166377001714, 0.03344389751626217905 ) ) ;
#262 = AXIS2_PLACEMENT_3D ( 'NONE', #565, #83, #640 ) ;
#263 = CARTESIAN_POINT ( 'NONE',  ( 0.4949750842865066058, 0.2400000000000011846, -0.3454916401347363220 ) ) ;
#264 = VERTEX_POINT ( 'NONE', #201 ) ;
#265 = EDGE_CURVE ( 'NONE', #424, #866, #584, .T. ) ;
#266 = DIRECTION ( 'NONE',  ( 0.8949343913984054710, 1.557891129246563832E-15, -0.4461977533475103286 ) ) ;
#267 = CARTESIAN_POINT ( 'NONE',  ( 0.000000000000000000, -1.050000000000000044, -0.2399999999999999911 ) ) ;
#268 = AXIS2_PLACEMENT_3D ( 'NONE', #636, #554, #716 ) ;
#269 = EDGE_LOOP ( 'NONE', ( #49, #817 ) ) ;
#270 = CARTESIAN_POINT ( 'NONE',  ( 1.700000000000000178, 0.000000000000000000, 1.000000000000000000 ) ) ;
#271 = LINE ( 'NONE', #890, #724 ) ;
#272 = PRODUCT_DEFINITION_SHAPE ( 'NONE', 'NONE',  #723 ) ;
#273 = CARTESIAN_POINT ( 'NONE',  ( 1.419999999999999929, 0.3420142349615000188, -0.2399999999999999911 ) ) ;
#274 = ORIENTED_EDGE ( 'NONE', *, *, #732, .T. ) ;
#275 = ORIENTED_EDGE ( 'NONE', *, *, #915, .T. ) ;
#276 = FACE_OUTER_BOUND ( 'NONE', #834, .T. ) ;
#277 = CONICAL_SURFACE ( 'NONE', #435, 0.3554999999999999827, 0.06981317007976597933 ) ;
#278 = EDGE_CURVE ( 'NONE', #846, #511, #935, .T. ) ;
#279 = ORIENTED_EDGE ( 'NONE', *, *, #352, .T. ) ;
#280 = PLANE ( 'NONE',  #63 ) ;
#281 = ORIENTED_EDGE ( 'NONE', *, *, #649, .F. ) ;
#282 = VECTOR ( 'NONE', #119, 1000.000000000000114 ) ;
#283 = EDGE_CURVE ( 'NONE', #264, #866, #115, .T. ) ;
#284 = ORIENTED_EDGE ( 'NONE', *, *, #152, .T. ) ;
#285 = CARTESIAN_POINT ( 'NONE',  ( 1.419999999999999929, 0.3420142349615000188, 0.2399999999999999911 ) ) ;
#286 = ORIENTED_EDGE ( 'NONE', *, *, #414, .F. ) ;
#287 = EDGE_LOOP ( 'NONE', ( #835 ) ) ;
#288 = DIRECTION ( 'NONE',  ( -1.000000000000000000, -0.000000000000000000, -0.000000000000000000 ) ) ;
#289 = EDGE_CURVE ( 'NONE', #978, #337, #811, .T. ) ;
#290 = CARTESIAN_POINT ( 'NONE',  ( 1.419999999999999929, 0.2400000000000011846, -0.3420142349617935618 ) ) ;
#291 = CONICAL_SURFACE ( 'NONE', #107, 0.3554999999999999827, 0.06981317007976597933 ) ;
#292 = ORIENTED_EDGE ( 'NONE', *, *, #129, .T. ) ;
#293 = DIRECTION ( 'NONE',  ( -0.000000000000000000, 0.000000000000000000, 1.000000000000000000 ) ) ;
#294 = DIRECTION ( 'NONE',  ( 0.8949343913984054710, -0.4461977533475103286, -1.708256710186873124E-17 ) ) ;
#295 = DIRECTION ( 'NONE',  ( -1.000000000000000000, -0.000000000000000000, -0.000000000000000000 ) ) ;
#296 = ORIENTED_EDGE ( 'NONE', *, *, #137, .T. ) ;
#297 = CARTESIAN_POINT ( 'NONE',  ( 0.000000000000000000, 0.2399999999999963274, 1.050000000000000933 ) ) ;
#298 = DIRECTION ( 'NONE',  ( 0.000000000000000000, -1.000000000000000000, -3.604419065143706471E-15 ) ) ;
#299 = CARTESIAN_POINT ( 'NONE',  ( 1.419999999999999485, 0.2400000000000009071, -0.2622598901852885023 ) ) ;
#300 = ORIENTED_EDGE ( 'NONE', *, *, #289, .F. ) ;
#301 = DIRECTION ( 'NONE',  ( -0.000000000000000000, 0.000000000000000000, 1.000000000000000000 ) ) ;
#302 = CIRCLE ( 'NONE', #578, 0.3554999999999999827 ) ;
#303 = CARTESIAN_POINT ( 'NONE',  ( 0.000000000000000000, -0.2400000000000036549, 1.049999999999999378 ) ) ;
#304 = CARTESIAN_POINT ( 'NONE',  ( 0.7900207469772688729, 0.000000000000000000, 0.000000000000000000 ) ) ;
#305 = ADVANCED_FACE ( 'NONE', ( #362 ), #733, .T. ) ;
#306 = EDGE_LOOP ( 'NONE', ( #258, #275, #556, #432 ) ) ;
#307 = DIRECTION ( 'NONE',  ( 0.8949343913984795229, -1.557891129246044565E-15, 0.4461977533473616697 ) ) ;
#308 = VECTOR ( 'NONE', #372, 1000.000000000000000 ) ;
#309 = CYLINDRICAL_SURFACE ( 'NONE', #849, 1.000000000000000000 ) ;
#310 = DIRECTION ( 'NONE',  ( -1.000000000000000000, -0.000000000000000000, -0.000000000000000000 ) ) ;
#311 = ORIENTED_EDGE ( 'NONE', *, *, #64, .F. ) ;
#312 = CARTESIAN_POINT ( 'NONE',  ( 1.419999999999999485, 0.09698717999559776370, -0.3420142349617943944 ) ) ;
#313 = CIRCLE ( 'NONE', #442, 3.190987308028661928 ) ;
#314 = DIRECTION ( 'NONE',  ( 0.000000000000000000, 0.000000000000000000, 1.000000000000000000 ) ) ;
#315 = DIRECTION ( 'NONE',  ( 0.000000000000000000, 0.000000000000000000, 1.000000000000000000 ) ) ;
#316 = EDGE_LOOP ( 'NONE', ( #223 ) ) ;
#317 = CARTESIAN_POINT ( 'NONE',  ( 1.419999999999999485, 0.3420142349615013511, -0.09698717999663118705 ) ) ;
#318 = EDGE_CURVE ( 'NONE', #870, #253, #330, .T. ) ;
#319 = PLANE ( 'NONE',  #960 ) ;
#320 = CARTESIAN_POINT ( 'NONE',  ( 0.03216144679288462926, 0.2399999999999986589, 0.3836650893874201662 ) ) ;
#321 = ORIENTED_EDGE ( 'NONE', *, *, #200, .T. ) ;
#322 = LINE ( 'NONE', #136, #497 ) ;
#323 = AXIS2_PLACEMENT_3D ( 'NONE', #254, #173, #559 ) ;
#324 = DIRECTION ( 'NONE',  ( 0.000000000000000000, 1.000000000000000000, 1.613908117512289539E-16 ) ) ;
#325 = CARTESIAN_POINT ( 'NONE',  ( 1.419999999999999485, 0.09698717999663379608, 0.3420142349615005739 ) ) ;
#326 = ORIENTED_EDGE ( 'NONE', *, *, #129, .F. ) ;
#327 =( LENGTH_UNIT ( ) NAMED_UNIT ( * ) SI_UNIT ( .MILLI., .METRE. ) );
#328 =( GEOMETRIC_REPRESENTATION_CONTEXT ( 3 ) GLOBAL_UNCERTAINTY_ASSIGNED_CONTEXT ( ( #150 ) ) GLOBAL_UNIT_ASSIGNED_CONTEXT ( ( #793, #183, #479 ) ) REPRESENTATION_CONTEXT ( 'NONE', 'WORKASPACE' ) );
#329 = DIRECTION ( 'NONE',  ( -1.000000000000000000, -0.000000000000000000, -0.000000000000000000 ) ) ;
#330 = CIRCLE ( 'NONE', #47, 0.3554999999999999827 ) ;
#331 = CARTESIAN_POINT ( 'NONE',  ( 3.200000000000000178, 0.2399999999999999911, 8.379555213223523800E-16 ) ) ;
#332 = EDGE_CURVE ( 'NONE', #408, #408, #806, .T. ) ;
#333 = EDGE_LOOP ( 'NONE', ( #85, #808 ) ) ;
#334 =( NAMED_UNIT ( * ) SI_UNIT ( $, .STERADIAN. ) SOLID_ANGLE_UNIT ( ) );
#335 = DIRECTION ( 'NONE',  ( 0.000000000000000000, 0.000000000000000000, 1.000000000000000000 ) ) ;
#336 = DIRECTION ( 'NONE',  ( -0.8949343913984053600, -1.557891129246563635E-15, 0.4461977533475103286 ) ) ;
#337 = VERTEX_POINT ( 'NONE', #496 ) ;
#338 = CARTESIAN_POINT ( 'NONE',  ( 0.1600766733661066754, -0.9701887281282578490, 0.2399999999999998801 ) ) ;
#339 = EDGE_CURVE ( 'NONE', #666, #766, #886, .T. ) ;
#340 = FACE_OUTER_BOUND ( 'NONE', #385, .T. ) ;
#341 = CIRCLE ( 'NONE', #449, 3.190987308028662373 ) ;
#342 = B_SPLINE_CURVE_WITH_KNOTS ( 'NONE', 3,
 ( #175, #944, #263, #180 ),
 .UNSPECIFIED., .F., .F.,
 ( 4, 4 ),
 ( 0.0008975940789387608408, 0.002290662657364335008 ),
 .UNSPECIFIED. ) ;
#343 = ORIENTED_EDGE ( 'NONE', *, *, #649, .T. ) ;
#344 = VERTEX_POINT ( 'NONE', #270 ) ;
#345 = DIRECTION ( 'NONE',  ( 0.000000000000000000, -3.491481338843133355E-15, 1.000000000000000000 ) ) ;
#346 = CARTESIAN_POINT ( 'NONE',  ( 1.419999999999999929, 0.3420142349615000188, 0.2399999999999999911 ) ) ;
#347 = EDGE_LOOP ( 'NONE', ( #211, #199, #881, #81, #206, #296, #762, #488, #154, #841, #457, #899, #494, #194, #380, #37 ) ) ;
#348 = EDGE_CURVE ( 'NONE', #846, #415, #43, .T. ) ;
#349 = CARTESIAN_POINT ( 'NONE',  ( 0.03216144679288519131, 0.3836650893874198331, 0.2399999999999999356 ) ) ;
#350 = ORIENTED_EDGE ( 'NONE', *, *, #485, .F. ) ;
#351 = DIRECTION ( 'NONE',  ( 0.000000000000000000, 0.000000000000000000, 1.000000000000000000 ) ) ;
#352 = EDGE_CURVE ( 'NONE', #666, #337, #355, .T. ) ;
#353 = AXIS2_PLACEMENT_3D ( 'NONE', #764, #538, #455 ) ;
#354 = ORIENTED_EDGE ( 'NONE', *, *, #789, .T. ) ;
#355 = LINE ( 'NONE', #665, #664 ) ;
#356 = EDGE_LOOP ( 'NONE', ( #804, #643, #472, #931 ) ) ;
#357 = APPLICATION_PROTOCOL_DEFINITION ( 'draft international standard', 'automotive_design', 1998, #992 ) ;
#358 = CIRCLE ( 'NONE', #681, 0.3554999999999999827 ) ;
#359 = EDGE_CURVE ( 'NONE', #652, #595, #968, .T. ) ;
#360 = ORIENTED_EDGE ( 'NONE', *, *, #58, .F. ) ;
#361 = DIRECTION ( 'NONE',  ( 0.8949343913984795229, 0.4461977533473616697, 0.000000000000000000 ) ) ;
#362 = FACE_OUTER_BOUND ( 'NONE', #218, .T. ) ;
#363 = CIRCLE ( 'NONE', #7, 3.190987308028661928 ) ;
#364 = EDGE_LOOP ( 'NONE', ( #292, #683, #124 ) ) ;
#365 = DIRECTION ( 'NONE',  ( 0.000000000000000000, 0.000000000000000000, 1.000000000000000000 ) ) ;
#366 = ADVANCED_FACE ( 'NONE', ( #593 ), #291, .F. ) ;
#367 = DIRECTION ( 'NONE',  ( -1.000000000000000000, -0.000000000000000000, -0.000000000000000000 ) ) ;
#368 = AXIS2_PLACEMENT_3D ( 'NONE', #221, #906, #833 ) ;
#369 = DIRECTION ( 'NONE',  ( -2.674148579671462124E-18, 1.585024922437928498E-16, -1.000000000000000000 ) ) ;
#370 = ORIENTED_EDGE ( 'NONE', *, *, #102, .F. ) ;
#371 = PLANE ( 'NONE',  #884 ) ;
#372 = DIRECTION ( 'NONE',  ( 0.000000000000000000, 3.649983831086925983E-15, -1.000000000000000000 ) ) ;
#373 = DIRECTION ( 'NONE',  ( -0.8949343913984054710, 0.4461977533475104396, 0.000000000000000000 ) ) ;
#374 = VERTEX_POINT ( 'NONE', #111 ) ;
#375 = CIRCLE ( 'NONE', #393, 0.3554999999999999827 ) ;
#376 = CARTESIAN_POINT ( 'NONE',  ( 1.419999999999999485, 0.000000000000000000, 0.000000000000000000 ) ) ;
#377 = CARTESIAN_POINT ( 'NONE',  ( 0.9577065399045073812, -0.3060795708522663361, -0.2399999999999999911 ) ) ;
#378 = ADVANCED_FACE ( 'NONE', ( #742 ), #729, .F. ) ;
#379 = CARTESIAN_POINT ( 'NONE',  ( 1.377690807556258834, 0.3631088166378687032, 0.03344389751664511579 ) ) ;
#380 = ORIENTED_EDGE ( 'NONE', *, *, #23, .T. ) ;
#381 = SURFACE_STYLE_USAGE ( .BOTH. , #397 ) ;
#382 = DIRECTION ( 'NONE',  ( -0.000000000000000000, 0.000000000000000000, 1.000000000000000000 ) ) ;
#383 = EDGE_CURVE ( 'NONE', #176, #766, #163, .T. ) ;
#384 = CARTESIAN_POINT ( 'NONE',  ( 1.419999999999999485, 0.3420142349615013511, 0.09698717999663118705 ) ) ;
#385 = EDGE_LOOP ( 'NONE', ( #159, #712, #912, #50 ) ) ;
#386 = CARTESIAN_POINT ( 'NONE',  ( 1.419999999999999929, 0.3420142349614997967, -0.2399999999999999911 ) ) ;
#387 = AXIS2_PLACEMENT_3D ( 'NONE', #974, #203, #495 ) ;
#388 = FACE_OUTER_BOUND ( 'NONE', #108, .T. ) ;
#389 = DIRECTION ( 'NONE',  ( 0.000000000000000000, 1.000000000000000000, 1.585024922437928498E-16 ) ) ;
#390 = ORIENTED_EDGE ( 'NONE', *, *, #492, .T. ) ;
#391 = FACE_OUTER_BOUND ( 'NONE', #507, .T. ) ;
#392 = EDGE_CURVE ( 'NONE', #939, #965, #398, .T. ) ;
#393 = AXIS2_PLACEMENT_3D ( 'NONE', #977, #228, #682 ) ;
#394 = DIRECTION ( 'NONE',  ( -2.674148579671462124E-18, 1.000000000000000000, 3.649983831086925983E-15 ) ) ;
#395 = FACE_OUTER_BOUND ( 'NONE', #730, .T. ) ;
#396 = VERTEX_POINT ( 'NONE', #659 ) ;
#397 = SURFACE_SIDE_STYLE ('',( #914 ) ) ;
#398 = B_SPLINE_CURVE_WITH_KNOTS ( 'NONE', 3,
 ( #656, #428, #36, #349 ),
 .UNSPECIFIED., .F., .F.,
 ( 4, 4 ),
 ( 0.0008975940788892038027, 0.002290662657314788270 ),
 .UNSPECIFIED. ) ;
#399 = EDGE_CURVE ( 'NONE', #652, #939, #957, .T. ) ;
#400 = CARTESIAN_POINT ( 'NONE',  ( 1.377690807557169661, -0.3631088166377001714, -0.03344389751626224844 ) ) ;
#401 = DIRECTION ( 'NONE',  ( -1.000000000000000000, -0.000000000000000000, -0.000000000000000000 ) ) ;
#402 = EDGE_LOOP ( 'NONE', ( #599, #441 ) ) ;
#403 = DIRECTION ( 'NONE',  ( 1.000000000000000000, 0.000000000000000000, 0.000000000000000000 ) ) ;
#404 = VECTOR ( 'NONE', #345, 1000.000000000000000 ) ;
#405 = CARTESIAN_POINT ( 'NONE',  ( 1.419999999999999485, -0.09698717999663618305, 0.3420142349614999078 ) ) ;
#406 = CARTESIAN_POINT ( 'NONE',  ( 1.377690807557168773, 0.03344389751626486440, -0.3631088166377003934 ) ) ;
#407 = ORIENTED_EDGE ( 'NONE', *, *, #542, .F. ) ;
#408 = VERTEX_POINT ( 'NONE', #728 ) ;
#409 = VECTOR ( 'NONE', #500, 1000.000000000000227 ) ;
#410 = AXIS2_PLACEMENT_3D ( 'NONE', #918, #369, #389 ) ;
#411 = CARTESIAN_POINT ( 'NONE',  ( 0.1600766733660975716, 0.2399999999999965772, 0.9701887281282300934 ) ) ;
#412 = CIRCLE ( 'NONE', #18, 3.190987308028661928 ) ;
#413 = DIRECTION ( 'NONE',  ( 0.000000000000000000, 0.000000000000000000, 1.000000000000000000 ) ) ;
#414 = EDGE_CURVE ( 'NONE', #446, #170, #613, .T. ) ;
#415 = VERTEX_POINT ( 'NONE', #619 ) ;
#416 =( NAMED_UNIT ( * ) PLANE_ANGLE_UNIT ( ) SI_UNIT ( $, .RADIAN. ) );
#417 = CARTESIAN_POINT ( 'NONE',  ( 0.9577065399045076033, 0.3060795708522662806, -0.2399999999999999911 ) ) ;
#418 = DIRECTION ( 'NONE',  ( -1.000000000000000000, -0.000000000000000000, -0.000000000000000000 ) ) ;
#419 = ORIENTED_EDGE ( 'NONE', *, *, #95, .T. ) ;
#420 = LINE ( 'NONE', #562, #409 ) ;
#421 = AXIS2_PLACEMENT_3D ( 'NONE', #79, #21, #645 ) ;
#422 = PLANE ( 'NONE',  #186 ) ;
#423 = CARTESIAN_POINT ( 'NONE',  ( 0.9577065399045082694, -0.3060795708522662806, 0.2399999999999998801 ) ) ;
#424 = VERTEX_POINT ( 'NONE', #75 ) ;
#425 = VERTEX_POINT ( 'NONE', #259 ) ;
#426 = EDGE_CURVE ( 'NONE', #766, #616, #57, .T. ) ;
#427 = AXIS2_PLACEMENT_3D ( 'NONE', #6, #22, #336 ) ;
#428 = CARTESIAN_POINT ( 'NONE',  ( 0.9577065399045073812, 0.3060795708522663361, 0.2399999999999999911 ) ) ;
#429 = EDGE_LOOP ( 'NONE', ( #898 ) ) ;
#430 = EDGE_CURVE ( 'NONE', #374, #478, #465, .T. ) ;
#431 = CARTESIAN_POINT ( 'NONE',  ( 1.419999999999999929, -0.2400000000000011846, 0.3420142349614992416 ) ) ;
#432 = ORIENTED_EDGE ( 'NONE', *, *, #430, .T. ) ;
#433 = ORIENTED_EDGE ( 'NONE', *, *, #332, .F. ) ;
#434 = CARTESIAN_POINT ( 'NONE',  ( 1.419999999999999485, 0.000000000000000000, 0.000000000000000000 ) ) ;
#435 = AXIS2_PLACEMENT_3D ( 'NONE', #569, #94, #335 ) ;
#436 = ADVANCED_FACE ( 'NONE', ( #520 ), #945, .F. ) ;
#437 = ORIENTED_EDGE ( 'NONE', *, *, #805, .F. ) ;
#438 = CARTESIAN_POINT ( 'NONE',  ( 3.200000000000000178, -1.347111479062087024E-16, 0.000000000000000000 ) ) ;
#439 = DIRECTION ( 'NONE',  ( -1.000000000000000000, -0.000000000000000000, -0.000000000000000000 ) ) ;
#440 = ADVANCED_FACE ( 'NONE', ( #769 ), #90, .F. ) ;
#441 = ORIENTED_EDGE ( 'NONE', *, *, #318, .F. ) ;
#442 = AXIS2_PLACEMENT_3D ( 'NONE', #331, #641, #630 ) ;
#443 = DIRECTION ( 'NONE',  ( -1.000000000000000000, -0.000000000000000000, -0.000000000000000000 ) ) ;
#444 = FACE_BOUND ( 'NONE', #202, .T. ) ;
#445 = CARTESIAN_POINT ( 'NONE',  ( 1.419999999999999485, 0.3420142349615013511, -0.09698717999663118705 ) ) ;
#446 = VERTEX_POINT ( 'NONE', #671 ) ;
#447 = DIRECTION ( 'NONE',  ( 0.000000000000000000, 0.000000000000000000, 1.000000000000000000 ) ) ;
#448 = DIRECTION ( 'NONE',  ( 0.000000000000000000, 0.000000000000000000, 1.000000000000000000 ) ) ;
#449 = AXIS2_PLACEMENT_3D ( 'NONE', #895, #293, #813 ) ;
#450 = PLANE ( 'NONE',  #126 ) ;
#451 = ORIENTED_EDGE ( 'NONE', *, *, #95, .F. ) ;
#452 = FILL_AREA_STYLE ('',( #82 ) ) ;
#453 = AXIS2_PLACEMENT_3D ( 'NONE', #871, #189, #14 ) ;
#454 = EDGE_CURVE ( 'NONE', #229, #652, #972, .T. ) ;
#455 = DIRECTION ( 'NONE',  ( 1.000000000000000000, 0.000000000000000000, 0.000000000000000000 ) ) ;
#456 = ORIENTED_EDGE ( 'NONE', *, *, #504, .T. ) ;
#457 = ORIENTED_EDGE ( 'NONE', *, *, #654, .T. ) ;
#458 = AXIS2_PLACEMENT_3D ( 'NONE', #796, #570, #869 ) ;
#459 = CARTESIAN_POINT ( 'NONE',  ( 0.03216144679288526070, -0.2399999999999985478, -0.3836650893874201662 ) ) ;
#460 = ADVANCED_FACE ( 'NONE', ( #844 ), #982, .T. ) ;
#461 = DIRECTION ( 'NONE',  ( -1.000000000000000000, -0.000000000000000000, -0.000000000000000000 ) ) ;
#462 = DIRECTION ( 'NONE',  ( 0.000000000000000000, 1.000000000000000000, 0.000000000000000000 ) ) ;
#463 = VERTEX_POINT ( 'NONE', #59 ) ;
#464 = CARTESIAN_POINT ( 'NONE',  ( 0.9577065399045073812, -0.2400000000000010458, 0.3060795708522655034 ) ) ;
#465 = LINE ( 'NONE', #303, #583 ) ;
#466 = EDGE_CURVE ( 'NONE', #478, #616, #828, .T. ) ;
#467 = ORIENTED_EDGE ( 'NONE', *, *, #717, .T. ) ;
#468 = DIRECTION ( 'NONE',  ( 0.000000000000000000, -3.649983831086925983E-15, 1.000000000000000000 ) ) ;
#469 = CIRCLE ( 'NONE', #533, 0.3554999999999999827 ) ;
#470 = CARTESIAN_POINT ( 'NONE',  ( 1.419999999999999485, -0.3420142349617957822, 0.09698717999559296199 ) ) ;
#471 = CARTESIAN_POINT ( 'NONE',  ( 1.377690807556258168, 0.03344389751664508803, 0.3631088166378693138 ) ) ;
#472 = ORIENTED_EDGE ( 'NONE', *, *, #44, .T. ) ;
#473 = DIRECTION ( 'NONE',  ( 0.000000000000000000, 1.000000000000000000, 1.613908117512289539E-16 ) ) ;
#474 = CIRCLE ( 'NONE', #839, 0.3554999999999999827 ) ;
#475 = DIRECTION ( 'NONE',  ( -1.000000000000000000, -0.000000000000000000, -0.000000000000000000 ) ) ;
#476 = DIRECTION ( 'NONE',  ( 0.000000000000000000, -1.000000000000000000, -3.491481338843133355E-15 ) ) ;
#477 = PRODUCT ( 'ISO 7045 - M2 x 8 - Z - 8N_ISO 7045 - M2 x 8 - Z - 8N', 'ISO 7045 - M2 x 8 - Z - 8N_ISO 7045 - M2 x 8 - Z - 8N', '', ( #731 ) ) ;
#478 = VERTEX_POINT ( 'NONE', #607 ) ;
#479 =( NAMED_UNIT ( * ) SI_UNIT ( $, .STERADIAN. ) SOLID_ANGLE_UNIT ( ) );
#480 = DIRECTION ( 'NONE',  ( 0.4461977533473617252, -0.8949343913984796339, 0.000000000000000000 ) ) ;
#481 = DIRECTION ( 'NONE',  ( 0.000000000000000000, 0.000000000000000000, 1.000000000000000000 ) ) ;
#482 = ORIENTED_EDGE ( 'NONE', *, *, #744, .F. ) ;
#483 = CARTESIAN_POINT ( 'NONE',  ( 1.419999999999999485, 0.000000000000000000, 0.000000000000000000 ) ) ;
#484 = AXIS2_PLACEMENT_3D ( 'NONE', #783, #178, #710 ) ;
#485 = EDGE_CURVE ( 'NONE', #67, #870, #602, .T. ) ;
#486 = CARTESIAN_POINT ( 'NONE',  ( 1.419999999999999929, 0.3420142349615000188, -0.2399999999999999911 ) ) ;
#487 = DIRECTION ( 'NONE',  ( 0.000000000000000000, 0.000000000000000000, 1.000000000000000000 ) ) ;
#488 = ORIENTED_EDGE ( 'NONE', *, *, #318, .T. ) ;
#489 = CARTESIAN_POINT ( 'NONE',  ( 1.419999999999999929, -0.3420142349617943944, -0.2399999999999999911 ) ) ;
#490 = CARTESIAN_POINT ( 'NONE',  ( 1.419999999999999929, -0.3420142349617946165, 0.2399999999999998801 ) ) ;
#491 = VECTOR ( 'NONE', #510, 1000.000000000000114 ) ;
#492 = EDGE_CURVE ( 'NONE', #508, #142, #139, .T. ) ;
#493 = FACE_OUTER_BOUND ( 'NONE', #647, .T. ) ;
#494 = ORIENTED_EDGE ( 'NONE', *, *, #339, .T. ) ;
#495 = DIRECTION ( 'NONE',  ( 0.000000000000000000, 0.000000000000000000, 1.000000000000000000 ) ) ;
#496 = CARTESIAN_POINT ( 'NONE',  ( 1.419999999999999929, -0.3420142349617944499, 0.2399999999999998801 ) ) ;
#497 = VECTOR ( 'NONE', #62, 1000.000000000000000 ) ;
#498 = ADVANCED_FACE ( 'NONE', ( #597 ), #127, .T. ) ;
#499 = ORIENTED_EDGE ( 'NONE', *, *, #592, .T. ) ;
#500 = DIRECTION ( 'NONE',  ( 0.8949343913984054710, -0.4461977533475103286, 0.000000000000000000 ) ) ;
#501 = AXIS2_PLACEMENT_3D ( 'NONE', #680, #461, #911 ) ;
#502 = CARTESIAN_POINT ( 'NONE',  ( 0.03216144679288519131, -0.3836650893874201662, 0.2399999999999998246 ) ) ;
#503 = VERTEX_POINT ( 'NONE', #748 ) ;
#504 = EDGE_CURVE ( 'NONE', #264, #92, #598, .T. ) ;
#505 = AXIS2_PLACEMENT_3D ( 'NONE', #646, #27, #12 ) ;
#506 = DIRECTION ( 'NONE',  ( -1.000000000000000000, -0.000000000000000000, -0.000000000000000000 ) ) ;
#507 = EDGE_LOOP ( 'NONE', ( #467, #116, #321, #767 ) ) ;
#508 = VERTEX_POINT ( 'NONE', #65 ) ;
#509 = ADVANCED_FACE ( 'NONE', ( #444, #146 ), #901, .F. ) ;
#510 = DIRECTION ( 'NONE',  ( 0.8949343913984795229, 0.4461977533473616697, 6.833026840748059490E-17 ) ) ;
#511 = VERTEX_POINT ( 'NONE', #215 ) ;
#512 = CARTESIAN_POINT ( 'NONE',  ( 0.03216144679288540642, -1.347111479062087024E-16, 0.000000000000000000 ) ) ;
#513 = ADVANCED_FACE ( 'NONE', ( #691, #994 ), #309, .T. ) ;
#514 = CARTESIAN_POINT ( 'NONE',  ( 1.419999999999999485, 0.000000000000000000, 0.000000000000000000 ) ) ;
#515 = AXIS2_PLACEMENT_3D ( 'NONE', #267, #575, #187 ) ;
#516 = ORIENTED_EDGE ( 'NONE', *, *, #952, .T. ) ;
#517 = ADVANCED_BREP_SHAPE_REPRESENTATION ( 'ISO 7045 - M2 x 8 - Z - 8N_ISO 7045 - M2 x 8 - Z - 8N', ( #942, #539 ), #328 ) ;
#518 = ORIENTED_EDGE ( 'NONE', *, *, #928, .T. ) ;
#519 = DIRECTION ( 'NONE',  ( 0.000000000000000000, 1.000000000000000000, 0.000000000000000000 ) ) ;
#520 = FACE_OUTER_BOUND ( 'NONE', #402, .T. ) ;
#521 = DIRECTION ( 'NONE',  ( 0.000000000000000000, 0.000000000000000000, 1.000000000000000000 ) ) ;
#522 = VECTOR ( 'NONE', #158, 1000.000000000000000 ) ;
#523 = ORIENTED_EDGE ( 'NONE', *, *, #928, .F. ) ;
#524 = DIRECTION ( 'NONE',  ( 0.4461977533475103841, 0.8949343913984054710, 0.000000000000000000 ) ) ;
#525 = CIRCLE ( 'NONE', #256, 0.3554999999999999827 ) ;
#526 = CARTESIAN_POINT ( 'NONE',  ( 1.419999999999999485, 0.000000000000000000, 0.000000000000000000 ) ) ;
#527 = FACE_OUTER_BOUND ( 'NONE', #689, .T. ) ;
#528 = ADVANCED_FACE ( 'NONE', ( #705 ), #11, .F. ) ;
#529 = ORIENTED_EDGE ( 'NONE', *, *, #226, .F. ) ;
#530 = CARTESIAN_POINT ( 'NONE',  ( 0.4949750842865068279, 0.2399999999999987976, 0.3454916401347379318 ) ) ;
#531 = PRESENTATION_LAYER_ASSIGNMENT (  '', '', ( #701 ) ) ;
#532 = CARTESIAN_POINT ( 'NONE',  ( 2.982187808281909103, -1.660012758815833228E-15, 0.4368637443197727621 ) ) ;
#533 = AXIS2_PLACEMENT_3D ( 'NONE', #572, #288, #447 ) ;
#534 = FACE_OUTER_BOUND ( 'NONE', #594, .T. ) ;
#535 = EDGE_LOOP ( 'NONE', ( #407, #281, #499, #936 ) ) ;
#536 = CARTESIAN_POINT ( 'NONE',  ( 0.03216144679288497621, -0.2400000000000013234, 0.3836650893874183343 ) ) ;
#537 = PRODUCT_RELATED_PRODUCT_CATEGORY ( 'part', '', ( #477 ) ) ;
#538 = DIRECTION ( 'NONE',  ( -0.000000000000000000, 0.000000000000000000, 1.000000000000000000 ) ) ;
#539 = AXIS2_PLACEMENT_3D ( 'NONE', #658, #87, #403 ) ;
#540 = CARTESIAN_POINT ( 'NONE',  ( 1.600000000000000089, 0.000000000000000000, 0.000000000000000000 ) ) ;
#541 = EDGE_LOOP ( 'NONE', ( #274, #809, #419, #757 ) ) ;
#542 = EDGE_CURVE ( 'NONE', #424, #508, #648, .T. ) ;
#543 = CARTESIAN_POINT ( 'NONE',  ( 0.03216144679288562847, -0.3836650893874222201, -0.2399999999999999911 ) ) ;
#544 = DIRECTION ( 'NONE',  ( 0.000000000000000000, 0.000000000000000000, 1.000000000000000000 ) ) ;
#545 = ORIENTED_EDGE ( 'NONE', *, *, #399, .T. ) ;
#546 = DIRECTION ( 'NONE',  ( -2.674148579671462509E-18, 1.000000000000000000, 3.649983831086926772E-15 ) ) ;
#547 = DIRECTION ( 'NONE',  ( 0.8949343913984795229, 0.4461977533473617807, 0.000000000000000000 ) ) ;
#548 = CARTESIAN_POINT ( 'NONE',  ( 0.03216144679288519131, -0.3836650893874201662, 0.2399999999999998246 ) ) ;
#549 = APPLICATION_CONTEXT ( 'automotive_design' ) ;
#550 = AXIS2_PLACEMENT_3D ( 'NONE', #157, #15, #324 ) ;
#551 = EDGE_LOOP ( 'NONE', ( #985, #236, #781, #193, #874, #893 ) ) ;
#552 = DIRECTION ( 'NONE',  ( 0.4461977533475103286, -3.124646727056469068E-15, 0.8949343913984053600 ) ) ;
#553 = CARTESIAN_POINT ( 'NONE',  ( 0.4949750842865074940, -0.2399999999999986866, -0.3454916401347379318 ) ) ;
#554 = DIRECTION ( 'NONE',  ( 0.4461977533473616697, 3.124646727056728209E-15, -0.8949343913984795229 ) ) ;
#555 = VECTOR ( 'NONE', #361, 1000.000000000000114 ) ;
#556 = ORIENTED_EDGE ( 'NONE', *, *, #958, .T. ) ;
#557 = CARTESIAN_POINT ( 'NONE',  ( 1.419999999999999485, 0.000000000000000000, 0.000000000000000000 ) ) ;
#558 = AXIS2_PLACEMENT_3D ( 'NONE', #864, #401, #706 ) ;
#559 = DIRECTION ( 'NONE',  ( 0.000000000000000000, 0.000000000000000000, 1.000000000000000000 ) ) ;
#560 = CARTESIAN_POINT ( 'NONE',  ( 1.419999999999999485, -0.09698717999559539060, -0.3420142349617950606 ) ) ;
#561 = ORIENTED_EDGE ( 'NONE', *, *, #359, .T. ) ;
#562 = CARTESIAN_POINT ( 'NONE',  ( 0.000000000000000000, 1.050000000000000044, -0.2399999999999999911 ) ) ;
#563 = EDGE_CURVE ( 'NONE', #990, #666, #756, .T. ) ;
#564 = CIRCLE ( 'NONE', #628, 1.000000000000000000 ) ;
#565 = CARTESIAN_POINT ( 'NONE',  ( -998.4644910479892133, 0.000000000000000000, 0.000000000000000000 ) ) ;
#566 = EDGE_LOOP ( 'NONE', ( #743, #350, #678, #739, #924, #913 ) ) ;
#567 = VERTEX_POINT ( 'NONE', #949 ) ;
#568 = ADVANCED_FACE ( 'NONE', ( #249 ), #848, .T. ) ;
#569 = CARTESIAN_POINT ( 'NONE',  ( 1.419999999999999485, 0.000000000000000000, 0.000000000000000000 ) ) ;
#570 = DIRECTION ( 'NONE',  ( -1.000000000000000000, -0.000000000000000000, -0.000000000000000000 ) ) ;
#571 = ORIENTED_EDGE ( 'NONE', *, *, #339, .F. ) ;
#572 = CARTESIAN_POINT ( 'NONE',  ( 1.419999999999999485, 0.000000000000000000, 0.000000000000000000 ) ) ;
#573 = CONICAL_SURFACE ( 'NONE', #558, 0.3554999999999999827, 0.06981317007976597933 ) ;
#574 = EDGE_CURVE ( 'NONE', #978, #396, #707, .T. ) ;
#575 = DIRECTION ( 'NONE',  ( 0.4461977533473616697, -0.8949343913984795229, 0.000000000000000000 ) ) ;
#576 = ORIENTED_EDGE ( 'NONE', *, *, #580, .T. ) ;
#577 = CARTESIAN_POINT ( 'NONE',  ( 1.419999999999999929, 0.3420142349615000188, 0.2399999999999999911 ) ) ;
#578 = AXIS2_PLACEMENT_3D ( 'NONE', #483, #955, #25 ) ;
#579 = CARTESIAN_POINT ( 'NONE',  ( 1.419999999999999929, 0.3420142349615000188, -0.2399999999999999911 ) ) ;
#580 = EDGE_CURVE ( 'NONE', #978, #176, #850, .T. ) ;
#581 = ORIENTED_EDGE ( 'NONE', *, *, #172, .T. ) ;
#582 = ORIENTED_EDGE ( 'NONE', *, *, #752, .F. ) ;
#583 = VECTOR ( 'NONE', #976, 1000.000000000000227 ) ;
#584 = LINE ( 'NONE', #431, #622 ) ;
#585 = ORIENTED_EDGE ( 'NONE', *, *, #137, .F. ) ;
#586 = VECTOR ( 'NONE', #787, 1000.000000000000000 ) ;
#587 = TOROIDAL_SURFACE ( 'NONE', #760, 1.820000000000000062, 0.1799999999999999656 ) ;
#588 = CARTESIAN_POINT ( 'NONE',  ( 0.000000000000000000, -1.050000000000000044, 0.2399999999999997691 ) ) ;
#589 = ORIENTED_EDGE ( 'NONE', *, *, #348, .F. ) ;
#590 = APPLICATION_PROTOCOL_DEFINITION ( 'draft international standard', 'automotive_design', 1998, #549 ) ;
#591 = EDGE_LOOP ( 'NONE', ( #98, #343, #205, #889 ) ) ;
#592 = EDGE_CURVE ( 'NONE', #845, #142, #74, .T. ) ;
#593 = FACE_OUTER_BOUND ( 'NONE', #610, .T. ) ;
#594 = EDGE_LOOP ( 'NONE', ( #561, #529, #45 ) ) ;
#595 = VERTEX_POINT ( 'NONE', #89 ) ;
#596 = FACE_OUTER_BOUND ( 'NONE', #903, .T. ) ;
#597 = FACE_OUTER_BOUND ( 'NONE', #287, .T. ) ;
#598 = CIRCLE ( 'NONE', #631, 3.162547694191800485 ) ;
#599 = ORIENTED_EDGE ( 'NONE', *, *, #165, .T. ) ;
#600 = ORIENTED_EDGE ( 'NONE', *, *, #580, .F. ) ;
#601 = CARTESIAN_POINT ( 'NONE',  ( 1.419999999999999929, 0.2400000000000011846, -0.3420142349617935618 ) ) ;
#602 = LINE ( 'NONE', #290, #896 ) ;
#603 = EDGE_CURVE ( 'NONE', #567, #567, #802, .T. ) ;
#604 = CARTESIAN_POINT ( 'NONE',  ( 1.377690807556258834, 0.3631088166378687587, -0.03344389751664501170 ) ) ;
#605 = VERTEX_POINT ( 'NONE', #405 ) ;
#606 = DIRECTION ( 'NONE',  ( -0.000000000000000000, 0.000000000000000000, -1.000000000000000000 ) ) ;
#607 = CARTESIAN_POINT ( 'NONE',  ( 1.419999999999999929, -0.2400000000000011846, 0.3420142349614991861 ) ) ;
#608 = ADVANCED_FACE ( 'NONE', ( #779 ), #5, .T. ) ;
#609 = CARTESIAN_POINT ( 'NONE',  ( 1.419999999999999929, -0.2400000000000011846, 0.3420142349614992416 ) ) ;
#610 = EDGE_LOOP ( 'NONE', ( #786, #164, #585, #437 ) ) ;
#611 = CARTESIAN_POINT ( 'NONE',  ( 0.4949750842865068279, -0.2400000000000012124, 0.3454916401347362109 ) ) ;
#612 = CARTESIAN_POINT ( 'NONE',  ( 0.000000000000000000, 1.050000000000000044, 0.2400000000000000189 ) ) ;
#613 = CIRCLE ( 'NONE', #501, 0.4525471255180573693 ) ;
#614 = PLANE ( 'NONE',  #233 ) ;
#615 = AXIS2_PLACEMENT_3D ( 'NONE', #122, #900, #365 ) ;
#616 = VERTEX_POINT ( 'NONE', #788 ) ;
#617 = DIRECTION ( 'NONE',  ( 0.000000000000000000, 0.000000000000000000, 1.000000000000000000 ) ) ;
#618 = ADVANCED_FACE ( 'NONE', ( #774 ), #277, .F. ) ;
#619 = CARTESIAN_POINT ( 'NONE',  ( 1.419999999999999929, 0.3420142349614999633, -0.2399999999999999911 ) ) ;
#620 = PLANE ( 'NONE',  #410 ) ;
#621 = VERTEX_POINT ( 'NONE', #411 ) ;
#622 = VECTOR ( 'NONE', #33, 1000.000000000000000 ) ;
#623 = LINE ( 'NONE', #73, #255 ) ;
#624 = DIRECTION ( 'NONE',  ( -2.674148579671462124E-18, 1.585024922437928498E-16, -1.000000000000000000 ) ) ;
#625 = CARTESIAN_POINT ( 'NONE',  ( 3.200000000000000178, -1.347111479062087024E-16, -0.2399999999999999911 ) ) ;
#626 = ORIENTED_EDGE ( 'NONE', *, *, #278, .F. ) ;
#627 = CARTESIAN_POINT ( 'NONE',  ( 1.700000000000000178, 0.000000000000000000, 0.000000000000000000 ) ) ;
#628 = AXIS2_PLACEMENT_3D ( 'NONE', #627, #633, #617 ) ;
#629 = CARTESIAN_POINT ( 'NONE',  ( 1.419999999999999929, 0.3420142349614999633, 0.2399999999999999911 ) ) ;
#630 = DIRECTION ( 'NONE',  ( 0.000000000000000000, 3.491138085776583977E-15, -1.000000000000000000 ) ) ;
#631 = AXIS2_PLACEMENT_3D ( 'NONE', #532, #759, #897 ) ;
#632 = EDGE_LOOP ( 'NONE', ( #29 ) ) ;
#633 = DIRECTION ( 'NONE',  ( 1.000000000000000000, 0.000000000000000000, 0.000000000000000000 ) ) ;
#634 = UNCERTAINTY_MEASURE_WITH_UNIT (LENGTH_MEASURE( 1.000000000000000082E-05 ), #327, 'distance_accuracy_value', 'NONE');
#635 = DIRECTION ( 'NONE',  ( 0.000000000000000000, 0.000000000000000000, 1.000000000000000000 ) ) ;
#636 = CARTESIAN_POINT ( 'NONE',  ( 0.000000000000000000, 0.2400000000000036271, -1.049999999999999378 ) ) ;
#637 = ADVANCED_FACE ( 'NONE', ( #868 ), #715, .T. ) ;
#638 = ORIENTED_EDGE ( 'NONE', *, *, #843, .F. ) ;
#639 = AXIS2_PLACEMENT_3D ( 'NONE', #100, #169, #413 ) ;
#640 = DIRECTION ( 'NONE',  ( 0.000000000000000000, 0.000000000000000000, 1.000000000000000000 ) ) ;
#641 = DIRECTION ( 'NONE',  ( 0.000000000000000000, -1.000000000000000000, -3.491481338843133355E-15 ) ) ;
#642 = ADVANCED_FACE ( 'NONE', ( #388 ), #319, .T. ) ;
#643 = ORIENTED_EDGE ( 'NONE', *, *, #816, .F. ) ;
#644 = DIRECTION ( 'NONE',  ( 0.000000000000000000, -3.652528897527812881E-15, 1.000000000000000000 ) ) ;
#645 = DIRECTION ( 'NONE',  ( 0.000000000000000000, 0.000000000000000000, 1.000000000000000000 ) ) ;
#646 = CARTESIAN_POINT ( 'NONE',  ( 1.419999999999999485, 0.000000000000000000, 0.000000000000000000 ) ) ;
#647 = EDGE_LOOP ( 'NONE', ( #61, #326, #969, #996, #354, #370 ) ) ;
#648 = CIRCLE ( 'NONE', #484, 0.3554999999999999827 ) ;
#649 = EDGE_CURVE ( 'NONE', #845, #424, #980, .T. ) ;
#650 = SPHERICAL_SURFACE ( 'NONE', #110, 3.200000000000000622 ) ;
#651 = CARTESIAN_POINT ( 'NONE',  ( 1.377690807557168773, -0.03344389751626197782, -0.3631088166377005599 ) ) ;
#652 = VERTEX_POINT ( 'NONE', #629 ) ;
#653 = VERTEX_POINT ( 'NONE', #30 ) ;
#654 = EDGE_CURVE ( 'NONE', #508, #990, #832, .T. ) ;
#655 = LINE ( 'NONE', #297, #925 ) ;
#656 = CARTESIAN_POINT ( 'NONE',  ( 1.419999999999999485, 0.2622598901852885023, 0.2400000000000009348 ) ) ;
#657 = ORIENTED_EDGE ( 'NONE', *, *, #17, .F. ) ;
#658 = CARTESIAN_POINT ( 'NONE',  ( 0.000000000000000000, 0.000000000000000000, 0.000000000000000000 ) ) ;
#659 = CARTESIAN_POINT ( 'NONE',  ( 0.1600766733661066754, -0.9701887281282578490, -0.2400000000000000744 ) ) ;
#660 = EDGE_LOOP ( 'NONE', ( #663 ) ) ;
#661 = DIRECTION ( 'NONE',  ( 0.000000000000000000, 0.000000000000000000, 1.000000000000000000 ) ) ;
#662 = EDGE_CURVE ( 'NONE', #34, #939, #243, .T. ) ;
#663 = ORIENTED_EDGE ( 'NONE', *, *, #983, .T. ) ;
#664 = VECTOR ( 'NONE', #191, 1000.000000000000000 ) ;
#665 = CARTESIAN_POINT ( 'NONE',  ( 1.419999999999999929, -0.3420142349617943944, -0.2399999999999999911 ) ) ;
#666 = VERTEX_POINT ( 'NONE', #746 ) ;
#667 = ADVANCED_FACE ( 'NONE', ( #970 ), #673, .F. ) ;
#668 = EDGE_LOOP ( 'NONE', ( #433 ) ) ;
#669 = LINE ( 'NONE', #207, #755 ) ;
#670 =( GEOMETRIC_REPRESENTATION_CONTEXT ( 3 ) GLOBAL_UNCERTAINTY_ASSIGNED_CONTEXT ( ( #634 ) ) GLOBAL_UNIT_ASSIGNED_CONTEXT ( ( #327, #416, #334 ) ) REPRESENTATION_CONTEXT ( 'NONE', 'WORKASPACE' ) );
#671 = CARTESIAN_POINT ( 'NONE',  ( 0.03216144679288562847, 0.3836650893874219981, -0.2399999999999999911 ) ) ;
#672 = ORIENTED_EDGE ( 'NONE', *, *, #732, .F. ) ;
#673 = PLANE ( 'NONE',  #192 ) ;
#674 = EDGE_CURVE ( 'NONE', #766, #337, #271, .T. ) ;
#675 = AXIS2_PLACEMENT_3D ( 'NONE', #244, #329, #855 ) ;
#676 = DIRECTION ( 'NONE',  ( -1.000000000000000000, 0.000000000000000000, -0.000000000000000000 ) ) ;
#677 = CARTESIAN_POINT ( 'NONE',  ( 1.419999999999999929, 0.2400000000000011846, -0.3420142349617935618 ) ) ;
#678 = ORIENTED_EDGE ( 'NONE', *, *, #837, .F. ) ;
#679 = FACE_OUTER_BOUND ( 'NONE', #535, .T. ) ;
#680 = CARTESIAN_POINT ( 'NONE',  ( 0.03216144679288540642, -1.347111479062087024E-16, 0.000000000000000000 ) ) ;
#681 = AXIS2_PLACEMENT_3D ( 'NONE', #856, #418, #481 ) ;
#682 = DIRECTION ( 'NONE',  ( 0.000000000000000000, 0.000000000000000000, 1.000000000000000000 ) ) ;
#683 = ORIENTED_EDGE ( 'NONE', *, *, #23, .F. ) ;
#684 = DIRECTION ( 'NONE',  ( 1.000000000000000000, 0.000000000000000000, 0.000000000000000000 ) ) ;
#685 = DIRECTION ( 'NONE',  ( 0.000000000000000000, -1.000000000000000000, -1.585024922437928251E-16 ) ) ;
#686 = AXIS2_PLACEMENT_3D ( 'NONE', #991, #242, #468 ) ;
#687 = CARTESIAN_POINT ( 'NONE',  ( 0.1600766733661066754, 0.2400000000000034606, -0.9701887281282569608 ) ) ;
#688 = ADVANCED_FACE ( 'NONE', ( #340 ), #692, .F. ) ;
#689 = EDGE_LOOP ( 'NONE', ( #182 ) ) ;
#690 = DIRECTION ( 'NONE',  ( 0.000000000000000000, -1.000000000000000000, -3.491481338843133355E-15 ) ) ;
#691 = FACE_OUTER_BOUND ( 'NONE', #632, .T. ) ;
#692 = CONICAL_SURFACE ( 'NONE', #387, 0.3554999999999999827, 0.06981317007976597933 ) ;
#693 = LINE ( 'NONE', #902, #950 ) ;
#694 = EDGE_LOOP ( 'NONE', ( #284, #482 ) ) ;
#695 = FACE_OUTER_BOUND ( 'NONE', #356, .T. ) ;
#696 = CARTESIAN_POINT ( 'NONE',  ( 0.03216144679288526070, -0.2399999999999985478, -0.3836650893874201662 ) ) ;
#697 = DIRECTION ( 'NONE',  ( -1.000000000000000000, 0.000000000000000000, 0.000000000000000000 ) ) ;
#698 = ORIENTED_EDGE ( 'NONE', *, *, #752, .T. ) ;
#699 = AXIS2_PLACEMENT_3D ( 'NONE', #273, #953, #39 ) ;
#700 = PLANE ( 'NONE',  #220 ) ;
#701 = STYLED_ITEM ( 'NONE', ( #230 ), #942 ) ;
#702 = ORIENTED_EDGE ( 'NONE', *, *, #941, .F. ) ;
#703 = CARTESIAN_POINT ( 'NONE',  ( 1.419999999999999929, -0.2399999999999986866, -0.3420142349617952826 ) ) ;
#704 = EDGE_CURVE ( 'NONE', #176, #959, #770, .T. ) ;
#705 = FACE_OUTER_BOUND ( 'NONE', #347, .T. ) ;
#706 = DIRECTION ( 'NONE',  ( 0.000000000000000000, 0.000000000000000000, 1.000000000000000000 ) ) ;
#707 = CIRCLE ( 'NONE', #174, 3.162547694191800041 ) ;
#708 = ORIENTED_EDGE ( 'NONE', *, *, #252, .F. ) ;
#709 = DIRECTION ( 'NONE',  ( -1.000000000000000000, -0.000000000000000000, -0.000000000000000000 ) ) ;
#710 = DIRECTION ( 'NONE',  ( 0.000000000000000000, 0.000000000000000000, 1.000000000000000000 ) ) ;
#711 = CARTESIAN_POINT ( 'NONE',  ( 0.03216144679288494845, 0.2400000000000012956, -0.3836650893874183899 ) ) ;
#712 = ORIENTED_EDGE ( 'NONE', *, *, #915, .F. ) ;
#713 = CARTESIAN_POINT ( 'NONE',  ( 1.600000000000000089, 0.000000000000000000, 1.100000000000000089 ) ) ;
#714 = AXIS2_PLACEMENT_3D ( 'NONE', #434, #887, #661 ) ;
#715 = PLANE ( 'NONE',  #421 ) ;
#716 = DIRECTION ( 'NONE',  ( 0.8949343913984795229, -1.557891129246044565E-15, 0.4461977533473616697 ) ) ;
#717 = EDGE_CURVE ( 'NONE', #67, #112, #213, .T. ) ;
#718 = ORIENTED_EDGE ( 'NONE', *, *, #988, .T. ) ;
#719 = DIRECTION ( 'NONE',  ( 0.000000000000000000, 0.000000000000000000, 1.000000000000000000 ) ) ;
#720 = CARTESIAN_POINT ( 'NONE',  ( 1.419999999999999485, 0.2622598901852885023, -0.2400000000000009348 ) ) ;
#721 = PLANE ( 'NONE',  #427 ) ;
#722 = ORIENTED_EDGE ( 'NONE', *, *, #592, .F. ) ;
#723 = PRODUCT_DEFINITION ( 'General', '', #791, #184 ) ;
#724 = VECTOR ( 'NONE', #51, 1000.000000000000000 ) ;
#725 = DIRECTION ( 'NONE',  ( -0.8949343913984053600, 0.4461977533475103286, 0.000000000000000000 ) ) ;
#726 = CARTESIAN_POINT ( 'NONE',  ( 1.419999999999999485, -0.2622598901852885578, 0.2400000000000008238 ) ) ;
#727 = ORIENTED_EDGE ( 'NONE', *, *, #172, .F. ) ;
#728 = CARTESIAN_POINT ( 'NONE',  ( 0.7900207469772670965, 0.000000000000000000, 2.000000000000000000 ) ) ;
#729 = PLANE ( 'NONE',  #515 ) ;
#730 = EDGE_LOOP ( 'NONE', ( #818 ) ) ;
#731 = PRODUCT_CONTEXT ( 'NONE', #549, 'mechanical' ) ;
#732 = EDGE_CURVE ( 'NONE', #77, #446, #341, .T. ) ;
#733 = PLANE ( 'NONE',  #699 ) ;
#734 = ORIENTED_EDGE ( 'NONE', *, *, #102, .T. ) ;
#735 = CARTESIAN_POINT ( 'NONE',  ( 1.419999999999999929, 0.3420142349615000188, 0.2399999999999999911 ) ) ;
#736 = EDGE_CURVE ( 'NONE', #990, #666, #469, .T. ) ;
#737 = ORIENTED_EDGE ( 'NONE', *, *, #921, .T. ) ;
#738 = SHAPE_DEFINITION_REPRESENTATION ( #272, #517 ) ;
#739 = ORIENTED_EDGE ( 'NONE', *, *, #504, .F. ) ;
#740 = CARTESIAN_POINT ( 'NONE',  ( 1.419999999999999485, -0.2622598901852885578, 0.2400000000000008238 ) ) ;
#741 = CIRCLE ( 'NONE', #821, 3.162547694191714331 ) ;
#742 = FACE_OUTER_BOUND ( 'NONE', #551, .T. ) ;
#743 = ORIENTED_EDGE ( 'NONE', *, *, #165, .F. ) ;
#744 = EDGE_CURVE ( 'NONE', #605, #463, #28, .T. ) ;
#745 = ORIENTED_EDGE ( 'NONE', *, *, #998, .T. ) ;
#746 = CARTESIAN_POINT ( 'NONE',  ( 1.419999999999999485, -0.3420142349617957822, 0.09698717999559296199 ) ) ;
#747 = CIRCLE ( 'NONE', #190, 3.190987308028661928 ) ;
#748 = CARTESIAN_POINT ( 'NONE',  ( 1.419999999999999929, -0.3420142349617943944, -0.2399999999999999911 ) ) ;
#749 = ORIENTED_EDGE ( 'NONE', *, *, #654, .F. ) ;
#750 = AXIS2_PLACEMENT_3D ( 'NONE', #160, #143, #473 ) ;
#751 = FACE_OUTER_BOUND ( 'NONE', #948, .T. ) ;
#752 = EDGE_CURVE ( 'NONE', #503, #508, #669, .T. ) ;
#753 = CARTESIAN_POINT ( 'NONE',  ( 1.419999999999999485, 0.000000000000000000, 0.000000000000000000 ) ) ;
#754 = CARTESIAN_POINT ( 'NONE',  ( 2.982187808281589358, -0.4368637443202320059, 0.000000000000000000 ) ) ;
#755 = VECTOR ( 'NONE', #130, 1000.000000000000000 ) ;
#756 =( BOUNDED_CURVE ( )  B_SPLINE_CURVE ( 3, ( #859, #400, #261, #470 ),
 .UNSPECIFIED., .F., .F. ) 
 B_SPLINE_CURVE_WITH_KNOTS ( ( 4, 4 ),
 ( 5.965618998246702276, 6.600751616112470188 ),
 .UNSPECIFIED. ) 
 CURVE ( )  GEOMETRIC_REPRESENTATION_ITEM ( )  RATIONAL_B_SPLINE_CURVE ( ( 1.000000000000000000, 0.9666654427107680414, 0.9666654427107680414, 1.000000000000000000 ) ) 
 REPRESENTATION_ITEM ( '' )  );
#757 = ORIENTED_EDGE ( 'NONE', *, *, #988, .F. ) ;
#758 = DIRECTION ( 'NONE',  ( 1.000000000000000000, 0.000000000000000000, 0.000000000000000000 ) ) ;
#759 = DIRECTION ( 'NONE',  ( 0.4461977533473617252, 3.124646727056728209E-15, -0.8949343913984796339 ) ) ;
#760 = AXIS2_PLACEMENT_3D ( 'NONE', #304, #907, #984 ) ;
#761 = LINE ( 'NONE', #609, #981 ) ;
#762 = ORIENTED_EDGE ( 'NONE', *, *, #964, .T. ) ;
#763 = DIRECTION ( 'NONE',  ( -1.000000000000000000, -0.000000000000000000, -0.000000000000000000 ) ) ;
#764 = CARTESIAN_POINT ( 'NONE',  ( 1.419999999999999929, 0.3420142349614997967, -0.2399999999999999911 ) ) ;
#765 = ADVANCED_FACE ( 'NONE', ( #596, #751 ), #650, .T. ) ;
#766 = VERTEX_POINT ( 'NONE', #740 ) ;
#767 = ORIENTED_EDGE ( 'NONE', *, *, #837, .T. ) ;
#768 = CARTESIAN_POINT ( 'NONE',  ( 1.419999999999999929, 0.2399999999999987976, 0.3420142349615007960 ) ) ;
#769 = FACE_OUTER_BOUND ( 'NONE', #333, .T. ) ;
#770 = CIRCLE ( 'NONE', #880, 0.4525471255180573693 ) ;
#771 = FACE_OUTER_BOUND ( 'NONE', #103, .T. ) ;
#772 = ORIENTED_EDGE ( 'NONE', *, *, #485, .T. ) ;
#773 = DIRECTION ( 'NONE',  ( -1.000000000000000000, 0.000000000000000000, 0.000000000000000000 ) ) ;
#774 = FACE_OUTER_BOUND ( 'NONE', #269, .T. ) ;
#775 = CARTESIAN_POINT ( 'NONE',  ( 3.200000000000000178, 0.2399999999999999911, 8.379555213223523800E-16 ) ) ;
#776 = ORIENTED_EDGE ( 'NONE', *, *, #971, .F. ) ;
#777 = CARTESIAN_POINT ( 'NONE',  ( 3.200000000000000178, -0.2399999999999998801, -8.759961194608613406E-16 ) ) ;
#778 = EDGE_CURVE ( 'NONE', #396, #503, #46, .T. ) ;
#779 = FACE_OUTER_BOUND ( 'NONE', #364, .T. ) ;
#780 = CARTESIAN_POINT ( 'NONE',  ( 0.1600766733660975716, 0.9701887281282295383, 0.2399999999999998523 ) ) ;
#781 = ORIENTED_EDGE ( 'NONE', *, *, #778, .F. ) ;
#782 = ADVANCED_FACE ( 'NONE', ( #819 ), #371, .T. ) ;
#783 = CARTESIAN_POINT ( 'NONE',  ( 1.419999999999999485, 0.000000000000000000, 0.000000000000000000 ) ) ;
#784 = CARTESIAN_POINT ( 'NONE',  ( 1.419999999999999485, -0.09698717999663618305, 0.3420142349614999078 ) ) ;
#785 = AXIS2_PLACEMENT_3D ( 'NONE', #753, #227, #133 ) ;
#786 = ORIENTED_EDGE ( 'NONE', *, *, #414, .T. ) ;
#787 = DIRECTION ( 'NONE',  ( 0.000000000000000000, -1.129377263005734114E-16, 1.000000000000000000 ) ) ;
#788 = CARTESIAN_POINT ( 'NONE',  ( 1.419999999999999485, -0.2400000000000008793, 0.2622598901852885023 ) ) ;
#789 = EDGE_CURVE ( 'NONE', #621, #861, #655, .T. ) ;
#790 = CARTESIAN_POINT ( 'NONE',  ( 1.419999999999999929, -0.2400000000000011846, 0.3420142349614992416 ) ) ;
#791 = PRODUCT_DEFINITION_FORMATION_WITH_SPECIFIED_SOURCE ( 'Symmetric', '', #477, .NOT_KNOWN. ) ;
#792 = ORIENTED_EDGE ( 'NONE', *, *, #35, .F. ) ;
#793 =( LENGTH_UNIT ( ) NAMED_UNIT ( * ) SI_UNIT ( .MILLI., .METRE. ) );
#794 = AXIS2_PLACEMENT_3D ( 'NONE', #934, #251, #487 ) ;
#795 = CARTESIAN_POINT ( 'NONE',  ( 1.419999999999999485, 0.000000000000000000, 0.000000000000000000 ) ) ;
#796 = CARTESIAN_POINT ( 'NONE',  ( 0.6463795994461132288, 0.000000000000000000, 0.000000000000000000 ) ) ;
#797 = ADVANCED_FACE ( 'NONE', ( #679 ), #905, .F. ) ;
#798 = ORIENTED_EDGE ( 'NONE', *, *, #958, .F. ) ;
#799 = CARTESIAN_POINT ( 'NONE',  ( 0.03216144679288462926, 0.2399999999999986589, 0.3836650893874201662 ) ) ;
#800 = CARTESIAN_POINT ( 'NONE',  ( 0.4949750842865069389, -0.3454916401347371546, 0.2399999999999998801 ) ) ;
#801 = ORIENTED_EDGE ( 'NONE', *, *, #35, .T. ) ;
#802 = CIRCLE ( 'NONE', #323, 2.000000000000000000 ) ;
#803 = CARTESIAN_POINT ( 'NONE',  ( 1.419999999999999485, 0.000000000000000000, 0.000000000000000000 ) ) ;
#804 = ORIENTED_EDGE ( 'NONE', *, *, #662, .F. ) ;
#805 = EDGE_CURVE ( 'NONE', #446, #511, #214, .T. ) ;
#806 = CIRCLE ( 'NONE', #144, 2.000000000000000000 ) ;
#807 = DIRECTION ( 'NONE',  ( 0.000000000000000000, 0.000000000000000000, 1.000000000000000000 ) ) ;
#808 = ORIENTED_EDGE ( 'NONE', *, *, #71, .F. ) ;
#809 = ORIENTED_EDGE ( 'NONE', *, *, #805, .T. ) ;
#810 = AXIS2_PLACEMENT_3D ( 'NONE', #910, #690, #758 ) ;
#811 = LINE ( 'NONE', #588, #491 ) ;
#812 = ORIENTED_EDGE ( 'NONE', *, *, #964, .F. ) ;
#813 = DIRECTION ( 'NONE',  ( 1.000000000000000000, 0.000000000000000000, 0.000000000000000000 ) ) ;
#814 = AXIS2_PLACEMENT_3D ( 'NONE', #937, #394, #943 ) ;
#815 = DIRECTION ( 'NONE',  ( -1.000000000000000000, -0.000000000000000000, -0.000000000000000000 ) ) ;
#816 = EDGE_CURVE ( 'NONE', #148, #34, #114, .T. ) ;
#817 = ORIENTED_EDGE ( 'NONE', *, *, #736, .F. ) ;
#818 = ORIENTED_EDGE ( 'NONE', *, *, #603, .T. ) ;
#819 = FACE_OUTER_BOUND ( 'NONE', #120, .T. ) ;
#820 = AXIS2_PLACEMENT_3D ( 'NONE', #995, #310, #521 ) ;
#821 = AXIS2_PLACEMENT_3D ( 'NONE', #754, #128, #373 ) ;
#822 = CARTESIAN_POINT ( 'NONE',  ( 1.419999999999999485, 0.000000000000000000, 0.000000000000000000 ) ) ;
#823 = ADVANCED_FACE ( 'NONE', ( #185 ), #422, .T. ) ;
#824 = CARTESIAN_POINT ( 'NONE',  ( 1.419999999999999929, 0.3420142349615000188, -0.2399999999999999911 ) ) ;
#825 = EDGE_LOOP ( 'NONE', ( #360, #24, #197, #311, #718, #589 ) ) ;
#826 = DIRECTION ( 'NONE',  ( -1.000000000000000000, -0.000000000000000000, -0.000000000000000000 ) ) ;
#827 = AXIS2_PLACEMENT_3D ( 'NONE', #872, #443, #219 ) ;
#828 = LINE ( 'NONE', #838, #308 ) ;
#829 = COLOUR_RGB ( '',0.7921568627450980005, 0.8196078431372548767, 0.9333333333333333481 ) ;
#830 = ORIENTED_EDGE ( 'NONE', *, *, #574, .T. ) ;
#831 = PLANE ( 'NONE',  #875 ) ;
#832 = CIRCLE ( 'NONE', #993, 0.3554999999999999827 ) ;
#833 = DIRECTION ( 'NONE',  ( 0.000000000000000000, 0.000000000000000000, -1.000000000000000000 ) ) ;
#834 = EDGE_LOOP ( 'NONE', ( #451, #626, #919 ) ) ;
#835 = ORIENTED_EDGE ( 'NONE', *, *, #983, .F. ) ;
#836 = DIRECTION ( 'NONE',  ( 0.8949343913984054710, 0.000000000000000000, -0.4461977533475104396 ) ) ;
#837 = EDGE_CURVE ( 'NONE', #92, #67, #623, .T. ) ;
#838 = CARTESIAN_POINT ( 'NONE',  ( 1.419999999999999929, -0.2400000000000011846, 0.3420142349614992416 ) ) ;
#839 = AXIS2_PLACEMENT_3D ( 'NONE', #60, #134, #315 ) ;
#840 = VECTOR ( 'NONE', #877, 1000.000000000000000 ) ;
#841 = ORIENTED_EDGE ( 'NONE', *, *, #542, .T. ) ;
#842 = ORIENTED_EDGE ( 'NONE', *, *, #392, .T. ) ;
#843 = EDGE_CURVE ( 'NONE', #344, #344, #564, .T. ) ;
#844 = FACE_OUTER_BOUND ( 'NONE', #883, .T. ) ;
#845 = VERTEX_POINT ( 'NONE', #459 ) ;
#846 = VERTEX_POINT ( 'NONE', #317 ) ;
#847 = DIRECTION ( 'NONE',  ( 0.000000000000000000, -3.652528897527812881E-15, 1.000000000000000000 ) ) ;
#848 = PLANE ( 'NONE',  #814 ) ;
#849 = AXIS2_PLACEMENT_3D ( 'NONE', #916, #234, #151 ) ;
#850 = CIRCLE ( 'NONE', #550, 3.190987308028661928 ) ;
#851 = DIRECTION ( 'NONE',  ( 0.000000000000000000, 0.000000000000000000, 1.000000000000000000 ) ) ;
#852 = ADVANCED_FACE ( 'NONE', ( #695 ), #38, .F. ) ;
#853 = ORIENTED_EDGE ( 'NONE', *, *, #44, .F. ) ;
#854 = CARTESIAN_POINT ( 'NONE',  ( 1.419999999999999485, 0.2622598901852885023, 0.2400000000000009348 ) ) ;
#855 = DIRECTION ( 'NONE',  ( 0.000000000000000000, 0.000000000000000000, -1.000000000000000000 ) ) ;
#856 = CARTESIAN_POINT ( 'NONE',  ( 1.419999999999999485, 0.000000000000000000, 0.000000000000000000 ) ) ;
#857 = EDGE_LOOP ( 'NONE', ( #708 ) ) ;
#858 = DIRECTION ( 'NONE',  ( -2.674148579671462509E-18, 1.000000000000000000, 3.649983831086926772E-15 ) ) ;
#859 = CARTESIAN_POINT ( 'NONE',  ( 1.419999999999999485, -0.3420142349617957267, -0.09698717999559303138 ) ) ;
#860 = LINE ( 'NONE', #790, #522 ) ;
#861 = VERTEX_POINT ( 'NONE', #768 ) ;
#862 = CARTESIAN_POINT ( 'NONE',  ( 1.419999999999999485, -0.3420142349617957267, -0.09698717999559303138 ) ) ;
#863 = EDGE_CURVE ( 'NONE', #264, #845, #747, .T. ) ;
#864 = CARTESIAN_POINT ( 'NONE',  ( 1.419999999999999485, 0.000000000000000000, 0.000000000000000000 ) ) ;
#865 = AXIS2_PLACEMENT_3D ( 'NONE', #822, #367, #53 ) ;
#866 = VERTEX_POINT ( 'NONE', #703 ) ;
#867 = CARTESIAN_POINT ( 'NONE',  ( 1.419999999999999929, 0.2400000000000011846, -0.3420142349617935618 ) ) ;
#868 = FACE_OUTER_BOUND ( 'NONE', #946, .T. ) ;
#869 = DIRECTION ( 'NONE',  ( 0.000000000000000000, 0.000000000000000000, 1.000000000000000000 ) ) ;
#870 = VERTEX_POINT ( 'NONE', #312 ) ;
#871 = CARTESIAN_POINT ( 'NONE',  ( 9.599999999999997868, 0.000000000000000000, 0.000000000000000000 ) ) ;
#872 = CARTESIAN_POINT ( 'NONE',  ( 1.419999999999999485, 0.000000000000000000, 0.000000000000000000 ) ) ;
#873 = DIRECTION ( 'NONE',  ( -1.000000000000000000, -0.000000000000000000, -0.000000000000000000 ) ) ;
#874 = ORIENTED_EDGE ( 'NONE', *, *, #289, .T. ) ;
#875 = AXIS2_PLACEMENT_3D ( 'NONE', #248, #773, #224 ) ;
#876 = CIRCLE ( 'NONE', #453, 1.000000000000000000 ) ;
#877 = DIRECTION ( 'NONE',  ( 0.000000000000000000, 0.000000000000000000, -1.000000000000000000 ) ) ;
#878 = ADVANCED_FACE ( 'NONE', ( #920 ), #9, .T. ) ;
#879 = ORIENTED_EDGE ( 'NONE', *, *, #674, .T. ) ;
#880 = AXIS2_PLACEMENT_3D ( 'NONE', #512, #826, #32 ) ;
#881 = ORIENTED_EDGE ( 'NONE', *, *, #226, .T. ) ;
#882 = CARTESIAN_POINT ( 'NONE',  ( 1.419999999999999485, 0.000000000000000000, 0.000000000000000000 ) ) ;
#883 = EDGE_LOOP ( 'NONE', ( #698, #390, #801, #956 ) ) ;
#884 = AXIS2_PLACEMENT_3D ( 'NONE', #979, #125, #904 ) ;
#885 = ADVANCED_FACE ( 'NONE', ( #155 ), #149, .T. ) ;
#886 = CIRCLE ( 'NONE', #714, 0.3554999999999999827 ) ;
#887 = DIRECTION ( 'NONE',  ( -1.000000000000000000, -0.000000000000000000, -0.000000000000000000 ) ) ;
#888 = EDGE_LOOP ( 'NONE', ( #638 ) ) ;
#889 = ORIENTED_EDGE ( 'NONE', *, *, #283, .F. ) ;
#890 = CARTESIAN_POINT ( 'NONE',  ( 1.419999999999999929, 0.3420142349615000188, 0.2399999999999999911 ) ) ;
#891 = ADVANCED_FACE ( 'NONE', ( #237 ), #831, .T. ) ;
#892 = DIRECTION ( 'NONE',  ( 0.000000000000000000, 0.000000000000000000, 1.000000000000000000 ) ) ;
#893 = ORIENTED_EDGE ( 'NONE', *, *, #352, .F. ) ;
#894 = ORIENTED_EDGE ( 'NONE', *, *, #816, .T. ) ;
#895 = CARTESIAN_POINT ( 'NONE',  ( 3.200000000000000178, -1.347111479062087024E-16, -0.2399999999999999911 ) ) ;
#896 = VECTOR ( 'NONE', #298, 1000.000000000000000 ) ;
#897 = DIRECTION ( 'NONE',  ( -0.8949343913984795229, 0.000000000000000000, -0.4461977533473616697 ) ) ;
#898 = ORIENTED_EDGE ( 'NONE', *, *, #88, .F. ) ;
#899 = ORIENTED_EDGE ( 'NONE', *, *, #736, .T. ) ;
#900 = DIRECTION ( 'NONE',  ( -1.000000000000000000, -0.000000000000000000, -0.000000000000000000 ) ) ;
#901 = PLANE ( 'NONE',  #156 ) ;
#902 = CARTESIAN_POINT ( 'NONE',  ( 1.419999999999999929, -0.3420142349617943944, -0.2399999999999999911 ) ) ;
#903 = EDGE_LOOP ( 'NONE', ( #954 ) ) ;
#904 = DIRECTION ( 'NONE',  ( 0.000000000000000000, 0.000000000000000000, 1.000000000000000000 ) ) ;
#905 = CONICAL_SURFACE ( 'NONE', #827, 0.3554999999999999827, 0.06981317007976597933 ) ;
#906 = DIRECTION ( 'NONE',  ( 1.000000000000000000, 0.000000000000000000, 0.000000000000000000 ) ) ;
#907 = DIRECTION ( 'NONE',  ( -1.000000000000000000, -0.000000000000000000, -0.000000000000000000 ) ) ;
#908 = ADVANCED_FACE ( 'NONE', ( #391 ), #700, .T. ) ;
#909 = ORIENTED_EDGE ( 'NONE', *, *, #200, .F. ) ;
#910 = CARTESIAN_POINT ( 'NONE',  ( 1.419999999999999929, 0.2399999999999987976, 0.3420142349615006294 ) ) ;
#911 = DIRECTION ( 'NONE',  ( 0.000000000000000000, -5.329070518200751394E-15, -1.000000000000000000 ) ) ;
#912 = ORIENTED_EDGE ( 'NONE', *, *, #426, .F. ) ;
#913 = ORIENTED_EDGE ( 'NONE', *, *, #952, .F. ) ;
#914 = SURFACE_STYLE_FILL_AREA ( #452 ) ;
#915 = EDGE_CURVE ( 'NONE', #616, #959, #101, .T. ) ;
#916 = CARTESIAN_POINT ( 'NONE',  ( -25.39999999999996305, 0.000000000000000000, 0.000000000000000000 ) ) ;
#917 = CIRCLE ( 'NONE', #458, 1.928476821192053103 ) ;
#918 = CARTESIAN_POINT ( 'NONE',  ( 1.419999999999999929, -0.3420142349617946165, 0.2399999999999998801 ) ) ;
#919 = ORIENTED_EDGE ( 'NONE', *, *, #348, .T. ) ;
#920 = FACE_OUTER_BOUND ( 'NONE', #961, .T. ) ;
#921 = EDGE_CURVE ( 'NONE', #621, #374, #131, .T. ) ;
#922 = CARTESIAN_POINT ( 'NONE',  ( 1.419999999999999485, 0.000000000000000000, 0.000000000000000000 ) ) ;
#923 = DIRECTION ( 'NONE',  ( 1.000000000000000000, 0.000000000000000000, 0.000000000000000000 ) ) ;
#924 = ORIENTED_EDGE ( 'NONE', *, *, #283, .T. ) ;
#925 = VECTOR ( 'NONE', #266, 1000.000000000000227 ) ;
#926 = CARTESIAN_POINT ( 'NONE',  ( 2.982187808281589358, 1.390590463005018986E-15, -0.4368637443202319504 ) ) ;
#927 = DIRECTION ( 'NONE',  ( -1.000000000000000000, -0.000000000000000000, -0.000000000000000000 ) ) ;
#928 = EDGE_CURVE ( 'NONE', #34, #861, #322, .T. ) ;
#929 = AXIS2_PLACEMENT_3D ( 'NONE', #486, #933, #635 ) ;
#930 = FACE_OUTER_BOUND ( 'NONE', #694, .T. ) ;
#931 = ORIENTED_EDGE ( 'NONE', *, *, #392, .F. ) ;
#932 = CARTESIAN_POINT ( 'NONE',  ( 1.419999999999999929, 0.2399999999999987976, 0.3420142349615006294 ) ) ;
#933 = DIRECTION ( 'NONE',  ( -1.000000000000000000, 0.000000000000000000, 0.000000000000000000 ) ) ;
#934 = CARTESIAN_POINT ( 'NONE',  ( 1.700000000000000178, 0.000000000000000000, 0.000000000000000000 ) ) ;
#935 = CIRCLE ( 'NONE', #250, 0.3554999999999999827 ) ;
#936 = ORIENTED_EDGE ( 'NONE', *, *, #492, .F. ) ;
#937 = CARTESIAN_POINT ( 'NONE',  ( 1.419999999999999929, -0.2399999999999986866, -0.3420142349617954491 ) ) ;
#938 = PLANE ( 'NONE',  #268 ) ;
#939 = VERTEX_POINT ( 'NONE', #854 ) ;
#940 = LINE ( 'NONE', #489, #586 ) ;
#941 = EDGE_CURVE ( 'NONE', #965, #229, #52, .T. ) ;
#942 = MANIFOLD_SOLID_BREP ( 'RecessCore', #212 ) ;
#943 = DIRECTION ( 'NONE',  ( 0.000000000000000000, -3.649983831086925983E-15, 1.000000000000000000 ) ) ;
#944 = CARTESIAN_POINT ( 'NONE',  ( 0.9577065399045078253, 0.2400000000000010736, -0.3060795708522654479 ) ) ;
#945 = CONICAL_SURFACE ( 'NONE', #975, 0.3554999999999999827, 0.06981317007976597933 ) ;
#946 = EDGE_LOOP ( 'NONE', ( #523, #776, #734 ) ) ;
#947 = DIRECTION ( 'NONE',  ( 0.000000000000000000, 0.000000000000000000, -1.000000000000000000 ) ) ;
#948 = EDGE_LOOP ( 'NONE', ( #722, #117, #456, #909, #286, #672, #135, #702, #853, #727, #737, #798, #41, #600, #830, #792 ) ) ;
#949 = CARTESIAN_POINT ( 'NONE',  ( 1.600000000000000755, 0.000000000000000000, 2.000000000000000000 ) ) ;
#950 = VECTOR ( 'NONE', #462, 1000.000000000000000 ) ;
#951 = CARTESIAN_POINT ( 'NONE',  ( 0.4949750842865074940, 0.3454916401347370436, -0.2399999999999999911 ) ) ;
#952 = EDGE_CURVE ( 'NONE', #253, #866, #20, .T. ) ;
#953 = DIRECTION ( 'NONE',  ( -1.000000000000000000, 0.000000000000000000, 0.000000000000000000 ) ) ;
#954 = ORIENTED_EDGE ( 'NONE', *, *, #252, .T. ) ;
#955 = DIRECTION ( 'NONE',  ( -1.000000000000000000, -0.000000000000000000, -0.000000000000000000 ) ) ;
#956 = ORIENTED_EDGE ( 'NONE', *, *, #778, .T. ) ;
#957 = LINE ( 'NONE', #346, #225 ) ;
#958 = EDGE_CURVE ( 'NONE', #959, #374, #363, .T. ) ;
#959 = VERTEX_POINT ( 'NONE', #104 ) ;
#960 = AXIS2_PLACEMENT_3D ( 'NONE', #490, #624, #10 ) ;
#961 = EDGE_LOOP ( 'NONE', ( #581, #894, #518, #963 ) ) ;
#962 = DIRECTION ( 'NONE',  ( 0.000000000000000000, 0.000000000000000000, 1.000000000000000000 ) ) ;
#963 = ORIENTED_EDGE ( 'NONE', *, *, #789, .F. ) ;
#964 = EDGE_CURVE ( 'NONE', #112, #870, #302, .T. ) ;
#965 = VERTEX_POINT ( 'NONE', #177 ) ;
#966 = AXIS2_PLACEMENT_3D ( 'NONE', #625, #2, #923 ) ;
#967 = CIRCLE ( 'NONE', #198, 0.4525471255180573693 ) ;
#968 = LINE ( 'NONE', #285, #42 ) ;
#969 = ORIENTED_EDGE ( 'NONE', *, *, #430, .F. ) ;
#970 = FACE_OUTER_BOUND ( 'NONE', #825, .T. ) ;
#971 = EDGE_CURVE ( 'NONE', #463, #34, #525, .T. ) ;
#972 = LINE ( 'NONE', #612, #138 ) ;
#973 = ORIENTED_EDGE ( 'NONE', *, *, #383, .T. ) ;
#974 = CARTESIAN_POINT ( 'NONE',  ( 1.419999999999999485, 0.000000000000000000, 0.000000000000000000 ) ) ;
#975 = AXIS2_PLACEMENT_3D ( 'NONE', #526, #987, #448 ) ;
#976 = DIRECTION ( 'NONE',  ( 0.8949343913984054710, 1.574973696348432443E-15, -0.4461977533475103286 ) ) ;
#977 = CARTESIAN_POINT ( 'NONE',  ( 1.419999999999999485, 0.000000000000000000, 0.000000000000000000 ) ) ;
#978 = VERTEX_POINT ( 'NONE', #338 ) ;
#979 = CARTESIAN_POINT ( 'NONE',  ( 1.419999999999999929, 0.3420142349615000188, -0.2399999999999999911 ) ) ;
#980 = B_SPLINE_CURVE_WITH_KNOTS ( 'NONE', 3,
 ( #696, #553, #999, #161 ),
 .UNSPECIFIED., .F., .F.,
 ( 4, 4 ),
 ( 0.0006611328646872219284, 0.002054287873658129041 ),
 .UNSPECIFIED. ) ;
#981 = VECTOR ( 'NONE', #217, 1000.000000000000000 ) ;
#982 = PLANE ( 'NONE',  #353 ) ;
#983 = EDGE_CURVE ( 'NONE', #425, #425, #876, .T. ) ;
#984 = DIRECTION ( 'NONE',  ( 0.000000000000000000, 0.000000000000000000, 1.000000000000000000 ) ) ;
#985 = ORIENTED_EDGE ( 'NONE', *, *, #563, .F. ) ;
#986 = CARTESIAN_POINT ( 'NONE',  ( 1.419999999999999485, -0.2400000000000008793, 0.2622598901852885023 ) ) ;
#987 = DIRECTION ( 'NONE',  ( -1.000000000000000000, -0.000000000000000000, -0.000000000000000000 ) ) ;
#988 = EDGE_CURVE ( 'NONE', #77, #415, #420, .T. ) ;
#989 = FACE_OUTER_BOUND ( 'NONE', #857, .T. ) ;
#990 = VERTEX_POINT ( 'NONE', #862 ) ;
#991 = CARTESIAN_POINT ( 'NONE',  ( 1.419999999999999929, -0.2399999999999986866, -0.3420142349617954491 ) ) ;
#992 = APPLICATION_CONTEXT ( 'automotive_design' ) ;
#993 = AXIS2_PLACEMENT_3D ( 'NONE', #795, #927, #314 ) ;
#994 = FACE_OUTER_BOUND ( 'NONE', #660, .T. ) ;
#995 = CARTESIAN_POINT ( 'NONE',  ( 1.419999999999999485, 0.000000000000000000, 0.000000000000000000 ) ) ;
#996 = ORIENTED_EDGE ( 'NONE', *, *, #921, .F. ) ;
#997 = DIRECTION ( 'NONE',  ( 0.000000000000000000, 0.000000000000000000, 1.000000000000000000 ) ) ;
#998 = EDGE_CURVE ( 'NONE', #503, #990, #940, .T. ) ;
#999 = CARTESIAN_POINT ( 'NONE',  ( 0.9577065399045082694, -0.2399999999999988254, -0.3060795708522671688 ) ) ;
ENDSEC;
END-ISO-10303-21;
