ISO-10303-21;
HEADER;
FILE_DESCRIPTION (( 'STEP AP214' ),
    '1' );
FILE_NAME ('ISO 7045 - M3 x 16 - Z - 16N.STEP',
    '2025-07-30T15:09:16',
    ( '' ),
    ( '' ),
    'SwSTEP 2.0',
    'SolidWorks 2025',
    '' );
FILE_SCHEMA (( 'AUTOMOTIVE_DESIGN' ));
ENDSEC;

DATA;
#1 = AXIS2_PLACEMENT_3D ( 'NONE', #117, #823, #133 ) ;
#2 = CARTESIAN_POINT ( 'NONE',  ( 0.000000000000000000, 0.3700000000000048805, -1.399999999999998801 ) ) ;
#3 = CARTESIAN_POINT ( 'NONE',  ( 2.399999999999999467, 0.000000000000000000, 2.800000000000000266 ) ) ;
#4 = EDGE_LOOP ( 'NONE', ( #828 ) ) ;
#5 = ORIENTED_EDGE ( 'NONE', *, *, #297, .F. ) ;
#6 = CARTESIAN_POINT ( 'NONE',  ( 1.182234488158505625, -0.3699999999999981082, -0.4682027105830399716 ) ) ;
#7 = VECTOR ( 'NONE', #69, 1000.000000000000000 ) ;
#8 = DIRECTION ( 'NONE',  ( 6.707840301784530471E-16, -1.027714206793260226E-16, -1.000000000000000000 ) ) ;
#9 = ORIENTED_EDGE ( 'NONE', *, *, #539, .F. ) ;
#10 = EDGE_LOOP ( 'NONE', ( #545, #447, #787, #990 ) ) ;
#11 = AXIS2_PLACEMENT_3D ( 'NONE', #793, #321, #624 ) ;
#12 = FACE_OUTER_BOUND ( 'NONE', #232, .T. ) ;
#13 = DIRECTION ( 'NONE',  ( 0.8949343913984564303, -0.4461977533474077995, 2.217805283168455292E-16 ) ) ;
#14 = ORIENTED_EDGE ( 'NONE', *, *, #463, .T. ) ;
#15 = DIRECTION ( 'NONE',  ( -1.751487513279285852E-16, -1.027714206793260226E-16, 1.000000000000000000 ) ) ;
#16 = VERTEX_POINT ( 'NONE', #440 ) ;
#17 = FACE_OUTER_BOUND ( 'NONE', #287, .T. ) ;
#18 = ADVANCED_FACE ( 'NONE', ( #984 ), #426, .F. ) ;
#19 = PLANE ( 'NONE',  #147 ) ;
#20 = VECTOR ( 'NONE', #84, 1000.000000000000227 ) ;
#21 = ORIENTED_EDGE ( 'NONE', *, *, #163, .F. ) ;
#22 = CARTESIAN_POINT ( 'NONE',  ( 4.563582625307878615, 0.8753179833060489301, 0.000000000000000000 ) ) ;
#23 = CARTESIAN_POINT ( 'NONE',  ( 1.749999999999999778, 0.5274823318190006161, -0.1757793776834751520 ) ) ;
#24 = EDGE_CURVE ( 'NONE', #633, #852, #669, .T. ) ;
#25 = ORIENTED_EDGE ( 'NONE', *, *, #24, .F. ) ;
#26 = CARTESIAN_POINT ( 'NONE',  ( 0.000000000000000000, -0.3700000000000044365, 1.399999999999998801 ) ) ;
#27 = CARTESIAN_POINT ( 'NONE',  ( 2.399999999999999467, 0.000000000000000000, 0.000000000000000000 ) ) ;
#28 = VECTOR ( 'NONE', #95, 1000.000000000000114 ) ;
#29 = ADVANCED_FACE ( 'NONE', ( #590 ), #219, .F. ) ;
#30 = CYLINDRICAL_SURFACE ( 'NONE', #307, 1.500000000000000000 ) ;
#31 = ORIENTED_EDGE ( 'NONE', *, *, #842, .F. ) ;
#32 = DIRECTION ( 'NONE',  ( 0.000000000000000000, 3.388709918163807333E-15, -1.000000000000000000 ) ) ;
#33 = CARTESIAN_POINT ( 'NONE',  ( 1.182234488158505625, -0.4682027105830387503, 0.3699999999999997180 ) ) ;
#34 = CARTESIAN_POINT ( 'NONE',  ( 1.749999999999999778, 0.000000000000000000, 0.000000000000000000 ) ) ;
#35 = VERTEX_POINT ( 'NONE', #294 ) ;
#36 = DIRECTION ( 'NONE',  ( 0.8949343913984564303, 1.336110600929360012E-15, -0.4461977533474077995 ) ) ;
#37 = CARTESIAN_POINT ( 'NONE',  ( 1.749999999999999778, 0.000000000000000000, 0.000000000000000000 ) ) ;
#38 = LINE ( 'NONE', #518, #469 ) ;
#39 = CIRCLE ( 'NONE', #167, 4.903402727001783035 ) ;
#40 = EDGE_LOOP ( 'NONE', ( #296 ) ) ;
#41 = CARTESIAN_POINT ( 'NONE',  ( 0.1878697342286433924, 1.306331621468022730, 0.3700000000000009392 ) ) ;
#42 = DIRECTION ( 'NONE',  ( 0.000000000000000000, 0.000000000000000000, -1.000000000000000000 ) ) ;
#43 = EDGE_CURVE ( 'NONE', #143, #531, #408, .T. ) ;
#44 = DIRECTION ( 'NONE',  ( -1.000000000000000000, -0.000000000000000000, -0.000000000000000000 ) ) ;
#45 = CIRCLE ( 'NONE', #142, 4.986291206899172934 ) ;
#46 = ORIENTED_EDGE ( 'NONE', *, *, #515, .T. ) ;
#47 = DIRECTION ( 'NONE',  ( -1.000000000000000000, -0.000000000000000000, -0.000000000000000000 ) ) ;
#48 = DIRECTION ( 'NONE',  ( 0.000000000000000000, 0.000000000000000000, -1.000000000000000000 ) ) ;
#49 = ADVANCED_FACE ( 'NONE', ( #750 ), #601, .F. ) ;
#50 = CARTESIAN_POINT ( 'NONE',  ( 1.749999999999999778, 0.000000000000000000, 0.000000000000000000 ) ) ;
#51 = AXIS2_PLACEMENT_3D ( 'NONE', #37, #350, #438 ) ;
#52 = ORIENTED_EDGE ( 'NONE', *, *, #556, .T. ) ;
#53 = VERTEX_POINT ( 'NONE', #533 ) ;
#54 = CARTESIAN_POINT ( 'NONE',  ( 0.6140734012210613546, 0.5172535664943105349, 0.3699999999999992184 ) ) ;
#55 = VERTEX_POINT ( 'NONE', #827 ) ;
#56 = CARTESIAN_POINT ( 'NONE',  ( 1.749999999999999778, -0.1757793776838876554, -0.5274823318188631704 ) ) ;
#57 = CIRCLE ( 'NONE', #195, 0.5560000000000000497 ) ;
#58 = EDGE_CURVE ( 'NONE', #266, #709, #595, .T. ) ;
#59 = VERTEX_POINT ( 'NONE', #901 ) ;
#60 = LINE ( 'NONE', #992, #695 ) ;
#61 = ORIENTED_EDGE ( 'NONE', *, *, #188, .F. ) ;
#62 = AXIS2_PLACEMENT_3D ( 'NONE', #771, #153, #464 ) ;
#63 = EDGE_CURVE ( 'NONE', #387, #709, #38, .T. ) ;
#64 = CARTESIAN_POINT ( 'NONE',  ( 0.000000000000000000, 0.3699999999999952216, 1.400000000000001465 ) ) ;
#65 = FACE_OUTER_BOUND ( 'NONE', #727, .T. ) ;
#66 = ORIENTED_EDGE ( 'NONE', *, *, #600, .F. ) ;
#67 = EDGE_CURVE ( 'NONE', #143, #531, #807, .T. ) ;
#68 = CARTESIAN_POINT ( 'NONE',  ( 1.749999999999999778, 0.5274823318190007271, 0.1757793776834749022 ) ) ;
#69 = DIRECTION ( 'NONE',  ( 0.000000000000000000, 1.000000000000000000, 3.198453724657862206E-15 ) ) ;
#70 = EDGE_LOOP ( 'NONE', ( #155, #580, #458 ) ) ;
#71 = AXIS2_PLACEMENT_3D ( 'NONE', #874, #15, #708 ) ;
#72 = DIRECTION ( 'NONE',  ( 0.000000000000000000, 0.000000000000000000, 1.000000000000000000 ) ) ;
#73 = EDGE_CURVE ( 'NONE', #59, #165, #477, .T. ) ;
#74 =( LENGTH_UNIT ( ) NAMED_UNIT ( * ) SI_UNIT ( .MILLI., .METRE. ) );
#75 = EDGE_LOOP ( 'NONE', ( #276, #9 ) ) ;
#76 = ORIENTED_EDGE ( 'NONE', *, *, #367, .T. ) ;
#77 = FACE_OUTER_BOUND ( 'NONE', #4, .T. ) ;
#78 = CARTESIAN_POINT ( 'NONE',  ( 0.6140734012210606885, -0.3699999999999975531, -0.5172535664943118672 ) ) ;
#79 = CARTESIAN_POINT ( 'NONE',  ( 1.750000000000000000, 0.5274823318190001720, 0.3699999999999999956 ) ) ;
#80 = ORIENTED_EDGE ( 'NONE', *, *, #991, .T. ) ;
#81 = AXIS2_PLACEMENT_3D ( 'NONE', #974, #288, #593 ) ;
#82 = ORIENTED_EDGE ( 'NONE', *, *, #670, .F. ) ;
#83 = CARTESIAN_POINT ( 'NONE',  ( 1.182234488158504959, 0.4682027105830386393, -0.3699999999999999956 ) ) ;
#84 = DIRECTION ( 'NONE',  ( 0.8949343913984284526, -1.557891129246402510E-15, 0.4461977533474641988 ) ) ;
#85 = AXIS2_PLACEMENT_3D ( 'NONE', #501, #802, #349 ) ;
#86 = ORIENTED_EDGE ( 'NONE', *, *, #103, .T. ) ;
#87 = ADVANCED_FACE ( 'NONE', ( #673 ), #980, .F. ) ;
#88 = CIRCLE ( 'NONE', #480, 4.986291206899173822 ) ;
#89 = CARTESIAN_POINT ( 'NONE',  ( 1.749999999999999778, 0.3699999999999984412, 0.4150132528004391586 ) ) ;
#90 = DIRECTION ( 'NONE',  ( 0.000000000000000000, 0.000000000000000000, 1.000000000000000000 ) ) ;
#91 = ORIENTED_EDGE ( 'NONE', *, *, #24, .T. ) ;
#92 = CARTESIAN_POINT ( 'NONE',  ( 1.750000000000000000, -0.3700000000000018274, 0.5274823318189988397 ) ) ;
#93 = ORIENTED_EDGE ( 'NONE', *, *, #904, .F. ) ;
#94 = ADVANCED_FACE ( 'NONE', ( #658 ), #585, .T. ) ;
#95 = DIRECTION ( 'NONE',  ( 0.8949343913984564303, -0.4461977533474079105, 1.108902641584227646E-16 ) ) ;
#96 = CARTESIAN_POINT ( 'NONE',  ( 2.399999999999999467, 1.500000000000000000, 0.000000000000000000 ) ) ;
#97 = VECTOR ( 'NONE', #686, 1000.000000000000000 ) ;
#98 = CARTESIAN_POINT ( 'NONE',  ( 1.660251296188488102, -0.5722293774028053281, 0.06135236830561766053 ) ) ;
#99 = PRODUCT_DEFINITION_SHAPE ( 'NONE', 'NONE',  #221 ) ;
#100 = CARTESIAN_POINT ( 'NONE',  ( 1.749999999999999778, 0.4150132528004374377, -0.3700000000000003841 ) ) ;
#101 = CARTESIAN_POINT ( 'NONE',  ( 1.749999999999999778, -0.4150132528004372157, 0.3700000000000006062 ) ) ;
#102 = ADVANCED_BREP_SHAPE_REPRESENTATION ( 'ISO 7045 - M3 x 16 - Z - 16N_ISO 7045 - M3 x 16 - Z - 16N', ( #613, #199 ), #549 ) ;
#103 = EDGE_CURVE ( 'NONE', #837, #586, #921, .T. ) ;
#104 = B_SPLINE_CURVE_WITH_KNOTS ( 'NONE', 3,
 ( #305, #78, #6, #606 ),
 .UNSPECIFIED., .F., .F.,
 ( 4, 4 ),
 ( 0.001036549833494526110, 0.002747329934099760826 ),
 .UNSPECIFIED. ) ;
#105 = CARTESIAN_POINT ( 'NONE',  ( 5.000000000000000888, -5.204748896376250896E-15, 0.000000000000000000 ) ) ;
#106 = ORIENTED_EDGE ( 'NONE', *, *, #367, .F. ) ;
#107 = DIRECTION ( 'NONE',  ( 0.000000000000000000, 0.000000000000000000, 1.000000000000000000 ) ) ;
#108 = AXIS2_PLACEMENT_3D ( 'NONE', #406, #870, #568 ) ;
#109 = DIRECTION ( 'NONE',  ( -1.000000000000000000, 0.000000000000000000, -0.000000000000000000 ) ) ;
#110 = ADVANCED_FACE ( 'NONE', ( #896 ), #208, .F. ) ;
#111 = AXIS2_PLACEMENT_3D ( 'NONE', #433, #277, #899 ) ;
#112 = DIRECTION ( 'NONE',  ( -1.000000000000000000, -0.000000000000000000, -0.000000000000000000 ) ) ;
#113 = ORIENTED_EDGE ( 'NONE', *, *, #710, .F. ) ;
#114 = CARTESIAN_POINT ( 'NONE',  ( 0.1878697342286416716, 0.3699999999999954436, 1.306331621468024951 ) ) ;
#115 = FACE_OUTER_BOUND ( 'NONE', #441, .T. ) ;
#116 = AXIS2_PLACEMENT_3D ( 'NONE', #346, #652, #548 ) ;
#117 = CARTESIAN_POINT ( 'NONE',  ( 1.749999999999999778, 0.000000000000000000, 0.000000000000000000 ) ) ;
#118 = ORIENTED_EDGE ( 'NONE', *, *, #43, .T. ) ;
#119 = APPLICATION_CONTEXT ( 'automotive_design' ) ;
#120 = DIRECTION ( 'NONE',  ( 0.4461977533474079105, -2.862406237492810509E-15, 0.8949343913984566523 ) ) ;
#121 = CARTESIAN_POINT ( 'NONE',  ( 4.563582625307880392, -8.260905300643130313E-15, 0.8753179833060500403 ) ) ;
#122 = DIRECTION ( 'NONE',  ( -1.000000000000000000, -0.000000000000000000, -0.000000000000000000 ) ) ;
#123 = AXIS2_PLACEMENT_3D ( 'NONE', #302, #924, #470 ) ;
#124 = ORIENTED_EDGE ( 'NONE', *, *, #869, .F. ) ;
#125 = EDGE_CURVE ( 'NONE', #994, #146, #104, .T. ) ;
#126 = DIRECTION ( 'NONE',  ( -1.000000000000000000, -0.000000000000000000, -0.000000000000000000 ) ) ;
#127 = ORIENTED_EDGE ( 'NONE', *, *, #737, .T. ) ;
#128 = CIRCLE ( 'NONE', #818, 0.5560000000000000497 ) ;
#129 = ORIENTED_EDGE ( 'NONE', *, *, #392, .F. ) ;
#130 = CARTESIAN_POINT ( 'NONE',  ( 2.499999999999998668, 0.000000000000000000, 0.000000000000000000 ) ) ;
#131 = DIRECTION ( 'NONE',  ( 1.000000000000000000, 0.000000000000000000, 0.000000000000000000 ) ) ;
#132 = B_SPLINE_CURVE_WITH_KNOTS ( 'NONE', 3,
 ( #389, #938, #636, #331 ),
 .UNSPECIFIED., .F., .F.,
 ( 4, 4 ),
 ( 0.001343139251128127112, 0.003053847964071759215 ),
 .UNSPECIFIED. ) ;
#133 = DIRECTION ( 'NONE',  ( 0.000000000000000000, 0.000000000000000000, 1.000000000000000000 ) ) ;
#134 = VECTOR ( 'NONE', #397, 1000.000000000000000 ) ;
#135 = ORIENTED_EDGE ( 'NONE', *, *, #971, .F. ) ;
#136 = DIRECTION ( 'NONE',  ( -0.8949343913984565413, 0.4461977533474078550, 0.000000000000000000 ) ) ;
#137 = EDGE_CURVE ( 'NONE', #361, #266, #617, .T. ) ;
#138 = CIRCLE ( 'NONE', #255, 0.5560000000000000497 ) ;
#139 = VERTEX_POINT ( 'NONE', #916 ) ;
#140 = DIRECTION ( 'NONE',  ( 1.000000000000000000, 0.000000000000000000, 0.000000000000000000 ) ) ;
#141 = EDGE_CURVE ( 'NONE', #552, #552, #313, .T. ) ;
#142 = AXIS2_PLACEMENT_3D ( 'NONE', #190, #983, #927 ) ;
#143 = VERTEX_POINT ( 'NONE', #996 ) ;
#144 = DIRECTION ( 'NONE',  ( 0.000000000000000000, 0.000000000000000000, 1.000000000000000000 ) ) ;
#145 = VERTEX_POINT ( 'NONE', #762 ) ;
#146 = VERTEX_POINT ( 'NONE', #988 ) ;
#147 = AXIS2_PLACEMENT_3D ( 'NONE', #495, #332, #799 ) ;
#148 = ADVANCED_FACE ( 'NONE', ( #234 ), #381, .F. ) ;
#149 = DIRECTION ( 'NONE',  ( 0.000000000000000000, 0.000000000000000000, -1.000000000000000000 ) ) ;
#150 = DIRECTION ( 'NONE',  ( 1.000000000000000000, 0.000000000000000000, 1.751487513279285852E-16 ) ) ;
#151 = ORIENTED_EDGE ( 'NONE', *, *, #171, .F. ) ;
#152 = ADVANCED_FACE ( 'NONE', ( #619, #390 ), #451, .T. ) ;
#153 = DIRECTION ( 'NONE',  ( -1.000000000000000000, -0.000000000000000000, -0.000000000000000000 ) ) ;
#154 = DIRECTION ( 'NONE',  ( -1.751487513279285852E-16, -1.000000000000000000, -3.594252759522459772E-15 ) ) ;
#155 = ORIENTED_EDGE ( 'NONE', *, *, #608, .F. ) ;
#156 = CIRCLE ( 'NONE', #607, 0.5560000000000000497 ) ;
#157 = CARTESIAN_POINT ( 'NONE',  ( 0.6140734012210607995, 0.5172535664943098688, -0.3700000000000000511 ) ) ;
#158 = PLANE ( 'NONE',  #666 ) ;
#159 = DIRECTION ( 'NONE',  ( -1.751487513279285852E-16, -1.027714206793260226E-16, 1.000000000000000000 ) ) ;
#160 = EDGE_LOOP ( 'NONE', ( #638 ) ) ;
#161 = DIRECTION ( 'NONE',  ( -1.751487513279285852E-16, -1.027714206793260226E-16, 1.000000000000000000 ) ) ;
#162 = CARTESIAN_POINT ( 'NONE',  ( 1.749999999999999778, 0.4150132528004374377, -0.3700000000000003841 ) ) ;
#163 = EDGE_CURVE ( 'NONE', #616, #432, #569, .T. ) ;
#164 = DIRECTION ( 'NONE',  ( 0.000000000000000000, 0.000000000000000000, 1.000000000000000000 ) ) ;
#165 = VERTEX_POINT ( 'NONE', #300 ) ;
#166 = DIRECTION ( 'NONE',  ( 0.000000000000000000, 0.000000000000000000, 1.000000000000000000 ) ) ;
#167 = AXIS2_PLACEMENT_3D ( 'NONE', #743, #206, #588 ) ;
#168 = ORIENTED_EDGE ( 'NONE', *, *, #539, .T. ) ;
#169 = DIRECTION ( 'NONE',  ( -1.000000000000000000, -0.000000000000000000, -0.000000000000000000 ) ) ;
#170 = LINE ( 'NONE', #855, #587 ) ;
#171 = EDGE_CURVE ( 'NONE', #875, #395, #758, .T. ) ;
#172 = EDGE_LOOP ( 'NONE', ( #228 ) ) ;
#173 = CARTESIAN_POINT ( 'NONE',  ( 1.749999999999999778, 0.000000000000000000, 0.000000000000000000 ) ) ;
#174 = ORIENTED_EDGE ( 'NONE', *, *, #773, .T. ) ;
#175 = VECTOR ( 'NONE', #273, 1000.000000000000000 ) ;
#176 = CARTESIAN_POINT ( 'NONE',  ( 5.000000000000000888, -0.3700000000000022160, -1.253822669720598722E-15 ) ) ;
#177 = PLANE ( 'NONE',  #986 ) ;
#178 = FACE_OUTER_BOUND ( 'NONE', #160, .T. ) ;
#179 = EDGE_LOOP ( 'NONE', ( #5 ) ) ;
#180 = EDGE_CURVE ( 'NONE', #720, #994, #427, .T. ) ;
#181 = CARTESIAN_POINT ( 'NONE',  ( 1.182234488158504293, -0.4682027105830385283, -0.3700000000000001066 ) ) ;
#182 = DIRECTION ( 'NONE',  ( -1.000000000000000000, -0.000000000000000000, -0.000000000000000000 ) ) ;
#183 = AXIS2_PLACEMENT_3D ( 'NONE', #681, #373, #839 ) ;
#184 = PRODUCT_DEFINITION_CONTEXT ( 'detailed design', #697, 'design' ) ;
#185 = CARTESIAN_POINT ( 'NONE',  ( 0.04579512008964174014, 0.5647601330409093290, 0.3699999999999988298 ) ) ;
#186 = ORIENTED_EDGE ( 'NONE', *, *, #58, .F. ) ;
#187 = AXIS2_PLACEMENT_3D ( 'NONE', #393, #159, #150 ) ;
#188 = EDGE_CURVE ( 'NONE', #599, #370, #632, .T. ) ;
#189 = CARTESIAN_POINT ( 'NONE',  ( 1.750000000000000000, -0.5274823318188623933, -0.3699999999999999956 ) ) ;
#190 = CARTESIAN_POINT ( 'NONE',  ( 5.000000000000000888, -5.166723470724899901E-15, 0.3700000000000022160 ) ) ;
#191 = AXIS2_PLACEMENT_3D ( 'NONE', #272, #126, #200 ) ;
#192 = SURFACE_SIDE_STYLE ('',( #574 ) ) ;
#193 = ORIENTED_EDGE ( 'NONE', *, *, #63, .F. ) ;
#194 = CARTESIAN_POINT ( 'NONE',  ( 1.750000000000000000, -0.3700000000000018274, 0.5274823318189988397 ) ) ;
#195 = AXIS2_PLACEMENT_3D ( 'NONE', #173, #564, #942 ) ;
#196 = CARTESIAN_POINT ( 'NONE',  ( 0.04579512008964207320, 0.3700000000000022715, -0.5647601330409156573 ) ) ;
#197 = EDGE_LOOP ( 'NONE', ( #582 ) ) ;
#198 = ORIENTED_EDGE ( 'NONE', *, *, #260, .T. ) ;
#199 = AXIS2_PLACEMENT_3D ( 'NONE', #615, #417, #399 ) ;
#200 = DIRECTION ( 'NONE',  ( 0.000000000000000000, 0.000000000000000000, 1.000000000000000000 ) ) ;
#201 = CARTESIAN_POINT ( 'NONE',  ( 1.750000000000000000, -0.5274823318188623933, -0.3699999999999999956 ) ) ;
#202 = CIRCLE ( 'NONE', #62, 2.800000000000000266 ) ;
#203 = DIRECTION ( 'NONE',  ( 6.707840301784530471E-16, -1.027714206793260226E-16, -1.000000000000000000 ) ) ;
#204 = EDGE_CURVE ( 'NONE', #531, #35, #378, .T. ) ;
#205 = ORIENTED_EDGE ( 'NONE', *, *, #264, .T. ) ;
#206 = DIRECTION ( 'NONE',  ( 0.4461977533474079105, 0.8949343913984566523, -2.622404895638377286E-16 ) ) ;
#207 = CARTESIAN_POINT ( 'NONE',  ( 1.749999999999999778, 0.4150132528004373267, 0.3700000000000004952 ) ) ;
#208 = PLANE ( 'NONE',  #183 ) ;
#209 = EDGE_CURVE ( 'NONE', #950, #599, #826, .T. ) ;
#210 = EDGE_LOOP ( 'NONE', ( #282 ) ) ;
#211 = DIRECTION ( 'NONE',  ( -1.000000000000000000, -0.000000000000000000, -0.000000000000000000 ) ) ;
#212 = PLANE ( 'NONE',  #915 ) ;
#213 = DIRECTION ( 'NONE',  ( 0.000000000000000000, 0.000000000000000000, 1.000000000000000000 ) ) ;
#214 = CARTESIAN_POINT ( 'NONE',  ( 1.660251296188487879, -0.06135236830561641153, -0.5722293774028058833 ) ) ;
#215 = AXIS2_PLACEMENT_3D ( 'NONE', #820, #120, #962 ) ;
#216 = ORIENTED_EDGE ( 'NONE', *, *, #217, .T. ) ;
#217 = EDGE_CURVE ( 'NONE', #763, #143, #385, .T. ) ;
#218 = DIRECTION ( 'NONE',  ( -0.8949343913984565413, -1.557891129246205689E-15, 0.4461977533474078550 ) ) ;
#219 = CONICAL_SURFACE ( 'NONE', #772, 0.5560000000000000497, 0.06981317007976597933 ) ;
#220 = ORIENTED_EDGE ( 'NONE', *, *, #703, .F. ) ;
#221 = PRODUCT_DEFINITION ( 'General', '', #372, #184 ) ;
#222 = CARTESIAN_POINT ( 'NONE',  ( 1.750000000000000000, 0.5274823318190001720, 0.3699999999999999956 ) ) ;
#223 = AXIS2_PLACEMENT_3D ( 'NONE', #375, #530, #164 ) ;
#224 = ORIENTED_EDGE ( 'NONE', *, *, #788, .F. ) ;
#225 = DIRECTION ( 'NONE',  ( 0.000000000000000000, 2.664535259100375697E-15, -1.000000000000000000 ) ) ;
#226 = ADVANCED_FACE ( 'NONE', ( #843 ), #158, .F. ) ;
#227 = LINE ( 'NONE', #913, #238 ) ;
#228 = ORIENTED_EDGE ( 'NONE', *, *, #141, .F. ) ;
#229 = DIRECTION ( 'NONE',  ( 0.000000000000000000, 0.000000000000000000, 1.000000000000000000 ) ) ;
#230 = EDGE_CURVE ( 'NONE', #544, #544, #202, .T. ) ;
#231 = CARTESIAN_POINT ( 'NONE',  ( 1.750000000000000000, -0.3700000000000018274, 0.5274823318189988397 ) ) ;
#232 = EDGE_LOOP ( 'NONE', ( #534 ) ) ;
#233 = AXIS2_PLACEMENT_3D ( 'NONE', #567, #263, #647 ) ;
#234 = FACE_OUTER_BOUND ( 'NONE', #363, .T. ) ;
#235 = AXIS2_PLACEMENT_3D ( 'NONE', #436, #47, #358 ) ;
#236 = LINE ( 'NONE', #231, #256 ) ;
#237 = ORIENTED_EDGE ( 'NONE', *, *, #663, .T. ) ;
#238 = VECTOR ( 'NONE', #851, 1000.000000000000227 ) ;
#239 = CARTESIAN_POINT ( 'NONE',  ( 0.7753715989337328640, 0.000000000000000000, 0.000000000000000000 ) ) ;
#240 = DIRECTION ( 'NONE',  ( 1.000000000000000000, 0.000000000000000000, 1.739492745205689751E-16 ) ) ;
#241 = TOROIDAL_SURFACE ( 'NONE', #11, 2.529999999999999361, 0.2700000000000007394 ) ;
#242 =( NAMED_UNIT ( * ) SI_UNIT ( $, .STERADIAN. ) SOLID_ANGLE_UNIT ( ) );
#243 = ORIENTED_EDGE ( 'NONE', *, *, #556, .F. ) ;
#244 = DIRECTION ( 'NONE',  ( 0.000000000000000000, 0.000000000000000000, 1.000000000000000000 ) ) ;
#245 = EDGE_CURVE ( 'NONE', #345, #941, #60, .T. ) ;
#246 = FACE_BOUND ( 'NONE', #303, .T. ) ;
#247 = CARTESIAN_POINT ( 'NONE',  ( 1.749999999999999778, 0.000000000000000000, 0.000000000000000000 ) ) ;
#248 = ORIENTED_EDGE ( 'NONE', *, *, #410, .T. ) ;
#249 = AXIS2_PLACEMENT_3D ( 'NONE', #958, #804, #579 ) ;
#250 = CARTESIAN_POINT ( 'NONE',  ( 1.750000000000000000, -0.5274823318188623933, -0.3699999999999999956 ) ) ;
#251 = CARTESIAN_POINT ( 'NONE',  ( 1.749999999999999778, 0.4150132528004373267, 0.3700000000000004952 ) ) ;
#252 = EDGE_CURVE ( 'NONE', #961, #763, #694, .T. ) ;
#253 = ORIENTED_EDGE ( 'NONE', *, *, #103, .F. ) ;
#254 = CARTESIAN_POINT ( 'NONE',  ( 1.749999999999999778, -0.5274823318188631704, -0.1757793776838876554 ) ) ;
#255 = AXIS2_PLACEMENT_3D ( 'NONE', #936, #701, #609 ) ;
#256 = VECTOR ( 'NONE', #461, 1000.000000000000000 ) ;
#257 = CARTESIAN_POINT ( 'NONE',  ( 1.749999999999999778, 0.000000000000000000, 0.000000000000000000 ) ) ;
#258 = PLANE ( 'NONE',  #360 ) ;
#259 = SHAPE_DEFINITION_REPRESENTATION ( #99, #102 ) ;
#260 = EDGE_CURVE ( 'NONE', #55, #852, #641, .T. ) ;
#261 = AXIS2_PLACEMENT_3D ( 'NONE', #871, #169, #402 ) ;
#262 = PLANE ( 'NONE',  #868 ) ;
#263 = DIRECTION ( 'NONE',  ( 1.000000000000000000, 0.000000000000000000, 0.000000000000000000 ) ) ;
#264 = EDGE_CURVE ( 'NONE', #845, #978, #705, .T. ) ;
#265 = CARTESIAN_POINT ( 'NONE',  ( 1.749999999999999778, -0.5274823318188631704, 0.1757793776838876554 ) ) ;
#266 = VERTEX_POINT ( 'NONE', #23 ) ;
#267 = DIRECTION ( 'NONE',  ( 0.8949343913984284526, 0.4461977533474643653, 0.000000000000000000 ) ) ;
#268 = LINE ( 'NONE', #784, #973 ) ;
#269 = AXIS2_PLACEMENT_3D ( 'NONE', #27, #555, #790 ) ;
#270 = DIRECTION ( 'NONE',  ( -1.000000000000000000, 6.707840301784530471E-16, 2.342029923762058067E-30 ) ) ;
#271 = ORIENTED_EDGE ( 'NONE', *, *, #439, .T. ) ;
#272 = CARTESIAN_POINT ( 'NONE',  ( 1.003501532591315248, 0.000000000000000000, 0.000000000000000000 ) ) ;
#273 = DIRECTION ( 'NONE',  ( 0.000000000000000000, -1.000000000000000000, 1.027714206793260103E-16 ) ) ;
#274 = EDGE_LOOP ( 'NONE', ( #118, #671 ) ) ;
#275 = CARTESIAN_POINT ( 'NONE',  ( 1.749999999999999778, -0.1757793776838876554, -0.5274823318188631704 ) ) ;
#276 = ORIENTED_EDGE ( 'NONE', *, *, #73, .T. ) ;
#277 = DIRECTION ( 'NONE',  ( -1.000000000000000000, -0.000000000000000000, -0.000000000000000000 ) ) ;
#278 = AXIS2_PLACEMENT_3D ( 'NONE', #698, #618, #244 ) ;
#279 = CARTESIAN_POINT ( 'NONE',  ( 0.1878697342286407834, -0.3700000000000055467, 1.306331621468022508 ) ) ;
#280 = ADVANCED_FACE ( 'NONE', ( #573 ), #177, .T. ) ;
#281 = CARTESIAN_POINT ( 'NONE',  ( 1.660251296188909098, 0.06135236830545864883, 0.5722293774027259472 ) ) ;
#282 = ORIENTED_EDGE ( 'NONE', *, *, #230, .T. ) ;
#283 = CARTESIAN_POINT ( 'NONE',  ( 1.749999999999999778, 0.000000000000000000, 0.000000000000000000 ) ) ;
#284 = CARTESIAN_POINT ( 'NONE',  ( 1.750000000000000000, 0.3699999999999980527, 0.5274823318190013932 ) ) ;
#285 = AXIS2_PLACEMENT_3D ( 'NONE', #611, #928, #603 ) ;
#286 = CARTESIAN_POINT ( 'NONE',  ( 1.660251296188487657, 0.06135236830562006832, -0.5722293774028054392 ) ) ;
#287 = EDGE_LOOP ( 'NONE', ( #351, #570 ) ) ;
#288 = DIRECTION ( 'NONE',  ( -1.000000000000000000, -0.000000000000000000, -0.000000000000000000 ) ) ;
#289 = DIRECTION ( 'NONE',  ( 0.000000000000000000, -3.594252759522459772E-15, 1.000000000000000000 ) ) ;
#290 = CARTESIAN_POINT ( 'NONE',  ( 0.000000000000000000, -1.400000000000000133, 0.3699999999999989964 ) ) ;
#291 = EDGE_CURVE ( 'NONE', #978, #361, #944, .T. ) ;
#292 = ORIENTED_EDGE ( 'NONE', *, *, #614, .T. ) ;
#293 = CONICAL_SURFACE ( 'NONE', #933, 3077.683537175319998, 1.256637061435923686 ) ;
#294 = CARTESIAN_POINT ( 'NONE',  ( 1.750000000000000000, -0.3699999999999982747, -0.5274823318188637256 ) ) ;
#295 = AXIS2_PLACEMENT_3D ( 'NONE', #34, #412, #213 ) ;
#296 = ORIENTED_EDGE ( 'NONE', *, *, #230, .F. ) ;
#297 = EDGE_CURVE ( 'NONE', #53, #53, #873, .T. ) ;
#298 = DIRECTION ( 'NONE',  ( 0.8949343913984284526, 0.4461977533474641988, 5.544513207920964435E-16 ) ) ;
#299 = ORIENTED_EDGE ( 'NONE', *, *, #779, .T. ) ;
#300 = CARTESIAN_POINT ( 'NONE',  ( 1.749999999999999778, 0.1757793776834749300, 0.5274823318190007271 ) ) ;
#301 = B_SPLINE_CURVE_WITH_KNOTS ( 'NONE', 3,
 ( #207, #662, #54, #889 ),
 .UNSPECIFIED., .F., .F.,
 ( 4, 4 ),
 ( 0.001343139251111343663, 0.003053847964054974898 ),
 .UNSPECIFIED. ) ;
#302 = CARTESIAN_POINT ( 'NONE',  ( 18.39999999999999858, 0.000000000000000000, 0.000000000000000000 ) ) ;
#303 = EDGE_LOOP ( 'NONE', ( #937 ) ) ;
#304 = AXIS2_PLACEMENT_3D ( 'NONE', #918, #8, #774 ) ;
#305 = CARTESIAN_POINT ( 'NONE',  ( 0.04579512008964174014, -0.3699999999999969980, -0.5647601330409190989 ) ) ;
#306 = ADVANCED_FACE ( 'NONE', ( #327 ), #562, .F. ) ;
#307 = AXIS2_PLACEMENT_3D ( 'NONE', #492, #634, #166 ) ;
#308 = UNCERTAINTY_MEASURE_WITH_UNIT (LENGTH_MEASURE( 1.000000000000000082E-05 ), #74, 'distance_accuracy_value', 'NONE');
#309 = PLANE ( 'NONE',  #187 ) ;
#310 = VERTEX_POINT ( 'NONE', #411 ) ;
#311 = CARTESIAN_POINT ( 'NONE',  ( 0.04579512008964174014, -5.204748896376250896E-15, 0.000000000000000000 ) ) ;
#312 = ORIENTED_EDGE ( 'NONE', *, *, #912, .T. ) ;
#313 = CIRCLE ( 'NONE', #760, 1.500000000000000000 ) ;
#314 = CARTESIAN_POINT ( 'NONE',  ( 0.1878697342286364536, -1.306331621468011406, 0.3699999999999991074 ) ) ;
#315 = DIRECTION ( 'NONE',  ( 0.000000000000000000, -1.000000000000000000, -3.491481338843133355E-15 ) ) ;
#316 =( NAMED_UNIT ( * ) PLANE_ANGLE_UNIT ( ) SI_UNIT ( $, .RADIAN. ) );
#317 = VERTEX_POINT ( 'NONE', #251 ) ;
#318 = EDGE_CURVE ( 'NONE', #616, #55, #803, .T. ) ;
#319 = EDGE_LOOP ( 'NONE', ( #592, #430, #52, #513 ) ) ;
#320 = CIRCLE ( 'NONE', #524, 4.986291206899172934 ) ;
#321 = DIRECTION ( 'NONE',  ( -1.000000000000000000, -0.000000000000000000, -0.000000000000000000 ) ) ;
#322 = DIRECTION ( 'NONE',  ( -1.000000000000000000, -0.000000000000000000, -0.000000000000000000 ) ) ;
#323 = DIRECTION ( 'NONE',  ( 1.000000000000000000, -1.751487513279285852E-16, -6.115285967831391452E-31 ) ) ;
#324 = EDGE_LOOP ( 'NONE', ( #731, #82, #527, #336 ) ) ;
#325 = ADVANCED_FACE ( 'NONE', ( #343 ), #258, .F. ) ;
#326 = DIRECTION ( 'NONE',  ( 1.000000000000000000, 0.000000000000000000, 0.000000000000000000 ) ) ;
#327 = FACE_OUTER_BOUND ( 'NONE', #909, .T. ) ;
#328 = ORIENTED_EDGE ( 'NONE', *, *, #806, .F. ) ;
#329 = PRESENTATION_STYLE_ASSIGNMENT (( #499 ) ) ;
#330 = EDGE_LOOP ( 'NONE', ( #493, #474, #216 ) ) ;
#331 = CARTESIAN_POINT ( 'NONE',  ( 0.04579512008964078257, -0.3700000000000008282, 0.5647601330409166565 ) ) ;
#332 = DIRECTION ( 'NONE',  ( 6.707840301784530471E-16, 1.000000000000000000, 3.388709918163807333E-15 ) ) ;
#333 = ADVANCED_FACE ( 'NONE', ( #246, #631 ), #338, .F. ) ;
#334 = ORIENTED_EDGE ( 'NONE', *, *, #252, .F. ) ;
#335 = DIRECTION ( 'NONE',  ( 0.000000000000000000, 0.000000000000000000, 1.000000000000000000 ) ) ;
#336 = ORIENTED_EDGE ( 'NONE', *, *, #318, .F. ) ;
#337 = DIRECTION ( 'NONE',  ( 0.000000000000000000, -3.392010853151094941E-15, 1.000000000000000000 ) ) ;
#338 = PLANE ( 'NONE',  #551 ) ;
#339 = PRODUCT_RELATED_PRODUCT_CATEGORY ( 'part', '', ( #735 ) ) ;
#340 = PRODUCT_CONTEXT ( 'NONE', #119, 'mechanical' ) ;
#341 = CIRCLE ( 'NONE', #108, 0.5560000000000000497 ) ;
#342 = DIRECTION ( 'NONE',  ( -1.000000000000000000, -0.000000000000000000, -0.000000000000000000 ) ) ;
#343 = FACE_OUTER_BOUND ( 'NONE', #955, .T. ) ;
#344 = SPHERICAL_SURFACE ( 'NONE', #382, 5.000000000000000888 ) ;
#345 = VERTEX_POINT ( 'NONE', #189 ) ;
#346 = CARTESIAN_POINT ( 'NONE',  ( 5.000000000000000888, 0.3699999999999993294, 1.329873521023326548E-15 ) ) ;
#347 = EDGE_LOOP ( 'NONE', ( #224, #503, #352, #885 ) ) ;
#348 = EDGE_CURVE ( 'NONE', #165, #696, #388, .T. ) ;
#349 = DIRECTION ( 'NONE',  ( 0.000000000000000000, 0.000000000000000000, -1.000000000000000000 ) ) ;
#350 = DIRECTION ( 'NONE',  ( -1.000000000000000000, -0.000000000000000000, -0.000000000000000000 ) ) ;
#351 = ORIENTED_EDGE ( 'NONE', *, *, #137, .T. ) ;
#352 = ORIENTED_EDGE ( 'NONE', *, *, #869, .T. ) ;
#353 = DIRECTION ( 'NONE',  ( 0.000000000000000000, 3.598575616644271095E-15, -1.000000000000000000 ) ) ;
#354 = CIRCLE ( 'NONE', #437, 4.903402727001715533 ) ;
#355 = FACE_OUTER_BOUND ( 'NONE', #769, .T. ) ;
#356 = CARTESIAN_POINT ( 'NONE',  ( 1.750000000000000000, -0.3700000000000018274, 0.5274823318189988397 ) ) ;
#357 = EDGE_LOOP ( 'NONE', ( #683 ) ) ;
#358 = DIRECTION ( 'NONE',  ( 0.000000000000000000, 0.000000000000000000, 1.000000000000000000 ) ) ;
#359 = DIRECTION ( 'NONE',  ( 0.000000000000000000, 0.000000000000000000, 1.000000000000000000 ) ) ;
#360 = AXIS2_PLACEMENT_3D ( 'NONE', #948, #863, #867 ) ;
#361 = VERTEX_POINT ( 'NONE', #717 ) ;
#362 = EDGE_CURVE ( 'NONE', #720, #35, #170, .T. ) ;
#363 = EDGE_LOOP ( 'NONE', ( #707, #665, #193 ) ) ;
#364 = PLANE ( 'NONE',  #886 ) ;
#365 = CIRCLE ( 'NONE', #81, 0.5560000000000000497 ) ;
#366 = CARTESIAN_POINT ( 'NONE',  ( 1.660251296188909098, -0.06135236830546240278, 0.5722293774027256141 ) ) ;
#367 = EDGE_CURVE ( 'NONE', #519, #859, #268, .T. ) ;
#368 = ORIENTED_EDGE ( 'NONE', *, *, #779, .F. ) ;
#369 = COLOUR_RGB ( '',0.7921568627450980005, 0.8196078431372548767, 0.9333333333333333481 ) ;
#370 = VERTEX_POINT ( 'NONE', #403 ) ;
#371 = ORIENTED_EDGE ( 'NONE', *, *, #842, .T. ) ;
#372 = PRODUCT_DEFINITION_FORMATION_WITH_SPECIFIED_SOURCE ( 'Symmetric', '', #735, .NOT_KNOWN. ) ;
#373 = DIRECTION ( 'NONE',  ( 0.4461977533474642543, -0.8949343913984284526, 0.000000000000000000 ) ) ;
#374 = CIRCLE ( 'NONE', #51, 0.5560000000000000497 ) ;
#375 = CARTESIAN_POINT ( 'NONE',  ( 1.749999999999999778, 0.000000000000000000, 0.000000000000000000 ) ) ;
#376 = ORIENTED_EDGE ( 'NONE', *, *, #209, .T. ) ;
#377 = ADVANCED_FACE ( 'NONE', ( #877 ), #19, .T. ) ;
#378 = LINE ( 'NONE', #699, #97 ) ;
#379 = DIRECTION ( 'NONE',  ( 0.000000000000000000, 0.000000000000000000, 1.000000000000000000 ) ) ;
#380 = ORIENTED_EDGE ( 'NONE', *, *, #945, .T. ) ;
#381 = PLANE ( 'NONE',  #612 ) ;
#382 = AXIS2_PLACEMENT_3D ( 'NONE', #105, #654, #726 ) ;
#383 = VERTEX_POINT ( 'NONE', #692 ) ;
#384 = ORIENTED_EDGE ( 'NONE', *, *, #362, .T. ) ;
#385 = LINE ( 'NONE', #767, #455 ) ;
#386 = EDGE_CURVE ( 'NONE', #370, #961, #940, .T. ) ;
#387 = VERTEX_POINT ( 'NONE', #162 ) ;
#388 = CIRCLE ( 'NONE', #488, 0.5560000000000000497 ) ;
#389 = CARTESIAN_POINT ( 'NONE',  ( 1.749999999999999778, -0.3700000000000014388, 0.4150132528004364940 ) ) ;
#390 = FACE_OUTER_BOUND ( 'NONE', #357, .T. ) ;
#391 = B_SPLINE_CURVE_WITH_KNOTS ( 'NONE', 3,
 ( #848, #396, #547, #467 ),
 .UNSPECIFIED., .F., .F.,
 ( 4, 4 ),
 ( 0.001036549833510495757, 0.002747329934115728955 ),
 .UNSPECIFIED. ) ;
#392 = EDGE_CURVE ( 'NONE', #776, #370, #623, .T. ) ;
#393 = CARTESIAN_POINT ( 'NONE',  ( 1.750000000000000000, 0.5274823318190001720, -0.3699999999999998845 ) ) ;
#394 = EDGE_LOOP ( 'NONE', ( #982, #660, #198, #25 ) ) ;
#395 = VERTEX_POINT ( 'NONE', #473 ) ;
#396 = CARTESIAN_POINT ( 'NONE',  ( 0.6140734012210612436, 0.3699999999999982747, 0.5172535664943112010 ) ) ;
#397 = DIRECTION ( 'NONE',  ( 0.000000000000000000, -1.000000000000000000, 1.027714206793260103E-16 ) ) ;
#398 = AXIS2_PLACEMENT_3D ( 'NONE', #414, #112, #335 ) ;
#399 = DIRECTION ( 'NONE',  ( 1.000000000000000000, 0.000000000000000000, 0.000000000000000000 ) ) ;
#400 = ORIENTED_EDGE ( 'NONE', *, *, #525, .T. ) ;
#401 = ORIENTED_EDGE ( 'NONE', *, *, #663, .F. ) ;
#402 = DIRECTION ( 'NONE',  ( 0.000000000000000000, 0.000000000000000000, 1.000000000000000000 ) ) ;
#403 = CARTESIAN_POINT ( 'NONE',  ( 0.04579512008964207320, 0.3700000000000022715, -0.5647601330409156573 ) ) ;
#404 = VERTEX_POINT ( 'NONE', #279 ) ;
#405 = CLOSED_SHELL ( 'NONE', ( #535, #926, #679, #94, #431, #87, #110, #306, #822, #226, #685, #452, #504, #148, #509, #987, #49, #325, #423, #377, #591, #333, #152, #648, #280, #813, #482, #724, #571, #718, #691, #835, #29, #864, #18, #444 ) ) ;
#406 = CARTESIAN_POINT ( 'NONE',  ( 1.749999999999999778, 0.000000000000000000, 0.000000000000000000 ) ) ;
#407 = AXIS2_PLACEMENT_3D ( 'NONE', #761, #764, #144 ) ;
#408 =( BOUNDED_CURVE ( )  B_SPLINE_CURVE ( 3, ( #755, #286, #214, #56 ),
 .UNSPECIFIED., .F., .F. ) 
 B_SPLINE_CURVE_WITH_KNOTS ( ( 4, 4 ),
 ( 5.913772338564084130, 6.652598275795089222 ),
 .UNSPECIFIED. ) 
 CURVE ( )  GEOMETRIC_REPRESENTATION_ITEM ( )  RATIONAL_B_SPLINE_CURVE ( ( 1.000000000000000000, 0.9550263097058678818, 0.9550263097058678818, 1.000000000000000000 ) ) 
 REPRESENTATION_ITEM ( '' )  );
#409 = CARTESIAN_POINT ( 'NONE',  ( 1.749999999999999778, -0.4150132528004373267, -0.3700000000000004952 ) ) ;
#410 = EDGE_CURVE ( 'NONE', #696, #395, #733, .T. ) ;
#411 = CARTESIAN_POINT ( 'NONE',  ( 1.749999999999999778, -0.4150132528004373267, -0.3700000000000004952 ) ) ;
#412 = DIRECTION ( 'NONE',  ( -1.000000000000000000, -0.000000000000000000, -0.000000000000000000 ) ) ;
#413 = APPLICATION_PROTOCOL_DEFINITION ( 'draft international standard', 'automotive_design', 1998, #697 ) ;
#414 = CARTESIAN_POINT ( 'NONE',  ( 1.749999999999999778, 0.000000000000000000, 0.000000000000000000 ) ) ;
#415 = FACE_OUTER_BOUND ( 'NONE', #319, .T. ) ;
#416 = CARTESIAN_POINT ( 'NONE',  ( 1.750000000000000000, 0.5274823318190001720, 0.3699999999999999956 ) ) ;
#417 = DIRECTION ( 'NONE',  ( 0.000000000000000000, 0.000000000000000000, 1.000000000000000000 ) ) ;
#418 = CIRCLE ( 'NONE', #71, 4.986291206899173822 ) ;
#419 = ORIENTED_EDGE ( 'NONE', *, *, #180, .T. ) ;
#420 = LINE ( 'NONE', #26, #496 ) ;
#421 = DIRECTION ( 'NONE',  ( 0.000000000000000000, 0.000000000000000000, -1.000000000000000000 ) ) ;
#422 = APPLICATION_PROTOCOL_DEFINITION ( 'draft international standard', 'automotive_design', 1998, #119 ) ;
#423 = ADVANCED_FACE ( 'NONE', ( #969 ), #672, .T. ) ;
#424 = DIRECTION ( 'NONE',  ( 0.000000000000000000, 0.000000000000000000, 1.000000000000000000 ) ) ;
#425 = EDGE_LOOP ( 'NONE', ( #14, #759, #605, #205 ) ) ;
#426 = CONICAL_SURFACE ( 'NONE', #920, 0.5560000000000000497, 0.06981317007976597933 ) ;
#427 = CIRCLE ( 'NONE', #285, 4.986291206899173822 ) ;
#428 = CARTESIAN_POINT ( 'NONE',  ( 5.000000000000000888, 0.3699999999999993294, 1.329873521023326548E-15 ) ) ;
#429 = CARTESIAN_POINT ( 'NONE',  ( 0.04579512008964078257, -0.3700000000000008282, 0.5647601330409166565 ) ) ;
#430 = ORIENTED_EDGE ( 'NONE', *, *, #751, .T. ) ;
#431 = ADVANCED_FACE ( 'NONE', ( #816 ), #739, .T. ) ;
#432 = VERTEX_POINT ( 'NONE', #429 ) ;
#433 = CARTESIAN_POINT ( 'NONE',  ( 1.749999999999999778, 0.000000000000000000, 0.000000000000000000 ) ) ;
#434 = CARTESIAN_POINT ( 'NONE',  ( 1.750000000000000000, 0.3700000000000018274, -0.5274823318188611720 ) ) ;
#435 = ORIENTED_EDGE ( 'NONE', *, *, #362, .F. ) ;
#436 = CARTESIAN_POINT ( 'NONE',  ( 1.749999999999999778, 0.000000000000000000, 0.000000000000000000 ) ) ;
#437 = AXIS2_PLACEMENT_3D ( 'NONE', #22, #640, #267 ) ;
#438 = DIRECTION ( 'NONE',  ( 0.000000000000000000, 0.000000000000000000, 1.000000000000000000 ) ) ;
#439 = EDGE_CURVE ( 'NONE', #776, #143, #374, .T. ) ;
#440 = CARTESIAN_POINT ( 'NONE',  ( 0.04579512008964174014, -0.5647601330409237619, -0.3700000000000002731 ) ) ;
#441 = EDGE_LOOP ( 'NONE', ( #898, #780, #476, #400, #602, #881, #271, #775, #471, #919, #380, #650, #678, #312, #292, #168 ) ) ;
#442 = DIRECTION ( 'NONE',  ( 1.000000000000000000, 0.000000000000000000, 0.000000000000000000 ) ) ;
#443 = CARTESIAN_POINT ( 'NONE',  ( 1.750000000000000000, -0.5274823318188623933, -0.3699999999999999956 ) ) ;
#444 = ADVANCED_FACE ( 'NONE', ( #115 ), #293, .F. ) ;
#445 = VECTOR ( 'NONE', #13, 1000.000000000000114 ) ;
#446 = CARTESIAN_POINT ( 'NONE',  ( 1.749999999999999778, -0.1757793776834782884, 0.5274823318189996169 ) ) ;
#447 = ORIENTED_EDGE ( 'NONE', *, *, #392, .T. ) ;
#448 = DIRECTION ( 'NONE',  ( 0.4461977533474078550, -2.862406237492810509E-15, 0.8949343913984565413 ) ) ;
#449 = EDGE_LOOP ( 'NONE', ( #736, #129, #328, #999 ) ) ;
#450 = AXIS2_PLACEMENT_3D ( 'NONE', #786, #860, #424 ) ;
#451 = CYLINDRICAL_SURFACE ( 'NONE', #407, 2.800000000000000266 ) ;
#452 = ADVANCED_FACE ( 'NONE', ( #900 ), #589, .F. ) ;
#453 = EDGE_LOOP ( 'NONE', ( #635, #66, #565 ) ) ;
#454 = DIRECTION ( 'NONE',  ( 0.8949343913984564303, 1.447000865087783147E-15, -0.4461977533474079105 ) ) ;
#455 = VECTOR ( 'NONE', #315, 1000.000000000000000 ) ;
#456 = B_SPLINE_CURVE_WITH_KNOTS ( 'NONE', 3,
 ( #409, #181, #716, #490 ),
 .UNSPECIFIED., .F., .F.,
 ( 4, 4 ),
 ( 0.001343139251128127980, 0.003053847964071759215 ),
 .UNSPECIFIED. ) ;
#457 = PLANE ( 'NONE',  #523 ) ;
#458 = ORIENTED_EDGE ( 'NONE', *, *, #260, .F. ) ;
#459 = EDGE_CURVE ( 'NONE', #317, #586, #301, .T. ) ;
#460 = DIRECTION ( 'NONE',  ( 1.000000000000000000, 0.000000000000000000, 0.000000000000000000 ) ) ;
#461 = DIRECTION ( 'NONE',  ( 0.000000000000000000, 1.000000000000000000, 3.198453724657862206E-15 ) ) ;
#462 = ORIENTED_EDGE ( 'NONE', *, *, #515, .F. ) ;
#463 = EDGE_CURVE ( 'NONE', #978, #317, #895, .T. ) ;
#464 = DIRECTION ( 'NONE',  ( 0.000000000000000000, 0.000000000000000000, 1.000000000000000000 ) ) ;
#465 = VECTOR ( 'NONE', #715, 1000.000000000000000 ) ;
#466 = EDGE_LOOP ( 'NONE', ( #688, #819, #248, #151 ) ) ;
#467 = CARTESIAN_POINT ( 'NONE',  ( 1.749999999999999778, 0.3699999999999984412, 0.4150132528004391586 ) ) ;
#468 = DIRECTION ( 'NONE',  ( 1.000000000000000000, 0.000000000000000000, 0.000000000000000000 ) ) ;
#469 = VECTOR ( 'NONE', #805, 1000.000000000000000 ) ;
#470 = DIRECTION ( 'NONE',  ( 0.000000000000000000, 0.000000000000000000, 1.000000000000000000 ) ) ;
#471 = ORIENTED_EDGE ( 'NONE', *, *, #917, .T. ) ;
#472 = FACE_OUTER_BOUND ( 'NONE', #75, .T. ) ;
#473 = CARTESIAN_POINT ( 'NONE',  ( 1.750000000000000222, 0.3699999999999980527, 0.5274823318190010601 ) ) ;
#474 = ORIENTED_EDGE ( 'NONE', *, *, #578, .F. ) ;
#475 = FACE_OUTER_BOUND ( 'NONE', #801, .T. ) ;
#476 = ORIENTED_EDGE ( 'NONE', *, *, #904, .T. ) ;
#477 =( BOUNDED_CURVE ( )  B_SPLINE_CURVE ( 3, ( #446, #366, #281, #965 ),
 .UNSPECIFIED., .F., .F. ) 
 B_SPLINE_CURVE_WITH_KNOTS ( ( 4, 4 ),
 ( 5.913772338564968756, 6.652598275794203708 ),
 .UNSPECIFIED. ) 
 CURVE ( )  GEOMETRIC_REPRESENTATION_ITEM ( )  RATIONAL_B_SPLINE_CURVE ( ( 1.000000000000000000, 0.9550263097060810447, 0.9550263097060810447, 1.000000000000000000 ) ) 
 REPRESENTATION_ITEM ( '' )  );
#478 = CARTESIAN_POINT ( 'NONE',  ( 0.04579512008964174014, 0.5647601330409133258, -0.3700000000000001066 ) ) ;
#479 = DIRECTION ( 'NONE',  ( -0.000000000000000000, 0.000000000000000000, 1.000000000000000000 ) ) ;
#480 = AXIS2_PLACEMENT_3D ( 'NONE', #176, #485, #337 ) ;
#481 = EDGE_LOOP ( 'NONE', ( #462, #558, #610, #734, #91, #113 ) ) ;
#482 = ADVANCED_FACE ( 'NONE', ( #964 ), #594, .F. ) ;
#483 = FACE_OUTER_BOUND ( 'NONE', #746, .T. ) ;
#484 = ORIENTED_EDGE ( 'NONE', *, *, #884, .T. ) ;
#485 = DIRECTION ( 'NONE',  ( 6.707840301784530471E-16, 1.000000000000000000, 3.388709918163807333E-15 ) ) ;
#486 = CARTESIAN_POINT ( 'NONE',  ( 1.750000000000000000, 0.5274823318190001720, 0.3699999999999999956 ) ) ;
#487 = LINE ( 'NONE', #781, #465 ) ;
#488 = AXIS2_PLACEMENT_3D ( 'NONE', #952, #182, #90 ) ;
#489 = ORIENTED_EDGE ( 'NONE', *, *, #917, .F. ) ;
#490 = CARTESIAN_POINT ( 'NONE',  ( 0.04579512008964174014, -0.5647601330409237619, -0.3700000000000002731 ) ) ;
#491 = DIRECTION ( 'NONE',  ( 1.000000000000000000, 0.000000000000000000, 0.000000000000000000 ) ) ;
#492 = CARTESIAN_POINT ( 'NONE',  ( -25.39999999999996305, 0.000000000000000000, 0.000000000000000000 ) ) ;
#493 = ORIENTED_EDGE ( 'NONE', *, *, #439, .F. ) ;
#494 = CARTESIAN_POINT ( 'NONE',  ( 1.750000000000000000, -0.5274823318188623933, -0.3699999999999999956 ) ) ;
#495 = CARTESIAN_POINT ( 'NONE',  ( 1.750000000000000000, -0.3699999999999982747, -0.5274823318188637256 ) ) ;
#496 = VECTOR ( 'NONE', #36, 1000.000000000000114 ) ;
#497 = EDGE_CURVE ( 'NONE', #720, #961, #846, .T. ) ;
#498 = AXIS2_PLACEMENT_3D ( 'NONE', #250, #326, #770 ) ;
#499 = SURFACE_STYLE_USAGE ( .BOTH. , #192 ) ;
#500 = ORIENTED_EDGE ( 'NONE', *, *, #977, .T. ) ;
#501 = CARTESIAN_POINT ( 'NONE',  ( 0.04579512008964174014, -5.204748896376250896E-15, 0.000000000000000000 ) ) ;
#502 = CARTESIAN_POINT ( 'NONE',  ( 1.182234488158504959, 0.3700000000000016609, -0.4682027105830371405 ) ) ;
#503 = ORIENTED_EDGE ( 'NONE', *, *, #125, .F. ) ;
#504 = ADVANCED_FACE ( 'NONE', ( #979 ), #212, .F. ) ;
#505 = AXIS2_PLACEMENT_3D ( 'NONE', #890, #203, #811 ) ;
#506 = FACE_OUTER_BOUND ( 'NONE', #449, .T. ) ;
#507 = DIRECTION ( 'NONE',  ( 1.000000000000000000, -1.751487513279285852E-16, -6.115285967831391452E-31 ) ) ;
#508 = CARTESIAN_POINT ( 'NONE',  ( 1.749999999999999778, 0.000000000000000000, 0.000000000000000000 ) ) ;
#509 = ADVANCED_FACE ( 'NONE', ( #355 ), #364, .T. ) ;
#510 = ORIENTED_EDGE ( 'NONE', *, *, #125, .T. ) ;
#511 = CARTESIAN_POINT ( 'NONE',  ( 1.750000000000000000, -0.5274823318188623933, 0.3700000000000001066 ) ) ;
#512 = CARTESIAN_POINT ( 'NONE',  ( 1.750000000000000000, 0.5274823318190001720, 0.3699999999999999956 ) ) ;
#513 = ORIENTED_EDGE ( 'NONE', *, *, #963, .T. ) ;
#514 = EDGE_LOOP ( 'NONE', ( #93, #930, #967 ) ) ;
#515 = EDGE_CURVE ( 'NONE', #941, #808, #923, .T. ) ;
#516 = DIRECTION ( 'NONE',  ( 0.000000000000000000, 0.000000000000000000, 1.000000000000000000 ) ) ;
#517 = CARTESIAN_POINT ( 'NONE',  ( 0.6140734012210607995, 0.3700000000000019940, -0.5172535664943086475 ) ) ;
#518 = CARTESIAN_POINT ( 'NONE',  ( 1.750000000000000000, -0.5274823318188623933, -0.3699999999999999956 ) ) ;
#519 = VERTEX_POINT ( 'NONE', #92 ) ;
#520 = AXIS2_PLACEMENT_3D ( 'NONE', #664, #905, #136 ) ;
#521 = ORIENTED_EDGE ( 'NONE', *, *, #977, .F. ) ;
#522 = ORIENTED_EDGE ( 'NONE', *, *, #63, .T. ) ;
#523 = AXIS2_PLACEMENT_3D ( 'NONE', #998, #154, #323 ) ;
#524 = AXIS2_PLACEMENT_3D ( 'NONE', #428, #656, #353 ) ;
#525 = EDGE_CURVE ( 'NONE', #361, #266, #57, .T. ) ;
#526 = AXIS2_PLACEMENT_3D ( 'NONE', #809, #798, #107 ) ;
#527 = ORIENTED_EDGE ( 'NONE', *, *, #912, .F. ) ;
#528 = CIRCLE ( 'NONE', #295, 0.5560000000000000497 ) ;
#529 = DIRECTION ( 'NONE',  ( -1.000000000000000000, -0.000000000000000000, -0.000000000000000000 ) ) ;
#530 = DIRECTION ( 'NONE',  ( -1.000000000000000000, -0.000000000000000000, -0.000000000000000000 ) ) ;
#531 = VERTEX_POINT ( 'NONE', #275 ) ;
#532 = CARTESIAN_POINT ( 'NONE',  ( 1.749999999999999778, 0.5274823318190006161, -0.1757793776834751520 ) ) ;
#533 = CARTESIAN_POINT ( 'NONE',  ( 2.399999999999999467, 0.000000000000000000, 1.600000000000000089 ) ) ;
#534 = ORIENTED_EDGE ( 'NONE', *, *, #643, .F. ) ;
#535 = ADVANCED_FACE ( 'NONE', ( #719, #800 ), #344, .T. ) ;
#536 = DIRECTION ( 'NONE',  ( -1.751487513279285852E-16, -1.027714206793260226E-16, 1.000000000000000000 ) ) ;
#537 = CARTESIAN_POINT ( 'NONE',  ( 1.749999999999999778, -0.5274823318188631704, -0.1757793776838876554 ) ) ;
#538 = ORIENTED_EDGE ( 'NONE', *, *, #614, .F. ) ;
#539 = EDGE_CURVE ( 'NONE', #59, #165, #341, .T. ) ;
#540 = DIRECTION ( 'NONE',  ( 0.000000000000000000, 0.000000000000000000, 1.000000000000000000 ) ) ;
#541 = CARTESIAN_POINT ( 'NONE',  ( 1.750000000000000000, -0.5274823318188623933, -0.3699999999999999956 ) ) ;
#542 = MECHANICAL_DESIGN_GEOMETRIC_PRESENTATION_REPRESENTATION (  '', ( #689 ), #676 ) ;
#543 = UNCERTAINTY_MEASURE_WITH_UNIT (LENGTH_MEASURE( 1.000000000000000082E-05 ), #730, 'distance_accuracy_value', 'NONE');
#544 = VERTEX_POINT ( 'NONE', #3 ) ;
#545 = ORIENTED_EDGE ( 'NONE', *, *, #578, .T. ) ;
#546 = ORIENTED_EDGE ( 'NONE', *, *, #670, .T. ) ;
#547 = CARTESIAN_POINT ( 'NONE',  ( 1.182234488158505181, 0.3699999999999983302, 0.4682027105830397495 ) ) ;
#548 = DIRECTION ( 'NONE',  ( 0.000000000000000000, 3.598575616644271095E-15, -1.000000000000000000 ) ) ;
#549 =( GEOMETRIC_REPRESENTATION_CONTEXT ( 3 ) GLOBAL_UNCERTAINTY_ASSIGNED_CONTEXT ( ( #308 ) ) GLOBAL_UNIT_ASSIGNED_CONTEXT ( ( #74, #316, #242 ) ) REPRESENTATION_CONTEXT ( 'NONE', 'WORKASPACE' ) );
#550 = TOROIDAL_SURFACE ( 'NONE', #891, 1.600000000000000089, 0.1000000000000000056 ) ;
#551 = AXIS2_PLACEMENT_3D ( 'NONE', #96, #109, #479 ) ;
#552 = VERTEX_POINT ( 'NONE', #858 ) ;
#553 = ORIENTED_EDGE ( 'NONE', *, *, #737, .F. ) ;
#554 = DIRECTION ( 'NONE',  ( 0.000000000000000000, 0.000000000000000000, 1.000000000000000000 ) ) ;
#555 = DIRECTION ( 'NONE',  ( -1.000000000000000000, -0.000000000000000000, -0.000000000000000000 ) ) ;
#556 = EDGE_CURVE ( 'NONE', #16, #139, #418, .T. ) ;
#557 = CIRCLE ( 'NONE', #123, 1.500000000000000000 ) ;
#558 = ORIENTED_EDGE ( 'NONE', *, *, #245, .F. ) ;
#559 = CARTESIAN_POINT ( 'NONE',  ( 1.660251296188488102, -0.5722293774028053281, -0.06135236830561779237 ) ) ;
#560 = EDGE_LOOP ( 'NONE', ( #124, #841, #621, #628, #61, #893, #484, #135, #253, #645, #299, #553, #21, #931, #174, #243 ) ) ;
#561 = DIRECTION ( 'NONE',  ( -1.000000000000000000, -0.000000000000000000, -0.000000000000000000 ) ) ;
#562 = PLANE ( 'NONE',  #233 ) ;
#563 = PRESENTATION_LAYER_ASSIGNMENT (  '', '', ( #689 ) ) ;
#564 = DIRECTION ( 'NONE',  ( -1.000000000000000000, -0.000000000000000000, -0.000000000000000000 ) ) ;
#565 = ORIENTED_EDGE ( 'NONE', *, *, #245, .T. ) ;
#566 = CARTESIAN_POINT ( 'NONE',  ( 1.750000000000000000, 0.5274823318190001720, -0.3699999999999998845 ) ) ;
#567 = CARTESIAN_POINT ( 'NONE',  ( 1.750000000000000000, -0.5274823318188623933, -0.3699999999999999956 ) ) ;
#568 = DIRECTION ( 'NONE',  ( 0.000000000000000000, 0.000000000000000000, 1.000000000000000000 ) ) ;
#569 = CIRCLE ( 'NONE', #680, 0.6751696141506920990 ) ;
#570 = ORIENTED_EDGE ( 'NONE', *, *, #525, .F. ) ;
#571 = ADVANCED_FACE ( 'NONE', ( #483 ), #706, .F. ) ;
#572 = DIRECTION ( 'NONE',  ( 0.000000000000000000, 0.000000000000000000, 1.000000000000000000 ) ) ;
#573 = FACE_OUTER_BOUND ( 'NONE', #903, .T. ) ;
#574 = SURFACE_STYLE_FILL_AREA ( #796 ) ;
#575 = EDGE_LOOP ( 'NONE', ( #756, #500, #914 ) ) ;
#576 = AXIS2_PLACEMENT_3D ( 'NONE', #844, #627, #768 ) ;
#577 = FACE_OUTER_BOUND ( 'NONE', #179, .T. ) ;
#578 = EDGE_CURVE ( 'NONE', #763, #776, #639, .T. ) ;
#579 = DIRECTION ( 'NONE',  ( -1.000000000000000000, 0.000000000000000000, -6.707840301784530471E-16 ) ) ;
#580 = ORIENTED_EDGE ( 'NONE', *, *, #710, .T. ) ;
#581 = AXIS2_PLACEMENT_3D ( 'NONE', #257, #561, #866 ) ;
#582 = ORIENTED_EDGE ( 'NONE', *, *, #643, .T. ) ;
#583 = DIRECTION ( 'NONE',  ( 0.000000000000000000, 0.000000000000000000, -1.000000000000000000 ) ) ;
#584 = CARTESIAN_POINT ( 'NONE',  ( -998.0693446488945710, 0.000000000000000000, 0.000000000000000000 ) ) ;
#585 = PLANE ( 'NONE',  #505 ) ;
#586 = VERTEX_POINT ( 'NONE', #185 ) ;
#587 = VECTOR ( 'NONE', #872, 1000.000000000000227 ) ;
#588 = DIRECTION ( 'NONE',  ( -0.8949343913984565413, 0.4461977533474078550, 0.000000000000000000 ) ) ;
#589 = PLANE ( 'NONE',  #725 ) ;
#590 = FACE_OUTER_BOUND ( 'NONE', #693, .T. ) ;
#591 = ADVANCED_FACE ( 'NONE', ( #178, #475 ), #30, .T. ) ;
#592 = ORIENTED_EDGE ( 'NONE', *, *, #600, .T. ) ;
#593 = DIRECTION ( 'NONE',  ( 0.000000000000000000, 0.000000000000000000, 1.000000000000000000 ) ) ;
#594 = PLANE ( 'NONE',  #741 ) ;
#595 = LINE ( 'NONE', #222, #907 ) ;
#596 = ORIENTED_EDGE ( 'NONE', *, *, #956, .F. ) ;
#597 = VECTOR ( 'NONE', #554, 1000.000000000000000 ) ;
#598 = DIRECTION ( 'NONE',  ( 0.000000000000000000, -2.930276141852715433E-16, -1.000000000000000000 ) ) ;
#599 = VERTEX_POINT ( 'NONE', #880 ) ;
#600 = EDGE_CURVE ( 'NONE', #345, #310, #487, .T. ) ;
#601 = PLANE ( 'NONE',  #825 ) ;
#602 = ORIENTED_EDGE ( 'NONE', *, *, #997, .T. ) ;
#603 = DIRECTION ( 'NONE',  ( 0.000000000000000000, -3.392010853151094941E-15, 1.000000000000000000 ) ) ;
#604 = FACE_OUTER_BOUND ( 'NONE', #466, .T. ) ;
#605 = ORIENTED_EDGE ( 'NONE', *, *, #971, .T. ) ;
#606 = CARTESIAN_POINT ( 'NONE',  ( 1.750000000000000000, -0.3699999999999986633, -0.4150132528004380483 ) ) ;
#607 = AXIS2_PLACEMENT_3D ( 'NONE', #876, #342, #516 ) ;
#608 = EDGE_CURVE ( 'NONE', #808, #55, #981, .T. ) ;
#609 = DIRECTION ( 'NONE',  ( 0.000000000000000000, 0.000000000000000000, 1.000000000000000000 ) ) ;
#610 = ORIENTED_EDGE ( 'NONE', *, *, #963, .F. ) ;
#611 = CARTESIAN_POINT ( 'NONE',  ( 5.000000000000000888, -0.3700000000000022160, -1.253822669720598722E-15 ) ) ;
#612 = AXIS2_PLACEMENT_3D ( 'NONE', #935, #140, #149 ) ;
#613 = MANIFOLD_SOLID_BREP ( 'RecessCore', #405 ) ;
#614 = EDGE_CURVE ( 'NONE', #859, #59, #528, .T. ) ;
#615 = CARTESIAN_POINT ( 'NONE',  ( 0.000000000000000000, 0.000000000000000000, 0.000000000000000000 ) ) ;
#616 = VERTEX_POINT ( 'NONE', #653 ) ;
#617 =( BOUNDED_CURVE ( )  B_SPLINE_CURVE ( 3, ( #68, #625, #831, #532 ),
 .UNSPECIFIED., .F., .F. ) 
 B_SPLINE_CURVE_WITH_KNOTS ( ( 4, 4 ),
 ( 5.913772338564973197, 6.652598275794200156 ),
 .UNSPECIFIED. ) 
 CURVE ( )  GEOMETRIC_REPRESENTATION_ITEM ( )  RATIONAL_B_SPLINE_CURVE ( ( 1.000000000000000000, 0.9550263097060819328, 0.9550263097060819328, 1.000000000000000000 ) ) 
 REPRESENTATION_ITEM ( '' )  );
#618 = DIRECTION ( 'NONE',  ( -1.000000000000000000, -0.000000000000000000, -0.000000000000000000 ) ) ;
#619 = FACE_OUTER_BOUND ( 'NONE', #210, .T. ) ;
#620 = CIRCLE ( 'NONE', #223, 0.5560000000000000497 ) ;
#621 = ORIENTED_EDGE ( 'NONE', *, *, #497, .T. ) ;
#622 = CONICAL_SURFACE ( 'NONE', #829, 0.5560000000000000497, 0.06981317007976597933 ) ;
#623 = B_SPLINE_CURVE_WITH_KNOTS ( 'NONE', 3,
 ( #778, #502, #517, #196 ),
 .UNSPECIFIED., .F., .F.,
 ( 4, 4 ),
 ( 0.001343139251111342795, 0.003053847964054975331 ),
 .UNSPECIFIED. ) ;
#624 = DIRECTION ( 'NONE',  ( 0.000000000000000000, 0.000000000000000000, 1.000000000000000000 ) ) ;
#625 = CARTESIAN_POINT ( 'NONE',  ( 1.660251296188909986, 0.5722293774027255031, 0.06135236830545948844 ) ) ;
#626 = AXIS2_PLACEMENT_3D ( 'NONE', #121, #668, #975 ) ;
#627 = DIRECTION ( 'NONE',  ( -1.000000000000000000, -0.000000000000000000, -0.000000000000000000 ) ) ;
#628 = ORIENTED_EDGE ( 'NONE', *, *, #386, .F. ) ;
#629 = LINE ( 'NONE', #854, #28 ) ;
#630 = EDGE_CURVE ( 'NONE', #633, #616, #45, .T. ) ;
#631 = FACE_OUTER_BOUND ( 'NONE', #40, .T. ) ;
#632 = CIRCLE ( 'NONE', #953, 0.6751696141506920990 ) ;
#633 = VERTEX_POINT ( 'NONE', #314 ) ;
#634 = DIRECTION ( 'NONE',  ( -1.000000000000000000, -0.000000000000000000, -0.000000000000000000 ) ) ;
#635 = ORIENTED_EDGE ( 'NONE', *, *, #945, .F. ) ;
#636 = CARTESIAN_POINT ( 'NONE',  ( 0.6140734012210601334, -0.3700000000000010503, 0.5172535664943094247 ) ) ;
#637 = CARTESIAN_POINT ( 'NONE',  ( 18.39999999999999858, 1.500000000000000000, 0.000000000000000000 ) ) ;
#638 = ORIENTED_EDGE ( 'NONE', *, *, #141, .T. ) ;
#639 = LINE ( 'NONE', #644, #659 ) ;
#640 = DIRECTION ( 'NONE',  ( 0.4461977533474641988, -0.8949343913984283416, 0.000000000000000000 ) ) ;
#641 = LINE ( 'NONE', #416, #134 ) ;
#642 = CONICAL_SURFACE ( 'NONE', #278, 0.5560000000000000497, 0.06981317007976597933 ) ;
#643 = EDGE_CURVE ( 'NONE', #145, #145, #966, .T. ) ;
#644 = CARTESIAN_POINT ( 'NONE',  ( 1.750000000000000000, 0.3700000000000018274, -0.5274823318188611720 ) ) ;
#645 = ORIENTED_EDGE ( 'NONE', *, *, #897, .F. ) ;
#646 = FACE_OUTER_BOUND ( 'NONE', #453, .T. ) ;
#647 = DIRECTION ( 'NONE',  ( 0.000000000000000000, 0.000000000000000000, -1.000000000000000000 ) ) ;
#648 = ADVANCED_FACE ( 'NONE', ( #77, #12 ), #241, .T. ) ;
#649 = DIRECTION ( 'NONE',  ( 0.000000000000000000, -3.594252759522459772E-15, 1.000000000000000000 ) ) ;
#650 = ORIENTED_EDGE ( 'NONE', *, *, #956, .T. ) ;
#651 = DIRECTION ( 'NONE',  ( 0.000000000000000000, 0.000000000000000000, 1.000000000000000000 ) ) ;
#652 = DIRECTION ( 'NONE',  ( -1.751487513279285852E-16, -1.000000000000000000, -3.594252759522459772E-15 ) ) ;
#653 = CARTESIAN_POINT ( 'NONE',  ( 0.04579512008964174014, -0.5647601330409197651, 0.3699999999999989964 ) ) ;
#654 = DIRECTION ( 'NONE',  ( -0.000000000000000000, 0.000000000000000000, -1.000000000000000000 ) ) ;
#655 = ORIENTED_EDGE ( 'NONE', *, *, #794, .F. ) ;
#656 = DIRECTION ( 'NONE',  ( -1.751487513279285852E-16, -1.000000000000000000, -3.594252759522459772E-15 ) ) ;
#657 = DIRECTION ( 'NONE',  ( 0.000000000000000000, 0.000000000000000000, -1.000000000000000000 ) ) ;
#658 = FACE_OUTER_BOUND ( 'NONE', #425, .T. ) ;
#659 = VECTOR ( 'NONE', #649, 1000.000000000000000 ) ;
#660 = ORIENTED_EDGE ( 'NONE', *, *, #318, .T. ) ;
#661 = CARTESIAN_POINT ( 'NONE',  ( 1.749999999999999778, 0.000000000000000000, 0.000000000000000000 ) ) ;
#662 = CARTESIAN_POINT ( 'NONE',  ( 1.182234488158505625, 0.4682027105830388614, 0.3699999999999996070 ) ) ;
#663 = EDGE_CURVE ( 'NONE', #950, #709, #629, .T. ) ;
#664 = CARTESIAN_POINT ( 'NONE',  ( 1.750000000000000000, 0.5274823318190001720, 0.3699999999999999956 ) ) ;
#665 = ORIENTED_EDGE ( 'NONE', *, *, #58, .T. ) ;
#666 = AXIS2_PLACEMENT_3D ( 'NONE', #541, #468, #850 ) ;
#667 = DIRECTION ( 'NONE',  ( 0.000000000000000000, 0.000000000000000000, 1.000000000000000000 ) ) ;
#668 = DIRECTION ( 'NONE',  ( 0.4461977533474641988, 3.124646727056549137E-15, -0.8949343913984283416 ) ) ;
#669 = LINE ( 'NONE', #290, #972 ) ;
#670 = EDGE_CURVE ( 'NONE', #859, #432, #132, .T. ) ;
#671 = ORIENTED_EDGE ( 'NONE', *, *, #67, .F. ) ;
#672 = PLANE ( 'NONE',  #838 ) ;
#673 = FACE_OUTER_BOUND ( 'NONE', #908, .T. ) ;
#674 = EDGE_CURVE ( 'NONE', #599, #387, #722, .T. ) ;
#675 = EDGE_LOOP ( 'NONE', ( #419, #510, #742, #435 ) ) ;
#676 =( GEOMETRIC_REPRESENTATION_CONTEXT ( 3 ) GLOBAL_UNCERTAINTY_ASSIGNED_CONTEXT ( ( #543 ) ) GLOBAL_UNIT_ASSIGNED_CONTEXT ( ( #730, #946, #954 ) ) REPRESENTATION_CONTEXT ( 'NONE', 'WORKASPACE' ) );
#677 = DIRECTION ( 'NONE',  ( -1.000000000000000000, -0.000000000000000000, -0.000000000000000000 ) ) ;
#678 = ORIENTED_EDGE ( 'NONE', *, *, #608, .T. ) ;
#679 = ADVANCED_FACE ( 'NONE', ( #415 ), #262, .T. ) ;
#680 = AXIS2_PLACEMENT_3D ( 'NONE', #311, #322, #690 ) ;
#681 = CARTESIAN_POINT ( 'NONE',  ( 1.750000000000000000, -0.5274823318188623933, -0.3699999999999999956 ) ) ;
#682 = CARTESIAN_POINT ( 'NONE',  ( 0.1878697342286390626, 0.3700000000000045475, -1.306331621468008519 ) ) ;
#683 = ORIENTED_EDGE ( 'NONE', *, *, #857, .F. ) ;
#684 = CIRCLE ( 'NONE', #878, 0.5560000000000000497 ) ;
#685 = ADVANCED_FACE ( 'NONE', ( #721 ), #934, .F. ) ;
#686 = DIRECTION ( 'NONE',  ( 0.000000000000000000, -1.000000000000000000, -3.491481338843133355E-15 ) ) ;
#687 = CARTESIAN_POINT ( 'NONE',  ( 1.003501532591315248, 0.000000000000000000, 2.800000000000000266 ) ) ;
#688 = ORIENTED_EDGE ( 'NONE', *, *, #897, .T. ) ;
#689 = STYLED_ITEM ( 'NONE', ( #329 ), #613 ) ;
#690 = DIRECTION ( 'NONE',  ( 0.000000000000000000, 0.000000000000000000, -1.000000000000000000 ) ) ;
#691 = ADVANCED_FACE ( 'NONE', ( #472 ), #642, .F. ) ;
#692 = CARTESIAN_POINT ( 'NONE',  ( 18.39999999999999858, 0.000000000000000000, 1.500000000000000000 ) ) ;
#693 = EDGE_LOOP ( 'NONE', ( #655, #220, #86, #925 ) ) ;
#694 = LINE ( 'NONE', #2, #20 ) ;
#695 = VECTOR ( 'NONE', #72, 1000.000000000000000 ) ;
#696 = VERTEX_POINT ( 'NONE', #89 ) ;
#697 = APPLICATION_CONTEXT ( 'automotive_design' ) ;
#698 = CARTESIAN_POINT ( 'NONE',  ( 1.749999999999999778, 0.000000000000000000, 0.000000000000000000 ) ) ;
#699 = CARTESIAN_POINT ( 'NONE',  ( 1.750000000000000000, 0.3700000000000018274, -0.5274823318188611720 ) ) ;
#700 = CIRCLE ( 'NONE', #304, 4.986291206899172934 ) ;
#701 = DIRECTION ( 'NONE',  ( -1.000000000000000000, -0.000000000000000000, -0.000000000000000000 ) ) ;
#702 = ORIENTED_EDGE ( 'NONE', *, *, #43, .F. ) ;
#703 = EDGE_CURVE ( 'NONE', #837, #696, #391, .T. ) ;
#704 = CARTESIAN_POINT ( 'NONE',  ( 1.750000000000000000, -0.5274823318188623933, -0.3699999999999999956 ) ) ;
#705 = LINE ( 'NONE', #939, #445 ) ;
#706 = CONICAL_SURFACE ( 'NONE', #450, 0.5560000000000000497, 0.06981317007976597933 ) ;
#707 = ORIENTED_EDGE ( 'NONE', *, *, #997, .F. ) ;
#708 = DIRECTION ( 'NONE',  ( 1.000000000000000000, 0.000000000000000000, 1.739492745205689751E-16 ) ) ;
#709 = VERTEX_POINT ( 'NONE', #777 ) ;
#710 = EDGE_CURVE ( 'NONE', #808, #852, #862, .T. ) ;
#711 = CARTESIAN_POINT ( 'NONE',  ( 0.1878697342286381744, -0.3699999999999945555, -1.306331621468011628 ) ) ;
#712 = DIRECTION ( 'NONE',  ( 0.000000000000000000, -2.930276141852715433E-16, -1.000000000000000000 ) ) ;
#713 = VECTOR ( 'NONE', #289, 1000.000000000000000 ) ;
#714 = ORIENTED_EDGE ( 'NONE', *, *, #137, .F. ) ;
#715 = DIRECTION ( 'NONE',  ( 0.000000000000000000, 1.000000000000000000, 1.027714206793260349E-16 ) ) ;
#716 = CARTESIAN_POINT ( 'NONE',  ( 0.6140734012210602444, -0.5172535664943099798, -0.3700000000000002176 ) ) ;
#717 = CARTESIAN_POINT ( 'NONE',  ( 1.749999999999999778, 0.5274823318190007271, 0.1757793776834749022 ) ) ;
#718 = ADVANCED_FACE ( 'NONE', ( #943 ), #833, .F. ) ;
#719 = FACE_OUTER_BOUND ( 'NONE', #197, .T. ) ;
#720 = VERTEX_POINT ( 'NONE', #711 ) ;
#721 = FACE_OUTER_BOUND ( 'NONE', #861, .T. ) ;
#722 = B_SPLINE_CURVE_WITH_KNOTS ( 'NONE', 3,
 ( #478, #157, #83, #100 ),
 .UNSPECIFIED., .F., .F.,
 ( 4, 4 ),
 ( 0.001036549833510495974, 0.002747329934115729823 ),
 .UNSPECIFIED. ) ;
#723 = CARTESIAN_POINT ( 'NONE',  ( 0.04579512008964174014, -0.5647601330409197651, 0.3699999999999989964 ) ) ;
#724 = ADVANCED_FACE ( 'NONE', ( #17 ), #847, .F. ) ;
#725 = AXIS2_PLACEMENT_3D ( 'NONE', #810, #131, #657 ) ;
#726 = DIRECTION ( 'NONE',  ( 0.000000000000000000, 1.000000000000000000, 0.000000000000000000 ) ) ;
#727 = EDGE_LOOP ( 'NONE', ( #376, #782, #522, #401 ) ) ;
#728 = FACE_OUTER_BOUND ( 'NONE', #274, .T. ) ;
#729 = DIRECTION ( 'NONE',  ( 0.000000000000000000, 3.388709918163807333E-15, -1.000000000000000000 ) ) ;
#730 =( LENGTH_UNIT ( ) NAMED_UNIT ( * ) SI_UNIT ( .MILLI., .METRE. ) );
#731 = ORIENTED_EDGE ( 'NONE', *, *, #163, .T. ) ;
#732 = CARTESIAN_POINT ( 'NONE',  ( 0.04579512008964254505, 0.3699999999999982192, 0.5647601330409183218 ) ) ;
#733 = LINE ( 'NONE', #434, #713 ) ;
#734 = ORIENTED_EDGE ( 'NONE', *, *, #773, .F. ) ;
#735 = PRODUCT ( 'ISO 7045 - M3 x 16 - Z - 16N_ISO 7045 - M3 x 16 - Z - 16N', 'ISO 7045 - M3 x 16 - Z - 16N_ISO 7045 - M3 x 16 - Z - 16N', '', ( #340 ) ) ;
#736 = ORIENTED_EDGE ( 'NONE', *, *, #188, .T. ) ;
#737 = EDGE_CURVE ( 'NONE', #432, #404, #88, .T. ) ;
#738 = CARTESIAN_POINT ( 'NONE',  ( 1.749999999999999778, -0.3700000000000014388, 0.4150132528004364940 ) ) ;
#739 = PLANE ( 'NONE',  #249 ) ;
#740 = CARTESIAN_POINT ( 'NONE',  ( 0.04579512008964174014, -5.204748896376250896E-15, 0.000000000000000000 ) ) ;
#741 = AXIS2_PLACEMENT_3D ( 'NONE', #201, #744, #48 ) ;
#742 = ORIENTED_EDGE ( 'NONE', *, *, #849, .T. ) ;
#743 = CARTESIAN_POINT ( 'NONE',  ( 4.563582625308081120, -0.8753179833057909143, 2.564923403015576861E-16 ) ) ;
#744 = DIRECTION ( 'NONE',  ( 1.000000000000000000, 0.000000000000000000, 0.000000000000000000 ) ) ;
#745 = DIRECTION ( 'NONE',  ( 0.000000000000000000, 0.000000000000000000, 1.000000000000000000 ) ) ;
#746 = EDGE_LOOP ( 'NONE', ( #46, #596 ) ) ;
#747 = VECTOR ( 'NONE', #454, 1000.000000000000114 ) ;
#748 = LINE ( 'NONE', #989, #7 ) ;
#749 = DIRECTION ( 'NONE',  ( 1.000000000000000000, 0.000000000000000000, 0.000000000000000000 ) ) ;
#750 = FACE_OUTER_BOUND ( 'NONE', #766, .T. ) ;
#751 = EDGE_CURVE ( 'NONE', #310, #16, #456, .T. ) ;
#752 = ORIENTED_EDGE ( 'NONE', *, *, #932, .T. ) ;
#753 = CONICAL_SURFACE ( 'NONE', #526, 0.5560000000000000497, 0.06981317007976597933 ) ;
#754 = CIRCLE ( 'NONE', #191, 2.800000000000000266 ) ;
#755 = CARTESIAN_POINT ( 'NONE',  ( 1.749999999999999778, 0.1757793776838913469, -0.5274823318188619492 ) ) ;
#756 = ORIENTED_EDGE ( 'NONE', *, *, #348, .F. ) ;
#757 = CIRCLE ( 'NONE', #111, 0.5560000000000000497 ) ;
#758 = LINE ( 'NONE', #64, #747 ) ;
#759 = ORIENTED_EDGE ( 'NONE', *, *, #459, .T. ) ;
#760 = AXIS2_PLACEMENT_3D ( 'NONE', #834, #460, #229 ) ;
#761 = CARTESIAN_POINT ( 'NONE',  ( -25.39999999999996305, 0.000000000000000000, 0.000000000000000000 ) ) ;
#762 = CARTESIAN_POINT ( 'NONE',  ( 0.7753715989337328640, 0.000000000000000000, 2.674418604651162212 ) ) ;
#763 = VERTEX_POINT ( 'NONE', #789 ) ;
#764 = DIRECTION ( 'NONE',  ( -1.000000000000000000, -0.000000000000000000, -0.000000000000000000 ) ) ;
#765 = VERTEX_POINT ( 'NONE', #687 ) ;
#766 = EDGE_LOOP ( 'NONE', ( #817, #814, #31, #368, #985, #521 ) ) ;
#767 = CARTESIAN_POINT ( 'NONE',  ( 1.750000000000000000, 0.3700000000000018274, -0.5274823318188611720 ) ) ;
#768 = DIRECTION ( 'NONE',  ( 0.000000000000000000, 0.000000000000000000, 1.000000000000000000 ) ) ;
#769 = EDGE_LOOP ( 'NONE', ( #76, #546, #127, #371 ) ) ;
#770 = DIRECTION ( 'NONE',  ( 0.000000000000000000, 0.000000000000000000, -1.000000000000000000 ) ) ;
#771 = CARTESIAN_POINT ( 'NONE',  ( 2.399999999999999467, 0.000000000000000000, 0.000000000000000000 ) ) ;
#772 = AXIS2_PLACEMENT_3D ( 'NONE', #50, #677, #976 ) ;
#773 = EDGE_CURVE ( 'NONE', #633, #139, #354, .T. ) ;
#774 = DIRECTION ( 'NONE',  ( -1.000000000000000000, 0.000000000000000000, -6.740534387672049081E-16 ) ) ;
#775 = ORIENTED_EDGE ( 'NONE', *, *, #67, .T. ) ;
#776 = VERTEX_POINT ( 'NONE', #951 ) ;
#777 = CARTESIAN_POINT ( 'NONE',  ( 1.750000000000000222, 0.5274823318189998389, -0.3699999999999998845 ) ) ;
#778 = CARTESIAN_POINT ( 'NONE',  ( 1.749999999999999778, 0.3700000000000014388, -0.4150132528004364385 ) ) ;
#779 = EDGE_CURVE ( 'NONE', #875, #404, #995, .T. ) ;
#780 = ORIENTED_EDGE ( 'NONE', *, *, #794, .T. ) ;
#781 = CARTESIAN_POINT ( 'NONE',  ( 1.750000000000000000, -0.5274823318188623933, -0.3699999999999999956 ) ) ;
#782 = ORIENTED_EDGE ( 'NONE', *, *, #674, .T. ) ;
#783 = DIRECTION ( 'NONE',  ( -1.000000000000000000, -0.000000000000000000, -0.000000000000000000 ) ) ;
#784 = CARTESIAN_POINT ( 'NONE',  ( 1.750000000000000000, -0.3700000000000018274, 0.5274823318189988397 ) ) ;
#785 = ORIENTED_EDGE ( 'NONE', *, *, #497, .F. ) ;
#786 = CARTESIAN_POINT ( 'NONE',  ( 1.749999999999999778, 0.000000000000000000, 0.000000000000000000 ) ) ;
#787 = ORIENTED_EDGE ( 'NONE', *, *, #386, .T. ) ;
#788 = EDGE_CURVE ( 'NONE', #146, #310, #128, .T. ) ;
#789 = CARTESIAN_POINT ( 'NONE',  ( 1.750000000000000000, 0.3700000000000018274, -0.5274823318188611720 ) ) ;
#790 = DIRECTION ( 'NONE',  ( 0.000000000000000000, 0.000000000000000000, 1.000000000000000000 ) ) ;
#791 = VECTOR ( 'NONE', #712, 1000.000000000000000 ) ;
#792 = DIRECTION ( 'NONE',  ( 6.707840301784530471E-16, 1.000000000000000000, 3.388709918163807333E-15 ) ) ;
#793 = CARTESIAN_POINT ( 'NONE',  ( 1.003501532591313472, 0.000000000000000000, 0.000000000000000000 ) ) ;
#794 = EDGE_CURVE ( 'NONE', #696, #317, #156, .T. ) ;
#795 = CARTESIAN_POINT ( 'NONE',  ( 0.6140734012210607995, -0.5172535664943105349, 0.3699999999999993294 ) ) ;
#796 = FILL_AREA_STYLE ('',( #949 ) ) ;
#797 = ORIENTED_EDGE ( 'NONE', *, *, #204, .F. ) ;
#798 = DIRECTION ( 'NONE',  ( -1.000000000000000000, -0.000000000000000000, -0.000000000000000000 ) ) ;
#799 = DIRECTION ( 'NONE',  ( -1.000000000000000000, 6.707840301784530471E-16, 2.342029923762058067E-30 ) ) ;
#800 = FACE_OUTER_BOUND ( 'NONE', #560, .T. ) ;
#801 = EDGE_LOOP ( 'NONE', ( #752 ) ) ;
#802 = DIRECTION ( 'NONE',  ( -1.000000000000000000, -0.000000000000000000, -0.000000000000000000 ) ) ;
#803 = B_SPLINE_CURVE_WITH_KNOTS ( 'NONE', 3,
 ( #723, #795, #33, #101 ),
 .UNSPECIFIED., .F., .F.,
 ( 4, 4 ),
 ( 0.001036549833494524375, 0.002747329934099759525 ),
 .UNSPECIFIED. ) ;
#804 = DIRECTION ( 'NONE',  ( 6.707840301784530471E-16, -1.027714206793260226E-16, -1.000000000000000000 ) ) ;
#805 = DIRECTION ( 'NONE',  ( 0.000000000000000000, 1.000000000000000000, 1.027714206793260349E-16 ) ) ;
#806 = EDGE_CURVE ( 'NONE', #387, #776, #757, .T. ) ;
#807 = CIRCLE ( 'NONE', #1, 0.5560000000000000497 ) ;
#808 = VERTEX_POINT ( 'NONE', #888 ) ;
#809 = CARTESIAN_POINT ( 'NONE',  ( 1.749999999999999778, 0.000000000000000000, 0.000000000000000000 ) ) ;
#810 = CARTESIAN_POINT ( 'NONE',  ( 1.750000000000000000, -0.5274823318188623933, -0.3699999999999999956 ) ) ;
#811 = DIRECTION ( 'NONE',  ( -1.000000000000000000, 0.000000000000000000, -6.707840301784530471E-16 ) ) ;
#812 = AXIS2_PLACEMENT_3D ( 'NONE', #494, #442, #583 ) ;
#813 = ADVANCED_FACE ( 'NONE', ( #957, #577 ), #550, .F. ) ;
#814 = ORIENTED_EDGE ( 'NONE', *, *, #991, .F. ) ;
#815 = DIRECTION ( 'NONE',  ( -1.000000000000000000, -0.000000000000000000, -0.000000000000000000 ) ) ;
#816 = FACE_OUTER_BOUND ( 'NONE', #394, .T. ) ;
#817 = ORIENTED_EDGE ( 'NONE', *, *, #73, .F. ) ;
#818 = AXIS2_PLACEMENT_3D ( 'NONE', #283, #211, #572 ) ;
#819 = ORIENTED_EDGE ( 'NONE', *, *, #703, .T. ) ;
#820 = CARTESIAN_POINT ( 'NONE',  ( 4.563582625308078455, -2.405084832411839215E-15, -0.8753179833057899151 ) ) ;
#821 = DIRECTION ( 'NONE',  ( -1.000000000000000000, -0.000000000000000000, -0.000000000000000000 ) ) ;
#822 = ADVANCED_FACE ( 'NONE', ( #646 ), #968, .F. ) ;
#823 = DIRECTION ( 'NONE',  ( -1.000000000000000000, -0.000000000000000000, -0.000000000000000000 ) ) ;
#824 = ORIENTED_EDGE ( 'NONE', *, *, #204, .T. ) ;
#825 = AXIS2_PLACEMENT_3D ( 'NONE', #356, #448, #218 ) ;
#826 = CIRCLE ( 'NONE', #892, 4.986291206899173822 ) ;
#827 = CARTESIAN_POINT ( 'NONE',  ( 1.749999999999999778, -0.4150132528004372157, 0.3700000000000006062 ) ) ;
#828 = ORIENTED_EDGE ( 'NONE', *, *, #857, .T. ) ;
#829 = AXIS2_PLACEMENT_3D ( 'NONE', #661, #815, #651 ) ;
#830 = CIRCLE ( 'NONE', #85, 0.6751696141506920990 ) ;
#831 = CARTESIAN_POINT ( 'NONE',  ( 1.660251296188909986, 0.5722293774027255031, -0.06135236830546016151 ) ) ;
#832 = ORIENTED_EDGE ( 'NONE', *, *, #264, .F. ) ;
#833 = CONICAL_SURFACE ( 'NONE', #261, 0.5560000000000000497, 0.06981317007976597933 ) ;
#834 = CARTESIAN_POINT ( 'NONE',  ( 2.499999999999998668, 0.000000000000000000, 0.000000000000000000 ) ) ;
#835 = ADVANCED_FACE ( 'NONE', ( #728 ), #622, .F. ) ;
#836 = CARTESIAN_POINT ( 'NONE',  ( 0.04579512008964174014, -0.3699999999999969980, -0.5647601330409190989 ) ) ;
#837 = VERTEX_POINT ( 'NONE', #732 ) ;
#838 = AXIS2_PLACEMENT_3D ( 'NONE', #284, #883, #507 ) ;
#839 = DIRECTION ( 'NONE',  ( 0.8949343913984284526, 0.4461977533474642543, 0.000000000000000000 ) ) ;
#840 = DIRECTION ( 'NONE',  ( -1.000000000000000000, -0.000000000000000000, -0.000000000000000000 ) ) ;
#841 = ORIENTED_EDGE ( 'NONE', *, *, #180, .F. ) ;
#842 = EDGE_CURVE ( 'NONE', #404, #519, #420, .T. ) ;
#843 = FACE_OUTER_BOUND ( 'NONE', #70, .T. ) ;
#844 = CARTESIAN_POINT ( 'NONE',  ( 1.749999999999999778, 0.000000000000000000, 0.000000000000000000 ) ) ;
#845 = VERTEX_POINT ( 'NONE', #41 ) ;
#846 = CIRCLE ( 'NONE', #626, 4.903402727001716421 ) ;
#847 = CONICAL_SURFACE ( 'NONE', #581, 0.5560000000000000497, 0.06981317007976597933 ) ;
#848 = CARTESIAN_POINT ( 'NONE',  ( 0.04579512008964254505, 0.3699999999999982192, 0.5647601330409183218 ) ) ;
#849 = EDGE_CURVE ( 'NONE', #146, #35, #882, .T. ) ;
#850 = DIRECTION ( 'NONE',  ( 0.000000000000000000, 0.000000000000000000, -1.000000000000000000 ) ) ;
#851 = DIRECTION ( 'NONE',  ( 0.8949343913984284526, 0.4461977533474641988, 0.000000000000000000 ) ) ;
#852 = VERTEX_POINT ( 'NONE', #511 ) ;
#853 = ORIENTED_EDGE ( 'NONE', *, *, #217, .F. ) ;
#854 = CARTESIAN_POINT ( 'NONE',  ( 0.000000000000000000, 1.400000000000000133, -0.3700000000000001066 ) ) ;
#855 = CARTESIAN_POINT ( 'NONE',  ( 0.000000000000000000, -0.3699999999999941669, -1.400000000000001465 ) ) ;
#856 = AXIS2_PLACEMENT_3D ( 'NONE', #740, #44, #970 ) ;
#857 = EDGE_CURVE ( 'NONE', #765, #765, #754, .T. ) ;
#858 = CARTESIAN_POINT ( 'NONE',  ( 2.499999999999998668, 0.000000000000000000, 1.500000000000000000 ) ) ;
#859 = VERTEX_POINT ( 'NONE', #738 ) ;
#860 = DIRECTION ( 'NONE',  ( -1.000000000000000000, -0.000000000000000000, -0.000000000000000000 ) ) ;
#861 = EDGE_LOOP ( 'NONE', ( #538, #106, #80 ) ) ;
#862 = LINE ( 'NONE', #704, #597 ) ;
#863 = DIRECTION ( 'NONE',  ( 0.4461977533474642543, 3.124646727056549926E-15, -0.8949343913984284526 ) ) ;
#864 = ADVANCED_FACE ( 'NONE', ( #506 ), #753, .F. ) ;
#865 = ORIENTED_EDGE ( 'NONE', *, *, #884, .F. ) ;
#866 = DIRECTION ( 'NONE',  ( 0.000000000000000000, 0.000000000000000000, 1.000000000000000000 ) ) ;
#867 = DIRECTION ( 'NONE',  ( 0.8949343913984284526, -1.557891129246402707E-15, 0.4461977533474642543 ) ) ;
#868 = AXIS2_PLACEMENT_3D ( 'NONE', #566, #161, #947 ) ;
#869 = EDGE_CURVE ( 'NONE', #994, #16, #830, .T. ) ;
#870 = DIRECTION ( 'NONE',  ( -1.000000000000000000, -0.000000000000000000, -0.000000000000000000 ) ) ;
#871 = CARTESIAN_POINT ( 'NONE',  ( 1.749999999999999778, 0.000000000000000000, 0.000000000000000000 ) ) ;
#872 = DIRECTION ( 'NONE',  ( 0.8949343913984284526, -2.112342450038499052E-15, 0.4461977533474641988 ) ) ;
#873 = CIRCLE ( 'NONE', #269, 1.600000000000000089 ) ;
#874 = CARTESIAN_POINT ( 'NONE',  ( 5.000000000000000888, -5.166723470724900690E-15, -0.3699999999999993294 ) ) ;
#875 = VERTEX_POINT ( 'NONE', #114 ) ;
#876 = CARTESIAN_POINT ( 'NONE',  ( 1.749999999999999778, 0.000000000000000000, 0.000000000000000000 ) ) ;
#877 = FACE_OUTER_BOUND ( 'NONE', #675, .T. ) ;
#878 = AXIS2_PLACEMENT_3D ( 'NONE', #247, #840, #379 ) ;
#879 = CIRCLE ( 'NONE', #576, 0.5560000000000000497 ) ;
#880 = CARTESIAN_POINT ( 'NONE',  ( 0.04579512008964174014, 0.5647601330409133258, -0.3700000000000001066 ) ) ;
#881 = ORIENTED_EDGE ( 'NONE', *, *, #806, .T. ) ;
#882 = LINE ( 'NONE', #194, #929 ) ;
#883 = DIRECTION ( 'NONE',  ( -1.751487513279285852E-16, -1.000000000000000000, -3.594252759522459772E-15 ) ) ;
#884 = EDGE_CURVE ( 'NONE', #950, #845, #39, .T. ) ;
#885 = ORIENTED_EDGE ( 'NONE', *, *, #751, .F. ) ;
#886 = AXIS2_PLACEMENT_3D ( 'NONE', #960, #792, #270 ) ;
#887 = ORIENTED_EDGE ( 'NONE', *, *, #932, .F. ) ;
#888 = CARTESIAN_POINT ( 'NONE',  ( 1.749999999999999778, -0.5274823318188631704, 0.1757793776838876554 ) ) ;
#889 = CARTESIAN_POINT ( 'NONE',  ( 0.04579512008964174014, 0.5647601330409093290, 0.3699999999999988298 ) ) ;
#890 = CARTESIAN_POINT ( 'NONE',  ( 1.750000000000000000, -0.5274823318188623933, 0.3700000000000001066 ) ) ;
#891 = AXIS2_PLACEMENT_3D ( 'NONE', #130, #894, #667 ) ;
#892 = AXIS2_PLACEMENT_3D ( 'NONE', #922, #536, #240 ) ;
#893 = ORIENTED_EDGE ( 'NONE', *, *, #209, .F. ) ;
#894 = DIRECTION ( 'NONE',  ( -1.000000000000000000, -0.000000000000000000, -0.000000000000000000 ) ) ;
#895 = LINE ( 'NONE', #512, #175 ) ;
#896 = FACE_OUTER_BOUND ( 'NONE', #481, .T. ) ;
#897 = EDGE_CURVE ( 'NONE', #875, #837, #320, .T. ) ;
#898 = ORIENTED_EDGE ( 'NONE', *, *, #348, .T. ) ;
#899 = DIRECTION ( 'NONE',  ( 0.000000000000000000, 0.000000000000000000, 1.000000000000000000 ) ) ;
#900 = FACE_OUTER_BOUND ( 'NONE', #575, .T. ) ;
#901 = CARTESIAN_POINT ( 'NONE',  ( 1.749999999999999778, -0.1757793776834782884, 0.5274823318189996169 ) ) ;
#902 = AXIS2_PLACEMENT_3D ( 'NONE', #239, #783, #540 ) ;
#903 = EDGE_LOOP ( 'NONE', ( #887 ) ) ;
#904 = EDGE_CURVE ( 'NONE', #317, #361, #910, .T. ) ;
#905 = DIRECTION ( 'NONE',  ( 0.4461977533474078550, 0.8949343913984565413, -2.622404895638377286E-16 ) ) ;
#906 = ORIENTED_EDGE ( 'NONE', *, *, #291, .F. ) ;
#907 = VECTOR ( 'NONE', #598, 1000.000000000000000 ) ;
#908 = EDGE_LOOP ( 'NONE', ( #714, #906, #832, #865, #237, #186 ) ) ;
#909 = EDGE_LOOP ( 'NONE', ( #489, #824, #959 ) ) ;
#910 = CIRCLE ( 'NONE', #235, 0.5560000000000000497 ) ;
#911 = CARTESIAN_POINT ( 'NONE',  ( 0.04579512008964174014, -5.204748896376250896E-15, 0.000000000000000000 ) ) ;
#912 = EDGE_CURVE ( 'NONE', #55, #859, #365, .T. ) ;
#913 = CARTESIAN_POINT ( 'NONE',  ( 0.000000000000000000, -1.400000000000000133, -0.3699999999999999956 ) ) ;
#914 = ORIENTED_EDGE ( 'NONE', *, *, #410, .F. ) ;
#915 = AXIS2_PLACEMENT_3D ( 'NONE', #443, #749, #42 ) ;
#916 = CARTESIAN_POINT ( 'NONE',  ( 0.1878697342286364536, -1.306331621468011184, -0.3699999999999999956 ) ) ;
#917 = EDGE_CURVE ( 'NONE', #531, #146, #620, .T. ) ;
#918 = CARTESIAN_POINT ( 'NONE',  ( 5.000000000000000888, -5.166723470724899901E-15, 0.3700000000000022160 ) ) ;
#919 = ORIENTED_EDGE ( 'NONE', *, *, #788, .T. ) ;
#920 = AXIS2_PLACEMENT_3D ( 'NONE', #508, #122, #745 ) ;
#921 = CIRCLE ( 'NONE', #856, 0.6751696141506920990 ) ;
#922 = CARTESIAN_POINT ( 'NONE',  ( 5.000000000000000888, -5.166723470724900690E-15, -0.3699999999999993294 ) ) ;
#923 =( BOUNDED_CURVE ( )  B_SPLINE_CURVE ( 3, ( #254, #559, #98, #265 ),
 .UNSPECIFIED., .F., .T. ) 
 B_SPLINE_CURVE_WITH_KNOTS ( ( 4, 4 ),
 ( 5.913772338564086795, 6.652598275795085669 ),
 .UNSPECIFIED. ) 
 CURVE ( )  GEOMETRIC_REPRESENTATION_ITEM ( )  RATIONAL_B_SPLINE_CURVE ( ( 1.000000000000000000, 0.9550263097058686590, 0.9550263097058686590, 1.000000000000000000 ) ) 
 REPRESENTATION_ITEM ( '' )  );
#924 = DIRECTION ( 'NONE',  ( -1.000000000000000000, -0.000000000000000000, -0.000000000000000000 ) ) ;
#925 = ORIENTED_EDGE ( 'NONE', *, *, #459, .F. ) ;
#926 = ADVANCED_FACE ( 'NONE', ( #65 ), #309, .T. ) ;
#927 = DIRECTION ( 'NONE',  ( -1.000000000000000000, 0.000000000000000000, -6.740534387672049081E-16 ) ) ;
#928 = DIRECTION ( 'NONE',  ( 6.707840301784530471E-16, 1.000000000000000000, 3.388709918163807333E-15 ) ) ;
#929 = VECTOR ( 'NONE', #32, 1000.000000000000000 ) ;
#930 = ORIENTED_EDGE ( 'NONE', *, *, #463, .F. ) ;
#931 = ORIENTED_EDGE ( 'NONE', *, *, #630, .F. ) ;
#932 = EDGE_CURVE ( 'NONE', #383, #383, #557, .T. ) ;
#933 = AXIS2_PLACEMENT_3D ( 'NONE', #584, #821, #359 ) ;
#934 = PLANE ( 'NONE',  #498 ) ;
#935 = CARTESIAN_POINT ( 'NONE',  ( 1.750000000000000000, -0.5274823318188623933, -0.3699999999999999956 ) ) ;
#936 = CARTESIAN_POINT ( 'NONE',  ( 1.749999999999999778, 0.000000000000000000, 0.000000000000000000 ) ) ;
#937 = ORIENTED_EDGE ( 'NONE', *, *, #297, .T. ) ;
#938 = CARTESIAN_POINT ( 'NONE',  ( 1.182234488158504293, -0.3700000000000012168, 0.4682027105830375846 ) ) ;
#939 = CARTESIAN_POINT ( 'NONE',  ( 0.000000000000000000, 1.400000000000000133, 0.3699999999999995515 ) ) ;
#940 = CIRCLE ( 'NONE', #116, 4.986291206899172934 ) ;
#941 = VERTEX_POINT ( 'NONE', #537 ) ;
#942 = DIRECTION ( 'NONE',  ( 0.000000000000000000, 0.000000000000000000, 1.000000000000000000 ) ) ;
#943 = FACE_OUTER_BOUND ( 'NONE', #324, .T. ) ;
#944 = LINE ( 'NONE', #486, #791 ) ;
#945 = EDGE_CURVE ( 'NONE', #310, #941, #684, .T. ) ;
#946 =( NAMED_UNIT ( * ) PLANE_ANGLE_UNIT ( ) SI_UNIT ( $, .RADIAN. ) );
#947 = DIRECTION ( 'NONE',  ( 1.000000000000000000, 0.000000000000000000, 1.751487513279285852E-16 ) ) ;
#948 = CARTESIAN_POINT ( 'NONE',  ( 1.750000000000000000, 0.3700000000000018274, -0.5274823318188611720 ) ) ;
#949 = FILL_AREA_STYLE_COLOUR ( '', #369 ) ;
#950 = VERTEX_POINT ( 'NONE', #993 ) ;
#951 = CARTESIAN_POINT ( 'NONE',  ( 1.749999999999999778, 0.3700000000000014388, -0.4150132528004364385 ) ) ;
#952 = CARTESIAN_POINT ( 'NONE',  ( 1.749999999999999778, 0.000000000000000000, 0.000000000000000000 ) ) ;
#953 = AXIS2_PLACEMENT_3D ( 'NONE', #911, #529, #225 ) ;
#954 =( NAMED_UNIT ( * ) SI_UNIT ( $, .STERADIAN. ) SOLID_ANGLE_UNIT ( ) );
#955 = EDGE_LOOP ( 'NONE', ( #702, #853, #334, #785, #384, #797 ) ) ;
#956 = EDGE_CURVE ( 'NONE', #941, #808, #138, .T. ) ;
#957 = FACE_OUTER_BOUND ( 'NONE', #172, .T. ) ;
#958 = CARTESIAN_POINT ( 'NONE',  ( 1.750000000000000000, -0.5274823318188623933, 0.3700000000000001066 ) ) ;
#959 = ORIENTED_EDGE ( 'NONE', *, *, #849, .F. ) ;
#960 = CARTESIAN_POINT ( 'NONE',  ( 1.750000000000000000, -0.3699999999999982747, -0.5274823318188637256 ) ) ;
#961 = VERTEX_POINT ( 'NONE', #682 ) ;
#962 = DIRECTION ( 'NONE',  ( 0.8949343913984566523, 0.000000000000000000, -0.4461977533474078550 ) ) ;
#963 = EDGE_CURVE ( 'NONE', #139, #345, #227, .T. ) ;
#964 = FACE_OUTER_BOUND ( 'NONE', #330, .T. ) ;
#965 = CARTESIAN_POINT ( 'NONE',  ( 1.749999999999999778, 0.1757793776834749300, 0.5274823318190007271 ) ) ;
#966 = CIRCLE ( 'NONE', #902, 2.674418604651162212 ) ;
#967 = ORIENTED_EDGE ( 'NONE', *, *, #291, .T. ) ;
#968 = PLANE ( 'NONE',  #812 ) ;
#969 = FACE_OUTER_BOUND ( 'NONE', #10, .T. ) ;
#970 = DIRECTION ( 'NONE',  ( 0.000000000000000000, 0.000000000000000000, -1.000000000000000000 ) ) ;
#971 = EDGE_CURVE ( 'NONE', #586, #845, #700, .T. ) ;
#972 = VECTOR ( 'NONE', #298, 1000.000000000000227 ) ;
#973 = VECTOR ( 'NONE', #729, 1000.000000000000000 ) ;
#974 = CARTESIAN_POINT ( 'NONE',  ( 1.749999999999999778, 0.000000000000000000, 0.000000000000000000 ) ) ;
#975 = DIRECTION ( 'NONE',  ( -0.8949343913984284526, 0.000000000000000000, -0.4461977533474643098 ) ) ;
#976 = DIRECTION ( 'NONE',  ( 0.000000000000000000, 0.000000000000000000, 1.000000000000000000 ) ) ;
#977 = EDGE_CURVE ( 'NONE', #165, #395, #748, .T. ) ;
#978 = VERTEX_POINT ( 'NONE', #79 ) ;
#979 = FACE_OUTER_BOUND ( 'NONE', #514, .T. ) ;
#980 = PLANE ( 'NONE',  #520 ) ;
#981 = CIRCLE ( 'NONE', #398, 0.5560000000000000497 ) ;
#982 = ORIENTED_EDGE ( 'NONE', *, *, #630, .T. ) ;
#983 = DIRECTION ( 'NONE',  ( 6.707840301784530471E-16, -1.027714206793260226E-16, -1.000000000000000000 ) ) ;
#984 = FACE_OUTER_BOUND ( 'NONE', #347, .T. ) ;
#985 = ORIENTED_EDGE ( 'NONE', *, *, #171, .T. ) ;
#986 = AXIS2_PLACEMENT_3D ( 'NONE', #637, #491, #421 ) ;
#987 = ADVANCED_FACE ( 'NONE', ( #604 ), #457, .T. ) ;
#988 = CARTESIAN_POINT ( 'NONE',  ( 1.750000000000000000, -0.3699999999999986633, -0.4150132528004380483 ) ) ;
#989 = CARTESIAN_POINT ( 'NONE',  ( 1.750000000000000000, -0.3700000000000018274, 0.5274823318189988397 ) ) ;
#990 = ORIENTED_EDGE ( 'NONE', *, *, #252, .T. ) ;
#991 = EDGE_CURVE ( 'NONE', #519, #59, #236, .T. ) ;
#992 = CARTESIAN_POINT ( 'NONE',  ( 1.750000000000000000, -0.5274823318188623933, -0.3699999999999999956 ) ) ;
#993 = CARTESIAN_POINT ( 'NONE',  ( 0.1878697342286416716, 1.306331621468023396, -0.3700000000000000511 ) ) ;
#994 = VERTEX_POINT ( 'NONE', #836 ) ;
#995 = CIRCLE ( 'NONE', #215, 4.903402727001782146 ) ;
#996 = CARTESIAN_POINT ( 'NONE',  ( 1.749999999999999778, 0.1757793776838913469, -0.5274823318188619492 ) ) ;
#997 = EDGE_CURVE ( 'NONE', #266, #387, #879, .T. ) ;
#998 = CARTESIAN_POINT ( 'NONE',  ( 1.750000000000000000, 0.3699999999999980527, 0.5274823318190013932 ) ) ;
#999 = ORIENTED_EDGE ( 'NONE', *, *, #674, .F. ) ;
ENDSEC;
END-ISO-10303-21;
