ISO-10303-21;
HEADER;
FILE_DESCRIPTION (( 'STEP AP214' ),
    '1' );
FILE_NAME ('ISO 7045 - M1.6 x 8 - Z - 8N.STEP',
    '2025-07-30T15:09:16',
    ( '' ),
    ( '' ),
    'SwSTEP 2.0',
    'SolidWorks 2025',
    '' );
FILE_SCHEMA (( 'AUTOMOTIVE_DESIGN' ));
ENDSEC;

DATA;
#1 = CARTESIAN_POINT ( 'NONE',  ( 0.6117514594722688326, 0.2399999999999989364, 0.2895822732359025764 ) ) ;
#2 = AXIS2_PLACEMENT_3D ( 'NONE', #744, #646, #571 ) ;
#3 = CARTESIAN_POINT ( 'NONE',  ( 0.03485364387781578893, -0.2399999999999981593, -0.3397844064955283794 ) ) ;
#4 = DIRECTION ( 'NONE',  ( 0.000000000000000000, 0.000000000000000000, 1.000000000000000000 ) ) ;
#5 = EDGE_CURVE ( 'NONE', #716, #413, #418, .T. ) ;
#6 = ORIENTED_EDGE ( 'NONE', *, *, #69, .T. ) ;
#7 = CARTESIAN_POINT ( 'NONE',  ( 0.03485364387781613588, -2.081899558550500674E-15, 0.000000000000000000 ) ) ;
#8 = SURFACE_STYLE_FILL_AREA ( #774 ) ;
#9 = AXIS2_PLACEMENT_3D ( 'NONE', #536, #634, #12 ) ;
#10 = EDGE_LOOP ( 'NONE', ( #927, #622, #530, #660 ) ) ;
#11 = ORIENTED_EDGE ( 'NONE', *, *, #891, .T. ) ;
#12 = DIRECTION ( 'NONE',  ( 0.000000000000000000, 3.552713678800500929E-15, -1.000000000000000000 ) ) ;
#13 = AXIS2_PLACEMENT_3D ( 'NONE', #645, #582, #189 ) ;
#14 = LINE ( 'NONE', #786, #871 ) ;
#15 = EDGE_LOOP ( 'NONE', ( #770, #496, #989, #979, #572, #782, #890, #426, #632, #525, #959, #66, #839, #422, #11, #67 ) ) ;
#16 = VERTEX_POINT ( 'NONE', #155 ) ;
#17 = EDGE_CURVE ( 'NONE', #576, #866, #756, .T. ) ;
#18 = DIRECTION ( 'NONE',  ( 0.8949343913984794119, -1.557891129246045551E-15, 0.4461977533473619473 ) ) ;
#19 = AXIS2_PLACEMENT_3D ( 'NONE', #640, #555, #20 ) ;
#20 = DIRECTION ( 'NONE',  ( 0.8949343913984794119, 0.4461977533473619473, 0.000000000000000000 ) ) ;
#21 = ORIENTED_EDGE ( 'NONE', *, *, #76, .T. ) ;
#22 = FACE_OUTER_BOUND ( 'NONE', #307, .T. ) ;
#23 = DIRECTION ( 'NONE',  ( 0.000000000000000000, 0.000000000000000000, 1.000000000000000000 ) ) ;
#24 = DIRECTION ( 'NONE',  ( 0.000000000000000000, -4.517509052022937443E-16, -1.000000000000000000 ) ) ;
#25 = EDGE_LOOP ( 'NONE', ( #733, #457, #997, #552 ) ) ;
#26 = CARTESIAN_POINT ( 'NONE',  ( 0.8999999999999998002, 0.05463497750277771653, 0.3512766277925004621 ) ) ;
#27 = DIRECTION ( 'NONE',  ( 0.000000000000000000, 0.000000000000000000, 1.000000000000000000 ) ) ;
#28 = FACE_OUTER_BOUND ( 'NONE', #777, .T. ) ;
#29 = EDGE_LOOP ( 'NONE', ( #641, #157 ) ) ;
#30 = EDGE_CURVE ( 'NONE', #951, #61, #353, .T. ) ;
#31 = CARTESIAN_POINT ( 'NONE',  ( 0.8999999999999998002, 0.2400000000000009071, -0.2622598901852884468 ) ) ;
#32 = CARTESIAN_POINT ( 'NONE',  ( 2.500000000000000444, -2.081899558550500674E-15, 0.2400000000000005185 ) ) ;
#33 = ORIENTED_EDGE ( 'NONE', *, *, #371, .T. ) ;
#34 = ADVANCED_FACE ( 'NONE', ( #529 ), #561, .F. ) ;
#35 = DIRECTION ( 'NONE',  ( 0.000000000000000000, -1.000000000000000000, 0.000000000000000000 ) ) ;
#36 = FACE_OUTER_BOUND ( 'NONE', #463, .T. ) ;
#37 = AXIS2_PLACEMENT_3D ( 'NONE', #59, #205, #149 ) ;
#38 = ORIENTED_EDGE ( 'NONE', *, *, #501, .F. ) ;
#39 = CARTESIAN_POINT ( 'NONE',  ( 0.9000000000000000222, 0.2399999999999987699, 0.3512766277925008507 ) ) ;
#40 = ADVANCED_FACE ( 'NONE', ( #83 ), #901, .F. ) ;
#41 = CARTESIAN_POINT ( 'NONE',  ( 0.9000000000000000222, 0.2400000000000012124, -0.3512766277926857028 ) ) ;
#42 = VECTOR ( 'NONE', #785, 1000.000000000000000 ) ;
#43 = ORIENTED_EDGE ( 'NONE', *, *, #550, .F. ) ;
#44 = CARTESIAN_POINT ( 'NONE',  ( 0.8999999999999998002, 0.000000000000000000, 0.000000000000000000 ) ) ;
#45 = ADVANCED_FACE ( 'NONE', ( #301 ), #77, .T. ) ;
#46 = PLANE ( 'NONE',  #886 ) ;
#47 = ORIENTED_EDGE ( 'NONE', *, *, #915, .T. ) ;
#48 = ORIENTED_EDGE ( 'NONE', *, *, #319, .F. ) ;
#49 = DIRECTION ( 'NONE',  ( 0.000000000000000000, -4.517509052022937443E-16, -1.000000000000000000 ) ) ;
#50 = CARTESIAN_POINT ( 'NONE',  ( 0.9000000000000000222, -0.3512766277926865355, -0.2399999999999999911 ) ) ;
#51 = EDGE_LOOP ( 'NONE', ( #669, #317, #686, #106 ) ) ;
#52 = AXIS2_PLACEMENT_3D ( 'NONE', #387, #242, #924 ) ;
#53 = CARTESIAN_POINT ( 'NONE',  ( 0.3233375591043187725, 0.2399999999999988809, 0.3150869624607303132 ) ) ;
#54 = B_SPLINE_CURVE_WITH_KNOTS ( 'NONE', 3,
 ( #227, #996, #135, #849 ),
 .UNSPECIFIED., .F., .F.,
 ( 4, 4 ),
 ( 0.0006664741659387587351, 0.001535090396365676848 ),
 .UNSPECIFIED. ) ;
#55 = CARTESIAN_POINT ( 'NONE',  ( 0.8999999999999998002, 0.2622598901852890019, 0.2400000000000001854 ) ) ;
#56 = ORIENTED_EDGE ( 'NONE', *, *, #210, .T. ) ;
#57 = CIRCLE ( 'NONE', #348, 2.467865940133984193 ) ;
#58 = EDGE_CURVE ( 'NONE', #16, #16, #193, .T. ) ;
#59 = CARTESIAN_POINT ( 'NONE',  ( 2.321723084137649273, -3.330342378981739094E-15, 0.3575682351620120270 ) ) ;
#60 = DIRECTION ( 'NONE',  ( 0.000000000000000000, 0.000000000000000000, 1.000000000000000000 ) ) ;
#61 = VERTEX_POINT ( 'NONE', #843 ) ;
#62 = AXIS2_PLACEMENT_3D ( 'NONE', #832, #914, #828 ) ;
#63 = AXIS2_PLACEMENT_3D ( 'NONE', #32, #933, #95 ) ;
#64 = DIRECTION ( 'NONE',  ( 0.000000000000000000, 1.000000000000000000, 0.000000000000000000 ) ) ;
#65 = CARTESIAN_POINT ( 'NONE',  ( 2.500000000000000444, -2.081899558550500674E-15, -0.2399999999999999911 ) ) ;
#66 = ORIENTED_EDGE ( 'NONE', *, *, #459, .F. ) ;
#67 = ORIENTED_EDGE ( 'NONE', *, *, #489, .F. ) ;
#68 = PLANE ( 'NONE',  #255 ) ;
#69 = EDGE_CURVE ( 'NONE', #266, #364, #152, .T. ) ;
#70 = FACE_OUTER_BOUND ( 'NONE', #142, .T. ) ;
#71 = DIRECTION ( 'NONE',  ( 4.818676322157797375E-16, 0.000000000000000000, -1.000000000000000000 ) ) ;
#72 = EDGE_LOOP ( 'NONE', ( #392, #851, #240, #500, #263, #602, #721, #219, #252, #752, #491, #956, #894, #377, #84, #222 ) ) ;
#73 = AXIS2_PLACEMENT_3D ( 'NONE', #177, #932, #23 ) ;
#74 = CARTESIAN_POINT ( 'NONE',  ( 9.300000000000002487, 0.000000000000000000, 0.000000000000000000 ) ) ;
#75 = CARTESIAN_POINT ( 'NONE',  ( 0.8999999999999998002, 0.000000000000000000, 0.000000000000000000 ) ) ;
#76 = EDGE_CURVE ( 'NONE', #476, #866, #14, .T. ) ;
#77 = PLANE ( 'NONE',  #769 ) ;
#78 = ORIENTED_EDGE ( 'NONE', *, *, #784, .F. ) ;
#79 = APPLICATION_CONTEXT ( 'automotive_design' ) ;
#80 = DIRECTION ( 'NONE',  ( -1.000000000000000000, -0.000000000000000000, -0.000000000000000000 ) ) ;
#81 = B_SPLINE_CURVE_WITH_KNOTS ( 'NONE', 3,
 ( #783, #789, #97, #623 ),
 .UNSPECIFIED., .F., .F.,
 ( 4, 4 ),
 ( 0.0006664741659387587351, 0.001535090396365677281 ),
 .UNSPECIFIED. ) ;
#82 = DIRECTION ( 'NONE',  ( 0.000000000000000000, 0.000000000000000000, -1.000000000000000000 ) ) ;
#83 = FACE_OUTER_BOUND ( 'NONE', #728, .T. ) ;
#84 = ORIENTED_EDGE ( 'NONE', *, *, #326, .T. ) ;
#85 = AXIS2_PLACEMENT_3D ( 'NONE', #852, #324, #248 ) ;
#86 = DIRECTION ( 'NONE',  ( 4.818676322157797375E-16, 0.000000000000000000, -1.000000000000000000 ) ) ;
#87 = SURFACE_STYLE_USAGE ( .BOTH. , #703 ) ;
#88 = AXIS2_PLACEMENT_3D ( 'NONE', #681, #365, #990 ) ;
#89 = FACE_OUTER_BOUND ( 'NONE', #278, .T. ) ;
#90 = EDGE_LOOP ( 'NONE', ( #580, #224, #322 ) ) ;
#91 = EDGE_CURVE ( 'NONE', #311, #604, #937, .T. ) ;
#92 = LINE ( 'NONE', #845, #877 ) ;
#93 = CIRCLE ( 'NONE', #138, 0.4159969265481628375 ) ;
#94 = LINE ( 'NONE', #630, #42 ) ;
#95 = DIRECTION ( 'NONE',  ( -1.000000000000000000, 0.000000000000000000, -4.792625093689236642E-16 ) ) ;
#96 = VERTEX_POINT ( 'NONE', #179 ) ;
#97 = CARTESIAN_POINT ( 'NONE',  ( 0.6117514594725664834, -0.2895822732358737661, 0.2399999999999996303 ) ) ;
#98 = CARTESIAN_POINT ( 'NONE',  ( 0.8868283770652276576, 0.3578437556377630502, 0.01840460858054081272 ) ) ;
#99 = VECTOR ( 'NONE', #24, 1000.000000000000000 ) ;
#100 = CARTESIAN_POINT ( 'NONE',  ( 0.1236136778209441789, 0.2400000000000025446, -0.7383685040413744405 ) ) ;
#101 = ORIENTED_EDGE ( 'NONE', *, *, #531, .F. ) ;
#102 = CARTESIAN_POINT ( 'NONE',  ( 0.03485364387781596240, 0.2400000000000011846, -0.3397844064955262700 ) ) ;
#103 = CARTESIAN_POINT ( 'NONE',  ( 0.8868283770652277687, 0.3578437556377630502, -0.01840460858054132967 ) ) ;
#104 = ADVANCED_FACE ( 'NONE', ( #89 ), #276, .F. ) ;
#105 = LINE ( 'NONE', #109, #367 ) ;
#106 = ORIENTED_EDGE ( 'NONE', *, *, #969, .F. ) ;
#107 = AXIS2_PLACEMENT_3D ( 'NONE', #122, #414, #662 ) ;
#108 = DIRECTION ( 'NONE',  ( 0.000000000000000000, 0.000000000000000000, 1.000000000000000000 ) ) ;
#109 = CARTESIAN_POINT ( 'NONE',  ( 0.000000000000000000, -0.2399999999999965494, -0.8000000000000012657 ) ) ;
#110 = EDGE_CURVE ( 'NONE', #230, #364, #875, .T. ) ;
#111 = ORIENTED_EDGE ( 'NONE', *, *, #930, .F. ) ;
#112 = CIRCLE ( 'NONE', #551, 0.3554999999999999272 ) ;
#113 = VERTEX_POINT ( 'NONE', #873 ) ;
#114 = DIRECTION ( 'NONE',  ( 0.4461977533475102731, 0.8949343913984054710, -4.042874214108934858E-16 ) ) ;
#115 = CARTESIAN_POINT ( 'NONE',  ( 0.9000000000000000222, -0.3512766277926865355, -0.2399999999999999911 ) ) ;
#116 = CIRCLE ( 'NONE', #63, 2.488453334905037728 ) ;
#117 = ORIENTED_EDGE ( 'NONE', *, *, #930, .T. ) ;
#118 = CARTESIAN_POINT ( 'NONE',  ( 0.9000000000000000222, 0.3512766277925002401, 0.2399999999999997691 ) ) ;
#119 = CARTESIAN_POINT ( 'NONE',  ( 0.6117514594725663724, -0.2400000000000006295, 0.2895822732358730445 ) ) ;
#120 = ORIENTED_EDGE ( 'NONE', *, *, #259, .T. ) ;
#121 = ADVANCED_FACE ( 'NONE', ( #856 ), #865, .F. ) ;
#122 = CARTESIAN_POINT ( 'NONE',  ( 0.9000000000000000222, 0.3512766277925000180, -0.2399999999999999911 ) ) ;
#123 = CARTESIAN_POINT ( 'NONE',  ( 0.8999999999999998002, 0.05463497750158189531, -0.3512766277926864800 ) ) ;
#124 = AXIS2_PLACEMENT_3D ( 'NONE', #160, #946, #470 ) ;
#125 = EDGE_LOOP ( 'NONE', ( #213 ) ) ;
#126 = CARTESIAN_POINT ( 'NONE',  ( 0.8999999999999998002, -0.05463497750277985371, 0.3512766277925001290 ) ) ;
#127 = EDGE_LOOP ( 'NONE', ( #272 ) ) ;
#128 = AXIS2_PLACEMENT_3D ( 'NONE', #750, #517, #446 ) ;
#129 = DIRECTION ( 'NONE',  ( 1.000000000000000000, 0.000000000000000000, 0.000000000000000000 ) ) ;
#130 = LINE ( 'NONE', #732, #919 ) ;
#131 = ADVANCED_FACE ( 'NONE', ( #409 ), #698, .T. ) ;
#132 = AXIS2_PLACEMENT_3D ( 'NONE', #830, #820, #675 ) ;
#133 = ORIENTED_EDGE ( 'NONE', *, *, #790, .F. ) ;
#134 = CARTESIAN_POINT ( 'NONE',  ( 0.8999999999999998002, 0.000000000000000000, 0.000000000000000000 ) ) ;
#135 = CARTESIAN_POINT ( 'NONE',  ( 0.6117514594725667054, 0.2895822732358735441, -0.2399999999999999911 ) ) ;
#136 = EDGE_LOOP ( 'NONE', ( #316, #120, #48 ) ) ;
#137 = ADVANCED_FACE ( 'NONE', ( #953, #28 ), #161, .T. ) ;
#138 = AXIS2_PLACEMENT_3D ( 'NONE', #320, #625, #82 ) ;
#139 = LINE ( 'NONE', #605, #682 ) ;
#140 = CARTESIAN_POINT ( 'NONE',  ( 0.3233375591042829678, -0.3150869624607325337, -0.2399999999999999911 ) ) ;
#141 = DIRECTION ( 'NONE',  ( 0.000000000000000000, -3.496437852441465402E-15, 1.000000000000000000 ) ) ;
#142 = EDGE_LOOP ( 'NONE', ( #878, #486, #186 ) ) ;
#143 = AXIS2_PLACEMENT_3D ( 'NONE', #626, #795, #710 ) ;
#144 = EDGE_CURVE ( 'NONE', #679, #535, #434, .T. ) ;
#145 = DIRECTION ( 'NONE',  ( 0.000000000000000000, 0.000000000000000000, 1.000000000000000000 ) ) ;
#146 = CARTESIAN_POINT ( 'NONE',  ( 2.321723084137399251, -0.3575682351623678534, 1.615317739061853972E-16 ) ) ;
#147 = CARTESIAN_POINT ( 'NONE',  ( 0.8999999999999998002, 0.000000000000000000, 0.000000000000000000 ) ) ;
#148 = VERTEX_POINT ( 'NONE', #100 ) ;
#149 = DIRECTION ( 'NONE',  ( -0.8949343913984794119, 0.000000000000000000, -0.4461977533473618918 ) ) ;
#150 = ADVANCED_FACE ( 'NONE', ( #781 ), #331, .F. ) ;
#151 = DIRECTION ( 'NONE',  ( 0.000000000000000000, 0.000000000000000000, 1.000000000000000000 ) ) ;
#152 = LINE ( 'NONE', #461, #497 ) ;
#153 = EDGE_LOOP ( 'NONE', ( #472, #292, #999, #246 ) ) ;
#154 = VECTOR ( 'NONE', #35, 1000.000000000000000 ) ;
#155 = CARTESIAN_POINT ( 'NONE',  ( 0.5326338288396890164, 0.000000000000000000, 1.542553191489362874 ) ) ;
#156 = DIRECTION ( 'NONE',  ( 1.000000000000000000, 0.000000000000000000, 0.000000000000000000 ) ) ;
#157 = ORIENTED_EDGE ( 'NONE', *, *, #91, .F. ) ;
#158 = ORIENTED_EDGE ( 'NONE', *, *, #76, .F. ) ;
#159 = CARTESIAN_POINT ( 'NONE',  ( 2.500000000000000444, -2.081899558550500674E-15, 0.2400000000000005185 ) ) ;
#160 = CARTESIAN_POINT ( 'NONE',  ( 0.9000000000000000222, -0.3512766277926865355, -0.2399999999999999911 ) ) ;
#161 = CYLINDRICAL_SURFACE ( 'NONE', #143, 1.600000000000000755 ) ;
#162 = ADVANCED_FACE ( 'NONE', ( #635 ), #195, .F. ) ;
#163 = ORIENTED_EDGE ( 'NONE', *, *, #448, .F. ) ;
#164 = CONICAL_SURFACE ( 'NONE', #88, 0.3554999999999999272, 0.06981317007976590994 ) ;
#165 = DIRECTION ( 'NONE',  ( -1.000000000000000000, -0.000000000000000000, -0.000000000000000000 ) ) ;
#166 = DIRECTION ( 'NONE',  ( -1.000000000000000000, 4.818676322157797375E-16, 1.682431845673921128E-30 ) ) ;
#167 = CARTESIAN_POINT ( 'NONE',  ( 0.03485364387781613588, -2.081899558550500674E-15, 0.000000000000000000 ) ) ;
#168 = EDGE_CURVE ( 'NONE', #61, #216, #355, .T. ) ;
#169 = ORIENTED_EDGE ( 'NONE', *, *, #210, .F. ) ;
#170 = DIRECTION ( 'NONE',  ( -0.000000000000000000, 0.000000000000000000, 1.000000000000000000 ) ) ;
#171 = AXIS2_PLACEMENT_3D ( 'NONE', #65, #291, #382 ) ;
#172 = CARTESIAN_POINT ( 'NONE',  ( 0.8999999999999998002, 0.3512766277925007952, 0.05463497750277559323 ) ) ;
#173 = DIRECTION ( 'NONE',  ( -1.000000000000000000, 4.818676322157797375E-16, 1.682431845673921128E-30 ) ) ;
#174 = ORIENTED_EDGE ( 'NONE', *, *, #259, .F. ) ;
#175 = CARTESIAN_POINT ( 'NONE',  ( 1.300000000000000044, 0.8000000000000003775, 0.000000000000000000 ) ) ;
#176 = EDGE_CURVE ( 'NONE', #535, #576, #439, .T. ) ;
#177 = CARTESIAN_POINT ( 'NONE',  ( 0.8999999999999998002, 0.000000000000000000, 0.000000000000000000 ) ) ;
#178 = CIRCLE ( 'NONE', #754, 0.9000000000000002442 ) ;
#179 = CARTESIAN_POINT ( 'NONE',  ( 0.1236136778209433185, -0.7383685040413755507, -0.2399999999999999911 ) ) ;
#180 = UNCERTAINTY_MEASURE_WITH_UNIT (LENGTH_MEASURE( 1.000000000000000082E-05 ), #697, 'distance_accuracy_value', 'NONE');
#181 = ORIENTED_EDGE ( 'NONE', *, *, #867, .T. ) ;
#182 = AXIS2_PLACEMENT_3D ( 'NONE', #696, #482, #407 ) ;
#183 = FILL_AREA_STYLE_COLOUR ( '', #204 ) ;
#184 = CARTESIAN_POINT ( 'NONE',  ( 0.9000000000000000222, -0.2399999999999985478, -0.3512766277926873126 ) ) ;
#185 = CONICAL_SURFACE ( 'NONE', #52, 0.3554999999999999272, 0.06981317007976590994 ) ;
#186 = ORIENTED_EDGE ( 'NONE', *, *, #300, .T. ) ;
#187 = EDGE_LOOP ( 'NONE', ( #374, #916, #861, #340 ) ) ;
#188 = AXIS2_PLACEMENT_3D ( 'NONE', #672, #755, #294 ) ;
#189 = DIRECTION ( 'NONE',  ( 0.000000000000000000, 0.000000000000000000, 1.000000000000000000 ) ) ;
#190 = CARTESIAN_POINT ( 'NONE',  ( 0.8999999999999998002, 0.2400000000000009071, -0.2622598901852884468 ) ) ;
#191 = ORIENTED_EDGE ( 'NONE', *, *, #495, .F. ) ;
#192 = DIRECTION ( 'NONE',  ( -0.8949343913984054710, 0.4461977533475102731, 0.000000000000000000 ) ) ;
#193 = CIRCLE ( 'NONE', #970, 1.542553191489362874 ) ;
#194 = CARTESIAN_POINT ( 'NONE',  ( 0.9000000000000000222, 0.3512766277925000180, -0.2399999999999999911 ) ) ;
#195 = CONICAL_SURFACE ( 'NONE', #705, 0.3554999999999999272, 0.06981317007976590994 ) ;
#196 = VERTEX_POINT ( 'NONE', #479 ) ;
#197 = EDGE_CURVE ( 'NONE', #288, #514, #419, .T. ) ;
#198 = DIRECTION ( 'NONE',  ( 0.000000000000000000, 0.000000000000000000, -1.000000000000000000 ) ) ;
#199 = DIRECTION ( 'NONE',  ( 0.8949343913984053600, 1.557891129246564227E-15, -0.4461977533475104951 ) ) ;
#200 = ORIENTED_EDGE ( 'NONE', *, *, #17, .F. ) ;
#201 = EDGE_CURVE ( 'NONE', #951, #440, #105, .T. ) ;
#202 = DIRECTION ( 'NONE',  ( 0.000000000000000000, -1.000000000000000000, -3.491481338843133355E-15 ) ) ;
#203 = CARTESIAN_POINT ( 'NONE',  ( 0.8999999999999998002, 0.000000000000000000, 0.000000000000000000 ) ) ;
#204 = COLOUR_RGB ( '',0.7921568627450980005, 0.8196078431372548767, 0.9333333333333333481 ) ;
#205 = DIRECTION ( 'NONE',  ( 0.4461977533473620028, 3.124646727056728209E-15, -0.8949343913984795229 ) ) ;
#206 = EDGE_CURVE ( 'NONE', #476, #524, #116, .T. ) ;
#207 = LINE ( 'NONE', #503, #787 ) ;
#208 = ORIENTED_EDGE ( 'NONE', *, *, #537, .T. ) ;
#209 = DIRECTION ( 'NONE',  ( 1.000000000000000000, 0.000000000000000000, 0.000000000000000000 ) ) ;
#210 = EDGE_CURVE ( 'NONE', #464, #464, #178, .T. ) ;
#211 = DIRECTION ( 'NONE',  ( -1.000000000000000000, -0.000000000000000000, -0.000000000000000000 ) ) ;
#212 = AXIS2_PLACEMENT_3D ( 'NONE', #159, #402, #707 ) ;
#213 = ORIENTED_EDGE ( 'NONE', *, *, #702, .F. ) ;
#214 = FACE_OUTER_BOUND ( 'NONE', #724, .T. ) ;
#215 = LINE ( 'NONE', #372, #522 ) ;
#216 = VERTEX_POINT ( 'NONE', #963 ) ;
#217 = CIRCLE ( 'NONE', #911, 0.8000000000000001554 ) ;
#218 = ADVANCED_FACE ( 'NONE', ( #271 ), #281, .T. ) ;
#219 = ORIENTED_EDGE ( 'NONE', *, *, #91, .T. ) ;
#220 = FACE_OUTER_BOUND ( 'NONE', #608, .T. ) ;
#221 = DIRECTION ( 'NONE',  ( 0.8949343913984794119, 0.4461977533473619473, 0.000000000000000000 ) ) ;
#222 = ORIENTED_EDGE ( 'NONE', *, *, #197, .T. ) ;
#223 = ADVANCED_FACE ( 'NONE', ( #881 ), #739, .F. ) ;
#224 = ORIENTED_EDGE ( 'NONE', *, *, #659, .F. ) ;
#225 = AXIS2_PLACEMENT_3D ( 'NONE', #775, #394, #405 ) ;
#226 = PLANE ( 'NONE',  #827 ) ;
#227 = CARTESIAN_POINT ( 'NONE',  ( 0.03485364387781592077, 0.3397844064955266585, -0.2399999999999999911 ) ) ;
#228 = CARTESIAN_POINT ( 'NONE',  ( 0.5326338288396890164, 0.000000000000000000, 0.000000000000000000 ) ) ;
#229 = AXIS2_PLACEMENT_3D ( 'NONE', #617, #929, #236 ) ;
#230 = VERTEX_POINT ( 'NONE', #431 ) ;
#231 = DIRECTION ( 'NONE',  ( -1.000000000000000000, 0.000000000000000000, -4.818676322157797375E-16 ) ) ;
#232 = CIRCLE ( 'NONE', #182, 2.467865940134053471 ) ;
#233 = CARTESIAN_POINT ( 'NONE',  ( 0.9000000000000000222, -0.2399999999999988531, -0.2622598901852893349 ) ) ;
#234 = DIRECTION ( 'NONE',  ( 0.000000000000000000, -1.000000000000000000, 0.000000000000000000 ) ) ;
#235 = EDGE_LOOP ( 'NONE', ( #904 ) ) ;
#236 = DIRECTION ( 'NONE',  ( 0.000000000000000000, 0.000000000000000000, 1.000000000000000000 ) ) ;
#237 = ADVANCED_FACE ( 'NONE', ( #265, #354 ), #583, .T. ) ;
#238 = CARTESIAN_POINT ( 'NONE',  ( 0.8999999999999998002, 0.05463497750158189531, -0.3512766277926864800 ) ) ;
#239 = DIRECTION ( 'NONE',  ( 0.000000000000000000, 0.000000000000000000, 1.000000000000000000 ) ) ;
#240 = ORIENTED_EDGE ( 'NONE', *, *, #477, .T. ) ;
#241 = VECTOR ( 'NONE', #221, 1000.000000000000114 ) ;
#242 = DIRECTION ( 'NONE',  ( -1.000000000000000000, -0.000000000000000000, -0.000000000000000000 ) ) ;
#243 = CARTESIAN_POINT ( 'NONE',  ( 0.8999999999999998002, -0.3512766277926871461, 0.05463497750157737115 ) ) ;
#244 = ADVANCED_FACE ( 'NONE', ( #36 ), #46, .F. ) ;
#245 = CARTESIAN_POINT ( 'NONE',  ( 0.8999999999999998002, 0.000000000000000000, 0.000000000000000000 ) ) ;
#246 = ORIENTED_EDGE ( 'NONE', *, *, #69, .F. ) ;
#247 = VECTOR ( 'NONE', #593, 1000.000000000000000 ) ;
#248 = DIRECTION ( 'NONE',  ( 0.8949343913984794119, -1.557891129246045551E-15, 0.4461977533473619473 ) ) ;
#249 = AXIS2_PLACEMENT_3D ( 'NONE', #868, #165, #318 ) ;
#250 =( NAMED_UNIT ( * ) PLANE_ANGLE_UNIT ( ) SI_UNIT ( $, .RADIAN. ) );
#251 = DIRECTION ( 'NONE',  ( 0.000000000000000000, 0.000000000000000000, 1.000000000000000000 ) ) ;
#252 = ORIENTED_EDGE ( 'NONE', *, *, #986, .T. ) ;
#253 = EDGE_CURVE ( 'NONE', #716, #900, #275, .T. ) ;
#254 = CARTESIAN_POINT ( 'NONE',  ( 0.03485364387781592077, 0.3397844064955268806, 0.2399999999999993250 ) ) ;
#255 = AXIS2_PLACEMENT_3D ( 'NONE', #836, #758, #361 ) ;
#256 = CARTESIAN_POINT ( 'NONE',  ( 0.8999999999999998002, 0.3512766277925007397, -0.05463497750277589160 ) ) ;
#257 = DIRECTION ( 'NONE',  ( 0.000000000000000000, 0.000000000000000000, 1.000000000000000000 ) ) ;
#258 = ORIENTED_EDGE ( 'NONE', *, *, #759, .F. ) ;
#259 = EDGE_CURVE ( 'NONE', #514, #900, #421, .T. ) ;
#260 = DIRECTION ( 'NONE',  ( 0.000000000000000000, 0.000000000000000000, 1.000000000000000000 ) ) ;
#261 = VECTOR ( 'NONE', #649, 1000.000000000000000 ) ;
#262 = DIRECTION ( 'NONE',  ( 0.000000000000000000, 8.881784197001254296E-16, -1.000000000000000000 ) ) ;
#263 = ORIENTED_EDGE ( 'NONE', *, *, #790, .T. ) ;
#264 = DIRECTION ( 'NONE',  ( 1.000000000000000000, 0.000000000000000000, 0.000000000000000000 ) ) ;
#265 = FACE_OUTER_BOUND ( 'NONE', #664, .T. ) ;
#266 = VERTEX_POINT ( 'NONE', #346 ) ;
#267 = APPLICATION_CONTEXT ( 'automotive_design' ) ;
#268 = AXIS2_PLACEMENT_3D ( 'NONE', #44, #888, #424 ) ;
#269 = DIRECTION ( 'NONE',  ( -1.000000000000000000, -0.000000000000000000, -0.000000000000000000 ) ) ;
#270 = EDGE_CURVE ( 'NONE', #711, #312, #654, .T. ) ;
#271 = FACE_OUTER_BOUND ( 'NONE', #817, .T. ) ;
#272 = ORIENTED_EDGE ( 'NONE', *, *, #483, .F. ) ;
#273 = DIRECTION ( 'NONE',  ( 0.000000000000000000, 0.000000000000000000, 1.000000000000000000 ) ) ;
#274 = FACE_OUTER_BOUND ( 'NONE', #746, .T. ) ;
#275 = LINE ( 'NONE', #816, #308 ) ;
#276 = CONICAL_SURFACE ( 'NONE', #225, 0.3554999999999999272, 0.06981317007976590994 ) ;
#277 = EDGE_CURVE ( 'NONE', #514, #883, #545, .T. ) ;
#278 = EDGE_LOOP ( 'NONE', ( #296, #850 ) ) ;
#279 = VERTEX_POINT ( 'NONE', #803 ) ;
#280 = LINE ( 'NONE', #737, #475 ) ;
#281 = PLANE ( 'NONE',  #984 ) ;
#282 = ORIENTED_EDGE ( 'NONE', *, *, #594, .F. ) ;
#283 = EDGE_CURVE ( 'NONE', #351, #480, #734, .T. ) ;
#284 = PLANE ( 'NONE',  #573 ) ;
#285 = AXIS2_PLACEMENT_3D ( 'NONE', #648, #269, #814 ) ;
#286 = SPHERICAL_SURFACE ( 'NONE', #671, 2.500000000000000444 ) ;
#287 = AXIS2_PLACEMENT_3D ( 'NONE', #586, #578, #198 ) ;
#288 = VERTEX_POINT ( 'NONE', #126 ) ;
#289 = EDGE_CURVE ( 'NONE', #604, #440, #727, .T. ) ;
#290 = DIRECTION ( 'NONE',  ( 0.000000000000000000, 0.000000000000000000, 1.000000000000000000 ) ) ;
#291 = DIRECTION ( 'NONE',  ( -0.000000000000000000, 0.000000000000000000, 1.000000000000000000 ) ) ;
#292 = ORIENTED_EDGE ( 'NONE', *, *, #403, .T. ) ;
#293 = LINE ( 'NONE', #841, #247 ) ;
#294 = DIRECTION ( 'NONE',  ( 0.000000000000000000, -3.496437852441465402E-15, 1.000000000000000000 ) ) ;
#295 = DIRECTION ( 'NONE',  ( -1.000000000000000000, -0.000000000000000000, -0.000000000000000000 ) ) ;
#296 = ORIENTED_EDGE ( 'NONE', *, *, #144, .T. ) ;
#297 = CIRCLE ( 'NONE', #249, 0.3554999999999999272 ) ;
#298 = PLANE ( 'NONE',  #729 ) ;
#299 = DIRECTION ( 'NONE',  ( 0.000000000000000000, 0.000000000000000000, -1.000000000000000000 ) ) ;
#300 = EDGE_CURVE ( 'NONE', #975, #288, #207, .T. ) ;
#301 = FACE_OUTER_BOUND ( 'NONE', #736, .T. ) ;
#302 = CIRCLE ( 'NONE', #73, 0.3554999999999999272 ) ;
#303 = EDGE_LOOP ( 'NONE', ( #56 ) ) ;
#304 = DIRECTION ( 'NONE',  ( 0.000000000000000000, -1.000000000000000000, -3.491481338843133355E-15 ) ) ;
#305 = DIRECTION ( 'NONE',  ( -1.000000000000000000, -0.000000000000000000, -0.000000000000000000 ) ) ;
#306 = ORIENTED_EDGE ( 'NONE', *, *, #961, .F. ) ;
#307 = EDGE_LOOP ( 'NONE', ( #983, #47, #487, #158 ) ) ;
#308 = VECTOR ( 'NONE', #199, 1000.000000000000227 ) ;
#309 = DIRECTION ( 'NONE',  ( 0.8949343913984054710, 1.234461192117848886E-15, -0.4461977533475102731 ) ) ;
#310 = DIRECTION ( 'NONE',  ( 0.000000000000000000, 0.000000000000000000, 1.000000000000000000 ) ) ;
#311 = VERTEX_POINT ( 'NONE', #123 ) ;
#312 = VERTEX_POINT ( 'NONE', #190 ) ;
#313 = ADVANCED_FACE ( 'NONE', ( #438, #512 ), #286, .T. ) ;
#314 = DIRECTION ( 'NONE',  ( -1.000000000000000000, -0.000000000000000000, -0.000000000000000000 ) ) ;
#315 = VECTOR ( 'NONE', #309, 1000.000000000000114 ) ;
#316 = ORIENTED_EDGE ( 'NONE', *, *, #277, .F. ) ;
#317 = ORIENTED_EDGE ( 'NONE', *, *, #747, .F. ) ;
#318 = DIRECTION ( 'NONE',  ( 0.000000000000000000, 0.000000000000000000, 1.000000000000000000 ) ) ;
#319 = EDGE_CURVE ( 'NONE', #883, #900, #130, .T. ) ;
#320 = CARTESIAN_POINT ( 'NONE',  ( 0.03485364387781613588, -2.081899558550500674E-15, 0.000000000000000000 ) ) ;
#321 = CARTESIAN_POINT ( 'NONE',  ( 0.8999999999999998002, -0.3512766277926871461, -0.05463497750157737115 ) ) ;
#322 = ORIENTED_EDGE ( 'NONE', *, *, #709, .T. ) ;
#323 = AXIS2_PLACEMENT_3D ( 'NONE', #115, #723, #658 ) ;
#324 = DIRECTION ( 'NONE',  ( 0.4461977533473619473, 3.124646727056727814E-15, -0.8949343913984794119 ) ) ;
#325 = CARTESIAN_POINT ( 'NONE',  ( 0.8868283770658038634, 0.01840460858013119594, -0.3578437556376593554 ) ) ;
#326 = EDGE_CURVE ( 'NONE', #351, #288, #481, .T. ) ;
#327 = DIRECTION ( 'NONE',  ( 0.000000000000000000, 0.000000000000000000, 1.000000000000000000 ) ) ;
#328 = ORIENTED_EDGE ( 'NONE', *, *, #344, .F. ) ;
#329 = PLANE ( 'NONE',  #616 ) ;
#330 = CARTESIAN_POINT ( 'NONE',  ( 0.03485364387781592077, -0.3397844064955309884, 0.2399999999999993250 ) ) ;
#331 = PLANE ( 'NONE',  #627 ) ;
#332 = EDGE_CURVE ( 'NONE', #266, #762, #955, .T. ) ;
#333 =( BOUNDED_CURVE ( )  B_SPLINE_CURVE ( 3, ( #172, #98, #103, #256 ),
 .UNSPECIFIED., .F., .F. ) 
 B_SPLINE_CURVE_WITH_KNOTS ( ( 4, 4 ),
 ( 6.105607028069708342, 6.460763586289465010 ),
 .UNSPECIFIED. ) 
 CURVE ( )  GEOMETRIC_REPRESENTATION_ITEM ( )  RATIONAL_B_SPLINE_CURVE ( ( 1.000000000000000000, 0.9895162446892218355, 0.9895162446892218355, 1.000000000000000000 ) ) 
 REPRESENTATION_ITEM ( '' )  );
#334 = ORIENTED_EDGE ( 'NONE', *, *, #58, .T. ) ;
#335 = CARTESIAN_POINT ( 'NONE',  ( 0.8868283770652273246, 0.01840460858054090640, 0.3578437556377631612 ) ) ;
#336 = MECHANICAL_DESIGN_GEOMETRIC_PRESENTATION_REPRESENTATION (  '', ( #585 ), #636 ) ;
#337 = B_SPLINE_CURVE_WITH_KNOTS ( 'NONE', 3,
 ( #3, #831, #612, #538 ),
 .UNSPECIFIED., .F., .F.,
 ( 4, 4 ),
 ( 0.0006664741704309982149, 0.001535090400857997426 ),
 .UNSPECIFIED. ) ;
#338 = CARTESIAN_POINT ( 'NONE',  ( 0.8999999999999998002, 0.000000000000000000, 0.000000000000000000 ) ) ;
#339 = DIRECTION ( 'NONE',  ( -1.000000000000000000, -0.000000000000000000, -0.000000000000000000 ) ) ;
#340 = ORIENTED_EDGE ( 'NONE', *, *, #915, .F. ) ;
#341 = CARTESIAN_POINT ( 'NONE',  ( 0.6117514594722687216, 0.2400000000000010181, -0.2895822732359009666 ) ) ;
#342 = CARTESIAN_POINT ( 'NONE',  ( 2.500000000000000444, -2.081899558550500674E-15, 0.000000000000000000 ) ) ;
#343 = ORIENTED_EDGE ( 'NONE', *, *, #759, .T. ) ;
#344 = EDGE_CURVE ( 'NONE', #96, #766, #826, .T. ) ;
#345 = CARTESIAN_POINT ( 'NONE',  ( 0.6506757991093089499, 0.000000000000000000, 0.000000000000000000 ) ) ;
#346 = CARTESIAN_POINT ( 'NONE',  ( 0.1236136778209376841, 0.7383685040413532352, -0.2399999999999999911 ) ) ;
#347 = EDGE_LOOP ( 'NONE', ( #101, #674, #191, #685, #934, #872 ) ) ;
#348 = AXIS2_PLACEMENT_3D ( 'NONE', #146, #376, #925 ) ;
#349 = CARTESIAN_POINT ( 'NONE',  ( 0.1236136778209368098, -0.2400000000000022393, 0.7383685040413525691 ) ) ;
#350 = DIRECTION ( 'NONE',  ( 0.000000000000000000, -1.000000000000000000, -3.491481338843133355E-15 ) ) ;
#351 = VERTEX_POINT ( 'NONE', #920 ) ;
#352 = FACE_OUTER_BOUND ( 'NONE', #910, .T. ) ;
#353 = CIRCLE ( 'NONE', #917, 2.488453334905037728 ) ;
#354 = FACE_OUTER_BOUND ( 'NONE', #369, .T. ) ;
#355 = CIRCLE ( 'NONE', #854, 0.4159969265481628375 ) ;
#356 = EDGE_CURVE ( 'NONE', #468, #216, #738, .T. ) ;
#357 = CARTESIAN_POINT ( 'NONE',  ( 0.9000000000000000222, 0.2400000000000012124, -0.3512766277926857028 ) ) ;
#358 = AXIS2_PLACEMENT_3D ( 'NONE', #175, #858, #170 ) ;
#359 = DIRECTION ( 'NONE',  ( 1.000000000000000000, 0.000000000000000000, 0.000000000000000000 ) ) ;
#360 = VERTEX_POINT ( 'NONE', #233 ) ;
#361 = DIRECTION ( 'NONE',  ( -0.8949343913984054710, -1.557891129246563438E-15, 0.4461977533475102731 ) ) ;
#362 = AXIS2_PLACEMENT_3D ( 'NONE', #338, #952, #260 ) ;
#363 = DIRECTION ( 'NONE',  ( -1.000000000000000000, -0.000000000000000000, -0.000000000000000000 ) ) ;
#364 = VERTEX_POINT ( 'NONE', #600 ) ;
#365 = DIRECTION ( 'NONE',  ( -1.000000000000000000, -0.000000000000000000, -0.000000000000000000 ) ) ;
#366 = CARTESIAN_POINT ( 'NONE',  ( 0.9000000000000000222, 0.3512766277925002401, 0.2399999999999997691 ) ) ;
#367 = VECTOR ( 'NONE', #415, 1000.000000000000114 ) ;
#368 = ORIENTED_EDGE ( 'NONE', *, *, #110, .F. ) ;
#369 = EDGE_LOOP ( 'NONE', ( #181 ) ) ;
#370 = CARTESIAN_POINT ( 'NONE',  ( 0.03485364387781596240, 0.2400000000000011846, -0.3397844064955262700 ) ) ;
#371 = EDGE_CURVE ( 'NONE', #944, #148, #562, .T. ) ;
#372 = CARTESIAN_POINT ( 'NONE',  ( 0.000000000000000000, 0.2400000000000027667, -0.7999999999999994893 ) ) ;
#373 = DIRECTION ( 'NONE',  ( -1.000000000000000000, -0.000000000000000000, -0.000000000000000000 ) ) ;
#374 = ORIENTED_EDGE ( 'NONE', *, *, #976, .T. ) ;
#375 = CARTESIAN_POINT ( 'NONE',  ( 0.8999999999999998002, 0.000000000000000000, 0.000000000000000000 ) ) ;
#376 = DIRECTION ( 'NONE',  ( 0.4461977533475103286, 0.8949343913984054710, -4.042874214108935351E-16 ) ) ;
#377 = ORIENTED_EDGE ( 'NONE', *, *, #776, .T. ) ;
#378 = CONICAL_SURFACE ( 'NONE', #556, 0.3554999999999999272, 0.06981317007976590994 ) ;
#379 = UNCERTAINTY_MEASURE_WITH_UNIT (LENGTH_MEASURE( 1.000000000000000082E-05 ), #427, 'distance_accuracy_value', 'NONE');
#380 = EDGE_LOOP ( 'NONE', ( #615, #949, #965, #504 ) ) ;
#381 = DIRECTION ( 'NONE',  ( 0.000000000000000000, 0.000000000000000000, -1.000000000000000000 ) ) ;
#382 = DIRECTION ( 'NONE',  ( 1.000000000000000000, 0.000000000000000000, 0.000000000000000000 ) ) ;
#383 = DIRECTION ( 'NONE',  ( 0.8949343913984053600, -0.4461977533475104951, 0.000000000000000000 ) ) ;
#384 = EDGE_CURVE ( 'NONE', #360, #468, #386, .T. ) ;
#385 = ORIENTED_EDGE ( 'NONE', *, *, #807, .F. ) ;
#386 = CIRCLE ( 'NONE', #666, 0.3554999999999999272 ) ;
#387 = CARTESIAN_POINT ( 'NONE',  ( 0.8999999999999998002, 0.000000000000000000, 0.000000000000000000 ) ) ;
#388 = PRESENTATION_STYLE_ASSIGNMENT (( #87 ) ) ;
#389 = VERTEX_POINT ( 'NONE', #55 ) ;
#390 = PRODUCT_DEFINITION_CONTEXT ( 'detailed design', #267, 'design' ) ;
#391 = EDGE_CURVE ( 'NONE', #61, #360, #337, .T. ) ;
#392 = ORIENTED_EDGE ( 'NONE', *, *, #277, .T. ) ;
#393 = CARTESIAN_POINT ( 'NONE',  ( 0.6117514594725665944, 0.2895822732358737661, 0.2399999999999996303 ) ) ;
#394 = DIRECTION ( 'NONE',  ( -1.000000000000000000, -0.000000000000000000, -0.000000000000000000 ) ) ;
#395 = ORIENTED_EDGE ( 'NONE', *, *, #659, .T. ) ;
#396 = DIRECTION ( 'NONE',  ( 0.8949343913984054710, -0.4461977533475102731, 3.234299371287146013E-16 ) ) ;
#397 = PRODUCT_DEFINITION_SHAPE ( 'NONE', 'NONE',  #821 ) ;
#398 = LINE ( 'NONE', #618, #715 ) ;
#399 = CARTESIAN_POINT ( 'NONE',  ( 1.300000000000000044, 0.000000000000000000, 0.000000000000000000 ) ) ;
#400 = ORIENTED_EDGE ( 'NONE', *, *, #569, .T. ) ;
#401 = AXIS2_PLACEMENT_3D ( 'NONE', #559, #870, #327 ) ;
#402 = DIRECTION ( 'NONE',  ( 4.818676322157797375E-16, 0.000000000000000000, -1.000000000000000000 ) ) ;
#403 = EDGE_CURVE ( 'NONE', #762, #699, #54, .T. ) ;
#404 = FACE_OUTER_BOUND ( 'NONE', #136, .T. ) ;
#405 = DIRECTION ( 'NONE',  ( 0.000000000000000000, 0.000000000000000000, 1.000000000000000000 ) ) ;
#406 = ORIENTED_EDGE ( 'NONE', *, *, #495, .T. ) ;
#407 = DIRECTION ( 'NONE',  ( 0.8949343913984794119, 0.4461977533473618918, 0.000000000000000000 ) ) ;
#408 = CARTESIAN_POINT ( 'NONE',  ( 0.8999999999999998002, 0.3512766277925007952, 0.05463497750277559323 ) ) ;
#409 = FACE_OUTER_BOUND ( 'NONE', #25, .T. ) ;
#410 = ORIENTED_EDGE ( 'NONE', *, *, #197, .F. ) ;
#411 = PRESENTATION_LAYER_ASSIGNMENT (  '', '', ( #585 ) ) ;
#412 = DIRECTION ( 'NONE',  ( 1.000000000000000000, 0.000000000000000000, 0.000000000000000000 ) ) ;
#413 = VERTEX_POINT ( 'NONE', #913 ) ;
#414 = DIRECTION ( 'NONE',  ( -0.000000000000000000, 0.000000000000000000, 1.000000000000000000 ) ) ;
#415 = DIRECTION ( 'NONE',  ( 0.8949343913984794119, -1.989131045417700518E-15, 0.4461977533473619473 ) ) ;
#416 = EDGE_LOOP ( 'NONE', ( #596, #282 ) ) ;
#417 = ADVANCED_FACE ( 'NONE', ( #987 ), #378, .F. ) ;
#418 = CIRCLE ( 'NONE', #62, 2.488453334905037284 ) ;
#419 = CIRCLE ( 'NONE', #689, 0.3554999999999999272 ) ;
#420 = PLANE ( 'NONE',  #539 ) ;
#421 = LINE ( 'NONE', #968, #513 ) ;
#422 = ORIENTED_EDGE ( 'NONE', *, *, #206, .F. ) ;
#423 = ADVANCED_FACE ( 'NONE', ( #70 ), #765, .F. ) ;
#424 = DIRECTION ( 'NONE',  ( 0.000000000000000000, 0.000000000000000000, 1.000000000000000000 ) ) ;
#425 = CARTESIAN_POINT ( 'NONE',  ( 0.3233375591042823571, -0.2400000000000006017, 0.3150869624607322006 ) ) ;
#426 = ORIENTED_EDGE ( 'NONE', *, *, #943, .F. ) ;
#427 =( LENGTH_UNIT ( ) NAMED_UNIT ( * ) SI_UNIT ( .MILLI., .METRE. ) );
#428 = AXIS2_PLACEMENT_3D ( 'NONE', #441, #209, #611 ) ;
#429 = CARTESIAN_POINT ( 'NONE',  ( 0.8999999999999998002, 0.2622598901852887798, -0.2400000000000004075 ) ) ;
#430 = EDGE_CURVE ( 'NONE', #883, #389, #931, .T. ) ;
#431 = CARTESIAN_POINT ( 'NONE',  ( 0.8999999999999998002, 0.3512766277925007397, -0.05463497750277589160 ) ) ;
#432 = ORIENTED_EDGE ( 'NONE', *, *, #840, .T. ) ;
#433 = APPLICATION_PROTOCOL_DEFINITION ( 'draft international standard', 'automotive_design', 1998, #79 ) ;
#434 =( BOUNDED_CURVE ( )  B_SPLINE_CURVE ( 3, ( #321, #860, #948, #942 ),
 .UNSPECIFIED., .F., .F. ) 
 B_SPLINE_CURVE_WITH_KNOTS ( ( 4, 4 ),
 ( 6.105607028073618991, 6.460763586285553473 ),
 .UNSPECIFIED. ) 
 CURVE ( )  GEOMETRIC_REPRESENTATION_ITEM ( )  RATIONAL_B_SPLINE_CURVE ( ( 1.000000000000000000, 0.9895162446896824671, 0.9895162446896824671, 1.000000000000000000 ) ) 
 REPRESENTATION_ITEM ( '' )  );
#435 =( GEOMETRIC_REPRESENTATION_CONTEXT ( 3 ) GLOBAL_UNCERTAINTY_ASSIGNED_CONTEXT ( ( #379 ) ) GLOBAL_UNIT_ASSIGNED_CONTEXT ( ( #427, #505, #960 ) ) REPRESENTATION_CONTEXT ( 'NONE', 'WORKASPACE' ) );
#436 = FACE_OUTER_BOUND ( 'NONE', #939, .T. ) ;
#437 = EDGE_CURVE ( 'NONE', #266, #540, #57, .T. ) ;
#438 = FACE_OUTER_BOUND ( 'NONE', #560, .T. ) ;
#439 = CIRCLE ( 'NONE', #401, 0.3554999999999999272 ) ;
#440 = VERTEX_POINT ( 'NONE', #591 ) ;
#441 = CARTESIAN_POINT ( 'NONE',  ( 0.9000000000000000222, -0.3512766277926865355, -0.2399999999999999911 ) ) ;
#442 = DIRECTION ( 'NONE',  ( 0.000000000000000000, -3.491481338843133355E-15, 1.000000000000000000 ) ) ;
#443 = ORIENTED_EDGE ( 'NONE', *, *, #30, .T. ) ;
#444 = FACE_OUTER_BOUND ( 'NONE', #691, .T. ) ;
#445 = AXIS2_PLACEMENT_3D ( 'NONE', #842, #907, #151 ) ;
#446 = DIRECTION ( 'NONE',  ( 0.000000000000000000, 3.496437852441466191E-15, -1.000000000000000000 ) ) ;
#447 = ORIENTED_EDGE ( 'NONE', *, *, #58, .F. ) ;
#448 = EDGE_CURVE ( 'NONE', #699, #312, #780, .T. ) ;
#449 = CARTESIAN_POINT ( 'NONE',  ( 0.03485364387781600404, 0.2399999999999987976, 0.3397844064955279353 ) ) ;
#450 = DIRECTION ( 'NONE',  ( -1.000000000000000000, -0.000000000000000000, -0.000000000000000000 ) ) ;
#451 = AXIS2_PLACEMENT_3D ( 'NONE', #245, #339, #239 ) ;
#452 = CARTESIAN_POINT ( 'NONE',  ( 2.500000000000000444, -0.2400000000000005185, -8.379555213223464635E-16 ) ) ;
#453 = VERTEX_POINT ( 'NONE', #366 ) ;
#454 = DIRECTION ( 'NONE',  ( -1.000000000000000000, -0.000000000000000000, -0.000000000000000000 ) ) ;
#455 = DIRECTION ( 'NONE',  ( 1.000000000000000000, 0.000000000000000000, 0.000000000000000000 ) ) ;
#456 = ORIENTED_EDGE ( 'NONE', *, *, #289, .T. ) ;
#457 = ORIENTED_EDGE ( 'NONE', *, *, #283, .T. ) ;
#458 = CARTESIAN_POINT ( 'NONE',  ( 0.9000000000000000222, -0.3512766277926865355, 0.2399999999999997691 ) ) ;
#459 = EDGE_CURVE ( 'NONE', #480, #673, #619, .T. ) ;
#460 = CARTESIAN_POINT ( 'NONE',  ( 0.03485364387781592077, -0.3397844064955308219, -0.2399999999999999911 ) ) ;
#461 = CARTESIAN_POINT ( 'NONE',  ( 0.000000000000000000, 0.8000000000000003775, -0.2399999999999999911 ) ) ;
#462 = CIRCLE ( 'NONE', #362, 0.3554999999999999272 ) ;
#463 = EDGE_LOOP ( 'NONE', ( #718, #208, #200 ) ) ;
#464 = VERTEX_POINT ( 'NONE', #643 ) ;
#465 = CARTESIAN_POINT ( 'NONE',  ( 0.8999999999999998002, -0.2622598901852887798, -0.2400000000000004075 ) ) ;
#466 = CARTESIAN_POINT ( 'NONE',  ( 0.9000000000000000222, 0.3512766277925002401, 0.2399999999999997691 ) ) ;
#467 = AXIS2_PLACEMENT_3D ( 'NONE', #147, #373, #992 ) ;
#468 = VERTEX_POINT ( 'NONE', #465 ) ;
#469 = CARTESIAN_POINT ( 'NONE',  ( 0.8868283770652273246, -0.01840460858054316848, 0.3578437556377630502 ) ) ;
#470 = DIRECTION ( 'NONE',  ( 0.000000000000000000, 0.000000000000000000, -1.000000000000000000 ) ) ;
#471 = DIRECTION ( 'NONE',  ( -1.000000000000000000, -0.000000000000000000, -0.000000000000000000 ) ) ;
#472 = ORIENTED_EDGE ( 'NONE', *, *, #332, .T. ) ;
#473 = CARTESIAN_POINT ( 'NONE',  ( 0.9000000000000000222, -0.2400000000000009903, 0.3512766277924994629 ) ) ;
#474 = DIRECTION ( 'NONE',  ( -1.000000000000000000, -0.000000000000000000, -0.000000000000000000 ) ) ;
#475 = VECTOR ( 'NONE', #49, 1000.000000000000000 ) ;
#476 = VERTEX_POINT ( 'NONE', #606 ) ;
#477 = EDGE_CURVE ( 'NONE', #389, #546, #964, .T. ) ;
#478 = FACE_OUTER_BOUND ( 'NONE', #127, .T. ) ;
#479 = CARTESIAN_POINT ( 'NONE',  ( 0.03485364387781592077, 0.3397844064955268806, 0.2399999999999993250 ) ) ;
#480 = VERTEX_POINT ( 'NONE', #982 ) ;
#481 = CIRCLE ( 'NONE', #2, 0.3554999999999999272 ) ;
#482 = DIRECTION ( 'NONE',  ( 0.4461977533473620028, -0.8949343913984795229, 0.000000000000000000 ) ) ;
#483 = EDGE_CURVE ( 'NONE', #813, #813, #506, .T. ) ;
#484 = DIRECTION ( 'NONE',  ( 4.818676322157797375E-16, 1.000000000000000000, 3.491481338843133355E-15 ) ) ;
#485 = CARTESIAN_POINT ( 'NONE',  ( 0.8999999999999998002, 0.000000000000000000, 0.000000000000000000 ) ) ;
#486 = ORIENTED_EDGE ( 'NONE', *, *, #862, .F. ) ;
#487 = ORIENTED_EDGE ( 'NONE', *, *, #17, .T. ) ;
#488 = DIRECTION ( 'NONE',  ( 0.000000000000000000, 0.000000000000000000, -1.000000000000000000 ) ) ;
#489 = EDGE_CURVE ( 'NONE', #216, #96, #864, .T. ) ;
#490 = DIRECTION ( 'NONE',  ( 0.000000000000000000, 0.000000000000000000, -1.000000000000000000 ) ) ;
#491 = ORIENTED_EDGE ( 'NONE', *, *, #518, .T. ) ;
#492 = AXIS2_PLACEMENT_3D ( 'NONE', #39, #202, #264 ) ;
#493 = CARTESIAN_POINT ( 'NONE',  ( 0.9000000000000000222, 0.3512766277925002401, 0.2399999999999997691 ) ) ;
#494 = CARTESIAN_POINT ( 'NONE',  ( 2.500000000000000444, -2.081899558550500674E-15, -0.2399999999999999911 ) ) ;
#495 = EDGE_CURVE ( 'NONE', #148, #711, #215, .T. ) ;
#496 = ORIENTED_EDGE ( 'NONE', *, *, #30, .F. ) ;
#497 = VECTOR ( 'NONE', #383, 1000.000000000000227 ) ;
#498 = PLANE ( 'NONE',  #492 ) ;
#499 = DIRECTION ( 'NONE',  ( 0.000000000000000000, 0.000000000000000000, 1.000000000000000000 ) ) ;
#500 = ORIENTED_EDGE ( 'NONE', *, *, #594, .T. ) ;
#501 = EDGE_CURVE ( 'NONE', #766, #468, #398, .T. ) ;
#502 = FACE_OUTER_BOUND ( 'NONE', #153, .T. ) ;
#503 = CARTESIAN_POINT ( 'NONE',  ( 0.9000000000000000222, -0.2400000000000009903, 0.3512766277924994629 ) ) ;
#504 = ORIENTED_EDGE ( 'NONE', *, *, #253, .F. ) ;
#505 =( NAMED_UNIT ( * ) PLANE_ANGLE_UNIT ( ) SI_UNIT ( $, .RADIAN. ) );
#506 = CIRCLE ( 'NONE', #445, 1.600000000000000755 ) ;
#507 = DIRECTION ( 'NONE',  ( 0.000000000000000000, 0.000000000000000000, 1.000000000000000000 ) ) ;
#508 = CARTESIAN_POINT ( 'NONE',  ( 0.03485364387781487994, -0.2400000000000005462, 0.3397844064955267696 ) ) ;
#509 = ORIENTED_EDGE ( 'NONE', *, *, #961, .T. ) ;
#510 = PRODUCT_DEFINITION_FORMATION_WITH_SPECIFIED_SOURCE ( 'Symmetric', '', #700, .NOT_KNOWN. ) ;
#511 = DIRECTION ( 'NONE',  ( 0.000000000000000000, 0.000000000000000000, 1.000000000000000000 ) ) ;
#512 = FACE_OUTER_BOUND ( 'NONE', #15, .T. ) ;
#513 = VECTOR ( 'NONE', #893, 1000.000000000000000 ) ;
#514 = VERTEX_POINT ( 'NONE', #779 ) ;
#515 = CARTESIAN_POINT ( 'NONE',  ( 0.9000000000000000222, -0.3512766277926865355, -0.2399999999999999911 ) ) ;
#516 = AXIS2_PLACEMENT_3D ( 'NONE', #7, #314, #701 ) ;
#517 = DIRECTION ( 'NONE',  ( 0.000000000000000000, -1.000000000000000000, -3.491481338843133355E-15 ) ) ;
#518 = EDGE_CURVE ( 'NONE', #468, #679, #302, .T. ) ;
#519 = ORIENTED_EDGE ( 'NONE', *, *, #253, .T. ) ;
#520 = CONICAL_SURFACE ( 'NONE', #905, 0.3554999999999999272, 0.06981317007976590994 ) ;
#521 = PLANE ( 'NONE',  #428 ) ;
#522 = VECTOR ( 'NONE', #18, 1000.000000000000114 ) ;
#523 = DIRECTION ( 'NONE',  ( 0.000000000000000000, 0.000000000000000000, 1.000000000000000000 ) ) ;
#524 = VERTEX_POINT ( 'NONE', #330 ) ;
#525 = ORIENTED_EDGE ( 'NONE', *, *, #5, .F. ) ;
#526 = DIRECTION ( 'NONE',  ( -1.000000000000000000, -0.000000000000000000, -0.000000000000000000 ) ) ;
#527 =( BOUNDED_CURVE ( )  B_SPLINE_CURVE ( 3, ( #238, #325, #543, #566 ),
 .UNSPECIFIED., .F., .F. ) 
 B_SPLINE_CURVE_WITH_KNOTS ( ( 4, 4 ),
 ( 6.105607028073608333, 6.460763586285564131 ),
 .UNSPECIFIED. ) 
 CURVE ( )  GEOMETRIC_REPRESENTATION_ITEM ( )  RATIONAL_B_SPLINE_CURVE ( ( 1.000000000000000000, 0.9895162446896812458, 0.9895162446896812458, 1.000000000000000000 ) ) 
 REPRESENTATION_ITEM ( '' )  );
#528 = CARTESIAN_POINT ( 'NONE',  ( 0.8999999999999998002, 0.000000000000000000, 0.000000000000000000 ) ) ;
#529 = FACE_OUTER_BOUND ( 'NONE', #72, .T. ) ;
#530 = ORIENTED_EDGE ( 'NONE', *, *, #168, .T. ) ;
#531 = EDGE_CURVE ( 'NONE', #311, #604, #527, .T. ) ;
#532 = DIRECTION ( 'NONE',  ( 1.000000000000000000, 0.000000000000000000, 0.000000000000000000 ) ) ;
#533 = CARTESIAN_POINT ( 'NONE',  ( 0.8999999999999998002, 0.000000000000000000, 0.000000000000000000 ) ) ;
#534 = DIRECTION ( 'NONE',  ( -1.000000000000000000, -0.000000000000000000, -0.000000000000000000 ) ) ;
#535 = VERTEX_POINT ( 'NONE', #243 ) ;
#536 = CARTESIAN_POINT ( 'NONE',  ( 0.03485364387781613588, -2.081899558550500674E-15, 0.000000000000000000 ) ) ;
#537 = EDGE_CURVE ( 'NONE', #535, #866, #94, .T. ) ;
#538 = CARTESIAN_POINT ( 'NONE',  ( 0.9000000000000000222, -0.2399999999999988531, -0.2622598901852893349 ) ) ;
#539 = AXIS2_PLACEMENT_3D ( 'NONE', #897, #967, #488 ) ;
#540 = VERTEX_POINT ( 'NONE', #941 ) ;
#541 = PLANE ( 'NONE',  #85 ) ;
#542 = MANIFOLD_SOLID_BREP ( 'RecessCore', #954 ) ;
#543 = CARTESIAN_POINT ( 'NONE',  ( 0.8868283770658038634, -0.01840460858012861814, -0.3578437556376595774 ) ) ;
#544 = CARTESIAN_POINT ( 'NONE',  ( 0.9000000000000000222, 0.3512766277925002401, 0.2399999999999997691 ) ) ;
#545 = CIRCLE ( 'NONE', #972, 0.3554999999999999272 ) ;
#546 = VERTEX_POINT ( 'NONE', #408 ) ;
#547 = FACE_BOUND ( 'NONE', #303, .T. ) ;
#548 = CARTESIAN_POINT ( 'NONE',  ( 0.8999999999999998002, -0.2622598901852890019, 0.2400000000000001854 ) ) ;
#549 = CARTESIAN_POINT ( 'NONE',  ( 0.8999999999999998002, 0.000000000000000000, 0.000000000000000000 ) ) ;
#550 = EDGE_CURVE ( 'NONE', #546, #230, #333, .T. ) ;
#551 = AXIS2_PLACEMENT_3D ( 'NONE', #749, #667, #511 ) ;
#552 = ORIENTED_EDGE ( 'NONE', *, *, #848, .T. ) ;
#553 = FACE_OUTER_BOUND ( 'NONE', #347, .T. ) ;
#554 =( NAMED_UNIT ( * ) SI_UNIT ( $, .STERADIAN. ) SOLID_ANGLE_UNIT ( ) );
#555 = DIRECTION ( 'NONE',  ( 0.4461977533473619473, -0.8949343913984794119, 0.000000000000000000 ) ) ;
#556 = AXIS2_PLACEMENT_3D ( 'NONE', #528, #450, #310 ) ;
#557 = ORIENTED_EDGE ( 'NONE', *, *, #501, .T. ) ;
#558 = DIRECTION ( 'NONE',  ( 0.000000000000000000, 1.000000000000000000, 0.000000000000000000 ) ) ;
#559 = CARTESIAN_POINT ( 'NONE',  ( 0.8999999999999998002, 0.000000000000000000, 0.000000000000000000 ) ) ;
#560 = EDGE_LOOP ( 'NONE', ( #334 ) ) ;
#561 = CONICAL_SURFACE ( 'NONE', #818, 3077.683537175311358, 1.256637061435922798 ) ;
#562 = CIRCLE ( 'NONE', #128, 2.488453334905037284 ) ;
#563 = SHAPE_DEFINITION_REPRESENTATION ( #397, #799 ) ;
#564 = ADVANCED_FACE ( 'NONE', ( #404 ), #708, .F. ) ;
#565 = ORIENTED_EDGE ( 'NONE', *, *, #300, .F. ) ;
#566 = CARTESIAN_POINT ( 'NONE',  ( 0.8999999999999998002, -0.05463497750157943894, -0.3512766277926869241 ) ) ;
#567 = DIRECTION ( 'NONE',  ( 1.000000000000000000, 0.000000000000000000, 0.000000000000000000 ) ) ;
#568 = ORIENTED_EDGE ( 'NONE', *, *, #969, .T. ) ;
#569 = EDGE_CURVE ( 'NONE', #762, #944, #93, .T. ) ;
#570 = LINE ( 'NONE', #118, #154 ) ;
#571 = DIRECTION ( 'NONE',  ( 0.000000000000000000, 0.000000000000000000, 1.000000000000000000 ) ) ;
#572 = ORIENTED_EDGE ( 'NONE', *, *, #569, .F. ) ;
#573 = AXIS2_PLACEMENT_3D ( 'NONE', #493, #114, #192 ) ;
#574 = LINE ( 'NONE', #731, #599 ) ;
#575 = CARTESIAN_POINT ( 'NONE',  ( -25.39999999999996305, 0.000000000000000000, 0.000000000000000000 ) ) ;
#576 = VERTEX_POINT ( 'NONE', #548 ) ;
#577 = APPLICATION_PROTOCOL_DEFINITION ( 'draft international standard', 'automotive_design', 1998, #267 ) ;
#578 = DIRECTION ( 'NONE',  ( 1.000000000000000000, 0.000000000000000000, 0.000000000000000000 ) ) ;
#579 = DIRECTION ( 'NONE',  ( -0.000000000000000000, 0.000000000000000000, 1.000000000000000000 ) ) ;
#580 = ORIENTED_EDGE ( 'NONE', *, *, #477, .F. ) ;
#581 = ADVANCED_FACE ( 'NONE', ( #936 ), #869, .T. ) ;
#582 = DIRECTION ( 'NONE',  ( -1.000000000000000000, -0.000000000000000000, -0.000000000000000000 ) ) ;
#583 = CYLINDRICAL_SURFACE ( 'NONE', #607, 0.8000000000000001554 ) ;
#584 = ORIENTED_EDGE ( 'NONE', *, *, #725, .T. ) ;
#585 = STYLED_ITEM ( 'NONE', ( #388 ), #542 ) ;
#586 = CARTESIAN_POINT ( 'NONE',  ( 0.9000000000000000222, -0.3512766277926865355, -0.2399999999999999911 ) ) ;
#587 = DIRECTION ( 'NONE',  ( -0.000000000000000000, 0.000000000000000000, -1.000000000000000000 ) ) ;
#588 = ORIENTED_EDGE ( 'NONE', *, *, #437, .F. ) ;
#589 = CARTESIAN_POINT ( 'NONE',  ( 0.9000000000000000222, 0.2400000000000012124, -0.3512766277926857028 ) ) ;
#590 = EDGE_CURVE ( 'NONE', #679, #535, #764, .T. ) ;
#591 = CARTESIAN_POINT ( 'NONE',  ( 0.9000000000000000222, -0.2399999999999985478, -0.3512766277926873126 ) ) ;
#592 = ORIENTED_EDGE ( 'NONE', *, *, #725, .F. ) ;
#593 = DIRECTION ( 'NONE',  ( 0.000000000000000000, 3.491481338843133355E-15, -1.000000000000000000 ) ) ;
#594 = EDGE_CURVE ( 'NONE', #546, #230, #462, .T. ) ;
#595 = DIRECTION ( 'NONE',  ( 0.000000000000000000, 0.000000000000000000, 1.000000000000000000 ) ) ;
#596 = ORIENTED_EDGE ( 'NONE', *, *, #550, .T. ) ;
#597 = ORIENTED_EDGE ( 'NONE', *, *, #653, .T. ) ;
#598 = CARTESIAN_POINT ( 'NONE',  ( 0.9000000000000000222, -0.3512766277926865355, -0.2399999999999999911 ) ) ;
#599 = VECTOR ( 'NONE', #892, 1000.000000000000000 ) ;
#600 = CARTESIAN_POINT ( 'NONE',  ( 0.8999999999999999112, 0.3512766277925000180, -0.2399999999999999911 ) ) ;
#601 = AXIS2_PLACEMENT_3D ( 'NONE', #134, #526, #145 ) ;
#602 = ORIENTED_EDGE ( 'NONE', *, *, #448, .T. ) ;
#603 = ADVANCED_FACE ( 'NONE', ( #874, #798 ), #994, .T. ) ;
#604 = VERTEX_POINT ( 'NONE', #977 ) ;
#605 = CARTESIAN_POINT ( 'NONE',  ( 0.9000000000000000222, -0.3512766277926865355, -0.2399999999999999911 ) ) ;
#606 = CARTESIAN_POINT ( 'NONE',  ( 0.1236136778209433185, -0.7383685040413756617, 0.2399999999999993805 ) ) ;
#607 = AXIS2_PLACEMENT_3D ( 'NONE', #575, #889, #899 ) ;
#608 = EDGE_LOOP ( 'NONE', ( #306, #565, #694, #385, #519, #174 ) ) ;
#609 = ADVANCED_FACE ( 'NONE', ( #973, #436 ), #882, .F. ) ;
#610 = ORIENTED_EDGE ( 'NONE', *, *, #867, .F. ) ;
#611 = DIRECTION ( 'NONE',  ( 0.000000000000000000, 0.000000000000000000, -1.000000000000000000 ) ) ;
#612 = CARTESIAN_POINT ( 'NONE',  ( 0.6117514594722688326, -0.2399999999999986033, -0.2895822732359028540 ) ) ;
#613 = CIRCLE ( 'NONE', #516, 0.4159969265481628375 ) ;
#614 = ORIENTED_EDGE ( 'NONE', *, *, #653, .F. ) ;
#615 = ORIENTED_EDGE ( 'NONE', *, *, #5, .T. ) ;
#616 = AXIS2_PLACEMENT_3D ( 'NONE', #712, #86, #231 ) ;
#617 = CARTESIAN_POINT ( 'NONE',  ( 0.6506757991093098381, 0.000000000000000000, 0.000000000000000000 ) ) ;
#618 = CARTESIAN_POINT ( 'NONE',  ( 0.9000000000000000222, -0.3512766277926865355, -0.2399999999999999911 ) ) ;
#619 = CIRCLE ( 'NONE', #188, 2.488453334905037728 ) ;
#620 = B_SPLINE_CURVE_WITH_KNOTS ( 'NONE', 3,
 ( #773, #393, #945, #254 ),
 .UNSPECIFIED., .F., .F.,
 ( 4, 4 ),
 ( 0.0007940721035525221847, 0.001662661278087496997 ),
 .UNSPECIFIED. ) ;
#621 = CARTESIAN_POINT ( 'NONE',  ( 0.9000000000000000222, -0.3512766277926865355, -0.2399999999999999911 ) ) ;
#622 = ORIENTED_EDGE ( 'NONE', *, *, #391, .F. ) ;
#623 = CARTESIAN_POINT ( 'NONE',  ( 0.8999999999999998002, -0.2622598901852890019, 0.2400000000000001854 ) ) ;
#624 = ADVANCED_FACE ( 'NONE', ( #958 ), #498, .T. ) ;
#625 = DIRECTION ( 'NONE',  ( -1.000000000000000000, -0.000000000000000000, -0.000000000000000000 ) ) ;
#626 = CARTESIAN_POINT ( 'NONE',  ( -25.39999999999996305, 0.000000000000000000, 0.000000000000000000 ) ) ;
#627 = AXIS2_PLACEMENT_3D ( 'NONE', #621, #567, #490 ) ;
#628 = ORIENTED_EDGE ( 'NONE', *, *, #270, .F. ) ;
#629 = PLANE ( 'NONE',  #358 ) ;
#630 = CARTESIAN_POINT ( 'NONE',  ( 0.9000000000000000222, -0.3512766277926865355, -0.2399999999999999911 ) ) ;
#631 = ADVANCED_FACE ( 'NONE', ( #962 ), #284, .F. ) ;
#632 = ORIENTED_EDGE ( 'NONE', *, *, #923, .F. ) ;
#633 =( BOUNDED_CURVE ( )  B_SPLINE_CURVE ( 3, ( #778, #469, #335, #26 ),
 .UNSPECIFIED., .F., .F. ) 
 B_SPLINE_CURVE_WITH_KNOTS ( ( 4, 4 ),
 ( 6.105607028069698572, 6.460763586289473892 ),
 .UNSPECIFIED. ) 
 CURVE ( )  GEOMETRIC_REPRESENTATION_ITEM ( )  RATIONAL_B_SPLINE_CURVE ( ( 1.000000000000000000, 0.9895162446892207253, 0.9895162446892207253, 1.000000000000000000 ) ) 
 REPRESENTATION_ITEM ( '' )  );
#634 = DIRECTION ( 'NONE',  ( -1.000000000000000000, -0.000000000000000000, -0.000000000000000000 ) ) ;
#635 = FACE_OUTER_BOUND ( 'NONE', #187, .T. ) ;
#636 =( GEOMETRIC_REPRESENTATION_CONTEXT ( 3 ) GLOBAL_UNCERTAINTY_ASSIGNED_CONTEXT ( ( #180 ) ) GLOBAL_UNIT_ASSIGNED_CONTEXT ( ( #697, #250, #554 ) ) REPRESENTATION_CONTEXT ( 'NONE', 'WORKASPACE' ) );
#637 = EDGE_LOOP ( 'NONE', ( #693, #258, #328, #928, #21, #909 ) ) ;
#638 = ADVANCED_FACE ( 'NONE', ( #274 ), #420, .T. ) ;
#639 = CARTESIAN_POINT ( 'NONE',  ( 9.300000000000002487, 0.000000000000000000, 0.8000000000000000444 ) ) ;
#640 = CARTESIAN_POINT ( 'NONE',  ( 0.9000000000000000222, -0.3512766277926865355, -0.2399999999999999911 ) ) ;
#641 = ORIENTED_EDGE ( 'NONE', *, *, #531, .T. ) ;
#642 = PRODUCT_RELATED_PRODUCT_CATEGORY ( 'part', '', ( #700 ) ) ;
#643 = CARTESIAN_POINT ( 'NONE',  ( 1.300000000000000044, 0.000000000000000000, 0.9000000000000002442 ) ) ;
#644 = EDGE_LOOP ( 'NONE', ( #811, #628, #432 ) ) ;
#645 = CARTESIAN_POINT ( 'NONE',  ( 1.399999999999998579, 0.000000000000000000, 0.000000000000000000 ) ) ;
#646 = DIRECTION ( 'NONE',  ( -1.000000000000000000, -0.000000000000000000, -0.000000000000000000 ) ) ;
#647 = ORIENTED_EDGE ( 'NONE', *, *, #998, .T. ) ;
#648 = CARTESIAN_POINT ( 'NONE',  ( 0.8999999999999998002, 0.000000000000000000, 0.000000000000000000 ) ) ;
#649 = DIRECTION ( 'NONE',  ( 0.000000000000000000, -3.491481338843133355E-15, 1.000000000000000000 ) ) ;
#650 = EDGE_LOOP ( 'NONE', ( #447 ) ) ;
#651 = CONICAL_SURFACE ( 'NONE', #285, 0.3554999999999999272, 0.06981317007976590994 ) ;
#652 = CARTESIAN_POINT ( 'NONE',  ( 0.8999999999999998002, -0.3512766277926871461, -0.05463497750157737115 ) ) ;
#653 = EDGE_CURVE ( 'NONE', #360, #440, #574, .T. ) ;
#654 = LINE ( 'NONE', #804, #261 ) ;
#655 = ORIENTED_EDGE ( 'NONE', *, *, #518, .F. ) ;
#656 = VECTOR ( 'NONE', #350, 1000.000000000000000 ) ;
#657 = DIRECTION ( 'NONE',  ( 1.000000000000000000, 0.000000000000000000, 0.000000000000000000 ) ) ;
#658 = DIRECTION ( 'NONE',  ( 0.000000000000000000, 0.000000000000000000, -1.000000000000000000 ) ) ;
#659 = EDGE_CURVE ( 'NONE', #453, #389, #570, .T. ) ;
#660 = ORIENTED_EDGE ( 'NONE', *, *, #356, .F. ) ;
#661 = CIRCLE ( 'NONE', #229, 1.600000000000000755 ) ;
#662 = DIRECTION ( 'NONE',  ( 1.000000000000000000, 0.000000000000000000, 0.000000000000000000 ) ) ;
#663 = CARTESIAN_POINT ( 'NONE',  ( 0.8999999999999998002, -0.2400000000000006850, 0.2622598901852886133 ) ) ;
#664 = EDGE_LOOP ( 'NONE', ( #788 ) ) ;
#665 = ADVANCED_FACE ( 'NONE', ( #722 ), #879, .F. ) ;
#666 = AXIS2_PLACEMENT_3D ( 'NONE', #688, #991, #523 ) ;
#667 = DIRECTION ( 'NONE',  ( -1.000000000000000000, -0.000000000000000000, -0.000000000000000000 ) ) ;
#668 = CARTESIAN_POINT ( 'NONE',  ( 0.8999999999999998002, 0.000000000000000000, 0.000000000000000000 ) ) ;
#669 = ORIENTED_EDGE ( 'NONE', *, *, #430, .F. ) ;
#670 = CARTESIAN_POINT ( 'NONE',  ( 0.9000000000000000222, 0.2399999999999987699, 0.3512766277925008507 ) ) ;
#671 = AXIS2_PLACEMENT_3D ( 'NONE', #342, #587, #822 ) ;
#672 = CARTESIAN_POINT ( 'NONE',  ( 2.500000000000000444, -0.2400000000000005185, -8.379555213223464635E-16 ) ) ;
#673 = VERTEX_POINT ( 'NONE', #349 ) ;
#674 = ORIENTED_EDGE ( 'NONE', *, *, #840, .F. ) ;
#675 = DIRECTION ( 'NONE',  ( 0.8949343913984055821, 0.000000000000000000, -0.4461977533475102731 ) ) ;
#676 = VECTOR ( 'NONE', #304, 1000.000000000000000 ) ;
#677 = ADVANCED_FACE ( 'NONE', ( #352 ), #651, .F. ) ;
#678 = CARTESIAN_POINT ( 'NONE',  ( 0.8999999999999998002, -0.2622598901852887798, -0.2400000000000004075 ) ) ;
#679 = VERTEX_POINT ( 'NONE', #652 ) ;
#680 = ORIENTED_EDGE ( 'NONE', *, *, #709, .F. ) ;
#681 = CARTESIAN_POINT ( 'NONE',  ( 0.8999999999999998002, 0.000000000000000000, 0.000000000000000000 ) ) ;
#682 = VECTOR ( 'NONE', #825, 1000.000000000000000 ) ;
#683 = CARTESIAN_POINT ( 'NONE',  ( 0.6117514594725665944, -0.2895822732358735441, -0.2399999999999999911 ) ) ;
#684 = EDGE_CURVE ( 'NONE', #312, #311, #829, .T. ) ;
#685 = ORIENTED_EDGE ( 'NONE', *, *, #802, .F. ) ;
#686 = ORIENTED_EDGE ( 'NONE', *, *, #923, .T. ) ;
#687 = FACE_OUTER_BOUND ( 'NONE', #416, .T. ) ;
#688 = CARTESIAN_POINT ( 'NONE',  ( 0.8999999999999998002, 0.000000000000000000, 0.000000000000000000 ) ) ;
#689 = AXIS2_PLACEMENT_3D ( 'NONE', #485, #471, #792 ) ;
#690 = DIRECTION ( 'NONE',  ( 4.818676322157797375E-16, 1.000000000000000000, 3.491481338843133355E-15 ) ) ;
#691 = EDGE_LOOP ( 'NONE', ( #772, #584, #33, #406 ) ) ;
#692 = CARTESIAN_POINT ( 'NONE',  ( 0.8999999999999999112, 0.2399999999999987699, 0.3512766277925008507 ) ) ;
#693 = ORIENTED_EDGE ( 'NONE', *, *, #144, .F. ) ;
#694 = ORIENTED_EDGE ( 'NONE', *, *, #848, .F. ) ;
#695 = ADVANCED_FACE ( 'NONE', ( #502 ), #809, .T. ) ;
#696 = CARTESIAN_POINT ( 'NONE',  ( 2.321723084137648385, 0.3575682351620116939, 0.000000000000000000 ) ) ;
#697 =( LENGTH_UNIT ( ) NAMED_UNIT ( * ) SI_UNIT ( .MILLI., .METRE. ) );
#698 = PLANE ( 'NONE',  #735 ) ;
#699 = VERTEX_POINT ( 'NONE', #429 ) ;
#700 = PRODUCT ( 'ISO 7045 - M1.6 x 8 - Z - 8N_ISO 7045 - M1.6 x 8 - Z - 8N', 'ISO 7045 - M1.6 x 8 - Z - 8N_ISO 7045 - M1.6 x 8 - Z - 8N', '', ( #717 ) ) ;
#701 = DIRECTION ( 'NONE',  ( 0.000000000000000000, -5.329070518200751394E-15, -1.000000000000000000 ) ) ;
#702 = EDGE_CURVE ( 'NONE', #113, #113, #217, .T. ) ;
#703 = SURFACE_SIDE_STYLE ('',( #8 ) ) ;
#704 = DIRECTION ( 'NONE',  ( -1.000000000000000000, -0.000000000000000000, -0.000000000000000000 ) ) ;
#705 = AXIS2_PLACEMENT_3D ( 'NONE', #549, #714, #257 ) ;
#706 = ORIENTED_EDGE ( 'NONE', *, *, #110, .T. ) ;
#707 = DIRECTION ( 'NONE',  ( -1.000000000000000000, 0.000000000000000000, -4.792625093689236642E-16 ) ) ;
#708 = PLANE ( 'NONE',  #124 ) ;
#709 = EDGE_CURVE ( 'NONE', #453, #546, #280, .T. ) ;
#710 = DIRECTION ( 'NONE',  ( 0.000000000000000000, 0.000000000000000000, 1.000000000000000000 ) ) ;
#711 = VERTEX_POINT ( 'NONE', #357 ) ;
#712 = CARTESIAN_POINT ( 'NONE',  ( 0.9000000000000000222, -0.3512766277926865355, 0.2399999999999997691 ) ) ;
#713 = DIRECTION ( 'NONE',  ( -1.000000000000000000, -0.000000000000000000, -0.000000000000000000 ) ) ;
#714 = DIRECTION ( 'NONE',  ( -1.000000000000000000, -0.000000000000000000, -0.000000000000000000 ) ) ;
#715 = VECTOR ( 'NONE', #558, 1000.000000000000000 ) ;
#716 = VERTEX_POINT ( 'NONE', #794 ) ;
#717 = PRODUCT_CONTEXT ( 'NONE', #79, 'mechanical' ) ;
#718 = ORIENTED_EDGE ( 'NONE', *, *, #176, .F. ) ;
#719 = FACE_OUTER_BOUND ( 'NONE', #90, .T. ) ;
#720 = DIRECTION ( 'NONE',  ( 4.818676322157797375E-16, 1.000000000000000000, 3.491481338843133355E-15 ) ) ;
#721 = ORIENTED_EDGE ( 'NONE', *, *, #684, .T. ) ;
#722 = FACE_OUTER_BOUND ( 'NONE', #922, .T. ) ;
#723 = DIRECTION ( 'NONE',  ( 1.000000000000000000, 0.000000000000000000, 0.000000000000000000 ) ) ;
#724 = EDGE_LOOP ( 'NONE', ( #767, #456, #614 ) ) ;
#725 = EDGE_CURVE ( 'NONE', #312, #944, #887, .T. ) ;
#726 = DIRECTION ( 'NONE',  ( -1.000000000000000000, -0.000000000000000000, -0.000000000000000000 ) ) ;
#727 = LINE ( 'NONE', #41, #656 ) ;
#728 = EDGE_LOOP ( 'NONE', ( #400, #592, #163, #741 ) ) ;
#729 = AXIS2_PLACEMENT_3D ( 'NONE', #598, #129, #381 ) ;
#730 = ADVANCED_FACE ( 'NONE', ( #719 ), #298, .F. ) ;
#731 = CARTESIAN_POINT ( 'NONE',  ( 0.9000000000000000222, -0.2400000000000009903, 0.3512766277924994629 ) ) ;
#732 = CARTESIAN_POINT ( 'NONE',  ( 0.9000000000000000222, 0.2400000000000012124, -0.3512766277926857028 ) ) ;
#733 = ORIENTED_EDGE ( 'NONE', *, *, #862, .T. ) ;
#734 = B_SPLINE_CURVE_WITH_KNOTS ( 'NONE', 3,
 ( #663, #119, #425, #508 ),
 .UNSPECIFIED., .F., .F.,
 ( 4, 4 ),
 ( 0.0007940721035524991997, 0.001662661278087475313 ),
 .UNSPECIFIED. ) ;
#735 = AXIS2_PLACEMENT_3D ( 'NONE', #184, #720, #173 ) ;
#736 = EDGE_LOOP ( 'NONE', ( #395, #568, #844, #647 ) ) ;
#737 = CARTESIAN_POINT ( 'NONE',  ( 0.9000000000000000222, 0.3512766277925002401, 0.2399999999999997691 ) ) ;
#738 = B_SPLINE_CURVE_WITH_KNOTS ( 'NONE', 3,
 ( #678, #683, #140, #460 ),
 .UNSPECIFIED., .F., .F.,
 ( 4, 4 ),
 ( 0.0007940721035527058486, 0.001662661278087680878 ),
 .UNSPECIFIED. ) ;
#739 = PLANE ( 'NONE',  #323 ) ;
#740 = ADVANCED_FACE ( 'NONE', ( #214 ), #521, .F. ) ;
#741 = ORIENTED_EDGE ( 'NONE', *, *, #403, .F. ) ;
#742 = CIRCLE ( 'NONE', #212, 2.488453334905037728 ) ;
#743 = CARTESIAN_POINT ( 'NONE',  ( 0.3233375591043187725, 0.2400000000000011013, -0.3150869624607286479 ) ) ;
#744 = CARTESIAN_POINT ( 'NONE',  ( 0.8999999999999998002, 0.000000000000000000, 0.000000000000000000 ) ) ;
#745 = CIRCLE ( 'NONE', #9, 0.4159969265481628375 ) ;
#746 = EDGE_LOOP ( 'NONE', ( #610 ) ) ;
#747 = EDGE_CURVE ( 'NONE', #413, #883, #898, .T. ) ;
#748 = AXIS2_PLACEMENT_3D ( 'NONE', #668, #363, #595 ) ;
#749 = CARTESIAN_POINT ( 'NONE',  ( 0.8999999999999998002, 0.000000000000000000, 0.000000000000000000 ) ) ;
#750 = CARTESIAN_POINT ( 'NONE',  ( 2.500000000000000444, 0.2399999999999999911, 8.379555213223591839E-16 ) ) ;
#751 = VECTOR ( 'NONE', #64, 1000.000000000000000 ) ;
#752 = ORIENTED_EDGE ( 'NONE', *, *, #384, .T. ) ;
#753 = LINE ( 'NONE', #985, #751 ) ;
#754 = AXIS2_PLACEMENT_3D ( 'NONE', #399, #704, #251 ) ;
#755 = DIRECTION ( 'NONE',  ( 4.818676322157797375E-16, 1.000000000000000000, 3.491481338843133355E-15 ) ) ;
#756 = LINE ( 'NONE', #466, #835 ) ;
#757 = ORIENTED_EDGE ( 'NONE', *, *, #201, .F. ) ;
#758 = DIRECTION ( 'NONE',  ( 0.4461977533475102731, -2.720359305645576568E-15, 0.8949343913984054710 ) ) ;
#759 = EDGE_CURVE ( 'NONE', #766, #679, #139, .T. ) ;
#760 = CARTESIAN_POINT ( 'NONE',  ( 0.000000000000000000, -0.8000000000000003775, -0.2399999999999999911 ) ) ;
#761 = CARTESIAN_POINT ( 'NONE',  ( 0.9000000000000000222, -0.3512766277926865355, 0.2399999999999997691 ) ) ;
#762 = VERTEX_POINT ( 'NONE', #906 ) ;
#763 = DIRECTION ( 'NONE',  ( 0.000000000000000000, -1.000000000000000000, -3.491481338843133355E-15 ) ) ;
#764 = CIRCLE ( 'NONE', #895, 0.3554999999999999272 ) ;
#765 = PLANE ( 'NONE',  #796 ) ;
#766 = VERTEX_POINT ( 'NONE', #515 ) ;
#767 = ORIENTED_EDGE ( 'NONE', *, *, #986, .F. ) ;
#768 = DIRECTION ( 'NONE',  ( 0.000000000000000000, 0.000000000000000000, 1.000000000000000000 ) ) ;
#769 = AXIS2_PLACEMENT_3D ( 'NONE', #761, #71, #921 ) ;
#770 = ORIENTED_EDGE ( 'NONE', *, *, #168, .F. ) ;
#771 = ADVANCED_FACE ( 'NONE', ( #220 ), #68, .F. ) ;
#772 = ORIENTED_EDGE ( 'NONE', *, *, #270, .T. ) ;
#773 = CARTESIAN_POINT ( 'NONE',  ( 0.8999999999999998002, 0.2622598901852890019, 0.2400000000000001854 ) ) ;
#774 = FILL_AREA_STYLE ('',( #183 ) ) ;
#775 = CARTESIAN_POINT ( 'NONE',  ( 0.8999999999999998002, 0.000000000000000000, 0.000000000000000000 ) ) ;
#776 = EDGE_CURVE ( 'NONE', #576, #351, #812, .T. ) ;
#777 = EDGE_LOOP ( 'NONE', ( #111 ) ) ;
#778 = CARTESIAN_POINT ( 'NONE',  ( 0.8999999999999998002, -0.05463497750277985371, 0.3512766277925001290 ) ) ;
#779 = CARTESIAN_POINT ( 'NONE',  ( 0.8999999999999998002, 0.05463497750277771653, 0.3512766277925004621 ) ) ;
#780 = CIRCLE ( 'NONE', #846, 0.3554999999999999272 ) ;
#781 = FACE_OUTER_BOUND ( 'NONE', #805, .T. ) ;
#782 = ORIENTED_EDGE ( 'NONE', *, *, #332, .F. ) ;
#783 = CARTESIAN_POINT ( 'NONE',  ( 0.03485364387781592077, -0.3397844064955309884, 0.2399999999999993250 ) ) ;
#784 = EDGE_CURVE ( 'NONE', #699, #364, #753, .T. ) ;
#785 = DIRECTION ( 'NONE',  ( 0.000000000000000000, 0.000000000000000000, 1.000000000000000000 ) ) ;
#786 = CARTESIAN_POINT ( 'NONE',  ( 0.000000000000000000, -0.8000000000000003775, 0.2399999999999993250 ) ) ;
#787 = VECTOR ( 'NONE', #810, 1000.000000000000000 ) ;
#788 = ORIENTED_EDGE ( 'NONE', *, *, #702, .T. ) ;
#789 = CARTESIAN_POINT ( 'NONE',  ( 0.3233375591042826902, -0.3150869624607329778, 0.2399999999999994915 ) ) ;
#790 = EDGE_CURVE ( 'NONE', #230, #699, #112, .T. ) ;
#791 = CARTESIAN_POINT ( 'NONE',  ( 0.8999999999999998002, 0.000000000000000000, 0.000000000000000000 ) ) ;
#792 = DIRECTION ( 'NONE',  ( 0.000000000000000000, 0.000000000000000000, 1.000000000000000000 ) ) ;
#793 = ORIENTED_EDGE ( 'NONE', *, *, #998, .F. ) ;
#794 = CARTESIAN_POINT ( 'NONE',  ( 0.1236136778209376841, 0.2399999999999974098, 0.7383685040413541234 ) ) ;
#795 = DIRECTION ( 'NONE',  ( -1.000000000000000000, -0.000000000000000000, -0.000000000000000000 ) ) ;
#796 = AXIS2_PLACEMENT_3D ( 'NONE', #837, #156, #299 ) ;
#797 = EDGE_LOOP ( 'NONE', ( #117 ) ) ;
#798 = FACE_OUTER_BOUND ( 'NONE', #650, .T. ) ;
#799 = ADVANCED_BREP_SHAPE_REPRESENTATION ( 'ISO 7045 - M1.6 x 8 - Z - 8N_ISO 7045 - M1.6 x 8 - Z - 8N', ( #542, #853 ), #435 ) ;
#800 = DIRECTION ( 'NONE',  ( -0.000000000000000000, 0.000000000000000000, 1.000000000000000000 ) ) ;
#801 = EDGE_LOOP ( 'NONE', ( #43, #680, #793, #588, #6, #368 ) ) ;
#802 = EDGE_CURVE ( 'NONE', #951, #148, #876, .T. ) ;
#803 = CARTESIAN_POINT ( 'NONE',  ( 0.6506757991093098381, 0.000000000000000000, 1.600000000000000755 ) ) ;
#804 = CARTESIAN_POINT ( 'NONE',  ( 0.9000000000000000222, 0.2400000000000012124, -0.3512766277926857028 ) ) ;
#805 = EDGE_LOOP ( 'NONE', ( #655, #38, #343 ) ) ;
#806 = AXIS2_PLACEMENT_3D ( 'NONE', #74, #80, #768 ) ;
#807 = EDGE_CURVE ( 'NONE', #716, #673, #824, .T. ) ;
#808 = CARTESIAN_POINT ( 'NONE',  ( 0.000000000000000000, 0.000000000000000000, 0.000000000000000000 ) ) ;
#809 = PLANE ( 'NONE',  #107 ) ;
#810 = DIRECTION ( 'NONE',  ( 0.000000000000000000, 1.000000000000000000, 3.039730433640839710E-15 ) ) ;
#811 = ORIENTED_EDGE ( 'NONE', *, *, #684, .F. ) ;
#812 = CIRCLE ( 'NONE', #601, 0.3554999999999999272 ) ;
#813 = VERTEX_POINT ( 'NONE', #950 ) ;
#814 = DIRECTION ( 'NONE',  ( 0.000000000000000000, 0.000000000000000000, 1.000000000000000000 ) ) ;
#815 = ADVANCED_FACE ( 'NONE', ( #981 ), #520, .F. ) ;
#816 = CARTESIAN_POINT ( 'NONE',  ( 0.000000000000000000, 0.2399999999999971878, 0.8000000000000012657 ) ) ;
#817 = EDGE_LOOP ( 'NONE', ( #557, #823, #857, #834 ) ) ;
#818 = AXIS2_PLACEMENT_3D ( 'NONE', #988, #295, #838 ) ;
#819 = AXIS2_PLACEMENT_3D ( 'NONE', #494, #800, #455 ) ;
#820 = DIRECTION ( 'NONE',  ( 0.4461977533475103286, -2.720359305645575779E-15, 0.8949343913984054710 ) ) ;
#821 = PRODUCT_DEFINITION ( 'General', '', #510, #390 ) ;
#822 = DIRECTION ( 'NONE',  ( 0.000000000000000000, 1.000000000000000000, 0.000000000000000000 ) ) ;
#823 = ORIENTED_EDGE ( 'NONE', *, *, #356, .T. ) ;
#824 = CIRCLE ( 'NONE', #132, 2.467865940133984193 ) ;
#825 = DIRECTION ( 'NONE',  ( 0.000000000000000000, 0.000000000000000000, 1.000000000000000000 ) ) ;
#826 = LINE ( 'NONE', #760, #241 ) ;
#827 = AXIS2_PLACEMENT_3D ( 'NONE', #670, #763, #532 ) ;
#828 = DIRECTION ( 'NONE',  ( 0.000000000000000000, 3.496437852441466191E-15, -1.000000000000000000 ) ) ;
#829 = CIRCLE ( 'NONE', #268, 0.3554999999999999272 ) ;
#830 = CARTESIAN_POINT ( 'NONE',  ( 2.321723084137398363, -9.949885120242081039E-16, -0.3575682351623674649 ) ) ;
#831 = CARTESIAN_POINT ( 'NONE',  ( 0.3233375591043186614, -0.2399999999999983813, -0.3150869624607307018 ) ) ;
#832 = CARTESIAN_POINT ( 'NONE',  ( 2.500000000000000444, 0.2399999999999999911, 8.379555213223591839E-16 ) ) ;
#833 = ADVANCED_FACE ( 'NONE', ( #687 ), #164, .F. ) ;
#834 = ORIENTED_EDGE ( 'NONE', *, *, #344, .T. ) ;
#835 = VECTOR ( 'NONE', #234, 1000.000000000000000 ) ;
#836 = CARTESIAN_POINT ( 'NONE',  ( 0.9000000000000000222, -0.2400000000000009903, 0.3512766277924994629 ) ) ;
#837 = CARTESIAN_POINT ( 'NONE',  ( 0.9000000000000000222, -0.3512766277926865355, -0.2399999999999999911 ) ) ;
#838 = DIRECTION ( 'NONE',  ( 0.000000000000000000, 0.000000000000000000, 1.000000000000000000 ) ) ;
#839 = ORIENTED_EDGE ( 'NONE', *, *, #976, .F. ) ;
#840 = EDGE_CURVE ( 'NONE', #711, #311, #995, .T. ) ;
#841 = CARTESIAN_POINT ( 'NONE',  ( 0.9000000000000000222, -0.2400000000000009903, 0.3512766277924994629 ) ) ;
#842 = CARTESIAN_POINT ( 'NONE',  ( 1.299999999999999156, 0.000000000000000000, 0.000000000000000000 ) ) ;
#843 = CARTESIAN_POINT ( 'NONE',  ( 0.03485364387781578893, -0.2399999999999981593, -0.3397844064955283794 ) ) ;
#844 = ORIENTED_EDGE ( 'NONE', *, *, #943, .T. ) ;
#845 = CARTESIAN_POINT ( 'NONE',  ( 0.000000000000000000, 0.8000000000000003775, 0.2399999999999994360 ) ) ;
#846 = AXIS2_PLACEMENT_3D ( 'NONE', #75, #211, #903 ) ;
#847 = AXIS2_PLACEMENT_3D ( 'NONE', #345, #726, #507 ) ;
#848 = EDGE_CURVE ( 'NONE', #673, #975, #918, .T. ) ;
#849 = CARTESIAN_POINT ( 'NONE',  ( 0.8999999999999998002, 0.2622598901852887798, -0.2400000000000004075 ) ) ;
#850 = ORIENTED_EDGE ( 'NONE', *, *, #590, .F. ) ;
#851 = ORIENTED_EDGE ( 'NONE', *, *, #430, .T. ) ;
#852 = CARTESIAN_POINT ( 'NONE',  ( 0.9000000000000000222, 0.2400000000000012124, -0.3512766277926857028 ) ) ;
#853 = AXIS2_PLACEMENT_3D ( 'NONE', #808, #273, #412 ) ;
#854 = AXIS2_PLACEMENT_3D ( 'NONE', #167, #474, #262 ) ;
#855 = ADVANCED_FACE ( 'NONE', ( #444 ), #226, .T. ) ;
#856 = FACE_OUTER_BOUND ( 'NONE', #637, .T. ) ;
#857 = ORIENTED_EDGE ( 'NONE', *, *, #489, .T. ) ;
#858 = DIRECTION ( 'NONE',  ( -1.000000000000000000, 0.000000000000000000, -0.000000000000000000 ) ) ;
#859 = CARTESIAN_POINT ( 'NONE',  ( 0.9000000000000000222, -0.2399999999999985478, -0.3512766277926873126 ) ) ;
#860 = CARTESIAN_POINT ( 'NONE',  ( 0.8868283770658040854, -0.3578437556376594109, -0.01840460858012882631 ) ) ;
#861 = ORIENTED_EDGE ( 'NONE', *, *, #776, .F. ) ;
#862 = EDGE_CURVE ( 'NONE', #975, #351, #293, .T. ) ;
#863 = FACE_OUTER_BOUND ( 'NONE', #51, .T. ) ;
#864 = CIRCLE ( 'NONE', #171, 2.488453334905037728 ) ;
#865 = PLANE ( 'NONE',  #19 ) ;
#866 = VERTEX_POINT ( 'NONE', #458 ) ;
#867 = EDGE_CURVE ( 'NONE', #966, #966, #926, .T. ) ;
#868 = CARTESIAN_POINT ( 'NONE',  ( 0.8999999999999998002, 0.000000000000000000, 0.000000000000000000 ) ) ;
#869 = PLANE ( 'NONE',  #980 ) ;
#870 = DIRECTION ( 'NONE',  ( -1.000000000000000000, -0.000000000000000000, -0.000000000000000000 ) ) ;
#871 = VECTOR ( 'NONE', #938, 1000.000000000000114 ) ;
#872 = ORIENTED_EDGE ( 'NONE', *, *, #289, .F. ) ;
#873 = CARTESIAN_POINT ( 'NONE',  ( 1.399999999999998579, 0.000000000000000000, 0.8000000000000001554 ) ) ;
#874 = FACE_OUTER_BOUND ( 'NONE', #797, .T. ) ;
#875 = LINE ( 'NONE', #544, #99 ) ;
#876 = CIRCLE ( 'NONE', #37, 2.467865940134053471 ) ;
#877 = VECTOR ( 'NONE', #396, 1000.000000000000114 ) ;
#878 = ORIENTED_EDGE ( 'NONE', *, *, #326, .F. ) ;
#879 = PLANE ( 'NONE',  #287 ) ;
#880 = ADVANCED_FACE ( 'NONE', ( #553 ), #541, .F. ) ;
#881 = FACE_OUTER_BOUND ( 'NONE', #644, .T. ) ;
#882 = TOROIDAL_SURFACE ( 'NONE', #13, 0.9000000000000002442, 0.1000000000000000056 ) ;
#883 = VERTEX_POINT ( 'NONE', #940 ) ;
#884 = CARTESIAN_POINT ( 'NONE',  ( 1.399999999999998579, 0.000000000000000000, 0.000000000000000000 ) ) ;
#885 = DIRECTION ( 'NONE',  ( 0.000000000000000000, 0.000000000000000000, -1.000000000000000000 ) ) ;
#886 = AXIS2_PLACEMENT_3D ( 'NONE', #50, #974, #885 ) ;
#887 = B_SPLINE_CURVE_WITH_KNOTS ( 'NONE', 3,
 ( #31, #341, #743, #370 ),
 .UNSPECIFIED., .F., .F.,
 ( 4, 4 ),
 ( 0.0007940719671208869897, 0.001662661141672633000 ),
 .UNSPECIFIED. ) ;
#888 = DIRECTION ( 'NONE',  ( -1.000000000000000000, -0.000000000000000000, -0.000000000000000000 ) ) ;
#889 = DIRECTION ( 'NONE',  ( -1.000000000000000000, -0.000000000000000000, -0.000000000000000000 ) ) ;
#890 = ORIENTED_EDGE ( 'NONE', *, *, #437, .T. ) ;
#891 = EDGE_CURVE ( 'NONE', #476, #96, #232, .T. ) ;
#892 = DIRECTION ( 'NONE',  ( 0.000000000000000000, 3.491481338843133355E-15, -1.000000000000000000 ) ) ;
#893 = DIRECTION ( 'NONE',  ( 0.000000000000000000, 1.000000000000000000, 3.039730433640839710E-15 ) ) ;
#894 = ORIENTED_EDGE ( 'NONE', *, *, #176, .T. ) ;
#895 = AXIS2_PLACEMENT_3D ( 'NONE', #791, #713, #27 ) ;
#896 = ADVANCED_FACE ( 'NONE', ( #863 ), #185, .F. ) ;
#897 = CARTESIAN_POINT ( 'NONE',  ( 9.300000000000002487, 0.8000000000000000444, 0.000000000000000000 ) ) ;
#898 = B_SPLINE_CURVE_WITH_KNOTS ( 'NONE', 3,
 ( #449, #53, #1, #912 ),
 .UNSPECIFIED., .F., .F.,
 ( 4, 4 ),
 ( 0.0006664741704309976728, 0.001535090400857996341 ),
 .UNSPECIFIED. ) ;
#899 = DIRECTION ( 'NONE',  ( 0.000000000000000000, 0.000000000000000000, 1.000000000000000000 ) ) ;
#900 = VERTEX_POINT ( 'NONE', #692 ) ;
#901 = CONICAL_SURFACE ( 'NONE', #467, 0.3554999999999999272, 0.06981317007976590994 ) ;
#902 = CARTESIAN_POINT ( 'NONE',  ( 0.000000000000000000, -0.2400000000000022393, 0.7999999999999994893 ) ) ;
#903 = DIRECTION ( 'NONE',  ( 0.000000000000000000, 0.000000000000000000, 1.000000000000000000 ) ) ;
#904 = ORIENTED_EDGE ( 'NONE', *, *, #483, .T. ) ;
#905 = AXIS2_PLACEMENT_3D ( 'NONE', #375, #454, #290 ) ;
#906 = CARTESIAN_POINT ( 'NONE',  ( 0.03485364387781592077, 0.3397844064955266585, -0.2399999999999999911 ) ) ;
#907 = DIRECTION ( 'NONE',  ( -1.000000000000000000, -0.000000000000000000, -0.000000000000000000 ) ) ;
#908 = ADVANCED_FACE ( 'NONE', ( #547, #478 ), #629, .F. ) ;
#909 = ORIENTED_EDGE ( 'NONE', *, *, #537, .F. ) ;
#910 = EDGE_LOOP ( 'NONE', ( #509, #410 ) ) ;
#911 = AXIS2_PLACEMENT_3D ( 'NONE', #884, #657, #108 ) ;
#912 = CARTESIAN_POINT ( 'NONE',  ( 0.8999999999999998002, 0.2399999999999990474, 0.2622598901852900566 ) ) ;
#913 = CARTESIAN_POINT ( 'NONE',  ( 0.03485364387781600404, 0.2399999999999987976, 0.3397844064955279353 ) ) ;
#914 = DIRECTION ( 'NONE',  ( 0.000000000000000000, -1.000000000000000000, -3.491481338843133355E-15 ) ) ;
#915 = EDGE_CURVE ( 'NONE', #524, #576, #81, .T. ) ;
#916 = ORIENTED_EDGE ( 'NONE', *, *, #283, .F. ) ;
#917 = AXIS2_PLACEMENT_3D ( 'NONE', #452, #690, #141 ) ;
#918 = LINE ( 'NONE', #902, #315 ) ;
#919 = VECTOR ( 'NONE', #442, 1000.000000000000000 ) ;
#920 = CARTESIAN_POINT ( 'NONE',  ( 0.8999999999999998002, -0.2400000000000006850, 0.2622598901852886133 ) ) ;
#921 = DIRECTION ( 'NONE',  ( -1.000000000000000000, 0.000000000000000000, -4.818676322157797375E-16 ) ) ;
#922 = EDGE_LOOP ( 'NONE', ( #133, #706, #78 ) ) ;
#923 = EDGE_CURVE ( 'NONE', #413, #196, #613, .T. ) ;
#924 = DIRECTION ( 'NONE',  ( 0.000000000000000000, 0.000000000000000000, 1.000000000000000000 ) ) ;
#925 = DIRECTION ( 'NONE',  ( -0.8949343913984053600, 0.4461977533475103286, 0.000000000000000000 ) ) ;
#926 = CIRCLE ( 'NONE', #806, 0.8000000000000000444 ) ;
#927 = ORIENTED_EDGE ( 'NONE', *, *, #384, .F. ) ;
#928 = ORIENTED_EDGE ( 'NONE', *, *, #891, .F. ) ;
#929 = DIRECTION ( 'NONE',  ( -1.000000000000000000, -0.000000000000000000, -0.000000000000000000 ) ) ;
#930 = EDGE_CURVE ( 'NONE', #279, #279, #661, .T. ) ;
#931 = CIRCLE ( 'NONE', #947, 0.3554999999999999272 ) ;
#932 = DIRECTION ( 'NONE',  ( -1.000000000000000000, -0.000000000000000000, -0.000000000000000000 ) ) ;
#933 = DIRECTION ( 'NONE',  ( 4.818676322157797375E-16, 0.000000000000000000, -1.000000000000000000 ) ) ;
#934 = ORIENTED_EDGE ( 'NONE', *, *, #201, .T. ) ;
#935 = CARTESIAN_POINT ( 'NONE',  ( 0.1236136778209437487, -0.2399999999999967992, -0.7383685040413764389 ) ) ;
#936 = FACE_OUTER_BOUND ( 'NONE', #971, .T. ) ;
#937 = CIRCLE ( 'NONE', #451, 0.3554999999999999272 ) ;
#938 = DIRECTION ( 'NONE',  ( 0.8949343913984794119, 0.4461977533473619473, 4.312399161716551643E-16 ) ) ;
#939 = EDGE_LOOP ( 'NONE', ( #169 ) ) ;
#940 = CARTESIAN_POINT ( 'NONE',  ( 0.8999999999999998002, 0.2399999999999990474, 0.2622598901852900566 ) ) ;
#941 = CARTESIAN_POINT ( 'NONE',  ( 0.1236136778209372400, 0.7383685040413530132, 0.2399999999999996581 ) ) ;
#942 = CARTESIAN_POINT ( 'NONE',  ( 0.8999999999999998002, -0.3512766277926871461, 0.05463497750157737115 ) ) ;
#943 = EDGE_CURVE ( 'NONE', #196, #540, #742, .T. ) ;
#944 = VERTEX_POINT ( 'NONE', #102 ) ;
#945 = CARTESIAN_POINT ( 'NONE',  ( 0.3233375591042829678, 0.3150869624607329222, 0.2399999999999994915 ) ) ;
#946 = DIRECTION ( 'NONE',  ( 1.000000000000000000, 0.000000000000000000, 0.000000000000000000 ) ) ;
#947 = AXIS2_PLACEMENT_3D ( 'NONE', #533, #305, #60 ) ;
#948 = CARTESIAN_POINT ( 'NONE',  ( 0.8868283770658040854, -0.3578437556376593554, 0.01840460858012876039 ) ) ;
#949 = ORIENTED_EDGE ( 'NONE', *, *, #747, .T. ) ;
#950 = CARTESIAN_POINT ( 'NONE',  ( 1.299999999999999156, 0.000000000000000000, 1.600000000000000755 ) ) ;
#951 = VERTEX_POINT ( 'NONE', #935 ) ;
#952 = DIRECTION ( 'NONE',  ( -1.000000000000000000, -0.000000000000000000, -0.000000000000000000 ) ) ;
#953 = FACE_OUTER_BOUND ( 'NONE', #235, .T. ) ;
#954 = CLOSED_SHELL ( 'NONE', ( #313, #695, #218, #45, #957, #631, #121, #740, #150, #244, #423, #564, #730, #665, #131, #624, #771, #880, #855, #581, #237, #908, #137, #603, #638, #609, #223, #833, #104, #162, #677, #417, #896, #40, #815, #34 ) ) ;
#955 = CIRCLE ( 'NONE', #819, 2.488453334905037728 ) ;
#956 = ORIENTED_EDGE ( 'NONE', *, *, #590, .T. ) ;
#957 = ADVANCED_FACE ( 'NONE', ( #22 ), #329, .T. ) ;
#958 = FACE_OUTER_BOUND ( 'NONE', #380, .T. ) ;
#959 = ORIENTED_EDGE ( 'NONE', *, *, #807, .T. ) ;
#960 =( NAMED_UNIT ( * ) SI_UNIT ( $, .STERADIAN. ) SOLID_ANGLE_UNIT ( ) );
#961 = EDGE_CURVE ( 'NONE', #288, #514, #633, .T. ) ;
#962 = FACE_OUTER_BOUND ( 'NONE', #801, .T. ) ;
#963 = CARTESIAN_POINT ( 'NONE',  ( 0.03485364387781592077, -0.3397844064955308219, -0.2399999999999999911 ) ) ;
#964 = CIRCLE ( 'NONE', #748, 0.3554999999999999272 ) ;
#965 = ORIENTED_EDGE ( 'NONE', *, *, #319, .T. ) ;
#966 = VERTEX_POINT ( 'NONE', #639 ) ;
#967 = DIRECTION ( 'NONE',  ( 1.000000000000000000, 0.000000000000000000, 0.000000000000000000 ) ) ;
#968 = CARTESIAN_POINT ( 'NONE',  ( 0.9000000000000000222, -0.2400000000000009903, 0.3512766277924994629 ) ) ;
#969 = EDGE_CURVE ( 'NONE', #389, #196, #620, .T. ) ;
#970 = AXIS2_PLACEMENT_3D ( 'NONE', #228, #534, #4 ) ;
#971 = EDGE_LOOP ( 'NONE', ( #443, #993, #597, #757 ) ) ;
#972 = AXIS2_PLACEMENT_3D ( 'NONE', #203, #978, #499 ) ;
#973 = FACE_OUTER_BOUND ( 'NONE', #125, .T. ) ;
#974 = DIRECTION ( 'NONE',  ( 1.000000000000000000, 0.000000000000000000, 0.000000000000000000 ) ) ;
#975 = VERTEX_POINT ( 'NONE', #473 ) ;
#976 = EDGE_CURVE ( 'NONE', #524, #480, #745, .T. ) ;
#977 = CARTESIAN_POINT ( 'NONE',  ( 0.8999999999999998002, -0.05463497750157943894, -0.3512766277926869241 ) ) ;
#978 = DIRECTION ( 'NONE',  ( -1.000000000000000000, -0.000000000000000000, -0.000000000000000000 ) ) ;
#979 = ORIENTED_EDGE ( 'NONE', *, *, #371, .F. ) ;
#980 = AXIS2_PLACEMENT_3D ( 'NONE', #859, #484, #166 ) ;
#981 = FACE_OUTER_BOUND ( 'NONE', #10, .T. ) ;
#982 = CARTESIAN_POINT ( 'NONE',  ( 0.03485364387781487994, -0.2400000000000005462, 0.3397844064955267696 ) ) ;
#983 = ORIENTED_EDGE ( 'NONE', *, *, #206, .T. ) ;
#984 = AXIS2_PLACEMENT_3D ( 'NONE', #194, #579, #359 ) ;
#985 = CARTESIAN_POINT ( 'NONE',  ( 0.9000000000000000222, -0.3512766277926865355, -0.2399999999999999911 ) ) ;
#986 = EDGE_CURVE ( 'NONE', #604, #360, #297, .T. ) ;
#987 = FACE_OUTER_BOUND ( 'NONE', #29, .T. ) ;
#988 = CARTESIAN_POINT ( 'NONE',  ( -998.9844910479893088, 0.000000000000000000, 0.000000000000000000 ) ) ;
#989 = ORIENTED_EDGE ( 'NONE', *, *, #802, .T. ) ;
#990 = DIRECTION ( 'NONE',  ( 0.000000000000000000, 0.000000000000000000, 1.000000000000000000 ) ) ;
#991 = DIRECTION ( 'NONE',  ( -1.000000000000000000, -0.000000000000000000, -0.000000000000000000 ) ) ;
#992 = DIRECTION ( 'NONE',  ( 0.000000000000000000, 0.000000000000000000, 1.000000000000000000 ) ) ;
#993 = ORIENTED_EDGE ( 'NONE', *, *, #391, .T. ) ;
#994 = TOROIDAL_SURFACE ( 'NONE', #847, 1.450000000000000844, 0.1499999999999999667 ) ;
#995 = LINE ( 'NONE', #589, #676 ) ;
#996 = CARTESIAN_POINT ( 'NONE',  ( 0.3233375591042829122, 0.3150869624607325337, -0.2399999999999999911 ) ) ;
#997 = ORIENTED_EDGE ( 'NONE', *, *, #459, .T. ) ;
#998 = EDGE_CURVE ( 'NONE', #540, #453, #92, .T. ) ;
#999 = ORIENTED_EDGE ( 'NONE', *, *, #784, .T. ) ;
ENDSEC;
END-ISO-10303-21;
