ISO-10303-21;
HEADER;
FILE_DESCRIPTION (( 'STEP AP214' ),
    '1' );
FILE_NAME ('ISO - 4035 - M4 - N.STEP',
    '2025-07-30T15:09:17',
    ( '' ),
    ( '' ),
    'SwSTEP 2.0',
    'SolidWorks 2025',
    '' );
FILE_SCHEMA (( 'AUTOMOTIVE_DESIGN' ));
ENDSEC;

DATA;
#1 = PLANE ( 'NONE',  #511 ) ;
#2 = ORIENTED_EDGE ( 'NONE', *, *, #387, .F. ) ;
#3 = CARTESIAN_POINT ( 'NONE',  ( -2.346298152288372130, 2.686816014504566752, 2.138360262999904956E-15 ) ) ;
#4 = CARTESIAN_POINT ( 'NONE',  ( 1.084202172485504434E-15, 4.041451884327381450, -0.3126073911696449770 ) ) ;
#5 = CIRCLE ( 'NONE', #176, 2.000000000000000000 ) ;
#6 = CARTESIAN_POINT ( 'NONE',  ( -3.500000000000000000, -2.020725942163692501, -1.887392608830355201 ) ) ;
#7 = CARTESIAN_POINT ( 'NONE',  ( 0.000000000000000000, 0.000000000000000000, -2.200000000000000178 ) ) ;
#8 = CARTESIAN_POINT ( 'NONE',  ( -1.750000000000001998, -3.031088913245534755, -2.200000000000000178 ) ) ;
#9 = EDGE_CURVE ( 'NONE', #106, #592, #429, .T. ) ;
#10 = AXIS2_PLACEMENT_3D ( 'NONE', #457, #615, #284 ) ;
#11 = DIRECTION ( 'NONE',  ( 0.000000000000000000, -0.000000000000000000, 1.000000000000000000 ) ) ;
#12 = CARTESIAN_POINT ( 'NONE',  ( -8.673617379884035472E-16, 4.041451884327381450, -2.200000000000000178 ) ) ;
#13 = FACE_BOUND ( 'NONE', #213, .T. ) ;
#14 = CARTESIAN_POINT ( 'NONE',  ( 3.499999999999999556, -2.020725942163696054, -1.887392608830355201 ) ) ;
#15 = CARTESIAN_POINT ( 'NONE',  ( -3.500000000000000444, 0.000000000000000000, 0.000000000000000000 ) ) ;
#16 = ORIENTED_EDGE ( 'NONE', *, *, #58, .F. ) ;
#17 = ADVANCED_FACE ( 'NONE', ( #379 ), #286, .T. ) ;
#18 = DIRECTION ( 'NONE',  ( -1.000000000000000000, 0.000000000000000000, 0.000000000000000000 ) ) ;
#19 = B_SPLINE_CURVE_WITH_KNOTS ( 'NONE', 3,
 ( #366, #642, #528, #262, #474, #588 ),
 .UNSPECIFIED., .F., .F.,
 ( 4, 2, 4 ),
 ( 0.005649496001316446463, 0.006672230966438295191, 0.007694965931560143052 ),
 .UNSPECIFIED. ) ;
#20 = CARTESIAN_POINT ( 'NONE',  ( 3.500000000000000000, 2.020725942163692501, -0.3126073911696449770 ) ) ;
#21 = B_SPLINE_CURVE_WITH_KNOTS ( 'NONE', 3,
 ( #525, #696, #579, #265 ),
 .UNSPECIFIED., .F., .F.,
 ( 4, 4 ),
 ( 2.380739282179125086E-07, 0.002044882221487531477 ),
 .UNSPECIFIED. ) ;
#22 = CARTESIAN_POINT ( 'NONE',  ( -6.938893903907228378E-15, -4.041451884327381450, -0.3126073911696449770 ) ) ;
#23 = DIRECTION ( 'NONE',  ( -1.000000000000000000, 0.000000000000000000, 0.000000000000000000 ) ) ;
#24 = ORIENTED_EDGE ( 'NONE', *, *, #134, .F. ) ;
#25 = CARTESIAN_POINT ( 'NONE',  ( -1.452965002680430384, 3.202582148906728765, 2.328917088475697993E-15 ) ) ;
#26 = EDGE_CURVE ( 'NONE', #125, #91, #677, .T. ) ;
#27 = DIRECTION ( 'NONE',  ( -0.000000000000000000, 0.000000000000000000, -1.000000000000000000 ) ) ;
#28 = STYLED_ITEM ( 'NONE', ( #689 ), #691 ) ;
#29 = EDGE_LOOP ( 'NONE', ( #419 ) ) ;
#30 = CARTESIAN_POINT ( 'NONE',  ( -1.156317065392238330, 3.373851915354614928, -0.02993401039713616818 ) ) ;
#31 = DIRECTION ( 'NONE',  ( -0.000000000000000000, 0.000000000000000000, -1.000000000000000000 ) ) ;
#32 = EDGE_LOOP ( 'NONE', ( #552, #408, #646, #623, #293, #475 ) ) ;
#33 = VECTOR ( 'NONE', #193, 1000.000000000000000 ) ;
#34 = FACE_BOUND ( 'NONE', #183, .T. ) ;
#35 = CARTESIAN_POINT ( 'NONE',  ( -3.500000000000000000, 2.020725942163692501, -1.887392608830355201 ) ) ;
#36 = VERTEX_POINT ( 'NONE', #4 ) ;
#37 = FACE_OUTER_BOUND ( 'NONE', #460, .T. ) ;
#38 = APPLICATION_CONTEXT ( 'automotive_design' ) ;
#39 = ORIENTED_EDGE ( 'NONE', *, *, #444, .T. ) ;
#40 = ADVANCED_FACE ( 'NONE', ( #601 ), #328, .T. ) ;
#41 = DIRECTION ( 'NONE',  ( -0.8660254037844382635, 0.5000000000000006661, 0.000000000000000000 ) ) ;
#42 = ORIENTED_EDGE ( 'NONE', *, *, #117, .F. ) ;
#43 = AXIS2_PLACEMENT_3D ( 'NONE', #602, #325, #273 ) ;
#44 = PRODUCT_RELATED_PRODUCT_CATEGORY ( 'part', '', ( #553 ) ) ;
#45 = FILL_AREA_STYLE_COLOUR ( '', #440 ) ;
#46 = CARTESIAN_POINT ( 'NONE',  ( 2.047034997319573169, 2.859595677584339413, -2.200000000000001510 ) ) ;
#47 = ORIENTED_EDGE ( 'NONE', *, *, #644, .T. ) ;
#48 = CARTESIAN_POINT ( 'NONE',  ( 1.750000000000002442, 3.031088913245534311, -2.200000000000000178 ) ) ;
#49 = ADVANCED_FACE ( 'NONE', ( #182 ), #332, .T. ) ;
#50 = ORIENTED_EDGE ( 'NONE', *, *, #409, .T. ) ;
#51 = DIRECTION ( 'NONE',  ( 0.000000000000000000, -0.000000000000000000, 1.000000000000000000 ) ) ;
#52 = PRODUCT_DEFINITION ( 'General', '', #113, #431 ) ;
#53 = ORIENTED_EDGE ( 'NONE', *, *, #481, .T. ) ;
#54 = CARTESIAN_POINT ( 'NONE',  ( -0.2855619784720676013, 3.876582599186210842, -1.982579934988243808 ) ) ;
#55 = DIRECTION ( 'NONE',  ( -1.000000000000000000, -8.881784197001252323E-16, 0.000000000000000000 ) ) ;
#56 = CARTESIAN_POINT ( 'NONE',  ( -1.750000000000001776, 3.031088913245534755, -2.200000000000000178 ) ) ;
#57 = CARTESIAN_POINT ( 'NONE',  ( 1.452965002680430162, -3.202582148906732762, -2.200000000000000622 ) ) ;
#58 = EDGE_CURVE ( 'NONE', #106, #260, #158, .T. ) ;
#59 = MECHANICAL_DESIGN_GEOMETRIC_PRESENTATION_REPRESENTATION (  '', ( #28 ), #635 ) ;
#60 = PLANE ( 'NONE',  #651 ) ;
#61 = CARTESIAN_POINT ( 'NONE',  ( -3.500000000000000444, 0.000000000000000000, 0.000000000000000000 ) ) ;
#62 = DIRECTION ( 'NONE',  ( -1.000000000000000000, 0.000000000000000000, 0.000000000000000000 ) ) ;
#63 = AXIS2_PLACEMENT_3D ( 'NONE', #289, #565, #500 ) ;
#64 = DIRECTION ( 'NONE',  ( 1.000000000000000000, 0.000000000000000000, 0.000000000000000000 ) ) ;
#65 = VERTEX_POINT ( 'NONE', #221 ) ;
#66 = DIRECTION ( 'NONE',  ( -0.000000000000000000, -0.000000000000000000, 1.000000000000000000 ) ) ;
#67 = EDGE_CURVE ( 'NONE', #358, #427, #147, .T. ) ;
#68 = CARTESIAN_POINT ( 'NONE',  ( -2.926493552096023798, -2.351840044243039163, -0.1388410611046107801 ) ) ;
#69 = FACE_OUTER_BOUND ( 'NONE', #344, .T. ) ;
#70 = DIRECTION ( 'NONE',  ( 0.000000000000000000, 0.000000000000000000, 1.000000000000000000 ) ) ;
#71 = CARTESIAN_POINT ( 'NONE',  ( 0.000000000000000000, 0.000000000000000000, 0.000000000000000000 ) ) ;
#72 = DIRECTION ( 'NONE',  ( -1.000000000000000000, 0.000000000000000000, 0.000000000000000000 ) ) ;
#73 = AXIS2_PLACEMENT_3D ( 'NONE', #603, #649, #111 ) ;
#74 = VERTEX_POINT ( 'NONE', #15 ) ;
#75 = DIRECTION ( 'NONE',  ( -0.000000000000000000, -0.000000000000000000, 1.000000000000000000 ) ) ;
#76 = B_SPLINE_CURVE_WITH_KNOTS ( 'NONE', 3,
 ( #272, #57, #436, #124, #389, #480 ),
 .UNSPECIFIED., .F., .F.,
 ( 4, 2, 4 ),
 ( 0.002044882221487526273, 0.003063384235218493713, 0.004081886248949461587 ),
 .UNSPECIFIED. ) ;
#77 = CARTESIAN_POINT ( 'NONE',  ( -3.500000000000000000, 1.693985822988430145, -1.981714356710800429 ) ) ;
#78 = EDGE_LOOP ( 'NONE', ( #39, #133, #390 ) ) ;
#79 = EDGE_CURVE ( 'NONE', #676, #629, #76, .T. ) ;
#80 = CARTESIAN_POINT ( 'NONE',  ( 0.000000000000000000, 0.000000000000000000, -2.200000000000000178 ) ) ;
#81 = CARTESIAN_POINT ( 'NONE',  ( 0.000000000000000000, 0.000000000000000000, 0.000000000000000000 ) ) ;
#82 = AXIS2_PLACEMENT_3D ( 'NONE', #451, #353, #568 ) ;
#83 = ORIENTED_EDGE ( 'NONE', *, *, #514, .T. ) ;
#84 = CARTESIAN_POINT ( 'NONE',  ( 0.2855619784720656029, -3.876582599186216171, -0.2174200650117595890 ) ) ;
#85 = CARTESIAN_POINT ( 'NONE',  ( 0.000000000000000000, 0.000000000000000000, -2.200000000000000178 ) ) ;
#86 = EDGE_LOOP ( 'NONE', ( #140 ) ) ;
#87 = CONICAL_SURFACE ( 'NONE', #478, 3.500000000000000444, 1.047197551196596077 ) ;
#88 = VERTEX_POINT ( 'NONE', #527 ) ;
#89 = CARTESIAN_POINT ( 'NONE',  ( -3.500000000000000000, 0.000000000000000000, -2.200000000000000178 ) ) ;
#90 = EDGE_CURVE ( 'NONE', #447, #74, #585, .T. ) ;
#91 = VERTEX_POINT ( 'NONE', #495 ) ;
#92 = APPLICATION_PROTOCOL_DEFINITION ( 'draft international standard', 'automotive_design', 1998, #38 ) ;
#93 = CARTESIAN_POINT ( 'NONE',  ( 1.750000000000002442, 3.031088913245534311, 0.000000000000000000 ) ) ;
#94 = ORIENTED_EDGE ( 'NONE', *, *, #141, .T. ) ;
#95 = DIRECTION ( 'NONE',  ( 1.000000000000000000, 0.000000000000000000, 0.000000000000000000 ) ) ;
#96 = CARTESIAN_POINT ( 'NONE',  ( -3.500000000000000000, -2.020725942163692501, -2.200000000000000178 ) ) ;
#97 = ORIENTED_EDGE ( 'NONE', *, *, #610, .T. ) ;
#98 = CIRCLE ( 'NONE', #216, 3.500000000000000000 ) ;
#99 = EDGE_CURVE ( 'NONE', #413, #413, #386, .T. ) ;
#100 = DIRECTION ( 'NONE',  ( -0.000000000000000000, -0.000000000000000000, 1.000000000000000000 ) ) ;
#101 = ORIENTED_EDGE ( 'NONE', *, *, #514, .F. ) ;
#102 = CARTESIAN_POINT ( 'NONE',  ( 0.000000000000000000, 0.000000000000000000, 0.000000000000000000 ) ) ;
#103 = CARTESIAN_POINT ( 'NONE',  ( 0.000000000000000000, 0.000000000000000000, -2.200000000000000178 ) ) ;
#104 = ORIENTED_EDGE ( 'NONE', *, *, #235, .F. ) ;
#105 = DIRECTION ( 'NONE',  ( 0.000000000000000000, 0.000000000000000000, 1.000000000000000000 ) ) ;
#106 = VERTEX_POINT ( 'NONE', #595 ) ;
#107 = FACE_OUTER_BOUND ( 'NONE', #702, .T. ) ;
#108 = CARTESIAN_POINT ( 'NONE',  ( 3.500000000000000000, 2.020725942163692501, -1.887392608830355201 ) ) ;
#109 = ADVANCED_FACE ( 'NONE', ( #13, #652 ), #228, .F. ) ;
#110 = CARTESIAN_POINT ( 'NONE',  ( 2.927447417349534842, -2.351289329882154888, -2.078243469714887937 ) ) ;
#111 = DIRECTION ( 'NONE',  ( 1.000000000000000000, 0.000000000000000000, 0.000000000000000000 ) ) ;
#112 = EDGE_CURVE ( 'NONE', #546, #125, #606, .T. ) ;
#113 = PRODUCT_DEFINITION_FORMATION_WITH_SPECIFIED_SOURCE ( 'Symmetric', '', #553, .NOT_KNOWN. ) ;
#114 = PLANE ( 'NONE',  #287 ) ;
#115 = DIRECTION ( 'NONE',  ( 0.8660254037844384856, 0.5000000000000002220, 0.000000000000000000 ) ) ;
#116 = ORIENTED_EDGE ( 'NONE', *, *, #134, .T. ) ;
#117 = EDGE_CURVE ( 'NONE', #163, #447, #322, .T. ) ;
#118 = DIRECTION ( 'NONE',  ( 0.000000000000000000, 0.000000000000000000, 1.000000000000000000 ) ) ;
#119 = B_SPLINE_CURVE_WITH_KNOTS ( 'NONE', 3,
 ( #498, #292, #400, #197, #250, #407 ),
 .UNSPECIFIED., .F., .F.,
 ( 4, 2, 4 ),
 ( 0.003605240635278485206, 0.004627368318297466268, 0.005649496001316447330 ),
 .UNSPECIFIED. ) ;
#120 = AXIS2_PLACEMENT_3D ( 'NONE', #449, #190, #679 ) ;
#121 = CARTESIAN_POINT ( 'NONE',  ( -1.750000000000001776, 3.031088913245534755, -2.200000000000000178 ) ) ;
#122 = ORIENTED_EDGE ( 'NONE', *, *, #330, .T. ) ;
#123 = DIRECTION ( 'NONE',  ( 0.000000000000000000, 0.000000000000000000, -1.000000000000000000 ) ) ;
#124 = CARTESIAN_POINT ( 'NONE',  ( 0.5735064479039765351, -3.710337782248037897, -2.061158938895387482 ) ) ;
#125 = VERTEX_POINT ( 'NONE', #347 ) ;
#126 = DIRECTION ( 'NONE',  ( 1.000000000000000000, 0.000000000000000000, 0.000000000000000000 ) ) ;
#127 = CARTESIAN_POINT ( 'NONE',  ( 1.084202172485504434E-15, 4.041451884327381450, -1.887392608830355201 ) ) ;
#128 = VERTEX_POINT ( 'NONE', #459 ) ;
#129 = CARTESIAN_POINT ( 'NONE',  ( 0.000000000000000000, 0.000000000000000000, -2.200000000000000178 ) ) ;
#130 = CLOSED_SHELL ( 'NONE', ( #225, #49, #369, #441, #40, #296, #690, #109, #461, #17, #285, #167, #581, #665, #471, #569, #491, #452, #695, #675, #349, #145, #656, #620 ) ) ;
#131 = FACE_OUTER_BOUND ( 'NONE', #340, .T. ) ;
#132 = VECTOR ( 'NONE', #453, 1000.000000000000000 ) ;
#133 = ORIENTED_EDGE ( 'NONE', *, *, #557, .F. ) ;
#134 = EDGE_CURVE ( 'NONE', #619, #427, #98, .T. ) ;
#135 = DIRECTION ( 'NONE',  ( 0.000000000000000000, -0.000000000000000000, 1.000000000000000000 ) ) ;
#136 = DIRECTION ( 'NONE',  ( 0.000000000000000000, -0.000000000000000000, 1.000000000000000000 ) ) ;
#137 = ORIENTED_EDGE ( 'NONE', *, *, #112, .T. ) ;
#138 = CARTESIAN_POINT ( 'NONE',  ( -1.750000000000001776, 3.031088913245534755, 0.000000000000000000 ) ) ;
#139 = FACE_OUTER_BOUND ( 'NONE', #519, .T. ) ;
#140 = ORIENTED_EDGE ( 'NONE', *, *, #99, .F. ) ;
#141 = EDGE_CURVE ( 'NONE', #592, #311, #396, .T. ) ;
#142 = CYLINDRICAL_SURFACE ( 'NONE', #641, 1.650000000000000133 ) ;
#143 = ORIENTED_EDGE ( 'NONE', *, *, #212, .T. ) ;
#144 = PLANE ( 'NONE',  #240 ) ;
#145 = ADVANCED_FACE ( 'NONE', ( #139, #403 ), #312, .F. ) ;
#146 = LINE ( 'NONE', #522, #181 ) ;
#147 = B_SPLINE_CURVE_WITH_KNOTS ( 'NONE', 3,
 ( #270, #168, #226, #376 ),
 .UNSPECIFIED., .F., .F.,
 ( 4, 4 ),
 ( 2.380739282180833975E-07, 0.002044882221487526273 ),
 .UNSPECIFIED. ) ;
#148 = ORIENTED_EDGE ( 'NONE', *, *, #703, .F. ) ;
#149 = DIRECTION ( 'NONE',  ( 0.000000000000000000, 0.000000000000000000, 1.000000000000000000 ) ) ;
#150 = LINE ( 'NONE', #96, #455 ) ;
#151 = CARTESIAN_POINT ( 'NONE',  ( 3.500000000000000444, 0.000000000000000000, -2.200000000000000178 ) ) ;
#152 = AXIS2_PLACEMENT_3D ( 'NONE', #508, #135, #504 ) ;
#153 = EDGE_CURVE ( 'NONE', #91, #397, #245, .T. ) ;
#154 =( NAMED_UNIT ( * ) PLANE_ANGLE_UNIT ( ) SI_UNIT ( $, .RADIAN. ) );
#155 = CARTESIAN_POINT ( 'NONE',  ( 3.500000000000000000, 2.020725942163692501, -0.3126073911696449770 ) ) ;
#156 = B_SPLINE_CURVE_WITH_KNOTS ( 'NONE', 3,
 ( #188, #25, #30, #196, #456, #678 ),
 .UNSPECIFIED., .F., .F.,
 ( 4, 2, 4 ),
 ( 0.002044882221487526273, 0.003063384235218491979, 0.004081886248949458118 ),
 .UNSPECIFIED. ) ;
#157 = ORIENTED_EDGE ( 'NONE', *, *, #503, .T. ) ;
#158 = CIRCLE ( 'NONE', #640, 3.500000000000000444 ) ;
#159 = EDGE_CURVE ( 'NONE', #561, #311, #248, .T. ) ;
#160 = CARTESIAN_POINT ( 'NONE',  ( 3.499999999999999556, -2.020725942163694722, -0.3126073911696449770 ) ) ;
#161 = ORIENTED_EDGE ( 'NONE', *, *, #444, .F. ) ;
#162 = DIRECTION ( 'NONE',  ( -1.000000000000000000, 0.000000000000000000, 0.000000000000000000 ) ) ;
#163 = VERTEX_POINT ( 'NONE', #237 ) ;
#164 = CONICAL_SURFACE ( 'NONE', #264, 3.500000000000000444, 1.047197551196596077 ) ;
#165 = B_SPLINE_CURVE_WITH_KNOTS ( 'NONE', 3,
 ( #570, #682, #670, #244, #77, #35 ),
 .UNSPECIFIED., .F., .F.,
 ( 4, 2, 4 ),
 ( 0.005649496001316447330, 0.006672230966438296926, 0.007694965931560146521 ),
 .UNSPECIFIED. ) ;
#166 = LINE ( 'NONE', #654, #202 ) ;
#167 = ADVANCED_FACE ( 'NONE', ( #625 ), #524, .T. ) ;
#168 = CARTESIAN_POINT ( 'NONE',  ( 2.927447417349534842, -2.351289329882154888, -0.1217565302851122827 ) ) ;
#169 = UNCERTAINTY_MEASURE_WITH_UNIT (LENGTH_MEASURE( 1.000000000000000082E-05 ), #261, 'distance_accuracy_value', 'NONE');
#170 = AXIS2_PLACEMENT_3D ( 'NONE', #227, #438, #321 ) ;
#171 = CARTESIAN_POINT ( 'NONE',  ( 1.084202172485504434E-15, 4.041451884327381450, -1.887392608830355201 ) ) ;
#172 = CARTESIAN_POINT ( 'NONE',  ( -2.927447417349535286, 2.351289329882150891, -2.078243469714889713 ) ) ;
#173 = CARTESIAN_POINT ( 'NONE',  ( -3.500000000000000000, 2.020725942163692501, -1.887392608830355201 ) ) ;
#174 = CARTESIAN_POINT ( 'NONE',  ( -3.500000000000000000, -2.020725942163692501, -0.3126073911696449770 ) ) ;
#175 = EDGE_CURVE ( 'NONE', #619, #561, #333, .T. ) ;
#176 = AXIS2_PLACEMENT_3D ( 'NONE', #280, #487, #62 ) ;
#177 = CARTESIAN_POINT ( 'NONE',  ( -3.214438021527933120, -2.185595227304863108, -1.982579934988243364 ) ) ;
#178 = CARTESIAN_POINT ( 'NONE',  ( -2.346298152288371242, 2.686816014504567196, -2.200000000000002398 ) ) ;
#179 = ORIENTED_EDGE ( 'NONE', *, *, #308, .T. ) ;
#180 = FACE_OUTER_BOUND ( 'NONE', #323, .T. ) ;
#181 = VECTOR ( 'NONE', #214, 1000.000000000000000 ) ;
#182 = FACE_OUTER_BOUND ( 'NONE', #307, .T. ) ;
#183 = EDGE_LOOP ( 'NONE', ( #458 ) ) ;
#184 = B_SPLINE_CURVE_WITH_KNOTS ( 'NONE', 3,
 ( #48, #46, #410, #573, #304, #584 ),
 .UNSPECIFIED., .F., .F.,
 ( 4, 2, 4 ),
 ( 0.002044882221487531477, 0.003063384235218493713, 0.004081886248949455516 ),
 .UNSPECIFIED. ) ;
#185 = DIRECTION ( 'NONE',  ( -0.000000000000000000, -0.000000000000000000, 1.000000000000000000 ) ) ;
#186 = LINE ( 'NONE', #241, #33 ) ;
#187 = ORIENTED_EDGE ( 'NONE', *, *, #99, .T. ) ;
#188 = CARTESIAN_POINT ( 'NONE',  ( -1.750000000000001776, 3.031088913245534755, 0.000000000000000000 ) ) ;
#189 = EDGE_CURVE ( 'NONE', #91, #546, #165, .T. ) ;
#190 = DIRECTION ( 'NONE',  ( -0.000000000000000000, 0.000000000000000000, -1.000000000000000000 ) ) ;
#191 = ORIENTED_EDGE ( 'NONE', *, *, #542, .F. ) ;
#192 = CARTESIAN_POINT ( 'NONE',  ( 1.750000000000002442, 3.031088913245534311, 0.000000000000000000 ) ) ;
#193 = DIRECTION ( 'NONE',  ( 0.000000000000000000, 0.000000000000000000, 1.000000000000000000 ) ) ;
#194 = AXIS2_PLACEMENT_3D ( 'NONE', #446, #27, #667 ) ;
#195 = ORIENTED_EDGE ( 'NONE', *, *, #90, .T. ) ;
#196 = CARTESIAN_POINT ( 'NONE',  ( -0.5735064479039784224, 3.710337782248032568, -0.1388410611046097531 ) ) ;
#197 = CARTESIAN_POINT ( 'NONE',  ( 3.499999999999999112, -0.6807265984995628516, -0.02935130719646760269 ) ) ;
#198 = EDGE_LOOP ( 'NONE', ( #356 ) ) ;
#199 = EDGE_CURVE ( 'NONE', #358, #619, #119, .T. ) ;
#200 = VERTEX_POINT ( 'NONE', #639 ) ;
#201 = DIRECTION ( 'NONE',  ( -1.000000000000000000, 0.000000000000000000, 0.000000000000000000 ) ) ;
#202 = VECTOR ( 'NONE', #105, 1000.000000000000000 ) ;
#203 = EDGE_LOOP ( 'NONE', ( #686, #404, #472 ) ) ;
#204 = CARTESIAN_POINT ( 'NONE',  ( -3.500000000000000000, 2.020725942163689393, -2.200000000000000178 ) ) ;
#205 = DIRECTION ( 'NONE',  ( -1.000000000000000000, 0.000000000000000000, 0.000000000000000000 ) ) ;
#206 = ORIENTED_EDGE ( 'NONE', *, *, #153, .F. ) ;
#207 = DIRECTION ( 'NONE',  ( -1.000000000000000000, 0.000000000000000000, 0.000000000000000000 ) ) ;
#208 = DIRECTION ( 'NONE',  ( 0.8660254037844382635, -0.5000000000000005551, 0.000000000000000000 ) ) ;
#209 = ORIENTED_EDGE ( 'NONE', *, *, #409, .F. ) ;
#210 = B_SPLINE_CURVE_WITH_KNOTS ( 'NONE', 3,
 ( #402, #388, #336, #669 ),
 .UNSPECIFIED., .F., .F.,
 ( 4, 4 ),
 ( 2.380739282244032692E-07, 0.002044882221487533212 ),
 .UNSPECIFIED. ) ;
#211 = CARTESIAN_POINT ( 'NONE',  ( 3.500000000000000000, 2.020725942163688504, -2.200000000000000178 ) ) ;
#212 = EDGE_CURVE ( 'NONE', #74, #626, #257, .T. ) ;
#213 = EDGE_LOOP ( 'NONE', ( #215 ) ) ;
#214 = DIRECTION ( 'NONE',  ( 0.000000000000000000, 0.000000000000000000, 1.000000000000000000 ) ) ;
#215 = ORIENTED_EDGE ( 'NONE', *, *, #633, .F. ) ;
#216 = AXIS2_PLACEMENT_3D ( 'NONE', #81, #31, #201 ) ;
#217 = CARTESIAN_POINT ( 'NONE',  ( -3.500000000000000444, -1.355464348821699749, -2.061841578728556001 ) ) ;
#218 = ORIENTED_EDGE ( 'NONE', *, *, #360, .T. ) ;
#219 = EDGE_CURVE ( 'NONE', #626, #561, #301, .T. ) ;
#220 = DIRECTION ( 'NONE',  ( 0.000000000000000000, 0.000000000000000000, 1.000000000000000000 ) ) ;
#221 = CARTESIAN_POINT ( 'NONE',  ( -6.938893903907228378E-15, -4.041451884327381450, -0.3126073911696449770 ) ) ;
#222 = CARTESIAN_POINT ( 'NONE',  ( -3.500000000000000000, 2.020725942163689393, -2.200000000000000178 ) ) ;
#223 = DIRECTION ( 'NONE',  ( 1.000000000000000000, 0.000000000000000000, 0.000000000000000000 ) ) ;
#224 = CARTESIAN_POINT ( 'NONE',  ( 3.499999999999999556, -0.6807265984995625185, -2.170648692803532231 ) ) ;
#225 = ADVANCED_FACE ( 'NONE', ( #131, #555 ), #142, .F. ) ;
#226 = CARTESIAN_POINT ( 'NONE',  ( 2.346298152288372130, -2.686816014504571193, 2.235438189353244127E-16 ) ) ;
#227 = CARTESIAN_POINT ( 'NONE',  ( 0.000000000000000000, 0.000000000000000000, 0.000000000000000000 ) ) ;
#228 = PLANE ( 'NONE',  #545 ) ;
#229 = CONICAL_SURFACE ( 'NONE', #394, 3.500000000000000444, 1.047197551196596077 ) ;
#230 = CARTESIAN_POINT ( 'NONE',  ( 3.500000000000000000, -1.692071238847142389, -1.982267049545493709 ) ) ;
#231 = CARTESIAN_POINT ( 'NONE',  ( -3.214438021527933564, -2.185595227304863108, -0.2174200650117568967 ) ) ;
#232 = ORIENTED_EDGE ( 'NONE', *, *, #79, .T. ) ;
#233 = CARTESIAN_POINT ( 'NONE',  ( 0.5735064479039765351, -3.710337782248037897, -0.1388410611046121956 ) ) ;
#234 = DIRECTION ( 'NONE',  ( 1.000000000000000000, 0.000000000000000000, 0.000000000000000000 ) ) ;
#235 = EDGE_CURVE ( 'NONE', #163, #74, #594, .T. ) ;
#236 = CARTESIAN_POINT ( 'NONE',  ( 1.750000000000000888, -3.031088913245535643, -2.200000000000000178 ) ) ;
#237 = CARTESIAN_POINT ( 'NONE',  ( -1.750000000000001998, -3.031088913245534755, 0.000000000000000000 ) ) ;
#238 = ORIENTED_EDGE ( 'NONE', *, *, #591, .T. ) ;
#239 = FACE_OUTER_BOUND ( 'NONE', #529, .T. ) ;
#240 = AXIS2_PLACEMENT_3D ( 'NONE', #204, #316, #149 ) ;
#241 = CARTESIAN_POINT ( 'NONE',  ( 1.327711891679931055E-16, 4.041451884327381450, -2.200000000000000178 ) ) ;
#242 = ORIENTED_EDGE ( 'NONE', *, *, #175, .T. ) ;
#243 = CARTESIAN_POINT ( 'NONE',  ( 3.500000000000000444, 0.000000000000000000, 0.000000000000000000 ) ) ;
#244 = CARTESIAN_POINT ( 'NONE',  ( -3.499999999999999556, 1.362959798491815366, -2.060265505016216636 ) ) ;
#245 = CIRCLE ( 'NONE', #558, 3.500000000000000000 ) ;
#246 = EDGE_CURVE ( 'NONE', #256, #36, #186, .T. ) ;
#247 = ORIENTED_EDGE ( 'NONE', *, *, #633, .T. ) ;
#248 = B_SPLINE_CURVE_WITH_KNOTS ( 'NONE', 3,
 ( #622, #392, #505, #351, #355, #20 ),
 .UNSPECIFIED., .F., .F.,
 ( 4, 2, 4 ),
 ( 0.002044882221487531477, 0.003063384235218493713, 0.004081886248949455516 ),
 .UNSPECIFIED. ) ;
#249 = FACE_OUTER_BOUND ( 'NONE', #319, .T. ) ;
#250 = CARTESIAN_POINT ( 'NONE',  ( 3.500000000000000888, -0.3414694520252315457, 2.490276864927643490E-16 ) ) ;
#251 = ORIENTED_EDGE ( 'NONE', *, *, #338, .F. ) ;
#252 =( NAMED_UNIT ( * ) PLANE_ANGLE_UNIT ( ) SI_UNIT ( $, .RADIAN. ) );
#253 = DIRECTION ( 'NONE',  ( 0.000000000000000000, 0.000000000000000000, 1.000000000000000000 ) ) ;
#254 = ORIENTED_EDGE ( 'NONE', *, *, #380, .F. ) ;
#255 = CARTESIAN_POINT ( 'NONE',  ( 3.500000000000000444, 0.000000000000000000, 0.000000000000000000 ) ) ;
#256 = VERTEX_POINT ( 'NONE', #127 ) ;
#257 = CIRCLE ( 'NONE', #10, 3.500000000000000000 ) ;
#258 = EDGE_CURVE ( 'NONE', #200, #200, #268, .T. ) ;
#259 = CARTESIAN_POINT ( 'NONE',  ( 1.153701847711630979, 3.375361811986502314, 2.267158929290594092E-15 ) ) ;
#260 = VERTEX_POINT ( 'NONE', #426 ) ;
#261 =( LENGTH_UNIT ( ) NAMED_UNIT ( * ) SI_UNIT ( .MILLI., .METRE. ) );
#262 = CARTESIAN_POINT ( 'NONE',  ( -3.499999999999999556, 1.362959798491812924, -0.1397344949837832917 ) ) ;
#263 = ORIENTED_EDGE ( 'NONE', *, *, #360, .F. ) ;
#264 = AXIS2_PLACEMENT_3D ( 'NONE', #399, #614, #391 ) ;
#265 = CARTESIAN_POINT ( 'NONE',  ( 1.750000000000002442, 3.031088913245534311, -2.200000000000000178 ) ) ;
#266 = EDGE_LOOP ( 'NONE', ( #157 ) ) ;
#267 = EDGE_CURVE ( 'NONE', #515, #447, #150, .T. ) ;
#268 = CIRCLE ( 'NONE', #425, 1.650000000000000133 ) ;
#269 = CARTESIAN_POINT ( 'NONE',  ( -3.500000000000000000, 2.020725942163689393, -0.3126073911696439778 ) ) ;
#270 = CARTESIAN_POINT ( 'NONE',  ( 3.499999999999999556, -2.020725942163694722, -0.3126073911696449770 ) ) ;
#271 = CARTESIAN_POINT ( 'NONE',  ( 1.750000000000000888, -3.031088913245535643, -2.200000000000000178 ) ) ;
#272 = CARTESIAN_POINT ( 'NONE',  ( 1.750000000000000888, -3.031088913245535643, -2.200000000000000178 ) ) ;
#273 = DIRECTION ( 'NONE',  ( -1.000000000000000000, 0.000000000000000000, 0.000000000000000000 ) ) ;
#274 = CARTESIAN_POINT ( 'NONE',  ( -8.673617379884035472E-16, 4.041451884327381450, 0.000000000000000000 ) ) ;
#275 = AXIS2_PLACEMENT_3D ( 'NONE', #484, #607, #544 ) ;
#276 = AXIS2_PLACEMENT_3D ( 'NONE', #611, #509, #513 ) ;
#277 = CARTESIAN_POINT ( 'NONE',  ( -1.452965002680429718, 3.202582148906728765, -2.200000000000001510 ) ) ;
#278 = DIRECTION ( 'NONE',  ( -0.000000000000000000, -0.000000000000000000, 1.000000000000000000 ) ) ;
#279 = ORIENTED_EDGE ( 'NONE', *, *, #141, .F. ) ;
#280 = CARTESIAN_POINT ( 'NONE',  ( 0.000000000000000000, 0.000000000000000000, -2.200000000000000622 ) ) ;
#281 = CARTESIAN_POINT ( 'NONE',  ( -2.503857664561933855E-16, -4.041451884327385002, -2.200000000000000178 ) ) ;
#282 = AXIS2_PLACEMENT_3D ( 'NONE', #596, #327, #162 ) ;
#283 = CARTESIAN_POINT ( 'NONE',  ( 3.500000000000000000, 2.020725942163692501, -1.887392608830355201 ) ) ;
#284 = DIRECTION ( 'NONE',  ( -1.000000000000000000, 0.000000000000000000, 0.000000000000000000 ) ) ;
#285 = ADVANCED_FACE ( 'NONE', ( #692 ), #489, .T. ) ;
#286 = CONICAL_SURFACE ( 'NONE', #324, 3.500000000000000444, 1.047197551196596077 ) ;
#287 = AXIS2_PLACEMENT_3D ( 'NONE', #428, #381, #118 ) ;
#288 = DIRECTION ( 'NONE',  ( 0.000000000000000000, 0.000000000000000000, -1.000000000000000000 ) ) ;
#289 = CARTESIAN_POINT ( 'NONE',  ( 0.000000000000000000, 0.000000000000000000, -2.200000000000000178 ) ) ;
#290 = ORIENTED_EDGE ( 'NONE', *, *, #79, .F. ) ;
#291 = CARTESIAN_POINT ( 'NONE',  ( 0.000000000000000000, 0.000000000000000000, -2.174599999999998978 ) ) ;
#292 = CARTESIAN_POINT ( 'NONE',  ( 3.499999999999999556, -1.692071238847142389, -0.2177329504545063299 ) ) ;
#293 = ORIENTED_EDGE ( 'NONE', *, *, #433, .F. ) ;
#294 = CARTESIAN_POINT ( 'NONE',  ( -1.750000000000001998, -3.031088913245534755, 0.000000000000000000 ) ) ;
#295 = AXIS2_PLACEMENT_3D ( 'NONE', #609, #75, #549 ) ;
#296 = ADVANCED_FACE ( 'NONE', ( #701 ), #1, .T. ) ;
#297 = CARTESIAN_POINT ( 'NONE',  ( 0.000000000000000000, 0.000000000000000000, -0.2695799022107391307 ) ) ;
#298 = ORIENTED_EDGE ( 'NONE', *, *, #387, .T. ) ;
#299 = CARTESIAN_POINT ( 'NONE',  ( 1.750000000000000888, -3.031088913245535643, 0.000000000000000000 ) ) ;
#300 = DIRECTION ( 'NONE',  ( 1.000000000000000000, 0.000000000000000000, 0.000000000000000000 ) ) ;
#301 = CIRCLE ( 'NONE', #120, 3.500000000000000000 ) ;
#302 = ORIENTED_EDGE ( 'NONE', *, *, #536, .F. ) ;
#303 =( NAMED_UNIT ( * ) SI_UNIT ( $, .STERADIAN. ) SOLID_ANGLE_UNIT ( ) );
#304 = CARTESIAN_POINT ( 'NONE',  ( 3.214438021527930900, 2.185595227304859556, -1.982579934988244696 ) ) ;
#305 = EDGE_LOOP ( 'NONE', ( #556, #195, #298, #643, #450, #672 ) ) ;
#306 = DIRECTION ( 'NONE',  ( 0.000000000000000000, 0.000000000000000000, -1.000000000000000000 ) ) ;
#307 = EDGE_LOOP ( 'NONE', ( #385, #577, #238, #424, #496, #493 ) ) ;
#308 = EDGE_CURVE ( 'NONE', #515, #91, #337, .T. ) ;
#309 = CARTESIAN_POINT ( 'NONE',  ( 0.000000000000000000, 0.000000000000000000, 0.000000000000000000 ) ) ;
#310 = CARTESIAN_POINT ( 'NONE',  ( -3.500000000000000000, -1.692071238847139503, -1.982267049545494153 ) ) ;
#311 = VERTEX_POINT ( 'NONE', #359 ) ;
#312 = CONICAL_SURFACE ( 'NONE', #604, 1.614999999999999769, 0.9599310885968802554 ) ;
#313 = B_SPLINE_CURVE_WITH_KNOTS ( 'NONE', 3,
 ( #269, #479, #3, #661 ),
 .UNSPECIFIED., .F., .F.,
 ( 4, 4 ),
 ( 2.380739282167226920E-07, 0.002044882221487526273 ),
 .UNSPECIFIED. ) ;
#314 = CARTESIAN_POINT ( 'NONE',  ( 0.5725525826504662685, 3.710888496608919507, -0.1217565302851111725 ) ) ;
#315 = EDGE_LOOP ( 'NONE', ( #608, #179, #523 ) ) ;
#316 = DIRECTION ( 'NONE',  ( -1.000000000000000000, 0.000000000000000000, 0.000000000000000000 ) ) ;
#317 = CARTESIAN_POINT ( 'NONE',  ( -1.750000000000001998, -3.031088913245534755, -2.200000000000000178 ) ) ;
#318 = EDGE_CURVE ( 'NONE', #260, #592, #184, .T. ) ;
#319 = EDGE_LOOP ( 'NONE', ( #187 ) ) ;
#320 = AXIS2_PLACEMENT_3D ( 'NONE', #681, #578, #582 ) ;
#321 = DIRECTION ( 'NONE',  ( -1.000000000000000000, 0.000000000000000000, 0.000000000000000000 ) ) ;
#322 = B_SPLINE_CURVE_WITH_KNOTS ( 'NONE', 3,
 ( #439, #335, #548, #68, #231, #443 ),
 .UNSPECIFIED., .F., .F.,
 ( 4, 2, 4 ),
 ( 0.002044882221487532778, 0.003063384235218495448, 0.004081886248949458118 ),
 .UNSPECIFIED. ) ;
#323 = EDGE_LOOP ( 'NONE', ( #501, #668, #101 ) ) ;
#324 = AXIS2_PLACEMENT_3D ( 'NONE', #339, #278, #223 ) ;
#325 = DIRECTION ( 'NONE',  ( 0.000000000000000000, 0.000000000000000000, -1.000000000000000000 ) ) ;
#326 = DIRECTION ( 'NONE',  ( 0.000000000000000000, 0.000000000000000000, -1.000000000000000000 ) ) ;
#327 = DIRECTION ( 'NONE',  ( 0.000000000000000000, 0.000000000000000000, -1.000000000000000000 ) ) ;
#328 = PLANE ( 'NONE',  #627 ) ;
#329 = CIRCLE ( 'NONE', #82, 2.000000000000000000 ) ;
#330 = EDGE_CURVE ( 'NONE', #256, #260, #21, .T. ) ;
#331 = CARTESIAN_POINT ( 'NONE',  ( -0.5735064479039784224, 3.710337782248032568, -2.061158938895389259 ) ) ;
#332 = PLANE ( 'NONE',  #275 ) ;
#333 = CIRCLE ( 'NONE', #276, 3.500000000000000444 ) ;
#334 = FACE_OUTER_BOUND ( 'NONE', #315, .T. ) ;
#335 = CARTESIAN_POINT ( 'NONE',  ( -2.047034997319574501, -2.859595677584342077, 5.221958119822759618E-16 ) ) ;
#336 = CARTESIAN_POINT ( 'NONE',  ( -1.153701847711634532, -3.375361811986504534, -2.200000000000000622 ) ) ;
#337 = B_SPLINE_CURVE_WITH_KNOTS ( 'NONE', 3,
 ( #518, #310, #217, #371, #357, #89 ),
 .UNSPECIFIED., .F., .F.,
 ( 4, 2, 4 ),
 ( 0.003605240635278487808, 0.004627368318297468003, 0.005649496001316447330 ),
 .UNSPECIFIED. ) ;
#338 = EDGE_CURVE ( 'NONE', #36, #561, #486, .T. ) ;
#339 = CARTESIAN_POINT ( 'NONE',  ( 0.000000000000000000, 0.000000000000000000, -2.200000000000000178 ) ) ;
#340 = EDGE_LOOP ( 'NONE', ( #148 ) ) ;
#341 = AXIS2_PLACEMENT_3D ( 'NONE', #71, #288, #499 ) ;
#342 = CARTESIAN_POINT ( 'NONE',  ( -6.938893903907228378E-15, -4.041451884327381450, -1.887392608830355201 ) ) ;
#343 = DIRECTION ( 'NONE',  ( -0.000000000000000000, -0.000000000000000000, 1.000000000000000000 ) ) ;
#344 = EDGE_LOOP ( 'NONE', ( #232, #97, #680 ) ) ;
#345 = CONICAL_SURFACE ( 'NONE', #43, 3.500000000000000444, 1.047197551196596077 ) ;
#346 = CARTESIAN_POINT ( 'NONE',  ( 1.452965002680430162, -3.202582148906732762, 2.858736196983262658E-16 ) ) ;
#347 = CARTESIAN_POINT ( 'NONE',  ( -1.750000000000001776, 3.031088913245534755, -2.200000000000000178 ) ) ;
#348 = ORIENTED_EDGE ( 'NONE', *, *, #159, .F. ) ;
#349 = ADVANCED_FACE ( 'NONE', ( #37 ), #87, .T. ) ;
#350 = DIRECTION ( 'NONE',  ( 0.000000000000000000, -0.000000000000000000, 1.000000000000000000 ) ) ;
#351 = CARTESIAN_POINT ( 'NONE',  ( 2.926493552096021578, 2.351840044243036054, -0.1388410611046087262 ) ) ;
#352 = EDGE_LOOP ( 'NONE', ( #53, #122, #50 ) ) ;
#353 = DIRECTION ( 'NONE',  ( -0.000000000000000000, -0.000000000000000000, 1.000000000000000000 ) ) ;
#354 = PRESENTATION_LAYER_ASSIGNMENT (  '', '', ( #28 ) ) ;
#355 = CARTESIAN_POINT ( 'NONE',  ( 3.214438021527930900, 2.185595227304859556, -0.2174200650117552314 ) ) ;
#356 = ORIENTED_EDGE ( 'NONE', *, *, #703, .T. ) ;
#357 = CARTESIAN_POINT ( 'NONE',  ( -3.500000000000000000, -0.3414694520252308241, -2.200000000000000622 ) ) ;
#358 = VERTEX_POINT ( 'NONE', #160 ) ;
#359 = CARTESIAN_POINT ( 'NONE',  ( 3.500000000000000000, 2.020725942163692501, -0.3126073911696449770 ) ) ;
#360 = EDGE_CURVE ( 'NONE', #128, #358, #146, .T. ) ;
#361 = ORIENTED_EDGE ( 'NONE', *, *, #175, .F. ) ;
#362 = CONICAL_SURFACE ( 'NONE', #282, 3.500000000000000444, 1.047197551196596077 ) ;
#363 = CARTESIAN_POINT ( 'NONE',  ( -3.500000000000000000, 2.020725942163689393, -0.3126073911696439778 ) ) ;
#364 = EDGE_LOOP ( 'NONE', ( #218, #535, #47, #302, #290, #412 ) ) ;
#365 = SURFACE_SIDE_STYLE ('',( #531 ) ) ;
#366 = CARTESIAN_POINT ( 'NONE',  ( -3.500000000000000444, 0.000000000000000000, 0.000000000000000000 ) ) ;
#367 = ORIENTED_EDGE ( 'NONE', *, *, #9, .T. ) ;
#368 = UNCERTAINTY_MEASURE_WITH_UNIT (LENGTH_MEASURE( 1.000000000000000082E-05 ), #624, 'distance_accuracy_value', 'NONE');
#369 = ADVANCED_FACE ( 'NONE', ( #467 ), #576, .T. ) ;
#370 = CARTESIAN_POINT ( 'NONE',  ( 2.000000000000000000, 0.000000000000000000, -2.174599999999998978 ) ) ;
#371 = CARTESIAN_POINT ( 'NONE',  ( -3.499999999999999556, -0.6807265984995610753, -2.170648692803532676 ) ) ;
#372 = ORIENTED_EDGE ( 'NONE', *, *, #159, .T. ) ;
#373 = CARTESIAN_POINT ( 'NONE',  ( 3.500000000000000000, -0.3414694520252310461, -2.200000000000001066 ) ) ;
#374 = VERTEX_POINT ( 'NONE', #363 ) ;
#375 = CARTESIAN_POINT ( 'NONE',  ( -3.500000000000000000, -2.020725942163692501, -0.3126073911696449770 ) ) ;
#376 = CARTESIAN_POINT ( 'NONE',  ( 1.750000000000000888, -3.031088913245535643, 0.000000000000000000 ) ) ;
#377 = VECTOR ( 'NONE', #220, 1000.000000000000000 ) ;
#378 = LINE ( 'NONE', #222, #377 ) ;
#379 = FACE_OUTER_BOUND ( 'NONE', #697, .T. ) ;
#380 = EDGE_CURVE ( 'NONE', #619, #311, #632, .T. ) ;
#381 = DIRECTION ( 'NONE',  ( -1.000000000000000000, 0.000000000000000000, 0.000000000000000000 ) ) ;
#382 = CARTESIAN_POINT ( 'NONE',  ( 3.500000000000000444, 0.6879904500768333486, -2.169836757075880307 ) ) ;
#383 = CARTESIAN_POINT ( 'NONE',  ( -2.343682934607766111, -2.688325911136458579, -2.170065989602862455 ) ) ;
#384 = CARTESIAN_POINT ( 'NONE',  ( -3.500000000000000000, -1.692071238847138392, -0.2177329504545055527 ) ) ;
#385 = ORIENTED_EDGE ( 'NONE', *, *, #421, .T. ) ;
#386 = CIRCLE ( 'NONE', #73, 2.000000000000000000 ) ;
#387 = EDGE_CURVE ( 'NONE', #74, #374, #19, .T. ) ;
#388 = CARTESIAN_POINT ( 'NONE',  ( -0.5725525826504704874, -3.710888496608920395, -2.078243469714887937 ) ) ;
#389 = CARTESIAN_POINT ( 'NONE',  ( 0.2855619784720656029, -3.876582599186216171, -1.982579934988240478 ) ) ;
#390 = ORIENTED_EDGE ( 'NONE', *, *, #644, .F. ) ;
#391 = DIRECTION ( 'NONE',  ( -1.000000000000000000, 0.000000000000000000, 0.000000000000000000 ) ) ;
#392 = CARTESIAN_POINT ( 'NONE',  ( 2.047034997319573169, 2.859595677584339413, 2.355598626314208454E-15 ) ) ;
#393 = ORIENTED_EDGE ( 'NONE', *, *, #591, .F. ) ;
#394 = AXIS2_PLACEMENT_3D ( 'NONE', #80, #617, #395 ) ;
#395 = DIRECTION ( 'NONE',  ( 1.000000000000000000, 0.000000000000000000, 0.000000000000000000 ) ) ;
#396 = LINE ( 'NONE', #618, #132 ) ;
#397 = VERTEX_POINT ( 'NONE', #317 ) ;
#398 = AXIS2_PLACEMENT_3D ( 'NONE', #211, #415, #41 ) ;
#399 = CARTESIAN_POINT ( 'NONE',  ( 0.000000000000000000, 0.000000000000000000, 0.000000000000000000 ) ) ;
#400 = CARTESIAN_POINT ( 'NONE',  ( 3.500000000000000444, -1.355464348821702192, -0.1381584212714455362 ) ) ;
#401 = ORIENTED_EDGE ( 'NONE', *, *, #563, .F. ) ;
#402 = CARTESIAN_POINT ( 'NONE',  ( -6.938893903907228378E-15, -4.041451884327381450, -1.887392608830355201 ) ) ;
#403 = FACE_BOUND ( 'NONE', #198, .T. ) ;
#404 = ORIENTED_EDGE ( 'NONE', *, *, #9, .F. ) ;
#405 = VERTEX_POINT ( 'NONE', #630 ) ;
#406 = CONICAL_SURFACE ( 'NONE', #341, 3.500000000000000444, 1.047197551196596077 ) ;
#407 = CARTESIAN_POINT ( 'NONE',  ( 3.500000000000000444, 0.000000000000000000, 0.000000000000000000 ) ) ;
#408 = ORIENTED_EDGE ( 'NONE', *, *, #557, .T. ) ;
#409 = EDGE_CURVE ( 'NONE', #260, #125, #572, .T. ) ;
#410 = CARTESIAN_POINT ( 'NONE',  ( 2.343682934607765223, 2.688325911136454582, -2.170065989602864676 ) ) ;
#411 = B_SPLINE_CURVE_WITH_KNOTS ( 'NONE', 3,
 ( #14, #230, #442, #224, #373, #435 ),
 .UNSPECIFIED., .F., .F.,
 ( 4, 2, 4 ),
 ( 0.003605240635278485206, 0.004627368318297467135, 0.005649496001316449065 ),
 .UNSPECIFIED. ) ;
#412 = ORIENTED_EDGE ( 'NONE', *, *, #414, .F. ) ;
#413 = VERTEX_POINT ( 'NONE', #370 ) ;
#414 = EDGE_CURVE ( 'NONE', #128, #676, #700, .T. ) ;
#415 = DIRECTION ( 'NONE',  ( 0.5000000000000006661, 0.8660254037844382635, -0.000000000000000000 ) ) ;
#416 = EDGE_LOOP ( 'NONE', ( #589, #683, #42 ) ) ;
#417 = AXIS2_PLACEMENT_3D ( 'NONE', #102, #516, #95 ) ;
#418 = CARTESIAN_POINT ( 'NONE',  ( 3.500000000000000000, 0.3416723310689521731, 2.325105440213053445E-16 ) ) ;
#419 = ORIENTED_EDGE ( 'NONE', *, *, #258, .F. ) ;
#420 = B_SPLINE_CURVE_WITH_KNOTS ( 'NONE', 3,
 ( #8, #490, #383, #657, #177, #6 ),
 .UNSPECIFIED., .F., .F.,
 ( 4, 2, 4 ),
 ( 0.002044882221487533212, 0.003063384235218495448, 0.004081886248949457251 ),
 .UNSPECIFIED. ) ;
#421 = EDGE_CURVE ( 'NONE', #546, #374, #378, .T. ) ;
#422 =( NAMED_UNIT ( * ) SI_UNIT ( $, .STERADIAN. ) SOLID_ANGLE_UNIT ( ) );
#423 = CARTESIAN_POINT ( 'NONE',  ( 3.500000000000000444, 0.6879904500768331266, -0.03016324292411997482 ) ) ;
#424 = ORIENTED_EDGE ( 'NONE', *, *, #246, .F. ) ;
#425 = AXIS2_PLACEMENT_3D ( 'NONE', #674, #343, #72 ) ;
#426 = CARTESIAN_POINT ( 'NONE',  ( 1.750000000000002442, 3.031088913245534311, -2.200000000000000178 ) ) ;
#427 = VERTEX_POINT ( 'NONE', #539 ) ;
#428 = CARTESIAN_POINT ( 'NONE',  ( 3.500000000000000000, 2.020725942163688504, -2.200000000000000178 ) ) ;
#429 = B_SPLINE_CURVE_WITH_KNOTS ( 'NONE', 3,
 ( #151, #526, #382, #540, #662, #108 ),
 .UNSPECIFIED., .F., .F.,
 ( 4, 2, 4 ),
 ( 0.005649496001316449065, 0.006672230966438298660, 0.007694965931560148256 ),
 .UNSPECIFIED. ) ;
#430 = CARTESIAN_POINT ( 'NONE',  ( -3.499999999999999556, -0.6807265984995616304, -0.02935130719646757494 ) ) ;
#431 = PRODUCT_DEFINITION_CONTEXT ( 'detailed design', #38, 'design' ) ;
#432 = DIRECTION ( 'NONE',  ( 0.000000000000000000, 0.000000000000000000, -1.000000000000000000 ) ) ;
#433 = EDGE_CURVE ( 'NONE', #397, #515, #420, .T. ) ;
#434 = DIRECTION ( 'NONE',  ( 0.5000000000000003331, -0.8660254037844385966, 0.000000000000000000 ) ) ;
#435 = CARTESIAN_POINT ( 'NONE',  ( 3.500000000000000444, 0.000000000000000000, -2.200000000000000178 ) ) ;
#436 = CARTESIAN_POINT ( 'NONE',  ( 1.156317065392237220, -3.373851915354618480, -2.170065989602862455 ) ) ;
#437 = B_SPLINE_CURVE_WITH_KNOTS ( 'NONE', 3,
 ( #559, #673, #666, #294 ),
 .UNSPECIFIED., .F., .F.,
 ( 4, 4 ),
 ( 2.380739282244200775E-07, 0.002044882221487532778 ),
 .UNSPECIFIED. ) ;
#438 = DIRECTION ( 'NONE',  ( -0.000000000000000000, 0.000000000000000000, -1.000000000000000000 ) ) ;
#439 = CARTESIAN_POINT ( 'NONE',  ( -1.750000000000001998, -3.031088913245534755, 0.000000000000000000 ) ) ;
#440 = COLOUR_RGB ( '',0.7921568627450980005, 0.8196078431372548767, 0.9333333333333333481 ) ;
#441 = ADVANCED_FACE ( 'NONE', ( #107 ), #114, .F. ) ;
#442 = CARTESIAN_POINT ( 'NONE',  ( 3.500000000000000444, -1.355464348821702414, -2.061841578728556001 ) ) ;
#443 = CARTESIAN_POINT ( 'NONE',  ( -3.500000000000000000, -2.020725942163692501, -0.3126073911696449770 ) ) ;
#444 = EDGE_CURVE ( 'NONE', #427, #163, #466, .T. ) ;
#445 = DIRECTION ( 'NONE',  ( -1.000000000000000000, 0.000000000000000000, 0.000000000000000000 ) ) ;
#446 = CARTESIAN_POINT ( 'NONE',  ( 0.000000000000000000, 0.000000000000000000, 0.000000000000000000 ) ) ;
#447 = VERTEX_POINT ( 'NONE', #375 ) ;
#448 = FACE_OUTER_BOUND ( 'NONE', #305, .T. ) ;
#449 = CARTESIAN_POINT ( 'NONE',  ( 0.000000000000000000, 0.000000000000000000, 0.000000000000000000 ) ) ;
#450 = ORIENTED_EDGE ( 'NONE', *, *, #189, .F. ) ;
#451 = CARTESIAN_POINT ( 'NONE',  ( 0.000000000000000000, 0.000000000000000000, 0.000000000000000000 ) ) ;
#452 = ADVANCED_FACE ( 'NONE', ( #494 ), #345, .T. ) ;
#453 = DIRECTION ( 'NONE',  ( 0.000000000000000000, 0.000000000000000000, 1.000000000000000000 ) ) ;
#454 = ORIENTED_EDGE ( 'NONE', *, *, #199, .F. ) ;
#455 = VECTOR ( 'NONE', #253, 1000.000000000000000 ) ;
#456 = CARTESIAN_POINT ( 'NONE',  ( -0.2855619784720676013, 3.876582599186210842, -0.2174200650117564526 ) ) ;
#457 = CARTESIAN_POINT ( 'NONE',  ( 0.000000000000000000, 0.000000000000000000, 0.000000000000000000 ) ) ;
#458 = ORIENTED_EDGE ( 'NONE', *, *, #258, .T. ) ;
#459 = CARTESIAN_POINT ( 'NONE',  ( 3.499999999999999556, -2.020725942163696054, -1.887392608830355201 ) ) ;
#460 = EDGE_LOOP ( 'NONE', ( #2, #143, #191 ) ) ;
#461 = ADVANCED_FACE ( 'NONE', ( #537, #648 ), #60, .T. ) ;
#462 = SHAPE_DEFINITION_REPRESENTATION ( #562, #530 ) ;
#463 = CARTESIAN_POINT ( 'NONE',  ( 1.084202172485504434E-15, 4.041451884327381450, -0.3126073911696449770 ) ) ;
#464 = EDGE_LOOP ( 'NONE', ( #580, #251, #393 ) ) ;
#465 = FACE_OUTER_BOUND ( 'NONE', #541, .T. ) ;
#466 = CIRCLE ( 'NONE', #170, 3.500000000000000000 ) ;
#467 = FACE_OUTER_BOUND ( 'NONE', #638, .T. ) ;
#468 = ORIENTED_EDGE ( 'NONE', *, *, #67, .F. ) ;
#469 = PRODUCT_CONTEXT ( 'NONE', #517, 'mechanical' ) ;
#470 = CARTESIAN_POINT ( 'NONE',  ( -3.500000000000000000, -2.020725942163692501, -2.200000000000000178 ) ) ;
#471 = ADVANCED_FACE ( 'NONE', ( #334 ), #507, .T. ) ;
#472 = ORIENTED_EDGE ( 'NONE', *, *, #58, .T. ) ;
#473 = CIRCLE ( 'NONE', #600, 3.500000000000000000 ) ;
#474 = CARTESIAN_POINT ( 'NONE',  ( -3.500000000000000000, 1.693985822988426815, -0.2182856432891991383 ) ) ;
#475 = ORIENTED_EDGE ( 'NONE', *, *, #610, .F. ) ;
#476 = DIRECTION ( 'NONE',  ( -1.000000000000000000, -1.776356839400250465E-15, 0.000000000000000000 ) ) ;
#477 = ORIENTED_EDGE ( 'NONE', *, *, #598, .F. ) ;
#478 = AXIS2_PLACEMENT_3D ( 'NONE', #685, #306, #205 ) ;
#479 = CARTESIAN_POINT ( 'NONE',  ( -2.927447417349536174, 2.351289329882150447, -0.1217565302851107839 ) ) ;
#480 = CARTESIAN_POINT ( 'NONE',  ( -6.938893903907228378E-15, -4.041451884327381450, -1.887392608830355201 ) ) ;
#481 = EDGE_CURVE ( 'NONE', #125, #256, #502, .T. ) ;
#482 = DIRECTION ( 'NONE',  ( 1.000000000000000000, 0.000000000000000000, 0.000000000000000000 ) ) ;
#483 = AXIS2_PLACEMENT_3D ( 'NONE', #497, #185, #126 ) ;
#484 = CARTESIAN_POINT ( 'NONE',  ( 1.327711891679931055E-16, 4.041451884327381450, -2.200000000000000178 ) ) ;
#485 = ORIENTED_EDGE ( 'NONE', *, *, #212, .F. ) ;
#486 = B_SPLINE_CURVE_WITH_KNOTS ( 'NONE', 3,
 ( #463, #314, #259, #93 ),
 .UNSPECIFIED., .F., .F.,
 ( 4, 4 ),
 ( 2.380739282178991679E-07, 0.002044882221487531477 ),
 .UNSPECIFIED. ) ;
#487 = DIRECTION ( 'NONE',  ( 0.000000000000000000, -0.000000000000000000, 1.000000000000000000 ) ) ;
#488 = CARTESIAN_POINT ( 'NONE',  ( 0.000000000000000000, 0.000000000000000000, -2.200000000000000178 ) ) ;
#489 = CONICAL_SURFACE ( 'NONE', #688, 3.500000000000000444, 1.047197551196596077 ) ;
#490 = CARTESIAN_POINT ( 'NONE',  ( -2.047034997319574945, -2.859595677584343854, -2.200000000000000178 ) ) ;
#491 = ADVANCED_FACE ( 'NONE', ( #543 ), #362, .T. ) ;
#492 = CARTESIAN_POINT ( 'NONE',  ( -3.500000000000000000, -0.3414694520252307686, 2.481806535455099993E-16 ) ) ;
#493 = ORIENTED_EDGE ( 'NONE', *, *, #112, .F. ) ;
#494 = FACE_OUTER_BOUND ( 'NONE', #586, .T. ) ;
#495 = CARTESIAN_POINT ( 'NONE',  ( -3.500000000000000000, 0.000000000000000000, -2.200000000000000178 ) ) ;
#496 = ORIENTED_EDGE ( 'NONE', *, *, #481, .F. ) ;
#497 = CARTESIAN_POINT ( 'NONE',  ( 0.000000000000000000, 0.000000000000000000, -2.200000000000000178 ) ) ;
#498 = CARTESIAN_POINT ( 'NONE',  ( 3.499999999999999556, -2.020725942163694722, -0.3126073911696449770 ) ) ;
#499 = DIRECTION ( 'NONE',  ( -1.000000000000000000, 0.000000000000000000, 0.000000000000000000 ) ) ;
#500 = DIRECTION ( 'NONE',  ( 1.000000000000000000, 0.000000000000000000, 0.000000000000000000 ) ) ;
#501 = ORIENTED_EDGE ( 'NONE', *, *, #414, .T. ) ;
#502 = B_SPLINE_CURVE_WITH_KNOTS ( 'NONE', 3,
 ( #56, #277, #650, #331, #54, #171 ),
 .UNSPECIFIED., .F., .F.,
 ( 4, 2, 4 ),
 ( 0.002044882221487526273, 0.003063384235218491979, 0.004081886248949458118 ),
 .UNSPECIFIED. ) ;
#503 = EDGE_CURVE ( 'NONE', #88, #88, #5, .T. ) ;
#504 = DIRECTION ( 'NONE',  ( -1.000000000000000000, 1.776356839400250465E-15, 0.000000000000000000 ) ) ;
#505 = CARTESIAN_POINT ( 'NONE',  ( 2.343682934607765223, 2.688325911136454582, -0.02993401039713589409 ) ) ;
#506 = ORIENTED_EDGE ( 'NONE', *, *, #219, .F. ) ;
#507 = CONICAL_SURFACE ( 'NONE', #647, 3.500000000000000444, 1.047197551196596077 ) ;
#508 = CARTESIAN_POINT ( 'NONE',  ( 0.000000000000000000, 0.000000000000000000, -2.200000000000000178 ) ) ;
#509 = DIRECTION ( 'NONE',  ( -0.000000000000000000, -0.000000000000000000, 1.000000000000000000 ) ) ;
#510 = ORIENTED_EDGE ( 'NONE', *, *, #26, .T. ) ;
#511 = AXIS2_PLACEMENT_3D ( 'NONE', #470, #628, #208 ) ;
#512 = FACE_OUTER_BOUND ( 'NONE', #86, .T. ) ;
#513 = DIRECTION ( 'NONE',  ( 1.000000000000000000, 0.000000000000000000, 0.000000000000000000 ) ) ;
#514 = EDGE_CURVE ( 'NONE', #128, #106, #411, .T. ) ;
#515 = VERTEX_POINT ( 'NONE', #590 ) ;
#516 = DIRECTION ( 'NONE',  ( 0.000000000000000000, 0.000000000000000000, 1.000000000000000000 ) ) ;
#517 = APPLICATION_CONTEXT ( 'automotive_design' ) ;
#518 = CARTESIAN_POINT ( 'NONE',  ( -3.500000000000000000, -2.020725942163692501, -1.887392608830355201 ) ) ;
#519 = EDGE_LOOP ( 'NONE', ( #247 ) ) ;
#520 = CIRCLE ( 'NONE', #320, 1.650000000000000133 ) ;
#521 = APPLICATION_PROTOCOL_DEFINITION ( 'draft international standard', 'automotive_design', 1998, #517 ) ;
#522 = CARTESIAN_POINT ( 'NONE',  ( 3.500000000000000000, -2.020725942163693389, -2.200000000000000178 ) ) ;
#523 = ORIENTED_EDGE ( 'NONE', *, *, #153, .T. ) ;
#524 = CONICAL_SURFACE ( 'NONE', #63, 3.500000000000000444, 1.047197551196596077 ) ;
#525 = CARTESIAN_POINT ( 'NONE',  ( 1.084202172485504434E-15, 4.041451884327381450, -1.887392608830355201 ) ) ;
#526 = CARTESIAN_POINT ( 'NONE',  ( 3.500000000000000000, 0.3416723310689523951, -2.200000000000000622 ) ) ;
#527 = CARTESIAN_POINT ( 'NONE',  ( -2.000000000000000000, 0.000000000000000000, -2.200000000000000622 ) ) ;
#528 = CARTESIAN_POINT ( 'NONE',  ( -3.500000000000000444, 0.6879904500768325715, -0.03016324292412007196 ) ) ;
#529 = EDGE_LOOP ( 'NONE', ( #660 ) ) ;
#530 = ADVANCED_BREP_SHAPE_REPRESENTATION ( 'ISO - 4035 - M4 - N_ISO - 4035 - M4 - N', ( #691, #417 ), #551 ) ;
#531 = SURFACE_STYLE_FILL_AREA ( #699 ) ;
#532 = CARTESIAN_POINT ( 'NONE',  ( 0.000000000000000000, 0.000000000000000000, -2.200000000000000178 ) ) ;
#533 = ORIENTED_EDGE ( 'NONE', *, *, #199, .T. ) ;
#534 = DIRECTION ( 'NONE',  ( -1.000000000000000000, 0.000000000000000000, 0.000000000000000000 ) ) ;
#535 = ORIENTED_EDGE ( 'NONE', *, *, #67, .T. ) ;
#536 = EDGE_CURVE ( 'NONE', #629, #65, #166, .T. ) ;
#537 = FACE_BOUND ( 'NONE', #266, .T. ) ;
#538 = DIRECTION ( 'NONE',  ( -1.000000000000000000, 0.000000000000000000, 0.000000000000000000 ) ) ;
#539 = CARTESIAN_POINT ( 'NONE',  ( 1.750000000000000888, -3.031088913245535643, 0.000000000000000000 ) ) ;
#540 = CARTESIAN_POINT ( 'NONE',  ( 3.499999999999999556, 1.362959798491815810, -2.060265505016216636 ) ) ;
#541 = EDGE_LOOP ( 'NONE', ( #361, #664, #348 ) ) ;
#542 = EDGE_CURVE ( 'NONE', #374, #626, #313, .T. ) ;
#543 = FACE_OUTER_BOUND ( 'NONE', #78, .T. ) ;
#544 = DIRECTION ( 'NONE',  ( -0.8660254037844383745, -0.5000000000000004441, 0.000000000000000000 ) ) ;
#545 = AXIS2_PLACEMENT_3D ( 'NONE', #274, #326, #538 ) ;
#546 = VERTEX_POINT ( 'NONE', #173 ) ;
#547 = CARTESIAN_POINT ( 'NONE',  ( 0.000000000000000000, 0.000000000000000000, -2.200000000000000178 ) ) ;
#548 = CARTESIAN_POINT ( 'NONE',  ( -2.343682934607766111, -2.688325911136458579, -0.02993401039713796535 ) ) ;
#549 = DIRECTION ( 'NONE',  ( 1.000000000000000000, 0.000000000000000000, 0.000000000000000000 ) ) ;
#550 = CARTESIAN_POINT ( 'NONE',  ( 0.000000000000000000, 0.000000000000000000, -2.200000000000000178 ) ) ;
#551 =( GEOMETRIC_REPRESENTATION_CONTEXT ( 3 ) GLOBAL_UNCERTAINTY_ASSIGNED_CONTEXT ( ( #368 ) ) GLOBAL_UNIT_ASSIGNED_CONTEXT ( ( #624, #252, #303 ) ) REPRESENTATION_CONTEXT ( 'NONE', 'WORKASPACE' ) );
#552 = ORIENTED_EDGE ( 'NONE', *, *, #536, .T. ) ;
#553 = PRODUCT ( 'ISO - 4035 - M4 - N_ISO - 4035 - M4 - N', 'ISO - 4035 - M4 - N_ISO - 4035 - M4 - N', '', ( #469 ) ) ;
#554 = FACE_OUTER_BOUND ( 'NONE', #464, .T. ) ;
#555 = FACE_OUTER_BOUND ( 'NONE', #29, .T. ) ;
#556 = ORIENTED_EDGE ( 'NONE', *, *, #267, .T. ) ;
#557 = EDGE_CURVE ( 'NONE', #65, #163, #437, .T. ) ;
#558 = AXIS2_PLACEMENT_3D ( 'NONE', #85, #136, #23 ) ;
#559 = CARTESIAN_POINT ( 'NONE',  ( -6.938893903907228378E-15, -4.041451884327381450, -0.3126073911696449770 ) ) ;
#560 = DIRECTION ( 'NONE',  ( -0.000000000000000000, -0.000000000000000000, 1.000000000000000000 ) ) ;
#561 = VERTEX_POINT ( 'NONE', #192 ) ;
#562 = PRODUCT_DEFINITION_SHAPE ( 'NONE', 'NONE',  #52 ) ;
#563 = EDGE_CURVE ( 'NONE', #676, #106, #671, .T. ) ;
#564 = FACE_OUTER_BOUND ( 'NONE', #416, .T. ) ;
#565 = DIRECTION ( 'NONE',  ( -0.000000000000000000, -0.000000000000000000, 1.000000000000000000 ) ) ;
#566 = ORIENTED_EDGE ( 'NONE', *, *, #26, .F. ) ;
#567 = CONICAL_SURFACE ( 'NONE', #698, 2.000000000000000000, 0.9599310885968800333 ) ;
#568 = DIRECTION ( 'NONE',  ( 1.000000000000000000, 0.000000000000000000, 0.000000000000000000 ) ) ;
#569 = ADVANCED_FACE ( 'NONE', ( #564 ), #164, .T. ) ;
#570 = CARTESIAN_POINT ( 'NONE',  ( -3.500000000000000000, 0.000000000000000000, -2.200000000000000178 ) ) ;
#571 = EDGE_LOOP ( 'NONE', ( #206, #566, #209, #16, #401, #477 ) ) ;
#572 = CIRCLE ( 'NONE', #663, 3.500000000000000000 ) ;
#573 = CARTESIAN_POINT ( 'NONE',  ( 2.926493552096021578, 2.351840044243036054, -2.061158938895391035 ) ) ;
#574 = EDGE_LOOP ( 'NONE', ( #485, #104, #161, #24, #242, #506 ) ) ;
#575 = CARTESIAN_POINT ( 'NONE',  ( 2.000000000000000000, 0.000000000000000000, 0.000000000000000000 ) ) ;
#576 = PLANE ( 'NONE',  #398 ) ;
#577 = ORIENTED_EDGE ( 'NONE', *, *, #542, .T. ) ;
#578 = DIRECTION ( 'NONE',  ( 0.000000000000000000, 0.000000000000000000, -1.000000000000000000 ) ) ;
#579 = CARTESIAN_POINT ( 'NONE',  ( 1.153701847711630979, 3.375361811986502314, -2.200000000000002398 ) ) ;
#580 = ORIENTED_EDGE ( 'NONE', *, *, #219, .T. ) ;
#581 = ADVANCED_FACE ( 'NONE', ( #180 ), #229, .T. ) ;
#582 = DIRECTION ( 'NONE',  ( 1.000000000000000000, 0.000000000000000000, 0.000000000000000000 ) ) ;
#583 = AXIS2_PLACEMENT_3D ( 'NONE', #488, #11, #55 ) ;
#584 = CARTESIAN_POINT ( 'NONE',  ( 3.500000000000000000, 2.020725942163692501, -1.887392608830355201 ) ) ;
#585 = B_SPLINE_CURVE_WITH_KNOTS ( 'NONE', 3,
 ( #174, #384, #597, #430, #492, #61 ),
 .UNSPECIFIED., .F., .F.,
 ( 4, 2, 4 ),
 ( 0.003605240635278488242, 0.004627368318297467135, 0.005649496001316446463 ),
 .UNSPECIFIED. ) ;
#586 = EDGE_LOOP ( 'NONE', ( #533, #116, #468 ) ) ;
#587 = VERTEX_POINT ( 'NONE', #575 ) ;
#588 = CARTESIAN_POINT ( 'NONE',  ( -3.500000000000000000, 2.020725942163689393, -0.3126073911696439778 ) ) ;
#589 = ORIENTED_EDGE ( 'NONE', *, *, #235, .T. ) ;
#590 = CARTESIAN_POINT ( 'NONE',  ( -3.500000000000000000, -2.020725942163692501, -1.887392608830355201 ) ) ;
#591 = EDGE_CURVE ( 'NONE', #626, #36, #156, .T. ) ;
#592 = VERTEX_POINT ( 'NONE', #283 ) ;
#593 = CARTESIAN_POINT ( 'NONE',  ( 2.346298152288371686, -2.686816014504571193, -2.200000000000000622 ) ) ;
#594 = CIRCLE ( 'NONE', #194, 3.500000000000000000 ) ;
#595 = CARTESIAN_POINT ( 'NONE',  ( 3.500000000000000444, 0.000000000000000000, -2.200000000000000178 ) ) ;
#596 = CARTESIAN_POINT ( 'NONE',  ( 0.000000000000000000, 0.000000000000000000, 0.000000000000000000 ) ) ;
#597 = CARTESIAN_POINT ( 'NONE',  ( -3.500000000000000444, -1.355464348821700193, -0.1381584212714450643 ) ) ;
#598 = EDGE_CURVE ( 'NONE', #397, #676, #473, .T. ) ;
#599 = CARTESIAN_POINT ( 'NONE',  ( 3.499999999999999556, -2.020725942163696054, -1.887392608830355201 ) ) ;
#600 = AXIS2_PLACEMENT_3D ( 'NONE', #129, #350, #18 ) ;
#601 = FACE_OUTER_BOUND ( 'NONE', #364, .T. ) ;
#602 = CARTESIAN_POINT ( 'NONE',  ( 0.000000000000000000, 0.000000000000000000, 0.000000000000000000 ) ) ;
#603 = CARTESIAN_POINT ( 'NONE',  ( 0.000000000000000000, 0.000000000000000000, -2.174599999999998978 ) ) ;
#604 = AXIS2_PLACEMENT_3D ( 'NONE', #297, #560, #300 ) ;
#605 = CARTESIAN_POINT ( 'NONE',  ( 1.156317065392237220, -3.373851915354618480, -0.02993401039713835393 ) ) ;
#606 = B_SPLINE_CURVE_WITH_KNOTS ( 'NONE', 3,
 ( #659, #172, #178, #121 ),
 .UNSPECIFIED., .F., .F.,
 ( 4, 4 ),
 ( 2.380739282182980410E-07, 0.002044882221487526273 ),
 .UNSPECIFIED. ) ;
#607 = DIRECTION ( 'NONE',  ( -0.5000000000000004441, 0.8660254037844383745, 0.000000000000000000 ) ) ;
#608 = ORIENTED_EDGE ( 'NONE', *, *, #433, .T. ) ;
#609 = CARTESIAN_POINT ( 'NONE',  ( 0.000000000000000000, 0.000000000000000000, -25.03750572909317285 ) ) ;
#610 = EDGE_CURVE ( 'NONE', #629, #397, #210, .T. ) ;
#611 = CARTESIAN_POINT ( 'NONE',  ( 0.000000000000000000, 0.000000000000000000, 0.000000000000000000 ) ) ;
#612 = CONICAL_SURFACE ( 'NONE', #684, 3.500000000000000444, 1.047197551196596077 ) ;
#613 = ORIENTED_EDGE ( 'NONE', *, *, #246, .T. ) ;
#614 = DIRECTION ( 'NONE',  ( 0.000000000000000000, 0.000000000000000000, -1.000000000000000000 ) ) ;
#615 = DIRECTION ( 'NONE',  ( -0.000000000000000000, 0.000000000000000000, -1.000000000000000000 ) ) ;
#616 = ORIENTED_EDGE ( 'NONE', *, *, #330, .F. ) ;
#617 = DIRECTION ( 'NONE',  ( -0.000000000000000000, -0.000000000000000000, 1.000000000000000000 ) ) ;
#618 = CARTESIAN_POINT ( 'NONE',  ( 3.500000000000000000, 2.020725942163688504, -2.200000000000000178 ) ) ;
#619 = VERTEX_POINT ( 'NONE', #243 ) ;
#620 = ADVANCED_FACE ( 'NONE', ( #239, #249 ), #621, .F. ) ;
#621 = CYLINDRICAL_SURFACE ( 'NONE', #295, 2.000000000000000000 ) ;
#622 = CARTESIAN_POINT ( 'NONE',  ( 1.750000000000002442, 3.031088913245534311, 0.000000000000000000 ) ) ;
#623 = ORIENTED_EDGE ( 'NONE', *, *, #267, .F. ) ;
#624 =( LENGTH_UNIT ( ) NAMED_UNIT ( * ) SI_UNIT ( .MILLI., .METRE. ) );
#625 = FACE_OUTER_BOUND ( 'NONE', #203, .T. ) ;
#626 = VERTEX_POINT ( 'NONE', #138 ) ;
#627 = AXIS2_PLACEMENT_3D ( 'NONE', #281, #434, #115 ) ;
#628 = DIRECTION ( 'NONE',  ( -0.5000000000000006661, -0.8660254037844383745, 0.000000000000000000 ) ) ;
#629 = VERTEX_POINT ( 'NONE', #342 ) ;
#630 = CARTESIAN_POINT ( 'NONE',  ( 1.650000000000000133, 0.000000000000000000, -0.2450726383733988212 ) ) ;
#631 = CARTESIAN_POINT ( 'NONE',  ( 3.499999999999999556, 1.362959798491815366, -0.1397344949837834305 ) ) ;
#632 = B_SPLINE_CURVE_WITH_KNOTS ( 'NONE', 3,
 ( #255, #418, #423, #631, #637, #155 ),
 .UNSPECIFIED., .F., .F.,
 ( 4, 2, 4 ),
 ( 0.005649496001316447330, 0.006672230966438296926, 0.007694965931560146521 ),
 .UNSPECIFIED. ) ;
#633 = EDGE_CURVE ( 'NONE', #587, #587, #329, .T. ) ;
#634 = ORIENTED_EDGE ( 'NONE', *, *, #338, .T. ) ;
#635 =( GEOMETRIC_REPRESENTATION_CONTEXT ( 3 ) GLOBAL_UNCERTAINTY_ASSIGNED_CONTEXT ( ( #169 ) ) GLOBAL_UNIT_ASSIGNED_CONTEXT ( ( #261, #154, #422 ) ) REPRESENTATION_CONTEXT ( 'NONE', 'WORKASPACE' ) );
#636 = DIRECTION ( 'NONE',  ( 0.000000000000000000, 0.000000000000000000, -1.000000000000000000 ) ) ;
#637 = CARTESIAN_POINT ( 'NONE',  ( 3.500000000000000000, 1.693985822988429479, -0.2182856432891999154 ) ) ;
#638 = EDGE_LOOP ( 'NONE', ( #613, #634, #372, #279, #653, #616 ) ) ;
#639 = CARTESIAN_POINT ( 'NONE',  ( -1.650000000000000133, 0.000000000000000000, -1.929527361626599768 ) ) ;
#640 = AXIS2_PLACEMENT_3D ( 'NONE', #7, #655, #64 ) ;
#641 = AXIS2_PLACEMENT_3D ( 'NONE', #550, #70, #234 ) ;
#642 = CARTESIAN_POINT ( 'NONE',  ( -3.500000000000000000, 0.3416723310689514514, 2.439454888092383990E-16 ) ) ;
#643 = ORIENTED_EDGE ( 'NONE', *, *, #421, .F. ) ;
#644 = EDGE_CURVE ( 'NONE', #427, #65, #687, .T. ) ;
#645 = DIRECTION ( 'NONE',  ( 1.000000000000000000, 0.000000000000000000, 0.000000000000000000 ) ) ;
#646 = ORIENTED_EDGE ( 'NONE', *, *, #117, .T. ) ;
#647 = AXIS2_PLACEMENT_3D ( 'NONE', #547, #66, #482 ) ;
#648 = FACE_OUTER_BOUND ( 'NONE', #571, .T. ) ;
#649 = DIRECTION ( 'NONE',  ( -0.000000000000000000, -0.000000000000000000, 1.000000000000000000 ) ) ;
#650 = CARTESIAN_POINT ( 'NONE',  ( -1.156317065392238108, 3.373851915354614928, -2.170065989602865120 ) ) ;
#651 = AXIS2_PLACEMENT_3D ( 'NONE', #12, #432, #534 ) ;
#652 = FACE_OUTER_BOUND ( 'NONE', #574, .T. ) ;
#653 = ORIENTED_EDGE ( 'NONE', *, *, #318, .F. ) ;
#654 = CARTESIAN_POINT ( 'NONE',  ( -2.503857664561933855E-16, -4.041451884327385002, -2.200000000000000178 ) ) ;
#655 = DIRECTION ( 'NONE',  ( -0.000000000000000000, -0.000000000000000000, 1.000000000000000000 ) ) ;
#656 = ADVANCED_FACE ( 'NONE', ( #512, #34 ), #567, .F. ) ;
#657 = CARTESIAN_POINT ( 'NONE',  ( -2.926493552096023798, -2.351840044243039163, -2.061158938895388815 ) ) ;
#658 = CONICAL_SURFACE ( 'NONE', #483, 3.500000000000000444, 1.047197551196596077 ) ;
#659 = CARTESIAN_POINT ( 'NONE',  ( -3.500000000000000000, 2.020725942163692501, -1.887392608830355201 ) ) ;
#660 = ORIENTED_EDGE ( 'NONE', *, *, #503, .F. ) ;
#661 = CARTESIAN_POINT ( 'NONE',  ( -1.750000000000001776, 3.031088913245534755, 0.000000000000000000 ) ) ;
#662 = CARTESIAN_POINT ( 'NONE',  ( 3.500000000000000000, 1.693985822988430368, -1.981714356710799985 ) ) ;
#663 = AXIS2_PLACEMENT_3D ( 'NONE', #532, #51, #476 ) ;
#664 = ORIENTED_EDGE ( 'NONE', *, *, #380, .T. ) ;
#665 = ADVANCED_FACE ( 'NONE', ( #69 ), #658, .T. ) ;
#666 = CARTESIAN_POINT ( 'NONE',  ( -1.153701847711634532, -3.375361811986504534, 4.959969938058138047E-16 ) ) ;
#667 = DIRECTION ( 'NONE',  ( -1.000000000000000000, 0.000000000000000000, 0.000000000000000000 ) ) ;
#668 = ORIENTED_EDGE ( 'NONE', *, *, #563, .T. ) ;
#669 = CARTESIAN_POINT ( 'NONE',  ( -1.750000000000001998, -3.031088913245534755, -2.200000000000000178 ) ) ;
#670 = CARTESIAN_POINT ( 'NONE',  ( -3.500000000000000444, 0.6879904500768329045, -2.169836757075880307 ) ) ;
#671 = CIRCLE ( 'NONE', #152, 3.500000000000000000 ) ;
#672 = ORIENTED_EDGE ( 'NONE', *, *, #308, .F. ) ;
#673 = CARTESIAN_POINT ( 'NONE',  ( -0.5725525826504703764, -3.710888496608920395, -0.1217565302851120884 ) ) ;
#674 = CARTESIAN_POINT ( 'NONE',  ( 0.000000000000000000, 0.000000000000000000, -1.929527361626599768 ) ) ;
#675 = ADVANCED_FACE ( 'NONE', ( #554 ), #406, .T. ) ;
#676 = VERTEX_POINT ( 'NONE', #236 ) ;
#677 = CIRCLE ( 'NONE', #583, 3.500000000000000000 ) ;
#678 = CARTESIAN_POINT ( 'NONE',  ( 1.084202172485504434E-15, 4.041451884327381450, -0.3126073911696449770 ) ) ;
#679 = DIRECTION ( 'NONE',  ( -1.000000000000000000, 0.000000000000000000, 0.000000000000000000 ) ) ;
#680 = ORIENTED_EDGE ( 'NONE', *, *, #598, .T. ) ;
#681 = CARTESIAN_POINT ( 'NONE',  ( 0.000000000000000000, 0.000000000000000000, -0.2450726383733988212 ) ) ;
#682 = CARTESIAN_POINT ( 'NONE',  ( -3.500000000000000000, 0.3416723310689521731, -2.200000000000000622 ) ) ;
#683 = ORIENTED_EDGE ( 'NONE', *, *, #90, .F. ) ;
#684 = AXIS2_PLACEMENT_3D ( 'NONE', #309, #636, #207 ) ;
#685 = CARTESIAN_POINT ( 'NONE',  ( 0.000000000000000000, 0.000000000000000000, 0.000000000000000000 ) ) ;
#686 = ORIENTED_EDGE ( 'NONE', *, *, #318, .T. ) ;
#687 = B_SPLINE_CURVE_WITH_KNOTS ( 'NONE', 3,
 ( #299, #346, #605, #233, #84, #22 ),
 .UNSPECIFIED., .F., .F.,
 ( 4, 2, 4 ),
 ( 0.002044882221487526273, 0.003063384235218493713, 0.004081886248949461587 ),
 .UNSPECIFIED. ) ;
#688 = AXIS2_PLACEMENT_3D ( 'NONE', #103, #100, #645 ) ;
#689 = PRESENTATION_STYLE_ASSIGNMENT (( #694 ) ) ;
#690 = ADVANCED_FACE ( 'NONE', ( #448 ), #144, .T. ) ;
#691 = MANIFOLD_SOLID_BREP ( 'EndChamfer', #130 ) ;
#692 = FACE_OUTER_BOUND ( 'NONE', #352, .T. ) ;
#693 = ORIENTED_EDGE ( 'NONE', *, *, #189, .T. ) ;
#694 = SURFACE_STYLE_USAGE ( .BOTH. , #365 ) ;
#695 = ADVANCED_FACE ( 'NONE', ( #465 ), #612, .T. ) ;
#696 = CARTESIAN_POINT ( 'NONE',  ( 0.5725525826504662685, 3.710888496608919507, -2.078243469714888825 ) ) ;
#697 = EDGE_LOOP ( 'NONE', ( #137, #510, #693 ) ) ;
#698 = AXIS2_PLACEMENT_3D ( 'NONE', #291, #123, #445 ) ;
#699 = FILL_AREA_STYLE ('',( #45 ) ) ;
#700 = B_SPLINE_CURVE_WITH_KNOTS ( 'NONE', 3,
 ( #599, #110, #593, #271 ),
 .UNSPECIFIED., .F., .F.,
 ( 4, 4 ),
 ( 2.380739282186698090E-07, 0.002044882221487526273 ),
 .UNSPECIFIED. ) ;
#701 = FACE_OUTER_BOUND ( 'NONE', #32, .T. ) ;
#702 = EDGE_LOOP ( 'NONE', ( #454, #263, #83, #367, #94, #254 ) ) ;
#703 = EDGE_CURVE ( 'NONE', #405, #405, #520, .T. ) ;
ENDSEC;
END-ISO-10303-21;
