ISO-10303-21;
HEADER;
FILE_DESCRIPTION (( 'STEP AP214' ),
    '1' );
FILE_NAME ('ISO - 4032 - M1.6 - D - N.STEP',
    '2025-07-30T15:09:16',
    ( '' ),
    ( '' ),
    'SwSTEP 2.0',
    'SolidWorks 2025',
    '' );
FILE_SCHEMA (( 'AUTOMOTIVE_DESIGN' ));
ENDSEC;

DATA;
#1 = VERTEX_POINT ( 'NONE', #253 ) ;
#2 = CIRCLE ( 'NONE', #657, 1.600000000000000089 ) ;
#3 = CARTESIAN_POINT ( 'NONE',  ( 1.600000000000000089, 0.6230673364534350389, -0.06387862627818439998 ) ) ;
#4 = EDGE_CURVE ( 'NONE', #240, #289, #236, .T. ) ;
#5 = DIRECTION ( 'NONE',  ( -0.000000000000000000, -0.000000000000000000, -1.000000000000000000 ) ) ;
#6 = ORIENTED_EDGE ( 'NONE', *, *, #500, .F. ) ;
#7 = CARTESIAN_POINT ( 'NONE',  ( -1.600000000000000089, 0.9237604307034051887, -1.157093764036733141 ) ) ;
#8 = CARTESIAN_POINT ( 'NONE',  ( 0.8000000000000013767, 1.385640646055101177, 0.000000000000000000 ) ) ;
#9 = EDGE_LOOP ( 'NONE', ( #523, #386, #447 ) ) ;
#10 = VECTOR ( 'NONE', #469, 1000.000000000000000 ) ;
#11 = CARTESIAN_POINT ( 'NONE',  ( -1.338262825470073025, 1.074874458875184402, -0.05566051111767115339 ) ) ;
#12 = DIRECTION ( 'NONE',  ( 0.000000000000000000, 0.000000000000000000, 1.000000000000000000 ) ) ;
#13 = ORIENTED_EDGE ( 'NONE', *, *, #489, .F. ) ;
#14 = EDGE_CURVE ( 'NONE', #289, #519, #462, .T. ) ;
#15 = FACE_OUTER_BOUND ( 'NONE', #137, .T. ) ;
#16 = CONICAL_SURFACE ( 'NONE', #313, 1.600000000000000311, 1.047197551196596521 ) ;
#17 = CARTESIAN_POINT ( 'NONE',  ( 0.000000000000000000, 0.000000000000000000, -1.300000000000000044 ) ) ;
#18 = ORIENTED_EDGE ( 'NONE', *, *, #141, .F. ) ;
#19 = DIRECTION ( 'NONE',  ( 1.000000000000000000, 0.000000000000000000, 0.000000000000000000 ) ) ;
#20 = ORIENTED_EDGE ( 'NONE', *, *, #157, .F. ) ;
#21 = CARTESIAN_POINT ( 'NONE',  ( -0.8000000000000018208, -1.385640646055101399, 0.000000000000000000 ) ) ;
#22 = CONICAL_SURFACE ( 'NONE', #673, 1.600000000000000311, 1.047197551196596521 ) ;
#23 = ADVANCED_FACE ( 'NONE', ( #39 ), #60, .T. ) ;
#24 = ORIENTED_EDGE ( 'NONE', *, *, #468, .F. ) ;
#25 = CARTESIAN_POINT ( 'NONE',  ( 0.000000000000000000, 0.000000000000000000, -1.300000000000000044 ) ) ;
#26 = ORIENTED_EDGE ( 'NONE', *, *, #157, .T. ) ;
#27 = VERTEX_POINT ( 'NONE', #357 ) ;
#28 = CARTESIAN_POINT ( 'NONE',  ( -1.338915011469750560, -1.074497919112716859, -0.05587790645201290429 ) ) ;
#29 = ORIENTED_EDGE ( 'NONE', *, *, #250, .T. ) ;
#30 = DIRECTION ( 'NONE',  ( 1.000000000000000000, 0.000000000000000000, 0.000000000000000000 ) ) ;
#31 = ADVANCED_FACE ( 'NONE', ( #365 ), #562, .T. ) ;
#32 = CARTESIAN_POINT ( 'NONE',  ( 1.599999999999999867, -0.7735182806158358293, -1.200464936935083049 ) ) ;
#33 = MECHANICAL_DESIGN_GEOMETRIC_PRESENTATION_REPRESENTATION (  '', ( #134 ), #299 ) ;
#34 = ORIENTED_EDGE ( 'NONE', *, *, #221, .F. ) ;
#35 = CARTESIAN_POINT ( 'NONE',  ( 0.000000000000000000, 0.000000000000000000, -1.152063680813299351 ) ) ;
#36 = AXIS2_PLACEMENT_3D ( 'NONE', #361, #565, #458 ) ;
#37 = ORIENTED_EDGE ( 'NONE', *, *, #451, .T. ) ;
#38 = CARTESIAN_POINT ( 'NONE',  ( -0.8000000000000018208, -1.385640646055101399, 0.000000000000000000 ) ) ;
#39 = FACE_OUTER_BOUND ( 'NONE', #234, .T. ) ;
#40 = DIRECTION ( 'NONE',  ( -0.5000000000000024425, 0.8660254037844373753, 0.000000000000000000 ) ) ;
#41 = CONICAL_SURFACE ( 'NONE', #183, 1.600000000000000311, 1.047197551196596521 ) ;
#42 = ADVANCED_FACE ( 'NONE', ( #407 ), #148, .T. ) ;
#43 = DIRECTION ( 'NONE',  ( 0.5000000000000008882, 0.8660254037844381525, -0.000000000000000000 ) ) ;
#44 = VERTEX_POINT ( 'NONE', #207 ) ;
#45 = CARTESIAN_POINT ( 'NONE',  ( -1.600000000000000311, -0.3111893021712308638, -0.01341774043264994977 ) ) ;
#46 = PLANE ( 'NONE',  #248 ) ;
#47 = CIRCLE ( 'NONE', #540, 1.600000000000000089 ) ;
#48 = FACE_OUTER_BOUND ( 'NONE', #600, .T. ) ;
#49 = B_SPLINE_CURVE_WITH_KNOTS ( 'NONE', 3,
 ( #8, #165, #472, #577 ),
 .UNSPECIFIED., .F., .F.,
 ( 4, 4 ),
 ( 0.0009349328872549540499, 0.001866139041432148893 ),
 .UNSPECIFIED. ) ;
#50 = PRODUCT_DEFINITION_CONTEXT ( 'detailed design', #354, 'design' ) ;
#51 = CARTESIAN_POINT ( 'NONE',  ( -1.599999999999999867, -0.7735182806158377167, -1.200464936935082605 ) ) ;
#52 = ADVANCED_FACE ( 'NONE', ( #371 ), #623, .F. ) ;
#53 = DIRECTION ( 'NONE',  ( 0.000000000000000000, 0.000000000000000000, -1.000000000000000000 ) ) ;
#54 = CARTESIAN_POINT ( 'NONE',  ( -1.599999999999999867, 0.1561930656315212440, -1.300000000000000044 ) ) ;
#55 = AXIS2_PLACEMENT_3D ( 'NONE', #257, #574, #363 ) ;
#56 = ORIENTED_EDGE ( 'NONE', *, *, #602, .F. ) ;
#57 = CARTESIAN_POINT ( 'NONE',  ( -1.600000000000000089, 0.7743935190804215329, -0.09978772264649039825 ) ) ;
#58 = UNCERTAINTY_MEASURE_WITH_UNIT (LENGTH_MEASURE( 1.000000000000000082E-05 ), #78, 'distance_accuracy_value', 'NONE');
#59 = DIRECTION ( 'NONE',  ( 1.000000000000000000, 0.000000000000000000, 0.000000000000000000 ) ) ;
#60 = CONICAL_SURFACE ( 'NONE', #281, 1.600000000000000311, 1.047197551196596521 ) ;
#61 = ORIENTED_EDGE ( 'NONE', *, *, #350, .F. ) ;
#62 = B_SPLINE_CURVE_WITH_KNOTS ( 'NONE', 3,
 ( #373, #327, #528, #576, #57, #478 ),
 .UNSPECIFIED., .F., .F.,
 ( 4, 2, 4 ),
 ( 0.002582626743458952580, 0.003050162727514653047, 0.003517698711570353947 ),
 .UNSPECIFIED. ) ;
#63 = DIRECTION ( 'NONE',  ( 0.000000000000000000, 0.000000000000000000, -1.000000000000000000 ) ) ;
#64 = CARTESIAN_POINT ( 'NONE',  ( 1.600000000000000311, 0.000000000000000000, 0.000000000000000000 ) ) ;
#65 = ORIENTED_EDGE ( 'NONE', *, *, #510, .F. ) ;
#66 = DIRECTION ( 'NONE',  ( 1.000000000000000000, 0.000000000000000000, 0.000000000000000000 ) ) ;
#67 = CARTESIAN_POINT ( 'NONE',  ( 0.000000000000000000, 0.000000000000000000, -1.300000000000000044 ) ) ;
#68 = ADVANCED_FACE ( 'NONE', ( #571 ), #16, .T. ) ;
#69 = VERTEX_POINT ( 'NONE', #566 ) ;
#70 = CIRCLE ( 'NONE', #524, 0.8000000000000001554 ) ;
#71 = PRESENTATION_STYLE_ASSIGNMENT (( #535 ) ) ;
#72 = DIRECTION ( 'NONE',  ( 1.000000000000000000, 1.776356839400250465E-15, 0.000000000000000000 ) ) ;
#73 = ORIENTED_EDGE ( 'NONE', *, *, #627, .T. ) ;
#74 = CARTESIAN_POINT ( 'NONE',  ( -1.600000000000000089, 0.9237604307033978612, -0.1429062359632647938 ) ) ;
#75 = CONICAL_SURFACE ( 'NONE', #572, 0.8000000000000000444, 0.9599310885968737050 ) ;
#76 = VERTEX_POINT ( 'NONE', #414 ) ;
#77 = PRODUCT_DEFINITION_SHAPE ( 'NONE', 'NONE',  #315 ) ;
#78 =( LENGTH_UNIT ( ) NAMED_UNIT ( * ) SI_UNIT ( .MILLI., .METRE. ) );
#79 = EDGE_CURVE ( 'NONE', #142, #333, #88, .T. ) ;
#80 = ORIENTED_EDGE ( 'NONE', *, *, #538, .F. ) ;
#81 = CIRCLE ( 'NONE', #579, 1.600000000000000311 ) ;
#82 = FACE_OUTER_BOUND ( 'NONE', #306, .T. ) ;
#83 = ORIENTED_EDGE ( 'NONE', *, *, #291, .F. ) ;
#84 = VERTEX_POINT ( 'NONE', #401 ) ;
#85 = AXIS2_PLACEMENT_3D ( 'NONE', #568, #256, #670 ) ;
#86 = DIRECTION ( 'NONE',  ( 0.5000000000000024425, -0.8660254037844372643, 0.000000000000000000 ) ) ;
#87 = ORIENTED_EDGE ( 'NONE', *, *, #79, .T. ) ;
#88 = B_SPLINE_CURVE_WITH_KNOTS ( 'NONE', 3,
 ( #620, #102, #308, #314 ),
 .UNSPECIFIED., .F., .F.,
 ( 4, 4 ),
 ( 0.0009349328872549474362, 0.001866139041432150411 ),
 .UNSPECIFIED. ) ;
#89 = APPLICATION_PROTOCOL_DEFINITION ( 'draft international standard', 'automotive_design', 1998, #318 ) ;
#90 = FACE_OUTER_BOUND ( 'NONE', #639, .T. ) ;
#91 = ORIENTED_EDGE ( 'NONE', *, *, #372, .F. ) ;
#92 = EDGE_CURVE ( 'NONE', #84, #84, #218, .T. ) ;
#93 = CARTESIAN_POINT ( 'NONE',  ( -9.757819552369539906E-16, 1.847520861406804382, -0.1429062359632668755 ) ) ;
#94 = AXIS2_PLACEMENT_3D ( 'NONE', #671, #189, #30 ) ;
#95 = ORIENTED_EDGE ( 'NONE', *, *, #480, .F. ) ;
#96 =( LENGTH_UNIT ( ) NAMED_UNIT ( * ) SI_UNIT ( .MILLI., .METRE. ) );
#97 = CARTESIAN_POINT ( 'NONE',  ( 1.600000000000000089, -0.1561003209258201296, -1.300000000000000266 ) ) ;
#98 = CIRCLE ( 'NONE', #507, 1.600000000000000089 ) ;
#99 = DIRECTION ( 'NONE',  ( -1.000000000000000000, 0.000000000000000000, 0.000000000000000000 ) ) ;
#100 = DIRECTION ( 'NONE',  ( -0.000000000000000000, -0.000000000000000000, 1.000000000000000000 ) ) ;
#101 = EDGE_CURVE ( 'NONE', #595, #303, #180, .T. ) ;
#102 = CARTESIAN_POINT ( 'NONE',  ( -0.5284225537932131234, 1.542435957728422125, -1.300000000000001155 ) ) ;
#103 = CARTESIAN_POINT ( 'NONE',  ( 1.600000000000001199, -0.9237604307034030793, -1.157093764036733141 ) ) ;
#104 = CARTESIAN_POINT ( 'NONE',  ( -9.757819552369539906E-16, 1.847520861406804382, -0.1429062359632668755 ) ) ;
#105 = CARTESIAN_POINT ( 'NONE',  ( 1.600000000000001199, -0.9237604307034030793, -1.157093764036733141 ) ) ;
#106 = CARTESIAN_POINT ( 'NONE',  ( 0.8000000000000039302, -1.385640646055099623, -1.300000000000000044 ) ) ;
#107 = ADVANCED_FACE ( 'NONE', ( #215 ), #465, .T. ) ;
#108 = ORIENTED_EDGE ( 'NONE', *, *, #171, .F. ) ;
#109 = CARTESIAN_POINT ( 'NONE',  ( 0.000000000000000000, 0.000000000000000000, -1.299999999999999156 ) ) ;
#110 = DIRECTION ( 'NONE',  ( 0.000000000000000000, 0.000000000000000000, -1.000000000000000000 ) ) ;
#111 = CARTESIAN_POINT ( 'NONE',  ( -0.2617371745299361119, -1.696406833235018841, -1.244339488882326039 ) ) ;
#112 = CARTESIAN_POINT ( 'NONE',  ( 1.600000000000001199, -0.9237604307034030793, -0.1429062359632668755 ) ) ;
#113 = AXIS2_PLACEMENT_3D ( 'NONE', #482, #436, #444 ) ;
#114 = ORIENTED_EDGE ( 'NONE', *, *, #14, .F. ) ;
#115 = FACE_OUTER_BOUND ( 'NONE', #450, .T. ) ;
#116 = DIRECTION ( 'NONE',  ( -0.000000000000000000, -0.000000000000000000, 1.000000000000000000 ) ) ;
#117 = EDGE_LOOP ( 'NONE', ( #598, #495, #18 ) ) ;
#118 = FACE_OUTER_BOUND ( 'NONE', #9, .T. ) ;
#119 = ADVANCED_FACE ( 'NONE', ( #518, #319 ), #46, .F. ) ;
#120 = PRODUCT ( 'ISO - 4032 - M1.6 - D - N_ISO - 4032 - M1.6 - D - N', 'ISO - 4032 - M1.6 - D - N_ISO - 4032 - M1.6 - D - N', '', ( #457 ) ) ;
#121 = CARTESIAN_POINT ( 'NONE',  ( 0.000000000000000000, 0.000000000000000000, -1.300000000000000044 ) ) ;
#122 = ORIENTED_EDGE ( 'NONE', *, *, #4, .F. ) ;
#123 = CARTESIAN_POINT ( 'NONE',  ( 0.000000000000000000, 0.000000000000000000, 0.000000000000000000 ) ) ;
#124 = DIRECTION ( 'NONE',  ( 0.000000000000000000, 0.000000000000000000, 1.000000000000000000 ) ) ;
#125 = ORIENTED_EDGE ( 'NONE', *, *, #250, .F. ) ;
#126 = DIRECTION ( 'NONE',  ( 1.000000000000000000, 0.000000000000000000, 0.000000000000000000 ) ) ;
#127 = VERTEX_POINT ( 'NONE', #106 ) ;
#128 = EDGE_CURVE ( 'NONE', #682, #208, #366, .T. ) ;
#129 = SURFACE_SIDE_STYLE ('',( #590 ) ) ;
#130 = CIRCLE ( 'NONE', #339, 1.600000000000000311 ) ;
#131 = EDGE_LOOP ( 'NONE', ( #578 ) ) ;
#132 = CARTESIAN_POINT ( 'NONE',  ( -9.324138683375338132E-15, -1.847520861406804382, -0.1429062359632668755 ) ) ;
#133 = ORIENTED_EDGE ( 'NONE', *, *, #343, .F. ) ;
#134 = STYLED_ITEM ( 'NONE', ( #71 ), #641 ) ;
#135 = CARTESIAN_POINT ( 'NONE',  ( 0.5274051198989515576, 1.543023373461156700, -1.300000000000000711 ) ) ;
#136 = CARTESIAN_POINT ( 'NONE',  ( 1.600000000000000089, -0.3111893021712300866, -0.01341774043264993763 ) ) ;
#137 = EDGE_LOOP ( 'NONE', ( #656 ) ) ;
#138 = CLOSED_SHELL ( 'NONE', ( #384, #364, #42, #52, #411, #492, #336, #321, #119, #591, #230, #564, #432, #260, #659, #107, #459, #419, #31, #23, #68, #638, #200, #613 ) ) ;
#139 = AXIS2_PLACEMENT_3D ( 'NONE', #635, #53, #428 ) ;
#140 = CARTESIAN_POINT ( 'NONE',  ( -0.8000000000000038192, 1.385640646055099845, 0.000000000000000000 ) ) ;
#141 = EDGE_CURVE ( 'NONE', #127, #661, #549, .T. ) ;
#142 = VERTEX_POINT ( 'NONE', #636 ) ;
#143 = CARTESIAN_POINT ( 'NONE',  ( -9.757819552369539906E-16, 1.847520861406804382, -1.157093764036733141 ) ) ;
#144 = FACE_OUTER_BOUND ( 'NONE', #369, .T. ) ;
#145 = ORIENTED_EDGE ( 'NONE', *, *, #686, .T. ) ;
#146 = CARTESIAN_POINT ( 'NONE',  ( -1.600000000000000089, 0.9237604307034051887, -1.157093764036733141 ) ) ;
#147 = CARTESIAN_POINT ( 'NONE',  ( -0.8000000000000038192, 1.385640646055099845, 0.000000000000000000 ) ) ;
#148 = PLANE ( 'NONE',  #389 ) ;
#149 = EDGE_CURVE ( 'NONE', #292, #69, #526, .T. ) ;
#150 = CARTESIAN_POINT ( 'NONE',  ( -3.199999999999995293, -5.963111948670274387E-15, 0.000000000000000000 ) ) ;
#151 = CARTESIAN_POINT ( 'NONE',  ( 1.600000000000000089, 0.9237604307034006368, -1.300000000000000044 ) ) ;
#152 = EDGE_CURVE ( 'NONE', #477, #283, #274, .T. ) ;
#153 = DIRECTION ( 'NONE',  ( 0.8660254037844372643, 0.5000000000000024425, 0.000000000000000000 ) ) ;
#154 = CARTESIAN_POINT ( 'NONE',  ( 1.600000000000000089, 0.9237604307034006368, -1.300000000000000044 ) ) ;
#155 = DIRECTION ( 'NONE',  ( -0.000000000000000000, -0.000000000000000000, -1.000000000000000000 ) ) ;
#156 = CONICAL_SURFACE ( 'NONE', #514, 0.6074999999999999289, 0.9599310885968737050 ) ;
#157 = EDGE_CURVE ( 'NONE', #303, #519, #49, .T. ) ;
#158 = CARTESIAN_POINT ( 'NONE',  ( 0.000000000000000000, 0.000000000000000000, 0.000000000000000000 ) ) ;
#159 = EDGE_LOOP ( 'NONE', ( #545, #443, #26, #114, #122, #266 ) ) ;
#160 = DIRECTION ( 'NONE',  ( 0.000000000000000000, 0.000000000000000000, 1.000000000000000000 ) ) ;
#161 = B_SPLINE_CURVE_WITH_KNOTS ( 'NONE', 3,
 ( #216, #582, #213, #45, #309, #520 ),
 .UNSPECIFIED., .F., .F.,
 ( 4, 2, 4 ),
 ( 0.001648110004698739818, 0.002115368374078846307, 0.002582626743458952580 ),
 .UNSPECIFIED. ) ;
#162 = DIRECTION ( 'NONE',  ( 0.000000000000000000, 0.000000000000000000, -1.000000000000000000 ) ) ;
#163 = AXIS2_PLACEMENT_3D ( 'NONE', #121, #220, #169 ) ;
#164 = CARTESIAN_POINT ( 'NONE',  ( 0.000000000000000000, 0.000000000000000000, -0.1225363191867011314 ) ) ;
#165 = CARTESIAN_POINT ( 'NONE',  ( 1.071577446206790407, 1.228845334381780230, 8.867163533742324244E-16 ) ) ;
#166 = ORIENTED_EDGE ( 'NONE', *, *, #193, .T. ) ;
#167 = CARTESIAN_POINT ( 'NONE',  ( -0.5274051198989569977, -1.543023373461159808, -1.299999999999997824 ) ) ;
#168 = CONICAL_SURFACE ( 'NONE', #55, 1.600000000000000311, 1.047197551196596521 ) ;
#169 = DIRECTION ( 'NONE',  ( 1.000000000000000000, 0.000000000000000000, 0.000000000000000000 ) ) ;
#170 = ORIENTED_EDGE ( 'NONE', *, *, #291, .T. ) ;
#171 = EDGE_CURVE ( 'NONE', #283, #246, #649, .T. ) ;
#172 = DIRECTION ( 'NONE',  ( 1.000000000000000000, 0.000000000000000000, 0.000000000000000000 ) ) ;
#173 = CARTESIAN_POINT ( 'NONE',  ( -9.324138683375338132E-15, -1.847520861406804382, -1.157093764036733141 ) ) ;
#174 = CIRCLE ( 'NONE', #282, 1.600000000000000089 ) ;
#175 = ORIENTED_EDGE ( 'NONE', *, *, #437, .F. ) ;
#176 = FILL_AREA_STYLE ('',( #648 ) ) ;
#177 = CARTESIAN_POINT ( 'NONE',  ( -1.600000000000000089, 0.9237604307034051887, -1.157093764036733141 ) ) ;
#178 = ORIENTED_EDGE ( 'NONE', *, *, #284, .F. ) ;
#179 = DIRECTION ( 'NONE',  ( 1.000000000000000000, 0.000000000000000000, 0.000000000000000000 ) ) ;
#180 = B_SPLINE_CURVE_WITH_KNOTS ( 'NONE', 3,
 ( #104, #681, #628, #311 ),
 .UNSPECIFIED., .F., .F.,
 ( 4, 4 ),
 ( 2.380755436468463489E-07, 0.0009349328872549540499 ),
 .UNSPECIFIED. ) ;
#181 = EDGE_CURVE ( 'NONE', #208, #542, #453, .T. ) ;
#182 = EDGE_LOOP ( 'NONE', ( #87, #593, #195 ) ) ;
#183 = AXIS2_PLACEMENT_3D ( 'NONE', #532, #226, #66 ) ;
#184 = ORIENTED_EDGE ( 'NONE', *, *, #510, .T. ) ;
#185 = CARTESIAN_POINT ( 'NONE',  ( 1.600000000000000089, 0.6230673364534350389, -1.236121373721815297 ) ) ;
#186 = AXIS2_PLACEMENT_3D ( 'NONE', #412, #86, #153 ) ;
#187 = B_SPLINE_CURVE_WITH_KNOTS ( 'NONE', 3,
 ( #147, #663, #194, #93 ),
 .UNSPECIFIED., .F., .F.,
 ( 4, 4 ),
 ( 0.0009349328872549474362, 0.001866139041432150845 ),
 .UNSPECIFIED. ) ;
#188 = ORIENTED_EDGE ( 'NONE', *, *, #500, .T. ) ;
#189 = DIRECTION ( 'NONE',  ( 0.000000000000000000, 0.000000000000000000, 1.000000000000000000 ) ) ;
#190 = CARTESIAN_POINT ( 'NONE',  ( -0.5274051198989569977, -1.543023373461159808, -2.014926613382974382E-15 ) ) ;
#191 = ORIENTED_EDGE ( 'NONE', *, *, #392, .F. ) ;
#192 = SHAPE_DEFINITION_REPRESENTATION ( #77, #483 ) ;
#193 = EDGE_CURVE ( 'NONE', #661, #208, #400, .T. ) ;
#194 = CARTESIAN_POINT ( 'NONE',  ( -0.2610849885302529705, 1.696783372997492156, -0.05587790645201074630 ) ) ;
#195 = ORIENTED_EDGE ( 'NONE', *, *, #310, .F. ) ;
#196 = AXIS2_PLACEMENT_3D ( 'NONE', #511, #420, #205 ) ;
#197 = CARTESIAN_POINT ( 'NONE',  ( 0.000000000000000000, 0.000000000000000000, -1.300000000000000044 ) ) ;
#198 = ORIENTED_EDGE ( 'NONE', *, *, #79, .F. ) ;
#199 = CARTESIAN_POINT ( 'NONE',  ( -9.188490299480120041E-16, 1.847520861406804382, -1.300000000000000044 ) ) ;
#200 = ADVANCED_FACE ( 'NONE', ( #224, #374 ), #75, .F. ) ;
#201 = DIRECTION ( 'NONE',  ( -1.000000000000000000, 0.000000000000000000, 0.000000000000000000 ) ) ;
#202 = COLOUR_RGB ( '',0.7921568627450980005, 0.8196078431372548767, 0.9333333333333333481 ) ;
#203 = DIRECTION ( 'NONE',  ( 0.000000000000000000, 0.000000000000000000, 1.000000000000000000 ) ) ;
#204 = PRODUCT_DEFINITION_FORMATION_WITH_SPECIFIED_SOURCE ( 'Symmetric', '', #120, .NOT_KNOWN. ) ;
#205 = DIRECTION ( 'NONE',  ( 1.000000000000000000, 0.000000000000000000, 0.000000000000000000 ) ) ;
#206 = PLANE ( 'NONE',  #186 ) ;
#207 = CARTESIAN_POINT ( 'NONE',  ( 1.600000000000000311, 0.000000000000000000, -1.300000000000000044 ) ) ;
#208 = VERTEX_POINT ( 'NONE', #277 ) ;
#209 = CARTESIAN_POINT ( 'NONE',  ( 0.000000000000000000, 0.000000000000000000, 0.000000000000000000 ) ) ;
#210 = CARTESIAN_POINT ( 'NONE',  ( -3.199999999999995293, -5.963111948670274387E-15, -1.300000000000000044 ) ) ;
#211 = B_SPLINE_CURVE_WITH_KNOTS ( 'NONE', 3,
 ( #280, #434, #486, #173 ),
 .UNSPECIFIED., .F., .F.,
 ( 4, 4 ),
 ( 0.0009349328872549447257, 0.001866139041432156049 ),
 .UNSPECIFIED. ) ;
#212 = ORIENTED_EDGE ( 'NONE', *, *, #181, .T. ) ;
#213 = CARTESIAN_POINT ( 'NONE',  ( -1.600000000000000311, -0.6196408451756379998, -0.06315813543835439858 ) ) ;
#214 = EDGE_CURVE ( 'NONE', #44, #127, #174, .T. ) ;
#215 = FACE_OUTER_BOUND ( 'NONE', #630, .T. ) ;
#216 = CARTESIAN_POINT ( 'NONE',  ( -1.600000000000000089, -0.9237604307034051887, -0.1429062359632668755 ) ) ;
#217 = CARTESIAN_POINT ( 'NONE',  ( 0.000000000000000000, 0.000000000000000000, -1.274600000000000843 ) ) ;
#218 = CIRCLE ( 'NONE', #85, 0.8000000000000000444 ) ;
#219 = DIRECTION ( 'NONE',  ( 1.000000000000000000, 0.000000000000000000, 0.000000000000000000 ) ) ;
#220 = DIRECTION ( 'NONE',  ( -0.000000000000000000, -0.000000000000000000, 1.000000000000000000 ) ) ;
#221 = EDGE_CURVE ( 'NONE', #44, #240, #130, .T. ) ;
#222 = ORIENTED_EDGE ( 'NONE', *, *, #301, .T. ) ;
#223 = CARTESIAN_POINT ( 'NONE',  ( 0.000000000000000000, 0.000000000000000000, -1.300000000000000044 ) ) ;
#224 = FACE_OUTER_BOUND ( 'NONE', #403, .T. ) ;
#225 = ORIENTED_EDGE ( 'NONE', *, *, #451, .F. ) ;
#226 = DIRECTION ( 'NONE',  ( -0.000000000000000000, -0.000000000000000000, 1.000000000000000000 ) ) ;
#227 = DIRECTION ( 'NONE',  ( 1.000000000000000000, 0.000000000000000000, 0.000000000000000000 ) ) ;
#228 = AXIS2_PLACEMENT_3D ( 'NONE', #17, #116, #438 ) ;
#229 = ORIENTED_EDGE ( 'NONE', *, *, #559, .F. ) ;
#230 = ADVANCED_FACE ( 'NONE', ( #646 ), #360, .T. ) ;
#231 = CARTESIAN_POINT ( 'NONE',  ( 1.600000000000000089, 0.9237604307034051887, -1.157093764036733141 ) ) ;
#232 = ORIENTED_EDGE ( 'NONE', *, *, #627, .F. ) ;
#233 = FACE_BOUND ( 'NONE', #439, .T. ) ;
#234 = EDGE_LOOP ( 'NONE', ( #375, #382, #445 ) ) ;
#235 = AXIS2_PLACEMENT_3D ( 'NONE', #223, #239, #126 ) ;
#236 = B_SPLINE_CURVE_WITH_KNOTS ( 'NONE', 3,
 ( #259, #460, #251, #467 ),
 .UNSPECIFIED., .F., .F.,
 ( 4, 4 ),
 ( 0.0009349328872549540499, 0.001866139041432149110 ),
 .UNSPECIFIED. ) ;
#237 = CARTESIAN_POINT ( 'NONE',  ( 1.600000000000000311, 0.3145099200351568758, -1.286211088949093639 ) ) ;
#238 = ORIENTED_EDGE ( 'NONE', *, *, #350, .T. ) ;
#239 = DIRECTION ( 'NONE',  ( -0.000000000000000000, -0.000000000000000000, -1.000000000000000000 ) ) ;
#240 = VERTEX_POINT ( 'NONE', #269 ) ;
#241 = EDGE_CURVE ( 'NONE', #127, #292, #211, .T. ) ;
#242 = CARTESIAN_POINT ( 'NONE',  ( -1.071577446206793294, -1.228845334381784671, -1.299999999999997824 ) ) ;
#243 = ORIENTED_EDGE ( 'NONE', *, *, #149, .F. ) ;
#244 = AXIS2_PLACEMENT_3D ( 'NONE', #338, #440, #599 ) ;
#245 = DIRECTION ( 'NONE',  ( 1.000000000000000000, 0.000000000000000000, 0.000000000000000000 ) ) ;
#246 = VERTEX_POINT ( 'NONE', #381 ) ;
#247 = VERTEX_POINT ( 'NONE', #352 ) ;
#248 = AXIS2_PLACEMENT_3D ( 'NONE', #210, #359, #368 ) ;
#249 = DIRECTION ( 'NONE',  ( -0.000000000000000000, -0.000000000000000000, -1.000000000000000000 ) ) ;
#250 = EDGE_CURVE ( 'NONE', #1, #643, #608, .T. ) ;
#251 = CARTESIAN_POINT ( 'NONE',  ( 1.338915011469748118, 1.074497919112712419, -1.244122093547989749 ) ) ;
#252 = DIRECTION ( 'NONE',  ( 1.000000000000000000, 0.000000000000000000, 0.000000000000000000 ) ) ;
#253 = CARTESIAN_POINT ( 'NONE',  ( -1.600000000000000311, 0.000000000000000000, 0.000000000000000000 ) ) ;
#254 = VECTOR ( 'NONE', #160, 1000.000000000000000 ) ;
#255 = DIRECTION ( 'NONE',  ( 0.000000000000000000, 0.000000000000000000, 1.000000000000000000 ) ) ;
#256 = DIRECTION ( 'NONE',  ( -0.000000000000000000, -0.000000000000000000, 1.000000000000000000 ) ) ;
#257 = CARTESIAN_POINT ( 'NONE',  ( 0.000000000000000000, 0.000000000000000000, -1.300000000000000044 ) ) ;
#258 = VECTOR ( 'NONE', #124, 1000.000000000000000 ) ;
#259 = CARTESIAN_POINT ( 'NONE',  ( 0.8000000000000013767, 1.385640646055101177, -1.300000000000000044 ) ) ;
#260 = ADVANCED_FACE ( 'NONE', ( #588 ), #347, .T. ) ;
#261 = DIRECTION ( 'NONE',  ( -1.000000000000000000, 0.000000000000000000, 0.000000000000000000 ) ) ;
#262 = CARTESIAN_POINT ( 'NONE',  ( -1.600000000000000089, -0.9237604307034051887, -1.157093764036733141 ) ) ;
#263 = ORIENTED_EDGE ( 'NONE', *, *, #128, .F. ) ;
#264 = DIRECTION ( 'NONE',  ( 0.000000000000000000, 0.000000000000000000, -1.000000000000000000 ) ) ;
#265 = CARTESIAN_POINT ( 'NONE',  ( 1.600000000000000089, -0.1561003209258200464, 1.143494478793305458E-16 ) ) ;
#266 = ORIENTED_EDGE ( 'NONE', *, *, #666, .F. ) ;
#267 = CARTESIAN_POINT ( 'NONE',  ( 0.8000000000000039302, -1.385640646055099623, 0.000000000000000000 ) ) ;
#268 = EDGE_CURVE ( 'NONE', #296, #246, #2, .T. ) ;
#269 = CARTESIAN_POINT ( 'NONE',  ( 0.8000000000000013767, 1.385640646055101177, -1.300000000000000044 ) ) ;
#270 = VECTOR ( 'NONE', #203, 1000.000000000000000 ) ;
#271 = ORIENTED_EDGE ( 'NONE', *, *, #653, .T. ) ;
#272 = CARTESIAN_POINT ( 'NONE',  ( 1.599999999999999867, 0.1561930656315213828, 1.324547771268911662E-16 ) ) ;
#273 = UNCERTAINTY_MEASURE_WITH_UNIT (LENGTH_MEASURE( 1.000000000000000082E-05 ), #96, 'distance_accuracy_value', 'NONE');
#274 = LINE ( 'NONE', #426, #390 ) ;
#275 = ORIENTED_EDGE ( 'NONE', *, *, #376, .F. ) ;
#276 = CYLINDRICAL_SURFACE ( 'NONE', #113, 0.8000000000000001554 ) ;
#277 = CARTESIAN_POINT ( 'NONE',  ( -1.600000000000000089, 0.000000000000000000, -1.300000000000000044 ) ) ;
#278 = ORIENTED_EDGE ( 'NONE', *, *, #181, .F. ) ;
#279 = FACE_OUTER_BOUND ( 'NONE', #379, .T. ) ;
#280 = CARTESIAN_POINT ( 'NONE',  ( 0.8000000000000039302, -1.385640646055099623, -1.300000000000000044 ) ) ;
#281 = AXIS2_PLACEMENT_3D ( 'NONE', #513, #410, #632 ) ;
#282 = AXIS2_PLACEMENT_3D ( 'NONE', #67, #642, #59 ) ;
#283 = VERTEX_POINT ( 'NONE', #385 ) ;
#284 = EDGE_CURVE ( 'NONE', #69, #643, #555, .T. ) ;
#285 = CARTESIAN_POINT ( 'NONE',  ( -0.8000000000000038192, 1.385640646055099845, 0.000000000000000000 ) ) ;
#286 = ORIENTED_EDGE ( 'NONE', *, *, #241, .F. ) ;
#287 = CARTESIAN_POINT ( 'NONE',  ( 1.599999999999999867, 0.1561930656315212440, -1.300000000000000044 ) ) ;
#288 = CIRCLE ( 'NONE', #544, 0.6250000000000000000 ) ;
#289 = VERTEX_POINT ( 'NONE', #231 ) ;
#290 = CARTESIAN_POINT ( 'NONE',  ( 0.000000000000000000, 0.000000000000000000, -0.1347899511053712862 ) ) ;
#291 = EDGE_CURVE ( 'NONE', #643, #296, #47, .T. ) ;
#292 = VERTEX_POINT ( 'NONE', #409 ) ;
#293 = CIRCLE ( 'NONE', #597, 0.6250000000000000000 ) ;
#294 = DIRECTION ( 'NONE',  ( 1.000000000000000000, 0.000000000000000000, 0.000000000000000000 ) ) ;
#295 = CARTESIAN_POINT ( 'NONE',  ( 1.600000000000001199, -0.9237604307034030793, -1.157093764036733141 ) ) ;
#296 = VERTEX_POINT ( 'NONE', #619 ) ;
#297 = CARTESIAN_POINT ( 'NONE',  ( -0.8000000000000018208, -1.385640646055101399, -1.300000000000000044 ) ) ;
#298 = ORIENTED_EDGE ( 'NONE', *, *, #529, .F. ) ;
#299 =( GEOMETRIC_REPRESENTATION_CONTEXT ( 3 ) GLOBAL_UNCERTAINTY_ASSIGNED_CONTEXT ( ( #58 ) ) GLOBAL_UNIT_ASSIGNED_CONTEXT ( ( #78, #596, #393 ) ) REPRESENTATION_CONTEXT ( 'NONE', 'WORKASPACE' ) );
#300 = CARTESIAN_POINT ( 'NONE',  ( -0.8000000000000038192, 1.385640646055099845, -1.300000000000000044 ) ) ;
#301 = EDGE_CURVE ( 'NONE', #337, #595, #187, .T. ) ;
#302 = CARTESIAN_POINT ( 'NONE',  ( -1.600000000000000089, -0.9237604307034051887, -0.1429062359632668755 ) ) ;
#303 = VERTEX_POINT ( 'NONE', #349 ) ;
#304 = CARTESIAN_POINT ( 'NONE',  ( 1.600000000000000311, 0.000000000000000000, -1.300000000000000044 ) ) ;
#305 = CARTESIAN_POINT ( 'NONE',  ( -1.600000000000000089, 0.000000000000000000, -1.300000000000000044 ) ) ;
#306 = EDGE_LOOP ( 'NONE', ( #589, #399, #275 ) ) ;
#307 = FACE_BOUND ( 'NONE', #454, .T. ) ;
#308 = CARTESIAN_POINT ( 'NONE',  ( -0.2610849885302532480, 1.696783372997491934, -1.244122093547989305 ) ) ;
#309 = CARTESIAN_POINT ( 'NONE',  ( -1.599999999999999867, -0.1561003209258205737, 1.109613160903133198E-16 ) ) ;
#310 = EDGE_CURVE ( 'NONE', #142, #240, #98, .T. ) ;
#311 = CARTESIAN_POINT ( 'NONE',  ( 0.8000000000000013767, 1.385640646055101177, 0.000000000000000000 ) ) ;
#312 = CARTESIAN_POINT ( 'NONE',  ( -0.8000000000000018208, -1.385640646055101399, -1.300000000000000044 ) ) ;
#313 = AXIS2_PLACEMENT_3D ( 'NONE', #416, #110, #618 ) ;
#314 = CARTESIAN_POINT ( 'NONE',  ( -9.757819552369539906E-16, 1.847520861406804382, -1.157093764036733141 ) ) ;
#315 = PRODUCT_DEFINITION ( 'General', '', #204, #50 ) ;
#316 = ORIENTED_EDGE ( 'NONE', *, *, #152, .T. ) ;
#317 = CARTESIAN_POINT ( 'NONE',  ( 1.600000000000000311, 0.000000000000000000, 0.000000000000000000 ) ) ;
#318 = APPLICATION_CONTEXT ( 'automotive_design' ) ;
#319 = FACE_OUTER_BOUND ( 'NONE', #654, .T. ) ;
#320 = EDGE_LOOP ( 'NONE', ( #80, #232, #651 ) ) ;
#321 = ADVANCED_FACE ( 'NONE', ( #307, #144 ), #353, .T. ) ;
#322 = PLANE ( 'NONE',  #604 ) ;
#323 = AXIS2_PLACEMENT_3D ( 'NONE', #25, #606, #668 ) ;
#324 = DIRECTION ( 'NONE',  ( -1.000000000000000000, 0.000000000000000000, 0.000000000000000000 ) ) ;
#325 = ORIENTED_EDGE ( 'NONE', *, *, #92, .T. ) ;
#326 = B_SPLINE_CURVE_WITH_KNOTS ( 'NONE', 3,
 ( #38, #675, #28, #302 ),
 .UNSPECIFIED., .F., .F.,
 ( 4, 4 ),
 ( 0.0009349328872549574109, 0.001866139041432151495 ),
 .UNSPECIFIED. ) ;
#327 = CARTESIAN_POINT ( 'NONE',  ( -1.599999999999999867, 0.1561930656315200228, 1.334076891925522541E-16 ) ) ;
#328 = AXIS2_PLACEMENT_3D ( 'NONE', #154, #99, #522 ) ;
#329 = DIRECTION ( 'NONE',  ( 1.000000000000000000, 0.000000000000000000, 0.000000000000000000 ) ) ;
#330 = EDGE_LOOP ( 'NONE', ( #351, #647, #20 ) ) ;
#331 = CARTESIAN_POINT ( 'NONE',  ( 0.000000000000000000, 0.000000000000000000, 0.000000000000000000 ) ) ;
#332 = CARTESIAN_POINT ( 'NONE',  ( 1.599999999999999867, -0.7735182806158357183, -0.09953506306491687050 ) ) ;
#333 = VERTEX_POINT ( 'NONE', #402 ) ;
#334 = CARTESIAN_POINT ( 'NONE',  ( 0.000000000000000000, 0.000000000000000000, -1.300000000000000044 ) ) ;
#335 = DIRECTION ( 'NONE',  ( -0.000000000000000000, -0.000000000000000000, 1.000000000000000000 ) ) ;
#336 = ADVANCED_FACE ( 'NONE', ( #607 ), #616, .T. ) ;
#337 = VERTEX_POINT ( 'NONE', #140 ) ;
#338 = CARTESIAN_POINT ( 'NONE',  ( 0.000000000000000000, 0.000000000000000000, 0.000000000000000000 ) ) ;
#339 = AXIS2_PLACEMENT_3D ( 'NONE', #484, #335, #346 ) ;
#340 = EDGE_LOOP ( 'NONE', ( #490, #485, #557, #65, #91, #13 ) ) ;
#341 = ORIENTED_EDGE ( 'NONE', *, *, #559, .T. ) ;
#342 = CARTESIAN_POINT ( 'NONE',  ( 1.600000000000000089, 0.7743935190804275281, -1.200212277353507995 ) ) ;
#343 = EDGE_CURVE ( 'NONE', #643, #76, #326, .T. ) ;
#344 = VERTEX_POINT ( 'NONE', #505 ) ;
#345 = DIRECTION ( 'NONE',  ( -0.000000000000000000, -0.000000000000000000, 1.000000000000000000 ) ) ;
#346 = DIRECTION ( 'NONE',  ( 1.000000000000000000, 0.000000000000000000, 0.000000000000000000 ) ) ;
#347 = CONICAL_SURFACE ( 'NONE', #163, 1.600000000000000311, 1.047197551196596521 ) ;
#348 = CARTESIAN_POINT ( 'NONE',  ( 0.000000000000000000, 0.000000000000000000, 0.000000000000000000 ) ) ;
#349 = CARTESIAN_POINT ( 'NONE',  ( 0.8000000000000013767, 1.385640646055101177, 0.000000000000000000 ) ) ;
#350 = EDGE_CURVE ( 'NONE', #611, #611, #293, .T. ) ;
#351 = ORIENTED_EDGE ( 'NONE', *, *, #686, .F. ) ;
#352 = CARTESIAN_POINT ( 'NONE',  ( 0.6250000000000000000, 0.000000000000000000, -0.1225363191867011314 ) ) ;
#353 = PLANE ( 'NONE',  #587 ) ;
#354 = APPLICATION_CONTEXT ( 'automotive_design' ) ;
#355 = EDGE_LOOP ( 'NONE', ( #552 ) ) ;
#356 = CONICAL_SURFACE ( 'NONE', #323, 1.600000000000000311, 1.047197551196596521 ) ;
#357 = CARTESIAN_POINT ( 'NONE',  ( 0.8000000000000001554, 0.000000000000000000, -1.299999999999999156 ) ) ;
#358 = CARTESIAN_POINT ( 'NONE',  ( 1.600000000000000311, -0.6196408451756364455, -1.236841864561646354 ) ) ;
#359 = DIRECTION ( 'NONE',  ( 0.000000000000000000, 0.000000000000000000, 1.000000000000000000 ) ) ;
#360 = CONICAL_SURFACE ( 'NONE', #228, 1.600000000000000311, 1.047197551196596521 ) ;
#361 = CARTESIAN_POINT ( 'NONE',  ( -1.600000000000000089, 0.9237604307033978612, -1.300000000000000044 ) ) ;
#362 = DIRECTION ( 'NONE',  ( 0.000000000000000000, 0.000000000000000000, 1.000000000000000000 ) ) ;
#363 = DIRECTION ( 'NONE',  ( 1.000000000000000000, 0.000000000000000000, 0.000000000000000000 ) ) ;
#364 = ADVANCED_FACE ( 'NONE', ( #90 ), #512, .T. ) ;
#365 = FACE_OUTER_BOUND ( 'NONE', #320, .T. ) ;
#366 = B_SPLINE_CURVE_WITH_KNOTS ( 'NONE', 3,
 ( #262, #51, #470, #684, #561, #305 ),
 .UNSPECIFIED., .F., .F.,
 ( 4, 2, 4 ),
 ( 0.001648110004698740035, 0.002115368374078846741, 0.002582626743458953447 ),
 .UNSPECIFIED. ) ;
#367 = CARTESIAN_POINT ( 'NONE',  ( 1.072594880101053416, -1.228257918649049429, -1.689788026573206126E-15 ) ) ;
#368 = DIRECTION ( 'NONE',  ( 1.000000000000000000, 0.000000000000000000, -0.000000000000000000 ) ) ;
#369 = EDGE_LOOP ( 'NONE', ( #610, #145, #614, #73, #29, #170 ) ) ;
#370 = DIRECTION ( 'NONE',  ( 1.000000000000000000, 0.000000000000000000, 0.000000000000000000 ) ) ;
#371 = FACE_OUTER_BOUND ( 'NONE', #417, .T. ) ;
#372 = EDGE_CURVE ( 'NONE', #661, #682, #573, .T. ) ;
#373 = CARTESIAN_POINT ( 'NONE',  ( -1.600000000000000311, 0.000000000000000000, 0.000000000000000000 ) ) ;
#374 = FACE_BOUND ( 'NONE', #427, .T. ) ;
#375 = ORIENTED_EDGE ( 'NONE', *, *, #570, .F. ) ;
#376 = EDGE_CURVE ( 'NONE', #477, #44, #609, .T. ) ;
#377 = CARTESIAN_POINT ( 'NONE',  ( -1.600000000000000089, -0.9237604307034065210, -1.300000000000000044 ) ) ;
#378 = CARTESIAN_POINT ( 'NONE',  ( -1.600000000000000089, 0.6230673364534345948, -1.236121373721815297 ) ) ;
#379 = EDGE_LOOP ( 'NONE', ( #487, #229, #212 ) ) ;
#380 = CARTESIAN_POINT ( 'NONE',  ( -1.072594880101051862, 1.228257918649044544, 1.254312894516708444E-15 ) ) ;
#381 = CARTESIAN_POINT ( 'NONE',  ( 1.600000000000000311, 0.000000000000000000, 0.000000000000000000 ) ) ;
#382 = ORIENTED_EDGE ( 'NONE', *, *, #101, .F. ) ;
#383 = FACE_OUTER_BOUND ( 'NONE', #541, .T. ) ;
#384 = ADVANCED_FACE ( 'NONE', ( #509, #547 ), #665, .F. ) ;
#385 = CARTESIAN_POINT ( 'NONE',  ( 1.600000000000001199, -0.9237604307034030793, -0.1429062359632668755 ) ) ;
#386 = ORIENTED_EDGE ( 'NONE', *, *, #653, .F. ) ;
#387 = FACE_OUTER_BOUND ( 'NONE', #355, .T. ) ;
#388 = ORIENTED_EDGE ( 'NONE', *, *, #376, .T. ) ;
#389 = AXIS2_PLACEMENT_3D ( 'NONE', #151, #43, #674 ) ;
#390 = VECTOR ( 'NONE', #592, 1000.000000000000000 ) ;
#391 = ORIENTED_EDGE ( 'NONE', *, *, #529, .T. ) ;
#392 = EDGE_CURVE ( 'NONE', #542, #344, #672, .T. ) ;
#393 =( NAMED_UNIT ( * ) SI_UNIT ( $, .STERADIAN. ) SOLID_ANGLE_UNIT ( ) );
#394 = ORIENTED_EDGE ( 'NONE', *, *, #171, .T. ) ;
#395 = CARTESIAN_POINT ( 'NONE',  ( -9.324138683375338132E-15, -1.847520861406804382, -0.1429062359632668755 ) ) ;
#396 = ORIENTED_EDGE ( 'NONE', *, *, #538, .T. ) ;
#397 = CARTESIAN_POINT ( 'NONE',  ( -1.600000000000000089, -0.9237604307034051887, -1.157093764036733141 ) ) ;
#398 = DIRECTION ( 'NONE',  ( 1.000000000000000000, 0.000000000000000000, -0.000000000000000000 ) ) ;
#399 = ORIENTED_EDGE ( 'NONE', *, *, #214, .F. ) ;
#400 = CIRCLE ( 'NONE', #667, 1.600000000000000089 ) ;
#401 = CARTESIAN_POINT ( 'NONE',  ( 0.8000000000000000444, 0.000000000000000000, -1.274600000000000843 ) ) ;
#402 = CARTESIAN_POINT ( 'NONE',  ( -9.757819552369539906E-16, 1.847520861406804382, -1.157093764036733141 ) ) ;
#403 = EDGE_LOOP ( 'NONE', ( #624 ) ) ;
#404 = CARTESIAN_POINT ( 'NONE',  ( -1.072594880101050974, 1.228257918649044989, -1.300000000000001155 ) ) ;
#405 = B_SPLINE_CURVE_WITH_KNOTS ( 'NONE', 3,
 ( #569, #111, #167, #312 ),
 .UNSPECIFIED., .F., .F.,
 ( 4, 4 ),
 ( 2.380755436589904455E-07, 0.0009349328872549574109 ),
 .UNSPECIFIED. ) ;
#406 = DIRECTION ( 'NONE',  ( 1.000000000000000000, -8.881784197001252323E-16, 0.000000000000000000 ) ) ;
#407 = FACE_OUTER_BOUND ( 'NONE', #159, .T. ) ;
#408 = CIRCLE ( 'NONE', #594, 1.600000000000000089 ) ;
#409 = CARTESIAN_POINT ( 'NONE',  ( -9.324138683375338132E-15, -1.847520861406804382, -1.157093764036733141 ) ) ;
#410 = DIRECTION ( 'NONE',  ( 0.000000000000000000, 0.000000000000000000, -1.000000000000000000 ) ) ;
#411 = ADVANCED_FACE ( 'NONE', ( #461 ), #206, .T. ) ;
#412 = CARTESIAN_POINT ( 'NONE',  ( 8.137537409826312516E-16, -1.847520861406810599, -1.300000000000000044 ) ) ;
#413 = B_SPLINE_CURVE_WITH_KNOTS ( 'NONE', 3,
 ( #655, #287, #237, #185, #342, #543 ),
 .UNSPECIFIED., .F., .F.,
 ( 4, 2, 4 ),
 ( 0.002582626743458948677, 0.003050162727514653047, 0.003517698711570357850 ),
 .UNSPECIFIED. ) ;
#414 = CARTESIAN_POINT ( 'NONE',  ( -1.600000000000000089, -0.9237604307034051887, -0.1429062359632668755 ) ) ;
#415 = CARTESIAN_POINT ( 'NONE',  ( 1.600000000000000089, 0.7743935190804274171, -0.09978772264649193868 ) ) ;
#416 = CARTESIAN_POINT ( 'NONE',  ( 0.000000000000000000, 0.000000000000000000, 0.000000000000000000 ) ) ;
#417 = EDGE_LOOP ( 'NONE', ( #108, #678, #388, #271, #531, #95 ) ) ;
#418 = LINE ( 'NONE', #631, #254 ) ;
#419 = ADVANCED_FACE ( 'NONE', ( #497 ), #563, .T. ) ;
#420 = DIRECTION ( 'NONE',  ( -0.000000000000000000, -0.000000000000000000, -1.000000000000000000 ) ) ;
#421 = B_SPLINE_CURVE_WITH_KNOTS ( 'NONE', 3,
 ( #471, #680, #367, #640 ),
 .UNSPECIFIED., .F., .F.,
 ( 4, 4 ),
 ( 2.380755436452987667E-07, 0.0009349328872549447257 ),
 .UNSPECIFIED. ) ;
#422 = CARTESIAN_POINT ( 'NONE',  ( 1.600000000000000089, 0.9237604307034051887, -0.1429062359632668755 ) ) ;
#423 = AXIS2_PLACEMENT_3D ( 'NONE', #158, #676, #201 ) ;
#424 = CARTESIAN_POINT ( 'NONE',  ( 0.000000000000000000, 0.000000000000000000, 0.000000000000000000 ) ) ;
#425 = LINE ( 'NONE', #466, #10 ) ;
#426 = CARTESIAN_POINT ( 'NONE',  ( 1.600000000000000089, -0.9237604307034037454, -1.300000000000000044 ) ) ;
#427 = EDGE_LOOP ( 'NONE', ( #238 ) ) ;
#428 = DIRECTION ( 'NONE',  ( -1.000000000000000000, 0.000000000000000000, 0.000000000000000000 ) ) ;
#429 = CIRCLE ( 'NONE', #244, 1.600000000000000089 ) ;
#430 = CARTESIAN_POINT ( 'NONE',  ( 1.600000000000000311, -0.6196408451756364455, -0.06315813543835414878 ) ) ;
#431 = ORIENTED_EDGE ( 'NONE', *, *, #581, .T. ) ;
#432 = ADVANCED_FACE ( 'NONE', ( #115 ), #168, .T. ) ;
#433 = DIRECTION ( 'NONE',  ( -0.000000000000000000, -0.000000000000000000, 1.000000000000000000 ) ) ;
#434 = CARTESIAN_POINT ( 'NONE',  ( 0.5284225537932129013, -1.542435957728428342, -1.299999999999998268 ) ) ;
#435 = EDGE_LOOP ( 'NONE', ( #184, #188, #396, #191, #278, #263 ) ) ;
#436 = DIRECTION ( 'NONE',  ( -0.000000000000000000, -0.000000000000000000, 1.000000000000000000 ) ) ;
#437 = EDGE_CURVE ( 'NONE', #333, #595, #425, .T. ) ;
#438 = DIRECTION ( 'NONE',  ( 1.000000000000000000, 0.000000000000000000, 0.000000000000000000 ) ) ;
#439 = EDGE_LOOP ( 'NONE', ( #391 ) ) ;
#440 = DIRECTION ( 'NONE',  ( 0.000000000000000000, 0.000000000000000000, 1.000000000000000000 ) ) ;
#441 = AXIS2_PLACEMENT_3D ( 'NONE', #209, #264, #261 ) ;
#442 = EDGE_CURVE ( 'NONE', #27, #27, #70, .T. ) ;
#443 = ORIENTED_EDGE ( 'NONE', *, *, #101, .T. ) ;
#444 = DIRECTION ( 'NONE',  ( 1.000000000000000000, 0.000000000000000000, 0.000000000000000000 ) ) ;
#445 = ORIENTED_EDGE ( 'NONE', *, *, #301, .F. ) ;
#446 = CARTESIAN_POINT ( 'NONE',  ( 0.2610849885302508055, -1.696783372997499484, -0.05587790645201454187 ) ) ;
#447 = ORIENTED_EDGE ( 'NONE', *, *, #221, .T. ) ;
#448 =( NAMED_UNIT ( * ) PLANE_ANGLE_UNIT ( ) SI_UNIT ( $, .RADIAN. ) );
#449 = CARTESIAN_POINT ( 'NONE',  ( 0.000000000000000000, 0.000000000000000000, 0.000000000000000000 ) ) ;
#450 = EDGE_LOOP ( 'NONE', ( #464, #527, #499 ) ) ;
#451 = EDGE_CURVE ( 'NONE', #283, #296, #421, .T. ) ;
#452 = CARTESIAN_POINT ( 'NONE',  ( 1.600000000000000089, -0.3111893021712299756, -1.286582259567350173 ) ) ;
#453 = B_SPLINE_CURVE_WITH_KNOTS ( 'NONE', 3,
 ( #479, #54, #533, #378, #536, #177 ),
 .UNSPECIFIED., .F., .F.,
 ( 4, 2, 4 ),
 ( 0.002582626743458953447, 0.003050162727514657383, 0.003517698711570361753 ),
 .UNSPECIFIED. ) ;
#454 = EDGE_LOOP ( 'NONE', ( #56 ) ) ;
#455 = CARTESIAN_POINT ( 'NONE',  ( -1.600000000000000089, -0.9237604307034051887, -1.157093764036733141 ) ) ;
#456 = CARTESIAN_POINT ( 'NONE',  ( 0.000000000000000000, 0.000000000000000000, 0.000000000000000000 ) ) ;
#457 = PRODUCT_CONTEXT ( 'NONE', #318, 'mechanical' ) ;
#458 = DIRECTION ( 'NONE',  ( 0.000000000000000000, 0.000000000000000000, 1.000000000000000000 ) ) ;
#459 = ADVANCED_FACE ( 'NONE', ( #48 ), #629, .T. ) ;
#460 = CARTESIAN_POINT ( 'NONE',  ( 1.071577446206790629, 1.228845334381780230, -1.300000000000000711 ) ) ;
#461 = FACE_OUTER_BOUND ( 'NONE', #494, .T. ) ;
#462 = LINE ( 'NONE', #575, #633 ) ;
#463 = PRODUCT_RELATED_PRODUCT_CATEGORY ( 'part', '', ( #120 ) ) ;
#464 = ORIENTED_EDGE ( 'NONE', *, *, #372, .T. ) ;
#465 = CONICAL_SURFACE ( 'NONE', #423, 1.600000000000000311, 1.047197551196596521 ) ;
#466 = CARTESIAN_POINT ( 'NONE',  ( -9.188490299480120041E-16, 1.847520861406804382, -1.300000000000000044 ) ) ;
#467 = CARTESIAN_POINT ( 'NONE',  ( 1.600000000000000089, 0.9237604307034051887, -1.157093764036733141 ) ) ;
#468 = EDGE_CURVE ( 'NONE', #477, #127, #508, .T. ) ;
#469 = DIRECTION ( 'NONE',  ( 0.000000000000000000, 0.000000000000000000, 1.000000000000000000 ) ) ;
#470 = CARTESIAN_POINT ( 'NONE',  ( -1.600000000000000311, -0.6196408451756382219, -1.236841864561645687 ) ) ;
#471 = CARTESIAN_POINT ( 'NONE',  ( 1.600000000000001199, -0.9237604307034030793, -0.1429062359632668755 ) ) ;
#472 = CARTESIAN_POINT ( 'NONE',  ( 1.338915011469747895, 1.074497919112712419, -0.05587790645201007322 ) ) ;
#473 = ORIENTED_EDGE ( 'NONE', *, *, #214, .T. ) ;
#474 = CARTESIAN_POINT ( 'NONE',  ( 0.5284225537932129013, -1.542435957728428120, -1.689788026573206126E-15 ) ) ;
#475 = AXIS2_PLACEMENT_3D ( 'NONE', #197, #255, #252 ) ;
#476 = DIRECTION ( 'NONE',  ( 0.000000000000000000, 0.000000000000000000, 1.000000000000000000 ) ) ;
#477 = VERTEX_POINT ( 'NONE', #103 ) ;
#478 = CARTESIAN_POINT ( 'NONE',  ( -1.600000000000000089, 0.9237604307033978612, -0.1429062359632647938 ) ) ;
#479 = CARTESIAN_POINT ( 'NONE',  ( -1.600000000000000089, 0.000000000000000000, -1.300000000000000044 ) ) ;
#480 = EDGE_CURVE ( 'NONE', #246, #519, #637, .T. ) ;
#481 = EDGE_LOOP ( 'NONE', ( #125, #6, #133 ) ) ;
#482 = CARTESIAN_POINT ( 'NONE',  ( 0.000000000000000000, 0.000000000000000000, -25.03750572909317285 ) ) ;
#483 = ADVANCED_BREP_SHAPE_REPRESENTATION ( 'ISO - 4032 - M1.6 - D - N_ISO - 4032 - M1.6 - D - N', ( #641, #94 ), #580 ) ;
#484 = CARTESIAN_POINT ( 'NONE',  ( 0.000000000000000000, 0.000000000000000000, -1.300000000000000044 ) ) ;
#485 = ORIENTED_EDGE ( 'NONE', *, *, #284, .T. ) ;
#486 = CARTESIAN_POINT ( 'NONE',  ( 0.2610849885302508611, -1.696783372997499262, -1.244122093547985308 ) ) ;
#487 = ORIENTED_EDGE ( 'NONE', *, *, #679, .T. ) ;
#488 = CARTESIAN_POINT ( 'NONE',  ( -9.757819552369539906E-16, 1.847520861406804382, -0.1429062359632668755 ) ) ;
#489 = EDGE_CURVE ( 'NONE', #292, #661, #405, .T. ) ;
#490 = ORIENTED_EDGE ( 'NONE', *, *, #149, .T. ) ;
#491 = DIRECTION ( 'NONE',  ( -0.000000000000000000, -0.000000000000000000, 1.000000000000000000 ) ) ;
#492 = ADVANCED_FACE ( 'NONE', ( #683 ), #322, .T. ) ;
#493 = PRESENTATION_LAYER_ASSIGNMENT (  '', '', ( #134 ) ) ;
#494 = EDGE_LOOP ( 'NONE', ( #316, #37, #585, #243, #286, #24 ) ) ;
#495 = ORIENTED_EDGE ( 'NONE', *, *, #489, .T. ) ;
#496 = VERTEX_POINT ( 'NONE', #504 ) ;
#497 = FACE_OUTER_BOUND ( 'NONE', #481, .T. ) ;
#498 = B_SPLINE_CURVE_WITH_KNOTS ( 'NONE', 3,
 ( #74, #11, #380, #285 ),
 .UNSPECIFIED., .F., .F.,
 ( 4, 4 ),
 ( 2.380755436465771248E-07, 0.0009349328872549474362 ),
 .UNSPECIFIED. ) ;
#499 = ORIENTED_EDGE ( 'NONE', *, *, #193, .F. ) ;
#500 = EDGE_CURVE ( 'NONE', #76, #1, #161, .T. ) ;
#501 = CARTESIAN_POINT ( 'NONE',  ( 0.8000000000000013767, 1.385640646055101177, -1.300000000000000044 ) ) ;
#502 = CARTESIAN_POINT ( 'NONE',  ( 0.000000000000000000, 0.000000000000000000, -1.300000000000000044 ) ) ;
#503 = ORIENTED_EDGE ( 'NONE', *, *, #310, .T. ) ;
#504 = CARTESIAN_POINT ( 'NONE',  ( 0.7999999999999999334, 0.000000000000000000, 0.000000000000000000 ) ) ;
#505 = CARTESIAN_POINT ( 'NONE',  ( -1.600000000000000089, 0.9237604307033978612, -0.1429062359632647938 ) ) ;
#506 = ORIENTED_EDGE ( 'NONE', *, *, #548, .F. ) ;
#507 = AXIS2_PLACEMENT_3D ( 'NONE', #502, #249, #406 ) ;
#508 = B_SPLINE_CURVE_WITH_KNOTS ( 'NONE', 3,
 ( #105, #645, #685, #515 ),
 .UNSPECIFIED., .F., .F.,
 ( 4, 4 ),
 ( 2.380755436452871995E-07, 0.0009349328872549447257 ),
 .UNSPECIFIED. ) ;
#509 = FACE_OUTER_BOUND ( 'NONE', #605, .T. ) ;
#510 = EDGE_CURVE ( 'NONE', #682, #76, #418, .T. ) ;
#511 = CARTESIAN_POINT ( 'NONE',  ( 0.000000000000000000, 0.000000000000000000, -1.300000000000000044 ) ) ;
#512 = PLANE ( 'NONE',  #677 ) ;
#513 = CARTESIAN_POINT ( 'NONE',  ( 0.000000000000000000, 0.000000000000000000, 0.000000000000000000 ) ) ;
#514 = AXIS2_PLACEMENT_3D ( 'NONE', #290, #433, #179 ) ;
#515 = CARTESIAN_POINT ( 'NONE',  ( 0.8000000000000039302, -1.385640646055099623, -1.300000000000000044 ) ) ;
#516 = DIRECTION ( 'NONE',  ( -1.000000000000000000, 0.000000000000000000, 0.000000000000000000 ) ) ;
#517 = CARTESIAN_POINT ( 'NONE',  ( 1.600000000000000311, 0.3145099200351570423, -0.01378891105090637552 ) ) ;
#518 = FACE_BOUND ( 'NONE', #131, .T. ) ;
#519 = VERTEX_POINT ( 'NONE', #422 ) ;
#520 = CARTESIAN_POINT ( 'NONE',  ( -1.600000000000000311, 0.000000000000000000, 0.000000000000000000 ) ) ;
#521 = B_SPLINE_CURVE_WITH_KNOTS ( 'NONE', 3,
 ( #143, #546, #135, #501 ),
 .UNSPECIFIED., .F., .F.,
 ( 4, 4 ),
 ( 2.380755436468478312E-07, 0.0009349328872549540499 ),
 .UNSPECIFIED. ) ;
#522 = DIRECTION ( 'NONE',  ( 0.000000000000000000, 0.000000000000000000, 1.000000000000000000 ) ) ;
#523 = ORIENTED_EDGE ( 'NONE', *, *, #4, .T. ) ;
#524 = AXIS2_PLACEMENT_3D ( 'NONE', #109, #155, #219 ) ;
#525 = DIRECTION ( 'NONE',  ( 0.8660254037844381525, -0.5000000000000008882, 0.000000000000000000 ) ) ;
#526 = LINE ( 'NONE', #530, #258 ) ;
#527 = ORIENTED_EDGE ( 'NONE', *, *, #128, .T. ) ;
#528 = CARTESIAN_POINT ( 'NONE',  ( -1.600000000000000311, 0.3145099200351543223, -0.01378891105090625409 ) ) ;
#529 = EDGE_CURVE ( 'NONE', #247, #247, #288, .T. ) ;
#530 = CARTESIAN_POINT ( 'NONE',  ( 8.137537409826312516E-16, -1.847520861406810599, -1.300000000000000044 ) ) ;
#531 = ORIENTED_EDGE ( 'NONE', *, *, #14, .T. ) ;
#532 = CARTESIAN_POINT ( 'NONE',  ( 0.000000000000000000, 0.000000000000000000, -1.300000000000000044 ) ) ;
#533 = CARTESIAN_POINT ( 'NONE',  ( -1.600000000000000311, 0.3145099200351565427, -1.286211088949093639 ) ) ;
#534 = EDGE_LOOP ( 'NONE', ( #61 ) ) ;
#535 = SURFACE_STYLE_USAGE ( .BOTH. , #129 ) ;
#536 = CARTESIAN_POINT ( 'NONE',  ( -1.600000000000000089, 0.7743935190804273061, -1.200212277353507995 ) ) ;
#537 = ORIENTED_EDGE ( 'NONE', *, *, #268, .F. ) ;
#538 = EDGE_CURVE ( 'NONE', #1, #344, #62, .T. ) ;
#539 = DIRECTION ( 'NONE',  ( -0.000000000000000000, -0.000000000000000000, 1.000000000000000000 ) ) ;
#540 = AXIS2_PLACEMENT_3D ( 'NONE', #449, #669, #245 ) ;
#541 = EDGE_LOOP ( 'NONE', ( #325 ) ) ;
#542 = VERTEX_POINT ( 'NONE', #7 ) ;
#543 = CARTESIAN_POINT ( 'NONE',  ( 1.600000000000000089, 0.9237604307034051887, -1.157093764036733141 ) ) ;
#544 = AXIS2_PLACEMENT_3D ( 'NONE', #164, #63, #370 ) ;
#545 = ORIENTED_EDGE ( 'NONE', *, *, #437, .T. ) ;
#546 = CARTESIAN_POINT ( 'NONE',  ( 0.2617371745299281738, 1.696406833235017508, -1.244339488882327593 ) ) ;
#547 = FACE_OUTER_BOUND ( 'NONE', #534, .T. ) ;
#548 = EDGE_CURVE ( 'NONE', #296, #69, #583, .T. ) ;
#549 = CIRCLE ( 'NONE', #196, 1.600000000000000089 ) ;
#550 = ORIENTED_EDGE ( 'NONE', *, *, #679, .F. ) ;
#551 = DIRECTION ( 'NONE',  ( -1.000000000000000000, 0.000000000000000000, 0.000000000000000000 ) ) ;
#552 = ORIENTED_EDGE ( 'NONE', *, *, #442, .T. ) ;
#553 = CARTESIAN_POINT ( 'NONE',  ( -0.6250000000000000000, 0.000000000000000000, -1.152063680813299351 ) ) ;
#554 = DIRECTION ( 'NONE',  ( 0.000000000000000000, 0.000000000000000000, 1.000000000000000000 ) ) ;
#555 = B_SPLINE_CURVE_WITH_KNOTS ( 'NONE', 3,
 ( #395, #660, #190, #603 ),
 .UNSPECIFIED., .F., .F.,
 ( 4, 4 ),
 ( 2.380755436590010070E-07, 0.0009349328872549574109 ),
 .UNSPECIFIED. ) ;
#556 = AXIS2_PLACEMENT_3D ( 'NONE', #123, #539, #19 ) ;
#557 = ORIENTED_EDGE ( 'NONE', *, *, #343, .T. ) ;
#558 = CARTESIAN_POINT ( 'NONE',  ( -1.338262825470071027, 1.074874458875185512, -1.244339488882329370 ) ) ;
#559 = EDGE_CURVE ( 'NONE', #208, #142, #644, .T. ) ;
#560 = DIRECTION ( 'NONE',  ( -0.8660254037844372643, -0.5000000000000023315, 0.000000000000000000 ) ) ;
#561 = CARTESIAN_POINT ( 'NONE',  ( -1.600000000000000089, -0.1561003209258205182, -1.300000000000000266 ) ) ;
#562 = CONICAL_SURFACE ( 'NONE', #621, 1.600000000000000311, 1.047197551196596521 ) ;
#563 = CONICAL_SURFACE ( 'NONE', #139, 1.600000000000000311, 1.047197551196596521 ) ;
#564 = ADVANCED_FACE ( 'NONE', ( #279 ), #22, .T. ) ;
#565 = DIRECTION ( 'NONE',  ( -1.000000000000000000, 0.000000000000000000, 0.000000000000000000 ) ) ;
#566 = CARTESIAN_POINT ( 'NONE',  ( -9.324138683375338132E-15, -1.847520861406804382, -0.1429062359632668755 ) ) ;
#567 = DIRECTION ( 'NONE',  ( -0.5000000000000008882, -0.8660254037844381525, 0.000000000000000000 ) ) ;
#568 = CARTESIAN_POINT ( 'NONE',  ( 0.000000000000000000, 0.000000000000000000, -1.274600000000000843 ) ) ;
#569 = CARTESIAN_POINT ( 'NONE',  ( -9.324138683375338132E-15, -1.847520861406804382, -1.157093764036733141 ) ) ;
#570 = EDGE_CURVE ( 'NONE', #303, #337, #408, .T. ) ;
#571 = FACE_OUTER_BOUND ( 'NONE', #330, .T. ) ;
#572 = AXIS2_PLACEMENT_3D ( 'NONE', #217, #584, #324 ) ;
#573 = B_SPLINE_CURVE_WITH_KNOTS ( 'NONE', 3,
 ( #297, #242, #622, #455 ),
 .UNSPECIFIED., .F., .F.,
 ( 4, 4 ),
 ( 0.0009349328872549574109, 0.001866139041432151495 ),
 .UNSPECIFIED. ) ;
#574 = DIRECTION ( 'NONE',  ( -0.000000000000000000, -0.000000000000000000, 1.000000000000000000 ) ) ;
#575 = CARTESIAN_POINT ( 'NONE',  ( 1.600000000000000089, 0.9237604307034006368, -1.300000000000000044 ) ) ;
#576 = CARTESIAN_POINT ( 'NONE',  ( -1.600000000000000089, 0.6230673364534299319, -0.06387862627818352568 ) ) ;
#577 = CARTESIAN_POINT ( 'NONE',  ( 1.600000000000000089, 0.9237604307034051887, -0.1429062359632668755 ) ) ;
#578 = ORIENTED_EDGE ( 'NONE', *, *, #442, .F. ) ;
#579 = AXIS2_PLACEMENT_3D ( 'NONE', #348, #345, #294 ) ;
#580 =( GEOMETRIC_REPRESENTATION_CONTEXT ( 3 ) GLOBAL_UNCERTAINTY_ASSIGNED_CONTEXT ( ( #273 ) ) GLOBAL_UNIT_ASSIGNED_CONTEXT ( ( #96, #448, #601 ) ) REPRESENTATION_CONTEXT ( 'NONE', 'WORKASPACE' ) );
#581 = EDGE_CURVE ( 'NONE', #344, #337, #498, .T. ) ;
#582 = CARTESIAN_POINT ( 'NONE',  ( -1.600000000000000311, -0.7735182806158377167, -0.09953506306491734235 ) ) ;
#583 = B_SPLINE_CURVE_WITH_KNOTS ( 'NONE', 3,
 ( #267, #474, #446, #132 ),
 .UNSPECIFIED., .F., .F.,
 ( 4, 4 ),
 ( 0.0009349328872549447257, 0.001866139041432156049 ),
 .UNSPECIFIED. ) ;
#584 = DIRECTION ( 'NONE',  ( 0.000000000000000000, 0.000000000000000000, -1.000000000000000000 ) ) ;
#585 = ORIENTED_EDGE ( 'NONE', *, *, #548, .T. ) ;
#586 = DIRECTION ( 'NONE',  ( 1.000000000000000000, 0.000000000000000000, 0.000000000000000000 ) ) ;
#587 = AXIS2_PLACEMENT_3D ( 'NONE', #150, #554, #398 ) ;
#588 = FACE_OUTER_BOUND ( 'NONE', #117, .T. ) ;
#589 = ORIENTED_EDGE ( 'NONE', *, *, #468, .T. ) ;
#590 = SURFACE_STYLE_FILL_AREA ( #176 ) ;
#591 = ADVANCED_FACE ( 'NONE', ( #118 ), #41, .T. ) ;
#592 = DIRECTION ( 'NONE',  ( 0.000000000000000000, 0.000000000000000000, 1.000000000000000000 ) ) ;
#593 = ORIENTED_EDGE ( 'NONE', *, *, #666, .T. ) ;
#594 = AXIS2_PLACEMENT_3D ( 'NONE', #331, #652, #172 ) ;
#595 = VERTEX_POINT ( 'NONE', #488 ) ;
#596 =( NAMED_UNIT ( * ) PLANE_ANGLE_UNIT ( ) SI_UNIT ( $, .RADIAN. ) );
#597 = AXIS2_PLACEMENT_3D ( 'NONE', #35, #100, #551 ) ;
#598 = ORIENTED_EDGE ( 'NONE', *, *, #241, .T. ) ;
#599 = DIRECTION ( 'NONE',  ( 1.000000000000000000, 0.000000000000000000, 0.000000000000000000 ) ) ;
#600 = EDGE_LOOP ( 'NONE', ( #83, #178, #506 ) ) ;
#601 =( NAMED_UNIT ( * ) SI_UNIT ( $, .STERADIAN. ) SOLID_ANGLE_UNIT ( ) );
#602 = EDGE_CURVE ( 'NONE', #496, #496, #617, .T. ) ;
#603 = CARTESIAN_POINT ( 'NONE',  ( -0.8000000000000018208, -1.385640646055101399, 0.000000000000000000 ) ) ;
#604 = AXIS2_PLACEMENT_3D ( 'NONE', #377, #567, #525 ) ;
#605 = EDGE_LOOP ( 'NONE', ( #298 ) ) ;
#606 = DIRECTION ( 'NONE',  ( -0.000000000000000000, -0.000000000000000000, 1.000000000000000000 ) ) ;
#607 = FACE_OUTER_BOUND ( 'NONE', #435, .T. ) ;
#608 = CIRCLE ( 'NONE', #634, 1.600000000000000089 ) ;
#609 = B_SPLINE_CURVE_WITH_KNOTS ( 'NONE', 3,
 ( #295, #32, #358, #452, #97, #304 ),
 .UNSPECIFIED., .F., .F.,
 ( 4, 2, 4 ),
 ( 0.001648110004698737649, 0.002115368374078843271, 0.002582626743458948677 ),
 .UNSPECIFIED. ) ;
#610 = ORIENTED_EDGE ( 'NONE', *, *, #268, .T. ) ;
#611 = VERTEX_POINT ( 'NONE', #553 ) ;
#612 = CARTESIAN_POINT ( 'NONE',  ( -1.600000000000000089, 0.9237604307033978612, -1.300000000000000044 ) ) ;
#613 = ADVANCED_FACE ( 'NONE', ( #383, #387 ), #276, .F. ) ;
#614 = ORIENTED_EDGE ( 'NONE', *, *, #570, .T. ) ;
#615 = CARTESIAN_POINT ( 'NONE',  ( -0.8000000000000018208, -1.385640646055101399, -1.300000000000000044 ) ) ;
#616 = PLANE ( 'NONE',  #36 ) ;
#617 = CIRCLE ( 'NONE', #556, 0.7999999999999999334 ) ;
#618 = DIRECTION ( 'NONE',  ( -1.000000000000000000, 0.000000000000000000, 0.000000000000000000 ) ) ;
#619 = CARTESIAN_POINT ( 'NONE',  ( 0.8000000000000039302, -1.385640646055099623, 0.000000000000000000 ) ) ;
#620 = CARTESIAN_POINT ( 'NONE',  ( -0.8000000000000038192, 1.385640646055099845, -1.300000000000000044 ) ) ;
#621 = AXIS2_PLACEMENT_3D ( 'NONE', #456, #162, #516 ) ;
#622 = CARTESIAN_POINT ( 'NONE',  ( -1.338915011469750560, -1.074497919112716859, -1.244122093547987085 ) ) ;
#623 = PLANE ( 'NONE',  #328 ) ;
#624 = ORIENTED_EDGE ( 'NONE', *, *, #92, .F. ) ;
#625 = CARTESIAN_POINT ( 'NONE',  ( 1.600000000000000089, 0.9237604307034051887, -0.1429062359632668755 ) ) ;
#626 = B_SPLINE_CURVE_WITH_KNOTS ( 'NONE', 3,
 ( #146, #558, #404, #300 ),
 .UNSPECIFIED., .F., .F.,
 ( 4, 4 ),
 ( 2.380755436498524159E-07, 0.0009349328872549474362 ),
 .UNSPECIFIED. ) ;
#627 = EDGE_CURVE ( 'NONE', #337, #1, #429, .T. ) ;
#628 = CARTESIAN_POINT ( 'NONE',  ( 0.5274051198989515576, 1.543023373461156700, 8.665779318398725660E-16 ) ) ;
#629 = CONICAL_SURFACE ( 'NONE', #441, 1.600000000000000311, 1.047197551196596521 ) ;
#630 = EDGE_LOOP ( 'NONE', ( #394, #537, #225 ) ) ;
#631 = CARTESIAN_POINT ( 'NONE',  ( -1.600000000000000089, -0.9237604307034065210, -1.300000000000000044 ) ) ;
#632 = DIRECTION ( 'NONE',  ( -1.000000000000000000, 0.000000000000000000, 0.000000000000000000 ) ) ;
#633 = VECTOR ( 'NONE', #362, 1000.000000000000000 ) ;
#634 = AXIS2_PLACEMENT_3D ( 'NONE', #424, #476, #329 ) ;
#635 = CARTESIAN_POINT ( 'NONE',  ( 0.000000000000000000, 0.000000000000000000, 0.000000000000000000 ) ) ;
#636 = CARTESIAN_POINT ( 'NONE',  ( -0.8000000000000038192, 1.385640646055099845, -1.300000000000000044 ) ) ;
#637 = B_SPLINE_CURVE_WITH_KNOTS ( 'NONE', 3,
 ( #317, #272, #517, #3, #415, #625 ),
 .UNSPECIFIED., .F., .F.,
 ( 4, 2, 4 ),
 ( 0.002582626743458948677, 0.003050162727514653047, 0.003517698711570357416 ),
 .UNSPECIFIED. ) ;
#638 = ADVANCED_FACE ( 'NONE', ( #15, #233 ), #156, .F. ) ;
#639 = EDGE_LOOP ( 'NONE', ( #658, #431, #222, #175, #198, #550 ) ) ;
#640 = CARTESIAN_POINT ( 'NONE',  ( 0.8000000000000039302, -1.385640646055099623, 0.000000000000000000 ) ) ;
#641 = MANIFOLD_SOLID_BREP ( 'EndChamfer', #138 ) ;
#642 = DIRECTION ( 'NONE',  ( -0.000000000000000000, -0.000000000000000000, -1.000000000000000000 ) ) ;
#643 = VERTEX_POINT ( 'NONE', #21 ) ;
#644 = CIRCLE ( 'NONE', #235, 1.600000000000000089 ) ;
#645 = CARTESIAN_POINT ( 'NONE',  ( 1.338262825470074358, -1.074874458875189287, -1.244339488882326261 ) ) ;
#646 = FACE_OUTER_BOUND ( 'NONE', #182, .T. ) ;
#647 = ORIENTED_EDGE ( 'NONE', *, *, #480, .T. ) ;
#648 = FILL_AREA_STYLE_COLOUR ( '', #202 ) ;
#649 = B_SPLINE_CURVE_WITH_KNOTS ( 'NONE', 3,
 ( #112, #332, #430, #136, #265, #64 ),
 .UNSPECIFIED., .F., .F.,
 ( 4, 2, 4 ),
 ( 0.001648110004698738083, 0.002115368374078843271, 0.002582626743458948677 ),
 .UNSPECIFIED. ) ;
#650 = CARTESIAN_POINT ( 'NONE',  ( 0.000000000000000000, 0.000000000000000000, 0.000000000000000000 ) ) ;
#651 = ORIENTED_EDGE ( 'NONE', *, *, #581, .F. ) ;
#652 = DIRECTION ( 'NONE',  ( 0.000000000000000000, 0.000000000000000000, 1.000000000000000000 ) ) ;
#653 = EDGE_CURVE ( 'NONE', #44, #289, #413, .T. ) ;
#654 = EDGE_LOOP ( 'NONE', ( #34, #473, #664, #166, #341, #503 ) ) ;
#655 = CARTESIAN_POINT ( 'NONE',  ( 1.600000000000000311, 0.000000000000000000, -1.300000000000000044 ) ) ;
#656 = ORIENTED_EDGE ( 'NONE', *, *, #602, .T. ) ;
#657 = AXIS2_PLACEMENT_3D ( 'NONE', #650, #12, #227 ) ;
#658 = ORIENTED_EDGE ( 'NONE', *, *, #392, .T. ) ;
#659 = ADVANCED_FACE ( 'NONE', ( #82 ), #356, .T. ) ;
#660 = CARTESIAN_POINT ( 'NONE',  ( -0.2617371745299361119, -1.696406833235018841, -0.05566051111767392201 ) ) ;
#661 = VERTEX_POINT ( 'NONE', #615 ) ;
#662 = APPLICATION_PROTOCOL_DEFINITION ( 'draft international standard', 'automotive_design', 1998, #354 ) ;
#663 = CARTESIAN_POINT ( 'NONE',  ( -0.5284225537932129013, 1.542435957728422125, 1.375143423722867989E-15 ) ) ;
#664 = ORIENTED_EDGE ( 'NONE', *, *, #141, .T. ) ;
#665 = CYLINDRICAL_SURFACE ( 'NONE', #475, 0.6250000000000000000 ) ;
#666 = EDGE_CURVE ( 'NONE', #333, #240, #521, .T. ) ;
#667 = AXIS2_PLACEMENT_3D ( 'NONE', #687, #5, #72 ) ;
#668 = DIRECTION ( 'NONE',  ( 1.000000000000000000, 0.000000000000000000, 0.000000000000000000 ) ) ;
#669 = DIRECTION ( 'NONE',  ( 0.000000000000000000, 0.000000000000000000, 1.000000000000000000 ) ) ;
#670 = DIRECTION ( 'NONE',  ( 1.000000000000000000, 0.000000000000000000, 0.000000000000000000 ) ) ;
#671 = CARTESIAN_POINT ( 'NONE',  ( 0.000000000000000000, 0.000000000000000000, 0.000000000000000000 ) ) ;
#672 = LINE ( 'NONE', #612, #270 ) ;
#673 = AXIS2_PLACEMENT_3D ( 'NONE', #334, #491, #586 ) ;
#674 = DIRECTION ( 'NONE',  ( -0.8660254037844381525, 0.5000000000000008882, 0.000000000000000000 ) ) ;
#675 = CARTESIAN_POINT ( 'NONE',  ( -1.071577446206793294, -1.228845334381784671, -2.115618721054773378E-15 ) ) ;
#676 = DIRECTION ( 'NONE',  ( 0.000000000000000000, 0.000000000000000000, -1.000000000000000000 ) ) ;
#677 = AXIS2_PLACEMENT_3D ( 'NONE', #199, #40, #560 ) ;
#678 = ORIENTED_EDGE ( 'NONE', *, *, #152, .F. ) ;
#679 = EDGE_CURVE ( 'NONE', #542, #142, #626, .T. ) ;
#680 = CARTESIAN_POINT ( 'NONE',  ( 1.338262825470074358, -1.074874458875189287, -0.05566051111767369303 ) ) ;
#681 = CARTESIAN_POINT ( 'NONE',  ( 0.2617371745299282293, 1.696406833235017508, -0.05566051111767227749 ) ) ;
#682 = VERTEX_POINT ( 'NONE', #397 ) ;
#683 = FACE_OUTER_BOUND ( 'NONE', #340, .T. ) ;
#684 = CARTESIAN_POINT ( 'NONE',  ( -1.600000000000000089, -0.3111893021712309748, -1.286582259567349507 ) ) ;
#685 = CARTESIAN_POINT ( 'NONE',  ( 1.072594880101053416, -1.228257918649049651, -1.299999999999998268 ) ) ;
#686 = EDGE_CURVE ( 'NONE', #246, #303, #81, .T. ) ;
#687 = CARTESIAN_POINT ( 'NONE',  ( 0.000000000000000000, 0.000000000000000000, -1.300000000000000044 ) ) ;
ENDSEC;
END-ISO-10303-21;
