ISO-10303-21;
HEADER;
FILE_DESCRIPTION (( 'STEP AP214' ),
    '1' );
FILE_NAME ('ISO 8733-8x45-St.STEP',
    '2025-07-30T15:09:17',
    ( '' ),
    ( '' ),
    'SwSTEP 2.0',
    'SolidWorks 2025',
    '' );
FILE_SCHEMA (( 'AUTOMOTIVE_DESIGN' ));
ENDSEC;

DATA;
#1 = FACE_OUTER_BOUND ( 'NONE', #153, .T. ) ;
#2 = CONICAL_SURFACE ( 'NONE', #88, 4.000000000000000000, 0.2617993877991425800 ) ;
#3 = DIRECTION ( 'NONE',  ( 0.000000000000000000, 0.000000000000000000, 1.000000000000000000 ) ) ;
#4 = PLANE ( 'NONE',  #116 ) ;
#5 = DIRECTION ( 'NONE',  ( 1.000000000000000000, 0.000000000000000000, 0.000000000000000000 ) ) ;
#6 = CARTESIAN_POINT ( 'NONE',  ( 1.600000000000000755, 0.000000000000000000, 0.000000000000000000 ) ) ;
#7 = VERTEX_POINT ( 'NONE', #8 ) ;
#8 = CARTESIAN_POINT ( 'NONE',  ( 44.00000000000000000, 0.000000000000000000, 4.000000000000000000 ) ) ;
#9 =( GEOMETRIC_REPRESENTATION_CONTEXT ( 3 ) GLOBAL_UNCERTAINTY_ASSIGNED_CONTEXT ( ( #73 ) ) GLOBAL_UNIT_ASSIGNED_CONTEXT ( ( #68, #120, #52 ) ) REPRESENTATION_CONTEXT ( 'NONE', 'WORKASPACE' ) );
#10 = VERTEX_POINT ( 'NONE', #85 ) ;
#11 = ADVANCED_FACE ( 'NONE', ( #187, #172 ), #184, .F. ) ;
#12 = ORIENTED_EDGE ( 'NONE', *, *, #32, .T. ) ;
#13 = PRESENTATION_LAYER_ASSIGNMENT (  '', '', ( #50 ) ) ;
#14 = EDGE_LOOP ( 'NONE', ( #27 ) ) ;
#15 = DIRECTION ( 'NONE',  ( 0.000000000000000000, 0.000000000000000000, 1.000000000000000000 ) ) ;
#16 = DIRECTION ( 'NONE',  ( -1.000000000000000000, -0.000000000000000000, -0.000000000000000000 ) ) ;
#17 = DIRECTION ( 'NONE',  ( 0.000000000000000000, 0.000000000000000000, 1.000000000000000000 ) ) ;
#18 = FACE_OUTER_BOUND ( 'NONE', #168, .T. ) ;
#19 = FACE_OUTER_BOUND ( 'NONE', #141, .T. ) ;
#20 = SURFACE_SIDE_STYLE ('',( #87 ) ) ;
#21 = CARTESIAN_POINT ( 'NONE',  ( 33.00000000000000000, 0.000000000000000000, 2.100000000000000089 ) ) ;
#22 = SURFACE_STYLE_USAGE ( .BOTH. , #20 ) ;
#23 = CIRCLE ( 'NONE', #139, 3.571281292110215499 ) ;
#24 = APPLICATION_PROTOCOL_DEFINITION ( 'draft international standard', 'automotive_design', 1998, #157 ) ;
#25 = ORIENTED_EDGE ( 'NONE', *, *, #45, .F. ) ;
#26 = AXIS2_PLACEMENT_3D ( 'NONE', #156, #16, #3 ) ;
#27 = ORIENTED_EDGE ( 'NONE', *, *, #111, .F. ) ;
#28 = DIRECTION ( 'NONE',  ( -1.000000000000000000, -0.000000000000000000, -0.000000000000000000 ) ) ;
#29 = PRODUCT_DEFINITION_SHAPE ( 'NONE', 'NONE',  #170 ) ;
#30 = DIRECTION ( 'NONE',  ( 0.000000000000000000, 0.000000000000000000, 1.000000000000000000 ) ) ;
#31 = CARTESIAN_POINT ( 'NONE',  ( 44.00000000000000000, 0.000000000000000000, 0.000000000000000000 ) ) ;
#32 = EDGE_CURVE ( 'NONE', #10, #10, #97, .T. ) ;
#33 = AXIS2_PLACEMENT_3D ( 'NONE', #118, #75, #190 ) ;
#34 = DIRECTION ( 'NONE',  ( -1.000000000000000000, -0.000000000000000000, -0.000000000000000000 ) ) ;
#35 = CARTESIAN_POINT ( 'NONE',  ( -10.00000000000000178, 0.000000000000000000, 0.000000000000000000 ) ) ;
#36 = SHAPE_DEFINITION_REPRESENTATION ( #29, #42 ) ;
#37 = CIRCLE ( 'NONE', #167, 2.100000000000000089 ) ;
#38 = FILL_AREA_STYLE ('',( #195 ) ) ;
#39 = CARTESIAN_POINT ( 'NONE',  ( 45.00000000000000000, 0.000000000000000000, 0.000000000000000000 ) ) ;
#40 = DIRECTION ( 'NONE',  ( 0.000000000000000000, 0.000000000000000000, 1.000000000000000000 ) ) ;
#41 = CIRCLE ( 'NONE', #185, 4.000000000000000000 ) ;
#42 = ADVANCED_BREP_SHAPE_REPRESENTATION ( 'ISO 8733-8x45-St_ISO 8733-8x45-St', ( #200, #179 ), #9 ) ;
#43 = CONICAL_SURFACE ( 'NONE', #53, 1664.279482350518265, 1.029744258676654534 ) ;
#44 = CARTESIAN_POINT ( 'NONE',  ( 43.48245735194569761, 0.000000000000000000, 0.000000000000000000 ) ) ;
#45 = EDGE_CURVE ( 'NONE', #7, #7, #41, .T. ) ;
#46 = CARTESIAN_POINT ( 'NONE',  ( 33.00000000000000000, 0.000000000000000000, 0.000000000000000000 ) ) ;
#47 = DIRECTION ( 'NONE',  ( 0.000000000000000000, 0.000000000000000000, -1.000000000000000000 ) ) ;
#48 = DIRECTION ( 'NONE',  ( -1.000000000000000000, -0.000000000000000000, -0.000000000000000000 ) ) ;
#49 = DIRECTION ( 'NONE',  ( 0.000000000000000000, 0.000000000000000000, 1.000000000000000000 ) ) ;
#50 = STYLED_ITEM ( 'NONE', ( #182 ), #200 ) ;
#51 = FACE_OUTER_BOUND ( 'NONE', #94, .T. ) ;
#52 =( NAMED_UNIT ( * ) SI_UNIT ( $, .STERADIAN. ) SOLID_ANGLE_UNIT ( ) );
#53 = AXIS2_PLACEMENT_3D ( 'NONE', #132, #70, #199 ) ;
#54 =( NAMED_UNIT ( * ) PLANE_ANGLE_UNIT ( ) SI_UNIT ( $, .RADIAN. ) );
#55 = ORIENTED_EDGE ( 'NONE', *, *, #158, .F. ) ;
#56 = EDGE_LOOP ( 'NONE', ( #140 ) ) ;
#57 = ORIENTED_EDGE ( 'NONE', *, *, #32, .F. ) ;
#58 = AXIS2_PLACEMENT_3D ( 'NONE', #39, #133, #40 ) ;
#59 = ORIENTED_EDGE ( 'NONE', *, *, #108, .F. ) ;
#60 = ADVANCED_FACE ( 'NONE', ( #177, #131 ), #155, .T. ) ;
#61 = ORIENTED_EDGE ( 'NONE', *, *, #158, .T. ) ;
#62 = CYLINDRICAL_SURFACE ( 'NONE', #71, 2.649999999999999911 ) ;
#63 = CIRCLE ( 'NONE', #58, 3.732050807568873196 ) ;
#64 = FACE_OUTER_BOUND ( 'NONE', #124, .T. ) ;
#65 = FACE_OUTER_BOUND ( 'NONE', #201, .T. ) ;
#66 = DIRECTION ( 'NONE',  ( -0.000000000000000000, 0.000000000000000000, 1.000000000000000000 ) ) ;
#67 = FACE_BOUND ( 'NONE', #122, .T. ) ;
#68 =( LENGTH_UNIT ( ) NAMED_UNIT ( * ) SI_UNIT ( .MILLI., .METRE. ) );
#69 = CONICAL_SURFACE ( 'NONE', #33, 3.732050807568873196, 0.2617993877991531826 ) ;
#70 = DIRECTION ( 'NONE',  ( 1.000000000000000000, 0.000000000000000000, 0.000000000000000000 ) ) ;
#71 = AXIS2_PLACEMENT_3D ( 'NONE', #35, #176, #188 ) ;
#72 = ORIENTED_EDGE ( 'NONE', *, *, #203, .F. ) ;
#73 = UNCERTAINTY_MEASURE_WITH_UNIT (LENGTH_MEASURE( 1.000000000000000082E-05 ), #68, 'distance_accuracy_value', 'NONE');
#74 = EDGE_LOOP ( 'NONE', ( #137 ) ) ;
#75 = DIRECTION ( 'NONE',  ( -1.000000000000000000, -0.000000000000000000, -0.000000000000000000 ) ) ;
#76 = DIRECTION ( 'NONE',  ( 1.000000000000000000, 0.000000000000000000, 0.000000000000000000 ) ) ;
#77 = AXIS2_PLACEMENT_3D ( 'NONE', #44, #5, #100 ) ;
#78 = CIRCLE ( 'NONE', #26, 2.649999999999999911 ) ;
#79 = CARTESIAN_POINT ( 'NONE',  ( 45.00000000000000000, 3.732050807568873196, 0.000000000000000000 ) ) ;
#80 = DIRECTION ( 'NONE',  ( 0.000000000000000000, 0.000000000000000000, -1.000000000000000000 ) ) ;
#81 = CYLINDRICAL_SURFACE ( 'NONE', #92, 2.100000000000000089 ) ;
#82 = EDGE_CURVE ( 'NONE', #166, #166, #152, .T. ) ;
#83 = CLOSED_SHELL ( 'NONE', ( #165, #144, #11, #103, #117, #91, #60, #136, #95 ) ) ;
#84 = MECHANICAL_DESIGN_GEOMETRIC_PRESENTATION_REPRESENTATION (  '', ( #50 ), #123 ) ;
#85 = CARTESIAN_POINT ( 'NONE',  ( 43.79999999999999716, 0.000000000000000000, 2.649999999999999911 ) ) ;
#86 = VERTEX_POINT ( 'NONE', #107 ) ;
#87 = SURFACE_STYLE_FILL_AREA ( #38 ) ;
#88 = AXIS2_PLACEMENT_3D ( 'NONE', #112, #174, #47 ) ;
#89 = VERTEX_POINT ( 'NONE', #151 ) ;
#90 = ORIENTED_EDGE ( 'NONE', *, *, #108, .T. ) ;
#91 = ADVANCED_FACE ( 'NONE', ( #51, #130 ), #69, .T. ) ;
#92 = AXIS2_PLACEMENT_3D ( 'NONE', #115, #99, #175 ) ;
#93 = ORIENTED_EDGE ( 'NONE', *, *, #82, .T. ) ;
#94 = EDGE_LOOP ( 'NONE', ( #25 ) ) ;
#95 = ADVANCED_FACE ( 'NONE', ( #160 ), #4, .F. ) ;
#96 = EDGE_LOOP ( 'NONE', ( #12 ) ) ;
#97 = CIRCLE ( 'NONE', #196, 2.649999999999999911 ) ;
#98 = EDGE_LOOP ( 'NONE', ( #93 ) ) ;
#99 = DIRECTION ( 'NONE',  ( -1.000000000000000000, -0.000000000000000000, -0.000000000000000000 ) ) ;
#100 = DIRECTION ( 'NONE',  ( 0.000000000000000000, 0.000000000000000000, -1.000000000000000000 ) ) ;
#101 = DIRECTION ( 'NONE',  ( 0.000000000000000000, 0.000000000000000000, 1.000000000000000000 ) ) ;
#102 = DIRECTION ( 'NONE',  ( 0.000000000000000000, 0.000000000000000000, 1.000000000000000000 ) ) ;
#103 = ADVANCED_FACE ( 'NONE', ( #1, #146 ), #62, .F. ) ;
#104 = DIRECTION ( 'NONE',  ( -1.000000000000000000, 0.000000000000000000, -0.000000000000000000 ) ) ;
#105 = CARTESIAN_POINT ( 'NONE',  ( 0.000000000000000000, 0.000000000000000000, 0.000000000000000000 ) ) ;
#106 = VERTEX_POINT ( 'NONE', #148 ) ;
#107 = CARTESIAN_POINT ( 'NONE',  ( 45.00000000000000000, 0.000000000000000000, 3.732050807568873196 ) ) ;
#108 = EDGE_CURVE ( 'NONE', #106, #106, #23, .T. ) ;
#109 = ORIENTED_EDGE ( 'NONE', *, *, #126, .F. ) ;
#110 = EDGE_LOOP ( 'NONE', ( #59 ) ) ;
#111 = EDGE_CURVE ( 'NONE', #119, #119, #150, .T. ) ;
#112 = CARTESIAN_POINT ( 'NONE',  ( 1.600000000000000755, 0.000000000000000000, 0.000000000000000000 ) ) ;
#113 = CARTESIAN_POINT ( 'NONE',  ( 43.48245735194569761, 0.000000000000000000, 0.000000000000000000 ) ) ;
#114 = CARTESIAN_POINT ( 'NONE',  ( 0.000000000000000000, 0.000000000000000000, 0.000000000000000000 ) ) ;
#115 = CARTESIAN_POINT ( 'NONE',  ( -10.00000000000000178, 0.000000000000000000, 0.000000000000000000 ) ) ;
#116 = AXIS2_PLACEMENT_3D ( 'NONE', #191, #76, #80 ) ;
#117 = ADVANCED_FACE ( 'NONE', ( #18, #67 ), #127, .F. ) ;
#118 = CARTESIAN_POINT ( 'NONE',  ( 45.00000000000000000, 0.000000000000000000, 0.000000000000000000 ) ) ;
#119 = VERTEX_POINT ( 'NONE', #198 ) ;
#120 =( NAMED_UNIT ( * ) PLANE_ANGLE_UNIT ( ) SI_UNIT ( $, .RADIAN. ) );
#121 = DIRECTION ( 'NONE',  ( 0.000000000000000000, 0.000000000000000000, 1.000000000000000000 ) ) ;
#122 = EDGE_LOOP ( 'NONE', ( #61 ) ) ;
#123 =( GEOMETRIC_REPRESENTATION_CONTEXT ( 3 ) GLOBAL_UNCERTAINTY_ASSIGNED_CONTEXT ( ( #169 ) ) GLOBAL_UNIT_ASSIGNED_CONTEXT ( ( #164, #54, #180 ) ) REPRESENTATION_CONTEXT ( 'NONE', 'WORKASPACE' ) );
#124 = EDGE_LOOP ( 'NONE', ( #109 ) ) ;
#125 = EDGE_LOOP ( 'NONE', ( #90 ) ) ;
#126 = EDGE_CURVE ( 'NONE', #178, #178, #37, .T. ) ;
#127 = PLANE ( 'NONE',  #186 ) ;
#128 = APPLICATION_CONTEXT ( 'automotive_design' ) ;
#129 = CARTESIAN_POINT ( 'NONE',  ( -10.00000000000000178, 0.000000000000000000, 0.000000000000000000 ) ) ;
#130 = FACE_BOUND ( 'NONE', #56, .T. ) ;
#131 = FACE_OUTER_BOUND ( 'NONE', #74, .T. ) ;
#132 = CARTESIAN_POINT ( 'NONE',  ( 1031.738192700042191, 0.000000000000000000, 0.000000000000000000 ) ) ;
#133 = DIRECTION ( 'NONE',  ( -1.000000000000000000, -0.000000000000000000, -0.000000000000000000 ) ) ;
#134 = COLOUR_RGB ( '',0.7921568627450980005, 0.8196078431372548767, 0.9333333333333333481 ) ;
#135 = CARTESIAN_POINT ( 'NONE',  ( 43.48245735194569761, 0.000000000000000000, 2.100000000000000089 ) ) ;
#136 = ADVANCED_FACE ( 'NONE', ( #193, #162 ), #2, .T. ) ;
#137 = ORIENTED_EDGE ( 'NONE', *, *, #45, .T. ) ;
#138 = ORIENTED_EDGE ( 'NONE', *, *, #82, .F. ) ;
#139 = AXIS2_PLACEMENT_3D ( 'NONE', #114, #142, #17 ) ;
#140 = ORIENTED_EDGE ( 'NONE', *, *, #203, .T. ) ;
#141 = EDGE_LOOP ( 'NONE', ( #154 ) ) ;
#142 = DIRECTION ( 'NONE',  ( -1.000000000000000000, -0.000000000000000000, -0.000000000000000000 ) ) ;
#143 = DIRECTION ( 'NONE',  ( -1.000000000000000000, -0.000000000000000000, -0.000000000000000000 ) ) ;
#144 = ADVANCED_FACE ( 'NONE', ( #65, #19 ), #81, .F. ) ;
#145 = DIRECTION ( 'NONE',  ( -1.000000000000000000, -0.000000000000000000, -0.000000000000000000 ) ) ;
#146 = FACE_OUTER_BOUND ( 'NONE', #96, .T. ) ;
#147 = DIRECTION ( 'NONE',  ( -1.000000000000000000, -0.000000000000000000, -0.000000000000000000 ) ) ;
#148 = CARTESIAN_POINT ( 'NONE',  ( 0.000000000000000000, 0.000000000000000000, 3.571281292110215499 ) ) ;
#149 = PRODUCT_CONTEXT ( 'NONE', #157, 'mechanical' ) ;
#150 = CIRCLE ( 'NONE', #173, 4.000000000000000000 ) ;
#151 = CARTESIAN_POINT ( 'NONE',  ( 45.00000000000000000, 0.000000000000000000, 2.649999999999999911 ) ) ;
#152 = CIRCLE ( 'NONE', #197, 2.100000000000000089 ) ;
#153 = EDGE_LOOP ( 'NONE', ( #55 ) ) ;
#154 = ORIENTED_EDGE ( 'NONE', *, *, #126, .T. ) ;
#155 = CYLINDRICAL_SURFACE ( 'NONE', #159, 4.000000000000000000 ) ;
#156 = CARTESIAN_POINT ( 'NONE',  ( 45.00000000000000000, 0.000000000000000000, 0.000000000000000000 ) ) ;
#157 = APPLICATION_CONTEXT ( 'automotive_design' ) ;
#158 = EDGE_CURVE ( 'NONE', #89, #89, #78, .T. ) ;
#159 = AXIS2_PLACEMENT_3D ( 'NONE', #129, #34, #15 ) ;
#160 = FACE_OUTER_BOUND ( 'NONE', #125, .T. ) ;
#161 = CARTESIAN_POINT ( 'NONE',  ( 43.79999999999999716, 0.000000000000000000, 0.000000000000000000 ) ) ;
#162 = FACE_OUTER_BOUND ( 'NONE', #202, .T. ) ;
#163 = APPLICATION_PROTOCOL_DEFINITION ( 'draft international standard', 'automotive_design', 1998, #128 ) ;
#164 =( LENGTH_UNIT ( ) NAMED_UNIT ( * ) SI_UNIT ( .MILLI., .METRE. ) );
#165 = ADVANCED_FACE ( 'NONE', ( #64 ), #43, .F. ) ;
#166 = VERTEX_POINT ( 'NONE', #135 ) ;
#167 = AXIS2_PLACEMENT_3D ( 'NONE', #46, #145, #189 ) ;
#168 = EDGE_LOOP ( 'NONE', ( #72 ) ) ;
#169 = UNCERTAINTY_MEASURE_WITH_UNIT (LENGTH_MEASURE( 1.000000000000000082E-05 ), #164, 'distance_accuracy_value', 'NONE');
#170 = PRODUCT_DEFINITION ( 'General', '', #192, #204 ) ;
#171 = ORIENTED_EDGE ( 'NONE', *, *, #111, .T. ) ;
#172 = FACE_BOUND ( 'NONE', #98, .T. ) ;
#173 = AXIS2_PLACEMENT_3D ( 'NONE', #6, #143, #49 ) ;
#174 = DIRECTION ( 'NONE',  ( 1.000000000000000000, 0.000000000000000000, 0.000000000000000000 ) ) ;
#175 = DIRECTION ( 'NONE',  ( 0.000000000000000000, 0.000000000000000000, 1.000000000000000000 ) ) ;
#176 = DIRECTION ( 'NONE',  ( -1.000000000000000000, -0.000000000000000000, -0.000000000000000000 ) ) ;
#177 = FACE_OUTER_BOUND ( 'NONE', #14, .T. ) ;
#178 = VERTEX_POINT ( 'NONE', #21 ) ;
#179 = AXIS2_PLACEMENT_3D ( 'NONE', #105, #121, #183 ) ;
#180 =( NAMED_UNIT ( * ) SI_UNIT ( $, .STERADIAN. ) SOLID_ANGLE_UNIT ( ) );
#181 = PRODUCT_RELATED_PRODUCT_CATEGORY ( 'part', '', ( #194 ) ) ;
#182 = PRESENTATION_STYLE_ASSIGNMENT (( #22 ) ) ;
#183 = DIRECTION ( 'NONE',  ( 1.000000000000000000, 0.000000000000000000, 0.000000000000000000 ) ) ;
#184 = CONICAL_SURFACE ( 'NONE', #77, 2.100000000000000089, 1.047197551196587195 ) ;
#185 = AXIS2_PLACEMENT_3D ( 'NONE', #31, #28, #30 ) ;
#186 = AXIS2_PLACEMENT_3D ( 'NONE', #79, #104, #66 ) ;
#187 = FACE_OUTER_BOUND ( 'NONE', #205, .T. ) ;
#188 = DIRECTION ( 'NONE',  ( 0.000000000000000000, 0.000000000000000000, 1.000000000000000000 ) ) ;
#189 = DIRECTION ( 'NONE',  ( 0.000000000000000000, 0.000000000000000000, 1.000000000000000000 ) ) ;
#190 = DIRECTION ( 'NONE',  ( 0.000000000000000000, 0.000000000000000000, 1.000000000000000000 ) ) ;
#191 = CARTESIAN_POINT ( 'NONE',  ( 4.212249624381390199E-19, 0.000000000000000000, 0.000000000000000000 ) ) ;
#192 = PRODUCT_DEFINITION_FORMATION_WITH_SPECIFIED_SOURCE ( 'Symmetric', '', #194, .NOT_KNOWN. ) ;
#193 = FACE_BOUND ( 'NONE', #110, .T. ) ;
#194 = PRODUCT ( 'ISO 8733-8x45-St_ISO 8733-8x45-St', 'ISO 8733-8x45-St_ISO 8733-8x45-St', '', ( #149 ) ) ;
#195 = FILL_AREA_STYLE_COLOUR ( '', #134 ) ;
#196 = AXIS2_PLACEMENT_3D ( 'NONE', #161, #48, #102 ) ;
#197 = AXIS2_PLACEMENT_3D ( 'NONE', #113, #147, #101 ) ;
#198 = CARTESIAN_POINT ( 'NONE',  ( 1.600000000000000755, 0.000000000000000000, 4.000000000000000000 ) ) ;
#199 = DIRECTION ( 'NONE',  ( 0.000000000000000000, 0.000000000000000000, -1.000000000000000000 ) ) ;
#200 = MANIFOLD_SOLID_BREP ( 'Base-Revolve', #83 ) ;
#201 = EDGE_LOOP ( 'NONE', ( #138 ) ) ;
#202 = EDGE_LOOP ( 'NONE', ( #171 ) ) ;
#203 = EDGE_CURVE ( 'NONE', #86, #86, #63, .T. ) ;
#204 = PRODUCT_DEFINITION_CONTEXT ( 'detailed design', #128, 'design' ) ;
#205 = EDGE_LOOP ( 'NONE', ( #57 ) ) ;
ENDSEC;
END-ISO-10303-21;
