ISO-10303-21;
HEADER;
FILE_DESCRIPTION (( 'STEP AP214' ),
    '1' );
FILE_NAME ('ISO 13337 - 6 x 65 - St.STEP',
    '2025-07-30T15:09:17',
    ( '' ),
    ( '' ),
    'SwSTEP 2.0',
    'SolidWorks 2025',
    '' );
FILE_SCHEMA (( 'AUTOMOTIVE_DESIGN' ));
ENDSEC;

DATA;
#1 = AXIS2_PLACEMENT_3D ( 'NONE', #112, #78, #190 ) ;
#2 = LINE ( 'NONE', #21, #151 ) ;
#3 = DIRECTION ( 'NONE',  ( 1.000000000000000000, 0.000000000000000000, 0.000000000000000000 ) ) ;
#4 = EDGE_CURVE ( 'NONE', #214, #49, #240, .T. ) ;
#5 = AXIS2_PLACEMENT_3D ( 'NONE', #38, #118, #101 ) ;
#6 = CARTESIAN_POINT ( 'NONE',  ( 65.00000000000000000, 0.000000000000000000, 0.000000000000000000 ) ) ;
#7 = ORIENTED_EDGE ( 'NONE', *, *, #226, .T. ) ;
#8 = EDGE_LOOP ( 'NONE', ( #206, #109, #45, #66 ) ) ;
#9 = VERTEX_POINT ( 'NONE', #164 ) ;
#10 = DIRECTION ( 'NONE',  ( -1.000000000000000000, -0.000000000000000000, -0.000000000000000000 ) ) ;
#11 = CYLINDRICAL_SURFACE ( 'NONE', #245, 3.000000000000003997 ) ;
#12 = PLANE ( 'NONE',  #176 ) ;
#13 = AXIS2_PLACEMENT_3D ( 'NONE', #162, #24, #104 ) ;
#14 = CARTESIAN_POINT ( 'NONE',  ( 0.000000000000000000, 0.000000000000000000, 0.000000000000000000 ) ) ;
#15 = FILL_AREA_STYLE_COLOUR ( '', #220 ) ;
#16 = EDGE_CURVE ( 'NONE', #186, #246, #36, .T. ) ;
#17 = DIRECTION ( 'NONE',  ( 0.000000000000000000, -0.07845909572784559582, 0.9969173337331278528 ) ) ;
#18 = CIRCLE ( 'NONE', #94, 2.812500000000000000 ) ;
#19 = ORIENTED_EDGE ( 'NONE', *, *, #238, .F. ) ;
#20 = EDGE_CURVE ( 'NONE', #126, #26, #180, .T. ) ;
#21 = CARTESIAN_POINT ( 'NONE',  ( 65.00000000000000000, 0.000000000000000000, 0.000000000000000000 ) ) ;
#22 = CARTESIAN_POINT ( 'NONE',  ( 65.00000000000000000, 0.1765329653876526739, 2.243064000899538613 ) ) ;
#23 = ORIENTED_EDGE ( 'NONE', *, *, #249, .F. ) ;
#24 = DIRECTION ( 'NONE',  ( -1.000000000000000000, -0.000000000000000000, -0.000000000000000000 ) ) ;
#25 = VECTOR ( 'NONE', #3, 1000.000000000000000 ) ;
#26 = VERTEX_POINT ( 'NONE', #183 ) ;
#27 = EDGE_CURVE ( 'NONE', #246, #222, #69, .T. ) ;
#28 = EDGE_LOOP ( 'NONE', ( #90, #204, #29, #47 ) ) ;
#29 = ORIENTED_EDGE ( 'NONE', *, *, #58, .F. ) ;
#30 = AXIS2_PLACEMENT_3D ( 'NONE', #247, #230, #75 ) ;
#31 = FACE_OUTER_BOUND ( 'NONE', #205, .T. ) ;
#32 = FACE_OUTER_BOUND ( 'NONE', #160, .T. ) ;
#33 = ADVANCED_FACE ( 'NONE', ( #86 ), #68, .F. ) ;
#34 = DIRECTION ( 'NONE',  ( 1.000000000000000000, 0.000000000000000000, 0.000000000000000000 ) ) ;
#35 = CARTESIAN_POINT ( 'NONE',  ( -10.49999999999998046, 0.000000000000000000, 0.000000000000000000 ) ) ;
#36 = CIRCLE ( 'NONE', #13, 2.250000000000000444 ) ;
#37 = DIRECTION ( 'NONE',  ( 0.000000000000000000, -0.07845909572784559582, 0.9969173337331278528 ) ) ;
#38 = CARTESIAN_POINT ( 'NONE',  ( 65.00000000000000000, 0.000000000000000000, 0.000000000000000000 ) ) ;
#39 = PRODUCT_DEFINITION_FORMATION_WITH_SPECIFIED_SOURCE ( 'Symmetric', '', #120, .NOT_KNOWN. ) ;
#40 = ORIENTED_EDGE ( 'NONE', *, *, #58, .T. ) ;
#41 = CARTESIAN_POINT ( 'NONE',  ( 65.00000000000000000, -0.1765329653876526461, 2.243064000899538168 ) ) ;
#42 = ORIENTED_EDGE ( 'NONE', *, *, #249, .T. ) ;
#43 = LINE ( 'NONE', #82, #256 ) ;
#44 = DIRECTION ( 'NONE',  ( 1.000000000000000000, 0.000000000000000000, 0.000000000000000000 ) ) ;
#45 = ORIENTED_EDGE ( 'NONE', *, *, #238, .T. ) ;
#46 = ORIENTED_EDGE ( 'NONE', *, *, #257, .T. ) ;
#47 = ORIENTED_EDGE ( 'NONE', *, *, #16, .F. ) ;
#48 = VECTOR ( 'NONE', #92, 1000.000000000000114 ) ;
#49 = VERTEX_POINT ( 'NONE', #212 ) ;
#50 = ORIENTED_EDGE ( 'NONE', *, *, #113, .F. ) ;
#51 = DIRECTION ( 'NONE',  ( 0.000000000000000000, -0.9969173337331279638, -0.07845909572784560970 ) ) ;
#52 = AXIS2_PLACEMENT_3D ( 'NONE', #253, #193, #153 ) ;
#53 = PRESENTATION_STYLE_ASSIGNMENT (( #228 ) ) ;
#54 = ADVANCED_FACE ( 'NONE', ( #173 ), #73, .T. ) ;
#55 = APPLICATION_CONTEXT ( 'automotive_design' ) ;
#56 = CARTESIAN_POINT ( 'NONE',  ( 0.000000000000000000, 0.000000000000000000, 0.000000000000000000 ) ) ;
#57 = DIRECTION ( 'NONE',  ( -1.000000000000000000, -0.000000000000000000, -0.000000000000000000 ) ) ;
#58 = EDGE_CURVE ( 'NONE', #246, #167, #127, .T. ) ;
#59 = DIRECTION ( 'NONE',  ( 0.000000000000000000, 0.000000000000000000, -1.000000000000000000 ) ) ;
#60 = APPLICATION_CONTEXT ( 'automotive_design' ) ;
#61 = ORIENTED_EDGE ( 'NONE', *, *, #142, .F. ) ;
#62 = DIRECTION ( 'NONE',  ( 0.000000000000000000, 0.000000000000000000, 1.000000000000000000 ) ) ;
#63 = LINE ( 'NONE', #158, #251 ) ;
#64 = DIRECTION ( 'NONE',  ( 0.000000000000000000, 0.000000000000000000, 1.000000000000000000 ) ) ;
#65 = VECTOR ( 'NONE', #17, 1000.000000000000114 ) ;
#66 = ORIENTED_EDGE ( 'NONE', *, *, #226, .F. ) ;
#67 = AXIS2_PLACEMENT_3D ( 'NONE', #168, #117, #148 ) ;
#68 = PLANE ( 'NONE',  #146 ) ;
#69 = LINE ( 'NONE', #244, #25 ) ;
#70 = EDGE_LOOP ( 'NONE', ( #108, #163, #125, #187, #145, #61 ) ) ;
#71 = ORIENTED_EDGE ( 'NONE', *, *, #234, .F. ) ;
#72 = SURFACE_STYLE_FILL_AREA ( #248 ) ;
#73 = PLANE ( 'NONE',  #30 ) ;
#74 = CIRCLE ( 'NONE', #52, 3.000000000000000000 ) ;
#75 = DIRECTION ( 'NONE',  ( 0.000000000000000000, -0.07845909572784559582, -0.9969173337331278528 ) ) ;
#76 = DIRECTION ( 'NONE',  ( 0.000000000000000000, 0.07845909572784559582, -0.9969173337331278528 ) ) ;
#77 = ADVANCED_FACE ( 'NONE', ( #31 ), #11, .T. ) ;
#78 = DIRECTION ( 'NONE',  ( -1.000000000000000000, 0.000000000000000000, -0.000000000000000000 ) ) ;
#79 = APPLICATION_PROTOCOL_DEFINITION ( 'draft international standard', 'automotive_design', 1998, #60 ) ;
#80 = LINE ( 'NONE', #178, #200 ) ;
#81 = EDGE_LOOP ( 'NONE', ( #91, #242, #88, #50 ) ) ;
#82 = CARTESIAN_POINT ( 'NONE',  ( -9.524999999999986144, 0.1765329653876525906, 2.243064000899537724 ) ) ;
#83 = VECTOR ( 'NONE', #227, 1000.000000000000114 ) ;
#84 = CARTESIAN_POINT ( 'NONE',  ( 65.00000000000000000, 0.000000000000000000, 0.000000000000000000 ) ) ;
#85 = ADVANCED_FACE ( 'NONE', ( #208 ), #12, .F. ) ;
#86 = FACE_OUTER_BOUND ( 'NONE', #135, .T. ) ;
#87 = ADVANCED_FACE ( 'NONE', ( #231 ), #188, .F. ) ;
#88 = ORIENTED_EDGE ( 'NONE', *, *, #121, .T. ) ;
#89 = ORIENTED_EDGE ( 'NONE', *, *, #203, .T. ) ;
#90 = ORIENTED_EDGE ( 'NONE', *, *, #142, .T. ) ;
#91 = ORIENTED_EDGE ( 'NONE', *, *, #165, .F. ) ;
#92 = DIRECTION ( 'NONE',  ( 0.000000000000000000, 0.07845909572784559582, 0.9969173337331278528 ) ) ;
#93 = DIRECTION ( 'NONE',  ( 0.000000000000000000, 0.000000000000000000, 1.000000000000000000 ) ) ;
#94 = AXIS2_PLACEMENT_3D ( 'NONE', #56, #10, #189 ) ;
#95 = CARTESIAN_POINT ( 'NONE',  ( 65.00000000000000000, 0.2206662067345657730, 2.803830001124422378 ) ) ;
#96 = CARTESIAN_POINT ( 'NONE',  ( 0.6999999999999992895, -0.2353772871835368152, 2.990752001199384669 ) ) ;
#97 = CARTESIAN_POINT ( 'NONE',  ( 0.000000000000000000, -0.2206662067345657452, 2.803830001124421933 ) ) ;
#98 = STYLED_ITEM ( 'NONE', ( #53 ), #166 ) ;
#99 = ADVANCED_FACE ( 'NONE', ( #32 ), #114, .F. ) ;
#100 = FACE_OUTER_BOUND ( 'NONE', #8, .T. ) ;
#101 = DIRECTION ( 'NONE',  ( 0.000000000000000000, 0.000000000000000000, 1.000000000000000000 ) ) ;
#102 = ADVANCED_FACE ( 'NONE', ( #171 ), #241, .T. ) ;
#103 = AXIS2_PLACEMENT_3D ( 'NONE', #250, #34, #152 ) ;
#104 = DIRECTION ( 'NONE',  ( 0.000000000000000000, 0.000000000000000000, 1.000000000000000000 ) ) ;
#105 = DIRECTION ( 'NONE',  ( -1.000000000000000000, -0.000000000000000000, -0.000000000000000000 ) ) ;
#106 = AXIS2_PLACEMENT_3D ( 'NONE', #194, #179, #213 ) ;
#107 = ORIENTED_EDGE ( 'NONE', *, *, #20, .F. ) ;
#108 = ORIENTED_EDGE ( 'NONE', *, *, #234, .T. ) ;
#109 = ORIENTED_EDGE ( 'NONE', *, *, #20, .T. ) ;
#110 = AXIS2_PLACEMENT_3D ( 'NONE', #217, #239, #62 ) ;
#111 = CARTESIAN_POINT ( 'NONE',  ( -9.524999999999986144, 0.000000000000000000, 0.000000000000000000 ) ) ;
#112 = CARTESIAN_POINT ( 'NONE',  ( 65.00000000000000000, 2.250000000000000000, 0.000000000000000000 ) ) ;
#113 = EDGE_CURVE ( 'NONE', #124, #167, #18, .T. ) ;
#114 = CYLINDRICAL_SURFACE ( 'NONE', #67, 2.250000000000000444 ) ;
#115 = CIRCLE ( 'NONE', #5, 2.250000000000000000 ) ;
#116 = LINE ( 'NONE', #14, #48 ) ;
#117 = DIRECTION ( 'NONE',  ( -1.000000000000000000, -0.000000000000000000, -0.000000000000000000 ) ) ;
#118 = DIRECTION ( 'NONE',  ( -1.000000000000000000, -0.000000000000000000, -0.000000000000000000 ) ) ;
#119 = ORIENTED_EDGE ( 'NONE', *, *, #27, .F. ) ;
#120 = PRODUCT ( 'ISO 13337 - 6 x 65 - St_ISO 13337 - 6 x 65 - St', 'ISO 13337 - 6 x 65 - St_ISO 13337 - 6 x 65 - St', '', ( #255 ) ) ;
#121 = EDGE_CURVE ( 'NONE', #147, #167, #129, .T. ) ;
#122 = ORIENTED_EDGE ( 'NONE', *, *, #121, .F. ) ;
#123 = ORIENTED_EDGE ( 'NONE', *, *, #257, .F. ) ;
#124 = VERTEX_POINT ( 'NONE', #209 ) ;
#125 = ORIENTED_EDGE ( 'NONE', *, *, #133, .T. ) ;
#126 = VERTEX_POINT ( 'NONE', #95 ) ;
#127 = LINE ( 'NONE', #232, #211 ) ;
#128 = EDGE_CURVE ( 'NONE', #49, #147, #74, .T. ) ;
#129 = LINE ( 'NONE', #35, #161 ) ;
#130 = LINE ( 'NONE', #132, #236 ) ;
#131 = CIRCLE ( 'NONE', #110, 3.000000000000007994 ) ;
#132 = CARTESIAN_POINT ( 'NONE',  ( 75.49999999999964473, 0.000000000000000000, 0.000000000000000000 ) ) ;
#133 = EDGE_CURVE ( 'NONE', #126, #214, #130, .T. ) ;
#134 =( NAMED_UNIT ( * ) SI_UNIT ( $, .STERADIAN. ) SOLID_ANGLE_UNIT ( ) );
#135 = EDGE_LOOP ( 'NONE', ( #40, #122, #123, #19, #23, #119 ) ) ;
#136 =( LENGTH_UNIT ( ) NAMED_UNIT ( * ) SI_UNIT ( .MILLI., .METRE. ) );
#137 = CARTESIAN_POINT ( 'NONE',  ( 0.000000000000000000, 0.1765329653876526461, 2.243064000899538168 ) ) ;
#138 =( LENGTH_UNIT ( ) NAMED_UNIT ( * ) SI_UNIT ( .MILLI., .METRE. ) );
#139 = PRODUCT_DEFINITION_CONTEXT ( 'detailed design', #60, 'design' ) ;
#140 = CLOSED_SHELL ( 'NONE', ( #85, #99, #87, #182, #77, #102, #33, #54 ) ) ;
#141 = CARTESIAN_POINT ( 'NONE',  ( -9.524999999999986144, 0.2353772871835370928, 2.990752001199387333 ) ) ;
#142 = EDGE_CURVE ( 'NONE', #186, #124, #116, .T. ) ;
#143 = EDGE_LOOP ( 'NONE', ( #199, #89, #42, #107 ) ) ;
#144 = DIRECTION ( 'NONE',  ( -1.000000000000000000, -0.000000000000000000, -0.000000000000000000 ) ) ;
#145 = ORIENTED_EDGE ( 'NONE', *, *, #165, .T. ) ;
#146 = AXIS2_PLACEMENT_3D ( 'NONE', #6, #51, #76 ) ;
#147 = VERTEX_POINT ( 'NONE', #96 ) ;
#148 = DIRECTION ( 'NONE',  ( 0.000000000000000000, 0.000000000000000000, 1.000000000000000000 ) ) ;
#149 =( GEOMETRIC_REPRESENTATION_CONTEXT ( 3 ) GLOBAL_UNCERTAINTY_ASSIGNED_CONTEXT ( ( #201 ) ) GLOBAL_UNIT_ASSIGNED_CONTEXT ( ( #136, #259, #197 ) ) REPRESENTATION_CONTEXT ( 'NONE', 'WORKASPACE' ) );
#150 = DIRECTION ( 'NONE',  ( 1.000000000000000000, 0.000000000000000000, 0.000000000000000000 ) ) ;
#151 = VECTOR ( 'NONE', #195, 1000.000000000000114 ) ;
#152 = DIRECTION ( 'NONE',  ( 0.000000000000000000, 0.000000000000000000, -1.000000000000000000 ) ) ;
#153 = DIRECTION ( 'NONE',  ( 0.000000000000000000, 0.000000000000000000, 1.000000000000000000 ) ) ;
#154 = DIRECTION ( 'NONE',  ( -0.9659480515032449199, 0.02030019927884442119, -0.2579384882221411601 ) ) ;
#155 = CARTESIAN_POINT ( 'NONE',  ( 64.29999999999999716, 0.2353772871835370928, 2.990752001199387333 ) ) ;
#156 = DIRECTION ( 'NONE',  ( -0.9659480515032428105, -0.02030019927884502487, 0.2579384882221487651 ) ) ;
#157 = CARTESIAN_POINT ( 'NONE',  ( 0.000000000000000000, 0.000000000000000000, 0.000000000000000000 ) ) ;
#158 = CARTESIAN_POINT ( 'NONE',  ( 75.49999999999964473, 0.000000000000000000, 0.000000000000000000 ) ) ;
#159 = UNCERTAINTY_MEASURE_WITH_UNIT (LENGTH_MEASURE( 1.000000000000000082E-05 ), #138, 'distance_accuracy_value', 'NONE');
#160 = EDGE_LOOP ( 'NONE', ( #71, #243, #198, #225 ) ) ;
#161 = VECTOR ( 'NONE', #154, 1000.000000000000114 ) ;
#162 = CARTESIAN_POINT ( 'NONE',  ( 0.000000000000000000, 0.000000000000000000, 0.000000000000000000 ) ) ;
#163 = ORIENTED_EDGE ( 'NONE', *, *, #215, .T. ) ;
#164 = CARTESIAN_POINT ( 'NONE',  ( 64.29999999999999716, -0.2353772871835370928, 2.990752001199387333 ) ) ;
#165 = EDGE_CURVE ( 'NONE', #49, #124, #174, .T. ) ;
#166 = MANIFOLD_SOLID_BREP ( 'Gap', #140 ) ;
#167 = VERTEX_POINT ( 'NONE', #97 ) ;
#168 = CARTESIAN_POINT ( 'NONE',  ( -9.524999999999986144, 0.000000000000000000, 0.000000000000000000 ) ) ;
#169 = SURFACE_SIDE_STYLE ('',( #72 ) ) ;
#170 = PRODUCT_DEFINITION ( 'General', '', #39, #139 ) ;
#171 = FACE_OUTER_BOUND ( 'NONE', #81, .T. ) ;
#172 = VECTOR ( 'NONE', #144, 1000.000000000000000 ) ;
#173 = FACE_OUTER_BOUND ( 'NONE', #70, .T. ) ;
#174 = LINE ( 'NONE', #254, #83 ) ;
#175 = APPLICATION_PROTOCOL_DEFINITION ( 'draft international standard', 'automotive_design', 1998, #55 ) ;
#176 = AXIS2_PLACEMENT_3D ( 'NONE', #207, #150, #59 ) ;
#177 = CARTESIAN_POINT ( 'NONE',  ( 0.000000000000000000, -0.1765329653876526461, 2.243064000899538168 ) ) ;
#178 = CARTESIAN_POINT ( 'NONE',  ( -9.524999999999986144, -0.2353772871835370928, 2.990752001199387333 ) ) ;
#179 = DIRECTION ( 'NONE',  ( -1.000000000000000000, -0.000000000000000000, -0.000000000000000000 ) ) ;
#180 = CIRCLE ( 'NONE', #224, 2.812500000000000000 ) ;
#181 = PRODUCT_DEFINITION_SHAPE ( 'NONE', 'NONE',  #170 ) ;
#182 = ADVANCED_FACE ( 'NONE', ( #100 ), #191, .T. ) ;
#183 = CARTESIAN_POINT ( 'NONE',  ( 65.00000000000000000, -0.2206662067345657730, 2.803830001124422378 ) ) ;
#184 = ORIENTED_EDGE ( 'NONE', *, *, #128, .F. ) ;
#185 = ORIENTED_EDGE ( 'NONE', *, *, #4, .F. ) ;
#186 = VERTEX_POINT ( 'NONE', #137 ) ;
#187 = ORIENTED_EDGE ( 'NONE', *, *, #4, .T. ) ;
#188 = PLANE ( 'NONE',  #1 ) ;
#189 = DIRECTION ( 'NONE',  ( 0.000000000000000000, 0.000000000000000000, 1.000000000000000000 ) ) ;
#190 = DIRECTION ( 'NONE',  ( -0.000000000000000000, 0.000000000000000000, 1.000000000000000000 ) ) ;
#191 = CONICAL_SURFACE ( 'NONE', #106, 2.812500000000000000, 0.2617135024012134936 ) ;
#192 = PRODUCT_RELATED_PRODUCT_CATEGORY ( 'part', '', ( #120 ) ) ;
#193 = DIRECTION ( 'NONE',  ( -1.000000000000000000, -0.000000000000000000, -0.000000000000000000 ) ) ;
#194 = CARTESIAN_POINT ( 'NONE',  ( 65.00000000000000000, 0.000000000000000000, 0.000000000000000000 ) ) ;
#195 = DIRECTION ( 'NONE',  ( 0.000000000000000000, 0.07845909572784559582, 0.9969173337331278528 ) ) ;
#196 = PRESENTATION_LAYER_ASSIGNMENT (  '', '', ( #98 ) ) ;
#197 =( NAMED_UNIT ( * ) SI_UNIT ( $, .STERADIAN. ) SOLID_ANGLE_UNIT ( ) );
#198 = ORIENTED_EDGE ( 'NONE', *, *, #27, .T. ) ;
#199 = ORIENTED_EDGE ( 'NONE', *, *, #215, .F. ) ;
#200 = VECTOR ( 'NONE', #237, 1000.000000000000000 ) ;
#201 = UNCERTAINTY_MEASURE_WITH_UNIT (LENGTH_MEASURE( 1.000000000000000082E-05 ), #136, 'distance_accuracy_value', 'NONE');
#202 = CARTESIAN_POINT ( 'NONE',  ( 65.00000000000000000, 0.000000000000000000, 0.000000000000000000 ) ) ;
#203 = EDGE_CURVE ( 'NONE', #223, #222, #115, .T. ) ;
#204 = ORIENTED_EDGE ( 'NONE', *, *, #113, .T. ) ;
#205 = EDGE_LOOP ( 'NONE', ( #185, #7, #46, #184 ) ) ;
#206 = ORIENTED_EDGE ( 'NONE', *, *, #133, .F. ) ;
#207 = CARTESIAN_POINT ( 'NONE',  ( 0.000000000000000000, 2.812500000000000000, 0.000000000000000000 ) ) ;
#208 = FACE_OUTER_BOUND ( 'NONE', #28, .T. ) ;
#209 = CARTESIAN_POINT ( 'NONE',  ( 0.000000000000000000, 0.2206662067345658007, 2.803830001124422822 ) ) ;
#210 = DIRECTION ( 'NONE',  ( -0.9659480515032428105, 0.02030019927884502487, 0.2579384882221487651 ) ) ;
#211 = VECTOR ( 'NONE', #37, 1000.000000000000114 ) ;
#212 = CARTESIAN_POINT ( 'NONE',  ( 0.6999999999999992895, 0.2353772871835368152, 2.990752001199384669 ) ) ;
#213 = DIRECTION ( 'NONE',  ( 0.000000000000000000, 0.000000000000000000, 1.000000000000000000 ) ) ;
#214 = VERTEX_POINT ( 'NONE', #155 ) ;
#215 = EDGE_CURVE ( 'NONE', #223, #126, #2, .T. ) ;
#216 = MECHANICAL_DESIGN_GEOMETRIC_PRESENTATION_REPRESENTATION (  '', ( #98 ), #229 ) ;
#217 = CARTESIAN_POINT ( 'NONE',  ( 64.29999999999999716, 0.000000000000000000, 0.000000000000000000 ) ) ;
#218 = LINE ( 'NONE', #84, #65 ) ;
#219 = AXIS2_PLACEMENT_3D ( 'NONE', #157, #64, #44 ) ;
#220 = COLOUR_RGB ( '',0.7921568627450980005, 0.8196078431372548767, 0.9333333333333333481 ) ;
#221 = DIRECTION ( 'NONE',  ( 0.000000000000000000, 0.000000000000000000, 1.000000000000000000 ) ) ;
#222 = VERTEX_POINT ( 'NONE', #41 ) ;
#223 = VERTEX_POINT ( 'NONE', #22 ) ;
#224 = AXIS2_PLACEMENT_3D ( 'NONE', #202, #105, #221 ) ;
#225 = ORIENTED_EDGE ( 'NONE', *, *, #203, .F. ) ;
#226 = EDGE_CURVE ( 'NONE', #214, #9, #131, .T. ) ;
#227 = DIRECTION ( 'NONE',  ( -0.9659480515032449199, -0.02030019927884442119, -0.2579384882221411601 ) ) ;
#228 = SURFACE_STYLE_USAGE ( .BOTH. , #169 ) ;
#229 =( GEOMETRIC_REPRESENTATION_CONTEXT ( 3 ) GLOBAL_UNCERTAINTY_ASSIGNED_CONTEXT ( ( #159 ) ) GLOBAL_UNIT_ASSIGNED_CONTEXT ( ( #138, #235, #134 ) ) REPRESENTATION_CONTEXT ( 'NONE', 'WORKASPACE' ) );
#230 = DIRECTION ( 'NONE',  ( 0.000000000000000000, -0.9969173337331279638, 0.07845909572784560970 ) ) ;
#231 = FACE_OUTER_BOUND ( 'NONE', #143, .T. ) ;
#232 = CARTESIAN_POINT ( 'NONE',  ( 0.000000000000000000, 0.000000000000000000, 0.000000000000000000 ) ) ;
#233 = SHAPE_DEFINITION_REPRESENTATION ( #181, #252 ) ;
#234 = EDGE_CURVE ( 'NONE', #186, #223, #43, .T. ) ;
#235 =( NAMED_UNIT ( * ) PLANE_ANGLE_UNIT ( ) SI_UNIT ( $, .RADIAN. ) );
#236 = VECTOR ( 'NONE', #210, 1000.000000000000227 ) ;
#237 = DIRECTION ( 'NONE',  ( -1.000000000000000000, -0.000000000000000000, -0.000000000000000000 ) ) ;
#238 = EDGE_CURVE ( 'NONE', #26, #9, #63, .T. ) ;
#239 = DIRECTION ( 'NONE',  ( -1.000000000000000000, -0.000000000000000000, -0.000000000000000000 ) ) ;
#240 = LINE ( 'NONE', #141, #172 ) ;
#241 = CONICAL_SURFACE ( 'NONE', #103, 3.000000000000000000, 0.2617135024012055555 ) ;
#242 = ORIENTED_EDGE ( 'NONE', *, *, #128, .T. ) ;
#243 = ORIENTED_EDGE ( 'NONE', *, *, #16, .T. ) ;
#244 = CARTESIAN_POINT ( 'NONE',  ( -9.524999999999986144, -0.1765329653876525906, 2.243064000899537724 ) ) ;
#245 = AXIS2_PLACEMENT_3D ( 'NONE', #111, #57, #93 ) ;
#246 = VERTEX_POINT ( 'NONE', #177 ) ;
#247 = CARTESIAN_POINT ( 'NONE',  ( 65.00000000000000000, 0.000000000000000000, 0.000000000000000000 ) ) ;
#248 = FILL_AREA_STYLE ('',( #15 ) ) ;
#249 = EDGE_CURVE ( 'NONE', #222, #26, #218, .T. ) ;
#250 = CARTESIAN_POINT ( 'NONE',  ( 0.6999999999999992895, 0.000000000000000000, 0.000000000000000000 ) ) ;
#251 = VECTOR ( 'NONE', #156, 1000.000000000000227 ) ;
#252 = ADVANCED_BREP_SHAPE_REPRESENTATION ( 'ISO 13337 - 6 x 65 - St_ISO 13337 - 6 x 65 - St', ( #166, #219 ), #149 ) ;
#253 = CARTESIAN_POINT ( 'NONE',  ( 0.6999999999999992895, 0.000000000000000000, 0.000000000000000000 ) ) ;
#254 = CARTESIAN_POINT ( 'NONE',  ( -10.49999999999998046, 0.000000000000000000, 0.000000000000000000 ) ) ;
#255 = PRODUCT_CONTEXT ( 'NONE', #55, 'mechanical' ) ;
#256 = VECTOR ( 'NONE', #258, 1000.000000000000000 ) ;
#257 = EDGE_CURVE ( 'NONE', #9, #147, #80, .T. ) ;
#258 = DIRECTION ( 'NONE',  ( 1.000000000000000000, 0.000000000000000000, 0.000000000000000000 ) ) ;
#259 =( NAMED_UNIT ( * ) PLANE_ANGLE_UNIT ( ) SI_UNIT ( $, .RADIAN. ) );
ENDSEC;
END-ISO-10303-21;
