ISO-10303-21;
HEADER;
FILE_DESCRIPTION (( 'STEP AP214' ),
    '1' );
FILE_NAME ('Part4_T310.STEP',
    '2025-07-30T15:09:17',
    ( '' ),
    ( '' ),
    'SwSTEP 2.0',
    'SolidWorks 2025',
    '' );
FILE_SCHEMA (( 'AUTOMOTIVE_DESIGN' ));
ENDSEC;

DATA;
#1 = FACE_OUTER_BOUND ( 'NONE', #68, .T. ) ;
#2 = LINE ( 'NONE', #94, #17 ) ;
#3 = CARTESIAN_POINT ( 'NONE',  ( 35.29983897891812461, 205.7041746065208088, -3.000000000000000000 ) ) ;
#4 = VERTEX_POINT ( 'NONE', #387 ) ;
#5 = CYLINDRICAL_SURFACE ( 'NONE', #336, 10.00000000000000178 ) ;
#6 = ORIENTED_EDGE ( 'NONE', *, *, #333, .T. ) ;
#7 = DIRECTION ( 'NONE',  ( 0.9961656742872572190, 0.08748685256548073552, -0.000000000000000000 ) ) ;
#8 = ORIENTED_EDGE ( 'NONE', *, *, #172, .T. ) ;
#9 = CIRCLE ( 'NONE', #29, 9.000000000000039080 ) ;
#10 = DIRECTION ( 'NONE',  ( 1.000000000000000000, 6.938893903907229955E-15, 0.000000000000000000 ) ) ;
#11 = VERTEX_POINT ( 'NONE', #22 ) ;
#12 = EDGE_CURVE ( 'NONE', #216, #11, #51, .T. ) ;
#13 = DIRECTION ( 'NONE',  ( -0.08748685256548072164, 0.9961656742872571080, 0.000000000000000000 ) ) ;
#14 = ORIENTED_EDGE ( 'NONE', *, *, #12, .F. ) ;
#15 = VERTEX_POINT ( 'NONE', #389 ) ;
#16 = VERTEX_POINT ( 'NONE', #259 ) ;
#17 = VECTOR ( 'NONE', #31, 1000.000000000000000 ) ;
#18 = FACE_OUTER_BOUND ( 'NONE', #219, .T. ) ;
#19 = DIRECTION ( 'NONE',  ( -0.08748685256548072164, 0.9961656742872571080, 0.000000000000000000 ) ) ;
#20 = DIRECTION ( 'NONE',  ( 0.000000000000000000, -0.000000000000000000, -1.000000000000000000 ) ) ;
#21 = ORIENTED_EDGE ( 'NONE', *, *, #321, .F. ) ;
#22 = CARTESIAN_POINT ( 'NONE',  ( 25.33818223604556508, 204.8293060808659902, 0.000000000000000000 ) ) ;
#23 = VECTOR ( 'NONE', #344, 1000.000000000000000 ) ;
#24 = EDGE_CURVE ( 'NONE', #101, #141, #87, .T. ) ;
#25 = SURFACE_STYLE_FILL_AREA ( #61 ) ;
#26 = DIRECTION ( 'NONE',  ( -0.000000000000000000, 0.000000000000000000, 1.000000000000000000 ) ) ;
#27 = ADVANCED_FACE ( 'NONE', ( #106, #18 ), #392, .F. ) ;
#28 = FACE_OUTER_BOUND ( 'NONE', #43, .T. ) ;
#29 = AXIS2_PLACEMENT_3D ( 'NONE', #243, #304, #178 ) ;
#30 = PRODUCT_DEFINITION_CONTEXT ( 'detailed design', #130, 'design' ) ;
#31 = DIRECTION ( 'NONE',  ( 0.000000000000000000, 0.000000000000000000, -1.000000000000000000 ) ) ;
#32 = CARTESIAN_POINT ( 'NONE',  ( 27.13217139792386945, 211.4738545184721943, 0.000000000000000000 ) ) ;
#33 = ORIENTED_EDGE ( 'NONE', *, *, #348, .F. ) ;
#34 = ADVANCED_FACE ( 'NONE', ( #195 ), #235, .T. ) ;
#35 = DIRECTION ( 'NONE',  ( -0.000000000000000000, -0.000000000000000000, -1.000000000000000000 ) ) ;
#36 = EDGE_LOOP ( 'NONE', ( #170, #320, #181, #93 ) ) ;
#37 = DIRECTION ( 'NONE',  ( 0.000000000000000000, -0.000000000000000000, -1.000000000000000000 ) ) ;
#38 = EDGE_LOOP ( 'NONE', ( #8 ) ) ;
#39 = EDGE_CURVE ( 'NONE', #183, #390, #158, .T. ) ;
#40 = DIRECTION ( 'NONE',  ( -0.000000000000000000, 0.000000000000000000, 1.000000000000000000 ) ) ;
#41 = ORIENTED_EDGE ( 'NONE', *, *, #207, .F. ) ;
#42 =( NAMED_UNIT ( * ) SI_UNIT ( $, .STERADIAN. ) SOLID_ANGLE_UNIT ( ) );
#43 = EDGE_LOOP ( 'NONE', ( #53, #41, #48, #124 ) ) ;
#44 = AXIS2_PLACEMENT_3D ( 'NONE', #383, #20, #167 ) ;
#45 =( LENGTH_UNIT ( ) NAMED_UNIT ( * ) SI_UNIT ( .MILLI., .METRE. ) );
#46 = ORIENTED_EDGE ( 'NONE', *, *, #370, .F. ) ;
#47 = DIRECTION ( 'NONE',  ( -0.000000000000000000, 0.000000000000000000, 1.000000000000000000 ) ) ;
#48 = ORIENTED_EDGE ( 'NONE', *, *, #251, .F. ) ;
#49 = CARTESIAN_POINT ( 'NONE',  ( 19.78127057502900499, 216.6665664392284611, 0.000000000000000000 ) ) ;
#50 = MECHANICAL_DESIGN_GEOMETRIC_PRESENTATION_REPRESENTATION (  '', ( #90 ), #350 ) ;
#51 = LINE ( 'NONE', #201, #386 ) ;
#52 = CARTESIAN_POINT ( 'NONE',  ( 33.77916698550598085, 57.28005855326657780, -3.000000000000000000 ) ) ;
#53 = ORIENTED_EDGE ( 'NONE', *, *, #39, .F. ) ;
#54 = APPLICATION_CONTEXT ( 'automotive_design' ) ;
#55 = EDGE_CURVE ( 'NONE', #296, #325, #384, .T. ) ;
#56 = VERTEX_POINT ( 'NONE', #57 ) ;
#57 = CARTESIAN_POINT ( 'NONE',  ( 26.42826616261113770, 62.47277047402282335, 0.000000000000000000 ) ) ;
#58 = AXIS2_PLACEMENT_3D ( 'NONE', #227, #329, #171 ) ;
#59 = CARTESIAN_POINT ( 'NONE',  ( 0.000000000000000000, 0.000000000000000000, -3.000000000000000000 ) ) ;
#60 = DIRECTION ( 'NONE',  ( 0.000000000000000000, 0.000000000000000000, 1.000000000000000000 ) ) ;
#61 = FILL_AREA_STYLE ('',( #271 ) ) ;
#62 = CIRCLE ( 'NONE', #67, 10.00000000000000178 ) ;
#63 = LINE ( 'NONE', #180, #23 ) ;
#64 = ORIENTED_EDGE ( 'NONE', *, *, #12, .T. ) ;
#65 = DIRECTION ( 'NONE',  ( 1.000000000000000000, 8.326672684688672475E-15, 0.000000000000000000 ) ) ;
#66 = EDGE_LOOP ( 'NONE', ( #46, #162, #103, #288 ) ) ;
#67 = AXIS2_PLACEMENT_3D ( 'NONE', #313, #37, #65 ) ;
#68 = EDGE_LOOP ( 'NONE', ( #114, #83, #319, #358, #64, #287, #190, #316 ) ) ;
#69 = DIRECTION ( 'NONE',  ( 1.000000000000000000, -2.775557561562890957E-15, 0.000000000000000000 ) ) ;
#70 = ORIENTED_EDGE ( 'NONE', *, *, #175, .T. ) ;
#71 = FACE_OUTER_BOUND ( 'NONE', #342, .T. ) ;
#72 = ORIENTED_EDGE ( 'NONE', *, *, #24, .T. ) ;
#73 = AXIS2_PLACEMENT_3D ( 'NONE', #278, #157, #92 ) ;
#74 = ORIENTED_EDGE ( 'NONE', *, *, #39, .T. ) ;
#75 = CIRCLE ( 'NONE', #86, 4.500000000000007105 ) ;
#76 = DIRECTION ( 'NONE',  ( -0.000000000000000000, 0.000000000000000000, 1.000000000000000000 ) ) ;
#77 = EDGE_LOOP ( 'NONE', ( #374, #378, #126, #215 ) ) ;
#78 = ADVANCED_FACE ( 'NONE', ( #397 ), #176, .T. ) ;
#79 = DIRECTION ( 'NONE',  ( -0.000000000000000000, 0.000000000000000000, 1.000000000000000000 ) ) ;
#80 = CARTESIAN_POINT ( 'NONE',  ( 35.29983897891812461, 205.7041746065208088, -3.000000000000000000 ) ) ;
#81 = DIRECTION ( 'NONE',  ( 1.000000000000000000, 0.000000000000000000, 0.000000000000000000 ) ) ;
#82 = AXIS2_PLACEMENT_3D ( 'NONE', #155, #96, #69 ) ;
#83 = ORIENTED_EDGE ( 'NONE', *, *, #251, .T. ) ;
#84 = EDGE_CURVE ( 'NONE', #186, #15, #199, .T. ) ;
#85 = DIRECTION ( 'NONE',  ( -0.000000000000000000, 0.000000000000000000, 1.000000000000000000 ) ) ;
#86 = AXIS2_PLACEMENT_3D ( 'NONE', #163, #79, #349 ) ;
#87 = CIRCLE ( 'NONE', #105, 10.00000000000000178 ) ;
#88 = CARTESIAN_POINT ( 'NONE',  ( 27.13217139792386945, 211.4738545184721943, -3.000000000000000000 ) ) ;
#89 = CARTESIAN_POINT ( 'NONE',  ( 42.99540575092050432, 3.776011180685511448, -3.000000000000000000 ) ) ;
#90 = STYLED_ITEM ( 'NONE', ( #305 ), #120 ) ;
#91 = EDGE_CURVE ( 'NONE', #260, #101, #210, .T. ) ;
#92 = DIRECTION ( 'NONE',  ( 1.000000000000000000, 0.000000000000000000, 0.000000000000000000 ) ) ;
#93 = ORIENTED_EDGE ( 'NONE', *, *, #241, .F. ) ;
#94 = CARTESIAN_POINT ( 'NONE',  ( 37.18774639307478225, 69.90470058471831294, -3.000000000000000000 ) ) ;
#95 = ORIENTED_EDGE ( 'NONE', *, *, #270, .F. ) ;
#96 = DIRECTION ( 'NONE',  ( 0.000000000000000000, -0.000000000000000000, -1.000000000000000000 ) ) ;
#97 = EDGE_LOOP ( 'NONE', ( #222 ) ) ;
#98 = EDGE_CURVE ( 'NONE', #101, #4, #9, .T. ) ;
#99 = CIRCLE ( 'NONE', #326, 9.000000000000001776 ) ;
#100 = CYLINDRICAL_SURFACE ( 'NONE', #73, 10.00000000000000178 ) ;
#101 = VERTEX_POINT ( 'NONE', #399 ) ;
#102 = DIRECTION ( 'NONE',  ( 0.000000000000000000, 0.000000000000000000, 1.000000000000000000 ) ) ;
#103 = ORIENTED_EDGE ( 'NONE', *, *, #98, .T. ) ;
#104 = CARTESIAN_POINT ( 'NONE',  ( 34.02991468233516770, 2.988629507596182844, 0.000000000000000000 ) ) ;
#105 = AXIS2_PLACEMENT_3D ( 'NONE', #80, #297, #168 ) ;
#106 = FACE_OUTER_BOUND ( 'NONE', #312, .T. ) ;
#107 = CARTESIAN_POINT ( 'NONE',  ( 13.44800081955676063, 210.2720614384937505, 0.000000000000000000 ) ) ;
#108 = ORIENTED_EDGE ( 'NONE', *, *, #91, .F. ) ;
#109 = CARTESIAN_POINT ( 'NONE',  ( 33.77916698550598085, 57.28005855326657780, 0.000000000000000000 ) ) ;
#110 = ORIENTED_EDGE ( 'NONE', *, *, #160, .F. ) ;
#111 = EDGE_CURVE ( 'NONE', #186, #141, #146, .T. ) ;
#112 = VERTEX_POINT ( 'NONE', #360 ) ;
#113 = AXIS2_PLACEMENT_3D ( 'NONE', #248, #7, #121 ) ;
#114 = ORIENTED_EDGE ( 'NONE', *, *, #55, .F. ) ;
#115 = CARTESIAN_POINT ( 'NONE',  ( 33.77916698550598085, 57.28005855326657780, 0.000000000000000000 ) ) ;
#116 = PLANE ( 'NONE',  #258 ) ;
#117 = FACE_BOUND ( 'NONE', #293, .T. ) ;
#118 =( NAMED_UNIT ( * ) PLANE_ANGLE_UNIT ( ) SI_UNIT ( $, .RADIAN. ) );
#119 = DIRECTION ( 'NONE',  ( -0.08748685256548072164, 0.9961656742872571080, 0.000000000000000000 ) ) ;
#120 = MANIFOLD_SOLID_BREP ( 'Fillet1', #343 ) ;
#121 = DIRECTION ( 'NONE',  ( -0.08748685256548072164, 0.9961656742872571080, 0.000000000000000000 ) ) ;
#122 = ORIENTED_EDGE ( 'NONE', *, *, #321, .T. ) ;
#123 = DIRECTION ( 'NONE',  ( 0.000000000000000000, 0.000000000000000000, 1.000000000000000000 ) ) ;
#124 = ORIENTED_EDGE ( 'NONE', *, *, #214, .F. ) ;
#125 = PLANE ( 'NONE',  #233 ) ;
#126 = ORIENTED_EDGE ( 'NONE', *, *, #338, .F. ) ;
#127 = CARTESIAN_POINT ( 'NONE',  ( 37.18774639307478225, 69.90470058471831294, -3.000000000000000000 ) ) ;
#128 = EDGE_LOOP ( 'NONE', ( #282 ) ) ;
#129 = PRODUCT ( 'Part4_T310', 'Part4_T310', '', ( #322 ) ) ;
#130 = APPLICATION_CONTEXT ( 'automotive_design' ) ;
#131 = CARTESIAN_POINT ( 'NONE',  ( 34.02991468233516770, 2.988629507596182844, -3.000000000000000000 ) ) ;
#132 = ORIENTED_EDGE ( 'NONE', *, *, #207, .T. ) ;
#133 = DIRECTION ( 'NONE',  ( 0.000000000000000000, 0.000000000000000000, 1.000000000000000000 ) ) ;
#134 = ORIENTED_EDGE ( 'NONE', *, *, #24, .F. ) ;
#135 = DIRECTION ( 'NONE',  ( 0.000000000000000000, 0.000000000000000000, 1.000000000000000000 ) ) ;
#136 = DIRECTION ( 'NONE',  ( 1.000000000000000000, 0.000000000000000000, 0.000000000000000000 ) ) ;
#137 = DIRECTION ( 'NONE',  ( 1.000000000000000000, 0.000000000000000000, 0.000000000000000000 ) ) ;
#138 = PRODUCT_RELATED_PRODUCT_CATEGORY ( 'part', '', ( #129 ) ) ;
#139 = ORIENTED_EDGE ( 'NONE', *, *, #196, .F. ) ;
#140 = VERTEX_POINT ( 'NONE', #169 ) ;
#141 = VERTEX_POINT ( 'NONE', #143 ) ;
#142 = VECTOR ( 'NONE', #221, 1000.000000000000000 ) ;
#143 = CARTESIAN_POINT ( 'NONE',  ( 25.33818223604556508, 204.8293060808659902, -3.000000000000000000 ) ) ;
#144 = DIRECTION ( 'NONE',  ( -0.000000000000000000, -0.000000000000000000, -1.000000000000000000 ) ) ;
#145 = ADVANCED_FACE ( 'NONE', ( #1, #208, #117 ), #116, .T. ) ;
#146 = LINE ( 'NONE', #89, #177 ) ;
#147 = DIRECTION ( 'NONE',  ( -0.000000000000000000, 0.000000000000000000, 1.000000000000000000 ) ) ;
#148 = AXIS2_PLACEMENT_3D ( 'NONE', #59, #240, #173 ) ;
#149 = ADVANCED_FACE ( 'NONE', ( #28 ), #205, .F. ) ;
#150 = LINE ( 'NONE', #274, #337 ) ;
#151 = CARTESIAN_POINT ( 'NONE',  ( 16.37269116746022846, 204.0419244077766621, -3.000000000000000000 ) ) ;
#152 = EDGE_LOOP ( 'NONE', ( #110, #132, #291, #279 ) ) ;
#153 = AXIS2_PLACEMENT_3D ( 'NONE', #357, #135, #81 ) ;
#154 = CARTESIAN_POINT ( 'NONE',  ( 40.11243674097820389, 63.67456355400126711, 0.000000000000000000 ) ) ;
#155 = CARTESIAN_POINT ( 'NONE',  ( 35.29983897891812461, 205.7041746065208088, 0.000000000000000000 ) ) ;
#156 = ORIENTED_EDGE ( 'NONE', *, *, #214, .T. ) ;
#157 = DIRECTION ( 'NONE',  ( 0.000000000000000000, 0.000000000000000000, 1.000000000000000000 ) ) ;
#158 = CIRCLE ( 'NONE', #225, 9.999999999999998224 ) ;
#159 = ORIENTED_EDGE ( 'NONE', *, *, #270, .T. ) ;
#160 = EDGE_CURVE ( 'NONE', #56, #284, #99, .T. ) ;
#161 = AXIS2_PLACEMENT_3D ( 'NONE', #294, #256, #290 ) ;
#162 = ORIENTED_EDGE ( 'NONE', *, *, #91, .T. ) ;
#163 = CARTESIAN_POINT ( 'NONE',  ( 19.78127057502900499, 216.6665664392284611, 0.000000000000000000 ) ) ;
#164 = EDGE_LOOP ( 'NONE', ( #33, #74, #257, #6, #309, #72, #249, #376 ) ) ;
#165 = AXIS2_PLACEMENT_3D ( 'NONE', #367, #335, #236 ) ;
#166 = ADVANCED_FACE ( 'NONE', ( #174, #237, #332 ), #365, .F. ) ;
#167 = DIRECTION ( 'NONE',  ( 1.000000000000000000, 0.000000000000000000, 0.000000000000000000 ) ) ;
#168 = DIRECTION ( 'NONE',  ( 1.000000000000000000, 0.000000000000000000, 0.000000000000000000 ) ) ;
#169 = CARTESIAN_POINT ( 'NONE',  ( 24.28127057502901209, 216.6665664392284611, -3.000000000000000000 ) ) ;
#170 = ORIENTED_EDGE ( 'NONE', *, *, #333, .F. ) ;
#171 = DIRECTION ( 'NONE',  ( 1.000000000000000000, 0.000000000000000000, 0.000000000000000000 ) ) ;
#172 = EDGE_CURVE ( 'NONE', #140, #140, #310, .T. ) ;
#173 = DIRECTION ( 'NONE',  ( 1.000000000000000000, 0.000000000000000000, 0.000000000000000000 ) ) ;
#174 = FACE_OUTER_BOUND ( 'NONE', #164, .T. ) ;
#175 = EDGE_CURVE ( 'NONE', #216, #186, #2, .T. ) ;
#176 = CYLINDRICAL_SURFACE ( 'NONE', #165, 9.000000000000001776 ) ;
#177 = VECTOR ( 'NONE', #331, 1000.000000000000114 ) ;
#178 = DIRECTION ( 'NONE',  ( 1.000000000000000000, 0.000000000000000000, 0.000000000000000000 ) ) ;
#179 = AXIS2_PLACEMENT_3D ( 'NONE', #49, #47, #192 ) ;
#180 = CARTESIAN_POINT ( 'NONE',  ( 26.42826616261113770, 62.47277047402282335, -3.000000000000000000 ) ) ;
#181 = ORIENTED_EDGE ( 'NONE', *, *, #275, .F. ) ;
#182 = CARTESIAN_POINT ( 'NONE',  ( 25.33818223604556508, 204.8293060808659902, 0.000000000000000000 ) ) ;
#183 = VERTEX_POINT ( 'NONE', #373 ) ;
#184 = AXIS2_PLACEMENT_3D ( 'NONE', #302, #26, #250 ) ;
#185 = CARTESIAN_POINT ( 'NONE',  ( 13.44800081955676418, 210.2720614384937505, -3.000000000000000000 ) ) ;
#186 = VERTEX_POINT ( 'NONE', #127 ) ;
#187 = CARTESIAN_POINT ( 'NONE',  ( 37.18774639307478225, 69.90470058471831294, 0.000000000000000000 ) ) ;
#188 = ADVANCED_FACE ( 'NONE', ( #380 ), #100, .F. ) ;
#189 = CARTESIAN_POINT ( 'NONE',  ( 16.37269116746022846, 204.0419244077766621, -3.000000000000000000 ) ) ;
#190 = ORIENTED_EDGE ( 'NONE', *, *, #370, .T. ) ;
#191 = AXIS2_PLACEMENT_3D ( 'NONE', #347, #40, #283 ) ;
#192 = DIRECTION ( 'NONE',  ( 1.000000000000000000, 0.000000000000000000, 0.000000000000000000 ) ) ;
#193 = EDGE_LOOP ( 'NONE', ( #14, #70, #351, #159 ) ) ;
#194 = DIRECTION ( 'NONE',  ( 1.000000000000000000, 0.000000000000000000, 0.000000000000000000 ) ) ;
#195 = FACE_OUTER_BOUND ( 'NONE', #66, .T. ) ;
#196 = EDGE_CURVE ( 'NONE', #11, #260, #379, .T. ) ;
#197 = DIRECTION ( 'NONE',  ( 1.000000000000000000, 0.000000000000000000, 0.000000000000000000 ) ) ;
#198 = EDGE_LOOP ( 'NONE', ( #355 ) ) ;
#199 = CIRCLE ( 'NONE', #244, 10.00000000000000178 ) ;
#200 = CARTESIAN_POINT ( 'NONE',  ( 6.411034424587660041, 203.1670558821218719, -3.000000000000000000 ) ) ;
#201 = CARTESIAN_POINT ( 'NONE',  ( 42.99540575092050432, 3.776011180685511448, 0.000000000000000000 ) ) ;
#202 = DIRECTION ( 'NONE',  ( 1.000000000000000000, 0.000000000000000000, 0.000000000000000000 ) ) ;
#203 = PRODUCT_DEFINITION ( 'General', '', #228, #30 ) ;
#204 = AXIS2_PLACEMENT_3D ( 'NONE', #262, #361, #136 ) ;
#205 = CYLINDRICAL_SURFACE ( 'NONE', #217, 9.999999999999998224 ) ;
#206 = CARTESIAN_POINT ( 'NONE',  ( 47.14940313594734533, 70.77956911037313148, -3.000000000000000000 ) ) ;
#207 = EDGE_CURVE ( 'NONE', #56, #183, #63, .T. ) ;
#208 = FACE_BOUND ( 'NONE', #198, .T. ) ;
#209 = AXIS2_PLACEMENT_3D ( 'NONE', #109, #385, #197 ) ;
#210 = LINE ( 'NONE', #88, #398 ) ;
#211 = CIRCLE ( 'NONE', #353, 9.000000000000001776 ) ;
#212 = FACE_OUTER_BOUND ( 'NONE', #193, .T. ) ;
#213 = LINE ( 'NONE', #245, #372 ) ;
#214 = EDGE_CURVE ( 'NONE', #390, #296, #213, .T. ) ;
#215 = ORIENTED_EDGE ( 'NONE', *, *, #306, .F. ) ;
#216 = VERTEX_POINT ( 'NONE', #187 ) ;
#217 = AXIS2_PLACEMENT_3D ( 'NONE', #267, #60, #394 ) ;
#218 = CARTESIAN_POINT ( 'NONE',  ( 42.99540575092050432, 3.776011180685511448, -3.000000000000000000 ) ) ;
#219 = EDGE_LOOP ( 'NONE', ( #122 ) ) ;
#220 = ADVANCED_FACE ( 'NONE', ( #212 ), #125, .T. ) ;
#221 = DIRECTION ( 'NONE',  ( -0.000000000000000000, -0.000000000000000000, 1.000000000000000000 ) ) ;
#222 = ORIENTED_EDGE ( 'NONE', *, *, #172, .F. ) ;
#223 = DIRECTION ( 'NONE',  ( 1.000000000000000000, 0.000000000000000000, 0.000000000000000000 ) ) ;
#224 = DIRECTION ( 'NONE',  ( -0.08748685256548072164, 0.9961656742872571080, 0.000000000000000000 ) ) ;
#225 = AXIS2_PLACEMENT_3D ( 'NONE', #255, #85, #202 ) ;
#226 = APPLICATION_PROTOCOL_DEFINITION ( 'draft international standard', 'automotive_design', 1998, #54 ) ;
#227 = CARTESIAN_POINT ( 'NONE',  ( 33.77916698550598085, 57.28005855326657780, -3.000000000000000000 ) ) ;
#228 = PRODUCT_DEFINITION_FORMATION_WITH_SPECIFIED_SOURCE ( 'Symmetric', '', #129, .NOT_KNOWN. ) ;
#229 = DIRECTION ( 'NONE',  ( -0.000000000000000000, 0.000000000000000000, 1.000000000000000000 ) ) ;
#230 = EDGE_LOOP ( 'NONE', ( #345 ) ) ;
#231 = FACE_OUTER_BOUND ( 'NONE', #36, .T. ) ;
#232 = VERTEX_POINT ( 'NONE', #189 ) ;
#233 = AXIS2_PLACEMENT_3D ( 'NONE', #218, #315, #119 ) ;
#234 = CARTESIAN_POINT ( 'NONE',  ( 28.22225532448944207, 69.11731891162901320, -3.000000000000000000 ) ) ;
#235 = CYLINDRICAL_SURFACE ( 'NONE', #204, 9.000000000000039080 ) ;
#236 = DIRECTION ( 'NONE',  ( 1.000000000000000000, 0.000000000000000000, 0.000000000000000000 ) ) ;
#237 = FACE_BOUND ( 'NONE', #38, .T. ) ;
#238 = VECTOR ( 'NONE', #35, 1000.000000000000000 ) ;
#239 = AXIS2_PLACEMENT_3D ( 'NONE', #200, #229, #137 ) ;
#240 = DIRECTION ( 'NONE',  ( -0.000000000000000000, 0.000000000000000000, 1.000000000000000000 ) ) ;
#241 = EDGE_CURVE ( 'NONE', #4, #323, #346, .T. ) ;
#242 = SURFACE_STYLE_USAGE ( .BOTH. , #363 ) ;
#243 = CARTESIAN_POINT ( 'NONE',  ( 19.78127057502900499, 216.6665664392284611, -3.000000000000000000 ) ) ;
#244 = AXIS2_PLACEMENT_3D ( 'NONE', #206, #369, #272 ) ;
#245 = CARTESIAN_POINT ( 'NONE',  ( 28.22225532448944207, 69.11731891162901320, -3.000000000000000000 ) ) ;
#246 = UNCERTAINTY_MEASURE_WITH_UNIT (LENGTH_MEASURE( 1.000000000000000082E-05 ), #45, 'distance_accuracy_value', 'NONE');
#247 = DIRECTION ( 'NONE',  ( 1.000000000000000000, 0.000000000000000000, 0.000000000000000000 ) ) ;
#248 = CARTESIAN_POINT ( 'NONE',  ( 34.02991468233516770, 2.988629507596182844, -3.000000000000000000 ) ) ;
#249 = ORIENTED_EDGE ( 'NONE', *, *, #111, .F. ) ;
#250 = DIRECTION ( 'NONE',  ( 1.000000000000000000, 0.000000000000000000, 0.000000000000000000 ) ) ;
#251 = EDGE_CURVE ( 'NONE', #296, #56, #303, .T. ) ;
#252 = CARTESIAN_POINT ( 'NONE',  ( 18.26059858161687188, 68.24245038597420887, 0.000000000000000000 ) ) ;
#253 = ORIENTED_EDGE ( 'NONE', *, *, #289, .F. ) ;
#254 = ADVANCED_BREP_SHAPE_REPRESENTATION ( 'Part4_T310', ( #120, #301 ), #368 ) ;
#255 = CARTESIAN_POINT ( 'NONE',  ( 18.26059858161687188, 68.24245038597420887, -3.000000000000000000 ) ) ;
#256 = DIRECTION ( 'NONE',  ( 0.000000000000000000, 0.000000000000000000, 1.000000000000000000 ) ) ;
#257 = ORIENTED_EDGE ( 'NONE', *, *, #395, .T. ) ;
#258 = AXIS2_PLACEMENT_3D ( 'NONE', #371, #300, #269 ) ;
#259 = CARTESIAN_POINT ( 'NONE',  ( 38.27916698550597374, 57.28005855326657780, -3.000000000000000000 ) ) ;
#260 = VERTEX_POINT ( 'NONE', #32 ) ;
#261 = CARTESIAN_POINT ( 'NONE',  ( 0.000000000000000000, 0.000000000000000000, 0.000000000000000000 ) ) ;
#262 = CARTESIAN_POINT ( 'NONE',  ( 19.78127057502900499, 216.6665664392284611, -3.000000000000000000 ) ) ;
#263 = CARTESIAN_POINT ( 'NONE',  ( 16.37269116746022846, 204.0419244077766621, 0.000000000000000000 ) ) ;
#264 = ORIENTED_EDGE ( 'NONE', *, *, #265, .T. ) ;
#265 = EDGE_CURVE ( 'NONE', #325, #232, #382, .T. ) ;
#266 = CIRCLE ( 'NONE', #239, 10.00000000000000178 ) ;
#267 = CARTESIAN_POINT ( 'NONE',  ( 18.26059858161687188, 68.24245038597420887, -3.000000000000000000 ) ) ;
#268 = SHAPE_DEFINITION_REPRESENTATION ( #308, #254 ) ;
#269 = DIRECTION ( 'NONE',  ( 1.000000000000000000, 0.000000000000000000, 0.000000000000000000 ) ) ;
#270 = EDGE_CURVE ( 'NONE', #141, #11, #341, .T. ) ;
#271 = FILL_AREA_STYLE_COLOUR ( '', #366 ) ;
#272 = DIRECTION ( 'NONE',  ( 1.000000000000000000, 0.000000000000000000, 0.000000000000000000 ) ) ;
#273 =( NAMED_UNIT ( * ) SI_UNIT ( $, .STERADIAN. ) SOLID_ANGLE_UNIT ( ) );
#274 = CARTESIAN_POINT ( 'NONE',  ( 40.11243674097820389, 63.67456355400126711, -3.000000000000000000 ) ) ;
#275 = EDGE_CURVE ( 'NONE', #323, #325, #62, .T. ) ;
#276 = VECTOR ( 'NONE', #224, 1000.000000000000114 ) ;
#277 = PLANE ( 'NONE',  #113 ) ;
#278 = CARTESIAN_POINT ( 'NONE',  ( 47.14940313594734533, 70.77956911037313148, -3.000000000000000000 ) ) ;
#279 = ORIENTED_EDGE ( 'NONE', *, *, #306, .T. ) ;
#280 = ADVANCED_FACE ( 'NONE', ( #311 ), #277, .F. ) ;
#281 = DIRECTION ( 'NONE',  ( 0.000000000000000000, 0.000000000000000000, 1.000000000000000000 ) ) ;
#282 = ORIENTED_EDGE ( 'NONE', *, *, #289, .T. ) ;
#283 = DIRECTION ( 'NONE',  ( 1.000000000000000000, 0.000000000000000000, 0.000000000000000000 ) ) ;
#284 = VERTEX_POINT ( 'NONE', #154 ) ;
#285 = VECTOR ( 'NONE', #281, 1000.000000000000000 ) ;
#286 = CYLINDRICAL_SURFACE ( 'NONE', #161, 4.500000000000007105 ) ;
#287 = ORIENTED_EDGE ( 'NONE', *, *, #196, .T. ) ;
#288 = ORIENTED_EDGE ( 'NONE', *, *, #241, .T. ) ;
#289 = EDGE_CURVE ( 'NONE', #16, #16, #318, .T. ) ;
#290 = DIRECTION ( 'NONE',  ( 1.000000000000000000, 0.000000000000000000, 0.000000000000000000 ) ) ;
#291 = ORIENTED_EDGE ( 'NONE', *, *, #348, .T. ) ;
#292 = FACE_OUTER_BOUND ( 'NONE', #97, .T. ) ;
#293 = EDGE_LOOP ( 'NONE', ( #21 ) ) ;
#294 = CARTESIAN_POINT ( 'NONE',  ( 19.78127057502900499, 216.6665664392284611, -3.000000000000000000 ) ) ;
#295 = ADVANCED_FACE ( 'NONE', ( #71 ), #5, .F. ) ;
#296 = VERTEX_POINT ( 'NONE', #377 ) ;
#297 = DIRECTION ( 'NONE',  ( -0.000000000000000000, 0.000000000000000000, 1.000000000000000000 ) ) ;
#298 = PRESENTATION_LAYER_ASSIGNMENT (  '', '', ( #90 ) ) ;
#299 = CIRCLE ( 'NONE', #44, 10.00000000000000178 ) ;
#300 = DIRECTION ( 'NONE',  ( -0.000000000000000000, 0.000000000000000000, 1.000000000000000000 ) ) ;
#301 = AXIS2_PLACEMENT_3D ( 'NONE', #261, #133, #194 ) ;
#302 = CARTESIAN_POINT ( 'NONE',  ( 19.78127057502900499, 216.6665664392284611, -3.000000000000000000 ) ) ;
#303 = CIRCLE ( 'NONE', #359, 9.999999999999998224 ) ;
#304 = DIRECTION ( 'NONE',  ( -0.000000000000000000, 0.000000000000000000, 1.000000000000000000 ) ) ;
#305 = PRESENTATION_STYLE_ASSIGNMENT (( #242 ) ) ;
#306 = EDGE_CURVE ( 'NONE', #15, #284, #150, .T. ) ;
#307 = DIRECTION ( 'NONE',  ( 0.000000000000000000, -0.000000000000000000, -1.000000000000000000 ) ) ;
#308 = PRODUCT_DEFINITION_SHAPE ( 'NONE', 'NONE',  #203 ) ;
#309 = ORIENTED_EDGE ( 'NONE', *, *, #98, .F. ) ;
#310 = CIRCLE ( 'NONE', #184, 4.500000000000007105 ) ;
#311 = FACE_OUTER_BOUND ( 'NONE', #314, .T. ) ;
#312 = EDGE_LOOP ( 'NONE', ( #253 ) ) ;
#313 = CARTESIAN_POINT ( 'NONE',  ( 6.411034424587660041, 203.1670558821218719, 0.000000000000000000 ) ) ;
#314 = EDGE_LOOP ( 'NONE', ( #340, #156, #330, #264 ) ) ;
#315 = DIRECTION ( 'NONE',  ( 0.9961656742872572190, 0.08748685256548073552, -0.000000000000000000 ) ) ;
#316 = ORIENTED_EDGE ( 'NONE', *, *, #275, .T. ) ;
#317 =( NAMED_UNIT ( * ) PLANE_ANGLE_UNIT ( ) SI_UNIT ( $, .RADIAN. ) );
#318 = CIRCLE ( 'NONE', #191, 4.499999999999990230 ) ;
#319 = ORIENTED_EDGE ( 'NONE', *, *, #160, .T. ) ;
#320 = ORIENTED_EDGE ( 'NONE', *, *, #265, .F. ) ;
#321 = EDGE_CURVE ( 'NONE', #324, #324, #393, .T. ) ;
#322 = PRODUCT_CONTEXT ( 'NONE', #54, 'mechanical' ) ;
#323 = VERTEX_POINT ( 'NONE', #107 ) ;
#324 = VERTEX_POINT ( 'NONE', #391 ) ;
#325 = VERTEX_POINT ( 'NONE', #263 ) ;
#326 = AXIS2_PLACEMENT_3D ( 'NONE', #115, #147, #396 ) ;
#327 = ADVANCED_FACE ( 'NONE', ( #231 ), #388, .F. ) ;
#328 = LINE ( 'NONE', #131, #334 ) ;
#329 = DIRECTION ( 'NONE',  ( 0.000000000000000000, 0.000000000000000000, 1.000000000000000000 ) ) ;
#330 = ORIENTED_EDGE ( 'NONE', *, *, #55, .T. ) ;
#331 = DIRECTION ( 'NONE',  ( -0.08748685256548072164, 0.9961656742872571080, 0.000000000000000000 ) ) ;
#332 = FACE_BOUND ( 'NONE', #128, .T. ) ;
#333 = EDGE_CURVE ( 'NONE', #232, #4, #266, .T. ) ;
#334 = VECTOR ( 'NONE', #13, 1000.000000000000114 ) ;
#335 = DIRECTION ( 'NONE',  ( 0.000000000000000000, 0.000000000000000000, 1.000000000000000000 ) ) ;
#336 = AXIS2_PLACEMENT_3D ( 'NONE', #3, #123, #247 ) ;
#337 = VECTOR ( 'NONE', #375, 1000.000000000000000 ) ;
#338 = EDGE_CURVE ( 'NONE', #284, #216, #299, .T. ) ;
#339 =( LENGTH_UNIT ( ) NAMED_UNIT ( * ) SI_UNIT ( .MILLI., .METRE. ) );
#340 = ORIENTED_EDGE ( 'NONE', *, *, #395, .F. ) ;
#341 = LINE ( 'NONE', #182, #142 ) ;
#342 = EDGE_LOOP ( 'NONE', ( #134, #108, #139, #95 ) ) ;
#343 = CLOSED_SHELL ( 'NONE', ( #78, #280, #34, #356, #220, #27, #166, #145, #149, #188, #295, #327 ) ) ;
#344 = DIRECTION ( 'NONE',  ( -0.000000000000000000, -0.000000000000000000, -1.000000000000000000 ) ) ;
#345 = ORIENTED_EDGE ( 'NONE', *, *, #364, .T. ) ;
#346 = LINE ( 'NONE', #185, #285 ) ;
#347 = CARTESIAN_POINT ( 'NONE',  ( 33.77916698550598085, 57.28005855326657780, -3.000000000000000000 ) ) ;
#348 = EDGE_CURVE ( 'NONE', #183, #15, #211, .T. ) ;
#349 = DIRECTION ( 'NONE',  ( 1.000000000000000000, 0.000000000000000000, 0.000000000000000000 ) ) ;
#350 =( GEOMETRIC_REPRESENTATION_CONTEXT ( 3 ) GLOBAL_UNCERTAINTY_ASSIGNED_CONTEXT ( ( #381 ) ) GLOBAL_UNIT_ASSIGNED_CONTEXT ( ( #339, #118, #273 ) ) REPRESENTATION_CONTEXT ( 'NONE', 'WORKASPACE' ) );
#351 = ORIENTED_EDGE ( 'NONE', *, *, #111, .T. ) ;
#352 = APPLICATION_PROTOCOL_DEFINITION ( 'draft international standard', 'automotive_design', 1998, #130 ) ;
#353 = AXIS2_PLACEMENT_3D ( 'NONE', #52, #76, #223 ) ;
#354 = FACE_OUTER_BOUND ( 'NONE', #230, .T. ) ;
#355 = ORIENTED_EDGE ( 'NONE', *, *, #364, .F. ) ;
#356 = ADVANCED_FACE ( 'NONE', ( #292, #354 ), #286, .F. ) ;
#357 = CARTESIAN_POINT ( 'NONE',  ( 6.411034424587660041, 203.1670558821218719, -3.000000000000000000 ) ) ;
#358 = ORIENTED_EDGE ( 'NONE', *, *, #338, .T. ) ;
#359 = AXIS2_PLACEMENT_3D ( 'NONE', #252, #307, #10 ) ;
#360 = CARTESIAN_POINT ( 'NONE',  ( 24.28127057502901209, 216.6665664392284611, 0.000000000000000000 ) ) ;
#361 = DIRECTION ( 'NONE',  ( 0.000000000000000000, 0.000000000000000000, 1.000000000000000000 ) ) ;
#362 = CIRCLE ( 'NONE', #179, 9.000000000000039080 ) ;
#363 = SURFACE_SIDE_STYLE ('',( #25 ) ) ;
#364 = EDGE_CURVE ( 'NONE', #112, #112, #75, .T. ) ;
#365 = PLANE ( 'NONE',  #148 ) ;
#366 = COLOUR_RGB ( '',0.7921568627450980005, 0.8196078431372548767, 0.9333333333333333481 ) ;
#367 = CARTESIAN_POINT ( 'NONE',  ( 33.77916698550598085, 57.28005855326657780, -3.000000000000000000 ) ) ;
#368 =( GEOMETRIC_REPRESENTATION_CONTEXT ( 3 ) GLOBAL_UNCERTAINTY_ASSIGNED_CONTEXT ( ( #246 ) ) GLOBAL_UNIT_ASSIGNED_CONTEXT ( ( #45, #317, #42 ) ) REPRESENTATION_CONTEXT ( 'NONE', 'WORKASPACE' ) );
#369 = DIRECTION ( 'NONE',  ( -0.000000000000000000, 0.000000000000000000, 1.000000000000000000 ) ) ;
#370 = EDGE_CURVE ( 'NONE', #260, #323, #362, .T. ) ;
#371 = CARTESIAN_POINT ( 'NONE',  ( 0.000000000000000000, 0.000000000000000000, 0.000000000000000000 ) ) ;
#372 = VECTOR ( 'NONE', #102, 1000.000000000000000 ) ;
#373 = CARTESIAN_POINT ( 'NONE',  ( 26.42826616261113770, 62.47277047402282335, -3.000000000000000000 ) ) ;
#374 = ORIENTED_EDGE ( 'NONE', *, *, #84, .F. ) ;
#375 = DIRECTION ( 'NONE',  ( 0.000000000000000000, 0.000000000000000000, 1.000000000000000000 ) ) ;
#376 = ORIENTED_EDGE ( 'NONE', *, *, #84, .T. ) ;
#377 = CARTESIAN_POINT ( 'NONE',  ( 28.22225532448944207, 69.11731891162901320, 0.000000000000000000 ) ) ;
#378 = ORIENTED_EDGE ( 'NONE', *, *, #175, .F. ) ;
#379 = CIRCLE ( 'NONE', #82, 10.00000000000000178 ) ;
#380 = FACE_OUTER_BOUND ( 'NONE', #77, .T. ) ;
#381 = UNCERTAINTY_MEASURE_WITH_UNIT (LENGTH_MEASURE( 1.000000000000000082E-05 ), #339, 'distance_accuracy_value', 'NONE');
#382 = LINE ( 'NONE', #151, #238 ) ;
#383 = CARTESIAN_POINT ( 'NONE',  ( 47.14940313594734533, 70.77956911037313148, 0.000000000000000000 ) ) ;
#384 = LINE ( 'NONE', #104, #276 ) ;
#385 = DIRECTION ( 'NONE',  ( -0.000000000000000000, 0.000000000000000000, 1.000000000000000000 ) ) ;
#386 = VECTOR ( 'NONE', #19, 1000.000000000000114 ) ;
#387 = CARTESIAN_POINT ( 'NONE',  ( 13.44800081955676063, 210.2720614384937505, -3.000000000000000000 ) ) ;
#388 = CYLINDRICAL_SURFACE ( 'NONE', #153, 10.00000000000000178 ) ;
#389 = CARTESIAN_POINT ( 'NONE',  ( 40.11243674097820389, 63.67456355400126711, -3.000000000000000000 ) ) ;
#390 = VERTEX_POINT ( 'NONE', #234 ) ;
#391 = CARTESIAN_POINT ( 'NONE',  ( 38.27916698550597374, 57.28005855326657780, 0.000000000000000000 ) ) ;
#392 = CYLINDRICAL_SURFACE ( 'NONE', #58, 4.499999999999990230 ) ;
#393 = CIRCLE ( 'NONE', #209, 4.499999999999990230 ) ;
#394 = DIRECTION ( 'NONE',  ( 1.000000000000000000, 0.000000000000000000, 0.000000000000000000 ) ) ;
#395 = EDGE_CURVE ( 'NONE', #390, #232, #328, .T. ) ;
#396 = DIRECTION ( 'NONE',  ( 1.000000000000000000, 0.000000000000000000, 0.000000000000000000 ) ) ;
#397 = FACE_OUTER_BOUND ( 'NONE', #152, .T. ) ;
#398 = VECTOR ( 'NONE', #144, 1000.000000000000000 ) ;
#399 = CARTESIAN_POINT ( 'NONE',  ( 27.13217139792386945, 211.4738545184721943, -3.000000000000000000 ) ) ;
ENDSEC;
END-ISO-10303-21;
