ISO-10303-21;
HEADER;
FILE_DESCRIPTION (( 'STEP AP214' ),
    '1' );
FILE_NAME ('Part10_T310.STEP',
    '2025-07-30T15:09:17',
    ( '' ),
    ( '' ),
    'SwSTEP 2.0',
    'SolidWorks 2025',
    '' );
FILE_SCHEMA (( 'AUTOMOTIVE_DESIGN' ));
ENDSEC;

DATA;
#1 = AXIS2_PLACEMENT_3D ( 'NONE', #207, #177, #150 ) ;
#2 = EDGE_LOOP ( 'NONE', ( #139 ) ) ;
#3 = DIRECTION ( 'NONE',  ( 0.000000000000000000, 0.000000000000000000, 1.000000000000000000 ) ) ;
#4 = FACE_BOUND ( 'NONE', #105, .T. ) ;
#5 = DIRECTION ( 'NONE',  ( -0.000000000000000000, -1.000000000000000000, -0.000000000000000000 ) ) ;
#6 = AXIS2_PLACEMENT_3D ( 'NONE', #81, #185, #101 ) ;
#7 = CARTESIAN_POINT ( 'NONE',  ( 0.000000000000000000, 8.075000000000001066, 0.000000000000000000 ) ) ;
#8 = PRODUCT_DEFINITION ( 'General', '', #39, #157 ) ;
#9 = FACE_OUTER_BOUND ( 'NONE', #87, .T. ) ;
#10 = CARTESIAN_POINT ( 'NONE',  ( -21.93273722903044032, 8.075000000000001066, -17.00051580518374195 ) ) ;
#11 = FACE_OUTER_BOUND ( 'NONE', #35, .T. ) ;
#12 = CARTESIAN_POINT ( 'NONE',  ( -21.93273722903044032, -8.075000000000001066, -17.00051580518374195 ) ) ;
#13 = ORIENTED_EDGE ( 'NONE', *, *, #211, .F. ) ;
#14 = ORIENTED_EDGE ( 'NONE', *, *, #19, .F. ) ;
#15 = ORIENTED_EDGE ( 'NONE', *, *, #197, .T. ) ;
#16 = ORIENTED_EDGE ( 'NONE', *, *, #184, .F. ) ;
#17 = PRODUCT ( 'Part10_T310', 'Part10_T310', '', ( #51 ) ) ;
#18 = DIRECTION ( 'NONE',  ( -0.000000000000000000, -1.000000000000000000, -0.000000000000000000 ) ) ;
#19 = EDGE_CURVE ( 'NONE', #130, #130, #141, .T. ) ;
#20 = FACE_OUTER_BOUND ( 'NONE', #219, .T. ) ;
#21 = AXIS2_PLACEMENT_3D ( 'NONE', #198, #112, #62 ) ;
#22 = UNCERTAINTY_MEASURE_WITH_UNIT (LENGTH_MEASURE( 1.000000000000000082E-05 ), #95, 'distance_accuracy_value', 'NONE');
#23 = ORIENTED_EDGE ( 'NONE', *, *, #178, .F. ) ;
#24 = DIRECTION ( 'NONE',  ( 0.000000000000000000, -0.000000000000000000, 1.000000000000000000 ) ) ;
#25 = DIRECTION ( 'NONE',  ( 0.000000000000000000, 1.000000000000000000, 0.000000000000000000 ) ) ;
#26 = PRESENTATION_LAYER_ASSIGNMENT (  '', '', ( #83 ) ) ;
#27 = DIRECTION ( 'NONE',  ( 0.000000000000000000, 1.000000000000000000, 0.000000000000000000 ) ) ;
#28 = CARTESIAN_POINT ( 'NONE',  ( 0.000000000000000000, -8.075000000000001066, 22.25000000000000355 ) ) ;
#29 = CARTESIAN_POINT ( 'NONE',  ( -21.93273722903044032, 8.075000000000001066, 17.00051580518374195 ) ) ;
#30 = VERTEX_POINT ( 'NONE', #164 ) ;
#31 = CIRCLE ( 'NONE', #113, 32.00000000000000000 ) ;
#32 = DIRECTION ( 'NONE',  ( 0.000000000000000000, 0.000000000000000000, 1.000000000000000000 ) ) ;
#33 = EDGE_LOOP ( 'NONE', ( #66 ) ) ;
#34 = AXIS2_PLACEMENT_3D ( 'NONE', #175, #92, #24 ) ;
#35 = EDGE_LOOP ( 'NONE', ( #104 ) ) ;
#36 = EDGE_LOOP ( 'NONE', ( #16 ) ) ;
#37 = ORIENTED_EDGE ( 'NONE', *, *, #211, .T. ) ;
#38 = FACE_BOUND ( 'NONE', #159, .T. ) ;
#39 = PRODUCT_DEFINITION_FORMATION_WITH_SPECIFIED_SOURCE ( 'Symmetric', '', #17, .NOT_KNOWN. ) ;
#40 = ORIENTED_EDGE ( 'NONE', *, *, #197, .F. ) ;
#41 = AXIS2_PLACEMENT_3D ( 'NONE', #55, #106, #171 ) ;
#42 = UNCERTAINTY_MEASURE_WITH_UNIT (LENGTH_MEASURE( 1.000000000000000082E-05 ), #135, 'distance_accuracy_value', 'NONE');
#43 = FACE_BOUND ( 'NONE', #201, .T. ) ;
#44 = PLANE ( 'NONE',  #34 ) ;
#45 =( NAMED_UNIT ( * ) SI_UNIT ( $, .STERADIAN. ) SOLID_ANGLE_UNIT ( ) );
#46 = CARTESIAN_POINT ( 'NONE',  ( -21.93273722903044032, -8.075000000000001066, 18.75051580518374550 ) ) ;
#47 = ADVANCED_FACE ( 'NONE', ( #126, #56 ), #191, .F. ) ;
#48 = DIRECTION ( 'NONE',  ( 0.000000000000000000, 0.000000000000000000, 1.000000000000000000 ) ) ;
#49 = DIRECTION ( 'NONE',  ( 0.000000000000000000, 1.000000000000000000, 0.000000000000000000 ) ) ;
#50 = CARTESIAN_POINT ( 'NONE',  ( -21.93273722903044032, -8.075000000000001066, -15.25051580518374372 ) ) ;
#51 = PRODUCT_CONTEXT ( 'NONE', #82, 'mechanical' ) ;
#52 = ORIENTED_EDGE ( 'NONE', *, *, #107, .T. ) ;
#53 = PRODUCT_DEFINITION_SHAPE ( 'NONE', 'NONE',  #8 ) ;
#54 = FACE_BOUND ( 'NONE', #57, .T. ) ;
#55 = CARTESIAN_POINT ( 'NONE',  ( 0.000000000000000000, -8.075000000000001066, 0.000000000000000000 ) ) ;
#56 = FACE_OUTER_BOUND ( 'NONE', #91, .T. ) ;
#57 = EDGE_LOOP ( 'NONE', ( #189 ) ) ;
#58 = AXIS2_PLACEMENT_3D ( 'NONE', #75, #160, #3 ) ;
#59 = DIRECTION ( 'NONE',  ( 0.000000000000000000, 0.000000000000000000, -1.000000000000000000 ) ) ;
#60 = DIRECTION ( 'NONE',  ( 0.000000000000000000, 0.000000000000000000, 1.000000000000000000 ) ) ;
#61 = ADVANCED_FACE ( 'NONE', ( #144, #170 ), #69, .T. ) ;
#62 = DIRECTION ( 'NONE',  ( 0.000000000000000000, 0.000000000000000000, -1.000000000000000000 ) ) ;
#63 = FILL_AREA_STYLE ('',( #80 ) ) ;
#64 = PRESENTATION_STYLE_ASSIGNMENT (( #180 ) ) ;
#65 = ORIENTED_EDGE ( 'NONE', *, *, #102, .T. ) ;
#66 = ORIENTED_EDGE ( 'NONE', *, *, #97, .F. ) ;
#67 = CIRCLE ( 'NONE', #94, 1.750000000000001554 ) ;
#68 = ADVANCED_FACE ( 'NONE', ( #89, #158 ), #129, .F. ) ;
#69 = CYLINDRICAL_SURFACE ( 'NONE', #138, 32.00000000000000000 ) ;
#70 = CIRCLE ( 'NONE', #195, 1.749999999999999778 ) ;
#71 = ADVANCED_FACE ( 'NONE', ( #43, #142, #110, #146, #4 ), #44, .T. ) ;
#72 = FACE_OUTER_BOUND ( 'NONE', #33, .T. ) ;
#73 = EDGE_LOOP ( 'NONE', ( #15 ) ) ;
#74 = CARTESIAN_POINT ( 'NONE',  ( -21.93273722903044032, 8.075000000000001066, -17.00051580518374195 ) ) ;
#75 = CARTESIAN_POINT ( 'NONE',  ( 0.000000000000000000, -8.075000000000001066, 0.000000000000000000 ) ) ;
#76 = DIRECTION ( 'NONE',  ( 0.000000000000000000, 1.000000000000000000, 0.000000000000000000 ) ) ;
#77 = CYLINDRICAL_SURFACE ( 'NONE', #21, 1.750000000000000000 ) ;
#78 = AXIS2_PLACEMENT_3D ( 'NONE', #12, #27, #48 ) ;
#79 = DIRECTION ( 'NONE',  ( 0.000000000000000000, 1.000000000000000000, 0.000000000000000000 ) ) ;
#80 = FILL_AREA_STYLE_COLOUR ( '', #85 ) ;
#81 = CARTESIAN_POINT ( 'NONE',  ( 0.000000000000000000, 0.000000000000000000, 0.000000000000000000 ) ) ;
#82 = APPLICATION_CONTEXT ( 'automotive_design' ) ;
#83 = STYLED_ITEM ( 'NONE', ( #64 ), #212 ) ;
#84 = ORIENTED_EDGE ( 'NONE', *, *, #192, .T. ) ;
#85 = COLOUR_RGB ( '',0.7921568627450980005, 0.8196078431372548767, 0.9333333333333333481 ) ;
#86 = APPLICATION_CONTEXT ( 'automotive_design' ) ;
#87 = EDGE_LOOP ( 'NONE', ( #14 ) ) ;
#88 = CARTESIAN_POINT ( 'NONE',  ( 0.000000000000000000, 8.075000000000001066, 0.000000000000000000 ) ) ;
#89 = FACE_OUTER_BOUND ( 'NONE', #136, .T. ) ;
#90 = AXIS2_PLACEMENT_3D ( 'NONE', #153, #76, #32 ) ;
#91 = EDGE_LOOP ( 'NONE', ( #23 ) ) ;
#92 = DIRECTION ( 'NONE',  ( 0.000000000000000000, 1.000000000000000000, 0.000000000000000000 ) ) ;
#93 = DIRECTION ( 'NONE',  ( 0.000000000000000000, 0.000000000000000000, 1.000000000000000000 ) ) ;
#94 = AXIS2_PLACEMENT_3D ( 'NONE', #162, #127, #161 ) ;
#95 =( LENGTH_UNIT ( ) NAMED_UNIT ( * ) SI_UNIT ( .MILLI., .METRE. ) );
#96 = CARTESIAN_POINT ( 'NONE',  ( 0.000000000000000000, 8.075000000000001066, 22.25000000000000355 ) ) ;
#97 = EDGE_CURVE ( 'NONE', #213, #213, #67, .T. ) ;
#98 = CLOSED_SHELL ( 'NONE', ( #71, #140, #61, #47, #148, #68, #145 ) ) ;
#99 = VERTEX_POINT ( 'NONE', #166 ) ;
#100 = DIRECTION ( 'NONE',  ( 0.000000000000000000, 1.000000000000000000, 0.000000000000000000 ) ) ;
#101 = DIRECTION ( 'NONE',  ( 1.000000000000000000, 0.000000000000000000, 0.000000000000000000 ) ) ;
#102 = EDGE_CURVE ( 'NONE', #196, #196, #209, .T. ) ;
#103 = EDGE_LOOP ( 'NONE', ( #84 ) ) ;
#104 = ORIENTED_EDGE ( 'NONE', *, *, #107, .F. ) ;
#105 = EDGE_LOOP ( 'NONE', ( #13 ) ) ;
#106 = DIRECTION ( 'NONE',  ( 0.000000000000000000, 1.000000000000000000, 0.000000000000000000 ) ) ;
#107 = EDGE_CURVE ( 'NONE', #133, #133, #124, .T. ) ;
#108 = ORIENTED_EDGE ( 'NONE', *, *, #214, .F. ) ;
#109 = CIRCLE ( 'NONE', #165, 22.25000000000000355 ) ;
#110 = FACE_OUTER_BOUND ( 'NONE', #73, .T. ) ;
#111 = CARTESIAN_POINT ( 'NONE',  ( 27.75000000000000000, -8.075000000000001066, 0.000000000000000000 ) ) ;
#112 = DIRECTION ( 'NONE',  ( -0.000000000000000000, -1.000000000000000000, -0.000000000000000000 ) ) ;
#113 = AXIS2_PLACEMENT_3D ( 'NONE', #147, #49, #167 ) ;
#114 = CARTESIAN_POINT ( 'NONE',  ( 27.75000000000000000, 8.075000000000001066, 1.750000000000000000 ) ) ;
#115 = CARTESIAN_POINT ( 'NONE',  ( 0.000000000000000000, 8.075000000000001066, 0.000000000000000000 ) ) ;
#116 =( GEOMETRIC_REPRESENTATION_CONTEXT ( 3 ) GLOBAL_UNCERTAINTY_ASSIGNED_CONTEXT ( ( #42 ) ) GLOBAL_UNIT_ASSIGNED_CONTEXT ( ( #135, #122, #154 ) ) REPRESENTATION_CONTEXT ( 'NONE', 'WORKASPACE' ) );
#117 = VERTEX_POINT ( 'NONE', #28 ) ;
#118 = DIRECTION ( 'NONE',  ( 0.000000000000000000, 0.000000000000000000, 1.000000000000000000 ) ) ;
#119 = APPLICATION_PROTOCOL_DEFINITION ( 'draft international standard', 'automotive_design', 1998, #86 ) ;
#120 = EDGE_LOOP ( 'NONE', ( #156 ) ) ;
#121 = EDGE_LOOP ( 'NONE', ( #52 ) ) ;
#122 =( NAMED_UNIT ( * ) PLANE_ANGLE_UNIT ( ) SI_UNIT ( $, .RADIAN. ) );
#123 = EDGE_LOOP ( 'NONE', ( #203 ) ) ;
#124 = CIRCLE ( 'NONE', #173, 1.750000000000000000 ) ;
#125 = FACE_BOUND ( 'NONE', #121, .T. ) ;
#126 = FACE_OUTER_BOUND ( 'NONE', #103, .T. ) ;
#127 = DIRECTION ( 'NONE',  ( 0.000000000000000000, 1.000000000000000000, 0.000000000000000000 ) ) ;
#128 = DIRECTION ( 'NONE',  ( 0.000000000000000000, 0.000000000000000000, -1.000000000000000000 ) ) ;
#129 = CYLINDRICAL_SURFACE ( 'NONE', #216, 1.750000000000001554 ) ;
#130 = VERTEX_POINT ( 'NONE', #152 ) ;
#131 = DIRECTION ( 'NONE',  ( 0.000000000000000000, 0.000000000000000000, 1.000000000000000000 ) ) ;
#132 = FACE_OUTER_BOUND ( 'NONE', #202, .T. ) ;
#133 = VERTEX_POINT ( 'NONE', #193 ) ;
#134 = VERTEX_POINT ( 'NONE', #50 ) ;
#135 =( LENGTH_UNIT ( ) NAMED_UNIT ( * ) SI_UNIT ( .MILLI., .METRE. ) );
#136 = EDGE_LOOP ( 'NONE', ( #186 ) ) ;
#137 = SHAPE_DEFINITION_REPRESENTATION ( #53, #149 ) ;
#138 = AXIS2_PLACEMENT_3D ( 'NONE', #7, #208, #128 ) ;
#139 = ORIENTED_EDGE ( 'NONE', *, *, #192, .F. ) ;
#140 = ADVANCED_FACE ( 'NONE', ( #9, #54, #125, #187, #38 ), #206, .F. ) ;
#141 = CIRCLE ( 'NONE', #58, 32.00000000000000000 ) ;
#142 = FACE_BOUND ( 'NONE', #2, .T. ) ;
#143 = CYLINDRICAL_SURFACE ( 'NONE', #1, 1.749999999999999778 ) ;
#144 = FACE_OUTER_BOUND ( 'NONE', #221, .T. ) ;
#145 = ADVANCED_FACE ( 'NONE', ( #20, #72 ), #143, .F. ) ;
#146 = FACE_BOUND ( 'NONE', #120, .T. ) ;
#147 = CARTESIAN_POINT ( 'NONE',  ( 0.000000000000000000, 8.075000000000001066, 0.000000000000000000 ) ) ;
#148 = ADVANCED_FACE ( 'NONE', ( #132, #11 ), #77, .F. ) ;
#149 = ADVANCED_BREP_SHAPE_REPRESENTATION ( 'Part10_T310', ( #212, #6 ), #116 ) ;
#150 = DIRECTION ( 'NONE',  ( 0.000000000000000000, 0.000000000000000000, -1.000000000000000000 ) ) ;
#151 = CIRCLE ( 'NONE', #78, 1.749999999999999778 ) ;
#152 = CARTESIAN_POINT ( 'NONE',  ( 0.000000000000000000, -8.075000000000001066, 32.00000000000000000 ) ) ;
#153 = CARTESIAN_POINT ( 'NONE',  ( 0.000000000000000000, -8.075000000000001066, 0.000000000000000000 ) ) ;
#154 =( NAMED_UNIT ( * ) SI_UNIT ( $, .STERADIAN. ) SOLID_ANGLE_UNIT ( ) );
#155 = CIRCLE ( 'NONE', #182, 1.750000000000001554 ) ;
#156 = ORIENTED_EDGE ( 'NONE', *, *, #102, .F. ) ;
#157 = PRODUCT_DEFINITION_CONTEXT ( 'detailed design', #86, 'design' ) ;
#158 = FACE_OUTER_BOUND ( 'NONE', #36, .T. ) ;
#159 = EDGE_LOOP ( 'NONE', ( #174 ) ) ;
#160 = DIRECTION ( 'NONE',  ( 0.000000000000000000, 1.000000000000000000, 0.000000000000000000 ) ) ;
#161 = DIRECTION ( 'NONE',  ( 0.000000000000000000, 0.000000000000000000, 1.000000000000000000 ) ) ;
#162 = CARTESIAN_POINT ( 'NONE',  ( -21.93273722903044032, -8.075000000000001066, 17.00051580518374195 ) ) ;
#163 =( NAMED_UNIT ( * ) PLANE_ANGLE_UNIT ( ) SI_UNIT ( $, .RADIAN. ) );
#164 = CARTESIAN_POINT ( 'NONE',  ( 0.000000000000000000, 8.075000000000001066, 32.00000000000000000 ) ) ;
#165 = AXIS2_PLACEMENT_3D ( 'NONE', #115, #100, #131 ) ;
#166 = CARTESIAN_POINT ( 'NONE',  ( -21.93273722903044032, 8.075000000000001066, -15.25051580518374372 ) ) ;
#167 = DIRECTION ( 'NONE',  ( 0.000000000000000000, 0.000000000000000000, 1.000000000000000000 ) ) ;
#168 =( GEOMETRIC_REPRESENTATION_CONTEXT ( 3 ) GLOBAL_UNCERTAINTY_ASSIGNED_CONTEXT ( ( #22 ) ) GLOBAL_UNIT_ASSIGNED_CONTEXT ( ( #95, #163, #45 ) ) REPRESENTATION_CONTEXT ( 'NONE', 'WORKASPACE' ) );
#169 = ORIENTED_EDGE ( 'NONE', *, *, #184, .T. ) ;
#170 = FACE_OUTER_BOUND ( 'NONE', #123, .T. ) ;
#171 = DIRECTION ( 'NONE',  ( 0.000000000000000000, -0.000000000000000000, 1.000000000000000000 ) ) ;
#172 = PRODUCT_RELATED_PRODUCT_CATEGORY ( 'part', '', ( #17 ) ) ;
#173 = AXIS2_PLACEMENT_3D ( 'NONE', #111, #25, #93 ) ;
#174 = ORIENTED_EDGE ( 'NONE', *, *, #97, .T. ) ;
#175 = CARTESIAN_POINT ( 'NONE',  ( 0.000000000000000000, 8.075000000000001066, 0.000000000000000000 ) ) ;
#176 = DIRECTION ( 'NONE',  ( 0.000000000000000000, 0.000000000000000000, 1.000000000000000000 ) ) ;
#177 = DIRECTION ( 'NONE',  ( -0.000000000000000000, -1.000000000000000000, -0.000000000000000000 ) ) ;
#178 = EDGE_CURVE ( 'NONE', #117, #117, #190, .T. ) ;
#179 = MECHANICAL_DESIGN_GEOMETRIC_PRESENTATION_REPRESENTATION (  '', ( #83 ), #168 ) ;
#180 = SURFACE_STYLE_USAGE ( .BOTH. , #217 ) ;
#181 = VERTEX_POINT ( 'NONE', #96 ) ;
#182 = AXIS2_PLACEMENT_3D ( 'NONE', #29, #215, #118 ) ;
#183 = CARTESIAN_POINT ( 'NONE',  ( -21.93273722903044032, 8.075000000000001066, 18.75051580518374550 ) ) ;
#184 = EDGE_CURVE ( 'NONE', #134, #134, #151, .T. ) ;
#185 = DIRECTION ( 'NONE',  ( 0.000000000000000000, 0.000000000000000000, 1.000000000000000000 ) ) ;
#186 = ORIENTED_EDGE ( 'NONE', *, *, #214, .T. ) ;
#187 = FACE_BOUND ( 'NONE', #220, .T. ) ;
#188 = DIRECTION ( 'NONE',  ( 0.000000000000000000, 0.000000000000000000, -1.000000000000000000 ) ) ;
#189 = ORIENTED_EDGE ( 'NONE', *, *, #178, .T. ) ;
#190 = CIRCLE ( 'NONE', #90, 22.25000000000000355 ) ;
#191 = CYLINDRICAL_SURFACE ( 'NONE', #218, 22.25000000000000355 ) ;
#192 = EDGE_CURVE ( 'NONE', #181, #181, #109, .T. ) ;
#193 = CARTESIAN_POINT ( 'NONE',  ( 27.75000000000000000, -8.075000000000001066, 1.750000000000000000 ) ) ;
#194 = SURFACE_STYLE_FILL_AREA ( #63 ) ;
#195 = AXIS2_PLACEMENT_3D ( 'NONE', #10, #79, #60 ) ;
#196 = VERTEX_POINT ( 'NONE', #114 ) ;
#197 = EDGE_CURVE ( 'NONE', #30, #30, #31, .T. ) ;
#198 = CARTESIAN_POINT ( 'NONE',  ( 27.75000000000000000, 8.075000000000001066, 0.000000000000000000 ) ) ;
#199 = VERTEX_POINT ( 'NONE', #183 ) ;
#200 = APPLICATION_PROTOCOL_DEFINITION ( 'draft international standard', 'automotive_design', 1998, #82 ) ;
#201 = EDGE_LOOP ( 'NONE', ( #108 ) ) ;
#202 = EDGE_LOOP ( 'NONE', ( #65 ) ) ;
#203 = ORIENTED_EDGE ( 'NONE', *, *, #19, .T. ) ;
#204 = DIRECTION ( 'NONE',  ( 0.000000000000000000, 1.000000000000000000, 0.000000000000000000 ) ) ;
#205 = AXIS2_PLACEMENT_3D ( 'NONE', #210, #204, #176 ) ;
#206 = PLANE ( 'NONE',  #41 ) ;
#207 = CARTESIAN_POINT ( 'NONE',  ( -21.93273722903044032, 8.075000000000001066, 17.00051580518374195 ) ) ;
#208 = DIRECTION ( 'NONE',  ( -0.000000000000000000, -1.000000000000000000, -0.000000000000000000 ) ) ;
#209 = CIRCLE ( 'NONE', #205, 1.750000000000000000 ) ;
#210 = CARTESIAN_POINT ( 'NONE',  ( 27.75000000000000000, 8.075000000000001066, 0.000000000000000000 ) ) ;
#211 = EDGE_CURVE ( 'NONE', #199, #199, #155, .T. ) ;
#212 = MANIFOLD_SOLID_BREP ( 'Boss-Extrude1', #98 ) ;
#213 = VERTEX_POINT ( 'NONE', #46 ) ;
#214 = EDGE_CURVE ( 'NONE', #99, #99, #70, .T. ) ;
#215 = DIRECTION ( 'NONE',  ( 0.000000000000000000, 1.000000000000000000, 0.000000000000000000 ) ) ;
#216 = AXIS2_PLACEMENT_3D ( 'NONE', #74, #18, #188 ) ;
#217 = SURFACE_SIDE_STYLE ('',( #194 ) ) ;
#218 = AXIS2_PLACEMENT_3D ( 'NONE', #88, #5, #59 ) ;
#219 = EDGE_LOOP ( 'NONE', ( #37 ) ) ;
#220 = EDGE_LOOP ( 'NONE', ( #169 ) ) ;
#221 = EDGE_LOOP ( 'NONE', ( #40 ) ) ;
ENDSEC;
END-ISO-10303-21;
