ISO-10303-21;
HEADER;
FILE_DESCRIPTION (( 'STEP AP214' ),
    '1' );
FILE_NAME ('Part3_T310.STEP',
    '2025-07-30T15:09:18',
    ( '' ),
    ( '' ),
    'SwSTEP 2.0',
    'SolidWorks 2025',
    '' );
FILE_SCHEMA (( 'AUTOMOTIVE_DESIGN' ));
ENDSEC;

DATA;
#1 = AXIS2_PLACEMENT_3D ( 'NONE', #825, #677, #354 ) ;
#2 = ORIENTED_EDGE ( 'NONE', *, *, #36, .T. ) ;
#3 = DIRECTION ( 'NONE',  ( 1.000000000000000000, 0.000000000000000000, 0.000000000000000000 ) ) ;
#4 = CARTESIAN_POINT ( 'NONE',  ( 14.49999999999976374, 81.50000000000011369, -2.850000000000000089 ) ) ;
#5 = ADVANCED_FACE ( 'NONE', ( #687 ), #132, .F. ) ;
#6 = CARTESIAN_POINT ( 'NONE',  ( 1.583779202094754535, 228.9353120534561015, -3.000000000000000000 ) ) ;
#7 = ORIENTED_EDGE ( 'NONE', *, *, #262, .T. ) ;
#8 = VECTOR ( 'NONE', #756, 1000.000000000000000 ) ;
#9 = CARTESIAN_POINT ( 'NONE',  ( -15.09871017906031021, 218.8385527690297749, 0.000000000000000000 ) ) ;
#10 = DIRECTION ( 'NONE',  ( 0.000000000000000000, -0.000000000000000000, -1.000000000000000000 ) ) ;
#11 = AXIS2_PLACEMENT_3D ( 'NONE', #871, #821, #397 ) ;
#12 = ORIENTED_EDGE ( 'NONE', *, *, #834, .T. ) ;
#13 = DIRECTION ( 'NONE',  ( 0.000000000000000000, 0.000000000000000000, 1.000000000000000000 ) ) ;
#14 = DIRECTION ( 'NONE',  ( -0.08727176214806629806, 0.9961845409017203723, -1.005339987499199390E-15 ) ) ;
#15 = ORIENTED_EDGE ( 'NONE', *, *, #158, .F. ) ;
#16 = EDGE_CURVE ( 'NONE', #705, #503, #576, .T. ) ;
#17 = VECTOR ( 'NONE', #167, 1000.000000000000000 ) ;
#18 = DIRECTION ( 'NONE',  ( 1.000000000000000000, 3.700743415417187942E-15, 0.000000000000000000 ) ) ;
#19 = PRODUCT_DEFINITION_FORMATION_WITH_SPECIFIED_SOURCE ( 'Symmetric', '', #234, .NOT_KNOWN. ) ;
#20 = ORIENTED_EDGE ( 'NONE', *, *, #614, .T. ) ;
#21 = FACE_OUTER_BOUND ( 'NONE', #785, .T. ) ;
#22 = CARTESIAN_POINT ( 'NONE',  ( 4.824980638974199820, 220.5839880119898737, -2.850000000000000089 ) ) ;
#23 = EDGE_LOOP ( 'NONE', ( #780 ) ) ;
#24 = CIRCLE ( 'NONE', #170, 0.1500000000000000222 ) ;
#25 = DIRECTION ( 'NONE',  ( 1.000000000000000000, 0.000000000000000000, 0.000000000000000000 ) ) ;
#26 = EDGE_CURVE ( 'NONE', #587, #587, #760, .T. ) ;
#27 = CARTESIAN_POINT ( 'NONE',  ( 16.09029358649367225, 90.27459208788417300, -3.000000000000000000 ) ) ;
#28 = ORIENTED_EDGE ( 'NONE', *, *, #355, .T. ) ;
#29 = FACE_BOUND ( 'NONE', #282, .T. ) ;
#30 = EDGE_CURVE ( 'NONE', #319, #253, #505, .T. ) ;
#31 = ORIENTED_EDGE ( 'NONE', *, *, #704, .F. ) ;
#32 = CARTESIAN_POINT ( 'NONE',  ( 31.18248938115482005, 91.59675928442646864, -0.1499999999999999667 ) ) ;
#33 = CIRCLE ( 'NONE', #149, 0.1500000000000004385 ) ;
#34 = CARTESIAN_POINT ( 'NONE',  ( 4.083779202094750538, 228.9353120534561015, -0.1499999999999999667 ) ) ;
#35 = ORIENTED_EDGE ( 'NONE', *, *, #402, .F. ) ;
#36 = EDGE_CURVE ( 'NONE', #604, #258, #442, .T. ) ;
#37 = FACE_OUTER_BOUND ( 'NONE', #97, .T. ) ;
#38 = AXIS2_PLACEMENT_3D ( 'NONE', #531, #812, #542 ) ;
#39 = DIRECTION ( 'NONE',  ( 1.000000000000000000, 0.000000000000000000, 0.000000000000000000 ) ) ;
#40 = ORIENTED_EDGE ( 'NONE', *, *, #857, .F. ) ;
#41 = DIRECTION ( 'NONE',  ( 0.08727176214797487119, -0.9961845409017283659, 2.018564994506082054E-15 ) ) ;
#42 = DIRECTION ( 'NONE',  ( 1.000000000000000000, 3.083952846180968390E-15, 0.000000000000000000 ) ) ;
#43 = VECTOR ( 'NONE', #68, 999.9999999999998863 ) ;
#44 = ORIENTED_EDGE ( 'NONE', *, *, #814, .T. ) ;
#45 = DIRECTION ( 'NONE',  ( -0.08727176214800647092, 0.9961845409017257014, -0.000000000000000000 ) ) ;
#46 = TOROIDAL_SURFACE ( 'NONE', #103, 4.350000000000029843, 0.1499999999999999944 ) ;
#47 = SHAPE_DEFINITION_REPRESENTATION ( #220, #370 ) ;
#48 = TOROIDAL_SURFACE ( 'NONE', #558, 2.649999999999995914, 0.1499999999999999944 ) ;
#49 = DIRECTION ( 'NONE',  ( 1.000000000000000000, 0.000000000000000000, 0.000000000000000000 ) ) ;
#50 = CARTESIAN_POINT ( 'NONE',  ( -2.137699198316768356, 226.6829580592379045, -2.850000000000000089 ) ) ;
#51 = FACE_OUTER_BOUND ( 'NONE', #564, .T. ) ;
#52 = AXIS2_PLACEMENT_3D ( 'NONE', #157, #351, #301 ) ;
#53 = ADVANCED_FACE ( 'NONE', ( #755 ), #774, .T. ) ;
#54 = CARTESIAN_POINT ( 'NONE',  ( -3.683969550405573390, 88.54224760924624604, 0.000000000000000000 ) ) ;
#55 = DIRECTION ( 'NONE',  ( 1.000000000000000000, 0.000000000000000000, 0.000000000000000000 ) ) ;
#56 = ORIENTED_EDGE ( 'NONE', *, *, #651, .F. ) ;
#57 = FACE_OUTER_BOUND ( 'NONE', #121, .T. ) ;
#58 = CARTESIAN_POINT ( 'NONE',  ( 14.49999999999976374, 81.50000000000011369, -3.000000000000000000 ) ) ;
#59 = ADVANCED_FACE ( 'NONE', ( #666 ), #743, .T. ) ;
#60 = DIRECTION ( 'NONE',  ( 1.000000000000000000, 0.000000000000000000, 0.000000000000000000 ) ) ;
#61 = ORIENTED_EDGE ( 'NONE', *, *, #826, .F. ) ;
#62 = DIRECTION ( 'NONE',  ( 1.000000000000000000, 0.000000000000000000, 0.000000000000000000 ) ) ;
#63 = CARTESIAN_POINT ( 'NONE',  ( 11.25879856312031357, 89.85132404146634144, -2.850000000000000089 ) ) ;
#64 = AXIS2_PLACEMENT_3D ( 'NONE', #482, #752, #879 ) ;
#65 = DIRECTION ( 'NONE',  ( -0.000000000000000000, 0.000000000000000000, 1.000000000000000000 ) ) ;
#66 = CARTESIAN_POINT ( 'NONE',  ( 1.583779202094754535, 228.9353120534561015, 0.000000000000000000 ) ) ;
#67 = EDGE_CURVE ( 'NONE', #448, #513, #457, .T. ) ;
#68 = DIRECTION ( 'NONE',  ( 0.08727176214800647092, -0.9961845409017257014, -0.000000000000000000 ) ) ;
#69 = CIRCLE ( 'NONE', #182, 4.500000000000031974 ) ;
#70 = ORIENTED_EDGE ( 'NONE', *, *, #185, .T. ) ;
#71 = CARTESIAN_POINT ( 'NONE',  ( 4.675552957838936763, 220.5708972476676877, -0.1499999999999999944 ) ) ;
#72 = LINE ( 'NONE', #559, #140 ) ;
#73 = ORIENTED_EDGE ( 'NONE', *, *, #245, .T. ) ;
#74 = CARTESIAN_POINT ( 'NONE',  ( 16.09029358649367580, 90.27459208788417300, 0.000000000000000000 ) ) ;
#75 = CIRCLE ( 'NONE', #326, 2.499999999999996003 ) ;
#76 = PLANE ( 'NONE',  #859 ) ;
#77 = AXIS2_PLACEMENT_3D ( 'NONE', #525, #599, #585 ) ;
#78 = EDGE_LOOP ( 'NONE', ( #861 ) ) ;
#79 = AXIS2_PLACEMENT_3D ( 'NONE', #767, #495, #223 ) ;
#80 = DIRECTION ( 'NONE',  ( 0.9961845409017257014, 0.08727176214800543008, 0.000000000000000000 ) ) ;
#81 = EDGE_CURVE ( 'NONE', #635, #462, #617, .T. ) ;
#82 = DIRECTION ( 'NONE',  ( -0.000000000000000000, 0.000000000000000000, 1.000000000000000000 ) ) ;
#83 = AXIS2_PLACEMENT_3D ( 'NONE', #731, #65, #55 ) ;
#84 = ORIENTED_EDGE ( 'NONE', *, *, #732, .T. ) ;
#85 = CYLINDRICAL_SURFACE ( 'NONE', #720, 15.00000000000000000 ) ;
#86 = CARTESIAN_POINT ( 'NONE',  ( 18.34980524180479478, 83.83002137332928783, -2.850000000000000089 ) ) ;
#87 = PRODUCT_DEFINITION ( 'General', '', #19, #832 ) ;
#88 = APPLICATION_CONTEXT ( 'automotive_design' ) ;
#89 = EDGE_LOOP ( 'NONE', ( #527 ) ) ;
#90 = AXIS2_PLACEMENT_3D ( 'NONE', #562, #483, #204 ) ;
#91 = FACE_OUTER_BOUND ( 'NONE', #712, .T. ) ;
#92 = SURFACE_STYLE_USAGE ( .BOTH. , #538 ) ;
#93 = EDGE_LOOP ( 'NONE', ( #425 ) ) ;
#94 = ADVANCED_FACE ( 'NONE', ( #807 ), #190, .F. ) ;
#95 = CYLINDRICAL_SURFACE ( 'NONE', #659, 2.499999999999996003 ) ;
#96 = DIRECTION ( 'NONE',  ( -0.000000000000000000, 0.000000000000000000, 1.000000000000000000 ) ) ;
#97 = EDGE_LOOP ( 'NONE', ( #40 ) ) ;
#98 = AXIS2_PLACEMENT_3D ( 'NONE', #529, #646, #663 ) ;
#99 = DIRECTION ( 'NONE',  ( 0.000000000000000000, 0.000000000000000000, 1.000000000000000000 ) ) ;
#100 = EDGE_LOOP ( 'NONE', ( #263, #856, #137, #468 ) ) ;
#101 = DIRECTION ( 'NONE',  ( 0.3611409030383249119, 0.9325112589951198849, -0.000000000000000000 ) ) ;
#102 = ORIENTED_EDGE ( 'NONE', *, *, #882, .F. ) ;
#103 = AXIS2_PLACEMENT_3D ( 'NONE', #824, #537, #745 ) ;
#104 = DIRECTION ( 'NONE',  ( 1.000000000000000000, 0.000000000000000000, 0.000000000000000000 ) ) ;
#105 = AXIS2_PLACEMENT_3D ( 'NONE', #32, #109, #729 ) ;
#106 = EDGE_CURVE ( 'NONE', #462, #761, #154, .T. ) ;
#107 = APPLICATION_PROTOCOL_DEFINITION ( 'draft international standard', 'automotive_design', 1998, #320 ) ;
#108 = EDGE_LOOP ( 'NONE', ( #294 ) ) ;
#109 = DIRECTION ( 'NONE',  ( -0.000000000000000000, 0.000000000000000000, 1.000000000000000000 ) ) ;
#110 = PRESENTATION_STYLE_ASSIGNMENT (( #92 ) ) ;
#111 = ORIENTED_EDGE ( 'NONE', *, *, #245, .F. ) ;
#112 =( LENGTH_UNIT ( ) NAMED_UNIT ( * ) SI_UNIT ( .MILLI., .METRE. ) );
#113 = AXIS2_PLACEMENT_3D ( 'NONE', #757, #541, #628 ) ;
#114 = DIRECTION ( 'NONE',  ( 0.000000000000000000, -0.000000000000000000, -1.000000000000000000 ) ) ;
#115 = ORIENTED_EDGE ( 'NONE', *, *, #355, .F. ) ;
#116 = CARTESIAN_POINT ( 'NONE',  ( -2.137699198316768356, 226.6829580592379045, -3.000000000000000000 ) ) ;
#117 = ADVANCED_FACE ( 'NONE', ( #828 ), #801, .T. ) ;
#118 = AXIS2_PLACEMENT_3D ( 'NONE', #278, #353, #3 ) ;
#119 = CARTESIAN_POINT ( 'NONE',  ( 14.49999999999976374, 81.50000000000011369, -0.1499999999999999667 ) ) ;
#120 = AXIS2_PLACEMENT_3D ( 'NONE', #787, #650, #463 ) ;
#121 = EDGE_LOOP ( 'NONE', ( #227, #623, #61, #776 ) ) ;
#122 = DIRECTION ( 'NONE',  ( -0.08727176214800647092, 0.9961845409017257014, 0.000000000000000000 ) ) ;
#123 = CARTESIAN_POINT ( 'NONE',  ( 10.30369933452158726, 83.12513406367230573, -0.1499999999999999667 ) ) ;
#124 = EDGE_CURVE ( 'NONE', #361, #390, #72, .T. ) ;
#125 = AXIS2_PLACEMENT_3D ( 'NONE', #304, #606, #851 ) ;
#126 = EDGE_LOOP ( 'NONE', ( #452 ) ) ;
#127 = ORIENTED_EDGE ( 'NONE', *, *, #166, .F. ) ;
#128 = DIRECTION ( 'NONE',  ( 0.000000000000000000, 0.000000000000000000, 1.000000000000000000 ) ) ;
#129 = DIRECTION ( 'NONE',  ( 0.000000000000000000, 0.000000000000000000, 1.000000000000000000 ) ) ;
#130 = AXIS2_PLACEMENT_3D ( 'NONE', #228, #508, #777 ) ;
#131 = ADVANCED_FACE ( 'NONE', ( #563 ), #76, .T. ) ;
#132 = CYLINDRICAL_SURFACE ( 'NONE', #244, 15.00000000000000000 ) ;
#133 = CARTESIAN_POINT ( 'NONE',  ( 14.49999999999976374, 81.50000000000011369, 0.000000000000000000 ) ) ;
#134 = FACE_OUTER_BOUND ( 'NONE', #853, .T. ) ;
#135 = ORIENTED_EDGE ( 'NONE', *, *, #262, .F. ) ;
#136 = EDGE_CURVE ( 'NONE', #177, #435, #645, .T. ) ;
#137 = ORIENTED_EDGE ( 'NONE', *, *, #589, .T. ) ;
#138 = CARTESIAN_POINT ( 'NONE',  ( 1.583779202094754535, 228.9353120534561015, -0.1499999999999999667 ) ) ;
#139 = DIRECTION ( 'NONE',  ( -0.000000000000000000, 0.000000000000000000, 1.000000000000000000 ) ) ;
#140 = VECTOR ( 'NONE', #758, 999.9999999999998863 ) ;
#141 = DIRECTION ( 'NONE',  ( -0.9961845409017257014, -0.08727176214800543008, 0.000000000000000000 ) ) ;
#142 = ORIENTED_EDGE ( 'NONE', *, *, #450, .F. ) ;
#143 = CARTESIAN_POINT ( 'NONE',  ( -2.266026039710270723, 226.6052906801269557, -2.850000000000000089 ) ) ;
#144 = DIRECTION ( 'NONE',  ( 1.000000000000000000, 0.000000000000000000, 0.000000000000000000 ) ) ;
#145 = ORIENTED_EDGE ( 'NONE', *, *, #257, .T. ) ;
#146 = FACE_OUTER_BOUND ( 'NONE', #277, .T. ) ;
#147 = AXIS2_PLACEMENT_3D ( 'NONE', #344, #272, #619 ) ;
#148 = CARTESIAN_POINT ( 'NONE',  ( 14.49999999999976374, 81.50000000000011369, -0.1499999999999999667 ) ) ;
#149 = AXIS2_PLACEMENT_3D ( 'NONE', #313, #101, #867 ) ;
#150 = ORIENTED_EDGE ( 'NONE', *, *, #387, .T. ) ;
#151 = FACE_OUTER_BOUND ( 'NONE', #610, .T. ) ;
#152 = EDGE_CURVE ( 'NONE', #618, #835, #24, .T. ) ;
#153 = DIRECTION ( 'NONE',  ( 0.000000000000000000, 0.000000000000000000, 1.000000000000000000 ) ) ;
#154 = CIRCLE ( 'NONE', #653, 15.15000000000000036 ) ;
#155 = EDGE_LOOP ( 'NONE', ( #309 ) ) ;
#156 = CYLINDRICAL_SURFACE ( 'NONE', #523, 2.499999999999995115 ) ;
#157 = CARTESIAN_POINT ( 'NONE',  ( 1.583779202094754535, 228.9353120534561015, -3.000000000000000000 ) ) ;
#158 = EDGE_CURVE ( 'NONE', #503, #635, #476, .T. ) ;
#159 = ORIENTED_EDGE ( 'NONE', *, *, #869, .F. ) ;
#160 = AXIS2_PLACEMENT_3D ( 'NONE', #295, #698, #855 ) ;
#161 = LINE ( 'NONE', #436, #17 ) ;
#162 = UNCERTAINTY_MEASURE_WITH_UNIT (LENGTH_MEASURE( 1.000000000000000082E-05 ), #112, 'distance_accuracy_value', 'NONE');
#163 = DIRECTION ( 'NONE',  ( 0.5177825274064555838, -0.8555122759566827773, 0.000000000000000000 ) ) ;
#164 = CIRCLE ( 'NONE', #120, 0.1500000000000006328 ) ;
#165 = ORIENTED_EDGE ( 'NONE', *, *, #273, .F. ) ;
#166 = EDGE_CURVE ( 'NONE', #616, #319, #199, .T. ) ;
#167 = DIRECTION ( 'NONE',  ( -0.000000000000000000, -0.000000000000000000, -1.000000000000000000 ) ) ;
#168 = VECTOR ( 'NONE', #179, 999.9999999999998863 ) ;
#169 = ORIENTED_EDGE ( 'NONE', *, *, #106, .F. ) ;
#170 = AXIS2_PLACEMENT_3D ( 'NONE', #424, #14, #638 ) ;
#171 = CARTESIAN_POINT ( 'NONE',  ( 16.23972126762892998, 90.28768285220637324, -3.000000000000000000 ) ) ;
#172 = ORIENTED_EDGE ( 'NONE', *, *, #299, .F. ) ;
#173 =( GEOMETRIC_REPRESENTATION_CONTEXT ( 3 ) GLOBAL_UNCERTAINTY_ASSIGNED_CONTEXT ( ( #162 ) ) GLOBAL_UNIT_ASSIGNED_CONTEXT ( ( #112, #329, #240 ) ) REPRESENTATION_CONTEXT ( 'NONE', 'WORKASPACE' ) );
#174 = DIRECTION ( 'NONE',  ( -0.5177825274064554728, 0.8555122759566826662, 0.000000000000000000 ) ) ;
#175 = CIRCLE ( 'NONE', #707, 15.15000000000000036 ) ;
#176 = ADVANCED_FACE ( 'NONE', ( #211 ), #218, .T. ) ;
#177 = VERTEX_POINT ( 'NONE', #86 ) ;
#178 = VECTOR ( 'NONE', #613, 999.9999999999998863 ) ;
#179 = DIRECTION ( 'NONE',  ( 0.08727176214800647092, -0.9961845409017257014, -0.000000000000000000 ) ) ;
#180 = CARTESIAN_POINT ( 'NONE',  ( 5.780079867572920804, 227.3101779897839378, -0.1499999999999999667 ) ) ;
#181 = DIRECTION ( 'NONE',  ( 0.000000000000000000, -0.000000000000000000, -1.000000000000000000 ) ) ;
#182 = AXIS2_PLACEMENT_3D ( 'NONE', #810, #389, #42 ) ;
#183 = CARTESIAN_POINT ( 'NONE',  ( 11.40822624425557308, 89.86441480578854168, 0.000000000000000000 ) ) ;
#184 = VERTEX_POINT ( 'NONE', #357 ) ;
#185 = EDGE_CURVE ( 'NONE', #318, #318, #275, .T. ) ;
#186 = DIRECTION ( 'NONE',  ( -0.000000000000000000, 0.000000000000000000, 1.000000000000000000 ) ) ;
#187 = AXIS2_PLACEMENT_3D ( 'NONE', #735, #642, #335 ) ;
#188 = DIRECTION ( 'NONE',  ( 1.000000000000000000, 0.000000000000000000, 0.000000000000000000 ) ) ;
#189 = DIRECTION ( 'NONE',  ( 0.000000000000000000, 0.000000000000000000, 1.000000000000000000 ) ) ;
#190 = CYLINDRICAL_SURFACE ( 'NONE', #586, 15.00000000000000355 ) ;
#191 = ADVANCED_FACE ( 'NONE', ( #367, #288 ), #701, .T. ) ;
#192 = DIRECTION ( 'NONE',  ( 0.000000000000000000, -0.000000000000000000, -1.000000000000000000 ) ) ;
#193 = LINE ( 'NONE', #22, #366 ) ;
#194 = VECTOR ( 'NONE', #45, 999.9999999999998863 ) ;
#195 = ORIENTED_EDGE ( 'NONE', *, *, #651, .T. ) ;
#196 = ORIENTED_EDGE ( 'NONE', *, *, #293, .F. ) ;
#197 = DIRECTION ( 'NONE',  ( -0.000000000000000000, 0.000000000000000000, 1.000000000000000000 ) ) ;
#198 = CYLINDRICAL_SURFACE ( 'NONE', #839, 14.99999999999999645 ) ;
#199 = CIRCLE ( 'NONE', #261, 4.500000000000016875 ) ;
#200 = ADVANCED_FACE ( 'NONE', ( #497 ), #714, .T. ) ;
#201 = CARTESIAN_POINT ( 'NONE',  ( 1.583779202094754535, 228.9353120534561015, -3.000000000000000000 ) ) ;
#202 = VERTEX_POINT ( 'NONE', #708 ) ;
#203 = CARTESIAN_POINT ( 'NONE',  ( -0.1559420655344205819, 220.1476292012497993, -0.1499999999999999667 ) ) ;
#204 = DIRECTION ( 'NONE',  ( 0.8555122759566812229, 0.5177825274064581373, 0.000000000000000000 ) ) ;
#205 = AXIS2_PLACEMENT_3D ( 'NONE', #236, #163, #437 ) ;
#206 = DIRECTION ( 'NONE',  ( 0.000000000000000000, -0.000000000000000000, -1.000000000000000000 ) ) ;
#207 = EDGE_LOOP ( 'NONE', ( #475, #639, #539, #111 ) ) ;
#208 = CARTESIAN_POINT ( 'NONE',  ( 11.40822624425557130, 89.86441480578855590, 0.000000000000000000 ) ) ;
#209 = CARTESIAN_POINT ( 'NONE',  ( 18.98461201614475513, 1.663166287287946243, -2.850000000000000089 ) ) ;
#210 = CIRCLE ( 'NONE', #556, 0.1500000000000006328 ) ;
#211 = FACE_OUTER_BOUND ( 'NONE', #631, .T. ) ;
#212 = ORIENTED_EDGE ( 'NONE', *, *, #762, .T. ) ;
#213 = DIRECTION ( 'NONE',  ( -0.9961845409017257014, -0.08727176214800543008, 0.000000000000000000 ) ) ;
#214 = CARTESIAN_POINT ( 'NONE',  ( 19.76774875250008279, 221.8930644442100117, -3.000000000000000000 ) ) ;
#215 = VERTEX_POINT ( 'NONE', #296 ) ;
#216 = ADVANCED_FACE ( 'NONE', ( #841 ), #502, .T. ) ;
#217 = FACE_OUTER_BOUND ( 'NONE', #751, .T. ) ;
#218 = CYLINDRICAL_SURFACE ( 'NONE', #491, 0.1500000000000010492 ) ;
#219 = AXIS2_PLACEMENT_3D ( 'NONE', #702, #782, #80 ) ;
#220 = PRODUCT_DEFINITION_SHAPE ( 'NONE', 'NONE',  #87 ) ;
#221 = ORIENTED_EDGE ( 'NONE', *, *, #717, .T. ) ;
#222 = ADVANCED_FACE ( 'NONE', ( #573, #506 ), #316, .T. ) ;
#223 = DIRECTION ( 'NONE',  ( 1.000000000000000000, 0.000000000000000000, 0.000000000000000000 ) ) ;
#224 = CARTESIAN_POINT ( 'NONE',  ( -3.683969550405573390, 88.54224760924624604, -0.1499999999999999667 ) ) ;
#225 = AXIS2_PLACEMENT_3D ( 'NONE', #50, #174, #716 ) ;
#226 = CIRCLE ( 'NONE', #784, 4.500000000000031974 ) ;
#227 = ORIENTED_EDGE ( 'NONE', *, *, #402, .T. ) ;
#228 = CARTESIAN_POINT ( 'NONE',  ( 1.583779202094754535, 228.9353120534561015, -2.850000000000000089 ) ) ;
#229 = EDGE_CURVE ( 'NONE', #390, #352, #561, .T. ) ;
#230 = DIRECTION ( 'NONE',  ( 1.000000000000000000, 0.000000000000000000, 0.000000000000000000 ) ) ;
#231 = AXIS2_PLACEMENT_3D ( 'NONE', #600, #868, #711 ) ;
#232 = ORIENTED_EDGE ( 'NONE', *, *, #695, .T. ) ;
#233 = LINE ( 'NONE', #847, #496 ) ;
#234 = PRODUCT ( 'Part3_T310', 'Part3_T310', '', ( #467 ) ) ;
#235 = ADVANCED_FACE ( 'NONE', ( #595, #510, #51 ), #779, .T. ) ;
#236 = CARTESIAN_POINT ( 'NONE',  ( -2.137699198316768356, 226.6829580592379045, -0.1499999999999999944 ) ) ;
#237 = ORIENTED_EDGE ( 'NONE', *, *, #857, .T. ) ;
#238 = CIRCLE ( 'NONE', #1, 0.1499999999999992450 ) ;
#239 = DIRECTION ( 'NONE',  ( 1.000000000000000000, 0.000000000000000000, 0.000000000000000000 ) ) ;
#240 =( NAMED_UNIT ( * ) SI_UNIT ( $, .STERADIAN. ) SOLID_ANGLE_UNIT ( ) );
#241 = EDGE_LOOP ( 'NONE', ( #298 ) ) ;
#242 = LINE ( 'NONE', #171, #664 ) ;
#243 = ORIENTED_EDGE ( 'NONE', *, *, #387, .F. ) ;
#244 = AXIS2_PLACEMENT_3D ( 'NONE', #549, #403, #60 ) ;
#245 = EDGE_CURVE ( 'NONE', #412, #604, #350, .T. ) ;
#246 = CARTESIAN_POINT ( 'NONE',  ( -15.09871017906031021, 218.8385527690297749, -3.000000000000000000 ) ) ;
#247 = VERTEX_POINT ( 'NONE', #330 ) ;
#248 = ORIENTED_EDGE ( 'NONE', *, *, #640, .F. ) ;
#249 = CARTESIAN_POINT ( 'NONE',  ( 19.13403969728001641, 1.676257051610147597, -3.000000000000000000 ) ) ;
#250 = TOROIDAL_SURFACE ( 'NONE', #730, 15.15000000000000036, 0.1499999999999999944 ) ;
#251 = EDGE_CURVE ( 'NONE', #654, #412, #69, .T. ) ;
#252 = VERTEX_POINT ( 'NONE', #34 ) ;
#253 = VERTEX_POINT ( 'NONE', #465 ) ;
#254 = CIRCLE ( 'NONE', #147, 0.1499999999999996336 ) ;
#255 = CARTESIAN_POINT ( 'NONE',  ( 14.49999999999976374, 81.50000000000011369, -2.850000000000000089 ) ) ;
#256 = DIRECTION ( 'NONE',  ( 1.000000000000000000, 0.000000000000000000, 0.000000000000000000 ) ) ;
#257 = EDGE_CURVE ( 'NONE', #761, #793, #473, .T. ) ;
#258 = VERTEX_POINT ( 'NONE', #183 ) ;
#259 = AXIS2_PLACEMENT_3D ( 'NONE', #364, #891, #18 ) ;
#260 = CARTESIAN_POINT ( 'NONE',  ( 4.675552957838940316, 220.5708972476676877, -3.000000000000000000 ) ) ;
#261 = AXIS2_PLACEMENT_3D ( 'NONE', #768, #10, #493 ) ;
#262 = EDGE_CURVE ( 'NONE', #793, #485, #602, .T. ) ;
#263 = ORIENTED_EDGE ( 'NONE', *, *, #844, .T. ) ;
#264 = CARTESIAN_POINT ( 'NONE',  ( 1.583779202094754535, 228.9353120534561015, -2.850000000000000089 ) ) ;
#265 = EDGE_LOOP ( 'NONE', ( #35, #165, #56, #627 ) ) ;
#266 = ORIENTED_EDGE ( 'NONE', *, *, #791, .T. ) ;
#267 = LINE ( 'NONE', #540, #781 ) ;
#268 = DIRECTION ( 'NONE',  ( 1.000000000000000000, 0.000000000000000000, 0.000000000000000000 ) ) ;
#269 = AXIS2_PLACEMENT_3D ( 'NONE', #133, #624, #405 ) ;
#270 = EDGE_LOOP ( 'NONE', ( #838 ) ) ;
#271 = ORIENTED_EDGE ( 'NONE', *, *, #472, .T. ) ;
#272 = DIRECTION ( 'NONE',  ( -0.3611409030383287977, -0.9325112589951182196, -0.000000000000000000 ) ) ;
#273 = EDGE_CURVE ( 'NONE', #727, #654, #519, .T. ) ;
#274 = DIRECTION ( 'NONE',  ( 1.000000000000000000, 0.000000000000000000, 0.000000000000000000 ) ) ;
#275 = CIRCLE ( 'NONE', #726, 2.649999999999995914 ) ;
#276 = ORIENTED_EDGE ( 'NONE', *, *, #81, .T. ) ;
#277 = EDGE_LOOP ( 'NONE', ( #331, #115, #842, #169 ) ) ;
#278 = CARTESIAN_POINT ( 'NONE',  ( 19.76774875250008279, 221.8930644442100117, -0.1499999999999999667 ) ) ;
#279 = CARTESIAN_POINT ( 'NONE',  ( 4.824980638974192715, 220.5839880119899021, -3.000000000000000000 ) ) ;
#280 = CIRCLE ( 'NONE', #113, 14.99999999999999645 ) ;
#281 = DIRECTION ( 'NONE',  ( -0.000000000000000000, 0.000000000000000000, 1.000000000000000000 ) ) ;
#282 = EDGE_LOOP ( 'NONE', ( #70 ) ) ;
#283 = LINE ( 'NONE', #551, #8 ) ;
#284 = MANIFOLD_SOLID_BREP ( 'Fillet2', #788 ) ;
#285 = DIRECTION ( 'NONE',  ( 1.000000000000000000, -3.664102391502166373E-15, 0.000000000000000000 ) ) ;
#286 = UNCERTAINTY_MEASURE_WITH_UNIT (LENGTH_MEASURE( 1.000000000000000082E-05 ), #526, 'distance_accuracy_value', 'NONE');
#287 = EDGE_CURVE ( 'NONE', #446, #446, #379, .T. ) ;
#288 = FACE_OUTER_BOUND ( 'NONE', #78, .T. ) ;
#289 = CIRCLE ( 'NONE', #269, 4.350000000000030731 ) ;
#290 = ORIENTED_EDGE ( 'NONE', *, *, #704, .T. ) ;
#291 = CYLINDRICAL_SURFACE ( 'NONE', #356, 0.1500000000000010492 ) ;
#292 = AXIS2_PLACEMENT_3D ( 'NONE', #725, #796, #534 ) ;
#293 = EDGE_CURVE ( 'NONE', #485, #643, #749, .T. ) ;
#294 = ORIENTED_EDGE ( 'NONE', *, *, #287, .F. ) ;
#295 = CARTESIAN_POINT ( 'NONE',  ( 0.000000000000000000, 0.000000000000000000, -3.000000000000000000 ) ) ;
#296 = CARTESIAN_POINT ( 'NONE',  ( -2.137699198316768356, 226.6829580592379045, 0.000000000000000000 ) ) ;
#297 = TOROIDAL_SURFACE ( 'NONE', #447, 15.15000000000000036, 0.1499999999999999944 ) ;
#298 = ORIENTED_EDGE ( 'NONE', *, *, #594, .F. ) ;
#299 = EDGE_CURVE ( 'NONE', #435, #569, #193, .T. ) ;
#300 = CARTESIAN_POINT ( 'NONE',  ( 4.675552957838940316, 220.5708972476676877, -2.850000000000000089 ) ) ;
#301 = DIRECTION ( 'NONE',  ( 1.000000000000000000, 0.000000000000000000, 0.000000000000000000 ) ) ;
#302 = ORIENTED_EDGE ( 'NONE', *, *, #786, .T. ) ;
#303 = DIRECTION ( 'NONE',  ( 0.9961845409017202613, 0.08727176214806667276, 0.000000000000000000 ) ) ;
#304 = CARTESIAN_POINT ( 'NONE',  ( 31.18248938115482005, 91.59675928442646864, -0.1499999999999999667 ) ) ;
#305 = AXIS2_PLACEMENT_3D ( 'NONE', #480, #803, #49 ) ;
#306 = EDGE_LOOP ( 'NONE', ( #145, #7, #588, #709, #550, #477, #276, #798 ) ) ;
#307 = FACE_BOUND ( 'NONE', #270, .T. ) ;
#308 = LINE ( 'NONE', #581, #822 ) ;
#309 = ORIENTED_EDGE ( 'NONE', *, *, #634, .T. ) ;
#310 = FACE_OUTER_BOUND ( 'NONE', #306, .T. ) ;
#311 = EDGE_CURVE ( 'NONE', #215, #616, #864, .T. ) ;
#312 = ORIENTED_EDGE ( 'NONE', *, *, #257, .F. ) ;
#313 = CARTESIAN_POINT ( 'NONE',  ( 5.640203178723647959, 227.3643491252396700, -0.1499999999999999944 ) ) ;
#314 = ORIENTED_EDGE ( 'NONE', *, *, #124, .T. ) ;
#315 = EDGE_CURVE ( 'NONE', #412, #513, #308, .T. ) ;
#316 = TOROIDAL_SURFACE ( 'NONE', #885, 2.649999999999995914, 0.1499999999999999944 ) ;
#317 = CARTESIAN_POINT ( 'NONE',  ( 18.22147840041128930, 83.75235399421832483, 0.000000000000000000 ) ) ;
#318 = VERTEX_POINT ( 'NONE', #860 ) ;
#319 = VERTEX_POINT ( 'NONE', #180 ) ;
#320 = APPLICATION_CONTEXT ( 'automotive_design' ) ;
#321 = CARTESIAN_POINT ( 'NONE',  ( 1.583779202094754535, 228.9353120534561015, 0.000000000000000000 ) ) ;
#322 = CIRCLE ( 'NONE', #90, 0.1499999999999992450 ) ;
#323 = EDGE_CURVE ( 'NONE', #390, #253, #509, .T. ) ;
#324 =( NAMED_UNIT ( * ) PLANE_ANGLE_UNIT ( ) SI_UNIT ( $, .RADIAN. ) );
#325 = VERTEX_POINT ( 'NONE', #143 ) ;
#326 = AXIS2_PLACEMENT_3D ( 'NONE', #264, #192, #62 ) ;
#327 = TOROIDAL_SURFACE ( 'NONE', #474, 2.649999999999995914, 0.1499999999999999944 ) ;
#328 = FACE_OUTER_BOUND ( 'NONE', #598, .T. ) ;
#329 =( NAMED_UNIT ( * ) PLANE_ANGLE_UNIT ( ) SI_UNIT ( $, .RADIAN. ) );
#330 = CARTESIAN_POINT ( 'NONE',  ( 17.14999999999976055, 81.50000000000011369, -3.000000000000000000 ) ) ;
#331 = ORIENTED_EDGE ( 'NONE', *, *, #877, .T. ) ;
#332 = AXIS2_PLACEMENT_3D ( 'NONE', #224, #568, #432 ) ;
#333 = EDGE_LOOP ( 'NONE', ( #142 ) ) ;
#334 = CARTESIAN_POINT ( 'NONE',  ( -15.09871017906031021, 218.8385527690297749, -2.850000000000000089 ) ) ;
#335 = DIRECTION ( 'NONE',  ( 1.000000000000000000, 0.000000000000000000, 0.000000000000000000 ) ) ;
#336 = CARTESIAN_POINT ( 'NONE',  ( 11.40822624425556775, 89.86441480578854168, -0.1499999999999999667 ) ) ;
#337 = ORIENTED_EDGE ( 'NONE', *, *, #565, .T. ) ;
#338 = DIRECTION ( 'NONE',  ( 0.9325112589951537467, -0.3611409030382365937, 0.000000000000000000 ) ) ;
#339 = CIRCLE ( 'NONE', #130, 4.500000000000016875 ) ;
#340 = DIRECTION ( 'NONE',  ( 0.08727176214800645704, -0.9961845409017255903, 0.000000000000000000 ) ) ;
#341 = CARTESIAN_POINT ( 'NONE',  ( 14.49999999999976374, 81.50000000000011369, 0.000000000000000000 ) ) ;
#342 = ADVANCED_FACE ( 'NONE', ( #349 ), #291, .T. ) ;
#343 = ORIENTED_EDGE ( 'NONE', *, *, #863, .T. ) ;
#344 = CARTESIAN_POINT ( 'NONE',  ( 5.640203178723653288, 227.3643491252396700, -2.850000000000000089 ) ) ;
#345 = LINE ( 'NONE', #209, #43 ) ;
#346 = DIRECTION ( 'NONE',  ( -0.08727176214797487119, 0.9961845409017283659, 1.009282497253041027E-15 ) ) ;
#347 = EDGE_LOOP ( 'NONE', ( #84, #127, #574, #490 ) ) ;
#348 = CARTESIAN_POINT ( 'NONE',  ( 18.98461201614475513, 1.663166287287946243, -3.000000000000000000 ) ) ;
#349 = FACE_OUTER_BOUND ( 'NONE', #647, .T. ) ;
#350 = CIRCLE ( 'NONE', #98, 15.00000000000000000 ) ;
#351 = DIRECTION ( 'NONE',  ( 0.000000000000000000, 0.000000000000000000, 1.000000000000000000 ) ) ;
#352 = VERTEX_POINT ( 'NONE', #742 ) ;
#353 = DIRECTION ( 'NONE',  ( -0.000000000000000000, 0.000000000000000000, 1.000000000000000000 ) ) ;
#354 = DIRECTION ( 'NONE',  ( -0.8555122759566812229, -0.5177825274064581373, 0.000000000000000000 ) ) ;
#355 = EDGE_CURVE ( 'NONE', #569, #184, #280, .T. ) ;
#356 = AXIS2_PLACEMENT_3D ( 'NONE', #746, #340, #691 ) ;
#357 = CARTESIAN_POINT ( 'NONE',  ( 5.780079867572920804, 227.3101779897839378, -2.850000000000000089 ) ) ;
#358 = ORIENTED_EDGE ( 'NONE', *, *, #536, .T. ) ;
#359 = CARTESIAN_POINT ( 'NONE',  ( 4.675552957838936763, 220.5708972476676877, 0.000000000000000000 ) ) ;
#360 = CARTESIAN_POINT ( 'NONE',  ( 23.96553472065337331, 2.099525098027978043, -3.000000000000000000 ) ) ;
#361 = VERTEX_POINT ( 'NONE', #74 ) ;
#362 = FACE_OUTER_BOUND ( 'NONE', #878, .T. ) ;
#363 = STYLED_ITEM ( 'NONE', ( #110 ), #284 ) ;
#364 = CARTESIAN_POINT ( 'NONE',  ( 31.18248938115482005, 91.59675928442646864, -2.850000000000000089 ) ) ;
#365 = ORIENTED_EDGE ( 'NONE', *, *, #450, .T. ) ;
#366 = VECTOR ( 'NONE', #848, 999.9999999999998863 ) ;
#367 = FACE_OUTER_BOUND ( 'NONE', #108, .T. ) ;
#368 = AXIS2_PLACEMENT_3D ( 'NONE', #431, #706, #239 ) ;
#369 = ORIENTED_EDGE ( 'NONE', *, *, #634, .F. ) ;
#370 = ADVANCED_BREP_SHAPE_REPRESENTATION ( 'Part3_T310', ( #284, #583 ), #570 ) ;
#371 = DIRECTION ( 'NONE',  ( 0.08727176214797184584, -0.9961845409017285879, 0.000000000000000000 ) ) ;
#372 = ORIENTED_EDGE ( 'NONE', *, *, #124, .F. ) ;
#373 = DIRECTION ( 'NONE',  ( 1.000000000000000000, 0.000000000000000000, 0.000000000000000000 ) ) ;
#374 = AXIS2_PLACEMENT_3D ( 'NONE', #429, #630, #703 ) ;
#375 = DIRECTION ( 'NONE',  ( 0.000000000000000000, -0.000000000000000000, -1.000000000000000000 ) ) ;
#376 = ORIENTED_EDGE ( 'NONE', *, *, #152, .T. ) ;
#377 = DIRECTION ( 'NONE',  ( 0.000000000000000000, 0.000000000000000000, 1.000000000000000000 ) ) ;
#378 = EDGE_CURVE ( 'NONE', #569, #253, #419, .T. ) ;
#379 = CIRCLE ( 'NONE', #420, 2.499999999999995115 ) ;
#380 = CIRCLE ( 'NONE', #592, 0.1500000000000006328 ) ;
#381 = ORIENTED_EDGE ( 'NONE', *, *, #786, .F. ) ;
#382 = CARTESIAN_POINT ( 'NONE',  ( 16.99999999999975842, 81.50000000000011369, -2.850000000000000089 ) ) ;
#383 = ORIENTED_EDGE ( 'NONE', *, *, #81, .F. ) ;
#384 = CARTESIAN_POINT ( 'NONE',  ( 23.96553472065337331, 2.099525098027978043, -0.1499999999999999667 ) ) ;
#385 = VERTEX_POINT ( 'NONE', #522 ) ;
#386 = ORIENTED_EDGE ( 'NONE', *, *, #814, .F. ) ;
#387 = EDGE_CURVE ( 'NONE', #215, #835, #175, .T. ) ;
#388 = DIRECTION ( 'NONE',  ( 0.000000000000000000, 0.000000000000000000, 1.000000000000000000 ) ) ;
#389 = DIRECTION ( 'NONE',  ( 0.000000000000000000, -0.000000000000000000, -1.000000000000000000 ) ) ;
#390 = VERTEX_POINT ( 'NONE', #359 ) ;
#391 = ADVANCED_FACE ( 'NONE', ( #880 ), #415, .T. ) ;
#392 = DIRECTION ( 'NONE',  ( 0.000000000000000000, -0.000000000000000000, -1.000000000000000000 ) ) ;
#393 = FILL_AREA_STYLE ('',( #454 ) ) ;
#394 = ORIENTED_EDGE ( 'NONE', *, *, #728, .F. ) ;
#395 = LINE ( 'NONE', #249, #194 ) ;
#396 = DIRECTION ( 'NONE',  ( 0.08727176214800647092, -0.9961845409017257014, 0.000000000000000000 ) ) ;
#397 = DIRECTION ( 'NONE',  ( 0.9961845409017202613, 0.08727176214806674215, 0.000000000000000000 ) ) ;
#398 = ORIENTED_EDGE ( 'NONE', *, *, #273, .T. ) ;
#399 = LINE ( 'NONE', #203, #401 ) ;
#400 = CARTESIAN_POINT ( 'NONE',  ( -3.683969550405573390, 88.54224760924624604, -2.850000000000000089 ) ) ;
#401 = VECTOR ( 'NONE', #478, 999.9999999999998863 ) ;
#402 = EDGE_CURVE ( 'NONE', #654, #738, #322, .T. ) ;
#403 = DIRECTION ( 'NONE',  ( 0.000000000000000000, 0.000000000000000000, 1.000000000000000000 ) ) ;
#404 = ORIENTED_EDGE ( 'NONE', *, *, #30, .F. ) ;
#405 = DIRECTION ( 'NONE',  ( 1.000000000000000000, 0.000000000000000000, 0.000000000000000000 ) ) ;
#406 = AXIS2_PLACEMENT_3D ( 'NONE', #4, #836, #268 ) ;
#407 = ORIENTED_EDGE ( 'NONE', *, *, #844, .F. ) ;
#408 = VERTEX_POINT ( 'NONE', #819 ) ;
#409 = DIRECTION ( 'NONE',  ( -0.3611409030382405350, -0.9325112589951524145, -0.000000000000000000 ) ) ;
#410 = TOROIDAL_SURFACE ( 'NONE', #118, 15.15000000000000036, 0.1499999999999999944 ) ;
#411 = CYLINDRICAL_SURFACE ( 'NONE', #464, 4.500000000000031974 ) ;
#412 = VERTEX_POINT ( 'NONE', #123 ) ;
#413 = DIRECTION ( 'NONE',  ( 0.9961845409017257014, 0.08727176214800647092, -0.000000000000000000 ) ) ;
#414 = EDGE_CURVE ( 'NONE', #618, #616, #865, .T. ) ;
#415 = CYLINDRICAL_SURFACE ( 'NONE', #823, 0.1500000000000010492 ) ;
#416 = AXIS2_PLACEMENT_3D ( 'NONE', #148, #833, #144 ) ;
#417 = DIRECTION ( 'NONE',  ( 0.9961845409017257014, 0.08727176214800647092, -0.000000000000000000 ) ) ;
#418 = EDGE_LOOP ( 'NONE', ( #652, #212, #232, #739 ) ) ;
#419 = LINE ( 'NONE', #279, #778 ) ;
#420 = AXIS2_PLACEMENT_3D ( 'NONE', #119, #805, #188 ) ;
#421 = DIRECTION ( 'NONE',  ( 1.000000000000000000, 0.000000000000000000, 0.000000000000000000 ) ) ;
#422 = EDGE_LOOP ( 'NONE', ( #195, #554, #866, #372 ) ) ;
#423 = FACE_OUTER_BOUND ( 'NONE', #700, .T. ) ;
#424 = CARTESIAN_POINT ( 'NONE',  ( -0.006514384399163730514, 220.1607199655720706, -0.1499999999999999944 ) ) ;
#425 = ORIENTED_EDGE ( 'NONE', *, *, #26, .T. ) ;
#426 = CARTESIAN_POINT ( 'NONE',  ( 4.824980638974192715, 220.5839880119899021, -2.850000000000000089 ) ) ;
#427 = AXIS2_PLACEMENT_3D ( 'NONE', #692, #553, #837 ) ;
#428 = ADVANCED_FACE ( 'NONE', ( #626 ), #198, .F. ) ;
#429 = CARTESIAN_POINT ( 'NONE',  ( 1.583779202094754535, 228.9353120534561015, -0.1499999999999999667 ) ) ;
#430 = ORIENTED_EDGE ( 'NONE', *, *, #315, .T. ) ;
#431 = CARTESIAN_POINT ( 'NONE',  ( 14.49999999999976374, 81.50000000000011369, -3.000000000000000000 ) ) ;
#432 = DIRECTION ( 'NONE',  ( 1.000000000000000000, 0.000000000000000000, 0.000000000000000000 ) ) ;
#433 = CIRCLE ( 'NONE', #875, 0.1500000000000001332 ) ;
#434 = EDGE_CURVE ( 'NONE', #643, #202, #625, .T. ) ;
#435 = VERTEX_POINT ( 'NONE', #753 ) ;
#436 = CARTESIAN_POINT ( 'NONE',  ( 5.780079867572920804, 227.3101779897839378, -3.000000000000000000 ) ) ;
#437 = DIRECTION ( 'NONE',  ( 0.8555122759566826662, 0.5177825274064555838, 0.000000000000000000 ) ) ;
#438 = ORIENTED_EDGE ( 'NONE', *, *, #772, .T. ) ;
#439 = AXIS2_PLACEMENT_3D ( 'NONE', #255, #719, #104 ) ;
#440 = ADVANCED_FACE ( 'NONE', ( #134 ), #250, .T. ) ;
#441 = FACE_OUTER_BOUND ( 'NONE', #126, .T. ) ;
#442 = CIRCLE ( 'NONE', #759, 0.1500000000000006328 ) ;
#443 = ORIENTED_EDGE ( 'NONE', *, *, #445, .T. ) ;
#444 = CARTESIAN_POINT ( 'NONE',  ( -0.1559420655344225803, 220.1476292012498561, -2.850000000000000089 ) ) ;
#445 = EDGE_CURVE ( 'NONE', #177, #485, #238, .T. ) ;
#446 = VERTEX_POINT ( 'NONE', #591 ) ;
#447 = AXIS2_PLACEMENT_3D ( 'NONE', #514, #504, #713 ) ;
#448 = VERTEX_POINT ( 'NONE', #63 ) ;
#449 = DIRECTION ( 'NONE',  ( 1.000000000000000000, 0.000000000000000000, 0.000000000000000000 ) ) ;
#450 = EDGE_CURVE ( 'NONE', #802, #802, #637, .T. ) ;
#451 = CARTESIAN_POINT ( 'NONE',  ( 0.000000000000000000, 0.000000000000000000, 0.000000000000000000 ) ) ;
#452 = ORIENTED_EDGE ( 'NONE', *, *, #797, .T. ) ;
#453 = DIRECTION ( 'NONE',  ( 1.000000000000000000, 0.000000000000000000, 0.000000000000000000 ) ) ;
#454 = FILL_AREA_STYLE_COLOUR ( '', #632 ) ;
#455 = ADVANCED_FACE ( 'NONE', ( #217 ), #411, .T. ) ;
#456 = ORIENTED_EDGE ( 'NONE', *, *, #30, .T. ) ;
#457 = CIRCLE ( 'NONE', #543, 15.00000000000000000 ) ;
#458 = CARTESIAN_POINT ( 'NONE',  ( 18.34980524180479478, 83.83002137332928783, -0.1499999999999999667 ) ) ;
#459 = SURFACE_STYLE_FILL_AREA ( #393 ) ;
#460 = DIRECTION ( 'NONE',  ( 1.000000000000000000, -1.282435837025758388E-14, 0.000000000000000000 ) ) ;
#461 = CARTESIAN_POINT ( 'NONE',  ( -3.683969550405573390, 88.54224760924624604, -2.850000000000000089 ) ) ;
#462 = VERTEX_POINT ( 'NONE', #763 ) ;
#463 = DIRECTION ( 'NONE',  ( -0.9961845409017283659, -0.08727176214797387199, 0.000000000000000000 ) ) ;
#464 = AXIS2_PLACEMENT_3D ( 'NONE', #58, #682, #557 ) ;
#465 = CARTESIAN_POINT ( 'NONE',  ( 4.824980638974192715, 220.5839880119899021, -0.1499999999999999667 ) ) ;
#466 = AXIS2_PLACEMENT_3D ( 'NONE', #138, #471, #675 ) ;
#467 = PRODUCT_CONTEXT ( 'NONE', #320, 'mechanical' ) ;
#468 = ORIENTED_EDGE ( 'NONE', *, *, #580, .T. ) ;
#469 = CIRCLE ( 'NONE', #770, 15.15000000000000036 ) ;
#470 = TOROIDAL_SURFACE ( 'NONE', #77, 15.15000000000000036, 0.1499999999999999944 ) ;
#471 = DIRECTION ( 'NONE',  ( -0.000000000000000000, 0.000000000000000000, 1.000000000000000000 ) ) ;
#472 = EDGE_CURVE ( 'NONE', #705, #448, #345, .T. ) ;
#473 = LINE ( 'NONE', #27, #688 ) ;
#474 = AXIS2_PLACEMENT_3D ( 'NONE', #734, #799, #453 ) ;
#475 = ORIENTED_EDGE ( 'NONE', *, *, #826, .T. ) ;
#476 = CIRCLE ( 'NONE', #427, 15.15000000000000036 ) ;
#477 = ORIENTED_EDGE ( 'NONE', *, *, #158, .T. ) ;
#478 = DIRECTION ( 'NONE',  ( -0.08727176214800647092, 0.9961845409017257014, 0.000000000000000000 ) ) ;
#479 = CARTESIAN_POINT ( 'NONE',  ( 19.76774875250008279, 221.8930644442100117, -3.000000000000000000 ) ) ;
#480 = CARTESIAN_POINT ( 'NONE',  ( 31.18248938115482005, 91.59675928442646864, -2.850000000000000089 ) ) ;
#481 = EDGE_LOOP ( 'NONE', ( #486, #456, #876, #28 ) ) ;
#482 = CARTESIAN_POINT ( 'NONE',  ( 10.44357602337085922, 83.07096292821657357, -0.1499999999999999667 ) ) ;
#483 = DIRECTION ( 'NONE',  ( 0.5177825274064580263, -0.8555122759566811119, 0.000000000000000000 ) ) ;
#484 = ADVANCED_FACE ( 'NONE', ( #146 ), #297, .T. ) ;
#485 = VERTEX_POINT ( 'NONE', #775 ) ;
#486 = ORIENTED_EDGE ( 'NONE', *, *, #589, .F. ) ;
#487 = DIRECTION ( 'NONE',  ( -0.000000000000000000, 0.000000000000000000, 1.000000000000000000 ) ) ;
#488 = DIRECTION ( 'NONE',  ( 1.000000000000000000, 0.000000000000000000, 0.000000000000000000 ) ) ;
#489 = CARTESIAN_POINT ( 'NONE',  ( 31.18248938115482005, 91.59675928442646864, -3.000000000000000000 ) ) ;
#490 = ORIENTED_EDGE ( 'NONE', *, *, #863, .F. ) ;
#491 = AXIS2_PLACEMENT_3D ( 'NONE', #699, #764, #141 ) ;
#492 = DIRECTION ( 'NONE',  ( 1.000000000000000000, 0.000000000000000000, 0.000000000000000000 ) ) ;
#493 = DIRECTION ( 'NONE',  ( 1.000000000000000000, 0.000000000000000000, 0.000000000000000000 ) ) ;
#494 = ORIENTED_EDGE ( 'NONE', *, *, #414, .T. ) ;
#495 = DIRECTION ( 'NONE',  ( 0.000000000000000000, -0.000000000000000000, -1.000000000000000000 ) ) ;
#496 = VECTOR ( 'NONE', #377, 1000.000000000000000 ) ;
#497 = FACE_OUTER_BOUND ( 'NONE', #207, .T. ) ;
#498 = ORIENTED_EDGE ( 'NONE', *, *, #869, .T. ) ;
#499 = CARTESIAN_POINT ( 'NONE',  ( -2.266026039710270723, 226.6052906801269557, -0.1499999999999999667 ) ) ;
#500 = ADVANCED_FACE ( 'NONE', ( #362 ), #511, .T. ) ;
#501 = CIRCLE ( 'NONE', #596, 2.649999999999995914 ) ;
#502 = CYLINDRICAL_SURFACE ( 'NONE', #52, 4.500000000000016875 ) ;
#503 = VERTEX_POINT ( 'NONE', #641 ) ;
#504 = DIRECTION ( 'NONE',  ( -0.000000000000000000, 0.000000000000000000, 1.000000000000000000 ) ) ;
#505 = CIRCLE ( 'NONE', #83, 14.99999999999999645 ) ;
#506 = FACE_OUTER_BOUND ( 'NONE', #23, .T. ) ;
#507 = ORIENTED_EDGE ( 'NONE', *, *, #311, .T. ) ;
#508 = DIRECTION ( 'NONE',  ( -0.000000000000000000, 0.000000000000000000, 1.000000000000000000 ) ) ;
#509 = CIRCLE ( 'NONE', #806, 0.1500000000000001332 ) ;
#510 = FACE_BOUND ( 'NONE', #155, .T. ) ;
#511 = TOROIDAL_SURFACE ( 'NONE', #792, 15.15000000000000036, 0.1499999999999999944 ) ;
#512 = ADVANCED_FACE ( 'NONE', ( #843, #21 ), #156, .F. ) ;
#513 = VERTEX_POINT ( 'NONE', #566 ) ;
#514 = CARTESIAN_POINT ( 'NONE',  ( 19.76774875250008279, 221.8930644442100117, -2.850000000000000089 ) ) ;
#515 = DIRECTION ( 'NONE',  ( -0.000000000000000000, -0.000000000000000000, -1.000000000000000000 ) ) ;
#516 = CIRCLE ( 'NONE', #466, 2.499999999999996003 ) ;
#517 = ORIENTED_EDGE ( 'NONE', *, *, #251, .T. ) ;
#518 = FACE_OUTER_BOUND ( 'NONE', #333, .T. ) ;
#519 = CIRCLE ( 'NONE', #125, 15.00000000000000355 ) ;
#520 = EDGE_LOOP ( 'NONE', ( #673, #73, #381, #674 ) ) ;
#521 = FACE_OUTER_BOUND ( 'NONE', #241, .T. ) ;
#522 = CARTESIAN_POINT ( 'NONE',  ( 4.083779202094750538, 228.9353120534561015, -2.850000000000000089 ) ) ;
#523 = AXIS2_PLACEMENT_3D ( 'NONE', #710, #99, #633 ) ;
#524 = ORIENTED_EDGE ( 'NONE', *, *, #434, .F. ) ;
#525 = CARTESIAN_POINT ( 'NONE',  ( -15.09871017906031021, 218.8385527690297749, -0.1499999999999999667 ) ) ;
#526 =( LENGTH_UNIT ( ) NAMED_UNIT ( * ) SI_UNIT ( .MILLI., .METRE. ) );
#527 = ORIENTED_EDGE ( 'NONE', *, *, #185, .F. ) ;
#528 = FACE_OUTER_BOUND ( 'NONE', #89, .T. ) ;
#529 = CARTESIAN_POINT ( 'NONE',  ( -3.683969550405573390, 88.54224760924624604, -0.1499999999999999667 ) ) ;
#530 = VERTEX_POINT ( 'NONE', #658 ) ;
#531 = CARTESIAN_POINT ( 'NONE',  ( 1.583779202094754535, 228.9353120534561015, -2.850000000000000089 ) ) ;
#532 = AXIS2_PLACEMENT_3D ( 'NONE', #201, #748, #535 ) ;
#533 = DIRECTION ( 'NONE',  ( 1.000000000000000000, 0.000000000000000000, 0.000000000000000000 ) ) ;
#534 = DIRECTION ( 'NONE',  ( 1.000000000000000000, 0.000000000000000000, 0.000000000000000000 ) ) ;
#535 = DIRECTION ( 'NONE',  ( 1.000000000000000000, 0.000000000000000000, 0.000000000000000000 ) ) ;
#536 = EDGE_CURVE ( 'NONE', #761, #569, #433, .T. ) ;
#537 = DIRECTION ( 'NONE',  ( -0.000000000000000000, 0.000000000000000000, 1.000000000000000000 ) ) ;
#538 = SURFACE_SIDE_STYLE ('',( #459 ) ) ;
#539 = ORIENTED_EDGE ( 'NONE', *, *, #36, .F. ) ;
#540 = CARTESIAN_POINT ( 'NONE',  ( -2.266026039710270723, 226.6052906801269557, -3.000000000000000000 ) ) ;
#541 = DIRECTION ( 'NONE',  ( 0.000000000000000000, -0.000000000000000000, -1.000000000000000000 ) ) ;
#542 = DIRECTION ( 'NONE',  ( 1.000000000000000000, 0.000000000000000000, 0.000000000000000000 ) ) ;
#543 = AXIS2_PLACEMENT_3D ( 'NONE', #461, #114, #872 ) ;
#544 = EDGE_LOOP ( 'NONE', ( #369 ) ) ;
#545 = PLANE ( 'NONE',  #669 ) ;
#546 = PRESENTATION_LAYER_ASSIGNMENT (  '', '', ( #363 ) ) ;
#547 = DIRECTION ( 'NONE',  ( -0.08727176214800645704, 0.9961845409017255903, 0.000000000000000000 ) ) ;
#548 = EDGE_CURVE ( 'NONE', #793, #435, #380, .T. ) ;
#549 = CARTESIAN_POINT ( 'NONE',  ( -3.683969550405573390, 88.54224760924624604, -3.000000000000000000 ) ) ;
#550 = ORIENTED_EDGE ( 'NONE', *, *, #728, .T. ) ;
#551 = CARTESIAN_POINT ( 'NONE',  ( 11.25879856312031357, 89.85132404146634144, -3.000000000000000000 ) ) ;
#552 = DIRECTION ( 'NONE',  ( 0.000000000000000000, 0.000000000000000000, 1.000000000000000000 ) ) ;
#553 = DIRECTION ( 'NONE',  ( -0.000000000000000000, 0.000000000000000000, 1.000000000000000000 ) ) ;
#554 = ORIENTED_EDGE ( 'NONE', *, *, #762, .F. ) ;
#555 = CIRCLE ( 'NONE', #611, 4.350000000000017408 ) ;
#556 = AXIS2_PLACEMENT_3D ( 'NONE', #862, #41, #605 ) ;
#557 = DIRECTION ( 'NONE',  ( 1.000000000000000000, 0.000000000000000000, 0.000000000000000000 ) ) ;
#558 = AXIS2_PLACEMENT_3D ( 'NONE', #804, #186, #449 ) ;
#559 = CARTESIAN_POINT ( 'NONE',  ( 23.81610703951811558, 2.086434333705776911, 0.000000000000000000 ) ) ;
#560 = ORIENTED_EDGE ( 'NONE', *, *, #695, .F. ) ;
#561 = CIRCLE ( 'NONE', #671, 15.15000000000000036 ) ;
#562 = CARTESIAN_POINT ( 'NONE',  ( 18.22147840041128930, 83.75235399421832483, -0.1499999999999999667 ) ) ;
#563 = FACE_OUTER_BOUND ( 'NONE', #418, .T. ) ;
#564 = EDGE_LOOP ( 'NONE', ( #343, #150, #498, #849, #438, #20, #314, #697 ) ) ;
#565 = EDGE_CURVE ( 'NONE', #177, #654, #233, .T. ) ;
#566 = CARTESIAN_POINT ( 'NONE',  ( 10.30369933452158726, 83.12513406367230573, -2.850000000000000089 ) ) ;
#567 = AXIS2_PLACEMENT_3D ( 'NONE', #615, #884, #274 ) ;
#568 = DIRECTION ( 'NONE',  ( -0.000000000000000000, 0.000000000000000000, 1.000000000000000000 ) ) ;
#569 = VERTEX_POINT ( 'NONE', #426 ) ;
#570 =( GEOMETRIC_REPRESENTATION_CONTEXT ( 3 ) GLOBAL_UNCERTAINTY_ASSIGNED_CONTEXT ( ( #286 ) ) GLOBAL_UNIT_ASSIGNED_CONTEXT ( ( #526, #324, #737 ) ) REPRESENTATION_CONTEXT ( 'NONE', 'WORKASPACE' ) );
#571 = CYLINDRICAL_SURFACE ( 'NONE', #219, 0.1500000000000010492 ) ;
#572 = VECTOR ( 'NONE', #672, 1000.000000000000000 ) ;
#573 = FACE_OUTER_BOUND ( 'NONE', #544, .T. ) ;
#574 = ORIENTED_EDGE ( 'NONE', *, *, #311, .F. ) ;
#575 = DIRECTION ( 'NONE',  ( 0.08727176214806620091, -0.9961845409017204833, 0.000000000000000000 ) ) ;
#576 = CIRCLE ( 'NONE', #11, 0.1500000000000000222 ) ;
#577 = ADVANCED_FACE ( 'NONE', ( #423 ), #571, .T. ) ;
#578 = ORIENTED_EDGE ( 'NONE', *, *, #67, .F. ) ;
#579 = DIRECTION ( 'NONE',  ( 0.9961845409017283659, 0.08727176214797387199, 0.000000000000000000 ) ) ;
#580 = EDGE_CURVE ( 'NONE', #184, #325, #339, .T. ) ;
#581 = CARTESIAN_POINT ( 'NONE',  ( 10.30369933452158726, 83.12513406367230573, -3.000000000000000000 ) ) ;
#582 = PLANE ( 'NONE',  #160 ) ;
#583 = AXIS2_PLACEMENT_3D ( 'NONE', #451, #189, #39 ) ;
#584 = ORIENTED_EDGE ( 'NONE', *, *, #580, .F. ) ;
#585 = DIRECTION ( 'NONE',  ( 1.000000000000000000, 0.000000000000000000, 0.000000000000000000 ) ) ;
#586 = AXIS2_PLACEMENT_3D ( 'NONE', #489, #153, #421 ) ;
#587 = VERTEX_POINT ( 'NONE', #665 ) ;
#588 = ORIENTED_EDGE ( 'NONE', *, *, #293, .T. ) ;
#589 = EDGE_CURVE ( 'NONE', #319, #184, #161, .T. ) ;
#590 = DIRECTION ( 'NONE',  ( 1.000000000000000000, 0.000000000000000000, 0.000000000000000000 ) ) ;
#591 = CARTESIAN_POINT ( 'NONE',  ( 16.99999999999975842, 81.50000000000011369, -0.1499999999999999667 ) ) ;
#592 = AXIS2_PLACEMENT_3D ( 'NONE', #850, #371, #579 ) ;
#593 = EDGE_LOOP ( 'NONE', ( #887 ) ) ;
#594 = EDGE_CURVE ( 'NONE', #247, #247, #750, .T. ) ;
#595 = FACE_BOUND ( 'NONE', #93, .T. ) ;
#596 = AXIS2_PLACEMENT_3D ( 'NONE', #321, #181, #533 ) ;
#597 = APPLICATION_PROTOCOL_DEFINITION ( 'draft international standard', 'automotive_design', 1998, #88 ) ;
#598 = EDGE_LOOP ( 'NONE', ( #507, #829, #376, #243 ) ) ;
#599 = DIRECTION ( 'NONE',  ( -0.000000000000000000, 0.000000000000000000, 1.000000000000000000 ) ) ;
#600 = CARTESIAN_POINT ( 'NONE',  ( 0.000000000000000000, 0.000000000000000000, 0.000000000000000000 ) ) ;
#601 = ADVANCED_FACE ( 'NONE', ( #441, #91 ), #95, .F. ) ;
#602 = CIRCLE ( 'NONE', #292, 15.15000000000000036 ) ;
#603 = ORIENTED_EDGE ( 'NONE', *, *, #640, .T. ) ;
#604 = VERTEX_POINT ( 'NONE', #644 ) ;
#605 = DIRECTION ( 'NONE',  ( 0.9961845409017283659, 0.08727176214797387199, 0.000000000000000000 ) ) ;
#606 = DIRECTION ( 'NONE',  ( -0.000000000000000000, 0.000000000000000000, 1.000000000000000000 ) ) ;
#607 = ADVANCED_FACE ( 'NONE', ( #307, #29, #310 ), #582, .F. ) ;
#608 = CARTESIAN_POINT ( 'NONE',  ( -0.006514384399165458299, 220.1607199655720706, 0.000000000000000000 ) ) ;
#609 = DIRECTION ( 'NONE',  ( 0.000000000000000000, -0.000000000000000000, -1.000000000000000000 ) ) ;
#610 = EDGE_LOOP ( 'NONE', ( #102, #494, #407, #290 ) ) ;
#611 = AXIS2_PLACEMENT_3D ( 'NONE', #66, #197, #681 ) ;
#612 = CIRCLE ( 'NONE', #225, 0.1499999999999999944 ) ;
#613 = DIRECTION ( 'NONE',  ( 0.08727176214800647092, -0.9961845409017257014, 0.000000000000000000 ) ) ;
#614 = EDGE_CURVE ( 'NONE', #738, #361, #741, .T. ) ;
#615 = CARTESIAN_POINT ( 'NONE',  ( -3.683969550405573390, 88.54224760924624604, -3.000000000000000000 ) ) ;
#616 = VERTEX_POINT ( 'NONE', #499 ) ;
#617 = CIRCLE ( 'NONE', #532, 4.350000000000017408 ) ;
#618 = VERTEX_POINT ( 'NONE', #771 ) ;
#619 = DIRECTION ( 'NONE',  ( 0.9325112589951174424, -0.3611409030383307406, 0.000000000000000000 ) ) ;
#620 = ADVANCED_FACE ( 'NONE', ( #151 ), #85, .F. ) ;
#621 = DIRECTION ( 'NONE',  ( -0.000000000000000000, 0.000000000000000000, 1.000000000000000000 ) ) ;
#622 = DIRECTION ( 'NONE',  ( -0.08727176214800647092, 0.9961845409017257014, 0.000000000000000000 ) ) ;
#623 = ORIENTED_EDGE ( 'NONE', *, *, #772, .F. ) ;
#624 = DIRECTION ( 'NONE',  ( -0.000000000000000000, 0.000000000000000000, 1.000000000000000000 ) ) ;
#625 = CIRCLE ( 'NONE', #567, 15.15000000000000036 ) ;
#626 = FACE_OUTER_BOUND ( 'NONE', #481, .T. ) ;
#627 = ORIENTED_EDGE ( 'NONE', *, *, #614, .F. ) ;
#628 = DIRECTION ( 'NONE',  ( 1.000000000000000000, 3.700743415417189520E-15, 0.000000000000000000 ) ) ;
#629 = ADVANCED_FACE ( 'NONE', ( #521, #518 ), #327, .T. ) ;
#630 = DIRECTION ( 'NONE',  ( -0.000000000000000000, 0.000000000000000000, 1.000000000000000000 ) ) ;
#631 = EDGE_LOOP ( 'NONE', ( #693, #394, #248, #733 ) ) ;
#632 = COLOUR_RGB ( '',0.7921568627450980005, 0.8196078431372548767, 0.9333333333333333481 ) ;
#633 = DIRECTION ( 'NONE',  ( 1.000000000000000000, 0.000000000000000000, 0.000000000000000000 ) ) ;
#634 = EDGE_CURVE ( 'NONE', #530, #530, #501, .T. ) ;
#635 = VERTEX_POINT ( 'NONE', #116 ) ;
#636 = DIRECTION ( 'NONE',  ( -0.000000000000000000, 0.000000000000000000, 1.000000000000000000 ) ) ;
#637 = CIRCLE ( 'NONE', #406, 2.499999999999995115 ) ;
#638 = DIRECTION ( 'NONE',  ( -0.9961845409017202613, -0.08727176214806674215, 0.000000000000000000 ) ) ;
#639 = ORIENTED_EDGE ( 'NONE', *, *, #890, .F. ) ;
#640 = EDGE_CURVE ( 'NONE', #448, #202, #210, .T. ) ;
#641 = CARTESIAN_POINT ( 'NONE',  ( -0.006514384399162355746, 220.1607199655720706, -3.000000000000000000 ) ) ;
#642 = DIRECTION ( 'NONE',  ( 0.000000000000000000, -0.000000000000000000, -1.000000000000000000 ) ) ;
#643 = VERTEX_POINT ( 'NONE', #656 ) ;
#644 = CARTESIAN_POINT ( 'NONE',  ( 11.25879856312031357, 89.85132404146634144, -0.1499999999999999667 ) ) ;
#645 = CIRCLE ( 'NONE', #259, 15.00000000000000355 ) ;
#646 = DIRECTION ( 'NONE',  ( -0.000000000000000000, 0.000000000000000000, 1.000000000000000000 ) ) ;
#647 = EDGE_LOOP ( 'NONE', ( #358, #172, #773, #312 ) ) ;
#648 = CARTESIAN_POINT ( 'NONE',  ( 1.583779202094754535, 228.9353120534561015, -3.000000000000000000 ) ) ;
#649 = ORIENTED_EDGE ( 'NONE', *, *, #229, .F. ) ;
#650 = DIRECTION ( 'NONE',  ( -0.08727176214797387199, 0.9961845409017284769, 0.000000000000000000 ) ) ;
#651 = EDGE_CURVE ( 'NONE', #361, #727, #164, .T. ) ;
#652 = ORIENTED_EDGE ( 'NONE', *, *, #378, .T. ) ;
#653 = AXIS2_PLACEMENT_3D ( 'NONE', #214, #281, #696 ) ;
#654 = VERTEX_POINT ( 'NONE', #458 ) ;
#655 = PRODUCT_RELATED_PRODUCT_CATEGORY ( 'part', '', ( #234 ) ) ;
#656 = CARTESIAN_POINT ( 'NONE',  ( 10.44357602337086099, 83.07096292821657357, -3.000000000000000000 ) ) ;
#657 = DIRECTION ( 'NONE',  ( 1.000000000000000000, 0.000000000000000000, 0.000000000000000000 ) ) ;
#658 = CARTESIAN_POINT ( 'NONE',  ( 4.233779202094750893, 228.9353120534561015, 0.000000000000000000 ) ) ;
#659 = AXIS2_PLACEMENT_3D ( 'NONE', #648, #13, #373 ) ;
#660 = EDGE_LOOP ( 'NONE', ( #744, #404, #769, #649 ) ) ;
#661 = CARTESIAN_POINT ( 'NONE',  ( 16.23972126762892998, 90.28768285220637324, -0.1499999999999999667 ) ) ;
#662 = ADVANCED_FACE ( 'NONE', ( #724 ), #736, .T. ) ;
#663 = DIRECTION ( 'NONE',  ( 1.000000000000000000, 0.000000000000000000, 0.000000000000000000 ) ) ;
#664 = VECTOR ( 'NONE', #668, 1000.000000000000000 ) ;
#665 = CARTESIAN_POINT ( 'NONE',  ( 17.14999999999976055, 81.50000000000011369, 0.000000000000000000 ) ) ;
#666 = FACE_OUTER_BOUND ( 'NONE', #789, .T. ) ;
#667 = EDGE_LOOP ( 'NONE', ( #221, #584, #886, #383 ) ) ;
#668 = DIRECTION ( 'NONE',  ( 0.000000000000000000, 0.000000000000000000, -1.000000000000000000 ) ) ;
#669 = AXIS2_PLACEMENT_3D ( 'NONE', #348, #413, #122 ) ;
#670 = CARTESIAN_POINT ( 'NONE',  ( 1.583779202094754535, 228.9353120534561015, -0.1499999999999999667 ) ) ;
#671 = AXIS2_PLACEMENT_3D ( 'NONE', #800, #375, #256 ) ;
#672 = DIRECTION ( 'NONE',  ( 0.000000000000000000, 0.000000000000000000, -1.000000000000000000 ) ) ;
#673 = ORIENTED_EDGE ( 'NONE', *, *, #315, .F. ) ;
#674 = ORIENTED_EDGE ( 'NONE', *, *, #67, .T. ) ;
#675 = DIRECTION ( 'NONE',  ( 1.000000000000000000, 0.000000000000000000, 0.000000000000000000 ) ) ;
#676 = MECHANICAL_DESIGN_GEOMETRIC_PRESENTATION_REPRESENTATION (  '', ( #363 ), #173 ) ;
#677 = DIRECTION ( 'NONE',  ( -0.5177825274064580263, 0.8555122759566811119, 1.197612674323449992E-14 ) ) ;
#678 = ORIENTED_EDGE ( 'NONE', *, *, #136, .F. ) ;
#679 = AXIS2_PLACEMENT_3D ( 'NONE', #831, #139, #815 ) ;
#680 = EDGE_LOOP ( 'NONE', ( #12, #196, #684, #817 ) ) ;
#681 = DIRECTION ( 'NONE',  ( 1.000000000000000000, 0.000000000000000000, 0.000000000000000000 ) ) ;
#682 = DIRECTION ( 'NONE',  ( 0.000000000000000000, 0.000000000000000000, 1.000000000000000000 ) ) ;
#683 = ORIENTED_EDGE ( 'NONE', *, *, #152, .F. ) ;
#684 = ORIENTED_EDGE ( 'NONE', *, *, #445, .F. ) ;
#685 = FACE_OUTER_BOUND ( 'NONE', #660, .T. ) ;
#686 = DIRECTION ( 'NONE',  ( -0.9961845409017202613, -0.08727176214806667276, 0.000000000000000000 ) ) ;
#687 = FACE_OUTER_BOUND ( 'NONE', #520, .T. ) ;
#688 = VECTOR ( 'NONE', #396, 999.9999999999998863 ) ;
#689 = ORIENTED_EDGE ( 'NONE', *, *, #717, .F. ) ;
#690 = CARTESIAN_POINT ( 'NONE',  ( 10.44357602337085922, 83.07096292821657357, -2.849999999999999645 ) ) ;
#691 = DIRECTION ( 'NONE',  ( 0.9961845409017257014, 0.08727176214800543008, 0.000000000000000000 ) ) ;
#692 = CARTESIAN_POINT ( 'NONE',  ( -15.09871017906031021, 218.8385527690297749, -3.000000000000000000 ) ) ;
#693 = ORIENTED_EDGE ( 'NONE', *, *, #16, .T. ) ;
#694 = CARTESIAN_POINT ( 'NONE',  ( 23.81610703951811558, 2.086434333705776911, -0.1499999999999999944 ) ) ;
#695 = EDGE_CURVE ( 'NONE', #727, #435, #242, .T. ) ;
#696 = DIRECTION ( 'NONE',  ( 1.000000000000000000, 0.000000000000000000, 0.000000000000000000 ) ) ;
#697 = ORIENTED_EDGE ( 'NONE', *, *, #229, .T. ) ;
#698 = DIRECTION ( 'NONE',  ( -0.000000000000000000, 0.000000000000000000, 1.000000000000000000 ) ) ;
#699 = CARTESIAN_POINT ( 'NONE',  ( 19.13403969728001641, 1.676257051610147597, -2.850000000000000089 ) ) ;
#700 = EDGE_LOOP ( 'NONE', ( #2, #159, #683, #386 ) ) ;
#701 = TOROIDAL_SURFACE ( 'NONE', #416, 2.649999999999995914, 0.1499999999999999944 ) ;
#702 = CARTESIAN_POINT ( 'NONE',  ( 19.13403969728001286, 1.676257051610147153, -0.1499999999999999667 ) ) ;
#703 = DIRECTION ( 'NONE',  ( 1.000000000000000000, 0.000000000000000000, 0.000000000000000000 ) ) ;
#704 = EDGE_CURVE ( 'NONE', #325, #705, #811, .T. ) ;
#705 = VERTEX_POINT ( 'NONE', #444 ) ;
#706 = DIRECTION ( 'NONE',  ( -0.000000000000000000, 0.000000000000000000, 1.000000000000000000 ) ) ;
#707 = AXIS2_PLACEMENT_3D ( 'NONE', #9, #609, #285 ) ;
#708 = CARTESIAN_POINT ( 'NONE',  ( 11.40822624425556953, 89.86441480578854168, -3.000000000000000000 ) ) ;
#709 = ORIENTED_EDGE ( 'NONE', *, *, #434, .T. ) ;
#710 = CARTESIAN_POINT ( 'NONE',  ( 14.49999999999976374, 81.50000000000011369, -3.000000000000000000 ) ) ;
#711 = DIRECTION ( 'NONE',  ( 1.000000000000000000, 0.000000000000000000, 0.000000000000000000 ) ) ;
#712 = EDGE_LOOP ( 'NONE', ( #237 ) ) ;
#713 = DIRECTION ( 'NONE',  ( 1.000000000000000000, 0.000000000000000000, 0.000000000000000000 ) ) ;
#714 = TOROIDAL_SURFACE ( 'NONE', #332, 15.15000000000000036, 0.1499999999999999944 ) ;
#715 = ORIENTED_EDGE ( 'NONE', *, *, #136, .T. ) ;
#716 = DIRECTION ( 'NONE',  ( -0.8555122759566826662, -0.5177825274064555838, 0.000000000000000000 ) ) ;
#717 = EDGE_CURVE ( 'NONE', #635, #325, #612, .T. ) ;
#718 = EDGE_LOOP ( 'NONE', ( #560, #398, #813, #715 ) ) ;
#719 = DIRECTION ( 'NONE',  ( -0.000000000000000000, 0.000000000000000000, 1.000000000000000000 ) ) ;
#720 = AXIS2_PLACEMENT_3D ( 'NONE', #246, #388, #590 ) ;
#721 = ADVANCED_FACE ( 'NONE', ( #328 ), #470, .T. ) ;
#722 = CARTESIAN_POINT ( 'NONE',  ( -0.1559420655344225803, 220.1476292012498561, -3.000000000000000000 ) ) ;
#723 = ORIENTED_EDGE ( 'NONE', *, *, #16, .F. ) ;
#724 = FACE_OUTER_BOUND ( 'NONE', #265, .T. ) ;
#725 = CARTESIAN_POINT ( 'NONE',  ( 31.18248938115482005, 91.59675928442646864, -3.000000000000000000 ) ) ;
#726 = AXIS2_PLACEMENT_3D ( 'NONE', #6, #82, #230 ) ;
#727 = VERTEX_POINT ( 'NONE', #661 ) ;
#728 = EDGE_CURVE ( 'NONE', #202, #503, #395, .T. ) ;
#729 = DIRECTION ( 'NONE',  ( 1.000000000000000000, 0.000000000000000000, 0.000000000000000000 ) ) ;
#730 = AXIS2_PLACEMENT_3D ( 'NONE', #400, #621, #492 ) ;
#731 = CARTESIAN_POINT ( 'NONE',  ( 19.76774875250008279, 221.8930644442100117, -0.1499999999999999667 ) ) ;
#732 = EDGE_CURVE ( 'NONE', #352, #319, #33, .T. ) ;
#733 = ORIENTED_EDGE ( 'NONE', *, *, #472, .F. ) ;
#734 = CARTESIAN_POINT ( 'NONE',  ( 14.49999999999976374, 81.50000000000011369, -2.850000000000000089 ) ) ;
#735 = CARTESIAN_POINT ( 'NONE',  ( 14.49999999999976374, 81.50000000000011369, -3.000000000000000000 ) ) ;
#736 = TOROIDAL_SURFACE ( 'NONE', #105, 15.15000000000000036, 0.1499999999999999944 ) ;
#737 =( NAMED_UNIT ( * ) SI_UNIT ( $, .STERADIAN. ) SOLID_ANGLE_UNIT ( ) );
#738 = VERTEX_POINT ( 'NONE', #317 ) ;
#739 = ORIENTED_EDGE ( 'NONE', *, *, #299, .T. ) ;
#740 = FACE_OUTER_BOUND ( 'NONE', #873, .T. ) ;
#741 = CIRCLE ( 'NONE', #79, 15.15000000000000036 ) ;
#742 = CARTESIAN_POINT ( 'NONE',  ( 5.640203178723647959, 227.3643491252396700, 0.000000000000000000 ) ) ;
#743 = TOROIDAL_SURFACE ( 'NONE', #305, 15.15000000000000036, 0.1499999999999999944 ) ;
#744 = ORIENTED_EDGE ( 'NONE', *, *, #323, .T. ) ;
#745 = DIRECTION ( 'NONE',  ( 1.000000000000000000, 0.000000000000000000, 0.000000000000000000 ) ) ;
#746 = CARTESIAN_POINT ( 'NONE',  ( 23.81610703951811558, 2.086434333705777355, -2.850000000000000089 ) ) ;
#747 = ADVANCED_FACE ( 'NONE', ( #858 ), #830, .T. ) ;
#748 = DIRECTION ( 'NONE',  ( 0.000000000000000000, -0.000000000000000000, -1.000000000000000000 ) ) ;
#749 = CIRCLE ( 'NONE', #187, 4.350000000000030731 ) ;
#750 = CIRCLE ( 'NONE', #368, 2.649999999999995914 ) ;
#751 = EDGE_LOOP ( 'NONE', ( #337, #517, #430, #266 ) ) ;
#752 = DIRECTION ( 'NONE',  ( 0.3611409030382405350, 0.9325112589951524145, -4.176530684239332117E-15 ) ) ;
#753 = CARTESIAN_POINT ( 'NONE',  ( 16.23972126762892998, 90.28768285220637324, -2.850000000000000089 ) ) ;
#754 = ADVANCED_FACE ( 'NONE', ( #37, #528 ), #48, .T. ) ;
#755 = FACE_OUTER_BOUND ( 'NONE', #667, .T. ) ;
#756 = DIRECTION ( 'NONE',  ( 0.000000000000000000, 0.000000000000000000, 1.000000000000000000 ) ) ;
#757 = CARTESIAN_POINT ( 'NONE',  ( 19.76774875250008279, 221.8930644442100117, -2.850000000000000089 ) ) ;
#758 = DIRECTION ( 'NONE',  ( -0.08727176214800647092, 0.9961845409017257014, -0.000000000000000000 ) ) ;
#759 = AXIS2_PLACEMENT_3D ( 'NONE', #336, #346, #816 ) ;
#760 = CIRCLE ( 'NONE', #846, 2.649999999999995914 ) ;
#761 = VERTEX_POINT ( 'NONE', #260 ) ;
#762 = EDGE_CURVE ( 'NONE', #253, #727, #794, .T. ) ;
#763 = CARTESIAN_POINT ( 'NONE',  ( 5.640203178723653288, 227.3643491252396700, -3.000000000000000000 ) ) ;
#764 = DIRECTION ( 'NONE',  ( -0.08727176214800645704, 0.9961845409017255903, 0.000000000000000000 ) ) ;
#765 = ORIENTED_EDGE ( 'NONE', *, *, #548, .T. ) ;
#766 = ADVANCED_FACE ( 'NONE', ( #740 ), #545, .F. ) ;
#767 = CARTESIAN_POINT ( 'NONE',  ( 31.18248938115482005, 91.59675928442646864, 0.000000000000000000 ) ) ;
#768 = CARTESIAN_POINT ( 'NONE',  ( 1.583779202094754535, 228.9353120534561015, -0.1499999999999999667 ) ) ;
#769 = ORIENTED_EDGE ( 'NONE', *, *, #732, .F. ) ;
#770 = AXIS2_PLACEMENT_3D ( 'NONE', #54, #870, #460 ) ;
#771 = CARTESIAN_POINT ( 'NONE',  ( -0.1559420655344225803, 220.1476292012498561, -0.1499999999999999667 ) ) ;
#772 = EDGE_CURVE ( 'NONE', #408, #738, #289, .T. ) ;
#773 = ORIENTED_EDGE ( 'NONE', *, *, #548, .F. ) ;
#774 = TOROIDAL_SURFACE ( 'NONE', #38, 4.350000000000017408, 0.1499999999999999944 ) ;
#775 = CARTESIAN_POINT ( 'NONE',  ( 18.22147840041128930, 83.75235399421832483, -3.000000000000000000 ) ) ;
#776 = ORIENTED_EDGE ( 'NONE', *, *, #251, .F. ) ;
#777 = DIRECTION ( 'NONE',  ( 1.000000000000000000, 0.000000000000000000, 0.000000000000000000 ) ) ;
#778 = VECTOR ( 'NONE', #552, 1000.000000000000000 ) ;
#779 = PLANE ( 'NONE',  #231 ) ;
#780 = ORIENTED_EDGE ( 'NONE', *, *, #797, .F. ) ;
#781 = VECTOR ( 'NONE', #128, 1000.000000000000000 ) ;
#782 = DIRECTION ( 'NONE',  ( 0.08727176214800645704, -0.9961845409017255903, 0.000000000000000000 ) ) ;
#783 = AXIS2_PLACEMENT_3D ( 'NONE', #334, #392, #790 ) ;
#784 = AXIS2_PLACEMENT_3D ( 'NONE', #874, #487, #809 ) ;
#785 = EDGE_LOOP ( 'NONE', ( #365 ) ) ;
#786 = EDGE_CURVE ( 'NONE', #448, #604, #283, .T. ) ;
#787 = CARTESIAN_POINT ( 'NONE',  ( 16.09029358649367580, 90.27459208788417300, -0.1499999999999999944 ) ) ;
#788 = CLOSED_SHELL ( 'NONE', ( #766, #216, #131, #601, #455, #512, #607, #235, #620, #428, #94, #5, #191, #222, #662, #391, #820, #852, #200, #117, #577, #721, #629, #754, #500, #53, #176, #484, #440, #342, #747, #59 ) ) ;
#789 = EDGE_LOOP ( 'NONE', ( #765, #678, #443, #135 ) ) ;
#790 = DIRECTION ( 'NONE',  ( 1.000000000000000000, -3.700743415417188731E-15, 0.000000000000000000 ) ) ;
#791 = EDGE_CURVE ( 'NONE', #513, #177, #226, .T. ) ;
#792 = AXIS2_PLACEMENT_3D ( 'NONE', #840, #636, #25 ) ;
#793 = VERTEX_POINT ( 'NONE', #818 ) ;
#794 = LINE ( 'NONE', #384, #168 ) ;
#795 = CIRCLE ( 'NONE', #827, 0.1500000000000002998 ) ;
#796 = DIRECTION ( 'NONE',  ( -0.000000000000000000, 0.000000000000000000, 1.000000000000000000 ) ) ;
#797 = EDGE_CURVE ( 'NONE', #252, #252, #516, .T. ) ;
#798 = ORIENTED_EDGE ( 'NONE', *, *, #106, .T. ) ;
#799 = DIRECTION ( 'NONE',  ( -0.000000000000000000, 0.000000000000000000, 1.000000000000000000 ) ) ;
#800 = CARTESIAN_POINT ( 'NONE',  ( 19.76774875250008279, 221.8930644442100117, 0.000000000000000000 ) ) ;
#801 = TOROIDAL_SURFACE ( 'NONE', #374, 4.350000000000017408, 0.1499999999999999944 ) ;
#802 = VERTEX_POINT ( 'NONE', #382 ) ;
#803 = DIRECTION ( 'NONE',  ( -0.000000000000000000, 0.000000000000000000, 1.000000000000000000 ) ) ;
#804 = CARTESIAN_POINT ( 'NONE',  ( 1.583779202094754535, 228.9353120534561015, -2.850000000000000089 ) ) ;
#805 = DIRECTION ( 'NONE',  ( -0.000000000000000000, 0.000000000000000000, 1.000000000000000000 ) ) ;
#806 = AXIS2_PLACEMENT_3D ( 'NONE', #71, #889, #686 ) ;
#807 = FACE_OUTER_BOUND ( 'NONE', #718, .T. ) ;
#808 = ORIENTED_EDGE ( 'NONE', *, *, #834, .F. ) ;
#809 = DIRECTION ( 'NONE',  ( 1.000000000000000000, 0.000000000000000000, 0.000000000000000000 ) ) ;
#810 = CARTESIAN_POINT ( 'NONE',  ( 14.49999999999976374, 81.50000000000011369, -0.1499999999999999667 ) ) ;
#811 = CIRCLE ( 'NONE', #783, 15.00000000000000000 ) ;
#812 = DIRECTION ( 'NONE',  ( -0.000000000000000000, 0.000000000000000000, 1.000000000000000000 ) ) ;
#813 = ORIENTED_EDGE ( 'NONE', *, *, #565, .F. ) ;
#814 = EDGE_CURVE ( 'NONE', #604, #618, #399, .T. ) ;
#815 = DIRECTION ( 'NONE',  ( 1.000000000000000000, 0.000000000000000000, 0.000000000000000000 ) ) ;
#816 = DIRECTION ( 'NONE',  ( -0.9961845409017283659, -0.08727176214797387199, 0.000000000000000000 ) ) ;
#817 = ORIENTED_EDGE ( 'NONE', *, *, #791, .F. ) ;
#818 = CARTESIAN_POINT ( 'NONE',  ( 16.09029358649367225, 90.27459208788417300, -3.000000000000000000 ) ) ;
#819 = CARTESIAN_POINT ( 'NONE',  ( 10.44357602337085922, 83.07096292821657357, 0.000000000000000000 ) ) ;
#820 = ADVANCED_FACE ( 'NONE', ( #57 ), #46, .T. ) ;
#821 = DIRECTION ( 'NONE',  ( 0.08727176214806631194, -0.9961845409017204833, -1.005339987499199587E-15 ) ) ;
#822 = VECTOR ( 'NONE', #515, 1000.000000000000000 ) ;
#823 = AXIS2_PLACEMENT_3D ( 'NONE', #694, #547, #213 ) ;
#824 = CARTESIAN_POINT ( 'NONE',  ( 14.49999999999976374, 81.50000000000011369, -0.1499999999999999667 ) ) ;
#825 = CARTESIAN_POINT ( 'NONE',  ( 18.22147840041129285, 83.75235399421832483, -2.850000000000000089 ) ) ;
#826 = EDGE_CURVE ( 'NONE', #412, #408, #854, .T. ) ;
#827 = AXIS2_PLACEMENT_3D ( 'NONE', #690, #409, #338 ) ;
#828 = FACE_OUTER_BOUND ( 'NONE', #347, .T. ) ;
#829 = ORIENTED_EDGE ( 'NONE', *, *, #414, .F. ) ;
#830 = TOROIDAL_SURFACE ( 'NONE', #439, 4.350000000000029843, 0.1499999999999999944 ) ;
#831 = CARTESIAN_POINT ( 'NONE',  ( -15.09871017906031021, 218.8385527690297749, -0.1499999999999999667 ) ) ;
#832 = PRODUCT_DEFINITION_CONTEXT ( 'detailed design', #88, 'design' ) ;
#833 = DIRECTION ( 'NONE',  ( -0.000000000000000000, 0.000000000000000000, 1.000000000000000000 ) ) ;
#834 = EDGE_CURVE ( 'NONE', #513, #643, #795, .T. ) ;
#835 = VERTEX_POINT ( 'NONE', #608 ) ;
#836 = DIRECTION ( 'NONE',  ( 0.000000000000000000, -0.000000000000000000, -1.000000000000000000 ) ) ;
#837 = DIRECTION ( 'NONE',  ( 1.000000000000000000, 0.000000000000000000, 0.000000000000000000 ) ) ;
#838 = ORIENTED_EDGE ( 'NONE', *, *, #594, .T. ) ;
#839 = AXIS2_PLACEMENT_3D ( 'NONE', #479, #129, #488 ) ;
#840 = CARTESIAN_POINT ( 'NONE',  ( -15.09871017906031021, 218.8385527690297749, -2.850000000000000089 ) ) ;
#841 = FACE_OUTER_BOUND ( 'NONE', #100, .T. ) ;
#842 = ORIENTED_EDGE ( 'NONE', *, *, #536, .F. ) ;
#843 = FACE_OUTER_BOUND ( 'NONE', #593, .T. ) ;
#844 = EDGE_CURVE ( 'NONE', #325, #616, #267, .T. ) ;
#845 = ORIENTED_EDGE ( 'NONE', *, *, #882, .T. ) ;
#846 = AXIS2_PLACEMENT_3D ( 'NONE', #341, #206, #881 ) ;
#847 = CARTESIAN_POINT ( 'NONE',  ( 18.34980524180479478, 83.83002137332928783, -3.000000000000000000 ) ) ;
#848 = DIRECTION ( 'NONE',  ( -0.08727176214800647092, 0.9961845409017257014, 0.000000000000000000 ) ) ;
#849 = ORIENTED_EDGE ( 'NONE', *, *, #890, .T. ) ;
#850 = CARTESIAN_POINT ( 'NONE',  ( 16.09029358649367225, 90.27459208788417300, -2.850000000000000089 ) ) ;
#851 = DIRECTION ( 'NONE',  ( 1.000000000000000000, 0.000000000000000000, 0.000000000000000000 ) ) ;
#852 = ADVANCED_FACE ( 'NONE', ( #685 ), #410, .T. ) ;
#853 = EDGE_LOOP ( 'NONE', ( #603, #524, #808, #578 ) ) ;
#854 = CIRCLE ( 'NONE', #64, 0.1500000000000002998 ) ;
#855 = DIRECTION ( 'NONE',  ( 1.000000000000000000, 0.000000000000000000, 0.000000000000000000 ) ) ;
#856 = ORIENTED_EDGE ( 'NONE', *, *, #166, .T. ) ;
#857 = EDGE_CURVE ( 'NONE', #385, #385, #75, .T. ) ;
#858 = FACE_OUTER_BOUND ( 'NONE', #680, .T. ) ;
#859 = AXIS2_PLACEMENT_3D ( 'NONE', #360, #417, #622 ) ;
#860 = CARTESIAN_POINT ( 'NONE',  ( 4.233779202094750893, 228.9353120534561015, -3.000000000000000000 ) ) ;
#861 = ORIENTED_EDGE ( 'NONE', *, *, #26, .F. ) ;
#862 = CARTESIAN_POINT ( 'NONE',  ( 11.40822624425557130, 89.86441480578854168, -2.850000000000000089 ) ) ;
#863 = EDGE_CURVE ( 'NONE', #352, #215, #555, .T. ) ;
#864 = CIRCLE ( 'NONE', #205, 0.1499999999999999944 ) ;
#865 = CIRCLE ( 'NONE', #679, 15.00000000000000000 ) ;
#866 = ORIENTED_EDGE ( 'NONE', *, *, #323, .F. ) ;
#867 = DIRECTION ( 'NONE',  ( -0.9325112589951181086, 0.3611409030383287977, 0.000000000000000000 ) ) ;
#868 = DIRECTION ( 'NONE',  ( -0.000000000000000000, 0.000000000000000000, 1.000000000000000000 ) ) ;
#869 = EDGE_CURVE ( 'NONE', #835, #258, #883, .T. ) ;
#870 = DIRECTION ( 'NONE',  ( 0.000000000000000000, -0.000000000000000000, -1.000000000000000000 ) ) ;
#871 = CARTESIAN_POINT ( 'NONE',  ( -0.006514384399163730514, 220.1607199655720706, -2.850000000000000089 ) ) ;
#872 = DIRECTION ( 'NONE',  ( 1.000000000000000000, 0.000000000000000000, 0.000000000000000000 ) ) ;
#873 = EDGE_LOOP ( 'NONE', ( #302, #44, #845, #271 ) ) ;
#874 = CARTESIAN_POINT ( 'NONE',  ( 14.49999999999976374, 81.50000000000011369, -2.850000000000000089 ) ) ;
#875 = AXIS2_PLACEMENT_3D ( 'NONE', #300, #575, #303 ) ;
#876 = ORIENTED_EDGE ( 'NONE', *, *, #378, .F. ) ;
#877 = EDGE_CURVE ( 'NONE', #462, #184, #254, .T. ) ;
#878 = EDGE_LOOP ( 'NONE', ( #723, #31, #689, #15 ) ) ;
#879 = DIRECTION ( 'NONE',  ( -0.9325112589951537467, 0.3611409030382365937, 0.000000000000000000 ) ) ;
#880 = FACE_OUTER_BOUND ( 'NONE', #422, .T. ) ;
#881 = DIRECTION ( 'NONE',  ( 1.000000000000000000, 0.000000000000000000, 0.000000000000000000 ) ) ;
#882 = EDGE_CURVE ( 'NONE', #618, #705, #888, .T. ) ;
#883 = LINE ( 'NONE', #208, #178 ) ;
#884 = DIRECTION ( 'NONE',  ( -0.000000000000000000, 0.000000000000000000, 1.000000000000000000 ) ) ;
#885 = AXIS2_PLACEMENT_3D ( 'NONE', #670, #96, #657 ) ;
#886 = ORIENTED_EDGE ( 'NONE', *, *, #877, .F. ) ;
#887 = ORIENTED_EDGE ( 'NONE', *, *, #287, .T. ) ;
#888 = LINE ( 'NONE', #722, #572 ) ;
#889 = DIRECTION ( 'NONE',  ( -0.08727176214806618704, 0.9961845409017203723, 0.000000000000000000 ) ) ;
#890 = EDGE_CURVE ( 'NONE', #258, #408, #469, .T. ) ;
#891 = DIRECTION ( 'NONE',  ( 0.000000000000000000, -0.000000000000000000, -1.000000000000000000 ) ) ;
ENDSEC;
END-ISO-10303-21;
