ISO-10303-21;
HEADER;
FILE_DESCRIPTION (( 'STEP AP214' ),
    '1' );
FILE_NAME ('Part14_T310.STEP',
    '2025-07-30T15:09:16',
    ( '' ),
    ( '' ),
    'SwSTEP 2.0',
    'SolidWorks 2025',
    '' );
FILE_SCHEMA (( 'AUTOMOTIVE_DESIGN' ));
ENDSEC;

DATA;
#1 = FACE_BOUND ( 'NONE', #127, .T. ) ;
#2 = VERTEX_POINT ( 'NONE', #35 ) ;
#3 =( LENGTH_UNIT ( ) NAMED_UNIT ( * ) SI_UNIT ( .MILLI., .METRE. ) );
#4 = CARTESIAN_POINT ( 'NONE',  ( -7.250000000000060396, -1.500000000000000000, 12.55736835487432224 ) ) ;
#5 = VERTEX_POINT ( 'NONE', #53 ) ;
#6 = DIRECTION ( 'NONE',  ( 0.000000000000000000, 1.000000000000000000, 0.000000000000000000 ) ) ;
#7 = EDGE_CURVE ( 'NONE', #130, #130, #209, .T. ) ;
#8 = AXIS2_PLACEMENT_3D ( 'NONE', #4, #6, #34 ) ;
#9 = DIRECTION ( 'NONE',  ( 0.000000000000000000, 0.000000000000000000, -1.000000000000000000 ) ) ;
#10 = EDGE_CURVE ( 'NONE', #37, #37, #98, .T. ) ;
#11 = DIRECTION ( 'NONE',  ( 0.000000000000000000, 0.000000000000000000, -1.000000000000000000 ) ) ;
#12 = PLANE ( 'NONE',  #103 ) ;
#13 = PRODUCT_DEFINITION_CONTEXT ( 'detailed design', #215, 'design' ) ;
#14 = CARTESIAN_POINT ( 'NONE',  ( 14.50000000000000000, 1.500000000000000000, 0.000000000000000000 ) ) ;
#15 = DIRECTION ( 'NONE',  ( 0.000000000000000000, 1.000000000000000000, 0.000000000000000000 ) ) ;
#16 = AXIS2_PLACEMENT_3D ( 'NONE', #33, #62, #30 ) ;
#17 = CARTESIAN_POINT ( 'NONE',  ( 0.000000000000000000, 0.000000000000000000, 0.000000000000000000 ) ) ;
#18 = ADVANCED_FACE ( 'NONE', ( #140, #159 ), #178, .F. ) ;
#19 =( NAMED_UNIT ( * ) PLANE_ANGLE_UNIT ( ) SI_UNIT ( $, .RADIAN. ) );
#20 = CARTESIAN_POINT ( 'NONE',  ( -7.249999999999883649, 1.500000000000000000, -10.80736835487442882 ) ) ;
#21 =( NAMED_UNIT ( * ) SI_UNIT ( $, .STERADIAN. ) SOLID_ANGLE_UNIT ( ) );
#22 = EDGE_LOOP ( 'NONE', ( #68 ) ) ;
#23 = PRODUCT_DEFINITION_SHAPE ( 'NONE', 'NONE',  #136 ) ;
#24 = ORIENTED_EDGE ( 'NONE', *, *, #211, .F. ) ;
#25 = ORIENTED_EDGE ( 'NONE', *, *, #92, .F. ) ;
#26 = ORIENTED_EDGE ( 'NONE', *, *, #10, .F. ) ;
#27 = EDGE_LOOP ( 'NONE', ( #24 ) ) ;
#28 = DIRECTION ( 'NONE',  ( 0.000000000000000000, 1.000000000000000000, 0.000000000000000000 ) ) ;
#29 = EDGE_CURVE ( 'NONE', #205, #205, #85, .T. ) ;
#30 = DIRECTION ( 'NONE',  ( 0.000000000000000000, 0.000000000000000000, 1.000000000000000000 ) ) ;
#31 = FACE_BOUND ( 'NONE', #27, .T. ) ;
#32 = FACE_OUTER_BOUND ( 'NONE', #158, .T. ) ;
#33 = CARTESIAN_POINT ( 'NONE',  ( 14.50000000000000000, -1.500000000000000000, 0.000000000000000000 ) ) ;
#34 = DIRECTION ( 'NONE',  ( 0.000000000000000000, 0.000000000000000000, 1.000000000000000000 ) ) ;
#35 = CARTESIAN_POINT ( 'NONE',  ( -7.250000000000060396, 1.500000000000000000, 14.30736835487432224 ) ) ;
#36 = DIRECTION ( 'NONE',  ( 0.000000000000000000, 0.000000000000000000, 1.000000000000000000 ) ) ;
#37 = VERTEX_POINT ( 'NONE', #117 ) ;
#38 = CARTESIAN_POINT ( 'NONE',  ( -7.250000000000060396, 1.500000000000000000, 12.55736835487432224 ) ) ;
#39 = CIRCLE ( 'NONE', #82, 10.00000000000000000 ) ;
#40 = ORIENTED_EDGE ( 'NONE', *, *, #132, .T. ) ;
#41 = AXIS2_PLACEMENT_3D ( 'NONE', #110, #90, #45 ) ;
#42 = ORIENTED_EDGE ( 'NONE', *, *, #139, .T. ) ;
#43 = ORIENTED_EDGE ( 'NONE', *, *, #211, .T. ) ;
#44 = AXIS2_PLACEMENT_3D ( 'NONE', #69, #93, #9 ) ;
#45 = DIRECTION ( 'NONE',  ( 0.000000000000000000, 0.000000000000000000, 1.000000000000000000 ) ) ;
#46 = FACE_BOUND ( 'NONE', #154, .T. ) ;
#47 = CARTESIAN_POINT ( 'NONE',  ( 0.000000000000000000, -1.500000000000000000, 0.000000000000000000 ) ) ;
#48 = AXIS2_PLACEMENT_3D ( 'NONE', #197, #58, #145 ) ;
#49 = FACE_BOUND ( 'NONE', #22, .T. ) ;
#50 = DIRECTION ( 'NONE',  ( -0.000000000000000000, -1.000000000000000000, -0.000000000000000000 ) ) ;
#51 = FACE_OUTER_BOUND ( 'NONE', #170, .T. ) ;
#52 = VERTEX_POINT ( 'NONE', #186 ) ;
#53 = CARTESIAN_POINT ( 'NONE',  ( 0.000000000000000000, 1.500000000000000000, 10.00000000000000000 ) ) ;
#54 = ORIENTED_EDGE ( 'NONE', *, *, #29, .T. ) ;
#55 = ORIENTED_EDGE ( 'NONE', *, *, #7, .T. ) ;
#56 = APPLICATION_PROTOCOL_DEFINITION ( 'draft international standard', 'automotive_design', 1998, #89 ) ;
#57 = ORIENTED_EDGE ( 'NONE', *, *, #185, .T. ) ;
#58 = DIRECTION ( 'NONE',  ( 0.000000000000000000, 1.000000000000000000, 0.000000000000000000 ) ) ;
#59 = DIRECTION ( 'NONE',  ( -0.000000000000000000, -1.000000000000000000, -0.000000000000000000 ) ) ;
#60 = CARTESIAN_POINT ( 'NONE',  ( -7.250000000000060396, 1.500000000000000000, 12.55736835487432224 ) ) ;
#61 = DIRECTION ( 'NONE',  ( -0.000000000000000000, -1.000000000000000000, -0.000000000000000000 ) ) ;
#62 = DIRECTION ( 'NONE',  ( 0.000000000000000000, 1.000000000000000000, 0.000000000000000000 ) ) ;
#63 = UNCERTAINTY_MEASURE_WITH_UNIT (LENGTH_MEASURE( 1.000000000000000082E-05 ), #3, 'distance_accuracy_value', 'NONE');
#64 = CARTESIAN_POINT ( 'NONE',  ( 14.50000000000000000, -1.500000000000000000, 1.749999999999998224 ) ) ;
#65 = SURFACE_STYLE_USAGE ( .BOTH. , #166 ) ;
#66 = CARTESIAN_POINT ( 'NONE',  ( 0.000000000000000000, 1.500000000000000000, 0.000000000000000000 ) ) ;
#67 =( NAMED_UNIT ( * ) PLANE_ANGLE_UNIT ( ) SI_UNIT ( $, .RADIAN. ) );
#68 = ORIENTED_EDGE ( 'NONE', *, *, #139, .F. ) ;
#69 = CARTESIAN_POINT ( 'NONE',  ( 14.50000000000000000, 1.500000000000000000, 0.000000000000000000 ) ) ;
#70 = DIRECTION ( 'NONE',  ( 0.000000000000000000, 0.000000000000000000, 1.000000000000000000 ) ) ;
#71 = COLOUR_RGB ( '',0.7921568627450980005, 0.8196078431372548767, 0.9333333333333333481 ) ;
#72 = CARTESIAN_POINT ( 'NONE',  ( 0.000000000000000000, 1.500000000000000000, 0.000000000000000000 ) ) ;
#73 = ADVANCED_FACE ( 'NONE', ( #200, #46, #195, #107, #74 ), #109, .F. ) ;
#74 = FACE_BOUND ( 'NONE', #198, .T. ) ;
#75 = DIRECTION ( 'NONE',  ( 0.000000000000000000, 1.000000000000000000, 0.000000000000000000 ) ) ;
#76 = EDGE_CURVE ( 'NONE', #101, #101, #165, .T. ) ;
#77 = CARTESIAN_POINT ( 'NONE',  ( 0.000000000000000000, -1.500000000000000000, 0.000000000000000000 ) ) ;
#78 =( LENGTH_UNIT ( ) NAMED_UNIT ( * ) SI_UNIT ( .MILLI., .METRE. ) );
#79 = ADVANCED_BREP_SHAPE_REPRESENTATION ( 'Part14_T310', ( #196, #168 ), #206 ) ;
#80 = DIRECTION ( 'NONE',  ( -0.000000000000000000, -1.000000000000000000, -0.000000000000000000 ) ) ;
#81 = AXIS2_PLACEMENT_3D ( 'NONE', #162, #75, #70 ) ;
#82 = AXIS2_PLACEMENT_3D ( 'NONE', #72, #15, #220 ) ;
#83 = ORIENTED_EDGE ( 'NONE', *, *, #221, .T. ) ;
#84 = DIRECTION ( 'NONE',  ( 0.000000000000000000, 0.000000000000000000, 1.000000000000000000 ) ) ;
#85 = CIRCLE ( 'NONE', #213, 1.749999999999998224 ) ;
#86 = AXIS2_PLACEMENT_3D ( 'NONE', #177, #126, #216 ) ;
#87 = EDGE_LOOP ( 'NONE', ( #54 ) ) ;
#88 = EDGE_LOOP ( 'NONE', ( #171 ) ) ;
#89 = APPLICATION_CONTEXT ( 'automotive_design' ) ;
#90 = DIRECTION ( 'NONE',  ( 0.000000000000000000, 1.000000000000000000, 0.000000000000000000 ) ) ;
#91 = DIRECTION ( 'NONE',  ( 0.000000000000000000, -0.000000000000000000, 1.000000000000000000 ) ) ;
#92 = EDGE_CURVE ( 'NONE', #184, #184, #199, .T. ) ;
#93 = DIRECTION ( 'NONE',  ( -0.000000000000000000, -1.000000000000000000, -0.000000000000000000 ) ) ;
#94 = MECHANICAL_DESIGN_GEOMETRIC_PRESENTATION_REPRESENTATION (  '', ( #201 ), #137 ) ;
#95 = CYLINDRICAL_SURFACE ( 'NONE', #133, 1.749999999999999778 ) ;
#96 = FACE_OUTER_BOUND ( 'NONE', #88, .T. ) ;
#97 = DIRECTION ( 'NONE',  ( 0.000000000000000000, 1.000000000000000000, 0.000000000000000000 ) ) ;
#98 = CIRCLE ( 'NONE', #41, 19.99999999999999645 ) ;
#99 = PRESENTATION_STYLE_ASSIGNMENT (( #65 ) ) ;
#100 = PRODUCT ( 'Part14_T310', 'Part14_T310', '', ( #189 ) ) ;
#101 = VERTEX_POINT ( 'NONE', #64 ) ;
#102 = FACE_OUTER_BOUND ( 'NONE', #105, .T. ) ;
#103 = AXIS2_PLACEMENT_3D ( 'NONE', #175, #28, #91 ) ;
#104 = ORIENTED_EDGE ( 'NONE', *, *, #92, .T. ) ;
#105 = EDGE_LOOP ( 'NONE', ( #163 ) ) ;
#106 = ORIENTED_EDGE ( 'NONE', *, *, #185, .F. ) ;
#107 = FACE_BOUND ( 'NONE', #121, .T. ) ;
#108 = PRESENTATION_LAYER_ASSIGNMENT (  '', '', ( #201 ) ) ;
#109 = PLANE ( 'NONE',  #48 ) ;
#110 = CARTESIAN_POINT ( 'NONE',  ( 0.000000000000000000, 1.500000000000000000, 0.000000000000000000 ) ) ;
#111 = EDGE_LOOP ( 'NONE', ( #124 ) ) ;
#112 = DIRECTION ( 'NONE',  ( 0.000000000000000000, 0.000000000000000000, 1.000000000000000000 ) ) ;
#113 = DIRECTION ( 'NONE',  ( 0.000000000000000000, 1.000000000000000000, 0.000000000000000000 ) ) ;
#114 = CARTESIAN_POINT ( 'NONE',  ( -7.249999999999883649, 1.500000000000000000, -12.55736835487442704 ) ) ;
#115 = AXIS2_PLACEMENT_3D ( 'NONE', #66, #80, #203 ) ;
#116 = FACE_OUTER_BOUND ( 'NONE', #192, .T. ) ;
#117 = CARTESIAN_POINT ( 'NONE',  ( 0.000000000000000000, 1.500000000000000000, 19.99999999999999645 ) ) ;
#118 = AXIS2_PLACEMENT_3D ( 'NONE', #77, #113, #36 ) ;
#119 = ADVANCED_FACE ( 'NONE', ( #31, #49, #160, #176, #1 ), #12, .T. ) ;
#120 = SHAPE_DEFINITION_REPRESENTATION ( #23, #79 ) ;
#121 = EDGE_LOOP ( 'NONE', ( #57 ) ) ;
#122 = EDGE_LOOP ( 'NONE', ( #153 ) ) ;
#123 = EDGE_LOOP ( 'NONE', ( #42 ) ) ;
#124 = ORIENTED_EDGE ( 'NONE', *, *, #221, .F. ) ;
#125 = DIRECTION ( 'NONE',  ( 0.000000000000000000, 0.000000000000000000, -1.000000000000000000 ) ) ;
#126 = DIRECTION ( 'NONE',  ( 0.000000000000000000, 1.000000000000000000, 0.000000000000000000 ) ) ;
#127 = EDGE_LOOP ( 'NONE', ( #25 ) ) ;
#128 = AXIS2_PLACEMENT_3D ( 'NONE', #38, #97, #150 ) ;
#129 = FACE_OUTER_BOUND ( 'NONE', #123, .T. ) ;
#130 = VERTEX_POINT ( 'NONE', #131 ) ;
#131 = CARTESIAN_POINT ( 'NONE',  ( -7.249999999999883649, -1.500000000000000000, -10.80736835487442882 ) ) ;
#132 = EDGE_CURVE ( 'NONE', #207, #207, #179, .T. ) ;
#133 = AXIS2_PLACEMENT_3D ( 'NONE', #60, #61, #11 ) ;
#134 = FILL_AREA_STYLE_COLOUR ( '', #71 ) ;
#135 = APPLICATION_PROTOCOL_DEFINITION ( 'draft international standard', 'automotive_design', 1998, #215 ) ;
#136 = PRODUCT_DEFINITION ( 'General', '', #157, #13 ) ;
#137 =( GEOMETRIC_REPRESENTATION_CONTEXT ( 3 ) GLOBAL_UNCERTAINTY_ASSIGNED_CONTEXT ( ( #63 ) ) GLOBAL_UNIT_ASSIGNED_CONTEXT ( ( #3, #19, #151 ) ) REPRESENTATION_CONTEXT ( 'NONE', 'WORKASPACE' ) );
#138 = ORIENTED_EDGE ( 'NONE', *, *, #76, .F. ) ;
#139 = EDGE_CURVE ( 'NONE', #5, #5, #39, .T. ) ;
#140 = FACE_OUTER_BOUND ( 'NONE', #87, .T. ) ;
#141 = CYLINDRICAL_SURFACE ( 'NONE', #217, 10.00000000000000000 ) ;
#142 = CIRCLE ( 'NONE', #118, 19.99999999999999645 ) ;
#143 = DIRECTION ( 'NONE',  ( 0.000000000000000000, 1.000000000000000000, 0.000000000000000000 ) ) ;
#144 = ADVANCED_FACE ( 'NONE', ( #219, #32 ), #95, .F. ) ;
#145 = DIRECTION ( 'NONE',  ( 0.000000000000000000, -0.000000000000000000, 1.000000000000000000 ) ) ;
#146 = DIRECTION ( 'NONE',  ( 0.000000000000000000, 0.000000000000000000, 1.000000000000000000 ) ) ;
#147 = CARTESIAN_POINT ( 'NONE',  ( -7.250000000000060396, -1.500000000000000000, 14.30736835487432224 ) ) ;
#148 = PRODUCT_RELATED_PRODUCT_CATEGORY ( 'part', '', ( #100 ) ) ;
#149 = CYLINDRICAL_SURFACE ( 'NONE', #161, 1.749999999999999778 ) ;
#150 = DIRECTION ( 'NONE',  ( 0.000000000000000000, 0.000000000000000000, 1.000000000000000000 ) ) ;
#151 =( NAMED_UNIT ( * ) SI_UNIT ( $, .STERADIAN. ) SOLID_ANGLE_UNIT ( ) );
#152 = VERTEX_POINT ( 'NONE', #147 ) ;
#153 = ORIENTED_EDGE ( 'NONE', *, *, #29, .F. ) ;
#154 = EDGE_LOOP ( 'NONE', ( #40 ) ) ;
#155 = DIRECTION ( 'NONE',  ( 1.000000000000000000, 0.000000000000000000, 0.000000000000000000 ) ) ;
#156 = EDGE_LOOP ( 'NONE', ( #190 ) ) ;
#157 = PRODUCT_DEFINITION_FORMATION_WITH_SPECIFIED_SOURCE ( 'Symmetric', '', #100, .NOT_KNOWN. ) ;
#158 = EDGE_LOOP ( 'NONE', ( #106 ) ) ;
#159 = FACE_OUTER_BOUND ( 'NONE', #174, .T. ) ;
#160 = FACE_OUTER_BOUND ( 'NONE', #212, .T. ) ;
#161 = AXIS2_PLACEMENT_3D ( 'NONE', #114, #50, #169 ) ;
#162 = CARTESIAN_POINT ( 'NONE',  ( -7.249999999999883649, -1.500000000000000000, -12.55736835487442704 ) ) ;
#163 = ORIENTED_EDGE ( 'NONE', *, *, #7, .F. ) ;
#164 = FILL_AREA_STYLE ('',( #134 ) ) ;
#165 = CIRCLE ( 'NONE', #16, 1.749999999999998224 ) ;
#166 = SURFACE_SIDE_STYLE ('',( #187 ) ) ;
#167 = FACE_OUTER_BOUND ( 'NONE', #214, .T. ) ;
#168 = AXIS2_PLACEMENT_3D ( 'NONE', #17, #84, #155 ) ;
#169 = DIRECTION ( 'NONE',  ( 0.000000000000000000, 0.000000000000000000, -1.000000000000000000 ) ) ;
#170 = EDGE_LOOP ( 'NONE', ( #104 ) ) ;
#171 = ORIENTED_EDGE ( 'NONE', *, *, #132, .F. ) ;
#172 = AXIS2_PLACEMENT_3D ( 'NONE', #47, #180, #112 ) ;
#173 = EDGE_LOOP ( 'NONE', ( #43 ) ) ;
#174 = EDGE_LOOP ( 'NONE', ( #138 ) ) ;
#175 = CARTESIAN_POINT ( 'NONE',  ( 0.000000000000000000, 1.500000000000000000, 0.000000000000000000 ) ) ;
#176 = FACE_BOUND ( 'NONE', #122, .T. ) ;
#177 = CARTESIAN_POINT ( 'NONE',  ( -7.249999999999883649, 1.500000000000000000, -12.55736835487442704 ) ) ;
#178 = CYLINDRICAL_SURFACE ( 'NONE', #44, 1.749999999999998224 ) ;
#179 = CIRCLE ( 'NONE', #172, 10.00000000000000000 ) ;
#180 = DIRECTION ( 'NONE',  ( 0.000000000000000000, 1.000000000000000000, 0.000000000000000000 ) ) ;
#181 = UNCERTAINTY_MEASURE_WITH_UNIT (LENGTH_MEASURE( 1.000000000000000082E-05 ), #78, 'distance_accuracy_value', 'NONE');
#182 = CARTESIAN_POINT ( 'NONE',  ( 14.50000000000000000, 1.500000000000000000, 1.749999999999998224 ) ) ;
#183 = ADVANCED_FACE ( 'NONE', ( #129, #96 ), #141, .F. ) ;
#184 = VERTEX_POINT ( 'NONE', #20 ) ;
#185 = EDGE_CURVE ( 'NONE', #152, #152, #210, .T. ) ;
#186 = CARTESIAN_POINT ( 'NONE',  ( 0.000000000000000000, -1.500000000000000000, 19.99999999999999645 ) ) ;
#187 = SURFACE_STYLE_FILL_AREA ( #164 ) ;
#188 = ADVANCED_FACE ( 'NONE', ( #167, #116 ), #204, .T. ) ;
#189 = PRODUCT_CONTEXT ( 'NONE', #89, 'mechanical' ) ;
#190 = ORIENTED_EDGE ( 'NONE', *, *, #76, .T. ) ;
#191 = CIRCLE ( 'NONE', #128, 1.749999999999999778 ) ;
#192 = EDGE_LOOP ( 'NONE', ( #83 ) ) ;
#193 = ORIENTED_EDGE ( 'NONE', *, *, #10, .T. ) ;
#194 = CLOSED_SHELL ( 'NONE', ( #119, #73, #188, #183, #18, #144, #202 ) ) ;
#195 = FACE_BOUND ( 'NONE', #156, .T. ) ;
#196 = MANIFOLD_SOLID_BREP ( 'Boss-Extrude1', #194 ) ;
#197 = CARTESIAN_POINT ( 'NONE',  ( 0.000000000000000000, -1.500000000000000000, 0.000000000000000000 ) ) ;
#198 = EDGE_LOOP ( 'NONE', ( #55 ) ) ;
#199 = CIRCLE ( 'NONE', #86, 1.749999999999999778 ) ;
#200 = FACE_OUTER_BOUND ( 'NONE', #111, .T. ) ;
#201 = STYLED_ITEM ( 'NONE', ( #99 ), #196 ) ;
#202 = ADVANCED_FACE ( 'NONE', ( #51, #102 ), #149, .F. ) ;
#203 = DIRECTION ( 'NONE',  ( 0.000000000000000000, 0.000000000000000000, -1.000000000000000000 ) ) ;
#204 = CYLINDRICAL_SURFACE ( 'NONE', #115, 19.99999999999999645 ) ;
#205 = VERTEX_POINT ( 'NONE', #182 ) ;
#206 =( GEOMETRIC_REPRESENTATION_CONTEXT ( 3 ) GLOBAL_UNCERTAINTY_ASSIGNED_CONTEXT ( ( #181 ) ) GLOBAL_UNIT_ASSIGNED_CONTEXT ( ( #78, #67, #21 ) ) REPRESENTATION_CONTEXT ( 'NONE', 'WORKASPACE' ) );
#207 = VERTEX_POINT ( 'NONE', #208 ) ;
#208 = CARTESIAN_POINT ( 'NONE',  ( 0.000000000000000000, -1.500000000000000000, 10.00000000000000000 ) ) ;
#209 = CIRCLE ( 'NONE', #81, 1.749999999999999778 ) ;
#210 = CIRCLE ( 'NONE', #8, 1.749999999999999778 ) ;
#211 = EDGE_CURVE ( 'NONE', #2, #2, #191, .T. ) ;
#212 = EDGE_LOOP ( 'NONE', ( #193 ) ) ;
#213 = AXIS2_PLACEMENT_3D ( 'NONE', #14, #143, #146 ) ;
#214 = EDGE_LOOP ( 'NONE', ( #26 ) ) ;
#215 = APPLICATION_CONTEXT ( 'automotive_design' ) ;
#216 = DIRECTION ( 'NONE',  ( 0.000000000000000000, 0.000000000000000000, 1.000000000000000000 ) ) ;
#217 = AXIS2_PLACEMENT_3D ( 'NONE', #218, #59, #125 ) ;
#218 = CARTESIAN_POINT ( 'NONE',  ( 0.000000000000000000, 1.500000000000000000, 0.000000000000000000 ) ) ;
#219 = FACE_OUTER_BOUND ( 'NONE', #173, .T. ) ;
#220 = DIRECTION ( 'NONE',  ( 0.000000000000000000, 0.000000000000000000, 1.000000000000000000 ) ) ;
#221 = EDGE_CURVE ( 'NONE', #52, #52, #142, .T. ) ;
ENDSEC;
END-ISO-10303-21;
