ISO-10303-21;
HEADER;
FILE_DESCRIPTION (( 'STEP AP214' ),
    '1' );
FILE_NAME ('Part11_T310.STEP',
    '2025-07-30T15:09:16',
    ( '' ),
    ( '' ),
    'SwSTEP 2.0',
    'SolidWorks 2025',
    '' );
FILE_SCHEMA (( 'AUTOMOTIVE_DESIGN' ));
ENDSEC;

DATA;
#1 = AXIS2_PLACEMENT_3D ( 'NONE', #111, #57, #371 ) ;
#2 = CARTESIAN_POINT ( 'NONE',  ( 7.580341452759828463E-17, 7.299999999999999822, 0.000000000000000000 ) ) ;
#3 = FACE_OUTER_BOUND ( 'NONE', #601, .T. ) ;
#4 = ORIENTED_EDGE ( 'NONE', *, *, #312, .T. ) ;
#5 = VERTEX_POINT ( 'NONE', #559 ) ;
#6 = FACE_BOUND ( 'NONE', #187, .T. ) ;
#7 = EDGE_LOOP ( 'NONE', ( #118 ) ) ;
#8 = COLOUR_RGB ( '',0.7921568627450980005, 0.8196078431372548767, 0.9333333333333333481 ) ;
#9 = ADVANCED_FACE ( 'NONE', ( #513, #333 ), #288, .F. ) ;
#10 = CARTESIAN_POINT ( 'NONE',  ( -9.200000000000059686, 12.00000000000000000, -12.55736835487432224 ) ) ;
#11 = DIRECTION ( 'NONE',  ( 1.020538999289460338E-17, 1.000000000000000000, -0.000000000000000000 ) ) ;
#12 = EDGE_LOOP ( 'NONE', ( #408 ) ) ;
#13 = VERTEX_POINT ( 'NONE', #613 ) ;
#14 = CIRCLE ( 'NONE', #172, 19.80000000000000071 ) ;
#15 = ADVANCED_FACE ( 'NONE', ( #232, #132 ), #249, .T. ) ;
#16 = FACE_OUTER_BOUND ( 'NONE', #637, .T. ) ;
#17 = PRODUCT_DEFINITION_CONTEXT ( 'detailed design', #22, 'design' ) ;
#18 = CARTESIAN_POINT ( 'NONE',  ( 7.788022040506673095E-17, 7.500000000000000000, 6.750000000000000000 ) ) ;
#19 = FACE_OUTER_BOUND ( 'NONE', #223, .T. ) ;
#20 = ADVANCED_FACE ( 'NONE', ( #25, #457 ), #585, .T. ) ;
#21 = CARTESIAN_POINT ( 'NONE',  ( 6.750000000000000000, 7.500000000000000000, -2.356749903719115015E-14 ) ) ;
#22 = APPLICATION_CONTEXT ( 'automotive_design' ) ;
#23 = AXIS2_PLACEMENT_3D ( 'NONE', #456, #680, #185 ) ;
#24 =( NAMED_UNIT ( * ) PLANE_ANGLE_UNIT ( ) SI_UNIT ( $, .RADIAN. ) );
#25 = FACE_OUTER_BOUND ( 'NONE', #410, .T. ) ;
#26 = DIRECTION ( 'NONE',  ( 1.000000000000000000, 0.000000000000000000, 0.000000000000000000 ) ) ;
#27 = ORIENTED_EDGE ( 'NONE', *, *, #446, .F. ) ;
#28 = EDGE_CURVE ( 'NONE', #109, #109, #59, .T. ) ;
#29 = ORIENTED_EDGE ( 'NONE', *, *, #290, .F. ) ;
#30 = FACE_BOUND ( 'NONE', #439, .T. ) ;
#31 = DIRECTION ( 'NONE',  ( 1.020538999289460338E-17, 1.000000000000000000, -0.000000000000000000 ) ) ;
#32 = EDGE_LOOP ( 'NONE', ( #547 ) ) ;
#33 = FACE_OUTER_BOUND ( 'NONE', #403, .T. ) ;
#34 = CIRCLE ( 'NONE', #427, 10.00000000000000000 ) ;
#35 = FACE_OUTER_BOUND ( 'NONE', #228, .T. ) ;
#36 = FACE_OUTER_BOUND ( 'NONE', #623, .T. ) ;
#37 = EDGE_CURVE ( 'NONE', #157, #157, #644, .T. ) ;
#38 = CARTESIAN_POINT ( 'NONE',  ( -6.750000000000000888, 12.00000000000000000, 7.070249711157344729E-14 ) ) ;
#39 = AXIS2_PLACEMENT_3D ( 'NONE', #162, #381, #546 ) ;
#40 = ORIENTED_EDGE ( 'NONE', *, *, #698, .F. ) ;
#41 = CYLINDRICAL_SURFACE ( 'NONE', #548, 1.000000000000000000 ) ;
#42 = CARTESIAN_POINT ( 'NONE',  ( 1.224646799147352468E-16, 12.00000000000000000, 0.000000000000000000 ) ) ;
#43 = DIRECTION ( 'NONE',  ( -1.038402938734223624E-17, -1.000000000000000000, 0.000000000000000000 ) ) ;
#44 = DIRECTION ( 'NONE',  ( 1.000000000000000000, -1.548860246407863521E-17, 0.000000000000000000 ) ) ;
#45 = CIRCLE ( 'NONE', #67, 20.00000000000000000 ) ;
#46 = CARTESIAN_POINT ( 'NONE',  ( -9.000000000000060396, 11.79999999999999893, -12.55736835487432224 ) ) ;
#47 = FACE_OUTER_BOUND ( 'NONE', #605, .T. ) ;
#48 = AXIS2_PLACEMENT_3D ( 'NONE', #38, #480, #202 ) ;
#49 = VERTEX_POINT ( 'NONE', #484 ) ;
#50 = CARTESIAN_POINT ( 'NONE',  ( 2.076805877468442856E-18, 0.1999999999999996503, 0.000000000000000000 ) ) ;
#51 = ORIENTED_EDGE ( 'NONE', *, *, #101, .F. ) ;
#52 = CARTESIAN_POINT ( 'NONE',  ( -5.499999999999883649, 0.2000000000000005107, 12.55736835487442704 ) ) ;
#53 = DIRECTION ( 'NONE',  ( 1.020538999289460338E-17, 1.000000000000000000, -0.000000000000000000 ) ) ;
#54 = EDGE_LOOP ( 'NONE', ( #112 ) ) ;
#55 = AXIS2_PLACEMENT_3D ( 'NONE', #328, #268, #332 ) ;
#56 = DIRECTION ( 'NONE',  ( 1.020538999289460338E-17, 1.000000000000000000, -0.000000000000000000 ) ) ;
#57 = DIRECTION ( 'NONE',  ( -1.020538999289460338E-17, -1.000000000000000000, 0.000000000000000000 ) ) ;
#58 = EDGE_LOOP ( 'NONE', ( #631 ) ) ;
#59 = CIRCLE ( 'NONE', #554, 1.000000000000000000 ) ;
#60 = APPLICATION_PROTOCOL_DEFINITION ( 'draft international standard', 'automotive_design', 1998, #22 ) ;
#61 = FACE_OUTER_BOUND ( 'NONE', #82, .T. ) ;
#62 = ORIENTED_EDGE ( 'NONE', *, *, #315, .F. ) ;
#63 = EDGE_CURVE ( 'NONE', #599, #599, #693, .T. ) ;
#64 = CARTESIAN_POINT ( 'NONE',  ( -4.200000000000000178, 12.00000000000000000, 0.000000000000000000 ) ) ;
#65 = CARTESIAN_POINT ( 'NONE',  ( -7.249999999999883649, 11.79999999999999893, 12.55736835487442704 ) ) ;
#66 = EDGE_LOOP ( 'NONE', ( #51 ) ) ;
#67 = AXIS2_PLACEMENT_3D ( 'NONE', #519, #696, #143 ) ;
#68 = EDGE_CURVE ( 'NONE', #270, #270, #139, .T. ) ;
#69 = CARTESIAN_POINT ( 'NONE',  ( 20.00000000000000000, 0.2000000000000003164, 0.000000000000000000 ) ) ;
#70 = DIRECTION ( 'NONE',  ( 1.000000000000000000, 0.000000000000000000, 0.000000000000000000 ) ) ;
#71 = DIRECTION ( 'NONE',  ( -1.000000000000000000, 0.000000000000000000, 0.000000000000000000 ) ) ;
#72 =( NAMED_UNIT ( * ) SI_UNIT ( $, .STERADIAN. ) SOLID_ANGLE_UNIT ( ) );
#73 = AXIS2_PLACEMENT_3D ( 'NONE', #581, #352, #306 ) ;
#74 = SURFACE_STYLE_FILL_AREA ( #283 ) ;
#75 = UNCERTAINTY_MEASURE_WITH_UNIT (LENGTH_MEASURE( 1.000000000000000082E-05 ), #117, 'distance_accuracy_value', 'NONE');
#76 = CARTESIAN_POINT ( 'NONE',  ( 14.50000000000000000, 11.79999999999999893, 0.000000000000000000 ) ) ;
#77 = DIRECTION ( 'NONE',  ( -1.000000000000000000, 0.000000000000000000, 0.000000000000000000 ) ) ;
#78 = DIRECTION ( 'NONE',  ( -1.038402938734223624E-17, -1.000000000000000000, -0.000000000000000000 ) ) ;
#79 = ORIENTED_EDGE ( 'NONE', *, *, #122, .F. ) ;
#80 = MECHANICAL_DESIGN_GEOMETRIC_PRESENTATION_REPRESENTATION (  '', ( #419 ), #192 ) ;
#81 = FACE_OUTER_BOUND ( 'NONE', #322, .T. ) ;
#82 = EDGE_LOOP ( 'NONE', ( #632 ) ) ;
#83 = TOROIDAL_SURFACE ( 'NONE', #387, 1.949999999999999067, 0.2000000000000000111 ) ;
#84 = EDGE_CURVE ( 'NONE', #603, #603, #296, .T. ) ;
#85 = ORIENTED_EDGE ( 'NONE', *, *, #300, .F. ) ;
#86 = DIRECTION ( 'NONE',  ( 1.020538999289460338E-17, 1.000000000000000000, -0.000000000000000000 ) ) ;
#87 = CIRCLE ( 'NONE', #73, 1.749999999999998890 ) ;
#88 = CARTESIAN_POINT ( 'NONE',  ( -7.250000000000060396, -2.710505431213761085E-17, -12.55736835487432224 ) ) ;
#89 = FACE_OUTER_BOUND ( 'NONE', #272, .T. ) ;
#90 = DIRECTION ( 'NONE',  ( 1.020538999289460338E-17, 1.000000000000000000, -0.000000000000000000 ) ) ;
#91 = AXIS2_PLACEMENT_3D ( 'NONE', #231, #246, #240 ) ;
#92 = DIRECTION ( 'NONE',  ( 1.000000000000000000, -1.020538999289460646E-17, 0.000000000000000000 ) ) ;
#93 = ORIENTED_EDGE ( 'NONE', *, *, #366, .T. ) ;
#94 = ADVANCED_FACE ( 'NONE', ( #252, #365 ), #540, .F. ) ;
#95 = DIRECTION ( 'NONE',  ( -1.000000000000000000, 1.020538999289460338E-17, 0.000000000000000000 ) ) ;
#96 = DIRECTION ( 'NONE',  ( 1.000000000000000000, -1.548860246407863521E-17, 0.000000000000000000 ) ) ;
#97 = CARTESIAN_POINT ( 'NONE',  ( 5.306802796305190616E-17, 5.199999999999997513, 0.000000000000000000 ) ) ;
#98 = VERTEX_POINT ( 'NONE', #314 ) ;
#99 = CYLINDRICAL_SURFACE ( 'NONE', #682, 20.00000000000000000 ) ;
#100 = CIRCLE ( 'NONE', #641, 9.799999999999998934 ) ;
#101 = EDGE_CURVE ( 'NONE', #656, #656, #220, .T. ) ;
#102 = VERTEX_POINT ( 'NONE', #266 ) ;
#103 = CARTESIAN_POINT ( 'NONE',  ( 14.50000000000000000, 0.2000000000000005107, 0.000000000000000000 ) ) ;
#104 = ORIENTED_EDGE ( 'NONE', *, *, #619, .T. ) ;
#105 = AXIS2_PLACEMENT_3D ( 'NONE', #142, #257, #697 ) ;
#106 = CARTESIAN_POINT ( 'NONE',  ( -5.750000000000000888, 12.00000000000000000, 7.070249711157344729E-14 ) ) ;
#107 = DIRECTION ( 'NONE',  ( 1.000000000000000000, -1.084202172485504434E-17, 0.000000000000000000 ) ) ;
#108 = EDGE_LOOP ( 'NONE', ( #709 ) ) ;
#109 = VERTEX_POINT ( 'NONE', #544 ) ;
#110 = EDGE_CURVE ( 'NONE', #373, #373, #87, .T. ) ;
#111 = CARTESIAN_POINT ( 'NONE',  ( 1.204236019161563128E-16, 11.79999999999999893, 0.000000000000000000 ) ) ;
#112 = ORIENTED_EDGE ( 'NONE', *, *, #281, .F. ) ;
#113 = AXIS2_PLACEMENT_3D ( 'NONE', #479, #56, #377 ) ;
#114 = VERTEX_POINT ( 'NONE', #327 ) ;
#115 = DIRECTION ( 'NONE',  ( 1.000000000000000000, -1.020538999289460338E-17, 0.000000000000000000 ) ) ;
#116 = ORIENTED_EDGE ( 'NONE', *, *, #475, .F. ) ;
#117 =( LENGTH_UNIT ( ) NAMED_UNIT ( * ) SI_UNIT ( .MILLI., .METRE. ) );
#118 = ORIENTED_EDGE ( 'NONE', *, *, #619, .F. ) ;
#119 = CARTESIAN_POINT ( 'NONE',  ( 7.750000000000000000, 12.00000000000000000, -2.356749903719115015E-14 ) ) ;
#120 = DIRECTION ( 'NONE',  ( 1.020538999289460338E-17, 1.000000000000000000, -0.000000000000000000 ) ) ;
#121 = DIRECTION ( 'NONE',  ( -1.038402938734223624E-17, -1.000000000000000000, 0.000000000000000000 ) ) ;
#122 = EDGE_CURVE ( 'NONE', #710, #710, #390, .T. ) ;
#123 = AXIS2_PLACEMENT_3D ( 'NONE', #275, #222, #214 ) ;
#124 = DIRECTION ( 'NONE',  ( -1.000000000000000000, 0.000000000000000000, 0.000000000000000000 ) ) ;
#125 = ORIENTED_EDGE ( 'NONE', *, *, #208, .F. ) ;
#126 = VERTEX_POINT ( 'NONE', #64 ) ;
#127 = CIRCLE ( 'NONE', #1, 17.50000000000000000 ) ;
#128 = ORIENTED_EDGE ( 'NONE', *, *, #281, .T. ) ;
#129 = ORIENTED_EDGE ( 'NONE', *, *, #592, .T. ) ;
#130 = VERTEX_POINT ( 'NONE', #620 ) ;
#131 = FACE_OUTER_BOUND ( 'NONE', #293, .T. ) ;
#132 = FACE_OUTER_BOUND ( 'NONE', #639, .T. ) ;
#133 = EDGE_LOOP ( 'NONE', ( #386 ) ) ;
#134 = TOROIDAL_SURFACE ( 'NONE', #663, 17.69999999999999929, 0.2000000000000000111 ) ;
#135 = FACE_BOUND ( 'NONE', #171, .T. ) ;
#136 = EDGE_CURVE ( 'NONE', #49, #49, #354, .T. ) ;
#137 = DIRECTION ( 'NONE',  ( 1.000000000000000000, -1.038402938734223624E-17, 0.000000000000000000 ) ) ;
#138 = EDGE_LOOP ( 'NONE', ( #491 ) ) ;
#139 = CIRCLE ( 'NONE', #184, 1.749999999999999778 ) ;
#140 = PLANE ( 'NONE',  #466 ) ;
#141 = AXIS2_PLACEMENT_3D ( 'NONE', #324, #711, #212 ) ;
#142 = CARTESIAN_POINT ( 'NONE',  ( 7.995702628253516495E-17, 7.699999999999999289, 0.000000000000000000 ) ) ;
#143 = DIRECTION ( 'NONE',  ( -1.000000000000000000, 0.000000000000000000, 0.000000000000000000 ) ) ;
#144 = CARTESIAN_POINT ( 'NONE',  ( -4.705711785397723170E-14, 7.500000000000000000, -6.750000000000000000 ) ) ;
#145 = ADVANCED_FACE ( 'NONE', ( #520, #584 ), #636, .T. ) ;
#146 = EDGE_LOOP ( 'NONE', ( #62 ) ) ;
#147 = CARTESIAN_POINT ( 'NONE',  ( -7.250000000000060396, 12.00000000000000000, -12.55736835487432224 ) ) ;
#148 = FACE_BOUND ( 'NONE', #346, .T. ) ;
#149 = CARTESIAN_POINT ( 'NONE',  ( 1.246083526481068040E-16, 12.00000000000000000, 6.750000000000000000 ) ) ;
#150 = DIRECTION ( 'NONE',  ( 1.000000000000000000, 0.000000000000000000, 0.000000000000000000 ) ) ;
#151 = PRODUCT_DEFINITION_FORMATION_WITH_SPECIFIED_SOURCE ( 'Symmetric', '', #714, .NOT_KNOWN. ) ;
#152 = FACE_OUTER_BOUND ( 'NONE', #717, .T. ) ;
#153 = DIRECTION ( 'NONE',  ( -1.000000000000000000, 0.000000000000000000, 0.000000000000000000 ) ) ;
#154 = DIRECTION ( 'NONE',  ( -1.020538999289460338E-17, -1.000000000000000000, 0.000000000000000000 ) ) ;
#155 = CIRCLE ( 'NONE', #113, 1.749999999999998002 ) ;
#156 = EDGE_LOOP ( 'NONE', ( #196 ) ) ;
#157 = VERTEX_POINT ( 'NONE', #481 ) ;
#158 = FACE_OUTER_BOUND ( 'NONE', #133, .T. ) ;
#159 = EDGE_LOOP ( 'NONE', ( #649 ) ) ;
#160 = CIRCLE ( 'NONE', #48, 1.000000000000000000 ) ;
#161 = CARTESIAN_POINT ( 'NONE',  ( 4.000000000000000000, 7.699999999999999289, 0.000000000000000000 ) ) ;
#162 = CARTESIAN_POINT ( 'NONE',  ( 7.788022040506673095E-17, 7.500000000000000000, 0.000000000000000000 ) ) ;
#163 = ORIENTED_EDGE ( 'NONE', *, *, #635, .F. ) ;
#164 = EDGE_CURVE ( 'NONE', #263, #263, #160, .T. ) ;
#165 = DIRECTION ( 'NONE',  ( 1.000000000000000000, -1.020538999289460338E-17, 0.000000000000000000 ) ) ;
#166 = DIRECTION ( 'NONE',  ( 1.020538999289460338E-17, 1.000000000000000000, -0.000000000000000000 ) ) ;
#167 = CIRCLE ( 'NONE', #675, 17.30000000000000426 ) ;
#168 = EDGE_LOOP ( 'NONE', ( #673 ) ) ;
#169 = VERTEX_POINT ( 'NONE', #237 ) ;
#170 = CARTESIAN_POINT ( 'NONE',  ( -6.750000000000000888, 12.00000000000000000, 7.070249711157344729E-14 ) ) ;
#171 = EDGE_LOOP ( 'NONE', ( #129 ) ) ;
#172 = AXIS2_PLACEMENT_3D ( 'NONE', #218, #604, #555 ) ;
#173 = DIRECTION ( 'NONE',  ( -1.000000000000000000, 0.000000000000000000, 0.000000000000000000 ) ) ;
#174 = CARTESIAN_POINT ( 'NONE',  ( -4.701038972173418676E-14, 12.00000000000000000, -6.750000000000000000 ) ) ;
#175 = CARTESIAN_POINT ( 'NONE',  ( 1.000000000000000000, 7.500000000000000000, 6.750000000000000000 ) ) ;
#176 = DIRECTION ( 'NONE',  ( -1.038402938734223624E-17, -1.000000000000000000, 0.000000000000000000 ) ) ;
#177 = EDGE_LOOP ( 'NONE', ( #265 ) ) ;
#178 = AXIS2_PLACEMENT_3D ( 'NONE', #65, #278, #124 ) ;
#179 = DIRECTION ( 'NONE',  ( 1.000000000000000000, 0.000000000000000000, 0.000000000000000000 ) ) ;
#180 = CARTESIAN_POINT ( 'NONE',  ( 1.246083526481067794E-16, 12.00000000000000000, 0.000000000000000000 ) ) ;
#181 = ORIENTED_EDGE ( 'NONE', *, *, #539, .F. ) ;
#182 = ADVANCED_FACE ( 'NONE', ( #534, #357 ), #465, .T. ) ;
#183 = EDGE_LOOP ( 'NONE', ( #486 ) ) ;
#184 = AXIS2_PLACEMENT_3D ( 'NONE', #509, #453, #44 ) ;
#185 = DIRECTION ( 'NONE',  ( -1.000000000000000000, 0.000000000000000000, 0.000000000000000000 ) ) ;
#186 = EDGE_LOOP ( 'NONE', ( #116 ) ) ;
#187 = EDGE_LOOP ( 'NONE', ( #225 ) ) ;
#188 = EDGE_CURVE ( 'NONE', #102, #102, #610, .T. ) ;
#189 = APPLICATION_CONTEXT ( 'automotive_design' ) ;
#190 = FACE_OUTER_BOUND ( 'NONE', #156, .T. ) ;
#191 = ORIENTED_EDGE ( 'NONE', *, *, #84, .F. ) ;
#192 =( GEOMETRIC_REPRESENTATION_CONTEXT ( 3 ) GLOBAL_UNCERTAINTY_ASSIGNED_CONTEXT ( ( #75 ) ) GLOBAL_UNIT_ASSIGNED_CONTEXT ( ( #117, #24, #616 ) ) REPRESENTATION_CONTEXT ( 'NONE', 'WORKASPACE' ) );
#193 = CARTESIAN_POINT ( 'NONE',  ( 14.50000000000000000, -2.439454888092384977E-16, 0.000000000000000000 ) ) ;
#194 = ADVANCED_FACE ( 'NONE', ( #210, #532 ), #421, .T. ) ;
#195 = DIRECTION ( 'NONE',  ( -1.000000000000000000, 1.020538999289460338E-17, 0.000000000000000000 ) ) ;
#196 = ORIENTED_EDGE ( 'NONE', *, *, #496, .T. ) ;
#197 = DIRECTION ( 'NONE',  ( 1.000000000000000000, 0.000000000000000000, 0.000000000000000000 ) ) ;
#198 = CIRCLE ( 'NONE', #342, 1.000000000000000000 ) ;
#199 = DIRECTION ( 'NONE',  ( 1.020538999289460338E-17, 1.000000000000000000, -0.000000000000000000 ) ) ;
#200 = ORIENTED_EDGE ( 'NONE', *, *, #645, .T. ) ;
#201 = DIRECTION ( 'NONE',  ( -1.000000000000000000, 0.000000000000000000, 0.000000000000000000 ) ) ;
#202 = DIRECTION ( 'NONE',  ( 1.000000000000000000, 0.000000000000000000, 0.000000000000000000 ) ) ;
#203 = AXIS2_PLACEMENT_3D ( 'NONE', #608, #652, #115 ) ;
#204 = DIRECTION ( 'NONE',  ( 1.000000000000000000, -1.038402938734223470E-17, 0.000000000000000000 ) ) ;
#205 = AXIS2_PLACEMENT_3D ( 'NONE', #467, #526, #243 ) ;
#206 = PRODUCT_DEFINITION_SHAPE ( 'NONE', 'NONE',  #702 ) ;
#207 = CARTESIAN_POINT ( 'NONE',  ( -7.249999999999883649, 11.79999999999999893, 12.55736835487442704 ) ) ;
#208 = EDGE_CURVE ( 'NONE', #703, #703, #493, .T. ) ;
#209 = DIRECTION ( 'NONE',  ( 1.000000000000000000, 0.000000000000000000, 0.000000000000000000 ) ) ;
#210 = FACE_OUTER_BOUND ( 'NONE', #483, .T. ) ;
#211 = DIRECTION ( 'NONE',  ( -1.000000000000000000, 1.020538999289460338E-17, 0.000000000000000000 ) ) ;
#212 = DIRECTION ( 'NONE',  ( -1.000000000000000000, 0.000000000000000000, 0.000000000000000000 ) ) ;
#213 = ORIENTED_EDGE ( 'NONE', *, *, #110, .F. ) ;
#214 = DIRECTION ( 'NONE',  ( 1.000000000000000000, -1.020538999289460338E-17, 0.000000000000000000 ) ) ;
#215 = EDGE_CURVE ( 'NONE', #715, #715, #273, .T. ) ;
#216 = ORIENTED_EDGE ( 'NONE', *, *, #458, .T. ) ;
#217 = DIRECTION ( 'NONE',  ( 1.000000000000000000, -1.020538999289460338E-17, 0.000000000000000000 ) ) ;
#218 = CARTESIAN_POINT ( 'NONE',  ( -7.899322037525772054E-33, -1.084202172485504434E-16, 0.000000000000000000 ) ) ;
#219 = ORIENTED_EDGE ( 'NONE', *, *, #698, .T. ) ;
#220 = CIRCLE ( 'NONE', #229, 1.949999999999998623 ) ;
#221 = DIRECTION ( 'NONE',  ( 1.038402938734223624E-17, 1.000000000000000000, -0.000000000000000000 ) ) ;
#222 = DIRECTION ( 'NONE',  ( -1.020538999289460338E-17, -1.000000000000000000, 0.000000000000000000 ) ) ;
#223 = EDGE_LOOP ( 'NONE', ( #163 ) ) ;
#224 = VERTEX_POINT ( 'NONE', #69 ) ;
#225 = ORIENTED_EDGE ( 'NONE', *, *, #101, .T. ) ;
#226 = VERTEX_POINT ( 'NONE', #399 ) ;
#227 = ADVANCED_FACE ( 'NONE', ( #369, #89 ), #508, .T. ) ;
#228 = EDGE_LOOP ( 'NONE', ( #191 ) ) ;
#229 = AXIS2_PLACEMENT_3D ( 'NONE', #88, #474, #92 ) ;
#230 = VERTEX_POINT ( 'NONE', #282 ) ;
#231 = CARTESIAN_POINT ( 'NONE',  ( -7.249999999999883649, 12.00000000000000000, 12.55736835487442704 ) ) ;
#232 = FACE_OUTER_BOUND ( 'NONE', #12, .T. ) ;
#233 = CARTESIAN_POINT ( 'NONE',  ( 9.799999999999998934, 7.500000000000000000, 0.000000000000000000 ) ) ;
#234 = CARTESIAN_POINT ( 'NONE',  ( -7.250000000000060396, 11.79999999999999893, -12.55736835487432224 ) ) ;
#235 = EDGE_LOOP ( 'NONE', ( #248 ) ) ;
#236 = PRESENTATION_LAYER_ASSIGNMENT (  '', '', ( #419 ) ) ;
#237 = CARTESIAN_POINT ( 'NONE',  ( 10.00000000000000000, 7.299999999999999822, 0.000000000000000000 ) ) ;
#238 = EDGE_LOOP ( 'NONE', ( #93 ) ) ;
#239 = ADVANCED_FACE ( 'NONE', ( #589, #35 ), #413, .T. ) ;
#240 = DIRECTION ( 'NONE',  ( 1.000000000000000000, 0.000000000000000000, 0.000000000000000000 ) ) ;
#241 = DIRECTION ( 'NONE',  ( 1.020538999289460338E-17, 1.000000000000000000, -0.000000000000000000 ) ) ;
#242 = ORIENTED_EDGE ( 'NONE', *, *, #215, .F. ) ;
#243 = DIRECTION ( 'NONE',  ( 1.000000000000000000, -1.084202172485504434E-17, 0.000000000000000000 ) ) ;
#244 = DIRECTION ( 'NONE',  ( -1.000000000000000000, 1.020538999289460338E-17, 0.000000000000000000 ) ) ;
#245 = EDGE_LOOP ( 'NONE', ( #216 ) ) ;
#246 = DIRECTION ( 'NONE',  ( -1.038402938734223007E-17, -1.000000000000000000, -0.000000000000000000 ) ) ;
#247 = CARTESIAN_POINT ( 'NONE',  ( 1.204236019161563128E-16, 11.79999999999999893, 0.000000000000000000 ) ) ;
#248 = ORIENTED_EDGE ( 'NONE', *, *, #63, .F. ) ;
#249 = TOROIDAL_SURFACE ( 'NONE', #401, 4.200000000000000178, 0.2000000000000000111 ) ;
#250 = DIRECTION ( 'NONE',  ( 1.000000000000000000, -1.020538999289459876E-17, 0.000000000000000000 ) ) ;
#251 = AXIS2_PLACEMENT_3D ( 'NONE', #42, #199, #694 ) ;
#252 = FACE_OUTER_BOUND ( 'NONE', #406, .T. ) ;
#253 = CARTESIAN_POINT ( 'NONE',  ( -7.249999999999883649, 12.00000000000000000, 12.55736835487442704 ) ) ;
#254 = DIRECTION ( 'NONE',  ( 1.000000000000000000, 0.000000000000000000, 0.000000000000000000 ) ) ;
#255 = TOROIDAL_SURFACE ( 'NONE', #372, 1.949999999999999067, 0.2000000000000000111 ) ;
#256 = CARTESIAN_POINT ( 'NONE',  ( -7.249999999999883649, 0.2000000000000005107, 12.55736835487442704 ) ) ;
#257 = DIRECTION ( 'NONE',  ( -1.038402938734223624E-17, -1.000000000000000000, 0.000000000000000000 ) ) ;
#258 = EDGE_CURVE ( 'NONE', #114, #114, #198, .T. ) ;
#259 = DIRECTION ( 'NONE',  ( -1.020538999289460338E-17, -1.000000000000000000, 0.000000000000000000 ) ) ;
#260 = CIRCLE ( 'NONE', #141, 19.80000000000000071 ) ;
#261 = FACE_OUTER_BOUND ( 'NONE', #146, .T. ) ;
#262 = ORIENTED_EDGE ( 'NONE', *, *, #63, .T. ) ;
#263 = VERTEX_POINT ( 'NONE', #106 ) ;
#264 = DIRECTION ( 'NONE',  ( -1.020538999289460338E-17, -1.000000000000000000, 0.000000000000000000 ) ) ;
#265 = ORIENTED_EDGE ( 'NONE', *, *, #28, .T. ) ;
#266 = CARTESIAN_POINT ( 'NONE',  ( 4.200000000000000178, 7.500000000000000000, 0.000000000000000000 ) ) ;
#267 = ADVANCED_FACE ( 'NONE', ( #438, #152 ), #661, .F. ) ;
#268 = DIRECTION ( 'NONE',  ( 1.020538999289460338E-17, 1.000000000000000000, -0.000000000000000000 ) ) ;
#269 = ORIENTED_EDGE ( 'NONE', *, *, #376, .T. ) ;
#270 = VERTEX_POINT ( 'NONE', #52 ) ;
#271 = FACE_OUTER_BOUND ( 'NONE', #622, .T. ) ;
#272 = EDGE_LOOP ( 'NONE', ( #684 ) ) ;
#273 = CIRCLE ( 'NONE', #705, 1.000000000000000000 ) ;
#274 = VERTEX_POINT ( 'NONE', #615 ) ;
#275 = CARTESIAN_POINT ( 'NONE',  ( 2.076805877468442856E-18, 0.1999999999999996503, 0.000000000000000000 ) ) ;
#276 = ORIENTED_EDGE ( 'NONE', *, *, #110, .T. ) ;
#277 = VERTEX_POINT ( 'NONE', #504 ) ;
#278 = DIRECTION ( 'NONE',  ( 1.020538999289460338E-17, 1.000000000000000000, -0.000000000000000000 ) ) ;
#279 = AXIS2_PLACEMENT_3D ( 'NONE', #344, #340, #70 ) ;
#280 = ORIENTED_EDGE ( 'NONE', *, *, #490, .F. ) ;
#281 = EDGE_CURVE ( 'NONE', #590, #590, #127, .T. ) ;
#282 = CARTESIAN_POINT ( 'NONE',  ( 16.44999999999999929, -2.638459992953829494E-16, 0.000000000000000000 ) ) ;
#283 = FILL_AREA_STYLE ('',( #672 ) ) ;
#284 = CARTESIAN_POINT ( 'NONE',  ( 7.995702628253516495E-17, 7.699999999999999289, 0.000000000000000000 ) ) ;
#285 = AXIS2_PLACEMENT_3D ( 'NONE', #21, #618, #571 ) ;
#286 = AXIS2_PLACEMENT_3D ( 'NONE', #247, #469, #416 ) ;
#287 = SURFACE_SIDE_STYLE ('',( #74 ) ) ;
#288 = CYLINDRICAL_SURFACE ( 'NONE', #597, 1.000000000000000000 ) ;
#289 = DIRECTION ( 'NONE',  ( 0.000000000000000000, 0.000000000000000000, 1.000000000000000000 ) ) ;
#290 = EDGE_CURVE ( 'NONE', #98, #98, #14, .T. ) ;
#291 = DIRECTION ( 'NONE',  ( 1.000000000000000000, -1.038402938734223624E-17, 0.000000000000000000 ) ) ;
#292 = TOROIDAL_SURFACE ( 'NONE', #55, 19.80000000000000071, 0.2000000000000000111 ) ;
#293 = EDGE_LOOP ( 'NONE', ( #444 ) ) ;
#294 = FACE_OUTER_BOUND ( 'NONE', #576, .T. ) ;
#295 = ORIENTED_EDGE ( 'NONE', *, *, #208, .T. ) ;
#296 = CIRCLE ( 'NONE', #471, 1.749999999999999778 ) ;
#297 = ORIENTED_EDGE ( 'NONE', *, *, #122, .T. ) ;
#298 = DIRECTION ( 'NONE',  ( -1.000000000000000000, 1.020538999289460338E-17, 0.000000000000000000 ) ) ;
#299 = DIRECTION ( 'NONE',  ( 1.020538999289460338E-17, 1.000000000000000000, -0.000000000000000000 ) ) ;
#300 = EDGE_CURVE ( 'NONE', #536, #536, #402, .T. ) ;
#301 = ORIENTED_EDGE ( 'NONE', *, *, #645, .F. ) ;
#302 = FACE_OUTER_BOUND ( 'NONE', #558, .T. ) ;
#303 = ORIENTED_EDGE ( 'NONE', *, *, #258, .T. ) ;
#304 = CIRCLE ( 'NONE', #606, 4.200000000000000178 ) ;
#305 = CARTESIAN_POINT ( 'NONE',  ( 2.041077998578919290E-18, 0.2000000000000005107, 0.000000000000000000 ) ) ;
#306 = DIRECTION ( 'NONE',  ( 1.000000000000000000, -1.548860246407864446E-17, 0.000000000000000000 ) ) ;
#307 = FACE_BOUND ( 'NONE', #628, .T. ) ;
#308 = AXIS2_PLACEMENT_3D ( 'NONE', #207, #31, #244 ) ;
#309 = DIRECTION ( 'NONE',  ( 1.020538999289460338E-17, 1.000000000000000000, -0.000000000000000000 ) ) ;
#310 = FACE_OUTER_BOUND ( 'NONE', #361, .T. ) ;
#311 = DIRECTION ( 'NONE',  ( 1.020538999289460338E-17, 1.000000000000000000, -0.000000000000000000 ) ) ;
#312 = EDGE_CURVE ( 'NONE', #450, #450, #598, .T. ) ;
#313 = AXIS2_PLACEMENT_3D ( 'NONE', #253, #476, #201 ) ;
#314 = CARTESIAN_POINT ( 'NONE',  ( 19.80000000000000071, -3.104869391078635956E-16, 0.000000000000000000 ) ) ;
#315 = EDGE_CURVE ( 'NONE', #130, #130, #260, .T. ) ;
#316 = CARTESIAN_POINT ( 'NONE',  ( -5.500000000000061284, 0.2000000000000005107, -12.55736835487432224 ) ) ;
#317 = AXIS2_PLACEMENT_3D ( 'NONE', #690, #309, #195 ) ;
#318 = DIRECTION ( 'NONE',  ( -1.038402938734223624E-17, -1.000000000000000000, 0.000000000000000000 ) ) ;
#319 = ORIENTED_EDGE ( 'NONE', *, *, #654, .T. ) ;
#320 = FACE_OUTER_BOUND ( 'NONE', #566, .T. ) ;
#321 = FACE_OUTER_BOUND ( 'NONE', #431, .T. ) ;
#322 = EDGE_LOOP ( 'NONE', ( #303 ) ) ;
#323 = CARTESIAN_POINT ( 'NONE',  ( -7.250000000000060396, 12.00000000000000000, -12.55736835487432224 ) ) ;
#324 = CARTESIAN_POINT ( 'NONE',  ( 5.102694996447298456E-17, 4.999999999999997335, 0.000000000000000000 ) ) ;
#325 = AXIS2_PLACEMENT_3D ( 'NONE', #50, #264, #107 ) ;
#326 = EDGE_LOOP ( 'NONE', ( #691 ) ) ;
#327 = CARTESIAN_POINT ( 'NONE',  ( 0.9999999999999529265, 7.500000000000000000, -6.750000000000000000 ) ) ;
#328 = CARTESIAN_POINT ( 'NONE',  ( 4.898587196589406912E-17, 4.799999999999998046, 0.000000000000000000 ) ) ;
#329 = ADVANCED_FACE ( 'NONE', ( #47, #374 ), #99, .T. ) ;
#330 = AXIS2_PLACEMENT_3D ( 'NONE', #516, #338, #71 ) ;
#331 = ORIENTED_EDGE ( 'NONE', *, *, #290, .T. ) ;
#332 = DIRECTION ( 'NONE',  ( -1.000000000000000000, 1.020538999289460338E-17, 0.000000000000000000 ) ) ;
#333 = FACE_OUTER_BOUND ( 'NONE', #414, .T. ) ;
#334 = PRODUCT_RELATED_PRODUCT_CATEGORY ( 'part', '', ( #714 ) ) ;
#335 = CARTESIAN_POINT ( 'NONE',  ( -17.30000000000000426, 12.00000000000000000, 0.000000000000000000 ) ) ;
#336 = CYLINDRICAL_SURFACE ( 'NONE', #279, 1.000000000000000000 ) ;
#337 = AXIS2_PLACEMENT_3D ( 'NONE', #193, #533, #250 ) ;
#338 = DIRECTION ( 'NONE',  ( 1.020538999289460338E-17, 1.000000000000000000, -0.000000000000000000 ) ) ;
#339 =( NAMED_UNIT ( * ) PLANE_ANGLE_UNIT ( ) SI_UNIT ( $, .RADIAN. ) );
#340 = DIRECTION ( 'NONE',  ( -1.038402938734223624E-17, -1.000000000000000000, -0.000000000000000000 ) ) ;
#341 = EDGE_LOOP ( 'NONE', ( #518 ) ) ;
#342 = AXIS2_PLACEMENT_3D ( 'NONE', #144, #425, #708 ) ;
#343 = VERTEX_POINT ( 'NONE', #335 ) ;
#344 = CARTESIAN_POINT ( 'NONE',  ( -4.701038972173418676E-14, 12.00000000000000000, -6.750000000000000000 ) ) ;
#345 = CARTESIAN_POINT ( 'NONE',  ( 1.246083526481068040E-16, 12.00000000000000000, 6.750000000000000000 ) ) ;
#346 = EDGE_LOOP ( 'NONE', ( #398 ) ) ;
#347 = CYLINDRICAL_SURFACE ( 'NONE', #91, 1.749999999999999778 ) ;
#348 = DIRECTION ( 'NONE',  ( -1.000000000000000000, 1.020538999289460338E-17, 0.000000000000000000 ) ) ;
#349 = AXIS2_PLACEMENT_3D ( 'NONE', #305, #587, #583 ) ;
#350 = ORIENTED_EDGE ( 'NONE', *, *, #463, .F. ) ;
#351 = FACE_BOUND ( 'NONE', #177, .T. ) ;
#352 = DIRECTION ( 'NONE',  ( -1.020538999289460338E-17, -1.000000000000000000, 0.000000000000000000 ) ) ;
#353 = ADVANCED_FACE ( 'NONE', ( #271, #3 ), #433, .F. ) ;
#354 = CIRCLE ( 'NONE', #621, 17.50000000000000000 ) ;
#355 = EDGE_LOOP ( 'NONE', ( #40 ) ) ;
#356 = CARTESIAN_POINT ( 'NONE',  ( 6.750000000000000000, 12.00000000000000000, -2.356749903719115015E-14 ) ) ;
#357 = FACE_OUTER_BOUND ( 'NONE', #138, .T. ) ;
#358 = EDGE_LOOP ( 'NONE', ( #331 ) ) ;
#359 = FACE_BOUND ( 'NONE', #159, .T. ) ;
#360 = DIRECTION ( 'NONE',  ( -1.020538999289460338E-17, -1.000000000000000000, 0.000000000000000000 ) ) ;
#361 = EDGE_LOOP ( 'NONE', ( #543 ) ) ;
#362 = AXIS2_PLACEMENT_3D ( 'NONE', #447, #176, #568 ) ;
#363 = ADVANCED_FACE ( 'NONE', ( #61, #657 ), #586, .T. ) ;
#364 = DIRECTION ( 'NONE',  ( -1.038402938734223624E-17, -1.000000000000000000, 0.000000000000000000 ) ) ;
#365 = FACE_OUTER_BOUND ( 'NONE', #7, .T. ) ;
#366 = EDGE_CURVE ( 'NONE', #226, #226, #384, .T. ) ;
#367 = CARTESIAN_POINT ( 'NONE',  ( 5.306802796305190616E-17, 5.199999999999997513, 0.000000000000000000 ) ) ;
#368 = AXIS2_PLACEMENT_3D ( 'NONE', #542, #595, #378 ) ;
#369 = FACE_OUTER_BOUND ( 'NONE', #54, .T. ) ;
#370 = CARTESIAN_POINT ( 'NONE',  ( -5.300000000000061995, -4.700556479828208105E-17, -12.55736835487432224 ) ) ;
#371 = DIRECTION ( 'NONE',  ( -1.000000000000000000, 0.000000000000000000, 0.000000000000000000 ) ) ;
#372 = AXIS2_PLACEMENT_3D ( 'NONE', #234, #120, #393 ) ;
#373 = VERTEX_POINT ( 'NONE', #316 ) ;
#374 = FACE_OUTER_BOUND ( 'NONE', #108, .T. ) ;
#375 = EDGE_LOOP ( 'NONE', ( #379 ) ) ;
#376 = EDGE_CURVE ( 'NONE', #664, #664, #569, .T. ) ;
#377 = DIRECTION ( 'NONE',  ( -1.000000000000000000, 0.000000000000000000, 0.000000000000000000 ) ) ;
#378 = DIRECTION ( 'NONE',  ( 1.000000000000000000, 0.000000000000000000, 0.000000000000000000 ) ) ;
#379 = ORIENTED_EDGE ( 'NONE', *, *, #68, .F. ) ;
#380 = DIRECTION ( 'NONE',  ( -1.020538999289460338E-17, -1.000000000000000000, 0.000000000000000000 ) ) ;
#381 = DIRECTION ( 'NONE',  ( -1.038402938734223007E-17, -1.000000000000000000, -0.000000000000000000 ) ) ;
#382 = EDGE_LOOP ( 'NONE', ( #297 ) ) ;
#383 = CARTESIAN_POINT ( 'NONE',  ( -7.250000000000060396, 0.2000000000000005107, -12.55736835487432224 ) ) ;
#384 = CIRCLE ( 'NONE', #689, 10.20000000000000107 ) ;
#385 = FACE_BOUND ( 'NONE', #238, .T. ) ;
#386 = ORIENTED_EDGE ( 'NONE', *, *, #588, .F. ) ;
#387 = AXIS2_PLACEMENT_3D ( 'NONE', #383, #380, #217 ) ;
#388 = ADVANCED_FACE ( 'NONE', ( #600, #6, #485, #430, #385 ), #591, .T. ) ;
#389 = DIRECTION ( 'NONE',  ( -1.038402938734223624E-17, -1.000000000000000000, -0.000000000000000000 ) ) ;
#390 = CIRCLE ( 'NONE', #105, 4.000000000000000000 ) ;
#391 = ORIENTED_EDGE ( 'NONE', *, *, #588, .T. ) ;
#392 = CARTESIAN_POINT ( 'NONE',  ( 0.000000000000000000, 0.000000000000000000, 0.000000000000000000 ) ) ;
#393 = DIRECTION ( 'NONE',  ( -1.000000000000000000, 1.020538999289460338E-17, 0.000000000000000000 ) ) ;
#394 = AXIS2_PLACEMENT_3D ( 'NONE', #256, #259, #165 ) ;
#395 = DIRECTION ( 'NONE',  ( 1.000000000000000000, 0.000000000000000000, 0.000000000000000000 ) ) ;
#396 = APPLICATION_PROTOCOL_DEFINITION ( 'draft international standard', 'automotive_design', 1998, #189 ) ;
#397 = CIRCLE ( 'NONE', #560, 1.949999999999998623 ) ;
#398 = ORIENTED_EDGE ( 'NONE', *, *, #215, .T. ) ;
#399 = CARTESIAN_POINT ( 'NONE',  ( 10.20000000000000107, -2.125151951760753834E-16, 0.000000000000000000 ) ) ;
#400 = ORIENTED_EDGE ( 'NONE', *, *, #164, .T. ) ;
#401 = AXIS2_PLACEMENT_3D ( 'NONE', #284, #670, #291 ) ;
#402 = CIRCLE ( 'NONE', #695, 1.749999999999999778 ) ;
#403 = EDGE_LOOP ( 'NONE', ( #29 ) ) ;
#404 = VERTEX_POINT ( 'NONE', #233 ) ;
#405 = CARTESIAN_POINT ( 'NONE',  ( 1.224646799147352468E-16, 12.00000000000000000, 0.000000000000000000 ) ) ;
#406 = EDGE_LOOP ( 'NONE', ( #686 ) ) ;
#407 = FACE_BOUND ( 'NONE', #245, .T. ) ;
#408 = ORIENTED_EDGE ( 'NONE', *, *, #188, .F. ) ;
#409 = AXIS2_PLACEMENT_3D ( 'NONE', #147, #699, #420 ) ;
#410 = EDGE_LOOP ( 'NONE', ( #301 ) ) ;
#411 = CARTESIAN_POINT ( 'NONE',  ( 7.788022040506673095E-17, 7.500000000000000000, 0.000000000000000000 ) ) ;
#412 = DIRECTION ( 'NONE',  ( -1.038402938734223624E-17, -1.000000000000000000, 0.000000000000000000 ) ) ;
#413 = TOROIDAL_SURFACE ( 'NONE', #575, 1.949999999999998401, 0.2000000000000000111 ) ;
#414 = EDGE_LOOP ( 'NONE', ( #4 ) ) ;
#415 = FACE_BOUND ( 'NONE', #355, .T. ) ;
#416 = DIRECTION ( 'NONE',  ( -1.000000000000000000, 1.020538999289460338E-17, 0.000000000000000000 ) ) ;
#417 = FACE_OUTER_BOUND ( 'NONE', #455, .T. ) ;
#418 = ADVANCED_FACE ( 'NONE', ( #158, #261 ), #292, .T. ) ;
#419 = STYLED_ITEM ( 'NONE', ( #611 ), #470 ) ;
#420 = DIRECTION ( 'NONE',  ( 1.000000000000000000, 0.000000000000000000, 0.000000000000000000 ) ) ;
#421 = CYLINDRICAL_SURFACE ( 'NONE', #251, 17.50000000000000000 ) ;
#422 = CARTESIAN_POINT ( 'NONE',  ( 1.000000000000000222, 12.00000000000000000, 6.750000000000000000 ) ) ;
#423 = CARTESIAN_POINT ( 'NONE',  ( 14.50000000000000000, 0.2000000000000005107, 0.000000000000000000 ) ) ;
#424 = DIRECTION ( 'NONE',  ( 1.020538999289460338E-17, 1.000000000000000000, -0.000000000000000000 ) ) ;
#425 = DIRECTION ( 'NONE',  ( -1.038402938734223624E-17, -1.000000000000000000, 0.000000000000000000 ) ) ;
#426 = EDGE_LOOP ( 'NONE', ( #627 ) ) ;
#427 = AXIS2_PLACEMENT_3D ( 'NONE', #2, #221, #209 ) ;
#428 = FACE_OUTER_BOUND ( 'NONE', #375, .T. ) ;
#429 = TOROIDAL_SURFACE ( 'NONE', #537, 4.200000000000000178, 0.2000000000000000111 ) ;
#430 = FACE_BOUND ( 'NONE', #449, .T. ) ;
#431 = EDGE_LOOP ( 'NONE', ( #712 ) ) ;
#432 = AXIS2_PLACEMENT_3D ( 'NONE', #18, #318, #494 ) ;
#433 = CYLINDRICAL_SURFACE ( 'NONE', #368, 1.749999999999999778 ) ;
#434 = ORIENTED_EDGE ( 'NONE', *, *, #446, .T. ) ;
#435 = ADVANCED_FACE ( 'NONE', ( #321, #81 ), #336, .F. ) ;
#436 = FACE_OUTER_BOUND ( 'NONE', #235, .T. ) ;
#437 = AXIS2_PLACEMENT_3D ( 'NONE', #541, #43, #150 ) ;
#438 = FACE_OUTER_BOUND ( 'NONE', #677, .T. ) ;
#439 = EDGE_LOOP ( 'NONE', ( #572 ) ) ;
#440 = AXIS2_PLACEMENT_3D ( 'NONE', #392, #289, #179 ) ;
#441 = ADVANCED_FACE ( 'NONE', ( #443, #19 ), #255, .T. ) ;
#442 = AXIS2_PLACEMENT_3D ( 'NONE', #170, #389, #669 ) ;
#443 = FACE_OUTER_BOUND ( 'NONE', #567, .T. ) ;
#444 = ORIENTED_EDGE ( 'NONE', *, *, #68, .T. ) ;
#445 =( LENGTH_UNIT ( ) NAMED_UNIT ( * ) SI_UNIT ( .MILLI., .METRE. ) );
#446 = EDGE_CURVE ( 'NONE', #126, #126, #304, .T. ) ;
#447 = CARTESIAN_POINT ( 'NONE',  ( 6.750000000000000000, 12.00000000000000000, -2.356749903719115015E-14 ) ) ;
#448 = AXIS2_PLACEMENT_3D ( 'NONE', #704, #578, #477 ) ;
#449 = EDGE_LOOP ( 'NONE', ( #295 ) ) ;
#450 = VERTEX_POINT ( 'NONE', #175 ) ;
#451 = CYLINDRICAL_SURFACE ( 'NONE', #442, 1.000000000000000000 ) ;
#452 = ADVANCED_FACE ( 'NONE', ( #561, #294 ), #676, .F. ) ;
#453 = DIRECTION ( 'NONE',  ( -1.020538999289460338E-17, -1.000000000000000000, 0.000000000000000000 ) ) ;
#454 = CARTESIAN_POINT ( 'NONE',  ( 10.00000000000000000, 0.1999999999999995393, 0.000000000000000000 ) ) ;
#455 = EDGE_LOOP ( 'NONE', ( #579 ) ) ;
#456 = CARTESIAN_POINT ( 'NONE',  ( 5.102694996447299072E-17, 4.999999999999997335, 0.000000000000000000 ) ) ;
#457 = FACE_OUTER_BOUND ( 'NONE', #472, .T. ) ;
#458 = EDGE_CURVE ( 'NONE', #277, #277, #397, .T. ) ;
#459 = ORIENTED_EDGE ( 'NONE', *, *, #592, .F. ) ;
#460 = FACE_OUTER_BOUND ( 'NONE', #503, .T. ) ;
#461 = ORIENTED_EDGE ( 'NONE', *, *, #84, .T. ) ;
#462 = EDGE_LOOP ( 'NONE', ( #213 ) ) ;
#463 = EDGE_CURVE ( 'NONE', #500, #500, #524, .T. ) ;
#464 = FACE_BOUND ( 'NONE', #521, .T. ) ;
#465 = PLANE ( 'NONE',  #317 ) ;
#466 = AXIS2_PLACEMENT_3D ( 'NONE', #573, #86, #298 ) ;
#467 = CARTESIAN_POINT ( 'NONE',  ( 2.041077998578919290E-18, 0.2000000000000005107, 0.000000000000000000 ) ) ;
#468 = ADVANCED_FACE ( 'NONE', ( #557, #16 ), #451, .F. ) ;
#469 = DIRECTION ( 'NONE',  ( 1.020538999289460338E-17, 1.000000000000000000, -0.000000000000000000 ) ) ;
#470 = MANIFOLD_SOLID_BREP ( 'Cut-Extrude3', #507 ) ;
#471 = AXIS2_PLACEMENT_3D ( 'NONE', #423, #360, #96 ) ;
#472 = EDGE_LOOP ( 'NONE', ( #653 ) ) ;
#473 = FACE_BOUND ( 'NONE', #596, .T. ) ;
#474 = DIRECTION ( 'NONE',  ( 1.020538999289460338E-17, 1.000000000000000000, -0.000000000000000000 ) ) ;
#475 = EDGE_CURVE ( 'NONE', #5, #5, #713, .T. ) ;
#476 = DIRECTION ( 'NONE',  ( -1.020538999289460338E-17, -1.000000000000000000, 0.000000000000000000 ) ) ;
#477 = DIRECTION ( 'NONE',  ( 1.000000000000000000, 0.000000000000000000, 0.000000000000000000 ) ) ;
#478 = CIRCLE ( 'NONE', #23, 17.69999999999999929 ) ;
#479 = CARTESIAN_POINT ( 'NONE',  ( 14.50000000000000000, 11.79999999999999893, 0.000000000000000000 ) ) ;
#480 = DIRECTION ( 'NONE',  ( -1.038402938734223624E-17, -1.000000000000000000, 0.000000000000000000 ) ) ;
#481 = CARTESIAN_POINT ( 'NONE',  ( 7.750000000000000000, 7.500000000000000000, -2.356749903719115015E-14 ) ) ;
#482 = CARTESIAN_POINT ( 'NONE',  ( -7.250000000000060396, 11.79999999999999893, -12.55736835487432224 ) ) ;
#483 = EDGE_LOOP ( 'NONE', ( #128 ) ) ;
#484 = CARTESIAN_POINT ( 'NONE',  ( -17.50000000000000000, 5.199999999999997513, 0.000000000000000000 ) ) ;
#485 = FACE_BOUND ( 'NONE', #168, .T. ) ;
#486 = ORIENTED_EDGE ( 'NONE', *, *, #475, .T. ) ;
#487 = TOROIDAL_SURFACE ( 'NONE', #349, 19.80000000000000071, 0.2000000000000000111 ) ;
#488 = CARTESIAN_POINT ( 'NONE',  ( -5.299999999999882583, -4.700556479828208722E-17, 12.55736835487442704 ) ) ;
#489 = DIRECTION ( 'NONE',  ( 1.000000000000000000, -1.020538999289460030E-17, 0.000000000000000000 ) ) ;
#490 = EDGE_CURVE ( 'NONE', #13, #13, #478, .T. ) ;
#491 = ORIENTED_EDGE ( 'NONE', *, *, #315, .T. ) ;
#492 = CARTESIAN_POINT ( 'NONE',  ( 16.25000000000000000, 0.2000000000000005107, 0.000000000000000000 ) ) ;
#493 = CIRCLE ( 'NONE', #655, 1.950000000000000400 ) ;
#494 = DIRECTION ( 'NONE',  ( 1.000000000000000000, 0.000000000000000000, 0.000000000000000000 ) ) ;
#495 = ORIENTED_EDGE ( 'NONE', *, *, #164, .F. ) ;
#496 = EDGE_CURVE ( 'NONE', #343, #343, #167, .T. ) ;
#497 = SHAPE_DEFINITION_REPRESENTATION ( #206, #530 ) ;
#498 = DIRECTION ( 'NONE',  ( 1.020538999289460338E-17, 1.000000000000000000, -0.000000000000000000 ) ) ;
#499 = EDGE_LOOP ( 'NONE', ( #459 ) ) ;
#500 = VERTEX_POINT ( 'NONE', #119 ) ;
#501 = CIRCLE ( 'NONE', #593, 1.949999999999998623 ) ;
#502 = DIRECTION ( 'NONE',  ( -1.020538999289460338E-17, -1.000000000000000000, 0.000000000000000000 ) ) ;
#503 = EDGE_LOOP ( 'NONE', ( #276 ) ) ;
#504 = CARTESIAN_POINT ( 'NONE',  ( 12.55000000000000249, 12.00000000000000000, 0.000000000000000000 ) ) ;
#505 = ADVANCED_FACE ( 'NONE', ( #625, #131 ), #347, .F. ) ;
#506 = CARTESIAN_POINT ( 'NONE',  ( 1.245726247692172300E-16, 12.00000000000000000, 0.000000000000000000 ) ) ;
#507 = CLOSED_SHELL ( 'NONE', ( #452, #388, #329, #182, #194, #624, #602, #353, #505, #267, #570, #94, #15, #227, #441, #20, #668, #145, #514, #418, #517, #678, #239, #707, #363, #468, #435, #545, #9 ) ) ;
#508 = TOROIDAL_SURFACE ( 'NONE', #286, 17.30000000000000426, 0.2000000000000000111 ) ;
#509 = CARTESIAN_POINT ( 'NONE',  ( -7.249999999999883649, 0.2000000000000005107, 12.55736835487442704 ) ) ;
#510 = PRODUCT_CONTEXT ( 'NONE', #189, 'mechanical' ) ;
#511 = DIRECTION ( 'NONE',  ( 1.000000000000000000, 0.000000000000000000, 0.000000000000000000 ) ) ;
#512 = CARTESIAN_POINT ( 'NONE',  ( 12.75000000000000178, 11.79999999999999893, 0.000000000000000000 ) ) ;
#513 = FACE_OUTER_BOUND ( 'NONE', #662, .T. ) ;
#514 = ADVANCED_FACE ( 'NONE', ( #302, #522 ), #134, .F. ) ;
#515 = CARTESIAN_POINT ( 'NONE',  ( 14.50000000000000000, 12.00000000000000000, 0.000000000000000000 ) ) ;
#516 = CARTESIAN_POINT ( 'NONE',  ( 1.225315467706383207E-16, 11.79999999999999893, 0.000000000000000000 ) ) ;
#517 = ADVANCED_FACE ( 'NONE', ( #33, #580 ), #487, .T. ) ;
#518 = ORIENTED_EDGE ( 'NONE', *, *, #550, .F. ) ;
#519 = CARTESIAN_POINT ( 'NONE',  ( 4.898587196589406912E-17, 4.799999999999998046, 0.000000000000000000 ) ) ;
#520 = FACE_OUTER_BOUND ( 'NONE', #186, .T. ) ;
#521 = EDGE_LOOP ( 'NONE', ( #400 ) ) ;
#522 = FACE_OUTER_BOUND ( 'NONE', #326, .T. ) ;
#523 = DIRECTION ( 'NONE',  ( 1.000000000000000000, -1.020538999289460338E-17, 0.000000000000000000 ) ) ;
#524 = CIRCLE ( 'NONE', #362, 1.000000000000000000 ) ;
#525 = ORIENTED_EDGE ( 'NONE', *, *, #635, .T. ) ;
#526 = DIRECTION ( 'NONE',  ( 1.020538999289460338E-17, 1.000000000000000000, -0.000000000000000000 ) ) ;
#527 = DIRECTION ( 'NONE',  ( -1.000000000000000000, 0.000000000000000000, 0.000000000000000000 ) ) ;
#528 = AXIS2_PLACEMENT_3D ( 'NONE', #700, #574, #137 ) ;
#529 = EDGE_LOOP ( 'NONE', ( #350 ) ) ;
#530 = ADVANCED_BREP_SHAPE_REPRESENTATION ( 'Part11_T310', ( #470, #440 ), #626 ) ;
#531 = PLANE ( 'NONE',  #582 ) ;
#532 = FACE_OUTER_BOUND ( 'NONE', #32, .T. ) ;
#533 = DIRECTION ( 'NONE',  ( 1.020538999289460338E-17, 1.000000000000000000, -0.000000000000000000 ) ) ;
#534 = FACE_BOUND ( 'NONE', #426, .T. ) ;
#535 = CIRCLE ( 'NONE', #313, 1.950000000000000400 ) ;
#536 = VERTEX_POINT ( 'NONE', #46 ) ;
#537 = AXIS2_PLACEMENT_3D ( 'NONE', #607, #424, #211 ) ;
#538 = CARTESIAN_POINT ( 'NONE',  ( 1.224646799147352468E-16, 12.00000000000000000, 0.000000000000000000 ) ) ;
#539 = EDGE_CURVE ( 'NONE', #224, #224, #630, .T. ) ;
#540 = TOROIDAL_SURFACE ( 'NONE', #528, 9.799999999999998934, 0.2000000000000000111 ) ;
#541 = CARTESIAN_POINT ( 'NONE',  ( -6.750000000000000888, 7.500000000000000000, 7.070249711157344729E-14 ) ) ;
#542 = CARTESIAN_POINT ( 'NONE',  ( 14.50000000000000000, 12.00000000000000000, 0.000000000000000000 ) ) ;
#543 = ORIENTED_EDGE ( 'NONE', *, *, #37, .T. ) ;
#544 = CARTESIAN_POINT ( 'NONE',  ( 0.9999999999999529265, 12.00000000000000000, -6.750000000000000000 ) ) ;
#545 = ADVANCED_FACE ( 'NONE', ( #692, #310 ), #41, .F. ) ;
#546 = DIRECTION ( 'NONE',  ( 1.000000000000000000, 0.000000000000000000, 0.000000000000000000 ) ) ;
#547 = ORIENTED_EDGE ( 'NONE', *, *, #136, .T. ) ;
#548 = AXIS2_PLACEMENT_3D ( 'NONE', #356, #688, #197 ) ;
#549 = DIRECTION ( 'NONE',  ( -1.020538999289460338E-17, -1.000000000000000000, 0.000000000000000000 ) ) ;
#550 = EDGE_CURVE ( 'NONE', #230, #230, #650, .T. ) ;
#551 = DIRECTION ( 'NONE',  ( 1.000000000000000000, -1.020538999289460338E-17, 0.000000000000000000 ) ) ;
#552 = EDGE_LOOP ( 'NONE', ( #181 ) ) ;
#553 = CARTESIAN_POINT ( 'NONE',  ( -20.00000000000000000, 4.799999999999998046, 0.000000000000000000 ) ) ;
#554 = AXIS2_PLACEMENT_3D ( 'NONE', #174, #121, #511 ) ;
#555 = DIRECTION ( 'NONE',  ( 1.000000000000000000, -1.020538999289460338E-17, 0.000000000000000000 ) ) ;
#556 = EDGE_LOOP ( 'NONE', ( #434 ) ) ;
#557 = FACE_OUTER_BOUND ( 'NONE', #609, .T. ) ;
#558 = EDGE_LOOP ( 'NONE', ( #280 ) ) ;
#559 = CARTESIAN_POINT ( 'NONE',  ( -8.999999999999882760, 11.79999999999999893, 12.55736835487442704 ) ) ;
#560 = AXIS2_PLACEMENT_3D ( 'NONE', #515, #565, #77 ) ;
#561 = FACE_OUTER_BOUND ( 'NONE', #382, .T. ) ;
#562 = DIRECTION ( 'NONE',  ( -1.038402938734223007E-17, -1.000000000000000000, -0.000000000000000000 ) ) ;
#563 = ORIENTED_EDGE ( 'NONE', *, *, #188, .T. ) ;
#564 = VERTEX_POINT ( 'NONE', #553 ) ;
#565 = DIRECTION ( 'NONE',  ( -1.020538999289460338E-17, -1.000000000000000000, 0.000000000000000000 ) ) ;
#566 = EDGE_LOOP ( 'NONE', ( #27 ) ) ;
#567 = EDGE_LOOP ( 'NONE', ( #85 ) ) ;
#568 = DIRECTION ( 'NONE',  ( 1.000000000000000000, 0.000000000000000000, 0.000000000000000000 ) ) ;
#569 = CIRCLE ( 'NONE', #325, 10.00000000000000000 ) ;
#570 = ADVANCED_FACE ( 'NONE', ( #30, #359, #307, #415, #36, #473 ), #531, .T. ) ;
#571 = DIRECTION ( 'NONE',  ( 1.000000000000000000, 0.000000000000000000, 0.000000000000000000 ) ) ;
#572 = ORIENTED_EDGE ( 'NONE', *, *, #312, .F. ) ;
#573 = CARTESIAN_POINT ( 'NONE',  ( -17.50000000000000000, 12.00000000000000000, 0.000000000000000000 ) ) ;
#574 = DIRECTION ( 'NONE',  ( -1.038402938734223624E-17, -1.000000000000000000, 0.000000000000000000 ) ) ;
#575 = AXIS2_PLACEMENT_3D ( 'NONE', #103, #154, #551 ) ;
#576 = EDGE_LOOP ( 'NONE', ( #262 ) ) ;
#577 = DIRECTION ( 'NONE',  ( -1.038402938734223470E-17, -1.000000000000000000, 0.000000000000000000 ) ) ;
#578 = DIRECTION ( 'NONE',  ( 1.038402938734223624E-17, 1.000000000000000000, -0.000000000000000000 ) ) ;
#579 = ORIENTED_EDGE ( 'NONE', *, *, #300, .T. ) ;
#580 = FACE_OUTER_BOUND ( 'NONE', #552, .T. ) ;
#581 = CARTESIAN_POINT ( 'NONE',  ( -7.250000000000060396, 0.2000000000000005107, -12.55736835487432224 ) ) ;
#582 = AXIS2_PLACEMENT_3D ( 'NONE', #638, #577, #204 ) ;
#583 = DIRECTION ( 'NONE',  ( 1.000000000000000000, -1.020538999289460338E-17, 0.000000000000000000 ) ) ;
#584 = FACE_OUTER_BOUND ( 'NONE', #499, .T. ) ;
#585 = TOROIDAL_SURFACE ( 'NONE', #681, 1.949999999999998401, 0.2000000000000000111 ) ;
#586 = TOROIDAL_SURFACE ( 'NONE', #123, 10.20000000000000107, 0.2000000000000000111 ) ;
#587 = DIRECTION ( 'NONE',  ( -1.020538999289460338E-17, -1.000000000000000000, 0.000000000000000000 ) ) ;
#588 = EDGE_CURVE ( 'NONE', #564, #564, #45, .T. ) ;
#589 = FACE_OUTER_BOUND ( 'NONE', #341, .T. ) ;
#590 = VERTEX_POINT ( 'NONE', #594 ) ;
#591 = PLANE ( 'NONE',  #203 ) ;
#592 = EDGE_CURVE ( 'NONE', #667, #667, #535, .T. ) ;
#593 = AXIS2_PLACEMENT_3D ( 'NONE', #323, #549, #153 ) ;
#594 = CARTESIAN_POINT ( 'NONE',  ( -17.50000000000000000, 11.79999999999999893, 0.000000000000000000 ) ) ;
#595 = DIRECTION ( 'NONE',  ( -1.038402938734223007E-17, -1.000000000000000000, -0.000000000000000000 ) ) ;
#596 = EDGE_LOOP ( 'NONE', ( #563 ) ) ;
#597 = AXIS2_PLACEMENT_3D ( 'NONE', #345, #78, #395 ) ;
#598 = CIRCLE ( 'NONE', #432, 1.000000000000000000 ) ;
#599 = VERTEX_POINT ( 'NONE', #647 ) ;
#600 = FACE_OUTER_BOUND ( 'NONE', #358, .T. ) ;
#601 = EDGE_LOOP ( 'NONE', ( #461 ) ) ;
#602 = ADVANCED_FACE ( 'NONE', ( #417, #460 ), #640, .F. ) ;
#603 = VERTEX_POINT ( 'NONE', #492 ) ;
#604 = DIRECTION ( 'NONE',  ( -1.020538999289460338E-17, -1.000000000000000000, 0.000000000000000000 ) ) ;
#605 = EDGE_LOOP ( 'NONE', ( #391 ) ) ;
#606 = AXIS2_PLACEMENT_3D ( 'NONE', #506, #502, #665 ) ;
#607 = CARTESIAN_POINT ( 'NONE',  ( 1.225315467706383207E-16, 11.79999999999999893, 0.000000000000000000 ) ) ;
#608 = CARTESIAN_POINT ( 'NONE',  ( -1.041499849070733310E-33, -1.020538999289460431E-16, 0.000000000000000000 ) ) ;
#609 = EDGE_LOOP ( 'NONE', ( #495 ) ) ;
#610 = CIRCLE ( 'NONE', #448, 4.200000000000000178 ) ;
#611 = PRESENTATION_STYLE_ASSIGNMENT (( #614 ) ) ;
#612 = ORIENTED_EDGE ( 'NONE', *, *, #463, .T. ) ;
#613 = CARTESIAN_POINT ( 'NONE',  ( -17.69999999999999929, 4.999999999999997335, 0.000000000000000000 ) ) ;
#614 = SURFACE_STYLE_USAGE ( .BOTH. , #287 ) ;
#615 = CARTESIAN_POINT ( 'NONE',  ( -5.750000000000000888, 7.500000000000000000, 7.070249711157344729E-14 ) ) ;
#616 =( NAMED_UNIT ( * ) SI_UNIT ( $, .STERADIAN. ) SOLID_ANGLE_UNIT ( ) );
#617 = UNCERTAINTY_MEASURE_WITH_UNIT (LENGTH_MEASURE( 1.000000000000000082E-05 ), #445, 'distance_accuracy_value', 'NONE');
#618 = DIRECTION ( 'NONE',  ( -1.038402938734223624E-17, -1.000000000000000000, 0.000000000000000000 ) ) ;
#619 = EDGE_CURVE ( 'NONE', #404, #404, #100, .T. ) ;
#620 = CARTESIAN_POINT ( 'NONE',  ( -19.80000000000000071, 4.999999999999997335, 0.000000000000000000 ) ) ;
#621 = AXIS2_PLACEMENT_3D ( 'NONE', #97, #299, #527 ) ;
#622 = EDGE_LOOP ( 'NONE', ( #200 ) ) ;
#623 = EDGE_LOOP ( 'NONE', ( #104 ) ) ;
#624 = ADVANCED_FACE ( 'NONE', ( #148, #685, #351, #464, #190, #633, #407, #629, #135 ), #140, .T. ) ;
#625 = FACE_OUTER_BOUND ( 'NONE', #183, .T. ) ;
#626 =( GEOMETRIC_REPRESENTATION_CONTEXT ( 3 ) GLOBAL_UNCERTAINTY_ASSIGNED_CONTEXT ( ( #617 ) ) GLOBAL_UNIT_ASSIGNED_CONTEXT ( ( #445, #339, #72 ) ) REPRESENTATION_CONTEXT ( 'NONE', 'WORKASPACE' ) );
#627 = ORIENTED_EDGE ( 'NONE', *, *, #490, .T. ) ;
#628 = EDGE_LOOP ( 'NONE', ( #683 ) ) ;
#629 = FACE_BOUND ( 'NONE', #556, .T. ) ;
#630 = CIRCLE ( 'NONE', #205, 20.00000000000000000 ) ;
#631 = ORIENTED_EDGE ( 'NONE', *, *, #376, .F. ) ;
#632 = ORIENTED_EDGE ( 'NONE', *, *, #366, .F. ) ;
#633 = FACE_BOUND ( 'NONE', #666, .T. ) ;
#634 = CIRCLE ( 'NONE', #437, 1.000000000000000000 ) ;
#635 = EDGE_CURVE ( 'NONE', #674, #674, #501, .T. ) ;
#636 = TOROIDAL_SURFACE ( 'NONE', #308, 1.950000000000000178, 0.2000000000000000111 ) ;
#637 = EDGE_LOOP ( 'NONE', ( #219 ) ) ;
#638 = CARTESIAN_POINT ( 'NONE',  ( 7.788022040506673095E-17, 7.500000000000000000, 0.000000000000000000 ) ) ;
#639 = EDGE_LOOP ( 'NONE', ( #79 ) ) ;
#640 = CYLINDRICAL_SURFACE ( 'NONE', #409, 1.749999999999998890 ) ;
#641 = AXIS2_PLACEMENT_3D ( 'NONE', #411, #364, #642 ) ;
#642 = DIRECTION ( 'NONE',  ( 1.000000000000000000, 0.000000000000000000, 0.000000000000000000 ) ) ;
#643 = CARTESIAN_POINT ( 'NONE',  ( -7.249999999999883649, -2.710505431213761085E-17, 12.55736835487442704 ) ) ;
#644 = CIRCLE ( 'NONE', #285, 1.000000000000000000 ) ;
#645 = EDGE_CURVE ( 'NONE', #679, #679, #155, .T. ) ;
#646 = DIRECTION ( 'NONE',  ( -1.000000000000000000, 0.000000000000000000, 0.000000000000000000 ) ) ;
#647 = CARTESIAN_POINT ( 'NONE',  ( -4.000000000000000000, 11.79999999999999893, 0.000000000000000000 ) ) ;
#648 = CARTESIAN_POINT ( 'NONE',  ( 3.572787888952460767E-20, -1.084202172485504434E-16, 0.000000000000000000 ) ) ;
#649 = ORIENTED_EDGE ( 'NONE', *, *, #37, .F. ) ;
#650 = CIRCLE ( 'NONE', #337, 1.949999999999998623 ) ;
#651 = FACE_OUTER_BOUND ( 'NONE', #687, .T. ) ;
#652 = DIRECTION ( 'NONE',  ( -1.020538999289460338E-17, -1.000000000000000000, 0.000000000000000000 ) ) ;
#653 = ORIENTED_EDGE ( 'NONE', *, *, #458, .F. ) ;
#654 = EDGE_CURVE ( 'NONE', #169, #169, #34, .T. ) ;
#655 = AXIS2_PLACEMENT_3D ( 'NONE', #643, #311, #523 ) ;
#656 = VERTEX_POINT ( 'NONE', #370 ) ;
#657 = FACE_OUTER_BOUND ( 'NONE', #58, .T. ) ;
#658 = EDGE_LOOP ( 'NONE', ( #612 ) ) ;
#659 = FACE_OUTER_BOUND ( 'NONE', #462, .T. ) ;
#660 = TOROIDAL_SURFACE ( 'NONE', #394, 1.950000000000000178, 0.2000000000000000111 ) ;
#661 = CYLINDRICAL_SURFACE ( 'NONE', #39, 10.00000000000000000 ) ;
#662 = EDGE_LOOP ( 'NONE', ( #242 ) ) ;
#663 = AXIS2_PLACEMENT_3D ( 'NONE', #367, #90, #95 ) ;
#664 = VERTEX_POINT ( 'NONE', #454 ) ;
#665 = DIRECTION ( 'NONE',  ( -1.000000000000000000, 0.000000000000000000, 0.000000000000000000 ) ) ;
#666 = EDGE_LOOP ( 'NONE', ( #525 ) ) ;
#667 = VERTEX_POINT ( 'NONE', #671 ) ;
#668 = ADVANCED_FACE ( 'NONE', ( #436, #320 ), #429, .T. ) ;
#669 = DIRECTION ( 'NONE',  ( 1.000000000000000000, 0.000000000000000000, 0.000000000000000000 ) ) ;
#670 = DIRECTION ( 'NONE',  ( -1.038402938734223624E-17, -1.000000000000000000, 0.000000000000000000 ) ) ;
#671 = CARTESIAN_POINT ( 'NONE',  ( -9.199999999999883826, 12.00000000000000000, 12.55736835487442704 ) ) ;
#672 = FILL_AREA_STYLE_COLOUR ( '', #8 ) ;
#673 = ORIENTED_EDGE ( 'NONE', *, *, #550, .T. ) ;
#674 = VERTEX_POINT ( 'NONE', #10 ) ;
#675 = AXIS2_PLACEMENT_3D ( 'NONE', #405, #11, #173 ) ;
#676 = CYLINDRICAL_SURFACE ( 'NONE', #701, 4.000000000000000000 ) ;
#677 = EDGE_LOOP ( 'NONE', ( #319 ) ) ;
#678 = ADVANCED_FACE ( 'NONE', ( #706, #659 ), #83, .T. ) ;
#679 = VERTEX_POINT ( 'NONE', #512 ) ;
#680 = DIRECTION ( 'NONE',  ( -1.020538999289460338E-17, -1.000000000000000000, 0.000000000000000000 ) ) ;
#681 = AXIS2_PLACEMENT_3D ( 'NONE', #76, #241, #348 ) ;
#682 = AXIS2_PLACEMENT_3D ( 'NONE', #538, #53, #646 ) ;
#683 = ORIENTED_EDGE ( 'NONE', *, *, #258, .F. ) ;
#684 = ORIENTED_EDGE ( 'NONE', *, *, #496, .F. ) ;
#685 = FACE_BOUND ( 'NONE', #658, .T. ) ;
#686 = ORIENTED_EDGE ( 'NONE', *, *, #654, .F. ) ;
#687 = EDGE_LOOP ( 'NONE', ( #125 ) ) ;
#688 = DIRECTION ( 'NONE',  ( -1.038402938734223624E-17, -1.000000000000000000, -0.000000000000000000 ) ) ;
#689 = AXIS2_PLACEMENT_3D ( 'NONE', #648, #498, #489 ) ;
#690 = CARTESIAN_POINT ( 'NONE',  ( -20.00000000000000000, 4.999999999999997335, 0.000000000000000000 ) ) ;
#691 = ORIENTED_EDGE ( 'NONE', *, *, #136, .F. ) ;
#692 = FACE_OUTER_BOUND ( 'NONE', #529, .T. ) ;
#693 = CIRCLE ( 'NONE', #330, 4.000000000000000000 ) ;
#694 = DIRECTION ( 'NONE',  ( -1.000000000000000000, 0.000000000000000000, 0.000000000000000000 ) ) ;
#695 = AXIS2_PLACEMENT_3D ( 'NONE', #482, #166, #716 ) ;
#696 = DIRECTION ( 'NONE',  ( -1.020538999289460338E-17, -1.000000000000000000, 0.000000000000000000 ) ) ;
#697 = DIRECTION ( 'NONE',  ( 1.000000000000000000, 0.000000000000000000, 0.000000000000000000 ) ) ;
#698 = EDGE_CURVE ( 'NONE', #274, #274, #634, .T. ) ;
#699 = DIRECTION ( 'NONE',  ( -1.038402938734223007E-17, -1.000000000000000000, -0.000000000000000000 ) ) ;
#700 = CARTESIAN_POINT ( 'NONE',  ( 7.580341452759828463E-17, 7.299999999999999822, 0.000000000000000000 ) ) ;
#701 = AXIS2_PLACEMENT_3D ( 'NONE', #180, #562, #26 ) ;
#702 = PRODUCT_DEFINITION ( 'General', '', #151, #17 ) ;
#703 = VERTEX_POINT ( 'NONE', #488 ) ;
#704 = CARTESIAN_POINT ( 'NONE',  ( 7.788022040506673095E-17, 7.500000000000000000, 0.000000000000000000 ) ) ;
#705 = AXIS2_PLACEMENT_3D ( 'NONE', #149, #412, #254 ) ;
#706 = FACE_OUTER_BOUND ( 'NONE', #66, .T. ) ;
#707 = ADVANCED_FACE ( 'NONE', ( #651, #428 ), #660, .T. ) ;
#708 = DIRECTION ( 'NONE',  ( 1.000000000000000000, 0.000000000000000000, 0.000000000000000000 ) ) ;
#709 = ORIENTED_EDGE ( 'NONE', *, *, #539, .T. ) ;
#710 = VERTEX_POINT ( 'NONE', #161 ) ;
#711 = DIRECTION ( 'NONE',  ( 1.020538999289460338E-17, 1.000000000000000000, -0.000000000000000000 ) ) ;
#712 = ORIENTED_EDGE ( 'NONE', *, *, #28, .F. ) ;
#713 = CIRCLE ( 'NONE', #178, 1.749999999999999778 ) ;
#714 = PRODUCT ( 'Part11_T310', 'Part11_T310', '', ( #510 ) ) ;
#715 = VERTEX_POINT ( 'NONE', #422 ) ;
#716 = DIRECTION ( 'NONE',  ( -1.000000000000000000, 0.000000000000000000, 0.000000000000000000 ) ) ;
#717 = EDGE_LOOP ( 'NONE', ( #269 ) ) ;
ENDSEC;
END-ISO-10303-21;
