ISO-10303-21;
HEADER;
FILE_DESCRIPTION (( 'STEP AP214' ),
    '1' );
FILE_NAME ('Gripper Assembly.STEP',
    '2025-07-15T13:07:05',
    ( '' ),
    ( '' ),
    'SwSTEP 2.0',
    'SolidWorks 2025',
    '' );
FILE_SCHEMA (( 'AUTOMOTIVE_DESIGN' ));
ENDSEC;

DATA;
#1 = APPLIED_DOCUMENT_REFERENCE ( #633,'',( #784) ) ;
#2 = CARTESIAN_POINT ( 'NONE',  ( 5.239824601909236712, 58.00000000000000000, -8.499999999999996447 ) ) ;
#3 = PROPERTY_DEFINITION ('external definition','', #603 ) ;
#4 = EXTERNAL_SOURCE (IDENTIFIER('') ) ;
#5 = AXIS2_PLACEMENT_3D ( 'NONE', #96, #791, #240 ) ;
#6 = DIRECTION ( 'NONE',  ( 0.000000000000000000, 0.000000000000000000, 1.000000000000000000 ) ) ;
#7 = PROPERTY_DEFINITION ('document property','', #394 ) ;
#8 = APPLIED_EXTERNAL_IDENTIFICATION_ASSIGNMENT ( 'Part6_GR.STEP' , #159, #597,( #675) ) ;
#9 = DIRECTION ( 'NONE',  ( 1.000000000000000000, 0.000000000000000000, 0.000000000000000000 ) ) ;
#10 = ITEM_DEFINED_TRANSFORMATION ( 'NONE', 'NONE', #362,  #519 ) ;
#11 = APPLICATION_PROTOCOL_DEFINITION ( 'draft international standard', 'automotive_design', 1998, #524 ) ;
#12 = DOCUMENT_TYPE ( 'geometry' ) ;
#13 = UNCERTAINTY_MEASURE_WITH_UNIT (LENGTH_MEASURE( 1.000000000000000082E-05 ), #592, 'distance_accuracy_value', 'NONE');
#14 = SHAPE_REPRESENTATION ( 'Part7_GR', ( #373 ), #64 ) ;
#15 = PRODUCT_DEFINITION_SHAPE ( 'NONE', 'NONE',  #886 ) ;
#16 = APPLIED_DOCUMENT_REFERENCE ( #562,'',( #761) ) ;
#17 = DIRECTION ( 'NONE',  ( -0.9873505073845697533, -0.1585527532634883052, 0.000000000000000000 ) ) ;
#18 = EXTERNAL_SOURCE (IDENTIFIER('') ) ;
#19 = DOCUMENT_TYPE ( 'geometry' ) ;
#20 = CARTESIAN_POINT ( 'NONE',  ( 0.000000000000000000, 0.000000000000000000, 0.000000000000000000 ) ) ;
#21 = APPLIED_DOCUMENT_REFERENCE ( #648,'',( #617) ) ;
#22 = DIRECTION ( 'NONE',  ( 0.9999999999999998890, -1.006139616066548115E-16, 1.672608359854767232E-16 ) ) ;
#23 = AXIS2_PLACEMENT_3D ( 'NONE', #573, #236, #241 ) ;
#24 = PRODUCT_DEFINITION_SHAPE ( 'NONE', 'NONE',  #881 ) ;
#25 =( NAMED_UNIT ( * ) SI_UNIT ( $, .STERADIAN. ) SOLID_ANGLE_UNIT ( ) );
#26 = AXIS2_PLACEMENT_3D ( 'NONE', #31, #22, #429 ) ;
#27 = EXTERNAL_SOURCE (IDENTIFIER('') ) ;
#28 = DIRECTION ( 'NONE',  ( 0.000000000000000000, 0.000000000000000000, 1.000000000000000000 ) ) ;
#29 = ROLE_ASSOCIATION ( #477, #807 ) ;
#30 =( REPRESENTATION_RELATIONSHIP ('NONE','NONE', #287, #307 ) REPRESENTATION_RELATIONSHIP_WITH_TRANSFORMATION ( #491 )SHAPE_REPRESENTATION_RELATIONSHIP( ) );
#31 = CARTESIAN_POINT ( 'NONE',  ( 4.931113736664149747E-17, -5.000000000000000000, -6.500000000000004441 ) ) ;
#32 = ROLE_ASSOCIATION ( #191, #325 ) ;
#33 = SHAPE_DEFINITION_REPRESENTATION ( #831, #129 ) ;
#34 =( REPRESENTATION_RELATIONSHIP ('NONE','NONE', #287, #36 ) REPRESENTATION_RELATIONSHIP_WITH_TRANSFORMATION ( #269 )SHAPE_REPRESENTATION_RELATIONSHIP( ) );
#35 =( GEOMETRIC_REPRESENTATION_CONTEXT ( 3 ) GLOBAL_UNCERTAINTY_ASSIGNED_CONTEXT ( ( #365 ) ) GLOBAL_UNIT_ASSIGNED_CONTEXT ( ( #581, #726, #25 ) ) REPRESENTATION_CONTEXT ( 'NONE', 'WORKASPACE' ) );
#36 = SHAPE_REPRESENTATION ( 'Part1_GR', ( #507 ), #397 ) ;
#37 =( REPRESENTATION_RELATIONSHIP ('NONE','NONE', #287, #820 ) REPRESENTATION_RELATIONSHIP_WITH_TRANSFORMATION ( #110 )SHAPE_REPRESENTATION_RELATIONSHIP( ) );
#38 = PRODUCT_DEFINITION_FORMATION_WITH_SPECIFIED_SOURCE ( 'Symmetric', '', #285, .NOT_KNOWN. ) ;
#39 = PROPERTY_DEFINITION_REPRESENTATION ( #41, #129 ) ;
#40 = APPLIED_DOCUMENT_REFERENCE ( #394,'',( #774) ) ;
#41 = PROPERTY_DEFINITION ('document property','', #112 ) ;
#42 = APPLICATION_PROTOCOL_DEFINITION ( 'draft international standard', 'automotive_design', 1998, #757 ) ;
#43 = CARTESIAN_POINT ( 'NONE',  ( 13.49999999999369926, 68.59971590679927544, -3.406931947043918163E-16 ) ) ;
#44 = CONTEXT_DEPENDENT_SHAPE_REPRESENTATION ( #758, #752 ) ;
#45 = APPLICATION_CONTEXT ( 'automotive_design' ) ;
#46 = PROPERTY_DEFINITION ('document property','', #832 ) ;
#47 = PRODUCT_DEFINITION_CONTEXT ( 'detailed design', #660, 'design' ) ;
#48 = CARTESIAN_POINT ( 'NONE',  ( 13.50000000000000178, 37.59971590679804621, -8.500000000000001776 ) ) ;
#49 = PROPERTY_DEFINITION ('document property','', #860 ) ;
#50 = DOCUMENT_FILE ( 'Part4_GR.STEP' , '', '', #441, '' ,$ ) ;
#51 =( NAMED_UNIT ( * ) SI_UNIT ( $, .STERADIAN. ) SOLID_ANGLE_UNIT ( ) );
#52 = IDENTIFICATION_ROLE ( 'external document id and location', $) ;
#53 = ITEM_DEFINED_TRANSFORMATION ( 'NONE', 'NONE', #533,  #679 ) ;
#54 = PROPERTY_DEFINITION ('document property','', #562 ) ;
#55 = PROPERTY_DEFINITION_REPRESENTATION ( #484, #36 ) ;
#56 = PRODUCT ( 'Part6_GR', 'Part6_GR', '', ( #171 ) ) ;
#57 = DIRECTION ( 'NONE',  ( -6.788207149166501010E-13, 1.000000000000000000, 2.288275111261225760E-16 ) ) ;
#58 = EXTERNAL_SOURCE (IDENTIFIER('') ) ;
#59 = PRODUCT_DEFINITION_CONTEXT ( 'detailed design', #309, 'design' ) ;
#60 = DOCUMENT_FILE ( 'ISO - 4032 - M3 - W - N_ISO - 4032 - M3 - W - N.STEP' , '', '', #799, '' ,$ ) ;
#61 = DIRECTION ( 'NONE',  ( -7.165888975951827489E-13, 1.000000000000000000, 1.083059639298365899E-17 ) ) ;
#62 = DOCUMENT_TYPE ( 'geometry' ) ;
#63 = PRODUCT_DEFINITION_SHAPE ( 'NONE', 'NONE',  #120 ) ;
#64 =( GEOMETRIC_REPRESENTATION_CONTEXT ( 3 ) GLOBAL_UNCERTAINTY_ASSIGNED_CONTEXT ( ( #785 ) ) GLOBAL_UNIT_ASSIGNED_CONTEXT ( ( #819, #336, #51 ) ) REPRESENTATION_CONTEXT ( 'NONE', 'WORKASPACE' ) );
#65 = PRODUCT_RELATED_PRODUCT_CATEGORY ( 'part', '', ( #311 ) ) ;
#66 = DOCUMENT_TYPE ( 'geometry' ) ;
#67 = PRODUCT_DEFINITION_FORMATION_WITH_SPECIFIED_SOURCE ( 'Symmetric', '', #56, .NOT_KNOWN. ) ;
#68 = PROPERTY_DEFINITION_REPRESENTATION ( #645, #225 ) ;
#69 = PRODUCT_RELATED_PRODUCT_CATEGORY ( 'part', '', ( #285 ) ) ;
#70 = DIRECTION ( 'NONE',  ( -1.431180525858572761E-15, 2.288275111251511431E-16, -0.9999999999999998890 ) ) ;
#71 = UNCERTAINTY_MEASURE_WITH_UNIT (LENGTH_MEASURE( 1.000000000000000082E-05 ), #673, 'distance_accuracy_value', 'NONE');
#72 = DOCUMENT_FILE ( 'ISO 7380 - M3 x 12 - 12N_ISO 7380 - M3 x 12 - 12N.STEP' , '', '', #74, '' ,$ ) ;
#73 = PROPERTY_DEFINITION_REPRESENTATION ( #508, #225 ) ;
#74 = DOCUMENT_TYPE ( 'geometry' ) ;
#75 = PRODUCT_DEFINITION_SHAPE ( 'NONE', 'NONE',  #898 ) ;
#76 = DIRECTION ( 'NONE',  ( -0.8380476831734462451, -0.5455969947934271591, -3.610009195503485827E-21 ) ) ;
#77 = PROPERTY_DEFINITION ('external definition','', #702 ) ;
#78 = CARTESIAN_POINT ( 'NONE',  ( 0.000000000000000000, 0.000000000000000000, 0.000000000000000000 ) ) ;
#79 = PROPERTY_DEFINITION_REPRESENTATION ( #195, #36 ) ;
#80 = DIRECTION ( 'NONE',  ( 0.0007855246909486848870, 0.9999996914754323285, -2.499262744597576249E-17 ) ) ;
#81 = IDENTIFICATION_ROLE ( 'external document id and location', $) ;
#82 = PROPERTY_DEFINITION_REPRESENTATION ( #609, #572 ) ;
#83 = CARTESIAN_POINT ( 'NONE',  ( 0.000000000000000000, 0.000000000000000000, 0.000000000000000000 ) ) ;
#84 = ITEM_DEFINED_TRANSFORMATION ( 'NONE', 'NONE', #322,  #519 ) ;
#85 = AXIS2_PLACEMENT_3D ( 'NONE', #78, #358, #97 ) ;
#86 = PROPERTY_DEFINITION ('document property','', #50 ) ;
#87 = DIRECTION ( 'NONE',  ( 0.000000000000000000, 0.000000000000000000, -1.000000000000000000 ) ) ;
#88 = ROLE_ASSOCIATION ( #423, #335 ) ;
#89 = APPLICATION_CONTEXT ( 'automotive_design' ) ;
#90 = EXTERNAL_SOURCE (IDENTIFIER('') ) ;
#91 = CARTESIAN_POINT ( 'NONE',  ( 0.000000000000000000, 0.000000000000000000, 0.000000000000000000 ) ) ;
#92 = PROPERTY_DEFINITION_REPRESENTATION ( #138, #628 ) ;
#93 = CARTESIAN_POINT ( 'NONE',  ( 0.000000000000000000, 0.000000000000000000, 0.000000000000000000 ) ) ;
#94 = PRODUCT_DEFINITION_SHAPE ( 'NONE', 'NONE',  #474 ) ;
#95 = IDENTIFICATION_ROLE ( 'external document id and location', $) ;
#96 = CARTESIAN_POINT ( 'NONE',  ( -5.999999999999998224, 3.999999999999999112, 5.150000000000001243 ) ) ;
#97 = DIRECTION ( 'NONE',  ( 1.000000000000000000, 0.000000000000000000, 0.000000000000000000 ) ) ;
#98 = APPLIED_DOCUMENT_REFERENCE ( #644,'',( #761) ) ;
#99 =( REPRESENTATION_RELATIONSHIP ('NONE','NONE', #287, #225 ) REPRESENTATION_RELATIONSHIP_WITH_TRANSFORMATION ( #135 )SHAPE_REPRESENTATION_RELATIONSHIP( ) );
#100 = SHAPE_DEFINITION_REPRESENTATION ( #696, #14 ) ;
#101 = PRODUCT_DEFINITION_FORMATION_WITH_SPECIFIED_SOURCE ( 'Symmetric', '', #431, .NOT_KNOWN. ) ;
#102 = APPLIED_EXTERNAL_IDENTIFICATION_ASSIGNMENT ( 'Part6_GR.STEP' , #357, #277,( #616) ) ;
#103 = CARTESIAN_POINT ( 'NONE',  ( -5.999999999999997335, 3.999999999999998224, -8.900000000000002132 ) ) ;
#104 = APPLICATION_PROTOCOL_DEFINITION ( 'draft international standard', 'automotive_design', 1998, #299 ) ;
#105 = IDENTIFICATION_ROLE ( 'external document id and location', $) ;
#106 = ITEM_DEFINED_TRANSFORMATION ( 'NONE', 'NONE', #787,  #602 ) ;
#107 = PRODUCT_DEFINITION_SHAPE ( 'NONE', 'NONE',  #897 ) ;
#108 = APPLICATION_PROTOCOL_DEFINITION ( 'draft international standard', 'automotive_design', 1998, #331 ) ;
#109 = PRODUCT_CONTEXT ( 'NONE', #473, 'mechanical' ) ;
#110 = ITEM_DEFINED_TRANSFORMATION ( 'NONE', 'NONE', #5,  #666 ) ;
#111 = APPLIED_EXTERNAL_IDENTIFICATION_ASSIGNMENT ( 'Part6_GR.STEP' , #105, #58,( #648) ) ;
#112 = DOCUMENT_FILE ( 'Part3_GR.STEP' , '', '', #428, '' ,$ ) ;
#113 = APPLICATION_CONTEXT ( 'automotive_design' ) ;
#114 = PRODUCT_CONTEXT ( 'NONE', #579, 'mechanical' ) ;
#115 =( REPRESENTATION_RELATIONSHIP ('NONE','NONE', #287, #628 ) REPRESENTATION_RELATIONSHIP_WITH_TRANSFORMATION ( #106 )SHAPE_REPRESENTATION_RELATIONSHIP( ) );
#116 = PROPERTY_DEFINITION ('document property','', #675 ) ;
#117 = CONTEXT_DEPENDENT_SHAPE_REPRESENTATION ( #797, #497 ) ;
#118 = OBJECT_ROLE ('mandatory',$ ) ;
#119 = PROPERTY_DEFINITION_REPRESENTATION ( #629, #628 ) ;
#120 = PRODUCT_DEFINITION ( 'General', '', #38, #437 ) ;
#121 = PROPERTY_DEFINITION ('external definition','', #401 ) ;
#122 = EXTERNAL_SOURCE (IDENTIFIER('') ) ;
#123 =( GEOMETRIC_REPRESENTATION_CONTEXT ( 3 ) GLOBAL_UNCERTAINTY_ASSIGNED_CONTEXT ( ( #534 ) ) GLOBAL_UNIT_ASSIGNED_CONTEXT ( ( #370, #219, #789 ) ) REPRESENTATION_CONTEXT ( 'NONE', 'WORKASPACE' ) );
#124 = AXIS2_PLACEMENT_3D ( 'NONE', #194, #389, #668 ) ;
#125 = APPLIED_EXTERNAL_IDENTIFICATION_ASSIGNMENT ( 'Part6_GR.STEP' , #213, #27,( #601) ) ;
#126 = APPLIED_DOCUMENT_REFERENCE ( #702,'',( #774) ) ;
#127 = DIRECTION ( 'NONE',  ( 0.2093770085446363949, 0.9778349903193784831, -2.799229296550381872E-17 ) ) ;
#128 = CONTEXT_DEPENDENT_SHAPE_REPRESENTATION ( #264, #492 ) ;
#129 = SHAPE_REPRESENTATION ( 'Part3_GR', ( #85 ), #123 ) ;
#130 = PROPERTY_DEFINITION ('external definition','', #616 ) ;
#131 = IDENTIFICATION_ROLE ( 'external document id and location', $) ;
#132 = PRODUCT_DEFINITION_SHAPE ( 'NONE', 'NONE',  #895 ) ;
#133 = DIRECTION ( 'NONE',  ( 0.4994013888563267334, 0.8663707363527302086, -7.915453017596517444E-16 ) ) ;
#134 = ROLE_ASSOCIATION ( #118, #352 ) ;
#135 = ITEM_DEFINED_TRANSFORMATION ( 'NONE', 'NONE', #640,  #519 ) ;
#136 = IDENTIFICATION_ROLE ( 'external document id and location', $) ;
#137 = DIRECTION ( 'NONE',  ( 1.000000000000000000, 0.000000000000000000, 0.000000000000000000 ) ) ;
#138 = PROPERTY_DEFINITION ('external definition','', #648 ) ;
#139 = PROPERTY_DEFINITION ('external definition','', #455 ) ;
#140 = APPLIED_DOCUMENT_REFERENCE ( #616,'',( #617) ) ;
#141 = DIRECTION ( 'NONE',  ( 1.000000000000000000, 0.000000000000000000, 0.000000000000000000 ) ) ;
#142 = ITEM_DEFINED_TRANSFORMATION ( 'NONE', 'NONE', #798,  #507 ) ;
#143 = CARTESIAN_POINT ( 'NONE',  ( 5.239824601860894049, 58.00000000000435563, -6.000000000000000000 ) ) ;
#144 =( NAMED_UNIT ( * ) SI_UNIT ( $, .STERADIAN. ) SOLID_ANGLE_UNIT ( ) );
#145 = CARTESIAN_POINT ( 'NONE',  ( 13.50000000066402173, 37.59971590659930030, 4.500000000000370370 ) ) ;
#146 = PRODUCT_DEFINITION_SHAPE ( 'NONE', 'NONE',  #774 ) ;
#147 = EXTERNAL_SOURCE (IDENTIFIER('') ) ;
#148 =( LENGTH_UNIT ( ) NAMED_UNIT ( * ) SI_UNIT ( .MILLI., .METRE. ) );
#149 = PRODUCT_RELATED_PRODUCT_CATEGORY ( 'part', '', ( #552 ) ) ;
#150 = DIRECTION ( 'NONE',  ( -2.357364578013328431E-16, 2.184980245682333018E-17, -0.9999999999999998890 ) ) ;
#151 = OBJECT_ROLE ('mandatory',$ ) ;
#152 = PROPERTY_DEFINITION_REPRESENTATION ( #210, #225 ) ;
#153 =( GEOMETRIC_REPRESENTATION_CONTEXT ( 3 ) GLOBAL_UNCERTAINTY_ASSIGNED_CONTEXT ( ( #627 ) ) GLOBAL_UNIT_ASSIGNED_CONTEXT ( ( #317, #792, #555 ) ) REPRESENTATION_CONTEXT ( 'NONE', 'WORKASPACE' ) );
#154 = PRODUCT_DEFINITION_SHAPE ( 'NONE', 'NONE',  #761 ) ;
#155 = DOCUMENT_TYPE ( 'geometry' ) ;
#156 = APPLICATION_PROTOCOL_DEFINITION ( 'draft international standard', 'automotive_design', 1998, #113 ) ;
#157 = CARTESIAN_POINT ( 'NONE',  ( 0.000000000000000000, 0.000000000000000000, 0.000000000000000000 ) ) ;
#158 = CARTESIAN_POINT ( 'NONE',  ( -5.264175867126373198, 88.99999043573853896, -8.499999999999998224 ) ) ;
#159 = IDENTIFICATION_ROLE ( 'external document id and location', $) ;
#160 = PROPERTY_DEFINITION ('document property','', #633 ) ;
#161 = PROPERTY_DEFINITION_REPRESENTATION ( #526, #820 ) ;
#162 = PRODUCT_CONTEXT ( 'NONE', #524, 'mechanical' ) ;
#163 =( REPRESENTATION_RELATIONSHIP ('NONE','NONE', #287, #14 ) REPRESENTATION_RELATIONSHIP_WITH_TRANSFORMATION ( #315 )SHAPE_REPRESENTATION_RELATIONSHIP( ) );
#164 = PROPERTY_DEFINITION_REPRESENTATION ( #688, #225 ) ;
#165 = SHAPE_DEFINITION_REPRESENTATION ( #94, #485 ) ;
#166 = CARTESIAN_POINT ( 'NONE',  ( 0.000000000000000000, 0.000000000000000000, 0.000000000000000000 ) ) ;
#167 = PRODUCT_DEFINITION_FORMATION_WITH_SPECIFIED_SOURCE ( 'Symmetric', '', #690, .NOT_KNOWN. ) ;
#168 = PROPERTY_DEFINITION_REPRESENTATION ( #618, #820 ) ;
#169 = IDENTIFICATION_ROLE ( 'external document id and location', $) ;
#170 = ITEM_DEFINED_TRANSFORMATION ( 'NONE', 'NONE', #834,  #602 ) ;
#171 = PRODUCT_CONTEXT ( 'NONE', #173, 'mechanical' ) ;
#172 = PROPERTY_DEFINITION_REPRESENTATION ( #116, #628 ) ;
#173 = APPLICATION_CONTEXT ( 'automotive_design' ) ;
#174 = PROPERTY_DEFINITION_REPRESENTATION ( #139, #858 ) ;
#175 = EXTERNAL_SOURCE (IDENTIFIER('') ) ;
#176 =( NAMED_UNIT ( * ) SI_UNIT ( $, .STERADIAN. ) SOLID_ANGLE_UNIT ( ) );
#177 = PROPERTY_DEFINITION_REPRESENTATION ( #737, #628 ) ;
#178 = PROPERTY_DEFINITION ('external definition','', #601 ) ;
#179 = ITEM_DEFINED_TRANSFORMATION ( 'NONE', 'NONE', #374,  #507 ) ;
#180 = DOCUMENT_TYPE ( 'geometry' ) ;
#181 = APPLIED_EXTERNAL_IDENTIFICATION_ASSIGNMENT ( 'Part1_GR.STEP' , #626, #489,( #487) ) ;
#182 = PRODUCT_DEFINITION_SHAPE ( 'NONE', 'NONE',  #260 ) ;
#183 = PROPERTY_DEFINITION_REPRESENTATION ( #663, #628 ) ;
#184 =( REPRESENTATION_RELATIONSHIP ('NONE','NONE', #287, #225 ) REPRESENTATION_RELATIONSHIP_WITH_TRANSFORMATION ( #557 )SHAPE_REPRESENTATION_RELATIONSHIP( ) );
#185 = PRODUCT_DEFINITION_CONTEXT ( 'detailed design', #506, 'design' ) ;
#186 = PRODUCT_DEFINITION_SHAPE ( 'NONE', 'NONE',  #902 ) ;
#187 = ROLE_ASSOCIATION ( #714, #263 ) ;
#188 = PROPERTY_DEFINITION_REPRESENTATION ( #369, #129 ) ;
#189 =( NAMED_UNIT ( * ) SI_UNIT ( $, .STERADIAN. ) SOLID_ANGLE_UNIT ( ) );
#190 = CONTEXT_DEPENDENT_SHAPE_REPRESENTATION ( #635, #393 ) ;
#191 = OBJECT_ROLE ('mandatory',$ ) ;
#192 = ROLE_ASSOCIATION ( #884, #480 ) ;
#193 = PROPERTY_DEFINITION ('document property','', #724 ) ;
#194 = CARTESIAN_POINT ( 'NONE',  ( -13.49999999999752731, 37.59971590679801068, 1.499999999999994227 ) ) ;
#195 = PROPERTY_DEFINITION ('document property','', #387 ) ;
#196 = APPLIED_EXTERNAL_IDENTIFICATION_ASSIGNMENT ( 'Part5_GR.STEP' , #518, #18,( #455) ) ;
#197 = APPLIED_DOCUMENT_REFERENCE ( #349,'',( #474) ) ;
#198 = PRODUCT_DEFINITION_SHAPE ( 'NONE', 'NONE',  #911 ) ;
#199 = ROLE_ASSOCIATION ( #767, #846 ) ;
#200 =( REPRESENTATION_RELATIONSHIP ('NONE','NONE', #287, #225 ) REPRESENTATION_RELATIONSHIP_WITH_TRANSFORMATION ( #10 )SHAPE_REPRESENTATION_RELATIONSHIP( ) );
#201 = DIRECTION ( 'NONE',  ( 0.8663707363527302086, -0.4994013888563267334, 8.551179218067087638E-16 ) ) ;
#202 = ITEM_DEFINED_TRANSFORMATION ( 'NONE', 'NONE', #771,  #679 ) ;
#203 = DOCUMENT_FILE ( 'Part2_GR.STEP' , '', '', #155, '' ,$ ) ;
#204 = DIRECTION ( 'NONE',  ( -0.3743556423930680110, 0.9272852058608903603, 1.152752299053419292E-21 ) ) ;
#205 = DOCUMENT_TYPE ( 'geometry' ) ;
#206 = UNCERTAINTY_MEASURE_WITH_UNIT (LENGTH_MEASURE( 1.000000000000000082E-05 ), #852, 'distance_accuracy_value', 'NONE');
#207 = DOCUMENT_FILE ( 'ISO 7380 - M3 x 12 - 12N_ISO 7380 - M3 x 12 - 12N.STEP' , '', '', #730, '' ,$ ) ;
#208 = PROPERTY_DEFINITION_REPRESENTATION ( #855, #36 ) ;
#209 = DIRECTION ( 'NONE',  ( -8.604828063324852235E-22, 8.957607649412248929E-22, -1.000000000000000000 ) ) ;
#210 = PROPERTY_DEFINITION ('external definition','', #377 ) ;
#211 = PROPERTY_DEFINITION ('document property','', #550 ) ;
#212 = APPLIED_DOCUMENT_REFERENCE ( #832,'',( #870) ) ;
#213 = IDENTIFICATION_ROLE ( 'external document id and location', $) ;
#214 = PRODUCT_DEFINITION_FORMATION_WITH_SPECIFIED_SOURCE ( 'Symmetric', '', #805, .NOT_KNOWN. ) ;
#215 = ROLE_ASSOCIATION ( #687, #636 ) ;
#216 = APPLIED_EXTERNAL_IDENTIFICATION_ASSIGNMENT ( 'ISO 7380 - M3 x 12 - 12N_ISO 7380 - M3 x 12 - 12N.STEP' , #680, #549,( #207) ) ;
#217 = DIRECTION ( 'NONE',  ( 1.000000000000000000, 0.000000000000000000, 0.000000000000000000 ) ) ;
#218 = EXTERNAL_SOURCE (IDENTIFIER('') ) ;
#219 =( NAMED_UNIT ( * ) PLANE_ANGLE_UNIT ( ) SI_UNIT ( $, .RADIAN. ) );
#220 = ITEM_DEFINED_TRANSFORMATION ( 'NONE', 'NONE', #754,  #602 ) ;
#221 = DIRECTION ( 'NONE',  ( 0.3743556423931883037, 0.9272852058608415105, 2.512358821634752496E-21 ) ) ;
#222 = PROPERTY_DEFINITION ('document property','', #203 ) ;
#223 = PROPERTY_DEFINITION_REPRESENTATION ( #830, #225 ) ;
#224 = DIRECTION ( 'NONE',  ( -1.000000000000000000, 0.000000000000000000, 0.000000000000000000 ) ) ;
#225 = SHAPE_REPRESENTATION ( 'Part2_GR', ( #519 ), #587 ) ;
#226 = DOCUMENT_TYPE ( 'geometry' ) ;
#227 = UNCERTAINTY_MEASURE_WITH_UNIT (LENGTH_MEASURE( 1.000000000000000082E-05 ), #148, 'distance_accuracy_value', 'NONE');
#228 = DIRECTION ( 'NONE',  ( 1.000000000000000000, 0.000000000000000000, 0.000000000000000000 ) ) ;
#229 = PROPERTY_DEFINITION_REPRESENTATION ( #121, #572 ) ;
#230 = CONTEXT_DEPENDENT_SHAPE_REPRESENTATION ( #586, #107 ) ;
#231 =( GEOMETRIC_REPRESENTATION_CONTEXT ( 3 ) GLOBAL_UNCERTAINTY_ASSIGNED_CONTEXT ( ( #71 ) ) GLOBAL_UNIT_ASSIGNED_CONTEXT ( ( #673, #748, #878 ) ) REPRESENTATION_CONTEXT ( 'NONE', 'WORKASPACE' ) );
#232 = PRODUCT_DEFINITION_SHAPE ( 'NONE', 'NONE',  #889 ) ;
#233 = AXIS2_PLACEMENT_3D ( 'NONE', #765, #6, #137 ) ;
#234 = DIRECTION ( 'NONE',  ( 0.7721289598858288583, -0.6354658679312591429, -5.683010795961321211E-17 ) ) ;
#235 = APPLIED_EXTERNAL_IDENTIFICATION_ASSIGNMENT ( 'ISO - 4032 - M3 - W - N_ISO - 4032 - M3 - W - N.STEP' , #306, #400,( #401) ) ;
#236 = DIRECTION ( 'NONE',  ( 0.000000000000000000, 0.000000000000000000, 1.000000000000000000 ) ) ;
#237 = EXTERNAL_SOURCE (IDENTIFIER('') ) ;
#238 = SHAPE_REPRESENTATION ( 'Part4_GR', ( #574 ), #430 ) ;
#239 = CARTESIAN_POINT ( 'NONE',  ( 0.000000000000000000, 0.000000000000000000, 0.000000000000000000 ) ) ;
#240 = DIRECTION ( 'NONE',  ( 0.000000000000000000, 0.000000000000000000, -1.000000000000000000 ) ) ;
#241 = DIRECTION ( 'NONE',  ( 1.000000000000000000, 0.000000000000000000, 0.000000000000000000 ) ) ;
#242 = EXTERNAL_SOURCE (IDENTIFIER('') ) ;
#243 = ITEM_DEFINED_TRANSFORMATION ( 'NONE', 'NONE', #332,  #602 ) ;
#244 = CARTESIAN_POINT ( 'NONE',  ( 0.000000000000000000, 0.000000000000000000, 0.000000000000000000 ) ) ;
#245 = AXIS2_PLACEMENT_3D ( 'NONE', #551, #614, #333 ) ;
#246 = APPLIED_EXTERNAL_IDENTIFICATION_ASSIGNMENT ( 'Part6_GR.STEP' , #751, #417,( #390) ) ;
#247 = APPLIED_DOCUMENT_REFERENCE ( #112,'',( #744) ) ;
#248 = PRODUCT_RELATED_PRODUCT_CATEGORY ( 'part', '', ( #56 ) ) ;
#249 = SHAPE_DEFINITION_REPRESENTATION ( #182, #858 ) ;
#250 = PRODUCT_DEFINITION_SHAPE ( 'NONE', 'NONE',  #906 ) ;
#251 =( NAMED_UNIT ( * ) PLANE_ANGLE_UNIT ( ) SI_UNIT ( $, .RADIAN. ) );
#252 = DOCUMENT_TYPE ( 'geometry' ) ;
#253 = EXTERNAL_SOURCE (IDENTIFIER('') ) ;
#254 = PROPERTY_DEFINITION_REPRESENTATION ( #7, #36 ) ;
#255 = APPLICATION_CONTEXT ( 'automotive_design' ) ;
#256 = PROPERTY_DEFINITION_REPRESENTATION ( #326, #628 ) ;
#257 = PROPERTY_DEFINITION ('external definition','', #112 ) ;
#258 = PRODUCT_CONTEXT ( 'NONE', #456, 'mechanical' ) ;
#259 = CARTESIAN_POINT ( 'NONE',  ( 0.000000000000000000, 0.000000000000000000, 0.000000000000000000 ) ) ;
#260 = PRODUCT_DEFINITION ( 'General', '', #296, #185 ) ;
#261 = APPLIED_EXTERNAL_IDENTIFICATION_ASSIGNMENT ( 'Part1_GR.STEP' , #795, #642,( #702) ) ;
#262 = DOCUMENT_TYPE ( 'geometry' ) ;
#263 = APPLIED_DOCUMENT_REFERENCE ( #601,'',( #617) ) ;
#264 =( REPRESENTATION_RELATIONSHIP ('NONE','NONE', #287, #628 ) REPRESENTATION_RELATIONSHIP_WITH_TRANSFORMATION ( #656 )SHAPE_REPRESENTATION_RELATIONSHIP( ) );
#265 = ROLE_ASSOCIATION ( #788, #578 ) ;
#266 = APPLICATION_PROTOCOL_DEFINITION ( 'draft international standard', 'automotive_design', 1998, #456 ) ;
#267 = PRODUCT_DEFINITION_CONTEXT ( 'detailed design', #89, 'design' ) ;
#268 = PROPERTY_DEFINITION ('document property','', #72 ) ;
#269 = ITEM_DEFINED_TRANSFORMATION ( 'NONE', 'NONE', #604,  #507 ) ;
#270 = EXTERNAL_SOURCE (IDENTIFIER('') ) ;
#271 =( NAMED_UNIT ( * ) SI_UNIT ( $, .STERADIAN. ) SOLID_ANGLE_UNIT ( ) );
#272 = ROLE_ASSOCIATION ( #360, #705 ) ;
#273 = PRODUCT_DEFINITION_SHAPE ( 'NONE', 'NONE',  #907 ) ;
#274 = DIRECTION ( 'NONE',  ( -0.0007855246844240093389, 0.9999996914754375466, -1.024121169808617398E-20 ) ) ;
#275 = APPLICATION_CONTEXT ( 'automotive_design' ) ;
#276 = PRODUCT_DEFINITION_SHAPE ( 'NONE', 'NONE',  #894 ) ;
#277 = EXTERNAL_SOURCE (IDENTIFIER('') ) ;
#278 = AXIS2_PLACEMENT_3D ( 'NONE', #244, #439, #866 ) ;
#279 = PROPERTY_DEFINITION_REPRESENTATION ( #694, #572 ) ;
#280 = APPLIED_EXTERNAL_IDENTIFICATION_ASSIGNMENT ( 'ISO 7380 - M3 x 12 - 12N_ISO 7380 - M3 x 12 - 12N.STEP' , #169, #861,( #860) ) ;
#281 = PROPERTY_DEFINITION_REPRESENTATION ( #862, #225 ) ;
#282 = DIRECTION ( 'NONE',  ( 0.9413715270744968944, 0.3373716763651478101, -4.271875729888247486E-16 ) ) ;
#283 = EXTERNAL_SOURCE (IDENTIFIER('') ) ;
#284 = ROLE_ASSOCIATION ( #436, #126 ) ;
#285 = PRODUCT ( 'Gripper Assembly', 'Gripper Assembly', '', ( #109 ) ) ;
#286 = DIRECTION ( 'NONE',  ( -2.357364578013328431E-16, 2.184980245682333018E-17, -0.9999999999999998890 ) ) ;
#287 = SHAPE_REPRESENTATION ( 'Gripper Assembly', ( #278, #124, #374, #740, #521, #604, #640, #815, #798, #698, #245, #398, #322, #332, #754, #362, #683, #312, #834, #233, #715, #787, #576, #874, #295, #478, #5, #418, #449, #26, #533, #771 ), #432 ) ;
#288 = PRODUCT_DEFINITION_CONTEXT ( 'detailed design', #757, 'design' ) ;
#289 =( NAMED_UNIT ( * ) SI_UNIT ( $, .STERADIAN. ) SOLID_ANGLE_UNIT ( ) );
#290 = PROPERTY_DEFINITION_REPRESENTATION ( #472, #820 ) ;
#291 = DOCUMENT_TYPE ( 'geometry' ) ;
#292 = CONTEXT_DEPENDENT_SHAPE_REPRESENTATION ( #34, #232 ) ;
#293 = DIRECTION ( 'NONE',  ( 2.711479116015997318E-21, -3.804025240186996068E-21, 0.9999999999999998890 ) ) ;
#294 = PRODUCT_DEFINITION_SHAPE ( 'NONE', 'NONE',  #319 ) ;
#295 = AXIS2_PLACEMENT_3D ( 'NONE', #859, #450, #234 ) ;
#296 = PRODUCT_DEFINITION_FORMATION_WITH_SPECIFIED_SOURCE ( 'Symmetric', '', #620, .NOT_KNOWN. ) ;
#297 = PROPERTY_DEFINITION_REPRESENTATION ( #54, #225 ) ;
#298 = APPLIED_EXTERNAL_IDENTIFICATION_ASSIGNMENT ( 'Part8_GR.STEP' , #511, #501,( #633) ) ;
#299 = APPLICATION_CONTEXT ( 'automotive_design' ) ;
#300 = DIRECTION ( 'NONE',  ( 7.228014483236694583E-17, -1.000000000000000000, 0.000000000000000000 ) ) ;
#301 = DOCUMENT_TYPE ( 'geometry' ) ;
#302 = ROLE_ASSOCIATION ( #734, #16 ) ;
#303 =( NAMED_UNIT ( * ) SI_UNIT ( $, .STERADIAN. ) SOLID_ANGLE_UNIT ( ) );
#304 = PRODUCT_DEFINITION_SHAPE ( 'NONE', 'NONE',  #617 ) ;
#305 =( REPRESENTATION_RELATIONSHIP ('NONE','NONE', #287, #225 ) REPRESENTATION_RELATIONSHIP_WITH_TRANSFORMATION ( #504 )SHAPE_REPRESENTATION_RELATIONSHIP( ) );
#306 = IDENTIFICATION_ROLE ( 'external document id and location', $) ;
#307 = SHAPE_REPRESENTATION ( 'Part8_GR', ( #23 ), #153 ) ;
#308 = PROPERTY_DEFINITION_REPRESENTATION ( #762, #225 ) ;
#309 = APPLICATION_CONTEXT ( 'automotive_design' ) ;
#310 = DIRECTION ( 'NONE',  ( 1.000000000000000000, 0.000000000000000000, 0.000000000000000000 ) ) ;
#311 = PRODUCT ( 'Towerpro Micro Servo 9g_Varsay\X2\0131\X0\lan', 'Towerpro Micro Servo 9g_Varsay\X2\0131\X0\lan', '', ( #725 ) ) ;
#312 = AXIS2_PLACEMENT_3D ( 'NONE', #143, #622, #80 ) ;
#313 = DIRECTION ( 'NONE',  ( -0.7358610672506106232, 0.6771325495830131658, 1.882644938730413282E-16 ) ) ;
#314 =( NAMED_UNIT ( * ) SI_UNIT ( $, .STERADIAN. ) SOLID_ANGLE_UNIT ( ) );
#315 = ITEM_DEFINED_TRANSFORMATION ( 'NONE', 'NONE', #715,  #373 ) ;
#316 = SHAPE_DEFINITION_REPRESENTATION ( #24, #572 ) ;
#317 =( LENGTH_UNIT ( ) NAMED_UNIT ( * ) SI_UNIT ( .MILLI., .METRE. ) );
#318 =( REPRESENTATION_RELATIONSHIP ('NONE','NONE', #287, #36 ) REPRESENTATION_RELATIONSHIP_WITH_TRANSFORMATION ( #421 )SHAPE_REPRESENTATION_RELATIONSHIP( ) );
#319 = PRODUCT_DEFINITION ( 'General', '', #588, #502 ) ;
#320 = CONTEXT_DEPENDENT_SHAPE_REPRESENTATION ( #163, #812 ) ;
#321 = APPLICATION_PROTOCOL_DEFINITION ( 'draft international standard', 'automotive_design', 1998, #89 ) ;
#322 = AXIS2_PLACEMENT_3D ( 'NONE', #625, #546, #558 ) ;
#323 = APPLICATION_CONTEXT ( 'automotive_design' ) ;
#324 = IDENTIFICATION_ROLE ( 'external document id and location', $) ;
#325 = APPLIED_DOCUMENT_REFERENCE ( #584,'',( #870) ) ;
#326 = PROPERTY_DEFINITION ('document property','', #381 ) ;
#327 =( REPRESENTATION_RELATIONSHIP ('NONE','NONE', #287, #225 ) REPRESENTATION_RELATIONSHIP_WITH_TRANSFORMATION ( #410 )SHAPE_REPRESENTATION_RELATIONSHIP( ) );
#328 = PRODUCT_CONTEXT ( 'NONE', #331, 'mechanical' ) ;
#329 = PROPERTY_DEFINITION ('external definition','', #832 ) ;
#330 = CONTEXT_DEPENDENT_SHAPE_REPRESENTATION ( #376, #630 ) ;
#331 = APPLICATION_CONTEXT ( 'automotive_design' ) ;
#332 = AXIS2_PLACEMENT_3D ( 'NONE', #691, #282, #697 ) ;
#333 = DIRECTION ( 'NONE',  ( -0.0007855246844239868959, 0.9999996914754375466, -8.846446369437202401E-21 ) ) ;
#334 = ITEM_DEFINED_TRANSFORMATION ( 'NONE', 'NONE', #26,  #373 ) ;
#335 = APPLIED_DOCUMENT_REFERENCE ( #50,'',( #319) ) ;
#336 =( NAMED_UNIT ( * ) PLANE_ANGLE_UNIT ( ) SI_UNIT ( $, .RADIAN. ) );
#337 = IDENTIFICATION_ROLE ( 'external document id and location', $) ;
#338 = PROPERTY_DEFINITION ('document property','', #616 ) ;
#339 =( REPRESENTATION_RELATIONSHIP ('NONE','NONE', #287, #628 ) REPRESENTATION_RELATIONSHIP_WITH_TRANSFORMATION ( #809 )SHAPE_REPRESENTATION_RELATIONSHIP( ) );
#340 = PRODUCT_DEFINITION_SHAPE ( 'NONE', 'NONE',  #893 ) ;
#341 = PROPERTY_DEFINITION_REPRESENTATION ( #77, #36 ) ;
#342 = CARTESIAN_POINT ( 'NONE',  ( 13.49999999999369926, 68.59971590679927544, -3.000000000000000444 ) ) ;
#343 = APPLIED_DOCUMENT_REFERENCE ( #401,'',( #881) ) ;
#344 = DOCUMENT_TYPE ( 'geometry' ) ;
#345 = CONTEXT_DEPENDENT_SHAPE_REPRESENTATION ( #327, #276 ) ;
#346 = DIRECTION ( 'NONE',  ( 0.000000000000000000, 0.000000000000000000, -1.000000000000000000 ) ) ;
#347 = PRODUCT ( 'Part2_GR', 'Part2_GR', '', ( #742 ) ) ;
#348 = PRODUCT_DEFINITION_FORMATION_WITH_SPECIFIED_SOURCE ( 'Symmetric', '', #311, .NOT_KNOWN. ) ;
#349 = DOCUMENT_FILE ( 'Towerpro Micro Servo 9g_Varsay\X2\0131\X0\lan.STEP' , '', '', #66, '' ,$ ) ;
#350 =( REPRESENTATION_RELATIONSHIP ('NONE','NONE', #287, #238 ) REPRESENTATION_RELATIONSHIP_WITH_TRANSFORMATION ( #469 )SHAPE_REPRESENTATION_RELATIONSHIP( ) );
#351 = CARTESIAN_POINT ( 'NONE',  ( 1.734723475976807094E-15, -5.000000000000001776, 3.500000000000000000 ) ) ;
#352 = APPLIED_DOCUMENT_REFERENCE ( #72,'',( #539) ) ;
#353 = PROPERTY_DEFINITION ('external definition','', #724 ) ;
#354 = CONTEXT_DEPENDENT_SHAPE_REPRESENTATION ( #30, #132 ) ;
#355 = PROPERTY_DEFINITION ('external definition','', #487 ) ;
#356 = DIRECTION ( 'NONE',  ( 0.5455969947934271591, -0.8380476831734462451, 1.039577137656619362E-21 ) ) ;
#357 = IDENTIFICATION_ROLE ( 'external document id and location', $) ;
#358 = DIRECTION ( 'NONE',  ( 0.000000000000000000, 0.000000000000000000, 1.000000000000000000 ) ) ;
#359 = DIRECTION ( 'NONE',  ( 1.240369305767188750E-17, -2.500166326881063003E-17, -0.9999999999999998890 ) ) ;
#360 = OBJECT_ROLE ('mandatory',$ ) ;
#361 = PRODUCT_DEFINITION_SHAPE ( 'NONE', 'NONE',  #890 ) ;
#362 = AXIS2_PLACEMENT_3D ( 'NONE', #848, #411, #61 ) ;
#363 = APPLIED_EXTERNAL_IDENTIFICATION_ASSIGNMENT ( 'ISO - 4032 - M3 - W - N_ISO - 4032 - M3 - W - N.STEP' , #388, #253,( #60) ) ;
#364 = DIRECTION ( 'NONE',  ( 4.440892098500627148E-16, -1.000000000000000000, 4.858808944943190137E-16 ) ) ;
#365 = UNCERTAINTY_MEASURE_WITH_UNIT (LENGTH_MEASURE( 1.000000000000000082E-05 ), #581, 'distance_accuracy_value', 'NONE');
#366 =( REPRESENTATION_RELATIONSHIP ('NONE','NONE', #287, #858 ) REPRESENTATION_RELATIONSHIP_WITH_TRANSFORMATION ( #532 )SHAPE_REPRESENTATION_RELATIONSHIP( ) );
#367 = ROLE_ASSOCIATION ( #701, #499 ) ;
#368 =( REPRESENTATION_RELATIONSHIP ('NONE','NONE', #287, #485 ) REPRESENTATION_RELATIONSHIP_WITH_TRANSFORMATION ( #827 )SHAPE_REPRESENTATION_RELATIONSHIP( ) );
#369 = PROPERTY_DEFINITION ('document property','', #603 ) ;
#370 =( LENGTH_UNIT ( ) NAMED_UNIT ( * ) SI_UNIT ( .MILLI., .METRE. ) );
#371 = CARTESIAN_POINT ( 'NONE',  ( 2.250000000000015099, 17.59971590679801423, -33.50000000000000000 ) ) ;
#372 = DOCUMENT_TYPE ( 'geometry' ) ;
#373 = AXIS2_PLACEMENT_3D ( 'NONE', #93, #863, #457 ) ;
#374 = AXIS2_PLACEMENT_3D ( 'NONE', #43, #209, #634 ) ;
#375 = APPLIED_EXTERNAL_IDENTIFICATION_ASSIGNMENT ( 'Part6_GR.STEP' , #739, #864,( #381) ) ;
#376 =( REPRESENTATION_RELATIONSHIP ('NONE','NONE', #287, #129 ) REPRESENTATION_RELATIONSHIP_WITH_TRANSFORMATION ( #461 )SHAPE_REPRESENTATION_RELATIONSHIP( ) );
#377 = DOCUMENT_FILE ( 'Part2_GR.STEP' , '', '', #704, '' ,$ ) ;
#378 = PRODUCT_RELATED_PRODUCT_CATEGORY ( 'part', '', ( #620 ) ) ;
#379 =( REPRESENTATION_RELATIONSHIP ('NONE','NONE', #287, #36 ) REPRESENTATION_RELATIONSHIP_WITH_TRANSFORMATION ( #179 )SHAPE_REPRESENTATION_RELATIONSHIP( ) );
#380 = OBJECT_ROLE ('mandatory',$ ) ;
#381 = DOCUMENT_FILE ( 'Part6_GR.STEP' , '', '', #612, '' ,$ ) ;
#382 = APPLICATION_PROTOCOL_DEFINITION ( 'draft international standard', 'automotive_design', 1998, #660 ) ;
#383 = PRODUCT_DEFINITION_SHAPE ( 'NONE', 'NONE',  #901 ) ;
#384 = ROLE_ASSOCIATION ( #647, #247 ) ;
#385 = OBJECT_ROLE ('mandatory',$ ) ;
#386 = APPLICATION_PROTOCOL_DEFINITION ( 'draft international standard', 'automotive_design', 1998, #579 ) ;
#387 = DOCUMENT_FILE ( 'Part1_GR.STEP' , '', '', #810, '' ,$ ) ;
#388 = IDENTIFICATION_ROLE ( 'external document id and location', $) ;
#389 = DIRECTION ( 'NONE',  ( -0.1305261922200453839, 0.9914448613738113814, -7.623831198381332418E-16 ) ) ;
#390 = DOCUMENT_FILE ( 'Part6_GR.STEP' , '', '', #180, '' ,$ ) ;
#391 = APPLICATION_PROTOCOL_DEFINITION ( 'draft international standard', 'automotive_design', 1998, #173 ) ;
#392 = IDENTIFICATION_ROLE ( 'external document id and location', $) ;
#393 = PRODUCT_DEFINITION_SHAPE ( 'NONE', 'NONE',  #912 ) ;
#394 = DOCUMENT_FILE ( 'Part1_GR.STEP' , '', '', #205, '' ,$ ) ;
#395 = PROPERTY_DEFINITION_REPRESENTATION ( #329, #14 ) ;
#396 = PRODUCT_DEFINITION_SHAPE ( 'NONE', 'NONE',  #915 ) ;
#397 =( GEOMETRIC_REPRESENTATION_CONTEXT ( 3 ) GLOBAL_UNCERTAINTY_ASSIGNED_CONTEXT ( ( #206 ) ) GLOBAL_UNIT_ASSIGNED_CONTEXT ( ( #852, #577, #314 ) ) REPRESENTATION_CONTEXT ( 'NONE', 'WORKASPACE' ) );
#398 = AXIS2_PLACEMENT_3D ( 'NONE', #554, #127, #286 ) ;
#399 = OBJECT_ROLE ('mandatory',$ ) ;
#400 = EXTERNAL_SOURCE (IDENTIFIER('') ) ;
#401 = DOCUMENT_FILE ( 'ISO - 4032 - M3 - W - N_ISO - 4032 - M3 - W - N.STEP' , '', '', #589, '' ,$ ) ;
#402 = PROPERTY_DEFINITION_REPRESENTATION ( #494, #238 ) ;
#403 = DIRECTION ( 'NONE',  ( 0.3743556423931883037, 0.9272852058608415105, 2.512358821634755129E-21 ) ) ;
#404 = PRODUCT_RELATED_PRODUCT_CATEGORY ( 'part', '', ( #431 ) ) ;
#405 = UNCERTAINTY_MEASURE_WITH_UNIT (LENGTH_MEASURE( 1.000000000000000082E-05 ), #654, 'distance_accuracy_value', 'NONE');
#406 = PROPERTY_DEFINITION ('external definition','', #584 ) ;
#407 = PRODUCT_DEFINITION_SHAPE ( 'NONE', 'NONE',  #891 ) ;
#408 = CONTEXT_DEPENDENT_SHAPE_REPRESENTATION ( #458, #822 ) ;
#409 = APPLICATION_CONTEXT ( 'automotive_design' ) ;
#410 = ITEM_DEFINED_TRANSFORMATION ( 'NONE', 'NONE', #245,  #519 ) ;
#411 = DIRECTION ( 'NONE',  ( 4.356555060909372757E-17, 1.083059639301487754E-17, -1.000000000000000000 ) ) ;
#412 = OBJECT_ROLE ('mandatory',$ ) ;
#413 = ROLE_ASSOCIATION ( #446, #140 ) ;
#414 = PRODUCT_DEFINITION_SHAPE ( 'NONE', 'NONE',  #899 ) ;
#415 = DIRECTION ( 'NONE',  ( 0.5420833449289076400, -0.8403247272041248772, 4.144246817013676342E-21 ) ) ;
#416 = PRODUCT ( 'Part1_GR', 'Part1_GR', '', ( #114 ) ) ;
#417 = EXTERNAL_SOURCE (IDENTIFIER('') ) ;
#418 = AXIS2_PLACEMENT_3D ( 'NONE', #371, #569, #364 ) ;
#419 = PROPERTY_DEFINITION_REPRESENTATION ( #268, #820 ) ;
#420 = PRODUCT_RELATED_PRODUCT_CATEGORY ( 'part', '', ( #847 ) ) ;
#421 = ITEM_DEFINED_TRANSFORMATION ( 'NONE', 'NONE', #698,  #507 ) ;
#422 = DIRECTION ( 'NONE',  ( -0.2198160962233581539, 0.9755413286176671805, 8.733125561817142460E-17 ) ) ;
#423 = OBJECT_ROLE ('mandatory',$ ) ;
#424 = CONTEXT_DEPENDENT_SHAPE_REPRESENTATION ( #318, #340 ) ;
#425 = PRODUCT_DEFINITION_SHAPE ( 'NONE', 'NONE',  #539 ) ;
#426 = CARTESIAN_POINT ( 'NONE',  ( -5.239824601909229607, 57.99999999999999289, 3.000000000000000000 ) ) ;
#427 = APPLICATION_CONTEXT ( 'automotive_design' ) ;
#428 = DOCUMENT_TYPE ( 'geometry' ) ;
#429 = DIRECTION ( 'NONE',  ( 2.428612866367530857E-17, -1.000000000000000000, -1.927839248507118525E-16 ) ) ;
#430 =( GEOMETRIC_REPRESENTATION_CONTEXT ( 3 ) GLOBAL_UNCERTAINTY_ASSIGNED_CONTEXT ( ( #570 ) ) GLOBAL_UNIT_ASSIGNED_CONTEXT ( ( #716, #443, #189 ) ) REPRESENTATION_CONTEXT ( 'NONE', 'WORKASPACE' ) );
#431 = PRODUCT ( 'ISO - 4032 - M3 - W - N_ISO - 4032 - M3 - W - N', 'ISO - 4032 - M3 - W - N_ISO - 4032 - M3 - W - N', '', ( #162 ) ) ;
#432 =( GEOMETRIC_REPRESENTATION_CONTEXT ( 3 ) GLOBAL_UNCERTAINTY_ASSIGNED_CONTEXT ( ( #405 ) ) GLOBAL_UNIT_ASSIGNED_CONTEXT ( ( #654, #516, #303 ) ) REPRESENTATION_CONTEXT ( 'NONE', 'WORKASPACE' ) );
#433 = DIRECTION ( 'NONE',  ( 1.000000000000000000, 0.000000000000000000, 0.000000000000000000 ) ) ;
#434 = APPLIED_EXTERNAL_IDENTIFICATION_ASSIGNMENT ( 'Part1_GR.STEP' , #669, #218,( #387) ) ;
#435 = PRODUCT_CONTEXT ( 'NONE', #113, 'mechanical' ) ;
#436 = OBJECT_ROLE ('mandatory',$ ) ;
#437 = PRODUCT_DEFINITION_CONTEXT ( 'detailed design', #45, 'design' ) ;
#438 = OBJECT_ROLE ('mandatory',$ ) ;
#439 = DIRECTION ( 'NONE',  ( 0.000000000000000000, 0.000000000000000000, 1.000000000000000000 ) ) ;
#440 = PROPERTY_DEFINITION ('external definition','', #394 ) ;
#441 = DOCUMENT_TYPE ( 'geometry' ) ;
#442 =( REPRESENTATION_RELATIONSHIP ('NONE','NONE', #287, #572 ) REPRESENTATION_RELATIONSHIP_WITH_TRANSFORMATION ( #202 )SHAPE_REPRESENTATION_RELATIONSHIP( ) );
#443 =( NAMED_UNIT ( * ) PLANE_ANGLE_UNIT ( ) SI_UNIT ( $, .RADIAN. ) );
#444 = APPLIED_DOCUMENT_REFERENCE ( #724,'',( #617) ) ;
#445 = APPLICATION_PROTOCOL_DEFINITION ( 'draft international standard', 'automotive_design', 1998, #610 ) ;
#446 = OBJECT_ROLE ('mandatory',$ ) ;
#447 = ROLE_ASSOCIATION ( #559, #444 ) ;
#448 =( GEOMETRIC_REPRESENTATION_CONTEXT ( 3 ) GLOBAL_UNCERTAINTY_ASSIGNED_CONTEXT ( ( #512 ) ) GLOBAL_UNIT_ASSIGNED_CONTEXT ( ( #743, #251, #271 ) ) REPRESENTATION_CONTEXT ( 'NONE', 'WORKASPACE' ) );
#449 = AXIS2_PLACEMENT_3D ( 'NONE', #712, #313, #150 ) ;
#450 = DIRECTION ( 'NONE',  ( -0.6354658679312590319, -0.7721289598858287473, 1.926829738619145458E-17 ) ) ;
#451 = SHAPE_DEFINITION_REPRESENTATION ( #154, #225 ) ;
#452 = ITEM_DEFINED_TRANSFORMATION ( 'NONE', 'NONE', #874,  #602 ) ;
#453 = IDENTIFICATION_ROLE ( 'external document id and location', $) ;
#454 = APPLICATION_PROTOCOL_DEFINITION ( 'draft international standard', 'automotive_design', 1998, #427 ) ;
#455 = DOCUMENT_FILE ( 'Part5_GR.STEP' , '', '', #62, '' ,$ ) ;
#456 = APPLICATION_CONTEXT ( 'automotive_design' ) ;
#457 = DIRECTION ( 'NONE',  ( 1.000000000000000000, 0.000000000000000000, 0.000000000000000000 ) ) ;
#458 =( REPRESENTATION_RELATIONSHIP ('NONE','NONE', #287, #572 ) REPRESENTATION_RELATIONSHIP_WITH_TRANSFORMATION ( #53 )SHAPE_REPRESENTATION_RELATIONSHIP( ) );
#459 = PROPERTY_DEFINITION ('external definition','', #381 ) ;
#460 = ITEM_DEFINED_TRANSFORMATION ( 'NONE', 'NONE', #233,  #85 ) ;
#461 = ITEM_DEFINED_TRANSFORMATION ( 'NONE', 'NONE', #740,  #85 ) ;
#462 =( NAMED_UNIT ( * ) PLANE_ANGLE_UNIT ( ) SI_UNIT ( $, .RADIAN. ) );
#463 =( REPRESENTATION_RELATIONSHIP ('NONE','NONE', #287, #820 ) REPRESENTATION_RELATIONSHIP_WITH_TRANSFORMATION ( #793 )SHAPE_REPRESENTATION_RELATIONSHIP( ) );
#464 = ITEM_DEFINED_TRANSFORMATION ( 'NONE', 'NONE', #295,  #602 ) ;
#465 = SHAPE_DEFINITION_REPRESENTATION ( #304, #628 ) ;
#466 = PRODUCT_DEFINITION_SHAPE ( 'NONE', 'NONE',  #905 ) ;
#467 = PROPERTY_DEFINITION_REPRESENTATION ( #178, #628 ) ;
#468 = EXTERNAL_SOURCE (IDENTIFIER('') ) ;
#469 = ITEM_DEFINED_TRANSFORMATION ( 'NONE', 'NONE', #521,  #574 ) ;
#470 = DIRECTION ( 'NONE',  ( 1.000000000000000000, 0.000000000000000000, 0.000000000000000000 ) ) ;
#471 = CONTEXT_DEPENDENT_SHAPE_REPRESENTATION ( #871, #483 ) ;
#472 = PROPERTY_DEFINITION ('external definition','', #207 ) ;
#473 = APPLICATION_CONTEXT ( 'automotive_design' ) ;
#474 = PRODUCT_DEFINITION ( 'General', '', #348, #825 ) ;
#475 = CONTEXT_DEPENDENT_SHAPE_REPRESENTATION ( #542, #713 ) ;
#476 = PRODUCT_DEFINITION_SHAPE ( 'NONE', 'NONE',  #784 ) ;
#477 = OBJECT_ROLE ('mandatory',$ ) ;
#478 = AXIS2_PLACEMENT_3D ( 'NONE', #158, #873, #649 ) ;
#479 = APPLIED_EXTERNAL_IDENTIFICATION_ASSIGNMENT ( 'Part3_GR.STEP' , #806, #270,( #112) ) ;
#480 = APPLIED_DOCUMENT_REFERENCE ( #550,'',( #761) ) ;
#481 = CARTESIAN_POINT ( 'NONE',  ( 5.239824601861909237, 58.00000000000426326, 3.000000000000000000 ) ) ;
#482 =( REPRESENTATION_RELATIONSHIP ('NONE','NONE', #287, #628 ) REPRESENTATION_RELATIONSHIP_WITH_TRANSFORMATION ( #170 )SHAPE_REPRESENTATION_RELATIONSHIP( ) );
#483 = PRODUCT_DEFINITION_SHAPE ( 'NONE', 'NONE',  #913 ) ;
#484 = PROPERTY_DEFINITION ('document property','', #702 ) ;
#485 = SHAPE_REPRESENTATION ( 'Towerpro Micro Servo 9g_Varsay\X2\0131\X0\lan', ( #813 ), #448 ) ;
#486 = CONTEXT_DEPENDENT_SHAPE_REPRESENTATION ( #442, #396 ) ;
#487 = DOCUMENT_FILE ( 'Part1_GR.STEP' , '', '', #674, '' ,$ ) ;
#488 = DIRECTION ( 'NONE',  ( -0.8403247272041247662, -0.5420833449289075290, 9.903843860638482679E-21 ) ) ;
#489 = EXTERNAL_SOURCE (IDENTIFIER('') ) ;
#490 = CONTEXT_DEPENDENT_SHAPE_REPRESENTATION ( #37, #671 ) ;
#491 = ITEM_DEFINED_TRANSFORMATION ( 'NONE', 'NONE', #398,  #23 ) ;
#492 = PRODUCT_DEFINITION_SHAPE ( 'NONE', 'NONE',  #909 ) ;
#493 = DIRECTION ( 'NONE',  ( 2.711479116015996942E-21, -3.804025240186998325E-21, 0.9999999999999998890 ) ) ;
#494 = PROPERTY_DEFINITION ('external definition','', #50 ) ;
#495 = PRODUCT_DEFINITION_FORMATION_WITH_SPECIFIED_SOURCE ( 'Symmetric', '', #416, .NOT_KNOWN. ) ;
#496 = PROPERTY_DEFINITION_REPRESENTATION ( #338, #628 ) ;
#497 = PRODUCT_DEFINITION_SHAPE ( 'NONE', 'NONE',  #903 ) ;
#498 = CARTESIAN_POINT ( 'NONE',  ( -13.49999999975464959, 68.59971590680132181, -1.947856286503453495E-14 ) ) ;
#499 = APPLIED_DOCUMENT_REFERENCE ( #860,'',( #539) ) ;
#500 = CARTESIAN_POINT ( 'NONE',  ( -13.49999999975464959, 68.59971590680132181, -3.000000000000019096 ) ) ;
#501 = EXTERNAL_SOURCE (IDENTIFIER('') ) ;
#502 = PRODUCT_DEFINITION_CONTEXT ( 'detailed design', #323, 'design' ) ;
#503 =( NAMED_UNIT ( * ) PLANE_ANGLE_UNIT ( ) SI_UNIT ( $, .RADIAN. ) );
#504 = ITEM_DEFINED_TRANSFORMATION ( 'NONE', 'NONE', #312,  #519 ) ;
#505 = APPLICATION_PROTOCOL_DEFINITION ( 'draft international standard', 'automotive_design', 1998, #564 ) ;
#506 = APPLICATION_CONTEXT ( 'automotive_design' ) ;
#507 = AXIS2_PLACEMENT_3D ( 'NONE', #868, #514, #9 ) ;
#508 = PROPERTY_DEFINITION ('external definition','', #619 ) ;
#509 = PRODUCT_DEFINITION_FORMATION_WITH_SPECIFIED_SOURCE ( 'Symmetric', '', #347, .NOT_KNOWN. ) ;
#510 = DIRECTION ( 'NONE',  ( 0.000000000000000000, 0.000000000000000000, 1.000000000000000000 ) ) ;
#511 = IDENTIFICATION_ROLE ( 'external document id and location', $) ;
#512 = UNCERTAINTY_MEASURE_WITH_UNIT (LENGTH_MEASURE( 1.000000000000000082E-05 ), #743, 'distance_accuracy_value', 'NONE');
#513 = DOCUMENT_TYPE ( 'geometry' ) ;
#514 = DIRECTION ( 'NONE',  ( 0.000000000000000000, 0.000000000000000000, 1.000000000000000000 ) ) ;
#515 = PROPERTY_DEFINITION_REPRESENTATION ( #595, #225 ) ;
#516 =( NAMED_UNIT ( * ) PLANE_ANGLE_UNIT ( ) SI_UNIT ( $, .RADIAN. ) );
#517 = APPLIED_DOCUMENT_REFERENCE ( #377,'',( #761) ) ;
#518 = IDENTIFICATION_ROLE ( 'external document id and location', $) ;
#519 = AXIS2_PLACEMENT_3D ( 'NONE', #239, #652, #141 ) ;
#520 = CONTEXT_DEPENDENT_SHAPE_REPRESENTATION ( #339, #250 ) ;
#521 = AXIS2_PLACEMENT_3D ( 'NONE', #145, #57, #70 ) ;
#522 = APPLIED_DOCUMENT_REFERENCE ( #60,'',( #881) ) ;
#523 = CONTEXT_DEPENDENT_SHAPE_REPRESENTATION ( #366, #575 ) ;
#524 = APPLICATION_CONTEXT ( 'automotive_design' ) ;
#525 = EXTERNAL_SOURCE (IDENTIFIER('') ) ;
#526 = PROPERTY_DEFINITION ('external definition','', #860 ) ;
#527 = APPLIED_DOCUMENT_REFERENCE ( #455,'',( #260) ) ;
#528 = CONTEXT_DEPENDENT_SHAPE_REPRESENTATION ( #482, #186 ) ;
#529 = PRODUCT_CONTEXT ( 'NONE', #255, 'mechanical' ) ;
#530 = PROPERTY_DEFINITION ('document property','', #349 ) ;
#531 = ROLE_ASSOCIATION ( #380, #802 ) ;
#532 = ITEM_DEFINED_TRANSFORMATION ( 'NONE', 'NONE', #124,  #638 ) ;
#533 = AXIS2_PLACEMENT_3D ( 'NONE', #580, #582, #17 ) ;
#534 = UNCERTAINTY_MEASURE_WITH_UNIT (LENGTH_MEASURE( 1.000000000000000082E-05 ), #370, 'distance_accuracy_value', 'NONE');
#535 = PROPERTY_DEFINITION_REPRESENTATION ( #879, #628 ) ;
#536 = PROPERTY_DEFINITION_REPRESENTATION ( #3, #129 ) ;
#537 = PROPERTY_DEFINITION ('document property','', #584 ) ;
#538 = OBJECT_ROLE ('mandatory',$ ) ;
#539 = PRODUCT_DEFINITION ( 'General', '', #214, #47 ) ;
#540 = ROLE_ASSOCIATION ( #538, #197 ) ;
#541 = ROLE_ASSOCIATION ( #877, #1 ) ;
#542 =( REPRESENTATION_RELATIONSHIP ('NONE','NONE', #287, #36 ) REPRESENTATION_RELATIONSHIP_WITH_TRANSFORMATION ( #142 )SHAPE_REPRESENTATION_RELATIONSHIP( ) );
#543 = PROPERTY_DEFINITION ('document property','', #390 ) ;
#544 = CONTEXT_DEPENDENT_SHAPE_REPRESENTATION ( #99, #361 ) ;
#545 = PROPERTY_DEFINITION ('external definition','', #550 ) ;
#546 = DIRECTION ( 'NONE',  ( -6.075917713680025784E-21, -8.851221883595635111E-21, -1.000000000000000000 ) ) ;
#547 = PRODUCT_DEFINITION_FORMATION_WITH_SPECIFIED_SOURCE ( 'Symmetric', '', #847, .NOT_KNOWN. ) ;
#548 = PROPERTY_DEFINITION_REPRESENTATION ( #46, #14 ) ;
#549 = EXTERNAL_SOURCE (IDENTIFIER('') ) ;
#550 = DOCUMENT_FILE ( 'Part2_GR.STEP' , '', '', #291, '' ,$ ) ;
#551 = CARTESIAN_POINT ( 'NONE',  ( -5.239824601909229607, 57.99999999999999289, -6.000000000000019540 ) ) ;
#552 = PRODUCT ( 'Part4_GR', 'Part4_GR', '', ( #328 ) ) ;
#553 = OBJECT_ROLE ('mandatory',$ ) ;
#554 = CARTESIAN_POINT ( 'NONE',  ( 7.500000000000206057, 17.59971590679853293, 5.499999999999995559 ) ) ;
#555 =( NAMED_UNIT ( * ) SI_UNIT ( $, .STERADIAN. ) SOLID_ANGLE_UNIT ( ) );
#556 = PROPERTY_DEFINITION_REPRESENTATION ( #745, #820 ) ;
#557 = ITEM_DEFINED_TRANSFORMATION ( 'NONE', 'NONE', #815,  #519 ) ;
#558 = DIRECTION ( 'NONE',  ( 7.370985682259216498E-12, 1.000000000000000000, -8.851221883640422010E-21 ) ) ;
#559 = OBJECT_ROLE ('mandatory',$ ) ;
#560 = APPLIED_EXTERNAL_IDENTIFICATION_ASSIGNMENT ( 'Part2_GR.STEP' , #337, #468,( #203) ) ;
#561 = APPLIED_EXTERNAL_IDENTIFICATION_ASSIGNMENT ( 'Part2_GR.STEP' , #607, #779,( #562) ) ;
#562 = DOCUMENT_FILE ( 'Part2_GR.STEP' , '', '', #12, '' ,$ ) ;
#563 = DIRECTION ( 'NONE',  ( -1.000000000000000000, -7.228014483236694583E-17, 0.000000000000000000 ) ) ;
#564 = APPLICATION_CONTEXT ( 'automotive_design' ) ;
#565 = DOCUMENT_TYPE ( 'geometry' ) ;
#566 = DIRECTION ( 'NONE',  ( 0.000000000000000000, 0.000000000000000000, 1.000000000000000000 ) ) ;
#567 = PROPERTY_DEFINITION_REPRESENTATION ( #193, #628 ) ;
#568 = PROPERTY_DEFINITION ('external definition','', #633 ) ;
#569 = DIRECTION ( 'NONE',  ( -1.000000000000000000, -4.440892098500628134E-16, -3.034279583562256872E-16 ) ) ;
#570 = UNCERTAINTY_MEASURE_WITH_UNIT (LENGTH_MEASURE( 1.000000000000000082E-05 ), #716, 'distance_accuracy_value', 'NONE');
#571 = PROPERTY_DEFINITION_REPRESENTATION ( #353, #628 ) ;
#572 = SHAPE_REPRESENTATION ( 'ISO - 4032 - M3 - W - N_ISO - 4032 - M3 - W - N', ( #679 ), #681 ) ;
#573 = CARTESIAN_POINT ( 'NONE',  ( 0.000000000000000000, 0.000000000000000000, 0.000000000000000000 ) ) ;
#574 = AXIS2_PLACEMENT_3D ( 'NONE', #83, #566, #433 ) ;
#575 = PRODUCT_DEFINITION_SHAPE ( 'NONE', 'NONE',  #885 ) ;
#576 = AXIS2_PLACEMENT_3D ( 'NONE', #703, #76, #356 ) ;
#577 =( NAMED_UNIT ( * ) PLANE_ANGLE_UNIT ( ) SI_UNIT ( $, .RADIAN. ) );
#578 = APPLIED_DOCUMENT_REFERENCE ( #603,'',( #744) ) ;
#579 = APPLICATION_CONTEXT ( 'automotive_design' ) ;
#580 = CARTESIAN_POINT ( 'NONE',  ( 6.000000000000000000, 3.999999999999999112, -8.900000000000002132 ) ) ;
#581 =( LENGTH_UNIT ( ) NAMED_UNIT ( * ) SI_UNIT ( .MILLI., .METRE. ) );
#582 = DIRECTION ( 'NONE',  ( 2.775557561562891351E-17, 0.000000000000000000, -1.000000000000000000 ) ) ;
#583 =( REPRESENTATION_RELATIONSHIP ('NONE','NONE', #287, #628 ) REPRESENTATION_RELATIONSHIP_WITH_TRANSFORMATION ( #452 )SHAPE_REPRESENTATION_RELATIONSHIP( ) );
#584 = DOCUMENT_FILE ( 'Part7_GR.STEP' , '', '', #301, '' ,$ ) ;
#585 = APPLICATION_PROTOCOL_DEFINITION ( 'draft international standard', 'automotive_design', 1998, #309 ) ;
#586 =( REPRESENTATION_RELATIONSHIP ('NONE','NONE', #287, #628 ) REPRESENTATION_RELATIONSHIP_WITH_TRANSFORMATION ( #243 )SHAPE_REPRESENTATION_RELATIONSHIP( ) );
#587 =( GEOMETRIC_REPRESENTATION_CONTEXT ( 3 ) GLOBAL_UNCERTAINTY_ASSIGNED_CONTEXT ( ( #749 ) ) GLOBAL_UNIT_ASSIGNED_CONTEXT ( ( #631, #786, #289 ) ) REPRESENTATION_CONTEXT ( 'NONE', 'WORKASPACE' ) );
#588 = PRODUCT_DEFINITION_FORMATION_WITH_SPECIFIED_SOURCE ( 'Symmetric', '', #552, .NOT_KNOWN. ) ;
#589 = DOCUMENT_TYPE ( 'geometry' ) ;
#590 = APPLIED_EXTERNAL_IDENTIFICATION_ASSIGNMENT ( 'Part4_GR.STEP' , #392, #723,( #50) ) ;
#591 = SHAPE_DEFINITION_REPRESENTATION ( #146, #36 ) ;
#592 =( LENGTH_UNIT ( ) NAMED_UNIT ( * ) SI_UNIT ( .MILLI., .METRE. ) );
#593 = PROPERTY_DEFINITION_REPRESENTATION ( #537, #14 ) ;
#594 = OBJECT_ROLE ('mandatory',$ ) ;
#595 = PROPERTY_DEFINITION ('document property','', #644 ) ;
#596 = CONTEXT_DEPENDENT_SHAPE_REPRESENTATION ( #379, #15 ) ;
#597 = EXTERNAL_SOURCE (IDENTIFIER('') ) ;
#598 = CONTEXT_DEPENDENT_SHAPE_REPRESENTATION ( #583, #273 ) ;
#599 = PRODUCT_CONTEXT ( 'NONE', #856, 'mechanical' ) ;
#600 = PRODUCT_DEFINITION_SHAPE ( 'NONE', 'NONE',  #900 ) ;
#601 = DOCUMENT_FILE ( 'Part6_GR.STEP' , '', '', #19, '' ,$ ) ;
#602 = AXIS2_PLACEMENT_3D ( 'NONE', #91, #510, #470 ) ;
#603 = DOCUMENT_FILE ( 'Part3_GR.STEP' , '', '', #738, '' ,$ ) ;
#604 = AXIS2_PLACEMENT_3D ( 'NONE', #498, #293, #221 ) ;
#605 = DIRECTION ( 'NONE',  ( 1.000000000000000000, 0.000000000000000000, 0.000000000000000000 ) ) ;
#606 = CONTEXT_DEPENDENT_SHAPE_REPRESENTATION ( #115, #466 ) ;
#607 = IDENTIFICATION_ROLE ( 'external document id and location', $) ;
#608 = APPLICATION_PROTOCOL_DEFINITION ( 'draft international standard', 'automotive_design', 1998, #255 ) ;
#609 = PROPERTY_DEFINITION ('document property','', #401 ) ;
#610 = APPLICATION_CONTEXT ( 'automotive_design' ) ;
#611 = PROPERTY_DEFINITION_REPRESENTATION ( #130, #628 ) ;
#612 = DOCUMENT_TYPE ( 'geometry' ) ;
#613 = PROPERTY_DEFINITION_REPRESENTATION ( #355, #36 ) ;
#614 = DIRECTION ( 'NONE',  ( -6.075917713685272438E-21, -8.851221883601190215E-21, -1.000000000000000000 ) ) ;
#615 = PRODUCT_DEFINITION_CONTEXT ( 'detailed design', #275, 'design' ) ;
#616 = DOCUMENT_FILE ( 'Part6_GR.STEP' , '', '', #262, '' ,$ ) ;
#617 = PRODUCT_DEFINITION ( 'General', '', #67, #615 ) ;
#618 = PROPERTY_DEFINITION ('external definition','', #72 ) ;
#619 = DOCUMENT_FILE ( 'Part2_GR.STEP' , '', '', #851, '' ,$ ) ;
#620 = PRODUCT ( 'Part5_GR', 'Part5_GR', '', ( #747 ) ) ;
#621 = OBJECT_ROLE ('mandatory',$ ) ;
#622 = DIRECTION ( 'NONE',  ( 1.240350004362413007E-17, -2.500237841536220217E-17, -0.9999999999999998890 ) ) ;
#623 = APPLIED_EXTERNAL_IDENTIFICATION_ASSIGNMENT ( 'Part2_GR.STEP' , #95, #650,( #644) ) ;
#624 = PROPERTY_DEFINITION_REPRESENTATION ( #211, #225 ) ;
#625 = CARTESIAN_POINT ( 'NONE',  ( -13.50000000000000178, 37.59971590679802489, -6.000000000000000000 ) ) ;
#626 = IDENTIFICATION_ROLE ( 'external document id and location', $) ;
#627 = UNCERTAINTY_MEASURE_WITH_UNIT (LENGTH_MEASURE( 1.000000000000000082E-05 ), #317, 'distance_accuracy_value', 'NONE');
#628 = SHAPE_REPRESENTATION ( 'Part6_GR', ( #602 ), #35 ) ;
#629 = PROPERTY_DEFINITION ('document property','', #601 ) ;
#630 = PRODUCT_DEFINITION_SHAPE ( 'NONE', 'NONE',  #887 ) ;
#631 =( LENGTH_UNIT ( ) NAMED_UNIT ( * ) SI_UNIT ( .MILLI., .METRE. ) );
#632 = PROPERTY_DEFINITION_REPRESENTATION ( #530, #485 ) ;
#633 = DOCUMENT_FILE ( 'Part8_GR.STEP' , '', '', #344, '' ,$ ) ;
#634 = DIRECTION ( 'NONE',  ( -0.3743556423930680110, 0.9272852058608903603, 1.152752299053419292E-21 ) ) ;
#635 =( REPRESENTATION_RELATIONSHIP ('NONE','NONE', #287, #820 ) REPRESENTATION_RELATIONSHIP_WITH_TRANSFORMATION ( #753 )SHAPE_REPRESENTATION_RELATIONSHIP( ) );
#636 = APPLIED_DOCUMENT_REFERENCE ( #619,'',( #761) ) ;
#637 = DIRECTION ( 'NONE',  ( -8.604828063324852235E-22, 8.957607649412248929E-22, -1.000000000000000000 ) ) ;
#638 = AXIS2_PLACEMENT_3D ( 'NONE', #20, #28, #310 ) ;
#639 = PROPERTY_DEFINITION ('document property','', #487 ) ;
#640 = AXIS2_PLACEMENT_3D ( 'NONE', #426, #776, #274 ) ;
#641 = APPLIED_EXTERNAL_IDENTIFICATION_ASSIGNMENT ( 'ISO 7380 - M3 x 12 - 12N_ISO 7380 - M3 x 12 - 12N.STEP' , #131, #90,( #72) ) ;
#642 = EXTERNAL_SOURCE (IDENTIFIER('') ) ;
#643 = CONTEXT_DEPENDENT_SHAPE_REPRESENTATION ( #718, #721 ) ;
#644 = DOCUMENT_FILE ( 'Part2_GR.STEP' , '', '', #252, '' ,$ ) ;
#645 = PROPERTY_DEFINITION ('external definition','', #203 ) ;
#646 = EXTERNAL_SOURCE (IDENTIFIER('') ) ;
#647 = OBJECT_ROLE ('mandatory',$ ) ;
#648 = DOCUMENT_FILE ( 'Part6_GR.STEP' , '', '', #746, '' ,$ ) ;
#649 = DIRECTION ( 'NONE',  ( -0.9781476837185952844, 0.2079113004046359847, 3.657252559459048150E-17 ) ) ;
#650 = EXTERNAL_SOURCE (IDENTIFIER('') ) ;
#651 = IDENTIFICATION_ROLE ( 'external document id and location', $) ;
#652 = DIRECTION ( 'NONE',  ( 0.000000000000000000, 0.000000000000000000, 1.000000000000000000 ) ) ;
#653 = PROPERTY_DEFINITION_REPRESENTATION ( #49, #820 ) ;
#654 =( LENGTH_UNIT ( ) NAMED_UNIT ( * ) SI_UNIT ( .MILLI., .METRE. ) );
#655 =( REPRESENTATION_RELATIONSHIP ('NONE','NONE', #287, #628 ) REPRESENTATION_RELATIONSHIP_WITH_TRANSFORMATION ( #220 )SHAPE_REPRESENTATION_RELATIONSHIP( ) );
#656 = ITEM_DEFINED_TRANSFORMATION ( 'NONE', 'NONE', #478,  #602 ) ;
#657 = DIRECTION ( 'NONE',  ( 0.1653041514604024209, -0.9862426362259729684, -4.292166216178191197E-18 ) ) ;
#658 = DIRECTION ( 'NONE',  ( 0.000000000000000000, 0.000000000000000000, 1.000000000000000000 ) ) ;
#659 = APPLIED_DOCUMENT_REFERENCE ( #381,'',( #617) ) ;
#660 = APPLICATION_CONTEXT ( 'automotive_design' ) ;
#661 = APPLICATION_PROTOCOL_DEFINITION ( 'draft international standard', 'automotive_design', 1998, #883 ) ;
#662 = OBJECT_ROLE ('mandatory',$ ) ;
#663 = PROPERTY_DEFINITION ('external definition','', #675 ) ;
#664 = DIRECTION ( 'NONE',  ( 0.000000000000000000, 0.000000000000000000, 1.000000000000000000 ) ) ;
#665 = PRODUCT_RELATED_PRODUCT_CATEGORY ( 'part', '', ( #805 ) ) ;
#666 = AXIS2_PLACEMENT_3D ( 'NONE', #166, #658, #228 ) ;
#667 = APPLIED_EXTERNAL_IDENTIFICATION_ASSIGNMENT ( 'Part3_GR.STEP' , #692, #646,( #603) ) ;
#668 = DIRECTION ( 'NONE',  ( -5.601159632889691323E-16, 6.952210282206305474E-16, 1.000000000000000000 ) ) ;
#669 = IDENTIFICATION_ROLE ( 'external document id and location', $) ;
#670 = PROPERTY_DEFINITION_REPRESENTATION ( #839, #628 ) ;
#671 = PRODUCT_DEFINITION_SHAPE ( 'NONE', 'NONE',  #910 ) ;
#672 = APPLICATION_PROTOCOL_DEFINITION ( 'draft international standard', 'automotive_design', 1998, #275 ) ;
#673 =( LENGTH_UNIT ( ) NAMED_UNIT ( * ) SI_UNIT ( .MILLI., .METRE. ) );
#674 = DOCUMENT_TYPE ( 'geometry' ) ;
#675 = DOCUMENT_FILE ( 'Part6_GR.STEP' , '', '', #565, '' ,$ ) ;
#676 = ROLE_ASSOCIATION ( #594, #527 ) ;
#677 = CARTESIAN_POINT ( 'NONE',  ( 0.000000000000000000, 0.000000000000000000, 0.000000000000000000 ) ) ;
#678 = PROPERTY_DEFINITION ('external definition','', #60 ) ;
#679 = AXIS2_PLACEMENT_3D ( 'NONE', #677, #664, #605 ) ;
#680 = IDENTIFICATION_ROLE ( 'external document id and location', $) ;
#681 =( GEOMETRIC_REPRESENTATION_CONTEXT ( 3 ) GLOBAL_UNCERTAINTY_ASSIGNED_CONTEXT ( ( #13 ) ) GLOBAL_UNIT_ASSIGNED_CONTEXT ( ( #592, #462, #176 ) ) REPRESENTATION_CONTEXT ( 'NONE', 'WORKASPACE' ) );
#682 = CONTEXT_DEPENDENT_SHAPE_REPRESENTATION ( #350, #783 ) ;
#683 = AXIS2_PLACEMENT_3D ( 'NONE', #707, #770, #346 ) ;
#684 = APPLIED_EXTERNAL_IDENTIFICATION_ASSIGNMENT ( 'Part7_GR.STEP' , #651, #147,( #584) ) ;
#685 = ROLE_ASSOCIATION ( #708, #522 ) ;
#686 = APPLIED_DOCUMENT_REFERENCE ( #203,'',( #761) ) ;
#687 = OBJECT_ROLE ('mandatory',$ ) ;
#688 = PROPERTY_DEFINITION ('document property','', #377 ) ;
#689 = DIRECTION ( 'NONE',  ( 0.0007855246909662090635, 0.9999996914754323285, -2.499191214802731198E-17 ) ) ;
#690 = PRODUCT ( 'Part7_GR', 'Part7_GR', '', ( #435 ) ) ;
#691 = CARTESIAN_POINT ( 'NONE',  ( 13.50000000064296657, 68.59971590659941398, -8.499999999999637623 ) ) ;
#692 = IDENTIFICATION_ROLE ( 'external document id and location', $) ;
#693 = PRODUCT_RELATED_PRODUCT_CATEGORY ( 'part', '', ( #777 ) ) ;
#694 = PROPERTY_DEFINITION ('document property','', #60 ) ;
#695 = PROPERTY_DEFINITION_REPRESENTATION ( #86, #238 ) ;
#696 = PRODUCT_DEFINITION_SHAPE ( 'NONE', 'NONE',  #870 ) ;
#697 = DIRECTION ( 'NONE',  ( -0.3373716763651478656, 0.9413715270744970054, 3.356921031687751773E-16 ) ) ;
#698 = AXIS2_PLACEMENT_3D ( 'NONE', #500, #493, #403 ) ;
#699 = PROPERTY_DEFINITION ('document property','', #648 ) ;
#700 = ROLE_ASSOCIATION ( #826, #766 ) ;
#701 = OBJECT_ROLE ('mandatory',$ ) ;
#702 = DOCUMENT_FILE ( 'Part1_GR.STEP' , '', '', #833, '' ,$ ) ;
#703 = CARTESIAN_POINT ( 'NONE',  ( -5.239824601909229607, 57.99999999999999289, -8.500000000000001776 ) ) ;
#704 = DOCUMENT_TYPE ( 'geometry' ) ;
#705 = APPLIED_DOCUMENT_REFERENCE ( #387,'',( #774) ) ;
#706 = PRODUCT_RELATED_PRODUCT_CATEGORY ( 'part', '', ( #690 ) ) ;
#707 = CARTESIAN_POINT ( 'NONE',  ( 6.000000000000001776, 3.999999999999999112, 5.150000000000000355 ) ) ;
#708 = OBJECT_ROLE ('mandatory',$ ) ;
#709 = ROLE_ASSOCIATION ( #438, #343 ) ;
#710 = PROPERTY_DEFINITION_REPRESENTATION ( #699, #628 ) ;
#711 = APPLICATION_CONTEXT ( 'automotive_design' ) ;
#712 = CARTESIAN_POINT ( 'NONE',  ( 7.500000000000208722, 17.59971590679852582, 7.149999999999997691 ) ) ;
#713 = PRODUCT_DEFINITION_SHAPE ( 'NONE', 'NONE',  #892 ) ;
#714 = OBJECT_ROLE ('mandatory',$ ) ;
#715 = AXIS2_PLACEMENT_3D ( 'NONE', #351, #563, #300 ) ;
#716 =( LENGTH_UNIT ( ) NAMED_UNIT ( * ) SI_UNIT ( .MILLI., .METRE. ) );
#717 = PROPERTY_DEFINITION_REPRESENTATION ( #160, #307 ) ;
#718 =( REPRESENTATION_RELATIONSHIP ('NONE','NONE', #287, #225 ) REPRESENTATION_RELATIONSHIP_WITH_TRANSFORMATION ( #84 )SHAPE_REPRESENTATION_RELATIONSHIP( ) );
#719 = PRODUCT_RELATED_PRODUCT_CATEGORY ( 'part', '', ( #347 ) ) ;
#720 = CONTEXT_DEPENDENT_SHAPE_REPRESENTATION ( #655, #75 ) ;
#721 = PRODUCT_DEFINITION_SHAPE ( 'NONE', 'NONE',  #896 ) ;
#722 = PRODUCT_DEFINITION_CONTEXT ( 'detailed design', #883, 'design' ) ;
#723 = EXTERNAL_SOURCE (IDENTIFIER('') ) ;
#724 = DOCUMENT_FILE ( 'Part6_GR.STEP' , '', '', #372, '' ,$ ) ;
#725 = PRODUCT_CONTEXT ( 'NONE', #610, 'mechanical' ) ;
#726 =( NAMED_UNIT ( * ) PLANE_ANGLE_UNIT ( ) SI_UNIT ( $, .RADIAN. ) );
#727 = PRODUCT_DEFINITION_FORMATION_WITH_SPECIFIED_SOURCE ( 'Symmetric', '', #777, .NOT_KNOWN. ) ;
#728 = PROPERTY_DEFINITION_REPRESENTATION ( #440, #36 ) ;
#729 = ROLE_ASSOCIATION ( #764, #98 ) ;
#730 = DOCUMENT_TYPE ( 'geometry' ) ;
#731 = DOCUMENT_FILE ( 'Part6_GR.STEP' , '', '', #790, '' ,$ ) ;
#732 = APPLICATION_PROTOCOL_DEFINITION ( 'draft international standard', 'automotive_design', 1998, #856 ) ;
#733 = PRODUCT_RELATED_PRODUCT_CATEGORY ( 'part', '', ( #416 ) ) ;
#734 = OBJECT_ROLE ('mandatory',$ ) ;
#735 = PROPERTY_DEFINITION_REPRESENTATION ( #257, #129 ) ;
#736 = SHAPE_DEFINITION_REPRESENTATION ( #476, #307 ) ;
#737 = PROPERTY_DEFINITION ('document property','', #731 ) ;
#738 = DOCUMENT_TYPE ( 'geometry' ) ;
#739 = IDENTIFICATION_ROLE ( 'external document id and location', $) ;
#740 = AXIS2_PLACEMENT_3D ( 'NONE', #157, #760, #217 ) ;
#741 = APPLIED_EXTERNAL_IDENTIFICATION_ASSIGNMENT ( 'Part2_GR.STEP' , #453, #283,( #619) ) ;
#742 = PRODUCT_CONTEXT ( 'NONE', #427, 'mechanical' ) ;
#743 =( LENGTH_UNIT ( ) NAMED_UNIT ( * ) SI_UNIT ( .MILLI., .METRE. ) );
#744 = PRODUCT_DEFINITION ( 'General', '', #547, #722 ) ;
#745 = PROPERTY_DEFINITION ('document property','', #207 ) ;
#746 = DOCUMENT_TYPE ( 'geometry' ) ;
#747 = PRODUCT_CONTEXT ( 'NONE', #711, 'mechanical' ) ;
#748 =( NAMED_UNIT ( * ) PLANE_ANGLE_UNIT ( ) SI_UNIT ( $, .RADIAN. ) );
#749 = UNCERTAINTY_MEASURE_WITH_UNIT (LENGTH_MEASURE( 1.000000000000000082E-05 ), #631, 'distance_accuracy_value', 'NONE');
#750 = SHAPE_DEFINITION_REPRESENTATION ( #294, #238 ) ;
#751 = IDENTIFICATION_ROLE ( 'external document id and location', $) ;
#752 = PRODUCT_DEFINITION_SHAPE ( 'NONE', 'NONE',  #908 ) ;
#753 = ITEM_DEFINED_TRANSFORMATION ( 'NONE', 'NONE', #449,  #666 ) ;
#754 = AXIS2_PLACEMENT_3D ( 'NONE', #836, #201, #133 ) ;
#755 = APPLIED_EXTERNAL_IDENTIFICATION_ASSIGNMENT ( 'Part7_GR.STEP' , #52, #4,( #832) ) ;
#756 = DIRECTION ( 'NONE',  ( 0.000000000000000000, 0.000000000000000000, 1.000000000000000000 ) ) ;
#757 = APPLICATION_CONTEXT ( 'automotive_design' ) ;
#758 =( REPRESENTATION_RELATIONSHIP ('NONE','NONE', #287, #628 ) REPRESENTATION_RELATIONSHIP_WITH_TRANSFORMATION ( #464 )SHAPE_REPRESENTATION_RELATIONSHIP( ) );
#759 = PROPERTY_DEFINITION ('external definition','', #349 ) ;
#760 = DIRECTION ( 'NONE',  ( 0.000000000000000000, 0.000000000000000000, 1.000000000000000000 ) ) ;
#761 = PRODUCT_DEFINITION ( 'General', '', #509, #837 ) ;
#762 = PROPERTY_DEFINITION ('external definition','', #562 ) ;
#763 = PROPERTY_DEFINITION_REPRESENTATION ( #678, #572 ) ;
#764 = OBJECT_ROLE ('mandatory',$ ) ;
#765 = CARTESIAN_POINT ( 'NONE',  ( -2.091743576284034903E-23, -4.525695013252944728E-23, -3.000000000000000000 ) ) ;
#766 = APPLIED_DOCUMENT_REFERENCE ( #207,'',( #539) ) ;
#767 = OBJECT_ROLE ('mandatory',$ ) ;
#768 = PROPERTY_DEFINITION_REPRESENTATION ( #222, #225 ) ;
#769 = PROPERTY_DEFINITION ('document property','', #455 ) ;
#770 = DIRECTION ( 'NONE',  ( 1.000000000000000000, 0.000000000000000000, 0.000000000000000000 ) ) ;
#771 = AXIS2_PLACEMENT_3D ( 'NONE', #103, #87, #224 ) ;
#772 = PROPERTY_DEFINITION_REPRESENTATION ( #459, #628 ) ;
#773 = ROLE_ASSOCIATION ( #412, #212 ) ;
#774 = PRODUCT_DEFINITION ( 'General', '', #495, #267 ) ;
#775 = CONTEXT_DEPENDENT_SHAPE_REPRESENTATION ( #184, #407 ) ;
#776 = DIRECTION ( 'NONE',  ( -5.303911925876762279E-21, 1.023704850272529818E-20, 1.000000000000000000 ) ) ;
#777 = PRODUCT ( 'Part8_GR', 'Part8_GR', '', ( #529 ) ) ;
#778 = APPLICATION_PROTOCOL_DEFINITION ( 'draft international standard', 'automotive_design', 1998, #45 ) ;
#779 = EXTERNAL_SOURCE (IDENTIFIER('') ) ;
#780 = CONTEXT_DEPENDENT_SHAPE_REPRESENTATION ( #305, #383 ) ;
#781 = APPLICATION_PROTOCOL_DEFINITION ( 'draft international standard', 'automotive_design', 1998, #409 ) ;
#782 =( GEOMETRIC_REPRESENTATION_CONTEXT ( 3 ) GLOBAL_UNCERTAINTY_ASSIGNED_CONTEXT ( ( #227 ) ) GLOBAL_UNIT_ASSIGNED_CONTEXT ( ( #148, #503, #144 ) ) REPRESENTATION_CONTEXT ( 'NONE', 'WORKASPACE' ) );
#783 = PRODUCT_DEFINITION_SHAPE ( 'NONE', 'NONE',  #888 ) ;
#784 = PRODUCT_DEFINITION ( 'General', '', #727, #288 ) ;
#785 = UNCERTAINTY_MEASURE_WITH_UNIT (LENGTH_MEASURE( 1.000000000000000082E-05 ), #819, 'distance_accuracy_value', 'NONE');
#786 =( NAMED_UNIT ( * ) PLANE_ANGLE_UNIT ( ) SI_UNIT ( $, .RADIAN. ) );
#787 = AXIS2_PLACEMENT_3D ( 'NONE', #48, #843, #422 ) ;
#788 = OBJECT_ROLE ('mandatory',$ ) ;
#789 =( NAMED_UNIT ( * ) SI_UNIT ( $, .STERADIAN. ) SOLID_ANGLE_UNIT ( ) );
#790 = DOCUMENT_TYPE ( 'geometry' ) ;
#791 = DIRECTION ( 'NONE',  ( 1.000000000000000000, 0.000000000000000000, 0.000000000000000000 ) ) ;
#792 =( NAMED_UNIT ( * ) PLANE_ANGLE_UNIT ( ) SI_UNIT ( $, .RADIAN. ) );
#793 = ITEM_DEFINED_TRANSFORMATION ( 'NONE', 'NONE', #683,  #666 ) ;
#794 = SHAPE_DEFINITION_REPRESENTATION ( #63, #287 ) ;
#795 = IDENTIFICATION_ROLE ( 'external document id and location', $) ;
#796 = ROLE_ASSOCIATION ( #385, #517 ) ;
#797 =( REPRESENTATION_RELATIONSHIP ('NONE','NONE', #287, #129 ) REPRESENTATION_RELATIONSHIP_WITH_TRANSFORMATION ( #460 )SHAPE_REPRESENTATION_RELATIONSHIP( ) );
#798 = AXIS2_PLACEMENT_3D ( 'NONE', #342, #637, #204 ) ;
#799 = DOCUMENT_TYPE ( 'geometry' ) ;
#800 = APPLIED_EXTERNAL_IDENTIFICATION_ASSIGNMENT ( 'Part2_GR.STEP' , #867, #818,( #550) ) ;
#801 = APPLIED_EXTERNAL_IDENTIFICATION_ASSIGNMENT ( 'Part2_GR.STEP' , #136, #122,( #377) ) ;
#802 = APPLIED_DOCUMENT_REFERENCE ( #731,'',( #617) ) ;
#803 = SHAPE_DEFINITION_REPRESENTATION ( #425, #820 ) ;
#804 = IDENTIFICATION_ROLE ( 'external document id and location', $) ;
#805 = PRODUCT ( 'ISO 7380 - M3 x 12 - 12N_ISO 7380 - M3 x 12 - 12N', 'ISO 7380 - M3 x 12 - 12N_ISO 7380 - M3 x 12 - 12N', '', ( #258 ) ) ;
#806 = IDENTIFICATION_ROLE ( 'external document id and location', $) ;
#807 = APPLIED_DOCUMENT_REFERENCE ( #675,'',( #617) ) ;
#808 = PROPERTY_DEFINITION_REPRESENTATION ( #769, #858 ) ;
#809 = ITEM_DEFINED_TRANSFORMATION ( 'NONE', 'NONE', #576,  #602 ) ;
#810 = DOCUMENT_TYPE ( 'geometry' ) ;
#811 = APPLICATION_PROTOCOL_DEFINITION ( 'draft international standard', 'automotive_design', 1998, #323 ) ;
#812 = PRODUCT_DEFINITION_SHAPE ( 'NONE', 'NONE',  #904 ) ;
#813 = AXIS2_PLACEMENT_3D ( 'NONE', #259, #756, #824 ) ;
#814 = ROLE_ASSOCIATION ( #553, #880 ) ;
#815 = AXIS2_PLACEMENT_3D ( 'NONE', #481, #359, #689 ) ;
#816 = APPLIED_EXTERNAL_IDENTIFICATION_ASSIGNMENT ( 'Towerpro Micro Servo 9g_Varsay\X2\0131\X0\lan.STEP' , #324, #175,( #349) ) ;
#817 = ROLE_ASSOCIATION ( #399, #40 ) ;
#818 = EXTERNAL_SOURCE (IDENTIFIER('') ) ;
#819 =( LENGTH_UNIT ( ) NAMED_UNIT ( * ) SI_UNIT ( .MILLI., .METRE. ) );
#820 = SHAPE_REPRESENTATION ( 'ISO 7380 - M3 x 12 - 12N_ISO 7380 - M3 x 12 - 12N', ( #666 ), #231 ) ;
#821 = ROLE_ASSOCIATION ( #662, #659 ) ;
#822 = PRODUCT_DEFINITION_SHAPE ( 'NONE', 'NONE',  #914 ) ;
#823 = APPLICATION_PROTOCOL_DEFINITION ( 'draft international standard', 'automotive_design', 1998, #711 ) ;
#824 = DIRECTION ( 'NONE',  ( 1.000000000000000000, 0.000000000000000000, 0.000000000000000000 ) ) ;
#825 = PRODUCT_DEFINITION_CONTEXT ( 'detailed design', #409, 'design' ) ;
#826 = OBJECT_ROLE ('mandatory',$ ) ;
#827 = ITEM_DEFINED_TRANSFORMATION ( 'NONE', 'NONE', #418,  #813 ) ;
#828 = PROPERTY_DEFINITION_REPRESENTATION ( #639, #36 ) ;
#829 = APPLICATION_PROTOCOL_DEFINITION ( 'draft international standard', 'automotive_design', 1998, #473 ) ;
#830 = PROPERTY_DEFINITION ('external definition','', #644 ) ;
#831 = PRODUCT_DEFINITION_SHAPE ( 'NONE', 'NONE',  #744 ) ;
#832 = DOCUMENT_FILE ( 'Part7_GR.STEP' , '', '', #226, '' ,$ ) ;
#833 = DOCUMENT_TYPE ( 'geometry' ) ;
#834 = AXIS2_PLACEMENT_3D ( 'NONE', #840, #488, #415 ) ;
#835 = PROPERTY_DEFINITION_REPRESENTATION ( #545, #225 ) ;
#836 = CARTESIAN_POINT ( 'NONE',  ( -13.49999999999751665, 68.59971590679799647, -8.500000000000028422 ) ) ;
#837 = PRODUCT_DEFINITION_CONTEXT ( 'detailed design', #299, 'design' ) ;
#838 = PROPERTY_DEFINITION_REPRESENTATION ( #759, #485 ) ;
#839 = PROPERTY_DEFINITION ('external definition','', #390 ) ;
#840 = CARTESIAN_POINT ( 'NONE',  ( -13.50000000000000178, 37.59971590679804621, -8.500000000000000000 ) ) ;
#841 = CONTEXT_DEPENDENT_SHAPE_REPRESENTATION ( #368, #198 ) ;
#842 = ROLE_ASSOCIATION ( #621, #686 ) ;
#843 = DIRECTION ( 'NONE',  ( 0.9755413286176671805, 0.2198160962233581539, -4.908521016077947242E-17 ) ) ;
#844 = IDENTIFICATION_ROLE ( 'external document id and location', $) ;
#845 = PRODUCT_DEFINITION_CONTEXT ( 'detailed design', #564, 'design' ) ;
#846 = APPLIED_DOCUMENT_REFERENCE ( #487,'',( #774) ) ;
#847 = PRODUCT ( 'Part3_GR', 'Part3_GR', '', ( #599 ) ) ;
#848 = CARTESIAN_POINT ( 'NONE',  ( 13.49999999997296918, 37.59971590680772380, -6.000000000000000000 ) ) ;
#849 = APPLIED_EXTERNAL_IDENTIFICATION_ASSIGNMENT ( 'Part1_GR.STEP' , #804, #242,( #394) ) ;
#850 = APPLIED_EXTERNAL_IDENTIFICATION_ASSIGNMENT ( 'Part6_GR.STEP' , #844, #525,( #731) ) ;
#851 = DOCUMENT_TYPE ( 'geometry' ) ;
#852 =( LENGTH_UNIT ( ) NAMED_UNIT ( * ) SI_UNIT ( .MILLI., .METRE. ) );
#853 = ROLE_ASSOCIATION ( #151, #21 ) ;
#854 = DIRECTION ( 'NONE',  ( -0.9862426362259728574, -0.1653041514604024209, -8.871605621530828622E-17 ) ) ;
#855 = PROPERTY_DEFINITION ('external definition','', #387 ) ;
#856 = APPLICATION_CONTEXT ( 'automotive_design' ) ;
#857 = CONTEXT_DEPENDENT_SHAPE_REPRESENTATION ( #200, #414 ) ;
#858 = SHAPE_REPRESENTATION ( 'Part5_GR', ( #638 ), #782 ) ;
#859 = CARTESIAN_POINT ( 'NONE',  ( 5.264175867354560445, 88.99999043573858160, -8.500000000000000000 ) ) ;
#860 = DOCUMENT_FILE ( 'ISO 7380 - M3 x 12 - 12N_ISO 7380 - M3 x 12 - 12N.STEP' , '', '', #513, '' ,$ ) ;
#861 = EXTERNAL_SOURCE (IDENTIFIER('') ) ;
#862 = PROPERTY_DEFINITION ('document property','', #619 ) ;
#863 = DIRECTION ( 'NONE',  ( 0.000000000000000000, 0.000000000000000000, 1.000000000000000000 ) ) ;
#864 = EXTERNAL_SOURCE (IDENTIFIER('') ) ;
#865 = PROPERTY_DEFINITION_REPRESENTATION ( #568, #307 ) ;
#866 = DIRECTION ( 'NONE',  ( 1.000000000000000000, 0.000000000000000000, 0.000000000000000000 ) ) ;
#867 = IDENTIFICATION_ROLE ( 'external document id and location', $) ;
#868 = CARTESIAN_POINT ( 'NONE',  ( 0.000000000000000000, 0.000000000000000000, 0.000000000000000000 ) ) ;
#869 = CONTEXT_DEPENDENT_SHAPE_REPRESENTATION ( #463, #600 ) ;
#870 = PRODUCT_DEFINITION ( 'General', '', #167, #59 ) ;
#871 =( REPRESENTATION_RELATIONSHIP ('NONE','NONE', #287, #14 ) REPRESENTATION_RELATIONSHIP_WITH_TRANSFORMATION ( #334 )SHAPE_REPRESENTATION_RELATIONSHIP( ) );
#872 = PROPERTY_DEFINITION_REPRESENTATION ( #406, #14 ) ;
#873 = DIRECTION ( 'NONE',  ( 0.2079113004046359847, 0.9781476837185952844, -8.295701232043492414E-17 ) ) ;
#874 = AXIS2_PLACEMENT_3D ( 'NONE', #2, #854, #657 ) ;
#875 = APPLIED_EXTERNAL_IDENTIFICATION_ASSIGNMENT ( 'Part6_GR.STEP' , #81, #237,( #724) ) ;
#876 = PROPERTY_DEFINITION_REPRESENTATION ( #543, #628 ) ;
#877 = OBJECT_ROLE ('mandatory',$ ) ;
#878 =( NAMED_UNIT ( * ) SI_UNIT ( $, .STERADIAN. ) SOLID_ANGLE_UNIT ( ) );
#879 = PROPERTY_DEFINITION ('external definition','', #731 ) ;
#880 = APPLIED_DOCUMENT_REFERENCE ( #390,'',( #617) ) ;
#881 = PRODUCT_DEFINITION ( 'General', '', #101, #845 ) ;
#882 = APPLICATION_PROTOCOL_DEFINITION ( 'draft international standard', 'automotive_design', 1998, #506 ) ;
#883 = APPLICATION_CONTEXT ( 'automotive_design' ) ;
#884 = OBJECT_ROLE ('mandatory',$ ) ;
#885 = NEXT_ASSEMBLY_USAGE_OCCURRENCE ( 'NAUO1', ' ', ' ', #120, #260, $ ) ;
#886 = NEXT_ASSEMBLY_USAGE_OCCURRENCE ( 'NAUO2', ' ', ' ', #120, #774, $ ) ;
#887 = NEXT_ASSEMBLY_USAGE_OCCURRENCE ( 'NAUO3', ' ', ' ', #120, #744, $ ) ;
#888 = NEXT_ASSEMBLY_USAGE_OCCURRENCE ( 'NAUO4', ' ', ' ', #120, #319, $ ) ;
#889 = NEXT_ASSEMBLY_USAGE_OCCURRENCE ( 'NAUO5', ' ', ' ', #120, #774, $ ) ;
#890 = NEXT_ASSEMBLY_USAGE_OCCURRENCE ( 'NAUO6', ' ', ' ', #120, #761, $ ) ;
#891 = NEXT_ASSEMBLY_USAGE_OCCURRENCE ( 'NAUO7', ' ', ' ', #120, #761, $ ) ;
#892 = NEXT_ASSEMBLY_USAGE_OCCURRENCE ( 'NAUO8', ' ', ' ', #120, #774, $ ) ;
#893 = NEXT_ASSEMBLY_USAGE_OCCURRENCE ( 'NAUO9', ' ', ' ', #120, #774, $ ) ;
#894 = NEXT_ASSEMBLY_USAGE_OCCURRENCE ( 'NAUO10', ' ', ' ', #120, #761, $ ) ;
#895 = NEXT_ASSEMBLY_USAGE_OCCURRENCE ( 'NAUO11', ' ', ' ', #120, #784, $ ) ;
#896 = NEXT_ASSEMBLY_USAGE_OCCURRENCE ( 'NAUO12', ' ', ' ', #120, #761, $ ) ;
#897 = NEXT_ASSEMBLY_USAGE_OCCURRENCE ( 'NAUO13', ' ', ' ', #120, #617, $ ) ;
#898 = NEXT_ASSEMBLY_USAGE_OCCURRENCE ( 'NAUO14', ' ', ' ', #120, #617, $ ) ;
#899 = NEXT_ASSEMBLY_USAGE_OCCURRENCE ( 'NAUO15', ' ', ' ', #120, #761, $ ) ;
#900 = NEXT_ASSEMBLY_USAGE_OCCURRENCE ( 'NAUO16', ' ', ' ', #120, #539, $ ) ;
#901 = NEXT_ASSEMBLY_USAGE_OCCURRENCE ( 'NAUO17', ' ', ' ', #120, #761, $ ) ;
#902 = NEXT_ASSEMBLY_USAGE_OCCURRENCE ( 'NAUO18', ' ', ' ', #120, #617, $ ) ;
#903 = NEXT_ASSEMBLY_USAGE_OCCURRENCE ( 'NAUO19', ' ', ' ', #120, #744, $ ) ;
#904 = NEXT_ASSEMBLY_USAGE_OCCURRENCE ( 'NAUO20', ' ', ' ', #120, #870, $ ) ;
#905 = NEXT_ASSEMBLY_USAGE_OCCURRENCE ( 'NAUO21', ' ', ' ', #120, #617, $ ) ;
#906 = NEXT_ASSEMBLY_USAGE_OCCURRENCE ( 'NAUO22', ' ', ' ', #120, #617, $ ) ;
#907 = NEXT_ASSEMBLY_USAGE_OCCURRENCE ( 'NAUO23', ' ', ' ', #120, #617, $ ) ;
#908 = NEXT_ASSEMBLY_USAGE_OCCURRENCE ( 'NAUO24', ' ', ' ', #120, #617, $ ) ;
#909 = NEXT_ASSEMBLY_USAGE_OCCURRENCE ( 'NAUO25', ' ', ' ', #120, #617, $ ) ;
#910 = NEXT_ASSEMBLY_USAGE_OCCURRENCE ( 'NAUO26', ' ', ' ', #120, #539, $ ) ;
#911 = NEXT_ASSEMBLY_USAGE_OCCURRENCE ( 'NAUO27', ' ', ' ', #120, #474, $ ) ;
#912 = NEXT_ASSEMBLY_USAGE_OCCURRENCE ( 'NAUO28', ' ', ' ', #120, #539, $ ) ;
#913 = NEXT_ASSEMBLY_USAGE_OCCURRENCE ( 'NAUO29', ' ', ' ', #120, #870, $ ) ;
#914 = NEXT_ASSEMBLY_USAGE_OCCURRENCE ( 'NAUO30', ' ', ' ', #120, #881, $ ) ;
#915 = NEXT_ASSEMBLY_USAGE_OCCURRENCE ( 'NAUO31', ' ', ' ', #120, #881, $ ) ;
ENDSEC;
END-ISO-10303-21;
