ISO-10303-21;
HEADER;
FILE_DESCRIPTION (( 'STEP AP214' ),
    '1' );
FILE_NAME ('ISO 7380 - M3 x 12 - 12N.STEP',
    '2025-07-15T13:07:05',
    ( '' ),
    ( '' ),
    'SwSTEP 2.0',
    'SolidWorks 2025',
    '' );
FILE_SCHEMA (( 'AUTOMOTIVE_DESIGN' ));
ENDSEC;

DATA;
#1 = EDGE_LOOP ( 'NONE', ( #266 ) ) ;
#2 = DIRECTION ( 'NONE',  ( 0.000000000000000000, 0.000000000000000000, 1.000000000000000000 ) ) ;
#3 = AXIS2_PLACEMENT_3D ( 'NONE', #311, #66, #224 ) ;
#4 = AXIS2_PLACEMENT_3D ( 'NONE', #250, #169, #82 ) ;
#5 = ORIENTED_EDGE ( 'NONE', *, *, #69, .F. ) ;
#6 = LINE ( 'NONE', #504, #525 ) ;
#7 = DIRECTION ( 'NONE',  ( 1.000000000000000000, 0.000000000000000000, 0.000000000000000000 ) ) ;
#8 = ADVANCED_FACE ( 'NONE', ( #526 ), #337, .F. ) ;
#9 = ORIENTED_EDGE ( 'NONE', *, *, #464, .F. ) ;
#10 = ORIENTED_EDGE ( 'NONE', *, *, #83, .F. ) ;
#11 = APPLICATION_PROTOCOL_DEFINITION ( 'draft international standard', 'automotive_design', 1998, #230 ) ;
#12 = FACE_OUTER_BOUND ( 'NONE', #259, .T. ) ;
#13 = AXIS2_PLACEMENT_3D ( 'NONE', #141, #427, #336 ) ;
#14 = AXIS2_PLACEMENT_3D ( 'NONE', #354, #486, #193 ) ;
#15 = ORIENTED_EDGE ( 'NONE', *, *, #162, .F. ) ;
#16 = VERTEX_POINT ( 'NONE', #216 ) ;
#17 = ADVANCED_FACE ( 'NONE', ( #105 ), #147, .F. ) ;
#18 = VERTEX_POINT ( 'NONE', #391 ) ;
#19 = PLANE ( 'NONE',  #158 ) ;
#20 = EDGE_LOOP ( 'NONE', ( #517 ) ) ;
#21 = AXIS2_PLACEMENT_3D ( 'NONE', #536, #240, #466 ) ;
#22 = EDGE_CURVE ( 'NONE', #462, #462, #397, .T. ) ;
#23 = LINE ( 'NONE', #270, #410 ) ;
#24 = CARTESIAN_POINT ( 'NONE',  ( 1.040000000000000036, 0.000000000000000000, 0.000000000000000000 ) ) ;
#25 = CARTESIAN_POINT ( 'NONE',  ( 1.040000000000000036, 0.000000000000000000, 0.000000000000000000 ) ) ;
#26 = ORIENTED_EDGE ( 'NONE', *, *, #407, .T. ) ;
#27 = CARTESIAN_POINT ( 'NONE',  ( 1.040000000000000036, 0.000000000000000000, -1.000000000000000000 ) ) ;
#28 = CARTESIAN_POINT ( 'NONE',  ( 8.673617379884035472E-16, 0.000000000000000000, 0.000000000000000000 ) ) ;
#29 = ORIENTED_EDGE ( 'NONE', *, *, #165, .F. ) ;
#30 = PRODUCT_DEFINITION_CONTEXT ( 'detailed design', #230, 'design' ) ;
#31 = EDGE_LOOP ( 'NONE', ( #77, #405, #214, #329, #5 ) ) ;
#32 = DIRECTION ( 'NONE',  ( -1.000000000000000000, 0.000000000000000000, 0.000000000000000000 ) ) ;
#33 = EDGE_CURVE ( 'NONE', #375, #314, #23, .T. ) ;
#34 = LINE ( 'NONE', #199, #134 ) ;
#35 = CARTESIAN_POINT ( 'NONE',  ( 1.040000000000000036, 0.5773502691896279515, 1.000000000000000888 ) ) ;
#36 = FACE_BOUND ( 'NONE', #384, .T. ) ;
#37 = SURFACE_SIDE_STYLE ('',( #204 ) ) ;
#38 = AXIS2_PLACEMENT_3D ( 'NONE', #183, #487, #190 ) ;
#39 = ADVANCED_FACE ( 'NONE', ( #192 ), #532, .T. ) ;
#40 = VERTEX_POINT ( 'NONE', #200 ) ;
#41 = AXIS2_PLACEMENT_3D ( 'NONE', #449, #119, #241 ) ;
#42 = UNCERTAINTY_MEASURE_WITH_UNIT (LENGTH_MEASURE( 1.000000000000000082E-05 ), #333, 'distance_accuracy_value', 'NONE');
#43 = DIRECTION ( 'NONE',  ( -0.000000000000000000, -0.4999999999999986677, -0.8660254037844392627 ) ) ;
#44 = ORIENTED_EDGE ( 'NONE', *, *, #362, .F. ) ;
#45 = DIRECTION ( 'NONE',  ( -0.000000000000000000, 0.000000000000000000, -1.000000000000000000 ) ) ;
#46 = FACE_OUTER_BOUND ( 'NONE', #20, .T. ) ;
#47 = FACE_OUTER_BOUND ( 'NONE', #194, .T. ) ;
#48 = EDGE_LOOP ( 'NONE', ( #9, #429, #263 ) ) ;
#49 = AXIS2_PLACEMENT_3D ( 'NONE', #227, #390, #477 ) ;
#50 =( GEOMETRIC_REPRESENTATION_CONTEXT ( 3 ) GLOBAL_UNCERTAINTY_ASSIGNED_CONTEXT ( ( #42 ) ) GLOBAL_UNIT_ASSIGNED_CONTEXT ( ( #333, #223, #513 ) ) REPRESENTATION_CONTEXT ( 'NONE', 'WORKASPACE' ) );
#51 = ADVANCED_FACE ( 'NONE', ( #503 ), #361, .F. ) ;
#52 = PRODUCT ( 'ISO 7380 - M3 x 12 - 12N_ISO 7380 - M3 x 12 - 12N', 'ISO 7380 - M3 x 12 - 12N_ISO 7380 - M3 x 12 - 12N', '', ( #465 ) ) ;
#53 = ORIENTED_EDGE ( 'NONE', *, *, #496, .T. ) ;
#54 = ORIENTED_EDGE ( 'NONE', *, *, #543, .T. ) ;
#55 = DIRECTION ( 'NONE',  ( -0.000000000000000000, 1.000000000000000000, -0.000000000000000000 ) ) ;
#56 = FACE_OUTER_BOUND ( 'NONE', #498, .T. ) ;
#57 = LINE ( 'NONE', #258, #533 ) ;
#58 = ORIENTED_EDGE ( 'NONE', *, *, #395, .T. ) ;
#59 = EDGE_CURVE ( 'NONE', #18, #275, #225, .T. ) ;
#60 = CIRCLE ( 'NONE', #359, 1.000000000000000000 ) ;
#61 = ORIENTED_EDGE ( 'NONE', *, *, #135, .F. ) ;
#62 = SHAPE_DEFINITION_REPRESENTATION ( #276, #527 ) ;
#63 = DIRECTION ( 'NONE',  ( 0.000000000000000000, 0.000000000000000000, 1.000000000000000000 ) ) ;
#64 = ORIENTED_EDGE ( 'NONE', *, *, #415, .T. ) ;
#65 = DIRECTION ( 'NONE',  ( -1.000000000000000000, 0.000000000000000000, -0.000000000000000000 ) ) ;
#66 = DIRECTION ( 'NONE',  ( -1.000000000000000000, -0.000000000000000000, -0.000000000000000000 ) ) ;
#67 = VECTOR ( 'NONE', #154, 1000.000000000000227 ) ;
#68 = DIRECTION ( 'NONE',  ( 0.000000000000000000, 0.000000000000000000, 1.000000000000000000 ) ) ;
#69 = EDGE_CURVE ( 'NONE', #420, #171, #123, .T. ) ;
#70 = ORIENTED_EDGE ( 'NONE', *, *, #381, .F. ) ;
#71 = CARTESIAN_POINT ( 'NONE',  ( 1.040000000000000036, -0.5773502691896261751, -1.000000000000000000 ) ) ;
#72 = VERTEX_POINT ( 'NONE', #537 ) ;
#73 = ORIENTED_EDGE ( 'NONE', *, *, #247, .F. ) ;
#74 = EDGE_CURVE ( 'NONE', #375, #40, #160, .T. ) ;
#75 = VECTOR ( 'NONE', #289, 1000.000000000000114 ) ;
#76 = VECTOR ( 'NONE', #113, 1000.000000000000227 ) ;
#77 = ORIENTED_EDGE ( 'NONE', *, *, #207, .T. ) ;
#78 = DIRECTION ( 'NONE',  ( -1.000000000000000000, -0.000000000000000000, -0.000000000000000000 ) ) ;
#79 = DIRECTION ( 'NONE',  ( 0.000000000000000000, 0.8660254037844393737, -0.4999999999999987788 ) ) ;
#80 = DIRECTION ( 'NONE',  ( 0.000000000000000000, 2.253471898105735490E-15, -1.000000000000000000 ) ) ;
#81 = ORIENTED_EDGE ( 'NONE', *, *, #450, .F. ) ;
#82 = DIRECTION ( 'NONE',  ( 0.000000000000000000, 0.000000000000000000, 1.000000000000000000 ) ) ;
#83 = EDGE_CURVE ( 'NONE', #18, #420, #163, .T. ) ;
#84 = FACE_OUTER_BOUND ( 'NONE', #386, .T. ) ;
#85 = VECTOR ( 'NONE', #112, 1000.000000000000000 ) ;
#86 = CARTESIAN_POINT ( 'NONE',  ( 0.000000000000000000, -1.154700538379248131, 1.129282925304327546E-16 ) ) ;
#87 = DIRECTION ( 'NONE',  ( -1.000000000000000000, 0.000000000000000000, 0.000000000000000000 ) ) ;
#88 = CARTESIAN_POINT ( 'NONE',  ( 0.000000000000000000, 1.154700538379251684, 7.017607234860990640E-28 ) ) ;
#89 = EDGE_LOOP ( 'NONE', ( #255, #96, #297, #44, #15 ) ) ;
#90 = CYLINDRICAL_SURFACE ( 'NONE', #4, 1.499999999999995781 ) ;
#91 = ADVANCED_FACE ( 'NONE', ( #286 ), #291, .T. ) ;
#92 = ORIENTED_EDGE ( 'NONE', *, *, #502, .T. ) ;
#93 = VERTEX_POINT ( 'NONE', #347 ) ;
#94 = CIRCLE ( 'NONE', #372, 1.500000000000000666 ) ;
#95 = FACE_OUTER_BOUND ( 'NONE', #1, .T. ) ;
#96 = ORIENTED_EDGE ( 'NONE', *, *, #83, .T. ) ;
#97 = DIRECTION ( 'NONE',  ( -1.000000000000000000, -0.000000000000000000, -0.000000000000000000 ) ) ;
#98 = ADVANCED_FACE ( 'NONE', ( #493 ), #283, .T. ) ;
#99 = ORIENTED_EDGE ( 'NONE', *, *, #110, .F. ) ;
#100 = ORIENTED_EDGE ( 'NONE', *, *, #387, .F. ) ;
#101 = AXIS2_PLACEMENT_3D ( 'NONE', #485, #273, #440 ) ;
#102 = ORIENTED_EDGE ( 'NONE', *, *, #59, .T. ) ;
#103 = FACE_BOUND ( 'NONE', #252, .T. ) ;
#104 = CARTESIAN_POINT ( 'NONE',  ( 1.040000000000000036, 0.000000000000000000, 0.000000000000000000 ) ) ;
#105 = FACE_OUTER_BOUND ( 'NONE', #459, .T. ) ;
#106 = ADVANCED_FACE ( 'NONE', ( #84 ), #118, .T. ) ;
#107 = EDGE_LOOP ( 'NONE', ( #423, #385, #284, #475, #470 ) ) ;
#108 = ORIENTED_EDGE ( 'NONE', *, *, #543, .F. ) ;
#109 = CARTESIAN_POINT ( 'NONE',  ( 1.040000000000000036, 1.154700538379251684, 7.017607234860990640E-28 ) ) ;
#110 = EDGE_CURVE ( 'NONE', #173, #219, #491, .T. ) ;
#111 = ORIENTED_EDGE ( 'NONE', *, *, #162, .T. ) ;
#112 = DIRECTION ( 'NONE',  ( -0.000000000000000000, 1.000000000000000000, -0.000000000000000000 ) ) ;
#113 = DIRECTION ( 'NONE',  ( -0.000000000000000000, -0.4999999999999986677, -0.8660254037844392627 ) ) ;
#114 = UNCERTAINTY_MEASURE_WITH_UNIT (LENGTH_MEASURE( 1.000000000000000082E-05 ), #318, 'distance_accuracy_value', 'NONE');
#115 = CIRCLE ( 'NONE', #226, 1.000000000000000000 ) ;
#116 = EDGE_LOOP ( 'NONE', ( #233, #305, #10 ) ) ;
#117 = FACE_OUTER_BOUND ( 'NONE', #130, .T. ) ;
#118 = PLANE ( 'NONE',  #195 ) ;
#119 = DIRECTION ( 'NONE',  ( -1.000000000000000000, 0.000000000000000000, -0.000000000000000000 ) ) ;
#120 = MANIFOLD_SOLID_BREP ( 'Hex', #304 ) ;
#121 = CARTESIAN_POINT ( 'NONE',  ( 1.040000000000000036, 0.000000000000000000, 0.000000000000000000 ) ) ;
#122 = DIRECTION ( 'NONE',  ( -0.000000000000000000, 0.4999999999999985567, 0.8660254037844393737 ) ) ;
#123 = LINE ( 'NONE', #401, #253 ) ;
#124 = AXIS2_PLACEMENT_3D ( 'NONE', #28, #149, #68 ) ;
#125 = LINE ( 'NONE', #457, #126 ) ;
#126 = VECTOR ( 'NONE', #131, 1000.000000000000000 ) ;
#127 = CARTESIAN_POINT ( 'NONE',  ( 0.000000000000000000, -1.154700538379248131, 1.129282925304327546E-16 ) ) ;
#128 = EDGE_CURVE ( 'NONE', #319, #40, #320, .T. ) ;
#129 = CARTESIAN_POINT ( 'NONE',  ( 0.000000000000000000, 0.5773502691896279515, 1.000000000000000888 ) ) ;
#130 = EDGE_LOOP ( 'NONE', ( #534 ) ) ;
#131 = DIRECTION ( 'NONE',  ( -0.000000000000000000, -1.000000000000000000, -2.253471898105735490E-15 ) ) ;
#132 = CARTESIAN_POINT ( 'NONE',  ( 0.000000000000000000, -0.5773502691896261751, -1.000000000000000000 ) ) ;
#133 = ORIENTED_EDGE ( 'NONE', *, *, #496, .F. ) ;
#134 = VECTOR ( 'NONE', #366, 1000.000000000000114 ) ;
#135 = EDGE_CURVE ( 'NONE', #471, #471, #94, .T. ) ;
#136 = CARTESIAN_POINT ( 'NONE',  ( 1.040000000000000036, 1.154700538379251684, 7.017607234860990640E-28 ) ) ;
#137 = ORIENTED_EDGE ( 'NONE', *, *, #128, .T. ) ;
#138 = ORIENTED_EDGE ( 'NONE', *, *, #422, .F. ) ;
#139 = LINE ( 'NONE', #265, #67 ) ;
#140 = EDGE_LOOP ( 'NONE', ( #197 ) ) ;
#141 = CARTESIAN_POINT ( 'NONE',  ( 1.040000000000000036, 0.5773502691896279515, -1.000000000000000000 ) ) ;
#142 = AXIS2_PLACEMENT_3D ( 'NONE', #260, #7, #416 ) ;
#143 = AXIS2_PLACEMENT_3D ( 'NONE', #209, #542, #201 ) ;
#144 = FACE_OUTER_BOUND ( 'NONE', #229, .T. ) ;
#145 = EDGE_CURVE ( 'NONE', #300, #153, #425, .T. ) ;
#146 = PLANE ( 'NONE',  #13 ) ;
#147 = PLANE ( 'NONE',  #463 ) ;
#148 = FACE_OUTER_BOUND ( 'NONE', #430, .T. ) ;
#149 = DIRECTION ( 'NONE',  ( -1.000000000000000000, -0.000000000000000000, -0.000000000000000000 ) ) ;
#150 = DIRECTION ( 'NONE',  ( 1.000000000000000000, 0.000000000000000000, -0.000000000000000000 ) ) ;
#151 = AXIS2_PLACEMENT_3D ( 'NONE', #121, #541, #198 ) ;
#152 = EDGE_CURVE ( 'NONE', #219, #346, #338, .T. ) ;
#153 = VERTEX_POINT ( 'NONE', #127 ) ;
#154 = DIRECTION ( 'NONE',  ( -0.000000000000000000, 0.4999999999999973355, -0.8660254037844401509 ) ) ;
#155 = CARTESIAN_POINT ( 'NONE',  ( 1.040000000000000036, -1.154700538379248131, 1.129282925304327546E-16 ) ) ;
#156 = ORIENTED_EDGE ( 'NONE', *, *, #152, .T. ) ;
#157 = LINE ( 'NONE', #482, #76 ) ;
#158 = AXIS2_PLACEMENT_3D ( 'NONE', #186, #528, #480 ) ;
#159 = VECTOR ( 'NONE', #539, 1000.000000000000000 ) ;
#160 = LINE ( 'NONE', #155, #473 ) ;
#161 = DIRECTION ( 'NONE',  ( -1.000000000000000000, -0.000000000000000000, -0.000000000000000000 ) ) ;
#162 = EDGE_CURVE ( 'NONE', #212, #346, #509, .T. ) ;
#163 = LINE ( 'NONE', #35, #75 ) ;
#164 = CARTESIAN_POINT ( 'NONE',  ( 1.040000000000000036, 1.154700538379251684, 7.017607234860990640E-28 ) ) ;
#165 = EDGE_CURVE ( 'NONE', #93, #93, #202, .T. ) ;
#166 = AXIS2_PLACEMENT_3D ( 'NONE', #404, #412, #45 ) ;
#167 = PRODUCT_DEFINITION_FORMATION_WITH_SPECIFIED_SOURCE ( 'Symmetric', '', #52, .NOT_KNOWN. ) ;
#168 = EDGE_LOOP ( 'NONE', ( #529, #81, #70 ) ) ;
#169 = DIRECTION ( 'NONE',  ( -1.000000000000000000, -0.000000000000000000, -0.000000000000000000 ) ) ;
#170 = VECTOR ( 'NONE', #87, 1000.000000000000000 ) ;
#171 = VERTEX_POINT ( 'NONE', #129 ) ;
#172 = VERTEX_POINT ( 'NONE', #185 ) ;
#173 = VERTEX_POINT ( 'NONE', #132 ) ;
#174 = ADVANCED_FACE ( 'NONE', ( #47, #95 ), #383, .T. ) ;
#175 = FACE_OUTER_BOUND ( 'NONE', #191, .T. ) ;
#176 = ORIENTED_EDGE ( 'NONE', *, *, #381, .T. ) ;
#177 = AXIS2_PLACEMENT_3D ( 'NONE', #340, #65, #469 ) ;
#178 = PLANE ( 'NONE',  #177 ) ;
#179 = FACE_OUTER_BOUND ( 'NONE', #48, .T. ) ;
#180 = ORIENTED_EDGE ( 'NONE', *, *, #33, .F. ) ;
#181 = DIRECTION ( 'NONE',  ( 1.000000000000000000, 0.000000000000000000, 0.000000000000000000 ) ) ;
#182 = CARTESIAN_POINT ( 'NONE',  ( 1.040000000000000036, -0.8660254037844403729, -0.4999999999999973910 ) ) ;
#183 = CARTESIAN_POINT ( 'NONE',  ( 1.040000000000000036, -1.732050807568872086, -1.000000000000000000 ) ) ;
#184 = ORIENTED_EDGE ( 'NONE', *, *, #228, .T. ) ;
#185 = CARTESIAN_POINT ( 'NONE',  ( 1.650000000000000355, 0.000000000000000000, 1.599999999999995648 ) ) ;
#186 = CARTESIAN_POINT ( 'NONE',  ( 1.650000000000000355, 1.499999999999990896, 0.000000000000000000 ) ) ;
#187 = ORIENTED_EDGE ( 'NONE', *, *, #464, .T. ) ;
#188 = AXIS2_PLACEMENT_3D ( 'NONE', #25, #345, #531 ) ;
#189 = AXIS2_PLACEMENT_3D ( 'NONE', #442, #389, #445 ) ;
#190 = DIRECTION ( 'NONE',  ( -0.000000000000000000, 0.000000000000000000, -1.000000000000000000 ) ) ;
#191 = EDGE_LOOP ( 'NONE', ( #92, #54, #64, #99, #507 ) ) ;
#192 = FACE_OUTER_BOUND ( 'NONE', #89, .T. ) ;
#193 = DIRECTION ( 'NONE',  ( 0.000000000000000000, 0.000000000000000000, 1.000000000000000000 ) ) ;
#194 = EDGE_LOOP ( 'NONE', ( #426 ) ) ;
#195 = AXIS2_PLACEMENT_3D ( 'NONE', #451, #249, #316 ) ;
#196 = DIRECTION ( 'NONE',  ( -0.000000000000000000, 0.000000000000000000, -1.000000000000000000 ) ) ;
#197 = ORIENTED_EDGE ( 'NONE', *, *, #165, .T. ) ;
#198 = DIRECTION ( 'NONE',  ( 0.000000000000000000, 0.000000000000000000, 1.000000000000000000 ) ) ;
#199 = CARTESIAN_POINT ( 'NONE',  ( 1.040000000000000036, 0.5773502691896279515, 1.000000000000000888 ) ) ;
#200 = CARTESIAN_POINT ( 'NONE',  ( 1.040000000000000036, -0.8660254037844373753, 0.4999999999999976130 ) ) ;
#201 = DIRECTION ( 'NONE',  ( -0.000000000000000000, 0.000000000000000000, -1.000000000000000000 ) ) ;
#202 = CIRCLE ( 'NONE', #142, 1.499999999999995781 ) ;
#203 = APPLICATION_CONTEXT ( 'automotive_design' ) ;
#204 = SURFACE_STYLE_FILL_AREA ( #370 ) ;
#205 = ORIENTED_EDGE ( 'NONE', *, *, #22, .T. ) ;
#206 = DIRECTION ( 'NONE',  ( -0.000000000000000000, 0.4999999999999973355, -0.8660254037844401509 ) ) ;
#207 = EDGE_CURVE ( 'NONE', #420, #334, #57, .T. ) ;
#208 = SURFACE_STYLE_USAGE ( .BOTH. , #37 ) ;
#209 = CARTESIAN_POINT ( 'NONE',  ( 1.040000000000000036, -1.732050807568872086, -1.000000000000000000 ) ) ;
#210 = VECTOR ( 'NONE', #434, 1000.000000000000227 ) ;
#211 = ORIENTED_EDGE ( 'NONE', *, *, #257, .T. ) ;
#212 = VERTEX_POINT ( 'NONE', #136 ) ;
#213 = DIRECTION ( 'NONE',  ( 0.000000000000000000, 1.000000000000000000, 0.000000000000000000 ) ) ;
#214 = ORIENTED_EDGE ( 'NONE', *, *, #33, .T. ) ;
#215 = VERTEX_POINT ( 'NONE', #335 ) ;
#216 = CARTESIAN_POINT ( 'NONE',  ( 1.270000000000000240, 0.000000000000000000, 2.849999999999998312 ) ) ;
#217 = COLOUR_RGB ( '',0.7921568627450980005, 0.8196078431372548767, 0.9333333333333333481 ) ;
#218 = AXIS2_PLACEMENT_3D ( 'NONE', #290, #376, #248 ) ;
#219 = VERTEX_POINT ( 'NONE', #299 ) ;
#220 = CARTESIAN_POINT ( 'NONE',  ( 13.36949999999999861, 0.000000000000000000, 1.500000000000000666 ) ) ;
#221 = ADVANCED_FACE ( 'NONE', ( #179 ), #355, .F. ) ;
#222 = ORIENTED_EDGE ( 'NONE', *, *, #415, .F. ) ;
#223 =( NAMED_UNIT ( * ) PLANE_ANGLE_UNIT ( ) SI_UNIT ( $, .RADIAN. ) );
#224 = DIRECTION ( 'NONE',  ( 0.000000000000000000, 0.000000000000000000, 1.000000000000000000 ) ) ;
#225 = CIRCLE ( 'NONE', #151, 1.000000000000000000 ) ;
#226 = AXIS2_PLACEMENT_3D ( 'NONE', #24, #78, #312 ) ;
#227 = CARTESIAN_POINT ( 'NONE',  ( 1.750000000000000444, 0.000000000000000000, 0.000000000000000000 ) ) ;
#228 = EDGE_CURVE ( 'NONE', #275, #396, #60, .T. ) ;
#229 = EDGE_LOOP ( 'NONE', ( #358 ) ) ;
#230 = APPLICATION_CONTEXT ( 'automotive_design' ) ;
#231 = DIRECTION ( 'NONE',  ( -0.000000000000000000, 0.000000000000000000, -1.000000000000000000 ) ) ;
#232 = LINE ( 'NONE', #268, #244 ) ;
#233 = ORIENTED_EDGE ( 'NONE', *, *, #395, .F. ) ;
#234 =( GEOMETRIC_REPRESENTATION_CONTEXT ( 3 ) GLOBAL_UNCERTAINTY_ASSIGNED_CONTEXT ( ( #114 ) ) GLOBAL_UNIT_ASSIGNED_CONTEXT ( ( #318, #367, #246 ) ) REPRESENTATION_CONTEXT ( 'NONE', 'WORKASPACE' ) );
#235 = DIRECTION ( 'NONE',  ( 1.000000000000000000, 0.000000000000000000, -0.000000000000000000 ) ) ;
#236 = DIRECTION ( 'NONE',  ( -1.000000000000000000, 0.000000000000000000, 0.000000000000000000 ) ) ;
#237 = LINE ( 'NONE', #402, #170 ) ;
#238 = ADVANCED_FACE ( 'NONE', ( #351, #144 ), #19, .F. ) ;
#239 = DIRECTION ( 'NONE',  ( 0.000000000000000000, 0.4999999999999987232, 0.8660254037844392627 ) ) ;
#240 = DIRECTION ( 'NONE',  ( -1.000000000000000000, -0.000000000000000000, -0.000000000000000000 ) ) ;
#241 = DIRECTION ( 'NONE',  ( -0.000000000000000000, 0.000000000000000000, 1.000000000000000000 ) ) ;
#242 = CARTESIAN_POINT ( 'NONE',  ( 0.000000000000000000, 0.5773502691896279515, -1.000000000000000000 ) ) ;
#243 = LINE ( 'NONE', #406, #307 ) ;
#244 = VECTOR ( 'NONE', #32, 1000.000000000000000 ) ;
#245 = VECTOR ( 'NONE', #326, 1000.000000000000000 ) ;
#246 =( NAMED_UNIT ( * ) SI_UNIT ( $, .STERADIAN. ) SOLID_ANGLE_UNIT ( ) );
#247 = EDGE_CURVE ( 'NONE', #72, #275, #348, .T. ) ;
#248 = DIRECTION ( 'NONE',  ( 0.000000000000000000, 0.000000000000000000, 1.000000000000000000 ) ) ;
#249 = DIRECTION ( 'NONE',  ( 0.000000000000000000, -0.8660254037844394848, 0.4999999999999986122 ) ) ;
#250 = CARTESIAN_POINT ( 'NONE',  ( 0.000000000000000000, 0.000000000000000000, 0.000000000000000000 ) ) ;
#251 = DIRECTION ( 'NONE',  ( -1.000000000000000000, 0.000000000000000000, 0.000000000000000000 ) ) ;
#252 = EDGE_LOOP ( 'NONE', ( #488, #342, #494, #512, #156, #519 ) ) ;
#253 = VECTOR ( 'NONE', #236, 1000.000000000000000 ) ;
#254 = CONICAL_SURFACE ( 'NONE', #437, 1.219500000000000028, 0.7853981633974471688 ) ;
#255 = ORIENTED_EDGE ( 'NONE', *, *, #315, .T. ) ;
#256 = CARTESIAN_POINT ( 'NONE',  ( 1.650000000000000355, 0.000000000000000000, 2.849999999999996536 ) ) ;
#257 = EDGE_CURVE ( 'NONE', #215, #215, #280, .T. ) ;
#258 = CARTESIAN_POINT ( 'NONE',  ( 1.040000000000000036, -0.5773502691896253980, 0.9999999999999983347 ) ) ;
#259 = EDGE_LOOP ( 'NONE', ( #211 ) ) ;
#260 = CARTESIAN_POINT ( 'NONE',  ( 1.750000000000000444, 0.000000000000000000, 0.000000000000000000 ) ) ;
#261 = VERTEX_POINT ( 'NONE', #256 ) ;
#262 = CARTESIAN_POINT ( 'NONE',  ( 13.36949999999999861, 0.000000000000000000, 0.000000000000000000 ) ) ;
#263 = ORIENTED_EDGE ( 'NONE', *, *, #288, .F. ) ;
#264 = ADVANCED_FACE ( 'NONE', ( #310, #274 ), #349, .F. ) ;
#265 = CARTESIAN_POINT ( 'NONE',  ( 1.040000000000000036, -0.5773502691896261751, -1.000000000000000000 ) ) ;
#266 = ORIENTED_EDGE ( 'NONE', *, *, #257, .F. ) ;
#267 = EDGE_LOOP ( 'NONE', ( #510, #350, #133 ) ) ;
#268 = CARTESIAN_POINT ( 'NONE',  ( 1.040000000000000036, -0.5773502691896261751, -1.000000000000000000 ) ) ;
#269 = EDGE_CURVE ( 'NONE', #40, #334, #313, .T. ) ;
#270 = CARTESIAN_POINT ( 'NONE',  ( 1.040000000000000036, -0.5773502691896253980, 0.9999999999999983347 ) ) ;
#271 = STYLED_ITEM ( 'NONE', ( #278 ), #120 ) ;
#272 = VECTOR ( 'NONE', #508, 1000.000000000000227 ) ;
#273 = DIRECTION ( 'NONE',  ( 0.000000000000000000, -0.8660254037844397068, -0.4999999999999982236 ) ) ;
#274 = FACE_OUTER_BOUND ( 'NONE', #467, .T. ) ;
#275 = VERTEX_POINT ( 'NONE', #521 ) ;
#276 = PRODUCT_DEFINITION_SHAPE ( 'NONE', 'NONE',  #374 ) ;
#277 = PLANE ( 'NONE',  #327 ) ;
#278 = PRESENTATION_STYLE_ASSIGNMENT (( #208 ) ) ;
#279 = PRODUCT_RELATED_PRODUCT_CATEGORY ( 'part', '', ( #52 ) ) ;
#280 = CIRCLE ( 'NONE', #124, 1.425000000000000044 ) ;
#281 = VECTOR ( 'NONE', #357, 1000.000000000000114 ) ;
#282 = CARTESIAN_POINT ( 'NONE',  ( 1.040000000000000036, -1.732050807568872086, -1.000000000000000000 ) ) ;
#283 = PLANE ( 'NONE',  #435 ) ;
#284 = ORIENTED_EDGE ( 'NONE', *, *, #353, .T. ) ;
#285 = PLANE ( 'NONE',  #41 ) ;
#286 = FACE_OUTER_BOUND ( 'NONE', #107, .T. ) ;
#287 = CARTESIAN_POINT ( 'NONE',  ( 0.000000000000000000, -0.5773502691896253980, 0.9999999999999983347 ) ) ;
#288 = EDGE_CURVE ( 'NONE', #319, #352, #139, .T. ) ;
#289 = DIRECTION ( 'NONE',  ( -0.000000000000000000, -0.4999999999999982236, 0.8660254037844395958 ) ) ;
#290 = CARTESIAN_POINT ( 'NONE',  ( 1.270000000000000240, 0.000000000000000000, 0.000000000000000000 ) ) ;
#291 = PLANE ( 'NONE',  #538 ) ;
#292 = FACE_OUTER_BOUND ( 'NONE', #168, .T. ) ;
#293 = EDGE_LOOP ( 'NONE', ( #393 ) ) ;
#294 = ADVANCED_FACE ( 'NONE', ( #411 ), #317, .F. ) ;
#295 = VECTOR ( 'NONE', #251, 1000.000000000000000 ) ;
#296 = VECTOR ( 'NONE', #122, 1000.000000000000227 ) ;
#297 = ORIENTED_EDGE ( 'NONE', *, *, #69, .T. ) ;
#298 = CARTESIAN_POINT ( 'NONE',  ( 0.000000000000000000, 0.000000000000000000, 0.000000000000000000 ) ) ;
#299 = CARTESIAN_POINT ( 'NONE',  ( 0.000000000000000000, 0.5773502691896279515, -1.000000000000000000 ) ) ;
#300 = VERTEX_POINT ( 'NONE', #443 ) ;
#301 = CARTESIAN_POINT ( 'NONE',  ( 13.65000000000000036, 0.000000000000000000, 1.219500000000000028 ) ) ;
#302 = ADVANCED_FACE ( 'NONE', ( #490 ), #277, .T. ) ;
#303 = EDGE_LOOP ( 'NONE', ( #461 ) ) ;
#304 = CLOSED_SHELL ( 'NONE', ( #341, #174, #331, #238, #431, #476, #439, #264, #302, #91, #323, #106, #39, #98, #360, #51, #294, #17, #483, #221, #8 ) ) ;
#305 = ORIENTED_EDGE ( 'NONE', *, *, #207, .F. ) ;
#306 = CARTESIAN_POINT ( 'NONE',  ( 0.000000000000000000, 0.000000000000000000, 0.000000000000000000 ) ) ;
#307 = VECTOR ( 'NONE', #206, 1000.000000000000227 ) ;
#308 = ORIENTED_EDGE ( 'NONE', *, *, #152, .F. ) ;
#309 = CARTESIAN_POINT ( 'NONE',  ( -998.3826497308103853, 0.000000000000000000, 0.000000000000000000 ) ) ;
#310 = FACE_OUTER_BOUND ( 'NONE', #417, .T. ) ;
#311 = CARTESIAN_POINT ( 'NONE',  ( 13.65000000000000036, 0.000000000000000000, 0.000000000000000000 ) ) ;
#312 = DIRECTION ( 'NONE',  ( 0.000000000000000000, 0.000000000000000000, 1.000000000000000000 ) ) ;
#313 = CIRCLE ( 'NONE', #188, 1.000000000000000000 ) ;
#314 = VERTEX_POINT ( 'NONE', #403 ) ;
#315 = EDGE_CURVE ( 'NONE', #212, #18, #34, .T. ) ;
#316 = DIRECTION ( 'NONE',  ( 0.000000000000000000, -0.4999999999999986122, -0.8660254037844394848 ) ) ;
#317 = PLANE ( 'NONE',  #364 ) ;
#318 =( LENGTH_UNIT ( ) NAMED_UNIT ( * ) SI_UNIT ( .MILLI., .METRE. ) );
#319 = VERTEX_POINT ( 'NONE', #182 ) ;
#320 = CIRCLE ( 'NONE', #21, 1.000000000000000000 ) ;
#321 = AXIS2_PLACEMENT_3D ( 'NONE', #418, #414, #330 ) ;
#322 = CARTESIAN_POINT ( 'NONE',  ( 1.040000000000000036, -0.5773502691896261751, -1.000000000000000000 ) ) ;
#323 = ADVANCED_FACE ( 'NONE', ( #175 ), #146, .T. ) ;
#324 = DIRECTION ( 'NONE',  ( 0.000000000000000000, 0.8660254037844401509, 0.4999999999999973910 ) ) ;
#325 = FACE_OUTER_BOUND ( 'NONE', #140, .T. ) ;
#326 = DIRECTION ( 'NONE',  ( -0.000000000000000000, 1.000000000000000000, -0.000000000000000000 ) ) ;
#327 = AXIS2_PLACEMENT_3D ( 'NONE', #446, #79, #239 ) ;
#328 = DIRECTION ( 'NONE',  ( -1.000000000000000000, -0.000000000000000000, -0.000000000000000000 ) ) ;
#329 = ORIENTED_EDGE ( 'NONE', *, *, #455, .F. ) ;
#330 = DIRECTION ( 'NONE',  ( 0.000000000000000000, 0.000000000000000000, 1.000000000000000000 ) ) ;
#331 = ADVANCED_FACE ( 'NONE', ( #472, #56 ), #344, .T. ) ;
#332 = ORIENTED_EDGE ( 'NONE', *, *, #269, .F. ) ;
#333 =( LENGTH_UNIT ( ) NAMED_UNIT ( * ) SI_UNIT ( .MILLI., .METRE. ) );
#334 = VERTEX_POINT ( 'NONE', #382 ) ;
#335 = CARTESIAN_POINT ( 'NONE',  ( 8.673617379884035472E-16, 0.000000000000000000, 1.425000000000000044 ) ) ;
#336 = DIRECTION ( 'NONE',  ( 1.000000000000000000, 0.000000000000000000, -0.000000000000000000 ) ) ;
#337 = CONICAL_SURFACE ( 'NONE', #399, 1732.050807568857181, 1.047197551196592746 ) ;
#338 = LINE ( 'NONE', #88, #419 ) ;
#339 = ORIENTED_EDGE ( 'NONE', *, *, #247, .T. ) ;
#340 = CARTESIAN_POINT ( 'NONE',  ( 4.336808689942017736E-16, 0.000000000000000000, 0.000000000000000000 ) ) ;
#341 = ADVANCED_FACE ( 'NONE', ( #12, #103 ), #178, .T. ) ;
#342 = ORIENTED_EDGE ( 'NONE', *, *, #422, .T. ) ;
#343 = LINE ( 'NONE', #378, #505 ) ;
#344 = CYLINDRICAL_SURFACE ( 'NONE', #484, 2.849999999999997424 ) ;
#345 = DIRECTION ( 'NONE',  ( -1.000000000000000000, -0.000000000000000000, -0.000000000000000000 ) ) ;
#346 = VERTEX_POINT ( 'NONE', #520 ) ;
#347 = CARTESIAN_POINT ( 'NONE',  ( 1.750000000000000444, 0.000000000000000000, 1.499999999999995781 ) ) ;
#348 = LINE ( 'NONE', #109, #210 ) ;
#349 = TOROIDAL_SURFACE ( 'NONE', #49, 1.599999999999995648, 0.1000000000000000056 ) ;
#350 = ORIENTED_EDGE ( 'NONE', *, *, #315, .F. ) ;
#351 = FACE_BOUND ( 'NONE', #293, .T. ) ;
#352 = VERTEX_POINT ( 'NONE', #71 ) ;
#353 = EDGE_CURVE ( 'NONE', #352, #173, #232, .T. ) ;
#354 = CARTESIAN_POINT ( 'NONE',  ( 1.650000000000000355, 0.000000000000000000, 0.000000000000000000 ) ) ;
#355 = PLANE ( 'NONE',  #38 ) ;
#356 = ORIENTED_EDGE ( 'NONE', *, *, #530, .F. ) ;
#357 = DIRECTION ( 'NONE',  ( -0.000000000000000000, -0.4999999999999982236, 0.8660254037844395958 ) ) ;
#358 = ORIENTED_EDGE ( 'NONE', *, *, #407, .F. ) ;
#359 = AXIS2_PLACEMENT_3D ( 'NONE', #104, #392, #63 ) ;
#360 = ADVANCED_FACE ( 'NONE', ( #148 ), #438, .F. ) ;
#361 = PLANE ( 'NONE',  #166 ) ;
#362 = EDGE_CURVE ( 'NONE', #346, #171, #479, .T. ) ;
#363 = LINE ( 'NONE', #164, #296 ) ;
#364 = AXIS2_PLACEMENT_3D ( 'NONE', #282, #235, #196 ) ;
#365 = AXIS2_PLACEMENT_3D ( 'NONE', #306, #380, #181 ) ;
#366 = DIRECTION ( 'NONE',  ( -0.000000000000000000, -0.4999999999999982236, 0.8660254037844395958 ) ) ;
#367 =( NAMED_UNIT ( * ) PLANE_ANGLE_UNIT ( ) SI_UNIT ( $, .RADIAN. ) );
#368 = CARTESIAN_POINT ( 'NONE',  ( 1.040000000000000036, 0.5773502691896279515, 1.000000000000000888 ) ) ;
#369 = PLANE ( 'NONE',  #143 ) ;
#370 = FILL_AREA_STYLE ('',( #408 ) ) ;
#371 = FACE_OUTER_BOUND ( 'NONE', #377, .T. ) ;
#372 = AXIS2_PLACEMENT_3D ( 'NONE', #262, #328, #511 ) ;
#373 = CIRCLE ( 'NONE', #321, 1.000000000000000000 ) ;
#374 = PRODUCT_DEFINITION ( 'General', '', #167, #30 ) ;
#375 = VERTEX_POINT ( 'NONE', #398 ) ;
#376 = DIRECTION ( 'NONE',  ( -1.000000000000000000, -0.000000000000000000, -0.000000000000000000 ) ) ;
#377 = EDGE_LOOP ( 'NONE', ( #61 ) ) ;
#378 = CARTESIAN_POINT ( 'NONE',  ( 1.040000000000000036, 0.5773502691896279515, -1.000000000000000000 ) ) ;
#379 = EDGE_LOOP ( 'NONE', ( #523, #176, #481, #138, #180 ) ) ;
#380 = DIRECTION ( 'NONE',  ( 0.000000000000000000, 0.000000000000000000, 1.000000000000000000 ) ) ;
#381 = EDGE_CURVE ( 'NONE', #40, #300, #157, .T. ) ;
#382 = CARTESIAN_POINT ( 'NONE',  ( 1.040000000000000036, -2.253471898105734307E-15, 0.9999999999999995559 ) ) ;
#383 = SPHERICAL_SURFACE ( 'NONE', #444, 3.351416843938793466 ) ;
#384 = EDGE_LOOP ( 'NONE', ( #205 ) ) ;
#385 = ORIENTED_EDGE ( 'NONE', *, *, #288, .T. ) ;
#386 = EDGE_LOOP ( 'NONE', ( #339, #53, #111, #308, #222 ) ) ;
#387 = EDGE_CURVE ( 'NONE', #172, #172, #474, .T. ) ;
#388 = DIRECTION ( 'NONE',  ( -1.000000000000000000, -0.000000000000000000, -0.000000000000000000 ) ) ;
#389 = DIRECTION ( 'NONE',  ( -1.000000000000000000, -0.000000000000000000, -0.000000000000000000 ) ) ;
#390 = DIRECTION ( 'NONE',  ( -1.000000000000000000, -0.000000000000000000, -0.000000000000000000 ) ) ;
#391 = CARTESIAN_POINT ( 'NONE',  ( 1.040000000000000036, 0.8660254037844402619, 0.4999999999999986122 ) ) ;
#392 = DIRECTION ( 'NONE',  ( -1.000000000000000000, -0.000000000000000000, -0.000000000000000000 ) ) ;
#393 = ORIENTED_EDGE ( 'NONE', *, *, #387, .T. ) ;
#394 = DIRECTION ( 'NONE',  ( -0.000000000000000000, 0.000000000000000000, -1.000000000000000000 ) ) ;
#395 = EDGE_CURVE ( 'NONE', #334, #18, #115, .T. ) ;
#396 = VERTEX_POINT ( 'NONE', #27 ) ;
#397 = CIRCLE ( 'NONE', #3, 1.219500000000000028 ) ;
#398 = CARTESIAN_POINT ( 'NONE',  ( 1.040000000000000036, -0.5773502691896253980, 0.9999999999999983347 ) ) ;
#399 = AXIS2_PLACEMENT_3D ( 'NONE', #309, #388, #478 ) ;
#400 = CIRCLE ( 'NONE', #218, 2.849999999999998312 ) ;
#401 = CARTESIAN_POINT ( 'NONE',  ( 1.040000000000000036, 0.5773502691896279515, 1.000000000000000888 ) ) ;
#402 = CARTESIAN_POINT ( 'NONE',  ( 1.040000000000000036, 0.5773502691896279515, -1.000000000000000000 ) ) ;
#403 = CARTESIAN_POINT ( 'NONE',  ( 4.336808689942017736E-16, -0.5773502691896253980, 0.9999999999999983347 ) ) ;
#404 = CARTESIAN_POINT ( 'NONE',  ( 1.040000000000000036, -1.732050807568872086, -1.000000000000000000 ) ) ;
#405 = ORIENTED_EDGE ( 'NONE', *, *, #530, .T. ) ;
#406 = CARTESIAN_POINT ( 'NONE',  ( 1.040000000000000036, -0.5773502691896261751, -1.000000000000000000 ) ) ;
#407 = EDGE_CURVE ( 'NONE', #261, #261, #454, .T. ) ;
#408 = FILL_AREA_STYLE_COLOUR ( '', #217 ) ;
#409 = CARTESIAN_POINT ( 'NONE',  ( 13.65000000000000036, 0.000000000000000000, 0.000000000000000000 ) ) ;
#410 = VECTOR ( 'NONE', #436, 1000.000000000000000 ) ;
#411 = FACE_OUTER_BOUND ( 'NONE', #116, .T. ) ;
#412 = DIRECTION ( 'NONE',  ( 1.000000000000000000, 0.000000000000000000, -0.000000000000000000 ) ) ;
#413 = LINE ( 'NONE', #86, #272 ) ;
#414 = DIRECTION ( 'NONE',  ( -1.000000000000000000, -0.000000000000000000, -0.000000000000000000 ) ) ;
#415 = EDGE_CURVE ( 'NONE', #72, #219, #237, .T. ) ;
#416 = DIRECTION ( 'NONE',  ( 0.000000000000000000, 0.000000000000000000, 1.000000000000000000 ) ) ;
#417 = EDGE_LOOP ( 'NONE', ( #29 ) ) ;
#418 = CARTESIAN_POINT ( 'NONE',  ( 1.040000000000000036, 0.000000000000000000, 0.000000000000000000 ) ) ;
#419 = VECTOR ( 'NONE', #428, 1000.000000000000227 ) ;
#420 = VERTEX_POINT ( 'NONE', #368 ) ;
#421 = DIRECTION ( 'NONE',  ( 0.000000000000000000, 0.000000000000000000, -1.000000000000000000 ) ) ;
#422 = EDGE_CURVE ( 'NONE', #314, #153, #413, .T. ) ;
#423 = ORIENTED_EDGE ( 'NONE', *, *, #450, .T. ) ;
#424 = DIRECTION ( 'NONE',  ( 0.000000000000000000, 0.000000000000000000, 1.000000000000000000 ) ) ;
#425 = LINE ( 'NONE', #518, #453 ) ;
#426 = ORIENTED_EDGE ( 'NONE', *, *, #514, .T. ) ;
#427 = DIRECTION ( 'NONE',  ( 0.000000000000000000, 0.000000000000000000, 1.000000000000000000 ) ) ;
#428 = DIRECTION ( 'NONE',  ( -0.000000000000000000, 0.4999999999999985567, 0.8660254037844393737 ) ) ;
#429 = ORIENTED_EDGE ( 'NONE', *, *, #502, .F. ) ;
#430 = EDGE_LOOP ( 'NONE', ( #448, #73, #108 ) ) ;
#431 = ADVANCED_FACE ( 'NONE', ( #325, #117 ), #90, .T. ) ;
#432 = CARTESIAN_POINT ( 'NONE',  ( 1.040000000000000036, -1.732050807568872086, -1.000000000000000000 ) ) ;
#433 = CARTESIAN_POINT ( 'NONE',  ( 1.040000000000000036, -1.732050807568872086, -1.000000000000000000 ) ) ;
#434 = DIRECTION ( 'NONE',  ( -0.000000000000000000, 0.4999999999999985567, 0.8660254037844393737 ) ) ;
#435 = AXIS2_PLACEMENT_3D ( 'NONE', #447, #80, #500 ) ;
#436 = DIRECTION ( 'NONE',  ( -1.000000000000000000, 0.000000000000000000, 0.000000000000000000 ) ) ;
#437 = AXIS2_PLACEMENT_3D ( 'NONE', #409, #161, #2 ) ;
#438 = PLANE ( 'NONE',  #540 ) ;
#439 = ADVANCED_FACE ( 'NONE', ( #46 ), #285, .F. ) ;
#440 = DIRECTION ( 'NONE',  ( 0.000000000000000000, 0.4999999999999981681, -0.8660254037844395958 ) ) ;
#441 = ORIENTED_EDGE ( 'NONE', *, *, #74, .F. ) ;
#442 = CARTESIAN_POINT ( 'NONE',  ( 1.650000000000000355, 0.000000000000000000, 0.000000000000000000 ) ) ;
#443 = CARTESIAN_POINT ( 'NONE',  ( 1.040000000000000036, -1.154700538379248131, 1.129282925304327546E-16 ) ) ;
#444 = AXIS2_PLACEMENT_3D ( 'NONE', #460, #421, #213 ) ;
#445 = DIRECTION ( 'NONE',  ( 0.000000000000000000, 0.000000000000000000, 1.000000000000000000 ) ) ;
#446 = CARTESIAN_POINT ( 'NONE',  ( 1.040000000000000036, -1.154700538379248131, 1.129282925304327546E-16 ) ) ;
#447 = CARTESIAN_POINT ( 'NONE',  ( 1.040000000000000036, -0.5773502691896253980, 0.9999999999999983347 ) ) ;
#448 = ORIENTED_EDGE ( 'NONE', *, *, #228, .F. ) ;
#449 = CARTESIAN_POINT ( 'NONE',  ( 13.65000000000000036, 0.000000000000000000, 0.000000000000000000 ) ) ;
#450 = EDGE_CURVE ( 'NONE', #300, #319, #243, .T. ) ;
#451 = CARTESIAN_POINT ( 'NONE',  ( 1.040000000000000036, 1.154700538379251684, 7.017607234860990640E-28 ) ) ;
#452 = CARTESIAN_POINT ( 'NONE',  ( 1.040000000000000036, 0.5773502691896279515, -1.000000000000000000 ) ) ;
#453 = VECTOR ( 'NONE', #506, 1000.000000000000000 ) ;
#454 = CIRCLE ( 'NONE', #14, 2.849999999999996536 ) ;
#455 = EDGE_CURVE ( 'NONE', #171, #314, #501, .T. ) ;
#456 = EDGE_LOOP ( 'NONE', ( #58, #102, #184, #187, #137, #535 ) ) ;
#457 = CARTESIAN_POINT ( 'NONE',  ( 1.040000000000000036, -0.5773502691896253980, 0.9999999999999983347 ) ) ;
#458 = CARTESIAN_POINT ( 'NONE',  ( 1.040000000000000036, 1.154700538379251684, 7.017607234860990640E-28 ) ) ;
#459 = EDGE_LOOP ( 'NONE', ( #332, #441, #356 ) ) ;
#460 = CARTESIAN_POINT ( 'NONE',  ( 3.033375984251976298, -7.806255641895631925E-15, 0.000000000000000000 ) ) ;
#461 = ORIENTED_EDGE ( 'NONE', *, *, #514, .F. ) ;
#462 = VERTEX_POINT ( 'NONE', #301 ) ;
#463 = AXIS2_PLACEMENT_3D ( 'NONE', #432, #150, #231 ) ;
#464 = EDGE_CURVE ( 'NONE', #396, #319, #373, .T. ) ;
#465 = PRODUCT_CONTEXT ( 'NONE', #203, 'mechanical' ) ;
#466 = DIRECTION ( 'NONE',  ( 0.000000000000000000, 0.000000000000000000, 1.000000000000000000 ) ) ;
#467 = EDGE_LOOP ( 'NONE', ( #100 ) ) ;
#468 = APPLICATION_PROTOCOL_DEFINITION ( 'draft international standard', 'automotive_design', 1998, #203 ) ;
#469 = DIRECTION ( 'NONE',  ( -0.000000000000000000, 0.000000000000000000, 1.000000000000000000 ) ) ;
#470 = ORIENTED_EDGE ( 'NONE', *, *, #145, .F. ) ;
#471 = VERTEX_POINT ( 'NONE', #220 ) ;
#472 = FACE_OUTER_BOUND ( 'NONE', #303, .T. ) ;
#473 = VECTOR ( 'NONE', #43, 1000.000000000000227 ) ;
#474 = CIRCLE ( 'NONE', #189, 1.599999999999995648 ) ;
#475 = ORIENTED_EDGE ( 'NONE', *, *, #522, .F. ) ;
#476 = ADVANCED_FACE ( 'NONE', ( #371, #36 ), #254, .T. ) ;
#477 = DIRECTION ( 'NONE',  ( 0.000000000000000000, 0.000000000000000000, 1.000000000000000000 ) ) ;
#478 = DIRECTION ( 'NONE',  ( 0.000000000000000000, 0.000000000000000000, 1.000000000000000000 ) ) ;
#479 = LINE ( 'NONE', #489, #281 ) ;
#480 = DIRECTION ( 'NONE',  ( -0.000000000000000000, 0.000000000000000000, 1.000000000000000000 ) ) ;
#481 = ORIENTED_EDGE ( 'NONE', *, *, #145, .T. ) ;
#482 = CARTESIAN_POINT ( 'NONE',  ( 1.040000000000000036, -1.154700538379248131, 1.129282925304327546E-16 ) ) ;
#483 = ADVANCED_FACE ( 'NONE', ( #292 ), #369, .F. ) ;
#484 = AXIS2_PLACEMENT_3D ( 'NONE', #298, #97, #424 ) ;
#485 = CARTESIAN_POINT ( 'NONE',  ( 1.040000000000000036, 0.5773502691896279515, 1.000000000000000888 ) ) ;
#486 = DIRECTION ( 'NONE',  ( -1.000000000000000000, -0.000000000000000000, -0.000000000000000000 ) ) ;
#487 = DIRECTION ( 'NONE',  ( 1.000000000000000000, 0.000000000000000000, -0.000000000000000000 ) ) ;
#488 = ORIENTED_EDGE ( 'NONE', *, *, #455, .T. ) ;
#489 = CARTESIAN_POINT ( 'NONE',  ( 0.000000000000000000, 0.5773502691896279515, 1.000000000000000888 ) ) ;
#490 = FACE_OUTER_BOUND ( 'NONE', #379, .T. ) ;
#491 = LINE ( 'NONE', #242, #85 ) ;
#492 = DIRECTION ( 'NONE',  ( 1.000000000000000000, 0.000000000000000000, -0.000000000000000000 ) ) ;
#493 = FACE_OUTER_BOUND ( 'NONE', #31, .T. ) ;
#494 = ORIENTED_EDGE ( 'NONE', *, *, #522, .T. ) ;
#495 = DIRECTION ( 'NONE',  ( -0.000000000000000000, 0.4999999999999973355, -0.8660254037844401509 ) ) ;
#496 = EDGE_CURVE ( 'NONE', #275, #212, #363, .T. ) ;
#497 = DIRECTION ( 'NONE',  ( 0.000000000000000000, -0.4999999999999973910, 0.8660254037844401509 ) ) ;
#498 = EDGE_LOOP ( 'NONE', ( #26 ) ) ;
#499 = LINE ( 'NONE', #452, #245 ) ;
#500 = DIRECTION ( 'NONE',  ( 0.000000000000000000, 1.000000000000000000, 2.253471898105735490E-15 ) ) ;
#501 = LINE ( 'NONE', #287, #159 ) ;
#502 = EDGE_CURVE ( 'NONE', #352, #396, #499, .T. ) ;
#503 = FACE_OUTER_BOUND ( 'NONE', #267, .T. ) ;
#504 = CARTESIAN_POINT ( 'NONE',  ( 0.000000000000000000, -0.5773502691896261751, -1.000000000000000000 ) ) ;
#505 = VECTOR ( 'NONE', #55, 1000.000000000000000 ) ;
#506 = DIRECTION ( 'NONE',  ( -1.000000000000000000, 0.000000000000000000, 0.000000000000000000 ) ) ;
#507 = ORIENTED_EDGE ( 'NONE', *, *, #353, .F. ) ;
#508 = DIRECTION ( 'NONE',  ( -0.000000000000000000, -0.4999999999999986677, -0.8660254037844392627 ) ) ;
#509 = LINE ( 'NONE', #458, #295 ) ;
#510 = ORIENTED_EDGE ( 'NONE', *, *, #59, .F. ) ;
#511 = DIRECTION ( 'NONE',  ( 0.000000000000000000, 0.000000000000000000, 1.000000000000000000 ) ) ;
#512 = ORIENTED_EDGE ( 'NONE', *, *, #110, .T. ) ;
#513 =( NAMED_UNIT ( * ) SI_UNIT ( $, .STERADIAN. ) SOLID_ANGLE_UNIT ( ) );
#514 = EDGE_CURVE ( 'NONE', #16, #16, #400, .T. ) ;
#515 = PRESENTATION_LAYER_ASSIGNMENT (  '', '', ( #271 ) ) ;
#516 = DIRECTION ( 'NONE',  ( -0.000000000000000000, -1.000000000000000000, -2.253471898105735490E-15 ) ) ;
#517 = ORIENTED_EDGE ( 'NONE', *, *, #22, .F. ) ;
#518 = CARTESIAN_POINT ( 'NONE',  ( 1.040000000000000036, -1.154700538379248131, 1.129282925304327546E-16 ) ) ;
#519 = ORIENTED_EDGE ( 'NONE', *, *, #362, .T. ) ;
#520 = CARTESIAN_POINT ( 'NONE',  ( 0.000000000000000000, 1.154700538379251684, 7.017607234860990640E-28 ) ) ;
#521 = CARTESIAN_POINT ( 'NONE',  ( 1.040000000000000036, 0.8660254037844401509, -0.4999999999999990563 ) ) ;
#522 = EDGE_CURVE ( 'NONE', #153, #173, #6, .T. ) ;
#523 = ORIENTED_EDGE ( 'NONE', *, *, #74, .T. ) ;
#524 = MECHANICAL_DESIGN_GEOMETRIC_PRESENTATION_REPRESENTATION (  '', ( #271 ), #234 ) ;
#525 = VECTOR ( 'NONE', #495, 1000.000000000000227 ) ;
#526 = FACE_OUTER_BOUND ( 'NONE', #456, .T. ) ;
#527 = ADVANCED_BREP_SHAPE_REPRESENTATION ( 'ISO 7380 - M3 x 12 - 12N_ISO 7380 - M3 x 12 - 12N', ( #120, #365 ), #50 ) ;
#528 = DIRECTION ( 'NONE',  ( -1.000000000000000000, 0.000000000000000000, -0.000000000000000000 ) ) ;
#529 = ORIENTED_EDGE ( 'NONE', *, *, #128, .F. ) ;
#530 = EDGE_CURVE ( 'NONE', #334, #375, #125, .T. ) ;
#531 = DIRECTION ( 'NONE',  ( 0.000000000000000000, 0.000000000000000000, 1.000000000000000000 ) ) ;
#532 = PLANE ( 'NONE',  #101 ) ;
#533 = VECTOR ( 'NONE', #516, 1000.000000000000000 ) ;
#534 = ORIENTED_EDGE ( 'NONE', *, *, #135, .T. ) ;
#535 = ORIENTED_EDGE ( 'NONE', *, *, #269, .T. ) ;
#536 = CARTESIAN_POINT ( 'NONE',  ( 1.040000000000000036, 0.000000000000000000, 0.000000000000000000 ) ) ;
#537 = CARTESIAN_POINT ( 'NONE',  ( 1.040000000000000036, 0.5773502691896279515, -1.000000000000000000 ) ) ;
#538 = AXIS2_PLACEMENT_3D ( 'NONE', #322, #324, #497 ) ;
#539 = DIRECTION ( 'NONE',  ( -0.000000000000000000, -1.000000000000000000, -2.253471898105735490E-15 ) ) ;
#540 = AXIS2_PLACEMENT_3D ( 'NONE', #433, #492, #394 ) ;
#541 = DIRECTION ( 'NONE',  ( -1.000000000000000000, -0.000000000000000000, -0.000000000000000000 ) ) ;
#542 = DIRECTION ( 'NONE',  ( 1.000000000000000000, 0.000000000000000000, -0.000000000000000000 ) ) ;
#543 = EDGE_CURVE ( 'NONE', #396, #72, #343, .T. ) ;
ENDSEC;
END-ISO-10303-21;
