ISO-10303-21;
HEADER;
FILE_DESCRIPTION (( 'STEP AP214' ),
    '1' );
FILE_NAME ('ISO - 4032 - M3 - W - N.STEP',
    '2025-07-15T13:07:05',
    ( '' ),
    ( '' ),
    'SwSTEP 2.0',
    'SolidWorks 2025',
    '' );
FILE_SCHEMA (( 'AUTOMOTIVE_DESIGN' ));
ENDSEC;

DATA;
#1 = DIRECTION ( 'NONE',  ( -0.5000000000000016653, -0.8660254037844377084, 0.000000000000000000 ) ) ;
#2 = EDGE_LOOP ( 'NONE', ( #200 ) ) ;
#3 = CARTESIAN_POINT ( 'NONE',  ( 1.375000000000005329, 2.381569860407203532, 0.000000000000000000 ) ) ;
#4 = AXIS2_PLACEMENT_3D ( 'NONE', #499, #335, #30 ) ;
#5 = AXIS2_PLACEMENT_3D ( 'NONE', #397, #286, #504 ) ;
#6 = VERTEX_POINT ( 'NONE', #268 ) ;
#7 = CARTESIAN_POINT ( 'NONE',  ( 1.841465337348300091, 2.112255972321535058, -0.02351960456805967520 ) ) ;
#8 = CARTESIAN_POINT ( 'NONE',  ( 0.000000000000000000, 0.000000000000000000, -2.374599999999997380 ) ) ;
#9 = EDGE_CURVE ( 'NONE', #242, #385, #595, .T. ) ;
#10 = CARTESIAN_POINT ( 'NONE',  ( 1.608385152161861065, 2.246824879981693002, 1.907729955453497150E-15 ) ) ;
#11 = DIRECTION ( 'NONE',  ( -0.8660254037844375974, 0.5000000000000018874, 0.000000000000000000 ) ) ;
#12 = ADVANCED_FACE ( 'NONE', ( #428 ), #272, .F. ) ;
#13 = CARTESIAN_POINT ( 'NONE',  ( -1.626303258728256651E-14, -3.175426480542946184, -0.2456200930618653855 ) ) ;
#14 = CIRCLE ( 'NONE', #579, 1.500000000000000222 ) ;
#15 = PRODUCT ( 'ISO - 4032 - M3 - W - N_ISO - 4032 - M3 - W - N', 'ISO - 4032 - M3 - W - N_ISO - 4032 - M3 - W - N', '', ( #436 ) ) ;
#16 = AXIS2_PLACEMENT_3D ( 'NONE', #330, #267, #532 ) ;
#17 = EDGE_LOOP ( 'NONE', ( #162 ) ) ;
#18 = EDGE_CURVE ( 'NONE', #652, #197, #57, .T. ) ;
#19 = CARTESIAN_POINT ( 'NONE',  ( -1.676917305793523698E-16, 3.175426480542946184, -2.399999999999999911 ) ) ;
#20 = CARTESIAN_POINT ( 'NONE',  ( 2.750000000000000000, 1.587713240271466875, -2.000000000000000000 ) ) ;
#21 = CARTESIAN_POINT ( 'NONE',  ( 2.750000000000000000, -1.587713240271478199, -2.399999999999999911 ) ) ;
#22 = FACE_OUTER_BOUND ( 'NONE', #512, .T. ) ;
#23 = ORIENTED_EDGE ( 'NONE', *, *, #9, .T. ) ;
#24 = VECTOR ( 'NONE', #11, 999.9999999999998863 ) ;
#25 = EDGE_CURVE ( 'NONE', #503, #98, #113, .T. ) ;
#26 = CARTESIAN_POINT ( 'NONE',  ( -2.750000000000000000, -1.587713240271477755, -2.000000000000000000 ) ) ;
#27 = CARTESIAN_POINT ( 'NONE',  ( 0.000000000000000000, 0.000000000000000000, 0.000000000000000000 ) ) ;
#28 = EDGE_LOOP ( 'NONE', ( #338, #477, #142 ) ) ;
#29 = LINE ( 'NONE', #131, #271 ) ;
#30 = DIRECTION ( 'NONE',  ( 1.000000000000000000, 0.000000000000000000, 0.000000000000000000 ) ) ;
#31 = VERTEX_POINT ( 'NONE', #317 ) ;
#32 = CARTESIAN_POINT ( 'NONE',  ( 0.000000000000000000, 0.000000000000000000, 0.000000000000000000 ) ) ;
#33 = DIRECTION ( 'NONE',  ( -1.000000000000000000, 0.000000000000000000, 0.000000000000000000 ) ) ;
#34 = EDGE_LOOP ( 'NONE', ( #351, #312, #524 ) ) ;
#35 = AXIS2_PLACEMENT_3D ( 'NONE', #79, #337, #669 ) ;
#36 = CARTESIAN_POINT ( 'NONE',  ( 2.750000000000000444, 0.000000000000000000, 0.000000000000000000 ) ) ;
#37 = CARTESIAN_POINT ( 'NONE',  ( 0.000000000000000000, 3.175426480542946184, 0.000000000000000000 ) ) ;
#38 = ORIENTED_EDGE ( 'NONE', *, *, #139, .F. ) ;
#39 = EDGE_CURVE ( 'NONE', #252, #411, #293, .T. ) ;
#40 = CARTESIAN_POINT ( 'NONE',  ( -2.750000000000000444, 0.000000000000000000, 0.000000000000000000 ) ) ;
#41 = CARTESIAN_POINT ( 'NONE',  ( -1.375000000000004441, -2.381569860407203976, 0.000000000000000000 ) ) ;
#42 = EDGE_LOOP ( 'NONE', ( #169 ) ) ;
#43 = VERTEX_POINT ( 'NONE', #208 ) ;
#44 = CARTESIAN_POINT ( 'NONE',  ( -0.4498622899576319445, -2.915698366337654335, -0.09566599640799805515 ) ) ;
#45 = ORIENTED_EDGE ( 'NONE', *, *, #64, .F. ) ;
#46 = CARTESIAN_POINT ( 'NONE',  ( -2.750000000000000444, 0.5405639250603668788, -0.02369969086895127100 ) ) ;
#47 = VECTOR ( 'NONE', #209, 999.9999999999998863 ) ;
#48 = EDGE_CURVE ( 'NONE', #289, #289, #14, .T. ) ;
#49 = CIRCLE ( 'NONE', #280, 1.500000000000000000 ) ;
#50 = CARTESIAN_POINT ( 'NONE',  ( -1.676917305793523698E-16, 3.175426480542946184, -2.000000000000000000 ) ) ;
#51 = ORIENTED_EDGE ( 'NONE', *, *, #310, .T. ) ;
#52 = CARTESIAN_POINT ( 'NONE',  ( 0.000000000000000000, 0.000000000000000000, 0.000000000000000000 ) ) ;
#53 = EDGE_CURVE ( 'NONE', #385, #596, #326, .T. ) ;
#54 = DIRECTION ( 'NONE',  ( 1.000000000000000000, 0.000000000000000000, 0.000000000000000000 ) ) ;
#55 = VERTEX_POINT ( 'NONE', #375 ) ;
#56 = FACE_OUTER_BOUND ( 'NONE', #34, .T. ) ;
#57 = B_SPLINE_CURVE_WITH_KNOTS ( 'NONE', 3,
 ( #488, #661, #492, #599, #484, #13 ),
 .UNSPECIFIED., .F., .F.,
 ( 4, 2, 4 ),
 ( 0.001606744326298679493, 0.002406996759593250067, 0.003207249192887820857 ),
 .UNSPECIFIED. ) ;
#58 = ORIENTED_EDGE ( 'NONE', *, *, #227, .T. ) ;
#59 = DIRECTION ( 'NONE',  ( 0.000000000000000000, 0.000000000000000000, 1.000000000000000000 ) ) ;
#60 = FILL_AREA_STYLE ('',( #535 ) ) ;
#61 = CIRCLE ( 'NONE', #229, 1.499999999999999778 ) ;
#62 = VECTOR ( 'NONE', #613, 1000.000000000000000 ) ;
#63 = CARTESIAN_POINT ( 'NONE',  ( 2.750000000000000000, 1.330988860919485983, -0.1715101482986583770 ) ) ;
#64 = EDGE_CURVE ( 'NONE', #145, #306, #425, .T. ) ;
#65 = FACE_OUTER_BOUND ( 'NONE', #42, .T. ) ;
#66 = B_SPLINE_CURVE_WITH_KNOTS ( 'NONE', 3,
 ( #245, #416, #465, #637, #625, #521 ),
 .UNSPECIFIED., .F., .F.,
 ( 4, 2, 4 ),
 ( 0.001606744326298700310, 0.002406996759593255705, 0.003207249192887810883 ),
 .UNSPECIFIED. ) ;
#67 = EDGE_CURVE ( 'NONE', #333, #98, #454, .T. ) ;
#68 = APPLICATION_CONTEXT ( 'automotive_design' ) ;
#69 = DIRECTION ( 'NONE',  ( 0.000000000000000000, 0.000000000000000000, 1.000000000000000000 ) ) ;
#70 = CARTESIAN_POINT ( 'NONE',  ( -2.750000000000000000, 1.587713240271467097, -0.2456200930618652745 ) ) ;
#71 = EDGE_CURVE ( 'NONE', #503, #333, #536, .T. ) ;
#72 = CARTESIAN_POINT ( 'NONE',  ( 0.4498622899576197320, 2.915698366337651226, -0.09566599640799523796 ) ) ;
#73 = AXIS2_PLACEMENT_3D ( 'NONE', #559, #186, #393 ) ;
#74 = LINE ( 'NONE', #163, #653 ) ;
#75 = ORIENTED_EDGE ( 'NONE', *, *, #179, .T. ) ;
#76 = CARTESIAN_POINT ( 'NONE',  ( 2.749999999999999556, -1.329484544808472446, -0.1710758896428269671 ) ) ;
#77 = PLANE ( 'NONE',  #687 ) ;
#78 = FACE_BOUND ( 'NONE', #86, .T. ) ;
#79 = CARTESIAN_POINT ( 'NONE',  ( 0.000000000000000000, 0.000000000000000000, 0.000000000000000000 ) ) ;
#80 = ORIENTED_EDGE ( 'NONE', *, *, #302, .T. ) ;
#81 = CIRCLE ( 'NONE', #243, 2.750000000000000888 ) ;
#82 = AXIS2_PLACEMENT_3D ( 'NONE', #553, #228, #283 ) ;
#83 = ADVANCED_FACE ( 'NONE', ( #126 ), #591, .T. ) ;
#84 = DIRECTION ( 'NONE',  ( 0.000000000000000000, 0.000000000000000000, -1.000000000000000000 ) ) ;
#85 = CARTESIAN_POINT ( 'NONE',  ( -1.626303258728256651E-14, -3.175426480542946184, -0.2456200930618653855 ) ) ;
#86 = EDGE_LOOP ( 'NONE', ( #167 ) ) ;
#87 = FACE_OUTER_BOUND ( 'NONE', #552, .T. ) ;
#88 = CARTESIAN_POINT ( 'NONE',  ( 0.000000000000000000, 13.17542648054294752, -2.000000000000000000 ) ) ;
#89 = EDGE_LOOP ( 'NONE', ( #685 ) ) ;
#90 = CARTESIAN_POINT ( 'NONE',  ( 0.000000000000000000, 0.000000000000000000, 0.000000000000000000 ) ) ;
#91 = EDGE_CURVE ( 'NONE', #98, #31, #123, .T. ) ;
#92 = CARTESIAN_POINT ( 'NONE',  ( 0.000000000000000000, 3.175426480542946184, -2.399999999999999911 ) ) ;
#93 = ORIENTED_EDGE ( 'NONE', *, *, #435, .T. ) ;
#94 = AXIS2_PLACEMENT_3D ( 'NONE', #235, #444, #511 ) ;
#95 = AXIS2_PLACEMENT_3D ( 'NONE', #151, #143, #526 ) ;
#96 = CARTESIAN_POINT ( 'NONE',  ( 1.500000000000000222, 0.000000000000000000, -2.374599999999997380 ) ) ;
#97 = CARTESIAN_POINT ( 'NONE',  ( -1.626303258728256651E-14, -3.175426480542946184, -0.2456200930618653855 ) ) ;
#98 = VERTEX_POINT ( 'NONE', #460 ) ;
#99 = DIRECTION ( 'NONE',  ( 0.000000000000000000, -0.000000000000000000, 1.000000000000000000 ) ) ;
#100 = DIRECTION ( 'NONE',  ( 1.000000000000000000, 0.000000000000000000, 0.000000000000000000 ) ) ;
#101 = VERTEX_POINT ( 'NONE', #555 ) ;
#102 = EDGE_CURVE ( 'NONE', #257, #257, #509, .T. ) ;
#103 = DIRECTION ( 'NONE',  ( 0.000000000000000000, 0.000000000000000000, -1.000000000000000000 ) ) ;
#104 = LINE ( 'NONE', #50, #318 ) ;
#105 = EDGE_LOOP ( 'NONE', ( #392, #556, #371 ) ) ;
#106 = PLANE ( 'NONE',  #470 ) ;
#107 = CIRCLE ( 'NONE', #158, 2.750000000000000888 ) ;
#108 = FACE_OUTER_BOUND ( 'NONE', #28, .T. ) ;
#109 = ORIENTED_EDGE ( 'NONE', *, *, #48, .F. ) ;
#110 = DIRECTION ( 'NONE',  ( -1.000000000000000000, 0.000000000000000000, -0.000000000000000000 ) ) ;
#111 = ORIENTED_EDGE ( 'NONE', *, *, #67, .F. ) ;
#112 = EDGE_CURVE ( 'NONE', #569, #652, #497, .T. ) ;
#113 = LINE ( 'NONE', #20, #24 ) ;
#114 = APPLICATION_CONTEXT ( 'automotive_design' ) ;
#115 = CARTESIAN_POINT ( 'NONE',  ( -1.251928832280970872E-16, -3.175426480542955510, -2.000000000000000000 ) ) ;
#116 = CARTESIAN_POINT ( 'NONE',  ( 1.375000000000005329, 2.381569860407203532, 0.000000000000000000 ) ) ;
#117 = CARTESIAN_POINT ( 'NONE',  ( 2.749999999999999112, 1.070896984529287943, -0.1097913889158304429 ) ) ;
#118 = ADVANCED_FACE ( 'NONE', ( #563 ), #350, .T. ) ;
#119 = B_SPLINE_CURVE_WITH_KNOTS ( 'NONE', 3,
 ( #334, #76, #547, #671, #570, #36 ),
 .UNSPECIFIED., .F., .F.,
 ( 4, 2, 4 ),
 ( 0.002832689070575954583, 0.003635789392948013919, 0.004438889715320072822 ),
 .UNSPECIFIED. ) ;
#120 = FACE_OUTER_BOUND ( 'NONE', #17, .T. ) ;
#121 = ORIENTED_EDGE ( 'NONE', *, *, #179, .F. ) ;
#122 = CYLINDRICAL_SURFACE ( 'NONE', #604, 1.250000000000000000 ) ;
#123 = CIRCLE ( 'NONE', #4, 2.750000000000000888 ) ;
#124 = CARTESIAN_POINT ( 'NONE',  ( 0.000000000000000000, 0.000000000000000000, -2.000000000000000888 ) ) ;
#125 = CARTESIAN_POINT ( 'NONE',  ( -4.336808689942017736E-16, -3.175426480542955510, -2.000000000000000000 ) ) ;
#126 = FACE_OUTER_BOUND ( 'NONE', #469, .T. ) ;
#127 = CARTESIAN_POINT ( 'NONE',  ( 2.750000000000000000, 1.587713240271466875, -2.000000000000000000 ) ) ;
#128 = PLANE ( 'NONE',  #566 ) ;
#129 = EDGE_CURVE ( 'NONE', #602, #652, #557, .T. ) ;
#130 = EDGE_LOOP ( 'NONE', ( #51, #210, #531, #38, #236, #528 ) ) ;
#131 = CARTESIAN_POINT ( 'NONE',  ( -2.750000000000000000, -1.587713240271477755, -2.000000000000000000 ) ) ;
#132 = DIRECTION ( 'NONE',  ( 0.000000000000000000, 0.000000000000000000, -1.000000000000000000 ) ) ;
#133 = ORIENTED_EDGE ( 'NONE', *, *, #458, .F. ) ;
#134 = VECTOR ( 'NONE', #479, 1000.000000000000000 ) ;
#135 = CIRCLE ( 'NONE', #605, 2.750000000000000888 ) ;
#136 = FACE_OUTER_BOUND ( 'NONE', #157, .T. ) ;
#137 = DIRECTION ( 'NONE',  ( 0.000000000000000000, -0.000000000000000000, 1.000000000000000000 ) ) ;
#138 = ORIENTED_EDGE ( 'NONE', *, *, #538, .T. ) ;
#139 = EDGE_CURVE ( 'NONE', #503, #411, #290, .T. ) ;
#140 = DIRECTION ( 'NONE',  ( 0.8660254037844377084, -0.5000000000000016653, 0.000000000000000000 ) ) ;
#141 = DIRECTION ( 'NONE',  ( 0.000000000000000000, -0.000000000000000000, 1.000000000000000000 ) ) ;
#142 = ORIENTED_EDGE ( 'NONE', *, *, #466, .F. ) ;
#143 = DIRECTION ( 'NONE',  ( -0.000000000000000000, -0.000000000000000000, 1.000000000000000000 ) ) ;
#144 = CARTESIAN_POINT ( 'NONE',  ( 2.750000000000000444, 0.000000000000000000, 0.000000000000000000 ) ) ;
#145 = VERTEX_POINT ( 'NONE', #347 ) ;
#146 = VECTOR ( 'NONE', #448, 1000.000000000000000 ) ;
#147 =( GEOMETRIC_REPRESENTATION_CONTEXT ( 3 ) GLOBAL_UNCERTAINTY_ASSIGNED_CONTEXT ( ( #540 ) ) GLOBAL_UNIT_ASSIGNED_CONTEXT ( ( #427, #539, #542 ) ) REPRESENTATION_CONTEXT ( 'NONE', 'WORKASPACE' ) );
#148 = VERTEX_POINT ( 'NONE', #471 ) ;
#149 = DIRECTION ( 'NONE',  ( 0.8660254037844377084, 0.5000000000000015543, 0.000000000000000000 ) ) ;
#150 = ORIENTED_EDGE ( 'NONE', *, *, #487, .F. ) ;
#151 = CARTESIAN_POINT ( 'NONE',  ( 0.000000000000000000, 0.000000000000000000, -2.000000000000000888 ) ) ;
#152 = CARTESIAN_POINT ( 'NONE',  ( -1.251928832280970872E-16, -3.175426480542955510, -2.000000000000000000 ) ) ;
#153 = ORIENTED_EDGE ( 'NONE', *, *, #458, .T. ) ;
#154 = B_SPLINE_CURVE_WITH_KNOTS ( 'NONE', 3,
 ( #70, #269, #657, #384 ),
 .UNSPECIFIED., .F., .F.,
 ( 4, 4 ),
 ( 2.380742992382988670E-07, 0.001606744326298683613 ),
 .UNSPECIFIED. ) ;
#155 = FACE_OUTER_BOUND ( 'NONE', #670, .T. ) ;
#156 = DIRECTION ( 'NONE',  ( -0.000000000000000000, -0.000000000000000000, 1.000000000000000000 ) ) ;
#157 = EDGE_LOOP ( 'NONE', ( #379, #58, #329, #615, #23, #185 ) ) ;
#158 = AXIS2_PLACEMENT_3D ( 'NONE', #354, #463, #100 ) ;
#159 = CARTESIAN_POINT ( 'NONE',  ( 0.000000000000000000, 13.17542648054294752, -2.000000000000000000 ) ) ;
#160 = ORIENTED_EDGE ( 'NONE', *, *, #222, .T. ) ;
#161 = ADVANCED_FACE ( 'NONE', ( #451, #506 ), #77, .T. ) ;
#162 = ORIENTED_EDGE ( 'NONE', *, *, #405, .F. ) ;
#163 = CARTESIAN_POINT ( 'NONE',  ( 2.750000000000000000, 1.587713240271466875, -2.000000000000000000 ) ) ;
#164 = DIRECTION ( 'NONE',  ( 0.000000000000000000, -1.000000000000000000, 0.000000000000000000 ) ) ;
#165 = CARTESIAN_POINT ( 'NONE',  ( -2.750000000000000000, 1.587713240271467097, -2.399999999999999911 ) ) ;
#166 = VECTOR ( 'NONE', #548, 1000.000000000000000 ) ;
#167 = ORIENTED_EDGE ( 'NONE', *, *, #102, .T. ) ;
#168 = ADVANCED_FACE ( 'NONE', ( #279 ), #481, .T. ) ;
#169 = ORIENTED_EDGE ( 'NONE', *, *, #651, .T. ) ;
#170 = CARTESIAN_POINT ( 'NONE',  ( 2.299387885565522982, 1.847874265840320218, -0.1090894304641059492 ) ) ;
#171 = CARTESIAN_POINT ( 'NONE',  ( -2.750000000000000000, 1.587713240271467097, -2.000000000000000000 ) ) ;
#172 = ORIENTED_EDGE ( 'NONE', *, *, #18, .T. ) ;
#173 = APPLICATION_PROTOCOL_DEFINITION ( 'draft international standard', 'automotive_design', 1998, #68 ) ;
#174 = CARTESIAN_POINT ( 'NONE',  ( 2.750000000000000000, 1.587713240271479975, -0.2456200930618653855 ) ) ;
#175 = CARTESIAN_POINT ( 'NONE',  ( 2.750000000000000000, 1.587713240271466875, -2.000000000000000000 ) ) ;
#176 = LINE ( 'NONE', #387, #567 ) ;
#177 = CIRCLE ( 'NONE', #189, 2.750000000000000000 ) ;
#178 = CARTESIAN_POINT ( 'NONE',  ( 0.000000000000000000, 13.17542648054294752, -2.000000000000000000 ) ) ;
#179 = EDGE_CURVE ( 'NONE', #6, #569, #177, .T. ) ;
#180 = CARTESIAN_POINT ( 'NONE',  ( 1.375000000000009548, -2.381569860407212857, -2.000000000000000888 ) ) ;
#181 = ORIENTED_EDGE ( 'NONE', *, *, #112, .T. ) ;
#182 = CARTESIAN_POINT ( 'NONE',  ( 0.000000000000000000, 0.000000000000000000, -2.399999999999999467 ) ) ;
#183 = ADVANCED_FACE ( 'NONE', ( #494, #672 ), #620, .F. ) ;
#184 = DIRECTION ( 'NONE',  ( 0.000000000000000000, 0.000000000000000000, -1.000000000000000000 ) ) ;
#185 = ORIENTED_EDGE ( 'NONE', *, *, #53, .T. ) ;
#186 = DIRECTION ( 'NONE',  ( -0.000000000000000000, -0.000000000000000000, 1.000000000000000000 ) ) ;
#187 = DIRECTION ( 'NONE',  ( -1.000000000000000000, 0.000000000000000000, 0.000000000000000000 ) ) ;
#188 = EDGE_LOOP ( 'NONE', ( #647, #111, #362, #150, #678, #673 ) ) ;
#189 = AXIS2_PLACEMENT_3D ( 'NONE', #608, #246, #614 ) ;
#190 = EDGE_CURVE ( 'NONE', #194, #6, #662, .T. ) ;
#191 = CONICAL_SURFACE ( 'NONE', #320, 2.750000000000000444, 1.047197551196596743 ) ;
#192 = FACE_BOUND ( 'NONE', #500, .T. ) ;
#193 = CARTESIAN_POINT ( 'NONE',  ( 0.000000000000000000, 0.000000000000000000, 0.000000000000000000 ) ) ;
#194 = VERTEX_POINT ( 'NONE', #611 ) ;
#195 = CARTESIAN_POINT ( 'NONE',  ( 0.000000000000000000, 0.000000000000000000, -25.03750572909317285 ) ) ;
#196 = CARTESIAN_POINT ( 'NONE',  ( 8.673617379884035472E-16, 3.175426480542946628, -0.2456200930618653855 ) ) ;
#197 = VERTEX_POINT ( 'NONE', #85 ) ;
#198 = DIRECTION ( 'NONE',  ( -1.000000000000000000, 0.000000000000000000, 0.000000000000000000 ) ) ;
#199 = CARTESIAN_POINT ( 'NONE',  ( -2.749999999999999556, -1.329484544808472890, -0.1710758896428271336 ) ) ;
#200 = ORIENTED_EDGE ( 'NONE', *, *, #520, .F. ) ;
#201 = DIRECTION ( 'NONE',  ( 0.000000000000000000, 0.000000000000000000, 1.000000000000000000 ) ) ;
#202 = ADVANCED_FACE ( 'NONE', ( #22 ), #560, .T. ) ;
#203 = CARTESIAN_POINT ( 'NONE',  ( -1.676917305793523698E-16, 3.175426480542946184, -2.000000000000000000 ) ) ;
#204 = ORIENTED_EDGE ( 'NONE', *, *, #39, .T. ) ;
#205 = DIRECTION ( 'NONE',  ( -0.000000000000000000, -0.000000000000000000, 1.000000000000000000 ) ) ;
#206 = FACE_OUTER_BOUND ( 'NONE', #373, .T. ) ;
#207 = EDGE_LOOP ( 'NONE', ( #285 ) ) ;
#208 = CARTESIAN_POINT ( 'NONE',  ( -2.750000000000000888, 0.000000000000000000, -2.399999999999999911 ) ) ;
#209 = DIRECTION ( 'NONE',  ( -0.8660254037844375974, -0.5000000000000018874, 0.000000000000000000 ) ) ;
#210 = ORIENTED_EDGE ( 'NONE', *, *, #64, .T. ) ;
#211 = EDGE_CURVE ( 'NONE', #306, #194, #603, .T. ) ;
#212 = AXIS2_PLACEMENT_3D ( 'NONE', #381, #265, #69 ) ;
#213 = VECTOR ( 'NONE', #598, 1000.000000000000000 ) ;
#214 = CARTESIAN_POINT ( 'NONE',  ( 2.525629923208370098, 1.717253364505211932, -0.1708300674639746386 ) ) ;
#215 = VERTEX_POINT ( 'NONE', #180 ) ;
#216 = DIRECTION ( 'NONE',  ( 0.000000000000000000, 0.000000000000000000, -1.000000000000000000 ) ) ;
#217 = ORIENTED_EDGE ( 'NONE', *, *, #583, .F. ) ;
#218 = CARTESIAN_POINT ( 'NONE',  ( 0.000000000000000000, 0.000000000000000000, -2.199548115447571117 ) ) ;
#219 = ADVANCED_FACE ( 'NONE', ( #391 ), #128, .T. ) ;
#220 = DIRECTION ( 'NONE',  ( -0.000000000000000000, -0.000000000000000000, 1.000000000000000000 ) ) ;
#221 = STYLED_ITEM ( 'NONE', ( #325 ), #382 ) ;
#222 = EDGE_CURVE ( 'NONE', #519, #197, #407, .T. ) ;
#223 = CARTESIAN_POINT ( 'NONE',  ( 2.750000000000000000, 1.587713240271479975, -0.2456200930618653855 ) ) ;
#224 = CARTESIAN_POINT ( 'NONE',  ( 8.673617379884035472E-16, 3.175426480542946628, -0.2456200930618653855 ) ) ;
#225 = DIRECTION ( 'NONE',  ( -1.000000000000000000, 0.000000000000000000, 0.000000000000000000 ) ) ;
#226 = ORIENTED_EDGE ( 'NONE', *, *, #71, .F. ) ;
#227 = EDGE_CURVE ( 'NONE', #356, #6, #303, .T. ) ;
#228 = DIRECTION ( 'NONE',  ( -0.000000000000000000, -0.000000000000000000, 1.000000000000000000 ) ) ;
#229 = AXIS2_PLACEMENT_3D ( 'NONE', #249, #522, #54 ) ;
#230 = DIRECTION ( 'NONE',  ( 0.000000000000000000, 0.000000000000000000, -1.000000000000000000 ) ) ;
#231 = AXIS2_PLACEMENT_3D ( 'NONE', #52, #99, #679 ) ;
#232 = ORIENTED_EDGE ( 'NONE', *, *, #233, .F. ) ;
#233 = EDGE_CURVE ( 'NONE', #197, #569, #516, .T. ) ;
#234 = DIRECTION ( 'NONE',  ( -0.5000000000000019984, 0.8660254037844375974, 0.000000000000000000 ) ) ;
#235 = CARTESIAN_POINT ( 'NONE',  ( 0.000000000000000000, 0.000000000000000000, 0.000000000000000000 ) ) ;
#236 = ORIENTED_EDGE ( 'NONE', *, *, #25, .T. ) ;
#237 = PLANE ( 'NONE',  #443 ) ;
#238 = CARTESIAN_POINT ( 'NONE',  ( 1.843520544858955335, -2.111069397712027396, -3.259993543321607409E-15 ) ) ;
#239 = EDGE_LOOP ( 'NONE', ( #262, #45, #344 ) ) ;
#240 = DIRECTION ( 'NONE',  ( 1.000000000000000000, 0.000000000000000000, 0.000000000000000000 ) ) ;
#241 = CARTESIAN_POINT ( 'NONE',  ( 2.300137710042384764, -1.847441354476769604, -0.09566599640799795801 ) ) ;
#242 = VERTEX_POINT ( 'NONE', #631 ) ;
#243 = AXIS2_PLACEMENT_3D ( 'NONE', #421, #156, #258 ) ;
#244 = AXIS2_PLACEMENT_3D ( 'NONE', #195, #205, #517 ) ;
#245 = CARTESIAN_POINT ( 'NONE',  ( -1.375000000000004441, -2.381569860407203976, 0.000000000000000000 ) ) ;
#246 = DIRECTION ( 'NONE',  ( 0.000000000000000000, -0.000000000000000000, 1.000000000000000000 ) ) ;
#247 = ORIENTED_EDGE ( 'NONE', *, *, #48, .T. ) ;
#248 = CARTESIAN_POINT ( 'NONE',  ( -2.749999999999999112, 1.070896984529280616, -0.1097913889158290413 ) ) ;
#249 = CARTESIAN_POINT ( 'NONE',  ( 0.000000000000000000, 0.000000000000000000, 0.000000000000000000 ) ) ;
#250 = ORIENTED_EDGE ( 'NONE', *, *, #302, .F. ) ;
#251 = CARTESIAN_POINT ( 'NONE',  ( -1.676917305793523698E-16, 3.175426480542946184, -2.399999999999999911 ) ) ;
#252 = VERTEX_POINT ( 'NONE', #144 ) ;
#253 = AXIS2_PLACEMENT_3D ( 'NONE', #37, #132, #342 ) ;
#254 = CARTESIAN_POINT ( 'NONE',  ( 1.250000000000000000, 0.000000000000000000, -0.1750518845524287326 ) ) ;
#255 = CARTESIAN_POINT ( 'NONE',  ( -2.750000000000000444, -1.065007702645626830, -0.1085530452847078414 ) ) ;
#256 = ORIENTED_EDGE ( 'NONE', *, *, #310, .F. ) ;
#257 = VERTEX_POINT ( 'NONE', #254 ) ;
#258 = DIRECTION ( 'NONE',  ( 1.000000000000000000, 0.000000000000000000, 0.000000000000000000 ) ) ;
#259 = EDGE_CURVE ( 'NONE', #55, #31, #410, .T. ) ;
#260 = EDGE_LOOP ( 'NONE', ( #401 ) ) ;
#261 = CARTESIAN_POINT ( 'NONE',  ( -2.750000000000000000, -1.587713240271479975, -0.2456200930618653855 ) ) ;
#262 = ORIENTED_EDGE ( 'NONE', *, *, #211, .F. ) ;
#263 = AXIS2_PLACEMENT_3D ( 'NONE', #502, #623, #455 ) ;
#264 = CONICAL_SURFACE ( 'NONE', #73, 1.224999999999999201, 0.9599310885968773688 ) ;
#265 = DIRECTION ( 'NONE',  ( -1.000000000000000000, 0.000000000000000000, 0.000000000000000000 ) ) ;
#266 = UNCERTAINTY_MEASURE_WITH_UNIT (LENGTH_MEASURE( 1.000000000000000082E-05 ), #582, 'distance_accuracy_value', 'NONE');
#267 = DIRECTION ( 'NONE',  ( -0.000000000000000000, -0.000000000000000000, 1.000000000000000000 ) ) ;
#268 = CARTESIAN_POINT ( 'NONE',  ( -2.750000000000000444, 0.000000000000000000, 0.000000000000000000 ) ) ;
#269 = CARTESIAN_POINT ( 'NONE',  ( -2.300137710042384320, 1.847441354476759612, -0.09566599640799391957 ) ) ;
#270 = AXIS2_PLACEMENT_3D ( 'NONE', #27, #677, #665 ) ;
#271 = VECTOR ( 'NONE', #277, 1000.000000000000000 ) ;
#272 = PLANE ( 'NONE',  #212 ) ;
#273 = EDGE_CURVE ( 'NONE', #294, #294, #61, .T. ) ;
#274 = DIRECTION ( 'NONE',  ( 1.000000000000000000, 0.000000000000000000, 0.000000000000000000 ) ) ;
#275 = CARTESIAN_POINT ( 'NONE',  ( 0.000000000000000000, 0.000000000000000000, 0.000000000000000000 ) ) ;
#276 = ORIENTED_EDGE ( 'NONE', *, *, #91, .T. ) ;
#277 = DIRECTION ( 'NONE',  ( 0.8660254037844377084, -0.5000000000000016653, 0.000000000000000000 ) ) ;
#278 = AXIS2_PLACEMENT_3D ( 'NONE', #551, #184, #284 ) ;
#279 = FACE_OUTER_BOUND ( 'NONE', #480, .T. ) ;
#280 = AXIS2_PLACEMENT_3D ( 'NONE', #182, #493, #606 ) ;
#281 = ORIENTED_EDGE ( 'NONE', *, *, #112, .F. ) ;
#282 = EDGE_CURVE ( 'NONE', #31, #385, #107, .T. ) ;
#283 = DIRECTION ( 'NONE',  ( 1.000000000000000000, 0.000000000000000000, 0.000000000000000000 ) ) ;
#284 = DIRECTION ( 'NONE',  ( -1.000000000000000000, 0.000000000000000000, -0.000000000000000000 ) ) ;
#285 = ORIENTED_EDGE ( 'NONE', *, *, #520, .T. ) ;
#286 = DIRECTION ( 'NONE',  ( 0.000000000000000000, 0.000000000000000000, -1.000000000000000000 ) ) ;
#287 = DIRECTION ( 'NONE',  ( -1.000000000000000000, 0.000000000000000000, -0.000000000000000000 ) ) ;
#288 = ORIENTED_EDGE ( 'NONE', *, *, #592, .F. ) ;
#289 = VERTEX_POINT ( 'NONE', #96 ) ;
#290 = LINE ( 'NONE', #389, #166 ) ;
#291 = EDGE_LOOP ( 'NONE', ( #276, #495, #217 ) ) ;
#292 = CIRCLE ( 'NONE', #432, 2.750000000000000444 ) ;
#293 = B_SPLINE_CURVE_WITH_KNOTS ( 'NONE', 3,
 ( #543, #656, #533, #117, #63, #223 ),
 .UNSPECIFIED., .F., .F.,
 ( 4, 2, 4 ),
 ( 0.004438889715320072822, 0.005242467187915815507, 0.006046044660511559060 ),
 .UNSPECIFIED. ) ;
#294 = VERTEX_POINT ( 'NONE', #409 ) ;
#295 = DIRECTION ( 'NONE',  ( 0.5000000000000016653, -0.8660254037844378194, 0.000000000000000000 ) ) ;
#296 = EDGE_LOOP ( 'NONE', ( #636, #93, #572, #256, #621, #666 ) ) ;
#297 = ADVANCED_FACE ( 'NONE', ( #305 ), #413, .T. ) ;
#298 = PRODUCT_DEFINITION_CONTEXT ( 'detailed design', #114, 'design' ) ;
#299 = CARTESIAN_POINT ( 'NONE',  ( -2.750000000000000000, 1.330988860919476213, -0.1715101482986560733 ) ) ;
#300 = DIRECTION ( 'NONE',  ( 0.5000000000000019984, 0.8660254037844375974, -0.000000000000000000 ) ) ;
#301 = ORIENTED_EDGE ( 'NONE', *, *, #282, .T. ) ;
#302 = EDGE_CURVE ( 'NONE', #215, #101, #575, .T. ) ;
#303 = B_SPLINE_CURVE_WITH_KNOTS ( 'NONE', 3,
 ( #261, #199, #255, #514, #642, #571 ),
 .UNSPECIFIED., .F., .F.,
 ( 4, 2, 4 ),
 ( 0.002832689070575953715, 0.003635789392948013052, 0.004438889715320072822 ),
 .UNSPECIFIED. ) ;
#304 = CARTESIAN_POINT ( 'NONE',  ( -2.749999999999999556, 0.2684568315541758787, 2.401338405465940475E-16 ) ) ;
#305 = FACE_OUTER_BOUND ( 'NONE', #130, .T. ) ;
#306 = VERTEX_POINT ( 'NONE', #311 ) ;
#307 = MECHANICAL_DESIGN_GEOMETRIC_PRESENTATION_REPRESENTATION (  '', ( #221 ), #147 ) ;
#308 = AXIS2_PLACEMENT_3D ( 'NONE', #369, #103, #565 ) ;
#309 = DIRECTION ( 'NONE',  ( 0.000000000000000000, 0.000000000000000000, -1.000000000000000000 ) ) ;
#310 = EDGE_CURVE ( 'NONE', #55, #145, #634, .T. ) ;
#311 = CARTESIAN_POINT ( 'NONE',  ( 1.375000000000005329, 2.381569860407203532, 0.000000000000000000 ) ) ;
#312 = ORIENTED_EDGE ( 'NONE', *, *, #67, .T. ) ;
#313 = CARTESIAN_POINT ( 'NONE',  ( -2.750000000000000000, -1.587713240271479975, -0.2456200930618653855 ) ) ;
#314 = ORIENTED_EDGE ( 'NONE', *, *, #395, .F. ) ;
#315 =( NAMED_UNIT ( * ) SI_UNIT ( $, .STERADIAN. ) SOLID_ANGLE_UNIT ( ) );
#316 = SURFACE_STYLE_FILL_AREA ( #60 ) ;
#317 = CARTESIAN_POINT ( 'NONE',  ( -1.375000000000005773, 2.381569860407204420, -2.000000000000000888 ) ) ;
#318 = VECTOR ( 'NONE', #473, 999.9999999999998863 ) ;
#319 = DIRECTION ( 'NONE',  ( 1.000000000000000000, 0.000000000000000000, 0.000000000000000000 ) ) ;
#320 = AXIS2_PLACEMENT_3D ( 'NONE', #686, #577, #691 ) ;
#321 = CARTESIAN_POINT ( 'NONE',  ( -2.750000000000000000, 1.587713240271467097, -0.2456200930618652745 ) ) ;
#322 = DIRECTION ( 'NONE',  ( 1.000000000000000000, 0.000000000000000000, 0.000000000000000000 ) ) ;
#323 = EDGE_CURVE ( 'NONE', #194, #145, #417, .T. ) ;
#324 = B_SPLINE_CURVE_WITH_KNOTS ( 'NONE', 3,
 ( #40, #304, #46, #248, #299, #513 ),
 .UNSPECIFIED., .F., .F.,
 ( 4, 2, 4 ),
 ( 0.004438889715320072822, 0.005242467187915809436, 0.006046044660511546050 ),
 .UNSPECIFIED. ) ;
#325 = PRESENTATION_STYLE_ASSIGNMENT (( #433 ) ) ;
#326 = LINE ( 'NONE', #171, #386 ) ;
#327 = ORIENTED_EDGE ( 'NONE', *, *, #693, .F. ) ;
#328 = CYLINDRICAL_SURFACE ( 'NONE', #16, 2.750000000000000888 ) ;
#329 = ORIENTED_EDGE ( 'NONE', *, *, #693, .T. ) ;
#330 = CARTESIAN_POINT ( 'NONE',  ( 0.000000000000000000, 0.000000000000000000, 0.000000000000000000 ) ) ;
#331 = VECTOR ( 'NONE', #358, 1000.000000000000000 ) ;
#332 = EDGE_CURVE ( 'NONE', #31, #242, #104, .T. ) ;
#333 = VERTEX_POINT ( 'NONE', #692 ) ;
#334 = CARTESIAN_POINT ( 'NONE',  ( 2.750000000000001332, -1.587713240271479087, -0.2456200930618653855 ) ) ;
#335 = DIRECTION ( 'NONE',  ( -0.000000000000000000, -0.000000000000000000, 1.000000000000000000 ) ) ;
#336 = FACE_OUTER_BOUND ( 'NONE', #507, .T. ) ;
#337 = DIRECTION ( 'NONE',  ( 0.000000000000000000, 0.000000000000000000, -1.000000000000000000 ) ) ;
#338 = ORIENTED_EDGE ( 'NONE', *, *, #53, .F. ) ;
#339 = ADVANCED_FACE ( 'NONE', ( #206 ), #584, .T. ) ;
#340 = CARTESIAN_POINT ( 'NONE',  ( 0.000000000000000000, 0.000000000000000000, 0.000000000000000000 ) ) ;
#341 = VECTOR ( 'NONE', #434, 1000.000000000000000 ) ;
#342 = DIRECTION ( 'NONE',  ( -1.000000000000000000, 0.000000000000000000, 0.000000000000000000 ) ) ;
#343 = AXIS2_PLACEMENT_3D ( 'NONE', #32, #675, #491 ) ;
#344 = ORIENTED_EDGE ( 'NONE', *, *, #323, .F. ) ;
#345 = EDGE_CURVE ( 'NONE', #215, #333, #81, .T. ) ;
#346 = DIRECTION ( 'NONE',  ( -0.8660254037844375974, 0.5000000000000018874, 0.000000000000000000 ) ) ;
#347 = CARTESIAN_POINT ( 'NONE',  ( 8.673617379884035472E-16, 3.175426480542946628, -0.2456200930618653855 ) ) ;
#348 = EDGE_LOOP ( 'NONE', ( #133, #204, #314 ) ) ;
#349 = CARTESIAN_POINT ( 'NONE',  ( -1.375000000000004441, -2.381569860407203976, 0.000000000000000000 ) ) ;
#350 = PLANE ( 'NONE',  #278 ) ;
#351 = ORIENTED_EDGE ( 'NONE', *, *, #71, .T. ) ;
#352 = FACE_OUTER_BOUND ( 'NONE', #348, .T. ) ;
#353 = ADVANCED_FACE ( 'NONE', ( #108 ), #476, .T. ) ;
#354 = CARTESIAN_POINT ( 'NONE',  ( 0.000000000000000000, 0.000000000000000000, -2.000000000000000888 ) ) ;
#355 = AXIS2_PLACEMENT_3D ( 'NONE', #88, #230, #287 ) ;
#356 = VERTEX_POINT ( 'NONE', #313 ) ;
#357 = VERTEX_POINT ( 'NONE', #475 ) ;
#358 = DIRECTION ( 'NONE',  ( 0.000000000000000000, 0.000000000000000000, 1.000000000000000000 ) ) ;
#359 = EDGE_LOOP ( 'NONE', ( #415, #75, #181, #396, #153, #449 ) ) ;
#360 = FACE_OUTER_BOUND ( 'NONE', #576, .T. ) ;
#361 = CARTESIAN_POINT ( 'NONE',  ( 2.750000000000000000, 1.587713240271466875, -2.399999999999999911 ) ) ;
#362 = ORIENTED_EDGE ( 'NONE', *, *, #345, .F. ) ;
#363 = ADVANCED_FACE ( 'NONE', ( #56 ), #648, .T. ) ;
#364 = CARTESIAN_POINT ( 'NONE',  ( 0.000000000000000000, 0.000000000000000000, -2.399999999999999911 ) ) ;
#365 = DIRECTION ( 'NONE',  ( -0.8660254037844374864, 0.5000000000000018874, 0.000000000000000000 ) ) ;
#366 = VERTEX_POINT ( 'NONE', #321 ) ;
#367 = PRODUCT_DEFINITION_SHAPE ( 'NONE', 'NONE',  #635 ) ;
#368 = AXIS2_PLACEMENT_3D ( 'NONE', #420, #59, #319 ) ;
#369 = CARTESIAN_POINT ( 'NONE',  ( 0.000000000000000000, 0.000000000000000000, 0.000000000000000000 ) ) ;
#370 = DIRECTION ( 'NONE',  ( 0.000000000000000000, 0.000000000000000000, -1.000000000000000000 ) ) ;
#371 = ORIENTED_EDGE ( 'NONE', *, *, #129, .F. ) ;
#372 = LINE ( 'NONE', #115, #377 ) ;
#373 = EDGE_LOOP ( 'NONE', ( #160, #639, #515, #537, #404, #580 ) ) ;
#374 = EDGE_CURVE ( 'NONE', #333, #101, #74, .T. ) ;
#375 = CARTESIAN_POINT ( 'NONE',  ( -1.676917305793523698E-16, 3.175426480542946184, -2.000000000000000000 ) ) ;
#376 = AXIS2_PLACEMENT_3D ( 'NONE', #578, #1, #418 ) ;
#377 = VECTOR ( 'NONE', #380, 999.9999999999998863 ) ;
#378 = CARTESIAN_POINT ( 'NONE',  ( -1.375000000000009104, -2.381569860407211081, -2.000000000000000888 ) ) ;
#379 = ORIENTED_EDGE ( 'NONE', *, *, #640, .T. ) ;
#380 = DIRECTION ( 'NONE',  ( 0.8660254037844378194, 0.5000000000000015543, 0.000000000000000000 ) ) ;
#381 = CARTESIAN_POINT ( 'NONE',  ( 2.750000000000000000, 1.587713240271466875, -2.399999999999999911 ) ) ;
#382 = MANIFOLD_SOLID_BREP ( 'EndChamfer', #431 ) ;
#383 = ADVANCED_FACE ( 'NONE', ( #65, #546 ), #328, .T. ) ;
#384 = CARTESIAN_POINT ( 'NONE',  ( -1.375000000000005329, 2.381569860407203532, 0.000000000000000000 ) ) ;
#385 = VERTEX_POINT ( 'NONE', #594 ) ;
#386 = VECTOR ( 'NONE', #164, 1000.000000000000000 ) ;
#387 = CARTESIAN_POINT ( 'NONE',  ( 2.750000000000000000, 1.587713240271466875, -2.000000000000000000 ) ) ;
#388 = CONICAL_SURFACE ( 'NONE', #343, 2.750000000000000444, 1.047197551196596743 ) ;
#389 = CARTESIAN_POINT ( 'NONE',  ( 2.750000000000000000, 1.587713240271466875, -2.399999999999999911 ) ) ;
#390 = LINE ( 'NONE', #21, #62 ) ;
#391 = FACE_OUTER_BOUND ( 'NONE', #474, .T. ) ;
#392 = ORIENTED_EDGE ( 'NONE', *, *, #592, .T. ) ;
#393 = DIRECTION ( 'NONE',  ( 1.000000000000000000, 0.000000000000000000, 0.000000000000000000 ) ) ;
#394 = DIRECTION ( 'NONE',  ( 0.000000000000000000, 0.000000000000000000, -1.000000000000000000 ) ) ;
#395 = EDGE_CURVE ( 'NONE', #306, #411, #486, .T. ) ;
#396 = ORIENTED_EDGE ( 'NONE', *, *, #616, .T. ) ;
#397 = CARTESIAN_POINT ( 'NONE',  ( 0.000000000000000000, 0.000000000000000000, -2.374599999999997380 ) ) ;
#398 = AXIS2_PLACEMENT_3D ( 'NONE', #193, #137, #403 ) ;
#399 = CARTESIAN_POINT ( 'NONE',  ( 2.750000000000001332, -1.587713240271479087, -0.2456200930618653855 ) ) ;
#400 = VECTOR ( 'NONE', #140, 1000.000000000000000 ) ;
#401 = ORIENTED_EDGE ( 'NONE', *, *, #102, .F. ) ;
#402 = FACE_OUTER_BOUND ( 'NONE', #461, .T. ) ;
#403 = DIRECTION ( 'NONE',  ( -1.000000000000000000, 0.000000000000000000, 0.000000000000000000 ) ) ;
#404 = ORIENTED_EDGE ( 'NONE', *, *, #466, .T. ) ;
#405 = EDGE_CURVE ( 'NONE', #148, #148, #645, .T. ) ;
#406 = LINE ( 'NONE', #574, #619 ) ;
#407 = LINE ( 'NONE', #568, #331 ) ;
#408 = VERTEX_POINT ( 'NONE', #378 ) ;
#409 = CARTESIAN_POINT ( 'NONE',  ( 1.499999999999999778, 0.000000000000000000, 0.000000000000000000 ) ) ;
#410 = LINE ( 'NONE', #203, #47 ) ;
#411 = VERTEX_POINT ( 'NONE', #589 ) ;
#412 = FACE_OUTER_BOUND ( 'NONE', #2, .T. ) ;
#413 = PLANE ( 'NONE',  #441 ) ;
#414 = EDGE_CURVE ( 'NONE', #519, #215, #372, .T. ) ;
#415 = ORIENTED_EDGE ( 'NONE', *, *, #190, .T. ) ;
#416 = CARTESIAN_POINT ( 'NONE',  ( -1.608385152161865506, -2.246824879981702328, -3.278017505874141129E-15 ) ) ;
#417 = B_SPLINE_CURVE_WITH_KNOTS ( 'NONE', 3,
 ( #527, #529, #467, #689, #638, #196 ),
 .UNSPECIFIED., .F., .F.,
 ( 4, 2, 4 ),
 ( 0.001606744326298683613, 0.002406996759593248766, 0.003207249192887813918 ),
 .UNSPECIFIED. ) ;
#418 = DIRECTION ( 'NONE',  ( 0.8660254037844377084, -0.5000000000000016653, 0.000000000000000000 ) ) ;
#419 = ORIENTED_EDGE ( 'NONE', *, *, #487, .T. ) ;
#420 = CARTESIAN_POINT ( 'NONE',  ( 0.000000000000000000, 0.000000000000000000, 0.000000000000000000 ) ) ;
#421 = CARTESIAN_POINT ( 'NONE',  ( 0.000000000000000000, 0.000000000000000000, -2.000000000000000888 ) ) ;
#422 = ORIENTED_EDGE ( 'NONE', *, *, #530, .F. ) ;
#423 = APPLICATION_PROTOCOL_DEFINITION ( 'draft international standard', 'automotive_design', 1998, #114 ) ;
#424 = ORIENTED_EDGE ( 'NONE', *, *, #538, .F. ) ;
#425 = B_SPLINE_CURVE_WITH_KNOTS ( 'NONE', 3,
 ( #224, #72, #437, #116 ),
 .UNSPECIFIED., .F., .F.,
 ( 4, 4 ),
 ( 2.380742992394833896E-07, 0.001606744326298696623 ),
 .UNSPECIFIED. ) ;
#426 = EDGE_CURVE ( 'NONE', #242, #366, #650, .T. ) ;
#427 =( LENGTH_UNIT ( ) NAMED_UNIT ( * ) SI_UNIT ( .MILLI., .METRE. ) );
#428 = FACE_OUTER_BOUND ( 'NONE', #627, .T. ) ;
#429 = DIRECTION ( 'NONE',  ( -1.000000000000000000, 0.000000000000000000, 0.000000000000000000 ) ) ;
#430 = ORIENTED_EDGE ( 'NONE', *, *, #39, .F. ) ;
#431 = CLOSED_SHELL ( 'NONE', ( #447, #472, #297, #12, #219, #339, #573, #183, #161, #363, #505, #118, #668, #202, #383, #353, #83, #607, #682, #482, #558, #168, #496, #549, #597 ) ) ;
#432 = AXIS2_PLACEMENT_3D ( 'NONE', #340, #498, #274 ) ;
#433 = SURFACE_STYLE_USAGE ( .BOTH. , #655 ) ;
#434 = DIRECTION ( 'NONE',  ( 0.000000000000000000, -1.000000000000000000, 0.000000000000000000 ) ) ;
#435 = EDGE_CURVE ( 'NONE', #366, #194, #154, .T. ) ;
#436 = PRODUCT_CONTEXT ( 'NONE', #68, 'mechanical' ) ;
#437 = CARTESIAN_POINT ( 'NONE',  ( 0.9064794551410535473, 2.652070323102390770, 1.883495110870475301E-15 ) ) ;
#438 = DIRECTION ( 'NONE',  ( 0.000000000000000000, 0.000000000000000000, 1.000000000000000000 ) ) ;
#439 = ADVANCED_BREP_SHAPE_REPRESENTATION ( 'ISO - 4032 - M3 - W - N_ISO - 4032 - M3 - W - N', ( #382, #368 ), #489 ) ;
#440 = CARTESIAN_POINT ( 'NONE',  ( -2.750000000000000000, 1.587713240271467097, -2.000000000000000000 ) ) ;
#441 = AXIS2_PLACEMENT_3D ( 'NONE', #361, #300, #365 ) ;
#442 = PLANE ( 'NONE',  #545 ) ;
#443 = AXIS2_PLACEMENT_3D ( 'NONE', #450, #550, #438 ) ;
#444 = DIRECTION ( 'NONE',  ( 0.000000000000000000, -0.000000000000000000, 1.000000000000000000 ) ) ;
#445 = ORIENTED_EDGE ( 'NONE', *, *, #414, .T. ) ;
#446 = DIRECTION ( 'NONE',  ( -0.8660254037844374864, -0.5000000000000018874, 0.000000000000000000 ) ) ;
#447 = ADVANCED_FACE ( 'NONE', ( #600, #120 ), #122, .F. ) ;
#448 = DIRECTION ( 'NONE',  ( 0.000000000000000000, -1.000000000000000000, 0.000000000000000000 ) ) ;
#449 = ORIENTED_EDGE ( 'NONE', *, *, #211, .T. ) ;
#450 = CARTESIAN_POINT ( 'NONE',  ( -2.750000000000000000, 1.587713240271467097, -2.399999999999999911 ) ) ;
#451 = FACE_BOUND ( 'NONE', #207, .T. ) ;
#452 = ORIENTED_EDGE ( 'NONE', *, *, #332, .F. ) ;
#453 = FACE_OUTER_BOUND ( 'NONE', #296, .T. ) ;
#454 = CIRCLE ( 'NONE', #510, 2.750000000000000888 ) ;
#455 = DIRECTION ( 'NONE',  ( 1.000000000000000000, 0.000000000000000000, 0.000000000000000000 ) ) ;
#456 = CONICAL_SURFACE ( 'NONE', #5, 1.500000000000000222, 0.9599310885968843632 ) ;
#457 = ORIENTED_EDGE ( 'NONE', *, *, #222, .F. ) ;
#458 = EDGE_CURVE ( 'NONE', #252, #306, #292, .T. ) ;
#459 = CARTESIAN_POINT ( 'NONE',  ( -2.750000000000000000, -1.587713240271477755, -2.000000000000000000 ) ) ;
#460 = CARTESIAN_POINT ( 'NONE',  ( 1.375000000000005773, 2.381569860407204420, -2.000000000000000888 ) ) ;
#461 = EDGE_LOOP ( 'NONE', ( #644 ) ) ;
#462 = CARTESIAN_POINT ( 'NONE',  ( 0.000000000000000000, 13.17542648054294752, -2.000000000000000000 ) ) ;
#463 = DIRECTION ( 'NONE',  ( -0.000000000000000000, -0.000000000000000000, 1.000000000000000000 ) ) ;
#464 = ORIENTED_EDGE ( 'NONE', *, *, #374, .F. ) ;
#465 = CARTESIAN_POINT ( 'NONE',  ( -1.841465337348304088, -2.112255972321543496, -0.02351960456806470590 ) ) ;
#466 = EDGE_CURVE ( 'NONE', #596, #408, #664, .T. ) ;
#467 = CARTESIAN_POINT ( 'NONE',  ( -0.9085346626517054602, 2.650883748492876446, -0.02351960456806051133 ) ) ;
#468 = AXIS2_PLACEMENT_3D ( 'NONE', #159, #370, #110 ) ;
#469 = EDGE_LOOP ( 'NONE', ( #327, #624, #632 ) ) ;
#470 = AXIS2_PLACEMENT_3D ( 'NONE', #462, #309, #641 ) ;
#471 = CARTESIAN_POINT ( 'NONE',  ( -1.250000000000000000, 0.000000000000000000, -2.199548115447571117 ) ) ;
#472 = ADVANCED_FACE ( 'NONE', ( #453 ), #622, .T. ) ;
#473 = DIRECTION ( 'NONE',  ( -0.8660254037844375974, -0.5000000000000018874, 0.000000000000000000 ) ) ;
#474 = EDGE_LOOP ( 'NONE', ( #138, #587, #172, #457, #445, #80 ) ) ;
#475 = CARTESIAN_POINT ( 'NONE',  ( -1.500000000000000000, 0.000000000000000000, -2.399999999999999467 ) ) ;
#476 = PLANE ( 'NONE',  #468 ) ;
#477 = ORIENTED_EDGE ( 'NONE', *, *, #659, .T. ) ;
#478 = SHAPE_DEFINITION_REPRESENTATION ( #367, #439 ) ;
#479 = DIRECTION ( 'NONE',  ( 0.000000000000000000, 0.000000000000000000, 1.000000000000000000 ) ) ;
#480 = EDGE_LOOP ( 'NONE', ( #121, #609, #654 ) ) ;
#481 = CONICAL_SURFACE ( 'NONE', #270, 2.750000000000000444, 1.047197551196596743 ) ;
#482 = ADVANCED_FACE ( 'NONE', ( #660 ), #534, .T. ) ;
#483 = DIRECTION ( 'NONE',  ( -1.000000000000000000, 0.000000000000000000, -0.000000000000000000 ) ) ;
#484 = CARTESIAN_POINT ( 'NONE',  ( 0.2243700767916216587, -3.045886356309215337, -0.1708300674639858518 ) ) ;
#485 = CARTESIAN_POINT ( 'NONE',  ( 0.000000000000000000, 13.17542648054294752, -2.000000000000000000 ) ) ;
#486 = B_SPLINE_CURVE_WITH_KNOTS ( 'NONE', 3,
 ( #3, #10, #7, #170, #214, #174 ),
 .UNSPECIFIED., .F., .F.,
 ( 4, 2, 4 ),
 ( 0.001606744326298696623, 0.002406996759593252235, 0.003207249192887807847 ),
 .UNSPECIFIED. ) ;
#487 = EDGE_CURVE ( 'NONE', #408, #215, #581, .T. ) ;
#488 = CARTESIAN_POINT ( 'NONE',  ( 1.375000000000004441, -2.381569860407203976, 0.000000000000000000 ) ) ;
#489 =( GEOMETRIC_REPRESENTATION_CONTEXT ( 3 ) GLOBAL_UNCERTAINTY_ASSIGNED_CONTEXT ( ( #266 ) ) GLOBAL_UNIT_ASSIGNED_CONTEXT ( ( #582, #588, #315 ) ) REPRESENTATION_CONTEXT ( 'NONE', 'WORKASPACE' ) );
#490 = ORIENTED_EDGE ( 'NONE', *, *, #405, .T. ) ;
#491 = DIRECTION ( 'NONE',  ( -1.000000000000000000, 0.000000000000000000, 0.000000000000000000 ) ) ;
#492 = CARTESIAN_POINT ( 'NONE',  ( 0.9085346626517050161, -2.650883748492885328, -0.02351960456806586122 ) ) ;
#493 = DIRECTION ( 'NONE',  ( 0.000000000000000000, -0.000000000000000000, 1.000000000000000000 ) ) ;
#494 = FACE_BOUND ( 'NONE', #89, .T. ) ;
#495 = ORIENTED_EDGE ( 'NONE', *, *, #259, .F. ) ;
#496 = ADVANCED_FACE ( 'NONE', ( #402, #78 ), #264, .F. ) ;
#497 = CIRCLE ( 'NONE', #674, 2.750000000000000000 ) ;
#498 = DIRECTION ( 'NONE',  ( -0.000000000000000000, -0.000000000000000000, 1.000000000000000000 ) ) ;
#499 = CARTESIAN_POINT ( 'NONE',  ( 0.000000000000000000, 0.000000000000000000, -2.000000000000000888 ) ) ;
#500 = EDGE_LOOP ( 'NONE', ( #490 ) ) ;
#501 = FACE_OUTER_BOUND ( 'NONE', #694, .T. ) ;
#502 = CARTESIAN_POINT ( 'NONE',  ( 0.000000000000000000, 0.000000000000000000, -0.1750518845524287326 ) ) ;
#503 = VERTEX_POINT ( 'NONE', #127 ) ;
#504 = DIRECTION ( 'NONE',  ( -1.000000000000000000, 0.000000000000000000, 0.000000000000000000 ) ) ;
#505 = ADVANCED_FACE ( 'NONE', ( #87 ), #442, .T. ) ;
#506 = FACE_OUTER_BOUND ( 'NONE', #681, .T. ) ;
#507 = EDGE_LOOP ( 'NONE', ( #109 ) ) ;
#508 = FACE_OUTER_BOUND ( 'NONE', #239, .T. ) ;
#509 = CIRCLE ( 'NONE', #263, 1.250000000000000000 ) ;
#510 = AXIS2_PLACEMENT_3D ( 'NONE', #124, #590, #658 ) ;
#511 = DIRECTION ( 'NONE',  ( -1.000000000000000000, 0.000000000000000000, 0.000000000000000000 ) ) ;
#512 = EDGE_LOOP ( 'NONE', ( #301, #541, #452 ) ) ;
#513 = CARTESIAN_POINT ( 'NONE',  ( -2.750000000000000000, 1.587713240271467097, -0.2456200930618652745 ) ) ;
#514 = CARTESIAN_POINT ( 'NONE',  ( -2.749999999999999112, -0.5348566131068011043, -0.02306174136865331639 ) ) ;
#515 = ORIENTED_EDGE ( 'NONE', *, *, #630, .T. ) ;
#516 = B_SPLINE_CURVE_WITH_KNOTS ( 'NONE', 3,
 ( #97, #44, #626, #41 ),
 .UNSPECIFIED., .F., .F.,
 ( 4, 4 ),
 ( 2.380742992578993153E-07, 0.001606744326298700310 ),
 .UNSPECIFIED. ) ;
#517 = DIRECTION ( 'NONE',  ( 1.000000000000000000, 0.000000000000000000, 0.000000000000000000 ) ) ;
#518 = DIRECTION ( 'NONE',  ( 0.8660254037844378194, 0.5000000000000015543, 0.000000000000000000 ) ) ;
#519 = VERTEX_POINT ( 'NONE', #125 ) ;
#520 = EDGE_CURVE ( 'NONE', #357, #357, #49, .T. ) ;
#521 = CARTESIAN_POINT ( 'NONE',  ( -2.750000000000000000, -1.587713240271479975, -0.2456200930618653855 ) ) ;
#522 = DIRECTION ( 'NONE',  ( -0.000000000000000000, -0.000000000000000000, 1.000000000000000000 ) ) ;
#523 = COLOUR_RGB ( '',0.7921568627450980005, 0.8196078431372548767, 0.9333333333333333481 ) ;
#524 = ORIENTED_EDGE ( 'NONE', *, *, #25, .F. ) ;
#525 = AXIS2_PLACEMENT_3D ( 'NONE', #90, #84, #225 ) ;
#526 = DIRECTION ( 'NONE',  ( 1.000000000000000000, 0.000000000000000000, 0.000000000000000000 ) ) ;
#527 = CARTESIAN_POINT ( 'NONE',  ( -1.375000000000005329, 2.381569860407203532, 0.000000000000000000 ) ) ;
#528 = ORIENTED_EDGE ( 'NONE', *, *, #583, .T. ) ;
#529 = CARTESIAN_POINT ( 'NONE',  ( -1.141614847838146041, 2.516314840832715394, 1.858178528039120580E-15 ) ) ;
#530 = EDGE_CURVE ( 'NONE', #408, #519, #29, .T. ) ;
#531 = ORIENTED_EDGE ( 'NONE', *, *, #395, .T. ) ;
#532 = DIRECTION ( 'NONE',  ( 1.000000000000000000, 0.000000000000000000, 0.000000000000000000 ) ) ;
#533 = CARTESIAN_POINT ( 'NONE',  ( 2.750000000000000444, 0.5405639250603703205, -0.02369969086895139937 ) ) ;
#534 = CONICAL_SURFACE ( 'NONE', #525, 2.750000000000000444, 1.047197551196596743 ) ;
#535 = FILL_AREA_STYLE_COLOUR ( '', #523 ) ;
#536 = LINE ( 'NONE', #175, #146 ) ;
#537 = ORIENTED_EDGE ( 'NONE', *, *, #640, .F. ) ;
#538 = EDGE_CURVE ( 'NONE', #101, #602, #390, .T. ) ;
#539 =( NAMED_UNIT ( * ) PLANE_ANGLE_UNIT ( ) SI_UNIT ( $, .RADIAN. ) );
#540 = UNCERTAINTY_MEASURE_WITH_UNIT (LENGTH_MEASURE( 1.000000000000000082E-05 ), #427, 'distance_accuracy_value', 'NONE');
#541 = ORIENTED_EDGE ( 'NONE', *, *, #9, .F. ) ;
#542 =( NAMED_UNIT ( * ) SI_UNIT ( $, .STERADIAN. ) SOLID_ANGLE_UNIT ( ) );
#543 = CARTESIAN_POINT ( 'NONE',  ( 2.750000000000000444, 0.000000000000000000, 0.000000000000000000 ) ) ;
#544 = VECTOR ( 'NONE', #518, 999.9999999999998863 ) ;
#545 = AXIS2_PLACEMENT_3D ( 'NONE', #178, #610, #667 ) ;
#546 = FACE_OUTER_BOUND ( 'NONE', #188, .T. ) ;
#547 = CARTESIAN_POINT ( 'NONE',  ( 2.750000000000000444, -1.065007702645625942, -0.1085530452847075500 ) ) ;
#548 = DIRECTION ( 'NONE',  ( 0.000000000000000000, 0.000000000000000000, 1.000000000000000000 ) ) ;
#549 = ADVANCED_FACE ( 'NONE', ( #336, #192 ), #456, .F. ) ;
#550 = DIRECTION ( 'NONE',  ( -1.000000000000000000, 0.000000000000000000, 0.000000000000000000 ) ) ;
#551 = CARTESIAN_POINT ( 'NONE',  ( 0.000000000000000000, 13.17542648054294752, -2.000000000000000000 ) ) ;
#552 = EDGE_LOOP ( 'NONE', ( #601, #250, #612 ) ) ;
#553 = CARTESIAN_POINT ( 'NONE',  ( 0.000000000000000000, 0.000000000000000000, -2.000000000000000888 ) ) ;
#554 = PRODUCT_DEFINITION_FORMATION_WITH_SPECIFIED_SOURCE ( 'Symmetric', '', #15, .NOT_KNOWN. ) ;
#555 = CARTESIAN_POINT ( 'NONE',  ( 2.750000000000000000, -1.587713240271478199, -2.000000000000000000 ) ) ;
#556 = ORIENTED_EDGE ( 'NONE', *, *, #616, .F. ) ;
#557 = B_SPLINE_CURVE_WITH_KNOTS ( 'NONE', 3,
 ( #399, #241, #238, #680 ),
 .UNSPECIFIED., .F., .F.,
 ( 4, 4 ),
 ( 2.380742992381838029E-07, 0.001606744326298679493 ),
 .UNSPECIFIED. ) ;
#558 = ADVANCED_FACE ( 'NONE', ( #501 ), #388, .T. ) ;
#559 = CARTESIAN_POINT ( 'NONE',  ( 0.000000000000000000, 0.000000000000000000, -0.1925570730076722747 ) ) ;
#560 = PLANE ( 'NONE',  #355 ) ;
#561 = ORIENTED_EDGE ( 'NONE', *, *, #18, .F. ) ;
#562 = CARTESIAN_POINT ( 'NONE',  ( 0.000000000000000000, 0.000000000000000000, -2.399999999999999911 ) ) ;
#563 = FACE_OUTER_BOUND ( 'NONE', #291, .T. ) ;
#564 = ORIENTED_EDGE ( 'NONE', *, *, #139, .T. ) ;
#565 = DIRECTION ( 'NONE',  ( -1.000000000000000000, 0.000000000000000000, 0.000000000000000000 ) ) ;
#566 = AXIS2_PLACEMENT_3D ( 'NONE', #684, #295, #149 ) ;
#567 = VECTOR ( 'NONE', #346, 999.9999999999998863 ) ;
#568 = CARTESIAN_POINT ( 'NONE',  ( -1.251928832280970872E-16, -3.175426480542955510, -2.399999999999999911 ) ) ;
#569 = VERTEX_POINT ( 'NONE', #349 ) ;
#570 = CARTESIAN_POINT ( 'NONE',  ( 2.750000000000000000, -0.2682974265912540512, 2.456395547037470983E-16 ) ) ;
#571 = CARTESIAN_POINT ( 'NONE',  ( -2.750000000000000444, 0.000000000000000000, 0.000000000000000000 ) ) ;
#572 = ORIENTED_EDGE ( 'NONE', *, *, #323, .T. ) ;
#573 = ADVANCED_FACE ( 'NONE', ( #136 ), #237, .T. ) ;
#574 = CARTESIAN_POINT ( 'NONE',  ( -2.750000000000000000, -1.587713240271477755, -2.399999999999999911 ) ) ;
#575 = LINE ( 'NONE', #152, #544 ) ;
#576 = EDGE_LOOP ( 'NONE', ( #422, #419, #690 ) ) ;
#577 = DIRECTION ( 'NONE',  ( 0.000000000000000000, 0.000000000000000000, -1.000000000000000000 ) ) ;
#578 = CARTESIAN_POINT ( 'NONE',  ( -2.750000000000000000, -1.587713240271477755, -2.399999999999999911 ) ) ;
#579 = AXIS2_PLACEMENT_3D ( 'NONE', #8, #649, #322 ) ;
#580 = ORIENTED_EDGE ( 'NONE', *, *, #530, .T. ) ;
#581 = CIRCLE ( 'NONE', #82, 2.750000000000000888 ) ;
#582 =( LENGTH_UNIT ( ) NAMED_UNIT ( * ) SI_UNIT ( .MILLI., .METRE. ) );
#583 = EDGE_CURVE ( 'NONE', #98, #55, #176, .T. ) ;
#584 = PLANE ( 'NONE',  #376 ) ;
#585 = ORIENTED_EDGE ( 'NONE', *, *, #651, .F. ) ;
#586 = PRODUCT_RELATED_PRODUCT_CATEGORY ( 'part', '', ( #15 ) ) ;
#587 = ORIENTED_EDGE ( 'NONE', *, *, #129, .T. ) ;
#588 =( NAMED_UNIT ( * ) PLANE_ANGLE_UNIT ( ) SI_UNIT ( $, .RADIAN. ) );
#589 = CARTESIAN_POINT ( 'NONE',  ( 2.750000000000000000, 1.587713240271479975, -0.2456200930618653855 ) ) ;
#590 = DIRECTION ( 'NONE',  ( -0.000000000000000000, -0.000000000000000000, 1.000000000000000000 ) ) ;
#591 = CONICAL_SURFACE ( 'NONE', #35, 2.750000000000000444, 1.047197551196596743 ) ;
#592 = EDGE_CURVE ( 'NONE', #602, #252, #119, .T. ) ;
#593 = AXIS2_PLACEMENT_3D ( 'NONE', #19, #234, #446 ) ;
#594 = CARTESIAN_POINT ( 'NONE',  ( -2.750000000000000000, 0.000000000000000000, -2.000000000000000888 ) ) ;
#595 = LINE ( 'NONE', #440, #341 ) ;
#596 = VERTEX_POINT ( 'NONE', #459 ) ;
#597 = ADVANCED_FACE ( 'NONE', ( #412, #155 ), #695, .F. ) ;
#598 = DIRECTION ( 'NONE',  ( 0.000000000000000000, 0.000000000000000000, 1.000000000000000000 ) ) ;
#599 = CARTESIAN_POINT ( 'NONE',  ( 0.4506121144344737983, -2.915265454974104831, -0.1090894304641149559 ) ) ;
#600 = FACE_OUTER_BOUND ( 'NONE', #260, .T. ) ;
#601 = ORIENTED_EDGE ( 'NONE', *, *, #374, .T. ) ;
#602 = VERTEX_POINT ( 'NONE', #633 ) ;
#603 = CIRCLE ( 'NONE', #94, 2.750000000000000000 ) ;
#604 = AXIS2_PLACEMENT_3D ( 'NONE', #562, #618, #240 ) ;
#605 = AXIS2_PLACEMENT_3D ( 'NONE', #364, #683, #198 ) ;
#606 = DIRECTION ( 'NONE',  ( -1.000000000000000000, 0.000000000000000000, 0.000000000000000000 ) ) ;
#607 = ADVANCED_FACE ( 'NONE', ( #508 ), #191, .T. ) ;
#608 = CARTESIAN_POINT ( 'NONE',  ( 0.000000000000000000, 0.000000000000000000, 0.000000000000000000 ) ) ;
#609 = ORIENTED_EDGE ( 'NONE', *, *, #227, .F. ) ;
#610 = DIRECTION ( 'NONE',  ( 0.000000000000000000, 0.000000000000000000, -1.000000000000000000 ) ) ;
#611 = CARTESIAN_POINT ( 'NONE',  ( -1.375000000000005329, 2.381569860407203532, 0.000000000000000000 ) ) ;
#612 = ORIENTED_EDGE ( 'NONE', *, *, #345, .T. ) ;
#613 = DIRECTION ( 'NONE',  ( 0.000000000000000000, 0.000000000000000000, 1.000000000000000000 ) ) ;
#614 = DIRECTION ( 'NONE',  ( -1.000000000000000000, 0.000000000000000000, 0.000000000000000000 ) ) ;
#615 = ORIENTED_EDGE ( 'NONE', *, *, #426, .F. ) ;
#616 = EDGE_CURVE ( 'NONE', #652, #252, #676, .T. ) ;
#617 = PRESENTATION_LAYER_ASSIGNMENT (  '', '', ( #221 ) ) ;
#618 = DIRECTION ( 'NONE',  ( 0.000000000000000000, 0.000000000000000000, 1.000000000000000000 ) ) ;
#619 = VECTOR ( 'NONE', #201, 1000.000000000000000 ) ;
#620 = PLANE ( 'NONE',  #253 ) ;
#621 = ORIENTED_EDGE ( 'NONE', *, *, #259, .T. ) ;
#622 = PLANE ( 'NONE',  #593 ) ;
#623 = DIRECTION ( 'NONE',  ( 0.000000000000000000, 0.000000000000000000, -1.000000000000000000 ) ) ;
#624 = ORIENTED_EDGE ( 'NONE', *, *, #190, .F. ) ;
#625 = CARTESIAN_POINT ( 'NONE',  ( -2.525629923208374539, -1.717253364505220370, -0.1708300674639793848 ) ) ;
#626 = CARTESIAN_POINT ( 'NONE',  ( -0.9064794551410614298, -2.652070323102396099, -3.329348412779007721E-15 ) ) ;
#627 = EDGE_LOOP ( 'NONE', ( #288, #424, #464, #226, #564, #430 ) ) ;
#628 = CARTESIAN_POINT ( 'NONE',  ( 1.375000000000004441, -2.381569860407203976, 0.000000000000000000 ) ) ;
#629 = CONICAL_SURFACE ( 'NONE', #308, 2.750000000000000444, 1.047197551196596743 ) ;
#630 = EDGE_CURVE ( 'NONE', #569, #356, #66, .T. ) ;
#631 = CARTESIAN_POINT ( 'NONE',  ( -2.750000000000000000, 1.587713240271467097, -2.000000000000000000 ) ) ;
#632 = ORIENTED_EDGE ( 'NONE', *, *, #435, .F. ) ;
#633 = CARTESIAN_POINT ( 'NONE',  ( 2.750000000000001332, -1.587713240271479087, -0.2456200930618653855 ) ) ;
#634 = LINE ( 'NONE', #251, #134 ) ;
#635 = PRODUCT_DEFINITION ( 'General', '', #554, #298 ) ;
#636 = ORIENTED_EDGE ( 'NONE', *, *, #426, .T. ) ;
#637 = CARTESIAN_POINT ( 'NONE',  ( -2.299387885565526091, -1.847874265840328212, -0.1090894304641107371 ) ) ;
#638 = CARTESIAN_POINT ( 'NONE',  ( -0.2243700767916268768, 3.045886356309203347, -0.1708300674639788297 ) ) ;
#639 = ORIENTED_EDGE ( 'NONE', *, *, #233, .T. ) ;
#640 = EDGE_CURVE ( 'NONE', #596, #356, #406, .T. ) ;
#641 = DIRECTION ( 'NONE',  ( -1.000000000000000000, 0.000000000000000000, -0.000000000000000000 ) ) ;
#642 = CARTESIAN_POINT ( 'NONE',  ( -2.750000000000000000, -0.2682974265912540512, 2.583450489125616034E-16 ) ) ;
#643 = AXIS2_PLACEMENT_3D ( 'NONE', #485, #216, #483 ) ;
#644 = ORIENTED_EDGE ( 'NONE', *, *, #273, .T. ) ;
#645 = CIRCLE ( 'NONE', #688, 1.250000000000000000 ) ;
#646 = DIRECTION ( 'NONE',  ( 0.000000000000000000, -1.000000000000000000, 0.000000000000000000 ) ) ;
#647 = ORIENTED_EDGE ( 'NONE', *, *, #91, .F. ) ;
#648 = PLANE ( 'NONE',  #643 ) ;
#649 = DIRECTION ( 'NONE',  ( -0.000000000000000000, -0.000000000000000000, 1.000000000000000000 ) ) ;
#650 = LINE ( 'NONE', #165, #213 ) ;
#651 = EDGE_CURVE ( 'NONE', #43, #43, #135, .T. ) ;
#652 = VERTEX_POINT ( 'NONE', #628 ) ;
#653 = VECTOR ( 'NONE', #646, 1000.000000000000000 ) ;
#654 = ORIENTED_EDGE ( 'NONE', *, *, #630, .F. ) ;
#655 = SURFACE_SIDE_STYLE ('',( #316 ) ) ;
#656 = CARTESIAN_POINT ( 'NONE',  ( 2.749999999999999556, 0.2684568315541778216, 2.496629612032049263E-16 ) ) ;
#657 = CARTESIAN_POINT ( 'NONE',  ( -1.843520544858954002, 2.111069397712018514, 1.786220834985613061E-15 ) ) ;
#658 = DIRECTION ( 'NONE',  ( 1.000000000000000000, 0.000000000000000000, 0.000000000000000000 ) ) ;
#659 = EDGE_CURVE ( 'NONE', #385, #408, #663, .T. ) ;
#660 = FACE_OUTER_BOUND ( 'NONE', #105, .T. ) ;
#661 = CARTESIAN_POINT ( 'NONE',  ( 1.141614847838147373, -2.516314840832723831, -3.319945636763228996E-15 ) ) ;
#662 = CIRCLE ( 'NONE', #398, 2.750000000000000000 ) ;
#663 = CIRCLE ( 'NONE', #95, 2.750000000000000888 ) ;
#664 = LINE ( 'NONE', #26, #400 ) ;
#665 = DIRECTION ( 'NONE',  ( -1.000000000000000000, 0.000000000000000000, 0.000000000000000000 ) ) ;
#666 = ORIENTED_EDGE ( 'NONE', *, *, #332, .T. ) ;
#667 = DIRECTION ( 'NONE',  ( -1.000000000000000000, 0.000000000000000000, -0.000000000000000000 ) ) ;
#668 = ADVANCED_FACE ( 'NONE', ( #360 ), #106, .T. ) ;
#669 = DIRECTION ( 'NONE',  ( -1.000000000000000000, 0.000000000000000000, 0.000000000000000000 ) ) ;
#670 = EDGE_LOOP ( 'NONE', ( #247 ) ) ;
#671 = CARTESIAN_POINT ( 'NONE',  ( 2.749999999999999112, -0.5348566131068006602, -0.02306174136865313945 ) ) ;
#672 = FACE_OUTER_BOUND ( 'NONE', #359, .T. ) ;
#673 = ORIENTED_EDGE ( 'NONE', *, *, #282, .F. ) ;
#674 = AXIS2_PLACEMENT_3D ( 'NONE', #275, #141, #33 ) ;
#675 = DIRECTION ( 'NONE',  ( 0.000000000000000000, 0.000000000000000000, -1.000000000000000000 ) ) ;
#676 = CIRCLE ( 'NONE', #231, 2.750000000000000000 ) ;
#677 = DIRECTION ( 'NONE',  ( 0.000000000000000000, 0.000000000000000000, -1.000000000000000000 ) ) ;
#678 = ORIENTED_EDGE ( 'NONE', *, *, #659, .F. ) ;
#679 = DIRECTION ( 'NONE',  ( -1.000000000000000000, 0.000000000000000000, 0.000000000000000000 ) ) ;
#680 = CARTESIAN_POINT ( 'NONE',  ( 1.375000000000004441, -2.381569860407203976, 0.000000000000000000 ) ) ;
#681 = EDGE_LOOP ( 'NONE', ( #585 ) ) ;
#682 = ADVANCED_FACE ( 'NONE', ( #352 ), #629, .T. ) ;
#683 = DIRECTION ( 'NONE',  ( 0.000000000000000000, -0.000000000000000000, 1.000000000000000000 ) ) ;
#684 = CARTESIAN_POINT ( 'NONE',  ( -1.251928832280970872E-16, -3.175426480542955510, -2.399999999999999911 ) ) ;
#685 = ORIENTED_EDGE ( 'NONE', *, *, #273, .F. ) ;
#686 = CARTESIAN_POINT ( 'NONE',  ( 0.000000000000000000, 0.000000000000000000, 0.000000000000000000 ) ) ;
#687 = AXIS2_PLACEMENT_3D ( 'NONE', #92, #394, #187 ) ;
#688 = AXIS2_PLACEMENT_3D ( 'NONE', #218, #220, #429 ) ;
#689 = CARTESIAN_POINT ( 'NONE',  ( -0.4506121144344773510, 2.915265454974091952, -0.1090894304641087387 ) ) ;
#690 = ORIENTED_EDGE ( 'NONE', *, *, #414, .F. ) ;
#691 = DIRECTION ( 'NONE',  ( -1.000000000000000000, 0.000000000000000000, 0.000000000000000000 ) ) ;
#692 = CARTESIAN_POINT ( 'NONE',  ( 2.750000000000000000, 0.000000000000000000, -2.000000000000000888 ) ) ;
#693 = EDGE_CURVE ( 'NONE', #6, #366, #324, .T. ) ;
#694 = EDGE_LOOP ( 'NONE', ( #281, #232, #561 ) ) ;
#695 = CYLINDRICAL_SURFACE ( 'NONE', #244, 1.500000000000000000 ) ;
ENDSEC;
END-ISO-10303-21;
