ISO-10303-21;
HEADER;
FILE_DESCRIPTION (( 'STEP AP214' ),
    '1' );
FILE_NAME ('Part6_GR.STEP',
    '2025-07-15T13:07:05',
    ( '' ),
    ( '' ),
    'SwSTEP 2.0',
    'SolidWorks 2025',
    '' );
FILE_SCHEMA (( 'AUTOMOTIVE_DESIGN' ));
ENDSEC;

DATA;
#1 = CARTESIAN_POINT ( 'NONE',  ( 0.000000000000000000, 0.000000000000000000, 0.000000000000000000 ) ) ;
#2 = FACE_OUTER_BOUND ( 'NONE', #43, .T. ) ;
#3 = VERTEX_POINT ( 'NONE', #86 ) ;
#4 = AXIS2_PLACEMENT_3D ( 'NONE', #103, #78, #144 ) ;
#5 = ORIENTED_EDGE ( 'NONE', *, *, #151, .F. ) ;
#6 = COLOUR_RGB ( '',0.7921568627450980005, 0.8196078431372548767, 0.9333333333333333481 ) ;
#7 = ADVANCED_BREP_SHAPE_REPRESENTATION ( 'Part6_GR', ( #27, #52 ), #114 ) ;
#8 = FILL_AREA_STYLE_COLOUR ( '', #6 ) ;
#9 = EDGE_CURVE ( 'NONE', #96, #96, #85, .T. ) ;
#10 = PLANE ( 'NONE',  #125 ) ;
#11 = FACE_OUTER_BOUND ( 'NONE', #39, .T. ) ;
#12 = FACE_OUTER_BOUND ( 'NONE', #102, .T. ) ;
#13 = VERTEX_POINT ( 'NONE', #49 ) ;
#14 = CLOSED_SHELL ( 'NONE', ( #79, #25, #139, #122, #51, #142, #129 ) ) ;
#15 =( NAMED_UNIT ( * ) PLANE_ANGLE_UNIT ( ) SI_UNIT ( $, .RADIAN. ) );
#16 =( LENGTH_UNIT ( ) NAMED_UNIT ( * ) SI_UNIT ( .MILLI., .METRE. ) );
#17 = CARTESIAN_POINT ( 'NONE',  ( 0.000000000000000000, 0.000000000000000000, 0.000000000000000000 ) ) ;
#18 = CIRCLE ( 'NONE', #35, 2.500000000000000000 ) ;
#19 = EDGE_CURVE ( 'NONE', #33, #33, #40, .T. ) ;
#20 = EDGE_LOOP ( 'NONE', ( #140 ) ) ;
#21 = EDGE_CURVE ( 'NONE', #119, #119, #148, .T. ) ;
#22 = AXIS2_PLACEMENT_3D ( 'NONE', #100, #127, #29 ) ;
#23 = ORIENTED_EDGE ( 'NONE', *, *, #151, .T. ) ;
#24 = DIRECTION ( 'NONE',  ( 0.000000000000000000, -0.000000000000000000, 1.000000000000000000 ) ) ;
#25 = ADVANCED_FACE ( 'NONE', ( #11 ), #10, .F. ) ;
#26 = SURFACE_SIDE_STYLE ('',( #72 ) ) ;
#27 = MANIFOLD_SOLID_BREP ( 'Revolve1', #14 ) ;
#28 = CARTESIAN_POINT ( 'NONE',  ( -2.499999999999998224, 0.000000000000000000, 0.000000000000000000 ) ) ;
#29 = DIRECTION ( 'NONE',  ( 0.000000000000000000, 0.000000000000000000, -1.000000000000000000 ) ) ;
#30 = CARTESIAN_POINT ( 'NONE',  ( 0.000000000000000000, 1.000000000000001332, -1.499999999999998224 ) ) ;
#31 = DIRECTION ( 'NONE',  ( 0.000000000000000000, 0.000000000000000000, -1.000000000000000000 ) ) ;
#32 = AXIS2_PLACEMENT_3D ( 'NONE', #90, #152, #104 ) ;
#33 = VERTEX_POINT ( 'NONE', #30 ) ;
#34 =( NAMED_UNIT ( * ) SI_UNIT ( $, .STERADIAN. ) SOLID_ANGLE_UNIT ( ) );
#35 = AXIS2_PLACEMENT_3D ( 'NONE', #83, #150, #164 ) ;
#36 = PRESENTATION_LAYER_ASSIGNMENT (  '', '', ( #107 ) ) ;
#37 = EDGE_LOOP ( 'NONE', ( #68 ) ) ;
#38 = APPLICATION_CONTEXT ( 'automotive_design' ) ;
#39 = EDGE_LOOP ( 'NONE', ( #54 ) ) ;
#40 = CIRCLE ( 'NONE', #32, 1.499999999999998224 ) ;
#41 = EDGE_LOOP ( 'NONE', ( #76 ) ) ;
#42 = CARTESIAN_POINT ( 'NONE',  ( 0.000000000000000000, 14.00000000000000000, 0.000000000000000000 ) ) ;
#43 = EDGE_LOOP ( 'NONE', ( #5 ) ) ;
#44 = AXIS2_PLACEMENT_3D ( 'NONE', #17, #64, #31 ) ;
#45 = DIRECTION ( 'NONE',  ( 0.000000000000000000, -1.000000000000000000, -0.000000000000000000 ) ) ;
#46 = PRODUCT_RELATED_PRODUCT_CATEGORY ( 'part', '', ( #113 ) ) ;
#47 = DIRECTION ( 'NONE',  ( 0.000000000000000000, 0.000000000000000000, -1.000000000000000000 ) ) ;
#48 = DIRECTION ( 'NONE',  ( -0.000000000000000000, -1.000000000000000000, -0.000000000000000000 ) ) ;
#49 = CARTESIAN_POINT ( 'NONE',  ( 0.000000000000000000, 13.00000000000000178, -2.500000000000000000 ) ) ;
#50 = PRODUCT_CONTEXT ( 'NONE', #38, 'mechanical' ) ;
#51 = ADVANCED_FACE ( 'NONE', ( #153, #105 ), #70, .T. ) ;
#52 = AXIS2_PLACEMENT_3D ( 'NONE', #109, #160, #156 ) ;
#53 = EDGE_CURVE ( 'NONE', #13, #13, #18, .T. ) ;
#54 = ORIENTED_EDGE ( 'NONE', *, *, #9, .F. ) ;
#55 = AXIS2_PLACEMENT_3D ( 'NONE', #28, #141, #24 ) ;
#56 = FACE_BOUND ( 'NONE', #120, .T. ) ;
#57 = PRODUCT_DEFINITION_SHAPE ( 'NONE', 'NONE',  #60 ) ;
#58 = DIRECTION ( 'NONE',  ( 0.000000000000000000, 0.000000000000000000, -1.000000000000000000 ) ) ;
#59 = DIRECTION ( 'NONE',  ( 0.000000000000000000, 0.000000000000000000, -1.000000000000000000 ) ) ;
#60 = PRODUCT_DEFINITION ( 'General', '', #67, #92 ) ;
#61 =( GEOMETRIC_REPRESENTATION_CONTEXT ( 3 ) GLOBAL_UNCERTAINTY_ASSIGNED_CONTEXT ( ( #126 ) ) GLOBAL_UNIT_ASSIGNED_CONTEXT ( ( #162, #89, #128 ) ) REPRESENTATION_CONTEXT ( 'NONE', 'WORKASPACE' ) );
#62 = DIRECTION ( 'NONE',  ( -0.000000000000000000, -1.000000000000000000, -0.000000000000000000 ) ) ;
#63 = FACE_OUTER_BOUND ( 'NONE', #20, .T. ) ;
#64 = DIRECTION ( 'NONE',  ( -0.000000000000000000, -1.000000000000000000, -0.000000000000000000 ) ) ;
#65 = AXIS2_PLACEMENT_3D ( 'NONE', #108, #74, #47 ) ;
#66 = EDGE_LOOP ( 'NONE', ( #112 ) ) ;
#67 = PRODUCT_DEFINITION_FORMATION_WITH_SPECIFIED_SOURCE ( 'Symmetric', '', #113, .NOT_KNOWN. ) ;
#68 = ORIENTED_EDGE ( 'NONE', *, *, #53, .T. ) ;
#69 = DIRECTION ( 'NONE',  ( -0.000000000000000000, -1.000000000000000000, -0.000000000000000000 ) ) ;
#70 = CYLINDRICAL_SURFACE ( 'NONE', #22, 1.499999999999999112 ) ;
#71 = DIRECTION ( 'NONE',  ( 0.000000000000000000, -0.000000000000000000, 1.000000000000000000 ) ) ;
#72 = SURFACE_STYLE_FILL_AREA ( #81 ) ;
#73 = CYLINDRICAL_SURFACE ( 'NONE', #44, 2.500000000000000000 ) ;
#74 = DIRECTION ( 'NONE',  ( 0.000000000000000000, -1.000000000000000000, -0.000000000000000000 ) ) ;
#75 = VERTEX_POINT ( 'NONE', #159 ) ;
#76 = ORIENTED_EDGE ( 'NONE', *, *, #19, .T. ) ;
#77 = ORIENTED_EDGE ( 'NONE', *, *, #158, .T. ) ;
#78 = DIRECTION ( 'NONE',  ( -0.000000000000000000, -1.000000000000000000, -0.000000000000000000 ) ) ;
#79 = ADVANCED_FACE ( 'NONE', ( #133 ), #91, .F. ) ;
#80 = PRESENTATION_STYLE_ASSIGNMENT (( #143 ) ) ;
#81 = FILL_AREA_STYLE ('',( #8 ) ) ;
#82 = PLANE ( 'NONE',  #131 ) ;
#83 = CARTESIAN_POINT ( 'NONE',  ( 0.000000000000000000, 13.00000000000000178, 0.000000000000000000 ) ) ;
#84 = DIRECTION ( 'NONE',  ( 0.000000000000000000, 0.000000000000000000, -1.000000000000000000 ) ) ;
#85 = CIRCLE ( 'NONE', #98, 2.500000000000000000 ) ;
#86 = CARTESIAN_POINT ( 'NONE',  ( 0.000000000000000000, 1.000000000000000888, -2.499999999999998224 ) ) ;
#87 = EDGE_LOOP ( 'NONE', ( #88 ) ) ;
#88 = ORIENTED_EDGE ( 'NONE', *, *, #21, .F. ) ;
#89 =( NAMED_UNIT ( * ) PLANE_ANGLE_UNIT ( ) SI_UNIT ( $, .RADIAN. ) );
#90 = CARTESIAN_POINT ( 'NONE',  ( 0.000000000000000000, 1.000000000000001332, 0.000000000000000000 ) ) ;
#91 = PLANE ( 'NONE',  #55 ) ;
#92 = PRODUCT_DEFINITION_CONTEXT ( 'detailed design', #165, 'design' ) ;
#93 = FACE_OUTER_BOUND ( 'NONE', #87, .T. ) ;
#94 = UNCERTAINTY_MEASURE_WITH_UNIT (LENGTH_MEASURE( 1.000000000000000082E-05 ), #16, 'distance_accuracy_value', 'NONE');
#95 = CARTESIAN_POINT ( 'NONE',  ( 0.000000000000000000, 14.00000000000000000, -2.500000000000000000 ) ) ;
#96 = VERTEX_POINT ( 'NONE', #95 ) ;
#97 = APPLICATION_PROTOCOL_DEFINITION ( 'draft international standard', 'automotive_design', 1998, #165 ) ;
#98 = AXIS2_PLACEMENT_3D ( 'NONE', #130, #69, #58 ) ;
#99 = EDGE_LOOP ( 'NONE', ( #124 ) ) ;
#100 = CARTESIAN_POINT ( 'NONE',  ( 0.000000000000000000, 0.000000000000000000, 0.000000000000000000 ) ) ;
#101 = AXIS2_PLACEMENT_3D ( 'NONE', #116, #48, #84 ) ;
#102 = EDGE_LOOP ( 'NONE', ( #23 ) ) ;
#103 = CARTESIAN_POINT ( 'NONE',  ( 0.000000000000000000, 0.000000000000000000, 0.000000000000000000 ) ) ;
#104 = DIRECTION ( 'NONE',  ( 0.000000000000000000, 0.000000000000000000, -1.000000000000000000 ) ) ;
#105 = FACE_OUTER_BOUND ( 'NONE', #149, .T. ) ;
#106 = DIRECTION ( 'NONE',  ( 0.000000000000000000, 0.000000000000000000, -1.000000000000000000 ) ) ;
#107 = STYLED_ITEM ( 'NONE', ( #80 ), #27 ) ;
#108 = CARTESIAN_POINT ( 'NONE',  ( -1.499999999999998224, 1.000000000000001110, 0.000000000000000000 ) ) ;
#109 = CARTESIAN_POINT ( 'NONE',  ( 0.000000000000000000, 0.000000000000000000, 0.000000000000000000 ) ) ;
#110 = DIRECTION ( 'NONE',  ( 0.000000000000000000, 0.000000000000000000, -1.000000000000000000 ) ) ;
#111 = AXIS2_PLACEMENT_3D ( 'NONE', #1, #62, #110 ) ;
#112 = ORIENTED_EDGE ( 'NONE', *, *, #21, .T. ) ;
#113 = PRODUCT ( 'Part6_GR', 'Part6_GR', '', ( #50 ) ) ;
#114 =( GEOMETRIC_REPRESENTATION_CONTEXT ( 3 ) GLOBAL_UNCERTAINTY_ASSIGNED_CONTEXT ( ( #94 ) ) GLOBAL_UNIT_ASSIGNED_CONTEXT ( ( #16, #15, #34 ) ) REPRESENTATION_CONTEXT ( 'NONE', 'WORKASPACE' ) );
#115 = ORIENTED_EDGE ( 'NONE', *, *, #53, .F. ) ;
#116 = CARTESIAN_POINT ( 'NONE',  ( 0.000000000000000000, 13.00000000000000178, 0.000000000000000000 ) ) ;
#117 = APPLICATION_PROTOCOL_DEFINITION ( 'draft international standard', 'automotive_design', 1998, #38 ) ;
#118 = CARTESIAN_POINT ( 'NONE',  ( 0.000000000000000000, 0.000000000000000000, -2.499999999999998224 ) ) ;
#119 = VERTEX_POINT ( 'NONE', #118 ) ;
#120 = EDGE_LOOP ( 'NONE', ( #155 ) ) ;
#121 = CIRCLE ( 'NONE', #101, 1.499999999999999778 ) ;
#122 = ADVANCED_FACE ( 'NONE', ( #56, #163 ), #82, .F. ) ;
#123 = MECHANICAL_DESIGN_GEOMETRIC_PRESENTATION_REPRESENTATION (  '', ( #107 ), #61 ) ;
#124 = ORIENTED_EDGE ( 'NONE', *, *, #19, .F. ) ;
#125 = AXIS2_PLACEMENT_3D ( 'NONE', #42, #45, #59 ) ;
#126 = UNCERTAINTY_MEASURE_WITH_UNIT (LENGTH_MEASURE( 1.000000000000000082E-05 ), #162, 'distance_accuracy_value', 'NONE');
#127 = DIRECTION ( 'NONE',  ( -0.000000000000000000, -1.000000000000000000, -0.000000000000000000 ) ) ;
#128 =( NAMED_UNIT ( * ) SI_UNIT ( $, .STERADIAN. ) SOLID_ANGLE_UNIT ( ) );
#129 = ADVANCED_FACE ( 'NONE', ( #93, #12 ), #145, .T. ) ;
#130 = CARTESIAN_POINT ( 'NONE',  ( 0.000000000000000000, 14.00000000000000000, 0.000000000000000000 ) ) ;
#131 = AXIS2_PLACEMENT_3D ( 'NONE', #154, #132, #71 ) ;
#132 = DIRECTION ( 'NONE',  ( 0.000000000000000000, 1.000000000000000000, 0.000000000000000000 ) ) ;
#133 = FACE_OUTER_BOUND ( 'NONE', #66, .T. ) ;
#134 = CARTESIAN_POINT ( 'NONE',  ( 0.000000000000000000, 1.000000000000000888, 0.000000000000000000 ) ) ;
#135 = AXIS2_PLACEMENT_3D ( 'NONE', #134, #136, #106 ) ;
#136 = DIRECTION ( 'NONE',  ( -0.000000000000000000, -1.000000000000000000, -0.000000000000000000 ) ) ;
#137 = PLANE ( 'NONE',  #65 ) ;
#138 = CIRCLE ( 'NONE', #135, 2.499999999999998224 ) ;
#139 = ADVANCED_FACE ( 'NONE', ( #157, #63 ), #73, .T. ) ;
#140 = ORIENTED_EDGE ( 'NONE', *, *, #9, .T. ) ;
#141 = DIRECTION ( 'NONE',  ( 0.000000000000000000, 1.000000000000000000, 0.000000000000000000 ) ) ;
#142 = ADVANCED_FACE ( 'NONE', ( #2, #146 ), #137, .F. ) ;
#143 = SURFACE_STYLE_USAGE ( .BOTH. , #26 ) ;
#144 = DIRECTION ( 'NONE',  ( 0.000000000000000000, 0.000000000000000000, -1.000000000000000000 ) ) ;
#145 = CYLINDRICAL_SURFACE ( 'NONE', #111, 2.499999999999998224 ) ;
#146 = FACE_BOUND ( 'NONE', #41, .T. ) ;
#147 = SHAPE_DEFINITION_REPRESENTATION ( #57, #7 ) ;
#148 = CIRCLE ( 'NONE', #4, 2.499999999999998224 ) ;
#149 = EDGE_LOOP ( 'NONE', ( #77 ) ) ;
#150 = DIRECTION ( 'NONE',  ( -0.000000000000000000, -1.000000000000000000, -0.000000000000000000 ) ) ;
#151 = EDGE_CURVE ( 'NONE', #3, #3, #138, .T. ) ;
#152 = DIRECTION ( 'NONE',  ( -0.000000000000000000, -1.000000000000000000, -0.000000000000000000 ) ) ;
#153 = FACE_OUTER_BOUND ( 'NONE', #99, .T. ) ;
#154 = CARTESIAN_POINT ( 'NONE',  ( -2.500000000000000000, 13.00000000000000178, 0.000000000000000000 ) ) ;
#155 = ORIENTED_EDGE ( 'NONE', *, *, #158, .F. ) ;
#156 = DIRECTION ( 'NONE',  ( 1.000000000000000000, 0.000000000000000000, 0.000000000000000000 ) ) ;
#157 = FACE_OUTER_BOUND ( 'NONE', #161, .T. ) ;
#158 = EDGE_CURVE ( 'NONE', #75, #75, #121, .T. ) ;
#159 = CARTESIAN_POINT ( 'NONE',  ( 0.000000000000000000, 13.00000000000000178, -1.499999999999999778 ) ) ;
#160 = DIRECTION ( 'NONE',  ( 0.000000000000000000, 0.000000000000000000, 1.000000000000000000 ) ) ;
#161 = EDGE_LOOP ( 'NONE', ( #115 ) ) ;
#162 =( LENGTH_UNIT ( ) NAMED_UNIT ( * ) SI_UNIT ( .MILLI., .METRE. ) );
#163 = FACE_OUTER_BOUND ( 'NONE', #37, .T. ) ;
#164 = DIRECTION ( 'NONE',  ( 0.000000000000000000, 0.000000000000000000, -1.000000000000000000 ) ) ;
#165 = APPLICATION_CONTEXT ( 'automotive_design' ) ;
ENDSEC;
END-ISO-10303-21;
