ISO-10303-21;
HEADER;
FILE_DESCRIPTION (( 'STEP AP214' ),
    '1' );
FILE_NAME ('Part7_GR.STEP',
    '2025-07-15T13:07:05',
    ( '' ),
    ( '' ),
    'SwSTEP 2.0',
    'SolidWorks 2025',
    '' );
FILE_SCHEMA (( 'AUTOMOTIVE_DESIGN' ));
ENDSEC;

DATA;
#1 = CARTESIAN_POINT ( 'NONE',  ( 2.000000000000000000, 5.000000000000000000, 7.000000000000000000 ) ) ;
#2 = CIRCLE ( 'NONE', #234, 3.000000000000000000 ) ;
#3 = AXIS2_PLACEMENT_3D ( 'NONE', #530, #546, #394 ) ;
#4 = ORIENTED_EDGE ( 'NONE', *, *, #376, .F. ) ;
#5 = DIRECTION ( 'NONE',  ( 0.000000000000000000, 1.000000000000000000, 0.000000000000000000 ) ) ;
#6 = EDGE_CURVE ( 'NONE', #507, #131, #577, .T. ) ;
#7 = ORIENTED_EDGE ( 'NONE', *, *, #156, .F. ) ;
#8 = CARTESIAN_POINT ( 'NONE',  ( -0.7500000000000003331, 5.000000000000000000, -10.00000000000000000 ) ) ;
#9 = EDGE_LOOP ( 'NONE', ( #163, #539, #88, #545, #196, #618 ) ) ;
#10 = LINE ( 'NONE', #71, #130 ) ;
#11 = ADVANCED_BREP_SHAPE_REPRESENTATION ( 'Part7_GR', ( #360, #504 ), #533 ) ;
#12 = DIRECTION ( 'NONE',  ( -1.000000000000000000, 0.000000000000000000, -0.000000000000000000 ) ) ;
#13 = AXIS2_PLACEMENT_3D ( 'NONE', #296, #374, #383 ) ;
#14 = VERTEX_POINT ( 'NONE', #141 ) ;
#15 = CYLINDRICAL_SURFACE ( 'NONE', #202, 3.000000000000000000 ) ;
#16 = EDGE_CURVE ( 'NONE', #401, #414, #329, .T. ) ;
#17 = ORIENTED_EDGE ( 'NONE', *, *, #23, .T. ) ;
#18 = LINE ( 'NONE', #107, #493 ) ;
#19 = CYLINDRICAL_SURFACE ( 'NONE', #468, 3.000000000000000000 ) ;
#20 = ORIENTED_EDGE ( 'NONE', *, *, #177, .T. ) ;
#21 = VECTOR ( 'NONE', #406, 1000.000000000000000 ) ;
#22 = AXIS2_PLACEMENT_3D ( 'NONE', #293, #390, #386 ) ;
#23 = EDGE_CURVE ( 'NONE', #350, #254, #359, .T. ) ;
#24 = EDGE_LOOP ( 'NONE', ( #389, #266, #257, #404, #34, #73 ) ) ;
#25 =( NAMED_UNIT ( * ) SI_UNIT ( $, .STERADIAN. ) SOLID_ANGLE_UNIT ( ) );
#26 = DIRECTION ( 'NONE',  ( -1.000000000000000000, 0.000000000000000000, 0.000000000000000000 ) ) ;
#27 = DIRECTION ( 'NONE',  ( 0.000000000000000000, 1.000000000000000000, 0.000000000000000000 ) ) ;
#28 = ORIENTED_EDGE ( 'NONE', *, *, #518, .F. ) ;
#29 = FACE_OUTER_BOUND ( 'NONE', #319, .T. ) ;
#30 = CARTESIAN_POINT ( 'NONE',  ( -9.000000000000001776, -2.000000000000000000, 7.000000000000000000 ) ) ;
#31 = DIRECTION ( 'NONE',  ( 1.000000000000000000, 0.000000000000000000, 0.000000000000000000 ) ) ;
#32 = EDGE_LOOP ( 'NONE', ( #317 ) ) ;
#33 = AXIS2_PLACEMENT_3D ( 'NONE', #381, #387, #72 ) ;
#34 = ORIENTED_EDGE ( 'NONE', *, *, #284, .F. ) ;
#35 = CARTESIAN_POINT ( 'NONE',  ( -9.000000000000001776, -2.000000000000000000, 4.500000000000000888 ) ) ;
#36 = AXIS2_PLACEMENT_3D ( 'NONE', #132, #74, #616 ) ;
#37 = CARTESIAN_POINT ( 'NONE',  ( 0.000000000000000000, 5.000000000000000000, -10.00000000000000000 ) ) ;
#38 = ADVANCED_FACE ( 'NONE', ( #232 ), #512, .T. ) ;
#39 = FACE_OUTER_BOUND ( 'NONE', #615, .T. ) ;
#40 = CARTESIAN_POINT ( 'NONE',  ( 0.000000000000000000, 0.7500000000000000000, 10.00000000000000000 ) ) ;
#41 = DIRECTION ( 'NONE',  ( 0.000000000000000000, 0.000000000000000000, -1.000000000000000000 ) ) ;
#42 = SHAPE_DEFINITION_REPRESENTATION ( #183, #11 ) ;
#43 = DIRECTION ( 'NONE',  ( 0.000000000000000000, 0.000000000000000000, 1.000000000000000000 ) ) ;
#44 = CARTESIAN_POINT ( 'NONE',  ( -9.000000000000001776, -2.000000000000000000, 7.000000000000000000 ) ) ;
#45 = VECTOR ( 'NONE', #566, 1000.000000000000000 ) ;
#46 = ADVANCED_FACE ( 'NONE', ( #39 ), #181, .T. ) ;
#47 = CIRCLE ( 'NONE', #384, 3.000000000000000000 ) ;
#48 = CARTESIAN_POINT ( 'NONE',  ( -0.7500000000000003331, 0.7500000000000000000, -10.00000000000000000 ) ) ;
#49 = ORIENTED_EDGE ( 'NONE', *, *, #484, .F. ) ;
#50 = DIRECTION ( 'NONE',  ( 0.000000000000000000, 0.000000000000000000, 1.000000000000000000 ) ) ;
#51 = PLANE ( 'NONE',  #139 ) ;
#52 = ORIENTED_EDGE ( 'NONE', *, *, #94, .T. ) ;
#53 = VECTOR ( 'NONE', #565, 1000.000000000000000 ) ;
#54 = AXIS2_PLACEMENT_3D ( 'NONE', #101, #43, #233 ) ;
#55 = EDGE_CURVE ( 'NONE', #353, #353, #98, .T. ) ;
#56 = VERTEX_POINT ( 'NONE', #413 ) ;
#57 = FACE_BOUND ( 'NONE', #209, .T. ) ;
#58 = PRODUCT_RELATED_PRODUCT_CATEGORY ( 'part', '', ( #459 ) ) ;
#59 = ORIENTED_EDGE ( 'NONE', *, *, #433, .F. ) ;
#60 = CARTESIAN_POINT ( 'NONE',  ( -0.7500000000000008882, -2.000000000000000000, 10.00000000000000000 ) ) ;
#61 = LINE ( 'NONE', #596, #513 ) ;
#62 = CARTESIAN_POINT ( 'NONE',  ( -9.000000000000001776, -2.000000000000000000, -7.000000000000000000 ) ) ;
#63 = ORIENTED_EDGE ( 'NONE', *, *, #532, .F. ) ;
#64 = DIRECTION ( 'NONE',  ( 0.000000000000000000, 1.000000000000000000, 0.000000000000000000 ) ) ;
#65 = ADVANCED_FACE ( 'NONE', ( #92 ), #279, .T. ) ;
#66 = VECTOR ( 'NONE', #167, 1000.000000000000000 ) ;
#67 = ORIENTED_EDGE ( 'NONE', *, *, #55, .T. ) ;
#68 = FACE_BOUND ( 'NONE', #488, .T. ) ;
#69 = DIRECTION ( 'NONE',  ( 0.000000000000000000, 0.000000000000000000, -1.000000000000000000 ) ) ;
#70 = EDGE_LOOP ( 'NONE', ( #4, #563, #63, #111 ) ) ;
#71 = CARTESIAN_POINT ( 'NONE',  ( 0.000000000000000000, 0.000000000000000000, 10.00000000000000000 ) ) ;
#72 = DIRECTION ( 'NONE',  ( 0.000000000000000000, 0.000000000000000000, 1.000000000000000000 ) ) ;
#73 = ORIENTED_EDGE ( 'NONE', *, *, #617, .T. ) ;
#74 = DIRECTION ( 'NONE',  ( 0.000000000000000000, 1.000000000000000000, 0.000000000000000000 ) ) ;
#75 = VECTOR ( 'NONE', #250, 1000.000000000000000 ) ;
#76 = PLANE ( 'NONE',  #491 ) ;
#77 = EDGE_CURVE ( 'NONE', #451, #451, #270, .T. ) ;
#78 = VERTEX_POINT ( 'NONE', #332 ) ;
#79 = LINE ( 'NONE', #260, #340 ) ;
#80 = DIRECTION ( 'NONE',  ( 1.084202172485504434E-16, 1.000000000000000000, 0.000000000000000000 ) ) ;
#81 = ORIENTED_EDGE ( 'NONE', *, *, #576, .T. ) ;
#82 = CARTESIAN_POINT ( 'NONE',  ( 2.000000000000000000, 5.000000000000000000, -10.00000000000000000 ) ) ;
#83 = ORIENTED_EDGE ( 'NONE', *, *, #312, .F. ) ;
#84 = VERTEX_POINT ( 'NONE', #35 ) ;
#85 = EDGE_CURVE ( 'NONE', #131, #14, #145, .T. ) ;
#86 = VECTOR ( 'NONE', #231, 1000.000000000000000 ) ;
#87 = AXIS2_PLACEMENT_3D ( 'NONE', #467, #464, #422 ) ;
#88 = ORIENTED_EDGE ( 'NONE', *, *, #412, .F. ) ;
#89 = CARTESIAN_POINT ( 'NONE',  ( 0.000000000000000000, 8.000000000000000000, -7.000000000000000888 ) ) ;
#90 = CARTESIAN_POINT ( 'NONE',  ( -12.00000000000000000, 0.000000000000000000, -7.000000000000000888 ) ) ;
#91 = DIRECTION ( 'NONE',  ( -0.000000000000000000, -0.000000000000000000, -1.000000000000000000 ) ) ;
#92 = FACE_OUTER_BOUND ( 'NONE', #385, .T. ) ;
#93 = DIRECTION ( 'NONE',  ( 0.000000000000000000, 0.000000000000000000, 1.000000000000000000 ) ) ;
#94 = EDGE_CURVE ( 'NONE', #14, #341, #300, .T. ) ;
#95 = CARTESIAN_POINT ( 'NONE',  ( 2.000000000000000000, 6.000000000000000000, 0.000000000000000000 ) ) ;
#96 = APPLICATION_PROTOCOL_DEFINITION ( 'draft international standard', 'automotive_design', 1998, #211 ) ;
#97 = DIRECTION ( 'NONE',  ( 1.000000000000000000, 0.000000000000000000, 0.000000000000000000 ) ) ;
#98 = CIRCLE ( 'NONE', #118, 0.7500000000000002220 ) ;
#99 = FACE_OUTER_BOUND ( 'NONE', #70, .T. ) ;
#100 = AXIS2_PLACEMENT_3D ( 'NONE', #238, #104, #93 ) ;
#101 = CARTESIAN_POINT ( 'NONE',  ( -0.7500000000000003331, 0.7500000000000000000, -10.00000000000000000 ) ) ;
#102 = FACE_BOUND ( 'NONE', #221, .T. ) ;
#103 = ORIENTED_EDGE ( 'NONE', *, *, #276, .F. ) ;
#104 = DIRECTION ( 'NONE',  ( -1.000000000000000000, 0.000000000000000000, 0.000000000000000000 ) ) ;
#105 = ADVANCED_FACE ( 'NONE', ( #102, #152 ), #580, .T. ) ;
#106 = ORIENTED_EDGE ( 'NONE', *, *, #376, .T. ) ;
#107 = CARTESIAN_POINT ( 'NONE',  ( -12.00000000000000000, -2.000000000000000000, 10.00000000000000000 ) ) ;
#108 = STYLED_ITEM ( 'NONE', ( #445 ), #360 ) ;
#109 = CIRCLE ( 'NONE', #178, 1.499999999999999556 ) ;
#110 = DIRECTION ( 'NONE',  ( 0.000000000000000000, -8.673617379884035472E-16, 1.000000000000000000 ) ) ;
#111 = ORIENTED_EDGE ( 'NONE', *, *, #410, .F. ) ;
#112 = CARTESIAN_POINT ( 'NONE',  ( -9.000000000000001776, -2.000000000000000000, 6.000000000000000000 ) ) ;
#113 = LINE ( 'NONE', #538, #53 ) ;
#114 = EDGE_CURVE ( 'NONE', #185, #536, #315, .T. ) ;
#115 = EDGE_LOOP ( 'NONE', ( #354 ) ) ;
#116 = CYLINDRICAL_SURFACE ( 'NONE', #120, 1.499999999999999556 ) ;
#117 = ORIENTED_EDGE ( 'NONE', *, *, #556, .F. ) ;
#118 = AXIS2_PLACEMENT_3D ( 'NONE', #95, #230, #321 ) ;
#119 = VECTOR ( 'NONE', #473, 1000.000000000000000 ) ;
#120 = AXIS2_PLACEMENT_3D ( 'NONE', #112, #301, #489 ) ;
#121 = VERTEX_POINT ( 'NONE', #288 ) ;
#122 = LINE ( 'NONE', #251, #316 ) ;
#123 = FACE_OUTER_BOUND ( 'NONE', #24, .T. ) ;
#124 = LINE ( 'NONE', #449, #408 ) ;
#125 = EDGE_LOOP ( 'NONE', ( #421, #377, #309, #194 ) ) ;
#126 = CARTESIAN_POINT ( 'NONE',  ( 2.000000000000000000, 6.000000000000000000, 0.7500000000000002220 ) ) ;
#127 = EDGE_CURVE ( 'NONE', #179, #536, #147, .T. ) ;
#128 = EDGE_LOOP ( 'NONE', ( #153, #268, #437, #103, #174, #297 ) ) ;
#129 = VECTOR ( 'NONE', #487, 1000.000000000000000 ) ;
#130 = VECTOR ( 'NONE', #64, 1000.000000000000000 ) ;
#131 = VERTEX_POINT ( 'NONE', #204 ) ;
#132 = CARTESIAN_POINT ( 'NONE',  ( 0.000000000000000000, 8.000000000000000000, 10.00000000000000000 ) ) ;
#133 = CARTESIAN_POINT ( 'NONE',  ( -9.000000000000001776, -2.000000000000000000, 6.000000000000000000 ) ) ;
#134 = EDGE_CURVE ( 'NONE', #121, #401, #2, .T. ) ;
#135 = VERTEX_POINT ( 'NONE', #590 ) ;
#136 = DIRECTION ( 'NONE',  ( -1.000000000000000000, 0.000000000000000000, -0.000000000000000000 ) ) ;
#137 = CARTESIAN_POINT ( 'NONE',  ( 0.000000000000000000, 0.000000000000000000, 0.000000000000000000 ) ) ;
#138 = DIRECTION ( 'NONE',  ( 0.000000000000000000, 1.000000000000000000, 0.000000000000000000 ) ) ;
#139 = AXIS2_PLACEMENT_3D ( 'NONE', #157, #243, #535 ) ;
#140 = AXIS2_PLACEMENT_3D ( 'NONE', #592, #201, #497 ) ;
#141 = CARTESIAN_POINT ( 'NONE',  ( 0.000000000000000000, 0.7500000000000000000, -10.00000000000000000 ) ) ;
#142 = DIRECTION ( 'NONE',  ( 0.000000000000000000, 0.000000000000000000, 1.000000000000000000 ) ) ;
#143 = DIRECTION ( 'NONE',  ( -1.000000000000000000, 0.000000000000000000, 0.000000000000000000 ) ) ;
#144 = DIRECTION ( 'NONE',  ( 0.000000000000000000, -1.000000000000000000, 0.000000000000000000 ) ) ;
#145 = CIRCLE ( 'NONE', #542, 0.7500000000000001110 ) ;
#146 = CARTESIAN_POINT ( 'NONE',  ( -12.00000000000000000, -2.000000000000000000, -7.000000000000000888 ) ) ;
#147 = LINE ( 'NONE', #593, #129 ) ;
#148 = ADVANCED_FACE ( 'NONE', ( #149 ), #51, .T. ) ;
#149 = FACE_OUTER_BOUND ( 'NONE', #171, .T. ) ;
#150 = ORIENTED_EDGE ( 'NONE', *, *, #85, .F. ) ;
#151 = FACE_OUTER_BOUND ( 'NONE', #477, .T. ) ;
#152 = FACE_OUTER_BOUND ( 'NONE', #128, .T. ) ;
#153 = ORIENTED_EDGE ( 'NONE', *, *, #299, .T. ) ;
#154 = CARTESIAN_POINT ( 'NONE',  ( -9.000000000000001776, 0.000000000000000000, 6.000000000000000000 ) ) ;
#155 = MECHANICAL_DESIGN_GEOMETRIC_PRESENTATION_REPRESENTATION (  '', ( #108 ), #480 ) ;
#156 = EDGE_CURVE ( 'NONE', #429, #56, #521, .T. ) ;
#157 = CARTESIAN_POINT ( 'NONE',  ( 0.000000000000000000, 0.7500000000000000000, 10.00000000000000000 ) ) ;
#158 = ORIENTED_EDGE ( 'NONE', *, *, #433, .T. ) ;
#159 = FACE_OUTER_BOUND ( 'NONE', #32, .T. ) ;
#160 = ORIENTED_EDGE ( 'NONE', *, *, #475, .T. ) ;
#161 = DIRECTION ( 'NONE',  ( 1.000000000000000000, 0.000000000000000000, 0.000000000000000000 ) ) ;
#162 = FACE_BOUND ( 'NONE', #526, .T. ) ;
#163 = ORIENTED_EDGE ( 'NONE', *, *, #6, .F. ) ;
#164 = DIRECTION ( 'NONE',  ( -0.000000000000000000, -0.000000000000000000, -1.000000000000000000 ) ) ;
#165 = DIRECTION ( 'NONE',  ( -0.000000000000000000, 1.000000000000000000, 0.000000000000000000 ) ) ;
#166 = CIRCLE ( 'NONE', #579, 0.7500000000000001110 ) ;
#167 = DIRECTION ( 'NONE',  ( -1.000000000000000000, -0.000000000000000000, -0.000000000000000000 ) ) ;
#168 = DIRECTION ( 'NONE',  ( -0.000000000000000000, -0.000000000000000000, -1.000000000000000000 ) ) ;
#169 = ADVANCED_FACE ( 'NONE', ( #492 ), #19, .T. ) ;
#170 = CARTESIAN_POINT ( 'NONE',  ( 0.000000000000000000, 8.000000000000000000, 10.00000000000000000 ) ) ;
#171 = EDGE_LOOP ( 'NONE', ( #602, #463, #584, #17 ) ) ;
#172 = CARTESIAN_POINT ( 'NONE',  ( 2.000000000000000000, 0.7500000000000000000, 10.00000000000000000 ) ) ;
#173 = CARTESIAN_POINT ( 'NONE',  ( 0.000000000000000000, 8.000000000000000000, -7.000000000000000888 ) ) ;
#174 = ORIENTED_EDGE ( 'NONE', *, *, #484, .T. ) ;
#175 = CARTESIAN_POINT ( 'NONE',  ( -9.000000000000001776, 0.000000000000000000, 4.500000000000000888 ) ) ;
#176 = AXIS2_PLACEMENT_3D ( 'NONE', #236, #41, #622 ) ;
#177 = EDGE_CURVE ( 'NONE', #84, #84, #611, .T. ) ;
#178 = AXIS2_PLACEMENT_3D ( 'NONE', #474, #287, #50 ) ;
#179 = VERTEX_POINT ( 'NONE', #552 ) ;
#180 = CARTESIAN_POINT ( 'NONE',  ( 0.000000000000000000, 8.000000000000000000, 7.000000000000000000 ) ) ;
#181 = CYLINDRICAL_SURFACE ( 'NONE', #242, 3.000000000000000000 ) ;
#182 = PRODUCT_CONTEXT ( 'NONE', #294, 'mechanical' ) ;
#183 = PRODUCT_DEFINITION_SHAPE ( 'NONE', 'NONE',  #527 ) ;
#184 = CYLINDRICAL_SURFACE ( 'NONE', #479, 0.7500000000000001110 ) ;
#185 = VERTEX_POINT ( 'NONE', #82 ) ;
#186 = CARTESIAN_POINT ( 'NONE',  ( -9.000000000000001776, 0.000000000000000000, 10.00000000000000000 ) ) ;
#187 = EDGE_CURVE ( 'NONE', #345, #292, #400, .T. ) ;
#188 = CARTESIAN_POINT ( 'NONE',  ( 0.000000000000000000, 6.000000000000000000, 0.000000000000000000 ) ) ;
#189 =( NAMED_UNIT ( * ) SI_UNIT ( $, .STERADIAN. ) SOLID_ANGLE_UNIT ( ) );
#190 = EDGE_CURVE ( 'NONE', #485, #185, #262, .T. ) ;
#191 = VECTOR ( 'NONE', #420, 1000.000000000000000 ) ;
#192 = VECTOR ( 'NONE', #416, 1000.000000000000000 ) ;
#193 =( LENGTH_UNIT ( ) NAMED_UNIT ( * ) SI_UNIT ( .MILLI., .METRE. ) );
#194 = ORIENTED_EDGE ( 'NONE', *, *, #331, .T. ) ;
#195 = LINE ( 'NONE', #89, #560 ) ;
#196 = ORIENTED_EDGE ( 'NONE', *, *, #370, .T. ) ;
#197 = CARTESIAN_POINT ( 'NONE',  ( 2.000000000000000000, 0.7500000000000000000, -10.00000000000000000 ) ) ;
#198 = EDGE_CURVE ( 'NONE', #78, #254, #124, .T. ) ;
#199 = PLANE ( 'NONE',  #33 ) ;
#200 = ORIENTED_EDGE ( 'NONE', *, *, #576, .F. ) ;
#201 = DIRECTION ( 'NONE',  ( 0.000000000000000000, 1.000000000000000000, 0.000000000000000000 ) ) ;
#202 = AXIS2_PLACEMENT_3D ( 'NONE', #258, #351, #206 ) ;
#203 = LINE ( 'NONE', #170, #601 ) ;
#204 = CARTESIAN_POINT ( 'NONE',  ( -0.7500000000000006661, 0.000000000000000000, -10.00000000000000000 ) ) ;
#205 = EDGE_LOOP ( 'NONE', ( #67 ) ) ;
#206 = DIRECTION ( 'NONE',  ( 0.000000000000000000, 0.000000000000000000, 1.000000000000000000 ) ) ;
#207 = DIRECTION ( 'NONE',  ( 0.000000000000000000, 0.000000000000000000, -1.000000000000000000 ) ) ;
#208 = LINE ( 'NONE', #392, #455 ) ;
#209 = EDGE_LOOP ( 'NONE', ( #20 ) ) ;
#210 = FACE_OUTER_BOUND ( 'NONE', #281, .T. ) ;
#211 = APPLICATION_CONTEXT ( 'automotive_design' ) ;
#212 = DIRECTION ( 'NONE',  ( 0.000000000000000000, 0.000000000000000000, -1.000000000000000000 ) ) ;
#213 = EDGE_CURVE ( 'NONE', #348, #429, #208, .T. ) ;
#214 = ORIENTED_EDGE ( 'NONE', *, *, #339, .T. ) ;
#215 = LINE ( 'NONE', #172, #426 ) ;
#216 = AXIS2_PLACEMENT_3D ( 'NONE', #519, #625, #97 ) ;
#217 = VECTOR ( 'NONE', #380, 1000.000000000000000 ) ;
#218 = DIRECTION ( 'NONE',  ( 0.000000000000000000, 1.000000000000000000, -0.000000000000000000 ) ) ;
#219 = ORIENTED_EDGE ( 'NONE', *, *, #442, .F. ) ;
#220 = FACE_OUTER_BOUND ( 'NONE', #115, .T. ) ;
#221 = EDGE_LOOP ( 'NONE', ( #573 ) ) ;
#222 = FACE_OUTER_BOUND ( 'NONE', #240, .T. ) ;
#223 = CARTESIAN_POINT ( 'NONE',  ( -12.00000000000000000, -2.000000000000000000, -10.00000000000000000 ) ) ;
#224 = VERTEX_POINT ( 'NONE', #173 ) ;
#225 = ADVANCED_FACE ( 'NONE', ( #597, #162, #502 ), #76, .T. ) ;
#226 = CIRCLE ( 'NONE', #425, 1.499999999999999556 ) ;
#227 = CARTESIAN_POINT ( 'NONE',  ( 2.000000000000000000, 0.7500000000000000000, 10.00000000000000000 ) ) ;
#228 = EDGE_LOOP ( 'NONE', ( #283, #569, #244, #160 ) ) ;
#229 = PRODUCT_DEFINITION_CONTEXT ( 'detailed design', #211, 'design' ) ;
#230 = DIRECTION ( 'NONE',  ( -1.000000000000000000, 0.000000000000000000, 0.000000000000000000 ) ) ;
#231 = DIRECTION ( 'NONE',  ( -0.000000000000000000, -0.000000000000000000, -1.000000000000000000 ) ) ;
#232 = FACE_OUTER_BOUND ( 'NONE', #447, .T. ) ;
#233 = DIRECTION ( 'NONE',  ( 1.000000000000000000, 0.000000000000000000, 0.000000000000000000 ) ) ;
#234 = AXIS2_PLACEMENT_3D ( 'NONE', #483, #247, #476 ) ;
#235 = PRODUCT_DEFINITION_FORMATION_WITH_SPECIFIED_SOURCE ( 'Symmetric', '', #459, .NOT_KNOWN. ) ;
#236 = CARTESIAN_POINT ( 'NONE',  ( -0.7500000000000003331, 0.7500000000000000000, -10.00000000000000000 ) ) ;
#237 = ORIENTED_EDGE ( 'NONE', *, *, #402, .F. ) ;
#238 = CARTESIAN_POINT ( 'NONE',  ( 0.000000000000000000, 5.000000000000000000, 7.000000000000000000 ) ) ;
#239 = EDGE_CURVE ( 'NONE', #509, #509, #226, .T. ) ;
#240 = EDGE_LOOP ( 'NONE', ( #471, #81, #594, #259 ) ) ;
#241 = LINE ( 'NONE', #336, #522 ) ;
#242 = AXIS2_PLACEMENT_3D ( 'NONE', #44, #144, #335 ) ;
#243 = DIRECTION ( 'NONE',  ( 0.000000000000000000, -0.000000000000000000, 1.000000000000000000 ) ) ;
#244 = ORIENTED_EDGE ( 'NONE', *, *, #23, .F. ) ;
#245 = ORIENTED_EDGE ( 'NONE', *, *, #453, .T. ) ;
#246 = DIRECTION ( 'NONE',  ( 1.000000000000000000, 0.000000000000000000, 0.000000000000000000 ) ) ;
#247 = DIRECTION ( 'NONE',  ( 0.000000000000000000, 1.000000000000000000, 0.000000000000000000 ) ) ;
#248 = EDGE_CURVE ( 'NONE', #397, #179, #326, .T. ) ;
#249 = ORIENTED_EDGE ( 'NONE', *, *, #156, .T. ) ;
#250 = DIRECTION ( 'NONE',  ( -0.000000000000000000, -0.000000000000000000, -1.000000000000000000 ) ) ;
#251 = CARTESIAN_POINT ( 'NONE',  ( -12.00000000000000000, -2.000000000000000000, 10.00000000000000000 ) ) ;
#252 = AXIS2_PLACEMENT_3D ( 'NONE', #62, #435, #302 ) ;
#253 = AXIS2_PLACEMENT_3D ( 'NONE', #154, #587, #298 ) ;
#254 = VERTEX_POINT ( 'NONE', #227 ) ;
#255 = CYLINDRICAL_SURFACE ( 'NONE', #22, 3.000000000000000000 ) ;
#256 = EDGE_CURVE ( 'NONE', #369, #78, #166, .T. ) ;
#257 = ORIENTED_EDGE ( 'NONE', *, *, #127, .F. ) ;
#258 = CARTESIAN_POINT ( 'NONE',  ( -9.000000000000001776, 0.7500000000000000000, -7.000000000000000000 ) ) ;
#259 = ORIENTED_EDGE ( 'NONE', *, *, #248, .T. ) ;
#260 = CARTESIAN_POINT ( 'NONE',  ( -9.000000000000001776, 0.7500000000000000000, -10.00000000000000000 ) ) ;
#261 = AXIS2_PLACEMENT_3D ( 'NONE', #188, #574, #142 ) ;
#262 = LINE ( 'NONE', #562, #589 ) ;
#263 = ADVANCED_FACE ( 'NONE', ( #272 ), #366, .T. ) ;
#264 = ORIENTED_EDGE ( 'NONE', *, *, #363, .F. ) ;
#265 = DIRECTION ( 'NONE',  ( -1.000000000000000000, -0.000000000000000000, -0.000000000000000000 ) ) ;
#266 = ORIENTED_EDGE ( 'NONE', *, *, #114, .T. ) ;
#267 = SURFACE_STYLE_FILL_AREA ( #461 ) ;
#268 = ORIENTED_EDGE ( 'NONE', *, *, #415, .T. ) ;
#269 = DIRECTION ( 'NONE',  ( 0.000000000000000000, 0.000000000000000000, 1.000000000000000000 ) ) ;
#270 = CIRCLE ( 'NONE', #261, 0.7500000000000002220 ) ;
#271 = VECTOR ( 'NONE', #372, 1000.000000000000000 ) ;
#272 = FACE_OUTER_BOUND ( 'NONE', #228, .T. ) ;
#273 = ORIENTED_EDGE ( 'NONE', *, *, #114, .F. ) ;
#274 = CYLINDRICAL_SURFACE ( 'NONE', #436, 1.499999999999999556 ) ;
#275 = CARTESIAN_POINT ( 'NONE',  ( -0.7500000000000008882, -2.000000000000000000, 10.00000000000000000 ) ) ;
#276 = EDGE_CURVE ( 'NONE', #78, #14, #462, .T. ) ;
#277 = UNCERTAINTY_MEASURE_WITH_UNIT (LENGTH_MEASURE( 1.000000000000000082E-05 ), #193, 'distance_accuracy_value', 'NONE');
#278 = DIRECTION ( 'NONE',  ( -1.000000000000000000, 0.000000000000000000, 0.000000000000000000 ) ) ;
#279 = PLANE ( 'NONE',  #176 ) ;
#280 = CARTESIAN_POINT ( 'NONE',  ( 0.000000000000000000, 8.000000000000000000, 7.000000000000000000 ) ) ;
#281 = EDGE_LOOP ( 'NONE', ( #605, #549, #117, #214 ) ) ;
#282 = LINE ( 'NONE', #623, #271 ) ;
#283 = ORIENTED_EDGE ( 'NONE', *, *, #410, .T. ) ;
#284 = EDGE_CURVE ( 'NONE', #254, #345, #61, .T. ) ;
#285 = PLANE ( 'NONE',  #571 ) ;
#286 = ORIENTED_EDGE ( 'NONE', *, *, #6, .T. ) ;
#287 = DIRECTION ( 'NONE',  ( 0.000000000000000000, 1.000000000000000000, 0.000000000000000000 ) ) ;
#288 = CARTESIAN_POINT ( 'NONE',  ( -12.00000000000000000, 0.000000000000000000, 7.000000000000000000 ) ) ;
#289 = ORIENTED_EDGE ( 'NONE', *, *, #187, .T. ) ;
#290 = VECTOR ( 'NONE', #80, 1000.000000000000000 ) ;
#291 = CIRCLE ( 'NONE', #253, 1.499999999999999556 ) ;
#292 = VERTEX_POINT ( 'NONE', #490 ) ;
#293 = CARTESIAN_POINT ( 'NONE',  ( -0.7500000000000003331, 5.000000000000000000, -7.000000000000000000 ) ) ;
#294 = APPLICATION_CONTEXT ( 'automotive_design' ) ;
#295 = ADVANCED_FACE ( 'NONE', ( #486 ), #434, .F. ) ;
#296 = CARTESIAN_POINT ( 'NONE',  ( 0.000000000000000000, 0.000000000000000000, 10.00000000000000000 ) ) ;
#297 = ORIENTED_EDGE ( 'NONE', *, *, #388, .T. ) ;
#298 = DIRECTION ( 'NONE',  ( 0.000000000000000000, 0.000000000000000000, -1.000000000000000000 ) ) ;
#299 = EDGE_CURVE ( 'NONE', #397, #224, #203, .T. ) ;
#300 = LINE ( 'NONE', #583, #396 ) ;
#301 = DIRECTION ( 'NONE',  ( -0.000000000000000000, 1.000000000000000000, -0.000000000000000000 ) ) ;
#302 = DIRECTION ( 'NONE',  ( 1.156482317317871331E-15, 0.000000000000000000, 1.000000000000000000 ) ) ;
#303 = ORIENTED_EDGE ( 'NONE', *, *, #239, .T. ) ;
#304 = FACE_OUTER_BOUND ( 'NONE', #619, .T. ) ;
#305 = AXIS2_PLACEMENT_3D ( 'NONE', #515, #91, #278 ) ;
#306 = ADVANCED_FACE ( 'NONE', ( #391, #123 ), #199, .F. ) ;
#307 = CARTESIAN_POINT ( 'NONE',  ( 0.000000000000000000, 5.000000000000000000, 7.000000000000000000 ) ) ;
#308 = ORIENTED_EDGE ( 'NONE', *, *, #458, .T. ) ;
#309 = ORIENTED_EDGE ( 'NONE', *, *, #518, .T. ) ;
#310 = VERTEX_POINT ( 'NONE', #610 ) ;
#311 = DIRECTION ( 'NONE',  ( -0.000000000000000000, -0.000000000000000000, -1.000000000000000000 ) ) ;
#312 = EDGE_CURVE ( 'NONE', #369, #131, #113, .T. ) ;
#313 = ORIENTED_EDGE ( 'NONE', *, *, #256, .T. ) ;
#314 = DIRECTION ( 'NONE',  ( -1.000000000000000000, 0.000000000000000000, -0.000000000000000000 ) ) ;
#315 = CIRCLE ( 'NONE', #457, 3.000000000000000000 ) ;
#316 = VECTOR ( 'NONE', #164, 1000.000000000000000 ) ;
#317 = ORIENTED_EDGE ( 'NONE', *, *, #177, .F. ) ;
#318 = CARTESIAN_POINT ( 'NONE',  ( -0.7500000000000008882, 5.000000000000000000, 10.00000000000000000 ) ) ;
#319 = EDGE_LOOP ( 'NONE', ( #431 ) ) ;
#320 = DIRECTION ( 'NONE',  ( -0.000000000000000000, -0.000000000000000000, 1.000000000000000000 ) ) ;
#321 = DIRECTION ( 'NONE',  ( 0.000000000000000000, 0.000000000000000000, 1.000000000000000000 ) ) ;
#322 = DIRECTION ( 'NONE',  ( 1.000000000000000000, 0.000000000000000000, 0.000000000000000000 ) ) ;
#323 = ADVANCED_FACE ( 'NONE', ( #505 ), #184, .F. ) ;
#324 = AXIS2_PLACEMENT_3D ( 'NONE', #541, #207, #12 ) ;
#325 = AXIS2_PLACEMENT_3D ( 'NONE', #30, #581, #424 ) ;
#326 = LINE ( 'NONE', #180, #45 ) ;
#327 = ORIENTED_EDGE ( 'NONE', *, *, #475, .F. ) ;
#328 = CARTESIAN_POINT ( 'NONE',  ( -0.7500000000000006661, 0.000000000000000000, 10.00000000000000000 ) ) ;
#329 = LINE ( 'NONE', #516, #191 ) ;
#330 = LINE ( 'NONE', #478, #192 ) ;
#331 = EDGE_CURVE ( 'NONE', #350, #369, #555, .T. ) ;
#332 = CARTESIAN_POINT ( 'NONE',  ( 0.000000000000000000, 0.7500000000000000000, 10.00000000000000000 ) ) ;
#333 = DIRECTION ( 'NONE',  ( 0.000000000000000000, 0.000000000000000000, 1.000000000000000000 ) ) ;
#334 = CIRCLE ( 'NONE', #54, 2.750000000000000000 ) ;
#335 = DIRECTION ( 'NONE',  ( 0.000000000000000000, 0.000000000000000000, -1.000000000000000000 ) ) ;
#336 = CARTESIAN_POINT ( 'NONE',  ( -12.00000000000000000, 0.000000000000000000, 10.00000000000000000 ) ) ;
#337 = EDGE_LOOP ( 'NONE', ( #158 ) ) ;
#338 = CARTESIAN_POINT ( 'NONE',  ( -9.000000000000001776, 0.000000000000000000, -10.00000000000000000 ) ) ;
#339 = EDGE_CURVE ( 'NONE', #379, #121, #568, .T. ) ;
#340 = VECTOR ( 'NONE', #398, 1000.000000000000000 ) ;
#341 = VERTEX_POINT ( 'NONE', #37 ) ;
#342 = DIRECTION ( 'NONE',  ( -1.000000000000000000, 0.000000000000000000, 0.000000000000000000 ) ) ;
#343 = DIRECTION ( 'NONE',  ( -0.000000000000000000, -0.000000000000000000, -1.000000000000000000 ) ) ;
#344 = CARTESIAN_POINT ( 'NONE',  ( 2.000000000000000000, 5.000000000000000000, -7.000000000000000000 ) ) ;
#345 = VERTEX_POINT ( 'NONE', #514 ) ;
#346 = PLANE ( 'NONE',  #418 ) ;
#347 = EDGE_CURVE ( 'NONE', #56, #135, #551, .T. ) ;
#348 = VERTEX_POINT ( 'NONE', #90 ) ;
#349 = LINE ( 'NONE', #8, #217 ) ;
#350 = VERTEX_POINT ( 'NONE', #275 ) ;
#351 = DIRECTION ( 'NONE',  ( 0.000000000000000000, 1.000000000000000000, 0.000000000000000000 ) ) ;
#352 = EDGE_LOOP ( 'NONE', ( #245 ) ) ;
#353 = VERTEX_POINT ( 'NONE', #126 ) ;
#354 = ORIENTED_EDGE ( 'NONE', *, *, #239, .F. ) ;
#355 = DIRECTION ( 'NONE',  ( 0.000000000000000000, 1.000000000000000000, 0.000000000000000000 ) ) ;
#356 = EDGE_LOOP ( 'NONE', ( #59 ) ) ;
#357 = DIRECTION ( 'NONE',  ( -0.000000000000000000, 1.000000000000000000, -0.000000000000000000 ) ) ;
#358 = CARTESIAN_POINT ( 'NONE',  ( -12.00000000000000000, 0.000000000000000000, 7.000000000000000000 ) ) ;
#359 = CIRCLE ( 'NONE', #216, 2.750000000000000000 ) ;
#360 = MANIFOLD_SOLID_BREP ( 'Cut-Extrude2', #417 ) ;
#361 = EDGE_LOOP ( 'NONE', ( #496, #249, #508, #327, #28, #407 ) ) ;
#362 = APPLICATION_PROTOCOL_DEFINITION ( 'draft international standard', 'automotive_design', 1998, #294 ) ;
#363 = EDGE_CURVE ( 'NONE', #414, #379, #544, .T. ) ;
#364 = ORIENTED_EDGE ( 'NONE', *, *, #213, .F. ) ;
#365 =( NAMED_UNIT ( * ) PLANE_ANGLE_UNIT ( ) SI_UNIT ( $, .RADIAN. ) );
#366 = CYLINDRICAL_SURFACE ( 'NONE', #305, 2.750000000000000000 ) ;
#367 = EDGE_LOOP ( 'NONE', ( #7, #364, #237, #567 ) ) ;
#368 = COLOUR_RGB ( '',0.7921568627450980005, 0.8196078431372548767, 0.9333333333333333481 ) ;
#369 = VERTEX_POINT ( 'NONE', #328 ) ;
#370 = EDGE_CURVE ( 'NONE', #401, #369, #241, .T. ) ;
#371 = ORIENTED_EDGE ( 'NONE', *, *, #55, .F. ) ;
#372 = DIRECTION ( 'NONE',  ( -0.000000000000000000, -0.000000000000000000, -1.000000000000000000 ) ) ;
#373 = CARTESIAN_POINT ( 'NONE',  ( 0.000000000000000000, 5.000000000000000000, -7.000000000000000000 ) ) ;
#374 = DIRECTION ( 'NONE',  ( -1.000000000000000000, 0.000000000000000000, 0.000000000000000000 ) ) ;
#375 = DIRECTION ( 'NONE',  ( 1.000000000000000000, 0.000000000000000000, -0.000000000000000000 ) ) ;
#376 = EDGE_CURVE ( 'NONE', #131, #135, #330, .T. ) ;
#377 = ORIENTED_EDGE ( 'NONE', *, *, #16, .T. ) ;
#378 = FACE_OUTER_BOUND ( 'NONE', #352, .T. ) ;
#379 = VERTEX_POINT ( 'NONE', #520 ) ;
#380 = DIRECTION ( 'NONE',  ( 1.000000000000000000, -0.000000000000000000, 0.000000000000000000 ) ) ;
#381 = CARTESIAN_POINT ( 'NONE',  ( 2.000000000000000000, 0.000000000000000000, 10.00000000000000000 ) ) ;
#382 = AXIS2_PLACEMENT_3D ( 'NONE', #423, #466, #136 ) ;
#383 = DIRECTION ( 'NONE',  ( 0.000000000000000000, 0.000000000000000000, 1.000000000000000000 ) ) ;
#384 = AXIS2_PLACEMENT_3D ( 'NONE', #1, #375, #537 ) ;
#385 = EDGE_LOOP ( 'NONE', ( #52, #308, #612, #609 ) ) ;
#386 = DIRECTION ( 'NONE',  ( 0.000000000000000000, 0.000000000000000000, -1.000000000000000000 ) ) ;
#387 = DIRECTION ( 'NONE',  ( -1.000000000000000000, -0.000000000000000000, 0.000000000000000000 ) ) ;
#388 = EDGE_CURVE ( 'NONE', #292, #397, #409, .T. ) ;
#389 = ORIENTED_EDGE ( 'NONE', *, *, #190, .T. ) ;
#390 = DIRECTION ( 'NONE',  ( 1.000000000000000000, -0.000000000000000000, 0.000000000000000000 ) ) ;
#391 = FACE_BOUND ( 'NONE', #205, .T. ) ;
#392 = CARTESIAN_POINT ( 'NONE',  ( -12.00000000000000000, -2.000000000000000000, -7.000000000000000888 ) ) ;
#393 = EDGE_LOOP ( 'NONE', ( #371 ) ) ;
#394 = DIRECTION ( 'NONE',  ( 0.000000000000000000, 0.000000000000000000, 1.000000000000000000 ) ) ;
#395 = DIRECTION ( 'NONE',  ( 1.000000000000000000, 0.000000000000000000, 0.000000000000000000 ) ) ;
#396 = VECTOR ( 'NONE', #5, 1000.000000000000000 ) ;
#397 = VERTEX_POINT ( 'NONE', #280 ) ;
#398 = DIRECTION ( 'NONE',  ( 0.000000000000000000, 1.000000000000000000, 0.000000000000000000 ) ) ;
#399 = CIRCLE ( 'NONE', #469, 3.000000000000000000 ) ;
#400 = LINE ( 'NONE', #318, #66 ) ;
#401 = VERTEX_POINT ( 'NONE', #186 ) ;
#402 = EDGE_CURVE ( 'NONE', #507, #348, #543, .T. ) ;
#403 = DIRECTION ( 'NONE',  ( 0.000000000000000000, -0.000000000000000000, 1.000000000000000000 ) ) ;
#404 = ORIENTED_EDGE ( 'NONE', *, *, #442, .T. ) ;
#405 = CARTESIAN_POINT ( 'NONE',  ( -9.000000000000001776, -2.000000000000000000, -4.500000000000000888 ) ) ;
#406 = DIRECTION ( 'NONE',  ( 1.000000000000000000, 0.000000000000000000, 0.000000000000000000 ) ) ;
#407 = ORIENTED_EDGE ( 'NONE', *, *, #363, .T. ) ;
#408 = VECTOR ( 'NONE', #31, 1000.000000000000000 ) ;
#409 = CIRCLE ( 'NONE', #100, 3.000000000000000000 ) ;
#410 = EDGE_CURVE ( 'NONE', #135, #485, #334, .T. ) ;
#411 = CYLINDRICAL_SURFACE ( 'NONE', #621, 0.7500000000000002220 ) ;
#412 = EDGE_CURVE ( 'NONE', #121, #348, #282, .T. ) ;
#413 = CARTESIAN_POINT ( 'NONE',  ( -9.000000000000001776, -2.000000000000000000, -10.00000000000000000 ) ) ;
#414 = VERTEX_POINT ( 'NONE', #575 ) ;
#415 = EDGE_CURVE ( 'NONE', #224, #341, #399, .T. ) ;
#416 = DIRECTION ( 'NONE',  ( -1.084202172485504434E-16, -1.000000000000000000, 0.000000000000000000 ) ) ;
#417 = CLOSED_SHELL ( 'NONE', ( #148, #498, #427, #38, #306, #624, #105, #323, #225, #523, #506, #263, #295, #65, #572, #465, #169, #46, #547, #598, #607 ) ) ;
#418 = AXIS2_PLACEMENT_3D ( 'NONE', #495, #482, #161 ) ;
#419 = DIRECTION ( 'NONE',  ( 0.000000000000000000, 0.000000000000000000, 1.000000000000000000 ) ) ;
#420 = DIRECTION ( 'NONE',  ( 0.000000000000000000, -1.000000000000000000, -0.000000000000000000 ) ) ;
#421 = ORIENTED_EDGE ( 'NONE', *, *, #370, .F. ) ;
#422 = DIRECTION ( 'NONE',  ( 0.000000000000000000, 0.000000000000000000, 1.000000000000000000 ) ) ;
#423 = CARTESIAN_POINT ( 'NONE',  ( 2.000000000000000000, 0.7500000000000000000, -10.00000000000000000 ) ) ;
#424 = DIRECTION ( 'NONE',  ( 0.000000000000000000, 0.000000000000000000, 1.000000000000000000 ) ) ;
#425 = AXIS2_PLACEMENT_3D ( 'NONE', #608, #355, #419 ) ;
#426 = VECTOR ( 'NONE', #168, 1000.000000000000000 ) ;
#427 = ADVANCED_FACE ( 'NONE', ( #99 ), #285, .T. ) ;
#428 = ORIENTED_EDGE ( 'NONE', *, *, #339, .F. ) ;
#429 = VERTEX_POINT ( 'NONE', #146 ) ;
#430 = PLANE ( 'NONE',  #3 ) ;
#431 = ORIENTED_EDGE ( 'NONE', *, *, #77, .T. ) ;
#432 = LINE ( 'NONE', #60, #75 ) ;
#433 = EDGE_CURVE ( 'NONE', #310, #310, #109, .T. ) ;
#434 = PLANE ( 'NONE',  #324 ) ;
#435 = DIRECTION ( 'NONE',  ( -0.000000000000000000, -1.000000000000000000, -0.000000000000000000 ) ) ;
#436 = AXIS2_PLACEMENT_3D ( 'NONE', #564, #357, #269 ) ;
#437 = ORIENTED_EDGE ( 'NONE', *, *, #94, .F. ) ;
#438 = FACE_OUTER_BOUND ( 'NONE', #367, .T. ) ;
#439 = ORIENTED_EDGE ( 'NONE', *, *, #415, .F. ) ;
#440 = PLANE ( 'NONE',  #140 ) ;
#441 = ORIENTED_EDGE ( 'NONE', *, *, #187, .F. ) ;
#442 = EDGE_CURVE ( 'NONE', #179, #345, #47, .T. ) ;
#443 = ORIENTED_EDGE ( 'NONE', *, *, #588, .T. ) ;
#444 = VERTEX_POINT ( 'NONE', #175 ) ;
#445 = PRESENTATION_STYLE_ASSIGNMENT (( #452 ) ) ;
#446 = CARTESIAN_POINT ( 'NONE',  ( -12.00000000000000000, 0.000000000000000000, 10.00000000000000000 ) ) ;
#447 = EDGE_LOOP ( 'NONE', ( #529, #443, #286, #106 ) ) ;
#448 = CARTESIAN_POINT ( 'NONE',  ( 0.000000000000000000, 6.000000000000000000, 0.7500000000000002220 ) ) ;
#449 = CARTESIAN_POINT ( 'NONE',  ( 0.000000000000000000, 0.7500000000000000000, 10.00000000000000000 ) ) ;
#450 = ORIENTED_EDGE ( 'NONE', *, *, #453, .F. ) ;
#451 = VERTEX_POINT ( 'NONE', #448 ) ;
#452 = SURFACE_STYLE_USAGE ( .BOTH. , #501 ) ;
#453 = EDGE_CURVE ( 'NONE', #444, #444, #291, .T. ) ;
#454 = ORIENTED_EDGE ( 'NONE', *, *, #134, .F. ) ;
#455 = VECTOR ( 'NONE', #604, 1000.000000000000000 ) ;
#456 = CARTESIAN_POINT ( 'NONE',  ( -0.7500000000000008882, -2.000000000000000000, 10.00000000000000000 ) ) ;
#457 = AXIS2_PLACEMENT_3D ( 'NONE', #344, #528, #110 ) ;
#458 = EDGE_CURVE ( 'NONE', #341, #185, #349, .T. ) ;
#459 = PRODUCT ( 'Part7_GR', 'Part7_GR', '', ( #182 ) ) ;
#460 = CARTESIAN_POINT ( 'NONE',  ( -12.00000000000000000, 0.000000000000000000, -10.00000000000000000 ) ) ;
#461 = FILL_AREA_STYLE ('',( #561 ) ) ;
#462 = LINE ( 'NONE', #40, #86 ) ;
#463 = ORIENTED_EDGE ( 'NONE', *, *, #256, .F. ) ;
#464 = DIRECTION ( 'NONE',  ( 0.000000000000000000, 1.000000000000000000, 0.000000000000000000 ) ) ;
#465 = ADVANCED_FACE ( 'NONE', ( #304 ), #255, .T. ) ;
#466 = DIRECTION ( 'NONE',  ( 0.000000000000000000, 0.000000000000000000, -1.000000000000000000 ) ) ;
#467 = CARTESIAN_POINT ( 'NONE',  ( -9.000000000000001776, 0.000000000000000000, -7.000000000000000000 ) ) ;
#468 = AXIS2_PLACEMENT_3D ( 'NONE', #307, #395, #212 ) ;
#469 = AXIS2_PLACEMENT_3D ( 'NONE', #373, #143, #333 ) ;
#470 = CARTESIAN_POINT ( 'NONE',  ( -0.7500000000000003331, 0.7500000000000000000, 10.00000000000000000 ) ) ;
#471 = ORIENTED_EDGE ( 'NONE', *, *, #127, .T. ) ;
#472 = CARTESIAN_POINT ( 'NONE',  ( -0.7500000000000006661, 0.000000000000000000, -10.00000000000000000 ) ) ;
#473 = DIRECTION ( 'NONE',  ( 1.000000000000000000, 0.000000000000000000, 0.000000000000000000 ) ) ;
#474 = CARTESIAN_POINT ( 'NONE',  ( -9.000000000000001776, 0.000000000000000000, -6.000000000000000000 ) ) ;
#475 = EDGE_CURVE ( 'NONE', #350, #135, #432, .T. ) ;
#476 = DIRECTION ( 'NONE',  ( 0.000000000000000000, 0.000000000000000000, 1.000000000000000000 ) ) ;
#477 = EDGE_LOOP ( 'NONE', ( #558, #289, #49, #586 ) ) ;
#478 = CARTESIAN_POINT ( 'NONE',  ( -0.7500000000000006661, 0.000000000000000000, -10.00000000000000000 ) ) ;
#479 = AXIS2_PLACEMENT_3D ( 'NONE', #510, #311, #26 ) ;
#480 =( GEOMETRIC_REPRESENTATION_CONTEXT ( 3 ) GLOBAL_UNCERTAINTY_ASSIGNED_CONTEXT ( ( #277 ) ) GLOBAL_UNIT_ASSIGNED_CONTEXT ( ( #193, #570, #189 ) ) REPRESENTATION_CONTEXT ( 'NONE', 'WORKASPACE' ) );
#481 = ORIENTED_EDGE ( 'NONE', *, *, #388, .F. ) ;
#482 = DIRECTION ( 'NONE',  ( 0.000000000000000000, -0.000000000000000000, 1.000000000000000000 ) ) ;
#483 = CARTESIAN_POINT ( 'NONE',  ( -9.000000000000001776, 0.000000000000000000, 7.000000000000000000 ) ) ;
#484 = EDGE_CURVE ( 'NONE', #78, #292, #10, .T. ) ;
#485 = VERTEX_POINT ( 'NONE', #595 ) ;
#486 = FACE_OUTER_BOUND ( 'NONE', #125, .T. ) ;
#487 = DIRECTION ( 'NONE',  ( -0.000000000000000000, -0.000000000000000000, -1.000000000000000000 ) ) ;
#488 = EDGE_LOOP ( 'NONE', ( #303 ) ) ;
#489 = DIRECTION ( 'NONE',  ( 0.000000000000000000, 0.000000000000000000, 1.000000000000000000 ) ) ;
#490 = CARTESIAN_POINT ( 'NONE',  ( 0.000000000000000000, 5.000000000000000000, 10.00000000000000000 ) ) ;
#491 = AXIS2_PLACEMENT_3D ( 'NONE', #446, #27, #403 ) ;
#492 = FACE_OUTER_BOUND ( 'NONE', #591, .T. ) ;
#493 = VECTOR ( 'NONE', #246, 1000.000000000000000 ) ;
#494 = EDGE_LOOP ( 'NONE', ( #150, #83, #313, #599 ) ) ;
#495 = CARTESIAN_POINT ( 'NONE',  ( -0.7500000000000008882, -2.000000000000000000, 10.00000000000000000 ) ) ;
#496 = ORIENTED_EDGE ( 'NONE', *, *, #556, .T. ) ;
#497 = DIRECTION ( 'NONE',  ( 0.000000000000000000, -0.000000000000000000, 1.000000000000000000 ) ) ;
#498 = ADVANCED_FACE ( 'NONE', ( #151 ), #346, .T. ) ;
#499 = ORIENTED_EDGE ( 'NONE', *, *, #458, .F. ) ;
#500 =( LENGTH_UNIT ( ) NAMED_UNIT ( * ) SI_UNIT ( .MILLI., .METRE. ) );
#501 = SURFACE_SIDE_STYLE ('',( #267 ) ) ;
#502 = FACE_OUTER_BOUND ( 'NONE', #9, .T. ) ;
#503 = ORIENTED_EDGE ( 'NONE', *, *, #16, .F. ) ;
#504 = AXIS2_PLACEMENT_3D ( 'NONE', #137, #613, #322 ) ;
#505 = FACE_OUTER_BOUND ( 'NONE', #494, .T. ) ;
#506 = ADVANCED_FACE ( 'NONE', ( #68, #57, #540 ), #440, .F. ) ;
#507 = VERTEX_POINT ( 'NONE', #338 ) ;
#508 = ORIENTED_EDGE ( 'NONE', *, *, #347, .T. ) ;
#509 = VERTEX_POINT ( 'NONE', #405 ) ;
#510 = CARTESIAN_POINT ( 'NONE',  ( -0.7500000000000003331, 0.7500000000000000000, 10.00000000000000000 ) ) ;
#511 = DIRECTION ( 'NONE',  ( -1.000000000000000000, 0.000000000000000000, 0.000000000000000000 ) ) ;
#512 = PLANE ( 'NONE',  #382 ) ;
#513 = VECTOR ( 'NONE', #165, 1000.000000000000000 ) ;
#514 = CARTESIAN_POINT ( 'NONE',  ( 2.000000000000000000, 5.000000000000000000, 10.00000000000000000 ) ) ;
#515 = CARTESIAN_POINT ( 'NONE',  ( -0.7500000000000003331, 0.7500000000000000000, 10.00000000000000000 ) ) ;
#516 = CARTESIAN_POINT ( 'NONE',  ( -9.000000000000001776, -2.000000000000000000, 10.00000000000000000 ) ) ;
#517 = DIRECTION ( 'NONE',  ( 1.000000000000000000, 0.000000000000000000, 0.000000000000000000 ) ) ;
#518 = EDGE_CURVE ( 'NONE', #414, #350, #18, .T. ) ;
#519 = CARTESIAN_POINT ( 'NONE',  ( -0.7500000000000003331, 0.7500000000000000000, 10.00000000000000000 ) ) ;
#520 = CARTESIAN_POINT ( 'NONE',  ( -12.00000000000000000, -2.000000000000000000, 7.000000000000000000 ) ) ;
#521 = CIRCLE ( 'NONE', #252, 3.000000000000000000 ) ;
#522 = VECTOR ( 'NONE', #517, 1000.000000000000000 ) ;
#523 = ADVANCED_FACE ( 'NONE', ( #210 ), #430, .T. ) ;
#524 = DIRECTION ( 'NONE',  ( 0.000000000000000000, 0.000000000000000000, -1.000000000000000000 ) ) ;
#525 = DIRECTION ( 'NONE',  ( -0.000000000000000000, -0.000000000000000000, 1.000000000000000000 ) ) ;
#526 = EDGE_LOOP ( 'NONE', ( #450 ) ) ;
#527 = PRODUCT_DEFINITION ( 'General', '', #235, #229 ) ;
#528 = DIRECTION ( 'NONE',  ( 1.000000000000000000, 0.000000000000000000, -0.000000000000000000 ) ) ;
#529 = ORIENTED_EDGE ( 'NONE', *, *, #347, .F. ) ;
#530 = CARTESIAN_POINT ( 'NONE',  ( -12.00000000000000000, -2.000000000000000000, 10.00000000000000000 ) ) ;
#531 = PRESENTATION_LAYER_ASSIGNMENT (  '', '', ( #108 ) ) ;
#532 = EDGE_CURVE ( 'NONE', #485, #14, #600, .T. ) ;
#533 =( GEOMETRIC_REPRESENTATION_CONTEXT ( 3 ) GLOBAL_UNCERTAINTY_ASSIGNED_CONTEXT ( ( #582 ) ) GLOBAL_UNIT_ASSIGNED_CONTEXT ( ( #500, #365, #25 ) ) REPRESENTATION_CONTEXT ( 'NONE', 'WORKASPACE' ) );
#534 = CARTESIAN_POINT ( 'NONE',  ( 2.000000000000000000, 8.000000000000000000, -7.000000000000000888 ) ) ;
#535 = DIRECTION ( 'NONE',  ( 1.000000000000000000, 0.000000000000000000, 0.000000000000000000 ) ) ;
#536 = VERTEX_POINT ( 'NONE', #534 ) ;
#537 = DIRECTION ( 'NONE',  ( 0.000000000000000000, 0.000000000000000000, 1.000000000000000000 ) ) ;
#538 = CARTESIAN_POINT ( 'NONE',  ( -0.7500000000000006661, 0.000000000000000000, 10.00000000000000000 ) ) ;
#539 = ORIENTED_EDGE ( 'NONE', *, *, #402, .T. ) ;
#540 = FACE_OUTER_BOUND ( 'NONE', #361, .T. ) ;
#541 = CARTESIAN_POINT ( 'NONE',  ( -0.7500000000000003331, 0.7500000000000000000, 10.00000000000000000 ) ) ;
#542 = AXIS2_PLACEMENT_3D ( 'NONE', #48, #525, #585 ) ;
#543 = CIRCLE ( 'NONE', #87, 3.000000000000000000 ) ;
#544 = CIRCLE ( 'NONE', #325, 3.000000000000000000 ) ;
#545 = ORIENTED_EDGE ( 'NONE', *, *, #134, .T. ) ;
#546 = DIRECTION ( 'NONE',  ( -1.000000000000000000, 0.000000000000000000, 0.000000000000000000 ) ) ;
#547 = ADVANCED_FACE ( 'NONE', ( #159, #378 ), #116, .F. ) ;
#548 = DIRECTION ( 'NONE',  ( -0.000000000000000000, 1.000000000000000000, 0.000000000000000000 ) ) ;
#549 = ORIENTED_EDGE ( 'NONE', *, *, #213, .T. ) ;
#550 = FACE_OUTER_BOUND ( 'NONE', #337, .T. ) ;
#551 = LINE ( 'NONE', #223, #21 ) ;
#552 = CARTESIAN_POINT ( 'NONE',  ( 2.000000000000000000, 8.000000000000000000, 7.000000000000000000 ) ) ;
#553 = ORIENTED_EDGE ( 'NONE', *, *, #248, .F. ) ;
#554 = PLANE ( 'NONE',  #36 ) ;
#555 = LINE ( 'NONE', #456, #290 ) ;
#556 = EDGE_CURVE ( 'NONE', #379, #429, #122, .T. ) ;
#557 = AXIS2_PLACEMENT_3D ( 'NONE', #133, #218, #69 ) ;
#558 = ORIENTED_EDGE ( 'NONE', *, *, #284, .T. ) ;
#559 = DIRECTION ( 'NONE',  ( 0.000000000000000000, 0.000000000000000000, 1.000000000000000000 ) ) ;
#560 = VECTOR ( 'NONE', #314, 1000.000000000000000 ) ;
#561 = FILL_AREA_STYLE_COLOUR ( '', #368 ) ;
#562 = CARTESIAN_POINT ( 'NONE',  ( 2.000000000000000000, 0.000000000000000000, -10.00000000000000000 ) ) ;
#563 = ORIENTED_EDGE ( 'NONE', *, *, #85, .T. ) ;
#564 = CARTESIAN_POINT ( 'NONE',  ( -9.000000000000001776, -2.000000000000000000, -6.000000000000000000 ) ) ;
#565 = DIRECTION ( 'NONE',  ( -0.000000000000000000, -0.000000000000000000, -1.000000000000000000 ) ) ;
#566 = DIRECTION ( 'NONE',  ( 1.000000000000000000, 0.000000000000000000, 0.000000000000000000 ) ) ;
#567 = ORIENTED_EDGE ( 'NONE', *, *, #588, .F. ) ;
#568 = LINE ( 'NONE', #358, #620 ) ;
#569 = ORIENTED_EDGE ( 'NONE', *, *, #617, .F. ) ;
#570 =( NAMED_UNIT ( * ) PLANE_ANGLE_UNIT ( ) SI_UNIT ( $, .RADIAN. ) );
#571 = AXIS2_PLACEMENT_3D ( 'NONE', #472, #524, #578 ) ;
#572 = ADVANCED_FACE ( 'NONE', ( #438 ), #15, .T. ) ;
#573 = ORIENTED_EDGE ( 'NONE', *, *, #77, .F. ) ;
#574 = DIRECTION ( 'NONE',  ( -1.000000000000000000, 0.000000000000000000, 0.000000000000000000 ) ) ;
#575 = CARTESIAN_POINT ( 'NONE',  ( -9.000000000000001776, -2.000000000000000000, 10.00000000000000000 ) ) ;
#576 = EDGE_CURVE ( 'NONE', #536, #224, #195, .T. ) ;
#577 = LINE ( 'NONE', #460, #119 ) ;
#578 = DIRECTION ( 'NONE',  ( -1.000000000000000000, 0.000000000000000000, -0.000000000000000000 ) ) ;
#579 = AXIS2_PLACEMENT_3D ( 'NONE', #470, #320, #511 ) ;
#580 = PLANE ( 'NONE',  #13 ) ;
#581 = DIRECTION ( 'NONE',  ( -0.000000000000000000, -1.000000000000000000, -0.000000000000000000 ) ) ;
#582 = UNCERTAINTY_MEASURE_WITH_UNIT (LENGTH_MEASURE( 1.000000000000000082E-05 ), #500, 'distance_accuracy_value', 'NONE');
#583 = CARTESIAN_POINT ( 'NONE',  ( 0.000000000000000000, 0.000000000000000000, -10.00000000000000000 ) ) ;
#584 = ORIENTED_EDGE ( 'NONE', *, *, #331, .F. ) ;
#585 = DIRECTION ( 'NONE',  ( -1.000000000000000000, 0.000000000000000000, 0.000000000000000000 ) ) ;
#586 = ORIENTED_EDGE ( 'NONE', *, *, #198, .T. ) ;
#587 = DIRECTION ( 'NONE',  ( 0.000000000000000000, 1.000000000000000000, -0.000000000000000000 ) ) ;
#588 = EDGE_CURVE ( 'NONE', #56, #507, #79, .T. ) ;
#589 = VECTOR ( 'NONE', #548, 1000.000000000000000 ) ;
#590 = CARTESIAN_POINT ( 'NONE',  ( -0.7500000000000008882, -2.000000000000000000, -10.00000000000000000 ) ) ;
#591 = EDGE_LOOP ( 'NONE', ( #481, #441, #219, #553 ) ) ;
#592 = CARTESIAN_POINT ( 'NONE',  ( -12.00000000000000000, -2.000000000000000000, 10.00000000000000000 ) ) ;
#593 = CARTESIAN_POINT ( 'NONE',  ( 2.000000000000000000, 8.000000000000000000, 10.00000000000000000 ) ) ;
#594 = ORIENTED_EDGE ( 'NONE', *, *, #299, .F. ) ;
#595 = CARTESIAN_POINT ( 'NONE',  ( 2.000000000000000000, 0.7500000000000000000, -10.00000000000000000 ) ) ;
#596 = CARTESIAN_POINT ( 'NONE',  ( 2.000000000000000000, 0.000000000000000000, 10.00000000000000000 ) ) ;
#597 = FACE_BOUND ( 'NONE', #356, .T. ) ;
#598 = ADVANCED_FACE ( 'NONE', ( #220, #550 ), #274, .F. ) ;
#599 = ORIENTED_EDGE ( 'NONE', *, *, #276, .T. ) ;
#600 = LINE ( 'NONE', #197, #614 ) ;
#601 = VECTOR ( 'NONE', #343, 1000.000000000000000 ) ;
#602 = ORIENTED_EDGE ( 'NONE', *, *, #198, .F. ) ;
#603 = FACE_OUTER_BOUND ( 'NONE', #393, .T. ) ;
#604 = DIRECTION ( 'NONE',  ( -0.000000000000000000, -1.000000000000000000, -0.000000000000000000 ) ) ;
#605 = ORIENTED_EDGE ( 'NONE', *, *, #412, .T. ) ;
#606 = CARTESIAN_POINT ( 'NONE',  ( 2.000000000000000000, 6.000000000000000000, 0.000000000000000000 ) ) ;
#607 = ADVANCED_FACE ( 'NONE', ( #603, #29 ), #411, .F. ) ;
#608 = CARTESIAN_POINT ( 'NONE',  ( -9.000000000000001776, -2.000000000000000000, -6.000000000000000000 ) ) ;
#609 = ORIENTED_EDGE ( 'NONE', *, *, #532, .T. ) ;
#610 = CARTESIAN_POINT ( 'NONE',  ( -9.000000000000001776, 0.000000000000000000, -4.500000000000000888 ) ) ;
#611 = CIRCLE ( 'NONE', #557, 1.499999999999999556 ) ;
#612 = ORIENTED_EDGE ( 'NONE', *, *, #190, .F. ) ;
#613 = DIRECTION ( 'NONE',  ( 0.000000000000000000, 0.000000000000000000, 1.000000000000000000 ) ) ;
#614 = VECTOR ( 'NONE', #342, 1000.000000000000000 ) ;
#615 = EDGE_LOOP ( 'NONE', ( #264, #503, #454, #428 ) ) ;
#616 = DIRECTION ( 'NONE',  ( 0.000000000000000000, -0.000000000000000000, 1.000000000000000000 ) ) ;
#617 = EDGE_CURVE ( 'NONE', #254, #485, #215, .T. ) ;
#618 = ORIENTED_EDGE ( 'NONE', *, *, #312, .T. ) ;
#619 = EDGE_LOOP ( 'NONE', ( #439, #200, #273, #499 ) ) ;
#620 = VECTOR ( 'NONE', #138, 1000.000000000000000 ) ;
#621 = AXIS2_PLACEMENT_3D ( 'NONE', #606, #265, #559 ) ;
#622 = DIRECTION ( 'NONE',  ( -1.000000000000000000, 0.000000000000000000, -0.000000000000000000 ) ) ;
#623 = CARTESIAN_POINT ( 'NONE',  ( -12.00000000000000000, 0.000000000000000000, 10.00000000000000000 ) ) ;
#624 = ADVANCED_FACE ( 'NONE', ( #222 ), #554, .T. ) ;
#625 = DIRECTION ( 'NONE',  ( 0.000000000000000000, 0.000000000000000000, 1.000000000000000000 ) ) ;
ENDSEC;
END-ISO-10303-21;
