ISO-10303-21;
HEADER;
FILE_DESCRIPTION (( 'STEP AP214' ),
    '1' );
FILE_NAME ('ISO 2341 - B - 10 x 32 x 3.2 - St.STEP',
    '2025-07-24T08:03:10',
    ( '' ),
    ( '' ),
    'SwSTEP 2.0',
    'SolidWorks 2025',
    '' );
FILE_SCHEMA (( 'AUTOMOTIVE_DESIGN' ));
ENDSEC;

DATA;
#1 = CARTESIAN_POINT ( 'NONE',  ( 3.999999999999999112, 0.000000000000000000, 8.999999999999998224 ) ) ;
#2 = CARTESIAN_POINT ( 'NONE',  ( 31.07086420686899331, -1.599190939576343506, -3.980487343455317628 ) ) ;
#3 = CARTESIAN_POINT ( 'NONE',  ( 29.78392909882384032, -1.351953609351735697, -4.814197711977927341 ) ) ;
#4 = CARTESIAN_POINT ( 'NONE',  ( 33.10000000000001563, -8.131516293641283255E-17, -4.500000054540269190 ) ) ;
#5 = CARTESIAN_POINT ( 'NONE',  ( 29.60430243994997213, -1.029950860084175357, -4.894787049380502353 ) ) ;
#6 = DIRECTION ( 'NONE',  ( -1.000000000000000000, -0.000000000000000000, -0.000000000000000000 ) ) ;
#7 = CARTESIAN_POINT ( 'NONE',  ( 29.94040231797989549, -1.562992730592682289, -4.749426673201135429 ) ) ;
#8 = CARTESIAN_POINT ( 'NONE',  ( 33.09951476455571395, -0.4273876237571241354, -4.499746504004865422 ) ) ;
#9 = CARTESIAN_POINT ( 'NONE',  ( 4.599999999999999645, 0.000000000000000000, 0.000000000000000000 ) ) ;
#10 = CARTESIAN_POINT ( 'NONE',  ( 32.78229070016906377, -1.853917040395457905, 4.644470804932202768 ) ) ;
#11 = CARTESIAN_POINT ( 'NONE',  ( 32.27616513624325023, -2.166553787617407689, -4.506252539022481685 ) ) ;
#12 = ADVANCED_FACE ( 'NONE', ( #235 ), #449, .T. ) ;
#13 = PLANE ( 'NONE',  #586 ) ;
#14 = CARTESIAN_POINT ( 'NONE',  ( 0.000000000000000000, 0.000000000000000000, 0.000000000000000000 ) ) ;
#15 = FACE_OUTER_BOUND ( 'NONE', #384, .T. ) ;
#16 = CARTESIAN_POINT ( 'NONE',  ( 30.49125928752554415, -1.242361567837716452, -4.194994542403721383 ) ) ;
#17 = FACE_OUTER_BOUND ( 'NONE', #315, .T. ) ;
#18 = CARTESIAN_POINT ( 'NONE',  ( 31.07086420686899331, 1.599190939576342618, 3.980487343455316740 ) ) ;
#19 = CARTESIAN_POINT ( 'NONE',  ( 31.36639732919569568, -2.333699761791119709, 4.421973043372195988 ) ) ;
#20 = CARTESIAN_POINT ( 'NONE',  ( 33.36595388902065196, 1.226328627904178292, 4.870378938665509416 ) ) ;
#21 = CARTESIAN_POINT ( 'NONE',  ( 30.18787040039651970, -0.9506053887328972385, -4.332082418137638946 ) ) ;
#22 = CARTESIAN_POINT ( 'NONE',  ( 33.27885163327311346, -1.240044038651456182, -4.844222289122536829 ) ) ;
#23 = CARTESIAN_POINT ( 'NONE',  ( 30.75998688054782448, -2.181585475035888511, 4.498989486820945238 ) ) ;
#24 = CARTESIAN_POINT ( 'NONE',  ( 29.39918790188599473, 0.6205388366551830570, 5.000426910456937435 ) ) ;
#25 = CARTESIAN_POINT ( 'NONE',  ( 29.90032172537572563, 0.1664818740392181307, -4.499882753275613823 ) ) ;
#26 = CARTESIAN_POINT ( 'NONE',  ( 30.97355593865941970, 1.510912522378196732, 4.047179233437861789 ) ) ;
#27 = CARTESIAN_POINT ( 'NONE',  ( 30.11486979005141151, 1.754339843609056038, 4.682204270057172657 ) ) ;
#28 = CARTESIAN_POINT ( 'NONE',  ( 32.31102475666706653, 2.149978220689805930, -4.514154810211926439 ) ) ;
#29 = CARTESIAN_POINT ( 'NONE',  ( 31.35490537254964494, 1.600233266778479546, -3.979786661365713130 ) ) ;
#30 = CARTESIAN_POINT ( 'NONE',  ( 32.67461087529653696, 1.086858213633350445, 4.268191828578220104 ) ) ;
#31 = CARTESIAN_POINT ( 'NONE',  ( 31.22439307025213751, 2.317767187594118816, 4.430476304871834969 ) ) ;
#32 =( NAMED_UNIT ( * ) PLANE_ANGLE_UNIT ( ) SI_UNIT ( $, .RADIAN. ) );
#33 = CARTESIAN_POINT ( 'NONE',  ( 30.24575280394575216, 0.9934102733463429091, -4.306377494816792328 ) ) ;
#34 = CARTESIAN_POINT ( 'NONE',  ( 33.07484208649324842, -0.3518021914563796426, 4.479130244889118373 ) ) ;
#35 = CARTESIAN_POINT ( 'NONE',  ( 31.36057426862123165, 2.332991905577678438, 4.422346539562433954 ) ) ;
#36 = CIRCLE ( 'NONE', #46, 8.999999999999998224 ) ;
#37 = CARTESIAN_POINT ( 'NONE',  ( 30.28449325868870545, -1.040920725766064647, 4.287638031550523365 ) ) ;
#38 = CARTESIAN_POINT ( 'NONE',  ( 29.50189120049479996, 0.7536607389034796212, 4.944869403825268961 ) ) ;
#39 = CARTESIAN_POINT ( 'NONE',  ( 33.10648019879899806, 1.504711432907085644, -4.768315296962016170 ) ) ;
#40 = CARTESIAN_POINT ( 'NONE',  ( 30.26467025807191291, -1.017294829839104242, 4.297171891290044066 ) ) ;
#41 = CARTESIAN_POINT ( 'NONE',  ( 29.41647808658607843, -0.3170468431993091474, 4.990536058746787518 ) ) ;
#42 = CARTESIAN_POINT ( 'NONE',  ( 32.55592568081722504, 2.016971423897865545, -4.575296676035499388 ) ) ;
#43 = CARTESIAN_POINT ( 'NONE',  ( 30.30523632105249376, -1.064208509394572566, 4.277775915598224010 ) ) ;
#44 = CARTESIAN_POINT ( 'NONE',  ( 32.75475086363585575, -0.9927740277651851963, -4.306617849866470671 ) ) ;
#45 = CARTESIAN_POINT ( 'NONE',  ( 30.75998688054698604, 2.181585475035887178, -4.498989486820944350 ) ) ;
#46 = AXIS2_PLACEMENT_3D ( 'NONE', #80, #293, #671 ) ;
#47 = CARTESIAN_POINT ( 'NONE',  ( 4.770489558939738569E-17, 0.000000000000000000, 0.000000000000000000 ) ) ;
#48 = FACE_OUTER_BOUND ( 'NONE', #638, .T. ) ;
#49 = CARTESIAN_POINT ( 'NONE',  ( 30.53418896188230747, -2.070487571512474201, -4.551204284737012884 ) ) ;
#50 = CARTESIAN_POINT ( 'NONE',  ( 4.599999999999999645, 0.000000000000000000, 0.000000000000000000 ) ) ;
#51 = ORIENTED_EDGE ( 'NONE', *, *, #68, .T. ) ;
#52 = CARTESIAN_POINT ( 'NONE',  ( 30.82674647541985280, 2.208335010517725294, -4.485919980197442314 ) ) ;
#53 = ADVANCED_FACE ( 'NONE', ( #120, #17 ), #393, .T. ) ;
#54 = PRODUCT_CONTEXT ( 'NONE', #307, 'mechanical' ) ;
#55 = CARTESIAN_POINT ( 'NONE',  ( 29.40082014428570645, 0.6296424675795251336, -4.999568945737402181 ) ) ;
#56 = CARTESIAN_POINT ( 'NONE',  ( 30.44568074531135338, 2.022196807068187496, -4.573711657606344794 ) ) ;
#57 = CARTESIAN_POINT ( 'NONE',  ( 0.000000000000000000, 0.000000000000000000, 0.000000000000000000 ) ) ;
#58 = CIRCLE ( 'NONE', #503, 4.999999999999996447 ) ;
#59 = CARTESIAN_POINT ( 'NONE',  ( 33.10000000000001563, -8.131516293641283255E-17, -4.500000054540269190 ) ) ;
#60 = EDGE_LOOP ( 'NONE', ( #617 ) ) ;
#61 = CARTESIAN_POINT ( 'NONE',  ( 32.10795636623744542, -2.232071383861598424, -4.474132020553946987 ) ) ;
#62 = ORIENTED_EDGE ( 'NONE', *, *, #477, .T. ) ;
#63 = CARTESIAN_POINT ( 'NONE',  ( 30.46627442766711980, 1.221676750135401779, 4.205098837193355976 ) ) ;
#64 = FACE_OUTER_BOUND ( 'NONE', #171, .T. ) ;
#65 = APPLICATION_PROTOCOL_DEFINITION ( 'draft international standard', 'automotive_design', 1998, #307 ) ;
#66 = CARTESIAN_POINT ( 'NONE',  ( 30.97355593865719570, -1.510912522377422018, -4.047179233438499502 ) ) ;
#67 = CARTESIAN_POINT ( 'NONE',  ( 32.34398431804550711, -2.134638351711906079, 4.521460803381700977 ) ) ;
#68 = EDGE_CURVE ( 'NONE', #685, #685, #459, .T. ) ;
#69 = CARTESIAN_POINT ( 'NONE',  ( 30.66186395519047636, -1.423470186782700875, 4.111479579468863221 ) ) ;
#70 = CARTESIAN_POINT ( 'NONE',  ( 30.11733175867088264, -1.756635932777158349, 4.681342594721715322 ) ) ;
#71 = CYLINDRICAL_SURFACE ( 'NONE', #94, 1.600000000000004086 ) ;
#72 = CARTESIAN_POINT ( 'NONE',  ( 30.36860814591613789, -1.131349845323135206, -4.247950378906357294 ) ) ;
#73 = DIRECTION ( 'NONE',  ( 0.000000000000000000, 0.000000000000000000, 1.000000000000000000 ) ) ;
#74 = CARTESIAN_POINT ( 'NONE',  ( 33.59999997272988281, 4.878909776184769953E-16, 4.999999999999998224 ) ) ;
#75 = CARTESIAN_POINT ( 'NONE',  ( 33.16603116204368717, -1.427725787684758219, -4.793578443301668379 ) ) ;
#76 = CARTESIAN_POINT ( 'NONE',  ( 33.54551427739449565, -0.5312265806442565408, 4.972272041908781581 ) ) ;
#77 = CARTESIAN_POINT ( 'NONE',  ( 32.05950305492638819, 2.334511302263312604, 4.421570151905048540 ) ) ;
#78 = CARTESIAN_POINT ( 'NONE',  ( 30.56192268961254044, 1.324119380303579785, -4.157955011686304658 ) ) ;
#79 = DIRECTION ( 'NONE',  ( 0.000000000000000000, 0.000000000000000000, 1.000000000000000000 ) ) ;
#80 = CARTESIAN_POINT ( 'NONE',  ( 1.000000000000000000, 0.000000000000000000, 0.000000000000000000 ) ) ;
#81 = CIRCLE ( 'NONE', #272, 4.999999999999998224 ) ;
#82 = CARTESIAN_POINT ( 'NONE',  ( 32.43579220684227238, 2.087171874586331466, -4.543570677630030197 ) ) ;
#83 = CARTESIAN_POINT ( 'NONE',  ( 30.26467025807208344, 1.017294829839317183, -4.297171891290045842 ) ) ;
#84 = CARTESIAN_POINT ( 'NONE',  ( 31.17111473584602166, 1.579747517127444434, 4.002512547342240268 ) ) ;
#85 = CARTESIAN_POINT ( 'NONE',  ( 32.61204016232095171, 1.980364906103910805, 4.591316956783028758 ) ) ;
#86 = CARTESIAN_POINT ( 'NONE',  ( 33.60020466292841945, 0.3189006892665988135, -4.999999999999997335 ) ) ;
#87 = CARTESIAN_POINT ( 'NONE',  ( 32.50872608363788885, 1.242371572169802763, -4.194891345083925138 ) ) ;
#88 = CARTESIAN_POINT ( 'NONE',  ( 32.55572706234965352, -2.021975775717255175, -4.573812477859624970 ) ) ;
#89 = CARTESIAN_POINT ( 'NONE',  ( 29.42522815435035000, 0.3851667360096524551, 4.985708464362569536 ) ) ;
#90 = CARTESIAN_POINT ( 'NONE',  ( 33.54902026390638525, 0.6181897674280046884, -4.969548767955440205 ) ) ;
#91 = CARTESIAN_POINT ( 'NONE',  ( 36.00000000000000711, 0.000000000000000000, 3.845299461620740544 ) ) ;
#92 = CARTESIAN_POINT ( 'NONE',  ( 33.38103128730136149, 1.043395742065365006, 4.892081389842696026 ) ) ;
#93 = CARTESIAN_POINT ( 'NONE',  ( 33.12893733905818294, 1.474688326656370174, -4.777582478536965382 ) ) ;
#94 = AXIS2_PLACEMENT_3D ( 'NONE', #443, #496, #123 ) ;
#95 = CARTESIAN_POINT ( 'NONE',  ( 33.10000000000000853, 0.000000000000000000, 4.500000054540269190 ) ) ;
#96 = CARTESIAN_POINT ( 'NONE',  ( 29.41090961180923102, 0.2709178347259772468, 4.993713615507799908 ) ) ;
#97 = CARTESIAN_POINT ( 'NONE',  ( 30.14294941019900165, -0.8475928838308905977, 4.357672041423956699 ) ) ;
#98 = CARTESIAN_POINT ( 'NONE',  ( 33.10000000000000853, -3.918869757271542786E-16, -4.500000054540269190 ) ) ;
#99 = CARTESIAN_POINT ( 'NONE',  ( 30.59554956474087106, -2.103760111977289071, -4.535878458606808827 ) ) ;
#100 = DIRECTION ( 'NONE',  ( -1.000000000000000000, -0.000000000000000000, -0.000000000000000000 ) ) ;
#101 = CARTESIAN_POINT ( 'NONE',  ( 32.96666002588367661, -0.6479955009052570380, -4.415688075099637899 ) ) ;
#102 = CARTESIAN_POINT ( 'NONE',  ( 29.45054139302188645, -0.6152208584854615969, -4.969955676579957071 ) ) ;
#103 = CARTESIAN_POINT ( 'NONE',  ( 33.10000000000000853, -0.1638072929879157702, 4.500097234300589832 ) ) ;
#104 = CARTESIAN_POINT ( 'NONE',  ( 30.39802509478388970, -2.075269881138817940, -4.569050671578619216 ) ) ;
#105 = ORIENTED_EDGE ( 'NONE', *, *, #678, .T. ) ;
#106 = EDGE_CURVE ( 'NONE', #313, #313, #262, .T. ) ;
#107 = CARTESIAN_POINT ( 'NONE',  ( 30.09194566010928895, 1.731145005334246312, -4.690750150083274228 ) ) ;
#108 = CARTESIAN_POINT ( 'NONE',  ( 33.59999997272988281, 6.123233995736763324E-16, -4.999999999999997335 ) ) ;
#109 = CARTESIAN_POINT ( 'NONE',  ( 32.05950305492638819, -2.334511302263312604, -4.421570151905049428 ) ) ;
#110 = ORIENTED_EDGE ( 'NONE', *, *, #489, .T. ) ;
#111 = CARTESIAN_POINT ( 'NONE',  ( 30.65672574464337075, -2.135031663485021269, -4.521274989455108972 ) ) ;
#112 = EDGE_LOOP ( 'NONE', ( #51 ) ) ;
#113 = CARTESIAN_POINT ( 'NONE',  ( 29.74542914439404129, -1.288755914540079539, -4.831056633153656854 ) ) ;
#114 = CONICAL_SURFACE ( 'NONE', #611, 4.999999999999996447, 0.5235987755983001479 ) ;
#115 = CARTESIAN_POINT ( 'NONE',  ( 30.56683429336418101, 1.301261743437324148, 4.165724956271069424 ) ) ;
#116 = CARTESIAN_POINT ( 'NONE',  ( 33.10000000000000853, -3.918869757271542786E-16, -4.500000054540269190 ) ) ;
#117 = CARTESIAN_POINT ( 'NONE',  ( 2.385244779469869284E-17, 0.000000000000000000, 0.000000000000000000 ) ) ;
#118 = CARTESIAN_POINT ( 'NONE',  ( 30.06818893648683044, 0.7443104746720103915, 4.395152421996725067 ) ) ;
#119 = CARTESIAN_POINT ( 'NONE',  ( 36.00000000000000711, 3.845299461620740544, 0.000000000000000000 ) ) ;
#120 = FACE_OUTER_BOUND ( 'NONE', #228, .T. ) ;
#121 = CARTESIAN_POINT ( 'NONE',  ( 32.93117215394640596, 0.7454117285583381491, -4.395067927722592138 ) ) ;
#122 = CARTESIAN_POINT ( 'NONE',  ( 33.48727495644124730, -0.7539719555569873721, 4.943390982004220113 ) ) ;
#123 = DIRECTION ( 'NONE',  ( 1.000000000000000000, 0.000000000000000000, 0.000000000000000000 ) ) ;
#124 = CARTESIAN_POINT ( 'NONE',  ( 30.96069444169045681, -2.254930415673493727, 4.462727696622803997 ) ) ;
#125 = CARTESIAN_POINT ( 'NONE',  ( 33.10000000000001563, 2.439454888092384977E-16, 4.500000054540269190 ) ) ;
#126 = CARTESIAN_POINT ( 'NONE',  ( 30.34627314304962553, 1.109080410920809667, -4.258361022530085194 ) ) ;
#127 = CARTESIAN_POINT ( 'NONE',  ( 32.79255073091484007, 0.9449993934706480969, 4.325010833114604658 ) ) ;
#128 = CARTESIAN_POINT ( 'NONE',  ( 32.37410357818554729, -2.119676562082384752, 4.528497787218435988 ) ) ;
#129 =( LENGTH_UNIT ( ) NAMED_UNIT ( * ) SI_UNIT ( .MILLI., .METRE. ) );
#130 = EDGE_CURVE ( 'NONE', #640, #640, #36, .T. ) ;
#131 = CARTESIAN_POINT ( 'NONE',  ( 31.17370498125900724, 1.580321527878562282, -4.001974464856684399 ) ) ;
#132 = DIRECTION ( 'NONE',  ( -1.000000000000000000, -0.000000000000000000, -0.000000000000000000 ) ) ;
#133 = FACE_OUTER_BOUND ( 'NONE', #275, .T. ) ;
#134 = B_SPLINE_SURFACE_WITH_KNOTS ( 'NONE', 1, 3, ( 
 ( #125, #227, #176, #179, #225, #18, #392, #336, #555, #169, #388, #69, #394, #494, #183, #609, #287, #552 ),
 ( #74, #499, #20, #231, #77, #339, #557, #290, #24, #236, #450, #600, #402, #576, #248, #398, #353, #409 ) ),
 .UNSPECIFIED., .F., .T., .F.,
 ( 2, 2 ),
 ( 4, 2, 2, 2, 2, 2, 2, 2, 4 ),
 ( 0.000000000000000000, 1.000000000000000000 ),
 ( -0.01323381773489661767, -0.01156845339258772039, -0.009903089050278823108, -0.008237724707969924093, -0.006572360365661026813, -0.004906996023352129532, -0.003241631681043231385, -0.001576267338734333671, 8.909700357456404318E-05 ),
 .UNSPECIFIED. ) ;
#135 = CIRCLE ( 'NONE', #166, 7.999999999999992895 ) ;
#136 = FILL_AREA_STYLE_COLOUR ( '', #346 ) ;
#137 = CARTESIAN_POINT ( 'NONE',  ( 32.38223922537577693, 1.336129481610207170, -4.147529471501142595 ) ) ;
#138 = CARTESIAN_POINT ( 'NONE',  ( 30.77192713130162005, 1.429796859780116058, 4.097410176798620185 ) ) ;
#139 = CARTESIAN_POINT ( 'NONE',  ( 29.40062084964734623, 0.06503401740759222338, 4.999646035738416039 ) ) ;
#140 = PRODUCT ( 'ISO 2341 - B - 10 x 32 x 3.2 - St_ISO 2341 - B - 10 x 32 x 3.2 - St', 'ISO 2341 - B - 10 x 32 x 3.2 - St_ISO 2341 - B - 10 x 32 x 3.2 - St', '', ( #54 ) ) ;
#141 = CARTESIAN_POINT ( 'NONE',  ( 33.10000000000000853, -3.918869757271542786E-16, -4.500000054540269190 ) ) ;
#142 = CARTESIAN_POINT ( 'NONE',  ( 30.85521097422699910, 2.219037980670025334, 4.480628643985887116 ) ) ;
#143 = CARTESIAN_POINT ( 'NONE',  ( 33.17385161957654560, 1.414642114154939456, -4.796116841686862031 ) ) ;
#144 = CARTESIAN_POINT ( 'NONE',  ( 32.33105286562107494, -1.367242163825791446, 4.130808675817626785 ) ) ;
#145 = CARTESIAN_POINT ( 'NONE',  ( 29.80953500482345930, 1.421239956331963761, 4.799859854925433211 ) ) ;
#146 = ADVANCED_FACE ( 'NONE', ( #401, #133 ), #565, .T. ) ;
#147 = CARTESIAN_POINT ( 'NONE',  ( 33.00891579092265005, 1.623257911954710808, -4.729255304420346917 ) ) ;
#148 =( GEOMETRIC_REPRESENTATION_CONTEXT ( 3 ) GLOBAL_UNCERTAINTY_ASSIGNED_CONTEXT ( ( #390 ) ) GLOBAL_UNIT_ASSIGNED_CONTEXT ( ( #376, #655, #645 ) ) REPRESENTATION_CONTEXT ( 'NONE', 'WORKASPACE' ) );
#149 = CARTESIAN_POINT ( 'NONE',  ( 30.03374135395885602, -0.6488735840058074134, 4.415560571424667735 ) ) ;
#150 = CARTESIAN_POINT ( 'NONE',  ( 32.43330030985134727, 2.089066103584166889, 4.542700597780712002 ) ) ;
#151 = CARTESIAN_POINT ( 'NONE',  ( 29.89305209817345599, -1.503934168671488214, -4.768560986130563784 ) ) ;
#152 = CARTESIAN_POINT ( 'NONE',  ( 32.53365268742069816, -1.221736273424951502, 4.204989206792556722 ) ) ;
#153 = CARTESIAN_POINT ( 'NONE',  ( 29.90062485727471042, 0.4317591245323598170, -4.499612101845193557 ) ) ;
#154 = ORIENTED_EDGE ( 'NONE', *, *, #497, .T. ) ;
#155 = CARTESIAN_POINT ( 'NONE',  ( 29.40000402308585237, 0.004551815462168937523, -4.999997928097168476 ) ) ;
#156 = VERTEX_POINT ( 'NONE', #141 ) ;
#157 = CARTESIAN_POINT ( 'NONE',  ( 32.65438948632379379, -1.108391827740848434, -4.258669924098534842 ) ) ;
#158 = ORIENTED_EDGE ( 'NONE', *, *, #249, .F. ) ;
#159 = CARTESIAN_POINT ( 'NONE',  ( 31.90626756005963216, -2.288825026437995458, -4.445366126468222490 ) ) ;
#160 = CARTESIAN_POINT ( 'NONE',  ( 30.66040004042169187, -1.423042219051524171, -4.112145663983566735 ) ) ;
#161 = CARTESIAN_POINT ( 'NONE',  ( 30.11733175867023604, 1.756635932776144715, -4.681342594722092798 ) ) ;
#162 = CARTESIAN_POINT ( 'NONE',  ( 32.73585092999613977, -1.016661344912751064, -4.297421358242403677 ) ) ;
#163 = CARTESIAN_POINT ( 'NONE',  ( 30.86018752664519837, 2.220718670825192920, -4.479795866273572180 ) ) ;
#164 = EDGE_LOOP ( 'NONE', ( #590 ) ) ;
#165 = CARTESIAN_POINT ( 'NONE',  ( 32.82673612535752738, 0.8961836664376831019, 4.342091772529153459 ) ) ;
#166 = AXIS2_PLACEMENT_3D ( 'NONE', #257, #100, #263 ) ;
#167 = CARTESIAN_POINT ( 'NONE',  ( 30.14318287299489185, -1.781323681328426334, 4.671995555281331036 ) ) ;
#168 = CARTESIAN_POINT ( 'NONE',  ( 30.36860814591613789, 1.131349845323135872, 4.247950378906357294 ) ) ;
#169 = CARTESIAN_POINT ( 'NONE',  ( 29.90062485727470687, -0.4317591245323610938, 4.499612101845194445 ) ) ;
#170 = DIRECTION ( 'NONE',  ( 1.000000000000000000, 0.000000000000000000, 0.000000000000000000 ) ) ;
#171 = EDGE_LOOP ( 'NONE', ( #430 ) ) ;
#172 = FACE_OUTER_BOUND ( 'NONE', #219, .T. ) ;
#173 = CARTESIAN_POINT ( 'NONE',  ( 30.44159862723731536, -1.199911052592675498, -4.215550898062453200 ) ) ;
#174 = ADVANCED_FACE ( 'NONE', ( #322, #48 ), #550, .T. ) ;
#175 = CARTESIAN_POINT ( 'NONE',  ( 33.08198603386612291, -1.542067343294495574, 4.757644379157538239 ) ) ;
#176 = CARTESIAN_POINT ( 'NONE',  ( 32.92167909275170956, 0.8409111595364963110, 4.383341060965245006 ) ) ;
#177 =( GEOMETRIC_REPRESENTATION_CONTEXT ( 3 ) GLOBAL_UNCERTAINTY_ASSIGNED_CONTEXT ( ( #553 ) ) GLOBAL_UNIT_ASSIGNED_CONTEXT ( ( #129, #32, #348 ) ) REPRESENTATION_CONTEXT ( 'NONE', 'WORKASPACE' ) );
#178 = DIRECTION ( 'NONE',  ( -0.000000000000000000, 0.000000000000000000, 1.000000000000000000 ) ) ;
#179 = CARTESIAN_POINT ( 'NONE',  ( 32.33915269412358384, 1.423738842440496644, 4.111664476277375080 ) ) ;
#180 = CARTESIAN_POINT ( 'NONE',  ( 32.60853011311207439, 1.154200425063679702, -4.237293165924837623 ) ) ;
#181 = CARTESIAN_POINT ( 'NONE',  ( 33.10000000000000853, 0.1643105346485244367, 4.499902576228504536 ) ) ;
#182 = CARTESIAN_POINT ( 'NONE',  ( 30.27662358648110796, -1.897622977829177104, 4.626127602798581151 ) ) ;
#183 = CARTESIAN_POINT ( 'NONE',  ( 32.33990650013431178, -1.422179620084238039, 4.112161037777964268 ) ) ;
#184 = CARTESIAN_POINT ( 'NONE',  ( 31.83011914647605067, 1.579455923936717854, -4.002519909600350978 ) ) ;
#185 = CARTESIAN_POINT ( 'NONE',  ( 33.24124480952997374, -1.302604621662556861, -4.827341007182247345 ) ) ;
#186 = CARTESIAN_POINT ( 'NONE',  ( 29.40031350379853947, -0.04429984965853274448, 4.999813595262921240 ) ) ;
#187 = CARTESIAN_POINT ( 'NONE',  ( 31.36639732919389800, 2.333699761791123262, -4.421973043372193324 ) ) ;
#188 = CARTESIAN_POINT ( 'NONE',  ( 32.22868014611182019, 1.429467528256866959, -4.097367084450588059 ) ) ;
#189 = CARTESIAN_POINT ( 'NONE',  ( 32.65438948632359484, 1.108391827741040503, 4.258669924098483328 ) ) ;
#190 = CARTESIAN_POINT ( 'NONE',  ( 32.52477846007438700, 2.038111231716443594, 4.566035540495144929 ) ) ;
#191 = DIRECTION ( 'NONE',  ( -1.000000000000000000, -0.000000000000000000, -0.000000000000000000 ) ) ;
#192 = CARTESIAN_POINT ( 'NONE',  ( 33.59999997272987571, -1.224646799147352665E-15, 4.999999999999997335 ) ) ;
#193 = CARTESIAN_POINT ( 'NONE',  ( 29.46494807648307201, -0.6164229417185217441, 4.964113297130329450 ) ) ;
#194 = DIRECTION ( 'NONE',  ( -1.000000000000000000, -0.000000000000000000, -0.000000000000000000 ) ) ;
#195 = CARTESIAN_POINT ( 'NONE',  ( 30.97578138984726692, -1.511686094653762469, 4.046516726105194195 ) ) ;
#196 = CARTESIAN_POINT ( 'NONE',  ( 32.04233082588380910, 2.274743355077492701, 4.454670046232442893 ) ) ;
#197 = CARTESIAN_POINT ( 'NONE',  ( 32.78229070016637792, 1.853917040398409100, -4.644470804931025931 ) ) ;
#198 = CARTESIAN_POINT ( 'NONE',  ( 30.77785779843475211, -1.443050661428803005, 4.091058987353703991 ) ) ;
#199 = DIRECTION ( 'NONE',  ( 0.000000000000000000, 0.000000000000000000, 1.000000000000000000 ) ) ;
#200 = CARTESIAN_POINT ( 'NONE',  ( 31.77127981942050283, -2.318925334564049923, -4.429868114250014699 ) ) ;
#201 = AXIS2_PLACEMENT_3D ( 'NONE', #50, #6, #429 ) ;
#202 = CARTESIAN_POINT ( 'NONE',  ( 32.22868014611175624, -1.429467528256901376, 4.097367084450589836 ) ) ;
#203 = CARTESIAN_POINT ( 'NONE',  ( 32.92227873804073823, 0.8411184045212304339, -4.383465168303425585 ) ) ;
#204 = ORIENTED_EDGE ( 'NONE', *, *, #477, .F. ) ;
#205 = CARTESIAN_POINT ( 'NONE',  ( 29.55304875764060668, -0.8917075262179373629, -4.919843258446986667 ) ) ;
#206 = PRODUCT_DEFINITION ( 'General', '', #662, #530 ) ;
#207 = CARTESIAN_POINT ( 'NONE',  ( 30.37023420377883909, -1.132973629741120369, 4.247204799102997086 ) ) ;
#208 = CARTESIAN_POINT ( 'NONE',  ( 33.00266601124990018, -0.5495405887050928140, -4.436729515592884532 ) ) ;
#209 = CARTESIAN_POINT ( 'NONE',  ( 29.40095910625028708, 0.6439758102243213767, -4.999415819850706377 ) ) ;
#210 = CARTESIAN_POINT ( 'NONE',  ( 33.36674092306478911, 1.226630860915490562, -4.870516835508019504 ) ) ;
#211 = CARTESIAN_POINT ( 'NONE',  ( 29.96447971267296495, -1.592333577763857200, -4.739770869670839382 ) ) ;
#212 = AXIS2_PLACEMENT_3D ( 'NONE', #327, #441, #334 ) ;
#213 = CARTESIAN_POINT ( 'NONE',  ( 34.00000000000000000, 0.000000000000000000, 4.999999999999996447 ) ) ;
#214 = CARTESIAN_POINT ( 'NONE',  ( 30.66186395519046926, 1.423470186782698210, -4.111479579468863221 ) ) ;
#215 = ORIENTED_EDGE ( 'NONE', *, *, #106, .T. ) ;
#216 = CARTESIAN_POINT ( 'NONE',  ( 30.68969327043769724, -2.150345551648862763, -4.513979841393171988 ) ) ;
#217 = VERTEX_POINT ( 'NONE', #601 ) ;
#218 = CARTESIAN_POINT ( 'NONE',  ( 29.39918790188600184, -0.6205388366551872759, -5.000426910456938323 ) ) ;
#219 = EDGE_LOOP ( 'NONE', ( #230 ) ) ;
#220 = ADVANCED_FACE ( 'NONE', ( #319, #270 ), #483, .F. ) ;
#221 = CARTESIAN_POINT ( 'NONE',  ( 33.59980265550719025, -0.3074138320743257657, -4.999999999999997335 ) ) ;
#222 = CARTESIAN_POINT ( 'NONE',  ( 32.02471510487263373, -1.511513830144642689, -4.046608776322431211 ) ) ;
#223 = CARTESIAN_POINT ( 'NONE',  ( 32.43579220684381426, -2.087171874584712761, 4.543570677630776267 ) ) ;
#224 = CARTESIAN_POINT ( 'NONE',  ( 33.43495272578796573, -0.9003859351109284592, -4.918262413480435136 ) ) ;
#225 = CARTESIAN_POINT ( 'NONE',  ( 31.92629102207493474, 1.600807795935548672, 3.979413181209943140 ) ) ;
#226 = CARTESIAN_POINT ( 'NONE',  ( 31.02794406687483431, -2.273820928710246658, 4.453091596501000282 ) ) ;
#227 = CARTESIAN_POINT ( 'NONE',  ( 33.09951476455571395, 0.4273876237571253012, 4.499746504004862757 ) ) ;
#228 = EDGE_LOOP ( 'NONE', ( #215 ) ) ;
#229 = DIRECTION ( 'NONE',  ( 0.000000000000000000, 0.000000000000000000, 1.000000000000000000 ) ) ;
#230 = ORIENTED_EDGE ( 'NONE', *, *, #68, .F. ) ;
#231 = CARTESIAN_POINT ( 'NONE',  ( 32.60138779271991183, 2.076285875397360758, 4.568515988315204446 ) ) ;
#232 = CARTESIAN_POINT ( 'NONE',  ( 30.51645095613806546, -1.261994959703991670, -4.185238013692956116 ) ) ;
#233 = CARTESIAN_POINT ( 'NONE',  ( 33.08017317249046130, -1.543892860284905133, -4.757031135046459802 ) ) ;
#234 = AXIS2_PLACEMENT_3D ( 'NONE', #414, #575, #199 ) ;
#235 = FACE_OUTER_BOUND ( 'NONE', #472, .T. ) ;
#236 = CARTESIAN_POINT ( 'NONE',  ( 29.40082014428571355, -0.6296424675795311288, 4.999568945737403070 ) ) ;
#237 = CARTESIAN_POINT ( 'NONE',  ( 30.20791789569307895, 0.9456411603603943616, -4.324788701870285301 ) ) ;
#238 = CARTESIAN_POINT ( 'NONE',  ( 33.10000000000000853, 0.000000000000000000, 4.500000054540269190 ) ) ;
#239 = CARTESIAN_POINT ( 'NONE',  ( 30.56231646716534911, 2.091185503203258911, 4.542162043459104126 ) ) ;
#240 = CARTESIAN_POINT ( 'NONE',  ( 32.04734826563480254, 2.272697172513042041, -4.455706864853699933 ) ) ;
#241 = CARTESIAN_POINT ( 'NONE',  ( 32.02739077257502487, 1.510582329104487975, -4.047163554838476784 ) ) ;
#242 = CARTESIAN_POINT ( 'NONE',  ( 32.98367084087028189, -1.651307251650767638, -4.719447463490356931 ) ) ;
#243 = CARTESIAN_POINT ( 'NONE',  ( 30.06424046293716756, 1.703298027631830136, 4.701012187409735255 ) ) ;
#244 = SURFACE_SIDE_STYLE ('',( #343 ) ) ;
#245 = CARTESIAN_POINT ( 'NONE',  ( 1.000000000000000000, 0.000000000000000000, 8.999999999999998224 ) ) ;
#246 = CARTESIAN_POINT ( 'NONE',  ( 33.08126504632551956, 1.542675289494584989, 4.757457578997613012 ) ) ;
#247 = CIRCLE ( 'NONE', #526, 5.599999999999997868 ) ;
#248 = CARTESIAN_POINT ( 'NONE',  ( 32.60237716348363790, -2.074012008768744586, 4.569067723507410861 ) ) ;
#249 = EDGE_CURVE ( 'NONE', #156, #156, #681, .T. ) ;
#250 = CARTESIAN_POINT ( 'NONE',  ( 30.24575280394554966, -0.9934102733460895562, 4.306377494816790552 ) ) ;
#251 = CARTESIAN_POINT ( 'NONE',  ( 30.19221198050960808, 1.828497085803821198, 4.654167235180815432 ) ) ;
#252 = CARTESIAN_POINT ( 'NONE',  ( 33.08322010402073943, 1.534359059373016976, -4.758854065381093790 ) ) ;
#253 = CARTESIAN_POINT ( 'NONE',  ( 30.34627314304957935, -1.109080410920766813, 4.258361022530084306 ) ) ;
#254 = CARTESIAN_POINT ( 'NONE',  ( 33.16603631639524963, 1.427712872902937358, 4.793582290055700135 ) ) ;
#255 = CARTESIAN_POINT ( 'NONE',  ( 32.49609064263976421, 2.052445203072136515, -4.559327657493608577 ) ) ;
#256 = B_SPLINE_CURVE_WITH_KNOTS ( 'NONE', 3,
 ( #520, #86, #90, #469, #356, #302, #515, #631, #143, #93, #39, #252, #684, #466, #147, #360, #298, #197, #618, #412, #42, #255, #561, #82, #294, #507, #511, #28, #240, #455, #672, #187, #276, #316, #318, #532, #591, #163, #52, #271, #45, #367, #595, #363, #56, #486, #268, #481, #644, #635, #161, #107, #639, #473, #579, #534, #209, #155, #416, #102, #205, #5, #539, #113, #3, #261, #484, #151, #690, #7, #211, #427, #323, #583, #420, #523, #528, #379, #431, #49, #265, #99, #375, #111, #216, #423, #312, #476, #642, #200, #159, #321, #647, #61, #371, #587, #345, #650, #11, #331, #500, #88, #670, #288, #547, #242, #233, #75, #185, #22, #296, #616, #457, #674, #224, #448, #221, #665 ),
 .UNSPECIFIED., .T., .F.,
 ( 4, 3, 3, 3, 3, 3, 3, 3, 3, 3, 3, 3, 3, 3, 3, 3, 3, 3, 3, 3, 3, 3, 3, 3, 3, 3, 3, 3, 3, 3, 3, 3, 3, 3, 3, 3, 3, 3, 3, 4 ),
 ( 0.000000000000000000, 0.02564102564102564014, 0.05128205128205128027, 0.07692307692307692735, 0.1025641025641025605, 0.1282051282051281937, 0.1538461538461538547, 0.1794871794871794879, 0.2051282051282051211, 0.2307692307692307820, 0.2564102564102563875, 0.2820512820512820484, 0.3076923076923077094, 0.3333333333333333148, 0.3589743589743589758, 0.3846153846153846367, 0.4102564102564102422, 0.4358974358974359031, 0.4615384615384615641, 0.4871794871794871695, 0.5128205128205127750, 0.5384615384615384359, 0.5641025641025640969, 0.5897435897435897578, 0.6153846153846154188, 0.6410256410256410797, 0.6666666666666666297, 0.6923076923076922906, 0.7179487179487179516, 0.7435897435897436125, 0.7692307692307692735, 0.7948717948717948234, 0.8205128205128204844, 0.8461538461538461453, 0.8717948717948718063, 0.8974358974358974672, 0.9230769230769231282, 0.9487179487179486781, 0.9743589743589743390, 1.000000000000000000 ),
 .UNSPECIFIED. ) ;
#257 = CARTESIAN_POINT ( 'NONE',  ( 4.770489558939738569E-17, 0.000000000000000000, 0.000000000000000000 ) ) ;
#258 = APPLICATION_CONTEXT ( 'automotive_design' ) ;
#259 = CARTESIAN_POINT ( 'NONE',  ( 32.71604853547825797, -1.040287193167521052, -4.287896855659940165 ) ) ;
#260 = ADVANCED_FACE ( 'NONE', ( #15, #64 ), #71, .F. ) ;
#261 = CARTESIAN_POINT ( 'NONE',  ( 29.82564733157241932, -1.413650560689136526, -4.796411110490820917 ) ) ;
#262 = CIRCLE ( 'NONE', #234, 8.999999999999998224 ) ;
#263 = DIRECTION ( 'NONE',  ( 0.000000000000000000, 0.000000000000000000, 1.000000000000000000 ) ) ;
#264 = CARTESIAN_POINT ( 'NONE',  ( 33.10048523544432442, 0.4273876237571244130, -4.500253605075673846 ) ) ;
#265 = CARTESIAN_POINT ( 'NONE',  ( 30.56463561871059298, -2.087494142751603388, -4.543422685717814602 ) ) ;
#266 = VERTEX_POINT ( 'NONE', #108 ) ;
#267 = CARTESIAN_POINT ( 'NONE',  ( 32.43862715034846644, -1.323790386969710298, -4.158165524803504098 ) ) ;
#268 = CARTESIAN_POINT ( 'NONE',  ( 30.27662358647995688, 1.897622977827398305, -4.626127602799311234 ) ) ;
#269 = APPLICATION_PROTOCOL_DEFINITION ( 'draft international standard', 'automotive_design', 1998, #258 ) ;
#270 = FACE_OUTER_BOUND ( 'NONE', #419, .T. ) ;
#271 = CARTESIAN_POINT ( 'NONE',  ( 30.79336667798341765, 2.194960242776806236, -4.492454733509193332 ) ) ;
#272 = AXIS2_PLACEMENT_3D ( 'NONE', #9, #132, #79 ) ;
#273 = EDGE_CURVE ( 'NONE', #571, #571, #562, .T. ) ;
#274 = DIRECTION ( 'NONE',  ( 1.000000000000000000, 0.000000000000000000, 0.000000000000000000 ) ) ;
#275 = EDGE_LOOP ( 'NONE', ( #366 ) ) ;
#276 = CARTESIAN_POINT ( 'NONE',  ( 31.23042798789163044, 2.318957655892847303, -4.429851117232983526 ) ) ;
#277 = CARTESIAN_POINT ( 'NONE',  ( 33.60015693933691239, -0.1536151966524055001, 4.999999999999997335 ) ) ;
#278 = CARTESIAN_POINT ( 'NONE',  ( 30.44159862723772747, 1.199911052593041205, 4.215550898062303098 ) ) ;
#279 = FACE_BOUND ( 'NONE', #610, .T. ) ;
#280 = ORIENTED_EDGE ( 'NONE', *, *, #130, .F. ) ;
#281 = FACE_OUTER_BOUND ( 'NONE', #649, .T. ) ;
#282 = CARTESIAN_POINT ( 'NONE',  ( 30.56683429336310809, -1.301261743436541884, -4.165724956271426471 ) ) ;
#283 = ORIENTED_EDGE ( 'NONE', *, *, #273, .F. ) ;
#284 = DIRECTION ( 'NONE',  ( -1.000000000000000000, -0.000000000000000000, -0.000000000000000000 ) ) ;
#285 = CARTESIAN_POINT ( 'NONE',  ( 31.64604706448766080, -1.600130466814956520, -3.979797634357672642 ) ) ;
#286 = CARTESIAN_POINT ( 'NONE',  ( 32.88713205268229700, -1.758575526389742016, 4.681940179857887685 ) ) ;
#287 = CARTESIAN_POINT ( 'NONE',  ( 33.10048523544432442, -0.4273876237571248016, 4.500253605075676511 ) ) ;
#288 = CARTESIAN_POINT ( 'NONE',  ( 32.78093082168858530, -1.855581797696835400, -4.643809084390526642 ) ) ;
#289 = CARTESIAN_POINT ( 'NONE',  ( 33.59999997272986150, -1.138412281109779656E-15, 4.999999999999998224 ) ) ;
#290 = CARTESIAN_POINT ( 'NONE',  ( 29.63207132681248268, 1.224500418210152208, 4.870838944912368795 ) ) ;
#291 = CARTESIAN_POINT ( 'NONE',  ( 30.08142858807891074, 0.7490941003515988461, -4.389242356126523248 ) ) ;
#292 = CARTESIAN_POINT ( 'NONE',  ( 31.64604706448607985, 1.600130466814955854, 3.979797634358094083 ) ) ;
#293 = DIRECTION ( 'NONE',  ( -1.000000000000000000, -0.000000000000000000, -0.000000000000000000 ) ) ;
#294 = CARTESIAN_POINT ( 'NONE',  ( 32.40494789251349061, 2.103424218334804863, -4.536034232424022150 ) ) ;
#295 = CARTESIAN_POINT ( 'NONE',  ( 31.50254989040932685, 1.599997968142121474, -3.979951231611942752 ) ) ;
#296 = CARTESIAN_POINT ( 'NONE',  ( 33.31379737149951126, -1.175247627981181209, -4.860403194045774811 ) ) ;
#297 = CARTESIAN_POINT ( 'NONE',  ( 29.40301196052759991, -0.1429285167308805005, 4.998226842125204072 ) ) ;
#298 = CARTESIAN_POINT ( 'NONE',  ( 32.88713205268049933, 1.758575526391736199, -4.681940179857190465 ) ) ;
#299 = CARTESIAN_POINT ( 'NONE',  ( 32.53365268742071237, 1.221736273424935071, -4.204989206792554945 ) ) ;
#300 = CARTESIAN_POINT ( 'NONE',  ( 32.73585092999582713, 1.016661344913130538, 4.297421358242402789 ) ) ;
#301 = CARTESIAN_POINT ( 'NONE',  ( 30.27374877032823619, 1.895526330110667068, 4.626987799851838723 ) ) ;
#302 = CARTESIAN_POINT ( 'NONE',  ( 33.33102601511601648, 1.163960712072945158, -4.864383575623032918 ) ) ;
#303 = CARTESIAN_POINT ( 'NONE',  ( 30.20791789569283026, -0.9456411603600602955, 4.324788701870284413 ) ) ;
#304 = CARTESIAN_POINT ( 'NONE',  ( 32.34119984894189059, 2.136463500460223042, 4.520598792038553526 ) ) ;
#305 = SURFACE_STYLE_USAGE ( .BOTH. , #244 ) ;
#306 = CARTESIAN_POINT ( 'NONE',  ( 32.12602658562443736, -1.476145531688404455, 4.069485377457541908 ) ) ;
#307 = APPLICATION_CONTEXT ( 'automotive_design' ) ;
#308 = CARTESIAN_POINT ( 'NONE',  ( 30.75564457187028111, 2.179950210961568935, 4.499781986421153235 ) ) ;
#309 = FACE_OUTER_BOUND ( 'NONE', #480, .T. ) ;
#310 = CARTESIAN_POINT ( 'NONE',  ( 30.17370982125920875, -0.8968422755708358451, 4.341886884072674313 ) ) ;
#311 = CARTESIAN_POINT ( 'NONE',  ( 32.91897233963743474, -0.7483402572475893466, -4.389398459272050523 ) ) ;
#312 = CARTESIAN_POINT ( 'NONE',  ( 31.22392934557571564, -2.332633259418055438, -4.422535777340332430 ) ) ;
#313 = VERTEX_POINT ( 'NONE', #1 ) ;
#314 = DIRECTION ( 'NONE',  ( 0.000000000000000000, 0.000000000000000000, -1.000000000000000000 ) ) ;
#315 = EDGE_LOOP ( 'NONE', ( #280 ) ) ;
#316 = CARTESIAN_POINT ( 'NONE',  ( 31.09543870721197933, 2.288866504437783167, -4.445344770078327734 ) ) ;
#317 = CARTESIAN_POINT ( 'NONE',  ( 32.69532970538746497, -1.063572703400359476, -4.278044342119079246 ) ) ;
#318 = CARTESIAN_POINT ( 'NONE',  ( 31.02794406687215556, 2.273820928710251099, -4.453091596501000282 ) ) ;
#319 = FACE_OUTER_BOUND ( 'NONE', #60, .T. ) ;
#320 = B_SPLINE_CURVE_WITH_KNOTS ( 'NONE', 3,
 ( #238, #181, #433, #452, #400, #509, #396, #165, #127, #341, #300, #604, #559, #30, #189, #620, #404, #564, #382, #436, #292, #505, #599, #84, #26, #624, #138, #350, #568, #115, #326, #542, #63, #278, #490, #653, #168, #385, #118, #521, #633, #464, #354, #470, #626, #518, #149, #682, #97, #310, #303, #250, #40, #37, #43, #516, #253, #207, #410, #198, #195, #629, #513, #636, #577, #584, #581, #306, #202, #144, #417, #467, #368, #357, #152, #413, #679, #574, #421, #524, #361, #474, #34, #103, #95 ),
 .UNSPECIFIED., .T., .F.,
 ( 4, 3, 3, 3, 3, 3, 3, 3, 3, 3, 3, 3, 3, 3, 3, 3, 3, 3, 3, 3, 3, 3, 3, 3, 3, 3, 3, 3, 4 ),
 ( 0.000000000000000000, 0.03571428571428571230, 0.07142857142857142461, 0.1071428571428571369, 0.1428571428571428492, 0.1785714285714285754, 0.2142857142857142738, 0.2500000000000000000, 0.2857142857142856984, 0.3214285714285714524, 0.3571428571428571508, 0.3928571428571428492, 0.4285714285714285476, 0.4642857142857143016, 0.5000000000000000000, 0.5357142857142856984, 0.5714285714285713969, 0.6071428571428570953, 0.6428571428571429047, 0.6785714285714286031, 0.7142857142857143016, 0.7500000000000000000, 0.7857142857142856984, 0.8214285714285713969, 0.8571428571428570953, 0.8928571428571429047, 0.9285714285714286031, 0.9642857142857143016, 1.000000000000000000 ),
 .UNSPECIFIED. ) ;
#321 = CARTESIAN_POINT ( 'NONE',  ( 31.97376143037919505, -2.273774872374968226, -4.453115132577326385 ) ) ;
#322 = FACE_OUTER_BOUND ( 'NONE', #537, .T. ) ;
#323 = CARTESIAN_POINT ( 'NONE',  ( 30.01504821079818797, -1.649885149674482854, -4.719944808245493562 ) ) ;
#324 = ADVANCED_BREP_SHAPE_REPRESENTATION ( 'ISO 2341 - B - 10 x 32 x 3.2 - St_ISO 2341 - B - 10 x 32 x 3.2 - St', ( #445, #359 ), #148 ) ;
#325 = CARTESIAN_POINT ( 'NONE',  ( 30.66933372757760523, -1.367477072517081726, -4.130872034377178537 ) ) ;
#326 = CARTESIAN_POINT ( 'NONE',  ( 30.51645095613887904, 1.261994959704625385, 4.185238013692679004 ) ) ;
#327 = CARTESIAN_POINT ( 'NONE',  ( 36.00000000000000711, 0.000000000000000000, 0.000000000000000000 ) ) ;
#328 = VERTEX_POINT ( 'NONE', #606 ) ;
#329 = ADVANCED_FACE ( 'NONE', ( #605, #279, #548, #332 ), #657, .T. ) ;
#330 = CARTESIAN_POINT ( 'NONE',  ( 30.06655956154870069, -1.705654077892914788, 4.700157705444250489 ) ) ;
#331 = CARTESIAN_POINT ( 'NONE',  ( 32.30805956285348657, -2.151797058541739194, -4.513288093934519907 ) ) ;
#332 = FACE_OUTER_BOUND ( 'NONE', #164, .T. ) ;
#333 = CARTESIAN_POINT ( 'NONE',  ( 31.77724553496496895, -2.332591411298389872, 4.422557857836820538 ) ) ;
#334 = DIRECTION ( 'NONE',  ( 0.000000000000000000, 0.000000000000000000, 1.000000000000000000 ) ) ;
#335 = EDGE_LOOP ( 'NONE', ( #597 ) ) ;
#336 = CARTESIAN_POINT ( 'NONE',  ( 30.07681625141059101, 0.8396574715947477952, 4.383755093829147853 ) ) ;
#337 = CARTESIAN_POINT ( 'NONE',  ( 32.22258320861379843, -1.442824823974214077, -4.091200860703877673 ) ) ;
#338 = CARTESIAN_POINT ( 'NONE',  ( 33.46270385003443693, -0.8289819075616083888, 4.931333386443532696 ) ) ;
#339 = CARTESIAN_POINT ( 'NONE',  ( 30.93676318311100104, 2.332153403197657404, 4.422763657195825537 ) ) ;
#340 = CARTESIAN_POINT ( 'NONE',  ( 29.99772802656708848, 0.5506168521195033971, -4.436626687318393714 ) ) ;
#341 = CARTESIAN_POINT ( 'NONE',  ( 32.75475086363549337, 0.9927740277656365020, 4.306617849866469783 ) ) ;
#342 = CARTESIAN_POINT ( 'NONE',  ( 33.58655513632895406, -0.3058552201813282134, 4.992916616488873416 ) ) ;
#343 = SURFACE_STYLE_FILL_AREA ( #676 ) ;
#344 = CARTESIAN_POINT ( 'NONE',  ( 30.30523632105260745, 1.064208509394700242, -4.277775915598224010 ) ) ;
#345 = CARTESIAN_POINT ( 'NONE',  ( 32.20820616574069106, -2.194907209046708552, -4.492480644774640375 ) ) ;
#346 = COLOUR_RGB ( '',0.7921568627450980005, 0.8196078431372548767, 0.9333333333333333481 ) ;
#347 = CARTESIAN_POINT ( 'NONE',  ( 32.88604671123684398, 1.759971956729527331, 4.681425891360952107 ) ) ;
#348 =( NAMED_UNIT ( * ) SI_UNIT ( $, .STERADIAN. ) SOLID_ANGLE_UNIT ( ) );
#349 = CARTESIAN_POINT ( 'NONE',  ( 32.43332574512866984, 1.301139805735085808, -4.165640238278157881 ) ) ;
#350 = CARTESIAN_POINT ( 'NONE',  ( 30.66933372757911513, 1.367477072517998549, 4.130872034376702473 ) ) ;
#351 = CARTESIAN_POINT ( 'NONE',  ( 29.65561394068403800, 1.168376226617911184, 4.869686716215059441 ) ) ;
#352 = EDGE_CURVE ( 'NONE', #217, #217, #247, .T. ) ;
#353 = CARTESIAN_POINT ( 'NONE',  ( 33.60063683691252834, -0.6232664290970104659, 5.000281719571360917 ) ) ;
#354 = CARTESIAN_POINT ( 'NONE',  ( 29.90000304443106671, -0.003121244966705940573, 4.499998189827700834 ) ) ;
#355 = CARTESIAN_POINT ( 'NONE',  ( 30.95522039320785979, 2.253275744346098008, 4.463563468776182930 ) ) ;
#356 = CARTESIAN_POINT ( 'NONE',  ( 33.39516003154246704, 1.031879028854661096, -4.894371160447476221 ) ) ;
#357 = CARTESIAN_POINT ( 'NONE',  ( 32.50872608363786753, -1.242371572169822747, 4.194891345083926026 ) ) ;
#358 = CARTESIAN_POINT ( 'NONE',  ( 33.59999997272986150, -1.138412281109779656E-15, 4.999999999999998224 ) ) ;
#359 = AXIS2_PLACEMENT_3D ( 'NONE', #57, #425, #170 ) ;
#360 = CARTESIAN_POINT ( 'NONE',  ( 32.98455904327421706, 1.650321434842116020, -4.719792279507714738 ) ) ;
#361 = CARTESIAN_POINT ( 'NONE',  ( 32.93117215394644859, -0.7454117285582672059, 4.395067927722593026 ) ) ;
#362 = CARTESIAN_POINT ( 'NONE',  ( 29.63207132681248268, -1.224500418210152208, -4.870838944912367907 ) ) ;
#363 = CARTESIAN_POINT ( 'NONE',  ( 30.56582577007260682, 2.092886882964681838, -4.541375501661327085 ) ) ;
#364 = DIRECTION ( 'NONE',  ( 1.000000000000000000, 0.000000000000000000, 0.000000000000000000 ) ) ;
#365 = CARTESIAN_POINT ( 'NONE',  ( 29.89938123158741234, -0.4255166345989485621, -4.500384277810209888 ) ) ;
#366 = ORIENTED_EDGE ( 'NONE', *, *, #106, .F. ) ;
#367 = CARTESIAN_POINT ( 'NONE',  ( 30.72530736628291237, 2.166590621838242026, -4.506234765506676787 ) ) ;
#368 = CARTESIAN_POINT ( 'NONE',  ( 32.48359263746812786, -1.261960983358252797, 4.185140976148669978 ) ) ;
#369 = CARTESIAN_POINT ( 'NONE',  ( 32.63041589343764315, -1.132325000988499752, -4.247502768621309599 ) ) ;
#370 = ORIENTED_EDGE ( 'NONE', *, *, #489, .F. ) ;
#371 = CARTESIAN_POINT ( 'NONE',  ( 32.14143903313693329, -2.220666519557495722, -4.479821721066373996 ) ) ;
#372 = AXIS2_PLACEMENT_3D ( 'NONE', #14, #442, #73 ) ;
#373 = CARTESIAN_POINT ( 'NONE',  ( 30.07860445236720537, 0.8424770726995374215, -4.382930018737133615 ) ) ;
#374 = ADVANCED_FACE ( 'NONE', ( #654 ), #13, .T. ) ;
#375 = CARTESIAN_POINT ( 'NONE',  ( 30.62646351077114915, -2.120026081202974755, -4.528334231495803941 ) ) ;
#376 =( LENGTH_UNIT ( ) NAMED_UNIT ( * ) SI_UNIT ( .MILLI., .METRE. ) );
#377 = CARTESIAN_POINT ( 'NONE',  ( 32.33915269412357674, -1.423738842440498642, -4.111664476277374192 ) ) ;
#378 = ORIENTED_EDGE ( 'NONE', *, *, #678, .F. ) ;
#379 = CARTESIAN_POINT ( 'NONE',  ( 30.44425085900343220, -2.017216871383263221, -4.575188847970263595 ) ) ;
#380 = CARTESIAN_POINT ( 'NONE',  ( 29.99640976293949635, -0.5470067632272340719, -4.437160390483616546 ) ) ;
#381 = ORIENTED_EDGE ( 'NONE', *, *, #352, .T. ) ;
#382 = CARTESIAN_POINT ( 'NONE',  ( 32.02471510487575301, 1.511513830143558001, 4.046608776323062706 ) ) ;
#383 = MECHANICAL_DESIGN_GEOMETRIC_PRESENTATION_REPRESENTATION (  '', ( #437 ), #177 ) ;
#384 = EDGE_LOOP ( 'NONE', ( #689 ) ) ;
#385 = CARTESIAN_POINT ( 'NONE',  ( 30.18787040039633141, 0.9506053887327104990, 4.332082418137638058 ) ) ;
#386 = CARTESIAN_POINT ( 'NONE',  ( 32.81159266689115128, 0.9512377102151782227, -4.331972599967538251 ) ) ;
#387 = CARTESIAN_POINT ( 'NONE',  ( 33.52839429867925247, -0.6058533600896417459, 4.963721367763825221 ) ) ;
#388 = CARTESIAN_POINT ( 'NONE',  ( 30.07860445236720537, -0.8424770726995413073, 4.382930018737130951 ) ) ;
#389 = CARTESIAN_POINT ( 'NONE',  ( 30.41692282680805803, -1.178145355050419951, -4.226002958931354136 ) ) ;
#390 = UNCERTAINTY_MEASURE_WITH_UNIT (LENGTH_MEASURE( 1.000000000000000082E-05 ), #376, 'distance_accuracy_value', 'NONE');
#391 = CARTESIAN_POINT ( 'NONE',  ( 29.81193238247393040, -1.424756666555033524, 4.798767275423591272 ) ) ;
#392 = CARTESIAN_POINT ( 'NONE',  ( 30.66040004042168832, 1.423042219051525059, 4.112145663983565846 ) ) ;
#393 = CYLINDRICAL_SURFACE ( 'NONE', #372, 8.999999999999998224 ) ;
#394 = CARTESIAN_POINT ( 'NONE',  ( 31.07508775269722179, -1.600864249569110109, 3.979380444344155610 ) ) ;
#395 = CARTESIAN_POINT ( 'NONE',  ( 30.14294941019929652, 0.8475928838313622204, -4.357672041423956699 ) ) ;
#396 = CARTESIAN_POINT ( 'NONE',  ( 32.85748153011730466, 0.8469025300413396407, 4.357860668110117963 ) ) ;
#397 = CARTESIAN_POINT ( 'NONE',  ( 30.22213126325564048, -1.853007134938640554, 4.644242743740515600 ) ) ;
#398 = CARTESIAN_POINT ( 'NONE',  ( 33.36674092306478911, -1.226630860915493448, 4.870516835508017728 ) ) ;
#399 = CARTESIAN_POINT ( 'NONE',  ( 30.97578138984652441, 1.511686094653505341, -4.046516726105193307 ) ) ;
#400 = CARTESIAN_POINT ( 'NONE',  ( 32.96666002588315081, 0.6479955009064677363, 4.415688075099636123 ) ) ;
#401 = FACE_BOUND ( 'NONE', #594, .T. ) ;
#402 = CARTESIAN_POINT ( 'NONE',  ( 30.94230653274000176, -2.334593630006926546, 4.421533777811929689 ) ) ;
#403 = CARTESIAN_POINT ( 'NONE',  ( 30.17370982125948942, 0.8968422755712438521, -4.341886884072674313 ) ) ;
#404 = CARTESIAN_POINT ( 'NONE',  ( 32.43862715035002253, 1.323790386968150656, 4.158165524803924207 ) ) ;
#405 = CARTESIAN_POINT ( 'NONE',  ( 29.40264389538844725, 0.1342126723515798814, 4.998470560479144176 ) ) ;
#406 = PRESENTATION_STYLE_ASSIGNMENT (( #305 ) ) ;
#407 = FACE_OUTER_BOUND ( 'NONE', #335, .T. ) ;
#408 = CARTESIAN_POINT ( 'NONE',  ( 29.42619588958054067, -0.3929162543524372664, 4.985099430755758121 ) ) ;
#409 = CARTESIAN_POINT ( 'NONE',  ( 33.59999997272988281, 4.878909776184769953E-16, 4.999999999999998224 ) ) ;
#410 = CARTESIAN_POINT ( 'NONE',  ( 30.56192268961291347, -1.324119380303951043, 4.157955011686304658 ) ) ;
#411 = CARTESIAN_POINT ( 'NONE',  ( 33.54474625632651907, 0.5316249421061971514, 4.972229569237961222 ) ) ;
#412 = CARTESIAN_POINT ( 'NONE',  ( 32.61390712851458318, 1.978509360627121350, -4.592116077860500134 ) ) ;
#413 = CARTESIAN_POINT ( 'NONE',  ( 32.55827104974369490, -1.200025993582808592, 4.215434561274561176 ) ) ;
#414 = CARTESIAN_POINT ( 'NONE',  ( 3.999999999999999112, 0.000000000000000000, 0.000000000000000000 ) ) ;
#415 = PRESENTATION_LAYER_ASSIGNMENT (  '', '', ( #437 ) ) ;
#416 = CARTESIAN_POINT ( 'NONE',  ( 29.39952648150363856, -0.3151601819189073228, -5.000288982220398637 ) ) ;
#417 = CARTESIAN_POINT ( 'NONE',  ( 32.38223922537573429, -1.336129481610236702, 4.147529471501144371 ) ) ;
#418 = CARTESIAN_POINT ( 'NONE',  ( 30.39994654509093763, 2.075894069463442015, -4.568310553177188815 ) ) ;
#419 = EDGE_LOOP ( 'NONE', ( #154 ) ) ;
#420 = CARTESIAN_POINT ( 'NONE',  ( 30.21750001564895172, -1.853910723387820259, -4.644476138476854032 ) ) ;
#421 = CARTESIAN_POINT ( 'NONE',  ( 32.63109261908752501, -1.131649012302735180, 4.247813103040694926 ) ) ;
#422 = CARTESIAN_POINT ( 'NONE',  ( 33.59999997272988281, 5.421010862427522170E-16, -4.999999999999998224 ) ) ;
#423 = CARTESIAN_POINT ( 'NONE',  ( 30.95343347679231272, -2.272856656959591604, -4.455618656897672558 ) ) ;
#424 = ADVANCED_FACE ( 'NONE', ( #172, #281 ), #134, .T. ) ;
#425 = DIRECTION ( 'NONE',  ( 0.000000000000000000, 0.000000000000000000, 1.000000000000000000 ) ) ;
#426 = CARTESIAN_POINT ( 'NONE',  ( 32.60138779271991183, -2.076285875397361647, -4.568515988315202669 ) ) ;
#427 = CARTESIAN_POINT ( 'NONE',  ( 29.99067631359583075, -1.622760672266741366, -4.729426332772969310 ) ) ;
#428 = VERTEX_POINT ( 'NONE', #478 ) ;
#429 = DIRECTION ( 'NONE',  ( 0.000000000000000000, 0.000000000000000000, 1.000000000000000000 ) ) ;
#430 = ORIENTED_EDGE ( 'NONE', *, *, #249, .T. ) ;
#431 = CARTESIAN_POINT ( 'NONE',  ( 30.50420959425601808, -2.052730671469404022, -4.559199139148096158 ) ) ;
#432 = CARTESIAN_POINT ( 'NONE',  ( 33.59936310854723729, -0.6232664290970029164, -4.999718280428633754 ) ) ;
#433 = CARTESIAN_POINT ( 'NONE',  ( 33.07467798198206310, 0.3526307643060641039, 4.478812396579376021 ) ) ;
#434 = CARTESIAN_POINT ( 'NONE',  ( 30.46627442766656912, -1.221676750134931266, -4.205098837193553152 ) ) ;
#435 = CARTESIAN_POINT ( 'NONE',  ( 30.44568074531252933, -2.022196807069945201, 4.573711657605568526 ) ) ;
#436 = CARTESIAN_POINT ( 'NONE',  ( 31.82684700113473042, 1.580202836314396064, 4.002016691941615356 ) ) ;
#437 = STYLED_ITEM ( 'NONE', ( #406 ), #445 ) ;
#438 = CARTESIAN_POINT ( 'NONE',  ( 33.07484208649323421, 0.3518021914564578023, -4.479130244889117485 ) ) ;
#439 = CARTESIAN_POINT ( 'NONE',  ( 30.77192713129970869, -1.429796859779108864, -4.097410176799201942 ) ) ;
#440 = CARTESIAN_POINT ( 'NONE',  ( 29.50358123831014368, -0.7599456022403048294, 4.943891947757477645 ) ) ;
#441 = DIRECTION ( 'NONE',  ( -1.000000000000000000, -0.000000000000000000, -0.000000000000000000 ) ) ;
#442 = DIRECTION ( 'NONE',  ( -1.000000000000000000, -0.000000000000000000, -0.000000000000000000 ) ) ;
#443 = CARTESIAN_POINT ( 'NONE',  ( 31.50000000000000711, 0.000000000000000000, -5.000000000000000000 ) ) ;
#444 = CARTESIAN_POINT ( 'NONE',  ( 32.04734826563961292, -2.272697172513029606, 4.455706864853704374 ) ) ;
#445 = MANIFOLD_SOLID_BREP ( 'HoleChamfers', #462 ) ;
#446 = DIRECTION ( 'NONE',  ( 0.000000000000000000, 0.000000000000000000, -1.000000000000000000 ) ) ;
#447 = CARTESIAN_POINT ( 'NONE',  ( 30.06818893648701518, -0.7443104746723655518, -4.395152421996725955 ) ) ;
#448 = CARTESIAN_POINT ( 'NONE',  ( 33.54478690652654649, -0.6090911190096897077, -4.971589733850613868 ) ) ;
#449 = PLANE ( 'NONE',  #677 ) ;
#450 = CARTESIAN_POINT ( 'NONE',  ( 29.63441827833959508, -1.228612267652421819, 4.869922219326410229 ) ) ;
#451 = CARTESIAN_POINT ( 'NONE',  ( 30.37023420377883554, 1.132973629741117483, -4.247204799102997974 ) ) ;
#452 = CARTESIAN_POINT ( 'NONE',  ( 33.00266601124945254, 0.5495405887063331551, 4.436729515592881867 ) ) ;
#453 = CARTESIAN_POINT ( 'NONE',  ( 33.52757281985424243, 0.6062285077148820145, 4.963674781722350104 ) ) ;
#454 = ADVANCED_FACE ( 'NONE', ( #628, #309 ), #114, .T. ) ;
#455 = CARTESIAN_POINT ( 'NONE',  ( 31.77724553496853588, 2.332591411298380102, -4.422557857836824091 ) ) ;
#456 = CARTESIAN_POINT ( 'NONE',  ( 30.77785779843404157, 1.443050661428448178, -4.091058987353702214 ) ) ;
#457 = CARTESIAN_POINT ( 'NONE',  ( 33.37836667691883719, -1.041172716172703572, -4.890877791446370360 ) ) ;
#458 = CARTESIAN_POINT ( 'NONE',  ( 30.44241514911274749, 2.020325707674793136, 4.574541365797313297 ) ) ;
#459 = B_SPLINE_CURVE_WITH_KNOTS ( 'NONE', 3,
 ( #289, #277, #342, #76, #387, #122, #338, #652, #658, #554, #175, #286, #10, #549, #603, #613, #223, #128, #67, #444, #333, #19, #661, #226, #124, #556, #501, #23, #666, #608, #435, #182, #397, #167, #70, #330, #495, #391, #546, #440, #193, #408, #41, #621, #297, #683, #186, #468, #510, #569, #634, #517, #139, #405, #96, #89, #625, #38, #351, #145, #463, #243, #27, #251, #301, #458, #239, #680, #308, #514, #142, #355, #519, #31, #35, #675, #196, #304, #506, #150, #190, #85, #572, #347, #246, #254, #627, #92, #465, #686, #453, #411, #560, #630, #358 ),
 .UNSPECIFIED., .T., .F.,
 ( 4, 2, 2, 2, 2, 2, 2, 2, 2, 2, 2, 2, 2, 2, 2, 2, 2, 2, 2, 2, 2, 2, 1, 1, 2, 2, 2, 1, 1, 1, 2, 2, 2, 2, 1, 2, 2, 2, 2, 2, 2, 2, 2, 1, 2, 2, 2, 2, 2, 2, 4 ),
 ( 0.000000000000000000, 0.03124999999999704403, 0.04687499999999556605, 0.06249999999999408806, 0.09374999999999165945, 0.1249999999999892308, 0.1562499999999867883, 0.1718749999999849842, 0.1796874999999840683, 0.1874999999999831246, 0.2499999999999783507, 0.2812499999999767408, 0.2968749999999759082, 0.3046874999999755196, 0.3124999999999750755, 0.3437499999999729661, 0.3593749999999721889, 0.3671874999999717448, 0.3749999999999713562, 0.4374999999999695244, 0.4687499999999685252, 0.4843749999999680256, 0.4921874999999677480, 0.4960937499999676925, 0.4980468749999675815, 0.4999999999999675815, 0.5019531249999674705, 0.5039062499999674705, 0.5078124999999672484, 0.5156249999999671374, 0.5312499999999666933, 0.5624999999999660272, 0.6249999999999641398, 0.6328124999999640288, 0.6406249999999638067, 0.6562499999999633626, 0.6874999999999624745, 0.6953124999999626965, 0.7031249999999628075, 0.7187499999999636957, 0.7499999999999661382, 0.8124999999999727995, 0.8203124999999732436, 0.8281249999999736877, 0.8437499999999760192, 0.8749999999999805711, 0.9062499999999852340, 0.9374999999999897859, 0.9531249999999923395, 0.9687499999999948930, 1.000000000000000000 ),
 .UNSPECIFIED. ) ;
#460 = CARTESIAN_POINT ( 'NONE',  ( 34.00000000000000000, 0.000000000000000000, 0.000000000000000000 ) ) ;
#461 = DIRECTION ( 'NONE',  ( 0.000000000000000000, 0.000000000000000000, -1.000000000000000000 ) ) ;
#462 = CLOSED_SHELL ( 'NONE', ( #12, #667, #53, #146, #220, #329, #454, #374, #260, #424, #174 ) ) ;
#463 = CARTESIAN_POINT ( 'NONE',  ( 30.04056534399515854, 1.678274122090513965, 4.710022425291895409 ) ) ;
#464 = CARTESIAN_POINT ( 'NONE',  ( 29.89968436348641134, 0.1602393841053103285, 4.500113626379789622 ) ) ;
#465 = CARTESIAN_POINT ( 'NONE',  ( 33.46190898797950553, 0.8288924566810408345, 4.931350833707592862 ) ) ;
#466 = CARTESIAN_POINT ( 'NONE',  ( 33.03509400542608176, 1.592903279201081324, -4.739578977270518578 ) ) ;
#467 = CARTESIAN_POINT ( 'NONE',  ( 32.43332574512864142, -1.301139805735113120, 4.165640238278158769 ) ) ;
#468 = CARTESIAN_POINT ( 'NONE',  ( 29.40008377298970998, -0.02445450751618628848, 4.999950043862222415 ) ) ;
#469 = CARTESIAN_POINT ( 'NONE',  ( 33.44644677566377311, 0.8939826083791090339, -4.919430362950130586 ) ) ;
#470 = CARTESIAN_POINT ( 'NONE',  ( 29.90032172537572563, -0.1664818740387222773, 4.499882753275612934 ) ) ;
#471 = CARTESIAN_POINT ( 'NONE',  ( 31.07508775269722179, 1.600864249569108999, -3.979380444344154721 ) ) ;
#472 = EDGE_LOOP ( 'NONE', ( #105 ) ) ;
#473 = CARTESIAN_POINT ( 'NONE',  ( 30.04283866537042869, 1.680690231308196392, -4.709160025105361136 ) ) ;
#474 = CARTESIAN_POINT ( 'NONE',  ( 33.00300712021984850, -0.5486069600073234520, 4.437099086305855700 ) ) ;
#475 = CARTESIAN_POINT ( 'NONE',  ( 32.82673612535802476, -0.8961836664369572381, -4.342091772529156124 ) ) ;
#476 = CARTESIAN_POINT ( 'NONE',  ( 31.49813311901869639, -2.333332352730483894, -4.422166904550437039 ) ) ;
#477 = EDGE_CURVE ( 'NONE', #544, #544, #58, .T. ) ;
#478 = CARTESIAN_POINT ( 'NONE',  ( 4.599999999999999645, 0.000000000000000000, 4.999999999999998224 ) ) ;
#479 = CARTESIAN_POINT ( 'NONE',  ( 30.93676318311100459, -2.332153403197655628, -4.422763657195826426 ) ) ;
#480 = EDGE_LOOP ( 'NONE', ( #204 ) ) ;
#481 = CARTESIAN_POINT ( 'NONE',  ( 30.22213126325456756, 1.853007134936997202, -4.644242743741167523 ) ) ;
#482 = CARTESIAN_POINT ( 'NONE',  ( 33.59999997272988281, 5.421010862427522170E-16, -4.999999999999998224 ) ) ;
#483 = TOROIDAL_SURFACE ( 'NONE', #201, 5.599999999999997868, 0.5999999999999998668 ) ;
#484 = CARTESIAN_POINT ( 'NONE',  ( 29.87058384263977828, -1.473839632677371059, -4.777844360917316457 ) ) ;
#485 = CARTESIAN_POINT ( 'NONE',  ( 32.92167909275171667, -0.8409111595364948677, -4.383341060965245894 ) ) ;
#486 = CARTESIAN_POINT ( 'NONE',  ( 30.33297597275708668, 1.939147587574328035, -4.608655621068322716 ) ) ;
#487 = CARTESIAN_POINT ( 'NONE',  ( 30.87477654006394445, -1.476495025002652728, -4.069512576486308930 ) ) ;
#488 = EDGE_LOOP ( 'NONE', ( #378 ) ) ;
#489 = EDGE_CURVE ( 'NONE', #266, #266, #256, .T. ) ;
#490 = CARTESIAN_POINT ( 'NONE',  ( 30.41692282680833515, 1.178145355050680410, 4.226002958931249331 ) ) ;
#491 = CARTESIAN_POINT ( 'NONE',  ( 4.000000000000000000, 0.000000000000000000, 0.000000000000000000 ) ) ;
#492 = CARTESIAN_POINT ( 'NONE',  ( 31.35110816445627790, -1.599868268696935214, -3.980102890307587238 ) ) ;
#493 = DIRECTION ( 'NONE',  ( -1.000000000000000000, 0.000000000000000000, -0.000000000000000000 ) ) ;
#494 = CARTESIAN_POINT ( 'NONE',  ( 31.93001202812142836, -1.599131686715180134, 3.980522018879733892 ) ) ;
#495 = CARTESIAN_POINT ( 'NONE',  ( 30.04283866537043579, -1.680690231308296756, 4.709160025105326497 ) ) ;
#496 = DIRECTION ( 'NONE',  ( -0.000000000000000000, -0.000000000000000000, 1.000000000000000000 ) ) ;
#497 = EDGE_CURVE ( 'NONE', #428, #428, #81, .T. ) ;
#498 = EDGE_LOOP ( 'NONE', ( #62 ) ) ;
#499 = CARTESIAN_POINT ( 'NONE',  ( 33.59936310854723729, 0.6232664290970114651, 4.999718280428635531 ) ) ;
#500 = CARTESIAN_POINT ( 'NONE',  ( 32.43563726929443902, -2.092770142239066100, -4.541430313582669243 ) ) ;
#501 = CARTESIAN_POINT ( 'NONE',  ( 30.82674647542136270, -2.208335010517723962, 4.485919980197443202 ) ) ;
#502 = CARTESIAN_POINT ( 'NONE',  ( 0.000000000000000000, 0.000000000000000000, 0.000000000000000000 ) ) ;
#503 = AXIS2_PLACEMENT_3D ( 'NONE', #570, #194, #566 ) ;
#504 = CARTESIAN_POINT ( 'NONE',  ( 29.92570137178296008, 0.3541033883455346198, -4.478758919105844782 ) ) ;
#505 = CARTESIAN_POINT ( 'NONE',  ( 31.49857761447195870, 1.599999367755945867, 3.979950262332628164 ) ) ;
#506 = CARTESIAN_POINT ( 'NONE',  ( 32.37137788793008752, 2.121546200932332926, 4.527622145538353848 ) ) ;
#507 = CARTESIAN_POINT ( 'NONE',  ( 32.37410357818470885, 2.119676562083277815, -4.528497787218014103 ) ) ;
#508 = CARTESIAN_POINT ( 'NONE',  ( 29.89968436348641134, -0.1602393841058069035, -4.500113626379790510 ) ) ;
#509 = CARTESIAN_POINT ( 'NONE',  ( 32.91897233963685920, 0.7483402572486529403, 4.389398459272047859 ) ) ;
#510 = CARTESIAN_POINT ( 'NONE',  ( 29.40001559770298201, -0.01230097092211548601, 4.999990873549118753 ) ) ;
#511 = CARTESIAN_POINT ( 'NONE',  ( 32.34398431804610397, 2.134638351711901194, -4.521460803381704530 ) ) ;
#512 = CARTESIAN_POINT ( 'NONE',  ( 32.55827104974370911, 1.200025993582795936, -4.215434561274558511 ) ) ;
#513 = CARTESIAN_POINT ( 'NONE',  ( 31.35490537254969468, -1.600233266778479102, 3.979786661365714018 ) ) ;
#514 = CARTESIAN_POINT ( 'NONE',  ( 30.82196310455820409, 2.206659859387626987, 4.486744155014752877 ) ) ;
#515 = CARTESIAN_POINT ( 'NONE',  ( 33.25404472638442854, 1.290049166128580893, -4.830711453706475034 ) ) ;
#516 = CARTESIAN_POINT ( 'NONE',  ( 30.32597938341628208, -1.087496293023080485, 4.267913799645924655 ) ) ;
#517 = CARTESIAN_POINT ( 'NONE',  ( 29.40020593271600191, 0.03521179816717760064, 4.999885931955561524 ) ) ;
#518 = CARTESIAN_POINT ( 'NONE',  ( 29.99772802656683623, -0.5506168521188058440, 4.436626687318392825 ) ) ;
#519 = CARTESIAN_POINT ( 'NONE',  ( 31.02224775249444022, 2.272240395013744862, 4.453898836216136026 ) ) ;
#520 = CARTESIAN_POINT ( 'NONE',  ( 33.59999997272988281, 6.123233995736763324E-16, -4.999999999999997335 ) ) ;
#521 = CARTESIAN_POINT ( 'NONE',  ( 29.99640976293936134, 0.5470067632268612590, 4.437160390483615657 ) ) ;
#522 = CARTESIAN_POINT ( 'NONE',  ( 32.85748153011782335, -0.8469025300405012002, -4.357860668110120628 ) ) ;
#523 = CARTESIAN_POINT ( 'NONE',  ( 30.32994085892220326, -1.937104844572775653, -4.609514597127625457 ) ) ;
#524 = CARTESIAN_POINT ( 'NONE',  ( 32.81159266689119391, -0.9512377102151403641, 4.331972599967540027 ) ) ;
#525 = CARTESIAN_POINT ( 'NONE',  ( 30.94230653273999820, 2.334593630006925213, -4.421533777811927912 ) ) ;
#526 = AXIS2_PLACEMENT_3D ( 'NONE', #491, #284, #659 ) ;
#527 = EDGE_LOOP ( 'NONE', ( #283 ) ) ;
#528 = CARTESIAN_POINT ( 'NONE',  ( 30.38616128055882726, -1.978701905165253239, -4.592033826453010725 ) ) ;
#529 = CARTESIAN_POINT ( 'NONE',  ( 33.36595388902065196, -1.226328627904174517, -4.870378938665510304 ) ) ;
#530 = PRODUCT_DEFINITION_CONTEXT ( 'detailed design', #258, 'design' ) ;
#531 = ORIENTED_EDGE ( 'NONE', *, *, #273, .T. ) ;
#532 = CARTESIAN_POINT ( 'NONE',  ( 30.96069444168797702, 2.254930415673496391, -4.462727696622796891 ) ) ;
#533 = CARTESIAN_POINT ( 'NONE',  ( 31.92629102207493474, -1.600807795935547784, -3.979413181209942252 ) ) ;
#534 = CARTESIAN_POINT ( 'NONE',  ( 29.60668235323260333, 1.197260164553618500, -4.878418164594866546 ) ) ;
#535 = VERTEX_POINT ( 'NONE', #588 ) ;
#536 = CARTESIAN_POINT ( 'NONE',  ( 31.93001202812142836, 1.599131686715181244, -3.980522018879731228 ) ) ;
#537 = EDGE_LOOP ( 'NONE', ( #370 ) ) ;
#538 = AXIS2_PLACEMENT_3D ( 'NONE', #47, #364, #461 ) ;
#539 = CARTESIAN_POINT ( 'NONE',  ( 29.66842923553444678, -1.162360524916767002, -4.864774475505114992 ) ) ;
#540 = PRODUCT_RELATED_PRODUCT_CATEGORY ( 'part', '', ( #140 ) ) ;
#541 = EDGE_LOOP ( 'NONE', ( #531 ) ) ;
#542 = CARTESIAN_POINT ( 'NONE',  ( 30.49125928752623338, 1.242361567838276004, 4.194994542403483351 ) ) ;
#543 = DIRECTION ( 'NONE',  ( 1.000000000000000000, 0.000000000000000000, 0.000000000000000000 ) ) ;
#544 = VERTEX_POINT ( 'NONE', #213 ) ;
#545 = CARTESIAN_POINT ( 'NONE',  ( 31.49857761447196580, -1.599999367755945867, -3.979950262332629940 ) ) ;
#546 = CARTESIAN_POINT ( 'NONE',  ( 29.65787583546748252, -1.172963052856060617, 4.868521060291008951 ) ) ;
#547 = CARTESIAN_POINT ( 'NONE',  ( 32.88716850925010249, -1.758721643016629921, -4.681863791934254948 ) ) ;
#548 = FACE_OUTER_BOUND ( 'NONE', #498, .T. ) ;
#549 = CARTESIAN_POINT ( 'NONE',  ( 32.61390712851729035, -1.978509360624208346, 4.592116077861756018 ) ) ;
#550 = B_SPLINE_SURFACE_WITH_KNOTS ( 'NONE', 1, 3, ( 
 ( #4, #8, #485, #377, #533, #2, #160, #585, #365, #153, #373, #214, #471, #536, #589, #203, #264, #59 ),
 ( #422, #432, #529, #426, #109, #479, #104, #362, #218, #55, #578, #418, #525, #648, #646, #210, #643, #482 ) ),
 .UNSPECIFIED., .F., .T., .F.,
 ( 2, 2 ),
 ( 4, 2, 2, 2, 2, 2, 2, 2, 4 ),
 ( 0.000000000000000000, 1.000000000000000000 ),
 ( -0.01323381773489662287, -0.01156845339258772559, -0.009903089050278826577, -0.008237724707969927562, -0.006572360365661029415, -0.004906996023352131267, -0.003241631681043232686, -0.001576267338734334321, 8.909700357456404318E-05 ),
 .UNSPECIFIED. ) ;
#551 = CONICAL_SURFACE ( 'NONE', #538, 7.999999999999992895, 0.7853981633974504994 ) ;
#552 = CARTESIAN_POINT ( 'NONE',  ( 33.10000000000001563, 2.439454888092384977E-16, 4.500000054540269190 ) ) ;
#553 = UNCERTAINTY_MEASURE_WITH_UNIT (LENGTH_MEASURE( 1.000000000000000082E-05 ), #129, 'distance_accuracy_value', 'NONE');
#554 = CARTESIAN_POINT ( 'NONE',  ( 33.16720230881561093, -1.426779866639568795, 4.793855665551519429 ) ) ;
#555 = CARTESIAN_POINT ( 'NONE',  ( 29.89938123158741590, 0.4255166345989477295, 4.500384277810207223 ) ) ;
#556 = CARTESIAN_POINT ( 'NONE',  ( 30.86018752664698539, -2.220718670825189367, 4.479795866273573957 ) ) ;
#557 = CARTESIAN_POINT ( 'NONE',  ( 30.39802509478388259, 2.075269881138818384, 4.569050671578616551 ) ) ;
#558 = CARTESIAN_POINT ( 'NONE',  ( 30.28449325868885467, 1.040920725766235178, -4.287638031550523365 ) ) ;
#559 = CARTESIAN_POINT ( 'NONE',  ( 32.69532970538726602, 1.063572703400587960, 4.278044342119080135 ) ) ;
#560 = CARTESIAN_POINT ( 'NONE',  ( 33.58600967012711180, 0.3062348233048288182, 4.992893760745414689 ) ) ;
#561 = CARTESIAN_POINT ( 'NONE',  ( 32.46617312355103024, 2.070182092659272222, -4.551343148222662727 ) ) ;
#562 = CIRCLE ( 'NONE', #212, 3.845299461620740544 ) ;
#563 = CARTESIAN_POINT ( 'NONE',  ( 29.90000304443106671, 0.003121244966705621817, -4.499998189827701722 ) ) ;
#564 = CARTESIAN_POINT ( 'NONE',  ( 32.22258320861678271, 1.442824823972719717, 4.091200860704509168 ) ) ;
#565 = PLANE ( 'NONE',  #573 ) ;
#566 = DIRECTION ( 'NONE',  ( 0.000000000000000000, 0.000000000000000000, 1.000000000000000000 ) ) ;
#567 = CARTESIAN_POINT ( 'NONE',  ( 32.48359263746815628, 1.261960983358230370, -4.185140976148669090 ) ) ;
#568 = CARTESIAN_POINT ( 'NONE',  ( 30.61803702571786090, 1.336317178886939683, 4.147602963165743617 ) ) ;
#569 = CARTESIAN_POINT ( 'NONE',  ( 29.39999244846874049, 0.003197339997767082928, 5.000004982645219087 ) ) ;
#570 = CARTESIAN_POINT ( 'NONE',  ( 34.00000000000000000, 0.000000000000000000, 0.000000000000000000 ) ) ;
#571 = VERTEX_POINT ( 'NONE', #91 ) ;
#572 = CARTESIAN_POINT ( 'NONE',  ( 32.78094163617871715, 1.855572236036213685, 4.643812863664603441 ) ) ;
#573 = AXIS2_PLACEMENT_3D ( 'NONE', #688, #274, #314 ) ;
#574 = CARTESIAN_POINT ( 'NONE',  ( 32.60853011311207439, -1.154200425063684587, 4.237293165924839400 ) ) ;
#575 = DIRECTION ( 'NONE',  ( -1.000000000000000000, -0.000000000000000000, -0.000000000000000000 ) ) ;
#576 = CARTESIAN_POINT ( 'NONE',  ( 32.06438692949755875, -2.332066993247175812, 4.422802185242875161 ) ) ;
#577 = CARTESIAN_POINT ( 'NONE',  ( 31.65019440826895902, -1.599762669505764068, 3.980115801858175484 ) ) ;
#578 = CARTESIAN_POINT ( 'NONE',  ( 29.63441827833959508, 1.228612267652412049, -4.869922219326413781 ) ) ;
#579 = CARTESIAN_POINT ( 'NONE',  ( 30.01718241171526103, 1.652253168557927143, -4.719116386251801742 ) ) ;
#580 = EDGE_CURVE ( 'NONE', #535, #535, #320, .T. ) ;
#581 = CARTESIAN_POINT ( 'NONE',  ( 32.02739077257495381, -1.510582329104514621, 4.047163554838479449 ) ) ;
#582 = CARTESIAN_POINT ( 'NONE',  ( 33.07467798198235442, -0.3526307643047641993, -4.478812396579378685 ) ) ;
#583 = CARTESIAN_POINT ( 'NONE',  ( 30.11253579960761328, -1.758383059305449025, -4.682018710135588790 ) ) ;
#584 = CARTESIAN_POINT ( 'NONE',  ( 31.83011914647597251, -1.579455923936734729, 4.002519909600354531 ) ) ;
#585 = CARTESIAN_POINT ( 'NONE',  ( 30.07681625141058745, -0.8396574715947465739, -4.383755093829146965 ) ) ;
#586 = AXIS2_PLACEMENT_3D ( 'NONE', #119, #543, #446 ) ;
#587 = CARTESIAN_POINT ( 'NONE',  ( 32.17485563297134377, -2.208282247285296762, -4.485945954884479114 ) ) ;
#588 = CARTESIAN_POINT ( 'NONE',  ( 33.10000000000000853, 0.000000000000000000, 4.500000054540269190 ) ) ;
#589 = CARTESIAN_POINT ( 'NONE',  ( 32.33990650013431178, 1.422179620084238261, -4.112161037777961603 ) ) ;
#590 = ORIENTED_EDGE ( 'NONE', *, *, #497, .F. ) ;
#591 = CARTESIAN_POINT ( 'NONE',  ( 30.89368983165945792, 2.232122585774627410, -4.474106476389980713 ) ) ;
#592 = SHAPE_DEFINITION_REPRESENTATION ( #632, #324 ) ;
#593 = CARTESIAN_POINT ( 'NONE',  ( 33.10000000000000853, -0.1643105346476441408, -4.499902576228506312 ) ) ;
#594 = EDGE_LOOP ( 'NONE', ( #381 ) ) ;
#595 = CARTESIAN_POINT ( 'NONE',  ( 30.69341104704085410, 2.151849874063529899, -4.513262912737606491 ) ) ;
#596 = CARTESIAN_POINT ( 'NONE',  ( 29.92463058939198106, -0.3497030517821026474, -4.479168358970507136 ) ) ;
#597 = ORIENTED_EDGE ( 'NONE', *, *, #130, .T. ) ;
#598 = AXIS2_PLACEMENT_3D ( 'NONE', #502, #614, #229 ) ;
#599 = CARTESIAN_POINT ( 'NONE',  ( 31.35110816445783755, 1.599868268696935880, 3.980102890307162244 ) ) ;
#600 = CARTESIAN_POINT ( 'NONE',  ( 30.39994654509094474, -2.075894069463446456, 4.568310553177188815 ) ) ;
#601 = CARTESIAN_POINT ( 'NONE',  ( 4.000000000000000000, 0.000000000000000000, 5.599999999999997868 ) ) ;
#602 = CARTESIAN_POINT ( 'NONE',  ( 31.82684700113146903, -1.580202836315071080, -4.002016691940983861 ) ) ;
#603 = CARTESIAN_POINT ( 'NONE',  ( 32.55592568081969063, -2.016971423895208559, 4.575296676036672672 ) ) ;
#604 = CARTESIAN_POINT ( 'NONE',  ( 32.71604853547799507, 1.040287193167825697, 4.287896855659941053 ) ) ;
#605 = FACE_BOUND ( 'NONE', #112, .T. ) ;
#606 = CARTESIAN_POINT ( 'NONE',  ( 4.770489558939738569E-17, 0.000000000000000000, 7.999999999999992895 ) ) ;
#607 = CARTESIAN_POINT ( 'NONE',  ( 31.17111473584369818, -1.579747517126960821, -4.002512547342877980 ) ) ;
#608 = CARTESIAN_POINT ( 'NONE',  ( 30.56582577007338486, -2.092886882965837803, 4.541375501660773750 ) ) ;
#609 = CARTESIAN_POINT ( 'NONE',  ( 32.92227873804073823, -0.8411184045212306559, 4.383465168303424697 ) ) ;
#610 = EDGE_LOOP ( 'NONE', ( #110 ) ) ;
#611 = AXIS2_PLACEMENT_3D ( 'NONE', #460, #191, #622 ) ;
#612 = CARTESIAN_POINT ( 'NONE',  ( 32.63109261908752501, 1.131649012302735180, -4.247813103040694038 ) ) ;
#613 = CARTESIAN_POINT ( 'NONE',  ( 32.46617312355282081, -2.070182092657348871, 4.551343148223538471 ) ) ;
#614 = DIRECTION ( 'NONE',  ( -1.000000000000000000, -0.000000000000000000, -0.000000000000000000 ) ) ;
#615 = CARTESIAN_POINT ( 'NONE',  ( 30.03374135395915800, 0.6488735840064878690, -4.415560571424668623 ) ) ;
#616 = CARTESIAN_POINT ( 'NONE',  ( 33.34608202420917422, -1.108210172076942390, -4.875640492746073029 ) ) ;
#617 = ORIENTED_EDGE ( 'NONE', *, *, #352, .F. ) ;
#618 = CARTESIAN_POINT ( 'NONE',  ( 32.67003498573185283, 1.936978587217550674, -4.609567653550675992 ) ) ;
#619 = CARTESIAN_POINT ( 'NONE',  ( 30.32597938341636024, 1.087496293023165528, -4.267913799645924655 ) ) ;
#620 = CARTESIAN_POINT ( 'NONE',  ( 32.63041589343764315, 1.132325000988497310, 4.247502768621310487 ) ) ;
#621 = CARTESIAN_POINT ( 'NONE',  ( 29.40670077105383484, -0.2012927437901458616, 4.996095820228634743 ) ) ;
#622 = DIRECTION ( 'NONE',  ( 0.000000000000000000, 0.000000000000000000, 1.000000000000000000 ) ) ;
#623 = CARTESIAN_POINT ( 'NONE',  ( 32.33105286562112468, 1.367242163825760359, -4.130808675817625009 ) ) ;
#624 = CARTESIAN_POINT ( 'NONE',  ( 30.87477654006611871, 1.476495025003572881, 4.069512576485672106 ) ) ;
#625 = CARTESIAN_POINT ( 'NONE',  ( 29.46351009643503360, 0.6095570548306661340, 4.964978290132374461 ) ) ;
#626 = CARTESIAN_POINT ( 'NONE',  ( 29.92570137178280021, -0.3541033883448027608, 4.478758919105843894 ) ) ;
#627 = CARTESIAN_POINT ( 'NONE',  ( 33.31646490627264257, 1.177470343315651924, 4.861106747398220129 ) ) ;
#628 = FACE_BOUND ( 'NONE', #541, .T. ) ;
#629 = CARTESIAN_POINT ( 'NONE',  ( 31.17370498125978173, -1.580321527878721932, 4.001974464856684399 ) ) ;
#630 = CARTESIAN_POINT ( 'NONE',  ( 33.59984300612281061, 0.1536151966524425261, 4.999999999999999112 ) ) ;
#631 = CARTESIAN_POINT ( 'NONE',  ( 33.21555408201863457, 1.353093393156398649, -4.813875392748195203 ) ) ;
#632 = PRODUCT_DEFINITION_SHAPE ( 'NONE', 'NONE',  #206 ) ;
#633 = CARTESIAN_POINT ( 'NONE',  ( 29.92463058939189224, 0.3497030517817119599, 4.479168358970506247 ) ) ;
#634 = CARTESIAN_POINT ( 'NONE',  ( 29.40002978868890082, 0.01529196300500789037, 4.999986535818464084 ) ) ;
#635 = CARTESIAN_POINT ( 'NONE',  ( 30.14318287299411026, 1.781323681327221298, -4.671995555281789336 ) ) ;
#636 = CARTESIAN_POINT ( 'NONE',  ( 31.50254989040932685, -1.599997968142121474, 3.979951231611944529 ) ) ;
#637 = CARTESIAN_POINT ( 'NONE',  ( 32.67461087529667196, -1.086858213633197900, -4.268191828578219216 ) ) ;
#638 = EDGE_LOOP ( 'NONE', ( #158 ) ) ;
#639 = CARTESIAN_POINT ( 'NONE',  ( 30.06655956154834186, 1.705654077892348131, -4.700157705444456546 ) ) ;
#640 = VERTEX_POINT ( 'NONE', #245 ) ;
#641 = CARTESIAN_POINT ( 'NONE',  ( 32.79255073091528772, -0.9449993934700535725, -4.325010833114606434 ) ) ;
#642 = CARTESIAN_POINT ( 'NONE',  ( 31.63523500574018499, -2.333681899386697900, -4.421982468155489343 ) ) ;
#643 = CARTESIAN_POINT ( 'NONE',  ( 33.60063683691252834, 0.6232664290970045817, -5.000281719571362693 ) ) ;
#644 = CARTESIAN_POINT ( 'NONE',  ( 30.16949900308092936, 1.805218165863813340, -4.662744618101582361 ) ) ;
#645 =( NAMED_UNIT ( * ) SI_UNIT ( $, .STERADIAN. ) SOLID_ANGLE_UNIT ( ) );
#646 = CARTESIAN_POINT ( 'NONE',  ( 32.60237716348363790, 2.074012008768741477, -4.569067723507410861 ) ) ;
#647 = CARTESIAN_POINT ( 'NONE',  ( 32.04099103243846969, -2.254881112469804272, -4.462752619529092080 ) ) ;
#648 = CARTESIAN_POINT ( 'NONE',  ( 32.06438692949755875, 2.332066993247175368, -4.422802185242875161 ) ) ;
#649 = EDGE_LOOP ( 'NONE', ( #656 ) ) ;
#650 = CARTESIAN_POINT ( 'NONE',  ( 32.24155669851003125, -2.181532170808120785, -4.499015334664800747 ) ) ;
#651 = CARTESIAN_POINT ( 'NONE',  ( 30.39120036410609416, -1.153942902396915215, -4.237433874002447531 ) ) ;
#652 = CARTESIAN_POINT ( 'NONE',  ( 33.38210191090713153, -1.043002551614038431, 4.892155512920168370 ) ) ;
#653 = CARTESIAN_POINT ( 'NONE',  ( 30.39120036410611192, 1.153942902396939196, 4.237433874002447531 ) ) ;
#654 = FACE_OUTER_BOUND ( 'NONE', #527, .T. ) ;
#655 =( NAMED_UNIT ( * ) PLANE_ANGLE_UNIT ( ) SI_UNIT ( $, .RADIAN. ) );
#656 = ORIENTED_EDGE ( 'NONE', *, *, #580, .F. ) ;
#657 = CYLINDRICAL_SURFACE ( 'NONE', #598, 4.999999999999997335 ) ;
#658 = CARTESIAN_POINT ( 'NONE',  ( 33.31762814005487172, -1.176841675810388566, 4.861254632300617828 ) ) ;
#659 = DIRECTION ( 'NONE',  ( 0.000000000000000000, 0.000000000000000000, 1.000000000000000000 ) ) ;
#660 = CARTESIAN_POINT ( 'NONE',  ( 30.61803702571655350, -1.336317178886068158, -4.147602963166167278 ) ) ;
#661 = CARTESIAN_POINT ( 'NONE',  ( 31.23042798789432695, -2.318957655892840641, 4.429851117232984414 ) ) ;
#662 = PRODUCT_DEFINITION_FORMATION_WITH_SPECIFIED_SOURCE ( 'Symmetric', '', #140, .NOT_KNOWN. ) ;
#663 = CARTESIAN_POINT ( 'NONE',  ( 33.00300712021982008, 0.5486069600073979480, -4.437099086305854811 ) ) ;
#664 = CARTESIAN_POINT ( 'NONE',  ( 32.58288941206670586, 1.178315713740656800, -4.225879915756562966 ) ) ;
#665 = CARTESIAN_POINT ( 'NONE',  ( 33.59999997272988281, 6.123233995736763324E-16, -4.999999999999997335 ) ) ;
#666 = CARTESIAN_POINT ( 'NONE',  ( 30.72530736628272763, -2.166590621837956920, 4.506234765506813567 ) ) ;
#667 = ADVANCED_FACE ( 'NONE', ( #407, #687 ), #551, .T. ) ;
#668 = CARTESIAN_POINT ( 'NONE',  ( 33.10000000000000853, 0.1638072929879689499, -4.500097234300588944 ) ) ;
#669 = CARTESIAN_POINT ( 'NONE',  ( 31.65019440826900876, 1.599762669505763624, -3.980115801858172819 ) ) ;
#670 = CARTESIAN_POINT ( 'NONE',  ( 32.66832894201911586, -1.938778786707045398, -4.608810781125075806 ) ) ;
#671 = DIRECTION ( 'NONE',  ( 0.000000000000000000, 0.000000000000000000, 1.000000000000000000 ) ) ;
#672 = CARTESIAN_POINT ( 'NONE',  ( 31.50334673111877848, 2.333330311626875542, -4.422167981527070246 ) ) ;
#673 = CARTESIAN_POINT ( 'NONE',  ( 32.12602658562451552, 1.476145531688372925, -4.069485377457539244 ) ) ;
#674 = CARTESIAN_POINT ( 'NONE',  ( 33.40749418060332232, -0.9732096391362381471, -4.904930583387890231 ) ) ;
#675 = CARTESIAN_POINT ( 'NONE',  ( 31.77337082332043394, 2.334010824161493858, 4.421808912942789327 ) ) ;
#676 = FILL_AREA_STYLE ('',( #136 ) ) ;
#677 = AXIS2_PLACEMENT_3D ( 'NONE', #117, #493, #178 ) ;
#678 = EDGE_CURVE ( 'NONE', #328, #328, #135, .T. ) ;
#679 = CARTESIAN_POINT ( 'NONE',  ( 32.58288941206669165, -1.178315713740665904, 4.225879915756565630 ) ) ;
#680 = CARTESIAN_POINT ( 'NONE',  ( 30.72151444664327258, 2.165124283091346857, 4.506939664687521940 ) ) ;
#681 = B_SPLINE_CURVE_WITH_KNOTS ( 'NONE', 3,
 ( #98, #593, #582, #208, #101, #311, #522, #475, #641, #44, #162, #259, #317, #637, #157, #369, #267, #337, #222, #602, #285, #545, #492, #607, #66, #487, #439, #325, #660, #282, #232, #16, #434, #173, #389, #651, #72, #21, #447, #380, #596, #508, #563, #25, #504, #340, #615, #291, #395, #403, #237, #33, #83, #558, #344, #619, #126, #451, #78, #456, #399, #131, #29, #295, #669, #184, #241, #673, #188, #623, #137, #349, #567, #87, #299, #512, #664, #180, #612, #386, #121, #663, #438, #668, #116 ),
 .UNSPECIFIED., .T., .F.,
 ( 4, 3, 3, 3, 3, 3, 3, 3, 3, 3, 3, 3, 3, 3, 3, 3, 3, 3, 3, 3, 3, 3, 3, 3, 3, 3, 3, 3, 4 ),
 ( 0.000000000000000000, 0.03571428571428571230, 0.07142857142857142461, 0.1071428571428571369, 0.1428571428571428492, 0.1785714285714285754, 0.2142857142857142738, 0.2500000000000000000, 0.2857142857142856984, 0.3214285714285714524, 0.3571428571428571508, 0.3928571428571428492, 0.4285714285714285476, 0.4642857142857143016, 0.5000000000000000000, 0.5357142857142856984, 0.5714285714285713969, 0.6071428571428570953, 0.6428571428571429047, 0.6785714285714286031, 0.7142857142857143016, 0.7500000000000000000, 0.7857142857142856984, 0.8214285714285713969, 0.8571428571428570953, 0.8928571428571429047, 0.9285714285714286031, 0.9642857142857143016, 1.000000000000000000 ),
 .UNSPECIFIED. ) ;
#682 = CARTESIAN_POINT ( 'NONE',  ( 30.08142858807858744, -0.7490941003510002139, 4.389242356126523248 ) ) ;
#683 = CARTESIAN_POINT ( 'NONE',  ( 29.40080808091682130, -0.07401033741049596604, 4.999520698207306602 ) ) ;
#684 = CARTESIAN_POINT ( 'NONE',  ( 33.05915705472341415, 1.563631169287049261, -4.749216521325806184 ) ) ;
#685 = VERTEX_POINT ( 'NONE', #192 ) ;
#686 = CARTESIAN_POINT ( 'NONE',  ( 33.48638801649894958, 0.7542427869448540267, 4.943348881134558503 ) ) ;
#687 = FACE_BOUND ( 'NONE', #488, .T. ) ;
#688 = CARTESIAN_POINT ( 'NONE',  ( 4.000000000000000000, 8.999999999999998224, 0.000000000000000000 ) ) ;
#689 = ORIENTED_EDGE ( 'NONE', *, *, #580, .T. ) ;
#690 = CARTESIAN_POINT ( 'NONE',  ( 29.91632492328682957, -1.533651883421507378, -4.759082476731431477 ) ) ;
ENDSEC;
END-ISO-10303-21;
