ISO-10303-21;
HEADER;
FILE_DESCRIPTION (( 'STEP AP214' ),
    '1' );
FILE_NAME ('Part6 Pushing.STEP',
    '2025-07-24T08:03:06',
    ( '' ),
    ( '' ),
    'SwSTEP 2.0',
    'SolidWorks 2025',
    '' );
FILE_SCHEMA (( 'AUTOMOTIVE_DESIGN' ));
ENDSEC;

DATA;
#1 = CYLINDRICAL_SURFACE ( 'NONE', #716, 1.000000000000000000 ) ;
#2 = ADVANCED_FACE ( 'NONE', ( #547 ), #241, .T. ) ;
#3 = CARTESIAN_POINT ( 'NONE',  ( -14.99999999999999822, 27.50000000000000355, 27.00000000000000000 ) ) ;
#4 = FACE_OUTER_BOUND ( 'NONE', #675, .T. ) ;
#5 = EDGE_LOOP ( 'NONE', ( #970, #977, #305, #763 ) ) ;
#6 = DIRECTION ( 'NONE',  ( -0.000000000000000000, 0.000000000000000000, -1.000000000000000000 ) ) ;
#7 = CARTESIAN_POINT ( 'NONE',  ( 15.00000000000000711, -36.49999999999999289, 27.00000000000000000 ) ) ;
#8 = CARTESIAN_POINT ( 'NONE',  ( 5.000000000000000888, -8.999999999999996447, 20.00000000000000000 ) ) ;
#9 = CARTESIAN_POINT ( 'NONE',  ( -14.99999999999999645, -27.49999999999999645, 21.00000000000000000 ) ) ;
#10 = ORIENTED_EDGE ( 'NONE', *, *, #1236, .T. ) ;
#11 = EDGE_CURVE ( 'NONE', #898, #796, #1064, .T. ) ;
#12 = DIRECTION ( 'NONE',  ( -1.000000000000000000, 0.000000000000000000, 0.000000000000000000 ) ) ;
#13 = AXIS2_PLACEMENT_3D ( 'NONE', #9, #543, #1274 ) ;
#14 = AXIS2_PLACEMENT_3D ( 'NONE', #187, #705, #513 ) ;
#15 = VECTOR ( 'NONE', #837, 1000.000000000000000 ) ;
#16 = AXIS2_PLACEMENT_3D ( 'NONE', #1263, #514, #1362 ) ;
#17 = ORIENTED_EDGE ( 'NONE', *, *, #1192, .T. ) ;
#18 = CARTESIAN_POINT ( 'NONE',  ( 0.000000000000000000, 0.000000000000000000, 20.00000000000000000 ) ) ;
#19 = CARTESIAN_POINT ( 'NONE',  ( 25.00000000000000355, -36.49999999999999289, 21.00000000000000000 ) ) ;
#20 = VERTEX_POINT ( 'NONE', #226 ) ;
#21 = PLANE ( 'NONE',  #1158 ) ;
#22 = EDGE_CURVE ( 'NONE', #720, #785, #422, .T. ) ;
#23 = LINE ( 'NONE', #860, #652 ) ;
#24 = FACE_OUTER_BOUND ( 'NONE', #830, .T. ) ;
#25 = CARTESIAN_POINT ( 'NONE',  ( 8.000000000000000000, 13.00000000000000355, 20.00000000000000000 ) ) ;
#26 = ORIENTED_EDGE ( 'NONE', *, *, #742, .F. ) ;
#27 = FACE_OUTER_BOUND ( 'NONE', #1036, .T. ) ;
#28 = VERTEX_POINT ( 'NONE', #126 ) ;
#29 = EDGE_CURVE ( 'NONE', #818, #847, #838, .T. ) ;
#30 = DIRECTION ( 'NONE',  ( 0.000000000000000000, 0.000000000000000000, -1.000000000000000000 ) ) ;
#31 = DIRECTION ( 'NONE',  ( -0.000000000000000000, 0.000000000000000000, -1.000000000000000000 ) ) ;
#32 = ORIENTED_EDGE ( 'NONE', *, *, #539, .T. ) ;
#33 = CARTESIAN_POINT ( 'NONE',  ( -8.000000000000000000, 13.00000000000000178, 0.000000000000000000 ) ) ;
#34 = ORIENTED_EDGE ( 'NONE', *, *, #62, .F. ) ;
#35 = VECTOR ( 'NONE', #59, 1000.000000000000000 ) ;
#36 = ORIENTED_EDGE ( 'NONE', *, *, #1264, .F. ) ;
#37 = AXIS2_PLACEMENT_3D ( 'NONE', #1358, #420, #1037 ) ;
#38 = CIRCLE ( 'NONE', #802, 1.000000000000000888 ) ;
#39 = ADVANCED_FACE ( 'NONE', ( #334 ), #965, .F. ) ;
#40 = CARTESIAN_POINT ( 'NONE',  ( -14.99999999999999645, -27.49999999999999645, 28.00000000000000000 ) ) ;
#41 = ORIENTED_EDGE ( 'NONE', *, *, #11, .T. ) ;
#42 = FACE_OUTER_BOUND ( 'NONE', #596, .T. ) ;
#43 = ORIENTED_EDGE ( 'NONE', *, *, #412, .F. ) ;
#44 = LINE ( 'NONE', #57, #256 ) ;
#45 = EDGE_CURVE ( 'NONE', #559, #980, #23, .T. ) ;
#46 = CARTESIAN_POINT ( 'NONE',  ( 5.000000000000000888, -8.999999999999996447, 20.00000000000000000 ) ) ;
#47 = ORIENTED_EDGE ( 'NONE', *, *, #360, .F. ) ;
#48 = CARTESIAN_POINT ( 'NONE',  ( 24.00000000000000355, -27.49999999999998934, 21.00000000000000000 ) ) ;
#49 = ORIENTED_EDGE ( 'NONE', *, *, #861, .T. ) ;
#50 = CARTESIAN_POINT ( 'NONE',  ( 15.00000000000000533, 36.50000000000000000, 21.00000000000000000 ) ) ;
#51 = LINE ( 'NONE', #567, #405 ) ;
#52 = VERTEX_POINT ( 'NONE', #655 ) ;
#53 = CARTESIAN_POINT ( 'NONE',  ( -14.99999999999999645, -27.49999999999999645, 20.00000000000000000 ) ) ;
#54 = ADVANCED_FACE ( 'NONE', ( #1073 ), #83, .F. ) ;
#55 = VERTEX_POINT ( 'NONE', #444 ) ;
#56 = VECTOR ( 'NONE', #1029, 1000.000000000000000 ) ;
#57 = CARTESIAN_POINT ( 'NONE',  ( -24.99999999999999645, -37.50000000000000000, 21.00000000000000000 ) ) ;
#58 = CIRCLE ( 'NONE', #1022, 10.00000000000000000 ) ;
#59 = DIRECTION ( 'NONE',  ( -0.000000000000000000, 1.000000000000000000, -0.000000000000000000 ) ) ;
#60 = ORIENTED_EDGE ( 'NONE', *, *, #683, .T. ) ;
#61 = CARTESIAN_POINT ( 'NONE',  ( 10.00000000000000178, 12.00000000000000711, 19.00000000000000000 ) ) ;
#62 = EDGE_CURVE ( 'NONE', #1092, #818, #190, .T. ) ;
#63 = DIRECTION ( 'NONE',  ( -6.672013369141566696E-17, -1.000000000000000000, 0.000000000000000000 ) ) ;
#64 = CARTESIAN_POINT ( 'NONE',  ( 15.00000000000000711, -36.50000000000000000, 28.00000000000000000 ) ) ;
#65 = EDGE_LOOP ( 'NONE', ( #579, #1082, #594, #205 ) ) ;
#66 = CARTESIAN_POINT ( 'NONE',  ( -4.999999999999999112, -8.999999999999996447, 20.00000000000000000 ) ) ;
#67 = ORIENTED_EDGE ( 'NONE', *, *, #453, .F. ) ;
#68 = EDGE_CURVE ( 'NONE', #1070, #720, #638, .T. ) ;
#69 = CARTESIAN_POINT ( 'NONE',  ( 25.00000000000000355, -37.49999999999999289, 21.00000000000000000 ) ) ;
#70 = DIRECTION ( 'NONE',  ( 0.000000000000000000, 0.000000000000000000, -1.000000000000000000 ) ) ;
#71 = EDGE_CURVE ( 'NONE', #1275, #771, #1090, .T. ) ;
#72 = DIRECTION ( 'NONE',  ( 0.000000000000000000, -1.000000000000000000, 0.000000000000000000 ) ) ;
#73 = ORIENTED_EDGE ( 'NONE', *, *, #71, .T. ) ;
#74 = DIRECTION ( 'NONE',  ( 0.000000000000000000, -0.000000000000000000, 1.000000000000000000 ) ) ;
#75 = EDGE_LOOP ( 'NONE', ( #17, #1351, #1013, #1255 ) ) ;
#76 = VECTOR ( 'NONE', #1165, 1000.000000000000000 ) ;
#77 = DIRECTION ( 'NONE',  ( 6.672013369141566696E-17, 1.000000000000000000, -0.000000000000000000 ) ) ;
#78 = VECTOR ( 'NONE', #686, 1000.000000000000000 ) ;
#79 = EDGE_CURVE ( 'NONE', #858, #1339, #58, .T. ) ;
#80 = CARTESIAN_POINT ( 'NONE',  ( -14.99999999999999645, -27.49999999999999645, 21.00000000000000000 ) ) ;
#81 = VERTEX_POINT ( 'NONE', #276 ) ;
#82 = AXIS2_PLACEMENT_3D ( 'NONE', #216, #1262, #30 ) ;
#83 = TOROIDAL_SURFACE ( 'NONE', #341, 2.000000000000000000, 1.000000000000000000 ) ;
#84 = PLANE ( 'NONE',  #1308 ) ;
#85 = VECTOR ( 'NONE', #509, 1000.000000000000000 ) ;
#86 = EDGE_LOOP ( 'NONE', ( #1342, #342, #877, #968 ) ) ;
#87 = PLANE ( 'NONE',  #165 ) ;
#88 = FACE_OUTER_BOUND ( 'NONE', #1265, .T. ) ;
#89 = VERTEX_POINT ( 'NONE', #901 ) ;
#90 = EDGE_CURVE ( 'NONE', #1246, #858, #1115, .T. ) ;
#91 = DIRECTION ( 'NONE',  ( 6.672013369141566696E-17, 1.000000000000000000, 0.000000000000000000 ) ) ;
#92 = EDGE_LOOP ( 'NONE', ( #1294, #935, #47, #690 ) ) ;
#93 = LINE ( 'NONE', #922, #521 ) ;
#94 = FACE_OUTER_BOUND ( 'NONE', #1030, .T. ) ;
#95 = FACE_OUTER_BOUND ( 'NONE', #693, .T. ) ;
#96 = ORIENTED_EDGE ( 'NONE', *, *, #403, .T. ) ;
#97 = FACE_OUTER_BOUND ( 'NONE', #725, .T. ) ;
#98 = ADVANCED_FACE ( 'NONE', ( #926 ), #214, .F. ) ;
#99 = DIRECTION ( 'NONE',  ( -1.000000000000000000, 0.000000000000000000, 0.000000000000000000 ) ) ;
#100 = FACE_OUTER_BOUND ( 'NONE', #718, .T. ) ;
#101 = AXIS2_PLACEMENT_3D ( 'NONE', #1204, #897, #1217 ) ;
#102 = DIRECTION ( 'NONE',  ( 1.000000000000000000, 0.000000000000000000, 0.000000000000000000 ) ) ;
#103 = VERTEX_POINT ( 'NONE', #1329 ) ;
#104 = AXIS2_PLACEMENT_3D ( 'NONE', #688, #1215, #1303 ) ;
#105 = AXIS2_PLACEMENT_3D ( 'NONE', #1061, #339, #123 ) ;
#106 = DIRECTION ( 'NONE',  ( 1.000000000000000000, -0.000000000000000000, -0.000000000000000000 ) ) ;
#107 = EDGE_CURVE ( 'NONE', #766, #1299, #428, .T. ) ;
#108 = CARTESIAN_POINT ( 'NONE',  ( 0.000000000000000000, 0.000000000000000000, 20.00000000000000000 ) ) ;
#109 = DIRECTION ( 'NONE',  ( 0.000000000000000000, -0.000000000000000000, 1.000000000000000000 ) ) ;
#110 = ORIENTED_EDGE ( 'NONE', *, *, #437, .T. ) ;
#111 = CARTESIAN_POINT ( 'NONE',  ( -7.999999999999998224, 12.00000000000000355, 20.00000000000000000 ) ) ;
#112 = ORIENTED_EDGE ( 'NONE', *, *, #1071, .T. ) ;
#113 = CARTESIAN_POINT ( 'NONE',  ( 9.000000000000001776, 13.00000000000000355, 0.000000000000000000 ) ) ;
#114 = EDGE_CURVE ( 'NONE', #587, #811, #826, .T. ) ;
#115 = CARTESIAN_POINT ( 'NONE',  ( 8.000000000000000000, -13.99999999999999467, 19.00000000000000000 ) ) ;
#116 = ORIENTED_EDGE ( 'NONE', *, *, #764, .T. ) ;
#117 = CARTESIAN_POINT ( 'NONE',  ( -14.99999999999999822, 27.50000000000000355, 20.00000000000000000 ) ) ;
#118 = ORIENTED_EDGE ( 'NONE', *, *, #1045, .T. ) ;
#119 = DIRECTION ( 'NONE',  ( -0.000000000000000000, -0.000000000000000000, 1.000000000000000000 ) ) ;
#120 = EDGE_CURVE ( 'NONE', #811, #356, #125, .T. ) ;
#121 = DIRECTION ( 'NONE',  ( -1.000000000000000000, 0.000000000000000000, 0.000000000000000000 ) ) ;
#122 = EDGE_LOOP ( 'NONE', ( #1260, #1084, #36, #1121 ) ) ;
#123 = DIRECTION ( 'NONE',  ( 0.000000000000000000, 0.000000000000000000, -1.000000000000000000 ) ) ;
#124 =( GEOMETRIC_REPRESENTATION_CONTEXT ( 3 ) GLOBAL_UNCERTAINTY_ASSIGNED_CONTEXT ( ( #459 ) ) GLOBAL_UNIT_ASSIGNED_CONTEXT ( ( #663, #645, #634 ) ) REPRESENTATION_CONTEXT ( 'NONE', 'WORKASPACE' ) );
#125 = CIRCLE ( 'NONE', #910, 2.000000000000000000 ) ;
#126 = CARTESIAN_POINT ( 'NONE',  ( 25.00000000000000355, 27.49999999999999645, 21.00000000000000000 ) ) ;
#127 = DIRECTION ( 'NONE',  ( 1.000000000000000000, 0.000000000000000000, 0.000000000000000000 ) ) ;
#128 = CARTESIAN_POINT ( 'NONE',  ( 15.00000000000000533, 37.50000000000000000, 27.00000000000000000 ) ) ;
#129 = ORIENTED_EDGE ( 'NONE', *, *, #463, .F. ) ;
#130 = FACE_OUTER_BOUND ( 'NONE', #685, .T. ) ;
#131 = ORIENTED_EDGE ( 'NONE', *, *, #647, .F. ) ;
#132 = CARTESIAN_POINT ( 'NONE',  ( -8.000000000000000000, -12.99999999999999822, 19.00000000000000000 ) ) ;
#133 = ORIENTED_EDGE ( 'NONE', *, *, #658, .F. ) ;
#134 = DIRECTION ( 'NONE',  ( -0.000000000000000000, 0.000000000000000000, -1.000000000000000000 ) ) ;
#135 = ORIENTED_EDGE ( 'NONE', *, *, #323, .F. ) ;
#136 = EDGE_CURVE ( 'NONE', #1095, #289, #975, .T. ) ;
#137 = CARTESIAN_POINT ( 'NONE',  ( 15.00000000000000533, 37.50000000000000000, 28.00000000000000000 ) ) ;
#138 = ORIENTED_EDGE ( 'NONE', *, *, #573, .F. ) ;
#139 = CYLINDRICAL_SURFACE ( 'NONE', #452, 0.9999999999999991118 ) ;
#140 = ORIENTED_EDGE ( 'NONE', *, *, #22, .T. ) ;
#141 = AXIS2_PLACEMENT_3D ( 'NONE', #558, #349, #976 ) ;
#142 = CIRCLE ( 'NONE', #186, 1.000000000000000888 ) ;
#143 = AXIS2_PLACEMENT_3D ( 'NONE', #753, #1197, #1176 ) ;
#144 = CIRCLE ( 'NONE', #628, 1.000000000000000888 ) ;
#145 = DIRECTION ( 'NONE',  ( 0.000000000000000000, -0.000000000000000000, 1.000000000000000000 ) ) ;
#146 = TOROIDAL_SURFACE ( 'NONE', #321, 2.000000000000000000, 1.000000000000000000 ) ;
#147 = DIRECTION ( 'NONE',  ( 0.000000000000000000, -0.000000000000000000, 1.000000000000000000 ) ) ;
#148 = ORIENTED_EDGE ( 'NONE', *, *, #1283, .F. ) ;
#149 = DIRECTION ( 'NONE',  ( 0.000000000000000000, 0.000000000000000000, -1.000000000000000000 ) ) ;
#150 = ORIENTED_EDGE ( 'NONE', *, *, #633, .T. ) ;
#151 = CARTESIAN_POINT ( 'NONE',  ( 15.00000000000000533, 37.50000000000000000, 21.00000000000000000 ) ) ;
#152 = EDGE_CURVE ( 'NONE', #103, #52, #498, .T. ) ;
#153 = FACE_OUTER_BOUND ( 'NONE', #224, .T. ) ;
#154 = ORIENTED_EDGE ( 'NONE', *, *, #255, .T. ) ;
#155 = DIRECTION ( 'NONE',  ( -0.000000000000000000, 0.000000000000000000, -1.000000000000000000 ) ) ;
#156 = LINE ( 'NONE', #669, #1089 ) ;
#157 = CARTESIAN_POINT ( 'NONE',  ( -8.000000000000000000, -12.99999999999999822, 0.000000000000000000 ) ) ;
#158 = ORIENTED_EDGE ( 'NONE', *, *, #1216, .T. ) ;
#159 = ADVANCED_FACE ( 'NONE', ( #97 ), #488, .T. ) ;
#160 = LINE ( 'NONE', #391, #231 ) ;
#161 = ORIENTED_EDGE ( 'NONE', *, *, #403, .F. ) ;
#162 = VECTOR ( 'NONE', #1286, 1000.000000000000000 ) ;
#163 = CYLINDRICAL_SURFACE ( 'NONE', #104, 1.000000000000000888 ) ;
#164 = TOROIDAL_SURFACE ( 'NONE', #189, 2.000000000000000000, 1.000000000000000000 ) ;
#165 = AXIS2_PLACEMENT_3D ( 'NONE', #598, #70, #727 ) ;
#166 = CIRCLE ( 'NONE', #801, 1.000000000000000000 ) ;
#167 = CYLINDRICAL_SURFACE ( 'NONE', #927, 1.000000000000000888 ) ;
#168 = ORIENTED_EDGE ( 'NONE', *, *, #1216, .F. ) ;
#169 = DIRECTION ( 'NONE',  ( 0.000000000000000000, -1.000000000000000000, 0.000000000000000000 ) ) ;
#170 = ADVANCED_FACE ( 'NONE', ( #322 ), #632, .T. ) ;
#171 = ORIENTED_EDGE ( 'NONE', *, *, #510, .T. ) ;
#172 = EDGE_CURVE ( 'NONE', #511, #796, #166, .T. ) ;
#173 = DIRECTION ( 'NONE',  ( 1.000000000000000000, 0.000000000000000000, 0.000000000000000000 ) ) ;
#174 = DIRECTION ( 'NONE',  ( 0.000000000000000000, 0.000000000000000000, -1.000000000000000000 ) ) ;
#175 = DIRECTION ( 'NONE',  ( 0.000000000000000000, 0.000000000000000000, -1.000000000000000000 ) ) ;
#176 = ORIENTED_EDGE ( 'NONE', *, *, #417, .T. ) ;
#177 = DIRECTION ( 'NONE',  ( 0.000000000000000000, -0.000000000000000000, 1.000000000000000000 ) ) ;
#178 = ORIENTED_EDGE ( 'NONE', *, *, #1122, .T. ) ;
#179 = EDGE_CURVE ( 'NONE', #559, #297, #1270, .T. ) ;
#180 = PLANE ( 'NONE',  #1356 ) ;
#181 = ORIENTED_EDGE ( 'NONE', *, *, #871, .T. ) ;
#182 = DIRECTION ( 'NONE',  ( 0.000000000000000000, 0.000000000000000000, 1.000000000000000000 ) ) ;
#183 = ORIENTED_EDGE ( 'NONE', *, *, #1316, .F. ) ;
#184 = CARTESIAN_POINT ( 'NONE',  ( -24.99999999999999645, 27.50000000000000355, 27.00000000000000000 ) ) ;
#185 = VECTOR ( 'NONE', #784, 1000.000000000000000 ) ;
#186 = AXIS2_PLACEMENT_3D ( 'NONE', #229, #1069, #1075 ) ;
#187 = CARTESIAN_POINT ( 'NONE',  ( 15.00000000000000533, 27.49999999999999645, 21.00000000000000000 ) ) ;
#188 = ORIENTED_EDGE ( 'NONE', *, *, #516, .T. ) ;
#189 = AXIS2_PLACEMENT_3D ( 'NONE', #555, #1291, #127 ) ;
#190 = CIRCLE ( 'NONE', #867, 1.000000000000000888 ) ;
#191 = CARTESIAN_POINT ( 'NONE',  ( 5.000000000000000888, 9.000000000000005329, 20.00000000000000000 ) ) ;
#192 = VECTOR ( 'NONE', #872, 1000.000000000000000 ) ;
#193 = ORIENTED_EDGE ( 'NONE', *, *, #114, .T. ) ;
#194 = CARTESIAN_POINT ( 'NONE',  ( -8.000000000000000000, -13.99999999999999822, 20.00000000000000000 ) ) ;
#195 = DIRECTION ( 'NONE',  ( 0.000000000000000000, -0.000000000000000000, 1.000000000000000000 ) ) ;
#196 = ORIENTED_EDGE ( 'NONE', *, *, #255, .F. ) ;
#197 = EDGE_CURVE ( 'NONE', #700, #865, #212, .T. ) ;
#198 = CARTESIAN_POINT ( 'NONE',  ( -4.999999999999999112, -8.999999999999996447, 20.00000000000000000 ) ) ;
#199 = ORIENTED_EDGE ( 'NONE', *, *, #780, .T. ) ;
#200 = LINE ( 'NONE', #1256, #363 ) ;
#201 = DIRECTION ( 'NONE',  ( 0.000000000000000000, 0.000000000000000000, 1.000000000000000000 ) ) ;
#202 = FACE_OUTER_BOUND ( 'NONE', #1325, .T. ) ;
#203 = LINE ( 'NONE', #413, #501 ) ;
#204 = EDGE_CURVE ( 'NONE', #52, #435, #200, .T. ) ;
#205 = ORIENTED_EDGE ( 'NONE', *, *, #90, .F. ) ;
#206 = DIRECTION ( 'NONE',  ( 0.000000000000000000, 0.000000000000000000, -1.000000000000000000 ) ) ;
#207 = PLANE ( 'NONE',  #450 ) ;
#208 = VECTOR ( 'NONE', #425, 1000.000000000000000 ) ;
#209 = CARTESIAN_POINT ( 'NONE',  ( -9.000000000000000000, -12.99999999999999822, 20.00000000000000000 ) ) ;
#210 = ORIENTED_EDGE ( 'NONE', *, *, #683, .F. ) ;
#211 = AXIS2_PLACEMENT_3D ( 'NONE', #399, #303, #1026 ) ;
#212 = CIRCLE ( 'NONE', #952, 9.000000000000001776 ) ;
#213 = CIRCLE ( 'NONE', #670, 1.000000000000000888 ) ;
#214 = PLANE ( 'NONE',  #1203 ) ;
#215 = EDGE_CURVE ( 'NONE', #778, #898, #726, .T. ) ;
#216 = CARTESIAN_POINT ( 'NONE',  ( 10.00000000000000178, 0.000000000000000000, 19.00000000000000000 ) ) ;
#217 = CARTESIAN_POINT ( 'NONE',  ( 10.00000000000000178, 11.99999999999999822, 20.00000000000000000 ) ) ;
#218 = ORIENTED_EDGE ( 'NONE', *, *, #956, .T. ) ;
#219 = DIRECTION ( 'NONE',  ( -0.000000000000000000, -0.000000000000000000, 1.000000000000000000 ) ) ;
#220 = EDGE_CURVE ( 'NONE', #1019, #650, #623, .T. ) ;
#221 = DIRECTION ( 'NONE',  ( 0.000000000000000000, -0.000000000000000000, 1.000000000000000000 ) ) ;
#222 = SURFACE_STYLE_FILL_AREA ( #1166 ) ;
#223 = LINE ( 'NONE', #243, #862 ) ;
#224 = EDGE_LOOP ( 'NONE', ( #672, #447, #210, #252 ) ) ;
#225 = DIRECTION ( 'NONE',  ( 0.000000000000000000, -1.000000000000000000, 0.000000000000000000 ) ) ;
#226 = CARTESIAN_POINT ( 'NONE',  ( -8.999999999999998224, 12.00000000000000355, 19.00000000000000000 ) ) ;
#227 = ADVANCED_FACE ( 'NONE', ( #936 ), #1, .T. ) ;
#228 = FACE_BOUND ( 'NONE', #260, .T. ) ;
#229 = CARTESIAN_POINT ( 'NONE',  ( -8.000000000000001776, 14.00000000000000533, 19.00000000000000000 ) ) ;
#230 = VERTEX_POINT ( 'NONE', #442 ) ;
#231 = VECTOR ( 'NONE', #281, 1000.000000000000000 ) ;
#232 = DIRECTION ( 'NONE',  ( -0.000000000000000000, 0.000000000000000000, -1.000000000000000000 ) ) ;
#233 = AXIS2_PLACEMENT_3D ( 'NONE', #389, #72, #175 ) ;
#234 = VECTOR ( 'NONE', #1240, 1000.000000000000000 ) ;
#235 = AXIS2_PLACEMENT_3D ( 'NONE', #551, #240, #859 ) ;
#236 = EDGE_LOOP ( 'NONE', ( #904, #806, #1208, #789 ) ) ;
#237 = CARTESIAN_POINT ( 'NONE',  ( 9.000000000000001776, 12.00000000000000533, 19.00000000000000000 ) ) ;
#238 = ORIENTED_EDGE ( 'NONE', *, *, #302, .F. ) ;
#239 = EDGE_CURVE ( 'NONE', #1313, #1339, #449, .T. ) ;
#240 = DIRECTION ( 'NONE',  ( 0.000000000000000000, 0.000000000000000000, -1.000000000000000000 ) ) ;
#241 = CYLINDRICAL_SURFACE ( 'NONE', #1328, 1.000000000000000888 ) ;
#242 = FACE_OUTER_BOUND ( 'NONE', #236, .T. ) ;
#243 = CARTESIAN_POINT ( 'NONE',  ( 24.00000000000000355, 0.000000000000000000, 20.00000000000000000 ) ) ;
#244 = VERTEX_POINT ( 'NONE', #569 ) ;
#245 = CYLINDRICAL_SURFACE ( 'NONE', #235, 10.00000000000000000 ) ;
#246 = ADVANCED_FACE ( 'NONE', ( #130 ), #245, .T. ) ;
#247 = ORIENTED_EDGE ( 'NONE', *, *, #11, .F. ) ;
#248 = CARTESIAN_POINT ( 'NONE',  ( 8.000000000000000000, 13.00000000000000355, 0.000000000000000000 ) ) ;
#249 = FACE_OUTER_BOUND ( 'NONE', #739, .T. ) ;
#250 = ORIENTED_EDGE ( 'NONE', *, *, #709, .F. ) ;
#251 = CARTESIAN_POINT ( 'NONE',  ( 5.000000000000000888, -8.999999999999996447, 20.00000000000000000 ) ) ;
#252 = ORIENTED_EDGE ( 'NONE', *, *, #378, .F. ) ;
#253 = CIRCLE ( 'NONE', #258, 10.00000000000000000 ) ;
#254 = AXIS2_PLACEMENT_3D ( 'NONE', #117, #618, #313 ) ;
#255 = EDGE_CURVE ( 'NONE', #785, #506, #1311, .T. ) ;
#256 = VECTOR ( 'NONE', #781, 1000.000000000000000 ) ;
#257 = DIRECTION ( 'NONE',  ( 0.000000000000000000, 0.000000000000000000, -1.000000000000000000 ) ) ;
#258 = AXIS2_PLACEMENT_3D ( 'NONE', #408, #712, #418 ) ;
#259 = CARTESIAN_POINT ( 'NONE',  ( -23.99999999999999645, -0.000000000000000000, 20.00000000000000000 ) ) ;
#260 = EDGE_LOOP ( 'NONE', ( #1132, #193, #402, #10, #894, #1196, #188, #1006 ) ) ;
#261 = LINE ( 'NONE', #1105, #366 ) ;
#262 = ORIENTED_EDGE ( 'NONE', *, *, #730, .T. ) ;
#263 = CARTESIAN_POINT ( 'NONE',  ( 8.000000000000000000, -13.99999999999999467, 20.00000000000000000 ) ) ;
#264 = EDGE_CURVE ( 'NONE', #1225, #81, #888, .T. ) ;
#265 = DIRECTION ( 'NONE',  ( -0.000000000000000000, -1.000000000000000000, -0.000000000000000000 ) ) ;
#266 = ORIENTED_EDGE ( 'NONE', *, *, #1300, .T. ) ;
#267 = CARTESIAN_POINT ( 'NONE',  ( 25.00000000000000355, 27.49999999999999645, 28.00000000000000000 ) ) ;
#268 = ORIENTED_EDGE ( 'NONE', *, *, #455, .T. ) ;
#269 = CARTESIAN_POINT ( 'NONE',  ( 8.000000000000000000, 12.00000000000000355, 20.00000000000000000 ) ) ;
#270 = CARTESIAN_POINT ( 'NONE',  ( 25.00000000000000355, 36.50000000000000000, 21.00000000000000000 ) ) ;
#271 = EDGE_LOOP ( 'NONE', ( #850, #1346, #337, #563 ) ) ;
#272 = ADVANCED_FACE ( 'NONE', ( #1288 ), #854, .T. ) ;
#273 = LINE ( 'NONE', #1111, #604 ) ;
#274 = EDGE_LOOP ( 'NONE', ( #907, #395, #1193, #743 ) ) ;
#275 = TOROIDAL_SURFACE ( 'NONE', #1223, 9.000000000000001776, 1.000000000000000000 ) ;
#276 = CARTESIAN_POINT ( 'NONE',  ( 9.000000000000001776, 11.99999999999999822, 0.000000000000000000 ) ) ;
#277 = DIRECTION ( 'NONE',  ( 1.000000000000000000, 0.000000000000000000, 0.000000000000000000 ) ) ;
#278 = CIRCLE ( 'NONE', #1181, 1.000000000000000888 ) ;
#279 = CARTESIAN_POINT ( 'NONE',  ( 15.00000000000000711, -37.49999999999999289, 21.00000000000000000 ) ) ;
#280 = ORIENTED_EDGE ( 'NONE', *, *, #1336, .F. ) ;
#281 = DIRECTION ( 'NONE',  ( -0.000000000000000000, -0.000000000000000000, 1.000000000000000000 ) ) ;
#282 = EDGE_CURVE ( 'NONE', #20, #559, #1191, .T. ) ;
#283 = ORIENTED_EDGE ( 'NONE', *, *, #764, .F. ) ;
#284 = CARTESIAN_POINT ( 'NONE',  ( -9.000000000000000000, -11.99999999999999822, 0.000000000000000000 ) ) ;
#285 = ORIENTED_EDGE ( 'NONE', *, *, #152, .T. ) ;
#286 = DIRECTION ( 'NONE',  ( -0.000000000000000000, 1.000000000000000000, 0.000000000000000000 ) ) ;
#287 = ORIENTED_EDGE ( 'NONE', *, *, #499, .T. ) ;
#288 =( LENGTH_UNIT ( ) NAMED_UNIT ( * ) SI_UNIT ( .MILLI., .METRE. ) );
#289 = VERTEX_POINT ( 'NONE', #969 ) ;
#290 = LINE ( 'NONE', #198, #714 ) ;
#291 = EDGE_LOOP ( 'NONE', ( #659, #622, #34, #1118 ) ) ;
#292 = CARTESIAN_POINT ( 'NONE',  ( 15.00000000000000533, 36.50000000000000000, 28.00000000000000000 ) ) ;
#293 = EDGE_CURVE ( 'NONE', #506, #1278, #278, .T. ) ;
#294 = AXIS2_PLACEMENT_3D ( 'NONE', #1048, #738, #1142 ) ;
#295 = VECTOR ( 'NONE', #478, 1000.000000000000000 ) ;
#296 = DIRECTION ( 'NONE',  ( -0.000000000000000000, -0.000000000000000000, -1.000000000000000000 ) ) ;
#297 = VERTEX_POINT ( 'NONE', #33 ) ;
#298 = VECTOR ( 'NONE', #219, 1000.000000000000000 ) ;
#299 = CARTESIAN_POINT ( 'NONE',  ( -8.000000000000000000, -12.99999999999999822, 19.00000000000000000 ) ) ;
#300 = ORIENTED_EDGE ( 'NONE', *, *, #1071, .F. ) ;
#301 = DIRECTION ( 'NONE',  ( 0.000000000000000000, -1.000000000000000000, 0.000000000000000000 ) ) ;
#302 = EDGE_CURVE ( 'NONE', #587, #1275, #1357, .T. ) ;
#303 = DIRECTION ( 'NONE',  ( 0.000000000000000000, -1.000000000000000000, 0.000000000000000000 ) ) ;
#304 = DIRECTION ( 'NONE',  ( 0.000000000000000000, 1.000000000000000000, 0.000000000000000000 ) ) ;
#305 = ORIENTED_EDGE ( 'NONE', *, *, #938, .F. ) ;
#306 = DIRECTION ( 'NONE',  ( 1.000000000000000000, -0.000000000000000000, -0.000000000000000000 ) ) ;
#307 = FACE_OUTER_BOUND ( 'NONE', #1106, .T. ) ;
#308 = DIRECTION ( 'NONE',  ( 0.000000000000000000, -0.000000000000000000, 1.000000000000000000 ) ) ;
#309 = EDGE_CURVE ( 'NONE', #55, #1246, #958, .T. ) ;
#310 = FACE_OUTER_BOUND ( 'NONE', #271, .T. ) ;
#311 = ORIENTED_EDGE ( 'NONE', *, *, #45, .F. ) ;
#312 = EDGE_CURVE ( 'NONE', #1076, #587, #386, .T. ) ;
#313 = DIRECTION ( 'NONE',  ( 1.000000000000000000, 0.000000000000000000, 0.000000000000000000 ) ) ;
#314 = DIRECTION ( 'NONE',  ( 0.000000000000000000, -0.000000000000000000, 1.000000000000000000 ) ) ;
#315 = AXIS2_PLACEMENT_3D ( 'NONE', #549, #434, #641 ) ;
#316 = VECTOR ( 'NONE', #296, 1000.000000000000000 ) ;
#317 = CARTESIAN_POINT ( 'NONE',  ( 8.000000000000000000, 14.00000000000000355, 20.00000000000000000 ) ) ;
#318 = ORIENTED_EDGE ( 'NONE', *, *, #68, .T. ) ;
#319 = VECTOR ( 'NONE', #982, 1000.000000000000000 ) ;
#320 = VECTOR ( 'NONE', #1314, 1000.000000000000000 ) ;
#321 = AXIS2_PLACEMENT_3D ( 'NONE', #719, #109, #1034 ) ;
#322 = FACE_OUTER_BOUND ( 'NONE', #985, .T. ) ;
#323 = EDGE_CURVE ( 'NONE', #920, #1284, #770, .T. ) ;
#324 = ORIENTED_EDGE ( 'NONE', *, *, #787, .T. ) ;
#325 = FACE_OUTER_BOUND ( 'NONE', #1127, .T. ) ;
#326 = LINE ( 'NONE', #440, #1024 ) ;
#327 = ORIENTED_EDGE ( 'NONE', *, *, #312, .F. ) ;
#328 = DIRECTION ( 'NONE',  ( 0.000000000000000000, -0.000000000000000000, 1.000000000000000000 ) ) ;
#329 = ORIENTED_EDGE ( 'NONE', *, *, #417, .F. ) ;
#330 = CYLINDRICAL_SURFACE ( 'NONE', #715, 10.00000000000000000 ) ;
#331 = DIRECTION ( 'NONE',  ( 0.000000000000000000, 1.000000000000000000, 0.000000000000000000 ) ) ;
#332 = ORIENTED_EDGE ( 'NONE', *, *, #215, .F. ) ;
#333 = CARTESIAN_POINT ( 'NONE',  ( -9.999999999999998224, 12.00000000000000355, 20.00000000000000000 ) ) ;
#334 = FACE_OUTER_BOUND ( 'NONE', #706, .T. ) ;
#335 = ADVANCED_FACE ( 'NONE', ( #643 ), #1301, .T. ) ;
#336 = FACE_OUTER_BOUND ( 'NONE', #1205, .T. ) ;
#337 = ORIENTED_EDGE ( 'NONE', *, *, #1345, .F. ) ;
#338 = CIRCLE ( 'NONE', #233, 1.000000000000000888 ) ;
#339 = DIRECTION ( 'NONE',  ( 0.000000000000000000, -1.000000000000000000, 0.000000000000000000 ) ) ;
#340 = AXIS2_PLACEMENT_3D ( 'NONE', #890, #460, #377 ) ;
#341 = AXIS2_PLACEMENT_3D ( 'NONE', #553, #972, #942 ) ;
#342 = ORIENTED_EDGE ( 'NONE', *, *, #1258, .F. ) ;
#343 = ADVANCED_FACE ( 'NONE', ( #27 ), #139, .F. ) ;
#344 = PLANE ( 'NONE',  #520 ) ;
#345 = EDGE_LOOP ( 'NONE', ( #329, #494, #915, #479 ) ) ;
#346 = DIRECTION ( 'NONE',  ( 0.000000000000000000, 0.000000000000000000, -1.000000000000000000 ) ) ;
#347 = EDGE_LOOP ( 'NONE', ( #1099, #731, #1041, #550 ) ) ;
#348 = CARTESIAN_POINT ( 'NONE',  ( -9.000000000000000000, -11.99999999999999822, 20.00000000000000000 ) ) ;
#349 = DIRECTION ( 'NONE',  ( -0.000000000000000000, 1.000000000000000000, 0.000000000000000000 ) ) ;
#350 = ORIENTED_EDGE ( 'NONE', *, *, #709, .T. ) ;
#351 = DIRECTION ( 'NONE',  ( 1.000000000000000000, 0.000000000000000000, -0.000000000000000000 ) ) ;
#352 = ADVANCED_FACE ( 'NONE', ( #42 ), #21, .T. ) ;
#353 = EDGE_LOOP ( 'NONE', ( #247, #199, #311, #1327, #631, #523, #1305, #987 ) ) ;
#354 = CARTESIAN_POINT ( 'NONE',  ( -24.99999999999999645, -37.50000000000000000, 28.00000000000000000 ) ) ;
#355 = DIRECTION ( 'NONE',  ( 1.000000000000000000, 0.000000000000000000, 0.000000000000000000 ) ) ;
#356 = VERTEX_POINT ( 'NONE', #333 ) ;
#357 = DIRECTION ( 'NONE',  ( 1.000000000000000000, 1.734723475976805517E-15, 0.000000000000000000 ) ) ;
#358 = EDGE_LOOP ( 'NONE', ( #576, #441, #300, #350 ) ) ;
#359 = VECTOR ( 'NONE', #1213, 1000.000000000000000 ) ;
#360 = EDGE_CURVE ( 'NONE', #89, #1289, #736, .T. ) ;
#361 = AXIS2_PLACEMENT_3D ( 'NONE', #671, #795, #984 ) ;
#362 = STYLED_ITEM ( 'NONE', ( #966 ), #1119 ) ;
#363 = VECTOR ( 'NONE', #306, 1000.000000000000000 ) ;
#364 = AXIS2_PLACEMENT_3D ( 'NONE', #1025, #393, #625 ) ;
#365 = DIRECTION ( 'NONE',  ( 0.000000000000000000, -1.000000000000000000, -0.000000000000000000 ) ) ;
#366 = VECTOR ( 'NONE', #602, 1000.000000000000000 ) ;
#367 = DIRECTION ( 'NONE',  ( 0.000000000000000000, 1.000000000000000000, 0.000000000000000000 ) ) ;
#368 = EDGE_LOOP ( 'NONE', ( #138, #914, #49, #940 ) ) ;
#369 = CARTESIAN_POINT ( 'NONE',  ( 24.00000000000000355, -27.49999999999998934, 20.00000000000000000 ) ) ;
#370 = ORIENTED_EDGE ( 'NONE', *, *, #787, .F. ) ;
#371 = DIRECTION ( 'NONE',  ( 0.000000000000000000, 0.000000000000000000, -1.000000000000000000 ) ) ;
#372 = CYLINDRICAL_SURFACE ( 'NONE', #101, 1.000000000000000888 ) ;
#373 = ORIENTED_EDGE ( 'NONE', *, *, #282, .F. ) ;
#374 = PLANE ( 'NONE',  #978 ) ;
#375 = EDGE_LOOP ( 'NONE', ( #687, #1033, #43, #481 ) ) ;
#376 = UNCERTAINTY_MEASURE_WITH_UNIT (LENGTH_MEASURE( 1.000000000000000082E-05 ), #288, 'distance_accuracy_value', 'NONE');
#377 = DIRECTION ( 'NONE',  ( 0.000000000000000000, 0.000000000000000000, 1.000000000000000000 ) ) ;
#378 = EDGE_CURVE ( 'NONE', #1339, #28, #1185, .T. ) ;
#379 = DIRECTION ( 'NONE',  ( 1.000000000000000000, 0.000000000000000000, 0.000000000000000000 ) ) ;
#380 = VERTEX_POINT ( 'NONE', #369 ) ;
#381 = CARTESIAN_POINT ( 'NONE',  ( 25.00000000000000355, -27.49999999999998934, 27.00000000000000000 ) ) ;
#382 = PRODUCT ( 'Part6 Pushing', 'Part6 Pushing', '', ( #411 ) ) ;
#383 = ORIENTED_EDGE ( 'NONE', *, *, #293, .T. ) ;
#384 = CARTESIAN_POINT ( 'NONE',  ( -7.999999999999998224, 12.00000000000000355, 20.00000000000000000 ) ) ;
#385 = FACE_BOUND ( 'NONE', #1114, .T. ) ;
#386 = CIRCLE ( 'NONE', #1112, 2.000000000000000000 ) ;
#387 = AXIS2_PLACEMENT_3D ( 'NONE', #50, #466, #881 ) ;
#388 = CIRCLE ( 'NONE', #472, 1.000000000000000888 ) ;
#389 = CARTESIAN_POINT ( 'NONE',  ( 24.00000000000000355, -27.49999999999998934, 27.00000000000000000 ) ) ;
#390 = EDGE_LOOP ( 'NONE', ( #332, #1141, #615, #681 ) ) ;
#391 = CARTESIAN_POINT ( 'NONE',  ( 9.000000000000001776, 12.00000000000000533, 20.00000000000000000 ) ) ;
#392 = VERTEX_POINT ( 'NONE', #66 ) ;
#393 = DIRECTION ( 'NONE',  ( -1.000000000000000000, 0.000000000000000000, 0.000000000000000000 ) ) ;
#394 = CARTESIAN_POINT ( 'NONE',  ( -4.999999999999999112, -8.999999999999996447, 0.000000000000000000 ) ) ;
#395 = ORIENTED_EDGE ( 'NONE', *, *, #525, .F. ) ;
#396 = LINE ( 'NONE', #829, #1063 ) ;
#397 = EDGE_LOOP ( 'NONE', ( #112, #1168, #176, #1016 ) ) ;
#398 = EDGE_CURVE ( 'NONE', #1319, #1170, #1235, .T. ) ;
#399 = CARTESIAN_POINT ( 'NONE',  ( -23.99999999999999645, -27.49999999999999645, 27.00000000000000000 ) ) ;
#400 = ORIENTED_EDGE ( 'NONE', *, *, #220, .T. ) ;
#401 = LINE ( 'NONE', #299, #1338 ) ;
#402 = ORIENTED_EDGE ( 'NONE', *, *, #120, .T. ) ;
#403 = EDGE_CURVE ( 'NONE', #230, #766, #495, .T. ) ;
#404 = DIRECTION ( 'NONE',  ( 0.000000000000000000, 0.000000000000000000, 1.000000000000000000 ) ) ;
#405 = VECTOR ( 'NONE', #1224, 1000.000000000000000 ) ;
#406 = DIRECTION ( 'NONE',  ( -1.000000000000000000, -1.734723475976807094E-16, 0.000000000000000000 ) ) ;
#407 = VECTOR ( 'NONE', #986, 1000.000000000000000 ) ;
#408 = CARTESIAN_POINT ( 'NONE',  ( -14.99999999999999645, -27.49999999999999645, 27.00000000000000000 ) ) ;
#409 = ORIENTED_EDGE ( 'NONE', *, *, #608, .T. ) ;
#410 = CARTESIAN_POINT ( 'NONE',  ( -14.99999999999999645, -27.49999999999999645, 28.00000000000000000 ) ) ;
#411 = PRODUCT_CONTEXT ( 'NONE', #1175, 'mechanical' ) ;
#412 = EDGE_CURVE ( 'NONE', #1339, #380, #954, .T. ) ;
#413 = CARTESIAN_POINT ( 'NONE',  ( 9.000000000000001776, -11.99999999999999645, 20.00000000000000000 ) ) ;
#414 = ORIENTED_EDGE ( 'NONE', *, *, #1045, .F. ) ;
#415 = CARTESIAN_POINT ( 'NONE',  ( 8.000000000000000000, -11.99999999999999645, 20.00000000000000000 ) ) ;
#416 = CARTESIAN_POINT ( 'NONE',  ( -24.99999999999999645, -27.49999999999999645, 28.00000000000000000 ) ) ;
#417 = EDGE_CURVE ( 'NONE', #1289, #503, #1337, .T. ) ;
#418 = DIRECTION ( 'NONE',  ( 1.000000000000000000, 0.000000000000000000, 0.000000000000000000 ) ) ;
#419 = ORIENTED_EDGE ( 'NONE', *, *, #797, .F. ) ;
#420 = DIRECTION ( 'NONE',  ( -0.000000000000000000, 0.000000000000000000, -1.000000000000000000 ) ) ;
#421 = AXIS2_PLACEMENT_3D ( 'NONE', #542, #221, #855 ) ;
#422 = LINE ( 'NONE', #948, #76 ) ;
#423 = DIRECTION ( 'NONE',  ( 0.000000000000000000, 1.000000000000000000, -0.000000000000000000 ) ) ;
#424 = CIRCLE ( 'NONE', #1202, 9.000000000000001776 ) ;
#425 = DIRECTION ( 'NONE',  ( -0.000000000000000000, -0.000000000000000000, 1.000000000000000000 ) ) ;
#426 = EDGE_CURVE ( 'NONE', #771, #766, #261, .T. ) ;
#427 = ORIENTED_EDGE ( 'NONE', *, *, #136, .F. ) ;
#428 = CIRCLE ( 'NONE', #37, 1.000000000000000888 ) ;
#429 = VECTOR ( 'NONE', #1322, 1000.000000000000000 ) ;
#430 = CIRCLE ( 'NONE', #646, 9.000000000000001776 ) ;
#431 = DIRECTION ( 'NONE',  ( 1.000000000000000000, 0.000000000000000000, 0.000000000000000000 ) ) ;
#432 = ORIENTED_EDGE ( 'NONE', *, *, #896, .F. ) ;
#433 = DIRECTION ( 'NONE',  ( 0.000000000000000000, -0.000000000000000000, 1.000000000000000000 ) ) ;
#434 = DIRECTION ( 'NONE',  ( 0.000000000000000000, -0.000000000000000000, 1.000000000000000000 ) ) ;
#435 = VERTEX_POINT ( 'NONE', #707 ) ;
#436 = DIRECTION ( 'NONE',  ( -1.000000000000000000, 0.000000000000000000, 0.000000000000000000 ) ) ;
#437 = EDGE_CURVE ( 'NONE', #81, #771, #160, .T. ) ;
#438 = DIRECTION ( 'NONE',  ( 1.000000000000000000, 9.637352644315594010E-17, -0.000000000000000000 ) ) ;
#439 = CYLINDRICAL_SURFACE ( 'NONE', #695, 1.000000000000000000 ) ;
#440 = CARTESIAN_POINT ( 'NONE',  ( 5.000000000000000888, -8.999999999999996447, 0.000000000000000000 ) ) ;
#441 = ORIENTED_EDGE ( 'NONE', *, *, #525, .T. ) ;
#442 = CARTESIAN_POINT ( 'NONE',  ( 10.00000000000000000, -11.99999999999999645, 20.00000000000000000 ) ) ;
#443 = ADVANCED_FACE ( 'NONE', ( #580 ), #947, .T. ) ;
#444 = CARTESIAN_POINT ( 'NONE',  ( -14.99999999999999645, -37.50000000000000000, 27.00000000000000000 ) ) ;
#445 = SURFACE_SIDE_STYLE ('',( #222 ) ) ;
#446 = CARTESIAN_POINT ( 'NONE',  ( 15.00000000000000533, 27.49999999999999645, 28.00000000000000000 ) ) ;
#447 = ORIENTED_EDGE ( 'NONE', *, *, #703, .F. ) ;
#448 = AXIS2_PLACEMENT_3D ( 'NONE', #883, #805, #1098 ) ;
#449 = LINE ( 'NONE', #1276, #475 ) ;
#450 = AXIS2_PLACEMENT_3D ( 'NONE', #108, #1341, #810 ) ;
#451 = VECTOR ( 'NONE', #77, 1000.000000000000000 ) ;
#452 = AXIS2_PLACEMENT_3D ( 'NONE', #979, #660, #760 ) ;
#453 = EDGE_CURVE ( 'NONE', #89, #700, #469, .T. ) ;
#454 = CARTESIAN_POINT ( 'NONE',  ( -4.999999999999999112, 9.000000000000003553, 0.000000000000000000 ) ) ;
#455 = EDGE_CURVE ( 'NONE', #506, #1313, #1126, .T. ) ;
#456 = LINE ( 'NONE', #137, #192 ) ;
#457 = ORIENTED_EDGE ( 'NONE', *, *, #1199, .T. ) ;
#458 = CARTESIAN_POINT ( 'NONE',  ( 0.000000000000000000, 0.000000000000000000, 28.00000000000000000 ) ) ;
#459 = UNCERTAINTY_MEASURE_WITH_UNIT (LENGTH_MEASURE( 1.000000000000000082E-05 ), #663, 'distance_accuracy_value', 'NONE');
#460 = DIRECTION ( 'NONE',  ( -1.000000000000000000, 0.000000000000000000, 0.000000000000000000 ) ) ;
#461 = DIRECTION ( 'NONE',  ( -1.000000000000000000, 0.000000000000000000, 0.000000000000000000 ) ) ;
#462 = EDGE_LOOP ( 'NONE', ( #471, #419, #148, #799 ) ) ;
#463 = EDGE_CURVE ( 'NONE', #1076, #771, #819, .T. ) ;
#464 = CARTESIAN_POINT ( 'NONE',  ( 10.00000000000000000, -11.99999999999999645, 19.00000000000000000 ) ) ;
#465 = ORIENTED_EDGE ( 'NONE', *, *, #398, .T. ) ;
#466 = DIRECTION ( 'NONE',  ( 1.000000000000000000, -0.000000000000000000, 0.000000000000000000 ) ) ;
#467 = DIRECTION ( 'NONE',  ( 0.000000000000000000, 0.000000000000000000, -1.000000000000000000 ) ) ;
#468 = VERTEX_POINT ( 'NONE', #1207 ) ;
#469 = LINE ( 'NONE', #1306, #1087 ) ;
#470 = EDGE_CURVE ( 'NONE', #1186, #1011, #213, .T. ) ;
#471 = ORIENTED_EDGE ( 'NONE', *, *, #1336, .T. ) ;
#472 = AXIS2_PLACEMENT_3D ( 'NONE', #1040, #1018, #1350 ) ;
#473 = AXIS2_PLACEMENT_3D ( 'NONE', #689, #586, #1124 ) ;
#474 = AXIS2_PLACEMENT_3D ( 'NONE', #585, #365, #1002 ) ;
#475 = VECTOR ( 'NONE', #874, 1000.000000000000000 ) ;
#476 = CIRCLE ( 'NONE', #1252, 1.000000000000000888 ) ;
#477 = DIRECTION ( 'NONE',  ( -0.000000000000000000, 0.000000000000000000, -1.000000000000000000 ) ) ;
#478 = DIRECTION ( 'NONE',  ( -0.000000000000000000, 1.000000000000000000, 0.000000000000000000 ) ) ;
#479 = ORIENTED_EDGE ( 'NONE', *, *, #1238, .T. ) ;
#480 = DIRECTION ( 'NONE',  ( 1.734723475976805319E-15, -1.000000000000000000, 0.000000000000000000 ) ) ;
#481 = ORIENTED_EDGE ( 'NONE', *, *, #79, .F. ) ;
#482 = EDGE_CURVE ( 'NONE', #515, #1186, #430, .T. ) ;
#483 = FACE_OUTER_BOUND ( 'NONE', #368, .T. ) ;
#484 = CARTESIAN_POINT ( 'NONE',  ( -14.99999999999999645, -36.50000000000000711, 28.00000000000000000 ) ) ;
#485 = ORIENTED_EDGE ( 'NONE', *, *, #647, .T. ) ;
#486 = CARTESIAN_POINT ( 'NONE',  ( -4.999999999999999112, 9.000000000000003553, 20.00000000000000000 ) ) ;
#487 = EDGE_LOOP ( 'NONE', ( #1027, #708, #280, #1148 ) ) ;
#488 = CYLINDRICAL_SURFACE ( 'NONE', #759, 0.9999999999999991118 ) ;
#489 = CARTESIAN_POINT ( 'NONE',  ( 25.00000000000000355, -27.49999999999998934, 21.00000000000000000 ) ) ;
#490 = EDGE_CURVE ( 'NONE', #847, #1278, #1012, .T. ) ;
#491 = CARTESIAN_POINT ( 'NONE',  ( -14.99999999999999822, 27.50000000000000355, 28.00000000000000000 ) ) ;
#492 = ORIENTED_EDGE ( 'NONE', *, *, #608, .F. ) ;
#493 = LINE ( 'NONE', #267, #78 ) ;
#494 = ORIENTED_EDGE ( 'NONE', *, *, #624, .T. ) ;
#495 = CIRCLE ( 'NONE', #1266, 1.000000000000000888 ) ;
#496 = DIRECTION ( 'NONE',  ( 1.000000000000000000, 1.387778780781445676E-16, 0.000000000000000000 ) ) ;
#497 = AXIS2_PLACEMENT_3D ( 'NONE', #933, #195, #717 ) ;
#498 = CIRCLE ( 'NONE', #254, 9.000000000000001776 ) ;
#499 = EDGE_CURVE ( 'NONE', #28, #506, #493, .T. ) ;
#500 =( GEOMETRIC_REPRESENTATION_CONTEXT ( 3 ) GLOBAL_UNCERTAINTY_ASSIGNED_CONTEXT ( ( #376 ) ) GLOBAL_UNIT_ASSIGNED_CONTEXT ( ( #288, #1253, #916 ) ) REPRESENTATION_CONTEXT ( 'NONE', 'WORKASPACE' ) );
#501 = VECTOR ( 'NONE', #1259, 1000.000000000000000 ) ;
#502 = CARTESIAN_POINT ( 'NONE',  ( -14.99999999999999645, 36.50000000000000000, 28.00000000000000000 ) ) ;
#503 = VERTEX_POINT ( 'NONE', #899 ) ;
#504 = ADVANCED_FACE ( 'NONE', ( #893 ), #374, .T. ) ;
#505 = FACE_OUTER_BOUND ( 'NONE', #274, .T. ) ;
#506 = VERTEX_POINT ( 'NONE', #692 ) ;
#507 = CARTESIAN_POINT ( 'NONE',  ( 9.000000000000001776, -12.99999999999999645, 20.00000000000000000 ) ) ;
#508 = ORIENTED_EDGE ( 'NONE', *, *, #293, .F. ) ;
#509 = DIRECTION ( 'NONE',  ( -1.000000000000000000, -1.734723475976807094E-16, 0.000000000000000000 ) ) ;
#510 = EDGE_CURVE ( 'NONE', #1135, #515, #273, .T. ) ;
#511 = VERTEX_POINT ( 'NONE', #1005 ) ;
#512 = CARTESIAN_POINT ( 'NONE',  ( -14.99999999999999645, -36.50000000000000000, 21.00000000000000000 ) ) ;
#513 = DIRECTION ( 'NONE',  ( 1.000000000000000000, 0.000000000000000000, 0.000000000000000000 ) ) ;
#514 = DIRECTION ( 'NONE',  ( -0.000000000000000000, 0.000000000000000000, -1.000000000000000000 ) ) ;
#515 = VERTEX_POINT ( 'NONE', #1228 ) ;
#516 = EDGE_CURVE ( 'NONE', #603, #230, #1133, .T. ) ;
#517 = DIRECTION ( 'NONE',  ( -1.000000000000000000, 0.000000000000000000, 0.000000000000000000 ) ) ;
#518 = ADVANCED_FACE ( 'NONE', ( #630 ), #84, .F. ) ;
#519 = LINE ( 'NONE', #930, #451 ) ;
#520 = AXIS2_PLACEMENT_3D ( 'NONE', #762, #1188, #1003 ) ;
#521 = VECTOR ( 'NONE', #496, 1000.000000000000000 ) ;
#522 = LINE ( 'NONE', #527, #56 ) ;
#523 = ORIENTED_EDGE ( 'NONE', *, *, #264, .T. ) ;
#524 = DIRECTION ( 'NONE',  ( 1.000000000000000000, 1.387778780781445676E-16, 0.000000000000000000 ) ) ;
#525 = EDGE_CURVE ( 'NONE', #55, #679, #253, .T. ) ;
#526 = CARTESIAN_POINT ( 'NONE',  ( -14.99999999999999645, 37.50000000000000000, 21.00000000000000000 ) ) ;
#527 = CARTESIAN_POINT ( 'NONE',  ( -4.999999999999999112, -8.999999999999996447, 0.000000000000000000 ) ) ;
#528 = ORIENTED_EDGE ( 'NONE', *, *, #661, .T. ) ;
#529 = CARTESIAN_POINT ( 'NONE',  ( 5.000000000000000888, 9.000000000000005329, 20.00000000000000000 ) ) ;
#530 = EDGE_LOOP ( 'NONE', ( #131, #1004, #880, #1049 ) ) ;
#531 = CARTESIAN_POINT ( 'NONE',  ( -24.99999999999999645, -27.49999999999999645, 27.00000000000000000 ) ) ;
#532 = ORIENTED_EDGE ( 'NONE', *, *, #264, .F. ) ;
#533 = DIRECTION ( 'NONE',  ( -1.000000000000000000, 0.000000000000000000, 0.000000000000000000 ) ) ;
#534 = DIRECTION ( 'NONE',  ( -1.000000000000000000, 0.000000000000000000, 0.000000000000000000 ) ) ;
#535 = FACE_OUTER_BOUND ( 'NONE', #575, .T. ) ;
#536 = CIRCLE ( 'NONE', #694, 9.000000000000003553 ) ;
#537 = DIRECTION ( 'NONE',  ( -0.000000000000000000, -1.000000000000000000, -0.000000000000000000 ) ) ;
#538 = ORIENTED_EDGE ( 'NONE', *, *, #581, .F. ) ;
#539 = EDGE_CURVE ( 'NONE', #1284, #1319, #1248, .T. ) ;
#540 = PRODUCT_DEFINITION_FORMATION_WITH_SPECIFIED_SOURCE ( 'Symmetric', '', #382, .NOT_KNOWN. ) ;
#541 = CARTESIAN_POINT ( 'NONE',  ( 15.00000000000000533, 27.49999999999999645, 27.00000000000000000 ) ) ;
#542 = CARTESIAN_POINT ( 'NONE',  ( 15.00000000000000533, -27.49999999999998934, 28.00000000000000000 ) ) ;
#543 = DIRECTION ( 'NONE',  ( 0.000000000000000000, -0.000000000000000000, 1.000000000000000000 ) ) ;
#544 = ORIENTED_EDGE ( 'NONE', *, *, #971, .F. ) ;
#545 = CARTESIAN_POINT ( 'NONE',  ( -8.999999999999998224, 12.00000000000000355, 20.00000000000000000 ) ) ;
#546 = EDGE_CURVE ( 'NONE', #392, #1019, #290, .T. ) ;
#547 = FACE_OUTER_BOUND ( 'NONE', #390, .T. ) ;
#548 = CARTESIAN_POINT ( 'NONE',  ( -9.999999999999998224, 6.672013369141566203E-16, 19.00000000000000000 ) ) ;
#549 = CARTESIAN_POINT ( 'NONE',  ( 15.00000000000000533, -27.49999999999998934, 27.00000000000000000 ) ) ;
#550 = ORIENTED_EDGE ( 'NONE', *, *, #79, .T. ) ;
#551 = CARTESIAN_POINT ( 'NONE',  ( 15.00000000000000533, 27.49999999999999645, 28.00000000000000000 ) ) ;
#552 = ADVANCED_FACE ( 'NONE', ( #505 ), #882, .T. ) ;
#553 = CARTESIAN_POINT ( 'NONE',  ( 8.000000000000000000, -11.99999999999999645, 19.00000000000000000 ) ) ;
#554 = ADVANCED_FACE ( 'NONE', ( #310 ), #834, .T. ) ;
#555 = CARTESIAN_POINT ( 'NONE',  ( -7.999999999999998224, 12.00000000000000355, 19.00000000000000000 ) ) ;
#556 = CLOSED_SHELL ( 'NONE', ( #1360, #1028, #98, #794, #518, #1277, #1130, #504, #170, #2, #227, #159, #1155, #1051, #1149, #1182, #902, #991, #39, #352, #1078, #723, #836, #246, #640, #272, #335, #944, #691, #1172, #554, #552, #1035, #54, #616, #1085, #1097, #981, #1086, #343, #964, #1189, #748, #443, #1113, #822, #879, #1292 ) ) ;
#557 = AXIS2_PLACEMENT_3D ( 'NONE', #1134, #1161, #729 ) ;
#558 = CARTESIAN_POINT ( 'NONE',  ( 24.00000000000000355, 27.49999999999999645, 21.00000000000000000 ) ) ;
#559 = VERTEX_POINT ( 'NONE', #1343 ) ;
#560 = AXIS2_PLACEMENT_3D ( 'NONE', #1010, #782, #1117 ) ;
#561 = DIRECTION ( 'NONE',  ( 0.000000000000000000, 0.000000000000000000, -1.000000000000000000 ) ) ;
#562 = COLOUR_RGB ( '',0.7921568627450980005, 0.8196078431372548767, 0.9333333333333333481 ) ;
#563 = ORIENTED_EDGE ( 'NONE', *, *, #1244, .F. ) ;
#564 = VECTOR ( 'NONE', #1242, 1000.000000000000000 ) ;
#565 = CARTESIAN_POINT ( 'NONE',  ( 15.00000000000000533, -27.49999999999998934, 27.00000000000000000 ) ) ;
#566 = EDGE_CURVE ( 'NONE', #468, #1275, #396, .T. ) ;
#567 = CARTESIAN_POINT ( 'NONE',  ( 25.00000000000000355, 37.50000000000000000, 21.00000000000000000 ) ) ;
#568 = ORIENTED_EDGE ( 'NONE', *, *, #928, .T. ) ;
#569 = CARTESIAN_POINT ( 'NONE',  ( 24.00000000000000355, 27.49999999999999645, 20.00000000000000000 ) ) ;
#570 = ORIENTED_EDGE ( 'NONE', *, *, #581, .T. ) ;
#571 = PRODUCT_DEFINITION_CONTEXT ( 'detailed design', #1056, 'design' ) ;
#572 = DIRECTION ( 'NONE',  ( 1.000000000000000000, 0.000000000000000000, 0.000000000000000000 ) ) ;
#573 = EDGE_CURVE ( 'NONE', #1170, #1019, #522, .T. ) ;
#574 = CARTESIAN_POINT ( 'NONE',  ( -14.99999999999999822, 27.50000000000000355, 28.00000000000000000 ) ) ;
#575 = EDGE_LOOP ( 'NONE', ( #582, #1249, #667, #457, #171, #809, #568, #285 ) ) ;
#576 = ORIENTED_EDGE ( 'NONE', *, *, #309, .F. ) ;
#577 = FACE_OUTER_BOUND ( 'NONE', #86, .T. ) ;
#578 = CARTESIAN_POINT ( 'NONE',  ( 15.00000000000000533, 27.49999999999999645, 20.00000000000000000 ) ) ;
#579 = ORIENTED_EDGE ( 'NONE', *, *, #1316, .T. ) ;
#580 = FACE_OUTER_BOUND ( 'NONE', #487, .T. ) ;
#581 = EDGE_CURVE ( 'NONE', #778, #1296, #388, .T. ) ;
#582 = ORIENTED_EDGE ( 'NONE', *, *, #204, .T. ) ;
#583 = AXIS2_PLACEMENT_3D ( 'NONE', #8, #423, #843 ) ;
#584 = TOROIDAL_SURFACE ( 'NONE', #866, 9.000000000000001776, 1.000000000000000000 ) ;
#585 = CARTESIAN_POINT ( 'NONE',  ( -23.99999999999999645, -37.50000000000000000, 21.00000000000000000 ) ) ;
#586 = DIRECTION ( 'NONE',  ( 0.000000000000000000, -1.000000000000000000, 0.000000000000000000 ) ) ;
#587 = VERTEX_POINT ( 'NONE', #317 ) ;
#588 = DIRECTION ( 'NONE',  ( -1.000000000000000000, -1.387778780781445676E-16, -0.000000000000000000 ) ) ;
#589 = ORIENTED_EDGE ( 'NONE', *, *, #239, .T. ) ;
#590 = EDGE_CURVE ( 'NONE', #103, #503, #1247, .T. ) ;
#591 = CARTESIAN_POINT ( 'NONE',  ( 8.000000000000000000, 12.00000000000000355, 19.00000000000000000 ) ) ;
#592 = DIRECTION ( 'NONE',  ( 1.000000000000000000, 0.000000000000000000, 0.000000000000000000 ) ) ;
#593 = FACE_OUTER_BOUND ( 'NONE', #345, .T. ) ;
#594 = ORIENTED_EDGE ( 'NONE', *, *, #808, .F. ) ;
#595 = DIRECTION ( 'NONE',  ( 0.000000000000000000, 0.000000000000000000, 1.000000000000000000 ) ) ;
#596 = EDGE_LOOP ( 'NONE', ( #1109, #665, #266, #813, #1349, #262, #150, #181 ) ) ;
#597 = PRODUCT_RELATED_PRODUCT_CATEGORY ( 'part', '', ( #382 ) ) ;
#598 = CARTESIAN_POINT ( 'NONE',  ( 0.000000000000000000, 0.000000000000000000, 0.000000000000000000 ) ) ;
#599 = EDGE_CURVE ( 'NONE', #230, #1076, #934, .T. ) ;
#600 = DIRECTION ( 'NONE',  ( 0.000000000000000000, 0.000000000000000000, 1.000000000000000000 ) ) ;
#601 = EDGE_LOOP ( 'NONE', ( #869, #892, #1281, #67 ) ) ;
#602 = DIRECTION ( 'NONE',  ( -0.000000000000000000, -1.000000000000000000, -0.000000000000000000 ) ) ;
#603 = VERTEX_POINT ( 'NONE', #611 ) ;
#604 = VECTOR ( 'NONE', #588, 1000.000000000000000 ) ;
#605 = CARTESIAN_POINT ( 'NONE',  ( 15.00000000000000533, 27.49999999999999645, 21.00000000000000000 ) ) ;
#606 = CIRCLE ( 'NONE', #14, 10.00000000000000000 ) ;
#607 = AXIS2_PLACEMENT_3D ( 'NONE', #1055, #301, #1008 ) ;
#608 = EDGE_CURVE ( 'NONE', #1299, #778, #401, .T. ) ;
#609 = CARTESIAN_POINT ( 'NONE',  ( 25.00000000000000355, -37.49999999999999289, 28.00000000000000000 ) ) ;
#610 = ORIENTED_EDGE ( 'NONE', *, *, #107, .F. ) ;
#611 = CARTESIAN_POINT ( 'NONE',  ( 8.000000000000000000, -13.99999999999999467, 20.00000000000000000 ) ) ;
#612 = ORIENTED_EDGE ( 'NONE', *, *, #499, .F. ) ;
#613 = DIRECTION ( 'NONE',  ( 1.000000000000000000, 0.000000000000000000, 0.000000000000000000 ) ) ;
#614 = PLANE ( 'NONE',  #950 ) ;
#615 = ORIENTED_EDGE ( 'NONE', *, *, #1192, .F. ) ;
#616 = ADVANCED_FACE ( 'NONE', ( #95 ), #146, .F. ) ;
#617 = ORIENTED_EDGE ( 'NONE', *, *, #71, .F. ) ;
#618 = DIRECTION ( 'NONE',  ( -0.000000000000000000, 0.000000000000000000, -1.000000000000000000 ) ) ;
#619 = SHAPE_DEFINITION_REPRESENTATION ( #1344, #1129 ) ;
#620 = DIRECTION ( 'NONE',  ( 1.000000000000000000, 0.000000000000000000, 0.000000000000000000 ) ) ;
#621 = CARTESIAN_POINT ( 'NONE',  ( 15.00000000000000533, 27.49999999999999645, 27.00000000000000000 ) ) ;
#622 = ORIENTED_EDGE ( 'NONE', *, *, #29, .F. ) ;
#623 = LINE ( 'NONE', #1042, #1137 ) ;
#624 = EDGE_CURVE ( 'NONE', #1289, #720, #676, .T. ) ;
#625 = DIRECTION ( 'NONE',  ( 0.000000000000000000, 0.000000000000000000, 1.000000000000000000 ) ) ;
#626 = CARTESIAN_POINT ( 'NONE',  ( -24.99999999999999645, -27.49999999999999645, 21.00000000000000000 ) ) ;
#627 = AXIS2_PLACEMENT_3D ( 'NONE', #529, #1154, #1163 ) ;
#628 = AXIS2_PLACEMENT_3D ( 'NONE', #512, #814, #1123 ) ;
#629 = AXIS2_PLACEMENT_3D ( 'NONE', #1094, #868, #561 ) ;
#630 = FACE_OUTER_BOUND ( 'NONE', #75, .T. ) ;
#631 = ORIENTED_EDGE ( 'NONE', *, *, #1122, .F. ) ;
#632 = PLANE ( 'NONE',  #627 ) ;
#633 = EDGE_CURVE ( 'NONE', #1321, #1001, #924, .T. ) ;
#634 =( NAMED_UNIT ( * ) SI_UNIT ( $, .STERADIAN. ) SOLID_ANGLE_UNIT ( ) );
#635 = CARTESIAN_POINT ( 'NONE',  ( 9.000000000000001776, -11.99999999999999645, 19.00000000000000000 ) ) ;
#636 = ORIENTED_EDGE ( 'NONE', *, *, #668, .T. ) ;
#637 = CARTESIAN_POINT ( 'NONE',  ( -8.000000000000000000, 14.00000000000000000, 20.00000000000000000 ) ) ;
#638 = LINE ( 'NONE', #1057, #298 ) ;
#639 = LINE ( 'NONE', #1058, #887 ) ;
#640 = ADVANCED_FACE ( 'NONE', ( #4 ), #1093, .T. ) ;
#641 = DIRECTION ( 'NONE',  ( 1.000000000000000000, 0.000000000000000000, 0.000000000000000000 ) ) ;
#642 = ORIENTED_EDGE ( 'NONE', *, *, #1244, .T. ) ;
#643 = FACE_OUTER_BOUND ( 'NONE', #945, .T. ) ;
#644 = CARTESIAN_POINT ( 'NONE',  ( 9.000000000000001776, -12.99999999999999645, 0.000000000000000000 ) ) ;
#645 =( NAMED_UNIT ( * ) PLANE_ANGLE_UNIT ( ) SI_UNIT ( $, .RADIAN. ) );
#646 = AXIS2_PLACEMENT_3D ( 'NONE', #53, #155, #992 ) ;
#647 = EDGE_CURVE ( 'NONE', #766, #511, #203, .T. ) ;
#648 = CIRCLE ( 'NONE', #1268, 1.000000000000000888 ) ;
#649 = FACE_OUTER_BOUND ( 'NONE', #358, .T. ) ;
#650 = VERTEX_POINT ( 'NONE', #1053 ) ;
#651 = AXIS2_PLACEMENT_3D ( 'NONE', #1116, #477, #870 ) ;
#652 = VECTOR ( 'NONE', #1177, 1000.000000000000000 ) ;
#653 = CIRCLE ( 'NONE', #364, 1.000000000000000888 ) ;
#654 = DIRECTION ( 'NONE',  ( 1.000000000000000000, 0.000000000000000000, 0.000000000000000000 ) ) ;
#655 = CARTESIAN_POINT ( 'NONE',  ( -14.99999999999999645, 36.50000000000000711, 20.00000000000000000 ) ) ;
#656 = CYLINDRICAL_SURFACE ( 'NONE', #842, 1.000000000000000888 ) ;
#657 = CARTESIAN_POINT ( 'NONE',  ( -23.99999999999999645, -27.49999999999999645, 28.00000000000000000 ) ) ;
#658 = EDGE_CURVE ( 'NONE', #785, #1184, #456, .T. ) ;
#659 = ORIENTED_EDGE ( 'NONE', *, *, #833, .T. ) ;
#660 = DIRECTION ( 'NONE',  ( 1.000000000000000000, 9.637352644315595243E-17, 0.000000000000000000 ) ) ;
#661 = EDGE_CURVE ( 'NONE', #603, #1299, #1271, .T. ) ;
#662 = DIRECTION ( 'NONE',  ( 0.000000000000000000, 0.000000000000000000, -1.000000000000000000 ) ) ;
#663 =( LENGTH_UNIT ( ) NAMED_UNIT ( * ) SI_UNIT ( .MILLI., .METRE. ) );
#664 = LINE ( 'NONE', #768, #208 ) ;
#665 = ORIENTED_EDGE ( 'NONE', *, *, #197, .T. ) ;
#666 = DIRECTION ( 'NONE',  ( 0.000000000000000000, 0.000000000000000000, -1.000000000000000000 ) ) ;
#667 = ORIENTED_EDGE ( 'NONE', *, *, #703, .T. ) ;
#668 = EDGE_CURVE ( 'NONE', #650, #746, #326, .T. ) ;
#669 = CARTESIAN_POINT ( 'NONE',  ( -9.999999999999998224, -11.99999999999999822, 20.00000000000000000 ) ) ;
#670 = AXIS2_PLACEMENT_3D ( 'NONE', #680, #1100, #595 ) ;
#671 = CARTESIAN_POINT ( 'NONE',  ( 25.00000000000000355, -37.49999999999999289, 28.00000000000000000 ) ) ;
#672 = ORIENTED_EDGE ( 'NONE', *, *, #412, .T. ) ;
#673 = CARTESIAN_POINT ( 'NONE',  ( 0.000000000000000000, 36.50000000000000000, 27.00000000000000000 ) ) ;
#674 = AXIS2_PLACEMENT_3D ( 'NONE', #1210, #145, #277 ) ;
#675 = EDGE_LOOP ( 'NONE', ( #508, #196, #783, #1104 ) ) ;
#676 = CIRCLE ( 'NONE', #16, 10.00000000000000000 ) ;
#677 = LINE ( 'NONE', #767, #863 ) ;
#678 = LINE ( 'NONE', #1108, #1020 ) ;
#679 = VERTEX_POINT ( 'NONE', #531 ) ;
#680 = CARTESIAN_POINT ( 'NONE',  ( -23.99999999999999645, -27.49999999999999645, 21.00000000000000000 ) ) ;
#681 = ORIENTED_EDGE ( 'NONE', *, *, #780, .F. ) ;
#682 = CARTESIAN_POINT ( 'NONE',  ( 8.000000000000000000, 13.00000000000000355, 19.00000000000000000 ) ) ;
#683 = EDGE_CURVE ( 'NONE', #28, #244, #1330, .T. ) ;
#684 = CARTESIAN_POINT ( 'NONE',  ( 15.00000000000000711, -36.49999999999999289, 21.00000000000000000 ) ) ;
#685 = EDGE_LOOP ( 'NONE', ( #133, #154, #612, #713 ) ) ;
#686 = DIRECTION ( 'NONE',  ( -0.000000000000000000, -0.000000000000000000, 1.000000000000000000 ) ) ;
#687 = ORIENTED_EDGE ( 'NONE', *, *, #808, .T. ) ;
#688 = CARTESIAN_POINT ( 'NONE',  ( -23.99999999999999645, 0.000000000000000000, 27.00000000000000000 ) ) ;
#689 = CARTESIAN_POINT ( 'NONE',  ( -9.999999999999998224, 12.00000000000000355, 19.00000000000000000 ) ) ;
#690 = ORIENTED_EDGE ( 'NONE', *, *, #871, .F. ) ;
#691 = ADVANCED_FACE ( 'NONE', ( #1059 ), #905, .T. ) ;
#692 = CARTESIAN_POINT ( 'NONE',  ( 25.00000000000000355, 27.49999999999999645, 27.00000000000000000 ) ) ;
#693 = EDGE_LOOP ( 'NONE', ( #570, #432, #427, #1334 ) ) ;
#694 = AXIS2_PLACEMENT_3D ( 'NONE', #578, #1103, #379 ) ;
#695 = AXIS2_PLACEMENT_3D ( 'NONE', #269, #371, #875 ) ;
#696 = AXIS2_PLACEMENT_3D ( 'NONE', #541, #134, #848 ) ;
#697 = CARTESIAN_POINT ( 'NONE',  ( 9.000000000000001776, -12.99999999999999645, 20.00000000000000000 ) ) ;
#698 = CARTESIAN_POINT ( 'NONE',  ( -14.99999999999999645, -37.50000000000000000, 21.00000000000000000 ) ) ;
#699 = DIRECTION ( 'NONE',  ( 0.000000000000000000, 0.000000000000000000, 1.000000000000000000 ) ) ;
#700 = VERTEX_POINT ( 'NONE', #657 ) ;
#701 = CARTESIAN_POINT ( 'NONE',  ( 8.000000000000000000, -11.99999999999999645, 20.00000000000000000 ) ) ;
#702 = ORIENTED_EDGE ( 'NONE', *, *, #889, .F. ) ;
#703 = EDGE_CURVE ( 'NONE', #244, #380, #223, .T. ) ;
#704 = CARTESIAN_POINT ( 'NONE',  ( 25.00000000000000355, -27.49999999999998934, 27.00000000000000000 ) ) ;
#705 = DIRECTION ( 'NONE',  ( 0.000000000000000000, -0.000000000000000000, 1.000000000000000000 ) ) ;
#706 = EDGE_LOOP ( 'NONE', ( #318, #140, #1060, #900 ) ) ;
#707 = CARTESIAN_POINT ( 'NONE',  ( 15.00000000000000533, 36.50000000000000000, 20.00000000000000000 ) ) ;
#708 = ORIENTED_EDGE ( 'NONE', *, *, #1238, .F. ) ;
#709 = EDGE_CURVE ( 'NONE', #1011, #1246, #997, .T. ) ;
#710 = CARTESIAN_POINT ( 'NONE',  ( 10.00000000000000178, 12.00000000000000711, 20.00000000000000000 ) ) ;
#711 = ORIENTED_EDGE ( 'NONE', *, *, #302, .T. ) ;
#712 = DIRECTION ( 'NONE',  ( -0.000000000000000000, 0.000000000000000000, -1.000000000000000000 ) ) ;
#713 = ORIENTED_EDGE ( 'NONE', *, *, #983, .T. ) ;
#714 = VECTOR ( 'NONE', #1147, 1000.000000000000000 ) ;
#715 = AXIS2_PLACEMENT_3D ( 'NONE', #755, #856, #1052 ) ;
#716 = AXIS2_PLACEMENT_3D ( 'NONE', #415, #149, #963 ) ;
#717 = DIRECTION ( 'NONE',  ( 1.000000000000000000, 0.000000000000000000, 0.000000000000000000 ) ) ;
#718 = EDGE_LOOP ( 'NONE', ( #183, #250, #1198, #1153 ) ) ;
#719 = CARTESIAN_POINT ( 'NONE',  ( -8.000000000000000000, -11.99999999999999822, 19.00000000000000000 ) ) ;
#720 = VERTEX_POINT ( 'NONE', #961 ) ;
#721 = CARTESIAN_POINT ( 'NONE',  ( -7.999999999999998224, 12.00000000000000355, 0.000000000000000000 ) ) ;
#722 = LINE ( 'NONE', #1233, #316 ) ;
#723 = ADVANCED_FACE ( 'NONE', ( #649 ), #852, .T. ) ;
#724 = CARTESIAN_POINT ( 'NONE',  ( -23.99999999999999645, 27.50000000000000355, 21.00000000000000000 ) ) ;
#725 = EDGE_LOOP ( 'NONE', ( #373, #1214, #1234, #1212 ) ) ;
#726 = LINE ( 'NONE', #1150, #1335 ) ;
#727 = DIRECTION ( 'NONE',  ( -1.000000000000000000, 0.000000000000000000, 0.000000000000000000 ) ) ;
#728 = LINE ( 'NONE', #1151, #1227 ) ;
#729 = DIRECTION ( 'NONE',  ( 1.387778780781445676E-16, -1.000000000000000000, 0.000000000000000000 ) ) ;
#730 = EDGE_CURVE ( 'NONE', #1278, #1321, #1043, .T. ) ;
#731 = ORIENTED_EDGE ( 'NONE', *, *, #1209, .T. ) ;
#732 = DIRECTION ( 'NONE',  ( 0.000000000000000000, -0.000000000000000000, 1.000000000000000000 ) ) ;
#733 = VECTOR ( 'NONE', #438, 1000.000000000000000 ) ;
#734 = AXIS2_PLACEMENT_3D ( 'NONE', #80, #308, #620 ) ;
#735 = AXIS2_PLACEMENT_3D ( 'NONE', #18, #433, #851 ) ;
#736 = CIRCLE ( 'NONE', #143, 1.000000000000000888 ) ;
#737 = AXIS2_PLACEMENT_3D ( 'NONE', #61, #480, #357 ) ;
#738 = DIRECTION ( 'NONE',  ( 0.000000000000000000, -0.000000000000000000, 1.000000000000000000 ) ) ;
#739 = EDGE_LOOP ( 'NONE', ( #1143, #642, #1218, #816 ) ) ;
#740 = EDGE_CURVE ( 'NONE', #858, #1092, #664, .T. ) ;
#741 = DIRECTION ( 'NONE',  ( -0.000000000000000000, 0.000000000000000000, -1.000000000000000000 ) ) ;
#742 = EDGE_CURVE ( 'NONE', #392, #920, #846, .T. ) ;
#743 = ORIENTED_EDGE ( 'NONE', *, *, #197, .F. ) ;
#744 = FACE_OUTER_BOUND ( 'NONE', #375, .T. ) ;
#745 = CARTESIAN_POINT ( 'NONE',  ( 5.000000000000000888, 9.000000000000005329, 0.000000000000000000 ) ) ;
#746 = VERTEX_POINT ( 'NONE', #745 ) ;
#747 = CARTESIAN_POINT ( 'NONE',  ( 8.000000000000000000, 12.00000000000000355, 20.00000000000000000 ) ) ;
#748 = ADVANCED_FACE ( 'NONE', ( #1298 ), #1081, .T. ) ;
#749 = CARTESIAN_POINT ( 'NONE',  ( -8.000000000000000000, -11.99999999999999822, 20.00000000000000000 ) ) ;
#750 = FACE_OUTER_BOUND ( 'NONE', #1125, .T. ) ;
#751 = DIRECTION ( 'NONE',  ( 0.000000000000000000, 0.000000000000000000, 1.000000000000000000 ) ) ;
#752 = ORIENTED_EDGE ( 'NONE', *, *, #539, .F. ) ;
#753 = CARTESIAN_POINT ( 'NONE',  ( -23.99999999999999645, 27.50000000000000355, 27.00000000000000000 ) ) ;
#754 = DIRECTION ( 'NONE',  ( 0.000000000000000000, -1.000000000000000000, 0.000000000000000000 ) ) ;
#755 = CARTESIAN_POINT ( 'NONE',  ( 15.00000000000000533, -27.49999999999998934, 28.00000000000000000 ) ) ;
#756 = CIRCLE ( 'NONE', #211, 1.000000000000000888 ) ;
#757 = DIRECTION ( 'NONE',  ( 0.000000000000000000, -0.000000000000000000, 1.000000000000000000 ) ) ;
#758 = ORIENTED_EDGE ( 'NONE', *, *, #599, .F. ) ;
#759 = AXIS2_PLACEMENT_3D ( 'NONE', #384, #946, #517 ) ;
#760 = DIRECTION ( 'NONE',  ( -9.637352644315607569E-17, 1.000000000000000000, 0.000000000000000000 ) ) ;
#761 = ORIENTED_EDGE ( 'NONE', *, *, #1007, .F. ) ;
#762 = CARTESIAN_POINT ( 'NONE',  ( 9.000000000000001776, 13.00000000000000355, 20.00000000000000000 ) ) ;
#763 = ORIENTED_EDGE ( 'NONE', *, *, #1331, .F. ) ;
#764 = EDGE_CURVE ( 'NONE', #468, #811, #142, .T. ) ;
#765 = CARTESIAN_POINT ( 'NONE',  ( 24.00000000000000355, 27.49999999999999645, 27.00000000000000000 ) ) ;
#766 = VERTEX_POINT ( 'NONE', #635 ) ;
#767 = CARTESIAN_POINT ( 'NONE',  ( 5.000000000000000888, 9.000000000000005329, 20.00000000000000000 ) ) ;
#768 = CARTESIAN_POINT ( 'NONE',  ( 15.00000000000000711, -37.49999999999999289, 28.00000000000000000 ) ) ;
#769 = ORIENTED_EDGE ( 'NONE', *, *, #849, .T. ) ;
#770 = LINE ( 'NONE', #251, #1046 ) ;
#771 = VERTEX_POINT ( 'NONE', #237 ) ;
#772 = LINE ( 'NONE', #348, #1066 ) ;
#773 = CYLINDRICAL_SURFACE ( 'NONE', #949, 10.00000000000000000 ) ;
#774 = EDGE_LOOP ( 'NONE', ( #1054, #752, #135, #26 ) ) ;
#775 = DIRECTION ( 'NONE',  ( 0.000000000000000000, -1.000000000000000000, -0.000000000000000000 ) ) ;
#776 = AXIS2_PLACEMENT_3D ( 'NONE', #923, #1257, #1352 ) ;
#777 = AXIS2_PLACEMENT_3D ( 'NONE', #721, #741, #12 ) ;
#778 = VERTEX_POINT ( 'NONE', #132 ) ;
#779 = VECTOR ( 'NONE', #824, 1000.000000000000000 ) ;
#780 = EDGE_CURVE ( 'NONE', #898, #980, #1310, .T. ) ;
#781 = DIRECTION ( 'NONE',  ( 0.000000000000000000, -1.000000000000000000, -0.000000000000000000 ) ) ;
#782 = DIRECTION ( 'NONE',  ( -0.000000000000000000, 0.000000000000000000, -1.000000000000000000 ) ) ;
#783 = ORIENTED_EDGE ( 'NONE', *, *, #1323, .F. ) ;
#784 = DIRECTION ( 'NONE',  ( 0.000000000000000000, 0.000000000000000000, -1.000000000000000000 ) ) ;
#785 = VERTEX_POINT ( 'NONE', #128 ) ;
#786 = FACE_OUTER_BOUND ( 'NONE', #601, .T. ) ;
#787 = EDGE_CURVE ( 'NONE', #1275, #1225, #1293, .T. ) ;
#788 = CARTESIAN_POINT ( 'NONE',  ( 24.00000000000000355, -27.49999999999998934, 28.00000000000000000 ) ) ;
#789 = ORIENTED_EDGE ( 'NONE', *, *, #971, .T. ) ;
#790 = CARTESIAN_POINT ( 'NONE',  ( 5.000000000000000888, -8.999999999999996447, 20.00000000000000000 ) ) ;
#791 = ORIENTED_EDGE ( 'NONE', *, *, #1226, .F. ) ;
#792 = DIRECTION ( 'NONE',  ( -0.000000000000000000, 0.000000000000000000, -1.000000000000000000 ) ) ;
#793 = CARTESIAN_POINT ( 'NONE',  ( -4.999999999999999112, -8.999999999999996447, 20.00000000000000000 ) ) ;
#794 = ADVANCED_FACE ( 'NONE', ( #336 ), #344, .F. ) ;
#795 = DIRECTION ( 'NONE',  ( -1.387778780781445676E-16, 1.000000000000000000, 0.000000000000000000 ) ) ;
#796 = VERTEX_POINT ( 'NONE', #903 ) ;
#797 = EDGE_CURVE ( 'NONE', #1184, #1070, #51, .T. ) ;
#798 = CARTESIAN_POINT ( 'NONE',  ( 24.00000000000000355, 27.49999999999999645, 28.00000000000000000 ) ) ;
#799 = ORIENTED_EDGE ( 'NONE', *, *, #204, .F. ) ;
#800 = TOROIDAL_SURFACE ( 'NONE', #497, 2.000000000000000000, 1.000000000000000000 ) ;
#801 = AXIS2_PLACEMENT_3D ( 'NONE', #941, #6, #1231 ) ;
#802 = AXIS2_PLACEMENT_3D ( 'NONE', #912, #99, #201 ) ;
#803 = VECTOR ( 'NONE', #906, 1000.000000000000000 ) ;
#804 = DIRECTION ( 'NONE',  ( 1.000000000000000000, -5.204170427930416550E-15, 0.000000000000000000 ) ) ;
#805 = DIRECTION ( 'NONE',  ( 0.000000000000000000, -0.000000000000000000, 1.000000000000000000 ) ) ;
#806 = ORIENTED_EDGE ( 'NONE', *, *, #546, .F. ) ;
#807 = DIRECTION ( 'NONE',  ( 0.000000000000000000, 0.000000000000000000, 1.000000000000000000 ) ) ;
#808 = EDGE_CURVE ( 'NONE', #858, #1135, #648, .T. ) ;
#809 = ORIENTED_EDGE ( 'NONE', *, *, #482, .T. ) ;
#810 = DIRECTION ( 'NONE',  ( 1.000000000000000000, 0.000000000000000000, -0.000000000000000000 ) ) ;
#811 = VERTEX_POINT ( 'NONE', #1211 ) ;
#812 = DIRECTION ( 'NONE',  ( 1.000000000000000000, 9.637352644315595243E-17, -0.000000000000000000 ) ) ;
#813 = ORIENTED_EDGE ( 'NONE', *, *, #29, .T. ) ;
#814 = DIRECTION ( 'NONE',  ( 1.000000000000000000, 0.000000000000000000, 0.000000000000000000 ) ) ;
#815 = FACE_OUTER_BOUND ( 'NONE', #92, .T. ) ;
#816 = ORIENTED_EDGE ( 'NONE', *, *, #90, .T. ) ;
#817 = DIRECTION ( 'NONE',  ( -1.000000000000000000, -9.637352644315594010E-17, -0.000000000000000000 ) ) ;
#818 = VERTEX_POINT ( 'NONE', #64 ) ;
#819 = CIRCLE ( 'NONE', #737, 1.000000000000000888 ) ;
#820 = CIRCLE ( 'NONE', #560, 1.000000000000000000 ) ;
#821 = CARTESIAN_POINT ( 'NONE',  ( -4.999999999999999112, 9.000000000000003553, 20.00000000000000000 ) ) ;
#822 = ADVANCED_FACE ( 'NONE', ( #1324 ), #167, .T. ) ;
#823 = FACE_OUTER_BOUND ( 'NONE', #774, .T. ) ;
#824 = DIRECTION ( 'NONE',  ( -1.000000000000000000, 0.000000000000000000, 0.000000000000000000 ) ) ;
#825 = ORIENTED_EDGE ( 'NONE', *, *, #1139, .T. ) ;
#826 = LINE ( 'NONE', #637, #15 ) ;
#827 = EDGE_CURVE ( 'NONE', #778, #1095, #820, .T. ) ;
#828 = FACE_OUTER_BOUND ( 'NONE', #996, .T. ) ;
#829 = CARTESIAN_POINT ( 'NONE',  ( 8.000000000000000000, 13.00000000000000355, 19.00000000000000000 ) ) ;
#830 = EDGE_LOOP ( 'NONE', ( #370, #73, #1355, #532 ) ) ;
#831 = DIRECTION ( 'NONE',  ( 0.000000000000000000, -0.000000000000000000, 1.000000000000000000 ) ) ;
#832 = CYLINDRICAL_SURFACE ( 'NONE', #82, 1.000000000000000888 ) ;
#833 = EDGE_CURVE ( 'NONE', #1313, #847, #338, .T. ) ;
#834 = CYLINDRICAL_SURFACE ( 'NONE', #557, 1.000000000000000888 ) ;
#835 = ORIENTED_EDGE ( 'NONE', *, *, #426, .F. ) ;
#836 = ADVANCED_FACE ( 'NONE', ( #593 ), #773, .T. ) ;
#837 = DIRECTION ( 'NONE',  ( -1.000000000000000000, -9.637352644315595243E-17, 0.000000000000000000 ) ) ;
#838 = CIRCLE ( 'NONE', #421, 9.000000000000003553 ) ;
#839 = VECTOR ( 'NONE', #886, 1000.000000000000000 ) ;
#840 = DIRECTION ( 'NONE',  ( -1.000000000000000000, 0.000000000000000000, 0.000000000000000000 ) ) ;
#841 = AXIS2_PLACEMENT_3D ( 'NONE', #40, #1280, #1173 ) ;
#842 = AXIS2_PLACEMENT_3D ( 'NONE', #548, #1074, #1180 ) ;
#843 = DIRECTION ( 'NONE',  ( 0.000000000000000000, 0.000000000000000000, 1.000000000000000000 ) ) ;
#844 = VECTOR ( 'NONE', #524, 1000.000000000000000 ) ;
#845 = AXIS2_PLACEMENT_3D ( 'NONE', #115, #121, #751 ) ;
#846 = LINE ( 'NONE', #955, #994 ) ;
#847 = VERTEX_POINT ( 'NONE', #788 ) ;
#848 = DIRECTION ( 'NONE',  ( 1.000000000000000000, 0.000000000000000000, 0.000000000000000000 ) ) ;
#849 = EDGE_CURVE ( 'NONE', #511, #81, #1091, .T. ) ;
#850 = ORIENTED_EDGE ( 'NONE', *, *, #62, .T. ) ;
#851 = DIRECTION ( 'NONE',  ( 1.000000000000000000, 0.000000000000000000, -0.000000000000000000 ) ) ;
#852 = CYLINDRICAL_SURFACE ( 'NONE', #841, 9.999999999999998224 ) ;
#853 = ORIENTED_EDGE ( 'NONE', *, *, #120, .F. ) ;
#854 = CYLINDRICAL_SURFACE ( 'NONE', #1000, 1.000000000000000888 ) ;
#855 = DIRECTION ( 'NONE',  ( 1.000000000000000000, 0.000000000000000000, 0.000000000000000000 ) ) ;
#856 = DIRECTION ( 'NONE',  ( 0.000000000000000000, 0.000000000000000000, -1.000000000000000000 ) ) ;
#857 = DIRECTION ( 'NONE',  ( 1.000000000000000000, 0.000000000000000000, 0.000000000000000000 ) ) ;
#858 = VERTEX_POINT ( 'NONE', #279 ) ;
#859 = DIRECTION ( 'NONE',  ( -1.000000000000000000, 0.000000000000000000, 0.000000000000000000 ) ) ;
#860 = CARTESIAN_POINT ( 'NONE',  ( -9.000000000000000000, -12.99999999999999822, 0.000000000000000000 ) ) ;
#861 = EDGE_CURVE ( 'NONE', #1319, #392, #678, .T. ) ;
#862 = VECTOR ( 'NONE', #537, 1000.000000000000000 ) ;
#863 = VECTOR ( 'NONE', #988, 1000.000000000000000 ) ;
#864 = DIRECTION ( 'NONE',  ( -1.000000000000000000, 0.000000000000000000, 0.000000000000000000 ) ) ;
#865 = VERTEX_POINT ( 'NONE', #484 ) ;
#866 = AXIS2_PLACEMENT_3D ( 'NONE', #605, #1347, #1239 ) ;
#867 = AXIS2_PLACEMENT_3D ( 'NONE', #7, #840, #1272 ) ;
#868 = DIRECTION ( 'NONE',  ( 1.000000000000000000, 0.000000000000000000, -0.000000000000000000 ) ) ;
#869 = ORIENTED_EDGE ( 'NONE', *, *, #360, .T. ) ;
#870 = DIRECTION ( 'NONE',  ( 1.000000000000000000, 0.000000000000000000, 0.000000000000000000 ) ) ;
#871 = EDGE_CURVE ( 'NONE', #1001, #89, #424, .T. ) ;
#872 = DIRECTION ( 'NONE',  ( 0.000000000000000000, 0.000000000000000000, -1.000000000000000000 ) ) ;
#873 = ORIENTED_EDGE ( 'NONE', *, *, #938, .T. ) ;
#874 = DIRECTION ( 'NONE',  ( 0.000000000000000000, 0.000000000000000000, -1.000000000000000000 ) ) ;
#875 = DIRECTION ( 'NONE',  ( -1.000000000000000000, 0.000000000000000000, 0.000000000000000000 ) ) ;
#876 = PLANE ( 'NONE',  #361 ) ;
#877 = ORIENTED_EDGE ( 'NONE', *, *, #590, .F. ) ;
#878 = DIRECTION ( 'NONE',  ( 0.000000000000000000, 0.000000000000000000, -1.000000000000000000 ) ) ;
#879 = ADVANCED_FACE ( 'NONE', ( #153 ), #372, .T. ) ;
#880 = ORIENTED_EDGE ( 'NONE', *, *, #1139, .F. ) ;
#881 = DIRECTION ( 'NONE',  ( 0.000000000000000000, 0.000000000000000000, -1.000000000000000000 ) ) ;
#882 = TOROIDAL_SURFACE ( 'NONE', #294, 9.000000000000001776, 1.000000000000000000 ) ;
#883 = CARTESIAN_POINT ( 'NONE',  ( -8.000000000000000000, -11.99999999999999822, 20.00000000000000000 ) ) ;
#884 = ORIENTED_EDGE ( 'NONE', *, *, #833, .F. ) ;
#885 = CIRCLE ( 'NONE', #448, 2.000000000000000000 ) ;
#886 = DIRECTION ( 'NONE',  ( 0.000000000000000000, 1.000000000000000000, 0.000000000000000000 ) ) ;
#887 = VECTOR ( 'NONE', #119, 1000.000000000000000 ) ;
#888 = CIRCLE ( 'NONE', #1068, 1.000000000000000000 ) ;
#889 = EDGE_CURVE ( 'NONE', #435, #244, #536, .T. ) ;
#890 = CARTESIAN_POINT ( 'NONE',  ( -14.99999999999999645, 36.50000000000000000, 27.00000000000000000 ) ) ;
#891 = DIRECTION ( 'NONE',  ( 0.000000000000000000, 0.000000000000000000, -1.000000000000000000 ) ) ;
#892 = ORIENTED_EDGE ( 'NONE', *, *, #921, .F. ) ;
#893 = FACE_OUTER_BOUND ( 'NONE', #1237, .T. ) ;
#894 = ORIENTED_EDGE ( 'NONE', *, *, #896, .T. ) ;
#895 = FACE_OUTER_BOUND ( 'NONE', #397, .T. ) ;
#896 = EDGE_CURVE ( 'NONE', #289, #1296, #885, .T. ) ;
#897 = DIRECTION ( 'NONE',  ( 0.000000000000000000, 1.000000000000000000, 0.000000000000000000 ) ) ;
#898 = VERTEX_POINT ( 'NONE', #157 ) ;
#899 = CARTESIAN_POINT ( 'NONE',  ( -24.99999999999999645, 27.50000000000000355, 21.00000000000000000 ) ) ;
#900 = ORIENTED_EDGE ( 'NONE', *, *, #797, .T. ) ;
#901 = CARTESIAN_POINT ( 'NONE',  ( -23.99999999999999645, 27.50000000000000355, 28.00000000000000000 ) ) ;
#902 = ADVANCED_FACE ( 'NONE', ( #249 ), #876, .F. ) ;
#903 = CARTESIAN_POINT ( 'NONE',  ( 8.000000000000000000, -12.99999999999999645, 0.000000000000000000 ) ) ;
#904 = ORIENTED_EDGE ( 'NONE', *, *, #220, .F. ) ;
#905 = TOROIDAL_SURFACE ( 'NONE', #315, 9.000000000000001776, 1.000000000000000000 ) ;
#906 = DIRECTION ( 'NONE',  ( -0.000000000000000000, -0.000000000000000000, -1.000000000000000000 ) ) ;
#907 = ORIENTED_EDGE ( 'NONE', *, *, #1014, .T. ) ;
#908 = VECTOR ( 'NONE', #367, 1000.000000000000000 ) ;
#909 = AXIS2_PLACEMENT_3D ( 'NONE', #354, #572, #174 ) ;
#910 = AXIS2_PLACEMENT_3D ( 'NONE', #111, #1261, #173 ) ;
#911 = AXIS2_PLACEMENT_3D ( 'NONE', #621, #1152, #102 ) ;
#912 = CARTESIAN_POINT ( 'NONE',  ( 15.00000000000000533, 36.50000000000000000, 27.00000000000000000 ) ) ;
#913 = DIRECTION ( 'NONE',  ( 1.000000000000000000, 0.000000000000000000, 0.000000000000000000 ) ) ;
#914 = ORIENTED_EDGE ( 'NONE', *, *, #398, .F. ) ;
#915 = ORIENTED_EDGE ( 'NONE', *, *, #68, .F. ) ;
#916 =( NAMED_UNIT ( * ) SI_UNIT ( $, .STERADIAN. ) SOLID_ANGLE_UNIT ( ) );
#917 = DIRECTION ( 'NONE',  ( 0.000000000000000000, -0.000000000000000000, 1.000000000000000000 ) ) ;
#918 = ORIENTED_EDGE ( 'NONE', *, *, #566, .T. ) ;
#919 = DIRECTION ( 'NONE',  ( 1.000000000000000000, -6.672013369141566696E-17, 0.000000000000000000 ) ) ;
#920 = VERTEX_POINT ( 'NONE', #46 ) ;
#921 = EDGE_CURVE ( 'NONE', #679, #1289, #995, .T. ) ;
#922 = CARTESIAN_POINT ( 'NONE',  ( 15.00000000000000711, -36.50000000000000000, 28.00000000000000000 ) ) ;
#923 = CARTESIAN_POINT ( 'NONE',  ( 1.349229370204182792E-15, -13.99999999999999467, 19.00000000000000000 ) ) ;
#924 = LINE ( 'NONE', #1354, #779 ) ;
#925 = ORIENTED_EDGE ( 'NONE', *, *, #668, .F. ) ;
#926 = FACE_OUTER_BOUND ( 'NONE', #1302, .T. ) ;
#927 = AXIS2_PLACEMENT_3D ( 'NONE', #270, #461, #699 ) ;
#928 = EDGE_CURVE ( 'NONE', #1186, #103, #1312, .T. ) ;
#929 = TOROIDAL_SURFACE ( 'NONE', #1157, 9.000000000000001776, 1.000000000000000000 ) ;
#930 = CARTESIAN_POINT ( 'NONE',  ( -8.999999999999998224, 11.99999999999999645, 19.00000000000000000 ) ) ;
#931 = CIRCLE ( 'NONE', #387, 1.000000000000000888 ) ;
#932 = VECTOR ( 'NONE', #1072, 1000.000000000000000 ) ;
#933 = CARTESIAN_POINT ( 'NONE',  ( 8.000000000000000000, 12.00000000000000355, 19.00000000000000000 ) ) ;
#934 = LINE ( 'NONE', #217, #564 ) ;
#935 = ORIENTED_EDGE ( 'NONE', *, *, #624, .F. ) ;
#936 = FACE_OUTER_BOUND ( 'NONE', #530, .T. ) ;
#937 = LINE ( 'NONE', #416, #234 ) ;
#938 = EDGE_CURVE ( 'NONE', #20, #356, #1065, .T. ) ;
#939 = DIRECTION ( 'NONE',  ( 0.000000000000000000, 0.000000000000000000, 1.000000000000000000 ) ) ;
#940 = ORIENTED_EDGE ( 'NONE', *, *, #546, .T. ) ;
#941 = CARTESIAN_POINT ( 'NONE',  ( 8.000000000000000000, -11.99999999999999645, 0.000000000000000000 ) ) ;
#942 = DIRECTION ( 'NONE',  ( 1.000000000000000000, 0.000000000000000000, 0.000000000000000000 ) ) ;
#943 = DIRECTION ( 'NONE',  ( -1.000000000000000000, -9.637352644315595243E-17, 0.000000000000000000 ) ) ;
#944 = ADVANCED_FACE ( 'NONE', ( #815 ), #275, .T. ) ;
#945 = EDGE_LOOP ( 'NONE', ( #383, #1162, #884, #957 ) ) ;
#946 = DIRECTION ( 'NONE',  ( 0.000000000000000000, 0.000000000000000000, -1.000000000000000000 ) ) ;
#947 = TOROIDAL_SURFACE ( 'NONE', #1200, 9.000000000000001776, 1.000000000000000000 ) ;
#948 = CARTESIAN_POINT ( 'NONE',  ( 15.00000000000000533, 37.50000000000000000, 27.00000000000000000 ) ) ;
#949 = AXIS2_PLACEMENT_3D ( 'NONE', #491, #467, #1333 ) ;
#950 = AXIS2_PLACEMENT_3D ( 'NONE', #507, #1348, #1039 ) ;
#951 = CARTESIAN_POINT ( 'NONE',  ( 15.00000000000000711, -36.49999999999999289, 20.00000000000000000 ) ) ;
#952 = AXIS2_PLACEMENT_3D ( 'NONE', #410, #831, #1144 ) ;
#953 = CIRCLE ( 'NONE', #340, 1.000000000000000888 ) ;
#954 = CIRCLE ( 'NONE', #1017, 1.000000000000000888 ) ;
#955 = CARTESIAN_POINT ( 'NONE',  ( 5.000000000000000888, -8.999999999999996447, 20.00000000000000000 ) ) ;
#956 = EDGE_CURVE ( 'NONE', #297, #468, #1047, .T. ) ;
#957 = ORIENTED_EDGE ( 'NONE', *, *, #455, .F. ) ;
#958 = LINE ( 'NONE', #1083, #932 ) ;
#959 = DIRECTION ( 'NONE',  ( 0.000000000000000000, -0.000000000000000000, -1.000000000000000000 ) ) ;
#960 = PLANE ( 'NONE',  #735 ) ;
#961 = CARTESIAN_POINT ( 'NONE',  ( -14.99999999999999645, 37.50000000000000000, 27.00000000000000000 ) ) ;
#962 = ORIENTED_EDGE ( 'NONE', *, *, #215, .T. ) ;
#963 = DIRECTION ( 'NONE',  ( -1.000000000000000000, 0.000000000000000000, 0.000000000000000000 ) ) ;
#964 = ADVANCED_FACE ( 'NONE', ( #100 ), #1332, .T. ) ;
#965 = PLANE ( 'NONE',  #1062 ) ;
#966 = PRESENTATION_STYLE_ASSIGNMENT (( #1171 ) ) ;
#967 = CARTESIAN_POINT ( 'NONE',  ( -8.000000000000000000, -11.99999999999999822, 0.000000000000000000 ) ) ;
#968 = ORIENTED_EDGE ( 'NONE', *, *, #928, .F. ) ;
#969 = CARTESIAN_POINT ( 'NONE',  ( -9.999999999999998224, -11.99999999999999822, 20.00000000000000000 ) ) ;
#970 = ORIENTED_EDGE ( 'NONE', *, *, #136, .T. ) ;
#971 = EDGE_CURVE ( 'NONE', #920, #650, #722, .T. ) ;
#972 = DIRECTION ( 'NONE',  ( 0.000000000000000000, -0.000000000000000000, 1.000000000000000000 ) ) ;
#973 = DIRECTION ( 'NONE',  ( 1.000000000000000000, 0.000000000000000000, 0.000000000000000000 ) ) ;
#974 = AXIS2_PLACEMENT_3D ( 'NONE', #19, #1183, #331 ) ;
#975 = CIRCLE ( 'NONE', #607, 1.000000000000000888 ) ;
#976 = DIRECTION ( 'NONE',  ( 0.000000000000000000, 0.000000000000000000, 1.000000000000000000 ) ) ;
#977 = ORIENTED_EDGE ( 'NONE', *, *, #1236, .F. ) ;
#978 = AXIS2_PLACEMENT_3D ( 'NONE', #790, #1219, #182 ) ;
#979 = CARTESIAN_POINT ( 'NONE',  ( -1.349229370204183383E-15, 14.00000000000000000, 19.00000000000000000 ) ) ;
#980 = VERTEX_POINT ( 'NONE', #284 ) ;
#981 = ADVANCED_FACE ( 'NONE', ( #828 ), #800, .F. ) ;
#982 = DIRECTION ( 'NONE',  ( 1.000000000000000000, 9.637352644315594010E-17, 0.000000000000000000 ) ) ;
#983 = EDGE_CURVE ( 'NONE', #28, #1184, #606, .T. ) ;
#984 = DIRECTION ( 'NONE',  ( -1.000000000000000000, -1.387778780781445676E-16, 0.000000000000000000 ) ) ;
#985 = EDGE_LOOP ( 'NONE', ( #414, #168, #32, #465 ) ) ;
#986 = DIRECTION ( 'NONE',  ( 0.000000000000000000, 0.000000000000000000, -1.000000000000000000 ) ) ;
#987 = ORIENTED_EDGE ( 'NONE', *, *, #172, .T. ) ;
#988 = DIRECTION ( 'NONE',  ( -0.000000000000000000, -0.000000000000000000, -1.000000000000000000 ) ) ;
#989 = CARTESIAN_POINT ( 'NONE',  ( 9.000000000000001776, -12.99999999999999645, 0.000000000000000000 ) ) ;
#990 = ORIENTED_EDGE ( 'NONE', *, *, #983, .F. ) ;
#991 = ADVANCED_FACE ( 'NONE', ( #202 ), #180, .F. ) ;
#992 = DIRECTION ( 'NONE',  ( 1.000000000000000000, 0.000000000000000000, 0.000000000000000000 ) ) ;
#993 = LINE ( 'NONE', #1088, #429 ) ;
#994 = VECTOR ( 'NONE', #1195, 1000.000000000000000 ) ;
#995 = LINE ( 'NONE', #1304, #35 ) ;
#996 = EDGE_LOOP ( 'NONE', ( #1241, #617, #238, #327 ) ) ;
#997 = CIRCLE ( 'NONE', #13, 10.00000000000000000 ) ;
#998 = DIRECTION ( 'NONE',  ( 1.000000000000000000, 0.000000000000000000, 0.000000000000000000 ) ) ;
#999 = CIRCLE ( 'NONE', #1178, 10.00000000000000000 ) ;
#1000 = AXIS2_PLACEMENT_3D ( 'NONE', #673, #654, #346 ) ;
#1001 = VERTEX_POINT ( 'NONE', #502 ) ;
#1002 = DIRECTION ( 'NONE',  ( 0.000000000000000000, 0.000000000000000000, -1.000000000000000000 ) ) ;
#1003 = DIRECTION ( 'NONE',  ( 1.000000000000000000, 9.637352644315595243E-17, 0.000000000000000000 ) ) ;
#1004 = ORIENTED_EDGE ( 'NONE', *, *, #107, .T. ) ;
#1005 = CARTESIAN_POINT ( 'NONE',  ( 9.000000000000001776, -11.99999999999999645, 0.000000000000000000 ) ) ;
#1006 = ORIENTED_EDGE ( 'NONE', *, *, #599, .T. ) ;
#1007 = EDGE_CURVE ( 'NONE', #20, #468, #1110, .T. ) ;
#1008 = DIRECTION ( 'NONE',  ( 0.000000000000000000, 0.000000000000000000, -1.000000000000000000 ) ) ;
#1009 = DIRECTION ( 'NONE',  ( 1.000000000000000000, 0.000000000000000000, 0.000000000000000000 ) ) ;
#1010 = CARTESIAN_POINT ( 'NONE',  ( -8.000000000000000000, -11.99999999999999822, 19.00000000000000000 ) ) ;
#1011 = VERTEX_POINT ( 'NONE', #626 ) ;
#1012 = LINE ( 'NONE', #798, #839 ) ;
#1013 = ORIENTED_EDGE ( 'NONE', *, *, #282, .T. ) ;
#1014 = EDGE_CURVE ( 'NONE', #700, #679, #756, .T. ) ;
#1015 = DIRECTION ( 'NONE',  ( -0.000000000000000000, -0.000000000000000000, 1.000000000000000000 ) ) ;
#1016 = ORIENTED_EDGE ( 'NONE', *, *, #1258, .T. ) ;
#1017 = AXIS2_PLACEMENT_3D ( 'NONE', #48, #286, #807 ) ;
#1018 = DIRECTION ( 'NONE',  ( 1.000000000000000000, 0.000000000000000000, 0.000000000000000000 ) ) ;
#1019 = VERTEX_POINT ( 'NONE', #394 ) ;
#1020 = VECTOR ( 'NONE', #265, 1000.000000000000000 ) ;
#1021 = MECHANICAL_DESIGN_GEOMETRIC_PRESENTATION_REPRESENTATION (  '', ( #362 ), #124 ) ;
#1022 = AXIS2_PLACEMENT_3D ( 'NONE', #1221, #732, #1050 ) ;
#1023 = AXIS2_PLACEMENT_3D ( 'NONE', #1138, #404, #613 ) ;
#1024 = VECTOR ( 'NONE', #1167, 1000.000000000000000 ) ;
#1025 = CARTESIAN_POINT ( 'NONE',  ( -14.99999999999999645, -36.50000000000000000, 27.00000000000000000 ) ) ;
#1026 = DIRECTION ( 'NONE',  ( 0.000000000000000000, 0.000000000000000000, -1.000000000000000000 ) ) ;
#1027 = ORIENTED_EDGE ( 'NONE', *, *, #590, .T. ) ;
#1028 = ADVANCED_FACE ( 'NONE', ( #88 ), #614, .F. ) ;
#1029 = DIRECTION ( 'NONE',  ( -0.000000000000000000, -1.000000000000000000, -0.000000000000000000 ) ) ;
#1030 = EDGE_LOOP ( 'NONE', ( #538, #492, #1190, #791 ) ) ;
#1031 = APPLICATION_PROTOCOL_DEFINITION ( 'draft international standard', 'automotive_design', 1998, #1175 ) ;
#1032 = DIRECTION ( 'NONE',  ( -0.000000000000000000, 0.000000000000000000, -1.000000000000000000 ) ) ;
#1033 = ORIENTED_EDGE ( 'NONE', *, *, #1199, .F. ) ;
#1034 = DIRECTION ( 'NONE',  ( 1.000000000000000000, 0.000000000000000000, 0.000000000000000000 ) ) ;
#1035 = ADVANCED_FACE ( 'NONE', ( #94 ), #1361, .F. ) ;
#1036 = EDGE_LOOP ( 'NONE', ( #711, #1243, #116, #1174 ) ) ;
#1037 = DIRECTION ( 'NONE',  ( 1.000000000000000000, 0.000000000000000000, 0.000000000000000000 ) ) ;
#1038 = CARTESIAN_POINT ( 'NONE',  ( 8.000000000000000000, -12.99999999999999645, 19.00000000000000000 ) ) ;
#1039 = DIRECTION ( 'NONE',  ( -1.000000000000000000, -9.637352644315594010E-17, 0.000000000000000000 ) ) ;
#1040 = CARTESIAN_POINT ( 'NONE',  ( -8.000000000000000000, -13.99999999999999822, 19.00000000000000000 ) ) ;
#1041 = ORIENTED_EDGE ( 'NONE', *, *, #740, .F. ) ;
#1042 = CARTESIAN_POINT ( 'NONE',  ( 5.000000000000000888, -8.999999999999996447, 0.000000000000000000 ) ) ;
#1043 = CIRCLE ( 'NONE', #1353, 9.000000000000003553 ) ;
#1044 = AXIS2_PLACEMENT_3D ( 'NONE', #1146, #1032, #913 ) ;
#1045 = EDGE_CURVE ( 'NONE', #746, #1170, #728, .T. ) ;
#1046 = VECTOR ( 'NONE', #1169, 1000.000000000000000 ) ;
#1047 = LINE ( 'NONE', #1254, #1156 ) ;
#1048 = CARTESIAN_POINT ( 'NONE',  ( -14.99999999999999645, -27.49999999999999645, 27.00000000000000000 ) ) ;
#1049 = ORIENTED_EDGE ( 'NONE', *, *, #172, .F. ) ;
#1050 = DIRECTION ( 'NONE',  ( 1.000000000000000000, 0.000000000000000000, 0.000000000000000000 ) ) ;
#1051 = ADVANCED_FACE ( 'NONE', ( #823 ), #207, .F. ) ;
#1052 = DIRECTION ( 'NONE',  ( -1.000000000000000000, 0.000000000000000000, 0.000000000000000000 ) ) ;
#1053 = CARTESIAN_POINT ( 'NONE',  ( 5.000000000000000888, -8.999999999999996447, 0.000000000000000000 ) ) ;
#1054 = ORIENTED_EDGE ( 'NONE', *, *, #861, .F. ) ;
#1055 = CARTESIAN_POINT ( 'NONE',  ( -10.00000000000000178, -11.99999999999999822, 19.00000000000000000 ) ) ;
#1056 = APPLICATION_CONTEXT ( 'automotive_design' ) ;
#1057 = CARTESIAN_POINT ( 'NONE',  ( -14.99999999999999645, 37.50000000000000000, 28.00000000000000000 ) ) ;
#1058 = CARTESIAN_POINT ( 'NONE',  ( 8.000000000000000000, -12.99999999999999645, 20.00000000000000000 ) ) ;
#1059 = FACE_OUTER_BOUND ( 'NONE', #291, .T. ) ;
#1060 = ORIENTED_EDGE ( 'NONE', *, *, #658, .T. ) ;
#1061 = CARTESIAN_POINT ( 'NONE',  ( 24.00000000000000355, 0.000000000000000000, 27.00000000000000000 ) ) ;
#1062 = AXIS2_PLACEMENT_3D ( 'NONE', #1079, #754, #959 ) ;
#1063 = VECTOR ( 'NONE', #812, 1000.000000000000000 ) ;
#1064 = LINE ( 'NONE', #644, #733 ) ;
#1065 = CIRCLE ( 'NONE', #473, 1.000000000000000888 ) ;
#1066 = VECTOR ( 'NONE', #1194, 1000.000000000000000 ) ;
#1067 = FACE_OUTER_BOUND ( 'NONE', #5, .T. ) ;
#1068 = AXIS2_PLACEMENT_3D ( 'NONE', #1295, #232, #436 ) ;
#1069 = DIRECTION ( 'NONE',  ( -1.000000000000000000, -1.734723475976805319E-15, 1.734723475976802361E-15 ) ) ;
#1070 = VERTEX_POINT ( 'NONE', #526 ) ;
#1071 = EDGE_CURVE ( 'NONE', #1011, #679, #937, .T. ) ;
#1072 = DIRECTION ( 'NONE',  ( 0.000000000000000000, 0.000000000000000000, -1.000000000000000000 ) ) ;
#1073 = FACE_OUTER_BOUND ( 'NONE', #1230, .T. ) ;
#1074 = DIRECTION ( 'NONE',  ( 6.672013369141566696E-17, 1.000000000000000000, 0.000000000000000000 ) ) ;
#1075 = DIRECTION ( 'NONE',  ( 1.734723475976805517E-15, -1.000000000000000000, 0.000000000000000000 ) ) ;
#1076 = VERTEX_POINT ( 'NONE', #710 ) ;
#1077 = CARTESIAN_POINT ( 'NONE',  ( 25.00000000000000355, -37.49999999999999289, 21.00000000000000000 ) ) ;
#1078 = ADVANCED_FACE ( 'NONE', ( #1131 ), #330, .T. ) ;
#1079 = CARTESIAN_POINT ( 'NONE',  ( 25.00000000000000355, 37.50000000000000000, 28.00000000000000000 ) ) ;
#1080 = PLANE ( 'NONE',  #583 ) ;
#1081 = CYLINDRICAL_SURFACE ( 'NONE', #974, 1.000000000000000888 ) ;
#1082 = ORIENTED_EDGE ( 'NONE', *, *, #510, .F. ) ;
#1083 = CARTESIAN_POINT ( 'NONE',  ( -14.99999999999999645, -37.50000000000000000, 28.00000000000000000 ) ) ;
#1084 = ORIENTED_EDGE ( 'NONE', *, *, #22, .F. ) ;
#1085 = ADVANCED_FACE ( 'NONE', ( #325 ), #832, .F. ) ;
#1086 = ADVANCED_FACE ( 'NONE', ( #750 ), #164, .F. ) ;
#1087 = VECTOR ( 'NONE', #775, 1000.000000000000000 ) ;
#1088 = CARTESIAN_POINT ( 'NONE',  ( -14.99999999999999645, -37.50000000000000000, 27.00000000000000000 ) ) ;
#1089 = VECTOR ( 'NONE', #63, 1000.000000000000000 ) ;
#1090 = CIRCLE ( 'NONE', #1251, 1.000000000000000888 ) ;
#1091 = LINE ( 'NONE', #989, #908 ) ;
#1092 = VERTEX_POINT ( 'NONE', #1279 ) ;
#1093 = TOROIDAL_SURFACE ( 'NONE', #911, 9.000000000000001776, 1.000000000000000000 ) ;
#1094 = CARTESIAN_POINT ( 'NONE',  ( 8.000000000000000000, 14.00000000000000355, 19.00000000000000000 ) ) ;
#1095 = VERTEX_POINT ( 'NONE', #1285 ) ;
#1096 = CARTESIAN_POINT ( 'NONE',  ( 24.00000000000000355, 27.49999999999999645, 28.00000000000000000 ) ) ;
#1097 = ADVANCED_FACE ( 'NONE', ( #1067 ), #656, .F. ) ;
#1098 = DIRECTION ( 'NONE',  ( 1.000000000000000000, 0.000000000000000000, 0.000000000000000000 ) ) ;
#1099 = ORIENTED_EDGE ( 'NONE', *, *, #239, .F. ) ;
#1100 = DIRECTION ( 'NONE',  ( 0.000000000000000000, 1.000000000000000000, 0.000000000000000000 ) ) ;
#1101 = ORIENTED_EDGE ( 'NONE', *, *, #516, .F. ) ;
#1102 = CYLINDRICAL_SURFACE ( 'NONE', #474, 1.000000000000000888 ) ;
#1103 = DIRECTION ( 'NONE',  ( -0.000000000000000000, 0.000000000000000000, -1.000000000000000000 ) ) ;
#1104 = ORIENTED_EDGE ( 'NONE', *, *, #730, .F. ) ;
#1105 = CARTESIAN_POINT ( 'NONE',  ( 9.000000000000001776, -11.99999999999999645, 19.00000000000000000 ) ) ;
#1106 = EDGE_LOOP ( 'NONE', ( #1220, #990, #60, #702 ) ) ;
#1107 = DIRECTION ( 'NONE',  ( -0.000000000000000000, 0.000000000000000000, -1.000000000000000000 ) ) ;
#1108 = CARTESIAN_POINT ( 'NONE',  ( -4.999999999999999112, -8.999999999999996447, 20.00000000000000000 ) ) ;
#1109 = ORIENTED_EDGE ( 'NONE', *, *, #453, .T. ) ;
#1110 = CIRCLE ( 'NONE', #1044, 1.000000000000000000 ) ;
#1111 = CARTESIAN_POINT ( 'NONE',  ( 5.065392549852276716E-15, -36.50000000000000000, 20.00000000000000000 ) ) ;
#1112 = AXIS2_PLACEMENT_3D ( 'NONE', #747, #328, #431 ) ;
#1113 = ADVANCED_FACE ( 'NONE', ( #744 ), #929, .T. ) ;
#1114 = EDGE_LOOP ( 'NONE', ( #118, #1307, #400, #636 ) ) ;
#1115 = LINE ( 'NONE', #69, #844 ) ;
#1116 = CARTESIAN_POINT ( 'NONE',  ( 15.00000000000000533, -27.49999999999998934, 20.00000000000000000 ) ) ;
#1117 = DIRECTION ( 'NONE',  ( 1.000000000000000000, 0.000000000000000000, 0.000000000000000000 ) ) ;
#1118 = ORIENTED_EDGE ( 'NONE', *, *, #1209, .F. ) ;
#1119 = MANIFOLD_SOLID_BREP ( 'Fillet3', #556 ) ;
#1120 = DIRECTION ( 'NONE',  ( 1.000000000000000000, 0.000000000000000000, 0.000000000000000000 ) ) ;
#1121 = ORIENTED_EDGE ( 'NONE', *, *, #633, .F. ) ;
#1122 = EDGE_CURVE ( 'NONE', #1225, #297, #1187, .T. ) ;
#1123 = DIRECTION ( 'NONE',  ( 0.000000000000000000, 0.000000000000000000, -1.000000000000000000 ) ) ;
#1124 = DIRECTION ( 'NONE',  ( 0.000000000000000000, 0.000000000000000000, -1.000000000000000000 ) ) ;
#1125 = EDGE_LOOP ( 'NONE', ( #873, #853, #283, #761 ) ) ;
#1126 = LINE ( 'NONE', #381, #359 ) ;
#1127 = EDGE_LOOP ( 'NONE', ( #96, #835, #129, #758 ) ) ;
#1128 = FACE_OUTER_BOUND ( 'NONE', #353, .T. ) ;
#1129 = ADVANCED_BREP_SHAPE_REPRESENTATION ( 'Part6 Pushing', ( #1119, #1023 ), #500 ) ;
#1130 = ADVANCED_FACE ( 'NONE', ( #242 ), #1080, .T. ) ;
#1131 = FACE_OUTER_BOUND ( 'NONE', #347, .T. ) ;
#1132 = ORIENTED_EDGE ( 'NONE', *, *, #312, .T. ) ;
#1133 = CIRCLE ( 'NONE', #1206, 2.000000000000000000 ) ;
#1134 = CARTESIAN_POINT ( 'NONE',  ( 5.065392549852276716E-15, -36.50000000000000000, 27.00000000000000000 ) ) ;
#1135 = VERTEX_POINT ( 'NONE', #951 ) ;
#1136 = AXIS2_PLACEMENT_3D ( 'NONE', #967, #31, #864 ) ;
#1137 = VECTOR ( 'NONE', #106, 1000.000000000000000 ) ;
#1138 = CARTESIAN_POINT ( 'NONE',  ( 0.000000000000000000, 0.000000000000000000, 0.000000000000000000 ) ) ;
#1139 = EDGE_CURVE ( 'NONE', #796, #1299, #639, .T. ) ;
#1140 = DIRECTION ( 'NONE',  ( -1.000000000000000000, 0.000000000000000000, 0.000000000000000000 ) ) ;
#1141 = ORIENTED_EDGE ( 'NONE', *, *, #827, .T. ) ;
#1142 = DIRECTION ( 'NONE',  ( 1.000000000000000000, 0.000000000000000000, 0.000000000000000000 ) ) ;
#1143 = ORIENTED_EDGE ( 'NONE', *, *, #740, .T. ) ;
#1144 = DIRECTION ( 'NONE',  ( 1.000000000000000000, 0.000000000000000000, 0.000000000000000000 ) ) ;
#1145 = APPLICATION_PROTOCOL_DEFINITION ( 'draft international standard', 'automotive_design', 1998, #1056 ) ;
#1146 = CARTESIAN_POINT ( 'NONE',  ( -7.999999999999998224, 12.00000000000000355, 19.00000000000000000 ) ) ;
#1147 = DIRECTION ( 'NONE',  ( -0.000000000000000000, -0.000000000000000000, -1.000000000000000000 ) ) ;
#1148 = ORIENTED_EDGE ( 'NONE', *, *, #152, .F. ) ;
#1149 = ADVANCED_FACE ( 'NONE', ( #228, #535 ), #960, .F. ) ;
#1150 = CARTESIAN_POINT ( 'NONE',  ( -8.000000000000000000, -12.99999999999999822, 20.00000000000000000 ) ) ;
#1151 = CARTESIAN_POINT ( 'NONE',  ( 5.000000000000000888, 9.000000000000005329, 0.000000000000000000 ) ) ;
#1152 = DIRECTION ( 'NONE',  ( 0.000000000000000000, -0.000000000000000000, 1.000000000000000000 ) ) ;
#1153 = ORIENTED_EDGE ( 'NONE', *, *, #482, .F. ) ;
#1154 = DIRECTION ( 'NONE',  ( 1.734723475976807094E-16, -1.000000000000000000, 0.000000000000000000 ) ) ;
#1155 = ADVANCED_FACE ( 'NONE', ( #24 ), #439, .T. ) ;
#1156 = VECTOR ( 'NONE', #1015, 1000.000000000000000 ) ;
#1157 = AXIS2_PLACEMENT_3D ( 'NONE', #1160, #314, #973 ) ;
#1158 = AXIS2_PLACEMENT_3D ( 'NONE', #458, #1282, #351 ) ;
#1159 = AXIS2_PLACEMENT_3D ( 'NONE', #724, #304, #939 ) ;
#1160 = CARTESIAN_POINT ( 'NONE',  ( 15.00000000000000533, -27.49999999999998934, 21.00000000000000000 ) ) ;
#1161 = DIRECTION ( 'NONE',  ( -1.000000000000000000, -1.387778780781445676E-16, 0.000000000000000000 ) ) ;
#1162 = ORIENTED_EDGE ( 'NONE', *, *, #490, .F. ) ;
#1163 = DIRECTION ( 'NONE',  ( 1.000000000000000000, 1.734723475976807094E-16, 0.000000000000000000 ) ) ;
#1164 = PRODUCT_DEFINITION ( 'General', '', #540, #571 ) ;
#1165 = DIRECTION ( 'NONE',  ( 1.000000000000000000, -0.000000000000000000, -0.000000000000000000 ) ) ;
#1166 = FILL_AREA_STYLE ('',( #1273 ) ) ;
#1167 = DIRECTION ( 'NONE',  ( 0.000000000000000000, 1.000000000000000000, 0.000000000000000000 ) ) ;
#1168 = ORIENTED_EDGE ( 'NONE', *, *, #921, .T. ) ;
#1169 = DIRECTION ( 'NONE',  ( 0.000000000000000000, 1.000000000000000000, 0.000000000000000000 ) ) ;
#1170 = VERTEX_POINT ( 'NONE', #454 ) ;
#1171 = SURFACE_STYLE_USAGE ( .BOTH. , #445 ) ;
#1172 = ADVANCED_FACE ( 'NONE', ( #786 ), #163, .T. ) ;
#1173 = DIRECTION ( 'NONE',  ( -1.000000000000000000, 0.000000000000000000, 0.000000000000000000 ) ) ;
#1174 = ORIENTED_EDGE ( 'NONE', *, *, #114, .F. ) ;
#1175 = APPLICATION_CONTEXT ( 'automotive_design' ) ;
#1176 = DIRECTION ( 'NONE',  ( 0.000000000000000000, 0.000000000000000000, -1.000000000000000000 ) ) ;
#1177 = DIRECTION ( 'NONE',  ( -6.672013369141566696E-17, -1.000000000000000000, -0.000000000000000000 ) ) ;
#1178 = AXIS2_PLACEMENT_3D ( 'NONE', #565, #1107, #592 ) ;
#1179 = VECTOR ( 'NONE', #943, 1000.000000000000000 ) ;
#1180 = DIRECTION ( 'NONE',  ( -1.000000000000000000, 6.672013369141564231E-17, 0.000000000000000000 ) ) ;
#1181 = AXIS2_PLACEMENT_3D ( 'NONE', #765, #225, #666 ) ;
#1182 = ADVANCED_FACE ( 'NONE', ( #895 ), #1297, .F. ) ;
#1183 = DIRECTION ( 'NONE',  ( 1.000000000000000000, 1.387778780781445676E-16, 0.000000000000000000 ) ) ;
#1184 = VERTEX_POINT ( 'NONE', #151 ) ;
#1185 = LINE ( 'NONE', #1077, #320 ) ;
#1186 = VERTEX_POINT ( 'NONE', #1201 ) ;
#1187 = LINE ( 'NONE', #113, #1179 ) ;
#1188 = DIRECTION ( 'NONE',  ( 9.637352644315595243E-17, -1.000000000000000000, 0.000000000000000000 ) ) ;
#1189 = ADVANCED_FACE ( 'NONE', ( #577 ), #1102, .T. ) ;
#1190 = ORIENTED_EDGE ( 'NONE', *, *, #661, .F. ) ;
#1191 = LINE ( 'NONE', #545, #407 ) ;
#1192 = EDGE_CURVE ( 'NONE', #980, #1095, #772, .T. ) ;
#1193 = ORIENTED_EDGE ( 'NONE', *, *, #1345, .T. ) ;
#1194 = DIRECTION ( 'NONE',  ( -0.000000000000000000, -0.000000000000000000, 1.000000000000000000 ) ) ;
#1195 = DIRECTION ( 'NONE',  ( 1.000000000000000000, -0.000000000000000000, -0.000000000000000000 ) ) ;
#1196 = ORIENTED_EDGE ( 'NONE', *, *, #1226, .T. ) ;
#1197 = DIRECTION ( 'NONE',  ( 0.000000000000000000, -1.000000000000000000, 0.000000000000000000 ) ) ;
#1198 = ORIENTED_EDGE ( 'NONE', *, *, #470, .F. ) ;
#1199 = EDGE_CURVE ( 'NONE', #380, #1135, #1250, .T. ) ;
#1200 = AXIS2_PLACEMENT_3D ( 'NONE', #1320, #177, #998 ) ;
#1201 = CARTESIAN_POINT ( 'NONE',  ( -23.99999999999999645, -27.49999999999999645, 20.00000000000000000 ) ) ;
#1202 = AXIS2_PLACEMENT_3D ( 'NONE', #574, #147, #1318 ) ;
#1203 = AXIS2_PLACEMENT_3D ( 'NONE', #697, #533, #1267 ) ;
#1204 = CARTESIAN_POINT ( 'NONE',  ( 24.00000000000000355, -37.49999999999999289, 21.00000000000000000 ) ) ;
#1205 = EDGE_LOOP ( 'NONE', ( #218, #918, #324, #178 ) ) ;
#1206 = AXIS2_PLACEMENT_3D ( 'NONE', #701, #74, #1120 ) ;
#1207 = CARTESIAN_POINT ( 'NONE',  ( -8.000000000000000000, 13.00000000000000178, 19.00000000000000000 ) ) ;
#1208 = ORIENTED_EDGE ( 'NONE', *, *, #742, .T. ) ;
#1209 = EDGE_CURVE ( 'NONE', #1313, #1092, #999, .T. ) ;
#1210 = CARTESIAN_POINT ( 'NONE',  ( -14.99999999999999822, 27.50000000000000355, 21.00000000000000000 ) ) ;
#1211 = CARTESIAN_POINT ( 'NONE',  ( -8.000000000000000000, 14.00000000000000355, 20.00000000000000000 ) ) ;
#1212 = ORIENTED_EDGE ( 'NONE', *, *, #179, .F. ) ;
#1213 = DIRECTION ( 'NONE',  ( -0.000000000000000000, -1.000000000000000000, -0.000000000000000000 ) ) ;
#1214 = ORIENTED_EDGE ( 'NONE', *, *, #1007, .T. ) ;
#1215 = DIRECTION ( 'NONE',  ( -0.000000000000000000, 1.000000000000000000, 0.000000000000000000 ) ) ;
#1216 = EDGE_CURVE ( 'NONE', #1284, #746, #677, .T. ) ;
#1217 = DIRECTION ( 'NONE',  ( 0.000000000000000000, 0.000000000000000000, 1.000000000000000000 ) ) ;
#1218 = ORIENTED_EDGE ( 'NONE', *, *, #309, .T. ) ;
#1219 = DIRECTION ( 'NONE',  ( -1.000000000000000000, 0.000000000000000000, 0.000000000000000000 ) ) ;
#1220 = ORIENTED_EDGE ( 'NONE', *, *, #1283, .T. ) ;
#1221 = CARTESIAN_POINT ( 'NONE',  ( 15.00000000000000533, -27.49999999999998934, 21.00000000000000000 ) ) ;
#1222 = LINE ( 'NONE', #263, #319 ) ;
#1223 = AXIS2_PLACEMENT_3D ( 'NONE', #3, #917, #1245 ) ;
#1224 = DIRECTION ( 'NONE',  ( -1.000000000000000000, 0.000000000000000000, 0.000000000000000000 ) ) ;
#1225 = VERTEX_POINT ( 'NONE', #248 ) ;
#1226 = EDGE_CURVE ( 'NONE', #1296, #603, #1222, .T. ) ;
#1227 = VECTOR ( 'NONE', #406, 1000.000000000000000 ) ;
#1228 = CARTESIAN_POINT ( 'NONE',  ( -14.99999999999999645, -36.50000000000000000, 20.00000000000000000 ) ) ;
#1229 = AXIS2_PLACEMENT_3D ( 'NONE', #793, #1009, #257 ) ;
#1230 = EDGE_LOOP ( 'NONE', ( #528, #610, #161, #1101 ) ) ;
#1231 = DIRECTION ( 'NONE',  ( -1.000000000000000000, 0.000000000000000000, 0.000000000000000000 ) ) ;
#1232 = DIRECTION ( 'NONE',  ( 0.000000000000000000, 0.000000000000000000, -1.000000000000000000 ) ) ;
#1233 = CARTESIAN_POINT ( 'NONE',  ( 5.000000000000000888, -8.999999999999996447, 20.00000000000000000 ) ) ;
#1234 = ORIENTED_EDGE ( 'NONE', *, *, #956, .F. ) ;
#1235 = LINE ( 'NONE', #486, #803 ) ;
#1236 = EDGE_CURVE ( 'NONE', #356, #289, #156, .T. ) ;
#1237 = EDGE_LOOP ( 'NONE', ( #925, #544, #1315, #158 ) ) ;
#1238 = EDGE_CURVE ( 'NONE', #1070, #503, #1269, .T. ) ;
#1239 = DIRECTION ( 'NONE',  ( 1.000000000000000000, 0.000000000000000000, 0.000000000000000000 ) ) ;
#1240 = DIRECTION ( 'NONE',  ( -0.000000000000000000, -0.000000000000000000, 1.000000000000000000 ) ) ;
#1241 = ORIENTED_EDGE ( 'NONE', *, *, #463, .T. ) ;
#1242 = DIRECTION ( 'NONE',  ( 0.000000000000000000, 1.000000000000000000, 0.000000000000000000 ) ) ;
#1243 = ORIENTED_EDGE ( 'NONE', *, *, #566, .F. ) ;
#1244 = EDGE_CURVE ( 'NONE', #1092, #55, #993, .T. ) ;
#1245 = DIRECTION ( 'NONE',  ( 1.000000000000000000, 0.000000000000000000, 0.000000000000000000 ) ) ;
#1246 = VERTEX_POINT ( 'NONE', #698 ) ;
#1247 = CIRCLE ( 'NONE', #1159, 1.000000000000000888 ) ;
#1248 = LINE ( 'NONE', #191, #85 ) ;
#1249 = ORIENTED_EDGE ( 'NONE', *, *, #889, .T. ) ;
#1250 = CIRCLE ( 'NONE', #651, 9.000000000000003553 ) ;
#1251 = AXIS2_PLACEMENT_3D ( 'NONE', #591, #792, #804 ) ;
#1252 = AXIS2_PLACEMENT_3D ( 'NONE', #1359, #1340, #1232 ) ;
#1253 =( NAMED_UNIT ( * ) PLANE_ANGLE_UNIT ( ) SI_UNIT ( $, .RADIAN. ) );
#1254 = CARTESIAN_POINT ( 'NONE',  ( -8.000000000000000000, 13.00000000000000178, 20.00000000000000000 ) ) ;
#1255 = ORIENTED_EDGE ( 'NONE', *, *, #45, .T. ) ;
#1256 = CARTESIAN_POINT ( 'NONE',  ( 0.000000000000000000, 36.50000000000000000, 20.00000000000000000 ) ) ;
#1257 = DIRECTION ( 'NONE',  ( -1.000000000000000000, -9.637352644315594010E-17, 0.000000000000000000 ) ) ;
#1258 = EDGE_CURVE ( 'NONE', #503, #1011, #44, .T. ) ;
#1259 = DIRECTION ( 'NONE',  ( 0.000000000000000000, 0.000000000000000000, -1.000000000000000000 ) ) ;
#1260 = ORIENTED_EDGE ( 'NONE', *, *, #1323, .T. ) ;
#1261 = DIRECTION ( 'NONE',  ( 0.000000000000000000, -0.000000000000000000, 1.000000000000000000 ) ) ;
#1262 = DIRECTION ( 'NONE',  ( 0.000000000000000000, -1.000000000000000000, 0.000000000000000000 ) ) ;
#1263 = CARTESIAN_POINT ( 'NONE',  ( -14.99999999999999822, 27.50000000000000355, 27.00000000000000000 ) ) ;
#1264 = EDGE_CURVE ( 'NONE', #1001, #720, #953, .T. ) ;
#1265 = EDGE_LOOP ( 'NONE', ( #825, #409, #962, #41 ) ) ;
#1266 = AXIS2_PLACEMENT_3D ( 'NONE', #464, #169, #878 ) ;
#1267 = DIRECTION ( 'NONE',  ( 0.000000000000000000, 0.000000000000000000, 1.000000000000000000 ) ) ;
#1268 = AXIS2_PLACEMENT_3D ( 'NONE', #684, #355, #891 ) ;
#1269 = CIRCLE ( 'NONE', #674, 10.00000000000000000 ) ;
#1270 = CIRCLE ( 'NONE', #777, 0.9999999999999991118 ) ;
#1271 = CIRCLE ( 'NONE', #845, 1.000000000000000888 ) ;
#1272 = DIRECTION ( 'NONE',  ( 0.000000000000000000, 0.000000000000000000, 1.000000000000000000 ) ) ;
#1273 = FILL_AREA_STYLE_COLOUR ( '', #562 ) ;
#1274 = DIRECTION ( 'NONE',  ( 1.000000000000000000, 0.000000000000000000, 0.000000000000000000 ) ) ;
#1275 = VERTEX_POINT ( 'NONE', #682 ) ;
#1276 = CARTESIAN_POINT ( 'NONE',  ( 25.00000000000000355, -27.49999999999998934, 28.00000000000000000 ) ) ;
#1277 = ADVANCED_FACE ( 'NONE', ( #483 ), #1317, .T. ) ;
#1278 = VERTEX_POINT ( 'NONE', #1096 ) ;
#1279 = CARTESIAN_POINT ( 'NONE',  ( 15.00000000000000711, -37.49999999999999289, 27.00000000000000000 ) ) ;
#1280 = DIRECTION ( 'NONE',  ( 0.000000000000000000, 0.000000000000000000, -1.000000000000000000 ) ) ;
#1281 = ORIENTED_EDGE ( 'NONE', *, *, #1014, .F. ) ;
#1282 = DIRECTION ( 'NONE',  ( 0.000000000000000000, -0.000000000000000000, 1.000000000000000000 ) ) ;
#1283 = EDGE_CURVE ( 'NONE', #435, #1184, #931, .T. ) ;
#1284 = VERTEX_POINT ( 'NONE', #1309 ) ;
#1285 = CARTESIAN_POINT ( 'NONE',  ( -9.000000000000000000, -11.99999999999999822, 19.00000000000000000 ) ) ;
#1286 = DIRECTION ( 'NONE',  ( 0.000000000000000000, 0.000000000000000000, -1.000000000000000000 ) ) ;
#1287 = ORIENTED_EDGE ( 'NONE', *, *, #426, .T. ) ;
#1288 = FACE_OUTER_BOUND ( 'NONE', #122, .T. ) ;
#1289 = VERTEX_POINT ( 'NONE', #184 ) ;
#1290 = PRESENTATION_LAYER_ASSIGNMENT (  '', '', ( #362 ) ) ;
#1291 = DIRECTION ( 'NONE',  ( 0.000000000000000000, -0.000000000000000000, 1.000000000000000000 ) ) ;
#1292 = ADVANCED_FACE ( 'NONE', ( #307 ), #584, .T. ) ;
#1293 = LINE ( 'NONE', #25, #162 ) ;
#1294 = ORIENTED_EDGE ( 'NONE', *, *, #1264, .T. ) ;
#1295 = CARTESIAN_POINT ( 'NONE',  ( 8.000000000000000000, 12.00000000000000355, 0.000000000000000000 ) ) ;
#1296 = VERTEX_POINT ( 'NONE', #194 ) ;
#1297 = PLANE ( 'NONE',  #909 ) ;
#1298 = FACE_OUTER_BOUND ( 'NONE', #65, .T. ) ;
#1299 = VERTEX_POINT ( 'NONE', #1038 ) ;
#1300 = EDGE_CURVE ( 'NONE', #865, #818, #93, .T. ) ;
#1301 = CYLINDRICAL_SURFACE ( 'NONE', #105, 1.000000000000000888 ) ;
#1302 = EDGE_LOOP ( 'NONE', ( #110, #1287, #485, #769 ) ) ;
#1303 = DIRECTION ( 'NONE',  ( 0.000000000000000000, 0.000000000000000000, 1.000000000000000000 ) ) ;
#1304 = CARTESIAN_POINT ( 'NONE',  ( -24.99999999999999645, 27.50000000000000355, 27.00000000000000000 ) ) ;
#1305 = ORIENTED_EDGE ( 'NONE', *, *, #849, .F. ) ;
#1306 = CARTESIAN_POINT ( 'NONE',  ( -23.99999999999999645, -27.49999999999999645, 28.00000000000000000 ) ) ;
#1307 = ORIENTED_EDGE ( 'NONE', *, *, #573, .T. ) ;
#1308 = AXIS2_PLACEMENT_3D ( 'NONE', #209, #919, #91 ) ;
#1309 = CARTESIAN_POINT ( 'NONE',  ( 5.000000000000000888, 9.000000000000005329, 20.00000000000000000 ) ) ;
#1310 = CIRCLE ( 'NONE', #1136, 1.000000000000000888 ) ;
#1311 = CIRCLE ( 'NONE', #696, 10.00000000000000000 ) ;
#1312 = LINE ( 'NONE', #259, #295 ) ;
#1313 = VERTEX_POINT ( 'NONE', #704 ) ;
#1314 = DIRECTION ( 'NONE',  ( 0.000000000000000000, 1.000000000000000000, 0.000000000000000000 ) ) ;
#1315 = ORIENTED_EDGE ( 'NONE', *, *, #323, .T. ) ;
#1316 = EDGE_CURVE ( 'NONE', #1246, #515, #144, .T. ) ;
#1317 = PLANE ( 'NONE',  #1229 ) ;
#1318 = DIRECTION ( 'NONE',  ( 1.000000000000000000, 0.000000000000000000, 0.000000000000000000 ) ) ;
#1319 = VERTEX_POINT ( 'NONE', #821 ) ;
#1320 = CARTESIAN_POINT ( 'NONE',  ( -14.99999999999999822, 27.50000000000000355, 21.00000000000000000 ) ) ;
#1321 = VERTEX_POINT ( 'NONE', #292 ) ;
#1322 = DIRECTION ( 'NONE',  ( -1.000000000000000000, -1.387778780781445676E-16, -0.000000000000000000 ) ) ;
#1323 = EDGE_CURVE ( 'NONE', #1321, #785, #38, .T. ) ;
#1324 = FACE_OUTER_BOUND ( 'NONE', #462, .T. ) ;
#1325 = EDGE_LOOP ( 'NONE', ( #287, #268, #589, #1363 ) ) ;
#1326 = CARTESIAN_POINT ( 'NONE',  ( -24.99999999999999645, 27.50000000000000355, 28.00000000000000000 ) ) ;
#1327 = ORIENTED_EDGE ( 'NONE', *, *, #179, .T. ) ;
#1328 = AXIS2_PLACEMENT_3D ( 'NONE', #749, #662, #534 ) ;
#1329 = CARTESIAN_POINT ( 'NONE',  ( -23.99999999999999645, 27.50000000000000355, 20.00000000000000000 ) ) ;
#1330 = CIRCLE ( 'NONE', #141, 1.000000000000000888 ) ;
#1331 = EDGE_CURVE ( 'NONE', #1095, #20, #519, .T. ) ;
#1332 = TOROIDAL_SURFACE ( 'NONE', #734, 9.000000000000001776, 1.000000000000000000 ) ;
#1333 = DIRECTION ( 'NONE',  ( -1.000000000000000000, 0.000000000000000000, 0.000000000000000000 ) ) ;
#1334 = ORIENTED_EDGE ( 'NONE', *, *, #827, .F. ) ;
#1335 = VECTOR ( 'NONE', #206, 1000.000000000000000 ) ;
#1336 = EDGE_CURVE ( 'NONE', #52, #1070, #476, .T. ) ;
#1337 = LINE ( 'NONE', #1326, #185 ) ;
#1338 = VECTOR ( 'NONE', #817, 1000.000000000000000 ) ;
#1339 = VERTEX_POINT ( 'NONE', #489 ) ;
#1340 = DIRECTION ( 'NONE',  ( 1.000000000000000000, -0.000000000000000000, 0.000000000000000000 ) ) ;
#1341 = DIRECTION ( 'NONE',  ( 0.000000000000000000, -0.000000000000000000, 1.000000000000000000 ) ) ;
#1342 = ORIENTED_EDGE ( 'NONE', *, *, #470, .T. ) ;
#1343 = CARTESIAN_POINT ( 'NONE',  ( -8.999999999999998224, 11.99999999999999645, 0.000000000000000000 ) ) ;
#1344 = PRODUCT_DEFINITION_SHAPE ( 'NONE', 'NONE',  #1164 ) ;
#1345 = EDGE_CURVE ( 'NONE', #55, #865, #653, .T. ) ;
#1346 = ORIENTED_EDGE ( 'NONE', *, *, #1300, .F. ) ;
#1347 = DIRECTION ( 'NONE',  ( 0.000000000000000000, -0.000000000000000000, 1.000000000000000000 ) ) ;
#1348 = DIRECTION ( 'NONE',  ( -9.637352644315594010E-17, 1.000000000000000000, 0.000000000000000000 ) ) ;
#1349 = ORIENTED_EDGE ( 'NONE', *, *, #490, .T. ) ;
#1350 = DIRECTION ( 'NONE',  ( 0.000000000000000000, 0.000000000000000000, -1.000000000000000000 ) ) ;
#1351 = ORIENTED_EDGE ( 'NONE', *, *, #1331, .T. ) ;
#1352 = DIRECTION ( 'NONE',  ( 9.637352644315590312E-17, -1.000000000000000000, 0.000000000000000000 ) ) ;
#1353 = AXIS2_PLACEMENT_3D ( 'NONE', #446, #757, #857 ) ;
#1354 = CARTESIAN_POINT ( 'NONE',  ( -14.99999999999999645, 36.50000000000000000, 28.00000000000000000 ) ) ;
#1355 = ORIENTED_EDGE ( 'NONE', *, *, #437, .F. ) ;
#1356 = AXIS2_PLACEMENT_3D ( 'NONE', #609, #1140, #600 ) ;
#1357 = CIRCLE ( 'NONE', #629, 1.000000000000000888 ) ;
#1358 = CARTESIAN_POINT ( 'NONE',  ( 8.000000000000000000, -11.99999999999999645, 19.00000000000000000 ) ) ;
#1359 = CARTESIAN_POINT ( 'NONE',  ( -14.99999999999999645, 36.50000000000000711, 21.00000000000000000 ) ) ;
#1360 = ADVANCED_FACE ( 'NONE', ( #1128, #385 ), #87, .T. ) ;
#1361 = CYLINDRICAL_SURFACE ( 'NONE', #776, 1.000000000000000888 ) ;
#1362 = DIRECTION ( 'NONE',  ( 1.000000000000000000, 0.000000000000000000, 0.000000000000000000 ) ) ;
#1363 = ORIENTED_EDGE ( 'NONE', *, *, #378, .T. ) ;
ENDSEC;
END-ISO-10303-21;
