ISO-10303-21;
HEADER;
FILE_DESCRIPTION (( 'STEP AP214' ),
    '1' );
FILE_NAME ('Part4 Motor Connector Arm.STEP',
    '2025-07-24T08:03:06',
    ( '' ),
    ( '' ),
    'SwSTEP 2.0',
    'SolidWorks 2025',
    '' );
FILE_SCHEMA (( 'AUTOMOTIVE_DESIGN' ));
ENDSEC;

DATA;
#1 = EDGE_LOOP ( 'NONE', ( #70 ) ) ;
#2 = STYLED_ITEM ( 'NONE', ( #222 ), #236 ) ;
#3 = DIRECTION ( 'NONE',  ( 1.000000000000000000, -0.000000000000000000, 0.000000000000000000 ) ) ;
#4 = ADVANCED_BREP_SHAPE_REPRESENTATION ( 'Part4 Motor Connector Arm', ( #236, #305 ), #285 ) ;
#5 = ORIENTED_EDGE ( 'NONE', *, *, #166, .T. ) ;
#6 = CARTESIAN_POINT ( 'NONE',  ( 66.00000000000000000, 0.000000000000000000, 0.000000000000000000 ) ) ;
#7 = ORIENTED_EDGE ( 'NONE', *, *, #306, .T. ) ;
#8 = PRODUCT_RELATED_PRODUCT_CATEGORY ( 'part', '', ( #113 ) ) ;
#9 = CARTESIAN_POINT ( 'NONE',  ( -16.00000000000000000, 95.00000000000000000, -18.00000000000000711 ) ) ;
#10 = ORIENTED_EDGE ( 'NONE', *, *, #101, .T. ) ;
#11 = VECTOR ( 'NONE', #212, 1000.000000000000000 ) ;
#12 = DIRECTION ( 'NONE',  ( 0.000000000000000000, 0.000000000000000000, -1.000000000000000000 ) ) ;
#13 = DIRECTION ( 'NONE',  ( 1.000000000000000000, -0.000000000000000000, 0.000000000000000000 ) ) ;
#14 =( NAMED_UNIT ( * ) PLANE_ANGLE_UNIT ( ) SI_UNIT ( $, .RADIAN. ) );
#15 = DIRECTION ( 'NONE',  ( 1.000000000000000000, -0.000000000000000000, 0.000000000000000000 ) ) ;
#16 = EDGE_CURVE ( 'NONE', #263, #56, #304, .T. ) ;
#17 = PLANE ( 'NONE',  #69 ) ;
#18 = FACE_OUTER_BOUND ( 'NONE', #106, .T. ) ;
#19 = CARTESIAN_POINT ( 'NONE',  ( 4.000000000000000000, 1.462803609546172873E-21, -18.00000000000000000 ) ) ;
#20 = DIRECTION ( 'NONE',  ( 1.000000000000000000, -0.000000000000000000, 0.000000000000000000 ) ) ;
#21 = CIRCLE ( 'NONE', #192, 18.00000000000000000 ) ;
#22 = CIRCLE ( 'NONE', #260, 8.000000000000000000 ) ;
#23 = ORIENTED_EDGE ( 'NONE', *, *, #271, .T. ) ;
#24 = SURFACE_STYLE_FILL_AREA ( #168 ) ;
#25 = VERTEX_POINT ( 'NONE', #102 ) ;
#26 = ADVANCED_FACE ( 'NONE', ( #54, #151 ), #221, .T. ) ;
#27 = ORIENTED_EDGE ( 'NONE', *, *, #97, .T. ) ;
#28 = PRODUCT_DEFINITION_SHAPE ( 'NONE', 'NONE',  #231 ) ;
#29 = FILL_AREA_STYLE_COLOUR ( '', #155 ) ;
#30 = DIRECTION ( 'NONE',  ( 1.000000000000000000, -0.000000000000000000, 0.000000000000000000 ) ) ;
#31 = CARTESIAN_POINT ( 'NONE',  ( -4.000000000000000000, 95.00000000000000000, 0.000000000000000000 ) ) ;
#32 = DIRECTION ( 'NONE',  ( 1.000000000000000000, -0.000000000000000000, 0.000000000000000000 ) ) ;
#33 = ADVANCED_FACE ( 'NONE', ( #292 ), #270, .F. ) ;
#34 = EDGE_LOOP ( 'NONE', ( #10, #199, #55, #72 ) ) ;
#35 = AXIS2_PLACEMENT_3D ( 'NONE', #148, #3, #100 ) ;
#36 = DIRECTION ( 'NONE',  ( 0.000000000000000000, -1.000000000000000000, 7.304098846218135653E-17 ) ) ;
#37 = DIRECTION ( 'NONE',  ( 1.000000000000000000, -0.000000000000000000, 0.000000000000000000 ) ) ;
#38 = CIRCLE ( 'NONE', #146, 18.00000000000000711 ) ;
#39 = CARTESIAN_POINT ( 'NONE',  ( 66.00000000000000000, 0.000000000000000000, 0.000000000000000000 ) ) ;
#40 = DIRECTION ( 'NONE',  ( 0.000000000000000000, 0.000000000000000000, -1.000000000000000000 ) ) ;
#41 = EDGE_CURVE ( 'NONE', #296, #296, #21, .T. ) ;
#42 = CARTESIAN_POINT ( 'NONE',  ( -16.00000000000000000, 95.00000000000000000, 0.000000000000000000 ) ) ;
#43 = CARTESIAN_POINT ( 'NONE',  ( -4.000000000000000000, 1.462803609546172873E-21, -18.00000000000000000 ) ) ;
#44 = APPLICATION_CONTEXT ( 'automotive_design' ) ;
#45 = DIRECTION ( 'NONE',  ( 0.000000000000000000, 1.000000000000000000, -7.304098846218135653E-17 ) ) ;
#46 = SHAPE_DEFINITION_REPRESENTATION ( #28, #4 ) ;
#47 = EDGE_CURVE ( 'NONE', #98, #293, #248, .T. ) ;
#48 = CARTESIAN_POINT ( 'NONE',  ( 4.000000000000000000, 95.00000000000000000, 18.00000000000000711 ) ) ;
#49 = FACE_OUTER_BOUND ( 'NONE', #217, .T. ) ;
#50 = EDGE_LOOP ( 'NONE', ( #147 ) ) ;
#51 = MECHANICAL_DESIGN_GEOMETRIC_PRESENTATION_REPRESENTATION (  '', ( #2 ), #194 ) ;
#52 = EDGE_CURVE ( 'NONE', #219, #25, #61, .T. ) ;
#53 = EDGE_LOOP ( 'NONE', ( #75 ) ) ;
#54 = FACE_BOUND ( 'NONE', #144, .T. ) ;
#55 = ORIENTED_EDGE ( 'NONE', *, *, #142, .F. ) ;
#56 = VERTEX_POINT ( 'NONE', #43 ) ;
#57 = EDGE_LOOP ( 'NONE', ( #5, #274, #123, #193 ) ) ;
#58 = CARTESIAN_POINT ( 'NONE',  ( 66.00000000000000000, 0.000000000000000000, 0.000000000000000000 ) ) ;
#59 = CARTESIAN_POINT ( 'NONE',  ( 4.000000000000000000, 95.00000000000000000, 18.00000000000000711 ) ) ;
#60 = CARTESIAN_POINT ( 'NONE',  ( 4.000000000000000000, 95.00000000000000000, 0.000000000000000000 ) ) ;
#61 = LINE ( 'NONE', #158, #170 ) ;
#62 = AXIS2_PLACEMENT_3D ( 'NONE', #140, #299, #45 ) ;
#63 = CARTESIAN_POINT ( 'NONE',  ( -4.000000000000000000, 2.925607219092345746E-21, 18.00000000000000000 ) ) ;
#64 = DIRECTION ( 'NONE',  ( 0.000000000000000000, -1.000000000000000000, 7.304098846218135653E-17 ) ) ;
#65 = CARTESIAN_POINT ( 'NONE',  ( 4.000000000000000000, 95.00000000000000000, 0.000000000000000000 ) ) ;
#66 = ADVANCED_FACE ( 'NONE', ( #256 ), #258, .T. ) ;
#67 = CARTESIAN_POINT ( 'NONE',  ( -4.000000000000000000, 95.00000000000000000, -18.00000000000000711 ) ) ;
#68 = CARTESIAN_POINT ( 'NONE',  ( -26.00000000000000000, 95.00000000000000000, 0.000000000000000000 ) ) ;
#69 = AXIS2_PLACEMENT_3D ( 'NONE', #93, #15, #239 ) ;
#70 = ORIENTED_EDGE ( 'NONE', *, *, #291, .T. ) ;
#71 = AXIS2_PLACEMENT_3D ( 'NONE', #240, #307, #187 ) ;
#72 = ORIENTED_EDGE ( 'NONE', *, *, #213, .F. ) ;
#73 = EDGE_CURVE ( 'NONE', #219, #79, #38, .T. ) ;
#74 = FACE_OUTER_BOUND ( 'NONE', #196, .T. ) ;
#75 = ORIENTED_EDGE ( 'NONE', *, *, #190, .F. ) ;
#76 = CIRCLE ( 'NONE', #254, 18.00000000000000000 ) ;
#77 = DIRECTION ( 'NONE',  ( 0.000000000000000000, 0.000000000000000000, -1.000000000000000000 ) ) ;
#78 = ORIENTED_EDGE ( 'NONE', *, *, #166, .F. ) ;
#79 = VERTEX_POINT ( 'NONE', #48 ) ;
#80 = AXIS2_PLACEMENT_3D ( 'NONE', #156, #233, #303 ) ;
#81 = ORIENTED_EDGE ( 'NONE', *, *, #41, .F. ) ;
#82 =( NAMED_UNIT ( * ) PLANE_ANGLE_UNIT ( ) SI_UNIT ( $, .RADIAN. ) );
#83 = CARTESIAN_POINT ( 'NONE',  ( 4.000000000000000000, -1.314737792319264418E-15, 18.00000000000000000 ) ) ;
#84 = VERTEX_POINT ( 'NONE', #201 ) ;
#85 = DIRECTION ( 'NONE',  ( -1.000000000000000000, 0.000000000000000000, -0.000000000000000000 ) ) ;
#86 = CARTESIAN_POINT ( 'NONE',  ( 0.000000000000000000, 0.000000000000000000, 0.000000000000000000 ) ) ;
#87 = PLANE ( 'NONE',  #121 ) ;
#88 = CIRCLE ( 'NONE', #228, 8.000000000000000000 ) ;
#89 =( LENGTH_UNIT ( ) NAMED_UNIT ( * ) SI_UNIT ( .MILLI., .METRE. ) );
#90 = DIRECTION ( 'NONE',  ( 0.000000000000000000, 0.000000000000000000, -1.000000000000000000 ) ) ;
#91 = DIRECTION ( 'NONE',  ( 0.000000000000000000, 0.000000000000000000, 1.000000000000000000 ) ) ;
#92 = PRODUCT_DEFINITION_CONTEXT ( 'detailed design', #205, 'design' ) ;
#93 = CARTESIAN_POINT ( 'NONE',  ( -16.00000000000000000, 0.000000000000000000, 0.000000000000000000 ) ) ;
#94 = DIRECTION ( 'NONE',  ( -1.000000000000000000, 0.000000000000000000, -0.000000000000000000 ) ) ;
#95 = AXIS2_PLACEMENT_3D ( 'NONE', #58, #181, #278 ) ;
#96 = PRODUCT_CONTEXT ( 'NONE', #44, 'mechanical' ) ;
#97 = EDGE_CURVE ( 'NONE', #79, #98, #136, .T. ) ;
#98 = VERTEX_POINT ( 'NONE', #160 ) ;
#99 = VECTOR ( 'NONE', #204, 1000.000000000000000 ) ;
#100 = DIRECTION ( 'NONE',  ( 0.000000000000000000, 0.000000000000000000, -1.000000000000000000 ) ) ;
#101 = EDGE_CURVE ( 'NONE', #223, #263, #179, .T. ) ;
#102 = CARTESIAN_POINT ( 'NONE',  ( 4.000000000000000000, 1.462803609546172873E-21, -18.00000000000000000 ) ) ;
#103 = ORIENTED_EDGE ( 'NONE', *, *, #52, .T. ) ;
#104 = DIRECTION ( 'NONE',  ( 1.000000000000000000, -0.000000000000000000, 0.000000000000000000 ) ) ;
#105 = CIRCLE ( 'NONE', #145, 18.00000000000000711 ) ;
#106 = EDGE_LOOP ( 'NONE', ( #188, #225, #311, #265 ) ) ;
#107 = EDGE_CURVE ( 'NONE', #219, #293, #302, .T. ) ;
#108 = DIRECTION ( 'NONE',  ( 0.000000000000000000, 0.000000000000000000, -1.000000000000000000 ) ) ;
#109 = UNCERTAINTY_MEASURE_WITH_UNIT (LENGTH_MEASURE( 1.000000000000000082E-05 ), #198, 'distance_accuracy_value', 'NONE');
#110 = PLANE ( 'NONE',  #80 ) ;
#111 = CARTESIAN_POINT ( 'NONE',  ( -26.00000000000000000, 95.00000000000000000, 0.000000000000000000 ) ) ;
#112 = LINE ( 'NONE', #83, #241 ) ;
#113 = PRODUCT ( 'Part4 Motor Connector Arm', 'Part4 Motor Connector Arm', '', ( #96 ) ) ;
#114 = FACE_OUTER_BOUND ( 'NONE', #131, .T. ) ;
#115 = CARTESIAN_POINT ( 'NONE',  ( 16.00000000000000000, 0.000000000000000000, -8.000000000000000000 ) ) ;
#116 = FACE_OUTER_BOUND ( 'NONE', #284, .T. ) ;
#117 = DIRECTION ( 'NONE',  ( 0.000000000000000000, 0.000000000000000000, -1.000000000000000000 ) ) ;
#118 = AXIS2_PLACEMENT_3D ( 'NONE', #31, #13, #235 ) ;
#119 = ADVANCED_FACE ( 'NONE', ( #259 ), #183, .T. ) ;
#120 = FACE_OUTER_BOUND ( 'NONE', #34, .T. ) ;
#121 = AXIS2_PLACEMENT_3D ( 'NONE', #253, #37, #279 ) ;
#122 = ORIENTED_EDGE ( 'NONE', *, *, #283, .F. ) ;
#123 = ORIENTED_EDGE ( 'NONE', *, *, #52, .F. ) ;
#124 = ORIENTED_EDGE ( 'NONE', *, *, #101, .F. ) ;
#125 = VECTOR ( 'NONE', #36, 1000.000000000000000 ) ;
#126 = ADVANCED_FACE ( 'NONE', ( #139 ), #110, .F. ) ;
#127 = SURFACE_SIDE_STYLE ('',( #24 ) ) ;
#128 = CARTESIAN_POINT ( 'NONE',  ( 16.00000000000000000, 0.000000000000000000, 0.000000000000000000 ) ) ;
#129 = DIRECTION ( 'NONE',  ( 0.000000000000000000, 0.000000000000000000, -1.000000000000000000 ) ) ;
#130 = DIRECTION ( 'NONE',  ( 1.000000000000000000, -0.000000000000000000, 0.000000000000000000 ) ) ;
#131 = EDGE_LOOP ( 'NONE', ( #309 ) ) ;
#132 = FACE_OUTER_BOUND ( 'NONE', #247, .T. ) ;
#133 = LINE ( 'NONE', #230, #99 ) ;
#134 = DIRECTION ( 'NONE',  ( 0.000000000000000000, 0.000000000000000000, -1.000000000000000000 ) ) ;
#135 = UNCERTAINTY_MEASURE_WITH_UNIT (LENGTH_MEASURE( 1.000000000000000082E-05 ), #89, 'distance_accuracy_value', 'NONE');
#136 = LINE ( 'NONE', #59, #11 ) ;
#137 = DIRECTION ( 'NONE',  ( 1.000000000000000000, -0.000000000000000000, 0.000000000000000000 ) ) ;
#138 = DIRECTION ( 'NONE',  ( -1.000000000000000000, -0.000000000000000000, -0.000000000000000000 ) ) ;
#139 = FACE_OUTER_BOUND ( 'NONE', #245, .T. ) ;
#140 = CARTESIAN_POINT ( 'NONE',  ( 4.000000000000000000, -1.314737792319264418E-15, -18.00000000000000000 ) ) ;
#141 = CYLINDRICAL_SURFACE ( 'NONE', #71, 18.00000000000000000 ) ;
#142 = EDGE_CURVE ( 'NONE', #25, #56, #237, .T. ) ;
#143 = AXIS2_PLACEMENT_3D ( 'NONE', #177, #297, #117 ) ;
#144 = EDGE_LOOP ( 'NONE', ( #267 ) ) ;
#145 = AXIS2_PLACEMENT_3D ( 'NONE', #42, #32, #12 ) ;
#146 = AXIS2_PLACEMENT_3D ( 'NONE', #65, #20, #40 ) ;
#147 = ORIENTED_EDGE ( 'NONE', *, *, #264, .T. ) ;
#148 = CARTESIAN_POINT ( 'NONE',  ( 16.00000000000000000, 0.000000000000000000, 0.000000000000000000 ) ) ;
#149 = CARTESIAN_POINT ( 'NONE',  ( -26.00000000000000000, 0.000000000000000000, 0.000000000000000000 ) ) ;
#150 = PRODUCT_DEFINITION_FORMATION_WITH_SPECIFIED_SOURCE ( 'Symmetric', '', #113, .NOT_KNOWN. ) ;
#151 = FACE_OUTER_BOUND ( 'NONE', #272, .T. ) ;
#152 = ADVANCED_FACE ( 'NONE', ( #295, #116 ), #17, .F. ) ;
#153 = ORIENTED_EDGE ( 'NONE', *, *, #291, .F. ) ;
#154 = FACE_OUTER_BOUND ( 'NONE', #1, .T. ) ;
#155 = COLOUR_RGB ( '',0.7921568627450980005, 0.8196078431372548767, 0.9333333333333333481 ) ;
#156 = CARTESIAN_POINT ( 'NONE',  ( 4.000000000000000000, -1.314737792319264418E-15, 18.00000000000000000 ) ) ;
#157 = CARTESIAN_POINT ( 'NONE',  ( 16.00000000000000000, 0.000000000000000000, -18.00000000000000000 ) ) ;
#158 = CARTESIAN_POINT ( 'NONE',  ( 4.000000000000000000, -1.314737792319264418E-15, -18.00000000000000000 ) ) ;
#159 = CARTESIAN_POINT ( 'NONE',  ( -26.00000000000000000, 95.00000000000000000, -8.000000000000001776 ) ) ;
#160 = CARTESIAN_POINT ( 'NONE',  ( -4.000000000000000000, 95.00000000000000000, 18.00000000000000711 ) ) ;
#161 =( NAMED_UNIT ( * ) SI_UNIT ( $, .STERADIAN. ) SOLID_ANGLE_UNIT ( ) );
#162 = DIRECTION ( 'NONE',  ( 1.000000000000000000, 0.000000000000000000, 0.000000000000000000 ) ) ;
#163 = ADVANCED_FACE ( 'NONE', ( #154, #114 ), #282, .T. ) ;
#164 = CARTESIAN_POINT ( 'NONE',  ( 4.000000000000000000, 95.00000000000000000, -18.00000000000000711 ) ) ;
#165 = CIRCLE ( 'NONE', #310, 8.000000000000001776 ) ;
#166 = EDGE_CURVE ( 'NONE', #79, #223, #112, .T. ) ;
#167 = AXIS2_PLACEMENT_3D ( 'NONE', #289, #173, #77 ) ;
#168 = FILL_AREA_STYLE ('',( #29 ) ) ;
#169 = ORIENTED_EDGE ( 'NONE', *, *, #264, .F. ) ;
#170 = VECTOR ( 'NONE', #64, 1000.000000000000000 ) ;
#171 = ADVANCED_FACE ( 'NONE', ( #261 ), #87, .F. ) ;
#172 = ORIENTED_EDGE ( 'NONE', *, *, #283, .T. ) ;
#173 = DIRECTION ( 'NONE',  ( 1.000000000000000000, -0.000000000000000000, 0.000000000000000000 ) ) ;
#174 = SURFACE_STYLE_USAGE ( .BOTH. , #127 ) ;
#175 = ORIENTED_EDGE ( 'NONE', *, *, #41, .T. ) ;
#176 = ORIENTED_EDGE ( 'NONE', *, *, #271, .F. ) ;
#177 = CARTESIAN_POINT ( 'NONE',  ( 4.000000000000000000, 0.000000000000000000, 0.000000000000000000 ) ) ;
#178 = VERTEX_POINT ( 'NONE', #257 ) ;
#179 = LINE ( 'NONE', #277, #273 ) ;
#180 = CARTESIAN_POINT ( 'NONE',  ( 16.00000000000000000, 0.000000000000000000, 0.000000000000000000 ) ) ;
#181 = DIRECTION ( 'NONE',  ( 1.000000000000000000, -0.000000000000000000, 0.000000000000000000 ) ) ;
#182 = CARTESIAN_POINT ( 'NONE',  ( 4.000000000000000000, 95.00000000000000000, -18.00000000000000711 ) ) ;
#183 = PLANE ( 'NONE',  #62 ) ;
#184 = CLOSED_SHELL ( 'NONE', ( #250, #126, #215, #119, #66, #171, #152, #163, #33, #26, #224, #242 ) ) ;
#185 = EDGE_CURVE ( 'NONE', #98, #263, #133, .T. ) ;
#186 = DIRECTION ( 'NONE',  ( 0.000000000000000000, 0.000000000000000000, -1.000000000000000000 ) ) ;
#187 = DIRECTION ( 'NONE',  ( 0.000000000000000000, 0.000000000000000000, 1.000000000000000000 ) ) ;
#188 = ORIENTED_EDGE ( 'NONE', *, *, #107, .T. ) ;
#189 = EDGE_LOOP ( 'NONE', ( #7 ) ) ;
#190 = EDGE_CURVE ( 'NONE', #226, #226, #22, .T. ) ;
#191 = DIRECTION ( 'NONE',  ( 1.000000000000000000, 0.000000000000000000, 0.000000000000000000 ) ) ;
#192 = AXIS2_PLACEMENT_3D ( 'NONE', #128, #197, #251 ) ;
#193 = ORIENTED_EDGE ( 'NONE', *, *, #73, .T. ) ;
#194 =( GEOMETRIC_REPRESENTATION_CONTEXT ( 3 ) GLOBAL_UNCERTAINTY_ASSIGNED_CONTEXT ( ( #109 ) ) GLOBAL_UNIT_ASSIGNED_CONTEXT ( ( #198, #14, #161 ) ) REPRESENTATION_CONTEXT ( 'NONE', 'WORKASPACE' ) );
#195 = DIRECTION ( 'NONE',  ( -1.000000000000000000, -0.000000000000000000, -0.000000000000000000 ) ) ;
#196 = EDGE_LOOP ( 'NONE', ( #176 ) ) ;
#197 = DIRECTION ( 'NONE',  ( 1.000000000000000000, -0.000000000000000000, 0.000000000000000000 ) ) ;
#198 =( LENGTH_UNIT ( ) NAMED_UNIT ( * ) SI_UNIT ( .MILLI., .METRE. ) );
#199 = ORIENTED_EDGE ( 'NONE', *, *, #16, .T. ) ;
#200 = VECTOR ( 'NONE', #138, 1000.000000000000000 ) ;
#201 = CARTESIAN_POINT ( 'NONE',  ( 66.00000000000000000, 0.000000000000000000, -8.000000000000000000 ) ) ;
#202 = ORIENTED_EDGE ( 'NONE', *, *, #47, .T. ) ;
#203 = CARTESIAN_POINT ( 'NONE',  ( -16.00000000000000000, 95.00000000000000000, 0.000000000000000000 ) ) ;
#204 = DIRECTION ( 'NONE',  ( 0.000000000000000000, -1.000000000000000000, -7.304098846218135653E-17 ) ) ;
#205 = APPLICATION_CONTEXT ( 'automotive_design' ) ;
#206 = DIRECTION ( 'NONE',  ( 0.000000000000000000, 0.000000000000000000, -1.000000000000000000 ) ) ;
#207 = DIRECTION ( 'NONE',  ( 0.000000000000000000, -1.000000000000000000, -7.304098846218135653E-17 ) ) ;
#208 = AXIS2_PLACEMENT_3D ( 'NONE', #149, #30, #129 ) ;
#209 = AXIS2_PLACEMENT_3D ( 'NONE', #68, #162, #90 ) ;
#210 = DIRECTION ( 'NONE',  ( 0.000000000000000000, 0.000000000000000000, -1.000000000000000000 ) ) ;
#211 =( NAMED_UNIT ( * ) SI_UNIT ( $, .STERADIAN. ) SOLID_ANGLE_UNIT ( ) );
#212 = DIRECTION ( 'NONE',  ( -1.000000000000000000, -0.000000000000000000, -0.000000000000000000 ) ) ;
#213 = EDGE_CURVE ( 'NONE', #223, #25, #76, .T. ) ;
#214 = AXIS2_PLACEMENT_3D ( 'NONE', #6, #195, #290 ) ;
#215 = ADVANCED_FACE ( 'NONE', ( #120, #49 ), #141, .T. ) ;
#216 = CARTESIAN_POINT ( 'NONE',  ( 4.000000000000000000, 0.000000000000000000, 0.000000000000000000 ) ) ;
#217 = EDGE_LOOP ( 'NONE', ( #81 ) ) ;
#218 = FACE_OUTER_BOUND ( 'NONE', #53, .T. ) ;
#219 = VERTEX_POINT ( 'NONE', #164 ) ;
#220 = EDGE_LOOP ( 'NONE', ( #286, #202, #172, #294 ) ) ;
#221 = PLANE ( 'NONE',  #35 ) ;
#222 = PRESENTATION_STYLE_ASSIGNMENT (( #174 ) ) ;
#223 = VERTEX_POINT ( 'NONE', #244 ) ;
#224 = ADVANCED_FACE ( 'NONE', ( #218, #74 ), #246, .T. ) ;
#225 = ORIENTED_EDGE ( 'NONE', *, *, #47, .F. ) ;
#226 = VERTEX_POINT ( 'NONE', #115 ) ;
#227 = EDGE_LOOP ( 'NONE', ( #122, #249, #103, #308 ) ) ;
#228 = AXIS2_PLACEMENT_3D ( 'NONE', #39, #104, #134 ) ;
#229 = CYLINDRICAL_SURFACE ( 'NONE', #262, 18.00000000000000711 ) ;
#230 = CARTESIAN_POINT ( 'NONE',  ( -4.000000000000000000, -1.314737792319264418E-15, 18.00000000000000000 ) ) ;
#231 = PRODUCT_DEFINITION ( 'General', '', #150, #92 ) ;
#232 = CARTESIAN_POINT ( 'NONE',  ( -4.000000000000000000, -1.314737792319264418E-15, -18.00000000000000000 ) ) ;
#233 = DIRECTION ( 'NONE',  ( 0.000000000000000000, 7.304098846218135653E-17, -1.000000000000000000 ) ) ;
#234 = FACE_OUTER_BOUND ( 'NONE', #50, .T. ) ;
#235 = DIRECTION ( 'NONE',  ( 0.000000000000000000, 0.000000000000000000, -1.000000000000000000 ) ) ;
#236 = MANIFOLD_SOLID_BREP ( 'Boss-Extrude5', #184 ) ;
#237 = LINE ( 'NONE', #19, #200 ) ;
#238 = APPLICATION_PROTOCOL_DEFINITION ( 'draft international standard', 'automotive_design', 1998, #205 ) ;
#239 = DIRECTION ( 'NONE',  ( 0.000000000000000000, 0.000000000000000000, -1.000000000000000000 ) ) ;
#240 = CARTESIAN_POINT ( 'NONE',  ( 4.000000000000000000, 0.000000000000000000, 0.000000000000000000 ) ) ;
#241 = VECTOR ( 'NONE', #207, 1000.000000000000000 ) ;
#242 = ADVANCED_FACE ( 'NONE', ( #132 ), #269, .T. ) ;
#243 = PRESENTATION_LAYER_ASSIGNMENT (  '', '', ( #2 ) ) ;
#244 = CARTESIAN_POINT ( 'NONE',  ( 4.000000000000000000, -1.314737792319264418E-15, 18.00000000000000000 ) ) ;
#245 = EDGE_LOOP ( 'NONE', ( #252, #124, #78, #27 ) ) ;
#246 = CYLINDRICAL_SURFACE ( 'NONE', #214, 8.000000000000000000 ) ;
#247 = EDGE_LOOP ( 'NONE', ( #23 ) ) ;
#248 = CIRCLE ( 'NONE', #118, 18.00000000000000711 ) ;
#249 = ORIENTED_EDGE ( 'NONE', *, *, #107, .F. ) ;
#250 = ADVANCED_FACE ( 'NONE', ( #18, #234 ), #229, .T. ) ;
#251 = DIRECTION ( 'NONE',  ( 0.000000000000000000, 0.000000000000000000, -1.000000000000000000 ) ) ;
#252 = ORIENTED_EDGE ( 'NONE', *, *, #185, .T. ) ;
#253 = CARTESIAN_POINT ( 'NONE',  ( -4.000000000000000000, 0.000000000000000000, 0.000000000000000000 ) ) ;
#254 = AXIS2_PLACEMENT_3D ( 'NONE', #216, #94, #186 ) ;
#255 = DIRECTION ( 'NONE',  ( 0.000000000000000000, 0.000000000000000000, 1.000000000000000000 ) ) ;
#256 = FACE_OUTER_BOUND ( 'NONE', #57, .T. ) ;
#257 = CARTESIAN_POINT ( 'NONE',  ( -16.00000000000000000, 95.00000000000000000, -8.000000000000001776 ) ) ;
#258 = PLANE ( 'NONE',  #143 ) ;
#259 = FACE_OUTER_BOUND ( 'NONE', #227, .T. ) ;
#260 = AXIS2_PLACEMENT_3D ( 'NONE', #180, #85, #210 ) ;
#261 = FACE_OUTER_BOUND ( 'NONE', #220, .T. ) ;
#262 = AXIS2_PLACEMENT_3D ( 'NONE', #60, #281, #255 ) ;
#263 = VERTEX_POINT ( 'NONE', #63 ) ;
#264 = EDGE_CURVE ( 'NONE', #301, #301, #105, .T. ) ;
#265 = ORIENTED_EDGE ( 'NONE', *, *, #73, .F. ) ;
#266 = CIRCLE ( 'NONE', #300, 8.000000000000001776 ) ;
#267 = ORIENTED_EDGE ( 'NONE', *, *, #190, .T. ) ;
#268 = EDGE_LOOP ( 'NONE', ( #153 ) ) ;
#269 = PLANE ( 'NONE',  #95 ) ;
#270 = PLANE ( 'NONE',  #208 ) ;
#271 = EDGE_CURVE ( 'NONE', #84, #84, #88, .T. ) ;
#272 = EDGE_LOOP ( 'NONE', ( #175 ) ) ;
#273 = VECTOR ( 'NONE', #280, 1000.000000000000000 ) ;
#274 = ORIENTED_EDGE ( 'NONE', *, *, #213, .T. ) ;
#275 = DIRECTION ( 'NONE',  ( -1.000000000000000000, -0.000000000000000000, -0.000000000000000000 ) ) ;
#276 = VERTEX_POINT ( 'NONE', #159 ) ;
#277 = CARTESIAN_POINT ( 'NONE',  ( 4.000000000000000000, 2.925607219092345746E-21, 18.00000000000000000 ) ) ;
#278 = DIRECTION ( 'NONE',  ( 0.000000000000000000, 0.000000000000000000, -1.000000000000000000 ) ) ;
#279 = DIRECTION ( 'NONE',  ( 0.000000000000000000, 0.000000000000000000, -1.000000000000000000 ) ) ;
#280 = DIRECTION ( 'NONE',  ( -1.000000000000000000, -0.000000000000000000, -0.000000000000000000 ) ) ;
#281 = DIRECTION ( 'NONE',  ( -1.000000000000000000, -0.000000000000000000, -0.000000000000000000 ) ) ;
#282 = CYLINDRICAL_SURFACE ( 'NONE', #209, 8.000000000000001776 ) ;
#283 = EDGE_CURVE ( 'NONE', #293, #56, #298, .T. ) ;
#284 = EDGE_LOOP ( 'NONE', ( #169 ) ) ;
#285 =( GEOMETRIC_REPRESENTATION_CONTEXT ( 3 ) GLOBAL_UNCERTAINTY_ASSIGNED_CONTEXT ( ( #135 ) ) GLOBAL_UNIT_ASSIGNED_CONTEXT ( ( #89, #82, #211 ) ) REPRESENTATION_CONTEXT ( 'NONE', 'WORKASPACE' ) );
#286 = ORIENTED_EDGE ( 'NONE', *, *, #185, .F. ) ;
#287 = APPLICATION_PROTOCOL_DEFINITION ( 'draft international standard', 'automotive_design', 1998, #44 ) ;
#288 = VECTOR ( 'NONE', #275, 1000.000000000000000 ) ;
#289 = CARTESIAN_POINT ( 'NONE',  ( -4.000000000000000000, 0.000000000000000000, 0.000000000000000000 ) ) ;
#290 = DIRECTION ( 'NONE',  ( 0.000000000000000000, 0.000000000000000000, 1.000000000000000000 ) ) ;
#291 = EDGE_CURVE ( 'NONE', #276, #276, #266, .T. ) ;
#292 = FACE_OUTER_BOUND ( 'NONE', #268, .T. ) ;
#293 = VERTEX_POINT ( 'NONE', #67 ) ;
#294 = ORIENTED_EDGE ( 'NONE', *, *, #16, .F. ) ;
#295 = FACE_BOUND ( 'NONE', #189, .T. ) ;
#296 = VERTEX_POINT ( 'NONE', #157 ) ;
#297 = DIRECTION ( 'NONE',  ( 1.000000000000000000, -0.000000000000000000, 0.000000000000000000 ) ) ;
#298 = LINE ( 'NONE', #232, #125 ) ;
#299 = DIRECTION ( 'NONE',  ( 0.000000000000000000, -7.304098846218135653E-17, -1.000000000000000000 ) ) ;
#300 = AXIS2_PLACEMENT_3D ( 'NONE', #111, #137, #108 ) ;
#301 = VERTEX_POINT ( 'NONE', #9 ) ;
#302 = LINE ( 'NONE', #182, #288 ) ;
#303 = DIRECTION ( 'NONE',  ( 0.000000000000000000, 1.000000000000000000, 7.304098846218135653E-17 ) ) ;
#304 = CIRCLE ( 'NONE', #167, 18.00000000000000000 ) ;
#305 = AXIS2_PLACEMENT_3D ( 'NONE', #86, #91, #191 ) ;
#306 = EDGE_CURVE ( 'NONE', #178, #178, #165, .T. ) ;
#307 = DIRECTION ( 'NONE',  ( -1.000000000000000000, -0.000000000000000000, -0.000000000000000000 ) ) ;
#308 = ORIENTED_EDGE ( 'NONE', *, *, #142, .T. ) ;
#309 = ORIENTED_EDGE ( 'NONE', *, *, #306, .F. ) ;
#310 = AXIS2_PLACEMENT_3D ( 'NONE', #203, #130, #206 ) ;
#311 = ORIENTED_EDGE ( 'NONE', *, *, #97, .F. ) ;
ENDSEC;
END-ISO-10303-21;
