ISO-10303-21;
HEADER;
FILE_DESCRIPTION (( 'STEP AP214' ),
    '1' );
FILE_NAME ('Part3 geneva wheel.STEP',
    '2025-07-24T08:03:06',
    ( '' ),
    ( '' ),
    'SwSTEP 2.0',
    'SolidWorks 2025',
    '' );
FILE_SCHEMA (( 'AUTOMOTIVE_DESIGN' ));
ENDSEC;

DATA;
#1 = CARTESIAN_POINT ( 'NONE',  ( -7.500000000000000000, 6.009258394948638492E-15, -5.000000000000004441 ) ) ;
#2 =( NAMED_UNIT ( * ) PLANE_ANGLE_UNIT ( ) SI_UNIT ( $, .RADIAN. ) );
#3 = ORIENTED_EDGE ( 'NONE', *, *, #240, .T. ) ;
#4 = CARTESIAN_POINT ( 'NONE',  ( -29.31471543076818165, 62.77457653551388006, -5.000000000000000000 ) ) ;
#5 = PRODUCT_DEFINITION_SHAPE ( 'NONE', 'NONE',  #351 ) ;
#6 = FACE_OUTER_BOUND ( 'NONE', #93, .T. ) ;
#7 = EDGE_CURVE ( 'NONE', #16, #550, #530, .T. ) ;
#8 = DIRECTION ( 'NONE',  ( -0.000000000000000000, -0.000000000000000000, -1.000000000000000000 ) ) ;
#9 = VECTOR ( 'NONE', #283, 1000.000000000000114 ) ;
#10 = VERTEX_POINT ( 'NONE', #106 ) ;
#11 = CARTESIAN_POINT ( 'NONE',  ( -3.674307843443460619, -4.363410894641187809, 95.00000000000000000 ) ) ;
#12 = DIRECTION ( 'NONE',  ( -0.000000000000000000, 0.000000000000000000, 1.000000000000000000 ) ) ;
#13 = ORIENTED_EDGE ( 'NONE', *, *, #646, .T. ) ;
#14 = CARTESIAN_POINT ( 'NONE',  ( -30.02313299701851435, 62.43391368815191811, -5.000000000000000000 ) ) ;
#15 = CARTESIAN_POINT ( 'NONE',  ( 23.80460738726039693, 66.25640351701187569, -5.000000000000000000 ) ) ;
#16 = VERTEX_POINT ( 'NONE', #410 ) ;
#17 = CARTESIAN_POINT ( 'NONE',  ( -66.96108422061276144, 38.66000000000000369, 5.000000000000000000 ) ) ;
#18 = EDGE_CURVE ( 'NONE', #232, #636, #617, .T. ) ;
#19 = ORIENTED_EDGE ( 'NONE', *, *, #240, .F. ) ;
#20 = LINE ( 'NONE', #327, #598 ) ;
#21 = VECTOR ( 'NONE', #677, 1000.000000000000000 ) ;
#22 = FACE_OUTER_BOUND ( 'NONE', #183, .T. ) ;
#23 = EDGE_LOOP ( 'NONE', ( #446, #468, #88, #13 ) ) ;
#24 = ORIENTED_EDGE ( 'NONE', *, *, #105, .F. ) ;
#25 =( LENGTH_UNIT ( ) NAMED_UNIT ( * ) SI_UNIT ( .MILLI., .METRE. ) );
#26 = VERTEX_POINT ( 'NONE', #42 ) ;
#27 = PRODUCT_DEFINITION_CONTEXT ( 'detailed design', #615, 'design' ) ;
#28 = ORIENTED_EDGE ( 'NONE', *, *, #200, .F. ) ;
#29 = CARTESIAN_POINT ( 'NONE',  ( 0.000000000000000000, 77.31999999999999318, -5.000000000000000000 ) ) ;
#30 = ADVANCED_FACE ( 'NONE', ( #202 ), #408, .F. ) ;
#31 = ORIENTED_EDGE ( 'NONE', *, *, #225, .F. ) ;
#32 = ORIENTED_EDGE ( 'NONE', *, *, #473, .T. ) ;
#33 = VECTOR ( 'NONE', #470, 1000.000000000000000 ) ;
#34 = CARTESIAN_POINT ( 'NONE',  ( 0.000000000000000000, 0.000000000000000000, 95.00000000000000000 ) ) ;
#35 = ORIENTED_EDGE ( 'NONE', *, *, #256, .T. ) ;
#36 = ORIENTED_EDGE ( 'NONE', *, *, #392, .T. ) ;
#37 = LINE ( 'NONE', #672, #652 ) ;
#38 = EDGE_LOOP ( 'NONE', ( #527, #499, #156, #238 ) ) ;
#39 = ORIENTED_EDGE ( 'NONE', *, *, #469, .F. ) ;
#40 = EDGE_CURVE ( 'NONE', #602, #16, #146, .T. ) ;
#41 = LINE ( 'NONE', #100, #653 ) ;
#42 = CARTESIAN_POINT ( 'NONE',  ( 3.258282922137318405, -5.332526613729536180, 105.0000000000000000 ) ) ;
#43 = VECTOR ( 'NONE', #307, 1000.000000000000000 ) ;
#44 = CIRCLE ( 'NONE', #667, 6.000000000000003553 ) ;
#45 = EDGE_CURVE ( 'NONE', #75, #282, #456, .T. ) ;
#46 = FACE_OUTER_BOUND ( 'NONE', #177, .T. ) ;
#47 = CIRCLE ( 'NONE', #556, 26.24999999999999645 ) ;
#48 = CIRCLE ( 'NONE', #444, 7.000000000000000888 ) ;
#49 = DIRECTION ( 'NONE',  ( -0.8259202856888113731, -0.5637869115966708256, 0.000000000000000000 ) ) ;
#50 = DIRECTION ( 'NONE',  ( -1.000000000000000000, 0.000000000000000000, 0.000000000000000000 ) ) ;
#51 = FACE_OUTER_BOUND ( 'NONE', #547, .T. ) ;
#52 = CARTESIAN_POINT ( 'NONE',  ( 0.000000000000000000, 0.000000000000000000, 105.0000000000000000 ) ) ;
#53 = EDGE_CURVE ( 'NONE', #10, #594, #564, .T. ) ;
#54 = DIRECTION ( 'NONE',  ( -1.000000000000000000, 0.000000000000000000, 0.000000000000000000 ) ) ;
#55 = VECTOR ( 'NONE', #153, 1000.000000000000000 ) ;
#56 = LINE ( 'NONE', #165, #169 ) ;
#57 =( LENGTH_UNIT ( ) NAMED_UNIT ( * ) SI_UNIT ( .MILLI., .METRE. ) );
#58 = ORIENTED_EDGE ( 'NONE', *, *, #359, .F. ) ;
#59 = CARTESIAN_POINT ( 'NONE',  ( 4.001060504163829634, -5.436360440774716807, 105.0000000000000000 ) ) ;
#60 = EDGE_CURVE ( 'NONE', #284, #596, #302, .T. ) ;
#61 = DIRECTION ( 'NONE',  ( 0.000000000000000000, 0.000000000000000000, 1.000000000000000000 ) ) ;
#62 = CARTESIAN_POINT ( 'NONE',  ( 23.80460738726039693, 66.25640351701187569, 5.000000000000000000 ) ) ;
#63 = CYLINDRICAL_SURFACE ( 'NONE', #423, 7.000000000000000888 ) ;
#64 = DIRECTION ( 'NONE',  ( -0.9012139306082942447, -0.4333744931090758312, 0.000000000000000000 ) ) ;
#65 = ORIENTED_EDGE ( 'NONE', *, *, #418, .F. ) ;
#66 = DIRECTION ( 'NONE',  ( -0.000000000000000000, -0.000000000000000000, 1.000000000000000000 ) ) ;
#67 = DIRECTION ( 'NONE',  ( -0.8660254037844382635, 0.5000000000000005551, 0.000000000000000000 ) ) ;
#68 = CARTESIAN_POINT ( 'NONE',  ( 5.463776861891694203, 3.963539126015655611, 95.00000000000000000 ) ) ;
#69 = FILL_AREA_STYLE ('',( #287 ) ) ;
#70 = ORIENTED_EDGE ( 'NONE', *, *, #493, .T. ) ;
#71 = EDGE_CURVE ( 'NONE', #503, #495, #139, .T. ) ;
#72 = DIRECTION ( 'NONE',  ( -0.000000000000000000, -0.000000000000000000, -1.000000000000000000 ) ) ;
#73 = CARTESIAN_POINT ( 'NONE',  ( -45.05531576481750022, 53.12374116060866669, 5.000000000000000000 ) ) ;
#74 = AXIS2_PLACEMENT_3D ( 'NONE', #95, #245, #619 ) ;
#75 = VERTEX_POINT ( 'NONE', #242 ) ;
#76 = ORIENTED_EDGE ( 'NONE', *, *, #606, .T. ) ;
#77 = PRESENTATION_LAYER_ASSIGNMENT (  '', '', ( #422 ) ) ;
#78 = AXIS2_PLACEMENT_3D ( 'NONE', #244, #459, #393 ) ;
#79 = CARTESIAN_POINT ( 'NONE',  ( 0.000000000000000000, 0.000000000000000000, -5.000000000000000000 ) ) ;
#80 = VERTEX_POINT ( 'NONE', #353 ) ;
#81 = EDGE_LOOP ( 'NONE', ( #442, #126, #36, #551, #341, #439 ) ) ;
#82 = ADVANCED_FACE ( 'NONE', ( #51 ), #453, .F. ) ;
#83 = DIRECTION ( 'NONE',  ( 0.000000000000000000, -0.000000000000000000, -1.000000000000000000 ) ) ;
#84 = ORIENTED_EDGE ( 'NONE', *, *, #40, .F. ) ;
#85 = ORIENTED_EDGE ( 'NONE', *, *, #192, .T. ) ;
#86 = SURFACE_SIDE_STYLE ('',( #175 ) ) ;
#87 = ORIENTED_EDGE ( 'NONE', *, *, #573, .T. ) ;
#88 = ORIENTED_EDGE ( 'NONE', *, *, #154, .F. ) ;
#89 = AXIS2_PLACEMENT_3D ( 'NONE', #319, #371, #467 ) ;
#90 = DIRECTION ( 'NONE',  ( 1.000000000000000000, 0.000000000000000000, 0.000000000000000000 ) ) ;
#91 = CARTESIAN_POINT ( 'NONE',  ( 4.445622782404254458, -6.040400489749686130, 105.0000000000000000 ) ) ;
#92 = EDGE_CURVE ( 'NONE', #541, #178, #462, .T. ) ;
#93 = EDGE_LOOP ( 'NONE', ( #669, #84, #597, #255 ) ) ;
#94 = DIRECTION ( 'NONE',  ( -0.000000000000000000, -0.000000000000000000, 1.000000000000000000 ) ) ;
#95 = CARTESIAN_POINT ( 'NONE',  ( 0.000000000000000000, 0.000000000000000000, -5.000000000000000000 ) ) ;
#96 = ORIENTED_EDGE ( 'NONE', *, *, #120, .T. ) ;
#97 = DIRECTION ( 'NONE',  ( -1.000000000000000000, -1.156482317317871725E-15, 0.000000000000000000 ) ) ;
#98 = DIRECTION ( 'NONE',  ( -1.000000000000000000, 8.012344526598184787E-16, 0.000000000000000000 ) ) ;
#99 = VECTOR ( 'NONE', #8, 1000.000000000000000 ) ;
#100 = CARTESIAN_POINT ( 'NONE',  ( 1.732050807568876083, -0.9999999999999995559, 95.00000000000000000 ) ) ;
#101 = CIRCLE ( 'NONE', #587, 7.500000000000000000 ) ;
#102 = VECTOR ( 'NONE', #196, 1000.000000000000000 ) ;
#103 = CARTESIAN_POINT ( 'NONE',  ( -15.94486372867089763, 39.61731409782014879, 5.000000000000000000 ) ) ;
#104 = CARTESIAN_POINT ( 'NONE',  ( 5.196152422706641794, 3.000000000000007105, 5.000000000000000000 ) ) ;
#105 = EDGE_CURVE ( 'NONE', #75, #594, #621, .T. ) ;
#106 = CARTESIAN_POINT ( 'NONE',  ( -26.33716857408417056, 33.61731409782013458, 5.000000000000000000 ) ) ;
#107 = DIRECTION ( 'NONE',  ( -0.000000000000000000, 0.000000000000000000, 1.000000000000000000 ) ) ;
#108 = CARTESIAN_POINT ( 'NONE',  ( 4.814257809053365200, 4.338539126015655611, 95.00000000000000000 ) ) ;
#109 = VECTOR ( 'NONE', #574, 1000.000000000000000 ) ;
#110 = AXIS2_PLACEMENT_3D ( 'NONE', #583, #639, #634 ) ;
#111 = ADVANCED_FACE ( 'NONE', ( #671 ), #516, .T. ) ;
#112 = CYLINDRICAL_SURFACE ( 'NONE', #89, 0.7499999999999997780 ) ;
#113 = FACE_OUTER_BOUND ( 'NONE', #336, .T. ) ;
#114 = DIRECTION ( 'NONE',  ( 1.000000000000000000, 0.000000000000000000, 0.000000000000000000 ) ) ;
#115 = PLANE ( 'NONE',  #575 ) ;
#116 = LINE ( 'NONE', #322, #332 ) ;
#117 = AXIS2_PLACEMENT_3D ( 'NONE', #428, #536, #372 ) ;
#118 = DIRECTION ( 'NONE',  ( -0.000000000000000000, -0.000000000000000000, -1.000000000000000000 ) ) ;
#119 = DIRECTION ( 'NONE',  ( -0.000000000000000000, -0.000000000000000000, 1.000000000000000000 ) ) ;
#120 = EDGE_CURVE ( 'NONE', #231, #477, #465, .T. ) ;
#121 = DIRECTION ( 'NONE',  ( -1.000000000000000000, 0.000000000000000000, 0.000000000000000000 ) ) ;
#122 = CARTESIAN_POINT ( 'NONE',  ( 0.000000000000000000, 77.31999999999999318, 5.000000000000000000 ) ) ;
#123 = VERTEX_POINT ( 'NONE', #252 ) ;
#124 = ORIENTED_EDGE ( 'NONE', *, *, #436, .F. ) ;
#125 = ORIENTED_EDGE ( 'NONE', *, *, #18, .T. ) ;
#126 = ORIENTED_EDGE ( 'NONE', *, *, #535, .T. ) ;
#127 = EDGE_CURVE ( 'NONE', #178, #636, #673, .T. ) ;
#128 = AXIS2_PLACEMENT_3D ( 'NONE', #579, #528, #215 ) ;
#129 = DIRECTION ( 'NONE',  ( 1.000000000000000000, 0.000000000000000000, 0.000000000000000000 ) ) ;
#130 = ORIENTED_EDGE ( 'NONE', *, *, #200, .T. ) ;
#131 = VERTEX_POINT ( 'NONE', #508 ) ;
#132 = LINE ( 'NONE', #448, #386 ) ;
#133 = ORIENTED_EDGE ( 'NONE', *, *, #176, .T. ) ;
#134 = ORIENTED_EDGE ( 'NONE', *, *, #676, .T. ) ;
#135 = CARTESIAN_POINT ( 'NONE',  ( 34.64101615137753498, 60.00000000000001421, -5.000000000000000000 ) ) ;
#136 = ADVANCED_FACE ( 'NONE', ( #571 ), #662, .F. ) ;
#137 = ORIENTED_EDGE ( 'NONE', *, *, #218, .F. ) ;
#138 = EDGE_LOOP ( 'NONE', ( #87, #161, #39, #401 ) ) ;
#139 = CIRCLE ( 'NONE', #640, 0.7499999999999997780 ) ;
#140 = DIRECTION ( 'NONE',  ( -0.8259202856888113731, -0.5637869115966708256, 0.000000000000000000 ) ) ;
#141 = EDGE_CURVE ( 'NONE', #632, #477, #347, .T. ) ;
#142 = CARTESIAN_POINT ( 'NONE',  ( 4.001060504163829634, -5.436360440774716807, 95.00000000000000000 ) ) ;
#143 = DIRECTION ( 'NONE',  ( 0.8660254037844385966, -0.5000000000000001110, 0.000000000000000000 ) ) ;
#144 = DIRECTION ( 'NONE',  ( -0.000000000000000000, -0.000000000000000000, -1.000000000000000000 ) ) ;
#145 = PLANE ( 'NONE',  #367 ) ;
#146 = LINE ( 'NONE', #91, #43 ) ;
#147 = ADVANCED_FACE ( 'NONE', ( #6 ), #112, .T. ) ;
#148 = AXIS2_PLACEMENT_3D ( 'NONE', #266, #487, #121 ) ;
#149 = PLANE ( 'NONE',  #247 ) ;
#150 = VECTOR ( 'NONE', #67, 1000.000000000000114 ) ;
#151 = DIRECTION ( 'NONE',  ( 0.5000000000000001110, -0.8660254037844385966, 0.000000000000000000 ) ) ;
#152 = DIRECTION ( 'NONE',  ( 0.000000000000000000, -0.000000000000000000, -1.000000000000000000 ) ) ;
#153 = DIRECTION ( 'NONE',  ( -0.000000000000000000, -0.000000000000000000, 1.000000000000000000 ) ) ;
#154 = EDGE_CURVE ( 'NONE', #289, #231, #416, .T. ) ;
#155 = DIRECTION ( 'NONE',  ( 0.000000000000000000, 0.000000000000000000, 1.000000000000000000 ) ) ;
#156 = ORIENTED_EDGE ( 'NONE', *, *, #127, .T. ) ;
#157 = AXIS2_PLACEMENT_3D ( 'NONE', #241, #570, #297 ) ;
#158 = CARTESIAN_POINT ( 'NONE',  ( -69.28203230275508417, 0.000000000000000000, 5.000000000000000000 ) ) ;
#159 = AXIS2_PLACEMENT_3D ( 'NONE', #479, #12, #482 ) ;
#160 = AXIS2_PLACEMENT_3D ( 'NONE', #308, #155, #316 ) ;
#161 = ORIENTED_EDGE ( 'NONE', *, *, #291, .T. ) ;
#162 = FACE_OUTER_BOUND ( 'NONE', #235, .T. ) ;
#163 = DIRECTION ( 'NONE',  ( 0.5000000000000001110, -0.8660254037844385966, 0.000000000000000000 ) ) ;
#164 = DIRECTION ( 'NONE',  ( 0.8660254037844385966, 0.5000000000000001110, -0.000000000000000000 ) ) ;
#165 = CARTESIAN_POINT ( 'NONE',  ( 2.322171986993549986, -0.7520081694993149268, 95.00000000000000000 ) ) ;
#166 = FACE_OUTER_BOUND ( 'NONE', #464, .T. ) ;
#167 = ADVANCED_FACE ( 'NONE', ( #525 ), #209, .F. ) ;
#168 = CARTESIAN_POINT ( 'NONE',  ( 2.964651968826085948, -0.3650721632341147327, 95.00000000000000000 ) ) ;
#169 = VECTOR ( 'NONE', #373, 1000.000000000000000 ) ;
#170 = FACE_OUTER_BOUND ( 'NONE', #138, .T. ) ;
#171 = ADVANCED_FACE ( 'NONE', ( #622 ), #315, .T. ) ;
#172 = LINE ( 'NONE', #290, #599 ) ;
#173 = ORIENTED_EDGE ( 'NONE', *, *, #225, .T. ) ;
#174 = ORIENTED_EDGE ( 'NONE', *, *, #392, .F. ) ;
#175 = SURFACE_STYLE_FILL_AREA ( #69 ) ;
#176 = EDGE_CURVE ( 'NONE', #394, #503, #313, .T. ) ;
#177 = EDGE_LOOP ( 'NONE', ( #374, #28, #281, #651 ) ) ;
#178 = VERTEX_POINT ( 'NONE', #638 ) ;
#179 = CARTESIAN_POINT ( 'NONE',  ( -39.70702027618145280, 56.77457653551386585, 5.000000000000000000 ) ) ;
#180 = ORIENTED_EDGE ( 'NONE', *, *, #441, .T. ) ;
#181 = VECTOR ( 'NONE', #626, 1000.000000000000000 ) ;
#182 = EDGE_CURVE ( 'NONE', #178, #195, #474, .T. ) ;
#183 = EDGE_LOOP ( 'NONE', ( #491, #137, #344, #450 ) ) ;
#184 = AXIS2_PLACEMENT_3D ( 'NONE', #59, #94, #455 ) ;
#185 = CIRCLE ( 'NONE', #531, 0.7499999999999997780 ) ;
#186 = DIRECTION ( 'NONE',  ( -0.000000000000000000, 0.000000000000000000, 1.000000000000000000 ) ) ;
#187 = ORIENTED_EDGE ( 'NONE', *, *, #300, .F. ) ;
#188 = ORIENTED_EDGE ( 'NONE', *, *, #520, .T. ) ;
#189 = LINE ( 'NONE', #248, #334 ) ;
#190 = ORIENTED_EDGE ( 'NONE', *, *, #592, .F. ) ;
#191 = ORIENTED_EDGE ( 'NONE', *, *, #666, .F. ) ;
#192 = EDGE_CURVE ( 'NONE', #337, #10, #424, .T. ) ;
#193 = CARTESIAN_POINT ( 'NONE',  ( -39.05778881311525907, 57.21775272069282181, 5.000000000000000000 ) ) ;
#194 = DIRECTION ( 'NONE',  ( -1.000000000000000000, 0.000000000000000000, -0.000000000000000000 ) ) ;
#195 = VERTEX_POINT ( 'NONE', #258 ) ;
#196 = DIRECTION ( 'NONE',  ( 0.5000000000000001110, 0.8660254037844385966, 0.000000000000000000 ) ) ;
#197 = CARTESIAN_POINT ( 'NONE',  ( 0.000000000000000000, 0.000000000000000000, 5.000000000000000000 ) ) ;
#198 = CARTESIAN_POINT ( 'NONE',  ( 2.315132915987756057, 0.009927836765885600379, 95.00000000000000000 ) ) ;
#199 = DIRECTION ( 'NONE',  ( 0.000000000000000000, 0.000000000000000000, -1.000000000000000000 ) ) ;
#200 = EDGE_CURVE ( 'NONE', #380, #123, #578, .T. ) ;
#201 = DIRECTION ( 'NONE',  ( -0.000000000000000000, -0.000000000000000000, -1.000000000000000000 ) ) ;
#202 = FACE_OUTER_BOUND ( 'NONE', #648, .T. ) ;
#203 = APPLICATION_CONTEXT ( 'automotive_design' ) ;
#204 = CIRCLE ( 'NONE', #533, 26.25000000000000355 ) ;
#205 = DIRECTION ( 'NONE',  ( 1.000000000000000000, 1.156482317317871725E-15, 0.000000000000000000 ) ) ;
#206 = ADVANCED_FACE ( 'NONE', ( #360 ), #522, .T. ) ;
#207 = LINE ( 'NONE', #272, #150 ) ;
#208 = EDGE_CURVE ( 'NONE', #275, #282, #216, .T. ) ;
#209 = PLANE ( 'NONE',  #488 ) ;
#210 = VECTOR ( 'NONE', #144, 1000.000000000000000 ) ;
#211 = DIRECTION ( 'NONE',  ( 1.000000000000000000, 0.000000000000000000, 0.000000000000000000 ) ) ;
#212 = CARTESIAN_POINT ( 'NONE',  ( 2.315132915987756057, 0.009927836765885492826, 105.0000000000000000 ) ) ;
#213 = VECTOR ( 'NONE', #163, 1000.000000000000000 ) ;
#214 = VERTEX_POINT ( 'NONE', #15 ) ;
#215 = DIRECTION ( 'NONE',  ( -1.000000000000000000, 0.000000000000000000, 0.000000000000000000 ) ) ;
#216 = LINE ( 'NONE', #572, #21 ) ;
#217 = ORIENTED_EDGE ( 'NONE', *, *, #657, .T. ) ;
#218 = EDGE_CURVE ( 'NONE', #495, #131, #56, .T. ) ;
#219 = CYLINDRICAL_SURFACE ( 'NONE', #546, 26.24999999999999645 ) ;
#220 = DIRECTION ( 'NONE',  ( 1.000000000000000000, 0.000000000000000000, 0.000000000000000000 ) ) ;
#221 = ADVANCED_FACE ( 'NONE', ( #585 ), #309, .T. ) ;
#222 = DIRECTION ( 'NONE',  ( 1.000000000000000000, 0.000000000000000000, 0.000000000000000000 ) ) ;
#223 = ORIENTED_EDGE ( 'NONE', *, *, #300, .T. ) ;
#224 = VECTOR ( 'NONE', #350, 1000.000000000000000 ) ;
#225 = EDGE_CURVE ( 'NONE', #447, #214, #207, .T. ) ;
#226 = CARTESIAN_POINT ( 'NONE',  ( -45.05531576481750022, 53.12374116060866669, -5.000000000000000000 ) ) ;
#227 = ORIENTED_EDGE ( 'NONE', *, *, #348, .F. ) ;
#228 = UNCERTAINTY_MEASURE_WITH_UNIT (LENGTH_MEASURE( 1.000000000000000082E-05 ), #25, 'distance_accuracy_value', 'NONE');
#229 = ORIENTED_EDGE ( 'NONE', *, *, #473, .F. ) ;
#230 = DIRECTION ( 'NONE',  ( 1.000000000000000000, 0.000000000000000000, 0.000000000000000000 ) ) ;
#231 = VERTEX_POINT ( 'NONE', #260 ) ;
#232 = VERTEX_POINT ( 'NONE', #1 ) ;
#233 = ORIENTED_EDGE ( 'NONE', *, *, #310, .F. ) ;
#234 = CIRCLE ( 'NONE', #117, 0.7499999999999997780 ) ;
#235 = EDGE_LOOP ( 'NONE', ( #223, #540, #340, #559 ) ) ;
#236 =( GEOMETRIC_REPRESENTATION_CONTEXT ( 3 ) GLOBAL_UNCERTAINTY_ASSIGNED_CONTEXT ( ( #228 ) ) GLOBAL_UNIT_ASSIGNED_CONTEXT ( ( #25, #595, #274 ) ) REPRESENTATION_CONTEXT ( 'NONE', 'WORKASPACE' ) );
#237 = DIRECTION ( 'NONE',  ( -0.000000000000000000, 0.000000000000000000, 1.000000000000000000 ) ) ;
#238 = ORIENTED_EDGE ( 'NONE', *, *, #18, .F. ) ;
#239 = ORIENTED_EDGE ( 'NONE', *, *, #53, .T. ) ;
#240 = EDGE_CURVE ( 'NONE', #554, #282, #47, .T. ) ;
#241 = CARTESIAN_POINT ( 'NONE',  ( -3.674307843443460619, -4.363410894641187809, 105.0000000000000000 ) ) ;
#242 = CARTESIAN_POINT ( 'NONE',  ( -39.70702027618145280, 56.77457653551386585, -5.000000000000000000 ) ) ;
#243 = ORIENTED_EDGE ( 'NONE', *, *, #646, .F. ) ;
#244 = CARTESIAN_POINT ( 'NONE',  ( -21.14101615137754209, 36.61731409782014879, -5.000000000000000000 ) ) ;
#245 = DIRECTION ( 'NONE',  ( -0.000000000000000000, 0.000000000000000000, 1.000000000000000000 ) ) ;
#246 = MECHANICAL_DESIGN_GEOMETRIC_PRESENTATION_REPRESENTATION (  '', ( #422 ), #236 ) ;
#247 = AXIS2_PLACEMENT_3D ( 'NONE', #404, #143, #349 ) ;
#248 = CARTESIAN_POINT ( 'NONE',  ( 34.64101615137753498, 60.00000000000001421, 5.000000000000000000 ) ) ;
#249 = EDGE_CURVE ( 'NONE', #284, #541, #257, .T. ) ;
#250 = CARTESIAN_POINT ( 'NONE',  ( -39.05778881311525907, 57.21775272069282181, -5.000000000000000000 ) ) ;
#251 = DIRECTION ( 'NONE',  ( -1.000000000000000000, 0.000000000000000000, 0.000000000000000000 ) ) ;
#252 = CARTESIAN_POINT ( 'NONE',  ( 4.814257809053366088, 4.338539126015656500, 95.00000000000000000 ) ) ;
#253 = CARTESIAN_POINT ( 'NONE',  ( 0.000000000000000000, 0.000000000000000000, -5.000000000000000000 ) ) ;
#254 = CARTESIAN_POINT ( 'NONE',  ( -29.31471543076818165, 62.77457653551388006, 5.000000000000000000 ) ) ;
#255 = ORIENTED_EDGE ( 'NONE', *, *, #291, .F. ) ;
#256 = EDGE_CURVE ( 'NONE', #636, #554, #116, .T. ) ;
#257 = CIRCLE ( 'NONE', #159, 7.500000000000000000 ) ;
#258 = CARTESIAN_POINT ( 'NONE',  ( -69.28203230275508417, 12.51280703402371941, 5.000000000000000000 ) ) ;
#259 = CARTESIAN_POINT ( 'NONE',  ( -39.70702027618145280, 56.77457653551386585, 5.000000000000000000 ) ) ;
#260 = CARTESIAN_POINT ( 'NONE',  ( -15.94486372867089763, 39.61731409782014879, 5.000000000000000000 ) ) ;
#261 = CARTESIAN_POINT ( 'NONE',  ( 6.070863179879659732, 4.403932362239617149, 105.0000000000000000 ) ) ;
#262 = EDGE_LOOP ( 'NONE', ( #365, #299, #438, #506, #628, #660, #293, #655, #70, #190, #605, #388 ) ) ;
#263 = DIRECTION ( 'NONE',  ( 0.5000000000000001110, 0.8660254037844385966, 0.000000000000000000 ) ) ;
#264 = CARTESIAN_POINT ( 'NONE',  ( -66.96108422061276144, 38.66000000000000369, -5.000000000000000000 ) ) ;
#265 = LINE ( 'NONE', #454, #279 ) ;
#266 = CARTESIAN_POINT ( 'NONE',  ( 0.000000000000000000, 0.000000000000000000, -5.000000000000000000 ) ) ;
#267 = CARTESIAN_POINT ( 'NONE',  ( 0.000000000000000000, 0.000000000000000000, 5.000000000000000000 ) ) ;
#268 = AXIS2_PLACEMENT_3D ( 'NONE', #397, #461, #50 ) ;
#269 = EDGE_CURVE ( 'NONE', #289, #286, #132, .T. ) ;
#270 = ORIENTED_EDGE ( 'NONE', *, *, #105, .T. ) ;
#271 = CARTESIAN_POINT ( 'NONE',  ( -5.196152422706630247, -3.000000000000000000, 5.000000000000000000 ) ) ;
#272 = CARTESIAN_POINT ( 'NONE',  ( 34.64101615137758472, 59.99999999999998579, -5.000000000000000000 ) ) ;
#273 = DIRECTION ( 'NONE',  ( 1.000000000000000000, 2.312964634635743450E-15, 0.000000000000000000 ) ) ;
#274 =( NAMED_UNIT ( * ) SI_UNIT ( $, .STERADIAN. ) SOLID_ANGLE_UNIT ( ) );
#275 = VERTEX_POINT ( 'NONE', #73 ) ;
#276 = CARTESIAN_POINT ( 'NONE',  ( -7.500000000000000000, 6.009258394948638492E-15, 5.000000000000004441 ) ) ;
#277 = ADVANCED_FACE ( 'NONE', ( #22 ), #433, .T. ) ;
#278 = CLOSED_SHELL ( 'NONE', ( #369, #136, #167, #641, #171, #483, #318, #584, #557, #565, #221, #111, #82, #206, #30, #542, #515, #338, #413, #147, #277 ) ) ;
#279 = VECTOR ( 'NONE', #361, 1000.000000000000000 ) ;
#280 = CARTESIAN_POINT ( 'NONE',  ( 34.64101615137753498, 60.00000000000001421, 5.000000000000000000 ) ) ;
#281 = ORIENTED_EDGE ( 'NONE', *, *, #520, .F. ) ;
#282 = VERTEX_POINT ( 'NONE', #226 ) ;
#283 = DIRECTION ( 'NONE',  ( 0.4999999999999998890, 0.8660254037844387076, 0.000000000000000000 ) ) ;
#284 = VERTEX_POINT ( 'NONE', #539 ) ;
#285 = UNCERTAINTY_MEASURE_WITH_UNIT (LENGTH_MEASURE( 1.000000000000000082E-05 ), #57, 'distance_accuracy_value', 'NONE');
#286 = VERTEX_POINT ( 'NONE', #376 ) ;
#287 = FILL_AREA_STYLE_COLOUR ( '', #457 ) ;
#288 = VERTEX_POINT ( 'NONE', #280 ) ;
#289 = VERTEX_POINT ( 'NONE', #654 ) ;
#290 = CARTESIAN_POINT ( 'NONE',  ( 34.64101615137758472, 59.99999999999998579, 5.000000000000000000 ) ) ;
#291 = EDGE_CURVE ( 'NONE', #550, #26, #588, .T. ) ;
#292 = ORIENTED_EDGE ( 'NONE', *, *, #208, .T. ) ;
#293 = ORIENTED_EDGE ( 'NONE', *, *, #463, .F. ) ;
#294 = LINE ( 'NONE', #504, #102 ) ;
#295 = DIRECTION ( 'NONE',  ( -0.4999999999999998890, -0.8660254037844387076, 0.000000000000000000 ) ) ;
#296 = ORIENTED_EDGE ( 'NONE', *, *, #249, .T. ) ;
#297 = DIRECTION ( 'NONE',  ( 1.000000000000000000, 0.000000000000000000, 0.000000000000000000 ) ) ;
#298 = CARTESIAN_POINT ( 'NONE',  ( 2.964651968826085948, -0.3650721632341147327, 105.0000000000000000 ) ) ;
#299 = ORIENTED_EDGE ( 'NONE', *, *, #418, .T. ) ;
#300 = EDGE_CURVE ( 'NONE', #214, #406, #204, .T. ) ;
#301 = DIRECTION ( 'NONE',  ( -0.000000000000000000, -0.000000000000000000, 1.000000000000000000 ) ) ;
#302 = LINE ( 'NONE', #512, #466 ) ;
#303 = AXIS2_PLACEMENT_3D ( 'NONE', #549, #186, #339 ) ;
#304 = CARTESIAN_POINT ( 'NONE',  ( 2.322171986993549986, -0.7520081694993149268, 105.0000000000000000 ) ) ;
#305 = DIRECTION ( 'NONE',  ( -1.000000000000000000, 8.012344526598184787E-16, 0.000000000000000000 ) ) ;
#306 = CARTESIAN_POINT ( 'NONE',  ( 4.814257809053366088, 4.338539126015656500, 105.0000000000000000 ) ) ;
#307 = DIRECTION ( 'NONE',  ( 0.000000000000000000, 0.000000000000000000, -1.000000000000000000 ) ) ;
#308 = CARTESIAN_POINT ( 'NONE',  ( 0.000000000000000000, 0.000000000000000000, 0.000000000000000000 ) ) ;
#309 = PLANE ( 'NONE',  #501 ) ;
#310 = EDGE_CURVE ( 'NONE', #288, #644, #172, .T. ) ;
#311 = AXIS2_PLACEMENT_3D ( 'NONE', #52, #611, #194 ) ;
#312 = AXIS2_PLACEMENT_3D ( 'NONE', #267, #107, #220 ) ;
#313 = LINE ( 'NONE', #212, #55 ) ;
#314 = LINE ( 'NONE', #254, #99 ) ;
#315 = PLANE ( 'NONE',  #412 ) ;
#316 = DIRECTION ( 'NONE',  ( 1.000000000000000000, 0.000000000000000000, 0.000000000000000000 ) ) ;
#317 = CARTESIAN_POINT ( 'NONE',  ( -3.674307843443460619, -4.363410894641187809, 95.00000000000000000 ) ) ;
#318 = ADVANCED_FACE ( 'NONE', ( #485 ), #494, .F. ) ;
#319 = CARTESIAN_POINT ( 'NONE',  ( 4.001060504163829634, -5.436360440774716807, 105.0000000000000000 ) ) ;
#320 = PRODUCT ( 'Part3 geneva wheel', 'Part3 geneva wheel', '', ( #415 ) ) ;
#321 = DIRECTION ( 'NONE',  ( -0.5000000000000001110, 0.8660254037844385966, 0.000000000000000000 ) ) ;
#322 = CARTESIAN_POINT ( 'NONE',  ( -69.28203230275508417, 0.000000000000000000, -5.000000000000000000 ) ) ;
#323 = VECTOR ( 'NONE', #305, 1000.000000000000000 ) ;
#324 = DIRECTION ( 'NONE',  ( 1.000000000000000000, 0.000000000000000000, 0.000000000000000000 ) ) ;
#325 = DIRECTION ( 'NONE',  ( 1.000000000000000000, 0.000000000000000000, 0.000000000000000000 ) ) ;
#326 = EDGE_CURVE ( 'NONE', #644, #286, #627, .T. ) ;
#327 = CARTESIAN_POINT ( 'NONE',  ( -69.28203230275508417, 12.51280703402371941, 5.000000000000000000 ) ) ;
#328 = MANIFOLD_SOLID_BREP ( 'Fillet1', #278 ) ;
#329 = DIRECTION ( 'NONE',  ( 0.000000000000000000, -0.000000000000000000, -1.000000000000000000 ) ) ;
#330 = EDGE_LOOP ( 'NONE', ( #58, #643, #134, #492 ) ) ;
#331 = ORIENTED_EDGE ( 'NONE', *, *, #45, .T. ) ;
#332 = VECTOR ( 'NONE', #534, 1000.000000000000000 ) ;
#333 = EDGE_LOOP ( 'NONE', ( #173, #191, #233, #381 ) ) ;
#334 = VECTOR ( 'NONE', #670, 1000.000000000000000 ) ;
#335 = ORIENTED_EDGE ( 'NONE', *, *, #45, .F. ) ;
#336 = EDGE_LOOP ( 'NONE', ( #331, #405, #601, #217 ) ) ;
#337 = VERTEX_POINT ( 'NONE', #179 ) ;
#338 = ADVANCED_FACE ( 'NONE', ( #545 ), #645, .T. ) ;
#339 = DIRECTION ( 'NONE',  ( 1.000000000000000000, 0.000000000000000000, 0.000000000000000000 ) ) ;
#340 = ORIENTED_EDGE ( 'NONE', *, *, #326, .F. ) ;
#341 = ORIENTED_EDGE ( 'NONE', *, *, #359, .T. ) ;
#342 = CARTESIAN_POINT ( 'NONE',  ( -21.14101615137754209, 36.61731409782014879, 5.000000000000000000 ) ) ;
#343 = ORIENTED_EDGE ( 'NONE', *, *, #141, .F. ) ;
#344 = ORIENTED_EDGE ( 'NONE', *, *, #71, .F. ) ;
#345 = VECTOR ( 'NONE', #358, 1000.000000000000000 ) ;
#346 = CARTESIAN_POINT ( 'NONE',  ( -23.47885150674736110, 65.58091860816583107, -5.000000000000000000 ) ) ;
#347 = LINE ( 'NONE', #399, #33 ) ;
#348 = EDGE_CURVE ( 'NONE', #596, #447, #603, .T. ) ;
#349 = DIRECTION ( 'NONE',  ( 0.5000000000000001110, 0.8660254037844385966, 0.000000000000000000 ) ) ;
#350 = DIRECTION ( 'NONE',  ( -0.000000000000000000, -0.000000000000000000, -1.000000000000000000 ) ) ;
#351 = PRODUCT_DEFINITION ( 'General', '', #511, #27 ) ;
#352 = DIRECTION ( 'NONE',  ( 0.8660254037844385966, 0.5000000000000001110, -0.000000000000000000 ) ) ;
#353 = CARTESIAN_POINT ( 'NONE',  ( 6.070863179879659732, 4.403932362239617149, 95.00000000000000000 ) ) ;
#354 = CIRCLE ( 'NONE', #476, 0.7499999999999997780 ) ;
#355 = ORIENTED_EDGE ( 'NONE', *, *, #614, .F. ) ;
#356 = VECTOR ( 'NONE', #301, 1000.000000000000000 ) ;
#357 = DIRECTION ( 'NONE',  ( -0.000000000000000000, -0.000000000000000000, 1.000000000000000000 ) ) ;
#358 = DIRECTION ( 'NONE',  ( -0.000000000000000000, -0.000000000000000000, -1.000000000000000000 ) ) ;
#359 = EDGE_CURVE ( 'NONE', #80, #16, #101, .T. ) ;
#360 = FACE_OUTER_BOUND ( 'NONE', #262, .T. ) ;
#361 = DIRECTION ( 'NONE',  ( -0.000000000000000000, -0.000000000000000000, -1.000000000000000000 ) ) ;
#362 = CARTESIAN_POINT ( 'NONE',  ( -69.28203230275508417, 0.000000000000000000, 5.000000000000000000 ) ) ;
#363 = APPLICATION_PROTOCOL_DEFINITION ( 'draft international standard', 'automotive_design', 1998, #615 ) ;
#364 = AXIS2_PLACEMENT_3D ( 'NONE', #142, #152, #205 ) ;
#365 = ORIENTED_EDGE ( 'NONE', *, *, #249, .F. ) ;
#366 = AXIS2_PLACEMENT_3D ( 'NONE', #568, #505, #561 ) ;
#367 = AXIS2_PLACEMENT_3D ( 'NONE', #104, #352, #566 ) ;
#368 = CARTESIAN_POINT ( 'NONE',  ( 34.64101615137758472, 59.99999999999998579, 5.000000000000000000 ) ) ;
#369 = ADVANCED_FACE ( 'NONE', ( #440, #649 ), #385, .T. ) ;
#370 = CYLINDRICAL_SURFACE ( 'NONE', #128, 26.25000000000000355 ) ;
#371 = DIRECTION ( 'NONE',  ( 0.000000000000000000, 0.000000000000000000, -1.000000000000000000 ) ) ;
#372 = DIRECTION ( 'NONE',  ( 1.000000000000000000, 1.807003620809174583E-15, 0.000000000000000000 ) ) ;
#373 = DIRECTION ( 'NONE',  ( 0.000000000000000000, 0.000000000000000000, -1.000000000000000000 ) ) ;
#374 = ORIENTED_EDGE ( 'NONE', *, *, #562, .F. ) ;
#375 = CARTESIAN_POINT ( 'NONE',  ( -66.96108422061276144, 38.66000000000000369, 5.000000000000000000 ) ) ;
#376 = CARTESIAN_POINT ( 'NONE',  ( -23.47885150674736110, 65.58091860816583107, 5.000000000000000000 ) ) ;
#377 = VECTOR ( 'NONE', #151, 1000.000000000000000 ) ;
#378 = CARTESIAN_POINT ( 'NONE',  ( 3.749999999999999556, 6.495190528383290918, -5.000000000000004441 ) ) ;
#379 = DIRECTION ( 'NONE',  ( 0.9012139306082943557, 0.4333744931090759422, 0.000000000000000000 ) ) ;
#380 = VERTEX_POINT ( 'NONE', #306 ) ;
#381 = ORIENTED_EDGE ( 'NONE', *, *, #432, .T. ) ;
#382 = PRESENTATION_STYLE_ASSIGNMENT (( #552 ) ) ;
#383 = ORIENTED_EDGE ( 'NONE', *, *, #60, .F. ) ;
#384 = ORIENTED_EDGE ( 'NONE', *, *, #389, .T. ) ;
#385 = CYLINDRICAL_SURFACE ( 'NONE', #268, 7.500000000000000000 ) ;
#386 = VECTOR ( 'NONE', #379, 999.9999999999998863 ) ;
#387 = EDGE_LOOP ( 'NONE', ( #124, #449, #390, #96 ) ) ;
#388 = ORIENTED_EDGE ( 'NONE', *, *, #92, .F. ) ;
#389 = EDGE_CURVE ( 'NONE', #26, #602, #675, .T. ) ;
#390 = ORIENTED_EDGE ( 'NONE', *, *, #463, .T. ) ;
#391 = ORIENTED_EDGE ( 'NONE', *, *, #348, .T. ) ;
#392 = EDGE_CURVE ( 'NONE', #394, #123, #41, .T. ) ;
#393 = DIRECTION ( 'NONE',  ( 1.000000000000000000, 0.000000000000000000, 0.000000000000000000 ) ) ;
#394 = VERTEX_POINT ( 'NONE', #198 ) ;
#395 = ORIENTED_EDGE ( 'NONE', *, *, #71, .T. ) ;
#396 = DIRECTION ( 'NONE',  ( -1.000000000000000000, 0.000000000000000000, 0.000000000000000000 ) ) ;
#397 = CARTESIAN_POINT ( 'NONE',  ( 0.000000000000000000, 0.000000000000000000, 105.0000000000000000 ) ) ;
#398 = EDGE_CURVE ( 'NONE', #80, #656, #517, .T. ) ;
#399 = CARTESIAN_POINT ( 'NONE',  ( 5.196152422706641794, 3.000000000000007105, -5.000000000000000000 ) ) ;
#400 = AXIS2_PLACEMENT_3D ( 'NONE', #197, #460, #295 ) ;
#401 = ORIENTED_EDGE ( 'NONE', *, *, #218, .T. ) ;
#402 = CIRCLE ( 'NONE', #148, 7.500000000000000000 ) ;
#403 = SHAPE_DEFINITION_REPRESENTATION ( #5, #589 ) ;
#404 = CARTESIAN_POINT ( 'NONE',  ( 1.732050807568876083, -0.9999999999999995559, 95.00000000000000000 ) ) ;
#405 = ORIENTED_EDGE ( 'NONE', *, *, #208, .F. ) ;
#406 = VERTEX_POINT ( 'NONE', #346 ) ;
#407 = LINE ( 'NONE', #555, #411 ) ;
#408 = PLANE ( 'NONE',  #74 ) ;
#409 = DIRECTION ( 'NONE',  ( -0.000000000000000000, 0.000000000000000000, 1.000000000000000000 ) ) ;
#410 = CARTESIAN_POINT ( 'NONE',  ( 4.445622782404254458, -6.040400489749686130, 95.00000000000000000 ) ) ;
#411 = VECTOR ( 'NONE', #616, 1000.000000000000000 ) ;
#412 = AXIS2_PLACEMENT_3D ( 'NONE', #427, #417, #64 ) ;
#413 = ADVANCED_FACE ( 'NONE', ( #46 ), #510, .T. ) ;
#414 = CARTESIAN_POINT ( 'NONE',  ( 0.000000000000000000, 0.000000000000000000, 5.000000000000000000 ) ) ;
#415 = PRODUCT_CONTEXT ( 'NONE', #203, 'mechanical' ) ;
#416 = LINE ( 'NONE', #429, #109 ) ;
#417 = DIRECTION ( 'NONE',  ( -0.4333744931090758867, 0.9012139306082943557, 0.000000000000000000 ) ) ;
#418 = EDGE_CURVE ( 'NONE', #284, #288, #658, .T. ) ;
#419 = VECTOR ( 'NONE', #49, 1000.000000000000114 ) ;
#420 =( GEOMETRIC_REPRESENTATION_CONTEXT ( 3 ) GLOBAL_UNCERTAINTY_ASSIGNED_CONTEXT ( ( #285 ) ) GLOBAL_UNIT_ASSIGNED_CONTEXT ( ( #57, #2, #471 ) ) REPRESENTATION_CONTEXT ( 'NONE', 'WORKASPACE' ) );
#421 = DIRECTION ( 'NONE',  ( 0.9012139306082943557, 0.4333744931090759422, 0.000000000000000000 ) ) ;
#422 = STYLED_ITEM ( 'NONE', ( #382 ), #328 ) ;
#423 = AXIS2_PLACEMENT_3D ( 'NONE', #11, #66, #324 ) ;
#424 = LINE ( 'NONE', #631, #213 ) ;
#425 = ORIENTED_EDGE ( 'NONE', *, *, #60, .T. ) ;
#426 = PLANE ( 'NONE',  #110 ) ;
#427 = CARTESIAN_POINT ( 'NONE',  ( -30.02313299701851435, 62.43391368815191811, 5.000000000000000000 ) ) ;
#428 = CARTESIAN_POINT ( 'NONE',  ( 2.964651968826085948, -0.3650721632341147327, 95.00000000000000000 ) ) ;
#429 = CARTESIAN_POINT ( 'NONE',  ( 5.196152422706641794, 3.000000000000007105, 5.000000000000000000 ) ) ;
#430 = ORIENTED_EDGE ( 'NONE', *, *, #592, .T. ) ;
#431 = CARTESIAN_POINT ( 'NONE',  ( -26.33716857408417056, 33.61731409782013458, -5.000000000000000000 ) ) ;
#432 = EDGE_CURVE ( 'NONE', #288, #447, #189, .T. ) ;
#433 = CYLINDRICAL_SURFACE ( 'NONE', #544, 0.7499999999999997780 ) ;
#434 = AXIS2_PLACEMENT_3D ( 'NONE', #122, #329, #437 ) ;
#435 = ORIENTED_EDGE ( 'NONE', *, *, #469, .T. ) ;
#436 = EDGE_CURVE ( 'NONE', #594, #477, #577, .T. ) ;
#437 = DIRECTION ( 'NONE',  ( 1.000000000000000000, 0.000000000000000000, 0.000000000000000000 ) ) ;
#438 = ORIENTED_EDGE ( 'NONE', *, *, #310, .T. ) ;
#439 = ORIENTED_EDGE ( 'NONE', *, *, #7, .T. ) ;
#440 = FACE_OUTER_BOUND ( 'NONE', #581, .T. ) ;
#441 = EDGE_CURVE ( 'NONE', #286, #406, #37, .T. ) ;
#442 = ORIENTED_EDGE ( 'NONE', *, *, #573, .F. ) ;
#443 = ORIENTED_EDGE ( 'NONE', *, *, #657, .F. ) ;
#444 = AXIS2_PLACEMENT_3D ( 'NONE', #317, #637, #211 ) ;
#445 = VECTOR ( 'NONE', #635, 1000.000000000000000 ) ;
#446 = ORIENTED_EDGE ( 'NONE', *, *, #141, .T. ) ;
#447 = VERTEX_POINT ( 'NONE', #135 ) ;
#448 = CARTESIAN_POINT ( 'NONE',  ( -30.02313299701851435, 62.43391368815191811, 5.000000000000000000 ) ) ;
#449 = ORIENTED_EDGE ( 'NONE', *, *, #53, .F. ) ;
#450 = ORIENTED_EDGE ( 'NONE', *, *, #176, .F. ) ;
#451 = EDGE_CURVE ( 'NONE', #541, #232, #407, .T. ) ;
#452 = CARTESIAN_POINT ( 'NONE',  ( -15.94486372867089763, 39.61731409782014879, -5.000000000000000000 ) ) ;
#453 = PLANE ( 'NONE',  #400 ) ;
#454 = CARTESIAN_POINT ( 'NONE',  ( 23.80460738726039693, 66.25640351701187569, 5.000000000000000000 ) ) ;
#455 = DIRECTION ( 'NONE',  ( -1.000000000000000000, 0.000000000000000000, 0.000000000000000000 ) ) ;
#456 = LINE ( 'NONE', #250, #419 ) ;
#457 = COLOUR_RGB ( '',0.7921568627450980005, 0.8196078431372548767, 0.9333333333333333481 ) ;
#458 = AXIS2_PLACEMENT_3D ( 'NONE', #375, #481, #222 ) ;
#459 = DIRECTION ( 'NONE',  ( -0.000000000000000000, 0.000000000000000000, 1.000000000000000000 ) ) ;
#460 = DIRECTION ( 'NONE',  ( -0.8660254037844387076, 0.4999999999999998890, 0.000000000000000000 ) ) ;
#461 = DIRECTION ( 'NONE',  ( 0.000000000000000000, 0.000000000000000000, -1.000000000000000000 ) ) ;
#462 = LINE ( 'NONE', #414, #323 ) ;
#463 = EDGE_CURVE ( 'NONE', #10, #231, #44, .T. ) ;
#464 = EDGE_LOOP ( 'NONE', ( #19, #355, #430, #292 ) ) ;
#465 = LINE ( 'NONE', #103, #224 ) ;
#466 = VECTOR ( 'NONE', #199, 1000.000000000000000 ) ;
#467 = DIRECTION ( 'NONE',  ( -1.000000000000000000, 0.000000000000000000, 0.000000000000000000 ) ) ;
#468 = ORIENTED_EDGE ( 'NONE', *, *, #120, .F. ) ;
#469 = EDGE_CURVE ( 'NONE', #495, #26, #625, .T. ) ;
#470 = DIRECTION ( 'NONE',  ( 0.5000000000000001110, -0.8660254037844385966, 0.000000000000000000 ) ) ;
#471 =( NAMED_UNIT ( * ) SI_UNIT ( $, .STERADIAN. ) SOLID_ANGLE_UNIT ( ) );
#472 = DIRECTION ( 'NONE',  ( -1.000000000000000000, 0.000000000000000000, 0.000000000000000000 ) ) ;
#473 = EDGE_CURVE ( 'NONE', #503, #380, #294, .T. ) ;
#474 = LINE ( 'NONE', #362, #521 ) ;
#475 = LINE ( 'NONE', #259, #181 ) ;
#476 = AXIS2_PLACEMENT_3D ( 'NONE', #68, #586, #273 ) ;
#477 = VERTEX_POINT ( 'NONE', #452 ) ;
#478 = LINE ( 'NONE', #14, #664 ) ;
#479 = CARTESIAN_POINT ( 'NONE',  ( 0.000000000000000000, 0.000000000000000000, 5.000000000000004441 ) ) ;
#480 = ORIENTED_EDGE ( 'NONE', *, *, #182, .T. ) ;
#481 = DIRECTION ( 'NONE',  ( -0.000000000000000000, 0.000000000000000000, 1.000000000000000000 ) ) ;
#482 = DIRECTION ( 'NONE',  ( 1.000000000000000000, 0.000000000000000000, 0.000000000000000000 ) ) ;
#483 = ADVANCED_FACE ( 'NONE', ( #610 ), #145, .F. ) ;
#484 = CARTESIAN_POINT ( 'NONE',  ( 3.258282922137318405, -5.332526613729536180, 95.00000000000000000 ) ) ;
#485 = FACE_OUTER_BOUND ( 'NONE', #387, .T. ) ;
#486 = ORIENTED_EDGE ( 'NONE', *, *, #633, .F. ) ;
#487 = DIRECTION ( 'NONE',  ( 0.000000000000000000, 0.000000000000000000, -1.000000000000000000 ) ) ;
#488 = AXIS2_PLACEMENT_3D ( 'NONE', #368, #519, #624 ) ;
#489 = DIRECTION ( 'NONE',  ( -0.000000000000000000, -0.000000000000000000, -1.000000000000000000 ) ) ;
#490 = CIRCLE ( 'NONE', #458, 26.24999999999999645 ) ;
#491 = ORIENTED_EDGE ( 'NONE', *, *, #535, .F. ) ;
#492 = ORIENTED_EDGE ( 'NONE', *, *, #40, .T. ) ;
#493 = EDGE_CURVE ( 'NONE', #337, #275, #661, .T. ) ;
#494 = CYLINDRICAL_SURFACE ( 'NONE', #569, 6.000000000000005329 ) ;
#495 = VERTEX_POINT ( 'NONE', #304 ) ;
#496 = ORIENTED_EDGE ( 'NONE', *, *, #676, .F. ) ;
#497 = PRODUCT_RELATED_PRODUCT_CATEGORY ( 'part', '', ( #320 ) ) ;
#498 = EDGE_LOOP ( 'NONE', ( #32, #130, #174, #133 ) ) ;
#499 = ORIENTED_EDGE ( 'NONE', *, *, #92, .T. ) ;
#500 = DIRECTION ( 'NONE',  ( -0.000000000000000000, -0.000000000000000000, 1.000000000000000000 ) ) ;
#501 = AXIS2_PLACEMENT_3D ( 'NONE', #158, #54, #61 ) ;
#502 = EDGE_LOOP ( 'NONE', ( #24, #443, #85, #239 ) ) ;
#503 = VERTEX_POINT ( 'NONE', #618 ) ;
#504 = CARTESIAN_POINT ( 'NONE',  ( 1.732050807568876083, -0.9999999999999995559, 105.0000000000000000 ) ) ;
#505 = DIRECTION ( 'NONE',  ( -8.012344526598185773E-16, -1.000000000000000000, 0.000000000000000000 ) ) ;
#506 = ORIENTED_EDGE ( 'NONE', *, *, #326, .T. ) ;
#507 = FACE_OUTER_BOUND ( 'NONE', #498, .T. ) ;
#508 = CARTESIAN_POINT ( 'NONE',  ( 2.322171986993549986, -0.7520081694993149268, 95.00000000000000000 ) ) ;
#509 = ORIENTED_EDGE ( 'NONE', *, *, #436, .T. ) ;
#510 = CYLINDRICAL_SURFACE ( 'NONE', #567, 0.7499999999999997780 ) ;
#511 = PRODUCT_DEFINITION_FORMATION_WITH_SPECIFIED_SOURCE ( 'Symmetric', '', #320, .NOT_KNOWN. ) ;
#512 = CARTESIAN_POINT ( 'NONE',  ( 3.749999999999999556, 6.495190528383290918, 105.0000000000000000 ) ) ;
#513 = VECTOR ( 'NONE', #140, 1000.000000000000114 ) ;
#514 = CARTESIAN_POINT ( 'NONE',  ( 5.463776861891694203, 3.963539126015655611, 105.0000000000000000 ) ) ;
#515 = ADVANCED_FACE ( 'NONE', ( #507 ), #149, .F. ) ;
#516 = PLANE ( 'NONE',  #366 ) ;
#517 = LINE ( 'NONE', #560, #356 ) ;
#518 = CARTESIAN_POINT ( 'NONE',  ( -5.196152422706630247, -3.000000000000000000, -5.000000000000000000 ) ) ;
#519 = DIRECTION ( 'NONE',  ( -0.5000000000000005551, -0.8660254037844383745, 0.000000000000000000 ) ) ;
#520 = EDGE_CURVE ( 'NONE', #656, #380, #185, .T. ) ;
#521 = VECTOR ( 'NONE', #580, 1000.000000000000000 ) ;
#522 = PLANE ( 'NONE',  #312 ) ;
#523 = CARTESIAN_POINT ( 'NONE',  ( 0.000000000000000000, 0.000000000000000000, 105.0000000000000000 ) ) ;
#524 = EDGE_LOOP ( 'NONE', ( #582, #593, #480, #650 ) ) ;
#525 = FACE_OUTER_BOUND ( 'NONE', #333, .T. ) ;
#526 = APPLICATION_PROTOCOL_DEFINITION ( 'draft international standard', 'automotive_design', 1998, #203 ) ;
#527 = ORIENTED_EDGE ( 'NONE', *, *, #451, .F. ) ;
#528 = DIRECTION ( 'NONE',  ( -0.000000000000000000, -0.000000000000000000, -1.000000000000000000 ) ) ;
#529 = DIRECTION ( 'NONE',  ( -0.000000000000000000, 0.000000000000000000, 1.000000000000000000 ) ) ;
#530 = CIRCLE ( 'NONE', #364, 0.7499999999999997780 ) ;
#531 = AXIS2_PLACEMENT_3D ( 'NONE', #563, #357, #97 ) ;
#532 = CARTESIAN_POINT ( 'NONE',  ( -69.28203230275508417, 12.51280703402371941, -5.000000000000000000 ) ) ;
#533 = AXIS2_PLACEMENT_3D ( 'NONE', #29, #83, #129 ) ;
#534 = DIRECTION ( 'NONE',  ( 0.000000000000000000, 1.000000000000000000, -0.000000000000000000 ) ) ;
#535 = EDGE_CURVE ( 'NONE', #131, #394, #234, .T. ) ;
#536 = DIRECTION ( 'NONE',  ( 0.000000000000000000, -0.000000000000000000, -1.000000000000000000 ) ) ;
#537 = DIRECTION ( 'NONE',  ( -0.8660254037844382635, 0.5000000000000005551, 0.000000000000000000 ) ) ;
#538 = FACE_OUTER_BOUND ( 'NONE', #502, .T. ) ;
#539 = CARTESIAN_POINT ( 'NONE',  ( 3.749999999999999556, 6.495190528383290918, 5.000000000000004441 ) ) ;
#540 = ORIENTED_EDGE ( 'NONE', *, *, #441, .F. ) ;
#541 = VERTEX_POINT ( 'NONE', #276 ) ;
#542 = ADVANCED_FACE ( 'NONE', ( #170 ), #63, .F. ) ;
#543 = CIRCLE ( 'NONE', #629, 7.500000000000000000 ) ;
#544 = AXIS2_PLACEMENT_3D ( 'NONE', #168, #500, #325 ) ;
#545 = FACE_OUTER_BOUND ( 'NONE', #81, .T. ) ;
#546 = AXIS2_PLACEMENT_3D ( 'NONE', #17, #118, #472 ) ;
#547 = EDGE_LOOP ( 'NONE', ( #65, #425, #391, #609 ) ) ;
#548 = ORIENTED_EDGE ( 'NONE', *, *, #451, .T. ) ;
#549 = CARTESIAN_POINT ( 'NONE',  ( 0.000000000000000000, 0.000000000000000000, 95.00000000000000000 ) ) ;
#550 = VERTEX_POINT ( 'NONE', #484 ) ;
#551 = ORIENTED_EDGE ( 'NONE', *, *, #562, .T. ) ;
#552 = SURFACE_STYLE_USAGE ( .BOTH. , #86 ) ;
#553 = EDGE_LOOP ( 'NONE', ( #486, #243, #604, #180 ) ) ;
#554 = VERTEX_POINT ( 'NONE', #532 ) ;
#555 = CARTESIAN_POINT ( 'NONE',  ( -7.500000000000000000, 6.009258394948639280E-15, 105.0000000000000000 ) ) ;
#556 = AXIS2_PLACEMENT_3D ( 'NONE', #264, #529, #114 ) ;
#557 = ADVANCED_FACE ( 'NONE', ( #113 ), #426, .F. ) ;
#558 = CARTESIAN_POINT ( 'NONE',  ( -26.33716857408417056, 33.61731409782013458, 5.000000000000000000 ) ) ;
#559 = ORIENTED_EDGE ( 'NONE', *, *, #666, .T. ) ;
#560 = CARTESIAN_POINT ( 'NONE',  ( 6.070863179879661509, 4.403932362239618037, 105.0000000000000000 ) ) ;
#561 = DIRECTION ( 'NONE',  ( 1.000000000000000000, -8.012344526598185773E-16, 0.000000000000000000 ) ) ;
#562 = EDGE_CURVE ( 'NONE', #123, #80, #354, .T. ) ;
#563 = CARTESIAN_POINT ( 'NONE',  ( 5.463776861891694203, 3.963539126015655611, 105.0000000000000000 ) ) ;
#564 = LINE ( 'NONE', #558, #210 ) ;
#565 = ADVANCED_FACE ( 'NONE', ( #166 ), #219, .F. ) ;
#566 = DIRECTION ( 'NONE',  ( -0.5000000000000001110, 0.8660254037844385966, 0.000000000000000000 ) ) ;
#567 = AXIS2_PLACEMENT_3D ( 'NONE', #514, #612, #251 ) ;
#568 = CARTESIAN_POINT ( 'NONE',  ( 0.000000000000000000, 0.000000000000000000, 5.000000000000000000 ) ) ;
#569 = AXIS2_PLACEMENT_3D ( 'NONE', #600, #489, #591 ) ;
#570 = DIRECTION ( 'NONE',  ( 0.000000000000000000, -0.000000000000000000, -1.000000000000000000 ) ) ;
#571 = FACE_OUTER_BOUND ( 'NONE', #608, .T. ) ;
#572 = CARTESIAN_POINT ( 'NONE',  ( -45.05531576481750022, 53.12374116060866669, 5.000000000000000000 ) ) ;
#573 = EDGE_CURVE ( 'NONE', #131, #550, #48, .T. ) ;
#574 = DIRECTION ( 'NONE',  ( 0.5000000000000001110, -0.8660254037844385966, 0.000000000000000000 ) ) ;
#575 = AXIS2_PLACEMENT_3D ( 'NONE', #271, #164, #321 ) ;
#576 = VECTOR ( 'NONE', #119, 1000.000000000000000 ) ;
#577 = CIRCLE ( 'NONE', #78, 6.000000000000003553 ) ;
#578 = LINE ( 'NONE', #108, #445 ) ;
#579 = CARTESIAN_POINT ( 'NONE',  ( 0.000000000000000000, 77.31999999999999318, 5.000000000000000000 ) ) ;
#580 = DIRECTION ( 'NONE',  ( 0.000000000000000000, 1.000000000000000000, -0.000000000000000000 ) ) ;
#581 = EDGE_LOOP ( 'NONE', ( #296, #548, #647, #383 ) ) ;
#582 = ORIENTED_EDGE ( 'NONE', *, *, #256, .F. ) ;
#583 = CARTESIAN_POINT ( 'NONE',  ( -39.05778881311525907, 57.21775272069282181, 5.000000000000000000 ) ) ;
#584 = ADVANCED_FACE ( 'NONE', ( #538 ), #115, .T. ) ;
#585 = FACE_OUTER_BOUND ( 'NONE', #524, .T. ) ;
#586 = DIRECTION ( 'NONE',  ( 0.000000000000000000, -0.000000000000000000, -1.000000000000000000 ) ) ;
#587 = AXIS2_PLACEMENT_3D ( 'NONE', #34, #237, #230 ) ;
#588 = LINE ( 'NONE', #642, #576 ) ;
#589 = ADVANCED_BREP_SHAPE_REPRESENTATION ( 'Part3 geneva wheel', ( #328, #160 ), #420 ) ;
#590 = CARTESIAN_POINT ( 'NONE',  ( 4.445622782404254458, -6.040400489749686130, 105.0000000000000000 ) ) ;
#591 = DIRECTION ( 'NONE',  ( -1.000000000000000000, 0.000000000000000000, 0.000000000000000000 ) ) ;
#592 = EDGE_CURVE ( 'NONE', #195, #275, #490, .T. ) ;
#593 = ORIENTED_EDGE ( 'NONE', *, *, #127, .F. ) ;
#594 = VERTEX_POINT ( 'NONE', #431 ) ;
#595 =( NAMED_UNIT ( * ) PLANE_ANGLE_UNIT ( ) SI_UNIT ( $, .RADIAN. ) );
#596 = VERTEX_POINT ( 'NONE', #378 ) ;
#597 = ORIENTED_EDGE ( 'NONE', *, *, #389, .F. ) ;
#598 = VECTOR ( 'NONE', #72, 1000.000000000000000 ) ;
#599 = VECTOR ( 'NONE', #537, 1000.000000000000114 ) ;
#600 = CARTESIAN_POINT ( 'NONE',  ( -21.14101615137754209, 36.61731409782014879, 5.000000000000000000 ) ) ;
#601 = ORIENTED_EDGE ( 'NONE', *, *, #493, .F. ) ;
#602 = VERTEX_POINT ( 'NONE', #590 ) ;
#603 = LINE ( 'NONE', #79, #9 ) ;
#604 = ORIENTED_EDGE ( 'NONE', *, *, #269, .T. ) ;
#605 = ORIENTED_EDGE ( 'NONE', *, *, #182, .F. ) ;
#606 = EDGE_CURVE ( 'NONE', #596, #232, #402, .T. ) ;
#607 = CARTESIAN_POINT ( 'NONE',  ( 0.000000000000000000, 0.000000000000000000, 5.000000000000000000 ) ) ;
#608 = EDGE_LOOP ( 'NONE', ( #496, #188, #229, #395, #435, #384 ) ) ;
#609 = ORIENTED_EDGE ( 'NONE', *, *, #432, .F. ) ;
#610 = FACE_OUTER_BOUND ( 'NONE', #23, .T. ) ;
#611 = DIRECTION ( 'NONE',  ( 0.000000000000000000, 0.000000000000000000, -1.000000000000000000 ) ) ;
#612 = DIRECTION ( 'NONE',  ( 0.000000000000000000, 0.000000000000000000, -1.000000000000000000 ) ) ;
#613 = CARTESIAN_POINT ( 'NONE',  ( -69.28203230275508417, 5.551115123125782702E-14, 5.000000000000000000 ) ) ;
#614 = EDGE_CURVE ( 'NONE', #195, #554, #20, .T. ) ;
#615 = APPLICATION_CONTEXT ( 'automotive_design' ) ;
#616 = DIRECTION ( 'NONE',  ( 0.000000000000000000, 0.000000000000000000, -1.000000000000000000 ) ) ;
#617 = LINE ( 'NONE', #253, #663 ) ;
#618 = CARTESIAN_POINT ( 'NONE',  ( 2.315132915987756057, 0.009927836765885600379, 105.0000000000000000 ) ) ;
#619 = DIRECTION ( 'NONE',  ( 1.000000000000000000, 0.000000000000000000, 0.000000000000000000 ) ) ;
#620 = VECTOR ( 'NONE', #665, 1000.000000000000114 ) ;
#621 = LINE ( 'NONE', #518, #377 ) ;
#622 = FACE_OUTER_BOUND ( 'NONE', #553, .T. ) ;
#623 = DIRECTION ( 'NONE',  ( 0.000000000000000000, 0.000000000000000000, -1.000000000000000000 ) ) ;
#624 = DIRECTION ( 'NONE',  ( 0.8660254037844382635, -0.5000000000000004441, 0.000000000000000000 ) ) ;
#625 = CIRCLE ( 'NONE', #157, 7.000000000000000888 ) ;
#626 = DIRECTION ( 'NONE',  ( -0.000000000000000000, -0.000000000000000000, -1.000000000000000000 ) ) ;
#627 = CIRCLE ( 'NONE', #434, 26.25000000000000355 ) ;
#628 = ORIENTED_EDGE ( 'NONE', *, *, #269, .F. ) ;
#629 = AXIS2_PLACEMENT_3D ( 'NONE', #523, #623, #396 ) ;
#630 = CARTESIAN_POINT ( 'NONE',  ( -69.28203230275508417, 5.551115123125782702E-14, -5.000000000000000000 ) ) ;
#631 = CARTESIAN_POINT ( 'NONE',  ( -5.196152422706630247, -3.000000000000000000, 5.000000000000000000 ) ) ;
#632 = VERTEX_POINT ( 'NONE', #4 ) ;
#633 = EDGE_CURVE ( 'NONE', #632, #406, #478, .T. ) ;
#634 = DIRECTION ( 'NONE',  ( 0.8259202856888113731, 0.5637869115966708256, 0.000000000000000000 ) ) ;
#635 = DIRECTION ( 'NONE',  ( -0.000000000000000000, -0.000000000000000000, -1.000000000000000000 ) ) ;
#636 = VERTEX_POINT ( 'NONE', #630 ) ;
#637 = DIRECTION ( 'NONE',  ( 0.000000000000000000, -0.000000000000000000, -1.000000000000000000 ) ) ;
#638 = CARTESIAN_POINT ( 'NONE',  ( -69.28203230275508417, 5.551115123125782702E-14, 5.000000000000000000 ) ) ;
#639 = DIRECTION ( 'NONE',  ( 0.5637869115966708256, -0.8259202856888113731, 0.000000000000000000 ) ) ;
#640 = AXIS2_PLACEMENT_3D ( 'NONE', #298, #674, #668 ) ;
#641 = ADVANCED_FACE ( 'NONE', ( #162 ), #370, .F. ) ;
#642 = CARTESIAN_POINT ( 'NONE',  ( 3.258282922137318405, -5.332526613729536180, 95.00000000000000000 ) ) ;
#643 = ORIENTED_EDGE ( 'NONE', *, *, #398, .T. ) ;
#644 = VERTEX_POINT ( 'NONE', #62 ) ;
#645 = PLANE ( 'NONE',  #303 ) ;
#646 = EDGE_CURVE ( 'NONE', #289, #632, #314, .T. ) ;
#647 = ORIENTED_EDGE ( 'NONE', *, *, #606, .F. ) ;
#648 = EDGE_LOOP ( 'NONE', ( #76, #125, #35, #3, #335, #270, #509, #343, #659, #187, #31, #227 ) ) ;
#649 = FACE_OUTER_BOUND ( 'NONE', #330, .T. ) ;
#650 = ORIENTED_EDGE ( 'NONE', *, *, #614, .T. ) ;
#651 = ORIENTED_EDGE ( 'NONE', *, *, #398, .F. ) ;
#652 = VECTOR ( 'NONE', #201, 1000.000000000000000 ) ;
#653 = VECTOR ( 'NONE', #263, 1000.000000000000000 ) ;
#654 = CARTESIAN_POINT ( 'NONE',  ( -29.31471543076818165, 62.77457653551388006, 5.000000000000000000 ) ) ;
#655 = ORIENTED_EDGE ( 'NONE', *, *, #192, .F. ) ;
#656 = VERTEX_POINT ( 'NONE', #261 ) ;
#657 = EDGE_CURVE ( 'NONE', #337, #75, #475, .T. ) ;
#658 = LINE ( 'NONE', #607, #620 ) ;
#659 = ORIENTED_EDGE ( 'NONE', *, *, #633, .T. ) ;
#660 = ORIENTED_EDGE ( 'NONE', *, *, #154, .T. ) ;
#661 = LINE ( 'NONE', #193, #513 ) ;
#662 = PLANE ( 'NONE',  #311 ) ;
#663 = VECTOR ( 'NONE', #98, 1000.000000000000000 ) ;
#664 = VECTOR ( 'NONE', #421, 999.9999999999998863 ) ;
#665 = DIRECTION ( 'NONE',  ( 0.4999999999999998890, 0.8660254037844387076, 0.000000000000000000 ) ) ;
#666 = EDGE_CURVE ( 'NONE', #644, #214, #265, .T. ) ;
#667 = AXIS2_PLACEMENT_3D ( 'NONE', #342, #409, #90 ) ;
#668 = DIRECTION ( 'NONE',  ( -1.000000000000000000, 0.000000000000000000, 0.000000000000000000 ) ) ;
#669 = ORIENTED_EDGE ( 'NONE', *, *, #7, .F. ) ;
#670 = DIRECTION ( 'NONE',  ( -0.000000000000000000, -0.000000000000000000, -1.000000000000000000 ) ) ;
#671 = FACE_OUTER_BOUND ( 'NONE', #38, .T. ) ;
#672 = CARTESIAN_POINT ( 'NONE',  ( -23.47885150674736110, 65.58091860816583107, 5.000000000000000000 ) ) ;
#673 = LINE ( 'NONE', #613, #345 ) ;
#674 = DIRECTION ( 'NONE',  ( -0.000000000000000000, -0.000000000000000000, 1.000000000000000000 ) ) ;
#675 = CIRCLE ( 'NONE', #184, 0.7499999999999997780 ) ;
#676 = EDGE_CURVE ( 'NONE', #656, #602, #543, .T. ) ;
#677 = DIRECTION ( 'NONE',  ( -0.000000000000000000, -0.000000000000000000, -1.000000000000000000 ) ) ;
ENDSEC;
END-ISO-10303-21;
