ISO-10303-21;
HEADER;
FILE_DESCRIPTION (( 'STEP AP214' ),
    '1' );
FILE_NAME ('ISO - 4032 - M3 - W - N.STEP',
    '2025-07-29T15:59:07',
    ( '' ),
    ( '' ),
    'SwSTEP 2.0',
    'SolidWorks 2025',
    '' );
FILE_SCHEMA (( 'AUTOMOTIVE_DESIGN' ));
ENDSEC;

DATA;
#1 = FACE_BOUND ( 'NONE', #214, .T. ) ;
#2 = EDGE_LOOP ( 'NONE', ( #431 ) ) ;
#3 = DIRECTION ( 'NONE',  ( 1.000000000000000000, 0.000000000000000000, 0.000000000000000000 ) ) ;
#4 = CARTESIAN_POINT ( 'NONE',  ( -1.375000000000005329, 2.381569860407203532, 0.000000000000000000 ) ) ;
#5 = VECTOR ( 'NONE', #461, 999.9999999999998863 ) ;
#6 = VERTEX_POINT ( 'NONE', #15 ) ;
#7 = CARTESIAN_POINT ( 'NONE',  ( 2.750000000000000000, -1.587713240271478199, -2.000000000000000000 ) ) ;
#8 = AXIS2_PLACEMENT_3D ( 'NONE', #163, #582, #90 ) ;
#9 = DIRECTION ( 'NONE',  ( 0.000000000000000000, -0.000000000000000000, 1.000000000000000000 ) ) ;
#10 = CARTESIAN_POINT ( 'NONE',  ( 2.525629923208370098, 1.717253364505211932, -0.1708300674639746386 ) ) ;
#11 = ADVANCED_FACE ( 'NONE', ( #600 ), #121, .T. ) ;
#12 = PLANE ( 'NONE',  #347 ) ;
#13 = EDGE_LOOP ( 'NONE', ( #260, #102, #322 ) ) ;
#14 = DIRECTION ( 'NONE',  ( -1.000000000000000000, 0.000000000000000000, 0.000000000000000000 ) ) ;
#15 = CARTESIAN_POINT ( 'NONE',  ( 1.375000000000009548, -2.381569860407212857, -2.000000000000000888 ) ) ;
#16 = AXIS2_PLACEMENT_3D ( 'NONE', #647, #389, #190 ) ;
#17 = DIRECTION ( 'NONE',  ( 1.000000000000000000, 0.000000000000000000, 0.000000000000000000 ) ) ;
#18 = ORIENTED_EDGE ( 'NONE', *, *, #252, .T. ) ;
#19 = EDGE_CURVE ( 'NONE', #277, #277, #229, .T. ) ;
#20 = DIRECTION ( 'NONE',  ( 1.000000000000000000, 0.000000000000000000, 0.000000000000000000 ) ) ;
#21 = DIRECTION ( 'NONE',  ( -1.000000000000000000, 0.000000000000000000, -0.000000000000000000 ) ) ;
#22 = CIRCLE ( 'NONE', #34, 2.750000000000000888 ) ;
#23 = EDGE_CURVE ( 'NONE', #123, #123, #403, .T. ) ;
#24 = FACE_OUTER_BOUND ( 'NONE', #2, .T. ) ;
#25 = CARTESIAN_POINT ( 'NONE',  ( -0.4506121144344773510, 2.915265454974091952, -0.1090894304641087387 ) ) ;
#26 = CYLINDRICAL_SURFACE ( 'NONE', #236, 2.750000000000000888 ) ;
#27 = AXIS2_PLACEMENT_3D ( 'NONE', #248, #558, #454 ) ;
#28 = DIRECTION ( 'NONE',  ( -0.000000000000000000, -0.000000000000000000, 1.000000000000000000 ) ) ;
#29 = EDGE_LOOP ( 'NONE', ( #458, #673, #527 ) ) ;
#30 = CIRCLE ( 'NONE', #395, 2.750000000000000888 ) ;
#31 = DIRECTION ( 'NONE',  ( 0.000000000000000000, 0.000000000000000000, -1.000000000000000000 ) ) ;
#32 = VERTEX_POINT ( 'NONE', #126 ) ;
#33 = CARTESIAN_POINT ( 'NONE',  ( 2.750000000000000000, 1.587713240271466875, -2.000000000000000000 ) ) ;
#34 = AXIS2_PLACEMENT_3D ( 'NONE', #281, #491, #588 ) ;
#35 = DIRECTION ( 'NONE',  ( 0.000000000000000000, -1.000000000000000000, 0.000000000000000000 ) ) ;
#36 = ORIENTED_EDGE ( 'NONE', *, *, #376, .T. ) ;
#37 = DIRECTION ( 'NONE',  ( 0.000000000000000000, 0.000000000000000000, -1.000000000000000000 ) ) ;
#38 = AXIS2_PLACEMENT_3D ( 'NONE', #157, #574, #415 ) ;
#39 = DIRECTION ( 'NONE',  ( 0.8660254037844377084, -0.5000000000000016653, 0.000000000000000000 ) ) ;
#40 = EDGE_LOOP ( 'NONE', ( #579, #36, #269, #317, #18, #619 ) ) ;
#41 = EDGE_CURVE ( 'NONE', #335, #465, #437, .T. ) ;
#42 = CONICAL_SURFACE ( 'NONE', #549, 1.224999999999999201, 0.9599310885968773688 ) ;
#43 = DIRECTION ( 'NONE',  ( 1.000000000000000000, 0.000000000000000000, 0.000000000000000000 ) ) ;
#44 = VERTEX_POINT ( 'NONE', #137 ) ;
#45 = DIRECTION ( 'NONE',  ( -0.5000000000000019984, 0.8660254037844375974, 0.000000000000000000 ) ) ;
#46 = ADVANCED_FACE ( 'NONE', ( #344 ), #556, .T. ) ;
#47 = AXIS2_PLACEMENT_3D ( 'NONE', #232, #539, #326 ) ;
#48 = EDGE_LOOP ( 'NONE', ( #608 ) ) ;
#49 = DIRECTION ( 'NONE',  ( -0.000000000000000000, -0.000000000000000000, 1.000000000000000000 ) ) ;
#50 = EDGE_CURVE ( 'NONE', #6, #655, #65, .T. ) ;
#51 = ORIENTED_EDGE ( 'NONE', *, *, #327, .F. ) ;
#52 = CARTESIAN_POINT ( 'NONE',  ( 1.375000000000004441, -2.381569860407203976, 0.000000000000000000 ) ) ;
#53 = CARTESIAN_POINT ( 'NONE',  ( 1.375000000000005773, 2.381569860407204420, -2.000000000000000888 ) ) ;
#54 = ORIENTED_EDGE ( 'NONE', *, *, #500, .F. ) ;
#55 = DIRECTION ( 'NONE',  ( 0.000000000000000000, 0.000000000000000000, 1.000000000000000000 ) ) ;
#56 = PLANE ( 'NONE',  #343 ) ;
#57 = ORIENTED_EDGE ( 'NONE', *, *, #422, .T. ) ;
#58 = DIRECTION ( 'NONE',  ( 0.000000000000000000, 0.000000000000000000, 1.000000000000000000 ) ) ;
#59 = FACE_OUTER_BOUND ( 'NONE', #425, .T. ) ;
#60 = EDGE_LOOP ( 'NONE', ( #611, #79, #512, #89, #57, #532 ) ) ;
#61 = CARTESIAN_POINT ( 'NONE',  ( 2.750000000000000444, 0.000000000000000000, 0.000000000000000000 ) ) ;
#62 = EDGE_CURVE ( 'NONE', #465, #267, #294, .T. ) ;
#63 = PLANE ( 'NONE',  #424 ) ;
#64 = PRODUCT_DEFINITION_SHAPE ( 'NONE', 'NONE',  #651 ) ;
#65 = LINE ( 'NONE', #503, #5 ) ;
#66 = DIRECTION ( 'NONE',  ( 0.000000000000000000, -1.000000000000000000, 0.000000000000000000 ) ) ;
#67 = EDGE_CURVE ( 'NONE', #405, #335, #564, .T. ) ;
#68 = PRODUCT_DEFINITION_FORMATION_WITH_SPECIFIED_SOURCE ( 'Symmetric', '', #691, .NOT_KNOWN. ) ;
#69 = DIRECTION ( 'NONE',  ( 0.000000000000000000, 0.000000000000000000, 1.000000000000000000 ) ) ;
#70 = ORIENTED_EDGE ( 'NONE', *, *, #685, .F. ) ;
#71 = CYLINDRICAL_SURFACE ( 'NONE', #531, 1.500000000000000000 ) ;
#72 = ADVANCED_FACE ( 'NONE', ( #498 ), #244, .T. ) ;
#73 = LINE ( 'NONE', #650, #676 ) ;
#74 = VECTOR ( 'NONE', #35, 1000.000000000000000 ) ;
#75 = PLANE ( 'NONE',  #106 ) ;
#76 = CARTESIAN_POINT ( 'NONE',  ( 0.000000000000000000, 13.17542648054294752, -2.000000000000000000 ) ) ;
#77 = SURFACE_STYLE_USAGE ( .BOTH. , #398 ) ;
#78 = DIRECTION ( 'NONE',  ( 0.000000000000000000, 0.000000000000000000, -1.000000000000000000 ) ) ;
#79 = ORIENTED_EDGE ( 'NONE', *, *, #298, .T. ) ;
#80 = B_SPLINE_CURVE_WITH_KNOTS ( 'NONE', 3,
 ( #120, #591, #183, #4 ),
 .UNSPECIFIED., .F., .F.,
 ( 4, 4 ),
 ( 2.380742992382988670E-07, 0.001606744326298683613 ),
 .UNSPECIFIED. ) ;
#81 = ADVANCED_FACE ( 'NONE', ( #501 ), #12, .T. ) ;
#82 = DIRECTION ( 'NONE',  ( 0.000000000000000000, 0.000000000000000000, 1.000000000000000000 ) ) ;
#83 = UNCERTAINTY_MEASURE_WITH_UNIT (LENGTH_MEASURE( 1.000000000000000082E-05 ), #555, 'distance_accuracy_value', 'NONE');
#84 = FACE_OUTER_BOUND ( 'NONE', #409, .T. ) ;
#85 = VERTEX_POINT ( 'NONE', #181 ) ;
#86 = AXIS2_PLACEMENT_3D ( 'NONE', #554, #296, #17 ) ;
#87 = DIRECTION ( 'NONE',  ( -0.000000000000000000, -0.000000000000000000, 1.000000000000000000 ) ) ;
#88 = CARTESIAN_POINT ( 'NONE',  ( 0.000000000000000000, 0.000000000000000000, 0.000000000000000000 ) ) ;
#89 = ORIENTED_EDGE ( 'NONE', *, *, #514, .F. ) ;
#90 = DIRECTION ( 'NONE',  ( -1.000000000000000000, 0.000000000000000000, 0.000000000000000000 ) ) ;
#91 = B_SPLINE_CURVE_WITH_KNOTS ( 'NONE', 3,
 ( #95, #626, #479, #215, #580, #321 ),
 .UNSPECIFIED., .F., .F.,
 ( 4, 2, 4 ),
 ( 0.002832689070575953715, 0.003635789392948013052, 0.004438889715320072822 ),
 .UNSPECIFIED. ) ;
#92 = CARTESIAN_POINT ( 'NONE',  ( 8.673617379884035472E-16, 3.175426480542946628, -0.2456200930618653855 ) ) ;
#93 = ORIENTED_EDGE ( 'NONE', *, *, #19, .T. ) ;
#94 = AXIS2_PLACEMENT_3D ( 'NONE', #262, #268, #43 ) ;
#95 = CARTESIAN_POINT ( 'NONE',  ( -2.750000000000000000, -1.587713240271479975, -0.2456200930618653855 ) ) ;
#96 = MECHANICAL_DESIGN_GEOMETRIC_PRESENTATION_REPRESENTATION (  '', ( #400 ), #142 ) ;
#97 = PLANE ( 'NONE',  #191 ) ;
#98 = ADVANCED_FACE ( 'NONE', ( #397 ), #101, .T. ) ;
#99 = VERTEX_POINT ( 'NONE', #351 ) ;
#100 = LINE ( 'NONE', #517, #467 ) ;
#101 = CONICAL_SURFACE ( 'NONE', #16, 2.750000000000000444, 1.047197551196596743 ) ;
#102 = ORIENTED_EDGE ( 'NONE', *, *, #320, .T. ) ;
#103 = CARTESIAN_POINT ( 'NONE',  ( -0.4498622899576319445, -2.915698366337654335, -0.09566599640799805515 ) ) ;
#104 = VERTEX_POINT ( 'NONE', #602 ) ;
#105 = CARTESIAN_POINT ( 'NONE',  ( 0.000000000000000000, 0.000000000000000000, 0.000000000000000000 ) ) ;
#106 = AXIS2_PLACEMENT_3D ( 'NONE', #505, #246, #460 ) ;
#107 = EDGE_CURVE ( 'NONE', #655, #44, #73, .T. ) ;
#108 = ORIENTED_EDGE ( 'NONE', *, *, #23, .F. ) ;
#109 = CARTESIAN_POINT ( 'NONE',  ( 1.375000000000005329, 2.381569860407203532, 0.000000000000000000 ) ) ;
#110 = CARTESIAN_POINT ( 'NONE',  ( -2.750000000000000000, 1.587713240271467097, -2.000000000000000000 ) ) ;
#111 = ORIENTED_EDGE ( 'NONE', *, *, #107, .F. ) ;
#112 = DIRECTION ( 'NONE',  ( 1.000000000000000000, 0.000000000000000000, 0.000000000000000000 ) ) ;
#113 = EDGE_LOOP ( 'NONE', ( #54 ) ) ;
#114 = DIRECTION ( 'NONE',  ( -0.000000000000000000, -0.000000000000000000, 1.000000000000000000 ) ) ;
#115 = DIRECTION ( 'NONE',  ( 0.000000000000000000, 0.000000000000000000, -1.000000000000000000 ) ) ;
#116 = AXIS2_PLACEMENT_3D ( 'NONE', #371, #156, #414 ) ;
#117 = ORIENTED_EDGE ( 'NONE', *, *, #668, .F. ) ;
#118 = ADVANCED_FACE ( 'NONE', ( #404 ), #596, .T. ) ;
#119 = VERTEX_POINT ( 'NONE', #546 ) ;
#120 = CARTESIAN_POINT ( 'NONE',  ( -2.750000000000000000, 1.587713240271467097, -0.2456200930618652745 ) ) ;
#121 = PLANE ( 'NONE',  #578 ) ;
#122 = ORIENTED_EDGE ( 'NONE', *, *, #541, .F. ) ;
#123 = VERTEX_POINT ( 'NONE', #383 ) ;
#124 = CARTESIAN_POINT ( 'NONE',  ( 2.749999999999999112, 1.070896984529287943, -0.1097913889158304429 ) ) ;
#125 = CIRCLE ( 'NONE', #136, 2.750000000000000888 ) ;
#126 = CARTESIAN_POINT ( 'NONE',  ( -2.750000000000000000, 1.587713240271467097, -0.2456200930618652745 ) ) ;
#127 = EDGE_LOOP ( 'NONE', ( #117, #169, #161, #469, #484, #355 ) ) ;
#128 = PLANE ( 'NONE',  #448 ) ;
#129 = EDGE_CURVE ( 'NONE', #99, #655, #295, .T. ) ;
#130 = ORIENTED_EDGE ( 'NONE', *, *, #694, .T. ) ;
#131 = AXIS2_PLACEMENT_3D ( 'NONE', #551, #499, #112 ) ;
#132 = EDGE_LOOP ( 'NONE', ( #331, #111, #413, #521, #324, #666 ) ) ;
#133 = CARTESIAN_POINT ( 'NONE',  ( 1.375000000000004441, -2.381569860407203976, 0.000000000000000000 ) ) ;
#134 = DIRECTION ( 'NONE',  ( 0.000000000000000000, 0.000000000000000000, 1.000000000000000000 ) ) ;
#135 = CARTESIAN_POINT ( 'NONE',  ( 1.375000000000005329, 2.381569860407203532, 0.000000000000000000 ) ) ;
#136 = AXIS2_PLACEMENT_3D ( 'NONE', #289, #175, #3 ) ;
#137 = CARTESIAN_POINT ( 'NONE',  ( 2.750000000000001332, -1.587713240271479087, -0.2456200930618653855 ) ) ;
#138 = SURFACE_STYLE_FILL_AREA ( #513 ) ;
#139 = CARTESIAN_POINT ( 'NONE',  ( -1.141614847838146041, 2.516314840832715394, 1.858178528039120580E-15 ) ) ;
#140 = ORIENTED_EDGE ( 'NONE', *, *, #483, .T. ) ;
#141 = EDGE_CURVE ( 'NONE', #164, #590, #688, .T. ) ;
#142 =( GEOMETRIC_REPRESENTATION_CONTEXT ( 3 ) GLOBAL_UNCERTAINTY_ASSIGNED_CONTEXT ( ( #83 ) ) GLOBAL_UNIT_ASSIGNED_CONTEXT ( ( #555, #670, #656 ) ) REPRESENTATION_CONTEXT ( 'NONE', 'WORKASPACE' ) );
#143 = DIRECTION ( 'NONE',  ( -0.000000000000000000, -0.000000000000000000, 1.000000000000000000 ) ) ;
#144 = CARTESIAN_POINT ( 'NONE',  ( 0.000000000000000000, 3.175426480542946184, 0.000000000000000000 ) ) ;
#145 = ORIENTED_EDGE ( 'NONE', *, *, #62, .T. ) ;
#146 = AXIS2_PLACEMENT_3D ( 'NONE', #496, #654, #233 ) ;
#147 = DIRECTION ( 'NONE',  ( -1.000000000000000000, 0.000000000000000000, 0.000000000000000000 ) ) ;
#148 = LINE ( 'NONE', #362, #508 ) ;
#149 = EDGE_LOOP ( 'NONE', ( #682 ) ) ;
#150 = FACE_OUTER_BOUND ( 'NONE', #40, .T. ) ;
#151 = EDGE_CURVE ( 'NONE', #372, #104, #255, .T. ) ;
#152 = DIRECTION ( 'NONE',  ( -1.000000000000000000, 0.000000000000000000, -0.000000000000000000 ) ) ;
#153 = AXIS2_PLACEMENT_3D ( 'NONE', #426, #49, #421 ) ;
#154 = ORIENTED_EDGE ( 'NONE', *, *, #41, .F. ) ;
#155 = B_SPLINE_CURVE_WITH_KNOTS ( 'NONE', 3,
 ( #52, #330, #165, #535, #231, #442 ),
 .UNSPECIFIED., .F., .F.,
 ( 4, 2, 4 ),
 ( 0.001606744326298679493, 0.002406996759593250067, 0.003207249192887820857 ),
 .UNSPECIFIED. ) ;
#156 = DIRECTION ( 'NONE',  ( 0.000000000000000000, 0.000000000000000000, -1.000000000000000000 ) ) ;
#157 = CARTESIAN_POINT ( 'NONE',  ( 0.000000000000000000, 13.17542648054294752, -2.000000000000000000 ) ) ;
#158 = ORIENTED_EDGE ( 'NONE', *, *, #182, .T. ) ;
#159 = FACE_OUTER_BOUND ( 'NONE', #13, .T. ) ;
#160 = AXIS2_PLACEMENT_3D ( 'NONE', #605, #349, #339 ) ;
#161 = ORIENTED_EDGE ( 'NONE', *, *, #627, .F. ) ;
#162 = ADVANCED_FACE ( 'NONE', ( #253 ), #97, .T. ) ;
#163 = CARTESIAN_POINT ( 'NONE',  ( 0.000000000000000000, 0.000000000000000000, 0.000000000000000000 ) ) ;
#164 = VERTEX_POINT ( 'NONE', #202 ) ;
#165 = CARTESIAN_POINT ( 'NONE',  ( 0.9085346626517050161, -2.650883748492885328, -0.02351960456806586122 ) ) ;
#166 = ORIENTED_EDGE ( 'NONE', *, *, #67, .T. ) ;
#167 =( NAMED_UNIT ( * ) PLANE_ANGLE_UNIT ( ) SI_UNIT ( $, .RADIAN. ) );
#168 = AXIS2_PLACEMENT_3D ( 'NONE', #288, #9, #401 ) ;
#169 = ORIENTED_EDGE ( 'NONE', *, *, #520, .F. ) ;
#170 = CARTESIAN_POINT ( 'NONE',  ( 0.000000000000000000, 0.000000000000000000, -2.000000000000000888 ) ) ;
#171 = AXIS2_PLACEMENT_3D ( 'NONE', #105, #311, #323 ) ;
#172 = CARTESIAN_POINT ( 'NONE',  ( 0.000000000000000000, 0.000000000000000000, -2.374599999999997380 ) ) ;
#173 = ADVANCED_FACE ( 'NONE', ( #84 ), #464, .T. ) ;
#174 = EDGE_LOOP ( 'NONE', ( #93 ) ) ;
#175 = DIRECTION ( 'NONE',  ( -0.000000000000000000, -0.000000000000000000, 1.000000000000000000 ) ) ;
#176 = CARTESIAN_POINT ( 'NONE',  ( 2.750000000000001332, -1.587713240271479087, -0.2456200930618653855 ) ) ;
#177 = CIRCLE ( 'NONE', #222, 2.750000000000000888 ) ;
#178 = CARTESIAN_POINT ( 'NONE',  ( 0.000000000000000000, 13.17542648054294752, -2.000000000000000000 ) ) ;
#179 = CARTESIAN_POINT ( 'NONE',  ( 2.749999999999999112, -0.5348566131068006602, -0.02306174136865313945 ) ) ;
#180 = DIRECTION ( 'NONE',  ( -0.8660254037844375974, -0.5000000000000018874, 0.000000000000000000 ) ) ;
#181 = CARTESIAN_POINT ( 'NONE',  ( -2.750000000000000000, 0.000000000000000000, -2.000000000000000888 ) ) ;
#182 = EDGE_CURVE ( 'NONE', #420, #203, #680, .T. ) ;
#183 = CARTESIAN_POINT ( 'NONE',  ( -1.843520544858954002, 2.111069397712018514, 1.786220834985613061E-15 ) ) ;
#184 = DIRECTION ( 'NONE',  ( 0.000000000000000000, -0.000000000000000000, 1.000000000000000000 ) ) ;
#185 = EDGE_CURVE ( 'NONE', #85, #187, #304, .T. ) ;
#186 = DIRECTION ( 'NONE',  ( 1.000000000000000000, 0.000000000000000000, 0.000000000000000000 ) ) ;
#187 = VERTEX_POINT ( 'NONE', #263 ) ;
#188 = AXIS2_PLACEMENT_3D ( 'NONE', #377, #78, #300 ) ;
#189 = CARTESIAN_POINT ( 'NONE',  ( -2.299387885565526091, -1.847874265840328212, -0.1090894304641107371 ) ) ;
#190 = DIRECTION ( 'NONE',  ( -1.000000000000000000, 0.000000000000000000, 0.000000000000000000 ) ) ;
#191 = AXIS2_PLACEMENT_3D ( 'NONE', #523, #365, #39 ) ;
#192 = APPLICATION_PROTOCOL_DEFINITION ( 'draft international standard', 'automotive_design', 1998, #243 ) ;
#193 = CARTESIAN_POINT ( 'NONE',  ( -2.750000000000000000, -1.587713240271479975, -0.2456200930618653855 ) ) ;
#194 = EDGE_CURVE ( 'NONE', #267, #487, #284, .T. ) ;
#195 = CARTESIAN_POINT ( 'NONE',  ( 1.375000000000005329, 2.381569860407203532, 0.000000000000000000 ) ) ;
#196 = ORIENTED_EDGE ( 'NONE', *, *, #627, .T. ) ;
#197 = B_SPLINE_CURVE_WITH_KNOTS ( 'NONE', 3,
 ( #560, #299, #352, #189, #396, #193 ),
 .UNSPECIFIED., .F., .F.,
 ( 4, 2, 4 ),
 ( 0.001606744326298700310, 0.002406996759593255705, 0.003207249192887810883 ),
 .UNSPECIFIED. ) ;
#198 = FILL_AREA_STYLE_COLOUR ( '', #314 ) ;
#199 = PLANE ( 'NONE',  #675 ) ;
#200 = ORIENTED_EDGE ( 'NONE', *, *, #592, .F. ) ;
#201 = CARTESIAN_POINT ( 'NONE',  ( -1.626303258728256651E-14, -3.175426480542946184, -0.2456200930618653855 ) ) ;
#202 = CARTESIAN_POINT ( 'NONE',  ( -1.375000000000005329, 2.381569860407203532, 0.000000000000000000 ) ) ;
#203 = VERTEX_POINT ( 'NONE', #614 ) ;
#204 = EDGE_CURVE ( 'NONE', #385, #85, #473, .T. ) ;
#205 = DIRECTION ( 'NONE',  ( 0.000000000000000000, 0.000000000000000000, 1.000000000000000000 ) ) ;
#206 = FACE_OUTER_BOUND ( 'NONE', #360, .T. ) ;
#207 = ORIENTED_EDGE ( 'NONE', *, *, #204, .T. ) ;
#208 = CARTESIAN_POINT ( 'NONE',  ( -1.375000000000004441, -2.381569860407203976, 0.000000000000000000 ) ) ;
#209 = FACE_BOUND ( 'NONE', #113, .T. ) ;
#210 = ORIENTED_EDGE ( 'NONE', *, *, #280, .T. ) ;
#211 = CONICAL_SURFACE ( 'NONE', #537, 2.750000000000000444, 1.047197551196596743 ) ;
#212 = DIRECTION ( 'NONE',  ( 0.000000000000000000, 0.000000000000000000, 1.000000000000000000 ) ) ;
#213 = EDGE_CURVE ( 'NONE', #104, #590, #518, .T. ) ;
#214 = EDGE_LOOP ( 'NONE', ( #382 ) ) ;
#215 = CARTESIAN_POINT ( 'NONE',  ( -2.749999999999999112, -0.5348566131068011043, -0.02306174136865331639 ) ) ;
#216 = VECTOR ( 'NONE', #561, 1000.000000000000000 ) ;
#217 = ORIENTED_EDGE ( 'NONE', *, *, #661, .F. ) ;
#218 = APPLICATION_CONTEXT ( 'automotive_design' ) ;
#219 =( NAMED_UNIT ( * ) SI_UNIT ( $, .STERADIAN. ) SOLID_ANGLE_UNIT ( ) );
#220 = ORIENTED_EDGE ( 'NONE', *, *, #456, .T. ) ;
#221 = LINE ( 'NONE', #690, #692 ) ;
#222 = AXIS2_PLACEMENT_3D ( 'NONE', #254, #604, #20 ) ;
#223 = CARTESIAN_POINT ( 'NONE',  ( 2.750000000000000000, 1.587713240271479975, -0.2456200930618653855 ) ) ;
#224 = CONICAL_SURFACE ( 'NONE', #671, 2.750000000000000444, 1.047197551196596743 ) ;
#225 = ORIENTED_EDGE ( 'NONE', *, *, #62, .F. ) ;
#226 = DIRECTION ( 'NONE',  ( 1.000000000000000000, 0.000000000000000000, 0.000000000000000000 ) ) ;
#227 = ADVANCED_FACE ( 'NONE', ( #209, #206 ), #199, .F. ) ;
#228 = FACE_OUTER_BOUND ( 'NONE', #634, .T. ) ;
#229 = CIRCLE ( 'NONE', #168, 1.500000000000000000 ) ;
#230 = ORIENTED_EDGE ( 'NONE', *, *, #632, .T. ) ;
#231 = CARTESIAN_POINT ( 'NONE',  ( 0.2243700767916216587, -3.045886356309215337, -0.1708300674639858518 ) ) ;
#232 = CARTESIAN_POINT ( 'NONE',  ( 0.000000000000000000, 0.000000000000000000, -2.399999999999999911 ) ) ;
#233 = DIRECTION ( 'NONE',  ( -1.000000000000000000, 0.000000000000000000, 0.000000000000000000 ) ) ;
#234 = CARTESIAN_POINT ( 'NONE',  ( 0.9064794551410535473, 2.652070323102390770, 1.883495110870475301E-15 ) ) ;
#235 = FACE_OUTER_BOUND ( 'NONE', #319, .T. ) ;
#236 = AXIS2_PLACEMENT_3D ( 'NONE', #307, #143, #186 ) ;
#237 = ADVANCED_FACE ( 'NONE', ( #509 ), #419, .T. ) ;
#238 = EDGE_LOOP ( 'NONE', ( #230, #225, #302 ) ) ;
#239 = ORIENTED_EDGE ( 'NONE', *, *, #41, .T. ) ;
#240 = CARTESIAN_POINT ( 'NONE',  ( 2.750000000000000000, 1.587713240271479975, -0.2456200930618653855 ) ) ;
#241 = DIRECTION ( 'NONE',  ( -1.000000000000000000, 0.000000000000000000, -0.000000000000000000 ) ) ;
#242 = FACE_OUTER_BOUND ( 'NONE', #264, .T. ) ;
#243 = APPLICATION_CONTEXT ( 'automotive_design' ) ;
#244 = PLANE ( 'NONE',  #463 ) ;
#245 = VERTEX_POINT ( 'NONE', #565 ) ;
#246 = DIRECTION ( 'NONE',  ( 0.000000000000000000, 0.000000000000000000, -1.000000000000000000 ) ) ;
#247 = VECTOR ( 'NONE', #270, 1000.000000000000000 ) ;
#248 = CARTESIAN_POINT ( 'NONE',  ( 0.000000000000000000, 13.17542648054294752, -2.000000000000000000 ) ) ;
#249 = CIRCLE ( 'NONE', #188, 1.250000000000000000 ) ;
#250 = ORIENTED_EDGE ( 'NONE', *, *, #129, .T. ) ;
#251 = FACE_OUTER_BOUND ( 'NONE', #455, .T. ) ;
#252 = EDGE_CURVE ( 'NONE', #104, #587, #148, .T. ) ;
#253 = FACE_OUTER_BOUND ( 'NONE', #631, .T. ) ;
#254 = CARTESIAN_POINT ( 'NONE',  ( 0.000000000000000000, 0.000000000000000000, -2.000000000000000888 ) ) ;
#255 = LINE ( 'NONE', #677, #453 ) ;
#256 = ORIENTED_EDGE ( 'NONE', *, *, #514, .T. ) ;
#257 = FACE_OUTER_BOUND ( 'NONE', #149, .T. ) ;
#258 = CARTESIAN_POINT ( 'NONE',  ( 2.750000000000000000, 1.587713240271466875, -2.000000000000000000 ) ) ;
#259 = EDGE_CURVE ( 'NONE', #615, #372, #312, .T. ) ;
#260 = ORIENTED_EDGE ( 'NONE', *, *, #194, .F. ) ;
#261 = AXIS2_PLACEMENT_3D ( 'NONE', #595, #384, #14 ) ;
#262 = CARTESIAN_POINT ( 'NONE',  ( 0.000000000000000000, 0.000000000000000000, -2.399999999999999911 ) ) ;
#263 = CARTESIAN_POINT ( 'NONE',  ( -2.750000000000000000, -1.587713240271477755, -2.000000000000000000 ) ) ;
#264 = EDGE_LOOP ( 'NONE', ( #305 ) ) ;
#265 = CARTESIAN_POINT ( 'NONE',  ( 8.673617379884035472E-16, 3.175426480542946628, -0.2456200930618653855 ) ) ;
#266 = CARTESIAN_POINT ( 'NONE',  ( -1.676917305793523698E-16, 3.175426480542946184, -2.399999999999999911 ) ) ;
#267 = VERTEX_POINT ( 'NONE', #624 ) ;
#268 = DIRECTION ( 'NONE',  ( 0.000000000000000000, 0.000000000000000000, 1.000000000000000000 ) ) ;
#269 = ORIENTED_EDGE ( 'NONE', *, *, #141, .T. ) ;
#270 = DIRECTION ( 'NONE',  ( 0.8660254037844377084, -0.5000000000000016653, 0.000000000000000000 ) ) ;
#271 = CIRCLE ( 'NONE', #47, 2.750000000000000888 ) ;
#272 = EDGE_CURVE ( 'NONE', #594, #594, #249, .T. ) ;
#273 = VECTOR ( 'NONE', #470, 1000.000000000000000 ) ;
#274 = ORIENTED_EDGE ( 'NONE', *, *, #185, .T. ) ;
#275 = CARTESIAN_POINT ( 'NONE',  ( 0.000000000000000000, 0.000000000000000000, 0.000000000000000000 ) ) ;
#276 = VERTEX_POINT ( 'NONE', #665 ) ;
#277 = VERTEX_POINT ( 'NONE', #597 ) ;
#278 = CARTESIAN_POINT ( 'NONE',  ( 0.000000000000000000, 13.17542648054294752, -2.000000000000000000 ) ) ;
#279 = ORIENTED_EDGE ( 'NONE', *, *, #151, .T. ) ;
#280 = EDGE_CURVE ( 'NONE', #487, #245, #430, .T. ) ;
#281 = CARTESIAN_POINT ( 'NONE',  ( 0.000000000000000000, 0.000000000000000000, -2.000000000000000888 ) ) ;
#282 = ORIENTED_EDGE ( 'NONE', *, *, #422, .F. ) ;
#283 = CARTESIAN_POINT ( 'NONE',  ( 2.750000000000000000, 1.587713240271466875, -2.000000000000000000 ) ) ;
#284 = CIRCLE ( 'NONE', #370, 2.750000000000000444 ) ;
#285 = ORIENTED_EDGE ( 'NONE', *, *, #541, .T. ) ;
#286 = CARTESIAN_POINT ( 'NONE',  ( 2.750000000000000444, 0.5405639250603703205, -0.02369969086895139937 ) ) ;
#287 = ADVANCED_FACE ( 'NONE', ( #235 ), #56, .T. ) ;
#288 = CARTESIAN_POINT ( 'NONE',  ( 0.000000000000000000, 0.000000000000000000, -2.399999999999999467 ) ) ;
#289 = CARTESIAN_POINT ( 'NONE',  ( 0.000000000000000000, 0.000000000000000000, -2.000000000000000888 ) ) ;
#290 = DIRECTION ( 'NONE',  ( 0.000000000000000000, 0.000000000000000000, -1.000000000000000000 ) ) ;
#291 = CIRCLE ( 'NONE', #261, 1.250000000000000000 ) ;
#292 = CARTESIAN_POINT ( 'NONE',  ( 0.000000000000000000, 0.000000000000000000, 0.000000000000000000 ) ) ;
#293 = CARTESIAN_POINT ( 'NONE',  ( 0.000000000000000000, 0.000000000000000000, -25.03750572909317285 ) ) ;
#294 = CIRCLE ( 'NONE', #664, 2.750000000000000000 ) ;
#295 = LINE ( 'NONE', #258, #74 ) ;
#296 = DIRECTION ( 'NONE',  ( -0.000000000000000000, -0.000000000000000000, 1.000000000000000000 ) ) ;
#297 = PRODUCT_CONTEXT ( 'NONE', #218, 'mechanical' ) ;
#298 = EDGE_CURVE ( 'NONE', #44, #465, #338, .T. ) ;
#299 = CARTESIAN_POINT ( 'NONE',  ( -1.608385152161865506, -2.246824879981702328, -3.278017505874141129E-15 ) ) ;
#300 = DIRECTION ( 'NONE',  ( 1.000000000000000000, 0.000000000000000000, 0.000000000000000000 ) ) ;
#301 = CONICAL_SURFACE ( 'NONE', #519, 1.500000000000000222, 0.9599310885968843632 ) ;
#302 = ORIENTED_EDGE ( 'NONE', *, *, #298, .F. ) ;
#303 = ADVANCED_FACE ( 'NONE', ( #381 ), #63, .T. ) ;
#304 = LINE ( 'NONE', #511, #416 ) ;
#305 = ORIENTED_EDGE ( 'NONE', *, *, #368, .T. ) ;
#306 = B_SPLINE_CURVE_WITH_KNOTS ( 'NONE', 3,
 ( #648, #633, #585, #179, #642, #61 ),
 .UNSPECIFIED., .F., .F.,
 ( 4, 2, 4 ),
 ( 0.002832689070575954583, 0.003635789392948013919, 0.004438889715320072822 ),
 .UNSPECIFIED. ) ;
#307 = CARTESIAN_POINT ( 'NONE',  ( 0.000000000000000000, 0.000000000000000000, 0.000000000000000000 ) ) ;
#308 = EDGE_CURVE ( 'NONE', #587, #385, #495, .T. ) ;
#309 = DIRECTION ( 'NONE',  ( 1.000000000000000000, 0.000000000000000000, 0.000000000000000000 ) ) ;
#310 = ORIENTED_EDGE ( 'NONE', *, *, #348, .T. ) ;
#311 = DIRECTION ( 'NONE',  ( 0.000000000000000000, 0.000000000000000000, -1.000000000000000000 ) ) ;
#312 = LINE ( 'NONE', #621, #583 ) ;
#313 = ORIENTED_EDGE ( 'NONE', *, *, #685, .T. ) ;
#314 = COLOUR_RGB ( '',0.7921568627450980005, 0.8196078431372548767, 0.9333333333333333481 ) ;
#315 = FACE_OUTER_BOUND ( 'NONE', #490, .T. ) ;
#316 = CARTESIAN_POINT ( 'NONE',  ( -1.375000000000005329, 2.381569860407203532, 0.000000000000000000 ) ) ;
#317 = ORIENTED_EDGE ( 'NONE', *, *, #213, .F. ) ;
#318 = CARTESIAN_POINT ( 'NONE',  ( -2.750000000000000000, 1.587713240271467097, -0.2456200930618652745 ) ) ;
#319 = EDGE_LOOP ( 'NONE', ( #566, #427, #584 ) ) ;
#320 = EDGE_CURVE ( 'NONE', #267, #245, #438, .T. ) ;
#321 = CARTESIAN_POINT ( 'NONE',  ( -2.750000000000000444, 0.000000000000000000, 0.000000000000000000 ) ) ;
#322 = ORIENTED_EDGE ( 'NONE', *, *, #280, .F. ) ;
#323 = DIRECTION ( 'NONE',  ( -1.000000000000000000, 0.000000000000000000, 0.000000000000000000 ) ) ;
#324 = ORIENTED_EDGE ( 'NONE', *, *, #589, .T. ) ;
#325 = VERTEX_POINT ( 'NONE', #379 ) ;
#326 = DIRECTION ( 'NONE',  ( -1.000000000000000000, 0.000000000000000000, 0.000000000000000000 ) ) ;
#327 = EDGE_CURVE ( 'NONE', #119, #119, #291, .T. ) ;
#328 = ORIENTED_EDGE ( 'NONE', *, *, #185, .F. ) ;
#329 = ADVANCED_BREP_SHAPE_REPRESENTATION ( 'ISO - 4032 - M3 - W - N_ISO - 4032 - M3 - W - N', ( #446, #646 ), #387 ) ;
#330 = CARTESIAN_POINT ( 'NONE',  ( 1.141614847838147373, -2.516314840832723831, -3.319945636763228996E-15 ) ) ;
#331 = ORIENTED_EDGE ( 'NONE', *, *, #632, .F. ) ;
#332 = VERTEX_POINT ( 'NONE', #488 ) ;
#333 = CARTESIAN_POINT ( 'NONE',  ( 2.750000000000000000, 1.330988860919485983, -0.1715101482986583770 ) ) ;
#334 = VECTOR ( 'NONE', #667, 1000.000000000000000 ) ;
#335 = VERTEX_POINT ( 'NONE', #341 ) ;
#336 = LINE ( 'NONE', #283, #441 ) ;
#337 = CARTESIAN_POINT ( 'NONE',  ( 1.843520544858955335, -2.111069397712027396, -3.259993543321607409E-15 ) ) ;
#338 = B_SPLINE_CURVE_WITH_KNOTS ( 'NONE', 3,
 ( #176, #599, #337, #547 ),
 .UNSPECIFIED., .F., .F.,
 ( 4, 4 ),
 ( 2.380742992381838029E-07, 0.001606744326298679493 ),
 .UNSPECIFIED. ) ;
#339 = DIRECTION ( 'NONE',  ( -1.000000000000000000, 0.000000000000000000, 0.000000000000000000 ) ) ;
#340 = CARTESIAN_POINT ( 'NONE',  ( 1.250000000000000000, 0.000000000000000000, -0.1750518845524287326 ) ) ;
#341 = CARTESIAN_POINT ( 'NONE',  ( -1.375000000000004441, -2.381569860407203976, 0.000000000000000000 ) ) ;
#342 = CARTESIAN_POINT ( 'NONE',  ( 2.750000000000000000, 1.587713240271466875, -2.399999999999999911 ) ) ;
#343 = AXIS2_PLACEMENT_3D ( 'NONE', #278, #290, #544 ) ;
#344 = FACE_OUTER_BOUND ( 'NONE', #440, .T. ) ;
#345 = B_SPLINE_CURVE_WITH_KNOTS ( 'NONE', 3,
 ( #429, #567, #674, #687, #629, #318 ),
 .UNSPECIFIED., .F., .F.,
 ( 4, 2, 4 ),
 ( 0.004438889715320072822, 0.005242467187915809436, 0.006046044660511546050 ),
 .UNSPECIFIED. ) ;
#346 = FACE_BOUND ( 'NONE', #174, .T. ) ;
#347 = AXIS2_PLACEMENT_3D ( 'NONE', #445, #450, #69 ) ;
#348 = EDGE_CURVE ( 'NONE', #420, #6, #22, .T. ) ;
#349 = DIRECTION ( 'NONE',  ( 0.000000000000000000, -0.000000000000000000, 1.000000000000000000 ) ) ;
#350 = FACE_OUTER_BOUND ( 'NONE', #378, .T. ) ;
#351 = CARTESIAN_POINT ( 'NONE',  ( 2.750000000000000000, 0.000000000000000000, -2.000000000000000888 ) ) ;
#352 = CARTESIAN_POINT ( 'NONE',  ( -1.841465337348304088, -2.112255972321543496, -0.02351960456806470590 ) ) ;
#353 = VECTOR ( 'NONE', #212, 1000.000000000000000 ) ;
#354 = CARTESIAN_POINT ( 'NONE',  ( -2.750000000000000000, -1.587713240271477755, -2.000000000000000000 ) ) ;
#355 = ORIENTED_EDGE ( 'NONE', *, *, #356, .F. ) ;
#356 = EDGE_CURVE ( 'NONE', #587, #85, #575, .T. ) ;
#357 = DIRECTION ( 'NONE',  ( 1.000000000000000000, 0.000000000000000000, 0.000000000000000000 ) ) ;
#358 = DIRECTION ( 'NONE',  ( -1.000000000000000000, 0.000000000000000000, 0.000000000000000000 ) ) ;
#359 = CLOSED_SHELL ( 'NONE', ( #494, #568, #11, #444, #303, #162, #81, #227, #475, #287, #173, #72, #237, #118, #449, #46, #529, #390, #510, #607, #559, #98, #616, #399, #432 ) ) ;
#360 = EDGE_LOOP ( 'NONE', ( #140, #166, #239, #145, #534, #576 ) ) ;
#361 = LINE ( 'NONE', #364, #247 ) ;
#362 = CARTESIAN_POINT ( 'NONE',  ( -1.676917305793523698E-16, 3.175426480542946184, -2.000000000000000000 ) ) ;
#363 = VERTEX_POINT ( 'NONE', #652 ) ;
#364 = CARTESIAN_POINT ( 'NONE',  ( -2.750000000000000000, -1.587713240271477755, -2.000000000000000000 ) ) ;
#365 = DIRECTION ( 'NONE',  ( -0.5000000000000016653, -0.8660254037844377084, 0.000000000000000000 ) ) ;
#366 = EDGE_LOOP ( 'NONE', ( #669, #417, #628 ) ) ;
#367 = CARTESIAN_POINT ( 'NONE',  ( -1.676917305793523698E-16, 3.175426480542946184, -2.399999999999999911 ) ) ;
#368 = EDGE_CURVE ( 'NONE', #325, #325, #271, .T. ) ;
#369 = ORIENTED_EDGE ( 'NONE', *, *, #213, .T. ) ;
#370 = AXIS2_PLACEMENT_3D ( 'NONE', #88, #28, #309 ) ;
#371 = CARTESIAN_POINT ( 'NONE',  ( 0.000000000000000000, 0.000000000000000000, 0.000000000000000000 ) ) ;
#372 = VERTEX_POINT ( 'NONE', #53 ) ;
#373 = CARTESIAN_POINT ( 'NONE',  ( 0.000000000000000000, 0.000000000000000000, 0.000000000000000000 ) ) ;
#374 = ORIENTED_EDGE ( 'NONE', *, *, #182, .F. ) ;
#375 = CARTESIAN_POINT ( 'NONE',  ( 0.4498622899576197320, 2.915698366337651226, -0.09566599640799523796 ) ) ;
#376 = EDGE_CURVE ( 'NONE', #32, #164, #80, .T. ) ;
#377 = CARTESIAN_POINT ( 'NONE',  ( 0.000000000000000000, 0.000000000000000000, -0.1750518845524287326 ) ) ;
#378 = EDGE_LOOP ( 'NONE', ( #474 ) ) ;
#379 = CARTESIAN_POINT ( 'NONE',  ( -2.750000000000000888, 0.000000000000000000, -2.399999999999999911 ) ) ;
#380 = AXIS2_PLACEMENT_3D ( 'NONE', #76, #548, #241 ) ;
#381 = FACE_OUTER_BOUND ( 'NONE', #60, .T. ) ;
#382 = ORIENTED_EDGE ( 'NONE', *, *, #327, .T. ) ;
#383 = CARTESIAN_POINT ( 'NONE',  ( 1.500000000000000222, 0.000000000000000000, -2.374599999999997380 ) ) ;
#384 = DIRECTION ( 'NONE',  ( -0.000000000000000000, -0.000000000000000000, 1.000000000000000000 ) ) ;
#385 = VERTEX_POINT ( 'NONE', #110 ) ;
#386 = CARTESIAN_POINT ( 'NONE',  ( 8.673617379884035472E-16, 3.175426480542946628, -0.2456200930618653855 ) ) ;
#387 =( GEOMETRIC_REPRESENTATION_CONTEXT ( 3 ) GLOBAL_UNCERTAINTY_ASSIGNED_CONTEXT ( ( #411 ) ) GLOBAL_UNIT_ASSIGNED_CONTEXT ( ( #497, #167, #219 ) ) REPRESENTATION_CONTEXT ( 'NONE', 'WORKASPACE' ) );
#388 = DIRECTION ( 'NONE',  ( 0.8660254037844377084, 0.5000000000000015543, 0.000000000000000000 ) ) ;
#389 = DIRECTION ( 'NONE',  ( 0.000000000000000000, 0.000000000000000000, -1.000000000000000000 ) ) ;
#390 = ADVANCED_FACE ( 'NONE', ( #228 ), #224, .T. ) ;
#391 = ORIENTED_EDGE ( 'NONE', *, *, #19, .F. ) ;
#392 = DIRECTION ( 'NONE',  ( 0.000000000000000000, 0.000000000000000000, 1.000000000000000000 ) ) ;
#393 = CARTESIAN_POINT ( 'NONE',  ( 2.750000000000000444, 0.000000000000000000, 0.000000000000000000 ) ) ;
#394 = EDGE_LOOP ( 'NONE', ( #641 ) ) ;
#395 = AXIS2_PLACEMENT_3D ( 'NONE', #170, #114, #493 ) ;
#396 = CARTESIAN_POINT ( 'NONE',  ( -2.525629923208374539, -1.717253364505220370, -0.1708300674639793848 ) ) ;
#397 = FACE_OUTER_BOUND ( 'NONE', #366, .T. ) ;
#398 = SURFACE_SIDE_STYLE ('',( #138 ) ) ;
#399 = ADVANCED_FACE ( 'NONE', ( #59, #1 ), #301, .F. ) ;
#400 = STYLED_ITEM ( 'NONE', ( #601 ), #446 ) ;
#401 = DIRECTION ( 'NONE',  ( -1.000000000000000000, 0.000000000000000000, 0.000000000000000000 ) ) ;
#402 = DIRECTION ( 'NONE',  ( 0.000000000000000000, -0.000000000000000000, 1.000000000000000000 ) ) ;
#403 = CIRCLE ( 'NONE', #86, 1.500000000000000222 ) ;
#404 = FACE_OUTER_BOUND ( 'NONE', #29, .T. ) ;
#405 = VERTEX_POINT ( 'NONE', #643 ) ;
#406 = CARTESIAN_POINT ( 'NONE',  ( -1.375000000000009104, -2.381569860407211081, -2.000000000000000888 ) ) ;
#407 = CARTESIAN_POINT ( 'NONE',  ( 1.608385152161861065, 2.246824879981693002, 1.907729955453497150E-15 ) ) ;
#408 = EDGE_CURVE ( 'NONE', #335, #363, #197, .T. ) ;
#409 = EDGE_LOOP ( 'NONE', ( #250, #545, #196 ) ) ;
#410 = FACE_OUTER_BOUND ( 'NONE', #132, .T. ) ;
#411 = UNCERTAINTY_MEASURE_WITH_UNIT (LENGTH_MEASURE( 1.000000000000000082E-05 ), #497, 'distance_accuracy_value', 'NONE');
#412 = CARTESIAN_POINT ( 'NONE',  ( -0.9085346626517054602, 2.650883748492876446, -0.02351960456806051133 ) ) ;
#413 = ORIENTED_EDGE ( 'NONE', *, *, #129, .F. ) ;
#414 = DIRECTION ( 'NONE',  ( -1.000000000000000000, 0.000000000000000000, 0.000000000000000000 ) ) ;
#415 = DIRECTION ( 'NONE',  ( -1.000000000000000000, 0.000000000000000000, -0.000000000000000000 ) ) ;
#416 = VECTOR ( 'NONE', #618, 1000.000000000000000 ) ;
#417 = ORIENTED_EDGE ( 'NONE', *, *, #552, .F. ) ;
#418 = FACE_OUTER_BOUND ( 'NONE', #48, .T. ) ;
#419 = PLANE ( 'NONE',  #38 ) ;
#420 = VERTEX_POINT ( 'NONE', #406 ) ;
#421 = DIRECTION ( 'NONE',  ( 1.000000000000000000, 0.000000000000000000, 0.000000000000000000 ) ) ;
#422 = EDGE_CURVE ( 'NONE', #203, #6, #609, .T. ) ;
#423 = DIRECTION ( 'NONE',  ( -0.8660254037844375974, 0.5000000000000018874, 0.000000000000000000 ) ) ;
#424 = AXIS2_PLACEMENT_3D ( 'NONE', #649, #452, #388 ) ;
#425 = EDGE_LOOP ( 'NONE', ( #108 ) ) ;
#426 = CARTESIAN_POINT ( 'NONE',  ( 0.000000000000000000, 0.000000000000000000, -2.000000000000000888 ) ) ;
#427 = ORIENTED_EDGE ( 'NONE', *, *, #520, .T. ) ;
#428 = AXIS2_PLACEMENT_3D ( 'NONE', #478, #31, #152 ) ;
#429 = CARTESIAN_POINT ( 'NONE',  ( -2.750000000000000444, 0.000000000000000000, 0.000000000000000000 ) ) ;
#430 = B_SPLINE_CURVE_WITH_KNOTS ( 'NONE', 3,
 ( #195, #407, #636, #586, #10, #240 ),
 .UNSPECIFIED., .F., .F.,
 ( 4, 2, 4 ),
 ( 0.001606744326298696623, 0.002406996759593252235, 0.003207249192887807847 ),
 .UNSPECIFIED. ) ;
#431 = ORIENTED_EDGE ( 'NONE', *, *, #272, .F. ) ;
#432 = ADVANCED_FACE ( 'NONE', ( #557, #257 ), #71, .F. ) ;
#433 = DIRECTION ( 'NONE',  ( 1.000000000000000000, 0.000000000000000000, 0.000000000000000000 ) ) ;
#434 = EDGE_LOOP ( 'NONE', ( #369, #313, #210, #689, #451, #279 ) ) ;
#435 = CARTESIAN_POINT ( 'NONE',  ( -2.750000000000000000, 1.587713240271467097, -2.399999999999999911 ) ) ;
#436 = ORIENTED_EDGE ( 'NONE', *, *, #141, .F. ) ;
#437 = CIRCLE ( 'NONE', #160, 2.750000000000000000 ) ;
#438 = B_SPLINE_CURVE_WITH_KNOTS ( 'NONE', 3,
 ( #393, #489, #286, #124, #333, #223 ),
 .UNSPECIFIED., .F., .F.,
 ( 4, 2, 4 ),
 ( 0.004438889715320072822, 0.005242467187915815507, 0.006046044660511559060 ),
 .UNSPECIFIED. ) ;
#439 = DIRECTION ( 'NONE',  ( 0.000000000000000000, 0.000000000000000000, -1.000000000000000000 ) ) ;
#440 = EDGE_LOOP ( 'NONE', ( #328, #220, #122 ) ) ;
#441 = VECTOR ( 'NONE', #66, 1000.000000000000000 ) ;
#442 = CARTESIAN_POINT ( 'NONE',  ( -1.626303258728256651E-14, -3.175426480542946184, -0.2456200930618653855 ) ) ;
#443 = DIRECTION ( 'NONE',  ( -1.000000000000000000, 0.000000000000000000, 0.000000000000000000 ) ) ;
#444 = ADVANCED_FACE ( 'NONE', ( #410 ), #128, .F. ) ;
#445 = CARTESIAN_POINT ( 'NONE',  ( -2.750000000000000000, 1.587713240271467097, -2.399999999999999911 ) ) ;
#446 = MANIFOLD_SOLID_BREP ( 'EndChamfer', #359 ) ;
#447 = CARTESIAN_POINT ( 'NONE',  ( -1.676917305793523698E-16, 3.175426480542946184, -2.000000000000000000 ) ) ;
#448 = AXIS2_PLACEMENT_3D ( 'NONE', #502, #563, #82 ) ;
#449 = ADVANCED_FACE ( 'NONE', ( #242, #507 ), #26, .T. ) ;
#450 = DIRECTION ( 'NONE',  ( -1.000000000000000000, 0.000000000000000000, 0.000000000000000000 ) ) ;
#451 = ORIENTED_EDGE ( 'NONE', *, *, #259, .T. ) ;
#452 = DIRECTION ( 'NONE',  ( 0.5000000000000016653, -0.8660254037844378194, 0.000000000000000000 ) ) ;
#453 = VECTOR ( 'NONE', #672, 999.9999999999998863 ) ;
#454 = DIRECTION ( 'NONE',  ( -1.000000000000000000, 0.000000000000000000, -0.000000000000000000 ) ) ;
#455 = EDGE_LOOP ( 'NONE', ( #51 ) ) ;
#456 = EDGE_CURVE ( 'NONE', #85, #420, #177, .T. ) ;
#457 = EDGE_LOOP ( 'NONE', ( #481, #524, #516 ) ) ;
#458 = ORIENTED_EDGE ( 'NONE', *, *, #356, .T. ) ;
#459 = CIRCLE ( 'NONE', #153, 2.750000000000000888 ) ;
#460 = DIRECTION ( 'NONE',  ( -1.000000000000000000, 0.000000000000000000, 0.000000000000000000 ) ) ;
#461 = DIRECTION ( 'NONE',  ( 0.8660254037844378194, 0.5000000000000015543, 0.000000000000000000 ) ) ;
#462 = DIRECTION ( 'NONE',  ( 0.8660254037844378194, 0.5000000000000015543, 0.000000000000000000 ) ) ;
#463 = AXIS2_PLACEMENT_3D ( 'NONE', #178, #506, #21 ) ;
#464 = PLANE ( 'NONE',  #428 ) ;
#465 = VERTEX_POINT ( 'NONE', #133 ) ;
#466 = SHAPE_DEFINITION_REPRESENTATION ( #64, #329 ) ;
#467 = VECTOR ( 'NONE', #205, 1000.000000000000000 ) ;
#468 = CARTESIAN_POINT ( 'NONE',  ( -2.750000000000000000, 1.587713240271467097, -2.000000000000000000 ) ) ;
#469 = ORIENTED_EDGE ( 'NONE', *, *, #348, .F. ) ;
#470 = DIRECTION ( 'NONE',  ( 0.000000000000000000, 0.000000000000000000, 1.000000000000000000 ) ) ;
#471 = EDGE_LOOP ( 'NONE', ( #130, #686, #625, #637, #207, #274 ) ) ;
#472 = CARTESIAN_POINT ( 'NONE',  ( 0.000000000000000000, 0.000000000000000000, 0.000000000000000000 ) ) ;
#473 = LINE ( 'NONE', #468, #334 ) ;
#474 = ORIENTED_EDGE ( 'NONE', *, *, #368, .F. ) ;
#475 = ADVANCED_FACE ( 'NONE', ( #346, #350 ), #75, .T. ) ;
#476 = CARTESIAN_POINT ( 'NONE',  ( 0.000000000000000000, 0.000000000000000000, -0.1925570730076722747 ) ) ;
#477 = CIRCLE ( 'NONE', #8, 2.750000000000000000 ) ;
#478 = CARTESIAN_POINT ( 'NONE',  ( 0.000000000000000000, 13.17542648054294752, -2.000000000000000000 ) ) ;
#479 = CARTESIAN_POINT ( 'NONE',  ( -2.750000000000000444, -1.065007702645626830, -0.1085530452847078414 ) ) ;
#480 = PRESENTATION_LAYER_ASSIGNMENT (  '', '', ( #400 ) ) ;
#481 = ORIENTED_EDGE ( 'NONE', *, *, #668, .T. ) ;
#482 = DIRECTION ( 'NONE',  ( -0.8660254037844374864, -0.5000000000000018874, 0.000000000000000000 ) ) ;
#483 = EDGE_CURVE ( 'NONE', #164, #405, #530, .T. ) ;
#484 = ORIENTED_EDGE ( 'NONE', *, *, #456, .F. ) ;
#485 = DIRECTION ( 'NONE',  ( 1.000000000000000000, 0.000000000000000000, 0.000000000000000000 ) ) ;
#486 = PRODUCT_RELATED_PRODUCT_CATEGORY ( 'part', '', ( #691 ) ) ;
#487 = VERTEX_POINT ( 'NONE', #135 ) ;
#488 = CARTESIAN_POINT ( 'NONE',  ( 1.499999999999999778, 0.000000000000000000, 0.000000000000000000 ) ) ;
#489 = CARTESIAN_POINT ( 'NONE',  ( 2.749999999999999556, 0.2684568315541778216, 2.496629612032049263E-16 ) ) ;
#490 = EDGE_LOOP ( 'NONE', ( #154, #678, #217 ) ) ;
#491 = DIRECTION ( 'NONE',  ( -0.000000000000000000, -0.000000000000000000, 1.000000000000000000 ) ) ;
#492 = ORIENTED_EDGE ( 'NONE', *, *, #483, .F. ) ;
#493 = DIRECTION ( 'NONE',  ( 1.000000000000000000, 0.000000000000000000, 0.000000000000000000 ) ) ;
#494 = ADVANCED_FACE ( 'NONE', ( #24, #251 ), #663, .F. ) ;
#495 = LINE ( 'NONE', #447, #542 ) ;
#496 = CARTESIAN_POINT ( 'NONE',  ( 0.000000000000000000, 0.000000000000000000, 0.000000000000000000 ) ) ;
#497 =( LENGTH_UNIT ( ) NAMED_UNIT ( * ) SI_UNIT ( .MILLI., .METRE. ) );
#498 = FACE_OUTER_BOUND ( 'NONE', #457, .T. ) ;
#499 = DIRECTION ( 'NONE',  ( -0.000000000000000000, -0.000000000000000000, 1.000000000000000000 ) ) ;
#500 = EDGE_CURVE ( 'NONE', #332, #332, #572, .T. ) ;
#501 = FACE_OUTER_BOUND ( 'NONE', #471, .T. ) ;
#502 = CARTESIAN_POINT ( 'NONE',  ( 2.750000000000000000, 1.587713240271466875, -2.399999999999999911 ) ) ;
#503 = CARTESIAN_POINT ( 'NONE',  ( -1.251928832280970872E-16, -3.175426480542955510, -2.000000000000000000 ) ) ;
#504 = EDGE_CURVE ( 'NONE', #276, #335, #653, .T. ) ;
#505 = CARTESIAN_POINT ( 'NONE',  ( 0.000000000000000000, 3.175426480542946184, -2.399999999999999911 ) ) ;
#506 = DIRECTION ( 'NONE',  ( 0.000000000000000000, 0.000000000000000000, -1.000000000000000000 ) ) ;
#507 = FACE_OUTER_BOUND ( 'NONE', #127, .T. ) ;
#508 = VECTOR ( 'NONE', #569, 999.9999999999998863 ) ;
#509 = FACE_OUTER_BOUND ( 'NONE', #570, .T. ) ;
#510 = ADVANCED_FACE ( 'NONE', ( #159 ), #658, .T. ) ;
#511 = CARTESIAN_POINT ( 'NONE',  ( -2.750000000000000000, 1.587713240271467097, -2.000000000000000000 ) ) ;
#512 = ORIENTED_EDGE ( 'NONE', *, *, #661, .T. ) ;
#513 = FILL_AREA_STYLE ('',( #198 ) ) ;
#514 = EDGE_CURVE ( 'NONE', #203, #276, #679, .T. ) ;
#515 = DIRECTION ( 'NONE',  ( 0.000000000000000000, 0.000000000000000000, -1.000000000000000000 ) ) ;
#516 = ORIENTED_EDGE ( 'NONE', *, *, #151, .F. ) ;
#517 = CARTESIAN_POINT ( 'NONE',  ( 2.750000000000000000, 1.587713240271466875, -2.399999999999999911 ) ) ;
#518 = LINE ( 'NONE', #266, #273 ) ;
#519 = AXIS2_PLACEMENT_3D ( 'NONE', #172, #115, #443 ) ;
#520 = EDGE_CURVE ( 'NONE', #99, #372, #459, .T. ) ;
#521 = ORIENTED_EDGE ( 'NONE', *, *, #645, .F. ) ;
#522 = DIRECTION ( 'NONE',  ( -1.000000000000000000, 0.000000000000000000, 0.000000000000000000 ) ) ;
#523 = CARTESIAN_POINT ( 'NONE',  ( -2.750000000000000000, -1.587713240271477755, -2.399999999999999911 ) ) ;
#524 = ORIENTED_EDGE ( 'NONE', *, *, #252, .F. ) ;
#525 = FACE_OUTER_BOUND ( 'NONE', #238, .T. ) ;
#526 = AXIS2_PLACEMENT_3D ( 'NONE', #367, #45, #482 ) ;
#527 = ORIENTED_EDGE ( 'NONE', *, *, #308, .F. ) ;
#528 = DIRECTION ( 'NONE',  ( 0.000000000000000000, 0.000000000000000000, -1.000000000000000000 ) ) ;
#529 = ADVANCED_FACE ( 'NONE', ( #623 ), #684, .T. ) ;
#530 = CIRCLE ( 'NONE', #603, 2.750000000000000000 ) ;
#531 = AXIS2_PLACEMENT_3D ( 'NONE', #293, #87, #357 ) ;
#532 = ORIENTED_EDGE ( 'NONE', *, *, #50, .T. ) ;
#533 = CARTESIAN_POINT ( 'NONE',  ( -0.9064794551410614298, -2.652070323102396099, -3.329348412779007721E-15 ) ) ;
#534 = ORIENTED_EDGE ( 'NONE', *, *, #194, .T. ) ;
#535 = CARTESIAN_POINT ( 'NONE',  ( 0.4506121144344737983, -2.915265454974104831, -0.1090894304641149559 ) ) ;
#536 = CARTESIAN_POINT ( 'NONE',  ( 0.000000000000000000, 0.000000000000000000, 0.000000000000000000 ) ) ;
#537 = AXIS2_PLACEMENT_3D ( 'NONE', #472, #37, #147 ) ;
#538 = ORIENTED_EDGE ( 'NONE', *, *, #504, .T. ) ;
#539 = DIRECTION ( 'NONE',  ( 0.000000000000000000, -0.000000000000000000, 1.000000000000000000 ) ) ;
#540 = ORIENTED_EDGE ( 'NONE', *, *, #598, .F. ) ;
#541 = EDGE_CURVE ( 'NONE', #187, #420, #361, .T. ) ;
#542 = VECTOR ( 'NONE', #180, 999.9999999999998863 ) ;
#543 = DIRECTION ( 'NONE',  ( -0.000000000000000000, -0.000000000000000000, 1.000000000000000000 ) ) ;
#544 = DIRECTION ( 'NONE',  ( -1.000000000000000000, 0.000000000000000000, -0.000000000000000000 ) ) ;
#545 = ORIENTED_EDGE ( 'NONE', *, *, #50, .F. ) ;
#546 = CARTESIAN_POINT ( 'NONE',  ( -1.250000000000000000, 0.000000000000000000, -2.199548115447571117 ) ) ;
#547 = CARTESIAN_POINT ( 'NONE',  ( 1.375000000000004441, -2.381569860407203976, 0.000000000000000000 ) ) ;
#548 = DIRECTION ( 'NONE',  ( 0.000000000000000000, 0.000000000000000000, -1.000000000000000000 ) ) ;
#549 = AXIS2_PLACEMENT_3D ( 'NONE', #476, #543, #433 ) ;
#550 = LINE ( 'NONE', #435, #640 ) ;
#551 = CARTESIAN_POINT ( 'NONE',  ( 0.000000000000000000, 0.000000000000000000, -2.000000000000000888 ) ) ;
#552 = EDGE_CURVE ( 'NONE', #363, #405, #91, .T. ) ;
#553 = DIRECTION ( 'NONE',  ( -1.000000000000000000, 0.000000000000000000, 0.000000000000000000 ) ) ;
#554 = CARTESIAN_POINT ( 'NONE',  ( 0.000000000000000000, 0.000000000000000000, -2.374599999999997380 ) ) ;
#555 =( LENGTH_UNIT ( ) NAMED_UNIT ( * ) SI_UNIT ( .MILLI., .METRE. ) );
#556 = PLANE ( 'NONE',  #27 ) ;
#557 = FACE_OUTER_BOUND ( 'NONE', #562, .T. ) ;
#558 = DIRECTION ( 'NONE',  ( 0.000000000000000000, 0.000000000000000000, -1.000000000000000000 ) ) ;
#559 = ADVANCED_FACE ( 'NONE', ( #315 ), #211, .T. ) ;
#560 = CARTESIAN_POINT ( 'NONE',  ( -1.375000000000004441, -2.381569860407203976, 0.000000000000000000 ) ) ;
#561 = DIRECTION ( 'NONE',  ( 0.8660254037844377084, -0.5000000000000016653, 0.000000000000000000 ) ) ;
#562 = EDGE_LOOP ( 'NONE', ( #391 ) ) ;
#563 = DIRECTION ( 'NONE',  ( -1.000000000000000000, 0.000000000000000000, 0.000000000000000000 ) ) ;
#564 = CIRCLE ( 'NONE', #146, 2.750000000000000000 ) ;
#565 = CARTESIAN_POINT ( 'NONE',  ( 2.750000000000000000, 1.587713240271479975, -0.2456200930618653855 ) ) ;
#566 = ORIENTED_EDGE ( 'NONE', *, *, #645, .T. ) ;
#567 = CARTESIAN_POINT ( 'NONE',  ( -2.749999999999999556, 0.2684568315541758787, 2.401338405465940475E-16 ) ) ;
#568 = ADVANCED_FACE ( 'NONE', ( #150 ), #617, .T. ) ;
#569 = DIRECTION ( 'NONE',  ( -0.8660254037844375974, -0.5000000000000018874, 0.000000000000000000 ) ) ;
#570 = EDGE_LOOP ( 'NONE', ( #374, #310, #282 ) ) ;
#571 = FACE_BOUND ( 'NONE', #394, .T. ) ;
#572 = CIRCLE ( 'NONE', #644, 1.499999999999999778 ) ;
#573 = PRODUCT_DEFINITION_CONTEXT ( 'detailed design', #243, 'design' ) ;
#574 = DIRECTION ( 'NONE',  ( 0.000000000000000000, 0.000000000000000000, -1.000000000000000000 ) ) ;
#575 = CIRCLE ( 'NONE', #131, 2.750000000000000888 ) ;
#576 = ORIENTED_EDGE ( 'NONE', *, *, #598, .T. ) ;
#577 = CARTESIAN_POINT ( 'NONE',  ( -1.375000000000005773, 2.381569860407204420, -2.000000000000000888 ) ) ;
#578 = AXIS2_PLACEMENT_3D ( 'NONE', #342, #657, #662 ) ;
#579 = ORIENTED_EDGE ( 'NONE', *, *, #635, .T. ) ;
#580 = CARTESIAN_POINT ( 'NONE',  ( -2.750000000000000000, -0.2682974265912540512, 2.583450489125616034E-16 ) ) ;
#581 = ORIENTED_EDGE ( 'NONE', *, *, #694, .F. ) ;
#582 = DIRECTION ( 'NONE',  ( 0.000000000000000000, -0.000000000000000000, 1.000000000000000000 ) ) ;
#583 = VECTOR ( 'NONE', #423, 999.9999999999998863 ) ;
#584 = ORIENTED_EDGE ( 'NONE', *, *, #259, .F. ) ;
#585 = CARTESIAN_POINT ( 'NONE',  ( 2.750000000000000444, -1.065007702645625942, -0.1085530452847075500 ) ) ;
#586 = CARTESIAN_POINT ( 'NONE',  ( 2.299387885565522982, 1.847874265840320218, -0.1090894304641059492 ) ) ;
#587 = VERTEX_POINT ( 'NONE', #577 ) ;
#588 = DIRECTION ( 'NONE',  ( 1.000000000000000000, 0.000000000000000000, 0.000000000000000000 ) ) ;
#589 = EDGE_CURVE ( 'NONE', #615, #245, #100, .T. ) ;
#590 = VERTEX_POINT ( 'NONE', #265 ) ;
#591 = CARTESIAN_POINT ( 'NONE',  ( -2.300137710042384320, 1.847441354476759612, -0.09566599640799391957 ) ) ;
#592 = EDGE_CURVE ( 'NONE', #405, #32, #345, .T. ) ;
#593 = ORIENTED_EDGE ( 'NONE', *, *, #376, .F. ) ;
#594 = VERTEX_POINT ( 'NONE', #340 ) ;
#595 = CARTESIAN_POINT ( 'NONE',  ( 0.000000000000000000, 0.000000000000000000, -2.199548115447571117 ) ) ;
#596 = PLANE ( 'NONE',  #380 ) ;
#597 = CARTESIAN_POINT ( 'NONE',  ( -1.500000000000000000, 0.000000000000000000, -2.399999999999999467 ) ) ;
#598 = EDGE_CURVE ( 'NONE', #487, #164, #477, .T. ) ;
#599 = CARTESIAN_POINT ( 'NONE',  ( 2.300137710042384764, -1.847441354476769604, -0.09566599640799795801 ) ) ;
#600 = FACE_OUTER_BOUND ( 'NONE', #434, .T. ) ;
#601 = PRESENTATION_STYLE_ASSIGNMENT (( #77 ) ) ;
#602 = CARTESIAN_POINT ( 'NONE',  ( -1.676917305793523698E-16, 3.175426480542946184, -2.000000000000000000 ) ) ;
#603 = AXIS2_PLACEMENT_3D ( 'NONE', #659, #402, #606 ) ;
#604 = DIRECTION ( 'NONE',  ( -0.000000000000000000, -0.000000000000000000, 1.000000000000000000 ) ) ;
#605 = CARTESIAN_POINT ( 'NONE',  ( 0.000000000000000000, 0.000000000000000000, 0.000000000000000000 ) ) ;
#606 = DIRECTION ( 'NONE',  ( -1.000000000000000000, 0.000000000000000000, 0.000000000000000000 ) ) ;
#607 = ADVANCED_FACE ( 'NONE', ( #525 ), #630, .T. ) ;
#608 = ORIENTED_EDGE ( 'NONE', *, *, #500, .T. ) ;
#609 = LINE ( 'NONE', #613, #660 ) ;
#610 = CARTESIAN_POINT ( 'NONE',  ( -0.2243700767916268768, 3.045886356309203347, -0.1708300674639788297 ) ) ;
#611 = ORIENTED_EDGE ( 'NONE', *, *, #107, .T. ) ;
#612 = AXIS2_PLACEMENT_3D ( 'NONE', #373, #528, #522 ) ;
#613 = CARTESIAN_POINT ( 'NONE',  ( -1.251928832280970872E-16, -3.175426480542955510, -2.000000000000000000 ) ) ;
#614 = CARTESIAN_POINT ( 'NONE',  ( -4.336808689942017736E-16, -3.175426480542955510, -2.000000000000000000 ) ) ;
#615 = VERTEX_POINT ( 'NONE', #33 ) ;
#616 = ADVANCED_FACE ( 'NONE', ( #418, #571 ), #42, .F. ) ;
#617 = PLANE ( 'NONE',  #526 ) ;
#618 = DIRECTION ( 'NONE',  ( 0.000000000000000000, -1.000000000000000000, 0.000000000000000000 ) ) ;
#619 = ORIENTED_EDGE ( 'NONE', *, *, #308, .T. ) ;
#620 = DIRECTION ( 'NONE',  ( -0.000000000000000000, -0.000000000000000000, 1.000000000000000000 ) ) ;
#621 = CARTESIAN_POINT ( 'NONE',  ( 2.750000000000000000, 1.587713240271466875, -2.000000000000000000 ) ) ;
#622 = EDGE_LOOP ( 'NONE', ( #200, #492, #593 ) ) ;
#623 = FACE_OUTER_BOUND ( 'NONE', #622, .T. ) ;
#624 = CARTESIAN_POINT ( 'NONE',  ( 2.750000000000000444, 0.000000000000000000, 0.000000000000000000 ) ) ;
#625 = ORIENTED_EDGE ( 'NONE', *, *, #592, .T. ) ;
#626 = CARTESIAN_POINT ( 'NONE',  ( -2.749999999999999556, -1.329484544808472890, -0.1710758896428271336 ) ) ;
#627 = EDGE_CURVE ( 'NONE', #6, #99, #30, .T. ) ;
#628 = ORIENTED_EDGE ( 'NONE', *, *, #408, .F. ) ;
#629 = CARTESIAN_POINT ( 'NONE',  ( -2.750000000000000000, 1.330988860919476213, -0.1715101482986560733 ) ) ;
#630 = CONICAL_SURFACE ( 'NONE', #171, 2.750000000000000444, 1.047197551196596743 ) ;
#631 = EDGE_LOOP ( 'NONE', ( #256, #538, #693, #581, #285, #158 ) ) ;
#632 = EDGE_CURVE ( 'NONE', #44, #267, #306, .T. ) ;
#633 = CARTESIAN_POINT ( 'NONE',  ( 2.749999999999999556, -1.329484544808472446, -0.1710758896428269671 ) ) ;
#634 = EDGE_LOOP ( 'NONE', ( #540, #70, #436 ) ) ;
#635 = EDGE_CURVE ( 'NONE', #385, #32, #550, .T. ) ;
#636 = CARTESIAN_POINT ( 'NONE',  ( 1.841465337348300091, 2.112255972321535058, -0.02351960456805967520 ) ) ;
#637 = ORIENTED_EDGE ( 'NONE', *, *, #635, .F. ) ;
#638 = APPLICATION_PROTOCOL_DEFINITION ( 'draft international standard', 'automotive_design', 1998, #218 ) ;
#639 = DIRECTION ( 'NONE',  ( -1.000000000000000000, 0.000000000000000000, 0.000000000000000000 ) ) ;
#640 = VECTOR ( 'NONE', #58, 1000.000000000000000 ) ;
#641 = ORIENTED_EDGE ( 'NONE', *, *, #272, .T. ) ;
#642 = CARTESIAN_POINT ( 'NONE',  ( 2.750000000000000000, -0.2682974265912540512, 2.456395547037470983E-16 ) ) ;
#643 = CARTESIAN_POINT ( 'NONE',  ( -2.750000000000000444, 0.000000000000000000, 0.000000000000000000 ) ) ;
#644 = AXIS2_PLACEMENT_3D ( 'NONE', #275, #620, #485 ) ;
#645 = EDGE_CURVE ( 'NONE', #615, #99, #336, .T. ) ;
#646 = AXIS2_PLACEMENT_3D ( 'NONE', #695, #55, #226 ) ;
#647 = CARTESIAN_POINT ( 'NONE',  ( 0.000000000000000000, 0.000000000000000000, 0.000000000000000000 ) ) ;
#648 = CARTESIAN_POINT ( 'NONE',  ( 2.750000000000001332, -1.587713240271479087, -0.2456200930618653855 ) ) ;
#649 = CARTESIAN_POINT ( 'NONE',  ( -1.251928832280970872E-16, -3.175426480542955510, -2.399999999999999911 ) ) ;
#650 = CARTESIAN_POINT ( 'NONE',  ( 2.750000000000000000, -1.587713240271478199, -2.399999999999999911 ) ) ;
#651 = PRODUCT_DEFINITION ( 'General', '', #68, #573 ) ;
#652 = CARTESIAN_POINT ( 'NONE',  ( -2.750000000000000000, -1.587713240271479975, -0.2456200930618653855 ) ) ;
#653 = B_SPLINE_CURVE_WITH_KNOTS ( 'NONE', 3,
 ( #201, #103, #533, #208 ),
 .UNSPECIFIED., .F., .F.,
 ( 4, 4 ),
 ( 2.380742992578993153E-07, 0.001606744326298700310 ),
 .UNSPECIFIED. ) ;
#654 = DIRECTION ( 'NONE',  ( 0.000000000000000000, -0.000000000000000000, 1.000000000000000000 ) ) ;
#655 = VERTEX_POINT ( 'NONE', #7 ) ;
#656 =( NAMED_UNIT ( * ) SI_UNIT ( $, .STERADIAN. ) SOLID_ANGLE_UNIT ( ) );
#657 = DIRECTION ( 'NONE',  ( 0.5000000000000019984, 0.8660254037844375974, -0.000000000000000000 ) ) ;
#658 = CONICAL_SURFACE ( 'NONE', #612, 2.750000000000000444, 1.047197551196596743 ) ;
#659 = CARTESIAN_POINT ( 'NONE',  ( 0.000000000000000000, 0.000000000000000000, 0.000000000000000000 ) ) ;
#660 = VECTOR ( 'NONE', #462, 999.9999999999998863 ) ;
#661 = EDGE_CURVE ( 'NONE', #465, #276, #155, .T. ) ;
#662 = DIRECTION ( 'NONE',  ( -0.8660254037844374864, 0.5000000000000018874, 0.000000000000000000 ) ) ;
#663 = CYLINDRICAL_SURFACE ( 'NONE', #94, 1.250000000000000000 ) ;
#664 = AXIS2_PLACEMENT_3D ( 'NONE', #292, #184, #553 ) ;
#665 = CARTESIAN_POINT ( 'NONE',  ( -1.626303258728256651E-14, -3.175426480542946184, -0.2456200930618653855 ) ) ;
#666 = ORIENTED_EDGE ( 'NONE', *, *, #320, .F. ) ;
#667 = DIRECTION ( 'NONE',  ( 0.000000000000000000, -1.000000000000000000, 0.000000000000000000 ) ) ;
#668 = EDGE_CURVE ( 'NONE', #372, #587, #125, .T. ) ;
#669 = ORIENTED_EDGE ( 'NONE', *, *, #67, .F. ) ;
#670 =( NAMED_UNIT ( * ) PLANE_ANGLE_UNIT ( ) SI_UNIT ( $, .RADIAN. ) );
#671 = AXIS2_PLACEMENT_3D ( 'NONE', #536, #439, #639 ) ;
#672 = DIRECTION ( 'NONE',  ( -0.8660254037844375974, 0.5000000000000018874, 0.000000000000000000 ) ) ;
#673 = ORIENTED_EDGE ( 'NONE', *, *, #204, .F. ) ;
#674 = CARTESIAN_POINT ( 'NONE',  ( -2.750000000000000444, 0.5405639250603668788, -0.02369969086895127100 ) ) ;
#675 = AXIS2_PLACEMENT_3D ( 'NONE', #144, #515, #358 ) ;
#676 = VECTOR ( 'NONE', #134, 1000.000000000000000 ) ;
#677 = CARTESIAN_POINT ( 'NONE',  ( 2.750000000000000000, 1.587713240271466875, -2.000000000000000000 ) ) ;
#678 = ORIENTED_EDGE ( 'NONE', *, *, #504, .F. ) ;
#679 = LINE ( 'NONE', #683, #353 ) ;
#680 = LINE ( 'NONE', #354, #216 ) ;
#681 = B_SPLINE_CURVE_WITH_KNOTS ( 'NONE', 3,
 ( #386, #375, #234, #109 ),
 .UNSPECIFIED., .F., .F.,
 ( 4, 4 ),
 ( 2.380742992394833896E-07, 0.001606744326298696623 ),
 .UNSPECIFIED. ) ;
#682 = ORIENTED_EDGE ( 'NONE', *, *, #23, .T. ) ;
#683 = CARTESIAN_POINT ( 'NONE',  ( -1.251928832280970872E-16, -3.175426480542955510, -2.399999999999999911 ) ) ;
#684 = CONICAL_SURFACE ( 'NONE', #116, 2.750000000000000444, 1.047197551196596743 ) ;
#685 = EDGE_CURVE ( 'NONE', #590, #487, #681, .T. ) ;
#686 = ORIENTED_EDGE ( 'NONE', *, *, #552, .T. ) ;
#687 = CARTESIAN_POINT ( 'NONE',  ( -2.749999999999999112, 1.070896984529280616, -0.1097913889158290413 ) ) ;
#688 = B_SPLINE_CURVE_WITH_KNOTS ( 'NONE', 3,
 ( #316, #139, #412, #25, #610, #92 ),
 .UNSPECIFIED., .F., .F.,
 ( 4, 2, 4 ),
 ( 0.001606744326298683613, 0.002406996759593248766, 0.003207249192887813918 ),
 .UNSPECIFIED. ) ;
#689 = ORIENTED_EDGE ( 'NONE', *, *, #589, .F. ) ;
#690 = CARTESIAN_POINT ( 'NONE',  ( -2.750000000000000000, -1.587713240271477755, -2.399999999999999911 ) ) ;
#691 = PRODUCT ( 'ISO - 4032 - M3 - W - N_ISO - 4032 - M3 - W - N', 'ISO - 4032 - M3 - W - N_ISO - 4032 - M3 - W - N', '', ( #297 ) ) ;
#692 = VECTOR ( 'NONE', #392, 1000.000000000000000 ) ;
#693 = ORIENTED_EDGE ( 'NONE', *, *, #408, .T. ) ;
#694 = EDGE_CURVE ( 'NONE', #187, #363, #221, .T. ) ;
#695 = CARTESIAN_POINT ( 'NONE',  ( 0.000000000000000000, 0.000000000000000000, 0.000000000000000000 ) ) ;
ENDSEC;
END-ISO-10303-21;
