ISO-10303-21;
HEADER;
FILE_DESCRIPTION (( 'STEP AP214' ),
    '1' );
FILE_NAME ('ISO - 4035 - M1.6 - N.STEP',
    '2025-07-29T15:59:07',
    ( '' ),
    ( '' ),
    'SwSTEP 2.0',
    'SolidWorks 2025',
    '' );
FILE_SCHEMA (( 'AUTOMOTIVE_DESIGN' ));
ENDSEC;

DATA;
#1 = CARTESIAN_POINT ( 'NONE',  ( -1.600000000000000089, -0.9237604307034047446, -0.8570937640367328747 ) ) ;
#2 = CARTESIAN_POINT ( 'NONE',  ( 0.8000000000000019318, 1.385640646055100733, -1.000000000000000000 ) ) ;
#3 = DIRECTION ( 'NONE',  ( 1.000000000000000000, 0.000000000000000000, 0.000000000000000000 ) ) ;
#4 = CIRCLE ( 'NONE', #399, 1.600000000000000311 ) ;
#5 = CARTESIAN_POINT ( 'NONE',  ( 0.000000000000000000, 0.000000000000000000, -1.000000000000000000 ) ) ;
#6 =( GEOMETRIC_REPRESENTATION_CONTEXT ( 3 ) GLOBAL_UNCERTAINTY_ASSIGNED_CONTEXT ( ( #619 ) ) GLOBAL_UNIT_ASSIGNED_CONTEXT ( ( #315, #49, #93 ) ) REPRESENTATION_CONTEXT ( 'NONE', 'WORKASPACE' ) );
#7 = FACE_OUTER_BOUND ( 'NONE', #362, .T. ) ;
#8 = ORIENTED_EDGE ( 'NONE', *, *, #439, .T. ) ;
#9 = ADVANCED_FACE ( 'NONE', ( #63 ), #531, .T. ) ;
#10 = DIRECTION ( 'NONE',  ( -0.000000000000000000, -0.000000000000000000, 1.000000000000000000 ) ) ;
#11 = ORIENTED_EDGE ( 'NONE', *, *, #220, .F. ) ;
#12 = CIRCLE ( 'NONE', #380, 1.600000000000000311 ) ;
#13 = CARTESIAN_POINT ( 'NONE',  ( -1.600000000000000089, 0.7743935190804268620, -0.9002122773535078393 ) ) ;
#14 = ORIENTED_EDGE ( 'NONE', *, *, #262, .T. ) ;
#15 = CARTESIAN_POINT ( 'NONE',  ( 0.000000000000000000, 0.000000000000000000, -1.000000000000000000 ) ) ;
#16 = LINE ( 'NONE', #245, #19 ) ;
#17 = EDGE_CURVE ( 'NONE', #284, #417, #300, .T. ) ;
#18 = ORIENTED_EDGE ( 'NONE', *, *, #428, .F. ) ;
#19 = VECTOR ( 'NONE', #662, 1000.000000000000000 ) ;
#20 = CARTESIAN_POINT ( 'NONE',  ( -1.600000000000000089, 0.6230673364534307090, -0.06387862627818380323 ) ) ;
#21 = AXIS2_PLACEMENT_3D ( 'NONE', #335, #10, #495 ) ;
#22 = ADVANCED_FACE ( 'NONE', ( #108, #630 ), #593, .T. ) ;
#23 = FACE_OUTER_BOUND ( 'NONE', #487, .T. ) ;
#24 = VERTEX_POINT ( 'NONE', #275 ) ;
#25 = DIRECTION ( 'NONE',  ( 1.000000000000000000, 0.000000000000000000, 0.000000000000000000 ) ) ;
#26 = FILL_AREA_STYLE_COLOUR ( '', #269 ) ;
#27 = DIRECTION ( 'NONE',  ( -1.000000000000000000, 0.000000000000000000, 0.000000000000000000 ) ) ;
#28 = CIRCLE ( 'NONE', #412, 0.8000000000000003775 ) ;
#29 = ORIENTED_EDGE ( 'NONE', *, *, #629, .T. ) ;
#30 = EDGE_CURVE ( 'NONE', #183, #549, #610, .T. ) ;
#31 = CARTESIAN_POINT ( 'NONE',  ( -0.5274051198989549993, -1.543023373461158920, -1.168840428496575080E-15 ) ) ;
#32 = CARTESIAN_POINT ( 'NONE',  ( -0.8000000000000012657, -1.385640646055101177, 0.000000000000000000 ) ) ;
#33 = ORIENTED_EDGE ( 'NONE', *, *, #212, .T. ) ;
#34 = CARTESIAN_POINT ( 'NONE',  ( 0.000000000000000000, 0.000000000000000000, 0.000000000000000000 ) ) ;
#35 = CARTESIAN_POINT ( 'NONE',  ( 1.600000000000000089, 0.6230673364534344838, -0.9361213737218154751 ) ) ;
#36 = AXIS2_PLACEMENT_3D ( 'NONE', #321, #543, #589 ) ;
#37 = ORIENTED_EDGE ( 'NONE', *, *, #605, .T. ) ;
#38 = PLANE ( 'NONE',  #276 ) ;
#39 = CARTESIAN_POINT ( 'NONE',  ( 0.8000000000000003775, 0.000000000000000000, -0.9745999999999990226 ) ) ;
#40 = CARTESIAN_POINT ( 'NONE',  ( 0.000000000000000000, 0.000000000000000000, 0.000000000000000000 ) ) ;
#41 = CIRCLE ( 'NONE', #666, 1.600000000000000311 ) ;
#42 = APPLICATION_CONTEXT ( 'automotive_design' ) ;
#43 = VERTEX_POINT ( 'NONE', #217 ) ;
#44 = DIRECTION ( 'NONE',  ( 0.000000000000000000, 0.000000000000000000, 1.000000000000000000 ) ) ;
#45 = ADVANCED_FACE ( 'NONE', ( #164 ), #625, .T. ) ;
#46 = VECTOR ( 'NONE', #586, 1000.000000000000000 ) ;
#47 = EDGE_LOOP ( 'NONE', ( #112 ) ) ;
#48 = CARTESIAN_POINT ( 'NONE',  ( 0.000000000000000000, 0.000000000000000000, 0.000000000000000000 ) ) ;
#49 =( NAMED_UNIT ( * ) PLANE_ANGLE_UNIT ( ) SI_UNIT ( $, .RADIAN. ) );
#50 = ORIENTED_EDGE ( 'NONE', *, *, #391, .F. ) ;
#51 = AXIS2_PLACEMENT_3D ( 'NONE', #587, #57, #432 ) ;
#52 = CARTESIAN_POINT ( 'NONE',  ( -3.179231904530664980E-16, 1.847520861406804160, -1.000000000000000000 ) ) ;
#53 = DIRECTION ( 'NONE',  ( 0.000000000000000000, 0.000000000000000000, 1.000000000000000000 ) ) ;
#54 = FACE_OUTER_BOUND ( 'NONE', #366, .T. ) ;
#55 = ADVANCED_FACE ( 'NONE', ( #115 ), #250, .T. ) ;
#56 = B_SPLINE_CURVE_WITH_KNOTS ( 'NONE', 3,
 ( #146, #468, #415, #363 ),
 .UNSPECIFIED., .F., .F.,
 ( 4, 4 ),
 ( 2.380755436455421828E-07, 0.0009349328872549467857 ),
 .UNSPECIFIED. ) ;
#57 = DIRECTION ( 'NONE',  ( -0.000000000000000000, -0.000000000000000000, 1.000000000000000000 ) ) ;
#58 = CARTESIAN_POINT ( 'NONE',  ( 1.338915011469748340, 1.074497919112711752, -0.9441220935479898158 ) ) ;
#59 = ORIENTED_EDGE ( 'NONE', *, *, #69, .F. ) ;
#60 = DIRECTION ( 'NONE',  ( 0.000000000000000000, 0.000000000000000000, -1.000000000000000000 ) ) ;
#61 = ORIENTED_EDGE ( 'NONE', *, *, #677, .T. ) ;
#62 = EDGE_CURVE ( 'NONE', #534, #534, #393, .T. ) ;
#63 = FACE_OUTER_BOUND ( 'NONE', #444, .T. ) ;
#64 = ORIENTED_EDGE ( 'NONE', *, *, #494, .F. ) ;
#65 = FACE_BOUND ( 'NONE', #47, .T. ) ;
#66 = EDGE_LOOP ( 'NONE', ( #178 ) ) ;
#67 = CARTESIAN_POINT ( 'NONE',  ( 1.600000000000000089, 0.000000000000000000, -1.000000000000000000 ) ) ;
#68 = ORIENTED_EDGE ( 'NONE', *, *, #540, .F. ) ;
#69 = EDGE_CURVE ( 'NONE', #476, #43, #441, .T. ) ;
#70 = CARTESIAN_POINT ( 'NONE',  ( -0.2617371745299336694, -1.696406833235018397, -0.05566051111767355425 ) ) ;
#71 = AXIS2_PLACEMENT_3D ( 'NONE', #260, #152, #214 ) ;
#72 = FACE_OUTER_BOUND ( 'NONE', #66, .T. ) ;
#73 = FACE_OUTER_BOUND ( 'NONE', #131, .T. ) ;
#74 = ORIENTED_EDGE ( 'NONE', *, *, #145, .F. ) ;
#75 = DIRECTION ( 'NONE',  ( -0.000000000000000000, -0.000000000000000000, 1.000000000000000000 ) ) ;
#76 = DIRECTION ( 'NONE',  ( 0.000000000000000000, 0.000000000000000000, 1.000000000000000000 ) ) ;
#77 = EDGE_LOOP ( 'NONE', ( #591, #390, #438 ) ) ;
#78 = CARTESIAN_POINT ( 'NONE',  ( 0.000000000000000000, 0.000000000000000000, -0.9745999999999990226 ) ) ;
#79 = CARTESIAN_POINT ( 'NONE',  ( 0.000000000000000000, 0.000000000000000000, -1.000000000000000000 ) ) ;
#80 = B_SPLINE_CURVE_WITH_KNOTS ( 'NONE', 3,
 ( #125, #499, #116, #545 ),
 .UNSPECIFIED., .F., .F.,
 ( 4, 4 ),
 ( 0.0009349328872549467857, 0.001866139041432152796 ),
 .UNSPECIFIED. ) ;
#81 = ADVANCED_FACE ( 'NONE', ( #7 ), #95, .T. ) ;
#82 = DIRECTION ( 'NONE',  ( 0.000000000000000000, -0.000000000000000000, 1.000000000000000000 ) ) ;
#83 = ORIENTED_EDGE ( 'NONE', *, *, #592, .T. ) ;
#84 = CARTESIAN_POINT ( 'NONE',  ( 0.000000000000000000, 0.000000000000000000, -0.1347899511053712862 ) ) ;
#85 = CARTESIAN_POINT ( 'NONE',  ( 1.600000000000000755, -0.9237604307034027462, -0.8570937640367328747 ) ) ;
#86 = CIRCLE ( 'NONE', #480, 1.600000000000000311 ) ;
#87 = EDGE_CURVE ( 'NONE', #206, #549, #374, .T. ) ;
#88 = ORIENTED_EDGE ( 'NONE', *, *, #370, .T. ) ;
#89 = DIRECTION ( 'NONE',  ( -0.000000000000000000, 0.000000000000000000, -1.000000000000000000 ) ) ;
#90 = CARTESIAN_POINT ( 'NONE',  ( 0.000000000000000000, 0.000000000000000000, 0.000000000000000000 ) ) ;
#91 = VERTEX_POINT ( 'NONE', #381 ) ;
#92 = CARTESIAN_POINT ( 'NONE',  ( -1.338915011469749894, -1.074497919112715527, -0.05587790645201237694 ) ) ;
#93 =( NAMED_UNIT ( * ) SI_UNIT ( $, .STERADIAN. ) SOLID_ANGLE_UNIT ( ) );
#94 = AXIS2_PLACEMENT_3D ( 'NONE', #648, #133, #611 ) ;
#95 = CONICAL_SURFACE ( 'NONE', #310, 1.600000000000000089, 1.047197551196595855 ) ;
#96 = ORIENTED_EDGE ( 'NONE', *, *, #208, .F. ) ;
#97 = DIRECTION ( 'NONE',  ( -1.000000000000000000, 0.000000000000000000, 0.000000000000000000 ) ) ;
#98 = EDGE_CURVE ( 'NONE', #215, #215, #175, .T. ) ;
#99 = ORIENTED_EDGE ( 'NONE', *, *, #278, .T. ) ;
#100 = CARTESIAN_POINT ( 'NONE',  ( 1.338262825470073691, -1.074874458875189287, -0.9443394888823265498 ) ) ;
#101 = PRODUCT_DEFINITION ( 'General', '', #204, #382 ) ;
#102 = ORIENTED_EDGE ( 'NONE', *, *, #118, .T. ) ;
#103 = CARTESIAN_POINT ( 'NONE',  ( 0.2617371745299288399, 1.696406833235017064, -0.05566051111767234688 ) ) ;
#104 = ADVANCED_FACE ( 'NONE', ( #23 ), #341, .F. ) ;
#105 = ORIENTED_EDGE ( 'NONE', *, *, #634, .F. ) ;
#106 = CARTESIAN_POINT ( 'NONE',  ( -5.963111948670274387E-15, -1.847520861406803938, -0.8570937640367328747 ) ) ;
#107 = CARTESIAN_POINT ( 'NONE',  ( 0.000000000000000000, 0.000000000000000000, 0.000000000000000000 ) ) ;
#108 = FACE_BOUND ( 'NONE', #383, .T. ) ;
#109 = DIRECTION ( 'NONE',  ( -0.000000000000000000, 0.000000000000000000, -1.000000000000000000 ) ) ;
#110 = DIRECTION ( 'NONE',  ( -0.000000000000000000, -0.000000000000000000, 1.000000000000000000 ) ) ;
#111 = CARTESIAN_POINT ( 'NONE',  ( 0.000000000000000000, 1.847520861406803938, -1.000000000000000000 ) ) ;
#112 = ORIENTED_EDGE ( 'NONE', *, *, #62, .T. ) ;
#113 = AXIS2_PLACEMENT_3D ( 'NONE', #556, #82, #603 ) ;
#114 = ADVANCED_FACE ( 'NONE', ( #491 ), #600, .T. ) ;
#115 = FACE_OUTER_BOUND ( 'NONE', #496, .T. ) ;
#116 = CARTESIAN_POINT ( 'NONE',  ( 0.2610849885302509721, -1.696783372997497041, -0.05587790645201363288 ) ) ;
#117 = AXIS2_PLACEMENT_3D ( 'NONE', #129, #450, #359 ) ;
#118 = EDGE_CURVE ( 'NONE', #122, #183, #674, .T. ) ;
#119 = EDGE_LOOP ( 'NONE', ( #353, #372, #8, #462, #676, #311 ) ) ;
#120 = CARTESIAN_POINT ( 'NONE',  ( -1.072594880101050308, 1.228257918649045877, -1.000000000000001110 ) ) ;
#121 = FACE_OUTER_BOUND ( 'NONE', #140, .T. ) ;
#122 = VERTEX_POINT ( 'NONE', #642 ) ;
#123 = CARTESIAN_POINT ( 'NONE',  ( -5.963111948670274387E-15, -1.847520861406803938, -0.8570937640367328747 ) ) ;
#124 = CARTESIAN_POINT ( 'NONE',  ( -1.600000000000000311, 0.3145099200351546553, -0.01378891105090636858 ) ) ;
#125 = CARTESIAN_POINT ( 'NONE',  ( 0.8000000000000022649, -1.385640646055100511, 0.000000000000000000 ) ) ;
#126 = EDGE_LOOP ( 'NONE', ( #645, #96, #578 ) ) ;
#127 = AXIS2_PLACEMENT_3D ( 'NONE', #107, #479, #323 ) ;
#128 = CARTESIAN_POINT ( 'NONE',  ( 0.000000000000000000, 0.000000000000000000, -1.000000000000000000 ) ) ;
#129 = CARTESIAN_POINT ( 'NONE',  ( 0.000000000000000000, 0.000000000000000000, 0.000000000000000000 ) ) ;
#130 = CARTESIAN_POINT ( 'NONE',  ( -1.600000000000000089, 0.6230673364534348169, -0.9361213737218153641 ) ) ;
#131 = EDGE_LOOP ( 'NONE', ( #234 ) ) ;
#132 = CARTESIAN_POINT ( 'NONE',  ( -0.8000000000000028200, 1.385640646055100289, 0.000000000000000000 ) ) ;
#133 = DIRECTION ( 'NONE',  ( 0.000000000000000000, -0.000000000000000000, 1.000000000000000000 ) ) ;
#134 = ADVANCED_FACE ( 'NONE', ( #121 ), #274, .T. ) ;
#135 = VECTOR ( 'NONE', #53, 1000.000000000000000 ) ;
#136 = VERTEX_POINT ( 'NONE', #402 ) ;
#137 = DIRECTION ( 'NONE',  ( 0.000000000000000000, 0.000000000000000000, 1.000000000000000000 ) ) ;
#138 = CARTESIAN_POINT ( 'NONE',  ( -5.421010862427522170E-16, 1.847520861406803938, -0.1429062359632670975 ) ) ;
#139 = CIRCLE ( 'NONE', #285, 1.600000000000000311 ) ;
#140 = EDGE_LOOP ( 'NONE', ( #243, #422, #155 ) ) ;
#141 = CARTESIAN_POINT ( 'NONE',  ( 0.000000000000000000, 0.000000000000000000, -1.000000000000000000 ) ) ;
#142 = PRODUCT_CONTEXT ( 'NONE', #398, 'mechanical' ) ;
#143 = B_SPLINE_CURVE_WITH_KNOTS ( 'NONE', 3,
 ( #477, #100, #583, #314 ),
 .UNSPECIFIED., .F., .F.,
 ( 4, 4 ),
 ( 2.380755436455421828E-07, 0.0009349328872549466773 ),
 .UNSPECIFIED. ) ;
#144 = EDGE_LOOP ( 'NONE', ( #407, #636, #368, #643, #553, #64 ) ) ;
#145 = EDGE_CURVE ( 'NONE', #43, #417, #282, .T. ) ;
#146 = CARTESIAN_POINT ( 'NONE',  ( 1.600000000000000755, -0.9237604307034027462, -0.1429062359632670975 ) ) ;
#147 = AXIS2_PLACEMENT_3D ( 'NONE', #79, #190, #602 ) ;
#148 = DIRECTION ( 'NONE',  ( -1.000000000000000000, 0.000000000000000000, 0.000000000000000000 ) ) ;
#149 = B_SPLINE_CURVE_WITH_KNOTS ( 'NONE', 3,
 ( #449, #554, #646, #400 ),
 .UNSPECIFIED., .F., .F.,
 ( 4, 4 ),
 ( 2.380755436467198498E-07, 0.0009349328872549540499 ),
 .UNSPECIFIED. ) ;
#150 = FACE_OUTER_BOUND ( 'NONE', #493, .T. ) ;
#151 = ORIENTED_EDGE ( 'NONE', *, *, #30, .T. ) ;
#152 = DIRECTION ( 'NONE',  ( 0.5000000000000014433, -0.8660254037844378194, 0.000000000000000000 ) ) ;
#153 = PRESENTATION_STYLE_ASSIGNMENT (( #364 ) ) ;
#154 = AXIS2_PLACEMENT_3D ( 'NONE', #660, #189, #294 ) ;
#155 = ORIENTED_EDGE ( 'NONE', *, *, #592, .F. ) ;
#156 = CARTESIAN_POINT ( 'NONE',  ( -1.071577446206792406, -1.228845334381783561, -0.9999999999999986677 ) ) ;
#157 = ADVANCED_FACE ( 'NONE', ( #442 ), #386, .T. ) ;
#158 = CARTESIAN_POINT ( 'NONE',  ( 0.000000000000000000, 0.000000000000000000, 0.000000000000000000 ) ) ;
#159 = FACE_OUTER_BOUND ( 'NONE', #144, .T. ) ;
#160 = CARTESIAN_POINT ( 'NONE',  ( 1.600000000000000311, 0.3145099200351570423, -0.01378891105090655073 ) ) ;
#161 = CARTESIAN_POINT ( 'NONE',  ( 1.600000000000000089, 0.9237604307034047446, -0.1429062359632670975 ) ) ;
#162 = DIRECTION ( 'NONE',  ( 0.000000000000000000, 0.000000000000000000, -1.000000000000000000 ) ) ;
#163 = CIRCLE ( 'NONE', #637, 1.600000000000000311 ) ;
#164 = FACE_OUTER_BOUND ( 'NONE', #656, .T. ) ;
#165 = EDGE_CURVE ( 'NONE', #307, #136, #80, .T. ) ;
#166 = CARTESIAN_POINT ( 'NONE',  ( 0.000000000000000000, 0.000000000000000000, -1.000000000000000000 ) ) ;
#167 = DIRECTION ( 'NONE',  ( -0.000000000000000000, 0.000000000000000000, -1.000000000000000000 ) ) ;
#168 = EDGE_CURVE ( 'NONE', #417, #403, #682, .T. ) ;
#169 = CARTESIAN_POINT ( 'NONE',  ( 1.600000000000000089, 0.000000000000000000, 0.000000000000000000 ) ) ;
#170 = VERTEX_POINT ( 'NONE', #562 ) ;
#171 = B_SPLINE_CURVE_WITH_KNOTS ( 'NONE', 3,
 ( #373, #103, #680, #211 ),
 .UNSPECIFIED., .F., .F.,
 ( 4, 4 ),
 ( 2.380755436467331641E-07, 0.0009349328872549539414 ),
 .UNSPECIFIED. ) ;
#172 = DIRECTION ( 'NONE',  ( -0.8660254037844380415, 0.5000000000000012212, 0.000000000000000000 ) ) ;
#173 = ORIENTED_EDGE ( 'NONE', *, *, #377, .T. ) ;
#174 = DIRECTION ( 'NONE',  ( -0.000000000000000000, -0.000000000000000000, 1.000000000000000000 ) ) ;
#175 = CIRCLE ( 'NONE', #218, 0.6250000000000000000 ) ;
#176 = CARTESIAN_POINT ( 'NONE',  ( -0.5284225537932120131, 1.542435957728422569, -1.000000000000001110 ) ) ;
#177 = DIRECTION ( 'NONE',  ( 1.000000000000000000, 0.000000000000000000, 0.000000000000000000 ) ) ;
#178 = ORIENTED_EDGE ( 'NONE', *, *, #62, .F. ) ;
#179 = DIRECTION ( 'NONE',  ( -1.000000000000000000, 0.000000000000000000, 0.000000000000000000 ) ) ;
#180 = CONICAL_SURFACE ( 'NONE', #387, 1.600000000000000089, 1.047197551196595855 ) ;
#181 = LINE ( 'NONE', #406, #675 ) ;
#182 = CARTESIAN_POINT ( 'NONE',  ( 1.600000000000000089, -0.3111893021712296981, -0.01341774043264997232 ) ) ;
#183 = VERTEX_POINT ( 'NONE', #169 ) ;
#184 = ADVANCED_FACE ( 'NONE', ( #73, #65 ), #331, .F. ) ;
#185 = CARTESIAN_POINT ( 'NONE',  ( -0.8000000000000012657, -1.385640646055101177, 0.000000000000000000 ) ) ;
#186 = FILL_AREA_STYLE ('',( #26 ) ) ;
#187 = CARTESIAN_POINT ( 'NONE',  ( 0.000000000000000000, 0.000000000000000000, 0.000000000000000000 ) ) ;
#188 = ORIENTED_EDGE ( 'NONE', *, *, #316, .T. ) ;
#189 = DIRECTION ( 'NONE',  ( -0.000000000000000000, 0.000000000000000000, -1.000000000000000000 ) ) ;
#190 = DIRECTION ( 'NONE',  ( -0.000000000000000000, -0.000000000000000000, 1.000000000000000000 ) ) ;
#191 = ADVANCED_BREP_SHAPE_REPRESENTATION ( 'ISO - 4035 - M1.6 - N_ISO - 4035 - M1.6 - N', ( #673, #127 ), #6 ) ;
#192 = ORIENTED_EDGE ( 'NONE', *, *, #165, .F. ) ;
#193 = FACE_OUTER_BOUND ( 'NONE', #570, .T. ) ;
#194 = CARTESIAN_POINT ( 'NONE',  ( -0.2610849885302524154, 1.696783372997492156, -0.9441220935479891496 ) ) ;
#195 = EDGE_CURVE ( 'NONE', #246, #544, #41, .T. ) ;
#196 = CARTESIAN_POINT ( 'NONE',  ( -1.600000000000000311, -0.6196408451756379998, -0.06315813543835475941 ) ) ;
#197 = B_SPLINE_CURVE_WITH_KNOTS ( 'NONE', 3,
 ( #473, #156, #369, #482 ),
 .UNSPECIFIED., .F., .F.,
 ( 4, 4 ),
 ( 0.0009349328872549553509, 0.001866139041432149977 ),
 .UNSPECIFIED. ) ;
#198 = ORIENTED_EDGE ( 'NONE', *, *, #370, .F. ) ;
#199 = CARTESIAN_POINT ( 'NONE',  ( 0.000000000000000000, 0.000000000000000000, 0.000000000000000000 ) ) ;
#200 =( LENGTH_UNIT ( ) NAMED_UNIT ( * ) SI_UNIT ( .MILLI., .METRE. ) );
#201 = VERTEX_POINT ( 'NONE', #447 ) ;
#202 = CARTESIAN_POINT ( 'NONE',  ( -1.600000000000000089, -0.9237604307034050777, -1.000000000000000000 ) ) ;
#203 = AXIS2_PLACEMENT_3D ( 'NONE', #291, #232, #454 ) ;
#204 = PRODUCT_DEFINITION_FORMATION_WITH_SPECIFIED_SOURCE ( 'Symmetric', '', #436, .NOT_KNOWN. ) ;
#205 = CARTESIAN_POINT ( 'NONE',  ( -1.600000000000000089, -0.3111893021712309193, -0.01341774043265020304 ) ) ;
#206 = VERTEX_POINT ( 'NONE', #548 ) ;
#207 = CARTESIAN_POINT ( 'NONE',  ( 0.000000000000000000, 1.847520861406803938, 0.000000000000000000 ) ) ;
#208 = EDGE_CURVE ( 'NONE', #597, #206, #340, .T. ) ;
#209 = AXIS2_PLACEMENT_3D ( 'NONE', #84, #349, #620 ) ;
#210 = EDGE_LOOP ( 'NONE', ( #392, #74, #59, #604, #668, #575 ) ) ;
#211 = CARTESIAN_POINT ( 'NONE',  ( 0.8000000000000019318, 1.385640646055100733, 0.000000000000000000 ) ) ;
#212 = EDGE_CURVE ( 'NONE', #265, #265, #655, .T. ) ;
#213 = ORIENTED_EDGE ( 'NONE', *, *, #30, .F. ) ;
#214 = DIRECTION ( 'NONE',  ( 0.8660254037844378194, 0.5000000000000014433, 0.000000000000000000 ) ) ;
#215 = VERTEX_POINT ( 'NONE', #581 ) ;
#216 = CONICAL_SURFACE ( 'NONE', #598, 1.600000000000000089, 1.047197551196595855 ) ;
#217 = CARTESIAN_POINT ( 'NONE',  ( -0.8000000000000028200, 1.385640646055100289, -1.000000000000000000 ) ) ;
#218 = AXIS2_PLACEMENT_3D ( 'NONE', #267, #328, #3 ) ;
#219 = CARTESIAN_POINT ( 'NONE',  ( 0.8000000000000019318, 1.385640646055100733, 0.000000000000000000 ) ) ;
#220 = EDGE_CURVE ( 'NONE', #279, #563, #460, .T. ) ;
#221 = CARTESIAN_POINT ( 'NONE',  ( 1.600000000000000089, 0.9237604307034047446, -0.1429062359632670975 ) ) ;
#222 = CONICAL_SURFACE ( 'NONE', #371, 1.600000000000000089, 1.047197551196595855 ) ;
#223 = CARTESIAN_POINT ( 'NONE',  ( -1.600000000000000089, -0.1561003209258203517, -1.000000000000000000 ) ) ;
#224 = CARTESIAN_POINT ( 'NONE',  ( 1.599999999999999867, 0.7743935190804268620, -0.09978772264649206358 ) ) ;
#225 = AXIS2_PLACEMENT_3D ( 'NONE', #238, #280, #595 ) ;
#226 = ADVANCED_FACE ( 'NONE', ( #150 ), #222, .T. ) ;
#227 = CARTESIAN_POINT ( 'NONE',  ( 1.600000000000000755, -0.9237604307034027462, -0.1429062359632670975 ) ) ;
#228 = ORIENTED_EDGE ( 'NONE', *, *, #617, .F. ) ;
#229 = CARTESIAN_POINT ( 'NONE',  ( 0.000000000000000000, 0.000000000000000000, -1.000000000000000000 ) ) ;
#230 = ORIENTED_EDGE ( 'NONE', *, *, #316, .F. ) ;
#231 = FACE_OUTER_BOUND ( 'NONE', #627, .T. ) ;
#232 = DIRECTION ( 'NONE',  ( 0.000000000000000000, 0.000000000000000000, 1.000000000000000000 ) ) ;
#233 = CIRCLE ( 'NONE', #94, 0.8000000000000002665 ) ;
#234 = ORIENTED_EDGE ( 'NONE', *, *, #377, .F. ) ;
#235 = CYLINDRICAL_SURFACE ( 'NONE', #566, 0.8000000000000002665 ) ;
#236 = AXIS2_PLACEMENT_3D ( 'NONE', #490, #270, #635 ) ;
#237 = CARTESIAN_POINT ( 'NONE',  ( -1.600000000000000089, 0.7743935190804223101, -0.09978772264649093948 ) ) ;
#238 = CARTESIAN_POINT ( 'NONE',  ( 1.600000000000000089, 0.9237604307034000817, -1.000000000000000000 ) ) ;
#239 = EDGE_CURVE ( 'NONE', #136, #601, #506, .T. ) ;
#240 = EDGE_LOOP ( 'NONE', ( #173 ) ) ;
#241 = DIRECTION ( 'NONE',  ( -0.000000000000000000, -0.000000000000000000, 1.000000000000000000 ) ) ;
#242 = FACE_OUTER_BOUND ( 'NONE', #582, .T. ) ;
#243 = ORIENTED_EDGE ( 'NONE', *, *, #494, .T. ) ;
#244 = DIRECTION ( 'NONE',  ( -1.000000000000000000, 0.000000000000000000, 0.000000000000000000 ) ) ;
#245 = CARTESIAN_POINT ( 'NONE',  ( -3.179231904530664980E-16, 1.847520861406804160, -1.000000000000000000 ) ) ;
#246 = VERTEX_POINT ( 'NONE', #132 ) ;
#247 = CARTESIAN_POINT ( 'NONE',  ( 0.5284225537932120131, -1.542435957728427010, -0.9999999999999988898 ) ) ;
#248 = ADVANCED_FACE ( 'NONE', ( #231, #664 ), #235, .F. ) ;
#249 = CARTESIAN_POINT ( 'NONE',  ( -1.338262825470072581, 1.074874458875185512, -0.05566051111767156279 ) ) ;
#250 = CONICAL_SURFACE ( 'NONE', #36, 1.600000000000000089, 1.047197551196595855 ) ;
#251 = DIRECTION ( 'NONE',  ( -0.000000000000000000, -0.000000000000000000, 1.000000000000000000 ) ) ;
#252 = ORIENTED_EDGE ( 'NONE', *, *, #98, .T. ) ;
#253 = CARTESIAN_POINT ( 'NONE',  ( 0.000000000000000000, 0.000000000000000000, 0.000000000000000000 ) ) ;
#254 = SURFACE_STYLE_FILL_AREA ( #186 ) ;
#255 = PRODUCT_RELATED_PRODUCT_CATEGORY ( 'part', '', ( #436 ) ) ;
#256 = B_SPLINE_CURVE_WITH_KNOTS ( 'NONE', 3,
 ( #607, #249, #346, #350 ),
 .UNSPECIFIED., .F., .F.,
 ( 4, 4 ),
 ( 2.380755436467629955E-07, 0.0009349328872549484120 ),
 .UNSPECIFIED. ) ;
#257 = VERTEX_POINT ( 'NONE', #505 ) ;
#258 = CARTESIAN_POINT ( 'NONE',  ( 1.600000000000000755, -0.9237604307034027462, -0.8570937640367328747 ) ) ;
#259 = ORIENTED_EDGE ( 'NONE', *, *, #677, .F. ) ;
#260 = CARTESIAN_POINT ( 'NONE',  ( 3.755786496842908918E-16, -1.847520861406808379, -1.000000000000000000 ) ) ;
#261 = ORIENTED_EDGE ( 'NONE', *, *, #118, .F. ) ;
#262 = EDGE_CURVE ( 'NONE', #24, #91, #139, .T. ) ;
#263 = AXIS2_PLACEMENT_3D ( 'NONE', #508, #389, #27 ) ;
#264 = DIRECTION ( 'NONE',  ( -0.8660254037844375974, -0.5000000000000016653, 0.000000000000000000 ) ) ;
#265 = VERTEX_POINT ( 'NONE', #474 ) ;
#266 = CIRCLE ( 'NONE', #154, 1.600000000000000311 ) ;
#267 = CARTESIAN_POINT ( 'NONE',  ( 0.000000000000000000, 0.000000000000000000, -0.1225363191867011453 ) ) ;
#268 = CARTESIAN_POINT ( 'NONE',  ( -1.071577446206792406, -1.228845334381783561, -1.209117271565294994E-15 ) ) ;
#269 = COLOUR_RGB ( '',0.7921568627450980005, 0.8196078431372548767, 0.9333333333333333481 ) ;
#270 = DIRECTION ( 'NONE',  ( 0.000000000000000000, -0.000000000000000000, 1.000000000000000000 ) ) ;
#271 = CARTESIAN_POINT ( 'NONE',  ( 1.600000000000000089, 0.9237604307034047446, -0.8570937640367328747 ) ) ;
#272 = ADVANCED_FACE ( 'NONE', ( #564, #411 ), #425, .F. ) ;
#273 = ORIENTED_EDGE ( 'NONE', *, *, #605, .F. ) ;
#274 = CONICAL_SURFACE ( 'NONE', #650, 1.600000000000000089, 1.047197551196595855 ) ;
#275 = CARTESIAN_POINT ( 'NONE',  ( -0.8000000000000012657, -1.385640646055101177, -1.000000000000000000 ) ) ;
#276 = AXIS2_PLACEMENT_3D ( 'NONE', #52, #678, #264 ) ;
#277 = CARTESIAN_POINT ( 'NONE',  ( 1.600000000000000311, 0.6230673364534347058, -0.06387862627818459427 ) ) ;
#278 = EDGE_CURVE ( 'NONE', #183, #307, #266, .T. ) ;
#279 = VERTEX_POINT ( 'NONE', #606 ) ;
#280 = DIRECTION ( 'NONE',  ( -1.000000000000000000, 0.000000000000000000, 0.000000000000000000 ) ) ;
#281 = EDGE_LOOP ( 'NONE', ( #683, #301, #334, #618, #68, #414 ) ) ;
#282 = CIRCLE ( 'NONE', #113, 1.600000000000000311 ) ;
#283 = UNCERTAINTY_MEASURE_WITH_UNIT (LENGTH_MEASURE( 1.000000000000000082E-05 ), #200, 'distance_accuracy_value', 'NONE');
#284 = VERTEX_POINT ( 'NONE', #298 ) ;
#285 = AXIS2_PLACEMENT_3D ( 'NONE', #15, #653, #244 ) ;
#286 = CARTESIAN_POINT ( 'NONE',  ( 0.000000000000000000, 0.000000000000000000, -1.000000000000000000 ) ) ;
#287 = B_SPLINE_CURVE_WITH_KNOTS ( 'NONE', 3,
 ( #401, #176, #194, #516 ),
 .UNSPECIFIED., .F., .F.,
 ( 4, 4 ),
 ( 0.0009349328872549484120, 0.001866139041432150411 ),
 .UNSPECIFIED. ) ;
#288 = CYLINDRICAL_SURFACE ( 'NONE', #203, 0.6250000000000000000 ) ;
#289 = CARTESIAN_POINT ( 'NONE',  ( 1.600000000000000311, 0.3145099200351568203, -0.9862110889490935950 ) ) ;
#290 = EDGE_LOOP ( 'NONE', ( #252 ) ) ;
#291 = CARTESIAN_POINT ( 'NONE',  ( 0.000000000000000000, 0.000000000000000000, -1.000000000000000000 ) ) ;
#292 = ADVANCED_FACE ( 'NONE', ( #394 ), #180, .T. ) ;
#293 = EDGE_LOOP ( 'NONE', ( #29, #510, #297, #659, #679, #198 ) ) ;
#294 = DIRECTION ( 'NONE',  ( -1.000000000000000000, 0.000000000000000000, 0.000000000000000000 ) ) ;
#295 = CARTESIAN_POINT ( 'NONE',  ( -1.600000000000000089, 0.000000000000000000, 0.000000000000000000 ) ) ;
#296 = CARTESIAN_POINT ( 'NONE',  ( 1.600000000000000089, 0.9237604307034000817, -1.000000000000000000 ) ) ;
#297 = ORIENTED_EDGE ( 'NONE', *, *, #527, .T. ) ;
#298 = CARTESIAN_POINT ( 'NONE',  ( -1.600000000000000089, -0.9237604307034047446, -0.8570937640367328747 ) ) ;
#299 = CARTESIAN_POINT ( 'NONE',  ( -1.600000000000000089, 0.000000000000000000, 0.000000000000000000 ) ) ;
#300 = B_SPLINE_CURVE_WITH_KNOTS ( 'NONE', 3,
 ( #1, #330, #332, #537, #223, #632 ),
 .UNSPECIFIED., .F., .F.,
 ( 4, 2, 4 ),
 ( 0.001648110004698738300, 0.002115368374078844572, 0.002582626743458951279 ),
 .UNSPECIFIED. ) ;
#301 = ORIENTED_EDGE ( 'NONE', *, *, #590, .T. ) ;
#302 = ADVANCED_FACE ( 'NONE', ( #193 ), #511, .T. ) ;
#303 = CONICAL_SURFACE ( 'NONE', #117, 1.600000000000000089, 1.047197551196595855 ) ;
#304 = DIRECTION ( 'NONE',  ( 0.000000000000000000, -0.000000000000000000, 1.000000000000000000 ) ) ;
#305 = DIRECTION ( 'NONE',  ( 1.000000000000000000, 0.000000000000000000, 0.000000000000000000 ) ) ;
#306 = B_SPLINE_CURVE_WITH_KNOTS ( 'NONE', 3,
 ( #379, #536, #433, #161 ),
 .UNSPECIFIED., .F., .F.,
 ( 4, 4 ),
 ( 0.0009349328872549539414, 0.001866139041432148676 ),
 .UNSPECIFIED. ) ;
#307 = VERTEX_POINT ( 'NONE', #358 ) ;
#308 = CARTESIAN_POINT ( 'NONE',  ( -1.600000000000000089, -0.9237604307034047446, -0.1429062359632670975 ) ) ;
#309 = SURFACE_SIDE_STYLE ('',( #254 ) ) ;
#310 = AXIS2_PLACEMENT_3D ( 'NONE', #158, #162, #532 ) ;
#311 = ORIENTED_EDGE ( 'NONE', *, *, #385, .F. ) ;
#312 = LINE ( 'NONE', #521, #612 ) ;
#313 = APPLICATION_PROTOCOL_DEFINITION ( 'draft international standard', 'automotive_design', 1998, #42 ) ;
#314 = CARTESIAN_POINT ( 'NONE',  ( 0.8000000000000022649, -1.385640646055100511, -1.000000000000000000 ) ) ;
#315 =( LENGTH_UNIT ( ) NAMED_UNIT ( * ) SI_UNIT ( .MILLI., .METRE. ) );
#316 = EDGE_CURVE ( 'NONE', #307, #601, #86, .T. ) ;
#317 = CARTESIAN_POINT ( 'NONE',  ( -1.600000000000000089, -0.9237604307034047446, -0.1429062359632670975 ) ) ;
#318 = ORIENTED_EDGE ( 'NONE', *, *, #687, .T. ) ;
#319 = DIRECTION ( 'NONE',  ( -1.000000000000000000, 0.000000000000000000, 0.000000000000000000 ) ) ;
#320 = VERTEX_POINT ( 'NONE', #39 ) ;
#321 = CARTESIAN_POINT ( 'NONE',  ( 0.000000000000000000, 0.000000000000000000, -1.000000000000000000 ) ) ;
#322 = CARTESIAN_POINT ( 'NONE',  ( -0.5274051198989552214, -1.543023373461158920, -0.9999999999999986677 ) ) ;
#323 = DIRECTION ( 'NONE',  ( 1.000000000000000000, 0.000000000000000000, 0.000000000000000000 ) ) ;
#324 = DIRECTION ( 'NONE',  ( 1.000000000000000000, 0.000000000000000000, 0.000000000000000000 ) ) ;
#325 = CARTESIAN_POINT ( 'NONE',  ( -5.421010862427522170E-16, 1.847520861406803938, -0.1429062359632670975 ) ) ;
#326 = EDGE_CURVE ( 'NONE', #91, #170, #388, .T. ) ;
#327 = B_SPLINE_CURVE_WITH_KNOTS ( 'NONE', 3,
 ( #106, #631, #322, #633 ),
 .UNSPECIFIED., .F., .F.,
 ( 4, 4 ),
 ( 2.380755436546126352E-07, 0.0009349328872549553509 ),
 .UNSPECIFIED. ) ;
#328 = DIRECTION ( 'NONE',  ( 0.000000000000000000, 0.000000000000000000, -1.000000000000000000 ) ) ;
#329 = AXIS2_PLACEMENT_3D ( 'NONE', #34, #339, #616 ) ;
#330 = CARTESIAN_POINT ( 'NONE',  ( -1.599999999999999867, -0.7735182806158374946, -0.9004649369350822274 ) ) ;
#331 = CONICAL_SURFACE ( 'NONE', #263, 0.8000000000000003775, 0.9599310885968868057 ) ;
#332 = CARTESIAN_POINT ( 'NONE',  ( -1.600000000000000311, -0.6196408451756382219, -0.9368418645616454210 ) ) ;
#333 = CARTESIAN_POINT ( 'NONE',  ( 1.600000000000000311, -0.6196408451756361124, -0.06315813543835423205 ) ) ;
#334 = ORIENTED_EDGE ( 'NONE', *, *, #571, .T. ) ;
#335 = CARTESIAN_POINT ( 'NONE',  ( 0.000000000000000000, 0.000000000000000000, -1.000000000000000000 ) ) ;
#336 = ORIENTED_EDGE ( 'NONE', *, *, #168, .T. ) ;
#337 = AXIS2_PLACEMENT_3D ( 'NONE', #166, #384, #437 ) ;
#338 = PRODUCT_DEFINITION_SHAPE ( 'NONE', 'NONE',  #101 ) ;
#339 = DIRECTION ( 'NONE',  ( 0.000000000000000000, 0.000000000000000000, -1.000000000000000000 ) ) ;
#340 = B_SPLINE_CURVE_WITH_KNOTS ( 'NONE', 3,
 ( #67, #644, #289, #35, #361, #365 ),
 .UNSPECIFIED., .F., .F.,
 ( 4, 2, 4 ),
 ( 0.002582626743458949544, 0.003050162727514653047, 0.003517698711570356983 ),
 .UNSPECIFIED. ) ;
#341 = PLANE ( 'NONE',  #225 ) ;
#342 = EDGE_LOOP ( 'NONE', ( #61, #11, #452 ) ) ;
#343 = CONICAL_SURFACE ( 'NONE', #434, 1.600000000000000089, 1.047197551196595855 ) ;
#344 = EDGE_CURVE ( 'NONE', #417, #24, #4, .T. ) ;
#345 = DIRECTION ( 'NONE',  ( 1.000000000000000000, 0.000000000000000000, 0.000000000000000000 ) ) ;
#346 = CARTESIAN_POINT ( 'NONE',  ( -1.072594880101050974, 1.228257918649045433, 1.137139819653080281E-15 ) ) ;
#347 = CARTESIAN_POINT ( 'NONE',  ( -1.600000000000000089, 0.000000000000000000, -1.000000000000000000 ) ) ;
#348 = EDGE_LOOP ( 'NONE', ( #614 ) ) ;
#349 = DIRECTION ( 'NONE',  ( -0.000000000000000000, -0.000000000000000000, 1.000000000000000000 ) ) ;
#350 = CARTESIAN_POINT ( 'NONE',  ( -0.8000000000000028200, 1.385640646055100289, 0.000000000000000000 ) ) ;
#351 = CARTESIAN_POINT ( 'NONE',  ( -1.600000000000000089, 0.9237604307034047446, -0.8570937640367328747 ) ) ;
#352 = AXIS2_PLACEMENT_3D ( 'NONE', #90, #565, #305 ) ;
#353 = ORIENTED_EDGE ( 'NONE', *, *, #478, .T. ) ;
#354 = CARTESIAN_POINT ( 'NONE',  ( 0.000000000000000000, 0.000000000000000000, -25.03750572909317285 ) ) ;
#355 = FACE_OUTER_BOUND ( 'NONE', #77, .T. ) ;
#356 = EDGE_CURVE ( 'NONE', #91, #597, #12, .T. ) ;
#357 = EDGE_LOOP ( 'NONE', ( #33 ) ) ;
#358 = CARTESIAN_POINT ( 'NONE',  ( 0.8000000000000022649, -1.385640646055100511, 0.000000000000000000 ) ) ;
#359 = DIRECTION ( 'NONE',  ( -1.000000000000000000, 0.000000000000000000, 0.000000000000000000 ) ) ;
#360 = B_SPLINE_CURVE_WITH_KNOTS ( 'NONE', 3,
 ( #295, #502, #124, #20, #237, #507 ),
 .UNSPECIFIED., .F., .F.,
 ( 4, 2, 4 ),
 ( 0.002582626743458951279, 0.003050162727514652179, 0.003517698711570353513 ),
 .UNSPECIFIED. ) ;
#361 = CARTESIAN_POINT ( 'NONE',  ( 1.600000000000000089, 0.7743935190804270841, -0.9002122773535078393 ) ) ;
#362 = EDGE_LOOP ( 'NONE', ( #188, #448, #192 ) ) ;
#363 = CARTESIAN_POINT ( 'NONE',  ( 0.8000000000000022649, -1.385640646055100511, 0.000000000000000000 ) ) ;
#364 = SURFACE_STYLE_USAGE ( .BOTH. , #309 ) ;
#365 = CARTESIAN_POINT ( 'NONE',  ( 1.600000000000000089, 0.9237604307034047446, -0.8570937640367328747 ) ) ;
#366 = EDGE_LOOP ( 'NONE', ( #513, #259, #230, #467, #410, #504 ) ) ;
#367 = PLANE ( 'NONE',  #580 ) ;
#368 = ORIENTED_EDGE ( 'NONE', *, *, #165, .T. ) ;
#369 = CARTESIAN_POINT ( 'NONE',  ( -1.338915011469750116, -1.074497919112715527, -0.9441220935479875953 ) ) ;
#370 = EDGE_CURVE ( 'NONE', #257, #476, #149, .T. ) ;
#371 = AXIS2_PLACEMENT_3D ( 'NONE', #187, #613, #657 ) ;
#372 = ORIENTED_EDGE ( 'NONE', *, *, #239, .T. ) ;
#373 = CARTESIAN_POINT ( 'NONE',  ( -5.421010862427522170E-16, 1.847520861406803938, -0.1429062359632670975 ) ) ;
#374 = LINE ( 'NONE', #584, #135 ) ;
#375 = PLANE ( 'NONE',  #71 ) ;
#376 = LINE ( 'NONE', #686, #46 ) ;
#377 = EDGE_CURVE ( 'NONE', #320, #320, #28, .T. ) ;
#378 = ORIENTED_EDGE ( 'NONE', *, *, #385, .T. ) ;
#379 = CARTESIAN_POINT ( 'NONE',  ( 0.8000000000000019318, 1.385640646055100733, 0.000000000000000000 ) ) ;
#380 = AXIS2_PLACEMENT_3D ( 'NONE', #128, #497, #179 ) ;
#381 = CARTESIAN_POINT ( 'NONE',  ( 0.8000000000000022649, -1.385640646055100511, -1.000000000000000000 ) ) ;
#382 = PRODUCT_DEFINITION_CONTEXT ( 'detailed design', #42, 'design' ) ;
#383 = EDGE_LOOP ( 'NONE', ( #500 ) ) ;
#384 = DIRECTION ( 'NONE',  ( -0.000000000000000000, -0.000000000000000000, 1.000000000000000000 ) ) ;
#385 = EDGE_CURVE ( 'NONE', #170, #24, #327, .T. ) ;
#386 = PLANE ( 'NONE',  #503 ) ;
#387 = AXIS2_PLACEMENT_3D ( 'NONE', #286, #241, #408 ) ;
#388 = B_SPLINE_CURVE_WITH_KNOTS ( 'NONE', 3,
 ( #515, #247, #558, #123 ),
 .UNSPECIFIED., .F., .F.,
 ( 4, 4 ),
 ( 0.0009349328872549466773, 0.001866139041432153013 ),
 .UNSPECIFIED. ) ;
#389 = DIRECTION ( 'NONE',  ( 0.000000000000000000, 0.000000000000000000, -1.000000000000000000 ) ) ;
#390 = ORIENTED_EDGE ( 'NONE', *, *, #509, .F. ) ;
#391 = EDGE_CURVE ( 'NONE', #481, #122, #427, .T. ) ;
#392 = ORIENTED_EDGE ( 'NONE', *, *, #344, .F. ) ;
#393 = CIRCLE ( 'NONE', #51, 0.6250000000000000000 ) ;
#394 = FACE_OUTER_BOUND ( 'NONE', #126, .T. ) ;
#395 = CARTESIAN_POINT ( 'NONE',  ( -0.8000000000000028200, 1.385640646055100289, 0.000000000000000000 ) ) ;
#396 = CARTESIAN_POINT ( 'NONE',  ( 1.599999999999999867, -0.7735182806158358293, -0.09953506306491714806 ) ) ;
#397 = ORIENTED_EDGE ( 'NONE', *, *, #145, .T. ) ;
#398 = APPLICATION_CONTEXT ( 'automotive_design' ) ;
#399 = AXIS2_PLACEMENT_3D ( 'NONE', #141, #304, #550 ) ;
#400 = CARTESIAN_POINT ( 'NONE',  ( 0.8000000000000019318, 1.385640646055100733, -1.000000000000000000 ) ) ;
#401 = CARTESIAN_POINT ( 'NONE',  ( -0.8000000000000028200, 1.385640646055100289, -1.000000000000000000 ) ) ;
#402 = CARTESIAN_POINT ( 'NONE',  ( -5.963111948670274387E-15, -1.847520861406803938, -0.1429062359632670975 ) ) ;
#403 = VERTEX_POINT ( 'NONE', #419 ) ;
#404 = CARTESIAN_POINT ( 'NONE',  ( -5.963111948670274387E-15, -1.847520861406803938, -0.1429062359632670975 ) ) ;
#405 = ADVANCED_FACE ( 'NONE', ( #159 ), #375, .T. ) ;
#406 = CARTESIAN_POINT ( 'NONE',  ( -1.600000000000000089, 0.9237604307033987494, -1.000000000000000000 ) ) ;
#407 = ORIENTED_EDGE ( 'NONE', *, *, #391, .T. ) ;
#408 = DIRECTION ( 'NONE',  ( 1.000000000000000000, 0.000000000000000000, 0.000000000000000000 ) ) ;
#409 = CARTESIAN_POINT ( 'NONE',  ( 1.599999999999999867, -0.7735182806158358293, -0.9004649369350827826 ) ) ;
#410 = ORIENTED_EDGE ( 'NONE', *, *, #617, .T. ) ;
#411 = FACE_BOUND ( 'NONE', #290, .T. ) ;
#412 = AXIS2_PLACEMENT_3D ( 'NONE', #78, #174, #345 ) ;
#413 = CARTESIAN_POINT ( 'NONE',  ( -0.2610849885302525819, 1.696783372997491934, -0.05587790645201087120 ) ) ;
#414 = ORIENTED_EDGE ( 'NONE', *, *, #640, .F. ) ;
#415 = CARTESIAN_POINT ( 'NONE',  ( 1.072594880101052084, -1.228257918649049429, -1.127454255185725893E-15 ) ) ;
#416 =( NAMED_UNIT ( * ) SI_UNIT ( $, .STERADIAN. ) SOLID_ANGLE_UNIT ( ) );
#417 = VERTEX_POINT ( 'NONE', #685 ) ;
#418 = EDGE_CURVE ( 'NONE', #24, #284, #197, .T. ) ;
#419 = CARTESIAN_POINT ( 'NONE',  ( -1.600000000000000089, 0.9237604307034047446, -0.8570937640367328747 ) ) ;
#420 = CARTESIAN_POINT ( 'NONE',  ( -0.8000000000000002665, 0.000000000000000000, -1.000000000000000888 ) ) ;
#421 = AXIS2_PLACEMENT_3D ( 'NONE', #5, #110, #324 ) ;
#422 = ORIENTED_EDGE ( 'NONE', *, *, #356, .T. ) ;
#423 = ADVANCED_FACE ( 'NONE', ( #430 ), #343, .T. ) ;
#424 = DIRECTION ( 'NONE',  ( 0.000000000000000000, 0.000000000000000000, 1.000000000000000000 ) ) ;
#425 = CONICAL_SURFACE ( 'NONE', #209, 0.6074999999999999289, 0.9599310885968739271 ) ;
#426 = ORIENTED_EDGE ( 'NONE', *, *, #208, .T. ) ;
#427 = LINE ( 'NONE', #529, #458 ) ;
#428 = EDGE_CURVE ( 'NONE', #122, #307, #56, .T. ) ;
#429 = ORIENTED_EDGE ( 'NONE', *, *, #527, .F. ) ;
#430 = FACE_OUTER_BOUND ( 'NONE', #342, .T. ) ;
#431 = ADVANCED_FACE ( 'NONE', ( #585, #54 ), #367, .F. ) ;
#432 = DIRECTION ( 'NONE',  ( -1.000000000000000000, 0.000000000000000000, 0.000000000000000000 ) ) ;
#433 = CARTESIAN_POINT ( 'NONE',  ( 1.338915011469748340, 1.074497919112711752, -0.05587790645201016343 ) ) ;
#434 = AXIS2_PLACEMENT_3D ( 'NONE', #253, #533, #319 ) ;
#435 = CARTESIAN_POINT ( 'NONE',  ( 1.600000000000000089, 0.000000000000000000, 0.000000000000000000 ) ) ;
#436 = PRODUCT ( 'ISO - 4035 - M1.6 - N_ISO - 4035 - M1.6 - N', 'ISO - 4035 - M1.6 - N_ISO - 4035 - M1.6 - N', '', ( #142 ) ) ;
#437 = DIRECTION ( 'NONE',  ( 1.000000000000000000, 0.000000000000000000, 0.000000000000000000 ) ) ;
#438 = ORIENTED_EDGE ( 'NONE', *, *, #571, .F. ) ;
#439 = EDGE_CURVE ( 'NONE', #601, #279, #483, .T. ) ;
#440 = DIRECTION ( 'NONE',  ( -0.000000000000000000, -0.000000000000000000, 1.000000000000000000 ) ) ;
#441 = CIRCLE ( 'NONE', #236, 1.600000000000000311 ) ;
#442 = FACE_OUTER_BOUND ( 'NONE', #293, .T. ) ;
#443 = AXIS2_PLACEMENT_3D ( 'NONE', #40, #251, #670 ) ;
#444 = EDGE_LOOP ( 'NONE', ( #624, #528, #671 ) ) ;
#445 = ADVANCED_FACE ( 'NONE', ( #518 ), #38, .T. ) ;
#446 = PRESENTATION_LAYER_ASSIGNMENT (  '', '', ( #684 ) ) ;
#447 = CARTESIAN_POINT ( 'NONE',  ( -1.600000000000000089, 0.9237604307033987494, -0.1429062359632653212 ) ) ;
#448 = ORIENTED_EDGE ( 'NONE', *, *, #239, .F. ) ;
#449 = CARTESIAN_POINT ( 'NONE',  ( -5.421010862427522170E-16, 1.847520861406803938, -0.8570937640367328747 ) ) ;
#450 = DIRECTION ( 'NONE',  ( 0.000000000000000000, 0.000000000000000000, -1.000000000000000000 ) ) ;
#451 = AXIS2_PLACEMENT_3D ( 'NONE', #202, #626, #579 ) ;
#452 = ORIENTED_EDGE ( 'NONE', *, *, #439, .F. ) ;
#453 = DIRECTION ( 'NONE',  ( -1.000000000000000000, 0.000000000000000000, 0.000000000000000000 ) ) ;
#454 = DIRECTION ( 'NONE',  ( 1.000000000000000000, 0.000000000000000000, 0.000000000000000000 ) ) ;
#455 = CARTESIAN_POINT ( 'NONE',  ( -1.600000000000000311, 0.3145099200351572089, -0.9862110889490935950 ) ) ;
#456 = B_SPLINE_CURVE_WITH_KNOTS ( 'NONE', 3,
 ( #569, #665, #120, #551 ),
 .UNSPECIFIED., .F., .F.,
 ( 4, 4 ),
 ( 2.380755436493196851E-07, 0.0009349328872549484120 ),
 .UNSPECIFIED. ) ;
#457 = ORIENTED_EDGE ( 'NONE', *, *, #514, .T. ) ;
#458 = VECTOR ( 'NONE', #424, 1000.000000000000000 ) ;
#459 = CARTESIAN_POINT ( 'NONE',  ( -0.5284225537932117911, 1.542435957728422569, 1.117001398118720324E-15 ) ) ;
#460 = B_SPLINE_CURVE_WITH_KNOTS ( 'NONE', 3,
 ( #317, #466, #196, #205, #526, #623 ),
 .UNSPECIFIED., .F., .F.,
 ( 4, 2, 4 ),
 ( 0.001648110004698738300, 0.002115368374078844572, 0.002582626743458951279 ),
 .UNSPECIFIED. ) ;
#461 = MECHANICAL_DESIGN_GEOMETRIC_PRESENTATION_REPRESENTATION (  '', ( #684 ), #471 ) ;
#462 = ORIENTED_EDGE ( 'NONE', *, *, #687, .F. ) ;
#463 = CARTESIAN_POINT ( 'NONE',  ( 1.600000000000000089, -0.1561003209258198243, -1.000000000000000000 ) ) ;
#464 = ORIENTED_EDGE ( 'NONE', *, *, #220, .T. ) ;
#465 = CARTESIAN_POINT ( 'NONE',  ( 1.600000000000000089, 0.000000000000000000, -1.000000000000000000 ) ) ;
#466 = CARTESIAN_POINT ( 'NONE',  ( -1.599999999999999867, -0.7735182806158376057, -0.09953506306491761990 ) ) ;
#467 = ORIENTED_EDGE ( 'NONE', *, *, #278, .F. ) ;
#468 = CARTESIAN_POINT ( 'NONE',  ( 1.338262825470073691, -1.074874458875189287, -0.05566051111767352649 ) ) ;
#469 = ADVANCED_FACE ( 'NONE', ( #669 ), #216, .T. ) ;
#470 = EDGE_LOOP ( 'NONE', ( #652, #378, #14 ) ) ;
#471 =( GEOMETRIC_REPRESENTATION_CONTEXT ( 3 ) GLOBAL_UNCERTAINTY_ASSIGNED_CONTEXT ( ( #283 ) ) GLOBAL_UNIT_ASSIGNED_CONTEXT ( ( #200, #681, #416 ) ) REPRESENTATION_CONTEXT ( 'NONE', 'WORKASPACE' ) );
#472 = DIRECTION ( 'NONE',  ( -1.000000000000000000, 0.000000000000000000, 0.000000000000000000 ) ) ;
#473 = CARTESIAN_POINT ( 'NONE',  ( -0.8000000000000012657, -1.385640646055101177, -1.000000000000000000 ) ) ;
#474 = CARTESIAN_POINT ( 'NONE',  ( 0.8000000000000000444, 0.000000000000000000, 0.000000000000000000 ) ) ;
#475 = CLOSED_SHELL ( 'NONE', ( #651, #445, #157, #104, #405, #488, #302, #431, #22, #55, #45, #292, #134, #114, #9, #423, #81, #469, #226, #594, #661, #272, #184, #248 ) ) ;
#476 = VERTEX_POINT ( 'NONE', #576 ) ;
#477 = CARTESIAN_POINT ( 'NONE',  ( 1.600000000000000755, -0.9237604307034027462, -0.8570937640367328747 ) ) ;
#478 = EDGE_CURVE ( 'NONE', #170, #136, #312, .T. ) ;
#479 = DIRECTION ( 'NONE',  ( 0.000000000000000000, 0.000000000000000000, 1.000000000000000000 ) ) ;
#480 = AXIS2_PLACEMENT_3D ( 'NONE', #568, #89, #453 ) ;
#481 = VERTEX_POINT ( 'NONE', #258 ) ;
#482 = CARTESIAN_POINT ( 'NONE',  ( -1.600000000000000089, -0.9237604307034047446, -0.8570937640367328747 ) ) ;
#483 = B_SPLINE_CURVE_WITH_KNOTS ( 'NONE', 3,
 ( #628, #268, #92, #308 ),
 .UNSPECIFIED., .F., .F.,
 ( 4, 4 ),
 ( 0.0009349328872549552425, 0.001866139041432149977 ),
 .UNSPECIFIED. ) ;
#484 = CARTESIAN_POINT ( 'NONE',  ( -0.6250000000000000000, 0.000000000000000000, -0.8520636808133010831 ) ) ;
#485 = EDGE_LOOP ( 'NONE', ( #102, #99, #18 ) ) ;
#486 = DIRECTION ( 'NONE',  ( -1.000000000000000000, 0.000000000000000000, 0.000000000000000000 ) ) ;
#487 = EDGE_LOOP ( 'NONE', ( #261, #50, #83, #426, #520, #213 ) ) ;
#488 = ADVANCED_FACE ( 'NONE', ( #672 ), #524, .T. ) ;
#489 = CARTESIAN_POINT ( 'NONE',  ( 1.600000000000000311, 0.1561930656315214383, -4.517509052022936426E-18 ) ) ;
#490 = CARTESIAN_POINT ( 'NONE',  ( 0.000000000000000000, 0.000000000000000000, -1.000000000000000000 ) ) ;
#491 = FACE_OUTER_BOUND ( 'NONE', #470, .T. ) ;
#492 = B_SPLINE_CURVE_WITH_KNOTS ( 'NONE', 3,
 ( #85, #409, #498, #512, #463, #559 ),
 .UNSPECIFIED., .F., .F.,
 ( 4, 2, 4 ),
 ( 0.001648110004698739167, 0.002115368374078844572, 0.002582626743458949544 ),
 .UNSPECIFIED. ) ;
#493 = EDGE_LOOP ( 'NONE', ( #228, #151, #429 ) ) ;
#494 = EDGE_CURVE ( 'NONE', #481, #91, #143, .T. ) ;
#495 = DIRECTION ( 'NONE',  ( 1.000000000000000000, 0.000000000000000000, 0.000000000000000000 ) ) ;
#496 = EDGE_LOOP ( 'NONE', ( #557, #397, #336 ) ) ;
#497 = DIRECTION ( 'NONE',  ( 0.000000000000000000, -0.000000000000000000, 1.000000000000000000 ) ) ;
#498 = CARTESIAN_POINT ( 'NONE',  ( 1.600000000000000311, -0.6196408451756361124, -0.9368418645616459761 ) ) ;
#499 = CARTESIAN_POINT ( 'NONE',  ( 0.5284225537932120131, -1.542435957728427010, -1.187869519788805764E-15 ) ) ;
#500 = ORIENTED_EDGE ( 'NONE', *, *, #546, .T. ) ;
#501 = CARTESIAN_POINT ( 'NONE',  ( -1.600000000000000089, 0.9237604307033987494, -1.000000000000000000 ) ) ;
#502 = CARTESIAN_POINT ( 'NONE',  ( -1.599999999999999867, 0.1561930656315202171, 1.905824131322174993E-18 ) ) ;
#503 = AXIS2_PLACEMENT_3D ( 'NONE', #296, #596, #172 ) ;
#504 = ORIENTED_EDGE ( 'NONE', *, *, #195, .F. ) ;
#505 = CARTESIAN_POINT ( 'NONE',  ( -5.421010862427522170E-16, 1.847520861406803938, -0.8570937640367328747 ) ) ;
#506 = B_SPLINE_CURVE_WITH_KNOTS ( 'NONE', 3,
 ( #404, #70, #31, #185 ),
 .UNSPECIFIED., .F., .F.,
 ( 4, 4 ),
 ( 2.380755436546116028E-07, 0.0009349328872549552425 ),
 .UNSPECIFIED. ) ;
#507 = CARTESIAN_POINT ( 'NONE',  ( -1.600000000000000089, 0.9237604307033987494, -0.1429062359632653212 ) ) ;
#508 = CARTESIAN_POINT ( 'NONE',  ( 0.000000000000000000, 0.000000000000000000, -0.9745999999999990226 ) ) ;
#509 = EDGE_CURVE ( 'NONE', #523, #544, #171, .T. ) ;
#510 = ORIENTED_EDGE ( 'NONE', *, *, #509, .T. ) ;
#511 = PLANE ( 'NONE',  #667 ) ;
#512 = CARTESIAN_POINT ( 'NONE',  ( 1.600000000000000089, -0.3111893021712296981, -0.9865822595673500173 ) ) ;
#513 = ORIENTED_EDGE ( 'NONE', *, *, #514, .F. ) ;
#514 = EDGE_CURVE ( 'NONE', #563, #246, #561, .T. ) ;
#515 = CARTESIAN_POINT ( 'NONE',  ( 0.8000000000000022649, -1.385640646055100511, -1.000000000000000000 ) ) ;
#516 = CARTESIAN_POINT ( 'NONE',  ( -5.421010862427522170E-16, 1.847520861406803938, -0.8570937640367328747 ) ) ;
#517 = ORIENTED_EDGE ( 'NONE', *, *, #17, .F. ) ;
#518 = FACE_OUTER_BOUND ( 'NONE', #281, .T. ) ;
#519 = EDGE_CURVE ( 'NONE', #476, #206, #573, .T. ) ;
#520 = ORIENTED_EDGE ( 'NONE', *, *, #87, .T. ) ;
#521 = CARTESIAN_POINT ( 'NONE',  ( 3.755786496842908918E-16, -1.847520861406808379, -1.000000000000000000 ) ) ;
#522 = SHAPE_DEFINITION_REPRESENTATION ( #338, #191 ) ;
#523 = VERTEX_POINT ( 'NONE', #325 ) ;
#524 = PLANE ( 'NONE',  #451 ) ;
#525 = APPLICATION_PROTOCOL_DEFINITION ( 'draft international standard', 'automotive_design', 1998, #398 ) ;
#526 = CARTESIAN_POINT ( 'NONE',  ( -1.600000000000000089, -0.1561003209258203794, -4.658681209898649554E-18 ) ) ;
#527 = EDGE_CURVE ( 'NONE', #544, #549, #306, .T. ) ;
#528 = ORIENTED_EDGE ( 'NONE', *, *, #17, .T. ) ;
#529 = CARTESIAN_POINT ( 'NONE',  ( 1.600000000000000089, -0.9237604307034037454, -1.000000000000000000 ) ) ;
#530 = DIRECTION ( 'NONE',  ( -0.000000000000000000, 0.000000000000000000, -1.000000000000000000 ) ) ;
#531 = CONICAL_SURFACE ( 'NONE', #421, 1.600000000000000089, 1.047197551196595855 ) ;
#532 = DIRECTION ( 'NONE',  ( -1.000000000000000000, 0.000000000000000000, 0.000000000000000000 ) ) ;
#533 = DIRECTION ( 'NONE',  ( 0.000000000000000000, 0.000000000000000000, -1.000000000000000000 ) ) ;
#534 = VERTEX_POINT ( 'NONE', #484 ) ;
#535 = DIRECTION ( 'NONE',  ( -1.000000000000000000, 0.000000000000000000, 0.000000000000000000 ) ) ;
#536 = CARTESIAN_POINT ( 'NONE',  ( 1.071577446206790851, 1.228845334381779786, 8.766660723135531407E-16 ) ) ;
#537 = CARTESIAN_POINT ( 'NONE',  ( -1.600000000000000089, -0.3111893021712310858, -0.9865822595673497952 ) ) ;
#538 = B_SPLINE_CURVE_WITH_KNOTS ( 'NONE', 3,
 ( #395, #459, #413, #138 ),
 .UNSPECIFIED., .F., .F.,
 ( 4, 4 ),
 ( 0.0009349328872549484120, 0.001866139041432150411 ),
 .UNSPECIFIED. ) ;
#539 = CONICAL_SURFACE ( 'NONE', #329, 1.600000000000000089, 1.047197551196595855 ) ;
#540 = EDGE_CURVE ( 'NONE', #43, #257, #287, .T. ) ;
#541 = AXIS2_PLACEMENT_3D ( 'NONE', #111, #60, #535 ) ;
#542 = EDGE_LOOP ( 'NONE', ( #567 ) ) ;
#543 = DIRECTION ( 'NONE',  ( -0.000000000000000000, -0.000000000000000000, 1.000000000000000000 ) ) ;
#544 = VERTEX_POINT ( 'NONE', #219 ) ;
#545 = CARTESIAN_POINT ( 'NONE',  ( -5.963111948670274387E-15, -1.847520861406803938, -0.1429062359632670975 ) ) ;
#546 = EDGE_CURVE ( 'NONE', #577, #577, #233, .T. ) ;
#547 = ORIENTED_EDGE ( 'NONE', *, *, #168, .F. ) ;
#548 = CARTESIAN_POINT ( 'NONE',  ( 1.600000000000000089, 0.9237604307034047446, -0.8570937640367328747 ) ) ;
#549 = VERTEX_POINT ( 'NONE', #658 ) ;
#550 = DIRECTION ( 'NONE',  ( -1.000000000000000000, 0.000000000000000000, 0.000000000000000000 ) ) ;
#551 = CARTESIAN_POINT ( 'NONE',  ( -0.8000000000000028200, 1.385640646055100289, -1.000000000000000000 ) ) ;
#552 = DIRECTION ( 'NONE',  ( -1.000000000000000000, 0.000000000000000000, 0.000000000000000000 ) ) ;
#553 = ORIENTED_EDGE ( 'NONE', *, *, #326, .F. ) ;
#554 = CARTESIAN_POINT ( 'NONE',  ( 0.2617371745299287844, 1.696406833235017286, -0.9443394888823277711 ) ) ;
#555 = FACE_OUTER_BOUND ( 'NONE', #348, .T. ) ;
#556 = CARTESIAN_POINT ( 'NONE',  ( 0.000000000000000000, 0.000000000000000000, -1.000000000000000000 ) ) ;
#557 = ORIENTED_EDGE ( 'NONE', *, *, #640, .T. ) ;
#558 = CARTESIAN_POINT ( 'NONE',  ( 0.2610849885302512496, -1.696783372997496819, -0.9441220935479864851 ) ) ;
#559 = CARTESIAN_POINT ( 'NONE',  ( 1.600000000000000089, 0.000000000000000000, -1.000000000000000000 ) ) ;
#560 = EDGE_CURVE ( 'NONE', #597, #476, #574, .T. ) ;
#561 = CIRCLE ( 'NONE', #639, 1.600000000000000311 ) ;
#562 = CARTESIAN_POINT ( 'NONE',  ( -5.963111948670274387E-15, -1.847520861406803938, -0.8570937640367328747 ) ) ;
#563 = VERTEX_POINT ( 'NONE', #299 ) ;
#564 = FACE_OUTER_BOUND ( 'NONE', #357, .T. ) ;
#565 = DIRECTION ( 'NONE',  ( -0.000000000000000000, -0.000000000000000000, 1.000000000000000000 ) ) ;
#566 = AXIS2_PLACEMENT_3D ( 'NONE', #354, #75, #25 ) ;
#567 = ORIENTED_EDGE ( 'NONE', *, *, #212, .F. ) ;
#568 = CARTESIAN_POINT ( 'NONE',  ( 0.000000000000000000, 0.000000000000000000, 0.000000000000000000 ) ) ;
#569 = CARTESIAN_POINT ( 'NONE',  ( -1.600000000000000089, 0.9237604307034047446, -0.8570937640367328747 ) ) ;
#570 = EDGE_LOOP ( 'NONE', ( #318, #464, #37, #105, #547, #517 ) ) ;
#571 = EDGE_CURVE ( 'NONE', #246, #523, #538, .T. ) ;
#572 = DIRECTION ( 'NONE',  ( 0.000000000000000000, 0.000000000000000000, -1.000000000000000000 ) ) ;
#573 = B_SPLINE_CURVE_WITH_KNOTS ( 'NONE', 3,
 ( #2, #588, #58, #271 ),
 .UNSPECIFIED., .F., .F.,
 ( 4, 4 ),
 ( 0.0009349328872549540499, 0.001866139041432148676 ),
 .UNSPECIFIED. ) ;
#574 = CIRCLE ( 'NONE', #147, 1.600000000000000089 ) ;
#575 = ORIENTED_EDGE ( 'NONE', *, *, #262, .F. ) ;
#576 = CARTESIAN_POINT ( 'NONE',  ( 0.8000000000000019318, 1.385640646055100733, -1.000000000000000000 ) ) ;
#577 = VERTEX_POINT ( 'NONE', #420 ) ;
#578 = ORIENTED_EDGE ( 'NONE', *, *, #560, .T. ) ;
#579 = DIRECTION ( 'NONE',  ( 0.8660254037844382635, -0.5000000000000007772, 0.000000000000000000 ) ) ;
#580 = AXIS2_PLACEMENT_3D ( 'NONE', #207, #572, #97 ) ;
#581 = CARTESIAN_POINT ( 'NONE',  ( 0.6250000000000000000, 0.000000000000000000, -0.1225363191867011453 ) ) ;
#582 = EDGE_LOOP ( 'NONE', ( #273, #457, #663 ) ) ;
#583 = CARTESIAN_POINT ( 'NONE',  ( 1.072594880101052084, -1.228257918649049429, -0.9999999999999988898 ) ) ;
#584 = CARTESIAN_POINT ( 'NONE',  ( 1.600000000000000089, 0.9237604307034000817, -1.000000000000000000 ) ) ;
#585 = FACE_BOUND ( 'NONE', #542, .T. ) ;
#586 = DIRECTION ( 'NONE',  ( 0.000000000000000000, 0.000000000000000000, 1.000000000000000000 ) ) ;
#587 = CARTESIAN_POINT ( 'NONE',  ( 0.000000000000000000, 0.000000000000000000, -0.8520636808133010831 ) ) ;
#588 = CARTESIAN_POINT ( 'NONE',  ( 1.071577446206790851, 1.228845334381779786, -1.000000000000000888 ) ) ;
#589 = DIRECTION ( 'NONE',  ( 1.000000000000000000, 0.000000000000000000, 0.000000000000000000 ) ) ;
#590 = EDGE_CURVE ( 'NONE', #201, #246, #256, .T. ) ;
#591 = ORIENTED_EDGE ( 'NONE', *, *, #195, .T. ) ;
#592 = EDGE_CURVE ( 'NONE', #481, #597, #492, .T. ) ;
#593 = PLANE ( 'NONE',  #541 ) ;
#594 = ADVANCED_FACE ( 'NONE', ( #355 ), #539, .T. ) ;
#595 = DIRECTION ( 'NONE',  ( 0.000000000000000000, 0.000000000000000000, 1.000000000000000000 ) ) ;
#596 = DIRECTION ( 'NONE',  ( 0.5000000000000012212, 0.8660254037844380415, -0.000000000000000000 ) ) ;
#597 = VERTEX_POINT ( 'NONE', #465 ) ;
#598 = AXIS2_PLACEMENT_3D ( 'NONE', #199, #622, #472 ) ;
#599 = CARTESIAN_POINT ( 'NONE',  ( 1.600000000000000089, -0.1561003209258198243, 8.046812998915850140E-18 ) ) ;
#600 = CONICAL_SURFACE ( 'NONE', #21, 1.600000000000000089, 1.047197551196595855 ) ;
#601 = VERTEX_POINT ( 'NONE', #32 ) ;
#602 = DIRECTION ( 'NONE',  ( 1.000000000000000000, 0.000000000000000000, 0.000000000000000000 ) ) ;
#603 = DIRECTION ( 'NONE',  ( -1.000000000000000000, 0.000000000000000000, 0.000000000000000000 ) ) ;
#604 = ORIENTED_EDGE ( 'NONE', *, *, #560, .F. ) ;
#605 = EDGE_CURVE ( 'NONE', #563, #201, #360, .T. ) ;
#606 = CARTESIAN_POINT ( 'NONE',  ( -1.600000000000000089, -0.9237604307034047446, -0.1429062359632670975 ) ) ;
#607 = CARTESIAN_POINT ( 'NONE',  ( -1.600000000000000089, 0.9237604307033987494, -0.1429062359632653212 ) ) ;
#608 = CARTESIAN_POINT ( 'NONE',  ( -1.599999999999999867, 0.1561930656315212440, -1.000000000000000000 ) ) ;
#609 = ORIENTED_EDGE ( 'NONE', *, *, #546, .F. ) ;
#610 = B_SPLINE_CURVE_WITH_KNOTS ( 'NONE', 3,
 ( #435, #489, #160, #277, #224, #221 ),
 .UNSPECIFIED., .F., .F.,
 ( 4, 2, 4 ),
 ( 0.002582626743458949544, 0.003050162727514653480, 0.003517698711570357416 ),
 .UNSPECIFIED. ) ;
#611 = DIRECTION ( 'NONE',  ( -1.000000000000000000, 0.000000000000000000, 0.000000000000000000 ) ) ;
#612 = VECTOR ( 'NONE', #44, 1000.000000000000000 ) ;
#613 = DIRECTION ( 'NONE',  ( 0.000000000000000000, 0.000000000000000000, -1.000000000000000000 ) ) ;
#614 = ORIENTED_EDGE ( 'NONE', *, *, #98, .F. ) ;
#615 = DIRECTION ( 'NONE',  ( -1.000000000000000000, 0.000000000000000000, 0.000000000000000000 ) ) ;
#616 = DIRECTION ( 'NONE',  ( -1.000000000000000000, 0.000000000000000000, 0.000000000000000000 ) ) ;
#617 = EDGE_CURVE ( 'NONE', #183, #544, #647, .T. ) ;
#618 = ORIENTED_EDGE ( 'NONE', *, *, #629, .F. ) ;
#619 = UNCERTAINTY_MEASURE_WITH_UNIT (LENGTH_MEASURE( 1.000000000000000082E-05 ), #315, 'distance_accuracy_value', 'NONE');
#620 = DIRECTION ( 'NONE',  ( 1.000000000000000000, 0.000000000000000000, 0.000000000000000000 ) ) ;
#621 = ORIENTED_EDGE ( 'NONE', *, *, #69, .T. ) ;
#622 = DIRECTION ( 'NONE',  ( 0.000000000000000000, 0.000000000000000000, -1.000000000000000000 ) ) ;
#623 = CARTESIAN_POINT ( 'NONE',  ( -1.600000000000000089, 0.000000000000000000, 0.000000000000000000 ) ) ;
#624 = ORIENTED_EDGE ( 'NONE', *, *, #418, .T. ) ;
#625 = CONICAL_SURFACE ( 'NONE', #337, 1.600000000000000089, 1.047197551196595855 ) ;
#626 = DIRECTION ( 'NONE',  ( -0.5000000000000007772, -0.8660254037844382635, 0.000000000000000000 ) ) ;
#627 = EDGE_LOOP ( 'NONE', ( #609 ) ) ;
#628 = CARTESIAN_POINT ( 'NONE',  ( -0.8000000000000012657, -1.385640646055101177, 0.000000000000000000 ) ) ;
#629 = EDGE_CURVE ( 'NONE', #257, #523, #16, .T. ) ;
#630 = FACE_OUTER_BOUND ( 'NONE', #210, .T. ) ;
#631 = CARTESIAN_POINT ( 'NONE',  ( -0.2617371745299337249, -1.696406833235018397, -0.9443394888823265498 ) ) ;
#632 = CARTESIAN_POINT ( 'NONE',  ( -1.600000000000000089, 0.000000000000000000, -1.000000000000000000 ) ) ;
#633 = CARTESIAN_POINT ( 'NONE',  ( -0.8000000000000012657, -1.385640646055101177, -1.000000000000000000 ) ) ;
#634 = EDGE_CURVE ( 'NONE', #403, #201, #181, .T. ) ;
#635 = DIRECTION ( 'NONE',  ( -1.000000000000000000, 1.776356839400250465E-15, 0.000000000000000000 ) ) ;
#636 = ORIENTED_EDGE ( 'NONE', *, *, #428, .T. ) ;
#637 = AXIS2_PLACEMENT_3D ( 'NONE', #654, #530, #148 ) ;
#638 = ORIENTED_EDGE ( 'NONE', *, *, #540, .T. ) ;
#639 = AXIS2_PLACEMENT_3D ( 'NONE', #48, #109, #486 ) ;
#640 = EDGE_CURVE ( 'NONE', #403, #43, #456, .T. ) ;
#641 = CARTESIAN_POINT ( 'NONE',  ( 0.000000000000000000, 0.000000000000000000, 0.000000000000000000 ) ) ;
#642 = CARTESIAN_POINT ( 'NONE',  ( 1.600000000000000755, -0.9237604307034027462, -0.1429062359632670975 ) ) ;
#643 = ORIENTED_EDGE ( 'NONE', *, *, #478, .F. ) ;
#644 = CARTESIAN_POINT ( 'NONE',  ( 1.599999999999999867, 0.1561930656315213828, -1.000000000000000000 ) ) ;
#645 = ORIENTED_EDGE ( 'NONE', *, *, #519, .T. ) ;
#646 = CARTESIAN_POINT ( 'NONE',  ( 0.5274051198989518907, 1.543023373461156478, -1.000000000000000888 ) ) ;
#647 = CIRCLE ( 'NONE', #352, 1.600000000000000089 ) ;
#648 = CARTESIAN_POINT ( 'NONE',  ( 0.000000000000000000, 0.000000000000000000, -1.000000000000000888 ) ) ;
#649 = CARTESIAN_POINT ( 'NONE',  ( 1.600000000000000089, 0.000000000000000000, 0.000000000000000000 ) ) ;
#650 = AXIS2_PLACEMENT_3D ( 'NONE', #229, #440, #177 ) ;
#651 = ADVANCED_FACE ( 'NONE', ( #555, #72 ), #288, .F. ) ;
#652 = ORIENTED_EDGE ( 'NONE', *, *, #326, .T. ) ;
#653 = DIRECTION ( 'NONE',  ( 0.000000000000000000, -0.000000000000000000, 1.000000000000000000 ) ) ;
#654 = CARTESIAN_POINT ( 'NONE',  ( 0.000000000000000000, 0.000000000000000000, 0.000000000000000000 ) ) ;
#655 = CIRCLE ( 'NONE', #443, 0.8000000000000000444 ) ;
#656 = EDGE_LOOP ( 'NONE', ( #638, #88, #621 ) ) ;
#657 = DIRECTION ( 'NONE',  ( -1.000000000000000000, 0.000000000000000000, 0.000000000000000000 ) ) ;
#658 = CARTESIAN_POINT ( 'NONE',  ( 1.600000000000000089, 0.9237604307034047446, -0.1429062359632670975 ) ) ;
#659 = ORIENTED_EDGE ( 'NONE', *, *, #87, .F. ) ;
#660 = CARTESIAN_POINT ( 'NONE',  ( 0.000000000000000000, 0.000000000000000000, 0.000000000000000000 ) ) ;
#661 = ADVANCED_FACE ( 'NONE', ( #242 ), #303, .T. ) ;
#662 = DIRECTION ( 'NONE',  ( 0.000000000000000000, 0.000000000000000000, 1.000000000000000000 ) ) ;
#663 = ORIENTED_EDGE ( 'NONE', *, *, #590, .F. ) ;
#664 = FACE_OUTER_BOUND ( 'NONE', #240, .T. ) ;
#665 = CARTESIAN_POINT ( 'NONE',  ( -1.338262825470071249, 1.074874458875186178, -0.9443394888823288813 ) ) ;
#666 = AXIS2_PLACEMENT_3D ( 'NONE', #641, #167, #552 ) ;
#667 = AXIS2_PLACEMENT_3D ( 'NONE', #501, #615, #137 ) ;
#668 = ORIENTED_EDGE ( 'NONE', *, *, #356, .F. ) ;
#669 = FACE_OUTER_BOUND ( 'NONE', #485, .T. ) ;
#670 = DIRECTION ( 'NONE',  ( 1.000000000000000000, 0.000000000000000000, 0.000000000000000000 ) ) ;
#671 = ORIENTED_EDGE ( 'NONE', *, *, #344, .T. ) ;
#672 = FACE_OUTER_BOUND ( 'NONE', #119, .T. ) ;
#673 = MANIFOLD_SOLID_BREP ( 'EndChamfer', #475 ) ;
#674 = B_SPLINE_CURVE_WITH_KNOTS ( 'NONE', 3,
 ( #227, #396, #333, #182, #599, #649 ),
 .UNSPECIFIED., .F., .F.,
 ( 4, 2, 4 ),
 ( 0.001648110004698739167, 0.002115368374078844572, 0.002582626743458949544 ),
 .UNSPECIFIED. ) ;
#675 = VECTOR ( 'NONE', #76, 1000.000000000000000 ) ;
#676 = ORIENTED_EDGE ( 'NONE', *, *, #418, .F. ) ;
#677 = EDGE_CURVE ( 'NONE', #601, #563, #163, .T. ) ;
#678 = DIRECTION ( 'NONE',  ( -0.5000000000000017764, 0.8660254037844377084, 0.000000000000000000 ) ) ;
#679 = ORIENTED_EDGE ( 'NONE', *, *, #519, .F. ) ;
#680 = CARTESIAN_POINT ( 'NONE',  ( 0.5274051198989517797, 1.543023373461156478, 8.766660723135531407E-16 ) ) ;
#681 =( NAMED_UNIT ( * ) PLANE_ANGLE_UNIT ( ) SI_UNIT ( $, .RADIAN. ) );
#682 = B_SPLINE_CURVE_WITH_KNOTS ( 'NONE', 3,
 ( #347, #608, #455, #130, #13, #351 ),
 .UNSPECIFIED., .F., .F.,
 ( 4, 2, 4 ),
 ( 0.002582626743458951279, 0.003050162727514655649, 0.003517698711570359585 ),
 .UNSPECIFIED. ) ;
#683 = ORIENTED_EDGE ( 'NONE', *, *, #634, .T. ) ;
#684 = STYLED_ITEM ( 'NONE', ( #153 ), #673 ) ;
#685 = CARTESIAN_POINT ( 'NONE',  ( -1.600000000000000089, 0.000000000000000000, -1.000000000000000000 ) ) ;
#686 = CARTESIAN_POINT ( 'NONE',  ( -1.600000000000000089, -0.9237604307034050777, -1.000000000000000000 ) ) ;
#687 = EDGE_CURVE ( 'NONE', #284, #279, #376, .T. ) ;
ENDSEC;
END-ISO-10303-21;
