ISO-10303-21;
HEADER;
FILE_DESCRIPTION (( 'STEP AP214' ),
    '1' );
FILE_NAME ('ISO 7045 - M1.6 x 4 - Z - 4N.STEP',
    '2025-07-29T15:59:07',
    ( '' ),
    ( '' ),
    'SwSTEP 2.0',
    'SolidWorks 2025',
    '' );
FILE_SCHEMA (( 'AUTOMOTIVE_DESIGN' ));
ENDSEC;

DATA;
#1 = CARTESIAN_POINT ( 'NONE',  ( 0.8868283770652275466, 0.3578437556377631612, -0.01840460858054119089 ) ) ;
#2 = CIRCLE ( 'NONE', #568, 0.3554999999999998161 ) ;
#3 = CIRCLE ( 'NONE', #320, 0.3554999999999998161 ) ;
#4 = ORIENTED_EDGE ( 'NONE', *, *, #69, .F. ) ;
#5 = LINE ( 'NONE', #784, #244 ) ;
#6 = PLANE ( 'NONE',  #811 ) ;
#7 = CARTESIAN_POINT ( 'NONE',  ( 0.9000000000000000222, -0.2400000000000010458, 0.3512766277924992409 ) ) ;
#8 = CIRCLE ( 'NONE', #409, 0.3554999999999998161 ) ;
#9 = VERTEX_POINT ( 'NONE', #302 ) ;
#10 = DIRECTION ( 'NONE',  ( -1.000000000000000000, 0.000000000000000000, -2.938303276351416591E-16 ) ) ;
#11 = DIRECTION ( 'NONE',  ( 0.8949343913984054710, 1.557891129246562846E-15, -0.4461977533475101065 ) ) ;
#12 = CONICAL_SURFACE ( 'NONE', #480, 0.3554999999999998161, 0.06981317007976602096 ) ;
#13 = ORIENTED_EDGE ( 'NONE', *, *, #916, .F. ) ;
#14 = CARTESIAN_POINT ( 'NONE',  ( 2.500000000000000444, 0.2399999999999999911, 8.379555213223563243E-16 ) ) ;
#15 = DIRECTION ( 'NONE',  ( -0.000000000000000000, 0.000000000000000000, -1.000000000000000000 ) ) ;
#16 = CARTESIAN_POINT ( 'NONE',  ( 0.8999999999999998002, 0.000000000000000000, 0.000000000000000000 ) ) ;
#17 = EDGE_CURVE ( 'NONE', #182, #671, #216, .T. ) ;
#18 = EDGE_LOOP ( 'NONE', ( #475, #619, #600, #70 ) ) ;
#19 = DIRECTION ( 'NONE',  ( 0.000000000000000000, 0.000000000000000000, 1.000000000000000000 ) ) ;
#20 = DIRECTION ( 'NONE',  ( -0.000000000000000000, 0.000000000000000000, 1.000000000000000000 ) ) ;
#21 = ORIENTED_EDGE ( 'NONE', *, *, #321, .T. ) ;
#22 =( NAMED_UNIT ( * ) PLANE_ANGLE_UNIT ( ) SI_UNIT ( $, .RADIAN. ) );
#23 = AXIS2_PLACEMENT_3D ( 'NONE', #866, #782, #793 ) ;
#24 = FACE_OUTER_BOUND ( 'NONE', #542, .T. ) ;
#25 = CARTESIAN_POINT ( 'NONE',  ( -998.9844910479893088, 0.000000000000000000, 0.000000000000000000 ) ) ;
#26 = ORIENTED_EDGE ( 'NONE', *, *, #250, .F. ) ;
#27 = CARTESIAN_POINT ( 'NONE',  ( 1.299999999999999600, 0.000000000000000000, 0.9000000000000000222 ) ) ;
#28 = CARTESIAN_POINT ( 'NONE',  ( 0.9000000000000000222, -0.2400000000000010458, 0.3512766277924992409 ) ) ;
#29 = EDGE_CURVE ( 'NONE', #269, #148, #383, .T. ) ;
#30 = CARTESIAN_POINT ( 'NONE',  ( 0.000000000000000000, -0.2399999999999966327, -0.8000000000000008216 ) ) ;
#31 = ORIENTED_EDGE ( 'NONE', *, *, #98, .F. ) ;
#32 = CIRCLE ( 'NONE', #156, 0.3554999999999998161 ) ;
#33 = DIRECTION ( 'NONE',  ( 0.000000000000000000, 0.000000000000000000, 1.000000000000000000 ) ) ;
#34 = VECTOR ( 'NONE', #756, 1000.000000000000000 ) ;
#35 = EDGE_CURVE ( 'NONE', #888, #331, #586, .T. ) ;
#36 = FACE_OUTER_BOUND ( 'NONE', #798, .T. ) ;
#37 = ORIENTED_EDGE ( 'NONE', *, *, #246, .T. ) ;
#38 = FACE_OUTER_BOUND ( 'NONE', #352, .T. ) ;
#39 = CARTESIAN_POINT ( 'NONE',  ( 0.8999999999999998002, 0.000000000000000000, 0.000000000000000000 ) ) ;
#40 = AXIS2_PLACEMENT_3D ( 'NONE', #312, #80, #915 ) ;
#41 = EDGE_LOOP ( 'NONE', ( #278, #51, #670, #838 ) ) ;
#42 =( NAMED_UNIT ( * ) PLANE_ANGLE_UNIT ( ) SI_UNIT ( $, .RADIAN. ) );
#43 = AXIS2_PLACEMENT_3D ( 'NONE', #494, #249, #505 ) ;
#44 = CARTESIAN_POINT ( 'NONE',  ( -25.39999999999996305, 0.000000000000000000, 0.000000000000000000 ) ) ;
#45 = EDGE_CURVE ( 'NONE', #398, #326, #628, .T. ) ;
#46 = ORIENTED_EDGE ( 'NONE', *, *, #553, .F. ) ;
#47 = VERTEX_POINT ( 'NONE', #242 ) ;
#48 = CARTESIAN_POINT ( 'NONE',  ( 0.8999999999999998002, -0.05463497750278002024, 0.3512766277924999625 ) ) ;
#49 = FACE_OUTER_BOUND ( 'NONE', #853, .T. ) ;
#50 = AXIS2_PLACEMENT_3D ( 'NONE', #313, #15, #627 ) ;
#51 = ORIENTED_EDGE ( 'NONE', *, *, #724, .T. ) ;
#52 =( NAMED_UNIT ( * ) SI_UNIT ( $, .STERADIAN. ) SOLID_ANGLE_UNIT ( ) );
#53 = DIRECTION ( 'NONE',  ( -1.000000000000000000, 2.938303276351416591E-16, 1.025903105724260870E-30 ) ) ;
#54 = FACE_OUTER_BOUND ( 'NONE', #138, .T. ) ;
#55 = EDGE_LOOP ( 'NONE', ( #970, #526, #693 ) ) ;
#56 = ORIENTED_EDGE ( 'NONE', *, *, #142, .F. ) ;
#57 = CARTESIAN_POINT ( 'NONE',  ( 1.399999999999998579, 0.000000000000000000, 0.000000000000000000 ) ) ;
#58 = EDGE_CURVE ( 'NONE', #897, #451, #418, .T. ) ;
#59 = CONICAL_SURFACE ( 'NONE', #381, 0.3554999999999998161, 0.06981317007976602096 ) ;
#60 = CARTESIAN_POINT ( 'NONE',  ( 0.000000000000000000, -0.2399999999999966327, -0.8000000000000003775 ) ) ;
#61 = CARTESIAN_POINT ( 'NONE',  ( 1.399999999999998579, 0.000000000000000000, 0.000000000000000000 ) ) ;
#62 = CARTESIAN_POINT ( 'NONE',  ( 0.03485364387781559464, -0.2399999999999983258, -0.3397844064955282684 ) ) ;
#63 = EDGE_CURVE ( 'NONE', #107, #978, #468, .T. ) ;
#64 = AXIS2_PLACEMENT_3D ( 'NONE', #360, #988, #290 ) ;
#65 = CONICAL_SURFACE ( 'NONE', #878, 0.3554999999999998161, 0.06981317007976602096 ) ;
#66 = VERTEX_POINT ( 'NONE', #555 ) ;
#67 = CARTESIAN_POINT ( 'NONE',  ( 0.6117514594722686105, -0.2895822732359018548, 0.2399999999999996858 ) ) ;
#68 = FACE_OUTER_BOUND ( 'NONE', #344, .T. ) ;
#69 = EDGE_CURVE ( 'NONE', #992, #243, #556, .T. ) ;
#70 = ORIENTED_EDGE ( 'NONE', *, *, #479, .T. ) ;
#71 = CARTESIAN_POINT ( 'NONE',  ( 1.299999999999999156, 0.000000000000000000, 0.000000000000000000 ) ) ;
#72 = CARTESIAN_POINT ( 'NONE',  ( 0.6117514594725663724, -0.2895822732358735441, -0.2399999999999999911 ) ) ;
#73 = CARTESIAN_POINT ( 'NONE',  ( 0.8999999999999998002, 0.2399999999999990474, 0.2622598901852898901 ) ) ;
#74 = EDGE_LOOP ( 'NONE', ( #177, #572, #289, #814 ) ) ;
#75 = DIRECTION ( 'NONE',  ( -1.000000000000000000, -0.000000000000000000, -0.000000000000000000 ) ) ;
#76 = B_SPLINE_CURVE_WITH_KNOTS ( 'NONE', 3,
 ( #488, #886, #799, #101 ),
 .UNSPECIFIED., .F., .F.,
 ( 4, 4 ),
 ( 0.0007940719671207514645, 0.001662661141672497692 ),
 .UNSPECIFIED. ) ;
#77 = DIRECTION ( 'NONE',  ( -1.000000000000000000, 0.000000000000000000, 0.000000000000000000 ) ) ;
#78 = CARTESIAN_POINT ( 'NONE',  ( 0.8999999999999998002, 0.3512766277925005731, -0.05463497750277621773 ) ) ;
#79 = ORIENTED_EDGE ( 'NONE', *, *, #612, .F. ) ;
#80 = DIRECTION ( 'NONE',  ( 0.4461977533475101620, 0.8949343913984055821, 0.000000000000000000 ) ) ;
#81 = DIRECTION ( 'NONE',  ( 1.000000000000000000, 0.000000000000000000, 0.000000000000000000 ) ) ;
#82 = LINE ( 'NONE', #308, #291 ) ;
#83 = ORIENTED_EDGE ( 'NONE', *, *, #570, .T. ) ;
#84 = DIRECTION ( 'NONE',  ( -1.000000000000000000, -0.000000000000000000, -0.000000000000000000 ) ) ;
#85 = LINE ( 'NONE', #554, #403 ) ;
#86 = CIRCLE ( 'NONE', #883, 2.488453334905037284 ) ;
#87 = EDGE_CURVE ( 'NONE', #358, #227, #908, .T. ) ;
#88 = EDGE_LOOP ( 'NONE', ( #918, #265, #703, #348, #584, #937 ) ) ;
#89 = VERTEX_POINT ( 'NONE', #7 ) ;
#90 = FILL_AREA_STYLE_COLOUR ( '', #473 ) ;
#91 = CARTESIAN_POINT ( 'NONE',  ( 0.000000000000000000, 0.7999999999999999334, 0.2399999999999996581 ) ) ;
#92 = EDGE_CURVE ( 'NONE', #978, #314, #82, .T. ) ;
#93 = VECTOR ( 'NONE', #222, 1000.000000000000227 ) ;
#94 = ORIENTED_EDGE ( 'NONE', *, *, #321, .F. ) ;
#95 = CARTESIAN_POINT ( 'NONE',  ( 0.5326338288396890164, 0.000000000000000000, 0.000000000000000000 ) ) ;
#96 = CARTESIAN_POINT ( 'NONE',  ( 0.8999999999999998002, 0.000000000000000000, 0.000000000000000000 ) ) ;
#97 = B_SPLINE_CURVE_WITH_KNOTS ( 'NONE', 3,
 ( #672, #433, #966, #283 ),
 .UNSPECIFIED., .F., .F.,
 ( 4, 4 ),
 ( 0.0006664741659387590604, 0.001535090396365677498 ),
 .UNSPECIFIED. ) ;
#98 = EDGE_CURVE ( 'NONE', #130, #326, #701, .T. ) ;
#99 = VERTEX_POINT ( 'NONE', #73 ) ;
#100 = CIRCLE ( 'NONE', #834, 1.599999999999999867 ) ;
#101 = CARTESIAN_POINT ( 'NONE',  ( 0.03485364387781596240, 0.2400000000000011846, -0.3397844064955262700 ) ) ;
#102 = FACE_OUTER_BOUND ( 'NONE', #294, .T. ) ;
#103 = EDGE_LOOP ( 'NONE', ( #893, #208, #13 ) ) ;
#104 = CARTESIAN_POINT ( 'NONE',  ( 1.299999999999999156, 0.000000000000000000, 1.599999999999999867 ) ) ;
#105 = FACE_OUTER_BOUND ( 'NONE', #606, .T. ) ;
#106 = CARTESIAN_POINT ( 'NONE',  ( 2.500000000000000444, -1.269419332313392141E-15, 0.2400000000000002687 ) ) ;
#107 = VERTEX_POINT ( 'NONE', #711 ) ;
#108 = DIRECTION ( 'NONE',  ( 0.000000000000000000, 3.496437852441466191E-15, -1.000000000000000000 ) ) ;
#109 = CARTESIAN_POINT ( 'NONE',  ( 0.8999999999999998002, 0.000000000000000000, 0.000000000000000000 ) ) ;
#110 = EDGE_CURVE ( 'NONE', #446, #460, #378, .T. ) ;
#111 = CARTESIAN_POINT ( 'NONE',  ( 1.299999999999999600, 0.000000000000000000, 0.000000000000000000 ) ) ;
#112 = PRODUCT_DEFINITION_CONTEXT ( 'detailed design', #669, 'design' ) ;
#113 = STYLED_ITEM ( 'NONE', ( #323 ), #990 ) ;
#114 = ORIENTED_EDGE ( 'NONE', *, *, #136, .T. ) ;
#115 = APPLICATION_PROTOCOL_DEFINITION ( 'draft international standard', 'automotive_design', 1998, #669 ) ;
#116 = ORIENTED_EDGE ( 'NONE', *, *, #717, .T. ) ;
#117 = FACE_OUTER_BOUND ( 'NONE', #476, .T. ) ;
#118 = AXIS2_PLACEMENT_3D ( 'NONE', #545, #20, #933 ) ;
#119 = DIRECTION ( 'NONE',  ( -1.000000000000000000, -0.000000000000000000, -0.000000000000000000 ) ) ;
#120 = EDGE_CURVE ( 'NONE', #743, #130, #8, .T. ) ;
#121 = VERTEX_POINT ( 'NONE', #861 ) ;
#122 = CARTESIAN_POINT ( 'NONE',  ( 0.9000000000000000222, 0.2400000000000012124, -0.3512766277926857028 ) ) ;
#123 = LINE ( 'NONE', #286, #780 ) ;
#124 = ORIENTED_EDGE ( 'NONE', *, *, #92, .T. ) ;
#125 = ORIENTED_EDGE ( 'NONE', *, *, #959, .F. ) ;
#126 = DIRECTION ( 'NONE',  ( -1.000000000000000000, -0.000000000000000000, -0.000000000000000000 ) ) ;
#127 = AXIS2_PLACEMENT_3D ( 'NONE', #467, #781, #81 ) ;
#128 = CARTESIAN_POINT ( 'NONE',  ( 2.321723084137649717, -2.485336087570063653E-15, 0.3575682351620116939 ) ) ;
#129 = CIRCLE ( 'NONE', #733, 0.3554999999999998161 ) ;
#130 = VERTEX_POINT ( 'NONE', #847 ) ;
#131 = ADVANCED_FACE ( 'NONE', ( #147 ), #770, .T. ) ;
#132 = FACE_OUTER_BOUND ( 'NONE', #18, .T. ) ;
#133 = CARTESIAN_POINT ( 'NONE',  ( 0.6506757991093080618, 0.000000000000000000, 0.000000000000000000 ) ) ;
#134 = CIRCLE ( 'NONE', #510, 0.3554999999999998161 ) ;
#135 = DIRECTION ( 'NONE',  ( 0.8949343913984795229, 0.4461977533473616142, 0.000000000000000000 ) ) ;
#136 = EDGE_CURVE ( 'NONE', #723, #723, #538, .T. ) ;
#137 = LINE ( 'NONE', #604, #356 ) ;
#138 = EDGE_LOOP ( 'NONE', ( #393 ) ) ;
#139 = CARTESIAN_POINT ( 'NONE',  ( 0.8999999999999998002, -0.2622598901852888353, 0.2400000000000001021 ) ) ;
#140 = DIRECTION ( 'NONE',  ( 0.000000000000000000, 0.000000000000000000, 1.000000000000000000 ) ) ;
#141 = AXIS2_PLACEMENT_3D ( 'NONE', #300, #618, #920 ) ;
#142 = EDGE_CURVE ( 'NONE', #322, #9, #134, .T. ) ;
#143 = ORIENTED_EDGE ( 'NONE', *, *, #35, .T. ) ;
#144 = CARTESIAN_POINT ( 'NONE',  ( 0.3233375591042830233, 0.3150869624607327557, 0.2399999999999996858 ) ) ;
#145 = B_SPLINE_CURVE_WITH_KNOTS ( 'NONE', 3,
 ( #850, #532, #994, #154 ),
 .UNSPECIFIED., .F., .F.,
 ( 4, 4 ),
 ( 0.0006664741659387587351, 0.001535090396365677498 ),
 .UNSPECIFIED. ) ;
#146 = CARTESIAN_POINT ( 'NONE',  ( 0.9000000000000000222, 0.2399999999999987699, 0.3512766277925008507 ) ) ;
#147 = FACE_OUTER_BOUND ( 'NONE', #103, .T. ) ;
#148 = VERTEX_POINT ( 'NONE', #251 ) ;
#149 = CARTESIAN_POINT ( 'NONE',  ( 0.3233375591043187725, -0.3150869624607297026, 0.2399999999999996025 ) ) ;
#150 = FACE_OUTER_BOUND ( 'NONE', #337, .T. ) ;
#151 = DIRECTION ( 'NONE',  ( 0.000000000000000000, 0.000000000000000000, 1.000000000000000000 ) ) ;
#152 = ORIENTED_EDGE ( 'NONE', *, *, #491, .T. ) ;
#153 = DIRECTION ( 'NONE',  ( 0.000000000000000000, 0.000000000000000000, 1.000000000000000000 ) ) ;
#154 = CARTESIAN_POINT ( 'NONE',  ( 0.9000000000000000222, -0.2399999999999988531, -0.2622598901852893349 ) ) ;
#155 = CARTESIAN_POINT ( 'NONE',  ( 0.03485364387781613588, -1.236893267138826811E-15, 0.000000000000000000 ) ) ;
#156 = AXIS2_PLACEMENT_3D ( 'NONE', #567, #956, #730 ) ;
#157 = ORIENTED_EDGE ( 'NONE', *, *, #871, .T. ) ;
#158 = CARTESIAN_POINT ( 'NONE',  ( 0.6117514594725665944, 0.2895822732358736551, 0.2399999999999997691 ) ) ;
#159 = ADVANCED_FACE ( 'NONE', ( #736 ), #818, .F. ) ;
#160 = DIRECTION ( 'NONE',  ( 0.000000000000000000, -1.000000000000000000, -3.491481338843133355E-15 ) ) ;
#161 = EDGE_LOOP ( 'NONE', ( #46 ) ) ;
#162 = EDGE_LOOP ( 'NONE', ( #304, #389, #630, #823 ) ) ;
#163 =( NAMED_UNIT ( * ) SI_UNIT ( $, .STERADIAN. ) SOLID_ANGLE_UNIT ( ) );
#164 = CARTESIAN_POINT ( 'NONE',  ( 0.9000000000000000222, 0.3512766277925000180, -0.2399999999999999911 ) ) ;
#165 = ORIENTED_EDGE ( 'NONE', *, *, #617, .T. ) ;
#166 = ORIENTED_EDGE ( 'NONE', *, *, #760, .T. ) ;
#167 = DIRECTION ( 'NONE',  ( 0.000000000000000000, -3.552713678800500929E-15, -1.000000000000000000 ) ) ;
#168 = LINE ( 'NONE', #483, #791 ) ;
#169 = DIRECTION ( 'NONE',  ( -1.000000000000000000, -0.000000000000000000, -0.000000000000000000 ) ) ;
#170 = EDGE_CURVE ( 'NONE', #9, #99, #261, .T. ) ;
#171 = ORIENTED_EDGE ( 'NONE', *, *, #553, .T. ) ;
#172 = CARTESIAN_POINT ( 'NONE',  ( 0.03485364387781592077, 0.3397844064955274357, -0.2399999999999999911 ) ) ;
#173 = CIRCLE ( 'NONE', #189, 2.488453334905037284 ) ;
#174 = CARTESIAN_POINT ( 'NONE',  ( 0.9000000000000000222, 0.3512766277925000180, 0.2399999999999998246 ) ) ;
#175 = LINE ( 'NONE', #817, #490 ) ;
#176 = ADVANCED_FACE ( 'NONE', ( #892 ), #362, .F. ) ;
#177 = ORIENTED_EDGE ( 'NONE', *, *, #998, .T. ) ;
#178 = CARTESIAN_POINT ( 'NONE',  ( 1.399999999999998579, 0.000000000000000000, 0.7999999999999999334 ) ) ;
#179 = DIRECTION ( 'NONE',  ( -1.000000000000000000, -0.000000000000000000, -0.000000000000000000 ) ) ;
#180 = DIRECTION ( 'NONE',  ( 0.000000000000000000, 1.000000000000000000, 3.491481338843133355E-15 ) ) ;
#181 = AXIS2_PLACEMENT_3D ( 'NONE', #982, #126, #740 ) ;
#182 = VERTEX_POINT ( 'NONE', #257 ) ;
#183 = DIRECTION ( 'NONE',  ( 0.8949343913984796339, 0.4461977533473616697, 0.000000000000000000 ) ) ;
#184 = DIRECTION ( 'NONE',  ( 0.000000000000000000, -1.000000000000000000, -3.491481338843133355E-15 ) ) ;
#185 = DIRECTION ( 'NONE',  ( 0.000000000000000000, 0.000000000000000000, 1.000000000000000000 ) ) ;
#186 = ORIENTED_EDGE ( 'NONE', *, *, #424, .F. ) ;
#187 = PLANE ( 'NONE',  #984 ) ;
#188 = ADVANCED_FACE ( 'NONE', ( #656 ), #268, .T. ) ;
#189 = AXIS2_PLACEMENT_3D ( 'NONE', #975, #434, #357 ) ;
#190 = CARTESIAN_POINT ( 'NONE',  ( 0.6506757991093098381, 0.000000000000000000, 0.000000000000000000 ) ) ;
#191 = ORIENTED_EDGE ( 'NONE', *, *, #207, .F. ) ;
#192 = ORIENTED_EDGE ( 'NONE', *, *, #871, .F. ) ;
#193 = PLANE ( 'NONE',  #913 ) ;
#194 = AXIS2_PLACEMENT_3D ( 'NONE', #39, #413, #948 ) ;
#195 = FACE_OUTER_BOUND ( 'NONE', #41, .T. ) ;
#196 = AXIS2_PLACEMENT_3D ( 'NONE', #235, #84, #394 ) ;
#197 = EDGE_LOOP ( 'NONE', ( #831 ) ) ;
#198 = DIRECTION ( 'NONE',  ( 2.938303276351416591E-16, 1.000000000000000000, 3.627006610403821410E-15 ) ) ;
#199 = CARTESIAN_POINT ( 'NONE',  ( 0.8999999999999998002, -0.2622598901852886688, -0.2400000000000003242 ) ) ;
#200 = EDGE_CURVE ( 'NONE', #332, #332, #100, .T. ) ;
#201 = EDGE_LOOP ( 'NONE', ( #124, #772, #829, #763 ) ) ;
#202 = CARTESIAN_POINT ( 'NONE',  ( 0.000000000000000000, 0.000000000000000000, 0.000000000000000000 ) ) ;
#203 = CONICAL_SURFACE ( 'NONE', #761, 0.3554999999999998161, 0.06981317007976602096 ) ;
#204 = ORIENTED_EDGE ( 'NONE', *, *, #760, .F. ) ;
#205 = DIRECTION ( 'NONE',  ( 0.8949343913984795229, -1.557891129246044367E-15, 0.4461977533473616142 ) ) ;
#206 = DIRECTION ( 'NONE',  ( -1.000000000000000000, 0.000000000000000000, -0.000000000000000000 ) ) ;
#207 = EDGE_CURVE ( 'NONE', #9, #496, #741, .T. ) ;
#208 = ORIENTED_EDGE ( 'NONE', *, *, #986, .F. ) ;
#209 = ORIENTED_EDGE ( 'NONE', *, *, #959, .T. ) ;
#210 = CARTESIAN_POINT ( 'NONE',  ( 0.8999999999999998002, -0.3512766277926870351, -0.05463497750157736421 ) ) ;
#211 = DIRECTION ( 'NONE',  ( 0.000000000000000000, 0.000000000000000000, 1.000000000000000000 ) ) ;
#212 = ORIENTED_EDGE ( 'NONE', *, *, #373, .T. ) ;
#213 = CARTESIAN_POINT ( 'NONE',  ( 0.8999999999999998002, 0.000000000000000000, 0.000000000000000000 ) ) ;
#214 = EDGE_CURVE ( 'NONE', #66, #89, #175, .T. ) ;
#215 = PLANE ( 'NONE',  #686 ) ;
#216 = CIRCLE ( 'NONE', #903, 0.3554999999999998161 ) ;
#217 = ORIENTED_EDGE ( 'NONE', *, *, #87, .F. ) ;
#218 = PLANE ( 'NONE',  #967 ) ;
#219 = ADVANCED_FACE ( 'NONE', ( #102, #429 ), #495, .T. ) ;
#220 = CARTESIAN_POINT ( 'NONE',  ( 0.9000000000000000222, 0.3512766277925000180, -0.2399999999999999911 ) ) ;
#221 = VERTEX_POINT ( 'NONE', #489 ) ;
#222 = DIRECTION ( 'NONE',  ( 0.8949343913984795229, 0.4461977533473616142, 0.000000000000000000 ) ) ;
#223 = DIRECTION ( 'NONE',  ( 0.000000000000000000, 0.000000000000000000, 1.000000000000000000 ) ) ;
#224 = VECTOR ( 'NONE', #180, 1000.000000000000000 ) ;
#225 = AXIS2_PLACEMENT_3D ( 'NONE', #708, #713, #10 ) ;
#226 = CIRCLE ( 'NONE', #801, 2.467865940134053027 ) ;
#227 = VERTEX_POINT ( 'NONE', #800 ) ;
#228 = CARTESIAN_POINT ( 'NONE',  ( 0.000000000000000000, -0.7999999999999999334, -0.2399999999999999911 ) ) ;
#229 =( BOUNDED_CURVE ( )  B_SPLINE_CURVE ( 3, ( #48, #839, #755, #667 ),
 .UNSPECIFIED., .F., .F. ) 
 B_SPLINE_CURVE_WITH_KNOTS ( ( 4, 4 ),
 ( 6.105607028069698572, 6.460763586289473892 ),
 .UNSPECIFIED. ) 
 CURVE ( )  GEOMETRIC_REPRESENTATION_ITEM ( )  RATIONAL_B_SPLINE_CURVE ( ( 1.000000000000000000, 0.9895162446892207253, 0.9895162446892207253, 1.000000000000000000 ) ) 
 REPRESENTATION_ITEM ( '' )  );
#230 = SPHERICAL_SURFACE ( 'NONE', #50, 2.500000000000000444 ) ;
#231 = CIRCLE ( 'NONE', #43, 0.3554999999999998161 ) ;
#232 = DIRECTION ( 'NONE',  ( 0.000000000000000000, -3.491481338843133355E-15, 1.000000000000000000 ) ) ;
#233 = EDGE_CURVE ( 'NONE', #738, #384, #622, .T. ) ;
#234 = ORIENTED_EDGE ( 'NONE', *, *, #448, .T. ) ;
#235 = CARTESIAN_POINT ( 'NONE',  ( 0.8999999999999998002, 0.000000000000000000, 0.000000000000000000 ) ) ;
#236 = DIRECTION ( 'NONE',  ( -1.000000000000000000, -0.000000000000000000, -0.000000000000000000 ) ) ;
#237 = CARTESIAN_POINT ( 'NONE',  ( 0.8999999999999998002, 0.000000000000000000, 0.000000000000000000 ) ) ;
#238 = AXIS2_PLACEMENT_3D ( 'NONE', #689, #206, #525 ) ;
#239 = ORIENTED_EDGE ( 'NONE', *, *, #935, .F. ) ;
#240 = DIRECTION ( 'NONE',  ( 0.000000000000000000, -1.000000000000000000, -7.716156489677257803E-17 ) ) ;
#241 = FACE_OUTER_BOUND ( 'NONE', #946, .T. ) ;
#242 = CARTESIAN_POINT ( 'NONE',  ( 0.8999999999999998002, -0.05463497750157871730, -0.3512766277926869241 ) ) ;
#243 = VERTEX_POINT ( 'NONE', #564 ) ;
#244 = VECTOR ( 'NONE', #616, 1000.000000000000000 ) ;
#245 = DIRECTION ( 'NONE',  ( -1.000000000000000000, -0.000000000000000000, -0.000000000000000000 ) ) ;
#246 = EDGE_CURVE ( 'NONE', #398, #358, #657, .T. ) ;
#247 = DIRECTION ( 'NONE',  ( 0.000000000000000000, 0.000000000000000000, 1.000000000000000000 ) ) ;
#248 = ORIENTED_EDGE ( 'NONE', *, *, #29, .F. ) ;
#249 = DIRECTION ( 'NONE',  ( -1.000000000000000000, -0.000000000000000000, -0.000000000000000000 ) ) ;
#250 = EDGE_CURVE ( 'NONE', #738, #644, #887, .T. ) ;
#251 = CARTESIAN_POINT ( 'NONE',  ( 0.9000000000000000222, 0.3512766277925000180, -0.2399999999999999911 ) ) ;
#252 = AXIS2_PLACEMENT_3D ( 'NONE', #898, #439, #370 ) ;
#253 = ORIENTED_EDGE ( 'NONE', *, *, #935, .T. ) ;
#254 = VERTEX_POINT ( 'NONE', #178 ) ;
#255 = AXIS2_PLACEMENT_3D ( 'NONE', #827, #765, #277 ) ;
#256 = CARTESIAN_POINT ( 'NONE',  ( 0.8999999999999998002, 0.000000000000000000, 0.000000000000000000 ) ) ;
#257 = CARTESIAN_POINT ( 'NONE',  ( 0.8999999999999998002, -0.2622598901852888353, 0.2400000000000001021 ) ) ;
#258 =( GEOMETRIC_REPRESENTATION_CONTEXT ( 3 ) GLOBAL_UNCERTAINTY_ASSIGNED_CONTEXT ( ( #806 ) ) GLOBAL_UNIT_ASSIGNED_CONTEXT ( ( #971, #42, #52 ) ) REPRESENTATION_CONTEXT ( 'NONE', 'WORKASPACE' ) );
#259 = ORIENTED_EDGE ( 'NONE', *, *, #678, .F. ) ;
#260 = CARTESIAN_POINT ( 'NONE',  ( 0.5326338288396890164, 0.000000000000000000, 1.542553191489361097 ) ) ;
#261 = CIRCLE ( 'NONE', #194, 0.3554999999999998161 ) ;
#262 = FACE_OUTER_BOUND ( 'NONE', #197, .T. ) ;
#263 = DIRECTION ( 'NONE',  ( 0.8949343913984795229, -1.881321066374785938E-15, 0.4461977533473616142 ) ) ;
#264 = ADVANCED_FACE ( 'NONE', ( #652 ), #872, .T. ) ;
#265 = ORIENTED_EDGE ( 'NONE', *, *, #402, .F. ) ;
#266 = SURFACE_STYLE_FILL_AREA ( #399 ) ;
#267 = CARTESIAN_POINT ( 'NONE',  ( 0.8999999999999998002, 0.000000000000000000, 0.000000000000000000 ) ) ;
#268 = PLANE ( 'NONE',  #977 ) ;
#269 = VERTEX_POINT ( 'NONE', #732 ) ;
#270 = DIRECTION ( 'NONE',  ( 1.000000000000000000, 0.000000000000000000, 0.000000000000000000 ) ) ;
#271 = ADVANCED_FACE ( 'NONE', ( #36 ), #339, .F. ) ;
#272 = PLANE ( 'NONE',  #936 ) ;
#273 = CARTESIAN_POINT ( 'NONE',  ( 0.6117514594722686105, -0.2400000000000007960, 0.2895822732359010221 ) ) ;
#274 = ORIENTED_EDGE ( 'NONE', *, *, #328, .F. ) ;
#275 = DIRECTION ( 'NONE',  ( 0.4461977533473616697, -0.8949343913984796339, 0.000000000000000000 ) ) ;
#276 = ADVANCED_FACE ( 'NONE', ( #912 ), #369, .T. ) ;
#277 = DIRECTION ( 'NONE',  ( 1.000000000000000000, 0.000000000000000000, 0.000000000000000000 ) ) ;
#278 = ORIENTED_EDGE ( 'NONE', *, *, #942, .T. ) ;
#279 = ORIENTED_EDGE ( 'NONE', *, *, #361, .F. ) ;
#280 = PLANE ( 'NONE',  #685 ) ;
#281 = DIRECTION ( 'NONE',  ( 0.000000000000000000, 0.000000000000000000, -1.000000000000000000 ) ) ;
#282 = ORIENTED_EDGE ( 'NONE', *, *, #45, .T. ) ;
#283 = CARTESIAN_POINT ( 'NONE',  ( 0.8999999999999998002, 0.2399999999999990474, 0.2622598901852898901 ) ) ;
#284 = VECTOR ( 'NONE', #655, 1000.000000000000000 ) ;
#285 = CIRCLE ( 'NONE', #437, 0.3554999999999998161 ) ;
#286 = CARTESIAN_POINT ( 'NONE',  ( 0.9000000000000000222, 0.2400000000000012124, -0.3512766277926857028 ) ) ;
#287 = AXIS2_PLACEMENT_3D ( 'NONE', #462, #774, #474 ) ;
#288 = ADVANCED_FACE ( 'NONE', ( #68 ), #215, .T. ) ;
#289 = ORIENTED_EDGE ( 'NONE', *, *, #570, .F. ) ;
#290 = DIRECTION ( 'NONE',  ( -1.000000000000000000, 0.000000000000000000, -2.938303276351416591E-16 ) ) ;
#291 = VECTOR ( 'NONE', #232, 1000.000000000000000 ) ;
#292 = CIRCLE ( 'NONE', #557, 0.4159969265481628375 ) ;
#293 = ADVANCED_FACE ( 'NONE', ( #54, #377 ), #571, .T. ) ;
#294 = EDGE_LOOP ( 'NONE', ( #375 ) ) ;
#295 = DIRECTION ( 'NONE',  ( 0.000000000000000000, 0.000000000000000000, -1.000000000000000000 ) ) ;
#296 = DIRECTION ( 'NONE',  ( -1.000000000000000000, 0.000000000000000000, 0.000000000000000000 ) ) ;
#297 = AXIS2_PLACEMENT_3D ( 'NONE', #634, #325, #856 ) ;
#298 = ORIENTED_EDGE ( 'NONE', *, *, #748, .F. ) ;
#299 = DIRECTION ( 'NONE',  ( 0.000000000000000000, 0.000000000000000000, 1.000000000000000000 ) ) ;
#300 = CARTESIAN_POINT ( 'NONE',  ( 2.321723084137398363, 1.154955329365183608E-17, -0.3575682351623673538 ) ) ;
#301 = CIRCLE ( 'NONE', #934, 0.3554999999999998161 ) ;
#302 = CARTESIAN_POINT ( 'NONE',  ( 0.8999999999999998002, 0.05463497750277756387, 0.3512766277925004066 ) ) ;
#303 = AXIS2_PLACEMENT_3D ( 'NONE', #440, #751, #140 ) ;
#304 = ORIENTED_EDGE ( 'NONE', *, *, #916, .T. ) ;
#305 = CARTESIAN_POINT ( 'NONE',  ( 0.03485364387781596240, 0.2400000000000011846, -0.3397844064955262700 ) ) ;
#306 = CARTESIAN_POINT ( 'NONE',  ( 0.03485364387781592077, -0.3397844064955299337, -0.2399999999999999911 ) ) ;
#307 = EDGE_CURVE ( 'NONE', #47, #644, #123, .T. ) ;
#308 = CARTESIAN_POINT ( 'NONE',  ( 0.9000000000000000222, 0.2400000000000012124, -0.3512766277926857028 ) ) ;
#309 = AXIS2_PLACEMENT_3D ( 'NONE', #25, #169, #347 ) ;
#310 = AXIS2_PLACEMENT_3D ( 'NONE', #649, #796, #659 ) ;
#311 = EDGE_LOOP ( 'NONE', ( #37, #157, #924, #427 ) ) ;
#312 = CARTESIAN_POINT ( 'NONE',  ( 0.9000000000000000222, 0.3512766277925000180, 0.2399999999999998246 ) ) ;
#313 = CARTESIAN_POINT ( 'NONE',  ( 2.500000000000000444, -1.236893267138826811E-15, 0.000000000000000000 ) ) ;
#314 = VERTEX_POINT ( 'NONE', #521 ) ;
#315 = EDGE_CURVE ( 'NONE', #824, #107, #173, .T. ) ;
#316 = ORIENTED_EDGE ( 'NONE', *, *, #974, .T. ) ;
#317 = DIRECTION ( 'NONE',  ( 0.000000000000000000, -1.000000000000000000, -3.491481338843133355E-15 ) ) ;
#318 = DIRECTION ( 'NONE',  ( 0.000000000000000000, 0.000000000000000000, 1.000000000000000000 ) ) ;
#319 = DIRECTION ( 'NONE',  ( -1.000000000000000000, -0.000000000000000000, -0.000000000000000000 ) ) ;
#320 = AXIS2_PLACEMENT_3D ( 'NONE', #917, #792, #223 ) ;
#321 = EDGE_CURVE ( 'NONE', #451, #148, #137, .T. ) ;
#322 = VERTEX_POINT ( 'NONE', #453 ) ;
#323 = PRESENTATION_STYLE_ASSIGNMENT (( #405 ) ) ;
#324 = CYLINDRICAL_SURFACE ( 'NONE', #995, 1.599999999999999867 ) ;
#325 = DIRECTION ( 'NONE',  ( -1.000000000000000000, -0.000000000000000000, -0.000000000000000000 ) ) ;
#326 = VERTEX_POINT ( 'NONE', #745 ) ;
#327 = DIRECTION ( 'NONE',  ( -1.000000000000000000, -0.000000000000000000, -0.000000000000000000 ) ) ;
#328 = EDGE_CURVE ( 'NONE', #671, #227, #610, .T. ) ;
#329 = CARTESIAN_POINT ( 'NONE',  ( -25.39999999999996305, 0.000000000000000000, 0.000000000000000000 ) ) ;
#330 = DIRECTION ( 'NONE',  ( 2.938303276351416591E-16, 1.355252715606881036E-16, -1.000000000000000000 ) ) ;
#331 = VERTEX_POINT ( 'NONE', #199 ) ;
#332 = VERTEX_POINT ( 'NONE', #493 ) ;
#333 = DIRECTION ( 'NONE',  ( -1.000000000000000000, -0.000000000000000000, -0.000000000000000000 ) ) ;
#334 = DIRECTION ( 'NONE',  ( 0.000000000000000000, 0.000000000000000000, 1.000000000000000000 ) ) ;
#335 = AXIS2_PLACEMENT_3D ( 'NONE', #815, #423, #574 ) ;
#336 = CIRCLE ( 'NONE', #401, 1.599999999999999867 ) ;
#337 = EDGE_LOOP ( 'NONE', ( #482, #239, #279 ) ) ;
#338 = CARTESIAN_POINT ( 'NONE',  ( 0.03485364387781613588, -1.236893267138826811E-15, 0.000000000000000000 ) ) ;
#339 = CONICAL_SURFACE ( 'NONE', #340, 0.3554999999999998161, 0.06981317007976602096 ) ;
#340 = AXIS2_PLACEMENT_3D ( 'NONE', #342, #842, #211 ) ;
#341 = DIRECTION ( 'NONE',  ( 1.000000000000000000, 0.000000000000000000, 0.000000000000000000 ) ) ;
#342 = CARTESIAN_POINT ( 'NONE',  ( 0.8999999999999998002, 0.000000000000000000, 0.000000000000000000 ) ) ;
#343 = ADVANCED_FACE ( 'NONE', ( #907, #49 ), #591, .F. ) ;
#344 = EDGE_LOOP ( 'NONE', ( #471, #455, #658, #259 ) ) ;
#345 = DIRECTION ( 'NONE',  ( 0.000000000000000000, 0.000000000000000000, 1.000000000000000000 ) ) ;
#346 = VECTOR ( 'NONE', #764, 1000.000000000000000 ) ;
#347 = DIRECTION ( 'NONE',  ( 0.000000000000000000, 0.000000000000000000, 1.000000000000000000 ) ) ;
#348 = ORIENTED_EDGE ( 'NONE', *, *, #373, .F. ) ;
#349 = SHAPE_DEFINITION_REPRESENTATION ( #470, #560 ) ;
#350 = DIRECTION ( 'NONE',  ( -1.000000000000000000, -0.000000000000000000, -0.000000000000000000 ) ) ;
#351 = DIRECTION ( 'NONE',  ( -1.000000000000000000, -0.000000000000000000, -0.000000000000000000 ) ) ;
#352 = EDGE_LOOP ( 'NONE', ( #851, #274, #752, #192 ) ) ;
#353 = DIRECTION ( 'NONE',  ( 0.000000000000000000, 0.000000000000000000, 1.000000000000000000 ) ) ;
#354 = EDGE_CURVE ( 'NONE', #221, #243, #762, .T. ) ;
#355 = VERTEX_POINT ( 'NONE', #833 ) ;
#356 = VECTOR ( 'NONE', #281, 1000.000000000000000 ) ;
#357 = DIRECTION ( 'NONE',  ( 0.000000000000000000, 3.496437852441466191E-15, -1.000000000000000000 ) ) ;
#358 = VERTEX_POINT ( 'NONE', #896 ) ;
#359 = ORIENTED_EDGE ( 'NONE', *, *, #35, .F. ) ;
#360 = CARTESIAN_POINT ( 'NONE',  ( 0.000000000000000000, -0.7999999999999994893, 0.2399999999999994360 ) ) ;
#361 = EDGE_CURVE ( 'NONE', #539, #802, #899, .T. ) ;
#362 = CONICAL_SURFACE ( 'NONE', #309, 3077.683537175311358, 1.256637061435922798 ) ;
#363 = DIRECTION ( 'NONE',  ( -0.8949343913984796339, 0.000000000000000000, -0.4461977533473616142 ) ) ;
#364 = PRODUCT_DEFINITION_FORMATION_WITH_SPECIFIED_SOURCE ( 'Symmetric', '', #636, .NOT_KNOWN. ) ;
#365 = CIRCLE ( 'NONE', #310, 0.3554999999999998161 ) ;
#366 = EDGE_LOOP ( 'NONE', ( #114 ) ) ;
#367 = EDGE_LOOP ( 'NONE', ( #734, #56 ) ) ;
#368 = DIRECTION ( 'NONE',  ( -1.000000000000000000, -0.000000000000000000, -0.000000000000000000 ) ) ;
#369 = PLANE ( 'NONE',  #843 ) ;
#370 = DIRECTION ( 'NONE',  ( 0.000000000000000000, -3.627145809542080983E-15, 1.000000000000000000 ) ) ;
#371 = PLANE ( 'NONE',  #255 ) ;
#372 = AXIS2_PLACEMENT_3D ( 'NONE', #164, #77, #621 ) ;
#373 = EDGE_CURVE ( 'NONE', #738, #107, #747, .T. ) ;
#374 = VECTOR ( 'NONE', #263, 1000.000000000000227 ) ;
#375 = ORIENTED_EDGE ( 'NONE', *, *, #748, .T. ) ;
#376 = CARTESIAN_POINT ( 'NONE',  ( 0.03485364387781613588, -1.236893267138826811E-15, 0.000000000000000000 ) ) ;
#377 = FACE_OUTER_BOUND ( 'NONE', #410, .T. ) ;
#378 = CIRCLE ( 'NONE', #118, 2.488453334905037728 ) ;
#379 = ORIENTED_EDGE ( 'NONE', *, *, #315, .F. ) ;
#380 = FACE_OUTER_BOUND ( 'NONE', #55, .T. ) ;
#381 = AXIS2_PLACEMENT_3D ( 'NONE', #267, #179, #345 ) ;
#382 = CARTESIAN_POINT ( 'NONE',  ( 0.3233375591042828012, -0.3150869624607325337, -0.2399999999999999911 ) ) ;
#383 = LINE ( 'NONE', #923, #727 ) ;
#384 = VERTEX_POINT ( 'NONE', #62 ) ;
#385 = FACE_OUTER_BOUND ( 'NONE', #624, .T. ) ;
#386 = ADVANCED_FACE ( 'NONE', ( #195 ), #371, .T. ) ;
#387 = DIRECTION ( 'NONE',  ( 0.000000000000000000, 0.000000000000000000, 1.000000000000000000 ) ) ;
#388 = DIRECTION ( 'NONE',  ( -1.000000000000000000, -0.000000000000000000, -0.000000000000000000 ) ) ;
#389 = ORIENTED_EDGE ( 'NONE', *, *, #328, .T. ) ;
#390 = CARTESIAN_POINT ( 'NONE',  ( 0.8999999999999998002, -0.3512766277926870351, 0.05463497750157736421 ) ) ;
#391 = ADVANCED_FACE ( 'NONE', ( #609 ), #485, .F. ) ;
#392 = FACE_OUTER_BOUND ( 'NONE', #588, .T. ) ;
#393 = ORIENTED_EDGE ( 'NONE', *, *, #200, .T. ) ;
#394 = DIRECTION ( 'NONE',  ( 0.000000000000000000, 0.000000000000000000, 1.000000000000000000 ) ) ;
#395 = FACE_OUTER_BOUND ( 'NONE', #436, .T. ) ;
#396 = ORIENTED_EDGE ( 'NONE', *, *, #779, .T. ) ;
#397 = ADVANCED_FACE ( 'NONE', ( #513 ), #65, .F. ) ;
#398 = VERTEX_POINT ( 'NONE', #855 ) ;
#399 = FILL_AREA_STYLE ('',( #90 ) ) ;
#400 = CARTESIAN_POINT ( 'NONE',  ( 0.8999999999999998002, 0.000000000000000000, 0.000000000000000000 ) ) ;
#401 = AXIS2_PLACEMENT_3D ( 'NONE', #71, #631, #845 ) ;
#402 = EDGE_CURVE ( 'NONE', #978, #355, #709, .T. ) ;
#403 = VECTOR ( 'NONE', #11, 1000.000000000000227 ) ;
#404 = ORIENTED_EDGE ( 'NONE', *, *, #884, .F. ) ;
#405 = SURFACE_STYLE_USAGE ( .BOTH. , #415 ) ;
#406 = DIRECTION ( 'NONE',  ( 0.000000000000000000, 0.000000000000000000, 1.000000000000000000 ) ) ;
#407 = DIRECTION ( 'NONE',  ( 0.000000000000000000, 0.000000000000000000, 1.000000000000000000 ) ) ;
#408 =( BOUNDED_CURVE ( )  B_SPLINE_CURVE ( 3, ( #758, #825, #676, #597 ),
 .UNSPECIFIED., .F., .F. ) 
 B_SPLINE_CURVE_WITH_KNOTS ( ( 4, 4 ),
 ( 6.105607028073610998, 6.460763586285561466 ),
 .UNSPECIFIED. ) 
 CURVE ( )  GEOMETRIC_REPRESENTATION_ITEM ( )  RATIONAL_B_SPLINE_CURVE ( ( 1.000000000000000000, 0.9895162446896815789, 0.9895162446896815789, 1.000000000000000000 ) ) 
 REPRESENTATION_ITEM ( '' )  );
#409 = AXIS2_PLACEMENT_3D ( 'NONE', #237, #550, #247 ) ;
#410 = EDGE_LOOP ( 'NONE', ( #949 ) ) ;
#411 = DIRECTION ( 'NONE',  ( -0.000000000000000000, 0.000000000000000000, 1.000000000000000000 ) ) ;
#412 = CARTESIAN_POINT ( 'NONE',  ( 0.000000000000000000, 0.2399999999999971878, 0.8000000000000003775 ) ) ;
#413 = DIRECTION ( 'NONE',  ( -1.000000000000000000, -0.000000000000000000, -0.000000000000000000 ) ) ;
#414 = ORIENTED_EDGE ( 'NONE', *, *, #58, .F. ) ;
#415 = SURFACE_SIDE_STYLE ('',( #266 ) ) ;
#416 = CARTESIAN_POINT ( 'NONE',  ( 0.9000000000000000222, -0.2400000000000010458, 0.3512766277924992409 ) ) ;
#417 = EDGE_CURVE ( 'NONE', #121, #496, #85, .T. ) ;
#418 =( BOUNDED_CURVE ( )  B_SPLINE_CURVE ( 3, ( #775, #927, #1, #78 ),
 .UNSPECIFIED., .F., .F. ) 
 B_SPLINE_CURVE_WITH_KNOTS ( ( 4, 4 ),
 ( 6.105607028069706566, 6.460763586289465898 ),
 .UNSPECIFIED. ) 
 CURVE ( )  GEOMETRIC_REPRESENTATION_ITEM ( )  RATIONAL_B_SPLINE_CURVE ( ( 1.000000000000000000, 0.9895162446892218355, 0.9895162446892218355, 1.000000000000000000 ) ) 
 REPRESENTATION_ITEM ( '' )  );
#419 = DIRECTION ( 'NONE',  ( 0.000000000000000000, 0.000000000000000000, -1.000000000000000000 ) ) ;
#420 = CIRCLE ( 'NONE', #252, 2.488453334905037728 ) ;
#421 = ORIENTED_EDGE ( 'NONE', *, *, #822, .F. ) ;
#422 = CARTESIAN_POINT ( 'NONE',  ( 0.9000000000000000222, 0.2400000000000012124, -0.3512766277926857028 ) ) ;
#423 = DIRECTION ( 'NONE',  ( -1.000000000000000000, -0.000000000000000000, -0.000000000000000000 ) ) ;
#424 = EDGE_CURVE ( 'NONE', #384, #446, #969, .T. ) ;
#425 = DIRECTION ( 'NONE',  ( 0.000000000000000000, 0.000000000000000000, 1.000000000000000000 ) ) ;
#426 = ORIENTED_EDGE ( 'NONE', *, *, #953, .T. ) ;
#427 = ORIENTED_EDGE ( 'NONE', *, *, #45, .F. ) ;
#428 = DIRECTION ( 'NONE',  ( 0.000000000000000000, 0.000000000000000000, 1.000000000000000000 ) ) ;
#429 = FACE_OUTER_BOUND ( 'NONE', #739, .T. ) ;
#430 = ADVANCED_FACE ( 'NONE', ( #939 ), #769, .T. ) ;
#431 = AXIS2_PLACEMENT_3D ( 'NONE', #256, #809, #735 ) ;
#432 = EDGE_LOOP ( 'NONE', ( #813, #116, #253, #165, #166, #83, #535, #596, #234, #143, #582, #819, #558, #788, #546, #687 ) ) ;
#433 = CARTESIAN_POINT ( 'NONE',  ( 0.3233375591042830233, 0.2399999999999988809, 0.3150869624607334218 ) ) ;
#434 = DIRECTION ( 'NONE',  ( 0.000000000000000000, -1.000000000000000000, -3.491481338843133355E-15 ) ) ;
#435 = ADVANCED_FACE ( 'NONE', ( #241, #395 ), #230, .T. ) ;
#436 = EDGE_LOOP ( 'NONE', ( #186, #698, #212, #379, #862, #648, #653, #4, #906, #848, #858, #914, #217, #807, #316, #578 ) ) ;
#437 = AXIS2_PLACEMENT_3D ( 'NONE', #444, #350, #520 ) ;
#438 = EDGE_LOOP ( 'NONE', ( #901, #889, #125 ) ) ;
#439 = DIRECTION ( 'NONE',  ( 2.938303276351416591E-16, 1.000000000000000000, 3.627006610403821410E-15 ) ) ;
#440 = CARTESIAN_POINT ( 'NONE',  ( 0.8999999999999998002, 0.000000000000000000, 0.000000000000000000 ) ) ;
#441 = ORIENTED_EDGE ( 'NONE', *, *, #617, .F. ) ;
#442 = APPLICATION_PROTOCOL_DEFINITION ( 'draft international standard', 'automotive_design', 1998, #614 ) ;
#443 = ORIENTED_EDGE ( 'NONE', *, *, #691, .F. ) ;
#444 = CARTESIAN_POINT ( 'NONE',  ( 0.8999999999999998002, 0.000000000000000000, 0.000000000000000000 ) ) ;
#445 = CARTESIAN_POINT ( 'NONE',  ( 0.8999999999999998002, -0.2400000000000007683, 0.2622598901852883913 ) ) ;
#446 = VERTEX_POINT ( 'NONE', #306 ) ;
#447 = DIRECTION ( 'NONE',  ( 0.000000000000000000, 0.000000000000000000, 1.000000000000000000 ) ) ;
#448 = EDGE_CURVE ( 'NONE', #47, #888, #3, .T. ) ;
#449 = CARTESIAN_POINT ( 'NONE',  ( 2.321723084137398807, -0.3575682351623676314, 0.000000000000000000 ) ) ;
#450 = B_SPLINE_CURVE_WITH_KNOTS ( 'NONE', 3,
 ( #552, #149, #67, #139 ),
 .UNSPECIFIED., .F., .F.,
 ( 4, 4 ),
 ( 0.0006664741704309982149, 0.001535090400857997209 ),
 .UNSPECIFIED. ) ;
#451 = VERTEX_POINT ( 'NONE', #932 ) ;
#452 = LINE ( 'NONE', #461, #346 ) ;
#453 = CARTESIAN_POINT ( 'NONE',  ( 0.8999999999999998002, -0.05463497750278002024, 0.3512766277924999625 ) ) ;
#454 = EDGE_CURVE ( 'NONE', #355, #47, #129, .T. ) ;
#455 = ORIENTED_EDGE ( 'NONE', *, *, #965, .T. ) ;
#456 = CARTESIAN_POINT ( 'NONE',  ( 0.9000000000000000222, 0.3512766277925000180, -0.2399999999999999911 ) ) ;
#457 = CARTESIAN_POINT ( 'NONE',  ( 0.8999999999999998002, -0.2622598901852886688, -0.2400000000000003242 ) ) ;
#458 = CARTESIAN_POINT ( 'NONE',  ( 0.000000000000000000, -0.7999999999999999334, 0.2399999999999994360 ) ) ;
#459 = ADVANCED_FACE ( 'NONE', ( #544 ), #952, .F. ) ;
#460 = VERTEX_POINT ( 'NONE', #633 ) ;
#461 = CARTESIAN_POINT ( 'NONE',  ( 0.9000000000000000222, -0.2400000000000010458, 0.3512766277924992409 ) ) ;
#462 = CARTESIAN_POINT ( 'NONE',  ( 0.03485364387781613588, -1.236893267138826811E-15, 0.000000000000000000 ) ) ;
#463 = PRODUCT_RELATED_PRODUCT_CATEGORY ( 'part', '', ( #636 ) ) ;
#464 = ORIENTED_EDGE ( 'NONE', *, *, #506, .T. ) ;
#465 = PLANE ( 'NONE',  #40 ) ;
#466 = VECTOR ( 'NONE', #562, 1000.000000000000000 ) ;
#467 = CARTESIAN_POINT ( 'NONE',  ( 2.500000000000000444, -1.236893267138826811E-15, -0.2399999999999999911 ) ) ;
#468 = LINE ( 'NONE', #481, #518 ) ;
#469 = AXIS2_PLACEMENT_3D ( 'NONE', #106, #330, #726 ) ;
#470 = PRODUCT_DEFINITION_SHAPE ( 'NONE', 'NONE',  #900 ) ;
#471 = ORIENTED_EDGE ( 'NONE', *, *, #528, .T. ) ;
#472 = CARTESIAN_POINT ( 'NONE',  ( 0.9000000000000000222, 0.3512766277925000180, 0.2399999999999998246 ) ) ;
#473 = COLOUR_RGB ( '',0.7921568627450980005, 0.8196078431372548767, 0.9333333333333333481 ) ;
#474 = DIRECTION ( 'NONE',  ( 0.000000000000000000, 0.000000000000000000, -1.000000000000000000 ) ) ;
#475 = ORIENTED_EDGE ( 'NONE', *, *, #361, .T. ) ;
#476 = EDGE_LOOP ( 'NONE', ( #961, #714, #681 ) ) ;
#477 = LINE ( 'NONE', #863, #660 ) ;
#478 = DIRECTION ( 'NONE',  ( 0.000000000000000000, 0.000000000000000000, 1.000000000000000000 ) ) ;
#479 = EDGE_CURVE ( 'NONE', #243, #539, #864, .T. ) ;
#480 = AXIS2_PLACEMENT_3D ( 'NONE', #213, #682, #594 ) ;
#481 = CARTESIAN_POINT ( 'NONE',  ( 0.000000000000000000, 0.2400000000000027667, -0.7999999999999990452 ) ) ;
#482 = ORIENTED_EDGE ( 'NONE', *, *, #583, .T. ) ;
#483 = CARTESIAN_POINT ( 'NONE',  ( 0.000000000000000000, 0.7999999999999999334, -0.2399999999999999911 ) ) ;
#484 = DIRECTION ( 'NONE',  ( 0.8949343913984054710, 1.396176160682205767E-15, -0.4461977533475101065 ) ) ;
#485 = CONICAL_SURFACE ( 'NONE', #303, 0.3554999999999998161, 0.06981317007976602096 ) ;
#486 = EDGE_LOOP ( 'NONE', ( #777 ) ) ;
#487 = DIRECTION ( 'NONE',  ( -1.000000000000000000, -0.000000000000000000, -0.000000000000000000 ) ) ;
#488 = CARTESIAN_POINT ( 'NONE',  ( 0.8999999999999998002, 0.2400000000000009071, -0.2622598901852882802 ) ) ;
#489 = CARTESIAN_POINT ( 'NONE',  ( 0.1236136778209368098, 0.7383685040413530132, -0.2399999999999999911 ) ) ;
#490 = VECTOR ( 'NONE', #484, 1000.000000000000227 ) ;
#491 = EDGE_CURVE ( 'NONE', #384, #888, #145, .T. ) ;
#492 = ORIENTED_EDGE ( 'NONE', *, *, #98, .T. ) ;
#493 = CARTESIAN_POINT ( 'NONE',  ( 0.6506757991093098381, 0.000000000000000000, 1.599999999999999867 ) ) ;
#494 = CARTESIAN_POINT ( 'NONE',  ( 0.8999999999999998002, 0.000000000000000000, 0.000000000000000000 ) ) ;
#495 = CYLINDRICAL_SURFACE ( 'NONE', #958, 0.7999999999999999334 ) ;
#496 = VERTEX_POINT ( 'NONE', #146 ) ;
#497 = CARTESIAN_POINT ( 'NONE',  ( 0.8999999999999998002, 0.2622598901852886688, -0.2400000000000003242 ) ) ;
#498 = ADVANCED_FACE ( 'NONE', ( #150 ), #6, .T. ) ;
#499 = LINE ( 'NONE', #950, #663 ) ;
#500 = CARTESIAN_POINT ( 'NONE',  ( 0.8999999999999998002, 0.000000000000000000, 0.000000000000000000 ) ) ;
#501 = CIRCLE ( 'NONE', #141, 2.467865940133983749 ) ;
#502 = AXIS2_PLACEMENT_3D ( 'NONE', #61, #836, #447 ) ;
#503 = ORIENTED_EDGE ( 'NONE', *, *, #506, .F. ) ;
#504 = ORIENTED_EDGE ( 'NONE', *, *, #857, .F. ) ;
#505 = DIRECTION ( 'NONE',  ( 0.000000000000000000, 0.000000000000000000, 1.000000000000000000 ) ) ;
#506 = EDGE_CURVE ( 'NONE', #331, #446, #840, .T. ) ;
#507 = DIRECTION ( 'NONE',  ( -1.000000000000000000, -0.000000000000000000, -0.000000000000000000 ) ) ;
#508 = MECHANICAL_DESIGN_GEOMETRIC_PRESENTATION_REPRESENTATION (  '', ( #113 ), #921 ) ;
#509 = EDGE_LOOP ( 'NONE', ( #504, #615, #492 ) ) ;
#510 = AXIS2_PLACEMENT_3D ( 'NONE', #96, #721, #334 ) ;
#511 = ORIENTED_EDGE ( 'NONE', *, *, #922, .F. ) ;
#512 = FACE_OUTER_BOUND ( 'NONE', #88, .T. ) ;
#513 = FACE_OUTER_BOUND ( 'NONE', #611, .T. ) ;
#514 = EDGE_CURVE ( 'NONE', #314, #355, #301, .T. ) ;
#515 = ORIENTED_EDGE ( 'NONE', *, *, #583, .F. ) ;
#516 = FACE_OUTER_BOUND ( 'NONE', #954, .T. ) ;
#517 = CARTESIAN_POINT ( 'NONE',  ( 0.3233375591043182729, -0.2400000000000007960, 0.3150869624607289254 ) ) ;
#518 = VECTOR ( 'NONE', #641, 1000.000000000000227 ) ;
#519 = ORIENTED_EDGE ( 'NONE', *, *, #354, .F. ) ;
#520 = DIRECTION ( 'NONE',  ( 0.000000000000000000, 0.000000000000000000, 1.000000000000000000 ) ) ;
#521 = CARTESIAN_POINT ( 'NONE',  ( 0.8999999999999998002, 0.2400000000000009071, -0.2622598901852882802 ) ) ;
#522 = EDGE_CURVE ( 'NONE', #121, #66, #501, .T. ) ;
#523 = FACE_OUTER_BOUND ( 'NONE', #767, .T. ) ;
#524 = AXIS2_PLACEMENT_3D ( 'NONE', #812, #668, #968 ) ;
#525 = DIRECTION ( 'NONE',  ( -0.000000000000000000, 0.000000000000000000, 1.000000000000000000 ) ) ;
#526 = ORIENTED_EDGE ( 'NONE', *, *, #448, .F. ) ;
#527 = FACE_OUTER_BOUND ( 'NONE', #486, .T. ) ;
#528 = EDGE_CURVE ( 'NONE', #221, #910, #875, .T. ) ;
#529 = DIRECTION ( 'NONE',  ( 0.000000000000000000, -1.000000000000000000, -3.491481338843133355E-15 ) ) ;
#530 = ORIENTED_EDGE ( 'NONE', *, *, #514, .F. ) ;
#531 = CARTESIAN_POINT ( 'NONE',  ( 0.03485364387781592077, 0.3397844064955274357, -0.2399999999999999911 ) ) ;
#532 = CARTESIAN_POINT ( 'NONE',  ( 0.3233375591042828012, -0.2399999999999984923, -0.3150869624607336994 ) ) ;
#533 = ADVANCED_FACE ( 'NONE', ( #392 ), #203, .F. ) ;
#534 = ORIENTED_EDGE ( 'NONE', *, *, #816, .T. ) ;
#535 = ORIENTED_EDGE ( 'NONE', *, *, #514, .T. ) ;
#536 = CARTESIAN_POINT ( 'NONE',  ( 0.8868283770658047516, -0.3578437556376592443, 0.01840460858012876733 ) ) ;
#537 = CARTESIAN_POINT ( 'NONE',  ( 0.9000000000000000222, 0.2400000000000012124, -0.3512766277926857028 ) ) ;
#538 = CIRCLE ( 'NONE', #577, 0.9000000000000000222 ) ;
#539 = VERTEX_POINT ( 'NONE', #890 ) ;
#540 = ADVANCED_FACE ( 'NONE', ( #24 ), #876, .F. ) ;
#541 = UNCERTAINTY_MEASURE_WITH_UNIT (LENGTH_MEASURE( 1.000000000000000082E-05 ), #719, 'distance_accuracy_value', 'NONE');
#542 = EDGE_LOOP ( 'NONE', ( #443, #404, #712, #987, #602, #191 ) ) ;
#543 = CARTESIAN_POINT ( 'NONE',  ( 0.9000000000000000222, 0.3512766277925000180, -0.2399999999999999911 ) ) ;
#544 = FACE_OUTER_BOUND ( 'NONE', #964, .T. ) ;
#545 = CARTESIAN_POINT ( 'NONE',  ( 2.500000000000000444, -1.236893267138826811E-15, -0.2399999999999999911 ) ) ;
#546 = ORIENTED_EDGE ( 'NONE', *, *, #986, .T. ) ;
#547 = CARTESIAN_POINT ( 'NONE',  ( 0.8999999999999998002, 0.2622598901852888353, 0.2400000000000001577 ) ) ;
#548 = DIRECTION ( 'NONE',  ( 0.8949343913984054710, -0.4461977533475101065, 1.617149685643573006E-16 ) ) ;
#549 = CIRCLE ( 'NONE', #502, 0.7999999999999999334 ) ;
#550 = DIRECTION ( 'NONE',  ( -1.000000000000000000, -0.000000000000000000, -0.000000000000000000 ) ) ;
#551 = VERTEX_POINT ( 'NONE', #725 ) ;
#552 = CARTESIAN_POINT ( 'NONE',  ( 0.03485364387781592077, -0.3397844064955301557, 0.2399999999999994915 ) ) ;
#553 = EDGE_CURVE ( 'NONE', #654, #654, #776, .T. ) ;
#554 = CARTESIAN_POINT ( 'NONE',  ( 0.000000000000000000, 0.2399999999999971878, 0.8000000000000008216 ) ) ;
#555 = CARTESIAN_POINT ( 'NONE',  ( 0.1236136778209368098, -0.2400000000000023781, 0.7383685040413523470 ) ) ;
#556 = CIRCLE ( 'NONE', #23, 2.488453334905037728 ) ;
#557 = AXIS2_PLACEMENT_3D ( 'NONE', #376, #75, #295 ) ;
#558 = ORIENTED_EDGE ( 'NONE', *, *, #742, .T. ) ;
#559 = CARTESIAN_POINT ( 'NONE',  ( 0.000000000000000000, 0.7999999999999994893, -0.2399999999999999911 ) ) ;
#560 = ADVANCED_BREP_SHAPE_REPRESENTATION ( 'ISO 7045 - M1.6 x 4 - Z - 4N_ISO 7045 - M1.6 x 4 - Z - 4N', ( #990, #944 ), #258 ) ;
#561 = EDGE_CURVE ( 'NONE', #99, #496, #661, .T. ) ;
#562 = DIRECTION ( 'NONE',  ( 0.000000000000000000, -3.491481338843133355E-15, 1.000000000000000000 ) ) ;
#563 = CIRCLE ( 'NONE', #181, 0.3554999999999998161 ) ;
#564 = CARTESIAN_POINT ( 'NONE',  ( 0.1236136778209372400, 0.7383685040413530132, 0.2399999999999997691 ) ) ;
#565 = ORIENTED_EDGE ( 'NONE', *, *, #816, .F. ) ;
#566 = DIRECTION ( 'NONE',  ( 0.000000000000000000, 0.000000000000000000, 1.000000000000000000 ) ) ;
#567 = CARTESIAN_POINT ( 'NONE',  ( 0.8999999999999998002, 0.000000000000000000, 0.000000000000000000 ) ) ;
#568 = AXIS2_PLACEMENT_3D ( 'NONE', #979, #820, #589 ) ;
#569 = DIRECTION ( 'NONE',  ( 0.000000000000000000, 0.000000000000000000, 1.000000000000000000 ) ) ;
#570 = EDGE_CURVE ( 'NONE', #269, #314, #32, .T. ) ;
#571 = TOROIDAL_SURFACE ( 'NONE', #830, 1.449999999999999956, 0.1499999999999998557 ) ;
#572 = ORIENTED_EDGE ( 'NONE', *, *, #605, .F. ) ;
#573 = PLANE ( 'NONE',  #581 ) ;
#574 = DIRECTION ( 'NONE',  ( 0.000000000000000000, 0.000000000000000000, 1.000000000000000000 ) ) ;
#575 = DIRECTION ( 'NONE',  ( 1.000000000000000000, 0.000000000000000000, 0.000000000000000000 ) ) ;
#576 = B_SPLINE_CURVE_WITH_KNOTS ( 'NONE', 3,
 ( #172, #790, #885, #497 ),
 .UNSPECIFIED., .F., .F.,
 ( 4, 4 ),
 ( 0.0006664741659387586267, 0.001535090396365676631 ),
 .UNSPECIFIED. ) ;
#577 = AXIS2_PLACEMENT_3D ( 'NONE', #111, #119, #425 ) ;
#578 = ORIENTED_EDGE ( 'NONE', *, *, #110, .F. ) ;
#579 = CARTESIAN_POINT ( 'NONE',  ( 0.8999999999999998002, -0.2400000000000007683, 0.2622598901852883913 ) ) ;
#580 = CARTESIAN_POINT ( 'NONE',  ( 0.9000000000000000222, -0.2400000000000010458, 0.3512766277924992409 ) ) ;
#581 = AXIS2_PLACEMENT_3D ( 'NONE', #559, #411, #868 ) ;
#582 = ORIENTED_EDGE ( 'NONE', *, *, #637, .T. ) ;
#583 = EDGE_CURVE ( 'NONE', #539, #897, #650, .T. ) ;
#584 = ORIENTED_EDGE ( 'NONE', *, *, #250, .T. ) ;
#585 = CARTESIAN_POINT ( 'NONE',  ( 0.9000000000000000222, 0.3512766277925000180, -0.2399999999999999911 ) ) ;
#586 = CIRCLE ( 'NONE', #297, 0.3554999999999998161 ) ;
#587 = DIRECTION ( 'NONE',  ( -1.000000000000000000, 0.000000000000000000, 0.000000000000000000 ) ) ;
#588 = EDGE_LOOP ( 'NONE', ( #396, #722 ) ) ;
#589 = DIRECTION ( 'NONE',  ( 0.000000000000000000, 0.000000000000000000, 1.000000000000000000 ) ) ;
#590 = ADVANCED_FACE ( 'NONE', ( #645 ), #187, .T. ) ;
#591 = PLANE ( 'NONE',  #238 ) ;
#592 = ORIENTED_EDGE ( 'NONE', *, *, #724, .F. ) ;
#593 = VECTOR ( 'NONE', #716, 1000.000000000000000 ) ;
#594 = DIRECTION ( 'NONE',  ( 0.000000000000000000, 0.000000000000000000, 1.000000000000000000 ) ) ;
#595 = DIRECTION ( 'NONE',  ( 1.000000000000000000, 0.000000000000000000, 0.000000000000000000 ) ) ;
#596 = ORIENTED_EDGE ( 'NONE', *, *, #454, .T. ) ;
#597 = CARTESIAN_POINT ( 'NONE',  ( 0.8999999999999998002, -0.05463497750157871730, -0.3512766277926869241 ) ) ;
#598 = DIRECTION ( 'NONE',  ( -1.000000000000000000, 2.938303276351416591E-16, 1.025903105724260870E-30 ) ) ;
#599 = EDGE_CURVE ( 'NONE', #888, #644, #947, .T. ) ;
#600 = ORIENTED_EDGE ( 'NONE', *, *, #69, .T. ) ;
#601 = AXIS2_PLACEMENT_3D ( 'NONE', #128, #673, #363 ) ;
#602 = ORIENTED_EDGE ( 'NONE', *, *, #417, .T. ) ;
#603 = DIRECTION ( 'NONE',  ( 0.4461977533473616697, 3.124646727056728209E-15, -0.8949343913984796339 ) ) ;
#604 = CARTESIAN_POINT ( 'NONE',  ( 0.9000000000000000222, 0.3512766277925000180, 0.2399999999999998246 ) ) ;
#605 = EDGE_CURVE ( 'NONE', #314, #824, #76, .T. ) ;
#606 = EDGE_LOOP ( 'NONE', ( #534 ) ) ;
#607 = CARTESIAN_POINT ( 'NONE',  ( 0.000000000000000000, -0.2399999999999966327, -0.8000000000000003775 ) ) ;
#608 = AXIS2_PLACEMENT_3D ( 'NONE', #155, #388, #706 ) ;
#609 = FACE_OUTER_BOUND ( 'NONE', #367, .T. ) ;
#610 = B_SPLINE_CURVE_WITH_KNOTS ( 'NONE', 3,
 ( #445, #273, #517, #837 ),
 .UNSPECIFIED., .F., .F.,
 ( 4, 4 ),
 ( 0.0007940719671206056393, 0.001662661141672352192 ),
 .UNSPECIFIED. ) ;
#611 = EDGE_LOOP ( 'NONE', ( #359, #996, #930, #503 ) ) ;
#612 = EDGE_CURVE ( 'NONE', #728, #743, #499, .T. ) ;
#613 = CARTESIAN_POINT ( 'NONE',  ( 0.8999999999999998002, 0.000000000000000000, 0.000000000000000000 ) ) ;
#614 = APPLICATION_CONTEXT ( 'automotive_design' ) ;
#615 = ORIENTED_EDGE ( 'NONE', *, *, #742, .F. ) ;
#616 = DIRECTION ( 'NONE',  ( 0.000000000000000000, 3.568642903739905748E-15, -1.000000000000000000 ) ) ;
#617 = EDGE_CURVE ( 'NONE', #897, #451, #680, .T. ) ;
#618 = DIRECTION ( 'NONE',  ( 0.4461977533475101065, -3.124646727056469462E-15, 0.8949343913984054710 ) ) ;
#619 = ORIENTED_EDGE ( 'NONE', *, *, #822, .T. ) ;
#620 = CARTESIAN_POINT ( 'NONE',  ( 0.8868283770658047516, -0.3578437556376592998, -0.01840460858012883325 ) ) ;
#621 = DIRECTION ( 'NONE',  ( 0.000000000000000000, 0.000000000000000000, 1.000000000000000000 ) ) ;
#622 = CIRCLE ( 'NONE', #524, 2.488453334905037728 ) ;
#623 = DIRECTION ( 'NONE',  ( 0.000000000000000000, 1.000000000000000000, 0.000000000000000000 ) ) ;
#624 = EDGE_LOOP ( 'NONE', ( #248, #204, #21 ) ) ;
#625 = CIRCLE ( 'NONE', #696, 0.4159969265481628375 ) ;
#626 = DIRECTION ( 'NONE',  ( -1.000000000000000000, 0.000000000000000000, 0.000000000000000000 ) ) ;
#627 = DIRECTION ( 'NONE',  ( 0.000000000000000000, 1.000000000000000000, 0.000000000000000000 ) ) ;
#628 = LINE ( 'NONE', #458, #702 ) ;
#629 = ADVANCED_FACE ( 'NONE', ( #38 ), #59, .F. ) ;
#630 = ORIENTED_EDGE ( 'NONE', *, *, #785, .T. ) ;
#631 = DIRECTION ( 'NONE',  ( -1.000000000000000000, -0.000000000000000000, -0.000000000000000000 ) ) ;
#632 = B_SPLINE_CURVE_WITH_KNOTS ( 'NONE', 3,
 ( #547, #158, #144, #925 ),
 .UNSPECIFIED., .F., .F.,
 ( 4, 4 ),
 ( 0.0007940721035524684083, 0.001662661278087443437 ),
 .UNSPECIFIED. ) ;
#633 = CARTESIAN_POINT ( 'NONE',  ( 0.1236136778209437487, -0.7383685040413751066, -0.2400000000000000744 ) ) ;
#634 = CARTESIAN_POINT ( 'NONE',  ( 0.8999999999999998002, 0.000000000000000000, 0.000000000000000000 ) ) ;
#635 = VECTOR ( 'NONE', #160, 1000.000000000000000 ) ;
#636 = PRODUCT ( 'ISO 7045 - M1.6 x 4 - Z - 4N_ISO 7045 - M1.6 x 4 - Z - 4N', 'ISO 7045 - M1.6 x 4 - Z - 4N_ISO 7045 - M1.6 x 4 - Z - 4N', '', ( #753 ) ) ;
#637 = EDGE_CURVE ( 'NONE', #331, #743, #231, .T. ) ;
#638 = ORIENTED_EDGE ( 'NONE', *, *, #810, .F. ) ;
#639 = FACE_OUTER_BOUND ( 'NONE', #749, .T. ) ;
#640 = CARTESIAN_POINT ( 'NONE',  ( 0.9000000000000000222, -0.2399999999999985478, -0.3512766277926873126 ) ) ;
#641 = DIRECTION ( 'NONE',  ( 0.8949343913984795229, -1.557891129246044367E-15, 0.4461977533473616142 ) ) ;
#642 = AXIS2_PLACEMENT_3D ( 'NONE', #500, #662, #407 ) ;
#643 = CIRCLE ( 'NONE', #196, 0.3554999999999998161 ) ;
#644 = VERTEX_POINT ( 'NONE', #640 ) ;
#645 = FACE_OUTER_BOUND ( 'NONE', #201, .T. ) ;
#646 = ADVANCED_FACE ( 'NONE', ( #117 ), #963, .T. ) ;
#647 = DIRECTION ( 'NONE',  ( 0.000000000000000000, 0.000000000000000000, 1.000000000000000000 ) ) ;
#648 = ORIENTED_EDGE ( 'NONE', *, *, #528, .F. ) ;
#649 = CARTESIAN_POINT ( 'NONE',  ( 0.8999999999999998002, 0.000000000000000000, 0.000000000000000000 ) ) ;
#650 = LINE ( 'NONE', #174, #731 ) ;
#651 = AXIS2_PLACEMENT_3D ( 'NONE', #416, #804, #943 ) ;
#652 = FACE_OUTER_BOUND ( 'NONE', #161, .T. ) ;
#653 = ORIENTED_EDGE ( 'NONE', *, *, #354, .T. ) ;
#654 = VERTEX_POINT ( 'NONE', #962 ) ;
#655 = DIRECTION ( 'NONE',  ( 0.000000000000000000, 3.568642903739905748E-15, -1.000000000000000000 ) ) ;
#656 = FACE_OUTER_BOUND ( 'NONE', #438, .T. ) ;
#657 = CIRCLE ( 'NONE', #469, 2.488453334905037728 ) ;
#658 = ORIENTED_EDGE ( 'NONE', *, *, #29, .T. ) ;
#659 = DIRECTION ( 'NONE',  ( 0.000000000000000000, 0.000000000000000000, 1.000000000000000000 ) ) ;
#660 = VECTOR ( 'NONE', #880, 1000.000000000000000 ) ;
#661 = LINE ( 'NONE', #881, #466 ) ;
#662 = DIRECTION ( 'NONE',  ( -1.000000000000000000, -0.000000000000000000, -0.000000000000000000 ) ) ;
#663 = VECTOR ( 'NONE', #406, 1000.000000000000000 ) ;
#664 = ADVANCED_FACE ( 'NONE', ( #105, #262 ), #324, .T. ) ;
#665 = ORIENTED_EDGE ( 'NONE', *, *, #678, .T. ) ;
#666 = ORIENTED_EDGE ( 'NONE', *, *, #974, .F. ) ;
#667 = CARTESIAN_POINT ( 'NONE',  ( 0.8999999999999998002, 0.05463497750277756387, 0.3512766277925004066 ) ) ;
#668 = DIRECTION ( 'NONE',  ( 2.938303276351416591E-16, 1.000000000000000000, 3.627006610403821410E-15 ) ) ;
#669 = APPLICATION_CONTEXT ( 'automotive_design' ) ;
#670 = ORIENTED_EDGE ( 'NONE', *, *, #561, .T. ) ;
#671 = VERTEX_POINT ( 'NONE', #579 ) ;
#672 = CARTESIAN_POINT ( 'NONE',  ( 0.03485364387781600404, 0.2399999999999987976, 0.3397844064955279353 ) ) ;
#673 = DIRECTION ( 'NONE',  ( 0.4461977533473616142, 3.124646727056727814E-15, -0.8949343913984795229 ) ) ;
#674 = ORIENTED_EDGE ( 'NONE', *, *, #92, .F. ) ;
#675 = EDGE_LOOP ( 'NONE', ( #789, #152, #754, #26 ) ) ;
#676 = CARTESIAN_POINT ( 'NONE',  ( 0.8868283770658044185, -0.01840460858012834405, -0.3578437556376595219 ) ) ;
#677 = CIRCLE ( 'NONE', #960, 1.542553191489361097 ) ;
#678 = EDGE_CURVE ( 'NONE', #221, #148, #168, .T. ) ;
#679 = CARTESIAN_POINT ( 'NONE',  ( 0.8999999999999998002, 0.000000000000000000, 0.000000000000000000 ) ) ;
#680 = CIRCLE ( 'NONE', #431, 0.3554999999999998161 ) ;
#681 = ORIENTED_EDGE ( 'NONE', *, *, #207, .T. ) ;
#682 = DIRECTION ( 'NONE',  ( -1.000000000000000000, -0.000000000000000000, -0.000000000000000000 ) ) ;
#683 = DIRECTION ( 'NONE',  ( 0.4461977533475101065, 0.8949343913984054710, 0.000000000000000000 ) ) ;
#684 = ADVANCED_FACE ( 'NONE', ( #688 ), #193, .T. ) ;
#685 = AXIS2_PLACEMENT_3D ( 'NONE', #744, #275, #135 ) ;
#686 = AXIS2_PLACEMENT_3D ( 'NONE', #989, #904, #595 ) ;
#687 = ORIENTED_EDGE ( 'NONE', *, *, #142, .T. ) ;
#688 = FACE_OUTER_BOUND ( 'NONE', #675, .T. ) ;
#689 = CARTESIAN_POINT ( 'NONE',  ( 1.299999999999999600, 0.7999999999999999334, 0.000000000000000000 ) ) ;
#690 = PRESENTATION_LAYER_ASSIGNMENT (  '', '', ( #113 ) ) ;
#691 = EDGE_CURVE ( 'NONE', #322, #9, #229, .T. ) ;
#692 = AXIS2_PLACEMENT_3D ( 'NONE', #957, #587, #185 ) ;
#693 = ORIENTED_EDGE ( 'NONE', *, *, #307, .T. ) ;
#694 = DIRECTION ( 'NONE',  ( 0.000000000000000000, 0.000000000000000000, 1.000000000000000000 ) ) ;
#695 = DIRECTION ( 'NONE',  ( 0.000000000000000000, 0.000000000000000000, 1.000000000000000000 ) ) ;
#696 = AXIS2_PLACEMENT_3D ( 'NONE', #338, #327, #167 ) ;
#697 = ADVANCED_FACE ( 'NONE', ( #516, #527 ), #771, .F. ) ;
#698 = ORIENTED_EDGE ( 'NONE', *, *, #233, .F. ) ;
#699 = PLANE ( 'NONE',  #985 ) ;
#700 = CARTESIAN_POINT ( 'NONE',  ( 0.03485364387781592077, -0.3397844064955299337, -0.2399999999999999911 ) ) ;
#701 = LINE ( 'NONE', #945, #593 ) ;
#702 = VECTOR ( 'NONE', #940, 1000.000000000000227 ) ;
#703 = ORIENTED_EDGE ( 'NONE', *, *, #63, .F. ) ;
#704 = FACE_OUTER_BOUND ( 'NONE', #509, .T. ) ;
#705 = DIRECTION ( 'NONE',  ( -1.000000000000000000, -0.000000000000000000, -0.000000000000000000 ) ) ;
#706 = DIRECTION ( 'NONE',  ( 0.000000000000000000, 0.000000000000000000, -1.000000000000000000 ) ) ;
#707 = ORIENTED_EDGE ( 'NONE', *, *, #58, .T. ) ;
#708 = CARTESIAN_POINT ( 'NONE',  ( 0.000000000000000000, -0.7999999999999994893, 0.2399999999999994360 ) ) ;
#709 = LINE ( 'NONE', #537, #635 ) ;
#710 = ADVANCED_FACE ( 'NONE', ( #911 ), #12, .F. ) ;
#711 = CARTESIAN_POINT ( 'NONE',  ( 0.1236136778209437487, 0.2400000000000026557, -0.7383685040413743295 ) ) ;
#712 = ORIENTED_EDGE ( 'NONE', *, *, #214, .F. ) ;
#713 = DIRECTION ( 'NONE',  ( 2.938303276351416591E-16, 1.355252715606881036E-16, -1.000000000000000000 ) ) ;
#714 = ORIENTED_EDGE ( 'NONE', *, *, #170, .F. ) ;
#715 = DIRECTION ( 'NONE',  ( -1.000000000000000000, 0.000000000000000000, 0.000000000000000000 ) ) ;
#716 = DIRECTION ( 'NONE',  ( 0.000000000000000000, 0.000000000000000000, 1.000000000000000000 ) ) ;
#717 = EDGE_CURVE ( 'NONE', #99, #802, #563, .T. ) ;
#718 = ORIENTED_EDGE ( 'NONE', *, *, #922, .T. ) ;
#719 =( LENGTH_UNIT ( ) NAMED_UNIT ( * ) SI_UNIT ( .MILLI., .METRE. ) );
#720 = DIRECTION ( 'NONE',  ( 0.8949343913984054710, -0.4461977533475101065, 0.000000000000000000 ) ) ;
#721 = DIRECTION ( 'NONE',  ( -1.000000000000000000, -0.000000000000000000, -0.000000000000000000 ) ) ;
#722 = ORIENTED_EDGE ( 'NONE', *, *, #454, .F. ) ;
#723 = VERTEX_POINT ( 'NONE', #27 ) ;
#724 = EDGE_CURVE ( 'NONE', #551, #99, #97, .T. ) ;
#725 = CARTESIAN_POINT ( 'NONE',  ( 0.03485364387781600404, 0.2399999999999987976, 0.3397844064955279353 ) ) ;
#726 = DIRECTION ( 'NONE',  ( -1.000000000000000000, 0.000000000000000000, -2.940929034763849579E-16 ) ) ;
#727 = VECTOR ( 'NONE', #623, 1000.000000000000000 ) ;
#728 = VERTEX_POINT ( 'NONE', #973 ) ;
#729 = CARTESIAN_POINT ( 'NONE',  ( 2.321723084137649273, 0.3575682351620115274, 0.000000000000000000 ) ) ;
#730 = DIRECTION ( 'NONE',  ( 0.000000000000000000, 0.000000000000000000, 1.000000000000000000 ) ) ;
#731 = VECTOR ( 'NONE', #797, 1000.000000000000000 ) ;
#732 = CARTESIAN_POINT ( 'NONE',  ( 0.8999999999999998002, 0.2622598901852886688, -0.2400000000000003242 ) ) ;
#733 = AXIS2_PLACEMENT_3D ( 'NONE', #613, #236, #318 ) ;
#734 = ORIENTED_EDGE ( 'NONE', *, *, #691, .T. ) ;
#735 = DIRECTION ( 'NONE',  ( 0.000000000000000000, 0.000000000000000000, 1.000000000000000000 ) ) ;
#736 = FACE_OUTER_BOUND ( 'NONE', #783, .T. ) ;
#737 = ADVANCED_FACE ( 'NONE', ( #512 ), #272, .F. ) ;
#738 = VERTEX_POINT ( 'NONE', #894 ) ;
#739 = EDGE_LOOP ( 'NONE', ( #171 ) ) ;
#740 = DIRECTION ( 'NONE',  ( 0.000000000000000000, 0.000000000000000000, 1.000000000000000000 ) ) ;
#741 = LINE ( 'NONE', #580, #224 ) ;
#742 = EDGE_CURVE ( 'NONE', #130, #182, #285, .T. ) ;
#743 = VERTEX_POINT ( 'NONE', #210 ) ;
#744 = CARTESIAN_POINT ( 'NONE',  ( 0.9000000000000000222, -0.3512766277926865355, -0.2399999999999999911 ) ) ;
#745 = CARTESIAN_POINT ( 'NONE',  ( 0.9000000000000000222, -0.3512766277926865355, 0.2399999999999997691 ) ) ;
#746 = ORIENTED_EDGE ( 'NONE', *, *, #479, .F. ) ;
#747 = CIRCLE ( 'NONE', #601, 2.467865940134053471 ) ;
#748 = EDGE_CURVE ( 'NONE', #254, #254, #549, .T. ) ;
#749 = EDGE_LOOP ( 'NONE', ( #209, #464, #879, #981 ) ) ;
#750 = PLANE ( 'NONE',  #64 ) ;
#751 = DIRECTION ( 'NONE',  ( -1.000000000000000000, -0.000000000000000000, -0.000000000000000000 ) ) ;
#752 = ORIENTED_EDGE ( 'NONE', *, *, #17, .F. ) ;
#753 = PRODUCT_CONTEXT ( 'NONE', #614, 'mechanical' ) ;
#754 = ORIENTED_EDGE ( 'NONE', *, *, #599, .T. ) ;
#755 = CARTESIAN_POINT ( 'NONE',  ( 0.8868283770652272135, 0.01840460858054078150, 0.3578437556377633832 ) ) ;
#756 = DIRECTION ( 'NONE',  ( 0.000000000000000000, -1.000000000000000000, -7.716156489677257803E-17 ) ) ;
#757 = AXIS2_PLACEMENT_3D ( 'NONE', #57, #368, #428 ) ;
#758 = CARTESIAN_POINT ( 'NONE',  ( 0.8999999999999998002, 0.05463497750158116673, -0.3512766277926864800 ) ) ;
#759 = CARTESIAN_POINT ( 'NONE',  ( 0.9000000000000000222, 0.3512766277925000180, 0.2399999999999998246 ) ) ;
#760 = EDGE_CURVE ( 'NONE', #451, #269, #2, .T. ) ;
#761 = AXIS2_PLACEMENT_3D ( 'NONE', #109, #333, #33 ) ;
#762 = CIRCLE ( 'NONE', #905, 2.467865940133983749 ) ;
#763 = ORIENTED_EDGE ( 'NONE', *, *, #63, .T. ) ;
#764 = DIRECTION ( 'NONE',  ( 0.000000000000000000, 1.000000000000000000, 3.491481338843133355E-15 ) ) ;
#765 = DIRECTION ( 'NONE',  ( 0.000000000000000000, -1.000000000000000000, -3.491481338843133355E-15 ) ) ;
#766 = ADVANCED_FACE ( 'NONE', ( #523 ), #280, .F. ) ;
#767 = EDGE_LOOP ( 'NONE', ( #511, #79, #638, #666, #282, #31 ) ) ;
#768 = CARTESIAN_POINT ( 'NONE',  ( 0.8999999999999998002, 0.3512766277925005731, 0.05463497750277621773 ) ) ;
#769 = PLANE ( 'NONE',  #372 ) ;
#770 = PLANE ( 'NONE',  #692 ) ;
#771 = TOROIDAL_SURFACE ( 'NONE', #757, 0.9000000000000000222, 0.1000000000000000056 ) ;
#772 = ORIENTED_EDGE ( 'NONE', *, *, #605, .T. ) ;
#773 = FACE_OUTER_BOUND ( 'NONE', #795, .T. ) ;
#774 = DIRECTION ( 'NONE',  ( -1.000000000000000000, -0.000000000000000000, -0.000000000000000000 ) ) ;
#775 = CARTESIAN_POINT ( 'NONE',  ( 0.8999999999999998002, 0.3512766277925005731, 0.05463497750277621773 ) ) ;
#776 = CIRCLE ( 'NONE', #335, 0.8000000000000000444 ) ;
#777 = ORIENTED_EDGE ( 'NONE', *, *, #136, .F. ) ;
#778 = LINE ( 'NONE', #472, #835 ) ;
#779 = EDGE_CURVE ( 'NONE', #355, #47, #408, .T. ) ;
#780 = VECTOR ( 'NONE', #529, 1000.000000000000000 ) ;
#781 = DIRECTION ( 'NONE',  ( -0.000000000000000000, 0.000000000000000000, 1.000000000000000000 ) ) ;
#782 = DIRECTION ( 'NONE',  ( 2.938303276351416591E-16, 1.355252715606881036E-16, -1.000000000000000000 ) ) ;
#783 = EDGE_LOOP ( 'NONE', ( #707, #441 ) ) ;
#784 = CARTESIAN_POINT ( 'NONE',  ( 0.9000000000000000222, -0.2400000000000010458, 0.3512766277924992409 ) ) ;
#785 = EDGE_CURVE ( 'NONE', #227, #66, #420, .T. ) ;
#786 = DIRECTION ( 'NONE',  ( 0.000000000000000000, 0.000000000000000000, 1.000000000000000000 ) ) ;
#787 = AXIS2_PLACEMENT_3D ( 'NONE', #849, #626, #153 ) ;
#788 = ORIENTED_EDGE ( 'NONE', *, *, #17, .T. ) ;
#789 = ORIENTED_EDGE ( 'NONE', *, *, #233, .T. ) ;
#790 = CARTESIAN_POINT ( 'NONE',  ( 0.3233375591042828567, 0.3150869624607325337, -0.2399999999999999911 ) ) ;
#791 = VECTOR ( 'NONE', #720, 1000.000000000000227 ) ;
#792 = DIRECTION ( 'NONE',  ( -1.000000000000000000, -0.000000000000000000, -0.000000000000000000 ) ) ;
#793 = DIRECTION ( 'NONE',  ( -1.000000000000000000, 0.000000000000000000, -2.940929034763849579E-16 ) ) ;
#794 = ADVANCED_FACE ( 'NONE', ( #132 ), #750, .T. ) ;
#795 = EDGE_LOOP ( 'NONE', ( #414, #515, #746, #519, #665, #94 ) ) ;
#796 = DIRECTION ( 'NONE',  ( -1.000000000000000000, -0.000000000000000000, -0.000000000000000000 ) ) ;
#797 = DIRECTION ( 'NONE',  ( 0.000000000000000000, 0.000000000000000000, -1.000000000000000000 ) ) ;
#798 = EDGE_LOOP ( 'NONE', ( #873, #592, #867, #421 ) ) ;
#799 = CARTESIAN_POINT ( 'NONE',  ( 0.3233375591043188835, 0.2400000000000011013, -0.3150869624607286479 ) ) ;
#800 = CARTESIAN_POINT ( 'NONE',  ( 0.03485364387781555301, -0.2400000000000007960, 0.3397844064955265475 ) ) ;
#801 = AXIS2_PLACEMENT_3D ( 'NONE', #729, #808, #183 ) ;
#802 = VERTEX_POINT ( 'NONE', #902 ) ;
#803 = VERTEX_POINT ( 'NONE', #104 ) ;
#804 = DIRECTION ( 'NONE',  ( 0.4461977533475101620, -3.124646727056470251E-15, 0.8949343913984055821 ) ) ;
#805 = DIRECTION ( 'NONE',  ( 0.000000000000000000, 0.000000000000000000, 1.000000000000000000 ) ) ;
#806 = UNCERTAINTY_MEASURE_WITH_UNIT (LENGTH_MEASURE( 1.000000000000000082E-05 ), #971, 'distance_accuracy_value', 'NONE');
#807 = ORIENTED_EDGE ( 'NONE', *, *, #246, .F. ) ;
#808 = DIRECTION ( 'NONE',  ( 0.4461977533473616142, -0.8949343913984795229, 0.000000000000000000 ) ) ;
#809 = DIRECTION ( 'NONE',  ( -1.000000000000000000, -0.000000000000000000, -0.000000000000000000 ) ) ;
#810 = EDGE_CURVE ( 'NONE', #460, #728, #832, .T. ) ;
#811 = AXIS2_PLACEMENT_3D ( 'NONE', #220, #296, #387 ) ;
#812 = CARTESIAN_POINT ( 'NONE',  ( 2.500000000000000444, -0.2400000000000002687, -8.704815864969135687E-16 ) ) ;
#813 = ORIENTED_EDGE ( 'NONE', *, *, #170, .T. ) ;
#814 = ORIENTED_EDGE ( 'NONE', *, *, #965, .F. ) ;
#815 = CARTESIAN_POINT ( 'NONE',  ( 5.299999999999998934, 0.000000000000000000, 0.000000000000000000 ) ) ;
#816 = EDGE_CURVE ( 'NONE', #803, #803, #336, .T. ) ;
#817 = CARTESIAN_POINT ( 'NONE',  ( 0.000000000000000000, -0.2400000000000024336, 0.7999999999999990452 ) ) ;
#818 = CONICAL_SURFACE ( 'NONE', #642, 0.3554999999999998161, 0.06981317007976602096 ) ;
#819 = ORIENTED_EDGE ( 'NONE', *, *, #120, .T. ) ;
#820 = DIRECTION ( 'NONE',  ( -1.000000000000000000, -0.000000000000000000, -0.000000000000000000 ) ) ;
#821 = DIRECTION ( 'NONE',  ( 2.938303276351416591E-16, 1.000000000000000000, 3.627006610403821410E-15 ) ) ;
#822 = EDGE_CURVE ( 'NONE', #802, #992, #632, .T. ) ;
#823 = ORIENTED_EDGE ( 'NONE', *, *, #214, .T. ) ;
#824 = VERTEX_POINT ( 'NONE', #305 ) ;
#825 = CARTESIAN_POINT ( 'NONE',  ( 0.8868283770658044185, 0.01840460858013092532, -0.3578437556376594109 ) ) ;
#826 = CLOSED_SHELL ( 'NONE', ( #435, #288, #991, #794, #928, #895, #766, #131, #841, #188, #865, #430, #852, #498, #386, #276, #540, #737, #590, #684, #219, #343, #664, #293, #264, #697, #646, #159, #459, #271, #391, #533, #629, #710, #397, #176 ) ) ;
#827 = CARTESIAN_POINT ( 'NONE',  ( 0.000000000000000000, 0.2399999999999971878, 0.8000000000000003775 ) ) ;
#828 = VECTOR ( 'NONE', #548, 1000.000000000000227 ) ;
#829 = ORIENTED_EDGE ( 'NONE', *, *, #315, .T. ) ;
#830 = AXIS2_PLACEMENT_3D ( 'NONE', #133, #980, #695 ) ;
#831 = ORIENTED_EDGE ( 'NONE', *, *, #200, .F. ) ;
#832 = LINE ( 'NONE', #228, #93 ) ;
#833 = CARTESIAN_POINT ( 'NONE',  ( 0.8999999999999998002, 0.05463497750158116673, -0.3512766277926864800 ) ) ;
#834 = AXIS2_PLACEMENT_3D ( 'NONE', #190, #507, #569 ) ;
#835 = VECTOR ( 'NONE', #240, 1000.000000000000000 ) ;
#836 = DIRECTION ( 'NONE',  ( 1.000000000000000000, 0.000000000000000000, 0.000000000000000000 ) ) ;
#837 = CARTESIAN_POINT ( 'NONE',  ( 0.03485364387781555301, -0.2400000000000007960, 0.3397844064955265475 ) ) ;
#838 = ORIENTED_EDGE ( 'NONE', *, *, #417, .F. ) ;
#839 = CARTESIAN_POINT ( 'NONE',  ( 0.8868283770652272135, -0.01840460858054335583, 0.3578437556377631612 ) ) ;
#840 = B_SPLINE_CURVE_WITH_KNOTS ( 'NONE', 3,
 ( #457, #72, #382, #700 ),
 .UNSPECIFIED., .F., .F.,
 ( 4, 4 ),
 ( 0.0007940721035525891884, 0.001662661278087564434 ),
 .UNSPECIFIED. ) ;
#841 = ADVANCED_FACE ( 'NONE', ( #704 ), #699, .T. ) ;
#842 = DIRECTION ( 'NONE',  ( -1.000000000000000000, -0.000000000000000000, -0.000000000000000000 ) ) ;
#843 = AXIS2_PLACEMENT_3D ( 'NONE', #60, #821, #598 ) ;
#844 = EDGE_LOOP ( 'NONE', ( #941, #530, #674 ) ) ;
#845 = DIRECTION ( 'NONE',  ( 0.000000000000000000, 0.000000000000000000, 1.000000000000000000 ) ) ;
#846 = CARTESIAN_POINT ( 'NONE',  ( 0.8999999999999998002, 0.000000000000000000, 0.000000000000000000 ) ) ;
#847 = CARTESIAN_POINT ( 'NONE',  ( 0.8999999999999998002, -0.3512766277926870351, 0.05463497750157736421 ) ) ;
#848 = ORIENTED_EDGE ( 'NONE', *, *, #942, .F. ) ;
#849 = CARTESIAN_POINT ( 'NONE',  ( 0.9000000000000000222, 0.3512766277925000180, -0.2399999999999999911 ) ) ;
#850 = CARTESIAN_POINT ( 'NONE',  ( 0.03485364387781559464, -0.2399999999999983258, -0.3397844064955282684 ) ) ;
#851 = ORIENTED_EDGE ( 'NONE', *, *, #87, .T. ) ;
#852 = ADVANCED_FACE ( 'NONE', ( #385 ), #218, .T. ) ;
#853 = EDGE_LOOP ( 'NONE', ( #565 ) ) ;
#854 = DIRECTION ( 'NONE',  ( -1.000000000000000000, 0.000000000000000000, 0.000000000000000000 ) ) ;
#855 = CARTESIAN_POINT ( 'NONE',  ( 0.1236136778209437487, -0.7383685040413752176, 0.2399999999999996025 ) ) ;
#856 = DIRECTION ( 'NONE',  ( 0.000000000000000000, 0.000000000000000000, 1.000000000000000000 ) ) ;
#857 = EDGE_CURVE ( 'NONE', #182, #326, #778, .T. ) ;
#858 = ORIENTED_EDGE ( 'NONE', *, *, #522, .T. ) ;
#859 = CARTESIAN_POINT ( 'NONE',  ( 0.8999999999999998002, -0.3512766277926870351, -0.05463497750157736421 ) ) ;
#860 = DIRECTION ( 'NONE',  ( -1.000000000000000000, -0.000000000000000000, -0.000000000000000000 ) ) ;
#861 = CARTESIAN_POINT ( 'NONE',  ( 0.1236136778209372400, 0.2399999999999974098, 0.7383685040413539014 ) ) ;
#862 = ORIENTED_EDGE ( 'NONE', *, *, #998, .F. ) ;
#863 = CARTESIAN_POINT ( 'NONE',  ( 0.9000000000000000222, -0.3512766277926865355, -0.2399999999999999911 ) ) ;
#864 = LINE ( 'NONE', #91, #828 ) ;
#865 = ADVANCED_FACE ( 'NONE', ( #380 ), #938, .T. ) ;
#866 = CARTESIAN_POINT ( 'NONE',  ( 2.500000000000000444, -1.269419332313392141E-15, 0.2400000000000002687 ) ) ;
#867 = ORIENTED_EDGE ( 'NONE', *, *, #909, .T. ) ;
#868 = DIRECTION ( 'NONE',  ( 1.000000000000000000, 0.000000000000000000, 0.000000000000000000 ) ) ;
#869 =( BOUNDED_CURVE ( )  B_SPLINE_CURVE ( 3, ( #859, #620, #536, #390 ),
 .UNSPECIFIED., .F., .F. ) 
 B_SPLINE_CURVE_WITH_KNOTS ( ( 4, 4 ),
 ( 6.105607028073618991, 6.460763586285553473 ),
 .UNSPECIFIED. ) 
 CURVE ( )  GEOMETRIC_REPRESENTATION_ITEM ( )  RATIONAL_B_SPLINE_CURVE ( ( 1.000000000000000000, 0.9895162446896824671, 0.9895162446896824671, 1.000000000000000000 ) ) 
 REPRESENTATION_ITEM ( '' )  );
#870 = DIRECTION ( 'NONE',  ( 0.000000000000000000, 0.000000000000000000, 1.000000000000000000 ) ) ;
#871 = EDGE_CURVE ( 'NONE', #358, #182, #450, .T. ) ;
#872 = PLANE ( 'NONE',  #976 ) ;
#873 = ORIENTED_EDGE ( 'NONE', *, *, #717, .F. ) ;
#874 = CARTESIAN_POINT ( 'NONE',  ( 0.03485364387781592077, 0.3397844064955276022, 0.2399999999999996025 ) ) ;
#875 = CIRCLE ( 'NONE', #127, 2.488453334905037728 ) ;
#876 = PLANE ( 'NONE',  #651 ) ;
#877 = DIRECTION ( 'NONE',  ( -1.000000000000000000, 0.000000000000000000, 0.000000000000000000 ) ) ;
#878 = AXIS2_PLACEMENT_3D ( 'NONE', #679, #926, #786 ) ;
#879 = ORIENTED_EDGE ( 'NONE', *, *, #110, .T. ) ;
#880 = DIRECTION ( 'NONE',  ( 0.000000000000000000, 1.000000000000000000, 0.000000000000000000 ) ) ;
#881 = CARTESIAN_POINT ( 'NONE',  ( 0.9000000000000000222, 0.2400000000000012124, -0.3512766277926857028 ) ) ;
#882 = CARTESIAN_POINT ( 'NONE',  ( 0.9000000000000000222, 0.3512766277925000180, -0.2399999999999999911 ) ) ;
#883 = AXIS2_PLACEMENT_3D ( 'NONE', #14, #317, #108 ) ;
#884 = EDGE_CURVE ( 'NONE', #89, #322, #452, .T. ) ;
#885 = CARTESIAN_POINT ( 'NONE',  ( 0.6117514594725668164, 0.2895822732358734886, -0.2399999999999999911 ) ) ;
#886 = CARTESIAN_POINT ( 'NONE',  ( 0.6117514594722688326, 0.2400000000000010181, -0.2895822732359008000 ) ) ;
#887 = LINE ( 'NONE', #30, #374 ) ;
#888 = VERTEX_POINT ( 'NONE', #993 ) ;
#889 = ORIENTED_EDGE ( 'NONE', *, *, #637, .F. ) ;
#890 = CARTESIAN_POINT ( 'NONE',  ( 0.9000000000000000222, 0.3512766277925000180, 0.2399999999999998246 ) ) ;
#891 = AXIS2_PLACEMENT_3D ( 'NONE', #400, #860, #478 ) ;
#892 = FACE_OUTER_BOUND ( 'NONE', #432, .T. ) ;
#893 = ORIENTED_EDGE ( 'NONE', *, *, #884, .T. ) ;
#894 = CARTESIAN_POINT ( 'NONE',  ( 0.1236136778209437487, -0.2399999999999970213, -0.7383685040413759948 ) ) ;
#895 = ADVANCED_FACE ( 'NONE', ( #773 ), #465, .F. ) ;
#896 = CARTESIAN_POINT ( 'NONE',  ( 0.03485364387781592077, -0.3397844064955301557, 0.2399999999999994915 ) ) ;
#897 = VERTEX_POINT ( 'NONE', #768 ) ;
#898 = CARTESIAN_POINT ( 'NONE',  ( 2.500000000000000444, -0.2400000000000002687, -8.704815864969135687E-16 ) ) ;
#899 = LINE ( 'NONE', #759, #34 ) ;
#900 = PRODUCT_DEFINITION ( 'General', '', #364, #112 ) ;
#901 = ORIENTED_EDGE ( 'NONE', *, *, #612, .T. ) ;
#902 = CARTESIAN_POINT ( 'NONE',  ( 0.8999999999999998002, 0.2622598901852888353, 0.2400000000000001577 ) ) ;
#903 = AXIS2_PLACEMENT_3D ( 'NONE', #16, #319, #151 ) ;
#904 = DIRECTION ( 'NONE',  ( -0.000000000000000000, 0.000000000000000000, 1.000000000000000000 ) ) ;
#905 = AXIS2_PLACEMENT_3D ( 'NONE', #449, #683, #983 ) ;
#906 = ORIENTED_EDGE ( 'NONE', *, *, #909, .F. ) ;
#907 = FACE_BOUND ( 'NONE', #366, .T. ) ;
#908 = CIRCLE ( 'NONE', #608, 0.4159969265481628375 ) ;
#909 = EDGE_CURVE ( 'NONE', #551, #992, #292, .T. ) ;
#910 = VERTEX_POINT ( 'NONE', #531 ) ;
#911 = FACE_OUTER_BOUND ( 'NONE', #74, .T. ) ;
#912 = FACE_OUTER_BOUND ( 'NONE', #162, .T. ) ;
#913 = AXIS2_PLACEMENT_3D ( 'NONE', #607, #198, #53 ) ;
#914 = ORIENTED_EDGE ( 'NONE', *, *, #785, .F. ) ;
#915 = DIRECTION ( 'NONE',  ( -0.8949343913984054710, 0.4461977533475101065, 0.000000000000000000 ) ) ;
#916 = EDGE_CURVE ( 'NONE', #89, #671, #5, .T. ) ;
#917 = CARTESIAN_POINT ( 'NONE',  ( 0.8999999999999998002, 0.000000000000000000, 0.000000000000000000 ) ) ;
#918 = ORIENTED_EDGE ( 'NONE', *, *, #779, .F. ) ;
#919 = PLANE ( 'NONE',  #225 ) ;
#920 = DIRECTION ( 'NONE',  ( 0.8949343913984056931, 0.000000000000000000, -0.4461977533475100510 ) ) ;
#921 =( GEOMETRIC_REPRESENTATION_CONTEXT ( 3 ) GLOBAL_UNCERTAINTY_ASSIGNED_CONTEXT ( ( #541 ) ) GLOBAL_UNIT_ASSIGNED_CONTEXT ( ( #719, #22, #163 ) ) REPRESENTATION_CONTEXT ( 'NONE', 'WORKASPACE' ) );
#922 = EDGE_CURVE ( 'NONE', #743, #130, #869, .T. ) ;
#923 = CARTESIAN_POINT ( 'NONE',  ( 0.9000000000000000222, -0.3512766277926865355, -0.2399999999999999911 ) ) ;
#924 = ORIENTED_EDGE ( 'NONE', *, *, #857, .T. ) ;
#925 = CARTESIAN_POINT ( 'NONE',  ( 0.03485364387781592077, 0.3397844064955276022, 0.2399999999999996025 ) ) ;
#926 = DIRECTION ( 'NONE',  ( -1.000000000000000000, -0.000000000000000000, -0.000000000000000000 ) ) ;
#927 = CARTESIAN_POINT ( 'NONE',  ( 0.8868283770652275466, 0.3578437556377631612, 0.01840460858054127763 ) ) ;
#928 = ADVANCED_FACE ( 'NONE', ( #931 ), #919, .T. ) ;
#929 = AXIS2_PLACEMENT_3D ( 'NONE', #585, #715, #19 ) ;
#930 = ORIENTED_EDGE ( 'NONE', *, *, #424, .T. ) ;
#931 = FACE_OUTER_BOUND ( 'NONE', #311, .T. ) ;
#932 = CARTESIAN_POINT ( 'NONE',  ( 0.8999999999999998002, 0.3512766277925005731, -0.05463497750277621773 ) ) ;
#933 = DIRECTION ( 'NONE',  ( 1.000000000000000000, 0.000000000000000000, 0.000000000000000000 ) ) ;
#934 = AXIS2_PLACEMENT_3D ( 'NONE', #846, #705, #999 ) ;
#935 = EDGE_CURVE ( 'NONE', #802, #897, #643, .T. ) ;
#936 = AXIS2_PLACEMENT_3D ( 'NONE', #122, #603, #205 ) ;
#937 = ORIENTED_EDGE ( 'NONE', *, *, #307, .F. ) ;
#938 = PLANE ( 'NONE',  #787 ) ;
#939 = FACE_OUTER_BOUND ( 'NONE', #844, .T. ) ;
#940 = DIRECTION ( 'NONE',  ( 0.8949343913984795229, 0.4461977533473616142, 3.234299371287414225E-16 ) ) ;
#941 = ORIENTED_EDGE ( 'NONE', *, *, #402, .T. ) ;
#942 = EDGE_CURVE ( 'NONE', #121, #551, #86, .T. ) ;
#943 = DIRECTION ( 'NONE',  ( -0.8949343913984054710, -1.557891129246562846E-15, 0.4461977533475101065 ) ) ;
#944 = AXIS2_PLACEMENT_3D ( 'NONE', #202, #353, #270 ) ;
#945 = CARTESIAN_POINT ( 'NONE',  ( 0.9000000000000000222, -0.3512766277926865355, -0.2399999999999999911 ) ) ;
#946 = EDGE_LOOP ( 'NONE', ( #426 ) ) ;
#947 = LINE ( 'NONE', #28, #284 ) ;
#948 = DIRECTION ( 'NONE',  ( 0.000000000000000000, 0.000000000000000000, 1.000000000000000000 ) ) ;
#949 = ORIENTED_EDGE ( 'NONE', *, *, #953, .F. ) ;
#950 = CARTESIAN_POINT ( 'NONE',  ( 0.9000000000000000222, -0.3512766277926865355, -0.2399999999999999911 ) ) ;
#951 = CARTESIAN_POINT ( 'NONE',  ( 5.299999999999998934, 0.8000000000000000444, 0.000000000000000000 ) ) ;
#952 = CONICAL_SURFACE ( 'NONE', #891, 0.3554999999999998161, 0.06981317007976602096 ) ;
#953 = EDGE_CURVE ( 'NONE', #955, #955, #677, .T. ) ;
#954 = EDGE_LOOP ( 'NONE', ( #298 ) ) ;
#955 = VERTEX_POINT ( 'NONE', #260 ) ;
#956 = DIRECTION ( 'NONE',  ( -1.000000000000000000, -0.000000000000000000, -0.000000000000000000 ) ) ;
#957 = CARTESIAN_POINT ( 'NONE',  ( 0.9000000000000000222, 0.3512766277925000180, -0.2399999999999999911 ) ) ;
#958 = AXIS2_PLACEMENT_3D ( 'NONE', #44, #351, #805 ) ;
#959 = EDGE_CURVE ( 'NONE', #728, #331, #477, .T. ) ;
#960 = AXIS2_PLACEMENT_3D ( 'NONE', #95, #487, #566 ) ;
#961 = ORIENTED_EDGE ( 'NONE', *, *, #561, .F. ) ;
#962 = CARTESIAN_POINT ( 'NONE',  ( 5.299999999999998934, 0.000000000000000000, 0.8000000000000000444 ) ) ;
#963 = PLANE ( 'NONE',  #929 ) ;
#964 = EDGE_LOOP ( 'NONE', ( #718, #972 ) ) ;
#965 = EDGE_CURVE ( 'NONE', #910, #269, #576, .T. ) ;
#966 = CARTESIAN_POINT ( 'NONE',  ( 0.6117514594725663724, 0.2399999999999989364, 0.2895822732358743212 ) ) ;
#967 = AXIS2_PLACEMENT_3D ( 'NONE', #543, #854, #694 ) ;
#968 = DIRECTION ( 'NONE',  ( 0.000000000000000000, -3.627145809542080983E-15, 1.000000000000000000 ) ) ;
#969 = CIRCLE ( 'NONE', #287, 0.4159969265481628375 ) ;
#970 = ORIENTED_EDGE ( 'NONE', *, *, #599, .F. ) ;
#971 =( LENGTH_UNIT ( ) NAMED_UNIT ( * ) SI_UNIT ( .MILLI., .METRE. ) );
#972 = ORIENTED_EDGE ( 'NONE', *, *, #120, .F. ) ;
#973 = CARTESIAN_POINT ( 'NONE',  ( 0.9000000000000000222, -0.3512766277926865355, -0.2399999999999999911 ) ) ;
#974 = EDGE_CURVE ( 'NONE', #398, #460, #226, .T. ) ;
#975 = CARTESIAN_POINT ( 'NONE',  ( 2.500000000000000444, 0.2399999999999999911, 8.379555213223563243E-16 ) ) ;
#976 = AXIS2_PLACEMENT_3D ( 'NONE', #951, #575, #419 ) ;
#977 = AXIS2_PLACEMENT_3D ( 'NONE', #882, #877, #647 ) ;
#978 = VERTEX_POINT ( 'NONE', #422 ) ;
#979 = CARTESIAN_POINT ( 'NONE',  ( 0.8999999999999998002, 0.000000000000000000, 0.000000000000000000 ) ) ;
#980 = DIRECTION ( 'NONE',  ( -1.000000000000000000, -0.000000000000000000, -0.000000000000000000 ) ) ;
#981 = ORIENTED_EDGE ( 'NONE', *, *, #810, .T. ) ;
#982 = CARTESIAN_POINT ( 'NONE',  ( 0.8999999999999998002, 0.000000000000000000, 0.000000000000000000 ) ) ;
#983 = DIRECTION ( 'NONE',  ( -0.8949343913984055821, 0.4461977533475101620, 0.000000000000000000 ) ) ;
#984 = AXIS2_PLACEMENT_3D ( 'NONE', #412, #184, #341 ) ;
#985 = AXIS2_PLACEMENT_3D ( 'NONE', #456, #997, #299 ) ;
#986 = EDGE_CURVE ( 'NONE', #671, #322, #365, .T. ) ;
#987 = ORIENTED_EDGE ( 'NONE', *, *, #522, .F. ) ;
#988 = DIRECTION ( 'NONE',  ( 2.938303276351416591E-16, 1.355252715606881036E-16, -1.000000000000000000 ) ) ;
#989 = CARTESIAN_POINT ( 'NONE',  ( 0.000000000000000000, 0.7999999999999994893, -0.2399999999999999911 ) ) ;
#990 = MANIFOLD_SOLID_BREP ( 'RecessCore', #826 ) ;
#991 = ADVANCED_FACE ( 'NONE', ( #639 ), #573, .T. ) ;
#992 = VERTEX_POINT ( 'NONE', #874 ) ;
#993 = CARTESIAN_POINT ( 'NONE',  ( 0.9000000000000000222, -0.2399999999999988531, -0.2622598901852893349 ) ) ;
#994 = CARTESIAN_POINT ( 'NONE',  ( 0.6117514594725663724, -0.2399999999999986866, -0.2895822732358745433 ) ) ;
#995 = AXIS2_PLACEMENT_3D ( 'NONE', #329, #245, #870 ) ;
#996 = ORIENTED_EDGE ( 'NONE', *, *, #491, .F. ) ;
#997 = DIRECTION ( 'NONE',  ( -1.000000000000000000, 0.000000000000000000, 0.000000000000000000 ) ) ;
#998 = EDGE_CURVE ( 'NONE', #910, #824, #625, .T. ) ;
#999 = DIRECTION ( 'NONE',  ( 0.000000000000000000, 0.000000000000000000, 1.000000000000000000 ) ) ;
ENDSEC;
END-ISO-10303-21;
