ISO-10303-21;
HEADER;
FILE_DESCRIPTION (( 'STEP AP214' ),
    '1' );
FILE_NAME ('ISO - 4032 - M2.5 - W - N.STEP',
    '2025-07-29T15:59:07',
    ( '' ),
    ( '' ),
    'SwSTEP 2.0',
    'SolidWorks 2025',
    '' );
FILE_SCHEMA (( 'AUTOMOTIVE_DESIGN' ));
ENDSEC;

DATA;
#1 = DIRECTION ( 'NONE',  ( -1.000000000000000000, 0.000000000000000000, 0.000000000000000000 ) ) ;
#2 = CIRCLE ( 'NONE', #687, 2.499999999999998668 ) ;
#3 = AXIS2_PLACEMENT_3D ( 'NONE', #232, #269, #436 ) ;
#4 = EDGE_LOOP ( 'NONE', ( #63, #79, #685 ) ) ;
#5 = CARTESIAN_POINT ( 'NONE',  ( -1.249999999999983125, -2.165063509461104818, 0.000000000000000000 ) ) ;
#6 = CIRCLE ( 'NONE', #404, 2.499999999999998668 ) ;
#7 = VERTEX_POINT ( 'NONE', #285 ) ;
#8 = PLANE ( 'NONE',  #237 ) ;
#9 = FACE_OUTER_BOUND ( 'NONE', #430, .T. ) ;
#10 = DIRECTION ( 'NONE',  ( 0.000000000000000000, 0.000000000000000000, -1.000000000000000000 ) ) ;
#11 = FACE_OUTER_BOUND ( 'NONE', #589, .T. ) ;
#12 = EDGE_CURVE ( 'NONE', #437, #413, #2, .T. ) ;
#13 = DIRECTION ( 'NONE',  ( -1.000000000000000000, 1.776356839400250465E-15, 0.000000000000000000 ) ) ;
#14 = ORIENTED_EDGE ( 'NONE', *, *, #167, .F. ) ;
#15 = DIRECTION ( 'NONE',  ( 0.000000000000000000, 0.000000000000000000, -1.000000000000000000 ) ) ;
#16 = PRODUCT ( 'ISO - 4032 - M2.5 - W - N_ISO - 4032 - M2.5 - W - N', 'ISO - 4032 - M2.5 - W - N_ISO - 4032 - M2.5 - W - N', '', ( #293 ) ) ;
#17 = DIRECTION ( 'NONE',  ( -0.000000000000000000, -0.000000000000000000, 1.000000000000000000 ) ) ;
#18 = AXIS2_PLACEMENT_3D ( 'NONE', #505, #672, #89 ) ;
#19 = DIRECTION ( 'NONE',  ( 1.000000000000000000, 0.000000000000000000, 0.000000000000000000 ) ) ;
#20 = DIRECTION ( 'NONE',  ( 0.4999999999999922839, -0.8660254037844431485, 0.000000000000000000 ) ) ;
#21 = ADVANCED_FACE ( 'NONE', ( #174 ), #238, .T. ) ;
#22 = CARTESIAN_POINT ( 'NONE',  ( 2.499999999999996891, -1.443375672974102075, -0.2232909936926131267 ) ) ;
#23 = CARTESIAN_POINT ( 'NONE',  ( 0.8240719909532725485, 2.410973160139627147, 3.842753532437411114E-15 ) ) ;
#24 = AXIS2_PLACEMENT_3D ( 'NONE', #630, #525, #418 ) ;
#25 = ORIENTED_EDGE ( 'NONE', *, *, #541, .F. ) ;
#26 = CONICAL_SURFACE ( 'NONE', #313, 2.499999999999998668, 1.047197551196596299 ) ;
#27 = CARTESIAN_POINT ( 'NONE',  ( 2.499999999999995115, -0.9681888205869535469, -0.09868458662246401558 ) ) ;
#28 = CARTESIAN_POINT ( 'NONE',  ( 2.499999999999995115, 1.443375672974039459, -2.000000000000000000 ) ) ;
#29 = FACE_OUTER_BOUND ( 'NONE', #281, .T. ) ;
#30 = AXIS2_PLACEMENT_3D ( 'NONE', #684, #408, #464 ) ;
#31 = CARTESIAN_POINT ( 'NONE',  ( 2.499999999999995115, 1.443375672974039459, -1.700000000000007061 ) ) ;
#32 = ORIENTED_EDGE ( 'NONE', *, *, #560, .T. ) ;
#33 = CARTESIAN_POINT ( 'NONE',  ( 0.000000000000000000, 0.000000000000000000, -0.1575466960971776686 ) ) ;
#34 = DIRECTION ( 'NONE',  ( -1.000000000000000000, 0.000000000000000000, 0.000000000000000000 ) ) ;
#35 = VERTEX_POINT ( 'NONE', #349 ) ;
#36 = CARTESIAN_POINT ( 'NONE',  ( 2.499999999999998668, 0.000000000000000000, 0.000000000000000000 ) ) ;
#37 = VECTOR ( 'NONE', #397, 1000.000000000000114 ) ;
#38 = CARTESIAN_POINT ( 'NONE',  ( -2.499999999999998224, 0.9735427132084287782, -0.09981035355984327340 ) ) ;
#39 = EDGE_LOOP ( 'NONE', ( #381, #361, #622, #99, #691, #342 ) ) ;
#40 = DIRECTION ( 'NONE',  ( 0.5000000000000111022, 0.8660254037844322683, -0.000000000000000000 ) ) ;
#41 = AXIS2_PLACEMENT_3D ( 'NONE', #443, #652, #1 ) ;
#42 = CARTESIAN_POINT ( 'NONE',  ( -1.951563910473907981E-15, 2.886751345948144643, -0.2232909936926131267 ) ) ;
#43 = VERTEX_POINT ( 'NONE', #595 ) ;
#44 = ADVANCED_FACE ( 'NONE', ( #9 ), #554, .T. ) ;
#45 = LINE ( 'NONE', #580, #539 ) ;
#46 = ORIENTED_EDGE ( 'NONE', *, *, #588, .F. ) ;
#47 = CARTESIAN_POINT ( 'NONE',  ( -2.499999999999998668, 0.000000000000000000, -1.700000000000007061 ) ) ;
#48 = VECTOR ( 'NONE', #396, 1000.000000000000000 ) ;
#49 = PRODUCT_DEFINITION_CONTEXT ( 'detailed design', #616, 'design' ) ;
#50 = ORIENTED_EDGE ( 'NONE', *, *, #619, .T. ) ;
#51 = FACE_OUTER_BOUND ( 'NONE', #564, .T. ) ;
#52 = ADVANCED_FACE ( 'NONE', ( #226 ), #286, .T. ) ;
#53 = ORIENTED_EDGE ( 'NONE', *, *, #296, .T. ) ;
#54 = DIRECTION ( 'NONE',  ( 0.000000000000000000, 0.000000000000000000, -1.000000000000000000 ) ) ;
#55 = DIRECTION ( 'NONE',  ( 0.000000000000000000, 0.000000000000000000, -1.000000000000000000 ) ) ;
#56 = EDGE_CURVE ( 'NONE', #559, #103, #665, .T. ) ;
#57 = ORIENTED_EDGE ( 'NONE', *, *, #357, .F. ) ;
#58 = CARTESIAN_POINT ( 'NONE',  ( 2.499999999999995115, -1.443375672974103630, -2.000000000000000000 ) ) ;
#59 = DIRECTION ( 'NONE',  ( -1.000000000000000000, 0.000000000000000000, 0.000000000000000000 ) ) ;
#60 = ORIENTED_EDGE ( 'NONE', *, *, #508, .T. ) ;
#61 = CARTESIAN_POINT ( 'NONE',  ( -0.4096473366186660359, 2.650241345878539878, -0.09917222024861284402 ) ) ;
#62 = CARTESIAN_POINT ( 'NONE',  ( -1.734723475976807094E-15, 2.886751345948145087, -2.000000000000000000 ) ) ;
#63 = ORIENTED_EDGE ( 'NONE', *, *, #296, .F. ) ;
#64 = CARTESIAN_POINT ( 'NONE',  ( -1.250000000000022649, 2.165063509461081726, 0.000000000000000000 ) ) ;
#65 = EDGE_CURVE ( 'NONE', #76, #35, #157, .T. ) ;
#66 = DIRECTION ( 'NONE',  ( 0.000000000000000000, -1.000000000000000000, 0.000000000000000000 ) ) ;
#67 = CARTESIAN_POINT ( 'NONE',  ( -2.499999999999998668, 1.443375672974046564, -1.700000000000007061 ) ) ;
#68 =( NAMED_UNIT ( * ) SI_UNIT ( $, .STERADIAN. ) SOLID_ANGLE_UNIT ( ) );
#69 = CYLINDRICAL_SURFACE ( 'NONE', #478, 2.499999999999998668 ) ;
#70 = CARTESIAN_POINT ( 'NONE',  ( 2.499999999999994671, 0.9735427132084665258, -0.09981035355984896329 ) ) ;
#71 = EDGE_CURVE ( 'NONE', #312, #103, #192, .T. ) ;
#72 = DIRECTION ( 'NONE',  ( 0.000000000000000000, -0.000000000000000000, 1.000000000000000000 ) ) ;
#73 = AXIS2_PLACEMENT_3D ( 'NONE', #612, #93, #521 ) ;
#74 = DIRECTION ( 'NONE',  ( 0.8660254037844430375, 0.4999999999999922284, 0.000000000000000000 ) ) ;
#75 = CARTESIAN_POINT ( 'NONE',  ( -2.499999999999999112, -1.208622313462270670, -0.1555235360389395083 ) ) ;
#76 = VERTEX_POINT ( 'NONE', #341 ) ;
#77 = CARTESIAN_POINT ( 'NONE',  ( 2.499999999999995115, -1.208622313462273778, -0.1555235360389388144 ) ) ;
#78 = DIRECTION ( 'NONE',  ( -0.000000000000000000, -0.000000000000000000, 1.000000000000000000 ) ) ;
#79 = ORIENTED_EDGE ( 'NONE', *, *, #80, .F. ) ;
#80 = EDGE_CURVE ( 'NONE', #202, #76, #596, .T. ) ;
#81 = CARTESIAN_POINT ( 'NONE',  ( 1.249999999999989564, -2.165063509461123470, -1.700000000000007061 ) ) ;
#82 = UNCERTAINTY_MEASURE_WITH_UNIT (LENGTH_MEASURE( 1.000000000000000082E-05 ), #325, 'distance_accuracy_value', 'NONE');
#83 = DIRECTION ( 'NONE',  ( 0.000000000000000000, 0.000000000000000000, 1.000000000000000000 ) ) ;
#84 = ORIENTED_EDGE ( 'NONE', *, *, #688, .T. ) ;
#85 = VECTOR ( 'NONE', #204, 1000.000000000000114 ) ;
#86 = CARTESIAN_POINT ( 'NONE',  ( 2.499999999999995115, 1.443375672974039459, -1.700000000000007061 ) ) ;
#87 = CARTESIAN_POINT ( 'NONE',  ( -2.499999999999998668, 1.443375672974046564, -0.2232909936926131267 ) ) ;
#88 = ORIENTED_EDGE ( 'NONE', *, *, #300, .F. ) ;
#89 = DIRECTION ( 'NONE',  ( 1.000000000000000000, 0.000000000000000000, 0.000000000000000000 ) ) ;
#90 = ORIENTED_EDGE ( 'NONE', *, *, #440, .F. ) ;
#91 = CIRCLE ( 'NONE', #660, 1.250000000000001110 ) ;
#92 = DIRECTION ( 'NONE',  ( 0.8660254037844430375, 0.4999999999999922284, 0.000000000000000000 ) ) ;
#93 = DIRECTION ( 'NONE',  ( 0.000000000000000000, -0.000000000000000000, 1.000000000000000000 ) ) ;
#94 = EDGE_CURVE ( 'NONE', #689, #413, #322, .T. ) ;
#95 = ORIENTED_EDGE ( 'NONE', *, *, #339, .F. ) ;
#96 = SURFACE_STYLE_USAGE ( .BOTH. , #156 ) ;
#97 = VERTEX_POINT ( 'NONE', #67 ) ;
#98 = DIRECTION ( 'NONE',  ( -0.8660254037844322683, 0.5000000000000111022, 0.000000000000000000 ) ) ;
#99 = ORIENTED_EDGE ( 'NONE', *, *, #229, .F. ) ;
#100 = CARTESIAN_POINT ( 'NONE',  ( 0.000000000000000000, 0.000000000000000000, 6.938893903907228378E-15 ) ) ;
#101 = AXIS2_PLACEMENT_3D ( 'NONE', #620, #626, #142 ) ;
#102 = ADVANCED_FACE ( 'NONE', ( #447, #445 ), #69, .T. ) ;
#103 = VERTEX_POINT ( 'NONE', #656 ) ;
#104 = DIRECTION ( 'NONE',  ( 0.000000000000000000, 0.000000000000000000, 1.000000000000000000 ) ) ;
#105 = DIRECTION ( 'NONE',  ( 1.000000000000000000, 0.000000000000000000, 0.000000000000000000 ) ) ;
#106 = PRODUCT_RELATED_PRODUCT_CATEGORY ( 'part', '', ( #16 ) ) ;
#107 = ORIENTED_EDGE ( 'NONE', *, *, #155, .T. ) ;
#108 = VERTEX_POINT ( 'NONE', #651 ) ;
#109 = FACE_OUTER_BOUND ( 'NONE', #208, .T. ) ;
#110 = ORIENTED_EDGE ( 'NONE', *, *, #65, .T. ) ;
#111 =( NAMED_UNIT ( * ) PLANE_ANGLE_UNIT ( ) SI_UNIT ( $, .RADIAN. ) );
#112 = CARTESIAN_POINT ( 'NONE',  ( 0.000000000000000000, 0.000000000000000000, -1.817053303902814942 ) ) ;
#113 =( GEOMETRIC_REPRESENTATION_CONTEXT ( 3 ) GLOBAL_UNCERTAINTY_ASSIGNED_CONTEXT ( ( #636 ) ) GLOBAL_UNIT_ASSIGNED_CONTEXT ( ( #314, #426, #320 ) ) REPRESENTATION_CONTEXT ( 'NONE', 'WORKASPACE' ) );
#114 = VECTOR ( 'NONE', #466, 1000.000000000000000 ) ;
#115 = ORIENTED_EDGE ( 'NONE', *, *, #94, .T. ) ;
#116 = EDGE_CURVE ( 'NONE', #260, #559, #178, .T. ) ;
#117 = CARTESIAN_POINT ( 'NONE',  ( -0.2039727762351530027, 2.768987608681422241, -0.1553000682801491672 ) ) ;
#118 = DIRECTION ( 'NONE',  ( -1.000000000000000000, -3.552713678800500929E-15, 0.000000000000000000 ) ) ;
#119 = CARTESIAN_POINT ( 'NONE',  ( -2.499999999999999112, -0.9681888205869513264, -0.09868458662246551438 ) ) ;
#120 = CARTESIAN_POINT ( 'NONE',  ( 2.499999999999996891, -1.443375672974102075, -0.2232909936926131267 ) ) ;
#121 = CARTESIAN_POINT ( 'NONE',  ( -1.670006329316492025E-15, 2.886751345948145087, -1.700000000000007061 ) ) ;
#122 = PRODUCT_DEFINITION_SHAPE ( 'NONE', 'NONE',  #364 ) ;
#123 = CARTESIAN_POINT ( 'NONE',  ( 0.8259405284195958652, -2.409894359530470265, -0.02138146928958551546 ) ) ;
#124 = ORIENTED_EDGE ( 'NONE', *, *, #94, .F. ) ;
#125 = DIRECTION ( 'NONE',  ( -0.000000000000000000, -0.000000000000000000, 1.000000000000000000 ) ) ;
#126 = ADVANCED_FACE ( 'NONE', ( #127 ), #345, .T. ) ;
#127 = FACE_OUTER_BOUND ( 'NONE', #433, .T. ) ;
#128 = FACE_OUTER_BOUND ( 'NONE', #39, .T. ) ;
#129 = CARTESIAN_POINT ( 'NONE',  ( 1.037831462877276900, -2.287559071482488271, -1.003606987554257441E-14 ) ) ;
#130 = ORIENTED_EDGE ( 'NONE', *, *, #145, .F. ) ;
#131 = CARTESIAN_POINT ( 'NONE',  ( -2.296027223764849801, -1.561139410240813374, -0.1553000682801514154 ) ) ;
#132 = CARTESIAN_POINT ( 'NONE',  ( 0.000000000000000000, 0.000000000000000000, 0.000000000000000000 ) ) ;
#133 = CARTESIAN_POINT ( 'NONE',  ( 0.000000000000000000, 0.000000000000000000, -1.999999999999998224 ) ) ;
#134 = FACE_OUTER_BOUND ( 'NONE', #487, .T. ) ;
#135 = ORIENTED_EDGE ( 'NONE', *, *, #495, .F. ) ;
#136 = EDGE_CURVE ( 'NONE', #260, #406, #428, .T. ) ;
#137 = VECTOR ( 'NONE', #470, 1000.000000000000114 ) ;
#138 = DIRECTION ( 'NONE',  ( 0.000000000000000000, -0.000000000000000000, 1.000000000000000000 ) ) ;
#139 = CARTESIAN_POINT ( 'NONE',  ( 1.249999999999979794, -2.165063509461106595, 0.000000000000000000 ) ) ;
#140 = ORIENTED_EDGE ( 'NONE', *, *, #609, .T. ) ;
#141 = AXIS2_PLACEMENT_3D ( 'NONE', #143, #201, #412 ) ;
#142 = DIRECTION ( 'NONE',  ( -1.000000000000000000, 1.776356839400250465E-15, 0.000000000000000000 ) ) ;
#143 = CARTESIAN_POINT ( 'NONE',  ( 0.000000000000000000, 12.88675134594815042, -1.700000000000007061 ) ) ;
#144 = ORIENTED_EDGE ( 'NONE', *, *, #136, .F. ) ;
#145 = EDGE_CURVE ( 'NONE', #475, #218, #569, .T. ) ;
#146 = CARTESIAN_POINT ( 'NONE',  ( 2.499999999999995115, 1.443375672974039459, -1.700000000000007061 ) ) ;
#147 = AXIS2_PLACEMENT_3D ( 'NONE', #575, #523, #472 ) ;
#148 = EDGE_LOOP ( 'NONE', ( #168 ) ) ;
#149 = FACE_OUTER_BOUND ( 'NONE', #637, .T. ) ;
#150 = DIRECTION ( 'NONE',  ( -1.000000000000000000, 0.000000000000000000, -0.000000000000000000 ) ) ;
#151 = ORIENTED_EDGE ( 'NONE', *, *, #175, .T. ) ;
#152 = LINE ( 'NONE', #200, #561 ) ;
#153 = AXIS2_PLACEMENT_3D ( 'NONE', #326, #486, #118 ) ;
#154 = ORIENTED_EDGE ( 'NONE', *, *, #422, .T. ) ;
#155 = EDGE_CURVE ( 'NONE', #308, #312, #416, .T. ) ;
#156 = SURFACE_SIDE_STYLE ('',( #690 ) ) ;
#157 = B_SPLINE_CURVE_WITH_KNOTS ( 'NONE', 3,
 ( #650, #599, #450, #659, #501, #182 ),
 .UNSPECIFIED., .F., .F.,
 ( 4, 2, 4 ),
 ( 0.001460698361253784557, 0.002188200934436767935, 0.002915703507619751746 ),
 .UNSPECIFIED. ) ;
#158 = ORIENTED_EDGE ( 'NONE', *, *, #199, .T. ) ;
#159 = ADVANCED_FACE ( 'NONE', ( #246, #310 ), #190, .F. ) ;
#160 = CARTESIAN_POINT ( 'NONE',  ( -2.091034474270799581, 1.679492029343082171, -0.08696915178140279812 ) ) ;
#161 = ORIENTED_EDGE ( 'NONE', *, *, #12, .T. ) ;
#162 = CIRCLE ( 'NONE', #73, 2.499999999999998668 ) ;
#163 = ORIENTED_EDGE ( 'NONE', *, *, #694, .T. ) ;
#164 = CARTESIAN_POINT ( 'NONE',  ( 0.000000000000000000, 12.88675134594815042, -1.700000000000007061 ) ) ;
#165 = PRODUCT_DEFINITION_FORMATION_WITH_SPECIFIED_SOURCE ( 'Symmetric', '', #16, .NOT_KNOWN. ) ;
#166 = CARTESIAN_POINT ( 'NONE',  ( -2.499999999999998668, -1.443375672974096746, -2.000000000000000000 ) ) ;
#167 = EDGE_CURVE ( 'NONE', #475, #35, #366, .T. ) ;
#168 = ORIENTED_EDGE ( 'NONE', *, *, #372, .T. ) ;
#169 = LINE ( 'NONE', #58, #306 ) ;
#170 = FACE_BOUND ( 'NONE', #377, .T. ) ;
#171 = AXIS2_PLACEMENT_3D ( 'NONE', #133, #138, #358 ) ;
#172 = CARTESIAN_POINT ( 'NONE',  ( 0.4089655257292144075, 2.650634989579097933, -0.08696915178140791902 ) ) ;
#173 = CARTESIAN_POINT ( 'NONE',  ( -2.499999999999998668, 1.443375672974046564, -1.700000000000007061 ) ) ;
#174 = FACE_OUTER_BOUND ( 'NONE', #491, .T. ) ;
#175 = EDGE_CURVE ( 'NONE', #639, #312, #277, .T. ) ;
#176 = CARTESIAN_POINT ( 'NONE',  ( -0.4089655257291953672, -2.650634989579112144, -0.08696915178141471914 ) ) ;
#177 = ADVANCED_BREP_SHAPE_REPRESENTATION ( 'ISO - 4032 - M2.5 - W - N_ISO - 4032 - M2.5 - W - N', ( #535, #635 ), #533 ) ;
#178 = LINE ( 'NONE', #398, #395 ) ;
#179 = ORIENTED_EDGE ( 'NONE', *, *, #243, .F. ) ;
#180 = EDGE_CURVE ( 'NONE', #413, #211, #365, .T. ) ;
#181 = DIRECTION ( 'NONE',  ( -1.000000000000000000, 0.000000000000000000, 0.000000000000000000 ) ) ;
#182 = CARTESIAN_POINT ( 'NONE',  ( 2.499999999999995115, 1.443375672974104962, -0.2232909936926131267 ) ) ;
#183 = VECTOR ( 'NONE', #387, 1000.000000000000000 ) ;
#184 = CARTESIAN_POINT ( 'NONE',  ( -2.499999999999998668, 1.443375672974046564, -2.000000000000000000 ) ) ;
#185 = CARTESIAN_POINT ( 'NONE',  ( 1.249999999999979794, -2.165063509461106595, 0.000000000000000000 ) ) ;
#186 = AXIS2_PLACEMENT_3D ( 'NONE', #457, #471, #249 ) ;
#187 = ORIENTED_EDGE ( 'NONE', *, *, #180, .F. ) ;
#188 = FACE_BOUND ( 'NONE', #148, .T. ) ;
#189 = EDGE_CURVE ( 'NONE', #218, #321, #291, .T. ) ;
#190 = CYLINDRICAL_SURFACE ( 'NONE', #186, 1.024999999999999911 ) ;
#191 = ORIENTED_EDGE ( 'NONE', *, *, #263, .F. ) ;
#192 = B_SPLINE_CURVE_WITH_KNOTS ( 'NONE', 3,
 ( #185, #129, #123, #402, #556, #558 ),
 .UNSPECIFIED., .F., .F.,
 ( 4, 2, 4 ),
 ( 0.001460698361253742273, 0.002188200934436737143, 0.002915703507619732231 ),
 .UNSPECIFIED. ) ;
#193 = LINE ( 'NONE', #236, #606 ) ;
#194 = DIRECTION ( 'NONE',  ( 0.000000000000000000, -0.000000000000000000, 1.000000000000000000 ) ) ;
#195 = ORIENTED_EDGE ( 'NONE', *, *, #526, .F. ) ;
#196 = DIRECTION ( 'NONE',  ( 0.000000000000000000, 0.000000000000000000, 1.000000000000000000 ) ) ;
#197 = DIRECTION ( 'NONE',  ( 1.000000000000000000, 0.000000000000000000, 0.000000000000000000 ) ) ;
#198 = ORIENTED_EDGE ( 'NONE', *, *, #300, .T. ) ;
#199 = EDGE_CURVE ( 'NONE', #458, #260, #359, .T. ) ;
#200 = CARTESIAN_POINT ( 'NONE',  ( 2.499999999999995115, 1.443375672974039459, -1.700000000000007061 ) ) ;
#201 = DIRECTION ( 'NONE',  ( 0.000000000000000000, 0.000000000000000000, -1.000000000000000000 ) ) ;
#202 = VERTEX_POINT ( 'NONE', #42 ) ;
#203 = LINE ( 'NONE', #261, #354 ) ;
#204 = DIRECTION ( 'NONE',  ( -0.8660254037844322683, 0.5000000000000111022, 0.000000000000000000 ) ) ;
#205 = ORIENTED_EDGE ( 'NONE', *, *, #56, .F. ) ;
#206 = COLOUR_RGB ( '',0.7921568627450980005, 0.8196078431372548767, 0.9333333333333333481 ) ;
#207 = ADVANCED_FACE ( 'NONE', ( #678 ), #631, .T. ) ;
#208 = EDGE_LOOP ( 'NONE', ( #179 ) ) ;
#209 = DIRECTION ( 'NONE',  ( -0.000000000000000000, -0.000000000000000000, 1.000000000000000000 ) ) ;
#210 = AXIS2_PLACEMENT_3D ( 'NONE', #461, #194, #34 ) ;
#211 = VERTEX_POINT ( 'NONE', #87 ) ;
#212 = CARTESIAN_POINT ( 'NONE',  ( -1.250000000000001110, 0.000000000000000000, -1.999999999999998224 ) ) ;
#213 = ORIENTED_EDGE ( 'NONE', *, *, #263, .T. ) ;
#214 = DIRECTION ( 'NONE',  ( 1.000000000000000000, 0.000000000000000000, 0.000000000000000000 ) ) ;
#215 = CONICAL_SURFACE ( 'NONE', #603, 2.499999999999998668, 1.047197551196596299 ) ;
#216 = LINE ( 'NONE', #166, #183 ) ;
#217 = AXIS2_PLACEMENT_3D ( 'NONE', #112, #332, #543 ) ;
#218 = VERTEX_POINT ( 'NONE', #302 ) ;
#219 = DIRECTION ( 'NONE',  ( 0.000000000000000000, 0.000000000000000000, 1.000000000000000000 ) ) ;
#220 = ADVANCED_FACE ( 'NONE', ( #419, #624 ), #298, .F. ) ;
#221 = CARTESIAN_POINT ( 'NONE',  ( 1.561251128379126385E-14, -2.886751345948145531, -0.2232909936926131267 ) ) ;
#222 = AXIS2_PLACEMENT_3D ( 'NONE', #509, #513, #197 ) ;
#223 = ORIENTED_EDGE ( 'NONE', *, *, #526, .T. ) ;
#224 = CARTESIAN_POINT ( 'NONE',  ( -2.499999999999998668, 1.443375672974046564, -0.2232909936926131267 ) ) ;
#225 = CARTESIAN_POINT ( 'NONE',  ( 0.000000000000000000, 0.000000000000000000, 0.000000000000000000 ) ) ;
#226 = FACE_OUTER_BOUND ( 'NONE', #4, .T. ) ;
#227 = DIRECTION ( 'NONE',  ( 0.000000000000000000, 0.000000000000000000, -1.000000000000000000 ) ) ;
#228 = FACE_OUTER_BOUND ( 'NONE', #493, .T. ) ;
#229 = EDGE_CURVE ( 'NONE', #475, #625, #415, .T. ) ;
#230 = ORIENTED_EDGE ( 'NONE', *, *, #568, .T. ) ;
#231 = SHAPE_DEFINITION_REPRESENTATION ( #122, #177 ) ;
#232 = CARTESIAN_POINT ( 'NONE',  ( 0.000000000000000000, 0.000000000000000000, -1.974599999999996580 ) ) ;
#233 = DIRECTION ( 'NONE',  ( 1.000000000000000000, 0.000000000000000000, 0.000000000000000000 ) ) ;
#234 = FACE_OUTER_BOUND ( 'NONE', #567, .T. ) ;
#235 = DIRECTION ( 'NONE',  ( 0.8660254037844431485, 0.4999999999999922839, 0.000000000000000000 ) ) ;
#236 = CARTESIAN_POINT ( 'NONE',  ( -1.877893248421454459E-16, -2.886751345948135317, -1.700000000000007061 ) ) ;
#237 = AXIS2_PLACEMENT_3D ( 'NONE', #279, #10, #438 ) ;
#238 = CONICAL_SURFACE ( 'NONE', #473, 2.499999999999998668, 1.047197551196596299 ) ;
#239 = CARTESIAN_POINT ( 'NONE',  ( 0.000000000000000000, 0.000000000000000000, 0.000000000000000000 ) ) ;
#240 = AXIS2_PLACEMENT_3D ( 'NONE', #346, #676, #667 ) ;
#241 = CONICAL_SURFACE ( 'NONE', #288, 2.499999999999998668, 1.047197551196596299 ) ;
#242 = CARTESIAN_POINT ( 'NONE',  ( 2.499999999999994671, -0.4862332846425568289, -0.02096521942604753427 ) ) ;
#243 = EDGE_CURVE ( 'NONE', #593, #593, #162, .T. ) ;
#244 = CARTESIAN_POINT ( 'NONE',  ( 2.091034474270786259, -1.679492029343134352, -0.08696915178141526037 ) ) ;
#245 = CARTESIAN_POINT ( 'NONE',  ( 2.499999999999995115, 0.4914217500548950790, -0.02154517351722803203 ) ) ;
#246 = FACE_OUTER_BOUND ( 'NONE', #435, .T. ) ;
#247 = ORIENTED_EDGE ( 'NONE', *, *, #568, .F. ) ;
#248 = DIRECTION ( 'NONE',  ( 0.000000000000000000, 0.000000000000000000, -1.000000000000000000 ) ) ;
#249 = DIRECTION ( 'NONE',  ( 1.000000000000000000, 0.000000000000000000, 0.000000000000000000 ) ) ;
#250 = ADVANCED_FACE ( 'NONE', ( #134 ), #315, .T. ) ;
#251 = ORIENTED_EDGE ( 'NONE', *, *, #609, .F. ) ;
#252 = AXIS2_PLACEMENT_3D ( 'NONE', #512, #297, #301 ) ;
#253 = CARTESIAN_POINT ( 'NONE',  ( -4.336808689942017736E-16, -2.886751345948135317, -1.700000000000007061 ) ) ;
#254 = CARTESIAN_POINT ( 'NONE',  ( -2.499999999999998668, 1.443375672974046564, -0.2232909936926131267 ) ) ;
#255 = ORIENTED_EDGE ( 'NONE', *, *, #688, .F. ) ;
#256 = DIRECTION ( 'NONE',  ( 1.000000000000000000, 0.000000000000000000, 0.000000000000000000 ) ) ;
#257 = CARTESIAN_POINT ( 'NONE',  ( -2.499999999999999112, 0.4914217500548750950, -0.02154517351722819163 ) ) ;
#258 = EDGE_LOOP ( 'NONE', ( #534 ) ) ;
#259 = PLANE ( 'NONE',  #571 ) ;
#260 = VERTEX_POINT ( 'NONE', #380 ) ;
#261 = CARTESIAN_POINT ( 'NONE',  ( -2.499999999999998668, 1.443375672974046564, -2.000000000000000000 ) ) ;
#262 = AXIS2_PLACEMENT_3D ( 'NONE', #184, #181, #294 ) ;
#263 = EDGE_CURVE ( 'NONE', #625, #218, #6, .T. ) ;
#264 = AXIS2_PLACEMENT_3D ( 'NONE', #537, #336, #105 ) ;
#265 = ORIENTED_EDGE ( 'NONE', *, *, #393, .F. ) ;
#266 = FILL_AREA_STYLE_COLOUR ( '', #206 ) ;
#267 = VECTOR ( 'NONE', #83, 1000.000000000000000 ) ;
#268 = ORIENTED_EDGE ( 'NONE', *, *, #469, .T. ) ;
#269 = DIRECTION ( 'NONE',  ( -0.000000000000000000, -0.000000000000000000, 1.000000000000000000 ) ) ;
#270 = APPLICATION_CONTEXT ( 'automotive_design' ) ;
#271 = EDGE_LOOP ( 'NONE', ( #187, #570, #255 ) ) ;
#272 = ADVANCED_FACE ( 'NONE', ( #228, #641 ), #280, .F. ) ;
#273 = VERTEX_POINT ( 'NONE', #212 ) ;
#274 = FACE_OUTER_BOUND ( 'NONE', #303, .T. ) ;
#275 = AXIS2_PLACEMENT_3D ( 'NONE', #662, #565, #557 ) ;
#276 = EDGE_LOOP ( 'NONE', ( #356 ) ) ;
#277 = B_SPLINE_CURVE_WITH_KNOTS ( 'NONE', 3,
 ( #516, #244, #617, #139 ),
 .UNSPECIFIED., .F., .F.,
 ( 4, 4 ),
 ( 2.380744723773145683E-07, 0.001460698361253742273 ),
 .UNSPECIFIED. ) ;
#278 = ADVANCED_FACE ( 'NONE', ( #11 ), #384, .T. ) ;
#279 = CARTESIAN_POINT ( 'NONE',  ( 0.000000000000000000, 12.88675134594815042, -1.700000000000007061 ) ) ;
#280 = CONICAL_SURFACE ( 'NONE', #668, 1.002499999999999947, 0.9599310885968840301 ) ;
#281 = EDGE_LOOP ( 'NONE', ( #679, #661, #633, #57, #158, #514 ) ) ;
#282 = LINE ( 'NONE', #338, #460 ) ;
#283 = DIRECTION ( 'NONE',  ( 0.000000000000000000, 0.000000000000000000, -1.000000000000000000 ) ) ;
#284 = ADVANCED_FACE ( 'NONE', ( #439, #109 ), #594, .T. ) ;
#285 = CARTESIAN_POINT ( 'NONE',  ( 2.499999999999998668, 0.000000000000000000, 0.000000000000000000 ) ) ;
#286 = CONICAL_SURFACE ( 'NONE', #675, 2.499999999999998668, 1.047197551196596299 ) ;
#287 = DIRECTION ( 'NONE',  ( -1.000000000000000000, 0.000000000000000000, -0.000000000000000000 ) ) ;
#288 = AXIS2_PLACEMENT_3D ( 'NONE', #225, #55, #391 ) ;
#289 = CARTESIAN_POINT ( 'NONE',  ( -1.951563910473907981E-15, 2.886751345948144643, -0.2232909936926131267 ) ) ;
#290 = CARTESIAN_POINT ( 'NONE',  ( 2.499999999999995115, 1.443375672974104962, -0.2232909936926131267 ) ) ;
#291 = CIRCLE ( 'NONE', #681, 2.499999999999998668 ) ;
#292 = CARTESIAN_POINT ( 'NONE',  ( 0.000000000000000000, 0.000000000000000000, 0.000000000000000000 ) ) ;
#293 = PRODUCT_CONTEXT ( 'NONE', #270, 'mechanical' ) ;
#294 = DIRECTION ( 'NONE',  ( 0.000000000000000000, 0.000000000000000000, 1.000000000000000000 ) ) ;
#295 = CARTESIAN_POINT ( 'NONE',  ( -1.877893248421454459E-16, -2.886751345948135317, -2.000000000000000000 ) ) ;
#296 = EDGE_CURVE ( 'NONE', #76, #437, #456, .T. ) ;
#297 = DIRECTION ( 'NONE',  ( -1.000000000000000000, 0.000000000000000000, 0.000000000000000000 ) ) ;
#298 = CYLINDRICAL_SURFACE ( 'NONE', #222, 1.250000000000001110 ) ;
#299 = PRESENTATION_LAYER_ASSIGNMENT (  '', '', ( #677 ) ) ;
#300 = EDGE_CURVE ( 'NONE', #7, #76, #333, .T. ) ;
#301 = DIRECTION ( 'NONE',  ( 0.000000000000000000, 0.000000000000000000, 1.000000000000000000 ) ) ;
#302 = CARTESIAN_POINT ( 'NONE',  ( 1.250000000000024869, 2.165063509461075508, -1.700000000000007061 ) ) ;
#303 = EDGE_LOOP ( 'NONE', ( #161, #375, #107, #629, #198, #53 ) ) ;
#304 = CARTESIAN_POINT ( 'NONE',  ( -1.250000000000022649, 2.165063509461081726, 0.000000000000000000 ) ) ;
#305 = EDGE_CURVE ( 'NONE', #97, #610, #647, .T. ) ;
#306 = VECTOR ( 'NONE', #104, 1000.000000000000000 ) ;
#307 = CARTESIAN_POINT ( 'NONE',  ( -2.499999999999999112, 0.2440516650492487449, -3.811648262644349985E-18 ) ) ;
#308 = VERTEX_POINT ( 'NONE', #5 ) ;
#309 = CARTESIAN_POINT ( 'NONE',  ( 0.000000000000000000, 0.000000000000000000, 0.000000000000000000 ) ) ;
#310 = FACE_OUTER_BOUND ( 'NONE', #657, .T. ) ;
#311 = CLOSED_SHELL ( 'NONE', ( #159, #638, #597, #379, #44, #400, #499, #319, #284, #664, #250, #126, #649, #278, #102, #640, #207, #52, #551, #327, #348, #21, #272, #409, #220 ) ) ;
#312 = VERTEX_POINT ( 'NONE', #584 ) ;
#313 = AXIS2_PLACEMENT_3D ( 'NONE', #494, #15, #598 ) ;
#314 =( LENGTH_UNIT ( ) NAMED_UNIT ( * ) SI_UNIT ( .MILLI., .METRE. ) );
#315 = PLANE ( 'NONE',  #347 ) ;
#316 = EDGE_LOOP ( 'NONE', ( #479, #95, #484 ) ) ;
#317 = CARTESIAN_POINT ( 'NONE',  ( 2.499999999999995115, 1.443375672974039459, -2.000000000000000000 ) ) ;
#318 = EDGE_LOOP ( 'NONE', ( #60, #592, #579 ) ) ;
#319 = ADVANCED_FACE ( 'NONE', ( #170, #274 ), #591, .F. ) ;
#320 =( NAMED_UNIT ( * ) SI_UNIT ( $, .STERADIAN. ) SOLID_ANGLE_UNIT ( ) );
#321 = VERTEX_POINT ( 'NONE', #655 ) ;
#322 = B_SPLINE_CURVE_WITH_KNOTS ( 'NONE', 3,
 ( #392, #75, #119, #552, #337, #547 ),
 .UNSPECIFIED., .F., .F.,
 ( 4, 2, 4 ),
 ( 0.002575171882341781467, 0.003305263084498212805, 0.004035354286654644143 ),
 .UNSPECIFIED. ) ;
#323 = DIRECTION ( 'NONE',  ( -0.000000000000000000, -0.000000000000000000, 1.000000000000000000 ) ) ;
#324 = EDGE_LOOP ( 'NONE', ( #544 ) ) ;
#325 =( LENGTH_UNIT ( ) NAMED_UNIT ( * ) SI_UNIT ( .MILLI., .METRE. ) );
#326 = CARTESIAN_POINT ( 'NONE',  ( 0.000000000000000000, 0.000000000000000000, 0.000000000000000000 ) ) ;
#327 = ADVANCED_FACE ( 'NONE', ( #394 ), #26, .T. ) ;
#328 = ORIENTED_EDGE ( 'NONE', *, *, #189, .T. ) ;
#329 = CARTESIAN_POINT ( 'NONE',  ( -1.951563910473907981E-15, 2.886751345948144643, -0.2232909936926131267 ) ) ;
#330 = VERTEX_POINT ( 'NONE', #121 ) ;
#331 = AXIS2_PLACEMENT_3D ( 'NONE', #164, #227, #646 ) ;
#332 = DIRECTION ( 'NONE',  ( -0.000000000000000000, -0.000000000000000000, 1.000000000000000000 ) ) ;
#333 = CIRCLE ( 'NONE', #264, 2.499999999999998668 ) ;
#334 = ORIENTED_EDGE ( 'NONE', *, *, #518, .T. ) ;
#335 = CARTESIAN_POINT ( 'NONE',  ( -1.024999999999999911, 0.000000000000000000, -1.817053303902814942 ) ) ;
#336 = DIRECTION ( 'NONE',  ( -0.000000000000000000, -0.000000000000000000, 1.000000000000000000 ) ) ;
#337 = CARTESIAN_POINT ( 'NONE',  ( -2.499999999999998668, -0.2439067514465993458, -2.541098841762900632E-18 ) ) ;
#338 = CARTESIAN_POINT ( 'NONE',  ( -2.499999999999998668, 1.443375672974046564, -1.700000000000007061 ) ) ;
#339 = EDGE_CURVE ( 'NONE', #103, #308, #455, .T. ) ;
#340 = CARTESIAN_POINT ( 'NONE',  ( -0.8240719909532480125, -2.410973160139655125, -8.675628019196615069E-15 ) ) ;
#341 = CARTESIAN_POINT ( 'NONE',  ( 1.250000000000027311, 2.165063509461079505, 0.000000000000000000 ) ) ;
#342 = ORIENTED_EDGE ( 'NONE', *, *, #431, .F. ) ;
#343 = CARTESIAN_POINT ( 'NONE',  ( -2.499999999999998668, 0.000000000000000000, 0.000000000000000000 ) ) ;
#344 = AXIS2_PLACEMENT_3D ( 'NONE', #403, #125, #411 ) ;
#345 = PLANE ( 'NONE',  #141 ) ;
#346 = CARTESIAN_POINT ( 'NONE',  ( -2.499999999999998668, -1.443375672974096746, -2.000000000000000000 ) ) ;
#347 = AXIS2_PLACEMENT_3D ( 'NONE', #423, #628, #150 ) ;
#348 = ADVANCED_FACE ( 'NONE', ( #587 ), #241, .T. ) ;
#349 = CARTESIAN_POINT ( 'NONE',  ( 2.499999999999995115, 1.443375672974104962, -0.2232909936926131267 ) ) ;
#350 = CARTESIAN_POINT ( 'NONE',  ( 2.499999999999995115, 1.443375672974039459, -1.700000000000007061 ) ) ;
#351 = DIRECTION ( 'NONE',  ( -1.000000000000000000, 0.000000000000000000, 0.000000000000000000 ) ) ;
#352 = EDGE_CURVE ( 'NONE', #695, #695, #581, .T. ) ;
#353 = LINE ( 'NONE', #407, #37 ) ;
#354 = VECTOR ( 'NONE', #196, 1000.000000000000000 ) ;
#355 = CARTESIAN_POINT ( 'NONE',  ( 0.000000000000000000, 0.000000000000000000, -1.700000000000007061 ) ) ;
#356 = ORIENTED_EDGE ( 'NONE', *, *, #495, .T. ) ;
#357 = EDGE_CURVE ( 'NONE', #458, #689, #216, .T. ) ;
#358 = DIRECTION ( 'NONE',  ( -1.000000000000000000, 0.000000000000000000, 0.000000000000000000 ) ) ;
#359 = LINE ( 'NONE', #682, #360 ) ;
#360 = VECTOR ( 'NONE', #566, 1000.000000000000114 ) ;
#361 = ORIENTED_EDGE ( 'NONE', *, *, #669, .F. ) ;
#362 = B_SPLINE_CURVE_WITH_KNOTS ( 'NONE', 3,
 ( #224, #160, #382, #586 ),
 .UNSPECIFIED., .F., .F.,
 ( 4, 4 ),
 ( 2.380744723773184329E-07, 0.001460698361253722107 ),
 .UNSPECIFIED. ) ;
#363 = DIRECTION ( 'NONE',  ( -0.8660254037844322683, 0.5000000000000111022, 0.000000000000000000 ) ) ;
#364 = PRODUCT_DEFINITION ( 'General', '', #165, #49 ) ;
#365 = B_SPLINE_CURVE_WITH_KNOTS ( 'NONE', 3,
 ( #670, #307, #257, #38, #369, #254 ),
 .UNSPECIFIED., .F., .F.,
 ( 4, 2, 4 ),
 ( 0.004035354286654644143, 0.004765879261741671515, 0.005496404236828698886 ),
 .UNSPECIFIED. ) ;
#366 = LINE ( 'NONE', #28, #267 ) ;
#367 = ORIENTED_EDGE ( 'NONE', *, *, #560, .F. ) ;
#368 = LINE ( 'NONE', #515, #137 ) ;
#369 = CARTESIAN_POINT ( 'NONE',  ( -2.499999999999998668, 1.209989873563150686, -0.1559183166351398031 ) ) ;
#370 = EDGE_LOOP ( 'NONE', ( #540, #642, #502 ) ) ;
#371 = PLANE ( 'NONE',  #147 ) ;
#372 = EDGE_CURVE ( 'NONE', #482, #482, #573, .T. ) ;
#373 = ORIENTED_EDGE ( 'NONE', *, *, #65, .F. ) ;
#374 = AXIS2_PLACEMENT_3D ( 'NONE', #62, #490, #59 ) ;
#375 = ORIENTED_EDGE ( 'NONE', *, *, #477, .T. ) ;
#376 = CARTESIAN_POINT ( 'NONE',  ( 0.000000000000000000, 0.000000000000000000, -1.700000000000007061 ) ) ;
#377 = EDGE_LOOP ( 'NONE', ( #251 ) ) ;
#378 = CARTESIAN_POINT ( 'NONE',  ( -2.499999999999998668, -1.443375672974098967, -0.2232909936926131267 ) ) ;
#379 = ADVANCED_FACE ( 'NONE', ( #128 ), #449, .F. ) ;
#380 = CARTESIAN_POINT ( 'NONE',  ( -1.249999999999992450, -2.165063509461120805, -1.700000000000007061 ) ) ;
#381 = ORIENTED_EDGE ( 'NONE', *, *, #508, .F. ) ;
#382 = CARTESIAN_POINT ( 'NONE',  ( -1.675928009046757428, 1.919153858782542965, 1.119581572920513009E-15 ) ) ;
#383 = VECTOR ( 'NONE', #572, 1000.000000000000000 ) ;
#384 = PLANE ( 'NONE',  #576 ) ;
#385 = ORIENTED_EDGE ( 'NONE', *, *, #180, .T. ) ;
#386 = APPLICATION_PROTOCOL_DEFINITION ( 'draft international standard', 'automotive_design', 1998, #270 ) ;
#387 = DIRECTION ( 'NONE',  ( 0.000000000000000000, 0.000000000000000000, 1.000000000000000000 ) ) ;
#388 = ORIENTED_EDGE ( 'NONE', *, *, #136, .T. ) ;
#389 = DIRECTION ( 'NONE',  ( 0.000000000000000000, -1.000000000000000000, 0.000000000000000000 ) ) ;
#390 = AXIS2_PLACEMENT_3D ( 'NONE', #295, #20, #235 ) ;
#391 = DIRECTION ( 'NONE',  ( -1.000000000000000000, 0.000000000000000000, 0.000000000000000000 ) ) ;
#392 = CARTESIAN_POINT ( 'NONE',  ( -2.499999999999998668, -1.443375672974098967, -0.2232909936926131267 ) ) ;
#393 = EDGE_CURVE ( 'NONE', #610, #260, #542, .T. ) ;
#394 = FACE_OUTER_BOUND ( 'NONE', #318, .T. ) ;
#395 = VECTOR ( 'NONE', #602, 1000.000000000000114 ) ;
#396 = DIRECTION ( 'NONE',  ( 0.000000000000000000, 0.000000000000000000, 1.000000000000000000 ) ) ;
#397 = DIRECTION ( 'NONE',  ( -0.8660254037844332675, -0.5000000000000092149, 0.000000000000000000 ) ) ;
#398 = CARTESIAN_POINT ( 'NONE',  ( -2.499999999999998668, -1.443375672974096746, -1.700000000000007061 ) ) ;
#399 = CARTESIAN_POINT ( 'NONE',  ( 2.499999999999995115, 0.2440516650492586537, 1.976339624181095477E-15 ) ) ;
#400 = ADVANCED_FACE ( 'NONE', ( #29 ), #463, .T. ) ;
#401 = CIRCLE ( 'NONE', #171, 1.250000000000001110 ) ;
#402 = CARTESIAN_POINT ( 'NONE',  ( 0.4096473366186580978, -2.650241345878544319, -0.09917222024861525875 ) ) ;
#403 = CARTESIAN_POINT ( 'NONE',  ( 0.000000000000000000, 0.000000000000000000, -1.700000000000007061 ) ) ;
#404 = AXIS2_PLACEMENT_3D ( 'NONE', #355, #563, #446 ) ;
#405 = CARTESIAN_POINT ( 'NONE',  ( -1.877893248421454459E-16, -2.886751345948135317, -2.000000000000000000 ) ) ;
#406 = VERTEX_POINT ( 'NONE', #81 ) ;
#407 = CARTESIAN_POINT ( 'NONE',  ( -1.670006329316492025E-15, 2.886751345948145087, -1.700000000000007061 ) ) ;
#408 = DIRECTION ( 'NONE',  ( 0.000000000000000000, 0.000000000000000000, -1.000000000000000000 ) ) ;
#409 = ADVANCED_FACE ( 'NONE', ( #500, #188 ), #504, .F. ) ;
#410 = EDGE_LOOP ( 'NONE', ( #268 ) ) ;
#411 = DIRECTION ( 'NONE',  ( 1.000000000000000000, 0.000000000000000000, 0.000000000000000000 ) ) ;
#412 = DIRECTION ( 'NONE',  ( -1.000000000000000000, 0.000000000000000000, -0.000000000000000000 ) ) ;
#413 = VERTEX_POINT ( 'NONE', #343 ) ;
#414 = CARTESIAN_POINT ( 'NONE',  ( 2.499999999999995115, 0.000000000000000000, -1.700000000000007061 ) ) ;
#415 = LINE ( 'NONE', #146, #383 ) ;
#416 = CIRCLE ( 'NONE', #210, 2.499999999999998668 ) ;
#417 = ORIENTED_EDGE ( 'NONE', *, *, #229, .T. ) ;
#418 = DIRECTION ( 'NONE',  ( 1.000000000000000000, 0.000000000000000000, 0.000000000000000000 ) ) ;
#419 = FACE_OUTER_BOUND ( 'NONE', #522, .T. ) ;
#420 = ORIENTED_EDGE ( 'NONE', *, *, #541, .T. ) ;
#421 = DIRECTION ( 'NONE',  ( 1.000000000000000000, 0.000000000000000000, 0.000000000000000000 ) ) ;
#422 = EDGE_CURVE ( 'NONE', #330, #321, #353, .T. ) ;
#423 = CARTESIAN_POINT ( 'NONE',  ( 0.000000000000000000, 12.88675134594815042, -1.700000000000007061 ) ) ;
#424 = AXIS2_PLACEMENT_3D ( 'NONE', #33, #248, #19 ) ;
#425 = ORIENTED_EDGE ( 'NONE', *, *, #477, .F. ) ;
#426 =( NAMED_UNIT ( * ) PLANE_ANGLE_UNIT ( ) SI_UNIT ( $, .RADIAN. ) );
#427 = ORIENTED_EDGE ( 'NONE', *, *, #116, .F. ) ;
#428 = CIRCLE ( 'NONE', #18, 2.499999999999998668 ) ;
#429 = DIRECTION ( 'NONE',  ( 0.000000000000000000, 0.000000000000000000, -1.000000000000000000 ) ) ;
#430 = EDGE_LOOP ( 'NONE', ( #613, #151, #618, #205, #582, #465 ) ) ;
#431 = EDGE_CURVE ( 'NONE', #7, #35, #510, .T. ) ;
#432 = PLANE ( 'NONE',  #331 ) ;
#433 = EDGE_LOOP ( 'NONE', ( #328, #462, #247 ) ) ;
#434 = CARTESIAN_POINT ( 'NONE',  ( -1.037831462877305988, 2.287559071482454964, 1.254032278409991258E-15 ) ) ;
#435 = EDGE_LOOP ( 'NONE', ( #135 ) ) ;
#436 = DIRECTION ( 'NONE',  ( 1.000000000000000000, 0.000000000000000000, 0.000000000000000000 ) ) ;
#437 = VERTEX_POINT ( 'NONE', #304 ) ;
#438 = DIRECTION ( 'NONE',  ( -1.000000000000000000, 0.000000000000000000, -0.000000000000000000 ) ) ;
#439 = FACE_BOUND ( 'NONE', #410, .T. ) ;
#440 = EDGE_CURVE ( 'NONE', #308, #689, #600, .T. ) ;
#441 = DIRECTION ( 'NONE',  ( 0.000000000000000000, 0.000000000000000000, -1.000000000000000000 ) ) ;
#442 = CARTESIAN_POINT ( 'NONE',  ( 1.024999999999999911, 0.000000000000000000, -0.1575466960971776686 ) ) ;
#443 = CARTESIAN_POINT ( 'NONE',  ( -1.734723475976807094E-15, 2.886751345948145087, 0.000000000000000000 ) ) ;
#444 = CIRCLE ( 'NONE', #275, 2.499999999999998668 ) ;
#445 = FACE_OUTER_BOUND ( 'NONE', #468, .T. ) ;
#446 = DIRECTION ( 'NONE',  ( 1.000000000000000000, 0.000000000000000000, 0.000000000000000000 ) ) ;
#447 = FACE_OUTER_BOUND ( 'NONE', #585, .T. ) ;
#448 = EDGE_CURVE ( 'NONE', #559, #406, #193, .T. ) ;
#449 = PLANE ( 'NONE',  #252 ) ;
#450 = CARTESIAN_POINT ( 'NONE',  ( 1.674059471580405134, 1.920232659391725827, -0.02138146928957102705 ) ) ;
#451 = CIRCLE ( 'NONE', #101, 2.499999999999998668 ) ;
#452 = DIRECTION ( 'NONE',  ( 0.000000000000000000, 0.000000000000000000, -1.000000000000000000 ) ) ;
#453 = CARTESIAN_POINT ( 'NONE',  ( 1.250000000000027311, 2.165063509461079505, 0.000000000000000000 ) ) ;
#454 = CARTESIAN_POINT ( 'NONE',  ( -2.499999999999998668, -1.443375672974096746, -1.700000000000007061 ) ) ;
#455 = B_SPLINE_CURVE_WITH_KNOTS ( 'NONE', 3,
 ( #221, #176, #340, #532 ),
 .UNSPECIFIED., .F., .F.,
 ( 4, 4 ),
 ( 2.380744723601886209E-07, 0.001460698361253726877 ),
 .UNSPECIFIED. ) ;
#456 = CIRCLE ( 'NONE', #153, 2.499999999999998668 ) ;
#457 = CARTESIAN_POINT ( 'NONE',  ( 0.000000000000000000, 0.000000000000000000, -2.000000000000000000 ) ) ;
#458 = VERTEX_POINT ( 'NONE', #454 ) ;
#459 = DIRECTION ( 'NONE',  ( -1.000000000000000000, 0.000000000000000000, 0.000000000000000000 ) ) ;
#460 = VECTOR ( 'NONE', #389, 1000.000000000000000 ) ;
#461 = CARTESIAN_POINT ( 'NONE',  ( 0.000000000000000000, 0.000000000000000000, 0.000000000000000000 ) ) ;
#462 = ORIENTED_EDGE ( 'NONE', *, *, #422, .F. ) ;
#463 = PLANE ( 'NONE',  #240 ) ;
#464 = DIRECTION ( 'NONE',  ( -1.000000000000000000, 0.000000000000000000, 0.000000000000000000 ) ) ;
#465 = ORIENTED_EDGE ( 'NONE', *, *, #588, .T. ) ;
#466 = DIRECTION ( 'NONE',  ( 0.000000000000000000, 0.000000000000000000, 1.000000000000000000 ) ) ;
#467 = CARTESIAN_POINT ( 'NONE',  ( 0.000000000000000000, 0.000000000000000000, -1.700000000000007061 ) ) ;
#468 = EDGE_LOOP ( 'NONE', ( #577, #191, #367, #144, #265, #25 ) ) ;
#469 = EDGE_CURVE ( 'NONE', #273, #273, #401, .T. ) ;
#470 = DIRECTION ( 'NONE',  ( -0.8660254037844332675, -0.5000000000000092149, 0.000000000000000000 ) ) ;
#471 = DIRECTION ( 'NONE',  ( 0.000000000000000000, 0.000000000000000000, 1.000000000000000000 ) ) ;
#472 = DIRECTION ( 'NONE',  ( -0.8660254037844332675, -0.5000000000000092149, 0.000000000000000000 ) ) ;
#473 = AXIS2_PLACEMENT_3D ( 'NONE', #292, #441, #653 ) ;
#474 = MECHANICAL_DESIGN_GEOMETRIC_PRESENTATION_REPRESENTATION (  '', ( #677 ), #113 ) ;
#475 = VERTEX_POINT ( 'NONE', #350 ) ;
#476 = FILL_AREA_STYLE ('',( #266 ) ) ;
#477 = EDGE_CURVE ( 'NONE', #413, #308, #444, .T. ) ;
#478 = AXIS2_PLACEMENT_3D ( 'NONE', #496, #17, #233 ) ;
#479 = ORIENTED_EDGE ( 'NONE', *, *, #155, .F. ) ;
#480 = PRESENTATION_STYLE_ASSIGNMENT (( #96 ) ) ;
#481 = ORIENTED_EDGE ( 'NONE', *, *, #305, .T. ) ;
#482 = VERTEX_POINT ( 'NONE', #335 ) ;
#483 = CARTESIAN_POINT ( 'NONE',  ( 0.000000000000000000, 0.000000000000000000, -0.1733013657068960267 ) ) ;
#484 = ORIENTED_EDGE ( 'NONE', *, *, #71, .F. ) ;
#485 = FACE_OUTER_BOUND ( 'NONE', #604, .T. ) ;
#486 = DIRECTION ( 'NONE',  ( 0.000000000000000000, -0.000000000000000000, 1.000000000000000000 ) ) ;
#487 = EDGE_LOOP ( 'NONE', ( #654, #46, #32 ) ) ;
#488 = FACE_OUTER_BOUND ( 'NONE', #683, .T. ) ;
#489 = EDGE_CURVE ( 'NONE', #625, #43, #497, .T. ) ;
#490 = DIRECTION ( 'NONE',  ( 0.000000000000000000, 0.000000000000000000, -1.000000000000000000 ) ) ;
#491 = EDGE_LOOP ( 'NONE', ( #425, #124, #90 ) ) ;
#492 = CARTESIAN_POINT ( 'NONE',  ( 1.250000000000001110, 0.000000000000000000, -1.974599999999996580 ) ) ;
#493 = EDGE_LOOP ( 'NONE', ( #140 ) ) ;
#494 = CARTESIAN_POINT ( 'NONE',  ( 0.000000000000000000, 0.000000000000000000, 0.000000000000000000 ) ) ;
#495 = EDGE_CURVE ( 'NONE', #583, #583, #627, .T. ) ;
#496 = CARTESIAN_POINT ( 'NONE',  ( 0.000000000000000000, 0.000000000000000000, 0.000000000000000000 ) ) ;
#497 = LINE ( 'NONE', #86, #663 ) ;
#498 = DIRECTION ( 'NONE',  ( 0.000000000000000000, 0.000000000000000000, -1.000000000000000000 ) ) ;
#499 = ADVANCED_FACE ( 'NONE', ( #234 ), #658, .T. ) ;
#500 = FACE_OUTER_BOUND ( 'NONE', #324, .T. ) ;
#501 = CARTESIAN_POINT ( 'NONE',  ( 2.296027223764832481, 1.561139410240770076, -0.1553000682801290722 ) ) ;
#502 = ORIENTED_EDGE ( 'NONE', *, *, #199, .F. ) ;
#503 = DIRECTION ( 'NONE',  ( 0.000000000000000000, -1.000000000000000000, 0.000000000000000000 ) ) ;
#504 = CONICAL_SURFACE ( 'NONE', #517, 1.250000000000001110, 0.9599310885968931339 ) ;
#505 = CARTESIAN_POINT ( 'NONE',  ( 0.000000000000000000, 0.000000000000000000, -1.700000000000007061 ) ) ;
#506 = APPLICATION_PROTOCOL_DEFINITION ( 'draft international standard', 'automotive_design', 1998, #616 ) ;
#507 = CARTESIAN_POINT ( 'NONE',  ( 2.499999999999998668, 0.000000000000000000, 0.000000000000000000 ) ) ;
#508 = EDGE_CURVE ( 'NONE', #639, #7, #548, .T. ) ;
#509 = CARTESIAN_POINT ( 'NONE',  ( 0.000000000000000000, 0.000000000000000000, -25.03750572909317285 ) ) ;
#510 = B_SPLINE_CURVE_WITH_KNOTS ( 'NONE', 3,
 ( #507, #399, #245, #70, #615, #290 ),
 .UNSPECIFIED., .F., .F.,
 ( 4, 2, 4 ),
 ( 0.004035354286654651082, 0.004765879261741707076, 0.005496404236828762203 ),
 .UNSPECIFIED. ) ;
#511 = ORIENTED_EDGE ( 'NONE', *, *, #431, .T. ) ;
#512 = CARTESIAN_POINT ( 'NONE',  ( 2.499999999999995115, 1.443375672974039459, -2.000000000000000000 ) ) ;
#513 = DIRECTION ( 'NONE',  ( -0.000000000000000000, -0.000000000000000000, 1.000000000000000000 ) ) ;
#514 = ORIENTED_EDGE ( 'NONE', *, *, #116, .T. ) ;
#515 = CARTESIAN_POINT ( 'NONE',  ( -1.670006329316492025E-15, 2.886751345948145087, -1.700000000000007061 ) ) ;
#516 = CARTESIAN_POINT ( 'NONE',  ( 2.499999999999996891, -1.443375672974102075, -0.2232909936926131267 ) ) ;
#517 = AXIS2_PLACEMENT_3D ( 'NONE', #555, #452, #459 ) ;
#518 = EDGE_CURVE ( 'NONE', #330, #202, #578, .T. ) ;
#519 = ORIENTED_EDGE ( 'NONE', *, *, #145, .T. ) ;
#520 = CARTESIAN_POINT ( 'NONE',  ( 2.499999999999995115, -0.2439067514465997344, 2.022714678043269210E-15 ) ) ;
#521 = DIRECTION ( 'NONE',  ( -1.000000000000000000, 0.000000000000000000, 0.000000000000000000 ) ) ;
#522 = EDGE_LOOP ( 'NONE', ( #530 ) ) ;
#523 = DIRECTION ( 'NONE',  ( -0.5000000000000093259, 0.8660254037844333785, 0.000000000000000000 ) ) ;
#524 = ORIENTED_EDGE ( 'NONE', *, *, #673, .T. ) ;
#525 = DIRECTION ( 'NONE',  ( -0.000000000000000000, -0.000000000000000000, 1.000000000000000000 ) ) ;
#526 = EDGE_CURVE ( 'NONE', #321, #97, #368, .T. ) ;
#527 = AXIS2_PLACEMENT_3D ( 'NONE', #545, #54, #692 ) ;
#528 = ORIENTED_EDGE ( 'NONE', *, *, #305, .F. ) ;
#529 = CARTESIAN_POINT ( 'NONE',  ( -1.670006329316492025E-15, 2.886751345948145087, -2.000000000000000000 ) ) ;
#530 = ORIENTED_EDGE ( 'NONE', *, *, #469, .F. ) ;
#531 = CARTESIAN_POINT ( 'NONE',  ( -0.8259405284196167374, 2.409894359530447172, -0.02138146928957635959 ) ) ;
#532 = CARTESIAN_POINT ( 'NONE',  ( -1.249999999999983125, -2.165063509461104818, 0.000000000000000000 ) ) ;
#533 =( GEOMETRIC_REPRESENTATION_CONTEXT ( 3 ) GLOBAL_UNCERTAINTY_ASSIGNED_CONTEXT ( ( #82 ) ) GLOBAL_UNIT_ASSIGNED_CONTEXT ( ( #325, #111, #68 ) ) REPRESENTATION_CONTEXT ( 'NONE', 'WORKASPACE' ) );
#534 = ORIENTED_EDGE ( 'NONE', *, *, #352, .T. ) ;
#535 = MANIFOLD_SOLID_BREP ( 'EndChamfer', #311 ) ;
#536 = CARTESIAN_POINT ( 'NONE',  ( -2.499999999999998668, 0.000000000000000000, -2.000000000000000000 ) ) ;
#537 = CARTESIAN_POINT ( 'NONE',  ( 0.000000000000000000, 0.000000000000000000, 0.000000000000000000 ) ) ;
#538 = B_SPLINE_CURVE_WITH_KNOTS ( 'NONE', 3,
 ( #64, #434, #531, #61, #117, #329 ),
 .UNSPECIFIED., .F., .F.,
 ( 4, 2, 4 ),
 ( 0.001460698361253722107, 0.002188200934436749286, 0.002915703507619776466 ),
 .UNSPECIFIED. ) ;
#539 = VECTOR ( 'NONE', #92, 1000.000000000000227 ) ;
#540 = ORIENTED_EDGE ( 'NONE', *, *, #694, .F. ) ;
#541 = EDGE_CURVE ( 'NONE', #321, #610, #686, .T. ) ;
#542 = CIRCLE ( 'NONE', #344, 2.499999999999998668 ) ;
#543 = DIRECTION ( 'NONE',  ( -1.000000000000000000, 0.000000000000000000, 0.000000000000000000 ) ) ;
#544 = ORIENTED_EDGE ( 'NONE', *, *, #352, .F. ) ;
#545 = CARTESIAN_POINT ( 'NONE',  ( 0.000000000000000000, 12.88675134594815042, -1.700000000000007061 ) ) ;
#546 = DIRECTION ( 'NONE',  ( 1.000000000000000000, 0.000000000000000000, 0.000000000000000000 ) ) ;
#547 = CARTESIAN_POINT ( 'NONE',  ( -2.499999999999998668, 0.000000000000000000, 0.000000000000000000 ) ) ;
#548 = B_SPLINE_CURVE_WITH_KNOTS ( 'NONE', 3,
 ( #22, #77, #27, #242, #520, #36 ),
 .UNSPECIFIED., .F., .F.,
 ( 4, 2, 4 ),
 ( 0.002575171882341784069, 0.003305263084498217575, 0.004035354286654651082 ),
 .UNSPECIFIED. ) ;
#549 = CARTESIAN_POINT ( 'NONE',  ( 0.000000000000000000, 0.000000000000000000, 0.000000000000000000 ) ) ;
#550 = DIRECTION ( 'NONE',  ( -0.000000000000000000, -0.000000000000000000, 1.000000000000000000 ) ) ;
#551 = ADVANCED_FACE ( 'NONE', ( #623 ), #215, .T. ) ;
#552 = CARTESIAN_POINT ( 'NONE',  ( -2.499999999999998224, -0.4862332846425555521, -0.02096521942604952921 ) ) ;
#553 = EDGE_LOOP ( 'NONE', ( #88, #511, #373 ) ) ;
#554 = PLANE ( 'NONE',  #390 ) ;
#555 = CARTESIAN_POINT ( 'NONE',  ( 0.000000000000000000, 0.000000000000000000, -1.974599999999996580 ) ) ;
#556 = CARTESIAN_POINT ( 'NONE',  ( 0.2039727762351508933, -2.768987608681417800, -0.1553000682801470578 ) ) ;
#557 = DIRECTION ( 'NONE',  ( -1.000000000000000000, 0.000000000000000000, 0.000000000000000000 ) ) ;
#558 = CARTESIAN_POINT ( 'NONE',  ( 1.561251128379126385E-14, -2.886751345948145531, -0.2232909936926131267 ) ) ;
#559 = VERTEX_POINT ( 'NONE', #253 ) ;
#560 = EDGE_CURVE ( 'NONE', #406, #625, #614, .T. ) ;
#561 = VECTOR ( 'NONE', #363, 1000.000000000000114 ) ;
#562 = CARTESIAN_POINT ( 'NONE',  ( -2.499999999999998668, -1.443375672974098967, -0.2232909936926131267 ) ) ;
#563 = DIRECTION ( 'NONE',  ( -0.000000000000000000, -0.000000000000000000, 1.000000000000000000 ) ) ;
#564 = EDGE_LOOP ( 'NONE', ( #334, #674, #110, #14, #519, #230 ) ) ;
#565 = DIRECTION ( 'NONE',  ( 0.000000000000000000, -0.000000000000000000, 1.000000000000000000 ) ) ;
#566 = DIRECTION ( 'NONE',  ( 0.8660254037844423713, -0.4999999999999935607, 0.000000000000000000 ) ) ;
#567 = EDGE_LOOP ( 'NONE', ( #693, #115, #385, #607, #481, #163 ) ) ;
#568 = EDGE_CURVE ( 'NONE', #218, #330, #152, .T. ) ;
#569 = LINE ( 'NONE', #31, #85 ) ;
#570 = ORIENTED_EDGE ( 'NONE', *, *, #12, .F. ) ;
#571 = AXIS2_PLACEMENT_3D ( 'NONE', #317, #40, #98 ) ;
#572 = DIRECTION ( 'NONE',  ( 0.000000000000000000, -1.000000000000000000, 0.000000000000000000 ) ) ;
#573 = CIRCLE ( 'NONE', #217, 1.024999999999999911 ) ;
#574 = ORIENTED_EDGE ( 'NONE', *, *, #448, .F. ) ;
#575 = CARTESIAN_POINT ( 'NONE',  ( -1.670006329316492025E-15, 2.886751345948145087, -2.000000000000000000 ) ) ;
#576 = AXIS2_PLACEMENT_3D ( 'NONE', #644, #283, #287 ) ;
#577 = ORIENTED_EDGE ( 'NONE', *, *, #189, .F. ) ;
#578 = LINE ( 'NONE', #529, #114 ) ;
#579 = ORIENTED_EDGE ( 'NONE', *, *, #175, .F. ) ;
#580 = CARTESIAN_POINT ( 'NONE',  ( -1.877893248421454459E-16, -2.886751345948135317, -1.700000000000007061 ) ) ;
#581 = CIRCLE ( 'NONE', #3, 1.250000000000001110 ) ;
#582 = ORIENTED_EDGE ( 'NONE', *, *, #448, .T. ) ;
#583 = VERTEX_POINT ( 'NONE', #442 ) ;
#584 = CARTESIAN_POINT ( 'NONE',  ( 1.249999999999979794, -2.165063509461106595, 0.000000000000000000 ) ) ;
#585 = EDGE_LOOP ( 'NONE', ( #666 ) ) ;
#586 = CARTESIAN_POINT ( 'NONE',  ( -1.250000000000022649, 2.165063509461081726, 0.000000000000000000 ) ) ;
#587 = FACE_OUTER_BOUND ( 'NONE', #316, .T. ) ;
#588 = EDGE_CURVE ( 'NONE', #406, #43, #45, .T. ) ;
#589 = EDGE_LOOP ( 'NONE', ( #420, #528, #195 ) ) ;
#590 = FACE_OUTER_BOUND ( 'NONE', #370, .T. ) ;
#591 = PLANE ( 'NONE',  #41 ) ;
#592 = ORIENTED_EDGE ( 'NONE', *, *, #632, .F. ) ;
#593 = VERTEX_POINT ( 'NONE', #536 ) ;
#594 = PLANE ( 'NONE',  #374 ) ;
#595 = CARTESIAN_POINT ( 'NONE',  ( 2.499999999999995559, -1.443375672974103407, -1.700000000000007061 ) ) ;
#596 = B_SPLINE_CURVE_WITH_KNOTS ( 'NONE', 3,
 ( #289, #172, #23, #453 ),
 .UNSPECIFIED., .F., .F.,
 ( 4, 4 ),
 ( 2.380744723794081955E-07, 0.001460698361253784557 ),
 .UNSPECIFIED. ) ;
#597 = ADVANCED_FACE ( 'NONE', ( #51 ), #259, .T. ) ;
#598 = DIRECTION ( 'NONE',  ( -1.000000000000000000, 0.000000000000000000, 0.000000000000000000 ) ) ;
#599 = CARTESIAN_POINT ( 'NONE',  ( 1.462168537122729983, 2.042567947439708931, 3.931715182917647021E-15 ) ) ;
#600 = B_SPLINE_CURVE_WITH_KNOTS ( 'NONE', 3,
 ( #601, #611, #608, #605, #131, #562 ),
 .UNSPECIFIED., .F., .F.,
 ( 4, 2, 4 ),
 ( 0.001460698361253726877, 0.002188200934436736276, 0.002915703507619745675 ),
 .UNSPECIFIED. ) ;
#601 = CARTESIAN_POINT ( 'NONE',  ( -1.249999999999983125, -2.165063509461104818, 0.000000000000000000 ) ) ;
#602 = DIRECTION ( 'NONE',  ( 0.8660254037844423713, -0.4999999999999935607, 0.000000000000000000 ) ) ;
#603 = AXIS2_PLACEMENT_3D ( 'NONE', #309, #429, #634 ) ;
#604 = EDGE_LOOP ( 'NONE', ( #417, #213, #130 ) ) ;
#605 = CARTESIAN_POINT ( 'NONE',  ( -2.090352663381338516, -1.679885673043689520, -0.09917222024861790941 ) ) ;
#606 = VECTOR ( 'NONE', #74, 1000.000000000000227 ) ;
#607 = ORIENTED_EDGE ( 'NONE', *, *, #619, .F. ) ;
#608 = CARTESIAN_POINT ( 'NONE',  ( -1.674059471580394476, -1.920232659391770014, -0.02138146928958528994 ) ) ;
#609 = EDGE_CURVE ( 'NONE', #108, #108, #91, .T. ) ;
#610 = VERTEX_POINT ( 'NONE', #47 ) ;
#611 = CARTESIAN_POINT ( 'NONE',  ( -1.462168537122707335, -2.042567947439754228, -8.778225948869938408E-15 ) ) ;
#612 = CARTESIAN_POINT ( 'NONE',  ( 0.000000000000000000, 0.000000000000000000, -2.000000000000000000 ) ) ;
#613 = ORIENTED_EDGE ( 'NONE', *, *, #669, .T. ) ;
#614 = CIRCLE ( 'NONE', #648, 2.499999999999998668 ) ;
#615 = CARTESIAN_POINT ( 'NONE',  ( 2.499999999999995115, 1.209989873563196427, -0.1559183166351493788 ) ) ;
#616 = APPLICATION_CONTEXT ( 'automotive_design' ) ;
#617 = CARTESIAN_POINT ( 'NONE',  ( 1.675928009046733225, -1.919153858782590483, -9.723097566506153400E-15 ) ) ;
#618 = ORIENTED_EDGE ( 'NONE', *, *, #71, .T. ) ;
#619 = EDGE_CURVE ( 'NONE', #97, #211, #203, .T. ) ;
#620 = CARTESIAN_POINT ( 'NONE',  ( 0.000000000000000000, 0.000000000000000000, 0.000000000000000000 ) ) ;
#621 = DIRECTION ( 'NONE',  ( 1.000000000000000000, 0.000000000000000000, 0.000000000000000000 ) ) ;
#622 = ORIENTED_EDGE ( 'NONE', *, *, #489, .F. ) ;
#623 = FACE_OUTER_BOUND ( 'NONE', #553, .T. ) ;
#624 = FACE_OUTER_BOUND ( 'NONE', #258, .T. ) ;
#625 = VERTEX_POINT ( 'NONE', #414 ) ;
#626 = DIRECTION ( 'NONE',  ( 0.000000000000000000, -0.000000000000000000, 1.000000000000000000 ) ) ;
#627 = CIRCLE ( 'NONE', #424, 1.024999999999999911 ) ;
#628 = DIRECTION ( 'NONE',  ( 0.000000000000000000, 0.000000000000000000, -1.000000000000000000 ) ) ;
#629 = ORIENTED_EDGE ( 'NONE', *, *, #632, .T. ) ;
#630 = CARTESIAN_POINT ( 'NONE',  ( 0.000000000000000000, 0.000000000000000000, -1.700000000000007061 ) ) ;
#631 = CONICAL_SURFACE ( 'NONE', #30, 2.499999999999998668, 1.047197551196596299 ) ;
#632 = EDGE_CURVE ( 'NONE', #312, #7, #451, .T. ) ;
#633 = ORIENTED_EDGE ( 'NONE', *, *, #440, .T. ) ;
#634 = DIRECTION ( 'NONE',  ( -1.000000000000000000, 0.000000000000000000, 0.000000000000000000 ) ) ;
#635 = AXIS2_PLACEMENT_3D ( 'NONE', #549, #219, #214 ) ;
#636 = UNCERTAINTY_MEASURE_WITH_UNIT (LENGTH_MEASURE( 1.000000000000000082E-05 ), #314, 'distance_accuracy_value', 'NONE');
#637 = EDGE_LOOP ( 'NONE', ( #50, #84, #524, #645, #154, #223 ) ) ;
#638 = ADVANCED_FACE ( 'NONE', ( #149 ), #371, .T. ) ;
#639 = VERTEX_POINT ( 'NONE', #120 ) ;
#640 = ADVANCED_FACE ( 'NONE', ( #590 ), #643, .T. ) ;
#641 = FACE_BOUND ( 'NONE', #276, .T. ) ;
#642 = ORIENTED_EDGE ( 'NONE', *, *, #393, .T. ) ;
#643 = PLANE ( 'NONE',  #527 ) ;
#644 = CARTESIAN_POINT ( 'NONE',  ( 0.000000000000000000, 12.88675134594815042, -1.700000000000007061 ) ) ;
#645 = ORIENTED_EDGE ( 'NONE', *, *, #518, .F. ) ;
#646 = DIRECTION ( 'NONE',  ( -1.000000000000000000, 0.000000000000000000, -0.000000000000000000 ) ) ;
#647 = LINE ( 'NONE', #173, #680 ) ;
#648 = AXIS2_PLACEMENT_3D ( 'NONE', #376, #209, #421 ) ;
#649 = ADVANCED_FACE ( 'NONE', ( #488 ), #8, .T. ) ;
#650 = CARTESIAN_POINT ( 'NONE',  ( 1.250000000000027311, 2.165063509461079505, 0.000000000000000000 ) ) ;
#651 = CARTESIAN_POINT ( 'NONE',  ( 1.250000000000001110, 0.000000000000000000, 6.938893903907228378E-15 ) ) ;
#652 = DIRECTION ( 'NONE',  ( 0.000000000000000000, 0.000000000000000000, -1.000000000000000000 ) ) ;
#653 = DIRECTION ( 'NONE',  ( -1.000000000000000000, 0.000000000000000000, 0.000000000000000000 ) ) ;
#654 = ORIENTED_EDGE ( 'NONE', *, *, #489, .T. ) ;
#655 = CARTESIAN_POINT ( 'NONE',  ( -1.250000000000023315, 2.165063509461083058, -1.700000000000007061 ) ) ;
#656 = CARTESIAN_POINT ( 'NONE',  ( 1.561251128379126385E-14, -2.886751345948145531, -0.2232909936926131267 ) ) ;
#657 = EDGE_LOOP ( 'NONE', ( #671 ) ) ;
#658 = PLANE ( 'NONE',  #262 ) ;
#659 = CARTESIAN_POINT ( 'NONE',  ( 2.090352663381330522, 1.679885673043645777, -0.09917222024859878582 ) ) ;
#660 = AXIS2_PLACEMENT_3D ( 'NONE', #100, #323, #256 ) ;
#661 = ORIENTED_EDGE ( 'NONE', *, *, #339, .T. ) ;
#662 = CARTESIAN_POINT ( 'NONE',  ( 0.000000000000000000, 0.000000000000000000, 0.000000000000000000 ) ) ;
#663 = VECTOR ( 'NONE', #503, 1000.000000000000000 ) ;
#664 = ADVANCED_FACE ( 'NONE', ( #485 ), #432, .T. ) ;
#665 = LINE ( 'NONE', #405, #48 ) ;
#666 = ORIENTED_EDGE ( 'NONE', *, *, #243, .T. ) ;
#667 = DIRECTION ( 'NONE',  ( 0.8660254037844423713, -0.4999999999999935607, 0.000000000000000000 ) ) ;
#668 = AXIS2_PLACEMENT_3D ( 'NONE', #483, #550, #546 ) ;
#669 = EDGE_CURVE ( 'NONE', #43, #639, #169, .T. ) ;
#670 = CARTESIAN_POINT ( 'NONE',  ( -2.499999999999998668, 0.000000000000000000, 0.000000000000000000 ) ) ;
#671 = ORIENTED_EDGE ( 'NONE', *, *, #372, .F. ) ;
#672 = DIRECTION ( 'NONE',  ( -0.000000000000000000, -0.000000000000000000, 1.000000000000000000 ) ) ;
#673 = EDGE_CURVE ( 'NONE', #437, #202, #538, .T. ) ;
#674 = ORIENTED_EDGE ( 'NONE', *, *, #80, .T. ) ;
#675 = AXIS2_PLACEMENT_3D ( 'NONE', #132, #498, #351 ) ;
#676 = DIRECTION ( 'NONE',  ( -0.4999999999999935607, -0.8660254037844423713, 0.000000000000000000 ) ) ;
#677 = STYLED_ITEM ( 'NONE', ( #480 ), #535 ) ;
#678 = FACE_OUTER_BOUND ( 'NONE', #271, .T. ) ;
#679 = ORIENTED_EDGE ( 'NONE', *, *, #56, .T. ) ;
#680 = VECTOR ( 'NONE', #66, 1000.000000000000000 ) ;
#681 = AXIS2_PLACEMENT_3D ( 'NONE', #467, #78, #621 ) ;
#682 = CARTESIAN_POINT ( 'NONE',  ( -2.499999999999998668, -1.443375672974096746, -1.700000000000007061 ) ) ;
#683 = EDGE_LOOP ( 'NONE', ( #427, #388, #574 ) ) ;
#684 = CARTESIAN_POINT ( 'NONE',  ( 0.000000000000000000, 0.000000000000000000, 0.000000000000000000 ) ) ;
#685 = ORIENTED_EDGE ( 'NONE', *, *, #673, .F. ) ;
#686 = CIRCLE ( 'NONE', #24, 2.499999999999998668 ) ;
#687 = AXIS2_PLACEMENT_3D ( 'NONE', #239, #72, #13 ) ;
#688 = EDGE_CURVE ( 'NONE', #211, #437, #362, .T. ) ;
#689 = VERTEX_POINT ( 'NONE', #378 ) ;
#690 = SURFACE_STYLE_FILL_AREA ( #476 ) ;
#691 = ORIENTED_EDGE ( 'NONE', *, *, #167, .T. ) ;
#692 = DIRECTION ( 'NONE',  ( -1.000000000000000000, 0.000000000000000000, -0.000000000000000000 ) ) ;
#693 = ORIENTED_EDGE ( 'NONE', *, *, #357, .T. ) ;
#694 = EDGE_CURVE ( 'NONE', #610, #458, #282, .T. ) ;
#695 = VERTEX_POINT ( 'NONE', #492 ) ;
ENDSEC;
END-ISO-10303-21;
