ISO-10303-21;
HEADER;
FILE_DESCRIPTION (( 'STEP AP214' ),
    '1' );
FILE_NAME ('ISO 4762 M3 x 10 - 10N.STEP',
    '2025-07-29T15:59:08',
    ( '' ),
    ( '' ),
    'SwSTEP 2.0',
    'SolidWorks 2025',
    '' );
FILE_SCHEMA (( 'AUTOMOTIVE_DESIGN' ));
ENDSEC;

DATA;
#1 = CARTESIAN_POINT ( 'NONE',  ( 0.000000000000000000, 0.000000000000000000, 0.000000000000000000 ) ) ;
#2 = AXIS2_PLACEMENT_3D ( 'NONE', #538, #394, #26 ) ;
#3 = DIRECTION ( 'NONE',  ( 0.000000000000000000, -0.4999999999999992228, 0.8660254037844390407 ) ) ;
#4 = LINE ( 'NONE', #130, #235 ) ;
#5 = AXIS2_PLACEMENT_3D ( 'NONE', #503, #127, #132 ) ;
#6 = CYLINDRICAL_SURFACE ( 'NONE', #67, 1.500000000000000444 ) ;
#7 = LINE ( 'NONE', #105, #535 ) ;
#8 = CARTESIAN_POINT ( 'NONE',  ( 1.300000000000000044, 0.000000000000000000, 0.000000000000000000 ) ) ;
#9 = EDGE_CURVE ( 'NONE', #30, #348, #211, .T. ) ;
#10 = DIRECTION ( 'NONE',  ( 0.000000000000000000, 1.000000000000000000, -1.320393690296331330E-15 ) ) ;
#11 = CARTESIAN_POINT ( 'NONE',  ( -31.74999999999995737, 0.000000000000000000, 0.000000000000000000 ) ) ;
#12 = CARTESIAN_POINT ( 'NONE',  ( 1.300000000000000044, 1.690103923579304379E-15, 1.280000000000000249 ) ) ;
#13 = FACE_BOUND ( 'NONE', #228, .T. ) ;
#14 = LINE ( 'NONE', #220, #287 ) ;
#15 = ORIENTED_EDGE ( 'NONE', *, *, #494, .T. ) ;
#16 = ADVANCED_FACE ( 'NONE', ( #260 ), #500, .F. ) ;
#17 = DIRECTION ( 'NONE',  ( 1.000000000000000000, 0.000000000000000000, 0.000000000000000000 ) ) ;
#18 = VECTOR ( 'NONE', #229, 1000.000000000000114 ) ;
#19 = ORIENTED_EDGE ( 'NONE', *, *, #207, .F. ) ;
#20 = AXIS2_PLACEMENT_3D ( 'NONE', #365, #247, #536 ) ;
#21 = LINE ( 'NONE', #61, #206 ) ;
#22 = DIRECTION ( 'NONE',  ( -1.000000000000000000, -0.000000000000000000, -0.000000000000000000 ) ) ;
#23 = VECTOR ( 'NONE', #299, 1000.000000000000114 ) ;
#24 = DIRECTION ( 'NONE',  ( 1.000000000000000000, 0.000000000000000000, 0.000000000000000000 ) ) ;
#25 = EDGE_LOOP ( 'NONE', ( #284 ) ) ;
#26 = DIRECTION ( 'NONE',  ( 0.000000000000000000, 0.000000000000000000, 1.000000000000000000 ) ) ;
#27 = ORIENTED_EDGE ( 'NONE', *, *, #207, .T. ) ;
#28 = CIRCLE ( 'NONE', #246, 1.280000000000000027 ) ;
#29 = DIRECTION ( 'NONE',  ( 0.000000000000000000, 0.000000000000000000, 1.000000000000000000 ) ) ;
#30 = VERTEX_POINT ( 'NONE', #374 ) ;
#31 = AXIS2_PLACEMENT_3D ( 'NONE', #230, #17, #201 ) ;
#32 = DIRECTION ( 'NONE',  ( 0.000000000000000000, 0.000000000000000000, -1.000000000000000000 ) ) ;
#33 = ORIENTED_EDGE ( 'NONE', *, *, #250, .F. ) ;
#34 = EDGE_CURVE ( 'NONE', #231, #108, #541, .T. ) ;
#35 = VERTEX_POINT ( 'NONE', #333 ) ;
#36 = AXIS2_PLACEMENT_3D ( 'NONE', #483, #107, #32 ) ;
#37 = PLANE ( 'NONE',  #371 ) ;
#38 = EDGE_CURVE ( 'NONE', #239, #221, #289, .T. ) ;
#39 = CARTESIAN_POINT ( 'NONE',  ( -31.74999999999995737, 0.000000000000000000, 0.000000000000000000 ) ) ;
#40 = FACE_OUTER_BOUND ( 'NONE', #136, .T. ) ;
#41 = CARTESIAN_POINT ( 'NONE',  ( 1.300000000000000044, -0.7390083445627197989, 1.280000000000001137 ) ) ;
#42 = FACE_OUTER_BOUND ( 'NONE', #96, .T. ) ;
#43 = VERTEX_POINT ( 'NONE', #82 ) ;
#44 = SURFACE_SIDE_STYLE ('',( #47 ) ) ;
#45 = EDGE_LOOP ( 'NONE', ( #525, #389, #399, #183, #286 ) ) ;
#46 = ADVANCED_FACE ( 'NONE', ( #255 ), #256, .F. ) ;
#47 = SURFACE_STYLE_FILL_AREA ( #426 ) ;
#48 = FACE_BOUND ( 'NONE', #166, .T. ) ;
#49 = ORIENTED_EDGE ( 'NONE', *, *, #98, .T. ) ;
#50 = APPLICATION_CONTEXT ( 'automotive_design' ) ;
#51 = CARTESIAN_POINT ( 'NONE',  ( 0.000000000000000000, 1.478016689125442484, -1.734723475976807094E-15 ) ) ;
#52 = ORIENTED_EDGE ( 'NONE', *, *, #519, .F. ) ;
#53 = VERTEX_POINT ( 'NONE', #478 ) ;
#54 = ADVANCED_FACE ( 'NONE', ( #379, #414 ), #6, .T. ) ;
#55 = DIRECTION ( 'NONE',  ( 1.000000000000000000, 0.000000000000000000, 0.000000000000000000 ) ) ;
#56 = TOROIDAL_SURFACE ( 'NONE', #123, 2.600000000000000089, 0.1499999999999999944 ) ;
#57 = EDGE_LOOP ( 'NONE', ( #27, #245, #458, #322, #369, #408 ) ) ;
#58 = DIRECTION ( 'NONE',  ( 0.000000000000000000, 0.000000000000000000, -1.000000000000000000 ) ) ;
#59 = CARTESIAN_POINT ( 'NONE',  ( 0.000000000000000000, 0.7390083445627224634, 1.279999999999999138 ) ) ;
#60 = DIRECTION ( 'NONE',  ( -1.000000000000000000, -0.000000000000000000, -0.000000000000000000 ) ) ;
#61 = CARTESIAN_POINT ( 'NONE',  ( 0.000000000000000000, -1.478016689125442484, 1.734723475976807094E-15 ) ) ;
#62 = EDGE_LOOP ( 'NONE', ( #513 ) ) ;
#63 = ADVANCED_FACE ( 'NONE', ( #495 ), #413, .T. ) ;
#64 = CARTESIAN_POINT ( 'NONE',  ( 1.300000000000000044, 1.478016689125442484, -1.734723475976807094E-15 ) ) ;
#65 = CARTESIAN_POINT ( 'NONE',  ( 1.300000000000000044, 0.7390083445627224634, 1.279999999999999138 ) ) ;
#66 = EDGE_LOOP ( 'NONE', ( #19, #474, #532, #376, #148 ) ) ;
#67 = AXIS2_PLACEMENT_3D ( 'NONE', #39, #176, #454 ) ;
#68 = LINE ( 'NONE', #196, #119 ) ;
#69 = DIRECTION ( 'NONE',  ( -1.000000000000000000, -0.000000000000000000, -0.000000000000000000 ) ) ;
#70 = VERTEX_POINT ( 'NONE', #337 ) ;
#71 = LINE ( 'NONE', #203, #200 ) ;
#72 = ORIENTED_EDGE ( 'NONE', *, *, #198, .T. ) ;
#73 = AXIS2_PLACEMENT_3D ( 'NONE', #418, #298, #339 ) ;
#74 = DIRECTION ( 'NONE',  ( 0.000000000000000000, 0.4999999999999990008, -0.8660254037844391517 ) ) ;
#75 = ADVANCED_FACE ( 'NONE', ( #417 ), #497, .F. ) ;
#76 = ORIENTED_EDGE ( 'NONE', *, *, #117, .T. ) ;
#77 = CIRCLE ( 'NONE', #268, 1.280000000000000027 ) ;
#78 = ORIENTED_EDGE ( 'NONE', *, *, #98, .F. ) ;
#79 = DIRECTION ( 'NONE',  ( 0.000000000000000000, 0.4999999999999992228, -0.8660254037844390407 ) ) ;
#80 = MECHANICAL_DESIGN_GEOMETRIC_PRESENTATION_REPRESENTATION (  '', ( #257 ), #481 ) ;
#81 = EDGE_CURVE ( 'NONE', #43, #221, #297, .T. ) ;
#82 = CARTESIAN_POINT ( 'NONE',  ( 1.300000000000000044, 0.7390083445627193548, -1.280000000000000693 ) ) ;
#83 = DIRECTION ( 'NONE',  ( 0.000000000000000000, 0.000000000000000000, -1.000000000000000000 ) ) ;
#84 = ORIENTED_EDGE ( 'NONE', *, *, #232, .F. ) ;
#85 = CARTESIAN_POINT ( 'NONE',  ( 1.300000000000000044, 1.478016689125442484, -1.734723475976807094E-15 ) ) ;
#86 = CARTESIAN_POINT ( 'NONE',  ( 0.000000000000000000, 1.478016689125442484, -1.734723475976807094E-15 ) ) ;
#87 = DIRECTION ( 'NONE',  ( 0.000000000000000000, -0.5000000000000013323, -0.8660254037844378194 ) ) ;
#88 = AXIS2_PLACEMENT_3D ( 'NONE', #435, #60, #58 ) ;
#89 = AXIS2_PLACEMENT_3D ( 'NONE', #346, #253, #171 ) ;
#90 = CARTESIAN_POINT ( 'NONE',  ( 1.300000000000000044, 1.478016689125442484, -1.734723475976807094E-15 ) ) ;
#91 = ADVANCED_FACE ( 'NONE', ( #251 ), #37, .F. ) ;
#92 = FILL_AREA_STYLE_COLOUR ( '', #170 ) ;
#93 = CARTESIAN_POINT ( 'NONE',  ( 1.300000000000000044, 1.478016689125442484, -1.734723475976807094E-15 ) ) ;
#94 = DIRECTION ( 'NONE',  ( 0.000000000000000000, 0.000000000000000000, -1.000000000000000000 ) ) ;
#95 = CARTESIAN_POINT ( 'NONE',  ( 1.300000000000000044, 0.000000000000000000, 0.000000000000000000 ) ) ;
#96 = EDGE_LOOP ( 'NONE', ( #409, #146, #489 ) ) ;
#97 = DIRECTION ( 'NONE',  ( -1.000000000000000000, -0.000000000000000000, -0.000000000000000000 ) ) ;
#98 = EDGE_CURVE ( 'NONE', #35, #231, #7, .T. ) ;
#99 = FACE_OUTER_BOUND ( 'NONE', #271, .T. ) ;
#100 = APPLICATION_CONTEXT ( 'automotive_design' ) ;
#101 = AXIS2_PLACEMENT_3D ( 'NONE', #321, #491, #242 ) ;
#102 = EDGE_LOOP ( 'NONE', ( #528 ) ) ;
#103 = PLANE ( 'NONE',  #31 ) ;
#104 = CARTESIAN_POINT ( 'NONE',  ( 12.99999999999999822, 0.000000000000000000, 1.219500000000000028 ) ) ;
#105 = CARTESIAN_POINT ( 'NONE',  ( 1.300000000000000044, 0.7390083445627193548, -1.280000000000000693 ) ) ;
#106 = FACE_OUTER_BOUND ( 'NONE', #318, .T. ) ;
#107 = DIRECTION ( 'NONE',  ( 1.000000000000000000, 0.000000000000000000, 0.000000000000000000 ) ) ;
#108 = VERTEX_POINT ( 'NONE', #218 ) ;
#109 = ADVANCED_FACE ( 'NONE', ( #144, #48 ), #114, .T. ) ;
#110 = VECTOR ( 'NONE', #160, 1000.000000000000227 ) ;
#111 = CARTESIAN_POINT ( 'NONE',  ( 0.1499999999999973577, 0.000000000000000000, 2.750000000000000000 ) ) ;
#112 = PLANE ( 'NONE',  #455 ) ;
#113 = EDGE_LOOP ( 'NONE', ( #264, #168, #492, #406, #510, #428 ) ) ;
#114 = CONICAL_SURFACE ( 'NONE', #293, 1.219500000000000028, 0.7853981633974683740 ) ;
#115 = CARTESIAN_POINT ( 'NONE',  ( 1.300000000000000044, 0.7390083445627193548, -1.280000000000000693 ) ) ;
#116 = ORIENTED_EDGE ( 'NONE', *, *, #269, .F. ) ;
#117 = EDGE_CURVE ( 'NONE', #199, #348, #14, .T. ) ;
#118 = DIRECTION ( 'NONE',  ( 0.000000000000000000, 0.000000000000000000, 1.000000000000000000 ) ) ;
#119 = VECTOR ( 'NONE', #359, 1000.000000000000114 ) ;
#120 = VERTEX_POINT ( 'NONE', #224 ) ;
#121 = CARTESIAN_POINT ( 'NONE',  ( 0.1499999999999973577, 0.000000000000000000, 0.000000000000000000 ) ) ;
#122 = ORIENTED_EDGE ( 'NONE', *, *, #506, .F. ) ;
#123 = AXIS2_PLACEMENT_3D ( 'NONE', #520, #347, #270 ) ;
#124 = DIRECTION ( 'NONE',  ( 0.000000000000000000, -0.8660254037844391517, -0.4999999999999992784 ) ) ;
#125 = ADVANCED_FACE ( 'NONE', ( #187, #185 ), #56, .T. ) ;
#126 = ORIENTED_EDGE ( 'NONE', *, *, #81, .F. ) ;
#127 = DIRECTION ( 'NONE',  ( 0.000000000000000000, -1.173683280263405364E-15, -1.000000000000000000 ) ) ;
#128 = CIRCLE ( 'NONE', #202, 1.500000000000000444 ) ;
#129 = DIRECTION ( 'NONE',  ( 0.000000000000000000, 0.000000000000000000, -1.000000000000000000 ) ) ;
#130 = CARTESIAN_POINT ( 'NONE',  ( 0.000000000000000000, 0.7390083445627193548, -1.280000000000000693 ) ) ;
#131 = EDGE_CURVE ( 'NONE', #348, #190, #354, .T. ) ;
#132 = DIRECTION ( 'NONE',  ( 0.000000000000000000, 1.000000000000000000, -1.173683280263405364E-15 ) ) ;
#133 =( LENGTH_UNIT ( ) NAMED_UNIT ( * ) SI_UNIT ( .MILLI., .METRE. ) );
#134 = CONICAL_SURFACE ( 'NONE', #437, 1.280000000000000027, 1.047197551196593857 ) ;
#135 = DIRECTION ( 'NONE',  ( -1.000000000000000000, -0.000000000000000000, -0.000000000000000000 ) ) ;
#136 = EDGE_LOOP ( 'NONE', ( #236, #345, #305, #15, #327 ) ) ;
#137 = FACE_OUTER_BOUND ( 'NONE', #487, .T. ) ;
#138 = DIRECTION ( 'NONE',  ( -1.000000000000000000, -0.000000000000000000, -0.000000000000000000 ) ) ;
#139 = ADVANCED_FACE ( 'NONE', ( #99 ), #383, .F. ) ;
#140 = PLANE ( 'NONE',  #145 ) ;
#141 = LINE ( 'NONE', #262, #334 ) ;
#142 = ORIENTED_EDGE ( 'NONE', *, *, #341, .F. ) ;
#143 = LINE ( 'NONE', #440, #516 ) ;
#144 = FACE_OUTER_BOUND ( 'NONE', #102, .T. ) ;
#145 = AXIS2_PLACEMENT_3D ( 'NONE', #415, #424, #94 ) ;
#146 = ORIENTED_EDGE ( 'NONE', *, *, #328, .T. ) ;
#147 = CARTESIAN_POINT ( 'NONE',  ( 1.300000000000000044, 0.7390083445627224634, 1.279999999999999138 ) ) ;
#148 = ORIENTED_EDGE ( 'NONE', *, *, #131, .T. ) ;
#149 = CARTESIAN_POINT ( 'NONE',  ( 1.300000000000000044, -1.108512516844082363, -0.6399999999999989031 ) ) ;
#150 = EDGE_CURVE ( 'NONE', #53, #53, #128, .T. ) ;
#151 = CARTESIAN_POINT ( 'NONE',  ( 1.300000000000000044, 0.000000000000000000, 0.000000000000000000 ) ) ;
#152 = ORIENTED_EDGE ( 'NONE', *, *, #9, .F. ) ;
#153 = ADVANCED_BREP_SHAPE_REPRESENTATION ( 'ISO 4762 M3 x 10 - 10N_ISO 4762 M3 x 10 - 10N', ( #477, #502 ), #350 ) ;
#154 = CARTESIAN_POINT ( 'NONE',  ( 0.000000000000000000, 0.000000000000000000, 0.000000000000000000 ) ) ;
#155 = FACE_OUTER_BOUND ( 'NONE', #496, .T. ) ;
#156 = ORIENTED_EDGE ( 'NONE', *, *, #38, .T. ) ;
#157 = DIRECTION ( 'NONE',  ( 1.000000000000000000, 0.000000000000000000, 0.000000000000000000 ) ) ;
#158 = ORIENTED_EDGE ( 'NONE', *, *, #131, .F. ) ;
#159 = EDGE_CURVE ( 'NONE', #35, #484, #77, .T. ) ;
#160 = DIRECTION ( 'NONE',  ( 0.000000000000000000, 0.4999999999999990008, -0.8660254037844391517 ) ) ;
#161 = ORIENTED_EDGE ( 'NONE', *, *, #174, .T. ) ;
#162 = CARTESIAN_POINT ( 'NONE',  ( 1.300000000000000044, -1.478016689125442484, 1.734723475976807094E-15 ) ) ;
#163 = ORIENTED_EDGE ( 'NONE', *, *, #370, .F. ) ;
#164 = CIRCLE ( 'NONE', #88, 1.600000000000000533 ) ;
#165 = EDGE_CURVE ( 'NONE', #249, #70, #141, .T. ) ;
#166 = EDGE_LOOP ( 'NONE', ( #314 ) ) ;
#167 = VECTOR ( 'NONE', #456, 1000.000000000000227 ) ;
#168 = ORIENTED_EDGE ( 'NONE', *, *, #519, .T. ) ;
#169 = VERTEX_POINT ( 'NONE', #93 ) ;
#170 = COLOUR_RGB ( '',0.7921568627450980005, 0.8196078431372548767, 0.9333333333333333481 ) ;
#171 = DIRECTION ( 'NONE',  ( 0.000000000000000000, 0.000000000000000000, -1.000000000000000000 ) ) ;
#172 = TOROIDAL_SURFACE ( 'NONE', #36, 1.600000000000000533, 0.1000000000000000056 ) ;
#173 = EDGE_LOOP ( 'NONE', ( #33 ) ) ;
#174 = EDGE_CURVE ( 'NONE', #249, #199, #351, .T. ) ;
#175 = DIRECTION ( 'NONE',  ( -1.000000000000000000, -0.000000000000000000, -0.000000000000000000 ) ) ;
#176 = DIRECTION ( 'NONE',  ( -1.000000000000000000, -0.000000000000000000, -0.000000000000000000 ) ) ;
#177 = DIRECTION ( 'NONE',  ( 0.000000000000000000, 1.000000000000000000, -1.320393690296331330E-15 ) ) ;
#178 = FACE_BOUND ( 'NONE', #57, .T. ) ;
#179 = AXIS2_PLACEMENT_3D ( 'NONE', #1, #212, #222 ) ;
#180 = ADVANCED_FACE ( 'NONE', ( #382 ), #309, .T. ) ;
#181 = DIRECTION ( 'NONE',  ( 0.000000000000000000, 0.000000000000000000, 1.000000000000000000 ) ) ;
#182 = DIRECTION ( 'NONE',  ( 0.000000000000000000, -1.000000000000000000, 1.173683280263405364E-15 ) ) ;
#183 = ORIENTED_EDGE ( 'NONE', *, *, #269, .T. ) ;
#184 = DIRECTION ( 'NONE',  ( 0.000000000000000000, 0.000000000000000000, 1.000000000000000000 ) ) ;
#185 = FACE_OUTER_BOUND ( 'NONE', #62, .T. ) ;
#186 = AXIS2_PLACEMENT_3D ( 'NONE', #471, #22, #240 ) ;
#187 = FACE_OUTER_BOUND ( 'NONE', #173, .T. ) ;
#188 = VECTOR ( 'NONE', #403, 1000.000000000000227 ) ;
#189 = CIRCLE ( 'NONE', #101, 1.280000000000000027 ) ;
#190 = VERTEX_POINT ( 'NONE', #59 ) ;
#191 = VERTEX_POINT ( 'NONE', #265 ) ;
#192 = DIRECTION ( 'NONE',  ( 0.000000000000000000, -1.000000000000000000, 1.173683280263405364E-15 ) ) ;
#193 = ORIENTED_EDGE ( 'NONE', *, *, #285, .F. ) ;
#194 = PLANE ( 'NONE',  #330 ) ;
#195 = VERTEX_POINT ( 'NONE', #391 ) ;
#196 = CARTESIAN_POINT ( 'NONE',  ( 1.300000000000000044, -0.7390083445627197989, 1.280000000000001137 ) ) ;
#197 = FACE_OUTER_BOUND ( 'NONE', #25, .T. ) ;
#198 = EDGE_CURVE ( 'NONE', #169, #239, #386, .T. ) ;
#199 = VERTEX_POINT ( 'NONE', #12 ) ;
#200 = VECTOR ( 'NONE', #74, 1000.000000000000227 ) ;
#201 = DIRECTION ( 'NONE',  ( 0.000000000000000000, 0.000000000000000000, -1.000000000000000000 ) ) ;
#202 = AXIS2_PLACEMENT_3D ( 'NONE', #427, #304, #181 ) ;
#203 = CARTESIAN_POINT ( 'NONE',  ( 1.300000000000000044, -1.478016689125442484, 1.734723475976807094E-15 ) ) ;
#204 = EDGE_LOOP ( 'NONE', ( #213 ) ) ;
#205 = ORIENTED_EDGE ( 'NONE', *, *, #159, .F. ) ;
#206 = VECTOR ( 'NONE', #316, 1000.000000000000227 ) ;
#207 = EDGE_CURVE ( 'NONE', #239, #190, #431, .T. ) ;
#208 = AXIS2_PLACEMENT_3D ( 'NONE', #432, #227, #388 ) ;
#209 = ORIENTED_EDGE ( 'NONE', *, *, #527, .F. ) ;
#210 = AXIS2_PLACEMENT_3D ( 'NONE', #421, #540, #129 ) ;
#211 = LINE ( 'NONE', #338, #279 ) ;
#212 = DIRECTION ( 'NONE',  ( -1.000000000000000000, 0.000000000000000000, -0.000000000000000000 ) ) ;
#213 = ORIENTED_EDGE ( 'NONE', *, *, #150, .T. ) ;
#214 = EDGE_CURVE ( 'NONE', #362, #362, #259, .T. ) ;
#215 = FACE_OUTER_BOUND ( 'NONE', #243, .T. ) ;
#216 = DIRECTION ( 'NONE',  ( -0.000000000000000000, 1.320393690296331330E-15, 1.000000000000000000 ) ) ;
#217 = VECTOR ( 'NONE', #467, 1000.000000000000000 ) ;
#218 = CARTESIAN_POINT ( 'NONE',  ( 0.000000000000000000, -0.7390083445627229075, -1.279999999999998916 ) ) ;
#219 = ADVANCED_FACE ( 'NONE', ( #473 ), #103, .F. ) ;
#220 = CARTESIAN_POINT ( 'NONE',  ( 1.300000000000000044, -0.7390083445627197989, 1.280000000000001137 ) ) ;
#221 = VERTEX_POINT ( 'NONE', #278 ) ;
#222 = DIRECTION ( 'NONE',  ( -0.000000000000000000, 0.000000000000000000, 1.000000000000000000 ) ) ;
#223 = CIRCLE ( 'NONE', #73, 1.280000000000000027 ) ;
#224 = CARTESIAN_POINT ( 'NONE',  ( 0.000000000000000000, -1.478016689125442484, 1.734723475976807094E-15 ) ) ;
#225 = DIRECTION ( 'NONE',  ( 0.000000000000000000, 0.000000000000000000, -1.000000000000000000 ) ) ;
#226 = VECTOR ( 'NONE', #340, 1000.000000000000000 ) ;
#227 = DIRECTION ( 'NONE',  ( -1.000000000000000000, -0.000000000000000000, -0.000000000000000000 ) ) ;
#228 = EDGE_LOOP ( 'NONE', ( #537 ) ) ;
#229 = DIRECTION ( 'NONE',  ( 0.000000000000000000, -0.4999999999999992228, 0.8660254037844390407 ) ) ;
#230 = CARTESIAN_POINT ( 'NONE',  ( 1.300000000000000044, 1.478016689125442484, -1.734723475976807094E-15 ) ) ;
#231 = VERTEX_POINT ( 'NONE', #357 ) ;
#232 = EDGE_CURVE ( 'NONE', #400, #400, #534, .T. ) ;
#233 = CARTESIAN_POINT ( 'NONE',  ( 0.000000000000000000, 0.000000000000000000, 2.600000000000000089 ) ) ;
#234 = DIRECTION ( 'NONE',  ( 0.000000000000000000, 0.000000000000000000, 1.000000000000000000 ) ) ;
#235 = VECTOR ( 'NONE', #182, 1000.000000000000000 ) ;
#236 = ORIENTED_EDGE ( 'NONE', *, *, #290, .F. ) ;
#237 = CARTESIAN_POINT ( 'NONE',  ( 1.300000000000000044, 1.108512516844080364, -0.6400000000000017897 ) ) ;
#238 = DIRECTION ( 'NONE',  ( -1.000000000000000000, -0.000000000000000000, -0.000000000000000000 ) ) ;
#239 = VERTEX_POINT ( 'NONE', #363 ) ;
#240 = DIRECTION ( 'NONE',  ( 0.000000000000000000, 0.000000000000000000, 1.000000000000000000 ) ) ;
#241 = EDGE_CURVE ( 'NONE', #484, #195, #189, .T. ) ;
#242 = DIRECTION ( 'NONE',  ( 0.000000000000000000, 0.000000000000000000, 1.000000000000000000 ) ) ;
#243 = EDGE_LOOP ( 'NONE', ( #49, #116, #205 ) ) ;
#244 = CARTESIAN_POINT ( 'NONE',  ( 0.000000000000000000, -0.7390083445627197989, 1.280000000000001137 ) ) ;
#245 = ORIENTED_EDGE ( 'NONE', *, *, #307, .F. ) ;
#246 = AXIS2_PLACEMENT_3D ( 'NONE', #151, #479, #438 ) ;
#247 = DIRECTION ( 'NONE',  ( 1.000000000000000000, 0.000000000000000000, 0.000000000000000000 ) ) ;
#248 = ORIENTED_EDGE ( 'NONE', *, *, #543, .F. ) ;
#249 = VERTEX_POINT ( 'NONE', #531 ) ;
#250 = EDGE_CURVE ( 'NONE', #274, #274, #343, .T. ) ;
#251 = FACE_OUTER_BOUND ( 'NONE', #310, .T. ) ;
#252 = DIRECTION ( 'NONE',  ( 0.000000000000000000, -1.000000000000000000, 1.320393690296331330E-15 ) ) ;
#253 = DIRECTION ( 'NONE',  ( 1.000000000000000000, 0.000000000000000000, 0.000000000000000000 ) ) ;
#254 = ADVANCED_FACE ( 'NONE', ( #197, #323 ), #172, .F. ) ;
#255 = FACE_OUTER_BOUND ( 'NONE', #521, .T. ) ;
#256 = PLANE ( 'NONE',  #301 ) ;
#257 = STYLED_ITEM ( 'NONE', ( #381 ), #477 ) ;
#258 = PLANE ( 'NONE',  #448 ) ;
#259 = CIRCLE ( 'NONE', #208, 2.600000000000000089 ) ;
#260 = FACE_OUTER_BOUND ( 'NONE', #425, .T. ) ;
#261 = PLANE ( 'NONE',  #179 ) ;
#262 = CARTESIAN_POINT ( 'NONE',  ( 1.300000000000000044, -0.7390083445627197989, 1.280000000000001137 ) ) ;
#263 = CARTESIAN_POINT ( 'NONE',  ( 1.300000000000000044, 1.478016689125442484, -1.734723475976807094E-15 ) ) ;
#264 = ORIENTED_EDGE ( 'NONE', *, *, #422, .T. ) ;
#265 = CARTESIAN_POINT ( 'NONE',  ( 3.099999999999998757, 0.000000000000000000, -1.500000000000000444 ) ) ;
#266 = AXIS2_PLACEMENT_3D ( 'NONE', #275, #69, #234 ) ;
#267 = DIRECTION ( 'NONE',  ( 0.000000000000000000, -0.4999999999999990563, 0.8660254037844391517 ) ) ;
#268 = AXIS2_PLACEMENT_3D ( 'NONE', #95, #344, #313 ) ;
#269 = EDGE_CURVE ( 'NONE', #484, #231, #445, .T. ) ;
#270 = DIRECTION ( 'NONE',  ( 0.000000000000000000, 0.000000000000000000, 1.000000000000000000 ) ) ;
#271 = EDGE_LOOP ( 'NONE', ( #156, #126, #142, #276, #72 ) ) ;
#272 = PRODUCT_CONTEXT ( 'NONE', #100, 'mechanical' ) ;
#273 = CARTESIAN_POINT ( 'NONE',  ( 12.99999999999999822, 0.000000000000000000, 0.000000000000000000 ) ) ;
#274 = VERTEX_POINT ( 'NONE', #111 ) ;
#275 = CARTESIAN_POINT ( 'NONE',  ( 12.99999999999999822, 0.000000000000000000, 0.000000000000000000 ) ) ;
#276 = ORIENTED_EDGE ( 'NONE', *, *, #465, .F. ) ;
#277 = ADVANCED_FACE ( 'NONE', ( #155 ), #112, .T. ) ;
#278 = CARTESIAN_POINT ( 'NONE',  ( 0.000000000000000000, 0.7390083445627193548, -1.280000000000000693 ) ) ;
#279 = VECTOR ( 'NONE', #3, 1000.000000000000114 ) ;
#280 = ORIENTED_EDGE ( 'NONE', *, *, #422, .F. ) ;
#281 = CARTESIAN_POINT ( 'NONE',  ( 1.300000000000000044, 1.478016689125442484, -1.734723475976807094E-15 ) ) ;
#282 = EDGE_LOOP ( 'NONE', ( #395 ) ) ;
#283 = FACE_OUTER_BOUND ( 'NONE', #392, .T. ) ;
#284 = ORIENTED_EDGE ( 'NONE', *, *, #349, .F. ) ;
#285 = EDGE_CURVE ( 'NONE', #288, #484, #71, .T. ) ;
#286 = ORIENTED_EDGE ( 'NONE', *, *, #34, .T. ) ;
#287 = VECTOR ( 'NONE', #10, 1000.000000000000000 ) ;
#288 = VERTEX_POINT ( 'NONE', #162 ) ;
#289 = LINE ( 'NONE', #86, #167 ) ;
#290 = EDGE_CURVE ( 'NONE', #70, #120, #329, .T. ) ;
#291 = CARTESIAN_POINT ( 'NONE',  ( 0.000000000000000000, -0.7390083445627197989, 1.280000000000001137 ) ) ;
#292 = CARTESIAN_POINT ( 'NONE',  ( 1.300000000000000044, 0.7390083445627193548, -1.280000000000000693 ) ) ;
#293 = AXIS2_PLACEMENT_3D ( 'NONE', #273, #436, #434 ) ;
#294 = DIRECTION ( 'NONE',  ( 0.000000000000000000, 0.5000000000000009992, 0.8660254037844380415 ) ) ;
#295 = CARTESIAN_POINT ( 'NONE',  ( 1.300000000000000044, -0.7390083445627229075, -1.279999999999998916 ) ) ;
#296 = FACE_OUTER_BOUND ( 'NONE', #113, .T. ) ;
#297 = LINE ( 'NONE', #292, #356 ) ;
#298 = DIRECTION ( 'NONE',  ( -1.000000000000000000, -0.000000000000000000, -0.000000000000000000 ) ) ;
#299 = DIRECTION ( 'NONE',  ( 0.000000000000000000, -0.4999999999999992228, 0.8660254037844390407 ) ) ;
#300 = EDGE_CURVE ( 'NONE', #120, #108, #21, .T. ) ;
#301 = AXIS2_PLACEMENT_3D ( 'NONE', #41, #216, #252 ) ;
#302 = DIRECTION ( 'NONE',  ( 0.000000000000000000, 0.8660254037844379305, -0.5000000000000014433 ) ) ;
#303 = DIRECTION ( 'NONE',  ( 1.000000000000000000, 0.000000000000000000, 0.000000000000000000 ) ) ;
#304 = DIRECTION ( 'NONE',  ( -1.000000000000000000, -0.000000000000000000, -0.000000000000000000 ) ) ;
#305 = ORIENTED_EDGE ( 'NONE', *, *, #506, .T. ) ;
#306 = CARTESIAN_POINT ( 'NONE',  ( 1.300000000000000044, -1.478016689125442484, 1.734723475976807094E-15 ) ) ;
#307 = EDGE_CURVE ( 'NONE', #70, #190, #524, .T. ) ;
#308 = AXIS2_PLACEMENT_3D ( 'NONE', #488, #238, #118 ) ;
#309 = PLANE ( 'NONE',  #523 ) ;
#310 = EDGE_LOOP ( 'NONE', ( #193, #470, #372 ) ) ;
#311 =( NAMED_UNIT ( * ) SI_UNIT ( $, .STERADIAN. ) SOLID_ANGLE_UNIT ( ) );
#312 = CLOSED_SHELL ( 'NONE', ( #385, #405, #485, #54, #109, #277, #254, #125, #63, #46, #444, #180, #75, #139, #430, #91, #16, #219, #380, #397, #460 ) ) ;
#313 = DIRECTION ( 'NONE',  ( 0.000000000000000000, 0.000000000000000000, 1.000000000000000000 ) ) ;
#314 = ORIENTED_EDGE ( 'NONE', *, *, #317, .T. ) ;
#315 = LINE ( 'NONE', #64, #18 ) ;
#316 = DIRECTION ( 'NONE',  ( 0.000000000000000000, 0.4999999999999990008, -0.8660254037844391517 ) ) ;
#317 = EDGE_CURVE ( 'NONE', #393, #393, #530, .T. ) ;
#318 = EDGE_LOOP ( 'NONE', ( #84 ) ) ;
#319 = DIRECTION ( 'NONE',  ( 1.000000000000000000, 0.000000000000000000, 0.000000000000000000 ) ) ;
#320 = UNCERTAINTY_MEASURE_WITH_UNIT (LENGTH_MEASURE( 1.000000000000000082E-05 ), #133, 'distance_accuracy_value', 'NONE');
#321 = CARTESIAN_POINT ( 'NONE',  ( 1.300000000000000044, 0.000000000000000000, 0.000000000000000000 ) ) ;
#322 = ORIENTED_EDGE ( 'NONE', *, *, #300, .T. ) ;
#323 = FACE_OUTER_BOUND ( 'NONE', #364, .T. ) ;
#324 = AXIS2_PLACEMENT_3D ( 'NONE', #542, #124, #79 ) ;
#325 = ORIENTED_EDGE ( 'NONE', *, *, #165, .T. ) ;
#326 = DIRECTION ( 'NONE',  ( 0.000000000000000000, 0.000000000000000000, -1.000000000000000000 ) ) ;
#327 = ORIENTED_EDGE ( 'NONE', *, *, #498, .T. ) ;
#328 = EDGE_CURVE ( 'NONE', #43, #35, #486, .T. ) ;
#329 = LINE ( 'NONE', #291, #404 ) ;
#330 = AXIS2_PLACEMENT_3D ( 'NONE', #449, #24, #83 ) ;
#331 = EDGE_LOOP ( 'NONE', ( #443 ) ) ;
#332 = PRODUCT_DEFINITION_CONTEXT ( 'detailed design', #50, 'design' ) ;
#333 = CARTESIAN_POINT ( 'NONE',  ( 1.300000000000000044, -1.502314598737159031E-15, -1.280000000000000027 ) ) ;
#334 = VECTOR ( 'NONE', #138, 1000.000000000000000 ) ;
#335 = ORIENTED_EDGE ( 'NONE', *, *, #465, .T. ) ;
#336 = EDGE_CURVE ( 'NONE', #480, #35, #28, .T. ) ;
#337 = CARTESIAN_POINT ( 'NONE',  ( 0.000000000000000000, -0.7390083445627197989, 1.280000000000001137 ) ) ;
#338 = CARTESIAN_POINT ( 'NONE',  ( 1.300000000000000044, 1.478016689125442484, -1.734723475976807094E-15 ) ) ;
#339 = DIRECTION ( 'NONE',  ( 0.000000000000000000, 0.000000000000000000, 1.000000000000000000 ) ) ;
#340 = DIRECTION ( 'NONE',  ( -1.000000000000000000, -0.000000000000000000, -0.000000000000000000 ) ) ;
#341 = EDGE_CURVE ( 'NONE', #480, #43, #398, .T. ) ;
#342 = CARTESIAN_POINT ( 'NONE',  ( 1.300000000000000044, -1.478016689125442484, 1.734723475976807094E-15 ) ) ;
#343 = CIRCLE ( 'NONE', #450, 2.750000000000000000 ) ;
#344 = DIRECTION ( 'NONE',  ( -1.000000000000000000, -0.000000000000000000, -0.000000000000000000 ) ) ;
#345 = ORIENTED_EDGE ( 'NONE', *, *, #165, .F. ) ;
#346 = CARTESIAN_POINT ( 'NONE',  ( 1.300000000000000044, 1.478016689125442484, -1.734723475976807094E-15 ) ) ;
#347 = DIRECTION ( 'NONE',  ( -1.000000000000000000, -0.000000000000000000, -0.000000000000000000 ) ) ;
#348 = VERTEX_POINT ( 'NONE', #65 ) ;
#349 = EDGE_CURVE ( 'NONE', #191, #191, #490, .T. ) ;
#350 =( GEOMETRIC_REPRESENTATION_CONTEXT ( 3 ) GLOBAL_UNCERTAINTY_ASSIGNED_CONTEXT ( ( #419 ) ) GLOBAL_UNIT_ASSIGNED_CONTEXT ( ( #468, #355, #311 ) ) REPRESENTATION_CONTEXT ( 'NONE', 'WORKASPACE' ) );
#351 = LINE ( 'NONE', #515, #452 ) ;
#352 = EDGE_LOOP ( 'NONE', ( #76, #152, #280 ) ) ;
#353 = VECTOR ( 'NONE', #97, 1000.000000000000000 ) ;
#354 = LINE ( 'NONE', #147, #217 ) ;
#355 =( NAMED_UNIT ( * ) PLANE_ANGLE_UNIT ( ) SI_UNIT ( $, .RADIAN. ) );
#356 = VECTOR ( 'NONE', #463, 1000.000000000000000 ) ;
#357 = CARTESIAN_POINT ( 'NONE',  ( 1.300000000000000044, -0.7390083445627229075, -1.279999999999998916 ) ) ;
#358 = ORIENTED_EDGE ( 'NONE', *, *, #174, .F. ) ;
#359 = DIRECTION ( 'NONE',  ( 0.000000000000000000, -0.5000000000000009992, -0.8660254037844380415 ) ) ;
#360 = CARTESIAN_POINT ( 'NONE',  ( 1.300000000000000044, -1.478016689125442484, 1.734723475976807094E-15 ) ) ;
#361 = ORIENTED_EDGE ( 'NONE', *, *, #214, .T. ) ;
#362 = VERTEX_POINT ( 'NONE', #233 ) ;
#363 = CARTESIAN_POINT ( 'NONE',  ( 0.000000000000000000, 1.478016689125442484, -1.734723475976807094E-15 ) ) ;
#364 = EDGE_LOOP ( 'NONE', ( #209 ) ) ;
#365 = CARTESIAN_POINT ( 'NONE',  ( 3.099999999999998757, 0.000000000000000000, 0.000000000000000000 ) ) ;
#366 = EDGE_LOOP ( 'NONE', ( #439, #402, #78, #453, #461 ) ) ;
#367 = PRODUCT_RELATED_PRODUCT_CATEGORY ( 'part', '', ( #373 ) ) ;
#368 = AXIS2_PLACEMENT_3D ( 'NONE', #501, #457, #294 ) ;
#369 = ORIENTED_EDGE ( 'NONE', *, *, #410, .F. ) ;
#370 = EDGE_CURVE ( 'NONE', #195, #199, #412, .T. ) ;
#371 = AXIS2_PLACEMENT_3D ( 'NONE', #90, #55, #469 ) ;
#372 = ORIENTED_EDGE ( 'NONE', *, *, #241, .F. ) ;
#373 = PRODUCT ( 'ISO 4762 M3 x 10 - 10N_ISO 4762 M3 x 10 - 10N', 'ISO 4762 M3 x 10 - 10N_ISO 4762 M3 x 10 - 10N', '', ( #272 ) ) ;
#374 = CARTESIAN_POINT ( 'NONE',  ( 1.300000000000000044, 1.108512516844082363, 0.6399999999999992362 ) ) ;
#375 = FACE_OUTER_BOUND ( 'NONE', #446, .T. ) ;
#376 = ORIENTED_EDGE ( 'NONE', *, *, #9, .T. ) ;
#377 = PLANE ( 'NONE',  #89 ) ;
#378 = PRODUCT_DEFINITION_SHAPE ( 'NONE', 'NONE',  #476 ) ;
#379 = FACE_OUTER_BOUND ( 'NONE', #282, .T. ) ;
#380 = ADVANCED_FACE ( 'NONE', ( #283 ), #194, .F. ) ;
#381 = PRESENTATION_STYLE_ASSIGNMENT (( #504 ) ) ;
#382 = FACE_OUTER_BOUND ( 'NONE', #45, .T. ) ;
#383 = PLANE ( 'NONE',  #441 ) ;
#384 = CYLINDRICAL_SURFACE ( 'NONE', #518, 2.750000000000000000 ) ;
#385 = ADVANCED_FACE ( 'NONE', ( #178, #375 ), #261, .T. ) ;
#386 = LINE ( 'NONE', #263, #493 ) ;
#387 = CARTESIAN_POINT ( 'NONE',  ( 3.000000000000000000, 0.000000000000000000, -1.600000000000000533 ) ) ;
#388 = DIRECTION ( 'NONE',  ( 0.000000000000000000, 0.000000000000000000, 1.000000000000000000 ) ) ;
#389 = ORIENTED_EDGE ( 'NONE', *, *, #498, .F. ) ;
#390 = DIRECTION ( 'NONE',  ( 0.000000000000000000, -0.5000000000000009992, -0.8660254037844380415 ) ) ;
#391 = CARTESIAN_POINT ( 'NONE',  ( 1.300000000000000044, -1.108512516844081253, 0.6400000000000015676 ) ) ;
#392 = EDGE_LOOP ( 'NONE', ( #248, #335, #52 ) ) ;
#393 = VERTEX_POINT ( 'NONE', #104 ) ;
#394 = DIRECTION ( 'NONE',  ( -1.000000000000000000, -0.000000000000000000, -0.000000000000000000 ) ) ;
#395 = ORIENTED_EDGE ( 'NONE', *, *, #349, .T. ) ;
#396 = LINE ( 'NONE', #306, #353 ) ;
#397 = ADVANCED_FACE ( 'NONE', ( #42 ), #377, .F. ) ;
#398 = LINE ( 'NONE', #281, #188 ) ;
#399 = ORIENTED_EDGE ( 'NONE', *, *, #285, .T. ) ;
#400 = VERTEX_POINT ( 'NONE', #482 ) ;
#401 = DIRECTION ( 'NONE',  ( 1.000000000000000000, 0.000000000000000000, 0.000000000000000000 ) ) ;
#402 = ORIENTED_EDGE ( 'NONE', *, *, #34, .F. ) ;
#403 = DIRECTION ( 'NONE',  ( 0.000000000000000000, -0.5000000000000013323, -0.8660254037844378194 ) ) ;
#404 = VECTOR ( 'NONE', #442, 1000.000000000000114 ) ;
#405 = ADVANCED_FACE ( 'NONE', ( #137, #429 ), #384, .T. ) ;
#406 = ORIENTED_EDGE ( 'NONE', *, *, #159, .T. ) ;
#407 = DIRECTION ( 'NONE',  ( 0.000000000000000000, 1.000000000000000000, -1.320393690296331330E-15 ) ) ;
#408 = ORIENTED_EDGE ( 'NONE', *, *, #38, .F. ) ;
#409 = ORIENTED_EDGE ( 'NONE', *, *, #341, .T. ) ;
#410 = EDGE_CURVE ( 'NONE', #221, #108, #4, .T. ) ;
#411 = PRESENTATION_LAYER_ASSIGNMENT (  '', '', ( #257 ) ) ;
#412 = CIRCLE ( 'NONE', #308, 1.280000000000000027 ) ;
#413 = PLANE ( 'NONE',  #324 ) ;
#414 = FACE_OUTER_BOUND ( 'NONE', #204, .T. ) ;
#415 = CARTESIAN_POINT ( 'NONE',  ( 1.300000000000000044, 1.478016689125442484, -1.734723475976807094E-15 ) ) ;
#416 = PRODUCT_DEFINITION_FORMATION_WITH_SPECIFIED_SOURCE ( 'Symmetric', '', #373, .NOT_KNOWN. ) ;
#417 = FACE_OUTER_BOUND ( 'NONE', #366, .T. ) ;
#418 = CARTESIAN_POINT ( 'NONE',  ( 1.300000000000000044, 0.000000000000000000, 0.000000000000000000 ) ) ;
#419 = UNCERTAINTY_MEASURE_WITH_UNIT (LENGTH_MEASURE( 1.000000000000000082E-05 ), #468, 'distance_accuracy_value', 'NONE');
#420 = CIRCLE ( 'NONE', #186, 1.280000000000000027 ) ;
#421 = CARTESIAN_POINT ( 'NONE',  ( 1.300000000000000044, 1.478016689125442484, -1.734723475976807094E-15 ) ) ;
#422 = EDGE_CURVE ( 'NONE', #199, #30, #223, .T. ) ;
#423 = VECTOR ( 'NONE', #407, 1000.000000000000000 ) ;
#424 = DIRECTION ( 'NONE',  ( 1.000000000000000000, 0.000000000000000000, 0.000000000000000000 ) ) ;
#425 = EDGE_LOOP ( 'NONE', ( #122, #161, #163 ) ) ;
#426 = FILL_AREA_STYLE ('',( #92 ) ) ;
#427 = CARTESIAN_POINT ( 'NONE',  ( 12.71950000000000891, 0.000000000000000000, 0.000000000000000000 ) ) ;
#428 = ORIENTED_EDGE ( 'NONE', *, *, #370, .T. ) ;
#429 = FACE_OUTER_BOUND ( 'NONE', #331, .T. ) ;
#430 = ADVANCED_FACE ( 'NONE', ( #215 ), #140, .F. ) ;
#431 = LINE ( 'NONE', #51, #23 ) ;
#432 = CARTESIAN_POINT ( 'NONE',  ( 0.000000000000000000, 0.000000000000000000, 0.000000000000000000 ) ) ;
#433 = ORIENTED_EDGE ( 'NONE', *, *, #250, .T. ) ;
#434 = DIRECTION ( 'NONE',  ( 0.000000000000000000, 0.000000000000000000, 1.000000000000000000 ) ) ;
#435 = CARTESIAN_POINT ( 'NONE',  ( 3.000000000000000000, 0.000000000000000000, 0.000000000000000000 ) ) ;
#436 = DIRECTION ( 'NONE',  ( -1.000000000000000000, -0.000000000000000000, -0.000000000000000000 ) ) ;
#437 = AXIS2_PLACEMENT_3D ( 'NONE', #8, #466, #459 ) ;
#438 = DIRECTION ( 'NONE',  ( 0.000000000000000000, 0.000000000000000000, 1.000000000000000000 ) ) ;
#439 = ORIENTED_EDGE ( 'NONE', *, *, #410, .T. ) ;
#440 = CARTESIAN_POINT ( 'NONE',  ( 1.300000000000000044, -0.7390083445627197989, 1.280000000000001137 ) ) ;
#441 = AXIS2_PLACEMENT_3D ( 'NONE', #509, #302, #512 ) ;
#442 = DIRECTION ( 'NONE',  ( 0.000000000000000000, -0.5000000000000009992, -0.8660254037844380415 ) ) ;
#443 = ORIENTED_EDGE ( 'NONE', *, *, #232, .T. ) ;
#444 = ADVANCED_FACE ( 'NONE', ( #40 ), #499, .T. ) ;
#445 = LINE ( 'NONE', #360, #110 ) ;
#446 = EDGE_LOOP ( 'NONE', ( #361 ) ) ;
#447 = SHAPE_DEFINITION_REPRESENTATION ( #378, #153 ) ;
#448 = AXIS2_PLACEMENT_3D ( 'NONE', #514, #303, #225 ) ;
#449 = CARTESIAN_POINT ( 'NONE',  ( 1.300000000000000044, 1.478016689125442484, -1.734723475976807094E-15 ) ) ;
#450 = AXIS2_PLACEMENT_3D ( 'NONE', #121, #401, #29 ) ;
#451 = ORIENTED_EDGE ( 'NONE', *, *, #117, .F. ) ;
#452 = VECTOR ( 'NONE', #177, 1000.000000000000000 ) ;
#453 = ORIENTED_EDGE ( 'NONE', *, *, #328, .F. ) ;
#454 = DIRECTION ( 'NONE',  ( 0.000000000000000000, 0.000000000000000000, 1.000000000000000000 ) ) ;
#455 = AXIS2_PLACEMENT_3D ( 'NONE', #526, #157, #326 ) ;
#456 = DIRECTION ( 'NONE',  ( 0.000000000000000000, -0.5000000000000013323, -0.8660254037844378194 ) ) ;
#457 = DIRECTION ( 'NONE',  ( 0.000000000000000000, 0.8660254037844380415, -0.5000000000000009992 ) ) ;
#458 = ORIENTED_EDGE ( 'NONE', *, *, #290, .T. ) ;
#459 = DIRECTION ( 'NONE',  ( 0.000000000000000000, 0.000000000000000000, 1.000000000000000000 ) ) ;
#460 = ADVANCED_FACE ( 'NONE', ( #296 ), #134, .F. ) ;
#461 = ORIENTED_EDGE ( 'NONE', *, *, #81, .T. ) ;
#462 = LINE ( 'NONE', #85, #505 ) ;
#463 = DIRECTION ( 'NONE',  ( -1.000000000000000000, -0.000000000000000000, -0.000000000000000000 ) ) ;
#464 = DIRECTION ( 'NONE',  ( 0.000000000000000000, -1.000000000000000000, 1.173683280263405364E-15 ) ) ;
#465 = EDGE_CURVE ( 'NONE', #169, #480, #462, .T. ) ;
#466 = DIRECTION ( 'NONE',  ( -1.000000000000000000, -0.000000000000000000, -0.000000000000000000 ) ) ;
#467 = DIRECTION ( 'NONE',  ( -1.000000000000000000, -0.000000000000000000, -0.000000000000000000 ) ) ;
#468 =( LENGTH_UNIT ( ) NAMED_UNIT ( * ) SI_UNIT ( .MILLI., .METRE. ) );
#469 = DIRECTION ( 'NONE',  ( 0.000000000000000000, 0.000000000000000000, -1.000000000000000000 ) ) ;
#470 = ORIENTED_EDGE ( 'NONE', *, *, #494, .F. ) ;
#471 = CARTESIAN_POINT ( 'NONE',  ( 1.300000000000000044, 0.000000000000000000, 0.000000000000000000 ) ) ;
#472 = VECTOR ( 'NONE', #192, 1000.000000000000000 ) ;
#473 = FACE_OUTER_BOUND ( 'NONE', #352, .T. ) ;
#474 = ORIENTED_EDGE ( 'NONE', *, *, #198, .F. ) ;
#475 = APPLICATION_PROTOCOL_DEFINITION ( 'draft international standard', 'automotive_design', 1998, #100 ) ;
#476 = PRODUCT_DEFINITION ( 'General', '', #416, #332 ) ;
#477 = MANIFOLD_SOLID_BREP ( 'Hex', #312 ) ;
#478 = CARTESIAN_POINT ( 'NONE',  ( 12.71950000000000891, 0.000000000000000000, 1.500000000000000444 ) ) ;
#479 = DIRECTION ( 'NONE',  ( -1.000000000000000000, -0.000000000000000000, -0.000000000000000000 ) ) ;
#480 = VERTEX_POINT ( 'NONE', #237 ) ;
#481 =( GEOMETRIC_REPRESENTATION_CONTEXT ( 3 ) GLOBAL_UNCERTAINTY_ASSIGNED_CONTEXT ( ( #320 ) ) GLOBAL_UNIT_ASSIGNED_CONTEXT ( ( #133, #508, #522 ) ) REPRESENTATION_CONTEXT ( 'NONE', 'WORKASPACE' ) );
#482 = CARTESIAN_POINT ( 'NONE',  ( 3.000000000000002665, 0.000000000000000000, 2.750000000000000000 ) ) ;
#483 = CARTESIAN_POINT ( 'NONE',  ( 3.099999999999998757, 0.000000000000000000, 0.000000000000000000 ) ) ;
#484 = VERTEX_POINT ( 'NONE', #149 ) ;
#485 = ADVANCED_FACE ( 'NONE', ( #13, #106 ), #258, .T. ) ;
#486 = LINE ( 'NONE', #115, #472 ) ;
#487 = EDGE_LOOP ( 'NONE', ( #433 ) ) ;
#488 = CARTESIAN_POINT ( 'NONE',  ( 1.300000000000000044, 0.000000000000000000, 0.000000000000000000 ) ) ;
#489 = ORIENTED_EDGE ( 'NONE', *, *, #336, .F. ) ;
#490 = CIRCLE ( 'NONE', #20, 1.500000000000000444 ) ;
#491 = DIRECTION ( 'NONE',  ( -1.000000000000000000, -0.000000000000000000, -0.000000000000000000 ) ) ;
#492 = ORIENTED_EDGE ( 'NONE', *, *, #336, .T. ) ;
#493 = VECTOR ( 'NONE', #135, 1000.000000000000000 ) ;
#494 = EDGE_CURVE ( 'NONE', #195, #288, #143, .T. ) ;
#495 = FACE_OUTER_BOUND ( 'NONE', #66, .T. ) ;
#496 = EDGE_LOOP ( 'NONE', ( #539 ) ) ;
#497 = PLANE ( 'NONE',  #5 ) ;
#498 = EDGE_CURVE ( 'NONE', #288, #120, #396, .T. ) ;
#499 = PLANE ( 'NONE',  #368 ) ;
#500 = PLANE ( 'NONE',  #210 ) ;
#501 = CARTESIAN_POINT ( 'NONE',  ( 1.300000000000000044, -0.7390083445627197989, 1.280000000000001137 ) ) ;
#502 = AXIS2_PLACEMENT_3D ( 'NONE', #154, #184, #319 ) ;
#503 = CARTESIAN_POINT ( 'NONE',  ( 1.300000000000000044, 0.7390083445627193548, -1.280000000000000693 ) ) ;
#504 = SURFACE_STYLE_USAGE ( .BOTH. , #44 ) ;
#505 = VECTOR ( 'NONE', #87, 1000.000000000000227 ) ;
#506 = EDGE_CURVE ( 'NONE', #249, #195, #68, .T. ) ;
#507 = DIRECTION ( 'NONE',  ( -0.000000000000000000, 0.8660254037844391517, 0.4999999999999990563 ) ) ;
#508 =( NAMED_UNIT ( * ) PLANE_ANGLE_UNIT ( ) SI_UNIT ( $, .RADIAN. ) );
#509 = CARTESIAN_POINT ( 'NONE',  ( 1.300000000000000044, 1.478016689125442484, -1.734723475976807094E-15 ) ) ;
#510 = ORIENTED_EDGE ( 'NONE', *, *, #241, .T. ) ;
#511 = DIRECTION ( 'NONE',  ( 0.000000000000000000, 0.000000000000000000, 1.000000000000000000 ) ) ;
#512 = DIRECTION ( 'NONE',  ( 0.000000000000000000, 0.5000000000000013323, 0.8660254037844378194 ) ) ;
#513 = ORIENTED_EDGE ( 'NONE', *, *, #214, .F. ) ;
#514 = CARTESIAN_POINT ( 'NONE',  ( 3.000000000000000000, 2.750000000000000000, 0.000000000000000000 ) ) ;
#515 = CARTESIAN_POINT ( 'NONE',  ( 1.300000000000000044, -0.7390083445627197989, 1.280000000000001137 ) ) ;
#516 = VECTOR ( 'NONE', #390, 1000.000000000000114 ) ;
#517 = ORIENTED_EDGE ( 'NONE', *, *, #307, .T. ) ;
#518 = AXIS2_PLACEMENT_3D ( 'NONE', #11, #175, #511 ) ;
#519 = EDGE_CURVE ( 'NONE', #30, #480, #420, .T. ) ;
#520 = CARTESIAN_POINT ( 'NONE',  ( 0.1499999999999973577, 0.000000000000000000, 0.000000000000000000 ) ) ;
#521 = EDGE_LOOP ( 'NONE', ( #517, #158, #451, #358, #325 ) ) ;
#522 =( NAMED_UNIT ( * ) SI_UNIT ( $, .STERADIAN. ) SOLID_ANGLE_UNIT ( ) );
#523 = AXIS2_PLACEMENT_3D ( 'NONE', #342, #507, #267 ) ;
#524 = LINE ( 'NONE', #244, #423 ) ;
#525 = ORIENTED_EDGE ( 'NONE', *, *, #300, .F. ) ;
#526 = CARTESIAN_POINT ( 'NONE',  ( 13.00000000000000178, 1.219500000000000028, 0.000000000000000000 ) ) ;
#527 = EDGE_CURVE ( 'NONE', #529, #529, #164, .T. ) ;
#528 = ORIENTED_EDGE ( 'NONE', *, *, #150, .F. ) ;
#529 = VERTEX_POINT ( 'NONE', #387 ) ;
#530 = CIRCLE ( 'NONE', #266, 1.219500000000000028 ) ;
#531 = CARTESIAN_POINT ( 'NONE',  ( 1.300000000000000044, -0.7390083445627197989, 1.280000000000001137 ) ) ;
#532 = ORIENTED_EDGE ( 'NONE', *, *, #543, .T. ) ;
#533 = APPLICATION_PROTOCOL_DEFINITION ( 'draft international standard', 'automotive_design', 1998, #50 ) ;
#534 = CIRCLE ( 'NONE', #2, 2.750000000000000000 ) ;
#535 = VECTOR ( 'NONE', #464, 1000.000000000000000 ) ;
#536 = DIRECTION ( 'NONE',  ( 0.000000000000000000, 0.000000000000000000, -1.000000000000000000 ) ) ;
#537 = ORIENTED_EDGE ( 'NONE', *, *, #527, .T. ) ;
#538 = CARTESIAN_POINT ( 'NONE',  ( 3.000000000000002665, 0.000000000000000000, 0.000000000000000000 ) ) ;
#539 = ORIENTED_EDGE ( 'NONE', *, *, #317, .F. ) ;
#540 = DIRECTION ( 'NONE',  ( 1.000000000000000000, 0.000000000000000000, 0.000000000000000000 ) ) ;
#541 = LINE ( 'NONE', #295, #226 ) ;
#542 = CARTESIAN_POINT ( 'NONE',  ( 1.300000000000000044, 1.478016689125442484, -1.734723475976807094E-15 ) ) ;
#543 = EDGE_CURVE ( 'NONE', #169, #30, #315, .T. ) ;
ENDSEC;
END-ISO-10303-21;
