ISO-10303-21;
HEADER;
FILE_DESCRIPTION (( 'STEP AP214' ),
    '1' );
FILE_NAME ('ISO - 4035 - M4 - N.STEP',
    '2025-07-29T15:59:08',
    ( '' ),
    ( '' ),
    'SwSTEP 2.0',
    'SolidWorks 2025',
    '' );
FILE_SCHEMA (( 'AUTOMOTIVE_DESIGN' ));
ENDSEC;

DATA;
#1 = CARTESIAN_POINT ( 'NONE',  ( 0.000000000000000000, 0.000000000000000000, -2.200000000000000178 ) ) ;
#2 = VERTEX_POINT ( 'NONE', #292 ) ;
#3 = CARTESIAN_POINT ( 'NONE',  ( 3.499999999999999556, -1.692071238847142389, -0.2177329504545063299 ) ) ;
#4 = CARTESIAN_POINT ( 'NONE',  ( 0.000000000000000000, 0.000000000000000000, -2.200000000000000178 ) ) ;
#5 = AXIS2_PLACEMENT_3D ( 'NONE', #59, #390, #592 ) ;
#6 = ORIENTED_EDGE ( 'NONE', *, *, #695, .F. ) ;
#7 = CARTESIAN_POINT ( 'NONE',  ( 3.500000000000000444, 0.000000000000000000, 0.000000000000000000 ) ) ;
#8 = CARTESIAN_POINT ( 'NONE',  ( -3.500000000000000000, -2.020725942163692501, -1.887392608830355201 ) ) ;
#9 = DIRECTION ( 'NONE',  ( 0.5000000000000006661, 0.8660254037844382635, -0.000000000000000000 ) ) ;
#10 = CARTESIAN_POINT ( 'NONE',  ( 0.000000000000000000, 0.000000000000000000, -2.200000000000000622 ) ) ;
#11 = EDGE_CURVE ( 'NONE', #154, #162, #561, .T. ) ;
#12 = CARTESIAN_POINT ( 'NONE',  ( 3.500000000000000000, 2.020725942163692501, -0.3126073911696449770 ) ) ;
#13 = CARTESIAN_POINT ( 'NONE',  ( 0.2855619784720656029, -3.876582599186216171, -1.982579934988240478 ) ) ;
#14 = CARTESIAN_POINT ( 'NONE',  ( -3.500000000000000000, -2.020725942163692501, -0.3126073911696449770 ) ) ;
#15 = CIRCLE ( 'NONE', #687, 3.500000000000000000 ) ;
#16 = DIRECTION ( 'NONE',  ( 1.000000000000000000, 0.000000000000000000, 0.000000000000000000 ) ) ;
#17 = CARTESIAN_POINT ( 'NONE',  ( 3.214438021527930900, 2.185595227304859556, -0.2174200650117552314 ) ) ;
#18 = EDGE_CURVE ( 'NONE', #212, #309, #447, .T. ) ;
#19 = CARTESIAN_POINT ( 'NONE',  ( 0.000000000000000000, 0.000000000000000000, -2.200000000000000178 ) ) ;
#20 = CARTESIAN_POINT ( 'NONE',  ( 3.500000000000000444, 0.000000000000000000, -2.200000000000000178 ) ) ;
#21 = AXIS2_PLACEMENT_3D ( 'NONE', #119, #298, #16 ) ;
#22 = ORIENTED_EDGE ( 'NONE', *, *, #658, .F. ) ;
#23 = PRESENTATION_LAYER_ASSIGNMENT (  '', '', ( #670 ) ) ;
#24 = FACE_OUTER_BOUND ( 'NONE', #300, .T. ) ;
#25 = CARTESIAN_POINT ( 'NONE',  ( -3.500000000000000000, -2.020725942163692501, -1.887392608830355201 ) ) ;
#26 = CARTESIAN_POINT ( 'NONE',  ( 3.500000000000000000, 2.020725942163688504, -2.200000000000000178 ) ) ;
#27 = AXIS2_PLACEMENT_3D ( 'NONE', #351, #241, #666 ) ;
#28 = CARTESIAN_POINT ( 'NONE',  ( 1.750000000000002442, 3.031088913245534311, -2.200000000000000178 ) ) ;
#29 = ORIENTED_EDGE ( 'NONE', *, *, #520, .F. ) ;
#30 = DIRECTION ( 'NONE',  ( 0.000000000000000000, -0.000000000000000000, 1.000000000000000000 ) ) ;
#31 = EDGE_CURVE ( 'NONE', #40, #207, #385, .T. ) ;
#32 = DIRECTION ( 'NONE',  ( -0.000000000000000000, -0.000000000000000000, 1.000000000000000000 ) ) ;
#33 = EDGE_LOOP ( 'NONE', ( #118, #36, #459, #370, #236, #6 ) ) ;
#34 = CARTESIAN_POINT ( 'NONE',  ( -2.346298152288371242, 2.686816014504567196, -2.200000000000002398 ) ) ;
#35 = VECTOR ( 'NONE', #280, 1000.000000000000000 ) ;
#36 = ORIENTED_EDGE ( 'NONE', *, *, #45, .F. ) ;
#37 = B_SPLINE_CURVE_WITH_KNOTS ( 'NONE', 3,
 ( #56, #601, #393, #329, #538, #604 ),
 .UNSPECIFIED., .F., .F.,
 ( 4, 2, 4 ),
 ( 0.002044882221487526273, 0.003063384235218491979, 0.004081886248949458118 ),
 .UNSPECIFIED. ) ;
#38 = CARTESIAN_POINT ( 'NONE',  ( -0.2855619784720676013, 3.876582599186210842, -0.2174200650117564526 ) ) ;
#39 = SURFACE_SIDE_STYLE ('',( #620 ) ) ;
#40 = VERTEX_POINT ( 'NONE', #113 ) ;
#41 = EDGE_CURVE ( 'NONE', #703, #703, #165, .T. ) ;
#42 = DIRECTION ( 'NONE',  ( -0.000000000000000000, -0.000000000000000000, 1.000000000000000000 ) ) ;
#43 = ORIENTED_EDGE ( 'NONE', *, *, #303, .T. ) ;
#44 = CARTESIAN_POINT ( 'NONE',  ( 0.000000000000000000, 0.000000000000000000, -2.174599999999998978 ) ) ;
#45 = EDGE_CURVE ( 'NONE', #578, #95, #272, .T. ) ;
#46 = B_SPLINE_CURVE_WITH_KNOTS ( 'NONE', 3,
 ( #449, #656, #442, #334 ),
 .UNSPECIFIED., .F., .F.,
 ( 4, 4 ),
 ( 2.380739282167226920E-07, 0.002044882221487526273 ),
 .UNSPECIFIED. ) ;
#47 = UNCERTAINTY_MEASURE_WITH_UNIT (LENGTH_MEASURE( 1.000000000000000082E-05 ), #381, 'distance_accuracy_value', 'NONE');
#48 = AXIS2_PLACEMENT_3D ( 'NONE', #614, #607, #552 ) ;
#49 = ORIENTED_EDGE ( 'NONE', *, *, #31, .F. ) ;
#50 = CARTESIAN_POINT ( 'NONE',  ( 0.000000000000000000, 0.000000000000000000, -25.03750572909317285 ) ) ;
#51 = EDGE_CURVE ( 'NONE', #251, #93, #517, .T. ) ;
#52 = EDGE_LOOP ( 'NONE', ( #167, #582, #247 ) ) ;
#53 = DIRECTION ( 'NONE',  ( 0.000000000000000000, 0.000000000000000000, 1.000000000000000000 ) ) ;
#54 = CARTESIAN_POINT ( 'NONE',  ( -3.500000000000000000, 2.020725942163689393, -0.3126073911696439778 ) ) ;
#55 = ORIENTED_EDGE ( 'NONE', *, *, #120, .F. ) ;
#56 = CARTESIAN_POINT ( 'NONE',  ( -1.750000000000001776, 3.031088913245534755, -2.200000000000000178 ) ) ;
#57 = CARTESIAN_POINT ( 'NONE',  ( 3.500000000000000000, 2.020725942163692501, -1.887392608830355201 ) ) ;
#58 = ORIENTED_EDGE ( 'NONE', *, *, #392, .F. ) ;
#59 = CARTESIAN_POINT ( 'NONE',  ( 0.000000000000000000, 0.000000000000000000, -1.929527361626599768 ) ) ;
#60 = ORIENTED_EDGE ( 'NONE', *, *, #648, .F. ) ;
#61 = CARTESIAN_POINT ( 'NONE',  ( -6.938893903907228378E-15, -4.041451884327381450, -0.3126073911696449770 ) ) ;
#62 = EDGE_CURVE ( 'NONE', #441, #441, #404, .T. ) ;
#63 = CYLINDRICAL_SURFACE ( 'NONE', #71, 1.650000000000000133 ) ;
#64 = CARTESIAN_POINT ( 'NONE',  ( -1.750000000000001998, -3.031088913245534755, 0.000000000000000000 ) ) ;
#65 = CARTESIAN_POINT ( 'NONE',  ( 3.499999999999999556, -2.020725942163694722, -0.3126073911696449770 ) ) ;
#66 = DIRECTION ( 'NONE',  ( 0.000000000000000000, 0.000000000000000000, -1.000000000000000000 ) ) ;
#67 = ORIENTED_EDGE ( 'NONE', *, *, #223, .T. ) ;
#68 = CARTESIAN_POINT ( 'NONE',  ( -0.5725525826504703764, -3.710888496608920395, -0.1217565302851120884 ) ) ;
#69 = ADVANCED_FACE ( 'NONE', ( #166 ), #634, .T. ) ;
#70 = CARTESIAN_POINT ( 'NONE',  ( -1.750000000000001998, -3.031088913245534755, -2.200000000000000178 ) ) ;
#71 = AXIS2_PLACEMENT_3D ( 'NONE', #439, #112, #278 ) ;
#72 = DIRECTION ( 'NONE',  ( -0.000000000000000000, -0.000000000000000000, 1.000000000000000000 ) ) ;
#73 = CARTESIAN_POINT ( 'NONE',  ( 3.500000000000000000, 2.020725942163692501, -0.3126073911696449770 ) ) ;
#74 = DIRECTION ( 'NONE',  ( -0.5000000000000006661, -0.8660254037844383745, 0.000000000000000000 ) ) ;
#75 = DIRECTION ( 'NONE',  ( -1.000000000000000000, 0.000000000000000000, 0.000000000000000000 ) ) ;
#76 = ADVANCED_FACE ( 'NONE', ( #177, #667 ), #448, .T. ) ;
#77 = CARTESIAN_POINT ( 'NONE',  ( 0.000000000000000000, 0.000000000000000000, -2.200000000000000178 ) ) ;
#78 = FILL_AREA_STYLE ('',( #416 ) ) ;
#79 = ORIENTED_EDGE ( 'NONE', *, *, #150, .F. ) ;
#80 = AXIS2_PLACEMENT_3D ( 'NONE', #616, #612, #132 ) ;
#81 = CARTESIAN_POINT ( 'NONE',  ( -1.750000000000001998, -3.031088913245534755, 0.000000000000000000 ) ) ;
#82 = DIRECTION ( 'NONE',  ( -1.000000000000000000, 0.000000000000000000, 0.000000000000000000 ) ) ;
#83 = ORIENTED_EDGE ( 'NONE', *, *, #493, .T. ) ;
#84 = CARTESIAN_POINT ( 'NONE',  ( 0.000000000000000000, 0.000000000000000000, -2.200000000000000178 ) ) ;
#85 = CARTESIAN_POINT ( 'NONE',  ( 3.500000000000000000, -1.692071238847142389, -1.982267049545493709 ) ) ;
#86 = ORIENTED_EDGE ( 'NONE', *, *, #443, .T. ) ;
#87 = CARTESIAN_POINT ( 'NONE',  ( -0.5735064479039784224, 3.710337782248032568, -0.1388410611046097531 ) ) ;
#88 = AXIS2_PLACEMENT_3D ( 'NONE', #631, #476, #82 ) ;
#89 = ADVANCED_FACE ( 'NONE', ( #558 ), #235, .T. ) ;
#90 = ORIENTED_EDGE ( 'NONE', *, *, #172, .F. ) ;
#91 = FACE_OUTER_BOUND ( 'NONE', #217, .T. ) ;
#92 = AXIS2_PLACEMENT_3D ( 'NONE', #10, #652, #490 ) ;
#93 = VERTEX_POINT ( 'NONE', #73 ) ;
#94 = DIRECTION ( 'NONE',  ( -1.000000000000000000, 0.000000000000000000, 0.000000000000000000 ) ) ;
#95 = VERTEX_POINT ( 'NONE', #509 ) ;
#96 = DIRECTION ( 'NONE',  ( 0.000000000000000000, 0.000000000000000000, 1.000000000000000000 ) ) ;
#97 = AXIS2_PLACEMENT_3D ( 'NONE', #138, #470, #151 ) ;
#98 = EDGE_CURVE ( 'NONE', #663, #356, #190, .T. ) ;
#99 = ORIENTED_EDGE ( 'NONE', *, *, #270, .F. ) ;
#100 = CARTESIAN_POINT ( 'NONE',  ( 3.500000000000000444, 0.000000000000000000, -2.200000000000000178 ) ) ;
#101 = DIRECTION ( 'NONE',  ( 0.000000000000000000, -0.000000000000000000, 1.000000000000000000 ) ) ;
#102 = ORIENTED_EDGE ( 'NONE', *, *, #246, .T. ) ;
#103 = DIRECTION ( 'NONE',  ( 0.000000000000000000, -0.000000000000000000, 1.000000000000000000 ) ) ;
#104 = B_SPLINE_CURVE_WITH_KNOTS ( 'NONE', 3,
 ( #64, #171, #341, #557, #400, #14 ),
 .UNSPECIFIED., .F., .F.,
 ( 4, 2, 4 ),
 ( 0.002044882221487532778, 0.003063384235218495448, 0.004081886248949458118 ),
 .UNSPECIFIED. ) ;
#105 = ORIENTED_EDGE ( 'NONE', *, *, #172, .T. ) ;
#106 = VERTEX_POINT ( 'NONE', #386 ) ;
#107 = CARTESIAN_POINT ( 'NONE',  ( 1.750000000000002442, 3.031088913245534311, 0.000000000000000000 ) ) ;
#108 = CONICAL_SURFACE ( 'NONE', #21, 3.500000000000000444, 1.047197551196596077 ) ;
#109 = VERTEX_POINT ( 'NONE', #8 ) ;
#110 = ADVANCED_FACE ( 'NONE', ( #220 ), #248, .T. ) ;
#111 = CARTESIAN_POINT ( 'NONE',  ( 1.650000000000000133, 0.000000000000000000, -0.2450726383733988212 ) ) ;
#112 = DIRECTION ( 'NONE',  ( 0.000000000000000000, 0.000000000000000000, 1.000000000000000000 ) ) ;
#113 = CARTESIAN_POINT ( 'NONE',  ( -6.938893903907228378E-15, -4.041451884327381450, -1.887392608830355201 ) ) ;
#114 = DIRECTION ( 'NONE',  ( -1.000000000000000000, 0.000000000000000000, 0.000000000000000000 ) ) ;
#115 = DIRECTION ( 'NONE',  ( 0.000000000000000000, 0.000000000000000000, 1.000000000000000000 ) ) ;
#116 = AXIS2_PLACEMENT_3D ( 'NONE', #155, #611, #460 ) ;
#117 = CARTESIAN_POINT ( 'NONE',  ( 0.000000000000000000, 0.000000000000000000, 0.000000000000000000 ) ) ;
#118 = ORIENTED_EDGE ( 'NONE', *, *, #357, .F. ) ;
#119 = CARTESIAN_POINT ( 'NONE',  ( 0.000000000000000000, 0.000000000000000000, -2.200000000000000178 ) ) ;
#120 = EDGE_CURVE ( 'NONE', #578, #2, #104, .T. ) ;
#121 = CARTESIAN_POINT ( 'NONE',  ( 0.5725525826504662685, 3.710888496608919507, -2.078243469714888825 ) ) ;
#122 = AXIS2_PLACEMENT_3D ( 'NONE', #117, #289, #451 ) ;
#123 = DIRECTION ( 'NONE',  ( 0.000000000000000000, 0.000000000000000000, 1.000000000000000000 ) ) ;
#124 = CARTESIAN_POINT ( 'NONE',  ( 0.000000000000000000, 0.000000000000000000, 0.000000000000000000 ) ) ;
#125 = CARTESIAN_POINT ( 'NONE',  ( -3.500000000000000444, 0.6879904500768329045, -2.169836757075880307 ) ) ;
#126 = AXIS2_PLACEMENT_3D ( 'NONE', #424, #307, #633 ) ;
#127 = CARTESIAN_POINT ( 'NONE',  ( -1.153701847711634532, -3.375361811986504534, -2.200000000000000622 ) ) ;
#128 = CARTESIAN_POINT ( 'NONE',  ( -3.499999999999999556, 1.362959798491815366, -2.060265505016216636 ) ) ;
#129 = ORIENTED_EDGE ( 'NONE', *, *, #130, .F. ) ;
#130 = EDGE_CURVE ( 'NONE', #456, #528, #677, .T. ) ;
#131 = AXIS2_PLACEMENT_3D ( 'NONE', #391, #458, #455 ) ;
#132 = DIRECTION ( 'NONE',  ( 0.8660254037844384856, 0.5000000000000002220, 0.000000000000000000 ) ) ;
#133 = ORIENTED_EDGE ( 'NONE', *, *, #349, .T. ) ;
#134 = AXIS2_PLACEMENT_3D ( 'NONE', #295, #32, #513 ) ;
#135 = CARTESIAN_POINT ( 'NONE',  ( 1.750000000000000888, -3.031088913245535643, -2.200000000000000178 ) ) ;
#136 = CARTESIAN_POINT ( 'NONE',  ( -3.499999999999999556, -0.6807265984995610753, -2.170648692803532676 ) ) ;
#137 = ORIENTED_EDGE ( 'NONE', *, *, #671, .F. ) ;
#138 = CARTESIAN_POINT ( 'NONE',  ( 0.000000000000000000, 0.000000000000000000, 0.000000000000000000 ) ) ;
#139 = ADVANCED_FACE ( 'NONE', ( #226 ), #310, .T. ) ;
#140 = PLANE ( 'NONE',  #613 ) ;
#141 = VECTOR ( 'NONE', #96, 1000.000000000000000 ) ;
#142 = ORIENTED_EDGE ( 'NONE', *, *, #520, .T. ) ;
#143 = B_SPLINE_CURVE_WITH_KNOTS ( 'NONE', 3,
 ( #461, #68, #287, #81 ),
 .UNSPECIFIED., .F., .F.,
 ( 4, 4 ),
 ( 2.380739282244200775E-07, 0.002044882221487532778 ),
 .UNSPECIFIED. ) ;
#144 = FACE_BOUND ( 'NONE', #559, .T. ) ;
#145 = CARTESIAN_POINT ( 'NONE',  ( 3.499999999999999556, -2.020725942163696054, -1.887392608830355201 ) ) ;
#146 = ORIENTED_EDGE ( 'NONE', *, *, #246, .F. ) ;
#147 = DIRECTION ( 'NONE',  ( -1.000000000000000000, 0.000000000000000000, 0.000000000000000000 ) ) ;
#148 = VECTOR ( 'NONE', #664, 1000.000000000000000 ) ;
#149 = VERTEX_POINT ( 'NONE', #242 ) ;
#150 = EDGE_CURVE ( 'NONE', #528, #356, #367, .T. ) ;
#151 = DIRECTION ( 'NONE',  ( -1.000000000000000000, 0.000000000000000000, 0.000000000000000000 ) ) ;
#152 = ORIENTED_EDGE ( 'NONE', *, *, #11, .T. ) ;
#153 = CARTESIAN_POINT ( 'NONE',  ( 0.000000000000000000, 0.000000000000000000, 0.000000000000000000 ) ) ;
#154 = VERTEX_POINT ( 'NONE', #635 ) ;
#155 = CARTESIAN_POINT ( 'NONE',  ( 0.000000000000000000, 0.000000000000000000, 0.000000000000000000 ) ) ;
#156 = AXIS2_PLACEMENT_3D ( 'NONE', #521, #355, #75 ) ;
#157 = EDGE_LOOP ( 'NONE', ( #510 ) ) ;
#158 = VERTEX_POINT ( 'NONE', #208 ) ;
#159 = CIRCLE ( 'NONE', #266, 3.500000000000000000 ) ;
#160 = DIRECTION ( 'NONE',  ( -0.000000000000000000, 0.000000000000000000, -1.000000000000000000 ) ) ;
#161 = ADVANCED_FACE ( 'NONE', ( #577 ), #140, .T. ) ;
#162 = VERTEX_POINT ( 'NONE', #683 ) ;
#163 = CARTESIAN_POINT ( 'NONE',  ( 0.2855619784720656029, -3.876582599186216171, -0.2174200650117595890 ) ) ;
#164 = CARTESIAN_POINT ( 'NONE',  ( 3.500000000000000000, 0.3416723310689521731, 2.325105440213053445E-16 ) ) ;
#165 = CIRCLE ( 'NONE', #547, 2.000000000000000000 ) ;
#166 = FACE_OUTER_BOUND ( 'NONE', #384, .T. ) ;
#167 = ORIENTED_EDGE ( 'NONE', *, *, #223, .F. ) ;
#168 = CARTESIAN_POINT ( 'NONE',  ( 0.5735064479039765351, -3.710337782248037897, -0.1388410611046121956 ) ) ;
#169 = B_SPLINE_CURVE_WITH_KNOTS ( 'NONE', 3,
 ( #675, #184, #412, #548, #219, #331 ),
 .UNSPECIFIED., .F., .F.,
 ( 4, 2, 4 ),
 ( 0.005649496001316446463, 0.006672230966438295191, 0.007694965931560143052 ),
 .UNSPECIFIED. ) ;
#170 = CARTESIAN_POINT ( 'NONE',  ( -6.938893903907228378E-15, -4.041451884327381450, -1.887392608830355201 ) ) ;
#171 = CARTESIAN_POINT ( 'NONE',  ( -2.047034997319574501, -2.859595677584342077, 5.221958119822759618E-16 ) ) ;
#172 = EDGE_CURVE ( 'NONE', #154, #663, #232, .T. ) ;
#173 = FACE_OUTER_BOUND ( 'NONE', #360, .T. ) ;
#174 = MANIFOLD_SOLID_BREP ( 'EndChamfer', #345 ) ;
#175 = CARTESIAN_POINT ( 'NONE',  ( 0.000000000000000000, 0.000000000000000000, -0.2450726383733988212 ) ) ;
#176 = FACE_OUTER_BOUND ( 'NONE', #621, .T. ) ;
#177 = FACE_BOUND ( 'NONE', #319, .T. ) ;
#178 = COLOUR_RGB ( '',0.7921568627450980005, 0.8196078431372548767, 0.9333333333333333481 ) ;
#179 = DIRECTION ( 'NONE',  ( -1.000000000000000000, 0.000000000000000000, 0.000000000000000000 ) ) ;
#180 = CARTESIAN_POINT ( 'NONE',  ( 3.499999999999999556, 1.362959798491815810, -2.060265505016216636 ) ) ;
#181 = AXIS2_PLACEMENT_3D ( 'NONE', #305, #250, #365 ) ;
#182 = PLANE ( 'NONE',  #639 ) ;
#183 = ADVANCED_FACE ( 'NONE', ( #379 ), #462, .T. ) ;
#184 = CARTESIAN_POINT ( 'NONE',  ( -3.500000000000000000, 0.3416723310689514514, 2.439454888092383990E-16 ) ) ;
#185 = ORIENTED_EDGE ( 'NONE', *, *, #51, .T. ) ;
#186 = B_SPLINE_CURVE_WITH_KNOTS ( 'NONE', 3,
 ( #291, #519, #344, #231, #504, #228 ),
 .UNSPECIFIED., .F., .F.,
 ( 4, 2, 4 ),
 ( 0.003605240635278488242, 0.004627368318297467135, 0.005649496001316446463 ),
 .UNSPECIFIED. ) ;
#187 = CARTESIAN_POINT ( 'NONE',  ( -3.500000000000000000, 2.020725942163689393, -2.200000000000000178 ) ) ;
#188 = ORIENTED_EDGE ( 'NONE', *, *, #98, .F. ) ;
#189 = DIRECTION ( 'NONE',  ( -0.000000000000000000, -0.000000000000000000, 1.000000000000000000 ) ) ;
#190 = B_SPLINE_CURVE_WITH_KNOTS ( 'NONE', 3,
 ( #20, #501, #276, #180, #603, #495 ),
 .UNSPECIFIED., .F., .F.,
 ( 4, 2, 4 ),
 ( 0.005649496001316449065, 0.006672230966438298660, 0.007694965931560148256 ),
 .UNSPECIFIED. ) ;
#191 = ORIENTED_EDGE ( 'NONE', *, *, #556, .F. ) ;
#192 = EDGE_CURVE ( 'NONE', #309, #578, #288, .T. ) ;
#193 = DIRECTION ( 'NONE',  ( 1.000000000000000000, 0.000000000000000000, 0.000000000000000000 ) ) ;
#194 = ADVANCED_BREP_SHAPE_REPRESENTATION ( 'ISO - 4035 - M4 - N_ISO - 4035 - M4 - N', ( #174, #116 ), #339 ) ;
#195 = CARTESIAN_POINT ( 'NONE',  ( 2.047034997319573169, 2.859595677584339413, -2.200000000000001510 ) ) ;
#196 = ORIENTED_EDGE ( 'NONE', *, *, #679, .F. ) ;
#197 = DIRECTION ( 'NONE',  ( 0.000000000000000000, 0.000000000000000000, 1.000000000000000000 ) ) ;
#198 = PRESENTATION_STYLE_ASSIGNMENT (( #691 ) ) ;
#199 = EDGE_LOOP ( 'NONE', ( #684 ) ) ;
#200 = AXIS2_PLACEMENT_3D ( 'NONE', #347, #72, #571 ) ;
#201 = CARTESIAN_POINT ( 'NONE',  ( 0.000000000000000000, 0.000000000000000000, -2.200000000000000178 ) ) ;
#202 = EDGE_CURVE ( 'NONE', #212, #251, #348, .T. ) ;
#203 = ORIENTED_EDGE ( 'NONE', *, *, #238, .T. ) ;
#204 = CARTESIAN_POINT ( 'NONE',  ( -8.673617379884035472E-16, 4.041451884327381450, 0.000000000000000000 ) ) ;
#205 = AXIS2_PLACEMENT_3D ( 'NONE', #649, #160, #301 ) ;
#206 = ORIENTED_EDGE ( 'NONE', *, *, #644, .F. ) ;
#207 = VERTEX_POINT ( 'NONE', #245 ) ;
#208 = CARTESIAN_POINT ( 'NONE',  ( -1.650000000000000133, 0.000000000000000000, -1.929527361626599768 ) ) ;
#209 = DIRECTION ( 'NONE',  ( -1.000000000000000000, 0.000000000000000000, 0.000000000000000000 ) ) ;
#210 = AXIS2_PLACEMENT_3D ( 'NONE', #444, #659, #662 ) ;
#211 = PRODUCT_DEFINITION_SHAPE ( 'NONE', 'NONE',  #374 ) ;
#212 = VERTEX_POINT ( 'NONE', #468 ) ;
#213 = CARTESIAN_POINT ( 'NONE',  ( 3.499999999999999556, -2.020725942163696054, -1.887392608830355201 ) ) ;
#214 = EDGE_CURVE ( 'NONE', #109, #680, #637, .T. ) ;
#215 = CARTESIAN_POINT ( 'NONE',  ( 3.500000000000000000, 1.693985822988429479, -0.2182856432891999154 ) ) ;
#216 = CIRCLE ( 'NONE', #5, 1.650000000000000133 ) ;
#217 = EDGE_LOOP ( 'NONE', ( #333 ) ) ;
#218 = FACE_OUTER_BOUND ( 'NONE', #696, .T. ) ;
#219 = CARTESIAN_POINT ( 'NONE',  ( -3.500000000000000000, 1.693985822988426815, -0.2182856432891991383 ) ) ;
#220 = FACE_OUTER_BOUND ( 'NONE', #330, .T. ) ;
#221 = CARTESIAN_POINT ( 'NONE',  ( -2.000000000000000000, 0.000000000000000000, -2.200000000000000622 ) ) ;
#222 = CARTESIAN_POINT ( 'NONE',  ( 2.927447417349534842, -2.351289329882154888, -0.1217565302851122827 ) ) ;
#223 = EDGE_CURVE ( 'NONE', #95, #243, #169, .T. ) ;
#224 = CARTESIAN_POINT ( 'NONE',  ( -8.673617379884035472E-16, 4.041451884327381450, -2.200000000000000178 ) ) ;
#225 = CARTESIAN_POINT ( 'NONE',  ( 1.327711891679931055E-16, 4.041451884327381450, -2.200000000000000178 ) ) ;
#226 = FACE_OUTER_BOUND ( 'NONE', #430, .T. ) ;
#227 = B_SPLINE_CURVE_WITH_KNOTS ( 'NONE', 3,
 ( #325, #164, #543, #602, #215, #271 ),
 .UNSPECIFIED., .F., .F.,
 ( 4, 2, 4 ),
 ( 0.005649496001316447330, 0.006672230966438296926, 0.007694965931560146521 ),
 .UNSPECIFIED. ) ;
#228 = CARTESIAN_POINT ( 'NONE',  ( -3.500000000000000444, 0.000000000000000000, 0.000000000000000000 ) ) ;
#229 = CARTESIAN_POINT ( 'NONE',  ( -6.938893903907228378E-15, -4.041451884327381450, -1.887392608830355201 ) ) ;
#230 = ORIENTED_EDGE ( 'NONE', *, *, #671, .T. ) ;
#231 = CARTESIAN_POINT ( 'NONE',  ( -3.499999999999999556, -0.6807265984995616304, -0.02935130719646757494 ) ) ;
#232 = B_SPLINE_CURVE_WITH_KNOTS ( 'NONE', 3,
 ( #145, #85, #426, #573, #422, #524 ),
 .UNSPECIFIED., .F., .F.,
 ( 4, 2, 4 ),
 ( 0.003605240635278485206, 0.004627368318297467135, 0.005649496001316449065 ),
 .UNSPECIFIED. ) ;
#233 = AXIS2_PLACEMENT_3D ( 'NONE', #589, #189, #368 ) ;
#234 = CARTESIAN_POINT ( 'NONE',  ( 2.926493552096021578, 2.351840044243036054, -0.1388410611046087262 ) ) ;
#235 = CONICAL_SURFACE ( 'NONE', #283, 3.500000000000000444, 1.047197551196596077 ) ;
#236 = ORIENTED_EDGE ( 'NONE', *, *, #202, .T. ) ;
#237 = CARTESIAN_POINT ( 'NONE',  ( -3.500000000000000000, 0.3416723310689521731, -2.200000000000000622 ) ) ;
#238 = EDGE_CURVE ( 'NONE', #162, #309, #335, .T. ) ;
#239 = CARTESIAN_POINT ( 'NONE',  ( -3.500000000000000000, 0.000000000000000000, -2.200000000000000178 ) ) ;
#240 = ORIENTED_EDGE ( 'NONE', *, *, #425, .F. ) ;
#241 = DIRECTION ( 'NONE',  ( -0.000000000000000000, -0.000000000000000000, 1.000000000000000000 ) ) ;
#242 = CARTESIAN_POINT ( 'NONE',  ( -3.500000000000000000, 2.020725942163692501, -1.887392608830355201 ) ) ;
#243 = VERTEX_POINT ( 'NONE', #54 ) ;
#244 = DIRECTION ( 'NONE',  ( 0.000000000000000000, 0.000000000000000000, 1.000000000000000000 ) ) ;
#245 = CARTESIAN_POINT ( 'NONE',  ( -1.750000000000001998, -3.031088913245534755, -2.200000000000000178 ) ) ;
#246 = EDGE_CURVE ( 'NONE', #149, #243, #551, .T. ) ;
#247 = ORIENTED_EDGE ( 'NONE', *, *, #279, .F. ) ;
#248 = CONICAL_SURFACE ( 'NONE', #210, 3.500000000000000444, 1.047197551196596077 ) ;
#249 = CARTESIAN_POINT ( 'NONE',  ( 1.750000000000002442, 3.031088913245534311, 0.000000000000000000 ) ) ;
#250 = DIRECTION ( 'NONE',  ( 0.000000000000000000, 0.000000000000000000, -1.000000000000000000 ) ) ;
#251 = VERTEX_POINT ( 'NONE', #107 ) ;
#252 = CIRCLE ( 'NONE', #584, 3.500000000000000000 ) ;
#253 = CARTESIAN_POINT ( 'NONE',  ( 1.084202172485504434E-15, 4.041451884327381450, -0.3126073911696449770 ) ) ;
#254 =( NAMED_UNIT ( * ) PLANE_ANGLE_UNIT ( ) SI_UNIT ( $, .RADIAN. ) );
#255 = ORIENTED_EDGE ( 'NONE', *, *, #566, .T. ) ;
#256 = CARTESIAN_POINT ( 'NONE',  ( -1.750000000000001776, 3.031088913245534755, -2.200000000000000178 ) ) ;
#257 = EDGE_LOOP ( 'NONE', ( #545, #83, #67, #146, #240, #406 ) ) ;
#258 = CARTESIAN_POINT ( 'NONE',  ( -1.750000000000001776, 3.031088913245534755, 0.000000000000000000 ) ) ;
#259 = EDGE_CURVE ( 'NONE', #528, #273, #15, .T. ) ;
#260 = AXIS2_PLACEMENT_3D ( 'NONE', #77, #30, #179 ) ;
#261 = ORIENTED_EDGE ( 'NONE', *, *, #11, .F. ) ;
#262 = CARTESIAN_POINT ( 'NONE',  ( -1.750000000000001998, -3.031088913245534755, -2.200000000000000178 ) ) ;
#263 = CIRCLE ( 'NONE', #260, 3.500000000000000000 ) ;
#264 = APPLICATION_CONTEXT ( 'automotive_design' ) ;
#265 = ORIENTED_EDGE ( 'NONE', *, *, #493, .F. ) ;
#266 = AXIS2_PLACEMENT_3D ( 'NONE', #153, #324, #114 ) ;
#267 = CARTESIAN_POINT ( 'NONE',  ( 3.500000000000000444, -1.355464348821702192, -0.1381584212714455362 ) ) ;
#268 = CARTESIAN_POINT ( 'NONE',  ( 1.750000000000000888, -3.031088913245535643, 0.000000000000000000 ) ) ;
#269 = ORIENTED_EDGE ( 'NONE', *, *, #192, .T. ) ;
#270 = EDGE_CURVE ( 'NONE', #158, #158, #216, .T. ) ;
#271 = CARTESIAN_POINT ( 'NONE',  ( 3.500000000000000000, 2.020725942163692501, -0.3126073911696449770 ) ) ;
#272 = CIRCLE ( 'NONE', #48, 3.500000000000000000 ) ;
#273 = VERTEX_POINT ( 'NONE', #606 ) ;
#274 =( NAMED_UNIT ( * ) SI_UNIT ( $, .STERADIAN. ) SOLID_ANGLE_UNIT ( ) );
#275 = AXIS2_PLACEMENT_3D ( 'NONE', #563, #74, #560 ) ;
#276 = CARTESIAN_POINT ( 'NONE',  ( 3.500000000000000444, 0.6879904500768333486, -2.169836757075880307 ) ) ;
#277 = VERTEX_POINT ( 'NONE', #221 ) ;
#278 = DIRECTION ( 'NONE',  ( 1.000000000000000000, 0.000000000000000000, 0.000000000000000000 ) ) ;
#279 = EDGE_CURVE ( 'NONE', #243, #646, #46, .T. ) ;
#280 = DIRECTION ( 'NONE',  ( 0.000000000000000000, 0.000000000000000000, 1.000000000000000000 ) ) ;
#281 = CARTESIAN_POINT ( 'NONE',  ( 2.000000000000000000, 0.000000000000000000, -2.174599999999998978 ) ) ;
#282 = CARTESIAN_POINT ( 'NONE',  ( 1.452965002680430162, -3.202582148906732762, -2.200000000000000622 ) ) ;
#283 = AXIS2_PLACEMENT_3D ( 'NONE', #124, #565, #284 ) ;
#284 = DIRECTION ( 'NONE',  ( -1.000000000000000000, 0.000000000000000000, 0.000000000000000000 ) ) ;
#285 = PRODUCT ( 'ISO - 4035 - M4 - N_ISO - 4035 - M4 - N', 'ISO - 4035 - M4 - N_ISO - 4035 - M4 - N', '', ( #503 ) ) ;
#286 = APPLICATION_PROTOCOL_DEFINITION ( 'draft international standard', 'automotive_design', 1998, #302 ) ;
#287 = CARTESIAN_POINT ( 'NONE',  ( -1.153701847711634532, -3.375361811986504534, 4.959969938058138047E-16 ) ) ;
#288 = CIRCLE ( 'NONE', #156, 3.500000000000000000 ) ;
#289 = DIRECTION ( 'NONE',  ( -0.000000000000000000, 0.000000000000000000, -1.000000000000000000 ) ) ;
#290 = ORIENTED_EDGE ( 'NONE', *, *, #658, .T. ) ;
#291 = CARTESIAN_POINT ( 'NONE',  ( -3.500000000000000000, -2.020725942163692501, -0.3126073911696449770 ) ) ;
#292 = CARTESIAN_POINT ( 'NONE',  ( -3.500000000000000000, -2.020725942163692501, -0.3126073911696449770 ) ) ;
#293 = EDGE_CURVE ( 'NONE', #212, #93, #227, .T. ) ;
#294 = CARTESIAN_POINT ( 'NONE',  ( -3.500000000000000000, 0.000000000000000000, -2.200000000000000178 ) ) ;
#295 = CARTESIAN_POINT ( 'NONE',  ( 0.000000000000000000, 0.000000000000000000, 0.000000000000000000 ) ) ;
#296 =( GEOMETRIC_REPRESENTATION_CONTEXT ( 3 ) GLOBAL_UNCERTAINTY_ASSIGNED_CONTEXT ( ( #564 ) ) GLOBAL_UNIT_ASSIGNED_CONTEXT ( ( #313, #254, #623 ) ) REPRESENTATION_CONTEXT ( 'NONE', 'WORKASPACE' ) );
#297 = ADVANCED_FACE ( 'NONE', ( #555, #173 ), #63, .F. ) ;
#298 = DIRECTION ( 'NONE',  ( -0.000000000000000000, -0.000000000000000000, 1.000000000000000000 ) ) ;
#299 = DIRECTION ( 'NONE',  ( -0.8660254037844383745, -0.5000000000000004441, 0.000000000000000000 ) ) ;
#300 = EDGE_LOOP ( 'NONE', ( #590, #188, #478 ) ) ;
#301 = DIRECTION ( 'NONE',  ( -1.000000000000000000, 0.000000000000000000, 0.000000000000000000 ) ) ;
#302 = APPLICATION_CONTEXT ( 'automotive_design' ) ;
#303 = EDGE_CURVE ( 'NONE', #277, #277, #382, .T. ) ;
#304 = CONICAL_SURFACE ( 'NONE', #126, 1.614999999999999769, 0.9599310885968802554 ) ;
#305 = CARTESIAN_POINT ( 'NONE',  ( 0.000000000000000000, 0.000000000000000000, 0.000000000000000000 ) ) ;
#306 = ORIENTED_EDGE ( 'NONE', *, *, #326, .F. ) ;
#307 = DIRECTION ( 'NONE',  ( -0.000000000000000000, -0.000000000000000000, 1.000000000000000000 ) ) ;
#308 = CARTESIAN_POINT ( 'NONE',  ( 3.500000000000000000, 2.020725942163692501, -1.887392608830355201 ) ) ;
#309 = VERTEX_POINT ( 'NONE', #268 ) ;
#310 = CONICAL_SURFACE ( 'NONE', #88, 3.500000000000000444, 1.047197551196596077 ) ;
#311 = DIRECTION ( 'NONE',  ( 0.000000000000000000, 0.000000000000000000, -1.000000000000000000 ) ) ;
#312 = B_SPLINE_CURVE_WITH_KNOTS ( 'NONE', 3,
 ( #262, #361, #489, #554, #434, #497 ),
 .UNSPECIFIED., .F., .F.,
 ( 4, 2, 4 ),
 ( 0.002044882221487533212, 0.003063384235218495448, 0.004081886248949457251 ),
 .UNSPECIFIED. ) ;
#313 =( LENGTH_UNIT ( ) NAMED_UNIT ( * ) SI_UNIT ( .MILLI., .METRE. ) );
#314 = ORIENTED_EDGE ( 'NONE', *, *, #279, .T. ) ;
#315 = FACE_OUTER_BOUND ( 'NONE', #440, .T. ) ;
#316 = ORIENTED_EDGE ( 'NONE', *, *, #31, .T. ) ;
#317 = EDGE_CURVE ( 'NONE', #643, #40, #699, .T. ) ;
#318 = DIRECTION ( 'NONE',  ( -0.000000000000000000, -0.000000000000000000, 1.000000000000000000 ) ) ;
#319 = EDGE_LOOP ( 'NONE', ( #43 ) ) ;
#320 = B_SPLINE_CURVE_WITH_KNOTS ( 'NONE', 3,
 ( #213, #655, #550, #389 ),
 .UNSPECIFIED., .F., .F.,
 ( 4, 4 ),
 ( 2.380739282186698090E-07, 0.002044882221487526273 ),
 .UNSPECIFIED. ) ;
#321 = FACE_OUTER_BOUND ( 'NONE', #570, .T. ) ;
#322 = EDGE_CURVE ( 'NONE', #643, #663, #252, .T. ) ;
#323 = ORIENTED_EDGE ( 'NONE', *, *, #41, .T. ) ;
#324 = DIRECTION ( 'NONE',  ( -0.000000000000000000, 0.000000000000000000, -1.000000000000000000 ) ) ;
#325 = CARTESIAN_POINT ( 'NONE',  ( 3.500000000000000444, 0.000000000000000000, 0.000000000000000000 ) ) ;
#326 = EDGE_CURVE ( 'NONE', #456, #485, #340, .T. ) ;
#327 = ORIENTED_EDGE ( 'NONE', *, *, #293, .F. ) ;
#328 = B_SPLINE_CURVE_WITH_KNOTS ( 'NONE', 3,
 ( #65, #3, #267, #647, #492, #7 ),
 .UNSPECIFIED., .F., .F.,
 ( 4, 2, 4 ),
 ( 0.003605240635278485206, 0.004627368318297466268, 0.005649496001316447330 ),
 .UNSPECIFIED. ) ;
#329 = CARTESIAN_POINT ( 'NONE',  ( -0.5735064479039784224, 3.710337782248032568, -2.061158938895389259 ) ) ;
#330 = EDGE_LOOP ( 'NONE', ( #373, #337, #692 ) ) ;
#331 = CARTESIAN_POINT ( 'NONE',  ( -3.500000000000000000, 2.020725942163689393, -0.3126073911696439778 ) ) ;
#332 = AXIS2_PLACEMENT_3D ( 'NONE', #19, #467, #512 ) ;
#333 = ORIENTED_EDGE ( 'NONE', *, *, #41, .F. ) ;
#334 = CARTESIAN_POINT ( 'NONE',  ( -1.750000000000001776, 3.031088913245534755, 0.000000000000000000 ) ) ;
#335 = B_SPLINE_CURVE_WITH_KNOTS ( 'NONE', 3,
 ( #494, #222, #383, #595 ),
 .UNSPECIFIED., .F., .F.,
 ( 4, 4 ),
 ( 2.380739282180833975E-07, 0.002044882221487526273 ),
 .UNSPECIFIED. ) ;
#336 = CARTESIAN_POINT ( 'NONE',  ( 0.000000000000000000, 0.000000000000000000, -2.174599999999998978 ) ) ;
#337 = ORIENTED_EDGE ( 'NONE', *, *, #293, .T. ) ;
#338 = CARTESIAN_POINT ( 'NONE',  ( 3.500000000000000000, 2.020725942163688504, -2.200000000000000178 ) ) ;
#339 =( GEOMETRIC_REPRESENTATION_CONTEXT ( 3 ) GLOBAL_UNCERTAINTY_ASSIGNED_CONTEXT ( ( #47 ) ) GLOBAL_UNIT_ASSIGNED_CONTEXT ( ( #381, #542, #274 ) ) REPRESENTATION_CONTEXT ( 'NONE', 'WORKASPACE' ) );
#340 = LINE ( 'NONE', #225, #148 ) ;
#341 = CARTESIAN_POINT ( 'NONE',  ( -2.343682934607766111, -2.688325911136458579, -0.02993401039713796535 ) ) ;
#342 = EDGE_LOOP ( 'NONE', ( #526 ) ) ;
#343 = APPLICATION_PROTOCOL_DEFINITION ( 'draft international standard', 'automotive_design', 1998, #264 ) ;
#344 = CARTESIAN_POINT ( 'NONE',  ( -3.500000000000000444, -1.355464348821700193, -0.1381584212714450643 ) ) ;
#345 = CLOSED_SHELL ( 'NONE', ( #297, #161, #702, #473, #413, #369, #378, #640, #76, #433, #515, #408, #69, #546, #452, #139, #183, #617, #110, #532, #89, #596, #525, #605 ) ) ;
#346 = DIRECTION ( 'NONE',  ( -0.000000000000000000, -0.000000000000000000, 1.000000000000000000 ) ) ;
#347 = CARTESIAN_POINT ( 'NONE',  ( 0.000000000000000000, 0.000000000000000000, 0.000000000000000000 ) ) ;
#348 = CIRCLE ( 'NONE', #134, 3.500000000000000444 ) ;
#349 = EDGE_CURVE ( 'NONE', #207, #643, #438, .T. ) ;
#350 = CARTESIAN_POINT ( 'NONE',  ( -0.5725525826504704874, -3.710888496608920395, -2.078243469714887937 ) ) ;
#351 = CARTESIAN_POINT ( 'NONE',  ( 0.000000000000000000, 0.000000000000000000, -2.200000000000000178 ) ) ;
#352 = DIRECTION ( 'NONE',  ( 1.000000000000000000, 0.000000000000000000, 0.000000000000000000 ) ) ;
#353 = DIRECTION ( 'NONE',  ( -0.000000000000000000, -0.000000000000000000, 1.000000000000000000 ) ) ;
#354 = VECTOR ( 'NONE', #197, 1000.000000000000000 ) ;
#355 = DIRECTION ( 'NONE',  ( -0.000000000000000000, 0.000000000000000000, -1.000000000000000000 ) ) ;
#356 = VERTEX_POINT ( 'NONE', #57 ) ;
#357 = EDGE_CURVE ( 'NONE', #95, #646, #674, .T. ) ;
#358 = FACE_OUTER_BOUND ( 'NONE', #472, .T. ) ;
#359 = CARTESIAN_POINT ( 'NONE',  ( 1.750000000000002442, 3.031088913245534311, -2.200000000000000178 ) ) ;
#360 = EDGE_LOOP ( 'NONE', ( #99 ) ) ;
#361 = CARTESIAN_POINT ( 'NONE',  ( -2.047034997319574945, -2.859595677584343854, -2.200000000000000178 ) ) ;
#362 = CARTESIAN_POINT ( 'NONE',  ( -3.500000000000000000, -0.3414694520252308241, -2.200000000000000622 ) ) ;
#363 = ORIENTED_EDGE ( 'NONE', *, *, #648, .T. ) ;
#364 = FACE_OUTER_BOUND ( 'NONE', #534, .T. ) ;
#365 = DIRECTION ( 'NONE',  ( -1.000000000000000000, 0.000000000000000000, 0.000000000000000000 ) ) ;
#366 = ORIENTED_EDGE ( 'NONE', *, *, #685, .F. ) ;
#367 = B_SPLINE_CURVE_WITH_KNOTS ( 'NONE', 3,
 ( #28, #195, #516, #463, #569, #308 ),
 .UNSPECIFIED., .F., .F.,
 ( 4, 2, 4 ),
 ( 0.002044882221487531477, 0.003063384235218493713, 0.004081886248949455516 ),
 .UNSPECIFIED. ) ;
#368 = DIRECTION ( 'NONE',  ( 1.000000000000000000, 0.000000000000000000, 0.000000000000000000 ) ) ;
#369 = ADVANCED_FACE ( 'NONE', ( #454 ), #411, .T. ) ;
#370 = ORIENTED_EDGE ( 'NONE', *, *, #18, .F. ) ;
#371 = CIRCLE ( 'NONE', #27, 3.500000000000000444 ) ;
#372 = DIRECTION ( 'NONE',  ( 1.000000000000000000, 0.000000000000000000, 0.000000000000000000 ) ) ;
#373 = ORIENTED_EDGE ( 'NONE', *, *, #202, .F. ) ;
#374 = PRODUCT_DEFINITION ( 'General', '', #681, #587 ) ;
#375 = CARTESIAN_POINT ( 'NONE',  ( 1.084202172485504434E-15, 4.041451884327381450, -0.3126073911696449770 ) ) ;
#376 = ORIENTED_EDGE ( 'NONE', *, *, #443, .F. ) ;
#377 = CARTESIAN_POINT ( 'NONE',  ( -1.750000000000001776, 3.031088913245534755, 0.000000000000000000 ) ) ;
#378 = ADVANCED_FACE ( 'NONE', ( #464 ), #182, .T. ) ;
#379 = FACE_OUTER_BOUND ( 'NONE', #650, .T. ) ;
#380 = ORIENTED_EDGE ( 'NONE', *, *, #556, .T. ) ;
#381 =( LENGTH_UNIT ( ) NAMED_UNIT ( * ) SI_UNIT ( .MILLI., .METRE. ) );
#382 = CIRCLE ( 'NONE', #92, 2.000000000000000000 ) ;
#383 = CARTESIAN_POINT ( 'NONE',  ( 2.346298152288372130, -2.686816014504571193, 2.235438189353244127E-16 ) ) ;
#384 = EDGE_LOOP ( 'NONE', ( #363, #585, #90 ) ) ;
#385 = B_SPLINE_CURVE_WITH_KNOTS ( 'NONE', 3,
 ( #229, #350, #127, #70 ),
 .UNSPECIFIED., .F., .F.,
 ( 4, 4 ),
 ( 2.380739282244032692E-07, 0.002044882221487533212 ),
 .UNSPECIFIED. ) ;
#386 = CARTESIAN_POINT ( 'NONE',  ( 2.000000000000000000, 0.000000000000000000, 0.000000000000000000 ) ) ;
#387 = CARTESIAN_POINT ( 'NONE',  ( 0.000000000000000000, 0.000000000000000000, -2.200000000000000178 ) ) ;
#388 = ORIENTED_EDGE ( 'NONE', *, *, #500, .F. ) ;
#389 = CARTESIAN_POINT ( 'NONE',  ( 1.750000000000000888, -3.031088913245535643, -2.200000000000000178 ) ) ;
#390 = DIRECTION ( 'NONE',  ( -0.000000000000000000, -0.000000000000000000, 1.000000000000000000 ) ) ;
#391 = CARTESIAN_POINT ( 'NONE',  ( 0.000000000000000000, 0.000000000000000000, -2.200000000000000178 ) ) ;
#392 = EDGE_CURVE ( 'NONE', #676, #578, #143, .T. ) ;
#393 = CARTESIAN_POINT ( 'NONE',  ( -1.156317065392238108, 3.373851915354614928, -2.170065989602865120 ) ) ;
#394 = DIRECTION ( 'NONE',  ( -1.000000000000000000, 1.776356839400250465E-15, 0.000000000000000000 ) ) ;
#395 = AXIS2_PLACEMENT_3D ( 'NONE', #387, #101, #209 ) ;
#396 = CARTESIAN_POINT ( 'NONE',  ( 2.047034997319573169, 2.859595677584339413, 2.355598626314208454E-15 ) ) ;
#397 = ORIENTED_EDGE ( 'NONE', *, *, #214, .T. ) ;
#398 = CONICAL_SURFACE ( 'NONE', #540, 3.500000000000000444, 1.047197551196596077 ) ;
#399 = CARTESIAN_POINT ( 'NONE',  ( -3.500000000000000000, 1.693985822988430145, -1.981714356710800429 ) ) ;
#400 = CARTESIAN_POINT ( 'NONE',  ( -3.214438021527933564, -2.185595227304863108, -0.2174200650117568967 ) ) ;
#401 = ORIENTED_EDGE ( 'NONE', *, *, #130, .T. ) ;
#402 = PLANE ( 'NONE',  #694 ) ;
#403 = EDGE_CURVE ( 'NONE', #663, #528, #371, .T. ) ;
#404 = CIRCLE ( 'NONE', #581, 1.650000000000000133 ) ;
#405 = DIRECTION ( 'NONE',  ( 1.000000000000000000, 0.000000000000000000, 0.000000000000000000 ) ) ;
#406 = ORIENTED_EDGE ( 'NONE', *, *, #214, .F. ) ;
#407 = FACE_OUTER_BOUND ( 'NONE', #632, .T. ) ;
#408 = ADVANCED_FACE ( 'NONE', ( #24 ), #482, .T. ) ;
#409 = VECTOR ( 'NONE', #115, 1000.000000000000000 ) ;
#410 = DIRECTION ( 'NONE',  ( -1.000000000000000000, 0.000000000000000000, 0.000000000000000000 ) ) ;
#411 = PLANE ( 'NONE',  #275 ) ;
#412 = CARTESIAN_POINT ( 'NONE',  ( -3.500000000000000444, 0.6879904500768325715, -0.03016324292412007196 ) ) ;
#413 = ADVANCED_FACE ( 'NONE', ( #673 ), #622, .T. ) ;
#414 = ORIENTED_EDGE ( 'NONE', *, *, #500, .T. ) ;
#415 = DIRECTION ( 'NONE',  ( 1.000000000000000000, 0.000000000000000000, 0.000000000000000000 ) ) ;
#416 = FILL_AREA_STYLE_COLOUR ( '', #178 ) ;
#417 = ORIENTED_EDGE ( 'NONE', *, *, #576, .F. ) ;
#418 = DIRECTION ( 'NONE',  ( 0.000000000000000000, 0.000000000000000000, -1.000000000000000000 ) ) ;
#419 = CARTESIAN_POINT ( 'NONE',  ( -3.500000000000000000, -1.692071238847139503, -1.982267049545494153 ) ) ;
#420 = ORIENTED_EDGE ( 'NONE', *, *, #403, .F. ) ;
#421 = CARTESIAN_POINT ( 'NONE',  ( 1.750000000000002442, 3.031088913245534311, -2.200000000000000178 ) ) ;
#422 = CARTESIAN_POINT ( 'NONE',  ( 3.500000000000000000, -0.3414694520252310461, -2.200000000000001066 ) ) ;
#423 = EDGE_LOOP ( 'NONE', ( #624, #29, #483 ) ) ;
#424 = CARTESIAN_POINT ( 'NONE',  ( 0.000000000000000000, 0.000000000000000000, -0.2695799022107391307 ) ) ;
#425 = EDGE_CURVE ( 'NONE', #680, #149, #480, .T. ) ;
#426 = CARTESIAN_POINT ( 'NONE',  ( 3.500000000000000444, -1.355464348821702414, -2.061841578728556001 ) ) ;
#427 = MECHANICAL_DESIGN_GEOMETRIC_PRESENTATION_REPRESENTATION (  '', ( #670 ), #296 ) ;
#428 = ORIENTED_EDGE ( 'NONE', *, *, #45, .T. ) ;
#429 = CARTESIAN_POINT ( 'NONE',  ( 3.500000000000000000, 2.020725942163688504, -2.200000000000000178 ) ) ;
#430 = EDGE_LOOP ( 'NONE', ( #428, #265, #55 ) ) ;
#431 = DIRECTION ( 'NONE',  ( 0.000000000000000000, 0.000000000000000000, -1.000000000000000000 ) ) ;
#432 = ORIENTED_EDGE ( 'NONE', *, *, #317, .T. ) ;
#433 = ADVANCED_FACE ( 'NONE', ( #358 ), #450, .T. ) ;
#434 = CARTESIAN_POINT ( 'NONE',  ( -3.214438021527933120, -2.185595227304863108, -1.982579934988243364 ) ) ;
#435 = ORIENTED_EDGE ( 'NONE', *, *, #270, .T. ) ;
#436 = ORIENTED_EDGE ( 'NONE', *, *, #317, .F. ) ;
#437 = LINE ( 'NONE', #594, #653 ) ;
#438 = CIRCLE ( 'NONE', #395, 3.500000000000000000 ) ;
#439 = CARTESIAN_POINT ( 'NONE',  ( 0.000000000000000000, 0.000000000000000000, -2.200000000000000178 ) ) ;
#440 = EDGE_LOOP ( 'NONE', ( #615 ) ) ;
#441 = VERTEX_POINT ( 'NONE', #111 ) ;
#442 = CARTESIAN_POINT ( 'NONE',  ( -2.346298152288372130, 2.686816014504566752, 2.138360262999904956E-15 ) ) ;
#443 = EDGE_CURVE ( 'NONE', #680, #207, #263, .T. ) ;
#444 = CARTESIAN_POINT ( 'NONE',  ( 0.000000000000000000, 0.000000000000000000, 0.000000000000000000 ) ) ;
#445 = CARTESIAN_POINT ( 'NONE',  ( -3.500000000000000000, 0.000000000000000000, -2.200000000000000178 ) ) ;
#446 = CARTESIAN_POINT ( 'NONE',  ( -3.500000000000000000, 2.020725942163689393, -2.200000000000000178 ) ) ;
#447 = CIRCLE ( 'NONE', #122, 3.500000000000000000 ) ;
#448 = PLANE ( 'NONE',  #533 ) ;
#449 = CARTESIAN_POINT ( 'NONE',  ( -3.500000000000000000, 2.020725942163689393, -0.3126073911696439778 ) ) ;
#450 = CONICAL_SURFACE ( 'NONE', #332, 3.500000000000000444, 1.047197551196596077 ) ;
#451 = DIRECTION ( 'NONE',  ( -1.000000000000000000, 0.000000000000000000, 0.000000000000000000 ) ) ;
#452 = ADVANCED_FACE ( 'NONE', ( #407 ), #108, .T. ) ;
#453 = AXIS2_PLACEMENT_3D ( 'NONE', #50, #42, #372 ) ;
#454 = FACE_OUTER_BOUND ( 'NONE', #641, .T. ) ;
#455 = DIRECTION ( 'NONE',  ( 1.000000000000000000, 0.000000000000000000, 0.000000000000000000 ) ) ;
#456 = VERTEX_POINT ( 'NONE', #514 ) ;
#457 = FACE_OUTER_BOUND ( 'NONE', #537, .T. ) ;
#458 = DIRECTION ( 'NONE',  ( -0.000000000000000000, -0.000000000000000000, 1.000000000000000000 ) ) ;
#459 = ORIENTED_EDGE ( 'NONE', *, *, #192, .F. ) ;
#460 = DIRECTION ( 'NONE',  ( 1.000000000000000000, 0.000000000000000000, 0.000000000000000000 ) ) ;
#461 = CARTESIAN_POINT ( 'NONE',  ( -6.938893903907228378E-15, -4.041451884327381450, -0.3126073911696449770 ) ) ;
#462 = CONICAL_SURFACE ( 'NONE', #181, 3.500000000000000444, 1.047197551196596077 ) ;
#463 = CARTESIAN_POINT ( 'NONE',  ( 2.926493552096021578, 2.351840044243036054, -2.061158938895391035 ) ) ;
#464 = FACE_OUTER_BOUND ( 'NONE', #257, .T. ) ;
#465 = AXIS2_PLACEMENT_3D ( 'NONE', #201, #523, #638 ) ;
#466 = ORIENTED_EDGE ( 'NONE', *, *, #120, .T. ) ;
#467 = DIRECTION ( 'NONE',  ( -0.000000000000000000, -0.000000000000000000, 1.000000000000000000 ) ) ;
#468 = CARTESIAN_POINT ( 'NONE',  ( 3.500000000000000444, 0.000000000000000000, 0.000000000000000000 ) ) ;
#469 = ORIENTED_EDGE ( 'NONE', *, *, #576, .T. ) ;
#470 = DIRECTION ( 'NONE',  ( 0.000000000000000000, 0.000000000000000000, -1.000000000000000000 ) ) ;
#471 = CARTESIAN_POINT ( 'NONE',  ( 1.327711891679931055E-16, 4.041451884327381450, -2.200000000000000178 ) ) ;
#472 = EDGE_LOOP ( 'NONE', ( #414, #597, #636 ) ) ;
#473 = ADVANCED_FACE ( 'NONE', ( #176 ), #402, .F. ) ;
#474 = LINE ( 'NONE', #690, #354 ) ;
#475 = AXIS2_PLACEMENT_3D ( 'NONE', #204, #431, #642 ) ;
#476 = DIRECTION ( 'NONE',  ( 0.000000000000000000, 0.000000000000000000, -1.000000000000000000 ) ) ;
#477 = FACE_OUTER_BOUND ( 'NONE', #488, .T. ) ;
#478 = ORIENTED_EDGE ( 'NONE', *, *, #403, .T. ) ;
#479 = FACE_OUTER_BOUND ( 'NONE', #342, .T. ) ;
#480 = B_SPLINE_CURVE_WITH_KNOTS ( 'NONE', 3,
 ( #294, #237, #125, #128, #399, #568 ),
 .UNSPECIFIED., .F., .F.,
 ( 4, 2, 4 ),
 ( 0.005649496001316447330, 0.006672230966438296926, 0.007694965931560146521 ),
 .UNSPECIFIED. ) ;
#481 = EDGE_CURVE ( 'NONE', #106, #106, #511, .T. ) ;
#482 = CONICAL_SURFACE ( 'NONE', #572, 3.500000000000000444, 1.047197551196596077 ) ;
#483 = ORIENTED_EDGE ( 'NONE', *, *, #566, .F. ) ;
#484 = FACE_OUTER_BOUND ( 'NONE', #423, .T. ) ;
#485 = VERTEX_POINT ( 'NONE', #608 ) ;
#486 = PLANE ( 'NONE',  #553 ) ;
#487 = CARTESIAN_POINT ( 'NONE',  ( 1.750000000000000888, -3.031088913245535643, -2.200000000000000178 ) ) ;
#488 = EDGE_LOOP ( 'NONE', ( #230, #701, #518 ) ) ;
#489 = CARTESIAN_POINT ( 'NONE',  ( -2.343682934607766111, -2.688325911136458579, -2.170065989602862455 ) ) ;
#490 = DIRECTION ( 'NONE',  ( -1.000000000000000000, 0.000000000000000000, 0.000000000000000000 ) ) ;
#491 = ORIENTED_EDGE ( 'NONE', *, *, #392, .T. ) ;
#492 = CARTESIAN_POINT ( 'NONE',  ( 3.500000000000000888, -0.3414694520252315457, 2.490276864927643490E-16 ) ) ;
#493 = EDGE_CURVE ( 'NONE', #2, #95, #186, .T. ) ;
#494 = CARTESIAN_POINT ( 'NONE',  ( 3.499999999999999556, -2.020725942163694722, -0.3126073911696449770 ) ) ;
#495 = CARTESIAN_POINT ( 'NONE',  ( 3.500000000000000000, 2.020725942163692501, -1.887392608830355201 ) ) ;
#496 = B_SPLINE_CURVE_WITH_KNOTS ( 'NONE', 3,
 ( #258, #583, #579, #87, #38, #253 ),
 .UNSPECIFIED., .F., .F.,
 ( 4, 2, 4 ),
 ( 0.002044882221487526273, 0.003063384235218491979, 0.004081886248949458118 ),
 .UNSPECIFIED. ) ;
#497 = CARTESIAN_POINT ( 'NONE',  ( -3.500000000000000000, -2.020725942163692501, -1.887392608830355201 ) ) ;
#498 = CARTESIAN_POINT ( 'NONE',  ( 2.343682934607765223, 2.688325911136454582, -0.02993401039713589409 ) ) ;
#499 = CARTESIAN_POINT ( 'NONE',  ( 1.156317065392237220, -3.373851915354618480, -2.170065989602862455 ) ) ;
#500 = EDGE_CURVE ( 'NONE', #149, #273, #505, .T. ) ;
#501 = CARTESIAN_POINT ( 'NONE',  ( 3.500000000000000000, 0.3416723310689523951, -2.200000000000000622 ) ) ;
#502 = EDGE_LOOP ( 'NONE', ( #507 ) ) ;
#503 = PRODUCT_CONTEXT ( 'NONE', #264, 'mechanical' ) ;
#504 = CARTESIAN_POINT ( 'NONE',  ( -3.500000000000000000, -0.3414694520252307686, 2.481806535455099993E-16 ) ) ;
#505 = B_SPLINE_CURVE_WITH_KNOTS ( 'NONE', 3,
 ( #669, #630, #34, #256 ),
 .UNSPECIFIED., .F., .F.,
 ( 4, 4 ),
 ( 2.380739282182980410E-07, 0.002044882221487526273 ),
 .UNSPECIFIED. ) ;
#506 = CARTESIAN_POINT ( 'NONE',  ( 1.750000000000002442, 3.031088913245534311, 0.000000000000000000 ) ) ;
#507 = ORIENTED_EDGE ( 'NONE', *, *, #62, .F. ) ;
#508 = CARTESIAN_POINT ( 'NONE',  ( 0.000000000000000000, 0.000000000000000000, -2.200000000000000178 ) ) ;
#509 = CARTESIAN_POINT ( 'NONE',  ( -3.500000000000000444, 0.000000000000000000, 0.000000000000000000 ) ) ;
#510 = ORIENTED_EDGE ( 'NONE', *, *, #62, .T. ) ;
#511 = CIRCLE ( 'NONE', #200, 2.000000000000000000 ) ;
#512 = DIRECTION ( 'NONE',  ( 1.000000000000000000, 0.000000000000000000, 0.000000000000000000 ) ) ;
#513 = DIRECTION ( 'NONE',  ( 1.000000000000000000, 0.000000000000000000, 0.000000000000000000 ) ) ;
#514 = CARTESIAN_POINT ( 'NONE',  ( 1.084202172485504434E-15, 4.041451884327381450, -1.887392608830355201 ) ) ;
#515 = ADVANCED_FACE ( 'NONE', ( #457 ), #610, .T. ) ;
#516 = CARTESIAN_POINT ( 'NONE',  ( 2.343682934607765223, 2.688325911136454582, -2.170065989602864676 ) ) ;
#517 = B_SPLINE_CURVE_WITH_KNOTS ( 'NONE', 3,
 ( #506, #396, #498, #234, #17, #12 ),
 .UNSPECIFIED., .F., .F.,
 ( 4, 2, 4 ),
 ( 0.002044882221487531477, 0.003063384235218493713, 0.004081886248949455516 ),
 .UNSPECIFIED. ) ;
#518 = ORIENTED_EDGE ( 'NONE', *, *, #238, .F. ) ;
#519 = CARTESIAN_POINT ( 'NONE',  ( -3.500000000000000000, -1.692071238847138392, -0.2177329504545055527 ) ) ;
#520 = EDGE_CURVE ( 'NONE', #485, #251, #629, .T. ) ;
#521 = CARTESIAN_POINT ( 'NONE',  ( 0.000000000000000000, 0.000000000000000000, 0.000000000000000000 ) ) ;
#522 = EDGE_LOOP ( 'NONE', ( #152, #203, #290, #417, #436, #60 ) ) ;
#523 = DIRECTION ( 'NONE',  ( 0.000000000000000000, -0.000000000000000000, 1.000000000000000000 ) ) ;
#524 = CARTESIAN_POINT ( 'NONE',  ( 3.500000000000000444, 0.000000000000000000, -2.200000000000000178 ) ) ;
#525 = ADVANCED_FACE ( 'NONE', ( #91, #144 ), #668, .F. ) ;
#526 = ORIENTED_EDGE ( 'NONE', *, *, #481, .T. ) ;
#527 = CARTESIAN_POINT ( 'NONE',  ( 1.153701847711630979, 3.375361811986502314, 2.267158929290594092E-15 ) ) ;
#528 = VERTEX_POINT ( 'NONE', #421 ) ;
#529 = CYLINDRICAL_SURFACE ( 'NONE', #453, 2.000000000000000000 ) ;
#530 = ORIENTED_EDGE ( 'NONE', *, *, #644, .T. ) ;
#531 = CARTESIAN_POINT ( 'NONE',  ( 0.5725525826504662685, 3.710888496608919507, -0.1217565302851111725 ) ) ;
#532 = ADVANCED_FACE ( 'NONE', ( #484 ), #657, .T. ) ;
#533 = AXIS2_PLACEMENT_3D ( 'NONE', #224, #672, #410 ) ;
#534 = EDGE_LOOP ( 'NONE', ( #432, #316, #133 ) ) ;
#535 = FACE_BOUND ( 'NONE', #199, .T. ) ;
#536 = PRODUCT_RELATED_PRODUCT_CATEGORY ( 'part', '', ( #285 ) ) ;
#537 = EDGE_LOOP ( 'NONE', ( #588, #401, #541 ) ) ;
#538 = CARTESIAN_POINT ( 'NONE',  ( -0.2855619784720676013, 3.876582599186210842, -1.982579934988243808 ) ) ;
#539 = DIRECTION ( 'NONE',  ( -1.000000000000000000, -1.776356839400250465E-15, 0.000000000000000000 ) ) ;
#540 = AXIS2_PLACEMENT_3D ( 'NONE', #693, #418, #94 ) ;
#541 = ORIENTED_EDGE ( 'NONE', *, *, #259, .T. ) ;
#542 =( NAMED_UNIT ( * ) PLANE_ANGLE_UNIT ( ) SI_UNIT ( $, .RADIAN. ) );
#543 = CARTESIAN_POINT ( 'NONE',  ( 3.500000000000000444, 0.6879904500768331266, -0.03016324292411997482 ) ) ;
#544 = CONICAL_SURFACE ( 'NONE', #233, 3.500000000000000444, 1.047197551196596077 ) ;
#545 = ORIENTED_EDGE ( 'NONE', *, *, #685, .T. ) ;
#546 = ADVANCED_FACE ( 'NONE', ( #364 ), #544, .T. ) ;
#547 = AXIS2_PLACEMENT_3D ( 'NONE', #336, #346, #405 ) ;
#548 = CARTESIAN_POINT ( 'NONE',  ( -3.499999999999999556, 1.362959798491812924, -0.1397344949837832917 ) ) ;
#549 = EDGE_LOOP ( 'NONE', ( #102, #314, #255, #306, #196, #388 ) ) ;
#550 = CARTESIAN_POINT ( 'NONE',  ( 2.346298152288371686, -2.686816014504571193, -2.200000000000000622 ) ) ;
#551 = LINE ( 'NONE', #446, #409 ) ;
#552 = DIRECTION ( 'NONE',  ( -1.000000000000000000, 0.000000000000000000, 0.000000000000000000 ) ) ;
#553 = AXIS2_PLACEMENT_3D ( 'NONE', #338, #9, #651 ) ;
#554 = CARTESIAN_POINT ( 'NONE',  ( -2.926493552096023798, -2.351840044243039163, -2.061158938895388815 ) ) ;
#555 = FACE_OUTER_BOUND ( 'NONE', #502, .T. ) ;
#556 = EDGE_CURVE ( 'NONE', #356, #93, #686, .T. ) ;
#557 = CARTESIAN_POINT ( 'NONE',  ( -2.926493552096023798, -2.351840044243039163, -0.1388410611046107801 ) ) ;
#558 = FACE_OUTER_BOUND ( 'NONE', #52, .T. ) ;
#559 = EDGE_LOOP ( 'NONE', ( #435 ) ) ;
#560 = DIRECTION ( 'NONE',  ( 0.8660254037844382635, -0.5000000000000005551, 0.000000000000000000 ) ) ;
#561 = LINE ( 'NONE', #665, #35 ) ;
#562 = SHAPE_DEFINITION_REPRESENTATION ( #211, #194 ) ;
#563 = CARTESIAN_POINT ( 'NONE',  ( -3.500000000000000000, -2.020725942163692501, -2.200000000000000178 ) ) ;
#564 = UNCERTAINTY_MEASURE_WITH_UNIT (LENGTH_MEASURE( 1.000000000000000082E-05 ), #313, 'distance_accuracy_value', 'NONE');
#565 = DIRECTION ( 'NONE',  ( 0.000000000000000000, 0.000000000000000000, -1.000000000000000000 ) ) ;
#566 = EDGE_CURVE ( 'NONE', #646, #485, #496, .T. ) ;
#567 = AXIS2_PLACEMENT_3D ( 'NONE', #84, #318, #193 ) ;
#568 = CARTESIAN_POINT ( 'NONE',  ( -3.500000000000000000, 2.020725942163692501, -1.887392608830355201 ) ) ;
#569 = CARTESIAN_POINT ( 'NONE',  ( 3.214438021527930900, 2.185595227304859556, -1.982579934988244696 ) ) ;
#570 = EDGE_LOOP ( 'NONE', ( #323 ) ) ;
#571 = DIRECTION ( 'NONE',  ( 1.000000000000000000, 0.000000000000000000, 0.000000000000000000 ) ) ;
#572 = AXIS2_PLACEMENT_3D ( 'NONE', #508, #353, #415 ) ;
#573 = CARTESIAN_POINT ( 'NONE',  ( 3.499999999999999556, -0.6807265984995625185, -2.170648692803532231 ) ) ;
#574 = ORIENTED_EDGE ( 'NONE', *, *, #349, .F. ) ;
#575 = CARTESIAN_POINT ( 'NONE',  ( -1.750000000000001998, -3.031088913245534755, 0.000000000000000000 ) ) ;
#576 = EDGE_CURVE ( 'NONE', #40, #676, #474, .T. ) ;
#577 = FACE_OUTER_BOUND ( 'NONE', #549, .T. ) ;
#578 = VERTEX_POINT ( 'NONE', #575 ) ;
#579 = CARTESIAN_POINT ( 'NONE',  ( -1.156317065392238330, 3.373851915354614928, -0.02993401039713616818 ) ) ;
#580 = AXIS2_PLACEMENT_3D ( 'NONE', #44, #311, #147 ) ;
#581 = AXIS2_PLACEMENT_3D ( 'NONE', #175, #66, #352 ) ;
#582 = ORIENTED_EDGE ( 'NONE', *, *, #357, .T. ) ;
#583 = CARTESIAN_POINT ( 'NONE',  ( -1.452965002680430384, 3.202582148906728765, 2.328917088475697993E-15 ) ) ;
#584 = AXIS2_PLACEMENT_3D ( 'NONE', #1, #103, #394 ) ;
#585 = ORIENTED_EDGE ( 'NONE', *, *, #322, .T. ) ;
#586 = FACE_OUTER_BOUND ( 'NONE', #33, .T. ) ;
#587 = PRODUCT_DEFINITION_CONTEXT ( 'detailed design', #302, 'design' ) ;
#588 = ORIENTED_EDGE ( 'NONE', *, *, #679, .T. ) ;
#589 = CARTESIAN_POINT ( 'NONE',  ( 0.000000000000000000, 0.000000000000000000, -2.200000000000000178 ) ) ;
#590 = ORIENTED_EDGE ( 'NONE', *, *, #150, .T. ) ;
#591 = CARTESIAN_POINT ( 'NONE',  ( 1.156317065392237220, -3.373851915354618480, -0.02993401039713835393 ) ) ;
#592 = DIRECTION ( 'NONE',  ( -1.000000000000000000, 0.000000000000000000, 0.000000000000000000 ) ) ;
#593 = ORIENTED_EDGE ( 'NONE', *, *, #322, .F. ) ;
#594 = CARTESIAN_POINT ( 'NONE',  ( -3.500000000000000000, -2.020725942163692501, -2.200000000000000178 ) ) ;
#595 = CARTESIAN_POINT ( 'NONE',  ( 1.750000000000000888, -3.031088913245535643, 0.000000000000000000 ) ) ;
#596 = ADVANCED_FACE ( 'NONE', ( #479, #697 ), #304, .F. ) ;
#597 = ORIENTED_EDGE ( 'NONE', *, *, #625, .T. ) ;
#598 = CARTESIAN_POINT ( 'NONE',  ( -6.938893903907228378E-15, -4.041451884327381450, -0.3126073911696449770 ) ) ;
#599 = DIRECTION ( 'NONE',  ( 0.000000000000000000, -0.000000000000000000, 1.000000000000000000 ) ) ;
#600 = ORIENTED_EDGE ( 'NONE', *, *, #98, .T. ) ;
#601 = CARTESIAN_POINT ( 'NONE',  ( -1.452965002680429718, 3.202582148906728765, -2.200000000000001510 ) ) ;
#602 = CARTESIAN_POINT ( 'NONE',  ( 3.499999999999999556, 1.362959798491815366, -0.1397344949837834305 ) ) ;
#603 = CARTESIAN_POINT ( 'NONE',  ( 3.500000000000000000, 1.693985822988430368, -1.981714356710799985 ) ) ;
#604 = CARTESIAN_POINT ( 'NONE',  ( 1.084202172485504434E-15, 4.041451884327381450, -1.887392608830355201 ) ) ;
#605 = ADVANCED_FACE ( 'NONE', ( #315, #321 ), #529, .F. ) ;
#606 = CARTESIAN_POINT ( 'NONE',  ( -1.750000000000001776, 3.031088913245534755, -2.200000000000000178 ) ) ;
#607 = DIRECTION ( 'NONE',  ( -0.000000000000000000, 0.000000000000000000, -1.000000000000000000 ) ) ;
#608 = CARTESIAN_POINT ( 'NONE',  ( 1.084202172485504434E-15, 4.041451884327381450, -0.3126073911696449770 ) ) ;
#609 = CARTESIAN_POINT ( 'NONE',  ( 1.084202172485504434E-15, 4.041451884327381450, -1.887392608830355201 ) ) ;
#610 = CONICAL_SURFACE ( 'NONE', #567, 3.500000000000000444, 1.047197551196596077 ) ;
#611 = DIRECTION ( 'NONE',  ( 0.000000000000000000, 0.000000000000000000, 1.000000000000000000 ) ) ;
#612 = DIRECTION ( 'NONE',  ( 0.5000000000000003331, -0.8660254037844385966, 0.000000000000000000 ) ) ;
#613 = AXIS2_PLACEMENT_3D ( 'NONE', #471, #678, #299 ) ;
#614 = CARTESIAN_POINT ( 'NONE',  ( 0.000000000000000000, 0.000000000000000000, 0.000000000000000000 ) ) ;
#615 = ORIENTED_EDGE ( 'NONE', *, *, #303, .F. ) ;
#616 = CARTESIAN_POINT ( 'NONE',  ( -2.503857664561933855E-16, -4.041451884327385002, -2.200000000000000178 ) ) ;
#617 = ADVANCED_FACE ( 'NONE', ( #477 ), #398, .T. ) ;
#618 = DIRECTION ( 'NONE',  ( -1.000000000000000000, 0.000000000000000000, 0.000000000000000000 ) ) ;
#619 = B_SPLINE_CURVE_WITH_KNOTS ( 'NONE', 3,
 ( #660, #645, #591, #168, #163, #61 ),
 .UNSPECIFIED., .F., .F.,
 ( 4, 2, 4 ),
 ( 0.002044882221487526273, 0.003063384235218493713, 0.004081886248949461587 ),
 .UNSPECIFIED. ) ;
#620 = SURFACE_STYLE_FILL_AREA ( #78 ) ;
#621 = EDGE_LOOP ( 'NONE', ( #137, #261, #105, #600, #380, #327 ) ) ;
#622 = PLANE ( 'NONE',  #80 ) ;
#623 =( NAMED_UNIT ( * ) SI_UNIT ( $, .STERADIAN. ) SOLID_ANGLE_UNIT ( ) );
#624 = ORIENTED_EDGE ( 'NONE', *, *, #695, .T. ) ;
#625 = EDGE_CURVE ( 'NONE', #273, #680, #700, .T. ) ;
#626 = PLANE ( 'NONE',  #475 ) ;
#627 = CARTESIAN_POINT ( 'NONE',  ( -3.500000000000000444, -1.355464348821699749, -2.061841578728556001 ) ) ;
#628 = ORIENTED_EDGE ( 'NONE', *, *, #625, .F. ) ;
#629 = B_SPLINE_CURVE_WITH_KNOTS ( 'NONE', 3,
 ( #375, #531, #527, #249 ),
 .UNSPECIFIED., .F., .F.,
 ( 4, 4 ),
 ( 2.380739282178991679E-07, 0.002044882221487531477 ),
 .UNSPECIFIED. ) ;
#630 = CARTESIAN_POINT ( 'NONE',  ( -2.927447417349535286, 2.351289329882150891, -2.078243469714889713 ) ) ;
#631 = CARTESIAN_POINT ( 'NONE',  ( 0.000000000000000000, 0.000000000000000000, 0.000000000000000000 ) ) ;
#632 = EDGE_LOOP ( 'NONE', ( #530, #397, #86 ) ) ;
#633 = DIRECTION ( 'NONE',  ( 1.000000000000000000, 0.000000000000000000, 0.000000000000000000 ) ) ;
#634 = CONICAL_SURFACE ( 'NONE', #131, 3.500000000000000444, 1.047197551196596077 ) ;
#635 = CARTESIAN_POINT ( 'NONE',  ( 3.499999999999999556, -2.020725942163696054, -1.887392608830355201 ) ) ;
#636 = ORIENTED_EDGE ( 'NONE', *, *, #425, .T. ) ;
#637 = B_SPLINE_CURVE_WITH_KNOTS ( 'NONE', 3,
 ( #25, #419, #627, #136, #362, #239 ),
 .UNSPECIFIED., .F., .F.,
 ( 4, 2, 4 ),
 ( 0.003605240635278487808, 0.004627368318297468003, 0.005649496001316447330 ),
 .UNSPECIFIED. ) ;
#638 = DIRECTION ( 'NONE',  ( -1.000000000000000000, -8.881784197001252323E-16, 0.000000000000000000 ) ) ;
#639 = AXIS2_PLACEMENT_3D ( 'NONE', #187, #618, #244 ) ;
#640 = ADVANCED_FACE ( 'NONE', ( #535, #586 ), #626, .F. ) ;
#641 = EDGE_LOOP ( 'NONE', ( #469, #491, #466, #366, #206, #49 ) ) ;
#642 = DIRECTION ( 'NONE',  ( -1.000000000000000000, 0.000000000000000000, 0.000000000000000000 ) ) ;
#643 = VERTEX_POINT ( 'NONE', #135 ) ;
#644 = EDGE_CURVE ( 'NONE', #207, #109, #312, .T. ) ;
#645 = CARTESIAN_POINT ( 'NONE',  ( 1.452965002680430162, -3.202582148906732762, 2.858736196983262658E-16 ) ) ;
#646 = VERTEX_POINT ( 'NONE', #377 ) ;
#647 = CARTESIAN_POINT ( 'NONE',  ( 3.499999999999999112, -0.6807265984995628516, -0.02935130719646760269 ) ) ;
#648 = EDGE_CURVE ( 'NONE', #154, #643, #320, .T. ) ;
#649 = CARTESIAN_POINT ( 'NONE',  ( 0.000000000000000000, 0.000000000000000000, 0.000000000000000000 ) ) ;
#650 = EDGE_LOOP ( 'NONE', ( #269, #58, #22 ) ) ;
#651 = DIRECTION ( 'NONE',  ( -0.8660254037844382635, 0.5000000000000006661, 0.000000000000000000 ) ) ;
#652 = DIRECTION ( 'NONE',  ( 0.000000000000000000, -0.000000000000000000, 1.000000000000000000 ) ) ;
#653 = VECTOR ( 'NONE', #53, 1000.000000000000000 ) ;
#654 = ORIENTED_EDGE ( 'NONE', *, *, #326, .T. ) ;
#655 = CARTESIAN_POINT ( 'NONE',  ( 2.927447417349534842, -2.351289329882154888, -2.078243469714887937 ) ) ;
#656 = CARTESIAN_POINT ( 'NONE',  ( -2.927447417349536174, 2.351289329882150447, -0.1217565302851107839 ) ) ;
#657 = CONICAL_SURFACE ( 'NONE', #97, 3.500000000000000444, 1.047197551196596077 ) ;
#658 = EDGE_CURVE ( 'NONE', #309, #676, #619, .T. ) ;
#659 = DIRECTION ( 'NONE',  ( 0.000000000000000000, 0.000000000000000000, -1.000000000000000000 ) ) ;
#660 = CARTESIAN_POINT ( 'NONE',  ( 1.750000000000000888, -3.031088913245535643, 0.000000000000000000 ) ) ;
#661 = CARTESIAN_POINT ( 'NONE',  ( 0.5735064479039765351, -3.710337782248037897, -2.061158938895387482 ) ) ;
#662 = DIRECTION ( 'NONE',  ( -1.000000000000000000, 0.000000000000000000, 0.000000000000000000 ) ) ;
#663 = VERTEX_POINT ( 'NONE', #100 ) ;
#664 = DIRECTION ( 'NONE',  ( 0.000000000000000000, 0.000000000000000000, 1.000000000000000000 ) ) ;
#665 = CARTESIAN_POINT ( 'NONE',  ( 3.500000000000000000, -2.020725942163693389, -2.200000000000000178 ) ) ;
#666 = DIRECTION ( 'NONE',  ( 1.000000000000000000, 0.000000000000000000, 0.000000000000000000 ) ) ;
#667 = FACE_OUTER_BOUND ( 'NONE', #689, .T. ) ;
#668 = CONICAL_SURFACE ( 'NONE', #580, 2.000000000000000000, 0.9599310885968800333 ) ;
#669 = CARTESIAN_POINT ( 'NONE',  ( -3.500000000000000000, 2.020725942163692501, -1.887392608830355201 ) ) ;
#670 = STYLED_ITEM ( 'NONE', ( #198 ), #174 ) ;
#671 = EDGE_CURVE ( 'NONE', #162, #212, #328, .T. ) ;
#672 = DIRECTION ( 'NONE',  ( 0.000000000000000000, 0.000000000000000000, -1.000000000000000000 ) ) ;
#673 = FACE_OUTER_BOUND ( 'NONE', #522, .T. ) ;
#674 = CIRCLE ( 'NONE', #205, 3.500000000000000000 ) ;
#675 = CARTESIAN_POINT ( 'NONE',  ( -3.500000000000000444, 0.000000000000000000, 0.000000000000000000 ) ) ;
#676 = VERTEX_POINT ( 'NONE', #598 ) ;
#677 = B_SPLINE_CURVE_WITH_KNOTS ( 'NONE', 3,
 ( #609, #121, #688, #359 ),
 .UNSPECIFIED., .F., .F.,
 ( 4, 4 ),
 ( 2.380739282179125086E-07, 0.002044882221487531477 ),
 .UNSPECIFIED. ) ;
#678 = DIRECTION ( 'NONE',  ( -0.5000000000000004441, 0.8660254037844383745, 0.000000000000000000 ) ) ;
#679 = EDGE_CURVE ( 'NONE', #273, #456, #37, .T. ) ;
#680 = VERTEX_POINT ( 'NONE', #445 ) ;
#681 = PRODUCT_DEFINITION_FORMATION_WITH_SPECIFIED_SOURCE ( 'Symmetric', '', #285, .NOT_KNOWN. ) ;
#682 = DIRECTION ( 'NONE',  ( -1.000000000000000000, 0.000000000000000000, 0.000000000000000000 ) ) ;
#683 = CARTESIAN_POINT ( 'NONE',  ( 3.499999999999999556, -2.020725942163694722, -0.3126073911696449770 ) ) ;
#684 = ORIENTED_EDGE ( 'NONE', *, *, #481, .F. ) ;
#685 = EDGE_CURVE ( 'NONE', #109, #2, #437, .T. ) ;
#686 = LINE ( 'NONE', #429, #141 ) ;
#687 = AXIS2_PLACEMENT_3D ( 'NONE', #4, #599, #539 ) ;
#688 = CARTESIAN_POINT ( 'NONE',  ( 1.153701847711630979, 3.375361811986502314, -2.200000000000002398 ) ) ;
#689 = EDGE_LOOP ( 'NONE', ( #376, #628, #698, #420, #593, #574 ) ) ;
#690 = CARTESIAN_POINT ( 'NONE',  ( -2.503857664561933855E-16, -4.041451884327385002, -2.200000000000000178 ) ) ;
#691 = SURFACE_STYLE_USAGE ( .BOTH. , #39 ) ;
#692 = ORIENTED_EDGE ( 'NONE', *, *, #51, .F. ) ;
#693 = CARTESIAN_POINT ( 'NONE',  ( 0.000000000000000000, 0.000000000000000000, 0.000000000000000000 ) ) ;
#694 = AXIS2_PLACEMENT_3D ( 'NONE', #26, #682, #123 ) ;
#695 = EDGE_CURVE ( 'NONE', #646, #251, #159, .T. ) ;
#696 = EDGE_LOOP ( 'NONE', ( #654, #142, #185, #191, #79, #129 ) ) ;
#697 = FACE_BOUND ( 'NONE', #157, .T. ) ;
#698 = ORIENTED_EDGE ( 'NONE', *, *, #259, .F. ) ;
#699 = B_SPLINE_CURVE_WITH_KNOTS ( 'NONE', 3,
 ( #487, #282, #499, #661, #13, #170 ),
 .UNSPECIFIED., .F., .F.,
 ( 4, 2, 4 ),
 ( 0.002044882221487526273, 0.003063384235218493713, 0.004081886248949461587 ),
 .UNSPECIFIED. ) ;
#700 = CIRCLE ( 'NONE', #465, 3.500000000000000000 ) ;
#701 = ORIENTED_EDGE ( 'NONE', *, *, #18, .T. ) ;
#702 = ADVANCED_FACE ( 'NONE', ( #218 ), #486, .T. ) ;
#703 = VERTEX_POINT ( 'NONE', #281 ) ;
ENDSEC;
END-ISO-10303-21;
