ISO-10303-21;
HEADER;
FILE_DESCRIPTION (( 'STEP AP214' ),
    '1' );
FILE_NAME ('ISO 13337 - 6 x 22 - St.STEP',
    '2025-07-29T15:59:07',
    ( '' ),
    ( '' ),
    'SwSTEP 2.0',
    'SolidWorks 2025',
    '' );
FILE_SCHEMA (( 'AUTOMOTIVE_DESIGN' ));
ENDSEC;

DATA;
#1 = DIRECTION ( 'NONE',  ( 0.000000000000000000, 0.000000000000000000, -1.000000000000000000 ) ) ;
#2 = ORIENTED_EDGE ( 'NONE', *, *, #141, .T. ) ;
#3 = PLANE ( 'NONE',  #153 ) ;
#4 = AXIS2_PLACEMENT_3D ( 'NONE', #167, #149, #81 ) ;
#5 = ORIENTED_EDGE ( 'NONE', *, *, #258, .T. ) ;
#6 = PRESENTATION_LAYER_ASSIGNMENT (  '', '', ( #143 ) ) ;
#7 = ORIENTED_EDGE ( 'NONE', *, *, #66, .T. ) ;
#8 = ORIENTED_EDGE ( 'NONE', *, *, #202, .F. ) ;
#9 = ORIENTED_EDGE ( 'NONE', *, *, #183, .F. ) ;
#10 = VERTEX_POINT ( 'NONE', #102 ) ;
#11 = CIRCLE ( 'NONE', #171, 3.000000000000000000 ) ;
#12 = DIRECTION ( 'NONE',  ( 0.000000000000000000, 0.000000000000000000, 1.000000000000000000 ) ) ;
#13 = VECTOR ( 'NONE', #226, 999.9999999999998863 ) ;
#14 = DIRECTION ( 'NONE',  ( 0.000000000000000000, 0.000000000000000000, 1.000000000000000000 ) ) ;
#15 = FILL_AREA_STYLE_COLOUR ( '', #214 ) ;
#16 = CIRCLE ( 'NONE', #43, 2.812500000000000000 ) ;
#17 = LINE ( 'NONE', #90, #158 ) ;
#18 = LINE ( 'NONE', #179, #177 ) ;
#19 = SHAPE_DEFINITION_REPRESENTATION ( #242, #89 ) ;
#20 = DIRECTION ( 'NONE',  ( 0.000000000000000000, 0.000000000000000000, 1.000000000000000000 ) ) ;
#21 = PRODUCT ( 'ISO 13337 - 6 x 22 - St_ISO 13337 - 6 x 22 - St', 'ISO 13337 - 6 x 22 - St_ISO 13337 - 6 x 22 - St', '', ( #218 ) ) ;
#22 = VERTEX_POINT ( 'NONE', #119 ) ;
#23 = ADVANCED_FACE ( 'NONE', ( #25 ), #197, .T. ) ;
#24 = ORIENTED_EDGE ( 'NONE', *, *, #136, .F. ) ;
#25 = FACE_OUTER_BOUND ( 'NONE', #39, .T. ) ;
#26 = CIRCLE ( 'NONE', #56, 2.812500000000000000 ) ;
#27 = DIRECTION ( 'NONE',  ( 1.000000000000000000, 0.000000000000000000, 0.000000000000000000 ) ) ;
#28 = VERTEX_POINT ( 'NONE', #184 ) ;
#29 = ORIENTED_EDGE ( 'NONE', *, *, #92, .T. ) ;
#30 = CARTESIAN_POINT ( 'NONE',  ( -10.49999999999998046, 0.000000000000000000, 0.000000000000000000 ) ) ;
#31 = CARTESIAN_POINT ( 'NONE',  ( 22.00000000000000000, 0.000000000000000000, 0.000000000000000000 ) ) ;
#32 = APPLICATION_CONTEXT ( 'automotive_design' ) ;
#33 = CARTESIAN_POINT ( 'NONE',  ( 22.00000000000000000, 0.000000000000000000, 0.000000000000000000 ) ) ;
#34 = DIRECTION ( 'NONE',  ( 0.000000000000000000, -0.9969173337331279638, 0.07845909572784562358 ) ) ;
#35 = DIRECTION ( 'NONE',  ( 0.000000000000000000, 0.000000000000000000, 1.000000000000000000 ) ) ;
#36 =( NAMED_UNIT ( * ) SI_UNIT ( $, .STERADIAN. ) SOLID_ANGLE_UNIT ( ) );
#37 = ORIENTED_EDGE ( 'NONE', *, *, #83, .T. ) ;
#38 = ORIENTED_EDGE ( 'NONE', *, *, #207, .F. ) ;
#39 = EDGE_LOOP ( 'NONE', ( #54, #139, #37, #244 ) ) ;
#40 = EDGE_CURVE ( 'NONE', #10, #221, #172, .T. ) ;
#41 = ORIENTED_EDGE ( 'NONE', *, *, #239, .T. ) ;
#42 = CARTESIAN_POINT ( 'NONE',  ( -9.524999999999986144, -0.1765329653876526739, 2.243064000899538168 ) ) ;
#43 = AXIS2_PLACEMENT_3D ( 'NONE', #33, #228, #47 ) ;
#44 = ORIENTED_EDGE ( 'NONE', *, *, #258, .F. ) ;
#45 = DIRECTION ( 'NONE',  ( -0.9659480515032450310, 0.02030019927884442812, -0.2579384882221411601 ) ) ;
#46 = ADVANCED_FACE ( 'NONE', ( #80 ), #65, .F. ) ;
#47 = DIRECTION ( 'NONE',  ( 0.000000000000000000, 0.000000000000000000, 1.000000000000000000 ) ) ;
#48 = PRESENTATION_STYLE_ASSIGNMENT (( #191 ) ) ;
#49 = PRODUCT_DEFINITION ( 'General', '', #231, #129 ) ;
#50 = CARTESIAN_POINT ( 'NONE',  ( 21.30000000000000071, 0.2353772871835369818, 2.990752001199385557 ) ) ;
#51 = LINE ( 'NONE', #230, #233 ) ;
#52 = CARTESIAN_POINT ( 'NONE',  ( 0.000000000000000000, 2.812500000000000000, 0.000000000000000000 ) ) ;
#53 = DIRECTION ( 'NONE',  ( 0.000000000000000000, 0.000000000000000000, 1.000000000000000000 ) ) ;
#54 = ORIENTED_EDGE ( 'NONE', *, *, #58, .F. ) ;
#55 = DIRECTION ( 'NONE',  ( 1.000000000000000000, 0.000000000000000000, 0.000000000000000000 ) ) ;
#56 = AXIS2_PLACEMENT_3D ( 'NONE', #161, #240, #235 ) ;
#57 = VECTOR ( 'NONE', #120, 1000.000000000000000 ) ;
#58 = EDGE_CURVE ( 'NONE', #22, #103, #60, .T. ) ;
#59 = DIRECTION ( 'NONE',  ( 0.000000000000000000, 0.000000000000000000, 1.000000000000000000 ) ) ;
#60 = LINE ( 'NONE', #146, #13 ) ;
#61 = VERTEX_POINT ( 'NONE', #204 ) ;
#62 = DIRECTION ( 'NONE',  ( 0.000000000000000000, 0.000000000000000000, -1.000000000000000000 ) ) ;
#63 = ORIENTED_EDGE ( 'NONE', *, *, #122, .F. ) ;
#64 = VECTOR ( 'NONE', #85, 1000.000000000000000 ) ;
#65 = CYLINDRICAL_SURFACE ( 'NONE', #4, 2.250000000000000444 ) ;
#66 = EDGE_CURVE ( 'NONE', #10, #106, #105, .T. ) ;
#67 = DIRECTION ( 'NONE',  ( 0.000000000000000000, 0.07845909572784560970, -0.9969173337331278528 ) ) ;
#68 = CARTESIAN_POINT ( 'NONE',  ( 22.00000000000000000, 2.250000000000000000, 0.000000000000000000 ) ) ;
#69 = DIRECTION ( 'NONE',  ( -1.000000000000000000, -0.000000000000000000, -0.000000000000000000 ) ) ;
#70 = CARTESIAN_POINT ( 'NONE',  ( -9.524999999999986144, 0.1765329653876526739, 2.243064000899538168 ) ) ;
#71 = CARTESIAN_POINT ( 'NONE',  ( 22.00000000000000000, 0.000000000000000000, 0.000000000000000000 ) ) ;
#72 = ADVANCED_FACE ( 'NONE', ( #253 ), #213, .F. ) ;
#73 =( NAMED_UNIT ( * ) SI_UNIT ( $, .STERADIAN. ) SOLID_ANGLE_UNIT ( ) );
#74 = CIRCLE ( 'NONE', #137, 3.000000000000002665 ) ;
#75 = CARTESIAN_POINT ( 'NONE',  ( 22.00000000000000000, -0.1765329653876526184, 2.243064000899537724 ) ) ;
#76 = FACE_OUTER_BOUND ( 'NONE', #187, .T. ) ;
#77 = VECTOR ( 'NONE', #159, 1000.000000000000000 ) ;
#78 = ADVANCED_FACE ( 'NONE', ( #86 ), #175, .F. ) ;
#79 = EDGE_LOOP ( 'NONE', ( #29, #2, #5, #245, #223, #24 ) ) ;
#80 = FACE_OUTER_BOUND ( 'NONE', #222, .T. ) ;
#81 = DIRECTION ( 'NONE',  ( 0.000000000000000000, 0.000000000000000000, 1.000000000000000000 ) ) ;
#82 = ORIENTED_EDGE ( 'NONE', *, *, #122, .T. ) ;
#83 = EDGE_CURVE ( 'NONE', #180, #106, #256, .T. ) ;
#84 = EDGE_LOOP ( 'NONE', ( #98, #224, #182, #237 ) ) ;
#85 = DIRECTION ( 'NONE',  ( -1.000000000000000000, -0.000000000000000000, -0.000000000000000000 ) ) ;
#86 = FACE_OUTER_BOUND ( 'NONE', #217, .T. ) ;
#87 = CARTESIAN_POINT ( 'NONE',  ( -9.524999999999986144, 0.000000000000000000, 0.000000000000000000 ) ) ;
#88 = AXIS2_PLACEMENT_3D ( 'NONE', #71, #110, #14 ) ;
#89 = ADVANCED_BREP_SHAPE_REPRESENTATION ( 'ISO 13337 - 6 x 22 - St_ISO 13337 - 6 x 22 - St', ( #195, #254 ), #93 ) ;
#90 = CARTESIAN_POINT ( 'NONE',  ( -9.524999999999986144, -0.2353772871835369818, 2.990752001199385557 ) ) ;
#91 = CYLINDRICAL_SURFACE ( 'NONE', #163, 3.000000000000001332 ) ;
#92 = EDGE_CURVE ( 'NONE', #206, #61, #125, .T. ) ;
#93 =( GEOMETRIC_REPRESENTATION_CONTEXT ( 3 ) GLOBAL_UNCERTAINTY_ASSIGNED_CONTEXT ( ( #212 ) ) GLOBAL_UNIT_ASSIGNED_CONTEXT ( ( #157, #216, #36 ) ) REPRESENTATION_CONTEXT ( 'NONE', 'WORKASPACE' ) );
#94 = DIRECTION ( 'NONE',  ( 1.000000000000000000, 0.000000000000000000, 0.000000000000000000 ) ) ;
#95 = CIRCLE ( 'NONE', #88, 2.250000000000000000 ) ;
#96 = VECTOR ( 'NONE', #45, 999.9999999999998863 ) ;
#97 = DIRECTION ( 'NONE',  ( -1.000000000000000000, -0.000000000000000000, -0.000000000000000000 ) ) ;
#98 = ORIENTED_EDGE ( 'NONE', *, *, #136, .T. ) ;
#99 = APPLICATION_PROTOCOL_DEFINITION ( 'draft international standard', 'automotive_design', 1998, #32 ) ;
#100 = ORIENTED_EDGE ( 'NONE', *, *, #168, .F. ) ;
#101 = VECTOR ( 'NONE', #140, 1000.000000000000114 ) ;
#102 = CARTESIAN_POINT ( 'NONE',  ( 0.000000000000000000, -0.1765329653876526739, 2.243064000899538168 ) ) ;
#103 = VERTEX_POINT ( 'NONE', #257 ) ;
#104 = VECTOR ( 'NONE', #111, 1000.000000000000114 ) ;
#105 = LINE ( 'NONE', #185, #145 ) ;
#106 = VERTEX_POINT ( 'NONE', #215 ) ;
#107 = PRODUCT_RELATED_PRODUCT_CATEGORY ( 'part', '', ( #21 ) ) ;
#108 = VERTEX_POINT ( 'NONE', #208 ) ;
#109 = DIRECTION ( 'NONE',  ( -1.000000000000000000, -0.000000000000000000, -0.000000000000000000 ) ) ;
#110 = DIRECTION ( 'NONE',  ( -1.000000000000000000, -0.000000000000000000, -0.000000000000000000 ) ) ;
#111 = DIRECTION ( 'NONE',  ( 0.000000000000000000, 0.07845909572784560970, 0.9969173337331278528 ) ) ;
#112 = LINE ( 'NONE', #193, #64 ) ;
#113 = DIRECTION ( 'NONE',  ( 0.000000000000000000, 0.07845909572784560970, 0.9969173337331278528 ) ) ;
#114 = ADVANCED_FACE ( 'NONE', ( #132 ), #91, .T. ) ;
#115 = DIRECTION ( 'NONE',  ( -1.000000000000000000, -0.000000000000000000, -0.000000000000000000 ) ) ;
#116 = FACE_OUTER_BOUND ( 'NONE', #84, .T. ) ;
#117 = LINE ( 'NONE', #198, #77 ) ;
#118 = ORIENTED_EDGE ( 'NONE', *, *, #83, .F. ) ;
#119 = CARTESIAN_POINT ( 'NONE',  ( 0.6999999999999992895, 0.2353772871835368430, 2.990752001199383781 ) ) ;
#120 = DIRECTION ( 'NONE',  ( 1.000000000000000000, 0.000000000000000000, 0.000000000000000000 ) ) ;
#121 = CONICAL_SURFACE ( 'NONE', #249, 2.812500000000000000, 0.2617135024012090527 ) ;
#122 = EDGE_CURVE ( 'NONE', #123, #108, #16, .T. ) ;
#123 = VERTEX_POINT ( 'NONE', #232 ) ;
#124 = EDGE_LOOP ( 'NONE', ( #7, #118, #246, #186, #38, #205 ) ) ;
#125 = LINE ( 'NONE', #70, #192 ) ;
#126 = ADVANCED_FACE ( 'NONE', ( #155 ), #210, .T. ) ;
#127 = MECHANICAL_DESIGN_GEOMETRIC_PRESENTATION_REPRESENTATION (  '', ( #143 ), #255 ) ;
#128 = DIRECTION ( 'NONE',  ( 1.000000000000000000, 0.000000000000000000, 0.000000000000000000 ) ) ;
#129 = PRODUCT_DEFINITION_CONTEXT ( 'detailed design', #181, 'design' ) ;
#130 = LINE ( 'NONE', #31, #104 ) ;
#131 = CARTESIAN_POINT ( 'NONE',  ( 0.6999999999999992895, 0.000000000000000000, 0.000000000000000000 ) ) ;
#132 = FACE_OUTER_BOUND ( 'NONE', #203, .T. ) ;
#133 = AXIS2_PLACEMENT_3D ( 'NONE', #188, #34, #189 ) ;
#134 = DIRECTION ( 'NONE',  ( -1.000000000000000000, -0.000000000000000000, -0.000000000000000000 ) ) ;
#135 = APPLICATION_PROTOCOL_DEFINITION ( 'draft international standard', 'automotive_design', 1998, #181 ) ;
#136 = EDGE_CURVE ( 'NONE', #206, #103, #51, .T. ) ;
#137 = AXIS2_PLACEMENT_3D ( 'NONE', #174, #115, #59 ) ;
#138 = CARTESIAN_POINT ( 'NONE',  ( 0.000000000000000000, 0.1765329653876526739, 2.243064000899538168 ) ) ;
#139 = ORIENTED_EDGE ( 'NONE', *, *, #164, .T. ) ;
#140 = DIRECTION ( 'NONE',  ( 0.000000000000000000, -0.07845909572784560970, 0.9969173337331278528 ) ) ;
#141 = EDGE_CURVE ( 'NONE', #61, #123, #130, .T. ) ;
#142 = ORIENTED_EDGE ( 'NONE', *, *, #164, .F. ) ;
#143 = STYLED_ITEM ( 'NONE', ( #48 ), #195 ) ;
#144 = ORIENTED_EDGE ( 'NONE', *, *, #251, .T. ) ;
#145 = VECTOR ( 'NONE', #169, 1000.000000000000114 ) ;
#146 = CARTESIAN_POINT ( 'NONE',  ( -10.49999999999998046, 0.000000000000000000, 0.000000000000000000 ) ) ;
#147 = EDGE_CURVE ( 'NONE', #28, #180, #17, .T. ) ;
#148 = VERTEX_POINT ( 'NONE', #50 ) ;
#149 = DIRECTION ( 'NONE',  ( -1.000000000000000000, -0.000000000000000000, -0.000000000000000000 ) ) ;
#150 = CARTESIAN_POINT ( 'NONE',  ( 0.6999999999999975131, -0.2353772871835368152, 2.990752001199383336 ) ) ;
#151 = UNCERTAINTY_MEASURE_WITH_UNIT (LENGTH_MEASURE( 1.000000000000000082E-05 ), #190, 'distance_accuracy_value', 'NONE');
#152 = DIRECTION ( 'NONE',  ( 0.000000000000000000, 0.000000000000000000, 1.000000000000000000 ) ) ;
#153 = AXIS2_PLACEMENT_3D ( 'NONE', #52, #94, #1 ) ;
#154 = SURFACE_STYLE_FILL_AREA ( #227 ) ;
#155 = FACE_OUTER_BOUND ( 'NONE', #79, .T. ) ;
#156 = DIRECTION ( 'NONE',  ( -1.000000000000000000, 0.000000000000000000, -0.000000000000000000 ) ) ;
#157 =( LENGTH_UNIT ( ) NAMED_UNIT ( * ) SI_UNIT ( .MILLI., .METRE. ) );
#158 = VECTOR ( 'NONE', #211, 1000.000000000000000 ) ;
#159 = DIRECTION ( 'NONE',  ( -0.9659480515032440318, 0.02030019927884469180, 0.2579384882221444908 ) ) ;
#160 = ORIENTED_EDGE ( 'NONE', *, *, #141, .F. ) ;
#161 = CARTESIAN_POINT ( 'NONE',  ( 0.000000000000000000, 0.000000000000000000, 0.000000000000000000 ) ) ;
#162 = CARTESIAN_POINT ( 'NONE',  ( 22.00000000000000000, 0.000000000000000000, 0.000000000000000000 ) ) ;
#163 = AXIS2_PLACEMENT_3D ( 'NONE', #87, #69, #152 ) ;
#164 = EDGE_CURVE ( 'NONE', #22, #180, #11, .T. ) ;
#165 = ORIENTED_EDGE ( 'NONE', *, *, #207, .T. ) ;
#166 = AXIS2_PLACEMENT_3D ( 'NONE', #220, #134, #35 ) ;
#167 = CARTESIAN_POINT ( 'NONE',  ( -9.524999999999986144, 0.000000000000000000, 0.000000000000000000 ) ) ;
#168 = EDGE_CURVE ( 'NONE', #148, #22, #112, .T. ) ;
#169 = DIRECTION ( 'NONE',  ( 0.000000000000000000, -0.07845909572784560970, 0.9969173337331278528 ) ) ;
#170 = ORIENTED_EDGE ( 'NONE', *, *, #147, .T. ) ;
#171 = AXIS2_PLACEMENT_3D ( 'NONE', #131, #109, #12 ) ;
#172 = LINE ( 'NONE', #42, #57 ) ;
#173 = CARTESIAN_POINT ( 'NONE',  ( 22.00000000000000000, 0.000000000000000000, 0.000000000000000000 ) ) ;
#174 = CARTESIAN_POINT ( 'NONE',  ( 21.30000000000000071, 0.000000000000000000, 0.000000000000000000 ) ) ;
#175 = PLANE ( 'NONE',  #236 ) ;
#176 = AXIS2_PLACEMENT_3D ( 'NONE', #248, #27, #62 ) ;
#177 = VECTOR ( 'NONE', #196, 1000.000000000000000 ) ;
#178 = CARTESIAN_POINT ( 'NONE',  ( 0.000000000000000000, 0.000000000000000000, 0.000000000000000000 ) ) ;
#179 = CARTESIAN_POINT ( 'NONE',  ( 32.49999999999983658, 0.000000000000000000, 0.000000000000000000 ) ) ;
#180 = VERTEX_POINT ( 'NONE', #150 ) ;
#181 = APPLICATION_CONTEXT ( 'automotive_design' ) ;
#182 = ORIENTED_EDGE ( 'NONE', *, *, #66, .F. ) ;
#183 = EDGE_CURVE ( 'NONE', #61, #221, #95, .T. ) ;
#184 = CARTESIAN_POINT ( 'NONE',  ( 21.30000000000000071, -0.2353772871835369818, 2.990752001199385557 ) ) ;
#185 = CARTESIAN_POINT ( 'NONE',  ( 0.000000000000000000, 0.000000000000000000, 0.000000000000000000 ) ) ;
#186 = ORIENTED_EDGE ( 'NONE', *, *, #239, .F. ) ;
#187 = EDGE_LOOP ( 'NONE', ( #44, #82, #41, #8 ) ) ;
#188 = CARTESIAN_POINT ( 'NONE',  ( 22.00000000000000000, 0.000000000000000000, 0.000000000000000000 ) ) ;
#189 = DIRECTION ( 'NONE',  ( 0.000000000000000000, -0.07845909572784560970, -0.9969173337331278528 ) ) ;
#190 =( LENGTH_UNIT ( ) NAMED_UNIT ( * ) SI_UNIT ( .MILLI., .METRE. ) );
#191 = SURFACE_STYLE_USAGE ( .BOTH. , #229 ) ;
#192 = VECTOR ( 'NONE', #128, 1000.000000000000000 ) ;
#193 = CARTESIAN_POINT ( 'NONE',  ( -9.524999999999986144, 0.2353772871835369818, 2.990752001199385557 ) ) ;
#194 = LINE ( 'NONE', #162, #101 ) ;
#195 = MANIFOLD_SOLID_BREP ( 'Gap', #259 ) ;
#196 = DIRECTION ( 'NONE',  ( -0.9659480515032440318, -0.02030019927884469180, 0.2579384882221444908 ) ) ;
#197 = CONICAL_SURFACE ( 'NONE', #176, 3.000000000000000000, 0.2617135024012055555 ) ;
#198 = CARTESIAN_POINT ( 'NONE',  ( 32.49999999999983658, 0.000000000000000000, 0.000000000000000000 ) ) ;
#199 =( NAMED_UNIT ( * ) PLANE_ANGLE_UNIT ( ) SI_UNIT ( $, .RADIAN. ) );
#200 = AXIS2_PLACEMENT_3D ( 'NONE', #173, #252, #67 ) ;
#201 = ORIENTED_EDGE ( 'NONE', *, *, #92, .F. ) ;
#202 = EDGE_CURVE ( 'NONE', #148, #28, #74, .T. ) ;
#203 = EDGE_LOOP ( 'NONE', ( #100, #241, #170, #142 ) ) ;
#204 = CARTESIAN_POINT ( 'NONE',  ( 22.00000000000000000, 0.1765329653876526739, 2.243064000899538168 ) ) ;
#205 = ORIENTED_EDGE ( 'NONE', *, *, #40, .F. ) ;
#206 = VERTEX_POINT ( 'NONE', #138 ) ;
#207 = EDGE_CURVE ( 'NONE', #221, #108, #194, .T. ) ;
#208 = CARTESIAN_POINT ( 'NONE',  ( 22.00000000000000000, -0.2206662067345658007, 2.803830001124422378 ) ) ;
#209 = CIRCLE ( 'NONE', #166, 2.250000000000000444 ) ;
#210 = PLANE ( 'NONE',  #133 ) ;
#211 = DIRECTION ( 'NONE',  ( -1.000000000000000000, -0.000000000000000000, -0.000000000000000000 ) ) ;
#212 = UNCERTAINTY_MEASURE_WITH_UNIT (LENGTH_MEASURE( 1.000000000000000082E-05 ), #157, 'distance_accuracy_value', 'NONE');
#213 = PLANE ( 'NONE',  #200 ) ;
#214 = COLOUR_RGB ( '',0.7921568627450980005, 0.8196078431372548767, 0.9333333333333333481 ) ;
#215 = CARTESIAN_POINT ( 'NONE',  ( 0.000000000000000000, -0.2206662067345657730, 2.803830001124421933 ) ) ;
#216 =( NAMED_UNIT ( * ) PLANE_ANGLE_UNIT ( ) SI_UNIT ( $, .RADIAN. ) );
#217 = EDGE_LOOP ( 'NONE', ( #160, #225, #165, #63 ) ) ;
#218 = PRODUCT_CONTEXT ( 'NONE', #32, 'mechanical' ) ;
#219 = ADVANCED_FACE ( 'NONE', ( #116 ), #3, .F. ) ;
#220 = CARTESIAN_POINT ( 'NONE',  ( 0.000000000000000000, 0.000000000000000000, 0.000000000000000000 ) ) ;
#221 = VERTEX_POINT ( 'NONE', #75 ) ;
#222 = EDGE_LOOP ( 'NONE', ( #201, #144, #238, #9 ) ) ;
#223 = ORIENTED_EDGE ( 'NONE', *, *, #58, .T. ) ;
#224 = ORIENTED_EDGE ( 'NONE', *, *, #247, .T. ) ;
#225 = ORIENTED_EDGE ( 'NONE', *, *, #183, .T. ) ;
#226 = DIRECTION ( 'NONE',  ( -0.9659480515032450310, -0.02030019927884442812, -0.2579384882221411601 ) ) ;
#227 = FILL_AREA_STYLE ('',( #15 ) ) ;
#228 = DIRECTION ( 'NONE',  ( -1.000000000000000000, -0.000000000000000000, -0.000000000000000000 ) ) ;
#229 = SURFACE_SIDE_STYLE ('',( #154 ) ) ;
#230 = CARTESIAN_POINT ( 'NONE',  ( 0.000000000000000000, 0.000000000000000000, 0.000000000000000000 ) ) ;
#231 = PRODUCT_DEFINITION_FORMATION_WITH_SPECIFIED_SOURCE ( 'Symmetric', '', #21, .NOT_KNOWN. ) ;
#232 = CARTESIAN_POINT ( 'NONE',  ( 22.00000000000000000, 0.2206662067345658007, 2.803830001124422378 ) ) ;
#233 = VECTOR ( 'NONE', #113, 1000.000000000000114 ) ;
#234 = ADVANCED_FACE ( 'NONE', ( #76 ), #121, .T. ) ;
#235 = DIRECTION ( 'NONE',  ( 0.000000000000000000, 0.000000000000000000, 1.000000000000000000 ) ) ;
#236 = AXIS2_PLACEMENT_3D ( 'NONE', #68, #156, #250 ) ;
#237 = ORIENTED_EDGE ( 'NONE', *, *, #251, .F. ) ;
#238 = ORIENTED_EDGE ( 'NONE', *, *, #40, .T. ) ;
#239 = EDGE_CURVE ( 'NONE', #108, #28, #18, .T. ) ;
#240 = DIRECTION ( 'NONE',  ( -1.000000000000000000, -0.000000000000000000, -0.000000000000000000 ) ) ;
#241 = ORIENTED_EDGE ( 'NONE', *, *, #202, .T. ) ;
#242 = PRODUCT_DEFINITION_SHAPE ( 'NONE', 'NONE',  #49 ) ;
#243 = CARTESIAN_POINT ( 'NONE',  ( 22.00000000000000000, 0.000000000000000000, 0.000000000000000000 ) ) ;
#244 = ORIENTED_EDGE ( 'NONE', *, *, #247, .F. ) ;
#245 = ORIENTED_EDGE ( 'NONE', *, *, #168, .T. ) ;
#246 = ORIENTED_EDGE ( 'NONE', *, *, #147, .F. ) ;
#247 = EDGE_CURVE ( 'NONE', #103, #106, #26, .T. ) ;
#248 = CARTESIAN_POINT ( 'NONE',  ( 0.6999999999999992895, 0.000000000000000000, 0.000000000000000000 ) ) ;
#249 = AXIS2_PLACEMENT_3D ( 'NONE', #243, #97, #20 ) ;
#250 = DIRECTION ( 'NONE',  ( -0.000000000000000000, 0.000000000000000000, 1.000000000000000000 ) ) ;
#251 = EDGE_CURVE ( 'NONE', #206, #10, #209, .T. ) ;
#252 = DIRECTION ( 'NONE',  ( 0.000000000000000000, -0.9969173337331279638, -0.07845909572784562358 ) ) ;
#253 = FACE_OUTER_BOUND ( 'NONE', #124, .T. ) ;
#254 = AXIS2_PLACEMENT_3D ( 'NONE', #178, #53, #55 ) ;
#255 =( GEOMETRIC_REPRESENTATION_CONTEXT ( 3 ) GLOBAL_UNCERTAINTY_ASSIGNED_CONTEXT ( ( #151 ) ) GLOBAL_UNIT_ASSIGNED_CONTEXT ( ( #190, #199, #73 ) ) REPRESENTATION_CONTEXT ( 'NONE', 'WORKASPACE' ) );
#256 = LINE ( 'NONE', #30, #96 ) ;
#257 = CARTESIAN_POINT ( 'NONE',  ( 0.000000000000000000, 0.2206662067345658285, 2.803830001124422822 ) ) ;
#258 = EDGE_CURVE ( 'NONE', #123, #148, #117, .T. ) ;
#259 = CLOSED_SHELL ( 'NONE', ( #219, #46, #78, #234, #114, #23, #72, #126 ) ) ;
ENDSEC;
END-ISO-10303-21;
