ISO-10303-21;
HEADER;
FILE_DESCRIPTION (( 'STEP AP214' ),
    '1' );
FILE_NAME ('ISO 7045 - M4 x 35 - Z - 35N.STEP',
    '2025-07-29T15:59:07',
    ( '' ),
    ( '' ),
    'SwSTEP 2.0',
    'SolidWorks 2025',
    '' );
FILE_SCHEMA (( 'AUTOMOTIVE_DESIGN' ));
ENDSEC;

DATA;
#1 = DIRECTION ( 'NONE',  ( 1.224775218828482764E-16, 1.260700200564540091E-16, -1.000000000000000000 ) ) ;
#2 = CIRCLE ( 'NONE', #401, 3.999999999999999112 ) ;
#3 = AXIS2_PLACEMENT_3D ( 'NONE', #630, #288, #705 ) ;
#4 = ORIENTED_EDGE ( 'NONE', *, *, #15, .F. ) ;
#5 = ADVANCED_FACE ( 'NONE', ( #444 ), #138, .T. ) ;
#6 = LINE ( 'NONE', #795, #29 ) ;
#7 = DIRECTION ( 'NONE',  ( -0.8949343913984054710, 0.4461977533475100510, 0.000000000000000000 ) ) ;
#8 = CIRCLE ( 'NONE', #408, 6.479565957685745836 ) ;
#9 = ORIENTED_EDGE ( 'NONE', *, *, #672, .T. ) ;
#10 = CARTESIAN_POINT ( 'NONE',  ( 0.07880998200162468714, 0.5149999999999970157, 0.8678097445627274142 ) ) ;
#11 = VECTOR ( 'NONE', #30, 1000.000000000000000 ) ;
#12 = EDGE_LOOP ( 'NONE', ( #467, #373, #235, #208 ) ) ;
#13 = FACE_OUTER_BOUND ( 'NONE', #471, .T. ) ;
#14 = DIRECTION ( 'NONE',  ( 0.000000000000000000, 1.000000000000000000, 0.000000000000000000 ) ) ;
#15 = EDGE_CURVE ( 'NONE', #447, #182, #97, .T. ) ;
#16 = EDGE_LOOP ( 'NONE', ( #199, #111, #313, #614, #394, #419, #257, #87, #301, #241, #350, #367, #572, #656, #546, #483 ) ) ;
#17 = B_SPLINE_CURVE_WITH_KNOTS ( 'NONE', 3,
 ( #500, #441, #381, #386 ),
 .UNSPECIFIED., .F., .F.,
 ( 4, 4 ),
 ( 0.004243790223852922198, 0.006512406267628397839 ),
 .UNSPECIFIED. ) ;
#18 = DIRECTION ( 'NONE',  ( -0.000000000000000000, 0.000000000000000000, 1.000000000000000000 ) ) ;
#19 = FACE_OUTER_BOUND ( 'NONE', #71, .T. ) ;
#20 = ORIENTED_EDGE ( 'NONE', *, *, #15, .T. ) ;
#21 = AXIS2_PLACEMENT_3D ( 'NONE', #577, #528, #94 ) ;
#22 = DIRECTION ( 'NONE',  ( 0.8949343913984795229, 0.4461977533473616697, 1.658615062198673842E-16 ) ) ;
#23 = CARTESIAN_POINT ( 'NONE',  ( 0.000000000000000000, 0.5149999999999925748, 2.149999999999999911 ) ) ;
#24 = DIRECTION ( 'NONE',  ( 0.000000000000000000, 0.000000000000000000, 1.000000000000000000 ) ) ;
#25 = CARTESIAN_POINT ( 'NONE',  ( 0.07880998200162532552, 0.5150000000000031219, -0.8678097445627236395 ) ) ;
#26 = ADVANCED_FACE ( 'NONE', ( #50 ), #420, .F. ) ;
#27 = FACE_OUTER_BOUND ( 'NONE', #203, .T. ) ;
#28 = EDGE_LOOP ( 'NONE', ( #499, #130, #631, #9 ) ) ;
#29 = VECTOR ( 'NONE', #623, 1000.000000000000114 ) ;
#30 = DIRECTION ( 'NONE',  ( 0.000000000000000000, 1.000000000000000000, 3.280956645156627724E-15 ) ) ;
#31 = TOROIDAL_SURFACE ( 'NONE', #388, 3.639999999999999236, 0.3600000000000003197 ) ;
#32 = EDGE_CURVE ( 'NONE', #361, #628, #520, .T. ) ;
#33 = DIRECTION ( 'NONE',  ( 1.224775218828482764E-16, 1.260700200564540091E-16, -1.000000000000000000 ) ) ;
#34 = CARTESIAN_POINT ( 'NONE',  ( 2.339999999999999858, -0.5150000000000034550, 0.9833192322604984437 ) ) ;
#35 = LINE ( 'NONE', #404, #341 ) ;
#36 = DIRECTION ( 'NONE',  ( 1.000000000000000000, 0.000000000000000000, 0.000000000000000000 ) ) ;
#37 = AXIS2_PLACEMENT_3D ( 'NONE', #654, #771, #99 ) ;
#38 = DIRECTION ( 'NONE',  ( 0.8949343913984054710, 1.557891129246563043E-15, -0.4461977533475101620 ) ) ;
#39 = VERTEX_POINT ( 'NONE', #217 ) ;
#40 =( GEOMETRIC_REPRESENTATION_CONTEXT ( 3 ) GLOBAL_UNCERTAINTY_ASSIGNED_CONTEXT ( ( #332 ) ) GLOBAL_UNIT_ASSIGNED_CONTEXT ( ( #667, #368, #617 ) ) REPRESENTATION_CONTEXT ( 'NONE', 'WORKASPACE' ) );
#41 = DIRECTION ( 'NONE',  ( 0.4461977533473617807, 3.124646727056728209E-15, -0.8949343913984795229 ) ) ;
#42 = EDGE_CURVE ( 'NONE', #669, #609, #90, .T. ) ;
#43 = DIRECTION ( 'NONE',  ( 0.000000000000000000, -3.614249330683746798E-15, 1.000000000000000000 ) ) ;
#44 = ORIENTED_EDGE ( 'NONE', *, *, #339, .T. ) ;
#45 = DIRECTION ( 'NONE',  ( -1.000000000000000000, -0.000000000000000000, -0.000000000000000000 ) ) ;
#46 = CARTESIAN_POINT ( 'NONE',  ( 0.000000000000000000, 0.5149999999999925748, 2.150000000000001688 ) ) ;
#47 = ORIENTED_EDGE ( 'NONE', *, *, #487, .T. ) ;
#48 = DIRECTION ( 'NONE',  ( 0.000000000000000000, 0.000000000000000000, -1.000000000000000000 ) ) ;
#49 = AXIS2_PLACEMENT_3D ( 'NONE', #250, #611, #747 ) ;
#50 = FACE_OUTER_BOUND ( 'NONE', #597, .T. ) ;
#51 = VERTEX_POINT ( 'NONE', #639 ) ;
#52 = ADVANCED_FACE ( 'NONE', ( #106 ), #153, .T. ) ;
#53 = AXIS2_PLACEMENT_3D ( 'NONE', #620, #554, #191 ) ;
#54 = FACE_OUTER_BOUND ( 'NONE', #503, .T. ) ;
#55 = ORIENTED_EDGE ( 'NONE', *, *, #42, .T. ) ;
#56 = DIRECTION ( 'NONE',  ( 1.000000000000000000, 0.000000000000000000, 0.000000000000000000 ) ) ;
#57 = ADVANCED_FACE ( 'NONE', ( #531 ), #172, .F. ) ;
#58 = AXIS2_PLACEMENT_3D ( 'NONE', #464, #560, #698 ) ;
#59 = AXIS2_PLACEMENT_3D ( 'NONE', #23, #89, #750 ) ;
#60 = ORIENTED_EDGE ( 'NONE', *, *, #647, .T. ) ;
#61 = DIRECTION ( 'NONE',  ( 0.000000000000000000, 0.000000000000000000, 1.000000000000000000 ) ) ;
#62 = ADVANCED_FACE ( 'NONE', ( #352 ), #298, .T. ) ;
#63 = ORIENTED_EDGE ( 'NONE', *, *, #696, .T. ) ;
#64 = DIRECTION ( 'NONE',  ( -1.000000000000000000, -0.000000000000000000, -0.000000000000000000 ) ) ;
#65 = FACE_OUTER_BOUND ( 'NONE', #12, .T. ) ;
#66 = VERTEX_POINT ( 'NONE', #715 ) ;
#67 = DIRECTION ( 'NONE',  ( -1.000000000000000000, -0.000000000000000000, -0.000000000000000000 ) ) ;
#68 = CARTESIAN_POINT ( 'NONE',  ( 2.339999999999999858, 0.9833192322605002200, 0.5149999999999999023 ) ) ;
#69 = ORIENTED_EDGE ( 'NONE', *, *, #515, .T. ) ;
#70 = PLANE ( 'NONE',  #760 ) ;
#71 = EDGE_LOOP ( 'NONE', ( #585, #291, #772, #79 ) ) ;
#72 = DIRECTION ( 'NONE',  ( 0.000000000000000000, 0.000000000000000000, 1.000000000000000000 ) ) ;
#73 = ADVANCED_FACE ( 'NONE', ( #230 ), #283, .T. ) ;
#74 = DIRECTION ( 'NONE',  ( 0.000000000000000000, 1.000000000000000000, 1.260700200564540091E-16 ) ) ;
#75 = ORIENTED_EDGE ( 'NONE', *, *, #405, .T. ) ;
#76 = CARTESIAN_POINT ( 'NONE',  ( 1.586512658500330186, -0.7436618653472092388, -0.5150000000000000133 ) ) ;
#77 = PRODUCT_DEFINITION ( 'General', '', #179, #724 ) ;
#78 = AXIS2_PLACEMENT_3D ( 'NONE', #147, #214, #335 ) ;
#79 = ORIENTED_EDGE ( 'NONE', *, *, #418, .T. ) ;
#80 = CARTESIAN_POINT ( 'NONE',  ( 0.07880998200162411815, 0.8678097445627187545, -0.5150000000000000133 ) ) ;
#81 = APPLICATION_CONTEXT ( 'automotive_design' ) ;
#82 = ADVANCED_FACE ( 'NONE', ( #346 ), #349, .T. ) ;
#83 = ORIENTED_EDGE ( 'NONE', *, *, #223, .F. ) ;
#84 = CIRCLE ( 'NONE', #392, 0.8509999999999999787 ) ;
#85 = CARTESIAN_POINT ( 'NONE',  ( 3.100000000000000533, 0.000000000000000000, 2.200000000000000178 ) ) ;
#86 = CARTESIAN_POINT ( 'NONE',  ( 0.000000000000000000, 0.5149999999999925748, 2.149999999999999911 ) ) ;
#87 = ORIENTED_EDGE ( 'NONE', *, *, #393, .F. ) ;
#88 = CARTESIAN_POINT ( 'NONE',  ( 2.339999999999999858, 0.5150000000000035660, -0.9833192322609828340 ) ) ;
#89 = DIRECTION ( 'NONE',  ( 0.000000000000000000, -1.000000000000000000, -3.491481338843133355E-15 ) ) ;
#90 = LINE ( 'NONE', #765, #457 ) ;
#91 = CARTESIAN_POINT ( 'NONE',  ( 2.339999999999999858, -0.5150000000000034550, 0.9833192322604984437 ) ) ;
#92 = EDGE_CURVE ( 'NONE', #359, #790, #8, .T. ) ;
#93 = CARTESIAN_POINT ( 'NONE',  ( 3.300000000000000711, 0.000000000000000000, 0.000000000000000000 ) ) ;
#94 = DIRECTION ( 'NONE',  ( 0.000000000000000000, 0.000000000000000000, 1.000000000000000000 ) ) ;
#95 = ORIENTED_EDGE ( 'NONE', *, *, #282, .F. ) ;
#96 = FACE_OUTER_BOUND ( 'NONE', #463, .T. ) ;
#97 = CIRCLE ( 'NONE', #719, 0.8509999999999999787 ) ;
#98 = DIRECTION ( 'NONE',  ( 0.000000000000000000, 0.000000000000000000, 1.000000000000000000 ) ) ;
#99 = DIRECTION ( 'NONE',  ( -0.8949343913984054710, 0.4461977533475101065, 0.000000000000000000 ) ) ;
#100 = ORIENTED_EDGE ( 'NONE', *, *, #362, .F. ) ;
#101 = DIRECTION ( 'NONE',  ( 0.000000000000000000, 3.656870482609724350E-15, -1.000000000000000000 ) ) ;
#102 = DIRECTION ( 'NONE',  ( 0.000000000000000000, 0.000000000000000000, 1.000000000000000000 ) ) ;
#103 = ORIENTED_EDGE ( 'NONE', *, *, #254, .T. ) ;
#104 = DIRECTION ( 'NONE',  ( 0.000000000000000000, -1.000000000000000000, -3.491481338843133355E-15 ) ) ;
#105 = AXIS2_PLACEMENT_3D ( 'NONE', #714, #592, #48 ) ;
#106 = FACE_OUTER_BOUND ( 'NONE', #480, .T. ) ;
#107 = EDGE_CURVE ( 'NONE', #526, #66, #289, .T. ) ;
#108 = ORIENTED_EDGE ( 'NONE', *, *, #118, .T. ) ;
#109 = CARTESIAN_POINT ( 'NONE',  ( 0.07880998200162411815, 0.8678097445627187545, 0.5149999999999995692 ) ) ;
#110 = CIRCLE ( 'NONE', #21, 2.000000000000000000 ) ;
#111 = ORIENTED_EDGE ( 'NONE', *, *, #240, .F. ) ;
#112 = APPLICATION_CONTEXT ( 'automotive_design' ) ;
#113 = EDGE_CURVE ( 'NONE', #277, #673, #243, .T. ) ;
#114 = DIRECTION ( 'NONE',  ( -1.000000000000000000, -0.000000000000000000, -0.000000000000000000 ) ) ;
#115 = VERTEX_POINT ( 'NONE', #402 ) ;
#116 = DIRECTION ( 'NONE',  ( 0.8949343913984795229, -1.723752635465911875E-15, 0.4461977533473616697 ) ) ;
#117 = CIRCLE ( 'NONE', #514, 1.009117809157098922 ) ;
#118 = EDGE_CURVE ( 'NONE', #330, #330, #110, .T. ) ;
#119 = ORIENTED_EDGE ( 'NONE', *, *, #729, .F. ) ;
#120 = CARTESIAN_POINT ( 'NONE',  ( 0.8327192892707027116, 0.5149999999999972378, 0.8065069628489066611 ) ) ;
#121 = CARTESIAN_POINT ( 'NONE',  ( 0.000000000000000000, -2.149999999999998135, 0.5149999999999992362 ) ) ;
#122 = ORIENTED_EDGE ( 'NONE', *, *, #599, .T. ) ;
#123 = DIRECTION ( 'NONE',  ( 0.4461977533473617807, -0.8949343913984795229, 0.000000000000000000 ) ) ;
#124 = PRODUCT_DEFINITION_SHAPE ( 'NONE', 'NONE',  #77 ) ;
#125 = VERTEX_POINT ( 'NONE', #34 ) ;
#126 = CARTESIAN_POINT ( 'NONE',  ( -25.39999999999996305, 0.000000000000000000, 0.000000000000000000 ) ) ;
#127 = CARTESIAN_POINT ( 'NONE',  ( 0.3318305201578629626, -1.984555433326062879, -0.5150000000000000133 ) ) ;
#128 = AXIS2_PLACEMENT_3D ( 'NONE', #490, #67, #72 ) ;
#129 = AXIS2_PLACEMENT_3D ( 'NONE', #709, #114, #61 ) ;
#130 = ORIENTED_EDGE ( 'NONE', *, *, #745, .F. ) ;
#131 = EDGE_CURVE ( 'NONE', #266, #609, #84, .T. ) ;
#132 = CYLINDRICAL_SURFACE ( 'NONE', #792, 2.000000000000000000 ) ;
#133 = DIRECTION ( 'NONE',  ( 1.224775218828482764E-16, 1.000000000000000000, 3.617551358899587488E-15 ) ) ;
#134 = ORIENTED_EDGE ( 'NONE', *, *, #233, .T. ) ;
#135 = CARTESIAN_POINT ( 'NONE',  ( 1.586512658500329298, 0.7436618653472093499, -0.5150000000000000133 ) ) ;
#136 = DIRECTION ( 'NONE',  ( 0.8949343913984054710, 1.474960376136636094E-15, -0.4461977533475101065 ) ) ;
#137 = VECTOR ( 'NONE', #139, 1000.000000000000000 ) ;
#138 = PLANE ( 'NONE',  #308 ) ;
#139 = DIRECTION ( 'NONE',  ( 0.000000000000000000, -1.000000000000000000, -3.702006032529638986E-15 ) ) ;
#140 = CARTESIAN_POINT ( 'NONE',  ( 0.07880998200162411815, -0.8678097445627289686, 0.5149999999999993472 ) ) ;
#141 = EDGE_CURVE ( 'NONE', #412, #649, #213, .T. ) ;
#142 = CARTESIAN_POINT ( 'NONE',  ( 2.339999999999999858, 0.000000000000000000, 0.000000000000000000 ) ) ;
#143 = AXIS2_PLACEMENT_3D ( 'NONE', #384, #624, #327 ) ;
#144 = DIRECTION ( 'NONE',  ( -0.000000000000000000, 0.000000000000000000, 1.000000000000000000 ) ) ;
#145 = CARTESIAN_POINT ( 'NONE',  ( 0.07880998200162436795, -0.5150000000000026779, 0.8678097445627241946 ) ) ;
#146 = ORIENTED_EDGE ( 'NONE', *, *, #228, .T. ) ;
#147 = CARTESIAN_POINT ( 'NONE',  ( 6.064432258795711128, -2.154762605453414230E-15, -0.8736138818786196580 ) ) ;
#148 = DIRECTION ( 'NONE',  ( 0.000000000000000000, 0.000000000000000000, 1.000000000000000000 ) ) ;
#149 = CONICAL_SURFACE ( 'NONE', #596, 0.8509999999999999787, 0.06981317007976593769 ) ;
#150 = ORIENTED_EDGE ( 'NONE', *, *, #205, .F. ) ;
#151 = CARTESIAN_POINT ( 'NONE',  ( 6.499999999999999112, -5.021051876504148963E-15, -0.5150000000000000133 ) ) ;
#152 = CARTESIAN_POINT ( 'NONE',  ( 2.339999999999999858, 0.9833192322605002200, 0.5149999999999999023 ) ) ;
#153 = PLANE ( 'NONE',  #256 ) ;
#154 = EDGE_LOOP ( 'NONE', ( #702, #495, #227, #429 ) ) ;
#155 = LINE ( 'NONE', #88, #383 ) ;
#156 = ADVANCED_FACE ( 'NONE', ( #358, #469 ), #428, .T. ) ;
#157 = VECTOR ( 'NONE', #497, 1000.000000000000000 ) ;
#158 = FACE_OUTER_BOUND ( 'NONE', #295, .T. ) ;
#159 = DIRECTION ( 'NONE',  ( 0.000000000000000000, 0.000000000000000000, 1.000000000000000000 ) ) ;
#160 = ORIENTED_EDGE ( 'NONE', *, *, #323, .F. ) ;
#161 = AXIS2_PLACEMENT_3D ( 'NONE', #779, #432, #14 ) ;
#162 = DIRECTION ( 'NONE',  ( -0.000000000000000000, 0.000000000000000000, 1.000000000000000000 ) ) ;
#163 = DIRECTION ( 'NONE',  ( 1.000000000000000000, 0.000000000000000000, 0.000000000000000000 ) ) ;
#164 = ORIENTED_EDGE ( 'NONE', *, *, #339, .F. ) ;
#165 = DIRECTION ( 'NONE',  ( -1.000000000000000000, -0.000000000000000000, -0.000000000000000000 ) ) ;
#166 = EDGE_CURVE ( 'NONE', #403, #563, #593, .T. ) ;
#167 = DIRECTION ( 'NONE',  ( -0.8949343913984794119, 0.000000000000000000, -0.4461977533473617807 ) ) ;
#168 = AXIS2_PLACEMENT_3D ( 'NONE', #542, #178, #162 ) ;
#169 = ORIENTED_EDGE ( 'NONE', *, *, #113, .T. ) ;
#170 = CARTESIAN_POINT ( 'NONE',  ( 0.07880998200162379896, -0.5149999999999963496, -0.8678097445627277473 ) ) ;
#171 = EDGE_CURVE ( 'NONE', #710, #334, #296, .T. ) ;
#172 = PLANE ( 'NONE',  #37 ) ;
#173 = ORIENTED_EDGE ( 'NONE', *, *, #739, .F. ) ;
#174 = CARTESIAN_POINT ( 'NONE',  ( 2.339999999999999858, 0.000000000000000000, 0.000000000000000000 ) ) ;
#175 = AXIS2_PLACEMENT_3D ( 'NONE', #294, #411, #521 ) ;
#176 = ORIENTED_EDGE ( 'NONE', *, *, #282, .T. ) ;
#177 = ADVANCED_FACE ( 'NONE', ( #556 ), #561, .T. ) ;
#178 = DIRECTION ( 'NONE',  ( -1.000000000000000000, 0.000000000000000000, -0.000000000000000000 ) ) ;
#179 = PRODUCT_DEFINITION_FORMATION_WITH_SPECIFIED_SOURCE ( 'Symmetric', '', #552, .NOT_KNOWN. ) ;
#180 = ORIENTED_EDGE ( 'NONE', *, *, #382, .F. ) ;
#181 = CARTESIAN_POINT ( 'NONE',  ( 0.8327192892707037108, 0.8065069628489047737, -0.5150000000000000133 ) ) ;
#182 = VERTEX_POINT ( 'NONE', #442 ) ;
#183 = CARTESIAN_POINT ( 'NONE',  ( 1.586512658500283335, 0.5149999999999974598, 0.7436618653472151230 ) ) ;
#184 = VECTOR ( 'NONE', #202, 1000.000000000000000 ) ;
#185 = ORIENTED_EDGE ( 'NONE', *, *, #590, .F. ) ;
#186 = DIRECTION ( 'NONE',  ( -1.000000000000000000, 0.000000000000000000, -0.000000000000000000 ) ) ;
#187 = AXIS2_PLACEMENT_3D ( 'NONE', #375, #311, #547 ) ;
#188 = LINE ( 'NONE', #668, #616 ) ;
#189 = ADVANCED_FACE ( 'NONE', ( #505 ), #70, .F. ) ;
#190 = ORIENTED_EDGE ( 'NONE', *, *, #228, .F. ) ;
#191 = DIRECTION ( 'NONE',  ( -0.8949343913984054710, -1.557891129246562846E-15, 0.4461977533475101065 ) ) ;
#192 = CARTESIAN_POINT ( 'NONE',  ( 6.499999999999999112, -0.5150000000000002354, -1.863038949833270489E-15 ) ) ;
#193 = AXIS2_PLACEMENT_3D ( 'NONE', #331, #565, #98 ) ;
#194 = EDGE_CURVE ( 'NONE', #710, #563, #730, .T. ) ;
#195 = ORIENTED_EDGE ( 'NONE', *, *, #745, .T. ) ;
#196 = PLANE ( 'NONE',  #236 ) ;
#197 = B_SPLINE_CURVE_WITH_KNOTS ( 'NONE', 3,
 ( #728, #76, #496, #791 ),
 .UNSPECIFIED., .F., .F.,
 ( 4, 4 ),
 ( 0.004243790223852924801, 0.006512406267628399574 ),
 .UNSPECIFIED. ) ;
#198 = DIRECTION ( 'NONE',  ( 1.224775218828482764E-16, 1.260700200564540091E-16, -1.000000000000000000 ) ) ;
#199 = ORIENTED_EDGE ( 'NONE', *, *, #456, .F. ) ;
#200 = PLANE ( 'NONE',  #58 ) ;
#201 = ADVANCED_FACE ( 'NONE', ( #19 ), #322, .T. ) ;
#202 = DIRECTION ( 'NONE',  ( 0.000000000000000000, -2.105246936865057050E-16, -1.000000000000000000 ) ) ;
#203 = EDGE_LOOP ( 'NONE', ( #491, #581, #95, #180 ) ) ;
#204 = CARTESIAN_POINT ( 'NONE',  ( 0.000000000000000000, -2.149999999999999911, 0.5149999999999992362 ) ) ;
#205 = EDGE_CURVE ( 'NONE', #628, #266, #774, .T. ) ;
#206 = LINE ( 'NONE', #523, #770 ) ;
#207 = AXIS2_PLACEMENT_3D ( 'NONE', #151, #18, #632 ) ;
#208 = ORIENTED_EDGE ( 'NONE', *, *, #141, .F. ) ;
#209 = VECTOR ( 'NONE', #485, 1000.000000000000227 ) ;
#210 = CARTESIAN_POINT ( 'NONE',  ( 3.099999999999998757, 0.000000000000000000, 4.000000000000000000 ) ) ;
#211 = CARTESIAN_POINT ( 'NONE',  ( 3.100000000000000533, 0.000000000000000000, 0.000000000000000000 ) ) ;
#212 = EDGE_LOOP ( 'NONE', ( #100 ) ) ;
#213 = CIRCLE ( 'NONE', #470, 6.426280380454415742 ) ;
#214 = DIRECTION ( 'NONE',  ( 0.4461977533475101065, -2.936240938437800596E-15, 0.8949343913984054710 ) ) ;
#215 = PLANE ( 'NONE',  #59 ) ;
#216 = ADVANCED_FACE ( 'NONE', ( #737, #263 ), #675, .T. ) ;
#217 = CARTESIAN_POINT ( 'NONE',  ( 2.339999999999999858, -0.5150000000000023448, 0.6774776749089209682 ) ) ;
#218 = ORIENTED_EDGE ( 'NONE', *, *, #418, .F. ) ;
#219 = DIRECTION ( 'NONE',  ( -1.000000000000000000, -0.000000000000000000, -0.000000000000000000 ) ) ;
#220 = FACE_OUTER_BOUND ( 'NONE', #231, .T. ) ;
#221 = AXIS2_PLACEMENT_3D ( 'NONE', #582, #660, #781 ) ;
#222 = DIRECTION ( 'NONE',  ( -1.000000000000000000, 0.000000000000000000, -0.000000000000000000 ) ) ;
#223 = EDGE_CURVE ( 'NONE', #365, #619, #188, .T. ) ;
#224 = VERTEX_POINT ( 'NONE', #127 ) ;
#225 = CARTESIAN_POINT ( 'NONE',  ( 2.339999999999999858, -0.6774776749089228556, -0.5150000000000000133 ) ) ;
#226 = CARTESIAN_POINT ( 'NONE',  ( 6.064432258796357722, -8.071258442434397551E-15, 0.8736138818776860715 ) ) ;
#227 = ORIENTED_EDGE ( 'NONE', *, *, #254, .F. ) ;
#228 = EDGE_CURVE ( 'NONE', #790, #125, #369, .T. ) ;
#229 = DIRECTION ( 'NONE',  ( 0.000000000000000000, 3.497120880152329194E-15, -1.000000000000000000 ) ) ;
#230 = FACE_OUTER_BOUND ( 'NONE', #28, .T. ) ;
#231 = EDGE_LOOP ( 'NONE', ( #685, #150, #160, #605 ) ) ;
#232 = LINE ( 'NONE', #242, #209 ) ;
#233 = EDGE_CURVE ( 'NONE', #287, #447, #376, .T. ) ;
#234 = CARTESIAN_POINT ( 'NONE',  ( 2.339999999999999858, 0.9833192322604999980, -0.5150000000000001243 ) ) ;
#235 = ORIENTED_EDGE ( 'NONE', *, *, #568, .F. ) ;
#236 = AXIS2_PLACEMENT_3D ( 'NONE', #325, #186, #488 ) ;
#237 = CIRCLE ( 'NONE', #539, 6.479565957685744948 ) ;
#238 = FACE_OUTER_BOUND ( 'NONE', #786, .T. ) ;
#239 = CIRCLE ( 'NONE', #129, 4.000000000000000000 ) ;
#240 = EDGE_CURVE ( 'NONE', #412, #544, #452, .T. ) ;
#241 = ORIENTED_EDGE ( 'NONE', *, *, #726, .F. ) ;
#242 = CARTESIAN_POINT ( 'NONE',  ( 0.000000000000000000, 2.149999999999999911, 0.5149999999999996803 ) ) ;
#243 = CIRCLE ( 'NONE', #431, 1.009117809157098922 ) ;
#244 = ORIENTED_EDGE ( 'NONE', *, *, #290, .F. ) ;
#245 = FACE_OUTER_BOUND ( 'NONE', #634, .T. ) ;
#246 =( GEOMETRIC_REPRESENTATION_CONTEXT ( 3 ) GLOBAL_UNCERTAINTY_ASSIGNED_CONTEXT ( ( #676 ) ) GLOBAL_UNIT_ASSIGNED_CONTEXT ( ( #413, #663, #586 ) ) REPRESENTATION_CONTEXT ( 'NONE', 'WORKASPACE' ) );
#247 = ORIENTED_EDGE ( 'NONE', *, *, #233, .F. ) ;
#248 = FACE_BOUND ( 'NONE', #662, .T. ) ;
#249 = VECTOR ( 'NONE', #788, 1000.000000000000000 ) ;
#250 = CARTESIAN_POINT ( 'NONE',  ( 2.339999999999999858, 0.000000000000000000, 0.000000000000000000 ) ) ;
#251 = CIRCLE ( 'NONE', #692, 2.200000000000000178 ) ;
#252 = EDGE_LOOP ( 'NONE', ( #378 ) ) ;
#253 = CARTESIAN_POINT ( 'NONE',  ( 2.339999999999999858, 0.5149999999999976819, 0.6774776749089244099 ) ) ;
#254 = EDGE_CURVE ( 'NONE', #224, #287, #268, .T. ) ;
#255 = DIRECTION ( 'NONE',  ( 0.8949343913984795229, 0.4461977533473617807, 0.000000000000000000 ) ) ;
#256 = AXIS2_PLACEMENT_3D ( 'NONE', #584, #407, #643 ) ;
#257 = ORIENTED_EDGE ( 'NONE', *, *, #171, .T. ) ;
#258 = CARTESIAN_POINT ( 'NONE',  ( 0.07880998200162411815, 0.8678097445627187545, -0.5150000000000000133 ) ) ;
#259 = CARTESIAN_POINT ( 'NONE',  ( -25.39999999999996305, 0.000000000000000000, 0.000000000000000000 ) ) ;
#260 = EDGE_CURVE ( 'NONE', #272, #371, #540, .T. ) ;
#261 = ORIENTED_EDGE ( 'NONE', *, *, #427, .F. ) ;
#262 = SURFACE_STYLE_USAGE ( .BOTH. , #732 ) ;
#263 = FACE_OUTER_BOUND ( 'NONE', #681, .T. ) ;
#264 = AXIS2_PLACEMENT_3D ( 'NONE', #174, #778, #468 ) ;
#265 = ADVANCED_FACE ( 'NONE', ( #65 ), #312, .F. ) ;
#266 = VERTEX_POINT ( 'NONE', #695 ) ;
#267 = FACE_OUTER_BOUND ( 'NONE', #757, .T. ) ;
#268 = LINE ( 'NONE', #379, #278 ) ;
#269 = ORIENTED_EDGE ( 'NONE', *, *, #382, .T. ) ;
#270 = LINE ( 'NONE', #91, #11 ) ;
#271 = CARTESIAN_POINT ( 'NONE',  ( 1.586512658500282447, 0.5150000000000026779, -0.7436618653472116813 ) ) ;
#272 = VERTEX_POINT ( 'NONE', #340 ) ;
#273 = CARTESIAN_POINT ( 'NONE',  ( 3.300000000000000711, 0.000000000000000000, 2.000000000000000000 ) ) ;
#274 = DIRECTION ( 'NONE',  ( 1.000000000000000000, 0.000000000000000000, 0.000000000000000000 ) ) ;
#275 = AXIS2_PLACEMENT_3D ( 'NONE', #711, #165, #657 ) ;
#276 = AXIS2_PLACEMENT_3D ( 'NONE', #522, #280, #763 ) ;
#277 = VERTEX_POINT ( 'NONE', #80 ) ;
#278 = VECTOR ( 'NONE', #684, 1000.000000000000114 ) ;
#279 = AXIS2_PLACEMENT_3D ( 'NONE', #259, #733, #501 ) ;
#280 = DIRECTION ( 'NONE',  ( -1.000000000000000000, -0.000000000000000000, -0.000000000000000000 ) ) ;
#281 = CARTESIAN_POINT ( 'NONE',  ( 1.555305873969557107, 0.000000000000000000, 0.000000000000000000 ) ) ;
#282 = EDGE_CURVE ( 'NONE', #182, #39, #292, .T. ) ;
#283 = PLANE ( 'NONE',  #484 ) ;
#284 = DIRECTION ( 'NONE',  ( 0.000000000000000000, 0.000000000000000000, 1.000000000000000000 ) ) ;
#285 = DIRECTION ( 'NONE',  ( 0.000000000000000000, 0.000000000000000000, 1.000000000000000000 ) ) ;
#286 = DIRECTION ( 'NONE',  ( 0.000000000000000000, 0.000000000000000000, 1.000000000000000000 ) ) ;
#287 = VERTEX_POINT ( 'NONE', #575 ) ;
#288 = DIRECTION ( 'NONE',  ( -1.000000000000000000, 0.000000000000000000, -0.000000000000000000 ) ) ;
#289 = LINE ( 'NONE', #46, #333 ) ;
#290 = EDGE_CURVE ( 'NONE', #609, #673, #769, .T. ) ;
#291 = ORIENTED_EDGE ( 'NONE', *, *, #538, .T. ) ;
#292 = CIRCLE ( 'NONE', #193, 0.8509999999999999787 ) ;
#293 = CARTESIAN_POINT ( 'NONE',  ( 1.586512658500282669, -0.5149999999999970157, -0.7436618653472155671 ) ) ;
#294 = CARTESIAN_POINT ( 'NONE',  ( 0.000000000000000000, 2.149999999999998135, -0.5150000000000000133 ) ) ;
#295 = EDGE_LOOP ( 'NONE', ( #55, #741, #69, #309 ) ) ;
#296 = CIRCLE ( 'NONE', #658, 6.426280380454245211 ) ;
#297 = CARTESIAN_POINT ( 'NONE',  ( 0.8327192892707028227, 0.8065069628489051068, 0.5149999999999996803 ) ) ;
#298 = PLANE ( 'NONE',  #175 ) ;
#299 = ORIENTED_EDGE ( 'NONE', *, *, #166, .F. ) ;
#300 = DIRECTION ( 'NONE',  ( 0.000000000000000000, 0.000000000000000000, 1.000000000000000000 ) ) ;
#301 = ORIENTED_EDGE ( 'NONE', *, *, #405, .F. ) ;
#302 = CARTESIAN_POINT ( 'NONE',  ( 0.3318305201578637953, -0.5149999999999922418, -1.984555433326063989 ) ) ;
#303 = AXIS2_PLACEMENT_3D ( 'NONE', #406, #638, #759 ) ;
#304 = ADVANCED_FACE ( 'NONE', ( #27 ), #589, .F. ) ;
#305 = AXIS2_PLACEMENT_3D ( 'NONE', #680, #1, #494 ) ;
#306 = EDGE_LOOP ( 'NONE', ( #567, #269, #713, #557 ) ) ;
#307 = CARTESIAN_POINT ( 'NONE',  ( 2.339999999999999858, -0.5149999999999973488, -0.6774776749089250760 ) ) ;
#308 = AXIS2_PLACEMENT_3D ( 'NONE', #385, #626, #688 ) ;
#309 = ORIENTED_EDGE ( 'NONE', *, *, #568, .T. ) ;
#310 = MECHANICAL_DESIGN_GEOMETRIC_PRESENTATION_REPRESENTATION (  '', ( #734 ), #40 ) ;
#311 = DIRECTION ( 'NONE',  ( 0.4461977533473618363, -0.8949343913984796339, 0.000000000000000000 ) ) ;
#312 = PLANE ( 'NONE',  #328 ) ;
#313 = ORIENTED_EDGE ( 'NONE', *, *, #141, .T. ) ;
#314 = ADVANCED_FACE ( 'NONE', ( #527 ), #215, .T. ) ;
#315 = DIRECTION ( 'NONE',  ( 0.000000000000000000, 0.000000000000000000, 1.000000000000000000 ) ) ;
#316 = DIRECTION ( 'NONE',  ( 0.4461977533475101065, 0.8949343913984054710, -1.884057886186687184E-16 ) ) ;
#317 = AXIS2_PLACEMENT_3D ( 'NONE', #516, #33, #699 ) ;
#318 = ORIENTED_EDGE ( 'NONE', *, *, #171, .F. ) ;
#319 = PLANE ( 'NONE',  #53 ) ;
#320 = AXIS2_PLACEMENT_3D ( 'NONE', #121, #198, #74 ) ;
#321 = ORIENTED_EDGE ( 'NONE', *, *, #451, .T. ) ;
#322 = PLANE ( 'NONE',  #305 ) ;
#323 = EDGE_CURVE ( 'NONE', #403, #628, #206, .T. ) ;
#324 = ORIENTED_EDGE ( 'NONE', *, *, #579, .F. ) ;
#325 = CARTESIAN_POINT ( 'NONE',  ( 3.100000000000000533, 2.000000000000000000, 0.000000000000000000 ) ) ;
#326 = CIRCLE ( 'NONE', #207, 6.479565957685744948 ) ;
#327 = DIRECTION ( 'NONE',  ( 0.000000000000000000, 1.000000000000000000, 1.338610863216202591E-16 ) ) ;
#328 = AXIS2_PLACEMENT_3D ( 'NONE', #548, #41, #570 ) ;
#329 = ORIENTED_EDGE ( 'NONE', *, *, #107, .T. ) ;
#330 = VERTEX_POINT ( 'NONE', #749 ) ;
#331 = CARTESIAN_POINT ( 'NONE',  ( 2.339999999999999858, 0.000000000000000000, 0.000000000000000000 ) ) ;
#332 = UNCERTAINTY_MEASURE_WITH_UNIT (LENGTH_MEASURE( 1.000000000000000082E-05 ), #667, 'distance_accuracy_value', 'NONE');
#333 = VECTOR ( 'NONE', #38, 1000.000000000000227 ) ;
#334 = VERTEX_POINT ( 'NONE', #446 ) ;
#335 = DIRECTION ( 'NONE',  ( 0.8949343913984054710, 0.000000000000000000, -0.4461977533475101620 ) ) ;
#336 = DIRECTION ( 'NONE',  ( 0.000000000000000000, -1.000000000000000000, -3.491481338843133355E-15 ) ) ;
#337 = EDGE_LOOP ( 'NONE', ( #762 ) ) ;
#338 = DIRECTION ( 'NONE',  ( 0.000000000000000000, 0.000000000000000000, 1.000000000000000000 ) ) ;
#339 = EDGE_CURVE ( 'NONE', #390, #390, #479, .T. ) ;
#340 = CARTESIAN_POINT ( 'NONE',  ( 0.3318305201578620744, -1.984555433326062435, 0.5149999999999992362 ) ) ;
#341 = VECTOR ( 'NONE', #344, 1000.000000000000000 ) ;
#342 = CARTESIAN_POINT ( 'NONE',  ( 0.07880998200162411815, -5.021051876504148963E-15, 0.000000000000000000 ) ) ;
#343 = CIRCLE ( 'NONE', #105, 1.009117809157098922 ) ;
#344 = DIRECTION ( 'NONE',  ( 0.000000000000000000, -1.000000000000000000, -1.653891437665907977E-16 ) ) ;
#345 = FACE_OUTER_BOUND ( 'NONE', #541, .T. ) ;
#346 = FACE_OUTER_BOUND ( 'NONE', #252, .T. ) ;
#347 = CARTESIAN_POINT ( 'NONE',  ( 0.07880998200162532552, 0.5150000000000031219, -0.8678097445627236395 ) ) ;
#348 = ADVANCED_FACE ( 'NONE', ( #345, #399 ), #31, .T. ) ;
#349 = PLANE ( 'NONE',  #775 ) ;
#350 = ORIENTED_EDGE ( 'NONE', *, *, #739, .T. ) ;
#351 = EDGE_CURVE ( 'NONE', #287, #489, #450, .T. ) ;
#352 = FACE_OUTER_BOUND ( 'NONE', #529, .T. ) ;
#353 = AXIS2_PLACEMENT_3D ( 'NONE', #635, #641, #338 ) ;
#354 = ORIENTED_EDGE ( 'NONE', *, *, #720, .F. ) ;
#355 = AXIS2_PLACEMENT_3D ( 'NONE', #93, #36, #148 ) ;
#356 = CARTESIAN_POINT ( 'NONE',  ( 1.586512658500284445, 0.7436618653472135687, 0.5149999999999996803 ) ) ;
#357 = B_SPLINE_CURVE_WITH_KNOTS ( 'NONE', 3,
 ( #258, #181, #135, #670 ),
 .UNSPECIFIED., .F., .F.,
 ( 4, 4 ),
 ( 0.001595836496941432014, 0.003865027712480162587 ),
 .UNSPECIFIED. ) ;
#358 = FACE_OUTER_BOUND ( 'NONE', #532, .T. ) ;
#359 = VERTEX_POINT ( 'NONE', #145 ) ;
#360 = CARTESIAN_POINT ( 'NONE',  ( 0.07880998200162411815, -5.021051876504148963E-15, 0.000000000000000000 ) ) ;
#361 = VERTEX_POINT ( 'NONE', #764 ) ;
#362 = EDGE_CURVE ( 'NONE', #629, #629, #251, .T. ) ;
#363 = DIRECTION ( 'NONE',  ( -1.000000000000000000, -0.000000000000000000, -0.000000000000000000 ) ) ;
#364 = AXIS2_PLACEMENT_3D ( 'NONE', #569, #578, #284 ) ;
#365 = VERTEX_POINT ( 'NONE', #583 ) ;
#366 = FACE_OUTER_BOUND ( 'NONE', #425, .T. ) ;
#367 = ORIENTED_EDGE ( 'NONE', *, *, #92, .F. ) ;
#368 =( NAMED_UNIT ( * ) PLANE_ANGLE_UNIT ( ) SI_UNIT ( $, .RADIAN. ) );
#369 = LINE ( 'NONE', #743, #665 ) ;
#370 = ADVANCED_FACE ( 'NONE', ( #220 ), #465, .T. ) ;
#371 = VERTEX_POINT ( 'NONE', #140 ) ;
#372 = ADVANCED_FACE ( 'NONE', ( #158 ), #387, .T. ) ;
#373 = ORIENTED_EDGE ( 'NONE', *, *, #683, .F. ) ;
#374 = CONICAL_SURFACE ( 'NONE', #400, 0.8509999999999999787, 0.06981317007976593769 ) ;
#375 = CARTESIAN_POINT ( 'NONE',  ( 6.064432258796355946, 0.8736138818776854054, 0.000000000000000000 ) ) ;
#376 = LINE ( 'NONE', #618, #157 ) ;
#377 = VECTOR ( 'NONE', #438, 1000.000000000000227 ) ;
#378 = ORIENTED_EDGE ( 'NONE', *, *, #118, .F. ) ;
#379 = CARTESIAN_POINT ( 'NONE',  ( 0.000000000000000000, -2.149999999999999911, -0.5150000000000000133 ) ) ;
#380 = EDGE_LOOP ( 'NONE', ( #422, #299, #218, #318 ) ) ;
#381 = CARTESIAN_POINT ( 'NONE',  ( 0.8327192892707040439, -0.5150000000000025668, 0.8065069628489032194 ) ) ;
#382 = EDGE_CURVE ( 'NONE', #371, #182, #558, .T. ) ;
#383 = VECTOR ( 'NONE', #690, 1000.000000000000000 ) ;
#384 = CARTESIAN_POINT ( 'NONE',  ( 6.499999999999999112, -5.085977936833222261E-15, 0.5150000000000002354 ) ) ;
#385 = CARTESIAN_POINT ( 'NONE',  ( 0.000000000000000000, -0.5149999999999916866, -2.149999999999999911 ) ) ;
#386 = CARTESIAN_POINT ( 'NONE',  ( 0.07880998200162436795, -0.5150000000000026779, 0.8678097445627241946 ) ) ;
#387 = PLANE ( 'NONE',  #502 ) ;
#388 = AXIS2_PLACEMENT_3D ( 'NONE', #281, #391, #285 ) ;
#389 = DIRECTION ( 'NONE',  ( -1.000000000000000000, -0.000000000000000000, -0.000000000000000000 ) ) ;
#390 = VERTEX_POINT ( 'NONE', #273 ) ;
#391 = DIRECTION ( 'NONE',  ( -1.000000000000000000, -0.000000000000000000, -0.000000000000000000 ) ) ;
#392 = AXIS2_PLACEMENT_3D ( 'NONE', #580, #536, #286 ) ;
#393 = EDGE_CURVE ( 'NONE', #507, #334, #601, .T. ) ;
#394 = ORIENTED_EDGE ( 'NONE', *, *, #113, .F. ) ;
#395 = VERTEX_POINT ( 'NONE', #645 ) ;
#396 = CARTESIAN_POINT ( 'NONE',  ( 1.586512658500282669, -0.7436618653472137908, 0.5149999999999994582 ) ) ;
#397 = ORIENTED_EDGE ( 'NONE', *, *, #92, .T. ) ;
#398 = CARTESIAN_POINT ( 'NONE',  ( 0.3318305201578455876, -0.5150000000000064526, 1.984555433326001594 ) ) ;
#399 = FACE_OUTER_BOUND ( 'NONE', #416, .T. ) ;
#400 = AXIS2_PLACEMENT_3D ( 'NONE', #595, #363, #300 ) ;
#401 = AXIS2_PLACEMENT_3D ( 'NONE', #564, #219, #459 ) ;
#402 = CARTESIAN_POINT ( 'NONE',  ( 0.07880998200162468714, 0.5149999999999970157, 0.8678097445627274142 ) ) ;
#403 = VERTEX_POINT ( 'NONE', #152 ) ;
#404 = CARTESIAN_POINT ( 'NONE',  ( 2.339999999999999858, 0.9833192322605002200, 0.5149999999999999023 ) ) ;
#405 = EDGE_CURVE ( 'NONE', #115, #507, #343, .T. ) ;
#406 = CARTESIAN_POINT ( 'NONE',  ( 2.339999999999999858, 0.000000000000000000, 0.000000000000000000 ) ) ;
#407 = DIRECTION ( 'NONE',  ( 1.224775218828482764E-16, 1.000000000000000000, 3.617551358899587488E-15 ) ) ;
#408 = AXIS2_PLACEMENT_3D ( 'NONE', #461, #525, #43 ) ;
#409 = ORIENTED_EDGE ( 'NONE', *, *, #538, .F. ) ;
#410 = CARTESIAN_POINT ( 'NONE',  ( 2.339999999999999858, -0.9833192322609846103, -0.5150000000000000133 ) ) ;
#411 = DIRECTION ( 'NONE',  ( -0.000000000000000000, 0.000000000000000000, 1.000000000000000000 ) ) ;
#412 = VERTEX_POINT ( 'NONE', #302 ) ;
#413 =( LENGTH_UNIT ( ) NAMED_UNIT ( * ) SI_UNIT ( .MILLI., .METRE. ) );
#414 = CARTESIAN_POINT ( 'NONE',  ( 2.339999999999999858, 0.6774776749089228556, 0.5149999999999999023 ) ) ;
#415 = DIRECTION ( 'NONE',  ( -1.000000000000000000, -0.000000000000000000, -0.000000000000000000 ) ) ;
#416 = EDGE_LOOP ( 'NONE', ( #185 ) ) ;
#417 = CARTESIAN_POINT ( 'NONE',  ( 0.07880998200162411815, 0.8678097445627187545, 0.5149999999999995692 ) ) ;
#418 = EDGE_CURVE ( 'NONE', #334, #403, #232, .T. ) ;
#419 = ORIENTED_EDGE ( 'NONE', *, *, #696, .F. ) ;
#420 = CONICAL_SURFACE ( 'NONE', #506, 0.8509999999999999787, 0.06981317007976593769 ) ;
#421 = DIRECTION ( 'NONE',  ( -0.000000000000000000, 0.000000000000000000, 1.000000000000000000 ) ) ;
#422 = ORIENTED_EDGE ( 'NONE', *, *, #194, .T. ) ;
#423 = APPLICATION_PROTOCOL_DEFINITION ( 'draft international standard', 'automotive_design', 1998, #112 ) ;
#424 = LINE ( 'NONE', #410, #249 ) ;
#425 = EDGE_LOOP ( 'NONE', ( #164 ) ) ;
#426 = SURFACE_STYLE_FILL_AREA ( #610 ) ;
#427 = EDGE_CURVE ( 'NONE', #753, #753, #239, .T. ) ;
#428 = SPHERICAL_SURFACE ( 'NONE', #161, 6.499999999999999112 ) ;
#429 = ORIENTED_EDGE ( 'NONE', *, *, #625, .F. ) ;
#430 = PRESENTATION_STYLE_ASSIGNMENT (( #262 ) ) ;
#431 = AXIS2_PLACEMENT_3D ( 'NONE', #342, #415, #474 ) ;
#432 = DIRECTION ( 'NONE',  ( -0.000000000000000000, 0.000000000000000000, -1.000000000000000000 ) ) ;
#433 = ORIENTED_EDGE ( 'NONE', *, *, #579, .T. ) ;
#434 = DIRECTION ( 'NONE',  ( 0.000000000000000000, 3.656870482609724350E-15, -1.000000000000000000 ) ) ;
#435 = ORIENTED_EDGE ( 'NONE', *, *, #362, .T. ) ;
#436 = FILL_AREA_STYLE_COLOUR ( '', #783 ) ;
#437 = CIRCLE ( 'NONE', #353, 0.8509999999999999787 ) ;
#438 = DIRECTION ( 'NONE',  ( 0.8949343913984054710, -0.4461977533475101620, 0.000000000000000000 ) ) ;
#439 = ORIENTED_EDGE ( 'NONE', *, *, #194, .F. ) ;
#440 = EDGE_CURVE ( 'NONE', #544, #365, #566, .T. ) ;
#441 = CARTESIAN_POINT ( 'NONE',  ( 1.586512658500329742, -0.5150000000000023448, 0.7436618653472076845 ) ) ;
#442 = CARTESIAN_POINT ( 'NONE',  ( 2.339999999999999858, -0.6774776749089230776, 0.5149999999999996803 ) ) ;
#443 = CLOSED_SHELL ( 'NONE', ( #156, #62, #555, #201, #177, #462, #766, #370, #314, #5, #372, #52, #615, #604, #216, #348, #82, #498, #57, #189, #73, #636, #265, #26, #304, #653, #543, #794 ) ) ;
#444 = FACE_OUTER_BOUND ( 'NONE', #748, .T. ) ;
#445 = LINE ( 'NONE', #204, #449 ) ;
#446 = CARTESIAN_POINT ( 'NONE',  ( 0.3318305201578473085, 1.984555433326002483, 0.5149999999999994582 ) ) ;
#447 = VERTEX_POINT ( 'NONE', #225 ) ;
#448 = DIRECTION ( 'NONE',  ( 0.000000000000000000, 0.000000000000000000, 1.000000000000000000 ) ) ;
#449 = VECTOR ( 'NONE', #22, 1000.000000000000000 ) ;
#450 = LINE ( 'NONE', #691, #576 ) ;
#451 = EDGE_CURVE ( 'NONE', #365, #447, #755, .T. ) ;
#452 = CIRCLE ( 'NONE', #655, 6.479565957685745836 ) ;
#453 = ORIENTED_EDGE ( 'NONE', *, *, #205, .T. ) ;
#454 = CARTESIAN_POINT ( 'NONE',  ( 0.3318305201578464758, 1.984555433326002483, -0.5150000000000000133 ) ) ;
#455 = CARTESIAN_POINT ( 'NONE',  ( 0.8327192892707021565, -0.8065069628489052178, 0.5149999999999994582 ) ) ;
#456 = EDGE_CURVE ( 'NONE', #544, #51, #117, .T. ) ;
#457 = VECTOR ( 'NONE', #478, 1000.000000000000000 ) ;
#458 = ORIENTED_EDGE ( 'NONE', *, *, #509, .F. ) ;
#459 = DIRECTION ( 'NONE',  ( 0.000000000000000000, 0.000000000000000000, 1.000000000000000000 ) ) ;
#460 = DIRECTION ( 'NONE',  ( 0.000000000000000000, 0.000000000000000000, 1.000000000000000000 ) ) ;
#461 = CARTESIAN_POINT ( 'NONE',  ( 6.499999999999999112, -0.5150000000000002354, -1.863038949833270489E-15 ) ) ;
#462 = ADVANCED_FACE ( 'NONE', ( #545 ), #722, .T. ) ;
#463 = EDGE_LOOP ( 'NONE', ( #83, #354, #721, #549 ) ) ;
#464 = CARTESIAN_POINT ( 'NONE',  ( 2.339999999999999858, 0.9833192322604999980, -0.5150000000000001243 ) ) ;
#465 = PLANE ( 'NONE',  #3 ) ;
#466 = CARTESIAN_POINT ( 'NONE',  ( 2.339999999999999858, 0.000000000000000000, 0.000000000000000000 ) ) ;
#467 = ORIENTED_EDGE ( 'NONE', *, *, #509, .T. ) ;
#468 = DIRECTION ( 'NONE',  ( 0.000000000000000000, 0.000000000000000000, 1.000000000000000000 ) ) ;
#469 = FACE_OUTER_BOUND ( 'NONE', #16, .T. ) ;
#470 = AXIS2_PLACEMENT_3D ( 'NONE', #226, #712, #167 ) ;
#471 = EDGE_LOOP ( 'NONE', ( #329, #697, #190, #173 ) ) ;
#472 = CARTESIAN_POINT ( 'NONE',  ( 1.555305873969556441, 0.000000000000000000, 3.999999999999999112 ) ) ;
#473 = CARTESIAN_POINT ( 'NONE',  ( 0.3318305201578455876, 0.5149999999999931299, 1.984555433326004703 ) ) ;
#474 = DIRECTION ( 'NONE',  ( 0.000000000000000000, -1.776356839400250465E-15, -1.000000000000000000 ) ) ;
#475 = ORIENTED_EDGE ( 'NONE', *, *, #107, .F. ) ;
#476 = DIRECTION ( 'NONE',  ( 0.000000000000000000, 0.000000000000000000, -1.000000000000000000 ) ) ;
#477 = EDGE_CURVE ( 'NONE', #266, #563, #424, .T. ) ;
#478 = DIRECTION ( 'NONE',  ( 0.000000000000000000, -3.491481338843133355E-15, 1.000000000000000000 ) ) ;
#479 = CIRCLE ( 'NONE', #355, 2.000000000000000000 ) ;
#480 = EDGE_LOOP ( 'NONE', ( #793, #659, #622, #458 ) ) ;
#481 = PRODUCT_CONTEXT ( 'NONE', #112, 'mechanical' ) ;
#482 = CARTESIAN_POINT ( 'NONE',  ( 0.000000000000000000, 2.149999999999998135, -0.5150000000000000133 ) ) ;
#483 = ORIENTED_EDGE ( 'NONE', *, *, #789, .F. ) ;
#484 = AXIS2_PLACEMENT_3D ( 'NONE', #234, #222, #776 ) ;
#485 = DIRECTION ( 'NONE',  ( 0.8949343913984054710, -0.4461977533475101065, 8.293075310992681420E-17 ) ) ;
#486 = ORIENTED_EDGE ( 'NONE', *, *, #599, .F. ) ;
#487 = EDGE_CURVE ( 'NONE', #125, #39, #646, .T. ) ;
#488 = DIRECTION ( 'NONE',  ( -0.000000000000000000, 0.000000000000000000, 1.000000000000000000 ) ) ;
#489 = VERTEX_POINT ( 'NONE', #773 ) ;
#490 = CARTESIAN_POINT ( 'NONE',  ( 1.265388954528032350, 0.000000000000000000, 0.000000000000000000 ) ) ;
#491 = ORIENTED_EDGE ( 'NONE', *, *, #533, .T. ) ;
#492 = FACE_OUTER_BOUND ( 'NONE', #744, .T. ) ;
#493 = AXIS2_PLACEMENT_3D ( 'NONE', #466, #706, #102 ) ;
#494 = DIRECTION ( 'NONE',  ( 0.000000000000000000, 1.000000000000000000, 1.260700200564540091E-16 ) ) ;
#495 = ORIENTED_EDGE ( 'NONE', *, *, #351, .F. ) ;
#496 = CARTESIAN_POINT ( 'NONE',  ( 0.8327192892707039329, -0.8065069628489047737, -0.5150000000000000133 ) ) ;
#497 = DIRECTION ( 'NONE',  ( 0.000000000000000000, 1.000000000000000000, 0.000000000000000000 ) ) ;
#498 = ADVANCED_FACE ( 'NONE', ( #366, #661 ), #704, .F. ) ;
#499 = ORIENTED_EDGE ( 'NONE', *, *, #708, .F. ) ;
#500 = CARTESIAN_POINT ( 'NONE',  ( 2.339999999999999858, -0.5150000000000023448, 0.6774776749089209682 ) ) ;
#501 = DIRECTION ( 'NONE',  ( 0.000000000000000000, 0.000000000000000000, 1.000000000000000000 ) ) ;
#502 = AXIS2_PLACEMENT_3D ( 'NONE', #86, #336, #274 ) ;
#503 = EDGE_LOOP ( 'NONE', ( #693, #602, #777, #486 ) ) ;
#504 = DIRECTION ( 'NONE',  ( 1.000000000000000000, 0.000000000000000000, 0.000000000000000000 ) ) ;
#505 = FACE_OUTER_BOUND ( 'NONE', #154, .T. ) ;
#506 = AXIS2_PLACEMENT_3D ( 'NONE', #648, #701, #159 ) ;
#507 = VERTEX_POINT ( 'NONE', #417 ) ;
#508 = DIRECTION ( 'NONE',  ( 0.000000000000000000, -1.000000000000000000, -3.491481338843133355E-15 ) ) ;
#509 = EDGE_CURVE ( 'NONE', #412, #619, #530, .T. ) ;
#510 = PRESENTATION_LAYER_ASSIGNMENT (  '', '', ( #734 ) ) ;
#511 = CARTESIAN_POINT ( 'NONE',  ( 0.8327192892707024896, 0.5150000000000028999, -0.8065069628489031084 ) ) ;
#512 = ORIENTED_EDGE ( 'NONE', *, *, #708, .T. ) ;
#513 = CARTESIAN_POINT ( 'NONE',  ( 2.339999999999999858, 0.5150000000000035660, -0.9833192322609828340 ) ) ;
#514 = AXIS2_PLACEMENT_3D ( 'NONE', #360, #782, #476 ) ;
#515 = EDGE_CURVE ( 'NONE', #673, #649, #752, .T. ) ;
#516 = CARTESIAN_POINT ( 'NONE',  ( 6.499999999999999112, -5.085977936833222261E-15, 0.5150000000000002354 ) ) ;
#517 = ORIENTED_EDGE ( 'NONE', *, *, #726, .T. ) ;
#518 = FACE_OUTER_BOUND ( 'NONE', #727, .T. ) ;
#519 = CARTESIAN_POINT ( 'NONE',  ( 2.339999999999999858, 0.5150000000000024558, -0.6774776749089207462 ) ) ;
#520 = CIRCLE ( 'NONE', #493, 0.8509999999999999787 ) ;
#521 = DIRECTION ( 'NONE',  ( 1.000000000000000000, 0.000000000000000000, 0.000000000000000000 ) ) ;
#522 = CARTESIAN_POINT ( 'NONE',  ( 2.339999999999999858, 0.000000000000000000, 0.000000000000000000 ) ) ;
#523 = CARTESIAN_POINT ( 'NONE',  ( 2.339999999999999858, 0.9833192322605002200, 0.5149999999999999023 ) ) ;
#524 = CIRCLE ( 'NONE', #723, 6.479565957685744948 ) ;
#525 = DIRECTION ( 'NONE',  ( 1.224775218828482764E-16, 1.000000000000000000, 3.617551358899587488E-15 ) ) ;
#526 = VERTEX_POINT ( 'NONE', #473 ) ;
#527 = FACE_OUTER_BOUND ( 'NONE', #591, .T. ) ;
#528 = DIRECTION ( 'NONE',  ( -1.000000000000000000, -0.000000000000000000, -0.000000000000000000 ) ) ;
#529 = EDGE_LOOP ( 'NONE', ( #63, #767, #731, #439 ) ) ;
#530 = LINE ( 'NONE', #718, #689 ) ;
#531 = FACE_OUTER_BOUND ( 'NONE', #380, .T. ) ;
#532 = EDGE_LOOP ( 'NONE', ( #716 ) ) ;
#533 = EDGE_CURVE ( 'NONE', #371, #359, #600, .T. ) ;
#534 = CARTESIAN_POINT ( 'NONE',  ( 0.8327192892707021565, -0.5149999999999966827, -0.8065069628489069942 ) ) ;
#535 = CIRCLE ( 'NONE', #187, 6.426280380454414853 ) ;
#536 = DIRECTION ( 'NONE',  ( -1.000000000000000000, -0.000000000000000000, -0.000000000000000000 ) ) ;
#537 = CARTESIAN_POINT ( 'NONE',  ( 0.07880998200162379896, -0.5149999999999963496, -0.8678097445627277473 ) ) ;
#538 = EDGE_CURVE ( 'NONE', #628, #507, #682, .T. ) ;
#539 = AXIS2_PLACEMENT_3D ( 'NONE', #694, #508, #758 ) ;
#540 = CIRCLE ( 'NONE', #143, 6.479565957685744948 ) ;
#541 = EDGE_LOOP ( 'NONE', ( #735 ) ) ;
#542 = CARTESIAN_POINT ( 'NONE',  ( 2.339999999999999858, 0.9833192322604999980, -0.5150000000000001243 ) ) ;
#543 = ADVANCED_FACE ( 'NONE', ( #54 ), #374, .F. ) ;
#544 = VERTEX_POINT ( 'NONE', #537 ) ;
#545 = FACE_OUTER_BOUND ( 'NONE', #780, .T. ) ;
#546 = ORIENTED_EDGE ( 'NONE', *, *, #625, .T. ) ;
#547 = DIRECTION ( 'NONE',  ( 0.8949343913984794119, 0.4461977533473618363, 0.000000000000000000 ) ) ;
#548 = CARTESIAN_POINT ( 'NONE',  ( 0.000000000000000000, 0.5150000000000075628, -2.149999999999998135 ) ) ;
#549 = ORIENTED_EDGE ( 'NONE', *, *, #683, .T. ) ;
#550 = CARTESIAN_POINT ( 'NONE',  ( 2.339999999999999858, -0.5149999999999961275, -0.9833192322609866087 ) ) ;
#551 = CARTESIAN_POINT ( 'NONE',  ( 0.000000000000000000, -2.149999999999999911, -0.5150000000000000133 ) ) ;
#552 = PRODUCT ( 'ISO 7045 - M4 x 35 - Z - 35N_ISO 7045 - M4 x 35 - Z - 35N', 'ISO 7045 - M4 x 35 - Z - 35N_ISO 7045 - M4 x 35 - Z - 35N', '', ( #481 ) ) ;
#553 = ORIENTED_EDGE ( 'NONE', *, *, #562, .F. ) ;
#554 = DIRECTION ( 'NONE',  ( 0.4461977533475101620, -2.936240938437801385E-15, 0.8949343913984055821 ) ) ;
#555 = ADVANCED_FACE ( 'NONE', ( #238 ), #598, .T. ) ;
#556 = FACE_OUTER_BOUND ( 'NONE', #306, .T. ) ;
#557 = ORIENTED_EDGE ( 'NONE', *, *, #785, .F. ) ;
#558 = B_SPLINE_CURVE_WITH_KNOTS ( 'NONE', 3,
 ( #754, #455, #396, #633 ),
 .UNSPECIFIED., .F., .F.,
 ( 4, 4 ),
 ( 0.001595836497732683844, 0.003865027713271409430 ),
 .UNSPECIFIED. ) ;
#559 = ORIENTED_EDGE ( 'NONE', *, *, #131, .F. ) ;
#560 = DIRECTION ( 'NONE',  ( -1.000000000000000000, 0.000000000000000000, -0.000000000000000000 ) ) ;
#561 = PLANE ( 'NONE',  #320 ) ;
#562 = EDGE_CURVE ( 'NONE', #277, #266, #357, .T. ) ;
#563 = VERTEX_POINT ( 'NONE', #742 ) ;
#564 = CARTESIAN_POINT ( 'NONE',  ( 1.555305873969556441, 0.000000000000000000, 0.000000000000000000 ) ) ;
#565 = DIRECTION ( 'NONE',  ( -1.000000000000000000, -0.000000000000000000, -0.000000000000000000 ) ) ;
#566 = B_SPLINE_CURVE_WITH_KNOTS ( 'NONE', 3,
 ( #170, #534, #293, #307 ),
 .UNSPECIFIED., .F., .F.,
 ( 4, 4 ),
 ( 0.001595836497732683844, 0.003865027713271409430 ),
 .UNSPECIFIED. ) ;
#567 = ORIENTED_EDGE ( 'NONE', *, *, #260, .T. ) ;
#568 = EDGE_CURVE ( 'NONE', #649, #669, #6, .T. ) ;
#569 = CARTESIAN_POINT ( 'NONE',  ( -997.3834933385059003, 0.000000000000000000, 0.000000000000000000 ) ) ;
#570 = DIRECTION ( 'NONE',  ( 0.8949343913984795229, -1.557891129246044959E-15, 0.4461977533473617807 ) ) ;
#571 = CONICAL_SURFACE ( 'NONE', #364, 3077.683537175311358, 1.256637061435922798 ) ;
#572 = ORIENTED_EDGE ( 'NONE', *, *, #533, .F. ) ;
#573 = LINE ( 'NONE', #686, #137 ) ;
#574 = CIRCLE ( 'NONE', #128, 3.853420195439738904 ) ;
#575 = CARTESIAN_POINT ( 'NONE',  ( 2.339999999999999858, -0.9833192322609846103, -0.5150000000000000133 ) ) ;
#576 = VECTOR ( 'NONE', #768, 1000.000000000000000 ) ;
#577 = CARTESIAN_POINT ( 'NONE',  ( 38.10000000000000853, 0.000000000000000000, 0.000000000000000000 ) ) ;
#578 = DIRECTION ( 'NONE',  ( -1.000000000000000000, -0.000000000000000000, -0.000000000000000000 ) ) ;
#579 = EDGE_CURVE ( 'NONE', #115, #361, #700, .T. ) ;
#580 = CARTESIAN_POINT ( 'NONE',  ( 2.339999999999999858, 0.000000000000000000, 0.000000000000000000 ) ) ;
#581 = ORIENTED_EDGE ( 'NONE', *, *, #647, .F. ) ;
#582 = CARTESIAN_POINT ( 'NONE',  ( 0.000000000000000000, 0.000000000000000000, 0.000000000000000000 ) ) ;
#583 = CARTESIAN_POINT ( 'NONE',  ( 2.339999999999999858, -0.5149999999999973488, -0.6774776749089250760 ) ) ;
#584 = CARTESIAN_POINT ( 'NONE',  ( 0.000000000000000000, -0.5149999999999916866, -2.149999999999999911 ) ) ;
#585 = ORIENTED_EDGE ( 'NONE', *, *, #323, .T. ) ;
#586 =( NAMED_UNIT ( * ) SI_UNIT ( $, .STERADIAN. ) SOLID_ANGLE_UNIT ( ) );
#587 = CARTESIAN_POINT ( 'NONE',  ( 3.300000000000000711, 0.000000000000000000, 0.000000000000000000 ) ) ;
#588 = CARTESIAN_POINT ( 'NONE',  ( 38.10000000000000853, 2.000000000000000000, 0.000000000000000000 ) ) ;
#589 = CONICAL_SURFACE ( 'NONE', #303, 0.8509999999999999787, 0.06981317007976593769 ) ;
#590 = EDGE_CURVE ( 'NONE', #395, #395, #574, .T. ) ;
#591 = EDGE_LOOP ( 'NONE', ( #517, #433, #512, #475 ) ) ;
#592 = DIRECTION ( 'NONE',  ( -1.000000000000000000, -0.000000000000000000, -0.000000000000000000 ) ) ;
#593 = LINE ( 'NONE', #68, #184 ) ;
#594 = ORIENTED_EDGE ( 'NONE', *, *, #32, .T. ) ;
#595 = CARTESIAN_POINT ( 'NONE',  ( 2.339999999999999858, 0.000000000000000000, 0.000000000000000000 ) ) ;
#596 = AXIS2_PLACEMENT_3D ( 'NONE', #746, #703, #448 ) ;
#597 = EDGE_LOOP ( 'NONE', ( #640, #324, #75, #409 ) ) ;
#598 = PLANE ( 'NONE',  #652 ) ;
#599 = EDGE_CURVE ( 'NONE', #447, #51, #197, .T. ) ;
#600 = CIRCLE ( 'NONE', #275, 1.009117809157098922 ) ;
#601 = CIRCLE ( 'NONE', #317, 6.479565957685744948 ) ;
#602 = ORIENTED_EDGE ( 'NONE', *, *, #440, .F. ) ;
#603 = CARTESIAN_POINT ( 'NONE',  ( 6.499999999999999112, 0.5150000000000000133, 1.798112889504231506E-15 ) ) ;
#604 = ADVANCED_FACE ( 'NONE', ( #248, #492 ), #196, .F. ) ;
#605 = ORIENTED_EDGE ( 'NONE', *, *, #166, .T. ) ;
#606 = FACE_OUTER_BOUND ( 'NONE', #678, .T. ) ;
#607 = DIRECTION ( 'NONE',  ( 0.000000000000000000, -3.614249330683746798E-15, 1.000000000000000000 ) ) ;
#608 = MANIFOLD_SOLID_BREP ( 'RecessCore', #443 ) ;
#609 = VERTEX_POINT ( 'NONE', #674 ) ;
#610 = FILL_AREA_STYLE ('',( #436 ) ) ;
#611 = DIRECTION ( 'NONE',  ( -1.000000000000000000, -0.000000000000000000, -0.000000000000000000 ) ) ;
#612 = ADVANCED_BREP_SHAPE_REPRESENTATION ( 'ISO 7045 - M4 x 35 - Z - 35N_ISO 7045 - M4 x 35 - Z - 35N', ( #608, #221 ), #246 ) ;
#613 = AXIS2_PLACEMENT_3D ( 'NONE', #603, #104, #229 ) ;
#614 = ORIENTED_EDGE ( 'NONE', *, *, #515, .F. ) ;
#615 = ADVANCED_FACE ( 'NONE', ( #245, #606 ), #132, .T. ) ;
#616 = VECTOR ( 'NONE', #434, 1000.000000000000000 ) ;
#617 =( NAMED_UNIT ( * ) SI_UNIT ( $, .STERADIAN. ) SOLID_ANGLE_UNIT ( ) );
#618 = CARTESIAN_POINT ( 'NONE',  ( 2.339999999999999858, -0.9833192322609846103, -0.5150000000000000133 ) ) ;
#619 = VERTEX_POINT ( 'NONE', #550 ) ;
#620 = CARTESIAN_POINT ( 'NONE',  ( 2.339999999999999858, -0.5150000000000034550, 0.9833192322604984437 ) ) ;
#621 = CARTESIAN_POINT ( 'NONE',  ( 0.000000000000000000, 2.149999999999999911, -0.5150000000000000133 ) ) ;
#622 = ORIENTED_EDGE ( 'NONE', *, *, #223, .T. ) ;
#623 = DIRECTION ( 'NONE',  ( 0.8949343913984795229, -1.557891129246044959E-15, 0.4461977533473617807 ) ) ;
#624 = DIRECTION ( 'NONE',  ( 1.224775218828482764E-16, 1.260700200564540091E-16, -1.000000000000000000 ) ) ;
#625 = EDGE_CURVE ( 'NONE', #272, #224, #535, .T. ) ;
#626 = DIRECTION ( 'NONE',  ( 1.224775218828482764E-16, 1.000000000000000000, 3.617551358899587488E-15 ) ) ;
#627 = CARTESIAN_POINT ( 'NONE',  ( 6.499999999999999112, -5.021051876504148963E-15, -0.5150000000000000133 ) ) ;
#628 = VERTEX_POINT ( 'NONE', #736 ) ;
#629 = VERTEX_POINT ( 'NONE', #85 ) ;
#630 = CARTESIAN_POINT ( 'NONE',  ( 2.339999999999999858, 0.9833192322604999980, -0.5150000000000001243 ) ) ;
#631 = ORIENTED_EDGE ( 'NONE', *, *, #487, .F. ) ;
#632 = DIRECTION ( 'NONE',  ( 1.000000000000000000, 0.000000000000000000, 0.000000000000000000 ) ) ;
#633 = CARTESIAN_POINT ( 'NONE',  ( 2.339999999999999858, -0.6774776749089230776, 0.5149999999999996803 ) ) ;
#634 = EDGE_LOOP ( 'NONE', ( #44 ) ) ;
#635 = CARTESIAN_POINT ( 'NONE',  ( 2.339999999999999858, 0.000000000000000000, 0.000000000000000000 ) ) ;
#636 = ADVANCED_FACE ( 'NONE', ( #13 ), #319, .F. ) ;
#637 = AXIS2_PLACEMENT_3D ( 'NONE', #587, #45, #651 ) ;
#638 = DIRECTION ( 'NONE',  ( -1.000000000000000000, -0.000000000000000000, -0.000000000000000000 ) ) ;
#639 = CARTESIAN_POINT ( 'NONE',  ( 0.07880998200162411815, -0.8678097445627287465, -0.5150000000000000133 ) ) ;
#640 = ORIENTED_EDGE ( 'NONE', *, *, #32, .F. ) ;
#641 = DIRECTION ( 'NONE',  ( -1.000000000000000000, -0.000000000000000000, -0.000000000000000000 ) ) ;
#642 = DIRECTION ( 'NONE',  ( 0.000000000000000000, -1.000000000000000000, -1.653891437665907977E-16 ) ) ;
#643 = DIRECTION ( 'NONE',  ( 0.000000000000000000, -3.617551358899587488E-15, 1.000000000000000000 ) ) ;
#644 = ORIENTED_EDGE ( 'NONE', *, *, #789, .T. ) ;
#645 = CARTESIAN_POINT ( 'NONE',  ( 1.265388954528032350, 0.000000000000000000, 3.853420195439738904 ) ) ;
#646 = LINE ( 'NONE', #664, #738 ) ;
#647 = EDGE_CURVE ( 'NONE', #39, #359, #17, .T. ) ;
#648 = CARTESIAN_POINT ( 'NONE',  ( 2.339999999999999858, 0.000000000000000000, 0.000000000000000000 ) ) ;
#649 = VERTEX_POINT ( 'NONE', #679 ) ;
#650 = SHAPE_DEFINITION_REPRESENTATION ( #124, #612 ) ;
#651 = DIRECTION ( 'NONE',  ( 0.000000000000000000, 0.000000000000000000, 1.000000000000000000 ) ) ;
#652 = AXIS2_PLACEMENT_3D ( 'NONE', #482, #421, #56 ) ;
#653 = ADVANCED_FACE ( 'NONE', ( #518 ), #149, .F. ) ;
#654 = CARTESIAN_POINT ( 'NONE',  ( 2.339999999999999858, 0.9833192322605002200, 0.5149999999999999023 ) ) ;
#655 = AXIS2_PLACEMENT_3D ( 'NONE', #192, #133, #607 ) ;
#656 = ORIENTED_EDGE ( 'NONE', *, *, #260, .F. ) ;
#657 = DIRECTION ( 'NONE',  ( 0.000000000000000000, -1.776356839400250465E-15, -1.000000000000000000 ) ) ;
#658 = AXIS2_PLACEMENT_3D ( 'NONE', #671, #316, #7 ) ;
#659 = ORIENTED_EDGE ( 'NONE', *, *, #440, .T. ) ;
#660 = DIRECTION ( 'NONE',  ( 0.000000000000000000, 0.000000000000000000, 1.000000000000000000 ) ) ;
#661 = FACE_OUTER_BOUND ( 'NONE', #212, .T. ) ;
#662 = EDGE_LOOP ( 'NONE', ( #435 ) ) ;
#663 =( NAMED_UNIT ( * ) PLANE_ANGLE_UNIT ( ) SI_UNIT ( $, .RADIAN. ) );
#664 = CARTESIAN_POINT ( 'NONE',  ( 2.339999999999999858, -0.5150000000000034550, 0.9833192322604984437 ) ) ;
#665 = VECTOR ( 'NONE', #136, 1000.000000000000227 ) ;
#666 = ORIENTED_EDGE ( 'NONE', *, *, #720, .T. ) ;
#667 =( LENGTH_UNIT ( ) NAMED_UNIT ( * ) SI_UNIT ( .MILLI., .METRE. ) );
#668 = CARTESIAN_POINT ( 'NONE',  ( 2.339999999999999858, -0.5150000000000034550, 0.9833192322604984437 ) ) ;
#669 = VERTEX_POINT ( 'NONE', #513 ) ;
#670 = CARTESIAN_POINT ( 'NONE',  ( 2.339999999999999858, 0.6774776749089228556, -0.5150000000000000133 ) ) ;
#671 = CARTESIAN_POINT ( 'NONE',  ( 6.064432258795712904, -0.8736138818786208793, 1.839172948827747840E-16 ) ) ;
#672 = EDGE_CURVE ( 'NONE', #125, #66, #270, .T. ) ;
#673 = VERTEX_POINT ( 'NONE', #25 ) ;
#674 = CARTESIAN_POINT ( 'NONE',  ( 2.339999999999999858, 0.5150000000000024558, -0.6774776749089207462 ) ) ;
#675 = CYLINDRICAL_SURFACE ( 'NONE', #279, 4.000000000000000000 ) ;
#676 = UNCERTAINTY_MEASURE_WITH_UNIT (LENGTH_MEASURE( 1.000000000000000082E-05 ), #413, 'distance_accuracy_value', 'NONE');
#677 = PRODUCT_RELATED_PRODUCT_CATEGORY ( 'part', '', ( #552 ) ) ;
#678 = EDGE_LOOP ( 'NONE', ( #108 ) ) ;
#679 = CARTESIAN_POINT ( 'NONE',  ( 0.3318305201578646835, 0.5150000000000070077, -1.984555433326060658 ) ) ;
#680 = CARTESIAN_POINT ( 'NONE',  ( 0.000000000000000000, -2.149999999999998135, 0.5149999999999992362 ) ) ;
#681 = EDGE_LOOP ( 'NONE', ( #751 ) ) ;
#682 = B_SPLINE_CURVE_WITH_KNOTS ( 'NONE', 3,
 ( #414, #356, #297, #109 ),
 .UNSPECIFIED., .F., .F.,
 ( 4, 4 ),
 ( 0.004243790224673708346, 0.006512406268448424178 ),
 .UNSPECIFIED. ) ;
#683 = EDGE_CURVE ( 'NONE', #669, #619, #573, .T. ) ;
#684 = DIRECTION ( 'NONE',  ( 0.8949343913984795229, 0.4461977533473617807, 0.000000000000000000 ) ) ;
#685 = ORIENTED_EDGE ( 'NONE', *, *, #477, .F. ) ;
#686 = CARTESIAN_POINT ( 'NONE',  ( 2.339999999999999858, 0.5150000000000035660, -0.9833192322609828340 ) ) ;
#687 = DIRECTION ( 'NONE',  ( -1.000000000000000000, -0.000000000000000000, -0.000000000000000000 ) ) ;
#688 = DIRECTION ( 'NONE',  ( 0.000000000000000000, -3.617551358899587488E-15, 1.000000000000000000 ) ) ;
#689 = VECTOR ( 'NONE', #116, 1000.000000000000000 ) ;
#690 = DIRECTION ( 'NONE',  ( 0.000000000000000000, -3.491481338843133355E-15, 1.000000000000000000 ) ) ;
#691 = CARTESIAN_POINT ( 'NONE',  ( 2.339999999999999858, -0.9833192322609846103, -0.5150000000000000133 ) ) ;
#692 = AXIS2_PLACEMENT_3D ( 'NONE', #211, #687, #460 ) ;
#693 = ORIENTED_EDGE ( 'NONE', *, *, #451, .F. ) ;
#694 = CARTESIAN_POINT ( 'NONE',  ( 6.499999999999999112, 0.5150000000000000133, 1.798112889504231506E-15 ) ) ;
#695 = CARTESIAN_POINT ( 'NONE',  ( 2.339999999999999858, 0.6774776749089228556, -0.5150000000000000133 ) ) ;
#696 = EDGE_CURVE ( 'NONE', #710, #277, #524, .T. ) ;
#697 = ORIENTED_EDGE ( 'NONE', *, *, #672, .F. ) ;
#698 = DIRECTION ( 'NONE',  ( -0.000000000000000000, 0.000000000000000000, 1.000000000000000000 ) ) ;
#699 = DIRECTION ( 'NONE',  ( 0.000000000000000000, 1.000000000000000000, 1.338610863216202591E-16 ) ) ;
#700 = B_SPLINE_CURVE_WITH_KNOTS ( 'NONE', 3,
 ( #10, #120, #183, #253 ),
 .UNSPECIFIED., .F., .F.,
 ( 4, 4 ),
 ( 0.001595836497732683844, 0.003865027713271408562 ),
 .UNSPECIFIED. ) ;
#701 = DIRECTION ( 'NONE',  ( -1.000000000000000000, -0.000000000000000000, -0.000000000000000000 ) ) ;
#702 = ORIENTED_EDGE ( 'NONE', *, *, #785, .T. ) ;
#703 = DIRECTION ( 'NONE',  ( -1.000000000000000000, -0.000000000000000000, -0.000000000000000000 ) ) ;
#704 = TOROIDAL_SURFACE ( 'NONE', #637, 2.200000000000000178, 0.2000000000000000111 ) ;
#705 = DIRECTION ( 'NONE',  ( -0.000000000000000000, 0.000000000000000000, 1.000000000000000000 ) ) ;
#706 = DIRECTION ( 'NONE',  ( -1.000000000000000000, -0.000000000000000000, -0.000000000000000000 ) ) ;
#707 = ORIENTED_EDGE ( 'NONE', *, *, #351, .T. ) ;
#708 = EDGE_CURVE ( 'NONE', #361, #66, #155, .T. ) ;
#709 = CARTESIAN_POINT ( 'NONE',  ( 3.099999999999998757, 0.000000000000000000, 0.000000000000000000 ) ) ;
#710 = VERTEX_POINT ( 'NONE', #454 ) ;
#711 = CARTESIAN_POINT ( 'NONE',  ( 0.07880998200162411815, -5.021051876504148963E-15, 0.000000000000000000 ) ) ;
#712 = DIRECTION ( 'NONE',  ( 0.4461977533473618363, 3.124646727056728209E-15, -0.8949343913984796339 ) ) ;
#713 = ORIENTED_EDGE ( 'NONE', *, *, #729, .T. ) ;
#714 = CARTESIAN_POINT ( 'NONE',  ( 0.07880998200162411815, -5.021051876504148963E-15, 0.000000000000000000 ) ) ;
#715 = CARTESIAN_POINT ( 'NONE',  ( 2.339999999999999858, 0.5149999999999965716, 0.9833192322605016633 ) ) ;
#716 = ORIENTED_EDGE ( 'NONE', *, *, #590, .T. ) ;
#717 = VERTEX_POINT ( 'NONE', #472 ) ;
#718 = CARTESIAN_POINT ( 'NONE',  ( 0.000000000000000000, -0.5149999999999916866, -2.150000000000001688 ) ) ;
#719 = AXIS2_PLACEMENT_3D ( 'NONE', #142, #389, #24 ) ;
#720 = EDGE_CURVE ( 'NONE', #609, #365, #740, .T. ) ;
#721 = ORIENTED_EDGE ( 'NONE', *, *, #42, .F. ) ;
#722 = PLANE ( 'NONE',  #168 ) ;
#723 = AXIS2_PLACEMENT_3D ( 'NONE', #627, #144, #504 ) ;
#724 = PRODUCT_DEFINITION_CONTEXT ( 'detailed design', #81, 'design' ) ;
#725 = ORIENTED_EDGE ( 'NONE', *, *, #131, .T. ) ;
#726 = EDGE_CURVE ( 'NONE', #526, #115, #237, .T. ) ;
#727 = EDGE_LOOP ( 'NONE', ( #169, #244, #559, #553 ) ) ;
#728 = CARTESIAN_POINT ( 'NONE',  ( 2.339999999999999858, -0.6774776749089228556, -0.5150000000000000133 ) ) ;
#729 = EDGE_CURVE ( 'NONE', #182, #489, #35, .T. ) ;
#730 = LINE ( 'NONE', #621, #377 ) ;
#731 = ORIENTED_EDGE ( 'NONE', *, *, #477, .T. ) ;
#732 = SURFACE_SIDE_STYLE ('',( #426 ) ) ;
#733 = DIRECTION ( 'NONE',  ( -1.000000000000000000, -0.000000000000000000, -0.000000000000000000 ) ) ;
#734 = STYLED_ITEM ( 'NONE', ( #430 ), #608 ) ;
#735 = ORIENTED_EDGE ( 'NONE', *, *, #756, .T. ) ;
#736 = CARTESIAN_POINT ( 'NONE',  ( 2.339999999999999858, 0.6774776749089228556, 0.5149999999999999023 ) ) ;
#737 = FACE_OUTER_BOUND ( 'NONE', #337, .T. ) ;
#738 = VECTOR ( 'NONE', #101, 1000.000000000000000 ) ;
#739 = EDGE_CURVE ( 'NONE', #526, #790, #784, .T. ) ;
#740 = CIRCLE ( 'NONE', #276, 0.8509999999999999787 ) ;
#741 = ORIENTED_EDGE ( 'NONE', *, *, #290, .T. ) ;
#742 = CARTESIAN_POINT ( 'NONE',  ( 2.339999999999999858, 0.9833192322604999980, -0.5150000000000000133 ) ) ;
#743 = CARTESIAN_POINT ( 'NONE',  ( 0.000000000000000000, -0.5150000000000072298, 2.149999999999998135 ) ) ;
#744 = EDGE_LOOP ( 'NONE', ( #261 ) ) ;
#745 = EDGE_CURVE ( 'NONE', #39, #361, #437, .T. ) ;
#746 = CARTESIAN_POINT ( 'NONE',  ( 2.339999999999999858, 0.000000000000000000, 0.000000000000000000 ) ) ;
#747 = DIRECTION ( 'NONE',  ( 0.000000000000000000, 0.000000000000000000, 1.000000000000000000 ) ) ;
#748 = EDGE_LOOP ( 'NONE', ( #47, #60, #397, #146 ) ) ;
#749 = CARTESIAN_POINT ( 'NONE',  ( 38.10000000000000853, 0.000000000000000000, 2.000000000000000000 ) ) ;
#750 = DIRECTION ( 'NONE',  ( 1.000000000000000000, 0.000000000000000000, 0.000000000000000000 ) ) ;
#751 = ORIENTED_EDGE ( 'NONE', *, *, #756, .F. ) ;
#752 = CIRCLE ( 'NONE', #613, 6.479565957685744948 ) ;
#753 = VERTEX_POINT ( 'NONE', #210 ) ;
#754 = CARTESIAN_POINT ( 'NONE',  ( 0.07880998200162411815, -0.8678097445627289686, 0.5149999999999993472 ) ) ;
#755 = CIRCLE ( 'NONE', #264, 0.8509999999999999787 ) ;
#756 = EDGE_CURVE ( 'NONE', #717, #717, #2, .T. ) ;
#757 = EDGE_LOOP ( 'NONE', ( #594, #453, #725, #666, #321, #20, #176, #195 ) ) ;
#758 = DIRECTION ( 'NONE',  ( 0.000000000000000000, 3.497120880152329194E-15, -1.000000000000000000 ) ) ;
#759 = DIRECTION ( 'NONE',  ( 0.000000000000000000, 0.000000000000000000, 1.000000000000000000 ) ) ;
#760 = AXIS2_PLACEMENT_3D ( 'NONE', #551, #123, #255 ) ;
#761 = DIRECTION ( 'NONE',  ( 0.000000000000000000, 0.000000000000000000, -1.000000000000000000 ) ) ;
#762 = ORIENTED_EDGE ( 'NONE', *, *, #427, .T. ) ;
#763 = DIRECTION ( 'NONE',  ( 0.000000000000000000, 0.000000000000000000, 1.000000000000000000 ) ) ;
#764 = CARTESIAN_POINT ( 'NONE',  ( 2.339999999999999858, 0.5149999999999976819, 0.6774776749089244099 ) ) ;
#765 = CARTESIAN_POINT ( 'NONE',  ( 2.339999999999999858, 0.5150000000000035660, -0.9833192322609828340 ) ) ;
#766 = ADVANCED_FACE ( 'NONE', ( #96 ), #200, .T. ) ;
#767 = ORIENTED_EDGE ( 'NONE', *, *, #562, .T. ) ;
#768 = DIRECTION ( 'NONE',  ( 0.000000000000000000, -2.105246936865057790E-16, 1.000000000000000000 ) ) ;
#769 = B_SPLINE_CURVE_WITH_KNOTS ( 'NONE', 3,
 ( #519, #271, #511, #347 ),
 .UNSPECIFIED., .F., .F.,
 ( 4, 4 ),
 ( 0.004243790224673705744, 0.006512406268448418974 ),
 .UNSPECIFIED. ) ;
#770 = VECTOR ( 'NONE', #642, 1000.000000000000000 ) ;
#771 = DIRECTION ( 'NONE',  ( 0.4461977533475101620, 0.8949343913984055821, -1.884057886186687677E-16 ) ) ;
#772 = ORIENTED_EDGE ( 'NONE', *, *, #393, .T. ) ;
#773 = CARTESIAN_POINT ( 'NONE',  ( 2.339999999999999858, -0.9833192322609848324, 0.5149999999999995692 ) ) ;
#774 = CIRCLE ( 'NONE', #49, 0.8509999999999999787 ) ;
#775 = AXIS2_PLACEMENT_3D ( 'NONE', #588, #163, #761 ) ;
#776 = DIRECTION ( 'NONE',  ( -0.000000000000000000, 0.000000000000000000, 1.000000000000000000 ) ) ;
#777 = ORIENTED_EDGE ( 'NONE', *, *, #456, .T. ) ;
#778 = DIRECTION ( 'NONE',  ( -1.000000000000000000, -0.000000000000000000, -0.000000000000000000 ) ) ;
#779 = CARTESIAN_POINT ( 'NONE',  ( 6.499999999999999112, -5.021051876504148963E-15, 0.000000000000000000 ) ) ;
#780 = EDGE_LOOP ( 'NONE', ( #119, #4, #247, #707 ) ) ;
#781 = DIRECTION ( 'NONE',  ( 1.000000000000000000, 0.000000000000000000, 0.000000000000000000 ) ) ;
#782 = DIRECTION ( 'NONE',  ( -1.000000000000000000, -0.000000000000000000, -0.000000000000000000 ) ) ;
#783 = COLOUR_RGB ( '',0.7921568627450980005, 0.8196078431372548767, 0.9333333333333333481 ) ;
#784 = CIRCLE ( 'NONE', #78, 6.426280380454243435 ) ;
#785 = EDGE_CURVE ( 'NONE', #272, #489, #445, .T. ) ;
#786 = EDGE_LOOP ( 'NONE', ( #134, #122, #644, #103 ) ) ;
#787 = APPLICATION_PROTOCOL_DEFINITION ( 'draft international standard', 'automotive_design', 1998, #81 ) ;
#788 = DIRECTION ( 'NONE',  ( 0.000000000000000000, 1.000000000000000000, 0.000000000000000000 ) ) ;
#789 = EDGE_CURVE ( 'NONE', #51, #224, #326, .T. ) ;
#790 = VERTEX_POINT ( 'NONE', #398 ) ;
#791 = CARTESIAN_POINT ( 'NONE',  ( 0.07880998200162411815, -0.8678097445627287465, -0.5150000000000000133 ) ) ;
#792 = AXIS2_PLACEMENT_3D ( 'NONE', #126, #64, #315 ) ;
#793 = ORIENTED_EDGE ( 'NONE', *, *, #240, .T. ) ;
#794 = ADVANCED_FACE ( 'NONE', ( #267 ), #571, .F. ) ;
#795 = CARTESIAN_POINT ( 'NONE',  ( 0.000000000000000000, 0.5150000000000075628, -2.149999999999998135 ) ) ;
ENDSEC;
END-ISO-10303-21;
