ISO-10303-21;
HEADER;
FILE_DESCRIPTION (( 'STEP AP214' ),
    '1' );
FILE_NAME ('ISO 7045 - M4 x 12 - Z - 12N.STEP',
    '2025-07-29T15:59:08',
    ( '' ),
    ( '' ),
    'SwSTEP 2.0',
    'SolidWorks 2025',
    '' );
FILE_SCHEMA (( 'AUTOMOTIVE_DESIGN' ));
ENDSEC;

DATA;
#1 = TOROIDAL_SURFACE ( 'NONE', #771, 2.200000000000000178, 0.2000000000000000111 ) ;
#2 = AXIS2_PLACEMENT_3D ( 'NONE', #637, #288, #151 ) ;
#3 = CARTESIAN_POINT ( 'NONE',  ( 0.07880998200162454836, -0.8678097445627295237, 0.5149999999999996803 ) ) ;
#4 = CARTESIAN_POINT ( 'NONE',  ( 0.000000000000000000, -0.5149999999999921307, -2.149999999999999911 ) ) ;
#5 = ORIENTED_EDGE ( 'NONE', *, *, #427, .T. ) ;
#6 = CIRCLE ( 'NONE', #398, 6.479565957685747613 ) ;
#7 = CARTESIAN_POINT ( 'NONE',  ( 0.07880998200162411815, 1.224646799147365903E-17, 0.000000000000000000 ) ) ;
#8 = PLANE ( 'NONE',  #299 ) ;
#9 = EDGE_CURVE ( 'NONE', #731, #183, #724, .T. ) ;
#10 = AXIS2_PLACEMENT_3D ( 'NONE', #567, #430, #18 ) ;
#11 = EDGE_LOOP ( 'NONE', ( #228, #193, #630, #753 ) ) ;
#12 = DIRECTION ( 'NONE',  ( -0.8949343913984054710, 0.4461977533475101620, 0.000000000000000000 ) ) ;
#13 = VERTEX_POINT ( 'NONE', #606 ) ;
#14 = DIRECTION ( 'NONE',  ( 2.981066953365987194E-17, 1.000000000000000000, 3.617551358899587488E-15 ) ) ;
#15 = AXIS2_PLACEMENT_3D ( 'NONE', #534, #635, #93 ) ;
#16 = EDGE_CURVE ( 'NONE', #122, #152, #254, .T. ) ;
#17 = EDGE_LOOP ( 'NONE', ( #341, #114, #441, #166 ) ) ;
#18 = DIRECTION ( 'NONE',  ( 0.000000000000000000, 0.000000000000000000, 1.000000000000000000 ) ) ;
#19 = VERTEX_POINT ( 'NONE', #298 ) ;
#20 = DIRECTION ( 'NONE',  ( 0.000000000000000000, 1.000000000000000000, 1.260700200564540091E-16 ) ) ;
#21 = ORIENTED_EDGE ( 'NONE', *, *, #294, .F. ) ;
#22 = ADVANCED_FACE ( 'NONE', ( #182 ), #513, .F. ) ;
#23 = VERTEX_POINT ( 'NONE', #45 ) ;
#24 = EDGE_LOOP ( 'NONE', ( #507, #706, #92, #675 ) ) ;
#25 = DIRECTION ( 'NONE',  ( -1.000000000000000000, -0.000000000000000000, -0.000000000000000000 ) ) ;
#26 = ORIENTED_EDGE ( 'NONE', *, *, #500, .F. ) ;
#27 = EDGE_CURVE ( 'NONE', #429, #594, #6, .T. ) ;
#28 = CARTESIAN_POINT ( 'NONE',  ( 6.500000000000000000, -5.267959233760015702E-17, 0.5150000000000000133 ) ) ;
#29 = ORIENTED_EDGE ( 'NONE', *, *, #252, .F. ) ;
#30 = CARTESIAN_POINT ( 'NONE',  ( 0.8327192892707037108, -0.8065069628489044407, -0.5150000000000000133 ) ) ;
#31 = ORIENTED_EDGE ( 'NONE', *, *, #357, .T. ) ;
#32 = DIRECTION ( 'NONE',  ( 0.4461977533475101620, -3.124646727056469462E-15, 0.8949343913984054710 ) ) ;
#33 = CIRCLE ( 'NONE', #132, 1.009117809157098700 ) ;
#34 = SURFACE_STYLE_FILL_AREA ( #764 ) ;
#35 = STYLED_ITEM ( 'NONE', ( #409 ), #389 ) ;
#36 = LINE ( 'NONE', #453, #362 ) ;
#37 = EDGE_CURVE ( 'NONE', #324, #716, #163, .T. ) ;
#38 = FACE_OUTER_BOUND ( 'NONE', #369, .T. ) ;
#39 = CIRCLE ( 'NONE', #306, 0.8509999999999999787 ) ;
#40 = PLANE ( 'NONE',  #720 ) ;
#41 = ADVANCED_FACE ( 'NONE', ( #491 ), #124, .T. ) ;
#42 = CARTESIAN_POINT ( 'NONE',  ( 0.000000000000000000, 0.000000000000000000, 0.000000000000000000 ) ) ;
#43 = ORIENTED_EDGE ( 'NONE', *, *, #16, .T. ) ;
#44 = AXIS2_PLACEMENT_3D ( 'NONE', #131, #320, #20 ) ;
#45 = CARTESIAN_POINT ( 'NONE',  ( 3.099999999999998757, 0.000000000000000000, 4.000000000000000000 ) ) ;
#46 = ADVANCED_FACE ( 'NONE', ( #554 ), #121, .T. ) ;
#47 = CARTESIAN_POINT ( 'NONE',  ( 2.339999999999999858, 0.9833192322604999980, 0.5150000000000001243 ) ) ;
#48 = VECTOR ( 'NONE', #325, 1000.000000000000000 ) ;
#49 = DIRECTION ( 'NONE',  ( 0.000000000000000000, 0.000000000000000000, 1.000000000000000000 ) ) ;
#50 = DIRECTION ( 'NONE',  ( -1.000000000000000000, -0.000000000000000000, -0.000000000000000000 ) ) ;
#51 = VECTOR ( 'NONE', #379, 1000.000000000000000 ) ;
#52 = DIRECTION ( 'NONE',  ( 0.000000000000000000, -1.000000000000000000, -3.491481338843133355E-15 ) ) ;
#53 = VERTEX_POINT ( 'NONE', #789 ) ;
#54 = CARTESIAN_POINT ( 'NONE',  ( -25.39999999999996305, 0.000000000000000000, 0.000000000000000000 ) ) ;
#55 = CARTESIAN_POINT ( 'NONE',  ( 0.07880998200162329936, -0.5150000000000031219, 0.8678097445627236395 ) ) ;
#56 = AXIS2_PLACEMENT_3D ( 'NONE', #349, #32, #752 ) ;
#57 = AXIS2_PLACEMENT_3D ( 'NONE', #99, #590, #340 ) ;
#58 = CARTESIAN_POINT ( 'NONE',  ( 2.339999999999999858, -0.5150000000000036771, 0.9833192322604984437 ) ) ;
#59 = DIRECTION ( 'NONE',  ( 0.000000000000000000, 0.000000000000000000, -1.000000000000000000 ) ) ;
#60 = EDGE_CURVE ( 'NONE', #627, #240, #115, .T. ) ;
#61 = EDGE_LOOP ( 'NONE', ( #505 ) ) ;
#62 = CARTESIAN_POINT ( 'NONE',  ( 2.339999999999999858, 0.9833192322604999980, -0.5149999999999999023 ) ) ;
#63 = CARTESIAN_POINT ( 'NONE',  ( 2.339999999999999858, 0.000000000000000000, 0.000000000000000000 ) ) ;
#64 = EDGE_CURVE ( 'NONE', #183, #208, #776, .T. ) ;
#65 = ORIENTED_EDGE ( 'NONE', *, *, #237, .T. ) ;
#66 = LINE ( 'NONE', #494, #51 ) ;
#67 = CARTESIAN_POINT ( 'NONE',  ( 6.064432258796359498, 0.8736138818776859605, 0.000000000000000000 ) ) ;
#68 = VERTEX_POINT ( 'NONE', #359 ) ;
#69 = EDGE_CURVE ( 'NONE', #594, #327, #495, .T. ) ;
#70 = PLANE ( 'NONE',  #352 ) ;
#71 = FACE_OUTER_BOUND ( 'NONE', #611, .T. ) ;
#72 = ORIENTED_EDGE ( 'NONE', *, *, #104, .F. ) ;
#73 = DIRECTION ( 'NONE',  ( 0.000000000000000000, 0.000000000000000000, 1.000000000000000000 ) ) ;
#74 = ORIENTED_EDGE ( 'NONE', *, *, #661, .T. ) ;
#75 = PRODUCT_RELATED_PRODUCT_CATEGORY ( 'part', '', ( #669 ) ) ;
#76 = DIRECTION ( 'NONE',  ( 0.000000000000000000, 0.000000000000000000, 1.000000000000000000 ) ) ;
#77 = ORIENTED_EDGE ( 'NONE', *, *, #390, .F. ) ;
#78 = DIRECTION ( 'NONE',  ( 0.8949343913984795229, -1.640821882355978220E-15, 0.4461977533473616697 ) ) ;
#79 = ORIENTED_EDGE ( 'NONE', *, *, #294, .T. ) ;
#80 = CARTESIAN_POINT ( 'NONE',  ( 0.8327192892707019345, 0.5150000000000028999, -0.8065069628489029974 ) ) ;
#81 = ADVANCED_BREP_SHAPE_REPRESENTATION ( 'ISO 7045 - M4 x 12 - Z - 12N_ISO 7045 - M4 x 12 - Z - 12N', ( #389, #623 ), #514 ) ;
#82 = ORIENTED_EDGE ( 'NONE', *, *, #701, .T. ) ;
#83 = CARTESIAN_POINT ( 'NONE',  ( 6.500000000000000000, 0.5150000000000000133, 1.798112889504214151E-15 ) ) ;
#84 = EDGE_LOOP ( 'NONE', ( #217 ) ) ;
#85 = CYLINDRICAL_SURFACE ( 'NONE', #354, 4.000000000000000000 ) ;
#86 = EDGE_CURVE ( 'NONE', #183, #122, #356, .T. ) ;
#87 = ORIENTED_EDGE ( 'NONE', *, *, #64, .T. ) ;
#88 = LINE ( 'NONE', #645, #342 ) ;
#89 = ORIENTED_EDGE ( 'NONE', *, *, #467, .F. ) ;
#90 = VECTOR ( 'NONE', #677, 1000.000000000000000 ) ;
#91 = PLANE ( 'NONE',  #459 ) ;
#92 = ORIENTED_EDGE ( 'NONE', *, *, #187, .T. ) ;
#93 = DIRECTION ( 'NONE',  ( -0.000000000000000000, 0.000000000000000000, 1.000000000000000000 ) ) ;
#94 = ORIENTED_EDGE ( 'NONE', *, *, #693, .F. ) ;
#95 = CARTESIAN_POINT ( 'NONE',  ( 0.000000000000000000, 0.5150000000000075628, -2.149999999999998135 ) ) ;
#96 = ORIENTED_EDGE ( 'NONE', *, *, #713, .T. ) ;
#97 = CARTESIAN_POINT ( 'NONE',  ( 1.265388954528028798, 0.000000000000000000, 3.853420195439739793 ) ) ;
#98 = EDGE_CURVE ( 'NONE', #688, #355, #547, .T. ) ;
#99 = CARTESIAN_POINT ( 'NONE',  ( 0.07880998200162411815, 1.224646799147365903E-17, 0.000000000000000000 ) ) ;
#100 = UNCERTAINTY_MEASURE_WITH_UNIT (LENGTH_MEASURE( 1.000000000000000082E-05 ), #473, 'distance_accuracy_value', 'NONE');
#101 = CARTESIAN_POINT ( 'NONE',  ( 2.339999999999999858, -0.5149999999999975708, -0.6774776749089246319 ) ) ;
#102 = CARTESIAN_POINT ( 'NONE',  ( 6.500000000000000000, 1.224646799147365903E-17, -0.5150000000000000133 ) ) ;
#103 = AXIS2_PLACEMENT_3D ( 'NONE', #295, #658, #551 ) ;
#104 = EDGE_CURVE ( 'NONE', #327, #515, #243, .T. ) ;
#105 = DIRECTION ( 'NONE',  ( 0.000000000000000000, 1.000000000000000000, 0.000000000000000000 ) ) ;
#106 = DIRECTION ( 'NONE',  ( 0.4461977533473616697, 3.124646727056728209E-15, -0.8949343913984795229 ) ) ;
#107 = ADVANCED_FACE ( 'NONE', ( #292 ), #239, .T. ) ;
#108 = DIRECTION ( 'NONE',  ( 1.000000000000000000, 0.000000000000000000, 0.000000000000000000 ) ) ;
#109 = AXIS2_PLACEMENT_3D ( 'NONE', #54, #177, #291 ) ;
#110 = ORIENTED_EDGE ( 'NONE', *, *, #678, .T. ) ;
#111 = VECTOR ( 'NONE', #578, 1000.000000000000000 ) ;
#112 = EDGE_CURVE ( 'NONE', #577, #731, #314, .T. ) ;
#113 = FACE_OUTER_BOUND ( 'NONE', #319, .T. ) ;
#114 = ORIENTED_EDGE ( 'NONE', *, *, #644, .F. ) ;
#115 = CIRCLE ( 'NONE', #659, 1.009117809157098700 ) ;
#116 = DIRECTION ( 'NONE',  ( 0.000000000000000000, 0.000000000000000000, 1.000000000000000000 ) ) ;
#117 = CARTESIAN_POINT ( 'NONE',  ( 0.07880998200162329936, -0.5150000000000031219, 0.8678097445627236395 ) ) ;
#118 = FACE_OUTER_BOUND ( 'NONE', #679, .T. ) ;
#119 = EDGE_CURVE ( 'NONE', #515, #324, #765, .T. ) ;
#120 = AXIS2_PLACEMENT_3D ( 'NONE', #123, #786, #729 ) ;
#121 = PLANE ( 'NONE',  #333 ) ;
#122 = VERTEX_POINT ( 'NONE', #55 ) ;
#123 = CARTESIAN_POINT ( 'NONE',  ( 2.339999999999999858, 0.000000000000000000, 0.000000000000000000 ) ) ;
#124 = PLANE ( 'NONE',  #474 ) ;
#125 = ORIENTED_EDGE ( 'NONE', *, *, #673, .T. ) ;
#126 = DIRECTION ( 'NONE',  ( -1.000000000000000000, -0.000000000000000000, -0.000000000000000000 ) ) ;
#127 = DIRECTION ( 'NONE',  ( 0.000000000000000000, 0.000000000000000000, 1.000000000000000000 ) ) ;
#128 = ADVANCED_FACE ( 'NONE', ( #508 ), #689, .T. ) ;
#129 = ORIENTED_EDGE ( 'NONE', *, *, #652, .F. ) ;
#130 = PLANE ( 'NONE',  #541 ) ;
#131 = CARTESIAN_POINT ( 'NONE',  ( 0.000000000000000000, -2.149999999999998135, 0.5149999999999995692 ) ) ;
#132 = AXIS2_PLACEMENT_3D ( 'NONE', #242, #230, #413 ) ;
#133 = ORIENTED_EDGE ( 'NONE', *, *, #783, .F. ) ;
#134 = AXIS2_PLACEMENT_3D ( 'NONE', #512, #746, #127 ) ;
#135 = EDGE_CURVE ( 'NONE', #403, #403, #446, .T. ) ;
#136 = DIRECTION ( 'NONE',  ( 0.000000000000000000, 0.000000000000000000, 1.000000000000000000 ) ) ;
#137 = FACE_OUTER_BOUND ( 'NONE', #462, .T. ) ;
#138 = EDGE_LOOP ( 'NONE', ( #210 ) ) ;
#139 = DIRECTION ( 'NONE',  ( 2.981066953365987194E-17, 1.000000000000000000, 3.617551358899587488E-15 ) ) ;
#140 = ORIENTED_EDGE ( 'NONE', *, *, #157, .T. ) ;
#141 = DIRECTION ( 'NONE',  ( 0.000000000000000000, -3.617551358899587488E-15, 1.000000000000000000 ) ) ;
#142 = CIRCLE ( 'NONE', #626, 1.009117809157098700 ) ;
#143 = ORIENTED_EDGE ( 'NONE', *, *, #157, .F. ) ;
#144 = DIRECTION ( 'NONE',  ( 0.4461977533475101620, 0.8949343913984054710, 0.000000000000000000 ) ) ;
#145 = EDGE_LOOP ( 'NONE', ( #400 ) ) ;
#146 = LINE ( 'NONE', #694, #700 ) ;
#147 = ADVANCED_FACE ( 'NONE', ( #565 ), #8, .T. ) ;
#148 = EDGE_LOOP ( 'NONE', ( #704 ) ) ;
#149 = CARTESIAN_POINT ( 'NONE',  ( 2.339999999999999858, 0.9833192322604999980, -0.5149999999999999023 ) ) ;
#150 = ORIENTED_EDGE ( 'NONE', *, *, #112, .F. ) ;
#151 = DIRECTION ( 'NONE',  ( 0.000000000000000000, 1.000000000000000000, 0.000000000000000000 ) ) ;
#152 = VERTEX_POINT ( 'NONE', #315 ) ;
#153 = DIRECTION ( 'NONE',  ( -1.000000000000000000, -0.000000000000000000, -0.000000000000000000 ) ) ;
#154 = VERTEX_POINT ( 'NONE', #633 ) ;
#155 = CARTESIAN_POINT ( 'NONE',  ( 2.339999999999999858, 0.5149999999999965716, 0.9833192322605018854 ) ) ;
#156 = ORIENTED_EDGE ( 'NONE', *, *, #489, .F. ) ;
#157 = EDGE_CURVE ( 'NONE', #13, #731, #377, .T. ) ;
#158 = AXIS2_PLACEMENT_3D ( 'NONE', #687, #735, #318 ) ;
#159 = DIRECTION ( 'NONE',  ( -1.000000000000000000, -0.000000000000000000, -0.000000000000000000 ) ) ;
#160 = DIRECTION ( 'NONE',  ( 0.000000000000000000, 0.000000000000000000, 1.000000000000000000 ) ) ;
#161 = CARTESIAN_POINT ( 'NONE',  ( 3.300000000000000711, 0.000000000000000000, 2.000000000000000000 ) ) ;
#162 = LINE ( 'NONE', #583, #111 ) ;
#163 = CIRCLE ( 'NONE', #174, 0.8509999999999999787 ) ;
#164 = EDGE_CURVE ( 'NONE', #747, #68, #755, .T. ) ;
#165 = LINE ( 'NONE', #479, #784 ) ;
#166 = ORIENTED_EDGE ( 'NONE', *, *, #427, .F. ) ;
#167 = EDGE_CURVE ( 'NONE', #343, #343, #772, .T. ) ;
#168 = CIRCLE ( 'NONE', #646, 6.479565957685747613 ) ;
#169 = DIRECTION ( 'NONE',  ( -0.8949343913984054710, -1.557891129246563043E-15, 0.4461977533475101620 ) ) ;
#170 = DIRECTION ( 'NONE',  ( 0.8949343913984054710, 1.557891129246563043E-15, -0.4461977533475101620 ) ) ;
#171 = CARTESIAN_POINT ( 'NONE',  ( 15.10000000000000142, 0.000000000000000000, 2.000000000000000000 ) ) ;
#172 = DIRECTION ( 'NONE',  ( 0.000000000000000000, 3.497120880152328011E-15, -1.000000000000000000 ) ) ;
#173 = CARTESIAN_POINT ( 'NONE',  ( 0.8327192892707027116, -0.8065069628489048847, 0.5149999999999997913 ) ) ;
#174 = AXIS2_PLACEMENT_3D ( 'NONE', #795, #609, #726 ) ;
#175 =( NAMED_UNIT ( * ) PLANE_ANGLE_UNIT ( ) SI_UNIT ( $, .RADIAN. ) );
#176 = EDGE_CURVE ( 'NONE', #685, #747, #670, .T. ) ;
#177 = DIRECTION ( 'NONE',  ( -1.000000000000000000, -0.000000000000000000, -0.000000000000000000 ) ) ;
#178 = DIRECTION ( 'NONE',  ( 0.000000000000000000, 0.000000000000000000, 1.000000000000000000 ) ) ;
#179 = ORIENTED_EDGE ( 'NONE', *, *, #9, .F. ) ;
#180 = AXIS2_PLACEMENT_3D ( 'NONE', #28, #285, #522 ) ;
#181 = DIRECTION ( 'NONE',  ( 0.4461977533475102176, -3.124646727056469857E-15, 0.8949343913984055821 ) ) ;
#182 = FACE_OUTER_BOUND ( 'NONE', #17, .T. ) ;
#183 = VERTEX_POINT ( 'NONE', #331 ) ;
#184 = DIRECTION ( 'NONE',  ( 0.4461977533473616697, -0.8949343913984795229, 0.000000000000000000 ) ) ;
#185 = B_SPLINE_CURVE_WITH_KNOTS ( 'NONE', 3,
 ( #346, #699, #528, #705 ),
 .UNSPECIFIED., .F., .F.,
 ( 4, 4 ),
 ( 0.001595836496941432881, 0.003865027712480163455 ),
 .UNSPECIFIED. ) ;
#186 = CARTESIAN_POINT ( 'NONE',  ( 0.000000000000000000, 0.5149999999999925748, 2.150000000000001688 ) ) ;
#187 = EDGE_CURVE ( 'NONE', #240, #747, #328, .T. ) ;
#188 = AXIS2_PLACEMENT_3D ( 'NONE', #540, #52, #722 ) ;
#189 = EDGE_LOOP ( 'NONE', ( #566, #573, #250, #129 ) ) ;
#190 = CARTESIAN_POINT ( 'NONE',  ( 0.07880998200162314671, -0.5149999999999967937, -0.8678097445627273032 ) ) ;
#191 = DIRECTION ( 'NONE',  ( 2.981066953365987194E-17, 1.000000000000000000, 3.617551358899587488E-15 ) ) ;
#192 = CONICAL_SURFACE ( 'NONE', #503, 3077.683537175311358, 1.256637061435922798 ) ;
#193 = ORIENTED_EDGE ( 'NONE', *, *, #64, .F. ) ;
#194 = FACE_OUTER_BOUND ( 'NONE', #552, .T. ) ;
#195 = ORIENTED_EDGE ( 'NONE', *, *, #226, .F. ) ;
#196 = PRODUCT_DEFINITION_SHAPE ( 'NONE', 'NONE',  #309 ) ;
#197 = VECTOR ( 'NONE', #760, 1000.000000000000000 ) ;
#198 = DIRECTION ( 'NONE',  ( 0.000000000000000000, 0.000000000000000000, -1.000000000000000000 ) ) ;
#199 = ORIENTED_EDGE ( 'NONE', *, *, #719, .F. ) ;
#200 = DIRECTION ( 'NONE',  ( 1.000000000000000000, 0.000000000000000000, 0.000000000000000000 ) ) ;
#201 = ORIENTED_EDGE ( 'NONE', *, *, #436, .T. ) ;
#202 = ADVANCED_FACE ( 'NONE', ( #71 ), #253, .T. ) ;
#203 = PLANE ( 'NONE',  #737 ) ;
#204 = ORIENTED_EDGE ( 'NONE', *, *, #176, .T. ) ;
#205 = CARTESIAN_POINT ( 'NONE',  ( 2.339999999999999858, 0.5150000000000024558, -0.6774776749089207462 ) ) ;
#206 = VERTEX_POINT ( 'NONE', #435 ) ;
#207 = CARTESIAN_POINT ( 'NONE',  ( 2.339999999999999858, -0.6774776749089228556, 0.5149999999999997913 ) ) ;
#208 = VERTEX_POINT ( 'NONE', #499 ) ;
#209 = DIRECTION ( 'NONE',  ( 0.000000000000000000, 0.000000000000000000, 1.000000000000000000 ) ) ;
#210 = ORIENTED_EDGE ( 'NONE', *, *, #701, .F. ) ;
#211 = VECTOR ( 'NONE', #78, 1000.000000000000000 ) ;
#212 = LINE ( 'NONE', #393, #785 ) ;
#213 = ORIENTED_EDGE ( 'NONE', *, *, #719, .T. ) ;
#214 = VECTOR ( 'NONE', #344, 1000.000000000000000 ) ;
#215 = DIRECTION ( 'NONE',  ( 1.000000000000000000, 0.000000000000000000, 0.000000000000000000 ) ) ;
#216 = ADVANCED_FACE ( 'NONE', ( #569 ), #736, .T. ) ;
#217 = ORIENTED_EDGE ( 'NONE', *, *, #135, .F. ) ;
#218 = PLANE ( 'NONE',  #592 ) ;
#219 = SURFACE_STYLE_USAGE ( .BOTH. , #466 ) ;
#220 = DIRECTION ( 'NONE',  ( 0.000000000000000000, 0.000000000000000000, 1.000000000000000000 ) ) ;
#221 = DIRECTION ( 'NONE',  ( 0.4461977533473616697, 3.124646727056728209E-15, -0.8949343913984795229 ) ) ;
#222 = CONICAL_SURFACE ( 'NONE', #415, 0.8509999999999999787, 0.06981317007976585443 ) ;
#223 = DIRECTION ( 'NONE',  ( -1.000000000000000000, -0.000000000000000000, -0.000000000000000000 ) ) ;
#224 = CARTESIAN_POINT ( 'NONE',  ( 2.339999999999999858, 0.9833192322605002200, 0.5150000000000001243 ) ) ;
#225 = DIRECTION ( 'NONE',  ( 1.000000000000000000, 0.000000000000000000, 0.000000000000000000 ) ) ;
#226 = EDGE_CURVE ( 'NONE', #698, #627, #392, .T. ) ;
#227 = DIRECTION ( 'NONE',  ( 0.8949343913984795229, -1.557891129246044565E-15, 0.4461977533473616697 ) ) ;
#228 = ORIENTED_EDGE ( 'NONE', *, *, #287, .F. ) ;
#229 = APPLICATION_CONTEXT ( 'automotive_design' ) ;
#230 = DIRECTION ( 'NONE',  ( -1.000000000000000000, -0.000000000000000000, -0.000000000000000000 ) ) ;
#231 = DIRECTION ( 'NONE',  ( 0.000000000000000000, 1.000000000000000000, 1.338610863216202098E-16 ) ) ;
#232 = LINE ( 'NONE', #423, #533 ) ;
#233 = AXIS2_PLACEMENT_3D ( 'NONE', #653, #50, #116 ) ;
#234 = VECTOR ( 'NONE', #105, 1000.000000000000000 ) ;
#235 = DIRECTION ( 'NONE',  ( 0.000000000000000000, -3.614249330683745220E-15, 1.000000000000000000 ) ) ;
#236 = MECHANICAL_DESIGN_GEOMETRIC_PRESENTATION_REPRESENTATION (  '', ( #35 ), #247 ) ;
#237 = EDGE_CURVE ( 'NONE', #716, #19, #471, .T. ) ;
#238 = FACE_OUTER_BOUND ( 'NONE', #449, .T. ) ;
#239 = PLANE ( 'NONE',  #188 ) ;
#240 = VERTEX_POINT ( 'NONE', #619 ) ;
#241 = VERTEX_POINT ( 'NONE', #171 ) ;
#242 = CARTESIAN_POINT ( 'NONE',  ( 0.07880998200162411815, 1.224646799147365903E-17, 0.000000000000000000 ) ) ;
#243 = LINE ( 'NONE', #432, #90 ) ;
#244 = ORIENTED_EDGE ( 'NONE', *, *, #378, .F. ) ;
#245 = ADVANCED_FACE ( 'NONE', ( #194 ), #249, .F. ) ;
#246 = LINE ( 'NONE', #472, #234 ) ;
#247 =( GEOMETRIC_REPRESENTATION_CONTEXT ( 3 ) GLOBAL_UNCERTAINTY_ASSIGNED_CONTEXT ( ( #100 ) ) GLOBAL_UNIT_ASSIGNED_CONTEXT ( ( #473, #404, #773 ) ) REPRESENTATION_CONTEXT ( 'NONE', 'WORKASPACE' ) );
#248 = DIRECTION ( 'NONE',  ( -1.000000000000000000, -0.000000000000000000, -0.000000000000000000 ) ) ;
#249 = CONICAL_SURFACE ( 'NONE', #134, 0.8509999999999999787, 0.06981317007976585443 ) ;
#250 = ORIENTED_EDGE ( 'NONE', *, *, #500, .T. ) ;
#251 = CARTESIAN_POINT ( 'NONE',  ( 2.339999999999999858, -0.5149999999999963496, -0.9833192322609866087 ) ) ;
#252 = EDGE_CURVE ( 'NONE', #327, #501, #146, .T. ) ;
#253 = PLANE ( 'NONE',  #289 ) ;
#254 = CIRCLE ( 'NONE', #301, 6.479565957685747613 ) ;
#255 = ORIENTED_EDGE ( 'NONE', *, *, #529, .F. ) ;
#256 = DIRECTION ( 'NONE',  ( 0.000000000000000000, 0.000000000000000000, 1.000000000000000000 ) ) ;
#257 = CARTESIAN_POINT ( 'NONE',  ( 0.000000000000000000, -2.149999999999999911, -0.5150000000000000133 ) ) ;
#258 = ORIENTED_EDGE ( 'NONE', *, *, #644, .T. ) ;
#259 = DIRECTION ( 'NONE',  ( -1.000000000000000000, -0.000000000000000000, -0.000000000000000000 ) ) ;
#260 = ORIENTED_EDGE ( 'NONE', *, *, #27, .T. ) ;
#261 = DIRECTION ( 'NONE',  ( 2.981066953365987194E-17, 1.260700200564540091E-16, -1.000000000000000000 ) ) ;
#262 = ADVANCED_FACE ( 'NONE', ( #684, #137 ), #85, .T. ) ;
#263 = ORIENTED_EDGE ( 'NONE', *, *, #98, .F. ) ;
#264 = DIRECTION ( 'NONE',  ( -1.000000000000000000, -0.000000000000000000, -0.000000000000000000 ) ) ;
#265 = ORIENTED_EDGE ( 'NONE', *, *, #661, .F. ) ;
#266 = CARTESIAN_POINT ( 'NONE',  ( 0.07880998200162314671, 0.5150000000000031219, -0.8678097445627235285 ) ) ;
#267 = ORIENTED_EDGE ( 'NONE', *, *, #287, .T. ) ;
#268 = CARTESIAN_POINT ( 'NONE',  ( 2.339999999999999858, 0.5150000000000035660, -0.9833192322609830560 ) ) ;
#269 = EDGE_LOOP ( 'NONE', ( #425, #636, #682, #21 ) ) ;
#270 = DIRECTION ( 'NONE',  ( 0.000000000000000000, 0.000000000000000000, 1.000000000000000000 ) ) ;
#271 = ORIENTED_EDGE ( 'NONE', *, *, #723, .F. ) ;
#272 = DIRECTION ( 'NONE',  ( -1.000000000000000000, -0.000000000000000000, -0.000000000000000000 ) ) ;
#273 = ORIENTED_EDGE ( 'NONE', *, *, #104, .T. ) ;
#274 = ADVANCED_FACE ( 'NONE', ( #651, #535 ), #275, .T. ) ;
#275 = SPHERICAL_SURFACE ( 'NONE', #2, 6.500000000000000888 ) ;
#276 = VECTOR ( 'NONE', #553, 1000.000000000000000 ) ;
#277 = ORIENTED_EDGE ( 'NONE', *, *, #556, .T. ) ;
#278 = AXIS2_PLACEMENT_3D ( 'NONE', #83, #329, #572 ) ;
#279 = AXIS2_PLACEMENT_3D ( 'NONE', #388, #371, #310 ) ;
#280 = CARTESIAN_POINT ( 'NONE',  ( 1.555305873969552888, 0.000000000000000000, 0.000000000000000000 ) ) ;
#281 = AXIS2_PLACEMENT_3D ( 'NONE', #411, #401, #593 ) ;
#282 = LINE ( 'NONE', #286, #214 ) ;
#283 = ADVANCED_FACE ( 'NONE', ( #395 ), #91, .T. ) ;
#284 = DIRECTION ( 'NONE',  ( 0.000000000000000000, -1.000000000000000000, -3.491481338843133355E-15 ) ) ;
#285 = DIRECTION ( 'NONE',  ( 2.981066953365987194E-17, 1.260700200564540091E-16, -1.000000000000000000 ) ) ;
#286 = CARTESIAN_POINT ( 'NONE',  ( 0.000000000000000000, -2.149999999999999911, 0.5149999999999995692 ) ) ;
#287 = EDGE_CURVE ( 'NONE', #208, #355, #162, .T. ) ;
#288 = DIRECTION ( 'NONE',  ( -0.000000000000000000, 0.000000000000000000, -1.000000000000000000 ) ) ;
#289 = AXIS2_PLACEMENT_3D ( 'NONE', #504, #558, #574 ) ;
#290 = EDGE_LOOP ( 'NONE', ( #110, #29, #332, #518 ) ) ;
#291 = DIRECTION ( 'NONE',  ( 0.000000000000000000, 0.000000000000000000, 1.000000000000000000 ) ) ;
#292 = FACE_OUTER_BOUND ( 'NONE', #394, .T. ) ;
#293 = FACE_OUTER_BOUND ( 'NONE', #702, .T. ) ;
#294 = EDGE_CURVE ( 'NONE', #685, #745, #282, .T. ) ;
#295 = CARTESIAN_POINT ( 'NONE',  ( 2.339999999999999858, 0.000000000000000000, 0.000000000000000000 ) ) ;
#296 = CARTESIAN_POINT ( 'NONE',  ( 1.555305873969552888, 0.000000000000000000, 4.000000000000000000 ) ) ;
#297 = DIRECTION ( 'NONE',  ( 0.000000000000000000, 3.656870482609724350E-15, -1.000000000000000000 ) ) ;
#298 = CARTESIAN_POINT ( 'NONE',  ( 0.07880998200162314671, 0.5150000000000031219, -0.8678097445627235285 ) ) ;
#299 = AXIS2_PLACEMENT_3D ( 'NONE', #622, #261, #750 ) ;
#300 = APPLICATION_PROTOCOL_DEFINITION ( 'draft international standard', 'automotive_design', 1998, #708 ) ;
#301 = AXIS2_PLACEMENT_3D ( 'NONE', #428, #787, #235 ) ;
#302 = CARTESIAN_POINT ( 'NONE',  ( 0.8327192892707033778, -0.5150000000000028999, 0.8065069628489027753 ) ) ;
#303 = EDGE_CURVE ( 'NONE', #13, #240, #351, .T. ) ;
#304 = ORIENTED_EDGE ( 'NONE', *, *, #86, .T. ) ;
#305 = FACE_OUTER_BOUND ( 'NONE', #555, .T. ) ;
#306 = AXIS2_PLACEMENT_3D ( 'NONE', #313, #323, #73 ) ;
#307 = DIRECTION ( 'NONE',  ( -1.000000000000000000, -0.000000000000000000, -0.000000000000000000 ) ) ;
#308 = ORIENTED_EDGE ( 'NONE', *, *, #303, .F. ) ;
#309 = PRODUCT_DEFINITION ( 'General', '', #662, #674 ) ;
#310 = DIRECTION ( 'NONE',  ( 1.000000000000000000, 0.000000000000000000, 0.000000000000000000 ) ) ;
#311 = AXIS2_PLACEMENT_3D ( 'NONE', #350, #221, #470 ) ;
#312 = ORIENTED_EDGE ( 'NONE', *, *, #9, .T. ) ;
#313 = CARTESIAN_POINT ( 'NONE',  ( 2.339999999999999858, 0.000000000000000000, 0.000000000000000000 ) ) ;
#314 = B_SPLINE_CURVE_WITH_KNOTS ( 'NONE', 3,
 ( #782, #173, #422, #664 ),
 .UNSPECIFIED., .F., .F.,
 ( 4, 4 ),
 ( 0.001595836497732685145, 0.003865027713271410297 ),
 .UNSPECIFIED. ) ;
#315 = CARTESIAN_POINT ( 'NONE',  ( 0.3318305201578438668, -0.5150000000000070077, 1.984555433326002483 ) ) ;
#316 = AXIS2_PLACEMENT_3D ( 'NONE', #63, #424, #49 ) ;
#317 = ORIENTED_EDGE ( 'NONE', *, *, #187, .F. ) ;
#318 = DIRECTION ( 'NONE',  ( 0.000000000000000000, 0.000000000000000000, 1.000000000000000000 ) ) ;
#319 = EDGE_LOOP ( 'NONE', ( #26, #397, #89, #96 ) ) ;
#320 = DIRECTION ( 'NONE',  ( 2.981066953365987194E-17, 1.260700200564540091E-16, -1.000000000000000000 ) ) ;
#321 = ADVANCED_FACE ( 'NONE', ( #714 ), #40, .F. ) ;
#322 = ORIENTED_EDGE ( 'NONE', *, *, #467, .T. ) ;
#323 = DIRECTION ( 'NONE',  ( -1.000000000000000000, -0.000000000000000000, -0.000000000000000000 ) ) ;
#324 = VERTEX_POINT ( 'NONE', #770 ) ;
#325 = DIRECTION ( 'NONE',  ( 0.8949343913984795229, 0.4461977533473616697, 0.000000000000000000 ) ) ;
#326 = CIRCLE ( 'NONE', #180, 6.479565957685747613 ) ;
#327 = VERTEX_POINT ( 'NONE', #224 ) ;
#328 = CIRCLE ( 'NONE', #279, 6.479565957685747613 ) ;
#329 = DIRECTION ( 'NONE',  ( 0.000000000000000000, -1.000000000000000000, -3.491481338843133355E-15 ) ) ;
#330 = VERTEX_POINT ( 'NONE', #767 ) ;
#331 = CARTESIAN_POINT ( 'NONE',  ( 2.339999999999999858, -0.5150000000000025668, 0.6774776749089207462 ) ) ;
#332 = ORIENTED_EDGE ( 'NONE', *, *, #69, .F. ) ;
#333 = AXIS2_PLACEMENT_3D ( 'NONE', #480, #417, #364 ) ;
#334 = EDGE_CURVE ( 'NONE', #511, #154, #524, .T. ) ;
#335 = FACE_OUTER_BOUND ( 'NONE', #148, .T. ) ;
#336 = ORIENTED_EDGE ( 'NONE', *, *, #60, .T. ) ;
#337 = CARTESIAN_POINT ( 'NONE',  ( 0.000000000000000000, 2.149999999999998135, -0.5150000000000000133 ) ) ;
#338 = EDGE_LOOP ( 'NONE', ( #79, #381, #452, #597 ) ) ;
#339 = CARTESIAN_POINT ( 'NONE',  ( 0.07880998200162314671, -0.5149999999999967937, -0.8678097445627273032 ) ) ;
#340 = DIRECTION ( 'NONE',  ( 0.000000000000000000, -2.664535259100375697E-15, -1.000000000000000000 ) ) ;
#341 = ORIENTED_EDGE ( 'NONE', *, *, #556, .F. ) ;
#342 = VECTOR ( 'NONE', #461, 1000.000000000000227 ) ;
#343 = VERTEX_POINT ( 'NONE', #161 ) ;
#344 = DIRECTION ( 'NONE',  ( 0.8949343913984795229, 0.4461977533473616697, 8.293075310993369208E-17 ) ) ;
#345 = CARTESIAN_POINT ( 'NONE',  ( 1.586512658500282447, -0.5149999999999973488, -0.7436618653472153451 ) ) ;
#346 = CARTESIAN_POINT ( 'NONE',  ( 0.07880998200162454836, 0.8678097445627294126, -0.5150000000000000133 ) ) ;
#347 = EDGE_CURVE ( 'NONE', #698, #511, #656, .T. ) ;
#348 = AXIS2_PLACEMENT_3D ( 'NONE', #748, #144, #732 ) ;
#349 = CARTESIAN_POINT ( 'NONE',  ( 6.064432258795712016, 3.062453033924986646E-15, -0.8736138818786205462 ) ) ;
#350 = CARTESIAN_POINT ( 'NONE',  ( 6.064432258796359498, -3.037960097938776809E-15, 0.8736138818776859605 ) ) ;
#351 = B_SPLINE_CURVE_WITH_KNOTS ( 'NONE', 3,
 ( #587, #463, #30, #648 ),
 .UNSPECIFIED., .F., .F.,
 ( 4, 4 ),
 ( 0.004243790223852924801, 0.006512406267628397839 ),
 .UNSPECIFIED. ) ;
#352 = AXIS2_PLACEMENT_3D ( 'NONE', #443, #139, #502 ) ;
#353 = CARTESIAN_POINT ( 'NONE',  ( 6.500000000000000000, 0.5150000000000000133, 1.798112889504214151E-15 ) ) ;
#354 = AXIS2_PLACEMENT_3D ( 'NONE', #380, #25, #270 ) ;
#355 = VERTEX_POINT ( 'NONE', #155 ) ;
#356 = B_SPLINE_CURVE_WITH_KNOTS ( 'NONE', 3,
 ( #599, #791, #302, #117 ),
 .UNSPECIFIED., .F., .F.,
 ( 4, 4 ),
 ( 0.004243790223852922198, 0.006512406267628396972 ),
 .UNSPECIFIED. ) ;
#357 = EDGE_CURVE ( 'NONE', #716, #330, #761, .T. ) ;
#358 = DIRECTION ( 'NONE',  ( 0.000000000000000000, -1.000000000000000000, -3.491481338843133355E-15 ) ) ;
#359 = CARTESIAN_POINT ( 'NONE',  ( 2.339999999999999858, -0.9833192322609848324, -0.5150000000000000133 ) ) ;
#360 = FACE_OUTER_BOUND ( 'NONE', #571, .T. ) ;
#361 = DIRECTION ( 'NONE',  ( -1.000000000000000000, -0.000000000000000000, -0.000000000000000000 ) ) ;
#362 = VECTOR ( 'NONE', #399, 1000.000000000000000 ) ;
#363 = DIRECTION ( 'NONE',  ( 0.8949343913984054710, 1.557891129246563043E-15, -0.4461977533475101620 ) ) ;
#364 = DIRECTION ( 'NONE',  ( 1.000000000000000000, 0.000000000000000000, 0.000000000000000000 ) ) ;
#365 = EDGE_LOOP ( 'NONE', ( #477, #143, #94, #454 ) ) ;
#366 = LINE ( 'NONE', #47, #758 ) ;
#367 = CARTESIAN_POINT ( 'NONE',  ( 15.10000000000000142, 2.000000000000000000, 0.000000000000000000 ) ) ;
#368 = EDGE_CURVE ( 'NONE', #206, #324, #185, .T. ) ;
#369 = EDGE_LOOP ( 'NONE', ( #492, #579, #624, #788 ) ) ;
#370 = FACE_OUTER_BOUND ( 'NONE', #290, .T. ) ;
#371 = DIRECTION ( 'NONE',  ( -0.000000000000000000, 0.000000000000000000, 1.000000000000000000 ) ) ;
#372 = ORIENTED_EDGE ( 'NONE', *, *, #436, .F. ) ;
#373 = FACE_OUTER_BOUND ( 'NONE', #11, .T. ) ;
#374 = CIRCLE ( 'NONE', #655, 0.8509999999999999787 ) ;
#375 = CARTESIAN_POINT ( 'NONE',  ( 2.339999999999999858, 0.000000000000000000, 0.000000000000000000 ) ) ;
#376 = EDGE_LOOP ( 'NONE', ( #568 ) ) ;
#377 = CIRCLE ( 'NONE', #774, 0.8509999999999999787 ) ;
#378 = EDGE_CURVE ( 'NONE', #206, #19, #618, .T. ) ;
#379 = DIRECTION ( 'NONE',  ( 0.000000000000000000, 3.656870482609724350E-15, -1.000000000000000000 ) ) ;
#380 = CARTESIAN_POINT ( 'NONE',  ( -25.39999999999996305, 0.000000000000000000, 0.000000000000000000 ) ) ;
#381 = ORIENTED_EDGE ( 'NONE', *, *, #629, .F. ) ;
#382 = CARTESIAN_POINT ( 'NONE',  ( 1.586512658500282447, 0.5149999999999974598, 0.7436618653472151230 ) ) ;
#383 = ORIENTED_EDGE ( 'NONE', *, *, #678, .F. ) ;
#384 = DIRECTION ( 'NONE',  ( -1.000000000000000000, -0.000000000000000000, -0.000000000000000000 ) ) ;
#385 = AXIS2_PLACEMENT_3D ( 'NONE', #691, #264, #557 ) ;
#386 = EDGE_LOOP ( 'NONE', ( #759, #447, #496, #792 ) ) ;
#387 = LINE ( 'NONE', #563, #211 ) ;
#388 = CARTESIAN_POINT ( 'NONE',  ( 6.500000000000000000, 1.224646799147365903E-17, -0.5150000000000000133 ) ) ;
#389 = MANIFOLD_SOLID_BREP ( 'RecessCore', #486 ) ;
#390 = EDGE_CURVE ( 'NONE', #638, #206, #168, .T. ) ;
#391 = ORIENTED_EDGE ( 'NONE', *, *, #60, .F. ) ;
#392 = CIRCLE ( 'NONE', #482, 6.479565957685747613 ) ;
#393 = CARTESIAN_POINT ( 'NONE',  ( 2.339999999999999858, -0.9833192322609848324, -0.5150000000000000133 ) ) ;
#394 = EDGE_LOOP ( 'NONE', ( #74, #258, #267, #263 ) ) ;
#395 = FACE_OUTER_BOUND ( 'NONE', #414, .T. ) ;
#396 = ADVANCED_FACE ( 'NONE', ( #118 ), #604, .F. ) ;
#397 = ORIENTED_EDGE ( 'NONE', *, *, #357, .F. ) ;
#398 = AXIS2_PLACEMENT_3D ( 'NONE', #730, #672, #231 ) ;
#399 = DIRECTION ( 'NONE',  ( 0.000000000000000000, 1.000000000000000000, 3.491481338843133355E-15 ) ) ;
#400 = ORIENTED_EDGE ( 'NONE', *, *, #167, .T. ) ;
#401 = DIRECTION ( 'NONE',  ( -1.000000000000000000, -0.000000000000000000, -0.000000000000000000 ) ) ;
#402 = ORIENTED_EDGE ( 'NONE', *, *, #548, .T. ) ;
#403 = VERTEX_POINT ( 'NONE', #97 ) ;
#404 =( NAMED_UNIT ( * ) PLANE_ANGLE_UNIT ( ) SI_UNIT ( $, .RADIAN. ) );
#405 = CIRCLE ( 'NONE', #697, 6.479565957685747613 ) ;
#406 = CIRCLE ( 'NONE', #56, 6.426280380454246099 ) ;
#407 = CARTESIAN_POINT ( 'NONE',  ( 0.07880998200162317446, 0.5149999999999970157, 0.8678097445627273032 ) ) ;
#408 = EDGE_CURVE ( 'NONE', #19, #511, #405, .T. ) ;
#409 = PRESENTATION_STYLE_ASSIGNMENT (( #219 ) ) ;
#410 = FACE_BOUND ( 'NONE', #564, .T. ) ;
#411 = CARTESIAN_POINT ( 'NONE',  ( 2.339999999999999858, 0.000000000000000000, 0.000000000000000000 ) ) ;
#412 = ADVANCED_FACE ( 'NONE', ( #305 ), #426, .F. ) ;
#413 = DIRECTION ( 'NONE',  ( 0.000000000000000000, -1.776356839400250465E-15, -1.000000000000000000 ) ) ;
#414 = EDGE_LOOP ( 'NONE', ( #607, #762, #125, #383 ) ) ;
#415 = AXIS2_PLACEMENT_3D ( 'NONE', #527, #159, #769 ) ;
#416 = ADVANCED_FACE ( 'NONE', ( #601, #238 ), #490, .T. ) ;
#417 = DIRECTION ( 'NONE',  ( -0.000000000000000000, 0.000000000000000000, 1.000000000000000000 ) ) ;
#418 = UNCERTAINTY_MEASURE_WITH_UNIT (LENGTH_MEASURE( 1.000000000000000082E-05 ), #478, 'distance_accuracy_value', 'NONE');
#419 = VERTEX_POINT ( 'NONE', #296 ) ;
#420 = DIRECTION ( 'NONE',  ( 0.000000000000000000, 0.000000000000000000, 1.000000000000000000 ) ) ;
#421 = AXIS2_PLACEMENT_3D ( 'NONE', #543, #361, #603 ) ;
#422 = CARTESIAN_POINT ( 'NONE',  ( 1.586512658500282891, -0.7436618653472135687, 0.5149999999999997913 ) ) ;
#423 = CARTESIAN_POINT ( 'NONE',  ( 2.339999999999999858, -0.5150000000000036771, 0.9833192322604982216 ) ) ;
#424 = DIRECTION ( 'NONE',  ( -1.000000000000000000, -0.000000000000000000, -0.000000000000000000 ) ) ;
#425 = ORIENTED_EDGE ( 'NONE', *, *, #723, .T. ) ;
#426 = PLANE ( 'NONE',  #525 ) ;
#427 = EDGE_CURVE ( 'NONE', #515, #429, #615, .T. ) ;
#428 = CARTESIAN_POINT ( 'NONE',  ( 6.500000000000000000, -0.5150000000000001243, -1.863038949833288239E-15 ) ) ;
#429 = VERTEX_POINT ( 'NONE', #550 ) ;
#430 = DIRECTION ( 'NONE',  ( -1.000000000000000000, -0.000000000000000000, -0.000000000000000000 ) ) ;
#431 = VECTOR ( 'NONE', #170, 1000.000000000000227 ) ;
#432 = CARTESIAN_POINT ( 'NONE',  ( 2.339999999999999858, 0.9833192322604999980, 0.5150000000000001243 ) ) ;
#433 = ORIENTED_EDGE ( 'NONE', *, *, #86, .F. ) ;
#434 = LINE ( 'NONE', #506, #600 ) ;
#435 = CARTESIAN_POINT ( 'NONE',  ( 0.07880998200162454836, 0.8678097445627294126, -0.5150000000000000133 ) ) ;
#436 = EDGE_CURVE ( 'NONE', #330, #13, #374, .T. ) ;
#437 = ORIENTED_EDGE ( 'NONE', *, *, #481, .T. ) ;
#438 = FACE_OUTER_BOUND ( 'NONE', #338, .T. ) ;
#439 = CIRCLE ( 'NONE', #457, 2.000000000000000000 ) ;
#440 = DIRECTION ( 'NONE',  ( 0.000000000000000000, 0.000000000000000000, -1.000000000000000000 ) ) ;
#441 = ORIENTED_EDGE ( 'NONE', *, *, #529, .T. ) ;
#442 = ADVANCED_FACE ( 'NONE', ( #113 ), #794, .T. ) ;
#443 = CARTESIAN_POINT ( 'NONE',  ( 0.000000000000000000, -0.5149999999999921307, -2.149999999999999911 ) ) ;
#444 = VERTEX_POINT ( 'NONE', #58 ) ;
#445 = CARTESIAN_POINT ( 'NONE',  ( 6.500000000000000000, -0.5150000000000001243, -1.863038949833288239E-15 ) ) ;
#446 = CIRCLE ( 'NONE', #649, 3.853420195439739793 ) ;
#447 = ORIENTED_EDGE ( 'NONE', *, *, #713, .F. ) ;
#448 = DIRECTION ( 'NONE',  ( 0.4461977533475102176, 0.8949343913984055821, 0.000000000000000000 ) ) ;
#449 = EDGE_LOOP ( 'NONE', ( #82 ) ) ;
#450 = CARTESIAN_POINT ( 'NONE',  ( 1.265388954528028798, 0.000000000000000000, 0.000000000000000000 ) ) ;
#451 = TOROIDAL_SURFACE ( 'NONE', #10, 3.640000000000000124, 0.3600000000000002087 ) ;
#452 = ORIENTED_EDGE ( 'NONE', *, *, #164, .F. ) ;
#453 = CARTESIAN_POINT ( 'NONE',  ( 2.339999999999999858, -0.5150000000000036771, 0.9833192322604982216 ) ) ;
#454 = ORIENTED_EDGE ( 'NONE', *, *, #629, .T. ) ;
#455 = DIRECTION ( 'NONE',  ( 0.4461977533473616697, -0.8949343913984795229, 0.000000000000000000 ) ) ;
#456 = EDGE_CURVE ( 'NONE', #731, #745, #366, .T. ) ;
#457 = AXIS2_PLACEMENT_3D ( 'NONE', #650, #272, #220 ) ;
#458 = ORIENTED_EDGE ( 'NONE', *, *, #570, .T. ) ;
#459 = AXIS2_PLACEMENT_3D ( 'NONE', #337, #642, #215 ) ;
#460 = B_SPLINE_CURVE_WITH_KNOTS ( 'NONE', 3,
 ( #631, #560, #382, #625 ),
 .UNSPECIFIED., .F., .F.,
 ( 4, 4 ),
 ( 0.001595836497732684061, 0.003865027713271409864 ),
 .UNSPECIFIED. ) ;
#461 = DIRECTION ( 'NONE',  ( 0.8949343913984054710, -0.4461977533475101620, 0.000000000000000000 ) ) ;
#462 = EDGE_LOOP ( 'NONE', ( #133 ) ) ;
#463 = CARTESIAN_POINT ( 'NONE',  ( 1.586512658500328854, -0.7436618653472093499, -0.5150000000000000133 ) ) ;
#464 = ORIENTED_EDGE ( 'NONE', *, *, #476, .F. ) ;
#465 = DIRECTION ( 'NONE',  ( -1.000000000000000000, 0.000000000000000000, 0.000000000000000000 ) ) ;
#466 = SURFACE_SIDE_STYLE ('',( #34 ) ) ;
#467 = EDGE_CURVE ( 'NONE', #154, #716, #725, .T. ) ;
#468 = CARTESIAN_POINT ( 'NONE',  ( 2.339999999999999858, 0.5150000000000024558, -0.6774776749089207462 ) ) ;
#469 = CIRCLE ( 'NONE', #580, 4.000000000000000000 ) ;
#470 = DIRECTION ( 'NONE',  ( -0.8949343913984796339, 0.000000000000000000, -0.4461977533473617252 ) ) ;
#471 = B_SPLINE_CURVE_WITH_KNOTS ( 'NONE', 3,
 ( #205, #628, #80, #266 ),
 .UNSPECIFIED., .F., .F.,
 ( 4, 4 ),
 ( 0.004243790224673705744, 0.006512406268448421576 ),
 .UNSPECIFIED. ) ;
#472 = CARTESIAN_POINT ( 'NONE',  ( 2.339999999999999858, -0.9833192322609848324, -0.5150000000000000133 ) ) ;
#473 =( LENGTH_UNIT ( ) NAMED_UNIT ( * ) SI_UNIT ( .MILLI., .METRE. ) );
#474 = AXIS2_PLACEMENT_3D ( 'NONE', #367, #487, #59 ) ;
#475 = DIRECTION ( 'NONE',  ( -0.000000000000000000, 0.000000000000000000, 1.000000000000000000 ) ) ;
#476 = EDGE_CURVE ( 'NONE', #152, #444, #165, .T. ) ;
#477 = ORIENTED_EDGE ( 'NONE', *, *, #456, .F. ) ;
#478 =( LENGTH_UNIT ( ) NAMED_UNIT ( * ) SI_UNIT ( .MILLI., .METRE. ) );
#479 = CARTESIAN_POINT ( 'NONE',  ( 0.000000000000000000, -0.5150000000000076739, 2.149999999999998135 ) ) ;
#480 = CARTESIAN_POINT ( 'NONE',  ( 0.000000000000000000, 2.149999999999998135, -0.5150000000000000133 ) ) ;
#481 = EDGE_CURVE ( 'NONE', #577, #122, #33, .T. ) ;
#482 = AXIS2_PLACEMENT_3D ( 'NONE', #445, #14, #519 ) ;
#483 = CARTESIAN_POINT ( 'NONE',  ( 0.3318305201578637953, 0.5150000000000070077, -1.984555433326061546 ) ) ;
#484 = CARTESIAN_POINT ( 'NONE',  ( 0.07880998200162411815, 1.224646799147365903E-17, 0.000000000000000000 ) ) ;
#485 = CARTESIAN_POINT ( 'NONE',  ( 0.8327192892707020455, 0.8065069628489046627, 0.5150000000000000133 ) ) ;
#486 = CLOSED_SHELL ( 'NONE', ( #274, #283, #46, #216, #147, #793, #442, #493, #107, #128, #202, #639, #416, #754, #262, #516, #41, #686, #536, #602, #610, #412, #321, #22, #245, #778, #396, #588 ) ) ;
#487 = DIRECTION ( 'NONE',  ( 1.000000000000000000, 0.000000000000000000, 0.000000000000000000 ) ) ;
#488 = EDGE_LOOP ( 'NONE', ( #391, #195, #559, #620, #244, #77, #537, #523, #255, #265, #213, #690, #643, #271, #204, #317 ) ) ;
#489 = EDGE_CURVE ( 'NONE', #23, #23, #584, .T. ) ;
#490 = CYLINDRICAL_SURFACE ( 'NONE', #109, 2.000000000000000000 ) ;
#491 = FACE_OUTER_BOUND ( 'NONE', #138, .T. ) ;
#492 = ORIENTED_EDGE ( 'NONE', *, *, #378, .T. ) ;
#493 = ADVANCED_FACE ( 'NONE', ( #293 ), #542, .T. ) ;
#494 = CARTESIAN_POINT ( 'NONE',  ( 2.339999999999999858, -0.5150000000000036771, 0.9833192322604982216 ) ) ;
#495 = LINE ( 'NONE', #733, #549 ) ;
#496 = ORIENTED_EDGE ( 'NONE', *, *, #334, .F. ) ;
#497 = CARTESIAN_POINT ( 'NONE',  ( 0.3318305201578438668, 1.984555433326004259, 0.5149999999999999023 ) ) ;
#498 = AXIS2_PLACEMENT_3D ( 'NONE', #779, #248, #178 ) ;
#499 = CARTESIAN_POINT ( 'NONE',  ( 2.339999999999999858, 0.5149999999999976819, 0.6774776749089244099 ) ) ;
#500 = EDGE_CURVE ( 'NONE', #330, #521, #232, .T. ) ;
#501 = VERTEX_POINT ( 'NONE', #605 ) ;
#502 = DIRECTION ( 'NONE',  ( 0.000000000000000000, -3.617551358899587488E-15, 1.000000000000000000 ) ) ;
#503 = AXIS2_PLACEMENT_3D ( 'NONE', #739, #259, #136 ) ;
#504 = CARTESIAN_POINT ( 'NONE',  ( 0.000000000000000000, 0.5149999999999925748, 2.149999999999999911 ) ) ;
#505 = ORIENTED_EDGE ( 'NONE', *, *, #135, .T. ) ;
#506 = CARTESIAN_POINT ( 'NONE',  ( 2.339999999999999858, -0.9833192322609848324, -0.5150000000000000133 ) ) ;
#507 = ORIENTED_EDGE ( 'NONE', *, *, #693, .T. ) ;
#508 = FACE_OUTER_BOUND ( 'NONE', #742, .T. ) ;
#509 = COLOUR_RGB ( '',0.7921568627450980005, 0.8196078431372548767, 0.9333333333333333481 ) ;
#510 = ORIENTED_EDGE ( 'NONE', *, *, #334, .T. ) ;
#511 = VERTEX_POINT ( 'NONE', #483 ) ;
#512 = CARTESIAN_POINT ( 'NONE',  ( 2.339999999999999858, 0.000000000000000000, 0.000000000000000000 ) ) ;
#513 = CONICAL_SURFACE ( 'NONE', #103, 0.8509999999999999787, 0.06981317007976585443 ) ;
#514 =( GEOMETRIC_REPRESENTATION_CONTEXT ( 3 ) GLOBAL_UNCERTAINTY_ASSIGNED_CONTEXT ( ( #418 ) ) GLOBAL_UNIT_ASSIGNED_CONTEXT ( ( #478, #175, #665 ) ) REPRESENTATION_CONTEXT ( 'NONE', 'WORKASPACE' ) );
#515 = VERTEX_POINT ( 'NONE', #721 ) ;
#516 = ADVANCED_FACE ( 'NONE', ( #360, #546 ), #451, .T. ) ;
#517 = LINE ( 'NONE', #268, #544 ) ;
#518 = ORIENTED_EDGE ( 'NONE', *, *, #582, .F. ) ;
#519 = DIRECTION ( 'NONE',  ( 0.000000000000000000, -3.614249330683745220E-15, 1.000000000000000000 ) ) ;
#520 = CIRCLE ( 'NONE', #348, 6.426280380454246099 ) ;
#521 = VERTEX_POINT ( 'NONE', #251 ) ;
#522 = DIRECTION ( 'NONE',  ( 0.000000000000000000, 1.000000000000000000, 1.338610863216202098E-16 ) ) ;
#523 = ORIENTED_EDGE ( 'NONE', *, *, #27, .F. ) ;
#524 = LINE ( 'NONE', #95, #197 ) ;
#525 = AXIS2_PLACEMENT_3D ( 'NONE', #663, #181, #169 ) ;
#526 = ORIENTED_EDGE ( 'NONE', *, *, #476, .T. ) ;
#527 = CARTESIAN_POINT ( 'NONE',  ( 2.339999999999999858, 0.000000000000000000, 0.000000000000000000 ) ) ;
#528 = CARTESIAN_POINT ( 'NONE',  ( 1.586512658500329076, 0.7436618653472092388, -0.5150000000000000133 ) ) ;
#529 = EDGE_CURVE ( 'NONE', #751, #429, #142, .T. ) ;
#530 = AXIS2_PLACEMENT_3D ( 'NONE', #4, #191, #141 ) ;
#531 = DIRECTION ( 'NONE',  ( 0.000000000000000000, 0.000000000000000000, 1.000000000000000000 ) ) ;
#532 = CARTESIAN_POINT ( 'NONE',  ( 2.339999999999999858, 0.5150000000000035660, -0.9833192322609830560 ) ) ;
#533 = VECTOR ( 'NONE', #297, 1000.000000000000000 ) ;
#534 = CARTESIAN_POINT ( 'NONE',  ( 3.100000000000000089, 2.000000000000000000, 0.000000000000000000 ) ) ;
#535 = FACE_OUTER_BOUND ( 'NONE', #488, .T. ) ;
#536 = ADVANCED_FACE ( 'NONE', ( #370 ), #203, .F. ) ;
#537 = ORIENTED_EDGE ( 'NONE', *, *, #582, .T. ) ;
#538 = PRODUCT_CONTEXT ( 'NONE', #708, 'mechanical' ) ;
#539 = DIRECTION ( 'NONE',  ( 0.000000000000000000, 0.000000000000000000, 1.000000000000000000 ) ) ;
#540 = CARTESIAN_POINT ( 'NONE',  ( 0.000000000000000000, 0.5149999999999925748, 2.149999999999999911 ) ) ;
#541 = AXIS2_PLACEMENT_3D ( 'NONE', #744, #184, #621 ) ;
#542 = PLANE ( 'NONE',  #612 ) ;
#543 = CARTESIAN_POINT ( 'NONE',  ( 2.339999999999999858, 0.000000000000000000, 0.000000000000000000 ) ) ;
#544 = VECTOR ( 'NONE', #284, 1000.000000000000000 ) ;
#545 = AXIS2_PLACEMENT_3D ( 'NONE', #67, #455, #561 ) ;
#546 = FACE_OUTER_BOUND ( 'NONE', #84, .T. ) ;
#547 = LINE ( 'NONE', #186, #431 ) ;
#548 = EDGE_CURVE ( 'NONE', #53, #53, #727, .T. ) ;
#549 = VECTOR ( 'NONE', #667, 1000.000000000000227 ) ;
#550 = CARTESIAN_POINT ( 'NONE',  ( 0.07880998200162454836, 0.8678097445627294126, 0.5149999999999999023 ) ) ;
#551 = DIRECTION ( 'NONE',  ( 0.000000000000000000, 0.000000000000000000, 1.000000000000000000 ) ) ;
#552 = EDGE_LOOP ( 'NONE', ( #437, #433, #179, #150 ) ) ;
#553 = DIRECTION ( 'NONE',  ( 0.000000000000000000, -3.491481338843133355E-15, 1.000000000000000000 ) ) ;
#554 = FACE_OUTER_BOUND ( 'NONE', #24, .T. ) ;
#555 = EDGE_LOOP ( 'NONE', ( #749, #668, #464, #199 ) ) ;
#556 = EDGE_CURVE ( 'NONE', #208, #515, #39, .T. ) ;
#557 = DIRECTION ( 'NONE',  ( 0.000000000000000000, 0.000000000000000000, 1.000000000000000000 ) ) ;
#558 = DIRECTION ( 'NONE',  ( 0.000000000000000000, -1.000000000000000000, -3.491481338843133355E-15 ) ) ;
#559 = ORIENTED_EDGE ( 'NONE', *, *, #347, .T. ) ;
#560 = CARTESIAN_POINT ( 'NONE',  ( 0.8327192892707016014, 0.5149999999999972378, 0.8065069628489067721 ) ) ;
#561 = DIRECTION ( 'NONE',  ( 0.8949343913984796339, 0.4461977533473616697, 0.000000000000000000 ) ) ;
#562 = EDGE_LOOP ( 'NONE', ( #273, #5, #260, #634 ) ) ;
#563 = CARTESIAN_POINT ( 'NONE',  ( 0.000000000000000000, -0.5149999999999921307, -2.150000000000001688 ) ) ;
#564 = EDGE_LOOP ( 'NONE', ( #402 ) ) ;
#565 = FACE_OUTER_BOUND ( 'NONE', #269, .T. ) ;
#566 = ORIENTED_EDGE ( 'NONE', *, *, #226, .T. ) ;
#567 = CARTESIAN_POINT ( 'NONE',  ( 1.555305873969553776, 0.000000000000000000, 0.000000000000000000 ) ) ;
#568 = ORIENTED_EDGE ( 'NONE', *, *, #489, .T. ) ;
#569 = FACE_OUTER_BOUND ( 'NONE', #562, .T. ) ;
#570 = EDGE_CURVE ( 'NONE', #444, #183, #66, .T. ) ;
#571 = EDGE_LOOP ( 'NONE', ( #728 ) ) ;
#572 = DIRECTION ( 'NONE',  ( 0.000000000000000000, 3.497120880152328011E-15, -1.000000000000000000 ) ) ;
#573 = ORIENTED_EDGE ( 'NONE', *, *, #768, .T. ) ;
#574 = DIRECTION ( 'NONE',  ( 1.000000000000000000, 0.000000000000000000, 0.000000000000000000 ) ) ;
#575 = ORIENTED_EDGE ( 'NONE', *, *, #252, .T. ) ;
#576 = DIRECTION ( 'NONE',  ( 0.000000000000000000, 1.000000000000000000, 0.000000000000000000 ) ) ;
#577 = VERTEX_POINT ( 'NONE', #3 ) ;
#578 = DIRECTION ( 'NONE',  ( 0.000000000000000000, -3.491481338843133355E-15, 1.000000000000000000 ) ) ;
#579 = ORIENTED_EDGE ( 'NONE', *, *, #237, .F. ) ;
#580 = AXIS2_PLACEMENT_3D ( 'NONE', #280, #223, #531 ) ;
#581 = CARTESIAN_POINT ( 'NONE',  ( 0.8327192892707017124, -0.5149999999999970157, -0.8065069628489068831 ) ) ;
#582 = EDGE_CURVE ( 'NONE', #638, #594, #520, .T. ) ;
#583 = CARTESIAN_POINT ( 'NONE',  ( 2.339999999999999858, 0.5150000000000035660, -0.9833192322609830560 ) ) ;
#584 = CIRCLE ( 'NONE', #233, 4.000000000000000000 ) ;
#585 = PRESENTATION_LAYER_ASSIGNMENT (  '', '', ( #35 ) ) ;
#586 = FACE_OUTER_BOUND ( 'NONE', #756, .T. ) ;
#587 = CARTESIAN_POINT ( 'NONE',  ( 2.339999999999999858, -0.6774776749089228556, -0.5150000000000000133 ) ) ;
#588 = ADVANCED_FACE ( 'NONE', ( #683 ), #192, .F. ) ;
#589 = B_SPLINE_CURVE_WITH_KNOTS ( 'NONE', 3,
 ( #339, #581, #345, #101 ),
 .UNSPECIFIED., .F., .F.,
 ( 4, 4 ),
 ( 0.001595836497732683627, 0.003865027713271409864 ),
 .UNSPECIFIED. ) ;
#590 = DIRECTION ( 'NONE',  ( -1.000000000000000000, -0.000000000000000000, -0.000000000000000000 ) ) ;
#591 = DIRECTION ( 'NONE',  ( 0.000000000000000000, 0.000000000000000000, 1.000000000000000000 ) ) ;
#592 = AXIS2_PLACEMENT_3D ( 'NONE', #149, #465, #712 ) ;
#593 = DIRECTION ( 'NONE',  ( 0.000000000000000000, 0.000000000000000000, 1.000000000000000000 ) ) ;
#594 = VERTEX_POINT ( 'NONE', #497 ) ;
#595 = AXIS2_PLACEMENT_3D ( 'NONE', #614, #200, #209 ) ;
#596 = CARTESIAN_POINT ( 'NONE',  ( 2.339999999999999858, 0.6774776749089227446, 0.5150000000000001243 ) ) ;
#597 = ORIENTED_EDGE ( 'NONE', *, *, #176, .F. ) ;
#598 = DIRECTION ( 'NONE',  ( -1.000000000000000000, 0.000000000000000000, 0.000000000000000000 ) ) ;
#599 = CARTESIAN_POINT ( 'NONE',  ( 2.339999999999999858, -0.5150000000000025668, 0.6774776749089207462 ) ) ;
#600 = VECTOR ( 'NONE', #256, 1000.000000000000000 ) ;
#601 = FACE_OUTER_BOUND ( 'NONE', #145, .T. ) ;
#602 = ADVANCED_FACE ( 'NONE', ( #438 ), #130, .F. ) ;
#603 = DIRECTION ( 'NONE',  ( 0.000000000000000000, 0.000000000000000000, 1.000000000000000000 ) ) ;
#604 = CONICAL_SURFACE ( 'NONE', #120, 0.8509999999999999787, 0.06981317007976585443 ) ;
#605 = CARTESIAN_POINT ( 'NONE',  ( 2.339999999999999858, 0.9833192322605002200, -0.5150000000000000133 ) ) ;
#606 = CARTESIAN_POINT ( 'NONE',  ( 2.339999999999999858, -0.6774776749089228556, -0.5150000000000000133 ) ) ;
#607 = ORIENTED_EDGE ( 'NONE', *, *, #390, .T. ) ;
#608 = CARTESIAN_POINT ( 'NONE',  ( 2.339999999999999858, 0.5150000000000035660, -0.9833192322609830560 ) ) ;
#609 = DIRECTION ( 'NONE',  ( -1.000000000000000000, -0.000000000000000000, -0.000000000000000000 ) ) ;
#610 = ADVANCED_FACE ( 'NONE', ( #373 ), #676, .T. ) ;
#611 = EDGE_LOOP ( 'NONE', ( #322, #65, #616, #510 ) ) ;
#612 = AXIS2_PLACEMENT_3D ( 'NONE', #717, #781, #666 ) ;
#613 = CARTESIAN_POINT ( 'NONE',  ( 2.339999999999999858, 0.9833192322604999980, 0.5150000000000001243 ) ) ;
#614 = CARTESIAN_POINT ( 'NONE',  ( 3.300000000000000711, 0.000000000000000000, 0.000000000000000000 ) ) ;
#615 = B_SPLINE_CURVE_WITH_KNOTS ( 'NONE', 3,
 ( #596, #671, #485, #790 ),
 .UNSPECIFIED., .F., .F.,
 ( 4, 4 ),
 ( 0.004243790224673708346, 0.006512406268448421576 ),
 .UNSPECIFIED. ) ;
#616 = ORIENTED_EDGE ( 'NONE', *, *, #408, .T. ) ;
#617 = FACE_OUTER_BOUND ( 'NONE', #189, .T. ) ;
#618 = CIRCLE ( 'NONE', #57, 1.009117809157098700 ) ;
#619 = CARTESIAN_POINT ( 'NONE',  ( 0.07880998200162454836, -0.8678097445627294126, -0.5150000000000000133 ) ) ;
#620 = ORIENTED_EDGE ( 'NONE', *, *, #408, .F. ) ;
#621 = DIRECTION ( 'NONE',  ( 0.8949343913984795229, 0.4461977533473616697, 0.000000000000000000 ) ) ;
#622 = CARTESIAN_POINT ( 'NONE',  ( 0.000000000000000000, -2.149999999999998135, 0.5149999999999995692 ) ) ;
#623 = AXIS2_PLACEMENT_3D ( 'NONE', #42, #591, #225 ) ;
#624 = ORIENTED_EDGE ( 'NONE', *, *, #37, .F. ) ;
#625 = CARTESIAN_POINT ( 'NONE',  ( 2.339999999999999858, 0.5149999999999976819, 0.6774776749089244099 ) ) ;
#626 = AXIS2_PLACEMENT_3D ( 'NONE', #7, #126, #198 ) ;
#627 = VERTEX_POINT ( 'NONE', #190 ) ;
#628 = CARTESIAN_POINT ( 'NONE',  ( 1.586512658500282447, 0.5150000000000026779, -0.7436618653472115703 ) ) ;
#629 = EDGE_CURVE ( 'NONE', #68, #745, #434, .T. ) ;
#630 = ORIENTED_EDGE ( 'NONE', *, *, #570, .F. ) ;
#631 = CARTESIAN_POINT ( 'NONE',  ( 0.07880998200162317446, 0.5149999999999970157, 0.8678097445627273032 ) ) ;
#632 = ORIENTED_EDGE ( 'NONE', *, *, #768, .F. ) ;
#633 = CARTESIAN_POINT ( 'NONE',  ( 2.339999999999999858, 0.5150000000000035660, -0.9833192322609830560 ) ) ;
#634 = ORIENTED_EDGE ( 'NONE', *, *, #69, .T. ) ;
#635 = DIRECTION ( 'NONE',  ( -1.000000000000000000, 0.000000000000000000, -0.000000000000000000 ) ) ;
#636 = ORIENTED_EDGE ( 'NONE', *, *, #112, .T. ) ;
#637 = CARTESIAN_POINT ( 'NONE',  ( 6.500000000000000000, 1.224646799147365903E-17, 0.000000000000000000 ) ) ;
#638 = VERTEX_POINT ( 'NONE', #680 ) ;
#639 = ADVANCED_FACE ( 'NONE', ( #617 ), #70, .T. ) ;
#640 = CARTESIAN_POINT ( 'NONE',  ( 2.339999999999999858, -0.9833192322609848324, 0.5149999999999997913 ) ) ;
#641 = ORIENTED_EDGE ( 'NONE', *, *, #119, .T. ) ;
#642 = DIRECTION ( 'NONE',  ( -0.000000000000000000, 0.000000000000000000, 1.000000000000000000 ) ) ;
#643 = ORIENTED_EDGE ( 'NONE', *, *, #481, .F. ) ;
#644 = EDGE_CURVE ( 'NONE', #751, #208, #460, .T. ) ;
#645 = CARTESIAN_POINT ( 'NONE',  ( 0.000000000000000000, 2.149999999999999911, -0.5150000000000000133 ) ) ;
#646 = AXIS2_PLACEMENT_3D ( 'NONE', #102, #475, #108 ) ;
#647 = PLANE ( 'NONE',  #15 ) ;
#648 = CARTESIAN_POINT ( 'NONE',  ( 0.07880998200162454836, -0.8678097445627294126, -0.5150000000000000133 ) ) ;
#649 = AXIS2_PLACEMENT_3D ( 'NONE', #450, #384, #76 ) ;
#650 = CARTESIAN_POINT ( 'NONE',  ( 15.10000000000000142, 0.000000000000000000, 0.000000000000000000 ) ) ;
#651 = FACE_OUTER_BOUND ( 'NONE', #61, .T. ) ;
#652 = EDGE_CURVE ( 'NONE', #698, #521, #387, .T. ) ;
#653 = CARTESIAN_POINT ( 'NONE',  ( 3.099999999999998757, 0.000000000000000000, 0.000000000000000000 ) ) ;
#654 = ORIENTED_EDGE ( 'NONE', *, *, #119, .F. ) ;
#655 = AXIS2_PLACEMENT_3D ( 'NONE', #657, #777, #539 ) ;
#656 = CIRCLE ( 'NONE', #311, 6.426280380454416630 ) ;
#657 = CARTESIAN_POINT ( 'NONE',  ( 2.339999999999999858, 0.000000000000000000, 0.000000000000000000 ) ) ;
#658 = DIRECTION ( 'NONE',  ( -1.000000000000000000, -0.000000000000000000, -0.000000000000000000 ) ) ;
#659 = AXIS2_PLACEMENT_3D ( 'NONE', #484, #307, #718 ) ;
#660 = APPLICATION_PROTOCOL_DEFINITION ( 'draft international standard', 'automotive_design', 1998, #229 ) ;
#661 = EDGE_CURVE ( 'NONE', #688, #751, #743, .T. ) ;
#662 = PRODUCT_DEFINITION_FORMATION_WITH_SPECIFIED_SOURCE ( 'Symmetric', '', #669, .NOT_KNOWN. ) ;
#663 = CARTESIAN_POINT ( 'NONE',  ( 2.339999999999999858, -0.5150000000000036771, 0.9833192322604982216 ) ) ;
#664 = CARTESIAN_POINT ( 'NONE',  ( 2.339999999999999858, -0.6774776749089228556, 0.5149999999999997913 ) ) ;
#665 =( NAMED_UNIT ( * ) SI_UNIT ( $, .STERADIAN. ) SOLID_ANGLE_UNIT ( ) );
#666 = DIRECTION ( 'NONE',  ( 0.000000000000000000, 0.000000000000000000, 1.000000000000000000 ) ) ;
#667 = DIRECTION ( 'NONE',  ( 0.8949343913984054710, -0.4461977533475101620, 0.000000000000000000 ) ) ;
#668 = ORIENTED_EDGE ( 'NONE', *, *, #741, .F. ) ;
#669 = PRODUCT ( 'ISO 7045 - M4 x 12 - Z - 12N_ISO 7045 - M4 x 12 - Z - 12N', 'ISO 7045 - M4 x 12 - Z - 12N_ISO 7045 - M4 x 12 - Z - 12N', '', ( #538 ) ) ;
#670 = CIRCLE ( 'NONE', #545, 6.426280380454417518 ) ;
#671 = CARTESIAN_POINT ( 'NONE',  ( 1.586512658500282447, 0.7436618653472133467, 0.5150000000000000133 ) ) ;
#672 = DIRECTION ( 'NONE',  ( 2.981066953365987194E-17, 1.260700200564540091E-16, -1.000000000000000000 ) ) ;
#673 = EDGE_CURVE ( 'NONE', #324, #501, #246, .T. ) ;
#674 = PRODUCT_DEFINITION_CONTEXT ( 'detailed design', #229, 'design' ) ;
#675 = ORIENTED_EDGE ( 'NONE', *, *, #164, .T. ) ;
#676 = PLANE ( 'NONE',  #158 ) ;
#677 = DIRECTION ( 'NONE',  ( 0.000000000000000000, -1.000000000000000000, -1.653891437665908470E-16 ) ) ;
#678 = EDGE_CURVE ( 'NONE', #638, #501, #88, .T. ) ;
#679 = EDGE_LOOP ( 'NONE', ( #372, #632, #336, #308 ) ) ;
#680 = CARTESIAN_POINT ( 'NONE',  ( 0.3318305201578438668, 1.984555433326004259, -0.5150000000000000133 ) ) ;
#681 = DIRECTION ( 'NONE',  ( 0.000000000000000000, 0.000000000000000000, 1.000000000000000000 ) ) ;
#682 = ORIENTED_EDGE ( 'NONE', *, *, #456, .T. ) ;
#683 = FACE_OUTER_BOUND ( 'NONE', #695, .T. ) ;
#684 = FACE_OUTER_BOUND ( 'NONE', #376, .T. ) ;
#685 = VERTEX_POINT ( 'NONE', #707 ) ;
#686 = ADVANCED_FACE ( 'NONE', ( #335, #586 ), #1, .F. ) ;
#687 = CARTESIAN_POINT ( 'NONE',  ( 2.339999999999999858, 0.9833192322604999980, -0.5149999999999999023 ) ) ;
#688 = VERTEX_POINT ( 'NONE', #757 ) ;
#689 = PLANE ( 'NONE',  #530 ) ;
#690 = ORIENTED_EDGE ( 'NONE', *, *, #16, .F. ) ;
#691 = CARTESIAN_POINT ( 'NONE',  ( 3.100000000000000089, 0.000000000000000000, 0.000000000000000000 ) ) ;
#692 = ORIENTED_EDGE ( 'NONE', *, *, #548, .F. ) ;
#693 = EDGE_CURVE ( 'NONE', #68, #13, #212, .T. ) ;
#694 = CARTESIAN_POINT ( 'NONE',  ( 2.339999999999999858, 0.9833192322604999980, 0.5150000000000001243 ) ) ;
#695 = EDGE_LOOP ( 'NONE', ( #277, #641, #734, #31, #201, #140, #312, #87 ) ) ;
#696 = CARTESIAN_POINT ( 'NONE',  ( 3.300000000000000711, 0.000000000000000000, 0.000000000000000000 ) ) ;
#697 = AXIS2_PLACEMENT_3D ( 'NONE', #353, #358, #172 ) ;
#698 = VERTEX_POINT ( 'NONE', #703 ) ;
#699 = CARTESIAN_POINT ( 'NONE',  ( 0.8327192892707033778, 0.8065069628489045517, -0.5150000000000000133 ) ) ;
#700 = VECTOR ( 'NONE', #440, 1000.000000000000000 ) ;
#701 = EDGE_CURVE ( 'NONE', #241, #241, #439, .T. ) ;
#702 = EDGE_LOOP ( 'NONE', ( #775, #654, #72, #575 ) ) ;
#703 = CARTESIAN_POINT ( 'NONE',  ( 0.3318305201578637953, -0.5149999999999926859, -1.984555433326064877 ) ) ;
#704 = ORIENTED_EDGE ( 'NONE', *, *, #167, .F. ) ;
#705 = CARTESIAN_POINT ( 'NONE',  ( 2.339999999999999858, 0.6774776749089228556, -0.5150000000000000133 ) ) ;
#706 = ORIENTED_EDGE ( 'NONE', *, *, #303, .T. ) ;
#707 = CARTESIAN_POINT ( 'NONE',  ( 0.3318305201578637953, -1.984555433326063323, 0.5149999999999995692 ) ) ;
#708 = APPLICATION_CONTEXT ( 'automotive_design' ) ;
#709 = FACE_OUTER_BOUND ( 'NONE', #738, .T. ) ;
#710 = FILL_AREA_STYLE_COLOUR ( '', #509 ) ;
#711 = AXIS2_PLACEMENT_3D ( 'NONE', #62, #598, #420 ) ;
#712 = DIRECTION ( 'NONE',  ( 0.000000000000000000, 0.000000000000000000, 1.000000000000000000 ) ) ;
#713 = EDGE_CURVE ( 'NONE', #154, #521, #517, .T. ) ;
#714 = FACE_OUTER_BOUND ( 'NONE', #386, .T. ) ;
#715 = DIRECTION ( 'NONE',  ( 0.000000000000000000, -1.000000000000000000, -1.653891437665908470E-16 ) ) ;
#716 = VERTEX_POINT ( 'NONE', #468 ) ;
#717 = CARTESIAN_POINT ( 'NONE',  ( 2.339999999999999858, 0.9833192322604999980, -0.5149999999999999023 ) ) ;
#718 = DIRECTION ( 'NONE',  ( 0.000000000000000000, 0.000000000000000000, -1.000000000000000000 ) ) ;
#719 = EDGE_CURVE ( 'NONE', #688, #152, #406, .T. ) ;
#720 = AXIS2_PLACEMENT_3D ( 'NONE', #532, #106, #227 ) ;
#721 = CARTESIAN_POINT ( 'NONE',  ( 2.339999999999999858, 0.6774776749089227446, 0.5150000000000001243 ) ) ;
#722 = DIRECTION ( 'NONE',  ( 1.000000000000000000, 0.000000000000000000, 0.000000000000000000 ) ) ;
#723 = EDGE_CURVE ( 'NONE', #685, #577, #326, .T. ) ;
#724 = CIRCLE ( 'NONE', #498, 0.8509999999999999787 ) ;
#725 = LINE ( 'NONE', #608, #276 ) ;
#726 = DIRECTION ( 'NONE',  ( 0.000000000000000000, 0.000000000000000000, 1.000000000000000000 ) ) ;
#727 = CIRCLE ( 'NONE', #385, 2.200000000000000178 ) ;
#728 = ORIENTED_EDGE ( 'NONE', *, *, #783, .T. ) ;
#729 = DIRECTION ( 'NONE',  ( 0.000000000000000000, 0.000000000000000000, 1.000000000000000000 ) ) ;
#730 = CARTESIAN_POINT ( 'NONE',  ( 6.500000000000000000, -5.267959233760015702E-17, 0.5150000000000000133 ) ) ;
#731 = VERTEX_POINT ( 'NONE', #207 ) ;
#732 = DIRECTION ( 'NONE',  ( -0.8949343913984054710, 0.4461977533475101620, 0.000000000000000000 ) ) ;
#733 = CARTESIAN_POINT ( 'NONE',  ( 0.000000000000000000, 2.149999999999999911, 0.5150000000000001243 ) ) ;
#734 = ORIENTED_EDGE ( 'NONE', *, *, #37, .T. ) ;
#735 = DIRECTION ( 'NONE',  ( -1.000000000000000000, 0.000000000000000000, 0.000000000000000000 ) ) ;
#736 = PLANE ( 'NONE',  #44 ) ;
#737 = AXIS2_PLACEMENT_3D ( 'NONE', #613, #448, #12 ) ;
#738 = EDGE_LOOP ( 'NONE', ( #156 ) ) ;
#739 = CARTESIAN_POINT ( 'NONE',  ( -997.3834933385059003, 0.000000000000000000, 0.000000000000000000 ) ) ;
#740 = DIRECTION ( 'NONE',  ( -1.000000000000000000, -0.000000000000000000, -0.000000000000000000 ) ) ;
#741 = EDGE_CURVE ( 'NONE', #444, #355, #36, .T. ) ;
#742 = EDGE_LOOP ( 'NONE', ( #458, #304, #43, #526 ) ) ;
#743 = CIRCLE ( 'NONE', #278, 6.479565957685747613 ) ;
#744 = CARTESIAN_POINT ( 'NONE',  ( 2.339999999999999858, -0.9833192322609848324, -0.5150000000000000133 ) ) ;
#745 = VERTEX_POINT ( 'NONE', #640 ) ;
#746 = DIRECTION ( 'NONE',  ( -1.000000000000000000, -0.000000000000000000, -0.000000000000000000 ) ) ;
#747 = VERTEX_POINT ( 'NONE', #766 ) ;
#748 = CARTESIAN_POINT ( 'NONE',  ( 6.064432258795712016, -0.8736138818786205462, 0.000000000000000000 ) ) ;
#749 = ORIENTED_EDGE ( 'NONE', *, *, #98, .T. ) ;
#750 = DIRECTION ( 'NONE',  ( 0.000000000000000000, 1.000000000000000000, 1.260700200564540091E-16 ) ) ;
#751 = VERTEX_POINT ( 'NONE', #407 ) ;
#752 = DIRECTION ( 'NONE',  ( 0.8949343913984054710, 0.000000000000000000, -0.4461977533475101620 ) ) ;
#753 = ORIENTED_EDGE ( 'NONE', *, *, #741, .T. ) ;
#754 = ADVANCED_FACE ( 'NONE', ( #410, #709 ), #647, .F. ) ;
#755 = LINE ( 'NONE', #257, #48 ) ;
#756 = EDGE_LOOP ( 'NONE', ( #692 ) ) ;
#757 = CARTESIAN_POINT ( 'NONE',  ( 0.3318305201578438668, 0.5149999999999931299, 1.984555433326006035 ) ) ;
#758 = VECTOR ( 'NONE', #715, 1000.000000000000000 ) ;
#759 = ORIENTED_EDGE ( 'NONE', *, *, #652, .T. ) ;
#760 = DIRECTION ( 'NONE',  ( 0.8949343913984795229, -1.557891129246044565E-15, 0.4461977533473616697 ) ) ;
#761 = CIRCLE ( 'NONE', #281, 0.8509999999999999787 ) ;
#762 = ORIENTED_EDGE ( 'NONE', *, *, #368, .T. ) ;
#763 = FACE_OUTER_BOUND ( 'NONE', #365, .T. ) ;
#764 = FILL_AREA_STYLE ('',( #710 ) ) ;
#765 = CIRCLE ( 'NONE', #421, 0.8509999999999999787 ) ;
#766 = CARTESIAN_POINT ( 'NONE',  ( 0.3318305201578637953, -1.984555433326063323, -0.5150000000000000133 ) ) ;
#767 = CARTESIAN_POINT ( 'NONE',  ( 2.339999999999999858, -0.5149999999999975708, -0.6774776749089246319 ) ) ;
#768 = EDGE_CURVE ( 'NONE', #627, #330, #589, .T. ) ;
#769 = DIRECTION ( 'NONE',  ( 0.000000000000000000, 0.000000000000000000, 1.000000000000000000 ) ) ;
#770 = CARTESIAN_POINT ( 'NONE',  ( 2.339999999999999858, 0.6774776749089228556, -0.5150000000000000133 ) ) ;
#771 = AXIS2_PLACEMENT_3D ( 'NONE', #696, #153, #160 ) ;
#772 = CIRCLE ( 'NONE', #595, 2.000000000000000000 ) ;
#773 =( NAMED_UNIT ( * ) SI_UNIT ( $, .STERADIAN. ) SOLID_ANGLE_UNIT ( ) );
#774 = AXIS2_PLACEMENT_3D ( 'NONE', #375, #740, #681 ) ;
#775 = ORIENTED_EDGE ( 'NONE', *, *, #673, .F. ) ;
#776 = CIRCLE ( 'NONE', #316, 0.8509999999999999787 ) ;
#777 = DIRECTION ( 'NONE',  ( -1.000000000000000000, -0.000000000000000000, -0.000000000000000000 ) ) ;
#778 = ADVANCED_FACE ( 'NONE', ( #38 ), #222, .F. ) ;
#779 = CARTESIAN_POINT ( 'NONE',  ( 2.339999999999999858, 0.000000000000000000, 0.000000000000000000 ) ) ;
#780 = SHAPE_DEFINITION_REPRESENTATION ( #196, #81 ) ;
#781 = DIRECTION ( 'NONE',  ( -1.000000000000000000, 0.000000000000000000, 0.000000000000000000 ) ) ;
#782 = CARTESIAN_POINT ( 'NONE',  ( 0.07880998200162454836, -0.8678097445627295237, 0.5149999999999996803 ) ) ;
#783 = EDGE_CURVE ( 'NONE', #419, #419, #469, .T. ) ;
#784 = VECTOR ( 'NONE', #363, 1000.000000000000227 ) ;
#785 = VECTOR ( 'NONE', #576, 1000.000000000000000 ) ;
#786 = DIRECTION ( 'NONE',  ( -1.000000000000000000, -0.000000000000000000, -0.000000000000000000 ) ) ;
#787 = DIRECTION ( 'NONE',  ( 2.981066953365987194E-17, 1.000000000000000000, 3.617551358899587488E-15 ) ) ;
#788 = ORIENTED_EDGE ( 'NONE', *, *, #368, .F. ) ;
#789 = CARTESIAN_POINT ( 'NONE',  ( 3.100000000000000089, 0.000000000000000000, 2.200000000000000178 ) ) ;
#790 = CARTESIAN_POINT ( 'NONE',  ( 0.07880998200162454836, 0.8678097445627294126, 0.5149999999999999023 ) ) ;
#791 = CARTESIAN_POINT ( 'NONE',  ( 1.586512658500329298, -0.5150000000000026779, 0.7436618653472073515 ) ) ;
#792 = ORIENTED_EDGE ( 'NONE', *, *, #347, .F. ) ;
#793 = ADVANCED_FACE ( 'NONE', ( #763 ), #218, .T. ) ;
#794 = PLANE ( 'NONE',  #711 ) ;
#795 = CARTESIAN_POINT ( 'NONE',  ( 2.339999999999999858, 0.000000000000000000, 0.000000000000000000 ) ) ;
ENDSEC;
END-ISO-10303-21;
