ISO-10303-21;
HEADER;
FILE_DESCRIPTION (( 'STEP AP214' ),
    '1' );
FILE_NAME ('ISO - 4036 - M4 - N.STEP',
    '2025-07-29T15:59:08',
    ( '' ),
    ( '' ),
    'SwSTEP 2.0',
    'SolidWorks 2025',
    '' );
FILE_SCHEMA (( 'AUTOMOTIVE_DESIGN' ));
ENDSEC;

DATA;
#1 = PRODUCT_RELATED_PRODUCT_CATEGORY ( 'part', '', ( #191 ) ) ;
#2 = CARTESIAN_POINT ( 'NONE',  ( 3.500000000000000000, -2.020725942163701827, 0.000000000000000000 ) ) ;
#3 = AXIS2_PLACEMENT_3D ( 'NONE', #315, #77, #161 ) ;
#4 = CARTESIAN_POINT ( 'NONE',  ( -3.500000000000000000, 2.020725942163687616, -2.200000000000000178 ) ) ;
#5 = DIRECTION ( 'NONE',  ( 1.000000000000000000, 0.000000000000000000, 0.000000000000000000 ) ) ;
#6 = DIRECTION ( 'NONE',  ( 0.8660254037844373753, -0.5000000000000022204, 0.000000000000000000 ) ) ;
#7 = ORIENTED_EDGE ( 'NONE', *, *, #254, .T. ) ;
#8 = VECTOR ( 'NONE', #110, 1000.000000000000000 ) ;
#9 = DIRECTION ( 'NONE',  ( 0.8660254037844380415, 0.5000000000000011102, 0.000000000000000000 ) ) ;
#10 = FACE_OUTER_BOUND ( 'NONE', #207, .T. ) ;
#11 = EDGE_CURVE ( 'NONE', #280, #118, #238, .T. ) ;
#12 = ORIENTED_EDGE ( 'NONE', *, *, #74, .F. ) ;
#13 = VERTEX_POINT ( 'NONE', #333 ) ;
#14 = AXIS2_PLACEMENT_3D ( 'NONE', #218, #326, #295 ) ;
#15 = EDGE_LOOP ( 'NONE', ( #303 ) ) ;
#16 = AXIS2_PLACEMENT_3D ( 'NONE', #158, #129, #208 ) ;
#17 = ORIENTED_EDGE ( 'NONE', *, *, #74, .T. ) ;
#18 = EDGE_CURVE ( 'NONE', #13, #13, #233, .T. ) ;
#19 = VERTEX_POINT ( 'NONE', #62 ) ;
#20 = ORIENTED_EDGE ( 'NONE', *, *, #267, .F. ) ;
#21 = ORIENTED_EDGE ( 'NONE', *, *, #90, .F. ) ;
#22 = AXIS2_PLACEMENT_3D ( 'NONE', #328, #329, #93 ) ;
#23 = CIRCLE ( 'NONE', #316, 1.650000000000000133 ) ;
#24 = DIRECTION ( 'NONE',  ( -0.8660254037844373753, 0.5000000000000022204, 0.000000000000000000 ) ) ;
#25 = DIRECTION ( 'NONE',  ( 0.000000000000000000, -1.000000000000000000, 0.000000000000000000 ) ) ;
#26 = AXIS2_PLACEMENT_3D ( 'NONE', #203, #95, #42 ) ;
#27 = LINE ( 'NONE', #132, #70 ) ;
#28 = EDGE_LOOP ( 'NONE', ( #244 ) ) ;
#29 = DIRECTION ( 'NONE',  ( 0.000000000000000000, 0.000000000000000000, 1.000000000000000000 ) ) ;
#30 =( NAMED_UNIT ( * ) SI_UNIT ( $, .STERADIAN. ) SOLID_ANGLE_UNIT ( ) );
#31 = CARTESIAN_POINT ( 'NONE',  ( -1.251928832280971611E-15, -4.041451884327399213, -2.200000000000000178 ) ) ;
#32 = PRESENTATION_STYLE_ASSIGNMENT (( #57 ) ) ;
#33 = ORIENTED_EDGE ( 'NONE', *, *, #304, .T. ) ;
#34 = ADVANCED_FACE ( 'NONE', ( #318 ), #101, .T. ) ;
#35 = LINE ( 'NONE', #164, #211 ) ;
#36 =( GEOMETRIC_REPRESENTATION_CONTEXT ( 3 ) GLOBAL_UNCERTAINTY_ASSIGNED_CONTEXT ( ( #210 ) ) GLOBAL_UNIT_ASSIGNED_CONTEXT ( ( #143, #89, #30 ) ) REPRESENTATION_CONTEXT ( 'NONE', 'WORKASPACE' ) );
#37 = LINE ( 'NONE', #4, #8 ) ;
#38 = EDGE_LOOP ( 'NONE', ( #285 ) ) ;
#39 = LINE ( 'NONE', #278, #165 ) ;
#40 = VERTEX_POINT ( 'NONE', #52 ) ;
#41 = UNCERTAINTY_MEASURE_WITH_UNIT (LENGTH_MEASURE( 1.000000000000000082E-05 ), #337, 'distance_accuracy_value', 'NONE');
#42 = DIRECTION ( 'NONE',  ( -1.000000000000000000, 0.000000000000000000, 0.000000000000000000 ) ) ;
#43 = VECTOR ( 'NONE', #226, 1000.000000000000114 ) ;
#44 = EDGE_LOOP ( 'NONE', ( #225, #256, #204, #48 ) ) ;
#45 = DIRECTION ( 'NONE',  ( -0.8660254037844373753, 0.5000000000000022204, 0.000000000000000000 ) ) ;
#46 = VERTEX_POINT ( 'NONE', #345 ) ;
#47 = FACE_OUTER_BOUND ( 'NONE', #206, .T. ) ;
#48 = ORIENTED_EDGE ( 'NONE', *, *, #111, .T. ) ;
#49 = CARTESIAN_POINT ( 'NONE',  ( -1.251928832280971611E-15, -4.041451884327399213, 0.000000000000000000 ) ) ;
#50 = VECTOR ( 'NONE', #192, 1000.000000000000000 ) ;
#51 = EDGE_CURVE ( 'NONE', #40, #232, #159, .T. ) ;
#52 = CARTESIAN_POINT ( 'NONE',  ( -3.500000000000000000, 2.020725942163687616, 0.000000000000000000 ) ) ;
#53 = CARTESIAN_POINT ( 'NONE',  ( -1.251928832280971611E-15, -4.041451884327399213, -2.200000000000000178 ) ) ;
#54 = LINE ( 'NONE', #343, #167 ) ;
#55 = CARTESIAN_POINT ( 'NONE',  ( -3.500000000000000000, 2.020725942163687616, -2.200000000000000178 ) ) ;
#56 = FACE_OUTER_BOUND ( 'NONE', #38, .T. ) ;
#57 = SURFACE_STYLE_USAGE ( .BOTH. , #194 ) ;
#58 = AXIS2_PLACEMENT_3D ( 'NONE', #264, #29, #73 ) ;
#59 = DIRECTION ( 'NONE',  ( 0.000000000000000000, -1.000000000000000000, 0.000000000000000000 ) ) ;
#60 = FACE_OUTER_BOUND ( 'NONE', #200, .T. ) ;
#61 = ADVANCED_FACE ( 'NONE', ( #260 ), #183, .T. ) ;
#62 = CARTESIAN_POINT ( 'NONE',  ( 1.650000000000000133, 0.000000000000000000, -0.2450726383733958513 ) ) ;
#63 = ORIENTED_EDGE ( 'NONE', *, *, #174, .T. ) ;
#64 = VECTOR ( 'NONE', #190, 1000.000000000000114 ) ;
#65 = DIRECTION ( 'NONE',  ( -0.8660254037844379305, -0.5000000000000011102, 0.000000000000000000 ) ) ;
#66 = EDGE_LOOP ( 'NONE', ( #173 ) ) ;
#67 = DIRECTION ( 'NONE',  ( 0.000000000000000000, -1.000000000000000000, 0.000000000000000000 ) ) ;
#68 = VERTEX_POINT ( 'NONE', #55 ) ;
#69 = VERTEX_POINT ( 'NONE', #180 ) ;
#70 = VECTOR ( 'NONE', #136, 1000.000000000000000 ) ;
#71 = ORIENTED_EDGE ( 'NONE', *, *, #90, .T. ) ;
#72 = EDGE_LOOP ( 'NONE', ( #12, #157, #7, #308, #182, #306 ) ) ;
#73 = DIRECTION ( 'NONE',  ( 1.000000000000000000, 0.000000000000000000, -0.000000000000000000 ) ) ;
#74 = EDGE_CURVE ( 'NONE', #162, #68, #106, .T. ) ;
#75 = FACE_OUTER_BOUND ( 'NONE', #15, .T. ) ;
#76 = CONICAL_SURFACE ( 'NONE', #171, 1.614999999999999991, 0.9599310885968865836 ) ;
#77 = DIRECTION ( 'NONE',  ( -0.000000000000000000, -0.000000000000000000, 1.000000000000000000 ) ) ;
#78 = CARTESIAN_POINT ( 'NONE',  ( 0.000000000000000000, 0.000000000000000000, -2.174599999999998978 ) ) ;
#79 = DIRECTION ( 'NONE',  ( 0.8660254037844373753, -0.5000000000000022204, 0.000000000000000000 ) ) ;
#80 = VECTOR ( 'NONE', #65, 1000.000000000000114 ) ;
#81 = CARTESIAN_POINT ( 'NONE',  ( 3.500000000000000000, 2.020725942163684064, -2.200000000000000178 ) ) ;
#82 = VECTOR ( 'NONE', #291, 1000.000000000000114 ) ;
#83 = CARTESIAN_POINT ( 'NONE',  ( -6.999999999999988454, -1.734723475976807094E-15, -2.200000000000000178 ) ) ;
#84 = ORIENTED_EDGE ( 'NONE', *, *, #267, .T. ) ;
#85 =( GEOMETRIC_REPRESENTATION_CONTEXT ( 3 ) GLOBAL_UNCERTAINTY_ASSIGNED_CONTEXT ( ( #41 ) ) GLOBAL_UNIT_ASSIGNED_CONTEXT ( ( #337, #144, #116 ) ) REPRESENTATION_CONTEXT ( 'NONE', 'WORKASPACE' ) );
#86 = ADVANCED_FACE ( 'NONE', ( #241 ), #187, .T. ) ;
#87 = LINE ( 'NONE', #81, #185 ) ;
#88 = DIRECTION ( 'NONE',  ( 0.000000000000000000, 0.000000000000000000, 1.000000000000000000 ) ) ;
#89 =( NAMED_UNIT ( * ) PLANE_ANGLE_UNIT ( ) SI_UNIT ( $, .RADIAN. ) );
#90 = EDGE_CURVE ( 'NONE', #177, #177, #23, .T. ) ;
#91 = CARTESIAN_POINT ( 'NONE',  ( -3.500000000000000000, -2.020725942163697386, -2.200000000000000178 ) ) ;
#92 = MECHANICAL_DESIGN_GEOMETRIC_PRESENTATION_REPRESENTATION (  '', ( #109 ), #36 ) ;
#93 = DIRECTION ( 'NONE',  ( 1.000000000000000000, 0.000000000000000000, 0.000000000000000000 ) ) ;
#94 = ORIENTED_EDGE ( 'NONE', *, *, #296, .F. ) ;
#95 = DIRECTION ( 'NONE',  ( 0.000000000000000000, 0.000000000000000000, -1.000000000000000000 ) ) ;
#96 = VERTEX_POINT ( 'NONE', #49 ) ;
#97 = DIRECTION ( 'NONE',  ( 1.000000000000000000, 0.000000000000000000, 0.000000000000000000 ) ) ;
#98 = ORIENTED_EDGE ( 'NONE', *, *, #174, .F. ) ;
#99 = VERTEX_POINT ( 'NONE', #2 ) ;
#100 = ORIENTED_EDGE ( 'NONE', *, *, #195, .F. ) ;
#101 = PLANE ( 'NONE',  #322 ) ;
#102 = PLANE ( 'NONE',  #58 ) ;
#103 = VECTOR ( 'NONE', #255, 1000.000000000000000 ) ;
#104 = EDGE_CURVE ( 'NONE', #118, #46, #108, .T. ) ;
#105 = APPLICATION_PROTOCOL_DEFINITION ( 'draft international standard', 'automotive_design', 1998, #251 ) ;
#106 = LINE ( 'NONE', #236, #82 ) ;
#107 = CARTESIAN_POINT ( 'NONE',  ( -1.251928832280971611E-15, -4.041451884327399213, -2.200000000000000178 ) ) ;
#108 = LINE ( 'NONE', #107, #64 ) ;
#109 = STYLED_ITEM ( 'NONE', ( #32 ), #209 ) ;
#110 = DIRECTION ( 'NONE',  ( 0.000000000000000000, 0.000000000000000000, 1.000000000000000000 ) ) ;
#111 = EDGE_CURVE ( 'NONE', #118, #96, #54, .T. ) ;
#112 = CARTESIAN_POINT ( 'NONE',  ( 1.690928983386105990E-15, 4.041451884327385002, -2.200000000000000178 ) ) ;
#113 = FILL_AREA_STYLE ('',( #268 ) ) ;
#114 = ADVANCED_FACE ( 'NONE', ( #214, #265 ), #102, .T. ) ;
#115 = LINE ( 'NONE', #242, #50 ) ;
#116 =( NAMED_UNIT ( * ) SI_UNIT ( $, .STERADIAN. ) SOLID_ANGLE_UNIT ( ) );
#117 = CYLINDRICAL_SURFACE ( 'NONE', #205, 1.650000000000000133 ) ;
#118 = VERTEX_POINT ( 'NONE', #53 ) ;
#119 = CARTESIAN_POINT ( 'NONE',  ( 0.000000000000000000, 0.000000000000000000, -2.200000000000000178 ) ) ;
#120 = ORIENTED_EDGE ( 'NONE', *, *, #166, .F. ) ;
#121 = LINE ( 'NONE', #305, #43 ) ;
#122 = ORIENTED_EDGE ( 'NONE', *, *, #155, .T. ) ;
#123 = CARTESIAN_POINT ( 'NONE',  ( 0.000000000000000000, 0.000000000000000000, 0.000000000000000000 ) ) ;
#124 = CONICAL_SURFACE ( 'NONE', #26, 2.000000000000000444, 0.9599310885968862506 ) ;
#125 = EDGE_LOOP ( 'NONE', ( #193 ) ) ;
#126 = PRESENTATION_LAYER_ASSIGNMENT (  '', '', ( #109 ) ) ;
#127 = EDGE_LOOP ( 'NONE', ( #100 ) ) ;
#128 = CARTESIAN_POINT ( 'NONE',  ( -3.500000000000000000, 2.020725942163687616, 0.000000000000000000 ) ) ;
#129 = DIRECTION ( 'NONE',  ( -0.5000000000000012212, 0.8660254037844380415, 0.000000000000000000 ) ) ;
#130 = AXIS2_PLACEMENT_3D ( 'NONE', #123, #344, #189 ) ;
#131 = VECTOR ( 'NONE', #67, 1000.000000000000000 ) ;
#132 = CARTESIAN_POINT ( 'NONE',  ( -3.500000000000000000, -2.020725942163697386, -2.200000000000000178 ) ) ;
#133 = VECTOR ( 'NONE', #79, 1000.000000000000114 ) ;
#134 = ORIENTED_EDGE ( 'NONE', *, *, #317, .T. ) ;
#135 = LINE ( 'NONE', #313, #261 ) ;
#136 = DIRECTION ( 'NONE',  ( 0.000000000000000000, 0.000000000000000000, 1.000000000000000000 ) ) ;
#137 = AXIS2_PLACEMENT_3D ( 'NONE', #31, #139, #9 ) ;
#138 = PRODUCT_DEFINITION_SHAPE ( 'NONE', 'NONE',  #228 ) ;
#139 = DIRECTION ( 'NONE',  ( 0.5000000000000011102, -0.8660254037844380415, 0.000000000000000000 ) ) ;
#140 = DIRECTION ( 'NONE',  ( 0.000000000000000000, 0.000000000000000000, -1.000000000000000000 ) ) ;
#141 = EDGE_CURVE ( 'NONE', #253, #162, #135, .T. ) ;
#142 = COLOUR_RGB ( '',0.7921568627450980005, 0.8196078431372548767, 0.9333333333333333481 ) ;
#143 =( LENGTH_UNIT ( ) NAMED_UNIT ( * ) SI_UNIT ( .MILLI., .METRE. ) );
#144 =( NAMED_UNIT ( * ) PLANE_ANGLE_UNIT ( ) SI_UNIT ( $, .RADIAN. ) );
#145 = ORIENTED_EDGE ( 'NONE', *, *, #141, .T. ) ;
#146 = PRODUCT_DEFINITION_FORMATION_WITH_SPECIFIED_SOURCE ( 'Symmetric', '', #191, .NOT_KNOWN. ) ;
#147 = LINE ( 'NONE', #153, #131 ) ;
#148 = ADVANCED_FACE ( 'NONE', ( #75, #234 ), #212, .F. ) ;
#149 = ORIENTED_EDGE ( 'NONE', *, *, #332, .F. ) ;
#150 = DIRECTION ( 'NONE',  ( 1.000000000000000000, 0.000000000000000000, 0.000000000000000000 ) ) ;
#151 = ORIENTED_EDGE ( 'NONE', *, *, #220, .T. ) ;
#152 = AXIS2_PLACEMENT_3D ( 'NONE', #78, #262, #294 ) ;
#153 = CARTESIAN_POINT ( 'NONE',  ( -3.500000000000000000, 2.020725942163687616, -2.200000000000000178 ) ) ;
#154 = EDGE_LOOP ( 'NONE', ( #33, #231, #331, #151 ) ) ;
#155 = EDGE_CURVE ( 'NONE', #280, #232, #27, .T. ) ;
#156 = CARTESIAN_POINT ( 'NONE',  ( 3.500000000000000000, 2.020725942163684064, -2.200000000000000178 ) ) ;
#157 = ORIENTED_EDGE ( 'NONE', *, *, #141, .F. ) ;
#158 = CARTESIAN_POINT ( 'NONE',  ( 1.690928983386105990E-15, 4.041451884327385002, -2.200000000000000178 ) ) ;
#159 = LINE ( 'NONE', #128, #269 ) ;
#160 = ADVANCED_BREP_SHAPE_REPRESENTATION ( 'ISO - 4036 - M4 - N_ISO - 4036 - M4 - N', ( #209, #130 ), #85 ) ;
#161 = DIRECTION ( 'NONE',  ( 1.000000000000000000, 0.000000000000000000, 0.000000000000000000 ) ) ;
#162 = VERTEX_POINT ( 'NONE', #246 ) ;
#163 = DIRECTION ( 'NONE',  ( 0.000000000000000000, 0.000000000000000000, 1.000000000000000000 ) ) ;
#164 = CARTESIAN_POINT ( 'NONE',  ( -3.500000000000000000, -2.020725942163697386, 0.000000000000000000 ) ) ;
#165 = VECTOR ( 'NONE', #222, 1000.000000000000000 ) ;
#166 = EDGE_CURVE ( 'NONE', #319, #181, #115, .T. ) ;
#167 = VECTOR ( 'NONE', #163, 1000.000000000000000 ) ;
#168 = EDGE_LOOP ( 'NONE', ( #336, #202, #277, #334, #311, #178 ) ) ;
#169 = DIRECTION ( 'NONE',  ( -0.000000000000000000, -0.000000000000000000, 1.000000000000000000 ) ) ;
#170 = PLANE ( 'NONE',  #137 ) ;
#171 = AXIS2_PLACEMENT_3D ( 'NONE', #323, #169, #5 ) ;
#172 = CARTESIAN_POINT ( 'NONE',  ( -1.650000000000000133, 0.000000000000000000, -1.929527361626602655 ) ) ;
#173 = ORIENTED_EDGE ( 'NONE', *, *, #332, .T. ) ;
#174 = EDGE_CURVE ( 'NONE', #68, #40, #37, .T. ) ;
#175 = DIRECTION ( 'NONE',  ( 0.000000000000000000, -1.000000000000000000, 0.000000000000000000 ) ) ;
#176 = ORIENTED_EDGE ( 'NONE', *, *, #279, .F. ) ;
#177 = VERTEX_POINT ( 'NONE', #172 ) ;
#178 = ORIENTED_EDGE ( 'NONE', *, *, #166, .T. ) ;
#179 = AXIS2_PLACEMENT_3D ( 'NONE', #276, #229, #150 ) ;
#180 = CARTESIAN_POINT ( 'NONE',  ( 2.000000000000000444, 0.000000000000000000, -2.200000000000000622 ) ) ;
#181 = VERTEX_POINT ( 'NONE', #243 ) ;
#182 = ORIENTED_EDGE ( 'NONE', *, *, #11, .F. ) ;
#183 = PLANE ( 'NONE',  #16 ) ;
#184 = APPLICATION_PROTOCOL_DEFINITION ( 'draft international standard', 'automotive_design', 1998, #309 ) ;
#185 = VECTOR ( 'NONE', #59, 1000.000000000000000 ) ;
#186 = DIRECTION ( 'NONE',  ( -1.000000000000000000, 0.000000000000000000, 0.000000000000000000 ) ) ;
#187 = PLANE ( 'NONE',  #197 ) ;
#188 = EDGE_LOOP ( 'NONE', ( #324, #98, #227, #122 ) ) ;
#189 = DIRECTION ( 'NONE',  ( 1.000000000000000000, 0.000000000000000000, 0.000000000000000000 ) ) ;
#190 = DIRECTION ( 'NONE',  ( 0.8660254037844380415, 0.5000000000000011102, 0.000000000000000000 ) ) ;
#191 = PRODUCT ( 'ISO - 4036 - M4 - N_ISO - 4036 - M4 - N', 'ISO - 4036 - M4 - N_ISO - 4036 - M4 - N', '', ( #289 ) ) ;
#192 = DIRECTION ( 'NONE',  ( -0.8660254037844373753, 0.5000000000000022204, 0.000000000000000000 ) ) ;
#193 = ORIENTED_EDGE ( 'NONE', *, *, #195, .T. ) ;
#194 = SURFACE_SIDE_STYLE ('',( #273 ) ) ;
#195 = EDGE_CURVE ( 'NONE', #19, #19, #314, .T. ) ;
#196 = FACE_BOUND ( 'NONE', #258, .T. ) ;
#197 = AXIS2_PLACEMENT_3D ( 'NONE', #312, #213, #286 ) ;
#198 = CARTESIAN_POINT ( 'NONE',  ( 3.500000000000000000, 2.020725942163684064, -2.200000000000000178 ) ) ;
#199 = DIRECTION ( 'NONE',  ( 0.000000000000000000, 0.000000000000000000, 1.000000000000000000 ) ) ;
#200 = EDGE_LOOP ( 'NONE', ( #176, #341, #248, #134 ) ) ;
#201 = FACE_OUTER_BOUND ( 'NONE', #230, .T. ) ;
#202 = ORIENTED_EDGE ( 'NONE', *, *, #51, .T. ) ;
#203 = CARTESIAN_POINT ( 'NONE',  ( 0.000000000000000000, 0.000000000000000000, -2.174599999999998978 ) ) ;
#204 = ORIENTED_EDGE ( 'NONE', *, *, #11, .T. ) ;
#205 = AXIS2_PLACEMENT_3D ( 'NONE', #119, #199, #97 ) ;
#206 = EDGE_LOOP ( 'NONE', ( #21 ) ) ;
#207 = EDGE_LOOP ( 'NONE', ( #120, #283, #145, #84 ) ) ;
#208 = DIRECTION ( 'NONE',  ( -0.8660254037844379305, -0.5000000000000011102, 0.000000000000000000 ) ) ;
#209 = MANIFOLD_SOLID_BREP ( 'EndChamfer', #217 ) ;
#210 = UNCERTAINTY_MEASURE_WITH_UNIT (LENGTH_MEASURE( 1.000000000000000082E-05 ), #143, 'distance_accuracy_value', 'NONE');
#211 = VECTOR ( 'NONE', #6, 1000.000000000000114 ) ;
#212 = CYLINDRICAL_SURFACE ( 'NONE', #3, 2.000000000000000444 ) ;
#213 = DIRECTION ( 'NONE',  ( -1.000000000000000000, 0.000000000000000000, 0.000000000000000000 ) ) ;
#214 = FACE_BOUND ( 'NONE', #28, .T. ) ;
#215 = FACE_OUTER_BOUND ( 'NONE', #72, .T. ) ;
#216 = AXIS2_PLACEMENT_3D ( 'NONE', #325, #140, #298 ) ;
#217 = CLOSED_SHELL ( 'NONE', ( #272, #61, #290, #223, #235, #34, #86, #245, #114, #259, #338, #148 ) ) ;
#218 = CARTESIAN_POINT ( 'NONE',  ( 3.500000000000000000, 2.020725942163684064, -2.200000000000000178 ) ) ;
#219 = DIRECTION ( 'NONE',  ( 0.000000000000000000, 0.000000000000000000, 1.000000000000000000 ) ) ;
#220 = EDGE_CURVE ( 'NONE', #253, #319, #270, .T. ) ;
#221 = VECTOR ( 'NONE', #175, 1000.000000000000000 ) ;
#222 = DIRECTION ( 'NONE',  ( 0.000000000000000000, 0.000000000000000000, 1.000000000000000000 ) ) ;
#223 = ADVANCED_FACE ( 'NONE', ( #327 ), #301, .F. ) ;
#224 = FACE_OUTER_BOUND ( 'NONE', #127, .T. ) ;
#225 = ORIENTED_EDGE ( 'NONE', *, *, #239, .F. ) ;
#226 = DIRECTION ( 'NONE',  ( 0.8660254037844380415, 0.5000000000000011102, 0.000000000000000000 ) ) ;
#227 = ORIENTED_EDGE ( 'NONE', *, *, #321, .T. ) ;
#228 = PRODUCT_DEFINITION ( 'General', '', #146, #293 ) ;
#229 = DIRECTION ( 'NONE',  ( -0.000000000000000000, -0.000000000000000000, 1.000000000000000000 ) ) ;
#230 = EDGE_LOOP ( 'NONE', ( #339 ) ) ;
#231 = ORIENTED_EDGE ( 'NONE', *, *, #317, .F. ) ;
#232 = VERTEX_POINT ( 'NONE', #247 ) ;
#233 = CIRCLE ( 'NONE', #152, 2.000000000000000444 ) ;
#234 = FACE_OUTER_BOUND ( 'NONE', #66, .T. ) ;
#235 = ADVANCED_FACE ( 'NONE', ( #60 ), #170, .T. ) ;
#236 = CARTESIAN_POINT ( 'NONE',  ( 1.690928983386105990E-15, 4.041451884327385002, -2.200000000000000178 ) ) ;
#237 = AXIS2_PLACEMENT_3D ( 'NONE', #156, #257, #45 ) ;
#238 = LINE ( 'NONE', #263, #133 ) ;
#239 = EDGE_CURVE ( 'NONE', #232, #96, #35, .T. ) ;
#240 = DIRECTION ( 'NONE',  ( -0.5000000000000022204, -0.8660254037844373753, 0.000000000000000000 ) ) ;
#241 = FACE_OUTER_BOUND ( 'NONE', #188, .T. ) ;
#242 = CARTESIAN_POINT ( 'NONE',  ( 3.500000000000000000, 2.020725942163684064, 0.000000000000000000 ) ) ;
#243 = CARTESIAN_POINT ( 'NONE',  ( 1.690928983386105990E-15, 4.041451884327385002, 0.000000000000000000 ) ) ;
#244 = ORIENTED_EDGE ( 'NONE', *, *, #300, .F. ) ;
#245 = ADVANCED_FACE ( 'NONE', ( #196, #215 ), #299, .F. ) ;
#246 = CARTESIAN_POINT ( 'NONE',  ( 1.690928983386105990E-15, 4.041451884327385002, -2.200000000000000178 ) ) ;
#247 = CARTESIAN_POINT ( 'NONE',  ( -3.500000000000000000, -2.020725942163697386, 0.000000000000000000 ) ) ;
#248 = ORIENTED_EDGE ( 'NONE', *, *, #104, .T. ) ;
#249 = FACE_BOUND ( 'NONE', #275, .T. ) ;
#250 = EDGE_LOOP ( 'NONE', ( #94, #20, #17, #63 ) ) ;
#251 = APPLICATION_CONTEXT ( 'automotive_design' ) ;
#252 = VERTEX_POINT ( 'NONE', #307 ) ;
#253 = VERTEX_POINT ( 'NONE', #320 ) ;
#254 = EDGE_CURVE ( 'NONE', #253, #46, #87, .T. ) ;
#255 = DIRECTION ( 'NONE',  ( 0.000000000000000000, 0.000000000000000000, 1.000000000000000000 ) ) ;
#256 = ORIENTED_EDGE ( 'NONE', *, *, #155, .F. ) ;
#257 = DIRECTION ( 'NONE',  ( 0.5000000000000022204, 0.8660254037844373753, -0.000000000000000000 ) ) ;
#258 = EDGE_LOOP ( 'NONE', ( #149 ) ) ;
#259 = ADVANCED_FACE ( 'NONE', ( #56, #266 ), #76, .F. ) ;
#260 = FACE_OUTER_BOUND ( 'NONE', #250, .T. ) ;
#261 = VECTOR ( 'NONE', #24, 1000.000000000000000 ) ;
#262 = DIRECTION ( 'NONE',  ( -0.000000000000000000, -0.000000000000000000, 1.000000000000000000 ) ) ;
#263 = CARTESIAN_POINT ( 'NONE',  ( -3.500000000000000000, -2.020725942163697386, -2.200000000000000178 ) ) ;
#264 = CARTESIAN_POINT ( 'NONE',  ( -6.999999999999988454, -1.734723475976807094E-15, 0.000000000000000000 ) ) ;
#265 = FACE_OUTER_BOUND ( 'NONE', #168, .T. ) ;
#266 = FACE_BOUND ( 'NONE', #125, .T. ) ;
#267 = EDGE_CURVE ( 'NONE', #162, #181, #271, .T. ) ;
#268 = FILL_AREA_STYLE_COLOUR ( '', #142 ) ;
#269 = VECTOR ( 'NONE', #25, 1000.000000000000000 ) ;
#270 = LINE ( 'NONE', #198, #287 ) ;
#271 = LINE ( 'NONE', #112, #103 ) ;
#272 = ADVANCED_FACE ( 'NONE', ( #224, #47 ), #117, .F. ) ;
#273 = SURFACE_STYLE_FILL_AREA ( #113 ) ;
#274 = CARTESIAN_POINT ( 'NONE',  ( 1.690928983386105990E-15, 4.041451884327385002, 0.000000000000000000 ) ) ;
#275 = EDGE_LOOP ( 'NONE', ( #71 ) ) ;
#276 = CARTESIAN_POINT ( 'NONE',  ( 0.000000000000000000, 0.000000000000000000, 0.000000000000000000 ) ) ;
#277 = ORIENTED_EDGE ( 'NONE', *, *, #239, .T. ) ;
#278 = CARTESIAN_POINT ( 'NONE',  ( 3.500000000000000000, -2.020725942163701827, -2.200000000000000178 ) ) ;
#279 = EDGE_CURVE ( 'NONE', #96, #99, #121, .T. ) ;
#280 = VERTEX_POINT ( 'NONE', #91 ) ;
#281 = CIRCLE ( 'NONE', #179, 2.000000000000000444 ) ;
#282 = PLANE ( 'NONE',  #237 ) ;
#283 = ORIENTED_EDGE ( 'NONE', *, *, #220, .F. ) ;
#284 = CARTESIAN_POINT ( 'NONE',  ( 3.500000000000000000, 2.020725942163684064, 0.000000000000000000 ) ) ;
#285 = ORIENTED_EDGE ( 'NONE', *, *, #300, .T. ) ;
#286 = DIRECTION ( 'NONE',  ( 0.000000000000000000, 0.000000000000000000, 1.000000000000000000 ) ) ;
#287 = VECTOR ( 'NONE', #88, 1000.000000000000000 ) ;
#288 = DIRECTION ( 'NONE',  ( 0.8660254037844373753, -0.5000000000000022204, 0.000000000000000000 ) ) ;
#289 = PRODUCT_CONTEXT ( 'NONE', #309, 'mechanical' ) ;
#290 = ADVANCED_FACE ( 'NONE', ( #10 ), #282, .T. ) ;
#291 = DIRECTION ( 'NONE',  ( -0.8660254037844379305, -0.5000000000000011102, 0.000000000000000000 ) ) ;
#292 = DIRECTION ( 'NONE',  ( -0.000000000000000000, -0.000000000000000000, 1.000000000000000000 ) ) ;
#293 = PRODUCT_DEFINITION_CONTEXT ( 'detailed design', #251, 'design' ) ;
#294 = DIRECTION ( 'NONE',  ( 1.000000000000000000, 0.000000000000000000, 0.000000000000000000 ) ) ;
#295 = DIRECTION ( 'NONE',  ( 0.000000000000000000, 0.000000000000000000, 1.000000000000000000 ) ) ;
#296 = EDGE_CURVE ( 'NONE', #181, #40, #302, .T. ) ;
#297 = DIRECTION ( 'NONE',  ( 1.000000000000000000, 0.000000000000000000, -0.000000000000000000 ) ) ;
#298 = DIRECTION ( 'NONE',  ( 1.000000000000000000, 0.000000000000000000, 0.000000000000000000 ) ) ;
#299 = PLANE ( 'NONE',  #330 ) ;
#300 = EDGE_CURVE ( 'NONE', #252, #252, #281, .T. ) ;
#301 = PLANE ( 'NONE',  #14 ) ;
#302 = LINE ( 'NONE', #274, #80 ) ;
#303 = ORIENTED_EDGE ( 'NONE', *, *, #18, .T. ) ;
#304 = EDGE_CURVE ( 'NONE', #319, #99, #310, .T. ) ;
#305 = CARTESIAN_POINT ( 'NONE',  ( -1.251928832280971611E-15, -4.041451884327399213, 0.000000000000000000 ) ) ;
#306 = ORIENTED_EDGE ( 'NONE', *, *, #321, .F. ) ;
#307 = CARTESIAN_POINT ( 'NONE',  ( 2.000000000000000444, 0.000000000000000000, 0.000000000000000000 ) ) ;
#308 = ORIENTED_EDGE ( 'NONE', *, *, #104, .F. ) ;
#309 = APPLICATION_CONTEXT ( 'automotive_design' ) ;
#310 = LINE ( 'NONE', #335, #221 ) ;
#311 = ORIENTED_EDGE ( 'NONE', *, *, #304, .F. ) ;
#312 = CARTESIAN_POINT ( 'NONE',  ( -3.500000000000000000, 2.020725942163687616, -2.200000000000000178 ) ) ;
#313 = CARTESIAN_POINT ( 'NONE',  ( 3.500000000000000000, 2.020725942163684064, -2.200000000000000178 ) ) ;
#314 = CIRCLE ( 'NONE', #216, 1.650000000000000133 ) ;
#315 = CARTESIAN_POINT ( 'NONE',  ( 0.000000000000000000, 0.000000000000000000, -25.03750572909317285 ) ) ;
#316 = AXIS2_PLACEMENT_3D ( 'NONE', #347, #292, #186 ) ;
#317 = EDGE_CURVE ( 'NONE', #46, #99, #39, .T. ) ;
#318 = FACE_OUTER_BOUND ( 'NONE', #44, .T. ) ;
#319 = VERTEX_POINT ( 'NONE', #284 ) ;
#320 = CARTESIAN_POINT ( 'NONE',  ( 3.500000000000000000, 2.020725942163684064, -2.200000000000000178 ) ) ;
#321 = EDGE_CURVE ( 'NONE', #68, #280, #147, .T. ) ;
#322 = AXIS2_PLACEMENT_3D ( 'NONE', #342, #240, #288 ) ;
#323 = CARTESIAN_POINT ( 'NONE',  ( 0.000000000000000000, 0.000000000000000000, -0.2695799022107356335 ) ) ;
#324 = ORIENTED_EDGE ( 'NONE', *, *, #51, .F. ) ;
#325 = CARTESIAN_POINT ( 'NONE',  ( 0.000000000000000000, 0.000000000000000000, -0.2450726383733958513 ) ) ;
#326 = DIRECTION ( 'NONE',  ( -1.000000000000000000, 0.000000000000000000, 0.000000000000000000 ) ) ;
#327 = FACE_OUTER_BOUND ( 'NONE', #154, .T. ) ;
#328 = CARTESIAN_POINT ( 'NONE',  ( 0.000000000000000000, 0.000000000000000000, -2.200000000000000622 ) ) ;
#329 = DIRECTION ( 'NONE',  ( -0.000000000000000000, -0.000000000000000000, -1.000000000000000000 ) ) ;
#330 = AXIS2_PLACEMENT_3D ( 'NONE', #83, #219, #297 ) ;
#331 = ORIENTED_EDGE ( 'NONE', *, *, #254, .F. ) ;
#332 = EDGE_CURVE ( 'NONE', #69, #69, #340, .T. ) ;
#333 = CARTESIAN_POINT ( 'NONE',  ( 2.000000000000000444, 0.000000000000000000, -2.174599999999998978 ) ) ;
#334 = ORIENTED_EDGE ( 'NONE', *, *, #279, .T. ) ;
#335 = CARTESIAN_POINT ( 'NONE',  ( 3.500000000000000000, 2.020725942163684064, 0.000000000000000000 ) ) ;
#336 = ORIENTED_EDGE ( 'NONE', *, *, #296, .T. ) ;
#337 =( LENGTH_UNIT ( ) NAMED_UNIT ( * ) SI_UNIT ( .MILLI., .METRE. ) );
#338 = ADVANCED_FACE ( 'NONE', ( #201, #249 ), #124, .F. ) ;
#339 = ORIENTED_EDGE ( 'NONE', *, *, #18, .F. ) ;
#340 = CIRCLE ( 'NONE', #22, 2.000000000000000444 ) ;
#341 = ORIENTED_EDGE ( 'NONE', *, *, #111, .F. ) ;
#342 = CARTESIAN_POINT ( 'NONE',  ( -3.500000000000000000, -2.020725942163697386, -2.200000000000000178 ) ) ;
#343 = CARTESIAN_POINT ( 'NONE',  ( -1.251928832280971611E-15, -4.041451884327399213, -2.200000000000000178 ) ) ;
#344 = DIRECTION ( 'NONE',  ( 0.000000000000000000, 0.000000000000000000, 1.000000000000000000 ) ) ;
#345 = CARTESIAN_POINT ( 'NONE',  ( 3.500000000000000000, -2.020725942163701827, -2.200000000000000178 ) ) ;
#346 = SHAPE_DEFINITION_REPRESENTATION ( #138, #160 ) ;
#347 = CARTESIAN_POINT ( 'NONE',  ( 0.000000000000000000, 0.000000000000000000, -1.929527361626602655 ) ) ;
ENDSEC;
END-ISO-10303-21;
