ISO-10303-21;
HEADER;
FILE_DESCRIPTION (( 'STEP AP214' ),
    '1' );
FILE_NAME ('Part 1 T307.STEP',
    '2025-07-29T15:59:08',
    ( '' ),
    ( '' ),
    'SwSTEP 2.0',
    'SolidWorks 2025',
    '' );
FILE_SCHEMA (( 'AUTOMOTIVE_DESIGN' ));
ENDSEC;

DATA;
#1 = EDGE_LOOP ( 'NONE', ( #287, #345, #1099, #808 ) ) ;
#2 = VECTOR ( 'NONE', #405, 1000.000000000000000 ) ;
#3 = AXIS2_PLACEMENT_3D ( 'NONE', #776, #1060, #1135 ) ;
#4 = EDGE_LOOP ( 'NONE', ( #296, #877, #108, #562 ) ) ;
#5 = CARTESIAN_POINT ( 'NONE',  ( 5.000000000000000888, 6.479074729272645605, 0.8159385485247171443 ) ) ;
#6 = ADVANCED_FACE ( 'NONE', ( #267 ), #896, .T. ) ;
#7 = CARTESIAN_POINT ( 'NONE',  ( 5.000000000000000888, -2.532913853686859618, -6.019012582830275626 ) ) ;
#8 = ORIENTED_EDGE ( 'NONE', *, *, #616, .T. ) ;
#9 = CIRCLE ( 'NONE', #30, 6.530249999997550958 ) ;
#10 = VERTEX_POINT ( 'NONE', #914 ) ;
#11 = CARTESIAN_POINT ( 'NONE',  ( 0.000000000000000000, 7.765893733787216924, 1.867229614591174425 ) ) ;
#12 = DIRECTION ( 'NONE',  ( -1.000000000000000000, 0.000000000000000000, -0.000000000000000000 ) ) ;
#13 = VECTOR ( 'NONE', #576, 1000.000000000000000 ) ;
#14 = AXIS2_PLACEMENT_3D ( 'NONE', #892, #346, #340 ) ;
#15 = VERTEX_POINT ( 'NONE', #831 ) ;
#16 = DIRECTION ( 'NONE',  ( -1.000000000000000000, 0.000000000000000000, 0.000000000000000000 ) ) ;
#17 = DIRECTION ( 'NONE',  ( 0.000000000000000000, -0.2588190451025215166, 0.9659258262890680902 ) ) ;
#18 = VECTOR ( 'NONE', #681, 1000.000000000000000 ) ;
#19 = PRODUCT_DEFINITION_FORMATION_WITH_SPECIFIED_SOURCE ( 'Symmetric', '', #327, .NOT_KNOWN. ) ;
#20 = EDGE_LOOP ( 'NONE', ( #389 ) ) ;
#21 = ADVANCED_FACE ( 'NONE', ( #362 ), #739, .T. ) ;
#22 = ORIENTED_EDGE ( 'NONE', *, *, #551, .F. ) ;
#23 = LINE ( 'NONE', #1140, #18 ) ;
#24 = CARTESIAN_POINT ( 'NONE',  ( 5.000000000000000888, 8.133392585037789502, 5.146702833619093198 ) ) ;
#25 = ORIENTED_EDGE ( 'NONE', *, *, #460, .T. ) ;
#26 = CARTESIAN_POINT ( 'NONE',  ( 5.000000000000000888, 0.000000000000000000, 0.000000000000000000 ) ) ;
#27 = PRODUCT_RELATED_PRODUCT_CATEGORY ( 'part', '', ( #327 ) ) ;
#28 = ORIENTED_EDGE ( 'NONE', *, *, #1108, .T. ) ;
#29 = DIRECTION ( 'NONE',  ( 0.000000000000000000, -0.2588190451025214056, 0.9659258262890680902 ) ) ;
#30 = AXIS2_PLACEMENT_3D ( 'NONE', #720, #1096, #153 ) ;
#31 = DIRECTION ( 'NONE',  ( 0.000000000000000000, -0.9659258262890654256, -0.2588190451025315086 ) ) ;
#32 = VERTEX_POINT ( 'NONE', #66 ) ;
#33 = DIRECTION ( 'NONE',  ( -1.000000000000000000, 0.000000000000000000, 0.000000000000000000 ) ) ;
#34 = ORIENTED_EDGE ( 'NONE', *, *, #165, .T. ) ;
#35 = DIRECTION ( 'NONE',  ( 1.000000000000000000, 0.000000000000000000, 0.000000000000000000 ) ) ;
#36 = CARTESIAN_POINT ( 'NONE',  ( 0.000000000000000000, -38.00000000000000711, 6.530249999997547405 ) ) ;
#37 = EDGE_CURVE ( 'NONE', #289, #761, #543, .T. ) ;
#38 = VERTEX_POINT ( 'NONE', #464 ) ;
#39 = CARTESIAN_POINT ( 'NONE',  ( 0.000000000000000000, 6.479074729272656263, -0.8159385485246252179 ) ) ;
#40 = EDGE_LOOP ( 'NONE', ( #486, #1069, #300, #1016 ) ) ;
#41 = CARTESIAN_POINT ( 'NONE',  ( 5.000000000000000888, -50.00000000000000711, -5.469750000002454371 ) ) ;
#42 = VECTOR ( 'NONE', #335, 1000.000000000000000 ) ;
#43 = DIRECTION ( 'NONE',  ( 0.000000000000000000, -0.9659258262890708657, 0.2588190451025112471 ) ) ;
#44 = AXIS2_PLACEMENT_3D ( 'NONE', #770, #219, #519 ) ;
#45 = ADVANCED_FACE ( 'NONE', ( #1177 ), #910, .T. ) ;
#46 = ORIENTED_EDGE ( 'NONE', *, *, #1040, .F. ) ;
#47 = LINE ( 'NONE', #522, #253 ) ;
#48 = CIRCLE ( 'NONE', #447, 3.299999999998762146 ) ;
#49 = ORIENTED_EDGE ( 'NONE', *, *, #123, .T. ) ;
#50 = CARTESIAN_POINT ( 'NONE',  ( -51.41984052872972200, -40.00000000000000711, -5.469750000002452595 ) ) ;
#51 = ORIENTED_EDGE ( 'NONE', *, *, #890, .F. ) ;
#52 = PRESENTATION_LAYER_ASSIGNMENT (  '', '', ( #671 ) ) ;
#53 = AXIS2_PLACEMENT_3D ( 'NONE', #490, #301, #1033 ) ;
#54 = DIRECTION ( 'NONE',  ( 0.000000000000000000, 0.2588190451025213501, -0.9659258262890680902 ) ) ;
#55 = ORIENTED_EDGE ( 'NONE', *, *, #234, .T. ) ;
#56 = CARTESIAN_POINT ( 'NONE',  ( 0.000000000000000000, 6.019012582830286284, -2.532913853686837857 ) ) ;
#57 = DIRECTION ( 'NONE',  ( -1.000000000000000000, 0.000000000000000000, 0.000000000000000000 ) ) ;
#58 = AXIS2_PLACEMENT_3D ( 'NONE', #368, #924, #276 ) ;
#59 = ORIENTED_EDGE ( 'NONE', *, *, #855, .T. ) ;
#60 = CARTESIAN_POINT ( 'NONE',  ( 5.000000000000000888, 0.000000000000000000, 0.000000000000000000 ) ) ;
#61 = VECTOR ( 'NONE', #889, 1000.000000000000000 ) ;
#62 = ADVANCED_FACE ( 'NONE', ( #726 ), #79, .T. ) ;
#63 = ORIENTED_EDGE ( 'NONE', *, *, #977, .T. ) ;
#64 = DIRECTION ( 'NONE',  ( 0.000000000000000000, -0.2588190451025214056, 0.9659258262890680902 ) ) ;
#65 = FACE_OUTER_BOUND ( 'NONE', #482, .T. ) ;
#66 = CARTESIAN_POINT ( 'NONE',  ( 0.000000000000000000, 2.532913853686987071, -6.019012582830223224 ) ) ;
#67 = CIRCLE ( 'NONE', #294, 3.299999999998761702 ) ;
#68 = ORIENTED_EDGE ( 'NONE', *, *, #940, .T. ) ;
#69 = DIRECTION ( 'NONE',  ( -1.000000000000000000, 0.000000000000000000, 0.000000000000000000 ) ) ;
#70 = DIRECTION ( 'NONE',  ( 0.000000000000000000, -1.000000000000000000, 1.325307068203333987E-17 ) ) ;
#71 = FILL_AREA_STYLE_COLOUR ( '', #639 ) ;
#72 = AXIS2_PLACEMENT_3D ( 'NONE', #453, #243, #623 ) ;
#73 = DIRECTION ( 'NONE',  ( 0.000000000000000000, -0.2588190451025214056, 0.9659258262890680902 ) ) ;
#74 = EDGE_LOOP ( 'NONE', ( #325, #1110, #1188, #191 ) ) ;
#75 = CARTESIAN_POINT ( 'NONE',  ( 0.000000000000000000, 5.791846449254600238, -5.500015147828118067 ) ) ;
#76 = DIRECTION ( 'NONE',  ( -1.000000000000000000, -0.000000000000000000, 0.000000000000000000 ) ) ;
#77 = ADVANCED_FACE ( 'NONE', ( #262 ), #733, .T. ) ;
#78 = AXIS2_PLACEMENT_3D ( 'NONE', #834, #565, #853 ) ;
#79 = CYLINDRICAL_SURFACE ( 'NONE', #493, 3.299999999998762146 ) ;
#80 = FACE_OUTER_BOUND ( 'NONE', #225, .T. ) ;
#81 = AXIS2_PLACEMENT_3D ( 'NONE', #1165, #812, #1172 ) ;
#82 = DIRECTION ( 'NONE',  ( 0.000000000000000000, -1.000000000000000000, -1.597771622610218838E-16 ) ) ;
#83 = DIRECTION ( 'NONE',  ( 0.000000000000000000, -0.2588190451025214056, 0.9659258262890680902 ) ) ;
#84 = ADVANCED_FACE ( 'NONE', ( #557 ), #835, .T. ) ;
#85 = DIRECTION ( 'NONE',  ( -1.000000000000000000, -0.000000000000000000, -0.000000000000000000 ) ) ;
#86 = CIRCLE ( 'NONE', #900, 3.299999999998762146 ) ;
#87 = ORIENTED_EDGE ( 'NONE', *, *, #272, .T. ) ;
#88 = CARTESIAN_POINT ( 'NONE',  ( 5.000000000000000888, 6.479074729272645605, 0.8159385485247171443 ) ) ;
#89 = LINE ( 'NONE', #1171, #694 ) ;
#90 = EDGE_CURVE ( 'NONE', #1132, #592, #9, .T. ) ;
#91 = EDGE_CURVE ( 'NONE', #392, #392, #503, .T. ) ;
#92 = VERTEX_POINT ( 'NONE', #1004 ) ;
#93 = CARTESIAN_POINT ( 'NONE',  ( -51.41984052872972200, -4.560049202594364961E-14, 6.530249999997551846 ) ) ;
#94 = AXIS2_PLACEMENT_3D ( 'NONE', #1161, #809, #717 ) ;
#95 = DIRECTION ( 'NONE',  ( -1.000000000000000000, 0.000000000000000000, 0.000000000000000000 ) ) ;
#96 = ORIENTED_EDGE ( 'NONE', *, *, #1066, .F. ) ;
#97 = EDGE_CURVE ( 'NONE', #92, #1082, #1001, .T. ) ;
#98 = VERTEX_POINT ( 'NONE', #456 ) ;
#99 = LINE ( 'NONE', #839, #1098 ) ;
#100 = CIRCLE ( 'NONE', #1181, 1.500000000000001776 ) ;
#101 = DIRECTION ( 'NONE',  ( 0.000000000000000000, -0.9659258262890708657, 0.2588190451025112471 ) ) ;
#102 = ORIENTED_EDGE ( 'NONE', *, *, #922, .F. ) ;
#103 = ORIENTED_EDGE ( 'NONE', *, *, #583, .T. ) ;
#104 = DIRECTION ( 'NONE',  ( 0.000000000000000000, 0.000000000000000000, 1.000000000000000000 ) ) ;
#105 = CARTESIAN_POINT ( 'NONE',  ( 2.500000000000000444, -0.3904791071244803069, -9.617076014404263518 ) ) ;
#106 = PRODUCT_CONTEXT ( 'NONE', #730, 'mechanical' ) ;
#107 = ORIENTED_EDGE ( 'NONE', *, *, #855, .F. ) ;
#108 = ORIENTED_EDGE ( 'NONE', *, *, #648, .F. ) ;
#109 = PLANE ( 'NONE',  #799 ) ;
#110 = CARTESIAN_POINT ( 'NONE',  ( 5.000000000000000888, 5.500015147828258399, -5.791846449254466123 ) ) ;
#111 = AXIS2_PLACEMENT_3D ( 'NONE', #1045, #696, #867 ) ;
#112 = EDGE_CURVE ( 'NONE', #1028, #965, #168, .T. ) ;
#113 = ORIENTED_EDGE ( 'NONE', *, *, #1129, .F. ) ;
#114 = EDGE_LOOP ( 'NONE', ( #504, #956, #134, #207 ) ) ;
#115 = CARTESIAN_POINT ( 'NONE',  ( 0.000000000000000000, -8.780476101602637584, -11.57719329075979076 ) ) ;
#116 = CARTESIAN_POINT ( 'NONE',  ( 5.000000000000000888, -40.00000000000000711, -3.719750000002453483 ) ) ;
#117 = VECTOR ( 'NONE', #323, 1000.000000000000000 ) ;
#118 = EDGE_CURVE ( 'NONE', #538, #965, #89, .T. ) ;
#119 = ORIENTED_EDGE ( 'NONE', *, *, #735, .F. ) ;
#120 = LINE ( 'NONE', #401, #370 ) ;
#121 = EDGE_LOOP ( 'NONE', ( #113 ) ) ;
#122 = DIRECTION ( 'NONE',  ( 0.000000000000000000, -1.000000000000000000, -1.734723475976806848E-16 ) ) ;
#123 = EDGE_CURVE ( 'NONE', #15, #844, #718, .T. ) ;
#124 = VERTEX_POINT ( 'NONE', #160 ) ;
#125 = CARTESIAN_POINT ( 'NONE',  ( 5.000000000000000888, -1.867229614591092490, -7.765893733787236464 ) ) ;
#126 = FACE_OUTER_BOUND ( 'NONE', #406, .T. ) ;
#127 = MANIFOLD_SOLID_BREP ( 'Cut-Extrude2', #539 ) ;
#128 = VERTEX_POINT ( 'NONE', #941 ) ;
#129 = DIRECTION ( 'NONE',  ( -1.000000000000000000, 0.000000000000000000, -0.000000000000000000 ) ) ;
#130 = VERTEX_POINT ( 'NONE', #669 ) ;
#131 = CARTESIAN_POINT ( 'NONE',  ( 0.000000000000000000, 0.000000000000000000, 0.000000000000000000 ) ) ;
#132 = EDGE_CURVE ( 'NONE', #564, #140, #772, .T. ) ;
#133 = LINE ( 'NONE', #1149, #497 ) ;
#134 = ORIENTED_EDGE ( 'NONE', *, *, #702, .T. ) ;
#135 = LINE ( 'NONE', #209, #1048 ) ;
#136 = ORIENTED_EDGE ( 'NONE', *, *, #474, .T. ) ;
#137 = DIRECTION ( 'NONE',  ( -1.000000000000000000, -0.000000000000000000, 0.000000000000000000 ) ) ;
#138 = CARTESIAN_POINT ( 'NONE',  ( 5.000000000000000888, 3.946160875585790428, -5.203074034305490869 ) ) ;
#139 = EDGE_CURVE ( 'NONE', #1052, #1124, #1018, .T. ) ;
#140 = VERTEX_POINT ( 'NONE', #7 ) ;
#141 = DIRECTION ( 'NONE',  ( -1.000000000000000000, 0.000000000000000000, 0.000000000000000000 ) ) ;
#142 = AXIS2_PLACEMENT_3D ( 'NONE', #75, #157, #333 ) ;
#143 = EDGE_LOOP ( 'NONE', ( #666, #103, #49, #28 ) ) ;
#144 = CARTESIAN_POINT ( 'NONE',  ( 5.000000000000000888, 1.867229614591256137, -7.765893733787197384 ) ) ;
#145 = DIRECTION ( 'NONE',  ( -1.000000000000000000, 0.000000000000000000, 0.000000000000000000 ) ) ;
#146 = MECHANICAL_DESIGN_GEOMETRIC_PRESENTATION_REPRESENTATION (  '', ( #671 ), #465 ) ;
#147 = VERTEX_POINT ( 'NONE', #116 ) ;
#148 = ADVANCED_FACE ( 'NONE', ( #854 ), #744, .T. ) ;
#149 = CYLINDRICAL_SURFACE ( 'NONE', #1042, 6.530249999997550958 ) ;
#150 = VERTEX_POINT ( 'NONE', #582 ) ;
#151 = DIRECTION ( 'NONE',  ( 0.000000000000000000, -0.2588190451025215166, 0.9659258262890680902 ) ) ;
#152 = CARTESIAN_POINT ( 'NONE',  ( 4.999999999999997335, 0.000000000000000000, 0.000000000000000000 ) ) ;
#153 = DIRECTION ( 'NONE',  ( 0.000000000000000000, -0.7071067811865388020, -0.7071067811865563435 ) ) ;
#154 = DIRECTION ( 'NONE',  ( 0.000000000000000000, 0.000000000000000000, -1.000000000000000000 ) ) ;
#155 = AXIS2_PLACEMENT_3D ( 'NONE', #819, #245, #979 ) ;
#156 = ORIENTED_EDGE ( 'NONE', *, *, #252, .F. ) ;
#157 = DIRECTION ( 'NONE',  ( 1.000000000000000000, 0.000000000000000000, 0.000000000000000000 ) ) ;
#158 = CARTESIAN_POINT ( 'NONE',  ( 0.000000000000000000, -11.41079736710767278, 1.280249999997561172 ) ) ;
#159 = AXIS2_PLACEMENT_3D ( 'NONE', #541, #823, #1182 ) ;
#160 = CARTESIAN_POINT ( 'NONE',  ( 5.000000000000000888, 8.523871692162435565, -4.470373180785064626 ) ) ;
#161 = CYLINDRICAL_SURFACE ( 'NONE', #173, 3.500000000000000000 ) ;
#162 = AXIS2_PLACEMENT_3D ( 'NONE', #313, #227, #969 ) ;
#163 = VERTEX_POINT ( 'NONE', #391 ) ;
#164 = CARTESIAN_POINT ( 'NONE',  ( 5.000000000000000888, 7.765893733787243569, -1.867229614591064957 ) ) ;
#165 = EDGE_CURVE ( 'NONE', #564, #217, #181, .T. ) ;
#166 = CARTESIAN_POINT ( 'NONE',  ( 0.000000000000000000, 1.867229614591256137, -7.765893733787197384 ) ) ;
#167 = SURFACE_STYLE_USAGE ( .BOTH. , #635 ) ;
#168 = CIRCLE ( 'NONE', #1092, 3.299999999998762146 ) ;
#169 = CARTESIAN_POINT ( 'NONE',  ( 5.000000000000000888, 0.000000000000000000, 0.000000000000000000 ) ) ;
#170 = ADVANCED_FACE ( 'NONE', ( #840 ), #1102, .T. ) ;
#171 = DIRECTION ( 'NONE',  ( -1.000000000000000000, 0.000000000000000000, 0.000000000000000000 ) ) ;
#172 = DIRECTION ( 'NONE',  ( -1.000000000000000000, 0.000000000000000000, 0.000000000000000000 ) ) ;
#173 = AXIS2_PLACEMENT_3D ( 'NONE', #1005, #1000, #807 ) ;
#174 = ORIENTED_EDGE ( 'NONE', *, *, #266, .T. ) ;
#175 = DIRECTION ( 'NONE',  ( 0.000000000000000000, 1.000000000000000000, 0.000000000000000000 ) ) ;
#176 = DIRECTION ( 'NONE',  ( 1.000000000000000000, 0.000000000000000000, 0.000000000000000000 ) ) ;
#177 = VECTOR ( 'NONE', #82, 1000.000000000000000 ) ;
#178 = ADVANCED_FACE ( 'NONE', ( #386 ), #273, .T. ) ;
#179 = SHAPE_DEFINITION_REPRESENTATION ( #791, #354 ) ;
#180 = FACE_BOUND ( 'NONE', #375, .T. ) ;
#181 = LINE ( 'NONE', #201, #653 ) ;
#182 = ORIENTED_EDGE ( 'NONE', *, *, #986, .F. ) ;
#183 = EDGE_CURVE ( 'NONE', #32, #384, #751, .T. ) ;
#184 = ORIENTED_EDGE ( 'NONE', *, *, #537, .F. ) ;
#185 = LINE ( 'NONE', #93, #224 ) ;
#186 = CARTESIAN_POINT ( 'NONE',  ( -10.00000000000000000, 0.000000000000000000, 0.000000000000000000 ) ) ;
#187 = EDGE_LOOP ( 'NONE', ( #1127, #1136, #787, #829 ) ) ;
#188 = EDGE_CURVE ( 'NONE', #1147, #371, #1194, .T. ) ;
#189 = CARTESIAN_POINT ( 'NONE',  ( -51.41984052872972200, -40.00000000000000711, -5.469750000002452595 ) ) ;
#190 = CIRCLE ( 'NONE', #1063, 3.299999999998762146 ) ;
#191 = ORIENTED_EDGE ( 'NONE', *, *, #583, .F. ) ;
#192 = VECTOR ( 'NONE', #70, 1000.000000000000000 ) ;
#193 = VECTOR ( 'NONE', #792, 1000.000000000000000 ) ;
#194 = EDGE_LOOP ( 'NONE', ( #136, #795, #311, #729 ) ) ;
#195 = DIRECTION ( 'NONE',  ( 0.000000000000000000, 0.7071067811865486830, -0.7071067811865463515 ) ) ;
#196 = ADVANCED_FACE ( 'NONE', ( #758 ), #1114, .T. ) ;
#197 = ORIENTED_EDGE ( 'NONE', *, *, #901, .F. ) ;
#198 = ORIENTED_EDGE ( 'NONE', *, *, #817, .F. ) ;
#199 = CYLINDRICAL_SURFACE ( 'NONE', #244, 9.624999999996388667 ) ;
#200 = EDGE_CURVE ( 'NONE', #798, #404, #591, .T. ) ;
#201 = CARTESIAN_POINT ( 'NONE',  ( 5.000000000000000888, -0.8159385485246484215, -6.479074729272652711 ) ) ;
#202 = EDGE_LOOP ( 'NONE', ( #938 ) ) ;
#203 = AXIS2_PLACEMENT_3D ( 'NONE', #271, #390, #920 ) ;
#204 = ORIENTED_EDGE ( 'NONE', *, *, #955, .T. ) ;
#205 = DIRECTION ( 'NONE',  ( -1.000000000000000000, 0.000000000000000000, -0.000000000000000000 ) ) ;
#206 = CARTESIAN_POINT ( 'NONE',  ( 5.000000000000000888, -36.41079736710766923, 1.280249999997555843 ) ) ;
#207 = ORIENTED_EDGE ( 'NONE', *, *, #833, .T. ) ;
#208 = EDGE_CURVE ( 'NONE', #1082, #462, #828, .T. ) ;
#209 = CARTESIAN_POINT ( 'NONE',  ( 2.500000000000000444, 9.617076014404261741, 0.3904791071245830580 ) ) ;
#210 = VERTEX_POINT ( 'NONE', #658 ) ;
#211 = DIRECTION ( 'NONE',  ( 0.000000000000000000, 0.2588190451025212946, -0.9659258262890680902 ) ) ;
#212 = VECTOR ( 'NONE', #506, 1000.000000000000000 ) ;
#213 = CARTESIAN_POINT ( 'NONE',  ( 0.000000000000000000, 0.000000000000000000, 0.000000000000000000 ) ) ;
#214 = EDGE_LOOP ( 'NONE', ( #919, #802, #305, #962 ) ) ;
#215 = CARTESIAN_POINT ( 'NONE',  ( 5.000000000000000888, 0.000000000000000000, 0.000000000000000000 ) ) ;
#216 = EDGE_CURVE ( 'NONE', #210, #124, #67, .T. ) ;
#217 = VERTEX_POINT ( 'NONE', #664 ) ;
#218 = CARTESIAN_POINT ( 'NONE',  ( 0.000000000000000000, -5.146702833619007045, -8.133392585037846345 ) ) ;
#219 = DIRECTION ( 'NONE',  ( 0.000000000000000000, 1.734723475976806848E-16, -1.000000000000000000 ) ) ;
#220 = ORIENTED_EDGE ( 'NONE', *, *, #606, .F. ) ;
#221 = CARTESIAN_POINT ( 'NONE',  ( 0.000000000000000000, 8.523871692162437341, -4.470373180785067291 ) ) ;
#222 = VECTOR ( 'NONE', #353, 1000.000000000000000 ) ;
#223 = EDGE_CURVE ( 'NONE', #1026, #821, #1144, .T. ) ;
#224 = VECTOR ( 'NONE', #746, 1000.000000000000000 ) ;
#225 = EDGE_LOOP ( 'NONE', ( #1064 ) ) ;
#226 = DIRECTION ( 'NONE',  ( 0.000000000000000000, 1.000000000000000000, 1.734723475976806848E-16 ) ) ;
#227 = DIRECTION ( 'NONE',  ( -1.000000000000000000, 0.000000000000000000, -0.000000000000000000 ) ) ;
#228 = ORIENTED_EDGE ( 'NONE', *, *, #637, .F. ) ;
#229 =( GEOMETRIC_REPRESENTATION_CONTEXT ( 3 ) GLOBAL_UNCERTAINTY_ASSIGNED_CONTEXT ( ( #1015 ) ) GLOBAL_UNIT_ASSIGNED_CONTEXT ( ( #847, #1030, #645 ) ) REPRESENTATION_CONTEXT ( 'NONE', 'WORKASPACE' ) );
#230 = CARTESIAN_POINT ( 'NONE',  ( -51.41984052872972200, -7.276951930685354064, -3.719750000002458812 ) ) ;
#231 = VERTEX_POINT ( 'NONE', #24 ) ;
#232 = DIRECTION ( 'NONE',  ( 1.000000000000000000, 0.000000000000000000, 0.000000000000000000 ) ) ;
#233 = DIRECTION ( 'NONE',  ( 0.000000000000000000, -0.2588190451025213501, 0.9659258262890680902 ) ) ;
#234 = EDGE_CURVE ( 'NONE', #210, #848, #953, .T. ) ;
#235 = CIRCLE ( 'NONE', #477, 3.299999999998762146 ) ;
#236 = ORIENTED_EDGE ( 'NONE', *, *, #132, .T. ) ;
#237 = CYLINDRICAL_SURFACE ( 'NONE', #81, 9.624999999996388667 ) ;
#238 = AXIS2_PLACEMENT_3D ( 'NONE', #1072, #822, #1180 ) ;
#239 = ORIENTED_EDGE ( 'NONE', *, *, #777, .F. ) ;
#240 = CARTESIAN_POINT ( 'NONE',  ( 0.000000000000000000, 0.000000000000000000, 0.000000000000000000 ) ) ;
#241 = DIRECTION ( 'NONE',  ( -0.000000000000000000, 1.000000000000000000, 1.597771622610218838E-16 ) ) ;
#242 = VECTOR ( 'NONE', #298, 1000.000000000000000 ) ;
#243 = DIRECTION ( 'NONE',  ( -1.000000000000000000, 0.000000000000000000, -0.000000000000000000 ) ) ;
#244 = AXIS2_PLACEMENT_3D ( 'NONE', #1038, #205, #29 ) ;
#245 = DIRECTION ( 'NONE',  ( -1.000000000000000000, 0.000000000000000000, -0.000000000000000000 ) ) ;
#246 = ORIENTED_EDGE ( 'NONE', *, *, #1197, .F. ) ;
#247 = CYLINDRICAL_SURFACE ( 'NONE', #755, 3.299999999998762146 ) ;
#248 = DIRECTION ( 'NONE',  ( 0.000000000000000000, -0.2588190451025077499, -0.9659258262890717539 ) ) ;
#249 = DIRECTION ( 'NONE',  ( 0.000000000000000000, -0.2588190451025213501, 0.9659258262890682012 ) ) ;
#250 = CIRCLE ( 'NONE', #568, 3.299999999998761702 ) ;
#251 = DIRECTION ( 'NONE',  ( -1.000000000000000000, 0.000000000000000000, 0.000000000000000000 ) ) ;
#252 = EDGE_CURVE ( 'NONE', #371, #564, #86, .T. ) ;
#253 = VECTOR ( 'NONE', #603, 1000.000000000000000 ) ;
#254 = ORIENTED_EDGE ( 'NONE', *, *, #801, .F. ) ;
#255 = DIRECTION ( 'NONE',  ( -1.000000000000000000, 0.000000000000000000, 0.000000000000000000 ) ) ;
#256 = DIRECTION ( 'NONE',  ( 0.000000000000000000, 0.000000000000000000, -1.000000000000000000 ) ) ;
#257 = CARTESIAN_POINT ( 'NONE',  ( 5.000000000000000888, -1.867229614591092490, -7.765893733787236464 ) ) ;
#258 = CARTESIAN_POINT ( 'NONE',  ( 0.000000000000000000, 6.019012582830249869, 2.532913853686923566 ) ) ;
#259 = EDGE_CURVE ( 'NONE', #450, #128, #697, .T. ) ;
#260 = VERTEX_POINT ( 'NONE', #397 ) ;
#261 = DIRECTION ( 'NONE',  ( 0.000000000000000000, 0.000000000000000000, -1.000000000000000000 ) ) ;
#262 = FACE_OUTER_BOUND ( 'NONE', #410, .T. ) ;
#263 = CARTESIAN_POINT ( 'NONE',  ( 2.500000000000000444, 8.133392585037865885, -5.146702833618977735 ) ) ;
#264 = VECTOR ( 'NONE', #560, 1000.000000000000000 ) ;
#265 = CARTESIAN_POINT ( 'NONE',  ( 5.000000000000000888, -4.560049202594364961E-14, 6.530249999997551846 ) ) ;
#266 = EDGE_CURVE ( 'NONE', #761, #662, #765, .T. ) ;
#267 = FACE_OUTER_BOUND ( 'NONE', #1061, .T. ) ;
#268 = VERTEX_POINT ( 'NONE', #567 ) ;
#269 = CIRCLE ( 'NONE', #824, 9.624999999996388667 ) ;
#270 = AXIS2_PLACEMENT_3D ( 'NONE', #571, #479, #211 ) ;
#271 = CARTESIAN_POINT ( 'NONE',  ( 5.000000000000000888, 0.000000000000000000, 0.000000000000000000 ) ) ;
#272 = EDGE_CURVE ( 'NONE', #821, #418, #964, .T. ) ;
#273 = CYLINDRICAL_SURFACE ( 'NONE', #382, 9.624999999996388667 ) ;
#274 = CARTESIAN_POINT ( 'NONE',  ( 4.999999999999997335, -0.9058666578588248086, 3.380740392011738482 ) ) ;
#275 = ORIENTED_EDGE ( 'NONE', *, *, #295, .T. ) ;
#276 = DIRECTION ( 'NONE',  ( 0.000000000000000000, 0.2588190451025213501, -0.9659258262890682012 ) ) ;
#277 = CIRCLE ( 'NONE', #577, 3.299999999998762146 ) ;
#278 = DIRECTION ( 'NONE',  ( -1.000000000000000000, 0.000000000000000000, -0.000000000000000000 ) ) ;
#279 = PRODUCT_DEFINITION ( 'General', '', #19, #529 ) ;
#280 = CARTESIAN_POINT ( 'NONE',  ( 0.000000000000000000, 0.9058666578588248086, -3.380740392011738482 ) ) ;
#281 = VECTOR ( 'NONE', #790, 1000.000000000000000 ) ;
#282 = CIRCLE ( 'NONE', #1168, 3.299999999998761702 ) ;
#283 = EDGE_LOOP ( 'NONE', ( #228, #299, #236, #764 ) ) ;
#284 = DIRECTION ( 'NONE',  ( -1.000000000000000000, -0.000000000000000000, -0.000000000000000000 ) ) ;
#285 = DIRECTION ( 'NONE',  ( 0.000000000000000000, -0.2588190451025078609, -0.9659258262890717539 ) ) ;
#286 = CIRCLE ( 'NONE', #946, 3.299999999998761702 ) ;
#287 = ORIENTED_EDGE ( 'NONE', *, *, #304, .F. ) ;
#288 = ADVANCED_FACE ( 'NONE', ( #1047 ), #863, .T. ) ;
#289 = VERTEX_POINT ( 'NONE', #36 ) ;
#290 = PLANE ( 'NONE',  #676 ) ;
#291 = DIRECTION ( 'NONE',  ( 0.000000000000000000, -0.2588190451025078609, -0.9659258262890717539 ) ) ;
#292 = DIRECTION ( 'NONE',  ( 0.000000000000000000, 0.2588190451025215166, -0.9659258262890680902 ) ) ;
#293 = ORIENTED_EDGE ( 'NONE', *, *, #223, .F. ) ;
#294 = AXIS2_PLACEMENT_3D ( 'NONE', #573, #936, #291 ) ;
#295 = EDGE_CURVE ( 'NONE', #418, #432, #235, .T. ) ;
#296 = ORIENTED_EDGE ( 'NONE', *, *, #118, .F. ) ;
#297 = DIRECTION ( 'NONE',  ( 0.000000000000000000, -0.9659258262890708657, 0.2588190451025112471 ) ) ;
#298 = DIRECTION ( 'NONE',  ( -1.000000000000000000, 0.000000000000000000, 0.000000000000000000 ) ) ;
#299 = ORIENTED_EDGE ( 'NONE', *, *, #165, .F. ) ;
#300 = ORIENTED_EDGE ( 'NONE', *, *, #616, .F. ) ;
#301 = DIRECTION ( 'NONE',  ( 1.000000000000000000, 0.000000000000000000, 0.000000000000000000 ) ) ;
#302 = CIRCLE ( 'NONE', #111, 9.624999999996386890 ) ;
#303 = CARTESIAN_POINT ( 'NONE',  ( 5.000000000000000888, 2.265878585959114400, -7.659076063845676074 ) ) ;
#304 = EDGE_CURVE ( 'NONE', #163, #10, #1012, .T. ) ;
#305 = ORIENTED_EDGE ( 'NONE', *, *, #324, .F. ) ;
#306 = ORIENTED_EDGE ( 'NONE', *, *, #668, .T. ) ;
#307 = DIRECTION ( 'NONE',  ( -1.000000000000000000, 0.000000000000000000, 0.000000000000000000 ) ) ;
#308 = EDGE_CURVE ( 'NONE', #494, #384, #675, .T. ) ;
#309 = ORIENTED_EDGE ( 'NONE', *, *, #868, .F. ) ;
#310 = CARTESIAN_POINT ( 'NONE',  ( 5.000000000000000888, 5.791846449254600238, -5.500015147828118067 ) ) ;
#311 = ORIENTED_EDGE ( 'NONE', *, *, #1108, .F. ) ;
#312 = DIRECTION ( 'NONE',  ( 0.000000000000000000, 0.2588190451025212946, -0.9659258262890680902 ) ) ;
#313 = CARTESIAN_POINT ( 'NONE',  ( 5.000000000000000888, 0.000000000000000000, 0.000000000000000000 ) ) ;
#314 = ORIENTED_EDGE ( 'NONE', *, *, #868, .T. ) ;
#315 = CIRCLE ( 'NONE', #238, 9.624999999996388667 ) ;
#316 = EDGE_CURVE ( 'NONE', #231, #38, #415, .T. ) ;
#317 = DIRECTION ( 'NONE',  ( 1.000000000000000000, 0.000000000000000000, 0.000000000000000000 ) ) ;
#318 = ORIENTED_EDGE ( 'NONE', *, *, #487, .T. ) ;
#319 = CARTESIAN_POINT ( 'NONE',  ( 5.000000000000000888, 7.659076063845700943, -2.265878585959034019 ) ) ;
#320 = AXIS2_PLACEMENT_3D ( 'NONE', #348, #811, #249 ) ;
#321 = DIRECTION ( 'NONE',  ( -1.000000000000000000, 0.000000000000000000, 0.000000000000000000 ) ) ;
#322 = ORIENTED_EDGE ( 'NONE', *, *, #487, .F. ) ;
#323 = DIRECTION ( 'NONE',  ( 1.000000000000000000, 0.000000000000000000, 0.000000000000000000 ) ) ;
#324 = EDGE_CURVE ( 'NONE', #592, #10, #875, .T. ) ;
#325 = ORIENTED_EDGE ( 'NONE', *, *, #520, .F. ) ;
#326 = DIRECTION ( 'NONE',  ( -1.000000000000000000, 0.000000000000000000, -0.000000000000000000 ) ) ;
#327 = PRODUCT ( 'Part 1 T307', 'Part 1 T307', '', ( #106 ) ) ;
#328 = DIRECTION ( 'NONE',  ( 0.000000000000000000, -0.2588190451025214056, 0.9659258262890680902 ) ) ;
#329 = ORIENTED_EDGE ( 'NONE', *, *, #1027, .F. ) ;
#330 = VECTOR ( 'NONE', #593, 1000.000000000000000 ) ;
#331 = CARTESIAN_POINT ( 'NONE',  ( 5.000000000000000888, 6.019012582830249869, 2.532913853686923566 ) ) ;
#332 = ORIENTED_EDGE ( 'NONE', *, *, #1192, .T. ) ;
#333 = DIRECTION ( 'NONE',  ( 0.000000000000000000, 0.2588190451025215166, -0.9659258262890680902 ) ) ;
#334 = ADVANCED_FACE ( 'NONE', ( #1039, #682 ), #857, .F. ) ;
#335 = DIRECTION ( 'NONE',  ( -1.000000000000000000, 0.000000000000000000, 0.000000000000000000 ) ) ;
#336 = DIRECTION ( 'NONE',  ( 0.000000000000000000, -0.2588190451025213501, 0.9659258262890682012 ) ) ;
#337 = CIRCLE ( 'NONE', #459, 3.299999999998762146 ) ;
#338 = FACE_OUTER_BOUND ( 'NONE', #472, .T. ) ;
#339 = EDGE_LOOP ( 'NONE', ( #978 ) ) ;
#340 = DIRECTION ( 'NONE',  ( 0.000000000000000000, -0.2588190451025214056, 0.9659258262890680902 ) ) ;
#341 = CARTESIAN_POINT ( 'NONE',  ( 0.000000000000000000, -50.00000000000000000, -5.469750000002454371 ) ) ;
#342 = ADVANCED_FACE ( 'NONE', ( #126 ), #690, .T. ) ;
#343 = CARTESIAN_POINT ( 'NONE',  ( 5.000000000000000888, 0.000000000000000000, 0.000000000000000000 ) ) ;
#344 = CARTESIAN_POINT ( 'NONE',  ( 5.000000000000000888, -36.41079736710766923, 1.280249999997555843 ) ) ;
#345 = ORIENTED_EDGE ( 'NONE', *, *, #1101, .F. ) ;
#346 = DIRECTION ( 'NONE',  ( -1.000000000000000000, 0.000000000000000000, -0.000000000000000000 ) ) ;
#347 = DIRECTION ( 'NONE',  ( 0.000000000000000000, -0.2588190451025212391, 0.9659258262890680902 ) ) ;
#348 = CARTESIAN_POINT ( 'NONE',  ( 5.000000000000000888, 0.000000000000000000, 0.000000000000000000 ) ) ;
#349 = ADVANCED_FACE ( 'NONE', ( #1054 ), #417, .T. ) ;
#350 = DIRECTION ( 'NONE',  ( 1.000000000000000000, 0.000000000000000000, 0.000000000000000000 ) ) ;
#351 = VECTOR ( 'NONE', #433, 1000.000000000000000 ) ;
#352 = ORIENTED_EDGE ( 'NONE', *, *, #1009, .T. ) ;
#353 = DIRECTION ( 'NONE',  ( 1.000000000000000000, -0.000000000000000000, -0.000000000000000000 ) ) ;
#354 = ADVANCED_BREP_SHAPE_REPRESENTATION ( 'Part 1 T307', ( #127, #471 ), #229 ) ;
#355 = CARTESIAN_POINT ( 'NONE',  ( 0.000000000000000000, 0.8159385485247850900, -6.479074729272635835 ) ) ;
#356 = VECTOR ( 'NONE', #241, 1000.000000000000000 ) ;
#357 = DIRECTION ( 'NONE',  ( -1.000000000000000000, -0.000000000000000000, 0.000000000000000000 ) ) ;
#358 = AXIS2_PLACEMENT_3D ( 'NONE', #1176, #57, #347 ) ;
#359 = LINE ( 'NONE', #911, #841 ) ;
#360 = EDGE_CURVE ( 'NONE', #782, #1071, #601, .T. ) ;
#361 = CARTESIAN_POINT ( 'NONE',  ( 5.000000000000000888, 4.470373180785273348, -8.523871692162325431 ) ) ;
#362 = FACE_OUTER_BOUND ( 'NONE', #698, .T. ) ;
#363 = CARTESIAN_POINT ( 'NONE',  ( 5.000000000000000888, -8.780476101602637584, -11.57719329075979076 ) ) ;
#364 = AXIS2_PLACEMENT_3D ( 'NONE', #492, #1023, #846 ) ;
#365 = CIRCLE ( 'NONE', #774, 3.299999999998762590 ) ;
#366 = EDGE_CURVE ( 'NONE', #413, #147, #133, .T. ) ;
#367 = ORIENTED_EDGE ( 'NONE', *, *, #118, .T. ) ;
#368 = CARTESIAN_POINT ( 'NONE',  ( 0.000000000000000000, 0.000000000000000000, 0.000000000000000000 ) ) ;
#369 = CARTESIAN_POINT ( 'NONE',  ( 5.000000000000000888, 7.659076063845668969, 2.265878585959141489 ) ) ;
#370 = VECTOR ( 'NONE', #137, 1000.000000000000000 ) ;
#371 = VERTEX_POINT ( 'NONE', #815 ) ;
#372 = DIRECTION ( 'NONE',  ( 0.000000000000000000, -1.597771622610218838E-16, 1.000000000000000000 ) ) ;
#373 = DIRECTION ( 'NONE',  ( -1.000000000000000000, 0.000000000000000000, 0.000000000000000000 ) ) ;
#374 = VECTOR ( 'NONE', #1189, 1000.000000000000000 ) ;
#375 = EDGE_LOOP ( 'NONE', ( #838 ) ) ;
#376 = VECTOR ( 'NONE', #882, 1000.000000000000000 ) ;
#377 = ORIENTED_EDGE ( 'NONE', *, *, #747, .F. ) ;
#378 = LINE ( 'NONE', #463, #757 ) ;
#379 = DIRECTION ( 'NONE',  ( -1.000000000000000000, -0.000000000000000000, 0.000000000000000000 ) ) ;
#380 = ADVANCED_FACE ( 'NONE', ( #533 ), #1007, .T. ) ;
#381 = ORIENTED_EDGE ( 'NONE', *, *, #316, .T. ) ;
#382 = AXIS2_PLACEMENT_3D ( 'NONE', #947, #278, #750 ) ;
#383 = AXIS2_PLACEMENT_3D ( 'NONE', #131, #509, #874 ) ;
#384 = VERTEX_POINT ( 'NONE', #355 ) ;
#385 = CYLINDRICAL_SURFACE ( 'NONE', #820, 3.299999999998762146 ) ;
#386 = FACE_OUTER_BOUND ( 'NONE', #387, .T. ) ;
#387 = EDGE_LOOP ( 'NONE', ( #182, #570, #513, #197 ) ) ;
#388 = ADVANCED_FACE ( 'NONE', ( #65 ), #525, .T. ) ;
#389 = ORIENTED_EDGE ( 'NONE', *, *, #1187, .T. ) ;
#390 = DIRECTION ( 'NONE',  ( -1.000000000000000000, -0.000000000000000000, 0.000000000000000000 ) ) ;
#391 = CARTESIAN_POINT ( 'NONE',  ( 0.000000000000000000, 5.203074034305588569, -3.946160875585662087 ) ) ;
#392 = VERTEX_POINT ( 'NONE', #280 ) ;
#393 = ORIENTED_EDGE ( 'NONE', *, *, #1162, .F. ) ;
#394 = EDGE_CURVE ( 'NONE', #494, #450, #931, .T. ) ;
#395 = ORIENTED_EDGE ( 'NONE', *, *, #977, .F. ) ;
#396 = CARTESIAN_POINT ( 'NONE',  ( -51.41984052872972200, -50.00000000000000711, -5.469750000002454371 ) ) ;
#397 = CARTESIAN_POINT ( 'NONE',  ( 0.000000000000000000, 8.133392585037865885, -5.146702833618977735 ) ) ;
#398 = ORIENTED_EDGE ( 'NONE', *, *, #986, .T. ) ;
#399 = FACE_OUTER_BOUND ( 'NONE', #1, .T. ) ;
#400 = ORIENTED_EDGE ( 'NONE', *, *, #295, .F. ) ;
#401 = CARTESIAN_POINT ( 'NONE',  ( 5.000000000000000888, -3.946160875585681183, -5.203074034305574358 ) ) ;
#402 = EDGE_CURVE ( 'NONE', #752, #752, #785, .T. ) ;
#403 = CARTESIAN_POINT ( 'NONE',  ( 2.500000000000000444, 4.470373180785276901, -8.523871692162327207 ) ) ;
#404 = VERTEX_POINT ( 'NONE', #1163 ) ;
#405 = DIRECTION ( 'NONE',  ( 1.000000000000000000, -0.000000000000000000, -0.000000000000000000 ) ) ;
#406 = EDGE_LOOP ( 'NONE', ( #68, #613, #220, #555 ) ) ;
#407 = DIRECTION ( 'NONE',  ( 0.000000000000000000, -0.7071067811865536790, 0.7071067811865413555 ) ) ;
#408 = DIRECTION ( 'NONE',  ( -1.000000000000000000, -0.000000000000000000, 0.000000000000000000 ) ) ;
#409 = AXIS2_PLACEMENT_3D ( 'NONE', #454, #832, #1081 ) ;
#410 = EDGE_LOOP ( 'NONE', ( #974, #293, #923, #604 ) ) ;
#411 = AXIS2_PLACEMENT_3D ( 'NONE', #1084, #810, #256 ) ;
#412 = DIRECTION ( 'NONE',  ( -1.000000000000000000, 0.000000000000000000, 0.000000000000000000 ) ) ;
#413 = VERTEX_POINT ( 'NONE', #913 ) ;
#414 = DIRECTION ( 'NONE',  ( 0.000000000000000000, 0.2588190451025214611, -0.9659258262890680902 ) ) ;
#415 = CIRCLE ( 'NONE', #162, 9.624999999996386890 ) ;
#416 = VECTOR ( 'NONE', #307, 1000.000000000000000 ) ;
#417 = PLANE ( 'NONE',  #44 ) ;
#418 = VERTEX_POINT ( 'NONE', #361 ) ;
#419 = ADVANCED_FACE ( 'NONE', ( #1089 ), #724, .F. ) ;
#420 = CARTESIAN_POINT ( 'NONE',  ( 0.000000000000000000, -2.532913853686859618, -6.019012582830275626 ) ) ;
#421 = VERTEX_POINT ( 'NONE', #437 ) ;
#422 = DIRECTION ( 'NONE',  ( 0.000000000000000000, -0.2588190451025214056, 0.9659258262890680902 ) ) ;
#423 = DIRECTION ( 'NONE',  ( 1.000000000000000000, 0.000000000000000000, 0.000000000000000000 ) ) ;
#424 = AXIS2_PLACEMENT_3D ( 'NONE', #319, #673, #312 ) ;
#425 = VERTEX_POINT ( 'NONE', #341 ) ;
#426 = DIRECTION ( 'NONE',  ( 0.000000000000000000, 0.2588190451025213501, -0.9659258262890682012 ) ) ;
#427 = EDGE_CURVE ( 'NONE', #15, #761, #547, .T. ) ;
#428 = ORIENTED_EDGE ( 'NONE', *, *, #216, .F. ) ;
#429 = FACE_OUTER_BOUND ( 'NONE', #187, .T. ) ;
#430 = DIRECTION ( 'NONE',  ( 0.000000000000000000, 0.000000000000000000, -1.000000000000000000 ) ) ;
#431 = AXIS2_PLACEMENT_3D ( 'NONE', #26, #129, #426 ) ;
#432 = VERTEX_POINT ( 'NONE', #894 ) ;
#433 = DIRECTION ( 'NONE',  ( -1.000000000000000000, 0.000000000000000000, 0.000000000000000000 ) ) ;
#434 = VERTEX_POINT ( 'NONE', #634 ) ;
#435 = DIRECTION ( 'NONE',  ( -1.000000000000000000, 0.000000000000000000, 0.000000000000000000 ) ) ;
#436 = EDGE_CURVE ( 'NONE', #10, #1026, #992, .T. ) ;
#437 = CARTESIAN_POINT ( 'NONE',  ( 5.000000000000000888, 8.133392585037862332, -5.146702833618978623 ) ) ;
#438 = AXIS2_PLACEMENT_3D ( 'NONE', #369, #373, #1120 ) ;
#439 = CARTESIAN_POINT ( 'NONE',  ( 5.000000000000000888, 0.000000000000000000, 0.000000000000000000 ) ) ;
#440 = FACE_OUTER_BOUND ( 'NONE', #585, .T. ) ;
#441 = ORIENTED_EDGE ( 'NONE', *, *, #97, .T. ) ;
#442 = CARTESIAN_POINT ( 'NONE',  ( 5.000000000000000888, 5.203074034305531725, 3.946160875585734917 ) ) ;
#443 = LINE ( 'NONE', #1073, #356 ) ;
#444 = EDGE_CURVE ( 'NONE', #140, #1028, #719, .T. ) ;
#445 = AXIS2_PLACEMENT_3D ( 'NONE', #110, #1034, #17 ) ;
#446 = FILL_AREA_STYLE ('',( #71 ) ) ;
#447 = AXIS2_PLACEMENT_3D ( 'NONE', #144, #633, #546 ) ;
#448 = CARTESIAN_POINT ( 'NONE',  ( 0.000000000000000000, 7.659076063845668969, 2.265878585959141489 ) ) ;
#449 = AXIS2_PLACEMENT_3D ( 'NONE', #524, #451, #151 ) ;
#450 = VERTEX_POINT ( 'NONE', #1078 ) ;
#451 = DIRECTION ( 'NONE',  ( -1.000000000000000000, -0.000000000000000000, 0.000000000000000000 ) ) ;
#452 = CARTESIAN_POINT ( 'NONE',  ( 5.000000000000000888, 6.479074729272656263, -0.8159385485246252179 ) ) ;
#453 = CARTESIAN_POINT ( 'NONE',  ( -10.00000000000000000, 0.000000000000000000, 0.000000000000000000 ) ) ;
#454 = CARTESIAN_POINT ( 'NONE',  ( 5.000000000000000888, -11.41079736710767278, 1.280249999997561172 ) ) ;
#455 = DIRECTION ( 'NONE',  ( 0.000000000000000000, -0.2588190451025213501, 0.9659258262890680902 ) ) ;
#456 = CARTESIAN_POINT ( 'NONE',  ( 0.000000000000000000, 5.203074034305531725, 3.946160875585734917 ) ) ;
#457 = AXIS2_PLACEMENT_3D ( 'NONE', #213, #588, #328 ) ;
#458 = DIRECTION ( 'NONE',  ( 0.000000000000000000, -0.2588190451025214056, 0.9659258262890680902 ) ) ;
#459 = AXIS2_PLACEMENT_3D ( 'NONE', #966, #878, #871 ) ;
#460 = EDGE_CURVE ( 'NONE', #462, #210, #917, .T. ) ;
#461 = VECTOR ( 'NONE', #33, 1000.000000000000000 ) ;
#462 = VERTEX_POINT ( 'NONE', #452 ) ;
#463 = CARTESIAN_POINT ( 'NONE',  ( 5.000000000000000888, -40.00000000000000711, -5.469750000002452595 ) ) ;
#464 = CARTESIAN_POINT ( 'NONE',  ( 5.000000000000000888, 8.523871692162375169, 4.470373180785185419 ) ) ;
#465 =( GEOMETRIC_REPRESENTATION_CONTEXT ( 3 ) GLOBAL_UNCERTAINTY_ASSIGNED_CONTEXT ( ( #708 ) ) GLOBAL_UNIT_ASSIGNED_CONTEXT ( ( #484, #925, #748 ) ) REPRESENTATION_CONTEXT ( 'NONE', 'WORKASPACE' ) );
#466 = ORIENTED_EDGE ( 'NONE', *, *, #112, .T. ) ;
#467 = DIRECTION ( 'NONE',  ( -1.000000000000000000, -0.000000000000000000, 0.000000000000000000 ) ) ;
#468 = VECTOR ( 'NONE', #663, 1000.000000000000000 ) ;
#469 = VERTEX_POINT ( 'NONE', #1103 ) ;
#470 = ORIENTED_EDGE ( 'NONE', *, *, #188, .T. ) ;
#471 = AXIS2_PLACEMENT_3D ( 'NONE', #1011, #578, #1024 ) ;
#472 = EDGE_LOOP ( 'NONE', ( #22, #501, #352, #1195 ) ) ;
#473 = DIRECTION ( 'NONE',  ( 0.000000000000000000, -0.000000000000000000, 1.000000000000000000 ) ) ;
#474 = EDGE_CURVE ( 'NONE', #231, #1077, #642, .T. ) ;
#475 = CARTESIAN_POINT ( 'NONE',  ( 5.000000000000000888, 6.019012582830249869, 2.532913853686923566 ) ) ;
#476 = ORIENTED_EDGE ( 'NONE', *, *, #934, .F. ) ;
#477 = AXIS2_PLACEMENT_3D ( 'NONE', #976, #408, #31 ) ;
#478 = ORIENTED_EDGE ( 'NONE', *, *, #480, .T. ) ;
#479 = DIRECTION ( 'NONE',  ( -1.000000000000000000, 0.000000000000000000, -0.000000000000000000 ) ) ;
#480 = EDGE_CURVE ( 'NONE', #848, #948, #610, .T. ) ;
#481 = DIRECTION ( 'NONE',  ( 0.000000000000000000, -0.2588190451025214056, 0.9659258262890680902 ) ) ;
#482 = EDGE_LOOP ( 'NONE', ( #526, #1121, #851, #944 ) ) ;
#483 = DIRECTION ( 'NONE',  ( -1.000000000000000000, 0.000000000000000000, 0.000000000000000000 ) ) ;
#484 =( LENGTH_UNIT ( ) NAMED_UNIT ( * ) SI_UNIT ( .MILLI., .METRE. ) );
#485 = APPLICATION_PROTOCOL_DEFINITION ( 'draft international standard', 'automotive_design', 1998, #660 ) ;
#486 = ORIENTED_EDGE ( 'NONE', *, *, #994, .F. ) ;
#487 = EDGE_CURVE ( 'NONE', #150, #413, #902, .T. ) ;
#488 = AXIS2_PLACEMENT_3D ( 'NONE', #699, #317, #859 ) ;
#489 = ORIENTED_EDGE ( 'NONE', *, *, #308, .F. ) ;
#490 = CARTESIAN_POINT ( 'NONE',  ( 0.000000000000000000, -36.41079736710766923, 1.280249999997555843 ) ) ;
#491 = CIRCLE ( 'NONE', #488, 3.299999999998762146 ) ;
#492 = CARTESIAN_POINT ( 'NONE',  ( 0.000000000000000000, 0.000000000000000000, 0.000000000000000000 ) ) ;
#493 = AXIS2_PLACEMENT_3D ( 'NONE', #257, #357, #714 ) ;
#494 = VERTEX_POINT ( 'NONE', #989 ) ;
#495 = DIRECTION ( 'NONE',  ( 1.000000000000000000, 0.000000000000000000, 0.000000000000000000 ) ) ;
#496 = EDGE_CURVE ( 'NONE', #268, #268, #1184, .T. ) ;
#497 = VECTOR ( 'NONE', #423, 1000.000000000000000 ) ;
#498 = ORIENTED_EDGE ( 'NONE', *, *, #833, .F. ) ;
#499 = CARTESIAN_POINT ( 'NONE',  ( 0.000000000000000000, 7.765893733787243569, -1.867229614591064957 ) ) ;
#500 = DIRECTION ( 'NONE',  ( -1.000000000000000000, 0.000000000000000000, 0.000000000000000000 ) ) ;
#501 = ORIENTED_EDGE ( 'NONE', *, *, #139, .F. ) ;
#502 = FACE_BOUND ( 'NONE', #339, .T. ) ;
#503 = CIRCLE ( 'NONE', #1151, 3.500000000000000000 ) ;
#504 = ORIENTED_EDGE ( 'NONE', *, *, #648, .T. ) ;
#505 = DIRECTION ( 'NONE',  ( -1.000000000000000000, 0.000000000000000000, 0.000000000000000000 ) ) ;
#506 = DIRECTION ( 'NONE',  ( -1.000000000000000000, 0.000000000000000000, 0.000000000000000000 ) ) ;
#507 = ORIENTED_EDGE ( 'NONE', *, *, #1093, .T. ) ;
#508 = ORIENTED_EDGE ( 'NONE', *, *, #890, .T. ) ;
#509 = DIRECTION ( 'NONE',  ( -1.000000000000000000, -0.000000000000000000, 0.000000000000000000 ) ) ;
#510 = DIRECTION ( 'NONE',  ( -1.000000000000000000, 0.000000000000000000, 0.000000000000000000 ) ) ;
#511 = EDGE_CURVE ( 'NONE', #432, #32, #732, .T. ) ;
#512 = CIRCLE ( 'NONE', #1159, 7.999999999999992895 ) ;
#513 = ORIENTED_EDGE ( 'NONE', *, *, #1145, .F. ) ;
#514 = PLANE ( 'NONE',  #709 ) ;
#515 = AXIS2_PLACEMENT_3D ( 'NONE', #1090, #535, #984 ) ;
#516 = ORIENTED_EDGE ( 'NONE', *, *, #1197, .T. ) ;
#517 = PLANE ( 'NONE',  #630 ) ;
#518 = AXIS2_PLACEMENT_3D ( 'NONE', #566, #1106, #647 ) ;
#519 = DIRECTION ( 'NONE',  ( 0.000000000000000000, 1.000000000000000000, 1.734723475976806848E-16 ) ) ;
#520 = EDGE_CURVE ( 'NONE', #289, #710, #443, .T. ) ;
#521 = ORIENTED_EDGE ( 'NONE', *, *, #1074, .F. ) ;
#522 = CARTESIAN_POINT ( 'NONE',  ( 0.000000000000000000, -40.00000000000000711, -5.469750000002452595 ) ) ;
#523 = ORIENTED_EDGE ( 'NONE', *, *, #850, .F. ) ;
#524 = CARTESIAN_POINT ( 'NONE',  ( 5.000000000000000888, -5.791846449254485663, -5.500015147828237971 ) ) ;
#525 = CYLINDRICAL_SURFACE ( 'NONE', #1068, 12.00000000000000000 ) ;
#526 = ORIENTED_EDGE ( 'NONE', *, *, #655, .F. ) ;
#527 = FACE_OUTER_BOUND ( 'NONE', #891, .T. ) ;
#528 = ADVANCED_FACE ( 'NONE', ( #983, #1196, #180, #1119 ), #109, .F. ) ;
#529 = PRODUCT_DEFINITION_CONTEXT ( 'detailed design', #660, 'design' ) ;
#530 = CIRCLE ( 'NONE', #58, 6.530249999997550958 ) ;
#531 = EDGE_LOOP ( 'NONE', ( #498, #1044, #318, #626, #1115, #779, #641, #602, #677, #508, #46, #861, #306, #943, #246, #1155, #478, #858, #377, #1019, #716, #1032, #107, #775, #507, #332, #670, #1088, #466, #932 ) ) ;
#532 = CARTESIAN_POINT ( 'NONE',  ( 5.000000000000000888, 7.765893733787243569, -1.867229614591064957 ) ) ;
#533 = FACE_OUTER_BOUND ( 'NONE', #194, .T. ) ;
#534 = AXIS2_PLACEMENT_3D ( 'NONE', #310, #686, #1158 ) ;
#535 = DIRECTION ( 'NONE',  ( -1.000000000000000000, 0.000000000000000000, 0.000000000000000000 ) ) ;
#536 = DIRECTION ( 'NONE',  ( -1.000000000000000000, -0.000000000000000000, 0.000000000000000000 ) ) ;
#537 = EDGE_CURVE ( 'NONE', #462, #1049, #99, .T. ) ;
#538 = VERTEX_POINT ( 'NONE', #556 ) ;
#539 = CLOSED_SHELL ( 'NONE', ( #558, #528, #170, #884, #77, #178, #766, #949, #1170, #342, #21, #1080, #380, #860, #837, #1058, #148, #196, #84, #288, #1020, #6, #62, #826, #624, #45, #1116, #419, #713, #643, #349, #388, #563, #334, #1153 ) ) ;
#540 = LINE ( 'NONE', #954, #881 ) ;
#541 = CARTESIAN_POINT ( 'NONE',  ( 0.000000000000000000, 5.500015147828258399, -5.791846449254466123 ) ) ;
#542 = AXIS2_PLACEMENT_3D ( 'NONE', #607, #703, #869 ) ;
#543 = LINE ( 'NONE', #1010, #1186 ) ;
#544 = CARTESIAN_POINT ( 'NONE',  ( 0.000000000000000000, 0.000000000000000000, 0.000000000000000000 ) ) ;
#545 = ORIENTED_EDGE ( 'NONE', *, *, #1123, .F. ) ;
#546 = DIRECTION ( 'NONE',  ( 0.000000000000000000, -0.7071067811865389130, -0.7071067811865561215 ) ) ;
#547 = LINE ( 'NONE', #265, #177 ) ;
#548 = DIRECTION ( 'NONE',  ( -1.000000000000000000, 0.000000000000000000, 0.000000000000000000 ) ) ;
#549 = DIRECTION ( 'NONE',  ( 0.000000000000000000, -0.2588190451025213501, 0.9659258262890682012 ) ) ;
#550 = DIRECTION ( 'NONE',  ( 1.000000000000000000, -0.000000000000000000, 0.000000000000000000 ) ) ;
#551 = EDGE_CURVE ( 'NONE', #1124, #1126, #530, .T. ) ;
#552 = CARTESIAN_POINT ( 'NONE',  ( 0.000000000000000000, -5.791846449254485663, -5.500015147828237971 ) ) ;
#553 = LINE ( 'NONE', #1087, #351 ) ;
#554 = CIRCLE ( 'NONE', #990, 12.00000000000000000 ) ;
#555 = ORIENTED_EDGE ( 'NONE', *, *, #760, .T. ) ;
#556 = CARTESIAN_POINT ( 'NONE',  ( 5.000000000000000888, -4.470373180785094824, -8.523871692162419578 ) ) ;
#557 = FACE_OUTER_BOUND ( 'NONE', #937, .T. ) ;
#558 = ADVANCED_FACE ( 'NONE', ( #1029 ), #1112, .T. ) ;
#559 = DIRECTION ( 'NONE',  ( 0.000000000000000000, -1.000000000000000000, -1.597771622610218838E-16 ) ) ;
#560 = DIRECTION ( 'NONE',  ( 1.000000000000000000, 0.000000000000000000, -0.000000000000000000 ) ) ;
#561 = APPLICATION_PROTOCOL_DEFINITION ( 'draft international standard', 'automotive_design', 1998, #730 ) ;
#562 = ORIENTED_EDGE ( 'NONE', *, *, #674, .F. ) ;
#563 = ADVANCED_FACE ( 'NONE', ( #1022 ), #290, .T. ) ;
#564 = VERTEX_POINT ( 'NONE', #1125 ) ;
#565 = DIRECTION ( 'NONE',  ( -1.000000000000000000, 0.000000000000000000, 0.000000000000000000 ) ) ;
#566 = CARTESIAN_POINT ( 'NONE',  ( 0.000000000000000000, 0.000000000000000000, 0.000000000000000000 ) ) ;
#567 = CARTESIAN_POINT ( 'NONE',  ( 0.000000000000000000, -11.41079736710767278, -0.2197500000024406597 ) ) ;
#568 = AXIS2_PLACEMENT_3D ( 'NONE', #973, #141, #1062 ) ;
#569 = EDGE_CURVE ( 'NONE', #98, #1077, #286, .T. ) ;
#570 = ORIENTED_EDGE ( 'NONE', *, *, #1074, .T. ) ;
#571 = CARTESIAN_POINT ( 'NONE',  ( 0.000000000000000000, 7.659076063845700943, -2.265878585959034019 ) ) ;
#572 = AXIS2_PLACEMENT_3D ( 'NONE', #169, #998, #248 ) ;
#573 = CARTESIAN_POINT ( 'NONE',  ( 5.000000000000000888, 5.500015147828258399, -5.791846449254466123 ) ) ;
#574 = ORIENTED_EDGE ( 'NONE', *, *, #123, .F. ) ;
#575 = ORIENTED_EDGE ( 'NONE', *, *, #427, .T. ) ;
#576 = DIRECTION ( 'NONE',  ( 1.000000000000000000, 0.000000000000000000, -0.000000000000000000 ) ) ;
#577 = AXIS2_PLACEMENT_3D ( 'NONE', #532, #814, #1083 ) ;
#578 = DIRECTION ( 'NONE',  ( 0.000000000000000000, 0.000000000000000000, 1.000000000000000000 ) ) ;
#579 = ORIENTED_EDGE ( 'NONE', *, *, #940, .F. ) ;
#580 = ORIENTED_EDGE ( 'NONE', *, *, #909, .F. ) ;
#581 = CARTESIAN_POINT ( 'NONE',  ( 5.000000000000000888, -5.146702833619007933, -8.133392585037844569 ) ) ;
#582 = CARTESIAN_POINT ( 'NONE',  ( 0.000000000000000000, -7.276951930685352288, -3.719750000002453927 ) ) ;
#583 = EDGE_CURVE ( 'NONE', #710, #15, #185, .T. ) ;
#584 = CIRCLE ( 'NONE', #203, 6.530249999997550958 ) ;
#585 = EDGE_LOOP ( 'NONE', ( #1139 ) ) ;
#586 = FACE_BOUND ( 'NONE', #995, .T. ) ;
#587 = EDGE_LOOP ( 'NONE', ( #574, #575, #174, #650, #8, #672, #599, #1174, #329, #102, #885, #156, #239, #684, #879, #400, #393, #580, #898, #523, #521, #428, #659, #736, #654, #806, #856, #96, #888, #1036 ) ) ;
#588 = DIRECTION ( 'NONE',  ( -1.000000000000000000, 0.000000000000000000, -0.000000000000000000 ) ) ;
#589 = ORIENTED_EDGE ( 'NONE', *, *, #139, .T. ) ;
#590 = CARTESIAN_POINT ( 'NONE',  ( 2.500000000000000444, 9.617076014404267070, -0.3904791071244468892 ) ) ;
#591 = CIRCLE ( 'NONE', #518, 9.624999999996388667 ) ;
#592 = VERTEX_POINT ( 'NONE', #1105 ) ;
#593 = DIRECTION ( 'NONE',  ( 1.000000000000000000, 0.000000000000000000, 0.000000000000000000 ) ) ;
#594 = DIRECTION ( 'NONE',  ( 0.000000000000000000, 0.000000000000000000, 1.000000000000000000 ) ) ;
#595 = EDGE_LOOP ( 'NONE', ( #470, #793, #34, #204 ) ) ;
#596 = DIRECTION ( 'NONE',  ( -1.000000000000000000, 0.000000000000000000, -0.000000000000000000 ) ) ;
#597 = AXIS2_PLACEMENT_3D ( 'NONE', #186, #12, #481 ) ;
#598 = EDGE_CURVE ( 'NONE', #432, #494, #584, .T. ) ;
#599 = ORIENTED_EDGE ( 'NONE', *, *, #1123, .T. ) ;
#600 = CARTESIAN_POINT ( 'NONE',  ( 0.000000000000000000, 9.617076014404261741, 0.3904791071245826695 ) ) ;
#601 = LINE ( 'NONE', #50, #193 ) ;
#602 = ORIENTED_EDGE ( 'NONE', *, *, #915, .T. ) ;
#603 = DIRECTION ( 'NONE',  ( 0.000000000000000000, 0.000000000000000000, -1.000000000000000000 ) ) ;
#604 = ORIENTED_EDGE ( 'NONE', *, *, #1162, .T. ) ;
#605 = CARTESIAN_POINT ( 'NONE',  ( 0.000000000000000000, 4.470373180785276013, -8.523871692162327207 ) ) ;
#606 = EDGE_CURVE ( 'NONE', #651, #1126, #762, .T. ) ;
#607 = CARTESIAN_POINT ( 'NONE',  ( 5.000000000000000888, -38.00000000000000711, -5.469750000002452595 ) ) ;
#608 = AXIS2_PLACEMENT_3D ( 'NONE', #344, #721, #993 ) ;
#609 = EDGE_LOOP ( 'NONE', ( #870 ) ) ;
#610 = CIRCLE ( 'NONE', #159, 3.299999999998761702 ) ;
#611 = FACE_OUTER_BOUND ( 'NONE', #531, .T. ) ;
#612 = AXIS2_PLACEMENT_3D ( 'NONE', #1086, #1183, #336 ) ;
#613 = ORIENTED_EDGE ( 'NONE', *, *, #668, .F. ) ;
#614 = DIRECTION ( 'NONE',  ( -1.000000000000000000, 0.000000000000000000, -0.000000000000000000 ) ) ;
#615 = DIRECTION ( 'NONE',  ( -1.000000000000000000, 0.000000000000000000, 0.000000000000000000 ) ) ;
#616 = EDGE_CURVE ( 'NONE', #1071, #147, #378, .T. ) ;
#617 = ORIENTED_EDGE ( 'NONE', *, *, #1035, .T. ) ;
#618 = CIRCLE ( 'NONE', #142, 3.299999999998762146 ) ;
#619 = CARTESIAN_POINT ( 'NONE',  ( 0.000000000000000000, -2.265878585958954528, -7.659076063845724924 ) ) ;
#620 = EDGE_LOOP ( 'NONE', ( #1160, #706, #489, #852 ) ) ;
#621 = DIRECTION ( 'NONE',  ( 0.000000000000000000, 0.2588190451025214056, -0.9659258262890679791 ) ) ;
#622 = DIRECTION ( 'NONE',  ( 1.000000000000000000, 0.000000000000000000, 0.000000000000000000 ) ) ;
#623 = DIRECTION ( 'NONE',  ( 0.000000000000000000, -0.2588190451025214056, 0.9659258262890680902 ) ) ;
#624 = ADVANCED_FACE ( 'NONE', ( #742 ), #385, .T. ) ;
#625 = CARTESIAN_POINT ( 'NONE',  ( 0.000000000000000000, 6.479074729272645605, 0.8159385485247171443 ) ) ;
#626 = ORIENTED_EDGE ( 'NONE', *, *, #994, .T. ) ;
#627 = FACE_OUTER_BOUND ( 'NONE', #214, .T. ) ;
#628 = CARTESIAN_POINT ( 'NONE',  ( 2.500000000000000444, 8.133392585037793054, 5.146702833619093198 ) ) ;
#629 = DIRECTION ( 'NONE',  ( 0.000000000000000000, -0.9659258262890708657, 0.2588190451025112471 ) ) ;
#630 = AXIS2_PLACEMENT_3D ( 'NONE', #945, #862, #1053 ) ;
#631 = CARTESIAN_POINT ( 'NONE',  ( 5.000000000000000888, 5.203074034305588569, -3.946160875585662087 ) ) ;
#632 = ORIENTED_EDGE ( 'NONE', *, *, #234, .F. ) ;
#633 = DIRECTION ( 'NONE',  ( -1.000000000000000000, -0.000000000000000000, 0.000000000000000000 ) ) ;
#634 = CARTESIAN_POINT ( 'NONE',  ( 5.000000000000000888, 5.146702833619178463, -8.133392585037736211 ) ) ;
#635 = SURFACE_SIDE_STYLE ('',( #818 ) ) ;
#636 = FACE_OUTER_BOUND ( 'NONE', #202, .T. ) ;
#637 = EDGE_CURVE ( 'NONE', #217, #1028, #778, .T. ) ;
#638 = CARTESIAN_POINT ( 'NONE',  ( 5.000000000000000888, -2.532913853686859618, -6.019012582830275626 ) ) ;
#639 = COLOUR_RGB ( '',0.7921568627450980005, 0.8196078431372548767, 0.9333333333333333481 ) ;
#640 = CARTESIAN_POINT ( 'NONE',  ( 0.000000000000000000, 0.000000000000000000, 0.000000000000000000 ) ) ;
#641 = ORIENTED_EDGE ( 'NONE', *, *, #520, .T. ) ;
#642 = LINE ( 'NONE', #628, #1046 ) ;
#643 = ADVANCED_FACE ( 'NONE', ( #1017 ), #667, .T. ) ;
#644 = DIRECTION ( 'NONE',  ( 0.000000000000000000, -0.2588190451025213501, 0.9659258262890682012 ) ) ;
#645 =( NAMED_UNIT ( * ) SI_UNIT ( $, .STERADIAN. ) SOLID_ANGLE_UNIT ( ) );
#646 = DIRECTION ( 'NONE',  ( 0.000000000000000000, -0.2588190451025213501, 0.9659258262890680902 ) ) ;
#647 = DIRECTION ( 'NONE',  ( 0.000000000000000000, -0.2588190451025214056, 0.9659258262890680902 ) ) ;
#648 = EDGE_CURVE ( 'NONE', #789, #688, #1013, .T. ) ;
#649 = CARTESIAN_POINT ( 'NONE',  ( 5.000000000000000888, -11.41079736710767278, -0.2197500000024406597 ) ) ;
#650 = ORIENTED_EDGE ( 'NONE', *, *, #817, .T. ) ;
#651 = VERTEX_POINT ( 'NONE', #5 ) ;
#652 = CARTESIAN_POINT ( 'NONE',  ( 5.000000000000000888, 2.265878585959114400, -7.659076063845676074 ) ) ;
#653 = VECTOR ( 'NONE', #1199, 1000.000000000000000 ) ;
#654 = ORIENTED_EDGE ( 'NONE', *, *, #97, .F. ) ;
#655 = EDGE_CURVE ( 'NONE', #425, #289, #554, .T. ) ;
#656 = EDGE_LOOP ( 'NONE', ( #476, #1118, #198, #1134 ) ) ;
#657 = CARTESIAN_POINT ( 'NONE',  ( 5.000000000000000888, -50.00000000000000711, -5.469750000002454371 ) ) ;
#658 = CARTESIAN_POINT ( 'NONE',  ( 5.000000000000000888, 6.019012582830286284, -2.532913853686837857 ) ) ;
#659 = ORIENTED_EDGE ( 'NONE', *, *, #460, .F. ) ;
#660 = APPLICATION_CONTEXT ( 'automotive_design' ) ;
#661 = AXIS2_PLACEMENT_3D ( 'NONE', #1076, #916, #458 ) ;
#662 = VERTEX_POINT ( 'NONE', #657 ) ;
#663 = DIRECTION ( 'NONE',  ( -1.000000000000000000, 0.000000000000000000, 0.000000000000000000 ) ) ;
#664 = CARTESIAN_POINT ( 'NONE',  ( 0.000000000000000000, -0.8159385485246484215, -6.479074729272652711 ) ) ;
#665 = EDGE_LOOP ( 'NONE', ( #367, #1055, #1021, #1166 ) ) ;
#666 = ORIENTED_EDGE ( 'NONE', *, *, #915, .F. ) ;
#667 = PLANE ( 'NONE',  #912 ) ;
#668 = EDGE_CURVE ( 'NONE', #1126, #798, #895, .T. ) ;
#669 = CARTESIAN_POINT ( 'NONE',  ( 5.000000000000000888, -3.946160875585676742, -5.203074034305571693 ) ) ;
#670 = ORIENTED_EDGE ( 'NONE', *, *, #955, .F. ) ;
#671 = STYLED_ITEM ( 'NONE', ( #763 ), #127 ) ;
#672 = ORIENTED_EDGE ( 'NONE', *, *, #735, .T. ) ;
#673 = DIRECTION ( 'NONE',  ( -1.000000000000000000, 0.000000000000000000, -0.000000000000000000 ) ) ;
#674 = EDGE_CURVE ( 'NONE', #965, #789, #843, .T. ) ;
#675 = LINE ( 'NONE', #958, #687 ) ;
#676 = AXIS2_PLACEMENT_3D ( 'NONE', #849, #372, #559 ) ;
#677 = ORIENTED_EDGE ( 'NONE', *, *, #569, .T. ) ;
#678 = FACE_BOUND ( 'NONE', #1031, .T. ) ;
#679 = AXIS2_PLACEMENT_3D ( 'NONE', #215, #596, #707 ) ;
#680 = ORIENTED_EDGE ( 'NONE', *, *, #480, .F. ) ;
#681 = DIRECTION ( 'NONE',  ( -1.000000000000000000, 0.000000000000000000, 0.000000000000000000 ) ) ;
#682 = FACE_OUTER_BOUND ( 'NONE', #609, .T. ) ;
#683 = AXIS2_PLACEMENT_3D ( 'NONE', #1075, #171, #644 ) ;
#684 = ORIENTED_EDGE ( 'NONE', *, *, #394, .F. ) ;
#685 = EDGE_CURVE ( 'NONE', #434, #1026, #23, .T. ) ;
#686 = DIRECTION ( 'NONE',  ( -1.000000000000000000, 0.000000000000000000, 0.000000000000000000 ) ) ;
#687 = VECTOR ( 'NONE', #615, 1000.000000000000000 ) ;
#688 = VERTEX_POINT ( 'NONE', #581 ) ;
#689 = CARTESIAN_POINT ( 'NONE',  ( 5.000000000000000888, -38.00000000000000711, 6.530249999997547405 ) ) ;
#690 = CYLINDRICAL_SURFACE ( 'NONE', #731, 3.299999999998762146 ) ;
#691 = ORIENTED_EDGE ( 'NONE', *, *, #216, .T. ) ;
#692 = CARTESIAN_POINT ( 'NONE',  ( 5.000000000000000888, 5.500015147828178463, 5.791846449254543394 ) ) ;
#693 = EDGE_CURVE ( 'NONE', #425, #662, #783, .T. ) ;
#694 = VECTOR ( 'NONE', #991, 1000.000000000000000 ) ;
#695 = EDGE_LOOP ( 'NONE', ( #722 ) ) ;
#696 = DIRECTION ( 'NONE',  ( -1.000000000000000000, 0.000000000000000000, -0.000000000000000000 ) ) ;
#697 = LINE ( 'NONE', #1157, #376 ) ;
#698 = EDGE_LOOP ( 'NONE', ( #314, #972, #589, #1037 ) ) ;
#699 = CARTESIAN_POINT ( 'NONE',  ( 0.000000000000000000, 5.500015147828178463, 5.791846449254543394 ) ) ;
#700 = ORIENTED_EDGE ( 'NONE', *, *, #702, .F. ) ;
#701 = CYLINDRICAL_SURFACE ( 'NONE', #449, 3.299999999998762146 ) ;
#702 = EDGE_CURVE ( 'NONE', #130, #981, #120, .T. ) ;
#703 = DIRECTION ( 'NONE',  ( 1.000000000000000000, 0.000000000000000000, 0.000000000000000000 ) ) ;
#704 = AXIS2_PLACEMENT_3D ( 'NONE', #968, #326, #422 ) ;
#705 = CIRCLE ( 'NONE', #1008, 3.299999999998762146 ) ;
#706 = ORIENTED_EDGE ( 'NONE', *, *, #1093, .F. ) ;
#707 = DIRECTION ( 'NONE',  ( 0.000000000000000000, -0.2588190451025214056, 0.9659258262890680902 ) ) ;
#708 = UNCERTAINTY_MEASURE_WITH_UNIT (LENGTH_MEASURE( 1.000000000000000082E-05 ), #484, 'distance_accuracy_value', 'NONE');
#709 = AXIS2_PLACEMENT_3D ( 'NONE', #1146, #495, #54 ) ;
#710 = VERTEX_POINT ( 'NONE', #769 ) ;
#711 = CARTESIAN_POINT ( 'NONE',  ( 0.000000000000000000, 0.000000000000000000, 0.000000000000000000 ) ) ;
#712 = DIRECTION ( 'NONE',  ( 0.000000000000000000, -0.9659258262890654256, -0.2588190451025315086 ) ) ;
#713 = ADVANCED_FACE ( 'NONE', ( #880 ), #517, .T. ) ;
#714 = DIRECTION ( 'NONE',  ( 0.000000000000000000, -0.2588190451025214611, 0.9659258262890680902 ) ) ;
#715 = LINE ( 'NONE', #263, #61 ) ;
#716 = ORIENTED_EDGE ( 'NONE', *, *, #436, .T. ) ;
#717 = DIRECTION ( 'NONE',  ( 0.000000000000000000, -0.9659258262890708657, 0.2588190451025112471 ) ) ;
#718 = CIRCLE ( 'NONE', #980, 6.530249999997550070 ) ;
#719 = LINE ( 'NONE', #638, #374 ) ;
#720 = CARTESIAN_POINT ( 'NONE',  ( 5.000000000000000888, 0.000000000000000000, 0.000000000000000000 ) ) ;
#721 = DIRECTION ( 'NONE',  ( 1.000000000000000000, 0.000000000000000000, 0.000000000000000000 ) ) ;
#722 = ORIENTED_EDGE ( 'NONE', *, *, #1187, .F. ) ;
#723 = CARTESIAN_POINT ( 'NONE',  ( 5.000000000000000888, 1.867229614591256137, -7.765893733787197384 ) ) ;
#724 = CYLINDRICAL_SURFACE ( 'NONE', #411, 7.999999999999992895 ) ;
#725 = CIRCLE ( 'NONE', #431, 6.530249999997550958 ) ;
#726 = FACE_OUTER_BOUND ( 'NONE', #114, .T. ) ;
#727 = DIRECTION ( 'NONE',  ( 0.000000000000000000, -0.9659258262890654256, -0.2588190451025315086 ) ) ;
#728 = EDGE_CURVE ( 'NONE', #981, #150, #1085, .T. ) ;
#729 = ORIENTED_EDGE ( 'NONE', *, *, #970, .T. ) ;
#730 = APPLICATION_CONTEXT ( 'automotive_design' ) ;
#731 = AXIS2_PLACEMENT_3D ( 'NONE', #784, #510, #1142 ) ;
#732 = LINE ( 'NONE', #805, #42 ) ;
#733 = CYLINDRICAL_SURFACE ( 'NONE', #72, 9.624999999996388667 ) ;
#734 = CARTESIAN_POINT ( 'NONE',  ( 5.000000000000000888, 9.617076014404263518, -0.3904791071244486100 ) ) ;
#735 = EDGE_CURVE ( 'NONE', #147, #753, #1156, .T. ) ;
#736 = ORIENTED_EDGE ( 'NONE', *, *, #208, .F. ) ;
#737 = DIRECTION ( 'NONE',  ( -1.000000000000000000, 0.000000000000000000, 0.000000000000000000 ) ) ;
#738 = AXIS2_PLACEMENT_3D ( 'NONE', #439, #999, #83 ) ;
#739 = CYLINDRICAL_SURFACE ( 'NONE', #515, 3.299999999998762146 ) ;
#740 = CYLINDRICAL_SURFACE ( 'NONE', #409, 1.500000000000001776 ) ;
#741 = EDGE_LOOP ( 'NONE', ( #1104, #883, #813, #1164 ) ) ;
#742 = FACE_OUTER_BOUND ( 'NONE', #595, .T. ) ;
#743 = EDGE_CURVE ( 'NONE', #469, #469, #1002, .T. ) ;
#744 = CYLINDRICAL_SURFACE ( 'NONE', #445, 3.299999999998762146 ) ;
#745 = CIRCLE ( 'NONE', #1137, 3.299999999998762146 ) ;
#746 = DIRECTION ( 'NONE',  ( 1.000000000000000000, 0.000000000000000000, 0.000000000000000000 ) ) ;
#747 = EDGE_CURVE ( 'NONE', #163, #260, #365, .T. ) ;
#748 =( NAMED_UNIT ( * ) SI_UNIT ( $, .STERADIAN. ) SOLID_ANGLE_UNIT ( ) );
#749 = CARTESIAN_POINT ( 'NONE',  ( 0.000000000000000000, -38.00000000000000711, -5.469750000002452595 ) ) ;
#750 = DIRECTION ( 'NONE',  ( 0.000000000000000000, -0.2588190451025214056, 0.9659258262890680902 ) ) ;
#751 = CIRCLE ( 'NONE', #364, 6.530249999997550958 ) ;
#752 = VERTEX_POINT ( 'NONE', #274 ) ;
#753 = VERTEX_POINT ( 'NONE', #1148 ) ;
#754 = EDGE_LOOP ( 'NONE', ( #1179, #381, #309, #51 ) ) ;
#755 = AXIS2_PLACEMENT_3D ( 'NONE', #723, #255, #975 ) ;
#756 = DIRECTION ( 'NONE',  ( 0.000000000000000000, -0.2588190451025213501, 0.9659258262890680902 ) ) ;
#757 = VECTOR ( 'NONE', #104, 1000.000000000000000 ) ;
#758 = FACE_OUTER_BOUND ( 'NONE', #873, .T. ) ;
#759 = EDGE_LOOP ( 'NONE', ( #398, #680, #632, #691 ) ) ;
#760 = EDGE_CURVE ( 'NONE', #651, #92, #942, .T. ) ;
#761 = VERTEX_POINT ( 'NONE', #689 ) ;
#762 = LINE ( 'NONE', #88, #468 ) ;
#763 = PRESENTATION_STYLE_ASSIGNMENT (( #167 ) ) ;
#764 = ORIENTED_EDGE ( 'NONE', *, *, #444, .T. ) ;
#765 = CIRCLE ( 'NONE', #542, 12.00000000000000000 ) ;
#766 = ADVANCED_FACE ( 'NONE', ( #952 ), #199, .T. ) ;
#767 = ORIENTED_EDGE ( 'NONE', *, *, #200, .F. ) ;
#768 = AXIS2_PLACEMENT_3D ( 'NONE', #711, #614, #64 ) ;
#769 = CARTESIAN_POINT ( 'NONE',  ( 0.000000000000000000, -4.560049202594364961E-14, 6.530249999997551846 ) ) ;
#770 = CARTESIAN_POINT ( 'NONE',  ( -51.41984052872972200, -50.00000000000000711, -5.469750000002454371 ) ) ;
#771 = ORIENTED_EDGE ( 'NONE', *, *, #366, .F. ) ;
#772 = CIRCLE ( 'NONE', #1173, 6.530249999997550070 ) ;
#773 = CARTESIAN_POINT ( 'NONE',  ( 5.000000000000000888, 0.000000000000000000, 0.000000000000000000 ) ) ;
#774 = AXIS2_PLACEMENT_3D ( 'NONE', #499, #35, #414 ) ;
#775 = ORIENTED_EDGE ( 'NONE', *, *, #183, .T. ) ;
#776 = CARTESIAN_POINT ( 'NONE',  ( 0.000000000000000000, 0.000000000000000000, 0.000000000000000000 ) ) ;
#777 = EDGE_CURVE ( 'NONE', #450, #371, #302, .T. ) ;
#778 = CIRCLE ( 'NONE', #1117, 6.530249999997550070 ) ;
#779 = ORIENTED_EDGE ( 'NONE', *, *, #655, .T. ) ;
#780 = CARTESIAN_POINT ( 'NONE',  ( 2.500000000000000444, 8.523871692162437341, -4.470373180785067291 ) ) ;
#781 = CIRCLE ( 'NONE', #679, 9.624999999996386890 ) ;
#782 = VERTEX_POINT ( 'NONE', #957 ) ;
#783 = LINE ( 'NONE', #396, #330 ) ;
#784 = CARTESIAN_POINT ( 'NONE',  ( 5.000000000000000888, 7.659076063845700943, -2.265878585959034019 ) ) ;
#785 = CIRCLE ( 'NONE', #1122, 3.500000000000000000 ) ;
#786 = EDGE_CURVE ( 'NONE', #688, #130, #816, .T. ) ;
#787 = ORIENTED_EDGE ( 'NONE', *, *, #259, .F. ) ;
#788 = DIRECTION ( 'NONE',  ( 0.000000000000000000, -0.2588190451025213501, 0.9659258262890682012 ) ) ;
#789 = VERTEX_POINT ( 'NONE', #218 ) ;
#790 = DIRECTION ( 'NONE',  ( 0.000000000000000000, 1.000000000000000000, -1.325307068203333987E-17 ) ) ;
#791 = PRODUCT_DEFINITION_SHAPE ( 'NONE', 'NONE',  #279 ) ;
#792 = DIRECTION ( 'NONE',  ( 1.000000000000000000, 0.000000000000000000, 0.000000000000000000 ) ) ;
#793 = ORIENTED_EDGE ( 'NONE', *, *, #252, .T. ) ;
#794 = LINE ( 'NONE', #230, #117 ) ;
#795 = ORIENTED_EDGE ( 'NONE', *, *, #569, .F. ) ;
#796 = DIRECTION ( 'NONE',  ( 0.000000000000000000, 0.000000000000000000, -1.000000000000000000 ) ) ;
#797 = CARTESIAN_POINT ( 'NONE',  ( 5.000000000000000888, 6.019012582830286284, -2.532913853686837857 ) ) ;
#798 = VERTEX_POINT ( 'NONE', #600 ) ;
#799 = AXIS2_PLACEMENT_3D ( 'NONE', #933, #483, #756 ) ;
#800 = CYLINDRICAL_SURFACE ( 'NONE', #534, 3.299999999998762146 ) ;
#801 = EDGE_CURVE ( 'NONE', #1049, #848, #961, .T. ) ;
#802 = ORIENTED_EDGE ( 'NONE', *, *, #436, .F. ) ;
#803 = DIRECTION ( 'NONE',  ( 0.000000000000000000, 0.7071067811865487940, -0.7071067811865463515 ) ) ;
#804 = CIRCLE ( 'NONE', #608, 1.499999999999998224 ) ;
#805 = CARTESIAN_POINT ( 'NONE',  ( 5.000000000000000888, 2.532913853686987071, -6.019012582830223224 ) ) ;
#806 = ORIENTED_EDGE ( 'NONE', *, *, #760, .F. ) ;
#807 = DIRECTION ( 'NONE',  ( 0.000000000000000000, -0.2588190451025213501, 0.9659258262890680902 ) ) ;
#808 = ORIENTED_EDGE ( 'NONE', *, *, #324, .T. ) ;
#809 = DIRECTION ( 'NONE',  ( -1.000000000000000000, 0.000000000000000000, 0.000000000000000000 ) ) ;
#810 = DIRECTION ( 'NONE',  ( 1.000000000000000000, 0.000000000000000000, 0.000000000000000000 ) ) ;
#811 = DIRECTION ( 'NONE',  ( -1.000000000000000000, 0.000000000000000000, 0.000000000000000000 ) ) ;
#812 = DIRECTION ( 'NONE',  ( -1.000000000000000000, 0.000000000000000000, -0.000000000000000000 ) ) ;
#813 = ORIENTED_EDGE ( 'NONE', *, *, #1101, .T. ) ;
#814 = DIRECTION ( 'NONE',  ( -1.000000000000000000, -0.000000000000000000, 0.000000000000000000 ) ) ;
#815 = CARTESIAN_POINT ( 'NONE',  ( 5.000000000000000888, -0.3904791071244824718, -9.617076014404261741 ) ) ;
#816 = CIRCLE ( 'NONE', #1057, 3.299999999998762590 ) ;
#817 = EDGE_CURVE ( 'NONE', #662, #1071, #1059, .T. ) ;
#818 = SURFACE_STYLE_FILL_AREA ( #446 ) ;
#819 = CARTESIAN_POINT ( 'NONE',  ( 5.000000000000000888, 0.000000000000000000, 0.000000000000000000 ) ) ;
#820 = AXIS2_PLACEMENT_3D ( 'NONE', #652, #467, #646 ) ;
#821 = VERTEX_POINT ( 'NONE', #605 ) ;
#822 = DIRECTION ( 'NONE',  ( -1.000000000000000000, 0.000000000000000000, -0.000000000000000000 ) ) ;
#823 = DIRECTION ( 'NONE',  ( -1.000000000000000000, -0.000000000000000000, 0.000000000000000000 ) ) ;
#824 = AXIS2_PLACEMENT_3D ( 'NONE', #544, #904, #73 ) ;
#825 = DIRECTION ( 'NONE',  ( -1.000000000000000000, -0.000000000000000000, -0.000000000000000000 ) ) ;
#826 = ADVANCED_FACE ( 'NONE', ( #899 ), #701, .T. ) ;
#827 = DIRECTION ( 'NONE',  ( 0.000000000000000000, 0.000000000000000000, -1.000000000000000000 ) ) ;
#828 = CIRCLE ( 'NONE', #1050, 3.299999999998762146 ) ;
#829 = ORIENTED_EDGE ( 'NONE', *, *, #777, .T. ) ;
#830 = CARTESIAN_POINT ( 'NONE',  ( 5.000000000000000888, -2.265878585958954528, -7.659076063845724924 ) ) ;
#831 = CARTESIAN_POINT ( 'NONE',  ( 5.000000000000000888, -4.560049202594364961E-14, 6.530249999997551846 ) ) ;
#832 = DIRECTION ( 'NONE',  ( -1.000000000000000000, 0.000000000000000000, 0.000000000000000000 ) ) ;
#833 = EDGE_CURVE ( 'NONE', #981, #789, #282, .T. ) ;
#834 = CARTESIAN_POINT ( 'NONE',  ( 5.000000000000000888, 0.000000000000000000, 0.000000000000000000 ) ) ;
#835 = CYLINDRICAL_SURFACE ( 'NONE', #320, 6.530249999997550958 ) ;
#836 = CIRCLE ( 'NONE', #768, 9.624999999996388667 ) ;
#837 = ADVANCED_FACE ( 'NONE', ( #982 ), #1167, .T. ) ;
#838 = ORIENTED_EDGE ( 'NONE', *, *, #402, .F. ) ;
#839 = CARTESIAN_POINT ( 'NONE',  ( 5.000000000000000888, 6.479074729272656263, -0.8159385485246252179 ) ) ;
#840 = FACE_OUTER_BOUND ( 'NONE', #4, .T. ) ;
#841 = VECTOR ( 'NONE', #251, 1000.000000000000000 ) ;
#842 = ORIENTED_EDGE ( 'NONE', *, *, #308, .T. ) ;
#843 = CIRCLE ( 'NONE', #704, 9.624999999996388667 ) ;
#844 = VERTEX_POINT ( 'NONE', #442 ) ;
#845 = CARTESIAN_POINT ( 'NONE',  ( 2.500000000000000444, -5.146702833619007045, -8.133392585037846345 ) ) ;
#846 = DIRECTION ( 'NONE',  ( 0.000000000000000000, -0.9659258262890654256, -0.2588190451025314531 ) ) ;
#847 =( LENGTH_UNIT ( ) NAMED_UNIT ( * ) SI_UNIT ( .MILLI., .METRE. ) );
#848 = VERTEX_POINT ( 'NONE', #56 ) ;
#849 = CARTESIAN_POINT ( 'NONE',  ( -51.41984052872972200, -4.560049202594364961E-14, 6.530249999997551846 ) ) ;
#850 = EDGE_CURVE ( 'NONE', #421, #1132, #277, .T. ) ;
#851 = ORIENTED_EDGE ( 'NONE', *, *, #266, .F. ) ;
#852 = ORIENTED_EDGE ( 'NONE', *, *, #394, .T. ) ;
#853 = DIRECTION ( 'NONE',  ( 0.000000000000000000, -0.2588190451025213501, 0.9659258262890682012 ) ) ;
#854 = FACE_OUTER_BOUND ( 'NONE', #759, .T. ) ;
#855 = EDGE_CURVE ( 'NONE', #32, #821, #618, .T. ) ;
#856 = ORIENTED_EDGE ( 'NONE', *, *, #1009, .F. ) ;
#857 = CYLINDRICAL_SURFACE ( 'NONE', #935, 1.499999999999998224 ) ;
#858 = ORIENTED_EDGE ( 'NONE', *, *, #901, .T. ) ;
#859 = DIRECTION ( 'NONE',  ( 0.000000000000000000, 0.2588190451025212391, -0.9659258262890680902 ) ) ;
#860 = ADVANCED_FACE ( 'NONE', ( #627 ), #247, .T. ) ;
#861 = ORIENTED_EDGE ( 'NONE', *, *, #551, .T. ) ;
#862 = DIRECTION ( 'NONE',  ( 0.000000000000000000, -1.325307068203333987E-17, -1.000000000000000000 ) ) ;
#863 = CYLINDRICAL_SURFACE ( 'NONE', #997, 3.299999999998762146 ) ;
#864 = ORIENTED_EDGE ( 'NONE', *, *, #91, .T. ) ;
#865 = LINE ( 'NONE', #780, #461 ) ;
#866 = ORIENTED_EDGE ( 'NONE', *, *, #728, .F. ) ;
#867 = DIRECTION ( 'NONE',  ( 0.000000000000000000, -0.2588190451025214056, 0.9659258262890680902 ) ) ;
#868 = EDGE_CURVE ( 'NONE', #930, #38, #1175, .T. ) ;
#869 = DIRECTION ( 'NONE',  ( 0.000000000000000000, 0.000000000000000000, -1.000000000000000000 ) ) ;
#870 = ORIENTED_EDGE ( 'NONE', *, *, #743, .F. ) ;
#871 = DIRECTION ( 'NONE',  ( 0.000000000000000000, 0.2588190451025213501, -0.9659258262890680902 ) ) ;
#872 = AXIS2_PLACEMENT_3D ( 'NONE', #115, #1128, #796 ) ;
#873 = EDGE_LOOP ( 'NONE', ( #63, #987, #905, #516 ) ) ;
#874 = DIRECTION ( 'NONE',  ( 0.000000000000000000, -0.2588190451025077499, -0.9659258262890717539 ) ) ;
#875 = LINE ( 'NONE', #138, #416 ) ;
#876 = AXIS2_PLACEMENT_3D ( 'NONE', #158, #622, #430 ) ;
#877 = ORIENTED_EDGE ( 'NONE', *, *, #1027, .T. ) ;
#878 = DIRECTION ( 'NONE',  ( 1.000000000000000000, 0.000000000000000000, 0.000000000000000000 ) ) ;
#879 = ORIENTED_EDGE ( 'NONE', *, *, #598, .F. ) ;
#880 = FACE_OUTER_BOUND ( 'NONE', #1143, .T. ) ;
#881 = VECTOR ( 'NONE', #122, 1000.000000000000000 ) ;
#882 = DIRECTION ( 'NONE',  ( -1.000000000000000000, 0.000000000000000000, 0.000000000000000000 ) ) ;
#883 = ORIENTED_EDGE ( 'NONE', *, *, #850, .T. ) ;
#884 = ADVANCED_FACE ( 'NONE', ( #429 ), #1065, .T. ) ;
#885 = ORIENTED_EDGE ( 'NONE', *, *, #132, .F. ) ;
#886 = DIRECTION ( 'NONE',  ( 0.000000000000000000, -0.2588190451025215166, 0.9659258262890680902 ) ) ;
#887 = CARTESIAN_POINT ( 'NONE',  ( 0.000000000000000000, -40.00000000000000711, -3.719750000002453483 ) ) ;
#888 = ORIENTED_EDGE ( 'NONE', *, *, #316, .F. ) ;
#889 = DIRECTION ( 'NONE',  ( 1.000000000000000000, -0.000000000000000000, -0.000000000000000000 ) ) ;
#890 = EDGE_CURVE ( 'NONE', #1077, #930, #836, .T. ) ;
#891 = EDGE_LOOP ( 'NONE', ( #864 ) ) ;
#892 = CARTESIAN_POINT ( 'NONE',  ( -10.00000000000000000, 0.000000000000000000, 0.000000000000000000 ) ) ;
#893 = CIRCLE ( 'NONE', #661, 9.624999999996386890 ) ;
#894 = CARTESIAN_POINT ( 'NONE',  ( 5.000000000000000888, 2.532913853686987071, -6.019012582830223224 ) ) ;
#895 = CIRCLE ( 'NONE', #270, 3.299999999998761702 ) ;
#896 = CYLINDRICAL_SURFACE ( 'NONE', #683, 6.530249999997550958 ) ;
#897 = FACE_OUTER_BOUND ( 'NONE', #754, .T. ) ;
#898 = ORIENTED_EDGE ( 'NONE', *, *, #90, .F. ) ;
#899 = FACE_OUTER_BOUND ( 'NONE', #665, .T. ) ;
#900 = AXIS2_PLACEMENT_3D ( 'NONE', #303, #500, #43 ) ;
#901 = EDGE_CURVE ( 'NONE', #948, #260, #315, .T. ) ;
#902 = LINE ( 'NONE', #887, #192 ) ;
#903 = CARTESIAN_POINT ( 'NONE',  ( 5.000000000000000888, 0.000000000000000000, 0.000000000000000000 ) ) ;
#904 = DIRECTION ( 'NONE',  ( -1.000000000000000000, 0.000000000000000000, -0.000000000000000000 ) ) ;
#905 = ORIENTED_EDGE ( 'NONE', *, *, #537, .T. ) ;
#906 = CARTESIAN_POINT ( 'NONE',  ( 0.000000000000000000, -1.867229614591092490, -7.765893733787236464 ) ) ;
#907 = DIRECTION ( 'NONE',  ( 0.000000000000000000, -0.7071067811865389130, -0.7071067811865561215 ) ) ;
#909 = EDGE_CURVE ( 'NONE', #592, #434, #48, .T. ) ;
#908 = AXIS2_PLACEMENT_3D ( 'NONE', #240, #435, #803 ) ;
#910 = CYLINDRICAL_SURFACE ( 'NONE', #612, 6.530249999997550958 ) ;
#911 = CARTESIAN_POINT ( 'NONE',  ( 5.000000000000000888, 5.203074034305588569, -3.946160875585662087 ) ) ;
#912 = AXIS2_PLACEMENT_3D ( 'NONE', #189, #175, #473 ) ;
#913 = CARTESIAN_POINT ( 'NONE',  ( 0.000000000000000000, -40.00000000000000711, -3.719750000002453039 ) ) ;
#914 = CARTESIAN_POINT ( 'NONE',  ( 0.000000000000000000, 3.946160875585790428, -5.203074034305489981 ) ) ;
#915 = EDGE_CURVE ( 'NONE', #710, #98, #1113, .T. ) ;
#916 = DIRECTION ( 'NONE',  ( -1.000000000000000000, 0.000000000000000000, -0.000000000000000000 ) ) ;
#917 = CIRCLE ( 'NONE', #572, 6.530249999997550958 ) ;
#918 = VECTOR ( 'NONE', #1130, 1000.000000000000000 ) ;
#919 = ORIENTED_EDGE ( 'NONE', *, *, #685, .T. ) ;
#920 = DIRECTION ( 'NONE',  ( 0.000000000000000000, -0.9659258262890654256, -0.2588190451025314531 ) ) ;
#921 = DIRECTION ( 'NONE',  ( 0.000000000000000000, 0.2588190451025213501, -0.9659258262890680902 ) ) ;
#922 = EDGE_CURVE ( 'NONE', #140, #538, #1131, .T. ) ;
#923 = ORIENTED_EDGE ( 'NONE', *, *, #685, .F. ) ;
#924 = DIRECTION ( 'NONE',  ( -1.000000000000000000, 0.000000000000000000, -0.000000000000000000 ) ) ;
#925 =( NAMED_UNIT ( * ) PLANE_ANGLE_UNIT ( ) SI_UNIT ( $, .RADIAN. ) );
#926 = VERTEX_POINT ( 'NONE', #1097 ) ;
#927 = EDGE_LOOP ( 'NONE', ( #866, #700, #545, #951 ) ) ;
#928 = DIRECTION ( 'NONE',  ( -1.000000000000000000, 0.000000000000000000, 0.000000000000000000 ) ) ;
#929 = CARTESIAN_POINT ( 'NONE',  ( 5.000000000000000888, 7.659076063845668969, 2.265878585959141489 ) ) ;
#930 = VERTEX_POINT ( 'NONE', #988 ) ;
#931 = CIRCLE ( 'NONE', #971, 3.299999999998762146 ) ;
#932 = ORIENTED_EDGE ( 'NONE', *, *, #674, .T. ) ;
#933 = CARTESIAN_POINT ( 'NONE',  ( 5.000000000000000888, 0.000000000000000000, 0.000000000000000000 ) ) ;
#934 = EDGE_CURVE ( 'NONE', #782, #425, #540, .T. ) ;
#935 = AXIS2_PLACEMENT_3D ( 'NONE', #206, #145, #594 ) ;
#936 = DIRECTION ( 'NONE',  ( -1.000000000000000000, -0.000000000000000000, 0.000000000000000000 ) ) ;
#937 = EDGE_LOOP ( 'NONE', ( #254, #184, #25, #55 ) ) ;
#938 = ORIENTED_EDGE ( 'NONE', *, *, #1129, .T. ) ;
#939 = DIRECTION ( 'NONE',  ( 0.000000000000000000, 0.000000000000000000, -1.000000000000000000 ) ) ;
#940 = EDGE_CURVE ( 'NONE', #92, #798, #135, .T. ) ;
#941 = CARTESIAN_POINT ( 'NONE',  ( 0.000000000000000000, 0.3904791071246815348, -9.617076014404256412 ) ) ;
#942 = CIRCLE ( 'NONE', #424, 3.299999999998761702 ) ;
#943 = ORIENTED_EDGE ( 'NONE', *, *, #200, .T. ) ;
#944 = ORIENTED_EDGE ( 'NONE', *, *, #37, .F. ) ;
#945 = CARTESIAN_POINT ( 'NONE',  ( -51.41984052872972200, -40.00000000000000711, -3.719750000002453483 ) ) ;
#946 = AXIS2_PLACEMENT_3D ( 'NONE', #11, #16, #195 ) ;
#947 = CARTESIAN_POINT ( 'NONE',  ( -10.00000000000000000, 0.000000000000000000, 0.000000000000000000 ) ) ;
#948 = VERTEX_POINT ( 'NONE', #221 ) ;
#949 = ADVANCED_FACE ( 'NONE', ( #586, #678, #502, #611 ), #514, .F. ) ;
#950 = LINE ( 'NONE', #590, #2 ) ;
#951 = ORIENTED_EDGE ( 'NONE', *, *, #1035, .F. ) ;
#952 = FACE_OUTER_BOUND ( 'NONE', #959, .T. ) ;
#953 = LINE ( 'NONE', #797, #212 ) ;
#954 = CARTESIAN_POINT ( 'NONE',  ( 0.000000000000000000, -50.00000000000000711, -5.469750000002454371 ) ) ;
#955 = EDGE_CURVE ( 'NONE', #217, #1147, #337, .T. ) ;
#956 = ORIENTED_EDGE ( 'NONE', *, *, #786, .T. ) ;
#957 = CARTESIAN_POINT ( 'NONE',  ( 0.000000000000000000, -40.00000000000000711, -5.469750000002452595 ) ) ;
#958 = CARTESIAN_POINT ( 'NONE',  ( 5.000000000000000888, 0.8159385485247850900, -6.479074729272635835 ) ) ;
#959 = EDGE_LOOP ( 'NONE', ( #395, #767, #579, #441 ) ) ;
#960 = CARTESIAN_POINT ( 'NONE',  ( 0.000000000000000000, -3.946160875585681183, -5.203074034305574358 ) ) ;
#961 = CIRCLE ( 'NONE', #383, 6.530249999997550958 ) ;
#962 = ORIENTED_EDGE ( 'NONE', *, *, #909, .T. ) ;
#963 = CARTESIAN_POINT ( 'NONE',  ( 5.000000000000000888, -40.00000000000000711, -3.719750000002453483 ) ) ;
#964 = LINE ( 'NONE', #403, #918 ) ;
#965 = VERTEX_POINT ( 'NONE', #1043 ) ;
#966 = CARTESIAN_POINT ( 'NONE',  ( 0.000000000000000000, 2.265878585959114400, -7.659076063845676074 ) ) ;
#967 = ORIENTED_EDGE ( 'NONE', *, *, #496, .T. ) ;
#968 = CARTESIAN_POINT ( 'NONE',  ( 0.000000000000000000, 0.000000000000000000, 0.000000000000000000 ) ) ;
#969 = DIRECTION ( 'NONE',  ( 0.000000000000000000, -0.2588190451025214056, 0.9659258262890680902 ) ) ;
#970 = EDGE_CURVE ( 'NONE', #844, #231, #250, .T. ) ;
#971 = AXIS2_PLACEMENT_3D ( 'NONE', #830, #76, #712 ) ;
#972 = ORIENTED_EDGE ( 'NONE', *, *, #1066, .T. ) ;
#973 = CARTESIAN_POINT ( 'NONE',  ( 5.000000000000000888, 7.765893733787216924, 1.867229614591174425 ) ) ;
#974 = ORIENTED_EDGE ( 'NONE', *, *, #272, .F. ) ;
#975 = DIRECTION ( 'NONE',  ( 0.000000000000000000, -0.2588190451025213501, 0.9659258262890680902 ) ) ;
#976 = CARTESIAN_POINT ( 'NONE',  ( 5.000000000000000888, 5.791846449254600238, -5.500015147828118067 ) ) ;
#977 = EDGE_CURVE ( 'NONE', #404, #1082, #950, .T. ) ;
#978 = ORIENTED_EDGE ( 'NONE', *, *, #91, .F. ) ;
#979 = DIRECTION ( 'NONE',  ( 0.000000000000000000, -0.2588190451025214056, 0.9659258262890680902 ) ) ;
#980 = AXIS2_PLACEMENT_3D ( 'NONE', #343, #1190, #1079 ) ;
#981 = VERTEX_POINT ( 'NONE', #960 ) ;
#982 = FACE_OUTER_BOUND ( 'NONE', #741, .T. ) ;
#983 = FACE_BOUND ( 'NONE', #121, .T. ) ;
#984 = DIRECTION ( 'NONE',  ( 0.000000000000000000, -0.2588190451025212391, 0.9659258262890680902 ) ) ;
#985 = CARTESIAN_POINT ( 'NONE',  ( 5.000000000000000888, -11.41079736710767278, 1.280249999997561172 ) ) ;
#986 = EDGE_CURVE ( 'NONE', #124, #948, #865, .T. ) ;
#987 = ORIENTED_EDGE ( 'NONE', *, *, #208, .T. ) ;
#988 = CARTESIAN_POINT ( 'NONE',  ( 0.000000000000000000, 8.523871692162375169, 4.470373180785187195 ) ) ;
#989 = CARTESIAN_POINT ( 'NONE',  ( 5.000000000000000888, 0.8159385485247850900, -6.479074729272635835 ) ) ;
#990 = AXIS2_PLACEMENT_3D ( 'NONE', #749, #284, #939 ) ;
#991 = DIRECTION ( 'NONE',  ( -1.000000000000000000, -0.000000000000000000, 0.000000000000000000 ) ) ;
#992 = CIRCLE ( 'NONE', #1141, 3.299999999998762146 ) ;
#993 = DIRECTION ( 'NONE',  ( 0.000000000000000000, 0.000000000000000000, -1.000000000000000000 ) ) ;
#994 = EDGE_CURVE ( 'NONE', #413, #782, #47, .T. ) ;
#995 = EDGE_LOOP ( 'NONE', ( #967 ) ) ;
#996 = CARTESIAN_POINT ( 'NONE',  ( 2.500000000000000444, 8.523871692162375169, 4.470373180785187195 ) ) ;
#997 = AXIS2_PLACEMENT_3D ( 'NONE', #1067, #321, #233 ) ;
#998 = DIRECTION ( 'NONE',  ( -1.000000000000000000, -0.000000000000000000, 0.000000000000000000 ) ) ;
#999 = DIRECTION ( 'NONE',  ( -1.000000000000000000, 0.000000000000000000, -0.000000000000000000 ) ) ;
#1000 = DIRECTION ( 'NONE',  ( -1.000000000000000000, 0.000000000000000000, 0.000000000000000000 ) ) ;
#1001 = CIRCLE ( 'NONE', #738, 9.624999999996386890 ) ;
#1002 = CIRCLE ( 'NONE', #53, 1.499999999999998224 ) ;
#1003 = DIRECTION ( 'NONE',  ( -1.000000000000000000, -0.000000000000000000, 0.000000000000000000 ) ) ;
#1004 = CARTESIAN_POINT ( 'NONE',  ( 5.000000000000000888, 9.617076014404258189, 0.3904791071245835021 ) ) ;
#1005 = CARTESIAN_POINT ( 'NONE',  ( 50.00005079999999680, 0.000000000000000000, 0.000000000000000000 ) ) ;
#1006 = ORIENTED_EDGE ( 'NONE', *, *, #598, .T. ) ;
#1007 = CYLINDRICAL_SURFACE ( 'NONE', #358, 3.299999999998762146 ) ;
#1008 = AXIS2_PLACEMENT_3D ( 'NONE', #619, #536, #727 ) ;
#1009 = EDGE_CURVE ( 'NONE', #1052, #651, #725, .T. ) ;
#1010 = CARTESIAN_POINT ( 'NONE',  ( -51.41984052872972200, -38.00000000000000711, 6.530249999997547405 ) ) ;
#1011 = CARTESIAN_POINT ( 'NONE',  ( 0.000000000000000000, 0.000000000000000000, 0.000000000000000000 ) ) ;
#1012 = CIRCLE ( 'NONE', #3, 6.530249999997550958 ) ;
#1013 = LINE ( 'NONE', #845, #13 ) ;
#1014 = ORIENTED_EDGE ( 'NONE', *, *, #511, .T. ) ;
#1015 = UNCERTAINTY_MEASURE_WITH_UNIT (LENGTH_MEASURE( 1.000000000000000082E-05 ), #847, 'distance_accuracy_value', 'NONE');
#1016 = ORIENTED_EDGE ( 'NONE', *, *, #360, .F. ) ;
#1017 = FACE_OUTER_BOUND ( 'NONE', #40, .T. ) ;
#1018 = LINE ( 'NONE', #475, #242 ) ;
#1019 = ORIENTED_EDGE ( 'NONE', *, *, #304, .T. ) ;
#1020 = ADVANCED_FACE ( 'NONE', ( #1138 ), #800, .T. ) ;
#1021 = ORIENTED_EDGE ( 'NONE', *, *, #444, .F. ) ;
#1022 = FACE_OUTER_BOUND ( 'NONE', #74, .T. ) ;
#1023 = DIRECTION ( 'NONE',  ( -1.000000000000000000, -0.000000000000000000, 0.000000000000000000 ) ) ;
#1024 = DIRECTION ( 'NONE',  ( 1.000000000000000000, 0.000000000000000000, 0.000000000000000000 ) ) ;
#1025 = AXIS2_PLACEMENT_3D ( 'NONE', #773, #412, #788 ) ;
#1026 = VERTEX_POINT ( 'NONE', #1051 ) ;
#1027 = EDGE_CURVE ( 'NONE', #538, #688, #781, .T. ) ;
#1028 = VERTEX_POINT ( 'NONE', #420 ) ;
#1029 = FACE_OUTER_BOUND ( 'NONE', #143, .T. ) ;
#1030 =( NAMED_UNIT ( * ) PLANE_ANGLE_UNIT ( ) SI_UNIT ( $, .RADIAN. ) );
#1031 = EDGE_LOOP ( 'NONE', ( #1094 ) ) ;
#1032 = ORIENTED_EDGE ( 'NONE', *, *, #223, .T. ) ;
#1033 = DIRECTION ( 'NONE',  ( 0.000000000000000000, 0.000000000000000000, -1.000000000000000000 ) ) ;
#1034 = DIRECTION ( 'NONE',  ( -1.000000000000000000, 0.000000000000000000, 0.000000000000000000 ) ) ;
#1035 = EDGE_CURVE ( 'NONE', #150, #753, #794, .T. ) ;
#1036 = ORIENTED_EDGE ( 'NONE', *, *, #970, .F. ) ;
#1037 = ORIENTED_EDGE ( 'NONE', *, *, #1040, .T. ) ;
#1038 = CARTESIAN_POINT ( 'NONE',  ( -10.00000000000000000, 0.000000000000000000, 0.000000000000000000 ) ) ;
#1039 = FACE_OUTER_BOUND ( 'NONE', #20, .T. ) ;
#1040 = EDGE_CURVE ( 'NONE', #1124, #930, #491, .T. ) ;
#1041 = EDGE_LOOP ( 'NONE', ( #87, #275, #1014, #59 ) ) ;
#1042 = AXIS2_PLACEMENT_3D ( 'NONE', #60, #172, #549 ) ;
#1043 = CARTESIAN_POINT ( 'NONE',  ( 0.000000000000000000, -4.470373180785099265, -8.523871692162421354 ) ) ;
#1044 = ORIENTED_EDGE ( 'NONE', *, *, #728, .T. ) ;
#1045 = CARTESIAN_POINT ( 'NONE',  ( 5.000000000000000888, 0.000000000000000000, 0.000000000000000000 ) ) ;
#1046 = VECTOR ( 'NONE', #737, 1000.000000000000000 ) ;
#1047 = FACE_OUTER_BOUND ( 'NONE', #620, .T. ) ;
#1048 = VECTOR ( 'NONE', #1152, 1000.000000000000000 ) ;
#1049 = VERTEX_POINT ( 'NONE', #39 ) ;
#1050 = AXIS2_PLACEMENT_3D ( 'NONE', #929, #379, #285 ) ;
#1051 = CARTESIAN_POINT ( 'NONE',  ( 0.000000000000000000, 5.146702833619178463, -8.133392585037739764 ) ) ;
#1052 = VERTEX_POINT ( 'NONE', #331 ) ;
#1053 = DIRECTION ( 'NONE',  ( 0.000000000000000000, 1.000000000000000000, -1.325307068203333987E-17 ) ) ;
#1054 = FACE_OUTER_BOUND ( 'NONE', #656, .T. ) ;
#1055 = ORIENTED_EDGE ( 'NONE', *, *, #112, .F. ) ;
#1056 = DIRECTION ( 'NONE',  ( -1.000000000000000000, 0.000000000000000000, -0.000000000000000000 ) ) ;
#1057 = AXIS2_PLACEMENT_3D ( 'NONE', #125, #505, #407 ) ;
#1058 = ADVANCED_FACE ( 'NONE', ( #399 ), #1070, .T. ) ;
#1059 = LINE ( 'NONE', #41, #1154 ) ;
#1060 = DIRECTION ( 'NONE',  ( -1.000000000000000000, -0.000000000000000000, 0.000000000000000000 ) ) ;
#1061 = EDGE_LOOP ( 'NONE', ( #1150, #1111, #1006, #842 ) ) ;
#1062 = DIRECTION ( 'NONE',  ( 0.000000000000000000, 0.7071067811865486830, -0.7071067811865463515 ) ) ;
#1063 = AXIS2_PLACEMENT_3D ( 'NONE', #692, #1056, #1133 ) ;
#1064 = ORIENTED_EDGE ( 'NONE', *, *, #496, .F. ) ;
#1065 = CYLINDRICAL_SURFACE ( 'NONE', #14, 9.624999999996388667 ) ;
#1066 = EDGE_CURVE ( 'NONE', #38, #1052, #190, .T. ) ;
#1067 = CARTESIAN_POINT ( 'NONE',  ( 5.000000000000000888, -2.265878585958954528, -7.659076063845724924 ) ) ;
#1068 = AXIS2_PLACEMENT_3D ( 'NONE', #1095, #1169, #261 ) ;
#1069 = ORIENTED_EDGE ( 'NONE', *, *, #366, .T. ) ;
#1070 = CYLINDRICAL_SURFACE ( 'NONE', #1025, 6.530249999997550958 ) ;
#1071 = VERTEX_POINT ( 'NONE', #1191 ) ;
#1072 = CARTESIAN_POINT ( 'NONE',  ( 0.000000000000000000, 0.000000000000000000, 0.000000000000000000 ) ) ;
#1073 = CARTESIAN_POINT ( 'NONE',  ( 0.000000000000000000, -4.560049202594364961E-14, 6.530249999997551846 ) ) ;
#1074 = EDGE_CURVE ( 'NONE', #124, #421, #1198, .T. ) ;
#1075 = CARTESIAN_POINT ( 'NONE',  ( 5.000000000000000888, 0.000000000000000000, 0.000000000000000000 ) ) ;
#1076 = CARTESIAN_POINT ( 'NONE',  ( 5.000000000000000888, 0.000000000000000000, 0.000000000000000000 ) ) ;
#1077 = VERTEX_POINT ( 'NONE', #1185 ) ;
#1078 = CARTESIAN_POINT ( 'NONE',  ( 5.000000000000000888, 0.3904791071246832557, -9.617076014404254636 ) ) ;
#1079 = DIRECTION ( 'NONE',  ( 0.000000000000000000, 0.7071067811865487940, -0.7071067811865463515 ) ) ;
#1080 = ADVANCED_FACE ( 'NONE', ( #338 ), #149, .T. ) ;
#1081 = DIRECTION ( 'NONE',  ( 0.000000000000000000, 0.000000000000000000, 1.000000000000000000 ) ) ;
#1082 = VERTEX_POINT ( 'NONE', #734 ) ;
#1083 = DIRECTION ( 'NONE',  ( 0.000000000000000000, -0.7071067811865389130, -0.7071067811865562325 ) ) ;
#1084 = CARTESIAN_POINT ( 'NONE',  ( -51.41984052872972200, -8.780476101602637584, -11.57719329075979076 ) ) ;
#1085 = CIRCLE ( 'NONE', #872, 7.999999999999992895 ) ;
#1086 = CARTESIAN_POINT ( 'NONE',  ( 5.000000000000000888, 0.000000000000000000, 0.000000000000000000 ) ) ;
#1087 = CARTESIAN_POINT ( 'NONE',  ( 5.000000000000000888, 5.203074034305531725, 3.946160875585734917 ) ) ;
#1088 = ORIENTED_EDGE ( 'NONE', *, *, #637, .T. ) ;
#1089 = FACE_OUTER_BOUND ( 'NONE', #927, .T. ) ;
#1090 = CARTESIAN_POINT ( 'NONE',  ( 5.000000000000000888, 5.500015147828178463, 5.791846449254543394 ) ) ;
#1091 = DIRECTION ( 'NONE',  ( 1.000000000000000000, 0.000000000000000000, 0.000000000000000000 ) ) ;
#1092 = AXIS2_PLACEMENT_3D ( 'NONE', #552, #548, #629 ) ;
#1093 = EDGE_CURVE ( 'NONE', #384, #128, #705, .T. ) ;
#1094 = ORIENTED_EDGE ( 'NONE', *, *, #743, .T. ) ;
#1095 = CARTESIAN_POINT ( 'NONE',  ( -51.41984052872972200, -38.00000000000000711, -5.469750000002452595 ) ) ;
#1096 = DIRECTION ( 'NONE',  ( -1.000000000000000000, -0.000000000000000000, 0.000000000000000000 ) ) ;
#1097 = CARTESIAN_POINT ( 'NONE',  ( 5.000000000000000888, -36.41079736710766923, -0.2197500000024423805 ) ) ;
#1098 = VECTOR ( 'NONE', #928, 1000.000000000000000 ) ;
#1099 = ORIENTED_EDGE ( 'NONE', *, *, #90, .T. ) ;
#1100 = DIRECTION ( 'NONE',  ( -1.000000000000000000, 0.000000000000000000, 0.000000000000000000 ) ) ;
#1101 = EDGE_CURVE ( 'NONE', #1132, #163, #359, .T. ) ;
#1102 = CYLINDRICAL_SURFACE ( 'NONE', #597, 9.624999999996388667 ) ;
#1103 = CARTESIAN_POINT ( 'NONE',  ( 0.000000000000000000, -36.41079736710766923, -0.2197500000024423805 ) ) ;
#1104 = ORIENTED_EDGE ( 'NONE', *, *, #1145, .T. ) ;
#1105 = CARTESIAN_POINT ( 'NONE',  ( 5.000000000000000888, 3.946160875585790428, -5.203074034305490869 ) ) ;
#1106 = DIRECTION ( 'NONE',  ( -1.000000000000000000, 0.000000000000000000, -0.000000000000000000 ) ) ;
#1107 = AXIS2_PLACEMENT_3D ( 'NONE', #164, #69, #886 ) ;
#1108 = EDGE_CURVE ( 'NONE', #844, #98, #553, .T. ) ;
#1109 = VERTEX_POINT ( 'NONE', #649 ) ;
#1110 = ORIENTED_EDGE ( 'NONE', *, *, #37, .T. ) ;
#1111 = ORIENTED_EDGE ( 'NONE', *, *, #511, .F. ) ;
#1112 = CYLINDRICAL_SURFACE ( 'NONE', #78, 6.530249999997550958 ) ;
#1113 = CIRCLE ( 'NONE', #908, 6.530249999997550070 ) ;
#1114 = CYLINDRICAL_SURFACE ( 'NONE', #438, 3.299999999998761702 ) ;
#1115 = ORIENTED_EDGE ( 'NONE', *, *, #934, .T. ) ;
#1116 = ADVANCED_FACE ( 'NONE', ( #527, #440 ), #161, .F. ) ;
#1117 = AXIS2_PLACEMENT_3D ( 'NONE', #1193, #1100, #297 ) ;
#1118 = ORIENTED_EDGE ( 'NONE', *, *, #360, .T. ) ;
#1119 = FACE_OUTER_BOUND ( 'NONE', #587, .T. ) ;
#1120 = DIRECTION ( 'NONE',  ( 0.000000000000000000, -0.2588190451025215166, 0.9659258262890680902 ) ) ;
#1121 = ORIENTED_EDGE ( 'NONE', *, *, #693, .T. ) ;
#1122 = AXIS2_PLACEMENT_3D ( 'NONE', #152, #550, #455 ) ;
#1123 = EDGE_CURVE ( 'NONE', #753, #130, #512, .T. ) ;
#1124 = VERTEX_POINT ( 'NONE', #258 ) ;
#1125 = CARTESIAN_POINT ( 'NONE',  ( 5.000000000000000888, -0.8159385485246484215, -6.479074729272652711 ) ) ;
#1126 = VERTEX_POINT ( 'NONE', #625 ) ;
#1127 = ORIENTED_EDGE ( 'NONE', *, *, #188, .F. ) ;
#1128 = DIRECTION ( 'NONE',  ( 1.000000000000000000, 0.000000000000000000, 0.000000000000000000 ) ) ;
#1129 = EDGE_CURVE ( 'NONE', #1109, #1109, #100, .T. ) ;
#1130 = DIRECTION ( 'NONE',  ( 1.000000000000000000, -0.000000000000000000, -0.000000000000000000 ) ) ;
#1131 = CIRCLE ( 'NONE', #94, 3.299999999998762146 ) ;
#1132 = VERTEX_POINT ( 'NONE', #631 ) ;
#1133 = DIRECTION ( 'NONE',  ( 0.000000000000000000, 0.2588190451025212391, -0.9659258262890680902 ) ) ;
#1134 = ORIENTED_EDGE ( 'NONE', *, *, #693, .F. ) ;
#1135 = DIRECTION ( 'NONE',  ( 0.000000000000000000, -0.7071067811865388020, -0.7071067811865563435 ) ) ;
#1136 = ORIENTED_EDGE ( 'NONE', *, *, #1192, .F. ) ;
#1137 = AXIS2_PLACEMENT_3D ( 'NONE', #448, #350, #292 ) ;
#1138 = FACE_OUTER_BOUND ( 'NONE', #1041, .T. ) ;
#1139 = ORIENTED_EDGE ( 'NONE', *, *, #402, .T. ) ;
#1140 = CARTESIAN_POINT ( 'NONE',  ( 2.500000000000000444, 5.146702833619178463, -8.133392585037739764 ) ) ;
#1141 = AXIS2_PLACEMENT_3D ( 'NONE', #166, #1003, #907 ) ;
#1142 = DIRECTION ( 'NONE',  ( 0.000000000000000000, -0.2588190451025212391, 0.9659258262890680902 ) ) ;
#1143 = EDGE_LOOP ( 'NONE', ( #322, #617, #119, #771 ) ) ;
#1144 = CIRCLE ( 'NONE', #457, 9.624999999996388667 ) ;
#1145 = EDGE_CURVE ( 'NONE', #260, #421, #715, .T. ) ;
#1146 = CARTESIAN_POINT ( 'NONE',  ( 0.000000000000000000, 0.000000000000000000, 0.000000000000000000 ) ) ;
#1147 = VERTEX_POINT ( 'NONE', #1178 ) ;
#1148 = CARTESIAN_POINT ( 'NONE',  ( 5.000000000000000888, -7.276951930685354064, -3.719750000002458812 ) ) ;
#1149 = CARTESIAN_POINT ( 'NONE',  ( -51.41984052872972200, -40.00000000000000711, -3.719750000002453483 ) ) ;
#1150 = ORIENTED_EDGE ( 'NONE', *, *, #183, .F. ) ;
#1151 = AXIS2_PLACEMENT_3D ( 'NONE', #640, #825, #921 ) ;
#1152 = DIRECTION ( 'NONE',  ( -1.000000000000000000, 0.000000000000000000, 0.000000000000000000 ) ) ;
#1153 = ADVANCED_FACE ( 'NONE', ( #636, #80 ), #740, .F. ) ;
#1154 = VECTOR ( 'NONE', #226, 1000.000000000000000 ) ;
#1155 = ORIENTED_EDGE ( 'NONE', *, *, #801, .T. ) ;
#1156 = LINE ( 'NONE', #963, #281 ) ;
#1157 = CARTESIAN_POINT ( 'NONE',  ( 2.500000000000000444, 0.3904791071246815348, -9.617076014404256412 ) ) ;
#1158 = DIRECTION ( 'NONE',  ( 0.000000000000000000, -0.2588190451025215166, 0.9659258262890680902 ) ) ;
#1159 = AXIS2_PLACEMENT_3D ( 'NONE', #363, #85, #827 ) ;
#1160 = ORIENTED_EDGE ( 'NONE', *, *, #259, .T. ) ;
#1161 = CARTESIAN_POINT ( 'NONE',  ( 5.000000000000000888, -5.791846449254485663, -5.500015147828237971 ) ) ;
#1162 = EDGE_CURVE ( 'NONE', #434, #418, #893, .T. ) ;
#1163 = CARTESIAN_POINT ( 'NONE',  ( 0.000000000000000000, 9.617076014404265294, -0.3904791071244464451 ) ) ;
#1164 = ORIENTED_EDGE ( 'NONE', *, *, #747, .T. ) ;
#1165 = CARTESIAN_POINT ( 'NONE',  ( -10.00000000000000000, 0.000000000000000000, 0.000000000000000000 ) ) ;
#1166 = ORIENTED_EDGE ( 'NONE', *, *, #922, .T. ) ;
#1167 = CYLINDRICAL_SURFACE ( 'NONE', #1107, 3.299999999998762146 ) ;
#1168 = AXIS2_PLACEMENT_3D ( 'NONE', #906, #232, #621 ) ;
#1169 = DIRECTION ( 'NONE',  ( 1.000000000000000000, 0.000000000000000000, 0.000000000000000000 ) ) ;
#1170 = ADVANCED_FACE ( 'NONE', ( #897 ), #237, .T. ) ;
#1171 = CARTESIAN_POINT ( 'NONE',  ( 2.500000000000000444, -4.470373180785099265, -8.523871692162421354 ) ) ;
#1172 = DIRECTION ( 'NONE',  ( 0.000000000000000000, -0.2588190451025214056, 0.9659258262890680902 ) ) ;
#1173 = AXIS2_PLACEMENT_3D ( 'NONE', #903, #95, #101 ) ;
#1174 = ORIENTED_EDGE ( 'NONE', *, *, #786, .F. ) ;
#1175 = LINE ( 'NONE', #996, #222 ) ;
#1176 = CARTESIAN_POINT ( 'NONE',  ( 5.000000000000000888, 7.765893733787216924, 1.867229614591174425 ) ) ;
#1177 = FACE_OUTER_BOUND ( 'NONE', #283, .T. ) ;
#1178 = CARTESIAN_POINT ( 'NONE',  ( 0.000000000000000000, -0.3904791071244803069, -9.617076014404263518 ) ) ;
#1179 = ORIENTED_EDGE ( 'NONE', *, *, #474, .F. ) ;
#1180 = DIRECTION ( 'NONE',  ( 0.000000000000000000, -0.2588190451025214056, 0.9659258262890680902 ) ) ;
#1181 = AXIS2_PLACEMENT_3D ( 'NONE', #985, #1091, #154 ) ;
#1182 = DIRECTION ( 'NONE',  ( 0.000000000000000000, -0.2588190451025078609, -0.9659258262890717539 ) ) ;
#1183 = DIRECTION ( 'NONE',  ( -1.000000000000000000, -0.000000000000000000, 0.000000000000000000 ) ) ;
#1184 = CIRCLE ( 'NONE', #876, 1.500000000000001776 ) ;
#1185 = CARTESIAN_POINT ( 'NONE',  ( 0.000000000000000000, 8.133392585037793054, 5.146702833619093198 ) ) ;
#1186 = VECTOR ( 'NONE', #176, 1000.000000000000000 ) ;
#1187 = EDGE_CURVE ( 'NONE', #926, #926, #804, .T. ) ;
#1188 = ORIENTED_EDGE ( 'NONE', *, *, #427, .F. ) ;
#1189 = DIRECTION ( 'NONE',  ( -1.000000000000000000, -0.000000000000000000, 0.000000000000000000 ) ) ;
#1190 = DIRECTION ( 'NONE',  ( -1.000000000000000000, 0.000000000000000000, 0.000000000000000000 ) ) ;
#1191 = CARTESIAN_POINT ( 'NONE',  ( 5.000000000000000888, -40.00000000000000711, -5.469750000002452595 ) ) ;
#1192 = EDGE_CURVE ( 'NONE', #128, #1147, #269, .T. ) ;
#1193 = CARTESIAN_POINT ( 'NONE',  ( 0.000000000000000000, 0.000000000000000000, 0.000000000000000000 ) ) ;
#1194 = LINE ( 'NONE', #105, #264 ) ;
#1195 = ORIENTED_EDGE ( 'NONE', *, *, #606, .T. ) ;
#1196 = FACE_BOUND ( 'NONE', #695, .T. ) ;
#1197 = EDGE_CURVE ( 'NONE', #1049, #404, #745, .T. ) ;
#1198 = CIRCLE ( 'NONE', #155, 9.624999999996386890 ) ;
#1199 = DIRECTION ( 'NONE',  ( -1.000000000000000000, -0.000000000000000000, 0.000000000000000000 ) ) ;
ENDSEC;
END-ISO-10303-21;
