ISO-10303-21;
HEADER;
FILE_DESCRIPTION (( 'STEP AP214' ),
    '1' );
FILE_NAME ('Part 2 T307.STEP',
    '2025-07-29T15:59:08',
    ( '' ),
    ( '' ),
    'SwSTEP 2.0',
    'SolidWorks 2025',
    '' );
FILE_SCHEMA (( 'AUTOMOTIVE_DESIGN' ));
ENDSEC;

DATA;
#1 = CARTESIAN_POINT ( 'NONE',  ( 5.000000000000000888, 6.811646843644814098, -4.170985398625307816 ) ) ;
#2 = ORIENTED_EDGE ( 'NONE', *, *, #1030, .T. ) ;
#3 = VECTOR ( 'NONE', #90, 1000.000000000000000 ) ;
#4 = MECHANICAL_DESIGN_GEOMETRIC_PRESENTATION_REPRESENTATION (  '', ( #574 ), #892 ) ;
#5 = ORIENTED_EDGE ( 'NONE', *, *, #1169, .T. ) ;
#6 = ADVANCED_FACE ( 'NONE', ( #171 ), #882, .T. ) ;
#7 = DIRECTION ( 'NONE',  ( 1.000000000000000000, 0.000000000000000000, 0.000000000000000000 ) ) ;
#8 = DIRECTION ( 'NONE',  ( -1.000000000000000000, -0.000000000000000000, 0.000000000000000000 ) ) ;
#9 = ORIENTED_EDGE ( 'NONE', *, *, #1148, .F. ) ;
#10 = LINE ( 'NONE', #409, #550 ) ;
#11 = DIRECTION ( 'NONE',  ( -1.000000000000000000, 0.000000000000000000, 0.000000000000000000 ) ) ;
#12 = LINE ( 'NONE', #519, #1072 ) ;
#13 = CIRCLE ( 'NONE', #83, 9.624999999996390443 ) ;
#14 = VECTOR ( 'NONE', #942, 1000.000000000000000 ) ;
#15 = EDGE_LOOP ( 'NONE', ( #342, #54, #1091, #520 ) ) ;
#16 = CARTESIAN_POINT ( 'NONE',  ( -26.92006357444247655, 9.641410180234535332, -6.517999435749656456 ) ) ;
#17 = FACE_OUTER_BOUND ( 'NONE', #235, .T. ) ;
#18 = AXIS2_PLACEMENT_3D ( 'NONE', #1133, #316, #843 ) ;
#19 = CARTESIAN_POINT ( 'NONE',  ( 0.000000000000000000, -2.111908576528576109, 9.390445525336675203 ) ) ;
#20 = ORIENTED_EDGE ( 'NONE', *, *, #1123, .T. ) ;
#21 = EDGE_CURVE ( 'NONE', #493, #639, #477, .T. ) ;
#22 = ORIENTED_EDGE ( 'NONE', *, *, #624, .T. ) ;
#23 = CYLINDRICAL_SURFACE ( 'NONE', #678, 17.47534511765833187 ) ;
#24 = FACE_OUTER_BOUND ( 'NONE', #528, .T. ) ;
#25 = DIRECTION ( 'NONE',  ( 1.000000000000000000, 0.000000000000000000, 0.000000000000000000 ) ) ;
#26 = ORIENTED_EDGE ( 'NONE', *, *, #303, .F. ) ;
#27 = CARTESIAN_POINT ( 'NONE',  ( 5.000000000000000888, 0.8887718178933601276, 6.469486047452807753 ) ) ;
#28 = ADVANCED_FACE ( 'NONE', ( #670 ), #791, .T. ) ;
#29 = VERTEX_POINT ( 'NONE', #284 ) ;
#30 = CARTESIAN_POINT ( 'NONE',  ( 5.000000000000000888, 0.2063558922010357843, 7.984551907517152713 ) ) ;
#31 = VECTOR ( 'NONE', #623, 1000.000000000000000 ) ;
#32 = DIRECTION ( 'NONE',  ( -1.000000000000000000, 0.000000000000000000, 0.000000000000000000 ) ) ;
#33 = CARTESIAN_POINT ( 'NONE',  ( -51.41984052872976463, -38.00000000000000711, 5.469750000002448154 ) ) ;
#34 = ORIENTED_EDGE ( 'NONE', *, *, #902, .F. ) ;
#35 = CARTESIAN_POINT ( 'NONE',  ( 0.000000000000000000, 4.004441996189736841, 5.158353357576425324 ) ) ;
#36 = ORIENTED_EDGE ( 'NONE', *, *, #1107, .F. ) ;
#37 = CYLINDRICAL_SURFACE ( 'NONE', #659, 6.530249999997550958 ) ;
#38 = CARTESIAN_POINT ( 'NONE',  ( 5.000000000000000888, -4.170985398625330909, 6.811646843644798999 ) ) ;
#39 = EDGE_CURVE ( 'NONE', #1276, #460, #683, .T. ) ;
#40 = VERTEX_POINT ( 'NONE', #313 ) ;
#41 = AXIS2_PLACEMENT_3D ( 'NONE', #594, #798, #706 ) ;
#42 = ORIENTED_EDGE ( 'NONE', *, *, #159, .F. ) ;
#43 = FACE_OUTER_BOUND ( 'NONE', #466, .T. ) ;
#44 = ORIENTED_EDGE ( 'NONE', *, *, #965, .T. ) ;
#45 = CARTESIAN_POINT ( 'NONE',  ( 0.000000000000000000, 0.000000000000000000, 0.000000000000000000 ) ) ;
#46 = AXIS2_PLACEMENT_3D ( 'NONE', #894, #585, #383 ) ;
#47 = DIRECTION ( 'NONE',  ( 0.000000000000000000, 1.000000000000000000, -1.734723475976806848E-16 ) ) ;
#48 = CIRCLE ( 'NONE', #1178, 3.299999999998762146 ) ;
#49 = EDGE_CURVE ( 'NONE', #315, #839, #875, .T. ) ;
#50 = DIRECTION ( 'NONE',  ( -1.000000000000000000, 0.000000000000000000, 0.000000000000000000 ) ) ;
#51 = ORIENTED_EDGE ( 'NONE', *, *, #1225, .T. ) ;
#52 = CARTESIAN_POINT ( 'NONE',  ( 0.000000000000000000, 6.524189240412276547, 7.076410089531218972 ) ) ;
#53 = AXIS2_PLACEMENT_3D ( 'NONE', #762, #928, #427 ) ;
#54 = ORIENTED_EDGE ( 'NONE', *, *, #388, .T. ) ;
#55 = CYLINDRICAL_SURFACE ( 'NONE', #331, 9.624999999996390443 ) ;
#56 = VERTEX_POINT ( 'NONE', #425 ) ;
#57 = ORIENTED_EDGE ( 'NONE', *, *, #512, .F. ) ;
#58 = AXIS2_PLACEMENT_3D ( 'NONE', #178, #984, #597 ) ;
#59 = AXIS2_PLACEMENT_3D ( 'NONE', #232, #543, #946 ) ;
#60 = CARTESIAN_POINT ( 'NONE',  ( 0.000000000000000000, -40.00000000000000711, 3.719750000002449042 ) ) ;
#61 = ORIENTED_EDGE ( 'NONE', *, *, #476, .T. ) ;
#62 = DIRECTION ( 'NONE',  ( 0.000000000000000000, 0.000000000000000000, -1.000000000000000000 ) ) ;
#63 = DIRECTION ( 'NONE',  ( 0.000000000000000000, 0.000000000000000000, 1.000000000000000000 ) ) ;
#64 = VECTOR ( 'NONE', #1295, 1000.000000000000000 ) ;
#65 = ORIENTED_EDGE ( 'NONE', *, *, #1216, .F. ) ;
#66 = CYLINDRICAL_SURFACE ( 'NONE', #943, 3.299999999998762146 ) ;
#67 = CIRCLE ( 'NONE', #166, 3.299999999998762146 ) ;
#68 = EDGE_CURVE ( 'NONE', #650, #307, #339, .T. ) ;
#69 = ORIENTED_EDGE ( 'NONE', *, *, #204, .T. ) ;
#70 = DIRECTION ( 'NONE',  ( -1.000000000000000000, -0.000000000000000000, -0.000000000000000000 ) ) ;
#71 = DIRECTION ( 'NONE',  ( 0.000000000000000000, 0.000000000000000000, -1.000000000000000000 ) ) ;
#72 = ORIENTED_EDGE ( 'NONE', *, *, #1018, .F. ) ;
#73 = EDGE_LOOP ( 'NONE', ( #950, #457, #566, #542 ) ) ;
#74 = CARTESIAN_POINT ( 'NONE',  ( 0.000000000000000000, 7.469991942955002351, -8.783273047937818490 ) ) ;
#75 = DIRECTION ( 'NONE',  ( -0.000000000000000000, 1.380677628100161499E-17, 1.000000000000000000 ) ) ;
#76 = ORIENTED_EDGE ( 'NONE', *, *, #125, .F. ) ;
#77 = CIRCLE ( 'NONE', #1081, 3.500000000000000000 ) ;
#78 = DIRECTION ( 'NONE',  ( 0.000000000000000000, 0.5000000000000009992, -0.8660254037844379305 ) ) ;
#79 = VERTEX_POINT ( 'NONE', #1296 ) ;
#80 = CARTESIAN_POINT ( 'NONE',  ( 5.000000000000000888, 0.000000000000000000, 0.000000000000000000 ) ) ;
#81 = CARTESIAN_POINT ( 'NONE',  ( 0.000000000000000000, 0.000000000000000000, 0.000000000000000000 ) ) ;
#82 = ADVANCED_FACE ( 'NONE', ( #99 ), #796, .T. ) ;
#83 = AXIS2_PLACEMENT_3D ( 'NONE', #81, #169, #887 ) ;
#84 = ORIENTED_EDGE ( 'NONE', *, *, #837, .T. ) ;
#85 = CARTESIAN_POINT ( 'NONE',  ( 5.000000000000000888, 5.158353357576410225, 4.004441996189754605 ) ) ;
#86 = CIRCLE ( 'NONE', #1211, 3.299999999998762590 ) ;
#87 = DIRECTION ( 'NONE',  ( 1.000000000000000000, -0.000000000000000000, -0.000000000000000000 ) ) ;
#88 = DIRECTION ( 'NONE',  ( -1.000000000000000000, 0.000000000000000000, 0.000000000000000000 ) ) ;
#89 = ADVANCED_FACE ( 'NONE', ( #1000 ), #806, .T. ) ;
#90 = DIRECTION ( 'NONE',  ( -1.000000000000000000, 0.000000000000000000, -0.000000000000000000 ) ) ;
#91 = CIRCLE ( 'NONE', #1263, 6.530249999997550958 ) ;
#92 = PRESENTATION_STYLE_ASSIGNMENT (( #794 ) ) ;
#93 = ORIENTED_EDGE ( 'NONE', *, *, #130, .F. ) ;
#94 = FACE_OUTER_BOUND ( 'NONE', #989, .T. ) ;
#95 = ADVANCED_FACE ( 'NONE', ( #814 ), #802, .T. ) ;
#96 = ORIENTED_EDGE ( 'NONE', *, *, #959, .T. ) ;
#97 = DIRECTION ( 'NONE',  ( -1.000000000000000000, 0.000000000000000000, 0.000000000000000000 ) ) ;
#98 = CIRCLE ( 'NONE', #955, 3.299999999998762146 ) ;
#99 = FACE_OUTER_BOUND ( 'NONE', #310, .T. ) ;
#100 = LINE ( 'NONE', #907, #1189 ) ;
#101 = EDGE_LOOP ( 'NONE', ( #810, #1130, #819, #1179 ) ) ;
#102 = ADVANCED_FACE ( 'NONE', ( #1014 ), #403, .T. ) ;
#103 = VERTEX_POINT ( 'NONE', #1303 ) ;
#104 = DIRECTION ( 'NONE',  ( 1.000000000000000000, -0.000000000000000000, 0.000000000000000000 ) ) ;
#105 = CARTESIAN_POINT ( 'NONE',  ( 0.000000000000000000, 6.469486047452805089, -0.8887718178933826652 ) ) ;
#106 = DIRECTION ( 'NONE',  ( 1.000000000000000000, -0.000000000000000000, 0.000000000000000000 ) ) ;
#107 = ORIENTED_EDGE ( 'NONE', *, *, #1012, .F. ) ;
#108 = ORIENTED_EDGE ( 'NONE', *, *, #283, .F. ) ;
#109 = DIRECTION ( 'NONE',  ( -1.000000000000000000, 0.000000000000000000, -0.000000000000000000 ) ) ;
#110 = CARTESIAN_POINT ( 'NONE',  ( 5.000000000000000888, 0.000000000000000000, 0.000000000000000000 ) ) ;
#111 = DIRECTION ( 'NONE',  ( 0.000000000000000000, 0.000000000000000000, 1.000000000000000000 ) ) ;
#112 = VERTEX_POINT ( 'NONE', #526 ) ;
#113 = ORIENTED_EDGE ( 'NONE', *, *, #890, .F. ) ;
#114 = CARTESIAN_POINT ( 'NONE',  ( 5.000000000000000888, 2.465044051263041158, 6.047125175469805214 ) ) ;
#115 = CARTESIAN_POINT ( 'NONE',  ( 0.000000000000000000, 0.000000000000000000, 0.000000000000000000 ) ) ;
#116 = VECTOR ( 'NONE', #668, 1000.000000000000000 ) ;
#117 = EDGE_CURVE ( 'NONE', #439, #439, #807, .T. ) ;
#118 = CARTESIAN_POINT ( 'NONE',  ( 5.000000000000000888, 2.111908576528508164, 9.390445525336687638 ) ) ;
#119 = ORIENTED_EDGE ( 'NONE', *, *, #754, .T. ) ;
#120 = ORIENTED_EDGE ( 'NONE', *, *, #1271, .T. ) ;
#121 = DIRECTION ( 'NONE',  ( 0.000000000000000000, 0.000000000000000000, 1.000000000000000000 ) ) ;
#122 = CIRCLE ( 'NONE', #373, 6.530249999997550958 ) ;
#123 = DIRECTION ( 'NONE',  ( 0.000000000000000000, 0.000000000000000000, 1.000000000000000000 ) ) ;
#124 = VERTEX_POINT ( 'NONE', #1241 ) ;
#125 = EDGE_CURVE ( 'NONE', #551, #966, #1063, .T. ) ;
#126 = ORIENTED_EDGE ( 'NONE', *, *, #663, .F. ) ;
#127 = DIRECTION ( 'NONE',  ( 0.000000000000000000, -6.982962677686266711E-15, 1.000000000000000000 ) ) ;
#128 = ORIENTED_EDGE ( 'NONE', *, *, #468, .F. ) ;
#129 = DIRECTION ( 'NONE',  ( 1.000000000000000000, 0.000000000000000000, 0.000000000000000000 ) ) ;
#130 = EDGE_CURVE ( 'NONE', #1254, #854, #515, .T. ) ;
#131 = ORIENTED_EDGE ( 'NONE', *, *, #1198, .F. ) ;
#132 = CARTESIAN_POINT ( 'NONE',  ( 0.000000000000000000, -2.465044051263084235, 6.047125175469786562 ) ) ;
#133 = VECTOR ( 'NONE', #259, 1000.000000000000000 ) ;
#134 = DIRECTION ( 'NONE',  ( -1.000000000000000000, 0.000000000000000000, -0.000000000000000000 ) ) ;
#135 = APPLICATION_PROTOCOL_DEFINITION ( 'draft international standard', 'automotive_design', 1998, #1188 ) ;
#136 = ORIENTED_EDGE ( 'NONE', *, *, #606, .T. ) ;
#137 = LINE ( 'NONE', #336, #490 ) ;
#138 = ORIENTED_EDGE ( 'NONE', *, *, #783, .T. ) ;
#139 = CARTESIAN_POINT ( 'NONE',  ( 0.000000000000000000, 9.641410180234535332, -14.65591621273182454 ) ) ;
#140 = EDGE_CURVE ( 'NONE', #739, #1166, #495, .T. ) ;
#141 = FACE_OUTER_BOUND ( 'NONE', #321, .T. ) ;
#142 = VERTEX_POINT ( 'NONE', #847 ) ;
#143 = CIRCLE ( 'NONE', #323, 3.299999999998762146 ) ;
#144 = EDGE_LOOP ( 'NONE', ( #995, #864, #2, #196 ) ) ;
#145 = DIRECTION ( 'NONE',  ( 0.000000000000000000, 0.000000000000000000, 1.000000000000000000 ) ) ;
#146 = ORIENTED_EDGE ( 'NONE', *, *, #689, .T. ) ;
#147 = CARTESIAN_POINT ( 'NONE',  ( 5.000000000000000888, -38.00000000000000711, -6.530249999997553623 ) ) ;
#148 = DIRECTION ( 'NONE',  ( 0.000000000000000000, 0.000000000000000000, 1.000000000000000000 ) ) ;
#149 = DIRECTION ( 'NONE',  ( 1.000000000000000000, 0.000000000000000000, 0.000000000000000000 ) ) ;
#150 = EDGE_CURVE ( 'NONE', #244, #868, #1026, .T. ) ;
#151 = VERTEX_POINT ( 'NONE', #105 ) ;
#152 = LINE ( 'NONE', #782, #3 ) ;
#153 = CIRCLE ( 'NONE', #897, 12.00000000000000178 ) ;
#154 = ORIENTED_EDGE ( 'NONE', *, *, #586, .F. ) ;
#155 = FACE_BOUND ( 'NONE', #680, .T. ) ;
#156 = DIRECTION ( 'NONE',  ( -1.000000000000000000, -0.000000000000000000, -0.000000000000000000 ) ) ;
#157 = AXIS2_PLACEMENT_3D ( 'NONE', #1104, #11, #513 ) ;
#158 = ORIENTED_EDGE ( 'NONE', *, *, #754, .F. ) ;
#159 = EDGE_CURVE ( 'NONE', #966, #1079, #772, .T. ) ;
#160 = CARTESIAN_POINT ( 'NONE',  ( 5.000000000000000888, -7.122026720894781171, -10.11766236859890000 ) ) ;
#161 = ORIENTED_EDGE ( 'NONE', *, *, #689, .F. ) ;
#162 = CARTESIAN_POINT ( 'NONE',  ( -51.41984052872976463, -40.00000000000000711, 3.719750000002449042 ) ) ;
#163 = DIRECTION ( 'NONE',  ( 0.000000000000000000, 0.000000000000000000, 1.000000000000000000 ) ) ;
#164 = VERTEX_POINT ( 'NONE', #391 ) ;
#165 = CARTESIAN_POINT ( 'NONE',  ( 5.000000000000000888, 4.170985398625283835, 6.811646843644828309 ) ) ;
#166 = AXIS2_PLACEMENT_3D ( 'NONE', #206, #1212, #700 ) ;
#167 = VERTEX_POINT ( 'NONE', #1193 ) ;
#168 = DIRECTION ( 'NONE',  ( -1.000000000000000000, -0.000000000000000000, -0.000000000000000000 ) ) ;
#169 = DIRECTION ( 'NONE',  ( -1.000000000000000000, -0.000000000000000000, -0.000000000000000000 ) ) ;
#170 = VECTOR ( 'NONE', #873, 1000.000000000000000 ) ;
#171 = FACE_OUTER_BOUND ( 'NONE', #494, .T. ) ;
#172 = CARTESIAN_POINT ( 'NONE',  ( -51.41984052872976463, -38.00000000000000711, -6.530249999997551846 ) ) ;
#173 = AXIS2_PLACEMENT_3D ( 'NONE', #447, #324, #734 ) ;
#174 = EDGE_LOOP ( 'NONE', ( #51, #20, #44, #120 ) ) ;
#175 = DIRECTION ( 'NONE',  ( 0.000000000000000000, 1.000000000000000000, 0.000000000000000000 ) ) ;
#176 = EDGE_CURVE ( 'NONE', #142, #142, #613, .T. ) ;
#177 = CARTESIAN_POINT ( 'NONE',  ( 5.000000000000000888, -0.2063558922010912955, 7.984551907517150937 ) ) ;
#178 = CARTESIAN_POINT ( 'NONE',  ( 0.000000000000000000, 0.000000000000000000, 0.000000000000000000 ) ) ;
#179 = DIRECTION ( 'NONE',  ( 1.000000000000000000, 0.000000000000000000, 0.000000000000000000 ) ) ;
#180 = EDGE_CURVE ( 'NONE', #56, #56, #77, .T. ) ;
#181 = EDGE_LOOP ( 'NONE', ( #314 ) ) ;
#182 = DIRECTION ( 'NONE',  ( -1.000000000000000000, 0.000000000000000000, 0.000000000000000000 ) ) ;
#183 = AXIS2_PLACEMENT_3D ( 'NONE', #479, #279, #501 ) ;
#184 = DIRECTION ( 'NONE',  ( 0.000000000000000000, 0.000000000000000000, -1.000000000000000000 ) ) ;
#185 = VERTEX_POINT ( 'NONE', #299 ) ;
#186 = ADVANCED_FACE ( 'NONE', ( #17 ), #417, .T. ) ;
#187 = DIRECTION ( 'NONE',  ( 0.000000000000000000, -0.4999999999999889533, -0.8660254037844449249 ) ) ;
#188 = CARTESIAN_POINT ( 'NONE',  ( 5.000000000000000888, 9.390445525336680532, 2.111908576528541026 ) ) ;
#189 = DIRECTION ( 'NONE',  ( 1.000000000000000000, 0.000000000000000000, 0.000000000000000000 ) ) ;
#190 = FACE_OUTER_BOUND ( 'NONE', #101, .T. ) ;
#191 = EDGE_LOOP ( 'NONE', ( #1070, #208, #607, #22 ) ) ;
#192 = EDGE_CURVE ( 'NONE', #164, #936, #470, .T. ) ;
#193 = DIRECTION ( 'NONE',  ( -1.000000000000000000, 0.000000000000000000, 0.000000000000000000 ) ) ;
#194 = CARTESIAN_POINT ( 'NONE',  ( 5.000000000000000888, -35.51795955552502448, -1.405249999997554733 ) ) ;
#195 = DIRECTION ( 'NONE',  ( -1.000000000000000000, -0.000000000000000000, -0.000000000000000000 ) ) ;
#196 = ORIENTED_EDGE ( 'NONE', *, *, #1244, .T. ) ;
#197 = CIRCLE ( 'NONE', #797, 3.299999999998763034 ) ;
#198 = ORIENTED_EDGE ( 'NONE', *, *, #696, .T. ) ;
#199 = DIRECTION ( 'NONE',  ( -1.000000000000000000, -0.000000000000000000, -0.000000000000000000 ) ) ;
#200 = CARTESIAN_POINT ( 'NONE',  ( 5.000000000000000888, 0.000000000000000000, 0.000000000000000000 ) ) ;
#201 = ORIENTED_EDGE ( 'NONE', *, *, #1214, .F. ) ;
#202 = AXIS2_PLACEMENT_3D ( 'NONE', #1184, #75, #1066 ) ;
#203 = AXIS2_PLACEMENT_3D ( 'NONE', #610, #711, #821 ) ;
#204 = EDGE_CURVE ( 'NONE', #1113, #739, #205, .T. ) ;
#205 = LINE ( 'NONE', #618, #893 ) ;
#206 = CARTESIAN_POINT ( 'NONE',  ( 0.000000000000000000, 3.813566508891834683, 7.018002735845891848 ) ) ;
#207 = ORIENTED_EDGE ( 'NONE', *, *, #1198, .T. ) ;
#208 = ORIENTED_EDGE ( 'NONE', *, *, #1060, .F. ) ;
#209 = CARTESIAN_POINT ( 'NONE',  ( 5.000000000000000888, -50.00000000000000711, 5.469750000002448154 ) ) ;
#210 = EDGE_CURVE ( 'NONE', #799, #839, #488, .T. ) ;
#211 = DIRECTION ( 'NONE',  ( -1.000000000000000000, 0.000000000000000000, -0.000000000000000000 ) ) ;
#212 = ORIENTED_EDGE ( 'NONE', *, *, #319, .T. ) ;
#213 = ADVANCED_BREP_SHAPE_REPRESENTATION ( 'Part 2 T307', ( #568, #522 ), #525 ) ;
#214 = ORIENTED_EDGE ( 'NONE', *, *, #825, .T. ) ;
#215 = CARTESIAN_POINT ( 'NONE',  ( 0.000000000000000000, 9.641410180234535332, -6.517999435749656456 ) ) ;
#216 = VECTOR ( 'NONE', #1280, 1000.000000000000000 ) ;
#217 = CARTESIAN_POINT ( 'NONE',  ( 10.00000000000000000, -35.51795955552502448, -1.405249999997554733 ) ) ;
#218 = EDGE_CURVE ( 'NONE', #903, #1159, #635, .T. ) ;
#219 = DIRECTION ( 'NONE',  ( 0.000000000000000000, 0.000000000000000000, 1.000000000000000000 ) ) ;
#220 = ORIENTED_EDGE ( 'NONE', *, *, #725, .F. ) ;
#221 = ADVANCED_FACE ( 'NONE', ( #141, #1232 ), #438, .F. ) ;
#222 = CARTESIAN_POINT ( 'NONE',  ( 0.000000000000000000, -0.8887718178934059798, 6.469486047452801536 ) ) ;
#223 = ORIENTED_EDGE ( 'NONE', *, *, #281, .T. ) ;
#224 = DIRECTION ( 'NONE',  ( 0.000000000000000000, 0.000000000000000000, 1.000000000000000000 ) ) ;
#225 = AXIS2_PLACEMENT_3D ( 'NONE', #248, #939, #533 ) ;
#226 = DIRECTION ( 'NONE',  ( 0.000000000000000000, 0.000000000000000000, 1.000000000000000000 ) ) ;
#227 = VERTEX_POINT ( 'NONE', #1221 ) ;
#228 = ORIENTED_EDGE ( 'NONE', *, *, #600, .T. ) ;
#229 = CARTESIAN_POINT ( 'NONE',  ( 5.000000000000000888, -2.465044051263084679, 6.047125175469788338 ) ) ;
#230 = EDGE_CURVE ( 'NONE', #621, #583, #993, .T. ) ;
#231 = VERTEX_POINT ( 'NONE', #662 ) ;
#232 = CARTESIAN_POINT ( 'NONE',  ( 5.000000000000000888, 6.811646843644814098, -4.170985398625307816 ) ) ;
#233 = CARTESIAN_POINT ( 'NONE',  ( 0.000000000000000000, -4.170985398625330909, 6.811646843644798999 ) ) ;
#234 =( NAMED_UNIT ( * ) PLANE_ANGLE_UNIT ( ) SI_UNIT ( $, .RADIAN. ) );
#235 = EDGE_LOOP ( 'NONE', ( #240, #523, #399, #370 ) ) ;
#236 = DIRECTION ( 'NONE',  ( -0.000000000000000000, 1.734723475976806848E-16, 1.000000000000000000 ) ) ;
#237 = VECTOR ( 'NONE', #1158, 1000.000000000000000 ) ;
#238 = ADVANCED_FACE ( 'NONE', ( #24 ), #1150, .F. ) ;
#239 = VECTOR ( 'NONE', #779, 1000.000000000000000 ) ;
#240 = ORIENTED_EDGE ( 'NONE', *, *, #1036, .F. ) ;
#241 = CARTESIAN_POINT ( 'NONE',  ( 0.000000000000000000, -38.00000000000000711, -6.530249999997553623 ) ) ;
#242 = LINE ( 'NONE', #852, #824 ) ;
#243 = AXIS2_PLACEMENT_3D ( 'NONE', #448, #1136, #219 ) ;
#244 = VERTEX_POINT ( 'NONE', #844 ) ;
#245 = CARTESIAN_POINT ( 'NONE',  ( -26.92006357444247655, -7.122026720894781171, -10.11766236859890000 ) ) ;
#246 = ORIENTED_EDGE ( 'NONE', *, *, #476, .F. ) ;
#247 = CARTESIAN_POINT ( 'NONE',  ( 5.000000000000000888, 6.469486047452805089, 0.8887718178933834423 ) ) ;
#248 = CARTESIAN_POINT ( 'NONE',  ( -26.92006357444247655, -11.91833740553767029, -11.53024999999755273 ) ) ;
#249 = EDGE_CURVE ( 'NONE', #1195, #510, #836, .T. ) ;
#250 = CIRCLE ( 'NONE', #577, 9.624999999996390443 ) ;
#251 = ORIENTED_EDGE ( 'NONE', *, *, #767, .F. ) ;
#252 = DIRECTION ( 'NONE',  ( 0.000000000000000000, 0.8660254037844362651, 0.5000000000000041078 ) ) ;
#253 = CIRCLE ( 'NONE', #1228, 5.000000000000000000 ) ;
#254 = EDGE_LOOP ( 'NONE', ( #426, #1055, #1231, #84 ) ) ;
#255 = CYLINDRICAL_SURFACE ( 'NONE', #480, 1.500000000000000888 ) ;
#256 = CARTESIAN_POINT ( 'NONE',  ( 2.500000000000000444, 6.524189240412276547, 7.076410089531218972 ) ) ;
#257 = AXIS2_PLACEMENT_3D ( 'NONE', #920, #291, #699 ) ;
#258 = ADVANCED_FACE ( 'NONE', ( #932 ), #554, .T. ) ;
#259 = DIRECTION ( 'NONE',  ( -1.000000000000000000, 0.000000000000000000, 0.000000000000000000 ) ) ;
#260 = CIRCLE ( 'NONE', #1253, 8.137916776982168088 ) ;
#261 = CARTESIAN_POINT ( 'NONE',  ( -26.92006357444247655, 9.641410180234542437, -22.65591621273184231 ) ) ;
#262 = ORIENTED_EDGE ( 'NONE', *, *, #218, .F. ) ;
#263 = DIRECTION ( 'NONE',  ( 0.000000000000000000, 1.000000000000000000, 0.000000000000000000 ) ) ;
#264 = DIRECTION ( 'NONE',  ( 0.000000000000000000, 0.000000000000000000, 1.000000000000000000 ) ) ;
#265 = ORIENTED_EDGE ( 'NONE', *, *, #1018, .T. ) ;
#266 = CIRCLE ( 'NONE', #605, 6.530249999997550958 ) ;
#267 = DIRECTION ( 'NONE',  ( -1.000000000000000000, 0.000000000000000000, -0.000000000000000000 ) ) ;
#268 = EDGE_CURVE ( 'NONE', #1246, #580, #1266, .T. ) ;
#269 = ORIENTED_EDGE ( 'NONE', *, *, #388, .F. ) ;
#270 = PLANE ( 'NONE',  #901 ) ;
#271 = AXIS2_PLACEMENT_3D ( 'NONE', #177, #272, #63 ) ;
#272 = DIRECTION ( 'NONE',  ( -1.000000000000000000, 0.000000000000000000, 0.000000000000000000 ) ) ;
#273 = ORIENTED_EDGE ( 'NONE', *, *, #757, .T. ) ;
#274 = LINE ( 'NONE', #1068, #906 ) ;
#275 = EDGE_CURVE ( 'NONE', #826, #945, #48, .T. ) ;
#276 = ORIENTED_EDGE ( 'NONE', *, *, #521, .T. ) ;
#277 = PLANE ( 'NONE',  #202 ) ;
#278 = ORIENTED_EDGE ( 'NONE', *, *, #218, .T. ) ;
#279 = DIRECTION ( 'NONE',  ( -1.000000000000000000, -0.000000000000000000, -0.000000000000000000 ) ) ;
#280 = AXIS2_PLACEMENT_3D ( 'NONE', #312, #914, #518 ) ;
#281 = EDGE_CURVE ( 'NONE', #1101, #244, #318, .T. ) ;
#282 = CARTESIAN_POINT ( 'NONE',  ( -51.41984052872976463, -8.589273834258136731, 11.71975000000244904 ) ) ;
#283 = EDGE_CURVE ( 'NONE', #315, #1246, #1013, .T. ) ;
#284 = CARTESIAN_POINT ( 'NONE',  ( 5.000000000000000888, 0.8887718178933601276, 6.469486047452807753 ) ) ;
#285 = CARTESIAN_POINT ( 'NONE',  ( 0.000000000000000000, -11.91833740553767029, -6.530249999997551846 ) ) ;
#286 = VECTOR ( 'NONE', #106, 1000.000000000000000 ) ;
#287 = AXIS2_PLACEMENT_3D ( 'NONE', #215, #1224, #1050 ) ;
#288 = ORIENTED_EDGE ( 'NONE', *, *, #505, .T. ) ;
#289 = DIRECTION ( 'NONE',  ( -0.000000000000000000, 0.000000000000000000, 1.000000000000000000 ) ) ;
#290 = EDGE_CURVE ( 'NONE', #151, #856, #420, .T. ) ;
#291 = DIRECTION ( 'NONE',  ( -1.000000000000000000, 0.000000000000000000, 0.000000000000000000 ) ) ;
#292 = CARTESIAN_POINT ( 'NONE',  ( 2.500000000000000444, 2.111908576528511272, 9.390445525336689414 ) ) ;
#293 = CARTESIAN_POINT ( 'NONE',  ( 0.000000000000000000, -8.589273834258133178, 3.719750000002448598 ) ) ;
#294 = DIRECTION ( 'NONE',  ( 0.000000000000000000, 0.000000000000000000, 1.000000000000000000 ) ) ;
#295 = CARTESIAN_POINT ( 'NONE',  ( 2.500000000000000444, 9.188318666059783979, -2.866256284924272979 ) ) ;
#296 = AXIS2_PLACEMENT_3D ( 'NONE', #429, #1255, #224 ) ;
#297 = VECTOR ( 'NONE', #375, 1000.000000000000000 ) ;
#298 =( NAMED_UNIT ( * ) PLANE_ANGLE_UNIT ( ) SI_UNIT ( $, .RADIAN. ) );
#299 = CARTESIAN_POINT ( 'NONE',  ( 5.000000000000000888, -40.00000000000000711, 3.719750000002449042 ) ) ;
#300 = LINE ( 'NONE', #292, #1048 ) ;
#301 = VECTOR ( 'NONE', #97, 1000.000000000000000 ) ;
#302 = EDGE_LOOP ( 'NONE', ( #502, #1118, #784, #541 ) ) ;
#303 = EDGE_CURVE ( 'NONE', #570, #930, #400, .T. ) ;
#304 = FACE_OUTER_BOUND ( 'NONE', #701, .T. ) ;
#305 = CARTESIAN_POINT ( 'NONE',  ( -26.92006357444247655, 9.641410180234519345, -18.65591621273182810 ) ) ;
#306 = CARTESIAN_POINT ( 'NONE',  ( 5.000000000000000888, 0.000000000000000000, 0.000000000000000000 ) ) ;
#307 = VERTEX_POINT ( 'NONE', #1045 ) ;
#308 = VECTOR ( 'NONE', #47, 1000.000000000000000 ) ;
#309 = EDGE_CURVE ( 'NONE', #936, #903, #242, .T. ) ;
#310 = EDGE_LOOP ( 'NONE', ( #1083, #643, #1181, #647 ) ) ;
#311 = LINE ( 'NONE', #293, #64 ) ;
#312 = CARTESIAN_POINT ( 'NONE',  ( -10.00000000000000000, 0.000000000000000000, 0.000000000000000000 ) ) ;
#313 = CARTESIAN_POINT ( 'NONE',  ( 0.000000000000000000, -35.51795955552502448, -2.905249999997556287 ) ) ;
#314 = ORIENTED_EDGE ( 'NONE', *, *, #546, .F. ) ;
#315 = VERTEX_POINT ( 'NONE', #545 ) ;
#316 = DIRECTION ( 'NONE',  ( -1.000000000000000000, -0.000000000000000000, -0.000000000000000000 ) ) ;
#317 = CIRCLE ( 'NONE', #387, 3.299999999998762590 ) ;
#318 = LINE ( 'NONE', #741, #308 ) ;
#319 = EDGE_CURVE ( 'NONE', #231, #941, #250, .T. ) ;
#320 = DIRECTION ( 'NONE',  ( 0.000000000000000000, 0.000000000000000000, -1.000000000000000000 ) ) ;
#321 = EDGE_LOOP ( 'NONE', ( #1037 ) ) ;
#322 = ORIENTED_EDGE ( 'NONE', *, *, #586, .T. ) ;
#323 = AXIS2_PLACEMENT_3D ( 'NONE', #655, #149, #320 ) ;
#324 = DIRECTION ( 'NONE',  ( -1.000000000000000000, -0.000000000000000000, -0.000000000000000000 ) ) ;
#325 = ADVANCED_FACE ( 'NONE', ( #956 ), #55, .T. ) ;
#326 = CARTESIAN_POINT ( 'NONE',  ( 0.000000000000000000, 4.230690131217794026, -4.974477467642644868 ) ) ;
#327 = VERTEX_POINT ( 'NONE', #347 ) ;
#328 = CARTESIAN_POINT ( 'NONE',  ( 0.000000000000000000, -0.2063558922010912955, 7.984551907517150937 ) ) ;
#329 = ORIENTED_EDGE ( 'NONE', *, *, #1206, .F. ) ;
#330 = DIRECTION ( 'NONE',  ( 1.000000000000000000, 0.000000000000000000, 0.000000000000000000 ) ) ;
#331 = AXIS2_PLACEMENT_3D ( 'NONE', #455, #926, #859 ) ;
#332 = DIRECTION ( 'NONE',  ( 0.000000000000000000, 0.000000000000000000, -1.000000000000000000 ) ) ;
#333 = CARTESIAN_POINT ( 'NONE',  ( 0.000000000000000000, 0.000000000000000000, -3.500000000000000000 ) ) ;
#334 = ORIENTED_EDGE ( 'NONE', *, *, #837, .F. ) ;
#335 = AXIS2_PLACEMENT_3D ( 'NONE', #352, #236, #1257 ) ;
#336 = CARTESIAN_POINT ( 'NONE',  ( 0.000000000000000000, -38.00000000000000711, -6.530249999997551846 ) ) ;
#337 = ORIENTED_EDGE ( 'NONE', *, *, #1121, .F. ) ;
#338 = DIRECTION ( 'NONE',  ( 0.000000000000000000, 0.8660254037844362651, 0.5000000000000041078 ) ) ;
#339 = CIRCLE ( 'NONE', #58, 9.624999999996390443 ) ;
#340 = DIRECTION ( 'NONE',  ( -1.000000000000000000, 0.000000000000000000, 0.000000000000000000 ) ) ;
#341 = APPLICATION_PROTOCOL_DEFINITION ( 'draft international standard', 'automotive_design', 1998, #357 ) ;
#342 = ORIENTED_EDGE ( 'NONE', *, *, #468, .T. ) ;
#343 = LINE ( 'NONE', #245, #944 ) ;
#344 = ADVANCED_FACE ( 'NONE', ( #759 ), #1156, .T. ) ;
#345 = ORIENTED_EDGE ( 'NONE', *, *, #881, .F. ) ;
#346 = DIRECTION ( 'NONE',  ( 0.000000000000000000, 0.5000000000000008882, -0.8660254037844381525 ) ) ;
#347 = CARTESIAN_POINT ( 'NONE',  ( 5.000000000000000888, 6.469486047452805089, 0.8887718178933834423 ) ) ;
#348 = CIRCLE ( 'NONE', #183, 3.500000000000000000 ) ;
#349 = CIRCLE ( 'NONE', #676, 6.530249999997550958 ) ;
#350 = VERTEX_POINT ( 'NONE', #483 ) ;
#351 = AXIS2_PLACEMENT_3D ( 'NONE', #45, #1126, #127 ) ;
#352 = CARTESIAN_POINT ( 'NONE',  ( -51.41984052872976463, -40.00000000000000711, 5.469750000002446377 ) ) ;
#353 = ORIENTED_EDGE ( 'NONE', *, *, #863, .F. ) ;
#354 = DIRECTION ( 'NONE',  ( 0.000000000000000000, 0.000000000000000000, 1.000000000000000000 ) ) ;
#355 = ADVANCED_FACE ( 'NONE', ( #969 ), #686, .T. ) ;
#356 = DIRECTION ( 'NONE',  ( 1.000000000000000000, 0.000000000000000000, 0.000000000000000000 ) ) ;
#357 = APPLICATION_CONTEXT ( 'automotive_design' ) ;
#358 = ORIENTED_EDGE ( 'NONE', *, *, #915, .T. ) ;
#359 = VECTOR ( 'NONE', #1041, 1000.000000000000000 ) ;
#360 = FACE_OUTER_BOUND ( 'NONE', #732, .T. ) ;
#361 = ORIENTED_EDGE ( 'NONE', *, *, #890, .T. ) ;
#362 = CARTESIAN_POINT ( 'NONE',  ( 5.000000000000000888, -8.589273834258136731, 11.71975000000244904 ) ) ;
#363 = CYLINDRICAL_SURFACE ( 'NONE', #441, 9.624999999996390443 ) ;
#364 = EDGE_CURVE ( 'NONE', #729, #941, #1053, .T. ) ;
#365 = CARTESIAN_POINT ( 'NONE',  ( -10.00000000000000000, 0.000000000000000000, 0.000000000000000000 ) ) ;
#366 = CARTESIAN_POINT ( 'NONE',  ( 0.000000000000000000, 0.000000000000000000, 0.000000000000000000 ) ) ;
#367 = ORIENTED_EDGE ( 'NONE', *, *, #1293, .T. ) ;
#368 = FACE_BOUND ( 'NONE', #972, .T. ) ;
#369 = LINE ( 'NONE', #561, #239 ) ;
#370 = ORIENTED_EDGE ( 'NONE', *, *, #125, .T. ) ;
#371 = EDGE_CURVE ( 'NONE', #621, #945, #785, .T. ) ;
#372 = LINE ( 'NONE', #1077, #437 ) ;
#373 = AXIS2_PLACEMENT_3D ( 'NONE', #366, #267, #1182 ) ;
#374 = ORIENTED_EDGE ( 'NONE', *, *, #140, .F. ) ;
#375 = DIRECTION ( 'NONE',  ( 1.000000000000000000, -0.000000000000000000, -0.000000000000000000 ) ) ;
#376 = DIRECTION ( 'NONE',  ( 1.000000000000000000, 0.000000000000000000, 0.000000000000000000 ) ) ;
#377 = AXIS2_PLACEMENT_3D ( 'NONE', #1161, #1082, #675 ) ;
#378 = AXIS2_PLACEMENT_3D ( 'NONE', #615, #109, #289 ) ;
#379 = ORIENTED_EDGE ( 'NONE', *, *, #159, .T. ) ;
#380 = AXIS2_PLACEMENT_3D ( 'NONE', #115, #134, #1034 ) ;
#381 = DIRECTION ( 'NONE',  ( 0.000000000000000000, 0.8660254037844397068, -0.4999999999999980016 ) ) ;
#382 = EDGE_CURVE ( 'NONE', #29, #1254, #1215, .T. ) ;
#383 = DIRECTION ( 'NONE',  ( 0.000000000000000000, 0.000000000000000000, -1.000000000000000000 ) ) ;
#384 = DIRECTION ( 'NONE',  ( 1.000000000000000000, 0.000000000000000000, 0.000000000000000000 ) ) ;
#385 = DIRECTION ( 'NONE',  ( -1.000000000000000000, 0.000000000000000000, 0.000000000000000000 ) ) ;
#386 = AXIS2_PLACEMENT_3D ( 'NONE', #110, #199, #294 ) ;
#387 = AXIS2_PLACEMENT_3D ( 'NONE', #637, #724, #346 ) ;
#388 = EDGE_CURVE ( 'NONE', #580, #327, #657, .T. ) ;
#389 = ORIENTED_EDGE ( 'NONE', *, *, #938, .F. ) ;
#390 =( NAMED_UNIT ( * ) SI_UNIT ( $, .STERADIAN. ) SOLID_ANGLE_UNIT ( ) );
#391 = CARTESIAN_POINT ( 'NONE',  ( 5.000000000000000888, -2.111908576528574333, 9.390445525336673427 ) ) ;
#392 = DIRECTION ( 'NONE',  ( 0.000000000000000000, 1.000000000000000000, 3.491481338843133355E-15 ) ) ;
#393 = VECTOR ( 'NONE', #803, 1000.000000000000000 ) ;
#394 = ORIENTED_EDGE ( 'NONE', *, *, #685, .F. ) ;
#395 = DIRECTION ( 'NONE',  ( 0.000000000000000000, 0.000000000000000000, -1.000000000000000000 ) ) ;
#396 = ADVANCED_FACE ( 'NONE', ( #475 ), #976, .F. ) ;
#397 = CARTESIAN_POINT ( 'NONE',  ( 0.000000000000000000, -10.51795955552502626, -1.405249999997551624 ) ) ;
#398 = DIRECTION ( 'NONE',  ( 1.000000000000000000, -0.000000000000000000, -0.000000000000000000 ) ) ;
#399 = ORIENTED_EDGE ( 'NONE', *, *, #902, .T. ) ;
#400 = CIRCLE ( 'NONE', #1139, 9.624999999996388667 ) ;
#401 = ORIENTED_EDGE ( 'NONE', *, *, #130, .T. ) ;
#402 = PLANE ( 'NONE',  #378 ) ;
#403 = CYLINDRICAL_SURFACE ( 'NONE', #280, 9.624999999996390443 ) ;
#404 = ADVANCED_FACE ( 'NONE', ( #486 ), #363, .T. ) ;
#405 = DIRECTION ( 'NONE',  ( -1.000000000000000000, 0.000000000000000000, 0.000000000000000000 ) ) ;
#406 = ORIENTED_EDGE ( 'NONE', *, *, #929, .T. ) ;
#407 = AXIS2_PLACEMENT_3D ( 'NONE', #695, #905, #410 ) ;
#408 = EDGE_LOOP ( 'NONE', ( #273, #720, #667, #278 ) ) ;
#409 = CARTESIAN_POINT ( 'NONE',  ( -51.41984052872976463, -50.00000000000000711, 5.469750000002448154 ) ) ;
#410 = DIRECTION ( 'NONE',  ( 0.000000000000000000, 0.000000000000000000, 1.000000000000000000 ) ) ;
#411 = LINE ( 'NONE', #619, #988 ) ;
#412 = ORIENTED_EDGE ( 'NONE', *, *, #459, .T. ) ;
#413 = ADVANCED_FACE ( 'NONE', ( #962 ), #1180, .F. ) ;
#414 = CIRCLE ( 'NONE', #708, 6.530249999997550958 ) ;
#415 = EDGE_LOOP ( 'NONE', ( #664 ) ) ;
#416 = CARTESIAN_POINT ( 'NONE',  ( 5.000000000000000888, -10.51795955552502626, -1.405249999997551624 ) ) ;
#417 = CYLINDRICAL_SURFACE ( 'NONE', #446, 4.000000000000003553 ) ;
#418 = DIRECTION ( 'NONE',  ( 0.000000000000000000, 0.000000000000000000, 1.000000000000000000 ) ) ;
#419 = ORIENTED_EDGE ( 'NONE', *, *, #959, .F. ) ;
#420 = CIRCLE ( 'NONE', #553, 3.299999999998762146 ) ;
#421 = EDGE_CURVE ( 'NONE', #327, #112, #609, .T. ) ;
#422 = ORIENTED_EDGE ( 'NONE', *, *, #696, .F. ) ;
#423 = CARTESIAN_POINT ( 'NONE',  ( -51.41984052872976463, -40.00000000000000711, 3.719750000002449042 ) ) ;
#424 = DIRECTION ( 'NONE',  ( 1.000000000000000000, 0.000000000000000000, 0.000000000000000000 ) ) ;
#425 = CARTESIAN_POINT ( 'NONE',  ( 4.999999999999997335, 0.000000000000000000, 3.500000000000000000 ) ) ;
#426 = ORIENTED_EDGE ( 'NONE', *, *, #1293, .F. ) ;
#427 = DIRECTION ( 'NONE',  ( 0.000000000000000000, -6.982962677686266711E-15, 1.000000000000000000 ) ) ;
#428 = EDGE_LOOP ( 'NONE', ( #764 ) ) ;
#429 = CARTESIAN_POINT ( 'NONE',  ( 5.000000000000000888, 3.813566508891834683, 7.018002735845891848 ) ) ;
#430 = ADVANCED_FACE ( 'NONE', ( #867 ), #277, .T. ) ;
#431 = CARTESIAN_POINT ( 'NONE',  ( 5.000000000000000888, 0.000000000000000000, 0.000000000000000000 ) ) ;
#432 = CARTESIAN_POINT ( 'NONE',  ( 5.000000000000000888, -2.866256284924434627, 9.188318666059732465 ) ) ;
#433 = ORIENTED_EDGE ( 'NONE', *, *, #1206, .T. ) ;
#434 = CARTESIAN_POINT ( 'NONE',  ( 0.000000000000000000, 6.047125175469795444, 2.465044051263062919 ) ) ;
#435 = EDGE_LOOP ( 'NONE', ( #531 ) ) ;
#436 = FACE_OUTER_BOUND ( 'NONE', #254, .T. ) ;
#437 = VECTOR ( 'NONE', #679, 1000.000000000000000 ) ;
#438 = CYLINDRICAL_SURFACE ( 'NONE', #974, 1.500000000000001554 ) ;
#439 = VERTEX_POINT ( 'NONE', #727 ) ;
#440 = ORIENTED_EDGE ( 'NONE', *, *, #303, .T. ) ;
#441 = AXIS2_PLACEMENT_3D ( 'NONE', #569, #1167, #264 ) ;
#442 = DIRECTION ( 'NONE',  ( 0.000000000000000000, 0.000000000000000000, 1.000000000000000000 ) ) ;
#443 = VERTEX_POINT ( 'NONE', #981 ) ;
#444 = DIRECTION ( 'NONE',  ( -1.000000000000000000, -0.000000000000000000, -0.000000000000000000 ) ) ;
#445 = AXIS2_PLACEMENT_3D ( 'NONE', #1127, #638, #1039 ) ;
#446 = AXIS2_PLACEMENT_3D ( 'NONE', #305, #705, #1110 ) ;
#447 = CARTESIAN_POINT ( 'NONE',  ( 5.000000000000000888, 0.000000000000000000, 0.000000000000000000 ) ) ;
#448 = CARTESIAN_POINT ( 'NONE',  ( 5.000000000000000888, 0.000000000000000000, 0.000000000000000000 ) ) ;
#449 = ORIENTED_EDGE ( 'NONE', *, *, #249, .F. ) ;
#450 = PRODUCT_DEFINITION_SHAPE ( 'NONE', 'NONE',  #616 ) ;
#451 = EDGE_CURVE ( 'NONE', #1054, #1054, #1287, .T. ) ;
#452 = DIRECTION ( 'NONE',  ( -1.000000000000000000, -0.000000000000000000, -0.000000000000000000 ) ) ;
#453 = ORIENTED_EDGE ( 'NONE', *, *, #1192, .F. ) ;
#454 = CARTESIAN_POINT ( 'NONE',  ( 0.000000000000000000, 2.111908576528510828, 9.390445525336689414 ) ) ;
#455 = CARTESIAN_POINT ( 'NONE',  ( -10.00000000000000000, 0.000000000000000000, 0.000000000000000000 ) ) ;
#456 = CIRCLE ( 'NONE', #59, 3.299999999998762146 ) ;
#457 = ORIENTED_EDGE ( 'NONE', *, *, #1148, .T. ) ;
#458 = LINE ( 'NONE', #27, #14 ) ;
#459 = EDGE_CURVE ( 'NONE', #831, #1113, #861, .T. ) ;
#460 = VERTEX_POINT ( 'NONE', #1073 ) ;
#461 = DIRECTION ( 'NONE',  ( 0.000000000000000000, 0.000000000000000000, 1.000000000000000000 ) ) ;
#462 = DIRECTION ( 'NONE',  ( 0.000000000000000000, 0.000000000000000000, -1.000000000000000000 ) ) ;
#463 = EDGE_LOOP ( 'NONE', ( #595, #925, #128, #1057 ) ) ;
#464 = CARTESIAN_POINT ( 'NONE',  ( 0.000000000000000000, 7.984551907517150937, -0.2063558922010635399 ) ) ;
#465 = EDGE_CURVE ( 'NONE', #460, #1159, #13, .T. ) ;
#466 = EDGE_LOOP ( 'NONE', ( #673, #322, #1023, #246 ) ) ;
#467 = FACE_OUTER_BOUND ( 'NONE', #723, .T. ) ;
#468 = EDGE_CURVE ( 'NONE', #941, #580, #987, .T. ) ;
#469 = CARTESIAN_POINT ( 'NONE',  ( 0.000000000000000000, 6.811646843644814098, 4.170985398625307816 ) ) ;
#470 = CIRCLE ( 'NONE', #203, 3.299999999998762146 ) ;
#471 = ORIENTED_EDGE ( 'NONE', *, *, #382, .T. ) ;
#472 = DIRECTION ( 'NONE',  ( -1.000000000000000000, 0.000000000000000000, -0.000000000000000000 ) ) ;
#473 = ORIENTED_EDGE ( 'NONE', *, *, #1252, .F. ) ;
#474 = LINE ( 'NONE', #1154, #297 ) ;
#475 = FACE_OUTER_BOUND ( 'NONE', #73, .T. ) ;
#476 = EDGE_CURVE ( 'NONE', #244, #1004, #369, .T. ) ;
#477 = CIRCLE ( 'NONE', #746, 4.000000000000003553 ) ;
#478 = EDGE_LOOP ( 'NONE', ( #251, #934, #345, #1213 ) ) ;
#479 = CARTESIAN_POINT ( 'NONE',  ( 0.000000000000000000, 0.000000000000000000, 0.000000000000000000 ) ) ;
#480 = AXIS2_PLACEMENT_3D ( 'NONE', #1268, #967, #461 ) ;
#481 = ORIENTED_EDGE ( 'NONE', *, *, #929, .F. ) ;
#482 = DIRECTION ( 'NONE',  ( 0.000000000000000000, 0.000000000000000000, -1.000000000000000000 ) ) ;
#483 = CARTESIAN_POINT ( 'NONE',  ( 5.000000000000000888, 5.158353357576410225, 4.004441996189754605 ) ) ;
#484 = ORIENTED_EDGE ( 'NONE', *, *, #600, .F. ) ;
#485 = CARTESIAN_POINT ( 'NONE',  ( 0.000000000000000000, -3.860229896674359118, 5.267142508731796013 ) ) ;
#486 = FACE_OUTER_BOUND ( 'NONE', #1157, .T. ) ;
#487 = VERTEX_POINT ( 'NONE', #789 ) ;
#488 = CIRCLE ( 'NONE', #380, 6.530249999997550958 ) ;
#489 = DIRECTION ( 'NONE',  ( 0.000000000000000000, 0.000000000000000000, -1.000000000000000000 ) ) ;
#490 = VECTOR ( 'NONE', #744, 1000.000000000000000 ) ;
#491 = ADVANCED_FACE ( 'NONE', ( #688 ), #1174, .F. ) ;
#492 = AXIS2_PLACEMENT_3D ( 'NONE', #1098, #211, #603 ) ;
#493 = VERTEX_POINT ( 'NONE', #710 ) ;
#494 = EDGE_LOOP ( 'NONE', ( #816, #535, #72, #207 ) ) ;
#495 = CIRCLE ( 'NONE', #257, 6.530249999997550958 ) ;
#496 = CARTESIAN_POINT ( 'NONE',  ( 5.000000000000000888, 6.469486047452805089, -0.8887718178933826652 ) ) ;
#497 = ORIENTED_EDGE ( 'NONE', *, *, #818, .T. ) ;
#498 = CARTESIAN_POINT ( 'NONE',  ( 5.000000000000000888, -11.91833740553767029, -6.530249999997551846 ) ) ;
#499 = AXIS2_PLACEMENT_3D ( 'NONE', #596, #1017, #184 ) ;
#500 = DIRECTION ( 'NONE',  ( -1.000000000000000000, 0.000000000000000000, 0.000000000000000000 ) ) ;
#501 = DIRECTION ( 'NONE',  ( 0.000000000000000000, 0.000000000000000000, -1.000000000000000000 ) ) ;
#502 = ORIENTED_EDGE ( 'NONE', *, *, #863, .T. ) ;
#503 = VECTOR ( 'NONE', #405, 1000.000000000000000 ) ;
#504 = FACE_OUTER_BOUND ( 'NONE', #885, .T. ) ;
#505 = EDGE_CURVE ( 'NONE', #1208, #650, #728, .T. ) ;
#506 = CARTESIAN_POINT ( 'NONE',  ( 5.000000000000000888, 0.000000000000000000, 0.000000000000000000 ) ) ;
#507 = CYLINDRICAL_SURFACE ( 'NONE', #841, 9.624999999996390443 ) ;
#508 = ORIENTED_EDGE ( 'NONE', *, *, #652, .T. ) ;
#509 = VECTOR ( 'NONE', #1226, 1000.000000000000000 ) ;
#510 = VERTEX_POINT ( 'NONE', #498 ) ;
#511 = CARTESIAN_POINT ( 'NONE',  ( 5.000000000000000888, 7.076410089531195879, 6.524189240412296975 ) ) ;
#512 = EDGE_CURVE ( 'NONE', #227, #227, #626, .T. ) ;
#513 = DIRECTION ( 'NONE',  ( 0.000000000000000000, 0.000000000000000000, 1.000000000000000000 ) ) ;
#514 = CARTESIAN_POINT ( 'NONE',  ( 0.000000000000000000, 9.641410180234542437, -5.180571095073508658 ) ) ;
#515 = CIRCLE ( 'NONE', #386, 9.624999999996388667 ) ;
#516 = ORIENTED_EDGE ( 'NONE', *, *, #652, .F. ) ;
#517 = CARTESIAN_POINT ( 'NONE',  ( 5.000000000000000888, 4.010024085923666881, -12.39279135767251105 ) ) ;
#518 = DIRECTION ( 'NONE',  ( 0.000000000000000000, 0.000000000000000000, 1.000000000000000000 ) ) ;
#519 = CARTESIAN_POINT ( 'NONE',  ( -51.41984052872976463, -8.589273834258133178, 3.719750000002448598 ) ) ;
#520 = ORIENTED_EDGE ( 'NONE', *, *, #364, .T. ) ;
#521 = EDGE_CURVE ( 'NONE', #620, #79, #1201, .T. ) ;
#522 = AXIS2_PLACEMENT_3D ( 'NONE', #547, #853, #534 ) ;
#523 = ORIENTED_EDGE ( 'NONE', *, *, #21, .T. ) ;
#524 = CARTESIAN_POINT ( 'NONE',  ( 0.000000000000000000, -11.91833740553767029, -11.53024999999755273 ) ) ;
#525 =( GEOMETRIC_REPRESENTATION_CONTEXT ( 3 ) GLOBAL_UNCERTAINTY_ASSIGNED_CONTEXT ( ( #1010 ) ) GLOBAL_UNIT_ASSIGNED_CONTEXT ( ( #1144, #234, #1227 ) ) REPRESENTATION_CONTEXT ( 'NONE', 'WORKASPACE' ) );
#526 = CARTESIAN_POINT ( 'NONE',  ( 5.000000000000000888, 6.469486047452805089, -0.8887718178933826652 ) ) ;
#527 = AXIS2_PLACEMENT_3D ( 'NONE', #524, #532, #931 ) ;
#528 = EDGE_LOOP ( 'NONE', ( #484, #419, #422, #449 ) ) ;
#529 = DIRECTION ( 'NONE',  ( 0.000000000000000000, 0.8660254037844398178, -0.4999999999999978906 ) ) ;
#530 = ADVANCED_FACE ( 'NONE', ( #504, #304 ), #1109, .F. ) ;
#531 = ORIENTED_EDGE ( 'NONE', *, *, #997, .T. ) ;
#532 = DIRECTION ( 'NONE',  ( 1.000000000000000000, 0.000000000000000000, 0.000000000000000000 ) ) ;
#533 = DIRECTION ( 'NONE',  ( 0.000000000000000000, 0.000000000000000000, -1.000000000000000000 ) ) ;
#534 = DIRECTION ( 'NONE',  ( 1.000000000000000000, 0.000000000000000000, 0.000000000000000000 ) ) ;
#535 = ORIENTED_EDGE ( 'NONE', *, *, #275, .F. ) ;
#536 = CARTESIAN_POINT ( 'NONE',  ( 0.000000000000000000, 0.000000000000000000, 0.000000000000000000 ) ) ;
#537 = VERTEX_POINT ( 'NONE', #517 ) ;
#538 = CARTESIAN_POINT ( 'NONE',  ( 5.000000000000000888, -11.91833740553767029, -11.53024999999755273 ) ) ;
#539 = CARTESIAN_POINT ( 'NONE',  ( 0.000000000000000000, 6.811646843644814098, -4.170985398625307816 ) ) ;
#540 = DIRECTION ( 'NONE',  ( 0.000000000000000000, 0.000000000000000000, -1.000000000000000000 ) ) ;
#541 = ORIENTED_EDGE ( 'NONE', *, *, #965, .F. ) ;
#542 = ORIENTED_EDGE ( 'NONE', *, *, #204, .F. ) ;
#543 = DIRECTION ( 'NONE',  ( -1.000000000000000000, -0.000000000000000000, -0.000000000000000000 ) ) ;
#544 = AXIS2_PLACEMENT_3D ( 'NONE', #971, #1288, #489 ) ;
#545 = CARTESIAN_POINT ( 'NONE',  ( 5.000000000000000888, 6.047125175469795444, 2.465044051263062919 ) ) ;
#546 = EDGE_CURVE ( 'NONE', #124, #124, #1003, .T. ) ;
#547 = CARTESIAN_POINT ( 'NONE',  ( 0.000000000000000000, 0.000000000000000000, 0.000000000000000000 ) ) ;
#548 = ORIENTED_EDGE ( 'NONE', *, *, #49, .T. ) ;
#549 = CARTESIAN_POINT ( 'NONE',  ( 0.000000000000000000, 9.390445525336682309, 2.111908576528542802 ) ) ;
#550 = VECTOR ( 'NONE', #1120, 1000.000000000000000 ) ;
#551 = VERTEX_POINT ( 'NONE', #1219 ) ;
#552 = CARTESIAN_POINT ( 'NONE',  ( 5.000000000000000888, 0.000000000000000000, 0.000000000000000000 ) ) ;
#553 = AXIS2_PLACEMENT_3D ( 'NONE', #539, #156, #332 ) ;
#554 = CYLINDRICAL_SURFACE ( 'NONE', #1243, 3.299999999998762146 ) ;
#555 = EDGE_CURVE ( 'NONE', #868, #831, #311, .T. ) ;
#556 = DIRECTION ( 'NONE',  ( 0.000000000000000000, 1.000000000000000000, 3.491481338843133355E-15 ) ) ;
#557 = VERTEX_POINT ( 'NONE', #904 ) ;
#558 = DIRECTION ( 'NONE',  ( -1.000000000000000000, 0.000000000000000000, -0.000000000000000000 ) ) ;
#559 = ORIENTED_EDGE ( 'NONE', *, *, #990, .F. ) ;
#560 = CARTESIAN_POINT ( 'NONE',  ( 0.000000000000000000, -38.00000000000000711, 5.469750000002448154 ) ) ;
#561 = CARTESIAN_POINT ( 'NONE',  ( -51.41984052872976463, -40.00000000000000711, 5.469750000002446377 ) ) ;
#562 = ORIENTED_EDGE ( 'NONE', *, *, #938, .T. ) ;
#563 = DIRECTION ( 'NONE',  ( -1.000000000000000000, 0.000000000000000000, 0.000000000000000000 ) ) ;
#564 = EDGE_CURVE ( 'NONE', #307, #854, #716, .T. ) ;
#565 = AXIS2_PLACEMENT_3D ( 'NONE', #919, #193, #608 ) ;
#566 = ORIENTED_EDGE ( 'NONE', *, *, #793, .F. ) ;
#567 = DIRECTION ( 'NONE',  ( 0.000000000000000000, -0.000000000000000000, 1.000000000000000000 ) ) ;
#568 = MANIFOLD_SOLID_BREP ( 'Cut-Extrude2', #1275 ) ;
#569 = CARTESIAN_POINT ( 'NONE',  ( -10.00000000000000000, 0.000000000000000000, 0.000000000000000000 ) ) ;
#570 = VERTEX_POINT ( 'NONE', #1191 ) ;
#571 = DIRECTION ( 'NONE',  ( -1.000000000000000000, 0.000000000000000000, 0.000000000000000000 ) ) ;
#572 = ADVANCED_FACE ( 'NONE', ( #1011, #1005, #1103, #602, #994 ), #402, .F. ) ;
#573 = ORIENTED_EDGE ( 'NONE', *, *, #546, .T. ) ;
#574 = STYLED_ITEM ( 'NONE', ( #92 ), #568 ) ;
#575 = DIRECTION ( 'NONE',  ( 0.000000000000000000, 0.000000000000000000, -1.000000000000000000 ) ) ;
#576 = DIRECTION ( 'NONE',  ( -1.000000000000000000, -0.000000000000000000, -0.000000000000000000 ) ) ;
#577 = AXIS2_PLACEMENT_3D ( 'NONE', #947, #1051, #148 ) ;
#578 = ORIENTED_EDGE ( 'NONE', *, *, #793, .T. ) ;
#579 = DIRECTION ( 'NONE',  ( -1.000000000000000000, 0.000000000000000000, -0.000000000000000000 ) ) ;
#580 = VERTEX_POINT ( 'NONE', #188 ) ;
#581 = CARTESIAN_POINT ( 'NONE',  ( 0.000000000000000000, 5.158353357576410225, 4.004441996189754605 ) ) ;
#582 = DIRECTION ( 'NONE',  ( -1.000000000000000000, 0.000000000000000000, 0.000000000000000000 ) ) ;
#583 = VERTEX_POINT ( 'NONE', #511 ) ;
#584 = PLANE ( 'NONE',  #1300 ) ;
#585 = DIRECTION ( 'NONE',  ( 1.000000000000000000, 0.000000000000000000, 0.000000000000000000 ) ) ;
#586 = EDGE_CURVE ( 'NONE', #1101, #627, #10, .T. ) ;
#587 = CARTESIAN_POINT ( 'NONE',  ( 5.000000000000000888, 7.018002735845877638, 3.813566508891859108 ) ) ;
#588 = CARTESIAN_POINT ( 'NONE',  ( 0.000000000000000000, 7.076410089531196768, 6.524189240412302304 ) ) ;
#589 = CIRCLE ( 'NONE', #287, 8.137916776982168088 ) ;
#590 = EDGE_LOOP ( 'NONE', ( #379, #96, #433, #1237 ) ) ;
#591 = CARTESIAN_POINT ( 'NONE',  ( 2.500000000000000444, 2.866256284924369790, 9.188318666059755557 ) ) ;
#592 = CARTESIAN_POINT ( 'NONE',  ( 2.500000000000000444, -2.866256284924434183, 9.188318666059734241 ) ) ;
#593 = ADVANCED_FACE ( 'NONE', ( #436 ), #37, .T. ) ;
#594 = CARTESIAN_POINT ( 'NONE',  ( 5.000000000000000888, 7.018002735845877638, 3.813566508891859108 ) ) ;
#595 = ORIENTED_EDGE ( 'NONE', *, *, #983, .F. ) ;
#596 = CARTESIAN_POINT ( 'NONE',  ( -26.92006357444247655, 9.641410180234524674, -18.65591621273182454 ) ) ;
#597 = DIRECTION ( 'NONE',  ( 0.000000000000000000, 0.000000000000000000, 1.000000000000000000 ) ) ;
#598 = CARTESIAN_POINT ( 'NONE',  ( 5.000000000000000888, -40.00000000000000711, 3.719750000002449042 ) ) ;
#599 = ORIENTED_EDGE ( 'NONE', *, *, #1121, .T. ) ;
#600 = EDGE_CURVE ( 'NONE', #557, #1195, #712, .T. ) ;
#601 = EDGE_CURVE ( 'NONE', #350, #315, #91, .T. ) ;
#602 = FACE_BOUND ( 'NONE', #428, .T. ) ;
#603 = DIRECTION ( 'NONE',  ( 0.000000000000000000, 0.000000000000000000, -1.000000000000000000 ) ) ;
#604 = DIRECTION ( 'NONE',  ( 0.000000000000000000, -1.000000000000000000, 1.380677628100161499E-17 ) ) ;
#605 = AXIS2_PLACEMENT_3D ( 'NONE', #536, #452, #935 ) ;
#606 = EDGE_CURVE ( 'NONE', #167, #639, #589, .T. ) ;
#607 = ORIENTED_EDGE ( 'NONE', *, *, #923, .F. ) ;
#608 = DIRECTION ( 'NONE',  ( 0.000000000000000000, 1.000000000000000000, 3.416879573894992532E-15 ) ) ;
#609 = CIRCLE ( 'NONE', #377, 6.530249999997550958 ) ;
#610 = CARTESIAN_POINT ( 'NONE',  ( 5.000000000000000888, -4.170985398625330909, 6.811646843644798999 ) ) ;
#611 = DIRECTION ( 'NONE',  ( -1.000000000000000000, -0.000000000000000000, 0.000000000000000000 ) ) ;
#612 = ORIENTED_EDGE ( 'NONE', *, *, #717, .F. ) ;
#613 = CIRCLE ( 'NONE', #1273, 1.500000000000001554 ) ;
#614 = EDGE_LOOP ( 'NONE', ( #481, #743, #158, #201 ) ) ;
#615 = CARTESIAN_POINT ( 'NONE',  ( 5.000000000000000888, 0.000000000000000000, 0.000000000000000000 ) ) ;
#616 = PRODUCT_DEFINITION ( 'General', '', #1284, #703 ) ;
#617 = AXIS2_PLACEMENT_3D ( 'NONE', #80, #1277, #865 ) ;
#618 = CARTESIAN_POINT ( 'NONE',  ( -51.41984052872976463, -3.860229896674359562, 5.267142508731796902 ) ) ;
#619 = CARTESIAN_POINT ( 'NONE',  ( 2.500000000000000444, 7.076410089531196768, 6.524189240412302304 ) ) ;
#620 = VERTEX_POINT ( 'NONE', #644 ) ;
#621 = VERTEX_POINT ( 'NONE', #1142 ) ;
#622 = LINE ( 'NONE', #423, #722 ) ;
#623 = DIRECTION ( 'NONE',  ( 0.000000000000000000, 0.000000000000000000, -1.000000000000000000 ) ) ;
#624 = EDGE_CURVE ( 'NONE', #1166, #1276, #1074, .T. ) ;
#625 = DIRECTION ( 'NONE',  ( -1.000000000000000000, 0.000000000000000000, 0.000000000000000000 ) ) ;
#626 = CIRCLE ( 'NONE', #1298, 1.500000000000001332 ) ;
#627 = VERTEX_POINT ( 'NONE', #209 ) ;
#628 = CARTESIAN_POINT ( 'NONE',  ( 50.00005079999999680, 0.000000000000000000, 0.000000000000000000 ) ) ;
#629 = AXIS2_PLACEMENT_3D ( 'NONE', #808, #8, #187 ) ;
#630 = ORIENTED_EDGE ( 'NONE', *, *, #923, .T. ) ;
#631 = DIRECTION ( 'NONE',  ( -1.000000000000000000, -0.000000000000000000, -0.000000000000000000 ) ) ;
#632 = FACE_OUTER_BOUND ( 'NONE', #1046, .T. ) ;
#633 = ORIENTED_EDGE ( 'NONE', *, *, #68, .F. ) ;
#634 = CARTESIAN_POINT ( 'NONE',  ( 0.000000000000000000, 9.390445525336682309, -2.111908576528542802 ) ) ;
#635 = CIRCLE ( 'NONE', #1096, 3.299999999998762146 ) ;
#636 = ORIENTED_EDGE ( 'NONE', *, *, #702, .T. ) ;
#637 = CARTESIAN_POINT ( 'NONE',  ( 5.000000000000000888, 3.813566508891834683, 7.018002735845891848 ) ) ;
#638 = DIRECTION ( 'NONE',  ( -1.000000000000000000, 0.000000000000000000, -0.000000000000000000 ) ) ;
#639 = VERTEX_POINT ( 'NONE', #139 ) ;
#640 = FACE_OUTER_BOUND ( 'NONE', #1132, .T. ) ;
#641 = AXIS2_PLACEMENT_3D ( 'NONE', #506, #500, #123 ) ;
#642 = ADVANCED_FACE ( 'NONE', ( #851 ), #23, .T. ) ;
#643 = ORIENTED_EDGE ( 'NONE', *, *, #1093, .F. ) ;
#644 = CARTESIAN_POINT ( 'NONE',  ( 5.000000000000000888, 2.465044051263041158, 6.047125175469805214 ) ) ;
#645 = DIRECTION ( 'NONE',  ( 0.000000000000000000, 0.000000000000000000, 1.000000000000000000 ) ) ;
#646 = CYLINDRICAL_SURFACE ( 'NONE', #780, 12.00000000000000178 ) ;
#647 = ORIENTED_EDGE ( 'NONE', *, *, #283, .T. ) ;
#648 = CARTESIAN_POINT ( 'NONE',  ( 5.000000000000000888, -0.8887718178934059798, 6.469486047452801536 ) ) ;
#649 = PRODUCT ( 'Part 2 T307', 'Part 2 T307', '', ( #940 ) ) ;
#650 = VERTEX_POINT ( 'NONE', #454 ) ;
#651 = CARTESIAN_POINT ( 'NONE',  ( 5.000000000000000888, 9.641410180234535332, -6.517999435749656456 ) ) ;
#652 = EDGE_CURVE ( 'NONE', #856, #1223, #1175, .T. ) ;
#653 = VECTOR ( 'NONE', #604, 1000.000000000000000 ) ;
#654 = DIRECTION ( 'NONE',  ( 0.000000000000000000, 0.000000000000000000, 1.000000000000000000 ) ) ;
#655 = CARTESIAN_POINT ( 'NONE',  ( 0.000000000000000000, 7.984551907517147384, 0.2063558922011750063 ) ) ;
#656 = ORIENTED_EDGE ( 'NONE', *, *, #1244, .F. ) ;
#657 = CIRCLE ( 'NONE', #992, 3.299999999998762146 ) ;
#658 = CARTESIAN_POINT ( 'NONE',  ( 5.000000000000000888, -0.2063558922010912955, 7.984551907517150937 ) ) ;
#659 = AXIS2_PLACEMENT_3D ( 'NONE', #740, #1238, #121 ) ;
#660 = ORIENTED_EDGE ( 'NONE', *, *, #451, .F. ) ;
#661 = LINE ( 'NONE', #247, #116 ) ;
#662 = CARTESIAN_POINT ( 'NONE',  ( 0.000000000000000000, 9.188318666059744899, 2.866256284924401321 ) ) ;
#663 = EDGE_CURVE ( 'NONE', #1113, #687, #760, .T. ) ;
#664 = ORIENTED_EDGE ( 'NONE', *, *, #176, .F. ) ;
#665 = AXIS2_PLACEMENT_3D ( 'NONE', #362, #168, #575 ) ;
#666 = CARTESIAN_POINT ( 'NONE',  ( 2.500000000000000444, 9.188318666059744899, 2.866256284924401321 ) ) ;
#667 = ORIENTED_EDGE ( 'NONE', *, *, #309, .T. ) ;
#668 = DIRECTION ( 'NONE',  ( -1.000000000000000000, 0.000000000000000000, 0.000000000000000000 ) ) ;
#669 = DIRECTION ( 'NONE',  ( 0.000000000000000000, 0.000000000000000000, -1.000000000000000000 ) ) ;
#670 = FACE_OUTER_BOUND ( 'NONE', #960, .T. ) ;
#671 = ADVANCED_FACE ( 'NONE', ( #1149 ), #857, .T. ) ;
#672 = CARTESIAN_POINT ( 'NONE',  ( 0.000000000000000000, 0.2063558922010357843, 7.984551907517152713 ) ) ;
#673 = ORIENTED_EDGE ( 'NONE', *, *, #281, .F. ) ;
#674 = FACE_OUTER_BOUND ( 'NONE', #709, .T. ) ;
#675 = DIRECTION ( 'NONE',  ( 0.000000000000000000, 0.000000000000000000, -1.000000000000000000 ) ) ;
#676 = AXIS2_PLACEMENT_3D ( 'NONE', #896, #472, #381 ) ;
#677 = DIRECTION ( 'NONE',  ( -1.000000000000000000, -0.000000000000000000, -0.000000000000000000 ) ) ;
#678 = AXIS2_PLACEMENT_3D ( 'NONE', #1033, #733, #748 ) ;
#679 = DIRECTION ( 'NONE',  ( -1.000000000000000000, -0.000000000000000000, 0.000000000000000000 ) ) ;
#680 = EDGE_LOOP ( 'NONE', ( #1242 ) ) ;
#681 = CARTESIAN_POINT ( 'NONE',  ( 0.000000000000000000, 0.000000000000000000, 0.000000000000000000 ) ) ;
#682 = DIRECTION ( 'NONE',  ( 0.000000000000000000, 1.000000000000000000, 3.416879573894992532E-15 ) ) ;
#683 = LINE ( 'NONE', #592, #721 ) ;
#684 = DIRECTION ( 'NONE',  ( -1.000000000000000000, 0.000000000000000000, 0.000000000000000000 ) ) ;
#685 = EDGE_CURVE ( 'NONE', #583, #350, #317, .T. ) ;
#686 = CYLINDRICAL_SURFACE ( 'NONE', #1076, 3.299999999998762146 ) ;
#687 = VERTEX_POINT ( 'NONE', #132 ) ;
#688 = FACE_OUTER_BOUND ( 'NONE', #870, .T. ) ;
#689 = EDGE_CURVE ( 'NONE', #868, #185, #622, .T. ) ;
#690 = ORIENTED_EDGE ( 'NONE', *, *, #1169, .F. ) ;
#691 = AXIS2_PLACEMENT_3D ( 'NONE', #514, #911, #692 ) ;
#692 = DIRECTION ( 'NONE',  ( 0.000000000000000000, 0.000000000000000000, -1.000000000000000000 ) ) ;
#693 = VERTEX_POINT ( 'NONE', #241 ) ;
#694 = FILL_AREA_STYLE_COLOUR ( '', #1207 ) ;
#695 = CARTESIAN_POINT ( 'NONE',  ( 5.000000000000000888, 0.000000000000000000, 0.000000000000000000 ) ) ;
#696 = EDGE_CURVE ( 'NONE', #510, #1079, #1086, .T. ) ;
#697 = CARTESIAN_POINT ( 'NONE',  ( 0.000000000000000000, 9.188318666059783979, -2.866256284924272535 ) ) ;
#698 = ORIENTED_EDGE ( 'NONE', *, *, #601, .F. ) ;
#699 = DIRECTION ( 'NONE',  ( 0.000000000000000000, -6.982962677686266711E-15, 1.000000000000000000 ) ) ;
#700 = DIRECTION ( 'NONE',  ( 0.000000000000000000, 0.000000000000000000, -1.000000000000000000 ) ) ;
#701 = EDGE_LOOP ( 'NONE', ( #1032 ) ) ;
#702 = EDGE_CURVE ( 'NONE', #167, #537, #1024, .T. ) ;
#703 = PRODUCT_DEFINITION_CONTEXT ( 'detailed design', #357, 'design' ) ;
#704 = SURFACE_STYLE_FILL_AREA ( #1097 ) ;
#705 = DIRECTION ( 'NONE',  ( 1.000000000000000000, 0.000000000000000000, 0.000000000000000000 ) ) ;
#706 = DIRECTION ( 'NONE',  ( 0.000000000000000000, 0.8660254037844397068, -0.4999999999999980571 ) ) ;
#707 = VERTEX_POINT ( 'NONE', #147 ) ;
#708 = AXIS2_PLACEMENT_3D ( 'NONE', #306, #1021, #392 ) ;
#709 = EDGE_LOOP ( 'NONE', ( #889, #61, #958, #161 ) ) ;
#710 = CARTESIAN_POINT ( 'NONE',  ( 0.000000000000000000, 9.641410180234542437, -22.65591621273184231 ) ) ;
#711 = DIRECTION ( 'NONE',  ( -1.000000000000000000, 0.000000000000000000, 0.000000000000000000 ) ) ;
#712 = CIRCLE ( 'NONE', #527, 5.000000000000000888 ) ;
#713 = CARTESIAN_POINT ( 'NONE',  ( 5.000000000000000888, -8.589273834258133178, 3.719750000002448598 ) ) ;
#714 = EDGE_LOOP ( 'NONE', ( #998, #497, #276, #361 ) ) ;
#715 = EDGE_LOOP ( 'NONE', ( #573 ) ) ;
#716 = LINE ( 'NONE', #591, #884 ) ;
#717 = EDGE_CURVE ( 'NONE', #112, #570, #456, .T. ) ;
#718 = CARTESIAN_POINT ( 'NONE',  ( 5.000000000000000888, 9.641410180234519345, -18.65591621273182810 ) ) ;
#719 = VERTEX_POINT ( 'NONE', #333 ) ;
#720 = ORIENTED_EDGE ( 'NONE', *, *, #192, .T. ) ;
#721 = VECTOR ( 'NONE', #1176, 1000.000000000000000 ) ;
#722 = VECTOR ( 'NONE', #828, 1000.000000000000000 ) ;
#723 = EDGE_LOOP ( 'NONE', ( #36, #1124, #899, #265 ) ) ;
#724 = DIRECTION ( 'NONE',  ( -1.000000000000000000, 0.000000000000000000, -0.000000000000000000 ) ) ;
#725 = EDGE_CURVE ( 'NONE', #551, #537, #260, .T. ) ;
#726 = CARTESIAN_POINT ( 'NONE',  ( -51.41984052872976463, -11.91833740553767029, -6.530249999997551846 ) ) ;
#727 = CARTESIAN_POINT ( 'NONE',  ( 0.000000000000000000, -10.51795955552502626, -2.905249999997552734 ) ) ;
#728 = CIRCLE ( 'NONE', #565, 3.299999999998762146 ) ;
#729 = VERTEX_POINT ( 'NONE', #756 ) ;
#730 = FACE_OUTER_BOUND ( 'NONE', #786, .T. ) ;
#731 = AXIS2_PLACEMENT_3D ( 'NONE', #165, #571, #1274 ) ;
#732 = EDGE_LOOP ( 'NONE', ( #5, #768, #334, #471 ) ) ;
#733 = DIRECTION ( 'NONE',  ( 1.000000000000000000, 0.000000000000000000, 0.000000000000000000 ) ) ;
#734 = DIRECTION ( 'NONE',  ( 0.000000000000000000, 0.000000000000000000, 1.000000000000000000 ) ) ;
#735 = CYLINDRICAL_SURFACE ( 'NONE', #243, 6.530249999997550958 ) ;
#736 = ORIENTED_EDGE ( 'NONE', *, *, #421, .F. ) ;
#737 = ADVANCED_FACE ( 'NONE', ( #1260, #765 ), #255, .F. ) ;
#738 = CARTESIAN_POINT ( 'NONE',  ( 5.000000000000000888, 2.866256284924370679, 9.188318666059752005 ) ) ;
#739 = VERTEX_POINT ( 'NONE', #980 ) ;
#740 = CARTESIAN_POINT ( 'NONE',  ( 5.000000000000000888, 0.000000000000000000, 0.000000000000000000 ) ) ;
#741 = CARTESIAN_POINT ( 'NONE',  ( 0.000000000000000000, -40.00000000000000711, 5.469750000002446377 ) ) ;
#742 = CARTESIAN_POINT ( 'NONE',  ( 0.000000000000000000, 0.000000000000000000, 0.000000000000000000 ) ) ;
#743 = ORIENTED_EDGE ( 'NONE', *, *, #249, .T. ) ;
#744 = DIRECTION ( 'NONE',  ( 0.000000000000000000, -1.000000000000000000, 0.000000000000000000 ) ) ;
#745 = EDGE_CURVE ( 'NONE', #327, #729, #661, .T. ) ;
#746 = AXIS2_PLACEMENT_3D ( 'NONE', #775, #384, #1168 ) ;
#747 = ORIENTED_EDGE ( 'NONE', *, *, #725, .T. ) ;
#748 = DIRECTION ( 'NONE',  ( 0.000000000000000000, 0.000000000000000000, -1.000000000000000000 ) ) ;
#749 = DIRECTION ( 'NONE',  ( 0.000000000000000000, 0.000000000000000000, 1.000000000000000000 ) ) ;
#750 = SHAPE_DEFINITION_REPRESENTATION ( #450, #213 ) ;
#751 = EDGE_LOOP ( 'NONE', ( #1151 ) ) ;
#752 = CIRCLE ( 'NONE', #811, 3.299999999998762146 ) ;
#753 = PLANE ( 'NONE',  #335 ) ;
#754 = EDGE_CURVE ( 'NONE', #707, #510, #1160, .T. ) ;
#755 = EDGE_LOOP ( 'NONE', ( #747, #761, #353, #1249, #26, #612, #736, #269, #1061, #108, #698, #394, #1301, #131, #107, #1016, #93, #912, #473, #781, #559, #850, #374, #578, #895, #917, #214, #562, #119, #198, #42, #76 ) ) ;
#756 = CARTESIAN_POINT ( 'NONE',  ( 0.000000000000000000, 6.469486047452805089, 0.8887718178933834423 ) ) ;
#757 = EDGE_CURVE ( 'NONE', #1159, #164, #474, .T. ) ;
#758 = CIRCLE ( 'NONE', #544, 1.500000000000001776 ) ;
#759 = FACE_OUTER_BOUND ( 'NONE', #714, .T. ) ;
#760 = CIRCLE ( 'NONE', #351, 6.530249999997550958 ) ;
#761 = ORIENTED_EDGE ( 'NONE', *, *, #881, .T. ) ;
#762 = CARTESIAN_POINT ( 'NONE',  ( 5.000000000000000888, 0.000000000000000000, 0.000000000000000000 ) ) ;
#763 = CIRCLE ( 'NONE', #1137, 12.00000000000000000 ) ;
#764 = ORIENTED_EDGE ( 'NONE', *, *, #180, .F. ) ;
#765 = FACE_OUTER_BOUND ( 'NONE', #715, .T. ) ;
#766 = DIRECTION ( 'NONE',  ( 0.000000000000000000, 0.000000000000000000, -1.000000000000000000 ) ) ;
#767 = EDGE_CURVE ( 'NONE', #1272, #167, #1042, .T. ) ;
#768 = ORIENTED_EDGE ( 'NONE', *, *, #505, .F. ) ;
#769 = CYLINDRICAL_SURFACE ( 'NONE', #731, 3.299999999998762146 ) ;
#770 = ORIENTED_EDGE ( 'NONE', *, *, #795, .T. ) ;
#771 = PLANE ( 'NONE',  #880 ) ;
#772 = CIRCLE ( 'NONE', #492, 17.47534511765833187 ) ;
#773 = CARTESIAN_POINT ( 'NONE',  ( 5.000000000000000888, 6.811646843644814098, 4.170985398625307816 ) ) ;
#774 = ADVANCED_FACE ( 'NONE', ( #674 ), #771, .T. ) ;
#775 = CARTESIAN_POINT ( 'NONE',  ( 0.000000000000000000, 9.641410180234519345, -18.65591621273182810 ) ) ;
#776 = LINE ( 'NONE', #85, #216 ) ;
#777 = ORIENTED_EDGE ( 'NONE', *, *, #555, .T. ) ;
#778 = FACE_OUTER_BOUND ( 'NONE', #1108, .T. ) ;
#779 = DIRECTION ( 'NONE',  ( 1.000000000000000000, 0.000000000000000000, 0.000000000000000000 ) ) ;
#780 = AXIS2_PLACEMENT_3D ( 'NONE', #33, #25, #540 ) ;
#781 = ORIENTED_EDGE ( 'NONE', *, *, #192, .F. ) ;
#782 = CARTESIAN_POINT ( 'NONE',  ( 5.000000000000000888, 6.047125175469830971, -2.465044051262977653 ) ) ;
#783 = EDGE_CURVE ( 'NONE', #945, #977, #1269, .T. ) ;
#784 = ORIENTED_EDGE ( 'NONE', *, *, #1078, .F. ) ;
#785 = LINE ( 'NONE', #256, #170 ) ;
#786 = EDGE_LOOP ( 'NONE', ( #1235 ) ) ;
#787 = DIRECTION ( 'NONE',  ( 0.000000000000000000, 0.000000000000000000, 1.000000000000000000 ) ) ;
#788 = ADVANCED_FACE ( 'NONE', ( #467 ), #1071, .T. ) ;
#789 = CARTESIAN_POINT ( 'NONE',  ( 0.000000000000000000, 6.047125175469830971, -2.465044051262977653 ) ) ;
#790 = AXIS2_PLACEMENT_3D ( 'NONE', #718, #1122, #1210 ) ;
#791 = CYLINDRICAL_SURFACE ( 'NONE', #832, 9.624999999996390443 ) ;
#792 = FACE_OUTER_BOUND ( 'NONE', #614, .T. ) ;
#793 = EDGE_CURVE ( 'NONE', #739, #443, #1197, .T. ) ;
#794 = SURFACE_STYLE_USAGE ( .BOTH. , #913 ) ;
#795 = EDGE_CURVE ( 'NONE', #693, #1101, #153, .T. ) ;
#796 = CYLINDRICAL_SURFACE ( 'NONE', #157, 3.299999999998762146 ) ;
#797 = AXIS2_PLACEMENT_3D ( 'NONE', #672, #385, #252 ) ;
#798 = DIRECTION ( 'NONE',  ( -1.000000000000000000, 0.000000000000000000, -0.000000000000000000 ) ) ;
#799 = VERTEX_POINT ( 'NONE', #581 ) ;
#800 = CARTESIAN_POINT ( 'NONE',  ( 5.000000000000000888, 9.641410180234524674, -18.65591621273182454 ) ) ;
#801 = ADVANCED_FACE ( 'NONE', ( #878, #155, #368, #778, #1172 ), #270, .F. ) ;
#802 = CYLINDRICAL_SURFACE ( 'NONE', #407, 6.530249999997550958 ) ;
#803 = DIRECTION ( 'NONE',  ( 1.000000000000000000, 0.000000000000000000, 0.000000000000000000 ) ) ;
#804 = ORIENTED_EDGE ( 'NONE', *, *, #717, .T. ) ;
#805 = DIRECTION ( 'NONE',  ( 1.000000000000000000, -0.000000000000000000, -0.000000000000000000 ) ) ;
#806 = CYLINDRICAL_SURFACE ( 'NONE', #641, 6.530249999997550958 ) ;
#807 = CIRCLE ( 'NONE', #1085, 1.500000000000000888 ) ;
#808 = CARTESIAN_POINT ( 'NONE',  ( 5.000000000000000888, 7.984551907517147384, 0.2063558922011750063 ) ) ;
#809 = ORIENTED_EDGE ( 'NONE', *, *, #465, .T. ) ;
#810 = ORIENTED_EDGE ( 'NONE', *, *, #757, .F. ) ;
#811 = AXIS2_PLACEMENT_3D ( 'NONE', #658, #558, #529 ) ;
#812 = DIRECTION ( 'NONE',  ( 1.000000000000000000, 0.000000000000000000, 0.000000000000000000 ) ) ;
#813 = VECTOR ( 'NONE', #87, 1000.000000000000000 ) ;
#814 = FACE_OUTER_BOUND ( 'NONE', #1075, .T. ) ;
#815 = LINE ( 'NONE', #496, #503 ) ;
#816 = ORIENTED_EDGE ( 'NONE', *, *, #371, .T. ) ;
#817 = AXIS2_PLACEMENT_3D ( 'NONE', #957, #625, #1027 ) ;
#818 = EDGE_CURVE ( 'NONE', #854, #620, #752, .T. ) ;
#819 = ORIENTED_EDGE ( 'NONE', *, *, #39, .F. ) ;
#820 = DIRECTION ( 'NONE',  ( 1.000000000000000000, 0.000000000000000000, 0.000000000000000000 ) ) ;
#821 = DIRECTION ( 'NONE',  ( 0.000000000000000000, 1.000000000000000000, 3.416879573894992532E-15 ) ) ;
#822 = CARTESIAN_POINT ( 'NONE',  ( 0.000000000000000000, 9.641410180234524674, -20.15591621273182454 ) ) ;
#823 = ORIENTED_EDGE ( 'NONE', *, *, #364, .F. ) ;
#824 = VECTOR ( 'NONE', #340, 1000.000000000000000 ) ;
#825 = EDGE_CURVE ( 'NONE', #1004, #627, #1230, .T. ) ;
#826 = VERTEX_POINT ( 'NONE', #35 ) ;
#827 = CIRCLE ( 'NONE', #53, 6.530249999997550958 ) ;
#828 = DIRECTION ( 'NONE',  ( 1.000000000000000000, 0.000000000000000000, 0.000000000000000000 ) ) ;
#829 = DIRECTION ( 'NONE',  ( -1.000000000000000000, 0.000000000000000000, 0.000000000000000000 ) ) ;
#830 = DIRECTION ( 'NONE',  ( 0.000000000000000000, 0.000000000000000000, 1.000000000000000000 ) ) ;
#831 = VERTEX_POINT ( 'NONE', #1035 ) ;
#832 = AXIS2_PLACEMENT_3D ( 'NONE', #365, #677, #1185 ) ;
#833 = DIRECTION ( 'NONE',  ( 1.000000000000000000, 0.000000000000000000, 0.000000000000000000 ) ) ;
#834 = VECTOR ( 'NONE', #330, 1000.000000000000000 ) ;
#835 = EDGE_LOOP ( 'NONE', ( #1171, #927, #979, #548 ) ) ;
#836 = LINE ( 'NONE', #726, #509 ) ;
#837 = EDGE_CURVE ( 'NONE', #29, #1208, #458, .T. ) ;
#838 = FACE_OUTER_BOUND ( 'NONE', #15, .T. ) ;
#839 = VERTEX_POINT ( 'NONE', #434 ) ;
#840 = CARTESIAN_POINT ( 'NONE',  ( 5.000000000000000888, 7.469991942955002351, -8.783273047937818490 ) ) ;
#841 = AXIS2_PLACEMENT_3D ( 'NONE', #1105, #195, #830 ) ;
#842 = ORIENTED_EDGE ( 'NONE', *, *, #1078, .T. ) ;
#843 = DIRECTION ( 'NONE',  ( 0.000000000000000000, 0.000000000000000000, 1.000000000000000000 ) ) ;
#844 = CARTESIAN_POINT ( 'NONE',  ( 0.000000000000000000, -40.00000000000000711, 5.469750000002446377 ) ) ;
#845 = AXIS2_PLACEMENT_3D ( 'NONE', #282, #356, #766 ) ;
#846 = ADVANCED_FACE ( 'NONE', ( #43 ), #753, .T. ) ;
#847 = CARTESIAN_POINT ( 'NONE',  ( 5.000000000000000888, -35.51795955552502448, 0.09475000000244682141 ) ) ;
#848 = VERTEX_POINT ( 'NONE', #1031 ) ;
#849 = DIRECTION ( 'NONE',  ( 0.000000000000000000, 0.000000000000000000, 1.000000000000000000 ) ) ;
#850 = ORIENTED_EDGE ( 'NONE', *, *, #624, .F. ) ;
#851 = FACE_OUTER_BOUND ( 'NONE', #590, .T. ) ;
#852 = CARTESIAN_POINT ( 'NONE',  ( 5.000000000000000888, -0.8887718178934059798, 6.469486047452801536 ) ) ;
#853 = DIRECTION ( 'NONE',  ( 0.000000000000000000, 0.000000000000000000, 1.000000000000000000 ) ) ;
#854 = VERTEX_POINT ( 'NONE', #738 ) ;
#855 = CARTESIAN_POINT ( 'NONE',  ( 5.000000000000000888, -40.00000000000000711, 5.469750000002446377 ) ) ;
#856 = VERTEX_POINT ( 'NONE', #634 ) ;
#857 = CYLINDRICAL_SURFACE ( 'NONE', #296, 3.299999999998762146 ) ;
#858 = AXIS2_PLACEMENT_3D ( 'NONE', #74, #1065, #482 ) ;
#859 = DIRECTION ( 'NONE',  ( 0.000000000000000000, 0.000000000000000000, 1.000000000000000000 ) ) ;
#860 = ORIENTED_EDGE ( 'NONE', *, *, #1271, .F. ) ;
#861 = CIRCLE ( 'NONE', #1025, 8.000000000000000000 ) ;
#862 = DIRECTION ( 'NONE',  ( 0.000000000000000000, 0.000000000000000000, -1.000000000000000000 ) ) ;
#863 = EDGE_CURVE ( 'NONE', #1286, #103, #827, .T. ) ;
#864 = ORIENTED_EDGE ( 'NONE', *, *, #685, .T. ) ;
#865 = DIRECTION ( 'NONE',  ( 0.000000000000000000, 0.000000000000000000, 1.000000000000000000 ) ) ;
#866 = AXIS2_PLACEMENT_3D ( 'NONE', #1, #900, #111 ) ;
#867 = FACE_OUTER_BOUND ( 'NONE', #970, .T. ) ;
#868 = VERTEX_POINT ( 'NONE', #60 ) ;
#869 = LINE ( 'NONE', #666, #1129 ) ;
#870 = EDGE_LOOP ( 'NONE', ( #1264, #636, #220, #34 ) ) ;
#871 = DIRECTION ( 'NONE',  ( -1.000000000000000000, 0.000000000000000000, -0.000000000000000000 ) ) ;
#872 = PRODUCT_RELATED_PRODUCT_CATEGORY ( 'part', '', ( #649 ) ) ;
#873 = DIRECTION ( 'NONE',  ( -1.000000000000000000, 0.000000000000000000, 0.000000000000000000 ) ) ;
#874 = AXIS2_PLACEMENT_3D ( 'NONE', #681, #70, #354 ) ;
#875 = LINE ( 'NONE', #1163, #133 ) ;
#876 = CARTESIAN_POINT ( 'NONE',  ( 0.000000000000000000, 0.000000000000000000, 0.000000000000000000 ) ) ;
#877 = ORIENTED_EDGE ( 'NONE', *, *, #767, .T. ) ;
#878 = FACE_BOUND ( 'NONE', #435, .T. ) ;
#879 = CARTESIAN_POINT ( 'NONE',  ( 5.000000000000000888, 7.984551907517147384, 0.2063558922011750063 ) ) ;
#880 = AXIS2_PLACEMENT_3D ( 'NONE', #162, #175, #567 ) ;
#881 = EDGE_CURVE ( 'NONE', #537, #103, #253, .T. ) ;
#882 = CYLINDRICAL_SURFACE ( 'NONE', #1250, 3.299999999998762146 ) ;
#883 = DIRECTION ( 'NONE',  ( 0.000000000000000000, 0.000000000000000000, -1.000000000000000000 ) ) ;
#884 = VECTOR ( 'NONE', #805, 1000.000000000000000 ) ;
#885 = EDGE_LOOP ( 'NONE', ( #1106 ) ) ;
#886 = CARTESIAN_POINT ( 'NONE',  ( 0.000000000000000000, 0.000000000000000000, 0.000000000000000000 ) ) ;
#887 = DIRECTION ( 'NONE',  ( 0.000000000000000000, 0.000000000000000000, 1.000000000000000000 ) ) ;
#888 = AXIS2_PLACEMENT_3D ( 'NONE', #742, #50, #556 ) ;
#889 = ORIENTED_EDGE ( 'NONE', *, *, #150, .F. ) ;
#890 = EDGE_CURVE ( 'NONE', #79, #307, #98, .T. ) ;
#891 = DIRECTION ( 'NONE',  ( 1.000000000000000000, 0.000000000000000000, 0.000000000000000000 ) ) ;
#892 =( GEOMETRIC_REPRESENTATION_CONTEXT ( 3 ) GLOBAL_UNCERTAINTY_ASSIGNED_CONTEXT ( ( #1165 ) ) GLOBAL_UNIT_ASSIGNED_CONTEXT ( ( #1115, #298, #390 ) ) REPRESENTATION_CONTEXT ( 'NONE', 'WORKASPACE' ) );
#893 = VECTOR ( 'NONE', #1019, 1000.000000000000000 ) ;
#894 = CARTESIAN_POINT ( 'NONE',  ( 5.000000000000000888, 7.469991942955002351, -8.783273047937818490 ) ) ;
#895 = ORIENTED_EDGE ( 'NONE', *, *, #1162, .T. ) ;
#896 = CARTESIAN_POINT ( 'NONE',  ( 5.000000000000000888, 0.000000000000000000, 0.000000000000000000 ) ) ;
#897 = AXIS2_PLACEMENT_3D ( 'NONE', #560, #1058, #973 ) ;
#898 = ADVANCED_FACE ( 'NONE', ( #730, #640 ), #951, .F. ) ;
#899 = ORIENTED_EDGE ( 'NONE', *, *, #1012, .T. ) ;
#900 = DIRECTION ( 'NONE',  ( -1.000000000000000000, 0.000000000000000000, 0.000000000000000000 ) ) ;
#901 = AXIS2_PLACEMENT_3D ( 'NONE', #886, #961, #62 ) ;
#902 = EDGE_CURVE ( 'NONE', #639, #551, #1152, .T. ) ;
#903 = VERTEX_POINT ( 'NONE', #222 ) ;
#904 = CARTESIAN_POINT ( 'NONE',  ( 0.000000000000000000, -7.122026720894781171, -10.11766236859890000 ) ) ;
#905 = DIRECTION ( 'NONE',  ( -1.000000000000000000, -0.000000000000000000, 0.000000000000000000 ) ) ;
#906 = VECTOR ( 'NONE', #563, 1000.000000000000000 ) ;
#907 = CARTESIAN_POINT ( 'NONE',  ( 2.500000000000000444, 9.390445525336682309, -2.111908576528542358 ) ) ;
#908 = ORIENTED_EDGE ( 'NONE', *, *, #290, .F. ) ;
#909 = AXIS2_PLACEMENT_3D ( 'NONE', #30, #1044, #338 ) ;
#910 = CARTESIAN_POINT ( 'NONE',  ( 4.999999999999997335, 0.000000000000000000, 0.000000000000000000 ) ) ;
#911 = DIRECTION ( 'NONE',  ( 1.000000000000000000, 0.000000000000000000, 0.000000000000000000 ) ) ;
#912 = ORIENTED_EDGE ( 'NONE', *, *, #382, .F. ) ;
#913 = SURFACE_SIDE_STYLE ('',( #704 ) ) ;
#914 = DIRECTION ( 'NONE',  ( -1.000000000000000000, -0.000000000000000000, -0.000000000000000000 ) ) ;
#915 = EDGE_CURVE ( 'NONE', #729, #151, #266, .T. ) ;
#916 = DIRECTION ( 'NONE',  ( -1.000000000000000000, 0.000000000000000000, 0.000000000000000000 ) ) ;
#917 = ORIENTED_EDGE ( 'NONE', *, *, #1128, .T. ) ;
#918 = ORIENTED_EDGE ( 'NONE', *, *, #275, .T. ) ;
#919 = CARTESIAN_POINT ( 'NONE',  ( 0.000000000000000000, 4.170985398625283835, 6.811646843644828309 ) ) ;
#920 = CARTESIAN_POINT ( 'NONE',  ( 5.000000000000000888, 0.000000000000000000, 0.000000000000000000 ) ) ;
#921 = FACE_OUTER_BOUND ( 'NONE', #302, .T. ) ;
#922 = AXIS2_PLACEMENT_3D ( 'NONE', #876, #684, #1084 ) ;
#923 = EDGE_CURVE ( 'NONE', #1166, #687, #1140, .T. ) ;
#924 = CIRCLE ( 'NONE', #629, 3.299999999998762146 ) ;
#925 = ORIENTED_EDGE ( 'NONE', *, *, #268, .T. ) ;
#926 = DIRECTION ( 'NONE',  ( -1.000000000000000000, -0.000000000000000000, -0.000000000000000000 ) ) ;
#927 = ORIENTED_EDGE ( 'NONE', *, *, #1030, .F. ) ;
#928 = DIRECTION ( 'NONE',  ( -1.000000000000000000, 0.000000000000000000, 0.000000000000000000 ) ) ;
#929 = EDGE_CURVE ( 'NONE', #1195, #693, #137, .T. ) ;
#930 = VERTEX_POINT ( 'NONE', #1146 ) ;
#931 = DIRECTION ( 'NONE',  ( 0.000000000000000000, 0.000000000000000000, -1.000000000000000000 ) ) ;
#932 = FACE_OUTER_BOUND ( 'NONE', #408, .T. ) ;
#933 = CARTESIAN_POINT ( 'NONE',  ( 5.000000000000000888, 6.047125175469830971, -2.465044051262977653 ) ) ;
#934 = ORIENTED_EDGE ( 'NONE', *, *, #975, .F. ) ;
#935 = DIRECTION ( 'NONE',  ( 0.000000000000000000, 0.000000000000000000, -1.000000000000000000 ) ) ;
#936 = VERTEX_POINT ( 'NONE', #648 ) ;
#937 = CARTESIAN_POINT ( 'NONE',  ( -26.92006357444247655, 4.010024085923666881, -12.39279135767251105 ) ) ;
#938 = EDGE_CURVE ( 'NONE', #627, #707, #763, .T. ) ;
#939 = DIRECTION ( 'NONE',  ( 1.000000000000000000, 0.000000000000000000, 0.000000000000000000 ) ) ;
#940 = PRODUCT_CONTEXT ( 'NONE', #1188, 'mechanical' ) ;
#941 = VERTEX_POINT ( 'NONE', #549 ) ;
#942 = DIRECTION ( 'NONE',  ( -1.000000000000000000, 0.000000000000000000, 0.000000000000000000 ) ) ;
#943 = AXIS2_PLACEMENT_3D ( 'NONE', #1089, #182, #787 ) ;
#944 = VECTOR ( 'NONE', #1056, 1000.000000000000000 ) ;
#945 = VERTEX_POINT ( 'NONE', #52 ) ;
#946 = DIRECTION ( 'NONE',  ( 0.000000000000000000, 0.000000000000000000, -1.000000000000000000 ) ) ;
#947 = CARTESIAN_POINT ( 'NONE',  ( 0.000000000000000000, 0.000000000000000000, 0.000000000000000000 ) ) ;
#948 = FACE_OUTER_BOUND ( 'NONE', #1138, .T. ) ;
#949 = AXIS2_PLACEMENT_3D ( 'NONE', #1262, #1087, #1290 ) ;
#950 = ORIENTED_EDGE ( 'NONE', *, *, #459, .F. ) ;
#951 = CYLINDRICAL_SURFACE ( 'NONE', #982, 3.500000000000000000 ) ;
#952 = AXIS2_PLACEMENT_3D ( 'NONE', #431, #631, #226 ) ;
#953 = ORIENTED_EDGE ( 'NONE', *, *, #180, .T. ) ;
#954 = DIRECTION ( 'NONE',  ( 0.000000000000000000, 0.000000000000000000, 1.000000000000000000 ) ) ;
#955 = AXIS2_PLACEMENT_3D ( 'NONE', #328, #833, #862 ) ;
#956 = FACE_OUTER_BOUND ( 'NONE', #1281, .T. ) ;
#957 = CARTESIAN_POINT ( 'NONE',  ( 5.000000000000000888, 6.811646843644814098, 4.170985398625307816 ) ) ;
#958 = ORIENTED_EDGE ( 'NONE', *, *, #1128, .F. ) ;
#959 = EDGE_CURVE ( 'NONE', #1079, #557, #343, .T. ) ;
#960 = EDGE_LOOP ( 'NONE', ( #963, #516, #337, #440 ) ) ;
#961 = DIRECTION ( 'NONE',  ( 1.000000000000000000, 0.000000000000000000, 0.000000000000000000 ) ) ;
#962 = FACE_OUTER_BOUND ( 'NONE', #478, .T. ) ;
#963 = ORIENTED_EDGE ( 'NONE', *, *, #1225, .F. ) ;
#964 = CARTESIAN_POINT ( 'NONE',  ( 5.000000000000000888, 9.641410180234542437, -22.65591621273184231 ) ) ;
#965 = EDGE_CURVE ( 'NONE', #1286, #487, #152, .T. ) ;
#966 = VERTEX_POINT ( 'NONE', #964 ) ;
#967 = DIRECTION ( 'NONE',  ( -1.000000000000000000, 0.000000000000000000, 0.000000000000000000 ) ) ;
#968 = CIRCLE ( 'NONE', #41, 3.299999999998762146 ) ;
#969 = FACE_OUTER_BOUND ( 'NONE', #174, .T. ) ;
#970 = EDGE_LOOP ( 'NONE', ( #1218, #146, #1040, #9 ) ) ;
#971 = CARTESIAN_POINT ( 'NONE',  ( 0.000000000000000000, -35.51795955552502448, -1.405249999997554733 ) ) ;
#972 = EDGE_LOOP ( 'NONE', ( #1002 ) ) ;
#973 = DIRECTION ( 'NONE',  ( 0.000000000000000000, 0.000000000000000000, -1.000000000000000000 ) ) ;
#974 = AXIS2_PLACEMENT_3D ( 'NONE', #217, #829, #749 ) ;
#975 = EDGE_CURVE ( 'NONE', #103, #1272, #372, .T. ) ;
#976 = CYLINDRICAL_SURFACE ( 'NONE', #845, 8.000000000000000000 ) ;
#977 = VERTEX_POINT ( 'NONE', #588 ) ;
#978 = CARTESIAN_POINT ( 'NONE',  ( 5.000000000000000888, -40.00000000000000711, 5.469750000002446377 ) ) ;
#979 = ORIENTED_EDGE ( 'NONE', *, *, #601, .T. ) ;
#980 = CARTESIAN_POINT ( 'NONE',  ( 5.000000000000000888, -3.860229896674359562, 5.267142508731796902 ) ) ;
#981 = CARTESIAN_POINT ( 'NONE',  ( 5.000000000000000888, -8.589273834258133178, 3.719750000002448598 ) ) ;
#983 = EDGE_CURVE ( 'NONE', #1246, #231, #869, .T. ) ;
#982 = AXIS2_PLACEMENT_3D ( 'NONE', #628, #1131, #442 ) ;
#984 = DIRECTION ( 'NONE',  ( -1.000000000000000000, -0.000000000000000000, -0.000000000000000000 ) ) ;
#985 = CARTESIAN_POINT ( 'NONE',  ( 0.000000000000000000, -50.00000000000000711, 5.469750000002448154 ) ) ;
#986 = AXIS2_PLACEMENT_3D ( 'NONE', #416, #820, #999 ) ;
#987 = LINE ( 'NONE', #1285, #813 ) ;
#988 = VECTOR ( 'NONE', #398, 1000.000000000000000 ) ;
#989 = EDGE_LOOP ( 'NONE', ( #599, #908, #65, #804 ) ) ;
#990 = EDGE_CURVE ( 'NONE', #1276, #164, #1173, .T. ) ;
#991 = DIRECTION ( 'NONE',  ( -1.000000000000000000, -0.000000000000000000, -0.000000000000000000 ) ) ;
#992 = AXIS2_PLACEMENT_3D ( 'NONE', #773, #576, #462 ) ;
#993 = CIRCLE ( 'NONE', #952, 9.624999999996388667 ) ;
#994 = FACE_BOUND ( 'NONE', #1064, .T. ) ;
#995 = ORIENTED_EDGE ( 'NONE', *, *, #1192, .T. ) ;
#996 = LINE ( 'NONE', #598, #1028 ) ;
#997 = EDGE_CURVE ( 'NONE', #40, #40, #758, .T. ) ;
#998 = ORIENTED_EDGE ( 'NONE', *, *, #564, .T. ) ;
#999 = DIRECTION ( 'NONE',  ( 0.000000000000000000, 0.000000000000000000, 1.000000000000000000 ) ) ;
#1000 = FACE_OUTER_BOUND ( 'NONE', #835, .T. ) ;
#1001 = CYLINDRICAL_SURFACE ( 'NONE', #866, 3.299999999998762146 ) ;
#1002 = ORIENTED_EDGE ( 'NONE', *, *, #1114, .F. ) ;
#1003 = CIRCLE ( 'NONE', #986, 1.500000000000000888 ) ;
#1004 = VERTEX_POINT ( 'NONE', #978 ) ;
#1005 = FACE_BOUND ( 'NONE', #181, .T. ) ;
#1006 = DIRECTION ( 'NONE',  ( 0.000000000000000000, 0.000000000000000000, 1.000000000000000000 ) ) ;
#1007 = CIRCLE ( 'NONE', #888, 6.530249999997550958 ) ;
#1008 = CARTESIAN_POINT ( 'NONE',  ( -51.41984052872976463, -38.00000000000000711, -6.530249999997553623 ) ) ;
#1009 = ORIENTED_EDGE ( 'NONE', *, *, #1216, .T. ) ;
#1010 = UNCERTAINTY_MEASURE_WITH_UNIT (LENGTH_MEASURE( 1.000000000000000082E-05 ), #1144, 'distance_accuracy_value', 'NONE');
#1011 = FACE_BOUND ( 'NONE', #415, .T. ) ;
#1012 = EDGE_CURVE ( 'NONE', #620, #848, #349, .T. ) ;
#1013 = CIRCLE ( 'NONE', #445, 3.299999999998762590 ) ;
#1014 = FACE_OUTER_BOUND ( 'NONE', #463, .T. ) ;
#1015 = CARTESIAN_POINT ( 'NONE',  ( 5.000000000000000888, -2.465044051263084679, 6.047125175469788338 ) ) ;
#1016 = ORIENTED_EDGE ( 'NONE', *, *, #818, .F. ) ;
#1017 = DIRECTION ( 'NONE',  ( 1.000000000000000000, 0.000000000000000000, 0.000000000000000000 ) ) ;
#1018 = EDGE_CURVE ( 'NONE', #848, #826, #274, .T. ) ;
#1019 = DIRECTION ( 'NONE',  ( 1.000000000000000000, 0.000000000000000000, 0.000000000000000000 ) ) ;
#1020 = AXIS2_PLACEMENT_3D ( 'NONE', #538, #444, #954 ) ;
#1021 = DIRECTION ( 'NONE',  ( -1.000000000000000000, 0.000000000000000000, 0.000000000000000000 ) ) ;
#1022 = ORIENTED_EDGE ( 'NONE', *, *, #1214, .T. ) ;
#1023 = ORIENTED_EDGE ( 'NONE', *, *, #825, .F. ) ;
#1024 = LINE ( 'NONE', #937, #834 ) ;
#1025 = AXIS2_PLACEMENT_3D ( 'NONE', #1278, #179, #669 ) ;
#1026 = LINE ( 'NONE', #1203, #31 ) ;
#1027 = DIRECTION ( 'NONE',  ( 0.000000000000000000, 0.000000000000000000, 1.000000000000000000 ) ) ;
#1028 = VECTOR ( 'NONE', #1194, 1000.000000000000000 ) ;
#1029 = ORIENTED_EDGE ( 'NONE', *, *, #564, .F. ) ;
#1030 = EDGE_CURVE ( 'NONE', #350, #799, #776, .T. ) ;
#1031 = CARTESIAN_POINT ( 'NONE',  ( 5.000000000000000888, 4.004441996189736841, 5.158353357576425324 ) ) ;
#1032 = ORIENTED_EDGE ( 'NONE', *, *, #512, .T. ) ;
#1033 = CARTESIAN_POINT ( 'NONE',  ( -26.92006357444247655, 9.641410180234542437, -5.180571095073508658 ) ) ;
#1034 = DIRECTION ( 'NONE',  ( 0.000000000000000000, 0.5000000000000009992, -0.8660254037844381525 ) ) ;
#1035 = CARTESIAN_POINT ( 'NONE',  ( 0.000000000000000000, -8.589273834258133178, 3.719750000002448598 ) ) ;
#1036 = EDGE_CURVE ( 'NONE', #493, #966, #1292, .T. ) ;
#1037 = ORIENTED_EDGE ( 'NONE', *, *, #997, .F. ) ;
#1038 = DIRECTION ( 'NONE',  ( -1.000000000000000000, 0.000000000000000000, -0.000000000000000000 ) ) ;
#1039 = DIRECTION ( 'NONE',  ( 0.000000000000000000, 0.5000000000000009992, -0.8660254037844379305 ) ) ;
#1040 = ORIENTED_EDGE ( 'NONE', *, *, #1162, .F. ) ;
#1041 = DIRECTION ( 'NONE',  ( -1.000000000000000000, 0.000000000000000000, 0.000000000000000000 ) ) ;
#1042 = CIRCLE ( 'NONE', #858, 5.000000000000000888 ) ;
#1043 = EDGE_LOOP ( 'NONE', ( #1102 ) ) ;
#1044 = DIRECTION ( 'NONE',  ( -1.000000000000000000, 0.000000000000000000, 0.000000000000000000 ) ) ;
#1045 = CARTESIAN_POINT ( 'NONE',  ( 0.000000000000000000, 2.866256284924369346, 9.188318666059755557 ) ) ;
#1046 = EDGE_LOOP ( 'NONE', ( #1153, #1205, #1229, #1009 ) ) ;
#1047 = DIRECTION ( 'NONE',  ( 1.000000000000000000, 0.000000000000000000, -0.000000000000000000 ) ) ;
#1048 = VECTOR ( 'NONE', #1117, 1000.000000000000000 ) ;
#1049 = ORIENTED_EDGE ( 'NONE', *, *, #1093, .T. ) ;
#1050 = DIRECTION ( 'NONE',  ( 0.000000000000000000, 0.000000000000000000, -1.000000000000000000 ) ) ;
#1051 = DIRECTION ( 'NONE',  ( -1.000000000000000000, -0.000000000000000000, -0.000000000000000000 ) ) ;
#1052 = ADVANCED_FACE ( 'NONE', ( #1170 ), #66, .T. ) ;
#1053 = CIRCLE ( 'NONE', #1134, 3.299999999998762146 ) ;
#1054 = VERTEX_POINT ( 'NONE', #822 ) ;
#1055 = ORIENTED_EDGE ( 'NONE', *, *, #309, .F. ) ;
#1056 = DIRECTION ( 'NONE',  ( -1.000000000000000000, -0.000000000000000000, -0.000000000000000000 ) ) ;
#1057 = ORIENTED_EDGE ( 'NONE', *, *, #319, .F. ) ;
#1058 = DIRECTION ( 'NONE',  ( -1.000000000000000000, -0.000000000000000000, -0.000000000000000000 ) ) ;
#1059 = CARTESIAN_POINT ( 'NONE',  ( 0.000000000000000000, 7.018002735845877638, 3.813566508891859108 ) ) ;
#1060 = EDGE_CURVE ( 'NONE', #687, #460, #197, .T. ) ;
#1061 = ORIENTED_EDGE ( 'NONE', *, *, #268, .F. ) ;
#1062 = DIRECTION ( 'NONE',  ( -1.000000000000000000, 0.000000000000000000, 0.000000000000000000 ) ) ;
#1063 = CIRCLE ( 'NONE', #790, 4.000000000000003553 ) ;
#1064 = EDGE_LOOP ( 'NONE', ( #57 ) ) ;
#1065 = DIRECTION ( 'NONE',  ( 1.000000000000000000, 0.000000000000000000, 0.000000000000000000 ) ) ;
#1066 = DIRECTION ( 'NONE',  ( 0.000000000000000000, -1.000000000000000000, 1.380677628100161499E-17 ) ) ;
#1067 = ORIENTED_EDGE ( 'NONE', *, *, #290, .T. ) ;
#1068 = CARTESIAN_POINT ( 'NONE',  ( 5.000000000000000888, 4.004441996189736841, 5.158353357576425324 ) ) ;
#1069 = ADVANCED_FACE ( 'NONE', ( #792 ), #584, .T. ) ;
#1070 = ORIENTED_EDGE ( 'NONE', *, *, #39, .T. ) ;
#1071 = CYLINDRICAL_SURFACE ( 'NONE', #617, 6.530249999997550958 ) ;
#1072 = VECTOR ( 'NONE', #1112, 1000.000000000000000 ) ;
#1073 = CARTESIAN_POINT ( 'NONE',  ( 0.000000000000000000, -2.866256284924433739, 9.188318666059734241 ) ) ;
#1074 = CIRCLE ( 'NONE', #909, 3.299999999998763034 ) ;
#1075 = EDGE_LOOP ( 'NONE', ( #126, #69, #1259, #630 ) ) ;
#1076 = AXIS2_PLACEMENT_3D ( 'NONE', #879, #1270, #163 ) ;
#1077 = CARTESIAN_POINT ( 'NONE',  ( 5.000000000000000888, 4.230690131217794026, -4.974477467642644868 ) ) ;
#1078 = EDGE_CURVE ( 'NONE', #487, #1272, #1090, .T. ) ;
#1079 = VERTEX_POINT ( 'NONE', #160 ) ;
#1080 = DIRECTION ( 'NONE',  ( 0.000000000000000000, 0.000000000000000000, -1.000000000000000000 ) ) ;
#1081 = AXIS2_PLACEMENT_3D ( 'NONE', #910, #7, #1116 ) ;
#1082 = DIRECTION ( 'NONE',  ( -1.000000000000000000, -0.000000000000000000, -0.000000000000000000 ) ) ;
#1083 = ORIENTED_EDGE ( 'NONE', *, *, #983, .T. ) ;
#1084 = DIRECTION ( 'NONE',  ( 0.000000000000000000, -6.982962677686266711E-15, 1.000000000000000000 ) ) ;
#1085 = AXIS2_PLACEMENT_3D ( 'NONE', #397, #1196, #1220 ) ;
#1086 = CIRCLE ( 'NONE', #1020, 5.000000000000000000 ) ;
#1087 = DIRECTION ( 'NONE',  ( -1.000000000000000000, -0.000000000000000000, -0.000000000000000000 ) ) ;
#1088 = ORIENTED_EDGE ( 'NONE', *, *, #663, .T. ) ;
#1089 = CARTESIAN_POINT ( 'NONE',  ( 5.000000000000000888, 0.2063558922010357843, 7.984551907517152713 ) ) ;
#1090 = CIRCLE ( 'NONE', #922, 6.530249999997550958 ) ;
#1091 = ORIENTED_EDGE ( 'NONE', *, *, #745, .T. ) ;
#1092 = CARTESIAN_POINT ( 'NONE',  ( 5.000000000000000888, 4.170985398625283835, 6.811646843644828309 ) ) ;
#1093 = EDGE_CURVE ( 'NONE', #839, #231, #86, .T. ) ;
#1094 = ORIENTED_EDGE ( 'NONE', *, *, #783, .F. ) ;
#1095 = LINE ( 'NONE', #1008, #393 ) ;
#1096 = AXIS2_PLACEMENT_3D ( 'NONE', #233, #424, #1256 ) ;
#1097 = FILL_AREA_STYLE ('',( #694 ) ) ;
#1098 = CARTESIAN_POINT ( 'NONE',  ( 5.000000000000000888, 9.641410180234542437, -5.180571095073508658 ) ) ;
#1099 = ADVANCED_FACE ( 'NONE', ( #360 ), #769, .T. ) ;
#1100 = CARTESIAN_POINT ( 'NONE',  ( 5.000000000000000888, 9.188318666059741346, 2.866256284924402209 ) ) ;
#1101 = VERTEX_POINT ( 'NONE', #985 ) ;
#1102 = ORIENTED_EDGE ( 'NONE', *, *, #117, .F. ) ;
#1103 = FACE_OUTER_BOUND ( 'NONE', #755, .T. ) ;
#1104 = CARTESIAN_POINT ( 'NONE',  ( 5.000000000000000888, 7.984551907517150937, -0.2063558922010635399 ) ) ;
#1105 = CARTESIAN_POINT ( 'NONE',  ( -10.00000000000000000, 0.000000000000000000, 0.000000000000000000 ) ) ;
#1106 = ORIENTED_EDGE ( 'NONE', *, *, #451, .T. ) ;
#1107 = EDGE_CURVE ( 'NONE', #79, #826, #122, .T. ) ;
#1108 = EDGE_LOOP ( 'NONE', ( #860, #842, #877, #136, #1190, #329, #228, #406, #770, #223, #1222, #777, #412, #1088, #1294, #809, #262, #367, #288, #1279, #113, #1200, #918, #138, #656, #1267, #1049, #212, #823, #358, #1067, #508 ) ) ;
#1109 = CYLINDRICAL_SURFACE ( 'NONE', #499, 1.500000000000001332 ) ;
#1110 = DIRECTION ( 'NONE',  ( 0.000000000000000000, 0.000000000000000000, -1.000000000000000000 ) ) ;
#1111 = AXIS2_PLACEMENT_3D ( 'NONE', #200, #611, #418 ) ;
#1112 = DIRECTION ( 'NONE',  ( 1.000000000000000000, 0.000000000000000000, 0.000000000000000000 ) ) ;
#1113 = VERTEX_POINT ( 'NONE', #485 ) ;
#1114 = EDGE_CURVE ( 'NONE', #719, #719, #348, .T. ) ;
#1115 =( LENGTH_UNIT ( ) NAMED_UNIT ( * ) SI_UNIT ( .MILLI., .METRE. ) );
#1116 = DIRECTION ( 'NONE',  ( 0.000000000000000000, 0.000000000000000000, 1.000000000000000000 ) ) ;
#1117 = DIRECTION ( 'NONE',  ( -1.000000000000000000, 0.000000000000000000, 0.000000000000000000 ) ) ;
#1118 = ORIENTED_EDGE ( 'NONE', *, *, #975, .T. ) ;
#1119 = ORIENTED_EDGE ( 'NONE', *, *, #795, .F. ) ;
#1120 = DIRECTION ( 'NONE',  ( 1.000000000000000000, 0.000000000000000000, 0.000000000000000000 ) ) ;
#1121 = EDGE_CURVE ( 'NONE', #570, #856, #100, .T. ) ;
#1122 = DIRECTION ( 'NONE',  ( -1.000000000000000000, 0.000000000000000000, -0.000000000000000000 ) ) ;
#1123 = EDGE_CURVE ( 'NONE', #930, #1286, #924, .T. ) ;
#1124 = ORIENTED_EDGE ( 'NONE', *, *, #521, .F. ) ;
#1125 = ORIENTED_EDGE ( 'NONE', *, *, #230, .T. ) ;
#1126 = DIRECTION ( 'NONE',  ( -1.000000000000000000, 0.000000000000000000, 0.000000000000000000 ) ) ;
#1127 = CARTESIAN_POINT ( 'NONE',  ( 5.000000000000000888, 7.984551907517150937, -0.2063558922010635399 ) ) ;
#1128 = EDGE_CURVE ( 'NONE', #185, #1004, #996, .T. ) ;
#1129 = VECTOR ( 'NONE', #1062, 1000.000000000000000 ) ;
#1130 = ORIENTED_EDGE ( 'NONE', *, *, #465, .F. ) ;
#1131 = DIRECTION ( 'NONE',  ( -1.000000000000000000, 0.000000000000000000, 0.000000000000000000 ) ) ;
#1132 = EDGE_LOOP ( 'NONE', ( #953 ) ) ;
#1133 = CARTESIAN_POINT ( 'NONE',  ( 0.000000000000000000, 0.000000000000000000, 0.000000000000000000 ) ) ;
#1134 = AXIS2_PLACEMENT_3D ( 'NONE', #469, #376, #71 ) ;
#1135 = DIRECTION ( 'NONE',  ( -1.000000000000000000, 0.000000000000000000, -0.000000000000000000 ) ) ;
#1136 = DIRECTION ( 'NONE',  ( -1.000000000000000000, 0.000000000000000000, 0.000000000000000000 ) ) ;
#1137 = AXIS2_PLACEMENT_3D ( 'NONE', #1251, #1047, #145 ) ;
#1138 = EDGE_LOOP ( 'NONE', ( #1119, #1022, #389, #154 ) ) ;
#1139 = AXIS2_PLACEMENT_3D ( 'NONE', #1248, #1143, #645 ) ;
#1140 = LINE ( 'NONE', #229, #359 ) ;
#1141 = EDGE_LOOP ( 'NONE', ( #660 ) ) ;
#1142 = CARTESIAN_POINT ( 'NONE',  ( 5.000000000000000888, 6.524189240412272106, 7.076410089531218972 ) ) ;
#1143 = DIRECTION ( 'NONE',  ( -1.000000000000000000, -0.000000000000000000, -0.000000000000000000 ) ) ;
#1144 =( LENGTH_UNIT ( ) NAMED_UNIT ( * ) SI_UNIT ( .MILLI., .METRE. ) );
#1145 = ORIENTED_EDGE ( 'NONE', *, *, #371, .F. ) ;
#1146 = CARTESIAN_POINT ( 'NONE',  ( 5.000000000000000888, 9.188318666059780426, -2.866256284924273867 ) ) ;
#1147 = VECTOR ( 'NONE', #263, 1000.000000000000000 ) ;
#1148 = EDGE_CURVE ( 'NONE', #831, #443, #12, .T. ) ;
#1149 = FACE_OUTER_BOUND ( 'NONE', #144, .T. ) ;
#1150 = CYLINDRICAL_SURFACE ( 'NONE', #225, 5.000000000000000888 ) ;
#1151 = ORIENTED_EDGE ( 'NONE', *, *, #176, .T. ) ;
#1152 = LINE ( 'NONE', #1245, #1202 ) ;
#1153 = ORIENTED_EDGE ( 'NONE', *, *, #915, .F. ) ;
#1154 = CARTESIAN_POINT ( 'NONE',  ( 2.500000000000000444, -2.111908576528575665, 9.390445525336675203 ) ) ;
#1155 = ADVANCED_FACE ( 'NONE', ( #921 ), #1204, .T. ) ;
#1156 = CYLINDRICAL_SURFACE ( 'NONE', #271, 3.299999999998762146 ) ;
#1157 = EDGE_LOOP ( 'NONE', ( #1145, #1125, #453, #1094 ) ) ;
#1158 = DIRECTION ( 'NONE',  ( 0.000000000000000000, -1.000000000000000000, 1.734723475976806848E-16 ) ) ;
#1159 = VERTEX_POINT ( 'NONE', #19 ) ;
#1160 = LINE ( 'NONE', #1282, #1147 ) ;
#1161 = CARTESIAN_POINT ( 'NONE',  ( 5.000000000000000888, 0.000000000000000000, 0.000000000000000000 ) ) ;
#1162 = EDGE_CURVE ( 'NONE', #443, #185, #1186, .T. ) ;
#1163 = CARTESIAN_POINT ( 'NONE',  ( 5.000000000000000888, 6.047125175469795444, 2.465044051263062919 ) ) ;
#1164 = CARTESIAN_POINT ( 'NONE',  ( 5.000000000000000888, 0.000000000000000000, 0.000000000000000000 ) ) ;
#1165 = UNCERTAINTY_MEASURE_WITH_UNIT (LENGTH_MEASURE( 1.000000000000000082E-05 ), #1115, 'distance_accuracy_value', 'NONE');
#1166 = VERTEX_POINT ( 'NONE', #1015 ) ;
#1167 = DIRECTION ( 'NONE',  ( -1.000000000000000000, -0.000000000000000000, -0.000000000000000000 ) ) ;
#1168 = DIRECTION ( 'NONE',  ( 0.000000000000000000, 0.000000000000000000, -1.000000000000000000 ) ) ;
#1169 = EDGE_CURVE ( 'NONE', #1254, #650, #300, .T. ) ;
#1170 = FACE_OUTER_BOUND ( 'NONE', #191, .T. ) ;
#1171 = ORIENTED_EDGE ( 'NONE', *, *, #210, .F. ) ;
#1172 = FACE_BOUND ( 'NONE', #1141, .T. ) ;
#1173 = CIRCLE ( 'NONE', #1234, 9.624999999996388667 ) ;
#1174 = CYLINDRICAL_SURFACE ( 'NONE', #1187, 8.137916776982168088 ) ;
#1175 = CIRCLE ( 'NONE', #18, 9.624999999996390443 ) ;
#1176 = DIRECTION ( 'NONE',  ( -1.000000000000000000, 0.000000000000000000, 0.000000000000000000 ) ) ;
#1177 = DIRECTION ( 'NONE',  ( 0.000000000000000000, 0.000000000000000000, 1.000000000000000000 ) ) ;
#1178 = AXIS2_PLACEMENT_3D ( 'NONE', #1059, #1135, #1240 ) ;
#1179 = ORIENTED_EDGE ( 'NONE', *, *, #990, .T. ) ;
#1180 = CYLINDRICAL_SURFACE ( 'NONE', #46, 5.000000000000000888 ) ;
#1181 = ORIENTED_EDGE ( 'NONE', *, *, #49, .F. ) ;
#1182 = DIRECTION ( 'NONE',  ( 0.000000000000000000, 0.8660254037844397068, -0.4999999999999980016 ) ) ;
#1183 = ADVANCED_FACE ( 'NONE', ( #94 ), #1001, .T. ) ;
#1184 = CARTESIAN_POINT ( 'NONE',  ( -51.41984052872976463, -8.589273834258133178, 3.719750000002448598 ) ) ;
#1185 = DIRECTION ( 'NONE',  ( 0.000000000000000000, 0.000000000000000000, 1.000000000000000000 ) ) ;
#1186 = LINE ( 'NONE', #713, #653 ) ;
#1187 = AXIS2_PLACEMENT_3D ( 'NONE', #16, #812, #395 ) ;
#1188 = APPLICATION_CONTEXT ( 'automotive_design' ) ;
#1189 = VECTOR ( 'NONE', #916, 1000.000000000000000 ) ;
#1190 = ORIENTED_EDGE ( 'NONE', *, *, #21, .F. ) ;
#1191 = CARTESIAN_POINT ( 'NONE',  ( 5.000000000000000888, 9.390445525336680532, -2.111908576528541026 ) ) ;
#1192 = EDGE_CURVE ( 'NONE', #977, #583, #411, .T. ) ;
#1193 = CARTESIAN_POINT ( 'NONE',  ( 0.000000000000000000, 4.010024085923666881, -12.39279135767251105 ) ) ;
#1194 = DIRECTION ( 'NONE',  ( 0.000000000000000000, 0.000000000000000000, 1.000000000000000000 ) ) ;
#1195 = VERTEX_POINT ( 'NONE', #285 ) ;
#1196 = DIRECTION ( 'NONE',  ( 1.000000000000000000, 0.000000000000000000, 0.000000000000000000 ) ) ;
#1197 = CIRCLE ( 'NONE', #665, 8.000000000000000000 ) ;
#1198 = EDGE_CURVE ( 'NONE', #848, #621, #968, .T. ) ;
#1199 = CARTESIAN_POINT ( 'NONE',  ( 0.000000000000000000, 0.8887718178933600166, 6.469486047452806865 ) ) ;
#1200 = ORIENTED_EDGE ( 'NONE', *, *, #1107, .T. ) ;
#1201 = LINE ( 'NONE', #114, #301 ) ;
#1202 = VECTOR ( 'NONE', #129, 1000.000000000000000 ) ;
#1203 = CARTESIAN_POINT ( 'NONE',  ( 0.000000000000000000, -40.00000000000000711, 3.719750000002449042 ) ) ;
#1204 = CYLINDRICAL_SURFACE ( 'NONE', #1111, 6.530249999997550958 ) ;
#1205 = ORIENTED_EDGE ( 'NONE', *, *, #745, .F. ) ;
#1206 = EDGE_CURVE ( 'NONE', #557, #493, #1258, .T. ) ;
#1207 = COLOUR_RGB ( '',0.7921568627450980005, 0.8196078431372548767, 0.9333333333333333481 ) ;
#1208 = VERTEX_POINT ( 'NONE', #1199 ) ;
#1209 = DIRECTION ( 'NONE',  ( 0.000000000000000000, 0.000000000000000000, -1.000000000000000000 ) ) ;
#1210 = DIRECTION ( 'NONE',  ( 0.000000000000000000, -6.071532165918819308E-15, -1.000000000000000000 ) ) ;
#1211 = AXIS2_PLACEMENT_3D ( 'NONE', #464, #1265, #78 ) ;
#1212 = DIRECTION ( 'NONE',  ( 1.000000000000000000, 0.000000000000000000, 0.000000000000000000 ) ) ;
#1213 = ORIENTED_EDGE ( 'NONE', *, *, #702, .F. ) ;
#1214 = EDGE_CURVE ( 'NONE', #693, #707, #1095, .T. ) ;
#1215 = CIRCLE ( 'NONE', #1239, 3.299999999998762146 ) ;
#1216 = EDGE_CURVE ( 'NONE', #112, #151, #815, .T. ) ;
#1217 = PRESENTATION_LAYER_ASSIGNMENT (  '', '', ( #574 ) ) ;
#1218 = ORIENTED_EDGE ( 'NONE', *, *, #555, .F. ) ;
#1219 = CARTESIAN_POINT ( 'NONE',  ( 5.000000000000000888, 9.641410180234535332, -14.65591621273182454 ) ) ;
#1220 = DIRECTION ( 'NONE',  ( 0.000000000000000000, 0.000000000000000000, -1.000000000000000000 ) ) ;
#1221 = CARTESIAN_POINT ( 'NONE',  ( 5.000000000000000888, 9.641410180234524674, -20.15591621273182454 ) ) ;
#1222 = ORIENTED_EDGE ( 'NONE', *, *, #150, .T. ) ;
#1223 = VERTEX_POINT ( 'NONE', #697 ) ;
#1224 = DIRECTION ( 'NONE',  ( 1.000000000000000000, 0.000000000000000000, 0.000000000000000000 ) ) ;
#1225 = EDGE_CURVE ( 'NONE', #1223, #930, #1297, .T. ) ;
#1226 = DIRECTION ( 'NONE',  ( 1.000000000000000000, 0.000000000000000000, 0.000000000000000000 ) ) ;
#1227 =( NAMED_UNIT ( * ) SI_UNIT ( $, .STERADIAN. ) SOLID_ANGLE_UNIT ( ) );
#1228 = AXIS2_PLACEMENT_3D ( 'NONE', #840, #1236, #849 ) ;
#1229 = ORIENTED_EDGE ( 'NONE', *, *, #421, .T. ) ;
#1230 = LINE ( 'NONE', #855, #237 ) ;
#1231 = ORIENTED_EDGE ( 'NONE', *, *, #1252, .T. ) ;
#1232 = FACE_OUTER_BOUND ( 'NONE', #751, .T. ) ;
#1233 = CYLINDRICAL_SURFACE ( 'NONE', #817, 3.299999999998762146 ) ;
#1234 = AXIS2_PLACEMENT_3D ( 'NONE', #1164, #991, #1177 ) ;
#1235 = ORIENTED_EDGE ( 'NONE', *, *, #1114, .T. ) ;
#1236 = DIRECTION ( 'NONE',  ( -1.000000000000000000, -0.000000000000000000, -0.000000000000000000 ) ) ;
#1237 = ORIENTED_EDGE ( 'NONE', *, *, #1036, .T. ) ;
#1238 = DIRECTION ( 'NONE',  ( -1.000000000000000000, 0.000000000000000000, 0.000000000000000000 ) ) ;
#1239 = AXIS2_PLACEMENT_3D ( 'NONE', #1092, #582, #682 ) ;
#1240 = DIRECTION ( 'NONE',  ( 0.000000000000000000, 0.8660254037844397068, -0.4999999999999980571 ) ) ;
#1241 = CARTESIAN_POINT ( 'NONE',  ( 5.000000000000000888, -10.51795955552502626, 0.09475000000244920839 ) ) ;
#1242 = ORIENTED_EDGE ( 'NONE', *, *, #117, .T. ) ;
#1243 = AXIS2_PLACEMENT_3D ( 'NONE', #38, #32, #654 ) ;
#1244 = EDGE_CURVE ( 'NONE', #799, #977, #67, .T. ) ;
#1245 = CARTESIAN_POINT ( 'NONE',  ( -26.92006357444247655, 9.641410180234535332, -14.65591621273182454 ) ) ;
#1246 = VERTEX_POINT ( 'NONE', #1100 ) ;
#1247 = DIRECTION ( 'NONE',  ( 0.000000000000000000, 0.5000000000000009992, -0.8660254037844381525 ) ) ;
#1248 = CARTESIAN_POINT ( 'NONE',  ( 5.000000000000000888, 0.000000000000000000, 0.000000000000000000 ) ) ;
#1249 = ORIENTED_EDGE ( 'NONE', *, *, #1123, .F. ) ;
#1250 = AXIS2_PLACEMENT_3D ( 'NONE', #587, #88, #1291 ) ;
#1251 = CARTESIAN_POINT ( 'NONE',  ( 5.000000000000000888, -38.00000000000000711, 5.469750000002448154 ) ) ;
#1252 = EDGE_CURVE ( 'NONE', #936, #29, #414, .T. ) ;
#1253 = AXIS2_PLACEMENT_3D ( 'NONE', #651, #871, #1080 ) ;
#1254 = VERTEX_POINT ( 'NONE', #118 ) ;
#1255 = DIRECTION ( 'NONE',  ( -1.000000000000000000, 0.000000000000000000, 0.000000000000000000 ) ) ;
#1256 = DIRECTION ( 'NONE',  ( 0.000000000000000000, 0.000000000000000000, -1.000000000000000000 ) ) ;
#1257 = DIRECTION ( 'NONE',  ( 0.000000000000000000, -1.000000000000000000, 1.734723475976806848E-16 ) ) ;
#1258 = CIRCLE ( 'NONE', #691, 17.47534511765833187 ) ;
#1259 = ORIENTED_EDGE ( 'NONE', *, *, #140, .T. ) ;
#1260 = FACE_OUTER_BOUND ( 'NONE', #1043, .T. ) ;
#1261 = ADVANCED_FACE ( 'NONE', ( #190 ), #507, .T. ) ;
#1262 = CARTESIAN_POINT ( 'NONE',  ( 0.000000000000000000, 9.641410180234524674, -18.65591621273182454 ) ) ;
#1263 = AXIS2_PLACEMENT_3D ( 'NONE', #552, #1038, #1247 ) ;
#1264 = ORIENTED_EDGE ( 'NONE', *, *, #606, .F. ) ;
#1265 = DIRECTION ( 'NONE',  ( -1.000000000000000000, 0.000000000000000000, -0.000000000000000000 ) ) ;
#1266 = CIRCLE ( 'NONE', #173, 9.624999999996388667 ) ;
#1267 = ORIENTED_EDGE ( 'NONE', *, *, #210, .T. ) ;
#1268 = CARTESIAN_POINT ( 'NONE',  ( 10.00000000000000000, -10.51795955552502626, -1.405249999997551624 ) ) ;
#1269 = CIRCLE ( 'NONE', #874, 9.624999999996390443 ) ;
#1270 = DIRECTION ( 'NONE',  ( -1.000000000000000000, 0.000000000000000000, -0.000000000000000000 ) ) ;
#1271 = EDGE_CURVE ( 'NONE', #487, #1223, #143, .T. ) ;
#1272 = VERTEX_POINT ( 'NONE', #326 ) ;
#1273 = AXIS2_PLACEMENT_3D ( 'NONE', #194, #189, #1006 ) ;
#1274 = DIRECTION ( 'NONE',  ( 0.000000000000000000, 0.000000000000000000, 1.000000000000000000 ) ) ;
#1275 = CLOSED_SHELL ( 'NONE', ( #1069, #95, #572, #801, #404, #325, #1261, #28, #102, #1183, #1299, #1302, #82, #671, #89, #355, #1052, #1155, #1099, #258, #593, #6, #344, #788, #898, #1289, #846, #774, #430, #396, #491, #642, #186, #530, #238, #413, #737, #221 ) ) ;
#1276 = VERTEX_POINT ( 'NONE', #432 ) ;
#1277 = DIRECTION ( 'NONE',  ( -1.000000000000000000, 0.000000000000000000, 0.000000000000000000 ) ) ;
#1278 = CARTESIAN_POINT ( 'NONE',  ( 0.000000000000000000, -8.589273834258136731, 11.71975000000244904 ) ) ;
#1279 = ORIENTED_EDGE ( 'NONE', *, *, #68, .T. ) ;
#1280 = DIRECTION ( 'NONE',  ( -1.000000000000000000, 0.000000000000000000, 0.000000000000000000 ) ) ;
#1281 = EDGE_LOOP ( 'NONE', ( #1029, #633, #690, #401 ) ) ;
#1282 = CARTESIAN_POINT ( 'NONE',  ( 5.000000000000000888, -38.00000000000000711, -6.530249999997551846 ) ) ;
#1283 = VECTOR ( 'NONE', #891, 1000.000000000000000 ) ;
#1284 = PRODUCT_DEFINITION_FORMATION_WITH_SPECIFIED_SOURCE ( 'Symmetric', '', #649, .NOT_KNOWN. ) ;
#1285 = CARTESIAN_POINT ( 'NONE',  ( 2.500000000000000444, 9.390445525336682309, 2.111908576528542358 ) ) ;
#1286 = VERTEX_POINT ( 'NONE', #933 ) ;
#1287 = CIRCLE ( 'NONE', #949, 1.500000000000001332 ) ;
#1288 = DIRECTION ( 'NONE',  ( 1.000000000000000000, 0.000000000000000000, 0.000000000000000000 ) ) ;
#1289 = ADVANCED_FACE ( 'NONE', ( #948 ), #646, .T. ) ;
#1290 = DIRECTION ( 'NONE',  ( 0.000000000000000000, 0.000000000000000000, -1.000000000000000000 ) ) ;
#1291 = DIRECTION ( 'NONE',  ( 0.000000000000000000, 0.000000000000000000, 1.000000000000000000 ) ) ;
#1292 = LINE ( 'NONE', #261, #1283 ) ;
#1293 = EDGE_CURVE ( 'NONE', #903, #1208, #1007, .T. ) ;
#1294 = ORIENTED_EDGE ( 'NONE', *, *, #1060, .T. ) ;
#1295 = DIRECTION ( 'NONE',  ( 0.000000000000000000, 1.000000000000000000, -1.380677628100161499E-17 ) ) ;
#1296 = CARTESIAN_POINT ( 'NONE',  ( 0.000000000000000000, 2.465044051263041158, 6.047125175469805214 ) ) ;
#1297 = LINE ( 'NONE', #295, #286 ) ;
#1298 = AXIS2_PLACEMENT_3D ( 'NONE', #800, #104, #1209 ) ;
#1299 = ADVANCED_FACE ( 'NONE', ( #838 ), #1233, .T. ) ;
#1300 = AXIS2_PLACEMENT_3D ( 'NONE', #172, #883, #579 ) ;
#1301 = ORIENTED_EDGE ( 'NONE', *, *, #230, .F. ) ;
#1302 = ADVANCED_FACE ( 'NONE', ( #632 ), #735, .T. ) ;
#1303 = CARTESIAN_POINT ( 'NONE',  ( 5.000000000000000888, 4.230690131217794026, -4.974477467642644868 ) ) ;
ENDSEC;
END-ISO-10303-21;
