ISO-10303-21;
HEADER;
FILE_DESCRIPTION (( 'STEP AP214' ),
    '1' );
FILE_NAME ('Part 4 T307.STEP',
    '2025-07-29T15:59:08',
    ( '' ),
    ( '' ),
    'SwSTEP 2.0',
    'SolidWorks 2025',
    '' );
FILE_SCHEMA (( 'AUTOMOTIVE_DESIGN' ));
ENDSEC;

DATA;
#1 = CIRCLE ( 'NONE', #950, 1.000000000000000888 ) ;
#2 = AXIS2_PLACEMENT_3D ( 'NONE', #997, #676, #759 ) ;
#3 = FACE_BOUND ( 'NONE', #738, .T. ) ;
#4 = DIRECTION ( 'NONE',  ( -1.000000000000000000, 0.000000000000000000, 0.000000000000000000 ) ) ;
#5 = ADVANCED_FACE ( 'NONE', ( #849 ), #180, .F. ) ;
#6 = ORIENTED_EDGE ( 'NONE', *, *, #630, .T. ) ;
#7 = FACE_OUTER_BOUND ( 'NONE', #943, .T. ) ;
#8 = DIRECTION ( 'NONE',  ( 0.000000000000000000, 0.000000000000000000, 1.000000000000000000 ) ) ;
#9 = CARTESIAN_POINT ( 'NONE',  ( -11.50000000000000000, -6.000000000000000000, 0.1999999999999996503 ) ) ;
#10 = TOROIDAL_SURFACE ( 'NONE', #534, 0.4000000000000000222, 0.2000000000000000111 ) ;
#11 = ORIENTED_EDGE ( 'NONE', *, *, #408, .F. ) ;
#12 = VERTEX_POINT ( 'NONE', #18 ) ;
#13 = CARTESIAN_POINT ( 'NONE',  ( 11.70000000000000107, 8.492647058823521888, 0.000000000000000000 ) ) ;
#14 = EDGE_CURVE ( 'NONE', #360, #563, #983, .T. ) ;
#15 = AXIS2_PLACEMENT_3D ( 'NONE', #703, #533, #117 ) ;
#16 = DIRECTION ( 'NONE',  ( -0.000000000000000000, 0.000000000000000000, -1.000000000000000000 ) ) ;
#17 = CARTESIAN_POINT ( 'NONE',  ( 3.469446951953614189E-15, 8.492647058823521888, 0.000000000000000000 ) ) ;
#18 = CARTESIAN_POINT ( 'NONE',  ( -11.29999999999999893, -6.200000000000000178, 5.000000000000000000 ) ) ;
#19 = ORIENTED_EDGE ( 'NONE', *, *, #188, .T. ) ;
#20 = DIRECTION ( 'NONE',  ( 0.000000000000000000, 1.000000000000000000, 0.000000000000000000 ) ) ;
#21 = AXIS2_PLACEMENT_3D ( 'NONE', #603, #519, #264 ) ;
#22 = EDGE_CURVE ( 'NONE', #991, #926, #552, .T. ) ;
#23 =( NAMED_UNIT ( * ) PLANE_ANGLE_UNIT ( ) SI_UNIT ( $, .RADIAN. ) );
#24 = CARTESIAN_POINT ( 'NONE',  ( 3.469446951953614189E-15, -6.200000000000001066, 0.2000000000000000111 ) ) ;
#25 = EDGE_LOOP ( 'NONE', ( #186 ) ) ;
#26 = VERTEX_POINT ( 'NONE', #724 ) ;
#27 = EDGE_CURVE ( 'NONE', #468, #145, #301, .T. ) ;
#28 = ORIENTED_EDGE ( 'NONE', *, *, #713, .T. ) ;
#29 = AXIS2_PLACEMENT_3D ( 'NONE', #127, #462, #459 ) ;
#30 = EDGE_LOOP ( 'NONE', ( #163, #780, #276, #884 ) ) ;
#31 = DIRECTION ( 'NONE',  ( -1.000000000000000000, 0.000000000000000000, 0.000000000000000000 ) ) ;
#32 = DIRECTION ( 'NONE',  ( -1.000000000000000000, 0.000000000000000000, 0.000000000000000000 ) ) ;
#33 = EDGE_CURVE ( 'NONE', #986, #926, #45, .T. ) ;
#34 = ORIENTED_EDGE ( 'NONE', *, *, #188, .F. ) ;
#35 = DIRECTION ( 'NONE',  ( -1.000000000000000000, 0.000000000000000000, 0.000000000000000000 ) ) ;
#36 = FACE_BOUND ( 'NONE', #964, .T. ) ;
#37 = DIRECTION ( 'NONE',  ( -0.000000000000000000, 1.000000000000000000, -0.000000000000000000 ) ) ;
#38 = VECTOR ( 'NONE', #805, 1000.000000000000000 ) ;
#39 = VERTEX_POINT ( 'NONE', #711 ) ;
#40 = CIRCLE ( 'NONE', #653, 17.50735294117647101 ) ;
#41 = AXIS2_PLACEMENT_3D ( 'NONE', #121, #535, #118 ) ;
#42 = VERTEX_POINT ( 'NONE', #640 ) ;
#43 = CARTESIAN_POINT ( 'NONE',  ( -11.29999999999999893, -5.800000000000000711, 0.000000000000000000 ) ) ;
#44 = ORIENTED_EDGE ( 'NONE', *, *, #242, .F. ) ;
#45 = CIRCLE ( 'NONE', #660, 0.2000000000000000111 ) ;
#46 = ADVANCED_FACE ( 'NONE', ( #207 ), #1046, .F. ) ;
#47 = CARTESIAN_POINT ( 'NONE',  ( 6.500000000000000000, 15.99999999999997335, 0.000000000000000000 ) ) ;
#48 = LINE ( 'NONE', #119, #570 ) ;
#49 = AXIS2_PLACEMENT_3D ( 'NONE', #77, #921, #414 ) ;
#50 = EDGE_CURVE ( 'NONE', #237, #920, #467, .T. ) ;
#51 = VERTEX_POINT ( 'NONE', #135 ) ;
#52 = CARTESIAN_POINT ( 'NONE',  ( 11.30000000000000071, -5.800000000000000711, 0.1999999999999996503 ) ) ;
#53 = EDGE_LOOP ( 'NONE', ( #654, #124, #748, #971 ) ) ;
#54 = CARTESIAN_POINT ( 'NONE',  ( -11.70000000000000107, -5.800000000000000711, 0.2000000000000000111 ) ) ;
#55 =( GEOMETRIC_REPRESENTATION_CONTEXT ( 3 ) GLOBAL_UNCERTAINTY_ASSIGNED_CONTEXT ( ( #565 ) ) GLOBAL_UNIT_ASSIGNED_CONTEXT ( ( #895, #23, #591 ) ) REPRESENTATION_CONTEXT ( 'NONE', 'WORKASPACE' ) );
#56 = CARTESIAN_POINT ( 'NONE',  ( -6.200000000000000178, -16.50000000000000000, 5.000000000000000000 ) ) ;
#57 = FACE_OUTER_BOUND ( 'NONE', #87, .T. ) ;
#58 = EDGE_CURVE ( 'NONE', #398, #1009, #122, .T. ) ;
#59 = VERTEX_POINT ( 'NONE', #450 ) ;
#60 = VECTOR ( 'NONE', #631, 1000.000000000000000 ) ;
#61 = CARTESIAN_POINT ( 'NONE',  ( -11.50000000000000000, -6.200000000000000178, 5.000000000000000000 ) ) ;
#62 = AXIS2_PLACEMENT_3D ( 'NONE', #485, #397, #647 ) ;
#63 = DIRECTION ( 'NONE',  ( -1.000000000000000000, 0.000000000000000000, 0.000000000000000000 ) ) ;
#64 = ADVANCED_FACE ( 'NONE', ( #1051 ), #10, .T. ) ;
#65 = EDGE_LOOP ( 'NONE', ( #925 ) ) ;
#66 = AXIS2_PLACEMENT_3D ( 'NONE', #1036, #291, #885 ) ;
#67 = DIRECTION ( 'NONE',  ( 0.000000000000000000, 0.000000000000000000, -1.000000000000000000 ) ) ;
#68 = LINE ( 'NONE', #818, #508 ) ;
#69 = ORIENTED_EDGE ( 'NONE', *, *, #395, .T. ) ;
#70 = CARTESIAN_POINT ( 'NONE',  ( 11.70000000000000107, -5.800000000000000711, 5.000000000000000000 ) ) ;
#71 = AXIS2_PLACEMENT_3D ( 'NONE', #84, #248, #506 ) ;
#72 = AXIS2_PLACEMENT_3D ( 'NONE', #984, #233, #572 ) ;
#73 = DIRECTION ( 'NONE',  ( -0.000000000000000000, -0.000000000000000000, -1.000000000000000000 ) ) ;
#74 = PLANE ( 'NONE',  #998 ) ;
#75 = ORIENTED_EDGE ( 'NONE', *, *, #842, .F. ) ;
#76 = ORIENTED_EDGE ( 'NONE', *, *, #546, .T. ) ;
#77 = CARTESIAN_POINT ( 'NONE',  ( -11.29999999999999893, -5.800000000000000711, 5.000000000000000000 ) ) ;
#78 = EDGE_CURVE ( 'NONE', #476, #476, #294, .T. ) ;
#79 = FILL_AREA_STYLE_COLOUR ( '', #1049 ) ;
#80 = CARTESIAN_POINT ( 'NONE',  ( -17.50000000000000000, -19.00000000000000000, 5.000000000000000000 ) ) ;
#81 = EDGE_LOOP ( 'NONE', ( #198 ) ) ;
#82 = VECTOR ( 'NONE', #561, 1000.000000000000000 ) ;
#83 = ORIENTED_EDGE ( 'NONE', *, *, #725, .T. ) ;
#84 = CARTESIAN_POINT ( 'NONE',  ( 6.200000000000000178, -15.00000000000000000, 5.000000000000000000 ) ) ;
#85 = EDGE_CURVE ( 'NONE', #299, #405, #899, .T. ) ;
#86 = CYLINDRICAL_SURFACE ( 'NONE', #716, 3.499999999999999556 ) ;
#87 = EDGE_LOOP ( 'NONE', ( #674, #6, #492, #262 ) ) ;
#88 = ORIENTED_EDGE ( 'NONE', *, *, #123, .F. ) ;
#89 = LINE ( 'NONE', #493, #367 ) ;
#90 = FACE_OUTER_BOUND ( 'NONE', #699, .T. ) ;
#91 = CARTESIAN_POINT ( 'NONE',  ( 11.50000000000000000, -5.800000000000000711, 5.000000000000000000 ) ) ;
#92 = ORIENTED_EDGE ( 'NONE', *, *, #448, .T. ) ;
#93 = ADVANCED_FACE ( 'NONE', ( #536, #632 ), #880, .F. ) ;
#94 = ORIENTED_EDGE ( 'NONE', *, *, #134, .T. ) ;
#95 = DIRECTION ( 'NONE',  ( 1.000000000000000000, -0.000000000000000000, 0.000000000000000000 ) ) ;
#96 = CARTESIAN_POINT ( 'NONE',  ( 6.200000000000000178, -13.50000000000000000, 0.000000000000000000 ) ) ;
#97 = CARTESIAN_POINT ( 'NONE',  ( 6.200000000000000178, -16.50000000000000000, 0.000000000000000000 ) ) ;
#98 = EDGE_LOOP ( 'NONE', ( #666 ) ) ;
#99 = PRODUCT_DEFINITION ( 'General', '', #445, #465 ) ;
#100 = EDGE_LOOP ( 'NONE', ( #423, #132, #844, #1065 ) ) ;
#101 = CARTESIAN_POINT ( 'NONE',  ( -11.50000000000000000, 6.000000000000000000, 5.000000000000000000 ) ) ;
#102 = AXIS2_PLACEMENT_3D ( 'NONE', #428, #751, #502 ) ;
#103 = CARTESIAN_POINT ( 'NONE',  ( 11.70000000000000107, -5.800000000000000711, 4.800000000000000711 ) ) ;
#104 = DIRECTION ( 'NONE',  ( 0.000000000000000000, 0.000000000000000000, 1.000000000000000000 ) ) ;
#105 = EDGE_LOOP ( 'NONE', ( #344 ) ) ;
#106 = ORIENTED_EDGE ( 'NONE', *, *, #395, .F. ) ;
#107 = CARTESIAN_POINT ( 'NONE',  ( -14.00000000000000178, -15.50000000000000000, 5.000000000000000000 ) ) ;
#108 = DIRECTION ( 'NONE',  ( 0.000000000000000000, 0.000000000000000000, 1.000000000000000000 ) ) ;
#109 = DIRECTION ( 'NONE',  ( 0.000000000000000000, 0.000000000000000000, 1.000000000000000000 ) ) ;
#110 = ORIENTED_EDGE ( 'NONE', *, *, #326, .F. ) ;
#111 = VERTEX_POINT ( 'NONE', #784 ) ;
#112 = EDGE_CURVE ( 'NONE', #418, #111, #215, .T. ) ;
#113 = DIRECTION ( 'NONE',  ( 0.000000000000000000, 0.000000000000000000, -1.000000000000000000 ) ) ;
#114 = DIRECTION ( 'NONE',  ( 1.000000000000000000, 0.000000000000000000, 0.000000000000000000 ) ) ;
#115 = TOROIDAL_SURFACE ( 'NONE', #401, 0.4000000000000000222, 0.2000000000000000111 ) ;
#116 = ORIENTED_EDGE ( 'NONE', *, *, #482, .T. ) ;
#117 = DIRECTION ( 'NONE',  ( 1.000000000000000000, 0.000000000000000000, 0.000000000000000000 ) ) ;
#118 = DIRECTION ( 'NONE',  ( -1.000000000000000000, 0.000000000000000000, 0.000000000000000000 ) ) ;
#119 = CARTESIAN_POINT ( 'NONE',  ( 11.30000000000000071, -6.000000000000000000, 0.000000000000000000 ) ) ;
#120 = EDGE_LOOP ( 'NONE', ( #349, #263, #541, #1023 ) ) ;
#121 = CARTESIAN_POINT ( 'NONE',  ( 6.200000000000000178, -15.00000000000000000, 5.000000000000000000 ) ) ;
#122 = LINE ( 'NONE', #298, #747 ) ;
#123 = EDGE_CURVE ( 'NONE', #210, #614, #624, .T. ) ;
#124 = ORIENTED_EDGE ( 'NONE', *, *, #797, .T. ) ;
#125 = AXIS2_PLACEMENT_3D ( 'NONE', #585, #985, #824 ) ;
#126 = DIRECTION ( 'NONE',  ( -1.000000000000000000, 0.000000000000000000, 0.000000000000000000 ) ) ;
#127 = CARTESIAN_POINT ( 'NONE',  ( 14.00000000000000000, -1.387778780781445676E-14, 5.000000000000000000 ) ) ;
#128 = ORIENTED_EDGE ( 'NONE', *, *, #33, .T. ) ;
#129 = AXIS2_PLACEMENT_3D ( 'NONE', #429, #769, #523 ) ;
#130 = EDGE_CURVE ( 'NONE', #59, #1026, #197, .T. ) ;
#131 =( NAMED_UNIT ( * ) SI_UNIT ( $, .STERADIAN. ) SOLID_ANGLE_UNIT ( ) );
#132 = ORIENTED_EDGE ( 'NONE', *, *, #432, .T. ) ;
#133 = CARTESIAN_POINT ( 'NONE',  ( -17.50000000000000000, -15.50000000000000000, 0.000000000000000000 ) ) ;
#134 = EDGE_CURVE ( 'NONE', #688, #625, #48, .T. ) ;
#135 = CARTESIAN_POINT ( 'NONE',  ( 6.500000000000000000, 15.99999999999997335, 5.000000000000000000 ) ) ;
#136 = DIRECTION ( 'NONE',  ( 1.239088197126290817E-16, 1.000000000000000000, 0.000000000000000000 ) ) ;
#137 = ORIENTED_EDGE ( 'NONE', *, *, #130, .F. ) ;
#138 = AXIS2_PLACEMENT_3D ( 'NONE', #859, #108, #161 ) ;
#139 = DIRECTION ( 'NONE',  ( 0.000000000000000000, 1.000000000000000000, 0.000000000000000000 ) ) ;
#140 = DIRECTION ( 'NONE',  ( -0.000000000000000000, -0.000000000000000000, -1.000000000000000000 ) ) ;
#141 = CARTESIAN_POINT ( 'NONE',  ( 6.200000000000000178, -13.49999999999999822, 5.000000000000000000 ) ) ;
#142 = ORIENTED_EDGE ( 'NONE', *, *, #281, .F. ) ;
#143 = LINE ( 'NONE', #645, #708 ) ;
#144 = CARTESIAN_POINT ( 'NONE',  ( 11.30000000000000071, -5.800000000000000711, 0.000000000000000000 ) ) ;
#145 = VERTEX_POINT ( 'NONE', #960 ) ;
#146 = ORIENTED_EDGE ( 'NONE', *, *, #85, .F. ) ;
#147 = FACE_OUTER_BOUND ( 'NONE', #100, .T. ) ;
#148 = DIRECTION ( 'NONE',  ( -1.000000000000000000, 0.000000000000000000, 0.000000000000000000 ) ) ;
#149 = DIRECTION ( 'NONE',  ( 0.000000000000000000, 1.000000000000000000, 0.000000000000000000 ) ) ;
#150 = EDGE_LOOP ( 'NONE', ( #1043 ) ) ;
#151 = EDGE_CURVE ( 'NONE', #392, #392, #588, .T. ) ;
#152 = EDGE_LOOP ( 'NONE', ( #762, #350, #473, #430 ) ) ;
#153 = CIRCLE ( 'NONE', #138, 3.499999999999999556 ) ;
#154 = DIRECTION ( 'NONE',  ( -1.000000000000000000, 0.000000000000000000, 0.000000000000000000 ) ) ;
#155 = FACE_OUTER_BOUND ( 'NONE', #712, .T. ) ;
#156 = DIRECTION ( 'NONE',  ( -1.000000000000000000, 0.000000000000000000, 0.000000000000000000 ) ) ;
#157 = ORIENTED_EDGE ( 'NONE', *, *, #820, .F. ) ;
#158 = ORIENTED_EDGE ( 'NONE', *, *, #554, .T. ) ;
#159 = LINE ( 'NONE', #244, #1068 ) ;
#160 = ADVANCED_FACE ( 'NONE', ( #721 ), #875, .F. ) ;
#161 = DIRECTION ( 'NONE',  ( -1.000000000000000000, 9.912705577010326536E-16, 0.000000000000000000 ) ) ;
#162 = DIRECTION ( 'NONE',  ( 1.000000000000000000, -0.000000000000000000, 0.000000000000000000 ) ) ;
#163 = ORIENTED_EDGE ( 'NONE', *, *, #416, .T. ) ;
#164 = ORIENTED_EDGE ( 'NONE', *, *, #560, .F. ) ;
#165 = ADVANCED_FACE ( 'NONE', ( #57 ), #115, .T. ) ;
#166 = CARTESIAN_POINT ( 'NONE',  ( -6.200000000000000178, -13.50000000000000000, 0.000000000000000000 ) ) ;
#167 = FACE_OUTER_BOUND ( 'NONE', #334, .T. ) ;
#168 = EDGE_LOOP ( 'NONE', ( #1022 ) ) ;
#169 = ORIENTED_EDGE ( 'NONE', *, *, #470, .T. ) ;
#170 = DIRECTION ( 'NONE',  ( 0.000000000000000000, 0.000000000000000000, 1.000000000000000000 ) ) ;
#171 = CIRCLE ( 'NONE', #718, 0.2000000000000000111 ) ;
#172 = CARTESIAN_POINT ( 'NONE',  ( 11.50000000000000000, -5.800000000000000711, 4.800000000000000711 ) ) ;
#173 = EDGE_CURVE ( 'NONE', #920, #299, #68, .T. ) ;
#174 = CARTESIAN_POINT ( 'NONE',  ( -6.200000000000000178, -16.50000000000000000, 5.000000000000000000 ) ) ;
#175 = ORIENTED_EDGE ( 'NONE', *, *, #363, .F. ) ;
#176 = ORIENTED_EDGE ( 'NONE', *, *, #326, .T. ) ;
#177 = DIRECTION ( 'NONE',  ( -1.000000000000000000, 0.000000000000000000, 0.000000000000000000 ) ) ;
#178 = DIRECTION ( 'NONE',  ( -0.000000000000000000, 1.000000000000000000, -0.000000000000000000 ) ) ;
#179 = CARTESIAN_POINT ( 'NONE',  ( 11.50000000000000000, 6.000000000000000000, 0.1999999999999996503 ) ) ;
#180 = CYLINDRICAL_SURFACE ( 'NONE', #129, 1.500000000000000444 ) ;
#181 = EDGE_LOOP ( 'NONE', ( #683, #791, #193, #88 ) ) ;
#182 = DIRECTION ( 'NONE',  ( 0.000000000000000000, 0.000000000000000000, 1.000000000000000000 ) ) ;
#183 = CIRCLE ( 'NONE', #836, 1.000000000000000888 ) ;
#184 = DIRECTION ( 'NONE',  ( -1.000000000000000000, 0.000000000000000000, 0.000000000000000000 ) ) ;
#185 = CYLINDRICAL_SURFACE ( 'NONE', #200, 0.1999999999999996503 ) ;
#186 = ORIENTED_EDGE ( 'NONE', *, *, #664, .F. ) ;
#187 = EDGE_LOOP ( 'NONE', ( #981, #557, #444, #28 ) ) ;
#188 = EDGE_CURVE ( 'NONE', #707, #1008, #1056, .T. ) ;
#189 = CARTESIAN_POINT ( 'NONE',  ( 17.50000000000000000, -15.50000000000000000, 5.000000000000000000 ) ) ;
#190 = CARTESIAN_POINT ( 'NONE',  ( 11.70000000000000107, 6.000000000000000000, 0.000000000000000000 ) ) ;
#191 = ORIENTED_EDGE ( 'NONE', *, *, #173, .F. ) ;
#192 = VECTOR ( 'NONE', #939, 1000.000000000000000 ) ;
#193 = ORIENTED_EDGE ( 'NONE', *, *, #842, .T. ) ;
#194 = ADVANCED_FACE ( 'NONE', ( #900 ), #239, .T. ) ;
#195 = CYLINDRICAL_SURFACE ( 'NONE', #314, 0.1999999999999996503 ) ;
#196 = DIRECTION ( 'NONE',  ( 0.000000000000000000, 0.000000000000000000, 1.000000000000000000 ) ) ;
#197 = LINE ( 'NONE', #628, #1057 ) ;
#198 = ORIENTED_EDGE ( 'NONE', *, *, #764, .T. ) ;
#199 = CARTESIAN_POINT ( 'NONE',  ( -11.70000000000000107, 6.000000000000000000, 0.000000000000000000 ) ) ;
#200 = AXIS2_PLACEMENT_3D ( 'NONE', #449, #865, #783 ) ;
#201 = EDGE_CURVE ( 'NONE', #1008, #633, #383, .T. ) ;
#202 = CARTESIAN_POINT ( 'NONE',  ( -11.29999999999999893, -6.200000000000000178, 4.800000000000000711 ) ) ;
#203 = CIRCLE ( 'NONE', #817, 1.499999999999999556 ) ;
#204 = DIRECTION ( 'NONE',  ( 0.000000000000000000, 0.000000000000000000, 1.000000000000000000 ) ) ;
#205 = ORIENTED_EDGE ( 'NONE', *, *, #335, .F. ) ;
#206 = CARTESIAN_POINT ( 'NONE',  ( -6.500000000000000000, 16.00000000000000000, 5.000000000000000000 ) ) ;
#207 = FACE_OUTER_BOUND ( 'NONE', #181, .T. ) ;
#208 = EDGE_CURVE ( 'NONE', #418, #633, #556, .T. ) ;
#209 = PRODUCT ( 'Part 4 T307', 'Part 4 T307', '', ( #259 ) ) ;
#210 = VERTEX_POINT ( 'NONE', #319 ) ;
#211 = MECHANICAL_DESIGN_GEOMETRIC_PRESENTATION_REPRESENTATION (  '', ( #527 ), #55 ) ;
#212 = AXIS2_PLACEMENT_3D ( 'NONE', #202, #1030, #104 ) ;
#213 = DIRECTION ( 'NONE',  ( -0.000000000000000000, -0.000000000000000000, 1.000000000000000000 ) ) ;
#214 = ORIENTED_EDGE ( 'NONE', *, *, #134, .F. ) ;
#215 = CIRCLE ( 'NONE', #641, 0.3999999999999993006 ) ;
#216 = ADVANCED_FACE ( 'NONE', ( #888, #813 ), #657, .F. ) ;
#217 = VECTOR ( 'NONE', #149, 1000.000000000000000 ) ;
#218 = FACE_OUTER_BOUND ( 'NONE', #694, .T. ) ;
#219 = SURFACE_STYLE_USAGE ( .BOTH. , #409 ) ;
#220 = ORIENTED_EDGE ( 'NONE', *, *, #290, .F. ) ;
#221 = FACE_OUTER_BOUND ( 'NONE', #479, .T. ) ;
#222 = EDGE_CURVE ( 'NONE', #254, #574, #312, .T. ) ;
#223 = VECTOR ( 'NONE', #368, 1000.000000000000000 ) ;
#224 = CARTESIAN_POINT ( 'NONE',  ( -17.50000000000000000, -19.00000000000000000, 0.000000000000000000 ) ) ;
#225 = CYLINDRICAL_SURFACE ( 'NONE', #369, 2.000000000000001776 ) ;
#226 = CIRCLE ( 'NONE', #542, 3.499999999999999556 ) ;
#227 = ORIENTED_EDGE ( 'NONE', *, *, #596, .T. ) ;
#228 = DIRECTION ( 'NONE',  ( 0.000000000000000000, -1.000000000000000000, 0.000000000000000000 ) ) ;
#229 = FACE_OUTER_BOUND ( 'NONE', #105, .T. ) ;
#230 = ORIENTED_EDGE ( 'NONE', *, *, #546, .F. ) ;
#231 = DIRECTION ( 'NONE',  ( -0.000000000000000000, -0.000000000000000000, -1.000000000000000000 ) ) ;
#232 = AXIS2_PLACEMENT_3D ( 'NONE', #794, #715, #136 ) ;
#233 = DIRECTION ( 'NONE',  ( -0.000000000000000000, -0.000000000000000000, -1.000000000000000000 ) ) ;
#234 = ADVANCED_FACE ( 'NONE', ( #562, #155 ), #225, .F. ) ;
#235 = PLANE ( 'NONE',  #744 ) ;
#236 = EDGE_LOOP ( 'NONE', ( #1047, #968, #513, #850 ) ) ;
#237 = VERTEX_POINT ( 'NONE', #141 ) ;
#238 = CARTESIAN_POINT ( 'NONE',  ( -6.200000000000000178, -15.00000000000000000, 5.000000000000000000 ) ) ;
#239 = CYLINDRICAL_SURFACE ( 'NONE', #825, 0.2000000000000000111 ) ;
#240 = CIRCLE ( 'NONE', #21, 0.2000000000000005107 ) ;
#241 = LINE ( 'NONE', #1007, #610 ) ;
#242 = EDGE_CURVE ( 'NONE', #614, #855, #40, .T. ) ;
#243 = ORIENTED_EDGE ( 'NONE', *, *, #281, .T. ) ;
#244 = CARTESIAN_POINT ( 'NONE',  ( -11.50000000000000000, 6.000000000000000000, 0.000000000000000000 ) ) ;
#245 = CARTESIAN_POINT ( 'NONE',  ( -11.70000000000000107, -5.800000000000000711, 5.000000000000000000 ) ) ;
#246 = DIRECTION ( 'NONE',  ( -1.000000000000000000, -0.000000000000000000, -0.000000000000000000 ) ) ;
#247 = ORIENTED_EDGE ( 'NONE', *, *, #381, .T. ) ;
#248 = DIRECTION ( 'NONE',  ( 0.000000000000000000, 0.000000000000000000, 1.000000000000000000 ) ) ;
#249 = EDGE_CURVE ( 'NONE', #803, #345, #265, .T. ) ;
#250 = AXIS2_PLACEMENT_3D ( 'NONE', #379, #204, #540 ) ;
#251 = CIRCLE ( 'NONE', #325, 2.000000000000000888 ) ;
#252 = DIRECTION ( 'NONE',  ( 0.000000000000000000, 1.000000000000000000, 0.000000000000000000 ) ) ;
#253 = VECTOR ( 'NONE', #246, 1000.000000000000000 ) ;
#254 = VERTEX_POINT ( 'NONE', #829 ) ;
#255 = VERTEX_POINT ( 'NONE', #745 ) ;
#256 = DIRECTION ( 'NONE',  ( 0.000000000000000000, 0.000000000000000000, 1.000000000000000000 ) ) ;
#257 = CIRCLE ( 'NONE', #520, 0.2000000000000005107 ) ;
#258 = EDGE_CURVE ( 'NONE', #59, #255, #809, .T. ) ;
#259 = PRODUCT_CONTEXT ( 'NONE', #322, 'mechanical' ) ;
#260 = FACE_BOUND ( 'NONE', #25, .T. ) ;
#261 = CYLINDRICAL_SURFACE ( 'NONE', #275, 2.000000000000000888 ) ;
#262 = ORIENTED_EDGE ( 'NONE', *, *, #494, .T. ) ;
#263 = ORIENTED_EDGE ( 'NONE', *, *, #858, .F. ) ;
#264 = DIRECTION ( 'NONE',  ( -1.000000000000000000, 0.000000000000000000, 0.000000000000000000 ) ) ;
#265 = CIRCLE ( 'NONE', #690, 1.500000000000000444 ) ;
#266 = DIRECTION ( 'NONE',  ( 0.000000000000000000, 0.000000000000000000, 1.000000000000000000 ) ) ;
#267 = ORIENTED_EDGE ( 'NONE', *, *, #713, .F. ) ;
#268 = EDGE_LOOP ( 'NONE', ( #862 ) ) ;
#269 = CARTESIAN_POINT ( 'NONE',  ( 8.500000000000000000, 15.99999999999997335, 5.000000000000000000 ) ) ;
#270 = AXIS2_PLACEMENT_3D ( 'NONE', #646, #656, #840 ) ;
#271 = LINE ( 'NONE', #584, #338 ) ;
#272 = CARTESIAN_POINT ( 'NONE',  ( -14.00000000000000000, 0.000000000000000000, 0.000000000000000000 ) ) ;
#273 = ORIENTED_EDGE ( 'NONE', *, *, #464, .F. ) ;
#274 = EDGE_CURVE ( 'NONE', #926, #707, #1074, .T. ) ;
#275 = AXIS2_PLACEMENT_3D ( 'NONE', #756, #761, #4 ) ;
#276 = ORIENTED_EDGE ( 'NONE', *, *, #1080, .F. ) ;
#277 = MANIFOLD_SOLID_BREP ( 'Fillet2', #426 ) ;
#278 = DIRECTION ( 'NONE',  ( 0.000000000000000000, 0.000000000000000000, -1.000000000000000000 ) ) ;
#279 = FACE_OUTER_BOUND ( 'NONE', #1001, .T. ) ;
#280 = EDGE_LOOP ( 'NONE', ( #230 ) ) ;
#281 = EDGE_CURVE ( 'NONE', #360, #819, #691, .T. ) ;
#282 = ORIENTED_EDGE ( 'NONE', *, *, #1020, .F. ) ;
#283 = FACE_OUTER_BOUND ( 'NONE', #814, .T. ) ;
#284 = CIRCLE ( 'NONE', #602, 1.500000000000000444 ) ;
#285 = FACE_BOUND ( 'NONE', #268, .T. ) ;
#286 = DIRECTION ( 'NONE',  ( -0.000000000000000000, -0.000000000000000000, -1.000000000000000000 ) ) ;
#287 = PRESENTATION_LAYER_ASSIGNMENT (  '', '', ( #527 ) ) ;
#288 = EDGE_LOOP ( 'NONE', ( #629, #356, #382, #19 ) ) ;
#289 = VECTOR ( 'NONE', #516, 1000.000000000000000 ) ;
#290 = EDGE_CURVE ( 'NONE', #575, #39, #980, .T. ) ;
#291 = DIRECTION ( 'NONE',  ( 0.000000000000000000, 0.000000000000000000, 1.000000000000000000 ) ) ;
#292 = FACE_BOUND ( 'NONE', #648, .T. ) ;
#293 = DIRECTION ( 'NONE',  ( 0.000000000000000000, 0.000000000000000000, -1.000000000000000000 ) ) ;
#294 = CIRCLE ( 'NONE', #882, 2.000000000000000888 ) ;
#295 = VERTEX_POINT ( 'NONE', #515 ) ;
#296 = EDGE_CURVE ( 'NONE', #518, #111, #271, .T. ) ;
#297 = LINE ( 'NONE', #471, #60 ) ;
#298 = CARTESIAN_POINT ( 'NONE',  ( -17.50000000000000000, -15.50000000000000000, 5.000000000000000000 ) ) ;
#299 = VERTEX_POINT ( 'NONE', #923 ) ;
#300 = CIRCLE ( 'NONE', #902, 3.499999999999999556 ) ;
#301 = LINE ( 'NONE', #970, #714 ) ;
#302 = ORIENTED_EDGE ( 'NONE', *, *, #1044, .F. ) ;
#303 = AXIS2_PLACEMENT_3D ( 'NONE', #959, #266, #354 ) ;
#304 = CARTESIAN_POINT ( 'NONE',  ( -6.200000000000000178, -13.50000000000000000, 5.000000000000000000 ) ) ;
#305 = EDGE_CURVE ( 'NONE', #798, #798, #793, .T. ) ;
#306 = ORIENTED_EDGE ( 'NONE', *, *, #416, .F. ) ;
#307 = DIRECTION ( 'NONE',  ( -1.000000000000000000, -0.000000000000000000, -0.000000000000000000 ) ) ;
#308 = VERTEX_POINT ( 'NONE', #47 ) ;
#309 = ORIENTED_EDGE ( 'NONE', *, *, #448, .F. ) ;
#310 = DIRECTION ( 'NONE',  ( 0.000000000000000000, 0.000000000000000000, -1.000000000000000000 ) ) ;
#311 = VERTEX_POINT ( 'NONE', #962 ) ;
#312 = LINE ( 'NONE', #578, #622 ) ;
#313 = ORIENTED_EDGE ( 'NONE', *, *, #222, .F. ) ;
#314 = AXIS2_PLACEMENT_3D ( 'NONE', #957, #139, #526 ) ;
#315 = AXIS2_PLACEMENT_3D ( 'NONE', #910, #396, #992 ) ;
#316 = DIRECTION ( 'NONE',  ( 1.000000000000000000, 0.000000000000000000, 0.000000000000000000 ) ) ;
#317 = VECTOR ( 'NONE', #604, 1000.000000000000000 ) ;
#318 = ADVANCED_FACE ( 'NONE', ( #760, #90 ), #918, .F. ) ;
#319 = CARTESIAN_POINT ( 'NONE',  ( 17.49999999999999645, 9.000000000000001776, 5.000000000000000000 ) ) ;
#320 = DIRECTION ( 'NONE',  ( -1.239088197126290817E-16, 1.000000000000000000, -0.000000000000000000 ) ) ;
#321 = ORIENTED_EDGE ( 'NONE', *, *, #863, .T. ) ;
#322 = APPLICATION_CONTEXT ( 'automotive_design' ) ;
#323 = CYLINDRICAL_SURFACE ( 'NONE', #457, 0.2000000000000005107 ) ;
#324 = VECTOR ( 'NONE', #454, 1000.000000000000000 ) ;
#325 = AXIS2_PLACEMENT_3D ( 'NONE', #269, #609, #938 ) ;
#326 = EDGE_CURVE ( 'NONE', #574, #398, #420, .T. ) ;
#327 = DIRECTION ( 'NONE',  ( 0.000000000000000000, 0.000000000000000000, 1.000000000000000000 ) ) ;
#328 = DIRECTION ( 'NONE',  ( 0.000000000000000000, 0.000000000000000000, -1.000000000000000000 ) ) ;
#329 = ORIENTED_EDGE ( 'NONE', *, *, #363, .T. ) ;
#330 = CARTESIAN_POINT ( 'NONE',  ( 6.200000000000000178, -13.50000000000000000, 5.000000000000000000 ) ) ;
#331 = CARTESIAN_POINT ( 'NONE',  ( 3.469446951953614189E-15, 8.492647058823521888, 0.000000000000000000 ) ) ;
#332 = AXIS2_PLACEMENT_3D ( 'NONE', #431, #346, #425 ) ;
#333 = LINE ( 'NONE', #9, #253 ) ;
#334 = EDGE_LOOP ( 'NONE', ( #247, #838, #309, #774 ) ) ;
#335 = EDGE_CURVE ( 'NONE', #345, #299, #521, .T. ) ;
#336 = AXIS2_PLACEMENT_3D ( 'NONE', #103, #433, #649 ) ;
#337 = CARTESIAN_POINT ( 'NONE',  ( 13.99999999999999822, -19.00000000000000000, 0.000000000000000000 ) ) ;
#338 = VECTOR ( 'NONE', #353, 1000.000000000000000 ) ;
#339 = DIRECTION ( 'NONE',  ( -0.000000000000000000, -0.000000000000000000, -1.000000000000000000 ) ) ;
#340 = DIRECTION ( 'NONE',  ( -0.000000000000000000, 1.000000000000000000, -0.000000000000000000 ) ) ;
#341 = EDGE_LOOP ( 'NONE', ( #460, #483, #831, #106 ) ) ;
#342 = CARTESIAN_POINT ( 'NONE',  ( -11.29999999999999893, -6.000000000000000000, 0.2000000000000000111 ) ) ;
#343 = DIRECTION ( 'NONE',  ( -0.000000000000000000, -0.000000000000000000, 1.000000000000000000 ) ) ;
#344 = ORIENTED_EDGE ( 'NONE', *, *, #305, .F. ) ;
#345 = VERTEX_POINT ( 'NONE', #96 ) ;
#346 = DIRECTION ( 'NONE',  ( -0.000000000000000000, -0.000000000000000000, -1.000000000000000000 ) ) ;
#347 = DIRECTION ( 'NONE',  ( -1.000000000000000000, 0.000000000000000000, 0.000000000000000000 ) ) ;
#348 = DIRECTION ( 'NONE',  ( -1.000000000000000000, 0.000000000000000000, 0.000000000000000000 ) ) ;
#349 = ORIENTED_EDGE ( 'NONE', *, *, #731, .T. ) ;
#350 = ORIENTED_EDGE ( 'NONE', *, *, #951, .F. ) ;
#351 = CYLINDRICAL_SURFACE ( 'NONE', #804, 3.499999999999999556 ) ;
#352 = ADVANCED_FACE ( 'NONE', ( #993 ), #933, .T. ) ;
#353 = DIRECTION ( 'NONE',  ( 0.000000000000000000, -1.000000000000000000, 0.000000000000000000 ) ) ;
#354 = DIRECTION ( 'NONE',  ( -1.000000000000000000, 0.000000000000000000, 0.000000000000000000 ) ) ;
#355 = EDGE_LOOP ( 'NONE', ( #524, #547, #601, #909, #810, #158 ) ) ;
#356 = ORIENTED_EDGE ( 'NONE', *, *, #901, .T. ) ;
#357 = CARTESIAN_POINT ( 'NONE',  ( -11.70000000000000107, 6.000000000000000000, 5.000000000000000000 ) ) ;
#358 = EDGE_CURVE ( 'NONE', #39, #468, #153, .T. ) ;
#359 = VERTEX_POINT ( 'NONE', #172 ) ;
#360 = VERTEX_POINT ( 'NONE', #342 ) ;
#361 = CYLINDRICAL_SURFACE ( 'NONE', #15, 0.2000000000000005107 ) ;
#362 = CARTESIAN_POINT ( 'NONE',  ( 11.70000000000000107, 6.000000000000000000, 0.2000000000000000111 ) ) ;
#363 = EDGE_CURVE ( 'NONE', #372, #26, #440, .T. ) ;
#364 = EDGE_LOOP ( 'NONE', ( #302, #176, #306, #44, #75, #586 ) ) ;
#365 = AXIS2_PLACEMENT_3D ( 'NONE', #54, #228, #67 ) ;
#366 = CARTESIAN_POINT ( 'NONE',  ( -14.00000000000000000, -10.00000000000000000, 5.000000000000000000 ) ) ;
#367 = VECTOR ( 'NONE', #927, 1000.000000000000000 ) ;
#368 = DIRECTION ( 'NONE',  ( -0.000000000000000000, -1.000000000000000000, -0.000000000000000000 ) ) ;
#369 = AXIS2_PLACEMENT_3D ( 'NONE', #730, #73, #63 ) ;
#370 = CARTESIAN_POINT ( 'NONE',  ( -6.200000000000000178, -15.00000000000000000, 0.000000000000000000 ) ) ;
#371 = AXIS2_PLACEMENT_3D ( 'NONE', #421, #339, #184 ) ;
#372 = VERTEX_POINT ( 'NONE', #245 ) ;
#373 = ADVANCED_FACE ( 'NONE', ( #495, #260, #772, #755, #3, #853, #598, #928, #507 ), #427, .F. ) ;
#374 =( NAMED_UNIT ( * ) PLANE_ANGLE_UNIT ( ) SI_UNIT ( $, .RADIAN. ) );
#375 = DIRECTION ( 'NONE',  ( -1.000000000000000000, -1.239088197126290817E-16, 0.000000000000000000 ) ) ;
#376 = VECTOR ( 'NONE', #403, 1000.000000000000000 ) ;
#377 = EDGE_LOOP ( 'NONE', ( #329, #832, #537, #930, #169, #904 ) ) ;
#378 = CYLINDRICAL_SURFACE ( 'NONE', #549, 0.1999999999999996503 ) ;
#379 = CARTESIAN_POINT ( 'NONE',  ( 14.00000000000000000, -10.00000000000000711, 5.000000000000000000 ) ) ;
#380 = ORIENTED_EDGE ( 'NONE', *, *, #1027, .T. ) ;
#381 = EDGE_CURVE ( 'NONE', #359, #607, #948, .T. ) ;
#382 = ORIENTED_EDGE ( 'NONE', *, *, #596, .F. ) ;
#383 = CIRCLE ( 'NONE', #978, 0.3999999999999993006 ) ;
#384 = CARTESIAN_POINT ( 'NONE',  ( 11.50000000000000000, -6.000000000000000000, 4.800000000000000711 ) ) ;
#385 = VERTEX_POINT ( 'NONE', #206 ) ;
#386 = DIRECTION ( 'NONE',  ( -0.000000000000000000, -0.000000000000000000, -1.000000000000000000 ) ) ;
#387 = ORIENTED_EDGE ( 'NONE', *, *, #834, .F. ) ;
#388 = AXIS2_PLACEMENT_3D ( 'NONE', #517, #802, #1038 ) ;
#389 = DIRECTION ( 'NONE',  ( 0.000000000000000000, -1.000000000000000000, 0.000000000000000000 ) ) ;
#390 = AXIS2_PLACEMENT_3D ( 'NONE', #24, #623, #946 ) ;
#391 = AXIS2_PLACEMENT_3D ( 'NONE', #679, #340, #994 ) ;
#392 = VERTEX_POINT ( 'NONE', #461 ) ;
#393 = CARTESIAN_POINT ( 'NONE',  ( 6.200000000000000178, -15.00000000000000000, 0.000000000000000000 ) ) ;
#394 = ORIENTED_EDGE ( 'NONE', *, *, #14, .T. ) ;
#395 = EDGE_CURVE ( 'NONE', #819, #688, #976, .T. ) ;
#396 = DIRECTION ( 'NONE',  ( 0.000000000000000000, 0.000000000000000000, 1.000000000000000000 ) ) ;
#397 = DIRECTION ( 'NONE',  ( -0.000000000000000000, -1.000000000000000000, -0.000000000000000000 ) ) ;
#398 = VERTEX_POINT ( 'NONE', #133 ) ;
#399 = DIRECTION ( 'NONE',  ( -0.000000000000000000, -0.000000000000000000, -1.000000000000000000 ) ) ;
#400 = CIRCLE ( 'NONE', #303, 2.000000000000000888 ) ;
#401 = AXIS2_PLACEMENT_3D ( 'NONE', #481, #749, #148 ) ;
#402 = DIRECTION ( 'NONE',  ( -1.000000000000000000, 0.000000000000000000, 0.000000000000000000 ) ) ;
#403 = DIRECTION ( 'NONE',  ( 1.000000000000000000, 0.000000000000000000, 0.000000000000000000 ) ) ;
#404 = ORIENTED_EDGE ( 'NONE', *, *, #1020, .T. ) ;
#405 = VERTEX_POINT ( 'NONE', #868 ) ;
#406 = DIRECTION ( 'NONE',  ( 0.000000000000000000, -1.000000000000000000, 0.000000000000000000 ) ) ;
#407 = VECTOR ( 'NONE', #966, 1000.000000000000000 ) ;
#408 = EDGE_CURVE ( 'NONE', #1028, #803, #143, .T. ) ;
#409 = SURFACE_SIDE_STYLE ('',( #568 ) ) ;
#410 = CARTESIAN_POINT ( 'NONE',  ( -14.00000000000000178, -15.50000000000000000, 5.000000000000000000 ) ) ;
#411 = ORIENTED_EDGE ( 'NONE', *, *, #249, .T. ) ;
#412 = CIRCLE ( 'NONE', #702, 0.1999999999999996503 ) ;
#413 = EDGE_LOOP ( 'NONE', ( #443 ) ) ;
#414 = DIRECTION ( 'NONE',  ( -1.000000000000000000, 0.000000000000000000, 0.000000000000000000 ) ) ;
#415 = CARTESIAN_POINT ( 'NONE',  ( 14.00000000000000000, -10.00000000000000711, 5.000000000000000000 ) ) ;
#416 = EDGE_CURVE ( 'NONE', #855, #398, #816, .T. ) ;
#417 = FACE_OUTER_BOUND ( 'NONE', #717, .T. ) ;
#418 = VERTEX_POINT ( 'NONE', #811 ) ;
#419 = DIRECTION ( 'NONE',  ( -1.000000000000000000, -0.000000000000000000, -0.000000000000000000 ) ) ;
#420 = CIRCLE ( 'NONE', #371, 3.499999999999999556 ) ;
#421 = CARTESIAN_POINT ( 'NONE',  ( -14.00000000000000178, -15.50000000000000000, 0.000000000000000000 ) ) ;
#422 = FACE_OUTER_BOUND ( 'NONE', #81, .T. ) ;
#423 = ORIENTED_EDGE ( 'NONE', *, *, #112, .T. ) ;
#424 = ORIENTED_EDGE ( 'NONE', *, *, #33, .F. ) ;
#425 = DIRECTION ( 'NONE',  ( -1.000000000000000000, 0.000000000000000000, 0.000000000000000000 ) ) ;
#426 = CLOSED_SHELL ( 'NONE', ( #373, #967, #886, #160, #893, #46, #352, #455, #650, #1061, #216, #1052, #5, #908, #936, #700, #234, #318, #93, #806, #828, #719, #194, #706, #478, #525, #977, #870, #685, #64, #1067, #644, #165, #916 ) ) ;
#427 = PLANE ( 'NONE',  #892 ) ;
#428 = CARTESIAN_POINT ( 'NONE',  ( -8.500000000000000000, 16.00000000000000000, 5.000000000000000000 ) ) ;
#429 = CARTESIAN_POINT ( 'NONE',  ( -6.200000000000000178, -15.00000000000000000, 5.000000000000000000 ) ) ;
#430 = ORIENTED_EDGE ( 'NONE', *, *, #123, .T. ) ;
#431 = CARTESIAN_POINT ( 'NONE',  ( -11.29999999999999893, -5.800000000000000711, 0.1999999999999996503 ) ) ;
#432 = EDGE_CURVE ( 'NONE', #111, #563, #878, .T. ) ;
#433 = DIRECTION ( 'NONE',  ( -0.000000000000000000, 1.000000000000000000, -0.000000000000000000 ) ) ;
#434 = CARTESIAN_POINT ( 'NONE',  ( 11.70000000000000107, -5.800000000000000711, 0.000000000000000000 ) ) ;
#435 = EDGE_LOOP ( 'NONE', ( #949 ) ) ;
#436 = ORIENTED_EDGE ( 'NONE', *, *, #790, .F. ) ;
#437 = LINE ( 'NONE', #80, #376 ) ;
#438 = TOROIDAL_SURFACE ( 'NONE', #787, 0.4000000000000000222, 0.2000000000000000111 ) ;
#439 = EDGE_CURVE ( 'NONE', #145, #575, #226, .T. ) ;
#440 = LINE ( 'NONE', #357, #822 ) ;
#441 = VECTOR ( 'NONE', #668, 1000.000000000000000 ) ;
#442 = DIRECTION ( 'NONE',  ( -1.000000000000000000, 0.000000000000000000, 0.000000000000000000 ) ) ;
#443 = ORIENTED_EDGE ( 'NONE', *, *, #1034, .F. ) ;
#444 = ORIENTED_EDGE ( 'NONE', *, *, #956, .F. ) ;
#445 = PRODUCT_DEFINITION_FORMATION_WITH_SPECIFIED_SOURCE ( 'Symmetric', '', #209, .NOT_KNOWN. ) ;
#446 = CARTESIAN_POINT ( 'NONE',  ( -17.49999999999999645, 9.000000000000001776, 5.000000000000000000 ) ) ;
#447 = VECTOR ( 'NONE', #286, 1000.000000000000000 ) ;
#448 = EDGE_CURVE ( 'NONE', #991, #741, #965, .T. ) ;
#449 = CARTESIAN_POINT ( 'NONE',  ( 11.70000000000000107, -6.000000000000000000, 4.800000000000000711 ) ) ;
#450 = CARTESIAN_POINT ( 'NONE',  ( -11.50000000000000000, 6.000000000000000000, 4.800000000000000711 ) ) ;
#451 = ORIENTED_EDGE ( 'NONE', *, *, #664, .T. ) ;
#452 = CARTESIAN_POINT ( 'NONE',  ( 14.00000000000000000, -1.387778780781445676E-14, 5.000000000000000000 ) ) ;
#453 = DIRECTION ( 'NONE',  ( 1.000000000000000000, 0.000000000000000000, 0.000000000000000000 ) ) ;
#454 = DIRECTION ( 'NONE',  ( -0.000000000000000000, -0.000000000000000000, -1.000000000000000000 ) ) ;
#455 = ADVANCED_FACE ( 'NONE', ( #221 ), #558, .T. ) ;
#456 = ORIENTED_EDGE ( 'NONE', *, *, #50, .F. ) ;
#457 = AXIS2_PLACEMENT_3D ( 'NONE', #1004, #672, #316 ) ;
#458 = AXIS2_PLACEMENT_3D ( 'NONE', #501, #1006, #8 ) ;
#459 = DIRECTION ( 'NONE',  ( -1.000000000000000000, 0.000000000000000000, 0.000000000000000000 ) ) ;
#460 = ORIENTED_EDGE ( 'NONE', *, *, #956, .T. ) ;
#461 = CARTESIAN_POINT ( 'NONE',  ( 12.50000000000000000, -10.00000000000000711, 5.000000000000000000 ) ) ;
#462 = DIRECTION ( 'NONE',  ( -0.000000000000000000, -0.000000000000000000, -1.000000000000000000 ) ) ;
#463 = VERTEX_POINT ( 'NONE', #446 ) ;
#464 = EDGE_CURVE ( 'NONE', #563, #255, #616, .T. ) ;
#465 = PRODUCT_DEFINITION_CONTEXT ( 'detailed design', #1070, 'design' ) ;
#466 = VECTOR ( 'NONE', #583, 1000.000000000000000 ) ;
#467 = LINE ( 'NONE', #304, #407 ) ;
#468 = VERTEX_POINT ( 'NONE', #189 ) ;
#469 = CARTESIAN_POINT ( 'NONE',  ( -17.49999999999999645, 9.000000000000001776, 0.000000000000000000 ) ) ;
#470 = EDGE_CURVE ( 'NONE', #295, #12, #1055, .T. ) ;
#471 = CARTESIAN_POINT ( 'NONE',  ( -17.49999999999999645, 9.000000000000001776, 5.000000000000000000 ) ) ;
#472 = PRESENTATION_STYLE_ASSIGNMENT (( #219 ) ) ;
#473 = ORIENTED_EDGE ( 'NONE', *, *, #554, .F. ) ;
#474 = AXIS2_PLACEMENT_3D ( 'NONE', #1012, #678, #835 ) ;
#475 = CARTESIAN_POINT ( 'NONE',  ( -11.50000000000000000, 6.000000000000000000, 5.000000000000000000 ) ) ;
#476 = VERTEX_POINT ( 'NONE', #1058 ) ;
#477 = DIRECTION ( 'NONE',  ( 0.000000000000000000, 0.000000000000000000, 1.000000000000000000 ) ) ;
#478 = ADVANCED_FACE ( 'NONE', ( #283 ), #195, .T. ) ;
#479 = EDGE_LOOP ( 'NONE', ( #643, #128, #619, #92, #757, #321, #877, #116 ) ) ;
#480 = DIRECTION ( 'NONE',  ( -1.239088197126290817E-16, -1.000000000000000000, 0.000000000000000000 ) ) ;
#481 = CARTESIAN_POINT ( 'NONE',  ( 11.30000000000000071, -5.800000000000000711, 4.800000000000000711 ) ) ;
#482 = EDGE_CURVE ( 'NONE', #255, #518, #171, .T. ) ;
#483 = ORIENTED_EDGE ( 'NONE', *, *, #470, .F. ) ;
#484 = CARTESIAN_POINT ( 'NONE',  ( 11.30000000000000071, -6.200000000000001066, 0.000000000000000000 ) ) ;
#485 = CARTESIAN_POINT ( 'NONE',  ( 11.70000000000000107, -5.800000000000000711, 0.2000000000000000111 ) ) ;
#486 = CARTESIAN_POINT ( 'NONE',  ( -11.29999999999999893, -6.000000000000000000, 4.800000000000000711 ) ) ;
#487 = ORIENTED_EDGE ( 'NONE', *, *, #511, .F. ) ;
#488 = ORIENTED_EDGE ( 'NONE', *, *, #249, .F. ) ;
#489 = PLANE ( 'NONE',  #754 ) ;
#490 = DIRECTION ( 'NONE',  ( 1.000000000000000000, 0.000000000000000000, 0.000000000000000000 ) ) ;
#491 = DIRECTION ( 'NONE',  ( 0.000000000000000000, 0.000000000000000000, -1.000000000000000000 ) ) ;
#492 = ORIENTED_EDGE ( 'NONE', *, *, #381, .F. ) ;
#493 = CARTESIAN_POINT ( 'NONE',  ( -6.200000000000000178, -16.50000000000000000, 5.000000000000000000 ) ) ;
#494 = EDGE_CURVE ( 'NONE', #359, #688, #257, .T. ) ;
#495 = FACE_BOUND ( 'NONE', #280, .T. ) ;
#496 = CARTESIAN_POINT ( 'NONE',  ( -17.49999999999999645, 9.000000000000001776, 0.000000000000000000 ) ) ;
#497 = ORIENTED_EDGE ( 'NONE', *, *, #777, .F. ) ;
#498 = CARTESIAN_POINT ( 'NONE',  ( -11.29999999999999893, -5.800000000000000711, 4.800000000000000711 ) ) ;
#499 = VECTOR ( 'NONE', #1025, 1000.000000000000000 ) ;
#500 = APPLICATION_PROTOCOL_DEFINITION ( 'draft international standard', 'automotive_design', 1998, #1070 ) ;
#501 = CARTESIAN_POINT ( 'NONE',  ( 11.50000000000000000, -6.000000000000000000, 5.000000000000000000 ) ) ;
#502 = DIRECTION ( 'NONE',  ( 1.000000000000000000, 0.000000000000000000, 0.000000000000000000 ) ) ;
#503 = ORIENTED_EDGE ( 'NONE', *, *, #58, .F. ) ;
#504 = AXIS2_PLACEMENT_3D ( 'NONE', #475, #389, #891 ) ;
#505 = EDGE_LOOP ( 'NONE', ( #613 ) ) ;
#506 = DIRECTION ( 'NONE',  ( 1.000000000000000000, 0.000000000000000000, 0.000000000000000000 ) ) ;
#507 = FACE_BOUND ( 'NONE', #765, .T. ) ;
#508 = VECTOR ( 'NONE', #386, 1000.000000000000000 ) ;
#509 = LINE ( 'NONE', #907, #217 ) ;
#510 = EDGE_LOOP ( 'NONE', ( #580, #1003, #1039, #273 ) ) ;
#511 = EDGE_CURVE ( 'NONE', #1026, #372, #412, .T. ) ;
#512 = CIRCLE ( 'NONE', #548, 0.2000000000000000111 ) ;
#513 = ORIENTED_EDGE ( 'NONE', *, *, #820, .T. ) ;
#514 = CARTESIAN_POINT ( 'NONE',  ( 14.00000000000000178, -15.50000000000000000, 5.000000000000000000 ) ) ;
#515 = CARTESIAN_POINT ( 'NONE',  ( 11.30000000000000071, -6.200000000000000178, 5.000000000000000000 ) ) ;
#516 = DIRECTION ( 'NONE',  ( -0.000000000000000000, -0.000000000000000000, -1.000000000000000000 ) ) ;
#517 = CARTESIAN_POINT ( 'NONE',  ( -11.29999999999999893, -5.800000000000000711, 0.1999999999999996503 ) ) ;
#518 = VERTEX_POINT ( 'NONE', #199 ) ;
#519 = DIRECTION ( 'NONE',  ( -0.000000000000000000, -0.000000000000000000, -1.000000000000000000 ) ) ;
#520 = AXIS2_PLACEMENT_3D ( 'NONE', #864, #621, #31 ) ;
#521 = LINE ( 'NONE', #166, #317 ) ;
#522 = FACE_OUTER_BOUND ( 'NONE', #120, .T. ) ;
#523 = DIRECTION ( 'NONE',  ( -1.000000000000000000, 0.000000000000000000, 0.000000000000000000 ) ) ;
#524 = ORIENTED_EDGE ( 'NONE', *, *, #1080, .T. ) ;
#525 = ADVANCED_FACE ( 'NONE', ( #782 ), #361, .F. ) ;
#526 = DIRECTION ( 'NONE',  ( 0.000000000000000000, 0.000000000000000000, 1.000000000000000000 ) ) ;
#527 = STYLED_ITEM ( 'NONE', ( #472 ), #277 ) ;
#528 = LINE ( 'NONE', #606, #289 ) ;
#529 = DIRECTION ( 'NONE',  ( 0.000000000000000000, 0.000000000000000000, 1.000000000000000000 ) ) ;
#530 = EDGE_LOOP ( 'NONE', ( #76 ) ) ;
#531 =( GEOMETRIC_REPRESENTATION_CONTEXT ( 3 ) GLOBAL_UNCERTAINTY_ASSIGNED_CONTEXT ( ( #590 ) ) GLOBAL_UNIT_ASSIGNED_CONTEXT ( ( #969, #374, #131 ) ) REPRESENTATION_CONTEXT ( 'NONE', 'WORKASPACE' ) );
#532 = EDGE_CURVE ( 'NONE', #311, #311, #183, .T. ) ;
#533 = DIRECTION ( 'NONE',  ( 0.000000000000000000, 0.000000000000000000, 1.000000000000000000 ) ) ;
#534 = AXIS2_PLACEMENT_3D ( 'NONE', #52, #642, #32 ) ;
#535 = DIRECTION ( 'NONE',  ( -0.000000000000000000, -0.000000000000000000, -1.000000000000000000 ) ) ;
#536 = FACE_OUTER_BOUND ( 'NONE', #770, .T. ) ;
#537 = ORIENTED_EDGE ( 'NONE', *, *, #1011, .T. ) ;
#538 = DIRECTION ( 'NONE',  ( 1.000000000000000000, 0.000000000000000000, 0.000000000000000000 ) ) ;
#539 = PLANE ( 'NONE',  #795 ) ;
#540 = DIRECTION ( 'NONE',  ( -1.000000000000000000, 0.000000000000000000, 0.000000000000000000 ) ) ;
#541 = ORIENTED_EDGE ( 'NONE', *, *, #901, .F. ) ;
#542 = AXIS2_PLACEMENT_3D ( 'NONE', #697, #1029, #972 ) ;
#543 = CIRCLE ( 'NONE', #315, 0.3999999999999993006 ) ;
#544 = DIRECTION ( 'NONE',  ( 0.000000000000000000, 1.000000000000000000, 0.000000000000000000 ) ) ;
#545 = CARTESIAN_POINT ( 'NONE',  ( 17.49999999999999645, 9.000000000000001776, 5.000000000000000000 ) ) ;
#546 = EDGE_CURVE ( 'NONE', #651, #651, #735, .T. ) ;
#547 = ORIENTED_EDGE ( 'NONE', *, *, #743, .T. ) ;
#548 = AXIS2_PLACEMENT_3D ( 'NONE', #579, #162, #491 ) ;
#549 = AXIS2_PLACEMENT_3D ( 'NONE', #879, #126, #887 ) ;
#550 = PLANE ( 'NONE',  #763 ) ;
#551 = AXIS2_PLACEMENT_3D ( 'NONE', #545, #375, #637 ) ;
#552 = LINE ( 'NONE', #883, #324 ) ;
#553 = ORIENTED_EDGE ( 'NONE', *, *, #605, .F. ) ;
#554 = EDGE_CURVE ( 'NONE', #210, #463, #1005, .T. ) ;
#555 = FACE_OUTER_BOUND ( 'NONE', #341, .T. ) ;
#556 = LINE ( 'NONE', #973, #894 ) ;
#557 = ORIENTED_EDGE ( 'NONE', *, *, #566, .T. ) ;
#558 = PLANE ( 'NONE',  #504 ) ;
#559 = CIRCLE ( 'NONE', #975, 0.2000000000000000111 ) ;
#560 = EDGE_CURVE ( 'NONE', #237, #345, #595, .T. ) ;
#561 = DIRECTION ( 'NONE',  ( 1.000000000000000000, 0.000000000000000000, 0.000000000000000000 ) ) ;
#562 = FACE_OUTER_BOUND ( 'NONE', #435, .T. ) ;
#563 = VERTEX_POINT ( 'NONE', #742 ) ;
#564 = DIRECTION ( 'NONE',  ( 1.000000000000000000, -0.000000000000000000, 0.000000000000000000 ) ) ;
#565 = UNCERTAINTY_MEASURE_WITH_UNIT (LENGTH_MEASURE( 1.000000000000000082E-05 ), #895, 'distance_accuracy_value', 'NONE');
#566 = EDGE_CURVE ( 'NONE', #372, #12, #682, .T. ) ;
#567 = CARTESIAN_POINT ( 'NONE',  ( -13.00000000000000000, 0.000000000000000000, 5.000000000000000000 ) ) ;
#568 = SURFACE_STYLE_FILL_AREA ( #652 ) ;
#569 = ORIENTED_EDGE ( 'NONE', *, *, #858, .T. ) ;
#570 = VECTOR ( 'NONE', #293, 1000.000000000000000 ) ;
#571 = CARTESIAN_POINT ( 'NONE',  ( 11.30000000000000071, -6.000000000000000000, 4.800000000000000711 ) ) ;
#572 = DIRECTION ( 'NONE',  ( -1.000000000000000000, 0.000000000000000000, 0.000000000000000000 ) ) ;
#573 = LINE ( 'NONE', #91, #696 ) ;
#574 = VERTEX_POINT ( 'NONE', #821 ) ;
#575 = VERTEX_POINT ( 'NONE', #337 ) ;
#576 = DIRECTION ( 'NONE',  ( 0.000000000000000000, 0.000000000000000000, 1.000000000000000000 ) ) ;
#577 = APPLICATION_PROTOCOL_DEFINITION ( 'draft international standard', 'automotive_design', 1998, #322 ) ;
#578 = CARTESIAN_POINT ( 'NONE',  ( -14.00000000000000178, -19.00000000000000000, 5.000000000000000000 ) ) ;
#579 = CARTESIAN_POINT ( 'NONE',  ( 11.30000000000000071, -6.200000000000001066, 0.2000000000000000111 ) ) ;
#580 = ORIENTED_EDGE ( 'NONE', *, *, #432, .F. ) ;
#581 = EDGE_CURVE ( 'NONE', #979, #979, #203, .T. ) ;
#582 = ORIENTED_EDGE ( 'NONE', *, *, #863, .F. ) ;
#583 = DIRECTION ( 'NONE',  ( -0.000000000000000000, -0.000000000000000000, -1.000000000000000000 ) ) ;
#584 = CARTESIAN_POINT ( 'NONE',  ( -11.70000000000000107, 8.492647058823521888, 0.000000000000000000 ) ) ;
#585 = CARTESIAN_POINT ( 'NONE',  ( 3.469446951953614189E-15, 8.492647058823521888, 5.000000000000000000 ) ) ;
#586 = ORIENTED_EDGE ( 'NONE', *, *, #439, .T. ) ;
#587 = CARTESIAN_POINT ( 'NONE',  ( 11.30000000000000071, -5.800000000000000711, 0.1999999999999996503 ) ) ;
#588 = CIRCLE ( 'NONE', #250, 1.499999999999999556 ) ;
#589 = EDGE_CURVE ( 'NONE', #1072, #405, #915, .T. ) ;
#590 = UNCERTAINTY_MEASURE_WITH_UNIT (LENGTH_MEASURE( 1.000000000000000082E-05 ), #969, 'distance_accuracy_value', 'NONE');
#591 =( NAMED_UNIT ( * ) SI_UNIT ( $, .STERADIAN. ) SOLID_ANGLE_UNIT ( ) );
#592 = CARTESIAN_POINT ( 'NONE',  ( 17.49999999999999645, 9.000000000000001776, 5.000000000000000000 ) ) ;
#593 = ORIENTED_EDGE ( 'NONE', *, *, #677, .T. ) ;
#594 = EDGE_LOOP ( 'NONE', ( #146, #191, #681, #881 ) ) ;
#595 = LINE ( 'NONE', #330, #466 ) ;
#596 = EDGE_CURVE ( 'NONE', #707, #625, #1078, .T. ) ;
#597 = SHAPE_DEFINITION_REPRESENTATION ( #635, #944 ) ;
#598 = FACE_BOUND ( 'NONE', #961, .T. ) ;
#599 = LINE ( 'NONE', #1071, #958 ) ;
#600 = ORIENTED_EDGE ( 'NONE', *, *, #274, .F. ) ;
#601 = ORIENTED_EDGE ( 'NONE', *, *, #777, .T. ) ;
#602 = AXIS2_PLACEMENT_3D ( 'NONE', #238, #576, #667 ) ;
#603 = CARTESIAN_POINT ( 'NONE',  ( -11.29999999999999893, -5.800000000000000711, 4.800000000000000711 ) ) ;
#604 = DIRECTION ( 'NONE',  ( -1.000000000000000000, -0.000000000000000000, -0.000000000000000000 ) ) ;
#605 = EDGE_CURVE ( 'NONE', #1072, #1028, #89, .T. ) ;
#606 = CARTESIAN_POINT ( 'NONE',  ( -17.49999999999999645, 9.000000000000001776, 5.000000000000000000 ) ) ;
#607 = VERTEX_POINT ( 'NONE', #70 ) ;
#608 = ORIENTED_EDGE ( 'NONE', *, *, #638, .T. ) ;
#609 = DIRECTION ( 'NONE',  ( 0.000000000000000000, 0.000000000000000000, 1.000000000000000000 ) ) ;
#610 = VECTOR ( 'NONE', #848, 1000.000000000000000 ) ;
#611 = CARTESIAN_POINT ( 'NONE',  ( -11.29999999999999893, -6.000000000000000000, 5.000000000000000000 ) ) ;
#612 = CARTESIAN_POINT ( 'NONE',  ( 6.200000000000000178, -16.50000000000000000, 5.000000000000000000 ) ) ;
#613 = ORIENTED_EDGE ( 'NONE', *, *, #996, .T. ) ;
#614 = VERTEX_POINT ( 'NONE', #1077 ) ;
#615 = VECTOR ( 'NONE', #231, 1000.000000000000000 ) ;
#616 = LINE ( 'NONE', #945, #38 ) ;
#617 = FACE_OUTER_BOUND ( 'NONE', #364, .T. ) ;
#618 = EDGE_LOOP ( 'NONE', ( #796 ) ) ;
#619 = ORIENTED_EDGE ( 'NONE', *, *, #22, .F. ) ;
#620 = CIRCLE ( 'NONE', #1048, 1.000000000000000888 ) ;
#621 = DIRECTION ( 'NONE',  ( -0.000000000000000000, -0.000000000000000000, -1.000000000000000000 ) ) ;
#622 = VECTOR ( 'NONE', #823, 1000.000000000000000 ) ;
#623 = DIRECTION ( 'NONE',  ( 1.000000000000000000, 0.000000000000000000, 0.000000000000000000 ) ) ;
#624 = LINE ( 'NONE', #1031, #447 ) ;
#625 = VERTEX_POINT ( 'NONE', #662 ) ;
#626 = DIRECTION ( 'NONE',  ( -0.000000000000000000, -0.000000000000000000, -1.000000000000000000 ) ) ;
#627 = CARTESIAN_POINT ( 'NONE',  ( -6.200000000000000178, -16.50000000000000000, 0.000000000000000000 ) ) ;
#628 = CARTESIAN_POINT ( 'NONE',  ( -11.50000000000000000, -6.000000000000000000, 4.800000000000000711 ) ) ;
#629 = ORIENTED_EDGE ( 'NONE', *, *, #201, .T. ) ;
#630 = EDGE_CURVE ( 'NONE', #295, #607, #543, .T. ) ;
#631 = DIRECTION ( 'NONE',  ( -1.239088197126290817E-16, -1.000000000000000000, 0.000000000000000000 ) ) ;
#632 = FACE_OUTER_BOUND ( 'NONE', #413, .T. ) ;
#633 = VERTEX_POINT ( 'NONE', #484 ) ;
#634 = VECTOR ( 'NONE', #20, 1000.000000000000000 ) ;
#635 = PRODUCT_DEFINITION_SHAPE ( 'NONE', 'NONE',  #99 ) ;
#636 = DIRECTION ( 'NONE',  ( -1.000000000000000000, 0.000000000000000000, 0.000000000000000000 ) ) ;
#637 = DIRECTION ( 'NONE',  ( 1.239088197126290817E-16, -1.000000000000000000, 0.000000000000000000 ) ) ;
#638 = EDGE_CURVE ( 'NONE', #986, #518, #159, .T. ) ;
#639 = ORIENTED_EDGE ( 'NONE', *, *, #208, .T. ) ;
#640 = CARTESIAN_POINT ( 'NONE',  ( 13.00000000000000000, -1.387778780781445676E-14, 0.000000000000000000 ) ) ;
#641 = AXIS2_PLACEMENT_3D ( 'NONE', #43, #799, #705 ) ;
#642 = DIRECTION ( 'NONE',  ( -0.000000000000000000, -0.000000000000000000, -1.000000000000000000 ) ) ;
#643 = ORIENTED_EDGE ( 'NONE', *, *, #638, .F. ) ;
#644 = ADVANCED_FACE ( 'NONE', ( #839 ), #323, .F. ) ;
#645 = CARTESIAN_POINT ( 'NONE',  ( 6.200000000000000178, -16.50000000000000000, 5.000000000000000000 ) ) ;
#646 = CARTESIAN_POINT ( 'NONE',  ( 0.000000000000000000, 0.000000000000000000, 0.000000000000000000 ) ) ;
#647 = DIRECTION ( 'NONE',  ( 0.000000000000000000, 0.000000000000000000, -1.000000000000000000 ) ) ;
#648 = EDGE_LOOP ( 'NONE', ( #661, #1076, #404, #411 ) ) ;
#649 = DIRECTION ( 'NONE',  ( 0.000000000000000000, 0.000000000000000000, -1.000000000000000000 ) ) ;
#650 = ADVANCED_FACE ( 'NONE', ( #833 ), #655, .T. ) ;
#651 = VERTEX_POINT ( 'NONE', #1050 ) ;
#652 = FILL_AREA_STYLE ('',( #79 ) ) ;
#653 = AXIS2_PLACEMENT_3D ( 'NONE', #331, #477, #402 ) ;
#654 = ORIENTED_EDGE ( 'NONE', *, *, #790, .T. ) ;
#655 = PLANE ( 'NONE',  #2 ) ;
#656 = DIRECTION ( 'NONE',  ( 0.000000000000000000, 0.000000000000000000, 1.000000000000000000 ) ) ;
#657 = CYLINDRICAL_SURFACE ( 'NONE', #72, 1.000000000000000888 ) ;
#658 = CYLINDRICAL_SURFACE ( 'NONE', #125, 17.50735294117647101 ) ;
#659 = ORIENTED_EDGE ( 'NONE', *, *, #290, .T. ) ;
#660 = AXIS2_PLACEMENT_3D ( 'NONE', #362, #37, #963 ) ;
#661 = ORIENTED_EDGE ( 'NONE', *, *, #335, .T. ) ;
#662 = CARTESIAN_POINT ( 'NONE',  ( 11.30000000000000071, -6.000000000000000000, 0.2000000000000000111 ) ) ;
#663 = CARTESIAN_POINT ( 'NONE',  ( -11.50000000000000000, 6.000000000000000000, 5.000000000000000000 ) ) ;
#664 = EDGE_CURVE ( 'NONE', #801, #801, #620, .T. ) ;
#665 = CARTESIAN_POINT ( 'NONE',  ( 11.70000000000000107, 8.492647058823521888, 0.2000000000000000111 ) ) ;
#666 = ORIENTED_EDGE ( 'NONE', *, *, #151, .T. ) ;
#667 = DIRECTION ( 'NONE',  ( 1.000000000000000000, 0.000000000000000000, 0.000000000000000000 ) ) ;
#668 = DIRECTION ( 'NONE',  ( -0.000000000000000000, -1.000000000000000000, -0.000000000000000000 ) ) ;
#669 = LINE ( 'NONE', #592, #1053 ) ;
#670 = EDGE_CURVE ( 'NONE', #920, #1072, #284, .T. ) ;
#671 = ORIENTED_EDGE ( 'NONE', *, *, #201, .F. ) ;
#672 = DIRECTION ( 'NONE',  ( 0.000000000000000000, -0.000000000000000000, 1.000000000000000000 ) ) ;
#673 = CYLINDRICAL_SURFACE ( 'NONE', #727, 0.2000000000000000111 ) ;
#674 = ORIENTED_EDGE ( 'NONE', *, *, #922, .T. ) ;
#675 = EDGE_LOOP ( 'NONE', ( #380 ) ) ;
#676 = DIRECTION ( 'NONE',  ( 1.000000000000000000, 0.000000000000000000, 0.000000000000000000 ) ) ;
#677 = EDGE_CURVE ( 'NONE', #1028, #237, #740, .T. ) ;
#678 = DIRECTION ( 'NONE',  ( 0.000000000000000000, 0.000000000000000000, 1.000000000000000000 ) ) ;
#679 = CARTESIAN_POINT ( 'NONE',  ( -11.70000000000000107, 6.000000000000000000, 4.800000000000000711 ) ) ;
#680 = CIRCLE ( 'NONE', #750, 0.1999999999999996503 ) ;
#681 = ORIENTED_EDGE ( 'NONE', *, *, #670, .T. ) ;
#682 = CIRCLE ( 'NONE', #49, 0.3999999999999993006 ) ;
#683 = ORIENTED_EDGE ( 'NONE', *, *, #876, .F. ) ;
#684 = CARTESIAN_POINT ( 'NONE',  ( 11.70000000000000107, 6.000000000000000000, 5.000000000000000000 ) ) ;
#685 = ADVANCED_FACE ( 'NONE', ( #739 ), #438, .T. ) ;
#686 = CYLINDRICAL_SURFACE ( 'NONE', #390, 0.2000000000000000111 ) ;
#687 = EDGE_LOOP ( 'NONE', ( #497, #781, #845, #659 ) ) ;
#688 = VERTEX_POINT ( 'NONE', #571 ) ;
#689 = DIRECTION ( 'NONE',  ( -1.000000000000000000, -0.000000000000000000, -0.000000000000000000 ) ) ;
#690 = AXIS2_PLACEMENT_3D ( 'NONE', #393, #327, #490 ) ;
#691 = LINE ( 'NONE', #611, #192 ) ;
#692 = CARTESIAN_POINT ( 'NONE',  ( 14.00000000000000000, -1.387778780781445676E-14, 0.000000000000000000 ) ) ;
#693 = CIRCLE ( 'NONE', #212, 0.1999999999999996503 ) ;
#694 = EDGE_LOOP ( 'NONE', ( #69, #94, #569, #243 ) ) ;
#695 = ORIENTED_EDGE ( 'NONE', *, *, #358, .F. ) ;
#696 = VECTOR ( 'NONE', #343, 1000.000000000000000 ) ;
#697 = CARTESIAN_POINT ( 'NONE',  ( 14.00000000000000178, -15.50000000000000000, 0.000000000000000000 ) ) ;
#698 = FACE_BOUND ( 'NONE', #505, .T. ) ;
#699 = EDGE_LOOP ( 'NONE', ( #826 ) ) ;
#700 = ADVANCED_FACE ( 'NONE', ( #7 ), #489, .T. ) ;
#701 = ORIENTED_EDGE ( 'NONE', *, *, #112, .F. ) ;
#702 = AXIS2_PLACEMENT_3D ( 'NONE', #952, #897, #310 ) ;
#703 = CARTESIAN_POINT ( 'NONE',  ( -11.29999999999999893, -5.800000000000000711, 5.000000000000000000 ) ) ;
#704 = DIRECTION ( 'NONE',  ( 0.000000000000000000, 0.000000000000000000, -1.000000000000000000 ) ) ;
#705 = DIRECTION ( 'NONE',  ( -1.000000000000000000, 0.000000000000000000, 0.000000000000000000 ) ) ;
#706 = ADVANCED_FACE ( 'NONE', ( #147 ), #890, .T. ) ;
#707 = VERTEX_POINT ( 'NONE', #771 ) ;
#708 = VECTOR ( 'NONE', #626, 1000.000000000000000 ) ;
#709 = DIRECTION ( 'NONE',  ( 0.000000000000000000, 0.000000000000000000, 1.000000000000000000 ) ) ;
#710 = FACE_BOUND ( 'NONE', #867, .T. ) ;
#711 = CARTESIAN_POINT ( 'NONE',  ( 13.99999999999999822, -19.00000000000000000, 5.000000000000000000 ) ) ;
#712 = EDGE_LOOP ( 'NONE', ( #785 ) ) ;
#713 = EDGE_CURVE ( 'NONE', #819, #1026, #240, .T. ) ;
#714 = VECTOR ( 'NONE', #789, 1000.000000000000000 ) ;
#715 = DIRECTION ( 'NONE',  ( 1.000000000000000000, -1.239088197126290817E-16, 0.000000000000000000 ) ) ;
#716 = AXIS2_PLACEMENT_3D ( 'NONE', #410, #328, #156 ) ;
#717 = EDGE_LOOP ( 'NONE', ( #282, #722, #732, #896 ) ) ;
#718 = AXIS2_PLACEMENT_3D ( 'NONE', #734, #1062, #113 ) ;
#719 = ADVANCED_FACE ( 'NONE', ( #776 ), #351, .T. ) ;
#720 = CARTESIAN_POINT ( 'NONE',  ( 12.50000000000000000, -10.00000000000000711, 0.000000000000000000 ) ) ;
#721 = FACE_OUTER_BOUND ( 'NONE', #30, .T. ) ;
#722 = ORIENTED_EDGE ( 'NONE', *, *, #589, .F. ) ;
#723 = FACE_OUTER_BOUND ( 'NONE', #530, .T. ) ;
#724 = CARTESIAN_POINT ( 'NONE',  ( -11.70000000000000107, 6.000000000000000000, 5.000000000000000000 ) ) ;
#725 = EDGE_CURVE ( 'NONE', #1008, #986, #932, .T. ) ;
#726 = ORIENTED_EDGE ( 'NONE', *, *, #764, .F. ) ;
#727 = AXIS2_PLACEMENT_3D ( 'NONE', #665, #1081, #990 ) ;
#728 = CARTESIAN_POINT ( 'NONE',  ( 11.70000000000000107, 6.000000000000000000, 4.800000000000000711 ) ) ;
#729 = VERTEX_POINT ( 'NONE', #898 ) ;
#730 = CARTESIAN_POINT ( 'NONE',  ( -8.500000000000000000, 16.00000000000000000, 5.000000000000000000 ) ) ;
#731 = EDGE_CURVE ( 'NONE', #418, #360, #559, .T. ) ;
#732 = ORIENTED_EDGE ( 'NONE', *, *, #605, .T. ) ;
#733 = CIRCLE ( 'NONE', #102, 2.000000000000000888 ) ;
#734 = CARTESIAN_POINT ( 'NONE',  ( -11.70000000000000107, 6.000000000000000000, 0.2000000000000000111 ) ) ;
#735 = CIRCLE ( 'NONE', #988, 1.499999999999999556 ) ;
#736 = CARTESIAN_POINT ( 'NONE',  ( -11.50000000000000000, -6.000000000000000000, 5.000000000000000000 ) ) ;
#737 = DIRECTION ( 'NONE',  ( -0.000000000000000000, -0.000000000000000000, -1.000000000000000000 ) ) ;
#738 = EDGE_LOOP ( 'NONE', ( #935, #456, #1082, #553 ) ) ;
#739 = FACE_OUTER_BOUND ( 'NONE', #187, .T. ) ;
#740 = CIRCLE ( 'NONE', #71, 1.500000000000000444 ) ;
#741 = VERTEX_POINT ( 'NONE', #684 ) ;
#742 = CARTESIAN_POINT ( 'NONE',  ( -11.50000000000000000, -5.800000000000000711, 0.2000000000000000111 ) ) ;
#743 = EDGE_CURVE ( 'NONE', #1009, #254, #300, .T. ) ;
#744 = AXIS2_PLACEMENT_3D ( 'NONE', #174, #252, #924 ) ;
#745 = CARTESIAN_POINT ( 'NONE',  ( -11.50000000000000000, 6.000000000000000000, 0.1999999999999996503 ) ) ;
#746 = FACE_OUTER_BOUND ( 'NONE', #687, .T. ) ;
#747 = VECTOR ( 'NONE', #213, 1000.000000000000000 ) ;
#748 = ORIENTED_EDGE ( 'NONE', *, *, #22, .T. ) ;
#749 = DIRECTION ( 'NONE',  ( -0.000000000000000000, -0.000000000000000000, -1.000000000000000000 ) ) ;
#750 = AXIS2_PLACEMENT_3D ( 'NONE', #934, #1037, #704 ) ;
#751 = DIRECTION ( 'NONE',  ( 0.000000000000000000, 0.000000000000000000, 1.000000000000000000 ) ) ;
#752 = EDGE_LOOP ( 'NONE', ( #424, #1017, #34, #600 ) ) ;
#753 = CARTESIAN_POINT ( 'NONE',  ( 14.00000000000000000, -10.00000000000000711, 0.000000000000000000 ) ) ;
#754 = AXIS2_PLACEMENT_3D ( 'NONE', #827, #406, #982 ) ;
#755 = FACE_OUTER_BOUND ( 'NONE', #355, .T. ) ;
#756 = CARTESIAN_POINT ( 'NONE',  ( 8.500000000000000000, 15.99999999999997335, 5.000000000000000000 ) ) ;
#757 = ORIENTED_EDGE ( 'NONE', *, *, #758, .T. ) ;
#758 = EDGE_CURVE ( 'NONE', #741, #26, #851, .T. ) ;
#759 = DIRECTION ( 'NONE',  ( 0.000000000000000000, 0.000000000000000000, -1.000000000000000000 ) ) ;
#760 = FACE_OUTER_BOUND ( 'NONE', #98, .T. ) ;
#761 = DIRECTION ( 'NONE',  ( -0.000000000000000000, -0.000000000000000000, -1.000000000000000000 ) ) ;
#762 = ORIENTED_EDGE ( 'NONE', *, *, #242, .T. ) ;
#763 = AXIS2_PLACEMENT_3D ( 'NONE', #736, #544, #807 ) ;
#764 = EDGE_CURVE ( 'NONE', #51, #51, #251, .T. ) ;
#765 = EDGE_LOOP ( 'NONE', ( #726 ) ) ;
#766 = DIRECTION ( 'NONE',  ( 0.000000000000000000, 0.000000000000000000, -1.000000000000000000 ) ) ;
#767 = CARTESIAN_POINT ( 'NONE',  ( 3.469446951953614189E-15, 8.492647058823521888, 5.000000000000000000 ) ) ;
#768 = FACE_BOUND ( 'NONE', #675, .T. ) ;
#769 = DIRECTION ( 'NONE',  ( -0.000000000000000000, -0.000000000000000000, -1.000000000000000000 ) ) ;
#770 = EDGE_LOOP ( 'NONE', ( #1016 ) ) ;
#771 = CARTESIAN_POINT ( 'NONE',  ( 11.50000000000000000, -5.800000000000000711, 0.2000000000000000111 ) ) ;
#772 = FACE_BOUND ( 'NONE', #377, .T. ) ;
#773 = LINE ( 'NONE', #860, #223 ) ;
#774 = ORIENTED_EDGE ( 'NONE', *, *, #797, .F. ) ;
#775 = ORIENTED_EDGE ( 'NONE', *, *, #581, .T. ) ;
#776 = FACE_OUTER_BOUND ( 'NONE', #947, .T. ) ;
#777 = EDGE_CURVE ( 'NONE', #254, #39, #437, .T. ) ;
#778 = CARTESIAN_POINT ( 'NONE',  ( 13.99999999999999822, -19.00000000000000000, 5.000000000000000000 ) ) ;
#779 = FACE_BOUND ( 'NONE', #65, .T. ) ;
#780 = ORIENTED_EDGE ( 'NONE', *, *, #58, .T. ) ;
#781 = ORIENTED_EDGE ( 'NONE', *, *, #222, .T. ) ;
#782 = FACE_OUTER_BOUND ( 'NONE', #1060, .T. ) ;
#783 = DIRECTION ( 'NONE',  ( 0.000000000000000000, 0.000000000000000000, -1.000000000000000000 ) ) ;
#784 = CARTESIAN_POINT ( 'NONE',  ( -11.70000000000000107, -5.800000000000000711, 0.000000000000000000 ) ) ;
#785 = ORIENTED_EDGE ( 'NONE', *, *, #78, .F. ) ;
#786 = DIRECTION ( 'NONE',  ( 0.000000000000000000, 0.000000000000000000, 1.000000000000000000 ) ) ;
#787 = AXIS2_PLACEMENT_3D ( 'NONE', #498, #905, #154 ) ;
#788 = CARTESIAN_POINT ( 'NONE',  ( -17.50000000000000000, -15.50000000000000000, 5.000000000000000000 ) ) ;
#789 = DIRECTION ( 'NONE',  ( 0.000000000000000000, 0.000000000000000000, -1.000000000000000000 ) ) ;
#790 = EDGE_CURVE ( 'NONE', #707, #359, #573, .T. ) ;
#791 = ORIENTED_EDGE ( 'NONE', *, *, #27, .T. ) ;
#792 = VECTOR ( 'NONE', #307, 1000.000000000000000 ) ;
#793 = CIRCLE ( 'NONE', #474, 1.499999999999999556 ) ;
#794 = CARTESIAN_POINT ( 'NONE',  ( -17.49999999999999645, 9.000000000000001776, 5.000000000000000000 ) ) ;
#795 = AXIS2_PLACEMENT_3D ( 'NONE', #17, #854, #348 ) ;
#796 = ORIENTED_EDGE ( 'NONE', *, *, #532, .F. ) ;
#797 = EDGE_CURVE ( 'NONE', #359, #991, #509, .T. ) ;
#798 = VERTEX_POINT ( 'NONE', #1063 ) ;
#799 = DIRECTION ( 'NONE',  ( -0.000000000000000000, -0.000000000000000000, -1.000000000000000000 ) ) ;
#800 = EDGE_LOOP ( 'NONE', ( #941, #503, #110, #313 ) ) ;
#801 = VERTEX_POINT ( 'NONE', #567 ) ;
#802 = DIRECTION ( 'NONE',  ( -0.000000000000000000, -0.000000000000000000, -1.000000000000000000 ) ) ;
#803 = VERTEX_POINT ( 'NONE', #97 ) ;
#804 = AXIS2_PLACEMENT_3D ( 'NONE', #514, #766, #1018 ) ;
#805 = DIRECTION ( 'NONE',  ( -0.000000000000000000, 1.000000000000000000, -0.000000000000000000 ) ) ;
#806 = ADVANCED_FACE ( 'NONE', ( #422, #830 ), #261, .F. ) ;
#807 = DIRECTION ( 'NONE',  ( 0.000000000000000000, -0.000000000000000000, 1.000000000000000000 ) ) ;
#808 = VECTOR ( 'NONE', #999, 1000.000000000000000 ) ;
#809 = LINE ( 'NONE', #663, #913 ) ;
#810 = ORIENTED_EDGE ( 'NONE', *, *, #876, .T. ) ;
#811 = CARTESIAN_POINT ( 'NONE',  ( -11.29999999999999893, -6.200000000000001066, 0.000000000000000000 ) ) ;
#812 = CARTESIAN_POINT ( 'NONE',  ( -14.00000000000000000, -10.00000000000000000, 5.000000000000000000 ) ) ;
#813 = FACE_OUTER_BOUND ( 'NONE', #168, .T. ) ;
#814 = EDGE_LOOP ( 'NONE', ( #582, #175, #487, #137 ) ) ;
#815 = AXIS2_PLACEMENT_3D ( 'NONE', #272, #196, #453 ) ;
#816 = LINE ( 'NONE', #469, #1013 ) ;
#817 = AXIS2_PLACEMENT_3D ( 'NONE', #753, #170, #1073 ) ;
#818 = CARTESIAN_POINT ( 'NONE',  ( -6.200000000000000178, -13.50000000000000000, 5.000000000000000000 ) ) ;
#819 = VERTEX_POINT ( 'NONE', #486 ) ;
#820 = EDGE_CURVE ( 'NONE', #1026, #563, #241, .T. ) ;
#821 = CARTESIAN_POINT ( 'NONE',  ( -14.00000000000000178, -19.00000000000000000, 0.000000000000000000 ) ) ;
#822 = VECTOR ( 'NONE', #178, 1000.000000000000000 ) ;
#823 = DIRECTION ( 'NONE',  ( 0.000000000000000000, 0.000000000000000000, -1.000000000000000000 ) ) ;
#824 = DIRECTION ( 'NONE',  ( -1.000000000000000000, 0.000000000000000000, 0.000000000000000000 ) ) ;
#825 = AXIS2_PLACEMENT_3D ( 'NONE', #1069, #906, #1059 ) ;
#826 = ORIENTED_EDGE ( 'NONE', *, *, #581, .F. ) ;
#827 = CARTESIAN_POINT ( 'NONE',  ( -6.200000000000000178, -13.50000000000000000, 5.000000000000000000 ) ) ;
#828 = ADVANCED_FACE ( 'NONE', ( #837 ), #86, .T. ) ;
#829 = CARTESIAN_POINT ( 'NONE',  ( -14.00000000000000178, -19.00000000000000000, 5.000000000000000000 ) ) ;
#830 = FACE_OUTER_BOUND ( 'NONE', #150, .T. ) ;
#831 = ORIENTED_EDGE ( 'NONE', *, *, #922, .F. ) ;
#832 = ORIENTED_EDGE ( 'NONE', *, *, #758, .F. ) ;
#833 = FACE_OUTER_BOUND ( 'NONE', #236, .T. ) ;
#834 = EDGE_CURVE ( 'NONE', #385, #385, #733, .T. ) ;
#835 = DIRECTION ( 'NONE',  ( 1.000000000000000000, 0.000000000000000000, 0.000000000000000000 ) ) ;
#836 = AXIS2_PLACEMENT_3D ( 'NONE', #452, #786, #35 ) ;
#837 = FACE_OUTER_BOUND ( 'NONE', #800, .T. ) ;
#838 = ORIENTED_EDGE ( 'NONE', *, *, #1011, .F. ) ;
#839 = FACE_OUTER_BOUND ( 'NONE', #955, .T. ) ;
#840 = DIRECTION ( 'NONE',  ( 1.000000000000000000, 0.000000000000000000, 0.000000000000000000 ) ) ;
#841 = AXIS2_PLACEMENT_3D ( 'NONE', #728, #1024, #278 ) ;
#842 = EDGE_CURVE ( 'NONE', #145, #614, #599, .T. ) ;
#843 = FACE_OUTER_BOUND ( 'NONE', #152, .T. ) ;
#844 = ORIENTED_EDGE ( 'NONE', *, *, #14, .F. ) ;
#845 = ORIENTED_EDGE ( 'NONE', *, *, #1044, .T. ) ;
#846 = DIRECTION ( 'NONE',  ( 1.000000000000000000, 0.000000000000000000, 0.000000000000000000 ) ) ;
#847 = DIRECTION ( 'NONE',  ( -1.000000000000000000, 0.000000000000000000, 0.000000000000000000 ) ) ;
#848 = DIRECTION ( 'NONE',  ( 0.000000000000000000, 0.000000000000000000, -1.000000000000000000 ) ) ;
#849 = FACE_OUTER_BOUND ( 'NONE', #594, .T. ) ;
#850 = ORIENTED_EDGE ( 'NONE', *, *, #464, .T. ) ;
#851 = LINE ( 'NONE', #101, #852 ) ;
#852 = VECTOR ( 'NONE', #689, 1000.000000000000000 ) ;
#853 = FACE_BOUND ( 'NONE', #974, .T. ) ;
#854 = DIRECTION ( 'NONE',  ( -0.000000000000000000, 0.000000000000000000, -1.000000000000000000 ) ) ;
#855 = VERTEX_POINT ( 'NONE', #496 ) ;
#856 = ORIENTED_EDGE ( 'NONE', *, *, #151, .F. ) ;
#857 = DIRECTION ( 'NONE',  ( 0.000000000000000000, 0.000000000000000000, 1.000000000000000000 ) ) ;
#858 = EDGE_CURVE ( 'NONE', #625, #360, #333, .T. ) ;
#859 = CARTESIAN_POINT ( 'NONE',  ( 14.00000000000000178, -15.50000000000000000, 5.000000000000000000 ) ) ;
#860 = CARTESIAN_POINT ( 'NONE',  ( 11.70000000000000107, -6.000000000000000000, 5.000000000000000000 ) ) ;
#861 = ORIENTED_EDGE ( 'NONE', *, *, #560, .T. ) ;
#862 = ORIENTED_EDGE ( 'NONE', *, *, #1034, .T. ) ;
#863 = EDGE_CURVE ( 'NONE', #26, #59, #869, .T. ) ;
#864 = CARTESIAN_POINT ( 'NONE',  ( 11.30000000000000071, -5.800000000000000711, 4.800000000000000711 ) ) ;
#865 = DIRECTION ( 'NONE',  ( 0.000000000000000000, -1.000000000000000000, 0.000000000000000000 ) ) ;
#866 = DIRECTION ( 'NONE',  ( 1.000000000000000000, 0.000000000000000000, 0.000000000000000000 ) ) ;
#867 = EDGE_LOOP ( 'NONE', ( #83, #608, #937, #701, #639, #671 ) ) ;
#868 = CARTESIAN_POINT ( 'NONE',  ( -6.200000000000000178, -16.50000000000000000, 0.000000000000000000 ) ) ;
#869 = CIRCLE ( 'NONE', #391, 0.1999999999999996503 ) ;
#870 = ADVANCED_FACE ( 'NONE', ( #929 ), #673, .T. ) ;
#871 = FACE_BOUND ( 'NONE', #1054, .T. ) ;
#872 = DIRECTION ( 'NONE',  ( 0.000000000000000000, -1.000000000000000000, 0.000000000000000000 ) ) ;
#873 = ORIENTED_EDGE ( 'NONE', *, *, #494, .F. ) ;
#874 = CYLINDRICAL_SURFACE ( 'NONE', #41, 1.500000000000000444 ) ;
#875 = PLANE ( 'NONE',  #232 ) ;
#876 = EDGE_CURVE ( 'NONE', #468, #210, #669, .T. ) ;
#877 = ORIENTED_EDGE ( 'NONE', *, *, #258, .T. ) ;
#878 = CIRCLE ( 'NONE', #365, 0.2000000000000000111 ) ;
#879 = CARTESIAN_POINT ( 'NONE',  ( -11.50000000000000000, -6.200000000000000178, 4.800000000000000711 ) ) ;
#880 = CYLINDRICAL_SURFACE ( 'NONE', #29, 1.000000000000000888 ) ;
#881 = ORIENTED_EDGE ( 'NONE', *, *, #589, .T. ) ;
#882 = AXIS2_PLACEMENT_3D ( 'NONE', #1042, #529, #866 ) ;
#883 = CARTESIAN_POINT ( 'NONE',  ( 11.50000000000000000, 6.000000000000000000, 5.000000000000000000 ) ) ;
#884 = ORIENTED_EDGE ( 'NONE', *, *, #951, .T. ) ;
#885 = DIRECTION ( 'NONE',  ( -1.000000000000000000, 0.000000000000000000, 0.000000000000000000 ) ) ;
#886 = ADVANCED_FACE ( 'NONE', ( #843 ), #658, .T. ) ;
#887 = DIRECTION ( 'NONE',  ( 0.000000000000000000, 0.000000000000000000, 1.000000000000000000 ) ) ;
#888 = FACE_OUTER_BOUND ( 'NONE', #1033, .T. ) ;
#889 = ORIENTED_EDGE ( 'NONE', *, *, #27, .F. ) ;
#890 = TOROIDAL_SURFACE ( 'NONE', #332, 0.4000000000000000222, 0.2000000000000000111 ) ;
#891 = DIRECTION ( 'NONE',  ( 0.000000000000000000, -0.000000000000000000, -1.000000000000000000 ) ) ;
#892 = AXIS2_PLACEMENT_3D ( 'NONE', #767, #16, #347 ) ;
#893 = ADVANCED_FACE ( 'NONE', ( #746 ), #74, .F. ) ;
#894 = VECTOR ( 'NONE', #1079, 1000.000000000000000 ) ;
#895 =( LENGTH_UNIT ( ) NAMED_UNIT ( * ) SI_UNIT ( .MILLI., .METRE. ) );
#896 = ORIENTED_EDGE ( 'NONE', *, *, #408, .T. ) ;
#897 = DIRECTION ( 'NONE',  ( 0.000000000000000000, -1.000000000000000000, 0.000000000000000000 ) ) ;
#898 = CARTESIAN_POINT ( 'NONE',  ( -13.00000000000000000, 0.000000000000000000, 0.000000000000000000 ) ) ;
#899 = CIRCLE ( 'NONE', #1040, 1.500000000000000444 ) ;
#900 = FACE_OUTER_BOUND ( 'NONE', #510, .T. ) ;
#901 = EDGE_CURVE ( 'NONE', #633, #625, #512, .T. ) ;
#902 = AXIS2_PLACEMENT_3D ( 'NONE', #107, #182, #177 ) ;
#903 = ORIENTED_EDGE ( 'NONE', *, *, #173, .T. ) ;
#904 = ORIENTED_EDGE ( 'NONE', *, *, #566, .F. ) ;
#905 = DIRECTION ( 'NONE',  ( -0.000000000000000000, -0.000000000000000000, -1.000000000000000000 ) ) ;
#906 = DIRECTION ( 'NONE',  ( 0.000000000000000000, -1.000000000000000000, 0.000000000000000000 ) ) ;
#907 = CARTESIAN_POINT ( 'NONE',  ( 11.50000000000000000, 6.000000000000000000, 4.800000000000000711 ) ) ;
#908 = ADVANCED_FACE ( 'NONE', ( #417 ), #235, .T. ) ;
#909 = ORIENTED_EDGE ( 'NONE', *, *, #358, .T. ) ;
#910 = CARTESIAN_POINT ( 'NONE',  ( 11.30000000000000071, -5.800000000000000711, 5.000000000000000000 ) ) ;
#911 = DIRECTION ( 'NONE',  ( -0.000000000000000000, -0.000000000000000000, -1.000000000000000000 ) ) ;
#912 = CARTESIAN_POINT ( 'NONE',  ( -17.50000000000000000, -19.00000000000000000, 5.000000000000000000 ) ) ;
#913 = VECTOR ( 'NONE', #911, 1000.000000000000000 ) ;
#914 = ORIENTED_EDGE ( 'NONE', *, *, #439, .F. ) ;
#915 = LINE ( 'NONE', #1083, #615 ) ;
#916 = ADVANCED_FACE ( 'NONE', ( #167 ), #185, .T. ) ;
#917 = AXIS2_PLACEMENT_3D ( 'NONE', #812, #140, #636 ) ;
#918 = CYLINDRICAL_SURFACE ( 'NONE', #1035, 1.499999999999999556 ) ;
#919 = DIRECTION ( 'NONE',  ( 0.000000000000000000, -0.000000000000000000, 1.000000000000000000 ) ) ;
#920 = VERTEX_POINT ( 'NONE', #940 ) ;
#921 = DIRECTION ( 'NONE',  ( 0.000000000000000000, 0.000000000000000000, 1.000000000000000000 ) ) ;
#922 = EDGE_CURVE ( 'NONE', #688, #295, #680, .T. ) ;
#923 = CARTESIAN_POINT ( 'NONE',  ( -6.200000000000000178, -13.49999999999999822, 0.000000000000000000 ) ) ;
#924 = DIRECTION ( 'NONE',  ( 0.000000000000000000, -0.000000000000000000, 1.000000000000000000 ) ) ;
#925 = ORIENTED_EDGE ( 'NONE', *, *, #305, .T. ) ;
#926 = VERTEX_POINT ( 'NONE', #179 ) ;
#927 = DIRECTION ( 'NONE',  ( 1.000000000000000000, 0.000000000000000000, 0.000000000000000000 ) ) ;
#928 = FACE_BOUND ( 'NONE', #618, .T. ) ;
#929 = FACE_OUTER_BOUND ( 'NONE', #752, .T. ) ;
#930 = ORIENTED_EDGE ( 'NONE', *, *, #630, .F. ) ;
#931 = ORIENTED_EDGE ( 'NONE', *, *, #50, .T. ) ;
#932 = LINE ( 'NONE', #13, #634 ) ;
#933 = PLANE ( 'NONE',  #458 ) ;
#934 = CARTESIAN_POINT ( 'NONE',  ( 11.30000000000000071, -6.200000000000000178, 4.800000000000000711 ) ) ;
#935 = ORIENTED_EDGE ( 'NONE', *, *, #670, .F. ) ;
#936 = ADVANCED_FACE ( 'NONE', ( #279 ), #874, .F. ) ;
#937 = ORIENTED_EDGE ( 'NONE', *, *, #296, .T. ) ;
#938 = DIRECTION ( 'NONE',  ( -1.000000000000000000, 0.000000000000000000, 0.000000000000000000 ) ) ;
#939 = DIRECTION ( 'NONE',  ( -0.000000000000000000, -0.000000000000000000, 1.000000000000000000 ) ) ;
#940 = CARTESIAN_POINT ( 'NONE',  ( -6.200000000000000178, -13.50000000000000000, 5.000000000000000000 ) ) ;
#941 = ORIENTED_EDGE ( 'NONE', *, *, #743, .F. ) ;
#942 = PRODUCT_RELATED_PRODUCT_CATEGORY ( 'part', '', ( #209 ) ) ;
#943 = EDGE_LOOP ( 'NONE', ( #205, #164, #931, #903 ) ) ;
#944 = ADVANCED_BREP_SHAPE_REPRESENTATION ( 'Part 4 T307', ( #277, #270 ), #531 ) ;
#945 = CARTESIAN_POINT ( 'NONE',  ( -11.50000000000000000, -6.000000000000000000, 0.1999999999999996503 ) ) ;
#946 = DIRECTION ( 'NONE',  ( 0.000000000000000000, 0.000000000000000000, -1.000000000000000000 ) ) ;
#947 = EDGE_LOOP ( 'NONE', ( #695, #220, #914, #889 ) ) ;
#948 = CIRCLE ( 'NONE', #336, 0.1999999999999996503 ) ;
#949 = ORIENTED_EDGE ( 'NONE', *, *, #834, .T. ) ;
#950 = AXIS2_PLACEMENT_3D ( 'NONE', #692, #109, #442 ) ;
#951 = EDGE_CURVE ( 'NONE', #463, #855, #528, .T. ) ;
#952 = CARTESIAN_POINT ( 'NONE',  ( -11.70000000000000107, -5.800000000000000711, 4.800000000000000711 ) ) ;
#953 = CARTESIAN_POINT ( 'NONE',  ( 11.50000000000000000, 6.000000000000000000, 4.800000000000000711 ) ) ;
#954 = DIRECTION ( 'NONE',  ( 0.000000000000000000, 0.000000000000000000, 1.000000000000000000 ) ) ;
#955 = EDGE_LOOP ( 'NONE', ( #227, #214, #873, #436 ) ) ;
#956 = EDGE_CURVE ( 'NONE', #819, #12, #693, .T. ) ;
#957 = CARTESIAN_POINT ( 'NONE',  ( -11.70000000000000107, -6.000000000000000000, 4.800000000000000711 ) ) ;
#958 = VECTOR ( 'NONE', #320, 1000.000000000000000 ) ;
#959 = CARTESIAN_POINT ( 'NONE',  ( 8.500000000000000000, 15.99999999999997335, 0.000000000000000000 ) ) ;
#960 = CARTESIAN_POINT ( 'NONE',  ( 17.50000000000000000, -15.50000000000000000, 0.000000000000000000 ) ) ;
#961 = EDGE_LOOP ( 'NONE', ( #856 ) ) ;
#962 = CARTESIAN_POINT ( 'NONE',  ( 13.00000000000000000, -1.387778780781445676E-14, 5.000000000000000000 ) ) ;
#963 = DIRECTION ( 'NONE',  ( 0.000000000000000000, 0.000000000000000000, -1.000000000000000000 ) ) ;
#964 = EDGE_LOOP ( 'NONE', ( #995 ) ) ;
#965 = CIRCLE ( 'NONE', #841, 0.1999999999999996503 ) ;
#966 = DIRECTION ( 'NONE',  ( -1.000000000000000000, -0.000000000000000000, -0.000000000000000000 ) ) ;
#967 = ADVANCED_FACE ( 'NONE', ( #285, #36, #698, #617, #710, #779, #292, #871, #768 ), #539, .T. ) ;
#968 = ORIENTED_EDGE ( 'NONE', *, *, #130, .T. ) ;
#969 =( LENGTH_UNIT ( ) NAMED_UNIT ( * ) SI_UNIT ( .MILLI., .METRE. ) );
#970 = CARTESIAN_POINT ( 'NONE',  ( 17.50000000000000000, -15.50000000000000000, 5.000000000000000000 ) ) ;
#971 = ORIENTED_EDGE ( 'NONE', *, *, #274, .T. ) ;
#972 = DIRECTION ( 'NONE',  ( -1.000000000000000000, 0.000000000000000000, 0.000000000000000000 ) ) ;
#973 = CARTESIAN_POINT ( 'NONE',  ( 3.469446951953614189E-15, -6.200000000000001066, 0.000000000000000000 ) ) ;
#974 = EDGE_LOOP ( 'NONE', ( #387 ) ) ;
#975 = AXIS2_PLACEMENT_3D ( 'NONE', #1010, #95, #857 ) ;
#976 = LINE ( 'NONE', #384, #1032 ) ;
#977 = ADVANCED_FACE ( 'NONE', ( #522 ), #686, .T. ) ;
#978 = AXIS2_PLACEMENT_3D ( 'NONE', #144, #737, #1064 ) ;
#979 = VERTEX_POINT ( 'NONE', #720 ) ;
#980 = LINE ( 'NONE', #778, #808 ) ;
#981 = ORIENTED_EDGE ( 'NONE', *, *, #511, .T. ) ;
#982 = DIRECTION ( 'NONE',  ( 0.000000000000000000, -0.000000000000000000, -1.000000000000000000 ) ) ;
#983 = CIRCLE ( 'NONE', #388, 0.2000000000000005107 ) ;
#984 = CARTESIAN_POINT ( 'NONE',  ( -14.00000000000000000, 0.000000000000000000, 5.000000000000000000 ) ) ;
#985 = DIRECTION ( 'NONE',  ( -0.000000000000000000, -0.000000000000000000, -1.000000000000000000 ) ) ;
#986 = VERTEX_POINT ( 'NONE', #190 ) ;
#987 = CARTESIAN_POINT ( 'NONE',  ( -14.00000000000000000, 0.000000000000000000, 5.000000000000000000 ) ) ;
#988 = AXIS2_PLACEMENT_3D ( 'NONE', #366, #709, #538 ) ;
#989 = CARTESIAN_POINT ( 'NONE',  ( 11.50000000000000000, -6.000000000000000000, 0.1999999999999996503 ) ) ;
#990 = DIRECTION ( 'NONE',  ( 0.000000000000000000, 0.000000000000000000, 1.000000000000000000 ) ) ;
#991 = VERTEX_POINT ( 'NONE', #953 ) ;
#992 = DIRECTION ( 'NONE',  ( -1.000000000000000000, 0.000000000000000000, 0.000000000000000000 ) ) ;
#993 = FACE_OUTER_BOUND ( 'NONE', #53, .T. ) ;
#994 = DIRECTION ( 'NONE',  ( 0.000000000000000000, 0.000000000000000000, -1.000000000000000000 ) ) ;
#995 = ORIENTED_EDGE ( 'NONE', *, *, #78, .T. ) ;
#996 = EDGE_CURVE ( 'NONE', #729, #729, #1002, .T. ) ;
#997 = CARTESIAN_POINT ( 'NONE',  ( -11.50000000000000000, -6.000000000000000000, 5.000000000000000000 ) ) ;
#998 = AXIS2_PLACEMENT_3D ( 'NONE', #912, #1075, #919 ) ;
#999 = DIRECTION ( 'NONE',  ( -0.000000000000000000, -0.000000000000000000, 1.000000000000000000 ) ) ;
#1000 = DIRECTION ( 'NONE',  ( -1.239088197126290817E-16, 1.000000000000000000, -0.000000000000000000 ) ) ;
#1001 = EDGE_LOOP ( 'NONE', ( #488, #11, #593, #861 ) ) ;
#1002 = CIRCLE ( 'NONE', #815, 1.000000000000000888 ) ;
#1003 = ORIENTED_EDGE ( 'NONE', *, *, #296, .F. ) ;
#1004 = CARTESIAN_POINT ( 'NONE',  ( 11.30000000000000071, -5.800000000000000711, 5.000000000000000000 ) ) ;
#1005 = CIRCLE ( 'NONE', #66, 17.50735294117647101 ) ;
#1006 = DIRECTION ( 'NONE',  ( -1.000000000000000000, 0.000000000000000000, 0.000000000000000000 ) ) ;
#1007 = CARTESIAN_POINT ( 'NONE',  ( -11.50000000000000000, -5.800000000000000711, 0.000000000000000000 ) ) ;
#1008 = VERTEX_POINT ( 'NONE', #434 ) ;
#1009 = VERTEX_POINT ( 'NONE', #788 ) ;
#1010 = CARTESIAN_POINT ( 'NONE',  ( -11.29999999999999893, -6.200000000000000178, 0.2000000000000000111 ) ) ;
#1011 = EDGE_CURVE ( 'NONE', #741, #607, #773, .T. ) ;
#1012 = CARTESIAN_POINT ( 'NONE',  ( -14.00000000000000000, -10.00000000000000000, 0.000000000000000000 ) ) ;
#1013 = VECTOR ( 'NONE', #480, 1000.000000000000000 ) ;
#1014 = LINE ( 'NONE', #627, #499 ) ;
#1015 = AXIS2_PLACEMENT_3D ( 'NONE', #587, #399, #1066 ) ;
#1016 = ORIENTED_EDGE ( 'NONE', *, *, #532, .T. ) ;
#1017 = ORIENTED_EDGE ( 'NONE', *, *, #725, .F. ) ;
#1018 = DIRECTION ( 'NONE',  ( -1.000000000000000000, 0.000000000000000000, 0.000000000000000000 ) ) ;
#1019 = DIRECTION ( 'NONE',  ( -0.000000000000000000, -0.000000000000000000, -1.000000000000000000 ) ) ;
#1020 = EDGE_CURVE ( 'NONE', #405, #803, #1014, .T. ) ;
#1021 = CARTESIAN_POINT ( 'NONE',  ( -11.50000000000000000, -5.800000000000000711, 4.800000000000000711 ) ) ;
#1022 = ORIENTED_EDGE ( 'NONE', *, *, #996, .F. ) ;
#1023 = ORIENTED_EDGE ( 'NONE', *, *, #208, .F. ) ;
#1024 = DIRECTION ( 'NONE',  ( -0.000000000000000000, 1.000000000000000000, -0.000000000000000000 ) ) ;
#1025 = DIRECTION ( 'NONE',  ( 1.000000000000000000, 0.000000000000000000, 0.000000000000000000 ) ) ;
#1026 = VERTEX_POINT ( 'NONE', #1021 ) ;
#1027 = EDGE_CURVE ( 'NONE', #308, #308, #400, .T. ) ;
#1028 = VERTEX_POINT ( 'NONE', #612 ) ;
#1029 = DIRECTION ( 'NONE',  ( -0.000000000000000000, -0.000000000000000000, -1.000000000000000000 ) ) ;
#1030 = DIRECTION ( 'NONE',  ( 1.000000000000000000, -0.000000000000000000, -0.000000000000000000 ) ) ;
#1031 = CARTESIAN_POINT ( 'NONE',  ( 17.49999999999999645, 9.000000000000001776, 5.000000000000000000 ) ) ;
#1032 = VECTOR ( 'NONE', #564, 1000.000000000000000 ) ;
#1033 = EDGE_LOOP ( 'NONE', ( #451 ) ) ;
#1034 = EDGE_CURVE ( 'NONE', #42, #42, #1, .T. ) ;
#1035 = AXIS2_PLACEMENT_3D ( 'NONE', #415, #1019, #847 ) ;
#1036 = CARTESIAN_POINT ( 'NONE',  ( 3.469446951953614189E-15, 8.492647058823521888, 5.000000000000000000 ) ) ;
#1037 = DIRECTION ( 'NONE',  ( 1.000000000000000000, 0.000000000000000000, 0.000000000000000000 ) ) ;
#1038 = DIRECTION ( 'NONE',  ( -1.000000000000000000, 0.000000000000000000, 0.000000000000000000 ) ) ;
#1039 = ORIENTED_EDGE ( 'NONE', *, *, #482, .F. ) ;
#1040 = AXIS2_PLACEMENT_3D ( 'NONE', #370, #954, #114 ) ;
#1041 = CYLINDRICAL_SURFACE ( 'NONE', #917, 1.499999999999999556 ) ;
#1042 = CARTESIAN_POINT ( 'NONE',  ( -8.500000000000000000, 16.00000000000000000, 0.000000000000000000 ) ) ;
#1043 = ORIENTED_EDGE ( 'NONE', *, *, #1027, .F. ) ;
#1044 = EDGE_CURVE ( 'NONE', #574, #575, #1045, .T. ) ;
#1045 = LINE ( 'NONE', #224, #82 ) ;
#1046 = PLANE ( 'NONE',  #551 ) ;
#1047 = ORIENTED_EDGE ( 'NONE', *, *, #258, .F. ) ;
#1048 = AXIS2_PLACEMENT_3D ( 'NONE', #987, #256, #846 ) ;
#1049 = COLOUR_RGB ( '',0.7921568627450980005, 0.8196078431372548767, 0.9333333333333333481 ) ;
#1050 = CARTESIAN_POINT ( 'NONE',  ( -12.50000000000000000, -10.00000000000000000, 5.000000000000000000 ) ) ;
#1051 = FACE_OUTER_BOUND ( 'NONE', #288, .T. ) ;
#1052 = ADVANCED_FACE ( 'NONE', ( #723, #229 ), #1041, .F. ) ;
#1053 = VECTOR ( 'NONE', #1000, 1000.000000000000000 ) ;
#1054 = EDGE_LOOP ( 'NONE', ( #775 ) ) ;
#1055 = LINE ( 'NONE', #61, #792 ) ;
#1056 = CIRCLE ( 'NONE', #62, 0.2000000000000000111 ) ;
#1057 = VECTOR ( 'NONE', #872, 1000.000000000000000 ) ;
#1058 = CARTESIAN_POINT ( 'NONE',  ( -6.500000000000000000, 16.00000000000000000, 0.000000000000000000 ) ) ;
#1059 = DIRECTION ( 'NONE',  ( 0.000000000000000000, 0.000000000000000000, -1.000000000000000000 ) ) ;
#1060 = EDGE_LOOP ( 'NONE', ( #394, #157, #267, #142 ) ) ;
#1061 = ADVANCED_FACE ( 'NONE', ( #218 ), #550, .T. ) ;
#1062 = DIRECTION ( 'NONE',  ( -0.000000000000000000, 1.000000000000000000, -0.000000000000000000 ) ) ;
#1063 = CARTESIAN_POINT ( 'NONE',  ( -12.50000000000000000, -10.00000000000000000, 0.000000000000000000 ) ) ;
#1064 = DIRECTION ( 'NONE',  ( -1.000000000000000000, 0.000000000000000000, 0.000000000000000000 ) ) ;
#1065 = ORIENTED_EDGE ( 'NONE', *, *, #731, .F. ) ;
#1066 = DIRECTION ( 'NONE',  ( -1.000000000000000000, 0.000000000000000000, 0.000000000000000000 ) ) ;
#1067 = ADVANCED_FACE ( 'NONE', ( #555 ), #378, .T. ) ;
#1068 = VECTOR ( 'NONE', #419, 1000.000000000000000 ) ;
#1069 = CARTESIAN_POINT ( 'NONE',  ( -11.70000000000000107, 8.492647058823521888, 0.2000000000000000111 ) ) ;
#1070 = APPLICATION_CONTEXT ( 'automotive_design' ) ;
#1071 = CARTESIAN_POINT ( 'NONE',  ( 17.49999999999999645, 9.000000000000001776, 0.000000000000000000 ) ) ;
#1072 = VERTEX_POINT ( 'NONE', #56 ) ;
#1073 = DIRECTION ( 'NONE',  ( -1.000000000000000000, 0.000000000000000000, 0.000000000000000000 ) ) ;
#1074 = LINE ( 'NONE', #989, #441 ) ;
#1075 = DIRECTION ( 'NONE',  ( 0.000000000000000000, 1.000000000000000000, 0.000000000000000000 ) ) ;
#1076 = ORIENTED_EDGE ( 'NONE', *, *, #85, .T. ) ;
#1077 = CARTESIAN_POINT ( 'NONE',  ( 17.49999999999999645, 9.000000000000001776, 0.000000000000000000 ) ) ;
#1078 = CIRCLE ( 'NONE', #1015, 0.2000000000000005107 ) ;
#1079 = DIRECTION ( 'NONE',  ( 1.000000000000000000, 0.000000000000000000, 0.000000000000000000 ) ) ;
#1080 = EDGE_CURVE ( 'NONE', #463, #1009, #297, .T. ) ;
#1081 = DIRECTION ( 'NONE',  ( 0.000000000000000000, 1.000000000000000000, 0.000000000000000000 ) ) ;
#1082 = ORIENTED_EDGE ( 'NONE', *, *, #677, .F. ) ;
#1083 = CARTESIAN_POINT ( 'NONE',  ( -6.200000000000000178, -16.50000000000000000, 5.000000000000000000 ) ) ;
ENDSEC;
END-ISO-10303-21;
