ISO-10303-21;
HEADER;
FILE_DESCRIPTION (( 'STEP AP214' ),
    '1' );
FILE_NAME ('ServoMotor_ASSEMLonger.STEP',
    '2025-07-29T15:59:10',
    ( '' ),
    ( '' ),
    'SwSTEP 2.0',
    'SolidWorks 2025',
    '' );
FILE_SCHEMA (( 'AUTOMOTIVE_DESIGN' ));
ENDSEC;

DATA;
#1 = ROLE_ASSOCIATION ( #301, #364 ) ;
#2 =( NAMED_UNIT ( * ) SI_UNIT ( $, .STERADIAN. ) SOLID_ANGLE_UNIT ( ) );
#3 = ITEM_DEFINED_TRANSFORMATION ( 'NONE', 'NONE', #321,  #300 ) ;
#4 =( LENGTH_UNIT ( ) NAMED_UNIT ( * ) SI_UNIT ( .MILLI., .METRE. ) );
#5 =( GEOMETRIC_REPRESENTATION_CONTEXT ( 3 ) GLOBAL_UNCERTAINTY_ASSIGNED_CONTEXT ( ( #274 ) ) GLOBAL_UNIT_ASSIGNED_CONTEXT ( ( #292, #92, #261 ) ) REPRESENTATION_CONTEXT ( 'NONE', 'WORKASPACE' ) );
#6 = PROPERTY_DEFINITION ('document property','', #445 ) ;
#7 = PROPERTY_DEFINITION_REPRESENTATION ( #135, #47 ) ;
#8 = APPLIED_EXTERNAL_IDENTIFICATION_ASSIGNMENT ( 'Gear_Sub2.STEP' , #493, #122,( #379) ) ;
#9 = EXTERNAL_SOURCE (IDENTIFIER('') ) ;
#10 = ITEM_DEFINED_TRANSFORMATION ( 'NONE', 'NONE', #71,  #300 ) ;
#11 = PROPERTY_DEFINITION ('external definition','', #131 ) ;
#12 = CARTESIAN_POINT ( 'NONE',  ( 0.000000000000000000, 0.000000000000000000, 0.000000000000000000 ) ) ;
#13 = DOCUMENT_FILE ( 'Gear4.STEP' , '', '', #501, '' ,$ ) ;
#14 =( LENGTH_UNIT ( ) NAMED_UNIT ( * ) SI_UNIT ( .MILLI., .METRE. ) );
#15 =( NAMED_UNIT ( * ) PLANE_ANGLE_UNIT ( ) SI_UNIT ( $, .RADIAN. ) );
#16 = APPLIED_DOCUMENT_REFERENCE ( #376,'',( #198) ) ;
#17 = CARTESIAN_POINT ( 'NONE',  ( 10.25000000000000000, -15.14999999997384350, 4.749999999992467359 ) ) ;
#18 = APPLICATION_CONTEXT ( 'automotive_design' ) ;
#19 = PROPERTY_DEFINITION ('external definition','', #104 ) ;
#20 = APPLIED_EXTERNAL_IDENTIFICATION_ASSIGNMENT ( 'part6.STEP' , #407, #251,( #202) ) ;
#21 =( NAMED_UNIT ( * ) PLANE_ANGLE_UNIT ( ) SI_UNIT ( $, .RADIAN. ) );
#22 = DOCUMENT_TYPE ( 'geometry' ) ;
#23 = ROLE_ASSOCIATION ( #223, #381 ) ;
#24 = PRODUCT_RELATED_PRODUCT_CATEGORY ( 'part', '', ( #239 ) ) ;
#25 = APPLICATION_CONTEXT ( 'automotive_design' ) ;
#26 = SHAPE_REPRESENTATION ( 'Servo_Cover', ( #272 ), #149 ) ;
#27 = OBJECT_ROLE ('mandatory',$ ) ;
#28 = APPLICATION_PROTOCOL_DEFINITION ( 'draft international standard', 'automotive_design', 1998, #52 ) ;
#29 = PRODUCT_DEFINITION_SHAPE ( 'NONE', 'NONE',  #509 ) ;
#30 = APPLICATION_PROTOCOL_DEFINITION ( 'draft international standard', 'automotive_design', 1998, #25 ) ;
#31 = PRODUCT_DEFINITION_CONTEXT ( 'detailed design', #25, 'design' ) ;
#32 = EXTERNAL_SOURCE (IDENTIFIER('') ) ;
#33 = APPLIED_EXTERNAL_IDENTIFICATION_ASSIGNMENT ( 'part6.STEP' , #276, #268,( #43) ) ;
#34 = DIRECTION ( 'NONE',  ( -2.775557561562891351E-17, -1.571931560061928441E-16, 1.000000000000000000 ) ) ;
#35 = CARTESIAN_POINT ( 'NONE',  ( 0.000000000000000000, 0.000000000000000000, 0.000000000000000000 ) ) ;
#36 = PRODUCT ( 'servo_bottom', 'servo_bottom', '', ( #318 ) ) ;
#37 = APPLICATION_CONTEXT ( 'automotive_design' ) ;
#38 = DIRECTION ( 'NONE',  ( 0.000000000000000000, 0.000000000000000000, 1.000000000000000000 ) ) ;
#39 = UNCERTAINTY_MEASURE_WITH_UNIT (LENGTH_MEASURE( 1.000000000000000082E-05 ), #63, 'distance_accuracy_value', 'NONE');
#40 = SHAPE_DEFINITION_REPRESENTATION ( #294, #105 ) ;
#41 = PRODUCT ( 'Gear_Sub2', 'Gear_Sub2', '', ( #72 ) ) ;
#42 = PRODUCT_DEFINITION ( 'General', '', #481, #354 ) ;
#43 = DOCUMENT_FILE ( 'part6.STEP' , '', '', #289, '' ,$ ) ;
#44 = PRODUCT ( 'part6', 'part6', '', ( #437 ) ) ;
#45 = PROPERTY_DEFINITION_REPRESENTATION ( #124, #399 ) ;
#46 = EXTERNAL_SOURCE (IDENTIFIER('') ) ;
#47 = SHAPE_REPRESENTATION ( 'part6', ( #300 ), #235 ) ;
#48 = CONTEXT_DEPENDENT_SHAPE_REPRESENTATION ( #103, #480 ) ;
#49 = PRODUCT_RELATED_PRODUCT_CATEGORY ( 'part', '', ( #436 ) ) ;
#50 = ROLE_ASSOCIATION ( #342, #256 ) ;
#51 = APPLIED_DOCUMENT_REFERENCE ( #104,'',( #455) ) ;
#52 = APPLICATION_CONTEXT ( 'automotive_design' ) ;
#53 = APPLICATION_PROTOCOL_DEFINITION ( 'draft international standard', 'automotive_design', 1998, #18 ) ;
#54 =( REPRESENTATION_RELATIONSHIP ('NONE','NONE', #469, #47 ) REPRESENTATION_RELATIONSHIP_WITH_TRANSFORMATION ( #3 )SHAPE_REPRESENTATION_RELATIONSHIP( ) );
#55 = AXIS2_PLACEMENT_3D ( 'NONE', #438, #87, #170 ) ;
#56 = PRODUCT_DEFINITION_SHAPE ( 'NONE', 'NONE',  #511 ) ;
#57 = DIRECTION ( 'NONE',  ( 1.221622839339180317E-17, 0.9999999999999997780, 6.781700747901037161E-15 ) ) ;
#58 = CONTEXT_DEPENDENT_SHAPE_REPRESENTATION ( #295, #310 ) ;
#59 = EXTERNAL_SOURCE (IDENTIFIER('') ) ;
#60 = CONTEXT_DEPENDENT_SHAPE_REPRESENTATION ( #424, #29 ) ;
#61 = CARTESIAN_POINT ( 'NONE',  ( 0.6300000000000073319, 0.3000000000008221646, 1.075602793319385971E-14 ) ) ;
#62 = PRODUCT_DEFINITION_CONTEXT ( 'detailed design', #303, 'design' ) ;
#63 =( LENGTH_UNIT ( ) NAMED_UNIT ( * ) SI_UNIT ( .MILLI., .METRE. ) );
#64 = DIRECTION ( 'NONE',  ( 1.000000000000000000, 2.262456924915311367E-17, 1.393816977975690451E-14 ) ) ;
#65 = PRODUCT_DEFINITION_CONTEXT ( 'detailed design', #326, 'design' ) ;
#66 = IDENTIFICATION_ROLE ( 'external document id and location', $) ;
#67 = PRODUCT_DEFINITION_FORMATION_WITH_SPECIFIED_SOURCE ( 'Symmetric', '', #36, .NOT_KNOWN. ) ;
#68 = DIRECTION ( 'NONE',  ( 0.7289666341315688136, 1.078752720322008416E-15, 0.6845492285605844218 ) ) ;
#69 = OBJECT_ROLE ('mandatory',$ ) ;
#70 = PRODUCT_DEFINITION_SHAPE ( 'NONE', 'NONE',  #315 ) ;
#71 = AXIS2_PLACEMENT_3D ( 'NONE', #344, #496, #151 ) ;
#72 = PRODUCT_CONTEXT ( 'NONE', #317, 'mechanical' ) ;
#73 = PRODUCT_DEFINITION_CONTEXT ( 'detailed design', #106, 'design' ) ;
#74 = SHAPE_DEFINITION_REPRESENTATION ( #195, #209 ) ;
#75 = IDENTIFICATION_ROLE ( 'external document id and location', $) ;
#76 = DIRECTION ( 'NONE',  ( 0.000000000000000000, 0.000000000000000000, 1.000000000000000000 ) ) ;
#77 = PROPERTY_DEFINITION ('external definition','', #202 ) ;
#78 = PRODUCT_DEFINITION_FORMATION_WITH_SPECIFIED_SOURCE ( 'Symmetric', '', #436, .NOT_KNOWN. ) ;
#79 = PRODUCT_RELATED_PRODUCT_CATEGORY ( 'part', '', ( #402 ) ) ;
#80 =( NAMED_UNIT ( * ) PLANE_ANGLE_UNIT ( ) SI_UNIT ( $, .RADIAN. ) );
#81 = DIRECTION ( 'NONE',  ( 1.000000000000000000, 0.000000000000000000, 0.000000000000000000 ) ) ;
#82 = APPLICATION_CONTEXT ( 'automotive_design' ) ;
#83 = CONTEXT_DEPENDENT_SHAPE_REPRESENTATION ( #502, #426 ) ;
#84 = EXTERNAL_SOURCE (IDENTIFIER('') ) ;
#85 = APPLICATION_PROTOCOL_DEFINITION ( 'draft international standard', 'automotive_design', 1998, #134 ) ;
#86 = UNCERTAINTY_MEASURE_WITH_UNIT (LENGTH_MEASURE( 1.000000000000000082E-05 ), #388, 'distance_accuracy_value', 'NONE');
#87 = DIRECTION ( 'NONE',  ( 0.000000000000000000, 0.000000000000000000, 1.000000000000000000 ) ) ;
#88 = PRODUCT ( 'Blue_Cable', 'Blue_Cable', '', ( #434 ) ) ;
#89 = DIRECTION ( 'NONE',  ( 0.000000000000000000, 0.000000000000000000, 1.000000000000000000 ) ) ;
#90 = PRODUCT_RELATED_PRODUCT_CATEGORY ( 'part', '', ( #36 ) ) ;
#91 = EXTERNAL_SOURCE (IDENTIFIER('') ) ;
#92 =( NAMED_UNIT ( * ) PLANE_ANGLE_UNIT ( ) SI_UNIT ( $, .RADIAN. ) );
#93 = PRODUCT_DEFINITION_SHAPE ( 'NONE', 'NONE',  #508 ) ;
#94 = ROLE_ASSOCIATION ( #221, #323 ) ;
#95 = APPLIED_EXTERNAL_IDENTIFICATION_ASSIGNMENT ( 'Gear4.STEP' , #75, #32,( #13) ) ;
#96 = ITEM_DEFINED_TRANSFORMATION ( 'NONE', 'NONE', #327,  #111 ) ;
#97 = PRODUCT_DEFINITION ( 'General', '', #339, #62 ) ;
#98 = PROPERTY_DEFINITION ('document property','', #104 ) ;
#99 =( LENGTH_UNIT ( ) NAMED_UNIT ( * ) SI_UNIT ( .MILLI., .METRE. ) );
#100 =( GEOMETRIC_REPRESENTATION_CONTEXT ( 3 ) GLOBAL_UNCERTAINTY_ASSIGNED_CONTEXT ( ( #287 ) ) GLOBAL_UNIT_ASSIGNED_CONTEXT ( ( #316, #466, #275 ) ) REPRESENTATION_CONTEXT ( 'NONE', 'WORKASPACE' ) );
#101 = EXTERNAL_SOURCE (IDENTIFIER('') ) ;
#102 = ITEM_DEFINED_TRANSFORMATION ( 'NONE', 'NONE', #255,  #272 ) ;
#103 =( REPRESENTATION_RELATIONSHIP ('NONE','NONE', #469, #47 ) REPRESENTATION_RELATIONSHIP_WITH_TRANSFORMATION ( #133 )SHAPE_REPRESENTATION_RELATIONSHIP( ) );
#104 = DOCUMENT_FILE ( 'ServoMotor_ASSEM-ALTPart7-1-solid1.STEP' , '', '', #173, '' ,$ ) ;
#105 = SHAPE_REPRESENTATION ( 'Gear_Sub1', ( #189 ), #226 ) ;
#106 = APPLICATION_CONTEXT ( 'automotive_design' ) ;
#107 = ITEM_DEFINED_TRANSFORMATION ( 'NONE', 'NONE', #199,  #285 ) ;
#108 = DIRECTION ( 'NONE',  ( 2.262457214085230751E-17, 0.9999999999999995559, 6.825769533668350494E-15 ) ) ;
#109 = PROPERTY_DEFINITION ('external definition','', #376 ) ;
#110 = PRODUCT_DEFINITION ( 'General', '', #489, #73 ) ;
#111 = AXIS2_PLACEMENT_3D ( 'NONE', #35, #76, #81 ) ;
#112 = DOCUMENT_FILE ( 'Gear_Sub3.STEP' , '', '', #177, '' ,$ ) ;
#113 = EXTERNAL_SOURCE (IDENTIFIER('') ) ;
#114 = APPLICATION_PROTOCOL_DEFINITION ( 'draft international standard', 'automotive_design', 1998, #361 ) ;
#115 = DIRECTION ( 'NONE',  ( 0.000000000000000000, 0.000000000000000000, 1.000000000000000000 ) ) ;
#116 = DOCUMENT_TYPE ( 'geometry' ) ;
#117 = CARTESIAN_POINT ( 'NONE',  ( -4.479047514974238808, -0.5461885006162254808, 0.5395407119399906470 ) ) ;
#118 = PRODUCT_DEFINITION_SHAPE ( 'NONE', 'NONE',  #506 ) ;
#119 = DIRECTION ( 'NONE',  ( 1.000000000000000000, 0.000000000000000000, 0.000000000000000000 ) ) ;
#120 = PRODUCT_DEFINITION_FORMATION_WITH_SPECIFIED_SOURCE ( 'Symmetric', '', #331, .NOT_KNOWN. ) ;
#121 = DIRECTION ( 'NONE',  ( -0.6845492285605844218, 3.937907636640929841E-15, 0.7289666341315688136 ) ) ;
#122 = EXTERNAL_SOURCE (IDENTIFIER('') ) ;
#123 = CARTESIAN_POINT ( 'NONE',  ( 0.000000000000000000, 0.000000000000000000, 0.000000000000000000 ) ) ;
#124 = PROPERTY_DEFINITION ('external definition','', #445 ) ;
#125 = DIRECTION ( 'NONE',  ( 1.000000000000000000, 2.262456924925283062E-17, -2.775557561562891351E-17 ) ) ;
#126 = APPLICATION_CONTEXT ( 'automotive_design' ) ;
#127 = PRODUCT_DEFINITION ( 'General', '', #447, #160 ) ;
#128 = SHAPE_DEFINITION_REPRESENTATION ( #204, #163 ) ;
#129 = PRODUCT_DEFINITION_SHAPE ( 'NONE', 'NONE',  #97 ) ;
#130 = PROPERTY_DEFINITION_REPRESENTATION ( #211, #47 ) ;
#131 = DOCUMENT_FILE ( 'Gear_Sub1.STEP' , '', '', #401, '' ,$ ) ;
#132 = APPLIED_EXTERNAL_IDENTIFICATION_ASSIGNMENT ( 'ServoMotor_ASSEM-ALTPart7-1-solid1.STEP' , #152, #91,( #104) ) ;
#133 = ITEM_DEFINED_TRANSFORMATION ( 'NONE', 'NONE', #418,  #300 ) ;
#134 = APPLICATION_CONTEXT ( 'automotive_design' ) ;
#135 = PROPERTY_DEFINITION ('external definition','', #328 ) ;
#136 = PROPERTY_DEFINITION_REPRESENTATION ( #77, #47 ) ;
#137 = PRODUCT_CONTEXT ( 'NONE', #394, 'mechanical' ) ;
#138 = PRODUCT_DEFINITION ( 'General', '', #67, #231 ) ;
#139 = IDENTIFICATION_ROLE ( 'external document id and location', $) ;
#140 = PROPERTY_DEFINITION_REPRESENTATION ( #313, #141 ) ;
#141 = SHAPE_REPRESENTATION ( 'servoTOP', ( #448 ), #433 ) ;
#142 = DIRECTION ( 'NONE',  ( 1.000000000000000000, 0.000000000000000000, 0.000000000000000000 ) ) ;
#143 = IDENTIFICATION_ROLE ( 'external document id and location', $) ;
#144 = APPLIED_DOCUMENT_REFERENCE ( #13,'',( #127) ) ;
#145 = PROPERTY_DEFINITION ('document property','', #417 ) ;
#146 = AXIS2_PLACEMENT_3D ( 'NONE', #479, #442, #250 ) ;
#147 = APPLIED_DOCUMENT_REFERENCE ( #409,'',( #42) ) ;
#148 = IDENTIFICATION_ROLE ( 'external document id and location', $) ;
#149 =( GEOMETRIC_REPRESENTATION_CONTEXT ( 3 ) GLOBAL_UNCERTAINTY_ASSIGNED_CONTEXT ( ( #428 ) ) GLOBAL_UNIT_ASSIGNED_CONTEXT ( ( #99, #21, #487 ) ) REPRESENTATION_CONTEXT ( 'NONE', 'WORKASPACE' ) );
#150 = CONTEXT_DEPENDENT_SHAPE_REPRESENTATION ( #236, #377 ) ;
#151 = DIRECTION ( 'NONE',  ( 6.599265614867281693E-17, 0.9999999999999995559, 6.837211899132293410E-15 ) ) ;
#152 = IDENTIFICATION_ROLE ( 'external document id and location', $) ;
#153 = ROLE_ASSOCIATION ( #196, #51 ) ;
#154 = CARTESIAN_POINT ( 'NONE',  ( 10.24999999999999822, -15.14999999997373337, -4.749999999973078424 ) ) ;
#155 = PRODUCT_DEFINITION_SHAPE ( 'NONE', 'NONE',  #514 ) ;
#156 = APPLICATION_PROTOCOL_DEFINITION ( 'draft international standard', 'automotive_design', 1998, #126 ) ;
#157 = SHAPE_DEFINITION_REPRESENTATION ( #472, #141 ) ;
#158 = CARTESIAN_POINT ( 'NONE',  ( 0.000000000000000000, 0.000000000000000000, 0.000000000000000000 ) ) ;
#159 = APPLICATION_PROTOCOL_DEFINITION ( 'draft international standard', 'automotive_design', 1998, #334 ) ;
#160 = PRODUCT_DEFINITION_CONTEXT ( 'detailed design', #52, 'design' ) ;
#161 = IDENTIFICATION_ROLE ( 'external document id and location', $) ;
#162 = APPLIED_EXTERNAL_IDENTIFICATION_ASSIGNMENT ( 'part6.STEP' , #352, #84,( #168) ) ;
#163 = SHAPE_REPRESENTATION ( 'ServoMotor_ASSEM-ALTPart7-1-solid1', ( #146 ), #332 ) ;
#164 = PRODUCT_RELATED_PRODUCT_CATEGORY ( 'part', '', ( #280 ) ) ;
#165 = PRODUCT_DEFINITION_SHAPE ( 'NONE', 'NONE',  #110 ) ;
#166 = CARTESIAN_POINT ( 'NONE',  ( 1.502312415730576419E-15, 6.499999999999998224, -3.966204541362422351E-15 ) ) ;
#167 = AXIS2_PLACEMENT_3D ( 'NONE', #12, #38, #197 ) ;
#168 = DOCUMENT_FILE ( 'part6.STEP' , '', '', #116, '' ,$ ) ;
#169 = DOCUMENT_TYPE ( 'geometry' ) ;
#170 = DIRECTION ( 'NONE',  ( 1.000000000000000000, 0.000000000000000000, 0.000000000000000000 ) ) ;
#171 =( REPRESENTATION_RELATIONSHIP ('NONE','NONE', #469, #209 ) REPRESENTATION_RELATIONSHIP_WITH_TRANSFORMATION ( #374 )SHAPE_REPRESENTATION_RELATIONSHIP( ) );
#172 = SHAPE_DEFINITION_REPRESENTATION ( #165, #399 ) ;
#173 = DOCUMENT_TYPE ( 'geometry' ) ;
#174 = PROPERTY_DEFINITION ('document property','', #43 ) ;
#175 = AXIS2_PLACEMENT_3D ( 'NONE', #432, #203, #217 ) ;
#176 =( NAMED_UNIT ( * ) SI_UNIT ( $, .STERADIAN. ) SOLID_ANGLE_UNIT ( ) );
#177 = DOCUMENT_TYPE ( 'geometry' ) ;
#178 = ITEM_DEFINED_TRANSFORMATION ( 'NONE', 'NONE', #265,  #146 ) ;
#179 = PRODUCT_DEFINITION_FORMATION_WITH_SPECIFIED_SOURCE ( 'Symmetric', '', #243, .NOT_KNOWN. ) ;
#180 = DIRECTION ( 'NONE',  ( 0.9001209736746315082, 3.130902529034315915E-15, -0.4356400265712890851 ) ) ;
#181 = DOCUMENT_TYPE ( 'geometry' ) ;
#182 = ROLE_ASSOCIATION ( #194, #144 ) ;
#183 =( NAMED_UNIT ( * ) SI_UNIT ( $, .STERADIAN. ) SOLID_ANGLE_UNIT ( ) );
#184 = PROPERTY_DEFINITION_REPRESENTATION ( #187, #248 ) ;
#185 = CARTESIAN_POINT ( 'NONE',  ( 0.000000000000000000, 0.000000000000000000, 0.000000000000000000 ) ) ;
#186 = DIRECTION ( 'NONE',  ( 1.542169429601982572E-16, 0.9999999999999997780, 6.902500598551014309E-15 ) ) ;
#187 = PROPERTY_DEFINITION ('external definition','', #417 ) ;
#188 = PRODUCT_RELATED_PRODUCT_CATEGORY ( 'part', '', ( #390 ) ) ;
#189 = AXIS2_PLACEMENT_3D ( 'NONE', #464, #391, #119 ) ;
#190 = PRODUCT_CONTEXT ( 'NONE', #37, 'mechanical' ) ;
#191 = DOCUMENT_TYPE ( 'geometry' ) ;
#192 = AXIS2_PLACEMENT_3D ( 'NONE', #61, #228, #271 ) ;
#193 = DIRECTION ( 'NONE',  ( -0.8360989394145063036, 3.982821695313876701E-15, -0.5485786757703380312 ) ) ;
#194 = OBJECT_ROLE ('mandatory',$ ) ;
#195 = PRODUCT_DEFINITION_SHAPE ( 'NONE', 'NONE',  #329 ) ;
#196 = OBJECT_ROLE ('mandatory',$ ) ;
#197 = DIRECTION ( 'NONE',  ( 1.000000000000000000, 0.000000000000000000, 0.000000000000000000 ) ) ;
#198 = PRODUCT_DEFINITION ( 'General', '', #421, #31 ) ;
#199 = AXIS2_PLACEMENT_3D ( 'NONE', #463, #282, #125 ) ;
#200 = SHAPE_DEFINITION_REPRESENTATION ( #70, #47 ) ;
#201 = PROPERTY_DEFINITION ('document property','', #202 ) ;
#202 = DOCUMENT_FILE ( 'part6.STEP' , '', '', #440, '' ,$ ) ;
#203 = DIRECTION ( 'NONE',  ( 0.000000000000000000, 0.000000000000000000, 1.000000000000000000 ) ) ;
#204 = PRODUCT_DEFINITION_SHAPE ( 'NONE', 'NONE',  #455 ) ;
#205 = ROLE_ASSOCIATION ( #69, #249 ) ;
#206 =( NAMED_UNIT ( * ) PLANE_ANGLE_UNIT ( ) SI_UNIT ( $, .RADIAN. ) );
#207 = IDENTIFICATION_ROLE ( 'external document id and location', $) ;
#208 = APPLICATION_PROTOCOL_DEFINITION ( 'draft international standard', 'automotive_design', 1998, #451 ) ;
#209 = SHAPE_REPRESENTATION ( 'Gear_Sub3', ( #175 ), #5 ) ;
#210 = AXIS2_PLACEMENT_3D ( 'NONE', #458, #446, #57 ) ;
#211 = PROPERTY_DEFINITION ('document property','', #328 ) ;
#212 = PROPERTY_DEFINITION_REPRESENTATION ( #290, #47 ) ;
#213 = PRODUCT_DEFINITION ( 'General', '', #270, #413 ) ;
#214 =( NAMED_UNIT ( * ) PLANE_ANGLE_UNIT ( ) SI_UNIT ( $, .RADIAN. ) );
#215 = EXTERNAL_SOURCE (IDENTIFIER('') ) ;
#216 = APPLIED_DOCUMENT_REFERENCE ( #112,'',( #329) ) ;
#217 = DIRECTION ( 'NONE',  ( 1.000000000000000000, 0.000000000000000000, 0.000000000000000000 ) ) ;
#218 = CONTEXT_DEPENDENT_SHAPE_REPRESENTATION ( #497, #224 ) ;
#219 = DIRECTION ( 'NONE',  ( -0.5055001532988246948, -6.170027054796497093E-15, 0.8628265150161211761 ) ) ;
#220 = PROPERTY_DEFINITION ('external definition','', #13 ) ;
#221 = OBJECT_ROLE ('mandatory',$ ) ;
#222 = PROPERTY_DEFINITION_REPRESENTATION ( #305, #385 ) ;
#223 = OBJECT_ROLE ('mandatory',$ ) ;
#224 = PRODUCT_DEFINITION_SHAPE ( 'NONE', 'NONE',  #510 ) ;
#225 = CARTESIAN_POINT ( 'NONE',  ( 10.50000000000000000, -10.74999999999125322, -4.450596981080063774E-12 ) ) ;
#226 =( GEOMETRIC_REPRESENTATION_CONTEXT ( 3 ) GLOBAL_UNCERTAINTY_ASSIGNED_CONTEXT ( ( #422 ) ) GLOBAL_UNIT_ASSIGNED_CONTEXT ( ( #244, #355, #423 ) ) REPRESENTATION_CONTEXT ( 'NONE', 'WORKASPACE' ) );
#227 = CONTEXT_DEPENDENT_SHAPE_REPRESENTATION ( #482, #56 ) ;
#228 = DIRECTION ( 'NONE',  ( -0.1096505423507079108, 7.094621325954541276E-15, -0.9939702000373027424 ) ) ;
#229 = IDENTIFICATION_ROLE ( 'external document id and location', $) ;
#230 = DIRECTION ( 'NONE',  ( 0.000000000000000000, 0.000000000000000000, 1.000000000000000000 ) ) ;
#231 = PRODUCT_DEFINITION_CONTEXT ( 'detailed design', #430, 'design' ) ;
#232 = SHAPE_DEFINITION_REPRESENTATION ( #365, #469 ) ;
#233 = PRODUCT_CONTEXT ( 'NONE', #334, 'mechanical' ) ;
#234 = PROPERTY_DEFINITION ('document property','', #376 ) ;
#235 =( GEOMETRIC_REPRESENTATION_CONTEXT ( 3 ) GLOBAL_UNCERTAINTY_ASSIGNED_CONTEXT ( ( #86 ) ) GLOBAL_UNIT_ASSIGNED_CONTEXT ( ( #388, #320, #238 ) ) REPRESENTATION_CONTEXT ( 'NONE', 'WORKASPACE' ) );
#236 =( REPRESENTATION_RELATIONSHIP ('NONE','NONE', #469, #248 ) REPRESENTATION_RELATIONSHIP_WITH_TRANSFORMATION ( #107 )SHAPE_REPRESENTATION_RELATIONSHIP( ) );
#237 = UNCERTAINTY_MEASURE_WITH_UNIT (LENGTH_MEASURE( 1.000000000000000082E-05 ), #277, 'distance_accuracy_value', 'NONE');
#238 =( NAMED_UNIT ( * ) SI_UNIT ( $, .STERADIAN. ) SOLID_ANGLE_UNIT ( ) );
#239 = PRODUCT ( 'servoTOP', 'servoTOP', '', ( #273 ) ) ;
#240 = EXTERNAL_SOURCE (IDENTIFIER('') ) ;
#241 = APPLICATION_PROTOCOL_DEFINITION ( 'draft international standard', 'automotive_design', 1998, #317 ) ;
#242 = SHAPE_DEFINITION_REPRESENTATION ( #129, #371 ) ;
#243 = PRODUCT ( 'Gear_Sub1', 'Gear_Sub1', '', ( #137 ) ) ;
#244 =( LENGTH_UNIT ( ) NAMED_UNIT ( * ) SI_UNIT ( .MILLI., .METRE. ) );
#245 = APPLICATION_PROTOCOL_DEFINITION ( 'draft international standard', 'automotive_design', 1998, #430 ) ;
#246 = DIRECTION ( 'NONE',  ( 0.000000000000000000, 0.000000000000000000, 1.000000000000000000 ) ) ;
#247 =( REPRESENTATION_RELATIONSHIP ('NONE','NONE', #469, #26 ) REPRESENTATION_RELATIONSHIP_WITH_TRANSFORMATION ( #102 )SHAPE_REPRESENTATION_RELATIONSHIP( ) );
#248 = SHAPE_REPRESENTATION ( 'servo_bottom', ( #285 ), #362 ) ;
#249 = APPLIED_DOCUMENT_REFERENCE ( #168,'',( #315) ) ;
#250 = DIRECTION ( 'NONE',  ( 1.000000000000000000, 0.000000000000000000, 0.000000000000000000 ) ) ;
#251 = EXTERNAL_SOURCE (IDENTIFIER('') ) ;
#252 = APPLICATION_PROTOCOL_DEFINITION ( 'draft international standard', 'automotive_design', 1998, #106 ) ;
#253 =( NAMED_UNIT ( * ) PLANE_ANGLE_UNIT ( ) SI_UNIT ( $, .RADIAN. ) );
#254 = PRODUCT_DEFINITION_FORMATION_WITH_SPECIFIED_SOURCE ( 'Symmetric', '', #44, .NOT_KNOWN. ) ;
#255 = AXIS2_PLACEMENT_3D ( 'NONE', #166, #34, #337 ) ;
#256 = APPLIED_DOCUMENT_REFERENCE ( #131,'',( #302) ) ;
#257 = PROPERTY_DEFINITION ('external definition','', #43 ) ;
#258 =( REPRESENTATION_RELATIONSHIP ('NONE','NONE', #469, #47 ) REPRESENTATION_RELATIONSHIP_WITH_TRANSFORMATION ( #363 )SHAPE_REPRESENTATION_RELATIONSHIP( ) );
#259 = APPLIED_EXTERNAL_IDENTIFICATION_ASSIGNMENT ( 'servoTOP.STEP' , #161, #59,( #409) ) ;
#260 = PROPERTY_DEFINITION_REPRESENTATION ( #201, #47 ) ;
#261 =( NAMED_UNIT ( * ) SI_UNIT ( $, .STERADIAN. ) SOLID_ANGLE_UNIT ( ) );
#262 = PROPERTY_DEFINITION_REPRESENTATION ( #11, #105 ) ;
#263 = AXIS2_PLACEMENT_3D ( 'NONE', #360, #89, #322 ) ;
#264 = ROLE_ASSOCIATION ( #404, #16 ) ;
#265 = AXIS2_PLACEMENT_3D ( 'NONE', #312, #121, #68 ) ;
#266 = PROPERTY_DEFINITION_REPRESENTATION ( #386, #371 ) ;
#267 = DIRECTION ( 'NONE',  ( 1.000000000000000000, 0.000000000000000000, 0.000000000000000000 ) ) ;
#268 = EXTERNAL_SOURCE (IDENTIFIER('') ) ;
#269 = PROPERTY_DEFINITION_REPRESENTATION ( #220, #385 ) ;
#270 = PRODUCT_DEFINITION_FORMATION_WITH_SPECIFIED_SOURCE ( 'Symmetric', '', #280, .NOT_KNOWN. ) ;
#271 = DIRECTION ( 'NONE',  ( -0.9939702000373027424, -8.054101072901204861E-16, 0.1096505423507079663 ) ) ;
#272 = AXIS2_PLACEMENT_3D ( 'NONE', #185, #494, #267 ) ;
#273 = PRODUCT_CONTEXT ( 'NONE', #361, 'mechanical' ) ;
#274 = UNCERTAINTY_MEASURE_WITH_UNIT (LENGTH_MEASURE( 1.000000000000000082E-05 ), #292, 'distance_accuracy_value', 'NONE');
#275 =( NAMED_UNIT ( * ) SI_UNIT ( $, .STERADIAN. ) SOLID_ANGLE_UNIT ( ) );
#276 = IDENTIFICATION_ROLE ( 'external document id and location', $) ;
#277 =( LENGTH_UNIT ( ) NAMED_UNIT ( * ) SI_UNIT ( .MILLI., .METRE. ) );
#278 = DIRECTION ( 'NONE',  ( -2.218029201772478570E-15, 0.9999999999999995559, 1.357466590878024049E-15 ) ) ;
#279 = PRODUCT_DEFINITION_CONTEXT ( 'detailed design', #451, 'design' ) ;
#280 = PRODUCT ( 'ServoMotor_ASSEMLonger', 'ServoMotor_ASSEMLonger', '', ( #382 ) ) ;
#281 = AXIS2_PLACEMENT_3D ( 'NONE', #387, #461, #278 ) ;
#282 = DIRECTION ( 'NONE',  ( -2.775557561562891351E-17, -1.571931560061928441E-16, 1.000000000000000000 ) ) ;
#283 = CONTEXT_DEPENDENT_SHAPE_REPRESENTATION ( #462, #378 ) ;
#284 =( LENGTH_UNIT ( ) NAMED_UNIT ( * ) SI_UNIT ( .MILLI., .METRE. ) );
#285 = AXIS2_PLACEMENT_3D ( 'NONE', #338, #230, #142 ) ;
#286 = PRODUCT_DEFINITION_SHAPE ( 'NONE', 'NONE',  #127 ) ;
#287 = UNCERTAINTY_MEASURE_WITH_UNIT (LENGTH_MEASURE( 1.000000000000000082E-05 ), #316, 'distance_accuracy_value', 'NONE');
#288 = CONTEXT_DEPENDENT_SHAPE_REPRESENTATION ( #258, #118 ) ;
#289 = DOCUMENT_TYPE ( 'geometry' ) ;
#290 = PROPERTY_DEFINITION ('document property','', #168 ) ;
#291 = CONTEXT_DEPENDENT_SHAPE_REPRESENTATION ( #54, #368 ) ;
#292 =( LENGTH_UNIT ( ) NAMED_UNIT ( * ) SI_UNIT ( .MILLI., .METRE. ) );
#293 = APPLICATION_PROTOCOL_DEFINITION ( 'draft international standard', 'automotive_design', 1998, #476 ) ;
#294 = PRODUCT_DEFINITION_SHAPE ( 'NONE', 'NONE',  #302 ) ;
#295 =( REPRESENTATION_RELATIONSHIP ('NONE','NONE', #469, #385 ) REPRESENTATION_RELATIONSHIP_WITH_TRANSFORMATION ( #449 )SHAPE_REPRESENTATION_RELATIONSHIP( ) );
#296 = PROPERTY_DEFINITION_REPRESENTATION ( #109, #26 ) ;
#297 = DIRECTION ( 'NONE',  ( 1.785407969031642006E-17, 0.9999999999999995559, 6.809456323516664496E-15 ) ) ;
#298 = PROPERTY_DEFINITION ('document property','', #112 ) ;
#299 = PROPERTY_DEFINITION_REPRESENTATION ( #465, #141 ) ;
#300 = AXIS2_PLACEMENT_3D ( 'NONE', #123, #115, #358 ) ;
#301 = OBJECT_ROLE ('mandatory',$ ) ;
#302 = PRODUCT_DEFINITION ( 'General', '', #179, #279 ) ;
#303 = APPLICATION_CONTEXT ( 'automotive_design' ) ;
#304 = PROPERTY_DEFINITION_REPRESENTATION ( #19, #163 ) ;
#305 = PROPERTY_DEFINITION ('document property','', #13 ) ;
#306 =( NAMED_UNIT ( * ) SI_UNIT ( $, .STERADIAN. ) SOLID_ANGLE_UNIT ( ) );
#307 = PRODUCT_DEFINITION_CONTEXT ( 'detailed design', #82, 'design' ) ;
#308 = SHAPE_DEFINITION_REPRESENTATION ( #429, #248 ) ;
#309 = AXIS2_PLACEMENT_3D ( 'NONE', #419, #420, #64 ) ;
#310 = PRODUCT_DEFINITION_SHAPE ( 'NONE', 'NONE',  #513 ) ;
#311 = PROPERTY_DEFINITION_REPRESENTATION ( #145, #248 ) ;
#312 = CARTESIAN_POINT ( 'NONE',  ( -1.490683512276455014, 0.3999999999987806643, 3.765020757082417457 ) ) ;
#313 = PROPERTY_DEFINITION ('document property','', #409 ) ;
#314 = SHAPE_DEFINITION_REPRESENTATION ( #286, #385 ) ;
#315 = PRODUCT_DEFINITION ( 'General', '', #254, #350 ) ;
#316 =( LENGTH_UNIT ( ) NAMED_UNIT ( * ) SI_UNIT ( .MILLI., .METRE. ) );
#317 = APPLICATION_CONTEXT ( 'automotive_design' ) ;
#318 = PRODUCT_CONTEXT ( 'NONE', #467, 'mechanical' ) ;
#319 = UNCERTAINTY_MEASURE_WITH_UNIT (LENGTH_MEASURE( 1.000000000000000082E-05 ), #4, 'distance_accuracy_value', 'NONE');
#320 =( NAMED_UNIT ( * ) PLANE_ANGLE_UNIT ( ) SI_UNIT ( $, .RADIAN. ) );
#321 = AXIS2_PLACEMENT_3D ( 'NONE', #154, #219, #297 ) ;
#322 = DIRECTION ( 'NONE',  ( 1.000000000000000000, 0.000000000000000000, 0.000000000000000000 ) ) ;
#323 = APPLIED_DOCUMENT_REFERENCE ( #445,'',( #110) ) ;
#324 = DIRECTION ( 'NONE',  ( 1.000000000000000000, 0.000000000000000000, 0.000000000000000000 ) ) ;
#325 = OBJECT_ROLE ('mandatory',$ ) ;
#326 = APPLICATION_CONTEXT ( 'automotive_design' ) ;
#327 = AXIS2_PLACEMENT_3D ( 'NONE', #117, #389, #359 ) ;
#328 = DOCUMENT_FILE ( 'part6.STEP' , '', '', #191, '' ,$ ) ;
#329 = PRODUCT_DEFINITION ( 'General', '', #78, #65 ) ;
#330 = PROPERTY_DEFINITION_REPRESENTATION ( #6, #399 ) ;
#331 = PRODUCT ( 'ServoMotor_ASSEM-ALTPart7-1-solid1', 'ServoMotor_ASSEM-ALTPart7-1-solid1', '', ( #357 ) ) ;
#332 =( GEOMETRIC_REPRESENTATION_CONTEXT ( 3 ) GLOBAL_UNCERTAINTY_ASSIGNED_CONTEXT ( ( #435 ) ) GLOBAL_UNIT_ASSIGNED_CONTEXT ( ( #284, #253, #439 ) ) REPRESENTATION_CONTEXT ( 'NONE', 'WORKASPACE' ) );
#333 = APPLICATION_PROTOCOL_DEFINITION ( 'draft international standard', 'automotive_design', 1998, #394 ) ;
#334 = APPLICATION_CONTEXT ( 'automotive_design' ) ;
#335 = PROPERTY_DEFINITION_REPRESENTATION ( #98, #163 ) ;
#336 = PROPERTY_DEFINITION ('external definition','', #112 ) ;
#337 = DIRECTION ( 'NONE',  ( 1.000000000000000000, 2.262456924925283062E-17, -2.775557561562891351E-17 ) ) ;
#338 = CARTESIAN_POINT ( 'NONE',  ( 0.000000000000000000, 0.000000000000000000, 0.000000000000000000 ) ) ;
#339 = PRODUCT_DEFINITION_FORMATION_WITH_SPECIFIED_SOURCE ( 'Symmetric', '', #41, .NOT_KNOWN. ) ;
#340 = ROLE_ASSOCIATION ( #325, #216 ) ;
#341 =( LENGTH_UNIT ( ) NAMED_UNIT ( * ) SI_UNIT ( .MILLI., .METRE. ) );
#342 = OBJECT_ROLE ('mandatory',$ ) ;
#343 = PROPERTY_DEFINITION_REPRESENTATION ( #234, #26 ) ;
#344 = CARTESIAN_POINT ( 'NONE',  ( -10.24999999999999645, -15.14999999997462865, 4.749999999994136246 ) ) ;
#345 =( GEOMETRIC_REPRESENTATION_CONTEXT ( 3 ) GLOBAL_UNCERTAINTY_ASSIGNED_CONTEXT ( ( #39 ) ) GLOBAL_UNIT_ASSIGNED_CONTEXT ( ( #63, #15, #306 ) ) REPRESENTATION_CONTEXT ( 'NONE', 'WORKASPACE' ) );
#346 = UNCERTAINTY_MEASURE_WITH_UNIT (LENGTH_MEASURE( 1.000000000000000082E-05 ), #14, 'distance_accuracy_value', 'NONE');
#347 = CONTEXT_DEPENDENT_SHAPE_REPRESENTATION ( #247, #155 ) ;
#348 = APPLIED_EXTERNAL_IDENTIFICATION_ASSIGNMENT ( 'part6.STEP' , #143, #240,( #328) ) ;
#349 = APPLICATION_PROTOCOL_DEFINITION ( 'draft international standard', 'automotive_design', 1998, #460 ) ;
#350 = PRODUCT_DEFINITION_CONTEXT ( 'detailed design', #134, 'design' ) ;
#351 = APPLICATION_PROTOCOL_DEFINITION ( 'draft international standard', 'automotive_design', 1998, #326 ) ;
#352 = IDENTIFICATION_ROLE ( 'external document id and location', $) ;
#353 = APPLIED_EXTERNAL_IDENTIFICATION_ASSIGNMENT ( 'Blue_Cable.STEP' , #207, #46,( #445) ) ;
#354 = PRODUCT_DEFINITION_CONTEXT ( 'detailed design', #414, 'design' ) ;
#355 =( NAMED_UNIT ( * ) PLANE_ANGLE_UNIT ( ) SI_UNIT ( $, .RADIAN. ) );
#356 = PROPERTY_DEFINITION ('external definition','', #168 ) ;
#357 = PRODUCT_CONTEXT ( 'NONE', #126, 'mechanical' ) ;
#358 = DIRECTION ( 'NONE',  ( 1.000000000000000000, 0.000000000000000000, 0.000000000000000000 ) ) ;
#359 = DIRECTION ( 'NONE',  ( 0.7845000164883096927, 4.456097894653561040E-15, -0.6201287964042967449 ) ) ;
#360 = CARTESIAN_POINT ( 'NONE',  ( 0.000000000000000000, 0.000000000000000000, 0.000000000000000000 ) ) ;
#361 = APPLICATION_CONTEXT ( 'automotive_design' ) ;
#362 =( GEOMETRIC_REPRESENTATION_CONTEXT ( 3 ) GLOBAL_UNCERTAINTY_ASSIGNED_CONTEXT ( ( #400 ) ) GLOBAL_UNIT_ASSIGNED_CONTEXT ( ( #341, #410, #183 ) ) REPRESENTATION_CONTEXT ( 'NONE', 'WORKASPACE' ) );
#363 = ITEM_DEFINED_TRANSFORMATION ( 'NONE', 'NONE', #210,  #300 ) ;
#364 = APPLIED_DOCUMENT_REFERENCE ( #43,'',( #315) ) ;
#365 = PRODUCT_DEFINITION_SHAPE ( 'NONE', 'NONE',  #213 ) ;
#366 = DOCUMENT_TYPE ( 'geometry' ) ;
#367 = APPLICATION_PROTOCOL_DEFINITION ( 'draft international standard', 'automotive_design', 1998, #384 ) ;
#368 = PRODUCT_DEFINITION_SHAPE ( 'NONE', 'NONE',  #505 ) ;
#369 = APPLIED_DOCUMENT_REFERENCE ( #202,'',( #315) ) ;
#370 = OBJECT_ROLE ('mandatory',$ ) ;
#371 = SHAPE_REPRESENTATION ( 'Gear_Sub2', ( #111 ), #490 ) ;
#372 = ITEM_DEFINED_TRANSFORMATION ( 'NONE', 'NONE', #427,  #263 ) ;
#373 = PROPERTY_DEFINITION_REPRESENTATION ( #336, #209 ) ;
#374 = ITEM_DEFINED_TRANSFORMATION ( 'NONE', 'NONE', #495,  #175 ) ;
#375 =( REPRESENTATION_RELATIONSHIP ('NONE','NONE', #469, #105 ) REPRESENTATION_RELATIONSHIP_WITH_TRANSFORMATION ( #441 )SHAPE_REPRESENTATION_RELATIONSHIP( ) );
#376 = DOCUMENT_FILE ( 'Servo_Cover.STEP' , '', '', #366, '' ,$ ) ;
#377 = PRODUCT_DEFINITION_SHAPE ( 'NONE', 'NONE',  #515 ) ;
#378 = PRODUCT_DEFINITION_SHAPE ( 'NONE', 'NONE',  #503 ) ;
#379 = DOCUMENT_FILE ( 'Gear_Sub2.STEP' , '', '', #474, '' ,$ ) ;
#380 = DIRECTION ( 'NONE',  ( -4.903730003851542086E-16, -1.926137429332219231E-15, -1.000000000000000000 ) ) ;
#381 = APPLIED_DOCUMENT_REFERENCE ( #417,'',( #138) ) ;
#382 = PRODUCT_CONTEXT ( 'NONE', #486, 'mechanical' ) ;
#383 = PROPERTY_DEFINITION ('document property','', #379 ) ;
#384 = APPLICATION_CONTEXT ( 'automotive_design' ) ;
#385 = SHAPE_REPRESENTATION ( 'Gear4', ( #55 ), #345 ) ;
#386 = PROPERTY_DEFINITION ('external definition','', #379 ) ;
#387 = CARTESIAN_POINT ( 'NONE',  ( -6.532114144180588333, 67.18770977356686558, -2.779604590349675330 ) ) ;
#388 =( LENGTH_UNIT ( ) NAMED_UNIT ( * ) SI_UNIT ( .MILLI., .METRE. ) );
#389 = DIRECTION ( 'NONE',  ( 0.6201287964042967449, -5.478134335841270204E-15, 0.7845000164883096927 ) ) ;
#390 = PRODUCT ( 'Gear4', 'Gear4', '', ( #190 ) ) ;
#391 = DIRECTION ( 'NONE',  ( 0.000000000000000000, 0.000000000000000000, 1.000000000000000000 ) ) ;
#392 = APPLICATION_PROTOCOL_DEFINITION ( 'draft international standard', 'automotive_design', 1998, #303 ) ;
#393 = OBJECT_ROLE ('mandatory',$ ) ;
#394 = APPLICATION_CONTEXT ( 'automotive_design' ) ;
#395 = PRODUCT_DEFINITION_SHAPE ( 'NONE', 'NONE',  #198 ) ;
#396 =( NAMED_UNIT ( * ) SI_UNIT ( $, .STERADIAN. ) SOLID_ANGLE_UNIT ( ) );
#397 = APPLICATION_PROTOCOL_DEFINITION ( 'draft international standard', 'automotive_design', 1998, #37 ) ;
#398 = PROPERTY_DEFINITION_REPRESENTATION ( #356, #47 ) ;
#399 = SHAPE_REPRESENTATION ( 'Blue_Cable', ( #263 ), #100 ) ;
#400 = UNCERTAINTY_MEASURE_WITH_UNIT (LENGTH_MEASURE( 1.000000000000000082E-05 ), #341, 'distance_accuracy_value', 'NONE');
#401 = DOCUMENT_TYPE ( 'geometry' ) ;
#402 = PRODUCT ( 'Servo_Cover', 'Servo_Cover', '', ( #233 ) ) ;
#403 = PROPERTY_DEFINITION_REPRESENTATION ( #257, #47 ) ;
#404 = OBJECT_ROLE ('mandatory',$ ) ;
#405 = ROLE_ASSOCIATION ( #27, #369 ) ;
#406 = APPLIED_EXTERNAL_IDENTIFICATION_ASSIGNMENT ( 'Gear_Sub1.STEP' , #229, #9,( #131) ) ;
#407 = IDENTIFICATION_ROLE ( 'external document id and location', $) ;
#408 = ROLE_ASSOCIATION ( #370, #147 ) ;
#409 = DOCUMENT_FILE ( 'servoTOP.STEP' , '', '', #181, '' ,$ ) ;
#410 =( NAMED_UNIT ( * ) PLANE_ANGLE_UNIT ( ) SI_UNIT ( $, .RADIAN. ) );
#411 = PROPERTY_DEFINITION_REPRESENTATION ( #298, #209 ) ;
#412 = CONTEXT_DEPENDENT_SHAPE_REPRESENTATION ( #171, #453 ) ;
#413 = PRODUCT_DEFINITION_CONTEXT ( 'detailed design', #18, 'design' ) ;
#414 = APPLICATION_CONTEXT ( 'automotive_design' ) ;
#415 = PRODUCT_RELATED_PRODUCT_CATEGORY ( 'part', '', ( #331 ) ) ;
#416 = APPLICATION_PROTOCOL_DEFINITION ( 'draft international standard', 'automotive_design', 1998, #414 ) ;
#417 = DOCUMENT_FILE ( 'servo_bottom.STEP' , '', '', #22, '' ,$ ) ;
#418 = AXIS2_PLACEMENT_3D ( 'NONE', #17, #180, #108 ) ;
#419 = CARTESIAN_POINT ( 'NONE',  ( 0.000000000000000000, 0.000000000000000000, 0.000000000000000000 ) ) ;
#420 = DIRECTION ( 'NONE',  ( 1.399368093098816233E-14, 7.140155833692456350E-15, -1.000000000000000000 ) ) ;
#421 = PRODUCT_DEFINITION_FORMATION_WITH_SPECIFIED_SOURCE ( 'Symmetric', '', #402, .NOT_KNOWN. ) ;
#422 = UNCERTAINTY_MEASURE_WITH_UNIT (LENGTH_MEASURE( 1.000000000000000082E-05 ), #244, 'distance_accuracy_value', 'NONE');
#423 =( NAMED_UNIT ( * ) SI_UNIT ( $, .STERADIAN. ) SOLID_ANGLE_UNIT ( ) );
#424 =( REPRESENTATION_RELATIONSHIP ('NONE','NONE', #469, #141 ) REPRESENTATION_RELATIONSHIP_WITH_TRANSFORMATION ( #452 )SHAPE_REPRESENTATION_RELATIONSHIP( ) );
#425 = APPLICATION_PROTOCOL_DEFINITION ( 'draft international standard', 'automotive_design', 1998, #467 ) ;
#426 = PRODUCT_DEFINITION_SHAPE ( 'NONE', 'NONE',  #504 ) ;
#427 = AXIS2_PLACEMENT_3D ( 'NONE', #225, #380, #450 ) ;
#428 = UNCERTAINTY_MEASURE_WITH_UNIT (LENGTH_MEASURE( 1.000000000000000082E-05 ), #99, 'distance_accuracy_value', 'NONE');
#429 = PRODUCT_DEFINITION_SHAPE ( 'NONE', 'NONE',  #138 ) ;
#430 = APPLICATION_CONTEXT ( 'automotive_design' ) ;
#431 = CARTESIAN_POINT ( 'NONE',  ( -1.704497249683039950, 57.98060406845888082, 1.827999966228019524 ) ) ;
#432 = CARTESIAN_POINT ( 'NONE',  ( 0.000000000000000000, 0.000000000000000000, 0.000000000000000000 ) ) ;
#433 =( GEOMETRIC_REPRESENTATION_CONTEXT ( 3 ) GLOBAL_UNCERTAINTY_ASSIGNED_CONTEXT ( ( #346 ) ) GLOBAL_UNIT_ASSIGNED_CONTEXT ( ( #14, #214, #176 ) ) REPRESENTATION_CONTEXT ( 'NONE', 'WORKASPACE' ) );
#434 = PRODUCT_CONTEXT ( 'NONE', #384, 'mechanical' ) ;
#435 = UNCERTAINTY_MEASURE_WITH_UNIT (LENGTH_MEASURE( 1.000000000000000082E-05 ), #284, 'distance_accuracy_value', 'NONE');
#436 = PRODUCT ( 'Gear_Sub3', 'Gear_Sub3', '', ( #500 ) ) ;
#437 = PRODUCT_CONTEXT ( 'NONE', #476, 'mechanical' ) ;
#438 = CARTESIAN_POINT ( 'NONE',  ( 0.000000000000000000, 0.000000000000000000, 0.000000000000000000 ) ) ;
#439 =( NAMED_UNIT ( * ) SI_UNIT ( $, .STERADIAN. ) SOLID_ANGLE_UNIT ( ) );
#440 = DOCUMENT_TYPE ( 'geometry' ) ;
#441 = ITEM_DEFINED_TRANSFORMATION ( 'NONE', 'NONE', #192,  #189 ) ;
#442 = DIRECTION ( 'NONE',  ( 0.000000000000000000, 0.000000000000000000, 1.000000000000000000 ) ) ;
#443 = PRODUCT_RELATED_PRODUCT_CATEGORY ( 'part', '', ( #44 ) ) ;
#444 = PROPERTY_DEFINITION ('document property','', #131 ) ;
#445 = DOCUMENT_FILE ( 'Blue_Cable.STEP' , '', '', #169, '' ,$ ) ;
#446 = DIRECTION ( 'NONE',  ( -0.07597573415590898327, -6.919628970496513962E-15, 0.9971096668970121923 ) ) ;
#447 = PRODUCT_DEFINITION_FORMATION_WITH_SPECIFIED_SOURCE ( 'Symmetric', '', #390, .NOT_KNOWN. ) ;
#448 = AXIS2_PLACEMENT_3D ( 'NONE', #158, #246, #324 ) ;
#449 = ITEM_DEFINED_TRANSFORMATION ( 'NONE', 'NONE', #281,  #55 ) ;
#450 = DIRECTION ( 'NONE',  ( -1.000000000000000000, -4.749059806972246471E-16, 5.458841516164131203E-16 ) ) ;
#451 = APPLICATION_CONTEXT ( 'automotive_design' ) ;
#452 = ITEM_DEFINED_TRANSFORMATION ( 'NONE', 'NONE', #309,  #448 ) ;
#453 = PRODUCT_DEFINITION_SHAPE ( 'NONE', 'NONE',  #512 ) ;
#454 = APPLICATION_PROTOCOL_DEFINITION ( 'draft international standard', 'automotive_design', 1998, #486 ) ;
#455 = PRODUCT_DEFINITION ( 'General', '', #120, #307 ) ;
#456 = ROLE_ASSOCIATION ( #457, #488 ) ;
#457 = OBJECT_ROLE ('mandatory',$ ) ;
#458 = CARTESIAN_POINT ( 'NONE',  ( -10.24999999999999467, -15.14999999997466595, -4.749999999973109510 ) ) ;
#459 =( GEOMETRIC_REPRESENTATION_CONTEXT ( 3 ) GLOBAL_UNCERTAINTY_ASSIGNED_CONTEXT ( ( #237 ) ) GLOBAL_UNIT_ASSIGNED_CONTEXT ( ( #277, #80, #396 ) ) REPRESENTATION_CONTEXT ( 'NONE', 'WORKASPACE' ) );
#460 = APPLICATION_CONTEXT ( 'automotive_design' ) ;
#461 = DIRECTION ( 'NONE',  ( 0.7767178449494354098, 2.810943058352655809E-15, -0.6298487035289545011 ) ) ;
#462 =( REPRESENTATION_RELATIONSHIP ('NONE','NONE', #469, #399 ) REPRESENTATION_RELATIONSHIP_WITH_TRANSFORMATION ( #372 )SHAPE_REPRESENTATION_RELATIONSHIP( ) );
#463 = CARTESIAN_POINT ( 'NONE',  ( 3.997440151251678993E-15, -15.00000000001540101, -8.667385641241841563E-13 ) ) ;
#464 = CARTESIAN_POINT ( 'NONE',  ( 0.000000000000000000, 0.000000000000000000, 0.000000000000000000 ) ) ;
#465 = PROPERTY_DEFINITION ('external definition','', #409 ) ;
#466 =( NAMED_UNIT ( * ) PLANE_ANGLE_UNIT ( ) SI_UNIT ( $, .RADIAN. ) );
#467 = APPLICATION_CONTEXT ( 'automotive_design' ) ;
#468 = SHAPE_DEFINITION_REPRESENTATION ( #395, #26 ) ;
#469 = SHAPE_REPRESENTATION ( 'ServoMotor_ASSEMLonger', ( #167, #427, #71, #321, #210, #418, #192, #309, #265, #327, #495, #281, #255, #199 ), #459 ) ;
#470 = APPLICATION_PROTOCOL_DEFINITION ( 'draft international standard', 'automotive_design', 1998, #82 ) ;
#471 = APPLIED_EXTERNAL_IDENTIFICATION_ASSIGNMENT ( 'Gear_Sub3.STEP' , #66, #113,( #112) ) ;
#472 = PRODUCT_DEFINITION_SHAPE ( 'NONE', 'NONE',  #42 ) ;
#473 = ROLE_ASSOCIATION ( #393, #477 ) ;
#474 = DOCUMENT_TYPE ( 'geometry' ) ;
#475 = CONTEXT_DEPENDENT_SHAPE_REPRESENTATION ( #375, #93 ) ;
#476 = APPLICATION_CONTEXT ( 'automotive_design' ) ;
#477 = APPLIED_DOCUMENT_REFERENCE ( #328,'',( #315) ) ;
#478 = APPLIED_EXTERNAL_IDENTIFICATION_ASSIGNMENT ( 'Servo_Cover.STEP' , #148, #101,( #376) ) ;
#479 = CARTESIAN_POINT ( 'NONE',  ( 0.000000000000000000, 0.000000000000000000, 0.000000000000000000 ) ) ;
#480 = PRODUCT_DEFINITION_SHAPE ( 'NONE', 'NONE',  #507 ) ;
#481 = PRODUCT_DEFINITION_FORMATION_WITH_SPECIFIED_SOURCE ( 'Symmetric', '', #239, .NOT_KNOWN. ) ;
#482 =( REPRESENTATION_RELATIONSHIP ('NONE','NONE', #469, #371 ) REPRESENTATION_RELATIONSHIP_WITH_TRANSFORMATION ( #96 )SHAPE_REPRESENTATION_RELATIONSHIP( ) );
#483 = PRODUCT_RELATED_PRODUCT_CATEGORY ( 'part', '', ( #243 ) ) ;
#484 = APPLIED_EXTERNAL_IDENTIFICATION_ASSIGNMENT ( 'servo_bottom.STEP' , #139, #215,( #417) ) ;
#485 = PROPERTY_DEFINITION_REPRESENTATION ( #174, #47 ) ;
#486 = APPLICATION_CONTEXT ( 'automotive_design' ) ;
#487 =( NAMED_UNIT ( * ) SI_UNIT ( $, .STERADIAN. ) SOLID_ANGLE_UNIT ( ) );
#488 = APPLIED_DOCUMENT_REFERENCE ( #379,'',( #97) ) ;
#489 = PRODUCT_DEFINITION_FORMATION_WITH_SPECIFIED_SOURCE ( 'Symmetric', '', #88, .NOT_KNOWN. ) ;
#490 =( GEOMETRIC_REPRESENTATION_CONTEXT ( 3 ) GLOBAL_UNCERTAINTY_ASSIGNED_CONTEXT ( ( #319 ) ) GLOBAL_UNIT_ASSIGNED_CONTEXT ( ( #4, #206, #2 ) ) REPRESENTATION_CONTEXT ( 'NONE', 'WORKASPACE' ) );
#491 = PROPERTY_DEFINITION_REPRESENTATION ( #444, #105 ) ;
#492 = PRODUCT_RELATED_PRODUCT_CATEGORY ( 'part', '', ( #41 ) ) ;
#493 = IDENTIFICATION_ROLE ( 'external document id and location', $) ;
#494 = DIRECTION ( 'NONE',  ( 0.000000000000000000, 0.000000000000000000, 1.000000000000000000 ) ) ;
#495 = AXIS2_PLACEMENT_3D ( 'NONE', #431, #193, #186 ) ;
#496 = DIRECTION ( 'NONE',  ( -0.3076124987597919636, -6.706846575589979147E-15, 0.9515117185861436955 ) ) ;
#497 =( REPRESENTATION_RELATIONSHIP ('NONE','NONE', #469, #163 ) REPRESENTATION_RELATIONSHIP_WITH_TRANSFORMATION ( #178 )SHAPE_REPRESENTATION_RELATIONSHIP( ) );
#498 = PROPERTY_DEFINITION_REPRESENTATION ( #383, #371 ) ;
#499 = PRODUCT_RELATED_PRODUCT_CATEGORY ( 'part', '', ( #88 ) ) ;
#500 = PRODUCT_CONTEXT ( 'NONE', #460, 'mechanical' ) ;
#501 = DOCUMENT_TYPE ( 'geometry' ) ;
#502 =( REPRESENTATION_RELATIONSHIP ('NONE','NONE', #469, #47 ) REPRESENTATION_RELATIONSHIP_WITH_TRANSFORMATION ( #10 )SHAPE_REPRESENTATION_RELATIONSHIP( ) );
#503 = NEXT_ASSEMBLY_USAGE_OCCURRENCE ( 'NAUO1', ' ', ' ', #213, #110, $ ) ;
#504 = NEXT_ASSEMBLY_USAGE_OCCURRENCE ( 'NAUO2', ' ', ' ', #213, #315, $ ) ;
#505 = NEXT_ASSEMBLY_USAGE_OCCURRENCE ( 'NAUO3', ' ', ' ', #213, #315, $ ) ;
#506 = NEXT_ASSEMBLY_USAGE_OCCURRENCE ( 'NAUO4', ' ', ' ', #213, #315, $ ) ;
#507 = NEXT_ASSEMBLY_USAGE_OCCURRENCE ( 'NAUO5', ' ', ' ', #213, #315, $ ) ;
#508 = NEXT_ASSEMBLY_USAGE_OCCURRENCE ( 'NAUO6', ' ', ' ', #213, #302, $ ) ;
#509 = NEXT_ASSEMBLY_USAGE_OCCURRENCE ( 'NAUO7', ' ', ' ', #213, #42, $ ) ;
#510 = NEXT_ASSEMBLY_USAGE_OCCURRENCE ( 'NAUO8', ' ', ' ', #213, #455, $ ) ;
#511 = NEXT_ASSEMBLY_USAGE_OCCURRENCE ( 'NAUO9', ' ', ' ', #213, #97, $ ) ;
#512 = NEXT_ASSEMBLY_USAGE_OCCURRENCE ( 'NAUO10', ' ', ' ', #213, #329, $ ) ;
#513 = NEXT_ASSEMBLY_USAGE_OCCURRENCE ( 'NAUO11', ' ', ' ', #213, #127, $ ) ;
#514 = NEXT_ASSEMBLY_USAGE_OCCURRENCE ( 'NAUO12', ' ', ' ', #213, #198, $ ) ;
#515 = NEXT_ASSEMBLY_USAGE_OCCURRENCE ( 'NAUO13', ' ', ' ', #213, #138, $ ) ;
ENDSEC;
END-ISO-10303-21;
