ISO-10303-21;
HEADER;
FILE_DESCRIPTION (( 'STEP AP214' ),
    '1' );
FILE_NAME ('Housing Seal.STEP',
    '2024-11-24T17:15:04',
    ( '' ),
    ( '' ),
    'SwSTEP 2.0',
    'SolidWorks 2024',
    '' );
FILE_SCHEMA (( 'AUTOMOTIVE_DESIGN' ));
ENDSEC;

DATA;
#1 = DIRECTION ( 'NONE',  ( 1.153406566473940520E-16, 1.000000000000000000, 0.000000000000000000 ) ) ;
#2 = ORIENTED_EDGE ( 'NONE', *, *, #143, .F. ) ;
#3 = DIRECTION ( 'NONE',  ( -1.000000000000000000, 1.153406566473940520E-16, 0.000000000000000000 ) ) ;
#4 = EDGE_LOOP ( 'NONE', ( #114, #243, #285, #270 ) ) ;
#5 = FACE_BOUND ( 'NONE', #217, .T. ) ;
#6 = EDGE_CURVE ( 'NONE', #309, #85, #91, .T. ) ;
#7 = VERTEX_POINT ( 'NONE', #193 ) ;
#8 = VECTOR ( 'NONE', #178, 1000.000000000000000 ) ;
#9 = CARTESIAN_POINT ( 'NONE',  ( -23.84999999999999787, 15.03999999999998849, 2.200000000000000178 ) ) ;
#10 = ORIENTED_EDGE ( 'NONE', *, *, #222, .F. ) ;
#11 = SHAPE_DEFINITION_REPRESENTATION ( #105, #286 ) ;
#12 = EDGE_CURVE ( 'NONE', #244, #287, #68, .T. ) ;
#13 = VERTEX_POINT ( 'NONE', #15 ) ;
#14 = VECTOR ( 'NONE', #80, 1000.000000000000000 ) ;
#15 = CARTESIAN_POINT ( 'NONE',  ( -20.85000000000000142, 15.03999999999998849, 0.000000000000000000 ) ) ;
#16 = VERTEX_POINT ( 'NONE', #67 ) ;
#17 = SURFACE_STYLE_FILL_AREA ( #38 ) ;
#18 = EDGE_CURVE ( 'NONE', #79, #7, #187, .T. ) ;
#19 = CARTESIAN_POINT ( 'NONE',  ( 20.85000000000000142, 15.04000000000000803, 2.200000000000000178 ) ) ;
#20 = LINE ( 'NONE', #280, #156 ) ;
#21 = LINE ( 'NONE', #127, #100 ) ;
#22 = VECTOR ( 'NONE', #326, 1000.000000000000000 ) ;
#23 = CARTESIAN_POINT ( 'NONE',  ( 5.525606357752857268E-15, -15.03999999999999915, 2.200000000000000178 ) ) ;
#24 = DIRECTION ( 'NONE',  ( -1.153406566473940520E-16, 1.000000000000000000, 0.000000000000000000 ) ) ;
#25 = CARTESIAN_POINT ( 'NONE',  ( 20.85000000000000142, -15.03999999999999915, 2.200000000000000178 ) ) ;
#26 = AXIS2_PLACEMENT_3D ( 'NONE', #283, #288, #50 ) ;
#27 = ORIENTED_EDGE ( 'NONE', *, *, #222, .T. ) ;
#28 = DIRECTION ( 'NONE',  ( 1.000000000000000000, 0.000000000000000000, 0.000000000000000000 ) ) ;
#29 = ORIENTED_EDGE ( 'NONE', *, *, #315, .T. ) ;
#30 = ADVANCED_FACE ( 'NONE', ( #166 ), #247, .T. ) ;
#31 = FACE_OUTER_BOUND ( 'NONE', #213, .T. ) ;
#32 = ORIENTED_EDGE ( 'NONE', *, *, #103, .T. ) ;
#33 = FACE_OUTER_BOUND ( 'NONE', #238, .T. ) ;
#34 = EDGE_LOOP ( 'NONE', ( #184, #116, #155, #83 ) ) ;
#35 = VECTOR ( 'NONE', #75, 1000.000000000000000 ) ;
#36 = ORIENTED_EDGE ( 'NONE', *, *, #130, .T. ) ;
#37 =( NAMED_UNIT ( * ) SI_UNIT ( $, .STERADIAN. ) SOLID_ANGLE_UNIT ( ) );
#38 = FILL_AREA_STYLE ('',( #197 ) ) ;
#39 = DIRECTION ( 'NONE',  ( -0.000000000000000000, -0.000000000000000000, -1.000000000000000000 ) ) ;
#40 = MANIFOLD_SOLID_BREP ( 'Boss-Extrude1', #131 ) ;
#41 = ADVANCED_FACE ( 'NONE', ( #321 ), #294, .F. ) ;
#42 = ORIENTED_EDGE ( 'NONE', *, *, #73, .F. ) ;
#43 = CIRCLE ( 'NONE', #281, 20.85000000000000142 ) ;
#44 = FACE_OUTER_BOUND ( 'NONE', #55, .T. ) ;
#45 = CARTESIAN_POINT ( 'NONE',  ( 0.000000000000000000, 15.03999999999999915, 0.000000000000000000 ) ) ;
#46 = PLANE ( 'NONE',  #66 ) ;
#47 = CIRCLE ( 'NONE', #92, 23.84999999999999432 ) ;
#48 = UNCERTAINTY_MEASURE_WITH_UNIT (LENGTH_MEASURE( 1.000000000000000082E-05 ), #220, 'distance_accuracy_value', 'NONE');
#49 = FACE_OUTER_BOUND ( 'NONE', #189, .T. ) ;
#50 = DIRECTION ( 'NONE',  ( 1.000000000000000000, 0.000000000000000000, 0.000000000000000000 ) ) ;
#51 = ORIENTED_EDGE ( 'NONE', *, *, #130, .F. ) ;
#52 = CARTESIAN_POINT ( 'NONE',  ( 0.000000000000000000, 15.03999999999999915, 2.200000000000000178 ) ) ;
#53 = COLOUR_RGB ( '',0.7921568627450980005, 0.8196078431372548767, 0.9333333333333333481 ) ;
#54 = AXIS2_PLACEMENT_3D ( 'NONE', #216, #106, #316 ) ;
#55 = EDGE_LOOP ( 'NONE', ( #293, #289, #10, #191 ) ) ;
#56 =( NAMED_UNIT ( * ) SI_UNIT ( $, .STERADIAN. ) SOLID_ANGLE_UNIT ( ) );
#57 = ORIENTED_EDGE ( 'NONE', *, *, #182, .F. ) ;
#58 = ORIENTED_EDGE ( 'NONE', *, *, #196, .F. ) ;
#59 = CIRCLE ( 'NONE', #99, 20.85000000000000142 ) ;
#60 = ORIENTED_EDGE ( 'NONE', *, *, #103, .F. ) ;
#61 = EDGE_CURVE ( 'NONE', #275, #165, #274, .T. ) ;
#62 = PLANE ( 'NONE',  #111 ) ;
#63 = DIRECTION ( 'NONE',  ( 1.153406566473940520E-16, -1.000000000000000000, 0.000000000000000000 ) ) ;
#64 = AXIS2_PLACEMENT_3D ( 'NONE', #170, #271, #145 ) ;
#65 = ADVANCED_FACE ( 'NONE', ( #192 ), #62, .F. ) ;
#66 = AXIS2_PLACEMENT_3D ( 'NONE', #148, #329, #69 ) ;
#67 = CARTESIAN_POINT ( 'NONE',  ( -20.85000000000000142, -15.03999999999999915, 0.000000000000000000 ) ) ;
#68 = LINE ( 'NONE', #88, #201 ) ;
#69 = DIRECTION ( 'NONE',  ( -1.153406566473941260E-16, 1.000000000000000000, 0.000000000000000000 ) ) ;
#70 = DIRECTION ( 'NONE',  ( 0.000000000000000000, 0.000000000000000000, 1.000000000000000000 ) ) ;
#71 = LINE ( 'NONE', #19, #174 ) ;
#72 = DIRECTION ( 'NONE',  ( -0.000000000000000000, -0.000000000000000000, -1.000000000000000000 ) ) ;
#73 = EDGE_CURVE ( 'NONE', #264, #13, #272, .T. ) ;
#74 = MECHANICAL_DESIGN_GEOMETRIC_PRESENTATION_REPRESENTATION (  '', ( #227 ), #269 ) ;
#75 = DIRECTION ( 'NONE',  ( 1.153406566473941260E-16, -1.000000000000000000, -0.000000000000000000 ) ) ;
#76 = PLANE ( 'NONE',  #327 ) ;
#77 = ORIENTED_EDGE ( 'NONE', *, *, #176, .T. ) ;
#78 = LINE ( 'NONE', #82, #119 ) ;
#79 = VERTEX_POINT ( 'NONE', #305 ) ;
#80 = DIRECTION ( 'NONE',  ( -0.000000000000000000, -1.000000000000000000, -0.000000000000000000 ) ) ;
#81 = ORIENTED_EDGE ( 'NONE', *, *, #199, .T. ) ;
#82 = CARTESIAN_POINT ( 'NONE',  ( -20.85000000000000142, -15.03999999999999915, 2.200000000000000178 ) ) ;
#83 = ORIENTED_EDGE ( 'NONE', *, *, #196, .T. ) ;
#84 = LINE ( 'NONE', #313, #138 ) ;
#85 = VERTEX_POINT ( 'NONE', #277 ) ;
#86 = DIRECTION ( 'NONE',  ( 1.000000000000000000, 0.000000000000000000, 0.000000000000000000 ) ) ;
#87 = AXIS2_PLACEMENT_3D ( 'NONE', #157, #263, #28 ) ;
#88 = CARTESIAN_POINT ( 'NONE',  ( 23.84999999999999432, -15.03999999999999915, 2.200000000000000178 ) ) ;
#89 = DIRECTION ( 'NONE',  ( 0.000000000000000000, 0.000000000000000000, 1.000000000000000000 ) ) ;
#90 = DIRECTION ( 'NONE',  ( 1.000000000000000000, 0.000000000000000000, 0.000000000000000000 ) ) ;
#91 = CIRCLE ( 'NONE', #273, 23.84999999999999432 ) ;
#92 = AXIS2_PLACEMENT_3D ( 'NONE', #23, #149, #252 ) ;
#93 = CARTESIAN_POINT ( 'NONE',  ( 0.000000000000000000, 15.03999999999999915, 2.200000000000000178 ) ) ;
#94 = DIRECTION ( 'NONE',  ( 1.000000000000000000, 0.000000000000000000, 0.000000000000000000 ) ) ;
#95 = CARTESIAN_POINT ( 'NONE',  ( 23.84999999999999432, -15.03999999999999915, 2.200000000000000178 ) ) ;
#96 = CARTESIAN_POINT ( 'NONE',  ( -23.84999999999999787, 15.03999999999998849, 2.200000000000000178 ) ) ;
#97 = EDGE_CURVE ( 'NONE', #266, #275, #164, .T. ) ;
#98 = CARTESIAN_POINT ( 'NONE',  ( 20.85000000000000142, 15.04000000000000803, 0.000000000000000000 ) ) ;
#99 = AXIS2_PLACEMENT_3D ( 'NONE', #128, #152, #226 ) ;
#100 = VECTOR ( 'NONE', #308, 1000.000000000000000 ) ;
#101 = DIRECTION ( 'NONE',  ( -0.000000000000000000, -1.000000000000000000, -0.000000000000000000 ) ) ;
#102 = ORIENTED_EDGE ( 'NONE', *, *, #73, .T. ) ;
#103 = EDGE_CURVE ( 'NONE', #140, #264, #59, .T. ) ;
#104 = UNCERTAINTY_MEASURE_WITH_UNIT (LENGTH_MEASURE( 1.000000000000000082E-05 ), #214, 'distance_accuracy_value', 'NONE');
#105 = PRODUCT_DEFINITION_SHAPE ( 'NONE', 'NONE',  #161 ) ;
#106 = DIRECTION ( 'NONE',  ( 0.000000000000000000, 0.000000000000000000, 1.000000000000000000 ) ) ;
#107 = ORIENTED_EDGE ( 'NONE', *, *, #236, .F. ) ;
#108 = PRODUCT_CONTEXT ( 'NONE', #204, 'mechanical' ) ;
#109 = VERTEX_POINT ( 'NONE', #98 ) ;
#110 = PRODUCT ( 'Housing Seal', 'Housing Seal', '', ( #108 ) ) ;
#111 = AXIS2_PLACEMENT_3D ( 'NONE', #219, #320, #63 ) ;
#112 = DIRECTION ( 'NONE',  ( 0.000000000000000000, 0.000000000000000000, -1.000000000000000000 ) ) ;
#113 = AXIS2_PLACEMENT_3D ( 'NONE', #52, #153, #136 ) ;
#114 = ORIENTED_EDGE ( 'NONE', *, *, #18, .T. ) ;
#115 = CARTESIAN_POINT ( 'NONE',  ( -20.85000000000000142, 15.03999999999998849, 2.200000000000000178 ) ) ;
#116 = ORIENTED_EDGE ( 'NONE', *, *, #61, .F. ) ;
#117 = PRODUCT_RELATED_PRODUCT_CATEGORY ( 'part', '', ( #110 ) ) ;
#118 = CARTESIAN_POINT ( 'NONE',  ( 5.525606357752857268E-15, -15.03999999999999915, 2.200000000000000178 ) ) ;
#119 = VECTOR ( 'NONE', #101, 1000.000000000000000 ) ;
#120 = ORIENTED_EDGE ( 'NONE', *, *, #248, .F. ) ;
#121 = EDGE_LOOP ( 'NONE', ( #137, #107, #317, #146 ) ) ;
#122 =( NAMED_UNIT ( * ) PLANE_ANGLE_UNIT ( ) SI_UNIT ( $, .RADIAN. ) );
#123 = VECTOR ( 'NONE', #39, 1000.000000000000000 ) ;
#124 = LINE ( 'NONE', #96, #246 ) ;
#125 = EDGE_CURVE ( 'NONE', #7, #309, #328, .T. ) ;
#126 = LINE ( 'NONE', #307, #35 ) ;
#127 = CARTESIAN_POINT ( 'NONE',  ( 23.84999999999999432, 15.04000000000000981, 2.200000000000000178 ) ) ;
#128 = CARTESIAN_POINT ( 'NONE',  ( 0.000000000000000000, 15.03999999999999915, 2.200000000000000178 ) ) ;
#129 = CARTESIAN_POINT ( 'NONE',  ( 5.525606357752857268E-15, -15.03999999999999915, 0.000000000000000000 ) ) ;
#130 = EDGE_CURVE ( 'NONE', #211, #244, #47, .T. ) ;
#131 = CLOSED_SHELL ( 'NONE', ( #292, #230, #30, #65, #224, #139, #41, #253, #279, #324 ) ) ;
#132 = LINE ( 'NONE', #208, #14 ) ;
#133 = ORIENTED_EDGE ( 'NONE', *, *, #97, .F. ) ;
#134 = APPLICATION_PROTOCOL_DEFINITION ( 'draft international standard', 'automotive_design', 1998, #204 ) ;
#135 = ORIENTED_EDGE ( 'NONE', *, *, #300, .T. ) ;
#136 = DIRECTION ( 'NONE',  ( -1.000000000000000000, 0.000000000000000000, 0.000000000000000000 ) ) ;
#137 = ORIENTED_EDGE ( 'NONE', *, *, #182, .T. ) ;
#138 = VECTOR ( 'NONE', #162, 1000.000000000000000 ) ;
#139 = ADVANCED_FACE ( 'NONE', ( #44 ), #46, .F. ) ;
#140 = VERTEX_POINT ( 'NONE', #200 ) ;
#141 = ORIENTED_EDGE ( 'NONE', *, *, #258, .F. ) ;
#142 = DIRECTION ( 'NONE',  ( -0.000000000000000000, -0.000000000000000000, -1.000000000000000000 ) ) ;
#143 = EDGE_CURVE ( 'NONE', #109, #13, #331, .T. ) ;
#144 = CARTESIAN_POINT ( 'NONE',  ( -20.85000000000000142, 15.03999999999998849, 2.200000000000000178 ) ) ;
#145 = DIRECTION ( 'NONE',  ( -1.000000000000000000, 0.000000000000000000, 0.000000000000000000 ) ) ;
#146 = ORIENTED_EDGE ( 'NONE', *, *, #207, .T. ) ;
#147 = ORIENTED_EDGE ( 'NONE', *, *, #12, .T. ) ;
#148 = CARTESIAN_POINT ( 'NONE',  ( -23.84999999999999432, -15.03999999999999915, 2.200000000000000178 ) ) ;
#149 = DIRECTION ( 'NONE',  ( 0.000000000000000000, 0.000000000000000000, 1.000000000000000000 ) ) ;
#150 = CARTESIAN_POINT ( 'NONE',  ( -23.84999999999999432, -15.03999999999999915, 0.000000000000000000 ) ) ;
#151 = VECTOR ( 'NONE', #72, 1000.000000000000000 ) ;
#152 = DIRECTION ( 'NONE',  ( 0.000000000000000000, 0.000000000000000000, 1.000000000000000000 ) ) ;
#153 = DIRECTION ( 'NONE',  ( -0.000000000000000000, -0.000000000000000000, -1.000000000000000000 ) ) ;
#154 = CARTESIAN_POINT ( 'NONE',  ( 20.85000000000000142, -15.03999999999999915, 2.200000000000000178 ) ) ;
#155 = ORIENTED_EDGE ( 'NONE', *, *, #258, .T. ) ;
#156 = VECTOR ( 'NONE', #24, 1000.000000000000000 ) ;
#157 = CARTESIAN_POINT ( 'NONE',  ( 0.000000000000000000, 0.000000000000000000, 0.000000000000000000 ) ) ;
#158 = ORIENTED_EDGE ( 'NONE', *, *, #199, .F. ) ;
#159 = APPLICATION_PROTOCOL_DEFINITION ( 'draft international standard', 'automotive_design', 1998, #231 ) ;
#160 = EDGE_LOOP ( 'NONE', ( #291, #235, #51, #310 ) ) ;
#161 = PRODUCT_DEFINITION ( 'General', '', #251, #169 ) ;
#162 = DIRECTION ( 'NONE',  ( 1.153406566473940520E-16, 1.000000000000000000, 0.000000000000000000 ) ) ;
#163 = ORIENTED_EDGE ( 'NONE', *, *, #143, .T. ) ;
#164 = CIRCLE ( 'NONE', #206, 20.85000000000000142 ) ;
#165 = VERTEX_POINT ( 'NONE', #198 ) ;
#166 = FACE_OUTER_BOUND ( 'NONE', #160, .T. ) ;
#167 = EDGE_CURVE ( 'NONE', #211, #309, #228, .T. ) ;
#168 = DIRECTION ( 'NONE',  ( -0.000000000000000000, -0.000000000000000000, -1.000000000000000000 ) ) ;
#169 = PRODUCT_DEFINITION_CONTEXT ( 'detailed design', #231, 'design' ) ;
#170 = CARTESIAN_POINT ( 'NONE',  ( 5.525606357752857268E-15, -15.03999999999999915, 2.200000000000000178 ) ) ;
#171 = EDGE_CURVE ( 'NONE', #249, #7, #124, .T. ) ;
#172 = ORIENTED_EDGE ( 'NONE', *, *, #61, .T. ) ;
#173 = CARTESIAN_POINT ( 'NONE',  ( -20.85000000000000142, -15.03999999999999915, 2.200000000000000178 ) ) ;
#174 = VECTOR ( 'NONE', #276, 1000.000000000000000 ) ;
#175 = DIRECTION ( 'NONE',  ( 1.000000000000000000, 0.000000000000000000, -0.000000000000000000 ) ) ;
#176 = EDGE_CURVE ( 'NONE', #266, #16, #177, .T. ) ;
#177 = LINE ( 'NONE', #173, #8 ) ;
#178 = DIRECTION ( 'NONE',  ( -0.000000000000000000, -0.000000000000000000, -1.000000000000000000 ) ) ;
#179 = PRESENTATION_LAYER_ASSIGNMENT (  '', '', ( #227 ) ) ;
#180 = AXIS2_PLACEMENT_3D ( 'NONE', #210, #239, #112 ) ;
#181 = DIRECTION ( 'NONE',  ( -1.000000000000000000, 0.000000000000000000, 0.000000000000000000 ) ) ;
#182 = EDGE_CURVE ( 'NONE', #85, #79, #20, .T. ) ;
#183 = DIRECTION ( 'NONE',  ( -1.153406566473940520E-16, -1.000000000000000000, 0.000000000000000000 ) ) ;
#184 = ORIENTED_EDGE ( 'NONE', *, *, #300, .F. ) ;
#185 = FACE_OUTER_BOUND ( 'NONE', #34, .T. ) ;
#186 = EDGE_LOOP ( 'NONE', ( #36, #147, #29, #27 ) ) ;
#187 = CIRCLE ( 'NONE', #302, 23.84999999999999432 ) ;
#188 = PLANE ( 'NONE',  #180 ) ;
#189 = EDGE_LOOP ( 'NONE', ( #268, #190, #245, #57 ) ) ;
#190 = ORIENTED_EDGE ( 'NONE', *, *, #125, .F. ) ;
#191 = ORIENTED_EDGE ( 'NONE', *, *, #171, .T. ) ;
#192 = FACE_OUTER_BOUND ( 'NONE', #121, .T. ) ;
#193 = CARTESIAN_POINT ( 'NONE',  ( -23.84999999999999787, 15.03999999999998849, 0.000000000000000000 ) ) ;
#194 = SURFACE_STYLE_USAGE ( .BOTH. , #195 ) ;
#195 = SURFACE_SIDE_STYLE ('',( #17 ) ) ;
#196 = EDGE_CURVE ( 'NONE', #140, #109, #71, .T. ) ;
#197 = FILL_AREA_STYLE_COLOUR ( '', #53 ) ;
#198 = CARTESIAN_POINT ( 'NONE',  ( 20.85000000000000142, -15.03999999999999915, 0.000000000000000000 ) ) ;
#199 = EDGE_CURVE ( 'NONE', #16, #165, #43, .T. ) ;
#200 = CARTESIAN_POINT ( 'NONE',  ( 20.85000000000000142, 15.04000000000000803, 2.200000000000000178 ) ) ;
#201 = VECTOR ( 'NONE', #295, 1000.000000000000000 ) ;
#202 = FACE_OUTER_BOUND ( 'NONE', #4, .T. ) ;
#203 = DIRECTION ( 'NONE',  ( -0.000000000000000000, -0.000000000000000000, -1.000000000000000000 ) ) ;
#204 = APPLICATION_CONTEXT ( 'automotive_design' ) ;
#205 = CARTESIAN_POINT ( 'NONE',  ( -23.84999999999999432, -15.03999999999999915, 2.200000000000000178 ) ) ;
#206 = AXIS2_PLACEMENT_3D ( 'NONE', #301, #223, #94 ) ;
#207 = EDGE_CURVE ( 'NONE', #244, #85, #256, .T. ) ;
#208 = CARTESIAN_POINT ( 'NONE',  ( -20.85000000000000142, -15.03999999999999915, 0.000000000000000000 ) ) ;
#209 = ORIENTED_EDGE ( 'NONE', *, *, #284, .T. ) ;
#210 = CARTESIAN_POINT ( 'NONE',  ( -20.85000000000000142, -15.03999999999999915, 2.200000000000000178 ) ) ;
#211 = VERTEX_POINT ( 'NONE', #205 ) ;
#212 = PLANE ( 'NONE',  #54 ) ;
#213 = EDGE_LOOP ( 'NONE', ( #2, #58, #32, #102 ) ) ;
#214 =( LENGTH_UNIT ( ) NAMED_UNIT ( * ) SI_UNIT ( .MILLI., .METRE. ) );
#215 = ORIENTED_EDGE ( 'NONE', *, *, #176, .F. ) ;
#216 = CARTESIAN_POINT ( 'NONE',  ( 5.525606357752857268E-15, -15.03999999999999915, 2.200000000000000178 ) ) ;
#217 = EDGE_LOOP ( 'NONE', ( #141, #133, #120, #60 ) ) ;
#218 = CARTESIAN_POINT ( 'NONE',  ( 20.85000000000000142, -15.03999999999999915, 2.200000000000000178 ) ) ;
#219 = CARTESIAN_POINT ( 'NONE',  ( 23.84999999999999432, -15.03999999999999915, 2.200000000000000178 ) ) ;
#220 =( LENGTH_UNIT ( ) NAMED_UNIT ( * ) SI_UNIT ( .MILLI., .METRE. ) );
#221 = EDGE_LOOP ( 'NONE', ( #158, #215, #318, #172 ) ) ;
#222 = EDGE_CURVE ( 'NONE', #249, #211, #126, .T. ) ;
#223 = DIRECTION ( 'NONE',  ( 0.000000000000000000, 0.000000000000000000, 1.000000000000000000 ) ) ;
#224 = ADVANCED_FACE ( 'NONE', ( #202 ), #304, .T. ) ;
#225 = CARTESIAN_POINT ( 'NONE',  ( 5.525606357752857268E-15, -15.03999999999999915, 0.000000000000000000 ) ) ;
#226 = DIRECTION ( 'NONE',  ( 1.000000000000000000, 0.000000000000000000, 0.000000000000000000 ) ) ;
#227 = STYLED_ITEM ( 'NONE', ( #298 ), #40 ) ;
#228 = LINE ( 'NONE', #306, #151 ) ;
#229 = DIRECTION ( 'NONE',  ( 0.000000000000000000, 0.000000000000000000, 1.000000000000000000 ) ) ;
#230 = ADVANCED_FACE ( 'NONE', ( #49, #325 ), #254, .F. ) ;
#231 = APPLICATION_CONTEXT ( 'automotive_design' ) ;
#232 =( NAMED_UNIT ( * ) PLANE_ANGLE_UNIT ( ) SI_UNIT ( $, .RADIAN. ) );
#233 = VECTOR ( 'NONE', #1, 1000.000000000000000 ) ;
#234 = CARTESIAN_POINT ( 'NONE',  ( -20.85000000000000142, -15.03999999999999915, 2.200000000000000178 ) ) ;
#235 = ORIENTED_EDGE ( 'NONE', *, *, #207, .F. ) ;
#236 = EDGE_CURVE ( 'NONE', #287, #79, #21, .T. ) ;
#237 = CARTESIAN_POINT ( 'NONE',  ( 23.84999999999999432, -15.03999999999999915, 2.200000000000000178 ) ) ;
#238 = EDGE_LOOP ( 'NONE', ( #314, #42, #261, #77 ) ) ;
#239 = DIRECTION ( 'NONE',  ( 1.000000000000000000, 0.000000000000000000, 0.000000000000000000 ) ) ;
#240 = EDGE_LOOP ( 'NONE', ( #81, #135, #163, #209 ) ) ;
#241 = VECTOR ( 'NONE', #259, 1000.000000000000000 ) ;
#242 = FACE_OUTER_BOUND ( 'NONE', #186, .T. ) ;
#243 = ORIENTED_EDGE ( 'NONE', *, *, #171, .F. ) ;
#244 = VERTEX_POINT ( 'NONE', #237 ) ;
#245 = ORIENTED_EDGE ( 'NONE', *, *, #18, .F. ) ;
#246 = VECTOR ( 'NONE', #203, 1000.000000000000000 ) ;
#247 = CYLINDRICAL_SURFACE ( 'NONE', #64, 23.84999999999999432 ) ;
#248 = EDGE_CURVE ( 'NONE', #264, #266, #78, .T. ) ;
#249 = VERTEX_POINT ( 'NONE', #9 ) ;
#250 = DIRECTION ( 'NONE',  ( 0.000000000000000000, 0.000000000000000000, 1.000000000000000000 ) ) ;
#251 = PRODUCT_DEFINITION_FORMATION_WITH_SPECIFIED_SOURCE ( 'Symmetric', '', #110, .NOT_KNOWN. ) ;
#252 = DIRECTION ( 'NONE',  ( 1.000000000000000000, 0.000000000000000000, 0.000000000000000000 ) ) ;
#253 = ADVANCED_FACE ( 'NONE', ( #185 ), #76, .T. ) ;
#254 = PLANE ( 'NONE',  #303 ) ;
#255 = DIRECTION ( 'NONE',  ( 1.000000000000000000, 0.000000000000000000, 0.000000000000000000 ) ) ;
#256 = LINE ( 'NONE', #95, #22 ) ;
#257 = VECTOR ( 'NONE', #142, 1000.000000000000000 ) ;
#258 = EDGE_CURVE ( 'NONE', #275, #140, #290, .T. ) ;
#259 = DIRECTION ( 'NONE',  ( 1.153406566473941260E-16, -1.000000000000000000, -0.000000000000000000 ) ) ;
#260 = CARTESIAN_POINT ( 'NONE',  ( 23.84999999999999432, 15.04000000000000981, 2.200000000000000178 ) ) ;
#261 = ORIENTED_EDGE ( 'NONE', *, *, #248, .T. ) ;
#262 = AXIS2_PLACEMENT_3D ( 'NONE', #118, #168, #299 ) ;
#263 = DIRECTION ( 'NONE',  ( 0.000000000000000000, 0.000000000000000000, 1.000000000000000000 ) ) ;
#264 = VERTEX_POINT ( 'NONE', #115 ) ;
#265 = CYLINDRICAL_SURFACE ( 'NONE', #113, 20.85000000000000142 ) ;
#266 = VERTEX_POINT ( 'NONE', #234 ) ;
#267 = CARTESIAN_POINT ( 'NONE',  ( -23.84999999999999432, -15.03999999999999915, 0.000000000000000000 ) ) ;
#268 = ORIENTED_EDGE ( 'NONE', *, *, #6, .F. ) ;
#269 =( GEOMETRIC_REPRESENTATION_CONTEXT ( 3 ) GLOBAL_UNCERTAINTY_ASSIGNED_CONTEXT ( ( #48 ) ) GLOBAL_UNIT_ASSIGNED_CONTEXT ( ( #220, #122, #37 ) ) REPRESENTATION_CONTEXT ( 'NONE', 'WORKASPACE' ) );
#270 = ORIENTED_EDGE ( 'NONE', *, *, #236, .T. ) ;
#271 = DIRECTION ( 'NONE',  ( -0.000000000000000000, -0.000000000000000000, -1.000000000000000000 ) ) ;
#272 = LINE ( 'NONE', #144, #123 ) ;
#273 = AXIS2_PLACEMENT_3D ( 'NONE', #296, #89, #86 ) ;
#274 = LINE ( 'NONE', #218, #257 ) ;
#275 = VERTEX_POINT ( 'NONE', #154 ) ;
#276 = DIRECTION ( 'NONE',  ( -0.000000000000000000, -0.000000000000000000, -1.000000000000000000 ) ) ;
#277 = CARTESIAN_POINT ( 'NONE',  ( 23.84999999999999432, -15.03999999999999915, 0.000000000000000000 ) ) ;
#278 = DIRECTION ( 'NONE',  ( -0.000000000000000000, -0.000000000000000000, -1.000000000000000000 ) ) ;
#279 = ADVANCED_FACE ( 'NONE', ( #31 ), #265, .F. ) ;
#280 = CARTESIAN_POINT ( 'NONE',  ( 23.84999999999999432, -15.03999999999999915, 0.000000000000000000 ) ) ;
#281 = AXIS2_PLACEMENT_3D ( 'NONE', #129, #330, #282 ) ;
#282 = DIRECTION ( 'NONE',  ( 1.000000000000000000, 0.000000000000000000, 0.000000000000000000 ) ) ;
#283 = CARTESIAN_POINT ( 'NONE',  ( 0.000000000000000000, 15.03999999999999915, 2.200000000000000178 ) ) ;
#284 = EDGE_CURVE ( 'NONE', #13, #16, #132, .T. ) ;
#285 = ORIENTED_EDGE ( 'NONE', *, *, #315, .F. ) ;
#286 = ADVANCED_BREP_SHAPE_REPRESENTATION ( 'Housing Seal', ( #40, #87 ), #297 ) ;
#287 = VERTEX_POINT ( 'NONE', #260 ) ;
#288 = DIRECTION ( 'NONE',  ( 0.000000000000000000, 0.000000000000000000, 1.000000000000000000 ) ) ;
#289 = ORIENTED_EDGE ( 'NONE', *, *, #167, .F. ) ;
#290 = LINE ( 'NONE', #25, #233 ) ;
#291 = ORIENTED_EDGE ( 'NONE', *, *, #6, .T. ) ;
#292 = ADVANCED_FACE ( 'NONE', ( #242, #5 ), #212, .T. ) ;
#293 = ORIENTED_EDGE ( 'NONE', *, *, #125, .T. ) ;
#294 = CYLINDRICAL_SURFACE ( 'NONE', #262, 20.85000000000000142 ) ;
#295 = DIRECTION ( 'NONE',  ( -1.153406566473940520E-16, 1.000000000000000000, 0.000000000000000000 ) ) ;
#296 = CARTESIAN_POINT ( 'NONE',  ( 5.525606357752857268E-15, -15.03999999999999915, 0.000000000000000000 ) ) ;
#297 =( GEOMETRIC_REPRESENTATION_CONTEXT ( 3 ) GLOBAL_UNCERTAINTY_ASSIGNED_CONTEXT ( ( #104 ) ) GLOBAL_UNIT_ASSIGNED_CONTEXT ( ( #214, #232, #56 ) ) REPRESENTATION_CONTEXT ( 'NONE', 'WORKASPACE' ) );
#298 = PRESENTATION_STYLE_ASSIGNMENT (( #194 ) ) ;
#299 = DIRECTION ( 'NONE',  ( -1.000000000000000000, 0.000000000000000000, 0.000000000000000000 ) ) ;
#300 = EDGE_CURVE ( 'NONE', #165, #109, #84, .T. ) ;
#301 = CARTESIAN_POINT ( 'NONE',  ( 5.525606357752857268E-15, -15.03999999999999915, 2.200000000000000178 ) ) ;
#302 = AXIS2_PLACEMENT_3D ( 'NONE', #322, #250, #90 ) ;
#303 = AXIS2_PLACEMENT_3D ( 'NONE', #225, #70, #175 ) ;
#304 = CYLINDRICAL_SURFACE ( 'NONE', #323, 23.84999999999999432 ) ;
#305 = CARTESIAN_POINT ( 'NONE',  ( 23.84999999999999432, 15.04000000000000981, 0.000000000000000000 ) ) ;
#306 = CARTESIAN_POINT ( 'NONE',  ( -23.84999999999999432, -15.03999999999999915, 2.200000000000000178 ) ) ;
#307 = CARTESIAN_POINT ( 'NONE',  ( -23.84999999999999432, -15.03999999999999915, 2.200000000000000178 ) ) ;
#308 = DIRECTION ( 'NONE',  ( -0.000000000000000000, -0.000000000000000000, -1.000000000000000000 ) ) ;
#309 = VERTEX_POINT ( 'NONE', #267 ) ;
#310 = ORIENTED_EDGE ( 'NONE', *, *, #167, .T. ) ;
#311 = CARTESIAN_POINT ( 'NONE',  ( 20.85000000000000142, -15.03999999999999915, 2.200000000000000178 ) ) ;
#312 = CIRCLE ( 'NONE', #26, 23.84999999999999432 ) ;
#313 = CARTESIAN_POINT ( 'NONE',  ( 20.85000000000000142, -15.03999999999999915, 0.000000000000000000 ) ) ;
#314 = ORIENTED_EDGE ( 'NONE', *, *, #284, .F. ) ;
#315 = EDGE_CURVE ( 'NONE', #287, #249, #312, .T. ) ;
#316 = DIRECTION ( 'NONE',  ( 1.000000000000000000, 0.000000000000000000, -0.000000000000000000 ) ) ;
#317 = ORIENTED_EDGE ( 'NONE', *, *, #12, .F. ) ;
#318 = ORIENTED_EDGE ( 'NONE', *, *, #97, .T. ) ;
#319 = AXIS2_PLACEMENT_3D ( 'NONE', #45, #229, #255 ) ;
#320 = DIRECTION ( 'NONE',  ( -1.000000000000000000, -1.153406566473940520E-16, 0.000000000000000000 ) ) ;
#321 = FACE_OUTER_BOUND ( 'NONE', #221, .T. ) ;
#322 = CARTESIAN_POINT ( 'NONE',  ( 0.000000000000000000, 15.03999999999999915, 0.000000000000000000 ) ) ;
#323 = AXIS2_PLACEMENT_3D ( 'NONE', #93, #278, #181 ) ;
#324 = ADVANCED_FACE ( 'NONE', ( #33 ), #188, .T. ) ;
#325 = FACE_BOUND ( 'NONE', #240, .T. ) ;
#326 = DIRECTION ( 'NONE',  ( -0.000000000000000000, -0.000000000000000000, -1.000000000000000000 ) ) ;
#327 = AXIS2_PLACEMENT_3D ( 'NONE', #311, #3, #183 ) ;
#328 = LINE ( 'NONE', #150, #241 ) ;
#329 = DIRECTION ( 'NONE',  ( 1.000000000000000000, 1.153406566473941260E-16, -0.000000000000000000 ) ) ;
#330 = DIRECTION ( 'NONE',  ( 0.000000000000000000, 0.000000000000000000, 1.000000000000000000 ) ) ;
#331 = CIRCLE ( 'NONE', #319, 20.85000000000000142 ) ;
ENDSEC;
END-ISO-10303-21;
