ISO-10303-21;
HEADER;
FILE_DESCRIPTION (( 'STEP AP214' ),
    '1' );
FILE_NAME ('Hydraulic pump.STEP',
    '2024-11-24T17:15:08',
    ( '' ),
    ( '' ),
    'SwSTEP 2.0',
    'SolidWorks 2024',
    '' );
FILE_SCHEMA (( 'AUTOMOTIVE_DESIGN' ));
ENDSEC;

DATA;
#1 = PROPERTY_DEFINITION_REPRESENTATION ( #495, #315 ) ;
#2 = APPLICATION_CONTEXT ( 'automotive_design' ) ;
#3 = CARTESIAN_POINT ( 'NONE',  ( 36.08813630664858607, 36.42204772999824058, 2.750303434619683074 ) ) ;
#4 = PROPERTY_DEFINITION ('external definition','', #266 ) ;
#5 = PROPERTY_DEFINITION_REPRESENTATION ( #684, #616 ) ;
#6 = CARTESIAN_POINT ( 'NONE',  ( 90.01556070723073333, 30.29741025316572944, 38.53053521664960357 ) ) ;
#7 = ITEM_DEFINED_TRANSFORMATION ( 'NONE', 'NONE', #300,  #21 ) ;
#8 = OBJECT_ROLE ('mandatory',$ ) ;
#9 = DIRECTION ( 'NONE',  ( 0.000000000000000000, 0.000000000000000000, 1.000000000000000000 ) ) ;
#10 = CONTEXT_DEPENDENT_SHAPE_REPRESENTATION ( #370, #319 ) ;
#11 =( GEOMETRIC_REPRESENTATION_CONTEXT ( 3 ) GLOBAL_UNCERTAINTY_ASSIGNED_CONTEXT ( ( #387 ) ) GLOBAL_UNIT_ASSIGNED_CONTEXT ( ( #712, #486, #748 ) ) REPRESENTATION_CONTEXT ( 'NONE', 'WORKASPACE' ) );
#12 = PRODUCT ( 'socket head cap screw_iso_ISO 4762 M12 x 80 - 36N', 'socket head cap screw_iso_ISO 4762 M12 x 80 - 36N', '', ( #517 ) ) ;
#13 = CARTESIAN_POINT ( 'NONE',  ( 45.51556070723074043, 45.53651025316574419, 64.03053521664958225 ) ) ;
#14 = PROPERTY_DEFINITION ('external definition','', #472 ) ;
#15 =( REPRESENTATION_RELATIONSHIP ('NONE','NONE', #505, #315 ) REPRESENTATION_RELATIONSHIP_WITH_TRANSFORMATION ( #642 )SHAPE_REPRESENTATION_RELATIONSHIP( ) );
#16 = CARTESIAN_POINT ( 'NONE',  ( 45.04961532669034341, 30.04351522630430082, 68.53053521664961067 ) ) ;
#17 = PROPERTY_DEFINITION ('document property','', #458 ) ;
#18 = PRODUCT_DEFINITION ( 'General', '', #608, #737 ) ;
#19 = OBJECT_ROLE ('mandatory',$ ) ;
#20 = APPLIED_EXTERNAL_IDENTIFICATION_ASSIGNMENT ( 'Housing Seal.STEP' , #731, #316,( #630) ) ;
#21 = AXIS2_PLACEMENT_3D ( 'NONE', #235, #476, #538 ) ;
#22 = AXIS2_PLACEMENT_3D ( 'NONE', #464, #659, #360 ) ;
#23 = SHAPE_DEFINITION_REPRESENTATION ( #715, #616 ) ;
#24 = CONTEXT_DEPENDENT_SHAPE_REPRESENTATION ( #169, #265 ) ;
#25 = DOCUMENT_TYPE ( 'geometry' ) ;
#26 = PRODUCT_DEFINITION_SHAPE ( 'NONE', 'NONE',  #782 ) ;
#27 = APPLICATION_PROTOCOL_DEFINITION ( 'draft international standard', 'automotive_design', 1998, #324 ) ;
#28 = PROPERTY_DEFINITION_REPRESENTATION ( #141, #315 ) ;
#29 = SHAPE_REPRESENTATION ( 'Oil Seal', ( #144 ), #750 ) ;
#30 = EXTERNAL_SOURCE (IDENTIFIER('') ) ;
#31 = ITEM_DEFINED_TRANSFORMATION ( 'NONE', 'NONE', #76,  #245 ) ;
#32 = ITEM_DEFINED_TRANSFORMATION ( 'NONE', 'NONE', #751,  #245 ) ;
#33 = OBJECT_ROLE ('mandatory',$ ) ;
#34 = APPLIED_EXTERNAL_IDENTIFICATION_ASSIGNMENT ( 'PIN 2X4.STEP' , #404, #625,( #345) ) ;
#35 = DIRECTION ( 'NONE',  ( 0.000000000000000000, 0.000000000000000000, 1.000000000000000000 ) ) ;
#36 = PROPERTY_DEFINITION_REPRESENTATION ( #163, #591 ) ;
#37 =( LENGTH_UNIT ( ) NAMED_UNIT ( * ) SI_UNIT ( .MILLI., .METRE. ) );
#38 = APPLICATION_CONTEXT ( 'automotive_design' ) ;
#39 = APPLICATION_PROTOCOL_DEFINITION ( 'draft international standard', 'automotive_design', 1998, #192 ) ;
#40 = ITEM_DEFINED_TRANSFORMATION ( 'NONE', 'NONE', #736,  #619 ) ;
#41 =( LENGTH_UNIT ( ) NAMED_UNIT ( * ) SI_UNIT ( .MILLI., .METRE. ) );
#42 = PRODUCT_RELATED_PRODUCT_CATEGORY ( 'part', '', ( #532 ) ) ;
#43 = ROLE_ASSOCIATION ( #133, #189 ) ;
#44 = CONTEXT_DEPENDENT_SHAPE_REPRESENTATION ( #343, #47 ) ;
#45 = OBJECT_ROLE ('mandatory',$ ) ;
#46 = CARTESIAN_POINT ( 'NONE',  ( 45.51556070723073333, -14.70258974683427766, 62.53053521664959646 ) ) ;
#47 = PRODUCT_DEFINITION_SHAPE ( 'NONE', 'NONE',  #783 ) ;
#48 = CARTESIAN_POINT ( 'NONE',  ( 0.000000000000000000, 0.000000000000000000, 0.000000000000000000 ) ) ;
#49 = APPLIED_DOCUMENT_REFERENCE ( #226,'',( #18) ) ;
#50 = APPLIED_DOCUMENT_REFERENCE ( #463,'',( #581) ) ;
#51 =( GEOMETRIC_REPRESENTATION_CONTEXT ( 3 ) GLOBAL_UNCERTAINTY_ASSIGNED_CONTEXT ( ( #240 ) ) GLOBAL_UNIT_ASSIGNED_CONTEXT ( ( #54, #533, #359 ) ) REPRESENTATION_CONTEXT ( 'NONE', 'WORKASPACE' ) );
#52 = PRODUCT_DEFINITION_FORMATION_WITH_SPECIFIED_SOURCE ( 'Symmetric', '', #190, .NOT_KNOWN. ) ;
#53 =( REPRESENTATION_RELATIONSHIP ('NONE','NONE', #505, #191 ) REPRESENTATION_RELATIONSHIP_WITH_TRANSFORMATION ( #40 )SHAPE_REPRESENTATION_RELATIONSHIP( ) );
#54 =( LENGTH_UNIT ( ) NAMED_UNIT ( * ) SI_UNIT ( .MILLI., .METRE. ) );
#55 = APPLIED_DOCUMENT_REFERENCE ( #114,'',( #701) ) ;
#56 = DIRECTION ( 'NONE',  ( 9.973979239802401979E-17, 9.163301284692596077E-17, -1.000000000000000000 ) ) ;
#57 = APPLICATION_CONTEXT ( 'automotive_design' ) ;
#58 = DOCUMENT_FILE ( 'socket head cap screw_iso_ISO 4762 M12 x 80 - 36N.STEP' , '', '', #466, '' ,$ ) ;
#59 = PROPERTY_DEFINITION ('document property','', #226 ) ;
#60 = DIRECTION ( 'NONE',  ( 1.000000000000000000, 0.000000000000000000, 0.000000000000000000 ) ) ;
#61 = APPLIED_EXTERNAL_IDENTIFICATION_ASSIGNMENT ( 'Subassembly drive shaft gear.STEP' , #617, #353,( #208) ) ;
#62 = AXIS2_PLACEMENT_3D ( 'NONE', #6, #681, #137 ) ;
#63 = DIRECTION ( 'NONE',  ( -1.942890293094022960E-16, 2.775557561562892584E-17, -0.9999999999999998890 ) ) ;
#64 =( REPRESENTATION_RELATIONSHIP ('NONE','NONE', #505, #342 ) REPRESENTATION_RELATIONSHIP_WITH_TRANSFORMATION ( #337 )SHAPE_REPRESENTATION_RELATIONSHIP( ) );
#65 =( LENGTH_UNIT ( ) NAMED_UNIT ( * ) SI_UNIT ( .MILLI., .METRE. ) );
#66 = CONTEXT_DEPENDENT_SHAPE_REPRESENTATION ( #661, #241 ) ;
#67 = PRODUCT_DEFINITION_CONTEXT ( 'detailed design', #228, 'design' ) ;
#68 = DIRECTION ( 'NONE',  ( 0.8798355000190429820, -0.4752783320394911581, -5.896838567258170548E-17 ) ) ;
#69 = PRODUCT_DEFINITION_SHAPE ( 'NONE', 'NONE',  #402 ) ;
#70 =( NAMED_UNIT ( * ) SI_UNIT ( $, .STERADIAN. ) SOLID_ANGLE_UNIT ( ) );
#71 = IDENTIFICATION_ROLE ( 'external document id and location', $) ;
#72 = CONTEXT_DEPENDENT_SHAPE_REPRESENTATION ( #164, #80 ) ;
#73 =( LENGTH_UNIT ( ) NAMED_UNIT ( * ) SI_UNIT ( .MILLI., .METRE. ) );
#74 = PROPERTY_DEFINITION_REPRESENTATION ( #450, #423 ) ;
#75 =( GEOMETRIC_REPRESENTATION_CONTEXT ( 3 ) GLOBAL_UNCERTAINTY_ASSIGNED_CONTEXT ( ( #639 ) ) GLOBAL_UNIT_ASSIGNED_CONTEXT ( ( #37, #211, #149 ) ) REPRESENTATION_CONTEXT ( 'NONE', 'WORKASPACE' ) );
#76 = AXIS2_PLACEMENT_3D ( 'NONE', #645, #478, #227 ) ;
#77 = APPLICATION_CONTEXT ( 'automotive_design' ) ;
#78 = UNCERTAINTY_MEASURE_WITH_UNIT (LENGTH_MEASURE( 1.000000000000000082E-05 ), #73, 'distance_accuracy_value', 'NONE');
#79 = EXTERNAL_SOURCE (IDENTIFIER('') ) ;
#80 = PRODUCT_DEFINITION_SHAPE ( 'NONE', 'NONE',  #772 ) ;
#81 = CARTESIAN_POINT ( 'NONE',  ( 45.51556070723073333, 75.29741025316572234, 8.530535216649600017 ) ) ;
#82 = PRODUCT_RELATED_PRODUCT_CATEGORY ( 'part', '', ( #166 ) ) ;
#83 = DIRECTION ( 'NONE',  ( 0.000000000000000000, 0.000000000000000000, 1.000000000000000000 ) ) ;
#84 = APPLICATION_CONTEXT ( 'automotive_design' ) ;
#85 = PROPERTY_DEFINITION ('document property','', #658 ) ;
#86 = APPLICATION_PROTOCOL_DEFINITION ( 'draft international standard', 'automotive_design', 1998, #335 ) ;
#87 = IDENTIFICATION_ROLE ( 'external document id and location', $) ;
#88 = PRODUCT_DEFINITION_FORMATION_WITH_SPECIFIED_SOURCE ( 'Symmetric', '', #729, .NOT_KNOWN. ) ;
#89 = APPLICATION_PROTOCOL_DEFINITION ( 'draft international standard', 'automotive_design', 1998, #764 ) ;
#90 = PROPERTY_DEFINITION_REPRESENTATION ( #216, #483 ) ;
#91 = EXTERNAL_SOURCE (IDENTIFIER('') ) ;
#92 = CONTEXT_DEPENDENT_SHAPE_REPRESENTATION ( #702, #525 ) ;
#93 = PRODUCT_RELATED_PRODUCT_CATEGORY ( 'part', '', ( #130 ) ) ;
#94 = IDENTIFICATION_ROLE ( 'external document id and location', $) ;
#95 = PROPERTY_DEFINITION ('external definition','', #114 ) ;
#96 = APPLICATION_PROTOCOL_DEFINITION ( 'draft international standard', 'automotive_design', 1998, #635 ) ;
#97 = DIRECTION ( 'NONE',  ( 1.000000000000000000, 0.000000000000000000, 0.000000000000000000 ) ) ;
#98 = APPLIED_EXTERNAL_IDENTIFICATION_ASSIGNMENT ( 'Oil Seal.STEP' , #587, #570,( #463) ) ;
#99 = APPLICATION_PROTOCOL_DEFINITION ( 'draft international standard', 'automotive_design', 1998, #228 ) ;
#100 = DOCUMENT_TYPE ( 'geometry' ) ;
#101 =( LENGTH_UNIT ( ) NAMED_UNIT ( * ) SI_UNIT ( .MILLI., .METRE. ) );
#102 = PROPERTY_DEFINITION ('external definition','', #654 ) ;
#103 = CONTEXT_DEPENDENT_SHAPE_REPRESENTATION ( #332, #638 ) ;
#104 = CARTESIAN_POINT ( 'NONE',  ( 36.08813630664859318, 24.66801761844373431, 74.31076699867956847 ) ) ;
#105 = OBJECT_ROLE ('mandatory',$ ) ;
#106 = PROPERTY_DEFINITION ('external definition','', #714 ) ;
#107 = APPLIED_EXTERNAL_IDENTIFICATION_ASSIGNMENT ( 'PIN 4X6.STEP' , #657, #320,( #762) ) ;
#108 = AXIS2_PLACEMENT_3D ( 'NONE', #48, #560, #740 ) ;
#109 = DIRECTION ( 'NONE',  ( 1.000000000000000000, 0.000000000000000000, 0.000000000000000000 ) ) ;
#110 = DOCUMENT_FILE ( 'End Plate.STEP' , '', '', #152, '' ,$ ) ;
#111 = IDENTIFICATION_ROLE ( 'external document id and location', $) ;
#112 = UNCERTAINTY_MEASURE_WITH_UNIT (LENGTH_MEASURE( 1.000000000000000082E-05 ), #41, 'distance_accuracy_value', 'NONE');
#113 = DIRECTION ( 'NONE',  ( 0.000000000000000000, 0.000000000000000000, 1.000000000000000000 ) ) ;
#114 = DOCUMENT_FILE ( 'socket head cap screw_iso_ISO 4762 M12 x 80 - 36N.STEP' , '', '', #261, '' ,$ ) ;
#115 = PROPERTY_DEFINITION ('document property','', #339 ) ;
#116 =( LENGTH_UNIT ( ) NAMED_UNIT ( * ) SI_UNIT ( .MILLI., .METRE. ) );
#117 = APPLICATION_CONTEXT ( 'automotive_design' ) ;
#118 = ROLE_ASSOCIATION ( #204, #734 ) ;
#119 = DIRECTION ( 'NONE',  ( 0.000000000000000000, 0.000000000000000000, 1.000000000000000000 ) ) ;
#120 = DIRECTION ( 'NONE',  ( 1.942890293094024439E-16, -2.955917309764123844E-17, 0.9999999999999998890 ) ) ;
#121 = DOCUMENT_TYPE ( 'geometry' ) ;
#122 = AXIS2_PLACEMENT_3D ( 'NONE', #742, #555, #496 ) ;
#123 = PROPERTY_DEFINITION_REPRESENTATION ( #696, #342 ) ;
#124 = PRODUCT ( 'PIN 4X6', 'PIN 4X6', '', ( #379 ) ) ;
#125 = PROPERTY_DEFINITION_REPRESENTATION ( #685, #624 ) ;
#126 = CARTESIAN_POINT ( 'NONE',  ( 74.51556070723073333, 59.29741025316571523, -11.96946478335043196 ) ) ;
#127 = APPLIED_DOCUMENT_REFERENCE ( #184,'',( #260) ) ;
#128 = OBJECT_ROLE ('mandatory',$ ) ;
#129 = CARTESIAN_POINT ( 'NONE',  ( 45.51556070723079017, 32.84503267422098816, 19.28053521664960357 ) ) ;
#130 = PRODUCT ( 'Hydraulic pump', 'Hydraulic pump', '', ( #239 ) ) ;
#131 = PROPERTY_DEFINITION ('document property','', #714 ) ;
#132 = DIRECTION ( 'NONE',  ( 0.000000000000000000, 0.000000000000000000, 1.000000000000000000 ) ) ;
#133 = OBJECT_ROLE ('mandatory',$ ) ;
#134 = AXIS2_PLACEMENT_3D ( 'NONE', #126, #253, #120 ) ;
#135 = AXIS2_PLACEMENT_3D ( 'NONE', #225, #183, #426 ) ;
#136 =( GEOMETRIC_REPRESENTATION_CONTEXT ( 3 ) GLOBAL_UNCERTAINTY_ASSIGNED_CONTEXT ( ( #78 ) ) GLOBAL_UNIT_ASSIGNED_CONTEXT ( ( #73, #249, #304 ) ) REPRESENTATION_CONTEXT ( 'NONE', 'WORKASPACE' ) );
#137 = DIRECTION ( 'NONE',  ( 0.000000000000000000, 0.000000000000000000, -1.000000000000000000 ) ) ;
#138 = PRODUCT_RELATED_PRODUCT_CATEGORY ( 'part', '', ( #729 ) ) ;
#139 = PROPERTY_DEFINITION ('external definition','', #254 ) ;
#140 =( REPRESENTATION_RELATIONSHIP ('NONE','NONE', #505, #29 ) REPRESENTATION_RELATIONSHIP_WITH_TRANSFORMATION ( #469 )SHAPE_REPRESENTATION_RELATIONSHIP( ) );
#141 = PROPERTY_DEFINITION ('external definition','', #458 ) ;
#142 = IDENTIFICATION_ROLE ( 'external document id and location', $) ;
#143 = SHAPE_DEFINITION_REPRESENTATION ( #236, #483 ) ;
#144 = AXIS2_PLACEMENT_3D ( 'NONE', #552, #546, #197 ) ;
#145 = APPLICATION_CONTEXT ( 'automotive_design' ) ;
#146 = APPLIED_EXTERNAL_IDENTIFICATION_ASSIGNMENT ( 'PIN 4X6.STEP' , #94, #691,( #266) ) ;
#147 = PRODUCT_CONTEXT ( 'NONE', #281, 'mechanical' ) ;
#148 = PROPERTY_DEFINITION ('document property','', #647 ) ;
#149 =( NAMED_UNIT ( * ) SI_UNIT ( $, .STERADIAN. ) SOLID_ANGLE_UNIT ( ) );
#150 = PRODUCT_CONTEXT ( 'NONE', #484, 'mechanical' ) ;
#151 = PROPERTY_DEFINITION_REPRESENTATION ( #758, #591 ) ;
#152 = DOCUMENT_TYPE ( 'geometry' ) ;
#153 = PROPERTY_DEFINITION ('document property','', #463 ) ;
#154 = SHAPE_DEFINITION_REPRESENTATION ( #376, #315 ) ;
#155 = DOCUMENT_FILE ( 'Subassembly idle gear.STEP' , '', '', #574, '' ,$ ) ;
#156 = PRODUCT_RELATED_PRODUCT_CATEGORY ( 'part', '', ( #593 ) ) ;
#157 =( REPRESENTATION_RELATIONSHIP ('NONE','NONE', #505, #591 ) REPRESENTATION_RELATIONSHIP_WITH_TRANSFORMATION ( #32 )SHAPE_REPRESENTATION_RELATIONSHIP( ) );
#158 = APPLIED_EXTERNAL_IDENTIFICATION_ASSIGNMENT ( 'Nipple.STEP' , #599, #326,( #472) ) ;
#159 = ITEM_DEFINED_TRANSFORMATION ( 'NONE', 'NONE', #640,  #245 ) ;
#160 = PROPERTY_DEFINITION_REPRESENTATION ( #338, #342 ) ;
#161 =( GEOMETRIC_REPRESENTATION_CONTEXT ( 3 ) GLOBAL_UNCERTAINTY_ASSIGNED_CONTEXT ( ( #336 ) ) GLOBAL_UNIT_ASSIGNED_CONTEXT ( ( #356, #308, #302 ) ) REPRESENTATION_CONTEXT ( 'NONE', 'WORKASPACE' ) );
#162 = AXIS2_PLACEMENT_3D ( 'NONE', #728, #535, #181 ) ;
#163 = PROPERTY_DEFINITION ('document property','', #762 ) ;
#164 =( REPRESENTATION_RELATIONSHIP ('NONE','NONE', #505, #342 ) REPRESENTATION_RELATIONSHIP_WITH_TRANSFORMATION ( #606 )SHAPE_REPRESENTATION_RELATIONSHIP( ) );
#165 = CONTEXT_DEPENDENT_SHAPE_REPRESENTATION ( #511, #327 ) ;
#166 = PRODUCT ( '3. drive end plate', '3. drive end plate', '', ( #697 ) ) ;
#167 = PROPERTY_DEFINITION_REPRESENTATION ( #671, #759 ) ;
#168 = PROPERTY_DEFINITION_REPRESENTATION ( #131, #391 ) ;
#169 =( REPRESENTATION_RELATIONSHIP ('NONE','NONE', #505, #315 ) REPRESENTATION_RELATIONSHIP_WITH_TRANSFORMATION ( #7 )SHAPE_REPRESENTATION_RELATIONSHIP( ) );
#170 = PRODUCT_RELATED_PRODUCT_CATEGORY ( 'part', '', ( #622 ) ) ;
#171 = PROPERTY_DEFINITION_REPRESENTATION ( #344, #423 ) ;
#172 = APPLIED_EXTERNAL_IDENTIFICATION_ASSIGNMENT ( 'PIN 2X4.STEP' , #142, #399,( #654) ) ;
#173 = DIRECTION ( 'NONE',  ( 1.000000000000000000, 0.000000000000000000, 0.000000000000000000 ) ) ;
#174 =( GEOMETRIC_REPRESENTATION_CONTEXT ( 3 ) GLOBAL_UNCERTAINTY_ASSIGNED_CONTEXT ( ( #295 ) ) GLOBAL_UNIT_ASSIGNED_CONTEXT ( ( #116, #355, #231 ) ) REPRESENTATION_CONTEXT ( 'NONE', 'WORKASPACE' ) );
#175 = OBJECT_ROLE ('mandatory',$ ) ;
#176 = PRODUCT_DEFINITION_SHAPE ( 'NONE', 'NONE',  #768 ) ;
#177 = ROLE_ASSOCIATION ( #550, #55 ) ;
#178 = UNCERTAINTY_MEASURE_WITH_UNIT (LENGTH_MEASURE( 1.000000000000000082E-05 ), #718, 'distance_accuracy_value', 'NONE');
#179 = DIRECTION ( 'NONE',  ( 0.000000000000000000, 0.000000000000000000, 1.000000000000000000 ) ) ;
#180 = CONTEXT_DEPENDENT_SHAPE_REPRESENTATION ( #673, #437 ) ;
#181 = DIRECTION ( 'NONE',  ( 1.000000000000000000, 0.000000000000000000, 0.000000000000000000 ) ) ;
#182 = PRODUCT_DEFINITION ( 'General', '', #221, #678 ) ;
#183 = DIRECTION ( 'NONE',  ( 0.000000000000000000, 0.000000000000000000, 1.000000000000000000 ) ) ;
#184 = DOCUMENT_FILE ( 'Nipple.STEP' , '', '', #753, '' ,$ ) ;
#185 = PRODUCT_DEFINITION_CONTEXT ( 'detailed design', #117, 'design' ) ;
#186 = DOCUMENT_TYPE ( 'geometry' ) ;
#187 = DIRECTION ( 'NONE',  ( 4.404213024741320211E-17, -4.254045392240843675E-17, 1.000000000000000000 ) ) ;
#188 = DIRECTION ( 'NONE',  ( 1.000000000000000000, 0.000000000000000000, 0.000000000000000000 ) ) ;
#189 = APPLIED_DOCUMENT_REFERENCE ( #266,'',( #482) ) ;
#190 = PRODUCT ( 'Oil Seal', 'Oil Seal', '', ( #150 ) ) ;
#191 = SHAPE_REPRESENTATION ( 'Subassembly drive shaft gear', ( #619 ), #161 ) ;
#192 = APPLICATION_CONTEXT ( 'automotive_design' ) ;
#193 = CARTESIAN_POINT ( 'NONE',  ( 45.51556070723073333, -14.70258974683427766, 8.530535216649600017 ) ) ;
#194 = PRODUCT_DEFINITION_SHAPE ( 'NONE', 'NONE',  #769 ) ;
#195 = OBJECT_ROLE ('mandatory',$ ) ;
#196 = DIRECTION ( 'NONE',  ( 1.942890293094023946E-16, -2.775557561562895049E-17, 1.000000000000000000 ) ) ;
#197 = DIRECTION ( 'NONE',  ( 1.000000000000000000, 0.000000000000000000, 0.000000000000000000 ) ) ;
#198 =( GEOMETRIC_REPRESENTATION_CONTEXT ( 3 ) GLOBAL_UNCERTAINTY_ASSIGNED_CONTEXT ( ( #178 ) ) GLOBAL_UNIT_ASSIGNED_CONTEXT ( ( #718, #349, #413 ) ) REPRESENTATION_CONTEXT ( 'NONE', 'WORKASPACE' ) );
#199 = PRODUCT_DEFINITION_FORMATION_WITH_SPECIFIED_SOURCE ( 'Symmetric', '', #490, .NOT_KNOWN. ) ;
#200 = OBJECT_ROLE ('mandatory',$ ) ;
#201 = ITEM_DEFINED_TRANSFORMATION ( 'NONE', 'NONE', #594,  #108 ) ;
#202 = PROPERTY_DEFINITION ('document property','', #305 ) ;
#203 = SHAPE_DEFINITION_REPRESENTATION ( #655, #391 ) ;
#204 = OBJECT_ROLE ('mandatory',$ ) ;
#205 = SHAPE_DEFINITION_REPRESENTATION ( #229, #759 ) ;
#206 = PRODUCT_DEFINITION_SHAPE ( 'NONE', 'NONE',  #773 ) ;
#207 = APPLICATION_PROTOCOL_DEFINITION ( 'draft international standard', 'automotive_design', 1998, #145 ) ;
#208 = DOCUMENT_FILE ( 'Subassembly drive shaft gear.STEP' , '', '', #699, '' ,$ ) ;
#209 = DOCUMENT_TYPE ( 'geometry' ) ;
#210 = APPLIED_EXTERNAL_IDENTIFICATION_ASSIGNMENT ( 'Sub Assembly leg sleeve.STEP' , #267, #644,( #263) ) ;
#211 =( NAMED_UNIT ( * ) PLANE_ANGLE_UNIT ( ) SI_UNIT ( $, .RADIAN. ) );
#212 = PRODUCT_DEFINITION_FORMATION_WITH_SPECIFIED_SOURCE ( 'Symmetric', '', #166, .NOT_KNOWN. ) ;
#213 = ROLE_ASSOCIATION ( #479, #298 ) ;
#214 = APPLICATION_PROTOCOL_DEFINITION ( 'draft international standard', 'automotive_design', 1998, #264 ) ;
#215 = APPLIED_DOCUMENT_REFERENCE ( #762,'',( #482) ) ;
#216 = PROPERTY_DEFINITION ('external definition','', #155 ) ;
#217 =( REPRESENTATION_RELATIONSHIP ('NONE','NONE', #505, #315 ) REPRESENTATION_RELATIONSHIP_WITH_TRANSFORMATION ( #468 )SHAPE_REPRESENTATION_RELATIONSHIP( ) );
#218 = APPLICATION_PROTOCOL_DEFINITION ( 'draft international standard', 'automotive_design', 1998, #57 ) ;
#219 = UNCERTAINTY_MEASURE_WITH_UNIT (LENGTH_MEASURE( 1.000000000000000082E-05 ), #65, 'distance_accuracy_value', 'NONE');
#220 = CONTEXT_DEPENDENT_SHAPE_REPRESENTATION ( #157, #26 ) ;
#221 = PRODUCT_DEFINITION_FORMATION_WITH_SPECIFIED_SOURCE ( 'Symmetric', '', #285, .NOT_KNOWN. ) ;
#222 =( REPRESENTATION_RELATIONSHIP ('NONE','NONE', #505, #423 ) REPRESENTATION_RELATIONSHIP_WITH_TRANSFORMATION ( #417 )SHAPE_REPRESENTATION_RELATIONSHIP( ) );
#223 = DIRECTION ( 'NONE',  ( 0.000000000000000000, 0.000000000000000000, -1.000000000000000000 ) ) ;
#224 = PROPERTY_DEFINITION ('external definition','', #208 ) ;
#225 = CARTESIAN_POINT ( 'NONE',  ( 0.000000000000000000, 0.000000000000000000, 0.000000000000000000 ) ) ;
#226 = DOCUMENT_FILE ( 'Sub Assembly leg sleeve.STEP' , '', '', #296, '' ,$ ) ;
#227 = DIRECTION ( 'NONE',  ( 1.000000000000000000, 0.000000000000000000, 0.000000000000000000 ) ) ;
#228 = APPLICATION_CONTEXT ( 'automotive_design' ) ;
#229 = PRODUCT_DEFINITION_SHAPE ( 'NONE', 'NONE',  #260 ) ;
#230 = PROPERTY_DEFINITION_REPRESENTATION ( #272, #29 ) ;
#231 =( NAMED_UNIT ( * ) SI_UNIT ( $, .STERADIAN. ) SOLID_ANGLE_UNIT ( ) );
#232 = EXTERNAL_SOURCE (IDENTIFIER('') ) ;
#233 = PROPERTY_DEFINITION_REPRESENTATION ( #95, #423 ) ;
#234 = APPLIED_EXTERNAL_IDENTIFICATION_ASSIGNMENT ( 'Subassembly idle gear.STEP' , #743, #232,( #155) ) ;
#235 = CARTESIAN_POINT ( 'NONE',  ( 0.000000000000000000, 0.000000000000000000, 0.000000000000000000 ) ) ;
#236 = PRODUCT_DEFINITION_SHAPE ( 'NONE', 'NONE',  #286 ) ;
#237 = PROPERTY_DEFINITION_REPRESENTATION ( #492, #759 ) ;
#238 = DOCUMENT_TYPE ( 'geometry' ) ;
#239 = PRODUCT_CONTEXT ( 'NONE', #310, 'mechanical' ) ;
#240 = UNCERTAINTY_MEASURE_WITH_UNIT (LENGTH_MEASURE( 1.000000000000000082E-05 ), #54, 'distance_accuracy_value', 'NONE');
#241 = PRODUCT_DEFINITION_SHAPE ( 'NONE', 'NONE',  #771 ) ;
#242 = DIRECTION ( 'NONE',  ( 0.000000000000000000, 0.000000000000000000, 1.000000000000000000 ) ) ;
#243 = APPLICATION_CONTEXT ( 'automotive_design' ) ;
#244 = DIRECTION ( 'NONE',  ( -1.304679550729910822E-16, 6.635213843693640121E-17, 0.9999999999999998890 ) ) ;
#245 = AXIS2_PLACEMENT_3D ( 'NONE', #665, #119, #60 ) ;
#246 = AXIS2_PLACEMENT_3D ( 'NONE', #745, #255, #499 ) ;
#247 = IDENTIFICATION_ROLE ( 'external document id and location', $) ;
#248 = PRODUCT_DEFINITION_SHAPE ( 'NONE', 'NONE',  #312 ) ;
#249 =( NAMED_UNIT ( * ) PLANE_ANGLE_UNIT ( ) SI_UNIT ( $, .RADIAN. ) );
#250 = PRODUCT_DEFINITION_SHAPE ( 'NONE', 'NONE',  #790 ) ;
#251 = APPLICATION_CONTEXT ( 'automotive_design' ) ;
#252 = PRODUCT_DEFINITION_CONTEXT ( 'detailed design', #706, 'design' ) ;
#253 = DIRECTION ( 'NONE',  ( -0.9613632591789411652, 0.2752829161078542697, 1.949194698076555133E-16 ) ) ;
#254 = DOCUMENT_FILE ( 'Housing Seal.STEP' , '', '', #683, '' ,$ ) ;
#255 = DIRECTION ( 'NONE',  ( 0.6436531239293313833, 0.7653173564319658562, -9.945539717211458286E-17 ) ) ;
#256 = APPLIED_EXTERNAL_IDENTIFICATION_ASSIGNMENT ( 'socket head cap screw_iso_ISO 4762 M12 x 80 - 36N.STEP' , #425, #381,( #58) ) ;
#257 = AXIS2_PLACEMENT_3D ( 'NONE', #16, #244, #739 ) ;
#258 = APPLICATION_PROTOCOL_DEFINITION ( 'draft international standard', 'automotive_design', 1998, #243 ) ;
#259 = APPLIED_DOCUMENT_REFERENCE ( #654,'',( #402) ) ;
#260 = PRODUCT_DEFINITION ( 'General', '', #383, #498 ) ;
#261 = DOCUMENT_TYPE ( 'geometry' ) ;
#262 = SHAPE_DEFINITION_REPRESENTATION ( #430, #591 ) ;
#263 = DOCUMENT_FILE ( 'Sub Assembly leg sleeve.STEP' , '', '', #506, '' ,$ ) ;
#264 = APPLICATION_CONTEXT ( 'automotive_design' ) ;
#265 = PRODUCT_DEFINITION_SHAPE ( 'NONE', 'NONE',  #776 ) ;
#266 = DOCUMENT_FILE ( 'PIN 4X6.STEP' , '', '', #613, '' ,$ ) ;
#267 = IDENTIFICATION_ROLE ( 'external document id and location', $) ;
#268 = AXIS2_PLACEMENT_3D ( 'NONE', #531, #311, #223 ) ;
#269 = APPLIED_EXTERNAL_IDENTIFICATION_ASSIGNMENT ( 'Sub Assembly leg sleeve.STEP' , #87, #374,( #339) ) ;
#270 = PRODUCT_CONTEXT ( 'NONE', #84, 'mechanical' ) ;
#271 = DOCUMENT_TYPE ( 'geometry' ) ;
#272 = PROPERTY_DEFINITION ('external definition','', #463 ) ;
#273 = PRODUCT_DEFINITION ( 'General', '', #199, #670 ) ;
#274 = APPLICATION_PROTOCOL_DEFINITION ( 'draft international standard', 'automotive_design', 1998, #484 ) ;
#275 = CONTEXT_DEPENDENT_SHAPE_REPRESENTATION ( #64, #573 ) ;
#276 = OBJECT_ROLE ('mandatory',$ ) ;
#277 = DIRECTION ( 'NONE',  ( 1.000000000000000000, 0.000000000000000000, 0.000000000000000000 ) ) ;
#278 = PROPERTY_DEFINITION ('document property','', #208 ) ;
#279 = PROPERTY_DEFINITION_REPRESENTATION ( #4, #591 ) ;
#280 = PROPERTY_DEFINITION_REPRESENTATION ( #566, #510 ) ;
#281 = APPLICATION_CONTEXT ( 'automotive_design' ) ;
#282 = CARTESIAN_POINT ( 'NONE',  ( 0.000000000000000000, 0.000000000000000000, 0.000000000000000000 ) ) ;
#283 = APPLIED_DOCUMENT_REFERENCE ( #339,'',( #18) ) ;
#284 = ROLE_ASSOCIATION ( #19, #50 ) ;
#285 = PRODUCT ( 'End Plate', 'End Plate', '', ( #686 ) ) ;
#286 = PRODUCT_DEFINITION ( 'General', '', #669, #470 ) ;
#287 = UNCERTAINTY_MEASURE_WITH_UNIT (LENGTH_MEASURE( 1.000000000000000082E-05 ), #652, 'distance_accuracy_value', 'NONE');
#288 = APPLIED_DOCUMENT_REFERENCE ( #432,'',( #701) ) ;
#289 = DIRECTION ( 'NONE',  ( 0.000000000000000000, 0.000000000000000000, 1.000000000000000000 ) ) ;
#290 = DOCUMENT_TYPE ( 'geometry' ) ;
#291 = ROLE_ASSOCIATION ( #438, #528 ) ;
#292 = DIRECTION ( 'NONE',  ( 0.000000000000000000, 0.000000000000000000, 1.000000000000000000 ) ) ;
#293 = PROPERTY_DEFINITION ('document property','', #266 ) ;
#294 = APPLIED_DOCUMENT_REFERENCE ( #58,'',( #701) ) ;
#295 = UNCERTAINTY_MEASURE_WITH_UNIT (LENGTH_MEASURE( 1.000000000000000082E-05 ), #116, 'distance_accuracy_value', 'NONE');
#296 = DOCUMENT_TYPE ( 'geometry' ) ;
#297 = DIRECTION ( 'NONE',  ( 1.000000000000000000, 0.000000000000000000, 0.000000000000000000 ) ) ;
#298 = APPLIED_DOCUMENT_REFERENCE ( #110,'',( #182) ) ;
#299 = APPLIED_EXTERNAL_IDENTIFICATION_ASSIGNMENT ( 'PIN 4X6.STEP' , #247, #451,( #647) ) ;
#300 = AXIS2_PLACEMENT_3D ( 'NONE', #434, #431, #626 ) ;
#301 =( REPRESENTATION_RELATIONSHIP ('NONE','NONE', #505, #759 ) REPRESENTATION_RELATIONSHIP_WITH_TRANSFORMATION ( #407 )SHAPE_REPRESENTATION_RELATIONSHIP( ) );
#302 =( NAMED_UNIT ( * ) SI_UNIT ( $, .STERADIAN. ) SOLID_ANGLE_UNIT ( ) );
#303 = ROLE_ASSOCIATION ( #175, #49 ) ;
#304 =( NAMED_UNIT ( * ) SI_UNIT ( $, .STERADIAN. ) SOLID_ANGLE_UNIT ( ) );
#305 = DOCUMENT_FILE ( 'Body.STEP' , '', '', #429, '' ,$ ) ;
#306 = OBJECT_ROLE ('mandatory',$ ) ;
#307 = CARTESIAN_POINT ( 'NONE',  ( 16.51556070723073333, 1.297410253165727001, -11.96946478335040531 ) ) ;
#308 =( NAMED_UNIT ( * ) PLANE_ANGLE_UNIT ( ) SI_UNIT ( $, .RADIAN. ) );
#309 = PROPERTY_DEFINITION_REPRESENTATION ( #480, #591 ) ;
#310 = APPLICATION_CONTEXT ( 'automotive_design' ) ;
#311 = DIRECTION ( 'NONE',  ( 1.000000000000000000, 0.000000000000000000, 0.000000000000000000 ) ) ;
#312 = PRODUCT_DEFINITION ( 'General', '', #515, #439 ) ;
#313 = OBJECT_ROLE ('mandatory',$ ) ;
#314 = DIRECTION ( 'NONE',  ( 1.942890293094023946E-16, -2.775557561562890735E-17, 1.000000000000000000 ) ) ;
#315 = SHAPE_REPRESENTATION ( 'Sub Assembly leg sleeve', ( #21 ), #563 ) ;
#316 = EXTERNAL_SOURCE (IDENTIFIER('') ) ;
#317 = PRODUCT_DEFINITION_CONTEXT ( 'detailed design', #346, 'design' ) ;
#318 = DIRECTION ( 'NONE',  ( 0.000000000000000000, 0.000000000000000000, 1.000000000000000000 ) ) ;
#319 = PRODUCT_DEFINITION_SHAPE ( 'NONE', 'NONE',  #775 ) ;
#320 = EXTERNAL_SOURCE (IDENTIFIER('') ) ;
#321 = APPLIED_DOCUMENT_REFERENCE ( #647,'',( #482) ) ;
#322 = PRODUCT_RELATED_PRODUCT_CATEGORY ( 'part', '', ( #490 ) ) ;
#323 = APPLICATION_PROTOCOL_DEFINITION ( 'draft international standard', 'automotive_design', 1998, #117 ) ;
#324 = APPLICATION_CONTEXT ( 'automotive_design' ) ;
#325 = AXIS2_PLACEMENT_3D ( 'NONE', #732, #132, #545 ) ;
#326 = EXTERNAL_SOURCE (IDENTIFIER('') ) ;
#327 = PRODUCT_DEFINITION_SHAPE ( 'NONE', 'NONE',  #774 ) ;
#328 = PRODUCT_CONTEXT ( 'NONE', #677, 'mechanical' ) ;
#329 = ITEM_DEFINED_TRANSFORMATION ( 'NONE', 'NONE', #348,  #21 ) ;
#330 = APPLICATION_PROTOCOL_DEFINITION ( 'draft international standard', 'automotive_design', 1998, #717 ) ;
#331 = PROPERTY_DEFINITION_REPRESENTATION ( #224, #191 ) ;
#332 =( REPRESENTATION_RELATIONSHIP ('NONE','NONE', #505, #315 ) REPRESENTATION_RELATIONSHIP_WITH_TRANSFORMATION ( #329 )SHAPE_REPRESENTATION_RELATIONSHIP( ) );
#333 = APPLICATION_PROTOCOL_DEFINITION ( 'draft international standard', 'automotive_design', 1998, #38 ) ;
#334 = APPLIED_DOCUMENT_REFERENCE ( #263,'',( #18) ) ;
#335 = APPLICATION_CONTEXT ( 'automotive_design' ) ;
#336 = UNCERTAINTY_MEASURE_WITH_UNIT (LENGTH_MEASURE( 1.000000000000000082E-05 ), #356, 'distance_accuracy_value', 'NONE');
#337 = ITEM_DEFINED_TRANSFORMATION ( 'NONE', 'NONE', #449,  #607 ) ;
#338 = PROPERTY_DEFINITION ('document property','', #654 ) ;
#339 = DOCUMENT_FILE ( 'Sub Assembly leg sleeve.STEP' , '', '', #649, '' ,$ ) ;
#340 = ITEM_DEFINED_TRANSFORMATION ( 'NONE', 'NONE', #398,  #514 ) ;
#341 = DIRECTION ( 'NONE',  ( 1.000000000000000000, 8.787782420400976706E-34, 9.973979239802401979E-17 ) ) ;
#342 = SHAPE_REPRESENTATION ( 'PIN 2X4', ( #607 ), #11 ) ;
#343 =( REPRESENTATION_RELATIONSHIP ('NONE','NONE', #505, #510 ) REPRESENTATION_RELATIONSHIP_WITH_TRANSFORMATION ( #637 )SHAPE_REPRESENTATION_RELATIONSHIP( ) );
#344 = PROPERTY_DEFINITION ('document property','', #58 ) ;
#345 = DOCUMENT_FILE ( 'PIN 2X4.STEP' , '', '', #121, '' ,$ ) ;
#346 = APPLICATION_CONTEXT ( 'automotive_design' ) ;
#347 = PRODUCT_DEFINITION_SHAPE ( 'NONE', 'NONE',  #581 ) ;
#348 = AXIS2_PLACEMENT_3D ( 'NONE', #3, #83, #419 ) ;
#349 =( NAMED_UNIT ( * ) PLANE_ANGLE_UNIT ( ) SI_UNIT ( $, .RADIAN. ) );
#350 = EXTERNAL_SOURCE (IDENTIFIER('') ) ;
#351 = CARTESIAN_POINT ( 'NONE',  ( 0.000000000000000000, 0.000000000000000000, 0.000000000000000000 ) ) ;
#352 = CONTEXT_DEPENDENT_SHAPE_REPRESENTATION ( #140, #516 ) ;
#353 = EXTERNAL_SOURCE (IDENTIFIER('') ) ;
#354 = PROPERTY_DEFINITION_REPRESENTATION ( #106, #391 ) ;
#355 =( NAMED_UNIT ( * ) PLANE_ANGLE_UNIT ( ) SI_UNIT ( $, .RADIAN. ) );
#356 =( LENGTH_UNIT ( ) NAMED_UNIT ( * ) SI_UNIT ( .MILLI., .METRE. ) );
#357 = ITEM_DEFINED_TRANSFORMATION ( 'NONE', 'NONE', #720,  #410 ) ;
#358 = IDENTIFICATION_ROLE ( 'external document id and location', $) ;
#359 =( NAMED_UNIT ( * ) SI_UNIT ( $, .STERADIAN. ) SOLID_ANGLE_UNIT ( ) );
#360 = DIRECTION ( 'NONE',  ( 0.9980265933623482244, 5.968762485279402974E-17, -0.06279266630384690295 ) ) ;
#361 = AXIS2_PLACEMENT_3D ( 'NONE', #692, #35, #378 ) ;
#362 = PRODUCT_DEFINITION_SHAPE ( 'NONE', 'NONE',  #273 ) ;
#363 = PROPERTY_DEFINITION_REPRESENTATION ( #293, #591 ) ;
#364 = EXTERNAL_SOURCE (IDENTIFIER('') ) ;
#365 = PRODUCT_DEFINITION_CONTEXT ( 'detailed design', #264, 'design' ) ;
#366 = IDENTIFICATION_ROLE ( 'external document id and location', $) ;
#367 = DIRECTION ( 'NONE',  ( 0.9980265933623480024, 5.968762485279401742E-17, 0.06279266630384688908 ) ) ;
#368 =( NAMED_UNIT ( * ) SI_UNIT ( $, .STERADIAN. ) SOLID_ANGLE_UNIT ( ) );
#369 = CARTESIAN_POINT ( 'NONE',  ( 16.51556070723074043, 59.29741025316573655, -11.96946478335039821 ) ) ;
#370 =( REPRESENTATION_RELATIONSHIP ('NONE','NONE', #505, #423 ) REPRESENTATION_RELATIONSHIP_WITH_TRANSFORMATION ( #623 )SHAPE_REPRESENTATION_RELATIONSHIP( ) );
#371 =( NAMED_UNIT ( * ) SI_UNIT ( $, .STERADIAN. ) SOLID_ANGLE_UNIT ( ) );
#372 = CARTESIAN_POINT ( 'NONE',  ( 45.51556070723073333, 30.29741025316572234, 11.53053521664958936 ) ) ;
#373 = APPLIED_EXTERNAL_IDENTIFICATION_ASSIGNMENT ( 'Body.STEP' , #71, #30,( #305) ) ;
#374 = EXTERNAL_SOURCE (IDENTIFIER('') ) ;
#375 = ITEM_DEFINED_TRANSFORMATION ( 'NONE', 'NONE', #268,  #460 ) ;
#376 = PRODUCT_DEFINITION_SHAPE ( 'NONE', 'NONE',  #18 ) ;
#377 = CARTESIAN_POINT ( 'NONE',  ( 45.51556070723073333, 30.29741025316574365, 63.53053521664960357 ) ) ;
#378 = DIRECTION ( 'NONE',  ( 1.000000000000000000, 0.000000000000000000, 0.000000000000000000 ) ) ;
#379 = PRODUCT_CONTEXT ( 'NONE', #324, 'mechanical' ) ;
#380 = CONTEXT_DEPENDENT_SHAPE_REPRESENTATION ( #632, #502 ) ;
#381 = EXTERNAL_SOURCE (IDENTIFIER('') ) ;
#382 =( GEOMETRIC_REPRESENTATION_CONTEXT ( 3 ) GLOBAL_UNCERTAINTY_ASSIGNED_CONTEXT ( ( #395 ) ) GLOBAL_UNIT_ASSIGNED_CONTEXT ( ( #491, #675, #70 ) ) REPRESENTATION_CONTEXT ( 'NONE', 'WORKASPACE' ) );
#383 = PRODUCT_DEFINITION_FORMATION_WITH_SPECIFIED_SOURCE ( 'Symmetric', '', #593, .NOT_KNOWN. ) ;
#384 = SHAPE_DEFINITION_REPRESENTATION ( #248, #624 ) ;
#385 = ROLE_ASSOCIATION ( #33, #448 ) ;
#386 =( REPRESENTATION_RELATIONSHIP ('NONE','NONE', #505, #616 ) REPRESENTATION_RELATIONSHIP_WITH_TRANSFORMATION ( #357 )SHAPE_REPRESENTATION_RELATIONSHIP( ) );
#387 = UNCERTAINTY_MEASURE_WITH_UNIT (LENGTH_MEASURE( 1.000000000000000082E-05 ), #712, 'distance_accuracy_value', 'NONE');
#388 = PRODUCT_CONTEXT ( 'NONE', #453, 'mechanical' ) ;
#389 = PROPERTY_DEFINITION_REPRESENTATION ( #444, #624 ) ;
#390 = PROPERTY_DEFINITION ('external definition','', #263 ) ;
#391 = SHAPE_REPRESENTATION ( '3. drive end plate', ( #397 ), #174 ) ;
#392 = OBJECT_ROLE ('mandatory',$ ) ;
#393 = SHAPE_DEFINITION_REPRESENTATION ( #362, #191 ) ;
#394 = APPLIED_DOCUMENT_REFERENCE ( #458,'',( #18) ) ;
#395 = UNCERTAINTY_MEASURE_WITH_UNIT (LENGTH_MEASURE( 1.000000000000000082E-05 ), #491, 'distance_accuracy_value', 'NONE');
#396 = APPLIED_EXTERNAL_IDENTIFICATION_ASSIGNMENT ( 'socket head cap screw_iso_ISO 4762 M12 x 80 - 36N.STEP' , #761, #520,( #658) ) ;
#397 = AXIS2_PLACEMENT_3D ( 'NONE', #725, #179, #662 ) ;
#398 = AXIS2_PLACEMENT_3D ( 'NONE', #307, #551, #196 ) ;
#399 = EXTERNAL_SOURCE (IDENTIFIER('') ) ;
#400 = ROLE_ASSOCIATION ( #306, #584 ) ;
#401 = PROPERTY_DEFINITION ('external definition','', #630 ) ;
#402 = PRODUCT_DEFINITION ( 'General', '', #763, #252 ) ;
#403 = PROPERTY_DEFINITION_REPRESENTATION ( #59, #315 ) ;
#404 = IDENTIFICATION_ROLE ( 'external document id and location', $) ;
#405 =( LENGTH_UNIT ( ) NAMED_UNIT ( * ) SI_UNIT ( .MILLI., .METRE. ) );
#406 = ITEM_DEFINED_TRANSFORMATION ( 'NONE', 'NONE', #540,  #245 ) ;
#407 = ITEM_DEFINED_TRANSFORMATION ( 'NONE', 'NONE', #62,  #460 ) ;
#408 =( NAMED_UNIT ( * ) SI_UNIT ( $, .STERADIAN. ) SOLID_ANGLE_UNIT ( ) );
#409 = EXTERNAL_SOURCE (IDENTIFIER('') ) ;
#410 = AXIS2_PLACEMENT_3D ( 'NONE', #621, #754, #97 ) ;
#411 =( REPRESENTATION_RELATIONSHIP ('NONE','NONE', #505, #591 ) REPRESENTATION_RELATIONSHIP_WITH_TRANSFORMATION ( #406 )SHAPE_REPRESENTATION_RELATIONSHIP( ) );
#412 = CONTEXT_DEPENDENT_SHAPE_REPRESENTATION ( #446, #582 ) ;
#413 =( NAMED_UNIT ( * ) SI_UNIT ( $, .STERADIAN. ) SOLID_ANGLE_UNIT ( ) );
#414 =( NAMED_UNIT ( * ) PLANE_ANGLE_UNIT ( ) SI_UNIT ( $, .RADIAN. ) );
#415 = DIRECTION ( 'NONE',  ( 0.000000000000000000, 0.000000000000000000, 1.000000000000000000 ) ) ;
#416 = PRODUCT_DEFINITION_SHAPE ( 'NONE', 'NONE',  #770 ) ;
#417 = ITEM_DEFINED_TRANSFORMATION ( 'NONE', 'NONE', #579,  #514 ) ;
#418 = OBJECT_ROLE ('mandatory',$ ) ;
#419 = DIRECTION ( 'NONE',  ( 1.000000000000000000, 0.000000000000000000, 0.000000000000000000 ) ) ;
#420 = DIRECTION ( 'NONE',  ( 0.000000000000000000, 0.000000000000000000, 1.000000000000000000 ) ) ;
#421 = APPLIED_DOCUMENT_REFERENCE ( #254,'',( #312) ) ;
#422 = DIRECTION ( 'NONE',  ( 1.000000000000000000, 0.000000000000000000, 0.000000000000000000 ) ) ;
#423 = SHAPE_REPRESENTATION ( 'socket head cap screw_iso_ISO 4762 M12 x 80 - 36N', ( #514 ), #523 ) ;
#424 = PRODUCT_DEFINITION_FORMATION_WITH_SPECIFIED_SOURCE ( 'Symmetric', '', #12, .NOT_KNOWN. ) ;
#425 = IDENTIFICATION_ROLE ( 'external document id and location', $) ;
#426 = DIRECTION ( 'NONE',  ( 1.000000000000000000, 0.000000000000000000, 0.000000000000000000 ) ) ;
#427 = ROLE_ASSOCIATION ( #313, #730 ) ;
#428 = DIRECTION ( 'NONE',  ( 0.000000000000000000, 0.000000000000000000, 1.000000000000000000 ) ) ;
#429 = DOCUMENT_TYPE ( 'geometry' ) ;
#430 = PRODUCT_DEFINITION_SHAPE ( 'NONE', 'NONE',  #482 ) ;
#431 = DIRECTION ( 'NONE',  ( -9.973979239802399514E-17, -9.163301284692598542E-17, -0.9999999999999996669 ) ) ;
#432 = DOCUMENT_FILE ( 'socket head cap screw_iso_ISO 4762 M12 x 80 - 36N.STEP' , '', '', #553, '' ,$ ) ;
#433 = PRODUCT_DEFINITION_CONTEXT ( 'detailed design', #192, 'design' ) ;
#434 = CARTESIAN_POINT ( 'NONE',  ( 36.08813630664860028, 24.66801761844373786, 35.81076699867944058 ) ) ;
#435 = APPLIED_EXTERNAL_IDENTIFICATION_ASSIGNMENT ( 'End Plate.STEP' , #358, #713,( #110) ) ;
#436 = PRODUCT_RELATED_PRODUCT_CATEGORY ( 'part', '', ( #610 ) ) ;
#437 = PRODUCT_DEFINITION_SHAPE ( 'NONE', 'NONE',  #785 ) ;
#438 = OBJECT_ROLE ('mandatory',$ ) ;
#439 = PRODUCT_DEFINITION_CONTEXT ( 'detailed design', #717, 'design' ) ;
#440 = SHAPE_DEFINITION_REPRESENTATION ( #69, #342 ) ;
#441 = ITEM_DEFINED_TRANSFORMATION ( 'NONE', 'NONE', #325,  #108 ) ;
#442 = UNCERTAINTY_MEASURE_WITH_UNIT (LENGTH_MEASURE( 1.000000000000000082E-05 ), #101, 'distance_accuracy_value', 'NONE');
#443 = IDENTIFICATION_ROLE ( 'external document id and location', $) ;
#444 = PROPERTY_DEFINITION ('document property','', #630 ) ;
#445 = PROPERTY_DEFINITION_REPRESENTATION ( #148, #591 ) ;
#446 =( REPRESENTATION_RELATIONSHIP ('NONE','NONE', #505, #391 ) REPRESENTATION_RELATIONSHIP_WITH_TRANSFORMATION ( #601 )SHAPE_REPRESENTATION_RELATIONSHIP( ) );
#447 = SHAPE_DEFINITION_REPRESENTATION ( #676, #423 ) ;
#448 = APPLIED_DOCUMENT_REFERENCE ( #208,'',( #273) ) ;
#449 = AXIS2_PLACEMENT_3D ( 'NONE', #129, #672, #367 ) ;
#450 = PROPERTY_DEFINITION ('external definition','', #432 ) ;
#451 = EXTERNAL_SOURCE (IDENTIFIER('') ) ;
#452 = PROPERTY_DEFINITION ('document property','', #155 ) ;
#453 = APPLICATION_CONTEXT ( 'automotive_design' ) ;
#454 = APPLICATION_PROTOCOL_DEFINITION ( 'draft international standard', 'automotive_design', 1998, #84 ) ;
#455 = APPLIED_DOCUMENT_REFERENCE ( #630,'',( #312) ) ;
#456 = PROPERTY_DEFINITION ('external definition','', #345 ) ;
#457 = APPLIED_DOCUMENT_REFERENCE ( #305,'',( #544) ) ;
#458 = DOCUMENT_FILE ( 'Sub Assembly leg sleeve.STEP' , '', '', #238, '' ,$ ) ;
#459 = AXIS2_PLACEMENT_3D ( 'NONE', #372, #63, #620 ) ;
#460 = AXIS2_PLACEMENT_3D ( 'NONE', #282, #289, #603 ) ;
#461 =( NAMED_UNIT ( * ) SI_UNIT ( $, .STERADIAN. ) SOLID_ANGLE_UNIT ( ) );
#462 = PROPERTY_DEFINITION_REPRESENTATION ( #738, #315 ) ;
#463 = DOCUMENT_FILE ( 'Oil Seal.STEP' , '', '', #651, '' ,$ ) ;
#464 = CARTESIAN_POINT ( 'NONE',  ( 45.51556070723079017, 28.84503267422098105, 57.78053521664959646 ) ) ;
#465 = PROPERTY_DEFINITION ('document property','', #114 ) ;
#466 = DOCUMENT_TYPE ( 'geometry' ) ;
#467 = CARTESIAN_POINT ( 'NONE',  ( 0.000000000000000000, 0.000000000000000000, 0.000000000000000000 ) ) ;
#468 = ITEM_DEFINED_TRANSFORMATION ( 'NONE', 'NONE', #565,  #21 ) ;
#469 = ITEM_DEFINED_TRANSFORMATION ( 'NONE', 'NONE', #246,  #144 ) ;
#470 = PRODUCT_DEFINITION_CONTEXT ( 'detailed design', #145, 'design' ) ;
#471 = OBJECT_ROLE ('mandatory',$ ) ;
#472 = DOCUMENT_FILE ( 'Nipple.STEP' , '', '', #100, '' ,$ ) ;
#473 = APPLIED_EXTERNAL_IDENTIFICATION_ASSIGNMENT ( 'socket head cap screw_iso_ISO 4762 M12 x 80 - 36N.STEP' , #111, #79,( #114) ) ;
#474 =( GEOMETRIC_REPRESENTATION_CONTEXT ( 3 ) GLOBAL_UNCERTAINTY_ASSIGNED_CONTEXT ( ( #287 ) ) GLOBAL_UNIT_ASSIGNED_CONTEXT ( ( #652, #600, #461 ) ) REPRESENTATION_CONTEXT ( 'NONE', 'WORKASPACE' ) );
#475 =( NAMED_UNIT ( * ) PLANE_ANGLE_UNIT ( ) SI_UNIT ( $, .RADIAN. ) );
#476 = DIRECTION ( 'NONE',  ( 0.000000000000000000, 0.000000000000000000, 1.000000000000000000 ) ) ;
#477 = ROLE_ASSOCIATION ( #487, #534 ) ;
#478 = DIRECTION ( 'NONE',  ( 0.000000000000000000, 0.000000000000000000, 1.000000000000000000 ) ) ;
#479 = OBJECT_ROLE ('mandatory',$ ) ;
#480 = PROPERTY_DEFINITION ('external definition','', #513 ) ;
#481 = DIRECTION ( 'NONE',  ( -0.7611488823917614832, 0.6485771957398539511, 1.658845109187618387E-16 ) ) ;
#482 = PRODUCT_DEFINITION ( 'General', '', #526, #549 ) ;
#483 = SHAPE_REPRESENTATION ( 'Subassembly idle gear', ( #135 ), #382 ) ;
#484 = APPLICATION_CONTEXT ( 'automotive_design' ) ;
#485 = PROPERTY_DEFINITION_REPRESENTATION ( #202, #616 ) ;
#486 =( NAMED_UNIT ( * ) PLANE_ANGLE_UNIT ( ) SI_UNIT ( $, .RADIAN. ) );
#487 = OBJECT_ROLE ('mandatory',$ ) ;
#488 = DIRECTION ( 'NONE',  ( 1.000000000000000000, 0.000000000000000000, 0.000000000000000000 ) ) ;
#489 = PRODUCT_RELATED_PRODUCT_CATEGORY ( 'part', '', ( #190 ) ) ;
#490 = PRODUCT ( 'Subassembly drive shaft gear', 'Subassembly drive shaft gear', '', ( #328 ) ) ;
#491 =( LENGTH_UNIT ( ) NAMED_UNIT ( * ) SI_UNIT ( .MILLI., .METRE. ) );
#492 = PROPERTY_DEFINITION ('document property','', #472 ) ;
#493 = IDENTIFICATION_ROLE ( 'external document id and location', $) ;
#494 = CARTESIAN_POINT ( 'NONE',  ( 74.51556070723067648, 1.297410253165727223, -11.96946478335041064 ) ) ;
#495 = PROPERTY_DEFINITION ('external definition','', #339 ) ;
#496 = DIRECTION ( 'NONE',  ( 0.9977239943751655682, 0.06743019389015780796, -6.122512730285010186E-17 ) ) ;
#497 = EXTERNAL_SOURCE (IDENTIFIER('') ) ;
#498 = PRODUCT_DEFINITION_CONTEXT ( 'detailed design', #635, 'design' ) ;
#499 = DIRECTION ( 'NONE',  ( -5.551115123125781470E-17, -8.326672684688671588E-17, -1.000000000000000000 ) ) ;
#500 = ROLE_ASSOCIATION ( #8, #294 ) ;
#501 = DOCUMENT_TYPE ( 'geometry' ) ;
#502 = PRODUCT_DEFINITION_SHAPE ( 'NONE', 'NONE',  #780 ) ;
#503 = APPLICATION_PROTOCOL_DEFINITION ( 'draft international standard', 'automotive_design', 1998, #677 ) ;
#504 = PROPERTY_DEFINITION_REPRESENTATION ( #102, #342 ) ;
#505 = SHAPE_REPRESENTATION ( 'Hydraulic pump', ( #361, #76, #162, #565, #540, #268, #22, #720, #640, #134, #300, #348, #325, #449, #122, #736, #751, #459, #579, #398, #554, #246, #257, #62, #594 ), #136 ) ;
#506 = DOCUMENT_TYPE ( 'geometry' ) ;
#507 = SHAPE_DEFINITION_REPRESENTATION ( #541, #505 ) ;
#508 = PROPERTY_DEFINITION_REPRESENTATION ( #452, #483 ) ;
#509 = PRODUCT_DEFINITION_SHAPE ( 'NONE', 'NONE',  #786 ) ;
#510 = SHAPE_REPRESENTATION ( 'End Plate', ( #578 ), #198 ) ;
#511 =( REPRESENTATION_RELATIONSHIP ('NONE','NONE', #505, #591 ) REPRESENTATION_RELATIONSHIP_WITH_TRANSFORMATION ( #159 )SHAPE_REPRESENTATION_RELATIONSHIP( ) );
#512 = PRODUCT_CONTEXT ( 'NONE', #57, 'mechanical' ) ;
#513 = DOCUMENT_FILE ( 'PIN 4X6.STEP' , '', '', #580, '' ,$ ) ;
#514 = AXIS2_PLACEMENT_3D ( 'NONE', #598, #113, #297 ) ;
#515 = PRODUCT_DEFINITION_FORMATION_WITH_SPECIFIED_SOURCE ( 'Symmetric', '', #532, .NOT_KNOWN. ) ;
#516 = PRODUCT_DEFINITION_SHAPE ( 'NONE', 'NONE',  #787 ) ;
#517 = PRODUCT_CONTEXT ( 'NONE', #77, 'mechanical' ) ;
#518 = APPLICATION_PROTOCOL_DEFINITION ( 'draft international standard', 'automotive_design', 1998, #251 ) ;
#519 = PROPERTY_DEFINITION_REPRESENTATION ( #641, #315 ) ;
#520 = EXTERNAL_SOURCE (IDENTIFIER('') ) ;
#521 = PRODUCT_DEFINITION_SHAPE ( 'NONE', 'NONE',  #781 ) ;
#522 = CONTEXT_DEPENDENT_SHAPE_REPRESENTATION ( #15, #176 ) ;
#523 =( GEOMETRIC_REPRESENTATION_CONTEXT ( 3 ) GLOBAL_UNCERTAINTY_ASSIGNED_CONTEXT ( ( #442 ) ) GLOBAL_UNIT_ASSIGNED_CONTEXT ( ( #101, #585, #368 ) ) REPRESENTATION_CONTEXT ( 'NONE', 'WORKASPACE' ) );
#524 = IDENTIFICATION_ROLE ( 'external document id and location', $) ;
#525 = PRODUCT_DEFINITION_SHAPE ( 'NONE', 'NONE',  #767 ) ;
#526 = PRODUCT_DEFINITION_FORMATION_WITH_SPECIFIED_SOURCE ( 'Symmetric', '', #124, .NOT_KNOWN. ) ;
#527 = PROPERTY_DEFINITION_REPRESENTATION ( #456, #342 ) ;
#528 = APPLIED_DOCUMENT_REFERENCE ( #658,'',( #701) ) ;
#529 = PROPERTY_DEFINITION_REPRESENTATION ( #633, #510 ) ;
#530 = OBJECT_ROLE ('mandatory',$ ) ;
#531 = CARTESIAN_POINT ( 'NONE',  ( 1.015560707230744875, 30.29741025316572944, 38.53053521664960357 ) ) ;
#532 = PRODUCT ( 'Housing Seal', 'Housing Seal', '', ( #636 ) ) ;
#533 =( NAMED_UNIT ( * ) PLANE_ANGLE_UNIT ( ) SI_UNIT ( $, .RADIAN. ) );
#534 = APPLIED_DOCUMENT_REFERENCE ( #714,'',( #557) ) ;
#535 = DIRECTION ( 'NONE',  ( 0.000000000000000000, 0.000000000000000000, 1.000000000000000000 ) ) ;
#536 = IDENTIFICATION_ROLE ( 'external document id and location', $) ;
#537 = APPLIED_EXTERNAL_IDENTIFICATION_ASSIGNMENT ( '3. drive end plate.STEP' , #707, #350,( #714) ) ;
#538 = DIRECTION ( 'NONE',  ( 1.000000000000000000, 0.000000000000000000, 0.000000000000000000 ) ) ;
#539 = PROPERTY_DEFINITION_REPRESENTATION ( #14, #759 ) ;
#540 = AXIS2_PLACEMENT_3D ( 'NONE', #46, #292, #173 ) ;
#541 = PRODUCT_DEFINITION_SHAPE ( 'NONE', 'NONE',  #724 ) ;
#542 = APPLICATION_PROTOCOL_DEFINITION ( 'draft international standard', 'automotive_design', 1998, #310 ) ;
#543 = PROPERTY_DEFINITION_REPRESENTATION ( #139, #624 ) ;
#544 = PRODUCT_DEFINITION ( 'General', '', #88, #67 ) ;
#545 = DIRECTION ( 'NONE',  ( 1.000000000000000000, 0.000000000000000000, 0.000000000000000000 ) ) ;
#546 = DIRECTION ( 'NONE',  ( 0.000000000000000000, 0.000000000000000000, 1.000000000000000000 ) ) ;
#547 = CONTEXT_DEPENDENT_SHAPE_REPRESENTATION ( #386, #206 ) ;
#548 = PRODUCT ( 'Subassembly idle gear', 'Subassembly idle gear', '', ( #270 ) ) ;
#549 = PRODUCT_DEFINITION_CONTEXT ( 'detailed design', #567, 'design' ) ;
#550 = OBJECT_ROLE ('mandatory',$ ) ;
#551 = DIRECTION ( 'NONE',  ( 0.9940139496449467149, 0.1092532283790884767, -1.900936191549945206E-16 ) ) ;
#552 = CARTESIAN_POINT ( 'NONE',  ( 0.000000000000000000, 0.000000000000000000, 0.000000000000000000 ) ) ;
#553 = DOCUMENT_TYPE ( 'geometry' ) ;
#554 = AXIS2_PLACEMENT_3D ( 'NONE', #494, #481, #314 ) ;
#555 = DIRECTION ( 'NONE',  ( 6.102240697781856655E-17, 5.066093493820647269E-18, 1.000000000000000000 ) ) ;
#556 = DIRECTION ( 'NONE',  ( 1.000000000000000000, 0.000000000000000000, 0.000000000000000000 ) ) ;
#557 = PRODUCT_DEFINITION ( 'General', '', #212, #317 ) ;
#558 = DIRECTION ( 'NONE',  ( 0.000000000000000000, 0.000000000000000000, 1.000000000000000000 ) ) ;
#559 = ROLE_ASSOCIATION ( #276, #321 ) ;
#560 = DIRECTION ( 'NONE',  ( 0.000000000000000000, 0.000000000000000000, 1.000000000000000000 ) ) ;
#561 =( REPRESENTATION_RELATIONSHIP ('NONE','NONE', #505, #423 ) REPRESENTATION_RELATIONSHIP_WITH_TRANSFORMATION ( #711 )SHAPE_REPRESENTATION_RELATIONSHIP( ) );
#562 = PRODUCT_CONTEXT ( 'NONE', #335, 'mechanical' ) ;
#563 =( GEOMETRIC_REPRESENTATION_CONTEXT ( 3 ) GLOBAL_UNCERTAINTY_ASSIGNED_CONTEXT ( ( #112 ) ) GLOBAL_UNIT_ASSIGNED_CONTEXT ( ( #41, #708, #589 ) ) REPRESENTATION_CONTEXT ( 'NONE', 'WORKASPACE' ) );
#564 = ROLE_ASSOCIATION ( #105, #288 ) ;
#565 = AXIS2_PLACEMENT_3D ( 'NONE', #104, #56, #341 ) ;
#566 = PROPERTY_DEFINITION ('external definition','', #110 ) ;
#567 = APPLICATION_CONTEXT ( 'automotive_design' ) ;
#568 = APPLICATION_PROTOCOL_DEFINITION ( 'draft international standard', 'automotive_design', 1998, #597 ) ;
#569 = ROLE_ASSOCIATION ( #530, #455 ) ;
#570 = EXTERNAL_SOURCE (IDENTIFIER('') ) ;
#571 = SHAPE_DEFINITION_REPRESENTATION ( #347, #29 ) ;
#572 = PROPERTY_DEFINITION_REPRESENTATION ( #278, #191 ) ;
#573 = PRODUCT_DEFINITION_SHAPE ( 'NONE', 'NONE',  #779 ) ;
#574 = DOCUMENT_TYPE ( 'geometry' ) ;
#575 = SHAPE_DEFINITION_REPRESENTATION ( #663, #510 ) ;
#576 = CONTEXT_DEPENDENT_SHAPE_REPRESENTATION ( #53, #521 ) ;
#577 = APPLIED_EXTERNAL_IDENTIFICATION_ASSIGNMENT ( 'PIN 4X6.STEP' , #536, #497,( #513) ) ;
#578 = AXIS2_PLACEMENT_3D ( 'NONE', #646, #9, #109 ) ;
#579 = AXIS2_PLACEMENT_3D ( 'NONE', #369, #556, #558 ) ;
#580 = DOCUMENT_TYPE ( 'geometry' ) ;
#581 = PRODUCT_DEFINITION ( 'General', '', #52, #185 ) ;
#582 = PRODUCT_DEFINITION_SHAPE ( 'NONE', 'NONE',  #788 ) ;
#583 = APPLICATION_PROTOCOL_DEFINITION ( 'draft international standard', 'automotive_design', 1998, #453 ) ;
#584 = APPLIED_DOCUMENT_REFERENCE ( #155,'',( #286) ) ;
#585 =( NAMED_UNIT ( * ) PLANE_ANGLE_UNIT ( ) SI_UNIT ( $, .RADIAN. ) );
#586 = PROPERTY_DEFINITION_REPRESENTATION ( #115, #315 ) ;
#587 = IDENTIFICATION_ROLE ( 'external document id and location', $) ;
#588 = APPLICATION_PROTOCOL_DEFINITION ( 'draft international standard', 'automotive_design', 1998, #77 ) ;
#589 =( NAMED_UNIT ( * ) SI_UNIT ( $, .STERADIAN. ) SOLID_ANGLE_UNIT ( ) );
#590 = PROPERTY_DEFINITION_REPRESENTATION ( #752, #423 ) ;
#591 = SHAPE_REPRESENTATION ( 'PIN 4X6', ( #245 ), #474 ) ;
#592 = OBJECT_ROLE ('mandatory',$ ) ;
#593 = PRODUCT ( 'Nipple', 'Nipple', '', ( #147 ) ) ;
#594 = AXIS2_PLACEMENT_3D ( 'NONE', #377, #318, #488 ) ;
#595 = CONTEXT_DEPENDENT_SHAPE_REPRESENTATION ( #301, #615 ) ;
#596 = PRODUCT_RELATED_PRODUCT_CATEGORY ( 'part', '', ( #548 ) ) ;
#597 = APPLICATION_CONTEXT ( 'automotive_design' ) ;
#598 = CARTESIAN_POINT ( 'NONE',  ( 0.000000000000000000, 0.000000000000000000, 0.000000000000000000 ) ) ;
#599 = IDENTIFICATION_ROLE ( 'external document id and location', $) ;
#600 =( NAMED_UNIT ( * ) PLANE_ANGLE_UNIT ( ) SI_UNIT ( $, .RADIAN. ) );
#601 = ITEM_DEFINED_TRANSFORMATION ( 'NONE', 'NONE', #257,  #397 ) ;
#602 = PROPERTY_DEFINITION ('external definition','', #184 ) ;
#603 = DIRECTION ( 'NONE',  ( 1.000000000000000000, 0.000000000000000000, 0.000000000000000000 ) ) ;
#604 = ROLE_ASSOCIATION ( #392, #716 ) ;
#605 = APPLIED_EXTERNAL_IDENTIFICATION_ASSIGNMENT ( 'Housing Seal.STEP' , #366, #755,( #254) ) ;
#606 = ITEM_DEFINED_TRANSFORMATION ( 'NONE', 'NONE', #22,  #607 ) ;
#607 = AXIS2_PLACEMENT_3D ( 'NONE', #467, #415, #277 ) ;
#608 = PRODUCT_DEFINITION_FORMATION_WITH_SPECIFIED_SOURCE ( 'Symmetric', '', #622, .NOT_KNOWN. ) ;
#609 = IDENTIFICATION_ROLE ( 'external document id and location', $) ;
#610 = PRODUCT ( 'PIN 2X4', 'PIN 2X4', '', ( #388 ) ) ;
#611 = CONTEXT_DEPENDENT_SHAPE_REPRESENTATION ( #411, #416 ) ;
#612 = CARTESIAN_POINT ( 'NONE',  ( 45.51556070723073333, 30.29741025316572944, 38.53053521664959646 ) ) ;
#613 = DOCUMENT_TYPE ( 'geometry' ) ;
#614 = ROLE_ASSOCIATION ( #45, #127 ) ;
#615 = PRODUCT_DEFINITION_SHAPE ( 'NONE', 'NONE',  #789 ) ;
#616 = SHAPE_REPRESENTATION ( 'Body', ( #410 ), #75 ) ;
#617 = IDENTIFICATION_ROLE ( 'external document id and location', $) ;
#618 = CONTEXT_DEPENDENT_SHAPE_REPRESENTATION ( #628, #250 ) ;
#619 = AXIS2_PLACEMENT_3D ( 'NONE', #351, #420, #188 ) ;
#620 = DIRECTION ( 'NONE',  ( -0.9999999999999998890, 1.110223024625156540E-16, 1.942890293094022960E-16 ) ) ;
#621 = CARTESIAN_POINT ( 'NONE',  ( 0.000000000000000000, 0.000000000000000000, 0.000000000000000000 ) ) ;
#622 = PRODUCT ( 'Sub Assembly leg sleeve', 'Sub Assembly leg sleeve', '', ( #512 ) ) ;
#623 = ITEM_DEFINED_TRANSFORMATION ( 'NONE', 'NONE', #134,  #514 ) ;
#624 = SHAPE_REPRESENTATION ( 'Housing Seal', ( #108 ), #631 ) ;
#625 = EXTERNAL_SOURCE (IDENTIFIER('') ) ;
#626 = DIRECTION ( 'NONE',  ( 1.000000000000000000, 8.787782420400976706E-34, -9.973979239802401979E-17 ) ) ;
#627 = APPLICATION_PROTOCOL_DEFINITION ( 'draft international standard', 'automotive_design', 1998, #2 ) ;
#628 =( REPRESENTATION_RELATIONSHIP ('NONE','NONE', #505, #624 ) REPRESENTATION_RELATIONSHIP_WITH_TRANSFORMATION ( #201 )SHAPE_REPRESENTATION_RELATIONSHIP( ) );
#629 = APPLICATION_PROTOCOL_DEFINITION ( 'draft international standard', 'automotive_design', 1998, #567 ) ;
#630 = DOCUMENT_FILE ( 'Housing Seal.STEP' , '', '', #25, '' ,$ ) ;
#631 =( GEOMETRIC_REPRESENTATION_CONTEXT ( 3 ) GLOBAL_UNCERTAINTY_ASSIGNED_CONTEXT ( ( #219 ) ) GLOBAL_UNIT_ASSIGNED_CONTEXT ( ( #65, #414, #371 ) ) REPRESENTATION_CONTEXT ( 'NONE', 'WORKASPACE' ) );
#632 =( REPRESENTATION_RELATIONSHIP ('NONE','NONE', #505, #483 ) REPRESENTATION_RELATIONSHIP_WITH_TRANSFORMATION ( #757 )SHAPE_REPRESENTATION_RELATIONSHIP( ) );
#633 = PROPERTY_DEFINITION ('document property','', #110 ) ;
#634 = CONTEXT_DEPENDENT_SHAPE_REPRESENTATION ( #687, #650 ) ;
#635 = APPLICATION_CONTEXT ( 'automotive_design' ) ;
#636 = PRODUCT_CONTEXT ( 'NONE', #2, 'mechanical' ) ;
#637 = ITEM_DEFINED_TRANSFORMATION ( 'NONE', 'NONE', #459,  #578 ) ;
#638 = PRODUCT_DEFINITION_SHAPE ( 'NONE', 'NONE',  #777 ) ;
#639 = UNCERTAINTY_MEASURE_WITH_UNIT (LENGTH_MEASURE( 1.000000000000000082E-05 ), #37, 'distance_accuracy_value', 'NONE');
#640 = AXIS2_PLACEMENT_3D ( 'NONE', #81, #679, #667 ) ;
#641 = PROPERTY_DEFINITION ('document property','', #263 ) ;
#642 = ITEM_DEFINED_TRANSFORMATION ( 'NONE', 'NONE', #162,  #21 ) ;
#643 = ROLE_ASSOCIATION ( #592, #394 ) ;
#644 = EXTERNAL_SOURCE (IDENTIFIER('') ) ;
#645 = CARTESIAN_POINT ( 'NONE',  ( 45.51556070723073333, 75.29741025316572234, 62.53053521664959646 ) ) ;
#646 = CARTESIAN_POINT ( 'NONE',  ( 0.000000000000000000, 0.000000000000000000, 0.000000000000000000 ) ) ;
#647 = DOCUMENT_FILE ( 'PIN 4X6.STEP' , '', '', #290, '' ,$ ) ;
#648 = PROPERTY_DEFINITION_REPRESENTATION ( #465, #423 ) ;
#649 = DOCUMENT_TYPE ( 'geometry' ) ;
#650 = PRODUCT_DEFINITION_SHAPE ( 'NONE', 'NONE',  #778 ) ;
#651 = DOCUMENT_TYPE ( 'geometry' ) ;
#652 =( LENGTH_UNIT ( ) NAMED_UNIT ( * ) SI_UNIT ( .MILLI., .METRE. ) );
#653 = PROPERTY_DEFINITION_REPRESENTATION ( #765, #423 ) ;
#654 = DOCUMENT_FILE ( 'PIN 2X4.STEP' , '', '', #209, '' ,$ ) ;
#655 = PRODUCT_DEFINITION_SHAPE ( 'NONE', 'NONE',  #557 ) ;
#656 = PROPERTY_DEFINITION_REPRESENTATION ( #721, #591 ) ;
#657 = IDENTIFICATION_ROLE ( 'external document id and location', $) ;
#658 = DOCUMENT_FILE ( 'socket head cap screw_iso_ISO 4762 M12 x 80 - 36N.STEP' , '', '', #271, '' ,$ ) ;
#659 = DIRECTION ( 'NONE',  ( -5.736230757937066107E-17, 1.000000000000000000, 3.883441451827829259E-17 ) ) ;
#660 = CONTEXT_DEPENDENT_SHAPE_REPRESENTATION ( #222, #709 ) ;
#661 =( REPRESENTATION_RELATIONSHIP ('NONE','NONE', #505, #759 ) REPRESENTATION_RELATIONSHIP_WITH_TRANSFORMATION ( #375 )SHAPE_REPRESENTATION_RELATIONSHIP( ) );
#662 = DIRECTION ( 'NONE',  ( 1.000000000000000000, 0.000000000000000000, 0.000000000000000000 ) ) ;
#663 = PRODUCT_DEFINITION_SHAPE ( 'NONE', 'NONE',  #182 ) ;
#664 = CONTEXT_DEPENDENT_SHAPE_REPRESENTATION ( #217, #194 ) ;
#665 = CARTESIAN_POINT ( 'NONE',  ( 0.000000000000000000, 0.000000000000000000, 0.000000000000000000 ) ) ;
#666 = PROPERTY_DEFINITION_REPRESENTATION ( #153, #29 ) ;
#667 = DIRECTION ( 'NONE',  ( 1.000000000000000000, 0.000000000000000000, 0.000000000000000000 ) ) ;
#668 = PROPERTY_DEFINITION_REPRESENTATION ( #602, #759 ) ;
#669 = PRODUCT_DEFINITION_FORMATION_WITH_SPECIFIED_SOURCE ( 'Symmetric', '', #548, .NOT_KNOWN. ) ;
#670 = PRODUCT_DEFINITION_CONTEXT ( 'detailed design', #38, 'design' ) ;
#671 = PROPERTY_DEFINITION ('document property','', #184 ) ;
#672 = DIRECTION ( 'NONE',  ( 5.736230757937066107E-17, -1.000000000000000000, 3.883441451827829259E-17 ) ) ;
#673 =( REPRESENTATION_RELATIONSHIP ('NONE','NONE', #505, #423 ) REPRESENTATION_RELATIONSHIP_WITH_TRANSFORMATION ( #340 )SHAPE_REPRESENTATION_RELATIONSHIP( ) );
#674 = DIRECTION ( 'NONE',  ( 1.000000000000000000, 0.000000000000000000, 0.000000000000000000 ) ) ;
#675 =( NAMED_UNIT ( * ) PLANE_ANGLE_UNIT ( ) SI_UNIT ( $, .RADIAN. ) );
#676 = PRODUCT_DEFINITION_SHAPE ( 'NONE', 'NONE',  #701 ) ;
#677 = APPLICATION_CONTEXT ( 'automotive_design' ) ;
#678 = PRODUCT_DEFINITION_CONTEXT ( 'detailed design', #764, 'design' ) ;
#679 = DIRECTION ( 'NONE',  ( 0.000000000000000000, 0.000000000000000000, 1.000000000000000000 ) ) ;
#680 = PROPERTY_DEFINITION_REPRESENTATION ( #17, #315 ) ;
#681 = DIRECTION ( 'NONE',  ( 1.000000000000000000, 0.000000000000000000, 0.000000000000000000 ) ) ;
#682 = APPLIED_EXTERNAL_IDENTIFICATION_ASSIGNMENT ( 'Sub Assembly leg sleeve.STEP' , #609, #409,( #458) ) ;
#683 = DOCUMENT_TYPE ( 'geometry' ) ;
#684 = PROPERTY_DEFINITION ('external definition','', #305 ) ;
#685 = PROPERTY_DEFINITION ('document property','', #254 ) ;
#686 = PRODUCT_CONTEXT ( 'NONE', #243, 'mechanical' ) ;
#687 =( REPRESENTATION_RELATIONSHIP ('NONE','NONE', #505, #624 ) REPRESENTATION_RELATIONSHIP_WITH_TRANSFORMATION ( #441 )SHAPE_REPRESENTATION_RELATIONSHIP( ) );
#688 = PRODUCT_RELATED_PRODUCT_CATEGORY ( 'part', '', ( #12 ) ) ;
#689 = PROPERTY_DEFINITION ('external definition','', #647 ) ;
#690 = ROLE_ASSOCIATION ( #195, #334 ) ;
#691 = EXTERNAL_SOURCE (IDENTIFIER('') ) ;
#692 = CARTESIAN_POINT ( 'NONE',  ( 0.000000000000000000, 0.000000000000000000, 0.000000000000000000 ) ) ;
#693 = PROPERTY_DEFINITION_REPRESENTATION ( #390, #315 ) ;
#694 = PRODUCT_DEFINITION_FORMATION_WITH_SPECIFIED_SOURCE ( 'Symmetric', '', #130, .NOT_KNOWN. ) ;
#695 = APPLIED_EXTERNAL_IDENTIFICATION_ASSIGNMENT ( 'Sub Assembly leg sleeve.STEP' , #443, #364,( #226) ) ;
#696 = PROPERTY_DEFINITION ('document property','', #345 ) ;
#697 = PRODUCT_CONTEXT ( 'NONE', #251, 'mechanical' ) ;
#698 = ROLE_ASSOCIATION ( #200, #215 ) ;
#699 = DOCUMENT_TYPE ( 'geometry' ) ;
#700 = PROPERTY_DEFINITION_REPRESENTATION ( #401, #624 ) ;
#701 = PRODUCT_DEFINITION ( 'General', '', #424, #365 ) ;
#702 =( REPRESENTATION_RELATIONSHIP ('NONE','NONE', #505, #591 ) REPRESENTATION_RELATIONSHIP_WITH_TRANSFORMATION ( #31 )SHAPE_REPRESENTATION_RELATIONSHIP( ) );
#703 = PROPERTY_DEFINITION ('document property','', #432 ) ;
#704 = ROLE_ASSOCIATION ( #471, #457 ) ;
#705 = ROLE_ASSOCIATION ( #128, #259 ) ;
#706 = APPLICATION_CONTEXT ( 'automotive_design' ) ;
#707 = IDENTIFICATION_ROLE ( 'external document id and location', $) ;
#708 =( NAMED_UNIT ( * ) PLANE_ANGLE_UNIT ( ) SI_UNIT ( $, .RADIAN. ) );
#709 = PRODUCT_DEFINITION_SHAPE ( 'NONE', 'NONE',  #784 ) ;
#710 = ROLE_ASSOCIATION ( #735, #283 ) ;
#711 = ITEM_DEFINED_TRANSFORMATION ( 'NONE', 'NONE', #554,  #514 ) ;
#712 =( LENGTH_UNIT ( ) NAMED_UNIT ( * ) SI_UNIT ( .MILLI., .METRE. ) );
#713 = EXTERNAL_SOURCE (IDENTIFIER('') ) ;
#714 = DOCUMENT_FILE ( '3. drive end plate.STEP' , '', '', #501, '' ,$ ) ;
#715 = PRODUCT_DEFINITION_SHAPE ( 'NONE', 'NONE',  #544 ) ;
#716 = APPLIED_DOCUMENT_REFERENCE ( #472,'',( #260) ) ;
#717 = APPLICATION_CONTEXT ( 'automotive_design' ) ;
#718 =( LENGTH_UNIT ( ) NAMED_UNIT ( * ) SI_UNIT ( .MILLI., .METRE. ) );
#719 = APPLIED_EXTERNAL_IDENTIFICATION_ASSIGNMENT ( 'Nipple.STEP' , #524, #746,( #184) ) ;
#720 = AXIS2_PLACEMENT_3D ( 'NONE', #612, #428, #674 ) ;
#721 = PROPERTY_DEFINITION ('document property','', #513 ) ;
#722 = APPLIED_EXTERNAL_IDENTIFICATION_ASSIGNMENT ( 'socket head cap screw_iso_ISO 4762 M12 x 80 - 36N.STEP' , #493, #91,( #432) ) ;
#723 = PROPERTY_DEFINITION_REPRESENTATION ( #85, #423 ) ;
#724 = PRODUCT_DEFINITION ( 'General', '', #694, #433 ) ;
#725 = CARTESIAN_POINT ( 'NONE',  ( 0.000000000000000000, 0.000000000000000000, 0.000000000000000000 ) ) ;
#726 = CONTEXT_DEPENDENT_SHAPE_REPRESENTATION ( #561, #509 ) ;
#727 = UNCERTAINTY_MEASURE_WITH_UNIT (LENGTH_MEASURE( 1.000000000000000082E-05 ), #405, 'distance_accuracy_value', 'NONE');
#728 = CARTESIAN_POINT ( 'NONE',  ( 36.08813630664858607, 36.42204772999824058, 41.25030343461967419 ) ) ;
#729 = PRODUCT ( 'Body', 'Body', '', ( #562 ) ) ;
#730 = APPLIED_DOCUMENT_REFERENCE ( #513,'',( #482) ) ;
#731 = IDENTIFICATION_ROLE ( 'external document id and location', $) ;
#732 = CARTESIAN_POINT ( 'NONE',  ( 45.51556070723073333, 30.29741025316574365, 11.33053521664959717 ) ) ;
#733 = PROPERTY_DEFINITION_REPRESENTATION ( #703, #423 ) ;
#734 = APPLIED_DOCUMENT_REFERENCE ( #345,'',( #402) ) ;
#735 = OBJECT_ROLE ('mandatory',$ ) ;
#736 = AXIS2_PLACEMENT_3D ( 'NONE', #13, #187, #68 ) ;
#737 = PRODUCT_DEFINITION_CONTEXT ( 'detailed design', #597, 'design' ) ;
#738 = PROPERTY_DEFINITION ('external definition','', #226 ) ;
#739 = DIRECTION ( 'NONE',  ( 0.9995480662491247337, -0.03006099229292616415, 1.324036033228578363E-16 ) ) ;
#740 = DIRECTION ( 'NONE',  ( 1.000000000000000000, 0.000000000000000000, 0.000000000000000000 ) ) ;
#741 = PRODUCT_RELATED_PRODUCT_CATEGORY ( 'part', '', ( #285 ) ) ;
#742 = CARTESIAN_POINT ( 'NONE',  ( 45.51556070723069780, 15.55355509527644031, 38.03053521664960357 ) ) ;
#743 = IDENTIFICATION_ROLE ( 'external document id and location', $) ;
#744 = ROLE_ASSOCIATION ( #418, #421 ) ;
#745 = CARTESIAN_POINT ( 'NONE',  ( 45.51556070723072622, 45.53651025316574419, 83.23053521664961352 ) ) ;
#746 = EXTERNAL_SOURCE (IDENTIFIER('') ) ;
#747 = PROPERTY_DEFINITION_REPRESENTATION ( #689, #591 ) ;
#748 =( NAMED_UNIT ( * ) SI_UNIT ( $, .STERADIAN. ) SOLID_ANGLE_UNIT ( ) );
#749 = APPLICATION_PROTOCOL_DEFINITION ( 'draft international standard', 'automotive_design', 1998, #281 ) ;
#750 =( GEOMETRIC_REPRESENTATION_CONTEXT ( 3 ) GLOBAL_UNCERTAINTY_ASSIGNED_CONTEXT ( ( #727 ) ) GLOBAL_UNIT_ASSIGNED_CONTEXT ( ( #405, #475, #408 ) ) REPRESENTATION_CONTEXT ( 'NONE', 'WORKASPACE' ) );
#751 = AXIS2_PLACEMENT_3D ( 'NONE', #193, #242, #422 ) ;
#752 = PROPERTY_DEFINITION ('external definition','', #58 ) ;
#753 = DOCUMENT_TYPE ( 'geometry' ) ;
#754 = DIRECTION ( 'NONE',  ( 0.000000000000000000, 0.000000000000000000, 1.000000000000000000 ) ) ;
#755 = EXTERNAL_SOURCE (IDENTIFIER('') ) ;
#756 = APPLICATION_PROTOCOL_DEFINITION ( 'draft international standard', 'automotive_design', 1998, #706 ) ;
#757 = ITEM_DEFINED_TRANSFORMATION ( 'NONE', 'NONE', #122,  #135 ) ;
#758 = PROPERTY_DEFINITION ('external definition','', #762 ) ;
#759 = SHAPE_REPRESENTATION ( 'Nipple', ( #460 ), #51 ) ;
#760 = APPLICATION_PROTOCOL_DEFINITION ( 'draft international standard', 'automotive_design', 1998, #346 ) ;
#761 = IDENTIFICATION_ROLE ( 'external document id and location', $) ;
#762 = DOCUMENT_FILE ( 'PIN 4X6.STEP' , '', '', #186, '' ,$ ) ;
#763 = PRODUCT_DEFINITION_FORMATION_WITH_SPECIFIED_SOURCE ( 'Symmetric', '', #610, .NOT_KNOWN. ) ;
#764 = APPLICATION_CONTEXT ( 'automotive_design' ) ;
#765 = PROPERTY_DEFINITION ('external definition','', #658 ) ;
#766 = PRODUCT_RELATED_PRODUCT_CATEGORY ( 'part', '', ( #124 ) ) ;
#767 = NEXT_ASSEMBLY_USAGE_OCCURRENCE ( 'NAUO7', ' ', ' ', #724, #482, $ ) ;
#768 = NEXT_ASSEMBLY_USAGE_OCCURRENCE ( 'NAUO8', ' ', ' ', #724, #18, $ ) ;
#769 = NEXT_ASSEMBLY_USAGE_OCCURRENCE ( 'NAUO9', ' ', ' ', #724, #18, $ ) ;
#770 = NEXT_ASSEMBLY_USAGE_OCCURRENCE ( 'NAUO10', ' ', ' ', #724, #482, $ ) ;
#771 = NEXT_ASSEMBLY_USAGE_OCCURRENCE ( 'NAUO11', ' ', ' ', #724, #260, $ ) ;
#772 = NEXT_ASSEMBLY_USAGE_OCCURRENCE ( 'NAUO12', ' ', ' ', #724, #402, $ ) ;
#773 = NEXT_ASSEMBLY_USAGE_OCCURRENCE ( 'NAUO13', ' ', ' ', #724, #544, $ ) ;
#774 = NEXT_ASSEMBLY_USAGE_OCCURRENCE ( 'NAUO14', ' ', ' ', #724, #482, $ ) ;
#775 = NEXT_ASSEMBLY_USAGE_OCCURRENCE ( 'NAUO15', ' ', ' ', #724, #701, $ ) ;
#776 = NEXT_ASSEMBLY_USAGE_OCCURRENCE ( 'NAUO16', ' ', ' ', #724, #18, $ ) ;
#777 = NEXT_ASSEMBLY_USAGE_OCCURRENCE ( 'NAUO17', ' ', ' ', #724, #18, $ ) ;
#778 = NEXT_ASSEMBLY_USAGE_OCCURRENCE ( 'NAUO18', ' ', ' ', #724, #312, $ ) ;
#779 = NEXT_ASSEMBLY_USAGE_OCCURRENCE ( 'NAUO19', ' ', ' ', #724, #402, $ ) ;
#780 = NEXT_ASSEMBLY_USAGE_OCCURRENCE ( 'NAUO20', ' ', ' ', #724, #286, $ ) ;
#781 = NEXT_ASSEMBLY_USAGE_OCCURRENCE ( 'NAUO21', ' ', ' ', #724, #273, $ ) ;
#782 = NEXT_ASSEMBLY_USAGE_OCCURRENCE ( 'NAUO22', ' ', ' ', #724, #482, $ ) ;
#783 = NEXT_ASSEMBLY_USAGE_OCCURRENCE ( 'NAUO23', ' ', ' ', #724, #182, $ ) ;
#784 = NEXT_ASSEMBLY_USAGE_OCCURRENCE ( 'NAUO24', ' ', ' ', #724, #701, $ ) ;
#785 = NEXT_ASSEMBLY_USAGE_OCCURRENCE ( 'NAUO25', ' ', ' ', #724, #701, $ ) ;
#786 = NEXT_ASSEMBLY_USAGE_OCCURRENCE ( 'NAUO26', ' ', ' ', #724, #701, $ ) ;
#787 = NEXT_ASSEMBLY_USAGE_OCCURRENCE ( 'NAUO27', ' ', ' ', #724, #581, $ ) ;
#788 = NEXT_ASSEMBLY_USAGE_OCCURRENCE ( 'NAUO28', ' ', ' ', #724, #557, $ ) ;
#789 = NEXT_ASSEMBLY_USAGE_OCCURRENCE ( 'NAUO29', ' ', ' ', #724, #260, $ ) ;
#790 = NEXT_ASSEMBLY_USAGE_OCCURRENCE ( 'NAUO30', ' ', ' ', #724, #312, $ ) ;
ENDSEC;
END-ISO-10303-21;
