ISO-10303-21;
HEADER;
FILE_DESCRIPTION (( 'STEP AP214' ),
    '1' );
FILE_NAME ('Oil Seal.STEP',
    '2024-11-24T17:15:08',
    ( '' ),
    ( '' ),
    'SwSTEP 2.0',
    'SolidWorks 2024',
    '' );
FILE_SCHEMA (( 'AUTOMOTIVE_DESIGN' ));
ENDSEC;

DATA;
#1 = DIRECTION ( 'NONE',  ( 0.000000000000000000, 0.000000000000000000, -1.000000000000000000 ) ) ;
#2 = ORIENTED_EDGE ( 'NONE', *, *, #181, .F. ) ;
#3 = VECTOR ( 'NONE', #282, 999.9999999999998863 ) ;
#4 = TOROIDAL_SURFACE ( 'NONE', #148, 10.80000000000000071, 0.8010827148951775722 ) ;
#5 = ORIENTED_EDGE ( 'NONE', *, *, #87, .F. ) ;
#6 = DIRECTION ( 'NONE',  ( 1.000000000000000000, 0.000000000000000000, 0.000000000000000000 ) ) ;
#7 = DIRECTION ( 'NONE',  ( -1.000000000000000000, -0.000000000000000000, -0.000000000000000000 ) ) ;
#8 = AXIS2_PLACEMENT_3D ( 'NONE', #154, #7, #12 ) ;
#9 = EDGE_CURVE ( 'NONE', #542, #549, #541, .T. ) ;
#10 = ORIENTED_EDGE ( 'NONE', *, *, #327, .T. ) ;
#11 = DIRECTION ( 'NONE',  ( 0.000000000000000000, 0.000000000000000000, 1.000000000000000000 ) ) ;
#12 = DIRECTION ( 'NONE',  ( 0.000000000000000000, 0.000000000000000000, 1.000000000000000000 ) ) ;
#13 = ORIENTED_EDGE ( 'NONE', *, *, #209, .F. ) ;
#14 = DIRECTION ( 'NONE',  ( -1.000000000000000000, -0.000000000000000000, -0.000000000000000000 ) ) ;
#15 =( NAMED_UNIT ( * ) PLANE_ANGLE_UNIT ( ) SI_UNIT ( $, .RADIAN. ) );
#16 = AXIS2_PLACEMENT_3D ( 'NONE', #522, #142, #311 ) ;
#17 = CARTESIAN_POINT ( 'NONE',  ( 7.000000000000000000, 1.751244922780715104E-15, -14.30000000000000071 ) ) ;
#18 = DIRECTION ( 'NONE',  ( 1.000000000000000000, 0.000000000000000000, 0.000000000000000000 ) ) ;
#19 = EDGE_CURVE ( 'NONE', #149, #431, #472, .T. ) ;
#20 = AXIS2_PLACEMENT_3D ( 'NONE', #361, #443, #60 ) ;
#21 = DIRECTION ( 'NONE',  ( -1.000000000000000000, -0.000000000000000000, -0.000000000000000000 ) ) ;
#22 = CARTESIAN_POINT ( 'NONE',  ( 3.498917285104822472, 0.000000000000000000, 9.300000000000000711 ) ) ;
#23 = DIRECTION ( 'NONE',  ( -1.000000000000000000, -0.000000000000000000, -0.000000000000000000 ) ) ;
#24 = CIRCLE ( 'NONE', #337, 10.80000000000000071 ) ;
#25 = CARTESIAN_POINT ( 'NONE',  ( 6.500000000000000888, 0.000000000000000000, 0.000000000000000000 ) ) ;
#26 = CIRCLE ( 'NONE', #175, 10.79999999999999893 ) ;
#27 = EDGE_CURVE ( 'NONE', #549, #542, #48, .T. ) ;
#28 = DIRECTION ( 'NONE',  ( -1.000000000000000000, -0.000000000000000000, -0.000000000000000000 ) ) ;
#29 = ORIENTED_EDGE ( 'NONE', *, *, #116, .T. ) ;
#30 = DIRECTION ( 'NONE',  ( 0.000000000000000000, 0.000000000000000000, -1.000000000000000000 ) ) ;
#31 = CONICAL_SURFACE ( 'NONE', #345, 9.300000000000000711, 0.4631068371077714518 ) ;
#32 = FACE_OUTER_BOUND ( 'NONE', #286, .T. ) ;
#33 = CIRCLE ( 'NONE', #482, 10.79999999999999893 ) ;
#34 = EDGE_LOOP ( 'NONE', ( #50, #103 ) ) ;
#35 = EDGE_CURVE ( 'NONE', #266, #315, #502, .T. ) ;
#36 = LINE ( 'NONE', #553, #367 ) ;
#37 = CONICAL_SURFACE ( 'NONE', #426, 8.500000000000000000, 0.5194794516146490349 ) ;
#38 = ORIENTED_EDGE ( 'NONE', *, *, #289, .T. ) ;
#39 = DIRECTION ( 'NONE',  ( -1.000000000000000000, -0.000000000000000000, -0.000000000000000000 ) ) ;
#40 = ORIENTED_EDGE ( 'NONE', *, *, #194, .T. ) ;
#41 = FACE_OUTER_BOUND ( 'NONE', #155, .T. ) ;
#42 = AXIS2_PLACEMENT_3D ( 'NONE', #73, #326, #536 ) ;
#43 = AXIS2_PLACEMENT_3D ( 'NONE', #464, #89, #1 ) ;
#44 = VECTOR ( 'NONE', #145, 999.9999999999998863 ) ;
#45 = EDGE_CURVE ( 'NONE', #261, #149, #77, .T. ) ;
#46 = CARTESIAN_POINT ( 'NONE',  ( 3.498917285104822472, 0.000000000000000000, 9.300000000000000711 ) ) ;
#47 = ORIENTED_EDGE ( 'NONE', *, *, #394, .F. ) ;
#48 = CIRCLE ( 'NONE', #199, 14.30000000000000071 ) ;
#49 = CARTESIAN_POINT ( 'NONE',  ( 5.101082714895177617, 0.000000000000000000, 0.000000000000000000 ) ) ;
#50 = ORIENTED_EDGE ( 'NONE', *, *, #513, .T. ) ;
#51 = ORIENTED_EDGE ( 'NONE', *, *, #453, .T. ) ;
#52 = CYLINDRICAL_SURFACE ( 'NONE', #314, 14.30000000000000071 ) ;
#53 = CYLINDRICAL_SURFACE ( 'NONE', #16, 10.80000000000000071 ) ;
#54 = EDGE_CURVE ( 'NONE', #214, #212, #322, .T. ) ;
#55 = STYLED_ITEM ( 'NONE', ( #487 ), #111 ) ;
#56 = CARTESIAN_POINT ( 'NONE',  ( -3.851859888774471706E-31, 0.000000000000000000, 14.30000000000000071 ) ) ;
#57 = FACE_OUTER_BOUND ( 'NONE', #82, .T. ) ;
#58 = CIRCLE ( 'NONE', #321, 9.300000000000000711 ) ;
#59 = DIRECTION ( 'NONE',  ( -1.000000000000000000, -0.000000000000000000, -0.000000000000000000 ) ) ;
#60 = DIRECTION ( 'NONE',  ( 0.000000000000000000, 0.000000000000000000, 1.000000000000000000 ) ) ;
#61 = ORIENTED_EDGE ( 'NONE', *, *, #387, .T. ) ;
#62 = DIRECTION ( 'NONE',  ( -0.000000000000000000, 0.000000000000000000, 1.000000000000000000 ) ) ;
#63 = ADVANCED_FACE ( 'NONE', ( #57 ), #37, .F. ) ;
#64 = CARTESIAN_POINT ( 'NONE',  ( 3.498917285104822472, 0.000000000000000000, 0.000000000000000000 ) ) ;
#65 = CIRCLE ( 'NONE', #448, 14.30000000000000071 ) ;
#66 = CARTESIAN_POINT ( 'NONE',  ( 5.101082714895177617, 0.000000000000000000, 0.000000000000000000 ) ) ;
#67 = PRODUCT ( 'Oil Seal', 'Oil Seal', '', ( #249 ) ) ;
#68 = DIRECTION ( 'NONE',  ( 0.000000000000000000, 0.000000000000000000, 1.000000000000000000 ) ) ;
#69 = CYLINDRICAL_SURFACE ( 'NONE', #42, 13.29999999999999893 ) ;
#70 = ORIENTED_EDGE ( 'NONE', *, *, #109, .T. ) ;
#71 = ADVANCED_FACE ( 'NONE', ( #317 ), #156, .T. ) ;
#72 = CYLINDRICAL_SURFACE ( 'NONE', #458, 10.80000000000000071 ) ;
#73 = CARTESIAN_POINT ( 'NONE',  ( 0.000000000000000000, 0.000000000000000000, 0.000000000000000000 ) ) ;
#74 = PRODUCT_DEFINITION_FORMATION_WITH_SPECIFIED_SOURCE ( 'Symmetric', '', #67, .NOT_KNOWN. ) ;
#75 = ORIENTED_EDGE ( 'NONE', *, *, #327, .F. ) ;
#76 = LINE ( 'NONE', #462, #330 ) ;
#77 = CIRCLE ( 'NONE', #332, 10.79999999999999716 ) ;
#78 = VERTEX_POINT ( 'NONE', #398 ) ;
#79 = DIRECTION ( 'NONE',  ( -1.000000000000000000, -0.000000000000000000, -0.000000000000000000 ) ) ;
#80 = CIRCLE ( 'NONE', #251, 14.30000000000000071 ) ;
#81 = CARTESIAN_POINT ( 'NONE',  ( 5.101082714895177617, 0.000000000000000000, 8.500000000000000000 ) ) ;
#82 = EDGE_LOOP ( 'NONE', ( #493, #439, #520, #329 ) ) ;
#83 = DIRECTION ( 'NONE',  ( -1.000000000000000000, -0.000000000000000000, -0.000000000000000000 ) ) ;
#84 = EDGE_LOOP ( 'NONE', ( #2, #504, #255, #532 ) ) ;
#85 = DIRECTION ( 'NONE',  ( 0.000000000000000000, 0.000000000000000000, 1.000000000000000000 ) ) ;
#86 = VERTEX_POINT ( 'NONE', #491 ) ;
#87 = EDGE_CURVE ( 'NONE', #226, #381, #256, .T. ) ;
#88 = PRODUCT_DEFINITION_CONTEXT ( 'detailed design', #170, 'design' ) ;
#89 = DIRECTION ( 'NONE',  ( 0.000000000000000000, -1.000000000000000000, 0.000000000000000000 ) ) ;
#90 = AXIS2_PLACEMENT_3D ( 'NONE', #167, #420, #30 ) ;
#91 = CARTESIAN_POINT ( 'NONE',  ( 0.000000000000000000, 1.322618543079141099E-15, -10.79999999999999716 ) ) ;
#92 = COLOUR_RGB ( '',0.7921568627450980005, 0.8196078431372548767, 0.9333333333333333481 ) ;
#93 = CARTESIAN_POINT ( 'NONE',  ( 6.180829510524015237E-16, 1.138921523207038574E-15, -9.300000000000000711 ) ) ;
#94 = EDGE_LOOP ( 'NONE', ( #13, #546 ) ) ;
#95 = DIRECTION ( 'NONE',  ( 0.000000000000000000, 0.000000000000000000, 1.000000000000000000 ) ) ;
#96 = EDGE_CURVE ( 'NONE', #118, #178, #58, .T. ) ;
#97 = EDGE_LOOP ( 'NONE', ( #558, #307, #135, #271 ) ) ;
#98 = DIRECTION ( 'NONE',  ( 0.000000000000000000, 0.000000000000000000, 1.000000000000000000 ) ) ;
#99 = DIRECTION ( 'NONE',  ( -1.000000000000000000, -0.000000000000000000, -0.000000000000000000 ) ) ;
#100 = PRESENTATION_LAYER_ASSIGNMENT (  '', '', ( #55 ) ) ;
#101 = CIRCLE ( 'NONE', #113, 8.500000000000000000 ) ;
#102 = CIRCLE ( 'NONE', #451, 10.80000000000000249 ) ;
#103 = ORIENTED_EDGE ( 'NONE', *, *, #247, .T. ) ;
#104 = CARTESIAN_POINT ( 'NONE',  ( 1.000000000000000444, 1.628780242865979758E-15, -13.29999999999999893 ) ) ;
#105 = SURFACE_STYLE_USAGE ( .BOTH. , #353 ) ;
#106 = ORIENTED_EDGE ( 'NONE', *, *, #310, .F. ) ;
#107 = PLANE ( 'NONE',  #517 ) ;
#108 =( NAMED_UNIT ( * ) SI_UNIT ( $, .STERADIAN. ) SOLID_ANGLE_UNIT ( ) );
#109 = EDGE_CURVE ( 'NONE', #457, #499, #80, .T. ) ;
#110 = FACE_OUTER_BOUND ( 'NONE', #184, .T. ) ;
#111 = MANIFOLD_SOLID_BREP ( 'Revolve1', #268 ) ;
#112 = AXIS2_PLACEMENT_3D ( 'NONE', #545, #79, #328 ) ;
#113 = AXIS2_PLACEMENT_3D ( 'NONE', #49, #338, #260 ) ;
#114 = DIRECTION ( 'NONE',  ( 0.000000000000000000, 0.000000000000000000, 1.000000000000000000 ) ) ;
#115 = LINE ( 'NONE', #492, #360 ) ;
#116 = EDGE_CURVE ( 'NONE', #149, #261, #281, .T. ) ;
#117 = CARTESIAN_POINT ( 'NONE',  ( 3.498917285104822472, 0.000000000000000000, 0.000000000000000000 ) ) ;
#118 = VERTEX_POINT ( 'NONE', #22 ) ;
#119 =( NAMED_UNIT ( * ) PLANE_ANGLE_UNIT ( ) SI_UNIT ( $, .RADIAN. ) );
#120 = CARTESIAN_POINT ( 'NONE',  ( 3.498917285104822472, 0.000000000000000000, 10.79999999999999716 ) ) ;
#121 = ORIENTED_EDGE ( 'NONE', *, *, #27, .F. ) ;
#122 = EDGE_CURVE ( 'NONE', #288, #308, #244, .T. ) ;
#123 = DIRECTION ( 'NONE',  ( 0.000000000000000000, 0.000000000000000000, 1.000000000000000000 ) ) ;
#124 = PRODUCT_RELATED_PRODUCT_CATEGORY ( 'part', '', ( #67 ) ) ;
#125 = CARTESIAN_POINT ( 'NONE',  ( 6.500000000000000888, 1.138921523207038574E-15, 9.300000000000000711 ) ) ;
#126 = CARTESIAN_POINT ( 'NONE',  ( 7.000000000000000888, 0.000000000000000000, 0.000000000000000000 ) ) ;
#127 = VECTOR ( 'NONE', #254, 1000.000000000000000 ) ;
#128 = ORIENTED_EDGE ( 'NONE', *, *, #370, .T. ) ;
#129 = DIRECTION ( 'NONE',  ( 0.000000000000000000, 0.000000000000000000, 1.000000000000000000 ) ) ;
#130 = ORIENTED_EDGE ( 'NONE', *, *, #9, .T. ) ;
#131 = ADVANCED_FACE ( 'NONE', ( #188 ), #53, .T. ) ;
#132 = DIRECTION ( 'NONE',  ( 0.000000000000000000, 0.000000000000000000, 1.000000000000000000 ) ) ;
#133 = ORIENTED_EDGE ( 'NONE', *, *, #122, .F. ) ;
#134 = FACE_OUTER_BOUND ( 'NONE', #94, .T. ) ;
#135 = ORIENTED_EDGE ( 'NONE', *, *, #45, .F. ) ;
#136 = CIRCLE ( 'NONE', #379, 9.300000000000000711 ) ;
#137 = ADVANCED_FACE ( 'NONE', ( #480 ), #69, .F. ) ;
#138 = EDGE_LOOP ( 'NONE', ( #404, #252 ) ) ;
#139 = EDGE_LOOP ( 'NONE', ( #506, #435, #243, #196 ) ) ;
#140 = ORIENTED_EDGE ( 'NONE', *, *, #35, .F. ) ;
#141 = DIRECTION ( 'NONE',  ( -1.000000000000000000, -0.000000000000000000, -0.000000000000000000 ) ) ;
#142 = DIRECTION ( 'NONE',  ( -1.000000000000000000, -0.000000000000000000, -0.000000000000000000 ) ) ;
#143 = APPLICATION_CONTEXT ( 'automotive_design' ) ;
#144 = VERTEX_POINT ( 'NONE', #205 ) ;
#145 = DIRECTION ( 'NONE',  ( 0.8680777122426877046, 0.000000000000000000, -0.4964283286714220589 ) ) ;
#146 = DIRECTION ( 'NONE',  ( 0.000000000000000000, 0.000000000000000000, 1.000000000000000000 ) ) ;
#147 = CIRCLE ( 'NONE', #490, 10.80000000000000071 ) ;
#148 = AXIS2_PLACEMENT_3D ( 'NONE', #449, #233, #95 ) ;
#149 = VERTEX_POINT ( 'NONE', #324 ) ;
#150 = DIRECTION ( 'NONE',  ( 0.000000000000000000, 0.000000000000000000, 1.000000000000000000 ) ) ;
#151 = DIRECTION ( 'NONE',  ( -1.000000000000000000, -0.000000000000000000, -0.000000000000000000 ) ) ;
#152 = ADVANCED_FACE ( 'NONE', ( #208 ), #459, .F. ) ;
#153 = DIRECTION ( 'NONE',  ( 0.000000000000000000, 0.000000000000000000, -1.000000000000000000 ) ) ;
#154 = CARTESIAN_POINT ( 'NONE',  ( 0.000000000000000000, 0.000000000000000000, 0.000000000000000000 ) ) ;
#155 = EDGE_LOOP ( 'NONE', ( #389, #47 ) ) ;
#156 = CYLINDRICAL_SURFACE ( 'NONE', #8, 14.30000000000000071 ) ;
#157 = VECTOR ( 'NONE', #182, 1000.000000000000000 ) ;
#158 = CONICAL_SURFACE ( 'NONE', #253, 8.500000000000000000, 0.5194794516146490349 ) ;
#159 = DIRECTION ( 'NONE',  ( 0.000000000000000000, 0.000000000000000000, 1.000000000000000000 ) ) ;
#160 = EDGE_CURVE ( 'NONE', #306, #519, #115, .T. ) ;
#161 = LINE ( 'NONE', #503, #3 ) ;
#162 = ORIENTED_EDGE ( 'NONE', *, *, #474, .F. ) ;
#163 = CARTESIAN_POINT ( 'NONE',  ( 4.299999999999999822, 1.322618543079141493E-15, -10.80000000000000071 ) ) ;
#164 = ORIENTED_EDGE ( 'NONE', *, *, #9, .F. ) ;
#165 = DIRECTION ( 'NONE',  ( -1.000000000000000000, -0.000000000000000000, -0.000000000000000000 ) ) ;
#166 = FACE_OUTER_BOUND ( 'NONE', #297, .T. ) ;
#167 = CARTESIAN_POINT ( 'NONE',  ( 3.090414755262005647E-16, 14.30000000000000071, 0.000000000000000000 ) ) ;
#168 = CARTESIAN_POINT ( 'NONE',  ( 6.500000000000000888, 0.000000000000000000, 0.000000000000000000 ) ) ;
#169 = EDGE_LOOP ( 'NONE', ( #106, #560, #510, #192 ) ) ;
#170 = APPLICATION_CONTEXT ( 'automotive_design' ) ;
#171 =( GEOMETRIC_REPRESENTATION_CONTEXT ( 3 ) GLOBAL_UNCERTAINTY_ASSIGNED_CONTEXT ( ( #547 ) ) GLOBAL_UNIT_ASSIGNED_CONTEXT ( ( #198, #15, #108 ) ) REPRESENTATION_CONTEXT ( 'NONE', 'WORKASPACE' ) );
#172 = EDGE_CURVE ( 'NONE', #381, #149, #377, .T. ) ;
#173 = CARTESIAN_POINT ( 'NONE',  ( 6.180829510524015237E-16, 0.000000000000000000, 0.000000000000000000 ) ) ;
#174 = CIRCLE ( 'NONE', #423, 13.29999999999999893 ) ;
#175 = AXIS2_PLACEMENT_3D ( 'NONE', #486, #14, #529 ) ;
#176 = ORIENTED_EDGE ( 'NONE', *, *, #96, .T. ) ;
#177 = CARTESIAN_POINT ( 'NONE',  ( 0.000000000000000000, 0.000000000000000000, 0.000000000000000000 ) ) ;
#178 = VERTEX_POINT ( 'NONE', #376 ) ;
#179 = LINE ( 'NONE', #290, #157 ) ;
#180 = ORIENTED_EDGE ( 'NONE', *, *, #310, .T. ) ;
#181 = EDGE_CURVE ( 'NONE', #178, #401, #452, .T. ) ;
#182 = DIRECTION ( 'NONE',  ( -1.000000000000000000, -0.000000000000000000, -0.000000000000000000 ) ) ;
#183 = CIRCLE ( 'NONE', #346, 9.300000000000000711 ) ;
#184 = EDGE_LOOP ( 'NONE', ( #224, #336, #5, #341 ) ) ;
#185 = AXIS2_PLACEMENT_3D ( 'NONE', #413, #369, #325 ) ;
#186 = EDGE_LOOP ( 'NONE', ( #339, #422 ) ) ;
#187 = DIRECTION ( 'NONE',  ( -1.000000000000000000, -0.000000000000000000, -0.000000000000000000 ) ) ;
#188 = FACE_OUTER_BOUND ( 'NONE', #139, .T. ) ;
#189 = EDGE_LOOP ( 'NONE', ( #357, #70, #386, #164 ) ) ;
#190 = CARTESIAN_POINT ( 'NONE',  ( 1.000000000000000444, 10.79999999999999893, 0.000000000000000000 ) ) ;
#191 = DIRECTION ( 'NONE',  ( 0.000000000000000000, 0.000000000000000000, 1.000000000000000000 ) ) ;
#192 = ORIENTED_EDGE ( 'NONE', *, *, #333, .F. ) ;
#193 = CARTESIAN_POINT ( 'NONE',  ( -3.851859888774471706E-31, 1.751244922780715104E-15, -14.30000000000000071 ) ) ;
#194 = EDGE_CURVE ( 'NONE', #457, #542, #76, .T. ) ;
#195 = VECTOR ( 'NONE', #392, 1000.000000000000000 ) ;
#196 = ORIENTED_EDGE ( 'NONE', *, *, #453, .F. ) ;
#197 = CYLINDRICAL_SURFACE ( 'NONE', #305, 9.300000000000000711 ) ;
#198 =( LENGTH_UNIT ( ) NAMED_UNIT ( * ) SI_UNIT ( .MILLI., .METRE. ) );
#199 = AXIS2_PLACEMENT_3D ( 'NONE', #441, #273, #403 ) ;
#200 = CARTESIAN_POINT ( 'NONE',  ( 1.000000000000000444, 0.000000000000000000, 0.000000000000000000 ) ) ;
#201 = CARTESIAN_POINT ( 'NONE',  ( 5.101082714895177617, 0.000000000000000000, 0.000000000000000000 ) ) ;
#202 = ADVANCED_FACE ( 'NONE', ( #207, #166 ), #548, .F. ) ;
#203 = DIRECTION ( 'NONE',  ( -1.000000000000000000, -0.000000000000000000, -0.000000000000000000 ) ) ;
#204 = DIRECTION ( 'NONE',  ( -1.000000000000000000, -0.000000000000000000, -0.000000000000000000 ) ) ;
#205 = CARTESIAN_POINT ( 'NONE',  ( 6.500000000000000888, 1.322618543079141493E-15, -10.80000000000000071 ) ) ;
#206 = ORIENTED_EDGE ( 'NONE', *, *, #54, .T. ) ;
#207 = FACE_BOUND ( 'NONE', #375, .T. ) ;
#208 = FACE_OUTER_BOUND ( 'NONE', #368, .T. ) ;
#209 = EDGE_CURVE ( 'NONE', #499, #457, #65, .T. ) ;
#210 = CIRCLE ( 'NONE', #220, 13.29999999999999893 ) ;
#211 = CARTESIAN_POINT ( 'NONE',  ( 0.000000000000000000, 0.000000000000000000, 0.000000000000000000 ) ) ;
#212 = VERTEX_POINT ( 'NONE', #543 ) ;
#213 = DIRECTION ( 'NONE',  ( -1.000000000000000000, -0.000000000000000000, -0.000000000000000000 ) ) ;
#214 = VERTEX_POINT ( 'NONE', #334 ) ;
#215 = ADVANCED_FACE ( 'NONE', ( #32 ), #31, .F. ) ;
#216 = UNCERTAINTY_MEASURE_WITH_UNIT (LENGTH_MEASURE( 1.000000000000000082E-05 ), #417, 'distance_accuracy_value', 'NONE');
#217 = FACE_OUTER_BOUND ( 'NONE', #354, .T. ) ;
#218 = DIRECTION ( 'NONE',  ( 0.000000000000000000, 0.000000000000000000, 1.000000000000000000 ) ) ;
#219 = FACE_BOUND ( 'NONE', #138, .T. ) ;
#220 = AXIS2_PLACEMENT_3D ( 'NONE', #200, #280, #98 ) ;
#221 = EDGE_LOOP ( 'NONE', ( #391, #554 ) ) ;
#222 = DIRECTION ( 'NONE',  ( -1.000000000000000000, -0.000000000000000000, -0.000000000000000000 ) ) ;
#223 = EDGE_CURVE ( 'NONE', #214, #306, #516, .T. ) ;
#224 = ORIENTED_EDGE ( 'NONE', *, *, #284, .T. ) ;
#225 = PLANE ( 'NONE',  #497 ) ;
#226 = VERTEX_POINT ( 'NONE', #331 ) ;
#227 = EDGE_LOOP ( 'NONE', ( #349, #133, #528, #176 ) ) ;
#228 = CARTESIAN_POINT ( 'NONE',  ( 1.000000000000000444, 1.322618543079141493E-15, -10.79999999999999893 ) ) ;
#229 = CARTESIAN_POINT ( 'NONE',  ( 3.498917285104822472, 0.000000000000000000, 0.000000000000000000 ) ) ;
#230 = CARTESIAN_POINT ( 'NONE',  ( 5.101082714895177617, 0.000000000000000000, 0.000000000000000000 ) ) ;
#231 = CARTESIAN_POINT ( 'NONE',  ( 5.101082714895177617, 0.000000000000000000, 0.000000000000000000 ) ) ;
#232 = EDGE_CURVE ( 'NONE', #315, #266, #183, .T. ) ;
#233 = DIRECTION ( 'NONE',  ( -1.000000000000000000, -0.000000000000000000, -0.000000000000000000 ) ) ;
#234 = FILL_AREA_STYLE ('',( #484 ) ) ;
#235 = CARTESIAN_POINT ( 'NONE',  ( 6.500000000000000888, 0.000000000000000000, 10.80000000000000071 ) ) ;
#236 = DIRECTION ( 'NONE',  ( -1.000000000000000000, -0.000000000000000000, -0.000000000000000000 ) ) ;
#237 = CARTESIAN_POINT ( 'NONE',  ( 4.299999999999999822, 0.000000000000000000, 0.000000000000000000 ) ) ;
#238 = DIRECTION ( 'NONE',  ( -1.000000000000000000, -0.000000000000000000, -0.000000000000000000 ) ) ;
#239 = EDGE_CURVE ( 'NONE', #288, #315, #161, .T. ) ;
#240 = VECTOR ( 'NONE', #151, 1000.000000000000000 ) ;
#241 = DIRECTION ( 'NONE',  ( -1.000000000000000000, -0.000000000000000000, -0.000000000000000000 ) ) ;
#242 = DIRECTION ( 'NONE',  ( -0.000000000000000000, 1.000000000000000000, 1.224646799147353207E-16 ) ) ;
#243 = ORIENTED_EDGE ( 'NONE', *, *, #445, .T. ) ;
#244 = CIRCLE ( 'NONE', #555, 8.500000000000000000 ) ;
#245 = DIRECTION ( 'NONE',  ( 0.000000000000000000, -1.224646799147352961E-16, 1.000000000000000000 ) ) ;
#246 = ORIENTED_EDGE ( 'NONE', *, *, #45, .T. ) ;
#247 = EDGE_CURVE ( 'NONE', #431, #86, #33, .T. ) ;
#248 = DIRECTION ( 'NONE',  ( -1.000000000000000000, -0.000000000000000000, -0.000000000000000000 ) ) ;
#249 = PRODUCT_CONTEXT ( 'NONE', #143, 'mechanical' ) ;
#250 = FACE_OUTER_BOUND ( 'NONE', #84, .T. ) ;
#251 = AXIS2_PLACEMENT_3D ( 'NONE', #526, #313, #146 ) ;
#252 = ORIENTED_EDGE ( 'NONE', *, *, #232, .T. ) ;
#253 = AXIS2_PLACEMENT_3D ( 'NONE', #66, #6, #153 ) ;
#254 = DIRECTION ( 'NONE',  ( -0.8946689007501933411, 0.000000000000000000, 0.4467298490479909567 ) ) ;
#255 = ORIENTED_EDGE ( 'NONE', *, *, #333, .T. ) ;
#256 = CIRCLE ( 'NONE', #295, 10.80000000000000249 ) ;
#257 = PLANE ( 'NONE',  #416 ) ;
#258 = DIRECTION ( 'NONE',  ( -1.000000000000000000, -0.000000000000000000, -0.000000000000000000 ) ) ;
#259 = PRODUCT_DEFINITION ( 'General', '', #74, #88 ) ;
#260 = DIRECTION ( 'NONE',  ( 0.000000000000000000, 0.000000000000000000, 1.000000000000000000 ) ) ;
#261 = VERTEX_POINT ( 'NONE', #120 ) ;
#262 = CIRCLE ( 'NONE', #527, 9.300000000000000711 ) ;
#263 = CARTESIAN_POINT ( 'NONE',  ( 0.000000000000000000, 0.000000000000000000, 0.000000000000000000 ) ) ;
#264 = AXIS2_PLACEMENT_3D ( 'NONE', #237, #309, #405 ) ;
#265 = ORIENTED_EDGE ( 'NONE', *, *, #461, .F. ) ;
#266 = VERTEX_POINT ( 'NONE', #540 ) ;
#267 = CARTESIAN_POINT ( 'NONE',  ( 6.500000000000000888, 9.300000000000000711, 0.000000000000000000 ) ) ;
#268 = CLOSED_SHELL ( 'NONE', ( #71, #137, #429, #437, #561, #534, #215, #489, #202, #275, #419, #63, #406, #131, #485, #318, #550, #152, #378, #544 ) ) ;
#269 = EDGE_LOOP ( 'NONE', ( #470, #51, #38, #344 ) ) ;
#270 = FACE_OUTER_BOUND ( 'NONE', #169, .T. ) ;
#271 = ORIENTED_EDGE ( 'NONE', *, *, #289, .F. ) ;
#272 = CARTESIAN_POINT ( 'NONE',  ( 0.000000000000000000, 0.000000000000000000, 0.000000000000000000 ) ) ;
#273 = DIRECTION ( 'NONE',  ( -1.000000000000000000, -0.000000000000000000, -0.000000000000000000 ) ) ;
#274 = VECTOR ( 'NONE', #479, 1000.000000000000000 ) ;
#275 = ADVANCED_FACE ( 'NONE', ( #250 ), #421, .F. ) ;
#276 = ORIENTED_EDGE ( 'NONE', *, *, #209, .T. ) ;
#277 = DIRECTION ( 'NONE',  ( -0.8946689007501933411, 5.470862797202024119E-17, -0.4467298490479909567 ) ) ;
#278 = DIRECTION ( 'NONE',  ( -1.000000000000000000, -0.000000000000000000, -0.000000000000000000 ) ) ;
#279 = CARTESIAN_POINT ( 'NONE',  ( 3.498917285104822472, 1.138921523207038574E-15, -9.300000000000000711 ) ) ;
#280 = DIRECTION ( 'NONE',  ( -1.000000000000000000, -0.000000000000000000, -0.000000000000000000 ) ) ;
#281 = CIRCLE ( 'NONE', #481, 10.79999999999999716 ) ;
#282 = DIRECTION ( 'NONE',  ( 0.8680777122426877046, 6.079493637135272522E-17, 0.4964283286714220589 ) ) ;
#283 = AXIS2_PLACEMENT_3D ( 'NONE', #366, #241, #495 ) ;
#284 = EDGE_CURVE ( 'NONE', #552, #144, #24, .T. ) ;
#285 = DIRECTION ( 'NONE',  ( 0.000000000000000000, 0.000000000000000000, 1.000000000000000000 ) ) ;
#286 = EDGE_LOOP ( 'NONE', ( #478, #433, #180, #523 ) ) ;
#287 = DIRECTION ( 'NONE',  ( -1.000000000000000000, -0.000000000000000000, -0.000000000000000000 ) ) ;
#288 = VERTEX_POINT ( 'NONE', #81 ) ;
#289 = EDGE_CURVE ( 'NONE', #226, #261, #303, .T. ) ;
#290 = CARTESIAN_POINT ( 'NONE',  ( 0.000000000000000000, 1.322618543079141493E-15, -10.80000000000000071 ) ) ;
#291 = AXIS2_PLACEMENT_3D ( 'NONE', #263, #385, #348 ) ;
#292 =( GEOMETRIC_REPRESENTATION_CONTEXT ( 3 ) GLOBAL_UNCERTAINTY_ASSIGNED_CONTEXT ( ( #216 ) ) GLOBAL_UNIT_ASSIGNED_CONTEXT ( ( #417, #119, #365 ) ) REPRESENTATION_CONTEXT ( 'NONE', 'WORKASPACE' ) );
#293 = DIRECTION ( 'NONE',  ( -1.000000000000000000, -0.000000000000000000, -0.000000000000000000 ) ) ;
#294 = EDGE_LOOP ( 'NONE', ( #393, #29, #10, #384 ) ) ;
#295 = AXIS2_PLACEMENT_3D ( 'NONE', #531, #447, #191 ) ;
#296 = FACE_BOUND ( 'NONE', #221, .T. ) ;
#297 = EDGE_LOOP ( 'NONE', ( #438, #130 ) ) ;
#298 = DIRECTION ( 'NONE',  ( -1.000000000000000000, -0.000000000000000000, -0.000000000000000000 ) ) ;
#299 = CARTESIAN_POINT ( 'NONE',  ( -3.851859888774471706E-31, 0.000000000000000000, 0.000000000000000000 ) ) ;
#300 = EDGE_CURVE ( 'NONE', #144, #381, #179, .T. ) ;
#301 = ADVANCED_BREP_SHAPE_REPRESENTATION ( 'Oil Seal', ( #111, #185 ), #292 ) ;
#302 = AXIS2_PLACEMENT_3D ( 'NONE', #163, #242, #245 ) ;
#303 = CIRCLE ( 'NONE', #43, 0.8010827148951775722 ) ;
#304 = DIRECTION ( 'NONE',  ( 0.000000000000000000, 0.000000000000000000, 1.000000000000000000 ) ) ;
#305 = AXIS2_PLACEMENT_3D ( 'NONE', #402, #59, #521 ) ;
#306 = VERTEX_POINT ( 'NONE', #430 ) ;
#307 = ORIENTED_EDGE ( 'NONE', *, *, #172, .T. ) ;
#308 = VERTEX_POINT ( 'NONE', #383 ) ;
#309 = DIRECTION ( 'NONE',  ( -1.000000000000000000, -0.000000000000000000, -0.000000000000000000 ) ) ;
#310 = EDGE_CURVE ( 'NONE', #178, #118, #136, .T. ) ;
#311 = DIRECTION ( 'NONE',  ( 0.000000000000000000, 0.000000000000000000, 1.000000000000000000 ) ) ;
#312 = CARTESIAN_POINT ( 'NONE',  ( 5.101082714895177617, 0.000000000000000000, -8.500000000000000000 ) ) ;
#313 = DIRECTION ( 'NONE',  ( -1.000000000000000000, -0.000000000000000000, -0.000000000000000000 ) ) ;
#314 = AXIS2_PLACEMENT_3D ( 'NONE', #272, #359, #355 ) ;
#315 = VERTEX_POINT ( 'NONE', #125 ) ;
#316 = FACE_OUTER_BOUND ( 'NONE', #186, .T. ) ;
#317 = FACE_OUTER_BOUND ( 'NONE', #415, .T. ) ;
#318 = ADVANCED_FACE ( 'NONE', ( #390 ), #425, .T. ) ;
#319 = FACE_OUTER_BOUND ( 'NONE', #189, .T. ) ;
#320 = SURFACE_STYLE_FILL_AREA ( #234 ) ;
#321 = AXIS2_PLACEMENT_3D ( 'NONE', #64, #236, #356 ) ;
#322 = LINE ( 'NONE', #407, #240 ) ;
#323 = AXIS2_PLACEMENT_3D ( 'NONE', #352, #442, #533 ) ;
#324 = CARTESIAN_POINT ( 'NONE',  ( 3.498917285104822472, 1.322618543079141296E-15, -10.79999999999999716 ) ) ;
#325 = DIRECTION ( 'NONE',  ( 1.000000000000000000, 0.000000000000000000, 0.000000000000000000 ) ) ;
#326 = DIRECTION ( 'NONE',  ( -1.000000000000000000, -0.000000000000000000, -0.000000000000000000 ) ) ;
#327 = EDGE_CURVE ( 'NONE', #261, #86, #559, .T. ) ;
#328 = DIRECTION ( 'NONE',  ( 0.000000000000000000, 0.000000000000000000, 1.000000000000000000 ) ) ;
#329 = ORIENTED_EDGE ( 'NONE', *, *, #232, .F. ) ;
#330 = VECTOR ( 'NONE', #454, 1000.000000000000000 ) ;
#331 = CARTESIAN_POINT ( 'NONE',  ( 5.101082714895177617, 0.000000000000000000, 10.80000000000000249 ) ) ;
#332 = AXIS2_PLACEMENT_3D ( 'NONE', #229, #278, #364 ) ;
#333 = EDGE_CURVE ( 'NONE', #118, #78, #36, .T. ) ;
#334 = CARTESIAN_POINT ( 'NONE',  ( 7.000000000000000888, 0.000000000000000000, 13.29999999999999893 ) ) ;
#335 = CARTESIAN_POINT ( 'NONE',  ( 3.498917285104822472, 0.000000000000000000, 0.000000000000000000 ) ) ;
#336 = ORIENTED_EDGE ( 'NONE', *, *, #300, .T. ) ;
#337 = AXIS2_PLACEMENT_3D ( 'NONE', #411, #204, #466 ) ;
#338 = DIRECTION ( 'NONE',  ( -1.000000000000000000, -0.000000000000000000, -0.000000000000000000 ) ) ;
#339 = ORIENTED_EDGE ( 'NONE', *, *, #468, .F. ) ;
#340 = FACE_OUTER_BOUND ( 'NONE', #227, .T. ) ;
#341 = ORIENTED_EDGE ( 'NONE', *, *, #445, .F. ) ;
#342 = EDGE_CURVE ( 'NONE', #401, #78, #262, .T. ) ;
#343 = CARTESIAN_POINT ( 'NONE',  ( 7.000000000000000888, 13.29999999999999893, 0.000000000000000000 ) ) ;
#344 = ORIENTED_EDGE ( 'NONE', *, *, #116, .F. ) ;
#345 = AXIS2_PLACEMENT_3D ( 'NONE', #117, #165, #414 ) ;
#346 = AXIS2_PLACEMENT_3D ( 'NONE', #25, #372, #496 ) ;
#347 = ORIENTED_EDGE ( 'NONE', *, *, #513, .F. ) ;
#348 = DIRECTION ( 'NONE',  ( 0.000000000000000000, 0.000000000000000000, 1.000000000000000000 ) ) ;
#349 = ORIENTED_EDGE ( 'NONE', *, *, #525, .F. ) ;
#350 = EDGE_CURVE ( 'NONE', #288, #118, #432, .T. ) ;
#351 = ORIENTED_EDGE ( 'NONE', *, *, #342, .F. ) ;
#352 = CARTESIAN_POINT ( 'NONE',  ( 6.180829510524015237E-16, 0.000000000000000000, 0.000000000000000000 ) ) ;
#353 = SURFACE_SIDE_STYLE ('',( #320 ) ) ;
#354 = EDGE_LOOP ( 'NONE', ( #246, #362, #347, #75 ) ) ;
#355 = DIRECTION ( 'NONE',  ( 0.000000000000000000, 0.000000000000000000, 1.000000000000000000 ) ) ;
#356 = DIRECTION ( 'NONE',  ( 0.000000000000000000, 0.000000000000000000, 1.000000000000000000 ) ) ;
#357 = ORIENTED_EDGE ( 'NONE', *, *, #194, .F. ) ;
#358 = VECTOR ( 'NONE', #28, 1000.000000000000000 ) ;
#359 = DIRECTION ( 'NONE',  ( -1.000000000000000000, -0.000000000000000000, -0.000000000000000000 ) ) ;
#360 = VECTOR ( 'NONE', #248, 1000.000000000000000 ) ;
#361 = CARTESIAN_POINT ( 'NONE',  ( 6.500000000000000888, 0.000000000000000000, 0.000000000000000000 ) ) ;
#362 = ORIENTED_EDGE ( 'NONE', *, *, #19, .T. ) ;
#363 = LINE ( 'NONE', #444, #274 ) ;
#364 = DIRECTION ( 'NONE',  ( 0.000000000000000000, 0.000000000000000000, 1.000000000000000000 ) ) ;
#365 =( NAMED_UNIT ( * ) SI_UNIT ( $, .STERADIAN. ) SOLID_ANGLE_UNIT ( ) );
#366 = CARTESIAN_POINT ( 'NONE',  ( 0.000000000000000000, 0.000000000000000000, 0.000000000000000000 ) ) ;
#367 = VECTOR ( 'NONE', #222, 1000.000000000000000 ) ;
#368 = EDGE_LOOP ( 'NONE', ( #428, #538, #206, #395 ) ) ;
#369 = DIRECTION ( 'NONE',  ( 0.000000000000000000, 0.000000000000000000, 1.000000000000000000 ) ) ;
#370 = EDGE_CURVE ( 'NONE', #308, #288, #101, .T. ) ;
#371 = PRODUCT_DEFINITION_SHAPE ( 'NONE', 'NONE',  #259 ) ;
#372 = DIRECTION ( 'NONE',  ( -1.000000000000000000, -0.000000000000000000, -0.000000000000000000 ) ) ;
#373 = APPLICATION_PROTOCOL_DEFINITION ( 'draft international standard', 'automotive_design', 1998, #170 ) ;
#374 = CARTESIAN_POINT ( 'NONE',  ( 7.000000000000000000, 0.000000000000000000, 0.000000000000000000 ) ) ;
#375 = EDGE_LOOP ( 'NONE', ( #162, #351 ) ) ;
#376 = CARTESIAN_POINT ( 'NONE',  ( 3.498917285104822472, 1.138921523207038574E-15, -9.300000000000000711 ) ) ;
#377 = CIRCLE ( 'NONE', #302, 0.8010827148951775722 ) ;
#378 = ADVANCED_FACE ( 'NONE', ( #134, #296 ), #225, .F. ) ;
#379 = AXIS2_PLACEMENT_3D ( 'NONE', #335, #469, #304 ) ;
#380 = DIRECTION ( 'NONE',  ( -1.000000000000000000, -0.000000000000000000, -0.000000000000000000 ) ) ;
#381 = VERTEX_POINT ( 'NONE', #509 ) ;
#382 = VECTOR ( 'NONE', #99, 1000.000000000000000 ) ;
#383 = CARTESIAN_POINT ( 'NONE',  ( 5.101082714895177617, 1.089935651241144554E-15, -8.500000000000000000 ) ) ;
#384 = ORIENTED_EDGE ( 'NONE', *, *, #247, .F. ) ;
#385 = DIRECTION ( 'NONE',  ( -1.000000000000000000, -0.000000000000000000, -0.000000000000000000 ) ) ;
#386 = ORIENTED_EDGE ( 'NONE', *, *, #461, .T. ) ;
#387 = EDGE_CURVE ( 'NONE', #519, #212, #174, .T. ) ;
#388 = CARTESIAN_POINT ( 'NONE',  ( 3.498917285104822472, 0.000000000000000000, 0.000000000000000000 ) ) ;
#389 = ORIENTED_EDGE ( 'NONE', *, *, #284, .F. ) ;
#390 = FACE_OUTER_BOUND ( 'NONE', #294, .T. ) ;
#391 = ORIENTED_EDGE ( 'NONE', *, *, #223, .T. ) ;
#392 = DIRECTION ( 'NONE',  ( -1.000000000000000000, -0.000000000000000000, -0.000000000000000000 ) ) ;
#393 = ORIENTED_EDGE ( 'NONE', *, *, #19, .F. ) ;
#394 = EDGE_CURVE ( 'NONE', #144, #552, #147, .T. ) ;
#395 = ORIENTED_EDGE ( 'NONE', *, *, #468, .T. ) ;
#396 = FACE_OUTER_BOUND ( 'NONE', #97, .T. ) ;
#397 = CONICAL_SURFACE ( 'NONE', #508, 9.300000000000000711, 0.4631068371077714518 ) ;
#398 = CARTESIAN_POINT ( 'NONE',  ( 6.180829510524015237E-16, 0.000000000000000000, 9.300000000000000711 ) ) ;
#399 = LINE ( 'NONE', #312, #44 ) ;
#400 = DIRECTION ( 'NONE',  ( 0.000000000000000000, 0.000000000000000000, -1.000000000000000000 ) ) ;
#401 = VERTEX_POINT ( 'NONE', #93 ) ;
#402 = CARTESIAN_POINT ( 'NONE',  ( 0.000000000000000000, 0.000000000000000000, 0.000000000000000000 ) ) ;
#403 = DIRECTION ( 'NONE',  ( 0.000000000000000000, 0.000000000000000000, 1.000000000000000000 ) ) ;
#404 = ORIENTED_EDGE ( 'NONE', *, *, #35, .T. ) ;
#405 = DIRECTION ( 'NONE',  ( 0.000000000000000000, 0.000000000000000000, 1.000000000000000000 ) ) ;
#406 = ADVANCED_FACE ( 'NONE', ( #41, #219 ), #257, .F. ) ;
#407 = CARTESIAN_POINT ( 'NONE',  ( 0.000000000000000000, 0.000000000000000000, 13.29999999999999893 ) ) ;
#408 = TOROIDAL_SURFACE ( 'NONE', #264, 10.80000000000000071, 0.8010827148951775722 ) ;
#409 = LINE ( 'NONE', #477, #424 ) ;
#410 = DIRECTION ( 'NONE',  ( 0.000000000000000000, 0.000000000000000000, 1.000000000000000000 ) ) ;
#411 = CARTESIAN_POINT ( 'NONE',  ( 6.500000000000000888, 0.000000000000000000, 0.000000000000000000 ) ) ;
#412 = EDGE_CURVE ( 'NONE', #306, #214, #556, .T. ) ;
#413 = CARTESIAN_POINT ( 'NONE',  ( 0.000000000000000000, 0.000000000000000000, 0.000000000000000000 ) ) ;
#414 = DIRECTION ( 'NONE',  ( 0.000000000000000000, 0.000000000000000000, 1.000000000000000000 ) ) ;
#415 = EDGE_LOOP ( 'NONE', ( #276, #40, #121, #265 ) ) ;
#416 = AXIS2_PLACEMENT_3D ( 'NONE', #267, #505, #436 ) ;
#417 =( LENGTH_UNIT ( ) NAMED_UNIT ( * ) SI_UNIT ( .MILLI., .METRE. ) );
#418 = ORIENTED_EDGE ( 'NONE', *, *, #160, .T. ) ;
#419 = ADVANCED_FACE ( 'NONE', ( #340 ), #397, .F. ) ;
#420 = DIRECTION ( 'NONE',  ( 1.000000000000000000, 0.000000000000000000, 0.000000000000000000 ) ) ;
#421 = CYLINDRICAL_SURFACE ( 'NONE', #507, 9.300000000000000711 ) ;
#422 = ORIENTED_EDGE ( 'NONE', *, *, #387, .F. ) ;
#423 = AXIS2_PLACEMENT_3D ( 'NONE', #475, #213, #129 ) ;
#424 = VECTOR ( 'NONE', #141, 1000.000000000000000 ) ;
#425 = CYLINDRICAL_SURFACE ( 'NONE', #291, 10.79999999999999716 ) ;
#426 = AXIS2_PLACEMENT_3D ( 'NONE', #231, #18, #400 ) ;
#427 = DIRECTION ( 'NONE',  ( 0.000000000000000000, 0.000000000000000000, 1.000000000000000000 ) ) ;
#428 = ORIENTED_EDGE ( 'NONE', *, *, #160, .F. ) ;
#429 = ADVANCED_FACE ( 'NONE', ( #217 ), #557, .T. ) ;
#430 = CARTESIAN_POINT ( 'NONE',  ( 7.000000000000000888, 1.628780242865979758E-15, -13.29999999999999893 ) ) ;
#431 = VERTEX_POINT ( 'NONE', #228 ) ;
#432 = LINE ( 'NONE', #46, #127 ) ;
#433 = ORIENTED_EDGE ( 'NONE', *, *, #525, .T. ) ;
#434 = AXIS2_PLACEMENT_3D ( 'NONE', #299, #258, #218 ) ;
#435 = ORIENTED_EDGE ( 'NONE', *, *, #394, .T. ) ;
#436 = DIRECTION ( 'NONE',  ( -0.000000000000000000, 0.000000000000000000, 1.000000000000000000 ) ) ;
#437 = ADVANCED_FACE ( 'NONE', ( #396 ), #408, .T. ) ;
#438 = ORIENTED_EDGE ( 'NONE', *, *, #27, .T. ) ;
#439 = ORIENTED_EDGE ( 'NONE', *, *, #122, .T. ) ;
#440 = LINE ( 'NONE', #279, #530 ) ;
#441 = CARTESIAN_POINT ( 'NONE',  ( -3.851859888774471706E-31, 0.000000000000000000, 0.000000000000000000 ) ) ;
#442 = DIRECTION ( 'NONE',  ( -1.000000000000000000, -0.000000000000000000, -0.000000000000000000 ) ) ;
#443 = DIRECTION ( 'NONE',  ( -1.000000000000000000, -0.000000000000000000, -0.000000000000000000 ) ) ;
#444 = CARTESIAN_POINT ( 'NONE',  ( 0.000000000000000000, 0.000000000000000000, 14.30000000000000071 ) ) ;
#445 = EDGE_CURVE ( 'NONE', #552, #226, #409, .T. ) ;
#446 = DIRECTION ( 'NONE',  ( -1.000000000000000000, 0.000000000000000000, -0.000000000000000000 ) ) ;
#447 = DIRECTION ( 'NONE',  ( -1.000000000000000000, -0.000000000000000000, -0.000000000000000000 ) ) ;
#448 = AXIS2_PLACEMENT_3D ( 'NONE', #374, #287, #285 ) ;
#449 = CARTESIAN_POINT ( 'NONE',  ( 4.299999999999999822, 0.000000000000000000, 0.000000000000000000 ) ) ;
#450 = CARTESIAN_POINT ( 'NONE',  ( 3.498917285104822472, 0.000000000000000000, 0.000000000000000000 ) ) ;
#451 = AXIS2_PLACEMENT_3D ( 'NONE', #230, #21, #11 ) ;
#452 = LINE ( 'NONE', #456, #358 ) ;
#453 = EDGE_CURVE ( 'NONE', #381, #226, #102, .T. ) ;
#454 = DIRECTION ( 'NONE',  ( -1.000000000000000000, -0.000000000000000000, -0.000000000000000000 ) ) ;
#455 = CARTESIAN_POINT ( 'NONE',  ( 0.000000000000000000, 0.000000000000000000, 0.000000000000000000 ) ) ;
#456 = CARTESIAN_POINT ( 'NONE',  ( 0.000000000000000000, 1.138921523207038574E-15, -9.300000000000000711 ) ) ;
#457 = VERTEX_POINT ( 'NONE', #17 ) ;
#458 = AXIS2_PLACEMENT_3D ( 'NONE', #455, #203, #159 ) ;
#459 = CYLINDRICAL_SURFACE ( 'NONE', #283, 13.29999999999999893 ) ;
#460 = ORIENTED_EDGE ( 'NONE', *, *, #54, .F. ) ;
#461 = EDGE_CURVE ( 'NONE', #499, #549, #363, .T. ) ;
#462 = CARTESIAN_POINT ( 'NONE',  ( 0.000000000000000000, 1.751244922780715104E-15, -14.30000000000000071 ) ) ;
#463 = ORIENTED_EDGE ( 'NONE', *, *, #500, .F. ) ;
#464 = CARTESIAN_POINT ( 'NONE',  ( 4.299999999999999822, 0.000000000000000000, 10.80000000000000071 ) ) ;
#465 = AXIS2_PLACEMENT_3D ( 'NONE', #126, #293, #427 ) ;
#466 = DIRECTION ( 'NONE',  ( 0.000000000000000000, 0.000000000000000000, 1.000000000000000000 ) ) ;
#467 = EDGE_LOOP ( 'NONE', ( #128, #476, #140, #463 ) ) ;
#468 = EDGE_CURVE ( 'NONE', #212, #519, #210, .T. ) ;
#469 = DIRECTION ( 'NONE',  ( -1.000000000000000000, -0.000000000000000000, -0.000000000000000000 ) ) ;
#470 = ORIENTED_EDGE ( 'NONE', *, *, #172, .F. ) ;
#471 = DIRECTION ( 'NONE',  ( 0.000000000000000000, 0.000000000000000000, 1.000000000000000000 ) ) ;
#472 = LINE ( 'NONE', #91, #382 ) ;
#473 = MECHANICAL_DESIGN_GEOMETRIC_PRESENTATION_REPRESENTATION (  '', ( #55 ), #171 ) ;
#474 = EDGE_CURVE ( 'NONE', #78, #401, #537, .T. ) ;
#475 = CARTESIAN_POINT ( 'NONE',  ( 1.000000000000000444, 0.000000000000000000, 0.000000000000000000 ) ) ;
#476 = ORIENTED_EDGE ( 'NONE', *, *, #239, .T. ) ;
#477 = CARTESIAN_POINT ( 'NONE',  ( 0.000000000000000000, 0.000000000000000000, 10.80000000000000071 ) ) ;
#478 = ORIENTED_EDGE ( 'NONE', *, *, #370, .F. ) ;
#479 = DIRECTION ( 'NONE',  ( -1.000000000000000000, -0.000000000000000000, -0.000000000000000000 ) ) ;
#480 = FACE_OUTER_BOUND ( 'NONE', #512, .T. ) ;
#481 = AXIS2_PLACEMENT_3D ( 'NONE', #450, #238, #410 ) ;
#482 = AXIS2_PLACEMENT_3D ( 'NONE', #501, #23, #123 ) ;
#483 = CARTESIAN_POINT ( 'NONE',  ( 7.000000000000000000, 0.000000000000000000, 14.30000000000000071 ) ) ;
#484 = FILL_AREA_STYLE_COLOUR ( '', #92 ) ;
#485 = ADVANCED_FACE ( 'NONE', ( #518 ), #4, .T. ) ;
#486 = CARTESIAN_POINT ( 'NONE',  ( 1.000000000000000444, 0.000000000000000000, 0.000000000000000000 ) ) ;
#487 = PRESENTATION_STYLE_ASSIGNMENT (( #105 ) ) ;
#488 = FACE_BOUND ( 'NONE', #34, .T. ) ;
#489 = ADVANCED_FACE ( 'NONE', ( #270 ), #197, .F. ) ;
#490 = AXIS2_PLACEMENT_3D ( 'NONE', #168, #83, #85 ) ;
#491 = CARTESIAN_POINT ( 'NONE',  ( 1.000000000000000444, 0.000000000000000000, 10.79999999999999893 ) ) ;
#492 = CARTESIAN_POINT ( 'NONE',  ( 0.000000000000000000, 1.628780242865979758E-15, -13.29999999999999893 ) ) ;
#493 = ORIENTED_EDGE ( 'NONE', *, *, #239, .F. ) ;
#494 = SHAPE_DEFINITION_REPRESENTATION ( #371, #301 ) ;
#495 = DIRECTION ( 'NONE',  ( 0.000000000000000000, 0.000000000000000000, 1.000000000000000000 ) ) ;
#496 = DIRECTION ( 'NONE',  ( 0.000000000000000000, 0.000000000000000000, 1.000000000000000000 ) ) ;
#497 = AXIS2_PLACEMENT_3D ( 'NONE', #343, #514, #551 ) ;
#498 = AXIS2_PLACEMENT_3D ( 'NONE', #177, #187, #150 ) ;
#499 = VERTEX_POINT ( 'NONE', #483 ) ;
#500 = EDGE_CURVE ( 'NONE', #308, #266, #399, .T. ) ;
#501 = CARTESIAN_POINT ( 'NONE',  ( 1.000000000000000444, 0.000000000000000000, 0.000000000000000000 ) ) ;
#502 = CIRCLE ( 'NONE', #20, 9.300000000000000711 ) ;
#503 = CARTESIAN_POINT ( 'NONE',  ( 5.101082714895177617, 1.040949779275250140E-15, 8.500000000000000000 ) ) ;
#504 = ORIENTED_EDGE ( 'NONE', *, *, #96, .F. ) ;
#505 = DIRECTION ( 'NONE',  ( -1.000000000000000000, 0.000000000000000000, -0.000000000000000000 ) ) ;
#506 = ORIENTED_EDGE ( 'NONE', *, *, #300, .F. ) ;
#507 = AXIS2_PLACEMENT_3D ( 'NONE', #211, #380, #68 ) ;
#508 = AXIS2_PLACEMENT_3D ( 'NONE', #388, #39, #132 ) ;
#509 = CARTESIAN_POINT ( 'NONE',  ( 5.101082714895177617, 1.322618543079141888E-15, -10.80000000000000249 ) ) ;
#510 = ORIENTED_EDGE ( 'NONE', *, *, #342, .T. ) ;
#511 = CARTESIAN_POINT ( 'NONE',  ( 0.000000000000000000, 0.000000000000000000, 10.79999999999999716 ) ) ;
#512 = EDGE_LOOP ( 'NONE', ( #515, #418, #61, #460 ) ) ;
#513 = EDGE_CURVE ( 'NONE', #86, #431, #26, .T. ) ;
#514 = DIRECTION ( 'NONE',  ( -1.000000000000000000, 0.000000000000000000, -0.000000000000000000 ) ) ;
#515 = ORIENTED_EDGE ( 'NONE', *, *, #412, .F. ) ;
#516 = CIRCLE ( 'NONE', #112, 13.29999999999999893 ) ;
#517 = AXIS2_PLACEMENT_3D ( 'NONE', #190, #446, #62 ) ;
#518 = FACE_OUTER_BOUND ( 'NONE', #269, .T. ) ;
#519 = VERTEX_POINT ( 'NONE', #104 ) ;
#520 = ORIENTED_EDGE ( 'NONE', *, *, #500, .T. ) ;
#521 = DIRECTION ( 'NONE',  ( 0.000000000000000000, 0.000000000000000000, 1.000000000000000000 ) ) ;
#522 = CARTESIAN_POINT ( 'NONE',  ( 0.000000000000000000, 0.000000000000000000, 0.000000000000000000 ) ) ;
#523 = ORIENTED_EDGE ( 'NONE', *, *, #350, .F. ) ;
#524 = FACE_OUTER_BOUND ( 'NONE', #467, .T. ) ;
#525 = EDGE_CURVE ( 'NONE', #308, #178, #440, .T. ) ;
#526 = CARTESIAN_POINT ( 'NONE',  ( 7.000000000000000000, 0.000000000000000000, 0.000000000000000000 ) ) ;
#527 = AXIS2_PLACEMENT_3D ( 'NONE', #173, #298, #471 ) ;
#528 = ORIENTED_EDGE ( 'NONE', *, *, #350, .T. ) ;
#529 = DIRECTION ( 'NONE',  ( 0.000000000000000000, 0.000000000000000000, 1.000000000000000000 ) ) ;
#530 = VECTOR ( 'NONE', #277, 1000.000000000000000 ) ;
#531 = CARTESIAN_POINT ( 'NONE',  ( 5.101082714895177617, 0.000000000000000000, 0.000000000000000000 ) ) ;
#532 = ORIENTED_EDGE ( 'NONE', *, *, #474, .T. ) ;
#533 = DIRECTION ( 'NONE',  ( 0.000000000000000000, 0.000000000000000000, 1.000000000000000000 ) ) ;
#534 = ADVANCED_FACE ( 'NONE', ( #524 ), #158, .F. ) ;
#535 = DIRECTION ( 'NONE',  ( -1.000000000000000000, -0.000000000000000000, -0.000000000000000000 ) ) ;
#536 = DIRECTION ( 'NONE',  ( 0.000000000000000000, 0.000000000000000000, 1.000000000000000000 ) ) ;
#537 = CIRCLE ( 'NONE', #323, 9.300000000000000711 ) ;
#538 = ORIENTED_EDGE ( 'NONE', *, *, #223, .F. ) ;
#539 = APPLICATION_PROTOCOL_DEFINITION ( 'draft international standard', 'automotive_design', 1998, #143 ) ;
#540 = CARTESIAN_POINT ( 'NONE',  ( 6.500000000000000888, 0.000000000000000000, -9.300000000000000711 ) ) ;
#541 = CIRCLE ( 'NONE', #434, 14.30000000000000071 ) ;
#542 = VERTEX_POINT ( 'NONE', #193 ) ;
#543 = CARTESIAN_POINT ( 'NONE',  ( 1.000000000000000444, 0.000000000000000000, 13.29999999999999893 ) ) ;
#544 = ADVANCED_FACE ( 'NONE', ( #319 ), #52, .T. ) ;
#545 = CARTESIAN_POINT ( 'NONE',  ( 7.000000000000000888, 0.000000000000000000, 0.000000000000000000 ) ) ;
#546 = ORIENTED_EDGE ( 'NONE', *, *, #109, .F. ) ;
#547 = UNCERTAINTY_MEASURE_WITH_UNIT (LENGTH_MEASURE( 1.000000000000000082E-05 ), #198, 'distance_accuracy_value', 'NONE');
#548 = PLANE ( 'NONE',  #90 ) ;
#549 = VERTEX_POINT ( 'NONE', #56 ) ;
#550 = ADVANCED_FACE ( 'NONE', ( #316, #488 ), #107, .F. ) ;
#551 = DIRECTION ( 'NONE',  ( -0.000000000000000000, 0.000000000000000000, 1.000000000000000000 ) ) ;
#552 = VERTEX_POINT ( 'NONE', #235 ) ;
#553 = CARTESIAN_POINT ( 'NONE',  ( 0.000000000000000000, 0.000000000000000000, 9.300000000000000711 ) ) ;
#554 = ORIENTED_EDGE ( 'NONE', *, *, #412, .T. ) ;
#555 = AXIS2_PLACEMENT_3D ( 'NONE', #201, #535, #114 ) ;
#556 = CIRCLE ( 'NONE', #465, 13.29999999999999893 ) ;
#557 = CYLINDRICAL_SURFACE ( 'NONE', #498, 10.79999999999999716 ) ;
#558 = ORIENTED_EDGE ( 'NONE', *, *, #87, .T. ) ;
#559 = LINE ( 'NONE', #511, #195 ) ;
#560 = ORIENTED_EDGE ( 'NONE', *, *, #181, .T. ) ;
#561 = ADVANCED_FACE ( 'NONE', ( #110 ), #72, .T. ) ;
ENDSEC;
END-ISO-10303-21;
