ISO-10303-21;
HEADER;
FILE_DESCRIPTION (( 'STEP AP214' ),
    '1' );
FILE_NAME ('Part13^Subassembly idle gear.STEP',
    '2024-11-24T17:15:04',
    ( '' ),
    ( '' ),
    'SwSTEP 2.0',
    'SolidWorks 2024',
    '' );
FILE_SCHEMA (( 'AUTOMOTIVE_DESIGN' ));
ENDSEC;

DATA;
#1 = ORIENTED_EDGE ( 'NONE', *, *, #18, .F. ) ;
#2 = ORIENTED_EDGE ( 'NONE', *, *, #194, .T. ) ;
#3 = VERTEX_POINT ( 'NONE', #134 ) ;
#4 = APPLICATION_CONTEXT ( 'automotive_design' ) ;
#5 = DIRECTION ( 'NONE',  ( -1.000000000000000000, 0.000000000000000000, 0.000000000000000000 ) ) ;
#6 = CARTESIAN_POINT ( 'NONE',  ( 0.000000000000000000, 0.000000000000000000, -25.50000000000001066 ) ) ;
#7 = AXIS2_PLACEMENT_3D ( 'NONE', #57, #196, #44 ) ;
#8 = CARTESIAN_POINT ( 'NONE',  ( 9.000000000000000000, 1.102182119232617714E-15, -25.50000000000001066 ) ) ;
#9 = DIRECTION ( 'NONE',  ( -0.000000000000000000, -0.000000000000000000, -1.000000000000000000 ) ) ;
#10 = CARTESIAN_POINT ( 'NONE',  ( 0.000000000000000000, 0.000000000000000000, -25.50000000000001066 ) ) ;
#11 = ORIENTED_EDGE ( 'NONE', *, *, #212, .F. ) ;
#12 = DIRECTION ( 'NONE',  ( 0.000000000000000000, 0.000000000000000000, 1.000000000000000000 ) ) ;
#13 = EDGE_LOOP ( 'NONE', ( #36, #120 ) ) ;
#14 = CARTESIAN_POINT ( 'NONE',  ( -9.000000000000000000, 0.000000000000000000, -25.50000000000001066 ) ) ;
#15 = ORIENTED_EDGE ( 'NONE', *, *, #212, .T. ) ;
#16 = DIRECTION ( 'NONE',  ( -0.7071067811865469066, 8.659560562354925463E-17, 0.7071067811865481278 ) ) ;
#17 = DIRECTION ( 'NONE',  ( -0.7071067811865482389, 0.000000000000000000, -0.7071067811865469066 ) ) ;
#18 = EDGE_CURVE ( 'NONE', #204, #169, #82, .T. ) ;
#19 = CARTESIAN_POINT ( 'NONE',  ( -9.000000000000000000, 0.000000000000000000, 26.50000000000000000 ) ) ;
#20 = SURFACE_STYLE_USAGE ( .BOTH. , #24 ) ;
#21 = AXIS2_PLACEMENT_3D ( 'NONE', #10, #73, #107 ) ;
#22 = EDGE_CURVE ( 'NONE', #136, #121, #80, .T. ) ;
#23 = DIRECTION ( 'NONE',  ( 0.000000000000000000, 0.000000000000000000, 1.000000000000000000 ) ) ;
#24 = SURFACE_SIDE_STYLE ('',( #126 ) ) ;
#25 = CIRCLE ( 'NONE', #115, 7.999999999999986677 ) ;
#26 = EDGE_CURVE ( 'NONE', #169, #53, #199, .T. ) ;
#27 = VERTEX_POINT ( 'NONE', #52 ) ;
#28 = EDGE_LOOP ( 'NONE', ( #54, #173, #132, #59 ) ) ;
#29 = EDGE_CURVE ( 'NONE', #27, #53, #188, .T. ) ;
#30 = ORIENTED_EDGE ( 'NONE', *, *, #69, .T. ) ;
#31 = ORIENTED_EDGE ( 'NONE', *, *, #18, .T. ) ;
#32 = AXIS2_PLACEMENT_3D ( 'NONE', #208, #190, #50 ) ;
#33 = AXIS2_PLACEMENT_3D ( 'NONE', #209, #23, #142 ) ;
#34 = ORIENTED_EDGE ( 'NONE', *, *, #133, .T. ) ;
#35 = DIRECTION ( 'NONE',  ( -0.000000000000000000, -0.000000000000000000, -1.000000000000000000 ) ) ;
#36 = ORIENTED_EDGE ( 'NONE', *, *, #146, .T. ) ;
#37 = CIRCLE ( 'NONE', #128, 8.000000000000014211 ) ;
#38 = DIRECTION ( 'NONE',  ( 0.000000000000000000, 0.000000000000000000, -1.000000000000000000 ) ) ;
#39 =( NAMED_UNIT ( * ) PLANE_ANGLE_UNIT ( ) SI_UNIT ( $, .RADIAN. ) );
#40 = CARTESIAN_POINT ( 'NONE',  ( 0.000000000000000000, 0.000000000000000000, 26.50000000000000000 ) ) ;
#41 = LINE ( 'NONE', #110, #205 ) ;
#42 = CIRCLE ( 'NONE', #161, 9.000000000000000000 ) ;
#43 = CIRCLE ( 'NONE', #216, 9.000000000000000000 ) ;
#44 = DIRECTION ( 'NONE',  ( -1.000000000000000000, 0.000000000000000000, 0.000000000000000000 ) ) ;
#45 = ORIENTED_EDGE ( 'NONE', *, *, #60, .F. ) ;
#46 = CARTESIAN_POINT ( 'NONE',  ( 0.000000000000000000, 0.000000000000000000, 0.000000000000000000 ) ) ;
#47 = PRODUCT_DEFINITION_FORMATION_WITH_SPECIFIED_SOURCE ( 'Symmetric', '', #84, .NOT_KNOWN. ) ;
#48 = PRODUCT_CONTEXT ( 'NONE', #70, 'mechanical' ) ;
#49 = FACE_OUTER_BOUND ( 'NONE', #65, .T. ) ;
#50 = DIRECTION ( 'NONE',  ( 1.000000000000000000, 0.000000000000000000, 0.000000000000000000 ) ) ;
#51 = VECTOR ( 'NONE', #138, 1000.000000000000000 ) ;
#52 = CARTESIAN_POINT ( 'NONE',  ( -8.000000000000014211, 1.040949779275250929E-15, -26.50000000000000000 ) ) ;
#53 = VERTEX_POINT ( 'NONE', #14 ) ;
#54 = ORIENTED_EDGE ( 'NONE', *, *, #133, .F. ) ;
#55 = CARTESIAN_POINT ( 'NONE',  ( -7.999999999999986677, 0.000000000000000000, 26.50000000000000000 ) ) ;
#56 = DIRECTION ( 'NONE',  ( 1.000000000000000000, 0.000000000000000000, -0.000000000000000000 ) ) ;
#57 = CARTESIAN_POINT ( 'NONE',  ( 0.000000000000000000, 0.000000000000000000, 26.50000000000000000 ) ) ;
#58 = DIRECTION ( 'NONE',  ( -0.000000000000000000, -0.000000000000000000, -1.000000000000000000 ) ) ;
#59 = ORIENTED_EDGE ( 'NONE', *, *, #159, .T. ) ;
#60 = EDGE_CURVE ( 'NONE', #27, #204, #37, .T. ) ;
#61 = UNCERTAINTY_MEASURE_WITH_UNIT (LENGTH_MEASURE( 1.000000000000000082E-05 ), #164, 'distance_accuracy_value', 'NONE');
#62 = CARTESIAN_POINT ( 'NONE',  ( 0.000000000000000000, 0.000000000000000000, 26.50000000000000000 ) ) ;
#63 = EDGE_LOOP ( 'NONE', ( #45, #185, #225, #1 ) ) ;
#64 = AXIS2_PLACEMENT_3D ( 'NONE', #154, #177, #187 ) ;
#65 = EDGE_LOOP ( 'NONE', ( #206, #2, #11, #101 ) ) ;
#66 = CARTESIAN_POINT ( 'NONE',  ( 9.000000000000000000, 0.000000000000000000, -25.50000000000001066 ) ) ;
#67 = FACE_OUTER_BOUND ( 'NONE', #79, .T. ) ;
#68 = FACE_OUTER_BOUND ( 'NONE', #189, .T. ) ;
#69 = EDGE_CURVE ( 'NONE', #136, #3, #85, .T. ) ;
#70 = APPLICATION_CONTEXT ( 'automotive_design' ) ;
#71 = LINE ( 'NONE', #178, #152 ) ;
#72 = FACE_OUTER_BOUND ( 'NONE', #13, .T. ) ;
#73 = DIRECTION ( 'NONE',  ( -0.000000000000000000, -0.000000000000000000, 1.000000000000000000 ) ) ;
#74 = AXIS2_PLACEMENT_3D ( 'NONE', #86, #155, #5 ) ;
#75 = PRODUCT_DEFINITION ( 'General', '', #47, #112 ) ;
#76 = ORIENTED_EDGE ( 'NONE', *, *, #146, .F. ) ;
#77 = CONICAL_SURFACE ( 'NONE', #64, 7.999999999999986677, 0.7853981633974492782 ) ;
#78 = UNCERTAINTY_MEASURE_WITH_UNIT (LENGTH_MEASURE( 1.000000000000000082E-05 ), #166, 'distance_accuracy_value', 'NONE');
#79 = EDGE_LOOP ( 'NONE', ( #15, #34, #104, #174 ) ) ;
#80 = CIRCLE ( 'NONE', #116, 7.999999999999986677 ) ;
#81 = CARTESIAN_POINT ( 'NONE',  ( -9.000000000000000000, 1.102182119232617714E-15, -25.50000000000001066 ) ) ;
#82 = LINE ( 'NONE', #66, #122 ) ;
#83 = DIRECTION ( 'NONE',  ( -0.000000000000000000, -0.000000000000000000, 1.000000000000000000 ) ) ;
#84 = PRODUCT ( 'Part13^Subassembly idle gear', 'Part13^Subassembly idle gear', '', ( #48 ) ) ;
#85 = LINE ( 'NONE', #102, #143 ) ;
#86 = CARTESIAN_POINT ( 'NONE',  ( 0.000000000000000000, 0.000000000000000000, 26.50000000000000000 ) ) ;
#87 = CARTESIAN_POINT ( 'NONE',  ( 8.000000000000014211, 0.000000000000000000, -26.50000000000000000 ) ) ;
#88 = PRODUCT_RELATED_PRODUCT_CATEGORY ( 'part', '', ( #84 ) ) ;
#89 = CARTESIAN_POINT ( 'NONE',  ( 0.000000000000000000, 0.000000000000000000, -26.50000000000000000 ) ) ;
#90 = FILL_AREA_STYLE_COLOUR ( '', #180 ) ;
#91 = CARTESIAN_POINT ( 'NONE',  ( 9.000000000000000000, 1.102182119232617714E-15, 25.49999999999998934 ) ) ;
#92 = PLANE ( 'NONE',  #111 ) ;
#93 = ADVANCED_FACE ( 'NONE', ( #153 ), #176, .T. ) ;
#94 = DIRECTION ( 'NONE',  ( -1.000000000000000000, 0.000000000000000000, 0.000000000000000000 ) ) ;
#95 = EDGE_LOOP ( 'NONE', ( #106, #198, #30, #131 ) ) ;
#96 = ADVANCED_FACE ( 'NONE', ( #137 ), #210, .T. ) ;
#97 = PRESENTATION_LAYER_ASSIGNMENT (  '', '', ( #148 ) ) ;
#98 = AXIS2_PLACEMENT_3D ( 'NONE', #150, #58, #94 ) ;
#99 = ORIENTED_EDGE ( 'NONE', *, *, #29, .F. ) ;
#100 = DIRECTION ( 'NONE',  ( 1.000000000000000000, 0.000000000000000000, 0.000000000000000000 ) ) ;
#101 = ORIENTED_EDGE ( 'NONE', *, *, #69, .F. ) ;
#102 = CARTESIAN_POINT ( 'NONE',  ( -7.999999999999986677, 0.000000000000000000, 26.50000000000000000 ) ) ;
#103 = EDGE_CURVE ( 'NONE', #157, #3, #42, .T. ) ;
#104 = ORIENTED_EDGE ( 'NONE', *, *, #26, .T. ) ;
#105 =( GEOMETRIC_REPRESENTATION_CONTEXT ( 3 ) GLOBAL_UNCERTAINTY_ASSIGNED_CONTEXT ( ( #61 ) ) GLOBAL_UNIT_ASSIGNED_CONTEXT ( ( #164, #39, #160 ) ) REPRESENTATION_CONTEXT ( 'NONE', 'WORKASPACE' ) );
#106 = ORIENTED_EDGE ( 'NONE', *, *, #194, .F. ) ;
#107 = DIRECTION ( 'NONE',  ( 1.000000000000000000, 0.000000000000000000, 0.000000000000000000 ) ) ;
#108 = ADVANCED_FACE ( 'NONE', ( #49 ), #77, .T. ) ;
#109 = DIRECTION ( 'NONE',  ( 0.000000000000000000, 0.000000000000000000, -1.000000000000000000 ) ) ;
#110 = CARTESIAN_POINT ( 'NONE',  ( 9.000000000000000000, 1.102182119232617714E-15, 26.50000000000000000 ) ) ;
#111 = AXIS2_PLACEMENT_3D ( 'NONE', #140, #213, #56 ) ;
#112 = PRODUCT_DEFINITION_CONTEXT ( 'detailed design', #4, 'design' ) ;
#113 = DIRECTION ( 'NONE',  ( 1.000000000000000000, 0.000000000000000000, 0.000000000000000000 ) ) ;
#114 = DIRECTION ( 'NONE',  ( 0.7071067811865482389, 8.659560562354941486E-17, -0.7071067811865469066 ) ) ;
#115 = AXIS2_PLACEMENT_3D ( 'NONE', #40, #192, #144 ) ;
#116 = AXIS2_PLACEMENT_3D ( 'NONE', #62, #202, #100 ) ;
#117 = CARTESIAN_POINT ( 'NONE',  ( 0.000000000000000000, 0.000000000000000000, -26.50000000000000000 ) ) ;
#118 = DIRECTION ( 'NONE',  ( 1.000000000000000000, 0.000000000000000000, 0.000000000000000000 ) ) ;
#119 = DIRECTION ( 'NONE',  ( 1.000000000000000000, 0.000000000000000000, 0.000000000000000000 ) ) ;
#120 = ORIENTED_EDGE ( 'NONE', *, *, #60, .T. ) ;
#121 = VERTEX_POINT ( 'NONE', #158 ) ;
#122 = VECTOR ( 'NONE', #175, 1000.000000000000114 ) ;
#123 = CYLINDRICAL_SURFACE ( 'NONE', #7, 9.000000000000000000 ) ;
#124 = MANIFOLD_SOLID_BREP ( 'Chamfer1', #168 ) ;
#125 = CARTESIAN_POINT ( 'NONE',  ( 0.000000000000000000, 0.000000000000000000, 25.49999999999998934 ) ) ;
#126 = SURFACE_STYLE_FILL_AREA ( #195 ) ;
#127 = ADVANCED_FACE ( 'NONE', ( #193 ), #191, .T. ) ;
#128 = AXIS2_PLACEMENT_3D ( 'NONE', #117, #35, #203 ) ;
#129 = ADVANCED_BREP_SHAPE_REPRESENTATION ( 'Part13^Subassembly idle gear', ( #124, #156 ), #221 ) ;
#130 = MECHANICAL_DESIGN_GEOMETRIC_PRESENTATION_REPRESENTATION (  '', ( #148 ), #105 ) ;
#131 = ORIENTED_EDGE ( 'NONE', *, *, #103, .F. ) ;
#132 = ORIENTED_EDGE ( 'NONE', *, *, #197, .T. ) ;
#133 = EDGE_CURVE ( 'NONE', #157, #169, #41, .T. ) ;
#134 = CARTESIAN_POINT ( 'NONE',  ( -9.000000000000000000, 0.000000000000000000, 25.49999999999998934 ) ) ;
#135 = PRODUCT_DEFINITION_SHAPE ( 'NONE', 'NONE',  #75 ) ;
#136 = VERTEX_POINT ( 'NONE', #55 ) ;
#137 = FACE_OUTER_BOUND ( 'NONE', #63, .T. ) ;
#138 = DIRECTION ( 'NONE',  ( -0.000000000000000000, -0.000000000000000000, -1.000000000000000000 ) ) ;
#139 = AXIS2_PLACEMENT_3D ( 'NONE', #170, #83, #119 ) ;
#140 = CARTESIAN_POINT ( 'NONE',  ( 0.000000000000000000, 0.000000000000000000, 26.50000000000000000 ) ) ;
#141 = FACE_OUTER_BOUND ( 'NONE', #28, .T. ) ;
#142 = DIRECTION ( 'NONE',  ( 1.000000000000000000, 0.000000000000000000, -0.000000000000000000 ) ) ;
#143 = VECTOR ( 'NONE', #17, 1000.000000000000000 ) ;
#144 = DIRECTION ( 'NONE',  ( 1.000000000000000000, 0.000000000000000000, 0.000000000000000000 ) ) ;
#145 = APPLICATION_PROTOCOL_DEFINITION ( 'draft international standard', 'automotive_design', 1998, #4 ) ;
#146 = EDGE_CURVE ( 'NONE', #204, #27, #224, .T. ) ;
#147 = ORIENTED_EDGE ( 'NONE', *, *, #159, .F. ) ;
#148 = STYLED_ITEM ( 'NONE', ( #181 ), #124 ) ;
#149 = ORIENTED_EDGE ( 'NONE', *, *, #22, .T. ) ;
#150 = CARTESIAN_POINT ( 'NONE',  ( 0.000000000000000000, 0.000000000000000000, 26.50000000000000000 ) ) ;
#151 = ADVANCED_FACE ( 'NONE', ( #72 ), #182, .F. ) ;
#152 = VECTOR ( 'NONE', #114, 1000.000000000000000 ) ;
#153 = FACE_OUTER_BOUND ( 'NONE', #95, .T. ) ;
#154 = CARTESIAN_POINT ( 'NONE',  ( 0.000000000000000000, 0.000000000000000000, 26.50000000000000000 ) ) ;
#155 = DIRECTION ( 'NONE',  ( 0.000000000000000000, 0.000000000000000000, -1.000000000000000000 ) ) ;
#156 = AXIS2_PLACEMENT_3D ( 'NONE', #46, #12, #222 ) ;
#157 = VERTEX_POINT ( 'NONE', #91 ) ;
#158 = CARTESIAN_POINT ( 'NONE',  ( 7.999999999999986677, 1.040949779275249548E-15, 26.50000000000000000 ) ) ;
#159 = EDGE_CURVE ( 'NONE', #53, #169, #165, .T. ) ;
#160 =( NAMED_UNIT ( * ) SI_UNIT ( $, .STERADIAN. ) SOLID_ANGLE_UNIT ( ) );
#161 = AXIS2_PLACEMENT_3D ( 'NONE', #186, #38, #118 ) ;
#162 = DIRECTION ( 'NONE',  ( 1.000000000000000000, 0.000000000000000000, 0.000000000000000000 ) ) ;
#163 = EDGE_CURVE ( 'NONE', #121, #136, #25, .T. ) ;
#164 =( LENGTH_UNIT ( ) NAMED_UNIT ( * ) SI_UNIT ( .MILLI., .METRE. ) );
#165 = CIRCLE ( 'NONE', #21, 9.000000000000000000 ) ;
#166 =( LENGTH_UNIT ( ) NAMED_UNIT ( * ) SI_UNIT ( .MILLI., .METRE. ) );
#167 = SHAPE_DEFINITION_REPRESENTATION ( #135, #129 ) ;
#168 = CLOSED_SHELL ( 'NONE', ( #108, #96, #172, #218, #207, #151, #127, #93 ) ) ;
#169 = VERTEX_POINT ( 'NONE', #8 ) ;
#170 = CARTESIAN_POINT ( 'NONE',  ( 0.000000000000000000, 0.000000000000000000, -25.50000000000001066 ) ) ;
#171 = VECTOR ( 'NONE', #16, 1000.000000000000114 ) ;
#172 = ADVANCED_FACE ( 'NONE', ( #67 ), #123, .T. ) ;
#173 = ORIENTED_EDGE ( 'NONE', *, *, #103, .T. ) ;
#174 = ORIENTED_EDGE ( 'NONE', *, *, #197, .F. ) ;
#175 = DIRECTION ( 'NONE',  ( 0.7071067811865469066, 0.000000000000000000, 0.7071067811865481278 ) ) ;
#176 = CONICAL_SURFACE ( 'NONE', #74, 7.999999999999986677, 0.7853981633974492782 ) ;
#177 = DIRECTION ( 'NONE',  ( 0.000000000000000000, 0.000000000000000000, -1.000000000000000000 ) ) ;
#178 = CARTESIAN_POINT ( 'NONE',  ( 7.999999999999986677, 9.797174393178809880E-16, 26.50000000000000000 ) ) ;
#179 = DIRECTION ( 'NONE',  ( 1.000000000000000000, 0.000000000000000000, 0.000000000000000000 ) ) ;
#180 = COLOUR_RGB ( '',0.7921568627450980005, 0.8196078431372548767, 0.9333333333333333481 ) ;
#181 = PRESENTATION_STYLE_ASSIGNMENT (( #20 ) ) ;
#182 = PLANE ( 'NONE',  #33 ) ;
#183 = LINE ( 'NONE', #19, #51 ) ;
#184 = AXIS2_PLACEMENT_3D ( 'NONE', #6, #215, #113 ) ;
#185 = ORIENTED_EDGE ( 'NONE', *, *, #29, .T. ) ;
#186 = CARTESIAN_POINT ( 'NONE',  ( 0.000000000000000000, 0.000000000000000000, 25.49999999999998934 ) ) ;
#187 = DIRECTION ( 'NONE',  ( -1.000000000000000000, 0.000000000000000000, 0.000000000000000000 ) ) ;
#188 = LINE ( 'NONE', #81, #171 ) ;
#189 = EDGE_LOOP ( 'NONE', ( #149, #220 ) ) ;
#190 = DIRECTION ( 'NONE',  ( -0.000000000000000000, -0.000000000000000000, 1.000000000000000000 ) ) ;
#191 = CONICAL_SURFACE ( 'NONE', #184, 9.000000000000000000, 0.7853981633974473908 ) ;
#192 = DIRECTION ( 'NONE',  ( 0.000000000000000000, 0.000000000000000000, 1.000000000000000000 ) ) ;
#193 = FACE_OUTER_BOUND ( 'NONE', #223, .T. ) ;
#194 = EDGE_CURVE ( 'NONE', #121, #157, #71, .T. ) ;
#195 = FILL_AREA_STYLE ('',( #90 ) ) ;
#196 = DIRECTION ( 'NONE',  ( -0.000000000000000000, -0.000000000000000000, -1.000000000000000000 ) ) ;
#197 = EDGE_CURVE ( 'NONE', #3, #53, #183, .T. ) ;
#198 = ORIENTED_EDGE ( 'NONE', *, *, #22, .F. ) ;
#199 = CIRCLE ( 'NONE', #139, 9.000000000000000000 ) ;
#200 =( NAMED_UNIT ( * ) PLANE_ANGLE_UNIT ( ) SI_UNIT ( $, .RADIAN. ) );
#201 =( NAMED_UNIT ( * ) SI_UNIT ( $, .STERADIAN. ) SOLID_ANGLE_UNIT ( ) );
#202 = DIRECTION ( 'NONE',  ( 0.000000000000000000, 0.000000000000000000, 1.000000000000000000 ) ) ;
#203 = DIRECTION ( 'NONE',  ( 1.000000000000000000, 0.000000000000000000, 0.000000000000000000 ) ) ;
#204 = VERTEX_POINT ( 'NONE', #87 ) ;
#205 = VECTOR ( 'NONE', #9, 1000.000000000000000 ) ;
#206 = ORIENTED_EDGE ( 'NONE', *, *, #163, .F. ) ;
#207 = ADVANCED_FACE ( 'NONE', ( #68 ), #92, .T. ) ;
#208 = CARTESIAN_POINT ( 'NONE',  ( 0.000000000000000000, 0.000000000000000000, -25.50000000000001066 ) ) ;
#209 = CARTESIAN_POINT ( 'NONE',  ( 0.000000000000000000, 0.000000000000000000, -26.50000000000000000 ) ) ;
#210 = CONICAL_SURFACE ( 'NONE', #32, 9.000000000000000000, 0.7853981633974473908 ) ;
#211 = AXIS2_PLACEMENT_3D ( 'NONE', #89, #217, #162 ) ;
#212 = EDGE_CURVE ( 'NONE', #3, #157, #43, .T. ) ;
#213 = DIRECTION ( 'NONE',  ( 0.000000000000000000, 0.000000000000000000, 1.000000000000000000 ) ) ;
#214 = CYLINDRICAL_SURFACE ( 'NONE', #98, 9.000000000000000000 ) ;
#215 = DIRECTION ( 'NONE',  ( -0.000000000000000000, -0.000000000000000000, 1.000000000000000000 ) ) ;
#216 = AXIS2_PLACEMENT_3D ( 'NONE', #125, #109, #179 ) ;
#217 = DIRECTION ( 'NONE',  ( -0.000000000000000000, -0.000000000000000000, -1.000000000000000000 ) ) ;
#218 = ADVANCED_FACE ( 'NONE', ( #141 ), #214, .T. ) ;
#219 = APPLICATION_PROTOCOL_DEFINITION ( 'draft international standard', 'automotive_design', 1998, #70 ) ;
#220 = ORIENTED_EDGE ( 'NONE', *, *, #163, .T. ) ;
#221 =( GEOMETRIC_REPRESENTATION_CONTEXT ( 3 ) GLOBAL_UNCERTAINTY_ASSIGNED_CONTEXT ( ( #78 ) ) GLOBAL_UNIT_ASSIGNED_CONTEXT ( ( #166, #200, #201 ) ) REPRESENTATION_CONTEXT ( 'NONE', 'WORKASPACE' ) );
#222 = DIRECTION ( 'NONE',  ( 1.000000000000000000, 0.000000000000000000, 0.000000000000000000 ) ) ;
#223 = EDGE_LOOP ( 'NONE', ( #99, #76, #31, #147 ) ) ;
#224 = CIRCLE ( 'NONE', #211, 8.000000000000014211 ) ;
#225 = ORIENTED_EDGE ( 'NONE', *, *, #26, .F. ) ;
ENDSEC;
END-ISO-10303-21;
