ISO-10303-21;
HEADER;
FILE_DESCRIPTION (( 'STEP AP214' ),
    '1' );
FILE_NAME ('Part12^Subassembly drive shaft gear.STEP',
    '2024-11-24T17:15:04',
    ( '' ),
    ( '' ),
    'SwSTEP 2.0',
    'SolidWorks 2024',
    '' );
FILE_SCHEMA (( 'AUTOMOTIVE_DESIGN' ));
ENDSEC;

DATA;
#1 = ORIENTED_EDGE ( 'NONE', *, *, #190, .F. ) ;
#2 = VERTEX_POINT ( 'NONE', #333 ) ;
#3 = DIRECTION ( 'NONE',  ( -0.000000000000000000, -0.000000000000000000, -1.000000000000000000 ) ) ;
#4 = ORIENTED_EDGE ( 'NONE', *, *, #332, .T. ) ;
#5 = EDGE_CURVE ( 'NONE', #2, #368, #93, .T. ) ;
#6 = AXIS2_PLACEMENT_3D ( 'NONE', #390, #358, #135 ) ;
#7 = VERTEX_POINT ( 'NONE', #119 ) ;
#8 = CARTESIAN_POINT ( 'NONE',  ( -1.830024671936538949, -8.813519001246380213, 26.11485777539675368 ) ) ;
#9 = EDGE_LOOP ( 'NONE', ( #433, #328, #191, #177 ) ) ;
#10 = CARTESIAN_POINT ( 'NONE',  ( -2.999999999999991118, -8.485281374238571317, 28.30028178026598695 ) ) ;
#11 = PRODUCT_RELATED_PRODUCT_CATEGORY ( 'part', '', ( #217 ) ) ;
#12 = CARTESIAN_POINT ( 'NONE',  ( 1.831477161043260526, -8.813213971919513057, 48.88401637297923941 ) ) ;
#13 = DIRECTION ( 'NONE',  ( -0.7071067811865469066, 0.000000000000000000, -0.7071067811865482389 ) ) ;
#14 = B_SPLINE_CURVE_WITH_KNOTS ( 'NONE', 3,
 ( #405, #340, #78, #366, #45, #400, #19, #70, #226, #43, #223, #258, #159, #75, #443, #292, #192, #302, #373, #117, #120, #8, #294, #263, #81, #265, #109, #154, #150, #183, #10, #228 ),
 .UNSPECIFIED., .F., .F.,
 ( 4, 2, 2, 2, 2, 2, 2, 2, 2, 2, 2, 2, 2, 2, 2, 4 ),
 ( 0.000000000000000000, 0.0005902259033179340112, 0.001180451806635868022, 0.001770677709953801925, 0.002360903613271736045, 0.003541355419907603851, 0.004131581323225539705, 0.004721807226543476427, 0.005312033129861412281, 0.005902259033179348136, 0.006492484936497283990, 0.007082710839815220712, 0.007672936743133156566, 0.008263162646451091553, 0.008853388549769029142, 0.009443614453086964997 ),
 .UNSPECIFIED. ) ;
#15 = ORIENTED_EDGE ( 'NONE', *, *, #118, .T. ) ;
#16 = AXIS2_PLACEMENT_3D ( 'NONE', #134, #280, #242 ) ;
#17 = PLANE ( 'NONE',  #420 ) ;
#18 = CARTESIAN_POINT ( 'NONE',  ( 3.000000000000011102, -8.485281374238565988, 46.50000000000000000 ) ) ;
#19 = CARTESIAN_POINT ( 'NONE',  ( 2.601798256281220301, -8.616464066528289223, 26.99372567723133898 ) ) ;
#20 = LINE ( 'NONE', #87, #251 ) ;
#21 = FACE_OUTER_BOUND ( 'NONE', #323, .T. ) ;
#22 = EDGE_CURVE ( 'NONE', #7, #107, #419, .T. ) ;
#23 = DIRECTION ( 'NONE',  ( 0.7071067811865543451, 0.000000000000000000, 0.7071067811865408004 ) ) ;
#24 = CARTESIAN_POINT ( 'NONE',  ( -2.999999999999989786, -8.485281374238573093, 46.50000000000000000 ) ) ;
#25 = DIRECTION ( 'NONE',  ( 1.000000000000000000, 0.000000000000000000, -0.000000000000000000 ) ) ;
#26 = CARTESIAN_POINT ( 'NONE',  ( -2.999999999999992006, -6.000000000000000000, 28.50000000000000000 ) ) ;
#27 = LINE ( 'NONE', #230, #437 ) ;
#28 = EDGE_CURVE ( 'NONE', #339, #287, #275, .T. ) ;
#29 = DIRECTION ( 'NONE',  ( 1.000000000000000000, 0.000000000000000000, 0.000000000000000000 ) ) ;
#30 = CARTESIAN_POINT ( 'NONE',  ( 0.000000000000000000, 0.000000000000000000, -51.50000000000001421 ) ) ;
#31 = FACE_BOUND ( 'NONE', #74, .T. ) ;
#32 = CIRCLE ( 'NONE', #181, 3.000000000000002665 ) ;
#33 = LINE ( 'NONE', #317, #352 ) ;
#34 = ORIENTED_EDGE ( 'NONE', *, *, #332, .F. ) ;
#35 = ORIENTED_EDGE ( 'NONE', *, *, #303, .T. ) ;
#36 = DIRECTION ( 'NONE',  ( -0.000000000000000000, 1.000000000000000000, -0.000000000000000000 ) ) ;
#37 = ORIENTED_EDGE ( 'NONE', *, *, #76, .F. ) ;
#38 = ORIENTED_EDGE ( 'NONE', *, *, #267, .F. ) ;
#39 = ORIENTED_EDGE ( 'NONE', *, *, #356, .T. ) ;
#40 = CARTESIAN_POINT ( 'NONE',  ( 7.999999999999992895, 9.797174393178817769E-16, 52.50000000000000000 ) ) ;
#41 = DIRECTION ( 'NONE',  ( 0.000000000000000000, 0.000000000000000000, -1.000000000000000000 ) ) ;
#42 = EDGE_LOOP ( 'NONE', ( #143, #44, #250, #393 ) ) ;
#43 = CARTESIAN_POINT ( 'NONE',  ( 1.847098821903612631, -8.812944685114498355, 26.10439305679709676 ) ) ;
#44 = ORIENTED_EDGE ( 'NONE', *, *, #190, .T. ) ;
#45 = CARTESIAN_POINT ( 'NONE',  ( 2.844896095177368078, -8.538902624151450738, 27.52783616525559296 ) ) ;
#46 = EDGE_LOOP ( 'NONE', ( #324, #101, #65, #289 ) ) ;
#47 = CARTESIAN_POINT ( 'NONE',  ( -2.999999999999992006, -6.000000000000000000, 28.50000000000000000 ) ) ;
#48 = CARTESIAN_POINT ( 'NONE',  ( 2.844348310502778254, -8.539081767371289544, 47.47356941565609389 ) ) ;
#49 = DIRECTION ( 'NONE',  ( 1.000000000000000000, 0.000000000000000000, -1.445602896647339163E-16 ) ) ;
#50 = DIRECTION ( 'NONE',  ( 1.000000000000000000, 0.000000000000000000, 0.000000000000000000 ) ) ;
#51 = DIRECTION ( 'NONE',  ( 0.000000000000000000, 0.000000000000000000, 1.000000000000000000 ) ) ;
#52 = EDGE_CURVE ( 'NONE', #444, #211, #188, .T. ) ;
#53 = LINE ( 'NONE', #89, #171 ) ;
#54 = CARTESIAN_POINT ( 'NONE',  ( 3.000000000000011102, -8.485281374238565988, 46.50000000000000000 ) ) ;
#55 = DIRECTION ( 'NONE',  ( -1.000000000000000000, 0.000000000000000000, 9.637352644315594010E-17 ) ) ;
#56 = DIRECTION ( 'NONE',  ( -0.000000000000000000, 1.000000000000000000, -0.000000000000000000 ) ) ;
#57 = CARTESIAN_POINT ( 'NONE',  ( -1.513123620469481789, -8.879344224389653206, 49.11975374525903959 ) ) ;
#58 = CARTESIAN_POINT ( 'NONE',  ( -2.999999999999992006, -111.0000000000000000, 28.50000000000000000 ) ) ;
#59 = FACE_OUTER_BOUND ( 'NONE', #432, .T. ) ;
#60 = AXIS2_PLACEMENT_3D ( 'NONE', #316, #3, #208 ) ;
#61 = VERTEX_POINT ( 'NONE', #295 ) ;
#62 = EDGE_CURVE ( 'NONE', #225, #363, #168, .T. ) ;
#63 = EDGE_LOOP ( 'NONE', ( #249, #254, #359, #392 ) ) ;
#64 = PRODUCT_CONTEXT ( 'NONE', #406, 'mechanical' ) ;
#65 = ORIENTED_EDGE ( 'NONE', *, *, #389, .T. ) ;
#66 = CIRCLE ( 'NONE', #220, 9.000000000000000000 ) ;
#67 = CIRCLE ( 'NONE', #321, 7.999999999999992895 ) ;
#68 = ORIENTED_EDGE ( 'NONE', *, *, #259, .F. ) ;
#69 = ORIENTED_EDGE ( 'NONE', *, *, #104, .F. ) ;
#70 = CARTESIAN_POINT ( 'NONE',  ( 2.384317694982204028, -8.679161036964112341, 26.66881305399615343 ) ) ;
#71 = ORIENTED_EDGE ( 'NONE', *, *, #319, .F. ) ;
#72 = FACE_OUTER_BOUND ( 'NONE', #429, .T. ) ;
#73 = AXIS2_PLACEMENT_3D ( 'NONE', #264, #257, #372 ) ;
#74 = EDGE_LOOP ( 'NONE', ( #15, #35, #357, #179, #430 ) ) ;
#75 = CARTESIAN_POINT ( 'NONE',  ( 0.3960160581560948079, -8.993383190415357831, 25.51968261375446900 ) ) ;
#76 = EDGE_CURVE ( 'NONE', #61, #364, #347, .T. ) ;
#77 = ORIENTED_EDGE ( 'NONE', *, *, #185, .T. ) ;
#78 = CARTESIAN_POINT ( 'NONE',  ( 2.980262510504990470, -8.492331645729692013, 28.10425216177423380 ) ) ;
#79 = APPLICATION_CONTEXT ( 'automotive_design' ) ;
#80 = CARTESIAN_POINT ( 'NONE',  ( 2.259833726595082304, -8.712823366420701987, 48.48272869077884906 ) ) ;
#81 = CARTESIAN_POINT ( 'NONE',  ( -2.382124412452361728, -8.679761848089604825, 26.66602177540731944 ) ) ;
#82 = VECTOR ( 'NONE', #23, 1000.000000000000114 ) ;
#83 = ADVANCED_FACE ( 'NONE', ( #451 ), #311, .F. ) ;
#84 = DIRECTION ( 'NONE',  ( -0.000000000000000000, -0.000000000000000000, -1.000000000000000000 ) ) ;
#85 = AXIS2_PLACEMENT_3D ( 'NONE', #234, #86, #344 ) ;
#86 = DIRECTION ( 'NONE',  ( -0.000000000000000000, -0.000000000000000000, -1.000000000000000000 ) ) ;
#87 = CARTESIAN_POINT ( 'NONE',  ( -2.999999999999992006, -111.0000000000000000, 28.50000000000000000 ) ) ;
#88 = DIRECTION ( 'NONE',  ( 0.000000000000000000, 0.000000000000000000, 1.000000000000000000 ) ) ;
#89 = CARTESIAN_POINT ( 'NONE',  ( 3.000000000000008438, -6.000000000000000000, 28.50000000000000000 ) ) ;
#90 = SURFACE_STYLE_FILL_AREA ( #271 ) ;
#91 = CARTESIAN_POINT ( 'NONE',  ( -2.999999999999989786, -8.485281374238573093, 52.50000000000000000 ) ) ;
#92 = CARTESIAN_POINT ( 'NONE',  ( -7.999999999999992895, 0.000000000000000000, 52.50000000000000000 ) ) ;
#93 = B_SPLINE_CURVE_WITH_KNOTS ( 'NONE', 3,
 ( #158, #401, #262, #301, #182, #110, #408, #12, #151, #80, #227, #376, #293, #48, #193, #435, #222, #18 ),
 .UNSPECIFIED., .F., .F.,
 ( 4, 2, 2, 2, 2, 2, 2, 2, 4 ),
 ( 0.004724984058646234351, 0.005314812857951326658, 0.005904641657256418964, 0.006494470456561510403, 0.007084299255866602710, 0.007674128055171694149, 0.008263956854476785588, 0.008853785653781877027, 0.009443614453086968466 ),
 .UNSPECIFIED. ) ;
#94 = DIRECTION ( 'NONE',  ( 0.000000000000000000, 0.000000000000000000, 1.000000000000000000 ) ) ;
#95 =( NAMED_UNIT ( * ) SI_UNIT ( $, .STERADIAN. ) SOLID_ANGLE_UNIT ( ) );
#96 = CARTESIAN_POINT ( 'NONE',  ( 9.000000000000000000, 1.102182119232617714E-15, 51.49999999999999289 ) ) ;
#97 = FACE_OUTER_BOUND ( 'NONE', #327, .T. ) ;
#98 = DIRECTION ( 'NONE',  ( 1.000000000000000000, 0.000000000000000000, 0.000000000000000000 ) ) ;
#99 = EDGE_LOOP ( 'NONE', ( #77, #457, #260, #37 ) ) ;
#100 = AXIS2_PLACEMENT_3D ( 'NONE', #58, #55, #238 ) ;
#101 = ORIENTED_EDGE ( 'NONE', *, *, #133, .T. ) ;
#102 = DIRECTION ( 'NONE',  ( 0.000000000000000000, 0.000000000000000000, 1.000000000000000000 ) ) ;
#103 = VERTEX_POINT ( 'NONE', #446 ) ;
#104 = EDGE_CURVE ( 'NONE', #364, #2, #318, .T. ) ;
#105 = ADVANCED_BREP_SHAPE_REPRESENTATION ( 'Part12^Subassembly drive shaft gear', ( #417, #221 ), #369 ) ;
#106 = ORIENTED_EDGE ( 'NONE', *, *, #288, .F. ) ;
#107 = VERTEX_POINT ( 'NONE', #272 ) ;
#108 = ORIENTED_EDGE ( 'NONE', *, *, #224, .F. ) ;
#109 = CARTESIAN_POINT ( 'NONE',  ( -2.693686482235157165, -8.587799726479699913, 27.16498688262964833 ) ) ;
#110 = CARTESIAN_POINT ( 'NONE',  ( 1.335344244249682788, -8.902285279863711764, 49.19367664064636614 ) ) ;
#111 = ADVANCED_FACE ( 'NONE', ( #197 ), #129, .T. ) ;
#112 = DIRECTION ( 'NONE',  ( -1.000000000000000000, 0.000000000000000000, 0.000000000000000000 ) ) ;
#113 = AXIS2_PLACEMENT_3D ( 'NONE', #278, #198, #29 ) ;
#114 = ORIENTED_EDGE ( 'NONE', *, *, #288, .T. ) ;
#115 = DIRECTION ( 'NONE',  ( 0.000000000000000000, 1.000000000000000000, 0.000000000000000000 ) ) ;
#116 = EDGE_LOOP ( 'NONE', ( #335, #69, #153, #114 ) ) ;
#117 = CARTESIAN_POINT ( 'NONE',  ( -1.333298728199520111, -8.902595189562056532, 25.80530198119469176 ) ) ;
#118 = EDGE_CURVE ( 'NONE', #368, #225, #412, .T. ) ;
#119 = CARTESIAN_POINT ( 'NONE',  ( 9.000000000000000000, 1.102182119232617714E-15, -51.50000000000001421 ) ) ;
#120 = CARTESIAN_POINT ( 'NONE',  ( -1.506443932848075873, -8.874555434635169604, 25.89836197585693611 ) ) ;
#121 = VECTOR ( 'NONE', #94, 1000.000000000000000 ) ;
#122 = AXIS2_PLACEMENT_3D ( 'NONE', #445, #41, #112 ) ;
#123 = CARTESIAN_POINT ( 'NONE',  ( -0.1973939736642827125, -9.000000000000005329, 49.50000000000000711 ) ) ;
#124 = CARTESIAN_POINT ( 'NONE',  ( 3.000000000000011102, -6.000000000000000000, 46.50000000000000000 ) ) ;
#125 = CARTESIAN_POINT ( 'NONE',  ( 1.040834085586084257E-14, -111.0000000000000000, 46.50000000000000000 ) ) ;
#126 = FACE_OUTER_BOUND ( 'NONE', #137, .T. ) ;
#127 = CARTESIAN_POINT ( 'NONE',  ( -2.844687509167334927, -8.538973046698282943, 47.47279936487564100 ) ) ;
#128 = CARTESIAN_POINT ( 'NONE',  ( 0.000000000000000000, 0.000000000000000000, 52.50000000000000000 ) ) ;
#129 = PLANE ( 'NONE',  #367 ) ;
#130 = DIRECTION ( 'NONE',  ( 0.000000000000000000, 0.000000000000000000, 1.000000000000000000 ) ) ;
#131 = DIRECTION ( 'NONE',  ( 1.000000000000000000, 0.000000000000000000, 0.000000000000000000 ) ) ;
#132 = DIRECTION ( 'NONE',  ( -0.000000000000000000, 1.000000000000000000, -0.000000000000000000 ) ) ;
#133 = EDGE_CURVE ( 'NONE', #2, #103, #27, .T. ) ;
#134 = CARTESIAN_POINT ( 'NONE',  ( 0.000000000000000000, 0.000000000000000000, 52.50000000000000000 ) ) ;
#135 = DIRECTION ( 'NONE',  ( 0.000000000000000000, -0.000000000000000000, 1.000000000000000000 ) ) ;
#136 = ORIENTED_EDGE ( 'NONE', *, *, #28, .T. ) ;
#137 = EDGE_LOOP ( 'NONE', ( #4, #136 ) ) ;
#138 = AXIS2_PLACEMENT_3D ( 'NONE', #161, #231, #380 ) ;
#139 =( NAMED_UNIT ( * ) PLANE_ANGLE_UNIT ( ) SI_UNIT ( $, .RADIAN. ) );
#140 = ORIENTED_EDGE ( 'NONE', *, *, #141, .T. ) ;
#141 = EDGE_CURVE ( 'NONE', #287, #7, #277, .T. ) ;
#142 = UNCERTAINTY_MEASURE_WITH_UNIT (LENGTH_MEASURE( 1.000000000000000082E-05 ), #273, 'distance_accuracy_value', 'NONE');
#143 = ORIENTED_EDGE ( 'NONE', *, *, #361, .T. ) ;
#144 = PRODUCT_DEFINITION_SHAPE ( 'NONE', 'NONE',  #240 ) ;
#145 = ORIENTED_EDGE ( 'NONE', *, *, #22, .F. ) ;
#146 = AXIS2_PLACEMENT_3D ( 'NONE', #125, #270, #414 ) ;
#147 = CIRCLE ( 'NONE', #448, 2.999999999999999112 ) ;
#148 = PRESENTATION_LAYER_ASSIGNMENT (  '', '', ( #266 ) ) ;
#149 = DIRECTION ( 'NONE',  ( 0.7071067811865469066, 8.659560562354926695E-17, -0.7071067811865482389 ) ) ;
#150 = CARTESIAN_POINT ( 'NONE',  ( -2.901639506146878045, -8.519518907301966593, 27.71281966940560437 ) ) ;
#151 = CARTESIAN_POINT ( 'NONE',  ( 1.984007748668727533, -8.779741040573220801, 48.75871086824247413 ) ) ;
#152 = DIRECTION ( 'NONE',  ( 1.000000000000000000, 0.000000000000000000, 0.000000000000000000 ) ) ;
#153 = ORIENTED_EDGE ( 'NONE', *, *, #407, .T. ) ;
#154 = CARTESIAN_POINT ( 'NONE',  ( -2.844143524245946963, -8.539150930870764711, 27.52580571669858145 ) ) ;
#155 = VECTOR ( 'NONE', #132, 1000.000000000000000 ) ;
#156 = ORIENTED_EDGE ( 'NONE', *, *, #215, .T. ) ;
#157 = LINE ( 'NONE', #219, #212 ) ;
#158 = CARTESIAN_POINT ( 'NONE',  ( 1.040834085500157583E-14, -9.000000000000000000, 49.50000000000000000 ) ) ;
#159 = CARTESIAN_POINT ( 'NONE',  ( 0.7838698549262861359, -8.967904882329031935, 25.59747205153633587 ) ) ;
#160 = CARTESIAN_POINT ( 'NONE',  ( -2.383518172110185684, -8.679382520702711545, 48.33224222750561694 ) ) ;
#161 = CARTESIAN_POINT ( 'NONE',  ( 0.000000000000000000, 0.000000000000000000, 52.50000000000000000 ) ) ;
#162 = VECTOR ( 'NONE', #304, 1000.000000000000000 ) ;
#163 = FACE_OUTER_BOUND ( 'NONE', #116, .T. ) ;
#164 = CARTESIAN_POINT ( 'NONE',  ( 1.040834085586084257E-14, -6.000000000000000000, 46.50000000000000000 ) ) ;
#165 = EDGE_CURVE ( 'NONE', #211, #209, #66, .T. ) ;
#166 = CARTESIAN_POINT ( 'NONE',  ( -0.3931297258116389082, -8.993512908210947288, 49.48070694522050417 ) ) ;
#167 = CARTESIAN_POINT ( 'NONE',  ( 0.000000000000000000, 0.000000000000000000, -52.50000000000000000 ) ) ;
#168 = LINE ( 'NONE', #170, #162 ) ;
#169 = PLANE ( 'NONE',  #354 ) ;
#170 = CARTESIAN_POINT ( 'NONE',  ( 3.000000000000008438, -111.0000000000000000, 28.50000000000000000 ) ) ;
#171 = VECTOR ( 'NONE', #383, 1000.000000000000000 ) ;
#172 = DIRECTION ( 'NONE',  ( 0.000000000000000000, 1.000000000000000000, 0.000000000000000000 ) ) ;
#173 = EDGE_CURVE ( 'NONE', #107, #7, #282, .T. ) ;
#174 = DIRECTION ( 'NONE',  ( -0.000000000000000000, -0.000000000000000000, 1.000000000000000000 ) ) ;
#175 = ORIENTED_EDGE ( 'NONE', *, *, #22, .T. ) ;
#176 = CARTESIAN_POINT ( 'NONE',  ( 8.376242739681159093E-15, -111.0000000000000000, 28.50000000000000000 ) ) ;
#177 = ORIENTED_EDGE ( 'NONE', *, *, #173, .T. ) ;
#178 = ADVANCED_FACE ( 'NONE', ( #423 ), #313, .T. ) ;
#179 = ORIENTED_EDGE ( 'NONE', *, *, #104, .T. ) ;
#180 = AXIS2_PLACEMENT_3D ( 'NONE', #410, #84, #365 ) ;
#181 = AXIS2_PLACEMENT_3D ( 'NONE', #164, #172, #51 ) ;
#182 = CARTESIAN_POINT ( 'NONE',  ( 0.9705301899670325527, -8.949407723703924233, 49.34554199501208416 ) ) ;
#183 = CARTESIAN_POINT ( 'NONE',  ( -2.979900905946544221, -8.492461647028319405, 28.10080670440753536 ) ) ;
#184 = AXIS2_PLACEMENT_3D ( 'NONE', #176, #36, #244 ) ;
#185 = EDGE_CURVE ( 'NONE', #61, #330, #20, .T. ) ;
#186 = ORIENTED_EDGE ( 'NONE', *, *, #173, .F. ) ;
#187 = DIRECTION ( 'NONE',  ( -0.7071067811865543451, 8.659560562355016675E-17, 0.7071067811865408004 ) ) ;
#188 = LINE ( 'NONE', #40, #306 ) ;
#189 = CYLINDRICAL_SURFACE ( 'NONE', #345, 3.000000000000002665 ) ;
#190 = EDGE_CURVE ( 'NONE', #398, #363, #53, .T. ) ;
#191 = ORIENTED_EDGE ( 'NONE', *, *, #267, .T. ) ;
#192 = CARTESIAN_POINT ( 'NONE',  ( -0.3943934708257303967, -8.993434178613794572, 25.51953296741041299 ) ) ;
#193 = CARTESIAN_POINT ( 'NONE',  ( 2.901769741831052851, -8.519474286710602584, 47.28666772050421940 ) ) ;
#194 = CARTESIAN_POINT ( 'NONE',  ( 1.040834085586084257E-14, -6.000000000000000000, 46.50000000000000000 ) ) ;
#195 = CARTESIAN_POINT ( 'NONE',  ( 1.040834085500157583E-14, -9.000000000000000000, 49.50000000000000000 ) ) ;
#196 = LINE ( 'NONE', #342, #155 ) ;
#197 = FACE_OUTER_BOUND ( 'NONE', #459, .T. ) ;
#198 = DIRECTION ( 'NONE',  ( 0.000000000000000000, 0.000000000000000000, -1.000000000000000000 ) ) ;
#199 = DIRECTION ( 'NONE',  ( 1.000000000000000000, 0.000000000000000000, 0.000000000000000000 ) ) ;
#200 = PRESENTATION_STYLE_ASSIGNMENT (( #236 ) ) ;
#201 = CARTESIAN_POINT ( 'NONE',  ( 0.000000000000000000, 0.000000000000000000, 52.50000000000000000 ) ) ;
#202 = CYLINDRICAL_SURFACE ( 'NONE', #138, 9.000000000000000000 ) ;
#203 = CARTESIAN_POINT ( 'NONE',  ( 0.000000000000000000, 0.000000000000000000, 51.49999999999999289 ) ) ;
#204 = ADVANCED_FACE ( 'NONE', ( #163 ), #449, .F. ) ;
#205 = FACE_OUTER_BOUND ( 'NONE', #9, .T. ) ;
#206 = CIRCLE ( 'NONE', #16, 7.999999999999992895 ) ;
#207 = CARTESIAN_POINT ( 'NONE',  ( 0.000000000000000000, 0.000000000000000000, -51.50000000000001421 ) ) ;
#208 = DIRECTION ( 'NONE',  ( -1.000000000000000000, 0.000000000000000000, 0.000000000000000000 ) ) ;
#209 = VERTEX_POINT ( 'NONE', #355 ) ;
#210 = FACE_OUTER_BOUND ( 'NONE', #426, .T. ) ;
#211 = VERTEX_POINT ( 'NONE', #96 ) ;
#212 = VECTOR ( 'NONE', #300, 1000.000000000000000 ) ;
#213 = CYLINDRICAL_SURFACE ( 'NONE', #184, 2.999999999999999112 ) ;
#214 = ORIENTED_EDGE ( 'NONE', *, *, #399, .T. ) ;
#215 = EDGE_CURVE ( 'NONE', #211, #7, #33, .T. ) ;
#216 = CARTESIAN_POINT ( 'NONE',  ( 0.000000000000000000, 0.000000000000000000, 52.50000000000000000 ) ) ;
#217 = PRODUCT ( 'Part12^Subassembly drive shaft gear', 'Part12^Subassembly drive shaft gear', '', ( #64 ) ) ;
#218 = ORIENTED_EDGE ( 'NONE', *, *, #185, .F. ) ;
#219 = CARTESIAN_POINT ( 'NONE',  ( -9.000000000000000000, 0.000000000000000000, 52.50000000000000000 ) ) ;
#220 = AXIS2_PLACEMENT_3D ( 'NONE', #203, #350, #199 ) ;
#221 = AXIS2_PLACEMENT_3D ( 'NONE', #326, #102, #98 ) ;
#222 = CARTESIAN_POINT ( 'NONE',  ( 3.000000000000010658, -8.485281374238564212, 46.69958384930728812 ) ) ;
#223 = CARTESIAN_POINT ( 'NONE',  ( 1.514930817284606768, -8.879021050564448458, 25.88133239731245894 ) ) ;
#224 = EDGE_CURVE ( 'NONE', #444, #397, #206, .T. ) ;
#225 = VERTEX_POINT ( 'NONE', #388 ) ;
#226 = CARTESIAN_POINT ( 'NONE',  ( 2.258808436415856047, -8.713077898639951968, 26.51620033304103430 ) ) ;
#227 = CARTESIAN_POINT ( 'NONE',  ( 2.382914664853796882, -8.679543164111368725, 48.33293817282079630 ) ) ;
#228 = CARTESIAN_POINT ( 'NONE',  ( -2.999999999999992006, -8.485281374238567764, 28.50000000000000000 ) ) ;
#229 = AXIS2_PLACEMENT_3D ( 'NONE', #207, #174, #152 ) ;
#230 = CARTESIAN_POINT ( 'NONE',  ( 1.040834085586084257E-14, -111.0000000000000000, 49.50000000000000000 ) ) ;
#231 = DIRECTION ( 'NONE',  ( -0.000000000000000000, -0.000000000000000000, -1.000000000000000000 ) ) ;
#232 = UNCERTAINTY_MEASURE_WITH_UNIT (LENGTH_MEASURE( 1.000000000000000082E-05 ), #285, 'distance_accuracy_value', 'NONE');
#233 = DIRECTION ( 'NONE',  ( -0.000000000000000000, 1.000000000000000000, -0.000000000000000000 ) ) ;
#234 = CARTESIAN_POINT ( 'NONE',  ( 0.000000000000000000, 0.000000000000000000, -52.50000000000000000 ) ) ;
#235 = CARTESIAN_POINT ( 'NONE',  ( -2.999999999999989786, -8.485281374238573093, 46.50000000000000000 ) ) ;
#236 = SURFACE_STYLE_USAGE ( .BOTH. , #384 ) ;
#237 = MECHANICAL_DESIGN_GEOMETRIC_PRESENTATION_REPRESENTATION (  '', ( #266 ), #425 ) ;
#238 = DIRECTION ( 'NONE',  ( 9.637352644315594010E-17, 0.000000000000000000, 1.000000000000000000 ) ) ;
#239 = LINE ( 'NONE', #452, #338 ) ;
#240 = PRODUCT_DEFINITION ( 'General', '', #402, #453 ) ;
#241 = CARTESIAN_POINT ( 'NONE',  ( -2.999999999999989786, -8.485281374238573093, 46.69983117574057019 ) ) ;
#242 = DIRECTION ( 'NONE',  ( 1.000000000000000000, 0.000000000000000000, 0.000000000000000000 ) ) ;
#243 = CONICAL_SURFACE ( 'NONE', #314, 7.999999999999992895, 0.7853981633974473908 ) ;
#244 = DIRECTION ( 'NONE',  ( 0.000000000000000000, 0.000000000000000000, 1.000000000000000000 ) ) ;
#245 = APPLICATION_PROTOCOL_DEFINITION ( 'draft international standard', 'automotive_design', 1998, #79 ) ;
#246 = ORIENTED_EDGE ( 'NONE', *, *, #141, .F. ) ;
#247 = ADVANCED_FACE ( 'NONE', ( #59 ), #298, .T. ) ;
#248 = CARTESIAN_POINT ( 'NONE',  ( 7.999999999999992895, 1.040949779275249943E-15, 52.50000000000000000 ) ) ;
#249 = ORIENTED_EDGE ( 'NONE', *, *, #52, .F. ) ;
#250 = ORIENTED_EDGE ( 'NONE', *, *, #62, .F. ) ;
#251 = VECTOR ( 'NONE', #233, 1000.000000000000000 ) ;
#252 = AXIS2_PLACEMENT_3D ( 'NONE', #194, #115, #261 ) ;
#253 = ADVANCED_FACE ( 'NONE', ( #409 ), #17, .F. ) ;
#254 = ORIENTED_EDGE ( 'NONE', *, *, #346, .F. ) ;
#255 = ORIENTED_EDGE ( 'NONE', *, *, #356, .F. ) ;
#256 = CARTESIAN_POINT ( 'NONE',  ( -7.999999999999992895, 0.000000000000000000, 52.50000000000000000 ) ) ;
#257 = DIRECTION ( 'NONE',  ( -0.000000000000000000, -0.000000000000000000, 1.000000000000000000 ) ) ;
#258 = CARTESIAN_POINT ( 'NONE',  ( 0.9743949605962973770, -8.948941949199683776, 25.65594245673623064 ) ) ;
#259 = EDGE_CURVE ( 'NONE', #330, #394, #375, .T. ) ;
#260 = ORIENTED_EDGE ( 'NONE', *, *, #407, .F. ) ;
#261 = DIRECTION ( 'NONE',  ( 0.000000000000000000, 0.000000000000000000, 1.000000000000000000 ) ) ;
#262 = CARTESIAN_POINT ( 'NONE',  ( 0.3972991690984789548, -8.993302502987308600, 49.48007142761202459 ) ) ;
#263 = CARTESIAN_POINT ( 'NONE',  ( -2.258892838145974746, -8.713070189660840015, 26.51618536490081723 ) ) ;
#264 = CARTESIAN_POINT ( 'NONE',  ( 0.000000000000000000, 0.000000000000000000, -51.50000000000001421 ) ) ;
#265 = CARTESIAN_POINT ( 'NONE',  ( -2.599411561834564566, -8.617182949674109693, 26.98968467633992319 ) ) ;
#266 = STYLED_ITEM ( 'NONE', ( #200 ), #417 ) ;
#267 = EDGE_CURVE ( 'NONE', #209, #107, #157, .T. ) ;
#268 = CARTESIAN_POINT ( 'NONE',  ( -0.7812760552145641135, -8.968134317516774701, 49.40323485101546197 ) ) ;
#269 = CARTESIAN_POINT ( 'NONE',  ( 8.376242739681159093E-15, -6.000000000000000000, 28.50000000000000000 ) ) ;
#270 = DIRECTION ( 'NONE',  ( -0.000000000000000000, 1.000000000000000000, -0.000000000000000000 ) ) ;
#271 = FILL_AREA_STYLE ('',( #308 ) ) ;
#272 = CARTESIAN_POINT ( 'NONE',  ( -9.000000000000000000, 0.000000000000000000, -51.50000000000001421 ) ) ;
#273 =( LENGTH_UNIT ( ) NAMED_UNIT ( * ) SI_UNIT ( .MILLI., .METRE. ) );
#274 = ADVANCED_FACE ( 'NONE', ( #72 ), #290, .T. ) ;
#275 = CIRCLE ( 'NONE', #180, 7.999999999999992895 ) ;
#276 = VECTOR ( 'NONE', #336, 1000.000000000000000 ) ;
#277 = LINE ( 'NONE', #387, #82 ) ;
#278 = CARTESIAN_POINT ( 'NONE',  ( 0.000000000000000000, 0.000000000000000000, 51.49999999999999289 ) ) ;
#279 = CARTESIAN_POINT ( 'NONE',  ( -2.903090122117986116, -8.519021868010426601, 47.28147349541733746 ) ) ;
#280 = DIRECTION ( 'NONE',  ( 0.000000000000000000, 0.000000000000000000, 1.000000000000000000 ) ) ;
#281 = EDGE_LOOP ( 'NONE', ( #320, #404, #145, #246 ) ) ;
#282 = CIRCLE ( 'NONE', #337, 9.000000000000000000 ) ;
#283 = EDGE_CURVE ( 'NONE', #397, #209, #331, .T. ) ;
#284 = ORIENTED_EDGE ( 'NONE', *, *, #52, .T. ) ;
#285 =( LENGTH_UNIT ( ) NAMED_UNIT ( * ) SI_UNIT ( .MILLI., .METRE. ) );
#286 = ORIENTED_EDGE ( 'NONE', *, *, #283, .F. ) ;
#287 = VERTEX_POINT ( 'NONE', #403 ) ;
#288 = EDGE_CURVE ( 'NONE', #394, #103, #439, .T. ) ;
#289 = ORIENTED_EDGE ( 'NONE', *, *, #361, .F. ) ;
#290 = CONICAL_SURFACE ( 'NONE', #122, 7.999999999999992895, 0.7853981633974473908 ) ;
#291 = ORIENTED_EDGE ( 'NONE', *, *, #389, .F. ) ;
#292 = CARTESIAN_POINT ( 'NONE',  ( -0.1940582010531923807, -9.000069240190681441, 25.49979227932346149 ) ) ;
#293 = CARTESIAN_POINT ( 'NONE',  ( 2.694088866357887913, -8.587672555557720244, 47.83418135900911494 ) ) ;
#294 = CARTESIAN_POINT ( 'NONE',  ( -1.982719576835313857, -8.780034855501286373, 26.24014592499981902 ) ) ;
#295 = CARTESIAN_POINT ( 'NONE',  ( -2.999999999999992006, -8.485281374238567764, 28.50000000000000000 ) ) ;
#296 = CARTESIAN_POINT ( 'NONE',  ( 3.000000000000008438, -111.0000000000000000, 28.50000000000000000 ) ) ;
#297 = VECTOR ( 'NONE', #309, 1000.000000000000000 ) ;
#298 = CONICAL_SURFACE ( 'NONE', #229, 9.000000000000000000, 0.7853981633974579379 ) ;
#299 = ORIENTED_EDGE ( 'NONE', *, *, #224, .T. ) ;
#300 = DIRECTION ( 'NONE',  ( -0.000000000000000000, -0.000000000000000000, -1.000000000000000000 ) ) ;
#301 = CARTESIAN_POINT ( 'NONE',  ( 0.7829208760733700201, -8.967963617333239768, 49.40270688241931651 ) ) ;
#302 = CARTESIAN_POINT ( 'NONE',  ( -0.7803738342988673082, -8.968189405539463976, 25.59659740633079039 ) ) ;
#303 = EDGE_CURVE ( 'NONE', #225, #61, #14, .T. ) ;
#304 = DIRECTION ( 'NONE',  ( -0.000000000000000000, 1.000000000000000000, -0.000000000000000000 ) ) ;
#305 = DIRECTION ( 'NONE',  ( 0.000000000000000000, 0.000000000000000000, 1.000000000000000000 ) ) ;
#306 = VECTOR ( 'NONE', #149, 999.9999999999998863 ) ;
#307 = CARTESIAN_POINT ( 'NONE',  ( -2.257862244182131217, -8.713325772094780319, 48.48488900993739747 ) ) ;
#308 = FILL_AREA_STYLE_COLOUR ( '', #395 ) ;
#309 = DIRECTION ( 'NONE',  ( -0.000000000000000000, -0.000000000000000000, -1.000000000000000000 ) ) ;
#310 = ADVANCED_FACE ( 'NONE', ( #377 ), #243, .T. ) ;
#311 = PLANE ( 'NONE',  #100 ) ;
#312 = DIRECTION ( 'NONE',  ( 1.000000000000000000, 0.000000000000000000, -0.000000000000000000 ) ) ;
#313 = CONICAL_SURFACE ( 'NONE', #378, 9.000000000000000000, 0.7853981633974579379 ) ;
#314 = AXIS2_PLACEMENT_3D ( 'NONE', #216, #329, #370 ) ;
#315 = CARTESIAN_POINT ( 'NONE',  ( -0.9720249034408491307, -8.949203418382943198, 49.34487799057291113 ) ) ;
#316 = CARTESIAN_POINT ( 'NONE',  ( 0.000000000000000000, 0.000000000000000000, 52.50000000000000000 ) ) ;
#317 = CARTESIAN_POINT ( 'NONE',  ( 9.000000000000000000, 1.102182119232617714E-15, 52.50000000000000000 ) ) ;
#318 = B_SPLINE_CURVE_WITH_KNOTS ( 'NONE', 3,
 ( #235, #241, #454, #279, #127, #418, #385, #160, #307, #348, #57, #315, #268, #166, #123, #195 ),
 .UNSPECIFIED., .F., .F.,
 ( 4, 2, 2, 2, 2, 2, 2, 4 ),
 ( 0.000000000000000000, 0.0005906230073307782097, 0.001181246014661556419, 0.001771869021992334738, 0.002362492029323112839, 0.003543738043984669475, 0.004134361051315451480, 0.004724984058646234351 ),
 .UNSPECIFIED. ) ;
#319 = EDGE_CURVE ( 'NONE', #339, #107, #434, .T. ) ;
#320 = ORIENTED_EDGE ( 'NONE', *, *, #28, .F. ) ;
#321 = AXIS2_PLACEMENT_3D ( 'NONE', #128, #351, #447 ) ;
#322 =( NAMED_UNIT ( * ) SI_UNIT ( $, .STERADIAN. ) SOLID_ANGLE_UNIT ( ) );
#323 = EDGE_LOOP ( 'NONE', ( #214, #156, #175, #38 ) ) ;
#324 = ORIENTED_EDGE ( 'NONE', *, *, #5, .F. ) ;
#325 = ADVANCED_FACE ( 'NONE', ( #436 ), #189, .F. ) ;
#326 = CARTESIAN_POINT ( 'NONE',  ( 0.000000000000000000, 0.000000000000000000, 0.000000000000000000 ) ) ;
#327 = EDGE_LOOP ( 'NONE', ( #438, #39, #218, #442 ) ) ;
#328 = ORIENTED_EDGE ( 'NONE', *, *, #165, .T. ) ;
#329 = DIRECTION ( 'NONE',  ( 0.000000000000000000, 0.000000000000000000, -1.000000000000000000 ) ) ;
#330 = VERTEX_POINT ( 'NONE', #26 ) ;
#331 = LINE ( 'NONE', #256, #431 ) ;
#332 = EDGE_CURVE ( 'NONE', #287, #339, #391, .T. ) ;
#333 = CARTESIAN_POINT ( 'NONE',  ( 1.040834085500157583E-14, -9.000000000000000000, 49.50000000000000000 ) ) ;
#334 = CARTESIAN_POINT ( 'NONE',  ( -9.000000000000000000, 1.102182119232617714E-15, -51.50000000000001421 ) ) ;
#335 = ORIENTED_EDGE ( 'NONE', *, *, #133, .F. ) ;
#336 = DIRECTION ( 'NONE',  ( 9.637352644315595243E-17, 0.000000000000000000, 1.000000000000000000 ) ) ;
#337 = AXIS2_PLACEMENT_3D ( 'NONE', #30, #455, #131 ) ;
#338 = VECTOR ( 'NONE', #413, 1000.000000000000000 ) ;
#339 = VERTEX_POINT ( 'NONE', #411 ) ;
#340 = CARTESIAN_POINT ( 'NONE',  ( 3.000000000000008438, -8.485281374238565988, 28.30030318028823544 ) ) ;
#341 = DIRECTION ( 'NONE',  ( -0.000000000000000000, 1.000000000000000000, -0.000000000000000000 ) ) ;
#342 = CARTESIAN_POINT ( 'NONE',  ( -2.999999999999990230, -111.0000000000000000, 46.50000000000000000 ) ) ;
#343 = DIRECTION ( 'NONE',  ( 0.000000000000000000, 0.000000000000000000, 1.000000000000000000 ) ) ;
#344 = DIRECTION ( 'NONE',  ( 1.000000000000000000, 0.000000000000000000, 0.000000000000000000 ) ) ;
#345 = AXIS2_PLACEMENT_3D ( 'NONE', #422, #56, #130 ) ;
#346 = EDGE_CURVE ( 'NONE', #397, #444, #67, .T. ) ;
#347 = LINE ( 'NONE', #91, #121 ) ;
#348 = CARTESIAN_POINT ( 'NONE',  ( -1.845666383292511981, -8.813255204463379400, 48.89675213225685724 ) ) ;
#349 = CARTESIAN_POINT ( 'NONE',  ( -2.999999999999990230, -6.000000000000000000, 46.50000000000000000 ) ) ;
#350 = DIRECTION ( 'NONE',  ( 0.000000000000000000, 0.000000000000000000, -1.000000000000000000 ) ) ;
#351 = DIRECTION ( 'NONE',  ( 0.000000000000000000, 0.000000000000000000, 1.000000000000000000 ) ) ;
#352 = VECTOR ( 'NONE', #456, 1000.000000000000000 ) ;
#353 = VECTOR ( 'NONE', #187, 1000.000000000000114 ) ;
#354 = AXIS2_PLACEMENT_3D ( 'NONE', #167, #305, #312 ) ;
#355 = CARTESIAN_POINT ( 'NONE',  ( -9.000000000000000000, 0.000000000000000000, 51.49999999999999289 ) ) ;
#356 = EDGE_CURVE ( 'NONE', #363, #330, #147, .T. ) ;
#357 = ORIENTED_EDGE ( 'NONE', *, *, #76, .T. ) ;
#358 = DIRECTION ( 'NONE',  ( 0.000000000000000000, 1.000000000000000000, 0.000000000000000000 ) ) ;
#359 = ORIENTED_EDGE ( 'NONE', *, *, #283, .T. ) ;
#360 = CLOSED_SHELL ( 'NONE', ( #325, #274, #178, #371, #427, #111, #416, #247, #310, #441, #253, #204, #83, #460 ) ) ;
#361 = EDGE_CURVE ( 'NONE', #368, #398, #239, .T. ) ;
#362 = CIRCLE ( 'NONE', #113, 9.000000000000000000 ) ;
#363 = VERTEX_POINT ( 'NONE', #382 ) ;
#364 = VERTEX_POINT ( 'NONE', #24 ) ;
#365 = DIRECTION ( 'NONE',  ( 1.000000000000000000, 0.000000000000000000, 0.000000000000000000 ) ) ;
#366 = CARTESIAN_POINT ( 'NONE',  ( 2.903219370115639020, -8.518977561982945090, 27.71904015982431702 ) ) ;
#367 = AXIS2_PLACEMENT_3D ( 'NONE', #201, #343, #25 ) ;
#368 = VERTEX_POINT ( 'NONE', #54 ) ;
#369 =( GEOMETRIC_REPRESENTATION_CONTEXT ( 3 ) GLOBAL_UNCERTAINTY_ASSIGNED_CONTEXT ( ( #232 ) ) GLOBAL_UNIT_ASSIGNED_CONTEXT ( ( #285, #139, #322 ) ) REPRESENTATION_CONTEXT ( 'NONE', 'WORKASPACE' ) );
#370 = DIRECTION ( 'NONE',  ( -1.000000000000000000, 0.000000000000000000, 0.000000000000000000 ) ) ;
#371 = ADVANCED_FACE ( 'NONE', ( #21 ), #202, .T. ) ;
#372 = DIRECTION ( 'NONE',  ( 1.000000000000000000, 0.000000000000000000, 0.000000000000000000 ) ) ;
#373 = CARTESIAN_POINT ( 'NONE',  ( -0.9681541731161795727, -8.949668379605453694, 25.65364085044605957 ) ) ;
#374 = ORIENTED_EDGE ( 'NONE', *, *, #399, .F. ) ;
#375 = LINE ( 'NONE', #47, #276 ) ;
#376 = CARTESIAN_POINT ( 'NONE',  ( 2.599936666271566388, -8.617022755512738996, 48.00939523542894705 ) ) ;
#377 = FACE_OUTER_BOUND ( 'NONE', #63, .T. ) ;
#378 = AXIS2_PLACEMENT_3D ( 'NONE', #379, #381, #50 ) ;
#379 = CARTESIAN_POINT ( 'NONE',  ( 0.000000000000000000, 0.000000000000000000, -51.50000000000001421 ) ) ;
#380 = DIRECTION ( 'NONE',  ( -1.000000000000000000, 0.000000000000000000, 0.000000000000000000 ) ) ;
#381 = DIRECTION ( 'NONE',  ( -0.000000000000000000, -0.000000000000000000, 1.000000000000000000 ) ) ;
#382 = CARTESIAN_POINT ( 'NONE',  ( 3.000000000000008438, -6.000000000000000000, 28.50000000000000000 ) ) ;
#383 = DIRECTION ( 'NONE',  ( -1.445602896647339410E-16, -0.000000000000000000, -1.000000000000000000 ) ) ;
#384 = SURFACE_SIDE_STYLE ('',( #90 ) ) ;
#385 = CARTESIAN_POINT ( 'NONE',  ( -2.601280481040912029, -8.616622289297284354, 48.00718622472132324 ) ) ;
#386 =( NAMED_UNIT ( * ) PLANE_ANGLE_UNIT ( ) SI_UNIT ( $, .RADIAN. ) );
#387 = CARTESIAN_POINT ( 'NONE',  ( 9.000000000000000000, 0.000000000000000000, -51.50000000000001421 ) ) ;
#388 = CARTESIAN_POINT ( 'NONE',  ( 3.000000000000008438, -8.485281374238567764, 28.50000000000000000 ) ) ;
#389 = EDGE_CURVE ( 'NONE', #103, #398, #32, .T. ) ;
#390 = CARTESIAN_POINT ( 'NONE',  ( 8.376242739681159093E-15, -6.000000000000000000, 28.50000000000000000 ) ) ;
#391 = CIRCLE ( 'NONE', #85, 7.999999999999992895 ) ;
#392 = ORIENTED_EDGE ( 'NONE', *, *, #165, .F. ) ;
#393 = ORIENTED_EDGE ( 'NONE', *, *, #118, .F. ) ;
#394 = VERTEX_POINT ( 'NONE', #349 ) ;
#395 = COLOUR_RGB ( '',0.7921568627450980005, 0.8196078431372548767, 0.9333333333333333481 ) ;
#396 = ORIENTED_EDGE ( 'NONE', *, *, #346, .T. ) ;
#397 = VERTEX_POINT ( 'NONE', #92 ) ;
#398 = VERTEX_POINT ( 'NONE', #124 ) ;
#399 = EDGE_CURVE ( 'NONE', #209, #211, #362, .T. ) ;
#400 = CARTESIAN_POINT ( 'NONE',  ( 2.693951614862278188, -8.587718935426156719, 27.16539855735081943 ) ) ;
#401 = CARTESIAN_POINT ( 'NONE',  ( 0.1971285389010782041, -8.999999999999998224, 49.49999999999999289 ) ) ;
#402 = PRODUCT_DEFINITION_FORMATION_WITH_SPECIFIED_SOURCE ( 'Symmetric', '', #217, .NOT_KNOWN. ) ;
#403 = CARTESIAN_POINT ( 'NONE',  ( 7.999999999999992895, 0.000000000000000000, -52.50000000000000000 ) ) ;
#404 = ORIENTED_EDGE ( 'NONE', *, *, #319, .T. ) ;
#405 = CARTESIAN_POINT ( 'NONE',  ( 3.000000000000008438, -8.485281374238567764, 28.50000000000000000 ) ) ;
#406 = APPLICATION_CONTEXT ( 'automotive_design' ) ;
#407 = EDGE_CURVE ( 'NONE', #364, #394, #196, .T. ) ;
#408 = CARTESIAN_POINT ( 'NONE',  ( 1.508256302856391118, -8.874244307610334559, 49.10057793248927283 ) ) ;
#409 = FACE_OUTER_BOUND ( 'NONE', #42, .T. ) ;
#410 = CARTESIAN_POINT ( 'NONE',  ( 0.000000000000000000, 0.000000000000000000, -52.50000000000000000 ) ) ;
#411 = CARTESIAN_POINT ( 'NONE',  ( -7.999999999999992895, 1.040949779275249943E-15, -52.50000000000000000 ) ) ;
#412 = LINE ( 'NONE', #421, #297 ) ;
#413 = DIRECTION ( 'NONE',  ( -0.000000000000000000, 1.000000000000000000, -0.000000000000000000 ) ) ;
#414 = DIRECTION ( 'NONE',  ( 0.000000000000000000, 0.000000000000000000, 1.000000000000000000 ) ) ;
#415 = DIRECTION ( 'NONE',  ( 0.000000000000000000, 1.000000000000000000, 0.000000000000000000 ) ) ;
#416 = ADVANCED_FACE ( 'NONE', ( #126 ), #169, .F. ) ;
#417 = MANIFOLD_SOLID_BREP ( 'Cut-Extrude1', #360 ) ;
#418 = CARTESIAN_POINT ( 'NONE',  ( -2.693550685028751612, -8.587845621821202258, 47.83542889600917647 ) ) ;
#419 = CIRCLE ( 'NONE', #73, 9.000000000000000000 ) ;
#420 = AXIS2_PLACEMENT_3D ( 'NONE', #296, #49, #440 ) ;
#421 = CARTESIAN_POINT ( 'NONE',  ( 3.000000000000011990, -8.485281374238565988, 52.50000000000000000 ) ) ;
#422 = CARTESIAN_POINT ( 'NONE',  ( 1.040834085586084257E-14, -111.0000000000000000, 46.50000000000000000 ) ) ;
#423 = FACE_OUTER_BOUND ( 'NONE', #281, .T. ) ;
#424 = APPLICATION_PROTOCOL_DEFINITION ( 'draft international standard', 'automotive_design', 1998, #406 ) ;
#425 =( GEOMETRIC_REPRESENTATION_CONTEXT ( 3 ) GLOBAL_UNCERTAINTY_ASSIGNED_CONTEXT ( ( #142 ) ) GLOBAL_UNIT_ASSIGNED_CONTEXT ( ( #273, #386, #95 ) ) REPRESENTATION_CONTEXT ( 'NONE', 'WORKASPACE' ) );
#426 = EDGE_LOOP ( 'NONE', ( #255, #1, #291, #106, #68 ) ) ;
#427 = ADVANCED_FACE ( 'NONE', ( #205, #31 ), #450, .T. ) ;
#428 = SHAPE_DEFINITION_REPRESENTATION ( #144, #105 ) ;
#429 = EDGE_LOOP ( 'NONE', ( #108, #284, #374, #286 ) ) ;
#430 = ORIENTED_EDGE ( 'NONE', *, *, #5, .T. ) ;
#431 = VECTOR ( 'NONE', #13, 999.9999999999998863 ) ;
#432 = EDGE_LOOP ( 'NONE', ( #71, #34, #140, #186 ) ) ;
#433 = ORIENTED_EDGE ( 'NONE', *, *, #215, .F. ) ;
#434 = LINE ( 'NONE', #334, #353 ) ;
#435 = CARTESIAN_POINT ( 'NONE',  ( 2.979928582684584271, -8.492451671845349992, 46.89892277346501714 ) ) ;
#436 = FACE_OUTER_BOUND ( 'NONE', #46, .T. ) ;
#437 = VECTOR ( 'NONE', #341, 1000.000000000000000 ) ;
#438 = ORIENTED_EDGE ( 'NONE', *, *, #62, .T. ) ;
#439 = CIRCLE ( 'NONE', #252, 3.000000000000002665 ) ;
#440 = DIRECTION ( 'NONE',  ( -1.445602896647339163E-16, 0.000000000000000000, -1.000000000000000000 ) ) ;
#441 = ADVANCED_FACE ( 'NONE', ( #97 ), #213, .F. ) ;
#442 = ORIENTED_EDGE ( 'NONE', *, *, #303, .F. ) ;
#443 = CARTESIAN_POINT ( 'NONE',  ( 0.2004283449780398518, -8.999929632622237108, 25.50021110223862308 ) ) ;
#444 = VERTEX_POINT ( 'NONE', #248 ) ;
#445 = CARTESIAN_POINT ( 'NONE',  ( 0.000000000000000000, 0.000000000000000000, 52.50000000000000000 ) ) ;
#446 = CARTESIAN_POINT ( 'NONE',  ( 1.040834085586084257E-14, -6.000000000000000000, 49.50000000000000000 ) ) ;
#447 = DIRECTION ( 'NONE',  ( 1.000000000000000000, 0.000000000000000000, 0.000000000000000000 ) ) ;
#448 = AXIS2_PLACEMENT_3D ( 'NONE', #269, #415, #88 ) ;
#449 = CYLINDRICAL_SURFACE ( 'NONE', #146, 3.000000000000002665 ) ;
#450 = CYLINDRICAL_SURFACE ( 'NONE', #60, 9.000000000000000000 ) ;
#451 = FACE_OUTER_BOUND ( 'NONE', #99, .T. ) ;
#452 = CARTESIAN_POINT ( 'NONE',  ( 3.000000000000011102, -111.0000000000000000, 46.50000000000000000 ) ) ;
#453 = PRODUCT_DEFINITION_CONTEXT ( 'detailed design', #79, 'design' ) ;
#454 = CARTESIAN_POINT ( 'NONE',  ( -2.980236203076834567, -8.492341138852648186, 46.89601168549550891 ) ) ;
#455 = DIRECTION ( 'NONE',  ( -0.000000000000000000, -0.000000000000000000, 1.000000000000000000 ) ) ;
#456 = DIRECTION ( 'NONE',  ( -0.000000000000000000, -0.000000000000000000, -1.000000000000000000 ) ) ;
#457 = ORIENTED_EDGE ( 'NONE', *, *, #259, .T. ) ;
#458 = PLANE ( 'NONE',  #6 ) ;
#459 = EDGE_LOOP ( 'NONE', ( #396, #299 ) ) ;
#460 = ADVANCED_FACE ( 'NONE', ( #210 ), #458, .F. ) ;
ENDSEC;
END-ISO-10303-21;
