ISO-10303-21;
HEADER;
FILE_DESCRIPTION (( 'STEP AP214' ),
    '1' );
FILE_NAME ('PIN 2X4.STEP',
    '2024-11-24T17:15:01',
    ( '' ),
    ( '' ),
    'SwSTEP 2.0',
    'SolidWorks 2024',
    '' );
FILE_SCHEMA (( 'AUTOMOTIVE_DESIGN' ));
ENDSEC;

DATA;
#1 = CARTESIAN_POINT ( 'NONE',  ( 1.000000000000000000, 0.000000000000000000, 0.3000000000000003775 ) ) ;
#2 = PRODUCT_CONTEXT ( 'NONE', #86, 'mechanical' ) ;
#3 = VERTEX_POINT ( 'NONE', #168 ) ;
#4 = MANIFOLD_SOLID_BREP ( 'Chamfer1', #48 ) ;
#5 = AXIS2_PLACEMENT_3D ( 'NONE', #77, #82, #162 ) ;
#6 = VECTOR ( 'NONE', #225, 1000.000000000000000 ) ;
#7 =( NAMED_UNIT ( * ) SI_UNIT ( $, .STERADIAN. ) SOLID_ANGLE_UNIT ( ) );
#8 = CIRCLE ( 'NONE', #89, 1.000000000000000000 ) ;
#9 = ORIENTED_EDGE ( 'NONE', *, *, #43, .T. ) ;
#10 = FILL_AREA_STYLE ('',( #11 ) ) ;
#11 = FILL_AREA_STYLE_COLOUR ( '', #35 ) ;
#12 = CYLINDRICAL_SURFACE ( 'NONE', #127, 1.000000000000000000 ) ;
#13 = CONICAL_SURFACE ( 'NONE', #193, 0.7000000000000005107, 0.7853981633974461696 ) ;
#14 = EDGE_CURVE ( 'NONE', #129, #52, #157, .T. ) ;
#15 = DIRECTION ( 'NONE',  ( -0.000000000000000000, -0.000000000000000000, -1.000000000000000000 ) ) ;
#16 = AXIS2_PLACEMENT_3D ( 'NONE', #61, #96, #214 ) ;
#17 = DIRECTION ( 'NONE',  ( 1.000000000000000000, 0.000000000000000000, -0.000000000000000000 ) ) ;
#18 = APPLICATION_PROTOCOL_DEFINITION ( 'draft international standard', 'automotive_design', 1998, #86 ) ;
#19 = VECTOR ( 'NONE', #210, 1000.000000000000114 ) ;
#20 = EDGE_LOOP ( 'NONE', ( #115, #70, #216, #71 ) ) ;
#21 = VECTOR ( 'NONE', #137, 1000.000000000000114 ) ;
#22 = ORIENTED_EDGE ( 'NONE', *, *, #140, .F. ) ;
#23 = ORIENTED_EDGE ( 'NONE', *, *, #87, .T. ) ;
#24 = DIRECTION ( 'NONE',  ( -0.000000000000000000, -0.000000000000000000, 1.000000000000000000 ) ) ;
#25 = AXIS2_PLACEMENT_3D ( 'NONE', #39, #151, #94 ) ;
#26 = CARTESIAN_POINT ( 'NONE',  ( 0.000000000000000000, 0.000000000000000000, 4.000000000000000000 ) ) ;
#27 = PLANE ( 'NONE',  #212 ) ;
#28 = DIRECTION ( 'NONE',  ( 1.000000000000000000, 0.000000000000000000, 0.000000000000000000 ) ) ;
#29 = DIRECTION ( 'NONE',  ( 0.000000000000000000, 0.000000000000000000, -1.000000000000000000 ) ) ;
#30 = FACE_OUTER_BOUND ( 'NONE', #126, .T. ) ;
#31 = ADVANCED_FACE ( 'NONE', ( #58 ), #27, .F. ) ;
#32 = FACE_OUTER_BOUND ( 'NONE', #172, .T. ) ;
#33 = AXIS2_PLACEMENT_3D ( 'NONE', #118, #79, #34 ) ;
#34 = DIRECTION ( 'NONE',  ( 1.000000000000000000, 0.000000000000000000, 0.000000000000000000 ) ) ;
#35 = COLOUR_RGB ( '',0.7921568627450980005, 0.8196078431372548767, 0.9333333333333333481 ) ;
#36 = CARTESIAN_POINT ( 'NONE',  ( 0.000000000000000000, 0.000000000000000000, 0.000000000000000000 ) ) ;
#37 = VERTEX_POINT ( 'NONE', #72 ) ;
#38 = VECTOR ( 'NONE', #155, 1000.000000000000114 ) ;
#39 = CARTESIAN_POINT ( 'NONE',  ( 0.000000000000000000, 0.000000000000000000, 3.699999999999999289 ) ) ;
#40 = ORIENTED_EDGE ( 'NONE', *, *, #164, .T. ) ;
#41 = DIRECTION ( 'NONE',  ( 1.000000000000000000, 0.000000000000000000, 0.000000000000000000 ) ) ;
#42 = CARTESIAN_POINT ( 'NONE',  ( 0.000000000000000000, 0.000000000000000000, 0.000000000000000000 ) ) ;
#43 = EDGE_CURVE ( 'NONE', #59, #37, #215, .T. ) ;
#44 = EDGE_LOOP ( 'NONE', ( #22, #200, #130, #123 ) ) ;
#45 = CARTESIAN_POINT ( 'NONE',  ( -1.000000000000000000, 1.224646799147353207E-16, 0.3000000000000003775 ) ) ;
#46 = DIRECTION ( 'NONE',  ( 1.000000000000000000, 0.000000000000000000, 0.000000000000000000 ) ) ;
#47 = EDGE_CURVE ( 'NONE', #124, #85, #105, .T. ) ;
#48 = CLOSED_SHELL ( 'NONE', ( #132, #128, #120, #112, #198, #31, #55, #81 ) ) ;
#49 = CARTESIAN_POINT ( 'NONE',  ( 1.000000000000000000, 1.224646799147353207E-16, 0.3000000000000003775 ) ) ;
#50 = FACE_OUTER_BOUND ( 'NONE', #54, .T. ) ;
#51 = CARTESIAN_POINT ( 'NONE',  ( 1.000000000000000000, 1.224646799147353207E-16, 4.000000000000000000 ) ) ;
#52 = VERTEX_POINT ( 'NONE', #199 ) ;
#53 =( NAMED_UNIT ( * ) SI_UNIT ( $, .STERADIAN. ) SOLID_ANGLE_UNIT ( ) );
#54 = EDGE_LOOP ( 'NONE', ( #163, #142 ) ) ;
#55 = ADVANCED_FACE ( 'NONE', ( #60 ), #69, .T. ) ;
#56 = ORIENTED_EDGE ( 'NONE', *, *, #202, .F. ) ;
#57 = EDGE_CURVE ( 'NONE', #3, #147, #133, .T. ) ;
#58 = FACE_OUTER_BOUND ( 'NONE', #106, .T. ) ;
#59 = VERTEX_POINT ( 'NONE', #93 ) ;
#60 = FACE_OUTER_BOUND ( 'NONE', #189, .T. ) ;
#61 = CARTESIAN_POINT ( 'NONE',  ( 0.000000000000000000, 0.000000000000000000, 0.3000000000000003775 ) ) ;
#62 = PRODUCT_RELATED_PRODUCT_CATEGORY ( 'part', '', ( #92 ) ) ;
#63 = DIRECTION ( 'NONE',  ( 0.000000000000000000, 0.000000000000000000, -1.000000000000000000 ) ) ;
#64 = CIRCLE ( 'NONE', #196, 0.7000000000000005107 ) ;
#65 = DIRECTION ( 'NONE',  ( -1.000000000000000000, 0.000000000000000000, 0.000000000000000000 ) ) ;
#66 = LINE ( 'NONE', #138, #38 ) ;
#67 = DIRECTION ( 'NONE',  ( 0.7071067811865490160, 0.000000000000000000, 0.7071067811865460184 ) ) ;
#68 =( NAMED_UNIT ( * ) PLANE_ANGLE_UNIT ( ) SI_UNIT ( $, .RADIAN. ) );
#69 = CONICAL_SURFACE ( 'NONE', #203, 1.000000000000000000, 0.7853981633974504994 ) ;
#70 = ORIENTED_EDGE ( 'NONE', *, *, #140, .T. ) ;
#71 = ORIENTED_EDGE ( 'NONE', *, *, #187, .F. ) ;
#72 = CARTESIAN_POINT ( 'NONE',  ( 1.000000000000000000, 1.224646799147353207E-16, 3.699999999999999289 ) ) ;
#73 = EDGE_CURVE ( 'NONE', #52, #85, #74, .T. ) ;
#74 = LINE ( 'NONE', #1, #102 ) ;
#75 = CARTESIAN_POINT ( 'NONE',  ( 0.000000000000000000, 0.000000000000000000, 4.000000000000000000 ) ) ;
#76 = PRODUCT_DEFINITION_CONTEXT ( 'detailed design', #108, 'design' ) ;
#77 = CARTESIAN_POINT ( 'NONE',  ( 0.000000000000000000, 0.000000000000000000, 0.000000000000000000 ) ) ;
#78 = CARTESIAN_POINT ( 'NONE',  ( 0.000000000000000000, 0.000000000000000000, 4.000000000000000000 ) ) ;
#79 = DIRECTION ( 'NONE',  ( -0.000000000000000000, -0.000000000000000000, 1.000000000000000000 ) ) ;
#80 = LINE ( 'NONE', #51, #176 ) ;
#81 = ADVANCED_FACE ( 'NONE', ( #207 ), #153, .T. ) ;
#82 = DIRECTION ( 'NONE',  ( 0.000000000000000000, 0.000000000000000000, 1.000000000000000000 ) ) ;
#83 = ORIENTED_EDGE ( 'NONE', *, *, #47, .F. ) ;
#84 = PRESENTATION_LAYER_ASSIGNMENT (  '', '', ( #169 ) ) ;
#85 = VERTEX_POINT ( 'NONE', #49 ) ;
#86 = APPLICATION_CONTEXT ( 'automotive_design' ) ;
#87 = EDGE_CURVE ( 'NONE', #129, #124, #160, .T. ) ;
#88 = ORIENTED_EDGE ( 'NONE', *, *, #104, .T. ) ;
#89 = AXIS2_PLACEMENT_3D ( 'NONE', #117, #63, #46 ) ;
#90 = DIRECTION ( 'NONE',  ( 1.000000000000000000, 0.000000000000000000, 0.000000000000000000 ) ) ;
#91 = SURFACE_STYLE_USAGE ( .BOTH. , #188 ) ;
#92 = PRODUCT ( 'PIN 2X4', 'PIN 2X4', '', ( #2 ) ) ;
#93 = CARTESIAN_POINT ( 'NONE',  ( -1.000000000000000000, 0.000000000000000000, 3.699999999999999289 ) ) ;
#94 = DIRECTION ( 'NONE',  ( 1.000000000000000000, 0.000000000000000000, 0.000000000000000000 ) ) ;
#95 = CONICAL_SURFACE ( 'NONE', #33, 1.000000000000000000, 0.7853981633974504994 ) ;
#96 = DIRECTION ( 'NONE',  ( -0.000000000000000000, -0.000000000000000000, 1.000000000000000000 ) ) ;
#97 = AXIS2_PLACEMENT_3D ( 'NONE', #78, #121, #209 ) ;
#98 = CARTESIAN_POINT ( 'NONE',  ( 0.000000000000000000, 0.000000000000000000, 0.3000000000000003775 ) ) ;
#99 = DIRECTION ( 'NONE',  ( -0.000000000000000000, -0.000000000000000000, 1.000000000000000000 ) ) ;
#100 = CARTESIAN_POINT ( 'NONE',  ( 0.000000000000000000, 0.000000000000000000, 4.000000000000000000 ) ) ;
#101 = PLANE ( 'NONE',  #143 ) ;
#102 = VECTOR ( 'NONE', #67, 1000.000000000000114 ) ;
#103 = DIRECTION ( 'NONE',  ( 0.000000000000000000, 0.000000000000000000, 1.000000000000000000 ) ) ;
#104 = EDGE_CURVE ( 'NONE', #37, #59, #8, .T. ) ;
#105 = CIRCLE ( 'NONE', #16, 1.000000000000000000 ) ;
#106 = EDGE_LOOP ( 'NONE', ( #125, #111 ) ) ;
#107 =( GEOMETRIC_REPRESENTATION_CONTEXT ( 3 ) GLOBAL_UNCERTAINTY_ASSIGNED_CONTEXT ( ( #219 ) ) GLOBAL_UNIT_ASSIGNED_CONTEXT ( ( #141, #68, #53 ) ) REPRESENTATION_CONTEXT ( 'NONE', 'WORKASPACE' ) );
#108 = APPLICATION_CONTEXT ( 'automotive_design' ) ;
#109 = DIRECTION ( 'NONE',  ( 1.000000000000000000, 0.000000000000000000, -0.000000000000000000 ) ) ;
#110 = UNCERTAINTY_MEASURE_WITH_UNIT (LENGTH_MEASURE( 1.000000000000000082E-05 ), #116, 'distance_accuracy_value', 'NONE');
#111 = ORIENTED_EDGE ( 'NONE', *, *, #14, .T. ) ;
#112 = ADVANCED_FACE ( 'NONE', ( #192 ), #206, .T. ) ;
#113 = AXIS2_PLACEMENT_3D ( 'NONE', #36, #15, #158 ) ;
#114 =( NAMED_UNIT ( * ) PLANE_ANGLE_UNIT ( ) SI_UNIT ( $, .RADIAN. ) );
#115 = ORIENTED_EDGE ( 'NONE', *, *, #217, .F. ) ;
#116 =( LENGTH_UNIT ( ) NAMED_UNIT ( * ) SI_UNIT ( .MILLI., .METRE. ) );
#117 = CARTESIAN_POINT ( 'NONE',  ( 0.000000000000000000, 0.000000000000000000, 3.699999999999999289 ) ) ;
#118 = CARTESIAN_POINT ( 'NONE',  ( 0.000000000000000000, 0.000000000000000000, 0.3000000000000003775 ) ) ;
#119 = CARTESIAN_POINT ( 'NONE',  ( 0.000000000000000000, 0.000000000000000000, 4.000000000000000000 ) ) ;
#120 = ADVANCED_FACE ( 'NONE', ( #32 ), #12, .T. ) ;
#121 = DIRECTION ( 'NONE',  ( -0.000000000000000000, -0.000000000000000000, -1.000000000000000000 ) ) ;
#122 = DIRECTION ( 'NONE',  ( -1.000000000000000000, 0.000000000000000000, 0.000000000000000000 ) ) ;
#123 = ORIENTED_EDGE ( 'NONE', *, *, #104, .F. ) ;
#124 = VERTEX_POINT ( 'NONE', #222 ) ;
#125 = ORIENTED_EDGE ( 'NONE', *, *, #148, .T. ) ;
#126 = EDGE_LOOP ( 'NONE', ( #183, #23, #213, #149 ) ) ;
#127 = AXIS2_PLACEMENT_3D ( 'NONE', #194, #221, #65 ) ;
#128 = ADVANCED_FACE ( 'NONE', ( #30 ), #95, .T. ) ;
#129 = VERTEX_POINT ( 'NONE', #211 ) ;
#130 = ORIENTED_EDGE ( 'NONE', *, *, #187, .T. ) ;
#131 = EDGE_LOOP ( 'NONE', ( #56, #88, #220, #150 ) ) ;
#132 = ADVANCED_FACE ( 'NONE', ( #135 ), #13, .T. ) ;
#133 = CIRCLE ( 'NONE', #178, 0.7000000000000005107 ) ;
#134 = ORIENTED_EDGE ( 'NONE', *, *, #148, .F. ) ;
#135 = FACE_OUTER_BOUND ( 'NONE', #20, .T. ) ;
#136 = CARTESIAN_POINT ( 'NONE',  ( 0.000000000000000000, 0.000000000000000000, 4.000000000000000000 ) ) ;
#137 = DIRECTION ( 'NONE',  ( -0.7071067811865490160, 8.659560562354952580E-17, 0.7071067811865460184 ) ) ;
#138 = CARTESIAN_POINT ( 'NONE',  ( -0.7000000000000005107, 0.000000000000000000, 4.000000000000000000 ) ) ;
#139 = LINE ( 'NONE', #191, #19 ) ;
#140 = EDGE_CURVE ( 'NONE', #147, #37, #139, .T. ) ;
#141 =( LENGTH_UNIT ( ) NAMED_UNIT ( * ) SI_UNIT ( .MILLI., .METRE. ) );
#142 = ORIENTED_EDGE ( 'NONE', *, *, #217, .T. ) ;
#143 = AXIS2_PLACEMENT_3D ( 'NONE', #136, #103, #17 ) ;
#144 = CIRCLE ( 'NONE', #161, 1.000000000000000000 ) ;
#145 = ORIENTED_EDGE ( 'NONE', *, *, #182, .F. ) ;
#146 = AXIS2_PLACEMENT_3D ( 'NONE', #42, #152, #28 ) ;
#147 = VERTEX_POINT ( 'NONE', #179 ) ;
#148 = EDGE_CURVE ( 'NONE', #52, #129, #185, .T. ) ;
#149 = ORIENTED_EDGE ( 'NONE', *, *, #73, .F. ) ;
#150 = ORIENTED_EDGE ( 'NONE', *, *, #47, .T. ) ;
#151 = DIRECTION ( 'NONE',  ( 0.000000000000000000, 0.000000000000000000, -1.000000000000000000 ) ) ;
#152 = DIRECTION ( 'NONE',  ( -0.000000000000000000, -0.000000000000000000, -1.000000000000000000 ) ) ;
#153 = CONICAL_SURFACE ( 'NONE', #173, 0.7000000000000005107, 0.7853981633974461696 ) ;
#154 = DIRECTION ( 'NONE',  ( 1.000000000000000000, 0.000000000000000000, 0.000000000000000000 ) ) ;
#155 = DIRECTION ( 'NONE',  ( -0.7071067811865461294, 0.000000000000000000, -0.7071067811865489050 ) ) ;
#156 = ADVANCED_BREP_SHAPE_REPRESENTATION ( 'PIN 2X4', ( #4, #5 ), #107 ) ;
#157 = CIRCLE ( 'NONE', #146, 0.6999999999999984013 ) ;
#158 = DIRECTION ( 'NONE',  ( 1.000000000000000000, 0.000000000000000000, 0.000000000000000000 ) ) ;
#159 = MECHANICAL_DESIGN_GEOMETRIC_PRESENTATION_REPRESENTATION (  '', ( #169 ), #204 ) ;
#160 = LINE ( 'NONE', #45, #21 ) ;
#161 = AXIS2_PLACEMENT_3D ( 'NONE', #98, #99, #175 ) ;
#162 = DIRECTION ( 'NONE',  ( 1.000000000000000000, 0.000000000000000000, 0.000000000000000000 ) ) ;
#163 = ORIENTED_EDGE ( 'NONE', *, *, #57, .T. ) ;
#164 = EDGE_CURVE ( 'NONE', #85, #124, #144, .T. ) ;
#165 = APPLICATION_PROTOCOL_DEFINITION ( 'draft international standard', 'automotive_design', 1998, #108 ) ;
#166 = PRODUCT_DEFINITION ( 'General', '', #223, #76 ) ;
#167 = DIRECTION ( 'NONE',  ( 0.000000000000000000, 0.000000000000000000, 1.000000000000000000 ) ) ;
#168 = CARTESIAN_POINT ( 'NONE',  ( -0.7000000000000005107, 0.000000000000000000, 4.000000000000000000 ) ) ;
#169 = STYLED_ITEM ( 'NONE', ( #184 ), #4 ) ;
#170 = ORIENTED_EDGE ( 'NONE', *, *, #87, .F. ) ;
#171 = ORIENTED_EDGE ( 'NONE', *, *, #202, .T. ) ;
#172 = EDGE_LOOP ( 'NONE', ( #9, #171, #40, #145 ) ) ;
#173 = AXIS2_PLACEMENT_3D ( 'NONE', #119, #29, #122 ) ;
#174 = DIRECTION ( 'NONE',  ( 0.000000000000000000, 0.000000000000000000, 1.000000000000000000 ) ) ;
#175 = DIRECTION ( 'NONE',  ( 1.000000000000000000, 0.000000000000000000, 0.000000000000000000 ) ) ;
#176 = VECTOR ( 'NONE', #180, 1000.000000000000000 ) ;
#177 = DIRECTION ( 'NONE',  ( 0.000000000000000000, 0.000000000000000000, -1.000000000000000000 ) ) ;
#178 = AXIS2_PLACEMENT_3D ( 'NONE', #26, #167, #41 ) ;
#179 = CARTESIAN_POINT ( 'NONE',  ( 0.7000000000000005107, 1.040949779275250263E-16, 4.000000000000000000 ) ) ;
#180 = DIRECTION ( 'NONE',  ( -0.000000000000000000, -0.000000000000000000, -1.000000000000000000 ) ) ;
#181 = SHAPE_DEFINITION_REPRESENTATION ( #208, #156 ) ;
#182 = EDGE_CURVE ( 'NONE', #59, #124, #195, .T. ) ;
#183 = ORIENTED_EDGE ( 'NONE', *, *, #14, .F. ) ;
#184 = PRESENTATION_STYLE_ASSIGNMENT (( #91 ) ) ;
#185 = CIRCLE ( 'NONE', #113, 0.6999999999999984013 ) ;
#186 = DIRECTION ( 'NONE',  ( 0.000000000000000000, 0.000000000000000000, 1.000000000000000000 ) ) ;
#187 = EDGE_CURVE ( 'NONE', #3, #59, #66, .T. ) ;
#188 = SURFACE_SIDE_STYLE ('',( #218 ) ) ;
#189 = EDGE_LOOP ( 'NONE', ( #170, #134, #197, #83 ) ) ;
#190 = DIRECTION ( 'NONE',  ( -1.000000000000000000, 0.000000000000000000, 0.000000000000000000 ) ) ;
#191 = CARTESIAN_POINT ( 'NONE',  ( 0.7000000000000005107, 8.572527594031476888E-17, 4.000000000000000000 ) ) ;
#192 = FACE_OUTER_BOUND ( 'NONE', #131, .T. ) ;
#193 = AXIS2_PLACEMENT_3D ( 'NONE', #100, #177, #190 ) ;
#194 = CARTESIAN_POINT ( 'NONE',  ( 0.000000000000000000, 0.000000000000000000, 4.000000000000000000 ) ) ;
#195 = LINE ( 'NONE', #224, #6 ) ;
#196 = AXIS2_PLACEMENT_3D ( 'NONE', #75, #174, #154 ) ;
#197 = ORIENTED_EDGE ( 'NONE', *, *, #73, .T. ) ;
#198 = ADVANCED_FACE ( 'NONE', ( #50 ), #101, .T. ) ;
#199 = CARTESIAN_POINT ( 'NONE',  ( 0.6999999999999984013, 0.000000000000000000, 0.000000000000000000 ) ) ;
#200 = ORIENTED_EDGE ( 'NONE', *, *, #57, .F. ) ;
#201 = CARTESIAN_POINT ( 'NONE',  ( 0.000000000000000000, 0.000000000000000000, 0.3000000000000003775 ) ) ;
#202 = EDGE_CURVE ( 'NONE', #37, #85, #80, .T. ) ;
#203 = AXIS2_PLACEMENT_3D ( 'NONE', #201, #24, #90 ) ;
#204 =( GEOMETRIC_REPRESENTATION_CONTEXT ( 3 ) GLOBAL_UNCERTAINTY_ASSIGNED_CONTEXT ( ( #110 ) ) GLOBAL_UNIT_ASSIGNED_CONTEXT ( ( #116, #114, #7 ) ) REPRESENTATION_CONTEXT ( 'NONE', 'WORKASPACE' ) );
#205 = CARTESIAN_POINT ( 'NONE',  ( 0.000000000000000000, 0.000000000000000000, 0.000000000000000000 ) ) ;
#206 = CYLINDRICAL_SURFACE ( 'NONE', #97, 1.000000000000000000 ) ;
#207 = FACE_OUTER_BOUND ( 'NONE', #44, .T. ) ;
#208 = PRODUCT_DEFINITION_SHAPE ( 'NONE', 'NONE',  #166 ) ;
#209 = DIRECTION ( 'NONE',  ( -1.000000000000000000, 0.000000000000000000, 0.000000000000000000 ) ) ;
#210 = DIRECTION ( 'NONE',  ( 0.7071067811865461294, 8.659560562354914369E-17, -0.7071067811865489050 ) ) ;
#211 = CARTESIAN_POINT ( 'NONE',  ( -0.6999999999999984013, 1.040949779275249277E-16, 0.000000000000000000 ) ) ;
#212 = AXIS2_PLACEMENT_3D ( 'NONE', #205, #186, #109 ) ;
#213 = ORIENTED_EDGE ( 'NONE', *, *, #164, .F. ) ;
#214 = DIRECTION ( 'NONE',  ( 1.000000000000000000, 0.000000000000000000, 0.000000000000000000 ) ) ;
#215 = CIRCLE ( 'NONE', #25, 1.000000000000000000 ) ;
#216 = ORIENTED_EDGE ( 'NONE', *, *, #43, .F. ) ;
#217 = EDGE_CURVE ( 'NONE', #147, #3, #64, .T. ) ;
#218 = SURFACE_STYLE_FILL_AREA ( #10 ) ;
#219 = UNCERTAINTY_MEASURE_WITH_UNIT (LENGTH_MEASURE( 1.000000000000000082E-05 ), #141, 'distance_accuracy_value', 'NONE');
#220 = ORIENTED_EDGE ( 'NONE', *, *, #182, .T. ) ;
#221 = DIRECTION ( 'NONE',  ( -0.000000000000000000, -0.000000000000000000, -1.000000000000000000 ) ) ;
#222 = CARTESIAN_POINT ( 'NONE',  ( -1.000000000000000000, 0.000000000000000000, 0.3000000000000003775 ) ) ;
#223 = PRODUCT_DEFINITION_FORMATION_WITH_SPECIFIED_SOURCE ( 'Symmetric', '', #92, .NOT_KNOWN. ) ;
#224 = CARTESIAN_POINT ( 'NONE',  ( -1.000000000000000000, 0.000000000000000000, 4.000000000000000000 ) ) ;
#225 = DIRECTION ( 'NONE',  ( -0.000000000000000000, -0.000000000000000000, -1.000000000000000000 ) ) ;
ENDSEC;
END-ISO-10303-21;
