ISO-10303-21;
HEADER;
FILE_DESCRIPTION (( 'STEP AP214' ),
    '1' );
FILE_NAME ('Sleeve.STEP',
    '2024-11-24T17:15:00',
    ( '' ),
    ( '' ),
    'SwSTEP 2.0',
    'SolidWorks 2024',
    '' );
FILE_SCHEMA (( 'AUTOMOTIVE_DESIGN' ));
ENDSEC;

DATA;
#1 = DIRECTION ( 'NONE',  ( 0.000000000000000000, 0.000000000000000000, 1.000000000000000000 ) ) ;
#2 = FACE_OUTER_BOUND ( 'NONE', #169, .T. ) ;
#3 = STYLED_ITEM ( 'NONE', ( #110 ), #135 ) ;
#4 = ADVANCED_FACE ( 'NONE', ( #151, #297 ), #223, .F. ) ;
#5 = CARTESIAN_POINT ( 'NONE',  ( 0.000000000000000000, 0.000000000000000000, 7.249999999999999112 ) ) ;
#6 = EDGE_CURVE ( 'NONE', #108, #122, #63, .T. ) ;
#7 = CIRCLE ( 'NONE', #175, 9.999999999999998224 ) ;
#8 = EDGE_LOOP ( 'NONE', ( #213, #98 ) ) ;
#9 = AXIS2_PLACEMENT_3D ( 'NONE', #138, #231, #25 ) ;
#10 = ORIENTED_EDGE ( 'NONE', *, *, #79, .F. ) ;
#11 = ORIENTED_EDGE ( 'NONE', *, *, #206, .F. ) ;
#12 = MECHANICAL_DESIGN_GEOMETRIC_PRESENTATION_REPRESENTATION (  '', ( #3 ), #46 ) ;
#13 = CONICAL_SURFACE ( 'NONE', #117, 9.499999999999996447, 0.7853981633974482790 ) ;
#14 = DIRECTION ( 'NONE',  ( -0.000000000000000000, -0.000000000000000000, -1.000000000000000000 ) ) ;
#15 = CARTESIAN_POINT ( 'NONE',  ( 0.000000000000000000, 0.000000000000000000, 7.750000000000000000 ) ) ;
#16 = AXIS2_PLACEMENT_3D ( 'NONE', #161, #45, #22 ) ;
#17 = CLOSED_SHELL ( 'NONE', ( #40, #187, #87, #146, #283, #4, #69, #94, #277, #268 ) ) ;
#18 = DIRECTION ( 'NONE',  ( -1.000000000000000000, 0.000000000000000000, 0.000000000000000000 ) ) ;
#19 = VECTOR ( 'NONE', #150, 1000.000000000000114 ) ;
#20 = SURFACE_STYLE_USAGE ( .BOTH. , #159 ) ;
#21 = CIRCLE ( 'NONE', #228, 9.999999999999998224 ) ;
#22 = DIRECTION ( 'NONE',  ( -1.000000000000000000, 0.000000000000000000, 0.000000000000000000 ) ) ;
#23 = DIRECTION ( 'NONE',  ( -1.000000000000000000, 0.000000000000000000, 0.000000000000000000 ) ) ;
#24 = CIRCLE ( 'NONE', #9, 9.999999999999998224 ) ;
#25 = DIRECTION ( 'NONE',  ( 1.000000000000000000, 0.000000000000000000, 0.000000000000000000 ) ) ;
#26 = VECTOR ( 'NONE', #111, 1000.000000000000000 ) ;
#27 = CARTESIAN_POINT ( 'NONE',  ( -9.999999999999998224, 0.000000000000000000, 7.750000000000000000 ) ) ;
#28 = EDGE_CURVE ( 'NONE', #193, #171, #88, .T. ) ;
#29 = ORIENTED_EDGE ( 'NONE', *, *, #58, .T. ) ;
#30 = CARTESIAN_POINT ( 'NONE',  ( 0.000000000000000000, 0.000000000000000000, 7.249999999999999112 ) ) ;
#31 = VECTOR ( 'NONE', #14, 1000.000000000000000 ) ;
#32 = ORIENTED_EDGE ( 'NONE', *, *, #241, .F. ) ;
#33 = PRODUCT ( 'Sleeve', 'Sleeve', '', ( #178 ) ) ;
#34 = EDGE_LOOP ( 'NONE', ( #258, #132, #41, #32 ) ) ;
#35 = DIRECTION ( 'NONE',  ( 0.000000000000000000, 0.000000000000000000, 1.000000000000000000 ) ) ;
#36 = ORIENTED_EDGE ( 'NONE', *, *, #163, .F. ) ;
#37 = DIRECTION ( 'NONE',  ( 0.000000000000000000, 0.000000000000000000, 1.000000000000000000 ) ) ;
#38 = CARTESIAN_POINT ( 'NONE',  ( 9.999999999999998224, 1.224646799147353059E-15, 7.750000000000000000 ) ) ;
#39 = ORIENTED_EDGE ( 'NONE', *, *, #179, .F. ) ;
#40 = ADVANCED_FACE ( 'NONE', ( #270 ), #114, .F. ) ;
#41 = ORIENTED_EDGE ( 'NONE', *, *, #139, .T. ) ;
#42 = DIRECTION ( 'NONE',  ( 1.000000000000000000, 0.000000000000000000, 0.000000000000000000 ) ) ;
#43 = APPLICATION_PROTOCOL_DEFINITION ( 'draft international standard', 'automotive_design', 1998, #208 ) ;
#44 = FACE_BOUND ( 'NONE', #125, .T. ) ;
#45 = DIRECTION ( 'NONE',  ( -0.000000000000000000, -0.000000000000000000, -1.000000000000000000 ) ) ;
#46 =( GEOMETRIC_REPRESENTATION_CONTEXT ( 3 ) GLOBAL_UNCERTAINTY_ASSIGNED_CONTEXT ( ( #290 ) ) GLOBAL_UNIT_ASSIGNED_CONTEXT ( ( #207, #271, #162 ) ) REPRESENTATION_CONTEXT ( 'NONE', 'WORKASPACE' ) );
#47 = CYLINDRICAL_SURFACE ( 'NONE', #136, 8.999999999999998224 ) ;
#48 = CARTESIAN_POINT ( 'NONE',  ( 0.000000000000000000, 0.000000000000000000, 7.750000000000000000 ) ) ;
#49 = CONICAL_SURFACE ( 'NONE', #143, 9.499999999999996447, 0.7853981633974482790 ) ;
#50 = CYLINDRICAL_SURFACE ( 'NONE', #16, 8.999999999999998224 ) ;
#51 = EDGE_CURVE ( 'NONE', #215, #293, #81, .T. ) ;
#52 = EDGE_LOOP ( 'NONE', ( #142, #131 ) ) ;
#53 = DIRECTION ( 'NONE',  ( -1.000000000000000000, 0.000000000000000000, 0.000000000000000000 ) ) ;
#54 = CIRCLE ( 'NONE', #160, 9.499999999999998224 ) ;
#55 = PRODUCT_DEFINITION_FORMATION_WITH_SPECIFIED_SOURCE ( 'Symmetric', '', #33, .NOT_KNOWN. ) ;
#56 = ORIENTED_EDGE ( 'NONE', *, *, #292, .F. ) ;
#57 = ORIENTED_EDGE ( 'NONE', *, *, #120, .F. ) ;
#58 = EDGE_CURVE ( 'NONE', #122, #144, #188, .T. ) ;
#59 = CARTESIAN_POINT ( 'NONE',  ( -9.499999999999996447, 0.000000000000000000, -7.750000000000000000 ) ) ;
#60 = ORIENTED_EDGE ( 'NONE', *, *, #236, .F. ) ;
#61 = CARTESIAN_POINT ( 'NONE',  ( 9.499999999999996447, 1.163414459189985091E-15, -7.750000000000000000 ) ) ;
#62 = DIRECTION ( 'NONE',  ( -0.000000000000000000, -0.000000000000000000, -1.000000000000000000 ) ) ;
#63 = LINE ( 'NONE', #247, #214 ) ;
#64 = DIRECTION ( 'NONE',  ( 0.000000000000000000, 0.000000000000000000, 1.000000000000000000 ) ) ;
#65 = DIRECTION ( 'NONE',  ( -0.7071067811865474617, 8.659560562354932858E-17, 0.7071067811865474617 ) ) ;
#66 = AXIS2_PLACEMENT_3D ( 'NONE', #194, #37, #154 ) ;
#67 = FACE_OUTER_BOUND ( 'NONE', #75, .T. ) ;
#68 = SURFACE_STYLE_FILL_AREA ( #230 ) ;
#69 = ADVANCED_FACE ( 'NONE', ( #197 ), #266, .T. ) ;
#70 = CARTESIAN_POINT ( 'NONE',  ( 0.000000000000000000, 0.000000000000000000, -7.750000000000000000 ) ) ;
#71 = CARTESIAN_POINT ( 'NONE',  ( 0.000000000000000000, 0.000000000000000000, 7.750000000000000000 ) ) ;
#72 = EDGE_LOOP ( 'NONE', ( #10, #235 ) ) ;
#73 = ORIENTED_EDGE ( 'NONE', *, *, #206, .T. ) ;
#74 = ORIENTED_EDGE ( 'NONE', *, *, #211, .F. ) ;
#75 = EDGE_LOOP ( 'NONE', ( #191, #39, #250, #56 ) ) ;
#76 = CARTESIAN_POINT ( 'NONE',  ( -9.499999999999996447, 0.000000000000000000, -7.750000000000000000 ) ) ;
#77 = ORIENTED_EDGE ( 'NONE', *, *, #153, .T. ) ;
#78 = DIRECTION ( 'NONE',  ( -0.000000000000000000, -0.000000000000000000, -1.000000000000000000 ) ) ;
#79 = EDGE_CURVE ( 'NONE', #123, #293, #21, .T. ) ;
#80 = CARTESIAN_POINT ( 'NONE',  ( 0.000000000000000000, 0.000000000000000000, -7.750000000000000000 ) ) ;
#81 = LINE ( 'NONE', #220, #203 ) ;
#82 = CARTESIAN_POINT ( 'NONE',  ( -8.999999999999998224, 0.000000000000000000, 7.249999999999999112 ) ) ;
#83 = ORIENTED_EDGE ( 'NONE', *, *, #51, .F. ) ;
#84 = CARTESIAN_POINT ( 'NONE',  ( -9.999999999999998224, 0.000000000000000000, 7.750000000000000000 ) ) ;
#85 = DIRECTION ( 'NONE',  ( 1.000000000000000000, 0.000000000000000000, 0.000000000000000000 ) ) ;
#86 = DIRECTION ( 'NONE',  ( 0.000000000000000000, 0.000000000000000000, 1.000000000000000000 ) ) ;
#87 = ADVANCED_FACE ( 'NONE', ( #256 ), #50, .F. ) ;
#88 = CIRCLE ( 'NONE', #204, 9.499999999999996447 ) ;
#89 = CARTESIAN_POINT ( 'NONE',  ( 0.000000000000000000, 0.000000000000000000, -7.750000000000000000 ) ) ;
#90 = EDGE_CURVE ( 'NONE', #171, #193, #121, .T. ) ;
#91 = DIRECTION ( 'NONE',  ( 1.000000000000000000, 0.000000000000000000, 0.000000000000000000 ) ) ;
#92 = DIRECTION ( 'NONE',  ( 0.000000000000000000, 0.000000000000000000, 1.000000000000000000 ) ) ;
#93 = CARTESIAN_POINT ( 'NONE',  ( -9.499999999999998224, 1.163414459189985288E-15, 7.750000000000000000 ) ) ;
#94 = ADVANCED_FACE ( 'NONE', ( #2 ), #47, .F. ) ;
#95 = PRODUCT_DEFINITION_SHAPE ( 'NONE', 'NONE',  #248 ) ;
#96 = DIRECTION ( 'NONE',  ( -0.000000000000000000, -0.000000000000000000, -1.000000000000000000 ) ) ;
#97 = ORIENTED_EDGE ( 'NONE', *, *, #107, .F. ) ;
#98 = ORIENTED_EDGE ( 'NONE', *, *, #133, .T. ) ;
#99 = LINE ( 'NONE', #102, #172 ) ;
#100 = ORIENTED_EDGE ( 'NONE', *, *, #58, .F. ) ;
#101 = CIRCLE ( 'NONE', #253, 8.999999999999998224 ) ;
#102 = CARTESIAN_POINT ( 'NONE',  ( -8.999999999999998224, 1.102182119232617517E-15, 7.249999999999999112 ) ) ;
#103 = EDGE_LOOP ( 'NONE', ( #11, #60, #261, #104 ) ) ;
#104 = ORIENTED_EDGE ( 'NONE', *, *, #90, .F. ) ;
#105 = LINE ( 'NONE', #200, #148 ) ;
#106 = UNCERTAINTY_MEASURE_WITH_UNIT (LENGTH_MEASURE( 1.000000000000000082E-05 ), #260, 'distance_accuracy_value', 'NONE');
#107 = EDGE_CURVE ( 'NONE', #237, #108, #275, .T. ) ;
#108 = VERTEX_POINT ( 'NONE', #182 ) ;
#109 = SHAPE_DEFINITION_REPRESENTATION ( #95, #246 ) ;
#110 = PRESENTATION_STYLE_ASSIGNMENT (( #20 ) ) ;
#111 = DIRECTION ( 'NONE',  ( -0.000000000000000000, -0.000000000000000000, -1.000000000000000000 ) ) ;
#112 = CARTESIAN_POINT ( 'NONE',  ( 0.000000000000000000, 0.000000000000000000, 7.750000000000000000 ) ) ;
#113 = CARTESIAN_POINT ( 'NONE',  ( 0.000000000000000000, 0.000000000000000000, 7.750000000000000000 ) ) ;
#114 = CONICAL_SURFACE ( 'NONE', #265, 8.999999999999998224, 0.7853981633974482790 ) ;
#115 = CARTESIAN_POINT ( 'NONE',  ( -8.999999999999998224, 0.000000000000000000, 7.750000000000000000 ) ) ;
#116 = ORIENTED_EDGE ( 'NONE', *, *, #107, .T. ) ;
#117 = AXIS2_PLACEMENT_3D ( 'NONE', #257, #251, #53 ) ;
#118 = FACE_OUTER_BOUND ( 'NONE', #103, .T. ) ;
#119 = VERTEX_POINT ( 'NONE', #27 ) ;
#120 = EDGE_CURVE ( 'NONE', #237, #166, #229, .T. ) ;
#121 = CIRCLE ( 'NONE', #282, 9.499999999999996447 ) ;
#122 = VERTEX_POINT ( 'NONE', #210 ) ;
#123 = VERTEX_POINT ( 'NONE', #254 ) ;
#124 = AXIS2_PLACEMENT_3D ( 'NONE', #181, #35, #190 ) ;
#125 = EDGE_LOOP ( 'NONE', ( #29, #259 ) ) ;
#126 = DIRECTION ( 'NONE',  ( -0.000000000000000000, -0.000000000000000000, -1.000000000000000000 ) ) ;
#127 = DIRECTION ( 'NONE',  ( 1.000000000000000000, 0.000000000000000000, 0.000000000000000000 ) ) ;
#128 =( NAMED_UNIT ( * ) SI_UNIT ( $, .STERADIAN. ) SOLID_ANGLE_UNIT ( ) );
#129 = EDGE_CURVE ( 'NONE', #119, #215, #7, .T. ) ;
#130 = COLOUR_RGB ( '',0.7921568627450980005, 0.8196078431372548767, 0.9333333333333333481 ) ;
#131 = ORIENTED_EDGE ( 'NONE', *, *, #90, .T. ) ;
#132 = ORIENTED_EDGE ( 'NONE', *, *, #51, .T. ) ;
#133 = EDGE_CURVE ( 'NONE', #215, #119, #145, .T. ) ;
#134 = DIRECTION ( 'NONE',  ( 1.000000000000000000, 0.000000000000000000, 0.000000000000000000 ) ) ;
#135 = MANIFOLD_SOLID_BREP ( 'Chamfer1', #17 ) ;
#136 = AXIS2_PLACEMENT_3D ( 'NONE', #252, #96, #23 ) ;
#137 = DIRECTION ( 'NONE',  ( -1.000000000000000000, 0.000000000000000000, 0.000000000000000000 ) ) ;
#138 = CARTESIAN_POINT ( 'NONE',  ( 0.000000000000000000, 0.000000000000000000, -7.750000000000000000 ) ) ;
#139 = EDGE_CURVE ( 'NONE', #293, #123, #24, .T. ) ;
#140 = DIRECTION ( 'NONE',  ( 1.000000000000000000, 0.000000000000000000, 0.000000000000000000 ) ) ;
#141 = PRESENTATION_LAYER_ASSIGNMENT (  '', '', ( #3 ) ) ;
#142 = ORIENTED_EDGE ( 'NONE', *, *, #28, .T. ) ;
#143 = AXIS2_PLACEMENT_3D ( 'NONE', #80, #62, #284 ) ;
#144 = VERTEX_POINT ( 'NONE', #93 ) ;
#145 = CIRCLE ( 'NONE', #222, 9.999999999999998224 ) ;
#146 = ADVANCED_FACE ( 'NONE', ( #183 ), #276, .T. ) ;
#147 = PRODUCT_DEFINITION_CONTEXT ( 'detailed design', #221, 'design' ) ;
#148 = VECTOR ( 'NONE', #263, 1000.000000000000000 ) ;
#149 = CARTESIAN_POINT ( 'NONE',  ( 0.000000000000000000, 0.000000000000000000, -7.250000000000000888 ) ) ;
#150 = DIRECTION ( 'NONE',  ( 0.7071067811865474617, 8.659560562354932858E-17, -0.7071067811865474617 ) ) ;
#151 = FACE_BOUND ( 'NONE', #52, .T. ) ;
#152 = LINE ( 'NONE', #59, #233 ) ;
#153 = EDGE_CURVE ( 'NONE', #237, #144, #99, .T. ) ;
#154 = DIRECTION ( 'NONE',  ( 1.000000000000000000, 0.000000000000000000, -0.000000000000000000 ) ) ;
#155 = FACE_OUTER_BOUND ( 'NONE', #269, .T. ) ;
#156 = AXIS2_PLACEMENT_3D ( 'NONE', #5, #299, #134 ) ;
#157 = ORIENTED_EDGE ( 'NONE', *, *, #163, .T. ) ;
#158 = DIRECTION ( 'NONE',  ( 0.000000000000000000, 0.000000000000000000, 1.000000000000000000 ) ) ;
#159 = SURFACE_SIDE_STYLE ('',( #68 ) ) ;
#160 = AXIS2_PLACEMENT_3D ( 'NONE', #286, #78, #216 ) ;
#161 = CARTESIAN_POINT ( 'NONE',  ( 0.000000000000000000, 0.000000000000000000, 7.750000000000000000 ) ) ;
#162 =( NAMED_UNIT ( * ) SI_UNIT ( $, .STERADIAN. ) SOLID_ANGLE_UNIT ( ) );
#163 = EDGE_CURVE ( 'NONE', #108, #281, #105, .T. ) ;
#164 = DIRECTION ( 'NONE',  ( -0.000000000000000000, -0.000000000000000000, -1.000000000000000000 ) ) ;
#165 = PRODUCT_RELATED_PRODUCT_CATEGORY ( 'part', '', ( #33 ) ) ;
#166 = VERTEX_POINT ( 'NONE', #287 ) ;
#167 = DIRECTION ( 'NONE',  ( 1.000000000000000000, 0.000000000000000000, 0.000000000000000000 ) ) ;
#168 = ORIENTED_EDGE ( 'NONE', *, *, #176, .F. ) ;
#169 = EDGE_LOOP ( 'NONE', ( #36, #280, #295, #192 ) ) ;
#170 = CARTESIAN_POINT ( 'NONE',  ( 9.499999999999996447, 1.163414459189985091E-15, -7.750000000000000000 ) ) ;
#171 = VERTEX_POINT ( 'NONE', #170 ) ;
#172 = VECTOR ( 'NONE', #65, 1000.000000000000114 ) ;
#173 = LINE ( 'NONE', #61, #19 ) ;
#174 = ORIENTED_EDGE ( 'NONE', *, *, #79, .T. ) ;
#175 = AXIS2_PLACEMENT_3D ( 'NONE', #112, #1, #91 ) ;
#176 = EDGE_CURVE ( 'NONE', #166, #193, #152, .T. ) ;
#177 = CARTESIAN_POINT ( 'NONE',  ( 0.000000000000000000, 0.000000000000000000, -7.750000000000000000 ) ) ;
#178 = PRODUCT_CONTEXT ( 'NONE', #208, 'mechanical' ) ;
#179 = EDGE_CURVE ( 'NONE', #108, #237, #101, .T. ) ;
#180 = DIRECTION ( 'NONE',  ( 0.000000000000000000, 0.000000000000000000, 1.000000000000000000 ) ) ;
#181 = CARTESIAN_POINT ( 'NONE',  ( 0.000000000000000000, 0.000000000000000000, 7.750000000000000000 ) ) ;
#182 = CARTESIAN_POINT ( 'NONE',  ( 8.999999999999998224, 1.102182119232617517E-15, 7.249999999999999112 ) ) ;
#183 = FACE_OUTER_BOUND ( 'NONE', #34, .T. ) ;
#184 = DIRECTION ( 'NONE',  ( 0.000000000000000000, 0.000000000000000000, 1.000000000000000000 ) ) ;
#185 = AXIS2_PLACEMENT_3D ( 'NONE', #217, #249, #196 ) ;
#186 = AXIS2_PLACEMENT_3D ( 'NONE', #149, #244, #127 ) ;
#187 = ADVANCED_FACE ( 'NONE', ( #155 ), #49, .F. ) ;
#188 = CIRCLE ( 'NONE', #242, 9.499999999999998224 ) ;
#189 = ORIENTED_EDGE ( 'NONE', *, *, #6, .F. ) ;
#190 = DIRECTION ( 'NONE',  ( 1.000000000000000000, 0.000000000000000000, -0.000000000000000000 ) ) ;
#191 = ORIENTED_EDGE ( 'NONE', *, *, #153, .F. ) ;
#192 = ORIENTED_EDGE ( 'NONE', *, *, #236, .T. ) ;
#193 = VERTEX_POINT ( 'NONE', #76 ) ;
#194 = CARTESIAN_POINT ( 'NONE',  ( 0.000000000000000000, 0.000000000000000000, -7.750000000000000000 ) ) ;
#195 = AXIS2_PLACEMENT_3D ( 'NONE', #71, #126, #18 ) ;
#196 = DIRECTION ( 'NONE',  ( 1.000000000000000000, 0.000000000000000000, 0.000000000000000000 ) ) ;
#197 = FACE_OUTER_BOUND ( 'NONE', #212, .T. ) ;
#198 = AXIS2_PLACEMENT_3D ( 'NONE', #48, #164, #137 ) ;
#199 = CARTESIAN_POINT ( 'NONE',  ( 0.000000000000000000, 0.000000000000000000, 7.249999999999999112 ) ) ;
#200 = CARTESIAN_POINT ( 'NONE',  ( 8.999999999999998224, 1.102182119232617517E-15, 7.750000000000000000 ) ) ;
#201 = DIRECTION ( 'NONE',  ( 0.7071067811865474617, 0.000000000000000000, 0.7071067811865474617 ) ) ;
#202 = FACE_OUTER_BOUND ( 'NONE', #8, .T. ) ;
#203 = VECTOR ( 'NONE', #243, 1000.000000000000000 ) ;
#204 = AXIS2_PLACEMENT_3D ( 'NONE', #177, #180, #42 ) ;
#205 = DIRECTION ( 'NONE',  ( 1.000000000000000000, 0.000000000000000000, 0.000000000000000000 ) ) ;
#206 = EDGE_CURVE ( 'NONE', #281, #171, #173, .T. ) ;
#207 =( LENGTH_UNIT ( ) NAMED_UNIT ( * ) SI_UNIT ( .MILLI., .METRE. ) );
#208 = APPLICATION_CONTEXT ( 'automotive_design' ) ;
#209 = DIRECTION ( 'NONE',  ( 1.000000000000000000, 0.000000000000000000, 0.000000000000000000 ) ) ;
#210 = CARTESIAN_POINT ( 'NONE',  ( 9.499999999999998224, 0.000000000000000000, 7.750000000000000000 ) ) ;
#211 = EDGE_CURVE ( 'NONE', #281, #166, #239, .T. ) ;
#212 = EDGE_LOOP ( 'NONE', ( #83, #279, #232, #174 ) ) ;
#213 = ORIENTED_EDGE ( 'NONE', *, *, #129, .T. ) ;
#214 = VECTOR ( 'NONE', #201, 1000.000000000000114 ) ;
#215 = VERTEX_POINT ( 'NONE', #38 ) ;
#216 = DIRECTION ( 'NONE',  ( 1.000000000000000000, 0.000000000000000000, 0.000000000000000000 ) ) ;
#217 = CARTESIAN_POINT ( 'NONE',  ( 0.000000000000000000, 0.000000000000000000, -7.250000000000000888 ) ) ;
#218 = DIRECTION ( 'NONE',  ( 1.000000000000000000, 0.000000000000000000, 0.000000000000000000 ) ) ;
#219 = LINE ( 'NONE', #84, #31 ) ;
#220 = CARTESIAN_POINT ( 'NONE',  ( 9.999999999999998224, 1.224646799147353059E-15, 7.750000000000000000 ) ) ;
#221 = APPLICATION_CONTEXT ( 'automotive_design' ) ;
#222 = AXIS2_PLACEMENT_3D ( 'NONE', #113, #184, #209 ) ;
#223 = PLANE ( 'NONE',  #66 ) ;
#224 = EDGE_LOOP ( 'NONE', ( #97, #77, #100, #189 ) ) ;
#225 = AXIS2_PLACEMENT_3D ( 'NONE', #30, #158, #167 ) ;
#226 = FILL_AREA_STYLE_COLOUR ( '', #130 ) ;
#227 = DIRECTION ( 'NONE',  ( 1.000000000000000000, 0.000000000000000000, 0.000000000000000000 ) ) ;
#228 = AXIS2_PLACEMENT_3D ( 'NONE', #89, #274, #205 ) ;
#229 = LINE ( 'NONE', #115, #26 ) ;
#230 = FILL_AREA_STYLE ('',( #226 ) ) ;
#231 = DIRECTION ( 'NONE',  ( 0.000000000000000000, 0.000000000000000000, 1.000000000000000000 ) ) ;
#232 = ORIENTED_EDGE ( 'NONE', *, *, #241, .T. ) ;
#233 = VECTOR ( 'NONE', #267, 1000.000000000000114 ) ;
#234 = CARTESIAN_POINT ( 'NONE',  ( 8.999999999999998224, 1.102182119232617517E-15, -7.250000000000000888 ) ) ;
#235 = ORIENTED_EDGE ( 'NONE', *, *, #139, .F. ) ;
#236 = EDGE_CURVE ( 'NONE', #166, #281, #255, .T. ) ;
#237 = VERTEX_POINT ( 'NONE', #82 ) ;
#238 =( NAMED_UNIT ( * ) PLANE_ANGLE_UNIT ( ) SI_UNIT ( $, .RADIAN. ) );
#239 = CIRCLE ( 'NONE', #186, 8.999999999999998224 ) ;
#240 = CARTESIAN_POINT ( 'NONE',  ( 9.999999999999998224, 1.224646799147353059E-15, -7.750000000000000000 ) ) ;
#241 = EDGE_CURVE ( 'NONE', #119, #123, #219, .T. ) ;
#242 = AXIS2_PLACEMENT_3D ( 'NONE', #15, #264, #218 ) ;
#243 = DIRECTION ( 'NONE',  ( -0.000000000000000000, -0.000000000000000000, -1.000000000000000000 ) ) ;
#244 = DIRECTION ( 'NONE',  ( -0.000000000000000000, -0.000000000000000000, -1.000000000000000000 ) ) ;
#245 = CARTESIAN_POINT ( 'NONE',  ( 0.000000000000000000, 0.000000000000000000, 7.249999999999999112 ) ) ;
#246 = ADVANCED_BREP_SHAPE_REPRESENTATION ( 'Sleeve', ( #135, #278 ), #296 ) ;
#247 = CARTESIAN_POINT ( 'NONE',  ( 8.999999999999998224, 0.000000000000000000, 7.249999999999999112 ) ) ;
#248 = PRODUCT_DEFINITION ( 'General', '', #55, #147 ) ;
#249 = DIRECTION ( 'NONE',  ( -0.000000000000000000, -0.000000000000000000, -1.000000000000000000 ) ) ;
#250 = ORIENTED_EDGE ( 'NONE', *, *, #6, .T. ) ;
#251 = DIRECTION ( 'NONE',  ( -0.000000000000000000, -0.000000000000000000, -1.000000000000000000 ) ) ;
#252 = CARTESIAN_POINT ( 'NONE',  ( 0.000000000000000000, 0.000000000000000000, 7.750000000000000000 ) ) ;
#253 = AXIS2_PLACEMENT_3D ( 'NONE', #199, #294, #85 ) ;
#254 = CARTESIAN_POINT ( 'NONE',  ( -9.999999999999998224, 0.000000000000000000, -7.750000000000000000 ) ) ;
#255 = CIRCLE ( 'NONE', #185, 8.999999999999998224 ) ;
#256 = FACE_OUTER_BOUND ( 'NONE', #262, .T. ) ;
#257 = CARTESIAN_POINT ( 'NONE',  ( 0.000000000000000000, 0.000000000000000000, -7.750000000000000000 ) ) ;
#258 = ORIENTED_EDGE ( 'NONE', *, *, #133, .F. ) ;
#259 = ORIENTED_EDGE ( 'NONE', *, *, #292, .T. ) ;
#260 =( LENGTH_UNIT ( ) NAMED_UNIT ( * ) SI_UNIT ( .MILLI., .METRE. ) );
#261 = ORIENTED_EDGE ( 'NONE', *, *, #176, .T. ) ;
#262 = EDGE_LOOP ( 'NONE', ( #116, #157, #285, #57 ) ) ;
#263 = DIRECTION ( 'NONE',  ( -0.000000000000000000, -0.000000000000000000, -1.000000000000000000 ) ) ;
#264 = DIRECTION ( 'NONE',  ( -0.000000000000000000, -0.000000000000000000, -1.000000000000000000 ) ) ;
#265 = AXIS2_PLACEMENT_3D ( 'NONE', #245, #86, #288 ) ;
#266 = CYLINDRICAL_SURFACE ( 'NONE', #198, 9.999999999999998224 ) ;
#267 = DIRECTION ( 'NONE',  ( -0.7071067811865474617, 0.000000000000000000, -0.7071067811865474617 ) ) ;
#268 = ADVANCED_FACE ( 'NONE', ( #67 ), #273, .F. ) ;
#269 = EDGE_LOOP ( 'NONE', ( #74, #73, #291, #168 ) ) ;
#270 = FACE_OUTER_BOUND ( 'NONE', #224, .T. ) ;
#271 =( NAMED_UNIT ( * ) PLANE_ANGLE_UNIT ( ) SI_UNIT ( $, .RADIAN. ) );
#272 = APPLICATION_PROTOCOL_DEFINITION ( 'draft international standard', 'automotive_design', 1998, #221 ) ;
#273 = CONICAL_SURFACE ( 'NONE', #225, 8.999999999999998224, 0.7853981633974482790 ) ;
#274 = DIRECTION ( 'NONE',  ( 0.000000000000000000, 0.000000000000000000, 1.000000000000000000 ) ) ;
#275 = CIRCLE ( 'NONE', #156, 8.999999999999998224 ) ;
#276 = CYLINDRICAL_SURFACE ( 'NONE', #195, 9.999999999999998224 ) ;
#277 = ADVANCED_FACE ( 'NONE', ( #118 ), #13, .F. ) ;
#278 = AXIS2_PLACEMENT_3D ( 'NONE', #289, #64, #227 ) ;
#279 = ORIENTED_EDGE ( 'NONE', *, *, #129, .F. ) ;
#280 = ORIENTED_EDGE ( 'NONE', *, *, #179, .T. ) ;
#281 = VERTEX_POINT ( 'NONE', #234 ) ;
#282 = AXIS2_PLACEMENT_3D ( 'NONE', #70, #92, #140 ) ;
#283 = ADVANCED_FACE ( 'NONE', ( #44, #202 ), #298, .T. ) ;
#284 = DIRECTION ( 'NONE',  ( -1.000000000000000000, 0.000000000000000000, 0.000000000000000000 ) ) ;
#285 = ORIENTED_EDGE ( 'NONE', *, *, #211, .T. ) ;
#286 = CARTESIAN_POINT ( 'NONE',  ( 0.000000000000000000, 0.000000000000000000, 7.750000000000000000 ) ) ;
#287 = CARTESIAN_POINT ( 'NONE',  ( -8.999999999999998224, 0.000000000000000000, -7.250000000000000888 ) ) ;
#288 = DIRECTION ( 'NONE',  ( 1.000000000000000000, 0.000000000000000000, 0.000000000000000000 ) ) ;
#289 = CARTESIAN_POINT ( 'NONE',  ( 0.000000000000000000, 0.000000000000000000, 0.000000000000000000 ) ) ;
#290 = UNCERTAINTY_MEASURE_WITH_UNIT (LENGTH_MEASURE( 1.000000000000000082E-05 ), #207, 'distance_accuracy_value', 'NONE');
#291 = ORIENTED_EDGE ( 'NONE', *, *, #28, .F. ) ;
#292 = EDGE_CURVE ( 'NONE', #144, #122, #54, .T. ) ;
#293 = VERTEX_POINT ( 'NONE', #240 ) ;
#294 = DIRECTION ( 'NONE',  ( 0.000000000000000000, 0.000000000000000000, 1.000000000000000000 ) ) ;
#295 = ORIENTED_EDGE ( 'NONE', *, *, #120, .T. ) ;
#296 =( GEOMETRIC_REPRESENTATION_CONTEXT ( 3 ) GLOBAL_UNCERTAINTY_ASSIGNED_CONTEXT ( ( #106 ) ) GLOBAL_UNIT_ASSIGNED_CONTEXT ( ( #260, #238, #128 ) ) REPRESENTATION_CONTEXT ( 'NONE', 'WORKASPACE' ) );
#297 = FACE_OUTER_BOUND ( 'NONE', #72, .T. ) ;
#298 = PLANE ( 'NONE',  #124 ) ;
#299 = DIRECTION ( 'NONE',  ( 0.000000000000000000, 0.000000000000000000, 1.000000000000000000 ) ) ;
ENDSEC;
END-ISO-10303-21;
