ISO-10303-21;
HEADER;
FILE_DESCRIPTION (( 'STEP AP214' ),
    '1' );
FILE_NAME ('socket head cap screw_iso.STEP',
    '2024-11-24T17:15:04',
    ( '' ),
    ( '' ),
    'SwSTEP 2.0',
    'SolidWorks 2024',
    '' );
FILE_SCHEMA (( 'AUTOMOTIVE_DESIGN' ));
ENDSEC;

DATA;
#1 = DIRECTION ( 'NONE',  ( -1.000000000000000000, -0.000000000000000000, -0.000000000000000000 ) ) ;
#2 = ORIENTED_EDGE ( 'NONE', *, *, #456, .F. ) ;
#3 = CARTESIAN_POINT ( 'NONE',  ( 92.00000000000000000, 0.000000000000000000, 0.000000000000000000 ) ) ;
#4 = DIRECTION ( 'NONE',  ( 0.000000000000000000, 0.000000000000000000, -1.000000000000000000 ) ) ;
#5 = CARTESIAN_POINT ( 'NONE',  ( 6.000000000000000000, -5.839897972853065333, 8.239936510889833698E-15 ) ) ;
#6 = FILL_AREA_STYLE ('',( #346 ) ) ;
#7 = CARTESIAN_POINT ( 'NONE',  ( 12.00000000000000000, 8.082668874372532992E-16, 6.600000000000001421 ) ) ;
#8 = ORIENTED_EDGE ( 'NONE', *, *, #359, .T. ) ;
#9 = EDGE_CURVE ( 'NONE', #561, #483, #114, .T. ) ;
#10 = CONICAL_SURFACE ( 'NONE', #489, 5.057500000000000107, 1.047197551196592302 ) ;
#11 = AXIS2_PLACEMENT_3D ( 'NONE', #330, #566, #497 ) ;
#12 = CARTESIAN_POINT ( 'NONE',  ( 0.000000000000000000, -2.919948986426537996, -5.057499999999995666 ) ) ;
#13 = FACE_OUTER_BOUND ( 'NONE', #440, .T. ) ;
#14 = CARTESIAN_POINT ( 'NONE',  ( 12.59999999999999964, 0.000000000000000000, 0.000000000000000000 ) ) ;
#15 = CARTESIAN_POINT ( 'NONE',  ( -31.74999999999995737, 0.000000000000000000, 0.000000000000000000 ) ) ;
#16 = DIRECTION ( 'NONE',  ( 1.000000000000000000, 0.000000000000000000, 0.000000000000000000 ) ) ;
#17 = CARTESIAN_POINT ( 'NONE',  ( 6.000000000000000000, 0.000000000000000000, 0.000000000000000000 ) ) ;
#18 = ORIENTED_EDGE ( 'NONE', *, *, #9, .F. ) ;
#19 = ADVANCED_FACE ( 'NONE', ( #527 ), #476, .F. ) ;
#20 = DIRECTION ( 'NONE',  ( -1.000000000000000000, -0.000000000000000000, -0.000000000000000000 ) ) ;
#21 = DIRECTION ( 'NONE',  ( 1.000000000000000000, 0.000000000000000000, 0.000000000000000000 ) ) ;
#22 = ORIENTED_EDGE ( 'NONE', *, *, #730, .T. ) ;
#23 = VECTOR ( 'NONE', #61, 1000.000000000000000 ) ;
#24 = ADVANCED_FACE ( 'NONE', ( #738 ), #10, .F. ) ;
#25 = FACE_OUTER_BOUND ( 'NONE', #714, .T. ) ;
#26 = AXIS2_PLACEMENT_3D ( 'NONE', #15, #587, #580 ) ;
#27 = CARTESIAN_POINT ( 'NONE',  ( 12.00000000000000000, 0.000000000000000000, -6.600000000000001421 ) ) ;
#28 = ORIENTED_EDGE ( 'NONE', *, *, #200, .T. ) ;
#29 = CARTESIAN_POINT ( 'NONE',  ( 6.000000000000000000, -2.919948986426526893, 5.057500000000005436 ) ) ;
#30 = PLANE ( 'NONE',  #118 ) ;
#31 = EDGE_LOOP ( 'NONE', ( #501, #328, #174 ) ) ;
#32 = CARTESIAN_POINT ( 'NONE',  ( 6.000000000000000000, -5.839897972853065333, 8.239936510889833698E-15 ) ) ;
#33 = DIRECTION ( 'NONE',  ( -1.000000000000000000, -0.000000000000000000, -0.000000000000000000 ) ) ;
#34 = ORIENTED_EDGE ( 'NONE', *, *, #276, .T. ) ;
#35 = EDGE_CURVE ( 'NONE', #48, #147, #514, .T. ) ;
#36 = DIRECTION ( 'NONE',  ( -1.000000000000000000, -0.000000000000000000, -0.000000000000000000 ) ) ;
#37 = CIRCLE ( 'NONE', #288, 9.000000000000000000 ) ;
#38 = ORIENTED_EDGE ( 'NONE', *, *, #177, .F. ) ;
#39 = DIRECTION ( 'NONE',  ( 0.000000000000000000, 0.000000000000000000, -1.000000000000000000 ) ) ;
#40 = EDGE_LOOP ( 'NONE', ( #568, #449, #199, #436 ) ) ;
#41 = EDGE_CURVE ( 'NONE', #608, #395, #205, .T. ) ;
#42 = ORIENTED_EDGE ( 'NONE', *, *, #554, .F. ) ;
#43 = DIRECTION ( 'NONE',  ( 0.000000000000000000, 1.000000000000000000, -1.336710962791342904E-15 ) ) ;
#44 = VECTOR ( 'NONE', #327, 1000.000000000000000 ) ;
#45 = ORIENTED_EDGE ( 'NONE', *, *, #148, .F. ) ;
#46 = AXIS2_PLACEMENT_3D ( 'NONE', #462, #350, #184 ) ;
#47 = CARTESIAN_POINT ( 'NONE',  ( 6.000000000000000000, 2.919948986426537996, 5.057499999999997442 ) ) ;
#48 = VERTEX_POINT ( 'NONE', #5 ) ;
#49 = CARTESIAN_POINT ( 'NONE',  ( 6.000000000000000000, 0.000000000000000000, 0.000000000000000000 ) ) ;
#50 = ORIENTED_EDGE ( 'NONE', *, *, #281, .T. ) ;
#51 = EDGE_CURVE ( 'NONE', #147, #620, #720, .T. ) ;
#52 = CARTESIAN_POINT ( 'NONE',  ( 12.00000000000000000, 9.000000000000000000, 0.000000000000000000 ) ) ;
#53 = DIRECTION ( 'NONE',  ( -1.000000000000000000, -0.000000000000000000, -0.000000000000000000 ) ) ;
#54 = CIRCLE ( 'NONE', #67, 6.000000000000001776 ) ;
#55 = CIRCLE ( 'NONE', #342, 5.057500000000000107 ) ;
#56 = SURFACE_SIDE_STYLE ('',( #178 ) ) ;
#57 = DIRECTION ( 'NONE',  ( 1.000000000000000000, 0.000000000000000000, 0.000000000000000000 ) ) ;
#58 = EDGE_LOOP ( 'NONE', ( #427, #340, #642, #625 ) ) ;
#59 = DIRECTION ( 'NONE',  ( -1.000000000000000000, -0.000000000000000000, -0.000000000000000000 ) ) ;
#60 = EDGE_CURVE ( 'NONE', #480, #474, #362, .T. ) ;
#61 = DIRECTION ( 'NONE',  ( -1.000000000000000000, -0.000000000000000000, -0.000000000000000000 ) ) ;
#62 = ORIENTED_EDGE ( 'NONE', *, *, #77, .F. ) ;
#63 = CARTESIAN_POINT ( 'NONE',  ( 12.59999999999999964, 7.347880794884121708E-16, -6.000000000000001776 ) ) ;
#64 = FACE_OUTER_BOUND ( 'NONE', #728, .T. ) ;
#65 = CARTESIAN_POINT ( 'NONE',  ( 6.000000000000000000, 4.379923479639796113, -2.528750000000007159 ) ) ;
#66 = ORIENTED_EDGE ( 'NONE', *, *, #103, .T. ) ;
#67 = AXIS2_PLACEMENT_3D ( 'NONE', #208, #709, #594 ) ;
#68 = CIRCLE ( 'NONE', #171, 8.400000000000000355 ) ;
#69 = DIRECTION ( 'NONE',  ( -1.000000000000000000, -0.000000000000000000, -0.000000000000000000 ) ) ;
#70 = CARTESIAN_POINT ( 'NONE',  ( -31.74999999999995737, 0.000000000000000000, 0.000000000000000000 ) ) ;
#71 = LINE ( 'NONE', #370, #119 ) ;
#72 = ADVANCED_FACE ( 'NONE', ( #660 ), #30, .F. ) ;
#73 = CARTESIAN_POINT ( 'NONE',  ( 0.000000000000000000, 0.000000000000000000, 0.000000000000000000 ) ) ;
#74 = DIRECTION ( 'NONE',  ( 0.000000000000000000, 0.000000000000000000, 1.000000000000000000 ) ) ;
#75 = DIRECTION ( 'NONE',  ( 0.000000000000000000, -0.5000000000000011102, -0.8660254037844380415 ) ) ;
#76 = ORIENTED_EDGE ( 'NONE', *, *, #233, .T. ) ;
#77 = EDGE_CURVE ( 'NONE', #658, #582, #591, .T. ) ;
#78 = CARTESIAN_POINT ( 'NONE',  ( 12.00000000000000000, 0.000000000000000000, 0.000000000000000000 ) ) ;
#79 = DIRECTION ( 'NONE',  ( -0.000000000000000000, 1.336710962791342904E-15, 1.000000000000000000 ) ) ;
#80 = FACE_OUTER_BOUND ( 'NONE', #379, .T. ) ;
#81 = ORIENTED_EDGE ( 'NONE', *, *, #453, .T. ) ;
#82 = DIRECTION ( 'NONE',  ( 0.000000000000000000, 0.000000000000000000, -1.000000000000000000 ) ) ;
#83 = VECTOR ( 'NONE', #127, 1000.000000000000114 ) ;
#84 = DIRECTION ( 'NONE',  ( 0.000000000000000000, 0.000000000000000000, 1.000000000000000000 ) ) ;
#85 = VECTOR ( 'NONE', #515, 1000.000000000000114 ) ;
#86 = CARTESIAN_POINT ( 'NONE',  ( 0.000000000000000000, -5.839897972853065333, 8.239936510889833698E-15 ) ) ;
#87 = VERTEX_POINT ( 'NONE', #27 ) ;
#88 = LINE ( 'NONE', #32, #192 ) ;
#89 = EDGE_CURVE ( 'NONE', #431, #343, #502, .T. ) ;
#90 = DIRECTION ( 'NONE',  ( -0.7071067811865288100, 0.000000000000000000, 0.7071067811865662245 ) ) ;
#91 = ORIENTED_EDGE ( 'NONE', *, *, #110, .T. ) ;
#92 = LINE ( 'NONE', #555, #691 ) ;
#93 = FACE_OUTER_BOUND ( 'NONE', #518, .T. ) ;
#94 = ORIENTED_EDGE ( 'NONE', *, *, #567, .T. ) ;
#95 = SHAPE_DEFINITION_REPRESENTATION ( #530, #652 ) ;
#96 = VECTOR ( 'NONE', #550, 1000.000000000000000 ) ;
#97 = DIRECTION ( 'NONE',  ( -1.000000000000000000, -0.000000000000000000, -0.000000000000000000 ) ) ;
#98 = CIRCLE ( 'NONE', #512, 6.600000000000001421 ) ;
#99 = EDGE_LOOP ( 'NONE', ( #371, #278, #458, #28, #639 ) ) ;
#100 = EDGE_CURVE ( 'NONE', #673, #48, #131, .T. ) ;
#101 = FACE_OUTER_BOUND ( 'NONE', #191, .T. ) ;
#102 = ORIENTED_EDGE ( 'NONE', *, *, #567, .F. ) ;
#103 = EDGE_CURVE ( 'NONE', #263, #338, #357, .T. ) ;
#104 = PLANE ( 'NONE',  #11 ) ;
#105 = ORIENTED_EDGE ( 'NONE', *, *, #410, .F. ) ;
#106 = CARTESIAN_POINT ( 'NONE',  ( 6.000000000000000000, 2.919948986426528226, -5.057500000000002771 ) ) ;
#107 = AXIS2_PLACEMENT_3D ( 'NONE', #52, #688, #630 ) ;
#108 = CIRCLE ( 'NONE', #253, 9.000000000000000000 ) ;
#109 = FACE_OUTER_BOUND ( 'NONE', #162, .T. ) ;
#110 = EDGE_CURVE ( 'NONE', #289, #561, #435, .T. ) ;
#111 = UNCERTAINTY_MEASURE_WITH_UNIT (LENGTH_MEASURE( 1.000000000000000082E-05 ), #596, 'distance_accuracy_value', 'NONE');
#112 = ORIENTED_EDGE ( 'NONE', *, *, #51, .F. ) ;
#113 = CARTESIAN_POINT ( 'NONE',  ( 6.000000000000000000, 5.839897972853067998, -6.938893903907228378E-15 ) ) ;
#114 = LINE ( 'NONE', #230, #389 ) ;
#115 =( NAMED_UNIT ( * ) SI_UNIT ( $, .STERADIAN. ) SOLID_ANGLE_UNIT ( ) );
#116 = DIRECTION ( 'NONE',  ( 0.000000000000000000, 0.000000000000000000, 1.000000000000000000 ) ) ;
#117 = ORIENTED_EDGE ( 'NONE', *, *, #554, .T. ) ;
#118 = AXIS2_PLACEMENT_3D ( 'NONE', #713, #319, #198 ) ;
#119 = VECTOR ( 'NONE', #303, 1000.000000000000000 ) ;
#120 = CIRCLE ( 'NONE', #616, 9.000000000000000000 ) ;
#121 = ADVANCED_FACE ( 'NONE', ( #80 ), #273, .F. ) ;
#122 = CARTESIAN_POINT ( 'NONE',  ( 12.59999999999999964, 0.000000000000000000, 0.000000000000000000 ) ) ;
#123 = DIRECTION ( 'NONE',  ( 0.000000000000000000, 0.000000000000000000, 1.000000000000000000 ) ) ;
#124 = VERTEX_POINT ( 'NONE', #426 ) ;
#125 = ADVANCED_FACE ( 'NONE', ( #548 ), #262, .F. ) ;
#126 = CARTESIAN_POINT ( 'NONE',  ( 6.000000000000000000, -4.379923479639796113, 2.528750000000005826 ) ) ;
#127 = DIRECTION ( 'NONE',  ( 0.000000000000000000, -0.4999999999999993339, 0.8660254037844389297 ) ) ;
#128 = ORIENTED_EDGE ( 'NONE', *, *, #188, .F. ) ;
#129 = CARTESIAN_POINT ( 'NONE',  ( 6.000000000000000000, -5.839897972853065333, 8.239936510889833698E-15 ) ) ;
#130 = DIRECTION ( 'NONE',  ( 0.000000000000000000, 0.000000000000000000, 1.000000000000000000 ) ) ;
#131 = LINE ( 'NONE', #310, #332 ) ;
#132 = CIRCLE ( 'NONE', #223, 5.057500000000000107 ) ;
#133 = VECTOR ( 'NONE', #161, 1000.000000000000000 ) ;
#134 = VECTOR ( 'NONE', #481, 1000.000000000000000 ) ;
#135 =( LENGTH_UNIT ( ) NAMED_UNIT ( * ) SI_UNIT ( .MILLI., .METRE. ) );
#136 = CARTESIAN_POINT ( 'NONE',  ( 92.00000000000000000, 0.000000000000000000, 0.000000000000000000 ) ) ;
#137 = CARTESIAN_POINT ( 'NONE',  ( -31.74999999999995737, 7.347880794884121708E-16, -6.000000000000001776 ) ) ;
#138 = EDGE_CURVE ( 'NONE', #338, #124, #256, .T. ) ;
#139 = ORIENTED_EDGE ( 'NONE', *, *, #89, .F. ) ;
#140 = DIRECTION ( 'NONE',  ( 0.000000000000000000, 0.4999999999999990008, -0.8660254037844391517 ) ) ;
#141 = DIRECTION ( 'NONE',  ( 0.000000000000000000, 0.000000000000000000, 1.000000000000000000 ) ) ;
#142 = CARTESIAN_POINT ( 'NONE',  ( 6.000000000000000000, 5.839897972853067998, -6.938893903907228378E-15 ) ) ;
#143 = ORIENTED_EDGE ( 'NONE', *, *, #228, .T. ) ;
#144 = DIRECTION ( 'NONE',  ( 0.000000000000000000, 0.000000000000000000, 1.000000000000000000 ) ) ;
#145 = PLANE ( 'NONE',  #299 ) ;
#146 = DIRECTION ( 'NONE',  ( 0.000000000000000000, 0.4999999999999990008, -0.8660254037844391517 ) ) ;
#147 = VERTEX_POINT ( 'NONE', #86 ) ;
#148 = EDGE_CURVE ( 'NONE', #124, #331, #477, .T. ) ;
#149 = AXIS2_PLACEMENT_3D ( 'NONE', #425, #415, #309 ) ;
#150 = VECTOR ( 'NONE', #364, 1000.000000000000000 ) ;
#151 = LINE ( 'NONE', #194, #225 ) ;
#152 = EDGE_LOOP ( 'NONE', ( #392, #736, #383 ) ) ;
#153 = CARTESIAN_POINT ( 'NONE',  ( 0.000000000000000000, 0.000000000000000000, 0.000000000000000000 ) ) ;
#154 = CYLINDRICAL_SURFACE ( 'NONE', #333, 9.000000000000000000 ) ;
#155 = ORIENTED_EDGE ( 'NONE', *, *, #417, .T. ) ;
#156 = DIRECTION ( 'NONE',  ( -1.000000000000000000, -0.000000000000000000, -0.000000000000000000 ) ) ;
#157 = DIRECTION ( 'NONE',  ( 0.000000000000000000, 0.000000000000000000, 1.000000000000000000 ) ) ;
#158 = EDGE_CURVE ( 'NONE', #469, #375, #132, .T. ) ;
#159 = ORIENTED_EDGE ( 'NONE', *, *, #545, .T. ) ;
#160 = CIRCLE ( 'NONE', #731, 6.000000000000001776 ) ;
#161 = DIRECTION ( 'NONE',  ( 0.000000000000000000, -1.000000000000000000, 1.188187522481193495E-15 ) ) ;
#162 = EDGE_LOOP ( 'NONE', ( #345, #542 ) ) ;
#163 = CARTESIAN_POINT ( 'NONE',  ( 0.000000000000000000, -2.919948986426526893, 5.057500000000005436 ) ) ;
#164 = ORIENTED_EDGE ( 'NONE', *, *, #632, .T. ) ;
#165 = LINE ( 'NONE', #494, #96 ) ;
#166 = ORIENTED_EDGE ( 'NONE', *, *, #60, .F. ) ;
#167 = EDGE_CURVE ( 'NONE', #431, #485, #704, .T. ) ;
#168 = VECTOR ( 'NONE', #292, 1000.000000000000000 ) ;
#169 = PLANE ( 'NONE',  #107 ) ;
#170 = AXIS2_PLACEMENT_3D ( 'NONE', #724, #726, #622 ) ;
#171 = AXIS2_PLACEMENT_3D ( 'NONE', #407, #69, #640 ) ;
#172 = VERTEX_POINT ( 'NONE', #202 ) ;
#173 = DIRECTION ( 'NONE',  ( 0.000000000000000000, 0.000000000000000000, -1.000000000000000000 ) ) ;
#174 = ORIENTED_EDGE ( 'NONE', *, *, #433, .F. ) ;
#175 = DIRECTION ( 'NONE',  ( 0.000000000000000000, 0.000000000000000000, 1.000000000000000000 ) ) ;
#176 = CARTESIAN_POINT ( 'NONE',  ( 12.59999999999999964, 8.082668874372532992E-16, 6.600000000000001421 ) ) ;
#177 = EDGE_CURVE ( 'NONE', #608, #582, #54, .T. ) ;
#178 = SURFACE_STYLE_FILL_AREA ( #6 ) ;
#179 = LINE ( 'NONE', #391, #287 ) ;
#180 = ORIENTED_EDGE ( 'NONE', *, *, #496, .F. ) ;
#181 = AXIS2_PLACEMENT_3D ( 'NONE', #584, #297, #525 ) ;
#182 = DIRECTION ( 'NONE',  ( 0.000000000000000000, -1.000000000000000000, 1.188187522481193495E-15 ) ) ;
#183 = EDGE_LOOP ( 'NONE', ( #112, #498, #222, #22, #155 ) ) ;
#184 = DIRECTION ( 'NONE',  ( 0.000000000000000000, 0.000000000000000000, 1.000000000000000000 ) ) ;
#185 = CARTESIAN_POINT ( 'NONE',  ( 11.99999999999999645, 0.000000000000000000, 0.000000000000000000 ) ) ;
#186 = CARTESIAN_POINT ( 'NONE',  ( 6.000000000000000000, 0.000000000000000000, 0.000000000000000000 ) ) ;
#187 = DIRECTION ( 'NONE',  ( 0.000000000000000000, 0.000000000000000000, 1.000000000000000000 ) ) ;
#188 = EDGE_CURVE ( 'NONE', #48, #375, #151, .T. ) ;
#189 = CARTESIAN_POINT ( 'NONE',  ( 6.000000000000000000, 5.839897972853067998, -6.938893903907228378E-15 ) ) ;
#190 = DIRECTION ( 'NONE',  ( 0.000000000000000000, 0.4999999999999990008, -0.8660254037844391517 ) ) ;
#191 = EDGE_LOOP ( 'NONE', ( #42, #195 ) ) ;
#192 = VECTOR ( 'NONE', #140, 1000.000000000000227 ) ;
#193 = EDGE_CURVE ( 'NONE', #474, #608, #71, .T. ) ;
#194 = CARTESIAN_POINT ( 'NONE',  ( 6.000000000000000000, -5.839897972853065333, 8.239936510889833698E-15 ) ) ;
#195 = ORIENTED_EDGE ( 'NONE', *, *, #204, .F. ) ;
#196 = DIRECTION ( 'NONE',  ( 0.000000000000000000, 0.000000000000000000, 1.000000000000000000 ) ) ;
#197 = CARTESIAN_POINT ( 'NONE',  ( 6.000000000000000000, -2.919948986426526893, 5.057500000000005436 ) ) ;
#198 = DIRECTION ( 'NONE',  ( 0.000000000000000000, 0.000000000000000000, -1.000000000000000000 ) ) ;
#199 = ORIENTED_EDGE ( 'NONE', *, *, #683, .T. ) ;
#200 = EDGE_CURVE ( 'NONE', #209, #338, #681, .T. ) ;
#201 = DIRECTION ( 'NONE',  ( 0.000000000000000000, 0.000000000000000000, -1.000000000000000000 ) ) ;
#202 = CARTESIAN_POINT ( 'NONE',  ( 8.919948986426568638, 0.000000000000000000, 0.000000000000000000 ) ) ;
#203 = ORIENTED_EDGE ( 'NONE', *, *, #177, .T. ) ;
#204 = EDGE_CURVE ( 'NONE', #678, #480, #740, .T. ) ;
#205 = CIRCLE ( 'NONE', #416, 0.5999999999999998668 ) ;
#206 = AXIS2_PLACEMENT_3D ( 'NONE', #70, #537, #130 ) ;
#207 = AXIS2_PLACEMENT_3D ( 'NONE', #73, #629, #696 ) ;
#208 = CARTESIAN_POINT ( 'NONE',  ( 12.59999999999999964, 0.000000000000000000, 0.000000000000000000 ) ) ;
#209 = VERTEX_POINT ( 'NONE', #619 ) ;
#210 = CARTESIAN_POINT ( 'NONE',  ( -31.74999999999995737, 0.000000000000000000, 0.000000000000000000 ) ) ;
#211 = EDGE_LOOP ( 'NONE', ( #675, #447, #547, #460 ) ) ;
#212 = LINE ( 'NONE', #441, #133 ) ;
#213 = ORIENTED_EDGE ( 'NONE', *, *, #592, .F. ) ;
#214 = AXIS2_PLACEMENT_3D ( 'NONE', #641, #457, #175 ) ;
#215 = DIRECTION ( 'NONE',  ( 0.000000000000000000, 0.000000000000000000, 1.000000000000000000 ) ) ;
#216 = AXIS2_PLACEMENT_3D ( 'NONE', #129, #304, #293 ) ;
#217 = ORIENTED_EDGE ( 'NONE', *, *, #51, .T. ) ;
#218 = LINE ( 'NONE', #47, #659 ) ;
#219 = ORIENTED_EDGE ( 'NONE', *, *, #394, .F. ) ;
#220 = ADVANCED_FACE ( 'NONE', ( #446 ), #104, .T. ) ;
#221 = CARTESIAN_POINT ( 'NONE',  ( -31.74999999999995737, 0.000000000000000000, 0.000000000000000000 ) ) ;
#222 = ORIENTED_EDGE ( 'NONE', *, *, #188, .T. ) ;
#223 = AXIS2_PLACEMENT_3D ( 'NONE', #17, #316, #539 ) ;
#224 = CARTESIAN_POINT ( 'NONE',  ( 0.6000000000000033085, 1.102182119232617714E-15, -9.000000000000000000 ) ) ;
#225 = VECTOR ( 'NONE', #190, 1000.000000000000227 ) ;
#226 = AXIS2_PLACEMENT_3D ( 'NONE', #434, #369, #711 ) ;
#227 = EDGE_LOOP ( 'NONE', ( #654, #570 ) ) ;
#228 = EDGE_CURVE ( 'NONE', #694, #147, #674, .T. ) ;
#229 = DIRECTION ( 'NONE',  ( 0.000000000000000000, 0.8660254037844379305, -0.5000000000000012212 ) ) ;
#230 = CARTESIAN_POINT ( 'NONE',  ( 6.000000000000000000, -2.919948986426526893, 5.057500000000005436 ) ) ;
#231 = DIRECTION ( 'NONE',  ( 1.000000000000000000, 0.000000000000000000, 0.000000000000000000 ) ) ;
#232 = FACE_OUTER_BOUND ( 'NONE', #152, .T. ) ;
#233 = EDGE_CURVE ( 'NONE', #263, #606, #165, .T. ) ;
#234 = ORIENTED_EDGE ( 'NONE', *, *, #158, .T. ) ;
#235 = DIRECTION ( 'NONE',  ( 0.000000000000000000, 0.000000000000000000, 1.000000000000000000 ) ) ;
#236 = LINE ( 'NONE', #463, #83 ) ;
#237 = CLOSED_SHELL ( 'NONE', ( #621, #486, #19, #676, #308, #314, #655, #628, #352, #516, #373, #284, #121, #324, #220, #510, #300, #666, #268, #422, #72, #695, #125, #347, #461, #442, #24 ) ) ;
#238 = EDGE_LOOP ( 'NONE', ( #419, #102, #684, #405, #326 ) ) ;
#239 = TOROIDAL_SURFACE ( 'NONE', #605, 8.400000000000000355, 0.5999999999999999778 ) ;
#240 = AXIS2_PLACEMENT_3D ( 'NONE', #78, #663, #201 ) ;
#241 = DIRECTION ( 'NONE',  ( -1.000000000000000000, -0.000000000000000000, -0.000000000000000000 ) ) ;
#242 = CARTESIAN_POINT ( 'NONE',  ( 0.6000000000000033085, 0.000000000000000000, 0.000000000000000000 ) ) ;
#243 = DIRECTION ( 'NONE',  ( 1.000000000000000000, 0.000000000000000000, 0.000000000000000000 ) ) ;
#244 = EDGE_CURVE ( 'NONE', #124, #469, #560, .T. ) ;
#245 = DIRECTION ( 'NONE',  ( 0.000000000000000000, 0.000000000000000000, -1.000000000000000000 ) ) ;
#246 = DIRECTION ( 'NONE',  ( 0.000000000000000000, 0.000000000000000000, 1.000000000000000000 ) ) ;
#247 = ORIENTED_EDGE ( 'NONE', *, *, #384, .T. ) ;
#248 =( NAMED_UNIT ( * ) PLANE_ANGLE_UNIT ( ) SI_UNIT ( $, .RADIAN. ) );
#249 = DIRECTION ( 'NONE',  ( 0.000000000000000000, 0.000000000000000000, 1.000000000000000000 ) ) ;
#250 = DIRECTION ( 'NONE',  ( 0.000000000000000000, -0.5000000000000012212, -0.8660254037844379305 ) ) ;
#251 = ORIENTED_EDGE ( 'NONE', *, *, #110, .F. ) ;
#252 = VECTOR ( 'NONE', #454, 1000.000000000000000 ) ;
#253 = AXIS2_PLACEMENT_3D ( 'NONE', #242, #301, #697 ) ;
#254 = CARTESIAN_POINT ( 'NONE',  ( 11.99999999999999645, 0.000000000000000000, 0.000000000000000000 ) ) ;
#255 = EDGE_CURVE ( 'NONE', #694, #320, #610, .T. ) ;
#256 = LINE ( 'NONE', #259, #285 ) ;
#257 = ORIENTED_EDGE ( 'NONE', *, *, #456, .T. ) ;
#258 = DIRECTION ( 'NONE',  ( -1.000000000000000000, -0.000000000000000000, -0.000000000000000000 ) ) ;
#259 = CARTESIAN_POINT ( 'NONE',  ( 6.000000000000000000, 5.839897972853067998, -6.938893903907228378E-15 ) ) ;
#260 = EDGE_LOOP ( 'NONE', ( #219, #552, #559, #2 ) ) ;
#261 = DIRECTION ( 'NONE',  ( 0.000000000000000000, 0.000000000000000000, -1.000000000000000000 ) ) ;
#262 = PLANE ( 'NONE',  #353 ) ;
#263 = VERTEX_POINT ( 'NONE', #558 ) ;
#264 = AXIS2_PLACEMENT_3D ( 'NONE', #702, #535, #531 ) ;
#265 = VECTOR ( 'NONE', #258, 1000.000000000000000 ) ;
#266 = DIRECTION ( 'NONE',  ( -1.000000000000000000, -0.000000000000000000, -0.000000000000000000 ) ) ;
#267 = ORIENTED_EDGE ( 'NONE', *, *, #730, .F. ) ;
#268 = ADVANCED_FACE ( 'NONE', ( #93 ), #556, .F. ) ;
#269 = DIRECTION ( 'NONE',  ( 0.000000000000000000, 0.000000000000000000, 1.000000000000000000 ) ) ;
#270 = ORIENTED_EDGE ( 'NONE', *, *, #200, .F. ) ;
#271 = CARTESIAN_POINT ( 'NONE',  ( 0.6000000000000033085, 0.000000000000000000, 0.000000000000000000 ) ) ;
#272 = ORIENTED_EDGE ( 'NONE', *, *, #244, .F. ) ;
#273 = TOROIDAL_SURFACE ( 'NONE', #264, 6.600000000000001421, 0.5999999999999999778 ) ;
#274 = CIRCLE ( 'NONE', #149, 5.057500000000000107 ) ;
#275 = CARTESIAN_POINT ( 'NONE',  ( 92.00000000000000000, 0.000000000000000000, 0.000000000000000000 ) ) ;
#276 = EDGE_CURVE ( 'NONE', #263, #209, #500, .T. ) ;
#277 = UNCERTAINTY_MEASURE_WITH_UNIT (LENGTH_MEASURE( 1.000000000000000082E-05 ), #135, 'distance_accuracy_value', 'NONE');
#278 = ORIENTED_EDGE ( 'NONE', *, *, #723, .T. ) ;
#279 = CARTESIAN_POINT ( 'NONE',  ( 6.000000000000000000, 2.919948986426528226, -5.057500000000002771 ) ) ;
#280 = ORIENTED_EDGE ( 'NONE', *, *, #167, .T. ) ;
#281 = EDGE_CURVE ( 'NONE', #483, #320, #218, .T. ) ;
#282 = CARTESIAN_POINT ( 'NONE',  ( 6.000000000000000000, -2.919948986426537996, -5.057499999999995666 ) ) ;
#283 = EDGE_LOOP ( 'NONE', ( #38, #717, #614, #611 ) ) ;
#284 = ADVANCED_FACE ( 'NONE', ( #101 ), #448, .T. ) ;
#285 = VECTOR ( 'NONE', #250, 1000.000000000000114 ) ;
#286 = DIRECTION ( 'NONE',  ( 0.000000000000000000, -0.5000000000000012212, -0.8660254037844379305 ) ) ;
#287 = VECTOR ( 'NONE', #286, 1000.000000000000114 ) ;
#288 = AXIS2_PLACEMENT_3D ( 'NONE', #185, #593, #74 ) ;
#289 = VERTEX_POINT ( 'NONE', #439 ) ;
#290 = FACE_OUTER_BOUND ( 'NONE', #536, .T. ) ;
#291 = DIRECTION ( 'NONE',  ( 0.000000000000000000, 0.000000000000000000, -1.000000000000000000 ) ) ;
#292 = DIRECTION ( 'NONE',  ( -1.000000000000000000, -0.000000000000000000, -0.000000000000000000 ) ) ;
#293 = DIRECTION ( 'NONE',  ( 0.000000000000000000, -0.4999999999999989453, 0.8660254037844391517 ) ) ;
#294 = PLANE ( 'NONE',  #402 ) ;
#295 = ORIENTED_EDGE ( 'NONE', *, *, #77, .T. ) ;
#296 = PRESENTATION_STYLE_ASSIGNMENT (( #533 ) ) ;
#297 = DIRECTION ( 'NONE',  ( -1.000000000000000000, -0.000000000000000000, -0.000000000000000000 ) ) ;
#298 = EDGE_LOOP ( 'NONE', ( #549, #267, #732 ) ) ;
#299 = AXIS2_PLACEMENT_3D ( 'NONE', #189, #16, #245 ) ;
#300 = ADVANCED_FACE ( 'NONE', ( #387 ), #506, .T. ) ;
#301 = DIRECTION ( 'NONE',  ( 1.000000000000000000, 0.000000000000000000, 0.000000000000000000 ) ) ;
#302 = APPLICATION_CONTEXT ( 'automotive_design' ) ;
#303 = DIRECTION ( 'NONE',  ( -1.000000000000000000, -0.000000000000000000, -0.000000000000000000 ) ) ;
#304 = DIRECTION ( 'NONE',  ( -0.000000000000000000, 0.8660254037844392627, 0.4999999999999990008 ) ) ;
#305 = DIRECTION ( 'NONE',  ( -1.000000000000000000, -0.000000000000000000, -0.000000000000000000 ) ) ;
#306 = DIRECTION ( 'NONE',  ( -0.000000000000000000, 1.000000000000000000, 1.224646799147353207E-16 ) ) ;
#307 = ORIENTED_EDGE ( 'NONE', *, *, #600, .F. ) ;
#308 = ADVANCED_FACE ( 'NONE', ( #335 ), #735, .T. ) ;
#309 = DIRECTION ( 'NONE',  ( 0.000000000000000000, 0.000000000000000000, 1.000000000000000000 ) ) ;
#310 = CARTESIAN_POINT ( 'NONE',  ( 6.000000000000000000, -2.919948986426526893, 5.057500000000005436 ) ) ;
#311 = ORIENTED_EDGE ( 'NONE', *, *, #193, .F. ) ;
#312 = PRESENTATION_LAYER_ASSIGNMENT (  '', '', ( #661 ) ) ;
#313 = APPLICATION_PROTOCOL_DEFINITION ( 'draft international standard', 'automotive_design', 1998, #376 ) ;
#314 = ADVANCED_FACE ( 'NONE', ( #325 ), #154, .T. ) ;
#315 = LINE ( 'NONE', #29, #265 ) ;
#316 = DIRECTION ( 'NONE',  ( -1.000000000000000000, -0.000000000000000000, -0.000000000000000000 ) ) ;
#317 = ORIENTED_EDGE ( 'NONE', *, *, #281, .F. ) ;
#318 = LINE ( 'NONE', #424, #150 ) ;
#319 = DIRECTION ( 'NONE',  ( 1.000000000000000000, 0.000000000000000000, 0.000000000000000000 ) ) ;
#320 = VERTEX_POINT ( 'NONE', #378 ) ;
#321 = DIRECTION ( 'NONE',  ( 0.000000000000000000, -1.000000000000000000, 0.000000000000000000 ) ) ;
#322 = DIRECTION ( 'NONE',  ( 0.000000000000000000, -1.188187522481193495E-15, -1.000000000000000000 ) ) ;
#323 = ORIENTED_EDGE ( 'NONE', *, *, #334, .F. ) ;
#324 = ADVANCED_FACE ( 'NONE', ( #613 ), #355, .T. ) ;
#325 = FACE_OUTER_BOUND ( 'NONE', #211, .T. ) ;
#326 = ORIENTED_EDGE ( 'NONE', *, *, #35, .T. ) ;
#327 = DIRECTION ( 'NONE',  ( 0.000000000000000000, -1.000000000000000000, 1.188187522481193495E-15 ) ) ;
#328 = ORIENTED_EDGE ( 'NONE', *, *, #244, .T. ) ;
#329 = EDGE_CURVE ( 'NONE', #469, #618, #212, .T. ) ;
#330 = CARTESIAN_POINT ( 'NONE',  ( 6.000000000000000000, 5.839897972853067998, -6.938893903907228378E-15 ) ) ;
#331 = VERTEX_POINT ( 'NONE', #382 ) ;
#332 = VECTOR ( 'NONE', #75, 1000.000000000000114 ) ;
#333 = AXIS2_PLACEMENT_3D ( 'NONE', #210, #667, #157 ) ;
#334 = EDGE_CURVE ( 'NONE', #474, #658, #160, .T. ) ;
#335 = FACE_OUTER_BOUND ( 'NONE', #505, .T. ) ;
#336 = ORIENTED_EDGE ( 'NONE', *, *, #417, .F. ) ;
#337 = PLANE ( 'NONE',  #551 ) ;
#338 = VERTEX_POINT ( 'NONE', #65 ) ;
#339 = DIRECTION ( 'NONE',  ( 0.000000000000000000, -1.000000000000000000, 0.000000000000000000 ) ) ;
#340 = ORIENTED_EDGE ( 'NONE', *, *, #575, .T. ) ;
#341 = DIRECTION ( 'NONE',  ( -1.000000000000000000, -0.000000000000000000, -0.000000000000000000 ) ) ;
#342 = AXIS2_PLACEMENT_3D ( 'NONE', #633, #470, #187 ) ;
#343 = VERTEX_POINT ( 'NONE', #344 ) ;
#344 = CARTESIAN_POINT ( 'NONE',  ( 0.6000000000000033085, 0.000000000000000000, 9.000000000000000000 ) ) ;
#345 = ORIENTED_EDGE ( 'NONE', *, *, #532, .F. ) ;
#346 = FILL_AREA_STYLE_COLOUR ( '', #635 ) ;
#347 = ADVANCED_FACE ( 'NONE', ( #232 ), #337, .F. ) ;
#348 = CARTESIAN_POINT ( 'NONE',  ( 11.99999999999999645, 1.102182119232617714E-15, -9.000000000000000000 ) ) ;
#349 = ORIENTED_EDGE ( 'NONE', *, *, #100, .F. ) ;
#350 = DIRECTION ( 'NONE',  ( -1.000000000000000000, -0.000000000000000000, -0.000000000000000000 ) ) ;
#351 = CARTESIAN_POINT ( 'NONE',  ( 6.000000000000000000, 2.919948986426537996, 5.057499999999997442 ) ) ;
#352 = ADVANCED_FACE ( 'NONE', ( #581, #109 ), #169, .T. ) ;
#353 = AXIS2_PLACEMENT_3D ( 'NONE', #604, #21, #473 ) ;
#354 = DIRECTION ( 'NONE',  ( 0.000000000000000000, -0.5000000000000012212, -0.8660254037844379305 ) ) ;
#355 = TOROIDAL_SURFACE ( 'NONE', #445, 8.400000000000000355, 0.5999999999999999778 ) ;
#356 = CARTESIAN_POINT ( 'NONE',  ( 6.000000000000000000, 6.760415694317219092E-15, 5.057500000000001883 ) ) ;
#357 = LINE ( 'NONE', #142, #603 ) ;
#358 = ORIENTED_EDGE ( 'NONE', *, *, #233, .F. ) ;
#359 = EDGE_CURVE ( 'NONE', #582, #87, #478, .T. ) ;
#360 = CARTESIAN_POINT ( 'NONE',  ( 0.000000000000000000, -2.919948986426526893, 5.057500000000005436 ) ) ;
#361 = CARTESIAN_POINT ( 'NONE',  ( 11.99999999999999645, 0.000000000000000000, 9.000000000000000000 ) ) ;
#362 = LINE ( 'NONE', #482, #400 ) ;
#363 = ORIENTED_EDGE ( 'NONE', *, *, #384, .F. ) ;
#364 = DIRECTION ( 'NONE',  ( -0.5000000000000046629, 0.000000000000000000, 0.8660254037844359321 ) ) ;
#365 = DIRECTION ( 'NONE',  ( -1.000000000000000000, -0.000000000000000000, -0.000000000000000000 ) ) ;
#366 = ORIENTED_EDGE ( 'NONE', *, *, #255, .F. ) ;
#367 = VECTOR ( 'NONE', #733, 1000.000000000000114 ) ;
#368 = CONICAL_SURFACE ( 'NONE', #465, 5.035999999999999588, 0.7853981633974748133 ) ;
#369 = DIRECTION ( 'NONE',  ( 1.000000000000000000, 0.000000000000000000, 0.000000000000000000 ) ) ;
#370 = CARTESIAN_POINT ( 'NONE',  ( -31.74999999999995737, 0.000000000000000000, 6.000000000000001776 ) ) ;
#371 = ORIENTED_EDGE ( 'NONE', *, *, #545, .F. ) ;
#372 = FACE_OUTER_BOUND ( 'NONE', #725, .T. ) ;
#373 = ADVANCED_FACE ( 'NONE', ( #693 ), #380, .T. ) ;
#374 = DIRECTION ( 'NONE',  ( 0.000000000000000000, -0.5000000000000011102, -0.8660254037844380415 ) ) ;
#375 = VERTEX_POINT ( 'NONE', #569 ) ;
#376 = APPLICATION_CONTEXT ( 'automotive_design' ) ;
#377 =( NAMED_UNIT ( * ) SI_UNIT ( $, .STERADIAN. ) SOLID_ANGLE_UNIT ( ) );
#378 = CARTESIAN_POINT ( 'NONE',  ( 0.000000000000000000, 2.919948986426537996, 5.057499999999997442 ) ) ;
#379 = EDGE_LOOP ( 'NONE', ( #665, #522, #8, #455 ) ) ;
#380 = CONICAL_SURFACE ( 'NONE', #540, 5.035999999999999588, 0.7853981633974748133 ) ;
#381 = CIRCLE ( 'NONE', #721, 5.035999999999999588 ) ;
#382 = CARTESIAN_POINT ( 'NONE',  ( 0.000000000000000000, 2.919948986426528226, -5.057500000000002771 ) ) ;
#383 = ORIENTED_EDGE ( 'NONE', *, *, #508, .F. ) ;
#384 = EDGE_CURVE ( 'NONE', #606, #331, #179, .T. ) ;
#385 = CARTESIAN_POINT ( 'NONE',  ( 6.000000000000000000, 5.839897972853067998, -6.938893903907228378E-15 ) ) ;
#386 = EDGE_LOOP ( 'NONE', ( #62, #257, #495, #203 ) ) ;
#387 = FACE_OUTER_BOUND ( 'NONE', #238, .T. ) ;
#388 = EDGE_LOOP ( 'NONE', ( #180, #91, #105 ) ) ;
#389 = VECTOR ( 'NONE', #574, 1000.000000000000000 ) ;
#390 = VECTOR ( 'NONE', #182, 1000.000000000000000 ) ;
#391 = CARTESIAN_POINT ( 'NONE',  ( 0.000000000000000000, 5.839897972853067998, -6.938893903907228378E-15 ) ) ;
#392 = ORIENTED_EDGE ( 'NONE', *, *, #9, .T. ) ;
#393 = CARTESIAN_POINT ( 'NONE',  ( 91.03600000000004400, 0.000000000000000000, 0.000000000000000000 ) ) ;
#394 = EDGE_CURVE ( 'NONE', #678, #658, #509, .T. ) ;
#395 = VERTEX_POINT ( 'NONE', #7 ) ;
#396 = CARTESIAN_POINT ( 'NONE',  ( 0.000000000000000000, 0.000000000000000000, 0.000000000000000000 ) ) ;
#397 = FACE_OUTER_BOUND ( 'NONE', #31, .T. ) ;
#398 = DIRECTION ( 'NONE',  ( 0.000000000000000000, 1.000000000000000000, -1.224646799147353207E-16 ) ) ;
#399 = CARTESIAN_POINT ( 'NONE',  ( 0.000000000000000000, 0.000000000000000000, 8.400000000000000355 ) ) ;
#400 = VECTOR ( 'NONE', #90, 1000.000000000000000 ) ;
#401 = DIRECTION ( 'NONE',  ( -1.000000000000000000, -0.000000000000000000, -0.000000000000000000 ) ) ;
#402 = AXIS2_PLACEMENT_3D ( 'NONE', #113, #229, #679 ) ;
#403 =( GEOMETRIC_REPRESENTATION_CONTEXT ( 3 ) GLOBAL_UNCERTAINTY_ASSIGNED_CONTEXT ( ( #277 ) ) GLOBAL_UNIT_ASSIGNED_CONTEXT ( ( #135, #248, #115 ) ) REPRESENTATION_CONTEXT ( 'NONE', 'WORKASPACE' ) );
#404 = ORIENTED_EDGE ( 'NONE', *, *, #406, .T. ) ;
#405 = ORIENTED_EDGE ( 'NONE', *, *, #100, .T. ) ;
#406 = EDGE_CURVE ( 'NONE', #331, #620, #517, .T. ) ;
#407 = CARTESIAN_POINT ( 'NONE',  ( 0.000000000000000000, 0.000000000000000000, 0.000000000000000000 ) ) ;
#408 = CARTESIAN_POINT ( 'NONE',  ( 12.59999999999999964, 0.000000000000000000, -6.600000000000001421 ) ) ;
#409 = ORIENTED_EDGE ( 'NONE', *, *, #453, .F. ) ;
#410 = EDGE_CURVE ( 'NONE', #673, #561, #672, .T. ) ;
#411 = CARTESIAN_POINT ( 'NONE',  ( 91.03600000000004400, 7.347880794884121708E-16, -6.000000000000001776 ) ) ;
#412 = CARTESIAN_POINT ( 'NONE',  ( 91.03600000000004400, 0.000000000000000000, 6.000000000000001776 ) ) ;
#413 = VERTEX_POINT ( 'NONE', #348 ) ;
#414 = CARTESIAN_POINT ( 'NONE',  ( 12.59999999999999964, 0.000000000000000000, 6.000000000000001776 ) ) ;
#415 = DIRECTION ( 'NONE',  ( -1.000000000000000000, -0.000000000000000000, -0.000000000000000000 ) ) ;
#416 = AXIS2_PLACEMENT_3D ( 'NONE', #176, #398, #579 ) ;
#417 = EDGE_CURVE ( 'NONE', #618, #620, #685, .T. ) ;
#418 = CARTESIAN_POINT ( 'NONE',  ( 0.000000000000000000, -5.839897972853065333, 8.239936510889833698E-15 ) ) ;
#419 = ORIENTED_EDGE ( 'NONE', *, *, #228, .F. ) ;
#420 = FACE_OUTER_BOUND ( 'NONE', #386, .T. ) ;
#421 = DIRECTION ( 'NONE',  ( 0.000000000000000000, 0.000000000000000000, 1.000000000000000000 ) ) ;
#422 = ADVANCED_FACE ( 'NONE', ( #737 ), #294, .F. ) ;
#423 = ORIENTED_EDGE ( 'NONE', *, *, #276, .F. ) ;
#424 = CARTESIAN_POINT ( 'NONE',  ( 6.000000000000000000, 0.000000000000000000, 5.057500000000000107 ) ) ;
#425 = CARTESIAN_POINT ( 'NONE',  ( 6.000000000000000000, 0.000000000000000000, 0.000000000000000000 ) ) ;
#426 = CARTESIAN_POINT ( 'NONE',  ( 6.000000000000000000, 2.919948986426528226, -5.057500000000002771 ) ) ;
#427 = ORIENTED_EDGE ( 'NONE', *, *, #521, .F. ) ;
#428 = DIRECTION ( 'NONE',  ( 0.000000000000000000, 1.000000000000000000, -1.336710962791342904E-15 ) ) ;
#429 = PRODUCT_DEFINITION_FORMATION_WITH_SPECIFIED_SOURCE ( 'Symmetric', '', #573, .NOT_KNOWN. ) ;
#430 = CIRCLE ( 'NONE', #214, 5.057500000000000107 ) ;
#431 = VERTEX_POINT ( 'NONE', #224 ) ;
#432 = AXIS2_PLACEMENT_3D ( 'NONE', #609, #321, #261 ) ;
#433 = EDGE_CURVE ( 'NONE', #338, #469, #430, .T. ) ;
#434 = CARTESIAN_POINT ( 'NONE',  ( 6.000000000000000000, 5.839897972853067998, -6.938893903907228378E-15 ) ) ;
#435 = LINE ( 'NONE', #653, #562 ) ;
#436 = ORIENTED_EDGE ( 'NONE', *, *, #615, .F. ) ;
#437 =( NAMED_UNIT ( * ) PLANE_ANGLE_UNIT ( ) SI_UNIT ( $, .RADIAN. ) );
#438 = PRODUCT_RELATED_PRODUCT_CATEGORY ( 'part', '', ( #573 ) ) ;
#439 = CARTESIAN_POINT ( 'NONE',  ( 6.000000000000000000, -2.919948986426526893, 5.057500000000005436 ) ) ;
#440 = EDGE_LOOP ( 'NONE', ( #423, #66, #270 ) ) ;
#441 = CARTESIAN_POINT ( 'NONE',  ( 6.000000000000000000, 2.919948986426528226, -5.057500000000002771 ) ) ;
#442 = ADVANCED_FACE ( 'NONE', ( #397 ), #520, .F. ) ;
#443 = EDGE_LOOP ( 'NONE', ( #466, #710 ) ) ;
#444 = VECTOR ( 'NONE', #146, 1000.000000000000227 ) ;
#445 = AXIS2_PLACEMENT_3D ( 'NONE', #271, #97, #269 ) ;
#446 = FACE_OUTER_BOUND ( 'NONE', #703, .T. ) ;
#447 = ORIENTED_EDGE ( 'NONE', *, *, #521, .T. ) ;
#448 = PLANE ( 'NONE',  #705 ) ;
#449 = ORIENTED_EDGE ( 'NONE', *, *, #571, .F. ) ;
#450 = DIRECTION ( 'NONE',  ( 0.000000000000000000, 0.000000000000000000, 1.000000000000000000 ) ) ;
#451 = ORIENTED_EDGE ( 'NONE', *, *, #394, .T. ) ;
#452 = VECTOR ( 'NONE', #33, 1000.000000000000000 ) ;
#453 = EDGE_CURVE ( 'NONE', #606, #320, #236, .T. ) ;
#454 = DIRECTION ( 'NONE',  ( -0.7071067811865288100, 8.659560562355162121E-17, -0.7071067811865662245 ) ) ;
#455 = ORIENTED_EDGE ( 'NONE', *, *, #699, .F. ) ;
#456 = EDGE_CURVE ( 'NONE', #658, #474, #503, .T. ) ;
#457 = DIRECTION ( 'NONE',  ( -1.000000000000000000, -0.000000000000000000, -0.000000000000000000 ) ) ;
#458 = ORIENTED_EDGE ( 'NONE', *, *, #508, .T. ) ;
#459 = CARTESIAN_POINT ( 'NONE',  ( 92.00000000000000000, 0.000000000000000000, 0.000000000000000000 ) ) ;
#460 = ORIENTED_EDGE ( 'NONE', *, *, #708, .F. ) ;
#461 = ADVANCED_FACE ( 'NONE', ( #13 ), #145, .F. ) ;
#462 = CARTESIAN_POINT ( 'NONE',  ( 6.000000000000000000, 0.000000000000000000, 0.000000000000000000 ) ) ;
#463 = CARTESIAN_POINT ( 'NONE',  ( 0.000000000000000000, 5.839897972853067998, -6.938893903907228378E-15 ) ) ;
#464 = AXIS2_PLACEMENT_3D ( 'NONE', #221, #729, #664 ) ;
#465 = AXIS2_PLACEMENT_3D ( 'NONE', #3, #59, #196 ) ;
#466 = ORIENTED_EDGE ( 'NONE', *, *, #741, .T. ) ;
#467 = FACE_BOUND ( 'NONE', #680, .T. ) ;
#468 = PLANE ( 'NONE',  #564 ) ;
#469 = VERTEX_POINT ( 'NONE', #706 ) ;
#470 = DIRECTION ( 'NONE',  ( -1.000000000000000000, -0.000000000000000000, -0.000000000000000000 ) ) ;
#471 = LINE ( 'NONE', #583, #85 ) ;
#472 = LINE ( 'NONE', #197, #624 ) ;
#473 = DIRECTION ( 'NONE',  ( 0.000000000000000000, 0.000000000000000000, -1.000000000000000000 ) ) ;
#474 = VERTEX_POINT ( 'NONE', #412 ) ;
#475 = CARTESIAN_POINT ( 'NONE',  ( 6.000000000000000000, 6.193651186687738874E-16, -5.057500000000000107 ) ) ;
#476 = TOROIDAL_SURFACE ( 'NONE', #671, 6.600000000000001421, 0.5999999999999999778 ) ;
#477 = LINE ( 'NONE', #546, #452 ) ;
#478 = CIRCLE ( 'NONE', #588, 0.5999999999999998668 ) ;
#479 = AXIS2_PLACEMENT_3D ( 'NONE', #396, #241, #235 ) ;
#480 = VERTEX_POINT ( 'NONE', #712 ) ;
#481 = DIRECTION ( 'NONE',  ( -0.5000000000000046629, 1.060575238724903587E-16, -0.8660254037844359321 ) ) ;
#482 = CARTESIAN_POINT ( 'NONE',  ( 92.00000000000000000, 0.000000000000000000, 5.035999999999999588 ) ) ;
#483 = VERTEX_POINT ( 'NONE', #351 ) ;
#484 = CARTESIAN_POINT ( 'NONE',  ( 0.6000000000000033085, 1.028703311283776586E-15, -8.400000000000000355 ) ) ;
#485 = VERTEX_POINT ( 'NONE', #529 ) ;
#486 = ADVANCED_FACE ( 'NONE', ( #25 ), #239, .T. ) ;
#487 = CARTESIAN_POINT ( 'NONE',  ( 12.00000000000000000, 0.000000000000000000, 0.000000000000000000 ) ) ;
#488 = DIRECTION ( 'NONE',  ( -1.000000000000000000, -0.000000000000000000, -0.000000000000000000 ) ) ;
#489 = AXIS2_PLACEMENT_3D ( 'NONE', #186, #53, #646 ) ;
#490 = VECTOR ( 'NONE', #43, 1000.000000000000000 ) ;
#491 = VERTEX_POINT ( 'NONE', #361 ) ;
#492 = CONICAL_SURFACE ( 'NONE', #46, 5.057500000000000107, 1.047197551196592302 ) ;
#493 = APPLICATION_PROTOCOL_DEFINITION ( 'draft international standard', 'automotive_design', 1998, #302 ) ;
#494 = CARTESIAN_POINT ( 'NONE',  ( 6.000000000000000000, 5.839897972853067998, -6.938893903907228378E-15 ) ) ;
#495 = ORIENTED_EDGE ( 'NONE', *, *, #193, .T. ) ;
#496 = EDGE_CURVE ( 'NONE', #289, #673, #472, .T. ) ;
#497 = DIRECTION ( 'NONE',  ( 0.000000000000000000, 0.4999999999999993894, -0.8660254037844389297 ) ) ;
#498 = ORIENTED_EDGE ( 'NONE', *, *, #35, .F. ) ;
#499 = PRODUCT_DEFINITION ( 'General', '', #429, #727 ) ;
#500 = LINE ( 'NONE', #385, #367 ) ;
#501 = ORIENTED_EDGE ( 'NONE', *, *, #138, .T. ) ;
#502 = CIRCLE ( 'NONE', #586, 9.000000000000000000 ) ;
#503 = CIRCLE ( 'NONE', #181, 6.000000000000001776 ) ;
#504 = DIRECTION ( 'NONE',  ( 0.000000000000000000, 1.000000000000000000, -1.188187522481193495E-15 ) ) ;
#505 = EDGE_LOOP ( 'NONE', ( #507, #295, #631, #311 ) ) ;
#506 = PLANE ( 'NONE',  #170 ) ;
#507 = ORIENTED_EDGE ( 'NONE', *, *, #334, .T. ) ;
#508 = EDGE_CURVE ( 'NONE', #561, #209, #274, .T. ) ;
#509 = LINE ( 'NONE', #513, #252 ) ;
#510 = ADVANCED_FACE ( 'NONE', ( #597 ), #468, .F. ) ;
#511 = AXIS2_PLACEMENT_3D ( 'NONE', #484, #306, #716 ) ;
#512 = AXIS2_PLACEMENT_3D ( 'NONE', #487, #156, #82 ) ;
#513 = CARTESIAN_POINT ( 'NONE',  ( 92.00000000000000000, 6.167321280506070407E-16, -5.035999999999999588 ) ) ;
#514 = LINE ( 'NONE', #686, #168 ) ;
#515 = DIRECTION ( 'NONE',  ( 0.000000000000000000, -0.4999999999999993339, 0.8660254037844389297 ) ) ;
#516 = ADVANCED_FACE ( 'NONE', ( #420 ), #651, .T. ) ;
#517 = LINE ( 'NONE', #626, #390 ) ;
#518 = EDGE_LOOP ( 'NONE', ( #404, #336, #650, #272, #734 ) ) ;
#519 = FACE_OUTER_BOUND ( 'NONE', #183, .T. ) ;
#520 = PLANE ( 'NONE',  #634 ) ;
#521 = EDGE_CURVE ( 'NONE', #413, #431, #645, .T. ) ;
#522 = ORIENTED_EDGE ( 'NONE', *, *, #644, .F. ) ;
#523 = FACE_OUTER_BOUND ( 'NONE', #58, .T. ) ;
#524 = AXIS2_PLACEMENT_3D ( 'NONE', #279, #322, #504 ) ;
#525 = DIRECTION ( 'NONE',  ( 0.000000000000000000, 0.000000000000000000, 1.000000000000000000 ) ) ;
#526 = AXIS2_PLACEMENT_3D ( 'NONE', #122, #231, #700 ) ;
#527 = FACE_OUTER_BOUND ( 'NONE', #283, .T. ) ;
#528 = CARTESIAN_POINT ( 'NONE',  ( 0.000000000000000000, 5.839897972853067998, -6.938893903907228378E-15 ) ) ;
#529 = CARTESIAN_POINT ( 'NONE',  ( 0.000000000000000000, 1.065442715258197248E-15, -8.400000000000000355 ) ) ;
#530 = PRODUCT_DEFINITION_SHAPE ( 'NONE', 'NONE',  #499 ) ;
#531 = DIRECTION ( 'NONE',  ( 0.000000000000000000, 0.000000000000000000, -1.000000000000000000 ) ) ;
#532 = EDGE_CURVE ( 'NONE', #491, #413, #120, .T. ) ;
#533 = SURFACE_STYLE_USAGE ( .BOTH. , #56 ) ;
#534 = DIRECTION ( 'NONE',  ( 0.000000000000000000, -0.5000000000000011102, -0.8660254037844380415 ) ) ;
#535 = DIRECTION ( 'NONE',  ( 1.000000000000000000, 0.000000000000000000, 0.000000000000000000 ) ) ;
#536 = EDGE_LOOP ( 'NONE', ( #599, #159, #234, #627, #722 ) ) ;
#537 = DIRECTION ( 'NONE',  ( -1.000000000000000000, -0.000000000000000000, -0.000000000000000000 ) ) ;
#538 = VECTOR ( 'NONE', #488, 1000.000000000000000 ) ;
#539 = DIRECTION ( 'NONE',  ( 0.000000000000000000, 0.000000000000000000, 1.000000000000000000 ) ) ;
#540 = AXIS2_PLACEMENT_3D ( 'NONE', #459, #401, #123 ) ;
#541 = CIRCLE ( 'NONE', #526, 6.000000000000001776 ) ;
#542 = ORIENTED_EDGE ( 'NONE', *, *, #575, .F. ) ;
#543 = PLANE ( 'NONE',  #226 ) ;
#544 = CARTESIAN_POINT ( 'NONE',  ( 6.000000000000000000, -2.919948986426526893, 5.057500000000005436 ) ) ;
#545 = EDGE_CURVE ( 'NONE', #172, #469, #602, .T. ) ;
#546 = CARTESIAN_POINT ( 'NONE',  ( 6.000000000000000000, 2.919948986426528226, -5.057500000000002771 ) ) ;
#547 = ORIENTED_EDGE ( 'NONE', *, *, #89, .T. ) ;
#548 = FACE_OUTER_BOUND ( 'NONE', #388, .T. ) ;
#549 = ORIENTED_EDGE ( 'NONE', *, *, #329, .T. ) ;
#550 = DIRECTION ( 'NONE',  ( -1.000000000000000000, -0.000000000000000000, -0.000000000000000000 ) ) ;
#551 = AXIS2_PLACEMENT_3D ( 'NONE', #572, #637, #4 ) ;
#552 = ORIENTED_EDGE ( 'NONE', *, *, #204, .T. ) ;
#553 = CIRCLE ( 'NONE', #432, 0.5999999999999998668 ) ;
#554 = EDGE_CURVE ( 'NONE', #480, #678, #381, .T. ) ;
#555 = CARTESIAN_POINT ( 'NONE',  ( -31.74999999999995737, 0.000000000000000000, 9.000000000000000000 ) ) ;
#556 = PLANE ( 'NONE',  #524 ) ;
#557 = ORIENTED_EDGE ( 'NONE', *, *, #138, .F. ) ;
#558 = CARTESIAN_POINT ( 'NONE',  ( 6.000000000000000000, 5.839897972853067998, -6.938893903907228378E-15 ) ) ;
#559 = ORIENTED_EDGE ( 'NONE', *, *, #60, .T. ) ;
#560 = LINE ( 'NONE', #106, #44 ) ;
#561 = VERTEX_POINT ( 'NONE', #356 ) ;
#562 = VECTOR ( 'NONE', #428, 1000.000000000000000 ) ;
#563 = VECTOR ( 'NONE', #365, 1000.000000000000000 ) ;
#564 = AXIS2_PLACEMENT_3D ( 'NONE', #544, #79, #648 ) ;
#565 = CIRCLE ( 'NONE', #240, 6.600000000000001421 ) ;
#566 = DIRECTION ( 'NONE',  ( 0.000000000000000000, -0.8660254037844390407, -0.4999999999999994449 ) ) ;
#567 = EDGE_CURVE ( 'NONE', #289, #694, #315, .T. ) ;
#568 = ORIENTED_EDGE ( 'NONE', *, *, #167, .F. ) ;
#569 = CARTESIAN_POINT ( 'NONE',  ( 6.000000000000000000, -4.379923479639800554, -2.528749999999994724 ) ) ;
#570 = ORIENTED_EDGE ( 'NONE', *, *, #615, .T. ) ;
#571 = EDGE_CURVE ( 'NONE', #343, #431, #108, .T. ) ;
#572 = CARTESIAN_POINT ( 'NONE',  ( 6.000000000000000000, 5.839897972853067998, -6.938893903907228378E-15 ) ) ;
#573 = PRODUCT ( 'socket head cap screw_iso_ISO 4762 M12 x 80 - 36N', 'socket head cap screw_iso_ISO 4762 M12 x 80 - 36N', '', ( #612 ) ) ;
#574 = DIRECTION ( 'NONE',  ( 0.000000000000000000, 1.000000000000000000, -1.336710962791342904E-15 ) ) ;
#575 = EDGE_CURVE ( 'NONE', #413, #491, #37, .T. ) ;
#576 = VECTOR ( 'NONE', #374, 1000.000000000000114 ) ;
#577 = CARTESIAN_POINT ( 'NONE',  ( 6.000000000000000000, -2.919948986426537996, -5.057499999999995666 ) ) ;
#578 = CARTESIAN_POINT ( 'NONE',  ( 6.000000000000000000, 5.839897972853067998, -6.938893903907228378E-15 ) ) ;
#579 = DIRECTION ( 'NONE',  ( 0.000000000000000000, 1.224646799147354933E-16, 1.000000000000000000 ) ) ;
#580 = DIRECTION ( 'NONE',  ( 0.000000000000000000, 0.000000000000000000, 1.000000000000000000 ) ) ;
#581 = FACE_BOUND ( 'NONE', #443, .T. ) ;
#582 = VERTEX_POINT ( 'NONE', #63 ) ;
#583 = CARTESIAN_POINT ( 'NONE',  ( 6.000000000000000000, 5.839897972853067998, -6.938893903907228378E-15 ) ) ;
#584 = CARTESIAN_POINT ( 'NONE',  ( 91.03600000000004400, 0.000000000000000000, 0.000000000000000000 ) ) ;
#585 = ORIENTED_EDGE ( 'NONE', *, *, #103, .F. ) ;
#586 = AXIS2_PLACEMENT_3D ( 'NONE', #598, #657, #246 ) ;
#587 = DIRECTION ( 'NONE',  ( -1.000000000000000000, -0.000000000000000000, -0.000000000000000000 ) ) ;
#588 = AXIS2_PLACEMENT_3D ( 'NONE', #408, #339, #173 ) ;
#589 = DIRECTION ( 'NONE',  ( -1.000000000000000000, -0.000000000000000000, -0.000000000000000000 ) ) ;
#590 =( GEOMETRIC_REPRESENTATION_CONTEXT ( 3 ) GLOBAL_UNCERTAINTY_ASSIGNED_CONTEXT ( ( #111 ) ) GLOBAL_UNIT_ASSIGNED_CONTEXT ( ( #596, #437, #377 ) ) REPRESENTATION_CONTEXT ( 'NONE', 'WORKASPACE' ) );
#591 = LINE ( 'NONE', #137, #538 ) ;
#592 = EDGE_CURVE ( 'NONE', #375, #673, #55, .T. ) ;
#593 = DIRECTION ( 'NONE',  ( -1.000000000000000000, -0.000000000000000000, -0.000000000000000000 ) ) ;
#594 = DIRECTION ( 'NONE',  ( 0.000000000000000000, 0.000000000000000000, -1.000000000000000000 ) ) ;
#595 = ORIENTED_EDGE ( 'NONE', *, *, #255, .T. ) ;
#596 =( LENGTH_UNIT ( ) NAMED_UNIT ( * ) SI_UNIT ( .MILLI., .METRE. ) );
#597 = FACE_OUTER_BOUND ( 'NONE', #662, .T. ) ;
#598 = CARTESIAN_POINT ( 'NONE',  ( 0.6000000000000033085, 0.000000000000000000, 0.000000000000000000 ) ) ;
#599 = ORIENTED_EDGE ( 'NONE', *, *, #723, .F. ) ;
#600 = EDGE_CURVE ( 'NONE', #638, #485, #68, .T. ) ;
#601 = DIRECTION ( 'NONE',  ( 1.000000000000000000, 0.000000000000000000, 0.000000000000000000 ) ) ;
#602 = LINE ( 'NONE', #475, #134 ) ;
#603 = VECTOR ( 'NONE', #354, 1000.000000000000114 ) ;
#604 = CARTESIAN_POINT ( 'NONE',  ( 6.000000000000000000, 5.839897972853067998, -6.938893903907228378E-15 ) ) ;
#605 = AXIS2_PLACEMENT_3D ( 'NONE', #701, #20, #141 ) ;
#606 = VERTEX_POINT ( 'NONE', #528 ) ;
#607 = CARTESIAN_POINT ( 'NONE',  ( 6.000000000000000000, 0.000000000000000000, 0.000000000000000000 ) ) ;
#608 = VERTEX_POINT ( 'NONE', #414 ) ;
#609 = CARTESIAN_POINT ( 'NONE',  ( 0.6000000000000033085, 0.000000000000000000, 8.400000000000000355 ) ) ;
#610 = LINE ( 'NONE', #670, #490 ) ;
#611 = ORIENTED_EDGE ( 'NONE', *, *, #359, .F. ) ;
#612 = PRODUCT_CONTEXT ( 'NONE', #376, 'mechanical' ) ;
#613 = FACE_OUTER_BOUND ( 'NONE', #40, .T. ) ;
#614 = ORIENTED_EDGE ( 'NONE', *, *, #741, .F. ) ;
#615 = EDGE_CURVE ( 'NONE', #485, #638, #707, .T. ) ;
#616 = AXIS2_PLACEMENT_3D ( 'NONE', #254, #589, #249 ) ;
#617 = DIRECTION ( 'NONE',  ( 1.000000000000000000, 0.000000000000000000, 0.000000000000000000 ) ) ;
#618 = VERTEX_POINT ( 'NONE', #577 ) ;
#619 = CARTESIAN_POINT ( 'NONE',  ( 6.000000000000000000, 4.379923479639798778, 2.528749999999996501 ) ) ;
#620 = VERTEX_POINT ( 'NONE', #12 ) ;
#621 = ADVANCED_FACE ( 'NONE', ( #290 ), #492, .F. ) ;
#622 = DIRECTION ( 'NONE',  ( 0.000000000000000000, 0.5000000000000011102, 0.8660254037844379305 ) ) ;
#623 = EDGE_LOOP ( 'NONE', ( #247, #45, #557, #585, #76 ) ) ;
#624 = VECTOR ( 'NONE', #534, 1000.000000000000114 ) ;
#625 = ORIENTED_EDGE ( 'NONE', *, *, #571, .T. ) ;
#626 = CARTESIAN_POINT ( 'NONE',  ( 0.000000000000000000, 2.919948986426528226, -5.057500000000002771 ) ) ;
#627 = ORIENTED_EDGE ( 'NONE', *, *, #592, .T. ) ;
#628 = ADVANCED_FACE ( 'NONE', ( #523 ), #636, .T. ) ;
#629 = DIRECTION ( 'NONE',  ( -1.000000000000000000, 0.000000000000000000, -0.000000000000000000 ) ) ;
#630 = DIRECTION ( 'NONE',  ( 0.000000000000000000, 0.000000000000000000, -1.000000000000000000 ) ) ;
#631 = ORIENTED_EDGE ( 'NONE', *, *, #644, .T. ) ;
#632 = EDGE_CURVE ( 'NONE', #209, #483, #471, .T. ) ;
#633 = CARTESIAN_POINT ( 'NONE',  ( 6.000000000000000000, 0.000000000000000000, 0.000000000000000000 ) ) ;
#634 = AXIS2_PLACEMENT_3D ( 'NONE', #578, #57, #291 ) ;
#635 = COLOUR_RGB ( '',0.7921568627450980005, 0.8196078431372548767, 0.9333333333333333481 ) ;
#636 = CYLINDRICAL_SURFACE ( 'NONE', #26, 9.000000000000000000 ) ;
#637 = DIRECTION ( 'NONE',  ( 1.000000000000000000, 0.000000000000000000, 0.000000000000000000 ) ) ;
#638 = VERTEX_POINT ( 'NONE', #399 ) ;
#639 = ORIENTED_EDGE ( 'NONE', *, *, #433, .T. ) ;
#640 = DIRECTION ( 'NONE',  ( 0.000000000000000000, 0.000000000000000000, 1.000000000000000000 ) ) ;
#641 = CARTESIAN_POINT ( 'NONE',  ( 6.000000000000000000, 0.000000000000000000, 0.000000000000000000 ) ) ;
#642 = ORIENTED_EDGE ( 'NONE', *, *, #708, .T. ) ;
#643 = PLANE ( 'NONE',  #216 ) ;
#644 = EDGE_CURVE ( 'NONE', #582, #608, #541, .T. ) ;
#645 = LINE ( 'NONE', #656, #563 ) ;
#646 = DIRECTION ( 'NONE',  ( 0.000000000000000000, 0.000000000000000000, 1.000000000000000000 ) ) ;
#647 = AXIS2_PLACEMENT_3D ( 'NONE', #607, #649, #421 ) ;
#648 = DIRECTION ( 'NONE',  ( 0.000000000000000000, -1.000000000000000000, 1.336710962791342904E-15 ) ) ;
#649 = DIRECTION ( 'NONE',  ( -1.000000000000000000, -0.000000000000000000, -0.000000000000000000 ) ) ;
#650 = ORIENTED_EDGE ( 'NONE', *, *, #329, .F. ) ;
#651 = CYLINDRICAL_SURFACE ( 'NONE', #206, 6.000000000000001776 ) ;
#652 = ADVANCED_BREP_SHAPE_REPRESENTATION ( 'socket head cap screw_iso_ISO 4762 M12 x 80 - 36N', ( #669, #739 ), #590 ) ;
#653 = CARTESIAN_POINT ( 'NONE',  ( 6.000000000000000000, -2.919948986426526893, 5.057500000000005436 ) ) ;
#654 = ORIENTED_EDGE ( 'NONE', *, *, #600, .T. ) ;
#655 = ADVANCED_FACE ( 'NONE', ( #467, #692 ), #687, .T. ) ;
#656 = CARTESIAN_POINT ( 'NONE',  ( -31.74999999999995737, 1.102182119232617714E-15, -9.000000000000000000 ) ) ;
#657 = DIRECTION ( 'NONE',  ( 1.000000000000000000, 0.000000000000000000, 0.000000000000000000 ) ) ;
#658 = VERTEX_POINT ( 'NONE', #411 ) ;
#659 = VECTOR ( 'NONE', #36, 1000.000000000000000 ) ;
#660 = FACE_OUTER_BOUND ( 'NONE', #298, .T. ) ;
#661 = STYLED_ITEM ( 'NONE', ( #296 ), #669 ) ;
#662 = EDGE_LOOP ( 'NONE', ( #595, #317, #18, #251, #94 ) ) ;
#663 = DIRECTION ( 'NONE',  ( -1.000000000000000000, -0.000000000000000000, -0.000000000000000000 ) ) ;
#664 = DIRECTION ( 'NONE',  ( 0.000000000000000000, 0.000000000000000000, 1.000000000000000000 ) ) ;
#665 = ORIENTED_EDGE ( 'NONE', *, *, #41, .F. ) ;
#666 = ADVANCED_FACE ( 'NONE', ( #519 ), #643, .T. ) ;
#667 = DIRECTION ( 'NONE',  ( -1.000000000000000000, -0.000000000000000000, -0.000000000000000000 ) ) ;
#668 = ORIENTED_EDGE ( 'NONE', *, *, #406, .F. ) ;
#669 = MANIFOLD_SOLID_BREP ( 'Hex', #237 ) ;
#670 = CARTESIAN_POINT ( 'NONE',  ( 0.000000000000000000, -2.919948986426526893, 5.057500000000005436 ) ) ;
#671 = AXIS2_PLACEMENT_3D ( 'NONE', #14, #243, #698 ) ;
#672 = CIRCLE ( 'NONE', #719, 5.057500000000000107 ) ;
#673 = VERTEX_POINT ( 'NONE', #126 ) ;
#674 = LINE ( 'NONE', #163, #576 ) ;
#675 = ORIENTED_EDGE ( 'NONE', *, *, #532, .T. ) ;
#676 = ADVANCED_FACE ( 'NONE', ( #64 ), #368, .T. ) ;
#677 = CARTESIAN_POINT ( 'NONE',  ( 92.00000000000000000, 5.035999999999999588, 0.000000000000000000 ) ) ;
#678 = VERTEX_POINT ( 'NONE', #715 ) ;
#679 = DIRECTION ( 'NONE',  ( 0.000000000000000000, 0.5000000000000012212, 0.8660254037844379305 ) ) ;
#680 = EDGE_LOOP ( 'NONE', ( #81, #366, #143, #217, #668, #363 ) ) ;
#681 = CIRCLE ( 'NONE', #647, 5.057500000000000107 ) ;
#682 = MECHANICAL_DESIGN_GEOMETRIC_PRESENTATION_REPRESENTATION (  '', ( #661 ), #403 ) ;
#683 = EDGE_CURVE ( 'NONE', #343, #638, #553, .T. ) ;
#684 = ORIENTED_EDGE ( 'NONE', *, *, #496, .T. ) ;
#685 = LINE ( 'NONE', #282, #23 ) ;
#686 = CARTESIAN_POINT ( 'NONE',  ( 6.000000000000000000, -5.839897972853065333, 8.239936510889833698E-15 ) ) ;
#687 = PLANE ( 'NONE',  #207 ) ;
#688 = DIRECTION ( 'NONE',  ( 1.000000000000000000, 0.000000000000000000, 0.000000000000000000 ) ) ;
#689 = ORIENTED_EDGE ( 'NONE', *, *, #683, .F. ) ;
#690 = AXIS2_PLACEMENT_3D ( 'NONE', #275, #266, #215 ) ;
#691 = VECTOR ( 'NONE', #718, 1000.000000000000000 ) ;
#692 = FACE_OUTER_BOUND ( 'NONE', #227, .T. ) ;
#693 = FACE_OUTER_BOUND ( 'NONE', #260, .T. ) ;
#694 = VERTEX_POINT ( 'NONE', #360 ) ;
#695 = ADVANCED_FACE ( 'NONE', ( #372 ), #543, .F. ) ;
#696 = DIRECTION ( 'NONE',  ( -0.000000000000000000, 0.000000000000000000, 1.000000000000000000 ) ) ;
#697 = DIRECTION ( 'NONE',  ( 0.000000000000000000, 0.000000000000000000, 1.000000000000000000 ) ) ;
#698 = DIRECTION ( 'NONE',  ( 0.000000000000000000, 0.000000000000000000, -1.000000000000000000 ) ) ;
#699 = EDGE_CURVE ( 'NONE', #395, #87, #98, .T. ) ;
#700 = DIRECTION ( 'NONE',  ( 0.000000000000000000, 0.000000000000000000, -1.000000000000000000 ) ) ;
#701 = CARTESIAN_POINT ( 'NONE',  ( 0.6000000000000033085, 0.000000000000000000, 0.000000000000000000 ) ) ;
#702 = CARTESIAN_POINT ( 'NONE',  ( 12.59999999999999964, 0.000000000000000000, 0.000000000000000000 ) ) ;
#703 = EDGE_LOOP ( 'NONE', ( #409, #358, #34, #164, #50 ) ) ;
#704 = CIRCLE ( 'NONE', #511, 0.5999999999999998668 ) ;
#705 = AXIS2_PLACEMENT_3D ( 'NONE', #677, #617, #39 ) ;
#706 = CARTESIAN_POINT ( 'NONE',  ( 6.000000000000000000, -6.009258394948636914E-15, -5.057500000000000107 ) ) ;
#707 = CIRCLE ( 'NONE', #479, 8.400000000000000355 ) ;
#708 = EDGE_CURVE ( 'NONE', #491, #343, #92, .T. ) ;
#709 = DIRECTION ( 'NONE',  ( 1.000000000000000000, 0.000000000000000000, 0.000000000000000000 ) ) ;
#710 = ORIENTED_EDGE ( 'NONE', *, *, #699, .T. ) ;
#711 = DIRECTION ( 'NONE',  ( 0.000000000000000000, 0.000000000000000000, -1.000000000000000000 ) ) ;
#712 = CARTESIAN_POINT ( 'NONE',  ( 92.00000000000000000, 0.000000000000000000, 5.035999999999999588 ) ) ;
#713 = CARTESIAN_POINT ( 'NONE',  ( 6.000000000000000000, 5.839897972853067998, -6.938893903907228378E-15 ) ) ;
#714 = EDGE_LOOP ( 'NONE', ( #139, #280, #307, #689 ) ) ;
#715 = CARTESIAN_POINT ( 'NONE',  ( 92.00000000000000000, 6.757601037695096551E-16, -5.035999999999999588 ) ) ;
#716 = DIRECTION ( 'NONE',  ( 0.000000000000000000, -1.224646799147353207E-16, 1.000000000000000000 ) ) ;
#717 = ORIENTED_EDGE ( 'NONE', *, *, #41, .T. ) ;
#718 = DIRECTION ( 'NONE',  ( -1.000000000000000000, -0.000000000000000000, -0.000000000000000000 ) ) ;
#719 = AXIS2_PLACEMENT_3D ( 'NONE', #49, #341, #116 ) ;
#720 = LINE ( 'NONE', #418, #444 ) ;
#721 = AXIS2_PLACEMENT_3D ( 'NONE', #136, #305, #84 ) ;
#722 = ORIENTED_EDGE ( 'NONE', *, *, #410, .T. ) ;
#723 = EDGE_CURVE ( 'NONE', #172, #561, #318, .T. ) ;
#724 = CARTESIAN_POINT ( 'NONE',  ( 6.000000000000000000, -2.919948986426526893, 5.057500000000005436 ) ) ;
#725 = EDGE_LOOP ( 'NONE', ( #128, #349, #213 ) ) ;
#726 = DIRECTION ( 'NONE',  ( 0.000000000000000000, 0.8660254037844380415, -0.5000000000000012212 ) ) ;
#727 = PRODUCT_DEFINITION_CONTEXT ( 'detailed design', #302, 'design' ) ;
#728 = EDGE_LOOP ( 'NONE', ( #117, #451, #323, #166 ) ) ;
#729 = DIRECTION ( 'NONE',  ( -1.000000000000000000, -0.000000000000000000, -0.000000000000000000 ) ) ;
#730 = EDGE_CURVE ( 'NONE', #375, #618, #88, .T. ) ;
#731 = AXIS2_PLACEMENT_3D ( 'NONE', #393, #1, #450 ) ;
#732 = ORIENTED_EDGE ( 'NONE', *, *, #158, .F. ) ;
#733 = DIRECTION ( 'NONE',  ( 0.000000000000000000, -0.4999999999999993339, 0.8660254037844389297 ) ) ;
#734 = ORIENTED_EDGE ( 'NONE', *, *, #148, .T. ) ;
#735 = CYLINDRICAL_SURFACE ( 'NONE', #464, 6.000000000000001776 ) ;
#736 = ORIENTED_EDGE ( 'NONE', *, *, #632, .F. ) ;
#737 = FACE_OUTER_BOUND ( 'NONE', #623, .T. ) ;
#738 = FACE_OUTER_BOUND ( 'NONE', #99, .T. ) ;
#739 = AXIS2_PLACEMENT_3D ( 'NONE', #153, #144, #601 ) ;
#740 = CIRCLE ( 'NONE', #690, 5.035999999999999588 ) ;
#741 = EDGE_CURVE ( 'NONE', #87, #395, #565, .T. ) ;
ENDSEC;
END-ISO-10303-21;
