ISO-10303-21;
HEADER;
FILE_DESCRIPTION (( 'STEP AP214' ),
    '1' );
FILE_NAME ('Subassembly idle gear.STEP',
    '2024-11-24T17:15:04',
    ( '' ),
    ( '' ),
    'SwSTEP 2.0',
    'SolidWorks 2024',
    '' );
FILE_SCHEMA (( 'AUTOMOTIVE_DESIGN' ));
ENDSEC;

DATA;
#1 = APPLICATION_PROTOCOL_DEFINITION ( 'draft international standard', 'automotive_design', 1998, #63 ) ;
#2 =( REPRESENTATION_RELATIONSHIP ('NONE','NONE', #81, #47 ) REPRESENTATION_RELATIONSHIP_WITH_TRANSFORMATION ( #101 )SHAPE_REPRESENTATION_RELATIONSHIP( ) );
#3 = SHAPE_DEFINITION_REPRESENTATION ( #46, #81 ) ;
#4 =( LENGTH_UNIT ( ) NAMED_UNIT ( * ) SI_UNIT ( .MILLI., .METRE. ) );
#5 = ITEM_DEFINED_TRANSFORMATION ( 'NONE', 'NONE', #15,  #59 ) ;
#6 = APPLICATION_CONTEXT ( 'automotive_design' ) ;
#7 = APPLICATION_PROTOCOL_DEFINITION ( 'draft international standard', 'automotive_design', 1998, #6 ) ;
#8 = PRODUCT_DEFINITION_SHAPE ( 'NONE', 'NONE',  #84 ) ;
#9 = PRODUCT_DEFINITION_SHAPE ( 'NONE', 'NONE',  #58 ) ;
#10 = DIRECTION ( 'NONE',  ( -1.232595164407830946E-32, 1.155557966632341512E-32, -0.9999999999999998890 ) ) ;
#11 = PROPERTY_DEFINITION_REPRESENTATION ( #29, #86 ) ;
#12 = PRODUCT_DEFINITION_CONTEXT ( 'detailed design', #21, 'design' ) ;
#13 = PROPERTY_DEFINITION_REPRESENTATION ( #31, #47 ) ;
#14 = CONTEXT_DEPENDENT_SHAPE_REPRESENTATION ( #54, #72 ) ;
#15 = AXIS2_PLACEMENT_3D ( 'NONE', #18, #23, #64 ) ;
#16 = CARTESIAN_POINT ( 'NONE',  ( 0.000000000000000000, 0.000000000000000000, 0.000000000000000000 ) ) ;
#17 = APPLICATION_PROTOCOL_DEFINITION ( 'draft international standard', 'automotive_design', 1998, #80 ) ;
#18 = CARTESIAN_POINT ( 'NONE',  ( 0.000000000000000000, 0.000000000000000000, 0.000000000000000000 ) ) ;
#19 = IDENTIFICATION_ROLE ( 'external document id and location', $) ;
#20 = ROLE_ASSOCIATION ( #93, #45 ) ;
#21 = APPLICATION_CONTEXT ( 'automotive_design' ) ;
#22 = OBJECT_ROLE ('mandatory',$ ) ;
#23 = DIRECTION ( 'NONE',  ( 1.232595164407830946E-32, -1.174817266076213870E-32, 1.000000000000000000 ) ) ;
#24 = APPLICATION_CONTEXT ( 'automotive_design' ) ;
#25 = DIRECTION ( 'NONE',  ( -0.9999999999999996669, -5.551115123125782702E-17, -1.232595164407830946E-32 ) ) ;
#26 = PRODUCT_RELATED_PRODUCT_CATEGORY ( 'part', '', ( #82 ) ) ;
#27 = PRODUCT_CONTEXT ( 'NONE', #63, 'mechanical' ) ;
#28 = UNCERTAINTY_MEASURE_WITH_UNIT (LENGTH_MEASURE( 1.000000000000000082E-05 ), #56, 'distance_accuracy_value', 'NONE');
#29 = PROPERTY_DEFINITION ('document property','', #85 ) ;
#30 = PROPERTY_DEFINITION_REPRESENTATION ( #102, #47 ) ;
#31 = PROPERTY_DEFINITION ('external definition','', #40 ) ;
#32 = PRODUCT_DEFINITION_FORMATION_WITH_SPECIFIED_SOURCE ( 'Symmetric', '', #94, .NOT_KNOWN. ) ;
#33 = EXTERNAL_SOURCE (IDENTIFIER('') ) ;
#34 =( NAMED_UNIT ( * ) PLANE_ANGLE_UNIT ( ) SI_UNIT ( $, .RADIAN. ) );
#35 = PRODUCT_DEFINITION_FORMATION_WITH_SPECIFIED_SOURCE ( 'Symmetric', '', #82, .NOT_KNOWN. ) ;
#36 = PRODUCT_CONTEXT ( 'NONE', #24, 'mechanical' ) ;
#37 = APPLIED_DOCUMENT_REFERENCE ( #40,'',( #58) ) ;
#38 = DIRECTION ( 'NONE',  ( 0.000000000000000000, 0.000000000000000000, 1.000000000000000000 ) ) ;
#39 = UNCERTAINTY_MEASURE_WITH_UNIT (LENGTH_MEASURE( 1.000000000000000082E-05 ), #97, 'distance_accuracy_value', 'NONE');
#40 = DOCUMENT_FILE ( 'spur gear_iso_ISO - Spur gear 2.75M 11T 20PA 23FW ---S11A75H50L18.0N.STEP' , '', '', #95, '' ,$ ) ;
#41 = PRODUCT ( 'Subassembly idle gear', 'Subassembly idle gear', '', ( #36 ) ) ;
#42 = APPLIED_EXTERNAL_IDENTIFICATION_ASSIGNMENT ( 'spur gear_iso_ISO - Spur gear 2.75M 11T 20PA 23FW ---S11A75H50L18.0N.STEP' , #106, #33,( #40) ) ;
#43 = PROPERTY_DEFINITION_REPRESENTATION ( #68, #86 ) ;
#44 = EXTERNAL_SOURCE (IDENTIFIER('') ) ;
#45 = APPLIED_DOCUMENT_REFERENCE ( #85,'',( #84) ) ;
#46 = PRODUCT_DEFINITION_SHAPE ( 'NONE', 'NONE',  #77 ) ;
#47 = SHAPE_REPRESENTATION ( 'spur gear_iso_ISO - Spur gear 2.75M 11T 20PA 23FW ---S11A75H50L18.0N', ( #66 ), #83 ) ;
#48 =( NAMED_UNIT ( * ) PLANE_ANGLE_UNIT ( ) SI_UNIT ( $, .RADIAN. ) );
#49 = DIRECTION ( 'NONE',  ( 1.000000000000000000, 0.000000000000000000, 0.000000000000000000 ) ) ;
#50 = APPLICATION_CONTEXT ( 'automotive_design' ) ;
#51 = PRODUCT_CONTEXT ( 'NONE', #80, 'mechanical' ) ;
#52 = PRODUCT_DEFINITION_SHAPE ( 'NONE', 'NONE',  #108 ) ;
#53 = APPLIED_EXTERNAL_IDENTIFICATION_ASSIGNMENT ( 'Part13^Subassembly idle gear.STEP' , #19, #44,( #85) ) ;
#54 =( REPRESENTATION_RELATIONSHIP ('NONE','NONE', #81, #86 ) REPRESENTATION_RELATIONSHIP_WITH_TRANSFORMATION ( #5 )SHAPE_REPRESENTATION_RELATIONSHIP( ) );
#55 = PRODUCT_DEFINITION_CONTEXT ( 'detailed design', #50, 'design' ) ;
#56 =( LENGTH_UNIT ( ) NAMED_UNIT ( * ) SI_UNIT ( .MILLI., .METRE. ) );
#57 = PRODUCT_DEFINITION_CONTEXT ( 'detailed design', #6, 'design' ) ;
#58 = PRODUCT_DEFINITION ( 'General', '', #32, #55 ) ;
#59 = AXIS2_PLACEMENT_3D ( 'NONE', #99, #38, #65 ) ;
#60 = SHAPE_DEFINITION_REPRESENTATION ( #8, #86 ) ;
#61 = CONTEXT_DEPENDENT_SHAPE_REPRESENTATION ( #2, #52 ) ;
#62 = PRODUCT_DEFINITION_FORMATION_WITH_SPECIFIED_SOURCE ( 'Symmetric', '', #41, .NOT_KNOWN. ) ;
#63 = APPLICATION_CONTEXT ( 'automotive_design' ) ;
#64 = DIRECTION ( 'NONE',  ( 0.9999999999999996669, 5.754000540340034780E-35, 1.232595164407830946E-32 ) ) ;
#65 = DIRECTION ( 'NONE',  ( 1.000000000000000000, 0.000000000000000000, 0.000000000000000000 ) ) ;
#66 = AXIS2_PLACEMENT_3D ( 'NONE', #70, #89, #96 ) ;
#67 = DOCUMENT_TYPE ( 'geometry' ) ;
#68 = PROPERTY_DEFINITION ('external definition','', #85 ) ;
#69 = AXIS2_PLACEMENT_3D ( 'NONE', #16, #104, #49 ) ;
#70 = CARTESIAN_POINT ( 'NONE',  ( 0.000000000000000000, 0.000000000000000000, 0.000000000000000000 ) ) ;
#71 =( GEOMETRIC_REPRESENTATION_CONTEXT ( 3 ) GLOBAL_UNCERTAINTY_ASSIGNED_CONTEXT ( ( #105 ) ) GLOBAL_UNIT_ASSIGNED_CONTEXT ( ( #4, #34, #78 ) ) REPRESENTATION_CONTEXT ( 'NONE', 'WORKASPACE' ) );
#72 = PRODUCT_DEFINITION_SHAPE ( 'NONE', 'NONE',  #107 ) ;
#73 = PRODUCT_RELATED_PRODUCT_CATEGORY ( 'part', '', ( #94 ) ) ;
#74 = AXIS2_PLACEMENT_3D ( 'NONE', #90, #25, #10 ) ;
#75 = PRODUCT_RELATED_PRODUCT_CATEGORY ( 'part', '', ( #41 ) ) ;
#76 =( NAMED_UNIT ( * ) SI_UNIT ( $, .STERADIAN. ) SOLID_ANGLE_UNIT ( ) );
#77 = PRODUCT_DEFINITION ( 'General', '', #62, #12 ) ;
#78 =( NAMED_UNIT ( * ) SI_UNIT ( $, .STERADIAN. ) SOLID_ANGLE_UNIT ( ) );
#79 = APPLICATION_PROTOCOL_DEFINITION ( 'draft international standard', 'automotive_design', 1998, #21 ) ;
#80 = APPLICATION_CONTEXT ( 'automotive_design' ) ;
#81 = SHAPE_REPRESENTATION ( 'Subassembly idle gear', ( #69, #15, #74 ), #87 ) ;
#82 = PRODUCT ( 'Part13^Subassembly idle gear', 'Part13^Subassembly idle gear', '', ( #27 ) ) ;
#83 =( GEOMETRIC_REPRESENTATION_CONTEXT ( 3 ) GLOBAL_UNCERTAINTY_ASSIGNED_CONTEXT ( ( #39 ) ) GLOBAL_UNIT_ASSIGNED_CONTEXT ( ( #97, #48, #76 ) ) REPRESENTATION_CONTEXT ( 'NONE', 'WORKASPACE' ) );
#84 = PRODUCT_DEFINITION ( 'General', '', #35, #57 ) ;
#85 = DOCUMENT_FILE ( 'Part13^Subassembly idle gear.STEP' , '', '', #67, '' ,$ ) ;
#86 = SHAPE_REPRESENTATION ( 'Part13^Subassembly idle gear', ( #59 ), #71 ) ;
#87 =( GEOMETRIC_REPRESENTATION_CONTEXT ( 3 ) GLOBAL_UNCERTAINTY_ASSIGNED_CONTEXT ( ( #28 ) ) GLOBAL_UNIT_ASSIGNED_CONTEXT ( ( #56, #88, #103 ) ) REPRESENTATION_CONTEXT ( 'NONE', 'WORKASPACE' ) );
#88 =( NAMED_UNIT ( * ) PLANE_ANGLE_UNIT ( ) SI_UNIT ( $, .RADIAN. ) );
#89 = DIRECTION ( 'NONE',  ( 0.000000000000000000, 0.000000000000000000, 1.000000000000000000 ) ) ;
#90 = CARTESIAN_POINT ( 'NONE',  ( 0.000000000000000000, 0.000000000000000000, 11.49999999999998934 ) ) ;
#91 = ROLE_ASSOCIATION ( #22, #37 ) ;
#92 = SHAPE_DEFINITION_REPRESENTATION ( #9, #47 ) ;
#93 = OBJECT_ROLE ('mandatory',$ ) ;
#94 = PRODUCT ( 'spur gear_iso_ISO - Spur gear 2.75M 11T 20PA 23FW ---S11A75H50L18.0N', 'spur gear_iso_ISO - Spur gear 2.75M 11T 20PA 23FW ---S11A75H50L18.0N', '', ( #51 ) ) ;
#95 = DOCUMENT_TYPE ( 'geometry' ) ;
#96 = DIRECTION ( 'NONE',  ( 1.000000000000000000, 0.000000000000000000, 0.000000000000000000 ) ) ;
#97 =( LENGTH_UNIT ( ) NAMED_UNIT ( * ) SI_UNIT ( .MILLI., .METRE. ) );
#98 = APPLICATION_PROTOCOL_DEFINITION ( 'draft international standard', 'automotive_design', 1998, #24 ) ;
#99 = CARTESIAN_POINT ( 'NONE',  ( 0.000000000000000000, 0.000000000000000000, 0.000000000000000000 ) ) ;
#100 = APPLICATION_PROTOCOL_DEFINITION ( 'draft international standard', 'automotive_design', 1998, #50 ) ;
#101 = ITEM_DEFINED_TRANSFORMATION ( 'NONE', 'NONE', #74,  #66 ) ;
#102 = PROPERTY_DEFINITION ('document property','', #40 ) ;
#103 =( NAMED_UNIT ( * ) SI_UNIT ( $, .STERADIAN. ) SOLID_ANGLE_UNIT ( ) );
#104 = DIRECTION ( 'NONE',  ( 0.000000000000000000, 0.000000000000000000, 1.000000000000000000 ) ) ;
#105 = UNCERTAINTY_MEASURE_WITH_UNIT (LENGTH_MEASURE( 1.000000000000000082E-05 ), #4, 'distance_accuracy_value', 'NONE');
#106 = IDENTIFICATION_ROLE ( 'external document id and location', $) ;
#107 = NEXT_ASSEMBLY_USAGE_OCCURRENCE ( 'NAUO3', ' ', ' ', #77, #84, $ ) ;
#108 = NEXT_ASSEMBLY_USAGE_OCCURRENCE ( 'NAUO4', ' ', ' ', #77, #58, $ ) ;
ENDSEC;
END-ISO-10303-21;
