ISO-10303-21;
HEADER;
FILE_DESCRIPTION (( 'STEP AP214' ),
    '1' );
FILE_NAME ('Part4 Carrier.STEP',
    '2025-07-21T08:49:24',
    ( '' ),
    ( '' ),
    'SwSTEP 2.0',
    'SolidWorks 2025',
    '' );
FILE_SCHEMA (( 'AUTOMOTIVE_DESIGN' ));
ENDSEC;

DATA;
#1 = ORIENTED_EDGE ( 'NONE', *, *, #373, .F. ) ;
#2 = AXIS2_PLACEMENT_3D ( 'NONE', #707, #95, #653 ) ;
#3 = VERTEX_POINT ( 'NONE', #250 ) ;
#4 = DIRECTION ( 'NONE',  ( -0.2780896383261047822, 0.9605551275463871663, 0.000000000000000000 ) ) ;
#5 = CYLINDRICAL_SURFACE ( 'NONE', #802, 15.00000000000000711 ) ;
#6 = EDGE_LOOP ( 'NONE', ( #585, #1041, #149, #616 ) ) ;
#7 = CARTESIAN_POINT ( 'NONE',  ( -21.84547413045612174, 12.61249036979305416, -1.750000000000000000 ) ) ;
#8 = FACE_OUTER_BOUND ( 'NONE', #236, .T. ) ;
#9 = DIRECTION ( 'NONE',  ( 0.000000000000000000, 0.000000000000000000, 1.000000000000000000 ) ) ;
#10 = EDGE_CURVE ( 'NONE', #407, #27, #519, .T. ) ;
#11 = DIRECTION ( 'NONE',  ( 0.000000000000000000, -0.000000000000000000, -1.000000000000000000 ) ) ;
#12 = DIRECTION ( 'NONE',  ( -0.000000000000000000, -0.000000000000000000, -1.000000000000000000 ) ) ;
#13 = ORIENTED_EDGE ( 'NONE', *, *, #153, .T. ) ;
#14 = DIRECTION ( 'NONE',  ( -0.000000000000000000, -0.000000000000000000, 1.000000000000000000 ) ) ;
#15 = CARTESIAN_POINT ( 'NONE',  ( 1.992454698062187335, 0.1966302642509219767, 41.76948940057883419 ) ) ;
#16 = VERTEX_POINT ( 'NONE', #656 ) ;
#17 = CARTESIAN_POINT ( 'NONE',  ( -21.84547413045612174, 12.61249036979305416, 1.750000000000000000 ) ) ;
#18 = AXIS2_PLACEMENT_3D ( 'NONE', #99, #424, #754 ) ;
#19 = TOROIDAL_SURFACE ( 'NONE', #613, 15.75000000000000000, 0.7500000000000000000 ) ;
#20 = EDGE_LOOP ( 'NONE', ( #836, #142, #60, #869 ) ) ;
#21 = DIRECTION ( 'NONE',  ( 1.000000000000000000, 0.000000000000000000, 0.000000000000000000 ) ) ;
#22 = ADVANCED_FACE ( 'NONE', ( #841 ), #238, .T. ) ;
#23 = ORIENTED_EDGE ( 'NONE', *, *, #914, .F. ) ;
#24 = EDGE_LOOP ( 'NONE', ( #729, #463, #377, #1000 ) ) ;
#25 = DIRECTION ( 'NONE',  ( 0.000000000000000000, 0.000000000000000000, -1.000000000000000000 ) ) ;
#26 = CARTESIAN_POINT ( 'NONE',  ( 1.890316627494195822, -0.6544637198895586483, 42.12078881419019183 ) ) ;
#27 = VERTEX_POINT ( 'NONE', #359 ) ;
#28 = ORIENTED_EDGE ( 'NONE', *, *, #870, .T. ) ;
#29 = DIRECTION ( 'NONE',  ( -1.000000000000000000, 0.000000000000000000, 0.000000000000000000 ) ) ;
#30 = PRODUCT_DEFINITION_SHAPE ( 'NONE', 'NONE',  #177 ) ;
#31 = CARTESIAN_POINT ( 'NONE',  ( 2.384848003542364037, 0.7500000000000023315, 42.40030257057888718 ) ) ;
#32 = AXIS2_PLACEMENT_3D ( 'NONE', #741, #421, #659 ) ;
#33 = ORIENTED_EDGE ( 'NONE', *, *, #551, .F. ) ;
#34 = AXIS2_PLACEMENT_3D ( 'NONE', #202, #340, #779 ) ;
#35 = AXIS2_PLACEMENT_3D ( 'NONE', #224, #306, #804 ) ;
#36 = CARTESIAN_POINT ( 'NONE',  ( 15.58845726811985699, -9.000000000000074607, 1.750000000000000000 ) ) ;
#37 = AXIS2_PLACEMENT_3D ( 'NONE', #46, #542, #478 ) ;
#38 = DIRECTION ( 'NONE',  ( 1.000000000000000000, 0.000000000000000000, 0.000000000000000000 ) ) ;
#39 = ORIENTED_EDGE ( 'NONE', *, *, #694, .F. ) ;
#40 = DIRECTION ( 'NONE',  ( -0.9605551275464301320, 0.2780896383259569560, 0.000000000000000000 ) ) ;
#41 = EDGE_CURVE ( 'NONE', #315, #333, #515, .T. ) ;
#42 = CARTESIAN_POINT ( 'NONE',  ( 2.384848003542364481, -0.7499999999999984457, 42.50000000000000000 ) ) ;
#43 = CARTESIAN_POINT ( 'NONE',  ( -10.91192008768244648, -13.86749422187634906, -1.750000000000000000 ) ) ;
#44 = EDGE_LOOP ( 'NONE', ( #422, #876, #578, #620 ) ) ;
#45 = DIRECTION ( 'NONE',  ( 0.000000000000000000, -0.000000000000000000, -1.000000000000000000 ) ) ;
#46 = CARTESIAN_POINT ( 'NONE',  ( 1.984639101444544721E-12, -25.22498073958743348, 1.750000000000000000 ) ) ;
#47 = DIRECTION ( 'NONE',  ( 0.000000000000000000, -0.000000000000000000, -1.000000000000000000 ) ) ;
#48 = ORIENTED_EDGE ( 'NONE', *, *, #467, .T. ) ;
#49 = AXIS2_PLACEMENT_3D ( 'NONE', #690, #606, #771 ) ;
#50 = CARTESIAN_POINT ( 'NONE',  ( 2.384848003542364481, 0.7500000000000007772, 47.69940789951763094 ) ) ;
#51 = AXIS2_PLACEMENT_3D ( 'NONE', #486, #260, #318 ) ;
#52 = EDGE_CURVE ( 'NONE', #140, #140, #647, .T. ) ;
#53 = CARTESIAN_POINT ( 'NONE',  ( -24.08945726811865384, 6.173399571863457455E-16, 47.50000000000000711 ) ) ;
#54 = AXIS2_PLACEMENT_3D ( 'NONE', #311, #635, #133 ) ;
#55 = LINE ( 'NONE', #1017, #806 ) ;
#56 = ORIENTED_EDGE ( 'NONE', *, *, #65, .F. ) ;
#57 = DIRECTION ( 'NONE',  ( -0.000000000000000000, -0.000000000000000000, -1.000000000000000000 ) ) ;
#58 = FACE_OUTER_BOUND ( 'NONE', #119, .T. ) ;
#59 = CARTESIAN_POINT ( 'NONE',  ( 10.39230484541479349, -14.40832691319503134, 1.750000000000000000 ) ) ;
#60 = ORIENTED_EDGE ( 'NONE', *, *, #352, .T. ) ;
#61 = CYLINDRICAL_SURFACE ( 'NONE', #531, 4.500000000000000000 ) ;
#62 = FACE_OUTER_BOUND ( 'NONE', #24, .T. ) ;
#63 = CARTESIAN_POINT ( 'NONE',  ( -15.58845726811997778, -8.999999999999852562, 1.750000000000000000 ) ) ;
#64 = VERTEX_POINT ( 'NONE', #338 ) ;
#65 = EDGE_CURVE ( 'NONE', #845, #548, #255, .T. ) ;
#66 = FACE_OUTER_BOUND ( 'NONE', #267, .T. ) ;
#67 = CIRCLE ( 'NONE', #219, 3.800000000000001599 ) ;
#68 = DIRECTION ( 'NONE',  ( -0.000000000000000000, -0.000000000000000000, 1.000000000000000000 ) ) ;
#69 = CIRCLE ( 'NONE', #280, 4.500000000000000888 ) ;
#70 = AXIS2_PLACEMENT_3D ( 'NONE', #971, #893, #160 ) ;
#71 = DIRECTION ( 'NONE',  ( 1.000000000000000000, 0.000000000000000000, 0.000000000000000000 ) ) ;
#72 = EDGE_LOOP ( 'NONE', ( #816 ) ) ;
#73 = DIRECTION ( 'NONE',  ( 1.000000000000000000, 0.000000000000000000, 0.000000000000000000 ) ) ;
#74 = ADVANCED_FACE ( 'NONE', ( #416 ), #561, .T. ) ;
#75 = CARTESIAN_POINT ( 'NONE',  ( 15.58845726811985699, -9.000000000000074607, 1.750000000000000000 ) ) ;
#76 = EDGE_LOOP ( 'NONE', ( #572 ) ) ;
#77 = EDGE_CURVE ( 'NONE', #700, #700, #168, .T. ) ;
#78 = CARTESIAN_POINT ( 'NONE',  ( 2.384848003542364481, 0.7499999999999988898, 50.00000000000000000 ) ) ;
#79 = DIRECTION ( 'NONE',  ( -0.9605551275464302430, 0.2780896383259566784, 0.000000000000000000 ) ) ;
#80 = ORIENTED_EDGE ( 'NONE', *, *, #77, .T. ) ;
#81 = DIRECTION ( 'NONE',  ( -0.000000000000000000, 0.000000000000000000, 1.000000000000000000 ) ) ;
#82 = AXIS2_PLACEMENT_3D ( 'NONE', #357, #256, #92 ) ;
#83 =( NAMED_UNIT ( * ) SI_UNIT ( $, .STERADIAN. ) SOLID_ANGLE_UNIT ( ) );
#84 = CLOSED_SHELL ( 'NONE', ( #1033, #268, #299, #91, #679, #1021, #783, #283, #473, #471, #993, #867, #691, #233, #22, #270, #966, #230, #131, #565, #74, #489, #198, #881, #657, #503, #800, #113, #386, #835, #591, #208, #989, #999, #538, #156, #246 ) ) ;
#85 = PRODUCT_RELATED_PRODUCT_CATEGORY ( 'part', '', ( #1005 ) ) ;
#86 = AXIS2_PLACEMENT_3D ( 'NONE', #964, #81, #413 ) ;
#87 = FACE_OUTER_BOUND ( 'NONE', #20, .T. ) ;
#88 = DIRECTION ( 'NONE',  ( -0.000000000000000000, 0.000000000000000000, 1.000000000000000000 ) ) ;
#89 = TOROIDAL_SURFACE ( 'NONE', #205, 6.749999999999894307, 0.7500000000000000000 ) ;
#90 = CYLINDRICAL_SURFACE ( 'NONE', #702, 0.7500000000000006661 ) ;
#91 = ADVANCED_FACE ( 'NONE', ( #745 ), #5, .F. ) ;
#92 = DIRECTION ( 'NONE',  ( 1.000000000000000000, 0.000000000000000000, 0.000000000000000000 ) ) ;
#93 = VERTEX_POINT ( 'NONE', #163 ) ;
#94 = EDGE_CURVE ( 'NONE', #212, #212, #106, .T. ) ;
#95 = DIRECTION ( 'NONE',  ( 0.000000000000000000, -1.000000000000000000, -1.734723475976805369E-16 ) ) ;
#96 = CARTESIAN_POINT ( 'NONE',  ( 21.84547413045620345, 12.61249036979531013, 1.000000000000000000 ) ) ;
#97 = ORIENTED_EDGE ( 'NONE', *, *, #642, .T. ) ;
#98 = DIRECTION ( 'NONE',  ( 1.000000000000000000, 0.000000000000000000, 0.000000000000000000 ) ) ;
#99 = CARTESIAN_POINT ( 'NONE',  ( 21.84547413045620345, 12.61249036979531013, -0.9999999999999997780 ) ) ;
#100 = CARTESIAN_POINT ( 'NONE',  ( 0.000000000000000000, 0.000000000000000000, 0.000000000000000000 ) ) ;
#101 = CARTESIAN_POINT ( 'NONE',  ( 1.984639101444544721E-12, -25.22498073958743348, 1.000000000000000000 ) ) ;
#102 = EDGE_LOOP ( 'NONE', ( #794, #114, #689, #307 ) ) ;
#103 = EDGE_CURVE ( 'NONE', #3, #3, #852, .T. ) ;
#104 = FACE_BOUND ( 'NONE', #449, .T. ) ;
#105 = FACE_OUTER_BOUND ( 'NONE', #957, .T. ) ;
#106 = CIRCLE ( 'NONE', #920, 4.500000000000000000 ) ;
#107 = ORIENTED_EDGE ( 'NONE', *, *, #199, .T. ) ;
#108 = CIRCLE ( 'NONE', #873, 0.7500000000000001110 ) ;
#109 = CIRCLE ( 'NONE', #669, 0.7500000000000001110 ) ;
#110 = ORIENTED_EDGE ( 'NONE', *, *, #847, .F. ) ;
#111 = DIRECTION ( 'NONE',  ( 1.000000000000000000, 0.000000000000000000, 0.000000000000000000 ) ) ;
#112 = CARTESIAN_POINT ( 'NONE',  ( 1.984639101444544721E-12, -25.22498073958743348, -0.9999999999999997780 ) ) ;
#113 = ADVANCED_FACE ( 'NONE', ( #196 ), #604, .T. ) ;
#114 = ORIENTED_EDGE ( 'NONE', *, *, #41, .F. ) ;
#115 = CARTESIAN_POINT ( 'NONE',  ( 6.553642239136604708, 16.38374711093887370, 1.000000000000000000 ) ) ;
#116 = ORIENTED_EDGE ( 'NONE', *, *, #324, .T. ) ;
#117 = CARTESIAN_POINT ( 'NONE',  ( 2.384848003542364925, -0.7499999999999993339, 47.59969742942113413 ) ) ;
#118 = CARTESIAN_POINT ( 'NONE',  ( 2.493976152028832605, -0.1962352135321724922, 41.76942704728295297 ) ) ;
#119 = EDGE_LOOP ( 'NONE', ( #501, #910, #712, #440, #560, #197 ) ) ;
#120 = AXIS2_PLACEMENT_3D ( 'NONE', #313, #619, #547 ) ;
#121 = EDGE_CURVE ( 'NONE', #190, #315, #599, .T. ) ;
#122 = DIRECTION ( 'NONE',  ( 1.000000000000000000, 0.000000000000000000, 0.000000000000000000 ) ) ;
#123 = EDGE_CURVE ( 'NONE', #1015, #27, #588, .T. ) ;
#124 = DIRECTION ( 'NONE',  ( 0.2394448724535592765, 0.9709099613536257278, -0.000000000000000000 ) ) ;
#125 = FACE_OUTER_BOUND ( 'NONE', #263, .T. ) ;
#126 = ORIENTED_EDGE ( 'NONE', *, *, #324, .F. ) ;
#127 = DIRECTION ( 'NONE',  ( -1.000000000000000000, 0.000000000000000000, 0.000000000000000000 ) ) ;
#128 = DIRECTION ( 'NONE',  ( -0.000000000000000000, 0.000000000000000000, 1.000000000000000000 ) ) ;
#129 = DIRECTION ( 'NONE',  ( -1.000000000000000000, 0.000000000000000000, 0.000000000000000000 ) ) ;
#130 = VERTEX_POINT ( 'NONE', #775 ) ;
#131 = ADVANCED_FACE ( 'NONE', ( #1014 ), #277, .T. ) ;
#132 = CARTESIAN_POINT ( 'NONE',  ( 2.384848003542364037, 0.7500000000000006661, 47.50000000000000711 ) ) ;
#133 = DIRECTION ( 'NONE',  ( 1.000000000000000000, 0.000000000000000000, 0.000000000000000000 ) ) ;
#134 = CARTESIAN_POINT ( 'NONE',  ( -2.341980683845275307E-13, 18.00000000000011724, 1.750000000000000000 ) ) ;
#135 = ORIENTED_EDGE ( 'NONE', *, *, #644, .T. ) ;
#136 = CIRCLE ( 'NONE', #684, 7.499999999999801048 ) ;
#137 = CIRCLE ( 'NONE', #735, 0.7500000000000003331 ) ;
#138 = FACE_BOUND ( 'NONE', #962, .T. ) ;
#139 = AXIS2_PLACEMENT_3D ( 'NONE', #723, #79, #645 ) ;
#140 = VERTEX_POINT ( 'NONE', #379 ) ;
#141 = CARTESIAN_POINT ( 'NONE',  ( 15.58845726812122301, -8.999999999998980371, -0.9999999999999997780 ) ) ;
#142 = ORIENTED_EDGE ( 'NONE', *, *, #958, .F. ) ;
#143 = DIRECTION ( 'NONE',  ( 0.2394448724536654416, -0.9709099613535994155, 2.384137284508978874E-14 ) ) ;
#144 = FACE_OUTER_BOUND ( 'NONE', #487, .T. ) ;
#145 = EDGE_LOOP ( 'NONE', ( #851 ) ) ;
#146 = LINE ( 'NONE', #477, #988 ) ;
#147 = DIRECTION ( 'NONE',  ( -0.000000000000000000, -0.000000000000000000, -1.000000000000000000 ) ) ;
#148 = DIRECTION ( 'NONE',  ( 1.000000000000000000, 0.000000000000000000, 0.000000000000000000 ) ) ;
#149 = ORIENTED_EDGE ( 'NONE', *, *, #912, .F. ) ;
#150 = DIRECTION ( 'NONE',  ( 0.9709099613535993045, 0.2394448724536654693, 0.000000000000000000 ) ) ;
#151 = CIRCLE ( 'NONE', #683, 2.000000000000001776 ) ;
#152 = AXIS2_PLACEMENT_3D ( 'NONE', #232, #221, #720 ) ;
#153 = EDGE_CURVE ( 'NONE', #130, #161, #136, .T. ) ;
#154 = CIRCLE ( 'NONE', #35, 15.00000000000000000 ) ;
#155 = AXIS2_PLACEMENT_3D ( 'NONE', #53, #474, #305 ) ;
#156 = ADVANCED_FACE ( 'NONE', ( #994, #8 ), #482, .T. ) ;
#157 = CARTESIAN_POINT ( 'NONE',  ( 2.000043060956015584, -0.09799031969350480153, 48.25011482928336193 ) ) ;
#158 = ORIENTED_EDGE ( 'NONE', *, *, #1030, .F. ) ;
#159 = CARTESIAN_POINT ( 'NONE',  ( -15.58845726811878940, -9.000000000000527578, -1.750000000000000000 ) ) ;
#160 = DIRECTION ( 'NONE',  ( -0.6928203230275210567, -0.7211102550928264465, 0.000000000000000000 ) ) ;
#161 = VERTEX_POINT ( 'NONE', #181 ) ;
#162 = SURFACE_STYLE_USAGE ( .BOTH. , #807 ) ;
#163 = CARTESIAN_POINT ( 'NONE',  ( 20.08845726811985699, -9.000000000000074607, -1.750000000000000000 ) ) ;
#164 = CARTESIAN_POINT ( 'NONE',  ( 10.39230484541479349, -14.40832691319503134, 1.000000000000000000 ) ) ;
#165 = DIRECTION ( 'NONE',  ( 0.000000000000000000, 0.000000000000000000, -1.000000000000000000 ) ) ;
#166 = DIRECTION ( 'NONE',  ( -0.000000000000000000, 0.000000000000000000, 1.000000000000000000 ) ) ;
#167 = EDGE_CURVE ( 'NONE', #404, #557, #734, .T. ) ;
#168 = CIRCLE ( 'NONE', #32, 2.500000000000000000 ) ;
#169 = AXIS2_PLACEMENT_3D ( 'NONE', #36, #854, #127 ) ;
#170 = CIRCLE ( 'NONE', #874, 4.500000000000000888 ) ;
#171 = CARTESIAN_POINT ( 'NONE',  ( 1.999956556253047690, 0.09974027036455691830, 48.24988414994054153 ) ) ;
#172 = DIRECTION ( 'NONE',  ( -0.000000000000000000, 0.000000000000000000, 1.000000000000000000 ) ) ;
#173 = EDGE_LOOP ( 'NONE', ( #274 ) ) ;
#174 = CYLINDRICAL_SURFACE ( 'NONE', #953, 7.499999999999862332 ) ;
#175 = CARTESIAN_POINT ( 'NONE',  ( -24.08945726811865384, 0.7499999999999993339, 47.50000000000000711 ) ) ;
#176 = CARTESIAN_POINT ( 'NONE',  ( 1.947342479090230061, -0.4614625170309816227, 48.09917847349738906 ) ) ;
#177 = PRODUCT_DEFINITION ( 'UNKNOWN', '', #294, #1043 ) ;
#178 = DIRECTION ( 'NONE',  ( 1.000000000000000000, -0.000000000000000000, -0.000000000000000000 ) ) ;
#179 = ORIENTED_EDGE ( 'NONE', *, *, #186, .T. ) ;
#180 = DIRECTION ( 'NONE',  ( -0.000000000000000000, 0.000000000000000000, 1.000000000000000000 ) ) ;
#181 = CARTESIAN_POINT ( 'NONE',  ( -7.281824710152037028, 16.20416345659767998, -0.9999999999999997780 ) ) ;
#182 = ORIENTED_EDGE ( 'NONE', *, *, #694, .T. ) ;
#183 = ORIENTED_EDGE ( 'NONE', *, *, #846, .T. ) ;
#184 = CARTESIAN_POINT ( 'NONE',  ( -17.67412955556453724, -1.795836543402758778, 1.000000000000000000 ) ) ;
#185 = CARTESIAN_POINT ( 'NONE',  ( 1.947342479090229617, 0.4614625170309839541, 41.90082152650263225 ) ) ;
#186 = EDGE_CURVE ( 'NONE', #896, #896, #151, .T. ) ;
#187 = CARTESIAN_POINT ( 'NONE',  ( -17.46556232681995624, -2.516252889062544185, 1.000000000000000000 ) ) ;
#188 = MECHANICAL_DESIGN_GEOMETRIC_PRESENTATION_REPRESENTATION (  '', ( #648 ), #950 ) ;
#189 = VECTOR ( 'NONE', #916, 1000.000000000000000 ) ;
#190 = VERTEX_POINT ( 'NONE', #195 ) ;
#191 = CIRCLE ( 'NONE', #435, 4.000000000000001776 ) ;
#192 = CARTESIAN_POINT ( 'NONE',  ( 1.947208260384254652, -0.4619767316435853255, 41.90128708818932779 ) ) ;
#193 = CARTESIAN_POINT ( 'NONE',  ( 0.000000000000000000, 18.00000000000000000, -1.750000000000000000 ) ) ;
#194 = EDGE_LOOP ( 'NONE', ( #898 ) ) ;
#195 = CARTESIAN_POINT ( 'NONE',  ( 6.553642239136602932, 16.38374711093887370, 1.750000000000000000 ) ) ;
#196 = FACE_OUTER_BOUND ( 'NONE', #573, .T. ) ;
#197 = ORIENTED_EDGE ( 'NONE', *, *, #833, .T. ) ;
#198 = ADVANCED_FACE ( 'NONE', ( #418 ), #767, .T. ) ;
#199 = EDGE_CURVE ( 'NONE', #407, #1049, #215, .T. ) ;
#200 = CARTESIAN_POINT ( 'NONE',  ( 7.281824710151823865, 16.20416345659870316, 1.000000000000000000 ) ) ;
#201 = DIRECTION ( 'NONE',  ( -0.000000000000000000, 0.000000000000000000, 1.000000000000000000 ) ) ;
#202 = CARTESIAN_POINT ( 'NONE',  ( -15.58845726811878940, -9.000000000000527578, -0.9999999999999997780 ) ) ;
#203 = ORIENTED_EDGE ( 'NONE', *, *, #123, .F. ) ;
#204 = TOROIDAL_SURFACE ( 'NONE', #49, 6.749999999999801048, 0.7500000000000000000 ) ;
#205 = AXIS2_PLACEMENT_3D ( 'NONE', #141, #553, #697 ) ;
#206 = CIRCLE ( 'NONE', #465, 15.00000000000000711 ) ;
#207 = DIRECTION ( 'NONE',  ( 1.000000000000000000, 0.000000000000000000, 0.000000000000000000 ) ) ;
#208 = ADVANCED_FACE ( 'NONE', ( #595 ), #906, .F. ) ;
#209 = FACE_BOUND ( 'NONE', #654, .T. ) ;
#210 = ORIENTED_EDGE ( 'NONE', *, *, #757, .F. ) ;
#211 = DIRECTION ( 'NONE',  ( 0.9605551275463872773, 0.2780896383261048932, -0.000000000000000000 ) ) ;
#212 = VERTEX_POINT ( 'NONE', #792 ) ;
#213 = ORIENTED_EDGE ( 'NONE', *, *, #1030, .T. ) ;
#214 = CARTESIAN_POINT ( 'NONE',  ( 0.000000000000000000, 0.000000000000000000, 40.00000000000000000 ) ) ;
#215 = B_SPLINE_CURVE_WITH_KNOTS ( 'NONE', 3,
 ( #685, #743, #761, #26, #276, #192, #523, #431, #663, #511, #15, #516, #185, #582, #265, #680 ),
 .UNSPECIFIED., .F., .F.,
 ( 4, 2, 2, 2, 2, 2, 2, 4 ),
 ( 0.000000000000000000, 0.0002956972213215795916, 0.0005913944426431591832, 0.0008870916639647387749, 0.001182788885286318366, 0.001478486106607898067, 0.001774183327929477550, 0.002365577770572651478 ),
 .UNSPECIFIED. ) ;
#216 = FACE_OUTER_BOUND ( 'NONE', #724, .T. ) ;
#217 = CARTESIAN_POINT ( 'NONE',  ( 21.84547413045620345, 12.61249036979531013, -0.9999999999999997780 ) ) ;
#218 = ORIENTED_EDGE ( 'NONE', *, *, #722, .F. ) ;
#219 = AXIS2_PLACEMENT_3D ( 'NONE', #574, #14, #21 ) ;
#220 = CIRCLE ( 'NONE', #364, 0.7500000000000004441 ) ;
#221 = DIRECTION ( 'NONE',  ( 0.000000000000000000, -0.000000000000000000, -1.000000000000000000 ) ) ;
#222 = AXIS2_PLACEMENT_3D ( 'NONE', #356, #742, #510 ) ;
#223 = FACE_BOUND ( 'NONE', #943, .T. ) ;
#224 = CARTESIAN_POINT ( 'NONE',  ( 1.984639101444544721E-12, -25.22498073958743348, -0.9999999999999997780 ) ) ;
#225 = EDGE_LOOP ( 'NONE', ( #1018, #393, #281, #203 ) ) ;
#226 = CARTESIAN_POINT ( 'NONE',  ( 0.000000000000000000, 0.000000000000000000, 50.00000000000000000 ) ) ;
#227 = DIRECTION ( 'NONE',  ( 1.000000000000000000, 0.000000000000000000, 0.000000000000000000 ) ) ;
#228 = DIRECTION ( 'NONE',  ( -0.7211102550927300792, -0.6928203230276215319, -0.000000000000000000 ) ) ;
#229 = EDGE_LOOP ( 'NONE', ( #1031 ) ) ;
#230 = ADVANCED_FACE ( 'NONE', ( #832 ), #494, .T. ) ;
#231 = EDGE_LOOP ( 'NONE', ( #33, #512, #322, #676 ) ) ;
#232 = CARTESIAN_POINT ( 'NONE',  ( -2.341980683845275307E-13, 18.00000000000011724, -1.750000000000000000 ) ) ;
#233 = ADVANCED_FACE ( 'NONE', ( #105 ), #292, .T. ) ;
#234 = LINE ( 'NONE', #782, #262 ) ;
#235 = LINE ( 'NONE', #980, #921 ) ;
#236 = EDGE_LOOP ( 'NONE', ( #673 ) ) ;
#237 = SURFACE_STYLE_FILL_AREA ( #643 ) ;
#238 = TOROIDAL_SURFACE ( 'NONE', #751, 15.75000000000000000, 0.7500000000000000000 ) ;
#239 = CARTESIAN_POINT ( 'NONE',  ( 2.500000000000000444, 0.000000000000000000, 40.00000000000000000 ) ) ;
#240 = VECTOR ( 'NONE', #568, 1000.000000000000000 ) ;
#241 = CIRCLE ( 'NONE', #922, 0.7500000000000003331 ) ;
#242 = FACE_OUTER_BOUND ( 'NONE', #76, .T. ) ;
#243 = ORIENTED_EDGE ( 'NONE', *, *, #610, .T. ) ;
#244 = CARTESIAN_POINT ( 'NONE',  ( 15.58845726812122301, -8.999999999998980371, -1.750000000000000000 ) ) ;
#245 = CARTESIAN_POINT ( 'NONE',  ( -3.800000000000001599, 0.000000000000000000, 38.50000000000000000 ) ) ;
#246 = ADVANCED_FACE ( 'NONE', ( #748, #600 ), #628, .T. ) ;
#247 = LINE ( 'NONE', #811, #956 ) ;
#248 = ORIENTED_EDGE ( 'NONE', *, *, #10, .F. ) ;
#249 = CARTESIAN_POINT ( 'NONE',  ( 15.58845726812122301, -8.999999999998980371, 1.750000000000000000 ) ) ;
#250 = CARTESIAN_POINT ( 'NONE',  ( 4.500000000000000000, 18.00000000000000000, -1.750000000000000000 ) ) ;
#251 = CARTESIAN_POINT ( 'NONE',  ( 1.909541076430413487, 0.5989118360107282824, 47.96171881490273137 ) ) ;
#252 = CARTESIAN_POINT ( 'NONE',  ( 0.000000000000000000, 0.000000000000000000, 49.50000000000000000 ) ) ;
#253 = ORIENTED_EDGE ( 'NONE', *, *, #352, .F. ) ;
#254 = DIRECTION ( 'NONE',  ( 0.000000000000000000, -0.000000000000000000, 1.000000000000000000 ) ) ;
#255 = CIRCLE ( 'NONE', #627, 15.00000000000000000 ) ;
#256 = DIRECTION ( 'NONE',  ( -0.000000000000000000, 0.000000000000000000, 1.000000000000000000 ) ) ;
#257 = VERTEX_POINT ( 'NONE', #969 ) ;
#258 = VECTOR ( 'NONE', #401, 1000.000000000000000 ) ;
#259 = AXIS2_PLACEMENT_3D ( 'NONE', #539, #228, #556 ) ;
#260 = DIRECTION ( 'NONE',  ( 0.000000000000000000, 0.000000000000000000, -1.000000000000000000 ) ) ;
#261 = EDGE_LOOP ( 'NONE', ( #243 ) ) ;
#262 = VECTOR ( 'NONE', #1029, 1000.000000000000000 ) ;
#263 = EDGE_LOOP ( 'NONE', ( #805 ) ) ;
#264 = DIRECTION ( 'NONE',  ( -1.000000000000000000, 0.000000000000000000, 0.000000000000000000 ) ) ;
#265 = CARTESIAN_POINT ( 'NONE',  ( 1.854049621773914858, 0.7500000000000036637, 42.29983303296179997 ) ) ;
#266 = DIRECTION ( 'NONE',  ( -1.000000000000000000, 0.000000000000000000, 0.000000000000000000 ) ) ;
#267 = EDGE_LOOP ( 'NONE', ( #597 ) ) ;
#268 = ADVANCED_FACE ( 'NONE', ( #589 ), #342, .F. ) ;
#269 = DIRECTION ( 'NONE',  ( 1.000000000000000000, 0.000000000000000000, 0.000000000000000000 ) ) ;
#270 = ADVANCED_FACE ( 'NONE', ( #361 ), #204, .T. ) ;
#271 = DIRECTION ( 'NONE',  ( 1.000000000000000000, 0.000000000000000000, 0.000000000000000000 ) ) ;
#272 = EDGE_CURVE ( 'NONE', #544, #972, #412, .T. ) ;
#273 = ORIENTED_EDGE ( 'NONE', *, *, #774, .F. ) ;
#274 = ORIENTED_EDGE ( 'NONE', *, *, #610, .F. ) ;
#275 = CARTESIAN_POINT ( 'NONE',  ( 17.67412955556585530, -1.795836543400852303, 1.750000000000000000 ) ) ;
#276 = CARTESIAN_POINT ( 'NONE',  ( 1.909541076430414375, -0.5989118360107260619, 42.03828118509728284 ) ) ;
#277 = TOROIDAL_SURFACE ( 'NONE', #445, 6.749999999999894307, 0.7500000000000000000 ) ;
#278 = CARTESIAN_POINT ( 'NONE',  ( -24.08945726811865384, -0.7499999999999984457, 42.50000000000000000 ) ) ;
#279 = AXIS2_PLACEMENT_3D ( 'NONE', #1051, #472, #727 ) ;
#280 = AXIS2_PLACEMENT_3D ( 'NONE', #75, #977, #658 ) ;
#281 = ORIENTED_EDGE ( 'NONE', *, *, #10, .T. ) ;
#282 = CARTESIAN_POINT ( 'NONE',  ( 2.384848003542364037, -0.7500000000000006661, 47.50000000000000711 ) ) ;
#283 = ADVANCED_FACE ( 'NONE', ( #786, #928 ), #948, .F. ) ;
#284 = CARTESIAN_POINT ( 'NONE',  ( 2.493777651453503719, 0.1982481013423287586, 41.77011919260033324 ) ) ;
#285 = ORIENTED_EDGE ( 'NONE', *, *, #975, .F. ) ;
#286 = DIRECTION ( 'NONE',  ( 0.000000000000000000, 0.000000000000000000, -1.000000000000000000 ) ) ;
#287 = CARTESIAN_POINT ( 'NONE',  ( -2.341980683845275307E-13, 18.00000000000011724, -0.9999999999999997780 ) ) ;
#288 = EDGE_LOOP ( 'NONE', ( #982 ) ) ;
#289 = CYLINDRICAL_SURFACE ( 'NONE', #308, 2.500000000000000000 ) ;
#290 = DIRECTION ( 'NONE',  ( -0.000000000000000000, -0.000000000000000000, -1.000000000000000000 ) ) ;
#291 = ORIENTED_EDGE ( 'NONE', *, *, #577, .F. ) ;
#292 = TOROIDAL_SURFACE ( 'NONE', #18, 15.75000000000000000, 0.7500000000000000000 ) ;
#293 = AXIS2_PLACEMENT_3D ( 'NONE', #636, #389, #961 ) ;
#294 = PRODUCT_DEFINITION_FORMATION_WITH_SPECIFIED_SOURCE ( 'ANY', '', #1005, .NOT_KNOWN. ) ;
#295 = CARTESIAN_POINT ( 'NONE',  ( 17.46556232682138798, -2.516252889060675457, 1.000000000000000000 ) ) ;
#296 = CARTESIAN_POINT ( 'NONE',  ( 2.500000000000000000, 0.000000000000000000, 38.50000000000000000 ) ) ;
#297 = DIRECTION ( 'NONE',  ( 0.000000000000000000, -0.000000000000000000, -1.000000000000000000 ) ) ;
#298 = ORIENTED_EDGE ( 'NONE', *, *, #65, .T. ) ;
#299 = ADVANCED_FACE ( 'NONE', ( #781 ), #387, .T. ) ;
#300 = DIRECTION ( 'NONE',  ( 0.2394448724536422934, -0.9709099613536050777, 0.000000000000000000 ) ) ;
#301 = PLANE ( 'NONE',  #651 ) ;
#302 = FACE_OUTER_BOUND ( 'NONE', #261, .T. ) ;
#303 = EDGE_LOOP ( 'NONE', ( #399 ) ) ;
#304 = CARTESIAN_POINT ( 'NONE',  ( -15.58845726811878940, -9.000000000000527578, 1.000000000000000000 ) ) ;
#305 = DIRECTION ( 'NONE',  ( 0.000000000000000000, 0.000000000000000000, -1.000000000000000000 ) ) ;
#306 = DIRECTION ( 'NONE',  ( 0.000000000000000000, -0.000000000000000000, -1.000000000000000000 ) ) ;
#307 = ORIENTED_EDGE ( 'NONE', *, *, #833, .F. ) ;
#308 = AXIS2_PLACEMENT_3D ( 'NONE', #391, #611, #934 ) ;
#309 = CIRCLE ( 'NONE', #686, 15.75000000000000711 ) ;
#310 = DIRECTION ( 'NONE',  ( -0.000000000000000000, -0.000000000000000000, -1.000000000000000000 ) ) ;
#311 = CARTESIAN_POINT ( 'NONE',  ( -15.58845726811878940, -9.000000000000527578, -0.9999999999999997780 ) ) ;
#312 = EDGE_CURVE ( 'NONE', #864, #491, #888, .T. ) ;
#313 = CARTESIAN_POINT ( 'NONE',  ( 6.553642239136604708, 16.38374711093887370, -0.9999999999999997780 ) ) ;
#314 = ORIENTED_EDGE ( 'NONE', *, *, #536, .T. ) ;
#315 = VERTEX_POINT ( 'NONE', #200 ) ;
#316 = FACE_OUTER_BOUND ( 'NONE', #698, .T. ) ;
#317 = DIRECTION ( 'NONE',  ( -1.000000000000000000, 0.000000000000000000, 0.000000000000000000 ) ) ;
#318 = DIRECTION ( 'NONE',  ( -1.000000000000000000, 0.000000000000000000, 0.000000000000000000 ) ) ;
#319 = ORIENTED_EDGE ( 'NONE', *, *, #272, .T. ) ;
#320 = CARTESIAN_POINT ( 'NONE',  ( 1.854049621773913525, -0.7499999999999984457, 42.50000000000000000 ) ) ;
#321 = DIRECTION ( 'NONE',  ( 1.000000000000000000, 0.000000000000000000, 0.000000000000000000 ) ) ;
#322 = ORIENTED_EDGE ( 'NONE', *, *, #506, .T. ) ;
#323 = FACE_BOUND ( 'NONE', #996, .T. ) ;
#324 = EDGE_CURVE ( 'NONE', #548, #666, #803, .T. ) ;
#325 = AXIS2_PLACEMENT_3D ( 'NONE', #621, #944, #939 ) ;
#326 = AXIS2_PLACEMENT_3D ( 'NONE', #514, #254, #579 ) ;
#327 = CARTESIAN_POINT ( 'NONE',  ( -6.553642239136834746, 16.38374711093791092, -1.750000000000000000 ) ) ;
#328 = ORIENTED_EDGE ( 'NONE', *, *, #1019, .T. ) ;
#329 = DIRECTION ( 'NONE',  ( 1.000000000000000000, 0.000000000000000000, 0.000000000000000000 ) ) ;
#330 = VERTEX_POINT ( 'NONE', #239 ) ;
#331 = DIRECTION ( 'NONE',  ( -0.000000000000000000, -0.000000000000000000, -1.000000000000000000 ) ) ;
#332 = CARTESIAN_POINT ( 'NONE',  ( 1.984639101444544721E-12, -25.22498073958743348, 1.000000000000000000 ) ) ;
#333 = VERTEX_POINT ( 'NONE', #695 ) ;
#334 = DIRECTION ( 'NONE',  ( -0.000000000000000000, 0.000000000000000000, 1.000000000000000000 ) ) ;
#335 = DIRECTION ( 'NONE',  ( 1.000000000000000000, 0.000000000000000000, 0.000000000000000000 ) ) ;
#336 = CARTESIAN_POINT ( 'NONE',  ( 3.800000000000001599, 0.000000000000000000, 40.00000000000000000 ) ) ;
#337 = DIRECTION ( 'NONE',  ( 1.000000000000000000, 0.000000000000000000, 0.000000000000000000 ) ) ;
#338 = CARTESIAN_POINT ( 'NONE',  ( 1.854049621773916190, 0.7499999999999988898, 47.50000000000000711 ) ) ;
#339 = ORIENTED_EDGE ( 'NONE', *, *, #1050, .F. ) ;
#340 = DIRECTION ( 'NONE',  ( -0.000000000000000000, 0.000000000000000000, 1.000000000000000000 ) ) ;
#341 = AXIS2_PLACEMENT_3D ( 'NONE', #115, #124, #765 ) ;
#342 = CYLINDRICAL_SURFACE ( 'NONE', #1009, 15.00000000000000000 ) ;
#343 = VERTEX_POINT ( 'NONE', #336 ) ;
#344 = CIRCLE ( 'NONE', #853, 0.7500000000000001110 ) ;
#345 = AXIS2_PLACEMENT_3D ( 'NONE', #376, #992, #264 ) ;
#346 = DIRECTION ( 'NONE',  ( -0.000000000000000000, 0.000000000000000000, 1.000000000000000000 ) ) ;
#347 = AXIS2_PLACEMENT_3D ( 'NONE', #419, #744, #321 ) ;
#348 = EDGE_CURVE ( 'NONE', #540, #333, #108, .T. ) ;
#349 = ORIENTED_EDGE ( 'NONE', *, *, #121, .T. ) ;
#350 = ADVANCED_BREP_SHAPE_REPRESENTATION ( 'Part4 Carrier', ( #420, #583 ), #773 ) ;
#351 = DIRECTION ( 'NONE',  ( -0.000000000000000000, 0.000000000000000000, 1.000000000000000000 ) ) ;
#352 = EDGE_CURVE ( 'NONE', #666, #491, #344, .T. ) ;
#353 = DIRECTION ( 'NONE',  ( -0.000000000000000000, -0.000000000000000000, -1.000000000000000000 ) ) ;
#354 = ORIENTED_EDGE ( 'NONE', *, *, #123, .T. ) ;
#355 = ORIENTED_EDGE ( 'NONE', *, *, #609, .F. ) ;
#356 = CARTESIAN_POINT ( 'NONE',  ( 15.58845726812122301, -8.999999999998980371, 1.000000000000000000 ) ) ;
#357 = CARTESIAN_POINT ( 'NONE',  ( 15.58845726812122301, -8.999999999998980371, -0.9999999999999997780 ) ) ;
#358 = EDGE_CURVE ( 'NONE', #864, #830, #220, .T. ) ;
#359 = CARTESIAN_POINT ( 'NONE',  ( 2.384848003542364481, -0.7499999999999984457, 42.50000000000000000 ) ) ;
#360 = ORIENTED_EDGE ( 'NONE', *, *, #564, .T. ) ;
#361 = FACE_OUTER_BOUND ( 'NONE', #672, .T. ) ;
#362 = AXIS2_PLACEMENT_3D ( 'NONE', #675, #821, #335 ) ;
#363 = EDGE_CURVE ( 'NONE', #257, #257, #562, .T. ) ;
#364 = AXIS2_PLACEMENT_3D ( 'NONE', #1016, #300, #709 ) ;
#365 = DIRECTION ( 'NONE',  ( 1.000000000000000000, 0.000000000000000000, -0.000000000000000000 ) ) ;
#366 = CIRCLE ( 'NONE', #952, 15.75000000000000000 ) ;
#367 = AXIS2_PLACEMENT_3D ( 'NONE', #838, #334, #662 ) ;
#368 = ORIENTED_EDGE ( 'NONE', *, *, #384, .T. ) ;
#369 = VECTOR ( 'NONE', #1034, 1000.000000000000000 ) ;
#370 = CARTESIAN_POINT ( 'NONE',  ( -2.341980683845275307E-13, 18.00000000000011724, 1.750000000000000000 ) ) ;
#371 = CARTESIAN_POINT ( 'NONE',  ( 2.413091028052459563, -0.6686318268147375399, 42.10788387627365381 ) ) ;
#372 = ORIENTED_EDGE ( 'NONE', *, *, #929, .F. ) ;
#373 = EDGE_CURVE ( 'NONE', #548, #756, #768, .T. ) ;
#374 = DIRECTION ( 'NONE',  ( 1.000000000000000000, 0.000000000000000000, 0.000000000000000000 ) ) ;
#375 = CARTESIAN_POINT ( 'NONE',  ( 0.000000000000000000, 0.000000000000000000, 50.00000000000000000 ) ) ;
#376 = CARTESIAN_POINT ( 'NONE',  ( 0.000000000000000000, 0.000000000000000000, 50.00000000000000000 ) ) ;
#377 = ORIENTED_EDGE ( 'NONE', *, *, #642, .F. ) ;
#378 = CARTESIAN_POINT ( 'NONE',  ( 2.428175397298393268, -0.5990910888711247217, 47.96156007430919033 ) ) ;
#379 = CARTESIAN_POINT ( 'NONE',  ( 2.500000000000000000, 0.000000000000000000, 49.50000000000000000 ) ) ;
#380 = AXIS2_PLACEMENT_3D ( 'NONE', #96, #681, #602 ) ;
#381 = DIRECTION ( 'NONE',  ( -0.000000000000000000, -0.000000000000000000, -1.000000000000000000 ) ) ;
#382 = ORIENTED_EDGE ( 'NONE', *, *, #848, .T. ) ;
#383 = AXIS2_PLACEMENT_3D ( 'NONE', #304, #454, #122 ) ;
#384 = EDGE_CURVE ( 'NONE', #330, #330, #970, .T. ) ;
#385 = CIRCLE ( 'NONE', #51, 3.800000000000001599 ) ;
#386 = ADVANCED_FACE ( 'NONE', ( #871, #138, #791 ), #289, .T. ) ;
#387 = CYLINDRICAL_SURFACE ( 'NONE', #933, 7.499999999999801048 ) ;
#388 = FACE_OUTER_BOUND ( 'NONE', #967, .T. ) ;
#389 = DIRECTION ( 'NONE',  ( 0.000000000000000000, 0.000000000000000000, -1.000000000000000000 ) ) ;
#390 = EDGE_LOOP ( 'NONE', ( #812 ) ) ;
#391 = CARTESIAN_POINT ( 'NONE',  ( 0.000000000000000000, 0.000000000000000000, 50.00000000000000000 ) ) ;
#392 = CYLINDRICAL_SURFACE ( 'NONE', #671, 7.499999999999894307 ) ;
#393 = ORIENTED_EDGE ( 'NONE', *, *, #199, .F. ) ;
#394 = LINE ( 'NONE', #78, #258 ) ;
#395 = EDGE_CURVE ( 'NONE', #161, #937, #818, .T. ) ;
#396 = CARTESIAN_POINT ( 'NONE',  ( -21.84547413045612174, 12.61249036979305416, 1.000000000000000000 ) ) ;
#397 = EDGE_CURVE ( 'NONE', #790, #443, #517, .T. ) ;
#398 = DIRECTION ( 'NONE',  ( 1.000000000000000000, 9.251858538542971828E-16, 0.000000000000000000 ) ) ;
#399 = ORIENTED_EDGE ( 'NONE', *, *, #186, .F. ) ;
#400 = CIRCLE ( 'NONE', #1052, 6.749999999999865885 ) ;
#401 = DIRECTION ( 'NONE',  ( -0.000000000000000000, -0.000000000000000000, -1.000000000000000000 ) ) ;
#402 = FACE_BOUND ( 'NONE', #173, .T. ) ;
#403 = DIRECTION ( 'NONE',  ( 1.000000000000000000, 0.000000000000000000, 0.000000000000000000 ) ) ;
#404 = VERTEX_POINT ( 'NONE', #408 ) ;
#405 = CARTESIAN_POINT ( 'NONE',  ( -6.553642239136839187, 16.38374711093792868, -0.9999999999999997780 ) ) ;
#406 = FACE_OUTER_BOUND ( 'NONE', #825, .T. ) ;
#407 = VERTEX_POINT ( 'NONE', #320 ) ;
#408 = CARTESIAN_POINT ( 'NONE',  ( 10.39230484541479349, -14.40832691319503134, -0.9999999999999997780 ) ) ;
#409 = VERTEX_POINT ( 'NONE', #827 ) ;
#410 = DIRECTION ( 'NONE',  ( -0.000000000000000000, 0.000000000000000000, 1.000000000000000000 ) ) ;
#411 = ORIENTED_EDGE ( 'NONE', *, *, #551, .T. ) ;
#412 = B_SPLINE_CURVE_WITH_KNOTS ( 'NONE', 3,
 ( #282, #117, #466, #617, #378, #459, #541, #699, #625, #865, #450, #777, #444, #537, #50, #132 ),
 .UNSPECIFIED., .F., .F.,
 ( 4, 2, 2, 2, 2, 2, 2, 4 ),
 ( 0.000000000000000000, 0.0002947046078932490467, 0.0005894092157864980934, 0.0008841138236797471944, 0.001178818431572996187, 0.001473523039466245396, 0.001768227647359494389, 0.002357636863146007119 ),
 .UNSPECIFIED. ) ;
#413 = DIRECTION ( 'NONE',  ( 1.000000000000000000, 0.000000000000000000, 0.000000000000000000 ) ) ;
#414 = AXIS2_PLACEMENT_3D ( 'NONE', #101, #346, #995 ) ;
#415 = CARTESIAN_POINT ( 'NONE',  ( 1.854049621773916190, 0.7499999999999988898, 47.50000000000000711 ) ) ;
#416 = FACE_OUTER_BOUND ( 'NONE', #429, .T. ) ;
#417 = CARTESIAN_POINT ( 'NONE',  ( -24.08945726811865384, 1.535825056546861230E-15, 42.50000000000000000 ) ) ;
#418 = FACE_OUTER_BOUND ( 'NONE', #641, .T. ) ;
#419 = CARTESIAN_POINT ( 'NONE',  ( 21.84547413045620345, 12.61249036979531013, -1.750000000000000000 ) ) ;
#420 = MANIFOLD_SOLID_BREP ( 'Fillet2', #84 ) ;
#421 = DIRECTION ( 'NONE',  ( -0.000000000000000000, -0.000000000000000000, 1.000000000000000000 ) ) ;
#422 = ORIENTED_EDGE ( 'NONE', *, *, #938, .T. ) ;
#423 = FACE_OUTER_BOUND ( 'NONE', #102, .T. ) ;
#424 = DIRECTION ( 'NONE',  ( -0.000000000000000000, 0.000000000000000000, 1.000000000000000000 ) ) ;
#425 = PRODUCT_CONTEXT ( 'NONE', #1003, 'mechanical' ) ;
#426 = EDGE_CURVE ( 'NONE', #972, #1015, #394, .T. ) ;
#427 = DIRECTION ( 'NONE',  ( 1.000000000000000000, 0.000000000000000000, 0.000000000000000000 ) ) ;
#428 = EDGE_CURVE ( 'NONE', #513, #785, #400, .T. ) ;
#429 = EDGE_LOOP ( 'NONE', ( #328, #218, #1, #56 ) ) ;
#430 = DIRECTION ( 'NONE',  ( 1.000000000000000000, -0.000000000000000000, -0.000000000000000000 ) ) ;
#431 = CARTESIAN_POINT ( 'NONE',  ( 1.992156571291553213, -0.1989905563842204739, 41.77032205060456249 ) ) ;
#432 = AXIS2_PLACEMENT_3D ( 'NONE', #214, #529, #545 ) ;
#433 = AXIS2_PLACEMENT_3D ( 'NONE', #784, #47, #703 ) ;
#434 = ORIENTED_EDGE ( 'NONE', *, *, #103, .T. ) ;
#435 = AXIS2_PLACEMENT_3D ( 'NONE', #801, #68, #460 ) ;
#436 = ORIENTED_EDGE ( 'NONE', *, *, #272, .F. ) ;
#437 = DIRECTION ( 'NONE',  ( 1.000000000000000000, 0.000000000000000000, 0.000000000000000000 ) ) ;
#438 = CARTESIAN_POINT ( 'NONE',  ( 0.000000000000000000, 0.000000000000000000, 50.00000000000000000 ) ) ;
#439 = ORIENTED_EDGE ( 'NONE', *, *, #774, .T. ) ;
#440 = ORIENTED_EDGE ( 'NONE', *, *, #722, .T. ) ;
#441 = CARTESIAN_POINT ( 'NONE',  ( 0.000000000000000000, 0.000000000000000000, 38.69999999999999574 ) ) ;
#442 = CARTESIAN_POINT ( 'NONE',  ( 2.384848003542362704, 0.7500000000000003331, 42.50000000000000711 ) ) ;
#443 = VERTEX_POINT ( 'NONE', #558 ) ;
#444 = CARTESIAN_POINT ( 'NONE',  ( 2.458163072348225953, 0.4609268023425892036, 48.09968939999080106 ) ) ;
#445 = AXIS2_PLACEMENT_3D ( 'NONE', #692, #201, #844 ) ;
#446 = AXIS2_PLACEMENT_3D ( 'NONE', #861, #45, #1032 ) ;
#447 = CARTESIAN_POINT ( 'NONE',  ( 2.458163072348226841, -0.4609268023425867056, 41.90031060000923446 ) ) ;
#448 = AXIS2_PLACEMENT_3D ( 'NONE', #249, #180, #859 ) ;
#449 = EDGE_LOOP ( 'NONE', ( #902 ) ) ;
#450 = CARTESIAN_POINT ( 'NONE',  ( 2.493976152028831716, 0.1962352135321792923, 48.23057295271705414 ) ) ;
#451 = CARTESIAN_POINT ( 'NONE',  ( 2.428175397298393268, 0.5990910888711280524, 42.03843992569082388 ) ) ;
#452 = CARTESIAN_POINT ( 'NONE',  ( 1.984639101444544721E-12, -25.22498073958743348, -1.750000000000000000 ) ) ;
#453 = ORIENTED_EDGE ( 'NONE', *, *, #769, .F. ) ;
#454 = DIRECTION ( 'NONE',  ( 0.000000000000000000, -0.000000000000000000, -1.000000000000000000 ) ) ;
#455 = FACE_OUTER_BOUND ( 'NONE', #829, .T. ) ;
#456 = EDGE_CURVE ( 'NONE', #931, #890, #1038, .T. ) ;
#457 = CARTESIAN_POINT ( 'NONE',  ( -7.281824710152037028, 16.20416345659767998, 1.000000000000000000 ) ) ;
#458 = ORIENTED_EDGE ( 'NONE', *, *, #847, .T. ) ;
#459 = CARTESIAN_POINT ( 'NONE',  ( 2.458014589035818709, -0.4616385738833793662, 48.09903060194284308 ) ) ;
#460 = DIRECTION ( 'NONE',  ( -1.000000000000000000, 0.000000000000000000, 0.000000000000000000 ) ) ;
#461 = AXIS2_PLACEMENT_3D ( 'NONE', #193, #926, #38 ) ;
#462 = CARTESIAN_POINT ( 'NONE',  ( 17.46556232682138798, -2.516252889060676345, -1.750000000000000000 ) ) ;
#463 = ORIENTED_EDGE ( 'NONE', *, *, #167, .T. ) ;
#464 = CIRCLE ( 'NONE', #139, 0.7500000000000001110 ) ;
#465 = AXIS2_PLACEMENT_3D ( 'NONE', #396, #128, #227 ) ;
#466 = CARTESIAN_POINT ( 'NONE',  ( 2.391315846623861319, -0.7301708569177698394, 47.69746222558444515 ) ) ;
#467 = EDGE_CURVE ( 'NONE', #161, #931, #137, .T. ) ;
#468 = CARTESIAN_POINT ( 'NONE',  ( 1.854049621773915080, 0.7500000000000015543, 42.50000000000000711 ) ) ;
#469 = DIRECTION ( 'NONE',  ( -1.000000000000000000, 0.000000000000000000, 0.000000000000000000 ) ) ;
#470 = ORIENTED_EDGE ( 'NONE', *, *, #467, .F. ) ;
#471 = ADVANCED_FACE ( 'NONE', ( #316, #323, #650, #1042 ), #713, .F. ) ;
#472 = DIRECTION ( 'NONE',  ( -0.000000000000000000, 0.000000000000000000, 1.000000000000000000 ) ) ;
#473 = ADVANCED_FACE ( 'NONE', ( #795, #974 ), #61, .F. ) ;
#474 = DIRECTION ( 'NONE',  ( 1.000000000000000000, -0.000000000000000000, -0.000000000000000000 ) ) ;
#475 = DIRECTION ( 'NONE',  ( -0.000000000000000000, 0.000000000000000000, 1.000000000000000000 ) ) ;
#476 = ORIENTED_EDGE ( 'NONE', *, *, #456, .F. ) ;
#477 = CARTESIAN_POINT ( 'NONE',  ( -24.08945726811865384, 0.7500000000000003331, 42.50000000000000711 ) ) ;
#478 = DIRECTION ( 'NONE',  ( -1.000000000000000000, 0.000000000000000000, 0.000000000000000000 ) ) ;
#479 = CARTESIAN_POINT ( 'NONE',  ( -15.58845726811997778, -8.999999999999852562, -1.750000000000000000 ) ) ;
#480 = ORIENTED_EDGE ( 'NONE', *, *, #958, .T. ) ;
#481 = UNCERTAINTY_MEASURE_WITH_UNIT (LENGTH_MEASURE( 1.000000000000000082E-05 ), #799, 'distance_accuracy_value', 'NONE');
#482 = TOROIDAL_SURFACE ( 'NONE', #932, 3.800000000000001599, 0.2000000000000000111 ) ;
#483 = PRESENTATION_LAYER_ASSIGNMENT (  '', '', ( #648 ) ) ;
#484 = AXIS2_PLACEMENT_3D ( 'NONE', #629, #879, #936 ) ;
#485 = DIRECTION ( 'NONE',  ( 1.000000000000000000, 0.000000000000000000, 0.000000000000000000 ) ) ;
#486 = CARTESIAN_POINT ( 'NONE',  ( 0.000000000000000000, 0.000000000000000000, 38.50000000000000000 ) ) ;
#487 = EDGE_LOOP ( 'NONE', ( #285, #1006, #411, #436 ) ) ;
#488 = ORIENTED_EDGE ( 'NONE', *, *, #348, .F. ) ;
#489 = ADVANCED_FACE ( 'NONE', ( #895 ), #549, .T. ) ;
#490 = CARTESIAN_POINT ( 'NONE',  ( 1.965834405470216151, -0.3795184777043586477, 48.15442717071270806 ) ) ;
#491 = VERTEX_POINT ( 'NONE', #655 ) ;
#492 = CARTESIAN_POINT ( 'NONE',  ( 1.854049621773916190, 0.7499999999999988898, 50.00000000000000000 ) ) ;
#493 = ORIENTED_EDGE ( 'NONE', *, *, #823, .T. ) ;
#494 = TOROIDAL_SURFACE ( 'NONE', #901, 15.75000000000000711, 0.7500000000000000000 ) ;
#495 = CARTESIAN_POINT ( 'NONE',  ( -10.39230484541172750, -14.40832691319589820, 1.000000000000000000 ) ) ;
#496 = AXIS2_PLACEMENT_3D ( 'NONE', #441, #764, #670 ) ;
#497 = AXIS2_PLACEMENT_3D ( 'NONE', #965, #787, #862 ) ;
#498 = VECTOR ( 'NONE', #872, 1000.000000000000000 ) ;
#499 = CARTESIAN_POINT ( 'NONE',  ( 1.854049621773915080, -0.7500000000000011102, 47.50000000000000711 ) ) ;
#500 = EDGE_LOOP ( 'NONE', ( #810 ) ) ;
#501 = ORIENTED_EDGE ( 'NONE', *, *, #770, .T. ) ;
#502 = LINE ( 'NONE', #534, #715 ) ;
#503 = ADVANCED_FACE ( 'NONE', ( #66, #959 ), #813, .T. ) ;
#504 = DIRECTION ( 'NONE',  ( 0.000000000000000000, -1.951563910473908967E-16, 1.000000000000000000 ) ) ;
#505 =( NAMED_UNIT ( * ) PLANE_ANGLE_UNIT ( ) SI_UNIT ( $, .RADIAN. ) );
#506 = EDGE_CURVE ( 'NONE', #1049, #1015, #146, .T. ) ;
#507 = DIRECTION ( 'NONE',  ( -1.000000000000000000, 0.000000000000000000, 0.000000000000000000 ) ) ;
#508 = DIRECTION ( 'NONE',  ( 1.000000000000000000, 0.000000000000000000, 0.000000000000000000 ) ) ;
#509 = ORIENTED_EDGE ( 'NONE', *, *, #660, .F. ) ;
#510 = DIRECTION ( 'NONE',  ( 1.000000000000000000, 0.000000000000000000, 0.000000000000000000 ) ) ;
#511 = CARTESIAN_POINT ( 'NONE',  ( 2.000043060956015584, 0.09799031969351075511, 41.74988517071666649 ) ) ;
#512 = ORIENTED_EDGE ( 'NONE', *, *, #858, .F. ) ;
#513 = VERTEX_POINT ( 'NONE', #43 ) ;
#514 = CARTESIAN_POINT ( 'NONE',  ( 2.500000000000000444, 0.000000000000000000, 40.00000000000000000 ) ) ;
#515 = CIRCLE ( 'NONE', #380, 15.00000000000000000 ) ;
#516 = CARTESIAN_POINT ( 'NONE',  ( 1.965834405470213930, 0.3795184777043656421, 41.84557282928732036 ) ) ;
#517 = CIRCLE ( 'NONE', #1022, 6.749999999999895195 ) ;
#518 = AXIS2_PLACEMENT_3D ( 'NONE', #875, #297, #885 ) ;
#519 = LINE ( 'NONE', #278, #530 ) ;
#520 = EDGE_CURVE ( 'NONE', #343, #343, #67, .T. ) ;
#521 = AXIS2_PLACEMENT_3D ( 'NONE', #732, #11, #337 ) ;
#522 = ORIENTED_EDGE ( 'NONE', *, *, #644, .F. ) ;
#523 = CARTESIAN_POINT ( 'NONE',  ( 1.965845949104040979, -0.3791236611732999306, 41.84555947489277372 ) ) ;
#524 = CARTESIAN_POINT ( 'NONE',  ( 2.391315846623859986, 0.7301708569177741692, 42.30253777441559038 ) ) ;
#525 = VERTEX_POINT ( 'NONE', #979 ) ;
#526 = CARTESIAN_POINT ( 'NONE',  ( -21.84547413045612174, 12.61249036979305416, 1.750000000000000000 ) ) ;
#527 = CARTESIAN_POINT ( 'NONE',  ( 2.499970746069485994, 0.09919532801226846330, 41.75009751314482997 ) ) ;
#528 = ORIENTED_EDGE ( 'NONE', *, *, #914, .T. ) ;
#529 = DIRECTION ( 'NONE',  ( -0.000000000000000000, -0.000000000000000000, 1.000000000000000000 ) ) ;
#530 = VECTOR ( 'NONE', #178, 1000.000000000000000 ) ;
#531 = AXIS2_PLACEMENT_3D ( 'NONE', #638, #310, #633 ) ;
#532 = CARTESIAN_POINT ( 'NONE',  ( 2.472870739067404511, -0.3785969014437188251, 41.84508818571585920 ) ) ;
#533 = CIRCLE ( 'NONE', #518, 15.75000000000000000 ) ;
#534 = CARTESIAN_POINT ( 'NONE',  ( -24.08945726811865384, 0.7499999999999993339, 47.50000000000000711 ) ) ;
#535 = ORIENTED_EDGE ( 'NONE', *, *, #941, .T. ) ;
#536 = EDGE_CURVE ( 'NONE', #937, #525, #580, .T. ) ;
#537 = CARTESIAN_POINT ( 'NONE',  ( 2.413091028052459563, 0.6686318268147396493, 47.89211612372635329 ) ) ;
#538 = ADVANCED_FACE ( 'NONE', ( #1002, #678 ), #668, .T. ) ;
#539 = CARTESIAN_POINT ( 'NONE',  ( -10.91192008768244648, -13.86749422187634906, -1.000000000000000000 ) ) ;
#540 = VERTEX_POINT ( 'NONE', #594 ) ;
#541 = CARTESIAN_POINT ( 'NONE',  ( 2.472850838248677796, -0.3784679858952507137, 48.15482080476161286 ) ) ;
#542 = DIRECTION ( 'NONE',  ( -0.000000000000000000, -0.000000000000000000, -1.000000000000000000 ) ) ;
#543 = CARTESIAN_POINT ( 'NONE',  ( -15.58845726811878940, -9.000000000000527578, 1.750000000000000000 ) ) ;
#544 = VERTEX_POINT ( 'NONE', #587 ) ;
#545 = DIRECTION ( 'NONE',  ( 1.000000000000000000, 0.000000000000000000, 0.000000000000000000 ) ) ;
#546 = CYLINDRICAL_SURFACE ( 'NONE', #155, 0.7500000000000006661 ) ;
#547 = DIRECTION ( 'NONE',  ( -0.9709099613536257278, 0.2394448724535592765, 0.000000000000000000 ) ) ;
#548 = VERTEX_POINT ( 'NONE', #495 ) ;
#549 = TOROIDAL_SURFACE ( 'NONE', #86, 6.749999999999801048, 0.7500000000000000000 ) ;
#550 = VECTOR ( 'NONE', #598, 1000.000000000000000 ) ;
#551 = EDGE_CURVE ( 'NONE', #64, #972, #502, .T. ) ;
#552 = DIRECTION ( 'NONE',  ( 0.000000000000000000, -0.000000000000000000, -1.000000000000000000 ) ) ;
#553 = DIRECTION ( 'NONE',  ( -0.000000000000000000, 0.000000000000000000, 1.000000000000000000 ) ) ;
#554 = ORIENTED_EDGE ( 'NONE', *, *, #564, .F. ) ;
#555 = DIRECTION ( 'NONE',  ( -0.6928203230275317148, -0.7211102550928162325, 0.000000000000000000 ) ) ;
#556 = DIRECTION ( 'NONE',  ( 0.6928203230276214208, -0.7211102550927301902, 0.000000000000000000 ) ) ;
#557 = VERTEX_POINT ( 'NONE', #826 ) ;
#558 = CARTESIAN_POINT ( 'NONE',  ( 10.91192008768544497, -13.86749422187540048, -1.750000000000000000 ) ) ;
#559 = CARTESIAN_POINT ( 'NONE',  ( -17.46556232681995624, -2.516252889062544185, -1.000000000000000000 ) ) ;
#560 = ORIENTED_EDGE ( 'NONE', *, *, #577, .T. ) ;
#561 = TOROIDAL_SURFACE ( 'NONE', #414, 15.75000000000000000, 0.7500000000000000000 ) ;
#562 = CIRCLE ( 'NONE', #839, 4.000000000000001776 ) ;
#563 = CIRCLE ( 'NONE', #367, 4.500000000000000888 ) ;
#564 = EDGE_CURVE ( 'NONE', #785, #931, #309, .T. ) ;
#565 = ADVANCED_FACE ( 'NONE', ( #423 ), #19, .T. ) ;
#566 = VERTEX_POINT ( 'NONE', #814 ) ;
#567 = EDGE_CURVE ( 'NONE', #443, #513, #366, .T. ) ;
#568 = DIRECTION ( 'NONE',  ( 0.000000000000000000, 0.000000000000000000, 1.000000000000000000 ) ) ;
#569 = ORIENTED_EDGE ( 'NONE', *, *, #395, .F. ) ;
#570 = SHAPE_DEFINITION_REPRESENTATION ( #30, #350 ) ;
#571 = DIRECTION ( 'NONE',  ( 0.9605551275463872773, 0.2780896383261048932, 0.000000000000000000 ) ) ;
#572 = ORIENTED_EDGE ( 'NONE', *, *, #77, .F. ) ;
#573 = EDGE_LOOP ( 'NONE', ( #179 ) ) ;
#574 = CARTESIAN_POINT ( 'NONE',  ( 0.000000000000000000, 0.000000000000000000, 40.00000000000000000 ) ) ;
#575 = CARTESIAN_POINT ( 'NONE',  ( 2.000000000000001776, 0.000000000000000000, 50.00000000000000000 ) ) ;
#576 = CARTESIAN_POINT ( 'NONE',  ( 1.890316627494194934, 0.6544637198895610908, 47.87921118580981528 ) ) ;
#577 = EDGE_CURVE ( 'NONE', #824, #540, #736, .T. ) ;
#578 = ORIENTED_EDGE ( 'NONE', *, *, #823, .F. ) ;
#579 = DIRECTION ( 'NONE',  ( 1.000000000000000000, 0.000000000000000000, 0.000000000000000000 ) ) ;
#580 = CIRCLE ( 'NONE', #34, 7.499999999999864109 ) ;
#581 = AXIS2_PLACEMENT_3D ( 'NONE', #134, #475, #148 ) ;
#582 = CARTESIAN_POINT ( 'NONE',  ( 1.890594247695924990, 0.6678434940571674749, 42.10714499067162109 ) ) ;
#583 = AXIS2_PLACEMENT_3D ( 'NONE', #100, #9, #73 ) ;
#584 = DIRECTION ( 'NONE',  ( 0.000000000000000000, 0.000000000000000000, 1.000000000000000000 ) ) ;
#585 = ORIENTED_EDGE ( 'NONE', *, *, #938, .F. ) ;
#586 = ORIENTED_EDGE ( 'NONE', *, *, #954, .F. ) ;
#587 = CARTESIAN_POINT ( 'NONE',  ( 2.384848003542364037, -0.7500000000000006661, 47.50000000000000711 ) ) ;
#588 = B_SPLINE_CURVE_WITH_KNOTS ( 'NONE', 3,
 ( #442, #31, #524, #1011, #451, #687, #778, #284, #527, #923, #118, #532, #447, #371, #607, #42 ),
 .UNSPECIFIED., .F., .F.,
 ( 4, 2, 2, 2, 2, 2, 2, 4 ),
 ( 0.000000000000000000, 0.0002947046078932501309, 0.0005894092157865002618, 0.0008841138236797502301, 0.001178818431573000307, 0.001473523039466250167, 0.001768227647359500027, 0.002357636863146013624 ),
 .UNSPECIFIED. ) ;
#589 = FACE_OUTER_BOUND ( 'NONE', #927, .T. ) ;
#590 = B_SPLINE_CURVE_WITH_KNOTS ( 'NONE', 3,
 ( #415, #1045, #986, #576, #251, #728, #900, #740, #171, #157, #664, #490, #176, #1053, #1048, #499 ),
 .UNSPECIFIED., .F., .F.,
 ( 4, 2, 2, 2, 2, 2, 2, 4 ),
 ( 0.000000000000000000, 0.0002956972213215786701, 0.0005913944426431573401, 0.0008870916639647360644, 0.001182788885286314680, 0.001478486106607893296, 0.001774183327929472129, 0.002365577770572644106 ),
 .UNSPECIFIED. ) ;
#591 = ADVANCED_FACE ( 'NONE', ( #930 ), #90, .F. ) ;
#592 = CARTESIAN_POINT ( 'NONE',  ( 0.000000000000000000, 18.00000000000000000, 1.750000000000000000 ) ) ;
#593 = ORIENTED_EDGE ( 'NONE', *, *, #883, .T. ) ;
#594 = CARTESIAN_POINT ( 'NONE',  ( 17.46556232682138798, -2.516252889060675457, 1.750000000000000000 ) ) ;
#595 = FACE_OUTER_BOUND ( 'NONE', #231, .T. ) ;
#596 = ORIENTED_EDGE ( 'NONE', *, *, #567, .T. ) ;
#597 = ORIENTED_EDGE ( 'NONE', *, *, #363, .T. ) ;
#598 = DIRECTION ( 'NONE',  ( -0.000000000000000000, -0.000000000000000000, -1.000000000000000000 ) ) ;
#599 = CIRCLE ( 'NONE', #341, 0.7499999999999996669 ) ;
#600 = FACE_OUTER_BOUND ( 'NONE', #194, .T. ) ;
#601 = TOROIDAL_SURFACE ( 'NONE', #788, 15.75000000000000711, 0.7500000000000000000 ) ;
#602 = DIRECTION ( 'NONE',  ( 1.000000000000000000, 0.000000000000000000, 0.000000000000000000 ) ) ;
#603 = EDGE_LOOP ( 'NONE', ( #766, #355, #488, #291 ) ) ;
#604 = PLANE ( 'NONE',  #837 ) ;
#605 = ORIENTED_EDGE ( 'NONE', *, *, #883, .F. ) ;
#606 = DIRECTION ( 'NONE',  ( -0.000000000000000000, 0.000000000000000000, 1.000000000000000000 ) ) ;
#607 = CARTESIAN_POINT ( 'NONE',  ( 2.384848003542364925, -0.7499999999999984457, 42.30059210048239748 ) ) ;
#608 = EDGE_LOOP ( 'NONE', ( #894 ) ) ;
#609 = EDGE_CURVE ( 'NONE', #333, #845, #1024, .T. ) ;
#610 = EDGE_CURVE ( 'NONE', #566, #566, #563, .T. ) ;
#611 = DIRECTION ( 'NONE',  ( -0.000000000000000000, -0.000000000000000000, -1.000000000000000000 ) ) ;
#612 = AXIS2_PLACEMENT_3D ( 'NONE', #526, #1013, #207 ) ;
#613 = AXIS2_PLACEMENT_3D ( 'NONE', #667, #820, #269 ) ;
#614 = CARTESIAN_POINT ( 'NONE',  ( -10.91192008768244470, -13.86749422187634906, 1.750000000000000000 ) ) ;
#615 = CIRCLE ( 'NONE', #70, 0.7499999999999994449 ) ;
#616 = ORIENTED_EDGE ( 'NONE', *, *, #167, .F. ) ;
#617 = CARTESIAN_POINT ( 'NONE',  ( 2.413061623371563158, -0.6547324342186071622, 47.87876938947989203 ) ) ;
#618 = DIRECTION ( 'NONE',  ( -0.000000000000000000, 0.000000000000000000, 1.000000000000000000 ) ) ;
#619 = DIRECTION ( 'NONE',  ( 0.2394448724535592210, 0.9709099613536256168, 0.000000000000000000 ) ) ;
#620 = ORIENTED_EDGE ( 'NONE', *, *, #567, .F. ) ;
#621 = CARTESIAN_POINT ( 'NONE',  ( -10.91192008768241450, -13.86749422187632241, 1.000000000000000000 ) ) ;
#622 = DIRECTION ( 'NONE',  ( 1.000000000000000000, 0.000000000000000000, 0.000000000000000000 ) ) ;
#623 = FACE_OUTER_BOUND ( 'NONE', #834, .T. ) ;
#624 = EDGE_LOOP ( 'NONE', ( #842, #314, #158, #116 ) ) ;
#625 = CARTESIAN_POINT ( 'NONE',  ( 2.499970746069486438, -0.09919532801226237095, 48.24990248685517713 ) ) ;
#626 = CARTESIAN_POINT ( 'NONE',  ( 0.000000000000000000, 0.000000000000000000, 1.750000000000000000 ) ) ;
#627 = AXIS2_PLACEMENT_3D ( 'NONE', #332, #172, #749 ) ;
#628 = TOROIDAL_SURFACE ( 'NONE', #496, 3.800000000000001599, 0.2000000000000000111 ) ;
#629 = CARTESIAN_POINT ( 'NONE',  ( 15.58845726811985699, -9.000000000000074607, -1.750000000000000000 ) ) ;
#630 = EDGE_LOOP ( 'NONE', ( #453 ) ) ;
#631 = VECTOR ( 'NONE', #290, 1000.000000000000000 ) ;
#632 = CIRCLE ( 'NONE', #521, 2.500000000000000000 ) ;
#633 = DIRECTION ( 'NONE',  ( -1.000000000000000000, 0.000000000000000000, 0.000000000000000000 ) ) ;
#634 = APPLICATION_CONTEXT ( 'automotive_design' ) ;
#635 = DIRECTION ( 'NONE',  ( -0.000000000000000000, 0.000000000000000000, 1.000000000000000000 ) ) ;
#636 = CARTESIAN_POINT ( 'NONE',  ( 2.500000000000000000, 0.000000000000000000, 38.50000000000000000 ) ) ;
#637 = ORIENTED_EDGE ( 'NONE', *, *, #770, .F. ) ;
#638 = CARTESIAN_POINT ( 'NONE',  ( 0.000000000000000000, 18.00000000000000000, 1.750000000000000000 ) ) ;
#639 = CARTESIAN_POINT ( 'NONE',  ( 2.384848003542364037, 0.7500000000000006661, 47.50000000000000711 ) ) ;
#640 = CARTESIAN_POINT ( 'NONE',  ( -6.553642239136834746, 16.38374711093791092, 1.750000000000000000 ) ) ;
#641 = EDGE_LOOP ( 'NONE', ( #780, #339, #253, #126 ) ) ;
#642 = EDGE_CURVE ( 'NONE', #333, #557, #831, .T. ) ;
#643 = FILL_AREA_STYLE ('',( #968 ) ) ;
#644 = EDGE_CURVE ( 'NONE', #830, #315, #903, .T. ) ;
#645 = DIRECTION ( 'NONE',  ( -0.2780896383259567339, -0.9605551275464300209, 0.000000000000000000 ) ) ;
#646 = ORIENTED_EDGE ( 'NONE', *, *, #397, .T. ) ;
#647 = CIRCLE ( 'NONE', #1020, 2.500000000000000000 ) ;
#648 = STYLED_ITEM ( 'NONE', ( #877 ), #420 ) ;
#649 = AXIS2_PLACEMENT_3D ( 'NONE', #983, #747, #437 ) ;
#650 = FACE_BOUND ( 'NONE', #288, .T. ) ;
#651 = AXIS2_PLACEMENT_3D ( 'NONE', #626, #618, #622 ) ;
#652 = APPLICATION_PROTOCOL_DEFINITION ( 'draft international standard', 'automotive_design', 1998, #634 ) ;
#653 = DIRECTION ( 'NONE',  ( 0.000000000000000000, 1.734723475976805369E-16, -1.000000000000000000 ) ) ;
#654 = EDGE_LOOP ( 'NONE', ( #80 ) ) ;
#655 = CARTESIAN_POINT ( 'NONE',  ( -17.46556232681995624, -2.516252889062544185, 1.750000000000000000 ) ) ;
#656 = CARTESIAN_POINT ( 'NONE',  ( 20.08845726811985699, -9.000000000000074607, 1.750000000000000000 ) ) ;
#657 = ADVANCED_FACE ( 'NONE', ( #125, #104 ), #674, .T. ) ;
#658 = DIRECTION ( 'NONE',  ( 1.000000000000000000, 0.000000000000000000, 0.000000000000000000 ) ) ;
#659 = DIRECTION ( 'NONE',  ( 1.000000000000000000, 0.000000000000000000, 0.000000000000000000 ) ) ;
#660 = EDGE_CURVE ( 'NONE', #666, #937, #997, .T. ) ;
#661 = ORIENTED_EDGE ( 'NONE', *, *, #739, .T. ) ;
#662 = DIRECTION ( 'NONE',  ( 1.000000000000000000, 0.000000000000000000, 0.000000000000000000 ) ) ;
#663 = CARTESIAN_POINT ( 'NONE',  ( 1.999956556253047690, -0.09974027036455158923, 41.75011585005947978 ) ) ;
#664 = CARTESIAN_POINT ( 'NONE',  ( 1.992454698062187779, -0.1966302642509150655, 48.23051059942118002 ) ) ;
#665 = DIRECTION ( 'NONE',  ( -0.000000000000000000, 0.000000000000000000, 1.000000000000000000 ) ) ;
#666 = VERTEX_POINT ( 'NONE', #184 ) ;
#667 = CARTESIAN_POINT ( 'NONE',  ( 21.84547413045620345, 12.61249036979531013, 1.000000000000000000 ) ) ;
#668 = CONICAL_SURFACE ( 'NONE', #345, 2.000000000000001776, 0.7853981633974461696 ) ;
#669 = AXIS2_PLACEMENT_3D ( 'NONE', #559, #571, #4 ) ;
#670 = DIRECTION ( 'NONE',  ( -1.000000000000000000, 0.000000000000000000, 0.000000000000000000 ) ) ;
#671 = AXIS2_PLACEMENT_3D ( 'NONE', #721, #710, #317 ) ;
#672 = EDGE_LOOP ( 'NONE', ( #439, #476, #470, #918 ) ) ;
#673 = ORIENTED_EDGE ( 'NONE', *, *, #520, .F. ) ;
#674 = PLANE ( 'NONE',  #326 ) ;
#675 = CARTESIAN_POINT ( 'NONE',  ( -15.58845726811878940, -9.000000000000527578, 1.000000000000000000 ) ) ;
#676 = ORIENTED_EDGE ( 'NONE', *, *, #426, .F. ) ;
#677 = ORIENTED_EDGE ( 'NONE', *, *, #848, .F. ) ;
#678 = FACE_BOUND ( 'NONE', #303, .T. ) ;
#679 = ADVANCED_FACE ( 'NONE', ( #759 ), #174, .T. ) ;
#680 = CARTESIAN_POINT ( 'NONE',  ( 1.854049621773915080, 0.7500000000000015543, 42.50000000000000711 ) ) ;
#681 = DIRECTION ( 'NONE',  ( -0.000000000000000000, 0.000000000000000000, 1.000000000000000000 ) ) ;
#682 = EDGE_LOOP ( 'NONE', ( #349, #522, #1046, #637 ) ) ;
#683 = AXIS2_PLACEMENT_3D ( 'NONE', #438, #925, #271 ) ;
#684 = AXIS2_PLACEMENT_3D ( 'NONE', #287, #857, #696 ) ;
#685 = CARTESIAN_POINT ( 'NONE',  ( 1.854049621773913525, -0.7499999999999984457, 42.50000000000000000 ) ) ;
#686 = AXIS2_PLACEMENT_3D ( 'NONE', #7, #166, #98 ) ;
#687 = CARTESIAN_POINT ( 'NONE',  ( 2.458014589035816932, 0.4616385738833826413, 41.90096939805716403 ) ) ;
#688 = TOROIDAL_SURFACE ( 'NONE', #54, 6.749999999999864997, 0.7500000000000000000 ) ;
#689 = ORIENTED_EDGE ( 'NONE', *, *, #121, .F. ) ;
#690 = CARTESIAN_POINT ( 'NONE',  ( -2.341980683845275307E-13, 18.00000000000011724, -0.9999999999999997780 ) ) ;
#691 = ADVANCED_FACE ( 'NONE', ( #716 ), #89, .T. ) ;
#692 = CARTESIAN_POINT ( 'NONE',  ( 15.58845726812122301, -8.999999999998980371, 1.000000000000000000 ) ) ;
#693 = ORIENTED_EDGE ( 'NONE', *, *, #941, .F. ) ;
#694 = EDGE_CURVE ( 'NONE', #557, #130, #819, .T. ) ;
#695 = CARTESIAN_POINT ( 'NONE',  ( 17.67412955556585530, -1.795836543400852303, 1.000000000000000000 ) ) ;
#696 = DIRECTION ( 'NONE',  ( 1.000000000000000000, 0.000000000000000000, 0.000000000000000000 ) ) ;
#697 = DIRECTION ( 'NONE',  ( 1.000000000000000000, 0.000000000000000000, 0.000000000000000000 ) ) ;
#698 = EDGE_LOOP ( 'NONE', ( #746, #360, #1027, #528, #646, #596 ) ) ;
#699 = CARTESIAN_POINT ( 'NONE',  ( 2.493777651453505495, -0.1982481013423238458, 48.22988080739968808 ) ) ;
#700 = VERTEX_POINT ( 'NONE', #296 ) ;
#701 = COLOUR_RGB ( '',0.7921568627450980005, 0.8196078431372548767, 0.9333333333333333481 ) ;
#702 = AXIS2_PLACEMENT_3D ( 'NONE', #417, #911, #25 ) ;
#703 = DIRECTION ( 'NONE',  ( 1.000000000000000000, 8.811293846231401365E-16, 0.000000000000000000 ) ) ;
#704 = ORIENTED_EDGE ( 'NONE', *, *, #426, .T. ) ;
#705 = DIRECTION ( 'NONE',  ( -1.000000000000000000, 0.000000000000000000, 0.000000000000000000 ) ) ;
#706 = DIRECTION ( 'NONE',  ( -0.7211102550928162325, 0.6928203230275317148, -1.468395459740933174E-14 ) ) ;
#707 = CARTESIAN_POINT ( 'NONE',  ( -24.08945726811865384, -0.7500000000000006661, 47.50000000000000711 ) ) ;
#708 = EDGE_LOOP ( 'NONE', ( #458 ) ) ;
#709 = DIRECTION ( 'NONE',  ( 0.9709099613536050777, 0.2394448724536422934, 0.000000000000000000 ) ) ;
#710 = DIRECTION ( 'NONE',  ( -0.000000000000000000, -0.000000000000000000, -1.000000000000000000 ) ) ;
#711 = CARTESIAN_POINT ( 'NONE',  ( -17.46556232681995624, -2.516252889062544185, -1.750000000000000000 ) ) ;
#712 = ORIENTED_EDGE ( 'NONE', *, *, #1050, .T. ) ;
#713 = PLANE ( 'NONE',  #279 ) ;
#714 = LINE ( 'NONE', #878, #369 ) ;
#715 = VECTOR ( 'NONE', #430, 1000.000000000000000 ) ;
#716 = FACE_OUTER_BOUND ( 'NONE', #6, .T. ) ;
#717 = ORIENTED_EDGE ( 'NONE', *, *, #395, .T. ) ;
#718 = AXIS2_PLACEMENT_3D ( 'NONE', #63, #381, #469 ) ;
#719 = ORIENTED_EDGE ( 'NONE', *, *, #975, .T. ) ;
#720 = DIRECTION ( 'NONE',  ( 1.000000000000000000, 0.000000000000000000, 0.000000000000000000 ) ) ;
#721 = CARTESIAN_POINT ( 'NONE',  ( 15.58845726812122301, -8.999999999998980371, 1.750000000000000000 ) ) ;
#722 = EDGE_CURVE ( 'NONE', #756, #824, #533, .T. ) ;
#723 = CARTESIAN_POINT ( 'NONE',  ( 17.46556232682138798, -2.516252889060676345, -0.9999999999999997780 ) ) ;
#724 = EDGE_LOOP ( 'NONE', ( #493, #1008, #677, #1012 ) ) ;
#725 = UNCERTAINTY_MEASURE_WITH_UNIT (LENGTH_MEASURE( 1.000000000000000082E-05 ), #976, 'distance_accuracy_value', 'NONE');
#726 = EDGE_CURVE ( 'NONE', #315, #130, #55, .T. ) ;
#727 = DIRECTION ( 'NONE',  ( 1.000000000000000000, 0.000000000000000000, 0.000000000000000000 ) ) ;
#728 = CARTESIAN_POINT ( 'NONE',  ( 1.947208260384254430, 0.4619767316435879900, 48.09871291181070774 ) ) ;
#729 = ORIENTED_EDGE ( 'NONE', *, *, #757, .T. ) ;
#730 = DIRECTION ( 'NONE',  ( 0.000000000000000000, -0.000000000000000000, -1.000000000000000000 ) ) ;
#731 = CARTESIAN_POINT ( 'NONE',  ( -11.08845726811997778, -8.999999999999852562, -1.750000000000000000 ) ) ;
#732 = CARTESIAN_POINT ( 'NONE',  ( 0.000000000000000000, 0.000000000000000000, 1.750000000000001554 ) ) ;
#733 = EDGE_LOOP ( 'NONE', ( #28 ) ) ;
#734 = CIRCLE ( 'NONE', #82, 7.499999999999892530 ) ;
#735 = AXIS2_PLACEMENT_3D ( 'NONE', #405, #143, #150 ) ;
#736 = CIRCLE ( 'NONE', #448, 6.749999999999895195 ) ;
#737 = DIRECTION ( 'NONE',  ( -0.000000000000000000, -0.000000000000000000, 1.000000000000000000 ) ) ;
#738 = VERTEX_POINT ( 'NONE', #892 ) ;
#739 = EDGE_CURVE ( 'NONE', #525, #404, #154, .T. ) ;
#740 = CARTESIAN_POINT ( 'NONE',  ( 1.992156571291551437, 0.1989905563842299940, 48.22967794939548725 ) ) ;
#741 = CARTESIAN_POINT ( 'NONE',  ( 0.000000000000000000, 0.000000000000000000, 38.50000000000000000 ) ) ;
#742 = DIRECTION ( 'NONE',  ( 0.000000000000000000, -0.000000000000000000, -1.000000000000000000 ) ) ;
#743 = CARTESIAN_POINT ( 'NONE',  ( 1.854049621773916634, -0.7499999999999986677, 42.39993479997060177 ) ) ;
#744 = DIRECTION ( 'NONE',  ( -0.000000000000000000, 0.000000000000000000, 1.000000000000000000 ) ) ;
#745 = FACE_OUTER_BOUND ( 'NONE', #919, .T. ) ;
#746 = ORIENTED_EDGE ( 'NONE', *, *, #428, .T. ) ;
#747 = DIRECTION ( 'NONE',  ( 0.000000000000000000, -0.000000000000000000, -1.000000000000000000 ) ) ;
#748 = FACE_OUTER_BOUND ( 'NONE', #72, .T. ) ;
#749 = DIRECTION ( 'NONE',  ( 1.000000000000000000, 0.000000000000000000, 0.000000000000000000 ) ) ;
#750 = EDGE_LOOP ( 'NONE', ( #762 ) ) ;
#751 = AXIS2_PLACEMENT_3D ( 'NONE', #112, #88, #427 ) ;
#752 = DIRECTION ( 'NONE',  ( 1.000000000000000000, -0.000000000000000000, -0.000000000000000000 ) ) ;
#753 = CIRCLE ( 'NONE', #120, 0.7499999999999996669 ) ;
#754 = DIRECTION ( 'NONE',  ( 1.000000000000000000, 0.000000000000000000, 0.000000000000000000 ) ) ;
#755 = CIRCLE ( 'NONE', #497, 6.749999999999865885 ) ;
#756 = VERTEX_POINT ( 'NONE', #614 ) ;
#757 = EDGE_CURVE ( 'NONE', #845, #404, #868, .T. ) ;
#758 = EDGE_LOOP ( 'NONE', ( #763 ) ) ;
#759 = FACE_OUTER_BOUND ( 'NONE', #624, .T. ) ;
#760 = EDGE_CURVE ( 'NONE', #907, #907, #170, .T. ) ;
#761 = CARTESIAN_POINT ( 'NONE',  ( 1.862457701526832210, -0.7299801523713500551, 42.30187665145454901 ) ) ;
#762 = ORIENTED_EDGE ( 'NONE', *, *, #929, .T. ) ;
#763 = ORIENTED_EDGE ( 'NONE', *, *, #94, .T. ) ;
#764 = DIRECTION ( 'NONE',  ( 0.000000000000000000, 0.000000000000000000, -1.000000000000000000 ) ) ;
#765 = DIRECTION ( 'NONE',  ( -0.9709099613536257278, 0.2394448724535592765, 0.000000000000000000 ) ) ;
#766 = ORIENTED_EDGE ( 'NONE', *, *, #1019, .F. ) ;
#767 = TOROIDAL_SURFACE ( 'NONE', #362, 6.749999999999864997, 0.7500000000000000000 ) ;
#768 = CIRCLE ( 'NONE', #325, 0.7499999999999992228 ) ;
#769 = EDGE_CURVE ( 'NONE', #93, #93, #935, .T. ) ;
#770 = EDGE_CURVE ( 'NONE', #190, #864, #772, .T. ) ;
#771 = DIRECTION ( 'NONE',  ( 1.000000000000000000, 0.000000000000000000, 0.000000000000000000 ) ) ;
#772 = CIRCLE ( 'NONE', #581, 6.749999999999801048 ) ;
#773 =( GEOMETRIC_REPRESENTATION_CONTEXT ( 3 ) GLOBAL_UNCERTAINTY_ASSIGNED_CONTEXT ( ( #725 ) ) GLOBAL_UNIT_ASSIGNED_CONTEXT ( ( #976, #505, #83 ) ) REPRESENTATION_CONTEXT ( 'NONE', 'WORKASPACE' ) );
#774 = EDGE_CURVE ( 'NONE', #130, #890, #753, .T. ) ;
#775 = CARTESIAN_POINT ( 'NONE',  ( 7.281824710151823865, 16.20416345659870316, -0.9999999999999997780 ) ) ;
#776 = EDGE_LOOP ( 'NONE', ( #248, #586, #719, #605 ) ) ;
#777 = CARTESIAN_POINT ( 'NONE',  ( 2.472870739067404067, 0.3785969014437252089, 48.15491181428416212 ) ) ;
#778 = CARTESIAN_POINT ( 'NONE',  ( 2.472850838248676908, 0.3784679858952557652, 41.84517919523840845 ) ) ;
#779 = DIRECTION ( 'NONE',  ( 1.000000000000000000, 0.000000000000000000, 0.000000000000000000 ) ) ;
#780 = ORIENTED_EDGE ( 'NONE', *, *, #373, .T. ) ;
#781 = FACE_OUTER_BOUND ( 'NONE', #860, .T. ) ;
#782 = CARTESIAN_POINT ( 'NONE',  ( -24.08945726811865384, -0.7500000000000006661, 47.50000000000000711 ) ) ;
#783 = ADVANCED_FACE ( 'NONE', ( #302, #623 ), #797, .F. ) ;
#784 = CARTESIAN_POINT ( 'NONE',  ( 21.84547413045620345, 12.61249036979531013, 1.750000000000000000 ) ) ;
#785 = VERTEX_POINT ( 'NONE', #711 ) ;
#786 = FACE_OUTER_BOUND ( 'NONE', #708, .T. ) ;
#787 = DIRECTION ( 'NONE',  ( -0.000000000000000000, 0.000000000000000000, 1.000000000000000000 ) ) ;
#788 = AXIS2_PLACEMENT_3D ( 'NONE', #809, #410, #403 ) ;
#789 = PLANE ( 'NONE',  #293 ) ;
#790 = VERTEX_POINT ( 'NONE', #462 ) ;
#791 = FACE_OUTER_BOUND ( 'NONE', #963, .T. ) ;
#792 = CARTESIAN_POINT ( 'NONE',  ( 4.500000000000000000, 18.00000000000000000, 1.750000000000000000 ) ) ;
#793 = FACE_OUTER_BOUND ( 'NONE', #733, .T. ) ;
#794 = ORIENTED_EDGE ( 'NONE', *, *, #348, .T. ) ;
#795 = FACE_OUTER_BOUND ( 'NONE', #758, .T. ) ;
#796 = CARTESIAN_POINT ( 'NONE',  ( 0.000000000000000000, 0.000000000000000000, 50.00000000000000000 ) ) ;
#797 = CYLINDRICAL_SURFACE ( 'NONE', #718, 4.500000000000000888 ) ;
#798 = ORIENTED_EDGE ( 'NONE', *, *, #726, .T. ) ;
#799 =( LENGTH_UNIT ( ) NAMED_UNIT ( * ) SI_UNIT ( .MILLI., .METRE. ) );
#800 = ADVANCED_FACE ( 'NONE', ( #793, #209 ), #789, .T. ) ;
#801 = CARTESIAN_POINT ( 'NONE',  ( 0.000000000000000000, 0.000000000000000000, 38.69999999999999574 ) ) ;
#802 = AXIS2_PLACEMENT_3D ( 'NONE', #17, #12, #266 ) ;
#803 = CIRCLE ( 'NONE', #383, 7.499999999999864109 ) ;
#804 = DIRECTION ( 'NONE',  ( 1.000000000000000000, 1.850371707708594366E-15, 0.000000000000000000 ) ) ;
#805 = ORIENTED_EDGE ( 'NONE', *, *, #520, .T. ) ;
#806 = VECTOR ( 'NONE', #1036, 1000.000000000000000 ) ;
#807 = SURFACE_SIDE_STYLE ('',( #237 ) ) ;
#808 = VERTEX_POINT ( 'NONE', #245 ) ;
#809 = CARTESIAN_POINT ( 'NONE',  ( -21.84547413045612174, 12.61249036979305416, 1.000000000000000000 ) ) ;
#810 = ORIENTED_EDGE ( 'NONE', *, *, #94, .F. ) ;
#811 = CARTESIAN_POINT ( 'NONE',  ( -7.281824710152037028, 16.20416345659767998, 1.750000000000000000 ) ) ;
#812 = ORIENTED_EDGE ( 'NONE', *, *, #760, .T. ) ;
#813 = CYLINDRICAL_SURFACE ( 'NONE', #817, 4.000000000000001776 ) ;
#814 = CARTESIAN_POINT ( 'NONE',  ( -11.08845726811997778, -8.999999999999852562, 1.750000000000000000 ) ) ;
#815 = CARTESIAN_POINT ( 'NONE',  ( 0.000000000000000000, 0.000000000000000000, 50.00000000000000000 ) ) ;
#816 = ORIENTED_EDGE ( 'NONE', *, *, #870, .F. ) ;
#817 = AXIS2_PLACEMENT_3D ( 'NONE', #226, #737, #882 ) ;
#818 = CIRCLE ( 'NONE', #446, 15.00000000000000711 ) ;
#819 = CIRCLE ( 'NONE', #855, 15.00000000000000000 ) ;
#820 = DIRECTION ( 'NONE',  ( -0.000000000000000000, 0.000000000000000000, 1.000000000000000000 ) ) ;
#821 = DIRECTION ( 'NONE',  ( -0.000000000000000000, 0.000000000000000000, 1.000000000000000000 ) ) ;
#822 = CYLINDRICAL_SURFACE ( 'NONE', #973, 2.500000000000000000 ) ;
#823 = EDGE_CURVE ( 'NONE', #513, #525, #891, .T. ) ;
#824 = VERTEX_POINT ( 'NONE', #863 ) ;
#825 = EDGE_LOOP ( 'NONE', ( #372 ) ) ;
#826 = CARTESIAN_POINT ( 'NONE',  ( 17.67412955556585530, -1.795836543400852303, -0.9999999999999997780 ) ) ;
#827 = CARTESIAN_POINT ( 'NONE',  ( 2.500000000000000000, 0.000000000000000000, 1.750000000000001554 ) ) ;
#828 = CARTESIAN_POINT ( 'NONE',  ( -17.67412955556453724, -1.795836543402758778, -0.9999999999999997780 ) ) ;
#829 = EDGE_LOOP ( 'NONE', ( #213, #661, #210, #298 ) ) ;
#830 = VERTEX_POINT ( 'NONE', #457 ) ;
#831 = LINE ( 'NONE', #275, #550 ) ;
#832 = FACE_OUTER_BOUND ( 'NONE', #909, .T. ) ;
#833 = EDGE_CURVE ( 'NONE', #540, #190, #990, .T. ) ;
#834 = EDGE_LOOP ( 'NONE', ( #981 ) ) ;
#835 = ADVANCED_FACE ( 'NONE', ( #1026 ), #942, .F. ) ;
#836 = ORIENTED_EDGE ( 'NONE', *, *, #358, .T. ) ;
#837 = AXIS2_PLACEMENT_3D ( 'NONE', #375, #850, #365 ) ;
#838 = CARTESIAN_POINT ( 'NONE',  ( -15.58845726811997778, -8.999999999999852562, 1.750000000000000000 ) ) ;
#839 = AXIS2_PLACEMENT_3D ( 'NONE', #849, #286, #374 ) ;
#840 = DIRECTION ( 'NONE',  ( -0.000000000000000000, 0.000000000000000000, 1.000000000000000000 ) ) ;
#841 = FACE_OUTER_BOUND ( 'NONE', #44, .T. ) ;
#842 = ORIENTED_EDGE ( 'NONE', *, *, #660, .T. ) ;
#843 = DIRECTION ( 'NONE',  ( 1.000000000000000000, 0.000000000000000000, 0.000000000000000000 ) ) ;
#844 = DIRECTION ( 'NONE',  ( 1.000000000000000000, 0.000000000000000000, 0.000000000000000000 ) ) ;
#845 = VERTEX_POINT ( 'NONE', #164 ) ;
#846 = EDGE_CURVE ( 'NONE', #64, #924, #590, .T. ) ;
#847 = EDGE_CURVE ( 'NONE', #16, #16, #69, .T. ) ;
#848 = EDGE_CURVE ( 'NONE', #785, #937, #109, .T. ) ;
#849 = CARTESIAN_POINT ( 'NONE',  ( 0.000000000000000000, 0.000000000000000000, 39.80000000000000426 ) ) ;
#850 = DIRECTION ( 'NONE',  ( 0.000000000000000000, 0.000000000000000000, 1.000000000000000000 ) ) ;
#851 = ORIENTED_EDGE ( 'NONE', *, *, #103, .F. ) ;
#852 = CIRCLE ( 'NONE', #461, 4.500000000000000000 ) ;
#853 = AXIS2_PLACEMENT_3D ( 'NONE', #187, #211, #1028 ) ;
#854 = DIRECTION ( 'NONE',  ( -0.000000000000000000, -0.000000000000000000, -1.000000000000000000 ) ) ;
#855 = AXIS2_PLACEMENT_3D ( 'NONE', #217, #946, #398 ) ;
#856 = AXIS2_PLACEMENT_3D ( 'NONE', #796, #147, #884 ) ;
#857 = DIRECTION ( 'NONE',  ( -0.000000000000000000, 0.000000000000000000, 1.000000000000000000 ) ) ;
#858 = EDGE_CURVE ( 'NONE', #1049, #64, #908, .T. ) ;
#859 = DIRECTION ( 'NONE',  ( 1.000000000000000000, 0.000000000000000000, 0.000000000000000000 ) ) ;
#860 = EDGE_LOOP ( 'NONE', ( #798, #13, #693, #135 ) ) ;
#861 = CARTESIAN_POINT ( 'NONE',  ( -21.84547413045612174, 12.61249036979305416, -0.9999999999999997780 ) ) ;
#862 = DIRECTION ( 'NONE',  ( 1.000000000000000000, 0.000000000000000000, 0.000000000000000000 ) ) ;
#863 = CARTESIAN_POINT ( 'NONE',  ( 10.91192008768544497, -13.86749422187540048, 1.750000000000000000 ) ) ;
#864 = VERTEX_POINT ( 'NONE', #640 ) ;
#865 = CARTESIAN_POINT ( 'NONE',  ( 2.500029034865973721, 0.09771524512475573965, 48.25009678292955329 ) ) ;
#866 = CYLINDRICAL_SURFACE ( 'NONE', #37, 15.00000000000000000 ) ;
#867 = ADVANCED_FACE ( 'NONE', ( #242, #406 ), #822, .T. ) ;
#868 = LINE ( 'NONE', #59, #631 ) ;
#869 = ORIENTED_EDGE ( 'NONE', *, *, #312, .F. ) ;
#870 = EDGE_CURVE ( 'NONE', #808, #808, #385, .T. ) ;
#871 = FACE_OUTER_BOUND ( 'NONE', #229, .T. ) ;
#872 = DIRECTION ( 'NONE',  ( -0.000000000000000000, -0.000000000000000000, -1.000000000000000000 ) ) ;
#873 = AXIS2_PLACEMENT_3D ( 'NONE', #295, #40, #1023 ) ;
#874 = AXIS2_PLACEMENT_3D ( 'NONE', #479, #955, #71 ) ;
#875 = CARTESIAN_POINT ( 'NONE',  ( 1.984639101444544721E-12, -25.22498073958743348, 1.750000000000000000 ) ) ;
#876 = ORIENTED_EDGE ( 'NONE', *, *, #739, .F. ) ;
#877 = PRESENTATION_STYLE_ASSIGNMENT (( #162 ) ) ;
#878 = CARTESIAN_POINT ( 'NONE',  ( 1.854049621773915080, -0.7500000000000011102, 50.00000000000000000 ) ) ;
#879 = DIRECTION ( 'NONE',  ( -0.000000000000000000, 0.000000000000000000, 1.000000000000000000 ) ) ;
#880 = ORIENTED_EDGE ( 'NONE', *, *, #363, .F. ) ;
#881 = ADVANCED_FACE ( 'NONE', ( #87 ), #601, .T. ) ;
#882 = DIRECTION ( 'NONE',  ( 1.000000000000000000, 0.000000000000000000, 0.000000000000000000 ) ) ;
#883 = EDGE_CURVE ( 'NONE', #27, #544, #235, .T. ) ;
#884 = DIRECTION ( 'NONE',  ( -1.000000000000000000, 0.000000000000000000, 0.000000000000000000 ) ) ;
#885 = DIRECTION ( 'NONE',  ( 1.000000000000000000, 1.762258769246280273E-15, 0.000000000000000000 ) ) ;
#886 = EDGE_LOOP ( 'NONE', ( #947 ) ) ;
#887 =( NAMED_UNIT ( * ) SI_UNIT ( $, .STERADIAN. ) SOLID_ANGLE_UNIT ( ) );
#888 = CIRCLE ( 'NONE', #612, 15.75000000000000711 ) ;
#889 = CARTESIAN_POINT ( 'NONE',  ( 6.553642239136602932, 16.38374711093887370, -1.750000000000000000 ) ) ;
#890 = VERTEX_POINT ( 'NONE', #889 ) ;
#891 = CIRCLE ( 'NONE', #259, 0.7500000000000008882 ) ;
#892 = CARTESIAN_POINT ( 'NONE',  ( -4.000000000000001776, 0.000000000000000000, 38.69999999999999574 ) ) ;
#893 = DIRECTION ( 'NONE',  ( -0.7211102550928264465, 0.6928203230275211677, 0.000000000000000000 ) ) ;
#894 = ORIENTED_EDGE ( 'NONE', *, *, #1035, .T. ) ;
#895 = FACE_OUTER_BOUND ( 'NONE', #682, .T. ) ;
#896 = VERTEX_POINT ( 'NONE', #575 ) ;
#897 = CARTESIAN_POINT ( 'NONE',  ( 1.854049621773915080, -0.7500000000000011102, 47.50000000000000711 ) ) ;
#898 = ORIENTED_EDGE ( 'NONE', *, *, #1035, .F. ) ;
#899 = DIRECTION ( 'NONE',  ( 1.000000000000000000, 0.000000000000000000, 0.000000000000000000 ) ) ;
#900 = CARTESIAN_POINT ( 'NONE',  ( 1.965845949104039647, 0.3791236611733080908, 48.15444052510723338 ) ) ;
#901 = AXIS2_PLACEMENT_3D ( 'NONE', #917, #840, #843 ) ;
#902 = ORIENTED_EDGE ( 'NONE', *, *, #384, .F. ) ;
#903 = CIRCLE ( 'NONE', #649, 7.499999999999801048 ) ;
#904 = ORIENTED_EDGE ( 'NONE', *, *, #912, .T. ) ;
#905 = CARTESIAN_POINT ( 'NONE',  ( -17.67412955556453724, -1.795836543402758778, 1.750000000000000000 ) ) ;
#906 = PLANE ( 'NONE',  #949 ) ;
#907 = VERTEX_POINT ( 'NONE', #731 ) ;
#908 = LINE ( 'NONE', #492, #240 ) ;
#909 = EDGE_LOOP ( 'NONE', ( #48, #554, #382, #569 ) ) ;
#910 = ORIENTED_EDGE ( 'NONE', *, *, #312, .T. ) ;
#911 = DIRECTION ( 'NONE',  ( 1.000000000000000000, -0.000000000000000000, -0.000000000000000000 ) ) ;
#912 = EDGE_CURVE ( 'NONE', #557, #790, #464, .T. ) ;
#913 = CARTESIAN_POINT ( 'NONE',  ( 21.84547413045620345, 12.61249036979531013, 1.750000000000000000 ) ) ;
#914 = EDGE_CURVE ( 'NONE', #890, #790, #1010, .T. ) ;
#915 = EDGE_LOOP ( 'NONE', ( #880 ) ) ;
#916 = DIRECTION ( 'NONE',  ( -0.000000000000000000, -0.000000000000000000, -1.000000000000000000 ) ) ;
#917 = CARTESIAN_POINT ( 'NONE',  ( -21.84547413045612174, 12.61249036979305416, -0.9999999999999997780 ) ) ;
#918 = ORIENTED_EDGE ( 'NONE', *, *, #153, .F. ) ;
#919 = EDGE_LOOP ( 'NONE', ( #535, #717, #509, #480 ) ) ;
#920 = AXIS2_PLACEMENT_3D ( 'NONE', #592, #665, #987 ) ;
#921 = VECTOR ( 'NONE', #584, 1000.000000000000000 ) ;
#922 = AXIS2_PLACEMENT_3D ( 'NONE', #1025, #706, #555 ) ;
#923 = CARTESIAN_POINT ( 'NONE',  ( 2.500029034865974165, -0.09771524512475024404, 41.74990321707047514 ) ) ;
#924 = VERTEX_POINT ( 'NONE', #897 ) ;
#925 = DIRECTION ( 'NONE',  ( 0.000000000000000000, 0.000000000000000000, 1.000000000000000000 ) ) ;
#926 = DIRECTION ( 'NONE',  ( -0.000000000000000000, 0.000000000000000000, 1.000000000000000000 ) ) ;
#927 = EDGE_LOOP ( 'NONE', ( #97, #182, #991, #1037 ) ) ;
#928 = FACE_OUTER_BOUND ( 'NONE', #630, .T. ) ;
#929 = EDGE_CURVE ( 'NONE', #409, #409, #632, .T. ) ;
#930 = FACE_OUTER_BOUND ( 'NONE', #225, .T. ) ;
#931 = VERTEX_POINT ( 'NONE', #327 ) ;
#932 = AXIS2_PLACEMENT_3D ( 'NONE', #984, #998, #111 ) ;
#933 = AXIS2_PLACEMENT_3D ( 'NONE', #370, #57, #705 ) ;
#934 = DIRECTION ( 'NONE',  ( -1.000000000000000000, 0.000000000000000000, 0.000000000000000000 ) ) ;
#935 = CIRCLE ( 'NONE', #484, 4.500000000000000888 ) ;
#936 = DIRECTION ( 'NONE',  ( 1.000000000000000000, 0.000000000000000000, 0.000000000000000000 ) ) ;
#937 = VERTEX_POINT ( 'NONE', #828 ) ;
#938 = EDGE_CURVE ( 'NONE', #443, #404, #615, .T. ) ;
#939 = DIRECTION ( 'NONE',  ( 0.6928203230275813418, -0.7211102550927687149, 0.000000000000000000 ) ) ;
#940 = LINE ( 'NONE', #945, #498 ) ;
#941 = EDGE_CURVE ( 'NONE', #830, #161, #247, .T. ) ;
#942 = PLANE ( 'NONE',  #2 ) ;
#943 = EDGE_LOOP ( 'NONE', ( #110 ) ) ;
#944 = DIRECTION ( 'NONE',  ( -0.7211102550927687149, -0.6928203230275813418, -5.566174780376450152E-14 ) ) ;
#945 = CARTESIAN_POINT ( 'NONE',  ( -10.39230484541172750, -14.40832691319589820, 1.750000000000000000 ) ) ;
#946 = DIRECTION ( 'NONE',  ( 0.000000000000000000, -0.000000000000000000, -1.000000000000000000 ) ) ;
#947 = ORIENTED_EDGE ( 'NONE', *, *, #52, .F. ) ;
#948 = CYLINDRICAL_SURFACE ( 'NONE', #169, 4.500000000000000888 ) ;
#949 = AXIS2_PLACEMENT_3D ( 'NONE', #175, #1004, #504 ) ;
#950 =( GEOMETRIC_REPRESENTATION_CONTEXT ( 3 ) GLOBAL_UNCERTAINTY_ASSIGNED_CONTEXT ( ( #481 ) ) GLOBAL_UNIT_ASSIGNED_CONTEXT ( ( #799, #1047, #887 ) ) REPRESENTATION_CONTEXT ( 'NONE', 'WORKASPACE' ) );
#951 = CYLINDRICAL_SURFACE ( 'NONE', #856, 2.000000000000000000 ) ;
#952 = AXIS2_PLACEMENT_3D ( 'NONE', #452, #351, #899 ) ;
#953 = AXIS2_PLACEMENT_3D ( 'NONE', #543, #1040, #129 ) ;
#954 = EDGE_CURVE ( 'NONE', #924, #407, #714, .T. ) ;
#955 = DIRECTION ( 'NONE',  ( -0.000000000000000000, 0.000000000000000000, 1.000000000000000000 ) ) ;
#956 = VECTOR ( 'NONE', #1007, 1000.000000000000000 ) ;
#957 = EDGE_LOOP ( 'NONE', ( #904, #23, #273, #39 ) ) ;
#958 = EDGE_CURVE ( 'NONE', #666, #830, #206, .T. ) ;
#959 = FACE_OUTER_BOUND ( 'NONE', #608, .T. ) ;
#960 = CARTESIAN_POINT ( 'NONE',  ( 2.384848003542362704, 0.7500000000000003331, 42.50000000000000711 ) ) ;
#961 = DIRECTION ( 'NONE',  ( -1.000000000000000000, 0.000000000000000000, -0.000000000000000000 ) ) ;
#962 = EDGE_LOOP ( 'NONE', ( #354, #593, #319, #704 ) ) ;
#963 = EDGE_LOOP ( 'NONE', ( #368 ) ) ;
#964 = CARTESIAN_POINT ( 'NONE',  ( -2.341980683845275307E-13, 18.00000000000011724, 1.000000000000000000 ) ) ;
#965 = CARTESIAN_POINT ( 'NONE',  ( -15.58845726811878940, -9.000000000000527578, 1.750000000000000000 ) ) ;
#966 = ADVANCED_FACE ( 'NONE', ( #216 ), #688, .T. ) ;
#967 = EDGE_LOOP ( 'NONE', ( #183, #978, #107, #1001 ) ) ;
#968 = FILL_AREA_STYLE_COLOUR ( '', #701 ) ;
#969 = CARTESIAN_POINT ( 'NONE',  ( 4.000000000000001776, 0.000000000000000000, 39.80000000000000426 ) ) ;
#970 = CIRCLE ( 'NONE', #432, 2.500000000000000444 ) ;
#971 = CARTESIAN_POINT ( 'NONE',  ( 10.91192008768544497, -13.86749422187540048, -1.000000000000000000 ) ) ;
#972 = VERTEX_POINT ( 'NONE', #639 ) ;
#973 = AXIS2_PLACEMENT_3D ( 'NONE', #815, #331, #507 ) ;
#974 = FACE_OUTER_BOUND ( 'NONE', #145, .T. ) ;
#975 = EDGE_CURVE ( 'NONE', #924, #544, #234, .T. ) ;
#976 =( LENGTH_UNIT ( ) NAMED_UNIT ( * ) SI_UNIT ( .MILLI., .METRE. ) );
#977 = DIRECTION ( 'NONE',  ( -0.000000000000000000, 0.000000000000000000, 1.000000000000000000 ) ) ;
#978 = ORIENTED_EDGE ( 'NONE', *, *, #954, .T. ) ;
#979 = CARTESIAN_POINT ( 'NONE',  ( -10.39230484541172750, -14.40832691319589820, -0.9999999999999997780 ) ) ;
#980 = CARTESIAN_POINT ( 'NONE',  ( 2.384848003542363593, -0.7500000000000011102, 50.00000000000000000 ) ) ;
#981 = ORIENTED_EDGE ( 'NONE', *, *, #760, .F. ) ;
#982 = ORIENTED_EDGE ( 'NONE', *, *, #769, .T. ) ;
#983 = CARTESIAN_POINT ( 'NONE',  ( -2.341980683845275307E-13, 18.00000000000011724, 1.000000000000000000 ) ) ;
#984 = CARTESIAN_POINT ( 'NONE',  ( 0.000000000000000000, 0.000000000000000000, 39.80000000000000426 ) ) ;
#985 = APPLICATION_PROTOCOL_DEFINITION ( 'draft international standard', 'automotive_design', 1998, #1003 ) ;
#986 = CARTESIAN_POINT ( 'NONE',  ( 1.862457701526830878, 0.7299801523713523865, 47.69812334854547231 ) ) ;
#987 = DIRECTION ( 'NONE',  ( 1.000000000000000000, 0.000000000000000000, 0.000000000000000000 ) ) ;
#988 = VECTOR ( 'NONE', #752, 1000.000000000000000 ) ;
#989 = ADVANCED_FACE ( 'NONE', ( #144 ), #546, .F. ) ;
#990 = CIRCLE ( 'NONE', #433, 15.75000000000000000 ) ;
#991 = ORIENTED_EDGE ( 'NONE', *, *, #726, .F. ) ;
#992 = DIRECTION ( 'NONE',  ( 0.000000000000000000, 0.000000000000000000, -1.000000000000000000 ) ) ;
#993 = ADVANCED_FACE ( 'NONE', ( #58, #1039, #1044, #223, #402 ), #301, .T. ) ;
#994 = FACE_OUTER_BOUND ( 'NONE', #915, .T. ) ;
#995 = DIRECTION ( 'NONE',  ( 1.000000000000000000, 0.000000000000000000, 0.000000000000000000 ) ) ;
#996 = EDGE_LOOP ( 'NONE', ( #434 ) ) ;
#997 = LINE ( 'NONE', #905, #189 ) ;
#998 = DIRECTION ( 'NONE',  ( -0.000000000000000000, -0.000000000000000000, 1.000000000000000000 ) ) ;
#999 = ADVANCED_FACE ( 'NONE', ( #388 ), #951, .T. ) ;
#1000 = ORIENTED_EDGE ( 'NONE', *, *, #609, .T. ) ;
#1001 = ORIENTED_EDGE ( 'NONE', *, *, #858, .T. ) ;
#1002 = FACE_OUTER_BOUND ( 'NONE', #886, .T. ) ;
#1003 = APPLICATION_CONTEXT ( 'automotive_design' ) ;
#1004 = DIRECTION ( 'NONE',  ( 0.000000000000000000, 1.000000000000000000, 1.951563910473908967E-16 ) ) ;
#1005 = PRODUCT ( 'Part4 Carrier', 'Part4 Carrier', '', ( #425 ) ) ;
#1006 = ORIENTED_EDGE ( 'NONE', *, *, #846, .F. ) ;
#1007 = DIRECTION ( 'NONE',  ( -0.000000000000000000, -0.000000000000000000, -1.000000000000000000 ) ) ;
#1008 = ORIENTED_EDGE ( 'NONE', *, *, #536, .F. ) ;
#1009 = AXIS2_PLACEMENT_3D ( 'NONE', #913, #353, #29 ) ;
#1010 = CIRCLE ( 'NONE', #347, 15.75000000000000000 ) ;
#1011 = CARTESIAN_POINT ( 'NONE',  ( 2.413061623371560938, 0.6547324342186128243, 42.12123061052012218 ) ) ;
#1012 = ORIENTED_EDGE ( 'NONE', *, *, #428, .F. ) ;
#1013 = DIRECTION ( 'NONE',  ( 0.000000000000000000, -0.000000000000000000, -1.000000000000000000 ) ) ;
#1014 = FACE_OUTER_BOUND ( 'NONE', #603, .T. ) ;
#1015 = VERTEX_POINT ( 'NONE', #960 ) ;
#1016 = CARTESIAN_POINT ( 'NONE',  ( -6.553642239136834746, 16.38374711093791092, 1.000000000000000000 ) ) ;
#1017 = CARTESIAN_POINT ( 'NONE',  ( 7.281824710151823865, 16.20416345659870316, 1.750000000000000000 ) ) ;
#1018 = ORIENTED_EDGE ( 'NONE', *, *, #506, .F. ) ;
#1019 = EDGE_CURVE ( 'NONE', #845, #824, #241, .T. ) ;
#1020 = AXIS2_PLACEMENT_3D ( 'NONE', #252, #165, #508 ) ;
#1021 = ADVANCED_FACE ( 'NONE', ( #455 ), #866, .F. ) ;
#1022 = AXIS2_PLACEMENT_3D ( 'NONE', #244, #552, #485 ) ;
#1023 = DIRECTION ( 'NONE',  ( -0.2780896383259567339, -0.9605551275464300209, 0.000000000000000000 ) ) ;
#1024 = CIRCLE ( 'NONE', #222, 7.499999999999892530 ) ;
#1025 = CARTESIAN_POINT ( 'NONE',  ( 10.91192008768545207, -13.86749422187540937, 1.000000000000000000 ) ) ;
#1026 = FACE_OUTER_BOUND ( 'NONE', #776, .T. ) ;
#1027 = ORIENTED_EDGE ( 'NONE', *, *, #456, .T. ) ;
#1028 = DIRECTION ( 'NONE',  ( -0.2780896383261047822, 0.9605551275463871663, 0.000000000000000000 ) ) ;
#1029 = DIRECTION ( 'NONE',  ( 1.000000000000000000, -0.000000000000000000, -0.000000000000000000 ) ) ;
#1030 = EDGE_CURVE ( 'NONE', #548, #525, #940, .T. ) ;
#1031 = ORIENTED_EDGE ( 'NONE', *, *, #52, .T. ) ;
#1032 = DIRECTION ( 'NONE',  ( 1.000000000000000000, 0.000000000000000000, 0.000000000000000000 ) ) ;
#1033 = ADVANCED_FACE ( 'NONE', ( #62 ), #392, .T. ) ;
#1034 = DIRECTION ( 'NONE',  ( -0.000000000000000000, -0.000000000000000000, -1.000000000000000000 ) ) ;
#1035 = EDGE_CURVE ( 'NONE', #738, #738, #191, .T. ) ;
#1036 = DIRECTION ( 'NONE',  ( -0.000000000000000000, -0.000000000000000000, -1.000000000000000000 ) ) ;
#1037 = ORIENTED_EDGE ( 'NONE', *, *, #41, .T. ) ;
#1038 = CIRCLE ( 'NONE', #152, 6.749999999999801048 ) ;
#1039 = FACE_BOUND ( 'NONE', #750, .T. ) ;
#1040 = DIRECTION ( 'NONE',  ( -0.000000000000000000, -0.000000000000000000, -1.000000000000000000 ) ) ;
#1041 = ORIENTED_EDGE ( 'NONE', *, *, #397, .F. ) ;
#1042 = FACE_BOUND ( 'NONE', #390, .T. ) ;
#1043 = PRODUCT_DEFINITION_CONTEXT ( 'detailed design', #634, 'design' ) ;
#1044 = FACE_BOUND ( 'NONE', #500, .T. ) ;
#1045 = CARTESIAN_POINT ( 'NONE',  ( 1.854049621773915968, 0.7500000000000007772, 47.60006520002941244 ) ) ;
#1046 = ORIENTED_EDGE ( 'NONE', *, *, #358, .F. ) ;
#1047 =( NAMED_UNIT ( * ) PLANE_ANGLE_UNIT ( ) SI_UNIT ( $, .RADIAN. ) );
#1048 = CARTESIAN_POINT ( 'NONE',  ( 1.854049621773917744, -0.7499999999999976685, 47.70016696703824266 ) ) ;
#1049 = VERTEX_POINT ( 'NONE', #468 ) ;
#1050 = EDGE_CURVE ( 'NONE', #491, #756, #755, .T. ) ;
#1051 = CARTESIAN_POINT ( 'NONE',  ( 0.000000000000000000, 0.000000000000000000, -1.750000000000000000 ) ) ;
#1052 = AXIS2_PLACEMENT_3D ( 'NONE', #159, #730, #329 ) ;
#1053 = CARTESIAN_POINT ( 'NONE',  ( 1.890594247695926322, -0.6678434940571644773, 47.89285500932837891 ) ) ;
ENDSEC;
END-ISO-10303-21;
