ISO-10303-21;
HEADER;
FILE_DESCRIPTION (( 'STEP AP214' ),
    '1' );
FILE_NAME ('Planetary Gears Assembly.STEP',
    '2025-07-21T08:49:25',
    ( '' ),
    ( '' ),
    'SwSTEP 2.0',
    'SolidWorks 2025',
    '' );
FILE_SCHEMA (( 'AUTOMOTIVE_DESIGN' ));
ENDSEC;

DATA;
#1 = PROPERTY_DEFINITION ('external definition','', #278 ) ;
#2 = DIRECTION ( 'NONE',  ( -1.000000000000000000, 5.610386056954244685E-16, -6.994959526948450601E-16 ) ) ;
#3 = APPLICATION_CONTEXT ( 'automotive_design' ) ;
#4 = APPLIED_EXTERNAL_IDENTIFICATION_ASSIGNMENT ( 'Gear 2 Planet.STEP' , #11, #39,( #258) ) ;
#5 = APPLICATION_CONTEXT ( 'automotive_design' ) ;
#6 = PROPERTY_DEFINITION_REPRESENTATION ( #101, #114 ) ;
#7 = SHAPE_DEFINITION_REPRESENTATION ( #174, #260 ) ;
#8 = OBJECT_ROLE ('mandatory',$ ) ;
#9 = PROPERTY_DEFINITION_REPRESENTATION ( #1, #307 ) ;
#10 =( GEOMETRIC_REPRESENTATION_CONTEXT ( 3 ) GLOBAL_UNCERTAINTY_ASSIGNED_CONTEXT ( ( #190 ) ) GLOBAL_UNIT_ASSIGNED_CONTEXT ( ( #141, #264, #180 ) ) REPRESENTATION_CONTEXT ( 'NONE', 'WORKASPACE' ) );
#11 = IDENTIFICATION_ROLE ( 'external document id and location', $) ;
#12 = SHAPE_REPRESENTATION ( 'Planetary Gears Assembly', ( #182, #100, #226, #168, #17, #202, #208, #144, #207, #287 ), #10 ) ;
#13 =( REPRESENTATION_RELATIONSHIP ('NONE','NONE', #12, #170 ) REPRESENTATION_RELATIONSHIP_WITH_TRANSFORMATION ( #84 )SHAPE_REPRESENTATION_RELATIONSHIP( ) );
#14 = EXTERNAL_SOURCE (IDENTIFIER('') ) ;
#15 = PROPERTY_DEFINITION ('document property','', #63 ) ;
#16 = DIRECTION ( 'NONE',  ( -1.000000000000000000, 2.341253793637220961E-18, -2.341784435319168145E-16 ) ) ;
#17 = AXIS2_PLACEMENT_3D ( 'NONE', #146, #240, #16 ) ;
#18 = DIRECTION ( 'NONE',  ( 3.249408648951066965E-15, 0.8464722504272625958, -0.5324328401372380171 ) ) ;
#19 = DIRECTION ( 'NONE',  ( -1.000000000000000000, 2.341253793637203627E-18, -2.341784435319168145E-16 ) ) ;
#20 = CARTESIAN_POINT ( 'NONE',  ( 0.000000000000000000, 0.000000000000000000, 0.000000000000000000 ) ) ;
#21 =( REPRESENTATION_RELATIONSHIP ('NONE','NONE', #12, #114 ) REPRESENTATION_RELATIONSHIP_WITH_TRANSFORMATION ( #77 )SHAPE_REPRESENTATION_RELATIONSHIP( ) );
#22 = DOCUMENT_FILE ( 'ISO 15 ABB - 284 - 10,DE,AC,10_68_ISO 15 ABB - 284 - 10,DE,AC,10_68.STEP' , '', '', #224, '' ,$ ) ;
#23 = PROPERTY_DEFINITION_REPRESENTATION ( #262, #114 ) ;
#24 = AXIS2_PLACEMENT_3D ( 'NONE', #20, #274, #270 ) ;
#25 = PROPERTY_DEFINITION_REPRESENTATION ( #42, #281 ) ;
#26 = DOCUMENT_FILE ( 'Gear 2 Planet.STEP' , '', '', #140, '' ,$ ) ;
#27 = PRODUCT_DEFINITION_FORMATION_WITH_SPECIFIED_SOURCE ( 'Symmetric', '', #290, .NOT_KNOWN. ) ;
#28 = PRODUCT_DEFINITION_CONTEXT ( 'detailed design', #243, 'design' ) ;
#29 = DOCUMENT_TYPE ( 'geometry' ) ;
#30 = APPLIED_DOCUMENT_REFERENCE ( #63,'',( #152) ) ;
#31 = PRODUCT_RELATED_PRODUCT_CATEGORY ( 'part', '', ( #286 ) ) ;
#32 = ITEM_DEFINED_TRANSFORMATION ( 'NONE', 'NONE', #144,  #43 ) ;
#33 = APPLICATION_CONTEXT ( 'automotive_design' ) ;
#34 = PRODUCT_DEFINITION_SHAPE ( 'NONE', 'NONE',  #113 ) ;
#35 = PRODUCT_DEFINITION_CONTEXT ( 'detailed design', #3, 'design' ) ;
#36 = APPLIED_DOCUMENT_REFERENCE ( #191,'',( #113) ) ;
#37 = AXIS2_PLACEMENT_3D ( 'NONE', #222, #298, #269 ) ;
#38 = PRODUCT_DEFINITION_FORMATION_WITH_SPECIFIED_SOURCE ( 'Symmetric', '', #138, .NOT_KNOWN. ) ;
#39 = EXTERNAL_SOURCE (IDENTIFIER('') ) ;
#40 = CARTESIAN_POINT ( 'NONE',  ( 9.999999999999927169, -16.76103437570911936, 6.562600601613412188 ) ) ;
#41 = PROPERTY_DEFINITION ('document property','', #26 ) ;
#42 = PROPERTY_DEFINITION ('document property','', #155 ) ;
#43 = AXIS2_PLACEMENT_3D ( 'NONE', #267, #238, #93 ) ;
#44 = APPLIED_EXTERNAL_IDENTIFICATION_ASSIGNMENT ( 'Gear 3 sun.STEP' , #282, #112,( #278) ) ;
#45 = CARTESIAN_POINT ( 'NONE',  ( 31.75005079999995772, 14.06389602374291314, 11.23418126226154534 ) ) ;
#46 = PRODUCT_DEFINITION_SHAPE ( 'NONE', 'NONE',  #319 ) ;
#47 = PRODUCT_RELATED_PRODUCT_CATEGORY ( 'part', '', ( #135 ) ) ;
#48 = CARTESIAN_POINT ( 'NONE',  ( 31.75005079999995772, -16.76103437570911225, 6.562600601613469031 ) ) ;
#49 = PROPERTY_DEFINITION ('external definition','', #258 ) ;
#50 = DIRECTION ( 'NONE',  ( -8.972940881504122526E-17, -0.6126312214819460422, 0.7903688926479450760 ) ) ;
#51 = APPLICATION_PROTOCOL_DEFINITION ( 'draft international standard', 'automotive_design', 1998, #209 ) ;
#52 = PROPERTY_DEFINITION_REPRESENTATION ( #164, #114 ) ;
#53 = OBJECT_ROLE ('mandatory',$ ) ;
#54 = ROLE_ASSOCIATION ( #71, #273 ) ;
#55 = APPLICATION_CONTEXT ( 'automotive_design' ) ;
#56 = DIRECTION ( 'NONE',  ( 0.000000000000000000, 0.000000000000000000, 1.000000000000000000 ) ) ;
#57 = SHAPE_DEFINITION_REPRESENTATION ( #259, #281 ) ;
#58 = APPLIED_EXTERNAL_IDENTIFICATION_ASSIGNMENT ( 'Gear 2 Planet.STEP' , #148, #249,( #86) ) ;
#59 = APPLICATION_PROTOCOL_DEFINITION ( 'draft international standard', 'automotive_design', 1998, #205 ) ;
#60 = DOCUMENT_TYPE ( 'geometry' ) ;
#61 = PROPERTY_DEFINITION_REPRESENTATION ( #41, #260 ) ;
#62 = CONTEXT_DEPENDENT_SHAPE_REPRESENTATION ( #285, #68 ) ;
#63 = DOCUMENT_FILE ( 'Part 1 Ring.STEP' , '', '', #29, '' ,$ ) ;
#64 = PRODUCT_DEFINITION_SHAPE ( 'NONE', 'NONE',  #315 ) ;
#65 = IDENTIFICATION_ROLE ( 'external document id and location', $) ;
#66 = PRODUCT_DEFINITION_CONTEXT ( 'detailed design', #194, 'design' ) ;
#67 = ITEM_DEFINED_TRANSFORMATION ( 'NONE', 'NONE', #287,  #43 ) ;
#68 = PRODUCT_DEFINITION_SHAPE ( 'NONE', 'NONE',  #320 ) ;
#69 = CARTESIAN_POINT ( 'NONE',  ( 9.999999999999962697, 14.06389602374290959, 11.23418126226153291 ) ) ;
#70 = DIRECTION ( 'NONE',  ( 4.077489898110189567E-16, 0.9792776387073843791, 0.2025223600684367686 ) ) ;
#71 = OBJECT_ROLE ('mandatory',$ ) ;
#72 = PROPERTY_DEFINITION ('document property','', #278 ) ;
#73 =( LENGTH_UNIT ( ) NAMED_UNIT ( * ) SI_UNIT ( .MILLI., .METRE. ) );
#74 = OBJECT_ROLE ('mandatory',$ ) ;
#75 =( LENGTH_UNIT ( ) NAMED_UNIT ( * ) SI_UNIT ( .MILLI., .METRE. ) );
#76 =( GEOMETRIC_REPRESENTATION_CONTEXT ( 3 ) GLOBAL_UNCERTAINTY_ASSIGNED_CONTEXT ( ( #216 ) ) GLOBAL_UNIT_ASSIGNED_CONTEXT ( ( #73, #96, #115 ) ) REPRESENTATION_CONTEXT ( 'NONE', 'WORKASPACE' ) );
#77 = ITEM_DEFINED_TRANSFORMATION ( 'NONE', 'NONE', #226,  #24 ) ;
#78 = CONTEXT_DEPENDENT_SHAPE_REPRESENTATION ( #97, #64 ) ;
#79 = PROPERTY_DEFINITION ('document property','', #191 ) ;
#80 = DOCUMENT_TYPE ( 'geometry' ) ;
#81 = ITEM_DEFINED_TRANSFORMATION ( 'NONE', 'NONE', #100,  #311 ) ;
#82 =( GEOMETRIC_REPRESENTATION_CONTEXT ( 3 ) GLOBAL_UNCERTAINTY_ASSIGNED_CONTEXT ( ( #289 ) ) GLOBAL_UNIT_ASSIGNED_CONTEXT ( ( #150, #102, #181 ) ) REPRESENTATION_CONTEXT ( 'NONE', 'WORKASPACE' ) );
#83 = APPLIED_EXTERNAL_IDENTIFICATION_ASSIGNMENT ( 'ISO 15 ABB - 284 - 10,DE,AC,10_68_ISO 15 ABB - 284 - 10,DE,AC,10_68.STEP' , #218, #104,( #184) ) ;
#84 = ITEM_DEFINED_TRANSFORMATION ( 'NONE', 'NONE', #208,  #253 ) ;
#85 = PROPERTY_DEFINITION_REPRESENTATION ( #94, #170 ) ;
#86 = DOCUMENT_FILE ( 'Gear 2 Planet.STEP' , '', '', #266, '' ,$ ) ;
#87 = OBJECT_ROLE ('mandatory',$ ) ;
#88 = PROPERTY_DEFINITION ('external definition','', #22 ) ;
#89 = PRODUCT_DEFINITION_SHAPE ( 'NONE', 'NONE',  #313 ) ;
#90 = OBJECT_ROLE ('mandatory',$ ) ;
#91 = DIRECTION ( 'NONE',  ( 1.057282228879721656E-16, -0.8104830125348184700, 0.5857621414810672000 ) ) ;
#92 = PROPERTY_DEFINITION ('external definition','', #155 ) ;
#93 = DIRECTION ( 'NONE',  ( 1.000000000000000000, 0.000000000000000000, 0.000000000000000000 ) ) ;
#94 = PROPERTY_DEFINITION ('external definition','', #63 ) ;
#95 = DIRECTION ( 'NONE',  ( 1.000000000000000000, -1.881219842055134768E-15, 3.112145102227603952E-15 ) ) ;
#96 =( NAMED_UNIT ( * ) PLANE_ANGLE_UNIT ( ) SI_UNIT ( $, .RADIAN. ) );
#97 =( REPRESENTATION_RELATIONSHIP ('NONE','NONE', #12, #114 ) REPRESENTATION_RELATIONSHIP_WITH_TRANSFORMATION ( #124 )SHAPE_REPRESENTATION_RELATIONSHIP( ) );
#98 = PROPERTY_DEFINITION_REPRESENTATION ( #92, #281 ) ;
#99 = SHAPE_DEFINITION_REPRESENTATION ( #34, #114 ) ;
#100 = AXIS2_PLACEMENT_3D ( 'NONE', #175, #171, #297 ) ;
#101 = PROPERTY_DEFINITION ('document property','', #184 ) ;
#102 =( NAMED_UNIT ( * ) PLANE_ANGLE_UNIT ( ) SI_UNIT ( $, .RADIAN. ) );
#103 = PRODUCT_DEFINITION ( 'General', '', #162, #279 ) ;
#104 = EXTERNAL_SOURCE (IDENTIFIER('') ) ;
#105 = ITEM_DEFINED_TRANSFORMATION ( 'NONE', 'NONE', #17,  #24 ) ;
#106 = PRODUCT_CONTEXT ( 'NONE', #33, 'mechanical' ) ;
#107 = PRODUCT_DEFINITION_FORMATION_WITH_SPECIFIED_SOURCE ( 'Symmetric', '', #265, .NOT_KNOWN. ) ;
#108 = EXTERNAL_SOURCE (IDENTIFIER('') ) ;
#109 = CONTEXT_DEPENDENT_SHAPE_REPRESENTATION ( #13, #248 ) ;
#110 = CONTEXT_DEPENDENT_SHAPE_REPRESENTATION ( #234, #293 ) ;
#111 = CONTEXT_DEPENDENT_SHAPE_REPRESENTATION ( #189, #173 ) ;
#112 = EXTERNAL_SOURCE (IDENTIFIER('') ) ;
#113 = PRODUCT_DEFINITION ( 'General', '', #131, #160 ) ;
#114 = SHAPE_REPRESENTATION ( 'ISO 15 ABB - 284 - 10,DE,AC,10_68_ISO 15 ABB - 284 - 10,DE,AC,10_68', ( #24 ), #197 ) ;
#115 =( NAMED_UNIT ( * ) SI_UNIT ( $, .STERADIAN. ) SOLID_ANGLE_UNIT ( ) );
#116 = CARTESIAN_POINT ( 'NONE',  ( 0.000000000000000000, 0.000000000000000000, 0.000000000000000000 ) ) ;
#117 = DOCUMENT_TYPE ( 'geometry' ) ;
#118 = PROPERTY_DEFINITION ('external definition','', #191 ) ;
#119 =( GEOMETRIC_REPRESENTATION_CONTEXT ( 3 ) GLOBAL_UNCERTAINTY_ASSIGNED_CONTEXT ( ( #176 ) ) GLOBAL_UNIT_ASSIGNED_CONTEXT ( ( #199, #149, #221 ) ) REPRESENTATION_CONTEXT ( 'NONE', 'WORKASPACE' ) );
#120 = CARTESIAN_POINT ( 'NONE',  ( 9.999999999999964473, 2.697138351966084535, -17.79678186387510763 ) ) ;
#121 = CARTESIAN_POINT ( 'NONE',  ( 0.000000000000000000, 0.000000000000000000, 0.000000000000000000 ) ) ;
#122 = OBJECT_ROLE ('mandatory',$ ) ;
#123 =( NAMED_UNIT ( * ) SI_UNIT ( $, .STERADIAN. ) SOLID_ANGLE_UNIT ( ) );
#124 = ITEM_DEFINED_TRANSFORMATION ( 'NONE', 'NONE', #168,  #24 ) ;
#125 = PRODUCT_CONTEXT ( 'NONE', #271, 'mechanical' ) ;
#126 = DIRECTION ( 'NONE',  ( 0.000000000000000000, 0.000000000000000000, 1.000000000000000000 ) ) ;
#127 = CONTEXT_DEPENDENT_SHAPE_REPRESENTATION ( #21, #188 ) ;
#128 = EXTERNAL_SOURCE (IDENTIFIER('') ) ;
#129 = PRODUCT_CONTEXT ( 'NONE', #55, 'mechanical' ) ;
#130 = APPLIED_DOCUMENT_REFERENCE ( #86,'',( #220) ) ;
#131 = PRODUCT_DEFINITION_FORMATION_WITH_SPECIFIED_SOURCE ( 'Symmetric', '', #142, .NOT_KNOWN. ) ;
#132 = ITEM_DEFINED_TRANSFORMATION ( 'NONE', 'NONE', #207,  #43 ) ;
#133 = ROLE_ASSOCIATION ( #122, #308 ) ;
#134 =( REPRESENTATION_RELATIONSHIP ('NONE','NONE', #12, #260 ) REPRESENTATION_RELATIONSHIP_WITH_TRANSFORMATION ( #32 )SHAPE_REPRESENTATION_RELATIONSHIP( ) );
#135 = PRODUCT ( 'Gear 3 sun', 'Gear 3 sun', '', ( #106 ) ) ;
#136 = ROLE_ASSOCIATION ( #8, #257 ) ;
#137 = APPLIED_EXTERNAL_IDENTIFICATION_ASSIGNMENT ( 'Part 1 Ring.STEP' , #229, #128,( #63) ) ;
#138 = PRODUCT ( 'Part4 Carrier', 'Part4 Carrier', '', ( #129 ) ) ;
#139 = PRODUCT_RELATED_PRODUCT_CATEGORY ( 'part', '', ( #265 ) ) ;
#140 = DOCUMENT_TYPE ( 'geometry' ) ;
#141 =( LENGTH_UNIT ( ) NAMED_UNIT ( * ) SI_UNIT ( .MILLI., .METRE. ) );
#142 = PRODUCT ( 'ISO 15 ABB - 284 - 10,DE,AC,10_68_ISO 15 ABB - 284 - 10,DE,AC,10_68', 'ISO 15 ABB - 284 - 10,DE,AC,10_68_ISO 15 ABB - 284 - 10,DE,AC,10_68', '', ( #158 ) ) ;
#143 = UNCERTAINTY_MEASURE_WITH_UNIT (LENGTH_MEASURE( 1.000000000000000082E-05 ), #75, 'distance_accuracy_value', 'NONE');
#144 = AXIS2_PLACEMENT_3D ( 'NONE', #120, #70, #2 ) ;
#145 = UNCERTAINTY_MEASURE_WITH_UNIT (LENGTH_MEASURE( 1.000000000000000082E-05 ), #179, 'distance_accuracy_value', 'NONE');
#146 = CARTESIAN_POINT ( 'NONE',  ( 31.75005079999996482, 2.697138351966086312, -17.79678186387508987 ) ) ;
#147 = DIRECTION ( 'NONE',  ( 1.000000000000000000, 0.000000000000000000, 0.000000000000000000 ) ) ;
#148 = IDENTIFICATION_ROLE ( 'external document id and location', $) ;
#149 =( NAMED_UNIT ( * ) PLANE_ANGLE_UNIT ( ) SI_UNIT ( $, .RADIAN. ) );
#150 =( LENGTH_UNIT ( ) NAMED_UNIT ( * ) SI_UNIT ( .MILLI., .METRE. ) );
#151 = SHAPE_DEFINITION_REPRESENTATION ( #195, #170 ) ;
#152 = PRODUCT_DEFINITION ( 'General', '', #27, #256 ) ;
#153 = APPLICATION_PROTOCOL_DEFINITION ( 'draft international standard', 'automotive_design', 1998, #55 ) ;
#154 = DIRECTION ( 'NONE',  ( 1.000000000000000000, 0.000000000000000000, 0.000000000000000000 ) ) ;
#155 = DOCUMENT_FILE ( 'Part4 Carrier.STEP' , '', '', #80, '' ,$ ) ;
#156 = EXTERNAL_SOURCE (IDENTIFIER('') ) ;
#157 = CARTESIAN_POINT ( 'NONE',  ( 0.000000000000000000, 0.000000000000000000, 0.000000000000000000 ) ) ;
#158 = PRODUCT_CONTEXT ( 'NONE', #305, 'mechanical' ) ;
#159 = PROPERTY_DEFINITION_REPRESENTATION ( #268, #260 ) ;
#160 = PRODUCT_DEFINITION_CONTEXT ( 'detailed design', #213, 'design' ) ;
#161 = PROPERTY_DEFINITION_REPRESENTATION ( #239, #260 ) ;
#162 = PRODUCT_DEFINITION_FORMATION_WITH_SPECIFIED_SOURCE ( 'Symmetric', '', #286, .NOT_KNOWN. ) ;
#163 = ROLE_ASSOCIATION ( #291, #36 ) ;
#164 = PROPERTY_DEFINITION ('document property','', #22 ) ;
#165 = PROPERTY_DEFINITION_REPRESENTATION ( #79, #114 ) ;
#166 = PROPERTY_DEFINITION_REPRESENTATION ( #15, #170 ) ;
#167 =( REPRESENTATION_RELATIONSHIP ('NONE','NONE', #12, #281 ) REPRESENTATION_RELATIONSHIP_WITH_TRANSFORMATION ( #81 )SHAPE_REPRESENTATION_RELATIONSHIP( ) );
#168 = AXIS2_PLACEMENT_3D ( 'NONE', #48, #50, #242 ) ;
#169 = PRODUCT_RELATED_PRODUCT_CATEGORY ( 'part', '', ( #142 ) ) ;
#170 = SHAPE_REPRESENTATION ( 'Part 1 Ring', ( #253 ), #76 ) ;
#171 = DIRECTION ( 'NONE',  ( 0.9999999999999997780, -4.222688646369198301E-18, 3.186593237715395720E-17 ) ) ;
#172 = DIRECTION ( 'NONE',  ( -1.000000000000000000, -2.072750158357259462E-16, -2.042752764029636604E-15 ) ) ;
#173 = PRODUCT_DEFINITION_SHAPE ( 'NONE', 'NONE',  #321 ) ;
#174 = PRODUCT_DEFINITION_SHAPE ( 'NONE', 'NONE',  #220 ) ;
#175 = CARTESIAN_POINT ( 'NONE',  ( 31.75005079999995772, 2.111344323171792487E-16, 2.549650505305174226E-15 ) ) ;
#176 = UNCERTAINTY_MEASURE_WITH_UNIT (LENGTH_MEASURE( 1.000000000000000082E-05 ), #199, 'distance_accuracy_value', 'NONE');
#177 = APPLIED_EXTERNAL_IDENTIFICATION_ASSIGNMENT ( 'Gear 2 Planet.STEP' , #178, #156,( #26) ) ;
#178 = IDENTIFICATION_ROLE ( 'external document id and location', $) ;
#179 =( LENGTH_UNIT ( ) NAMED_UNIT ( * ) SI_UNIT ( .MILLI., .METRE. ) );
#180 =( NAMED_UNIT ( * ) SI_UNIT ( $, .STERADIAN. ) SOLID_ANGLE_UNIT ( ) );
#181 =( NAMED_UNIT ( * ) SI_UNIT ( $, .STERADIAN. ) SOLID_ANGLE_UNIT ( ) );
#182 = AXIS2_PLACEMENT_3D ( 'NONE', #157, #245, #306 ) ;
#183 = ROLE_ASSOCIATION ( #87, #228 ) ;
#184 = DOCUMENT_FILE ( 'ISO 15 ABB - 284 - 10,DE,AC,10_68_ISO 15 ABB - 284 - 10,DE,AC,10_68.STEP' , '', '', #60, '' ,$ ) ;
#185 =( NAMED_UNIT ( * ) SI_UNIT ( $, .STERADIAN. ) SOLID_ANGLE_UNIT ( ) );
#186 = OBJECT_ROLE ('mandatory',$ ) ;
#187 = PRODUCT_DEFINITION ( 'General', '', #38, #28 ) ;
#188 = PRODUCT_DEFINITION_SHAPE ( 'NONE', 'NONE',  #314 ) ;
#189 =( REPRESENTATION_RELATIONSHIP ('NONE','NONE', #12, #260 ) REPRESENTATION_RELATIONSHIP_WITH_TRANSFORMATION ( #67 )SHAPE_REPRESENTATION_RELATIONSHIP( ) );
#190 = UNCERTAINTY_MEASURE_WITH_UNIT (LENGTH_MEASURE( 1.000000000000000082E-05 ), #141, 'distance_accuracy_value', 'NONE');
#191 = DOCUMENT_FILE ( 'ISO 15 ABB - 284 - 10,DE,AC,10_68_ISO 15 ABB - 284 - 10,DE,AC,10_68.STEP' , '', '', #277, '' ,$ ) ;
#192 = PRODUCT_DEFINITION_SHAPE ( 'NONE', 'NONE',  #103 ) ;
#193 = DIRECTION ( 'NONE',  ( 2.505423884697655830E-16, -0.3128756649486214014, -0.9497940925710992577 ) ) ;
#194 = APPLICATION_CONTEXT ( 'automotive_design' ) ;
#195 = PRODUCT_DEFINITION_SHAPE ( 'NONE', 'NONE',  #152 ) ;
#196 = DIRECTION ( 'NONE',  ( 2.341784435319168145E-16, 2.341253793637203627E-18, -1.000000000000000000 ) ) ;
#197 =( GEOMETRIC_REPRESENTATION_CONTEXT ( 3 ) GLOBAL_UNCERTAINTY_ASSIGNED_CONTEXT ( ( #145 ) ) GLOBAL_UNIT_ASSIGNED_CONTEXT ( ( #179, #225, #123 ) ) REPRESENTATION_CONTEXT ( 'NONE', 'WORKASPACE' ) );
#198 = PRODUCT_DEFINITION_FORMATION_WITH_SPECIFIED_SOURCE ( 'Symmetric', '', #135, .NOT_KNOWN. ) ;
#199 =( LENGTH_UNIT ( ) NAMED_UNIT ( * ) SI_UNIT ( .MILLI., .METRE. ) );
#200 = APPLICATION_CONTEXT ( 'automotive_design' ) ;
#201 = APPLICATION_PROTOCOL_DEFINITION ( 'draft international standard', 'automotive_design', 1998, #194 ) ;
#202 = AXIS2_PLACEMENT_3D ( 'NONE', #116, #91, #292 ) ;
#203 = APPLIED_EXTERNAL_IDENTIFICATION_ASSIGNMENT ( 'ISO 15 ABB - 284 - 10,DE,AC,10_68_ISO 15 ABB - 284 - 10,DE,AC,10_68.STEP' , #237, #14,( #191) ) ;
#204 = CARTESIAN_POINT ( 'NONE',  ( 0.000000000000000000, 0.000000000000000000, 0.000000000000000000 ) ) ;
#205 = APPLICATION_CONTEXT ( 'automotive_design' ) ;
#206 = APPLICATION_PROTOCOL_DEFINITION ( 'draft international standard', 'automotive_design', 1998, #305 ) ;
#207 = AXIS2_PLACEMENT_3D ( 'NONE', #69, #193, #288 ) ;
#208 = AXIS2_PLACEMENT_3D ( 'NONE', #217, #18, #95 ) ;
#209 = APPLICATION_CONTEXT ( 'automotive_design' ) ;
#210 = PROPERTY_DEFINITION_REPRESENTATION ( #72, #307 ) ;
#211 = PROPERTY_DEFINITION_REPRESENTATION ( #118, #114 ) ;
#212 = PROPERTY_DEFINITION_REPRESENTATION ( #241, #260 ) ;
#213 = APPLICATION_CONTEXT ( 'automotive_design' ) ;
#214 =( GEOMETRIC_REPRESENTATION_CONTEXT ( 3 ) GLOBAL_UNCERTAINTY_ASSIGNED_CONTEXT ( ( #143 ) ) GLOBAL_UNIT_ASSIGNED_CONTEXT ( ( #75, #247, #185 ) ) REPRESENTATION_CONTEXT ( 'NONE', 'WORKASPACE' ) );
#215 = PROPERTY_DEFINITION ('external definition','', #26 ) ;
#216 = UNCERTAINTY_MEASURE_WITH_UNIT (LENGTH_MEASURE( 1.000000000000000082E-05 ), #73, 'distance_accuracy_value', 'NONE');
#217 = CARTESIAN_POINT ( 'NONE',  ( 0.000000000000000000, 0.000000000000000000, 0.000000000000000000 ) ) ;
#218 = IDENTIFICATION_ROLE ( 'external document id and location', $) ;
#219 = APPLIED_EXTERNAL_IDENTIFICATION_ASSIGNMENT ( 'ISO 15 ABB - 284 - 10,DE,AC,10_68_ISO 15 ABB - 284 - 10,DE,AC,10_68.STEP' , #261, #108,( #22) ) ;
#220 = PRODUCT_DEFINITION ( 'General', '', #107, #35 ) ;
#221 =( NAMED_UNIT ( * ) SI_UNIT ( $, .STERADIAN. ) SOLID_ANGLE_UNIT ( ) );
#222 = CARTESIAN_POINT ( 'NONE',  ( 0.000000000000000000, 0.000000000000000000, 0.000000000000000000 ) ) ;
#223 = APPLICATION_PROTOCOL_DEFINITION ( 'draft international standard', 'automotive_design', 1998, #3 ) ;
#224 = DOCUMENT_TYPE ( 'geometry' ) ;
#225 =( NAMED_UNIT ( * ) PLANE_ANGLE_UNIT ( ) SI_UNIT ( $, .RADIAN. ) );
#226 = AXIS2_PLACEMENT_3D ( 'NONE', #45, #196, #19 ) ;
#227 = ROLE_ASSOCIATION ( #90, #301 ) ;
#228 = APPLIED_DOCUMENT_REFERENCE ( #22,'',( #113) ) ;
#229 = IDENTIFICATION_ROLE ( 'external document id and location', $) ;
#230 = CONTEXT_DEPENDENT_SHAPE_REPRESENTATION ( #167, #89 ) ;
#231 = PRODUCT_RELATED_PRODUCT_CATEGORY ( 'part', '', ( #290 ) ) ;
#232 = APPLIED_DOCUMENT_REFERENCE ( #26,'',( #220) ) ;
#233 = ROLE_ASSOCIATION ( #186, #30 ) ;
#234 =( REPRESENTATION_RELATIONSHIP ('NONE','NONE', #12, #114 ) REPRESENTATION_RELATIONSHIP_WITH_TRANSFORMATION ( #105 )SHAPE_REPRESENTATION_RELATIONSHIP( ) );
#235 = ROLE_ASSOCIATION ( #74, #232 ) ;
#236 = PRODUCT_DEFINITION_SHAPE ( 'NONE', 'NONE',  #263 ) ;
#237 = IDENTIFICATION_ROLE ( 'external document id and location', $) ;
#238 = DIRECTION ( 'NONE',  ( 0.000000000000000000, 0.000000000000000000, 1.000000000000000000 ) ) ;
#239 = PROPERTY_DEFINITION ('document property','', #258 ) ;
#240 = DIRECTION ( 'NONE',  ( 1.195293047359027733E-16, 0.8650000824652924747, -0.5017717183491290367 ) ) ;
#241 = PROPERTY_DEFINITION ('external definition','', #86 ) ;
#242 = DIRECTION ( 'NONE',  ( 1.000000000000000000, -2.341253793637197464E-18, 1.117137636171815184E-16 ) ) ;
#243 = APPLICATION_CONTEXT ( 'automotive_design' ) ;
#244 = APPLICATION_PROTOCOL_DEFINITION ( 'draft international standard', 'automotive_design', 1998, #243 ) ;
#245 = DIRECTION ( 'NONE',  ( 0.000000000000000000, 0.000000000000000000, 1.000000000000000000 ) ) ;
#246 = APPLICATION_PROTOCOL_DEFINITION ( 'draft international standard', 'automotive_design', 1998, #271 ) ;
#247 =( NAMED_UNIT ( * ) PLANE_ANGLE_UNIT ( ) SI_UNIT ( $, .RADIAN. ) );
#248 = PRODUCT_DEFINITION_SHAPE ( 'NONE', 'NONE',  #318 ) ;
#249 = EXTERNAL_SOURCE (IDENTIFIER('') ) ;
#250 = APPLICATION_PROTOCOL_DEFINITION ( 'draft international standard', 'automotive_design', 1998, #213 ) ;
#251 = SHAPE_DEFINITION_REPRESENTATION ( #192, #12 ) ;
#252 = ITEM_DEFINED_TRANSFORMATION ( 'NONE', 'NONE', #202,  #37 ) ;
#253 = AXIS2_PLACEMENT_3D ( 'NONE', #204, #126, #147 ) ;
#254 = EXTERNAL_SOURCE (IDENTIFIER('') ) ;
#255 = PROPERTY_DEFINITION_REPRESENTATION ( #49, #260 ) ;
#256 = PRODUCT_DEFINITION_CONTEXT ( 'detailed design', #5, 'design' ) ;
#257 = APPLIED_DOCUMENT_REFERENCE ( #278,'',( #263) ) ;
#258 = DOCUMENT_FILE ( 'Gear 2 Planet.STEP' , '', '', #309, '' ,$ ) ;
#259 = PRODUCT_DEFINITION_SHAPE ( 'NONE', 'NONE',  #187 ) ;
#260 = SHAPE_REPRESENTATION ( 'Gear 2 Planet', ( #43 ), #119 ) ;
#261 = IDENTIFICATION_ROLE ( 'external document id and location', $) ;
#262 = PROPERTY_DEFINITION ('external definition','', #184 ) ;
#263 = PRODUCT_DEFINITION ( 'General', '', #198, #66 ) ;
#264 =( NAMED_UNIT ( * ) PLANE_ANGLE_UNIT ( ) SI_UNIT ( $, .RADIAN. ) );
#265 = PRODUCT ( 'Gear 2 Planet', 'Gear 2 Planet', '', ( #125 ) ) ;
#266 = DOCUMENT_TYPE ( 'geometry' ) ;
#267 = CARTESIAN_POINT ( 'NONE',  ( 0.000000000000000000, 0.000000000000000000, 0.000000000000000000 ) ) ;
#268 = PROPERTY_DEFINITION ('document property','', #86 ) ;
#269 = DIRECTION ( 'NONE',  ( 1.000000000000000000, 0.000000000000000000, 0.000000000000000000 ) ) ;
#270 = DIRECTION ( 'NONE',  ( 1.000000000000000000, 0.000000000000000000, 0.000000000000000000 ) ) ;
#271 = APPLICATION_CONTEXT ( 'automotive_design' ) ;
#272 = PROPERTY_DEFINITION_REPRESENTATION ( #88, #114 ) ;
#273 = APPLIED_DOCUMENT_REFERENCE ( #184,'',( #113) ) ;
#274 = DIRECTION ( 'NONE',  ( 0.000000000000000000, 0.000000000000000000, 1.000000000000000000 ) ) ;
#275 = APPLICATION_PROTOCOL_DEFINITION ( 'draft international standard', 'automotive_design', 1998, #33 ) ;
#276 = PRODUCT_CONTEXT ( 'NONE', #200, 'mechanical' ) ;
#277 = DOCUMENT_TYPE ( 'geometry' ) ;
#278 = DOCUMENT_FILE ( 'Gear 3 sun.STEP' , '', '', #117, '' ,$ ) ;
#279 = PRODUCT_DEFINITION_CONTEXT ( 'detailed design', #205, 'design' ) ;
#280 = APPLIED_EXTERNAL_IDENTIFICATION_ASSIGNMENT ( 'Part4 Carrier.STEP' , #65, #254,( #155) ) ;
#281 = SHAPE_REPRESENTATION ( 'Part4 Carrier', ( #311 ), #214 ) ;
#282 = IDENTIFICATION_ROLE ( 'external document id and location', $) ;
#283 = CONTEXT_DEPENDENT_SHAPE_REPRESENTATION ( #299, #296 ) ;
#284 = ROLE_ASSOCIATION ( #53, #130 ) ;
#285 =( REPRESENTATION_RELATIONSHIP ('NONE','NONE', #12, #260 ) REPRESENTATION_RELATIONSHIP_WITH_TRANSFORMATION ( #132 )SHAPE_REPRESENTATION_RELATIONSHIP( ) );
#286 = PRODUCT ( 'Planetary Gears Assembly', 'Planetary Gears Assembly', '', ( #276 ) ) ;
#287 = AXIS2_PLACEMENT_3D ( 'NONE', #40, #294, #172 ) ;
#288 = DIRECTION ( 'NONE',  ( -1.000000000000000000, -1.717322376786671080E-16, -2.072149658039750976E-16 ) ) ;
#289 = UNCERTAINTY_MEASURE_WITH_UNIT (LENGTH_MEASURE( 1.000000000000000082E-05 ), #150, 'distance_accuracy_value', 'NONE');
#290 = PRODUCT ( 'Part 1 Ring', 'Part 1 Ring', '', ( #303 ) ) ;
#291 = OBJECT_ROLE ('mandatory',$ ) ;
#292 = DIRECTION ( 'NONE',  ( 1.000000000000000000, 2.090737298689307923E-16, 1.087855957658364521E-16 ) ) ;
#293 = PRODUCT_DEFINITION_SHAPE ( 'NONE', 'NONE',  #316 ) ;
#294 = DIRECTION ( 'NONE',  ( 1.819690484534284234E-15, -0.5503036231574690573, -0.8349646234061430805 ) ) ;
#295 = PROPERTY_DEFINITION_REPRESENTATION ( #215, #260 ) ;
#296 = PRODUCT_DEFINITION_SHAPE ( 'NONE', 'NONE',  #317 ) ;
#297 = DIRECTION ( 'NONE',  ( -2.813300938535614855E-17, 0.3645889223118592426, 0.9311685764282839894 ) ) ;
#298 = DIRECTION ( 'NONE',  ( 0.000000000000000000, 0.000000000000000000, 1.000000000000000000 ) ) ;
#299 =( REPRESENTATION_RELATIONSHIP ('NONE','NONE', #12, #307 ) REPRESENTATION_RELATIONSHIP_WITH_TRANSFORMATION ( #252 )SHAPE_REPRESENTATION_RELATIONSHIP( ) );
#300 = SHAPE_DEFINITION_REPRESENTATION ( #236, #307 ) ;
#301 = APPLIED_DOCUMENT_REFERENCE ( #155,'',( #187) ) ;
#302 = PRODUCT_RELATED_PRODUCT_CATEGORY ( 'part', '', ( #138 ) ) ;
#303 = PRODUCT_CONTEXT ( 'NONE', #209, 'mechanical' ) ;
#304 = APPLICATION_PROTOCOL_DEFINITION ( 'draft international standard', 'automotive_design', 1998, #5 ) ;
#305 = APPLICATION_CONTEXT ( 'automotive_design' ) ;
#306 = DIRECTION ( 'NONE',  ( 1.000000000000000000, 0.000000000000000000, 0.000000000000000000 ) ) ;
#307 = SHAPE_REPRESENTATION ( 'Gear 3 sun', ( #37 ), #82 ) ;
#308 = APPLIED_DOCUMENT_REFERENCE ( #258,'',( #220) ) ;
#309 = DOCUMENT_TYPE ( 'geometry' ) ;
#310 = CONTEXT_DEPENDENT_SHAPE_REPRESENTATION ( #134, #46 ) ;
#311 = AXIS2_PLACEMENT_3D ( 'NONE', #121, #56, #154 ) ;
#312 = APPLICATION_PROTOCOL_DEFINITION ( 'draft international standard', 'automotive_design', 1998, #200 ) ;
#313 = NEXT_ASSEMBLY_USAGE_OCCURRENCE ( 'NAUO1', ' ', ' ', #103, #187, $ ) ;
#314 = NEXT_ASSEMBLY_USAGE_OCCURRENCE ( 'NAUO2', ' ', ' ', #103, #113, $ ) ;
#315 = NEXT_ASSEMBLY_USAGE_OCCURRENCE ( 'NAUO3', ' ', ' ', #103, #113, $ ) ;
#316 = NEXT_ASSEMBLY_USAGE_OCCURRENCE ( 'NAUO4', ' ', ' ', #103, #113, $ ) ;
#317 = NEXT_ASSEMBLY_USAGE_OCCURRENCE ( 'NAUO5', ' ', ' ', #103, #263, $ ) ;
#318 = NEXT_ASSEMBLY_USAGE_OCCURRENCE ( 'NAUO6', ' ', ' ', #103, #152, $ ) ;
#319 = NEXT_ASSEMBLY_USAGE_OCCURRENCE ( 'NAUO7', ' ', ' ', #103, #220, $ ) ;
#320 = NEXT_ASSEMBLY_USAGE_OCCURRENCE ( 'NAUO8', ' ', ' ', #103, #220, $ ) ;
#321 = NEXT_ASSEMBLY_USAGE_OCCURRENCE ( 'NAUO9', ' ', ' ', #103, #220, $ ) ;
ENDSEC;
END-ISO-10303-21;
