ISO-10303-21;
HEADER;
FILE_DESCRIPTION (( 'STEP AP214' ),
    '1' );
FILE_NAME ('Belt1-1.STEP',
    '2025-07-14T09:37:29',
    ( '' ),
    ( '' ),
    'SwSTEP 2.0',
    'SolidWorks 2025',
    '' );
FILE_SCHEMA (( 'AUTOMOTIVE_DESIGN' ));
ENDSEC;

DATA;
#1 = ORIENTED_EDGE ( 'NONE', *, *, #414, .F. ) ;
#2 = FACE_OUTER_BOUND ( 'NONE', #557, .T. ) ;
#3 = FACE_OUTER_BOUND ( 'NONE', #397, .T. ) ;
#4 = EDGE_CURVE ( 'NONE', #69, #164, #23, .T. ) ;
#5 = ORIENTED_EDGE ( 'NONE', *, *, #552, .T. ) ;
#6 = CARTESIAN_POINT ( 'NONE',  ( 0.000000000000000000, 0.000000000000000000, 0.000000000000000000 ) ) ;
#7 = DIRECTION ( 'NONE',  ( 0.2648648648648640469, 0.9642855403666059644, 0.000000000000000000 ) ) ;
#8 = AXIS2_PLACEMENT_3D ( 'NONE', #99, #992, #577 ) ;
#9 = VECTOR ( 'NONE', #984, 1000.000000000000000 ) ;
#10 = ORIENTED_EDGE ( 'NONE', *, *, #1011, .T. ) ;
#11 = CIRCLE ( 'NONE', #163, 0.01000000000000030899 ) ;
#12 = ORIENTED_EDGE ( 'NONE', *, *, #350, .F. ) ;
#13 = CARTESIAN_POINT ( 'NONE',  ( -3.836567567567555237, -13.96767605221028674, 0.09585786437625370970 ) ) ;
#14 = FACE_OUTER_BOUND ( 'NONE', #993, .T. ) ;
#15 = ORIENTED_EDGE ( 'NONE', *, *, #127, .F. ) ;
#16 = DIRECTION ( 'NONE',  ( -0.000000000000000000, -0.000000000000000000, -1.000000000000000000 ) ) ;
#17 = EDGE_CURVE ( 'NONE', #936, #374, #432, .T. ) ;
#18 = FILL_AREA_STYLE ('',( #745 ) ) ;
#19 = VERTEX_POINT ( 'NONE', #353 ) ;
#20 = DIRECTION ( 'NONE',  ( 0.000000000000000000, 0.000000000000000000, 1.000000000000000000 ) ) ;
#21 = EDGE_CURVE ( 'NONE', #1032, #963, #447, .T. ) ;
#22 = CYLINDRICAL_SURFACE ( 'NONE', #616, 0.01000000000000030899 ) ;
#23 = LINE ( 'NONE', #931, #770 ) ;
#24 = CIRCLE ( 'NONE', #400, 4.677928932188129885 ) ;
#25 = ORIENTED_EDGE ( 'NONE', *, *, #630, .T. ) ;
#26 = CARTESIAN_POINT ( 'NONE',  ( -4.032567567567592270, 14.68124735208157361, -0.6085786437626918843 ) ) ;
#27 = VECTOR ( 'NONE', #439, 999.9999999999998863 ) ;
#28 = CARTESIAN_POINT ( 'NONE',  ( -38.23824324324324664, -4.508034901213875401, -0.09585786437625729017 ) ) ;
#29 = ADVANCED_FACE ( 'NONE', ( #917 ), #425, .T. ) ;
#30 = VERTEX_POINT ( 'NONE', #194 ) ;
#31 = PRODUCT_DEFINITION_SHAPE ( 'NONE', 'NONE',  #743 ) ;
#32 = EDGE_LOOP ( 'NONE', ( #234, #612, #913, #659 ) ) ;
#33 = DIRECTION ( 'NONE',  ( 0.2648648648648640469, 0.9642855403666059644, 0.000000000000000000 ) ) ;
#34 = DIRECTION ( 'NONE',  ( -1.000000000000000000, 0.000000000000000000, 0.000000000000000000 ) ) ;
#35 = CYLINDRICAL_SURFACE ( 'NONE', #1019, 4.674999999999998934 ) ;
#36 = EDGE_CURVE ( 'NONE', #672, #436, #176, .T. ) ;
#37 = ORIENTED_EDGE ( 'NONE', *, *, #701, .T. ) ;
#38 = CARTESIAN_POINT ( 'NONE',  ( -3.834694690147115281, -13.96085752376435352, 0.1029289321881188685 ) ) ;
#39 = CYLINDRICAL_SURFACE ( 'NONE', #717, 0.01000000000000030899 ) ;
#40 = ORIENTED_EDGE ( 'NONE', *, *, #832, .T. ) ;
#41 = AXIS2_PLACEMENT_3D ( 'NONE', #465, #242, #801 ) ;
#42 = ORIENTED_EDGE ( 'NONE', *, *, #777, .F. ) ;
#43 = CARTESIAN_POINT ( 'NONE',  ( -4.032567567567566513, -14.68124735208157716, -0.6085786437626921064 ) ) ;
#44 = AXIS2_PLACEMENT_3D ( 'NONE', #254, #978, #7 ) ;
#45 = ADVANCED_FACE ( 'NONE', ( #189 ), #35, .F. ) ;
#46 = VECTOR ( 'NONE', #705, 999.9999999999998863 ) ;
#47 = CARTESIAN_POINT ( 'NONE',  ( -37.00000000000001421, 3.469446951953614189E-15, -0.09585786437625573586 ) ) ;
#48 = LINE ( 'NONE', #125, #215 ) ;
#49 = DIRECTION ( 'NONE',  ( -0.9642855403666057423, 0.2648648648648649906, 9.813077866773399118E-18 ) ) ;
#50 = EDGE_CURVE ( 'NONE', #30, #644, #112, .T. ) ;
#51 = ORIENTED_EDGE ( 'NONE', *, *, #478, .F. ) ;
#52 = FACE_OUTER_BOUND ( 'NONE', #914, .T. ) ;
#53 = ORIENTED_EDGE ( 'NONE', *, *, #504, .T. ) ;
#54 = CYLINDRICAL_SURFACE ( 'NONE', #840, 4.674999999999998934 ) ;
#55 = PRESENTATION_LAYER_ASSIGNMENT (  '', '', ( #735 ) ) ;
#56 = CARTESIAN_POINT ( 'NONE',  ( -37.00000000000001421, 3.469446951953614189E-15, 0.09585786437625311296 ) ) ;
#57 = AXIS2_PLACEMENT_3D ( 'NONE', #683, #765, #202 ) ;
#58 = CARTESIAN_POINT ( 'NONE',  ( -38.24089189189189852, -4.517677756617541895, 0.09585786437625311296 ) ) ;
#59 = ADVANCED_FACE ( 'NONE', ( #281 ), #927, .T. ) ;
#60 = VERTEX_POINT ( 'NONE', #647 ) ;
#61 = DIRECTION ( 'NONE',  ( 0.9642855403666057423, -0.2648648648648649906, 0.000000000000000000 ) ) ;
#62 = CARTESIAN_POINT ( 'NONE',  ( 0.000000000000000000, 0.000000000000000000, -0.6085786437626877765 ) ) ;
#63 = CARTESIAN_POINT ( 'NONE',  ( -38.41040540540541315, -5.134820502452174473, -0.6085786437626915513 ) ) ;
#64 = ADVANCED_FACE ( 'NONE', ( #3 ), #971, .T. ) ;
#65 = ORIENTED_EDGE ( 'NONE', *, *, #534, .F. ) ;
#66 = CARTESIAN_POINT ( 'NONE',  ( 0.000000000000000000, 0.000000000000000000, 0.09585786437626124534 ) ) ;
#67 = DIRECTION ( 'NONE',  ( -0.1872877420440032803, -0.6818528445933567106, -0.7071067811865522357 ) ) ;
#68 = CARTESIAN_POINT ( 'NONE',  ( -3.987352306876705832, 14.51663351358557641, -0.6792893218813467193 ) ) ;
#69 = VERTEX_POINT ( 'NONE', #881 ) ;
#70 = CARTESIAN_POINT ( 'NONE',  ( -38.43689189189190358, -5.231249056488834981, 0.6085786437626874434 ) ) ;
#71 = DIRECTION ( 'NONE',  ( 1.000000000000000000, 0.000000000000000000, 0.000000000000000000 ) ) ;
#72 = EDGE_CURVE ( 'NONE', #30, #878, #91, .T. ) ;
#73 = DIRECTION ( 'NONE',  ( -1.000000000000000000, 5.329070518200749816E-15, 0.000000000000000000 ) ) ;
#74 = VECTOR ( 'NONE', #67, 1000.000000000000000 ) ;
#75 = AXIS2_PLACEMENT_3D ( 'NONE', #536, #456, #929 ) ;
#76 = ORIENTED_EDGE ( 'NONE', *, *, #191, .F. ) ;
#77 = DIRECTION ( 'NONE',  ( -0.9642855403665987479, -0.2648648648648905257, 1.674290620901545878E-13 ) ) ;
#78 = CARTESIAN_POINT ( 'NONE',  ( -38.23901901447147367, 4.510859228171612223, -0.1029289321881214775 ) ) ;
#79 = ADVANCED_FACE ( 'NONE', ( #307 ), #140, .T. ) ;
#80 = CARTESIAN_POINT ( 'NONE',  ( -37.00000000000001421, 3.469446951953614189E-15, 0.09585786437625527789 ) ) ;
#81 = VERTEX_POINT ( 'NONE', #1042 ) ;
#82 = DIRECTION ( 'NONE',  ( -0.2648648648648943005, -0.9642855403665976377, 0.000000000000000000 ) ) ;
#83 = ORIENTED_EDGE ( 'NONE', *, *, #986, .T. ) ;
#84 = CYLINDRICAL_SURFACE ( 'NONE', #282, 14.47500000000000142 ) ;
#85 = DIRECTION ( 'NONE',  ( -0.9642855403666057423, 0.2648648648648649906, -1.962615573354758710E-17 ) ) ;
#86 = ORIENTED_EDGE ( 'NONE', *, *, #488, .T. ) ;
#87 =( NAMED_UNIT ( * ) SI_UNIT ( $, .STERADIAN. ) SOLID_ANGLE_UNIT ( ) );
#88 = ORIENTED_EDGE ( 'NONE', *, *, #448, .F. ) ;
#89 = DIRECTION ( 'NONE',  ( 0.2648648648648640469, -0.9642855403666059644, 0.000000000000000000 ) ) ;
#90 = DIRECTION ( 'NONE',  ( 0.1872877420440056118, -0.6818528445933658144, -0.7071067811865427988 ) ) ;
#91 = CIRCLE ( 'NONE', #802, 14.47792893218813681 ) ;
#92 = AXIS2_PLACEMENT_3D ( 'NONE', #653, #104, #183 ) ;
#93 = CIRCLE ( 'NONE', #922, 4.674999999999998934 ) ;
#94 = VERTEX_POINT ( 'NONE', #706 ) ;
#95 = EDGE_CURVE ( 'NONE', #133, #120, #484, .T. ) ;
#96 = TOROIDAL_SURFACE ( 'NONE', #437, 15.12500000000000000, 0.1000000000000000056 ) ;
#97 = ORIENTED_EDGE ( 'NONE', *, *, #253, .F. ) ;
#98 = DIRECTION ( 'NONE',  ( 1.000000000000000000, 0.000000000000000000, 0.000000000000000000 ) ) ;
#99 = CARTESIAN_POINT ( 'NONE',  ( -37.00000000000001421, 3.469446951953614189E-15, 0.8499999999999999778 ) ) ;
#100 = VERTEX_POINT ( 'NONE', #545 ) ;
#101 = ADVANCED_FACE ( 'NONE', ( #626 ), #1035, .F. ) ;
#102 = EDGE_LOOP ( 'NONE', ( #508, #538, #288, #664 ) ) ;
#103 = DIRECTION ( 'NONE',  ( 1.000000000000000000, 0.000000000000000000, 0.000000000000000000 ) ) ;
#104 = DIRECTION ( 'NONE',  ( -0.9642855403666057423, 0.2648648648648649351, -1.962615573354758093E-17 ) ) ;
#105 = ORIENTED_EDGE ( 'NONE', *, *, #1043, .F. ) ;
#106 = ORIENTED_EDGE ( 'NONE', *, *, #153, .T. ) ;
#107 = CARTESIAN_POINT ( 'NONE',  ( -38.23901901447146656, 4.510859228171611335, 0.1029289321881228791 ) ) ;
#108 = DIRECTION ( 'NONE',  ( 0.000000000000000000, 0.000000000000000000, -1.000000000000000000 ) ) ;
#109 = EDGE_CURVE ( 'NONE', #81, #94, #615, .T. ) ;
#110 = CIRCLE ( 'NONE', #918, 5.424999999999998934 ) ;
#111 = AXIS2_PLACEMENT_3D ( 'NONE', #916, #1001, #679 ) ;
#112 = LINE ( 'NONE', #362, #314 ) ;
#113 = VECTOR ( 'NONE', #231, 1000.000000000000000 ) ;
#114 = TOROIDAL_SURFACE ( 'NONE', #806, 5.324999999999996625, 0.1000000000000000056 ) ;
#115 = ORIENTED_EDGE ( 'NONE', *, *, #1029, .F. ) ;
#116 = CARTESIAN_POINT ( 'NONE',  ( -3.834694690147151697, 13.96085752376434819, 0.1029289321881203811 ) ) ;
#117 = AXIS2_PLACEMENT_3D ( 'NONE', #780, #475, #61 ) ;
#118 = EDGE_CURVE ( 'NONE', #983, #60, #110, .T. ) ;
#119 = EDGE_LOOP ( 'NONE', ( #654, #958, #250, #297 ) ) ;
#120 = VERTEX_POINT ( 'NONE', #785 ) ;
#121 = CARTESIAN_POINT ( 'NONE',  ( 0.000000000000000000, 0.000000000000000000, 0.6085786437626891088 ) ) ;
#122 = CARTESIAN_POINT ( 'NONE',  ( -41.67792893218814498, 0.000000000000000000, 0.1029289321881191877 ) ) ;
#123 = DIRECTION ( 'NONE',  ( 0.000000000000000000, -0.7198443579766490297, 0.6941355057113747229 ) ) ;
#124 = ORIENTED_EDGE ( 'NONE', *, *, #381, .T. ) ;
#125 = CARTESIAN_POINT ( 'NONE',  ( -3.833918918918942875, 13.95803319680661403, -0.09999999999998933353 ) ) ;
#126 =( LENGTH_UNIT ( ) NAMED_UNIT ( * ) SI_UNIT ( .MILLI., .METRE. ) );
#127 = EDGE_CURVE ( 'NONE', #1032, #936, #263, .T. ) ;
#128 = ORIENTED_EDGE ( 'NONE', *, *, #1005, .T. ) ;
#129 = PLANE ( 'NONE',  #75 ) ;
#130 = CIRCLE ( 'NONE', #178, 14.47500000000000142 ) ;
#131 = CARTESIAN_POINT ( 'NONE',  ( 0.000000000000000000, 0.000000000000000000, -0.6085786437626877765 ) ) ;
#132 = AXIS2_PLACEMENT_3D ( 'NONE', #863, #1028, #874 ) ;
#133 = VERTEX_POINT ( 'NONE', #870 ) ;
#134 = DIRECTION ( 'NONE',  ( 0.000000000000000000, 0.000000000000000000, 1.000000000000000000 ) ) ;
#135 = DIRECTION ( 'NONE',  ( 0.000000000000000000, 0.000000000000000000, 1.000000000000000000 ) ) ;
#136 = VERTEX_POINT ( 'NONE', #324 ) ;
#137 = PLANE ( 'NONE',  #249 ) ;
#138 = DIRECTION ( 'NONE',  ( 0.000000000000000000, 0.000000000000000000, 1.000000000000000000 ) ) ;
#139 = ADVANCED_FACE ( 'NONE', ( #145 ), #399, .T. ) ;
#140 = CYLINDRICAL_SURFACE ( 'NONE', #41, 15.22499999999999964 ) ;
#141 = EDGE_LOOP ( 'NONE', ( #325, #260, #364, #267 ) ) ;
#142 = FACE_OUTER_BOUND ( 'NONE', #660, .T. ) ;
#143 =( GEOMETRIC_REPRESENTATION_CONTEXT ( 3 ) GLOBAL_UNCERTAINTY_ASSIGNED_CONTEXT ( ( #446 ) ) GLOBAL_UNIT_ASSIGNED_CONTEXT ( ( #126, #458, #523 ) ) REPRESENTATION_CONTEXT ( 'NONE', 'WORKASPACE' ) );
#144 = DIRECTION ( 'NONE',  ( 0.000000000000000000, 0.000000000000000000, 1.000000000000000000 ) ) ;
#145 = FACE_OUTER_BOUND ( 'NONE', #32, .T. ) ;
#146 = AXIS2_PLACEMENT_3D ( 'NONE', #575, #77, #499 ) ;
#147 = EDGE_CURVE ( 'NONE', #807, #797, #809, .T. ) ;
#148 = ORIENTED_EDGE ( 'NONE', *, *, #504, .F. ) ;
#149 = DIRECTION ( 'NONE',  ( -0.2648648648649528092, 0.9642855403665815395, 0.000000000000000000 ) ) ;
#150 = DIRECTION ( 'NONE',  ( 0.000000000000000000, 0.000000000000000000, 1.000000000000000000 ) ) ;
#151 = DIRECTION ( 'NONE',  ( 0.000000000000000000, 0.000000000000000000, 1.000000000000000000 ) ) ;
#152 = ORIENTED_EDGE ( 'NONE', *, *, #558, .F. ) ;
#153 = EDGE_CURVE ( 'NONE', #94, #374, #472, .T. ) ;
#154 = LINE ( 'NONE', #298, #386 ) ;
#155 = DIRECTION ( 'NONE',  ( -0.000000000000000000, -0.000000000000000000, -1.000000000000000000 ) ) ;
#156 = LINE ( 'NONE', #1031, #871 ) ;
#157 = VERTEX_POINT ( 'NONE', #711 ) ;
#158 = EDGE_CURVE ( 'NONE', #1039, #503, #156, .T. ) ;
#159 = FACE_OUTER_BOUND ( 'NONE', #693, .T. ) ;
#160 = CARTESIAN_POINT ( 'NONE',  ( -3.833918918918906460, -13.95803319680662113, 0.09999999999998933353 ) ) ;
#161 = VECTOR ( 'NONE', #49, 999.9999999999998863 ) ;
#162 = CIRCLE ( 'NONE', #756, 0.009999999999999242134 ) ;
#163 = AXIS2_PLACEMENT_3D ( 'NONE', #554, #384, #149 ) ;
#164 = VERTEX_POINT ( 'NONE', #642 ) ;
#165 = DIRECTION ( 'NONE',  ( 0.000000000000000000, 0.000000000000000000, 1.000000000000000000 ) ) ;
#166 = DIRECTION ( 'NONE',  ( -0.000000000000000000, -0.000000000000000000, -1.000000000000000000 ) ) ;
#167 = EDGE_LOOP ( 'NONE', ( #974, #449, #340, #53 ) ) ;
#168 =( LENGTH_UNIT ( ) NAMED_UNIT ( * ) SI_UNIT ( .MILLI., .METRE. ) );
#169 = LINE ( 'NONE', #567, #584 ) ;
#170 = FACE_OUTER_BOUND ( 'NONE', #892, .T. ) ;
#171 = EDGE_CURVE ( 'NONE', #963, #100, #311, .T. ) ;
#172 = EDGE_LOOP ( 'NONE', ( #928, #520, #304, #708 ) ) ;
#173 = LINE ( 'NONE', #645, #739 ) ;
#174 = FACE_OUTER_BOUND ( 'NONE', #639, .T. ) ;
#175 = DIRECTION ( 'NONE',  ( 0.9642855403665694380, -0.2648648648649971071, 1.199969205919066394E-13 ) ) ;
#176 = CIRCLE ( 'NONE', #514, 0.1000000000000003247 ) ;
#177 = AXIS2_PLACEMENT_3D ( 'NONE', #380, #771, #606 ) ;
#178 = AXIS2_PLACEMENT_3D ( 'NONE', #492, #261, #98 ) ;
#179 = ORIENTED_EDGE ( 'NONE', *, *, #578, .T. ) ;
#180 = DIRECTION ( 'NONE',  ( -0.9642855403666057423, 0.2648648648648649351, -1.962615573354758093E-17 ) ) ;
#181 = CIRCLE ( 'NONE', #991, 4.677928932188129885 ) ;
#182 = CARTESIAN_POINT ( 'NONE',  ( -4.032567567567555855, -14.68124735208158071, -0.6085786437626877765 ) ) ;
#183 = DIRECTION ( 'NONE',  ( -0.2648648648648640469, -0.9642855403666059644, 0.000000000000000000 ) ) ;
#184 = DIRECTION ( 'NONE',  ( -0.9642855403666070746, -0.2648648648648604942, 1.216602442436783411E-14 ) ) ;
#185 = EDGE_CURVE ( 'NONE', #718, #609, #631, .T. ) ;
#186 = VERTEX_POINT ( 'NONE', #68 ) ;
#187 = CARTESIAN_POINT ( 'NONE',  ( -38.43689189189190358, -5.231249056488834981, -0.8499999999999999778 ) ) ;
#188 = DIRECTION ( 'NONE',  ( -0.9642855403666057423, -0.2648648648648648241, -0.000000000000000000 ) ) ;
#189 = FACE_OUTER_BOUND ( 'NONE', #368, .T. ) ;
#190 = ORIENTED_EDGE ( 'NONE', *, *, #930, .T. ) ;
#191 = EDGE_CURVE ( 'NONE', #255, #848, #396, .T. ) ;
#192 = CARTESIAN_POINT ( 'NONE',  ( -3.987352306876680075, -14.51663351358557996, -0.6792893218813467193 ) ) ;
#193 = CONICAL_SURFACE ( 'NONE', #382, 4.674999999999998934, 0.7853981633974415066 ) ;
#194 = CARTESIAN_POINT ( 'NONE',  ( -3.834694690147115281, -13.96085752376435352, -0.1029289321881234898 ) ) ;
#195 = CIRCLE ( 'NONE', #820, 5.254289321881350006 ) ;
#196 = CIRCLE ( 'NONE', #320, 0.1000000000000005607 ) ;
#197 = VERTEX_POINT ( 'NONE', #961 ) ;
#198 = FACE_OUTER_BOUND ( 'NONE', #512, .T. ) ;
#199 = DIRECTION ( 'NONE',  ( 0.000000000000000000, 0.000000000000000000, 1.000000000000000000 ) ) ;
#200 = CARTESIAN_POINT ( 'NONE',  ( -4.032567567567566513, -14.68124735208157716, 0.8499999999999999778 ) ) ;
#201 = ORIENTED_EDGE ( 'NONE', *, *, #896, .F. ) ;
#202 = DIRECTION ( 'NONE',  ( 1.000000000000000000, 0.000000000000000000, 0.000000000000000000 ) ) ;
#203 = EDGE_CURVE ( 'NONE', #205, #797, #264, .T. ) ;
#204 = EDGE_LOOP ( 'NONE', ( #421, #775, #894, #243 ) ) ;
#205 = VERTEX_POINT ( 'NONE', #28 ) ;
#206 = DIRECTION ( 'NONE',  ( -0.1872877420440031970, 0.6818528445933568216, -0.7071067811865522357 ) ) ;
#207 = LINE ( 'NONE', #766, #564 ) ;
#208 = EDGE_CURVE ( 'NONE', #100, #205, #357, .T. ) ;
#209 = AXIS2_PLACEMENT_3D ( 'NONE', #966, #551, #329 ) ;
#210 = EDGE_LOOP ( 'NONE', ( #521, #994, #790, #152 ) ) ;
#211 = DIRECTION ( 'NONE',  ( 0.000000000000000000, 0.000000000000000000, 1.000000000000000000 ) ) ;
#212 = AXIS2_PLACEMENT_3D ( 'NONE', #537, #861, #34 ) ;
#213 = VECTOR ( 'NONE', #831, 1000.000000000000114 ) ;
#214 = FACE_OUTER_BOUND ( 'NONE', #675, .T. ) ;
#215 = VECTOR ( 'NONE', #206, 1000.000000000000114 ) ;
#216 = ORIENTED_EDGE ( 'NONE', *, *, #158, .F. ) ;
#217 = CARTESIAN_POINT ( 'NONE',  ( -38.23901901447145946, -4.510859228171607782, 0.1029289321881188685 ) ) ;
#218 = EDGE_CURVE ( 'NONE', #878, #526, #418, .T. ) ;
#219 = DIRECTION ( 'NONE',  ( 1.000000000000000000, 0.000000000000000000, 0.000000000000000000 ) ) ;
#220 = APPLICATION_CONTEXT ( 'automotive_design' ) ;
#221 = ORIENTED_EDGE ( 'NONE', *, *, #395, .T. ) ;
#222 = CARTESIAN_POINT ( 'NONE',  ( -38.39167663120102247, 5.066635217992845774, 0.6792893218813434997 ) ) ;
#223 = DIRECTION ( 'NONE',  ( -0.000000000000000000, -0.000000000000000000, -1.000000000000000000 ) ) ;
#224 = ADVANCED_FACE ( 'NONE', ( #740 ), #837, .T. ) ;
#225 = CARTESIAN_POINT ( 'NONE',  ( -37.00000000000001421, 3.469446951953614189E-15, 0.6085786437626887757 ) ) ;
#226 = VERTEX_POINT ( 'NONE', #813 ) ;
#227 = DIRECTION ( 'NONE',  ( 1.000000000000000000, 7.421276902570035990E-16, 0.000000000000000000 ) ) ;
#228 = AXIS2_PLACEMENT_3D ( 'NONE', #823, #897, #428 ) ;
#229 = DIRECTION ( 'NONE',  ( 1.000000000000000000, 1.776356839400250465E-15, 0.000000000000000000 ) ) ;
#230 = AXIS2_PLACEMENT_3D ( 'NONE', #310, #487, #698 ) ;
#231 = DIRECTION ( 'NONE',  ( 0.000000000000000000, 0.000000000000000000, -1.000000000000000000 ) ) ;
#232 = CIRCLE ( 'NONE', #789, 0.1000000000000000472 ) ;
#233 = EDGE_CURVE ( 'NONE', #983, #541, #972, .T. ) ;
#234 = ORIENTED_EDGE ( 'NONE', *, *, #890, .F. ) ;
#235 = DIRECTION ( 'NONE',  ( 0.2648648648648648241, -0.9642855403666058534, 0.000000000000000000 ) ) ;
#236 = DIRECTION ( 'NONE',  ( -0.2648648648648905257, 0.9642855403665987479, 0.000000000000000000 ) ) ;
#237 = DIRECTION ( 'NONE',  ( 0.7071067811865427988, 0.000000000000000000, -0.7071067811865522357 ) ) ;
#238 = ADVANCED_FACE ( 'NONE', ( #14 ), #262, .T. ) ;
#239 = EDGE_LOOP ( 'NONE', ( #942, #292, #945, #10 ) ) ;
#240 = DIRECTION ( 'NONE',  ( 7.421276902572307909E-16, -1.000000000000000000, 3.073993543167815164E-16 ) ) ;
#241 = FACE_OUTER_BOUND ( 'NONE', #172, .T. ) ;
#242 = DIRECTION ( 'NONE',  ( -0.000000000000000000, -0.000000000000000000, -1.000000000000000000 ) ) ;
#243 = ORIENTED_EDGE ( 'NONE', *, *, #291, .T. ) ;
#244 = CARTESIAN_POINT ( 'NONE',  ( -38.23824324324326085, 4.508034901213882506, -0.09999999999998933353 ) ) ;
#245 = COLOUR_RGB ( '',0.7921568627450980005, 0.8196078431372548767, 0.9333333333333333481 ) ;
#246 = FACE_OUTER_BOUND ( 'NONE', #726, .T. ) ;
#247 = AXIS2_PLACEMENT_3D ( 'NONE', #252, #572, #509 ) ;
#248 = CIRCLE ( 'NONE', #700, 5.424999999999998934 ) ;
#249 = AXIS2_PLACEMENT_3D ( 'NONE', #394, #235, #463 ) ;
#250 = ORIENTED_EDGE ( 'NONE', *, *, #529, .F. ) ;
#251 = ORIENTED_EDGE ( 'NONE', *, *, #638, .T. ) ;
#252 = CARTESIAN_POINT ( 'NONE',  ( -3.836567567567591652, 13.96767605221028141, 0.09585786437625497258 ) ) ;
#253 = EDGE_CURVE ( 'NONE', #1003, #609, #566, .T. ) ;
#254 = CARTESIAN_POINT ( 'NONE',  ( -4.006081081081069861, -14.58481879804491932, 0.6085786437626881096 ) ) ;
#255 = VERTEX_POINT ( 'NONE', #342 ) ;
#256 = ORIENTED_EDGE ( 'NONE', *, *, #607, .F. ) ;
#257 = DIRECTION ( 'NONE',  ( 0.9642855403665977487, 0.2648648648648943005, 4.916857827757496333E-14 ) ) ;
#258 = ADVANCED_FACE ( 'NONE', ( #901 ), #193, .F. ) ;
#259 = FACE_OUTER_BOUND ( 'NONE', #406, .T. ) ;
#260 = ORIENTED_EDGE ( 'NONE', *, *, #473, .F. ) ;
#261 = DIRECTION ( 'NONE',  ( 0.000000000000000000, 0.000000000000000000, 1.000000000000000000 ) ) ;
#262 = CYLINDRICAL_SURFACE ( 'NONE', #92, 0.1000000000000005607 ) ;
#263 = CIRCLE ( 'NONE', #599, 0.01000000000000030899 ) ;
#264 = CIRCLE ( 'NONE', #786, 4.674999999999998934 ) ;
#265 = ADVANCED_FACE ( 'NONE', ( #674 ), #271, .T. ) ;
#266 = VECTOR ( 'NONE', #629, 1000.000000000000114 ) ;
#267 = ORIENTED_EDGE ( 'NONE', *, *, #846, .F. ) ;
#268 = VECTOR ( 'NONE', #1040, 1000.000000000000000 ) ;
#269 = ORIENTED_EDGE ( 'NONE', *, *, #814, .T. ) ;
#270 = CARTESIAN_POINT ( 'NONE',  ( -42.32500000000000995, -4.669079520376871810E-17, -0.6085786437626893308 ) ) ;
#271 = PLANE ( 'NONE',  #754 ) ;
#272 = DIRECTION ( 'NONE',  ( 0.2648648648648560533, -0.9642855403666081848, 0.000000000000000000 ) ) ;
#273 = ADVANCED_FACE ( 'NONE', ( #246 ), #434, .F. ) ;
#274 = EDGE_LOOP ( 'NONE', ( #990, #622, #37, #712 ) ) ;
#275 = DIRECTION ( 'NONE',  ( 0.000000000000000000, 0.000000000000000000, 1.000000000000000000 ) ) ;
#276 = CARTESIAN_POINT ( 'NONE',  ( -38.23824324324326085, 4.508034901213882506, 0.09585786437625565259 ) ) ;
#277 = DIRECTION ( 'NONE',  ( -0.000000000000000000, -0.000000000000000000, -1.000000000000000000 ) ) ;
#278 = ORIENTED_EDGE ( 'NONE', *, *, #381, .F. ) ;
#279 = CARTESIAN_POINT ( 'NONE',  ( -3.836567567567565895, -13.96767605221028319, -0.09585786437625798406 ) ) ;
#280 = CYLINDRICAL_SURFACE ( 'NONE', #212, 5.424999999999998934 ) ;
#281 = FACE_OUTER_BOUND ( 'NONE', #167, .T. ) ;
#282 = AXIS2_PLACEMENT_3D ( 'NONE', #6, #738, #981 ) ;
#283 = ORIENTED_EDGE ( 'NONE', *, *, #598, .T. ) ;
#284 = FACE_OUTER_BOUND ( 'NONE', #768, .T. ) ;
#285 = FACE_OUTER_BOUND ( 'NONE', #210, .T. ) ;
#286 = EDGE_CURVE ( 'NONE', #1032, #205, #833, .T. ) ;
#287 = UNCERTAINTY_MEASURE_WITH_UNIT (LENGTH_MEASURE( 1.000000000000000082E-05 ), #168, 'distance_accuracy_value', 'NONE');
#288 = ORIENTED_EDGE ( 'NONE', *, *, #147, .F. ) ;
#289 = ORIENTED_EDGE ( 'NONE', *, *, #865, .F. ) ;
#290 = FACE_OUTER_BOUND ( 'NONE', #119, .T. ) ;
#291 = EDGE_CURVE ( 'NONE', #609, #983, #755, .T. ) ;
#292 = ORIENTED_EDGE ( 'NONE', *, *, #865, .T. ) ;
#293 = DIRECTION ( 'NONE',  ( -0.2648648648648943005, -0.9642855403665976377, 0.000000000000000000 ) ) ;
#294 = CARTESIAN_POINT ( 'NONE',  ( -38.41040540540542025, 5.134820502452181579, 0.6085786437626892198 ) ) ;
#295 = ADVANCED_FACE ( 'NONE', ( #170 ), #22, .T. ) ;
#296 = AXIS2_PLACEMENT_3D ( 'NONE', #723, #389, #73 ) ;
#297 = ORIENTED_EDGE ( 'NONE', *, *, #630, .F. ) ;
#298 = CARTESIAN_POINT ( 'NONE',  ( -38.43689189189190358, -5.231249056488834981, 0.8499999999999999778 ) ) ;
#299 = VECTOR ( 'NONE', #409, 1000.000000000000000 ) ;
#300 = CIRCLE ( 'NONE', #369, 0.009999999999999242134 ) ;
#301 = CARTESIAN_POINT ( 'NONE',  ( -4.032567567567592270, 14.68124735208157361, 0.6085786437626888867 ) ) ;
#302 = AXIS2_PLACEMENT_3D ( 'NONE', #66, #709, #791 ) ;
#303 = EDGE_CURVE ( 'NONE', #157, #205, #685, .T. ) ;
#304 = ORIENTED_EDGE ( 'NONE', *, *, #191, .T. ) ;
#305 = LINE ( 'NONE', #398, #906 ) ;
#306 = DIRECTION ( 'NONE',  ( 0.000000000000000000, 0.000000000000000000, -1.000000000000000000 ) ) ;
#307 = FACE_OUTER_BOUND ( 'NONE', #535, .T. ) ;
#308 = ORIENTED_EDGE ( 'NONE', *, *, #670, .T. ) ;
#309 = DIRECTION ( 'NONE',  ( 1.000000000000000000, 0.000000000000000000, 0.000000000000000000 ) ) ;
#310 = CARTESIAN_POINT ( 'NONE',  ( -37.00000000000001421, 3.469446951953614189E-15, 0.6085786437626866663 ) ) ;
#311 = LINE ( 'NONE', #160, #113 ) ;
#312 = ORIENTED_EDGE ( 'NONE', *, *, #17, .T. ) ;
#313 = DIRECTION ( 'NONE',  ( 0.000000000000000000, 0.000000000000000000, 1.000000000000000000 ) ) ;
#314 = VECTOR ( 'NONE', #759, 1000.000000000000227 ) ;
#315 = AXIS2_PLACEMENT_3D ( 'NONE', #47, #199, #445 ) ;
#316 = DIRECTION ( 'NONE',  ( 1.000000000000000000, 1.776356839400250465E-15, 0.000000000000000000 ) ) ;
#317 = CIRCLE ( 'NONE', #736, 4.674999999999998934 ) ;
#318 = ADVANCED_FACE ( 'NONE', ( #259 ), #546, .F. ) ;
#319 = CARTESIAN_POINT ( 'NONE',  ( -38.43689189189191069, 5.231249056488834981, -0.8499999999999999778 ) ) ;
#320 = AXIS2_PLACEMENT_3D ( 'NONE', #1010, #933, #33 ) ;
#321 = ORIENTED_EDGE ( 'NONE', *, *, #968, .T. ) ;
#322 = FACE_OUTER_BOUND ( 'NONE', #980, .T. ) ;
#323 = LINE ( 'NONE', #880, #650 ) ;
#324 = CARTESIAN_POINT ( 'NONE',  ( -38.39167663120102958, 5.066635217992843998, -0.6792893218813464973 ) ) ;
#325 = ORIENTED_EDGE ( 'NONE', *, *, #395, .F. ) ;
#326 = CARTESIAN_POINT ( 'NONE',  ( 0.000000000000000000, 0.000000000000000000, 0.000000000000000000 ) ) ;
#327 = MANIFOLD_SOLID_BREP ( 'Fillet2', #753 ) ;
#328 = DIRECTION ( 'NONE',  ( 1.000000000000000000, 0.000000000000000000, 0.000000000000000000 ) ) ;
#329 = DIRECTION ( 'NONE',  ( -0.2648648648648640469, -0.9642855403666059644, 0.000000000000000000 ) ) ;
#330 = ORIENTED_EDGE ( 'NONE', *, *, #95, .F. ) ;
#331 = ADVANCED_FACE ( 'NONE', ( #1015 ), #424, .T. ) ;
#332 = FACE_OUTER_BOUND ( 'NONE', #371, .T. ) ;
#333 = AXIS2_PLACEMENT_3D ( 'NONE', #490, #866, #954 ) ;
#334 = VECTOR ( 'NONE', #85, 999.9999999999998863 ) ;
#335 = DIRECTION ( 'NONE',  ( 1.000000000000000000, 0.000000000000000000, 0.000000000000000000 ) ) ;
#336 = VECTOR ( 'NONE', #306, 1000.000000000000000 ) ;
#337 = AXIS2_PLACEMENT_3D ( 'NONE', #613, #752, #597 ) ;
#338 = EDGE_LOOP ( 'NONE', ( #106, #269, #483, #815 ) ) ;
#339 = ADVANCED_FACE ( 'NONE', ( #691 ), #772, .T. ) ;
#340 = ORIENTED_EDGE ( 'NONE', *, *, #930, .F. ) ;
#341 = CARTESIAN_POINT ( 'NONE',  ( -37.00000000000001421, 3.469446951953614189E-15, 0.6085786437626887757 ) ) ;
#342 = CARTESIAN_POINT ( 'NONE',  ( -38.43689189189191069, 5.231249056488834981, -0.6085786437626918843 ) ) ;
#343 = ORIENTED_EDGE ( 'NONE', *, *, #350, .T. ) ;
#344 = SURFACE_STYLE_FILL_AREA ( #18 ) ;
#345 = EDGE_CURVE ( 'NONE', #226, #19, #996, .T. ) ;
#346 = ORIENTED_EDGE ( 'NONE', *, *, #4, .F. ) ;
#347 = CYLINDRICAL_SURFACE ( 'NONE', #652, 0.009999999999999242134 ) ;
#348 = DIRECTION ( 'NONE',  ( 1.000000000000000000, 0.000000000000000000, 0.000000000000000000 ) ) ;
#349 = DIRECTION ( 'NONE',  ( -0.2648648648649528092, 0.9642855403665815395, 0.000000000000000000 ) ) ;
#350 = EDGE_CURVE ( 'NONE', #1039, #157, #24, .T. ) ;
#351 = CIRCLE ( 'NONE', #403, 5.424999999999998934 ) ;
#352 = CIRCLE ( 'NONE', #940, 0.1000000000000005607 ) ;
#353 = CARTESIAN_POINT ( 'NONE',  ( -38.23824324324326085, 4.508034901213882506, 0.09585786437625527789 ) ) ;
#354 = AXIS2_PLACEMENT_3D ( 'NONE', #776, #444, #365 ) ;
#355 = EDGE_LOOP ( 'NONE', ( #459, #438, #903, #987 ) ) ;
#356 = CARTESIAN_POINT ( 'NONE',  ( -42.42500000000001137, 0.000000000000000000, -0.8499999999999999778 ) ) ;
#357 = LINE ( 'NONE', #985, #367 ) ;
#358 = CARTESIAN_POINT ( 'NONE',  ( -38.41040540540542025, 5.134820502452181579, 0.6085786437626888867 ) ) ;
#359 = ORIENTED_EDGE ( 'NONE', *, *, #109, .F. ) ;
#360 = LINE ( 'NONE', #678, #926 ) ;
#361 = CYLINDRICAL_SURFACE ( 'NONE', #886, 0.1000000000000003941 ) ;
#362 = CARTESIAN_POINT ( 'NONE',  ( -3.833918918918906460, -13.95803319680662113, -0.09999999999998933353 ) ) ;
#363 = EDGE_CURVE ( 'NONE', #751, #936, #207, .T. ) ;
#364 = ORIENTED_EDGE ( 'NONE', *, *, #657, .F. ) ;
#365 = DIRECTION ( 'NONE',  ( 0.000000000000000000, 0.7198443579766490297, 0.6941355057113747229 ) ) ;
#366 = DIRECTION ( 'NONE',  ( -0.2648648648649528092, 0.9642855403665815395, 0.000000000000000000 ) ) ;
#367 = VECTOR ( 'NONE', #573, 999.9999999999998863 ) ;
#368 = EDGE_LOOP ( 'NONE', ( #586, #733, #51, #824 ) ) ;
#369 = AXIS2_PLACEMENT_3D ( 'NONE', #869, #401, #560 ) ;
#370 = VECTOR ( 'NONE', #542, 999.9999999999998863 ) ;
#371 = EDGE_LOOP ( 'NONE', ( #1009, #826, #632, #42 ) ) ;
#372 = CARTESIAN_POINT ( 'NONE',  ( -38.43689189189191069, 5.231249056488834981, 0.6085786437626888867 ) ) ;
#373 = DIRECTION ( 'NONE',  ( 0.000000000000000000, 0.000000000000000000, 1.000000000000000000 ) ) ;
#374 = VERTEX_POINT ( 'NONE', #122 ) ;
#375 = LINE ( 'NONE', #43, #27 ) ;
#376 = CARTESIAN_POINT ( 'NONE',  ( -38.24089189189191273, 4.517677756617548113, -0.09585786437625860856 ) ) ;
#377 = ADVANCED_FACE ( 'NONE', ( #285 ), #804, .T. ) ;
#378 = ORIENTED_EDGE ( 'NONE', *, *, #118, .F. ) ;
#379 = CARTESIAN_POINT ( 'NONE',  ( -3.987352306876668528, -14.51663351358558174, 0.6792893218813409462 ) ) ;
#380 = CARTESIAN_POINT ( 'NONE',  ( -38.43689189189191069, 5.231249056488842086, 0.8499999999999999778 ) ) ;
#381 = EDGE_CURVE ( 'NONE', #644, #133, #778, .T. ) ;
#382 = AXIS2_PLACEMENT_3D ( 'NONE', #891, #166, #667 ) ;
#383 = ORIENTED_EDGE ( 'NONE', *, *, #171, .T. ) ;
#384 = DIRECTION ( 'NONE',  ( 0.9642855403665694380, 0.2648648648649971071, -1.199969205919196651E-13 ) ) ;
#385 = AXIS2_PLACEMENT_3D ( 'NONE', #540, #1041, #471 ) ;
#386 = VECTOR ( 'NONE', #460, 1000.000000000000000 ) ;
#387 = FACE_OUTER_BOUND ( 'NONE', #467, .T. ) ;
#388 = AXIS2_PLACEMENT_3D ( 'NONE', #279, #852, #293 ) ;
#389 = DIRECTION ( 'NONE',  ( 0.000000000000000000, 0.000000000000000000, 1.000000000000000000 ) ) ;
#390 = EDGE_LOOP ( 'NONE', ( #221, #596, #843, #346 ) ) ;
#391 = LINE ( 'NONE', #710, #266 ) ;
#392 = CARTESIAN_POINT ( 'NONE',  ( -42.42500000000001137, 0.000000000000000000, 0.8499999999999999778 ) ) ;
#393 = ORIENTED_EDGE ( 'NONE', *, *, #363, .F. ) ;
#394 = CARTESIAN_POINT ( 'NONE',  ( -38.23824324324326085, 4.508034901213882506, 0.09999999999998933353 ) ) ;
#395 = EDGE_CURVE ( 'NONE', #69, #526, #582, .T. ) ;
#396 = LINE ( 'NONE', #319, #1021 ) ;
#397 = EDGE_LOOP ( 'NONE', ( #330, #278, #834, #887 ) ) ;
#398 = CARTESIAN_POINT ( 'NONE',  ( -38.39167663120102958, 5.066635217992844886, -0.6792893218813474965 ) ) ;
#399 = TOROIDAL_SURFACE ( 'NONE', #732, 4.684999999999996056, 0.01000000000000000021 ) ;
#400 = AXIS2_PLACEMENT_3D ( 'NONE', #934, #135, #1006 ) ;
#401 = DIRECTION ( 'NONE',  ( 0.9642855403665977487, -0.2648648648648943005, -1.000735933344611076E-14 ) ) ;
#402 = ADVANCED_FACE ( 'NONE', ( #938 ), #39, .T. ) ;
#403 = AXIS2_PLACEMENT_3D ( 'NONE', #783, #721, #965 ) ;
#404 = CARTESIAN_POINT ( 'NONE',  ( 0.000000000000000000, 0.000000000000000000, -0.1029289321881256963 ) ) ;
#405 = CONICAL_SURFACE ( 'NONE', #454, 5.424999999999998934, 0.7853981633974415066 ) ;
#406 = EDGE_LOOP ( 'NONE', ( #190, #312, #474, #5 ) ) ;
#407 = APPLICATION_PROTOCOL_DEFINITION ( 'draft international standard', 'automotive_design', 1998, #220 ) ;
#408 = DIRECTION ( 'NONE',  ( 1.000000000000000000, 5.244349587727286787E-16, 0.000000000000000000 ) ) ;
#409 = DIRECTION ( 'NONE',  ( 0.000000000000000000, 0.000000000000000000, 1.000000000000000000 ) ) ;
#410 = EDGE_CURVE ( 'NONE', #1003, #751, #684, .T. ) ;
#411 = ORIENTED_EDGE ( 'NONE', *, *, #953, .T. ) ;
#412 = CARTESIAN_POINT ( 'NONE',  ( 0.000000000000000000, 0.000000000000000000, 0.6792893218813423895 ) ) ;
#413 = CARTESIAN_POINT ( 'NONE',  ( -38.24089189189190563, 4.517677756617549001, 0.09585786437625565259 ) ) ;
#414 = EDGE_CURVE ( 'NONE', #81, #848, #649, .T. ) ;
#415 = ORIENTED_EDGE ( 'NONE', *, *, #253, .T. ) ;
#416 = DIRECTION ( 'NONE',  ( 1.000000000000000000, 0.000000000000000000, 0.000000000000000000 ) ) ;
#417 = CARTESIAN_POINT ( 'NONE',  ( -41.68500000000000938, -5.244349587726798834E-18, -0.09585786437625601342 ) ) ;
#418 = LINE ( 'NONE', #433, #699 ) ;
#419 = CIRCLE ( 'NONE', #838, 0.1000000000000000472 ) ;
#420 =( GEOMETRIC_REPRESENTATION_CONTEXT ( 3 ) GLOBAL_UNCERTAINTY_ASSIGNED_CONTEXT ( ( #287 ) ) GLOBAL_UNIT_ASSIGNED_CONTEXT ( ( #168, #893, #87 ) ) REPRESENTATION_CONTEXT ( 'NONE', 'WORKASPACE' ) );
#421 = ORIENTED_EDGE ( 'NONE', *, *, #578, .F. ) ;
#422 = ADVANCED_FACE ( 'NONE', ( #214 ), #280, .T. ) ;
#423 = DIRECTION ( 'NONE',  ( 0.9642855403666057423, -0.2648648648648649906, -9.813077866773399118E-18 ) ) ;
#424 = PLANE ( 'NONE',  #177 ) ;
#425 = CYLINDRICAL_SURFACE ( 'NONE', #451, 0.1000000000000003941 ) ;
#426 = CARTESIAN_POINT ( 'NONE',  ( -3.987352306876705832, 14.51663351358557641, 0.6792893218813425005 ) ) ;
#427 = ADVANCED_FACE ( 'NONE', ( #845 ), #361, .T. ) ;
#428 = DIRECTION ( 'NONE',  ( -1.000000000000000000, 0.000000000000000000, 0.000000000000000000 ) ) ;
#429 = EDGE_LOOP ( 'NONE', ( #830, #430, #462, #321 ) ) ;
#430 = ORIENTED_EDGE ( 'NONE', *, *, #218, .T. ) ;
#431 = LINE ( 'NONE', #356, #470 ) ;
#432 = CIRCLE ( 'NONE', #784, 4.677928932188129885 ) ;
#433 = CARTESIAN_POINT ( 'NONE',  ( -38.23901901447147367, 4.510859228171614888, -0.1029289321881240726 ) ) ;
#434 = CONICAL_SURFACE ( 'NONE', #228, 4.674999999999998934, 0.7853981633974415066 ) ;
#435 = VECTOR ( 'NONE', #423, 999.9999999999998863 ) ;
#436 = VERTEX_POINT ( 'NONE', #301 ) ;
#437 = AXIS2_PLACEMENT_3D ( 'NONE', #121, #211, #527 ) ;
#438 = ORIENTED_EDGE ( 'NONE', *, *, #846, .T. ) ;
#439 = DIRECTION ( 'NONE',  ( 0.9642855403666057423, -0.2648648648648649906, -1.962615573354758710E-17 ) ) ;
#440 = CARTESIAN_POINT ( 'NONE',  ( -4.032567567567555855, -14.68124735208158071, 0.8499999999999999778 ) ) ;
#441 = EDGE_CURVE ( 'NONE', #197, #120, #351, .T. ) ;
#442 = ORIENTED_EDGE ( 'NONE', *, *, #208, .T. ) ;
#443 = ORIENTED_EDGE ( 'NONE', *, *, #787, .F. ) ;
#444 = DIRECTION ( 'NONE',  ( 0.1872877420440057228, 0.6818528445933658144, -0.7071067811865427988 ) ) ;
#445 = DIRECTION ( 'NONE',  ( 1.000000000000000000, 0.000000000000000000, 0.000000000000000000 ) ) ;
#446 = UNCERTAINTY_MEASURE_WITH_UNIT (LENGTH_MEASURE( 1.000000000000000082E-05 ), #126, 'distance_accuracy_value', 'NONE');
#447 = LINE ( 'NONE', #595, #952 ) ;
#448 = EDGE_CURVE ( 'NONE', #807, #1032, #788, .T. ) ;
#449 = ORIENTED_EDGE ( 'NONE', *, *, #363, .T. ) ;
#450 = CARTESIAN_POINT ( 'NONE',  ( -3.834694690147151697, 13.96085752376434819, -0.1029289321881243086 ) ) ;
#451 = AXIS2_PLACEMENT_3D ( 'NONE', #358, #746, #847 ) ;
#452 = VECTOR ( 'NONE', #531, 999.9999999999998863 ) ;
#453 = CIRCLE ( 'NONE', #872, 0.01000000000000306200 ) ;
#454 = AXIS2_PLACEMENT_3D ( 'NONE', #782, #697, #309 ) ;
#455 = ORIENTED_EDGE ( 'NONE', *, *, #552, .F. ) ;
#456 = DIRECTION ( 'NONE',  ( 0.2648648648648649906, 0.9642855403666057423, 0.000000000000000000 ) ) ;
#457 = EDGE_CURVE ( 'NONE', #848, #436, #323, .T. ) ;
#458 =( NAMED_UNIT ( * ) PLANE_ANGLE_UNIT ( ) SI_UNIT ( $, .RADIAN. ) );
#459 = ORIENTED_EDGE ( 'NONE', *, *, #624, .F. ) ;
#460 = DIRECTION ( 'NONE',  ( 0.1872877420440032803, 0.6818528445933567106, -0.7071067811865522357 ) ) ;
#461 = ADVANCED_FACE ( 'NONE', ( #241 ), #1030, .T. ) ;
#462 = ORIENTED_EDGE ( 'NONE', *, *, #624, .T. ) ;
#463 = DIRECTION ( 'NONE',  ( 0.9642855403666058534, 0.2648648648648648241, 0.000000000000000000 ) ) ;
#464 = LINE ( 'NONE', #641, #74 ) ;
#465 = CARTESIAN_POINT ( 'NONE',  ( 0.000000000000000000, 0.000000000000000000, 0.000000000000000000 ) ) ;
#466 = AXIS2_PLACEMENT_3D ( 'NONE', #658, #175, #982 ) ;
#467 = EDGE_LOOP ( 'NONE', ( #283, #411, #553, #562 ) ) ;
#468 = CARTESIAN_POINT ( 'NONE',  ( -4.032567567567592270, 14.68124735208157361, -0.8499999999999999778 ) ) ;
#469 = AXIS2_PLACEMENT_3D ( 'NONE', #960, #223, #229 ) ;
#470 = VECTOR ( 'NONE', #995, 1000.000000000000000 ) ;
#471 = DIRECTION ( 'NONE',  ( 1.000000000000000000, 0.000000000000000000, 0.000000000000000000 ) ) ;
#472 = LINE ( 'NONE', #392, #955 ) ;
#473 = EDGE_CURVE ( 'NONE', #797, #69, #93, .T. ) ;
#474 = ORIENTED_EDGE ( 'NONE', *, *, #153, .F. ) ;
#475 = DIRECTION ( 'NONE',  ( -0.2648648648648649906, -0.9642855403666057423, 0.000000000000000000 ) ) ;
#476 = DIRECTION ( 'NONE',  ( -0.2648648648648648241, 0.9642855403666058534, 0.000000000000000000 ) ) ;
#477 = CARTESIAN_POINT ( 'NONE',  ( -4.032567567567555855, -14.68124735208158071, -0.8499999999999999778 ) ) ;
#478 = EDGE_CURVE ( 'NONE', #19, #69, #636, .T. ) ;
#479 = ORIENTED_EDGE ( 'NONE', *, *, #203, .F. ) ;
#480 = CARTESIAN_POINT ( 'NONE',  ( -37.00000000000001421, 3.469446951953614189E-15, 0.000000000000000000 ) ) ;
#481 = FACE_OUTER_BOUND ( 'NONE', #999, .T. ) ;
#482 = CARTESIAN_POINT ( 'NONE',  ( -41.67500000000001137, 0.000000000000000000, 0.09999999999998933353 ) ) ;
#483 = ORIENTED_EDGE ( 'NONE', *, *, #565, .F. ) ;
#484 = CIRCLE ( 'NONE', #853, 0.1000000000000003941 ) ;
#485 = AXIS2_PLACEMENT_3D ( 'NONE', #131, #373, #611 ) ;
#486 = ORIENTED_EDGE ( 'NONE', *, *, #17, .F. ) ;
#487 = DIRECTION ( 'NONE',  ( 0.000000000000000000, 0.000000000000000000, 1.000000000000000000 ) ) ;
#488 = EDGE_CURVE ( 'NONE', #60, #848, #533, .T. ) ;
#489 = TOROIDAL_SURFACE ( 'NONE', #617, 5.325000000000003730, 0.1000000000000000056 ) ;
#490 = CARTESIAN_POINT ( 'NONE',  ( 0.000000000000000000, 0.000000000000000000, -0.09999999999998933353 ) ) ;
#491 = ORIENTED_EDGE ( 'NONE', *, *, #50, .F. ) ;
#492 = CARTESIAN_POINT ( 'NONE',  ( 0.000000000000000000, 0.000000000000000000, 0.09585786437626124534 ) ) ;
#493 = ADVANCED_FACE ( 'NONE', ( #387 ), #956, .F. ) ;
#494 = DIRECTION ( 'NONE',  ( -0.2648648648648905257, -0.9642855403665987479, 0.000000000000000000 ) ) ;
#495 = ORIENTED_EDGE ( 'NONE', *, *, #722, .F. ) ;
#496 = LINE ( 'NONE', #656, #435 ) ;
#497 = DIRECTION ( 'NONE',  ( -0.000000000000000000, -0.000000000000000000, -1.000000000000000000 ) ) ;
#498 = ORIENTED_EDGE ( 'NONE', *, *, #676, .F. ) ;
#499 = DIRECTION ( 'NONE',  ( 0.2648648648648905257, -0.9642855403665987479, 0.000000000000000000 ) ) ;
#500 = AXIS2_PLACEMENT_3D ( 'NONE', #200, #525, #123 ) ;
#501 = AXIS2_PLACEMENT_3D ( 'NONE', #828, #907, #494 ) ;
#502 = DIRECTION ( 'NONE',  ( 1.000000000000000000, -1.776356839400249479E-15, 0.000000000000000000 ) ) ;
#503 = VERTEX_POINT ( 'NONE', #808 ) ;
#504 = EDGE_CURVE ( 'NONE', #541, #1003, #543, .T. ) ;
#505 = CARTESIAN_POINT ( 'NONE',  ( 0.000000000000000000, 0.000000000000000000, -0.09585786437625720691 ) ) ;
#506 = CARTESIAN_POINT ( 'NONE',  ( -37.00000000000001421, 3.469446951953614189E-15, -0.09585786437625511136 ) ) ;
#507 = ORIENTED_EDGE ( 'NONE', *, *, #345, .T. ) ;
#508 = ORIENTED_EDGE ( 'NONE', *, *, #286, .T. ) ;
#509 = DIRECTION ( 'NONE',  ( -0.2648648648648943005, 0.9642855403665976377, 0.000000000000000000 ) ) ;
#510 = CARTESIAN_POINT ( 'NONE',  ( -37.00000000000001421, 3.469446951953614189E-15, 0.09585786437625311296 ) ) ;
#511 = CARTESIAN_POINT ( 'NONE',  ( -37.00000000000001421, 3.469446951953614189E-15, 0.000000000000000000 ) ) ;
#512 = EDGE_LOOP ( 'NONE', ( #65, #25, #587, #124 ) ) ;
#513 = CARTESIAN_POINT ( 'NONE',  ( -37.00000000000001421, 3.469446951953614189E-15, -0.6792893218813440548 ) ) ;
#514 = AXIS2_PLACEMENT_3D ( 'NONE', #671, #184, #272 ) ;
#515 = DIRECTION ( 'NONE',  ( 0.1872877420440028085, 0.6818528445933568216, -0.7071067811865521247 ) ) ;
#516 = ADVANCED_FACE ( 'NONE', ( #481 ), #800, .T. ) ;
#517 = VECTOR ( 'NONE', #108, 1000.000000000000000 ) ;
#518 = TOROIDAL_SURFACE ( 'NONE', #57, 5.324999999999997513, 0.1000000000000000056 ) ;
#519 = AXIS2_PLACEMENT_3D ( 'NONE', #859, #628, #640 ) ;
#520 = ORIENTED_EDGE ( 'NONE', *, *, #1043, .T. ) ;
#521 = ORIENTED_EDGE ( 'NONE', *, *, #860, .T. ) ;
#522 = PLANE ( 'NONE',  #354 ) ;
#523 =( NAMED_UNIT ( * ) SI_UNIT ( $, .STERADIAN. ) SOLID_ANGLE_UNIT ( ) );
#524 = EDGE_CURVE ( 'NONE', #19, #807, #317, .T. ) ;
#525 = DIRECTION ( 'NONE',  ( 0.1872877420440057228, 0.6818528445933658144, 0.7071067811865427988 ) ) ;
#526 = VERTEX_POINT ( 'NONE', #78 ) ;
#527 = DIRECTION ( 'NONE',  ( 1.000000000000000000, 0.000000000000000000, 0.000000000000000000 ) ) ;
#528 = DIRECTION ( 'NONE',  ( -0.2648648648648905257, -0.9642855403665987479, 0.000000000000000000 ) ) ;
#529 = EDGE_CURVE ( 'NONE', #30, #100, #300, .T. ) ;
#530 = ORIENTED_EDGE ( 'NONE', *, *, #185, .F. ) ;
#531 = DIRECTION ( 'NONE',  ( -0.9642855403666057423, -0.2648648648648648241, -0.000000000000000000 ) ) ;
#532 = AXIS2_PLACEMENT_3D ( 'NONE', #294, #839, #762 ) ;
#533 = CIRCLE ( 'NONE', #469, 5.424999999999998934 ) ;
#534 = EDGE_CURVE ( 'NONE', #157, #133, #464, .T. ) ;
#535 = EDGE_LOOP ( 'NONE', ( #530, #677, #574, #128 ) ) ;
#536 = CARTESIAN_POINT ( 'NONE',  ( -3.833918918918917118, -13.95803319680661758, 0.09999999999998933353 ) ) ;
#537 = CARTESIAN_POINT ( 'NONE',  ( -37.00000000000001421, 3.469446951953614189E-15, 0.000000000000000000 ) ) ;
#538 = ORIENTED_EDGE ( 'NONE', *, *, #203, .T. ) ;
#539 = DIRECTION ( 'NONE',  ( -0.000000000000000000, -0.000000000000000000, -1.000000000000000000 ) ) ;
#540 = CARTESIAN_POINT ( 'NONE',  ( 0.000000000000000000, 0.000000000000000000, 0.8499999999999999778 ) ) ;
#541 = VERTEX_POINT ( 'NONE', #944 ) ;
#542 = DIRECTION ( 'NONE',  ( -0.9642855403666057423, -0.2648648648648648241, -0.000000000000000000 ) ) ;
#543 = LINE ( 'NONE', #714, #46 ) ;
#544 = ADVANCED_FACE ( 'NONE', ( #159 ), #720, .T. ) ;
#545 = CARTESIAN_POINT ( 'NONE',  ( -3.833918918918906460, -13.95803319680662113, -0.09585786437625798406 ) ) ;
#546 = CONICAL_SURFACE ( 'NONE', #8, 5.424999999999998934, 0.7853981633974415066 ) ;
#547 = ORIENTED_EDGE ( 'NONE', *, *, #832, .F. ) ;
#548 = LINE ( 'NONE', #468, #570 ) ;
#549 = CIRCLE ( 'NONE', #635, 5.254289321881342900 ) ;
#550 = LINE ( 'NONE', #187, #9 ) ;
#551 = DIRECTION ( 'NONE',  ( -0.9642855403666057423, 0.2648648648648649351, 1.962615573354758093E-17 ) ) ;
#552 = EDGE_CURVE ( 'NONE', #94, #541, #195, .T. ) ;
#553 = ORIENTED_EDGE ( 'NONE', *, *, #410, .F. ) ;
#554 = CARTESIAN_POINT ( 'NONE',  ( -38.24089189189191273, 4.517677756617545448, 0.09585786437625563872 ) ) ;
#555 = DIRECTION ( 'NONE',  ( 1.000000000000000000, 0.000000000000000000, 0.000000000000000000 ) ) ;
#556 = DIRECTION ( 'NONE',  ( 1.000000000000000000, -8.881784197001254296E-16, 0.000000000000000000 ) ) ;
#557 = EDGE_LOOP ( 'NONE', ( #83, #1027, #767, #908 ) ) ;
#558 = EDGE_CURVE ( 'NONE', #718, #794, #634, .T. ) ;
#559 = PRODUCT_CONTEXT ( 'NONE', #803, 'mechanical' ) ;
#560 = DIRECTION ( 'NONE',  ( 0.2648648648648943005, 0.9642855403665976377, 0.000000000000000000 ) ) ;
#561 = DIRECTION ( 'NONE',  ( -0.9642855403665999692, 0.2648648648648860293, 6.173672490346067933E-14 ) ) ;
#562 = ORIENTED_EDGE ( 'NONE', *, *, #607, .T. ) ;
#563 = DIRECTION ( 'NONE',  ( 0.000000000000000000, 0.000000000000000000, 1.000000000000000000 ) ) ;
#564 = VECTOR ( 'NONE', #594, 999.9999999999998863 ) ;
#565 = EDGE_CURVE ( 'NONE', #81, #829, #391, .T. ) ;
#566 = CIRCLE ( 'NONE', #44, 0.1000000000000005607 ) ;
#567 = CARTESIAN_POINT ( 'NONE',  ( -4.032567567567592270, 14.68124735208157361, 0.8499999999999999778 ) ) ;
#568 = CIRCLE ( 'NONE', #247, 0.009999999999999242134 ) ;
#569 = CARTESIAN_POINT ( 'NONE',  ( -4.032567567567566513, -14.68124735208157716, 0.6085786437626879986 ) ) ;
#570 = VECTOR ( 'NONE', #134, 1000.000000000000000 ) ;
#571 = ORIENTED_EDGE ( 'NONE', *, *, #534, .T. ) ;
#572 = DIRECTION ( 'NONE',  ( 0.9642855403666089620, 0.2648648648648539994, -3.184990618909853155E-14 ) ) ;
#573 = DIRECTION ( 'NONE',  ( -0.9642855403666057423, 0.2648648648648649906, 1.962615573354758710E-17 ) ) ;
#574 = ORIENTED_EDGE ( 'NONE', *, *, #909, .T. ) ;
#575 = CARTESIAN_POINT ( 'NONE',  ( -38.41040540540542025, 5.134820502452181579, -0.6085786437626918843 ) ) ;
#576 = DIRECTION ( 'NONE',  ( 0.9642855403665977487, -0.2648648648648943005, 1.000735933344585517E-14 ) ) ;
#577 = DIRECTION ( 'NONE',  ( 1.000000000000000000, 0.000000000000000000, 0.000000000000000000 ) ) ;
#578 = EDGE_CURVE ( 'NONE', #120, #983, #550, .T. ) ;
#579 = ORIENTED_EDGE ( 'NONE', *, *, #127, .T. ) ;
#580 = CARTESIAN_POINT ( 'NONE',  ( -3.836567567567565451, -13.96767605221028319, 0.09585786437625370970 ) ) ;
#581 = DIRECTION ( 'NONE',  ( 1.000000000000000000, 0.000000000000000000, 0.000000000000000000 ) ) ;
#582 = CIRCLE ( 'NONE', #111, 0.01000000000000030899 ) ;
#583 = DIRECTION ( 'NONE',  ( 0.000000000000000000, 0.000000000000000000, 1.000000000000000000 ) ) ;
#584 = VECTOR ( 'NONE', #646, 1000.000000000000114 ) ;
#585 = CIRCLE ( 'NONE', #975, 15.22499999999999964 ) ;
#586 = ORIENTED_EDGE ( 'NONE', *, *, #147, .T. ) ;
#587 = ORIENTED_EDGE ( 'NONE', *, *, #50, .T. ) ;
#588 = DIRECTION ( 'NONE',  ( 4.669079520376481323E-16, 1.000000000000000000, 1.127215510189270236E-15 ) ) ;
#589 = DIRECTION ( 'NONE',  ( 0.000000000000000000, 0.7198443579766490297, -0.6941355057113747229 ) ) ;
#590 = ORIENTED_EDGE ( 'NONE', *, *, #286, .F. ) ;
#591 = EDGE_CURVE ( 'NONE', #963, #226, #130, .T. ) ;
#592 = ORIENTED_EDGE ( 'NONE', *, *, #882, .T. ) ;
#593 = DIRECTION ( 'NONE',  ( 1.000000000000000000, 0.000000000000000000, 0.000000000000000000 ) ) ;
#594 = DIRECTION ( 'NONE',  ( -0.9642855403666057423, 0.2648648648648649906, -9.813077866773399118E-18 ) ) ;
#595 = CARTESIAN_POINT ( 'NONE',  ( -3.833918918918917118, -13.95803319680661758, 0.09585786437625370970 ) ) ;
#596 = ORIENTED_EDGE ( 'NONE', *, *, #218, .F. ) ;
#597 = DIRECTION ( 'NONE',  ( 1.000000000000000000, 1.776356839400250070E-15, 0.000000000000000000 ) ) ;
#598 = EDGE_CURVE ( 'NONE', #672, #737, #169, .T. ) ;
#599 = AXIS2_PLACEMENT_3D ( 'NONE', #58, #876, #948 ) ;
#600 = CARTESIAN_POINT ( 'NONE',  ( -38.41040540540542736, 5.134820502452179802, -0.6085786437626918843 ) ) ;
#601 = AXIS2_PLACEMENT_3D ( 'NONE', #412, #165, #812 ) ;
#602 = CIRCLE ( 'NONE', #146, 0.1000000000000003941 ) ;
#603 = ORIENTED_EDGE ( 'NONE', *, *, #291, .F. ) ;
#604 = ORIENTED_EDGE ( 'NONE', *, *, #1005, .F. ) ;
#605 = CARTESIAN_POINT ( 'NONE',  ( -41.67500000000001137, 0.000000000000000000, -0.09585786437625511136 ) ) ;
#606 = DIRECTION ( 'NONE',  ( 0.000000000000000000, -0.7198443579766490297, -0.6941355057113747229 ) ) ;
#607 = EDGE_CURVE ( 'NONE', #1003, #672, #904, .T. ) ;
#608 = ORIENTED_EDGE ( 'NONE', *, *, #36, .T. ) ;
#609 = VERTEX_POINT ( 'NONE', #889 ) ;
#610 = CYLINDRICAL_SURFACE ( 'NONE', #388, 0.009999999999999242134 ) ;
#611 = DIRECTION ( 'NONE',  ( 1.000000000000000000, 0.000000000000000000, 0.000000000000000000 ) ) ;
#612 = ORIENTED_EDGE ( 'NONE', *, *, #814, .F. ) ;
#613 = CARTESIAN_POINT ( 'NONE',  ( -37.00000000000001421, 3.469446951953614189E-15, -0.6792893218813406131 ) ) ;
#614 = SURFACE_STYLE_USAGE ( .BOTH. , #663 ) ;
#615 = CIRCLE ( 'NONE', #296, 5.254289321881342900 ) ;
#616 = AXIS2_PLACEMENT_3D ( 'NONE', #413, #731, #349 ) ;
#617 = AXIS2_PLACEMENT_3D ( 'NONE', #341, #821, #581 ) ;
#618 = TOROIDAL_SURFACE ( 'NONE', #302, 14.48500000000000121, 0.01000000000000000021 ) ;
#619 = ORIENTED_EDGE ( 'NONE', *, *, #72, .T. ) ;
#620 = DIRECTION ( 'NONE',  ( 1.000000000000000000, 0.000000000000000000, 0.000000000000000000 ) ) ;
#621 = DIRECTION ( 'NONE',  ( -1.000000000000000000, -8.881784197001247393E-16, 0.000000000000000000 ) ) ;
#622 = ORIENTED_EDGE ( 'NONE', *, *, #591, .F. ) ;
#623 = FACE_OUTER_BOUND ( 'NONE', #204, .T. ) ;
#624 = EDGE_CURVE ( 'NONE', #526, #136, #977, .T. ) ;
#625 = CARTESIAN_POINT ( 'NONE',  ( -37.00000000000001421, 3.469446951953614189E-15, 0.000000000000000000 ) ) ;
#626 = FACE_OUTER_BOUND ( 'NONE', #764, .T. ) ;
#627 = ORIENTED_EDGE ( 'NONE', *, *, #986, .F. ) ;
#628 = DIRECTION ( 'NONE',  ( -0.000000000000000000, -0.000000000000000000, -1.000000000000000000 ) ) ;
#629 = DIRECTION ( 'NONE',  ( 0.1872877420440035579, -0.6818528445933565996, -0.7071067811865522357 ) ) ;
#630 = EDGE_CURVE ( 'NONE', #157, #30, #496, .T. ) ;
#631 = LINE ( 'NONE', #477, #299 ) ;
#632 = ORIENTED_EDGE ( 'NONE', *, *, #734, .F. ) ;
#633 = DIRECTION ( 'NONE',  ( -1.000000000000000000, 0.000000000000000000, 0.000000000000000000 ) ) ;
#634 = CIRCLE ( 'NONE', #1037, 15.22499999999999964 ) ;
#635 = AXIS2_PLACEMENT_3D ( 'NONE', #513, #1004, #836 ) ;
#636 = LINE ( 'NONE', #1034, #336 ) ;
#637 = DIRECTION ( 'NONE',  ( 0.000000000000000000, 0.000000000000000000, 1.000000000000000000 ) ) ;
#638 = EDGE_CURVE ( 'NONE', #186, #644, #773, .T. ) ;
#639 = EDGE_LOOP ( 'NONE', ( #750, #932, #1023, #201 ) ) ;
#640 = DIRECTION ( 'NONE',  ( -1.000000000000000000, 0.000000000000000000, 0.000000000000000000 ) ) ;
#641 = CARTESIAN_POINT ( 'NONE',  ( -38.23824324324324664, -4.508034901213875401, -0.09999999999998933353 ) ) ;
#642 = CARTESIAN_POINT ( 'NONE',  ( -3.833918918918942875, 13.95803319680661403, -0.09585786437625860856 ) ) ;
#643 = ADVANCED_FACE ( 'NONE', ( #2 ), #84, .F. ) ;
#644 = VERTEX_POINT ( 'NONE', #730 ) ;
#645 = CARTESIAN_POINT ( 'NONE',  ( -38.43689189189191069, 5.231249056488842086, -0.6085786437626918843 ) ) ;
#646 = DIRECTION ( 'NONE',  ( 0.1872877420440031970, -0.6818528445933568216, -0.7071067811865522357 ) ) ;
#647 = CARTESIAN_POINT ( 'NONE',  ( -42.42500000000001137, 0.000000000000000000, 0.6085786437626888867 ) ) ;
#648 = ORIENTED_EDGE ( 'NONE', *, *, #722, .T. ) ;
#649 = CIRCLE ( 'NONE', #532, 0.1000000000000003941 ) ;
#650 = VECTOR ( 'NONE', #884, 999.9999999999998863 ) ;
#651 = CARTESIAN_POINT ( 'NONE',  ( -4.006081081081103612, 14.58481879804490333, -0.6085786437626877765 ) ) ;
#652 = AXIS2_PLACEMENT_3D ( 'NONE', #580, #180, #82 ) ;
#653 = CARTESIAN_POINT ( 'NONE',  ( -4.006081081081080519, -14.58481879804491577, 0.6085786437626879986 ) ) ;
#654 = ORIENTED_EDGE ( 'NONE', *, *, #303, .T. ) ;
#655 = ORIENTED_EDGE ( 'NONE', *, *, #441, .T. ) ;
#656 = CARTESIAN_POINT ( 'NONE',  ( -3.834694690147125495, -13.96085752376434996, -0.1029289321881235314 ) ) ;
#657 = EDGE_CURVE ( 'NONE', #1039, #797, #453, .T. ) ;
#658 = CARTESIAN_POINT ( 'NONE',  ( -38.24089189189189852, -4.517677756617540119, -0.09585786437625656853 ) ) ;
#659 = ORIENTED_EDGE ( 'NONE', *, *, #524, .F. ) ;
#660 = EDGE_LOOP ( 'NONE', ( #579, #393, #873, #818 ) ) ;
#661 = DIRECTION ( 'NONE',  ( 0.2648648648648943005, 0.9642855403665976377, 0.000000000000000000 ) ) ;
#662 = ADVANCED_FACE ( 'NONE', ( #332 ), #114, .T. ) ;
#663 = SURFACE_SIDE_STYLE ('',( #344 ) ) ;
#664 = ORIENTED_EDGE ( 'NONE', *, *, #448, .T. ) ;
#665 = EDGE_LOOP ( 'NONE', ( #608, #689, #1, #729 ) ) ;
#666 = CARTESIAN_POINT ( 'NONE',  ( 0.000000000000000000, 0.000000000000000000, -0.6792893218813406131 ) ) ;
#667 = DIRECTION ( 'NONE',  ( -1.000000000000000000, 0.000000000000000000, 0.000000000000000000 ) ) ;
#668 = AXIS2_PLACEMENT_3D ( 'NONE', #1025, #476, #947 ) ;
#669 = CIRCLE ( 'NONE', #774, 4.677928932188129885 ) ;
#670 = EDGE_CURVE ( 'NONE', #794, #186, #352, .T. ) ;
#671 = CARTESIAN_POINT ( 'NONE',  ( -4.006081081081104500, 14.58481879804490511, 0.6085786437626891088 ) ) ;
#672 = VERTEX_POINT ( 'NONE', #426 ) ;
#673 = DIRECTION ( 'NONE',  ( -1.000000000000000000, 0.000000000000000000, 0.000000000000000000 ) ) ;
#674 = FACE_OUTER_BOUND ( 'NONE', #429, .T. ) ;
#675 = EDGE_LOOP ( 'NONE', ( #547, #655, #179, #682 ) ) ;
#676 = EDGE_CURVE ( 'NONE', #737, #226, #568, .T. ) ;
#677 = ORIENTED_EDGE ( 'NONE', *, *, #558, .T. ) ;
#678 = CARTESIAN_POINT ( 'NONE',  ( -38.23901901447146656, 4.510859228171616664, 0.1029289321881212554 ) ) ;
#679 = DIRECTION ( 'NONE',  ( -0.2648648648649528092, 0.9642855403665815395, 0.000000000000000000 ) ) ;
#680 = DIRECTION ( 'NONE',  ( -0.000000000000000000, -0.000000000000000000, -1.000000000000000000 ) ) ;
#681 = PRODUCT ( 'Belt1-1', 'Belt1-1', '', ( #559 ) ) ;
#682 = ORIENTED_EDGE ( 'NONE', *, *, #118, .T. ) ;
#683 = CARTESIAN_POINT ( 'NONE',  ( -37.00000000000001421, 3.469446951953614189E-15, -0.6085786437626869994 ) ) ;
#684 = LINE ( 'NONE', #440, #855 ) ;
#685 = CIRCLE ( 'NONE', #466, 0.01000000000000030899 ) ;
#686 = AXIS2_PLACEMENT_3D ( 'NONE', #625, #864, #792 ) ;
#687 = CIRCLE ( 'NONE', #841, 0.01000000000000306200 ) ;
#688 = DIRECTION ( 'NONE',  ( 0.9642855403666057423, 0.2648648648648648241, 0.000000000000000000 ) ) ;
#689 = ORIENTED_EDGE ( 'NONE', *, *, #457, .F. ) ;
#690 = FACE_OUTER_BOUND ( 'NONE', #810, .T. ) ;
#691 = FACE_OUTER_BOUND ( 'NONE', #141, .T. ) ;
#692 = ADVANCED_FACE ( 'NONE', ( #744 ), #489, .T. ) ;
#693 = EDGE_LOOP ( 'NONE', ( #760, #359, #704, #997 ) ) ;
#694 = CARTESIAN_POINT ( 'NONE',  ( -37.00000000000001421, 3.469446951953614189E-15, 0.1029289321881213526 ) ) ;
#695 = DIRECTION ( 'NONE',  ( 0.9642855403666057423, 0.2648648648648647685, 0.000000000000000000 ) ) ;
#696 = ORIENTED_EDGE ( 'NONE', *, *, #1029, .T. ) ;
#697 = DIRECTION ( 'NONE',  ( 0.000000000000000000, 0.000000000000000000, 1.000000000000000000 ) ) ;
#698 = DIRECTION ( 'NONE',  ( 1.000000000000000000, 0.000000000000000000, 0.000000000000000000 ) ) ;
#699 = VECTOR ( 'NONE', #188, 999.9999999999998863 ) ;
#700 = AXIS2_PLACEMENT_3D ( 'NONE', #727, #20, #348 ) ;
#701 = EDGE_CURVE ( 'NONE', #963, #751, #162, .T. ) ;
#702 = AXIS2_PLACEMENT_3D ( 'NONE', #505, #827, #103 ) ;
#703 = CIRCLE ( 'NONE', #519, 14.47792893218813681 ) ;
#704 = ORIENTED_EDGE ( 'NONE', *, *, #414, .T. ) ;
#705 = DIRECTION ( 'NONE',  ( 0.9642855403666057423, -0.2648648648648649906, 9.813077866773399118E-18 ) ) ;
#706 = CARTESIAN_POINT ( 'NONE',  ( -42.25428932188135889, 0.000000000000000000, 0.6792893218813462752 ) ) ;
#707 = EDGE_CURVE ( 'NONE', #164, #878, #888, .T. ) ;
#708 = ORIENTED_EDGE ( 'NONE', *, *, #457, .T. ) ;
#709 = DIRECTION ( 'NONE',  ( 0.000000000000000000, 0.000000000000000000, 1.000000000000000000 ) ) ;
#710 = CARTESIAN_POINT ( 'NONE',  ( -38.43689189189191069, 5.231249056488834981, 0.8499999999999999778 ) ) ;
#711 = CARTESIAN_POINT ( 'NONE',  ( -38.23901901447145946, -4.510859228171607782, -0.1029289321881232955 ) ) ;
#712 = ORIENTED_EDGE ( 'NONE', *, *, #953, .F. ) ;
#713 = DIRECTION ( 'NONE',  ( 0.9642855403666057423, 0.2648648648648648241, 0.000000000000000000 ) ) ;
#714 = CARTESIAN_POINT ( 'NONE',  ( -3.987352306876680075, -14.51663351358557996, 0.6792893218813425005 ) ) ;
#715 = ADVANCED_FACE ( 'NONE', ( #174 ), #973, .T. ) ;
#716 = DIRECTION ( 'NONE',  ( 1.000000000000000000, 0.000000000000000000, 0.000000000000000000 ) ) ;
#717 = AXIS2_PLACEMENT_3D ( 'NONE', #376, #695, #366 ) ;
#718 = VERTEX_POINT ( 'NONE', #182 ) ;
#719 = FACE_OUTER_BOUND ( 'NONE', #102, .T. ) ;
#720 = TOROIDAL_SURFACE ( 'NONE', #230, 5.324999999999997513, 0.1000000000000000056 ) ;
#721 = DIRECTION ( 'NONE',  ( 0.000000000000000000, 0.000000000000000000, 1.000000000000000000 ) ) ;
#722 = EDGE_CURVE ( 'NONE', #255, #197, #248, .T. ) ;
#723 = CARTESIAN_POINT ( 'NONE',  ( -37.00000000000001421, 3.469446951953614189E-15, 0.6792893218813406131 ) ) ;
#724 = EDGE_LOOP ( 'NONE', ( #308, #949, #115, #105 ) ) ;
#725 = CARTESIAN_POINT ( 'NONE',  ( -38.23824324324324664, -4.508034901213875401, 0.09585786437625300194 ) ) ;
#726 = EDGE_LOOP ( 'NONE', ( #216, #343, #571, #883 ) ) ;
#727 = CARTESIAN_POINT ( 'NONE',  ( -37.00000000000001421, 3.469446951953614189E-15, -0.6085786437626869994 ) ) ;
#728 = DIRECTION ( 'NONE',  ( -0.7071067811865427988, 0.000000000000000000, -0.7071067811865522357 ) ) ;
#729 = ORIENTED_EDGE ( 'NONE', *, *, #1011, .F. ) ;
#730 = CARTESIAN_POINT ( 'NONE',  ( -3.987352306876667640, -14.51663351358557996, -0.6792893218813423895 ) ) ;
#731 = DIRECTION ( 'NONE',  ( 0.9642855403666057423, 0.2648648648648647685, 0.000000000000000000 ) ) ;
#732 = AXIS2_PLACEMENT_3D ( 'NONE', #80, #151, #793 ) ;
#733 = ORIENTED_EDGE ( 'NONE', *, *, #473, .T. ) ;
#734 = EDGE_CURVE ( 'NONE', #503, #197, #419, .T. ) ;
#735 = STYLED_ITEM ( 'NONE', ( #854 ), #327 ) ;
#736 = AXIS2_PLACEMENT_3D ( 'NONE', #796, #138, #71 ) ;
#737 = VERTEX_POINT ( 'NONE', #116 ) ;
#738 = DIRECTION ( 'NONE',  ( -0.000000000000000000, -0.000000000000000000, -1.000000000000000000 ) ) ;
#739 = VECTOR ( 'NONE', #899, 999.9999999999998863 ) ;
#740 = FACE_OUTER_BOUND ( 'NONE', #862, .T. ) ;
#741 = ORIENTED_EDGE ( 'NONE', *, *, #21, .T. ) ;
#742 = SHAPE_DEFINITION_REPRESENTATION ( #31, #1013 ) ;
#743 = PRODUCT_DEFINITION ( 'General', '', #957, #923 ) ;
#744 = FACE_OUTER_BOUND ( 'NONE', #898, .T. ) ;
#745 = FILL_AREA_STYLE_COLOUR ( '', #245 ) ;
#746 = DIRECTION ( 'NONE',  ( 0.9642855403666057423, 0.2648648648648647685, 0.000000000000000000 ) ) ;
#747 = CARTESIAN_POINT ( 'NONE',  ( -37.00000000000001421, 3.469446951953614189E-15, -0.6085786437626906631 ) ) ;
#748 = CARTESIAN_POINT ( 'NONE',  ( -38.23824324324324664, -4.508034901213875401, 0.09999999999998933353 ) ) ;
#749 = ADVANCED_FACE ( 'NONE', ( #690 ), #518, .T. ) ;
#750 = ORIENTED_EDGE ( 'NONE', *, *, #707, .T. ) ;
#751 = VERTEX_POINT ( 'NONE', #38 ) ;
#752 = DIRECTION ( 'NONE',  ( -0.000000000000000000, -0.000000000000000000, -1.000000000000000000 ) ) ;
#753 = CLOSED_SHELL ( 'NONE', ( #976, #318, #422, #825, #59, #925, #877, #643, #493, #79, #101, #962, #331, #461, #265, #45, #902, #516, #258, #273, #64, #377, #662, #427, #749, #238, #817, #692, #29, #544, #339, #935, #402, #757, #715, #139, #224, #295, #1016, #941 ) ) ;
#754 = AXIS2_PLACEMENT_3D ( 'NONE', #912, #90, #589 ) ;
#755 = LINE ( 'NONE', #569, #334 ) ;
#756 = AXIS2_PLACEMENT_3D ( 'NONE', #13, #576, #661 ) ;
#757 = ADVANCED_FACE ( 'NONE', ( #290 ), #610, .T. ) ;
#758 = CIRCLE ( 'NONE', #337, 5.254289321881342900 ) ;
#759 = DIRECTION ( 'NONE',  ( -0.1872877420440028085, -0.6818528445933568216, -0.7071067811865521247 ) ) ;
#760 = ORIENTED_EDGE ( 'NONE', *, *, #850, .T. ) ;
#761 = DIRECTION ( 'NONE',  ( 0.000000000000000000, -1.543960531859828380E-15, 1.000000000000000000 ) ) ;
#762 = DIRECTION ( 'NONE',  ( 0.2648648648648905257, -0.9642855403665987479, 0.000000000000000000 ) ) ;
#763 = DIRECTION ( 'NONE',  ( 0.9642855403666057423, -0.2648648648648649906, 1.962615573354758710E-17 ) ) ;
#764 = EDGE_LOOP ( 'NONE', ( #491, #619, #592, #251 ) ) ;
#765 = DIRECTION ( 'NONE',  ( 0.000000000000000000, 0.000000000000000000, 1.000000000000000000 ) ) ;
#766 = CARTESIAN_POINT ( 'NONE',  ( -3.834694690147124607, -13.96085752376434996, 0.1029289321881186464 ) ) ;
#767 = ORIENTED_EDGE ( 'NONE', *, *, #171, .F. ) ;
#768 = EDGE_LOOP ( 'NONE', ( #415, #604, #979, #256 ) ) ;
#769 = DIRECTION ( 'NONE',  ( -0.000000000000000000, -0.000000000000000000, -1.000000000000000000 ) ) ;
#770 = VECTOR ( 'NONE', #688, 999.9999999999998863 ) ;
#771 = DIRECTION ( 'NONE',  ( 0.1872877420440056118, -0.6818528445933658144, 0.7071067811865427988 ) ) ;
#772 = TOROIDAL_SURFACE ( 'NONE', #315, 4.684999999999996056, 0.01000000000000000021 ) ;
#773 = CIRCLE ( 'NONE', #856, 15.05428932188134539 ) ;
#774 = AXIS2_PLACEMENT_3D ( 'NONE', #849, #275, #593 ) ;
#775 = ORIENTED_EDGE ( 'NONE', *, *, #781, .T. ) ;
#776 = CARTESIAN_POINT ( 'NONE',  ( -3.833918918918917118, -13.95803319680661758, -0.09999999999998933353 ) ) ;
#777 = EDGE_CURVE ( 'NONE', #133, #503, #549, .T. ) ;
#778 = LINE ( 'NONE', #192, #161 ) ;
#779 = ORIENTED_EDGE ( 'NONE', *, *, #657, .T. ) ;
#780 = CARTESIAN_POINT ( 'NONE',  ( -4.032567567567566513, -14.68124735208157716, -0.8499999999999999778 ) ) ;
#781 = EDGE_CURVE ( 'NONE', #120, #718, #375, .T. ) ;
#782 = CARTESIAN_POINT ( 'NONE',  ( -37.00000000000001421, 3.469446951953614189E-15, 0.8499999999999999778 ) ) ;
#783 = CARTESIAN_POINT ( 'NONE',  ( -37.00000000000001421, 3.469446951953614189E-15, -0.6085786437626906631 ) ) ;
#784 = AXIS2_PLACEMENT_3D ( 'NONE', #1002, #277, #1008 ) ;
#785 = CARTESIAN_POINT ( 'NONE',  ( -38.43689189189190358, -5.231249056488834981, -0.6085786437626914402 ) ) ;
#786 = AXIS2_PLACEMENT_3D ( 'NONE', #506, #497, #502 ) ;
#787 = EDGE_CURVE ( 'NONE', #503, #136, #758, .T. ) ;
#788 = CIRCLE ( 'NONE', #989, 4.674999999999998934 ) ;
#789 = AXIS2_PLACEMENT_3D ( 'NONE', #844, #915, #761 ) ;
#790 = ORIENTED_EDGE ( 'NONE', *, *, #670, .F. ) ;
#791 = DIRECTION ( 'NONE',  ( 1.000000000000000000, 0.000000000000000000, 0.000000000000000000 ) ) ;
#792 = DIRECTION ( 'NONE',  ( -1.000000000000000000, 0.000000000000000000, 0.000000000000000000 ) ) ;
#793 = DIRECTION ( 'NONE',  ( 1.000000000000000000, 0.000000000000000000, 0.000000000000000000 ) ) ;
#794 = VERTEX_POINT ( 'NONE', #26 ) ;
#795 = FACE_OUTER_BOUND ( 'NONE', #274, .T. ) ;
#796 = CARTESIAN_POINT ( 'NONE',  ( -37.00000000000001421, 3.469446951953614189E-15, 0.09585786437625527789 ) ) ;
#797 = VERTEX_POINT ( 'NONE', #605 ) ;
#798 = CARTESIAN_POINT ( 'NONE',  ( -37.00000000000001421, 3.469446951953614189E-15, -0.09585786437625511136 ) ) ;
#799 = PRODUCT_RELATED_PRODUCT_CATEGORY ( 'part', '', ( #681 ) ) ;
#800 = CYLINDRICAL_SURFACE ( 'NONE', #686, 5.424999999999998934 ) ;
#801 = DIRECTION ( 'NONE',  ( -1.000000000000000000, 0.000000000000000000, 0.000000000000000000 ) ) ;
#802 = AXIS2_PLACEMENT_3D ( 'NONE', #404, #1036, #716 ) ;
#803 = APPLICATION_CONTEXT ( 'automotive_design' ) ;
#804 = TOROIDAL_SURFACE ( 'NONE', #485, 15.12500000000000000, 0.1000000000000000056 ) ;
#805 = ORIENTED_EDGE ( 'NONE', *, *, #734, .T. ) ;
#806 = AXIS2_PLACEMENT_3D ( 'NONE', #747, #911, #328 ) ;
#807 = VERTEX_POINT ( 'NONE', #937 ) ;
#808 = CARTESIAN_POINT ( 'NONE',  ( -42.25428932188135889, 0.000000000000000000, -0.6792893218813429446 ) ) ;
#809 = LINE ( 'NONE', #482, #939 ) ;
#810 = EDGE_LOOP ( 'NONE', ( #805, #495, #696, #443 ) ) ;
#811 = ORIENTED_EDGE ( 'NONE', *, *, #890, .T. ) ;
#812 = DIRECTION ( 'NONE',  ( -1.000000000000000000, 0.000000000000000000, 0.000000000000000000 ) ) ;
#813 = CARTESIAN_POINT ( 'NONE',  ( -3.833918918918942875, 13.95803319680661403, 0.09585786437625565259 ) ) ;
#814 = EDGE_CURVE ( 'NONE', #374, #829, #181, .T. ) ;
#815 = ORIENTED_EDGE ( 'NONE', *, *, #109, .T. ) ;
#816 = DIRECTION ( 'NONE',  ( 5.244349587728892119E-16, -1.000000000000000000, -2.172280725060165274E-16 ) ) ;
#817 = ADVANCED_FACE ( 'NONE', ( #284 ), #96, .T. ) ;
#818 = ORIENTED_EDGE ( 'NONE', *, *, #21, .F. ) ;
#819 = MECHANICAL_DESIGN_GEOMETRIC_PRESENTATION_REPRESENTATION (  '', ( #735 ), #143 ) ;
#820 = AXIS2_PLACEMENT_3D ( 'NONE', #1020, #144, #621 ) ;
#821 = DIRECTION ( 'NONE',  ( 0.000000000000000000, 0.000000000000000000, 1.000000000000000000 ) ) ;
#822 = CIRCLE ( 'NONE', #132, 14.47500000000000142 ) ;
#823 = CARTESIAN_POINT ( 'NONE',  ( -37.00000000000001421, 3.469446951953614189E-15, -0.09999999999998933353 ) ) ;
#824 = ORIENTED_EDGE ( 'NONE', *, *, #524, .T. ) ;
#825 = ADVANCED_FACE ( 'NONE', ( #920 ), #129, .T. ) ;
#826 = ORIENTED_EDGE ( 'NONE', *, *, #441, .F. ) ;
#827 = DIRECTION ( 'NONE',  ( 0.000000000000000000, 0.000000000000000000, 1.000000000000000000 ) ) ;
#828 = CARTESIAN_POINT ( 'NONE',  ( -38.41040540540541315, -5.134820502452176250, 0.6085786437626874434 ) ) ;
#829 = VERTEX_POINT ( 'NONE', #107 ) ;
#830 = ORIENTED_EDGE ( 'NONE', *, *, #882, .F. ) ;
#831 = DIRECTION ( 'NONE',  ( -0.1872877420440035579, 0.6818528445933565996, -0.7071067811865522357 ) ) ;
#832 = EDGE_CURVE ( 'NONE', #197, #60, #431, .T. ) ;
#833 = LINE ( 'NONE', #748, #517 ) ;
#834 = ORIENTED_EDGE ( 'NONE', *, *, #860, .F. ) ;
#835 = ORIENTED_EDGE ( 'NONE', *, *, #4, .T. ) ;
#836 = DIRECTION ( 'NONE',  ( 1.000000000000000000, 0.000000000000000000, 0.000000000000000000 ) ) ;
#837 = TOROIDAL_SURFACE ( 'NONE', #921, 4.684999999999995168, 0.01000000000000000021 ) ;
#838 = AXIS2_PLACEMENT_3D ( 'NONE', #270, #588, #1014 ) ;
#839 = DIRECTION ( 'NONE',  ( -0.9642855403665988590, -0.2648648648648904702, -6.632822931361983493E-14 ) ) ;
#840 = AXIS2_PLACEMENT_3D ( 'NONE', #480, #1033, #633 ) ;
#841 = AXIS2_PLACEMENT_3D ( 'NONE', #868, #240, #227 ) ;
#842 = DIRECTION ( 'NONE',  ( -1.000000000000000000, 0.000000000000000000, 0.000000000000000000 ) ) ;
#843 = ORIENTED_EDGE ( 'NONE', *, *, #707, .F. ) ;
#844 = CARTESIAN_POINT ( 'NONE',  ( -42.32500000000000995, 6.395293920651715580E-17, 0.6085786437626887757 ) ) ;
#845 = FACE_OUTER_BOUND ( 'NONE', #724, .T. ) ;
#846 = EDGE_CURVE ( 'NONE', #526, #1039, #669, .T. ) ;
#847 = DIRECTION ( 'NONE',  ( -0.2648648648648905257, 0.9642855403665987479, 0.000000000000000000 ) ) ;
#848 = VERTEX_POINT ( 'NONE', #372 ) ;
#849 = CARTESIAN_POINT ( 'NONE',  ( -37.00000000000001421, 3.469446951953614189E-15, -0.1029289321881213526 ) ) ;
#850 = EDGE_CURVE ( 'NONE', #60, #94, #232, .T. ) ;
#851 = ORIENTED_EDGE ( 'NONE', *, *, #998, .T. ) ;
#852 = DIRECTION ( 'NONE',  ( -0.9642855403666057423, 0.2648648648648649351, 1.962615573354758093E-17 ) ) ;
#853 = AXIS2_PLACEMENT_3D ( 'NONE', #63, #561, #528 ) ;
#854 = PRESENTATION_STYLE_ASSIGNMENT (( #614 ) ) ;
#855 = VECTOR ( 'NONE', #515, 1000.000000000000227 ) ;
#856 = AXIS2_PLACEMENT_3D ( 'NONE', #666, #16, #970 ) ;
#857 = AXIS2_PLACEMENT_3D ( 'NONE', #798, #313, #1024 ) ;
#858 = ORIENTED_EDGE ( 'NONE', *, *, #850, .F. ) ;
#859 = CARTESIAN_POINT ( 'NONE',  ( 0.000000000000000000, 0.000000000000000000, 0.1029289321881291658 ) ) ;
#860 = EDGE_CURVE ( 'NONE', #718, #644, #196, .T. ) ;
#861 = DIRECTION ( 'NONE',  ( -0.000000000000000000, -0.000000000000000000, -1.000000000000000000 ) ) ;
#862 = EDGE_LOOP ( 'NONE', ( #851, #486, #15, #88 ) ) ;
#863 = CARTESIAN_POINT ( 'NONE',  ( 0.000000000000000000, 0.000000000000000000, -0.09585786437625720691 ) ) ;
#864 = DIRECTION ( 'NONE',  ( -0.000000000000000000, -0.000000000000000000, -1.000000000000000000 ) ) ;
#865 = EDGE_CURVE ( 'NONE', #829, #737, #360, .T. ) ;
#866 = DIRECTION ( 'NONE',  ( -0.000000000000000000, -0.000000000000000000, -1.000000000000000000 ) ) ;
#867 = ORIENTED_EDGE ( 'NONE', *, *, #233, .F. ) ;
#868 = CARTESIAN_POINT ( 'NONE',  ( -41.68500000000001648, -7.421276902574579274E-18, 0.09585786437625527789 ) ) ;
#869 = CARTESIAN_POINT ( 'NONE',  ( -3.836567567567555237, -13.96767605221028674, -0.09585786437625809508 ) ) ;
#870 = CARTESIAN_POINT ( 'NONE',  ( -38.39167663120101537, -5.066635217992836893, -0.6792893218813470524 ) ) ;
#871 = VECTOR ( 'NONE', #728, 1000.000000000000114 ) ;
#872 = AXIS2_PLACEMENT_3D ( 'NONE', #417, #816, #408 ) ;
#873 = ORIENTED_EDGE ( 'NONE', *, *, #701, .F. ) ;
#874 = DIRECTION ( 'NONE',  ( 1.000000000000000000, 0.000000000000000000, 0.000000000000000000 ) ) ;
#875 = DIRECTION ( 'NONE',  ( 0.000000000000000000, 0.000000000000000000, 1.000000000000000000 ) ) ;
#876 = DIRECTION ( 'NONE',  ( 0.9642855403665817615, -0.2648648648649528647, -1.334314577792748714E-13 ) ) ;
#877 = ADVANCED_FACE ( 'NONE', ( #198 ), #522, .T. ) ;
#878 = VERTEX_POINT ( 'NONE', #450 ) ;
#879 = CARTESIAN_POINT ( 'NONE',  ( -3.833918918918906460, -13.95803319680662113, 0.09585786437625370970 ) ) ;
#880 = CARTESIAN_POINT ( 'NONE',  ( -38.43689189189191069, 5.231249056488842086, 0.6085786437626888867 ) ) ;
#881 = CARTESIAN_POINT ( 'NONE',  ( -38.23824324324326085, 4.508034901213882506, -0.09585786437625573586 ) ) ;
#882 = EDGE_CURVE ( 'NONE', #878, #186, #48, .T. ) ;
#883 = ORIENTED_EDGE ( 'NONE', *, *, #777, .T. ) ;
#884 = DIRECTION ( 'NONE',  ( 0.9642855403666057423, 0.2648648648648648241, 0.000000000000000000 ) ) ;
#885 = DIRECTION ( 'NONE',  ( 0.000000000000000000, 0.000000000000000000, -1.000000000000000000 ) ) ;
#886 = AXIS2_PLACEMENT_3D ( 'NONE', #600, #924, #236 ) ;
#887 = ORIENTED_EDGE ( 'NONE', *, *, #781, .F. ) ;
#888 = CIRCLE ( 'NONE', #1022, 0.009999999999999242134 ) ;
#889 = CARTESIAN_POINT ( 'NONE',  ( -4.032567567567555855, -14.68124735208158071, 0.6085786437626891088 ) ) ;
#890 = EDGE_CURVE ( 'NONE', #829, #19, #11, .T. ) ;
#891 = CARTESIAN_POINT ( 'NONE',  ( -37.00000000000001421, 3.469446951953614189E-15, -0.09999999999998933353 ) ) ;
#892 = EDGE_LOOP ( 'NONE', ( #811, #1017, #498, #289 ) ) ;
#893 =( NAMED_UNIT ( * ) PLANE_ANGLE_UNIT ( ) SI_UNIT ( $, .RADIAN. ) );
#894 = ORIENTED_EDGE ( 'NONE', *, *, #185, .T. ) ;
#895 = DIRECTION ( 'NONE',  ( -0.9642855403666059644, -0.2648648648648641024, 8.773575306034408976E-15 ) ) ;
#896 = EDGE_CURVE ( 'NONE', #164, #100, #822, .T. ) ;
#897 = DIRECTION ( 'NONE',  ( -0.000000000000000000, -0.000000000000000000, -1.000000000000000000 ) ) ;
#898 = EDGE_LOOP ( 'NONE', ( #967, #455, #858, #378 ) ) ;
#899 = DIRECTION ( 'NONE',  ( -0.9642855403666057423, -0.2648648648648648241, -0.000000000000000000 ) ) ;
#900 = DIRECTION ( 'NONE',  ( -0.2648648648648943005, 0.9642855403665976377, 0.000000000000000000 ) ) ;
#901 = FACE_OUTER_BOUND ( 'NONE', #355, .T. ) ;
#902 = ADVANCED_FACE ( 'NONE', ( #964 ), #405, .F. ) ;
#903 = ORIENTED_EDGE ( 'NONE', *, *, #158, .T. ) ;
#904 = CIRCLE ( 'NONE', #601, 15.05428932188134361 ) ;
#905 = CARTESIAN_POINT ( 'NONE',  ( -3.836567567567592096, 13.96767605221028141, -0.09585786437625860856 ) ) ;
#906 = VECTOR ( 'NONE', #713, 999.9999999999998863 ) ;
#907 = DIRECTION ( 'NONE',  ( -0.9642855403665987479, 0.2648648648648905257, -6.957445217685253683E-14 ) ) ;
#908 = ORIENTED_EDGE ( 'NONE', *, *, #591, .T. ) ;
#909 = EDGE_CURVE ( 'NONE', #794, #436, #548, .T. ) ;
#910 = ORIENTED_EDGE ( 'NONE', *, *, #478, .T. ) ;
#911 = DIRECTION ( 'NONE',  ( 0.000000000000000000, 0.000000000000000000, 1.000000000000000000 ) ) ;
#912 = CARTESIAN_POINT ( 'NONE',  ( -38.23824324324326085, 4.508034901213882506, -0.09999999999998933353 ) ) ;
#913 = ORIENTED_EDGE ( 'NONE', *, *, #998, .F. ) ;
#914 = EDGE_LOOP ( 'NONE', ( #910, #835, #627, #507 ) ) ;
#915 = DIRECTION ( 'NONE',  ( -6.395293920651643597E-16, 1.000000000000000000, 1.543960531859828972E-15 ) ) ;
#916 = CARTESIAN_POINT ( 'NONE',  ( -38.24089189189191273, 4.517677756617547224, -0.09585786437625573586 ) ) ;
#917 = FACE_OUTER_BOUND ( 'NONE', #665, .T. ) ;
#918 = AXIS2_PLACEMENT_3D ( 'NONE', #225, #1026, #556 ) ;
#919 = ORIENTED_EDGE ( 'NONE', *, *, #303, .F. ) ;
#920 = FACE_OUTER_BOUND ( 'NONE', #1012, .T. ) ;
#921 = AXIS2_PLACEMENT_3D ( 'NONE', #510, #583, #335 ) ;
#922 = AXIS2_PLACEMENT_3D ( 'NONE', #951, #155, #316 ) ;
#923 = PRODUCT_DEFINITION_CONTEXT ( 'detailed design', #220, 'design' ) ;
#924 = DIRECTION ( 'NONE',  ( 0.9642855403666057423, 0.2648648648648647685, 0.000000000000000000 ) ) ;
#925 = ADVANCED_FACE ( 'NONE', ( #623 ), #950, .T. ) ;
#926 = VECTOR ( 'NONE', #1000, 999.9999999999998863 ) ;
#927 = PLANE ( 'NONE',  #500 ) ;
#928 = ORIENTED_EDGE ( 'NONE', *, *, #909, .F. ) ;
#929 = DIRECTION ( 'NONE',  ( -0.9642855403666057423, 0.2648648648648649906, 0.000000000000000000 ) ) ;
#930 = EDGE_CURVE ( 'NONE', #541, #936, #154, .T. ) ;
#931 = CARTESIAN_POINT ( 'NONE',  ( -38.23824324324326085, 4.508034901213882506, -0.09585786437625860856 ) ) ;
#932 = ORIENTED_EDGE ( 'NONE', *, *, #72, .F. ) ;
#933 = DIRECTION ( 'NONE',  ( 0.9642855403666059644, -0.2648648648648640469, 8.393387042772762699E-15 ) ) ;
#934 = CARTESIAN_POINT ( 'NONE',  ( -37.00000000000001421, 3.469446951953614189E-15, -0.1029289321881204922 ) ) ;
#935 = ADVANCED_FACE ( 'NONE', ( #322 ), #1038, .T. ) ;
#936 = VERTEX_POINT ( 'NONE', #217 ) ;
#937 = CARTESIAN_POINT ( 'NONE',  ( -41.67500000000001137, 0.000000000000000000, 0.09585786437625311296 ) ) ;
#938 = FACE_OUTER_BOUND ( 'NONE', #390, .T. ) ;
#939 = VECTOR ( 'NONE', #885, 1000.000000000000000 ) ;
#940 = AXIS2_PLACEMENT_3D ( 'NONE', #651, #895, #89 ) ;
#941 = ADVANCED_FACE ( 'NONE', ( #795 ), #618, .T. ) ;
#942 = ORIENTED_EDGE ( 'NONE', *, *, #565, .T. ) ;
#943 = CARTESIAN_POINT ( 'NONE',  ( -3.833918918918942875, 13.95803319680661403, 0.09999999999998933353 ) ) ;
#944 = CARTESIAN_POINT ( 'NONE',  ( -38.39167663120101537, -5.066635217992837781, 0.6792893218813426115 ) ) ;
#945 = ORIENTED_EDGE ( 'NONE', *, *, #598, .F. ) ;
#946 = LINE ( 'NONE', #222, #370 ) ;
#947 = DIRECTION ( 'NONE',  ( -0.9642855403666058534, -0.2648648648648648241, 0.000000000000000000 ) ) ;
#948 = DIRECTION ( 'NONE',  ( 0.2648648648649528092, 0.9642855403665815395, 0.000000000000000000 ) ) ;
#949 = ORIENTED_EDGE ( 'NONE', *, *, #968, .F. ) ;
#950 = PLANE ( 'NONE',  #117 ) ;
#951 = CARTESIAN_POINT ( 'NONE',  ( -37.00000000000001421, 3.469446951953614189E-15, -0.09585786437625573586 ) ) ;
#952 = VECTOR ( 'NONE', #763, 999.9999999999998863 ) ;
#953 = EDGE_CURVE ( 'NONE', #737, #751, #703, .T. ) ;
#954 = DIRECTION ( 'NONE',  ( -1.000000000000000000, 0.000000000000000000, 0.000000000000000000 ) ) ;
#955 = VECTOR ( 'NONE', #237, 1000.000000000000114 ) ;
#956 = CONICAL_SURFACE ( 'NONE', #385, 15.22499999999999964, 0.7853981633974426169 ) ;
#957 = PRODUCT_DEFINITION_FORMATION_WITH_SPECIFIED_SOURCE ( 'Symmetric', '', #681, .NOT_KNOWN. ) ;
#958 = ORIENTED_EDGE ( 'NONE', *, *, #208, .F. ) ;
#959 = LINE ( 'NONE', #943, #268 ) ;
#960 = CARTESIAN_POINT ( 'NONE',  ( -37.00000000000001421, 3.469446951953614189E-15, 0.6085786437626866663 ) ) ;
#961 = CARTESIAN_POINT ( 'NONE',  ( -42.42500000000001137, 0.000000000000000000, -0.6085786437626906631 ) ) ;
#962 = ADVANCED_FACE ( 'NONE', ( #52 ), #137, .T. ) ;
#963 = VERTEX_POINT ( 'NONE', #879 ) ;
#964 = FACE_OUTER_BOUND ( 'NONE', #338, .T. ) ;
#965 = DIRECTION ( 'NONE',  ( 1.000000000000000000, 0.000000000000000000, 0.000000000000000000 ) ) ;
#966 = CARTESIAN_POINT ( 'NONE',  ( -4.006081081081081408, -14.58481879804491577, -0.6085786437626921064 ) ) ;
#967 = ORIENTED_EDGE ( 'NONE', *, *, #233, .T. ) ;
#968 = EDGE_CURVE ( 'NONE', #136, #186, #305, .T. ) ;
#969 = APPLICATION_PROTOCOL_DEFINITION ( 'draft international standard', 'automotive_design', 1998, #803 ) ;
#970 = DIRECTION ( 'NONE',  ( 1.000000000000000000, 0.000000000000000000, 0.000000000000000000 ) ) ;
#971 = CYLINDRICAL_SURFACE ( 'NONE', #209, 0.1000000000000005607 ) ;
#972 = CIRCLE ( 'NONE', #501, 0.1000000000000003941 ) ;
#973 = TOROIDAL_SURFACE ( 'NONE', #702, 14.48500000000000121, 0.01000000000000000021 ) ;
#974 = ORIENTED_EDGE ( 'NONE', *, *, #410, .T. ) ;
#975 = AXIS2_PLACEMENT_3D ( 'NONE', #1018, #539, #620 ) ;
#976 = ADVANCED_FACE ( 'NONE', ( #719 ), #54, .F. ) ;
#977 = LINE ( 'NONE', #244, #213 ) ;
#978 = DIRECTION ( 'NONE',  ( 0.9642855403666059644, -0.2648648648648641024, 3.450939620373505614E-15 ) ) ;
#979 = ORIENTED_EDGE ( 'NONE', *, *, #36, .F. ) ;
#980 = EDGE_LOOP ( 'NONE', ( #779, #479, #919, #12 ) ) ;
#981 = DIRECTION ( 'NONE',  ( -1.000000000000000000, 0.000000000000000000, 0.000000000000000000 ) ) ;
#982 = DIRECTION ( 'NONE',  ( 0.2648648648649528092, 0.9642855403665815395, 0.000000000000000000 ) ) ;
#983 = VERTEX_POINT ( 'NONE', #70 ) ;
#984 = DIRECTION ( 'NONE',  ( 0.000000000000000000, 0.000000000000000000, 1.000000000000000000 ) ) ;
#985 = CARTESIAN_POINT ( 'NONE',  ( -3.833918918918917118, -13.95803319680661758, -0.09585786437625798406 ) ) ;
#986 = EDGE_CURVE ( 'NONE', #226, #164, #959, .T. ) ;
#987 = ORIENTED_EDGE ( 'NONE', *, *, #787, .T. ) ;
#988 = CARTESIAN_POINT ( 'NONE',  ( -41.67792893218814498, 0.000000000000000000, -0.1029289321881214359 ) ) ;
#989 = AXIS2_PLACEMENT_3D ( 'NONE', #56, #150, #555 ) ;
#990 = ORIENTED_EDGE ( 'NONE', *, *, #676, .T. ) ;
#991 = AXIS2_PLACEMENT_3D ( 'NONE', #694, #769, #673 ) ;
#992 = DIRECTION ( 'NONE',  ( 0.000000000000000000, 0.000000000000000000, 1.000000000000000000 ) ) ;
#993 = EDGE_LOOP ( 'NONE', ( #867, #603, #97, #148 ) ) ;
#994 = ORIENTED_EDGE ( 'NONE', *, *, #638, .F. ) ;
#995 = DIRECTION ( 'NONE',  ( 0.000000000000000000, 0.000000000000000000, 1.000000000000000000 ) ) ;
#996 = LINE ( 'NONE', #276, #452 ) ;
#997 = ORIENTED_EDGE ( 'NONE', *, *, #488, .F. ) ;
#998 = EDGE_CURVE ( 'NONE', #807, #374, #687, .T. ) ;
#999 = EDGE_LOOP ( 'NONE', ( #76, #648, #40, #86 ) ) ;
#1000 = DIRECTION ( 'NONE',  ( 0.9642855403666057423, 0.2648648648648648241, 0.000000000000000000 ) ) ;
#1001 = DIRECTION ( 'NONE',  ( 0.9642855403665816505, 0.2648648648649528647, 1.009418117241072948E-13 ) ) ;
#1002 = CARTESIAN_POINT ( 'NONE',  ( -37.00000000000001421, 3.469446951953614189E-15, 0.1029289321881187574 ) ) ;
#1003 = VERTEX_POINT ( 'NONE', #379 ) ;
#1004 = DIRECTION ( 'NONE',  ( -0.000000000000000000, -0.000000000000000000, -1.000000000000000000 ) ) ;
#1005 = EDGE_CURVE ( 'NONE', #436, #609, #585, .T. ) ;
#1006 = DIRECTION ( 'NONE',  ( 1.000000000000000000, 0.000000000000000000, 0.000000000000000000 ) ) ;
#1007 = AXIS2_PLACEMENT_3D ( 'NONE', #326, #563, #416 ) ;
#1008 = DIRECTION ( 'NONE',  ( -1.000000000000000000, 0.000000000000000000, 0.000000000000000000 ) ) ;
#1009 = ORIENTED_EDGE ( 'NONE', *, *, #95, .T. ) ;
#1010 = CARTESIAN_POINT ( 'NONE',  ( -4.006081081081069861, -14.58481879804491932, -0.6085786437626921064 ) ) ;
#1011 = EDGE_CURVE ( 'NONE', #672, #81, #946, .T. ) ;
#1012 = EDGE_LOOP ( 'NONE', ( #383, #442, #590, #741 ) ) ;
#1013 = ADVANCED_BREP_SHAPE_REPRESENTATION ( 'Belt1-1', ( #327, #1007 ), #420 ) ;
#1014 = DIRECTION ( 'NONE',  ( 0.000000000000000000, -1.127215510189270039E-15, 1.000000000000000000 ) ) ;
#1015 = FACE_OUTER_BOUND ( 'NONE', #239, .T. ) ;
#1016 = ADVANCED_FACE ( 'NONE', ( #142 ), #347, .T. ) ;
#1017 = ORIENTED_EDGE ( 'NONE', *, *, #345, .F. ) ;
#1018 = CARTESIAN_POINT ( 'NONE',  ( 0.000000000000000000, 0.000000000000000000, 0.6085786437626891088 ) ) ;
#1019 = AXIS2_PLACEMENT_3D ( 'NONE', #511, #680, #842 ) ;
#1020 = CARTESIAN_POINT ( 'NONE',  ( -37.00000000000001421, 3.469446951953614189E-15, 0.6792893218813440548 ) ) ;
#1021 = VECTOR ( 'NONE', #637, 1000.000000000000000 ) ;
#1022 = AXIS2_PLACEMENT_3D ( 'NONE', #905, #257, #900 ) ;
#1023 = ORIENTED_EDGE ( 'NONE', *, *, #529, .T. ) ;
#1024 = DIRECTION ( 'NONE',  ( 1.000000000000000000, 0.000000000000000000, 0.000000000000000000 ) ) ;
#1025 = CARTESIAN_POINT ( 'NONE',  ( -38.43689189189191069, 5.231249056488842086, -0.8499999999999999778 ) ) ;
#1026 = DIRECTION ( 'NONE',  ( -0.000000000000000000, -0.000000000000000000, -1.000000000000000000 ) ) ;
#1027 = ORIENTED_EDGE ( 'NONE', *, *, #896, .T. ) ;
#1028 = DIRECTION ( 'NONE',  ( -0.000000000000000000, -0.000000000000000000, -1.000000000000000000 ) ) ;
#1029 = EDGE_CURVE ( 'NONE', #255, #136, #602, .T. ) ;
#1030 = PLANE ( 'NONE',  #668 ) ;
#1031 = CARTESIAN_POINT ( 'NONE',  ( -41.67500000000001137, 0.000000000000000000, -0.09999999999998933353 ) ) ;
#1032 = VERTEX_POINT ( 'NONE', #725 ) ;
#1033 = DIRECTION ( 'NONE',  ( -0.000000000000000000, -0.000000000000000000, -1.000000000000000000 ) ) ;
#1034 = CARTESIAN_POINT ( 'NONE',  ( -38.23824324324326085, 4.508034901213882506, 0.09999999999998933353 ) ) ;
#1035 = CONICAL_SURFACE ( 'NONE', #333, 14.47500000000000142, 0.7853981633974403964 ) ;
#1036 = DIRECTION ( 'NONE',  ( 0.000000000000000000, 0.000000000000000000, 1.000000000000000000 ) ) ;
#1037 = AXIS2_PLACEMENT_3D ( 'NONE', #62, #875, #219 ) ;
#1038 = TOROIDAL_SURFACE ( 'NONE', #857, 4.684999999999995168, 0.01000000000000000021 ) ;
#1039 = VERTEX_POINT ( 'NONE', #988 ) ;
#1040 = DIRECTION ( 'NONE',  ( 0.000000000000000000, 0.000000000000000000, -1.000000000000000000 ) ) ;
#1041 = DIRECTION ( 'NONE',  ( 0.000000000000000000, 0.000000000000000000, 1.000000000000000000 ) ) ;
#1042 = CARTESIAN_POINT ( 'NONE',  ( -38.39167663120102247, 5.066635217992841334, 0.6792893218813466083 ) ) ;
#1043 = EDGE_CURVE ( 'NONE', #794, #255, #173, .T. ) ;
ENDSEC;
END-ISO-10303-21;
