ISO-10303-21;
HEADER;
FILE_DESCRIPTION (( 'STEP AP214' ),
    '1' );
FILE_NAME ('Belt and Pulley Assembly.STEP',
    '2025-07-14T09:37:29',
    ( '' ),
    ( '' ),
    'SwSTEP 2.0',
    'SolidWorks 2025',
    '' );
FILE_SCHEMA (( 'AUTOMOTIVE_DESIGN' ));
ENDSEC;

DATA;
#1 = PRODUCT_DEFINITION_SHAPE ( 'NONE', 'NONE',  #134 ) ;
#2 = DOCUMENT_FILE ( 'Part3.STEP' , '', '', #470, '' ,$ ) ;
#3 = DIRECTION ( 'NONE',  ( 0.9820818503191364179, -1.040834085586084257E-17, -0.1884548733085492089 ) ) ;
#4 = EXTERNAL_SOURCE (IDENTIFIER('') ) ;
#5 = PRODUCT_RELATED_PRODUCT_CATEGORY ( 'part', '', ( #272 ) ) ;
#6 = PROPERTY_DEFINITION_REPRESENTATION ( #588, #247 ) ;
#7 = DIRECTION ( 'NONE',  ( -1.015710556107955785E-17, 1.893194945430485292E-16, -1.000000000000000000 ) ) ;
#8 = AXIS2_PLACEMENT_3D ( 'NONE', #692, #80, #179 ) ;
#9 = APPLIED_EXTERNAL_IDENTIFICATION_ASSIGNMENT ( 'ISO 7045 - M2 x 3 - Z - 3N_ISO 7045 - M2 x 3 - Z - 3N.STEP' , #300, #151,( #534) ) ;
#10 = PRODUCT_DEFINITION_CONTEXT ( 'detailed design', #156, 'design' ) ;
#11 = APPLICATION_CONTEXT ( 'automotive_design' ) ;
#12 = CARTESIAN_POINT ( 'NONE',  ( 61.42499999998574367, 17.25000000000528289, -6.050000000000003375 ) ) ;
#13 =( LENGTH_UNIT ( ) NAMED_UNIT ( * ) SI_UNIT ( .MILLI., .METRE. ) );
#14 = PROPERTY_DEFINITION_REPRESENTATION ( #655, #581 ) ;
#15 = APPLICATION_CONTEXT ( 'automotive_design' ) ;
#16 = DIRECTION ( 'NONE',  ( 1.000000000000000000, 0.000000000000000000, 0.000000000000000000 ) ) ;
#17 = OBJECT_ROLE ('mandatory',$ ) ;
#18 = DIRECTION ( 'NONE',  ( 1.000000000000000000, 0.000000000000000000, 0.000000000000000000 ) ) ;
#19 = ITEM_DEFINED_TRANSFORMATION ( 'NONE', 'NONE', #8,  #516 ) ;
#20 = PRODUCT ( 'Part3', 'Part3', '', ( #142 ) ) ;
#21 =( NAMED_UNIT ( * ) PLANE_ANGLE_UNIT ( ) SI_UNIT ( $, .RADIAN. ) );
#22 =( REPRESENTATION_RELATIONSHIP ('NONE','NONE', #654, #678 ) REPRESENTATION_RELATIONSHIP_WITH_TRANSFORMATION ( #218 )SHAPE_REPRESENTATION_RELATIONSHIP( ) );
#23 = APPLIED_EXTERNAL_IDENTIFICATION_ASSIGNMENT ( 'ISO 10673-1.75-S_ISO 10673-1.75-S.STEP' , #528, #54,( #571) ) ;
#24 = APPLICATION_PROTOCOL_DEFINITION ( 'draft international standard', 'automotive_design', 1998, #45 ) ;
#25 = IDENTIFICATION_ROLE ( 'external document id and location', $) ;
#26 = PROPERTY_DEFINITION ('external definition','', #315 ) ;
#27 = APPLIED_DOCUMENT_REFERENCE ( #406,'',( #134) ) ;
#28 = APPLICATION_PROTOCOL_DEFINITION ( 'draft international standard', 'automotive_design', 1998, #497 ) ;
#29 = CONTEXT_DEPENDENT_SHAPE_REPRESENTATION ( #256, #316 ) ;
#30 =( NAMED_UNIT ( * ) SI_UNIT ( $, .STERADIAN. ) SOLID_ANGLE_UNIT ( ) );
#31 = SHAPE_REPRESENTATION ( 'ISO 2341 - B - 3 x 10 x .8 - St_ISO 2341 - B - 3 x 10 x .8 - St', ( #540 ), #305 ) ;
#32 = AXIS2_PLACEMENT_3D ( 'NONE', #502, #404, #326 ) ;
#33 = APPLICATION_CONTEXT ( 'automotive_design' ) ;
#34 = PROPERTY_DEFINITION_REPRESENTATION ( #610, #197 ) ;
#35 = DIRECTION ( 'NONE',  ( 0.000000000000000000, 0.000000000000000000, 1.000000000000000000 ) ) ;
#36 = OBJECT_ROLE ('mandatory',$ ) ;
#37 = PROPERTY_DEFINITION ('external definition','', #518 ) ;
#38 = DOCUMENT_FILE ( 'ISO 7045 - M2 x 3 - Z - 3N_ISO 7045 - M2 x 3 - Z - 3N.STEP' , '', '', #219, '' ,$ ) ;
#39 = PRODUCT_DEFINITION_CONTEXT ( 'detailed design', #11, 'design' ) ;
#40 = APPLICATION_CONTEXT ( 'automotive_design' ) ;
#41 =( GEOMETRIC_REPRESENTATION_CONTEXT ( 3 ) GLOBAL_UNCERTAINTY_ASSIGNED_CONTEXT ( ( #643 ) ) GLOBAL_UNIT_ASSIGNED_CONTEXT ( ( #283, #128, #569 ) ) REPRESENTATION_CONTEXT ( 'NONE', 'WORKASPACE' ) );
#42 = IDENTIFICATION_ROLE ( 'external document id and location', $) ;
#43 = APPLIED_EXTERNAL_IDENTIFICATION_ASSIGNMENT ( 'Part5.STEP' , #42, #4,( #416) ) ;
#44 = DOCUMENT_FILE ( 'Part3.STEP' , '', '', #520, '' ,$ ) ;
#45 = APPLICATION_CONTEXT ( 'automotive_design' ) ;
#46 = PROPERTY_DEFINITION ('document property','', #416 ) ;
#47 = PROPERTY_DEFINITION_REPRESENTATION ( #522, #684 ) ;
#48 = PRODUCT_RELATED_PRODUCT_CATEGORY ( 'part', '', ( #585 ) ) ;
#49 = EXTERNAL_SOURCE (IDENTIFIER('') ) ;
#50 = PROPERTY_DEFINITION ('document property','', #257 ) ;
#51 = DOCUMENT_TYPE ( 'geometry' ) ;
#52 = PRODUCT_DEFINITION_SHAPE ( 'NONE', 'NONE',  #550 ) ;
#53 = AXIS2_PLACEMENT_3D ( 'NONE', #668, #624, #16 ) ;
#54 = EXTERNAL_SOURCE (IDENTIFIER('') ) ;
#55 = DIRECTION ( 'NONE',  ( 1.000000000000000000, 0.000000000000000000, 0.000000000000000000 ) ) ;
#56 = SHAPE_REPRESENTATION ( 'Part2', ( #503 ), #253 ) ;
#57 = PROPERTY_DEFINITION_REPRESENTATION ( #703, #247 ) ;
#58 = PROPERTY_DEFINITION ('external definition','', #257 ) ;
#59 = DIRECTION ( 'NONE',  ( 1.000000000000000000, 0.000000000000000000, 0.000000000000000000 ) ) ;
#60 = PRODUCT ( 'Belt and Pulley Assembly', 'Belt and Pulley Assembly', '', ( #110 ) ) ;
#61 =( REPRESENTATION_RELATIONSHIP ('NONE','NONE', #654, #631 ) REPRESENTATION_RELATIONSHIP_WITH_TRANSFORMATION ( #662 )SHAPE_REPRESENTATION_RELATIONSHIP( ) );
#62 = CARTESIAN_POINT ( 'NONE',  ( 61.42500000000001137, 17.25000000000000000, -6.050000000000003375 ) ) ;
#63 = APPLIED_EXTERNAL_IDENTIFICATION_ASSIGNMENT ( 'Part3.STEP' , #171, #269,( #169) ) ;
#64 = DOCUMENT_FILE ( 'Part2.STEP' , '', '', #275, '' ,$ ) ;
#65 = DIRECTION ( 'NONE',  ( 2.948342975641417288E-17, -0.2829836251474256992, -0.9591247405308765961 ) ) ;
#66 =( REPRESENTATION_RELATIONSHIP ('NONE','NONE', #654, #197 ) REPRESENTATION_RELATIONSHIP_WITH_TRANSFORMATION ( #541 )SHAPE_REPRESENTATION_RELATIONSHIP( ) );
#67 = PROPERTY_DEFINITION ('document property','', #44 ) ;
#68 = PROPERTY_DEFINITION_REPRESENTATION ( #91, #197 ) ;
#69 = PRODUCT_CONTEXT ( 'NONE', #483, 'mechanical' ) ;
#70 = CARTESIAN_POINT ( 'NONE',  ( 0.000000000000000000, 0.000000000000000000, 0.000000000000000000 ) ) ;
#71 = APPLICATION_CONTEXT ( 'automotive_design' ) ;
#72 = PRODUCT_DEFINITION_SHAPE ( 'NONE', 'NONE',  #303 ) ;
#73 = CARTESIAN_POINT ( 'NONE',  ( 61.42500000000001137, 17.25000000000000000, -9.499999999999998224 ) ) ;
#74 =( GEOMETRIC_REPRESENTATION_CONTEXT ( 3 ) GLOBAL_UNCERTAINTY_ASSIGNED_CONTEXT ( ( #190 ) ) GLOBAL_UNIT_ASSIGNED_CONTEXT ( ( #617, #496, #323 ) ) REPRESENTATION_CONTEXT ( 'NONE', 'WORKASPACE' ) );
#75 = AXIS2_PLACEMENT_3D ( 'NONE', #131, #642, #586 ) ;
#76 = AXIS2_PLACEMENT_3D ( 'NONE', #73, #572, #411 ) ;
#77 = APPLIED_EXTERNAL_IDENTIFICATION_ASSIGNMENT ( 'Part1.STEP' , #226, #671,( #320) ) ;
#78 = ITEM_DEFINED_TRANSFORMATION ( 'NONE', 'NONE', #649,  #252 ) ;
#79 = IDENTIFICATION_ROLE ( 'external document id and location', $) ;
#80 = DIRECTION ( 'NONE',  ( 0.9183650514339934956, 0.000000000000000000, -0.3957342950827467121 ) ) ;
#81 = PRODUCT_DEFINITION ( 'General', '', #603, #422 ) ;
#82 = PROPERTY_DEFINITION ('document property','', #374 ) ;
#83 = CONTEXT_DEPENDENT_SHAPE_REPRESENTATION ( #430, #392 ) ;
#84 = APPLICATION_PROTOCOL_DEFINITION ( 'draft international standard', 'automotive_design', 1998, #106 ) ;
#85 =( REPRESENTATION_RELATIONSHIP ('NONE','NONE', #654, #354 ) REPRESENTATION_RELATIONSHIP_WITH_TRANSFORMATION ( #331 )SHAPE_REPRESENTATION_RELATIONSHIP( ) );
#86 = ITEM_DEFINED_TRANSFORMATION ( 'NONE', 'NONE', #76,  #686 ) ;
#87 = PROPERTY_DEFINITION ('document property','', #169 ) ;
#88 = DIRECTION ( 'NONE',  ( 0.4972514640975452260, -5.551115123125782702E-17, -0.8676064669265943774 ) ) ;
#89 = UNCERTAINTY_MEASURE_WITH_UNIT (LENGTH_MEASURE( 1.000000000000000082E-05 ), #622, 'distance_accuracy_value', 'NONE');
#90 =( REPRESENTATION_RELATIONSHIP ('NONE','NONE', #654, #455 ) REPRESENTATION_RELATIONSHIP_WITH_TRANSFORMATION ( #660 )SHAPE_REPRESENTATION_RELATIONSHIP( ) );
#91 = PROPERTY_DEFINITION ('document property','', #513 ) ;
#92 = ROLE_ASSOCIATION ( #664, #595 ) ;
#93 = OBJECT_ROLE ('mandatory',$ ) ;
#94 = ITEM_DEFINED_TRANSFORMATION ( 'NONE', 'NONE', #519,  #452 ) ;
#95 =( NAMED_UNIT ( * ) SI_UNIT ( $, .STERADIAN. ) SOLID_ANGLE_UNIT ( ) );
#96 = SHAPE_DEFINITION_REPRESENTATION ( #577, #631 ) ;
#97 = EXTERNAL_SOURCE (IDENTIFIER('') ) ;
#98 = DIRECTION ( 'NONE',  ( 1.000000000000000000, 0.000000000000000000, 0.000000000000000000 ) ) ;
#99 = PRODUCT_DEFINITION_SHAPE ( 'NONE', 'NONE',  #723 ) ;
#100 = AXIS2_PLACEMENT_3D ( 'NONE', #70, #35, #294 ) ;
#101 = PROPERTY_DEFINITION_REPRESENTATION ( #355, #197 ) ;
#102 = PROPERTY_DEFINITION_REPRESENTATION ( #547, #197 ) ;
#103 = PROPERTY_DEFINITION_REPRESENTATION ( #26, #631 ) ;
#104 = EXTERNAL_SOURCE (IDENTIFIER('') ) ;
#105 = PROPERTY_DEFINITION_REPRESENTATION ( #347, #56 ) ;
#106 = APPLICATION_CONTEXT ( 'automotive_design' ) ;
#107 = PRODUCT ( 'ISO 2341 - B - 3 x 10 x .8 - St_ISO 2341 - B - 3 x 10 x .8 - St', 'ISO 2341 - B - 3 x 10 x .8 - St_ISO 2341 - B - 3 x 10 x .8 - St', '', ( #69 ) ) ;
#108 = PROPERTY_DEFINITION_REPRESENTATION ( #87, #684 ) ;
#109 =( GEOMETRIC_REPRESENTATION_CONTEXT ( 3 ) GLOBAL_UNCERTAINTY_ASSIGNED_CONTEXT ( ( #674 ) ) GLOBAL_UNIT_ASSIGNED_CONTEXT ( ( #173, #200, #215 ) ) REPRESENTATION_CONTEXT ( 'NONE', 'WORKASPACE' ) );
#110 = PRODUCT_CONTEXT ( 'NONE', #71, 'mechanical' ) ;
#111 = PROPERTY_DEFINITION_REPRESENTATION ( #645, #684 ) ;
#112 = EXTERNAL_SOURCE (IDENTIFIER('') ) ;
#113 = PRODUCT_DEFINITION_CONTEXT ( 'detailed design', #166, 'design' ) ;
#114 = DIRECTION ( 'NONE',  ( 0.000000000000000000, 0.000000000000000000, 1.000000000000000000 ) ) ;
#115 = PROPERTY_DEFINITION_REPRESENTATION ( #527, #684 ) ;
#116 = APPLICATION_CONTEXT ( 'automotive_design' ) ;
#117 =( GEOMETRIC_REPRESENTATION_CONTEXT ( 3 ) GLOBAL_UNCERTAINTY_ASSIGNED_CONTEXT ( ( #299 ) ) GLOBAL_UNIT_ASSIGNED_CONTEXT ( ( #334, #604, #548 ) ) REPRESENTATION_CONTEXT ( 'NONE', 'WORKASPACE' ) );
#118 = AXIS2_PLACEMENT_3D ( 'NONE', #562, #7, #266 ) ;
#119 = PRODUCT_DEFINITION_FORMATION_WITH_SPECIFIED_SOURCE ( 'Symmetric', '', #515, .NOT_KNOWN. ) ;
#120 = EXTERNAL_SOURCE (IDENTIFIER('') ) ;
#121 = CONTEXT_DEPENDENT_SHAPE_REPRESENTATION ( #628, #433 ) ;
#122 = DIRECTION ( 'NONE',  ( 2.139442859397358773E-16, 2.985508103159997733E-16, -1.000000000000000000 ) ) ;
#123 = PRODUCT ( 'Part1', 'Part1', '', ( #605 ) ) ;
#124 = ROLE_ASSOCIATION ( #389, #580 ) ;
#125 = IDENTIFICATION_ROLE ( 'external document id and location', $) ;
#126 = PRODUCT_CONTEXT ( 'NONE', #619, 'mechanical' ) ;
#127 = SHAPE_REPRESENTATION ( 'Part5', ( #263 ), #330 ) ;
#128 =( NAMED_UNIT ( * ) PLANE_ANGLE_UNIT ( ) SI_UNIT ( $, .RADIAN. ) );
#129 = PROPERTY_DEFINITION_REPRESENTATION ( #424, #678 ) ;
#130 = PRODUCT_DEFINITION_SHAPE ( 'NONE', 'NONE',  #382 ) ;
#131 = CARTESIAN_POINT ( 'NONE',  ( 11.79999999999997762, 2.349999999999994316, -14.49999999999999467 ) ) ;
#132 = APPLICATION_CONTEXT ( 'automotive_design' ) ;
#133 =( GEOMETRIC_REPRESENTATION_CONTEXT ( 3 ) GLOBAL_UNCERTAINTY_ASSIGNED_CONTEXT ( ( #143 ) ) GLOBAL_UNIT_ASSIGNED_CONTEXT ( ( #432, #663, #596 ) ) REPRESENTATION_CONTEXT ( 'NONE', 'WORKASPACE' ) );
#134 = PRODUCT_DEFINITION ( 'General', '', #279, #560 ) ;
#135 = PRODUCT_DEFINITION ( 'General', '', #661, #39 ) ;
#136 = ROLE_ASSOCIATION ( #459, #472 ) ;
#137 = DIRECTION ( 'NONE',  ( 1.214306433183764966E-17, -1.000000000000000000, 0.000000000000000000 ) ) ;
#138 = PRODUCT_DEFINITION_SHAPE ( 'NONE', 'NONE',  #708 ) ;
#139 = ROLE_ASSOCIATION ( #606, #525 ) ;
#140 = IDENTIFICATION_ROLE ( 'external document id and location', $) ;
#141 = PRODUCT_DEFINITION_SHAPE ( 'NONE', 'NONE',  #717 ) ;
#142 = PRODUCT_CONTEXT ( 'NONE', #176, 'mechanical' ) ;
#143 = UNCERTAINTY_MEASURE_WITH_UNIT (LENGTH_MEASURE( 1.000000000000000082E-05 ), #432, 'distance_accuracy_value', 'NONE');
#144 = ROLE_ASSOCIATION ( #17, #650 ) ;
#145 = APPLICATION_CONTEXT ( 'automotive_design' ) ;
#146 = SHAPE_DEFINITION_REPRESENTATION ( #363, #56 ) ;
#147 = DOCUMENT_TYPE ( 'geometry' ) ;
#148 = PROPERTY_DEFINITION_REPRESENTATION ( #67, #684 ) ;
#149 =( NAMED_UNIT ( * ) PLANE_ANGLE_UNIT ( ) SI_UNIT ( $, .RADIAN. ) );
#150 = PROPERTY_DEFINITION ('external definition','', #406 ) ;
#151 = EXTERNAL_SOURCE (IDENTIFIER('') ) ;
#152 =( GEOMETRIC_REPRESENTATION_CONTEXT ( 3 ) GLOBAL_UNCERTAINTY_ASSIGNED_CONTEXT ( ( #89 ) ) GLOBAL_UNIT_ASSIGNED_CONTEXT ( ( #622, #627, #350 ) ) REPRESENTATION_CONTEXT ( 'NONE', 'WORKASPACE' ) );
#153 = APPLIED_EXTERNAL_IDENTIFICATION_ASSIGNMENT ( 'ISO 2341 - B - 3 x 10 x .8 - St_ISO 2341 - B - 3 x 10 x .8 - St.STEP' , #405, #593,( #583) ) ;
#154 = SHAPE_DEFINITION_REPRESENTATION ( #407, #197 ) ;
#155 =( LENGTH_UNIT ( ) NAMED_UNIT ( * ) SI_UNIT ( .MILLI., .METRE. ) );
#156 = APPLICATION_CONTEXT ( 'automotive_design' ) ;
#157 = CARTESIAN_POINT ( 'NONE',  ( 0.000000000000000000, 0.000000000000000000, 0.000000000000000000 ) ) ;
#158 = PRODUCT_RELATED_PRODUCT_CATEGORY ( 'part', '', ( #690 ) ) ;
#159 = APPLIED_DOCUMENT_REFERENCE ( #665,'',( #677) ) ;
#160 = DIRECTION ( 'NONE',  ( 1.127570259384924611E-17, -1.000000000000000000, 0.000000000000000000 ) ) ;
#161 = OBJECT_ROLE ('mandatory',$ ) ;
#162 = PRODUCT_DEFINITION_SHAPE ( 'NONE', 'NONE',  #724 ) ;
#163 = PRODUCT ( 'Part5', 'Part5', '', ( #238 ) ) ;
#164 = APPLIED_EXTERNAL_IDENTIFICATION_ASSIGNMENT ( 'Part4.STEP' , #514, #233,( #518) ) ;
#165 = PRODUCT_DEFINITION_FORMATION_WITH_SPECIFIED_SOURCE ( 'Symmetric', '', #123, .NOT_KNOWN. ) ;
#166 = APPLICATION_CONTEXT ( 'automotive_design' ) ;
#167 = DIRECTION ( 'NONE',  ( 0.000000000000000000, 0.000000000000000000, 1.000000000000000000 ) ) ;
#168 = PRODUCT_DEFINITION_CONTEXT ( 'detailed design', #290, 'design' ) ;
#169 = DOCUMENT_FILE ( 'Part3.STEP' , '', '', #260, '' ,$ ) ;
#170 = APPLIED_DOCUMENT_REFERENCE ( #513,'',( #178) ) ;
#171 = IDENTIFICATION_ROLE ( 'external document id and location', $) ;
#172 = DIRECTION ( 'NONE',  ( 1.000000000000000000, 0.000000000000000000, 0.000000000000000000 ) ) ;
#173 =( LENGTH_UNIT ( ) NAMED_UNIT ( * ) SI_UNIT ( .MILLI., .METRE. ) );
#174 = CONTEXT_DEPENDENT_SHAPE_REPRESENTATION ( #537, #162 ) ;
#175 = DIRECTION ( 'NONE',  ( 1.000000000000000000, 0.000000000000000000, 0.000000000000000000 ) ) ;
#176 = APPLICATION_CONTEXT ( 'automotive_design' ) ;
#177 = PRODUCT_DEFINITION_SHAPE ( 'NONE', 'NONE',  #600 ) ;
#178 = PRODUCT_DEFINITION ( 'General', '', #343, #621 ) ;
#179 = DIRECTION ( 'NONE',  ( 1.214306433183764966E-17, -1.000000000000000000, 0.000000000000000000 ) ) ;
#180 = IDENTIFICATION_ROLE ( 'external document id and location', $) ;
#181 = ITEM_DEFINED_TRANSFORMATION ( 'NONE', 'NONE', #217,  #263 ) ;
#182 = PRODUCT ( 'Part2', 'Part2', '', ( #544 ) ) ;
#183 = APPLICATION_PROTOCOL_DEFINITION ( 'draft international standard', 'automotive_design', 1998, #166 ) ;
#184 = PRODUCT_DEFINITION_FORMATION_WITH_SPECIFIED_SOURCE ( 'Symmetric', '', #163, .NOT_KNOWN. ) ;
#185 = EXTERNAL_SOURCE (IDENTIFIER('') ) ;
#186 = PROPERTY_DEFINITION_REPRESENTATION ( #377, #247 ) ;
#187 = OBJECT_ROLE ('mandatory',$ ) ;
#188 = PRODUCT_CONTEXT ( 'NONE', #106, 'mechanical' ) ;
#189 = UNCERTAINTY_MEASURE_WITH_UNIT (LENGTH_MEASURE( 1.000000000000000082E-05 ), #155, 'distance_accuracy_value', 'NONE');
#190 = UNCERTAINTY_MEASURE_WITH_UNIT (LENGTH_MEASURE( 1.000000000000000082E-05 ), #617, 'distance_accuracy_value', 'NONE');
#191 = PRODUCT_DEFINITION_SHAPE ( 'NONE', 'NONE',  #715 ) ;
#192 = ROLE_ASSOCIATION ( #284, #312 ) ;
#193 = CARTESIAN_POINT ( 'NONE',  ( 61.42500000000001137, 2.349999999999998312, -3.900000000000001243 ) ) ;
#194 = IDENTIFICATION_ROLE ( 'external document id and location', $) ;
#195 = APPLIED_DOCUMENT_REFERENCE ( #38,'',( #178) ) ;
#196 =( REPRESENTATION_RELATIONSHIP ('NONE','NONE', #654, #247 ) REPRESENTATION_RELATIONSHIP_WITH_TRANSFORMATION ( #342 )SHAPE_REPRESENTATION_RELATIONSHIP( ) );
#197 = SHAPE_REPRESENTATION ( 'ISO 7045 - M2 x 3 - Z - 3N_ISO 7045 - M2 x 3 - Z - 3N', ( #516 ), #117 ) ;
#198 = PRODUCT_DEFINITION_FORMATION_WITH_SPECIFIED_SOURCE ( 'Symmetric', '', #182, .NOT_KNOWN. ) ;
#199 = APPLICATION_PROTOCOL_DEFINITION ( 'draft international standard', 'automotive_design', 1998, #332 ) ;
#200 =( NAMED_UNIT ( * ) PLANE_ANGLE_UNIT ( ) SI_UNIT ( $, .RADIAN. ) );
#201 = DOCUMENT_TYPE ( 'geometry' ) ;
#202 = PROPERTY_DEFINITION ('document property','', #406 ) ;
#203 = APPLICATION_PROTOCOL_DEFINITION ( 'draft international standard', 'automotive_design', 1998, #212 ) ;
#204 = PRODUCT_RELATED_PRODUCT_CATEGORY ( 'part', '', ( #20 ) ) ;
#205 = APPLICATION_PROTOCOL_DEFINITION ( 'draft international standard', 'automotive_design', 1998, #176 ) ;
#206 = DOCUMENT_TYPE ( 'geometry' ) ;
#207 = PRODUCT_RELATED_PRODUCT_CATEGORY ( 'part', '', ( #515 ) ) ;
#208 = PROPERTY_DEFINITION ('external definition','', #534 ) ;
#209 = DIRECTION ( 'NONE',  ( 0.000000000000000000, 0.000000000000000000, 1.000000000000000000 ) ) ;
#210 = APPLIED_DOCUMENT_REFERENCE ( #64,'',( #449) ) ;
#211 = DIRECTION ( 'NONE',  ( -6.675833262197645004E-17, -0.3711537444790455331, -0.9285714285714282701 ) ) ;
#212 = APPLICATION_CONTEXT ( 'automotive_design' ) ;
#213 = DIRECTION ( 'NONE',  ( 0.000000000000000000, 0.000000000000000000, 1.000000000000000000 ) ) ;
#214 = CONTEXT_DEPENDENT_SHAPE_REPRESENTATION ( #85, #245 ) ;
#215 =( NAMED_UNIT ( * ) SI_UNIT ( $, .STERADIAN. ) SOLID_ANGLE_UNIT ( ) );
#216 =( NAMED_UNIT ( * ) PLANE_ANGLE_UNIT ( ) SI_UNIT ( $, .RADIAN. ) );
#217 = AXIS2_PLACEMENT_3D ( 'NONE', #12, #458, #679 ) ;
#218 = ITEM_DEFINED_TRANSFORMATION ( 'NONE', 'NONE', #231,  #402 ) ;
#219 = DOCUMENT_TYPE ( 'geometry' ) ;
#220 = DIRECTION ( 'NONE',  ( -9.576969043095366016E-17, -0.9285714285714283811, 0.3711537444790459217 ) ) ;
#221 = DIRECTION ( 'NONE',  ( 0.000000000000000000, 0.000000000000000000, 1.000000000000000000 ) ) ;
#222 = IDENTIFICATION_ROLE ( 'external document id and location', $) ;
#223 = CARTESIAN_POINT ( 'NONE',  ( 35.29999999999999005, 7.750000000000007994, -32.00000000000000711 ) ) ;
#224 = PRODUCT_DEFINITION_CONTEXT ( 'detailed design', #307, 'design' ) ;
#225 = PROPERTY_DEFINITION_REPRESENTATION ( #150, #270 ) ;
#226 = IDENTIFICATION_ROLE ( 'external document id and location', $) ;
#227 = DIRECTION ( 'NONE',  ( 0.000000000000000000, 0.000000000000000000, 1.000000000000000000 ) ) ;
#228 = PRODUCT_DEFINITION_SHAPE ( 'NONE', 'NONE',  #677 ) ;
#229 = ROLE_ASSOCIATION ( #93, #464 ) ;
#230 = APPLICATION_PROTOCOL_DEFINITION ( 'draft international standard', 'automotive_design', 1998, #33 ) ;
#231 = AXIS2_PLACEMENT_3D ( 'NONE', #454, #555, #676 ) ;
#232 = DIRECTION ( 'NONE',  ( 1.000000000000000000, 0.000000000000000000, 0.000000000000000000 ) ) ;
#233 = EXTERNAL_SOURCE (IDENTIFIER('') ) ;
#234 = PRODUCT_CONTEXT ( 'NONE', #45, 'mechanical' ) ;
#235 = PROPERTY_DEFINITION ('document property','', #590 ) ;
#236 = APPLIED_DOCUMENT_REFERENCE ( #416,'',( #468) ) ;
#237 = EXTERNAL_SOURCE (IDENTIFIER('') ) ;
#238 = PRODUCT_CONTEXT ( 'NONE', #116, 'mechanical' ) ;
#239 = PROPERTY_DEFINITION ('document property','', #315 ) ;
#240 = APPLICATION_PROTOCOL_DEFINITION ( 'draft international standard', 'automotive_design', 1998, #435 ) ;
#241 = PROPERTY_DEFINITION_REPRESENTATION ( #685, #455 ) ;
#242 = PROPERTY_DEFINITION_REPRESENTATION ( #208, #197 ) ;
#243 = APPLICATION_PROTOCOL_DEFINITION ( 'draft international standard', 'automotive_design', 1998, #11 ) ;
#244 = UNCERTAINTY_MEASURE_WITH_UNIT (LENGTH_MEASURE( 1.000000000000000082E-05 ), #436, 'distance_accuracy_value', 'NONE');
#245 = PRODUCT_DEFINITION_SHAPE ( 'NONE', 'NONE',  #714 ) ;
#246 = EXTERNAL_SOURCE (IDENTIFIER('') ) ;
#247 = SHAPE_REPRESENTATION ( 'Part8', ( #252 ), #41 ) ;
#248 = CONTEXT_DEPENDENT_SHAPE_REPRESENTATION ( #66, #669 ) ;
#249 = CONTEXT_DEPENDENT_SHAPE_REPRESENTATION ( #557, #413 ) ;
#250 = APPLICATION_CONTEXT ( 'automotive_design' ) ;
#251 = APPLIED_DOCUMENT_REFERENCE ( #534,'',( #178) ) ;
#252 = AXIS2_PLACEMENT_3D ( 'NONE', #359, #564, #293 ) ;
#253 =( GEOMETRIC_REPRESENTATION_CONTEXT ( 3 ) GLOBAL_UNCERTAINTY_ASSIGNED_CONTEXT ( ( #479 ) ) GLOBAL_UNIT_ASSIGNED_CONTEXT ( ( #512, #412, #506 ) ) REPRESENTATION_CONTEXT ( 'NONE', 'WORKASPACE' ) );
#254 = PRODUCT_RELATED_PRODUCT_CATEGORY ( 'part', '', ( #471 ) ) ;
#255 = APPLICATION_PROTOCOL_DEFINITION ( 'draft international standard', 'automotive_design', 1998, #250 ) ;
#256 =( REPRESENTATION_RELATIONSHIP ('NONE','NONE', #654, #31 ) REPRESENTATION_RELATIONSHIP_WITH_TRANSFORMATION ( #694 )SHAPE_REPRESENTATION_RELATIONSHIP( ) );
#257 = DOCUMENT_FILE ( 'ISO 7045 - M2 x 3 - Z - 3N_ISO 7045 - M2 x 3 - Z - 3N.STEP' , '', '', #206, '' ,$ ) ;
#258 = PRODUCT_DEFINITION_SHAPE ( 'NONE', 'NONE',  #719 ) ;
#259 = PROPERTY_DEFINITION_REPRESENTATION ( #235, #197 ) ;
#260 = DOCUMENT_TYPE ( 'geometry' ) ;
#261 = APPLIED_DOCUMENT_REFERENCE ( #320,'',( #600) ) ;
#262 =( REPRESENTATION_RELATIONSHIP ('NONE','NONE', #654, #56 ) REPRESENTATION_RELATIONSHIP_WITH_TRANSFORMATION ( #265 )SHAPE_REPRESENTATION_RELATIONSHIP( ) );
#263 = AXIS2_PLACEMENT_3D ( 'NONE', #463, #633, #98 ) ;
#264 = PRODUCT_DEFINITION_FORMATION_WITH_SPECIFIED_SOURCE ( 'Symmetric', '', #20, .NOT_KNOWN. ) ;
#265 = ITEM_DEFINED_TRANSFORMATION ( 'NONE', 'NONE', #517,  #503 ) ;
#266 = DIRECTION ( 'NONE',  ( -1.000000000000000000, 7.511759519379957545E-49, 1.015710556107955785E-17 ) ) ;
#267 = PROPERTY_DEFINITION ('document property','', #534 ) ;
#268 = PROPERTY_DEFINITION_REPRESENTATION ( #570, #455 ) ;
#269 = EXTERNAL_SOURCE (IDENTIFIER('') ) ;
#270 = SHAPE_REPRESENTATION ( 'Belt1-1', ( #439 ), #133 ) ;
#271 = CARTESIAN_POINT ( 'NONE',  ( 60.37499999998384226, 17.24999999998135181, -4.925000117309561887 ) ) ;
#272 = PRODUCT ( 'ISO 10673-1.75-S_ISO 10673-1.75-S', 'ISO 10673-1.75-S_ISO 10673-1.75-S', '', ( #526 ) ) ;
#273 = CARTESIAN_POINT ( 'NONE',  ( 0.000000000000000000, 0.000000000000000000, 0.000000000000000000 ) ) ;
#274 = ROLE_ASSOCIATION ( #477, #566 ) ;
#275 = DOCUMENT_TYPE ( 'geometry' ) ;
#276 = DIRECTION ( 'NONE',  ( 6.058232658448417587E-17, -0.1585527532634883607, -0.9873505073845698643 ) ) ;
#277 = PRODUCT_DEFINITION_CONTEXT ( 'detailed design', #145, 'design' ) ;
#278 = DIRECTION ( 'NONE',  ( 1.000000000000000000, 0.000000000000000000, 0.000000000000000000 ) ) ;
#279 = PRODUCT_DEFINITION_FORMATION_WITH_SPECIFIED_SOURCE ( 'Symmetric', '', #327, .NOT_KNOWN. ) ;
#280 = CONTEXT_DEPENDENT_SHAPE_REPRESENTATION ( #501, #191 ) ;
#281 = PRODUCT_DEFINITION_FORMATION_WITH_SPECIFIED_SOURCE ( 'Symmetric', '', #471, .NOT_KNOWN. ) ;
#282 = DIRECTION ( 'NONE',  ( 1.170059075547510878E-16, -0.9591247405308765961, 0.2829836251474255882 ) ) ;
#283 =( LENGTH_UNIT ( ) NAMED_UNIT ( * ) SI_UNIT ( .MILLI., .METRE. ) );
#284 = OBJECT_ROLE ('mandatory',$ ) ;
#285 = APPLICATION_PROTOCOL_DEFINITION ( 'draft international standard', 'automotive_design', 1998, #116 ) ;
#286 = PRODUCT_RELATED_PRODUCT_CATEGORY ( 'part', '', ( #182 ) ) ;
#287 = PRODUCT_DEFINITION_SHAPE ( 'NONE', 'NONE',  #576 ) ;
#288 = AXIS2_PLACEMENT_3D ( 'NONE', #553, #209, #55 ) ;
#289 = DOCUMENT_FILE ( 'Part8.STEP' , '', '', #667, '' ,$ ) ;
#290 = APPLICATION_CONTEXT ( 'automotive_design' ) ;
#291 = PRODUCT_CONTEXT ( 'NONE', #543, 'mechanical' ) ;
#292 = CONTEXT_DEPENDENT_SHAPE_REPRESENTATION ( #409, #466 ) ;
#293 = DIRECTION ( 'NONE',  ( 1.000000000000000000, 0.000000000000000000, 0.000000000000000000 ) ) ;
#294 = DIRECTION ( 'NONE',  ( 1.000000000000000000, 0.000000000000000000, 0.000000000000000000 ) ) ;
#295 = OBJECT_ROLE ('mandatory',$ ) ;
#296 = PROPERTY_DEFINITION ('external definition','', #374 ) ;
#297 = PROPERTY_DEFINITION_REPRESENTATION ( #438, #31 ) ;
#298 = APPLICATION_PROTOCOL_DEFINITION ( 'draft international standard', 'automotive_design', 1998, #145 ) ;
#299 = UNCERTAINTY_MEASURE_WITH_UNIT (LENGTH_MEASURE( 1.000000000000000082E-05 ), #334, 'distance_accuracy_value', 'NONE');
#300 = IDENTIFICATION_ROLE ( 'external document id and location', $) ;
#301 = PROPERTY_DEFINITION ('document property','', #665 ) ;
#302 = PROPERTY_DEFINITION_REPRESENTATION ( #538, #581 ) ;
#303 = PRODUCT_DEFINITION ( 'General', '', #264, #509 ) ;
#304 = SHAPE_DEFINITION_REPRESENTATION ( #549, #654 ) ;
#305 =( GEOMETRIC_REPRESENTATION_CONTEXT ( 3 ) GLOBAL_UNCERTAINTY_ASSIGNED_CONTEXT ( ( #244 ) ) GLOBAL_UNIT_ASSIGNED_CONTEXT ( ( #436, #149, #95 ) ) REPRESENTATION_CONTEXT ( 'NONE', 'WORKASPACE' ) );
#306 = APPLIED_EXTERNAL_IDENTIFICATION_ASSIGNMENT ( 'Part3.STEP' , #440, #237,( #44) ) ;
#307 = APPLICATION_CONTEXT ( 'automotive_design' ) ;
#308 = ROLE_ASSOCIATION ( #295, #195 ) ;
#309 = APPLICATION_PROTOCOL_DEFINITION ( 'draft international standard', 'automotive_design', 1998, #156 ) ;
#310 = UNCERTAINTY_MEASURE_WITH_UNIT (LENGTH_MEASURE( 1.000000000000000082E-05 ), #469, 'distance_accuracy_value', 'NONE');
#311 = PRODUCT_DEFINITION_SHAPE ( 'NONE', 'NONE',  #713 ) ;
#312 = APPLIED_DOCUMENT_REFERENCE ( #257,'',( #178) ) ;
#313 = EXTERNAL_SOURCE (IDENTIFIER('') ) ;
#314 = PRODUCT_RELATED_PRODUCT_CATEGORY ( 'part', '', ( #163 ) ) ;
#315 = DOCUMENT_FILE ( 'DC Motor Assembly.STEP' , '', '', #384, '' ,$ ) ;
#316 = PRODUCT_DEFINITION_SHAPE ( 'NONE', 'NONE',  #721 ) ;
#317 =( REPRESENTATION_RELATIONSHIP ('NONE','NONE', #654, #684 ) REPRESENTATION_RELATIONSHIP_WITH_TRANSFORMATION ( #324 )SHAPE_REPRESENTATION_RELATIONSHIP( ) );
#318 = PRODUCT_DEFINITION_FORMATION_WITH_SPECIFIED_SOURCE ( 'Symmetric', '', #585, .NOT_KNOWN. ) ;
#319 = APPLIED_EXTERNAL_IDENTIFICATION_ASSIGNMENT ( 'Belt1-1.STEP' , #79, #112,( #406) ) ;
#320 = DOCUMENT_FILE ( 'Part1.STEP' , '', '', #635, '' ,$ ) ;
#321 = PROPERTY_DEFINITION_REPRESENTATION ( #296, #684 ) ;
#322 = DIRECTION ( 'NONE',  ( 1.000000000000000000, 0.000000000000000000, 0.000000000000000000 ) ) ;
#323 =( NAMED_UNIT ( * ) SI_UNIT ( $, .STERADIAN. ) SOLID_ANGLE_UNIT ( ) );
#324 = ITEM_DEFINED_TRANSFORMATION ( 'NONE', 'NONE', #341,  #452 ) ;
#325 = OBJECT_ROLE ('mandatory',$ ) ;
#326 = DIRECTION ( 'NONE',  ( 0.000000000000000000, -1.000000000000000000, 0.000000000000000000 ) ) ;
#327 = PRODUCT ( 'Belt1-1', 'Belt1-1', '', ( #126 ) ) ;
#328 =( GEOMETRIC_REPRESENTATION_CONTEXT ( 3 ) GLOBAL_UNCERTAINTY_ASSIGNED_CONTEXT ( ( #189 ) ) GLOBAL_UNIT_ASSIGNED_CONTEXT ( ( #155, #390, #395 ) ) REPRESENTATION_CONTEXT ( 'NONE', 'WORKASPACE' ) );
#329 = CARTESIAN_POINT ( 'NONE',  ( 0.000000000000000000, 0.000000000000000000, 0.000000000000000000 ) ) ;
#330 =( GEOMETRIC_REPRESENTATION_CONTEXT ( 3 ) GLOBAL_UNCERTAINTY_ASSIGNED_CONTEXT ( ( #530 ) ) GLOBAL_UNIT_ASSIGNED_CONTEXT ( ( #542, #608, #599 ) ) REPRESENTATION_CONTEXT ( 'NONE', 'WORKASPACE' ) );
#331 = ITEM_DEFINED_TRANSFORMATION ( 'NONE', 'NONE', #529,  #638 ) ;
#332 = APPLICATION_CONTEXT ( 'automotive_design' ) ;
#333 = CARTESIAN_POINT ( 'NONE',  ( 0.000000000000000000, 0.000000000000000000, 0.000000000000000000 ) ) ;
#334 =( LENGTH_UNIT ( ) NAMED_UNIT ( * ) SI_UNIT ( .MILLI., .METRE. ) );
#335 = ROLE_ASSOCIATION ( #325, #611 ) ;
#336 = DIRECTION ( 'NONE',  ( 1.000000000000000000, 0.000000000000000000, 0.000000000000000000 ) ) ;
#337 = PRODUCT_RELATED_PRODUCT_CATEGORY ( 'part', '', ( #123 ) ) ;
#338 =( REPRESENTATION_RELATIONSHIP ('NONE','NONE', #654, #197 ) REPRESENTATION_RELATIONSHIP_WITH_TRANSFORMATION ( #425 )SHAPE_REPRESENTATION_RELATIONSHIP( ) );
#339 = ROLE_ASSOCIATION ( #187, #159 ) ;
#340 = DOCUMENT_TYPE ( 'geometry' ) ;
#341 = AXIS2_PLACEMENT_3D ( 'NONE', #559, #276, #446 ) ;
#342 = ITEM_DEFINED_TRANSFORMATION ( 'NONE', 'NONE', #118,  #252 ) ;
#343 = PRODUCT_DEFINITION_FORMATION_WITH_SPECIFIED_SOURCE ( 'Symmetric', '', #629, .NOT_KNOWN. ) ;
#344 = CARTESIAN_POINT ( 'NONE',  ( 0.000000000000000000, 0.000000000000000000, 0.000000000000000000 ) ) ;
#345 = PROPERTY_DEFINITION_REPRESENTATION ( #556, #197 ) ;
#346 = IDENTIFICATION_ROLE ( 'external document id and location', $) ;
#347 = PROPERTY_DEFINITION ('external definition','', #64 ) ;
#348 = DIRECTION ( 'NONE',  ( -0.7257151092468178133, 0.6879953344397617965, 5.013896374708836513E-17 ) ) ;
#349 = EXTERNAL_SOURCE (IDENTIFIER('') ) ;
#350 =( NAMED_UNIT ( * ) SI_UNIT ( $, .STERADIAN. ) SOLID_ANGLE_UNIT ( ) );
#351 = ROLE_ASSOCIATION ( #419, #27 ) ;
#352 = SHAPE_DEFINITION_REPRESENTATION ( #1, #270 ) ;
#353 = DOCUMENT_TYPE ( 'geometry' ) ;
#354 = SHAPE_REPRESENTATION ( 'Part7', ( #638 ), #428 ) ;
#355 = PROPERTY_DEFINITION ('external definition','', #590 ) ;
#356 = PROPERTY_DEFINITION_REPRESENTATION ( #202, #270 ) ;
#357 = AXIS2_PLACEMENT_3D ( 'NONE', #193, #418, #582 ) ;
#358 = APPLIED_EXTERNAL_IDENTIFICATION_ASSIGNMENT ( 'DC Motor Assembly.STEP' , #194, #584,( #315) ) ;
#359 = CARTESIAN_POINT ( 'NONE',  ( 0.000000000000000000, 0.000000000000000000, 0.000000000000000000 ) ) ;
#360 = IDENTIFICATION_ROLE ( 'external document id and location', $) ;
#361 = PROPERTY_DEFINITION_REPRESENTATION ( #659, #31 ) ;
#362 = APPLICATION_PROTOCOL_DEFINITION ( 'draft international standard', 'automotive_design', 1998, #307 ) ;
#363 = PRODUCT_DEFINITION_SHAPE ( 'NONE', 'NONE',  #449 ) ;
#364 = PRODUCT_RELATED_PRODUCT_CATEGORY ( 'part', '', ( #629 ) ) ;
#365 = ROLE_ASSOCIATION ( #551, #236 ) ;
#366 = APPLICATION_PROTOCOL_DEFINITION ( 'draft international standard', 'automotive_design', 1998, #40 ) ;
#367 = UNCERTAINTY_MEASURE_WITH_UNIT (LENGTH_MEASURE( 1.000000000000000082E-05 ), #385, 'distance_accuracy_value', 'NONE');
#368 = PROPERTY_DEFINITION ('external definition','', #2 ) ;
#369 = CONTEXT_DEPENDENT_SHAPE_REPRESENTATION ( #338, #386 ) ;
#370 = ITEM_DEFINED_TRANSFORMATION ( 'NONE', 'NONE', #673,  #516 ) ;
#371 =( REPRESENTATION_RELATIONSHIP ('NONE','NONE', #654, #197 ) REPRESENTATION_RELATIONSHIP_WITH_TRANSFORMATION ( #420 )SHAPE_REPRESENTATION_RELATIONSHIP( ) );
#372 =( NAMED_UNIT ( * ) SI_UNIT ( $, .STERADIAN. ) SOLID_ANGLE_UNIT ( ) );
#373 = PROPERTY_DEFINITION_REPRESENTATION ( #58, #197 ) ;
#374 = DOCUMENT_FILE ( 'Part3.STEP' , '', '', #597, '' ,$ ) ;
#375 = PROPERTY_DEFINITION_REPRESENTATION ( #267, #197 ) ;
#376 = ITEM_DEFINED_TRANSFORMATION ( 'NONE', 'NONE', #552,  #452 ) ;
#377 = PROPERTY_DEFINITION ('document property','', #289 ) ;
#378 = APPLIED_EXTERNAL_IDENTIFICATION_ASSIGNMENT ( 'ISO 7045 - M2 x 3 - Z - 3N_ISO 7045 - M2 x 3 - Z - 3N.STEP' , #400, #349,( #476) ) ;
#379 = DIRECTION ( 'NONE',  ( 1.000000000000000000, 0.000000000000000000, 0.000000000000000000 ) ) ;
#380 = APPLIED_DOCUMENT_REFERENCE ( #315,'',( #426) ) ;
#381 = DOCUMENT_TYPE ( 'geometry' ) ;
#382 = PRODUCT_DEFINITION ( 'General', '', #318, #224 ) ;
#383 = APPLIED_DOCUMENT_REFERENCE ( #2,'',( #303) ) ;
#384 = DOCUMENT_TYPE ( 'geometry' ) ;
#385 =( LENGTH_UNIT ( ) NAMED_UNIT ( * ) SI_UNIT ( .MILLI., .METRE. ) );
#386 = PRODUCT_DEFINITION_SHAPE ( 'NONE', 'NONE',  #725 ) ;
#387 = DIRECTION ( 'NONE',  ( 1.000000000000000000, 0.000000000000000000, 0.000000000000000000 ) ) ;
#388 = AXIS2_PLACEMENT_3D ( 'NONE', #636, #175, #408 ) ;
#389 = OBJECT_ROLE ('mandatory',$ ) ;
#390 =( NAMED_UNIT ( * ) PLANE_ANGLE_UNIT ( ) SI_UNIT ( $, .RADIAN. ) );
#391 = AXIS2_PLACEMENT_3D ( 'NONE', #500, #393, #387 ) ;
#392 = PRODUCT_DEFINITION_SHAPE ( 'NONE', 'NONE',  #722 ) ;
#393 = DIRECTION ( 'NONE',  ( 0.000000000000000000, 0.000000000000000000, 1.000000000000000000 ) ) ;
#394 = PRODUCT_RELATED_PRODUCT_CATEGORY ( 'part', '', ( #327 ) ) ;
#395 =( NAMED_UNIT ( * ) SI_UNIT ( $, .STERADIAN. ) SOLID_ANGLE_UNIT ( ) );
#396 = EXTERNAL_SOURCE (IDENTIFIER('') ) ;
#397 = DIRECTION ( 'NONE',  ( 0.000000000000000000, 0.000000000000000000, 1.000000000000000000 ) ) ;
#398 =( NAMED_UNIT ( * ) SI_UNIT ( $, .STERADIAN. ) SOLID_ANGLE_UNIT ( ) );
#399 = APPLICATION_PROTOCOL_DEFINITION ( 'draft international standard', 'automotive_design', 1998, #71 ) ;
#400 = IDENTIFICATION_ROLE ( 'external document id and location', $) ;
#401 = PRODUCT_DEFINITION_CONTEXT ( 'detailed design', #533, 'design' ) ;
#402 = AXIS2_PLACEMENT_3D ( 'NONE', #510, #221, #681 ) ;
#403 = APPLIED_EXTERNAL_IDENTIFICATION_ASSIGNMENT ( 'Part8.STEP' , #222, #246,( #289) ) ;
#404 = DIRECTION ( 'NONE',  ( 0.000000000000000000, 0.000000000000000000, 1.000000000000000000 ) ) ;
#405 = IDENTIFICATION_ROLE ( 'external document id and location', $) ;
#406 = DOCUMENT_FILE ( 'Belt1-1.STEP' , '', '', #693, '' ,$ ) ;
#407 = PRODUCT_DEFINITION_SHAPE ( 'NONE', 'NONE',  #178 ) ;
#408 = DIRECTION ( 'NONE',  ( 0.000000000000000000, -1.000000000000000000, 0.000000000000000000 ) ) ;
#409 =( REPRESENTATION_RELATIONSHIP ('NONE','NONE', #654, #197 ) REPRESENTATION_RELATIONSHIP_WITH_TRANSFORMATION ( #370 )SHAPE_REPRESENTATION_RELATIONSHIP( ) );
#410 = CONTEXT_DEPENDENT_SHAPE_REPRESENTATION ( #443, #258 ) ;
#411 = DIRECTION ( 'NONE',  ( 0.000000000000000000, 0.000000000000000000, 1.000000000000000000 ) ) ;
#412 =( NAMED_UNIT ( * ) PLANE_ANGLE_UNIT ( ) SI_UNIT ( $, .RADIAN. ) );
#413 = PRODUCT_DEFINITION_SHAPE ( 'NONE', 'NONE',  #710 ) ;
#414 =( GEOMETRIC_REPRESENTATION_CONTEXT ( 3 ) GLOBAL_UNCERTAINTY_ASSIGNED_CONTEXT ( ( #310 ) ) GLOBAL_UNIT_ASSIGNED_CONTEXT ( ( #469, #21, #30 ) ) REPRESENTATION_CONTEXT ( 'NONE', 'WORKASPACE' ) );
#415 = APPLIED_DOCUMENT_REFERENCE ( #44,'',( #303) ) ;
#416 = DOCUMENT_FILE ( 'Part5.STEP' , '', '', #147, '' ,$ ) ;
#417 = PROPERTY_DEFINITION ('external definition','', #665 ) ;
#418 = DIRECTION ( 'NONE',  ( 0.6725925562701785543, 1.353173839593416214E-16, -0.7400130088383222171 ) ) ;
#419 = OBJECT_ROLE ('mandatory',$ ) ;
#420 = ITEM_DEFINED_TRANSFORMATION ( 'NONE', 'NONE', #357,  #516 ) ;
#421 = PROPERTY_DEFINITION_REPRESENTATION ( #82, #684 ) ;
#422 = PRODUCT_DEFINITION_CONTEXT ( 'detailed design', #33, 'design' ) ;
#423 = APPLICATION_CONTEXT ( 'automotive_design' ) ;
#424 = PROPERTY_DEFINITION ('document property','', #518 ) ;
#425 = ITEM_DEFINED_TRANSFORMATION ( 'NONE', 'NONE', #75,  #516 ) ;
#426 = PRODUCT_DEFINITION ( 'General', '', #119, #456 ) ;
#427 = PROPERTY_DEFINITION_REPRESENTATION ( #239, #631 ) ;
#428 =( GEOMETRIC_REPRESENTATION_CONTEXT ( 3 ) GLOBAL_UNCERTAINTY_ASSIGNED_CONTEXT ( ( #591 ) ) GLOBAL_UNIT_ASSIGNED_CONTEXT ( ( #13, #460, #398 ) ) REPRESENTATION_CONTEXT ( 'NONE', 'WORKASPACE' ) );
#429 = CONTEXT_DEPENDENT_SHAPE_REPRESENTATION ( #371, #666 ) ;
#430 =( REPRESENTATION_RELATIONSHIP ('NONE','NONE', #654, #581 ) REPRESENTATION_RELATIONSHIP_WITH_TRANSFORMATION ( #86 )SHAPE_REPRESENTATION_RELATIONSHIP( ) );
#431 = ROLE_ASSOCIATION ( #609, #602 ) ;
#432 =( LENGTH_UNIT ( ) NAMED_UNIT ( * ) SI_UNIT ( .MILLI., .METRE. ) );
#433 = PRODUCT_DEFINITION_SHAPE ( 'NONE', 'NONE',  #720 ) ;
#434 = APPLICATION_PROTOCOL_DEFINITION ( 'draft international standard', 'automotive_design', 1998, #423 ) ;
#435 = APPLICATION_CONTEXT ( 'automotive_design' ) ;
#436 =( LENGTH_UNIT ( ) NAMED_UNIT ( * ) SI_UNIT ( .MILLI., .METRE. ) );
#437 = ROLE_ASSOCIATION ( #573, #415 ) ;
#438 = PROPERTY_DEFINITION ('document property','', #583 ) ;
#439 = AXIS2_PLACEMENT_3D ( 'NONE', #536, #546, #524 ) ;
#440 = IDENTIFICATION_ROLE ( 'external document id and location', $) ;
#441 = CONTEXT_DEPENDENT_SHAPE_REPRESENTATION ( #262, #461 ) ;
#442 = PROPERTY_DEFINITION ('external definition','', #476 ) ;
#443 =( REPRESENTATION_RELATIONSHIP ('NONE','NONE', #654, #270 ) REPRESENTATION_RELATIONSHIP_WITH_TRANSFORMATION ( #634 )SHAPE_REPRESENTATION_RELATIONSHIP( ) );
#444 = PRODUCT_DEFINITION_SHAPE ( 'NONE', 'NONE',  #468 ) ;
#445 = PROPERTY_DEFINITION_REPRESENTATION ( #475, #56 ) ;
#446 = DIRECTION ( 'NONE',  ( 1.391954686050314455E-18, -0.9873505073845698643, 0.1585527532634886383 ) ) ;
#447 = CARTESIAN_POINT ( 'NONE',  ( 0.000000000000000000, 0.000000000000000000, 0.000000000000000000 ) ) ;
#448 =( REPRESENTATION_RELATIONSHIP ('NONE','NONE', #654, #684 ) REPRESENTATION_RELATIONSHIP_WITH_TRANSFORMATION ( #376 )SHAPE_REPRESENTATION_RELATIONSHIP( ) );
#449 = PRODUCT_DEFINITION ( 'General', '', #198, #10 ) ;
#450 = PROPERTY_DEFINITION_REPRESENTATION ( #301, #354 ) ;
#451 = CARTESIAN_POINT ( 'NONE',  ( 35.29999999999999005, 7.750000000000007994, -14.50000000000000000 ) ) ;
#452 = AXIS2_PLACEMENT_3D ( 'NONE', #447, #558, #658 ) ;
#453 = CONTEXT_DEPENDENT_SHAPE_REPRESENTATION ( #22, #141 ) ;
#454 = CARTESIAN_POINT ( 'NONE',  ( 24.42500000000001137, 17.25000000000000000, -6.050000000000004263 ) ) ;
#455 = SHAPE_REPRESENTATION ( 'Part1', ( #647 ), #328 ) ;
#456 = PRODUCT_DEFINITION_CONTEXT ( 'detailed design', #423, 'design' ) ;
#457 = DOCUMENT_FILE ( 'Part8.STEP' , '', '', #653, '' ,$ ) ;
#458 = DIRECTION ( 'NONE',  ( -1.202842775046794963E-16, 7.764810776623726213E-17, 0.9999999999999997780 ) ) ;
#459 = OBJECT_ROLE ('mandatory',$ ) ;
#460 =( NAMED_UNIT ( * ) PLANE_ANGLE_UNIT ( ) SI_UNIT ( $, .RADIAN. ) );
#461 = PRODUCT_DEFINITION_SHAPE ( 'NONE', 'NONE',  #712 ) ;
#462 = IDENTIFICATION_ROLE ( 'external document id and location', $) ;
#463 = CARTESIAN_POINT ( 'NONE',  ( 0.000000000000000000, 0.000000000000000000, 0.000000000000000000 ) ) ;
#464 = APPLIED_DOCUMENT_REFERENCE ( #289,'',( #382) ) ;
#465 = DOCUMENT_TYPE ( 'geometry' ) ;
#466 = PRODUCT_DEFINITION_SHAPE ( 'NONE', 'NONE',  #707 ) ;
#467 = PROPERTY_DEFINITION_REPRESENTATION ( #46, #127 ) ;
#468 = PRODUCT_DEFINITION ( 'General', '', #184, #401 ) ;
#469 =( LENGTH_UNIT ( ) NAMED_UNIT ( * ) SI_UNIT ( .MILLI., .METRE. ) );
#470 = DOCUMENT_TYPE ( 'geometry' ) ;
#471 = PRODUCT ( 'Part7', 'Part7', '', ( #188 ) ) ;
#472 = APPLIED_DOCUMENT_REFERENCE ( #583,'',( #550) ) ;
#473 = SHAPE_DEFINITION_REPRESENTATION ( #130, #247 ) ;
#474 = APPLIED_EXTERNAL_IDENTIFICATION_ASSIGNMENT ( 'Part2.STEP' , #25, #97,( #64) ) ;
#475 = PROPERTY_DEFINITION ('document property','', #64 ) ;
#476 = DOCUMENT_FILE ( 'ISO 7045 - M2 x 3 - Z - 3N_ISO 7045 - M2 x 3 - Z - 3N.STEP' , '', '', #51, '' ,$ ) ;
#477 = OBJECT_ROLE ('mandatory',$ ) ;
#478 = APPLICATION_PROTOCOL_DEFINITION ( 'draft international standard', 'automotive_design', 1998, #15 ) ;
#479 = UNCERTAINTY_MEASURE_WITH_UNIT (LENGTH_MEASURE( 1.000000000000000082E-05 ), #512, 'distance_accuracy_value', 'NONE');
#480 = DIRECTION ( 'NONE',  ( 0.000000000000000000, 0.000000000000000000, 1.000000000000000000 ) ) ;
#481 = ROLE_ASSOCIATION ( #36, #251 ) ;
#482 = ROLE_ASSOCIATION ( #704, #380 ) ;
#483 = APPLICATION_CONTEXT ( 'automotive_design' ) ;
#484 = AXIS2_PLACEMENT_3D ( 'NONE', #587, #88, #137 ) ;
#485 = APPLIED_EXTERNAL_IDENTIFICATION_ASSIGNMENT ( 'ISO 7045 - M2 x 3 - Z - 3N_ISO 7045 - M2 x 3 - Z - 3N.STEP' , #346, #49,( #590) ) ;
#486 = APPLIED_EXTERNAL_IDENTIFICATION_ASSIGNMENT ( 'Part8.STEP' , #492, #313,( #457) ) ;
#487 = SHAPE_DEFINITION_REPRESENTATION ( #72, #684 ) ;
#488 = DIRECTION ( 'NONE',  ( 1.000000000000000000, 0.000000000000000000, 0.000000000000000000 ) ) ;
#489 = PROPERTY_DEFINITION ('external definition','', #289 ) ;
#490 = CONTEXT_DEPENDENT_SHAPE_REPRESENTATION ( #61, #138 ) ;
#491 = DIRECTION ( 'NONE',  ( 0.000000000000000000, 0.000000000000000000, 1.000000000000000000 ) ) ;
#492 = IDENTIFICATION_ROLE ( 'external document id and location', $) ;
#493 = CARTESIAN_POINT ( 'NONE',  ( 0.000000000000000000, 0.000000000000000000, 0.000000000000000000 ) ) ;
#494 = ROLE_ASSOCIATION ( #646, #261 ) ;
#495 = CONTEXT_DEPENDENT_SHAPE_REPRESENTATION ( #90, #696 ) ;
#496 =( NAMED_UNIT ( * ) PLANE_ANGLE_UNIT ( ) SI_UNIT ( $, .RADIAN. ) );
#497 = APPLICATION_CONTEXT ( 'automotive_design' ) ;
#498 = CARTESIAN_POINT ( 'NONE',  ( 61.42500000000000426, 0.000000000000000000, -9.499999999999998224 ) ) ;
#499 = PROPERTY_DEFINITION ('external definition','', #38 ) ;
#500 = CARTESIAN_POINT ( 'NONE',  ( 24.42499999999999005, 2.385244779468109755E-15, -23.25000000000000000 ) ) ;
#501 =( REPRESENTATION_RELATIONSHIP ('NONE','NONE', #654, #684 ) REPRESENTATION_RELATIONSHIP_WITH_TRANSFORMATION ( #561 )SHAPE_REPRESENTATION_RELATIONSHIP( ) );
#502 = CARTESIAN_POINT ( 'NONE',  ( 13.54999999999998828, 7.750000000000008882, -14.50000000000000000 ) ) ;
#503 = AXIS2_PLACEMENT_3D ( 'NONE', #344, #227, #232 ) ;
#504 = OBJECT_ROLE ('mandatory',$ ) ;
#505 = PRODUCT_DEFINITION_FORMATION_WITH_SPECIFIED_SOURCE ( 'Symmetric', '', #107, .NOT_KNOWN. ) ;
#506 =( NAMED_UNIT ( * ) SI_UNIT ( $, .STERADIAN. ) SOLID_ANGLE_UNIT ( ) );
#507 = APPLIED_EXTERNAL_IDENTIFICATION_ASSIGNMENT ( 'ISO 7045 - M2 x 3 - Z - 3N_ISO 7045 - M2 x 3 - Z - 3N.STEP' , #140, #104,( #257) ) ;
#508 = DIRECTION ( 'NONE',  ( 0.000000000000000000, 0.000000000000000000, 1.000000000000000000 ) ) ;
#509 = PRODUCT_DEFINITION_CONTEXT ( 'detailed design', #132, 'design' ) ;
#510 = CARTESIAN_POINT ( 'NONE',  ( 0.000000000000000000, 0.000000000000000000, 0.000000000000000000 ) ) ;
#511 = PROPERTY_DEFINITION_REPRESENTATION ( #417, #354 ) ;
#512 =( LENGTH_UNIT ( ) NAMED_UNIT ( * ) SI_UNIT ( .MILLI., .METRE. ) );
#513 = DOCUMENT_FILE ( 'ISO 7045 - M2 x 3 - Z - 3N_ISO 7045 - M2 x 3 - Z - 3N.STEP' , '', '', #340, '' ,$ ) ;
#514 = IDENTIFICATION_ROLE ( 'external document id and location', $) ;
#515 = PRODUCT ( 'DC Motor Assembly', 'DC Motor Assembly', '', ( #651 ) ) ;
#516 = AXIS2_PLACEMENT_3D ( 'NONE', #329, #607, #379 ) ;
#517 = AXIS2_PLACEMENT_3D ( 'NONE', #612, #616, #336 ) ;
#518 = DOCUMENT_FILE ( 'Part4.STEP' , '', '', #353, '' ,$ ) ;
#519 = AXIS2_PLACEMENT_3D ( 'NONE', #223, #211, #220 ) ;
#520 = DOCUMENT_TYPE ( 'geometry' ) ;
#521 = PRODUCT_RELATED_PRODUCT_CATEGORY ( 'part', '', ( #107 ) ) ;
#522 = PROPERTY_DEFINITION ('external definition','', #44 ) ;
#523 = APPLICATION_PROTOCOL_DEFINITION ( 'draft international standard', 'automotive_design', 1998, #483 ) ;
#524 = DIRECTION ( 'NONE',  ( 1.000000000000000000, 0.000000000000000000, 0.000000000000000000 ) ) ;
#525 = APPLIED_DOCUMENT_REFERENCE ( #571,'',( #135) ) ;
#526 = PRODUCT_CONTEXT ( 'NONE', #40, 'mechanical' ) ;
#527 = PROPERTY_DEFINITION ('document property','', #2 ) ;
#528 = IDENTIFICATION_ROLE ( 'external document id and location', $) ;
#529 = AXIS2_PLACEMENT_3D ( 'NONE', #333, #167, #172 ) ;
#530 = UNCERTAINTY_MEASURE_WITH_UNIT (LENGTH_MEASURE( 1.000000000000000082E-05 ), #542, 'distance_accuracy_value', 'NONE');
#531 = PRODUCT_DEFINITION_SHAPE ( 'NONE', 'NONE',  #716 ) ;
#532 = SHAPE_DEFINITION_REPRESENTATION ( #177, #455 ) ;
#533 = APPLICATION_CONTEXT ( 'automotive_design' ) ;
#534 = DOCUMENT_FILE ( 'ISO 7045 - M2 x 3 - Z - 3N_ISO 7045 - M2 x 3 - Z - 3N.STEP' , '', '', #381, '' ,$ ) ;
#535 = APPLICATION_PROTOCOL_DEFINITION ( 'draft international standard', 'automotive_design', 1998, #290 ) ;
#536 = CARTESIAN_POINT ( 'NONE',  ( 0.000000000000000000, 0.000000000000000000, 0.000000000000000000 ) ) ;
#537 =( REPRESENTATION_RELATIONSHIP ('NONE','NONE', #654, #197 ) REPRESENTATION_RELATIONSHIP_WITH_TRANSFORMATION ( #19 )SHAPE_REPRESENTATION_RELATIONSHIP( ) );
#538 = PROPERTY_DEFINITION ('external definition','', #571 ) ;
#539 = CONTEXT_DEPENDENT_SHAPE_REPRESENTATION ( #448, #637 ) ;
#540 = AXIS2_PLACEMENT_3D ( 'NONE', #592, #491, #322 ) ;
#541 = ITEM_DEFINED_TRANSFORMATION ( 'NONE', 'NONE', #484,  #516 ) ;
#542 =( LENGTH_UNIT ( ) NAMED_UNIT ( * ) SI_UNIT ( .MILLI., .METRE. ) );
#543 = APPLICATION_CONTEXT ( 'automotive_design' ) ;
#544 = PRODUCT_CONTEXT ( 'NONE', #212, 'mechanical' ) ;
#545 = PROPERTY_DEFINITION ('external definition','', #416 ) ;
#546 = DIRECTION ( 'NONE',  ( 0.000000000000000000, 0.000000000000000000, 1.000000000000000000 ) ) ;
#547 = PROPERTY_DEFINITION ('document property','', #476 ) ;
#548 =( NAMED_UNIT ( * ) SI_UNIT ( $, .STERADIAN. ) SOLID_ANGLE_UNIT ( ) );
#549 = PRODUCT_DEFINITION_SHAPE ( 'NONE', 'NONE',  #81 ) ;
#550 = PRODUCT_DEFINITION ( 'General', '', #505, #680 ) ;
#551 = OBJECT_ROLE ('mandatory',$ ) ;
#552 = AXIS2_PLACEMENT_3D ( 'NONE', #451, #65, #282 ) ;
#553 = CARTESIAN_POINT ( 'NONE',  ( 0.000000000000000000, 0.000000000000000000, 0.000000000000000000 ) ) ;
#554 = CONTEXT_DEPENDENT_SHAPE_REPRESENTATION ( #196, #531 ) ;
#555 = DIRECTION ( 'NONE',  ( -7.934363153843808861E-18, 6.071610443694118805E-17, 1.000000000000000000 ) ) ;
#556 = PROPERTY_DEFINITION ('external definition','', #513 ) ;
#557 =( REPRESENTATION_RELATIONSHIP ('NONE','NONE', #654, #684 ) REPRESENTATION_RELATIONSHIP_WITH_TRANSFORMATION ( #94 )SHAPE_REPRESENTATION_RELATIONSHIP( ) );
#558 = DIRECTION ( 'NONE',  ( 0.000000000000000000, 0.000000000000000000, 1.000000000000000000 ) ) ;
#559 = CARTESIAN_POINT ( 'NONE',  ( 14.79999999999998295, 7.750000000000007994, -32.00000000000000000 ) ) ;
#560 = PRODUCT_DEFINITION_CONTEXT ( 'detailed design', #435, 'design' ) ;
#561 = ITEM_DEFINED_TRANSFORMATION ( 'NONE', 'NONE', #32,  #452 ) ;
#562 = CARTESIAN_POINT ( 'NONE',  ( 61.42500000000001137, 0.000000000000000000, -8.900000000000002132 ) ) ;
#563 = AXIS2_PLACEMENT_3D ( 'NONE', #62, #508, #59 ) ;
#564 = DIRECTION ( 'NONE',  ( 0.000000000000000000, 0.000000000000000000, 1.000000000000000000 ) ) ;
#565 = APPLIED_EXTERNAL_IDENTIFICATION_ASSIGNMENT ( 'ISO 7045 - M2 x 3 - Z - 3N_ISO 7045 - M2 x 3 - Z - 3N.STEP' , #125, #682,( #513) ) ;
#566 = APPLIED_DOCUMENT_REFERENCE ( #457,'',( #382) ) ;
#567 = DOCUMENT_TYPE ( 'geometry' ) ;
#568 = APPLICATION_PROTOCOL_DEFINITION ( 'draft international standard', 'automotive_design', 1998, #698 ) ;
#569 =( NAMED_UNIT ( * ) SI_UNIT ( $, .STERADIAN. ) SOLID_ANGLE_UNIT ( ) );
#570 = PROPERTY_DEFINITION ('document property','', #320 ) ;
#571 = DOCUMENT_FILE ( 'ISO 10673-1.75-S_ISO 10673-1.75-S.STEP' , '', '', #465, '' ,$ ) ;
#572 = DIRECTION ( 'NONE',  ( -1.000000000000000000, 0.000000000000000000, 0.000000000000000000 ) ) ;
#573 = OBJECT_ROLE ('mandatory',$ ) ;
#574 = PROPERTY_DEFINITION_REPRESENTATION ( #37, #678 ) ;
#575 = APPLICATION_PROTOCOL_DEFINITION ( 'draft international standard', 'automotive_design', 1998, #543 ) ;
#576 = PRODUCT_DEFINITION ( 'General', '', #699, #113 ) ;
#577 = PRODUCT_DEFINITION_SHAPE ( 'NONE', 'NONE',  #426 ) ;
#578 =( REPRESENTATION_RELATIONSHIP ('NONE','NONE', #654, #247 ) REPRESENTATION_RELATIONSHIP_WITH_TRANSFORMATION ( #78 )SHAPE_REPRESENTATION_RELATIONSHIP( ) );
#579 = APPLIED_EXTERNAL_IDENTIFICATION_ASSIGNMENT ( 'Part7.STEP' , #644, #120,( #665) ) ;
#580 = APPLIED_DOCUMENT_REFERENCE ( #518,'',( #576) ) ;
#581 = SHAPE_REPRESENTATION ( 'ISO 10673-1.75-S_ISO 10673-1.75-S', ( #686 ), #109 ) ;
#582 = DIRECTION ( 'NONE',  ( -1.257674520083184835E-17, -1.000000000000000000, -1.942890293094023453E-16 ) ) ;
#583 = DOCUMENT_FILE ( 'ISO 2341 - B - 3 x 10 x .8 - St_ISO 2341 - B - 3 x 10 x .8 - St.STEP' , '', '', #567, '' ,$ ) ;
#584 = EXTERNAL_SOURCE (IDENTIFIER('') ) ;
#585 = PRODUCT ( 'Part8', 'Part8', '', ( #234 ) ) ;
#586 = DIRECTION ( 'NONE',  ( 1.387778780781445676E-17, -1.000000000000000000, 0.000000000000000000 ) ) ;
#587 = CARTESIAN_POINT ( 'NONE',  ( 61.42500000000000426, 2.349999999999997868, -14.49999999999999822 ) ) ;
#588 = PROPERTY_DEFINITION ('document property','', #457 ) ;
#589 = PROPERTY_DEFINITION_REPRESENTATION ( #50, #197 ) ;
#590 = DOCUMENT_FILE ( 'ISO 7045 - M2 x 3 - Z - 3N_ISO 7045 - M2 x 3 - Z - 3N.STEP' , '', '', #201, '' ,$ ) ;
#591 = UNCERTAINTY_MEASURE_WITH_UNIT (LENGTH_MEASURE( 1.000000000000000082E-05 ), #13, 'distance_accuracy_value', 'NONE');
#592 = CARTESIAN_POINT ( 'NONE',  ( 0.000000000000000000, 0.000000000000000000, 0.000000000000000000 ) ) ;
#593 = EXTERNAL_SOURCE (IDENTIFIER('') ) ;
#594 = PROPERTY_DEFINITION_REPRESENTATION ( #442, #197 ) ;
#595 = APPLIED_DOCUMENT_REFERENCE ( #590,'',( #178) ) ;
#596 =( NAMED_UNIT ( * ) SI_UNIT ( $, .STERADIAN. ) SOLID_ANGLE_UNIT ( ) );
#597 = DOCUMENT_TYPE ( 'geometry' ) ;
#598 = APPLICATION_PROTOCOL_DEFINITION ( 'draft international standard', 'automotive_design', 1998, #132 ) ;
#599 =( NAMED_UNIT ( * ) SI_UNIT ( $, .STERADIAN. ) SOLID_ANGLE_UNIT ( ) );
#600 = PRODUCT_DEFINITION ( 'General', '', #165, #168 ) ;
#601 = PRODUCT_DEFINITION_SHAPE ( 'NONE', 'NONE',  #718 ) ;
#602 = APPLIED_DOCUMENT_REFERENCE ( #374,'',( #303) ) ;
#603 = PRODUCT_DEFINITION_FORMATION_WITH_SPECIFIED_SOURCE ( 'Symmetric', '', #60, .NOT_KNOWN. ) ;
#604 =( NAMED_UNIT ( * ) PLANE_ANGLE_UNIT ( ) SI_UNIT ( $, .RADIAN. ) );
#605 = PRODUCT_CONTEXT ( 'NONE', #15, 'mechanical' ) ;
#606 = OBJECT_ROLE ('mandatory',$ ) ;
#607 = DIRECTION ( 'NONE',  ( 0.000000000000000000, 0.000000000000000000, 1.000000000000000000 ) ) ;
#608 =( NAMED_UNIT ( * ) PLANE_ANGLE_UNIT ( ) SI_UNIT ( $, .RADIAN. ) );
#609 = OBJECT_ROLE ('mandatory',$ ) ;
#610 = PROPERTY_DEFINITION ('document property','', #38 ) ;
#611 = APPLIED_DOCUMENT_REFERENCE ( #169,'',( #303) ) ;
#612 = CARTESIAN_POINT ( 'NONE',  ( 24.42499999999999005, 9.750000000000005329, -23.25000000000000711 ) ) ;
#613 = AXIS2_PLACEMENT_3D ( 'NONE', #271, #348, #122 ) ;
#614 =( REPRESENTATION_RELATIONSHIP ('NONE','NONE', #654, #197 ) REPRESENTATION_RELATIONSHIP_WITH_TRANSFORMATION ( #630 )SHAPE_REPRESENTATION_RELATIONSHIP( ) );
#615 = DOCUMENT_TYPE ( 'geometry' ) ;
#616 = DIRECTION ( 'NONE',  ( 0.000000000000000000, 0.000000000000000000, 1.000000000000000000 ) ) ;
#617 =( LENGTH_UNIT ( ) NAMED_UNIT ( * ) SI_UNIT ( .MILLI., .METRE. ) );
#618 = PROPERTY_DEFINITION_REPRESENTATION ( #368, #684 ) ;
#619 = APPLICATION_CONTEXT ( 'automotive_design' ) ;
#620 = DIRECTION ( 'NONE',  ( 1.000000000000000000, 0.000000000000000000, 0.000000000000000000 ) ) ;
#621 = PRODUCT_DEFINITION_CONTEXT ( 'detailed design', #332, 'design' ) ;
#622 =( LENGTH_UNIT ( ) NAMED_UNIT ( * ) SI_UNIT ( .MILLI., .METRE. ) );
#623 = ROLE_ASSOCIATION ( #688, #210 ) ;
#624 = DIRECTION ( 'NONE',  ( 0.000000000000000000, 0.000000000000000000, 1.000000000000000000 ) ) ;
#625 = ROLE_ASSOCIATION ( #161, #170 ) ;
#626 = SHAPE_DEFINITION_REPRESENTATION ( #52, #31 ) ;
#627 =( NAMED_UNIT ( * ) PLANE_ANGLE_UNIT ( ) SI_UNIT ( $, .RADIAN. ) );
#628 =( REPRESENTATION_RELATIONSHIP ('NONE','NONE', #654, #127 ) REPRESENTATION_RELATIONSHIP_WITH_TRANSFORMATION ( #181 )SHAPE_REPRESENTATION_RELATIONSHIP( ) );
#629 = PRODUCT ( 'ISO 7045 - M2 x 3 - Z - 3N_ISO 7045 - M2 x 3 - Z - 3N', 'ISO 7045 - M2 x 3 - Z - 3N_ISO 7045 - M2 x 3 - Z - 3N', '', ( #656 ) ) ;
#630 = ITEM_DEFINED_TRANSFORMATION ( 'NONE', 'NONE', #388,  #516 ) ;
#631 = SHAPE_REPRESENTATION ( 'DC Motor Assembly', ( #288 ), #74 ) ;
#632 = APPLICATION_PROTOCOL_DEFINITION ( 'draft international standard', 'automotive_design', 1998, #619 ) ;
#633 = DIRECTION ( 'NONE',  ( 0.000000000000000000, 0.000000000000000000, 1.000000000000000000 ) ) ;
#634 = ITEM_DEFINED_TRANSFORMATION ( 'NONE', 'NONE', #563,  #439 ) ;
#635 = DOCUMENT_TYPE ( 'geometry' ) ;
#636 = CARTESIAN_POINT ( 'NONE',  ( 37.04999999999999005, 2.349999999999999645, -32.00000000000000000 ) ) ;
#637 = PRODUCT_DEFINITION_SHAPE ( 'NONE', 'NONE',  #709 ) ;
#638 = AXIS2_PLACEMENT_3D ( 'NONE', #493, #114, #18 ) ;
#639 = APPLIED_EXTERNAL_IDENTIFICATION_ASSIGNMENT ( 'ISO 7045 - M2 x 3 - Z - 3N_ISO 7045 - M2 x 3 - Z - 3N.STEP' , #180, #185,( #38) ) ;
#640 = SHAPE_DEFINITION_REPRESENTATION ( #287, #678 ) ;
#641 = PROPERTY_DEFINITION_REPRESENTATION ( #545, #127 ) ;
#642 = DIRECTION ( 'NONE',  ( 0.7999999999999989342, 0.000000000000000000, -0.6000000000000014211 ) ) ;
#643 = UNCERTAINTY_MEASURE_WITH_UNIT (LENGTH_MEASURE( 1.000000000000000082E-05 ), #283, 'distance_accuracy_value', 'NONE');
#644 = IDENTIFICATION_ROLE ( 'external document id and location', $) ;
#645 = PROPERTY_DEFINITION ('external definition','', #169 ) ;
#646 = OBJECT_ROLE ('mandatory',$ ) ;
#647 = AXIS2_PLACEMENT_3D ( 'NONE', #273, #213, #278 ) ;
#648 = PROPERTY_DEFINITION_REPRESENTATION ( #499, #197 ) ;
#649 = AXIS2_PLACEMENT_3D ( 'NONE', #498, #397, #620 ) ;
#650 = APPLIED_DOCUMENT_REFERENCE ( #476,'',( #178) ) ;
#651 = PRODUCT_CONTEXT ( 'NONE', #250, 'mechanical' ) ;
#652 = PRODUCT_RELATED_PRODUCT_CATEGORY ( 'part', '', ( #60 ) ) ;
#653 = DOCUMENT_TYPE ( 'geometry' ) ;
#654 = SHAPE_REPRESENTATION ( 'Belt and Pulley Assembly', ( #100, #673, #53, #552, #519, #391, #517, #341, #529, #32, #118, #231, #649, #563, #217, #613, #76, #388, #8, #75, #484, #357 ), #414 ) ;
#655 = PROPERTY_DEFINITION ('document property','', #571 ) ;
#656 = PRODUCT_CONTEXT ( 'NONE', #698, 'mechanical' ) ;
#657 = EXTERNAL_SOURCE (IDENTIFIER('') ) ;
#658 = DIRECTION ( 'NONE',  ( 1.000000000000000000, 0.000000000000000000, 0.000000000000000000 ) ) ;
#659 = PROPERTY_DEFINITION ('external definition','', #583 ) ;
#660 = ITEM_DEFINED_TRANSFORMATION ( 'NONE', 'NONE', #391,  #647 ) ;
#661 = PRODUCT_DEFINITION_FORMATION_WITH_SPECIFIED_SOURCE ( 'Symmetric', '', #272, .NOT_KNOWN. ) ;
#662 = ITEM_DEFINED_TRANSFORMATION ( 'NONE', 'NONE', #53,  #288 ) ;
#663 =( NAMED_UNIT ( * ) PLANE_ANGLE_UNIT ( ) SI_UNIT ( $, .RADIAN. ) );
#664 = OBJECT_ROLE ('mandatory',$ ) ;
#665 = DOCUMENT_FILE ( 'Part7.STEP' , '', '', #615, '' ,$ ) ;
#666 = PRODUCT_DEFINITION_SHAPE ( 'NONE', 'NONE',  #727 ) ;
#667 = DOCUMENT_TYPE ( 'geometry' ) ;
#668 = CARTESIAN_POINT ( 'NONE',  ( 24.42500000000000426, 17.25000000000000355, -30.25000000000000355 ) ) ;
#669 = PRODUCT_DEFINITION_SHAPE ( 'NONE', 'NONE',  #726 ) ;
#670 = CONTEXT_DEPENDENT_SHAPE_REPRESENTATION ( #317, #311 ) ;
#671 = EXTERNAL_SOURCE (IDENTIFIER('') ) ;
#672 = PRODUCT_DEFINITION_SHAPE ( 'NONE', 'NONE',  #135 ) ;
#673 = AXIS2_PLACEMENT_3D ( 'NONE', #706, #3, #160 ) ;
#674 = UNCERTAINTY_MEASURE_WITH_UNIT (LENGTH_MEASURE( 1.000000000000000082E-05 ), #173, 'distance_accuracy_value', 'NONE');
#675 = ROLE_ASSOCIATION ( #504, #383 ) ;
#676 = DIRECTION ( 'NONE',  ( 0.5699904834407865106, 0.8216512939118022496, -4.536495428204264685E-17 ) ) ;
#677 = PRODUCT_DEFINITION ( 'General', '', #281, #277 ) ;
#678 = SHAPE_REPRESENTATION ( 'Part4', ( #402 ), #152 ) ;
#679 = DIRECTION ( 'NONE',  ( 0.9104670807124749521, -0.4135815456943210400, 1.416286994254942799E-16 ) ) ;
#680 = PRODUCT_DEFINITION_CONTEXT ( 'detailed design', #497, 'design' ) ;
#681 = DIRECTION ( 'NONE',  ( 1.000000000000000000, 0.000000000000000000, 0.000000000000000000 ) ) ;
#682 = EXTERNAL_SOURCE (IDENTIFIER('') ) ;
#683 = CONTEXT_DEPENDENT_SHAPE_REPRESENTATION ( #614, #99 ) ;
#684 = SHAPE_REPRESENTATION ( 'Part3', ( #452 ), #697 ) ;
#685 = PROPERTY_DEFINITION ('external definition','', #320 ) ;
#686 = AXIS2_PLACEMENT_3D ( 'NONE', #157, #480, #488 ) ;
#687 = APPLIED_EXTERNAL_IDENTIFICATION_ASSIGNMENT ( 'Part3.STEP' , #462, #396,( #374) ) ;
#688 = OBJECT_ROLE ('mandatory',$ ) ;
#689 = SHAPE_DEFINITION_REPRESENTATION ( #444, #127 ) ;
#690 = PRODUCT ( 'Part4', 'Part4', '', ( #291 ) ) ;
#691 = PROPERTY_DEFINITION_REPRESENTATION ( #489, #247 ) ;
#692 = CARTESIAN_POINT ( 'NONE',  ( 11.79999999999997939, 2.349999999999995204, -32.00000000000000711 ) ) ;
#693 = DOCUMENT_TYPE ( 'geometry' ) ;
#694 = ITEM_DEFINED_TRANSFORMATION ( 'NONE', 'NONE', #613,  #540 ) ;
#695 = APPLICATION_PROTOCOL_DEFINITION ( 'draft international standard', 'automotive_design', 1998, #533 ) ;
#696 = PRODUCT_DEFINITION_SHAPE ( 'NONE', 'NONE',  #711 ) ;
#697 =( GEOMETRIC_REPRESENTATION_CONTEXT ( 3 ) GLOBAL_UNCERTAINTY_ASSIGNED_CONTEXT ( ( #367 ) ) GLOBAL_UNIT_ASSIGNED_CONTEXT ( ( #385, #216, #372 ) ) REPRESENTATION_CONTEXT ( 'NONE', 'WORKASPACE' ) );
#698 = APPLICATION_CONTEXT ( 'automotive_design' ) ;
#699 = PRODUCT_DEFINITION_FORMATION_WITH_SPECIFIED_SOURCE ( 'Symmetric', '', #690, .NOT_KNOWN. ) ;
#700 = APPLIED_EXTERNAL_IDENTIFICATION_ASSIGNMENT ( 'Part3.STEP' , #360, #657,( #2) ) ;
#701 = CONTEXT_DEPENDENT_SHAPE_REPRESENTATION ( #578, #601 ) ;
#702 = SHAPE_DEFINITION_REPRESENTATION ( #228, #354 ) ;
#703 = PROPERTY_DEFINITION ('external definition','', #457 ) ;
#704 = OBJECT_ROLE ('mandatory',$ ) ;
#705 = SHAPE_DEFINITION_REPRESENTATION ( #672, #581 ) ;
#706 = CARTESIAN_POINT ( 'NONE',  ( 37.04999999999999716, 2.349999999999997868, -14.49999999999999645 ) ) ;
#707 = NEXT_ASSEMBLY_USAGE_OCCURRENCE ( 'NAUO11', ' ', ' ', #81, #178, $ ) ;
#708 = NEXT_ASSEMBLY_USAGE_OCCURRENCE ( 'NAUO12', ' ', ' ', #81, #426, $ ) ;
#709 = NEXT_ASSEMBLY_USAGE_OCCURRENCE ( 'NAUO13', ' ', ' ', #81, #303, $ ) ;
#710 = NEXT_ASSEMBLY_USAGE_OCCURRENCE ( 'NAUO14', ' ', ' ', #81, #303, $ ) ;
#711 = NEXT_ASSEMBLY_USAGE_OCCURRENCE ( 'NAUO15', ' ', ' ', #81, #600, $ ) ;
#712 = NEXT_ASSEMBLY_USAGE_OCCURRENCE ( 'NAUO16', ' ', ' ', #81, #449, $ ) ;
#713 = NEXT_ASSEMBLY_USAGE_OCCURRENCE ( 'NAUO17', ' ', ' ', #81, #303, $ ) ;
#714 = NEXT_ASSEMBLY_USAGE_OCCURRENCE ( 'NAUO18', ' ', ' ', #81, #677, $ ) ;
#715 = NEXT_ASSEMBLY_USAGE_OCCURRENCE ( 'NAUO19', ' ', ' ', #81, #303, $ ) ;
#716 = NEXT_ASSEMBLY_USAGE_OCCURRENCE ( 'NAUO20', ' ', ' ', #81, #382, $ ) ;
#717 = NEXT_ASSEMBLY_USAGE_OCCURRENCE ( 'NAUO21', ' ', ' ', #81, #576, $ ) ;
#718 = NEXT_ASSEMBLY_USAGE_OCCURRENCE ( 'NAUO22', ' ', ' ', #81, #382, $ ) ;
#719 = NEXT_ASSEMBLY_USAGE_OCCURRENCE ( 'NAUO23', ' ', ' ', #81, #134, $ ) ;
#720 = NEXT_ASSEMBLY_USAGE_OCCURRENCE ( 'NAUO24', ' ', ' ', #81, #468, $ ) ;
#721 = NEXT_ASSEMBLY_USAGE_OCCURRENCE ( 'NAUO25', ' ', ' ', #81, #550, $ ) ;
#722 = NEXT_ASSEMBLY_USAGE_OCCURRENCE ( 'NAUO26', ' ', ' ', #81, #135, $ ) ;
#723 = NEXT_ASSEMBLY_USAGE_OCCURRENCE ( 'NAUO27', ' ', ' ', #81, #178, $ ) ;
#724 = NEXT_ASSEMBLY_USAGE_OCCURRENCE ( 'NAUO28', ' ', ' ', #81, #178, $ ) ;
#725 = NEXT_ASSEMBLY_USAGE_OCCURRENCE ( 'NAUO29', ' ', ' ', #81, #178, $ ) ;
#726 = NEXT_ASSEMBLY_USAGE_OCCURRENCE ( 'NAUO30', ' ', ' ', #81, #178, $ ) ;
#727 = NEXT_ASSEMBLY_USAGE_OCCURRENCE ( 'NAUO31', ' ', ' ', #81, #178, $ ) ;
ENDSEC;
END-ISO-10303-21;
