ISO-10303-21;
HEADER;
FILE_DESCRIPTION (( 'STEP AP214' ),
    '1' );
FILE_NAME ('DC Motor Assembly.STEP',
    '2025-07-14T09:37:28',
    ( '' ),
    ( '' ),
    'SwSTEP 2.0',
    'SolidWorks 2025',
    '' );
FILE_SCHEMA (( 'AUTOMOTIVE_DESIGN' ));
ENDSEC;

DATA;
#1 = PRODUCT ( 'Part5_DCM', 'Part5_DCM', '', ( #160 ) ) ;
#2 = EXTERNAL_SOURCE (IDENTIFIER('') ) ;
#3 = ITEM_DEFINED_TRANSFORMATION ( 'NONE', 'NONE', #4,  #316 ) ;
#4 = AXIS2_PLACEMENT_3D ( 'NONE', #222, #180, #85 ) ;
#5 = PROPERTY_DEFINITION_REPRESENTATION ( #365, #268 ) ;
#6 = APPLICATION_CONTEXT ( 'automotive_design' ) ;
#7 = PRODUCT_DEFINITION_SHAPE ( 'NONE', 'NONE',  #95 ) ;
#8 = PRODUCT_DEFINITION_FORMATION_WITH_SPECIFIED_SOURCE ( 'Symmetric', '', #75, .NOT_KNOWN. ) ;
#9 = EXTERNAL_SOURCE (IDENTIFIER('') ) ;
#10 = CARTESIAN_POINT ( 'NONE',  ( -1.040834085586084257E-14, -7.125000000000000888, 2.875000000000002665 ) ) ;
#11 = PRODUCT_DEFINITION_SHAPE ( 'NONE', 'NONE',  #404 ) ;
#12 = DOCUMENT_TYPE ( 'geometry' ) ;
#13 = CARTESIAN_POINT ( 'NONE',  ( 6.938893903907228378E-15, 3.469446951953614189E-15, 2.999999999999995559 ) ) ;
#14 = SHAPE_REPRESENTATION ( 'Part8_DCM', ( #371 ), #218 ) ;
#15 =( REPRESENTATION_RELATIONSHIP ('NONE','NONE', #24, #268 ) REPRESENTATION_RELATIONSHIP_WITH_TRANSFORMATION ( #295 )SHAPE_REPRESENTATION_RELATIONSHIP( ) );
#16 = APPLIED_EXTERNAL_IDENTIFICATION_ASSIGNMENT ( 'Part7_DCM.STEP' , #253, #68,( #190) ) ;
#17 = PRODUCT_CONTEXT ( 'NONE', #117, 'mechanical' ) ;
#18 = PROPERTY_DEFINITION_REPRESENTATION ( #275, #376 ) ;
#19 = UNCERTAINTY_MEASURE_WITH_UNIT (LENGTH_MEASURE( 1.000000000000000082E-05 ), #332, 'distance_accuracy_value', 'NONE');
#20 = APPLICATION_PROTOCOL_DEFINITION ( 'draft international standard', 'automotive_design', 1998, #315 ) ;
#21 = OBJECT_ROLE ('mandatory',$ ) ;
#22 = PRODUCT ( 'Part4_DCM', 'Part4_DCM', '', ( #152 ) ) ;
#23 = DOCUMENT_FILE ( 'Part5_DCM.STEP' , '', '', #214, '' ,$ ) ;
#24 = SHAPE_REPRESENTATION ( 'DC Motor Assembly', ( #234, #285, #357, #233, #162, #311, #303, #39, #59, #385, #4 ), #121 ) ;
#25 = IDENTIFICATION_ROLE ( 'external document id and location', $) ;
#26 = PRODUCT_DEFINITION_SHAPE ( 'NONE', 'NONE',  #175 ) ;
#27 = APPLIED_DOCUMENT_REFERENCE ( #105,'',( #119) ) ;
#28 = IDENTIFICATION_ROLE ( 'external document id and location', $) ;
#29 = APPLIED_DOCUMENT_REFERENCE ( #207,'',( #256) ) ;
#30 =( LENGTH_UNIT ( ) NAMED_UNIT ( * ) SI_UNIT ( .MILLI., .METRE. ) );
#31 = CONTEXT_DEPENDENT_SHAPE_REPRESENTATION ( #277, #247 ) ;
#32 =( LENGTH_UNIT ( ) NAMED_UNIT ( * ) SI_UNIT ( .MILLI., .METRE. ) );
#33 = PRODUCT_DEFINITION_SHAPE ( 'NONE', 'NONE',  #403 ) ;
#34 = PRODUCT_RELATED_PRODUCT_CATEGORY ( 'part', '', ( #199 ) ) ;
#35 =( NAMED_UNIT ( * ) SI_UNIT ( $, .STERADIAN. ) SOLID_ANGLE_UNIT ( ) );
#36 = DIRECTION ( 'NONE',  ( 0.000000000000000000, 0.000000000000000000, 1.000000000000000000 ) ) ;
#37 = PROPERTY_DEFINITION ('document property','', #347 ) ;
#38 =( REPRESENTATION_RELATIONSHIP ('NONE','NONE', #24, #268 ) REPRESENTATION_RELATIONSHIP_WITH_TRANSFORMATION ( #231 )SHAPE_REPRESENTATION_RELATIONSHIP( ) );
#39 = AXIS2_PLACEMENT_3D ( 'NONE', #396, #83, #342 ) ;
#40 = APPLIED_EXTERNAL_IDENTIFICATION_ASSIGNMENT ( 'Part6_DCM.STEP' , #28, #304,( #94) ) ;
#41 = APPLICATION_PROTOCOL_DEFINITION ( 'draft international standard', 'automotive_design', 1998, #352 ) ;
#42 = SHAPE_REPRESENTATION ( 'Part6_DCM', ( #200 ), #310 ) ;
#43 = DOCUMENT_TYPE ( 'geometry' ) ;
#44 = PROPERTY_DEFINITION ('external definition','', #62 ) ;
#45 =( NAMED_UNIT ( * ) PLANE_ANGLE_UNIT ( ) SI_UNIT ( $, .RADIAN. ) );
#46 = APPLICATION_PROTOCOL_DEFINITION ( 'draft international standard', 'automotive_design', 1998, #117 ) ;
#47 =( REPRESENTATION_RELATIONSHIP ('NONE','NONE', #24, #376 ) REPRESENTATION_RELATIONSHIP_WITH_TRANSFORMATION ( #373 )SHAPE_REPRESENTATION_RELATIONSHIP( ) );
#48 = APPLICATION_PROTOCOL_DEFINITION ( 'draft international standard', 'automotive_design', 1998, #64 ) ;
#49 = OBJECT_ROLE ('mandatory',$ ) ;
#50 = PROPERTY_DEFINITION_REPRESENTATION ( #243, #283 ) ;
#51 = AXIS2_PLACEMENT_3D ( 'NONE', #329, #138, #174 ) ;
#52 = ITEM_DEFINED_TRANSFORMATION ( 'NONE', 'NONE', #285,  #367 ) ;
#53 = PRODUCT_CONTEXT ( 'NONE', #343, 'mechanical' ) ;
#54 = PRODUCT_DEFINITION_CONTEXT ( 'detailed design', #64, 'design' ) ;
#55 = APPLIED_DOCUMENT_REFERENCE ( #96,'',( #369) ) ;
#56 = DIRECTION ( 'NONE',  ( 0.000000000000000000, 0.000000000000000000, 1.000000000000000000 ) ) ;
#57 = PRODUCT_DEFINITION_SHAPE ( 'NONE', 'NONE',  #201 ) ;
#58 = APPLIED_DOCUMENT_REFERENCE ( #358,'',( #175) ) ;
#59 = AXIS2_PLACEMENT_3D ( 'NONE', #370, #36, #394 ) ;
#60 =( NAMED_UNIT ( * ) SI_UNIT ( $, .STERADIAN. ) SOLID_ANGLE_UNIT ( ) );
#61 = EXTERNAL_SOURCE (IDENTIFIER('') ) ;
#62 = DOCUMENT_FILE ( 'Part5_DCM.STEP' , '', '', #264, '' ,$ ) ;
#63 =( NAMED_UNIT ( * ) PLANE_ANGLE_UNIT ( ) SI_UNIT ( $, .RADIAN. ) );
#64 = APPLICATION_CONTEXT ( 'automotive_design' ) ;
#65 = ROLE_ASSOCIATION ( #49, #98 ) ;
#66 =( GEOMETRIC_REPRESENTATION_CONTEXT ( 3 ) GLOBAL_UNCERTAINTY_ASSIGNED_CONTEXT ( ( #116 ) ) GLOBAL_UNIT_ASSIGNED_CONTEXT ( ( #32, #354, #104 ) ) REPRESENTATION_CONTEXT ( 'NONE', 'WORKASPACE' ) );
#67 = PROPERTY_DEFINITION_REPRESENTATION ( #158, #185 ) ;
#68 = EXTERNAL_SOURCE (IDENTIFIER('') ) ;
#69 = PROPERTY_DEFINITION ('external definition','', #358 ) ;
#70 = PRODUCT_RELATED_PRODUCT_CATEGORY ( 'part', '', ( #22 ) ) ;
#71 = DIRECTION ( 'NONE',  ( -1.000000000000000000, -5.187089087774607174E-17, -4.440892098500626162E-16 ) ) ;
#72 = IDENTIFICATION_ROLE ( 'external document id and location', $) ;
#73 =( LENGTH_UNIT ( ) NAMED_UNIT ( * ) SI_UNIT ( .MILLI., .METRE. ) );
#74 = DIRECTION ( 'NONE',  ( -1.000000000000000000, -2.156531288863087474E-16, 2.472653822134471792E-16 ) ) ;
#75 = PRODUCT ( 'Part1_DCM', 'Part1_DCM', '', ( #53 ) ) ;
#76 =( GEOMETRIC_REPRESENTATION_CONTEXT ( 3 ) GLOBAL_UNCERTAINTY_ASSIGNED_CONTEXT ( ( #379 ) ) GLOBAL_UNIT_ASSIGNED_CONTEXT ( ( #87, #149, #339 ) ) REPRESENTATION_CONTEXT ( 'NONE', 'WORKASPACE' ) );
#77 = IDENTIFICATION_ROLE ( 'external document id and location', $) ;
#78 =( NAMED_UNIT ( * ) SI_UNIT ( $, .STERADIAN. ) SOLID_ANGLE_UNIT ( ) );
#79 = CARTESIAN_POINT ( 'NONE',  ( -4.490000000000001101, -0.4999999999999970024, -0.09999999999999939493 ) ) ;
#80 = PROPERTY_DEFINITION ('document property','', #105 ) ;
#81 = APPLICATION_CONTEXT ( 'automotive_design' ) ;
#82 =( NAMED_UNIT ( * ) PLANE_ANGLE_UNIT ( ) SI_UNIT ( $, .RADIAN. ) );
#83 = DIRECTION ( 'NONE',  ( -7.934516940914234823E-18, 6.071608913570505218E-17, 1.000000000000000000 ) ) ;
#84 = PRODUCT_RELATED_PRODUCT_CATEGORY ( 'part', '', ( #306 ) ) ;
#85 = DIRECTION ( 'NONE',  ( -0.8610021701960746121, -0.5086012808847907296, 0.000000000000000000 ) ) ;
#86 = APPLICATION_PROTOCOL_DEFINITION ( 'draft international standard', 'automotive_design', 1998, #97 ) ;
#87 =( LENGTH_UNIT ( ) NAMED_UNIT ( * ) SI_UNIT ( .MILLI., .METRE. ) );
#88 = PRODUCT_RELATED_PRODUCT_CATEGORY ( 'part', '', ( #109 ) ) ;
#89 = APPLICATION_PROTOCOL_DEFINITION ( 'draft international standard', 'automotive_design', 1998, #93 ) ;
#90 = CONTEXT_DEPENDENT_SHAPE_REPRESENTATION ( #240, #302 ) ;
#91 = UNCERTAINTY_MEASURE_WITH_UNIT (LENGTH_MEASURE( 1.000000000000000082E-05 ), #30, 'distance_accuracy_value', 'NONE');
#92 = PROPERTY_DEFINITION ('document property','', #207 ) ;
#93 = APPLICATION_CONTEXT ( 'automotive_design' ) ;
#94 = DOCUMENT_FILE ( 'Part6_DCM.STEP' , '', '', #144, '' ,$ ) ;
#95 = PRODUCT_DEFINITION ( 'General', '', #338, #398 ) ;
#96 = DOCUMENT_FILE ( 'Part6_DCM.STEP' , '', '', #374, '' ,$ ) ;
#97 = APPLICATION_CONTEXT ( 'automotive_design' ) ;
#98 = APPLIED_DOCUMENT_REFERENCE ( #62,'',( #95) ) ;
#99 = PRODUCT_DEFINITION_SHAPE ( 'NONE', 'NONE',  #256 ) ;
#100 = DIRECTION ( 'NONE',  ( 1.000000000000000000, 0.000000000000000000, 0.000000000000000000 ) ) ;
#101 = CONTEXT_DEPENDENT_SHAPE_REPRESENTATION ( #246, #255 ) ;
#102 = PRODUCT_DEFINITION_CONTEXT ( 'detailed design', #127, 'design' ) ;
#103 = PROPERTY_DEFINITION_REPRESENTATION ( #114, #216 ) ;
#104 =( NAMED_UNIT ( * ) SI_UNIT ( $, .STERADIAN. ) SOLID_ANGLE_UNIT ( ) );
#105 = DOCUMENT_FILE ( 'Part4_DCM.STEP' , '', '', #122, '' ,$ ) ;
#106 = AXIS2_PLACEMENT_3D ( 'NONE', #203, #166, #238 ) ;
#107 = DIRECTION ( 'NONE',  ( 1.000000000000000000, 0.000000000000000000, 0.000000000000000000 ) ) ;
#108 = DIRECTION ( 'NONE',  ( 2.277129058245149293E-16, -3.852742967837289040E-16, 1.000000000000000000 ) ) ;
#109 = PRODUCT ( 'Part7_DCM', 'Part7_DCM', '', ( #17 ) ) ;
#110 = IDENTIFICATION_ROLE ( 'external document id and location', $) ;
#111 = APPLICATION_PROTOCOL_DEFINITION ( 'draft international standard', 'automotive_design', 1998, #330 ) ;
#112 = APPLICATION_CONTEXT ( 'automotive_design' ) ;
#113 = DIRECTION ( 'NONE',  ( 0.000000000000000000, 0.000000000000000000, 1.000000000000000000 ) ) ;
#114 = PROPERTY_DEFINITION ('external definition','', #388 ) ;
#115 = PRODUCT_DEFINITION_FORMATION_WITH_SPECIFIED_SOURCE ( 'Symmetric', '', #322, .NOT_KNOWN. ) ;
#116 = UNCERTAINTY_MEASURE_WITH_UNIT (LENGTH_MEASURE( 1.000000000000000082E-05 ), #32, 'distance_accuracy_value', 'NONE');
#117 = APPLICATION_CONTEXT ( 'automotive_design' ) ;
#118 = APPLICATION_PROTOCOL_DEFINITION ( 'draft international standard', 'automotive_design', 1998, #127 ) ;
#119 = PRODUCT_DEFINITION ( 'General', '', #219, #320 ) ;
#120 =( GEOMETRIC_REPRESENTATION_CONTEXT ( 3 ) GLOBAL_UNCERTAINTY_ASSIGNED_CONTEXT ( ( #290 ) ) GLOBAL_UNIT_ASSIGNED_CONTEXT ( ( #146, #249, #78 ) ) REPRESENTATION_CONTEXT ( 'NONE', 'WORKASPACE' ) );
#121 =( GEOMETRIC_REPRESENTATION_CONTEXT ( 3 ) GLOBAL_UNCERTAINTY_ASSIGNED_CONTEXT ( ( #351 ) ) GLOBAL_UNIT_ASSIGNED_CONTEXT ( ( #340, #45, #250 ) ) REPRESENTATION_CONTEXT ( 'NONE', 'WORKASPACE' ) );
#122 = DOCUMENT_TYPE ( 'geometry' ) ;
#123 = PROPERTY_DEFINITION_REPRESENTATION ( #37, #283 ) ;
#124 = OBJECT_ROLE ('mandatory',$ ) ;
#125 = PROPERTY_DEFINITION_REPRESENTATION ( #392, #376 ) ;
#126 = PRODUCT_DEFINITION_CONTEXT ( 'detailed design', #308, 'design' ) ;
#127 = APPLICATION_CONTEXT ( 'automotive_design' ) ;
#128 = APPLIED_EXTERNAL_IDENTIFICATION_ASSIGNMENT ( 'Part5_DCM.STEP' , #297, #2,( #23) ) ;
#129 = APPLIED_DOCUMENT_REFERENCE ( #347,'',( #397) ) ;
#130 = DIRECTION ( 'NONE',  ( 0.000000000000000000, 0.000000000000000000, 1.000000000000000000 ) ) ;
#131 = APPLIED_DOCUMENT_REFERENCE ( #388,'',( #167) ) ;
#132 = PROPERTY_DEFINITION_REPRESENTATION ( #140, #307 ) ;
#133 = IDENTIFICATION_ROLE ( 'external document id and location', $) ;
#134 = PRODUCT_DEFINITION_FORMATION_WITH_SPECIFIED_SOURCE ( 'Symmetric', '', #384, .NOT_KNOWN. ) ;
#135 = PROPERTY_DEFINITION_REPRESENTATION ( #145, #268 ) ;
#136 = CARTESIAN_POINT ( 'NONE',  ( 0.000000000000000000, 0.000000000000000000, 0.000000000000000000 ) ) ;
#137 = ITEM_DEFINED_TRANSFORMATION ( 'NONE', 'NONE', #385,  #371 ) ;
#138 = DIRECTION ( 'NONE',  ( 0.000000000000000000, 0.000000000000000000, 1.000000000000000000 ) ) ;
#139 = PROPERTY_DEFINITION_REPRESENTATION ( #389, #216 ) ;
#140 = PROPERTY_DEFINITION ('external definition','', #105 ) ;
#141 = IDENTIFICATION_ROLE ( 'external document id and location', $) ;
#142 = CARTESIAN_POINT ( 'NONE',  ( 0.000000000000000000, 0.000000000000000000, 0.000000000000000000 ) ) ;
#143 = CARTESIAN_POINT ( 'NONE',  ( 0.000000000000000000, 0.000000000000000000, -6.000000000000001776 ) ) ;
#144 = DOCUMENT_TYPE ( 'geometry' ) ;
#145 = PROPERTY_DEFINITION ('document property','', #23 ) ;
#146 =( LENGTH_UNIT ( ) NAMED_UNIT ( * ) SI_UNIT ( .MILLI., .METRE. ) );
#147 = DIRECTION ( 'NONE',  ( 0.000000000000000000, 0.000000000000000000, 1.000000000000000000 ) ) ;
#148 = PRODUCT_RELATED_PRODUCT_CATEGORY ( 'part', '', ( #75 ) ) ;
#149 =( NAMED_UNIT ( * ) PLANE_ANGLE_UNIT ( ) SI_UNIT ( $, .RADIAN. ) );
#150 = PROPERTY_DEFINITION ('external definition','', #96 ) ;
#151 = CARTESIAN_POINT ( 'NONE',  ( -4.163336342344337027E-14, 3.469446951953614189E-15, 14.99999999999999645 ) ) ;
#152 = PRODUCT_CONTEXT ( 'NONE', #315, 'mechanical' ) ;
#153 = PRODUCT_RELATED_PRODUCT_CATEGORY ( 'part', '', ( #322 ) ) ;
#154 = APPLICATION_PROTOCOL_DEFINITION ( 'draft international standard', 'automotive_design', 1998, #176 ) ;
#155 = OBJECT_ROLE ('mandatory',$ ) ;
#156 = ITEM_DEFINED_TRANSFORMATION ( 'NONE', 'NONE', #162,  #200 ) ;
#157 = SHAPE_DEFINITION_REPRESENTATION ( #99, #185 ) ;
#158 = PROPERTY_DEFINITION ('external definition','', #207 ) ;
#159 = CONTEXT_DEPENDENT_SHAPE_REPRESENTATION ( #348, #213 ) ;
#160 = PRODUCT_CONTEXT ( 'NONE', #235, 'mechanical' ) ;
#161 = PRODUCT_DEFINITION_CONTEXT ( 'detailed design', #176, 'design' ) ;
#162 = AXIS2_PLACEMENT_3D ( 'NONE', #151, #215, #282 ) ;
#163 = ROLE_ASSOCIATION ( #169, #328 ) ;
#164 = IDENTIFICATION_ROLE ( 'external document id and location', $) ;
#165 = ROLE_ASSOCIATION ( #286, #29 ) ;
#166 = DIRECTION ( 'NONE',  ( 0.000000000000000000, 0.000000000000000000, 1.000000000000000000 ) ) ;
#167 = PRODUCT_DEFINITION ( 'General', '', #115, #161 ) ;
#168 = PRODUCT ( 'Part8_DCM', 'Part8_DCM', '', ( #375 ) ) ;
#169 = OBJECT_ROLE ('mandatory',$ ) ;
#170 = PROPERTY_DEFINITION_REPRESENTATION ( #69, #14 ) ;
#171 =( NAMED_UNIT ( * ) SI_UNIT ( $, .STERADIAN. ) SOLID_ANGLE_UNIT ( ) );
#172 = APPLIED_EXTERNAL_IDENTIFICATION_ASSIGNMENT ( 'Part8_DCM.STEP' , #110, #193,( #358) ) ;
#173 = PROPERTY_DEFINITION_REPRESENTATION ( #92, #185 ) ;
#174 = DIRECTION ( 'NONE',  ( 1.000000000000000000, 0.000000000000000000, 0.000000000000000000 ) ) ;
#175 = PRODUCT_DEFINITION ( 'General', '', #209, #54 ) ;
#176 = APPLICATION_CONTEXT ( 'automotive_design' ) ;
#177 = CONTEXT_DEPENDENT_SHAPE_REPRESENTATION ( #299, #333 ) ;
#178 =( LENGTH_UNIT ( ) NAMED_UNIT ( * ) SI_UNIT ( .MILLI., .METRE. ) );
#179 = PRODUCT_DEFINITION_SHAPE ( 'NONE', 'NONE',  #400 ) ;
#180 = DIRECTION ( 'NONE',  ( 0.000000000000000000, -5.204170427930421283E-17, -1.000000000000000000 ) ) ;
#181 = APPLICATION_PROTOCOL_DEFINITION ( 'draft international standard', 'automotive_design', 1998, #81 ) ;
#182 = DOCUMENT_TYPE ( 'geometry' ) ;
#183 = APPLICATION_PROTOCOL_DEFINITION ( 'draft international standard', 'automotive_design', 1998, #308 ) ;
#184 = PROPERTY_DEFINITION ('document property','', #96 ) ;
#185 = SHAPE_REPRESENTATION ( 'Part9_DCM', ( #316 ), #76 ) ;
#186 = DIRECTION ( 'NONE',  ( 0.9999998078217404718, 0.0006199649039886623303, 0.000000000000000000 ) ) ;
#187 = UNCERTAINTY_MEASURE_WITH_UNIT (LENGTH_MEASURE( 1.000000000000000082E-05 ), #296, 'distance_accuracy_value', 'NONE');
#188 = PRODUCT_DEFINITION_FORMATION_WITH_SPECIFIED_SOURCE ( 'Symmetric', '', #306, .NOT_KNOWN. ) ;
#189 = DIRECTION ( 'NONE',  ( 1.000000000000000000, -6.767309548799957963E-15, -2.081604294355851445E-16 ) ) ;
#190 = DOCUMENT_FILE ( 'Part7_DCM.STEP' , '', '', #43, '' ,$ ) ;
#191 = DOCUMENT_TYPE ( 'geometry' ) ;
#192 = ROLE_ASSOCIATION ( #124, #241 ) ;
#193 = EXTERNAL_SOURCE (IDENTIFIER('') ) ;
#194 = APPLICATION_PROTOCOL_DEFINITION ( 'draft international standard', 'automotive_design', 1998, #235 ) ;
#195 = PRODUCT_DEFINITION_CONTEXT ( 'detailed design', #352, 'design' ) ;
#196 = CONTEXT_DEPENDENT_SHAPE_REPRESENTATION ( #47, #179 ) ;
#197 = APPLICATION_CONTEXT ( 'automotive_design' ) ;
#198 = SHAPE_DEFINITION_REPRESENTATION ( #26, #14 ) ;
#199 = PRODUCT ( 'DC Motor Assembly', 'DC Motor Assembly', '', ( #225 ) ) ;
#200 = AXIS2_PLACEMENT_3D ( 'NONE', #211, #56, #100 ) ;
#201 = PRODUCT_DEFINITION ( 'General', '', #350, #126 ) ;
#202 = ROLE_ASSOCIATION ( #221, #27 ) ;
#203 = CARTESIAN_POINT ( 'NONE',  ( 0.000000000000000000, 0.000000000000000000, 0.000000000000000000 ) ) ;
#204 = EXTERNAL_SOURCE (IDENTIFIER('') ) ;
#205 = CONTEXT_DEPENDENT_SHAPE_REPRESENTATION ( #254, #395 ) ;
#206 = APPLICATION_CONTEXT ( 'automotive_design' ) ;
#207 = DOCUMENT_FILE ( 'Part9_DCM.STEP' , '', '', #182, '' ,$ ) ;
#208 = PRODUCT_DEFINITION_CONTEXT ( 'detailed design', #197, 'design' ) ;
#209 = PRODUCT_DEFINITION_FORMATION_WITH_SPECIFIED_SOURCE ( 'Symmetric', '', #168, .NOT_KNOWN. ) ;
#210 = ITEM_DEFINED_TRANSFORMATION ( 'NONE', 'NONE', #39,  #344 ) ;
#211 = CARTESIAN_POINT ( 'NONE',  ( 0.000000000000000000, 0.000000000000000000, 0.000000000000000000 ) ) ;
#212 = PRODUCT_RELATED_PRODUCT_CATEGORY ( 'part', '', ( #1 ) ) ;
#213 = PRODUCT_DEFINITION_SHAPE ( 'NONE', 'NONE',  #401 ) ;
#214 = DOCUMENT_TYPE ( 'geometry' ) ;
#215 = DIRECTION ( 'NONE',  ( 0.000000000000000000, 0.000000000000000000, -1.000000000000000000 ) ) ;
#216 = SHAPE_REPRESENTATION ( 'Part10_DCM', ( #344 ), #331 ) ;
#217 = PROPERTY_DEFINITION ('external definition','', #23 ) ;
#218 =( GEOMETRIC_REPRESENTATION_CONTEXT ( 3 ) GLOBAL_UNCERTAINTY_ASSIGNED_CONTEXT ( ( #229 ) ) GLOBAL_UNIT_ASSIGNED_CONTEXT ( ( #178, #82, #363 ) ) REPRESENTATION_CONTEXT ( 'NONE', 'WORKASPACE' ) );
#219 = PRODUCT_DEFINITION_FORMATION_WITH_SPECIFIED_SOURCE ( 'Symmetric', '', #22, .NOT_KNOWN. ) ;
#220 =( NAMED_UNIT ( * ) SI_UNIT ( $, .STERADIAN. ) SOLID_ANGLE_UNIT ( ) );
#221 = OBJECT_ROLE ('mandatory',$ ) ;
#222 = CARTESIAN_POINT ( 'NONE',  ( -1.734723475976807094E-14, 0.000000000000000000, 20.37499999999999645 ) ) ;
#223 = DIRECTION ( 'NONE',  ( 0.000000000000000000, 0.000000000000000000, 1.000000000000000000 ) ) ;
#224 = PROPERTY_DEFINITION ('external definition','', #94 ) ;
#225 = PRODUCT_CONTEXT ( 'NONE', #206, 'mechanical' ) ;
#226 = OBJECT_ROLE ('mandatory',$ ) ;
#227 = SHAPE_DEFINITION_REPRESENTATION ( #337, #42 ) ;
#228 = PROPERTY_DEFINITION_REPRESENTATION ( #224, #42 ) ;
#229 = UNCERTAINTY_MEASURE_WITH_UNIT (LENGTH_MEASURE( 1.000000000000000082E-05 ), #178, 'distance_accuracy_value', 'NONE');
#230 = SHAPE_DEFINITION_REPRESENTATION ( #326, #307 ) ;
#231 = ITEM_DEFINED_TRANSFORMATION ( 'NONE', 'NONE', #311,  #51 ) ;
#232 = AXIS2_PLACEMENT_3D ( 'NONE', #142, #309, #273 ) ;
#233 = AXIS2_PLACEMENT_3D ( 'NONE', #13, #223, #186 ) ;
#234 = AXIS2_PLACEMENT_3D ( 'NONE', #313, #113, #393 ) ;
#235 = APPLICATION_CONTEXT ( 'automotive_design' ) ;
#236 = PROPERTY_DEFINITION_REPRESENTATION ( #80, #307 ) ;
#237 = PROPERTY_DEFINITION_REPRESENTATION ( #44, #268 ) ;
#238 = DIRECTION ( 'NONE',  ( 1.000000000000000000, 0.000000000000000000, 0.000000000000000000 ) ) ;
#239 = PROPERTY_DEFINITION_REPRESENTATION ( #377, #14 ) ;
#240 =( REPRESENTATION_RELATIONSHIP ('NONE','NONE', #24, #283 ) REPRESENTATION_RELATIONSHIP_WITH_TRANSFORMATION ( #52 )SHAPE_REPRESENTATION_RELATIONSHIP( ) );
#241 = APPLIED_DOCUMENT_REFERENCE ( #94,'',( #369) ) ;
#242 = ROLE_ASSOCIATION ( #155, #58 ) ;
#243 = PROPERTY_DEFINITION ('external definition','', #347 ) ;
#244 = PRODUCT_DEFINITION ( 'General', '', #378, #208 ) ;
#245 = DIRECTION ( 'NONE',  ( 4.440892098500626162E-16, 6.162975822039154730E-32, -0.9999999999999997780 ) ) ;
#246 =( REPRESENTATION_RELATIONSHIP ('NONE','NONE', #24, #185 ) REPRESENTATION_RELATIONSHIP_WITH_TRANSFORMATION ( #3 )SHAPE_REPRESENTATION_RELATIONSHIP( ) );
#247 = PRODUCT_DEFINITION_SHAPE ( 'NONE', 'NONE',  #405 ) ;
#248 = APPLIED_EXTERNAL_IDENTIFICATION_ASSIGNMENT ( 'Part9_DCM.STEP' , #72, #61,( #207) ) ;
#249 =( NAMED_UNIT ( * ) PLANE_ANGLE_UNIT ( ) SI_UNIT ( $, .RADIAN. ) );
#250 =( NAMED_UNIT ( * ) SI_UNIT ( $, .STERADIAN. ) SOLID_ANGLE_UNIT ( ) );
#251 = ROLE_ASSOCIATION ( #21, #129 ) ;
#252 =( GEOMETRIC_REPRESENTATION_CONTEXT ( 3 ) GLOBAL_UNCERTAINTY_ASSIGNED_CONTEXT ( ( #19 ) ) GLOBAL_UNIT_ASSIGNED_CONTEXT ( ( #332, #260, #220 ) ) REPRESENTATION_CONTEXT ( 'NONE', 'WORKASPACE' ) );
#253 = IDENTIFICATION_ROLE ( 'external document id and location', $) ;
#254 =( REPRESENTATION_RELATIONSHIP ('NONE','NONE', #24, #307 ) REPRESENTATION_RELATIONSHIP_WITH_TRANSFORMATION ( #327 )SHAPE_REPRESENTATION_RELATIONSHIP( ) );
#255 = PRODUCT_DEFINITION_SHAPE ( 'NONE', 'NONE',  #408 ) ;
#256 = PRODUCT_DEFINITION ( 'General', '', #134, #195 ) ;
#257 = APPLICATION_PROTOCOL_DEFINITION ( 'draft international standard', 'automotive_design', 1998, #6 ) ;
#258 = ITEM_DEFINED_TRANSFORMATION ( 'NONE', 'NONE', #233,  #200 ) ;
#259 = ROLE_ASSOCIATION ( #334, #314 ) ;
#260 =( NAMED_UNIT ( * ) PLANE_ANGLE_UNIT ( ) SI_UNIT ( $, .RADIAN. ) );
#261 = UNCERTAINTY_MEASURE_WITH_UNIT (LENGTH_MEASURE( 1.000000000000000082E-05 ), #73, 'distance_accuracy_value', 'NONE');
#262 = PRODUCT_DEFINITION_SHAPE ( 'NONE', 'NONE',  #167 ) ;
#263 = ROLE_ASSOCIATION ( #226, #131 ) ;
#264 = DOCUMENT_TYPE ( 'geometry' ) ;
#265 = APPLIED_EXTERNAL_IDENTIFICATION_ASSIGNMENT ( 'Part5_DCM.STEP' , #25, #9,( #62) ) ;
#266 = DIRECTION ( 'NONE',  ( 0.000000000000000000, 0.000000000000000000, 1.000000000000000000 ) ) ;
#267 = DIRECTION ( 'NONE',  ( 1.000000000000000000, 0.000000000000000000, 0.000000000000000000 ) ) ;
#268 = SHAPE_REPRESENTATION ( 'Part5_DCM', ( #51 ), #252 ) ;
#269 = CONTEXT_DEPENDENT_SHAPE_REPRESENTATION ( #15, #11 ) ;
#270 =( NAMED_UNIT ( * ) PLANE_ANGLE_UNIT ( ) SI_UNIT ( $, .RADIAN. ) );
#271 = PRODUCT_DEFINITION_SHAPE ( 'NONE', 'NONE',  #397 ) ;
#272 = APPLICATION_PROTOCOL_DEFINITION ( 'draft international standard', 'automotive_design', 1998, #206 ) ;
#273 = DIRECTION ( 'NONE',  ( 1.000000000000000000, 0.000000000000000000, 0.000000000000000000 ) ) ;
#274 = DIRECTION ( 'NONE',  ( -0.2310256701337189411, 0.9729476551897674463, 4.274592503268201771E-16 ) ) ;
#275 = PROPERTY_DEFINITION ('external definition','', #190 ) ;
#276 = PRODUCT_DEFINITION_SHAPE ( 'NONE', 'NONE',  #402 ) ;
#277 =( REPRESENTATION_RELATIONSHIP ('NONE','NONE', #24, #216 ) REPRESENTATION_RELATIONSHIP_WITH_TRANSFORMATION ( #210 )SHAPE_REPRESENTATION_RELATIONSHIP( ) );
#278 = APPLIED_EXTERNAL_IDENTIFICATION_ASSIGNMENT ( 'Part1_DCM.STEP' , #141, #281,( #347) ) ;
#279 = CARTESIAN_POINT ( 'NONE',  ( 4.490000000000004654, 0.4999999999999657496, -0.1000000000000028644 ) ) ;
#280 = PRODUCT_RELATED_PRODUCT_CATEGORY ( 'part', '', ( #384 ) ) ;
#281 = EXTERNAL_SOURCE (IDENTIFIER('') ) ;
#282 = DIRECTION ( 'NONE',  ( -0.9999998078217404718, 0.0006199649039886623303, 0.000000000000000000 ) ) ;
#283 = SHAPE_REPRESENTATION ( 'Part1_DCM', ( #367 ), #323 ) ;
#284 = APPLICATION_PROTOCOL_DEFINITION ( 'draft international standard', 'automotive_design', 1998, #197 ) ;
#285 = AXIS2_PLACEMENT_3D ( 'NONE', #312, #147, #336 ) ;
#286 = OBJECT_ROLE ('mandatory',$ ) ;
#287 = PRODUCT_CONTEXT ( 'NONE', #93, 'mechanical' ) ;
#288 = APPLICATION_CONTEXT ( 'automotive_design' ) ;
#289 = PROPERTY_DEFINITION_REPRESENTATION ( #341, #42 ) ;
#290 = UNCERTAINTY_MEASURE_WITH_UNIT (LENGTH_MEASURE( 1.000000000000000082E-05 ), #146, 'distance_accuracy_value', 'NONE');
#291 = APPLICATION_PROTOCOL_DEFINITION ( 'draft international standard', 'automotive_design', 1998, #112 ) ;
#292 = APPLIED_EXTERNAL_IDENTIFICATION_ASSIGNMENT ( 'Part4_DCM.STEP' , #133, #391,( #105) ) ;
#293 = CONTEXT_DEPENDENT_SHAPE_REPRESENTATION ( #38, #33 ) ;
#294 = CARTESIAN_POINT ( 'NONE',  ( 0.000000000000000000, 0.000000000000000000, 0.000000000000000000 ) ) ;
#295 = ITEM_DEFINED_TRANSFORMATION ( 'NONE', 'NONE', #303,  #51 ) ;
#296 =( LENGTH_UNIT ( ) NAMED_UNIT ( * ) SI_UNIT ( .MILLI., .METRE. ) );
#297 = IDENTIFICATION_ROLE ( 'external document id and location', $) ;
#298 = PROPERTY_DEFINITION_REPRESENTATION ( #150, #42 ) ;
#299 =( REPRESENTATION_RELATIONSHIP ('NONE','NONE', #24, #14 ) REPRESENTATION_RELATIONSHIP_WITH_TRANSFORMATION ( #137 )SHAPE_REPRESENTATION_RELATIONSHIP( ) );
#300 = DIRECTION ( 'NONE',  ( 1.000000000000000000, 0.000000000000000000, 0.000000000000000000 ) ) ;
#301 = ROLE_ASSOCIATION ( #366, #55 ) ;
#302 = PRODUCT_DEFINITION_SHAPE ( 'NONE', 'NONE',  #399 ) ;
#303 = AXIS2_PLACEMENT_3D ( 'NONE', #79, #305, #74 ) ;
#304 = EXTERNAL_SOURCE (IDENTIFIER('') ) ;
#305 = DIRECTION ( 'NONE',  ( -1.574208530174138889E-16, -1.526556658859590243E-16, -1.000000000000000222 ) ) ;
#306 = PRODUCT ( 'Part6_DCM', 'Part6_DCM', '', ( #321 ) ) ;
#307 = SHAPE_REPRESENTATION ( 'Part4_DCM', ( #232 ), #120 ) ;
#308 = APPLICATION_CONTEXT ( 'automotive_design' ) ;
#309 = DIRECTION ( 'NONE',  ( 0.000000000000000000, 0.000000000000000000, 1.000000000000000000 ) ) ;
#310 =( GEOMETRIC_REPRESENTATION_CONTEXT ( 3 ) GLOBAL_UNCERTAINTY_ASSIGNED_CONTEXT ( ( #91 ) ) GLOBAL_UNIT_ASSIGNED_CONTEXT ( ( #30, #63, #171 ) ) REPRESENTATION_CONTEXT ( 'NONE', 'WORKASPACE' ) );
#311 = AXIS2_PLACEMENT_3D ( 'NONE', #279, #390, #189 ) ;
#312 = CARTESIAN_POINT ( 'NONE',  ( -1.734723475976807094E-14, 0.000000000000000000, 9.499999999999998224 ) ) ;
#313 = CARTESIAN_POINT ( 'NONE',  ( 0.000000000000000000, 0.000000000000000000, 0.000000000000000000 ) ) ;
#314 = APPLIED_DOCUMENT_REFERENCE ( #190,'',( #244) ) ;
#315 = APPLICATION_CONTEXT ( 'automotive_design' ) ;
#316 = AXIS2_PLACEMENT_3D ( 'NONE', #294, #356, #267 ) ;
#317 = APPLICATION_PROTOCOL_DEFINITION ( 'draft international standard', 'automotive_design', 1998, #288 ) ;
#318 = SHAPE_DEFINITION_REPRESENTATION ( #7, #268 ) ;
#319 = APPLICATION_PROTOCOL_DEFINITION ( 'draft international standard', 'automotive_design', 1998, #343 ) ;
#320 = PRODUCT_DEFINITION_CONTEXT ( 'detailed design', #6, 'design' ) ;
#321 = PRODUCT_CONTEXT ( 'NONE', #288, 'mechanical' ) ;
#322 = PRODUCT ( 'Part10_DCM', 'Part10_DCM', '', ( #287 ) ) ;
#323 =( GEOMETRIC_REPRESENTATION_CONTEXT ( 3 ) GLOBAL_UNCERTAINTY_ASSIGNED_CONTEXT ( ( #187 ) ) GLOBAL_UNIT_ASSIGNED_CONTEXT ( ( #296, #270, #60 ) ) REPRESENTATION_CONTEXT ( 'NONE', 'WORKASPACE' ) );
#324 = DOCUMENT_TYPE ( 'geometry' ) ;
#325 = CARTESIAN_POINT ( 'NONE',  ( 0.000000000000000000, 0.000000000000000000, 0.000000000000000000 ) ) ;
#326 = PRODUCT_DEFINITION_SHAPE ( 'NONE', 'NONE',  #119 ) ;
#327 = ITEM_DEFINED_TRANSFORMATION ( 'NONE', 'NONE', #59,  #232 ) ;
#328 = APPLIED_DOCUMENT_REFERENCE ( #23,'',( #95) ) ;
#329 = CARTESIAN_POINT ( 'NONE',  ( 0.000000000000000000, 0.000000000000000000, 0.000000000000000000 ) ) ;
#330 = APPLICATION_CONTEXT ( 'automotive_design' ) ;
#331 =( GEOMETRIC_REPRESENTATION_CONTEXT ( 3 ) GLOBAL_UNCERTAINTY_ASSIGNED_CONTEXT ( ( #261 ) ) GLOBAL_UNIT_ASSIGNED_CONTEXT ( ( #73, #360, #35 ) ) REPRESENTATION_CONTEXT ( 'NONE', 'WORKASPACE' ) );
#332 =( LENGTH_UNIT ( ) NAMED_UNIT ( * ) SI_UNIT ( .MILLI., .METRE. ) );
#333 = PRODUCT_DEFINITION_SHAPE ( 'NONE', 'NONE',  #407 ) ;
#334 = OBJECT_ROLE ('mandatory',$ ) ;
#335 = DIRECTION ( 'NONE',  ( 1.000000000000000000, 0.000000000000000000, 0.000000000000000000 ) ) ;
#336 = DIRECTION ( 'NONE',  ( 1.000000000000000000, 0.000000000000000000, 0.000000000000000000 ) ) ;
#337 = PRODUCT_DEFINITION_SHAPE ( 'NONE', 'NONE',  #369 ) ;
#338 = PRODUCT_DEFINITION_FORMATION_WITH_SPECIFIED_SOURCE ( 'Symmetric', '', #1, .NOT_KNOWN. ) ;
#339 =( NAMED_UNIT ( * ) SI_UNIT ( $, .STERADIAN. ) SOLID_ANGLE_UNIT ( ) );
#340 =( LENGTH_UNIT ( ) NAMED_UNIT ( * ) SI_UNIT ( .MILLI., .METRE. ) );
#341 = PROPERTY_DEFINITION ('document property','', #94 ) ;
#342 = DIRECTION ( 'NONE',  ( 0.5881597110028601305, 0.8087448017471472461, -4.443705828000250318E-17 ) ) ;
#343 = APPLICATION_CONTEXT ( 'automotive_design' ) ;
#344 = AXIS2_PLACEMENT_3D ( 'NONE', #325, #266, #335 ) ;
#345 = PRODUCT_RELATED_PRODUCT_CATEGORY ( 'part', '', ( #168 ) ) ;
#346 = SHAPE_DEFINITION_REPRESENTATION ( #271, #283 ) ;
#347 = DOCUMENT_FILE ( 'Part1_DCM.STEP' , '', '', #324, '' ,$ ) ;
#348 =( REPRESENTATION_RELATIONSHIP ('NONE','NONE', #24, #42 ) REPRESENTATION_RELATIONSHIP_WITH_TRANSFORMATION ( #258 )SHAPE_REPRESENTATION_RELATIONSHIP( ) );
#349 = SHAPE_DEFINITION_REPRESENTATION ( #361, #376 ) ;
#350 = PRODUCT_DEFINITION_FORMATION_WITH_SPECIFIED_SOURCE ( 'Symmetric', '', #199, .NOT_KNOWN. ) ;
#351 = UNCERTAINTY_MEASURE_WITH_UNIT (LENGTH_MEASURE( 1.000000000000000082E-05 ), #340, 'distance_accuracy_value', 'NONE');
#352 = APPLICATION_CONTEXT ( 'automotive_design' ) ;
#353 = SHAPE_DEFINITION_REPRESENTATION ( #262, #216 ) ;
#354 =( NAMED_UNIT ( * ) PLANE_ANGLE_UNIT ( ) SI_UNIT ( $, .RADIAN. ) );
#355 =( REPRESENTATION_RELATIONSHIP ('NONE','NONE', #24, #42 ) REPRESENTATION_RELATIONSHIP_WITH_TRANSFORMATION ( #156 )SHAPE_REPRESENTATION_RELATIONSHIP( ) );
#356 = DIRECTION ( 'NONE',  ( 0.000000000000000000, 0.000000000000000000, 1.000000000000000000 ) ) ;
#357 = AXIS2_PLACEMENT_3D ( 'NONE', #10, #245, #71 ) ;
#358 = DOCUMENT_FILE ( 'Part8_DCM.STEP' , '', '', #12, '' ,$ ) ;
#359 = PRODUCT_DEFINITION_CONTEXT ( 'detailed design', #81, 'design' ) ;
#360 =( NAMED_UNIT ( * ) PLANE_ANGLE_UNIT ( ) SI_UNIT ( $, .RADIAN. ) );
#361 = PRODUCT_DEFINITION_SHAPE ( 'NONE', 'NONE',  #244 ) ;
#362 = SHAPE_DEFINITION_REPRESENTATION ( #57, #24 ) ;
#363 =( NAMED_UNIT ( * ) SI_UNIT ( $, .STERADIAN. ) SOLID_ANGLE_UNIT ( ) );
#364 = PRODUCT_CONTEXT ( 'NONE', #330, 'mechanical' ) ;
#365 = PROPERTY_DEFINITION ('document property','', #62 ) ;
#366 = OBJECT_ROLE ('mandatory',$ ) ;
#367 = AXIS2_PLACEMENT_3D ( 'NONE', #383, #387, #300 ) ;
#368 = APPLIED_EXTERNAL_IDENTIFICATION_ASSIGNMENT ( 'Part10_DCM.STEP' , #77, #386,( #388) ) ;
#369 = PRODUCT_DEFINITION ( 'General', '', #188, #359 ) ;
#370 = CARTESIAN_POINT ( 'NONE',  ( 0.000000000000000000, 0.000000000000000000, 0.000000000000000000 ) ) ;
#371 = AXIS2_PLACEMENT_3D ( 'NONE', #136, #130, #107 ) ;
#372 = APPLIED_EXTERNAL_IDENTIFICATION_ASSIGNMENT ( 'Part6_DCM.STEP' , #164, #204,( #96) ) ;
#373 = ITEM_DEFINED_TRANSFORMATION ( 'NONE', 'NONE', #357,  #106 ) ;
#374 = DOCUMENT_TYPE ( 'geometry' ) ;
#375 = PRODUCT_CONTEXT ( 'NONE', #97, 'mechanical' ) ;
#376 = SHAPE_REPRESENTATION ( 'Part7_DCM', ( #106 ), #66 ) ;
#377 = PROPERTY_DEFINITION ('document property','', #358 ) ;
#378 = PRODUCT_DEFINITION_FORMATION_WITH_SPECIFIED_SOURCE ( 'Symmetric', '', #109, .NOT_KNOWN. ) ;
#379 = UNCERTAINTY_MEASURE_WITH_UNIT (LENGTH_MEASURE( 1.000000000000000082E-05 ), #87, 'distance_accuracy_value', 'NONE');
#380 = CONTEXT_DEPENDENT_SHAPE_REPRESENTATION ( #355, #276 ) ;
#381 = PROPERTY_DEFINITION_REPRESENTATION ( #184, #42 ) ;
#382 = PROPERTY_DEFINITION_REPRESENTATION ( #217, #268 ) ;
#383 = CARTESIAN_POINT ( 'NONE',  ( 0.000000000000000000, 0.000000000000000000, 0.000000000000000000 ) ) ;
#384 = PRODUCT ( 'Part9_DCM', 'Part9_DCM', '', ( #364 ) ) ;
#385 = AXIS2_PLACEMENT_3D ( 'NONE', #143, #108, #274 ) ;
#386 = EXTERNAL_SOURCE (IDENTIFIER('') ) ;
#387 = DIRECTION ( 'NONE',  ( 0.000000000000000000, 0.000000000000000000, 1.000000000000000000 ) ) ;
#388 = DOCUMENT_FILE ( 'Part10_DCM.STEP' , '', '', #191, '' ,$ ) ;
#389 = PROPERTY_DEFINITION ('document property','', #388 ) ;
#390 = DIRECTION ( 'NONE',  ( -2.980049586316123458E-16, 9.232042594534175225E-16, -1.000000000000000222 ) ) ;
#391 = EXTERNAL_SOURCE (IDENTIFIER('') ) ;
#392 = PROPERTY_DEFINITION ('document property','', #190 ) ;
#393 = DIRECTION ( 'NONE',  ( 1.000000000000000000, 0.000000000000000000, 0.000000000000000000 ) ) ;
#394 = DIRECTION ( 'NONE',  ( 1.000000000000000000, 0.000000000000000000, 0.000000000000000000 ) ) ;
#395 = PRODUCT_DEFINITION_SHAPE ( 'NONE', 'NONE',  #406 ) ;
#396 = CARTESIAN_POINT ( 'NONE',  ( 1.734723475976807094E-14, 6.938893903907228378E-15, 9.200000000000020606 ) ) ;
#397 = PRODUCT_DEFINITION ( 'General', '', #8, #102 ) ;
#398 = PRODUCT_DEFINITION_CONTEXT ( 'detailed design', #112, 'design' ) ;
#399 = NEXT_ASSEMBLY_USAGE_OCCURRENCE ( 'NAUO1', ' ', ' ', #201, #397, $ ) ;
#400 = NEXT_ASSEMBLY_USAGE_OCCURRENCE ( 'NAUO2', ' ', ' ', #201, #244, $ ) ;
#401 = NEXT_ASSEMBLY_USAGE_OCCURRENCE ( 'NAUO3', ' ', ' ', #201, #369, $ ) ;
#402 = NEXT_ASSEMBLY_USAGE_OCCURRENCE ( 'NAUO4', ' ', ' ', #201, #369, $ ) ;
#403 = NEXT_ASSEMBLY_USAGE_OCCURRENCE ( 'NAUO5', ' ', ' ', #201, #95, $ ) ;
#404 = NEXT_ASSEMBLY_USAGE_OCCURRENCE ( 'NAUO6', ' ', ' ', #201, #95, $ ) ;
#405 = NEXT_ASSEMBLY_USAGE_OCCURRENCE ( 'NAUO7', ' ', ' ', #201, #167, $ ) ;
#406 = NEXT_ASSEMBLY_USAGE_OCCURRENCE ( 'NAUO8', ' ', ' ', #201, #119, $ ) ;
#407 = NEXT_ASSEMBLY_USAGE_OCCURRENCE ( 'NAUO9', ' ', ' ', #201, #175, $ ) ;
#408 = NEXT_ASSEMBLY_USAGE_OCCURRENCE ( 'NAUO10', ' ', ' ', #201, #256, $ ) ;
ENDSEC;
END-ISO-10303-21;
