ISO-10303-21;
HEADER;
FILE_DESCRIPTION (( 'STEP AP214' ),
    '1' );
FILE_NAME ('ISO 10673-1.75-S.STEP',
    '2025-07-14T09:37:29',
    ( '' ),
    ( '' ),
    'SwSTEP 2.0',
    'SolidWorks 2025',
    '' );
FILE_SCHEMA (( 'AUTOMOTIVE_DESIGN' ));
ENDSEC;

DATA;
#1 = FACE_OUTER_BOUND ( 'NONE', #89, .T. ) ;
#2 =( NAMED_UNIT ( * ) SI_UNIT ( $, .STERADIAN. ) SOLID_ANGLE_UNIT ( ) );
#3 = VERTEX_POINT ( 'NONE', #106 ) ;
#4 = FACE_OUTER_BOUND ( 'NONE', #70, .T. ) ;
#5 =( GEOMETRIC_REPRESENTATION_CONTEXT ( 3 ) GLOBAL_UNCERTAINTY_ASSIGNED_CONTEXT ( ( #35 ) ) GLOBAL_UNIT_ASSIGNED_CONTEXT ( ( #18, #83, #94 ) ) REPRESENTATION_CONTEXT ( 'NONE', 'WORKASPACE' ) );
#6 = FACE_OUTER_BOUND ( 'NONE', #34, .T. ) ;
#7 = ADVANCED_FACE ( 'NONE', ( #1, #80 ), #11, .F. ) ;
#8 = STYLED_ITEM ( 'NONE', ( #117 ), #10 ) ;
#9 = PRODUCT_DEFINITION ( 'General', '', #69, #13 ) ;
#10 = MANIFOLD_SOLID_BREP ( 'Base-Extrude', #27 ) ;
#11 = PLANE ( 'NONE',  #19 ) ;
#12 =( GEOMETRIC_REPRESENTATION_CONTEXT ( 3 ) GLOBAL_UNCERTAINTY_ASSIGNED_CONTEXT ( ( #41 ) ) GLOBAL_UNIT_ASSIGNED_CONTEXT ( ( #31, #90, #2 ) ) REPRESENTATION_CONTEXT ( 'NONE', 'WORKASPACE' ) );
#13 = PRODUCT_DEFINITION_CONTEXT ( 'detailed design', #22, 'design' ) ;
#14 = DIRECTION ( 'NONE',  ( 0.000000000000000000, 0.000000000000000000, -1.000000000000000000 ) ) ;
#15 = DIRECTION ( 'NONE',  ( 1.000000000000000000, 0.000000000000000000, 0.000000000000000000 ) ) ;
#16 = AXIS2_PLACEMENT_3D ( 'NONE', #67, #72, #60 ) ;
#17 = FACE_OUTER_BOUND ( 'NONE', #28, .T. ) ;
#18 =( LENGTH_UNIT ( ) NAMED_UNIT ( * ) SI_UNIT ( .MILLI., .METRE. ) );
#19 = AXIS2_PLACEMENT_3D ( 'NONE', #43, #32, #92 ) ;
#20 = ORIENTED_EDGE ( 'NONE', *, *, #40, .T. ) ;
#21 = FACE_BOUND ( 'NONE', #49, .T. ) ;
#22 = APPLICATION_CONTEXT ( 'automotive_design' ) ;
#23 = CARTESIAN_POINT ( 'NONE',  ( 0.000000000000000000, 0.000000000000000000, 0.000000000000000000 ) ) ;
#24 = CARTESIAN_POINT ( 'NONE',  ( 0.5999999999999999778, 0.000000000000000000, 0.000000000000000000 ) ) ;
#25 = DIRECTION ( 'NONE',  ( 1.000000000000000000, 0.000000000000000000, 0.000000000000000000 ) ) ;
#26 = ADVANCED_FACE ( 'NONE', ( #110, #21 ), #57, .T. ) ;
#27 = CLOSED_SHELL ( 'NONE', ( #26, #7, #87, #64 ) ) ;
#28 = EDGE_LOOP ( 'NONE', ( #30 ) ) ;
#29 = EDGE_CURVE ( 'NONE', #85, #85, #55, .T. ) ;
#30 = ORIENTED_EDGE ( 'NONE', *, *, #99, .F. ) ;
#31 =( LENGTH_UNIT ( ) NAMED_UNIT ( * ) SI_UNIT ( .MILLI., .METRE. ) );
#32 = DIRECTION ( 'NONE',  ( 1.000000000000000000, 0.000000000000000000, 0.000000000000000000 ) ) ;
#33 = PRODUCT_DEFINITION_SHAPE ( 'NONE', 'NONE',  #9 ) ;
#34 = EDGE_LOOP ( 'NONE', ( #101 ) ) ;
#35 = UNCERTAINTY_MEASURE_WITH_UNIT (LENGTH_MEASURE( 1.000000000000000082E-05 ), #18, 'distance_accuracy_value', 'NONE');
#36 = DIRECTION ( 'NONE',  ( 0.000000000000000000, 0.000000000000000000, 1.000000000000000000 ) ) ;
#37 = AXIS2_PLACEMENT_3D ( 'NONE', #44, #68, #36 ) ;
#38 = CYLINDRICAL_SURFACE ( 'NONE', #37, 2.250000000000000000 ) ;
#39 = SHAPE_DEFINITION_REPRESENTATION ( #33, #53 ) ;
#40 = EDGE_CURVE ( 'NONE', #73, #73, #62, .T. ) ;
#41 = UNCERTAINTY_MEASURE_WITH_UNIT (LENGTH_MEASURE( 1.000000000000000082E-05 ), #31, 'distance_accuracy_value', 'NONE');
#42 = CIRCLE ( 'NONE', #52, 2.250000000000000000 ) ;
#43 = CARTESIAN_POINT ( 'NONE',  ( 0.000000000000000000, 0.000000000000000000, 0.000000000000000000 ) ) ;
#44 = CARTESIAN_POINT ( 'NONE',  ( 0.5999999999999999778, 0.000000000000000000, 0.000000000000000000 ) ) ;
#45 = CARTESIAN_POINT ( 'NONE',  ( 0.000000000000000000, 0.000000000000000000, -2.250000000000000000 ) ) ;
#46 = FILL_AREA_STYLE ('',( #66 ) ) ;
#47 = EDGE_LOOP ( 'NONE', ( #20 ) ) ;
#48 = PRODUCT ( 'ISO 10673-1.75-S_ISO 10673-1.75-S', 'ISO 10673-1.75-S_ISO 10673-1.75-S', '', ( #114 ) ) ;
#49 = EDGE_LOOP ( 'NONE', ( #100 ) ) ;
#50 = CARTESIAN_POINT ( 'NONE',  ( 0.000000000000000000, 0.000000000000000000, -0.8750000000000000000 ) ) ;
#51 = DIRECTION ( 'NONE',  ( 1.000000000000000000, 0.000000000000000000, 0.000000000000000000 ) ) ;
#52 = AXIS2_PLACEMENT_3D ( 'NONE', #113, #25, #14 ) ;
#53 = ADVANCED_BREP_SHAPE_REPRESENTATION ( 'ISO 10673-1.75-S_ISO 10673-1.75-S', ( #10, #16 ), #5 ) ;
#54 = CARTESIAN_POINT ( 'NONE',  ( 0.5999999999999999778, 0.000000000000000000, 0.000000000000000000 ) ) ;
#55 = CIRCLE ( 'NONE', #88, 0.8750000000000000000 ) ;
#56 = EDGE_LOOP ( 'NONE', ( #98 ) ) ;
#57 = PLANE ( 'NONE',  #81 ) ;
#58 = DIRECTION ( 'NONE',  ( 0.000000000000000000, 0.000000000000000000, -1.000000000000000000 ) ) ;
#59 = AXIS2_PLACEMENT_3D ( 'NONE', #84, #15, #103 ) ;
#60 = DIRECTION ( 'NONE',  ( 1.000000000000000000, 0.000000000000000000, 0.000000000000000000 ) ) ;
#61 = DIRECTION ( 'NONE',  ( -1.000000000000000000, -0.000000000000000000, -0.000000000000000000 ) ) ;
#62 = CIRCLE ( 'NONE', #118, 2.250000000000000000 ) ;
#63 = DIRECTION ( 'NONE',  ( 0.000000000000000000, 0.000000000000000000, -1.000000000000000000 ) ) ;
#64 = ADVANCED_FACE ( 'NONE', ( #6, #4 ), #104, .F. ) ;
#65 = ORIENTED_EDGE ( 'NONE', *, *, #29, .T. ) ;
#66 = FILL_AREA_STYLE_COLOUR ( '', #108 ) ;
#67 = CARTESIAN_POINT ( 'NONE',  ( 0.000000000000000000, 0.000000000000000000, 0.000000000000000000 ) ) ;
#68 = DIRECTION ( 'NONE',  ( -1.000000000000000000, -0.000000000000000000, -0.000000000000000000 ) ) ;
#69 = PRODUCT_DEFINITION_FORMATION_WITH_SPECIFIED_SOURCE ( 'Symmetric', '', #48, .NOT_KNOWN. ) ;
#70 = EDGE_LOOP ( 'NONE', ( #109 ) ) ;
#71 = CIRCLE ( 'NONE', #59, 0.8750000000000000000 ) ;
#72 = DIRECTION ( 'NONE',  ( 0.000000000000000000, 0.000000000000000000, 1.000000000000000000 ) ) ;
#73 = VERTEX_POINT ( 'NONE', #45 ) ;
#74 = PRODUCT_RELATED_PRODUCT_CATEGORY ( 'part', '', ( #48 ) ) ;
#75 = DIRECTION ( 'NONE',  ( 0.000000000000000000, 0.000000000000000000, -1.000000000000000000 ) ) ;
#76 = CARTESIAN_POINT ( 'NONE',  ( 0.5999999999999999778, 0.000000000000000000, -2.250000000000000000 ) ) ;
#77 = EDGE_CURVE ( 'NONE', #3, #3, #71, .T. ) ;
#78 = SURFACE_STYLE_USAGE ( .BOTH. , #119 ) ;
#79 = DIRECTION ( 'NONE',  ( 1.000000000000000000, 0.000000000000000000, 0.000000000000000000 ) ) ;
#80 = FACE_BOUND ( 'NONE', #116, .T. ) ;
#81 = AXIS2_PLACEMENT_3D ( 'NONE', #54, #79, #63 ) ;
#82 = DIRECTION ( 'NONE',  ( 1.000000000000000000, 0.000000000000000000, 0.000000000000000000 ) ) ;
#83 =( NAMED_UNIT ( * ) PLANE_ANGLE_UNIT ( ) SI_UNIT ( $, .RADIAN. ) );
#84 = CARTESIAN_POINT ( 'NONE',  ( 0.5999999999999999778, 0.000000000000000000, 0.000000000000000000 ) ) ;
#85 = VERTEX_POINT ( 'NONE', #50 ) ;
#86 = APPLICATION_PROTOCOL_DEFINITION ( 'draft international standard', 'automotive_design', 1998, #22 ) ;
#87 = ADVANCED_FACE ( 'NONE', ( #17, #93 ), #38, .T. ) ;
#88 = AXIS2_PLACEMENT_3D ( 'NONE', #23, #82, #75 ) ;
#89 = EDGE_LOOP ( 'NONE', ( #102 ) ) ;
#90 =( NAMED_UNIT ( * ) PLANE_ANGLE_UNIT ( ) SI_UNIT ( $, .RADIAN. ) );
#91 = SURFACE_STYLE_FILL_AREA ( #46 ) ;
#92 = DIRECTION ( 'NONE',  ( 0.000000000000000000, 0.000000000000000000, -1.000000000000000000 ) ) ;
#93 = FACE_OUTER_BOUND ( 'NONE', #47, .T. ) ;
#94 =( NAMED_UNIT ( * ) SI_UNIT ( $, .STERADIAN. ) SOLID_ANGLE_UNIT ( ) );
#95 = DIRECTION ( 'NONE',  ( 0.000000000000000000, 0.000000000000000000, 1.000000000000000000 ) ) ;
#96 = VERTEX_POINT ( 'NONE', #76 ) ;
#97 = PRESENTATION_LAYER_ASSIGNMENT (  '', '', ( #8 ) ) ;
#98 = ORIENTED_EDGE ( 'NONE', *, *, #99, .T. ) ;
#99 = EDGE_CURVE ( 'NONE', #96, #96, #42, .T. ) ;
#100 = ORIENTED_EDGE ( 'NONE', *, *, #77, .F. ) ;
#101 = ORIENTED_EDGE ( 'NONE', *, *, #77, .T. ) ;
#102 = ORIENTED_EDGE ( 'NONE', *, *, #40, .F. ) ;
#103 = DIRECTION ( 'NONE',  ( 0.000000000000000000, 0.000000000000000000, -1.000000000000000000 ) ) ;
#104 = CYLINDRICAL_SURFACE ( 'NONE', #115, 0.8750000000000000000 ) ;
#105 = MECHANICAL_DESIGN_GEOMETRIC_PRESENTATION_REPRESENTATION (  '', ( #8 ), #12 ) ;
#106 = CARTESIAN_POINT ( 'NONE',  ( 0.5999999999999999778, 0.000000000000000000, -0.8750000000000000000 ) ) ;
#107 = APPLICATION_CONTEXT ( 'automotive_design' ) ;
#108 = COLOUR_RGB ( '',0.7921568627450980005, 0.8196078431372548767, 0.9333333333333333481 ) ;
#109 = ORIENTED_EDGE ( 'NONE', *, *, #29, .F. ) ;
#110 = FACE_OUTER_BOUND ( 'NONE', #56, .T. ) ;
#111 = CARTESIAN_POINT ( 'NONE',  ( 0.000000000000000000, 0.000000000000000000, 0.000000000000000000 ) ) ;
#112 = APPLICATION_PROTOCOL_DEFINITION ( 'draft international standard', 'automotive_design', 1998, #107 ) ;
#113 = CARTESIAN_POINT ( 'NONE',  ( 0.5999999999999999778, 0.000000000000000000, 0.000000000000000000 ) ) ;
#114 = PRODUCT_CONTEXT ( 'NONE', #107, 'mechanical' ) ;
#115 = AXIS2_PLACEMENT_3D ( 'NONE', #24, #61, #95 ) ;
#116 = EDGE_LOOP ( 'NONE', ( #65 ) ) ;
#117 = PRESENTATION_STYLE_ASSIGNMENT (( #78 ) ) ;
#118 = AXIS2_PLACEMENT_3D ( 'NONE', #111, #51, #58 ) ;
#119 = SURFACE_SIDE_STYLE ('',( #91 ) ) ;
ENDSEC;
END-ISO-10303-21;
