ISO-10303-21;
HEADER;
FILE_DESCRIPTION (( 'STEP AP214' ),
    '1' );
FILE_NAME ('Part7.STEP',
    '2025-07-14T09:37:29',
    ( '' ),
    ( '' ),
    'SwSTEP 2.0',
    'SolidWorks 2025',
    '' );
FILE_SCHEMA (( 'AUTOMOTIVE_DESIGN' ));
ENDSEC;

DATA;
#1 = CARTESIAN_POINT ( 'NONE',  ( 0.000000000000000000, 0.000000000000000000, -40.00000000000000000 ) ) ;
#2 = EDGE_LOOP ( 'NONE', ( #249, #348, #177, #141 ) ) ;
#3 = CARTESIAN_POINT ( 'NONE',  ( 0.000000000000000000, -10.00000000000000000, -40.00000000000000000 ) ) ;
#4 = CARTESIAN_POINT ( 'NONE',  ( 37.04999999999999716, -5.999999999999999112, -14.49999999999999645 ) ) ;
#5 = PRODUCT_RELATED_PRODUCT_CATEGORY ( 'part', '', ( #27 ) ) ;
#6 = DIRECTION ( 'NONE',  ( 0.000000000000000000, 0.000000000000000000, 1.000000000000000000 ) ) ;
#7 = CONICAL_SURFACE ( 'NONE', #39, 1.199999999999999734, 1.029744258676654090 ) ;
#8 = CIRCLE ( 'NONE', #34, 1.199999999999992628 ) ;
#9 = LINE ( 'NONE', #364, #306 ) ;
#10 = ADVANCED_FACE ( 'NONE', ( #257, #358 ), #427, .F. ) ;
#11 = CARTESIAN_POINT ( 'NONE',  ( 0.000000000000000000, -10.00000000000000000, 0.000000000000000000 ) ) ;
#12 = VERTEX_POINT ( 'NONE', #148 ) ;
#13 = EDGE_CURVE ( 'NONE', #324, #12, #147, .T. ) ;
#14 = DIRECTION ( 'NONE',  ( 0.000000000000000000, -1.000000000000000000, 0.000000000000000000 ) ) ;
#15 = ORIENTED_EDGE ( 'NONE', *, *, #63, .T. ) ;
#16 = DIRECTION ( 'NONE',  ( 0.000000000000000000, 0.000000000000000000, 1.000000000000000000 ) ) ;
#17 = ORIENTED_EDGE ( 'NONE', *, *, #190, .F. ) ;
#18 = FACE_OUTER_BOUND ( 'NONE', #384, .T. ) ;
#19 = CARTESIAN_POINT ( 'NONE',  ( 11.80000000000000071, 1.408343819019453415E-15, -32.00000000000000000 ) ) ;
#20 = CIRCLE ( 'NONE', #360, 1.199999999999999734 ) ;
#21 = ORIENTED_EDGE ( 'NONE', *, *, #22, .F. ) ;
#22 = EDGE_CURVE ( 'NONE', #130, #130, #426, .T. ) ;
#23 = DIRECTION ( 'NONE',  ( 0.000000000000000000, 0.000000000000000000, -1.000000000000000000 ) ) ;
#24 = EDGE_LOOP ( 'NONE', ( #83 ) ) ;
#25 = FACE_OUTER_BOUND ( 'NONE', #30, .T. ) ;
#26 = DIRECTION ( 'NONE',  ( -0.000000000000000000, -0.000000000000000000, 1.000000000000000000 ) ) ;
#27 = PRODUCT ( 'Part7', 'Part7', '', ( #232 ) ) ;
#28 = CARTESIAN_POINT ( 'NONE',  ( 37.04999999999999716, 1.408343819019453415E-15, -14.49999999999999645 ) ) ;
#29 = CARTESIAN_POINT ( 'NONE',  ( 0.000000000000000000, -10.00000000000000000, -40.00000000000000000 ) ) ;
#30 = EDGE_LOOP ( 'NONE', ( #386 ) ) ;
#31 = CARTESIAN_POINT ( 'NONE',  ( 0.000000000000000000, 0.000000000000000000, 0.000000000000000000 ) ) ;
#32 = DIRECTION ( 'NONE',  ( -0.000000000000000000, 1.000000000000000000, -0.000000000000000000 ) ) ;
#33 = AXIS2_PLACEMENT_3D ( 'NONE', #28, #292, #123 ) ;
#34 = AXIS2_PLACEMENT_3D ( 'NONE', #217, #116, #413 ) ;
#35 = VERTEX_POINT ( 'NONE', #96 ) ;
#36 = DIRECTION ( 'NONE',  ( -0.000000000000000000, 1.000000000000000000, -0.000000000000000000 ) ) ;
#37 = CARTESIAN_POINT ( 'NONE',  ( 61.42500000000000426, 1.408343819019453415E-15, -13.30000000000000604 ) ) ;
#38 = EDGE_CURVE ( 'NONE', #235, #235, #132, .T. ) ;
#39 = AXIS2_PLACEMENT_3D ( 'NONE', #237, #271, #160 ) ;
#40 = CONICAL_SURFACE ( 'NONE', #383, 1.199999999999992628, 1.029744258676651647 ) ;
#41 = AXIS2_PLACEMENT_3D ( 'NONE', #29, #23, #185 ) ;
#42 = DIRECTION ( 'NONE',  ( 1.000000000000000000, 0.000000000000000000, 0.000000000000000000 ) ) ;
#43 = FACE_OUTER_BOUND ( 'NONE', #344, .T. ) ;
#44 = LINE ( 'NONE', #111, #406 ) ;
#45 = ORIENTED_EDGE ( 'NONE', *, *, #38, .T. ) ;
#46 = FACE_BOUND ( 'NONE', #359, .T. ) ;
#47 = ORIENTED_EDGE ( 'NONE', *, *, #283, .F. ) ;
#48 = CARTESIAN_POINT ( 'NONE',  ( 61.42500000000000426, -5.999999999999999112, -14.49999999999999822 ) ) ;
#49 = ORIENTED_EDGE ( 'NONE', *, *, #361, .T. ) ;
#50 = EDGE_LOOP ( 'NONE', ( #47, #60, #379, #214 ) ) ;
#51 = EDGE_CURVE ( 'NONE', #175, #218, #362, .T. ) ;
#52 = PLANE ( 'NONE',  #41 ) ;
#53 = VERTEX_POINT ( 'NONE', #1 ) ;
#54 = CARTESIAN_POINT ( 'NONE',  ( 11.80000000000000071, -5.999999999999999112, -32.00000000000000000 ) ) ;
#55 = CARTESIAN_POINT ( 'NONE',  ( 80.00000000000000000, 0.000000000000000000, 0.000000000000000000 ) ) ;
#56 = DIRECTION ( 'NONE',  ( -0.000000000000000000, 1.000000000000000000, -0.000000000000000000 ) ) ;
#57 = FACE_OUTER_BOUND ( 'NONE', #169, .T. ) ;
#58 = DIRECTION ( 'NONE',  ( 0.000000000000000000, 0.000000000000000000, 1.000000000000000000 ) ) ;
#59 = PRESENTATION_LAYER_ASSIGNMENT (  '', '', ( #367 ) ) ;
#60 = ORIENTED_EDGE ( 'NONE', *, *, #129, .F. ) ;
#61 = CARTESIAN_POINT ( 'NONE',  ( 80.00000000000000000, -10.00000000000000000, 0.000000000000000000 ) ) ;
#62 = DIRECTION ( 'NONE',  ( 1.000000000000000000, 0.000000000000000000, 0.000000000000000000 ) ) ;
#63 = EDGE_CURVE ( 'NONE', #278, #175, #393, .T. ) ;
#64 = CARTESIAN_POINT ( 'NONE',  ( 61.42500000000000426, 1.408343819019453415E-15, -2.700000000000007283 ) ) ;
#65 = AXIS2_PLACEMENT_3D ( 'NONE', #171, #14, #78 ) ;
#66 = VERTEX_POINT ( 'NONE', #64 ) ;
#67 = FACE_OUTER_BOUND ( 'NONE', #319, .T. ) ;
#68 = CARTESIAN_POINT ( 'NONE',  ( 37.04999999999999005, 1.408343819019453415E-15, -32.00000000000000000 ) ) ;
#69 = ADVANCED_FACE ( 'NONE', ( #25 ), #399, .F. ) ;
#70 = CARTESIAN_POINT ( 'NONE',  ( 11.80000000000000249, 0.000000000000000000, -14.49999999999999822 ) ) ;
#71 = VERTEX_POINT ( 'NONE', #194 ) ;
#72 = FACE_OUTER_BOUND ( 'NONE', #315, .T. ) ;
#73 = VECTOR ( 'NONE', #247, 1000.000000000000000 ) ;
#74 = LINE ( 'NONE', #342, #73 ) ;
#75 = FACE_BOUND ( 'NONE', #112, .T. ) ;
#76 = EDGE_LOOP ( 'NONE', ( #245 ) ) ;
#77 = ADVANCED_FACE ( 'NONE', ( #184, #327 ), #193, .F. ) ;
#78 = DIRECTION ( 'NONE',  ( 0.000000000000000000, -0.000000000000000000, -1.000000000000000000 ) ) ;
#79 = ORIENTED_EDGE ( 'NONE', *, *, #409, .F. ) ;
#80 = CLOSED_SHELL ( 'NONE', ( #275, #377, #381, #121, #336, #296, #168, #200, #246, #10, #423, #159, #108, #366, #154, #97, #69, #77 ) ) ;
#81 = CIRCLE ( 'NONE', #268, 1.199999999999985745 ) ;
#82 = DIRECTION ( 'NONE',  ( -0.000000000000000000, 1.000000000000000000, -0.000000000000000000 ) ) ;
#83 = ORIENTED_EDGE ( 'NONE', *, *, #137, .T. ) ;
#84 = SURFACE_STYLE_FILL_AREA ( #376 ) ;
#85 = ORIENTED_EDGE ( 'NONE', *, *, #142, .T. ) ;
#86 = FACE_OUTER_BOUND ( 'NONE', #317, .T. ) ;
#87 = EDGE_LOOP ( 'NONE', ( #417 ) ) ;
#88 = DIRECTION ( 'NONE',  ( 0.000000000000000000, 0.000000000000000000, -1.000000000000000000 ) ) ;
#89 = EDGE_LOOP ( 'NONE', ( #262 ) ) ;
#90 = EDGE_CURVE ( 'NONE', #134, #134, #346, .T. ) ;
#91 = LINE ( 'NONE', #61, #308 ) ;
#92 = CARTESIAN_POINT ( 'NONE',  ( 61.42500000000000426, -5.999999999999999112, -14.49999999999999822 ) ) ;
#93 = EDGE_LOOP ( 'NONE', ( #387 ) ) ;
#94 = ORIENTED_EDGE ( 'NONE', *, *, #113, .F. ) ;
#95 = CONICAL_SURFACE ( 'NONE', #420, 1.199999999999997957, 1.029744258676652979 ) ;
#96 = CARTESIAN_POINT ( 'NONE',  ( 11.80000000000000071, -5.999999999999999112, -30.80000000000000071 ) ) ;
#97 = ADVANCED_FACE ( 'NONE', ( #231, #266 ), #103, .F. ) ;
#98 = APPLICATION_PROTOCOL_DEFINITION ( 'draft international standard', 'automotive_design', 1998, #411 ) ;
#99 =( NAMED_UNIT ( * ) PLANE_ANGLE_UNIT ( ) SI_UNIT ( $, .RADIAN. ) );
#100 = CARTESIAN_POINT ( 'NONE',  ( 37.04999999999999005, 0.000000000000000000, -32.00000000000000000 ) ) ;
#101 = CIRCLE ( 'NONE', #400, 1.199999999999999734 ) ;
#102 = EDGE_CURVE ( 'NONE', #370, #370, #390, .T. ) ;
#103 = CYLINDRICAL_SURFACE ( 'NONE', #138, 1.199999999999992628 ) ;
#104 = CARTESIAN_POINT ( 'NONE',  ( 0.000000000000000000, -10.00000000000000000, 0.000000000000000000 ) ) ;
#105 = DIRECTION ( 'NONE',  ( -0.000000000000000000, 1.000000000000000000, -0.000000000000000000 ) ) ;
#106 = CONICAL_SURFACE ( 'NONE', #340, 1.199999999999992628, 1.029744258676651647 ) ;
#107 = FACE_OUTER_BOUND ( 'NONE', #117, .T. ) ;
#108 = ADVANCED_FACE ( 'NONE', ( #239 ), #7, .F. ) ;
#109 = ORIENTED_EDGE ( 'NONE', *, *, #269, .T. ) ;
#110 = UNCERTAINTY_MEASURE_WITH_UNIT (LENGTH_MEASURE( 1.000000000000000082E-05 ), #403, 'distance_accuracy_value', 'NONE');
#111 = CARTESIAN_POINT ( 'NONE',  ( 0.000000000000000000, 0.000000000000000000, 0.000000000000000000 ) ) ;
#112 = EDGE_LOOP ( 'NONE', ( #395 ) ) ;
#113 = EDGE_CURVE ( 'NONE', #407, #407, #281, .T. ) ;
#114 = CIRCLE ( 'NONE', #198, 1.199999999999992628 ) ;
#115 = CONICAL_SURFACE ( 'NONE', #158, 1.199999999999999734, 1.029744258676654090 ) ;
#116 = DIRECTION ( 'NONE',  ( -0.000000000000000000, 1.000000000000000000, -0.000000000000000000 ) ) ;
#117 = EDGE_LOOP ( 'NONE', ( #276, #285, #15, #196 ) ) ;
#118 = DIRECTION ( 'NONE',  ( -0.000000000000000000, 1.000000000000000000, -0.000000000000000000 ) ) ;
#119 = DIRECTION ( 'NONE',  ( 0.000000000000000000, 0.000000000000000000, 1.000000000000000000 ) ) ;
#120 = DIRECTION ( 'NONE',  ( 0.000000000000000000, 0.000000000000000000, 1.000000000000000000 ) ) ;
#121 = ADVANCED_FACE ( 'NONE', ( #67 ), #309, .T. ) ;
#122 = CARTESIAN_POINT ( 'NONE',  ( 11.80000000000000071, -5.999999999999999112, -32.00000000000000000 ) ) ;
#123 = DIRECTION ( 'NONE',  ( 0.000000000000000000, 0.000000000000000000, 1.000000000000000000 ) ) ;
#124 = DIRECTION ( 'NONE',  ( -0.000000000000000000, 1.000000000000000000, -0.000000000000000000 ) ) ;
#125 = ORIENTED_EDGE ( 'NONE', *, *, #396, .F. ) ;
#126 =( NAMED_UNIT ( * ) SI_UNIT ( $, .STERADIAN. ) SOLID_ANGLE_UNIT ( ) );
#127 = FACE_OUTER_BOUND ( 'NONE', #402, .T. ) ;
#128 = CARTESIAN_POINT ( 'NONE',  ( 61.42500000000000426, -5.999999999999999112, -3.899999999999999911 ) ) ;
#129 = EDGE_CURVE ( 'NONE', #321, #12, #202, .T. ) ;
#130 = VERTEX_POINT ( 'NONE', #238 ) ;
#131 = CARTESIAN_POINT ( 'NONE',  ( 37.04999999999999005, -5.999999999999999112, -32.00000000000000000 ) ) ;
#132 = CIRCLE ( 'NONE', #374, 1.199999999999997957 ) ;
#133 = CIRCLE ( 'NONE', #173, 1.199999999999989297 ) ;
#134 = VERTEX_POINT ( 'NONE', #298 ) ;
#135 = CYLINDRICAL_SURFACE ( 'NONE', #297, 1.199999999999992628 ) ;
#136 = CARTESIAN_POINT ( 'NONE',  ( 61.42500000000000426, 1.408343819019453415E-15, -14.49999999999999822 ) ) ;
#137 = EDGE_CURVE ( 'NONE', #261, #261, #114, .T. ) ;
#138 = AXIS2_PLACEMENT_3D ( 'NONE', #100, #339, #267 ) ;
#139 = CARTESIAN_POINT ( 'NONE',  ( 80.00000000000000000, -10.00000000000000000, 0.000000000000000000 ) ) ;
#140 = PLANE ( 'NONE',  #375 ) ;
#141 = ORIENTED_EDGE ( 'NONE', *, *, #51, .F. ) ;
#142 = EDGE_CURVE ( 'NONE', #227, #324, #9, .T. ) ;
#143 = FILL_AREA_STYLE_COLOUR ( '', #392 ) ;
#144 = VECTOR ( 'NONE', #176, 1000.000000000000000 ) ;
#145 = FACE_OUTER_BOUND ( 'NONE', #424, .T. ) ;
#146 = ORIENTED_EDGE ( 'NONE', *, *, #90, .T. ) ;
#147 = LINE ( 'NONE', #55, #149 ) ;
#148 = CARTESIAN_POINT ( 'NONE',  ( 80.00000000000000000, 0.000000000000000000, -40.00000000000000000 ) ) ;
#149 = VECTOR ( 'NONE', #425, 1000.000000000000000 ) ;
#150 = AXIS2_PLACEMENT_3D ( 'NONE', #54, #183, #325 ) ;
#151 = CARTESIAN_POINT ( 'NONE',  ( 11.80000000000000071, 0.000000000000000000, -32.00000000000000000 ) ) ;
#152 = FACE_OUTER_BOUND ( 'NONE', #2, .T. ) ;
#153 = EDGE_LOOP ( 'NONE', ( #353 ) ) ;
#154 = ADVANCED_FACE ( 'NONE', ( #157 ), #115, .F. ) ;
#155 = ORIENTED_EDGE ( 'NONE', *, *, #240, .F. ) ;
#156 = APPLICATION_CONTEXT ( 'automotive_design' ) ;
#157 = FACE_OUTER_BOUND ( 'NONE', #93, .T. ) ;
#158 = AXIS2_PLACEMENT_3D ( 'NONE', #131, #371, #272 ) ;
#159 = ADVANCED_FACE ( 'NONE', ( #365, #410 ), #135, .F. ) ;
#160 = DIRECTION ( 'NONE',  ( 0.000000000000000000, 0.000000000000000000, 1.000000000000000000 ) ) ;
#161 = SHAPE_DEFINITION_REPRESENTATION ( #259, #355 ) ;
#162 = DIRECTION ( 'NONE',  ( 1.000000000000000000, 0.000000000000000000, 0.000000000000000000 ) ) ;
#163 = CARTESIAN_POINT ( 'NONE',  ( 11.80000000000000071, 1.408343819019453415E-15, -30.80000000000001137 ) ) ;
#164 = CARTESIAN_POINT ( 'NONE',  ( 61.42500000000000426, -5.999999999999999112, -3.899999999999999911 ) ) ;
#165 = AXIS2_PLACEMENT_3D ( 'NONE', #92, #229, #120 ) ;
#166 = APPLICATION_PROTOCOL_DEFINITION ( 'draft international standard', 'automotive_design', 1998, #156 ) ;
#167 = CARTESIAN_POINT ( 'NONE',  ( 61.42500000000000426, 0.000000000000000000, -3.899999999999999911 ) ) ;
#168 = ADVANCED_FACE ( 'NONE', ( #205 ), #40, .F. ) ;
#169 = EDGE_LOOP ( 'NONE', ( #79 ) ) ;
#170 = UNCERTAINTY_MEASURE_WITH_UNIT (LENGTH_MEASURE( 1.000000000000000082E-05 ), #178, 'distance_accuracy_value', 'NONE');
#171 = CARTESIAN_POINT ( 'NONE',  ( 0.000000000000000000, 0.000000000000000000, 0.000000000000000000 ) ) ;
#172 = ORIENTED_EDGE ( 'NONE', *, *, #102, .F. ) ;
#173 = AXIS2_PLACEMENT_3D ( 'NONE', #19, #82, #242 ) ;
#174 = DIRECTION ( 'NONE',  ( 0.000000000000000000, 1.000000000000000000, 0.000000000000000000 ) ) ;
#175 = VERTEX_POINT ( 'NONE', #104 ) ;
#176 = DIRECTION ( 'NONE',  ( -1.000000000000000000, -0.000000000000000000, -0.000000000000000000 ) ) ;
#177 = ORIENTED_EDGE ( 'NONE', *, *, #221, .F. ) ;
#178 =( LENGTH_UNIT ( ) NAMED_UNIT ( * ) SI_UNIT ( .MILLI., .METRE. ) );
#179 = EDGE_LOOP ( 'NONE', ( #254 ) ) ;
#180 = PRODUCT_DEFINITION_FORMATION_WITH_SPECIFIED_SOURCE ( 'Symmetric', '', #27, .NOT_KNOWN. ) ;
#181 = CARTESIAN_POINT ( 'NONE',  ( 80.00000000000000000, -10.00000000000000000, 0.000000000000000000 ) ) ;
#182 = EDGE_LOOP ( 'NONE', ( #21 ) ) ;
#183 = DIRECTION ( 'NONE',  ( -0.000000000000000000, 1.000000000000000000, -0.000000000000000000 ) ) ;
#184 = FACE_OUTER_BOUND ( 'NONE', #260, .T. ) ;
#185 = DIRECTION ( 'NONE',  ( -1.000000000000000000, 0.000000000000000000, -0.000000000000000000 ) ) ;
#186 = DIRECTION ( 'NONE',  ( -0.000000000000000000, 1.000000000000000000, -0.000000000000000000 ) ) ;
#187 = AXIS2_PLACEMENT_3D ( 'NONE', #335, #369, #6 ) ;
#188 = CARTESIAN_POINT ( 'NONE',  ( 80.00000000000000000, -10.00000000000000000, -40.00000000000000000 ) ) ;
#189 =( GEOMETRIC_REPRESENTATION_CONTEXT ( 3 ) GLOBAL_UNCERTAINTY_ASSIGNED_CONTEXT ( ( #170 ) ) GLOBAL_UNIT_ASSIGNED_CONTEXT ( ( #178, #349, #320 ) ) REPRESENTATION_CONTEXT ( 'NONE', 'WORKASPACE' ) );
#190 = EDGE_CURVE ( 'NONE', #175, #227, #264, .T. ) ;
#191 = EDGE_LOOP ( 'NONE', ( #389 ) ) ;
#192 = CYLINDRICAL_SURFACE ( 'NONE', #228, 1.199999999999996181 ) ;
#193 = CYLINDRICAL_SURFACE ( 'NONE', #295, 1.199999999999992628 ) ;
#194 = CARTESIAN_POINT ( 'NONE',  ( 37.04999999999999005, -5.999999999999999112, -30.80000000000000071 ) ) ;
#195 = CYLINDRICAL_SURFACE ( 'NONE', #289, 1.199999999999992628 ) ;
#196 = ORIENTED_EDGE ( 'NONE', *, *, #190, .T. ) ;
#197 = CARTESIAN_POINT ( 'NONE',  ( 61.42500000000000426, -5.999999999999999112, -2.700000000000007283 ) ) ;
#198 = AXIS2_PLACEMENT_3D ( 'NONE', #136, #36, #302 ) ;
#199 = DIRECTION ( 'NONE',  ( 1.000000000000000000, 0.000000000000000000, -0.000000000000000000 ) ) ;
#200 = ADVANCED_FACE ( 'NONE', ( #72, #43 ), #195, .F. ) ;
#201 = CARTESIAN_POINT ( 'NONE',  ( 37.04999999999999716, -5.999999999999999112, -13.29999999999999716 ) ) ;
#202 = LINE ( 'NONE', #408, #250 ) ;
#203 = DIRECTION ( 'NONE',  ( 0.000000000000000000, 0.000000000000000000, 1.000000000000000000 ) ) ;
#204 = CARTESIAN_POINT ( 'NONE',  ( 37.04999999999999005, 1.408343819019453415E-15, -30.80000000000001492 ) ) ;
#205 = FACE_OUTER_BOUND ( 'NONE', #350, .T. ) ;
#206 = AXIS2_PLACEMENT_3D ( 'NONE', #11, #241, #199 ) ;
#207 = EDGE_CURVE ( 'NONE', #278, #53, #299, .T. ) ;
#208 = CIRCLE ( 'NONE', #150, 1.199999999999999734 ) ;
#209 = CARTESIAN_POINT ( 'NONE',  ( 0.000000000000000000, -10.00000000000000000, -40.00000000000000000 ) ) ;
#210 = PRESENTATION_STYLE_ASSIGNMENT (( #343 ) ) ;
#211 = ORIENTED_EDGE ( 'NONE', *, *, #142, .F. ) ;
#212 = PRODUCT_DEFINITION ( 'General', '', #180, #263 ) ;
#213 = CARTESIAN_POINT ( 'NONE',  ( 0.000000000000000000, -10.00000000000000000, -40.00000000000000000 ) ) ;
#214 = ORIENTED_EDGE ( 'NONE', *, *, #207, .T. ) ;
#215 = CARTESIAN_POINT ( 'NONE',  ( 0.000000000000000000, 0.000000000000000000, 0.000000000000000000 ) ) ;
#216 = ORIENTED_EDGE ( 'NONE', *, *, #13, .T. ) ;
#217 = CARTESIAN_POINT ( 'NONE',  ( 61.42500000000000426, 1.408343819019453415E-15, -3.899999999999999911 ) ) ;
#218 = VERTEX_POINT ( 'NONE', #313 ) ;
#219 = PLANE ( 'NONE',  #223 ) ;
#220 = ORIENTED_EDGE ( 'NONE', *, *, #221, .T. ) ;
#221 = EDGE_CURVE ( 'NONE', #218, #321, #252, .T. ) ;
#222 = MANIFOLD_SOLID_BREP ( 'M2 Clearance Hole1', #80 ) ;
#223 = AXIS2_PLACEMENT_3D ( 'NONE', #181, #388, #88 ) ;
#224 = ORIENTED_EDGE ( 'NONE', *, *, #283, .T. ) ;
#225 = CARTESIAN_POINT ( 'NONE',  ( 0.000000000000000000, -10.00000000000000000, 0.000000000000000000 ) ) ;
#226 = FACE_OUTER_BOUND ( 'NONE', #421, .T. ) ;
#227 = VERTEX_POINT ( 'NONE', #215 ) ;
#228 = AXIS2_PLACEMENT_3D ( 'NONE', #397, #118, #119 ) ;
#229 = DIRECTION ( 'NONE',  ( -0.000000000000000000, 1.000000000000000000, -0.000000000000000000 ) ) ;
#230 = VERTEX_POINT ( 'NONE', #204 ) ;
#231 = FACE_OUTER_BOUND ( 'NONE', #179, .T. ) ;
#232 = PRODUCT_CONTEXT ( 'NONE', #411, 'mechanical' ) ;
#233 = DIRECTION ( 'NONE',  ( 0.000000000000000000, 0.000000000000000000, 1.000000000000000000 ) ) ;
#234 = EDGE_CURVE ( 'NONE', #372, #372, #133, .T. ) ;
#235 = VERTEX_POINT ( 'NONE', #338 ) ;
#236 = AXIS2_PLACEMENT_3D ( 'NONE', #122, #186, #401 ) ;
#237 = CARTESIAN_POINT ( 'NONE',  ( 37.04999999999999716, -5.999999999999999112, -14.49999999999999645 ) ) ;
#238 = CARTESIAN_POINT ( 'NONE',  ( 61.42500000000000426, -5.999999999999999112, -13.30000000000000604 ) ) ;
#239 = FACE_OUTER_BOUND ( 'NONE', #273, .T. ) ;
#240 = EDGE_CURVE ( 'NONE', #66, #66, #8, .T. ) ;
#241 = DIRECTION ( 'NONE',  ( 0.000000000000000000, 0.000000000000000000, 1.000000000000000000 ) ) ;
#242 = DIRECTION ( 'NONE',  ( 0.000000000000000000, 0.000000000000000000, 1.000000000000000000 ) ) ;
#243 = VECTOR ( 'NONE', #277, 1000.000000000000000 ) ;
#244 = LINE ( 'NONE', #213, #144 ) ;
#245 = ORIENTED_EDGE ( 'NONE', *, *, #38, .F. ) ;
#246 = ADVANCED_FACE ( 'NONE', ( #145 ), #106, .F. ) ;
#247 = DIRECTION ( 'NONE',  ( -1.000000000000000000, -0.000000000000000000, -0.000000000000000000 ) ) ;
#248 = EDGE_LOOP ( 'NONE', ( #155 ) ) ;
#249 = ORIENTED_EDGE ( 'NONE', *, *, #63, .F. ) ;
#250 = VECTOR ( 'NONE', #337, 1000.000000000000000 ) ;
#251 = VECTOR ( 'NONE', #174, 1000.000000000000000 ) ;
#252 = LINE ( 'NONE', #139, #243 ) ;
#253 = ORIENTED_EDGE ( 'NONE', *, *, #391, .F. ) ;
#254 = ORIENTED_EDGE ( 'NONE', *, *, #312, .F. ) ;
#255 = ORIENTED_EDGE ( 'NONE', *, *, #129, .T. ) ;
#256 = PLANE ( 'NONE',  #347 ) ;
#257 = FACE_OUTER_BOUND ( 'NONE', #182, .T. ) ;
#258 = DIRECTION ( 'NONE',  ( -0.000000000000000000, 1.000000000000000000, -0.000000000000000000 ) ) ;
#259 = PRODUCT_DEFINITION_SHAPE ( 'NONE', 'NONE',  #212 ) ;
#260 = EDGE_LOOP ( 'NONE', ( #253 ) ) ;
#261 = VERTEX_POINT ( 'NONE', #37 ) ;
#262 = ORIENTED_EDGE ( 'NONE', *, *, #137, .F. ) ;
#263 = PRODUCT_DEFINITION_CONTEXT ( 'detailed design', #156, 'design' ) ;
#264 = LINE ( 'NONE', #404, #282 ) ;
#265 = CARTESIAN_POINT ( 'NONE',  ( 11.80000000000000249, -5.999999999999999112, -14.49999999999999822 ) ) ;
#266 = FACE_OUTER_BOUND ( 'NONE', #191, .T. ) ;
#267 = DIRECTION ( 'NONE',  ( 0.000000000000000000, 0.000000000000000000, 1.000000000000000000 ) ) ;
#268 = AXIS2_PLACEMENT_3D ( 'NONE', #68, #363, #303 ) ;
#269 = EDGE_CURVE ( 'NONE', #53, #227, #44, .T. ) ;
#270 = DIRECTION ( 'NONE',  ( 0.000000000000000000, 0.000000000000000000, 1.000000000000000000 ) ) ;
#271 = DIRECTION ( 'NONE',  ( -0.000000000000000000, 1.000000000000000000, -0.000000000000000000 ) ) ;
#272 = DIRECTION ( 'NONE',  ( 0.000000000000000000, 0.000000000000000000, 1.000000000000000000 ) ) ;
#273 = EDGE_LOOP ( 'NONE', ( #332 ) ) ;
#274 = SURFACE_SIDE_STYLE ('',( #84 ) ) ;
#275 = ADVANCED_FACE ( 'NONE', ( #107 ), #140, .T. ) ;
#276 = ORIENTED_EDGE ( 'NONE', *, *, #269, .F. ) ;
#277 = DIRECTION ( 'NONE',  ( 0.000000000000000000, 0.000000000000000000, -1.000000000000000000 ) ) ;
#278 = VERTEX_POINT ( 'NONE', #209 ) ;
#279 = DIRECTION ( 'NONE',  ( -1.000000000000000000, 0.000000000000000000, 0.000000000000000000 ) ) ;
#280 = ORIENTED_EDGE ( 'NONE', *, *, #51, .T. ) ;
#281 = CIRCLE ( 'NONE', #187, 1.199999999999989297 ) ;
#282 = VECTOR ( 'NONE', #373, 1000.000000000000000 ) ;
#283 = EDGE_CURVE ( 'NONE', #12, #53, #74, .T. ) ;
#284 = DIRECTION ( 'NONE',  ( -0.000000000000000000, -0.000000000000000000, 1.000000000000000000 ) ) ;
#285 = ORIENTED_EDGE ( 'NONE', *, *, #207, .F. ) ;
#286 = CARTESIAN_POINT ( 'NONE',  ( 11.80000000000000249, -5.999999999999999112, -14.49999999999999822 ) ) ;
#287 = EDGE_CURVE ( 'NONE', #321, #278, #244, .T. ) ;
#288 = ORIENTED_EDGE ( 'NONE', *, *, #102, .T. ) ;
#289 = AXIS2_PLACEMENT_3D ( 'NONE', #167, #105, #333 ) ;
#290 = ORIENTED_EDGE ( 'NONE', *, *, #240, .T. ) ;
#291 = CARTESIAN_POINT ( 'NONE',  ( 0.000000000000000000, -10.00000000000000000, 0.000000000000000000 ) ) ;
#292 = DIRECTION ( 'NONE',  ( -0.000000000000000000, 1.000000000000000000, -0.000000000000000000 ) ) ;
#293 = DIRECTION ( 'NONE',  ( 0.000000000000000000, -0.000000000000000000, -1.000000000000000000 ) ) ;
#294 = DIRECTION ( 'NONE',  ( -0.000000000000000000, 1.000000000000000000, -0.000000000000000000 ) ) ;
#295 = AXIS2_PLACEMENT_3D ( 'NONE', #151, #258, #58 ) ;
#296 = ADVANCED_FACE ( 'NONE', ( #75, #310, #318, #46, #416, #378, #18 ), #419, .F. ) ;
#297 = AXIS2_PLACEMENT_3D ( 'NONE', #70, #32, #203 ) ;
#298 = CARTESIAN_POINT ( 'NONE',  ( 37.04999999999999716, 1.408343819019453415E-15, -13.30000000000000426 ) ) ;
#299 = LINE ( 'NONE', #3, #251 ) ;
#300 = EDGE_LOOP ( 'NONE', ( #125 ) ) ;
#301 = DIRECTION ( 'NONE',  ( -0.000000000000000000, 1.000000000000000000, -0.000000000000000000 ) ) ;
#302 = DIRECTION ( 'NONE',  ( 0.000000000000000000, 0.000000000000000000, 1.000000000000000000 ) ) ;
#303 = DIRECTION ( 'NONE',  ( 0.000000000000000000, 0.000000000000000000, 1.000000000000000000 ) ) ;
#304 = DIRECTION ( 'NONE',  ( -0.000000000000000000, 1.000000000000000000, -0.000000000000000000 ) ) ;
#305 = VERTEX_POINT ( 'NONE', #201 ) ;
#306 = VECTOR ( 'NONE', #162, 1000.000000000000000 ) ;
#307 = DIRECTION ( 'NONE',  ( -0.000000000000000000, 1.000000000000000000, -0.000000000000000000 ) ) ;
#308 = VECTOR ( 'NONE', #394, 1000.000000000000000 ) ;
#309 = PLANE ( 'NONE',  #206 ) ;
#310 = FACE_BOUND ( 'NONE', #300, .T. ) ;
#311 = ORIENTED_EDGE ( 'NONE', *, *, #13, .F. ) ;
#312 = EDGE_CURVE ( 'NONE', #71, #71, #101, .T. ) ;
#313 = CARTESIAN_POINT ( 'NONE',  ( 80.00000000000000000, -10.00000000000000000, 0.000000000000000000 ) ) ;
#314 = AXIS2_PLACEMENT_3D ( 'NONE', #31, #270, #42 ) ;
#315 = EDGE_LOOP ( 'NONE', ( #172 ) ) ;
#316 = DIRECTION ( 'NONE',  ( -0.000000000000000000, 1.000000000000000000, -0.000000000000000000 ) ) ;
#317 = EDGE_LOOP ( 'NONE', ( #311, #380, #220, #255 ) ) ;
#318 = FACE_BOUND ( 'NONE', #352, .T. ) ;
#319 = EDGE_LOOP ( 'NONE', ( #211, #17, #280, #49 ) ) ;
#320 =( NAMED_UNIT ( * ) SI_UNIT ( $, .STERADIAN. ) SOLID_ANGLE_UNIT ( ) );
#321 = VERTEX_POINT ( 'NONE', #188 ) ;
#322 = VECTOR ( 'NONE', #26, 1000.000000000000000 ) ;
#323 = CARTESIAN_POINT ( 'NONE',  ( 80.00000000000000000, 0.000000000000000000, 0.000000000000000000 ) ) ;
#324 = VERTEX_POINT ( 'NONE', #323 ) ;
#325 = DIRECTION ( 'NONE',  ( 0.000000000000000000, 0.000000000000000000, 1.000000000000000000 ) ) ;
#326 = CARTESIAN_POINT ( 'NONE',  ( 61.42500000000000426, 0.000000000000000000, -14.49999999999999822 ) ) ;
#327 = FACE_OUTER_BOUND ( 'NONE', #153, .T. ) ;
#328 = AXIS2_PLACEMENT_3D ( 'NONE', #326, #294, #356 ) ;
#329 =( GEOMETRIC_REPRESENTATION_CONTEXT ( 3 ) GLOBAL_UNCERTAINTY_ASSIGNED_CONTEXT ( ( #110 ) ) GLOBAL_UNIT_ASSIGNED_CONTEXT ( ( #403, #99, #126 ) ) REPRESENTATION_CONTEXT ( 'NONE', 'WORKASPACE' ) );
#330 = CARTESIAN_POINT ( 'NONE',  ( 0.000000000000000000, -10.00000000000000000, 0.000000000000000000 ) ) ;
#331 = FACE_OUTER_BOUND ( 'NONE', #50, .T. ) ;
#332 = ORIENTED_EDGE ( 'NONE', *, *, #409, .T. ) ;
#333 = DIRECTION ( 'NONE',  ( 0.000000000000000000, 0.000000000000000000, 1.000000000000000000 ) ) ;
#334 = DIRECTION ( 'NONE',  ( 0.000000000000000000, 0.000000000000000000, 1.000000000000000000 ) ) ;
#335 = CARTESIAN_POINT ( 'NONE',  ( 11.80000000000000249, 1.408343819019453415E-15, -14.49999999999999822 ) ) ;
#336 = ADVANCED_FACE ( 'NONE', ( #152 ), #256, .T. ) ;
#337 = DIRECTION ( 'NONE',  ( 0.000000000000000000, 1.000000000000000000, 0.000000000000000000 ) ) ;
#338 = CARTESIAN_POINT ( 'NONE',  ( 11.80000000000000249, -5.999999999999999112, -13.30000000000000071 ) ) ;
#339 = DIRECTION ( 'NONE',  ( -0.000000000000000000, 1.000000000000000000, -0.000000000000000000 ) ) ;
#340 = AXIS2_PLACEMENT_3D ( 'NONE', #48, #385, #414 ) ;
#341 = DIRECTION ( 'NONE',  ( 0.000000000000000000, 0.000000000000000000, 1.000000000000000000 ) ) ;
#342 = CARTESIAN_POINT ( 'NONE',  ( 0.000000000000000000, 0.000000000000000000, -40.00000000000000000 ) ) ;
#343 = SURFACE_STYLE_USAGE ( .BOTH. , #274 ) ;
#344 = EDGE_LOOP ( 'NONE', ( #290 ) ) ;
#345 = CARTESIAN_POINT ( 'NONE',  ( 37.04999999999999005, -5.999999999999999112, -32.00000000000000000 ) ) ;
#346 = CIRCLE ( 'NONE', #33, 1.199999999999992628 ) ;
#347 = AXIS2_PLACEMENT_3D ( 'NONE', #291, #354, #293 ) ;
#348 = ORIENTED_EDGE ( 'NONE', *, *, #287, .F. ) ;
#349 =( NAMED_UNIT ( * ) PLANE_ANGLE_UNIT ( ) SI_UNIT ( $, .RADIAN. ) );
#350 = EDGE_LOOP ( 'NONE', ( #288 ) ) ;
#351 = DIRECTION ( 'NONE',  ( 0.000000000000000000, 0.000000000000000000, 1.000000000000000000 ) ) ;
#352 = EDGE_LOOP ( 'NONE', ( #398 ) ) ;
#353 = ORIENTED_EDGE ( 'NONE', *, *, #234, .T. ) ;
#354 = DIRECTION ( 'NONE',  ( 0.000000000000000000, -1.000000000000000000, 0.000000000000000000 ) ) ;
#355 = ADVANCED_BREP_SHAPE_REPRESENTATION ( 'Part7', ( #222, #314 ), #329 ) ;
#356 = DIRECTION ( 'NONE',  ( 0.000000000000000000, 0.000000000000000000, 1.000000000000000000 ) ) ;
#357 = DIRECTION ( 'NONE',  ( 0.000000000000000000, 0.000000000000000000, 1.000000000000000000 ) ) ;
#358 = FACE_OUTER_BOUND ( 'NONE', #24, .T. ) ;
#359 = EDGE_LOOP ( 'NONE', ( #94 ) ) ;
#360 = AXIS2_PLACEMENT_3D ( 'NONE', #4, #124, #334 ) ;
#361 = EDGE_CURVE ( 'NONE', #218, #324, #91, .T. ) ;
#362 = LINE ( 'NONE', #225, #382 ) ;
#363 = DIRECTION ( 'NONE',  ( -0.000000000000000000, 1.000000000000000000, -0.000000000000000000 ) ) ;
#364 = CARTESIAN_POINT ( 'NONE',  ( 0.000000000000000000, 0.000000000000000000, 0.000000000000000000 ) ) ;
#365 = FACE_OUTER_BOUND ( 'NONE', #76, .T. ) ;
#366 = ADVANCED_FACE ( 'NONE', ( #57, #226 ), #192, .F. ) ;
#367 = STYLED_ITEM ( 'NONE', ( #210 ), #222 ) ;
#368 = CARTESIAN_POINT ( 'NONE',  ( 11.80000000000000249, 1.408343819019453415E-15, -13.30000000000000959 ) ) ;
#369 = DIRECTION ( 'NONE',  ( -0.000000000000000000, 1.000000000000000000, -0.000000000000000000 ) ) ;
#370 = VERTEX_POINT ( 'NONE', #197 ) ;
#371 = DIRECTION ( 'NONE',  ( -0.000000000000000000, 1.000000000000000000, -0.000000000000000000 ) ) ;
#372 = VERTEX_POINT ( 'NONE', #163 ) ;
#373 = DIRECTION ( 'NONE',  ( 0.000000000000000000, 1.000000000000000000, 0.000000000000000000 ) ) ;
#374 = AXIS2_PLACEMENT_3D ( 'NONE', #286, #56, #357 ) ;
#375 = AXIS2_PLACEMENT_3D ( 'NONE', #422, #279, #351 ) ;
#376 = FILL_AREA_STYLE ('',( #143 ) ) ;
#377 = ADVANCED_FACE ( 'NONE', ( #331 ), #52, .T. ) ;
#378 = FACE_BOUND ( 'NONE', #248, .T. ) ;
#379 = ORIENTED_EDGE ( 'NONE', *, *, #287, .T. ) ;
#380 = ORIENTED_EDGE ( 'NONE', *, *, #361, .F. ) ;
#381 = ADVANCED_FACE ( 'NONE', ( #86 ), #219, .T. ) ;
#382 = VECTOR ( 'NONE', #62, 1000.000000000000000 ) ;
#383 = AXIS2_PLACEMENT_3D ( 'NONE', #164, #307, #341 ) ;
#384 = EDGE_LOOP ( 'NONE', ( #109, #85, #216, #224 ) ) ;
#385 = DIRECTION ( 'NONE',  ( -0.000000000000000000, 1.000000000000000000, -0.000000000000000000 ) ) ;
#386 = ORIENTED_EDGE ( 'NONE', *, *, #391, .T. ) ;
#387 = ORIENTED_EDGE ( 'NONE', *, *, #312, .T. ) ;
#388 = DIRECTION ( 'NONE',  ( 1.000000000000000000, -0.000000000000000000, 0.000000000000000000 ) ) ;
#389 = ORIENTED_EDGE ( 'NONE', *, *, #396, .T. ) ;
#390 = CIRCLE ( 'NONE', #418, 1.199999999999992628 ) ;
#391 = EDGE_CURVE ( 'NONE', #35, #35, #208, .T. ) ;
#392 = COLOUR_RGB ( '',0.7921568627450980005, 0.8196078431372548767, 0.9333333333333333481 ) ;
#393 = LINE ( 'NONE', #330, #322 ) ;
#394 = DIRECTION ( 'NONE',  ( 0.000000000000000000, 1.000000000000000000, 0.000000000000000000 ) ) ;
#395 = ORIENTED_EDGE ( 'NONE', *, *, #234, .F. ) ;
#396 = EDGE_CURVE ( 'NONE', #230, #230, #81, .T. ) ;
#397 = CARTESIAN_POINT ( 'NONE',  ( 37.04999999999999716, 0.000000000000000000, -14.49999999999999645 ) ) ;
#398 = ORIENTED_EDGE ( 'NONE', *, *, #90, .F. ) ;
#399 = CONICAL_SURFACE ( 'NONE', #236, 1.199999999999999734, 1.029744258676652979 ) ;
#400 = AXIS2_PLACEMENT_3D ( 'NONE', #345, #316, #16 ) ;
#401 = DIRECTION ( 'NONE',  ( 0.000000000000000000, 0.000000000000000000, 1.000000000000000000 ) ) ;
#402 = EDGE_LOOP ( 'NONE', ( #45 ) ) ;
#403 =( LENGTH_UNIT ( ) NAMED_UNIT ( * ) SI_UNIT ( .MILLI., .METRE. ) );
#404 = CARTESIAN_POINT ( 'NONE',  ( 0.000000000000000000, -10.00000000000000000, 0.000000000000000000 ) ) ;
#405 = DIRECTION ( 'NONE',  ( 0.000000000000000000, 0.000000000000000000, 1.000000000000000000 ) ) ;
#406 = VECTOR ( 'NONE', #284, 1000.000000000000000 ) ;
#407 = VERTEX_POINT ( 'NONE', #368 ) ;
#408 = CARTESIAN_POINT ( 'NONE',  ( 80.00000000000000000, -10.00000000000000000, -40.00000000000000000 ) ) ;
#409 = EDGE_CURVE ( 'NONE', #305, #305, #20, .T. ) ;
#410 = FACE_OUTER_BOUND ( 'NONE', #87, .T. ) ;
#411 = APPLICATION_CONTEXT ( 'automotive_design' ) ;
#412 = MECHANICAL_DESIGN_GEOMETRIC_PRESENTATION_REPRESENTATION (  '', ( #367 ), #189 ) ;
#413 = DIRECTION ( 'NONE',  ( 0.000000000000000000, 0.000000000000000000, 1.000000000000000000 ) ) ;
#414 = DIRECTION ( 'NONE',  ( 0.000000000000000000, 0.000000000000000000, 1.000000000000000000 ) ) ;
#415 = ORIENTED_EDGE ( 'NONE', *, *, #22, .T. ) ;
#416 = FACE_BOUND ( 'NONE', #89, .T. ) ;
#417 = ORIENTED_EDGE ( 'NONE', *, *, #113, .T. ) ;
#418 = AXIS2_PLACEMENT_3D ( 'NONE', #128, #304, #233 ) ;
#419 = PLANE ( 'NONE',  #65 ) ;
#420 = AXIS2_PLACEMENT_3D ( 'NONE', #265, #301, #405 ) ;
#421 = EDGE_LOOP ( 'NONE', ( #146 ) ) ;
#422 = CARTESIAN_POINT ( 'NONE',  ( 0.000000000000000000, -10.00000000000000000, 0.000000000000000000 ) ) ;
#423 = ADVANCED_FACE ( 'NONE', ( #127 ), #95, .F. ) ;
#424 = EDGE_LOOP ( 'NONE', ( #415 ) ) ;
#425 = DIRECTION ( 'NONE',  ( 0.000000000000000000, 0.000000000000000000, -1.000000000000000000 ) ) ;
#426 = CIRCLE ( 'NONE', #165, 1.199999999999992628 ) ;
#427 = CYLINDRICAL_SURFACE ( 'NONE', #328, 1.199999999999992628 ) ;
ENDSEC;
END-ISO-10303-21;
