ISO-10303-21;
HEADER;
FILE_DESCRIPTION (( 'STEP AP214' ),
    '1' );
FILE_NAME ('ISO 7046-1 - M6 x 12 - Z - 12N.STEP',
    '2025-08-01T14:11:49',
    ( '' ),
    ( '' ),
    'SwSTEP 2.0',
    'SolidWorks 2025',
    '' );
FILE_SCHEMA (( 'AUTOMOTIVE_DESIGN' ));
ENDSEC;

DATA;
#1 = CYLINDRICAL_SURFACE ( 'NONE', #194, 5.650000000000000355 ) ;
#2 = VERTEX_POINT ( 'NONE', #693 ) ;
#3 = EDGE_CURVE ( 'NONE', #401, #484, #688, .T. ) ;
#4 = DIRECTION ( 'NONE',  ( 1.257045997084642858E-16, -1.000000000000000000, -3.491481338843133355E-15 ) ) ;
#5 = LINE ( 'NONE', #310, #383 ) ;
#6 = ORIENTED_EDGE ( 'NONE', *, *, #474, .F. ) ;
#7 = CIRCLE ( 'NONE', #698, 1.280499999999998639 ) ;
#8 = DIRECTION ( 'NONE',  ( -1.000000000000000000, -0.000000000000000000, -0.000000000000000000 ) ) ;
#9 = DIRECTION ( 'NONE',  ( 0.000000000000000000, 0.000000000000000000, 1.000000000000000000 ) ) ;
#10 = ORIENTED_EDGE ( 'NONE', *, *, #334, .T. ) ;
#11 = ADVANCED_FACE ( 'NONE', ( #96 ), #210, .F. ) ;
#12 =( NAMED_UNIT ( * ) PLANE_ANGLE_UNIT ( ) SI_UNIT ( $, .RADIAN. ) );
#13 = CARTESIAN_POINT ( 'NONE',  ( 0.000000000000000000, -0.7099999999999888622, -3.300000000000002487 ) ) ;
#14 = EDGE_LOOP ( 'NONE', ( #721, #153, #69, #80 ) ) ;
#15 = FACE_OUTER_BOUND ( 'NONE', #235, .T. ) ;
#16 = CARTESIAN_POINT ( 'NONE',  ( 0.000000000000000000, 1.345962650827993601, -0.7099999999999995204 ) ) ;
#17 = EDGE_CURVE ( 'NONE', #690, #261, #696, .T. ) ;
#18 = DIRECTION ( 'NONE',  ( 0.000000000000000000, 3.422856332925101402E-15, -1.000000000000000000 ) ) ;
#19 = VECTOR ( 'NONE', #560, 1000.000000000000000 ) ;
#20 = PLANE ( 'NONE',  #253 ) ;
#21 = AXIS2_PLACEMENT_3D ( 'NONE', #506, #343, #222 ) ;
#22 = ORIENTED_EDGE ( 'NONE', *, *, #647, .T. ) ;
#23 = CARTESIAN_POINT ( 'NONE',  ( 3.450000000000000178, -0.7100000000000056266, 1.579893739871497393 ) ) ;
#24 = CARTESIAN_POINT ( 'NONE',  ( 3.450000000000000178, -1.579893739871714775, -0.7099999999999999645 ) ) ;
#25 = ORIENTED_EDGE ( 'NONE', *, *, #94, .F. ) ;
#26 = CARTESIAN_POINT ( 'NONE',  ( 0.6500000000000116795, 0.000000000000000000, 0.000000000000000000 ) ) ;
#27 = CARTESIAN_POINT ( 'NONE',  ( 3.450000000000000178, -0.7099999999999948574, -1.579893739871716329 ) ) ;
#28 = ORIENTED_EDGE ( 'NONE', *, *, #251, .T. ) ;
#29 = DIRECTION ( 'NONE',  ( -1.000000000000000000, -0.000000000000000000, -0.000000000000000000 ) ) ;
#30 = ORIENTED_EDGE ( 'NONE', *, *, #504, .F. ) ;
#31 = CIRCLE ( 'NONE', #130, 1.521747501205084285 ) ;
#32 = CIRCLE ( 'NONE', #449, 3.439339828220181250 ) ;
#33 = DIRECTION ( 'NONE',  ( 1.000000000000000000, 0.000000000000000000, 0.000000000000000000 ) ) ;
#34 = EDGE_CURVE ( 'NONE', #668, #422, #331, .T. ) ;
#35 = CARTESIAN_POINT ( 'NONE',  ( 3.449999999999999734, 0.000000000000000000, 0.000000000000000000 ) ) ;
#36 = EDGE_LOOP ( 'NONE', ( #373, #518, #734, #646 ) ) ;
#37 = PRODUCT_DEFINITION_SHAPE ( 'NONE', 'NONE',  #112 ) ;
#38 = VERTEX_POINT ( 'NONE', #227 ) ;
#39 = DIRECTION ( 'NONE',  ( 0.000000000000000000, 0.000000000000000000, 1.000000000000000000 ) ) ;
#40 = CARTESIAN_POINT ( 'NONE',  ( 0.000000000000000000, 0.7099999999999948574, 1.345962650827995821 ) ) ;
#41 = EDGE_CURVE ( 'NONE', #202, #481, #751, .T. ) ;
#42 = VERTEX_POINT ( 'NONE', #229 ) ;
#43 = PLANE ( 'NONE',  #230 ) ;
#44 = DIRECTION ( 'NONE',  ( -1.000000000000000000, -0.000000000000000000, -0.000000000000000000 ) ) ;
#45 = EDGE_CURVE ( 'NONE', #202, #585, #370, .T. ) ;
#46 = VECTOR ( 'NONE', #238, 1000.000000000000227 ) ;
#47 = VECTOR ( 'NONE', #517, 1000.000000000000000 ) ;
#48 = DIRECTION ( 'NONE',  ( 1.000000000000000000, 0.000000000000000000, 0.000000000000000000 ) ) ;
#49 = DIRECTION ( 'NONE',  ( 0.8949343913984313392, -0.4461977533474582591, 1.687460541541168523E-16 ) ) ;
#50 = EDGE_LOOP ( 'NONE', ( #697, #354, #659, #322 ) ) ;
#51 =( NAMED_UNIT ( * ) SI_UNIT ( $, .STERADIAN. ) SOLID_ANGLE_UNIT ( ) );
#52 = CARTESIAN_POINT ( 'NONE',  ( 1.150202749038050642, 0.7100000000000039613, -1.255028352847038065 ) ) ;
#53 = PLANE ( 'NONE',  #168 ) ;
#54 = VERTEX_POINT ( 'NONE', #111 ) ;
#55 = CARTESIAN_POINT ( 'NONE',  ( 0.000000000000000000, -3.300000000000000711, -0.7099999999999995204 ) ) ;
#56 = DIRECTION ( 'NONE',  ( 0.8949343913984536547, -1.445393759810146145E-15, 0.4461977533474138502 ) ) ;
#57 = AXIS2_PLACEMENT_3D ( 'NONE', #537, #4, #178 ) ;
#58 = EDGE_LOOP ( 'NONE', ( #760 ) ) ;
#59 = AXIS2_PLACEMENT_3D ( 'NONE', #714, #661, #600 ) ;
#60 = AXIS2_PLACEMENT_3D ( 'NONE', #410, #534, #9 ) ;
#61 = DIRECTION ( 'NONE',  ( 0.000000000000000000, 3.422856332925101402E-15, -1.000000000000000000 ) ) ;
#62 = ORIENTED_EDGE ( 'NONE', *, *, #45, .F. ) ;
#63 = DIRECTION ( 'NONE',  ( -1.000000000000000000, -0.000000000000000000, -0.000000000000000000 ) ) ;
#64 = CARTESIAN_POINT ( 'NONE',  ( 0.000000000000000000, 3.299999999999998934, -0.7099999999999995204 ) ) ;
#65 = EDGE_LOOP ( 'NONE', ( #684, #706, #694, #443 ) ) ;
#66 = EDGE_CURVE ( 'NONE', #570, #541, #460, .T. ) ;
#67 = PLANE ( 'NONE',  #148 ) ;
#68 = LINE ( 'NONE', #471, #616 ) ;
#69 = ORIENTED_EDGE ( 'NONE', *, *, #199, .T. ) ;
#70 = CIRCLE ( 'NONE', #59, 1.280499999999998639 ) ;
#71 = DIRECTION ( 'NONE',  ( 3.421516008143395777E-17, 1.000000000000000000, 3.422856332925101402E-15 ) ) ;
#72 = DIRECTION ( 'NONE',  ( -0.000000000000000000, 0.000000000000000000, -1.000000000000000000 ) ) ;
#73 = ORIENTED_EDGE ( 'NONE', *, *, #236, .F. ) ;
#74 = VECTOR ( 'NONE', #151, 1000.000000000000000 ) ;
#75 = LINE ( 'NONE', #323, #212 ) ;
#76 = CARTESIAN_POINT ( 'NONE',  ( 0.000000000000000000, -0.7099999999999955236, -1.345962650827995377 ) ) ;
#77 = ORIENTED_EDGE ( 'NONE', *, *, #172, .F. ) ;
#78 = CARTESIAN_POINT ( 'NONE',  ( 3.450000000000000178, 0.7100000000000054046, -1.579893739871712555 ) ) ;
#79 = LINE ( 'NONE', #728, #19 ) ;
#80 = ORIENTED_EDGE ( 'NONE', *, *, #610, .T. ) ;
#81 = FACE_OUTER_BOUND ( 'NONE', #629, .T. ) ;
#82 = DIRECTION ( 'NONE',  ( -0.4461977533474138502, 0.8949343913984536547, -2.733210736299143924E-16 ) ) ;
#83 = VECTOR ( 'NONE', #56, 999.9999999999998863 ) ;
#84 = VERTEX_POINT ( 'NONE', #107 ) ;
#85 = AXIS2_PLACEMENT_3D ( 'NONE', #515, #572, #33 ) ;
#86 = DIRECTION ( 'NONE',  ( 0.000000000000000000, 0.000000000000000000, 1.000000000000000000 ) ) ;
#87 = LINE ( 'NONE', #487, #347 ) ;
#88 = EDGE_LOOP ( 'NONE', ( #368, #176, #756, #377 ) ) ;
#89 = LINE ( 'NONE', #608, #655 ) ;
#90 = DIRECTION ( 'NONE',  ( 0.000000000000000000, 3.360062893693375254E-15, -1.000000000000000000 ) ) ;
#91 = VERTEX_POINT ( 'NONE', #510 ) ;
#92 = ORIENTED_EDGE ( 'NONE', *, *, #311, .F. ) ;
#93 = CARTESIAN_POINT ( 'NONE',  ( 0.000000000000000000, 0.7099999999999948574, 1.345962650827995821 ) ) ;
#94 = EDGE_CURVE ( 'NONE', #401, #570, #462, .T. ) ;
#95 = AXIS2_PLACEMENT_3D ( 'NONE', #559, #249, #86 ) ;
#96 = FACE_OUTER_BOUND ( 'NONE', #590, .T. ) ;
#97 = DIRECTION ( 'NONE',  ( -0.4461977533474583146, -0.8949343913984314502, 5.466421472598156699E-16 ) ) ;
#98 = EDGE_CURVE ( 'NONE', #133, #585, #255, .T. ) ;
#99 = FACE_OUTER_BOUND ( 'NONE', #607, .T. ) ;
#100 = EDGE_LOOP ( 'NONE', ( #379, #528, #468, #305 ) ) ;
#101 = VERTEX_POINT ( 'NONE', #742 ) ;
#102 = CARTESIAN_POINT ( 'NONE',  ( 3.450000000000000178, 0.7099999999999944134, 1.579893739871502056 ) ) ;
#103 = ORIENTED_EDGE ( 'NONE', *, *, #548, .T. ) ;
#104 = VECTOR ( 'NONE', #546, 1000.000000000000000 ) ;
#105 = ORIENTED_EDGE ( 'NONE', *, *, #558, .F. ) ;
#106 = FACE_OUTER_BOUND ( 'NONE', #50, .T. ) ;
#107 = CARTESIAN_POINT ( 'NONE',  ( 3.450000000000000178, -1.579893739871714331, 0.7100000000000002975 ) ) ;
#108 = VECTOR ( 'NONE', #317, 1000.000000000000227 ) ;
#109 = ORIENTED_EDGE ( 'NONE', *, *, #338, .F. ) ;
#110 = CARTESIAN_POINT ( 'NONE',  ( 2.300265665242522850, 0.7100000000000038503, -1.162243811993061149 ) ) ;
#111 = CARTESIAN_POINT ( 'NONE',  ( 0.000000000000000000, 1.345962650827993157, 0.7099999999999999645 ) ) ;
#112 = PRODUCT_DEFINITION ( 'General', '', #539, #380 ) ;
#113 = CARTESIAN_POINT ( 'NONE',  ( 3.449999999999999734, 0.000000000000000000, 0.000000000000000000 ) ) ;
#114 = EDGE_CURVE ( 'NONE', #723, #723, #535, .T. ) ;
#115 = CARTESIAN_POINT ( 'NONE',  ( 1.150202749038054195, 1.255028352847039841, 0.7099999999999999645 ) ) ;
#116 = AXIS2_PLACEMENT_3D ( 'NONE', #355, #174, #463 ) ;
#117 = VERTEX_POINT ( 'NONE', #639 ) ;
#118 = VECTOR ( 'NONE', #196, 1000.000000000000000 ) ;
#119 = PLANE ( 'NONE',  #429 ) ;
#120 = EDGE_CURVE ( 'NONE', #239, #301, #762, .T. ) ;
#121 = CARTESIAN_POINT ( 'NONE',  ( 2.300265665242775981, 1.162243811993042053, 0.7100000000000000755 ) ) ;
#122 = DIRECTION ( 'NONE',  ( 3.421516008143395777E-17, -6.862500591803180503E-17, -1.000000000000000000 ) ) ;
#123 = CARTESIAN_POINT ( 'NONE',  ( 3.450000000000000178, 0.7100000000000054046, -1.579893739871712555 ) ) ;
#124 = ADVANCED_FACE ( 'NONE', ( #288 ), #53, .T. ) ;
#125 = ORIENTED_EDGE ( 'NONE', *, *, #189, .T. ) ;
#126 = LINE ( 'NONE', #713, #577 ) ;
#127 = DIRECTION ( 'NONE',  ( -1.000000000000000000, -0.000000000000000000, -0.000000000000000000 ) ) ;
#128 = AXIS2_PLACEMENT_3D ( 'NONE', #113, #530, #350 ) ;
#129 = ORIENTED_EDGE ( 'NONE', *, *, #444, .T. ) ;
#130 = AXIS2_PLACEMENT_3D ( 'NONE', #221, #332, #39 ) ;
#131 = DIRECTION ( 'NONE',  ( 0.000000000000000000, 0.000000000000000000, 1.000000000000000000 ) ) ;
#132 = DIRECTION ( 'NONE',  ( 0.8949343913984535437, 0.4461977533474137392, 0.000000000000000000 ) ) ;
#133 = VERTEX_POINT ( 'NONE', #448 ) ;
#134 = DIRECTION ( 'NONE',  ( -0.000000000000000000, 0.000000000000000000, -1.000000000000000000 ) ) ;
#135 = CYLINDRICAL_SURFACE ( 'NONE', #562, 3.000000000000000444 ) ;
#136 = ORIENTED_EDGE ( 'NONE', *, *, #558, .T. ) ;
#137 = AXIS2_PLACEMENT_3D ( 'NONE', #470, #296, #246 ) ;
#138 = CARTESIAN_POINT ( 'NONE',  ( 2.300265665242522406, -1.162243811993063369, 0.7100000000000002975 ) ) ;
#139 = CARTESIAN_POINT ( 'NONE',  ( 0.6500000000000116795, 0.000000000000000000, 0.000000000000000000 ) ) ;
#140 = EDGE_CURVE ( 'NONE', #598, #611, #459, .T. ) ;
#141 = ORIENTED_EDGE ( 'NONE', *, *, #381, .T. ) ;
#142 = LINE ( 'NONE', #23, #750 ) ;
#143 = CIRCLE ( 'NONE', #496, 1.521747501205084285 ) ;
#144 = DIRECTION ( 'NONE',  ( 0.000000000000000000, 0.000000000000000000, 1.000000000000000000 ) ) ;
#145 = VERTEX_POINT ( 'NONE', #755 ) ;
#146 = CARTESIAN_POINT ( 'NONE',  ( 0.000000000000000000, -3.299999999999999822, 0.7100000000000002975 ) ) ;
#147 = FACE_OUTER_BOUND ( 'NONE', #58, .T. ) ;
#148 = AXIS2_PLACEMENT_3D ( 'NONE', #302, #533, #242 ) ;
#149 = ADVANCED_FACE ( 'NONE', ( #99 ), #652, .F. ) ;
#150 = ORIENTED_EDGE ( 'NONE', *, *, #469, .T. ) ;
#151 = DIRECTION ( 'NONE',  ( 0.000000000000000000, -1.000000000000000000, 6.862500591803180503E-17 ) ) ;
#152 = CARTESIAN_POINT ( 'NONE',  ( 0.000000000000000000, 0.7100000000000109557, -3.299999999999998046 ) ) ;
#153 = ORIENTED_EDGE ( 'NONE', *, *, #444, .F. ) ;
#154 = ADVANCED_FACE ( 'NONE', ( #283, #453 ), #1, .T. ) ;
#155 =( LENGTH_UNIT ( ) NAMED_UNIT ( * ) SI_UNIT ( .MILLI., .METRE. ) );
#156 = DIRECTION ( 'NONE',  ( 0.8949343913984313392, -0.4461977533474582591, 0.000000000000000000 ) ) ;
#157 = CARTESIAN_POINT ( 'NONE',  ( 3.449999999999999734, 0.000000000000000000, 0.000000000000000000 ) ) ;
#158 = APPLICATION_CONTEXT ( 'automotive_design' ) ;
#159 = VECTOR ( 'NONE', #687, 1000.000000000000227 ) ;
#160 = APPLICATION_PROTOCOL_DEFINITION ( 'draft international standard', 'automotive_design', 1998, #549 ) ;
#161 = FILL_AREA_STYLE ('',( #573 ) ) ;
#162 = DIRECTION ( 'NONE',  ( 0.000000000000000000, 0.000000000000000000, 1.000000000000000000 ) ) ;
#163 = B_SPLINE_CURVE_WITH_KNOTS ( 'NONE', 3,
 ( #192, #121, #115, #300 ),
 .UNSPECIFIED., .F., .F.,
 ( 4, 4 ),
 ( 0.006445095907761448119, 0.009906120346974574969 ),
 .UNSPECIFIED. ) ;
#164 = EDGE_LOOP ( 'NONE', ( #565, #245, #352, #430 ) ) ;
#165 = ORIENTED_EDGE ( 'NONE', *, *, #172, .T. ) ;
#166 =( LENGTH_UNIT ( ) NAMED_UNIT ( * ) SI_UNIT ( .MILLI., .METRE. ) );
#167 = CARTESIAN_POINT ( 'NONE',  ( 2.300265665242522850, -1.162243811993063813, -0.7099999999999998535 ) ) ;
#168 = AXIS2_PLACEMENT_3D ( 'NONE', #219, #234, #292 ) ;
#169 = VERTEX_POINT ( 'NONE', #351 ) ;
#170 = CARTESIAN_POINT ( 'NONE',  ( 2.300265665242776869, -0.7100000000000042943, 1.162243811993039611 ) ) ;
#171 = CARTESIAN_POINT ( 'NONE',  ( 3.450000000000000178, 0.7100000000000054046, -1.579893739871712555 ) ) ;
#172 = EDGE_CURVE ( 'NONE', #481, #169, #307, .T. ) ;
#173 = ORIENTED_EDGE ( 'NONE', *, *, #381, .F. ) ;
#174 = DIRECTION ( 'NONE',  ( 1.257045997084642858E-16, -0.000000000000000000, 1.000000000000000000 ) ) ;
#175 = DIRECTION ( 'NONE',  ( -1.000000000000000000, -0.000000000000000000, -0.000000000000000000 ) ) ;
#176 = ORIENTED_EDGE ( 'NONE', *, *, #500, .T. ) ;
#177 = EDGE_CURVE ( 'NONE', #649, #561, #68, .T. ) ;
#178 = DIRECTION ( 'NONE',  ( 1.000000000000000000, 1.257045997084642858E-16, 4.388952640888490584E-31 ) ) ;
#179 = CARTESIAN_POINT ( 'NONE',  ( 3.449999999999999734, 1.579893739871500058, -0.7099999999999999645 ) ) ;
#180 = ORIENTED_EDGE ( 'NONE', *, *, #3, .T. ) ;
#181 = AXIS2_PLACEMENT_3D ( 'NONE', #157, #44, #632 ) ;
#182 = CLOSED_SHELL ( 'NONE', ( #625, #588, #555, #758, #594, #183, #308, #538, #532, #363, #418, #395, #154, #390, #280, #423, #670, #695, #329, #498, #243, #124, #614, #258, #149, #294, #11 ) ) ;
#183 = ADVANCED_FACE ( 'NONE', ( #658 ), #408, .F. ) ;
#184 = FACE_OUTER_BOUND ( 'NONE', #419, .T. ) ;
#185 = CARTESIAN_POINT ( 'NONE',  ( 3.450000000000000178, 1.579893739871500058, -0.7099999999999999645 ) ) ;
#186 = ORIENTED_EDGE ( 'NONE', *, *, #120, .T. ) ;
#187 = DIRECTION ( 'NONE',  ( 0.000000000000000000, -1.527045313359865476E-16, 1.000000000000000000 ) ) ;
#188 = CARTESIAN_POINT ( 'NONE',  ( -6.349999999999990763, 0.000000000000000000, 0.000000000000000000 ) ) ;
#189 = EDGE_CURVE ( 'NONE', #145, #570, #282, .T. ) ;
#190 = ORIENTED_EDGE ( 'NONE', *, *, #17, .F. ) ;
#191 = CARTESIAN_POINT ( 'NONE',  ( 3.450000000000000178, -0.7099999999999948574, -1.579893739871716329 ) ) ;
#192 = CARTESIAN_POINT ( 'NONE',  ( 3.449999999999999734, 1.065636077655029101, 0.7100000000000008527 ) ) ;
#193 = EDGE_LOOP ( 'NONE', ( #426, #406, #615, #397 ) ) ;
#194 = AXIS2_PLACEMENT_3D ( 'NONE', #188, #175, #648 ) ;
#195 = CARTESIAN_POINT ( 'NONE',  ( 3.450000000000000178, 0.7099999999999944134, 1.579893739871502278 ) ) ;
#196 = DIRECTION ( 'NONE',  ( 0.000000000000000000, -1.000000000000000000, 1.314184451497581259E-16 ) ) ;
#197 = STYLED_ITEM ( 'NONE', ( #569 ), #527 ) ;
#198 = ORIENTED_EDGE ( 'NONE', *, *, #17, .T. ) ;
#199 = EDGE_CURVE ( 'NONE', #215, #248, #414, .T. ) ;
#200 = DIRECTION ( 'NONE',  ( 0.000000000000000000, 0.000000000000000000, 1.000000000000000000 ) ) ;
#201 = CARTESIAN_POINT ( 'NONE',  ( 0.000000000000000000, 0.7099999999999879741, 3.300000000000001599 ) ) ;
#202 = VERTEX_POINT ( 'NONE', #76 ) ;
#203 = EDGE_CURVE ( 'NONE', #91, #668, #467, .T. ) ;
#204 = DIRECTION ( 'NONE',  ( 1.000000000000000000, 0.000000000000000000, -0.000000000000000000 ) ) ;
#205 = VERTEX_POINT ( 'NONE', #606 ) ;
#206 = PLANE ( 'NONE',  #286 ) ;
#207 = EDGE_CURVE ( 'NONE', #649, #42, #5, .T. ) ;
#208 = CONICAL_SURFACE ( 'NONE', #357, 5.650000000000000355, 0.7853981633974502774 ) ;
#209 = CARTESIAN_POINT ( 'NONE',  ( 0.000000000000000000, 0.000000000000000000, 0.000000000000000000 ) ) ;
#210 = CONICAL_SURFACE ( 'NONE', #21, 3077.683537175313631, 1.256637061435923020 ) ;
#211 = ORIENTED_EDGE ( 'NONE', *, *, #581, .F. ) ;
#212 = VECTOR ( 'NONE', #551, 1000.000000000000000 ) ;
#213 = CARTESIAN_POINT ( 'NONE',  ( 3.450000000000000178, -1.579893739871714775, -0.7099999999999999645 ) ) ;
#214 = FACE_OUTER_BOUND ( 'NONE', #678, .T. ) ;
#215 = VERTEX_POINT ( 'NONE', #64 ) ;
#216 = CARTESIAN_POINT ( 'NONE',  ( 3.449999999999999734, -0.7100000000000039613, 1.065636077655027103 ) ) ;
#217 = ORIENTED_EDGE ( 'NONE', *, *, #262, .F. ) ;
#218 = CARTESIAN_POINT ( 'NONE',  ( 3.449999999999999734, 0.000000000000000000, 0.000000000000000000 ) ) ;
#219 = CARTESIAN_POINT ( 'NONE',  ( 0.000000000000000000, -0.7100000000000109557, 3.299999999999997158 ) ) ;
#220 = ORIENTED_EDGE ( 'NONE', *, *, #450, .T. ) ;
#221 = CARTESIAN_POINT ( 'NONE',  ( 0.000000000000000000, 0.000000000000000000, 0.000000000000000000 ) ) ;
#222 = DIRECTION ( 'NONE',  ( 0.000000000000000000, 0.000000000000000000, 1.000000000000000000 ) ) ;
#223 = ORIENTED_EDGE ( 'NONE', *, *, #740, .T. ) ;
#224 = LINE ( 'NONE', #683, #603 ) ;
#225 = CARTESIAN_POINT ( 'NONE',  ( 0.000000000000000000, -0.7099999999999955236, -1.345962650827995377 ) ) ;
#226 = ORIENTED_EDGE ( 'NONE', *, *, #620, .T. ) ;
#227 = CARTESIAN_POINT ( 'NONE',  ( 3.921320343559644872, 0.000000000000000000, 3.000000000000000444 ) ) ;
#228 = DIRECTION ( 'NONE',  ( 0.000000000000000000, 0.000000000000000000, 1.000000000000000000 ) ) ;
#229 = CARTESIAN_POINT ( 'NONE',  ( 0.000000000000000000, -0.7100000000000046274, 1.345962650827990714 ) ) ;
#230 = AXIS2_PLACEMENT_3D ( 'NONE', #102, #287, #274 ) ;
#231 = ORIENTED_EDGE ( 'NONE', *, *, #571, .F. ) ;
#232 = AXIS2_PLACEMENT_3D ( 'NONE', #218, #342, #281 ) ;
#233 =( NAMED_UNIT ( * ) SI_UNIT ( $, .STERADIAN. ) SOLID_ANGLE_UNIT ( ) );
#234 = DIRECTION ( 'NONE',  ( -0.4461977533474583146, 2.578004579796744511E-15, -0.8949343913984314502 ) ) ;
#235 = EDGE_LOOP ( 'NONE', ( #30, #507, #503, #77 ) ) ;
#236 = EDGE_CURVE ( 'NONE', #598, #54, #163, .T. ) ;
#237 = FACE_OUTER_BOUND ( 'NONE', #492, .T. ) ;
#238 = DIRECTION ( 'NONE',  ( 0.8949343913984314502, -0.4461977533474580371, -1.124973694360779098E-16 ) ) ;
#239 = VERTEX_POINT ( 'NONE', #597 ) ;
#240 = CARTESIAN_POINT ( 'NONE',  ( 3.450000000000000178, -1.579893739871714775, -0.7099999999999999645 ) ) ;
#241 = VERTEX_POINT ( 'NONE', #16 ) ;
#242 = DIRECTION ( 'NONE',  ( -0.000000000000000000, 0.000000000000000000, -1.000000000000000000 ) ) ;
#243 = ADVANCED_FACE ( 'NONE', ( #711 ), #297, .T. ) ;
#244 = CARTESIAN_POINT ( 'NONE',  ( 0.000000000000000000, -3.300000000000000711, -0.7099999999999995204 ) ) ;
#245 = ORIENTED_EDGE ( 'NONE', *, *, #520, .T. ) ;
#246 = DIRECTION ( 'NONE',  ( 0.000000000000000000, 0.000000000000000000, 1.000000000000000000 ) ) ;
#247 = DIRECTION ( 'NONE',  ( -0.8949343913984536547, 1.557891129246226791E-15, -0.4461977533474138502 ) ) ;
#248 = VERTEX_POINT ( 'NONE', #179 ) ;
#249 = DIRECTION ( 'NONE',  ( -1.000000000000000000, -0.000000000000000000, -0.000000000000000000 ) ) ;
#250 = CARTESIAN_POINT ( 'NONE',  ( 0.000000000000000000, 0.000000000000000000, 0.000000000000000000 ) ) ;
#251 = EDGE_CURVE ( 'NONE', #690, #84, #421, .T. ) ;
#252 = ORIENTED_EDGE ( 'NONE', *, *, #402, .F. ) ;
#253 = AXIS2_PLACEMENT_3D ( 'NONE', #24, #82, #720 ) ;
#254 = DIRECTION ( 'NONE',  ( 1.000000000000000000, 0.000000000000000000, -1.257045997084642858E-16 ) ) ;
#255 = B_SPLINE_CURVE_WITH_KNOTS ( 'NONE', 3,
 ( #337, #167, #340, #278 ),
 .UNSPECIFIED., .F., .F.,
 ( 4, 4 ),
 ( 0.006445095916683869948, 0.009906120355894547369 ),
 .UNSPECIFIED. ) ;
#256 = FACE_OUTER_BOUND ( 'NONE', #65, .T. ) ;
#257 = EDGE_LOOP ( 'NONE', ( #220 ) ) ;
#258 = ADVANCED_FACE ( 'NONE', ( #303 ), #385, .F. ) ;
#259 = CARTESIAN_POINT ( 'NONE',  ( 3.450000000000000178, 1.579893739871499836, -0.7099999999999999645 ) ) ;
#260 = VECTOR ( 'NONE', #371, 1000.000000000000000 ) ;
#261 = VERTEX_POINT ( 'NONE', #244 ) ;
#262 = EDGE_CURVE ( 'NONE', #401, #54, #143, .T. ) ;
#263 = DIRECTION ( 'NONE',  ( 1.257045997084642858E-16, -0.000000000000000000, 1.000000000000000000 ) ) ;
#264 = CARTESIAN_POINT ( 'NONE',  ( 3.450000000000000622, 1.579893739871499836, 0.7100000000000000755 ) ) ;
#265 = ORIENTED_EDGE ( 'NONE', *, *, #114, .T. ) ;
#266 = AXIS2_PLACEMENT_3D ( 'NONE', #191, #71, #519 ) ;
#267 = B_SPLINE_CURVE_WITH_KNOTS ( 'NONE', 3,
 ( #216, #170, #386, #749 ),
 .UNSPECIFIED., .F., .F.,
 ( 4, 4 ),
 ( 0.006445095907761445517, 0.009906120346974568031 ),
 .UNSPECIFIED. ) ;
#268 = DIRECTION ( 'NONE',  ( 3.421516008143395777E-17, -6.862500591803180503E-17, -1.000000000000000000 ) ) ;
#269 = AXIS2_PLACEMENT_3D ( 'NONE', #35, #490, #144 ) ;
#270 = LINE ( 'NONE', #201, #104 ) ;
#271 = EDGE_CURVE ( 'NONE', #481, #133, #70, .T. ) ;
#272 = EDGE_LOOP ( 'NONE', ( #681, #465, #536, #416 ) ) ;
#273 = CIRCLE ( 'NONE', #552, 3.000000000000000444 ) ;
#274 = DIRECTION ( 'NONE',  ( 1.000000000000000000, 1.257045997084642858E-16, 4.388952640888490584E-31 ) ) ;
#275 = ORIENTED_EDGE ( 'NONE', *, *, #710, .F. ) ;
#276 = AXIS2_PLACEMENT_3D ( 'NONE', #525, #63, #353 ) ;
#277 = CARTESIAN_POINT ( 'NONE',  ( 3.921320343559644872, 0.000000000000000000, 0.000000000000000000 ) ) ;
#278 = CARTESIAN_POINT ( 'NONE',  ( 0.000000000000000000, -1.345962650827993601, -0.7099999999999995204 ) ) ;
#279 = ORIENTED_EDGE ( 'NONE', *, *, #41, .T. ) ;
#280 = ADVANCED_FACE ( 'NONE', ( #667, #147 ), #135, .T. ) ;
#281 = DIRECTION ( 'NONE',  ( 0.000000000000000000, 0.000000000000000000, 1.000000000000000000 ) ) ;
#282 = CIRCLE ( 'NONE', #369, 1.280499999999998639 ) ;
#283 = FACE_OUTER_BOUND ( 'NONE', #319, .T. ) ;
#284 = AXIS2_PLACEMENT_3D ( 'NONE', #568, #521, #162 ) ;
#285 = ORIENTED_EDGE ( 'NONE', *, *, #114, .F. ) ;
#286 = AXIS2_PLACEMENT_3D ( 'NONE', #259, #263, #254 ) ;
#287 = DIRECTION ( 'NONE',  ( 1.257045997084642858E-16, -1.000000000000000000, -3.491481338843133355E-15 ) ) ;
#288 = FACE_OUTER_BOUND ( 'NONE', #413, .T. ) ;
#289 = ORIENTED_EDGE ( 'NONE', *, *, #290, .F. ) ;
#290 = EDGE_CURVE ( 'NONE', #84, #205, #79, .T. ) ;
#291 = CARTESIAN_POINT ( 'NONE',  ( 1.150202749038049754, 1.255028352847040507, -0.7099999999999996314 ) ) ;
#292 = DIRECTION ( 'NONE',  ( 0.8949343913984313392, 1.557891129246381803E-15, -0.4461977533474582591 ) ) ;
#293 = ORIENTED_EDGE ( 'NONE', *, *, #722, .T. ) ;
#294 = ADVANCED_FACE ( 'NONE', ( #256 ), #336, .F. ) ;
#295 = CARTESIAN_POINT ( 'NONE',  ( 2.300265665242521518, -0.7099999999999961897, -1.162243811993066034 ) ) ;
#296 = DIRECTION ( 'NONE',  ( -1.000000000000000000, -0.000000000000000000, -0.000000000000000000 ) ) ;
#297 = PLANE ( 'NONE',  #399 ) ;
#298 = ORIENTED_EDGE ( 'NONE', *, *, #466, .T. ) ;
#299 = FACE_OUTER_BOUND ( 'NONE', #514, .T. ) ;
#300 = CARTESIAN_POINT ( 'NONE',  ( 0.000000000000000000, 1.345962650827993157, 0.7099999999999999645 ) ) ;
#301 = VERTEX_POINT ( 'NONE', #264 ) ;
#302 = CARTESIAN_POINT ( 'NONE',  ( 3.450000000000000178, 1.579893739871500058, -0.7099999999999999645 ) ) ;
#303 = FACE_OUTER_BOUND ( 'NONE', #441, .T. ) ;
#304 = B_SPLINE_CURVE_WITH_KNOTS ( 'NONE', 3,
 ( #582, #291, #631, #335 ),
 .UNSPECIFIED., .F., .F.,
 ( 4, 4 ),
 ( 0.002337784986350329407, 0.005799159061750850004 ),
 .UNSPECIFIED. ) ;
#305 = ORIENTED_EDGE ( 'NONE', *, *, #251, .F. ) ;
#306 = PLANE ( 'NONE',  #57 ) ;
#307 = LINE ( 'NONE', #346, #586 ) ;
#308 = ADVANCED_FACE ( 'NONE', ( #499 ), #680, .F. ) ;
#309 = LINE ( 'NONE', #195, #260 ) ;
#310 = CARTESIAN_POINT ( 'NONE',  ( 0.000000000000000000, -0.7100000000000109557, 3.299999999999997158 ) ) ;
#311 = EDGE_CURVE ( 'NONE', #484, #649, #270, .T. ) ;
#312 = ORIENTED_EDGE ( 'NONE', *, *, #262, .T. ) ;
#313 = DIRECTION ( 'NONE',  ( 0.000000000000000000, -3.491481338843133355E-15, 1.000000000000000000 ) ) ;
#314 = DIRECTION ( 'NONE',  ( -0.000000000000000000, 0.000000000000000000, -1.000000000000000000 ) ) ;
#315 = EDGE_CURVE ( 'NONE', #668, #621, #432, .T. ) ;
#316 = ORIENTED_EDGE ( 'NONE', *, *, #643, .F. ) ;
#317 = DIRECTION ( 'NONE',  ( 0.8949343913984314502, 1.670388498682458899E-15, -0.4461977533474580371 ) ) ;
#318 = CARTESIAN_POINT ( 'NONE',  ( 3.450000000000000178, 1.579893739871500058, -0.7099999999999999645 ) ) ;
#319 = EDGE_LOOP ( 'NONE', ( #361 ) ) ;
#320 = DIRECTION ( 'NONE',  ( 1.000000000000000000, 0.000000000000000000, -0.000000000000000000 ) ) ;
#321 = FACE_OUTER_BOUND ( 'NONE', #580, .T. ) ;
#322 = ORIENTED_EDGE ( 'NONE', *, *, #733, .F. ) ;
#323 = CARTESIAN_POINT ( 'NONE',  ( 3.450000000000000178, -0.7099999999999948574, -1.579893739871716773 ) ) ;
#324 = DIRECTION ( 'NONE',  ( 0.000000000000000000, 0.000000000000000000, 1.000000000000000000 ) ) ;
#325 = DIRECTION ( 'NONE',  ( -1.000000000000000000, -0.000000000000000000, -0.000000000000000000 ) ) ;
#326 = ORIENTED_EDGE ( 'NONE', *, *, #315, .F. ) ;
#327 = COLOUR_RGB ( '',0.7921568627450980005, 0.8196078431372548767, 0.9333333333333333481 ) ;
#328 = VECTOR ( 'NONE', #313, 1000.000000000000000 ) ;
#329 = ADVANCED_FACE ( 'NONE', ( #214 ), #20, .T. ) ;
#330 = CARTESIAN_POINT ( 'NONE',  ( 3.450000000000000178, 0.7100000000000054046, -1.579893739871712555 ) ) ;
#331 = LINE ( 'NONE', #584, #83 ) ;
#332 = DIRECTION ( 'NONE',  ( -1.000000000000000000, -0.000000000000000000, -0.000000000000000000 ) ) ;
#333 = CARTESIAN_POINT ( 'NONE',  ( 1.150202749038053973, 0.7099999999999953015, 1.255028352847042727 ) ) ;
#334 = EDGE_CURVE ( 'NONE', #239, #54, #87, .T. ) ;
#335 = CARTESIAN_POINT ( 'NONE',  ( 3.449999999999999734, 1.065636077655029323, -0.7100000000000006306 ) ) ;
#336 = CONICAL_SURFACE ( 'NONE', #269, 1.280499999999998639, 0.06981317007976589606 ) ;
#337 = CARTESIAN_POINT ( 'NONE',  ( 3.449999999999999734, -1.065636077655029323, -0.7100000000000006306 ) ) ;
#338 = EDGE_CURVE ( 'NONE', #202, #91, #564, .T. ) ;
#339 = CARTESIAN_POINT ( 'NONE',  ( 2.860660171779821681, 0.000000000000000000, 0.000000000000000000 ) ) ;
#340 = CARTESIAN_POINT ( 'NONE',  ( 1.150202749038051309, -1.255028352847040507, -0.7099999999999996314 ) ) ;
#341 = EDGE_LOOP ( 'NONE', ( #285 ) ) ;
#342 = DIRECTION ( 'NONE',  ( -1.000000000000000000, -0.000000000000000000, -0.000000000000000000 ) ) ;
#343 = DIRECTION ( 'NONE',  ( -1.000000000000000000, -0.000000000000000000, -0.000000000000000000 ) ) ;
#344 = ORIENTED_EDGE ( 'NONE', *, *, #733, .T. ) ;
#345 = DIRECTION ( 'NONE',  ( 0.000000000000000000, 1.000000000000000000, 0.000000000000000000 ) ) ;
#346 = CARTESIAN_POINT ( 'NONE',  ( 3.450000000000000178, -0.7100000000000056266, 1.579893739871497393 ) ) ;
#347 = VECTOR ( 'NONE', #732, 1000.000000000000000 ) ;
#348 = ORIENTED_EDGE ( 'NONE', *, *, #640, .F. ) ;
#349 =( GEOMETRIC_REPRESENTATION_CONTEXT ( 3 ) GLOBAL_UNCERTAINTY_ASSIGNED_CONTEXT ( ( #374 ) ) GLOBAL_UNIT_ASSIGNED_CONTEXT ( ( #166, #12, #233 ) ) REPRESENTATION_CONTEXT ( 'NONE', 'WORKASPACE' ) );
#350 = DIRECTION ( 'NONE',  ( 0.000000000000000000, 0.000000000000000000, 1.000000000000000000 ) ) ;
#351 = CARTESIAN_POINT ( 'NONE',  ( 3.450000000000000178, -0.7099999999999948574, -1.579893739871716773 ) ) ;
#352 = ORIENTED_EDGE ( 'NONE', *, *, #748, .T. ) ;
#353 = DIRECTION ( 'NONE',  ( 0.000000000000000000, 0.000000000000000000, 1.000000000000000000 ) ) ;
#354 = ORIENTED_EDGE ( 'NONE', *, *, #94, .T. ) ;
#355 = CARTESIAN_POINT ( 'NONE',  ( 3.450000000000000178, 1.579893739871499836, -0.7099999999999999645 ) ) ;
#356 = PRODUCT_RELATED_PRODUCT_CATEGORY ( 'part', '', ( #628 ) ) ;
#357 = AXIS2_PLACEMENT_3D ( 'NONE', #139, #425, #367 ) ;
#358 = DIRECTION ( 'NONE',  ( 0.000000000000000000, 0.000000000000000000, 1.000000000000000000 ) ) ;
#359 = VECTOR ( 'NONE', #512, 999.9999999999998863 ) ;
#360 = CARTESIAN_POINT ( 'NONE',  ( 3.449999999999999734, 0.000000000000000000, 0.000000000000000000 ) ) ;
#361 = ORIENTED_EDGE ( 'NONE', *, *, #640, .T. ) ;
#362 = CARTESIAN_POINT ( 'NONE',  ( 3.921320343559644872, 0.000000000000000000, 0.000000000000000000 ) ) ;
#363 = ADVANCED_FACE ( 'NONE', ( #483 ), #618, .T. ) ;
#364 = CARTESIAN_POINT ( 'NONE',  ( -6.349999999999990763, 0.000000000000000000, 0.000000000000000000 ) ) ;
#365 = ORIENTED_EDGE ( 'NONE', *, *, #581, .T. ) ;
#366 = DIRECTION ( 'NONE',  ( -1.000000000000000000, -0.000000000000000000, -0.000000000000000000 ) ) ;
#367 = DIRECTION ( 'NONE',  ( 0.000000000000000000, 0.000000000000000000, 1.000000000000000000 ) ) ;
#368 = ORIENTED_EDGE ( 'NONE', *, *, #753, .T. ) ;
#369 = AXIS2_PLACEMENT_3D ( 'NONE', #360, #127, #589 ) ;
#370 = CIRCLE ( 'NONE', #284, 1.521747501205084285 ) ;
#371 = DIRECTION ( 'NONE',  ( 0.000000000000000000, -1.000000000000000000, -3.644185870179120051E-15 ) ) ;
#372 = CARTESIAN_POINT ( 'NONE',  ( 0.000000000000000000, 3.299999999999999822, 0.7099999999999995204 ) ) ;
#373 = ORIENTED_EDGE ( 'NONE', *, *, #189, .F. ) ;
#374 = UNCERTAINTY_MEASURE_WITH_UNIT (LENGTH_MEASURE( 1.000000000000000082E-05 ), #166, 'distance_accuracy_value', 'NONE');
#375 = PLANE ( 'NONE',  #576 ) ;
#376 = DIRECTION ( 'NONE',  ( -0.000000000000000000, 0.000000000000000000, 1.000000000000000000 ) ) ;
#377 = ORIENTED_EDGE ( 'NONE', *, *, #177, .T. ) ;
#378 = CARTESIAN_POINT ( 'NONE',  ( 3.449999999999999734, 0.000000000000000000, 0.000000000000000000 ) ) ;
#379 = ORIENTED_EDGE ( 'NONE', *, *, #384, .F. ) ;
#380 = PRODUCT_DEFINITION_CONTEXT ( 'detailed design', #158, 'design' ) ;
#381 = EDGE_CURVE ( 'NONE', #133, #2, #7, .T. ) ;
#382 = PRODUCT_CONTEXT ( 'NONE', #549, 'mechanical' ) ;
#383 = VECTOR ( 'NONE', #526, 1000.000000000000000 ) ;
#384 = EDGE_CURVE ( 'NONE', #117, #690, #627, .T. ) ;
#385 = CONICAL_SURFACE ( 'NONE', #60, 1.280499999999998639, 0.06981317007976589606 ) ;
#386 = CARTESIAN_POINT ( 'NONE',  ( 1.150202749038053529, -0.7100000000000044054, 1.255028352847037398 ) ) ;
#387 = CARTESIAN_POINT ( 'NONE',  ( 0.000000000000000000, 0.7100000000000109557, -3.299999999999998046 ) ) ;
#388 = SHAPE_DEFINITION_REPRESENTATION ( #37, #415 ) ;
#389 = SURFACE_STYLE_FILL_AREA ( #161 ) ;
#390 = ADVANCED_FACE ( 'NONE', ( #553, #439 ), #208, .T. ) ;
#391 = CARTESIAN_POINT ( 'NONE',  ( 3.449999999999999734, 0.000000000000000000, 0.000000000000000000 ) ) ;
#392 = ORIENTED_EDGE ( 'NONE', *, *, #98, .T. ) ;
#393 = VECTOR ( 'NONE', #704, 1000.000000000000000 ) ;
#394 = CARTESIAN_POINT ( 'NONE',  ( 0.000000000000000000, -0.7099999999999888622, -3.300000000000002487 ) ) ;
#395 = ADVANCED_FACE ( 'NONE', ( #321, #494 ), #613, .T. ) ;
#396 = DIRECTION ( 'NONE',  ( 0.000000000000000000, -3.491481338843133355E-15, 1.000000000000000000 ) ) ;
#397 = ORIENTED_EDGE ( 'NONE', *, *, #748, .F. ) ;
#398 = PLANE ( 'NONE',  #523 ) ;
#399 = AXIS2_PLACEMENT_3D ( 'NONE', #123, #716, #247 ) ;
#400 = DIRECTION ( 'NONE',  ( 0.000000000000000000, 0.000000000000000000, 1.000000000000000000 ) ) ;
#401 = VERTEX_POINT ( 'NONE', #93 ) ;
#402 = EDGE_CURVE ( 'NONE', #117, #42, #31, .T. ) ;
#403 = CARTESIAN_POINT ( 'NONE',  ( 3.449999999999999734, 0.7100000000000036282, -1.065636077655027325 ) ) ;
#404 = CARTESIAN_POINT ( 'NONE',  ( 0.000000000000000000, 0.000000000000000000, 0.000000000000000000 ) ) ;
#405 = B_SPLINE_CURVE_WITH_KNOTS ( 'NONE', 3,
 ( #442, #110, #52, #505 ),
 .UNSPECIFIED., .F., .F.,
 ( 4, 4 ),
 ( 0.006445095916683868213, 0.009906120355894543900 ),
 .UNSPECIFIED. ) ;
#406 = ORIENTED_EDGE ( 'NONE', *, *, #647, .F. ) ;
#407 = LINE ( 'NONE', #55, #650 ) ;
#408 = PLANE ( 'NONE',  #637 ) ;
#409 = ORIENTED_EDGE ( 'NONE', *, *, #207, .T. ) ;
#410 = CARTESIAN_POINT ( 'NONE',  ( 3.449999999999999734, 0.000000000000000000, 0.000000000000000000 ) ) ;
#411 = AXIS2_PLACEMENT_3D ( 'NONE', #318, #204, #314 ) ;
#412 = VECTOR ( 'NONE', #759, 1000.000000000000000 ) ;
#413 = EDGE_LOOP ( 'NONE', ( #554, #92, #344, #226 ) ) ;
#414 = LINE ( 'NONE', #540, #46 ) ;
#415 = ADVANCED_BREP_SHAPE_REPRESENTATION ( 'ISO 7046-1 - M6 x 12 - Z - 12N_ISO 7046-1 - M6 x 12 - Z - 12N', ( #527, #85 ), #605 ) ;
#416 = ORIENTED_EDGE ( 'NONE', *, *, #692, .T. ) ;
#417 = PLANE ( 'NONE',  #116 ) ;
#418 = ADVANCED_FACE ( 'NONE', ( #106 ), #43, .T. ) ;
#419 = EDGE_LOOP ( 'NONE', ( #22, #665, #662, #186 ) ) ;
#420 = CARTESIAN_POINT ( 'NONE',  ( 3.449999999999999734, 0.000000000000000000, 0.000000000000000000 ) ) ;
#421 = LINE ( 'NONE', #664, #472 ) ;
#422 = VERTEX_POINT ( 'NONE', #330 ) ;
#423 = ADVANCED_FACE ( 'NONE', ( #509 ), #516, .T. ) ;
#424 = CARTESIAN_POINT ( 'NONE',  ( 0.000000000000000000, 0.7100000000000109557, -3.299999999999998046 ) ) ;
#425 = DIRECTION ( 'NONE',  ( -1.000000000000000000, -0.000000000000000000, -0.000000000000000000 ) ) ;
#426 = ORIENTED_EDGE ( 'NONE', *, *, #140, .F. ) ;
#427 = DIRECTION ( 'NONE',  ( 0.000000000000000000, 1.000000000000000000, -6.862500591803180503E-17 ) ) ;
#428 = DIRECTION ( 'NONE',  ( 0.000000000000000000, -3.422856332925101402E-15, 1.000000000000000000 ) ) ;
#429 = AXIS2_PLACEMENT_3D ( 'NONE', #592, #122, #475 ) ;
#430 = ORIENTED_EDGE ( 'NONE', *, *, #199, .F. ) ;
#431 = LINE ( 'NONE', #545, #108 ) ;
#432 = LINE ( 'NONE', #152, #485 ) ;
#433 = ORIENTED_EDGE ( 'NONE', *, *, #402, .T. ) ;
#434 = AXIS2_PLACEMENT_3D ( 'NONE', #209, #436, #376 ) ;
#435 = FACE_OUTER_BOUND ( 'NONE', #100, .T. ) ;
#436 = DIRECTION ( 'NONE',  ( -1.000000000000000000, 0.000000000000000000, -0.000000000000000000 ) ) ;
#437 = EDGE_LOOP ( 'NONE', ( #624, #392, #105, #298 ) ) ;
#438 = CARTESIAN_POINT ( 'NONE',  ( 3.449999999999999734, -1.065636077655028879, 0.7100000000000009637 ) ) ;
#439 = FACE_OUTER_BOUND ( 'NONE', #675, .T. ) ;
#440 = EDGE_CURVE ( 'NONE', #101, #101, #32, .T. ) ;
#441 = EDGE_LOOP ( 'NONE', ( #495, #25, #312, #73 ) ) ;
#442 = CARTESIAN_POINT ( 'NONE',  ( 3.449999999999999734, 0.7100000000000036282, -1.065636077655027325 ) ) ;
#443 = ORIENTED_EDGE ( 'NONE', *, *, #98, .F. ) ;
#444 = EDGE_CURVE ( 'NONE', #215, #239, #224, .T. ) ;
#445 = VERTEX_POINT ( 'NONE', #457 ) ;
#446 = AXIS2_PLACEMENT_3D ( 'NONE', #27, #724, #428 ) ;
#447 = CARTESIAN_POINT ( 'NONE',  ( 0.000000000000000000, 0.000000000000000000, 0.000000000000000000 ) ) ;
#448 = CARTESIAN_POINT ( 'NONE',  ( 3.449999999999999734, -1.065636077655029323, -0.7100000000000006306 ) ) ;
#449 = AXIS2_PLACEMENT_3D ( 'NONE', #339, #754, #567 ) ;
#450 = EDGE_CURVE ( 'NONE', #38, #38, #273, .T. ) ;
#451 = DIRECTION ( 'NONE',  ( 0.000000000000000000, 6.108181253439465850E-16, 1.000000000000000000 ) ) ;
#452 = CIRCLE ( 'NONE', #651, 5.650000000000000355 ) ;
#453 = FACE_OUTER_BOUND ( 'NONE', #341, .T. ) ;
#454 = VERTEX_POINT ( 'NONE', #403 ) ;
#455 = CARTESIAN_POINT ( 'NONE',  ( 3.449999999999999734, -0.7099999999999965228, -1.065636077655031988 ) ) ;
#456 = EDGE_LOOP ( 'NONE', ( #433, #702, #602, #316 ) ) ;
#457 = CARTESIAN_POINT ( 'NONE',  ( 0.6500000000000116795, 0.000000000000000000, 5.650000000000000355 ) ) ;
#458 = CARTESIAN_POINT ( 'NONE',  ( 0.000000000000000000, -3.300000000000000711, -0.7099999999999995204 ) ) ;
#459 = CIRCLE ( 'NONE', #745, 1.280499999999998639 ) ;
#460 = LINE ( 'NONE', #171, #47 ) ;
#461 = ORIENTED_EDGE ( 'NONE', *, *, #583, .F. ) ;
#462 = B_SPLINE_CURVE_WITH_KNOTS ( 'NONE', 3,
 ( #40, #333, #701, #513 ),
 .UNSPECIFIED., .F., .F.,
 ( 4, 4 ),
 ( 0.002337784977643471256, 0.005799159053044017006 ),
 .UNSPECIFIED. ) ;
#463 = DIRECTION ( 'NONE',  ( 1.000000000000000000, 0.000000000000000000, -1.257045997084642858E-16 ) ) ;
#464 = DIRECTION ( 'NONE',  ( 0.000000000000000000, 0.000000000000000000, 1.000000000000000000 ) ) ;
#465 = ORIENTED_EDGE ( 'NONE', *, *, #203, .F. ) ;
#466 = EDGE_CURVE ( 'NONE', #261, #205, #644, .T. ) ;
#467 = LINE ( 'NONE', #13, #761 ) ;
#468 = ORIENTED_EDGE ( 'NONE', *, *, #710, .T. ) ;
#469 = EDGE_CURVE ( 'NONE', #454, #621, #405, .T. ) ;
#470 = CARTESIAN_POINT ( 'NONE',  ( 3.449999999999999734, 0.000000000000000000, 0.000000000000000000 ) ) ;
#471 = CARTESIAN_POINT ( 'NONE',  ( 0.000000000000000000, -0.7100000000000109557, 3.299999999999997158 ) ) ;
#472 = VECTOR ( 'NONE', #132, 1000.000000000000227 ) ;
#473 = ORIENTED_EDGE ( 'NONE', *, *, #34, .T. ) ;
#474 = EDGE_CURVE ( 'NONE', #91, #169, #743, .T. ) ;
#475 = DIRECTION ( 'NONE',  ( 0.000000000000000000, 1.000000000000000000, -6.862500591803180503E-17 ) ) ;
#476 = DIRECTION ( 'NONE',  ( 0.000000000000000000, 0.000000000000000000, 1.000000000000000000 ) ) ;
#477 = EDGE_LOOP ( 'NONE', ( #461 ) ) ;
#478 = AXIS2_PLACEMENT_3D ( 'NONE', #420, #663, #131 ) ;
#479 = CARTESIAN_POINT ( 'NONE',  ( 3.449999999999999734, 1.065636077655029323, -0.7100000000000006306 ) ) ;
#480 = DIRECTION ( 'NONE',  ( 1.000000000000000000, 0.000000000000000000, -0.000000000000000000 ) ) ;
#481 = VERTEX_POINT ( 'NONE', #455 ) ;
#482 = LINE ( 'NONE', #213, #689 ) ;
#483 = FACE_OUTER_BOUND ( 'NONE', #88, .T. ) ;
#484 = VERTEX_POINT ( 'NONE', #691 ) ;
#485 = VECTOR ( 'NONE', #737, 1000.000000000000000 ) ;
#486 = LINE ( 'NONE', #669, #524 ) ;
#487 = CARTESIAN_POINT ( 'NONE',  ( 0.000000000000000000, 3.299999999999999822, 0.7099999999999995204 ) ) ;
#488 = EDGE_LOOP ( 'NONE', ( #672 ) ) ;
#489 = DIRECTION ( 'NONE',  ( 0.000000000000000000, -1.000000000000000000, 6.862500591803180503E-17 ) ) ;
#490 = DIRECTION ( 'NONE',  ( -1.000000000000000000, -0.000000000000000000, -0.000000000000000000 ) ) ;
#491 = CIRCLE ( 'NONE', #276, 3.000000000000000000 ) ;
#492 = EDGE_LOOP ( 'NONE', ( #109, #279, #165, #6 ) ) ;
#493 = CARTESIAN_POINT ( 'NONE',  ( 0.000000000000000000, 0.000000000000000000, 5.650000000000000355 ) ) ;
#494 = FACE_BOUND ( 'NONE', #544, .T. ) ;
#495 = ORIENTED_EDGE ( 'NONE', *, *, #726, .F. ) ;
#496 = AXIS2_PLACEMENT_3D ( 'NONE', #250, #705, #476 ) ;
#497 = DIRECTION ( 'NONE',  ( 0.000000000000000000, 0.000000000000000000, 1.000000000000000000 ) ) ;
#498 = ADVANCED_FACE ( 'NONE', ( #578 ), #398, .T. ) ;
#499 = FACE_OUTER_BOUND ( 'NONE', #193, .T. ) ;
#500 = EDGE_CURVE ( 'NONE', #145, #42, #267, .T. ) ;
#501 = ORIENTED_EDGE ( 'NONE', *, *, #450, .F. ) ;
#502 = DIRECTION ( 'NONE',  ( 0.000000000000000000, 0.000000000000000000, -1.000000000000000000 ) ) ;
#503 = ORIENTED_EDGE ( 'NONE', *, *, #692, .F. ) ;
#504 = EDGE_CURVE ( 'NONE', #454, #481, #591, .T. ) ;
#505 = CARTESIAN_POINT ( 'NONE',  ( 0.000000000000000000, 0.7100000000000041833, -1.345962650827991158 ) ) ;
#506 = CARTESIAN_POINT ( 'NONE',  ( -996.1339403289737220, 0.000000000000000000, 0.000000000000000000 ) ) ;
#507 = ORIENTED_EDGE ( 'NONE', *, *, #722, .F. ) ;
#508 = UNCERTAINTY_MEASURE_WITH_UNIT (LENGTH_MEASURE( 1.000000000000000082E-05 ), #155, 'distance_accuracy_value', 'NONE');
#509 = FACE_OUTER_BOUND ( 'NONE', #477, .T. ) ;
#510 = CARTESIAN_POINT ( 'NONE',  ( 0.000000000000000000, -0.7099999999999888622, -3.300000000000002487 ) ) ;
#511 = ORIENTED_EDGE ( 'NONE', *, *, #726, .T. ) ;
#512 = DIRECTION ( 'NONE',  ( 0.8949343913984536547, 0.4461977533474138502, -1.124973694360806954E-16 ) ) ;
#513 = CARTESIAN_POINT ( 'NONE',  ( 3.450000000000000178, 0.7099999999999961897, 1.065636077655030656 ) ) ;
#514 = EDGE_LOOP ( 'NONE', ( #293, #150, #326, #473 ) ) ;
#515 = CARTESIAN_POINT ( 'NONE',  ( 0.000000000000000000, 0.000000000000000000, 0.000000000000000000 ) ) ;
#516 = PLANE ( 'NONE',  #735 ) ;
#517 = DIRECTION ( 'NONE',  ( 0.000000000000000000, -3.491481338843133355E-15, 1.000000000000000000 ) ) ;
#518 = ORIENTED_EDGE ( 'NONE', *, *, #753, .F. ) ;
#519 = DIRECTION ( 'NONE',  ( 0.000000000000000000, -3.422856332925101402E-15, 1.000000000000000000 ) ) ;
#520 = EDGE_CURVE ( 'NONE', #241, #611, #304, .T. ) ;
#521 = DIRECTION ( 'NONE',  ( -1.000000000000000000, -0.000000000000000000, -0.000000000000000000 ) ) ;
#522 = ORIENTED_EDGE ( 'NONE', *, *, #529, .F. ) ;
#523 = AXIS2_PLACEMENT_3D ( 'NONE', #699, #97, #156 ) ;
#524 = VECTOR ( 'NONE', #736, 1000.000000000000000 ) ;
#525 = CARTESIAN_POINT ( 'NONE',  ( 12.00000000000000000, 0.000000000000000000, 0.000000000000000000 ) ) ;
#526 = DIRECTION ( 'NONE',  ( 0.000000000000000000, 3.360062893693375254E-15, -1.000000000000000000 ) ) ;
#527 = MANIFOLD_SOLID_BREP ( 'RecessCore', #182 ) ;
#528 = ORIENTED_EDGE ( 'NONE', *, *, #643, .T. ) ;
#529 = EDGE_CURVE ( 'NONE', #241, #621, #700, .T. ) ;
#530 = DIRECTION ( 'NONE',  ( -1.000000000000000000, -0.000000000000000000, -0.000000000000000000 ) ) ;
#531 = ORIENTED_EDGE ( 'NONE', *, *, #504, .T. ) ;
#532 = ADVANCED_FACE ( 'NONE', ( #237 ), #707, .T. ) ;
#533 = DIRECTION ( 'NONE',  ( 1.000000000000000000, 0.000000000000000000, -0.000000000000000000 ) ) ;
#534 = DIRECTION ( 'NONE',  ( -1.000000000000000000, -0.000000000000000000, -0.000000000000000000 ) ) ;
#535 = CIRCLE ( 'NONE', #708, 5.650000000000000355 ) ;
#536 = ORIENTED_EDGE ( 'NONE', *, *, #474, .T. ) ;
#537 = CARTESIAN_POINT ( 'NONE',  ( 3.450000000000000178, 0.7099999999999944134, 1.579893739871502056 ) ) ;
#538 = ADVANCED_FACE ( 'NONE', ( #299 ), #306, .T. ) ;
#539 = PRODUCT_DEFINITION_FORMATION_WITH_SPECIFIED_SOURCE ( 'Symmetric', '', #628, .NOT_KNOWN. ) ;
#540 = CARTESIAN_POINT ( 'NONE',  ( 0.000000000000000000, 3.299999999999998934, -0.7099999999999995204 ) ) ;
#541 = VERTEX_POINT ( 'NONE', #660 ) ;
#542 = CARTESIAN_POINT ( 'NONE',  ( 0.000000000000000000, -1.345962650827993157, 0.7100000000000001865 ) ) ;
#543 = DIRECTION ( 'NONE',  ( 0.8949343913984313392, 1.389145075092264975E-15, -0.4461977533474582591 ) ) ;
#544 = EDGE_LOOP ( 'NONE', ( #409, #252, #741, #198, #136, #62, #595, #641, #752, #522, #223, #129, #10, #217, #180, #738 ) ) ;
#545 = CARTESIAN_POINT ( 'NONE',  ( 0.000000000000000000, 0.7099999999999879741, 3.300000000000001599 ) ) ;
#546 = DIRECTION ( 'NONE',  ( 0.000000000000000000, -1.000000000000000000, -2.880663213499186573E-15 ) ) ;
#547 = ORIENTED_EDGE ( 'NONE', *, *, #520, .F. ) ;
#548 = EDGE_CURVE ( 'NONE', #2, #145, #718, .T. ) ;
#549 = APPLICATION_CONTEXT ( 'automotive_design' ) ;
#550 = AXIS2_PLACEMENT_3D ( 'NONE', #447, #8, #358 ) ;
#551 = DIRECTION ( 'NONE',  ( 0.000000000000000000, 1.000000000000000000, 3.186072276171160359E-15 ) ) ;
#552 = AXIS2_PLACEMENT_3D ( 'NONE', #277, #739, #228 ) ;
#553 = FACE_BOUND ( 'NONE', #557, .T. ) ;
#554 = ORIENTED_EDGE ( 'NONE', *, *, #177, .F. ) ;
#555 = ADVANCED_FACE ( 'NONE', ( #653 ), #417, .T. ) ;
#556 = FACE_OUTER_BOUND ( 'NONE', #164, .T. ) ;
#557 = EDGE_LOOP ( 'NONE', ( #712 ) ) ;
#558 = EDGE_CURVE ( 'NONE', #261, #585, #407, .T. ) ;
#559 = CARTESIAN_POINT ( 'NONE',  ( 3.449999999999999734, 0.000000000000000000, 0.000000000000000000 ) ) ;
#560 = DIRECTION ( 'NONE',  ( 0.000000000000000000, -3.054090626719730460E-16, -1.000000000000000000 ) ) ;
#561 = VERTEX_POINT ( 'NONE', #709 ) ;
#562 = AXIS2_PLACEMENT_3D ( 'NONE', #364, #325, #324 ) ;
#563 = CARTESIAN_POINT ( 'NONE',  ( 12.00000000000000000, 0.000000000000000000, 3.000000000000000000 ) ) ;
#564 = LINE ( 'NONE', #623, #601 ) ;
#565 = ORIENTED_EDGE ( 'NONE', *, *, #740, .F. ) ;
#566 = VERTEX_POINT ( 'NONE', #563 ) ;
#567 = DIRECTION ( 'NONE',  ( 0.000000000000000000, 0.000000000000000000, 1.000000000000000000 ) ) ;
#568 = CARTESIAN_POINT ( 'NONE',  ( 0.000000000000000000, 0.000000000000000000, 0.000000000000000000 ) ) ;
#569 = PRESENTATION_STYLE_ASSIGNMENT (( #633 ) ) ;
#570 = VERTEX_POINT ( 'NONE', #587 ) ;
#571 = EDGE_CURVE ( 'NONE', #205, #133, #596, .T. ) ;
#572 = DIRECTION ( 'NONE',  ( 0.000000000000000000, 0.000000000000000000, 1.000000000000000000 ) ) ;
#573 = FILL_AREA_STYLE_COLOUR ( '', #327 ) ;
#574 = CARTESIAN_POINT ( 'NONE',  ( 0.000000000000000000, 3.299999999999999822, 0.7099999999999995204 ) ) ;
#575 = ORIENTED_EDGE ( 'NONE', *, *, #529, .T. ) ;
#576 = AXIS2_PLACEMENT_3D ( 'NONE', #731, #268, #427 ) ;
#577 = VECTOR ( 'NONE', #187, 1000.000000000000000 ) ;
#578 = FACE_OUTER_BOUND ( 'NONE', #14, .T. ) ;
#579 = CARTESIAN_POINT ( 'NONE',  ( 1.150202749038049754, -0.7099999999999957456, -1.255028352847042727 ) ) ;
#580 = EDGE_LOOP ( 'NONE', ( #265 ) ) ;
#581 = EDGE_CURVE ( 'NONE', #611, #454, #609, .T. ) ;
#582 = CARTESIAN_POINT ( 'NONE',  ( 0.000000000000000000, 1.345962650827993601, -0.7099999999999995204 ) ) ;
#583 = EDGE_CURVE ( 'NONE', #566, #566, #491, .T. ) ;
#584 = CARTESIAN_POINT ( 'NONE',  ( 0.000000000000000000, 0.7100000000000109557, -3.299999999999998046 ) ) ;
#585 = VERTEX_POINT ( 'NONE', #763 ) ;
#586 = VECTOR ( 'NONE', #61, 1000.000000000000000 ) ;
#587 = CARTESIAN_POINT ( 'NONE',  ( 3.450000000000000178, 0.7099999999999961897, 1.065636077655030656 ) ) ;
#588 = ADVANCED_FACE ( 'NONE', ( #184 ), #119, .T. ) ;
#589 = DIRECTION ( 'NONE',  ( 0.000000000000000000, 0.000000000000000000, 1.000000000000000000 ) ) ;
#590 = EDGE_LOOP ( 'NONE', ( #511, #717, #365, #531, #654, #141, #103, #125 ) ) ;
#591 = CIRCLE ( 'NONE', #232, 1.280499999999998639 ) ;
#592 = CARTESIAN_POINT ( 'NONE',  ( 3.450000000000000178, -1.579893739871713887, 0.7100000000000002975 ) ) ;
#593 = DIRECTION ( 'NONE',  ( 0.000000000000000000, 1.000000000000000000, 2.880663213499187362E-15 ) ) ;
#594 = ADVANCED_FACE ( 'NONE', ( #656 ), #67, .F. ) ;
#595 = ORIENTED_EDGE ( 'NONE', *, *, #338, .T. ) ;
#596 = LINE ( 'NONE', #240, #393 ) ;
#597 = CARTESIAN_POINT ( 'NONE',  ( 0.000000000000000000, 3.299999999999999378, 0.7100000000000000755 ) ) ;
#598 = VERTEX_POINT ( 'NONE', #599 ) ;
#599 = CARTESIAN_POINT ( 'NONE',  ( 3.449999999999999734, 1.065636077655029101, 0.7100000000000008527 ) ) ;
#600 = DIRECTION ( 'NONE',  ( 0.000000000000000000, 0.000000000000000000, 1.000000000000000000 ) ) ;
#601 = VECTOR ( 'NONE', #90, 1000.000000000000000 ) ;
#602 = ORIENTED_EDGE ( 'NONE', *, *, #548, .F. ) ;
#603 = VECTOR ( 'NONE', #451, 1000.000000000000000 ) ;
#604 = LINE ( 'NONE', #78, #328 ) ;
#605 =( GEOMETRIC_REPRESENTATION_CONTEXT ( 3 ) GLOBAL_UNCERTAINTY_ASSIGNED_CONTEXT ( ( #508 ) ) GLOBAL_UNIT_ASSIGNED_CONTEXT ( ( #155, #682, #51 ) ) REPRESENTATION_CONTEXT ( 'NONE', 'WORKASPACE' ) );
#606 = CARTESIAN_POINT ( 'NONE',  ( 3.450000000000000178, -1.579893739871714775, -0.7099999999999999645 ) ) ;
#607 = EDGE_LOOP ( 'NONE', ( #575, #729, #211, #547 ) ) ;
#608 = CARTESIAN_POINT ( 'NONE',  ( 3.450000000000000178, 1.579893739871499836, 0.7100000000000000755 ) ) ;
#609 = CIRCLE ( 'NONE', #137, 1.280499999999998639 ) ;
#610 = EDGE_CURVE ( 'NONE', #248, #301, #126, .T. ) ;
#611 = VERTEX_POINT ( 'NONE', #479 ) ;
#612 = LINE ( 'NONE', #617, #74 ) ;
#613 = PLANE ( 'NONE',  #434 ) ;
#614 = ADVANCED_FACE ( 'NONE', ( #715 ), #657, .F. ) ;
#615 = ORIENTED_EDGE ( 'NONE', *, *, #610, .F. ) ;
#616 = VECTOR ( 'NONE', #543, 1000.000000000000114 ) ;
#617 = CARTESIAN_POINT ( 'NONE',  ( 3.450000000000000178, 1.579893739871499836, 0.7100000000000000755 ) ) ;
#618 = PLANE ( 'NONE',  #446 ) ;
#619 = TOROIDAL_SURFACE ( 'NONE', #677, 4.500000000000000888, 1.500000000000000000 ) ;
#620 = EDGE_CURVE ( 'NONE', #541, #561, #309, .T. ) ;
#621 = VERTEX_POINT ( 'NONE', #679 ) ;
#622 = CARTESIAN_POINT ( 'NONE',  ( 3.450000000000000178, 1.579893739871500058, -0.7099999999999999645 ) ) ;
#623 = CARTESIAN_POINT ( 'NONE',  ( 0.000000000000000000, -0.7100000000000109557, 3.299999999999997158 ) ) ;
#624 = ORIENTED_EDGE ( 'NONE', *, *, #571, .T. ) ;
#625 = ADVANCED_FACE ( 'NONE', ( #435 ), #375, .T. ) ;
#626 = APPLICATION_PROTOCOL_DEFINITION ( 'draft international standard', 'automotive_design', 1998, #158 ) ;
#627 = LINE ( 'NONE', #372, #118 ) ;
#628 = PRODUCT ( 'ISO 7046-1 - M6 x 12 - Z - 12N_ISO 7046-1 - M6 x 12 - Z - 12N', 'ISO 7046-1 - M6 x 12 - Z - 12N_ISO 7046-1 - M6 x 12 - Z - 12N', '', ( #382 ) ) ;
#629 = EDGE_LOOP ( 'NONE', ( #501 ) ) ;
#630 = MECHANICAL_DESIGN_GEOMETRIC_PRESENTATION_REPRESENTATION (  '', ( #197 ), #349 ) ;
#631 = CARTESIAN_POINT ( 'NONE',  ( 2.300265665242522406, 1.162243811993063813, -0.7099999999999998535 ) ) ;
#632 = DIRECTION ( 'NONE',  ( 0.000000000000000000, 0.000000000000000000, 1.000000000000000000 ) ) ;
#633 = SURFACE_STYLE_USAGE ( .BOTH. , #638 ) ;
#634 = DIRECTION ( 'NONE',  ( -1.000000000000000000, -0.000000000000000000, -0.000000000000000000 ) ) ;
#635 = ORIENTED_EDGE ( 'NONE', *, *, #290, .T. ) ;
#636 = CARTESIAN_POINT ( 'NONE',  ( 3.449999999999999734, -0.7099999999999965228, -1.065636077655031988 ) ) ;
#637 = AXIS2_PLACEMENT_3D ( 'NONE', #185, #480, #72 ) ;
#638 = SURFACE_SIDE_STYLE ('',( #389 ) ) ;
#639 = CARTESIAN_POINT ( 'NONE',  ( 0.000000000000000000, -1.345962650827993157, 0.7100000000000001865 ) ) ;
#640 = EDGE_CURVE ( 'NONE', #445, #445, #452, .T. ) ;
#641 = ORIENTED_EDGE ( 'NONE', *, *, #203, .T. ) ;
#642 = CIRCLE ( 'NONE', #95, 1.280499999999998639 ) ;
#643 = EDGE_CURVE ( 'NONE', #117, #2, #730, .T. ) ;
#644 = LINE ( 'NONE', #458, #359 ) ;
#645 = DIRECTION ( 'NONE',  ( -1.000000000000000000, -0.000000000000000000, -0.000000000000000000 ) ) ;
#646 = ORIENTED_EDGE ( 'NONE', *, *, #66, .F. ) ;
#647 = EDGE_CURVE ( 'NONE', #301, #598, #612, .T. ) ;
#648 = DIRECTION ( 'NONE',  ( 0.000000000000000000, 0.000000000000000000, 1.000000000000000000 ) ) ;
#649 = VERTEX_POINT ( 'NONE', #673 ) ;
#650 = VECTOR ( 'NONE', #345, 1000.000000000000000 ) ;
#651 = AXIS2_PLACEMENT_3D ( 'NONE', #26, #29, #497 ) ;
#652 = CONICAL_SURFACE ( 'NONE', #181, 1.280499999999998639, 0.06981317007976589606 ) ;
#653 = FACE_OUTER_BOUND ( 'NONE', #437, .T. ) ;
#654 = ORIENTED_EDGE ( 'NONE', *, *, #271, .T. ) ;
#655 = VECTOR ( 'NONE', #489, 1000.000000000000000 ) ;
#656 = FACE_OUTER_BOUND ( 'NONE', #746, .T. ) ;
#657 = CONICAL_SURFACE ( 'NONE', #478, 1.280499999999998639, 0.06981317007976589606 ) ;
#658 = FACE_OUTER_BOUND ( 'NONE', #36, .T. ) ;
#659 = ORIENTED_EDGE ( 'NONE', *, *, #66, .T. ) ;
#660 = CARTESIAN_POINT ( 'NONE',  ( 3.449999999999999734, 0.7099999999999944134, 1.579893739871502278 ) ) ;
#661 = DIRECTION ( 'NONE',  ( -1.000000000000000000, -0.000000000000000000, -0.000000000000000000 ) ) ;
#662 = ORIENTED_EDGE ( 'NONE', *, *, #334, .F. ) ;
#663 = DIRECTION ( 'NONE',  ( -1.000000000000000000, -0.000000000000000000, -0.000000000000000000 ) ) ;
#664 = CARTESIAN_POINT ( 'NONE',  ( 0.000000000000000000, -3.299999999999999822, 0.7100000000000002975 ) ) ;
#665 = ORIENTED_EDGE ( 'NONE', *, *, #236, .T. ) ;
#666 = PLANE ( 'NONE',  #703 ) ;
#667 = FACE_OUTER_BOUND ( 'NONE', #257, .T. ) ;
#668 = VERTEX_POINT ( 'NONE', #424 ) ;
#669 = CARTESIAN_POINT ( 'NONE',  ( 0.000000000000000000, -3.300000000000000711, -0.7099999999999995204 ) ) ;
#670 = ADVANCED_FACE ( 'NONE', ( #81, #676 ), #619, .F. ) ;
#671 = DIRECTION ( 'NONE',  ( -1.000000000000000000, -0.000000000000000000, -0.000000000000000000 ) ) ;
#672 = ORIENTED_EDGE ( 'NONE', *, *, #440, .F. ) ;
#673 = CARTESIAN_POINT ( 'NONE',  ( 0.000000000000000000, -0.7100000000000109557, 3.299999999999997158 ) ) ;
#674 = DIRECTION ( 'NONE',  ( 0.000000000000000000, 0.000000000000000000, 1.000000000000000000 ) ) ;
#675 = EDGE_LOOP ( 'NONE', ( #348 ) ) ;
#676 = FACE_OUTER_BOUND ( 'NONE', #488, .T. ) ;
#677 = AXIS2_PLACEMENT_3D ( 'NONE', #362, #366, #200 ) ;
#678 = EDGE_LOOP ( 'NONE', ( #725, #190, #28, #635 ) ) ;
#679 = CARTESIAN_POINT ( 'NONE',  ( 0.000000000000000000, 0.7100000000000041833, -1.345962650827991158 ) ) ;
#680 = PLANE ( 'NONE',  #411 ) ;
#681 = ORIENTED_EDGE ( 'NONE', *, *, #34, .F. ) ;
#682 =( NAMED_UNIT ( * ) PLANE_ANGLE_UNIT ( ) SI_UNIT ( $, .RADIAN. ) );
#683 = CARTESIAN_POINT ( 'NONE',  ( 0.000000000000000000, 3.299999999999998934, -0.7099999999999995204 ) ) ;
#684 = ORIENTED_EDGE ( 'NONE', *, *, #271, .F. ) ;
#685 = VECTOR ( 'NONE', #49, 1000.000000000000114 ) ;
#686 = PRESENTATION_LAYER_ASSIGNMENT (  '', '', ( #197 ) ) ;
#687 = DIRECTION ( 'NONE',  ( 0.8949343913984535437, -1.557891129246226200E-15, 0.4461977533474137392 ) ) ;
#688 = LINE ( 'NONE', #387, #747 ) ;
#689 = VECTOR ( 'NONE', #719, 1000.000000000000000 ) ;
#690 = VERTEX_POINT ( 'NONE', #146 ) ;
#691 = CARTESIAN_POINT ( 'NONE',  ( 0.000000000000000000, 0.7099999999999879741, 3.300000000000001599 ) ) ;
#692 = EDGE_CURVE ( 'NONE', #169, #422, #75, .T. ) ;
#693 = CARTESIAN_POINT ( 'NONE',  ( 3.449999999999999734, -1.065636077655028879, 0.7100000000000009637 ) ) ;
#694 = ORIENTED_EDGE ( 'NONE', *, *, #45, .T. ) ;
#695 = ADVANCED_FACE ( 'NONE', ( #15 ), #666, .F. ) ;
#696 = LINE ( 'NONE', #744, #412 ) ;
#697 = ORIENTED_EDGE ( 'NONE', *, *, #3, .F. ) ;
#698 = AXIS2_PLACEMENT_3D ( 'NONE', #378, #671, #674 ) ;
#699 = CARTESIAN_POINT ( 'NONE',  ( 0.000000000000000000, 3.299999999999999822, 0.7099999999999995204 ) ) ;
#700 = CIRCLE ( 'NONE', #550, 1.521747501205084285 ) ;
#701 = CARTESIAN_POINT ( 'NONE',  ( 2.300265665242775981, 0.7099999999999957456, 1.162243811993044718 ) ) ;
#702 = ORIENTED_EDGE ( 'NONE', *, *, #500, .F. ) ;
#703 = AXIS2_PLACEMENT_3D ( 'NONE', #622, #320, #134 ) ;
#704 = DIRECTION ( 'NONE',  ( 0.000000000000000000, 1.000000000000000000, 0.000000000000000000 ) ) ;
#705 = DIRECTION ( 'NONE',  ( -1.000000000000000000, -0.000000000000000000, -0.000000000000000000 ) ) ;
#706 = ORIENTED_EDGE ( 'NONE', *, *, #41, .F. ) ;
#707 = PLANE ( 'NONE',  #266 ) ;
#708 = AXIS2_PLACEMENT_3D ( 'NONE', #404, #645, #400 ) ;
#709 = CARTESIAN_POINT ( 'NONE',  ( 3.450000000000000622, -0.7100000000000056266, 1.579893739871497393 ) ) ;
#710 = EDGE_CURVE ( 'NONE', #2, #84, #89, .T. ) ;
#711 = FACE_OUTER_BOUND ( 'NONE', #272, .T. ) ;
#712 = ORIENTED_EDGE ( 'NONE', *, *, #440, .T. ) ;
#713 = CARTESIAN_POINT ( 'NONE',  ( 3.450000000000000178, 1.579893739871500058, -0.7099999999999999645 ) ) ;
#714 = CARTESIAN_POINT ( 'NONE',  ( 3.449999999999999734, 0.000000000000000000, 0.000000000000000000 ) ) ;
#715 = FACE_OUTER_BOUND ( 'NONE', #456, .T. ) ;
#716 = DIRECTION ( 'NONE',  ( -0.4461977533474138502, -2.851325653426723146E-15, 0.8949343913984536547 ) ) ;
#717 = ORIENTED_EDGE ( 'NONE', *, *, #140, .T. ) ;
#718 = CIRCLE ( 'NONE', #128, 1.280499999999998639 ) ;
#719 = DIRECTION ( 'NONE',  ( 0.000000000000000000, 1.000000000000000000, 0.000000000000000000 ) ) ;
#720 = DIRECTION ( 'NONE',  ( -0.8949343913984536547, -0.4461977533474138502, 0.000000000000000000 ) ) ;
#721 = ORIENTED_EDGE ( 'NONE', *, *, #120, .F. ) ;
#722 = EDGE_CURVE ( 'NONE', #422, #454, #604, .T. ) ;
#723 = VERTEX_POINT ( 'NONE', #493 ) ;
#724 = DIRECTION ( 'NONE',  ( 3.421516008143395777E-17, 1.000000000000000000, 3.422856332925101402E-15 ) ) ;
#725 = ORIENTED_EDGE ( 'NONE', *, *, #466, .F. ) ;
#726 = EDGE_CURVE ( 'NONE', #570, #598, #642, .T. ) ;
#727 = CARTESIAN_POINT ( 'NONE',  ( 1.150202749038049754, -1.255028352847040063, 0.7100000000000001865 ) ) ;
#728 = CARTESIAN_POINT ( 'NONE',  ( 3.450000000000000178, -1.579893739871714331, 0.7100000000000002975 ) ) ;
#729 = ORIENTED_EDGE ( 'NONE', *, *, #469, .F. ) ;
#730 = B_SPLINE_CURVE_WITH_KNOTS ( 'NONE', 3,
 ( #542, #727, #138, #438 ),
 .UNSPECIFIED., .F., .F.,
 ( 4, 4 ),
 ( 0.002337784986350329407, 0.005799159061750850004 ),
 .UNSPECIFIED. ) ;
#731 = CARTESIAN_POINT ( 'NONE',  ( 3.450000000000000178, -1.579893739871713887, 0.7100000000000002975 ) ) ;
#732 = DIRECTION ( 'NONE',  ( 0.000000000000000000, -1.000000000000000000, 1.314184451497581259E-16 ) ) ;
#733 = EDGE_CURVE ( 'NONE', #484, #541, #431, .T. ) ;
#734 = ORIENTED_EDGE ( 'NONE', *, *, #620, .F. ) ;
#735 = AXIS2_PLACEMENT_3D ( 'NONE', #757, #48, #502 ) ;
#736 = DIRECTION ( 'NONE',  ( 0.000000000000000000, 1.000000000000000000, 0.000000000000000000 ) ) ;
#737 = DIRECTION ( 'NONE',  ( 0.000000000000000000, -3.491481338843133355E-15, 1.000000000000000000 ) ) ;
#738 = ORIENTED_EDGE ( 'NONE', *, *, #311, .T. ) ;
#739 = DIRECTION ( 'NONE',  ( 1.000000000000000000, 0.000000000000000000, 0.000000000000000000 ) ) ;
#740 = EDGE_CURVE ( 'NONE', #241, #215, #486, .T. ) ;
#741 = ORIENTED_EDGE ( 'NONE', *, *, #384, .T. ) ;
#742 = CARTESIAN_POINT ( 'NONE',  ( 2.860660171779821681, 0.000000000000000000, 3.439339828220181250 ) ) ;
#743 = LINE ( 'NONE', #394, #159 ) ;
#744 = CARTESIAN_POINT ( 'NONE',  ( 0.000000000000000000, -3.299999999999999822, 0.7100000000000002975 ) ) ;
#745 = AXIS2_PLACEMENT_3D ( 'NONE', #391, #634, #464 ) ;
#746 = EDGE_LOOP ( 'NONE', ( #173, #231, #289, #275 ) ) ;
#747 = VECTOR ( 'NONE', #396, 1000.000000000000000 ) ;
#748 = EDGE_CURVE ( 'NONE', #611, #248, #482, .T. ) ;
#749 = CARTESIAN_POINT ( 'NONE',  ( 0.000000000000000000, -0.7100000000000046274, 1.345962650827990714 ) ) ;
#750 = VECTOR ( 'NONE', #18, 1000.000000000000000 ) ;
#751 = B_SPLINE_CURVE_WITH_KNOTS ( 'NONE', 3,
 ( #225, #579, #295, #636 ),
 .UNSPECIFIED., .F., .F.,
 ( 4, 4 ),
 ( 0.002337784986350328973, 0.005799159061750849137 ),
 .UNSPECIFIED. ) ;
#752 = ORIENTED_EDGE ( 'NONE', *, *, #315, .T. ) ;
#753 = EDGE_CURVE ( 'NONE', #561, #145, #142, .T. ) ;
#754 = DIRECTION ( 'NONE',  ( -1.000000000000000000, -0.000000000000000000, -0.000000000000000000 ) ) ;
#755 = CARTESIAN_POINT ( 'NONE',  ( 3.449999999999999734, -0.7100000000000039613, 1.065636077655027103 ) ) ;
#756 = ORIENTED_EDGE ( 'NONE', *, *, #207, .F. ) ;
#757 = CARTESIAN_POINT ( 'NONE',  ( 12.00000000000000000, 3.000000000000000000, 0.000000000000000000 ) ) ;
#758 = ADVANCED_FACE ( 'NONE', ( #556 ), #206, .T. ) ;
#759 = DIRECTION ( 'NONE',  ( 0.000000000000000000, -6.108181253439462892E-16, -1.000000000000000000 ) ) ;
#760 = ORIENTED_EDGE ( 'NONE', *, *, #583, .T. ) ;
#761 = VECTOR ( 'NONE', #593, 1000.000000000000000 ) ;
#762 = LINE ( 'NONE', #574, #685 ) ;
#763 = CARTESIAN_POINT ( 'NONE',  ( 0.000000000000000000, -1.345962650827993601, -0.7099999999999995204 ) ) ;
ENDSEC;
END-ISO-10303-21;
