ISO-10303-21;
HEADER;
FILE_DESCRIPTION (( 'STEP AP214' ),
    '1' );
FILE_NAME ('Part6.STEP',
    '2025-08-01T14:11:49',
    ( '' ),
    ( '' ),
    'SwSTEP 2.0',
    'SolidWorks 2025',
    '' );
FILE_SCHEMA (( 'AUTOMOTIVE_DESIGN' ));
ENDSEC;

DATA;
#1 = EDGE_LOOP ( 'NONE', ( #52, #527, #71, #80 ) ) ;
#2 = EDGE_CURVE ( 'NONE', #487, #201, #205, .T. ) ;
#3 = CARTESIAN_POINT ( 'NONE',  ( -32.49999999999999289, 15.00000000000000000, -12.99999999999999112 ) ) ;
#4 = FACE_OUTER_BOUND ( 'NONE', #334, .T. ) ;
#5 = CIRCLE ( 'NONE', #181, 2.000000000000001776 ) ;
#6 = VECTOR ( 'NONE', #314, 1000.000000000000000 ) ;
#7 = DIRECTION ( 'NONE',  ( 0.000000000000000000, 1.000000000000000000, 0.000000000000000000 ) ) ;
#8 = FACE_OUTER_BOUND ( 'NONE', #356, .T. ) ;
#9 = CARTESIAN_POINT ( 'NONE',  ( -32.49999999999999289, 15.00000000000000000, -12.99999999999999289 ) ) ;
#10 = DIRECTION ( 'NONE',  ( 1.000000000000000000, 0.000000000000000000, -1.601283208593975514E-16 ) ) ;
#11 = DIRECTION ( 'NONE',  ( 0.000000000000000000, -0.000000000000000000, -1.000000000000000000 ) ) ;
#12 = EDGE_CURVE ( 'NONE', #381, #128, #136, .T. ) ;
#13 = AXIS2_PLACEMENT_3D ( 'NONE', #116, #562, #479 ) ;
#14 = FACE_OUTER_BOUND ( 'NONE', #436, .T. ) ;
#15 = CLOSED_SHELL ( 'NONE', ( #464, #225, #202, #53, #389, #301, #315, #485, #41, #105, #345, #348, #211, #247, #287, #330, #530, #420, #561, #508, #146, #434 ) ) ;
#16 = DIRECTION ( 'NONE',  ( 1.000000000000000000, -0.000000000000000000, -1.601283208593975514E-16 ) ) ;
#17 = DIRECTION ( 'NONE',  ( -0.000000000000000000, 0.000000000000000000, 1.000000000000000000 ) ) ;
#18 = VECTOR ( 'NONE', #366, 1000.000000000000000 ) ;
#19 = DIRECTION ( 'NONE',  ( -0.000000000000000000, -0.000000000000000000, 1.000000000000000000 ) ) ;
#20 = ORIENTED_EDGE ( 'NONE', *, *, #525, .T. ) ;
#21 = CARTESIAN_POINT ( 'NONE',  ( -32.49999999999999289, 15.00000000000000000, 15.00000000000000888 ) ) ;
#22 = CARTESIAN_POINT ( 'NONE',  ( 30.50000000000000711, 15.00000000000000000, 15.00000000000000000 ) ) ;
#23 = EDGE_LOOP ( 'NONE', ( #327 ) ) ;
#24 = DIRECTION ( 'NONE',  ( 1.000000000000000000, 0.000000000000000000, -1.601283208593975514E-16 ) ) ;
#25 = DIRECTION ( 'NONE',  ( -0.000000000000000000, -1.000000000000000000, -0.000000000000000000 ) ) ;
#26 = AXIS2_PLACEMENT_3D ( 'NONE', #412, #504, #285 ) ;
#27 = PRODUCT_DEFINITION_CONTEXT ( 'detailed design', #182, 'design' ) ;
#28 = AXIS2_PLACEMENT_3D ( 'NONE', #304, #95, #486 ) ;
#29 = LINE ( 'NONE', #140, #488 ) ;
#30 = CARTESIAN_POINT ( 'NONE',  ( 30.50000000000000711, 15.00000000000000000, -13.00000000000000178 ) ) ;
#31 = ORIENTED_EDGE ( 'NONE', *, *, #328, .T. ) ;
#32 = DIRECTION ( 'NONE',  ( 0.000000000000000000, 0.000000000000000000, -1.000000000000000000 ) ) ;
#33 = EDGE_CURVE ( 'NONE', #495, #261, #395, .T. ) ;
#34 = ORIENTED_EDGE ( 'NONE', *, *, #399, .T. ) ;
#35 = FACE_BOUND ( 'NONE', #161, .T. ) ;
#36 = ORIENTED_EDGE ( 'NONE', *, *, #542, .F. ) ;
#37 = CONICAL_SURFACE ( 'NONE', #252, 3.299999999999986944, 1.134464013796311344 ) ;
#38 = FACE_OUTER_BOUND ( 'NONE', #213, .T. ) ;
#39 = AXIS2_PLACEMENT_3D ( 'NONE', #194, #153, #275 ) ;
#40 = ORIENTED_EDGE ( 'NONE', *, *, #374, .F. ) ;
#41 = ADVANCED_FACE ( 'NONE', ( #8 ), #37, .F. ) ;
#42 = CARTESIAN_POINT ( 'NONE',  ( 30.50000000000000711, 2.000000000000000000, 15.00000000000000000 ) ) ;
#43 = VERTEX_POINT ( 'NONE', #443 ) ;
#44 = DIRECTION ( 'NONE',  ( -0.000000000000000000, -0.000000000000000000, 1.000000000000000000 ) ) ;
#45 = CIRCLE ( 'NONE', #88, 3.299999999999986944 ) ;
#46 = ORIENTED_EDGE ( 'NONE', *, *, #170, .F. ) ;
#47 = AXIS2_PLACEMENT_3D ( 'NONE', #329, #454, #63 ) ;
#48 = VECTOR ( 'NONE', #16, 1000.000000000000000 ) ;
#49 = LINE ( 'NONE', #214, #333 ) ;
#50 = LINE ( 'NONE', #94, #322 ) ;
#51 = DIRECTION ( 'NONE',  ( 1.334402673828313093E-16, -0.000000000000000000, 1.000000000000000000 ) ) ;
#52 = ORIENTED_EDGE ( 'NONE', *, *, #456, .F. ) ;
#53 = ADVANCED_FACE ( 'NONE', ( #4 ), #537, .F. ) ;
#54 = DIRECTION ( 'NONE',  ( 1.000000000000000000, 0.000000000000000000, 0.000000000000000000 ) ) ;
#55 = EDGE_LOOP ( 'NONE', ( #85, #378, #40, #133 ) ) ;
#56 = AXIS2_PLACEMENT_3D ( 'NONE', #152, #546, #232 ) ;
#57 = CARTESIAN_POINT ( 'NONE',  ( 0.000000000000000000, 15.00000000000000000, 0.000000000000000000 ) ) ;
#58 = ORIENTED_EDGE ( 'NONE', *, *, #411, .F. ) ;
#59 = CYLINDRICAL_SURFACE ( 'NONE', #406, 2.000000000000001776 ) ;
#60 = EDGE_CURVE ( 'NONE', #197, #138, #532, .T. ) ;
#61 = DIRECTION ( 'NONE',  ( -1.000000000000000000, 0.000000000000000000, 0.000000000000000000 ) ) ;
#62 = CARTESIAN_POINT ( 'NONE',  ( 32.50000000000000711, 13.00000000000000000, -15.00000000000000178 ) ) ;
#63 = DIRECTION ( 'NONE',  ( 0.000000000000000000, 0.000000000000000000, 1.000000000000000000 ) ) ;
#64 = FACE_OUTER_BOUND ( 'NONE', #376, .T. ) ;
#65 = AXIS2_PLACEMENT_3D ( 'NONE', #264, #359, #61 ) ;
#66 = DIRECTION ( 'NONE',  ( 0.000000000000000000, 0.000000000000000000, 1.000000000000000000 ) ) ;
#67 = DIRECTION ( 'NONE',  ( 0.000000000000000000, 0.000000000000000000, -1.000000000000000000 ) ) ;
#68 = CYLINDRICAL_SURFACE ( 'NONE', #489, 2.000000000000000000 ) ;
#69 = CARTESIAN_POINT ( 'NONE',  ( -2.081668171172167724E-15, 0.000000000000000000, -12.99999999999999645 ) ) ;
#70 = DIRECTION ( 'NONE',  ( -1.000000000000000000, 0.000000000000000000, 0.000000000000000000 ) ) ;
#71 = ORIENTED_EDGE ( 'NONE', *, *, #187, .T. ) ;
#72 = CIRCLE ( 'NONE', #386, 2.000000000000000000 ) ;
#73 = EDGE_CURVE ( 'NONE', #271, #281, #297, .T. ) ;
#74 = FACE_OUTER_BOUND ( 'NONE', #83, .T. ) ;
#75 = DIRECTION ( 'NONE',  ( 1.000000000000000000, 0.000000000000000000, 0.000000000000000000 ) ) ;
#76 = ORIENTED_EDGE ( 'NONE', *, *, #453, .T. ) ;
#77 =( LENGTH_UNIT ( ) NAMED_UNIT ( * ) SI_UNIT ( .MILLI., .METRE. ) );
#78 = DIRECTION ( 'NONE',  ( -0.000000000000000000, -1.000000000000000000, -0.000000000000000000 ) ) ;
#79 = AXIS2_PLACEMENT_3D ( 'NONE', #415, #226, #66 ) ;
#80 = ORIENTED_EDGE ( 'NONE', *, *, #60, .F. ) ;
#81 = VERTEX_POINT ( 'NONE', #338 ) ;
#82 = CYLINDRICAL_SURFACE ( 'NONE', #13, 2.000000000000000000 ) ;
#83 = EDGE_LOOP ( 'NONE', ( #477 ) ) ;
#84 = PLANE ( 'NONE',  #277 ) ;
#85 = ORIENTED_EDGE ( 'NONE', *, *, #135, .T. ) ;
#86 = EDGE_CURVE ( 'NONE', #128, #451, #493, .T. ) ;
#87 = DIRECTION ( 'NONE',  ( 0.000000000000000000, 1.000000000000000000, -0.000000000000000000 ) ) ;
#88 = AXIS2_PLACEMENT_3D ( 'NONE', #509, #316, #67 ) ;
#89 = ORIENTED_EDGE ( 'NONE', *, *, #73, .T. ) ;
#90 = CIRCLE ( 'NONE', #368, 3.299999999999986944 ) ;
#91 = EDGE_CURVE ( 'NONE', #421, #271, #50, .T. ) ;
#92 = DIRECTION ( 'NONE',  ( 0.000000000000000000, -0.000000000000000000, 1.000000000000000000 ) ) ;
#93 = CARTESIAN_POINT ( 'NONE',  ( -32.49999999999999289, 13.00000000000000000, 15.00000000000000888 ) ) ;
#94 = CARTESIAN_POINT ( 'NONE',  ( -30.49999999999999289, 0.000000000000000000, 0.000000000000000000 ) ) ;
#95 = DIRECTION ( 'NONE',  ( 1.334402673828313093E-16, -0.000000000000000000, 1.000000000000000000 ) ) ;
#96 = CIRCLE ( 'NONE', #191, 2.000000000000001776 ) ;
#97 = DIRECTION ( 'NONE',  ( 0.000000000000000000, 8.673617379884034486E-16, -1.000000000000000000 ) ) ;
#98 = AXIS2_PLACEMENT_3D ( 'NONE', #289, #483, #212 ) ;
#99 = DIRECTION ( 'NONE',  ( -0.000000000000000000, 1.000000000000000000, -0.000000000000000000 ) ) ;
#100 = CARTESIAN_POINT ( 'NONE',  ( -30.49999999999999289, 2.000000000000000000, -12.99999999999999112 ) ) ;
#101 = DIRECTION ( 'NONE',  ( -0.000000000000000000, -1.000000000000000000, -0.000000000000000000 ) ) ;
#102 = ORIENTED_EDGE ( 'NONE', *, *, #135, .F. ) ;
#103 = AXIS2_PLACEMENT_3D ( 'NONE', #143, #403, #458 ) ;
#104 = DIRECTION ( 'NONE',  ( -1.601283208593975760E-16, 0.000000000000000000, -1.000000000000000000 ) ) ;
#105 = ADVANCED_FACE ( 'NONE', ( #265, #388 ), #236, .F. ) ;
#106 = DIRECTION ( 'NONE',  ( 0.000000000000000000, 0.000000000000000000, -1.000000000000000000 ) ) ;
#107 = SPHERICAL_SURFACE ( 'NONE', #491, 2.000000000000000000 ) ;
#108 = DIRECTION ( 'NONE',  ( 1.334402673828313093E-16, -0.000000000000000000, 1.000000000000000000 ) ) ;
#109 = CIRCLE ( 'NONE', #430, 2.000000000000001776 ) ;
#110 = DIRECTION ( 'NONE',  ( 0.000000000000000000, 0.000000000000000000, -1.000000000000000000 ) ) ;
#111 = CARTESIAN_POINT ( 'NONE',  ( 32.50000000000000711, 15.00000000000000000, 15.00000000000000000 ) ) ;
#112 = DIRECTION ( 'NONE',  ( -0.000000000000000000, -1.000000000000000000, -0.000000000000000000 ) ) ;
#113 = ORIENTED_EDGE ( 'NONE', *, *, #33, .T. ) ;
#114 = PRODUCT_DEFINITION ( 'General', '', #280, #27 ) ;
#115 = AXIS2_PLACEMENT_3D ( 'NONE', #502, #276, #457 ) ;
#116 = CARTESIAN_POINT ( 'NONE',  ( 32.50000000000000711, 2.000000000000000000, -13.00000000000000178 ) ) ;
#117 = CIRCLE ( 'NONE', #28, 2.000000000000001776 ) ;
#118 = CARTESIAN_POINT ( 'NONE',  ( -30.49999999999999289, 2.000000000000000000, 15.00000000000000888 ) ) ;
#119 = ORIENTED_EDGE ( 'NONE', *, *, #357, .F. ) ;
#120 = ORIENTED_EDGE ( 'NONE', *, *, #566, .F. ) ;
#121 = VERTEX_POINT ( 'NONE', #554 ) ;
#122 = DIRECTION ( 'NONE',  ( 1.000000000000000000, -0.000000000000000000, -1.334402673828313093E-16 ) ) ;
#123 = VECTOR ( 'NONE', #25, 1000.000000000000000 ) ;
#124 = ORIENTED_EDGE ( 'NONE', *, *, #405, .T. ) ;
#125 = CARTESIAN_POINT ( 'NONE',  ( -32.49999999999999289, 2.000000000000000000, -12.99999999999999289 ) ) ;
#126 = ORIENTED_EDGE ( 'NONE', *, *, #516, .T. ) ;
#127 = LINE ( 'NONE', #536, #196 ) ;
#128 = VERTEX_POINT ( 'NONE', #510 ) ;
#129 = EDGE_CURVE ( 'NONE', #284, #284, #139, .T. ) ;
#130 = EDGE_LOOP ( 'NONE', ( #113, #295, #173 ) ) ;
#131 = SPHERICAL_SURFACE ( 'NONE', #141, 2.000000000000000000 ) ;
#132 = AXIS2_PLACEMENT_3D ( 'NONE', #243, #254, #475 ) ;
#133 = ORIENTED_EDGE ( 'NONE', *, *, #174, .F. ) ;
#134 = DIRECTION ( 'NONE',  ( 0.000000000000000000, 0.000000000000000000, -1.000000000000000000 ) ) ;
#135 = EDGE_CURVE ( 'NONE', #271, #128, #360, .T. ) ;
#136 = LINE ( 'NONE', #391, #308 ) ;
#137 = DIRECTION ( 'NONE',  ( 0.000000000000000000, 0.000000000000000000, -1.000000000000000000 ) ) ;
#138 = VERTEX_POINT ( 'NONE', #30 ) ;
#139 = CIRCLE ( 'NONE', #288, 3.299999999999990496 ) ;
#140 = CARTESIAN_POINT ( 'NONE',  ( -32.49999999999999289, 2.000000000000000000, 15.00000000000000888 ) ) ;
#141 = AXIS2_PLACEMENT_3D ( 'NONE', #355, #87, #266 ) ;
#142 = EDGE_LOOP ( 'NONE', ( #528, #507, #474, #148 ) ) ;
#143 = CARTESIAN_POINT ( 'NONE',  ( 30.50000000000000711, 15.00000000000000000, -13.00000000000000178 ) ) ;
#144 = FACE_OUTER_BOUND ( 'NONE', #303, .T. ) ;
#145 = ORIENTED_EDGE ( 'NONE', *, *, #397, .T. ) ;
#146 = ADVANCED_FACE ( 'NONE', ( #404 ), #419, .T. ) ;
#147 = DIRECTION ( 'NONE',  ( 1.000000000000000000, -0.000000000000000000, -1.334402673828313093E-16 ) ) ;
#148 = ORIENTED_EDGE ( 'NONE', *, *, #500, .F. ) ;
#149 = AXIS2_PLACEMENT_3D ( 'NONE', #100, #402, #540 ) ;
#150 = CARTESIAN_POINT ( 'NONE',  ( -30.49999999999999289, 13.00000000000000000, -12.99999999999999112 ) ) ;
#151 = AXIS2_PLACEMENT_3D ( 'NONE', #499, #448, #10 ) ;
#152 = CARTESIAN_POINT ( 'NONE',  ( -15.75000000000000000, 0.000000000000000000, 0.000000000000000000 ) ) ;
#153 = DIRECTION ( 'NONE',  ( -0.000000000000000000, 1.000000000000000000, 0.000000000000000000 ) ) ;
#154 = EDGE_CURVE ( 'NONE', #81, #81, #90, .T. ) ;
#155 =( NAMED_UNIT ( * ) SI_UNIT ( $, .STERADIAN. ) SOLID_ANGLE_UNIT ( ) );
#156 = APPLICATION_CONTEXT ( 'automotive_design' ) ;
#157 = MECHANICAL_DESIGN_GEOMETRIC_PRESENTATION_REPRESENTATION (  '', ( #250 ), #331 ) ;
#158 = DIRECTION ( 'NONE',  ( -0.000000000000000000, 0.000000000000000000, 1.000000000000000000 ) ) ;
#159 = ORIENTED_EDGE ( 'NONE', *, *, #2, .F. ) ;
#160 = DIRECTION ( 'NONE',  ( 0.000000000000000000, -0.000000000000000000, 1.000000000000000000 ) ) ;
#161 = EDGE_LOOP ( 'NONE', ( #413 ) ) ;
#162 = CARTESIAN_POINT ( 'NONE',  ( 0.000000000000000000, 0.000000000000000000, 0.000000000000000000 ) ) ;
#163 = ORIENTED_EDGE ( 'NONE', *, *, #549, .T. ) ;
#164 = DIRECTION ( 'NONE',  ( 0.000000000000000000, -1.000000000000000000, 0.000000000000000000 ) ) ;
#165 = CONICAL_SURFACE ( 'NONE', #529, 3.299999999999986944, 1.134464013796311344 ) ;
#166 = EDGE_LOOP ( 'NONE', ( #163, #58, #551, #337 ) ) ;
#167 = CIRCLE ( 'NONE', #469, 3.299999999999988720 ) ;
#168 = CYLINDRICAL_SURFACE ( 'NONE', #513, 2.000000000000001776 ) ;
#169 = EDGE_LOOP ( 'NONE', ( #102, #89, #311 ) ) ;
#170 = EDGE_CURVE ( 'NONE', #416, #299, #462, .T. ) ;
#171 = DIRECTION ( 'NONE',  ( -0.000000000000000000, -1.000000000000000000, 0.000000000000000000 ) ) ;
#172 = ORIENTED_EDGE ( 'NONE', *, *, #357, .T. ) ;
#173 = ORIENTED_EDGE ( 'NONE', *, *, #397, .F. ) ;
#174 = EDGE_CURVE ( 'NONE', #271, #261, #198, .T. ) ;
#175 = PLANE ( 'NONE',  #541 ) ;
#176 = DIRECTION ( 'NONE',  ( 0.000000000000000000, 0.000000000000000000, -1.000000000000000000 ) ) ;
#177 = CARTESIAN_POINT ( 'NONE',  ( -30.49999999999999289, 0.000000000000000000, 15.00000000000000888 ) ) ;
#178 = CARTESIAN_POINT ( 'NONE',  ( 30.50000000000000711, 15.00000000000000000, -15.00000000000000178 ) ) ;
#179 = LINE ( 'NONE', #3, #522 ) ;
#180 = VERTEX_POINT ( 'NONE', #467 ) ;
#181 = AXIS2_PLACEMENT_3D ( 'NONE', #564, #251, #523 ) ;
#182 = APPLICATION_CONTEXT ( 'automotive_design' ) ;
#183 = CARTESIAN_POINT ( 'NONE',  ( 32.50000000000000711, 13.00000000000000000, -13.00000000000000178 ) ) ;
#184 = VECTOR ( 'NONE', #171, 1000.000000000000000 ) ;
#185 = SURFACE_STYLE_USAGE ( .BOTH. , #283 ) ;
#186 = ORIENTED_EDGE ( 'NONE', *, *, #195, .T. ) ;
#187 = EDGE_CURVE ( 'NONE', #518, #138, #394, .T. ) ;
#188 = CIRCLE ( 'NONE', #354, 2.000000000000000000 ) ;
#189 = MANIFOLD_SOLID_BREP ( 'Fillet1', #15 ) ;
#190 = CARTESIAN_POINT ( 'NONE',  ( 15.75000000000000000, 0.000000000000000000, -5.786456125971243639E-15 ) ) ;
#191 = AXIS2_PLACEMENT_3D ( 'NONE', #306, #51, #531 ) ;
#192 = EDGE_LOOP ( 'NONE', ( #145, #309, #120, #568 ) ) ;
#193 = UNCERTAINTY_MEASURE_WITH_UNIT (LENGTH_MEASURE( 1.000000000000000082E-05 ), #459, 'distance_accuracy_value', 'NONE');
#194 = CARTESIAN_POINT ( 'NONE',  ( 30.50000000000000711, 13.00000000000000000, -13.00000000000000178 ) ) ;
#195 = EDGE_CURVE ( 'NONE', #451, #487, #569, .T. ) ;
#196 = VECTOR ( 'NONE', #220, 1000.000000000000000 ) ;
#197 = VERTEX_POINT ( 'NONE', #22 ) ;
#198 = LINE ( 'NONE', #69, #48 ) ;
#199 = VECTOR ( 'NONE', #545, 1000.000000000000000 ) ;
#200 = PLANE ( 'NONE',  #307 ) ;
#201 = VERTEX_POINT ( 'NONE', #373 ) ;
#202 = ADVANCED_FACE ( 'NONE', ( #544 ), #555, .F. ) ;
#203 = VECTOR ( 'NONE', #255, 1000.000000000000000 ) ;
#204 = DIRECTION ( 'NONE',  ( 0.000000000000000000, 0.000000000000000000, -1.000000000000000000 ) ) ;
#205 = CIRCLE ( 'NONE', #560, 2.000000000000000000 ) ;
#206 = EDGE_LOOP ( 'NONE', ( #256, #559, #363, #424 ) ) ;
#207 = CARTESIAN_POINT ( 'NONE',  ( 32.50000000000000711, 15.00000000000000000, 15.00000000000000000 ) ) ;
#208 = ORIENTED_EDGE ( 'NONE', *, *, #512, .T. ) ;
#209 = CARTESIAN_POINT ( 'NONE',  ( -30.49999999999999289, 15.00000000000000000, -12.99999999999999289 ) ) ;
#210 = ORIENTED_EDGE ( 'NONE', *, *, #291, .T. ) ;
#211 = ADVANCED_FACE ( 'NONE', ( #144 ), #319, .T. ) ;
#212 = DIRECTION ( 'NONE',  ( 0.000000000000000000, 0.000000000000000000, 1.000000000000000000 ) ) ;
#213 = EDGE_LOOP ( 'NONE', ( #46, #497, #565, #468, #172, #34, #242, #524 ) ) ;
#214 = CARTESIAN_POINT ( 'NONE',  ( 32.50000000000000711, 2.000000000000000000, 15.00000000000000000 ) ) ;
#215 = DIRECTION ( 'NONE',  ( -0.000000000000000000, -0.000000000000000000, -1.000000000000000000 ) ) ;
#216 = CARTESIAN_POINT ( 'NONE',  ( -15.75000000000000000, -1.151167991198509367E-15, 0.000000000000000000 ) ) ;
#217 = ORIENTED_EDGE ( 'NONE', *, *, #33, .F. ) ;
#218 = DIRECTION ( 'NONE',  ( 0.000000000000000000, 0.000000000000000000, -1.000000000000000000 ) ) ;
#219 = DIRECTION ( 'NONE',  ( -1.000000000000000000, 0.000000000000000000, 1.601283208593975514E-16 ) ) ;
#220 = DIRECTION ( 'NONE',  ( -0.000000000000000000, -1.000000000000000000, -0.000000000000000000 ) ) ;
#221 = DIRECTION ( 'NONE',  ( 1.000000000000000000, 0.000000000000000000, 0.000000000000000000 ) ) ;
#222 = EDGE_CURVE ( 'NONE', #261, #223, #435, .T. ) ;
#223 = VERTEX_POINT ( 'NONE', #377 ) ;
#224 = CYLINDRICAL_SURFACE ( 'NONE', #103, 2.000000000000000000 ) ;
#225 = ADVANCED_FACE ( 'NONE', ( #38 ), #84, .F. ) ;
#226 = DIRECTION ( 'NONE',  ( 1.000000000000000000, 0.000000000000000000, 0.000000000000000000 ) ) ;
#227 = CIRCLE ( 'NONE', #98, 2.000000000000000000 ) ;
#228 = CARTESIAN_POINT ( 'NONE',  ( -32.49999999999999289, 13.00000000000000000, -12.99999999999999289 ) ) ;
#229 =( NAMED_UNIT ( * ) PLANE_ANGLE_UNIT ( ) SI_UNIT ( $, .RADIAN. ) );
#230 = EDGE_LOOP ( 'NONE', ( #563, #325, #217, #423 ) ) ;
#231 = DIRECTION ( 'NONE',  ( 0.000000000000000000, 0.000000000000000000, 1.000000000000000000 ) ) ;
#232 = DIRECTION ( 'NONE',  ( 0.000000000000000000, 0.000000000000000000, -1.000000000000000000 ) ) ;
#233 = ORIENTED_EDGE ( 'NONE', *, *, #91, .T. ) ;
#234 = EDGE_CURVE ( 'NONE', #421, #223, #517, .T. ) ;
#235 = CARTESIAN_POINT ( 'NONE',  ( -2.081668171172167724E-15, 13.00000000000000000, -12.99999999999999645 ) ) ;
#236 = CYLINDRICAL_SURFACE ( 'NONE', #56, 3.299999999999987832 ) ;
#237 = ORIENTED_EDGE ( 'NONE', *, *, #425, .T. ) ;
#238 = UNCERTAINTY_MEASURE_WITH_UNIT (LENGTH_MEASURE( 1.000000000000000082E-05 ), #77, 'distance_accuracy_value', 'NONE');
#239 = CYLINDRICAL_SURFACE ( 'NONE', #365, 3.299999999999988720 ) ;
#240 = SURFACE_STYLE_FILL_AREA ( #550 ) ;
#241 = AXIS2_PLACEMENT_3D ( 'NONE', #496, #54, #352 ) ;
#242 = ORIENTED_EDGE ( 'NONE', *, *, #234, .T. ) ;
#243 = CARTESIAN_POINT ( 'NONE',  ( 0.000000000000000000, 0.000000000000000000, 0.000000000000000000 ) ) ;
#244 = CARTESIAN_POINT ( 'NONE',  ( 30.50000000000000711, 0.000000000000000000, 0.000000000000000000 ) ) ;
#245 = EDGE_LOOP ( 'NONE', ( #350 ) ) ;
#246 = FACE_OUTER_BOUND ( 'NONE', #169, .T. ) ;
#247 = ADVANCED_FACE ( 'NONE', ( #257 ), #422, .T. ) ;
#248 = EDGE_LOOP ( 'NONE', ( #571 ) ) ;
#249 = CARTESIAN_POINT ( 'NONE',  ( 15.75000000000000000, 9.999999999999994671, -3.299999999999992717 ) ) ;
#250 = STYLED_ITEM ( 'NONE', ( #362 ), #189 ) ;
#251 = DIRECTION ( 'NONE',  ( 1.334402673828313093E-16, -0.000000000000000000, 1.000000000000000000 ) ) ;
#252 = AXIS2_PLACEMENT_3D ( 'NONE', #312, #267, #176 ) ;
#253 = ORIENTED_EDGE ( 'NONE', *, *, #2, .T. ) ;
#254 = DIRECTION ( 'NONE',  ( 0.000000000000000000, 0.000000000000000000, 1.000000000000000000 ) ) ;
#255 = DIRECTION ( 'NONE',  ( -0.000000000000000000, -0.000000000000000000, 1.000000000000000000 ) ) ;
#256 = ORIENTED_EDGE ( 'NONE', *, *, #73, .F. ) ;
#257 = FACE_OUTER_BOUND ( 'NONE', #166, .T. ) ;
#258 = ORIENTED_EDGE ( 'NONE', *, *, #438, .T. ) ;
#259 = CARTESIAN_POINT ( 'NONE',  ( 30.50000000000000711, 2.000000000000000000, -13.00000000000000178 ) ) ;
#260 = PRESENTATION_LAYER_ASSIGNMENT (  '', '', ( #250 ) ) ;
#261 = VERTEX_POINT ( 'NONE', #380 ) ;
#262 = AXIS2_PLACEMENT_3D ( 'NONE', #349, #533, #134 ) ;
#263 = DIRECTION ( 'NONE',  ( 1.000000000000000000, -0.000000000000000000, 0.000000000000000000 ) ) ;
#264 = CARTESIAN_POINT ( 'NONE',  ( 30.50000000000000711, 2.000000000000000000, -13.00000000000000178 ) ) ;
#265 = FACE_OUTER_BOUND ( 'NONE', #556, .T. ) ;
#266 = DIRECTION ( 'NONE',  ( 0.000000000000000000, 0.000000000000000000, 1.000000000000000000 ) ) ;
#267 = DIRECTION ( 'NONE',  ( -0.000000000000000000, -1.000000000000000000, -0.000000000000000000 ) ) ;
#268 = AXIS2_PLACEMENT_3D ( 'NONE', #259, #99, #218 ) ;
#269 = PRODUCT_DEFINITION_SHAPE ( 'NONE', 'NONE',  #114 ) ;
#270 = DIRECTION ( 'NONE',  ( 0.000000000000000000, 0.000000000000000000, -1.000000000000000000 ) ) ;
#271 = VERTEX_POINT ( 'NONE', #343 ) ;
#272 = EDGE_CURVE ( 'NONE', #223, #299, #5, .T. ) ;
#273 = CARTESIAN_POINT ( 'NONE',  ( 32.50000000000000711, 2.000000000000000000, -13.00000000000000178 ) ) ;
#274 = FILL_AREA_STYLE_COLOUR ( '', #447 ) ;
#275 = DIRECTION ( 'NONE',  ( 0.000000000000000000, 0.000000000000000000, 1.000000000000000000 ) ) ;
#276 = DIRECTION ( 'NONE',  ( 0.000000000000000000, 0.000000000000000000, -1.000000000000000000 ) ) ;
#277 = AXIS2_PLACEMENT_3D ( 'NONE', #207, #519, #294 ) ;
#278 = DIRECTION ( 'NONE',  ( 0.000000000000000000, 0.000000000000000000, -1.000000000000000000 ) ) ;
#279 = CARTESIAN_POINT ( 'NONE',  ( 32.50000000000000711, 15.00000000000000000, 15.00000000000000000 ) ) ;
#280 = PRODUCT_DEFINITION_FORMATION_WITH_SPECIFIED_SOURCE ( 'Symmetric', '', #535, .NOT_KNOWN. ) ;
#281 = VERTEX_POINT ( 'NONE', #125 ) ;
#282 = DIRECTION ( 'NONE',  ( -1.000000000000000000, 0.000000000000000000, 0.000000000000000000 ) ) ;
#283 = SURFACE_SIDE_STYLE ('',( #240 ) ) ;
#284 = VERTEX_POINT ( 'NONE', #455 ) ;
#285 = DIRECTION ( 'NONE',  ( 0.000000000000000000, 0.000000000000000000, 1.000000000000000000 ) ) ;
#286 = ORIENTED_EDGE ( 'NONE', *, *, #174, .T. ) ;
#287 = ADVANCED_FACE ( 'NONE', ( #382 ), #82, .T. ) ;
#288 = AXIS2_PLACEMENT_3D ( 'NONE', #409, #112, #106 ) ;
#289 = CARTESIAN_POINT ( 'NONE',  ( -30.49999999999999289, 13.00000000000000000, -12.99999999999999112 ) ) ;
#290 = APPLICATION_PROTOCOL_DEFINITION ( 'draft international standard', 'automotive_design', 1998, #156 ) ;
#291 = EDGE_CURVE ( 'NONE', #201, #43, #567, .T. ) ;
#292 = CARTESIAN_POINT ( 'NONE',  ( -30.49999999999999289, 15.00000000000000000, 15.00000000000000888 ) ) ;
#293 = VERTEX_POINT ( 'NONE', #302 ) ;
#294 = DIRECTION ( 'NONE',  ( -1.000000000000000000, 0.000000000000000000, 1.334402673828313093E-16 ) ) ;
#295 = ORIENTED_EDGE ( 'NONE', *, *, #374, .T. ) ;
#296 = APPLICATION_PROTOCOL_DEFINITION ( 'draft international standard', 'automotive_design', 1998, #182 ) ;
#297 = CIRCLE ( 'NONE', #149, 2.000000000000001776 ) ;
#298 = LINE ( 'NONE', #427, #203 ) ;
#299 = VERTEX_POINT ( 'NONE', #471 ) ;
#300 = EDGE_CURVE ( 'NONE', #451, #201, #227, .T. ) ;
#301 = ADVANCED_FACE ( 'NONE', ( #341, #35, #476 ), #200, .F. ) ;
#302 = CARTESIAN_POINT ( 'NONE',  ( 30.50000000000000711, 13.00000000000000000, -15.00000000000000178 ) ) ;
#303 = EDGE_LOOP ( 'NONE', ( #36, #410, #159, #396 ) ) ;
#304 = CARTESIAN_POINT ( 'NONE',  ( -30.49999999999999289, 2.000000000000000000, 15.00000000000000888 ) ) ;
#305 = ORIENTED_EDGE ( 'NONE', *, *, #170, .T. ) ;
#306 = CARTESIAN_POINT ( 'NONE',  ( 30.50000000000000711, 13.00000000000000000, 15.00000000000000000 ) ) ;
#307 = AXIS2_PLACEMENT_3D ( 'NONE', #162, #332, #160 ) ;
#308 = VECTOR ( 'NONE', #219, 1000.000000000000000 ) ;
#309 = ORIENTED_EDGE ( 'NONE', *, *, #516, .F. ) ;
#310 = LINE ( 'NONE', #9, #184 ) ;
#311 = ORIENTED_EDGE ( 'NONE', *, *, #549, .F. ) ;
#312 = CARTESIAN_POINT ( 'NONE',  ( -15.75000000000000000, 9.999999999999994671, 0.000000000000000000 ) ) ;
#313 = DIRECTION ( 'NONE',  ( 0.000000000000000000, -0.000000000000000000, 1.000000000000000000 ) ) ;
#314 = DIRECTION ( 'NONE',  ( 0.000000000000000000, 0.000000000000000000, -1.000000000000000000 ) ) ;
#315 = ADVANCED_FACE ( 'NONE', ( #74 ), #165, .F. ) ;
#316 = DIRECTION ( 'NONE',  ( -0.000000000000000000, -1.000000000000000000, -0.000000000000000000 ) ) ;
#317 = CARTESIAN_POINT ( 'NONE',  ( -30.49999999999999289, 15.00000000000000000, -14.99999999999999112 ) ) ;
#318 = LINE ( 'NONE', #408, #335 ) ;
#319 = CYLINDRICAL_SURFACE ( 'NONE', #115, 2.000000000000001776 ) ;
#320 = FACE_OUTER_BOUND ( 'NONE', #192, .T. ) ;
#321 = CARTESIAN_POINT ( 'NONE',  ( -15.75000000000000000, 9.999999999999994671, 0.000000000000000000 ) ) ;
#322 = VECTOR ( 'NONE', #215, 1000.000000000000000 ) ;
#323 = DIRECTION ( 'NONE',  ( 1.000000000000000000, -0.000000000000000000, 0.000000000000000000 ) ) ;
#324 = DIRECTION ( 'NONE',  ( 0.000000000000000000, 1.000000000000000000, 0.000000000000000000 ) ) ;
#325 = ORIENTED_EDGE ( 'NONE', *, *, #222, .F. ) ;
#326 = FACE_OUTER_BOUND ( 'NONE', #248, .T. ) ;
#327 = ORIENTED_EDGE ( 'NONE', *, *, #370, .T. ) ;
#328 = EDGE_CURVE ( 'NONE', #518, #416, #298, .T. ) ;
#329 = CARTESIAN_POINT ( 'NONE',  ( 32.50000000000000711, 15.00000000000000000, 15.00000000000000000 ) ) ;
#330 = ADVANCED_FACE ( 'NONE', ( #431 ), #384, .T. ) ;
#331 =( GEOMETRIC_REPRESENTATION_CONTEXT ( 3 ) GLOBAL_UNCERTAINTY_ASSIGNED_CONTEXT ( ( #193 ) ) GLOBAL_UNIT_ASSIGNED_CONTEXT ( ( #459, #229, #155 ) ) REPRESENTATION_CONTEXT ( 'NONE', 'WORKASPACE' ) );
#332 = DIRECTION ( 'NONE',  ( 0.000000000000000000, 1.000000000000000000, 0.000000000000000000 ) ) ;
#333 = VECTOR ( 'NONE', #270, 1000.000000000000000 ) ;
#334 = EDGE_LOOP ( 'NONE', ( #342, #372, #126, #347 ) ) ;
#335 = VECTOR ( 'NONE', #358, 1000.000000000000000 ) ;
#336 = CARTESIAN_POINT ( 'NONE',  ( 32.50000000000000711, 0.000000000000000000, 15.00000000000000000 ) ) ;
#337 = ORIENTED_EDGE ( 'NONE', *, *, #86, .F. ) ;
#338 = CARTESIAN_POINT ( 'NONE',  ( -15.75000000000000000, 9.999999999999994671, -3.299999999999986944 ) ) ;
#339 = ORIENTED_EDGE ( 'NONE', *, *, #154, .F. ) ;
#340 = VECTOR ( 'NONE', #44, 1000.000000000000000 ) ;
#341 = FACE_BOUND ( 'NONE', #520, .T. ) ;
#342 = ORIENTED_EDGE ( 'NONE', *, *, #86, .T. ) ;
#343 = CARTESIAN_POINT ( 'NONE',  ( -30.49999999999999289, 0.000000000000000000, -12.99999999999999112 ) ) ;
#344 = ORIENTED_EDGE ( 'NONE', *, *, #411, .T. ) ;
#345 = ADVANCED_FACE ( 'NONE', ( #570 ), #168, .T. ) ;
#346 = SPHERICAL_SURFACE ( 'NONE', #262, 2.000000000000000000 ) ;
#347 = ORIENTED_EDGE ( 'NONE', *, *, #12, .T. ) ;
#348 = ADVANCED_FACE ( 'NONE', ( #246 ), #131, .T. ) ;
#349 = CARTESIAN_POINT ( 'NONE',  ( 30.50000000000000711, 2.000000000000000000, -13.00000000000000178 ) ) ;
#350 = ORIENTED_EDGE ( 'NONE', *, *, #481, .F. ) ;
#351 = ADVANCED_BREP_SHAPE_REPRESENTATION ( 'Part6', ( #189, #132 ), #379 ) ;
#352 = DIRECTION ( 'NONE',  ( 0.000000000000000000, 0.000000000000000000, -1.000000000000000000 ) ) ;
#353 = EDGE_LOOP ( 'NONE', ( #20, #31, #305, #237 ) ) ;
#354 = AXIS2_PLACEMENT_3D ( 'NONE', #501, #418, #543 ) ;
#355 = CARTESIAN_POINT ( 'NONE',  ( -30.49999999999999289, 2.000000000000000000, -12.99999999999999112 ) ) ;
#356 = EDGE_LOOP ( 'NONE', ( #385 ) ) ;
#357 = EDGE_CURVE ( 'NONE', #460, #180, #127, .T. ) ;
#358 = DIRECTION ( 'NONE',  ( -0.000000000000000000, 1.000000000000000000, -0.000000000000000000 ) ) ;
#359 = DIRECTION ( 'NONE',  ( 0.000000000000000000, 0.000000000000000000, -1.000000000000000000 ) ) ;
#360 = CIRCLE ( 'NONE', #79, 2.000000000000000000 ) ;
#361 = DIRECTION ( 'NONE',  ( 0.000000000000000000, 1.000000000000000000, -0.000000000000000000 ) ) ;
#362 = PRESENTATION_STYLE_ASSIGNMENT (( #185 ) ) ;
#363 = ORIENTED_EDGE ( 'NONE', *, *, #399, .F. ) ;
#364 = PLANE ( 'NONE',  #538 ) ;
#365 = AXIS2_PLACEMENT_3D ( 'NONE', #190, #101, #278 ) ;
#366 = DIRECTION ( 'NONE',  ( 0.000000000000000000, -1.000000000000000000, 0.000000000000000000 ) ) ;
#367 = DIRECTION ( 'NONE',  ( -0.000000000000000000, -1.000000000000000000, -0.000000000000000000 ) ) ;
#368 = AXIS2_PLACEMENT_3D ( 'NONE', #321, #367, #110 ) ;
#369 = FACE_OUTER_BOUND ( 'NONE', #245, .T. ) ;
#370 = EDGE_CURVE ( 'NONE', #121, #121, #167, .T. ) ;
#371 = CARTESIAN_POINT ( 'NONE',  ( 30.50000000000000711, 13.00000000000000000, -13.00000000000000178 ) ) ;
#372 = ORIENTED_EDGE ( 'NONE', *, *, #500, .T. ) ;
#373 = CARTESIAN_POINT ( 'NONE',  ( -30.49999999999999289, 15.00000000000000000, -12.99999999999999112 ) ) ;
#374 = EDGE_CURVE ( 'NONE', #261, #381, #441, .T. ) ;
#375 = DIRECTION ( 'NONE',  ( -1.000000000000000000, 0.000000000000000000, 0.000000000000000000 ) ) ;
#376 = EDGE_LOOP ( 'NONE', ( #119, #258, #344, #383 ) ) ;
#377 = CARTESIAN_POINT ( 'NONE',  ( 30.50000000000000711, 0.000000000000000000, 15.00000000000000000 ) ) ;
#378 = ORIENTED_EDGE ( 'NONE', *, *, #12, .F. ) ;
#379 =( GEOMETRIC_REPRESENTATION_CONTEXT ( 3 ) GLOBAL_UNCERTAINTY_ASSIGNED_CONTEXT ( ( #238 ) ) GLOBAL_UNIT_ASSIGNED_CONTEXT ( ( #77, #433, #470 ) ) REPRESENTATION_CONTEXT ( 'NONE', 'WORKASPACE' ) );
#380 = CARTESIAN_POINT ( 'NONE',  ( 30.50000000000000711, 0.000000000000000000, -13.00000000000000178 ) ) ;
#381 = VERTEX_POINT ( 'NONE', #494 ) ;
#382 = FACE_OUTER_BOUND ( 'NONE', #55, .T. ) ;
#383 = ORIENTED_EDGE ( 'NONE', *, *, #465, .T. ) ;
#384 = CYLINDRICAL_SURFACE ( 'NONE', #426, 2.000000000000001776 ) ;
#385 = ORIENTED_EDGE ( 'NONE', *, *, #154, .T. ) ;
#386 = AXIS2_PLACEMENT_3D ( 'NONE', #390, #263, #446 ) ;
#387 = CARTESIAN_POINT ( 'NONE',  ( -30.49999999999999289, 13.00000000000000000, -14.99999999999999112 ) ) ;
#388 = FACE_OUTER_BOUND ( 'NONE', #23, .T. ) ;
#389 = ADVANCED_FACE ( 'NONE', ( #398 ), #175, .T. ) ;
#390 = CARTESIAN_POINT ( 'NONE',  ( 30.50000000000000711, 13.00000000000000000, -13.00000000000000178 ) ) ;
#391 = CARTESIAN_POINT ( 'NONE',  ( 32.50000000000000711, 2.000000000000000000, -15.00000000000000178 ) ) ;
#392 = PRODUCT_RELATED_PRODUCT_CATEGORY ( 'part', '', ( #535 ) ) ;
#393 = FACE_OUTER_BOUND ( 'NONE', #130, .T. ) ;
#394 = CIRCLE ( 'NONE', #505, 2.000000000000001776 ) ;
#395 = CIRCLE ( 'NONE', #65, 2.000000000000001776 ) ;
#396 = ORIENTED_EDGE ( 'NONE', *, *, #438, .F. ) ;
#397 = EDGE_CURVE ( 'NONE', #495, #381, #449, .T. ) ;
#398 = FACE_OUTER_BOUND ( 'NONE', #432, .T. ) ;
#399 = EDGE_CURVE ( 'NONE', #180, #421, #117, .T. ) ;
#400 = DIRECTION ( 'NONE',  ( 0.000000000000000000, 1.000000000000000000, 8.673617379884035472E-16 ) ) ;
#401 = CARTESIAN_POINT ( 'NONE',  ( -32.49999999999999289, 13.00000000000000000, -14.99999999999999112 ) ) ;
#402 = DIRECTION ( 'NONE',  ( 8.673617379884026597E-16, 0.000000000000000000, -1.000000000000000000 ) ) ;
#403 = DIRECTION ( 'NONE',  ( 0.000000000000000000, -1.000000000000000000, 0.000000000000000000 ) ) ;
#404 = FACE_OUTER_BOUND ( 'NONE', #428, .T. ) ;
#405 = EDGE_CURVE ( 'NONE', #293, #138, #72, .T. ) ;
#406 = AXIS2_PLACEMENT_3D ( 'NONE', #442, #92, #221 ) ;
#407 = VECTOR ( 'NONE', #11, 1000.000000000000000 ) ;
#408 = CARTESIAN_POINT ( 'NONE',  ( 32.50000000000000711, 15.00000000000000000, -13.00000000000000178 ) ) ;
#409 = CARTESIAN_POINT ( 'NONE',  ( 15.75000000000000000, -1.151167991198509367E-15, -5.786456125971243639E-15 ) ) ;
#410 = ORIENTED_EDGE ( 'NONE', *, *, #291, .F. ) ;
#411 = EDGE_CURVE ( 'NONE', #487, #281, #310, .T. ) ;
#412 = CARTESIAN_POINT ( 'NONE',  ( -30.49999999999999289, 13.00000000000000000, -12.99999999999999112 ) ) ;
#413 = ORIENTED_EDGE ( 'NONE', *, *, #129, .F. ) ;
#414 = LINE ( 'NONE', #111, #452 ) ;
#415 = CARTESIAN_POINT ( 'NONE',  ( -30.49999999999999289, 2.000000000000000000, -12.99999999999999112 ) ) ;
#416 = VERTEX_POINT ( 'NONE', #439 ) ;
#417 = AXIS2_PLACEMENT_3D ( 'NONE', #209, #164, #558 ) ;
#418 = DIRECTION ( 'NONE',  ( 0.000000000000000000, 1.000000000000000000, 0.000000000000000000 ) ) ;
#419 = SPHERICAL_SURFACE ( 'NONE', #478, 2.000000000000000000 ) ;
#420 = ADVANCED_FACE ( 'NONE', ( #393 ), #346, .T. ) ;
#421 = VERTEX_POINT ( 'NONE', #177 ) ;
#422 = CYLINDRICAL_SURFACE ( 'NONE', #417, 2.000000000000000000 ) ;
#423 = ORIENTED_EDGE ( 'NONE', *, *, #425, .F. ) ;
#424 = ORIENTED_EDGE ( 'NONE', *, *, #465, .F. ) ;
#425 = EDGE_CURVE ( 'NONE', #299, #495, #49, .T. ) ;
#426 = AXIS2_PLACEMENT_3D ( 'NONE', #42, #32, #375 ) ;
#427 = CARTESIAN_POINT ( 'NONE',  ( 32.50000000000000711, 13.00000000000000000, 15.00000000000000000 ) ) ;
#428 = EDGE_LOOP ( 'NONE', ( #534, #124, #484 ) ) ;
#429 = CIRCLE ( 'NONE', #39, 2.000000000000000000 ) ;
#430 = AXIS2_PLACEMENT_3D ( 'NONE', #548, #108, #282 ) ;
#431 = FACE_OUTER_BOUND ( 'NONE', #230, .T. ) ;
#432 = EDGE_LOOP ( 'NONE', ( #208, #503, #76, #210 ) ) ;
#433 =( NAMED_UNIT ( * ) PLANE_ANGLE_UNIT ( ) SI_UNIT ( $, .RADIAN. ) );
#434 = ADVANCED_FACE ( 'NONE', ( #450 ), #59, .T. ) ;
#435 = LINE ( 'NONE', #244, #340 ) ;
#436 = EDGE_LOOP ( 'NONE', ( #186, #253, #463 ) ) ;
#437 = VECTOR ( 'NONE', #122, 1000.000000000000000 ) ;
#438 = EDGE_CURVE ( 'NONE', #460, #487, #492, .T. ) ;
#439 = CARTESIAN_POINT ( 'NONE',  ( 32.50000000000000711, 13.00000000000000000, 15.00000000000000000 ) ) ;
#440 = DIRECTION ( 'NONE',  ( -0.000000000000000000, 1.000000000000000000, -0.000000000000000000 ) ) ;
#441 = CIRCLE ( 'NONE', #241, 2.000000000000000000 ) ;
#442 = CARTESIAN_POINT ( 'NONE',  ( 30.50000000000000711, 13.00000000000000000, 0.000000000000000000 ) ) ;
#443 = CARTESIAN_POINT ( 'NONE',  ( -30.49999999999999289, 15.00000000000000000, 15.00000000000000888 ) ) ;
#444 = DIRECTION ( 'NONE',  ( -0.000000000000000000, -1.000000000000000000, -0.000000000000000000 ) ) ;
#445 = CARTESIAN_POINT ( 'NONE',  ( -30.49999999999999289, 13.00000000000000000, -12.99999999999999289 ) ) ;
#446 = DIRECTION ( 'NONE',  ( 0.000000000000000000, 0.000000000000000000, -1.000000000000000000 ) ) ;
#447 = COLOUR_RGB ( '',0.7921568627450980005, 0.8196078431372548767, 0.9333333333333333481 ) ;
#448 = DIRECTION ( 'NONE',  ( 1.601283208593975514E-16, -0.000000000000000000, 1.000000000000000000 ) ) ;
#449 = CIRCLE ( 'NONE', #268, 2.000000000000000000 ) ;
#450 = FACE_OUTER_BOUND ( 'NONE', #1, .T. ) ;
#451 = VERTEX_POINT ( 'NONE', #387 ) ;
#452 = VECTOR ( 'NONE', #147, 1000.000000000000000 ) ;
#453 = EDGE_CURVE ( 'NONE', #138, #201, #179, .T. ) ;
#454 = DIRECTION ( 'NONE',  ( -1.000000000000000000, 0.000000000000000000, 0.000000000000000000 ) ) ;
#455 = CARTESIAN_POINT ( 'NONE',  ( 15.75000000000000000, -1.151167991198509367E-15, -3.299999999999996270 ) ) ;
#456 = EDGE_CURVE ( 'NONE', #416, #197, #96, .T. ) ;
#457 = DIRECTION ( 'NONE',  ( -1.000000000000000000, 0.000000000000000000, 0.000000000000000000 ) ) ;
#458 = DIRECTION ( 'NONE',  ( 0.000000000000000000, 0.000000000000000000, -1.000000000000000000 ) ) ;
#459 =( LENGTH_UNIT ( ) NAMED_UNIT ( * ) SI_UNIT ( .MILLI., .METRE. ) );
#460 = VERTEX_POINT ( 'NONE', #93 ) ;
#461 = FACE_OUTER_BOUND ( 'NONE', #142, .T. ) ;
#462 = LINE ( 'NONE', #279, #123 ) ;
#463 = ORIENTED_EDGE ( 'NONE', *, *, #300, .F. ) ;
#464 = ADVANCED_FACE ( 'NONE', ( #64 ), #364, .F. ) ;
#465 = EDGE_CURVE ( 'NONE', #281, #180, #29, .T. ) ;
#466 = LINE ( 'NONE', #62, #199 ) ;
#467 = CARTESIAN_POINT ( 'NONE',  ( -32.49999999999999289, 2.000000000000000000, 15.00000000000000888 ) ) ;
#468 = ORIENTED_EDGE ( 'NONE', *, *, #542, .T. ) ;
#469 = AXIS2_PLACEMENT_3D ( 'NONE', #216, #444, #137 ) ;
#470 =( NAMED_UNIT ( * ) SI_UNIT ( $, .STERADIAN. ) SOLID_ANGLE_UNIT ( ) );
#471 = CARTESIAN_POINT ( 'NONE',  ( 32.50000000000000711, 2.000000000000000000, 15.00000000000000000 ) ) ;
#472 = VERTEX_POINT ( 'NONE', #249 ) ;
#473 = DIRECTION ( 'NONE',  ( -0.000000000000000000, 0.000000000000000000, 1.000000000000000000 ) ) ;
#474 = ORIENTED_EDGE ( 'NONE', *, *, #405, .F. ) ;
#475 = DIRECTION ( 'NONE',  ( 1.000000000000000000, 0.000000000000000000, 0.000000000000000000 ) ) ;
#476 = FACE_OUTER_BOUND ( 'NONE', #490, .T. ) ;
#477 = ORIENTED_EDGE ( 'NONE', *, *, #481, .T. ) ;
#478 = AXIS2_PLACEMENT_3D ( 'NONE', #553, #324, #506 ) ;
#479 = DIRECTION ( 'NONE',  ( 0.000000000000000000, 0.000000000000000000, 1.000000000000000000 ) ) ;
#480 = ORIENTED_EDGE ( 'NONE', *, *, #222, .T. ) ;
#481 = EDGE_CURVE ( 'NONE', #472, #472, #45, .T. ) ;
#482 = SHAPE_DEFINITION_REPRESENTATION ( #269, #351 ) ;
#483 = DIRECTION ( 'NONE',  ( 1.000000000000000000, -0.000000000000000000, -0.000000000000000000 ) ) ;
#484 = ORIENTED_EDGE ( 'NONE', *, *, #187, .F. ) ;
#485 = ADVANCED_FACE ( 'NONE', ( #369, #326 ), #239, .F. ) ;
#486 = DIRECTION ( 'NONE',  ( -1.000000000000000000, 0.000000000000000000, 0.000000000000000000 ) ) ;
#487 = VERTEX_POINT ( 'NONE', #228 ) ;
#488 = VECTOR ( 'NONE', #17, 1000.000000000000000 ) ;
#489 = AXIS2_PLACEMENT_3D ( 'NONE', #235, #24, #104 ) ;
#490 = EDGE_LOOP ( 'NONE', ( #286, #480, #515, #233 ) ) ;
#491 = AXIS2_PLACEMENT_3D ( 'NONE', #150, #361, #231 ) ;
#492 = LINE ( 'NONE', #401, #407 ) ;
#493 = LINE ( 'NONE', #317, #521 ) ;
#494 = CARTESIAN_POINT ( 'NONE',  ( 30.50000000000000711, 2.000000000000000000, -15.00000000000000178 ) ) ;
#495 = VERTEX_POINT ( 'NONE', #273 ) ;
#496 = CARTESIAN_POINT ( 'NONE',  ( 30.50000000000000711, 2.000000000000000000, -13.00000000000000178 ) ) ;
#497 = ORIENTED_EDGE ( 'NONE', *, *, #456, .T. ) ;
#498 = DIRECTION ( 'NONE',  ( 0.000000000000000000, 0.000000000000000000, -1.000000000000000000 ) ) ;
#499 = CARTESIAN_POINT ( 'NONE',  ( 32.50000000000000711, 15.00000000000000000, -15.00000000000000178 ) ) ;
#500 = EDGE_CURVE ( 'NONE', #451, #293, #466, .T. ) ;
#501 = CARTESIAN_POINT ( 'NONE',  ( -30.49999999999999289, 2.000000000000000000, -12.99999999999999289 ) ) ;
#502 = CARTESIAN_POINT ( 'NONE',  ( -30.49999999999999289, 13.00000000000000000, 0.000000000000000000 ) ) ;
#503 = ORIENTED_EDGE ( 'NONE', *, *, #60, .T. ) ;
#504 = DIRECTION ( 'NONE',  ( 0.000000000000000000, 1.000000000000000000, 0.000000000000000000 ) ) ;
#505 = AXIS2_PLACEMENT_3D ( 'NONE', #371, #19, #70 ) ;
#506 = DIRECTION ( 'NONE',  ( -1.000000000000000000, 0.000000000000000000, 0.000000000000000000 ) ) ;
#507 = ORIENTED_EDGE ( 'NONE', *, *, #453, .F. ) ;
#508 = ADVANCED_FACE ( 'NONE', ( #320 ), #224, .T. ) ;
#509 = CARTESIAN_POINT ( 'NONE',  ( 15.75000000000000000, 9.999999999999994671, -5.786456125971243639E-15 ) ) ;
#510 = CARTESIAN_POINT ( 'NONE',  ( -30.49999999999999289, 2.000000000000000000, -14.99999999999999112 ) ) ;
#511 = VECTOR ( 'NONE', #158, 1000.000000000000000 ) ;
#512 = EDGE_CURVE ( 'NONE', #43, #197, #414, .T. ) ;
#513 = AXIS2_PLACEMENT_3D ( 'NONE', #118, #473, #75 ) ;
#514 = CARTESIAN_POINT ( 'NONE',  ( 15.75000000000000000, 9.999999999999994671, -5.786456125971243639E-15 ) ) ;
#515 = ORIENTED_EDGE ( 'NONE', *, *, #234, .F. ) ;
#516 = EDGE_CURVE ( 'NONE', #293, #381, #552, .T. ) ;
#517 = LINE ( 'NONE', #336, #437 ) ;
#518 = VERTEX_POINT ( 'NONE', #183 ) ;
#519 = DIRECTION ( 'NONE',  ( -1.334402673828313093E-16, 0.000000000000000000, -1.000000000000000000 ) ) ;
#520 = EDGE_LOOP ( 'NONE', ( #547 ) ) ;
#521 = VECTOR ( 'NONE', #440, 1000.000000000000000 ) ;
#522 = VECTOR ( 'NONE', #526, 1000.000000000000000 ) ;
#523 = DIRECTION ( 'NONE',  ( -1.000000000000000000, 0.000000000000000000, 0.000000000000000000 ) ) ;
#524 = ORIENTED_EDGE ( 'NONE', *, *, #272, .T. ) ;
#525 = EDGE_CURVE ( 'NONE', #495, #518, #318, .T. ) ;
#526 = DIRECTION ( 'NONE',  ( -1.000000000000000000, 0.000000000000000000, 1.601283208593975514E-16 ) ) ;
#527 = ORIENTED_EDGE ( 'NONE', *, *, #328, .F. ) ;
#528 = ORIENTED_EDGE ( 'NONE', *, *, #300, .T. ) ;
#529 = AXIS2_PLACEMENT_3D ( 'NONE', #514, #78, #204 ) ;
#530 = ADVANCED_FACE ( 'NONE', ( #14 ), #107, .T. ) ;
#531 = DIRECTION ( 'NONE',  ( -1.000000000000000000, 0.000000000000000000, 0.000000000000000000 ) ) ;
#532 = LINE ( 'NONE', #178, #6 ) ;
#533 = DIRECTION ( 'NONE',  ( 1.000000000000000000, 0.000000000000000000, 0.000000000000000000 ) ) ;
#534 = ORIENTED_EDGE ( 'NONE', *, *, #566, .T. ) ;
#535 = PRODUCT ( 'Part6', 'Part6', '', ( #557 ) ) ;
#536 = CARTESIAN_POINT ( 'NONE',  ( -32.49999999999999289, 15.00000000000000000, 15.00000000000000888 ) ) ;
#537 = PLANE ( 'NONE',  #151 ) ;
#538 = AXIS2_PLACEMENT_3D ( 'NONE', #21, #323, #498 ) ;
#539 = CARTESIAN_POINT ( 'NONE',  ( 30.50000000000000711, 15.00000000000000000, -15.00000000000000178 ) ) ;
#540 = DIRECTION ( 'NONE',  ( -1.000000000000000000, 0.000000000000000000, -8.673617379884027583E-16 ) ) ;
#541 = AXIS2_PLACEMENT_3D ( 'NONE', #57, #7, #313 ) ;
#542 = EDGE_CURVE ( 'NONE', #43, #460, #109, .T. ) ;
#543 = DIRECTION ( 'NONE',  ( 0.000000000000000000, 0.000000000000000000, -1.000000000000000000 ) ) ;
#544 = FACE_OUTER_BOUND ( 'NONE', #353, .T. ) ;
#545 = DIRECTION ( 'NONE',  ( 1.000000000000000000, -0.000000000000000000, -1.601283208593975514E-16 ) ) ;
#546 = DIRECTION ( 'NONE',  ( -0.000000000000000000, -1.000000000000000000, -0.000000000000000000 ) ) ;
#547 = ORIENTED_EDGE ( 'NONE', *, *, #370, .F. ) ;
#548 = CARTESIAN_POINT ( 'NONE',  ( -30.49999999999999289, 13.00000000000000000, 15.00000000000000888 ) ) ;
#549 = EDGE_CURVE ( 'NONE', #128, #281, #188, .T. ) ;
#550 = FILL_AREA_STYLE ('',( #274 ) ) ;
#551 = ORIENTED_EDGE ( 'NONE', *, *, #195, .F. ) ;
#552 = LINE ( 'NONE', #539, #18 ) ;
#553 = CARTESIAN_POINT ( 'NONE',  ( 30.50000000000000711, 13.00000000000000000, -13.00000000000000178 ) ) ;
#554 = CARTESIAN_POINT ( 'NONE',  ( -15.75000000000000000, -1.151167991198509367E-15, -3.299999999999988720 ) ) ;
#555 = PLANE ( 'NONE',  #47 ) ;
#556 = EDGE_LOOP ( 'NONE', ( #339 ) ) ;
#557 = PRODUCT_CONTEXT ( 'NONE', #156, 'mechanical' ) ;
#558 = DIRECTION ( 'NONE',  ( 0.000000000000000000, 0.000000000000000000, -1.000000000000000000 ) ) ;
#559 = ORIENTED_EDGE ( 'NONE', *, *, #91, .F. ) ;
#560 = AXIS2_PLACEMENT_3D ( 'NONE', #445, #97, #400 ) ;
#561 = ADVANCED_FACE ( 'NONE', ( #461 ), #68, .T. ) ;
#562 = DIRECTION ( 'NONE',  ( -1.000000000000000000, 0.000000000000000000, 1.601283208593975514E-16 ) ) ;
#563 = ORIENTED_EDGE ( 'NONE', *, *, #272, .F. ) ;
#564 = CARTESIAN_POINT ( 'NONE',  ( 30.50000000000000711, 2.000000000000000000, 15.00000000000000000 ) ) ;
#565 = ORIENTED_EDGE ( 'NONE', *, *, #512, .F. ) ;
#566 = EDGE_CURVE ( 'NONE', #518, #293, #429, .T. ) ;
#567 = LINE ( 'NONE', #292, #511 ) ;
#568 = ORIENTED_EDGE ( 'NONE', *, *, #525, .F. ) ;
#569 = CIRCLE ( 'NONE', #26, 2.000000000000000000 ) ;
#570 = FACE_OUTER_BOUND ( 'NONE', #206, .T. ) ;
#571 = ORIENTED_EDGE ( 'NONE', *, *, #129, .T. ) ;
ENDSEC;
END-ISO-10303-21;
