ISO-10303-21;
HEADER;
FILE_DESCRIPTION (( 'STEP AP214' ),
    '1' );
FILE_NAME ('Part3.STEP',
    '2025-08-01T14:11:49',
    ( '' ),
    ( '' ),
    'SwSTEP 2.0',
    'SolidWorks 2025',
    '' );
FILE_SCHEMA (( 'AUTOMOTIVE_DESIGN' ));
ENDSEC;

DATA;
#1 = PRODUCT_CONTEXT ( 'NONE', #132, 'mechanical' ) ;
#2 = SURFACE_STYLE_FILL_AREA ( #179 ) ;
#3 = PRODUCT_DEFINITION_FORMATION_WITH_SPECIFIED_SOURCE ( 'Symmetric', '', #233, .NOT_KNOWN. ) ;
#4 = CARTESIAN_POINT ( 'NONE',  ( 0.000000000000000000, 0.000000000000000000, 0.000000000000000000 ) ) ;
#5 = ORIENTED_EDGE ( 'NONE', *, *, #182, .F. ) ;
#6 = EDGE_LOOP ( 'NONE', ( #156 ) ) ;
#7 = FACE_BOUND ( 'NONE', #39, .T. ) ;
#8 = CARTESIAN_POINT ( 'NONE',  ( -2.691737000726088068E-15, 23.00000000000000711, 0.000000000000000000 ) ) ;
#9 = AXIS2_PLACEMENT_3D ( 'NONE', #4, #120, #82 ) ;
#10 = CARTESIAN_POINT ( 'NONE',  ( 3.959993188885420512, 23.00000000000000711, 7.919986377770846353 ) ) ;
#11 = EDGE_CURVE ( 'NONE', #41, #41, #113, .T. ) ;
#12 = CARTESIAN_POINT ( 'NONE',  ( -2.691737000726088463E-15, 23.00000000000000711, 0.000000000000000000 ) ) ;
#13 = CARTESIAN_POINT ( 'NONE',  ( 3.766868868902072176, 13.42862574573468137, 7.533737737804147017 ) ) ;
#14 = CIRCLE ( 'NONE', #129, 2.499999999999999556 ) ;
#15 = CARTESIAN_POINT ( 'NONE',  ( -4.506918824502892384, 15.65155805616359075, -9.013837649005782993 ) ) ;
#16 = COLOUR_RGB ( '',0.7921568627450980005, 0.8196078431372548767, 0.9333333333333333481 ) ;
#17 = CARTESIAN_POINT ( 'NONE',  ( -4.291539148997516762, 15.27687595929409348, -8.583078297995028194 ) ) ;
#18 = CARTESIAN_POINT ( 'NONE',  ( -3.846507457104206384, 14.06804157362660845, 0.000000000000000000 ) ) ;
#19 = CARTESIAN_POINT ( 'NONE',  ( 4.506918824502888832, 15.65155805616359075, 0.000000000000000000 ) ) ;
#20 = CARTESIAN_POINT ( 'NONE',  ( -3.750000000000003109, 11.40476285111582655, 0.000000000000000000 ) ) ;
#21 = CARTESIAN_POINT ( 'NONE',  ( -3.750000000000002220, 11.40476285111582655, 7.500000000000002665 ) ) ;
#22 = VERTEX_POINT ( 'NONE', #194 ) ;
#23 =( NAMED_UNIT ( * ) SI_UNIT ( $, .STERADIAN. ) SOLID_ANGLE_UNIT ( ) );
#24 = FACE_OUTER_BOUND ( 'NONE', #83, .T. ) ;
#25 = CONICAL_SURFACE ( 'NONE', #176, 3.750000000000000444, 0.7853981633974536081 ) ;
#26 = CARTESIAN_POINT ( 'NONE',  ( -2.500000000000000444, 7.500000000000000000, 0.000000000000000000 ) ) ;
#27 = CARTESIAN_POINT ( 'NONE',  ( -3.959993188885425397, 23.00000000000000711, -7.919986377770846353 ) ) ;
#28 = CARTESIAN_POINT ( 'NONE',  ( -4.626398208731481887, 15.91306687927111874, 9.252796417462960221 ) ) ;
#29 = DIRECTION ( 'NONE',  ( 1.170320435098298946E-16, -1.000000000000000000, 0.000000000000000000 ) ) ;
#30 = DIRECTION ( 'NONE',  ( 1.000000000000000000, 1.170320435098298946E-16, 0.000000000000000000 ) ) ;
#31 = PRODUCT_DEFINITION ( 'General', '', #3, #75 ) ;
#32 = CARTESIAN_POINT ( 'NONE',  ( -3.955954939372949397, 14.48394200624782968, -7.911909878745895242 ) ) ;
#33 = AXIS2_PLACEMENT_3D ( 'NONE', #26, #29, #30 ) ;
#34 = CARTESIAN_POINT ( 'NONE',  ( 3.766868868902072176, 13.42862574573468137, -7.533737737804147017 ) ) ;
#35 = CARTESIAN_POINT ( 'NONE',  ( 4.117860790660607506, 14.88236190603736731, -8.235721581321218565 ) ) ;
#36 = CARTESIAN_POINT ( 'NONE',  ( 4.291539148997513209, 15.27687595929409525, 0.000000000000000000 ) ) ;
#37 = PRODUCT_RELATED_PRODUCT_CATEGORY ( 'part', '', ( #233 ) ) ;
#38 = CARTESIAN_POINT ( 'NONE',  ( -3.750000000000000888, 13.21428855334747432, 0.000000000000000000 ) ) ;
#39 = EDGE_LOOP ( 'NONE', ( #100 ) ) ;
#40 =( NAMED_UNIT ( * ) PLANE_ANGLE_UNIT ( ) SI_UNIT ( $, .RADIAN. ) );
#41 = VERTEX_POINT ( 'NONE', #228 ) ;
#42 = EDGE_LOOP ( 'NONE', ( #142 ) ) ;
#43 = CARTESIAN_POINT ( 'NONE',  ( -3.750000000000002665, 9.666666666666666075, 0.000000000000000000 ) ) ;
#44 =( NAMED_UNIT ( * ) PLANE_ANGLE_UNIT ( ) SI_UNIT ( $, .RADIAN. ) );
#45 = CARTESIAN_POINT ( 'NONE',  ( 0.000000000000000000, 0.000000000000000000, 0.000000000000000000 ) ) ;
#46 = FACE_OUTER_BOUND ( 'NONE', #42, .T. ) ;
#47 = PLANE ( 'NONE',  #92 ) ;
#48 = CARTESIAN_POINT ( 'NONE',  ( -6.171150778789066038, 19.71483209430165573, 0.000000000000000000 ) ) ;
#49 = CARTESIAN_POINT ( 'NONE',  ( -4.626398208731481887, 15.91306687927112051, 0.000000000000000000 ) ) ;
#50 = DIRECTION ( 'NONE',  ( 1.000000000000000000, 0.000000000000000000, 0.000000000000000000 ) ) ;
#51 = CARTESIAN_POINT ( 'NONE',  ( -3.766868868902074841, 13.42862574573467960, -7.533737737804147017 ) ) ;
#52 = CARTESIAN_POINT ( 'NONE',  ( 3.749999999999996891, 13.21428855334747432, 7.499999999999999112 ) ) ;
#53 = CARTESIAN_POINT ( 'NONE',  ( -3.782162705988831863, 13.57069676382681500, 7.564325411977660174 ) ) ;
#54 = ADVANCED_FACE ( 'NONE', ( #212, #24 ), #25, .T. ) ;
#55 = CARTESIAN_POINT ( 'NONE',  ( 4.291539148997514097, 15.27687595929409348, 8.583078297995028194 ) ) ;
#56 = CARTESIAN_POINT ( 'NONE',  ( -3.782162705988831863, 13.57069676382681500, -7.564325411977660174 ) ) ;
#57 = CARTESIAN_POINT ( 'NONE',  ( -3.750000000000001332, 7.999999999999994671, 0.000000000000000000 ) ) ;
#58 = MECHANICAL_DESIGN_GEOMETRIC_PRESENTATION_REPRESENTATION (  '', ( #136 ), #69 ) ;
#59 = CARTESIAN_POINT ( 'NONE',  ( -3.750000000000000888, 13.21428855334747432, 0.000000000000000000 ) ) ;
#60 = CARTESIAN_POINT ( 'NONE',  ( -9.362563480786387622E-16, 7.999999999999996447, 0.000000000000000000 ) ) ;
#61 = APPLICATION_PROTOCOL_DEFINITION ( 'draft international standard', 'automotive_design', 1998, #232 ) ;
#62 = PRESENTATION_STYLE_ASSIGNMENT (( #229 ) ) ;
#63 = CARTESIAN_POINT ( 'NONE',  ( 3.749999999999996891, 13.21428855334747432, -7.499999999999999112 ) ) ;
#64 = AXIS2_PLACEMENT_3D ( 'NONE', #88, #87, #50 ) ;
#65 = CARTESIAN_POINT ( 'NONE',  ( 3.249999999999996003, 7.500000000000000000, 0.000000000000000000 ) ) ;
#66 = EDGE_LOOP ( 'NONE', ( #159 ) ) ;
#67 = CARTESIAN_POINT ( 'NONE',  ( -6.171150778789066038, 19.71483209430165218, -12.34230155757812142 ) ) ;
#68 = CARTESIAN_POINT ( 'NONE',  ( -2.691737000726088068E-15, 23.00000000000000711, 0.000000000000000000 ) ) ;
#69 =( GEOMETRIC_REPRESENTATION_CONTEXT ( 3 ) GLOBAL_UNCERTAINTY_ASSIGNED_CONTEXT ( ( #168 ) ) GLOBAL_UNIT_ASSIGNED_CONTEXT ( ( #209, #44, #23 ) ) REPRESENTATION_CONTEXT ( 'NONE', 'WORKASPACE' ) );
#70 = PRESENTATION_LAYER_ASSIGNMENT (  '', '', ( #136 ) ) ;
#71 = CYLINDRICAL_SURFACE ( 'NONE', #187, 2.499999999999999556 ) ;
#72 = CARTESIAN_POINT ( 'NONE',  ( -6.171150778789066038, 19.71483209430165573, 0.000000000000000000 ) ) ;
#73 = CARTESIAN_POINT ( 'NONE',  ( -2.691737000726088068E-15, 23.00000000000000711, 0.000000000000000000 ) ) ;
#74 = CARTESIAN_POINT ( 'NONE',  ( -4.171931499384682773, 15.01541976762828945, 0.000000000000000000 ) ) ;
#75 = PRODUCT_DEFINITION_CONTEXT ( 'detailed design', #232, 'design' ) ;
#76 = CARTESIAN_POINT ( 'NONE',  ( 4.506918824502889720, 15.65155805616359075, -9.013837649005782993 ) ) ;
#77 = CARTESIAN_POINT ( 'NONE',  ( -4.171931499384682773, 15.01541976762828945, 8.343862998769361994 ) ) ;
#78 = CARTESIAN_POINT ( 'NONE',  ( -4.291539148997516762, 15.27687595929409348, 0.000000000000000000 ) ) ;
#79 = CARTESIAN_POINT ( 'NONE',  ( -3.955954939372949841, 14.48394200624782968, 0.000000000000000000 ) ) ;
#80 =( NAMED_UNIT ( * ) SI_UNIT ( $, .STERADIAN. ) SOLID_ANGLE_UNIT ( ) );
#81 = CARTESIAN_POINT ( 'NONE',  ( 3.749999999999997780, 13.21428855334747610, 0.000000000000000000 ) ) ;
#82 = DIRECTION ( 'NONE',  ( 1.000000000000000000, 0.000000000000000000, 0.000000000000000000 ) ) ;
#83 = EDGE_LOOP ( 'NONE', ( #207 ) ) ;
#84 = DIRECTION ( 'NONE',  ( -1.170320435098298946E-16, 1.000000000000000000, -0.000000000000000000 ) ) ;
#85 = CARTESIAN_POINT ( 'NONE',  ( 3.749999999999999556, 11.40476285111582655, 7.500000000000002665 ) ) ;
#86 = CARTESIAN_POINT ( 'NONE',  ( 3.959993188885420956, 23.00000000000000355, 0.000000000000000000 ) ) ;
#87 = DIRECTION ( 'NONE',  ( 1.170320435098298946E-16, -1.000000000000000000, 0.000000000000000000 ) ) ;
#88 = CARTESIAN_POINT ( 'NONE',  ( -8.777403263237242586E-16, 7.500000000000000000, 0.000000000000000000 ) ) ;
#89 = CARTESIAN_POINT ( 'NONE',  ( 4.626398208731479222, 15.91306687927111874, -9.252796417462960221 ) ) ;
#90 = CARTESIAN_POINT ( 'NONE',  ( -2.691737000726088463E-15, 23.00000000000000711, 0.000000000000000000 ) ) ;
#91 = CARTESIAN_POINT ( 'NONE',  ( 3.955954939372945400, 14.48394200624782968, 7.911909878745895242 ) ) ;
#92 = AXIS2_PLACEMENT_3D ( 'NONE', #148, #149, #236 ) ;
#93 = CARTESIAN_POINT ( 'NONE',  ( -3.846507457104206384, 14.06804157362660845, 0.000000000000000000 ) ) ;
#94 = CARTESIAN_POINT ( 'NONE',  ( -3.782162705988831863, 13.57069676382681500, 0.000000000000000000 ) ) ;
#95 = CARTESIAN_POINT ( 'NONE',  ( -3.791327625686181424, 13.64153587913453336, -7.582655251372359295 ) ) ;
#96 = CARTESIAN_POINT ( 'NONE',  ( -4.117860790660610171, 14.88236190603736731, -8.235721581321218565 ) ) ;
#97 = DIRECTION ( 'NONE',  ( -1.000000000000000000, -1.170320435098298946E-16, 0.000000000000000000 ) ) ;
#98 = APPLICATION_PROTOCOL_DEFINITION ( 'draft international standard', 'automotive_design', 1998, #132 ) ;
#99 = CARTESIAN_POINT ( 'NONE',  ( -3.750000000000002665, 9.666666666666666075, 0.000000000000000000 ) ) ;
#100 = ORIENTED_EDGE ( 'NONE', *, *, #164, .T. ) ;
#101 =( BOUNDED_SURFACE ( )  B_SPLINE_SURFACE ( 3, 3, ( 
 ( #90, #8, #216, #238, #73, #68, #199 ),
 ( #239, #147, #10, #86, #185, #27, #161 ),
 ( #48, #166, #146, #109, #110, #67, #72 ),
 ( #107, #240, #215, #241, #125, #126, #217 ),
 ( #197, #28, #108, #196, #89, #165, #49 ),
 ( #198, #184, #245, #19, #76, #15, #202 ),
 ( #78, #150, #55, #36, #201, #17, #115 ),
 ( #74, #77, #167, #205, #247, #204, #153 ),
 ( #171, #191, #189, #134, #35, #96, #188 ),
 ( #79, #246, #91, #117, #130, #32, #244 ),
 ( #93, #116, #131, #170, #206, #169, #18 ),
 ( #219, #223, #172, #224, #152, #95, #222 ),
 ( #94, #53, #151, #154, #220, #56, #111 ),
 ( #133, #135, #13, #242, #34, #51, #114 ),
 ( #38, #186, #52, #81, #63, #118, #59 ),
 ( #141, #21, #85, #211, #140, #210, #20 ),
 ( #43, #225, #173, #234, #160, #235, #99 ),
 ( #178, #158, #122, #193, #155, #230, #57 ) ),
 .UNSPECIFIED., .F., .T., .T. ) 
 B_SPLINE_SURFACE_WITH_KNOTS ( ( 4, 3, 1, 1, 3, 3, 1, 1, 1, 4 ),
 ( 4, 3, 4 ),
 ( 0.000000000000000000, 0.4901686047910843169, 0.5153646311207277231, 0.5405606574503710737, 0.5657566837800144244, 0.6407863135591539416, 0.6533171721958200839, 0.6658480308324862262, 0.6783788894691522575, 0.9707617172244686898 ),
 ( 0.000000000000000000, 0.5000000000000000000, 1.000000000000000000 ),
 .UNSPECIFIED. ) 
 GEOMETRIC_REPRESENTATION_ITEM ( )  RATIONAL_B_SPLINE_SURFACE ( (
 ( 1.000000000000000000, 0.3333333333333333148, 0.3333333333333333148, 1.000000000000000000, 0.3333333333333333148, 0.3333333333333333148, 1.000000000000000000),
 ( 0.7055827261032897590, 0.2351942420344299012, 0.2351942420344299012, 0.7055827261032897590, 0.2351942420344299012, 0.2351942420344299012, 0.7055827261032897590),
 ( 0.7055827261032897590, 0.2351942420344299012, 0.2351942420344299012, 0.7055827261032897590, 0.2351942420344299012, 0.2351942420344299012, 0.7055827261032897590),
 ( 1.000000000000000000, 0.3333333333333333148, 0.3333333333333333148, 1.000000000000000000, 0.3333333333333333148, 0.3333333333333333148, 1.000000000000000000),
 ( 1.000000000000000000, 0.3333333333333333148, 0.3333333333333333148, 1.000000000000000000, 0.3333333333333333148, 0.3333333333333333148, 1.000000000000000000),
 ( 1.000000000000000000, 0.3333333333333333148, 0.3333333333333333148, 1.000000000000000000, 0.3333333333333333148, 0.3333333333333333148, 1.000000000000000000),
 ( 1.000000000000000000, 0.3333333333333333148, 0.3333333333333333148, 1.000000000000000000, 0.3333333333333333148, 0.3333333333333333148, 1.000000000000000000),
 ( 1.000000000000000000, 0.3333333333333333148, 0.3333333333333333148, 1.000000000000000000, 0.3333333333333333148, 0.3333333333333333148, 1.000000000000000000),
 ( 1.000000000000000000, 0.3333333333333333148, 0.3333333333333333148, 1.000000000000000000, 0.3333333333333333148, 0.3333333333333333148, 1.000000000000000000),
 ( 0.9944896499085095209, 0.3314965499695031736, 0.3314965499695031736, 0.9944896499085095209, 0.3314965499695031736, 0.3314965499695031736, 0.9944896499085095209),
 ( 0.9944896499085095209, 0.3314965499695031736, 0.3314965499695031736, 0.9944896499085095209, 0.3314965499695031736, 0.3314965499695031736, 0.9944896499085095209),
 ( 1.000000000000000000, 0.3333333333333333148, 0.3333333333333333148, 1.000000000000000000, 0.3333333333333333148, 0.3333333333333333148, 1.000000000000000000),
 ( 1.000000000000000000, 0.3333333333333333148, 0.3333333333333333148, 1.000000000000000000, 0.3333333333333333148, 0.3333333333333333148, 1.000000000000000000),
 ( 1.000000000000000000, 0.3333333333333333148, 0.3333333333333333148, 1.000000000000000000, 0.3333333333333333148, 0.3333333333333333148, 1.000000000000000000),
 ( 1.000000000000000000, 0.3333333333333333148, 0.3333333333333333148, 1.000000000000000000, 0.3333333333333333148, 0.3333333333333333148, 1.000000000000000000),
 ( 1.000000000000000000, 0.3333333333333333148, 0.3333333333333333148, 1.000000000000000000, 0.3333333333333333148, 0.3333333333333333148, 1.000000000000000000),
 ( 1.000000000000000000, 0.3333333333333333148, 0.3333333333333333148, 1.000000000000000000, 0.3333333333333333148, 0.3333333333333333148, 1.000000000000000000),
 ( 1.000000000000000000, 0.3333333333333333148, 0.3333333333333333148, 1.000000000000000000, 0.3333333333333333148, 0.3333333333333333148, 1.000000000000000000) ) ) 
 REPRESENTATION_ITEM ( '' )  SURFACE ( )  );
#102 = SHAPE_DEFINITION_REPRESENTATION ( #180, #174 ) ;
#103 = DIRECTION ( 'NONE',  ( -1.000000000000000000, 0.000000000000000000, 0.000000000000000000 ) ) ;
#104 = CLOSED_SHELL ( 'NONE', ( #221, #175, #190, #139, #54 ) ) ;
#105 = MANIFOLD_SOLID_BREP ( 'Chamfer1', #104 ) ;
#106 = DIRECTION ( 'NONE',  ( -1.170320435098298946E-16, 1.000000000000000000, -0.000000000000000000 ) ) ;
#107 = CARTESIAN_POINT ( 'NONE',  ( -4.680463800384573325, 16.04612682017097924, 0.000000000000000000 ) ) ;
#108 = CARTESIAN_POINT ( 'NONE',  ( 4.626398208731479222, 15.91306687927111874, 9.252796417462960221 ) ) ;
#109 = CARTESIAN_POINT ( 'NONE',  ( 6.171150778789061597, 19.71483209430165573, 0.000000000000000000 ) ) ;
#110 = CARTESIAN_POINT ( 'NONE',  ( 6.171150778789060709, 19.71483209430165218, -12.34230155757812319 ) ) ;
#111 = CARTESIAN_POINT ( 'NONE',  ( -3.782162705988831863, 13.57069676382681500, 0.000000000000000000 ) ) ;
#112 =( GEOMETRIC_REPRESENTATION_CONTEXT ( 3 ) GLOBAL_UNCERTAINTY_ASSIGNED_CONTEXT ( ( #200 ) ) GLOBAL_UNIT_ASSIGNED_CONTEXT ( ( #143, #40, #80 ) ) REPRESENTATION_CONTEXT ( 'NONE', 'WORKASPACE' ) );
#113 = CIRCLE ( 'NONE', #243, 3.750000000000000444 ) ;
#114 = CARTESIAN_POINT ( 'NONE',  ( -3.766868868902074841, 13.42862574573467960, 0.000000000000000000 ) ) ;
#115 = CARTESIAN_POINT ( 'NONE',  ( -4.291539148997516762, 15.27687595929409348, 0.000000000000000000 ) ) ;
#116 = CARTESIAN_POINT ( 'NONE',  ( -3.846507457104206829, 14.06804157362661023, 7.693014914208409216 ) ) ;
#117 = CARTESIAN_POINT ( 'NONE',  ( 3.955954939372946289, 14.48394200624783146, 0.000000000000000000 ) ) ;
#118 = CARTESIAN_POINT ( 'NONE',  ( -3.750000000000000888, 13.21428855334747432, -7.499999999999997335 ) ) ;
#119 = CARTESIAN_POINT ( 'NONE',  ( -9.362563480786391566E-16, 7.999999999999998224, 0.000000000000000000 ) ) ;
#120 = DIRECTION ( 'NONE',  ( 0.000000000000000000, 0.000000000000000000, 1.000000000000000000 ) ) ;
#121 = PLANE ( 'NONE',  #33 ) ;
#122 = CARTESIAN_POINT ( 'NONE',  ( 3.749999999999999556, 7.999999999999995559, 7.499999999999999112 ) ) ;
#123 = EDGE_LOOP ( 'NONE', ( #144 ) ) ;
#124 = EDGE_LOOP ( 'NONE', ( #5 ) ) ;
#125 = CARTESIAN_POINT ( 'NONE',  ( 4.680463800384569772, 16.04612682017098280, -9.360927600769143098 ) ) ;
#126 = CARTESIAN_POINT ( 'NONE',  ( -4.680463800384572437, 16.04612682017098280, -9.360927600769143098 ) ) ;
#127 = DIRECTION ( 'NONE',  ( -1.000000000000000000, 0.000000000000000000, 0.000000000000000000 ) ) ;
#128 = CIRCLE ( 'NONE', #203, 2.500000000000000000 ) ;
#129 = AXIS2_PLACEMENT_3D ( 'NONE', #145, #106, #181 ) ;
#130 = CARTESIAN_POINT ( 'NONE',  ( 3.955954939372945400, 14.48394200624782968, -7.911909878745895242 ) ) ;
#131 = CARTESIAN_POINT ( 'NONE',  ( 3.846507457104203276, 14.06804157362661023, 7.693014914208409216 ) ) ;
#132 = APPLICATION_CONTEXT ( 'automotive_design' ) ;
#133 = CARTESIAN_POINT ( 'NONE',  ( -3.766868868902074841, 13.42862574573467960, 0.000000000000000000 ) ) ;
#134 = CARTESIAN_POINT ( 'NONE',  ( 4.117860790660607506, 14.88236190603736908, 0.000000000000000000 ) ) ;
#135 = CARTESIAN_POINT ( 'NONE',  ( -3.766868868902074841, 13.42862574573467960, 7.533737737804147017 ) ) ;
#136 = STYLED_ITEM ( 'NONE', ( #62 ), #105 ) ;
#137 = CARTESIAN_POINT ( 'NONE',  ( -2.500000000000000444, 7.500000000000000000, 0.000000000000000000 ) ) ;
#138 = DIRECTION ( 'NONE',  ( -1.170320435098298946E-16, 1.000000000000000000, -0.000000000000000000 ) ) ;
#139 = ADVANCED_FACE ( 'NONE', ( #163, #7 ), #121, .T. ) ;
#140 = CARTESIAN_POINT ( 'NONE',  ( 3.749999999999999556, 11.40476285111582655, -7.500000000000002665 ) ) ;
#141 = CARTESIAN_POINT ( 'NONE',  ( -3.750000000000003109, 11.40476285111582655, 0.000000000000000000 ) ) ;
#142 = ORIENTED_EDGE ( 'NONE', *, *, #11, .T. ) ;
#143 =( LENGTH_UNIT ( ) NAMED_UNIT ( * ) SI_UNIT ( .MILLI., .METRE. ) );
#144 = ORIENTED_EDGE ( 'NONE', *, *, #182, .T. ) ;
#145 = CARTESIAN_POINT ( 'NONE',  ( -8.777403263237242586E-16, 7.500000000000000000, 0.000000000000000000 ) ) ;
#146 = CARTESIAN_POINT ( 'NONE',  ( 6.171150778789060709, 19.71483209430165218, 12.34230155757812319 ) ) ;
#147 = CARTESIAN_POINT ( 'NONE',  ( -3.959993188885425397, 23.00000000000000711, 7.919986377770846353 ) ) ;
#148 = CARTESIAN_POINT ( 'NONE',  ( 1.151016988515296900E-33, -9.835058450625270280E-18, 0.000000000000000000 ) ) ;
#149 = DIRECTION ( 'NONE',  ( 1.170320435098298946E-16, -1.000000000000000000, 0.000000000000000000 ) ) ;
#150 = CARTESIAN_POINT ( 'NONE',  ( -4.291539148997516762, 15.27687595929409348, 8.583078297995028194 ) ) ;
#151 = CARTESIAN_POINT ( 'NONE',  ( 3.782162705988828755, 13.57069676382681500, 7.564325411977660174 ) ) ;
#152 = CARTESIAN_POINT ( 'NONE',  ( 3.791327625686177427, 13.64153587913453514, -7.582655251372360183 ) ) ;
#153 = CARTESIAN_POINT ( 'NONE',  ( -4.171931499384682773, 15.01541976762828945, 0.000000000000000000 ) ) ;
#154 = CARTESIAN_POINT ( 'NONE',  ( 3.782162705988828755, 13.57069676382681678, 0.000000000000000000 ) ) ;
#155 = CARTESIAN_POINT ( 'NONE',  ( 3.749999999999999556, 7.999999999999995559, -7.499999999999999112 ) ) ;
#156 = ORIENTED_EDGE ( 'NONE', *, *, #164, .F. ) ;
#157 = SURFACE_SIDE_STYLE ('',( #2 ) ) ;
#158 = CARTESIAN_POINT ( 'NONE',  ( -3.750000000000000888, 7.999999999999994671, 7.499999999999999112 ) ) ;
#159 = ORIENTED_EDGE ( 'NONE', *, *, #237, .T. ) ;
#160 = CARTESIAN_POINT ( 'NONE',  ( 3.749999999999999556, 9.666666666666667851, -7.500000000000002665 ) ) ;
#161 = CARTESIAN_POINT ( 'NONE',  ( -3.959993188885425841, 23.00000000000000355, 0.000000000000000000 ) ) ;
#162 = FACE_OUTER_BOUND ( 'NONE', #6, .T. ) ;
#163 = FACE_OUTER_BOUND ( 'NONE', #123, .T. ) ;
#164 = EDGE_CURVE ( 'NONE', #177, #177, #14, .T. ) ;
#165 = CARTESIAN_POINT ( 'NONE',  ( -4.626398208731481887, 15.91306687927111874, -9.252796417462960221 ) ) ;
#166 = CARTESIAN_POINT ( 'NONE',  ( -6.171150778789066038, 19.71483209430165218, 12.34230155757812142 ) ) ;
#167 = CARTESIAN_POINT ( 'NONE',  ( 4.171931499384680109, 15.01541976762828945, 8.343862998769361994 ) ) ;
#168 = UNCERTAINTY_MEASURE_WITH_UNIT (LENGTH_MEASURE( 1.000000000000000082E-05 ), #209, 'distance_accuracy_value', 'NONE');
#169 = CARTESIAN_POINT ( 'NONE',  ( -3.846507457104206829, 14.06804157362661023, -7.693014914208409216 ) ) ;
#170 = CARTESIAN_POINT ( 'NONE',  ( 3.846507457104203276, 14.06804157362661023, 0.000000000000000000 ) ) ;
#171 = CARTESIAN_POINT ( 'NONE',  ( -4.117860790660611059, 14.88236190603736731, 0.000000000000000000 ) ) ;
#172 = CARTESIAN_POINT ( 'NONE',  ( 3.791327625686177427, 13.64153587913453514, 7.582655251372360183 ) ) ;
#173 = CARTESIAN_POINT ( 'NONE',  ( 3.749999999999999556, 9.666666666666667851, 7.500000000000002665 ) ) ;
#174 = ADVANCED_BREP_SHAPE_REPRESENTATION ( 'Part3', ( #105, #9 ), #112 ) ;
#175 = ADVANCED_FACE ( 'NONE', ( #218 ), #47, .T. ) ;
#176 = AXIS2_PLACEMENT_3D ( 'NONE', #119, #231, #103 ) ;
#177 = VERTEX_POINT ( 'NONE', #137 ) ;
#178 = CARTESIAN_POINT ( 'NONE',  ( -3.750000000000001332, 7.999999999999994671, 0.000000000000000000 ) ) ;
#179 = FILL_AREA_STYLE ('',( #192 ) ) ;
#180 = PRODUCT_DEFINITION_SHAPE ( 'NONE', 'NONE',  #31 ) ;
#181 = DIRECTION ( 'NONE',  ( -1.000000000000000000, 0.000000000000000000, 0.000000000000000000 ) ) ;
#182 = EDGE_CURVE ( 'NONE', #208, #208, #227, .T. ) ;
#183 = DIRECTION ( 'NONE',  ( -1.170320435098298946E-16, 1.000000000000000000, -0.000000000000000000 ) ) ;
#184 = CARTESIAN_POINT ( 'NONE',  ( -4.506918824502892384, 15.65155805616359075, 9.013837649005782993 ) ) ;
#185 = CARTESIAN_POINT ( 'NONE',  ( 3.959993188885420512, 23.00000000000000711, -7.919986377770846353 ) ) ;
#186 = CARTESIAN_POINT ( 'NONE',  ( -3.750000000000000888, 13.21428855334747432, 7.499999999999997335 ) ) ;
#187 = AXIS2_PLACEMENT_3D ( 'NONE', #12, #183, #127 ) ;
#188 = CARTESIAN_POINT ( 'NONE',  ( -4.117860790660611059, 14.88236190603736731, 0.000000000000000000 ) ) ;
#189 = CARTESIAN_POINT ( 'NONE',  ( 4.117860790660607506, 14.88236190603736731, 8.235721581321218565 ) ) ;
#190 = ADVANCED_FACE ( 'NONE', ( #214, #162 ), #71, .T. ) ;
#191 = CARTESIAN_POINT ( 'NONE',  ( -4.117860790660610171, 14.88236190603736731, 8.235721581321218565 ) ) ;
#192 = FILL_AREA_STYLE_COLOUR ( '', #16 ) ;
#193 = CARTESIAN_POINT ( 'NONE',  ( 3.749999999999999556, 7.999999999999996447, 0.000000000000000000 ) ) ;
#194 = CARTESIAN_POINT ( 'NONE',  ( -2.500000000000000000, -2.925801087745747364E-16, 0.000000000000000000 ) ) ;
#195 = DIRECTION ( 'NONE',  ( -1.000000000000000000, 0.000000000000000000, 0.000000000000000000 ) ) ;
#196 = CARTESIAN_POINT ( 'NONE',  ( 4.626398208731478334, 15.91306687927112051, 0.000000000000000000 ) ) ;
#197 = CARTESIAN_POINT ( 'NONE',  ( -4.626398208731481887, 15.91306687927112051, 0.000000000000000000 ) ) ;
#198 = CARTESIAN_POINT ( 'NONE',  ( -4.506918824502892384, 15.65155805616359075, 0.000000000000000000 ) ) ;
#199 = CARTESIAN_POINT ( 'NONE',  ( -2.691737000726088463E-15, 23.00000000000000711, 0.000000000000000000 ) ) ;
#200 = UNCERTAINTY_MEASURE_WITH_UNIT (LENGTH_MEASURE( 1.000000000000000082E-05 ), #143, 'distance_accuracy_value', 'NONE');
#201 = CARTESIAN_POINT ( 'NONE',  ( 4.291539148997514097, 15.27687595929409348, -8.583078297995028194 ) ) ;
#202 = CARTESIAN_POINT ( 'NONE',  ( -4.506918824502892384, 15.65155805616359075, 0.000000000000000000 ) ) ;
#203 = AXIS2_PLACEMENT_3D ( 'NONE', #45, #138, #97 ) ;
#204 = CARTESIAN_POINT ( 'NONE',  ( -4.171931499384682773, 15.01541976762828945, -8.343862998769361994 ) ) ;
#205 = CARTESIAN_POINT ( 'NONE',  ( 4.171931499384680109, 15.01541976762829123, 0.000000000000000000 ) ) ;
#206 = CARTESIAN_POINT ( 'NONE',  ( 3.846507457104203276, 14.06804157362661023, -7.693014914208409216 ) ) ;
#207 = ORIENTED_EDGE ( 'NONE', *, *, #11, .F. ) ;
#208 = VERTEX_POINT ( 'NONE', #65 ) ;
#209 =( LENGTH_UNIT ( ) NAMED_UNIT ( * ) SI_UNIT ( .MILLI., .METRE. ) );
#210 = CARTESIAN_POINT ( 'NONE',  ( -3.750000000000002220, 11.40476285111582655, -7.500000000000002665 ) ) ;
#211 = CARTESIAN_POINT ( 'NONE',  ( 3.750000000000000444, 11.40476285111582833, 0.000000000000000000 ) ) ;
#212 = FACE_BOUND ( 'NONE', #124, .T. ) ;
#213 = EDGE_LOOP ( 'NONE', ( #226 ) ) ;
#214 = FACE_OUTER_BOUND ( 'NONE', #66, .T. ) ;
#215 = CARTESIAN_POINT ( 'NONE',  ( 4.680463800384569772, 16.04612682017098280, 9.360927600769143098 ) ) ;
#216 = CARTESIAN_POINT ( 'NONE',  ( -2.691737000726088068E-15, 23.00000000000000711, 0.000000000000000000 ) ) ;
#217 = CARTESIAN_POINT ( 'NONE',  ( -4.680463800384573325, 16.04612682017097924, 0.000000000000000000 ) ) ;
#218 = FACE_OUTER_BOUND ( 'NONE', #213, .T. ) ;
#219 = CARTESIAN_POINT ( 'NONE',  ( -3.791327625686181424, 13.64153587913453336, 0.000000000000000000 ) ) ;
#220 = CARTESIAN_POINT ( 'NONE',  ( 3.782162705988828755, 13.57069676382681500, -7.564325411977660174 ) ) ;
#221 = ADVANCED_FACE ( 'NONE', ( #46 ), #101, .T. ) ;
#222 = CARTESIAN_POINT ( 'NONE',  ( -3.791327625686181424, 13.64153587913453336, 0.000000000000000000 ) ) ;
#223 = CARTESIAN_POINT ( 'NONE',  ( -3.791327625686181424, 13.64153587913453336, 7.582655251372359295 ) ) ;
#224 = CARTESIAN_POINT ( 'NONE',  ( 3.791327625686178315, 13.64153587913453514, 0.000000000000000000 ) ) ;
#225 = CARTESIAN_POINT ( 'NONE',  ( -3.750000000000002220, 9.666666666666666075, 7.500000000000001776 ) ) ;
#226 = ORIENTED_EDGE ( 'NONE', *, *, #237, .F. ) ;
#227 = CIRCLE ( 'NONE', #64, 3.249999999999996891 ) ;
#228 = CARTESIAN_POINT ( 'NONE',  ( -3.750000000000001332, 7.999999999999996447, 0.000000000000000000 ) ) ;
#229 = SURFACE_STYLE_USAGE ( .BOTH. , #157 ) ;
#230 = CARTESIAN_POINT ( 'NONE',  ( -3.750000000000000888, 7.999999999999994671, -7.499999999999999112 ) ) ;
#231 = DIRECTION ( 'NONE',  ( -1.170320435098300425E-16, 1.000000000000000000, -0.000000000000000000 ) ) ;
#232 = APPLICATION_CONTEXT ( 'automotive_design' ) ;
#233 = PRODUCT ( 'Part3', 'Part3', '', ( #1 ) ) ;
#234 = CARTESIAN_POINT ( 'NONE',  ( 3.750000000000000444, 9.666666666666667851, 0.000000000000000000 ) ) ;
#235 = CARTESIAN_POINT ( 'NONE',  ( -3.750000000000002220, 9.666666666666666075, -7.500000000000001776 ) ) ;
#236 = DIRECTION ( 'NONE',  ( 1.000000000000000000, 1.170320435098298946E-16, 0.000000000000000000 ) ) ;
#237 = EDGE_CURVE ( 'NONE', #22, #22, #128, .T. ) ;
#238 = CARTESIAN_POINT ( 'NONE',  ( -2.691737000726088463E-15, 23.00000000000000711, 0.000000000000000000 ) ) ;
#239 = CARTESIAN_POINT ( 'NONE',  ( -3.959993188885425841, 23.00000000000000355, 0.000000000000000000 ) ) ;
#240 = CARTESIAN_POINT ( 'NONE',  ( -4.680463800384572437, 16.04612682017098280, 9.360927600769143098 ) ) ;
#241 = CARTESIAN_POINT ( 'NONE',  ( 4.680463800384569772, 16.04612682017097924, 0.000000000000000000 ) ) ;
#242 = CARTESIAN_POINT ( 'NONE',  ( 3.766868868902071732, 13.42862574573468137, 0.000000000000000000 ) ) ;
#243 = AXIS2_PLACEMENT_3D ( 'NONE', #60, #84, #195 ) ;
#244 = CARTESIAN_POINT ( 'NONE',  ( -3.955954939372949841, 14.48394200624782968, 0.000000000000000000 ) ) ;
#245 = CARTESIAN_POINT ( 'NONE',  ( 4.506918824502889720, 15.65155805616359075, 9.013837649005782993 ) ) ;
#246 = CARTESIAN_POINT ( 'NONE',  ( -3.955954939372949397, 14.48394200624782968, 7.911909878745895242 ) ) ;
#247 = CARTESIAN_POINT ( 'NONE',  ( 4.171931499384680109, 15.01541976762828945, -8.343862998769361994 ) ) ;
ENDSEC;
END-ISO-10303-21;
