ISO-10303-21;
HEADER;
FILE_DESCRIPTION (( 'STEP AP214' ),
    '1' );
FILE_NAME ('Part1.STEP',
    '2025-08-01T14:11:49',
    ( '' ),
    ( '' ),
    'SwSTEP 2.0',
    'SolidWorks 2025',
    '' );
FILE_SCHEMA (( 'AUTOMOTIVE_DESIGN' ));
ENDSEC;

DATA;
#1 = ORIENTED_EDGE ( 'NONE', *, *, #568, .T. ) ;
#2 = EDGE_CURVE ( 'NONE', #856, #739, #713, .T. ) ;
#3 = AXIS2_PLACEMENT_3D ( 'NONE', #1120, #218, #836 ) ;
#4 = CARTESIAN_POINT ( 'NONE',  ( -8.499999999999998224, -6.715058616684415990E-16, 6.250000000000000000 ) ) ;
#5 = FACE_BOUND ( 'NONE', #515, .T. ) ;
#6 = EDGE_LOOP ( 'NONE', ( #1214 ) ) ;
#7 = ORIENTED_EDGE ( 'NONE', *, *, #729, .T. ) ;
#8 = CARTESIAN_POINT ( 'NONE',  ( 10.49999999999999822, 3.500000000000000444, -6.250000000000000000 ) ) ;
#9 = CIRCLE ( 'NONE', #748, 2.500000000000000444 ) ;
#10 = CARTESIAN_POINT ( 'NONE',  ( 8.499999999999996447, 7.750000000000002665, 6.250000000000000000 ) ) ;
#11 = AXIS2_PLACEMENT_3D ( 'NONE', #684, #786, #183 ) ;
#12 = ORIENTED_EDGE ( 'NONE', *, *, #448, .F. ) ;
#13 = EDGE_CURVE ( 'NONE', #374, #693, #482, .T. ) ;
#14 = ORIENTED_EDGE ( 'NONE', *, *, #691, .T. ) ;
#15 = FACE_OUTER_BOUND ( 'NONE', #613, .T. ) ;
#16 = VECTOR ( 'NONE', #558, 1000.000000000000000 ) ;
#17 = ADVANCED_FACE ( 'NONE', ( #970 ), #286, .T. ) ;
#18 = DIRECTION ( 'NONE',  ( -1.000000000000000000, -8.673617379884033500E-16, 0.000000000000000000 ) ) ;
#19 = DIRECTION ( 'NONE',  ( 0.000000000000000000, 0.000000000000000000, 1.000000000000000000 ) ) ;
#20 = ORIENTED_EDGE ( 'NONE', *, *, #40, .T. ) ;
#21 = EDGE_LOOP ( 'NONE', ( #873, #190, #1238, #956 ) ) ;
#22 = PLANE ( 'NONE',  #123 ) ;
#23 = CARTESIAN_POINT ( 'NONE',  ( -10.50000000000000000, 3.500000000000000000, -5.750000000000000000 ) ) ;
#24 = VECTOR ( 'NONE', #438, 1000.000000000000000 ) ;
#25 = CARTESIAN_POINT ( 'NONE',  ( -22.00000000000000000, 1.500000000000000000, 5.750000000000000000 ) ) ;
#26 = AXIS2_PLACEMENT_3D ( 'NONE', #45, #652, #1051 ) ;
#27 = ORIENTED_EDGE ( 'NONE', *, *, #485, .T. ) ;
#28 = EDGE_CURVE ( 'NONE', #318, #734, #475, .T. ) ;
#29 = EDGE_CURVE ( 'NONE', #832, #256, #88, .T. ) ;
#30 = DIRECTION ( 'NONE',  ( 1.000000000000000000, 1.283953296258157327E-32, 0.000000000000000000 ) ) ;
#31 = CARTESIAN_POINT ( 'NONE',  ( 15.75000000000000000, -8.024708101613484181E-32, 0.000000000000000000 ) ) ;
#32 = CARTESIAN_POINT ( 'NONE',  ( -15.75000000000000000, 1.500000000000000000, -6.250000000000000000 ) ) ;
#33 = VECTOR ( 'NONE', #1217, 1000.000000000000000 ) ;
#34 = ORIENTED_EDGE ( 'NONE', *, *, #198, .T. ) ;
#35 = EDGE_LOOP ( 'NONE', ( #808, #1123, #1003, #867 ) ) ;
#36 = DIRECTION ( 'NONE',  ( -0.000000000000000000, 1.000000000000000000, -0.000000000000000000 ) ) ;
#37 = CARTESIAN_POINT ( 'NONE',  ( 10.49999999999999822, 3.500000000000000444, -6.250000000000000000 ) ) ;
#38 = DIRECTION ( 'NONE',  ( -4.476705744456276341E-16, 1.000000000000000000, 0.000000000000000000 ) ) ;
#39 = ORIENTED_EDGE ( 'NONE', *, *, #162, .T. ) ;
#40 = EDGE_CURVE ( 'NONE', #826, #425, #80, .T. ) ;
#41 = AXIS2_PLACEMENT_3D ( 'NONE', #1107, #604, #1293 ) ;
#42 = ORIENTED_EDGE ( 'NONE', *, *, #511, .T. ) ;
#43 = VERTEX_POINT ( 'NONE', #257 ) ;
#44 = DIRECTION ( 'NONE',  ( -1.283953296258157600E-32, 1.000000000000000000, 0.000000000000000000 ) ) ;
#45 = CARTESIAN_POINT ( 'NONE',  ( 10.49999999999999822, 3.500000000000000444, 6.250000000000000000 ) ) ;
#46 = ORIENTED_EDGE ( 'NONE', *, *, #263, .T. ) ;
#47 = VECTOR ( 'NONE', #1126, 1000.000000000000000 ) ;
#48 = CIRCLE ( 'NONE', #1121, 2.500000000000000444 ) ;
#49 = ORIENTED_EDGE ( 'NONE', *, *, #255, .T. ) ;
#50 = DIRECTION ( 'NONE',  ( -1.000000000000000000, -4.476705744456272397E-16, 0.000000000000000000 ) ) ;
#51 = DIRECTION ( 'NONE',  ( -1.000000000000000000, -1.283953296258157600E-32, 0.000000000000000000 ) ) ;
#52 = FILL_AREA_STYLE ('',( #668 ) ) ;
#53 = ORIENTED_EDGE ( 'NONE', *, *, #585, .T. ) ;
#54 = EDGE_LOOP ( 'NONE', ( #745, #1257, #69, #211 ) ) ;
#55 = CIRCLE ( 'NONE', #79, 8.500000000000000000 ) ;
#56 = CIRCLE ( 'NONE', #1024, 2.000000000000000000 ) ;
#57 = DIRECTION ( 'NONE',  ( -1.000000000000000000, -4.336808689942013792E-16, 0.000000000000000000 ) ) ;
#58 = CARTESIAN_POINT ( 'NONE',  ( -15.75000000000000000, 1.500000000000000000, -5.750000000000000000 ) ) ;
#59 = ADVANCED_FACE ( 'NONE', ( #267 ), #1276, .T. ) ;
#60 = SURFACE_SIDE_STYLE ('',( #744 ) ) ;
#61 = ORIENTED_EDGE ( 'NONE', *, *, #971, .T. ) ;
#62 = AXIS2_PLACEMENT_3D ( 'NONE', #1142, #441, #1272 ) ;
#63 = VERTEX_POINT ( 'NONE', #362 ) ;
#64 = DIRECTION ( 'NONE',  ( -0.000000000000000000, 1.000000000000000000, -0.000000000000000000 ) ) ;
#65 = LINE ( 'NONE', #169, #464 ) ;
#66 = CARTESIAN_POINT ( 'NONE',  ( 7.999999999999996447, 7.750000000000000000, 5.750000000000000000 ) ) ;
#67 = DIRECTION ( 'NONE',  ( 4.476705744456276341E-16, -1.000000000000000000, -0.000000000000000000 ) ) ;
#68 = ADVANCED_FACE ( 'NONE', ( #1080 ), #588, .T. ) ;
#69 = ORIENTED_EDGE ( 'NONE', *, *, #162, .F. ) ;
#70 = EDGE_CURVE ( 'NONE', #402, #747, #170, .T. ) ;
#71 = AXIS2_PLACEMENT_3D ( 'NONE', #625, #424, #335 ) ;
#72 = DIRECTION ( 'NONE',  ( 0.000000000000000000, -1.000000000000000000, 0.000000000000000000 ) ) ;
#73 = DIRECTION ( 'NONE',  ( -1.000000000000000000, -5.782411586589358625E-16, 0.000000000000000000 ) ) ;
#74 = DIRECTION ( 'NONE',  ( -1.734723475976805319E-15, -1.000000000000000000, 0.000000000000000000 ) ) ;
#75 = DIRECTION ( 'NONE',  ( 0.000000000000000000, 1.000000000000000000, 0.000000000000000000 ) ) ;
#76 = ORIENTED_EDGE ( 'NONE', *, *, #1208, .T. ) ;
#77 = CARTESIAN_POINT ( 'NONE',  ( 8.499999999999998224, 3.500000000000000888, -5.750000000000000000 ) ) ;
#78 = EDGE_CURVE ( 'NONE', #618, #707, #55, .T. ) ;
#79 = AXIS2_PLACEMENT_3D ( 'NONE', #1073, #581, #189 ) ;
#80 = CIRCLE ( 'NONE', #11, 0.5000000000000004441 ) ;
#81 = FACE_OUTER_BOUND ( 'NONE', #1192, .T. ) ;
#82 = DIRECTION ( 'NONE',  ( -1.000000000000000000, 0.000000000000000000, 0.000000000000000000 ) ) ;
#83 = ORIENTED_EDGE ( 'NONE', *, *, #629, .T. ) ;
#84 = EDGE_LOOP ( 'NONE', ( #920 ) ) ;
#85 = CARTESIAN_POINT ( 'NONE',  ( -15.75000000000000000, 0.9126302581759005994, 0.000000000000000000 ) ) ;
#86 = LINE ( 'NONE', #1280, #234 ) ;
#87 = LINE ( 'NONE', #778, #1160 ) ;
#88 = LINE ( 'NONE', #378, #643 ) ;
#89 = EDGE_CURVE ( 'NONE', #352, #1221, #308, .T. ) ;
#90 = ADVANCED_FACE ( 'NONE', ( #885 ), #1282, .T. ) ;
#91 = ORIENTED_EDGE ( 'NONE', *, *, #70, .T. ) ;
#92 = DIRECTION ( 'NONE',  ( 1.000000000000000000, 0.000000000000000000, 0.000000000000000000 ) ) ;
#93 = CIRCLE ( 'NONE', #685, 0.5000000000000004441 ) ;
#94 = CARTESIAN_POINT ( 'NONE',  ( -22.00000000000000000, 1.500000000000000000, 6.250000000000000000 ) ) ;
#95 = DIRECTION ( 'NONE',  ( 0.000000000000000000, 0.000000000000000000, 1.000000000000000000 ) ) ;
#96 = DIRECTION ( 'NONE',  ( -1.000000000000000000, 0.000000000000000000, 0.000000000000000000 ) ) ;
#97 = ORIENTED_EDGE ( 'NONE', *, *, #1267, .T. ) ;
#98 = CIRCLE ( 'NONE', #1223, 3.499999999999999556 ) ;
#99 = DIRECTION ( 'NONE',  ( 0.000000000000000000, 0.000000000000000000, 1.000000000000000000 ) ) ;
#100 = AXIS2_PLACEMENT_3D ( 'NONE', #400, #719, #1001 ) ;
#101 = FACE_OUTER_BOUND ( 'NONE', #239, .T. ) ;
#102 = AXIS2_PLACEMENT_3D ( 'NONE', #405, #898, #114 ) ;
#103 = CARTESIAN_POINT ( 'NONE',  ( 7.999999999999998224, 3.500000000000000888, -5.750000000000000000 ) ) ;
#104 = DIRECTION ( 'NONE',  ( 8.673617379884026597E-16, -1.000000000000000000, 0.000000000000000000 ) ) ;
#105 = ORIENTED_EDGE ( 'NONE', *, *, #1229, .F. ) ;
#106 = DIRECTION ( 'NONE',  ( -0.000000000000000000, 1.000000000000000000, -0.000000000000000000 ) ) ;
#107 = FACE_OUTER_BOUND ( 'NONE', #842, .T. ) ;
#108 = CARTESIAN_POINT ( 'NONE',  ( 7.999999999999998224, 3.500000000000000444, -6.250000000000000000 ) ) ;
#109 = ORIENTED_EDGE ( 'NONE', *, *, #152, .T. ) ;
#110 = EDGE_CURVE ( 'NONE', #832, #402, #467, .T. ) ;
#111 = CIRCLE ( 'NONE', #3, 8.000000000000000000 ) ;
#112 = CIRCLE ( 'NONE', #905, 6.249999999999998224 ) ;
#113 = DIRECTION ( 'NONE',  ( 0.000000000000000000, 0.000000000000000000, 1.000000000000000000 ) ) ;
#114 = DIRECTION ( 'NONE',  ( 1.000000000000000000, 8.673617379884027583E-16, 0.000000000000000000 ) ) ;
#115 = ORIENTED_EDGE ( 'NONE', *, *, #789, .F. ) ;
#116 = ORIENTED_EDGE ( 'NONE', *, *, #407, .T. ) ;
#117 = DIRECTION ( 'NONE',  ( 1.000000000000000000, 1.283953296258157600E-32, -0.000000000000000000 ) ) ;
#118 = AXIS2_PLACEMENT_3D ( 'NONE', #575, #204, #1008 ) ;
#119 = CARTESIAN_POINT ( 'NONE',  ( 6.999999999999998224, 7.750000000000002665, 6.250000000000000000 ) ) ;
#120 = CARTESIAN_POINT ( 'NONE',  ( -1.898202538678397952E-15, 7.750000000000001776, -6.250000000000000000 ) ) ;
#121 = ORIENTED_EDGE ( 'NONE', *, *, #1267, .F. ) ;
#122 = ORIENTED_EDGE ( 'NONE', *, *, #973, .F. ) ;
#123 = AXIS2_PLACEMENT_3D ( 'NONE', #1130, #834, #755 ) ;
#124 = DIRECTION ( 'NONE',  ( -1.000000000000000000, 0.000000000000000000, 0.000000000000000000 ) ) ;
#125 = DIRECTION ( 'NONE',  ( 0.000000000000000000, 1.000000000000000000, 0.000000000000000000 ) ) ;
#126 = DIRECTION ( 'NONE',  ( 0.000000000000000000, 0.000000000000000000, 1.000000000000000000 ) ) ;
#127 = ORIENTED_EDGE ( 'NONE', *, *, #1137, .T. ) ;
#128 = EDGE_CURVE ( 'NONE', #146, #618, #676, .T. ) ;
#129 = ORIENTED_EDGE ( 'NONE', *, *, #13, .T. ) ;
#130 = LINE ( 'NONE', #1025, #1007 ) ;
#131 = PLANE ( 'NONE',  #975 ) ;
#132 = AXIS2_PLACEMENT_3D ( 'NONE', #1060, #157, #1268 ) ;
#133 = CARTESIAN_POINT ( 'NONE',  ( -6.999999999999999112, -1.925929944387235853E-31, 6.250000000000000000 ) ) ;
#134 = ORIENTED_EDGE ( 'NONE', *, *, #1125, .F. ) ;
#135 = ORIENTED_EDGE ( 'NONE', *, *, #411, .T. ) ;
#136 = CARTESIAN_POINT ( 'NONE',  ( 6.999999999999998224, 7.750000000000002665, -6.250000000000000000 ) ) ;
#137 = CARTESIAN_POINT ( 'NONE',  ( 15.75000000000000000, -8.024708101613479802E-32, -6.250000000000000000 ) ) ;
#138 = EDGE_CURVE ( 'NONE', #449, #449, #427, .T. ) ;
#139 = DIRECTION ( 'NONE',  ( -1.000000000000000000, 0.000000000000000000, 0.000000000000000000 ) ) ;
#140 = EDGE_LOOP ( 'NONE', ( #27 ) ) ;
#141 = VECTOR ( 'NONE', #878, 1000.000000000000000 ) ;
#142 = VERTEX_POINT ( 'NONE', #710 ) ;
#143 = FACE_OUTER_BOUND ( 'NONE', #275, .T. ) ;
#144 = CARTESIAN_POINT ( 'NONE',  ( 10.49999999999999822, 3.500000000000000444, 6.250000000000000000 ) ) ;
#145 = ORIENTED_EDGE ( 'NONE', *, *, #348, .T. ) ;
#146 = VERTEX_POINT ( 'NONE', #1103 ) ;
#147 = DIRECTION ( 'NONE',  ( -1.000000000000000000, -8.673617379884027583E-16, 0.000000000000000000 ) ) ;
#148 = DIRECTION ( 'NONE',  ( -0.000000000000000000, -0.000000000000000000, -1.000000000000000000 ) ) ;
#149 = DIRECTION ( 'NONE',  ( -0.000000000000000000, 1.000000000000000000, -0.000000000000000000 ) ) ;
#150 = ORIENTED_EDGE ( 'NONE', *, *, #1235, .F. ) ;
#151 = VECTOR ( 'NONE', #519, 1000.000000000000000 ) ;
#152 = EDGE_CURVE ( 'NONE', #425, #419, #623, .T. ) ;
#153 = CIRCLE ( 'NONE', #381, 0.5000000000000004441 ) ;
#154 = VERTEX_POINT ( 'NONE', #805 ) ;
#155 = LINE ( 'NONE', #248, #609 ) ;
#156 = CARTESIAN_POINT ( 'NONE',  ( -7.000000000000000888, 3.500000000000001776, 6.250000000000000000 ) ) ;
#157 = DIRECTION ( 'NONE',  ( 1.000000000000000000, 2.238352872228138170E-16, -0.000000000000000000 ) ) ;
#158 = ORIENTED_EDGE ( 'NONE', *, *, #1061, .F. ) ;
#159 = LINE ( 'NONE', #470, #403 ) ;
#160 = CIRCLE ( 'NONE', #1247, 0.5000000000000004441 ) ;
#161 = FACE_OUTER_BOUND ( 'NONE', #619, .T. ) ;
#162 = EDGE_CURVE ( 'NONE', #832, #142, #1084, .T. ) ;
#163 = FACE_OUTER_BOUND ( 'NONE', #722, .T. ) ;
#164 = CARTESIAN_POINT ( 'NONE',  ( -8.000000000000003553, 7.749999999999994671, 6.250000000000000000 ) ) ;
#165 = ADVANCED_FACE ( 'NONE', ( #5, #891 ), #1167, .F. ) ;
#166 = EDGE_LOOP ( 'NONE', ( #610, #134, #939, #1139 ) ) ;
#167 = DIRECTION ( 'NONE',  ( -1.000000000000000000, -1.283953296258157600E-32, 0.000000000000000000 ) ) ;
#168 = CARTESIAN_POINT ( 'NONE',  ( 7.999999999999998224, 3.500000000000000444, 5.750000000000000000 ) ) ;
#169 = CARTESIAN_POINT ( 'NONE',  ( -7.000000000000000888, 3.500000000000001776, -6.250000000000000000 ) ) ;
#170 = LINE ( 'NONE', #164, #669 ) ;
#171 = EDGE_CURVE ( 'NONE', #596, #887, #1124, .T. ) ;
#172 = VECTOR ( 'NONE', #38, 1000.000000000000000 ) ;
#173 = ORIENTED_EDGE ( 'NONE', *, *, #1125, .T. ) ;
#174 = VECTOR ( 'NONE', #830, 1000.000000000000000 ) ;
#175 = LINE ( 'NONE', #768, #895 ) ;
#176 = CYLINDRICAL_SURFACE ( 'NONE', #846, 3.299999999999994049 ) ;
#177 = ORIENTED_EDGE ( 'NONE', *, *, #29, .F. ) ;
#178 = EDGE_CURVE ( 'NONE', #727, #547, #326, .T. ) ;
#179 = ORIENTED_EDGE ( 'NONE', *, *, #776, .F. ) ;
#180 = FACE_OUTER_BOUND ( 'NONE', #544, .T. ) ;
#181 = DIRECTION ( 'NONE',  ( -1.000000000000000000, 0.000000000000000000, 0.000000000000000000 ) ) ;
#182 = DIRECTION ( 'NONE',  ( 0.000000000000000000, -1.000000000000000000, 0.000000000000000000 ) ) ;
#183 = DIRECTION ( 'NONE',  ( 0.000000000000000000, 0.000000000000000000, 1.000000000000000000 ) ) ;
#184 = EDGE_LOOP ( 'NONE', ( #206, #906, #626, #1210 ) ) ;
#185 = AXIS2_PLACEMENT_3D ( 'NONE', #953, #1154, #1148 ) ;
#186 = DIRECTION ( 'NONE',  ( -1.000000000000000000, 0.000000000000000000, 0.000000000000000000 ) ) ;
#187 = FACE_BOUND ( 'NONE', #918, .T. ) ;
#188 = PLANE ( 'NONE',  #283 ) ;
#189 = DIRECTION ( 'NONE',  ( 1.000000000000000000, 0.000000000000000000, 0.000000000000000000 ) ) ;
#190 = ORIENTED_EDGE ( 'NONE', *, *, #853, .F. ) ;
#191 = ADVANCED_FACE ( 'NONE', ( #1290, #393 ), #666, .F. ) ;
#192 = DIRECTION ( 'NONE',  ( 1.000000000000000000, 0.000000000000000000, 0.000000000000000000 ) ) ;
#193 = VECTOR ( 'NONE', #367, 1000.000000000000000 ) ;
#194 = EDGE_CURVE ( 'NONE', #142, #462, #518, .T. ) ;
#195 = CARTESIAN_POINT ( 'NONE',  ( 15.75000000000000000, 1.000000000000000000, 6.250000000000000000 ) ) ;
#196 = DIRECTION ( 'NONE',  ( -1.283953296258157600E-32, 1.000000000000000000, 0.000000000000000000 ) ) ;
#197 = CARTESIAN_POINT ( 'NONE',  ( 8.499999999999998224, 1.000000000000000000, -6.250000000000000000 ) ) ;
#198 = EDGE_CURVE ( 'NONE', #352, #324, #799, .T. ) ;
#199 = ORIENTED_EDGE ( 'NONE', *, *, #1168, .F. ) ;
#200 = AXIS2_PLACEMENT_3D ( 'NONE', #665, #1065, #181 ) ;
#201 = CIRCLE ( 'NONE', #350, 0.5000000000000004441 ) ;
#202 = FACE_OUTER_BOUND ( 'NONE', #1036, .T. ) ;
#203 = DIRECTION ( 'NONE',  ( -1.000000000000000000, 0.000000000000000000, 0.000000000000000000 ) ) ;
#204 = DIRECTION ( 'NONE',  ( -0.000000000000000000, 1.000000000000000000, -0.000000000000000000 ) ) ;
#205 = EDGE_CURVE ( 'NONE', #912, #880, #408, .T. ) ;
#206 = ORIENTED_EDGE ( 'NONE', *, *, #508, .T. ) ;
#207 = ORIENTED_EDGE ( 'NONE', *, *, #28, .F. ) ;
#208 = CIRCLE ( 'NONE', #185, 2.000000000000000000 ) ;
#209 = CARTESIAN_POINT ( 'NONE',  ( -10.50000000000000000, 1.500000000000000000, -5.750000000000000000 ) ) ;
#210 = CARTESIAN_POINT ( 'NONE',  ( -10.50000000000000000, -1.476546290696880748E-31, 6.250000000000000000 ) ) ;
#211 = ORIENTED_EDGE ( 'NONE', *, *, #29, .T. ) ;
#212 = EDGE_CURVE ( 'NONE', #747, #146, #201, .T. ) ;
#213 = ORIENTED_EDGE ( 'NONE', *, *, #78, .F. ) ;
#214 = VECTOR ( 'NONE', #560, 1000.000000000000000 ) ;
#215 = TOROIDAL_SURFACE ( 'NONE', #1239, 2.500000000000000000, 0.5000000000000000000 ) ;
#216 = CARTESIAN_POINT ( 'NONE',  ( -8.500000000000001776, 7.750000000000002665, 6.250000000000000000 ) ) ;
#217 = DIRECTION ( 'NONE',  ( 1.000000000000000000, -0.000000000000000000, 0.000000000000000000 ) ) ;
#218 = DIRECTION ( 'NONE',  ( -0.000000000000000000, -0.000000000000000000, -1.000000000000000000 ) ) ;
#219 = ORIENTED_EDGE ( 'NONE', *, *, #198, .F. ) ;
#220 = AXIS2_PLACEMENT_3D ( 'NONE', #573, #486, #1260 ) ;
#221 = ORIENTED_EDGE ( 'NONE', *, *, #110, .T. ) ;
#222 = ADVANCED_FACE ( 'NONE', ( #501 ), #311, .T. ) ;
#223 = DIRECTION ( 'NONE',  ( -1.000000000000000000, -1.283953296258157600E-32, -0.000000000000000000 ) ) ;
#224 = AXIS2_PLACEMENT_3D ( 'NONE', #942, #829, #1249 ) ;
#225 = DIRECTION ( 'NONE',  ( 0.000000000000000000, 0.000000000000000000, 1.000000000000000000 ) ) ;
#226 = LINE ( 'NONE', #527, #47 ) ;
#227 = ORIENTED_EDGE ( 'NONE', *, *, #1090, .T. ) ;
#228 = ORIENTED_EDGE ( 'NONE', *, *, #304, .F. ) ;
#229 = CARTESIAN_POINT ( 'NONE',  ( -10.50000000000000000, 3.500000000000000000, -6.250000000000000000 ) ) ;
#230 = CARTESIAN_POINT ( 'NONE',  ( 15.75000000000000000, 1.000000000000000000, -6.250000000000000000 ) ) ;
#231 = CARTESIAN_POINT ( 'NONE',  ( -6.999999999999999112, -1.925929944387235853E-31, -6.250000000000000000 ) ) ;
#232 = VERTEX_POINT ( 'NONE', #513 ) ;
#233 = ORIENTED_EDGE ( 'NONE', *, *, #525, .T. ) ;
#234 = VECTOR ( 'NONE', #567, 1000.000000000000000 ) ;
#235 = CARTESIAN_POINT ( 'NONE',  ( -10.50000000000000000, 3.500000000000000000, 6.250000000000000000 ) ) ;
#236 = DIRECTION ( 'NONE',  ( 0.000000000000000000, 0.000000000000000000, 1.000000000000000000 ) ) ;
#237 = AXIS2_PLACEMENT_3D ( 'NONE', #936, #916, #1232 ) ;
#238 = DIRECTION ( 'NONE',  ( -0.000000000000000000, -0.000000000000000000, -1.000000000000000000 ) ) ;
#239 = EDGE_LOOP ( 'NONE', ( #97, #562, #316, #1269 ) ) ;
#240 = EDGE_CURVE ( 'NONE', #324, #912, #1110, .T. ) ;
#241 = EDGE_LOOP ( 'NONE', ( #489, #394, #247, #34 ) ) ;
#242 = DIRECTION ( 'NONE',  ( -8.673617379884026597E-16, 1.000000000000000000, 0.000000000000000000 ) ) ;
#243 = DIRECTION ( 'NONE',  ( 0.000000000000000000, -1.000000000000000000, 1.734723475976805319E-15 ) ) ;
#244 = FACE_OUTER_BOUND ( 'NONE', #1115, .T. ) ;
#245 = VECTOR ( 'NONE', #18, 1000.000000000000000 ) ;
#246 = VERTEX_POINT ( 'NONE', #108 ) ;
#247 = ORIENTED_EDGE ( 'NONE', *, *, #677, .T. ) ;
#248 = CARTESIAN_POINT ( 'NONE',  ( 6.999999999999998224, 3.499999999999999556, 6.250000000000000000 ) ) ;
#249 = EDGE_CURVE ( 'NONE', #246, #232, #1204, .T. ) ;
#250 = CARTESIAN_POINT ( 'NONE',  ( -15.75000000000000000, 1.000000000000000000, 0.000000000000000000 ) ) ;
#251 = CIRCLE ( 'NONE', #754, 0.5000000000000004441 ) ;
#252 = DIRECTION ( 'NONE',  ( -0.000000000000000000, 1.000000000000000000, -0.000000000000000000 ) ) ;
#253 = ORIENTED_EDGE ( 'NONE', *, *, #28, .T. ) ;
#254 = AXIS2_PLACEMENT_3D ( 'NONE', #803, #697, #1005 ) ;
#255 = EDGE_CURVE ( 'NONE', #154, #477, #369, .T. ) ;
#256 = VERTEX_POINT ( 'NONE', #715 ) ;
#257 = CARTESIAN_POINT ( 'NONE',  ( 15.75000000000000000, 1.500000000000000000, 4.000000000000000000 ) ) ;
#258 = CARTESIAN_POINT ( 'NONE',  ( -8.000000000000001776, 7.750000000000001776, 6.250000000000000000 ) ) ;
#259 = LINE ( 'NONE', #659, #742 ) ;
#260 = VERTEX_POINT ( 'NONE', #1113 ) ;
#261 = AXIS2_PLACEMENT_3D ( 'NONE', #321, #524, #415 ) ;
#262 = ORIENTED_EDGE ( 'NONE', *, *, #485, .F. ) ;
#263 = EDGE_CURVE ( 'NONE', #707, #856, #612, .T. ) ;
#264 = EDGE_CURVE ( 'NONE', #456, #880, #816, .T. ) ;
#265 = CARTESIAN_POINT ( 'NONE',  ( 8.499999999999998224, 3.500000000000000888, 5.750000000000000000 ) ) ;
#266 = CARTESIAN_POINT ( 'NONE',  ( -7.000000000000000888, 3.500000000000001776, -6.250000000000000000 ) ) ;
#267 = FACE_OUTER_BOUND ( 'NONE', #608, .T. ) ;
#268 = VECTOR ( 'NONE', #1013, 1000.000000000000000 ) ;
#269 = ORIENTED_EDGE ( 'NONE', *, *, #776, .T. ) ;
#270 = CYLINDRICAL_SURFACE ( 'NONE', #925, 2.000000000000000000 ) ;
#271 = TOROIDAL_SURFACE ( 'NONE', #935, 5.750000000000000000, 0.5000000000000000000 ) ;
#272 = DIRECTION ( 'NONE',  ( -4.476705744456276341E-16, 1.000000000000000000, 0.000000000000000000 ) ) ;
#273 = CARTESIAN_POINT ( 'NONE',  ( 8.499999999999996447, 7.750000000000000000, 6.250000000000000000 ) ) ;
#274 = DIRECTION ( 'NONE',  ( 1.000000000000000000, -1.734723475976805517E-15, 0.000000000000000000 ) ) ;
#275 = EDGE_LOOP ( 'NONE', ( #1222, #293, #1028, #1244 ) ) ;
#276 = ORIENTED_EDGE ( 'NONE', *, *, #212, .T. ) ;
#277 = DIRECTION ( 'NONE',  ( -0.000000000000000000, -0.000000000000000000, -1.000000000000000000 ) ) ;
#278 = ADVANCED_FACE ( 'NONE', ( #821 ), #582, .T. ) ;
#279 = PLANE ( 'NONE',  #1067 ) ;
#280 = CARTESIAN_POINT ( 'NONE',  ( -15.75000000000000000, 1.000000000000000000, 5.750000000000000000 ) ) ;
#281 = ORIENTED_EDGE ( 'NONE', *, *, #13, .F. ) ;
#282 = COLOUR_RGB ( '',0.7921568627450980005, 0.8196078431372548767, 0.9333333333333333481 ) ;
#283 = AXIS2_PLACEMENT_3D ( 'NONE', #606, #196, #593 ) ;
#284 = DIRECTION ( 'NONE',  ( -0.000000000000000000, 0.000000000000000000, -1.000000000000000000 ) ) ;
#285 = DIRECTION ( 'NONE',  ( -1.000000000000000000, 0.000000000000000000, 0.000000000000000000 ) ) ;
#286 = CYLINDRICAL_SURFACE ( 'NONE', #478, 0.5000000000000000000 ) ;
#287 = ORIENTED_EDGE ( 'NONE', *, *, #875, .F. ) ;
#288 = DIRECTION ( 'NONE',  ( 0.000000000000000000, 0.000000000000000000, 1.000000000000000000 ) ) ;
#289 = AXIS2_PLACEMENT_3D ( 'NONE', #1183, #763, #1176 ) ;
#290 = DIRECTION ( 'NONE',  ( -1.000000000000000000, -4.476705744456276341E-16, 0.000000000000000000 ) ) ;
#291 = DIRECTION ( 'NONE',  ( 1.283953296258157600E-32, -1.000000000000000000, -0.000000000000000000 ) ) ;
#292 = DIRECTION ( 'NONE',  ( 0.000000000000000000, 0.000000000000000000, 1.000000000000000000 ) ) ;
#293 = ORIENTED_EDGE ( 'NONE', *, *, #495, .F. ) ;
#294 = AXIS2_PLACEMENT_3D ( 'NONE', #655, #353, #565 ) ;
#295 = CARTESIAN_POINT ( 'NONE',  ( 8.499999999999996447, 7.750000000000002665, 5.750000000000000000 ) ) ;
#296 = EDGE_CURVE ( 'NONE', #826, #701, #1188, .T. ) ;
#297 = FACE_OUTER_BOUND ( 'NONE', #35, .T. ) ;
#298 = DIRECTION ( 'NONE',  ( 1.000000000000000000, 1.283953296258157600E-32, -0.000000000000000000 ) ) ;
#299 = CARTESIAN_POINT ( 'NONE',  ( -10.50000000000000000, 3.500000000000000000, -6.250000000000000000 ) ) ;
#300 = VERTEX_POINT ( 'NONE', #533 ) ;
#301 = FACE_OUTER_BOUND ( 'NONE', #241, .T. ) ;
#302 =( GEOMETRIC_REPRESENTATION_CONTEXT ( 3 ) GLOBAL_UNCERTAINTY_ASSIGNED_CONTEXT ( ( #572 ) ) GLOBAL_UNIT_ASSIGNED_CONTEXT ( ( #466, #949, #1261 ) ) REPRESENTATION_CONTEXT ( 'NONE', 'WORKASPACE' ) );
#303 = DIRECTION ( 'NONE',  ( 1.000000000000000000, 0.000000000000000000, 0.000000000000000000 ) ) ;
#304 = EDGE_CURVE ( 'NONE', #693, #307, #852, .T. ) ;
#305 = PLANE ( 'NONE',  #553 ) ;
#306 = CARTESIAN_POINT ( 'NONE',  ( 8.499999999999998224, 3.500000000000000888, -6.250000000000000000 ) ) ;
#307 = VERTEX_POINT ( 'NONE', #137 ) ;
#308 = CIRCLE ( 'NONE', #476, 6.249999999999998224 ) ;
#309 = CARTESIAN_POINT ( 'NONE',  ( 10.49999999999999822, 1.000000000000000000, 5.750000000000000000 ) ) ;
#310 = ADVANCED_FACE ( 'NONE', ( #541, #756 ), #131, .F. ) ;
#311 = CYLINDRICAL_SURFACE ( 'NONE', #813, 8.500000000000000000 ) ;
#312 = ORIENTED_EDGE ( 'NONE', *, *, #853, .T. ) ;
#313 = EDGE_LOOP ( 'NONE', ( #924, #911, #660, #648 ) ) ;
#314 = CYLINDRICAL_SURFACE ( 'NONE', #627, 2.000000000000000000 ) ;
#315 = DIRECTION ( 'NONE',  ( 1.000000000000000000, 1.283953296258157600E-32, 0.000000000000000000 ) ) ;
#316 = ORIENTED_EDGE ( 'NONE', *, *, #721, .T. ) ;
#317 = EDGE_CURVE ( 'NONE', #1145, #374, #621, .T. ) ;
#318 = VERTEX_POINT ( 'NONE', #354 ) ;
#319 = AXIS2_PLACEMENT_3D ( 'NONE', #451, #149, #1066 ) ;
#320 = AXIS2_PLACEMENT_3D ( 'NONE', #699, #984, #709 ) ;
#321 = CARTESIAN_POINT ( 'NONE',  ( 10.49999999999999822, 3.500000000000000444, -6.250000000000000000 ) ) ;
#322 = CARTESIAN_POINT ( 'NONE',  ( 15.75000000000000000, 1.500000000000000000, 0.000000000000000000 ) ) ;
#323 = DIRECTION ( 'NONE',  ( 0.000000000000000000, 0.000000000000000000, 1.000000000000000000 ) ) ;
#324 = VERTEX_POINT ( 'NONE', #347 ) ;
#325 = CARTESIAN_POINT ( 'NONE',  ( 7.999999999999998224, 7.750000000000006217, -5.750000000000000000 ) ) ;
#326 = CIRCLE ( 'NONE', #102, 0.5000000000000004441 ) ;
#327 = FACE_OUTER_BOUND ( 'NONE', #406, .T. ) ;
#328 = CARTESIAN_POINT ( 'NONE',  ( -10.50000000000000000, 1.000000000000000000, 5.750000000000000000 ) ) ;
#329 = EDGE_LOOP ( 'NONE', ( #530 ) ) ;
#330 = AXIS2_PLACEMENT_3D ( 'NONE', #1274, #777, #1174 ) ;
#331 = EDGE_CURVE ( 'NONE', #747, #1291, #9, .T. ) ;
#332 = AXIS2_PLACEMENT_3D ( 'NONE', #325, #636, #810 ) ;
#333 = DIRECTION ( 'NONE',  ( -1.000000000000000000, 0.000000000000000000, 0.000000000000000000 ) ) ;
#334 = DIRECTION ( 'NONE',  ( 0.000000000000000000, -1.734723475976805517E-15, -1.000000000000000000 ) ) ;
#335 = DIRECTION ( 'NONE',  ( -1.000000000000000000, 0.000000000000000000, 0.000000000000000000 ) ) ;
#336 = ORIENTED_EDGE ( 'NONE', *, *, #940, .T. ) ;
#337 = ORIENTED_EDGE ( 'NONE', *, *, #110, .F. ) ;
#338 = CARTESIAN_POINT ( 'NONE',  ( -19.04999999999999361, 4.237045877651911213E-32, 0.000000000000000000 ) ) ;
#339 = VECTOR ( 'NONE', #765, 1000.000000000000000 ) ;
#340 = CARTESIAN_POINT ( 'NONE',  ( -8.500000000000001776, 7.750000000000002665, -6.250000000000000000 ) ) ;
#341 = ADVANCED_FACE ( 'NONE', ( #737 ), #934, .F. ) ;
#342 = AXIS2_PLACEMENT_3D ( 'NONE', #144, #546, #943 ) ;
#343 = LINE ( 'NONE', #997, #1180 ) ;
#344 = ORIENTED_EDGE ( 'NONE', *, *, #815, .T. ) ;
#345 = ORIENTED_EDGE ( 'NONE', *, *, #138, .F. ) ;
#346 = CARTESIAN_POINT ( 'NONE',  ( -10.50000000000000000, -1.476546290696880748E-31, 6.250000000000000000 ) ) ;
#347 = CARTESIAN_POINT ( 'NONE',  ( -10.50000000000000000, -1.476546290696880748E-31, 6.250000000000000000 ) ) ;
#348 = EDGE_CURVE ( 'NONE', #142, #1145, #436, .T. ) ;
#349 = LINE ( 'NONE', #1156, #193 ) ;
#350 = AXIS2_PLACEMENT_3D ( 'NONE', #811, #104, #416 ) ;
#351 = ORIENTED_EDGE ( 'NONE', *, *, #824, .T. ) ;
#352 = VERTEX_POINT ( 'NONE', #1236 ) ;
#353 = DIRECTION ( 'NONE',  ( 0.000000000000000000, 0.000000000000000000, 1.000000000000000000 ) ) ;
#354 = CARTESIAN_POINT ( 'NONE',  ( 7.999999999999998224, 3.500000000000000444, 6.250000000000000000 ) ) ;
#355 = CARTESIAN_POINT ( 'NONE',  ( -8.000000000000000000, 1.500000000000001110, -6.250000000000000000 ) ) ;
#356 = ORIENTED_EDGE ( 'NONE', *, *, #511, .F. ) ;
#357 = ORIENTED_EDGE ( 'NONE', *, *, #471, .T. ) ;
#358 = PRODUCT_DEFINITION ( 'General', '', #523, #372 ) ;
#359 = CARTESIAN_POINT ( 'NONE',  ( -15.75000000000000000, 0.9126302581759005994, 3.299999999999995826 ) ) ;
#360 = DIRECTION ( 'NONE',  ( 0.000000000000000000, 0.000000000000000000, -1.000000000000000000 ) ) ;
#361 = LINE ( 'NONE', #355, #214 ) ;
#362 = CARTESIAN_POINT ( 'NONE',  ( 10.49999999999999822, 1.500000000000000000, 5.750000000000000000 ) ) ;
#363 = VECTOR ( 'NONE', #277, 1000.000000000000000 ) ;
#364 = EDGE_LOOP ( 'NONE', ( #7, #109, #520, #228 ) ) ;
#365 = CARTESIAN_POINT ( 'NONE',  ( 10.49999999999999822, -1.476546290696880748E-31, -6.250000000000000000 ) ) ;
#366 = CARTESIAN_POINT ( 'NONE',  ( -15.75000000000000000, -8.024708101613481991E-32, -6.250000000000000000 ) ) ;
#367 = DIRECTION ( 'NONE',  ( -2.238352872228138170E-16, 1.000000000000000000, -0.000000000000000000 ) ) ;
#368 = DIRECTION ( 'NONE',  ( 1.000000000000000000, 1.283953296258157600E-32, 0.000000000000000000 ) ) ;
#369 = CIRCLE ( 'NONE', #1109, 0.5000000000000004441 ) ;
#370 = ORIENTED_EDGE ( 'NONE', *, *, #861, .F. ) ;
#371 = LINE ( 'NONE', #702, #784 ) ;
#372 = PRODUCT_DEFINITION_CONTEXT ( 'detailed design', #516, 'design' ) ;
#373 = DIRECTION ( 'NONE',  ( -1.000000000000000000, 0.000000000000000000, 0.000000000000000000 ) ) ;
#374 = VERTEX_POINT ( 'NONE', #443 ) ;
#375 = VERTEX_POINT ( 'NONE', #1037 ) ;
#376 = DIRECTION ( 'NONE',  ( -0.000000000000000000, -0.000000000000000000, -1.000000000000000000 ) ) ;
#377 = DIRECTION ( 'NONE',  ( 0.000000000000000000, 0.000000000000000000, 1.000000000000000000 ) ) ;
#378 = CARTESIAN_POINT ( 'NONE',  ( -7.000000000000002665, 7.750000000000000000, 6.250000000000000000 ) ) ;
#379 = AXIS2_PLACEMENT_3D ( 'NONE', #1033, #99, #894 ) ;
#380 = EDGE_LOOP ( 'NONE', ( #752, #213, #764, #122 ) ) ;
#381 = AXIS2_PLACEMENT_3D ( 'NONE', #884, #505, #377 ) ;
#382 = CARTESIAN_POINT ( 'NONE',  ( 10.49999999999999822, -1.476546290696880748E-31, -6.250000000000000000 ) ) ;
#383 = APPLICATION_PROTOCOL_DEFINITION ( 'draft international standard', 'automotive_design', 1998, #516 ) ;
#384 = DIRECTION ( 'NONE',  ( -1.000000000000000000, 0.000000000000000000, 0.000000000000000000 ) ) ;
#385 = CARTESIAN_POINT ( 'NONE',  ( 6.999999999999999112, 1.500000000000000000, 5.750000000000000000 ) ) ;
#386 = ORIENTED_EDGE ( 'NONE', *, *, #304, .T. ) ;
#387 = ORIENTED_EDGE ( 'NONE', *, *, #128, .T. ) ;
#388 = DIRECTION ( 'NONE',  ( -1.000000000000000000, 0.000000000000000000, 0.000000000000000000 ) ) ;
#389 = VECTOR ( 'NONE', #450, 1000.000000000000000 ) ;
#390 = PLANE ( 'NONE',  #980 ) ;
#391 = AXIS2_PLACEMENT_3D ( 'NONE', #31, #1243, #360 ) ;
#392 = DIRECTION ( 'NONE',  ( 0.000000000000000000, 8.673617379884027583E-16, 1.000000000000000000 ) ) ;
#393 = FACE_OUTER_BOUND ( 'NONE', #535, .T. ) ;
#394 = ORIENTED_EDGE ( 'NONE', *, *, #946, .T. ) ;
#395 = AXIS2_PLACEMENT_3D ( 'NONE', #1064, #1043, #50 ) ;
#396 = CARTESIAN_POINT ( 'NONE',  ( -7.000000000000002665, 7.750000000000000000, 6.250000000000000000 ) ) ;
#397 = EDGE_CURVE ( 'NONE', #758, #256, #922, .T. ) ;
#398 = CARTESIAN_POINT ( 'NONE',  ( -8.000000000000001776, 3.500000000000001332, -6.250000000000000000 ) ) ;
#399 = CARTESIAN_POINT ( 'NONE',  ( -10.50000000000000000, 1.500000000000000000, -6.250000000000000000 ) ) ;
#400 = CARTESIAN_POINT ( 'NONE',  ( -15.75000000000000000, 1.500000000000000000, 0.000000000000000000 ) ) ;
#401 = APPLICATION_CONTEXT ( 'automotive_design' ) ;
#402 = VERTEX_POINT ( 'NONE', #258 ) ;
#403 = VECTOR ( 'NONE', #876, 1000.000000000000000 ) ;
#404 = CYLINDRICAL_SURFACE ( 'NONE', #981, 0.5000000000000000000 ) ;
#405 = CARTESIAN_POINT ( 'NONE',  ( -8.000000000000000000, 3.500000000000001332, -5.750000000000000000 ) ) ;
#406 = EDGE_LOOP ( 'NONE', ( #412, #76, #121, #577 ) ) ;
#407 = EDGE_CURVE ( 'NONE', #739, #758, #563, .T. ) ;
#408 = CIRCLE ( 'NONE', #794, 3.499999999999999556 ) ;
#409 = DIRECTION ( 'NONE',  ( 4.476705744456276341E-16, -1.000000000000000000, 0.000000000000000000 ) ) ;
#410 = DIRECTION ( 'NONE',  ( -0.000000000000000000, -0.000000000000000000, -1.000000000000000000 ) ) ;
#411 = EDGE_CURVE ( 'NONE', #707, #483, #644, .T. ) ;
#412 = ORIENTED_EDGE ( 'NONE', *, *, #1002, .F. ) ;
#413 = ORIENTED_EDGE ( 'NONE', *, *, #426, .T. ) ;
#414 = AXIS2_PLACEMENT_3D ( 'NONE', #1224, #1205, #124 ) ;
#415 = DIRECTION ( 'NONE',  ( -1.000000000000000000, 0.000000000000000000, 0.000000000000000000 ) ) ;
#416 = DIRECTION ( 'NONE',  ( 1.000000000000000000, 8.673617379884027583E-16, 0.000000000000000000 ) ) ;
#417 = CARTESIAN_POINT ( 'NONE',  ( -10.50000000000000000, 1.500000000000000000, 5.750000000000000000 ) ) ;
#418 = ORIENTED_EDGE ( 'NONE', *, *, #128, .F. ) ;
#419 = VERTEX_POINT ( 'NONE', #230 ) ;
#420 = EDGE_CURVE ( 'NONE', #734, #707, #160, .T. ) ;
#421 = CIRCLE ( 'NONE', #1279, 2.500000000000000444 ) ;
#422 = DIRECTION ( 'NONE',  ( -1.000000000000000000, 0.000000000000000000, 0.000000000000000000 ) ) ;
#423 = DIRECTION ( 'NONE',  ( -1.000000000000000000, 0.000000000000000000, 0.000000000000000000 ) ) ;
#424 = DIRECTION ( 'NONE',  ( -0.000000000000000000, -0.000000000000000000, -1.000000000000000000 ) ) ;
#425 = VERTEX_POINT ( 'NONE', #630 ) ;
#426 = EDGE_CURVE ( 'NONE', #727, #1097, #56, .T. ) ;
#427 = CIRCLE ( 'NONE', #118, 4.000000000000000000 ) ;
#428 = FACE_OUTER_BOUND ( 'NONE', #716, .T. ) ;
#429 = DIRECTION ( 'NONE',  ( 2.238352872228138170E-16, -1.000000000000000000, 0.000000000000000000 ) ) ;
#430 = FACE_OUTER_BOUND ( 'NONE', #951, .T. ) ;
#431 = ORIENTED_EDGE ( 'NONE', *, *, #521, .T. ) ;
#432 = AXIS2_PLACEMENT_3D ( 'NONE', #848, #243, #334 ) ;
#433 = ORIENTED_EDGE ( 'NONE', *, *, #917, .F. ) ;
#434 = ADVANCED_FACE ( 'NONE', ( #143 ), #271, .T. ) ;
#435 = VERTEX_POINT ( 'NONE', #839 ) ;
#436 = LINE ( 'NONE', #840, #389 ) ;
#437 = AXIS2_PLACEMENT_3D ( 'NONE', #990, #1287, #303 ) ;
#438 = DIRECTION ( 'NONE',  ( 1.000000000000000000, -1.283953296258157327E-32, 0.000000000000000000 ) ) ;
#439 = ORIENTED_EDGE ( 'NONE', *, *, #645, .T. ) ;
#440 = ADVANCED_FACE ( 'NONE', ( #327 ), #1031, .T. ) ;
#441 = DIRECTION ( 'NONE',  ( 0.000000000000000000, 0.000000000000000000, 1.000000000000000000 ) ) ;
#442 = AXIS2_PLACEMENT_3D ( 'NONE', #120, #238, #139 ) ;
#443 = CARTESIAN_POINT ( 'NONE',  ( 10.49999999999999822, -1.476546290696880748E-31, 6.250000000000000000 ) ) ;
#444 = VECTOR ( 'NONE', #223, 1000.000000000000000 ) ;
#445 = ORIENTED_EDGE ( 'NONE', *, *, #1152, .T. ) ;
#446 = ORIENTED_EDGE ( 'NONE', *, *, #696, .F. ) ;
#447 = CIRCLE ( 'NONE', #220, 5.749999999999998224 ) ;
#448 = EDGE_CURVE ( 'NONE', #300, #246, #175, .T. ) ;
#449 = VERTEX_POINT ( 'NONE', #933 ) ;
#450 = DIRECTION ( 'NONE',  ( 2.238352872228138170E-16, -1.000000000000000000, 0.000000000000000000 ) ) ;
#451 = CARTESIAN_POINT ( 'NONE',  ( -15.75000000000000000, 1.500000000000000000, 0.000000000000000000 ) ) ;
#452 = VECTOR ( 'NONE', #1019, 1000.000000000000000 ) ;
#453 = EDGE_LOOP ( 'NONE', ( #1133, #1048, #937, #269 ) ) ;
#454 = EDGE_CURVE ( 'NONE', #856, #300, #457, .T. ) ;
#455 = ADVANCED_FACE ( 'NONE', ( #161 ), #279, .T. ) ;
#456 = VERTEX_POINT ( 'NONE', #156 ) ;
#457 = CIRCLE ( 'NONE', #330, 0.5000000000000004441 ) ;
#458 = CARTESIAN_POINT ( 'NONE',  ( 12.45000000000000639, -4.237045877651912308E-32, 0.000000000000000000 ) ) ;
#459 = DIRECTION ( 'NONE',  ( -1.283953296258157600E-32, 1.000000000000000000, 0.000000000000000000 ) ) ;
#460 = DIRECTION ( 'NONE',  ( 2.238352872228138170E-16, -1.000000000000000000, 0.000000000000000000 ) ) ;
#461 = DIRECTION ( 'NONE',  ( -1.000000000000000000, 0.000000000000000000, 0.000000000000000000 ) ) ;
#462 = VERTEX_POINT ( 'NONE', #465 ) ;
#463 = FACE_OUTER_BOUND ( 'NONE', #556, .T. ) ;
#464 = VECTOR ( 'NONE', #73, 1000.000000000000000 ) ;
#465 = CARTESIAN_POINT ( 'NONE',  ( 6.999999999999998224, 7.750000000000002665, -6.250000000000000000 ) ) ;
#466 =( LENGTH_UNIT ( ) NAMED_UNIT ( * ) SI_UNIT ( .MILLI., .METRE. ) );
#467 = LINE ( 'NONE', #866, #833 ) ;
#468 = CIRCLE ( 'NONE', #26, 2.500000000000000444 ) ;
#469 = ORIENTED_EDGE ( 'NONE', *, *, #1090, .F. ) ;
#470 = CARTESIAN_POINT ( 'NONE',  ( 10.49999999999999822, -1.476546290696880748E-31, -6.250000000000000000 ) ) ;
#471 = EDGE_CURVE ( 'NONE', #747, #456, #882, .T. ) ;
#472 = FACE_OUTER_BOUND ( 'NONE', #714, .T. ) ;
#473 = FACE_OUTER_BOUND ( 'NONE', #313, .T. ) ;
#474 = ADVANCED_BREP_SHAPE_REPRESENTATION ( 'Part1', ( #901, #62 ), #938 ) ;
#475 = LINE ( 'NONE', #779, #141 ) ;
#476 = AXIS2_PLACEMENT_3D ( 'NONE', #985, #793, #964 ) ;
#477 = VERTEX_POINT ( 'NONE', #58 ) ;
#478 = AXIS2_PLACEMENT_3D ( 'NONE', #1096, #368, #75 ) ;
#479 = PLANE ( 'NONE',  #945 ) ;
#480 = PLANE ( 'NONE',  #843 ) ;
#481 = CARTESIAN_POINT ( 'NONE',  ( 15.75000000000000000, -8.024708101613477612E-32, 0.000000000000000000 ) ) ;
#482 = LINE ( 'NONE', #977, #1266 ) ;
#483 = VERTEX_POINT ( 'NONE', #265 ) ;
#484 = ADVANCED_FACE ( 'NONE', ( #1071 ), #1170, .T. ) ;
#485 = EDGE_CURVE ( 'NONE', #673, #673, #932, .T. ) ;
#486 = DIRECTION ( 'NONE',  ( 1.283953296258157600E-32, 1.000000000000000000, -0.000000000000000000 ) ) ;
#487 = ORIENTED_EDGE ( 'NONE', *, *, #940, .F. ) ;
#488 = PRESENTATION_LAYER_ASSIGNMENT (  '', '', ( #1119 ) ) ;
#489 = ORIENTED_EDGE ( 'NONE', *, *, #1245, .T. ) ;
#490 = CIRCLE ( 'NONE', #510, 0.5000000000000004441 ) ;
#491 = FACE_OUTER_BOUND ( 'NONE', #184, .T. ) ;
#492 = APPLICATION_PROTOCOL_DEFINITION ( 'draft international standard', 'automotive_design', 1998, #401 ) ;
#493 = DIRECTION ( 'NONE',  ( 1.000000000000000000, 0.000000000000000000, 0.000000000000000000 ) ) ;
#494 = CARTESIAN_POINT ( 'NONE',  ( -1.898202538678397952E-15, 7.750000000000001776, 6.250000000000000000 ) ) ;
#495 = EDGE_CURVE ( 'NONE', #477, #1128, #447, .T. ) ;
#496 = EDGE_CURVE ( 'NONE', #324, #456, #98, .T. ) ;
#497 = ORIENTED_EDGE ( 'NONE', *, *, #296, .F. ) ;
#498 = CARTESIAN_POINT ( 'NONE',  ( -1.898202538678397952E-15, 7.750000000000001776, 5.750000000000000000 ) ) ;
#499 = PLANE ( 'NONE',  #41 ) ;
#500 = DIRECTION ( 'NONE',  ( -0.000000000000000000, 0.000000000000000000, -1.000000000000000000 ) ) ;
#501 = FACE_OUTER_BOUND ( 'NONE', #1069, .T. ) ;
#502 = ORIENTED_EDGE ( 'NONE', *, *, #908, .F. ) ;
#503 = VECTOR ( 'NONE', #622, 1000.000000000000000 ) ;
#504 = FACE_OUTER_BOUND ( 'NONE', #818, .T. ) ;
#505 = DIRECTION ( 'NONE',  ( -1.000000000000000000, 0.000000000000000000, 0.000000000000000000 ) ) ;
#506 = DIRECTION ( 'NONE',  ( -1.000000000000000000, -1.283953296258157600E-32, 0.000000000000000000 ) ) ;
#507 = EDGE_LOOP ( 'NONE', ( #445, #53, #1052, #387 ) ) ;
#508 = EDGE_CURVE ( 'NONE', #375, #662, #1105, .T. ) ;
#509 = AXIS2_PLACEMENT_3D ( 'NONE', #1278, #571, #388 ) ;
#510 = AXIS2_PLACEMENT_3D ( 'NONE', #280, #373, #785 ) ;
#511 = EDGE_CURVE ( 'NONE', #462, #300, #86, .T. ) ;
#512 = CARTESIAN_POINT ( 'NONE',  ( 6.999999999999998224, 3.499999999999999556, 6.250000000000000000 ) ) ;
#513 = CARTESIAN_POINT ( 'NONE',  ( 6.999999999999998224, 3.499999999999999556, -6.250000000000000000 ) ) ;
#514 = ORIENTED_EDGE ( 'NONE', *, *, #2, .T. ) ;
#515 = EDGE_LOOP ( 'NONE', ( #735 ) ) ;
#516 = APPLICATION_CONTEXT ( 'automotive_design' ) ;
#517 = CARTESIAN_POINT ( 'NONE',  ( 15.75000000000000000, 1.000000000000000000, 5.750000000000000000 ) ) ;
#518 = LINE ( 'NONE', #119, #33 ) ;
#519 = DIRECTION ( 'NONE',  ( 1.000000000000000000, -1.283953296258157600E-32, 0.000000000000000000 ) ) ;
#520 = ORIENTED_EDGE ( 'NONE', *, *, #1002, .T. ) ;
#521 = EDGE_CURVE ( 'NONE', #543, #154, #1032, .T. ) ;
#522 = ORIENTED_EDGE ( 'NONE', *, *, #496, .F. ) ;
#523 = PRODUCT_DEFINITION_FORMATION_WITH_SPECIFIED_SOURCE ( 'Symmetric', '', #637, .NOT_KNOWN. ) ;
#524 = DIRECTION ( 'NONE',  ( -0.000000000000000000, -0.000000000000000000, 1.000000000000000000 ) ) ;
#525 = EDGE_CURVE ( 'NONE', #880, #547, #65, .T. ) ;
#526 = DIRECTION ( 'NONE',  ( 0.000000000000000000, 0.000000000000000000, 1.000000000000000000 ) ) ;
#527 = CARTESIAN_POINT ( 'NONE',  ( 6.999999999999998224, 3.499999999999999556, 6.250000000000000000 ) ) ;
#528 = ORIENTED_EDGE ( 'NONE', *, *, #863, .T. ) ;
#529 = ADVANCED_FACE ( 'NONE', ( #472 ), #791, .T. ) ;
#530 = ORIENTED_EDGE ( 'NONE', *, *, #568, .F. ) ;
#531 = CIRCLE ( 'NONE', #706, 0.5000000000000004441 ) ;
#532 = LINE ( 'NONE', #216, #503 ) ;
#533 = CARTESIAN_POINT ( 'NONE',  ( 7.999999999999998224, 7.750000000000002665, -6.250000000000000000 ) ) ;
#534 = DIRECTION ( 'NONE',  ( 0.000000000000000000, 0.000000000000000000, 1.000000000000000000 ) ) ;
#535 = EDGE_LOOP ( 'NONE', ( #929 ) ) ;
#536 = ADVANCED_FACE ( 'NONE', ( #81 ), #480, .F. ) ;
#537 = ORIENTED_EDGE ( 'NONE', *, *, #995, .T. ) ;
#538 = VECTOR ( 'NONE', #410, 1000.000000000000000 ) ;
#539 = CARTESIAN_POINT ( 'NONE',  ( 6.999999999999999112, 1.000000000000000000, 5.750000000000000000 ) ) ;
#540 = AXIS2_PLACEMENT_3D ( 'NONE', #1262, #292, #461 ) ;
#541 = FACE_BOUND ( 'NONE', #1252, .T. ) ;
#542 = CARTESIAN_POINT ( 'NONE',  ( 7.999999999999998224, 7.750000000000002665, 6.250000000000000000 ) ) ;
#543 = VERTEX_POINT ( 'NONE', #592 ) ;
#544 = EDGE_LOOP ( 'NONE', ( #127, #179, #105, #487 ) ) ;
#545 = CARTESIAN_POINT ( 'NONE',  ( -8.000000000000000000, 1.500000000000001110, -5.750000000000000000 ) ) ;
#546 = DIRECTION ( 'NONE',  ( -0.000000000000000000, -0.000000000000000000, -1.000000000000000000 ) ) ;
#547 = VERTEX_POINT ( 'NONE', #398 ) ;
#548 = ORIENTED_EDGE ( 'NONE', *, *, #331, .F. ) ;
#549 = LINE ( 'NONE', #346, #1112 ) ;
#550 = AXIS2_PLACEMENT_3D ( 'NONE', #979, #590, #1075 ) ;
#551 = DIRECTION ( 'NONE',  ( -1.000000000000000000, 1.283953296258157600E-32, 0.000000000000000000 ) ) ;
#552 = ADVANCED_FACE ( 'NONE', ( #101 ), #1196, .T. ) ;
#553 = AXIS2_PLACEMENT_3D ( 'NONE', #136, #1012, #1117 ) ;
#554 = CARTESIAN_POINT ( 'NONE',  ( -15.75000000000000000, 1.500000000000000000, 0.000000000000000000 ) ) ;
#555 = ADVANCED_FACE ( 'NONE', ( #297 ), #499, .T. ) ;
#556 = EDGE_LOOP ( 'NONE', ( #233, #678, #1172, #957 ) ) ;
#557 = ORIENTED_EDGE ( 'NONE', *, *, #411, .F. ) ;
#558 = DIRECTION ( 'NONE',  ( -1.000000000000000000, 0.000000000000000000, 0.000000000000000000 ) ) ;
#559 = CARTESIAN_POINT ( 'NONE',  ( -8.500000000000000000, 3.500000000000000888, 6.250000000000000000 ) ) ;
#560 = DIRECTION ( 'NONE',  ( -4.476705744456276341E-16, 1.000000000000000000, 0.000000000000000000 ) ) ;
#561 = ORIENTED_EDGE ( 'NONE', *, *, #508, .F. ) ;
#562 = ORIENTED_EDGE ( 'NONE', *, *, #171, .T. ) ;
#563 = CIRCLE ( 'NONE', #432, 0.5000000000000004441 ) ;
#564 = FACE_OUTER_BOUND ( 'NONE', #453, .T. ) ;
#565 = DIRECTION ( 'NONE',  ( 1.000000000000000000, 0.000000000000000000, -0.000000000000000000 ) ) ;
#566 = VECTOR ( 'NONE', #36, 1000.000000000000000 ) ;
#567 = DIRECTION ( 'NONE',  ( 1.000000000000000000, 0.000000000000000000, 0.000000000000000000 ) ) ;
#568 = EDGE_CURVE ( 'NONE', #43, #43, #780, .T. ) ;
#569 = ORIENTED_EDGE ( 'NONE', *, *, #454, .F. ) ;
#570 = ORIENTED_EDGE ( 'NONE', *, *, #1061, .T. ) ;
#571 = DIRECTION ( 'NONE',  ( -0.000000000000000000, -0.000000000000000000, -1.000000000000000000 ) ) ;
#572 = UNCERTAINTY_MEASURE_WITH_UNIT (LENGTH_MEASURE( 1.000000000000000082E-05 ), #466, 'distance_accuracy_value', 'NONE');
#573 = CARTESIAN_POINT ( 'NONE',  ( -15.75000000000000000, 1.500000000000000000, 0.000000000000000000 ) ) ;
#574 = DIRECTION ( 'NONE',  ( 1.000000000000000000, -1.283953296258157600E-32, 0.000000000000000000 ) ) ;
#575 = CARTESIAN_POINT ( 'NONE',  ( -15.75000000000000000, 1.500000000000000000, 0.000000000000000000 ) ) ;
#576 = CIRCLE ( 'NONE', #967, 0.5000000000000004441 ) ;
#577 = ORIENTED_EDGE ( 'NONE', *, *, #989, .F. ) ;
#578 = ADVANCED_FACE ( 'NONE', ( #202 ), #983, .T. ) ;
#579 = CARTESIAN_POINT ( 'NONE',  ( -15.75000000000000000, 0.000000000000000000, 0.000000000000000000 ) ) ;
#580 = FACE_OUTER_BOUND ( 'NONE', #1185, .T. ) ;
#581 = DIRECTION ( 'NONE',  ( -0.000000000000000000, -0.000000000000000000, -1.000000000000000000 ) ) ;
#582 = TOROIDAL_SURFACE ( 'NONE', #1265, 5.750000000000000000, 0.5000000000000000000 ) ;
#583 = ORIENTED_EDGE ( 'NONE', *, *, #178, .F. ) ;
#584 = DIRECTION ( 'NONE',  ( -1.000000000000000000, 0.000000000000000000, 0.000000000000000000 ) ) ;
#585 = EDGE_CURVE ( 'NONE', #739, #727, #1201, .T. ) ;
#586 = DIRECTION ( 'NONE',  ( -1.000000000000000000, 0.000000000000000000, 0.000000000000000000 ) ) ;
#587 = PLANE ( 'NONE',  #320 ) ;
#588 = PLANE ( 'NONE',  #712 ) ;
#589 = ORIENTED_EDGE ( 'NONE', *, *, #1137, .F. ) ;
#590 = DIRECTION ( 'NONE',  ( -0.000000000000000000, 0.000000000000000000, -1.000000000000000000 ) ) ;
#591 = ADVANCED_FACE ( 'NONE', ( #504, #187 ), #390, .T. ) ;
#592 = CARTESIAN_POINT ( 'NONE',  ( -15.75000000000000000, 1.000000000000000000, 6.250000000000000000 ) ) ;
#593 = DIRECTION ( 'NONE',  ( -1.000000000000000000, -1.283953296258157600E-32, 0.000000000000000000 ) ) ;
#594 = DIRECTION ( 'NONE',  ( 0.000000000000000000, -1.000000000000000000, 0.000000000000000000 ) ) ;
#595 = AXIS2_PLACEMENT_3D ( 'NONE', #498, #126, #192 ) ;
#596 = VERTEX_POINT ( 'NONE', #195 ) ;
#597 = AXIS2_PLACEMENT_3D ( 'NONE', #615, #1216, #921 ) ;
#598 = CARTESIAN_POINT ( 'NONE',  ( -8.500000000000001776, 7.750000000000002665, -5.750000000000000000 ) ) ;
#599 = CARTESIAN_POINT ( 'NONE',  ( -8.500000000000001776, 7.750000000000002665, 5.750000000000000000 ) ) ;
#600 = CARTESIAN_POINT ( 'NONE',  ( -8.500000000000001776, 7.750000000000002665, -6.250000000000000000 ) ) ;
#601 = CARTESIAN_POINT ( 'NONE',  ( 10.49999999999999822, 1.000000000000000000, 6.250000000000000000 ) ) ;
#602 = ORIENTED_EDGE ( 'NONE', *, *, #205, .F. ) ;
#603 = CLOSED_SHELL ( 'NONE', ( #440, #879, #1283, #1215, #1086, #958, #555, #809, #68, #663, #529, #759, #620, #1017, #1056, #631, #661, #455, #222, #1098, #1177, #591, #310, #59, #536, #855, #919, #931, #552, #341, #1034, #165, #900, #191, #1184, #649, #278, #892, #17, #802, #1047, #1273, #1193, #578, #484, #746, #1241, #434, #686, #90 ) ) ;
#604 = DIRECTION ( 'NONE',  ( 0.000000000000000000, 0.000000000000000000, 1.000000000000000000 ) ) ;
#605 = AXIS2_PLACEMENT_3D ( 'NONE', #1187, #871, #285 ) ;
#606 = CARTESIAN_POINT ( 'NONE',  ( 6.999999999999999112, -1.925929944387235853E-31, 6.250000000000000000 ) ) ;
#607 = CARTESIAN_POINT ( 'NONE',  ( -1.898202538678397952E-15, 7.750000000000001776, 6.250000000000000000 ) ) ;
#608 = EDGE_LOOP ( 'NONE', ( #1146, #1041, #522, #717 ) ) ;
#609 = VECTOR ( 'NONE', #941, 1000.000000000000000 ) ;
#610 = ORIENTED_EDGE ( 'NONE', *, *, #178, .T. ) ;
#611 = DIRECTION ( 'NONE',  ( 1.000000000000000000, 0.000000000000000000, 0.000000000000000000 ) ) ;
#612 = LINE ( 'NONE', #10, #538 ) ;
#613 = EDGE_LOOP ( 'NONE', ( #570, #12, #569, #502 ) ) ;
#614 = CIRCLE ( 'NONE', #658, 3.299999999999997158 ) ;
#615 = CARTESIAN_POINT ( 'NONE',  ( 15.75000000000000000, 1.000000000000000000, -5.750000000000000000 ) ) ;
#616 = CARTESIAN_POINT ( 'NONE',  ( -7.000000000000000888, 3.500000000000001776, 6.250000000000000000 ) ) ;
#617 = PLANE ( 'NONE',  #1014 ) ;
#618 = VERTEX_POINT ( 'NONE', #599 ) ;
#619 = EDGE_LOOP ( 'NONE', ( #728, #1255, #781, #135 ) ) ;
#620 = ADVANCED_FACE ( 'NONE', ( #1186 ), #688, .T. ) ;
#621 = CIRCLE ( 'NONE', #224, 3.499999999999999556 ) ;
#622 = DIRECTION ( 'NONE',  ( -0.000000000000000000, -0.000000000000000000, -1.000000000000000000 ) ) ;
#623 = LINE ( 'NONE', #197, #1147 ) ;
#624 = VECTOR ( 'NONE', #429, 1000.000000000000000 ) ;
#625 = CARTESIAN_POINT ( 'NONE',  ( -1.898202538678397952E-15, 7.750000000000001776, 6.250000000000000000 ) ) ;
#626 = ORIENTED_EDGE ( 'NONE', *, *, #667, .F. ) ;
#627 = AXIS2_PLACEMENT_3D ( 'NONE', #235, #926, #333 ) ;
#628 = FACE_OUTER_BOUND ( 'NONE', #507, .T. ) ;
#629 = EDGE_CURVE ( 'NONE', #1253, #1253, #806, .T. ) ;
#630 = CARTESIAN_POINT ( 'NONE',  ( 10.49999999999999822, 1.000000000000000000, -6.250000000000000000 ) ) ;
#631 = ADVANCED_FACE ( 'NONE', ( #774, #491 ), #479, .T. ) ;
#632 = CARTESIAN_POINT ( 'NONE',  ( -8.000000000000000000, 3.500000000000001332, 6.250000000000000000 ) ) ;
#633 = ORIENTED_EDGE ( 'NONE', *, *, #1153, .F. ) ;
#634 = ORIENTED_EDGE ( 'NONE', *, *, #761, .T. ) ;
#635 = TOROIDAL_SURFACE ( 'NONE', #595, 8.000000000000000000, 0.5000000000000000000 ) ;
#636 = DIRECTION ( 'NONE',  ( 2.238352872228138170E-16, -1.000000000000000000, 0.000000000000000000 ) ) ;
#637 = PRODUCT ( 'Part1', 'Part1', '', ( #1091 ) ) ;
#638 = CYLINDRICAL_SURFACE ( 'NONE', #71, 7.000000000000000000 ) ;
#639 = EDGE_LOOP ( 'NONE', ( #640, #312, #356, #1009 ) ) ;
#640 = ORIENTED_EDGE ( 'NONE', *, *, #397, .F. ) ;
#641 = AXIS2_PLACEMENT_3D ( 'NONE', #1026, #148, #423 ) ;
#642 = DIRECTION ( 'NONE',  ( 0.000000000000000000, 1.000000000000000000, 0.000000000000000000 ) ) ;
#643 = VECTOR ( 'NONE', #690, 1000.000000000000000 ) ;
#644 = LINE ( 'NONE', #1044, #624 ) ;
#645 = EDGE_CURVE ( 'NONE', #961, #961, #904, .T. ) ;
#646 = CYLINDRICAL_SURFACE ( 'NONE', #342, 3.499999999999999556 ) ;
#647 = EDGE_LOOP ( 'NONE', ( #199, #753, #589, #1213 ) ) ;
#648 = ORIENTED_EDGE ( 'NONE', *, *, #194, .T. ) ;
#649 = ADVANCED_FACE ( 'NONE', ( #180 ), #1218, .T. ) ;
#650 = FACE_OUTER_BOUND ( 'NONE', #1004, .T. ) ;
#651 = DIRECTION ( 'NONE',  ( 1.283953296258157600E-32, 1.000000000000000000, -0.000000000000000000 ) ) ;
#652 = DIRECTION ( 'NONE',  ( -0.000000000000000000, -0.000000000000000000, -1.000000000000000000 ) ) ;
#653 = EDGE_LOOP ( 'NONE', ( #1277 ) ) ;
#654 = ORIENTED_EDGE ( 'NONE', *, *, #317, .F. ) ;
#655 = CARTESIAN_POINT ( 'NONE',  ( -7.000000000000002665, 7.750000000000000000, 6.250000000000000000 ) ) ;
#656 = MECHANICAL_DESIGN_GEOMETRIC_PRESENTATION_REPRESENTATION (  '', ( #1119 ), #302 ) ;
#657 = DIRECTION ( 'NONE',  ( 0.000000000000000000, 0.000000000000000000, 1.000000000000000000 ) ) ;
#658 = AXIS2_PLACEMENT_3D ( 'NONE', #999, #992, #95 ) ;
#659 = CARTESIAN_POINT ( 'NONE',  ( -10.49999999999999822, 1.000000000000000000, -6.250000000000000000 ) ) ;
#660 = ORIENTED_EDGE ( 'NONE', *, *, #348, .F. ) ;
#661 = ADVANCED_FACE ( 'NONE', ( #564 ), #270, .F. ) ;
#662 = VERTEX_POINT ( 'NONE', #694 ) ;
#663 = ADVANCED_FACE ( 'NONE', ( #463 ), #790, .T. ) ;
#664 =( NAMED_UNIT ( * ) SI_UNIT ( $, .STERADIAN. ) SOLID_ANGLE_UNIT ( ) );
#665 = CARTESIAN_POINT ( 'NONE',  ( 15.75000000000000000, 1.500000000000000000, 0.000000000000000000 ) ) ;
#666 = CONICAL_SURFACE ( 'NONE', #100, 4.000000000000000000, 0.8726646259971649888 ) ;
#667 = EDGE_CURVE ( 'NONE', #63, #826, #888, .T. ) ;
#668 = FILL_AREA_STYLE_COLOUR ( '', #282 ) ;
#669 = VECTOR ( 'NONE', #67, 1000.000000000000000 ) ;
#670 = DIRECTION ( 'NONE',  ( -0.000000000000000000, 0.000000000000000000, -1.000000000000000000 ) ) ;
#671 = ORIENTED_EDGE ( 'NONE', *, *, #730, .F. ) ;
#672 = LINE ( 'NONE', #1070, #1076 ) ;
#673 = VERTEX_POINT ( 'NONE', #458 ) ;
#674 = CARTESIAN_POINT ( 'NONE',  ( -15.75000000000000000, 1.000000000000000000, 0.000000000000000000 ) ) ;
#675 = FACE_OUTER_BOUND ( 'NONE', #1122, .T. ) ;
#676 = LINE ( 'NONE', #771, #692 ) ;
#677 = EDGE_CURVE ( 'NONE', #543, #352, #1089, .T. ) ;
#678 = ORIENTED_EDGE ( 'NONE', *, *, #875, .T. ) ;
#679 = CARTESIAN_POINT ( 'NONE',  ( -8.500000000000000000, 3.500000000000000888, -5.750000000000000000 ) ) ;
#680 = AXIS2_PLACEMENT_3D ( 'NONE', #1078, #657, #974 ) ;
#681 = CARTESIAN_POINT ( 'NONE',  ( 15.75000000000000000, 0.000000000000000000, 0.000000000000000000 ) ) ;
#682 = CIRCLE ( 'NONE', #1035, 2.000000000000000000 ) ;
#683 = DIRECTION ( 'NONE',  ( -0.000000000000000000, 1.000000000000000000, -0.000000000000000000 ) ) ;
#684 = CARTESIAN_POINT ( 'NONE',  ( 10.49999999999999822, 1.000000000000000000, -5.750000000000000000 ) ) ;
#685 = AXIS2_PLACEMENT_3D ( 'NONE', #103, #1006, #392 ) ;
#686 = ADVANCED_FACE ( 'NONE', ( #1166 ), #1101, .T. ) ;
#687 = ORIENTED_EDGE ( 'NONE', *, *, #212, .F. ) ;
#688 = PLANE ( 'NONE',  #1106 ) ;
#689 = FACE_OUTER_BOUND ( 'NONE', #364, .T. ) ;
#690 = DIRECTION ( 'NONE',  ( -0.000000000000000000, -0.000000000000000000, -1.000000000000000000 ) ) ;
#691 = EDGE_CURVE ( 'NONE', #146, #727, #1259, .T. ) ;
#692 = VECTOR ( 'NONE', #1171, 1000.000000000000000 ) ;
#693 = VERTEX_POINT ( 'NONE', #365 ) ;
#694 = CARTESIAN_POINT ( 'NONE',  ( 15.75000000000000000, 1.500000000000000000, -5.750000000000000000 ) ) ;
#695 = EDGE_CURVE ( 'NONE', #1097, #477, #1264, .T. ) ;
#696 = EDGE_CURVE ( 'NONE', #462, #232, #672, .T. ) ;
#697 = DIRECTION ( 'NONE',  ( 0.000000000000000000, 0.000000000000000000, 1.000000000000000000 ) ) ;
#698 = PRODUCT_RELATED_PRODUCT_CATEGORY ( 'part', '', ( #637 ) ) ;
#699 = CARTESIAN_POINT ( 'NONE',  ( 8.499999999999998224, 3.500000000000000888, -6.250000000000000000 ) ) ;
#700 = DIRECTION ( 'NONE',  ( -1.000000000000000000, 1.283953296258157600E-32, 0.000000000000000000 ) ) ;
#701 = VERTEX_POINT ( 'NONE', #77 ) ;
#702 = CARTESIAN_POINT ( 'NONE',  ( 10.49999999999999822, 1.500000000000000000, 6.250000000000000000 ) ) ;
#703 = DIRECTION ( 'NONE',  ( 0.000000000000000000, 0.000000000000000000, 1.000000000000000000 ) ) ;
#704 = FACE_OUTER_BOUND ( 'NONE', #6, .T. ) ;
#705 = DIRECTION ( 'NONE',  ( -0.000000000000000000, -0.000000000000000000, -1.000000000000000000 ) ) ;
#706 = AXIS2_PLACEMENT_3D ( 'NONE', #757, #74, #274 ) ;
#707 = VERTEX_POINT ( 'NONE', #295 ) ;
#708 = DIRECTION ( 'NONE',  ( 4.476705744456276341E-16, -1.000000000000000000, -0.000000000000000000 ) ) ;
#709 = DIRECTION ( 'NONE',  ( -1.000000000000000000, 0.000000000000000000, 0.000000000000000000 ) ) ;
#710 = CARTESIAN_POINT ( 'NONE',  ( 6.999999999999998224, 7.750000000000002665, 6.250000000000000000 ) ) ;
#711 = EDGE_LOOP ( 'NONE', ( #1 ) ) ;
#712 = AXIS2_PLACEMENT_3D ( 'NONE', #860, #670, #1068 ) ;
#713 = CIRCLE ( 'NONE', #540, 8.500000000000000000 ) ;
#714 = EDGE_LOOP ( 'NONE', ( #849, #336, #150, #812 ) ) ;
#715 = CARTESIAN_POINT ( 'NONE',  ( -7.000000000000002665, 7.750000000000000000, -6.250000000000000000 ) ) ;
#716 = EDGE_LOOP ( 'NONE', ( #221, #91, #357, #351 ) ) ;
#717 = ORIENTED_EDGE ( 'NONE', *, *, #240, .T. ) ;
#718 = DIRECTION ( 'NONE',  ( -1.000000000000000000, 0.000000000000000000, 0.000000000000000000 ) ) ;
#719 = DIRECTION ( 'NONE',  ( -0.000000000000000000, 1.000000000000000000, -0.000000000000000000 ) ) ;
#720 = DIRECTION ( 'NONE',  ( 1.000000000000000000, 0.000000000000000000, 0.000000000000000000 ) ) ;
#721 = EDGE_CURVE ( 'NONE', #887, #374, #371, .T. ) ;
#722 = EDGE_LOOP ( 'NONE', ( #862, #557, #1284, #207 ) ) ;
#723 = CIRCLE ( 'NONE', #1181, 8.000000000000000000 ) ;
#724 = DIRECTION ( 'NONE',  ( -1.000000000000000000, -4.476705744456276341E-16, 0.000000000000000000 ) ) ;
#725 = DIRECTION ( 'NONE',  ( -0.000000000000000000, -0.000000000000000000, -1.000000000000000000 ) ) ;
#726 = DIRECTION ( 'NONE',  ( -0.000000000000000000, -0.000000000000000000, -1.000000000000000000 ) ) ;
#727 = VERTEX_POINT ( 'NONE', #679 ) ;
#728 = ORIENTED_EDGE ( 'NONE', *, *, #987, .T. ) ;
#729 = EDGE_CURVE ( 'NONE', #693, #425, #159, .T. ) ;
#730 = EDGE_CURVE ( 'NONE', #1128, #772, #1179, .T. ) ;
#731 = DIRECTION ( 'NONE',  ( -1.000000000000000000, 0.000000000000000000, 0.000000000000000000 ) ) ;
#732 = CARTESIAN_POINT ( 'NONE',  ( 7.999999999999996447, 7.750000000000002665, 5.750000000000000000 ) ) ;
#733 = DIRECTION ( 'NONE',  ( -1.000000000000000000, 0.000000000000000000, 0.000000000000000000 ) ) ;
#734 = VERTEX_POINT ( 'NONE', #542 ) ;
#735 = ORIENTED_EDGE ( 'NONE', *, *, #1059, .F. ) ;
#736 = FACE_OUTER_BOUND ( 'NONE', #647, .T. ) ;
#737 = FACE_OUTER_BOUND ( 'NONE', #1234, .T. ) ;
#738 = FACE_OUTER_BOUND ( 'NONE', #1250, .T. ) ;
#739 = VERTEX_POINT ( 'NONE', #598 ) ;
#740 = AXIS2_PLACEMENT_3D ( 'NONE', #674, #962, #586 ) ;
#741 = ORIENTED_EDGE ( 'NONE', *, *, #861, .T. ) ;
#742 = VECTOR ( 'NONE', #574, 1000.000000000000000 ) ;
#743 = DIRECTION ( 'NONE',  ( -1.000000000000000000, 1.283953296258157600E-32, 0.000000000000000000 ) ) ;
#744 = SURFACE_STYLE_FILL_AREA ( #52 ) ;
#745 = ORIENTED_EDGE ( 'NONE', *, *, #783, .T. ) ;
#746 = ADVANCED_FACE ( 'NONE', ( #738 ), #1027, .T. ) ;
#747 = VERTEX_POINT ( 'NONE', #632 ) ;
#748 = AXIS2_PLACEMENT_3D ( 'NONE', #948, #927, #1155 ) ;
#749 = LINE ( 'NONE', #865, #566 ) ;
#750 = CARTESIAN_POINT ( 'NONE',  ( 6.999999999999999112, -1.925929944387235853E-31, -6.250000000000000000 ) ) ;
#751 = CYLINDRICAL_SURFACE ( 'NONE', #319, 3.299999999999993161 ) ;
#752 = ORIENTED_EDGE ( 'NONE', *, *, #420, .T. ) ;
#753 = ORIENTED_EDGE ( 'NONE', *, *, #1040, .F. ) ;
#754 = AXIS2_PLACEMENT_3D ( 'NONE', #309, #731, #828 ) ;
#755 = DIRECTION ( 'NONE',  ( 1.000000000000000000, 0.000000000000000000, -0.000000000000000000 ) ) ;
#756 = FACE_OUTER_BOUND ( 'NONE', #1240, .T. ) ;
#757 = CARTESIAN_POINT ( 'NONE',  ( -8.000000000000001776, 7.750000000000001776, 5.750000000000000000 ) ) ;
#758 = VERTEX_POINT ( 'NONE', #1200 ) ;
#759 = ADVANCED_FACE ( 'NONE', ( #430 ), #617, .T. ) ;
#760 = ORIENTED_EDGE ( 'NONE', *, *, #824, .F. ) ;
#761 = EDGE_CURVE ( 'NONE', #1221, #912, #1219, .T. ) ;
#762 = DIRECTION ( 'NONE',  ( -1.000000000000000000, -1.283953296258157600E-32, 0.000000000000000000 ) ) ;
#763 = DIRECTION ( 'NONE',  ( -0.000000000000000000, -0.000000000000000000, -1.000000000000000000 ) ) ;
#764 = ORIENTED_EDGE ( 'NONE', *, *, #915, .F. ) ;
#765 = DIRECTION ( 'NONE',  ( -0.000000000000000000, -0.000000000000000000, -1.000000000000000000 ) ) ;
#766 = EDGE_CURVE ( 'NONE', #880, #256, #1038, .T. ) ;
#767 = FACE_OUTER_BOUND ( 'NONE', #854, .T. ) ;
#768 = CARTESIAN_POINT ( 'NONE',  ( 7.999999999999998224, 7.750000000000006217, -6.250000000000000000 ) ) ;
#769 = VECTOR ( 'NONE', #506, 1000.000000000000000 ) ;
#770 = DIRECTION ( 'NONE',  ( 0.000000000000000000, 0.000000000000000000, 1.000000000000000000 ) ) ;
#771 = CARTESIAN_POINT ( 'NONE',  ( -8.499999999999998224, -6.715058616684415990E-16, 5.750000000000000000 ) ) ;
#772 = VERTEX_POINT ( 'NONE', #417 ) ;
#773 = VECTOR ( 'NONE', #1143, 1000.000000000000000 ) ;
#774 = FACE_BOUND ( 'NONE', #329, .T. ) ;
#775 = AXIS2_PLACEMENT_3D ( 'NONE', #545, #272, #57 ) ;
#776 = EDGE_CURVE ( 'NONE', #483, #63, #682, .T. ) ;
#777 = DIRECTION ( 'NONE',  ( -0.000000000000000000, 1.000000000000000000, 0.000000000000000000 ) ) ;
#778 = CARTESIAN_POINT ( 'NONE',  ( -8.500000000000000000, 1.000000000000000000, 6.250000000000000000 ) ) ;
#779 = CARTESIAN_POINT ( 'NONE',  ( 7.999999999999998224, 1.499999999999999334, 6.250000000000000000 ) ) ;
#780 = CIRCLE ( 'NONE', #1114, 4.000000000000000000 ) ;
#781 = ORIENTED_EDGE ( 'NONE', *, *, #263, .F. ) ;
#782 = DIRECTION ( 'NONE',  ( 1.283953296258157600E-32, 1.000000000000000000, -0.000000000000000000 ) ) ;
#783 = EDGE_CURVE ( 'NONE', #256, #462, #1202, .T. ) ;
#784 = VECTOR ( 'NONE', #72, 1000.000000000000000 ) ;
#785 = DIRECTION ( 'NONE',  ( 0.000000000000000000, 0.000000000000000000, 1.000000000000000000 ) ) ;
#786 = DIRECTION ( 'NONE',  ( -1.000000000000000000, 0.000000000000000000, 0.000000000000000000 ) ) ;
#787 = VECTOR ( 'NONE', #792, 1000.000000000000000 ) ;
#788 = ORIENTED_EDGE ( 'NONE', *, *, #1168, .T. ) ;
#789 = EDGE_CURVE ( 'NONE', #772, #1097, #343, .T. ) ;
#790 = PLANE ( 'NONE',  #550 ) ;
#791 = PLANE ( 'NONE',  #680 ) ;
#792 = DIRECTION ( 'NONE',  ( -0.000000000000000000, -0.000000000000000000, -1.000000000000000000 ) ) ;
#793 = DIRECTION ( 'NONE',  ( -1.283953296258157600E-32, -1.000000000000000000, 0.000000000000000000 ) ) ;
#794 = AXIS2_PLACEMENT_3D ( 'NONE', #299, #910, #1118 ) ;
#795 = EDGE_LOOP ( 'NONE', ( #262 ) ) ;
#796 = CARTESIAN_POINT ( 'NONE',  ( -15.75000000000000000, 1.500000000000000000, -5.750000000000000000 ) ) ;
#797 = DIRECTION ( 'NONE',  ( -1.000000000000000000, 1.283953296258157600E-32, 0.000000000000000000 ) ) ;
#798 = LINE ( 'NONE', #385, #1220 ) ;
#799 = LINE ( 'NONE', #1198, #1022 ) ;
#800 = EDGE_LOOP ( 'NONE', ( #14, #413, #115, #850 ) ) ;
#801 = CARTESIAN_POINT ( 'NONE',  ( 10.49999999999999822, 1.500000000000000000, 6.250000000000000000 ) ) ;
#802 = ADVANCED_FACE ( 'NONE', ( #841 ), #635, .T. ) ;
#803 = CARTESIAN_POINT ( 'NONE',  ( 10.49999999999999822, 3.500000000000000444, 6.250000000000000000 ) ) ;
#804 = LINE ( 'NONE', #1294, #787 ) ;
#805 = CARTESIAN_POINT ( 'NONE',  ( -15.75000000000000000, 1.000000000000000000, -6.250000000000000000 ) ) ;
#806 = CIRCLE ( 'NONE', #883, 3.299999999999994049 ) ;
#807 = ORIENTED_EDGE ( 'NONE', *, *, #917, .T. ) ;
#808 = ORIENTED_EDGE ( 'NONE', *, *, #471, .F. ) ;
#809 = ADVANCED_FACE ( 'NONE', ( #301 ), #1237, .T. ) ;
#810 = DIRECTION ( 'NONE',  ( 1.000000000000000000, 0.000000000000000000, 0.000000000000000000 ) ) ;
#811 = CARTESIAN_POINT ( 'NONE',  ( -8.000000000000000000, 3.500000000000001332, 5.750000000000000000 ) ) ;
#812 = ORIENTED_EDGE ( 'NONE', *, *, #317, .T. ) ;
#813 = AXIS2_PLACEMENT_3D ( 'NONE', #607, #705, #1295 ) ;
#814 = CARTESIAN_POINT ( 'NONE',  ( -15.75000000000000000, 1.500000000000000000, 5.750000000000000000 ) ) ;
#815 = EDGE_CURVE ( 'NONE', #1145, #232, #226, .T. ) ;
#816 = LINE ( 'NONE', #616, #452 ) ;
#817 = ORIENTED_EDGE ( 'NONE', *, *, #495, .T. ) ;
#818 = EDGE_LOOP ( 'NONE', ( #874, #1016, #817, #1141 ) ) ;
#819 = VECTOR ( 'NONE', #708, 1000.000000000000000 ) ;
#820 = CYLINDRICAL_SURFACE ( 'NONE', #332, 0.5000000000000004441 ) ;
#821 = FACE_OUTER_BOUND ( 'NONE', #1263, .T. ) ;
#822 = CARTESIAN_POINT ( 'NONE',  ( 10.49999999999999822, 3.500000000000000444, 5.750000000000000000 ) ) ;
#823 = ORIENTED_EDGE ( 'NONE', *, *, #448, .T. ) ;
#824 = EDGE_CURVE ( 'NONE', #456, #832, #1138, .T. ) ;
#825 = AXIS2_PLACEMENT_3D ( 'NONE', #85, #64, #966 ) ;
#826 = VERTEX_POINT ( 'NONE', #1292 ) ;
#827 = CIRCLE ( 'NONE', #597, 0.5000000000000004441 ) ;
#828 = DIRECTION ( 'NONE',  ( 0.000000000000000000, 0.000000000000000000, 1.000000000000000000 ) ) ;
#829 = DIRECTION ( 'NONE',  ( -0.000000000000000000, -0.000000000000000000, 1.000000000000000000 ) ) ;
#830 = DIRECTION ( 'NONE',  ( -4.476705744456276341E-16, 1.000000000000000000, 0.000000000000000000 ) ) ;
#831 = ORIENTED_EDGE ( 'NONE', *, *, #761, .F. ) ;
#832 = VERTEX_POINT ( 'NONE', #396 ) ;
#833 = VECTOR ( 'NONE', #993, 1000.000000000000000 ) ;
#834 = DIRECTION ( 'NONE',  ( 0.000000000000000000, 0.000000000000000000, 1.000000000000000000 ) ) ;
#835 = CARTESIAN_POINT ( 'NONE',  ( 15.75000000000000000, 1.000000000000000000, 0.000000000000000000 ) ) ;
#836 = DIRECTION ( 'NONE',  ( -1.000000000000000000, 0.000000000000000000, 0.000000000000000000 ) ) ;
#837 = ORIENTED_EDGE ( 'NONE', *, *, #729, .F. ) ;
#838 = ORIENTED_EDGE ( 'NONE', *, *, #249, .T. ) ;
#839 = CARTESIAN_POINT ( 'NONE',  ( 15.75000000000000000, 0.9126302581759005994, 3.299999999999997158 ) ) ;
#840 = CARTESIAN_POINT ( 'NONE',  ( 6.999999999999997335, 7.750000000000000000, 6.250000000000000000 ) ) ;
#841 = FACE_OUTER_BOUND ( 'NONE', #380, .T. ) ;
#842 = EDGE_LOOP ( 'NONE', ( #42, #823, #838, #446 ) ) ;
#843 = AXIS2_PLACEMENT_3D ( 'NONE', #896, #290, #1094 ) ;
#844 = ORIENTED_EDGE ( 'NONE', *, *, #863, .F. ) ;
#845 = VECTOR ( 'NONE', #252, 1000.000000000000000 ) ;
#846 = AXIS2_PLACEMENT_3D ( 'NONE', #1095, #683, #1197 ) ;
#847 =( LENGTH_UNIT ( ) NAMED_UNIT ( * ) SI_UNIT ( .MILLI., .METRE. ) );
#848 = CARTESIAN_POINT ( 'NONE',  ( -8.000000000000001776, 7.750000000000002665, -5.750000000000000000 ) ) ;
#849 = ORIENTED_EDGE ( 'NONE', *, *, #721, .F. ) ;
#850 = ORIENTED_EDGE ( 'NONE', *, *, #1285, .T. ) ;
#851 = FACE_OUTER_BOUND ( 'NONE', #1165, .T. ) ;
#852 = LINE ( 'NONE', #750, #1042 ) ;
#853 = EDGE_CURVE ( 'NONE', #758, #300, #111, .T. ) ;
#854 = EDGE_LOOP ( 'NONE', ( #1270, #418, #687, #944 ) ) ;
#855 = ADVANCED_FACE ( 'NONE', ( #1020 ), #638, .F. ) ;
#856 = VERTEX_POINT ( 'NONE', #1226 ) ;
#857 = PRODUCT_DEFINITION_SHAPE ( 'NONE', 'NONE',  #358 ) ;
#858 = CARTESIAN_POINT ( 'NONE',  ( -10.50000000000000000, 1.000000000000000000, 6.250000000000000000 ) ) ;
#859 = DIRECTION ( 'NONE',  ( 1.000000000000000000, 0.000000000000000000, 0.000000000000000000 ) ) ;
#860 = CARTESIAN_POINT ( 'NONE',  ( -7.000000000000000888, 3.500000000000001776, -6.250000000000000000 ) ) ;
#861 = EDGE_CURVE ( 'NONE', #1291, #772, #576, .T. ) ;
#862 = ORIENTED_EDGE ( 'NONE', *, *, #1229, .T. ) ;
#863 = EDGE_CURVE ( 'NONE', #1221, #154, #928, .T. ) ;
#864 = CARTESIAN_POINT ( 'NONE',  ( -15.75000000000000000, 3.500000000000000888, 6.250000000000000000 ) ) ;
#865 = CARTESIAN_POINT ( 'NONE',  ( 15.75000000000000000, 3.500000000000000444, 6.250000000000000000 ) ) ;
#866 = CARTESIAN_POINT ( 'NONE',  ( -7.000000000000002665, 7.750000000000000000, 6.250000000000000000 ) ) ;
#867 = ORIENTED_EDGE ( 'NONE', *, *, #496, .T. ) ;
#868 = DIRECTION ( 'NONE',  ( -1.000000000000000000, 1.283953296258157327E-32, 0.000000000000000000 ) ) ;
#869 = UNCERTAINTY_MEASURE_WITH_UNIT (LENGTH_MEASURE( 1.000000000000000082E-05 ), #847, 'distance_accuracy_value', 'NONE');
#870 = SHAPE_DEFINITION_REPRESENTATION ( #857, #474 ) ;
#871 = DIRECTION ( 'NONE',  ( -0.000000000000000000, -0.000000000000000000, -1.000000000000000000 ) ) ;
#872 = PLANE ( 'NONE',  #132 ) ;
#873 = ORIENTED_EDGE ( 'NONE', *, *, #454, .T. ) ;
#874 = ORIENTED_EDGE ( 'NONE', *, *, #789, .T. ) ;
#875 = EDGE_CURVE ( 'NONE', #547, #758, #361, .T. ) ;
#876 = DIRECTION ( 'NONE',  ( 0.000000000000000000, 1.000000000000000000, 0.000000000000000000 ) ) ;
#877 = DIRECTION ( 'NONE',  ( -1.000000000000000000, -1.283953296258157874E-32, 0.000000000000000000 ) ) ;
#878 = DIRECTION ( 'NONE',  ( -2.238352872228138170E-16, 1.000000000000000000, -0.000000000000000000 ) ) ;
#879 = ADVANCED_FACE ( 'NONE', ( #963 ), #955, .T. ) ;
#880 = VERTEX_POINT ( 'NONE', #266 ) ;
#881 = CARTESIAN_POINT ( 'NONE',  ( 10.49999999999999822, 1.500000000000000000, 6.250000000000000000 ) ) ;
#882 = LINE ( 'NONE', #559, #1228 ) ;
#883 = AXIS2_PLACEMENT_3D ( 'NONE', #579, #782, #868 ) ;
#884 = CARTESIAN_POINT ( 'NONE',  ( -10.50000000000000000, 1.000000000000000000, -5.750000000000000000 ) ) ;
#885 = FACE_OUTER_BOUND ( 'NONE', #1209, .T. ) ;
#886 = VECTOR ( 'NONE', #182, 1000.000000000000000 ) ;
#887 = VERTEX_POINT ( 'NONE', #1045 ) ;
#888 = LINE ( 'NONE', #881, #363 ) ;
#889 = CARTESIAN_POINT ( 'NONE',  ( -8.499999999999998224, -6.715058616684415990E-16, -5.750000000000000000 ) ) ;
#890 = FACE_OUTER_BOUND ( 'NONE', #1074, .T. ) ;
#891 = FACE_OUTER_BOUND ( 'NONE', #711, .T. ) ;
#892 = ADVANCED_FACE ( 'NONE', ( #163 ), #1072, .T. ) ;
#893 = ORIENTED_EDGE ( 'NONE', *, *, #78, .T. ) ;
#894 = DIRECTION ( 'NONE',  ( 1.000000000000000000, 0.000000000000000000, -0.000000000000000000 ) ) ;
#895 = VECTOR ( 'NONE', #1058, 1000.000000000000000 ) ;
#896 = CARTESIAN_POINT ( 'NONE',  ( -6.999999999999999112, -1.925929944387235853E-31, 6.250000000000000000 ) ) ;
#897 = FACE_OUTER_BOUND ( 'NONE', #639, .T. ) ;
#898 = DIRECTION ( 'NONE',  ( 8.673617379884026597E-16, -1.000000000000000000, -3.009265538105050415E-30 ) ) ;
#899 = EDGE_LOOP ( 'NONE', ( #978, #431, #844, #1029 ) ) ;
#900 = ADVANCED_FACE ( 'NONE', ( #675, #1163 ), #751, .F. ) ;
#901 = MANIFOLD_SOLID_BREP ( 'Fillet3', #603 ) ;
#902 = LINE ( 'NONE', #1289, #886 ) ;
#903 = CARTESIAN_POINT ( 'NONE',  ( -15.75000000000000000, 1.000000000000000000, -5.750000000000000000 ) ) ;
#904 = CIRCLE ( 'NONE', #825, 3.299999999999995826 ) ;
#905 = AXIS2_PLACEMENT_3D ( 'NONE', #481, #291, #877 ) ;
#906 = ORIENTED_EDGE ( 'NONE', *, *, #1100, .T. ) ;
#907 = ORIENTED_EDGE ( 'NONE', *, *, #971, .F. ) ;
#908 = EDGE_CURVE ( 'NONE', #701, #856, #349, .T. ) ;
#909 = DIRECTION ( 'NONE',  ( 0.000000000000000000, 0.000000000000000000, -1.000000000000000000 ) ) ;
#910 = DIRECTION ( 'NONE',  ( -0.000000000000000000, -0.000000000000000000, 1.000000000000000000 ) ) ;
#911 = ORIENTED_EDGE ( 'NONE', *, *, #815, .F. ) ;
#912 = VERTEX_POINT ( 'NONE', #1144 ) ;
#913 = DIRECTION ( 'NONE',  ( 0.000000000000000000, 1.000000000000000000, 0.000000000000000000 ) ) ;
#914 = DIRECTION ( 'NONE',  ( 1.000000000000000000, -1.283953296258157327E-32, 0.000000000000000000 ) ) ;
#915 = EDGE_CURVE ( 'NONE', #402, #618, #531, .T. ) ;
#916 = DIRECTION ( 'NONE',  ( 1.000000000000000000, -1.283953296258157600E-32, 0.000000000000000000 ) ) ;
#917 = EDGE_CURVE ( 'NONE', #154, #260, #259, .T. ) ;
#918 = EDGE_LOOP ( 'NONE', ( #345 ) ) ;
#919 = ADVANCED_FACE ( 'NONE', ( #473 ), #872, .F. ) ;
#920 = ORIENTED_EDGE ( 'NONE', *, *, #629, .F. ) ;
#921 = DIRECTION ( 'NONE',  ( 0.000000000000000000, 0.000000000000000000, 1.000000000000000000 ) ) ;
#922 = LINE ( 'NONE', #340, #773 ) ;
#923 = CARTESIAN_POINT ( 'NONE',  ( -22.00000000000000000, 0.000000000000000000, -6.250000000000000000 ) ) ;
#924 = ORIENTED_EDGE ( 'NONE', *, *, #696, .T. ) ;
#925 = AXIS2_PLACEMENT_3D ( 'NONE', #1173, #376, #584 ) ;
#926 = DIRECTION ( 'NONE',  ( -0.000000000000000000, -0.000000000000000000, -1.000000000000000000 ) ) ;
#927 = DIRECTION ( 'NONE',  ( -0.000000000000000000, -0.000000000000000000, -1.000000000000000000 ) ) ;
#928 = LINE ( 'NONE', #32, #845 ) ;
#929 = ORIENTED_EDGE ( 'NONE', *, *, #138, .T. ) ;
#930 = ORIENTED_EDGE ( 'NONE', *, *, #1256, .T. ) ;
#931 = ADVANCED_FACE ( 'NONE', ( #244 ), #646, .T. ) ;
#932 = CIRCLE ( 'NONE', #1191, 3.299999999999994049 ) ;
#933 = CARTESIAN_POINT ( 'NONE',  ( -15.75000000000000000, 1.500000000000000000, 4.000000000000000000 ) ) ;
#934 = PLANE ( 'NONE',  #952 ) ;
#935 = AXIS2_PLACEMENT_3D ( 'NONE', #250, #651, #551 ) ;
#936 = CARTESIAN_POINT ( 'NONE',  ( -22.00000000000000000, 1.000000000000000000, 5.750000000000000000 ) ) ;
#937 = ORIENTED_EDGE ( 'NONE', *, *, #987, .F. ) ;
#938 =( GEOMETRIC_REPRESENTATION_CONTEXT ( 3 ) GLOBAL_UNCERTAINTY_ASSIGNED_CONTEXT ( ( #869 ) ) GLOBAL_UNIT_ASSIGNED_CONTEXT ( ( #847, #1242, #664 ) ) REPRESENTATION_CONTEXT ( 'NONE', 'WORKASPACE' ) );
#939 = ORIENTED_EDGE ( 'NONE', *, *, #995, .F. ) ;
#940 = EDGE_CURVE ( 'NONE', #887, #318, #468, .T. ) ;
#941 = DIRECTION ( 'NONE',  ( 1.000000000000000000, 8.673617379884033500E-16, 0.000000000000000000 ) ) ;
#942 = CARTESIAN_POINT ( 'NONE',  ( 10.49999999999999822, 3.500000000000000444, 6.250000000000000000 ) ) ;
#943 = DIRECTION ( 'NONE',  ( -1.000000000000000000, 0.000000000000000000, 0.000000000000000000 ) ) ;
#944 = ORIENTED_EDGE ( 'NONE', *, *, #70, .F. ) ;
#945 = AXIS2_PLACEMENT_3D ( 'NONE', #1082, #972, #167 ) ;
#946 = EDGE_CURVE ( 'NONE', #1291, #543, #87, .T. ) ;
#947 = LINE ( 'NONE', #1057, #16 ) ;
#948 = CARTESIAN_POINT ( 'NONE',  ( -10.50000000000000000, 3.500000000000000000, 6.250000000000000000 ) ) ;
#949 =( NAMED_UNIT ( * ) PLANE_ANGLE_UNIT ( ) SI_UNIT ( $, .RADIAN. ) );
#950 = EDGE_LOOP ( 'NONE', ( #1116, #1199, #837, #1046 ) ) ;
#951 = EDGE_LOOP ( 'NONE', ( #1178, #253, #930, #145 ) ) ;
#952 = AXIS2_PLACEMENT_3D ( 'NONE', #37, #236, #1131 ) ;
#953 = CARTESIAN_POINT ( 'NONE',  ( -10.50000000000000000, 3.500000000000000000, 5.750000000000000000 ) ) ;
#954 = DIRECTION ( 'NONE',  ( 1.000000000000000000, 5.782411586589358625E-16, 0.000000000000000000 ) ) ;
#955 = CYLINDRICAL_SURFACE ( 'NONE', #1140, 6.249999999999999112 ) ;
#956 = ORIENTED_EDGE ( 'NONE', *, *, #2, .F. ) ;
#957 = ORIENTED_EDGE ( 'NONE', *, *, #766, .F. ) ;
#958 = ADVANCED_FACE ( 'NONE', ( #107 ), #1079, .T. ) ;
#959 = AXIS2_PLACEMENT_3D ( 'NONE', #517, #611, #909 ) ;
#960 = CARTESIAN_POINT ( 'NONE',  ( 10.49999999999999822, 3.500000000000000444, 5.750000000000000000 ) ) ;
#961 = VERTEX_POINT ( 'NONE', #359 ) ;
#962 = DIRECTION ( 'NONE',  ( -1.283953296258157600E-32, -1.000000000000000000, 0.000000000000000000 ) ) ;
#963 = FACE_OUTER_BOUND ( 'NONE', #899, .T. ) ;
#964 = DIRECTION ( 'NONE',  ( -1.000000000000000000, 1.283953296258157874E-32, 0.000000000000000000 ) ) ;
#965 = ORIENTED_EDGE ( 'NONE', *, *, #1256, .F. ) ;
#966 = DIRECTION ( 'NONE',  ( 0.000000000000000000, 0.000000000000000000, 1.000000000000000000 ) ) ;
#967 = AXIS2_PLACEMENT_3D ( 'NONE', #328, #733, #534 ) ;
#968 = DIRECTION ( 'NONE',  ( -2.238352872228138170E-16, 1.000000000000000000, 0.000000000000000000 ) ) ;
#969 = DIRECTION ( 'NONE',  ( 0.000000000000000000, 1.000000000000000000, 0.000000000000000000 ) ) ;
#970 = FACE_OUTER_BOUND ( 'NONE', #1158, .T. ) ;
#971 = EDGE_CURVE ( 'NONE', #260, #912, #1175, .T. ) ;
#972 = DIRECTION ( 'NONE',  ( -1.283953296258157600E-32, 1.000000000000000000, 0.000000000000000000 ) ) ;
#973 = EDGE_CURVE ( 'NONE', #734, #402, #723, .T. ) ;
#974 = DIRECTION ( 'NONE',  ( 1.000000000000000000, 0.000000000000000000, -0.000000000000000000 ) ) ;
#975 = AXIS2_PLACEMENT_3D ( 'NONE', #1050, #1225, #743 ) ;
#976 = DIRECTION ( 'NONE',  ( 0.000000000000000000, -1.000000000000000000, 0.000000000000000000 ) ) ;
#977 = CARTESIAN_POINT ( 'NONE',  ( 10.49999999999999822, -1.476546290696880748E-31, 6.250000000000000000 ) ) ;
#978 = ORIENTED_EDGE ( 'NONE', *, *, #677, .F. ) ;
#979 = CARTESIAN_POINT ( 'NONE',  ( -10.50000000000000000, 1.500000000000000000, -6.250000000000000000 ) ) ;
#980 = AXIS2_PLACEMENT_3D ( 'NONE', #94, #1099, #797 ) ;
#981 = AXIS2_PLACEMENT_3D ( 'NONE', #539, #117, #913 ) ;
#982 = DIRECTION ( 'NONE',  ( 1.000000000000000000, 2.238352872228138170E-16, -0.000000000000000000 ) ) ;
#983 = TOROIDAL_SURFACE ( 'NONE', #437, 2.500000000000000000, 0.5000000000000000000 ) ;
#984 = DIRECTION ( 'NONE',  ( -0.000000000000000000, 0.000000000000000000, -1.000000000000000000 ) ) ;
#985 = CARTESIAN_POINT ( 'NONE',  ( -15.75000000000000000, 0.000000000000000000, 0.000000000000000000 ) ) ;
#986 = ORIENTED_EDGE ( 'NONE', *, *, #240, .F. ) ;
#987 = EDGE_CURVE ( 'NONE', #483, #701, #804, .T. ) ;
#988 = CARTESIAN_POINT ( 'NONE',  ( -8.500000000000000000, 3.500000000000000888, 6.250000000000000000 ) ) ;
#989 = EDGE_CURVE ( 'NONE', #307, #1063, #112, .T. ) ;
#990 = CARTESIAN_POINT ( 'NONE',  ( -10.50000000000000000, 3.500000000000000000, 5.750000000000000000 ) ) ;
#991 = VECTOR ( 'NONE', #1286, 1000.000000000000000 ) ;
#992 = DIRECTION ( 'NONE',  ( -0.000000000000000000, 1.000000000000000000, -0.000000000000000000 ) ) ;
#993 = DIRECTION ( 'NONE',  ( -1.000000000000000000, 1.734723475976807489E-15, 0.000000000000000000 ) ) ;
#994 = AXIS2_PLACEMENT_3D ( 'NONE', #4, #724, #409 ) ;
#995 = EDGE_CURVE ( 'NONE', #1097, #260, #153, .T. ) ;
#996 = ORIENTED_EDGE ( 'NONE', *, *, #264, .T. ) ;
#997 = CARTESIAN_POINT ( 'NONE',  ( -10.50000000000000000, 1.500000000000000000, 6.250000000000000000 ) ) ;
#998 = CARTESIAN_POINT ( 'NONE',  ( 15.75000000000000000, 1.500000000000000000, 0.000000000000000000 ) ) ;
#999 = CARTESIAN_POINT ( 'NONE',  ( 15.75000000000000000, 0.9126302581759005994, 0.000000000000000000 ) ) ;
#1000 = AXIS2_PLACEMENT_3D ( 'NONE', #322, #1212, #225 ) ;
#1001 = DIRECTION ( 'NONE',  ( 0.000000000000000000, 0.000000000000000000, 1.000000000000000000 ) ) ;
#1002 = EDGE_CURVE ( 'NONE', #419, #307, #902, .T. ) ;
#1003 = ORIENTED_EDGE ( 'NONE', *, *, #1245, .F. ) ;
#1004 = EDGE_LOOP ( 'NONE', ( #116, #287, #583, #1246 ) ) ;
#1005 = DIRECTION ( 'NONE',  ( 1.000000000000000000, 0.000000000000000000, -0.000000000000000000 ) ) ;
#1006 = DIRECTION ( 'NONE',  ( 0.000000000000000000, 1.000000000000000000, -8.673617379884026597E-16 ) ) ;
#1007 = VECTOR ( 'NONE', #30, 1000.000000000000000 ) ;
#1008 = DIRECTION ( 'NONE',  ( 0.000000000000000000, 0.000000000000000000, 1.000000000000000000 ) ) ;
#1009 = ORIENTED_EDGE ( 'NONE', *, *, #783, .F. ) ;
#1010 = EDGE_CURVE ( 'NONE', #543, #1128, #490, .T. ) ;
#1011 = ORIENTED_EDGE ( 'NONE', *, *, #525, .F. ) ;
#1012 = DIRECTION ( 'NONE',  ( -0.000000000000000000, 0.000000000000000000, -1.000000000000000000 ) ) ;
#1013 = DIRECTION ( 'NONE',  ( -0.000000000000000000, -0.000000000000000000, -1.000000000000000000 ) ) ;
#1014 = AXIS2_PLACEMENT_3D ( 'NONE', #801, #19, #1132 ) ;
#1015 = CIRCLE ( 'NONE', #261, 3.499999999999999556 ) ;
#1016 = ORIENTED_EDGE ( 'NONE', *, *, #695, .T. ) ;
#1017 = ADVANCED_FACE ( 'NONE', ( #689 ), #587, .T. ) ;
#1018 = DIRECTION ( 'NONE',  ( 0.000000000000000000, 0.000000000000000000, 1.000000000000000000 ) ) ;
#1019 = DIRECTION ( 'NONE',  ( -0.000000000000000000, -0.000000000000000000, -1.000000000000000000 ) ) ;
#1020 = FACE_OUTER_BOUND ( 'NONE', #54, .T. ) ;
#1021 = ORIENTED_EDGE ( 'NONE', *, *, #1129, .F. ) ;
#1022 = VECTOR ( 'NONE', #914, 1000.000000000000000 ) ;
#1023 = ORIENTED_EDGE ( 'NONE', *, *, #1208, .F. ) ;
#1024 = AXIS2_PLACEMENT_3D ( 'NONE', #23, #1231, #1136 ) ;
#1025 = CARTESIAN_POINT ( 'NONE',  ( 6.999999999999999112, -1.925929944387235853E-31, 6.250000000000000000 ) ) ;
#1026 = CARTESIAN_POINT ( 'NONE',  ( 10.49999999999999822, 3.500000000000000444, -5.750000000000000000 ) ) ;
#1027 = CYLINDRICAL_SURFACE ( 'NONE', #237, 0.5000000000000000000 ) ;
#1028 = ORIENTED_EDGE ( 'NONE', *, *, #255, .F. ) ;
#1029 = ORIENTED_EDGE ( 'NONE', *, *, #89, .F. ) ;
#1030 = CARTESIAN_POINT ( 'NONE',  ( 6.999999999999999112, 1.500000000000000000, -5.750000000000000000 ) ) ;
#1031 = CYLINDRICAL_SURFACE ( 'NONE', #391, 6.249999999999999112 ) ;
#1032 = CIRCLE ( 'NONE', #740, 6.249999999999998224 ) ;
#1033 = CARTESIAN_POINT ( 'NONE',  ( -8.500000000000000000, 3.500000000000000888, 6.250000000000000000 ) ) ;
#1034 = ADVANCED_FACE ( 'NONE', ( #704, #1108 ), #176, .F. ) ;
#1035 = AXIS2_PLACEMENT_3D ( 'NONE', #822, #323, #720 ) ;
#1036 = EDGE_LOOP ( 'NONE', ( #276, #1062, #370, #548 ) ) ;
#1037 = CARTESIAN_POINT ( 'NONE',  ( 15.75000000000000000, 1.500000000000000000, 5.750000000000000000 ) ) ;
#1038 = LINE ( 'NONE', #231, #172 ) ;
#1039 = ORIENTED_EDGE ( 'NONE', *, *, #152, .F. ) ;
#1040 = EDGE_CURVE ( 'NONE', #63, #375, #798, .T. ) ;
#1041 = ORIENTED_EDGE ( 'NONE', *, *, #264, .F. ) ;
#1042 = VECTOR ( 'NONE', #1149, 1000.000000000000000 ) ;
#1043 = DIRECTION ( 'NONE',  ( -4.476705744456276341E-16, 1.000000000000000000, 0.000000000000000000 ) ) ;
#1044 = CARTESIAN_POINT ( 'NONE',  ( 8.499999999999996447, 7.750000000000000000, 5.750000000000000000 ) ) ;
#1045 = CARTESIAN_POINT ( 'NONE',  ( 10.49999999999999822, 1.000000000000000444, 6.250000000000000000 ) ) ;
#1046 = ORIENTED_EDGE ( 'NONE', *, *, #1092, .F. ) ;
#1047 = ADVANCED_FACE ( 'NONE', ( #580 ), #215, .T. ) ;
#1048 = ORIENTED_EDGE ( 'NONE', *, *, #296, .T. ) ;
#1049 = CYLINDRICAL_SURFACE ( 'NONE', #775, 0.5000000000000004441 ) ;
#1050 = CARTESIAN_POINT ( 'NONE',  ( -22.00000000000000000, 0.000000000000000000, 6.250000000000000000 ) ) ;
#1051 = DIRECTION ( 'NONE',  ( 1.000000000000000000, 0.000000000000000000, 0.000000000000000000 ) ) ;
#1052 = ORIENTED_EDGE ( 'NONE', *, *, #691, .F. ) ;
#1053 = ORIENTED_EDGE ( 'NONE', *, *, #40, .F. ) ;
#1054 = VECTOR ( 'NONE', #1271, 1000.000000000000000 ) ;
#1055 = AXIS2_PLACEMENT_3D ( 'NONE', #600, #500, #82 ) ;
#1056 = ADVANCED_FACE ( 'NONE', ( #1281, #890 ), #188, .F. ) ;
#1057 = CARTESIAN_POINT ( 'NONE',  ( 8.499999999999996447, 7.750000000000002665, 6.250000000000000000 ) ) ;
#1058 = DIRECTION ( 'NONE',  ( 2.238352872228138170E-16, -1.000000000000000000, 0.000000000000000000 ) ) ;
#1059 = EDGE_CURVE ( 'NONE', #435, #435, #614, .T. ) ;
#1060 = CARTESIAN_POINT ( 'NONE',  ( 6.999999999999997335, 7.750000000000000000, 6.250000000000000000 ) ) ;
#1061 = EDGE_CURVE ( 'NONE', #701, #246, #93, .T. ) ;
#1062 = ORIENTED_EDGE ( 'NONE', *, *, #1285, .F. ) ;
#1063 = VERTEX_POINT ( 'NONE', #1102 ) ;
#1064 = CARTESIAN_POINT ( 'NONE',  ( -7.999999999999998224, -4.476705744456278313E-16, 5.750000000000000000 ) ) ;
#1065 = DIRECTION ( 'NONE',  ( -1.283953296258157600E-32, 1.000000000000000000, 0.000000000000000000 ) ) ;
#1066 = DIRECTION ( 'NONE',  ( 0.000000000000000000, 0.000000000000000000, 1.000000000000000000 ) ) ;
#1067 = AXIS2_PLACEMENT_3D ( 'NONE', #273, #982, #968 ) ;
#1068 = DIRECTION ( 'NONE',  ( -1.000000000000000000, 0.000000000000000000, 0.000000000000000000 ) ) ;
#1069 = EDGE_LOOP ( 'NONE', ( #46, #514, #1088, #893 ) ) ;
#1070 = CARTESIAN_POINT ( 'NONE',  ( 6.999999999999997335, 7.750000000000000000, -6.250000000000000000 ) ) ;
#1071 = FACE_OUTER_BOUND ( 'NONE', #21, .T. ) ;
#1072 = CYLINDRICAL_SURFACE ( 'NONE', #1159, 0.5000000000000004441 ) ;
#1073 = CARTESIAN_POINT ( 'NONE',  ( -1.898202538678397952E-15, 7.750000000000001776, 5.750000000000000000 ) ) ;
#1074 = EDGE_LOOP ( 'NONE', ( #386, #1151, #633, #129 ) ) ;
#1075 = DIRECTION ( 'NONE',  ( -1.000000000000000000, 0.000000000000000000, 0.000000000000000000 ) ) ;
#1076 = VECTOR ( 'NONE', #1194, 1000.000000000000000 ) ;
#1077 = VECTOR ( 'NONE', #976, 1000.000000000000000 ) ;
#1078 = CARTESIAN_POINT ( 'NONE',  ( 6.999999999999998224, 3.499999999999999556, 6.250000000000000000 ) ) ;
#1079 = PLANE ( 'NONE',  #1055 ) ;
#1080 = FACE_OUTER_BOUND ( 'NONE', #1233, .T. ) ;
#1081 = ORIENTED_EDGE ( 'NONE', *, *, #1092, .T. ) ;
#1082 = CARTESIAN_POINT ( 'NONE',  ( 6.999999999999999112, 1.500000000000000000, 6.250000000000000000 ) ) ;
#1083 = DIRECTION ( 'NONE',  ( -0.000000000000000000, -0.000000000000000000, 1.000000000000000000 ) ) ;
#1084 = CIRCLE ( 'NONE', #1206, 7.000000000000000000 ) ;
#1085 = DIRECTION ( 'NONE',  ( 0.000000000000000000, 0.000000000000000000, 1.000000000000000000 ) ) ;
#1086 = ADVANCED_FACE ( 'NONE', ( #897 ), #305, .T. ) ;
#1087 = ORIENTED_EDGE ( 'NONE', *, *, #1010, .F. ) ;
#1088 = ORIENTED_EDGE ( 'NONE', *, *, #1152, .F. ) ;
#1089 = LINE ( 'NONE', #864, #991 ) ;
#1090 = EDGE_CURVE ( 'NONE', #662, #419, #827, .T. ) ;
#1091 = PRODUCT_CONTEXT ( 'NONE', #401, 'mechanical' ) ;
#1092 = EDGE_CURVE ( 'NONE', #232, #693, #1015, .T. ) ;
#1093 = CIRCLE ( 'NONE', #414, 6.249999999999998224 ) ;
#1094 = DIRECTION ( 'NONE',  ( 4.476705744456276341E-16, -1.000000000000000000, 0.000000000000000000 ) ) ;
#1095 = CARTESIAN_POINT ( 'NONE',  ( 15.75000000000000000, 1.500000000000000000, 0.000000000000000000 ) ) ;
#1096 = CARTESIAN_POINT ( 'NONE',  ( 8.499999999999998224, 1.000000000000000000, -5.750000000000000000 ) ) ;
#1097 = VERTEX_POINT ( 'NONE', #209 ) ;
#1098 = ADVANCED_FACE ( 'NONE', ( #628 ), #1135, .T. ) ;
#1099 = DIRECTION ( 'NONE',  ( 1.283953296258157600E-32, 1.000000000000000000, -0.000000000000000000 ) ) ;
#1100 = EDGE_CURVE ( 'NONE', #662, #826, #1230, .T. ) ;
#1101 = TOROIDAL_SURFACE ( 'NONE', #509, 2.500000000000000000, 0.5000000000000000000 ) ;
#1102 = CARTESIAN_POINT ( 'NONE',  ( 15.75000000000000000, -8.024708101613479802E-32, 6.250000000000000000 ) ) ;
#1103 = CARTESIAN_POINT ( 'NONE',  ( -8.500000000000000000, 3.500000000000000888, 5.750000000000000000 ) ) ;
#1104 = ORIENTED_EDGE ( 'NONE', *, *, #89, .T. ) ;
#1105 = CIRCLE ( 'NONE', #200, 5.750000000000000000 ) ;
#1106 = AXIS2_PLACEMENT_3D ( 'NONE', #382, #284, #186 ) ;
#1107 = CARTESIAN_POINT ( 'NONE',  ( -10.50000000000000000, -1.476546290696880748E-31, 6.250000000000000000 ) ) ;
#1108 = FACE_OUTER_BOUND ( 'NONE', #795, .T. ) ;
#1109 = AXIS2_PLACEMENT_3D ( 'NONE', #903, #217, #1207 ) ;
#1110 = LINE ( 'NONE', #210, #268 ) ;
#1111 = ORIENTED_EDGE ( 'NONE', *, *, #1100, .F. ) ;
#1112 = VECTOR ( 'NONE', #642, 1000.000000000000000 ) ;
#1113 = CARTESIAN_POINT ( 'NONE',  ( -10.50000000000000000, 1.000000000000000000, -6.250000000000000000 ) ) ;
#1114 = AXIS2_PLACEMENT_3D ( 'NONE', #998, #106, #703 ) ;
#1115 = EDGE_LOOP ( 'NONE', ( #1081, #281, #654, #344 ) ) ;
#1116 = ORIENTED_EDGE ( 'NONE', *, *, #249, .F. ) ;
#1117 = DIRECTION ( 'NONE',  ( -1.000000000000000000, 0.000000000000000000, 0.000000000000000000 ) ) ;
#1118 = DIRECTION ( 'NONE',  ( -1.000000000000000000, 0.000000000000000000, 0.000000000000000000 ) ) ;
#1119 = STYLED_ITEM ( 'NONE', ( #1254 ), #901 ) ;
#1120 = CARTESIAN_POINT ( 'NONE',  ( -1.898202538678397952E-15, 7.750000000000001776, -6.250000000000000000 ) ) ;
#1121 = AXIS2_PLACEMENT_3D ( 'NONE', #229, #113, #422 ) ;
#1122 = EDGE_LOOP ( 'NONE', ( #439 ) ) ;
#1123 = ORIENTED_EDGE ( 'NONE', *, *, #331, .T. ) ;
#1124 = LINE ( 'NONE', #601, #769 ) ;
#1125 = EDGE_CURVE ( 'NONE', #260, #547, #48, .T. ) ;
#1126 = DIRECTION ( 'NONE',  ( -0.000000000000000000, -0.000000000000000000, -1.000000000000000000 ) ) ;
#1127 = ORIENTED_EDGE ( 'NONE', *, *, #946, .F. ) ;
#1128 = VERTEX_POINT ( 'NONE', #814 ) ;
#1129 = EDGE_CURVE ( 'NONE', #246, #425, #421, .T. ) ;
#1130 = CARTESIAN_POINT ( 'NONE',  ( 8.499999999999996447, 7.750000000000002665, 6.250000000000000000 ) ) ;
#1131 = DIRECTION ( 'NONE',  ( 1.000000000000000000, 0.000000000000000000, -0.000000000000000000 ) ) ;
#1132 = DIRECTION ( 'NONE',  ( 1.000000000000000000, 0.000000000000000000, -0.000000000000000000 ) ) ;
#1133 = ORIENTED_EDGE ( 'NONE', *, *, #667, .T. ) ;
#1134 = ORIENTED_EDGE ( 'NONE', *, *, #695, .F. ) ;
#1135 = PLANE ( 'NONE',  #994 ) ;
#1136 = DIRECTION ( 'NONE',  ( -1.000000000000000000, 0.000000000000000000, 0.000000000000000000 ) ) ;
#1137 = EDGE_CURVE ( 'NONE', #887, #63, #251, .T. ) ;
#1138 = LINE ( 'NONE', #133, #174 ) ;
#1139 = ORIENTED_EDGE ( 'NONE', *, *, #426, .F. ) ;
#1140 = AXIS2_PLACEMENT_3D ( 'NONE', #554, #969, #770 ) ;
#1141 = ORIENTED_EDGE ( 'NONE', *, *, #730, .T. ) ;
#1142 = CARTESIAN_POINT ( 'NONE',  ( 0.000000000000000000, 0.000000000000000000, 0.000000000000000000 ) ) ;
#1143 = DIRECTION ( 'NONE',  ( 1.000000000000000000, -1.734723475976807489E-15, 0.000000000000000000 ) ) ;
#1144 = CARTESIAN_POINT ( 'NONE',  ( -10.50000000000000000, -1.476546290696880748E-31, -6.250000000000000000 ) ) ;
#1145 = VERTEX_POINT ( 'NONE', #512 ) ;
#1146 = ORIENTED_EDGE ( 'NONE', *, *, #205, .T. ) ;
#1147 = VECTOR ( 'NONE', #315, 1000.000000000000000 ) ;
#1148 = DIRECTION ( 'NONE',  ( 1.000000000000000000, 0.000000000000000000, 0.000000000000000000 ) ) ;
#1149 = DIRECTION ( 'NONE',  ( 1.000000000000000000, 1.283953296258157327E-32, 0.000000000000000000 ) ) ;
#1150 = AXIS2_PLACEMENT_3D ( 'NONE', #168, #242, #147 ) ;
#1151 = ORIENTED_EDGE ( 'NONE', *, *, #989, .T. ) ;
#1152 = EDGE_CURVE ( 'NONE', #618, #739, #532, .T. ) ;
#1153 = EDGE_CURVE ( 'NONE', #374, #1063, #130, .T. ) ;
#1154 = DIRECTION ( 'NONE',  ( 0.000000000000000000, 0.000000000000000000, 1.000000000000000000 ) ) ;
#1155 = DIRECTION ( 'NONE',  ( 1.000000000000000000, 0.000000000000000000, 0.000000000000000000 ) ) ;
#1156 = CARTESIAN_POINT ( 'NONE',  ( 8.499999999999996447, 7.750000000000000000, -5.750000000000000000 ) ) ;
#1157 = ORIENTED_EDGE ( 'NONE', *, *, #766, .T. ) ;
#1158 = EDGE_LOOP ( 'NONE', ( #227, #1039, #1053, #1111 ) ) ;
#1159 = AXIS2_PLACEMENT_3D ( 'NONE', #66, #460, #859 ) ;
#1160 = VECTOR ( 'NONE', #1275, 1000.000000000000000 ) ;
#1161 = CYLINDRICAL_SURFACE ( 'NONE', #395, 0.5000000000000004441 ) ;
#1162 = CARTESIAN_POINT ( 'NONE',  ( -10.50000000000000000, 3.500000000000000000, 6.250000000000000000 ) ) ;
#1163 = FACE_OUTER_BOUND ( 'NONE', #84, .T. ) ;
#1164 = DIRECTION ( 'NONE',  ( -0.000000000000000000, -0.000000000000000000, -1.000000000000000000 ) ) ;
#1165 = EDGE_LOOP ( 'NONE', ( #965, #1227, #337, #39 ) ) ;
#1166 = FACE_OUTER_BOUND ( 'NONE', #166, .T. ) ;
#1167 = CONICAL_SURFACE ( 'NONE', #1000, 4.000000000000000000, 0.8726646259971637676 ) ;
#1168 = EDGE_CURVE ( 'NONE', #375, #596, #1195, .T. ) ;
#1169 = SURFACE_STYLE_USAGE ( .BOTH. , #60 ) ;
#1170 = TOROIDAL_SURFACE ( 'NONE', #605, 8.000000000000000000, 0.5000000000000000000 ) ;
#1171 = DIRECTION ( 'NONE',  ( -4.476705744456276341E-16, 1.000000000000000000, 0.000000000000000000 ) ) ;
#1172 = ORIENTED_EDGE ( 'NONE', *, *, #397, .T. ) ;
#1173 = CARTESIAN_POINT ( 'NONE',  ( 10.49999999999999822, 3.500000000000000444, 6.250000000000000000 ) ) ;
#1174 = DIRECTION ( 'NONE',  ( 0.000000000000000000, 0.000000000000000000, 1.000000000000000000 ) ) ;
#1175 = LINE ( 'NONE', #399, #1077 ) ;
#1176 = DIRECTION ( 'NONE',  ( -1.000000000000000000, 0.000000000000000000, 0.000000000000000000 ) ) ;
#1177 = ADVANCED_FACE ( 'NONE', ( #1211 ), #314, .F. ) ;
#1178 = ORIENTED_EDGE ( 'NONE', *, *, #1235, .T. ) ;
#1179 = LINE ( 'NONE', #25, #151 ) ;
#1180 = VECTOR ( 'NONE', #726, 1000.000000000000000 ) ;
#1181 = AXIS2_PLACEMENT_3D ( 'NONE', #1182, #1085, #493 ) ;
#1182 = CARTESIAN_POINT ( 'NONE',  ( -1.898202538678397952E-15, 7.750000000000001776, 6.250000000000000000 ) ) ;
#1183 = CARTESIAN_POINT ( 'NONE',  ( -10.50000000000000000, 3.500000000000000000, 6.250000000000000000 ) ) ;
#1184 = ADVANCED_FACE ( 'NONE', ( #736 ), #404, .T. ) ;
#1185 = EDGE_LOOP ( 'NONE', ( #20, #1021, #158, #497 ) ) ;
#1186 = FACE_OUTER_BOUND ( 'NONE', #950, .T. ) ;
#1187 = CARTESIAN_POINT ( 'NONE',  ( -1.898202538678397952E-15, 7.750000000000001776, -5.750000000000000000 ) ) ;
#1188 = CIRCLE ( 'NONE', #641, 2.000000000000000000 ) ;
#1189 = DIRECTION ( 'NONE',  ( -0.000000000000000000, -0.000000000000000000, -1.000000000000000000 ) ) ;
#1190 = CARTESIAN_POINT ( 'NONE',  ( 10.49999999999999822, 1.000000000000000000, -5.750000000000000000 ) ) ;
#1191 = AXIS2_PLACEMENT_3D ( 'NONE', #681, #459, #762 ) ;
#1192 = EDGE_LOOP ( 'NONE', ( #1157, #177, #760, #996 ) ) ;
#1193 = ADVANCED_FACE ( 'NONE', ( #15 ), #820, .T. ) ;
#1194 = DIRECTION ( 'NONE',  ( 2.238352872228138170E-16, -1.000000000000000000, 0.000000000000000000 ) ) ;
#1195 = CIRCLE ( 'NONE', #959, 0.5000000000000004441 ) ;
#1196 = PLANE ( 'NONE',  #254 ) ;
#1197 = DIRECTION ( 'NONE',  ( 0.000000000000000000, 0.000000000000000000, 1.000000000000000000 ) ) ;
#1198 = CARTESIAN_POINT ( 'NONE',  ( -22.00000000000000000, 0.000000000000000000, 6.250000000000000000 ) ) ;
#1199 = ORIENTED_EDGE ( 'NONE', *, *, #1129, .T. ) ;
#1200 = CARTESIAN_POINT ( 'NONE',  ( -8.000000000000001776, 7.750000000000001776, -6.250000000000000000 ) ) ;
#1201 = LINE ( 'NONE', #889, #819 ) ;
#1202 = CIRCLE ( 'NONE', #442, 7.000000000000000000 ) ;
#1203 = CARTESIAN_POINT ( 'NONE',  ( 10.49999999999999822, 3.500000000000000444, -5.750000000000000000 ) ) ;
#1204 = LINE ( 'NONE', #306, #245 ) ;
#1205 = DIRECTION ( 'NONE',  ( 1.283953296258157600E-32, -1.000000000000000000, -0.000000000000000000 ) ) ;
#1206 = AXIS2_PLACEMENT_3D ( 'NONE', #494, #725, #96 ) ;
#1207 = DIRECTION ( 'NONE',  ( 0.000000000000000000, 0.000000000000000000, -1.000000000000000000 ) ) ;
#1208 = EDGE_CURVE ( 'NONE', #419, #596, #1093, .T. ) ;
#1209 = EDGE_LOOP ( 'NONE', ( #49, #1134, #537, #433 ) ) ;
#1210 = ORIENTED_EDGE ( 'NONE', *, *, #1040, .T. ) ;
#1211 = FACE_OUTER_BOUND ( 'NONE', #800, .T. ) ;
#1212 = DIRECTION ( 'NONE',  ( -0.000000000000000000, 1.000000000000000000, -0.000000000000000000 ) ) ;
#1213 = ORIENTED_EDGE ( 'NONE', *, *, #171, .F. ) ;
#1214 = ORIENTED_EDGE ( 'NONE', *, *, #1059, .T. ) ;
#1215 = ADVANCED_FACE ( 'NONE', ( #428 ), #22, .T. ) ;
#1216 = DIRECTION ( 'NONE',  ( -1.000000000000000000, 0.000000000000000000, 0.000000000000000000 ) ) ;
#1217 = DIRECTION ( 'NONE',  ( -0.000000000000000000, -0.000000000000000000, -1.000000000000000000 ) ) ;
#1218 = TOROIDAL_SURFACE ( 'NONE', #1258, 2.500000000000000000, 0.5000000000000000000 ) ;
#1219 = LINE ( 'NONE', #923, #24 ) ;
#1220 = VECTOR ( 'NONE', #298, 1000.000000000000000 ) ;
#1221 = VERTEX_POINT ( 'NONE', #366 ) ;
#1222 = ORIENTED_EDGE ( 'NONE', *, *, #1010, .T. ) ;
#1223 = AXIS2_PLACEMENT_3D ( 'NONE', #1162, #1083, #384 ) ;
#1224 = CARTESIAN_POINT ( 'NONE',  ( 15.75000000000000000, 1.000000000000000000, 0.000000000000000000 ) ) ;
#1225 = DIRECTION ( 'NONE',  ( 1.283953296258157600E-32, 1.000000000000000000, -0.000000000000000000 ) ) ;
#1226 = CARTESIAN_POINT ( 'NONE',  ( 8.499999999999996447, 7.750000000000002665, -5.750000000000000000 ) ) ;
#1227 = ORIENTED_EDGE ( 'NONE', *, *, #973, .T. ) ;
#1228 = VECTOR ( 'NONE', #954, 1000.000000000000000 ) ;
#1229 = EDGE_CURVE ( 'NONE', #318, #483, #1251, .T. ) ;
#1230 = LINE ( 'NONE', #1030, #444 ) ;
#1231 = DIRECTION ( 'NONE',  ( -0.000000000000000000, -0.000000000000000000, -1.000000000000000000 ) ) ;
#1232 = DIRECTION ( 'NONE',  ( 0.000000000000000000, 1.000000000000000000, 0.000000000000000000 ) ) ;
#1233 = EDGE_LOOP ( 'NONE', ( #907, #173, #1011, #602 ) ) ;
#1234 = EDGE_LOOP ( 'NONE', ( #528, #807, #61, #831 ) ) ;
#1235 = EDGE_CURVE ( 'NONE', #1145, #318, #155, .T. ) ;
#1236 = CARTESIAN_POINT ( 'NONE',  ( -15.75000000000000000, -8.024708101613481991E-32, 6.250000000000000000 ) ) ;
#1237 = PLANE ( 'NONE',  #379 ) ;
#1238 = ORIENTED_EDGE ( 'NONE', *, *, #407, .F. ) ;
#1239 = AXIS2_PLACEMENT_3D ( 'NONE', #1203, #1189, #203 ) ;
#1240 = EDGE_LOOP ( 'NONE', ( #219, #1104, #634, #986 ) ) ;
#1241 = ADVANCED_FACE ( 'NONE', ( #650 ), #1049, .T. ) ;
#1242 =( NAMED_UNIT ( * ) PLANE_ANGLE_UNIT ( ) SI_UNIT ( $, .RADIAN. ) );
#1243 = DIRECTION ( 'NONE',  ( 0.000000000000000000, -1.000000000000000000, 0.000000000000000000 ) ) ;
#1244 = ORIENTED_EDGE ( 'NONE', *, *, #521, .F. ) ;
#1245 = EDGE_CURVE ( 'NONE', #324, #1291, #549, .T. ) ;
#1246 = ORIENTED_EDGE ( 'NONE', *, *, #585, .F. ) ;
#1247 = AXIS2_PLACEMENT_3D ( 'NONE', #732, #125, #526 ) ;
#1248 = PLANE ( 'NONE',  #294 ) ;
#1249 = DIRECTION ( 'NONE',  ( -1.000000000000000000, 0.000000000000000000, 0.000000000000000000 ) ) ;
#1250 = EDGE_LOOP ( 'NONE', ( #741, #671, #1087, #1127 ) ) ;
#1251 = CIRCLE ( 'NONE', #1150, 0.5000000000000004441 ) ;
#1252 = EDGE_LOOP ( 'NONE', ( #83 ) ) ;
#1253 = VERTEX_POINT ( 'NONE', #338 ) ;
#1254 = PRESENTATION_STYLE_ASSIGNMENT (( #1169 ) ) ;
#1255 = ORIENTED_EDGE ( 'NONE', *, *, #908, .T. ) ;
#1256 = EDGE_CURVE ( 'NONE', #734, #142, #947, .T. ) ;
#1257 = ORIENTED_EDGE ( 'NONE', *, *, #194, .F. ) ;
#1258 = AXIS2_PLACEMENT_3D ( 'NONE', #960, #288, #92 ) ;
#1259 = LINE ( 'NONE', #988, #339 ) ;
#1260 = DIRECTION ( 'NONE',  ( -1.000000000000000000, 0.000000000000000000, 0.000000000000000000 ) ) ;
#1261 =( NAMED_UNIT ( * ) SI_UNIT ( $, .STERADIAN. ) SOLID_ANGLE_UNIT ( ) );
#1262 = CARTESIAN_POINT ( 'NONE',  ( -1.898202538678397952E-15, 7.750000000000001776, -5.750000000000000000 ) ) ;
#1263 = EDGE_LOOP ( 'NONE', ( #788, #1023, #469, #561 ) ) ;
#1264 = LINE ( 'NONE', #796, #1054 ) ;
#1265 = AXIS2_PLACEMENT_3D ( 'NONE', #835, #44, #51 ) ;
#1266 = VECTOR ( 'NONE', #1164, 1000.000000000000000 ) ;
#1267 = EDGE_CURVE ( 'NONE', #1063, #596, #749, .T. ) ;
#1268 = DIRECTION ( 'NONE',  ( -2.238352872228138170E-16, 1.000000000000000000, 0.000000000000000000 ) ) ;
#1269 = ORIENTED_EDGE ( 'NONE', *, *, #1153, .T. ) ;
#1270 = ORIENTED_EDGE ( 'NONE', *, *, #915, .T. ) ;
#1271 = DIRECTION ( 'NONE',  ( -1.000000000000000000, 1.283953296258157600E-32, -0.000000000000000000 ) ) ;
#1272 = DIRECTION ( 'NONE',  ( 1.000000000000000000, 0.000000000000000000, 0.000000000000000000 ) ) ;
#1273 = ADVANCED_FACE ( 'NONE', ( #767 ), #1161, .T. ) ;
#1274 = CARTESIAN_POINT ( 'NONE',  ( 7.999999999999996447, 7.750000000000002665, -5.750000000000000000 ) ) ;
#1275 = DIRECTION ( 'NONE',  ( -1.000000000000000000, 1.283953296258157600E-32, -0.000000000000000000 ) ) ;
#1276 = CYLINDRICAL_SURFACE ( 'NONE', #289, 3.499999999999999556 ) ;
#1277 = ORIENTED_EDGE ( 'NONE', *, *, #645, .F. ) ;
#1278 = CARTESIAN_POINT ( 'NONE',  ( -10.50000000000000000, 3.500000000000000000, -5.750000000000000000 ) ) ;
#1279 = AXIS2_PLACEMENT_3D ( 'NONE', #8, #1018, #718 ) ;
#1280 = CARTESIAN_POINT ( 'NONE',  ( 6.999999999999998224, 7.750000000000002665, -6.250000000000000000 ) ) ;
#1281 = FACE_BOUND ( 'NONE', #140, .T. ) ;
#1282 = CYLINDRICAL_SURFACE ( 'NONE', #1288, 0.5000000000000000000 ) ;
#1283 = ADVANCED_FACE ( 'NONE', ( #851 ), #1248, .T. ) ;
#1284 = ORIENTED_EDGE ( 'NONE', *, *, #420, .F. ) ;
#1285 = EDGE_CURVE ( 'NONE', #772, #146, #208, .T. ) ;
#1286 = DIRECTION ( 'NONE',  ( -0.000000000000000000, -1.000000000000000000, -0.000000000000000000 ) ) ;
#1287 = DIRECTION ( 'NONE',  ( 0.000000000000000000, 0.000000000000000000, 1.000000000000000000 ) ) ;
#1288 = AXIS2_PLACEMENT_3D ( 'NONE', #1190, #700, #594 ) ;
#1289 = CARTESIAN_POINT ( 'NONE',  ( 15.75000000000000000, 3.500000000000000888, -6.250000000000000000 ) ) ;
#1290 = FACE_BOUND ( 'NONE', #653, .T. ) ;
#1291 = VERTEX_POINT ( 'NONE', #858 ) ;
#1292 = CARTESIAN_POINT ( 'NONE',  ( 10.49999999999999822, 1.500000000000000000, -5.750000000000000000 ) ) ;
#1293 = DIRECTION ( 'NONE',  ( 1.000000000000000000, 0.000000000000000000, -0.000000000000000000 ) ) ;
#1294 = CARTESIAN_POINT ( 'NONE',  ( 8.499999999999998224, 3.500000000000000888, 6.250000000000000000 ) ) ;
#1295 = DIRECTION ( 'NONE',  ( -1.000000000000000000, 0.000000000000000000, 0.000000000000000000 ) ) ;
ENDSEC;
END-ISO-10303-21;
