ISO-10303-21;
HEADER;
FILE_DESCRIPTION (( 'STEP AP214' ),
    '1' );
FILE_NAME ('Detergent Bottle.STEP',
    '2025-08-07T17:25:52',
    ( '' ),
    ( '' ),
    'SwSTEP 2.0',
    'SolidWorks 2025',
    '' );
FILE_SCHEMA (( 'AUTOMOTIVE_DESIGN' ));
ENDSEC;

DATA;
#1 = PRODUCT_DEFINITION_FORMATION_WITH_SPECIFIED_SOURCE ( 'Symmetric', '', #5, .NOT_KNOWN. ) ;
#2 =( LENGTH_UNIT ( ) NAMED_UNIT ( * ) SI_UNIT ( .MILLI., .METRE. ) );
#3 = SHAPE_DEFINITION_REPRESENTATION ( #47, #74 ) ;
#4 =( REPRESENTATION_RELATIONSHIP ('NONE','NONE', #89, #74 ) REPRESENTATION_RELATIONSHIP_WITH_TRANSFORMATION ( #67 )SHAPE_REPRESENTATION_RELATIONSHIP( ) );
#5 = PRODUCT ( 'Bottle Body', 'Bottle Body', '', ( #62 ) ) ;
#6 = EXTERNAL_SOURCE (IDENTIFIER('') ) ;
#7 = PRODUCT_RELATED_PRODUCT_CATEGORY ( 'part', '', ( #24 ) ) ;
#8 = AXIS2_PLACEMENT_3D ( 'NONE', #56, #9, #70 ) ;
#9 = DIRECTION ( 'NONE',  ( 0.000000000000000000, 0.000000000000000000, 1.000000000000000000 ) ) ;
#10 =( REPRESENTATION_RELATIONSHIP ('NONE','NONE', #89, #96 ) REPRESENTATION_RELATIONSHIP_WITH_TRANSFORMATION ( #19 )SHAPE_REPRESENTATION_RELATIONSHIP( ) );
#11 =( LENGTH_UNIT ( ) NAMED_UNIT ( * ) SI_UNIT ( .MILLI., .METRE. ) );
#12 = APPLICATION_PROTOCOL_DEFINITION ( 'draft international standard', 'automotive_design', 1998, #88 ) ;
#13 = IDENTIFICATION_ROLE ( 'external document id and location', $) ;
#14 = DIRECTION ( 'NONE',  ( 0.03407784797316859571, 2.848946645293122534E-18, -0.9994191814636728122 ) ) ;
#15 = CARTESIAN_POINT ( 'NONE',  ( 0.000000000000000000, 0.000000000000000000, 0.000000000000000000 ) ) ;
#16 =( NAMED_UNIT ( * ) SI_UNIT ( $, .STERADIAN. ) SOLID_ANGLE_UNIT ( ) );
#17 = PROPERTY_DEFINITION_REPRESENTATION ( #87, #74 ) ;
#18 = APPLIED_EXTERNAL_IDENTIFICATION_ASSIGNMENT ( 'Bottle Body.STEP' , #95, #69,( #63) ) ;
#19 = ITEM_DEFINED_TRANSFORMATION ( 'NONE', 'NONE', #73,  #8 ) ;
#20 = SHAPE_DEFINITION_REPRESENTATION ( #35, #96 ) ;
#21 =( GEOMETRIC_REPRESENTATION_CONTEXT ( 3 ) GLOBAL_UNCERTAINTY_ASSIGNED_CONTEXT ( ( #31 ) ) GLOBAL_UNIT_ASSIGNED_CONTEXT ( ( #11, #27, #32 ) ) REPRESENTATION_CONTEXT ( 'NONE', 'WORKASPACE' ) );
#22 = PROPERTY_DEFINITION ('external definition','', #63 ) ;
#23 = AXIS2_PLACEMENT_3D ( 'NONE', #15, #78, #41 ) ;
#24 = PRODUCT ( 'Cap', 'Cap', '', ( #52 ) ) ;
#25 =( LENGTH_UNIT ( ) NAMED_UNIT ( * ) SI_UNIT ( .MILLI., .METRE. ) );
#26 = DIRECTION ( 'NONE',  ( 1.000000000000000000, 0.000000000000000000, 0.000000000000000000 ) ) ;
#27 =( NAMED_UNIT ( * ) PLANE_ANGLE_UNIT ( ) SI_UNIT ( $, .RADIAN. ) );
#28 = APPLICATION_PROTOCOL_DEFINITION ( 'draft international standard', 'automotive_design', 1998, #77 ) ;
#29 = CONTEXT_DEPENDENT_SHAPE_REPRESENTATION ( #4, #102 ) ;
#30 = PROPERTY_DEFINITION_REPRESENTATION ( #22, #96 ) ;
#31 = UNCERTAINTY_MEASURE_WITH_UNIT (LENGTH_MEASURE( 1.000000000000000082E-05 ), #11, 'distance_accuracy_value', 'NONE');
#32 =( NAMED_UNIT ( * ) SI_UNIT ( $, .STERADIAN. ) SOLID_ANGLE_UNIT ( ) );
#33 = PRODUCT_DEFINITION ( 'General', '', #58, #38 ) ;
#34 = CARTESIAN_POINT ( 'NONE',  ( 0.000000000000000000, 0.000000000000000000, 0.000000000000000000 ) ) ;
#35 = PRODUCT_DEFINITION_SHAPE ( 'NONE', 'NONE',  #65 ) ;
#36 = AXIS2_PLACEMENT_3D ( 'NONE', #34, #61, #98 ) ;
#37 = OBJECT_ROLE ('mandatory',$ ) ;
#38 = PRODUCT_DEFINITION_CONTEXT ( 'detailed design', #88, 'design' ) ;
#39 = DOCUMENT_TYPE ( 'geometry' ) ;
#40 = CARTESIAN_POINT ( 'NONE',  ( 0.000000000000000000, 0.000000000000000000, 0.000000000000000000 ) ) ;
#41 = DIRECTION ( 'NONE',  ( 1.000000000000000000, 0.000000000000000000, 0.000000000000000000 ) ) ;
#42 =( NAMED_UNIT ( * ) SI_UNIT ( $, .STERADIAN. ) SOLID_ANGLE_UNIT ( ) );
#43 = CARTESIAN_POINT ( 'NONE',  ( -49.98547953659189602, 0.9999999999999913403, -0.8519461993293847568 ) ) ;
#44 = DOCUMENT_FILE ( 'Cap.STEP' , '', '', #39, '' ,$ ) ;
#45 = ROLE_ASSOCIATION ( #37, #71 ) ;
#46 = APPLICATION_PROTOCOL_DEFINITION ( 'draft international standard', 'automotive_design', 1998, #81 ) ;
#47 = PRODUCT_DEFINITION_SHAPE ( 'NONE', 'NONE',  #33 ) ;
#48 = APPLICATION_CONTEXT ( 'automotive_design' ) ;
#49 = SHAPE_DEFINITION_REPRESENTATION ( #101, #89 ) ;
#50 = OBJECT_ROLE ('mandatory',$ ) ;
#51 = APPLICATION_PROTOCOL_DEFINITION ( 'draft international standard', 'automotive_design', 1998, #105 ) ;
#52 = PRODUCT_CONTEXT ( 'NONE', #90, 'mechanical' ) ;
#53 = PRODUCT ( 'Detergent Bottle', 'Detergent Bottle', '', ( #91 ) ) ;
#54 = PRODUCT_DEFINITION_CONTEXT ( 'detailed design', #77, 'design' ) ;
#55 = APPLICATION_PROTOCOL_DEFINITION ( 'draft international standard', 'automotive_design', 1998, #48 ) ;
#56 = CARTESIAN_POINT ( 'NONE',  ( 0.000000000000000000, 0.000000000000000000, 0.000000000000000000 ) ) ;
#57 = PROPERTY_DEFINITION_REPRESENTATION ( #76, #96 ) ;
#58 = PRODUCT_DEFINITION_FORMATION_WITH_SPECIFIED_SOURCE ( 'Symmetric', '', #24, .NOT_KNOWN. ) ;
#59 = APPLIED_EXTERNAL_IDENTIFICATION_ASSIGNMENT ( 'Cap.STEP' , #13, #6,( #44) ) ;
#60 = DIRECTION ( 'NONE',  ( -0.9994191814636728122, -1.671537056579951554E-16, -0.03407784797316859571 ) ) ;
#61 = DIRECTION ( 'NONE',  ( 0.000000000000000000, 0.000000000000000000, 1.000000000000000000 ) ) ;
#62 = PRODUCT_CONTEXT ( 'NONE', #105, 'mechanical' ) ;
#63 = DOCUMENT_FILE ( 'Bottle Body.STEP' , '', '', #86, '' ,$ ) ;
#64 = UNCERTAINTY_MEASURE_WITH_UNIT (LENGTH_MEASURE( 1.000000000000000082E-05 ), #25, 'distance_accuracy_value', 'NONE');
#65 = PRODUCT_DEFINITION ( 'General', '', #1, #103 ) ;
#66 = PRODUCT_DEFINITION_SHAPE ( 'NONE', 'NONE',  #108 ) ;
#67 = ITEM_DEFINED_TRANSFORMATION ( 'NONE', 'NONE', #83,  #23 ) ;
#68 = PROPERTY_DEFINITION ('document property','', #44 ) ;
#69 = EXTERNAL_SOURCE (IDENTIFIER('') ) ;
#70 = DIRECTION ( 'NONE',  ( 1.000000000000000000, 0.000000000000000000, 0.000000000000000000 ) ) ;
#71 = APPLIED_DOCUMENT_REFERENCE ( #44,'',( #33) ) ;
#72 = APPLIED_DOCUMENT_REFERENCE ( #63,'',( #65) ) ;
#73 = AXIS2_PLACEMENT_3D ( 'NONE', #40, #82, #26 ) ;
#74 = SHAPE_REPRESENTATION ( 'Cap', ( #23 ), #94 ) ;
#75 = PRODUCT_DEFINITION_FORMATION_WITH_SPECIFIED_SOURCE ( 'Symmetric', '', #53, .NOT_KNOWN. ) ;
#76 = PROPERTY_DEFINITION ('document property','', #63 ) ;
#77 = APPLICATION_CONTEXT ( 'automotive_design' ) ;
#78 = DIRECTION ( 'NONE',  ( 0.000000000000000000, 0.000000000000000000, 1.000000000000000000 ) ) ;
#79 = PRODUCT_RELATED_PRODUCT_CATEGORY ( 'part', '', ( #53 ) ) ;
#80 =( NAMED_UNIT ( * ) PLANE_ANGLE_UNIT ( ) SI_UNIT ( $, .RADIAN. ) );
#81 = APPLICATION_CONTEXT ( 'automotive_design' ) ;
#82 = DIRECTION ( 'NONE',  ( 0.000000000000000000, 0.000000000000000000, 1.000000000000000000 ) ) ;
#83 = AXIS2_PLACEMENT_3D ( 'NONE', #43, #14, #60 ) ;
#84 = CONTEXT_DEPENDENT_SHAPE_REPRESENTATION ( #10, #66 ) ;
#85 =( GEOMETRIC_REPRESENTATION_CONTEXT ( 3 ) GLOBAL_UNCERTAINTY_ASSIGNED_CONTEXT ( ( #97 ) ) GLOBAL_UNIT_ASSIGNED_CONTEXT ( ( #2, #80, #42 ) ) REPRESENTATION_CONTEXT ( 'NONE', 'WORKASPACE' ) );
#86 = DOCUMENT_TYPE ( 'geometry' ) ;
#87 = PROPERTY_DEFINITION ('external definition','', #44 ) ;
#88 = APPLICATION_CONTEXT ( 'automotive_design' ) ;
#89 = SHAPE_REPRESENTATION ( 'Detergent Bottle', ( #36, #83, #73 ), #85 ) ;
#90 = APPLICATION_CONTEXT ( 'automotive_design' ) ;
#91 = PRODUCT_CONTEXT ( 'NONE', #48, 'mechanical' ) ;
#92 = APPLICATION_PROTOCOL_DEFINITION ( 'draft international standard', 'automotive_design', 1998, #90 ) ;
#93 = PROPERTY_DEFINITION_REPRESENTATION ( #68, #74 ) ;
#94 =( GEOMETRIC_REPRESENTATION_CONTEXT ( 3 ) GLOBAL_UNCERTAINTY_ASSIGNED_CONTEXT ( ( #64 ) ) GLOBAL_UNIT_ASSIGNED_CONTEXT ( ( #25, #106, #16 ) ) REPRESENTATION_CONTEXT ( 'NONE', 'WORKASPACE' ) );
#95 = IDENTIFICATION_ROLE ( 'external document id and location', $) ;
#96 = SHAPE_REPRESENTATION ( 'Bottle Body', ( #8 ), #21 ) ;
#97 = UNCERTAINTY_MEASURE_WITH_UNIT (LENGTH_MEASURE( 1.000000000000000082E-05 ), #2, 'distance_accuracy_value', 'NONE');
#98 = DIRECTION ( 'NONE',  ( 1.000000000000000000, 0.000000000000000000, 0.000000000000000000 ) ) ;
#99 = ROLE_ASSOCIATION ( #50, #72 ) ;
#100 = PRODUCT_DEFINITION ( 'General', '', #75, #54 ) ;
#101 = PRODUCT_DEFINITION_SHAPE ( 'NONE', 'NONE',  #100 ) ;
#102 = PRODUCT_DEFINITION_SHAPE ( 'NONE', 'NONE',  #107 ) ;
#103 = PRODUCT_DEFINITION_CONTEXT ( 'detailed design', #81, 'design' ) ;
#104 = PRODUCT_RELATED_PRODUCT_CATEGORY ( 'part', '', ( #5 ) ) ;
#105 = APPLICATION_CONTEXT ( 'automotive_design' ) ;
#106 =( NAMED_UNIT ( * ) PLANE_ANGLE_UNIT ( ) SI_UNIT ( $, .RADIAN. ) );
#107 = NEXT_ASSEMBLY_USAGE_OCCURRENCE ( 'NAUO1', ' ', ' ', #100, #33, $ ) ;
#108 = NEXT_ASSEMBLY_USAGE_OCCURRENCE ( 'NAUO2', ' ', ' ', #100, #65, $ ) ;
ENDSEC;
END-ISO-10303-21;
