ISO-10303-21;
HEADER;
FILE_DESCRIPTION (( 'STEP AP214' ),
    '1' );
FILE_NAME ('C-Clamp Assembly.STEP',
    '2025-07-18T14:00:17',
    ( '' ),
    ( '' ),
    'SwSTEP 2.0',
    'SolidWorks 2025',
    '' );
FILE_SCHEMA (( 'AUTOMOTIVE_DESIGN' ));
ENDSEC;

DATA;
#1 =( NAMED_UNIT ( * ) PLANE_ANGLE_UNIT ( ) SI_UNIT ( $, .RADIAN. ) );
#2 = APPLIED_DOCUMENT_REFERENCE ( #105,'',( #483) ) ;
#3 = CARTESIAN_POINT ( 'NONE',  ( 0.000000000000000000, 0.000000000000000000, 0.000000000000000000 ) ) ;
#4 = PROPERTY_DEFINITION_REPRESENTATION ( #44, #13 ) ;
#5 = CONTEXT_DEPENDENT_SHAPE_REPRESENTATION ( #539, #165 ) ;
#6 = CONTEXT_DEPENDENT_SHAPE_REPRESENTATION ( #129, #540 ) ;
#7 = PRODUCT_DEFINITION_CONTEXT ( 'detailed design', #393, 'design' ) ;
#8 = PRODUCT_CONTEXT ( 'NONE', #365, 'mechanical' ) ;
#9 = EXTERNAL_SOURCE (IDENTIFIER('') ) ;
#10 = AXIS2_PLACEMENT_3D ( 'NONE', #443, #240, #361 ) ;
#11 = PROPERTY_DEFINITION_REPRESENTATION ( #158, #425 ) ;
#12 = DIRECTION ( 'NONE',  ( 1.000000000000000000, 0.000000000000000000, 0.000000000000000000 ) ) ;
#13 = SHAPE_REPRESENTATION ( 'Part7_clampButton', ( #119 ), #368 ) ;
#14 = DOCUMENT_FILE ( 'Part4_Handle.STEP' , '', '', #345, '' ,$ ) ;
#15 = PRODUCT_DEFINITION_SHAPE ( 'NONE', 'NONE',  #551 ) ;
#16 = PRODUCT_DEFINITION ( 'General', '', #489, #384 ) ;
#17 = DOCUMENT_FILE ( 'ISO 7046-1 - M2 x 6 - Z - 6N_ISO 7046-1 - M2 x 6 - Z - 6N.STEP' , '', '', #342, '' ,$ ) ;
#18 = CONTEXT_DEPENDENT_SHAPE_REPRESENTATION ( #260, #200 ) ;
#19 = CARTESIAN_POINT ( 'NONE',  ( -49.25000000000000000, 1.000000000000000222, -5.874999999999956479 ) ) ;
#20 = PROPERTY_DEFINITION ('document property','', #115 ) ;
#21 = ROLE_ASSOCIATION ( #26, #501 ) ;
#22 = APPLIED_EXTERNAL_IDENTIFICATION_ASSIGNMENT ( 'Part7_clampButton.STEP' , #412, #467,( #53) ) ;
#23 =( GEOMETRIC_REPRESENTATION_CONTEXT ( 3 ) GLOBAL_UNCERTAINTY_ASSIGNED_CONTEXT ( ( #355 ) ) GLOBAL_UNIT_ASSIGNED_CONTEXT ( ( #234, #103, #531 ) ) REPRESENTATION_CONTEXT ( 'NONE', 'WORKASPACE' ) );
#24 = DIRECTION ( 'NONE',  ( 1.000000000000000000, 0.000000000000000000, 0.000000000000000000 ) ) ;
#25 = SHAPE_REPRESENTATION ( 'Part6_coverplate', ( #10 ), #23 ) ;
#26 = OBJECT_ROLE ('mandatory',$ ) ;
#27 = DIRECTION ( 'NONE',  ( 6.101527168082902916E-17, 1.000000000000000000, -7.212834394880548659E-17 ) ) ;
#28 = ITEM_DEFINED_TRANSFORMATION ( 'NONE', 'NONE', #91,  #99 ) ;
#29 = PRODUCT_DEFINITION_SHAPE ( 'NONE', 'NONE',  #421 ) ;
#30 = DIRECTION ( 'NONE',  ( 0.000000000000000000, 0.000000000000000000, 1.000000000000000000 ) ) ;
#31 = UNCERTAINTY_MEASURE_WITH_UNIT (LENGTH_MEASURE( 1.000000000000000082E-05 ), #383, 'distance_accuracy_value', 'NONE');
#32 = APPLIED_EXTERNAL_IDENTIFICATION_ASSIGNMENT ( 'Part8_Spring.STEP' , #406, #514,( #233) ) ;
#33 = CARTESIAN_POINT ( 'NONE',  ( -130.8632211587532765, 0.9999999999999967804, 3.625000000000041300 ) ) ;
#34 = OBJECT_ROLE ('mandatory',$ ) ;
#35 = PRODUCT_DEFINITION_SHAPE ( 'NONE', 'NONE',  #249 ) ;
#36 = APPLICATION_CONTEXT ( 'automotive_design' ) ;
#37 = PRODUCT_DEFINITION_CONTEXT ( 'detailed design', #353, 'design' ) ;
#38 = APPLICATION_PROTOCOL_DEFINITION ( 'draft international standard', 'automotive_design', 1998, #185 ) ;
#39 = APPLICATION_CONTEXT ( 'automotive_design' ) ;
#40 = PRODUCT_CONTEXT ( 'NONE', #321, 'mechanical' ) ;
#41 = AXIS2_PLACEMENT_3D ( 'NONE', #33, #212, #379 ) ;
#42 =( GEOMETRIC_REPRESENTATION_CONTEXT ( 3 ) GLOBAL_UNCERTAINTY_ASSIGNED_CONTEXT ( ( #334 ) ) GLOBAL_UNIT_ASSIGNED_CONTEXT ( ( #138, #352, #177 ) ) REPRESENTATION_CONTEXT ( 'NONE', 'WORKASPACE' ) );
#43 = OBJECT_ROLE ('mandatory',$ ) ;
#44 = PROPERTY_DEFINITION ('document property','', #53 ) ;
#45 = CARTESIAN_POINT ( 'NONE',  ( -130.8632211587532481, -17.02951162535386231, 32.15567140028848314 ) ) ;
#46 = DIRECTION ( 'NONE',  ( 1.000000000000000000, 0.000000000000000000, 0.000000000000000000 ) ) ;
#47 = APPLICATION_CONTEXT ( 'automotive_design' ) ;
#48 = DIRECTION ( 'NONE',  ( 0.9398567734819247566, -1.110223024625156540E-16, 0.3415688003025830755 ) ) ;
#49 = AXIS2_PLACEMENT_3D ( 'NONE', #521, #93, #175 ) ;
#50 = AXIS2_PLACEMENT_3D ( 'NONE', #85, #48, #227 ) ;
#51 = CONTEXT_DEPENDENT_SHAPE_REPRESENTATION ( #180, #292 ) ;
#52 =( NAMED_UNIT ( * ) SI_UNIT ( $, .STERADIAN. ) SOLID_ANGLE_UNIT ( ) );
#53 = DOCUMENT_FILE ( 'Part7_clampButton.STEP' , '', '', #133, '' ,$ ) ;
#54 = EXTERNAL_SOURCE (IDENTIFIER('') ) ;
#55 =( LENGTH_UNIT ( ) NAMED_UNIT ( * ) SI_UNIT ( .MILLI., .METRE. ) );
#56 = PRODUCT_DEFINITION_SHAPE ( 'NONE', 'NONE',  #549 ) ;
#57 = PROPERTY_DEFINITION_REPRESENTATION ( #254, #62 ) ;
#58 = SHAPE_DEFINITION_REPRESENTATION ( #29, #262 ) ;
#59 =( GEOMETRIC_REPRESENTATION_CONTEXT ( 3 ) GLOBAL_UNCERTAINTY_ASSIGNED_CONTEXT ( ( #208 ) ) GLOBAL_UNIT_ASSIGNED_CONTEXT ( ( #273, #475, #170 ) ) REPRESENTATION_CONTEXT ( 'NONE', 'WORKASPACE' ) );
#60 = ROLE_ASSOCIATION ( #157, #442 ) ;
#61 = PRODUCT_DEFINITION_FORMATION_WITH_SPECIFIED_SOURCE ( 'Symmetric', '', #312, .NOT_KNOWN. ) ;
#62 = SHAPE_REPRESENTATION ( 'Part5_Lockpin', ( #99 ), #413 ) ;
#63 = OBJECT_ROLE ('mandatory',$ ) ;
#64 = APPLIED_DOCUMENT_REFERENCE ( #538,'',( #404) ) ;
#65 = PROPERTY_DEFINITION ('document property','', #535 ) ;
#66 = DIRECTION ( 'NONE',  ( 0.000000000000000000, 0.000000000000000000, 1.000000000000000000 ) ) ;
#67 = PROPERTY_DEFINITION ('external definition','', #105 ) ;
#68 = EXTERNAL_SOURCE (IDENTIFIER('') ) ;
#69 = APPLIED_DOCUMENT_REFERENCE ( #258,'',( #452) ) ;
#70 = PRODUCT_DEFINITION_SHAPE ( 'NONE', 'NONE',  #553 ) ;
#71 = OBJECT_ROLE ('mandatory',$ ) ;
#72 = ROLE_ASSOCIATION ( #398, #69 ) ;
#73 = DIRECTION ( 'NONE',  ( -0.8767275128397457040, 0.4066042411518763222, 0.2569471916700791780 ) ) ;
#74 = PROPERTY_DEFINITION ('document property','', #233 ) ;
#75 = PRODUCT_DEFINITION ( 'General', '', #88, #226 ) ;
#76 = PROPERTY_DEFINITION_REPRESENTATION ( #367, #484 ) ;
#77 = OBJECT_ROLE ('mandatory',$ ) ;
#78 = PRODUCT ( 'Part4_Handle', 'Part4_Handle', '', ( #511 ) ) ;
#79 = DIRECTION ( 'NONE',  ( -3.365131321632464196E-16, 0.5342077518623363774, -0.8453532266752099567 ) ) ;
#80 = PRODUCT ( 'Part7_clampButton', 'Part7_clampButton', '', ( #482 ) ) ;
#81 = SHAPE_DEFINITION_REPRESENTATION ( #167, #389 ) ;
#82 = APPLICATION_CONTEXT ( 'automotive_design' ) ;
#83 = DIRECTION ( 'NONE',  ( 0.5469441386039887165, 5.866115988082391243E-17, 0.8371691043312223801 ) ) ;
#84 = DIRECTION ( 'NONE',  ( 1.000000000000000000, 0.000000000000000000, 0.000000000000000000 ) ) ;
#85 = CARTESIAN_POINT ( 'NONE',  ( -57.74999999999999289, -6.300000000000003375, -2.499999999999981348 ) ) ;
#86 =( REPRESENTATION_RELATIONSHIP ('NONE','NONE', #389, #25 ) REPRESENTATION_RELATIONSHIP_WITH_TRANSFORMATION ( #144 )SHAPE_REPRESENTATION_RELATIONSHIP( ) );
#87 = CARTESIAN_POINT ( 'NONE',  ( -27.48323843331924365, 1.000000000000019096, 3.624999999999980460 ) ) ;
#88 = PRODUCT_DEFINITION_FORMATION_WITH_SPECIFIED_SOURCE ( 'Symmetric', '', #78, .NOT_KNOWN. ) ;
#89 = OBJECT_ROLE ('mandatory',$ ) ;
#90 = PRODUCT_RELATED_PRODUCT_CATEGORY ( 'part', '', ( #215 ) ) ;
#91 = AXIS2_PLACEMENT_3D ( 'NONE', #344, #124, #73 ) ;
#92 = PRODUCT_CONTEXT ( 'NONE', #82, 'mechanical' ) ;
#93 = DIRECTION ( 'NONE',  ( 0.000000000000000000, 0.000000000000000000, 1.000000000000000000 ) ) ;
#94 = DOCUMENT_TYPE ( 'geometry' ) ;
#95 = ITEM_DEFINED_TRANSFORMATION ( 'NONE', 'NONE', #455,  #464 ) ;
#96 = DIRECTION ( 'NONE',  ( 0.000000000000000000, 0.000000000000000000, 1.000000000000000000 ) ) ;
#97 = IDENTIFICATION_ROLE ( 'external document id and location', $) ;
#98 = SHAPE_DEFINITION_REPRESENTATION ( #502, #217 ) ;
#99 = AXIS2_PLACEMENT_3D ( 'NONE', #516, #96, #447 ) ;
#100 = PROPERTY_DEFINITION_REPRESENTATION ( #220, #178 ) ;
#101 = SHAPE_REPRESENTATION ( 'Part4_Handle', ( #127 ), #287 ) ;
#102 = APPLIED_DOCUMENT_REFERENCE ( #14,'',( #75) ) ;
#103 =( NAMED_UNIT ( * ) PLANE_ANGLE_UNIT ( ) SI_UNIT ( $, .RADIAN. ) );
#104 = PRODUCT_DEFINITION_CONTEXT ( 'detailed design', #36, 'design' ) ;
#105 = DOCUMENT_FILE ( 'Part2_Threaded Shaft_C-Clamp.STEP' , '', '', #472, '' ,$ ) ;
#106 = EXTERNAL_SOURCE (IDENTIFIER('') ) ;
#107 = DOCUMENT_FILE ( 'Part1_Frame_C-Clamp.STEP' , '', '', #429, '' ,$ ) ;
#108 = APPLIED_EXTERNAL_IDENTIFICATION_ASSIGNMENT ( 'Part1_Frame_C-Clamp.STEP' , #97, #510,( #107) ) ;
#109 = ITEM_DEFINED_TRANSFORMATION ( 'NONE', 'NONE', #481,  #464 ) ;
#110 = PROPERTY_DEFINITION ('external definition','', #258 ) ;
#111 = PRODUCT_DEFINITION_SHAPE ( 'NONE', 'NONE',  #483 ) ;
#112 = DIRECTION ( 'NONE',  ( -1.084202172485504126E-17, 1.000000000000000000, 0.000000000000000000 ) ) ;
#113 =( REPRESENTATION_RELATIONSHIP ('NONE','NONE', #389, #62 ) REPRESENTATION_RELATIONSHIP_WITH_TRANSFORMATION ( #289 )SHAPE_REPRESENTATION_RELATIONSHIP( ) );
#114 = PRODUCT_DEFINITION_SHAPE ( 'NONE', 'NONE',  #548 ) ;
#115 = DOCUMENT_FILE ( 'Part5_Lockpin.STEP' , '', '', #94, '' ,$ ) ;
#116 = APPLIED_EXTERNAL_IDENTIFICATION_ASSIGNMENT ( 'Part2_Threaded Shaft_C-Clamp.STEP' , #218, #68,( #105) ) ;
#117 = AXIS2_PLACEMENT_3D ( 'NONE', #492, #245, #12 ) ;
#118 = DIRECTION ( 'NONE',  ( 3.122502256758252770E-17, 1.000000000000000000, 1.110223024625156540E-16 ) ) ;
#119 = AXIS2_PLACEMENT_3D ( 'NONE', #143, #364, #24 ) ;
#120 = PROPERTY_DEFINITION ('external definition','', #14 ) ;
#121 = DIRECTION ( 'NONE',  ( -0.002154603008361493516, -5.536653921852137930E-17, -0.9999976788402442640 ) ) ;
#122 = PRODUCT ( 'ISO 7046-1 - M2 x 6 - Z - 6N_ISO 7046-1 - M2 x 6 - Z - 6N', 'ISO 7046-1 - M2 x 6 - Z - 6N_ISO 7046-1 - M2 x 6 - Z - 6N', '', ( #268 ) ) ;
#123 = OBJECT_ROLE ('mandatory',$ ) ;
#124 = DIRECTION ( 'NONE',  ( 0.4809873888469773373, 0.7411444318940109133, 0.4683546336299775903 ) ) ;
#125 = PRODUCT ( 'C-Clamp Assembly', 'C-Clamp Assembly', '', ( #418 ) ) ;
#126 = CARTESIAN_POINT ( 'NONE',  ( -49.24999999999998579, 3.500000000000000444, -4.499999999999981348 ) ) ;
#127 = AXIS2_PLACEMENT_3D ( 'NONE', #314, #518, #136 ) ;
#128 = APPLICATION_PROTOCOL_DEFINITION ( 'draft international standard', 'automotive_design', 1998, #201 ) ;
#129 =( REPRESENTATION_RELATIONSHIP ('NONE','NONE', #389, #101 ) REPRESENTATION_RELATIONSHIP_WITH_TRANSFORMATION ( #139 )SHAPE_REPRESENTATION_RELATIONSHIP( ) );
#130 = APPLICATION_PROTOCOL_DEFINITION ( 'draft international standard', 'automotive_design', 1998, #252 ) ;
#131 = PRODUCT_RELATED_PRODUCT_CATEGORY ( 'part', '', ( #380 ) ) ;
#132 = DIRECTION ( 'NONE',  ( 0.000000000000000000, 0.000000000000000000, 1.000000000000000000 ) ) ;
#133 = DOCUMENT_TYPE ( 'geometry' ) ;
#134 = APPLICATION_PROTOCOL_DEFINITION ( 'draft international standard', 'automotive_design', 1998, #365 ) ;
#135 = APPLIED_EXTERNAL_IDENTIFICATION_ASSIGNMENT ( 'Part6_coverplate.STEP' , #279, #440,( #397) ) ;
#136 = DIRECTION ( 'NONE',  ( 1.000000000000000000, 0.000000000000000000, 0.000000000000000000 ) ) ;
#137 = AXIS2_PLACEMENT_3D ( 'NONE', #371, #66, #261 ) ;
#138 =( LENGTH_UNIT ( ) NAMED_UNIT ( * ) SI_UNIT ( .MILLI., .METRE. ) );
#139 = ITEM_DEFINED_TRANSFORMATION ( 'NONE', 'NONE', #41,  #127 ) ;
#140 = CONTEXT_DEPENDENT_SHAPE_REPRESENTATION ( #333, #341 ) ;
#141 = DOCUMENT_TYPE ( 'geometry' ) ;
#142 =( GEOMETRIC_REPRESENTATION_CONTEXT ( 3 ) GLOBAL_UNCERTAINTY_ASSIGNED_CONTEXT ( ( #188 ) ) GLOBAL_UNIT_ASSIGNED_CONTEXT ( ( #497, #284, #231 ) ) REPRESENTATION_CONTEXT ( 'NONE', 'WORKASPACE' ) );
#143 = CARTESIAN_POINT ( 'NONE',  ( 0.000000000000000000, 0.000000000000000000, 0.000000000000000000 ) ) ;
#144 = ITEM_DEFINED_TRANSFORMATION ( 'NONE', 'NONE', #272,  #10 ) ;
#145 = PRODUCT_RELATED_PRODUCT_CATEGORY ( 'part', '', ( #122 ) ) ;
#146 = ITEM_DEFINED_TRANSFORMATION ( 'NONE', 'NONE', #50,  #464 ) ;
#147 = CONTEXT_DEPENDENT_SHAPE_REPRESENTATION ( #237, #458 ) ;
#148 = IDENTIFICATION_ROLE ( 'external document id and location', $) ;
#149 = PROPERTY_DEFINITION ('external definition','', #115 ) ;
#150 = ITEM_DEFINED_TRANSFORMATION ( 'NONE', 'NONE', #411,  #119 ) ;
#151 = AXIS2_PLACEMENT_3D ( 'NONE', #3, #224, #176 ) ;
#152 = ITEM_DEFINED_TRANSFORMATION ( 'NONE', 'NONE', #164,  #222 ) ;
#153 =( NAMED_UNIT ( * ) SI_UNIT ( $, .STERADIAN. ) SOLID_ANGLE_UNIT ( ) );
#154 = PROPERTY_DEFINITION_REPRESENTATION ( #291, #484 ) ;
#155 = PRODUCT_DEFINITION_SHAPE ( 'NONE', 'NONE',  #556 ) ;
#156 = CARTESIAN_POINT ( 'NONE',  ( -49.24999999999998579, -5.000000000000000888, -4.499999999999982236 ) ) ;
#157 = OBJECT_ROLE ('mandatory',$ ) ;
#158 = PROPERTY_DEFINITION ('document property','', #105 ) ;
#159 = PROPERTY_DEFINITION_REPRESENTATION ( #530, #178 ) ;
#160 = DIRECTION ( 'NONE',  ( 0.9674340467673752109, 0.2139785318623782240, 0.1352203869885056364 ) ) ;
#161 = APPLIED_EXTERNAL_IDENTIFICATION_ASSIGNMENT ( 'Part4_Handle.STEP' , #318, #189,( #14) ) ;
#162 =( REPRESENTATION_RELATIONSHIP ('NONE','NONE', #389, #178 ) REPRESENTATION_RELATIONSHIP_WITH_TRANSFORMATION ( #146 )SHAPE_REPRESENTATION_RELATIONSHIP( ) );
#163 =( NAMED_UNIT ( * ) PLANE_ANGLE_UNIT ( ) SI_UNIT ( $, .RADIAN. ) );
#164 = AXIS2_PLACEMENT_3D ( 'NONE', #87, #263, #351 ) ;
#165 = PRODUCT_DEFINITION_SHAPE ( 'NONE', 'NONE',  #543 ) ;
#166 = UNCERTAINTY_MEASURE_WITH_UNIT (LENGTH_MEASURE( 1.000000000000000082E-05 ), #181, 'distance_accuracy_value', 'NONE');
#167 = PRODUCT_DEFINITION_SHAPE ( 'NONE', 'NONE',  #282 ) ;
#168 = CARTESIAN_POINT ( 'NONE',  ( -57.74999999999999289, -6.300000000000003375, -10.99999999999998401 ) ) ;
#169 = APPLICATION_PROTOCOL_DEFINITION ( 'draft international standard', 'automotive_design', 1998, #278 ) ;
#170 =( NAMED_UNIT ( * ) SI_UNIT ( $, .STERADIAN. ) SOLID_ANGLE_UNIT ( ) );
#171 = PRODUCT_DEFINITION_FORMATION_WITH_SPECIFIED_SOURCE ( 'Symmetric', '', #369, .NOT_KNOWN. ) ;
#172 = DOCUMENT_TYPE ( 'geometry' ) ;
#173 = PRODUCT_RELATED_PRODUCT_CATEGORY ( 'part', '', ( #80 ) ) ;
#174 = APPLICATION_PROTOCOL_DEFINITION ( 'draft international standard', 'automotive_design', 1998, #536 ) ;
#175 = DIRECTION ( 'NONE',  ( 1.000000000000000000, 0.000000000000000000, 0.000000000000000000 ) ) ;
#176 = DIRECTION ( 'NONE',  ( 1.000000000000000000, 0.000000000000000000, 0.000000000000000000 ) ) ;
#177 =( NAMED_UNIT ( * ) SI_UNIT ( $, .STERADIAN. ) SOLID_ANGLE_UNIT ( ) );
#178 = SHAPE_REPRESENTATION ( 'ISO 7046-1 - M2 x 6 - Z - 6N_ISO 7046-1 - M2 x 6 - Z - 6N', ( #464 ), #183 ) ;
#179 = SHAPE_DEFINITION_REPRESENTATION ( #508, #25 ) ;
#180 =( REPRESENTATION_RELATIONSHIP ('NONE','NONE', #389, #217 ) REPRESENTATION_RELATIONSHIP_WITH_TRANSFORMATION ( #277 )SHAPE_REPRESENTATION_RELATIONSHIP( ) );
#181 =( LENGTH_UNIT ( ) NAMED_UNIT ( * ) SI_UNIT ( .MILLI., .METRE. ) );
#182 = EXTERNAL_SOURCE (IDENTIFIER('') ) ;
#183 =( GEOMETRIC_REPRESENTATION_CONTEXT ( 3 ) GLOBAL_UNCERTAINTY_ASSIGNED_CONTEXT ( ( #259 ) ) GLOBAL_UNIT_ASSIGNED_CONTEXT ( ( #187, #1, #52 ) ) REPRESENTATION_CONTEXT ( 'NONE', 'WORKASPACE' ) );
#184 = PROPERTY_DEFINITION_REPRESENTATION ( #67, #425 ) ;
#185 = APPLICATION_CONTEXT ( 'automotive_design' ) ;
#186 = APPLICATION_PROTOCOL_DEFINITION ( 'draft international standard', 'automotive_design', 1998, #487 ) ;
#187 =( LENGTH_UNIT ( ) NAMED_UNIT ( * ) SI_UNIT ( .MILLI., .METRE. ) );
#188 = UNCERTAINTY_MEASURE_WITH_UNIT (LENGTH_MEASURE( 1.000000000000000082E-05 ), #497, 'distance_accuracy_value', 'NONE');
#189 = EXTERNAL_SOURCE (IDENTIFIER('') ) ;
#190 = PROPERTY_DEFINITION_REPRESENTATION ( #372, #25 ) ;
#191 = CARTESIAN_POINT ( 'NONE',  ( 0.000000000000000000, 0.000000000000000000, 0.000000000000000000 ) ) ;
#192 = APPLICATION_PROTOCOL_DEFINITION ( 'draft international standard', 'automotive_design', 1998, #347 ) ;
#193 = IDENTIFICATION_ROLE ( 'external document id and location', $) ;
#194 = PRODUCT_DEFINITION_CONTEXT ( 'detailed design', #201, 'design' ) ;
#195 = PROPERTY_DEFINITION_REPRESENTATION ( #507, #101 ) ;
#196 =( NAMED_UNIT ( * ) PLANE_ANGLE_UNIT ( ) SI_UNIT ( $, .RADIAN. ) );
#197 = PROPERTY_DEFINITION_REPRESENTATION ( #216, #178 ) ;
#198 = ROLE_ASSOCIATION ( #34, #251 ) ;
#199 = CARTESIAN_POINT ( 'NONE',  ( 0.000000000000000000, 0.000000000000000000, 0.000000000000000000 ) ) ;
#200 = PRODUCT_DEFINITION_SHAPE ( 'NONE', 'NONE',  #554 ) ;
#201 = APPLICATION_CONTEXT ( 'automotive_design' ) ;
#202 = PRODUCT_DEFINITION_FORMATION_WITH_SPECIFIED_SOURCE ( 'Symmetric', '', #122, .NOT_KNOWN. ) ;
#203 = DOCUMENT_FILE ( 'Part5_Lockpin.STEP' , '', '', #141, '' ,$ ) ;
#204 = PROPERTY_DEFINITION ('external definition','', #107 ) ;
#205 = APPLIED_DOCUMENT_REFERENCE ( #535,'',( #439) ) ;
#206 = EXTERNAL_SOURCE (IDENTIFIER('') ) ;
#207 = DIRECTION ( 'NONE',  ( 4.366310789873601213E-16, 7.212834394880546193E-17, 1.000000000000000000 ) ) ;
#208 = UNCERTAINTY_MEASURE_WITH_UNIT (LENGTH_MEASURE( 1.000000000000000082E-05 ), #273, 'distance_accuracy_value', 'NONE');
#209 = PRODUCT ( 'Part2_Threaded Shaft_C-Clamp', 'Part2_Threaded Shaft_C-Clamp', '', ( #360 ) ) ;
#210 = APPLIED_EXTERNAL_IDENTIFICATION_ASSIGNMENT ( 'ISO 7046-1 - M2 x 6 - Z - 6N_ISO 7046-1 - M2 x 6 - Z - 6N.STEP' , #297, #326,( #258) ) ;
#211 = PRODUCT_RELATED_PRODUCT_CATEGORY ( 'part', '', ( #465 ) ) ;
#212 = DIRECTION ( 'NONE',  ( -0.8612495529283623608, 0.4295935117346182941, 0.2714749017058746272 ) ) ;
#213 = PRODUCT_DEFINITION_FORMATION_WITH_SPECIFIED_SOURCE ( 'Symmetric', '', #427, .NOT_KNOWN. ) ;
#214 = IDENTIFICATION_ROLE ( 'external document id and location', $) ;
#215 = PRODUCT ( 'Part5_Lockpin', 'Part5_Lockpin', '', ( #478 ) ) ;
#216 = PROPERTY_DEFINITION ('document property','', #17 ) ;
#217 = SHAPE_REPRESENTATION ( 'Part1_Frame_C-Clamp', ( #298 ), #480 ) ;
#218 = IDENTIFICATION_ROLE ( 'external document id and location', $) ;
#219 = APPLICATION_PROTOCOL_DEFINITION ( 'draft international standard', 'automotive_design', 1998, #321 ) ;
#220 = PROPERTY_DEFINITION ('external definition','', #17 ) ;
#221 =( NAMED_UNIT ( * ) SI_UNIT ( $, .STERADIAN. ) SOLID_ANGLE_UNIT ( ) );
#222 = AXIS2_PLACEMENT_3D ( 'NONE', #199, #30, #253 ) ;
#223 = DIRECTION ( 'NONE',  ( 0.000000000000000000, 0.000000000000000000, 1.000000000000000000 ) ) ;
#224 = DIRECTION ( 'NONE',  ( 0.000000000000000000, 0.000000000000000000, 1.000000000000000000 ) ) ;
#225 = IDENTIFICATION_ROLE ( 'external document id and location', $) ;
#226 = PRODUCT_DEFINITION_CONTEXT ( 'detailed design', #536, 'design' ) ;
#227 = DIRECTION ( 'NONE',  ( 3.469446951953614189E-18, 1.000000000000000000, -5.551115123125782702E-17 ) ) ;
#228 = PRODUCT_RELATED_PRODUCT_CATEGORY ( 'part', '', ( #427 ) ) ;
#229 = CARTESIAN_POINT ( 'NONE',  ( 0.000000000000000000, 0.000000000000000000, 0.000000000000000000 ) ) ;
#230 = APPLICATION_PROTOCOL_DEFINITION ( 'draft international standard', 'automotive_design', 1998, #274 ) ;
#231 =( NAMED_UNIT ( * ) SI_UNIT ( $, .STERADIAN. ) SOLID_ANGLE_UNIT ( ) );
#232 = AXIS2_PLACEMENT_3D ( 'NONE', #19, #27, #207 ) ;
#233 = DOCUMENT_FILE ( 'Part8_Spring.STEP' , '', '', #498, '' ,$ ) ;
#234 =( LENGTH_UNIT ( ) NAMED_UNIT ( * ) SI_UNIT ( .MILLI., .METRE. ) );
#235 = ROLE_ASSOCIATION ( #363, #448 ) ;
#236 = CONTEXT_DEPENDENT_SHAPE_REPRESENTATION ( #86, #114 ) ;
#237 =( REPRESENTATION_RELATIONSHIP ('NONE','NONE', #389, #451 ) REPRESENTATION_RELATIONSHIP_WITH_TRANSFORMATION ( #409 )SHAPE_REPRESENTATION_RELATIONSHIP( ) );
#238 = PRODUCT_DEFINITION_CONTEXT ( 'detailed design', #278, 'design' ) ;
#239 = APPLIED_DOCUMENT_REFERENCE ( #397,'',( #434) ) ;
#240 = DIRECTION ( 'NONE',  ( 0.000000000000000000, 0.000000000000000000, 1.000000000000000000 ) ) ;
#241 = APPLIED_EXTERNAL_IDENTIFICATION_ASSIGNMENT ( 'ISO 7046-1 - M2 x 6 - Z - 6N_ISO 7046-1 - M2 x 6 - Z - 6N.STEP' , #193, #306,( #17) ) ;
#242 = DOCUMENT_FILE ( 'Part5_Lockpin.STEP' , '', '', #276, '' ,$ ) ;
#243 = AXIS2_PLACEMENT_3D ( 'NONE', #45, #426, #160 ) ;
#244 = APPLIED_DOCUMENT_REFERENCE ( #233,'',( #421) ) ;
#245 = DIRECTION ( 'NONE',  ( 0.000000000000000000, 0.000000000000000000, 1.000000000000000000 ) ) ;
#246 = APPLICATION_CONTEXT ( 'automotive_design' ) ;
#247 = PROPERTY_DEFINITION ('external definition','', #535 ) ;
#248 = DOCUMENT_TYPE ( 'geometry' ) ;
#249 = PRODUCT_DEFINITION ( 'General', '', #415, #7 ) ;
#250 = CARTESIAN_POINT ( 'NONE',  ( -29.61322115875333338, 0.9999999999999961142, 3.625000000000001776 ) ) ;
#251 = APPLIED_DOCUMENT_REFERENCE ( #203,'',( #249) ) ;
#252 = APPLICATION_CONTEXT ( 'automotive_design' ) ;
#253 = DIRECTION ( 'NONE',  ( 1.000000000000000000, 0.000000000000000000, 0.000000000000000000 ) ) ;
#254 = PROPERTY_DEFINITION ('document property','', #242 ) ;
#255 = PRODUCT_DEFINITION_FORMATION_WITH_SPECIFIED_SOURCE ( 'Symmetric', '', #209, .NOT_KNOWN. ) ;
#256 = PROPERTY_DEFINITION_REPRESENTATION ( #500, #178 ) ;
#257 = DIRECTION ( 'NONE',  ( -0.9999999999999998890, 8.074965326773663418E-17, 8.326672684688674053E-17 ) ) ;
#258 = DOCUMENT_FILE ( 'ISO 7046-1 - M2 x 6 - Z - 6N_ISO 7046-1 - M2 x 6 - Z - 6N.STEP' , '', '', #373, '' ,$ ) ;
#259 = UNCERTAINTY_MEASURE_WITH_UNIT (LENGTH_MEASURE( 1.000000000000000082E-05 ), #187, 'distance_accuracy_value', 'NONE');
#260 =( REPRESENTATION_RELATIONSHIP ('NONE','NONE', #389, #178 ) REPRESENTATION_RELATIONSHIP_WITH_TRANSFORMATION ( #109 )SHAPE_REPRESENTATION_RELATIONSHIP( ) );
#261 = DIRECTION ( 'NONE',  ( 1.000000000000000000, 0.000000000000000000, 0.000000000000000000 ) ) ;
#262 = SHAPE_REPRESENTATION ( 'Part8_Spring', ( #49 ), #42 ) ;
#263 = DIRECTION ( 'NONE',  ( 1.135642681863771364E-16, 0.9926055145222471010, 0.1213848942003311754 ) ) ;
#264 = APPLICATION_CONTEXT ( 'automotive_design' ) ;
#265 = SHAPE_DEFINITION_REPRESENTATION ( #420, #178 ) ;
#266 = APPLICATION_CONTEXT ( 'automotive_design' ) ;
#267 = SHAPE_DEFINITION_REPRESENTATION ( #35, #62 ) ;
#268 = PRODUCT_CONTEXT ( 'NONE', #246, 'mechanical' ) ;
#269 =( REPRESENTATION_RELATIONSHIP ('NONE','NONE', #389, #62 ) REPRESENTATION_RELATIONSHIP_WITH_TRANSFORMATION ( #28 )SHAPE_REPRESENTATION_RELATIONSHIP( ) );
#270 = PROPERTY_DEFINITION ('external definition','', #53 ) ;
#271 = DIRECTION ( 'NONE',  ( 0.5280744162682894371, 0.000000000000000000, -0.8491980987277972792 ) ) ;
#272 = AXIS2_PLACEMENT_3D ( 'NONE', #505, #257, #301 ) ;
#273 =( LENGTH_UNIT ( ) NAMED_UNIT ( * ) SI_UNIT ( .MILLI., .METRE. ) );
#274 = APPLICATION_CONTEXT ( 'automotive_design' ) ;
#275 = DOCUMENT_FILE ( 'ISO 7046-1 - M2 x 6 - Z - 6N_ISO 7046-1 - M2 x 6 - Z - 6N.STEP' , '', '', #390, '' ,$ ) ;
#276 = DOCUMENT_TYPE ( 'geometry' ) ;
#277 = ITEM_DEFINED_TRANSFORMATION ( 'NONE', 'NONE', #137,  #298 ) ;
#278 = APPLICATION_CONTEXT ( 'automotive_design' ) ;
#279 = IDENTIFICATION_ROLE ( 'external document id and location', $) ;
#280 = OBJECT_ROLE ('mandatory',$ ) ;
#281 = CONTEXT_DEPENDENT_SHAPE_REPRESENTATION ( #422, #410 ) ;
#282 = PRODUCT_DEFINITION ( 'General', '', #399, #325 ) ;
#283 = PROPERTY_DEFINITION_REPRESENTATION ( #204, #217 ) ;
#284 =( NAMED_UNIT ( * ) PLANE_ANGLE_UNIT ( ) SI_UNIT ( $, .RADIAN. ) );
#285 = DOCUMENT_TYPE ( 'geometry' ) ;
#286 = PRODUCT_DEFINITION_SHAPE ( 'NONE', 'NONE',  #550 ) ;
#287 =( GEOMETRIC_REPRESENTATION_CONTEXT ( 3 ) GLOBAL_UNCERTAINTY_ASSIGNED_CONTEXT ( ( #31 ) ) GLOBAL_UNIT_ASSIGNED_CONTEXT ( ( #383, #479, #320 ) ) REPRESENTATION_CONTEXT ( 'NONE', 'WORKASPACE' ) );
#288 = PRODUCT_DEFINITION ( 'General', '', #340, #104 ) ;
#289 = ITEM_DEFINED_TRANSFORMATION ( 'NONE', 'NONE', #433,  #99 ) ;
#290 = APPLICATION_CONTEXT ( 'automotive_design' ) ;
#291 = PROPERTY_DEFINITION ('document property','', #538 ) ;
#292 = PRODUCT_DEFINITION_SHAPE ( 'NONE', 'NONE',  #544 ) ;
#293 = PROPERTY_DEFINITION_REPRESENTATION ( #110, #178 ) ;
#294 = DIRECTION ( 'NONE',  ( 0.8335909073481440057, -8.735564905989134595E-17, 0.5523822944180034611 ) ) ;
#295 = AXIS2_PLACEMENT_3D ( 'NONE', #302, #79, #468 ) ;
#296 = APPLIED_EXTERNAL_IDENTIFICATION_ASSIGNMENT ( 'Part3_Pad1.STEP' , #214, #182,( #538) ) ;
#297 = IDENTIFICATION_ROLE ( 'external document id and location', $) ;
#298 = AXIS2_PLACEMENT_3D ( 'NONE', #229, #223, #46 ) ;
#299 = APPLIED_DOCUMENT_REFERENCE ( #115,'',( #249) ) ;
#300 = PRODUCT_DEFINITION_SHAPE ( 'NONE', 'NONE',  #545 ) ;
#301 = DIRECTION ( 'NONE',  ( -8.326672684688674053E-17, 1.734723475976804783E-18, -0.9999999999999998890 ) ) ;
#302 = CARTESIAN_POINT ( 'NONE',  ( -84.86322115875337602, 0.9999999999999958922, 3.625000000000024869 ) ) ;
#303 = APPLICATION_CONTEXT ( 'automotive_design' ) ;
#304 = PRODUCT_DEFINITION_SHAPE ( 'NONE', 'NONE',  #439 ) ;
#305 = DIRECTION ( 'NONE',  ( -0.8491980987277972792, 0.000000000000000000, -0.5280744162682894371 ) ) ;
#306 = EXTERNAL_SOURCE (IDENTIFIER('') ) ;
#307 = APPLICATION_PROTOCOL_DEFINITION ( 'draft international standard', 'automotive_design', 1998, #393 ) ;
#308 = DIRECTION ( 'NONE',  ( 0.000000000000000000, 0.000000000000000000, 1.000000000000000000 ) ) ;
#309 =( REPRESENTATION_RELATIONSHIP ('NONE','NONE', #389, #178 ) REPRESENTATION_RELATIONSHIP_WITH_TRANSFORMATION ( #454 )SHAPE_REPRESENTATION_RELATIONSHIP( ) );
#310 = SHAPE_DEFINITION_REPRESENTATION ( #470, #484 ) ;
#311 = APPLICATION_PROTOCOL_DEFINITION ( 'draft international standard', 'automotive_design', 1998, #36 ) ;
#312 = PRODUCT ( 'Part3_Pad1', 'Part3_Pad1', '', ( #8 ) ) ;
#313 = EXTERNAL_SOURCE (IDENTIFIER('') ) ;
#314 = CARTESIAN_POINT ( 'NONE',  ( 0.000000000000000000, 0.000000000000000000, 0.000000000000000000 ) ) ;
#315 =( GEOMETRIC_REPRESENTATION_CONTEXT ( 3 ) GLOBAL_UNCERTAINTY_ASSIGNED_CONTEXT ( ( #532 ) ) GLOBAL_UNIT_ASSIGNED_CONTEXT ( ( #436, #437, #221 ) ) REPRESENTATION_CONTEXT ( 'NONE', 'WORKASPACE' ) );
#316 = PRODUCT_RELATED_PRODUCT_CATEGORY ( 'part', '', ( #369 ) ) ;
#317 = ITEM_DEFINED_TRANSFORMATION ( 'NONE', 'NONE', #506,  #49 ) ;
#318 = IDENTIFICATION_ROLE ( 'external document id and location', $) ;
#319 = SHAPE_DEFINITION_REPRESENTATION ( #111, #425 ) ;
#320 =( NAMED_UNIT ( * ) SI_UNIT ( $, .STERADIAN. ) SOLID_ANGLE_UNIT ( ) );
#321 = APPLICATION_CONTEXT ( 'automotive_design' ) ;
#322 = PROPERTY_DEFINITION_REPRESENTATION ( #378, #178 ) ;
#323 = DIRECTION ( 'NONE',  ( 1.000000000000000000, 0.000000000000000000, 0.000000000000000000 ) ) ;
#324 = PRODUCT_DEFINITION_CONTEXT ( 'detailed design', #487, 'design' ) ;
#325 = PRODUCT_DEFINITION_CONTEXT ( 'detailed design', #522, 'design' ) ;
#326 = EXTERNAL_SOURCE (IDENTIFIER('') ) ;
#327 = CONTEXT_DEPENDENT_SHAPE_REPRESENTATION ( #309, #56 ) ;
#328 = ROLE_ASSOCIATION ( #533, #239 ) ;
#329 =( NAMED_UNIT ( * ) SI_UNIT ( $, .STERADIAN. ) SOLID_ANGLE_UNIT ( ) );
#330 = UNCERTAINTY_MEASURE_WITH_UNIT (LENGTH_MEASURE( 1.000000000000000082E-05 ), #375, 'distance_accuracy_value', 'NONE');
#331 = PROPERTY_DEFINITION_REPRESENTATION ( #453, #178 ) ;
#332 = PROPERTY_DEFINITION ('document property','', #203 ) ;
#333 =( REPRESENTATION_RELATIONSHIP ('NONE','NONE', #389, #178 ) REPRESENTATION_RELATIONSHIP_WITH_TRANSFORMATION ( #95 )SHAPE_REPRESENTATION_RELATIONSHIP( ) );
#334 = UNCERTAINTY_MEASURE_WITH_UNIT (LENGTH_MEASURE( 1.000000000000000082E-05 ), #138, 'distance_accuracy_value', 'NONE');
#335 = PROPERTY_DEFINITION ('external definition','', #242 ) ;
#336 = IDENTIFICATION_ROLE ( 'external document id and location', $) ;
#337 =( NAMED_UNIT ( * ) PLANE_ANGLE_UNIT ( ) SI_UNIT ( $, .RADIAN. ) );
#338 = PROPERTY_DEFINITION ('external definition','', #233 ) ;
#339 = PRODUCT_RELATED_PRODUCT_CATEGORY ( 'part', '', ( #312 ) ) ;
#340 = PRODUCT_DEFINITION_FORMATION_WITH_SPECIFIED_SOURCE ( 'Symmetric', '', #80, .NOT_KNOWN. ) ;
#341 = PRODUCT_DEFINITION_SHAPE ( 'NONE', 'NONE',  #547 ) ;
#342 = DOCUMENT_TYPE ( 'geometry' ) ;
#343 = PRODUCT_DEFINITION_SHAPE ( 'NONE', 'NONE',  #288 ) ;
#344 = CARTESIAN_POINT ( 'NONE',  ( -130.8632211587532765, 19.02951162535391916, -24.90567140028843340 ) ) ;
#345 = DOCUMENT_TYPE ( 'geometry' ) ;
#346 = APPLICATION_PROTOCOL_DEFINITION ( 'draft international standard', 'automotive_design', 1998, #264 ) ;
#347 = APPLICATION_CONTEXT ( 'automotive_design' ) ;
#348 = SHAPE_DEFINITION_REPRESENTATION ( #304, #451 ) ;
#349 = APPLICATION_PROTOCOL_DEFINITION ( 'draft international standard', 'automotive_design', 1998, #39 ) ;
#350 = IDENTIFICATION_ROLE ( 'external document id and location', $) ;
#351 = DIRECTION ( 'NONE',  ( 4.259986426306257692E-16, -0.1213848942003311754, 0.9926055145222471010 ) ) ;
#352 =( NAMED_UNIT ( * ) PLANE_ANGLE_UNIT ( ) SI_UNIT ( $, .RADIAN. ) );
#353 = APPLICATION_CONTEXT ( 'automotive_design' ) ;
#354 = APPLIED_DOCUMENT_REFERENCE ( #53,'',( #288) ) ;
#355 = UNCERTAINTY_MEASURE_WITH_UNIT (LENGTH_MEASURE( 1.000000000000000082E-05 ), #234, 'distance_accuracy_value', 'NONE');
#356 = OBJECT_ROLE ('mandatory',$ ) ;
#357 = ROLE_ASSOCIATION ( #89, #102 ) ;
#358 = CONTEXT_DEPENDENT_SHAPE_REPRESENTATION ( #386, #155 ) ;
#359 = PROPERTY_DEFINITION_REPRESENTATION ( #494, #25 ) ;
#360 = PRODUCT_CONTEXT ( 'NONE', #274, 'mechanical' ) ;
#361 = DIRECTION ( 'NONE',  ( 1.000000000000000000, 0.000000000000000000, 0.000000000000000000 ) ) ;
#362 = PROPERTY_DEFINITION ('external definition','', #203 ) ;
#363 = OBJECT_ROLE ('mandatory',$ ) ;
#364 = DIRECTION ( 'NONE',  ( 0.000000000000000000, 0.000000000000000000, 1.000000000000000000 ) ) ;
#365 = APPLICATION_CONTEXT ( 'automotive_design' ) ;
#366 = PROPERTY_DEFINITION_REPRESENTATION ( #247, #451 ) ;
#367 = PROPERTY_DEFINITION ('external definition','', #538 ) ;
#368 =( GEOMETRIC_REPRESENTATION_CONTEXT ( 3 ) GLOBAL_UNCERTAINTY_ASSIGNED_CONTEXT ( ( #526 ) ) GLOBAL_UNIT_ASSIGNED_CONTEXT ( ( #537, #337, #460 ) ) REPRESENTATION_CONTEXT ( 'NONE', 'WORKASPACE' ) );
#369 = PRODUCT ( 'Part8_Spring', 'Part8_Spring', '', ( #40 ) ) ;
#370 = ROLE_ASSOCIATION ( #356, #64 ) ;
#371 = CARTESIAN_POINT ( 'NONE',  ( 0.000000000000000000, 0.000000000000000000, 0.000000000000000000 ) ) ;
#372 = PROPERTY_DEFINITION ('external definition','', #397 ) ;
#373 = DOCUMENT_TYPE ( 'geometry' ) ;
#374 = ROLE_ASSOCIATION ( #123, #205 ) ;
#375 =( LENGTH_UNIT ( ) NAMED_UNIT ( * ) SI_UNIT ( .MILLI., .METRE. ) );
#376 = PRODUCT_DEFINITION_SHAPE ( 'NONE', 'NONE',  #75 ) ;
#377 = PRODUCT_DEFINITION_FORMATION_WITH_SPECIFIED_SOURCE ( 'Symmetric', '', #380, .NOT_KNOWN. ) ;
#378 = PROPERTY_DEFINITION ('document property','', #275 ) ;
#379 = DIRECTION ( 'NONE',  ( -2.943965478804560200E-16, 0.5342077518623358223, -0.8453532266752100677 ) ) ;
#380 = PRODUCT ( 'Part9_ToothedBlock', 'Part9_ToothedBlock', '', ( #382 ) ) ;
#381 =( REPRESENTATION_RELATIONSHIP ('NONE','NONE', #389, #262 ) REPRESENTATION_RELATIONSHIP_WITH_TRANSFORMATION ( #317 )SHAPE_REPRESENTATION_RELATIONSHIP( ) );
#382 = PRODUCT_CONTEXT ( 'NONE', #185, 'mechanical' ) ;
#383 =( LENGTH_UNIT ( ) NAMED_UNIT ( * ) SI_UNIT ( .MILLI., .METRE. ) );
#384 = PRODUCT_DEFINITION_CONTEXT ( 'detailed design', #347, 'design' ) ;
#385 = SHAPE_DEFINITION_REPRESENTATION ( #343, #13 ) ;
#386 =( REPRESENTATION_RELATIONSHIP ('NONE','NONE', #389, #13 ) REPRESENTATION_RELATIONSHIP_WITH_TRANSFORMATION ( #150 )SHAPE_REPRESENTATION_RELATIONSHIP( ) );
#387 = APPLICATION_PROTOCOL_DEFINITION ( 'draft international standard', 'automotive_design', 1998, #353 ) ;
#388 = DIRECTION ( 'NONE',  ( -1.664130595504745330E-16, 1.000000000000000000, 3.865107713609850157E-17 ) ) ;
#389 = SHAPE_REPRESENTATION ( 'C-Clamp Assembly', ( #151, #295, #137, #506, #41, #455, #272, #527, #433, #91, #232, #164, #481, #243, #411, #50 ), #315 ) ;
#390 = DOCUMENT_TYPE ( 'geometry' ) ;
#391 = PRODUCT_DEFINITION_CONTEXT ( 'detailed design', #303, 'design' ) ;
#392 = APPLIED_EXTERNAL_IDENTIFICATION_ASSIGNMENT ( 'Part5_Lockpin.STEP' , #519, #9,( #115) ) ;
#393 = APPLICATION_CONTEXT ( 'automotive_design' ) ;
#394 = ITEM_DEFINED_TRANSFORMATION ( 'NONE', 'NONE', #295,  #473 ) ;
#395 = PROPERTY_DEFINITION_REPRESENTATION ( #338, #262 ) ;
#396 = UNCERTAINTY_MEASURE_WITH_UNIT (LENGTH_MEASURE( 1.000000000000000082E-05 ), #55, 'distance_accuracy_value', 'NONE');
#397 = DOCUMENT_FILE ( 'Part6_coverplate.STEP' , '', '', #285, '' ,$ ) ;
#398 = OBJECT_ROLE ('mandatory',$ ) ;
#399 = PRODUCT_DEFINITION_FORMATION_WITH_SPECIFIED_SOURCE ( 'Symmetric', '', #125, .NOT_KNOWN. ) ;
#400 = APPLIED_EXTERNAL_IDENTIFICATION_ASSIGNMENT ( 'Part9_ToothedBlock.STEP' , #225, #106,( #535) ) ;
#401 =( GEOMETRIC_REPRESENTATION_CONTEXT ( 3 ) GLOBAL_UNCERTAINTY_ASSIGNED_CONTEXT ( ( #330 ) ) GLOBAL_UNIT_ASSIGNED_CONTEXT ( ( #375, #163, #153 ) ) REPRESENTATION_CONTEXT ( 'NONE', 'WORKASPACE' ) );
#402 = CONTEXT_DEPENDENT_SHAPE_REPRESENTATION ( #162, #512 ) ;
#403 = ROLE_ASSOCIATION ( #71, #244 ) ;
#404 = PRODUCT_DEFINITION ( 'General', '', #61, #449 ) ;
#405 = PROPERTY_DEFINITION_REPRESENTATION ( #335, #62 ) ;
#406 = IDENTIFICATION_ROLE ( 'external document id and location', $) ;
#407 = CONTEXT_DEPENDENT_SHAPE_REPRESENTATION ( #113, #286 ) ;
#408 = DIRECTION ( 'NONE',  ( 3.658602750562847254E-16, 0.7626384251551001636, 0.6468250400818981172 ) ) ;
#409 = ITEM_DEFINED_TRANSFORMATION ( 'NONE', 'NONE', #232,  #117 ) ;
#410 = PRODUCT_DEFINITION_SHAPE ( 'NONE', 'NONE',  #555 ) ;
#411 = AXIS2_PLACEMENT_3D ( 'NONE', #126, #271, #305 ) ;
#412 = IDENTIFICATION_ROLE ( 'external document id and location', $) ;
#413 =( GEOMETRIC_REPRESENTATION_CONTEXT ( 3 ) GLOBAL_UNCERTAINTY_ASSIGNED_CONTEXT ( ( #396 ) ) GLOBAL_UNIT_ASSIGNED_CONTEXT ( ( #55, #196, #329 ) ) REPRESENTATION_CONTEXT ( 'NONE', 'WORKASPACE' ) );
#414 = PRODUCT_RELATED_PRODUCT_CATEGORY ( 'part', '', ( #125 ) ) ;
#415 = PRODUCT_DEFINITION_FORMATION_WITH_SPECIFIED_SOURCE ( 'Symmetric', '', #215, .NOT_KNOWN. ) ;
#416 = PROPERTY_DEFINITION ('document property','', #107 ) ;
#417 = ITEM_DEFINED_TRANSFORMATION ( 'NONE', 'NONE', #243,  #99 ) ;
#418 = PRODUCT_CONTEXT ( 'NONE', #266, 'mechanical' ) ;
#419 = PROPERTY_DEFINITION_REPRESENTATION ( #362, #62 ) ;
#420 = PRODUCT_DEFINITION_SHAPE ( 'NONE', 'NONE',  #452 ) ;
#421 = PRODUCT_DEFINITION ( 'General', '', #171, #37 ) ;
#422 =( REPRESENTATION_RELATIONSHIP ('NONE','NONE', #389, #62 ) REPRESENTATION_RELATIONSHIP_WITH_TRANSFORMATION ( #417 )SHAPE_REPRESENTATION_RELATIONSHIP( ) );
#423 = DIRECTION ( 'NONE',  ( -0.9999976788402442640, 7.125286045117360153E-17, 0.002154603008361493516 ) ) ;
#424 = APPLIED_EXTERNAL_IDENTIFICATION_ASSIGNMENT ( 'ISO 7046-1 - M2 x 6 - Z - 6N_ISO 7046-1 - M2 x 6 - Z - 6N.STEP' , #148, #54,( #275) ) ;
#425 = SHAPE_REPRESENTATION ( 'Part2_Threaded Shaft_C-Clamp', ( #473 ), #59 ) ;
#426 = DIRECTION ( 'NONE',  ( -0.2531232212881702193, 0.8178234930302570316, 0.5168107671986811313 ) ) ;
#427 = PRODUCT ( 'Part6_coverplate', 'Part6_coverplate', '', ( #92 ) ) ;
#428 = SHAPE_DEFINITION_REPRESENTATION ( #376, #101 ) ;
#429 = DOCUMENT_TYPE ( 'geometry' ) ;
#430 = CARTESIAN_POINT ( 'NONE',  ( 0.000000000000000000, 0.000000000000000000, 0.000000000000000000 ) ) ;
#431 = APPLICATION_PROTOCOL_DEFINITION ( 'draft international standard', 'automotive_design', 1998, #303 ) ;
#432 = PRODUCT_RELATED_PRODUCT_CATEGORY ( 'part', '', ( #209 ) ) ;
#433 = AXIS2_PLACEMENT_3D ( 'NONE', #250, #462, #408 ) ;
#434 = PRODUCT_DEFINITION ( 'General', '', #213, #194 ) ;
#435 = IDENTIFICATION_ROLE ( 'external document id and location', $) ;
#436 =( LENGTH_UNIT ( ) NAMED_UNIT ( * ) SI_UNIT ( .MILLI., .METRE. ) );
#437 =( NAMED_UNIT ( * ) PLANE_ANGLE_UNIT ( ) SI_UNIT ( $, .RADIAN. ) );
#438 = ROLE_ASSOCIATION ( #525, #491 ) ;
#439 = PRODUCT_DEFINITION ( 'General', '', #377, #238 ) ;
#440 = EXTERNAL_SOURCE (IDENTIFIER('') ) ;
#441 = APPLIED_EXTERNAL_IDENTIFICATION_ASSIGNMENT ( 'ISO 7046-1 - M2 x 6 - Z - 6N_ISO 7046-1 - M2 x 6 - Z - 6N.STEP' , #350, #490,( #495) ) ;
#442 = APPLIED_DOCUMENT_REFERENCE ( #107,'',( #16) ) ;
#443 = CARTESIAN_POINT ( 'NONE',  ( 0.000000000000000000, 0.000000000000000000, 0.000000000000000000 ) ) ;
#444 =( REPRESENTATION_RELATIONSHIP ('NONE','NONE', #389, #484 ) REPRESENTATION_RELATIONSHIP_WITH_TRANSFORMATION ( #152 )SHAPE_REPRESENTATION_RELATIONSHIP( ) );
#445 = ROLE_ASSOCIATION ( #43, #456 ) ;
#446 = PROPERTY_DEFINITION_REPRESENTATION ( #469, #178 ) ;
#447 = DIRECTION ( 'NONE',  ( 1.000000000000000000, 0.000000000000000000, 0.000000000000000000 ) ) ;
#448 = APPLIED_DOCUMENT_REFERENCE ( #17,'',( #452) ) ;
#449 = PRODUCT_DEFINITION_CONTEXT ( 'detailed design', #252, 'design' ) ;
#450 = CONTEXT_DEPENDENT_SHAPE_REPRESENTATION ( #381, #300 ) ;
#451 = SHAPE_REPRESENTATION ( 'Part9_ToothedBlock', ( #117 ), #142 ) ;
#452 = PRODUCT_DEFINITION ( 'General', '', #202, #391 ) ;
#453 = PROPERTY_DEFINITION ('document property','', #495 ) ;
#454 = ITEM_DEFINED_TRANSFORMATION ( 'NONE', 'NONE', #527,  #464 ) ;
#455 = AXIS2_PLACEMENT_3D ( 'NONE', #503, #457, #112 ) ;
#456 = APPLIED_DOCUMENT_REFERENCE ( #242,'',( #249) ) ;
#457 = DIRECTION ( 'NONE',  ( 0.6949125091559833489, 7.534256521142699167E-18, 0.7190942946641527556 ) ) ;
#458 = PRODUCT_DEFINITION_SHAPE ( 'NONE', 'NONE',  #552 ) ;
#459 = CONTEXT_DEPENDENT_SHAPE_REPRESENTATION ( #444, #70 ) ;
#460 =( NAMED_UNIT ( * ) SI_UNIT ( $, .STERADIAN. ) SOLID_ANGLE_UNIT ( ) );
#461 = CONTEXT_DEPENDENT_SHAPE_REPRESENTATION ( #269, #15 ) ;
#462 = DIRECTION ( 'NONE',  ( 2.935259141158590496E-16, -0.6468250400818981172, 0.7626384251551001636 ) ) ;
#463 = APPLIED_EXTERNAL_IDENTIFICATION_ASSIGNMENT ( 'Part5_Lockpin.STEP' , #435, #313,( #242) ) ;
#464 = AXIS2_PLACEMENT_3D ( 'NONE', #191, #308, #323 ) ;
#465 = PRODUCT ( 'Part1_Frame_C-Clamp', 'Part1_Frame_C-Clamp', '', ( #517 ) ) ;
#466 = PROPERTY_DEFINITION_REPRESENTATION ( #149, #62 ) ;
#467 = EXTERNAL_SOURCE (IDENTIFIER('') ) ;
#468 = DIRECTION ( 'NONE',  ( -1.000000000000000000, 6.101522115834572838E-17, 4.366309823249144695E-16 ) ) ;
#469 = PROPERTY_DEFINITION ('external definition','', #275 ) ;
#470 = PRODUCT_DEFINITION_SHAPE ( 'NONE', 'NONE',  #404 ) ;
#471 = CARTESIAN_POINT ( 'NONE',  ( -40.74999999999999289, -6.300000000000004263, -2.499999999999986677 ) ) ;
#472 = DOCUMENT_TYPE ( 'geometry' ) ;
#473 = AXIS2_PLACEMENT_3D ( 'NONE', #430, #132, #84 ) ;
#474 = APPLICATION_PROTOCOL_DEFINITION ( 'draft international standard', 'automotive_design', 1998, #246 ) ;
#475 =( NAMED_UNIT ( * ) PLANE_ANGLE_UNIT ( ) SI_UNIT ( $, .RADIAN. ) );
#476 = APPLICATION_PROTOCOL_DEFINITION ( 'draft international standard', 'automotive_design', 1998, #82 ) ;
#477 =( NAMED_UNIT ( * ) PLANE_ANGLE_UNIT ( ) SI_UNIT ( $, .RADIAN. ) );
#478 = PRODUCT_CONTEXT ( 'NONE', #47, 'mechanical' ) ;
#479 =( NAMED_UNIT ( * ) PLANE_ANGLE_UNIT ( ) SI_UNIT ( $, .RADIAN. ) );
#480 =( GEOMETRIC_REPRESENTATION_CONTEXT ( 3 ) GLOBAL_UNCERTAINTY_ASSIGNED_CONTEXT ( ( #166 ) ) GLOBAL_UNIT_ASSIGNED_CONTEXT ( ( #181, #477, #513 ) ) REPRESENTATION_CONTEXT ( 'NONE', 'WORKASPACE' ) );
#481 = AXIS2_PLACEMENT_3D ( 'NONE', #471, #83, #388 ) ;
#482 = PRODUCT_CONTEXT ( 'NONE', #290, 'mechanical' ) ;
#483 = PRODUCT_DEFINITION ( 'General', '', #255, #324 ) ;
#484 = SHAPE_REPRESENTATION ( 'Part3_Pad1', ( #222 ), #401 ) ;
#485 = ROLE_ASSOCIATION ( #77, #354 ) ;
#486 = ROLE_ASSOCIATION ( #280, #2 ) ;
#487 = APPLICATION_CONTEXT ( 'automotive_design' ) ;
#488 = PROPERTY_DEFINITION_REPRESENTATION ( #332, #62 ) ;
#489 = PRODUCT_DEFINITION_FORMATION_WITH_SPECIFIED_SOURCE ( 'Symmetric', '', #465, .NOT_KNOWN. ) ;
#490 = EXTERNAL_SOURCE (IDENTIFIER('') ) ;
#491 = APPLIED_DOCUMENT_REFERENCE ( #275,'',( #452) ) ;
#492 = CARTESIAN_POINT ( 'NONE',  ( 0.000000000000000000, 0.000000000000000000, 0.000000000000000000 ) ) ;
#493 = PROPERTY_DEFINITION_REPRESENTATION ( #270, #13 ) ;
#494 = PROPERTY_DEFINITION ('document property','', #397 ) ;
#495 = DOCUMENT_FILE ( 'ISO 7046-1 - M2 x 6 - Z - 6N_ISO 7046-1 - M2 x 6 - Z - 6N.STEP' , '', '', #172, '' ,$ ) ;
#496 = APPLIED_EXTERNAL_IDENTIFICATION_ASSIGNMENT ( 'Part5_Lockpin.STEP' , #336, #206,( #203) ) ;
#497 =( LENGTH_UNIT ( ) NAMED_UNIT ( * ) SI_UNIT ( .MILLI., .METRE. ) );
#498 = DOCUMENT_TYPE ( 'geometry' ) ;
#499 = PROPERTY_DEFINITION_REPRESENTATION ( #65, #451 ) ;
#500 = PROPERTY_DEFINITION ('document property','', #258 ) ;
#501 = APPLIED_DOCUMENT_REFERENCE ( #495,'',( #452) ) ;
#502 = PRODUCT_DEFINITION_SHAPE ( 'NONE', 'NONE',  #16 ) ;
#503 = CARTESIAN_POINT ( 'NONE',  ( -40.74999999999999289, -6.300000000000005151, -10.99999999999998046 ) ) ;
#504 = ROLE_ASSOCIATION ( #63, #299 ) ;
#505 = CARTESIAN_POINT ( 'NONE',  ( -49.25000000000000711, -5.500000000000000888, -4.499999999999984013 ) ) ;
#506 = AXIS2_PLACEMENT_3D ( 'NONE', #156, #121, #423 ) ;
#507 = PROPERTY_DEFINITION ('document property','', #14 ) ;
#508 = PRODUCT_DEFINITION_SHAPE ( 'NONE', 'NONE',  #434 ) ;
#509 = APPLICATION_PROTOCOL_DEFINITION ( 'draft international standard', 'automotive_design', 1998, #266 ) ;
#510 = EXTERNAL_SOURCE (IDENTIFIER('') ) ;
#511 = PRODUCT_CONTEXT ( 'NONE', #264, 'mechanical' ) ;
#512 = PRODUCT_DEFINITION_SHAPE ( 'NONE', 'NONE',  #557 ) ;
#513 =( NAMED_UNIT ( * ) SI_UNIT ( $, .STERADIAN. ) SOLID_ANGLE_UNIT ( ) );
#514 = EXTERNAL_SOURCE (IDENTIFIER('') ) ;
#515 = APPLICATION_PROTOCOL_DEFINITION ( 'draft international standard', 'automotive_design', 1998, #47 ) ;
#516 = CARTESIAN_POINT ( 'NONE',  ( 0.000000000000000000, 0.000000000000000000, 0.000000000000000000 ) ) ;
#517 = PRODUCT_CONTEXT ( 'NONE', #39, 'mechanical' ) ;
#518 = DIRECTION ( 'NONE',  ( 0.000000000000000000, 0.000000000000000000, 1.000000000000000000 ) ) ;
#519 = IDENTIFICATION_ROLE ( 'external document id and location', $) ;
#520 = APPLICATION_PROTOCOL_DEFINITION ( 'draft international standard', 'automotive_design', 1998, #290 ) ;
#521 = CARTESIAN_POINT ( 'NONE',  ( 0.000000000000000000, 0.000000000000000000, 0.000000000000000000 ) ) ;
#522 = APPLICATION_CONTEXT ( 'automotive_design' ) ;
#523 = PROPERTY_DEFINITION_REPRESENTATION ( #74, #262 ) ;
#524 = PROPERTY_DEFINITION_REPRESENTATION ( #120, #101 ) ;
#525 = OBJECT_ROLE ('mandatory',$ ) ;
#526 = UNCERTAINTY_MEASURE_WITH_UNIT (LENGTH_MEASURE( 1.000000000000000082E-05 ), #537, 'distance_accuracy_value', 'NONE');
#527 = AXIS2_PLACEMENT_3D ( 'NONE', #168, #294, #118 ) ;
#528 = PROPERTY_DEFINITION_REPRESENTATION ( #416, #217 ) ;
#529 = PRODUCT_RELATED_PRODUCT_CATEGORY ( 'part', '', ( #78 ) ) ;
#530 = PROPERTY_DEFINITION ('external definition','', #495 ) ;
#531 =( NAMED_UNIT ( * ) SI_UNIT ( $, .STERADIAN. ) SOLID_ANGLE_UNIT ( ) );
#532 = UNCERTAINTY_MEASURE_WITH_UNIT (LENGTH_MEASURE( 1.000000000000000082E-05 ), #436, 'distance_accuracy_value', 'NONE');
#533 = OBJECT_ROLE ('mandatory',$ ) ;
#534 = PROPERTY_DEFINITION_REPRESENTATION ( #20, #62 ) ;
#535 = DOCUMENT_FILE ( 'Part9_ToothedBlock.STEP' , '', '', #542, '' ,$ ) ;
#536 = APPLICATION_CONTEXT ( 'automotive_design' ) ;
#537 =( LENGTH_UNIT ( ) NAMED_UNIT ( * ) SI_UNIT ( .MILLI., .METRE. ) );
#538 = DOCUMENT_FILE ( 'Part3_Pad1.STEP' , '', '', #248, '' ,$ ) ;
#539 =( REPRESENTATION_RELATIONSHIP ('NONE','NONE', #389, #425 ) REPRESENTATION_RELATIONSHIP_WITH_TRANSFORMATION ( #394 )SHAPE_REPRESENTATION_RELATIONSHIP( ) );
#540 = PRODUCT_DEFINITION_SHAPE ( 'NONE', 'NONE',  #546 ) ;
#541 = APPLICATION_PROTOCOL_DEFINITION ( 'draft international standard', 'automotive_design', 1998, #522 ) ;
#542 = DOCUMENT_TYPE ( 'geometry' ) ;
#543 = NEXT_ASSEMBLY_USAGE_OCCURRENCE ( 'NAUO1', ' ', ' ', #282, #483, $ ) ;
#544 = NEXT_ASSEMBLY_USAGE_OCCURRENCE ( 'NAUO2', ' ', ' ', #282, #16, $ ) ;
#545 = NEXT_ASSEMBLY_USAGE_OCCURRENCE ( 'NAUO3', ' ', ' ', #282, #421, $ ) ;
#546 = NEXT_ASSEMBLY_USAGE_OCCURRENCE ( 'NAUO4', ' ', ' ', #282, #75, $ ) ;
#547 = NEXT_ASSEMBLY_USAGE_OCCURRENCE ( 'NAUO5', ' ', ' ', #282, #452, $ ) ;
#548 = NEXT_ASSEMBLY_USAGE_OCCURRENCE ( 'NAUO6', ' ', ' ', #282, #434, $ ) ;
#549 = NEXT_ASSEMBLY_USAGE_OCCURRENCE ( 'NAUO7', ' ', ' ', #282, #452, $ ) ;
#550 = NEXT_ASSEMBLY_USAGE_OCCURRENCE ( 'NAUO8', ' ', ' ', #282, #249, $ ) ;
#551 = NEXT_ASSEMBLY_USAGE_OCCURRENCE ( 'NAUO9', ' ', ' ', #282, #249, $ ) ;
#552 = NEXT_ASSEMBLY_USAGE_OCCURRENCE ( 'NAUO10', ' ', ' ', #282, #439, $ ) ;
#553 = NEXT_ASSEMBLY_USAGE_OCCURRENCE ( 'NAUO11', ' ', ' ', #282, #404, $ ) ;
#554 = NEXT_ASSEMBLY_USAGE_OCCURRENCE ( 'NAUO12', ' ', ' ', #282, #452, $ ) ;
#555 = NEXT_ASSEMBLY_USAGE_OCCURRENCE ( 'NAUO13', ' ', ' ', #282, #249, $ ) ;
#556 = NEXT_ASSEMBLY_USAGE_OCCURRENCE ( 'NAUO14', ' ', ' ', #282, #288, $ ) ;
#557 = NEXT_ASSEMBLY_USAGE_OCCURRENCE ( 'NAUO15', ' ', ' ', #282, #452, $ ) ;
ENDSEC;
END-ISO-10303-21;
