ISO-10303-21;
HEADER;
FILE_DESCRIPTION (( 'STEP AP214' ),
    '1' );
FILE_NAME ('Part7_clampButton.STEP',
    '2025-07-18T14:00:17',
    ( '' ),
    ( '' ),
    'SwSTEP 2.0',
    'SolidWorks 2025',
    '' );
FILE_SCHEMA (( 'AUTOMOTIVE_DESIGN' ));
ENDSEC;

DATA;
#1 = FACE_OUTER_BOUND ( 'NONE', #44, .T. ) ;
#2 = VERTEX_POINT ( 'NONE', #97 ) ;
#3 =( NAMED_UNIT ( * ) SI_UNIT ( $, .STERADIAN. ) SOLID_ANGLE_UNIT ( ) );
#4 = APPLICATION_PROTOCOL_DEFINITION ( 'draft international standard', 'automotive_design', 1998, #96 ) ;
#5 = AXIS2_PLACEMENT_3D ( 'NONE', #116, #82, #11 ) ;
#6 = CYLINDRICAL_SURFACE ( 'NONE', #12, 3.750000000000000000 ) ;
#7 = DIRECTION ( 'NONE',  ( 0.000000000000000000, 0.000000000000000000, -1.000000000000000000 ) ) ;
#8 = PRODUCT_DEFINITION_FORMATION_WITH_SPECIFIED_SOURCE ( 'Symmetric', '', #16, .NOT_KNOWN. ) ;
#9 = ORIENTED_EDGE ( 'NONE', *, *, #64, .F. ) ;
#10 = EDGE_LOOP ( 'NONE', ( #113 ) ) ;
#11 = DIRECTION ( 'NONE',  ( 0.000000000000000000, 0.000000000000000000, -1.000000000000000000 ) ) ;
#12 = AXIS2_PLACEMENT_3D ( 'NONE', #87, #18, #104 ) ;
#13 = VERTEX_POINT ( 'NONE', #25 ) ;
#14 = AXIS2_PLACEMENT_3D ( 'NONE', #109, #53, #38 ) ;
#15 = ADVANCED_FACE ( 'NONE', ( #102, #57 ), #6, .T. ) ;
#16 = PRODUCT ( 'Part7_clampButton', 'Part7_clampButton', '', ( #73 ) ) ;
#17 = ORIENTED_EDGE ( 'NONE', *, *, #19, .T. ) ;
#18 = DIRECTION ( 'NONE',  ( -0.000000000000000000, -1.000000000000000000, -0.000000000000000000 ) ) ;
#19 = EDGE_CURVE ( 'NONE', #61, #61, #41, .T. ) ;
#20 = ORIENTED_EDGE ( 'NONE', *, *, #70, .T. ) ;
#21 = FACE_OUTER_BOUND ( 'NONE', #85, .T. ) ;
#22 = AXIS2_PLACEMENT_3D ( 'NONE', #120, #105, #83 ) ;
#23 = DIRECTION ( 'NONE',  ( 0.000000000000000000, 0.000000000000000000, -1.000000000000000000 ) ) ;
#24 = APPLICATION_PROTOCOL_DEFINITION ( 'draft international standard', 'automotive_design', 1998, #37 ) ;
#25 = CARTESIAN_POINT ( 'NONE',  ( 0.000000000000000000, 2.000000000000000000, -4.250000000000000000 ) ) ;
#26 = PRESENTATION_LAYER_ASSIGNMENT (  '', '', ( #114 ) ) ;
#27 = ORIENTED_EDGE ( 'NONE', *, *, #70, .F. ) ;
#28 = EDGE_LOOP ( 'NONE', ( #68 ) ) ;
#29 = ADVANCED_FACE ( 'NONE', ( #45 ), #50, .F. ) ;
#30 = FILL_AREA_STYLE_COLOUR ( '', #99 ) ;
#31 = EDGE_LOOP ( 'NONE', ( #77 ) ) ;
#32 = CARTESIAN_POINT ( 'NONE',  ( 0.000000000000000000, 2.500000000000000000, 0.000000000000000000 ) ) ;
#33 = DIRECTION ( 'NONE',  ( -0.000000000000000000, -1.000000000000000000, -0.000000000000000000 ) ) ;
#34 = CIRCLE ( 'NONE', #49, 3.750000000000000000 ) ;
#35 = DIRECTION ( 'NONE',  ( 0.000000000000000000, 0.000000000000000000, 1.000000000000000000 ) ) ;
#36 = CARTESIAN_POINT ( 'NONE',  ( 0.000000000000000000, 2.500000000000000000, 0.000000000000000000 ) ) ;
#37 = APPLICATION_CONTEXT ( 'automotive_design' ) ;
#38 = DIRECTION ( 'NONE',  ( 0.000000000000000000, 0.000000000000000000, -1.000000000000000000 ) ) ;
#39 = AXIS2_PLACEMENT_3D ( 'NONE', #119, #33, #23 ) ;
#40 = MANIFOLD_SOLID_BREP ( 'Dome1', #110 ) ;
#41 = CIRCLE ( 'NONE', #93, 3.749999999999999556 ) ;
#42 = ADVANCED_FACE ( 'NONE', ( #1 ), #91, .T. ) ;
#43 = EDGE_LOOP ( 'NONE', ( #48 ) ) ;
#44 = EDGE_LOOP ( 'NONE', ( #9 ) ) ;
#45 = FACE_OUTER_BOUND ( 'NONE', #10, .T. ) ;
#46 = CIRCLE ( 'NONE', #22, 4.250000000000000000 ) ;
#47 = ADVANCED_BREP_SHAPE_REPRESENTATION ( 'Part7_clampButton', ( #40, #67 ), #123 ) ;
#48 = ORIENTED_EDGE ( 'NONE', *, *, #121, .F. ) ;
#49 = AXIS2_PLACEMENT_3D ( 'NONE', #36, #84, #80 ) ;
#50 = PLANE ( 'NONE',  #101 ) ;
#51 = EDGE_LOOP ( 'NONE', ( #27 ) ) ;
#52 = PRODUCT_DEFINITION ( 'General', '', #8, #88 ) ;
#53 = DIRECTION ( 'NONE',  ( -0.000000000000000000, -1.000000000000000000, -0.000000000000000000 ) ) ;
#54 =( NAMED_UNIT ( * ) PLANE_ANGLE_UNIT ( ) SI_UNIT ( $, .RADIAN. ) );
#55 =( NAMED_UNIT ( * ) SI_UNIT ( $, .STERADIAN. ) SOLID_ANGLE_UNIT ( ) );
#56 = CARTESIAN_POINT ( 'NONE',  ( 0.000000000000000000, 0.000000000000000000, 0.000000000000000000 ) ) ;
#57 = FACE_OUTER_BOUND ( 'NONE', #28, .T. ) ;
#58 = CARTESIAN_POINT ( 'NONE',  ( 0.000000000000000000, 2.000000000000000000, 0.000000000000000000 ) ) ;
#59 =( LENGTH_UNIT ( ) NAMED_UNIT ( * ) SI_UNIT ( .MILLI., .METRE. ) );
#60 = SURFACE_SIDE_STYLE ('',( #79 ) ) ;
#61 = VERTEX_POINT ( 'NONE', #66 ) ;
#62 = AXIS2_PLACEMENT_3D ( 'NONE', #32, #108, #72 ) ;
#63 = VERTEX_POINT ( 'NONE', #75 ) ;
#64 = EDGE_CURVE ( 'NONE', #2, #2, #34, .T. ) ;
#65 = SHAPE_DEFINITION_REPRESENTATION ( #122, #47 ) ;
#66 = CARTESIAN_POINT ( 'NONE',  ( 0.000000000000000000, 2.000000000000000000, -3.749999999999999556 ) ) ;
#67 = AXIS2_PLACEMENT_3D ( 'NONE', #56, #35, #89 ) ;
#68 = ORIENTED_EDGE ( 'NONE', *, *, #64, .T. ) ;
#69 = FILL_AREA_STYLE ('',( #30 ) ) ;
#70 = EDGE_CURVE ( 'NONE', #13, #13, #46, .T. ) ;
#71 = EDGE_LOOP ( 'NONE', ( #17 ) ) ;
#72 = DIRECTION ( 'NONE',  ( 1.000000000000000000, 0.000000000000000000, 0.000000000000000000 ) ) ;
#73 = PRODUCT_CONTEXT ( 'NONE', #96, 'mechanical' ) ;
#74 = FACE_BOUND ( 'NONE', #71, .T. ) ;
#75 = CARTESIAN_POINT ( 'NONE',  ( 0.000000000000000000, 0.000000000000000000, -4.250000000000000000 ) ) ;
#76 = UNCERTAINTY_MEASURE_WITH_UNIT (LENGTH_MEASURE( 1.000000000000000082E-05 ), #59, 'distance_accuracy_value', 'NONE');
#77 = ORIENTED_EDGE ( 'NONE', *, *, #19, .F. ) ;
#78 = SURFACE_STYLE_USAGE ( .BOTH. , #60 ) ;
#79 = SURFACE_STYLE_FILL_AREA ( #69 ) ;
#80 = DIRECTION ( 'NONE',  ( 0.000000000000000000, 0.000000000000000000, -1.000000000000000000 ) ) ;
#81 = UNCERTAINTY_MEASURE_WITH_UNIT (LENGTH_MEASURE( 1.000000000000000082E-05 ), #90, 'distance_accuracy_value', 'NONE');
#82 = DIRECTION ( 'NONE',  ( 0.000000000000000000, -1.000000000000000000, -0.000000000000000000 ) ) ;
#83 = DIRECTION ( 'NONE',  ( 0.000000000000000000, 0.000000000000000000, -1.000000000000000000 ) ) ;
#84 = DIRECTION ( 'NONE',  ( -0.000000000000000000, -1.000000000000000000, -0.000000000000000000 ) ) ;
#85 = EDGE_LOOP ( 'NONE', ( #20 ) ) ;
#86 = CARTESIAN_POINT ( 'NONE',  ( 0.000000000000000000, 0.000000000000000000, 4.250000000000000000 ) ) ;
#87 = CARTESIAN_POINT ( 'NONE',  ( 0.000000000000000000, 0.000000000000000000, 0.000000000000000000 ) ) ;
#88 = PRODUCT_DEFINITION_CONTEXT ( 'detailed design', #37, 'design' ) ;
#89 = DIRECTION ( 'NONE',  ( 1.000000000000000000, 0.000000000000000000, 0.000000000000000000 ) ) ;
#90 =( LENGTH_UNIT ( ) NAMED_UNIT ( * ) SI_UNIT ( .MILLI., .METRE. ) );
#91 = SPHERICAL_SURFACE ( 'NONE', #62, 3.750000000000000000 ) ;
#92 = ADVANCED_FACE ( 'NONE', ( #107, #74 ), #98, .F. ) ;
#93 = AXIS2_PLACEMENT_3D ( 'NONE', #58, #94, #7 ) ;
#94 = DIRECTION ( 'NONE',  ( -0.000000000000000000, -1.000000000000000000, -0.000000000000000000 ) ) ;
#95 = PRODUCT_RELATED_PRODUCT_CATEGORY ( 'part', '', ( #16 ) ) ;
#96 = APPLICATION_CONTEXT ( 'automotive_design' ) ;
#97 = CARTESIAN_POINT ( 'NONE',  ( 0.000000000000000000, 2.500000000000000000, -3.750000000000000000 ) ) ;
#98 = PLANE ( 'NONE',  #5 ) ;
#99 = COLOUR_RGB ( '',0.7921568627450980005, 0.8196078431372548767, 0.9333333333333333481 ) ;
#100 = MECHANICAL_DESIGN_GEOMETRIC_PRESENTATION_REPRESENTATION (  '', ( #114 ), #111 ) ;
#101 = AXIS2_PLACEMENT_3D ( 'NONE', #86, #124, #112 ) ;
#102 = FACE_OUTER_BOUND ( 'NONE', #31, .T. ) ;
#103 = PRESENTATION_STYLE_ASSIGNMENT (( #78 ) ) ;
#104 = DIRECTION ( 'NONE',  ( 0.000000000000000000, 0.000000000000000000, -1.000000000000000000 ) ) ;
#105 = DIRECTION ( 'NONE',  ( -0.000000000000000000, -1.000000000000000000, -0.000000000000000000 ) ) ;
#106 = CIRCLE ( 'NONE', #14, 4.250000000000000000 ) ;
#107 = FACE_OUTER_BOUND ( 'NONE', #51, .T. ) ;
#108 = DIRECTION ( 'NONE',  ( 0.000000000000000000, 1.000000000000000000, 0.000000000000000000 ) ) ;
#109 = CARTESIAN_POINT ( 'NONE',  ( 0.000000000000000000, 0.000000000000000000, 0.000000000000000000 ) ) ;
#110 = CLOSED_SHELL ( 'NONE', ( #29, #42, #15, #92, #117 ) ) ;
#111 =( GEOMETRIC_REPRESENTATION_CONTEXT ( 3 ) GLOBAL_UNCERTAINTY_ASSIGNED_CONTEXT ( ( #76 ) ) GLOBAL_UNIT_ASSIGNED_CONTEXT ( ( #59, #125, #3 ) ) REPRESENTATION_CONTEXT ( 'NONE', 'WORKASPACE' ) );
#112 = DIRECTION ( 'NONE',  ( 0.000000000000000000, -0.000000000000000000, 1.000000000000000000 ) ) ;
#113 = ORIENTED_EDGE ( 'NONE', *, *, #121, .T. ) ;
#114 = STYLED_ITEM ( 'NONE', ( #103 ), #40 ) ;
#115 = FACE_OUTER_BOUND ( 'NONE', #43, .T. ) ;
#116 = CARTESIAN_POINT ( 'NONE',  ( 0.000000000000000000, 2.000000000000000000, 3.749999999999999556 ) ) ;
#117 = ADVANCED_FACE ( 'NONE', ( #115, #21 ), #118, .T. ) ;
#118 = CYLINDRICAL_SURFACE ( 'NONE', #39, 4.250000000000000000 ) ;
#119 = CARTESIAN_POINT ( 'NONE',  ( 0.000000000000000000, 0.000000000000000000, 0.000000000000000000 ) ) ;
#120 = CARTESIAN_POINT ( 'NONE',  ( 0.000000000000000000, 2.000000000000000000, 0.000000000000000000 ) ) ;
#121 = EDGE_CURVE ( 'NONE', #63, #63, #106, .T. ) ;
#122 = PRODUCT_DEFINITION_SHAPE ( 'NONE', 'NONE',  #52 ) ;
#123 =( GEOMETRIC_REPRESENTATION_CONTEXT ( 3 ) GLOBAL_UNCERTAINTY_ASSIGNED_CONTEXT ( ( #81 ) ) GLOBAL_UNIT_ASSIGNED_CONTEXT ( ( #90, #54, #55 ) ) REPRESENTATION_CONTEXT ( 'NONE', 'WORKASPACE' ) );
#124 = DIRECTION ( 'NONE',  ( 0.000000000000000000, 1.000000000000000000, 0.000000000000000000 ) ) ;
#125 =( NAMED_UNIT ( * ) PLANE_ANGLE_UNIT ( ) SI_UNIT ( $, .RADIAN. ) );
ENDSEC;
END-ISO-10303-21;
