ISO-10303-21;
HEADER;
FILE_DESCRIPTION (( 'STEP AP214' ),
    '1' );
FILE_NAME ('Part6_coverplate.STEP',
    '2025-07-18T14:00:16',
    ( '' ),
    ( '' ),
    'SwSTEP 2.0',
    'SolidWorks 2025',
    '' );
FILE_SCHEMA (( 'AUTOMOTIVE_DESIGN' ));
ENDSEC;

DATA;
#1 = CARTESIAN_POINT ( 'NONE',  ( -3.102845879042594124, 0.4945955686455419387, 10.04057890894093497 ) ) ;
#2 = CARTESIAN_POINT ( 'NONE',  ( 6.500000000000000888, -0.5000000000000000000, -7.500000000000001776 ) ) ;
#3 = CIRCLE ( 'NONE', #82, 1.899999999999991918 ) ;
#4 = DIRECTION ( 'NONE',  ( 0.000000000000000000, 0.000000000000000000, 1.000000000000000000 ) ) ;
#5 = CARTESIAN_POINT ( 'NONE',  ( 7.635938732745553459, 0.4986488921639673499, -10.02156201536990565 ) ) ;
#6 = CARTESIAN_POINT ( 'NONE',  ( 8.000000000000000000, -0.5000000000000000000, -10.50000000000000178 ) ) ;
#7 = ORIENTED_EDGE ( 'NONE', *, *, #504, .T. ) ;
#8 = CARTESIAN_POINT ( 'NONE',  ( 6.547841354461434449, 0.3638104803492730466, 10.26320297287373862 ) ) ;
#9 = CARTESIAN_POINT ( 'NONE',  ( -8.000000000000001776, 0.1762849098232253386, -10.43009265757413750 ) ) ;
#10 = DIRECTION ( 'NONE',  ( 0.000000000000000000, 0.000000000000000000, 1.000000000000000000 ) ) ;
#11 = ADVANCED_FACE ( 'NONE', ( #923, #182 ), #32, .F. ) ;
#12 = ORIENTED_EDGE ( 'NONE', *, *, #342, .T. ) ;
#13 = DIRECTION ( 'NONE',  ( -0.000000000000000000, -1.000000000000000000, -0.000000000000000000 ) ) ;
#14 = DIRECTION ( 'NONE',  ( 0.000000000000000000, 0.000000000000000000, 1.000000000000000000 ) ) ;
#15 = AXIS2_PLACEMENT_3D ( 'NONE', #613, #104, #254 ) ;
#16 = EDGE_LOOP ( 'NONE', ( #686 ) ) ;
#17 = CARTESIAN_POINT ( 'NONE',  ( 5.862739155089310650, 0.4145200860435226953, 10.19898883213289231 ) ) ;
#18 = AXIS2_PLACEMENT_3D ( 'NONE', #58, #938, #948 ) ;
#19 = CARTESIAN_POINT ( 'NONE',  ( -8.000000000000000000, 0.000000000000000000, 10.50000000000000178 ) ) ;
#20 = ORIENTED_EDGE ( 'NONE', *, *, #504, .F. ) ;
#21 = CARTESIAN_POINT ( 'NONE',  ( 6.451348877277336413, 0.3638213105872906139, 10.26319165633781516 ) ) ;
#22 = EDGE_CURVE ( 'NONE', #829, #195, #3, .T. ) ;
#23 = CARTESIAN_POINT ( 'NONE',  ( -1.952158645460039477, 0.3638104803543281696, 10.26320297287679750 ) ) ;
#24 = ORIENTED_EDGE ( 'NONE', *, *, #932, .T. ) ;
#25 = CARTESIAN_POINT ( 'NONE',  ( 5.719163853170158518, 0.4380323359337113809, 10.16465768228170674 ) ) ;
#26 = CARTESIAN_POINT ( 'NONE',  ( 7.455420999522927694, 0.4697389595168147136, -10.10727334561810054 ) ) ;
#27 = CARTESIAN_POINT ( 'NONE',  ( -2.497922166975863778, 0.3941248165674434700, 10.22690399779109605 ) ) ;
#28 = ORIENTED_EDGE ( 'NONE', *, *, #417, .T. ) ;
#29 = FACE_OUTER_BOUND ( 'NONE', #399, .T. ) ;
#30 = CARTESIAN_POINT ( 'NONE',  ( 7.541713350392469373, 0.4851707108767397969, 10.07121172412654886 ) ) ;
#31 = CARTESIAN_POINT ( 'NONE',  ( -8.000000000000000000, 0.3378193158006356778, -10.29269304217093151 ) ) ;
#32 = CONICAL_SURFACE ( 'NONE', #506, 0.9999999999999940048, 0.7853981633974482790 ) ;
#33 = AXIS2_PLACEMENT_3D ( 'NONE', #633, #857, #190 ) ;
#34 = CARTESIAN_POINT ( 'NONE',  ( -1.830367923395363583, 0.3668411012128367510, 10.25987288100094830 ) ) ;
#35 = CARTESIAN_POINT ( 'NONE',  ( -8.000000000000000000, 0.000000000000000000, -10.49999999999999822 ) ) ;
#36 = CARTESIAN_POINT ( 'NONE',  ( 7.173320477361126102, 0.4201175700632454602, 10.19123902451810437 ) ) ;
#37 = CARTESIAN_POINT ( 'NONE',  ( 6.692858451945017606, 0.3635393462148322485, -10.26349755713435563 ) ) ;
#38 = CARTESIAN_POINT ( 'NONE',  ( -2.121623275280510423, 0.3654406885042512099, 10.26141736096987067 ) ) ;
#39 = ORIENTED_EDGE ( 'NONE', *, *, #222, .T. ) ;
#40 = CARTESIAN_POINT ( 'NONE',  ( -0.9963935559516585716, 0.4785137260560048955, -10.08814496863906918 ) ) ;
#41 = CARTESIAN_POINT ( 'NONE',  ( -8.800000000000002487, 0.5000000000000000000, -9.999999999999998224 ) ) ;
#42 = CARTESIAN_POINT ( 'NONE',  ( 5.571751777212214485, 0.4647613500812128318, -10.11771072969181517 ) ) ;
#43 = CARTESIAN_POINT ( 'NONE',  ( -2.834476057383223946, 0.4474927514079481417, 10.14941803311847224 ) ) ;
#44 = ORIENTED_EDGE ( 'NONE', *, *, #133, .T. ) ;
#45 = CARTESIAN_POINT ( 'NONE',  ( 8.000000000000000000, 0.5000000000000000000, 9.666190378969048425 ) ) ;
#46 = CARTESIAN_POINT ( 'NONE',  ( -8.000000000000000000, -0.5000000000000000000, -10.49999999999999822 ) ) ;
#47 = CARTESIAN_POINT ( 'NONE',  ( 5.859860411796902646, 0.4148136817364111995, -10.19859856978015245 ) ) ;
#48 = AXIS2_PLACEMENT_3D ( 'NONE', #648, #270, #714 ) ;
#49 = CARTESIAN_POINT ( 'NONE',  ( 6.500000000000000888, -0.3999999999999988565, 8.500000000000000000 ) ) ;
#50 = VERTEX_POINT ( 'NONE', #35 ) ;
#51 = DIRECTION ( 'NONE',  ( -0.000000000000000000, -1.000000000000000000, -0.000000000000000000 ) ) ;
#52 = CARTESIAN_POINT ( 'NONE',  ( 7.653349138490124659, 0.5000000000000007772, 10.00998355405879181 ) ) ;
#53 = CARTESIAN_POINT ( 'NONE',  ( 7.112522162384852464, 0.4108097607731384104, -10.20407542267859746 ) ) ;
#54 = ADVANCED_FACE ( 'NONE', ( #275, #792 ), #551, .F. ) ;
#55 = DIRECTION ( 'NONE',  ( 0.000000000000000000, 0.000000000000000000, -1.000000000000000000 ) ) ;
#56 = EDGE_LOOP ( 'NONE', ( #306 ) ) ;
#57 = CARTESIAN_POINT ( 'NONE',  ( -2.756455216467234237, 0.4339325640668073580, -10.17083714829513319 ) ) ;
#58 = CARTESIAN_POINT ( 'NONE',  ( -1.999999999999998668, 0.5000000000000000000, 8.500000000000000000 ) ) ;
#59 = CARTESIAN_POINT ( 'NONE',  ( 7.999999999999998224, 0.4434713910519488822, 10.15521116011718306 ) ) ;
#60 = ORIENTED_EDGE ( 'NONE', *, *, #853, .T. ) ;
#61 = CARTESIAN_POINT ( 'NONE',  ( -2.472065798544234916, 0.3921187626395095660, -10.22901915687795160 ) ) ;
#62 = FACE_OUTER_BOUND ( 'NONE', #316, .T. ) ;
#63 = CARTESIAN_POINT ( 'NONE',  ( 2.933333333333336235, 0.5000000000000000000, 10.49999999999999822 ) ) ;
#64 = AXIS2_PLACEMENT_3D ( 'NONE', #752, #74, #214 ) ;
#65 = CARTESIAN_POINT ( 'NONE',  ( 8.000000000000001776, 0.1635382030397839748, -10.43831601778942542 ) ) ;
#66 = PRODUCT_CONTEXT ( 'NONE', #472, 'mechanical' ) ;
#67 = VERTEX_POINT ( 'NONE', #640 ) ;
#68 = CIRCLE ( 'NONE', #48, 0.9999999999999931166 ) ;
#69 = CARTESIAN_POINT ( 'NONE',  ( -2.395079943059109873, 0.3835309956818009347, -10.23998547854759700 ) ) ;
#70 = DIRECTION ( 'NONE',  ( -1.000000000000000000, 0.000000000000000000, 2.168404344971008868E-16 ) ) ;
#71 = CARTESIAN_POINT ( 'NONE',  ( -8.000000000000000000, 0.5000000000000000000, 10.00000000000000355 ) ) ;
#72 = APPLICATION_PROTOCOL_DEFINITION ( 'draft international standard', 'automotive_design', 1998, #311 ) ;
#73 = CARTESIAN_POINT ( 'NONE',  ( -2.878947966584060048, 0.4556885321256556876, -10.13434577449803697 ) ) ;
#74 = DIRECTION ( 'NONE',  ( 0.000000000000000000, 0.000000000000000000, 1.000000000000000000 ) ) ;
#75 = CARTESIAN_POINT ( 'NONE',  ( -2.933333333333334014, 0.5000000000000000000, 10.00000000000000178 ) ) ;
#76 = CARTESIAN_POINT ( 'NONE',  ( 7.560104375149023781, 0.4882200285546141050, -10.06258319697602310 ) ) ;
#77 = LINE ( 'NONE', #81, #588 ) ;
#78 = DIRECTION ( 'NONE',  ( -2.168404344971008868E-16, 0.000000000000000000, -1.000000000000000000 ) ) ;
#79 = CARTESIAN_POINT ( 'NONE',  ( -1.999999999999998668, 0.5000000000000000000, -8.500000000000000000 ) ) ;
#80 = CARTESIAN_POINT ( 'NONE',  ( 8.000000000000000000, 0.3697948381877187440, -10.25775526184828124 ) ) ;
#81 = CARTESIAN_POINT ( 'NONE',  ( 8.000000000000000000, -0.5000000000000000000, -10.50000000000000178 ) ) ;
#82 = AXIS2_PLACEMENT_3D ( 'NONE', #561, #51, #324 ) ;
#83 = VERTEX_POINT ( 'NONE', #45 ) ;
#84 = AXIS2_PLACEMENT_3D ( 'NONE', #748, #78, #70 ) ;
#85 = FACE_OUTER_BOUND ( 'NONE', #478, .T. ) ;
#86 = EDGE_CURVE ( 'NONE', #140, #319, #99, .T. ) ;
#87 = EDGE_CURVE ( 'NONE', #154, #154, #210, .T. ) ;
#88 = CARTESIAN_POINT ( 'NONE',  ( 7.547103359107051546, 0.4860772559709114482, -10.06872303517450717 ) ) ;
#89 = FACE_BOUND ( 'NONE', #393, .T. ) ;
#90 = ORIENTED_EDGE ( 'NONE', *, *, #740, .F. ) ;
#91 = CARTESIAN_POINT ( 'NONE',  ( 5.544579000595623697, 0.4697389594937740886, 10.10727334566209379 ) ) ;
#92 = CARTESIAN_POINT ( 'NONE',  ( 7.653333794089942188, 0.4999999999999967804, -10.00999548372826986 ) ) ;
#93 = CARTESIAN_POINT ( 'NONE',  ( -3.090648246188183457, 0.4929066838472743739, 10.04719208223070837 ) ) ;
#94 = EDGE_LOOP ( 'NONE', ( #39, #469, #97, #171 ) ) ;
#95 = CARTESIAN_POINT ( 'NONE',  ( 5.566375148635084535, 0.4657413304796472753, 10.11536176395760833 ) ) ;
#96 = FACE_BOUND ( 'NONE', #174, .T. ) ;
#97 = ORIENTED_EDGE ( 'NONE', *, *, #208, .F. ) ;
#98 = CARTESIAN_POINT ( 'NONE',  ( 6.104682495937960418, 0.3826566338606802176, 10.24117133060897089 ) ) ;
#99 = B_SPLINE_CURVE_WITH_KNOTS ( 'NONE', 3,
 ( #122, #725, #344, #720 ),
 .UNSPECIFIED., .F., .F.,
 ( 4, 4 ),
 ( 0.000000000000000000, 1.000000000000000000 ),
 .UNSPECIFIED. ) ;
#100 = AXIS2_PLACEMENT_3D ( 'NONE', #79, #608, #4 ) ;
#101 = AXIS2_PLACEMENT_3D ( 'NONE', #958, #512, #297 ) ;
#102 = CARTESIAN_POINT ( 'NONE',  ( -0.8338096210321114254, 0.5000000000000000000, 10.00000000000090239 ) ) ;
#103 = EDGE_LOOP ( 'NONE', ( #20, #591, #681, #904 ) ) ;
#104 = DIRECTION ( 'NONE',  ( 1.000000000000000000, -0.000000000000000000, 0.000000000000000000 ) ) ;
#105 = EDGE_CURVE ( 'NONE', #622, #644, #402, .T. ) ;
#106 = ADVANCED_FACE ( 'NONE', ( #29, #177 ), #743, .F. ) ;
#107 = CARTESIAN_POINT ( 'NONE',  ( -2.900319821114467178, 0.4596177307411263291, 10.12716322082091835 ) ) ;
#108 = CARTESIAN_POINT ( 'NONE',  ( -6.388730126322774261, 0.5000000000000000000, 10.00000000000000178 ) ) ;
#109 = CARTESIAN_POINT ( 'NONE',  ( 5.429419204656671383, 0.4898666912148153529, 10.05740430743737690 ) ) ;
#110 = CARTESIAN_POINT ( 'NONE',  ( 7.280836147145362425, 0.4380323359871908240, -10.16465768219128130 ) ) ;
#111 = CARTESIAN_POINT ( 'NONE',  ( -1.031158179332182456, 0.4721931077273510136, 10.10206318834553407 ) ) ;
#112 = CARTESIAN_POINT ( 'NONE',  ( -0.9093517538114160859, 0.4929066838472162537, -10.04719208223035665 ) ) ;
#113 = CARTESIAN_POINT ( 'NONE',  ( 7.334682758161108040, 0.4475301038312957669, 10.14936923017930681 ) ) ;
#114 = CARTESIAN_POINT ( 'NONE',  ( 5.477984434462296548, 0.4817751612634451619, -10.08006006501916296 ) ) ;
#115 = VECTOR ( 'NONE', #242, 1000.000000000000000 ) ;
#116 = CARTESIAN_POINT ( 'NONE',  ( -0.9621363137511763641, 0.4845188740964000429, 10.07297639297690672 ) ) ;
#117 = EDGE_CURVE ( 'NONE', #946, #654, #657, .T. ) ;
#118 = ORIENTED_EDGE ( 'NONE', *, *, #476, .T. ) ;
#119 = CARTESIAN_POINT ( 'NONE',  ( 2.933333333333330462, 0.000000000000000000, -10.50000000000000000 ) ) ;
#120 = CARTESIAN_POINT ( 'NONE',  ( 5.333809623567820957, 0.5000000000000000000, -10.00000000197231387 ) ) ;
#121 = CARTESIAN_POINT ( 'NONE',  ( -2.955420999365594437, 0.4697389594860428286, 10.10727334567624958 ) ) ;
#122 = CARTESIAN_POINT ( 'NONE',  ( 8.000000000000000000, 0.5000000000000000000, -9.999999999999991118 ) ) ;
#123 = CARTESIAN_POINT ( 'NONE',  ( 2.933333333333333126, 0.5000000000000000000, -10.50000000000000178 ) ) ;
#124 = CARTESIAN_POINT ( 'NONE',  ( 5.943648632927345687, 0.4028249907793997053, -10.21492107331841304 ) ) ;
#125 = ORIENTED_EDGE ( 'NONE', *, *, #374, .F. ) ;
#126 = CARTESIAN_POINT ( 'NONE',  ( 7.547432362155844565, 0.4861326959563418426, 10.06856998078082555 ) ) ;
#127 = CARTESIAN_POINT ( 'NONE',  ( 5.910939031233191088, 0.4074031052290266741, -10.20872957131618008 ) ) ;
#128 = CARTESIAN_POINT ( 'NONE',  ( 8.000000000000000000, 0.4348469138286467084, 10.16899123129925187 ) ) ;
#129 = VERTEX_POINT ( 'NONE', #258 ) ;
#130 = CARTESIAN_POINT ( 'NONE',  ( -1.390458508638280133, 0.4103675352571674040, -10.20467993753830171 ) ) ;
#131 = CARTESIAN_POINT ( 'NONE',  ( 6.997106740743999076, 0.3940249346815974940, 10.22703559744320678 ) ) ;
#132 = CARTESIAN_POINT ( 'NONE',  ( 5.924034230182538607, 0.4055539511822519594, -10.21123700598478123 ) ) ;
#133 = EDGE_CURVE ( 'NONE', #829, #195, #614, .T. ) ;
#134 = CARTESIAN_POINT ( 'NONE',  ( 8.000000000000000000, 0.000000000000000000, -10.50000000000000178 ) ) ;
#135 = ORIENTED_EDGE ( 'NONE', *, *, #534, .F. ) ;
#136 = CARTESIAN_POINT ( 'NONE',  ( -1.099680178890924731, 0.4596177307403074286, -10.12716322082294518 ) ) ;
#137 = DIRECTION ( 'NONE',  ( 0.000000000000000000, 0.000000000000000000, 1.000000000000000000 ) ) ;
#138 = CARTESIAN_POINT ( 'NONE',  ( 8.800000000000002487, 0.5000000000000000000, 9.999999999999998224 ) ) ;
#139 = CARTESIAN_POINT ( 'NONE',  ( -8.000000000000000000, 0.4244930309668027979, 10.18459260220389062 ) ) ;
#140 = VERTEX_POINT ( 'NONE', #148 ) ;
#141 = CARTESIAN_POINT ( 'NONE',  ( -1.165523942580788175, 0.4474927514131625261, -10.14941803310466817 ) ) ;
#142 = CARTESIAN_POINT ( 'NONE',  ( -1.999999999999998668, -0.5000000000000000000, 9.500000000000000000 ) ) ;
#143 = SURFACE_STYLE_FILL_AREA ( #749 ) ;
#144 = B_SPLINE_CURVE_WITH_KNOTS ( 'NONE', 3,
 ( #763, #305, #454, #770 ),
 .UNSPECIFIED., .F., .F.,
 ( 4, 4 ),
 ( 0.000000000000000000, 1.000000000000000000 ),
 .UNSPECIFIED. ) ;
#145 = CARTESIAN_POINT ( 'NONE',  ( 7.999999999999996447, 0.1552111601171694277, -10.44347139105195765 ) ) ;
#146 = ADVANCED_FACE ( 'NONE', ( #655 ), #445, .T. ) ;
#147 = EDGE_CURVE ( 'NONE', #50, #267, #216, .T. ) ;
#148 = CARTESIAN_POINT ( 'NONE',  ( 8.000000000000000000, 0.5000000000000000000, -9.999999999999991118 ) ) ;
#149 = CARTESIAN_POINT ( 'NONE',  ( 6.500000000000000888, -0.3999999999999988565, 9.499999999999994671 ) ) ;
#150 = AXIS2_PLACEMENT_3D ( 'NONE', #843, #910, #536 ) ;
#151 = CARTESIAN_POINT ( 'NONE',  ( 8.800000000000002487, 0.000000000000000000, 10.49999999999999822 ) ) ;
#152 = CARTESIAN_POINT ( 'NONE',  ( -7.999999999999998224, 0.04765235482301188180, -10.49919603302940274 ) ) ;
#153 = CARTESIAN_POINT ( 'NONE',  ( -2.344356360793025118, 0.3787609252806629079, -10.24583248190879026 ) ) ;
#154 = VERTEX_POINT ( 'NONE', #2 ) ;
#155 = FACE_OUTER_BOUND ( 'NONE', #719, .T. ) ;
#156 = CARTESIAN_POINT ( 'NONE',  ( -8.000000000000000000, 0.2577552618482287228, -10.36979483818771186 ) ) ;
#157 = B_SPLINE_CURVE_WITH_KNOTS ( 'NONE', 3,
 ( #864, #870, #558, #500, #582, #875, #507, #804, #854, #185, #785, #231 ),
 .UNSPECIFIED., .F., .F.,
 ( 4, 2, 2, 2, 2, 4 ),
 ( 9.263427422397552964E-19, 0.0006212968656630981929, 0.001242593731326192700, 0.001553242164157739953, 0.001863890596989287423, 0.002485187462652381930 ),
 .UNSPECIFIED. ) ;
#158 = DIRECTION ( 'NONE',  ( 1.000000000000000000, 0.000000000000000000, -2.168404344971008868E-16 ) ) ;
#159 = ORIENTED_EDGE ( 'NONE', *, *, #342, .F. ) ;
#160 = DIRECTION ( 'NONE',  ( 0.000000000000000000, 0.000000000000000000, -1.000000000000000000 ) ) ;
#161 = CARTESIAN_POINT ( 'NONE',  ( -8.000000000000000000, 0.000000000000000000, -10.49999999999999822 ) ) ;
#162 = CARTESIAN_POINT ( 'NONE',  ( 8.000000000000000000, 0.000000000000000000, -10.50000000000000178 ) ) ;
#163 = CONICAL_SURFACE ( 'NONE', #388, 0.9999999999999931166, 0.7853981633974482790 ) ;
#164 = ORIENTED_EDGE ( 'NONE', *, *, #464, .F. ) ;
#165 = PLANE ( 'NONE',  #150 ) ;
#166 = CARTESIAN_POINT ( 'NONE',  ( 7.999999999999998224, 0.4181041553893470875, -10.19391653433759792 ) ) ;
#167 = CARTESIAN_POINT ( 'NONE',  ( 5.333809621032666648, 0.5000000000000000000, 10.00000000000133227 ) ) ;
#168 = EDGE_LOOP ( 'NONE', ( #867 ) ) ;
#169 = CARTESIAN_POINT ( 'NONE',  ( 5.462498882624535312, 0.4844569820977245311, 10.07314142898732712 ) ) ;
#170 = DIRECTION ( 'NONE',  ( 2.168404344971008868E-16, -0.000000000000000000, 1.000000000000000000 ) ) ;
#171 = ORIENTED_EDGE ( 'NONE', *, *, #369, .T. ) ;
#172 = DIRECTION ( 'NONE',  ( -0.000000000000000000, 1.000000000000000000, -0.000000000000000000 ) ) ;
#173 = CARTESIAN_POINT ( 'NONE',  ( 3.277936540344866145, 0.5000000000000000000, 10.00000000000000000 ) ) ;
#174 = EDGE_LOOP ( 'NONE', ( #806 ) ) ;
#175 = CARTESIAN_POINT ( 'NONE',  ( 5.397154120935165444, 0.4945955686479018842, 10.04057890892788585 ) ) ;
#176 = CARTESIAN_POINT ( 'NONE',  ( -0.9525676372804524616, 0.4861326960496785143, 10.06856998051655516 ) ) ;
#177 = FACE_BOUND ( 'NONE', #56, .T. ) ;
#178 = CARTESIAN_POINT ( 'NONE',  ( 6.414997216529068069, 0.3643624703543891230, 10.26260621707933396 ) ) ;
#179 = CARTESIAN_POINT ( 'NONE',  ( 7.521354910031496921, 0.4816889524392938271, -10.08043126512479759 ) ) ;
#180 = CARTESIAN_POINT ( 'NONE',  ( -3.041364324746189673, 0.4851114249502703757, 10.07137195927594142 ) ) ;
#181 = ORIENTED_EDGE ( 'NONE', *, *, #740, .T. ) ;
#182 = FACE_BOUND ( 'NONE', #955, .T. ) ;
#183 = CARTESIAN_POINT ( 'NONE',  ( -0.8338096210321070956, 0.5000000000000000000, -10.00000000000089884 ) ) ;
#184 = EDGE_CURVE ( 'NONE', #661, #825, #77, .T. ) ;
#185 = CARTESIAN_POINT ( 'NONE',  ( 8.000000000000000000, 0.2921001837864336537, 9.303857315499476144 ) ) ;
#186 = CARTESIAN_POINT ( 'NONE',  ( -1.605502750684446589, 0.3825750887748797235, 10.24127381112741908 ) ) ;
#187 = ORIENTED_EDGE ( 'NONE', *, *, #352, .F. ) ;
#188 = ADVANCED_BREP_SHAPE_REPRESENTATION ( 'Part6_coverplate', ( #667, #64 ), #880 ) ;
#189 = CARTESIAN_POINT ( 'NONE',  ( 7.888730126002164944, 0.5000000000000000000, 9.999999999999998224 ) ) ;
#190 = DIRECTION ( 'NONE',  ( 0.000000000000000000, -0.000000000000000000, 1.000000000000000000 ) ) ;
#191 = CARTESIAN_POINT ( 'NONE',  ( 5.816505275995669244, 0.4216621466489513526, -10.18930116414455966 ) ) ;
#192 = AXIS2_PLACEMENT_3D ( 'NONE', #621, #170, #158 ) ;
#193 = CARTESIAN_POINT ( 'NONE',  ( -3.003606444122865593, 0.4785137260686665450, 10.08814496860695087 ) ) ;
#194 = ORIENTED_EDGE ( 'NONE', *, *, #117, .T. ) ;
#195 = VERTEX_POINT ( 'NONE', #460 ) ;
#196 = CARTESIAN_POINT ( 'NONE',  ( 7.108737311388968472, 0.4102494155256051211, 10.20484185326227689 ) ) ;
#197 = CARTESIAN_POINT ( 'NONE',  ( 7.109541492122940731, 0.4103675353686752625, -10.20467993738450296 ) ) ;
#198 = CARTESIAN_POINT ( 'NONE',  ( -1.976333503942290015, 0.3635744432563993711, 10.26345706554752546 ) ) ;
#199 = EDGE_LOOP ( 'NONE', ( #466 ) ) ;
#200 = DIRECTION ( 'NONE',  ( 0.000000000000000000, 0.000000000000000000, 1.000000000000000000 ) ) ;
#201 = CARTESIAN_POINT ( 'NONE',  ( 7.602993143953857391, 0.4946170889534857729, 10.04049966419084861 ) ) ;
#202 = CARTESIAN_POINT ( 'NONE',  ( 5.621052036029340115, 0.4556885316462165880, -10.13434577535895542 ) ) ;
#203 = PRODUCT_DEFINITION_SHAPE ( 'NONE', 'NONE',  #587 ) ;
#204 = CARTESIAN_POINT ( 'NONE',  ( -8.000000000000001776, 0.3380898704616482342, 10.29260162336842832 ) ) ;
#205 = ORIENTED_EDGE ( 'NONE', *, *, #374, .T. ) ;
#206 = CARTESIAN_POINT ( 'NONE',  ( -2.597440177127873895, 0.4086074488085572054, -10.20708788935608879 ) ) ;
#207 = CARTESIAN_POINT ( 'NONE',  ( 7.584752512669638236, 0.4920938494004316044, 10.05039438023052512 ) ) ;
#208 = EDGE_CURVE ( 'NONE', #689, #244, #542, .T. ) ;
#209 = CARTESIAN_POINT ( 'NONE',  ( 6.892868686189669525, 0.3788375520391091267, -10.24782076025710253 ) ) ;
#210 = CIRCLE ( 'NONE', #458, 0.9999999999999991118 ) ;
#211 = CARTESIAN_POINT ( 'NONE',  ( 8.000000000000001776, 0.4173949059996665545, 10.19597671463476374 ) ) ;
#212 = ORIENTED_EDGE ( 'NONE', *, *, #352, .T. ) ;
#213 = CARTESIAN_POINT ( 'NONE',  ( -3.096747328850846692, 0.4946181589927818867, -10.04639922444249578 ) ) ;
#214 = DIRECTION ( 'NONE',  ( 1.000000000000000000, 0.000000000000000000, 0.000000000000000000 ) ) ;
#215 = CARTESIAN_POINT ( 'NONE',  ( 8.000000000000000000, -0.5000000000000000000, -10.50000000000000178 ) ) ;
#216 = B_SPLINE_CURVE_WITH_KNOTS ( 'NONE', 3,
 ( #371, #279, #580, #162 ),
 .UNSPECIFIED., .F., .F.,
 ( 4, 4 ),
 ( 0.000000000000000000, 1.000000000000000000 ),
 .UNSPECIFIED. ) ;
#217 = CARTESIAN_POINT ( 'NONE',  ( 8.000000000000000000, 0.000000000000000000, 10.49999999999999822 ) ) ;
#218 = ORIENTED_EDGE ( 'NONE', *, *, #808, .F. ) ;
#219 = CARTESIAN_POINT ( 'NONE',  ( -1.314680014533275543, 0.4220755286880207291, -10.18842316093368083 ) ) ;
#220 = CARTESIAN_POINT ( 'NONE',  ( 8.000000000000000000, 0.3906187892846575971, -7.512017488380087649 ) ) ;
#221 = CARTESIAN_POINT ( 'NONE',  ( 3.277936543056539698, 0.5000000000000000000, -10.00000000000000000 ) ) ;
#222 = EDGE_CURVE ( 'NONE', #636, #67, #383, .T. ) ;
#223 = ADVANCED_FACE ( 'NONE', ( #238 ), #693, .T. ) ;
#224 = CARTESIAN_POINT ( 'NONE',  ( 8.000000000000000000, 0.4666355496791948498, 10.11486112670353066 ) ) ;
#225 = CARTESIAN_POINT ( 'NONE',  ( -3.028296260220094460, 0.4828732444139973157, -10.07728384579089997 ) ) ;
#226 = SURFACE_SIDE_STYLE ('',( #143 ) ) ;
#227 = CARTESIAN_POINT ( 'NONE',  ( 8.000000000000000000, 0.1845926022039210967, 10.42449303096676694 ) ) ;
#228 = CARTESIAN_POINT ( 'NONE',  ( 0.000000000000000000, 0.5000000000000000000, 0.000000000000000000 ) ) ;
#229 = CARTESIAN_POINT ( 'NONE',  ( -8.000000000000000000, -0.5000000000000000000, 10.50000000000000178 ) ) ;
#230 = CIRCLE ( 'NONE', #692, 0.9999999999999991118 ) ;
#231 = CARTESIAN_POINT ( 'NONE',  ( 8.000000000000000000, 0.5000000000000000000, 9.666190378969048425 ) ) ;
#232 = CARTESIAN_POINT ( 'NONE',  ( 8.000000000000000000, 0.3380898704616262518, -10.29260162336844431 ) ) ;
#233 = EDGE_CURVE ( 'NONE', #661, #267, #545, .T. ) ;
#234 = DIRECTION ( 'NONE',  ( 0.000000000000000000, 1.000000000000000000, 0.000000000000000000 ) ) ;
#235 = DIRECTION ( 'NONE',  ( 0.000000000000000000, 0.000000000000000000, 1.000000000000000000 ) ) ;
#236 = FACE_OUTER_BOUND ( 'NONE', #734, .T. ) ;
#237 = CARTESIAN_POINT ( 'NONE',  ( 7.534346316305863489, 0.4839178155631641554, -10.07457128113487954 ) ) ;
#238 = FACE_OUTER_BOUND ( 'NONE', #94, .T. ) ;
#239 = ORIENTED_EDGE ( 'NONE', *, *, #564, .F. ) ;
#240 = FACE_OUTER_BOUND ( 'NONE', #842, .T. ) ;
#241 = CARTESIAN_POINT ( 'NONE',  ( 7.590648246288702161, 0.4929066838608417433, -10.04719208217626303 ) ) ;
#242 = DIRECTION ( 'NONE',  ( 1.000000000000000000, -0.000000000000000000, -2.168404344971008868E-16 ) ) ;
#243 = VECTOR ( 'NONE', #377, 1000.000000000000000 ) ;
#244 = VERTEX_POINT ( 'NONE', #19 ) ;
#245 = CARTESIAN_POINT ( 'NONE',  ( -8.000000000000000000, 0.5000000000000000000, -9.999999999999984013 ) ) ;
#246 = EDGE_LOOP ( 'NONE', ( #860 ) ) ;
#247 = CARTESIAN_POINT ( 'NONE',  ( 5.346666205921169812, 0.5000000000000002220, 10.00999548373688519 ) ) ;
#248 = EDGE_CURVE ( 'NONE', #385, #140, #688, .T. ) ;
#249 = LINE ( 'NONE', #767, #286 ) ;
#250 = ORIENTED_EDGE ( 'NONE', *, *, #678, .F. ) ;
#251 = CARTESIAN_POINT ( 'NONE',  ( 5.409351753785916372, 0.4929066838503707304, 10.04719208221619908 ) ) ;
#252 = CARTESIAN_POINT ( 'NONE',  ( -2.048651122359767207, 0.3638213105824040228, 10.26319165634295416 ) ) ;
#253 = CARTESIAN_POINT ( 'NONE',  ( 8.000000000000000000, 0.5000000000000000000, 9.999999999999998224 ) ) ;
#254 = DIRECTION ( 'NONE',  ( 0.000000000000000000, 0.000000000000000000, -1.000000000000000000 ) ) ;
#255 = MECHANICAL_DESIGN_GEOMETRIC_PRESENTATION_REPRESENTATION (  '', ( #646 ), #459 ) ;
#256 = CARTESIAN_POINT ( 'NONE',  ( 7.400319821478038129, 0.4596177308084147817, -10.12716322069662489 ) ) ;
#257 = CARTESIAN_POINT ( 'NONE',  ( -1.165317241289222094, 0.4475301039322711616, 10.14936923001783775 ) ) ;
#258 = CARTESIAN_POINT ( 'NONE',  ( -0.8338096210321114254, 0.5000000000000000000, 10.00000000000090239 ) ) ;
#259 = FACE_OUTER_BOUND ( 'NONE', #877, .T. ) ;
#260 = CARTESIAN_POINT ( 'NONE',  ( 8.000000000000001776, 0.4991960330293850334, -10.04765235482295793 ) ) ;
#261 = CARTESIAN_POINT ( 'NONE',  ( -0.8466508610650407274, 0.4999999999999991673, 10.00998355372117565 ) ) ;
#262 = ORIENTED_EDGE ( 'NONE', *, *, #369, .F. ) ;
#263 = DIRECTION ( 'NONE',  ( 0.000000000000000000, 0.000000000000000000, 1.000000000000000000 ) ) ;
#264 = FACE_BOUND ( 'NONE', #455, .T. ) ;
#265 = CARTESIAN_POINT ( 'NONE',  ( 5.467984334998408080, 0.4835181114456462148, -10.07562326149982113 ) ) ;
#266 = CARTESIAN_POINT ( 'NONE',  ( -1.378380339075374827, 0.4121647589113472399, 10.20222051429742827 ) ) ;
#267 = VERTEX_POINT ( 'NONE', #898 ) ;
#268 = CARTESIAN_POINT ( 'NONE',  ( -1.031474793971814075, 0.4721346772756477295, -10.10218641374468795 ) ) ;
#269 = CARTESIAN_POINT ( 'NONE',  ( 8.000000000000000000, 0.3909286795006597370, -9.488487396089061221 ) ) ;
#270 = DIRECTION ( 'NONE',  ( 0.000000000000000000, 1.000000000000000000, 0.000000000000000000 ) ) ;
#271 = VECTOR ( 'NONE', #902, 1000.000000000000000 ) ;
#272 = CIRCLE ( 'NONE', #761, 0.9999999999999991118 ) ;
#273 = CARTESIAN_POINT ( 'NONE',  ( -0.9652295194233500020, 0.4839905009800531954, 10.07437954659662083 ) ) ;
#274 = EDGE_LOOP ( 'NONE', ( #612, #44 ) ) ;
#275 = FACE_OUTER_BOUND ( 'NONE', #850, .T. ) ;
#276 = CARTESIAN_POINT ( 'NONE',  ( 2.933333333333334014, 0.5000000000000000000, -10.00000000000000178 ) ) ;
#277 = CARTESIAN_POINT ( 'NONE',  ( 7.152950212750877945, 0.4169562330115398341, -10.19561352539455967 ) ) ;
#278 = CARTESIAN_POINT ( 'NONE',  ( 8.000000000000000000, 0.5000000000000000000, 10.49999999999999822 ) ) ;
#279 = CARTESIAN_POINT ( 'NONE',  ( -2.666666666666666963, 0.000000000000000000, -10.50000000000000000 ) ) ;
#280 = CARTESIAN_POINT ( 'NONE',  ( 7.503893414082946300, 0.4785652314597997337, 10.08802422627312545 ) ) ;
#281 = CARTESIAN_POINT ( 'NONE',  ( 6.500000000000000888, 0.5000000000000000000, -8.500000000000000000 ) ) ;
#282 = CARTESIAN_POINT ( 'NONE',  ( -8.000000000000001776, 0.4026843235906465424, 10.21546826206497371 ) ) ;
#283 = ORIENTED_EDGE ( 'NONE', *, *, #384, .F. ) ;
#284 = CARTESIAN_POINT ( 'NONE',  ( -3.032015667732367081, 0.4835181119153937335, -10.07562326027266764 ) ) ;
#285 = CARTESIAN_POINT ( 'NONE',  ( 6.500000000000000888, 0.5000000000000000000, -8.500000000000000000 ) ) ;
#286 = VECTOR ( 'NONE', #774, 1000.000000000000000 ) ;
#287 = CARTESIAN_POINT ( 'NONE',  ( -8.000000000000000000, 0.4768096041136964947, 10.10501657306281054 ) ) ;
#288 = ORIENTED_EDGE ( 'NONE', *, *, #723, .F. ) ;
#289 = CARTESIAN_POINT ( 'NONE',  ( -2.928248225076562683, 0.4647613505070263273, -10.11771072886043221 ) ) ;
#290 = VERTEX_POINT ( 'NONE', #811 ) ;
#291 = ADVANCED_FACE ( 'NONE', ( #468 ), #465, .T. ) ;
#292 = CARTESIAN_POINT ( 'NONE',  ( 2.933333333333336235, 0.5000000000000000000, 9.999999999999998224 ) ) ;
#293 = EDGE_CURVE ( 'NONE', #67, #244, #144, .T. ) ;
#294 = CARTESIAN_POINT ( 'NONE',  ( 8.000000000000000000, 0.04765235482306280634, 10.49919603302940274 ) ) ;
#295 = ORIENTED_EDGE ( 'NONE', *, *, #537, .T. ) ;
#296 = CARTESIAN_POINT ( 'NONE',  ( -2.556351369332056755, 0.4028249910881119833, -10.21492107291022755 ) ) ;
#297 = DIRECTION ( 'NONE',  ( 0.000000000000000000, 0.000000000000000000, 1.000000000000000000 ) ) ;
#298 = CARTESIAN_POINT ( 'NONE',  ( 8.000000000000001776, 0.1762849098232221745, 10.43009265757413750 ) ) ;
#299 = CARTESIAN_POINT ( 'NONE',  ( -1.807141549435802741, 0.3635393461241817059, -10.26349755721576607 ) ) ;
#300 = CARTESIAN_POINT ( 'NONE',  ( -8.000000000000000000, 0.4348469138286473745, -10.16899123129925187 ) ) ;
#301 = AXIS2_PLACEMENT_3D ( 'NONE', #680, #527, #824 ) ;
#302 = CARTESIAN_POINT ( 'NONE',  ( 1.222063459656027362, 0.5000000000000000000, 10.00000000000000000 ) ) ;
#303 =( LENGTH_UNIT ( ) NAMED_UNIT ( * ) SI_UNIT ( .MILLI., .METRE. ) );
#304 = CARTESIAN_POINT ( 'NONE',  ( 7.570580795440313260, 0.4898666912297753862, -10.05740430738882552 ) ) ;
#305 = CARTESIAN_POINT ( 'NONE',  ( 2.666666666666668739, 0.000000000000000000, 10.50000000000000000 ) ) ;
#306 = ORIENTED_EDGE ( 'NONE', *, *, #907, .F. ) ;
#307 = CARTESIAN_POINT ( 'NONE',  ( -4.777460252645177263, 0.5000000000000000000, -9.999999999999998224 ) ) ;
#308 = CARTESIAN_POINT ( 'NONE',  ( 7.433624851533411793, 0.4657413305116531177, -10.11536176389710917 ) ) ;
#309 = ORIENTED_EDGE ( 'NONE', *, *, #678, .T. ) ;
#310 = DIRECTION ( 'NONE',  ( 7.304098846218166024E-15, 0.000000000000000000, 1.000000000000000000 ) ) ;
#311 = APPLICATION_CONTEXT ( 'automotive_design' ) ;
#312 = CARTESIAN_POINT ( 'NONE',  ( -3.135938732706845755, 0.4986488921613839165, 10.02156201539611935 ) ) ;
#313 = AXIS2_PLACEMENT_3D ( 'NONE', #457, #538, #396 ) ;
#314 = ORIENTED_EDGE ( 'NONE', *, *, #710, .T. ) ;
#315 = CARTESIAN_POINT ( 'NONE',  ( 5.877682034311971115, 0.4122691906335661516, 10.20207650379770570 ) ) ;
#316 = EDGE_LOOP ( 'NONE', ( #617 ) ) ;
#317 = CARTESIAN_POINT ( 'NONE',  ( 6.378376724370506068, 0.3654406885155316309, 10.26141736095699741 ) ) ;
#318 = CARTESIAN_POINT ( 'NONE',  ( -2.708221996574380785, 0.4258177285047364258, 10.18304451401326816 ) ) ;
#319 = VERTEX_POINT ( 'NONE', #834 ) ;
#320 = CARTESIAN_POINT ( 'NONE',  ( 6.489733257370068564, 0.3635185993997824827, 10.26351641405524617 ) ) ;
#321 = CARTESIAN_POINT ( 'NONE',  ( 7.410041867273569061, 0.4614069912483109159, -10.12380089634523017 ) ) ;
#322 = ADVANCED_FACE ( 'NONE', ( #828, #89 ), #708, .F. ) ;
#323 = CARTESIAN_POINT ( 'NONE',  ( -2.926002838199470713, 0.4643414454116555068, 10.11813390447789551 ) ) ;
#324 = DIRECTION ( 'NONE',  ( 0.000000000000000000, 0.000000000000000000, 1.000000000000000000 ) ) ;
#325 = PLANE ( 'NONE',  #33 ) ;
#326 = VECTOR ( 'NONE', #908, 1000.000000000000000 ) ;
#327 = AXIS2_PLACEMENT_3D ( 'NONE', #961, #511, #235 ) ;
#328 = CARTESIAN_POINT ( 'NONE',  ( -8.000000000000000000, 0.2154682620649667479, -10.40268432359061279 ) ) ;
#329 = CARTESIAN_POINT ( 'NONE',  ( -2.609541491360779730, 0.4103675352570518853, 10.20467993753850244 ) ) ;
#330 = ADVANCED_FACE ( 'NONE', ( #757, #96 ), #163, .F. ) ;
#331 = CARTESIAN_POINT ( 'NONE',  ( -8.000000000000000000, 0.5000000000000000000, 10.00000000000000355 ) ) ;
#332 = LINE ( 'NONE', #930, #817 ) ;
#333 = CARTESIAN_POINT ( 'NONE',  ( 7.137260845418897048, 0.4145200861192280817, -10.19898883202289674 ) ) ;
#334 = CARTESIAN_POINT ( 'NONE',  ( -3.037501117335205336, 0.4844569820909416236, 10.07314142900575327 ) ) ;
#335 = CARTESIAN_POINT ( 'NONE',  ( 6.500000000000000888, -0.5000000000000000000, -8.500000000000000000 ) ) ;
#336 = CARTESIAN_POINT ( 'NONE',  ( -2.933333333333336235, 0.5000000000000000000, -10.49999999999999822 ) ) ;
#337 = CARTESIAN_POINT ( 'NONE',  ( 5.467581717604219627, 0.4835866440251198606, -10.07544022642145087 ) ) ;
#338 = CARTESIAN_POINT ( 'NONE',  ( -1.990498259224269484, 0.3635163532319073965, 10.26351845561119980 ) ) ;
#339 = DIRECTION ( 'NONE',  ( -0.000000000000000000, 1.000000000000000000, -0.000000000000000000 ) ) ;
#340 = CARTESIAN_POINT ( 'NONE',  ( 8.800000000000000711, 0.000000000000000000, -10.50000000000000178 ) ) ;
#341 = CARTESIAN_POINT ( 'NONE',  ( 6.404144528455222307, 0.3635065413658915556, -10.26352737368310031 ) ) ;
#342 = EDGE_CURVE ( 'NONE', #644, #83, #249, .T. ) ;
#343 = LINE ( 'NONE', #278, #815 ) ;
#344 = CARTESIAN_POINT ( 'NONE',  ( 7.777460252646021921, 0.5000000000000000000, -10.00000000000000178 ) ) ;
#345 = CARTESIAN_POINT ( 'NONE',  ( 7.537863685635997513, 0.4845188739922008381, 10.07297639325642891 ) ) ;
#346 = CARTESIAN_POINT ( 'NONE',  ( 5.507771167554380121, 0.4764446021830522904, -10.09269583901631151 ) ) ;
#347 = CARTESIAN_POINT ( 'NONE',  ( 8.000000000000000000, 0.4996059212885964884, 10.02335838175969585 ) ) ;
#348 = ORIENTED_EDGE ( 'NONE', *, *, #233, .T. ) ;
#349 = CARTESIAN_POINT ( 'NONE',  ( -2.843154343400645878, 0.4491816164593074867, -10.14588477316718773 ) ) ;
#350 = CARTESIAN_POINT ( 'NONE',  ( 8.000000000000001776, 0.1519119508944800634, -8.089681777797723683 ) ) ;
#351 = CARTESIAN_POINT ( 'NONE',  ( 5.635462866287776151, 0.4530607938986039307, -10.13904409966154851 ) ) ;
#352 = EDGE_CURVE ( 'NONE', #129, #475, #406, .T. ) ;
#353 = CARTESIAN_POINT ( 'NONE',  ( -7.999999999999998224, 0.06237587037143762364, 10.49092383748601520 ) ) ;
#354 = APPLICATION_PROTOCOL_DEFINITION ( 'draft international standard', 'automotive_design', 1998, #472 ) ;
#355 = ORIENTED_EDGE ( 'NONE', *, *, #932, .F. ) ;
#356 = CARTESIAN_POINT ( 'NONE',  ( -2.575965772104754858, 0.4055539515034151110, -10.21123700555382818 ) ) ;
#357 = CARTESIAN_POINT ( 'NONE',  ( 8.000000000000001776, 0.2921001837864359851, -7.696142684500523856 ) ) ;
#358 = CARTESIAN_POINT ( 'NONE',  ( 7.666190378369117653, 0.5000000000000000000, 10.00000000046642157 ) ) ;
#359 = CIRCLE ( 'NONE', #906, 1.899999999999991918 ) ;
#360 = CARTESIAN_POINT ( 'NONE',  ( 8.000000000000000000, 0.1689912312992641608, -10.43484691382864327 ) ) ;
#361 = ORIENTED_EDGE ( 'NONE', *, *, #248, .T. ) ;
#362 = CARTESIAN_POINT ( 'NONE',  ( -2.640139590321487262, 0.4148136820607863928, -10.19859856932379039 ) ) ;
#363 = CARTESIAN_POINT ( 'NONE',  ( -1.999999999999998668, -0.3999999999999988565, -7.500000000000007105 ) ) ;
#364 = CARTESIAN_POINT ( 'NONE',  ( -8.800000000000000711, 0.5000000000000000000, 10.00000000000000178 ) ) ;
#365 = CARTESIAN_POINT ( 'NONE',  ( 7.999999999999998224, 0.1939165343376310358, 10.41810415538930279 ) ) ;
#366 = CARTESIAN_POINT ( 'NONE',  ( -2.884927096728142182, 0.4567830356600581232, -10.13236895100233426 ) ) ;
#367 = FACE_OUTER_BOUND ( 'NONE', #246, .T. ) ;
#368 = CYLINDRICAL_SURFACE ( 'NONE', #100, 0.9999999999999931166 ) ;
#369 = EDGE_CURVE ( 'NONE', #689, #636, #387, .T. ) ;
#370 = CARTESIAN_POINT ( 'NONE',  ( -7.999999999999998224, 0.4434713910519492708, -10.15521116011717417 ) ) ;
#371 = CARTESIAN_POINT ( 'NONE',  ( -8.000000000000000000, 0.000000000000000000, -10.49999999999999822 ) ) ;
#372 = CARTESIAN_POINT ( 'NONE',  ( -1.999999999999998668, -0.5000000000000000000, 8.500000000000000000 ) ) ;
#373 = CARTESIAN_POINT ( 'NONE',  ( 8.800000000000002487, 0.5000000000000000000, 10.49999999999999822 ) ) ;
#374 = EDGE_CURVE ( 'NONE', #654, #129, #840, .T. ) ;
#375 = CARTESIAN_POINT ( 'NONE',  ( -7.999999999999996447, 0.4173949059996622801, -10.19597671463477973 ) ) ;
#376 = AXIS2_PLACEMENT_3D ( 'NONE', #773, #172, #779 ) ;
#377 = DIRECTION ( 'NONE',  ( 0.000000000000000000, 1.000000000000000000, 0.000000000000000000 ) ) ;
#378 = EDGE_LOOP ( 'NONE', ( #348, #625, #514, #60, #502, #438, #159, #28, #381, #314 ) ) ;
#379 = CARTESIAN_POINT ( 'NONE',  ( 7.503606444204533155, 0.4785137260847675544, -10.08814496857389109 ) ) ;
#380 = CARTESIAN_POINT ( 'NONE',  ( 6.500000000000000888, -0.3999999999999988565, -8.500000000000000000 ) ) ;
#381 = ORIENTED_EDGE ( 'NONE', *, *, #222, .F. ) ;
#382 = CARTESIAN_POINT ( 'NONE',  ( 5.589958132958427584, 0.4614069912050846045, 10.12380089642581282 ) ) ;
#383 = LINE ( 'NONE', #837, #271 ) ;
#384 = EDGE_CURVE ( 'NONE', #669, #669, #786, .T. ) ;
#385 = VERTEX_POINT ( 'NONE', #578 ) ;
#386 = FACE_OUTER_BOUND ( 'NONE', #168, .T. ) ;
#387 = LINE ( 'NONE', #624, #115 ) ;
#388 = AXIS2_PLACEMENT_3D ( 'NONE', #611, #685, #10 ) ;
#389 = ORIENTED_EDGE ( 'NONE', *, *, #565, .T. ) ;
#390 = VECTOR ( 'NONE', #525, 1000.000000000000000 ) ;
#391 = FACE_OUTER_BOUND ( 'NONE', #378, .T. ) ;
#392 = CARTESIAN_POINT ( 'NONE',  ( -1.073575059849743552, 0.4644196955174044184, 10.11798230623531225 ) ) ;
#393 = EDGE_LOOP ( 'NONE', ( #135 ) ) ;
#394 = CARTESIAN_POINT ( 'NONE',  ( 5.665523942480635178, 0.4474927514321779820, 10.14941803307483248 ) ) ;
#395 = EDGE_CURVE ( 'NONE', #244, #946, #448, .T. ) ;
#396 = DIRECTION ( 'NONE',  ( -4.565061778886353765E-15, 0.000000000000000000, 1.000000000000000000 ) ) ;
#397 = EDGE_CURVE ( 'NONE', #540, #557, #343, .T. ) ;
#398 = CARTESIAN_POINT ( 'NONE',  ( -2.395317503790642011, 0.3826566338344961071, 10.24117133064557805 ) ) ;
#399 = EDGE_LOOP ( 'NONE', ( #764, #205 ) ) ;
#400 = CARTESIAN_POINT ( 'NONE',  ( 6.523666496017971994, 0.3635744432539334547, 10.26345706554546133 ) ) ;
#401 = CARTESIAN_POINT ( 'NONE',  ( 7.468525206231351632, 0.4721346773137112818, -10.10218641366622805 ) ) ;
#402 = B_SPLINE_CURVE_WITH_KNOTS ( 'NONE', 3,
 ( #415, #650, #189, #253 ),
 .UNSPECIFIED., .F., .F.,
 ( 4, 4 ),
 ( 0.000000000000000000, 1.000000000000000000 ),
 .UNSPECIFIED. ) ;
#403 = CARTESIAN_POINT ( 'NONE',  ( -0.9783205724155396021, 0.4817456658523945334, 10.08028990526627133 ) ) ;
#404 = CARTESIAN_POINT ( 'NONE',  ( -0.9294192046881296632, 0.4898666912103102900, -10.05740430745354352 ) ) ;
#405 = CARTESIAN_POINT ( 'NONE',  ( 7.468841820050990066, 0.4721931076148538353, 10.10206318858707952 ) ) ;
#406 = B_SPLINE_CURVE_WITH_KNOTS ( 'NONE', 3,
 ( #102, #302, #173, #167 ),
 .UNSPECIFIED., .F., .F.,
 ( 4, 4 ),
 ( 0.000000000000000000, 1.000000000000000000 ),
 .UNSPECIFIED. ) ;
#407 = CARTESIAN_POINT ( 'NONE',  ( 5.403252672327257145, 0.4946181588393942508, -10.04639922515817752 ) ) ;
#408 = CARTESIAN_POINT ( 'NONE',  ( -3.047103358945471019, 0.4860772559442793628, 10.06872303525036472 ) ) ;
#409 = CARTESIAN_POINT ( 'NONE',  ( -0.9786450901229123422, 0.4816889524118041499, -10.08043126519160815 ) ) ;
#410 = CARTESIAN_POINT ( 'NONE',  ( -2.933333333333330462, 0.000000000000000000, -10.50000000000000000 ) ) ;
#411 = CARTESIAN_POINT ( 'NONE',  ( 5.989216686514884813, 0.3967708111772487722, -10.22298639280181298 ) ) ;
#412 = CARTESIAN_POINT ( 'NONE',  ( -1.755978960327530203, 0.3711307003173291985, 10.25495864460745565 ) ) ;
#413 = ORIENTED_EDGE ( 'NONE', *, *, #233, .F. ) ;
#414 = UNCERTAINTY_MEASURE_WITH_UNIT (LENGTH_MEASURE( 1.000000000000000082E-05 ), #303, 'distance_accuracy_value', 'NONE');
#415 = CARTESIAN_POINT ( 'NONE',  ( 7.666190378369117653, 0.5000000000000000000, 10.00000000046642157 ) ) ;
#416 = CARTESIAN_POINT ( 'NONE',  ( 8.800000000000000711, 0.5000000000000000000, -10.00000000000000178 ) ) ;
#417 = EDGE_CURVE ( 'NONE', #644, #67, #942, .T. ) ;
#418 = CARTESIAN_POINT ( 'NONE',  ( 6.155643641177700687, 0.3787609251002591049, -10.24583248211184916 ) ) ;
#419 = B_SPLINE_CURVE_WITH_KNOTS ( 'NONE', 3,
 ( #641, #269, #569, #645, #937, #821, #884, #350, #953, #357, #220, #656 ),
 .UNSPECIFIED., .F., .F.,
 ( 4, 2, 2, 2, 2, 4 ),
 ( 5.818439421673297140E-18, 0.0006212968656631020960, 0.001242593731326198337, 0.001553242164157746458, 0.001863890596989294796, 0.002485187462652388001 ),
 .UNSPECIFIED. ) ;
#420 = CARTESIAN_POINT ( 'NONE',  ( 8.000000000000001776, 0.1959767146346868827, -10.41739490599973017 ) ) ;
#421 = EDGE_LOOP ( 'NONE', ( #628 ) ) ;
#422 = DIRECTION ( 'NONE',  ( 0.000000000000000000, 1.000000000000000000, 0.000000000000000000 ) ) ;
#423 = CARTESIAN_POINT ( 'NONE',  ( 7.207810436940453869, 0.4257514655125070879, 10.18314738009188147 ) ) ;
#424 = CIRCLE ( 'NONE', #620, 1.899999999999991918 ) ;
#425 = CARTESIAN_POINT ( 'NONE',  ( 5.333809623567820957, 0.5000000000000000000, -10.00000000197231387 ) ) ;
#426 = CARTESIAN_POINT ( 'NONE',  ( -8.000000000000001776, 0.1552111601171574373, 10.44347139105195588 ) ) ;
#427 = ORIENTED_EDGE ( 'NONE', *, *, #184, .F. ) ;
#428 = CARTESIAN_POINT ( 'NONE',  ( -1.073997161843259107, 0.4643414454044645368, -10.11813390449401062 ) ) ;
#429 =( NAMED_UNIT ( * ) PLANE_ANGLE_UNIT ( ) SI_UNIT ( $, .RADIAN. ) );
#430 = CARTESIAN_POINT ( 'NONE',  ( 5.484141001590749909, 0.4806837115714569508, -10.08272691540449628 ) ) ;
#431 =( BOUNDED_SURFACE ( )  B_SPLINE_SURFACE ( 2, 3, ( 
 ( #416, #276, #852, #41 ),
 ( #793, #123, #336, #784 ),
 ( #340, #119, #410, #574 ) ),
 .UNSPECIFIED., .F., .F., .F. ) 
 B_SPLINE_SURFACE_WITH_KNOTS ( ( 3, 3 ),
 ( 4, 4 ),
 ( 0.000000000000000000, 1.000000000000000000 ),
 ( -0.008800000000000002265, 0.008799999999999998795 ),
 .UNSPECIFIED. ) 
 GEOMETRIC_REPRESENTATION_ITEM ( )  RATIONAL_B_SPLINE_SURFACE ( (
 ( 1.000000000000000000, 1.000000000000000000, 1.000000000000000000, 1.000000000000000000),
 ( 0.3535533905932739529, 0.3535533905932739529, 0.3535533905932739529, 0.3535533905932739529),
 ( 1.000000000000000000, 1.000000000000000000, 1.000000000000000000, 1.000000000000000000) ) ) 
 REPRESENTATION_ITEM ( '' )  SURFACE ( )  );
#432 = CARTESIAN_POINT ( 'NONE',  ( 8.000000000000000000, 0.02335838175966693797, -10.49960592128860526 ) ) ;
#433 = ORIENTED_EDGE ( 'NONE', *, *, #696, .T. ) ;
#434 = CARTESIAN_POINT ( 'NONE',  ( -2.510783315680317429, 0.3967708114573643141, -10.22298639244418439 ) ) ;
#435 = CARTESIAN_POINT ( 'NONE',  ( -8.000000000000000000, 0.5000000000000000000, 10.00000000000000355 ) ) ;
#436 = CARTESIAN_POINT ( 'NONE',  ( 1.222063461011865471, 0.5000000000000000000, -10.00000000000000000 ) ) ;
#437 = CARTESIAN_POINT ( 'NONE',  ( 8.000000000000000000, 0.3605979029660406621, 10.26772102860877389 ) ) ;
#438 = ORIENTED_EDGE ( 'NONE', *, *, #577, .T. ) ;
#439 = CARTESIAN_POINT ( 'NONE',  ( -1.291778003370281258, 0.4258177285126460432, -10.18304451399856347 ) ) ;
#440 =( LENGTH_UNIT ( ) NAMED_UNIT ( * ) SI_UNIT ( .MILLI., .METRE. ) );
#441 =( NAMED_UNIT ( * ) SI_UNIT ( $, .STERADIAN. ) SOLID_ANGLE_UNIT ( ) );
#442 = PRODUCT_DEFINITION_FORMATION_WITH_SPECIFIED_SOURCE ( 'Symmetric', '', #471, .NOT_KNOWN. ) ;
#443 = CIRCLE ( 'NONE', #570, 1.899999999999991918 ) ;
#444 = CARTESIAN_POINT ( 'NONE',  ( 8.000000000000001776, 0.2677210286086575408, -10.36059790296613592 ) ) ;
#445 = PLANE ( 'NONE',  #691 ) ;
#446 = CARTESIAN_POINT ( 'NONE',  ( 6.500000000000000888, -0.3999999999999988565, -7.500000000000007105 ) ) ;
#447 = DIRECTION ( 'NONE',  ( 0.000000000000000000, 0.000000000000000000, 1.000000000000000000 ) ) ;
#448 = B_SPLINE_CURVE_WITH_KNOTS ( 'NONE', 3,
 ( #888, #595, #353, #583, #501, #426, #809, #871, #660, #885, #733, #746, #204, #882, #282, #949, #139, #517, #945, #287, #670, #71 ),
 .UNSPECIFIED., .F., .F.,
 ( 4, 1, 1, 1, 2, 2, 2, 2, 1, 1, 1, 2, 2, 4 ),
 ( 0.000000000000000000, 0.1250000000000142664, 0.1875000000000201228, 0.2187500000000216216, 0.2343750000000209555, 0.2500000000000202616, 0.3750000000000062728, 0.4999999999999921729, 0.6249999999999780176, 0.6874999999999710232, 0.7187499999999703570, 0.7343749999999730216, 0.7499999999999756861, 1.000000000000000000 ),
 .UNSPECIFIED. ) ;
#449 = CARTESIAN_POINT ( 'NONE',  ( 6.500000000000000888, 0.5000000000000000000, 8.500000000000000000 ) ) ;
#450 = CARTESIAN_POINT ( 'NONE',  ( -1.347049787886223760, 0.4169562329139814838, -10.19561352553550115 ) ) ;
#451 = VERTEX_POINT ( 'NONE', #363 ) ;
#452 = CARTESIAN_POINT ( 'NONE',  ( -1.999999999999998668, -0.5000000000000000000, -8.500000000000000000 ) ) ;
#453 = CARTESIAN_POINT ( 'NONE',  ( 8.000000000000001776, 0.4768096041136957730, -10.10501657306284606 ) ) ;
#454 = CARTESIAN_POINT ( 'NONE',  ( -2.666666666666666963, 0.000000000000000000, 10.50000000000000000 ) ) ;
#455 = EDGE_LOOP ( 'NONE', ( #703 ) ) ;
#456 = CARTESIAN_POINT ( 'NONE',  ( 2.933333333333330462, 0.000000000000000000, 10.50000000000000000 ) ) ;
#457 = CARTESIAN_POINT ( 'NONE',  ( 6.500000000000000888, 0.5000000000000000000, 8.500000000000000000 ) ) ;
#458 = AXIS2_PLACEMENT_3D ( 'NONE', #335, #339, #573 ) ;
#459 =( GEOMETRIC_REPRESENTATION_CONTEXT ( 3 ) GLOBAL_UNCERTAINTY_ASSIGNED_CONTEXT ( ( #414 ) ) GLOBAL_UNIT_ASSIGNED_CONTEXT ( ( #303, #887, #441 ) ) REPRESENTATION_CONTEXT ( 'NONE', 'WORKASPACE' ) );
#460 = CARTESIAN_POINT ( 'NONE',  ( -3.166190378968249508, 0.5000000000000000000, -10.00000000000061995 ) ) ;
#461 = ORIENTED_EDGE ( 'NONE', *, *, #476, .F. ) ;
#462 = CARTESIAN_POINT ( 'NONE',  ( 5.599680178805776620, 0.4596177307559166647, 10.12716322079366016 ) ) ;
#463 = CARTESIAN_POINT ( 'NONE',  ( -8.000000000000001776, 0.1783572080273451155, -10.42870347607067316 ) ) ;
#464 = EDGE_CURVE ( 'NONE', #267, #140, #549, .T. ) ;
#465 = PLANE ( 'NONE',  #301 ) ;
#466 = ORIENTED_EDGE ( 'NONE', *, *, #879, .T. ) ;
#467 = CARTESIAN_POINT ( 'NONE',  ( 5.478645090047725930, 0.4816889524250522192, 10.08043126515848975 ) ) ;
#468 = FACE_OUTER_BOUND ( 'NONE', #584, .T. ) ;
#469 = ORIENTED_EDGE ( 'NONE', *, *, #293, .T. ) ;
#470 = CARTESIAN_POINT ( 'NONE',  ( 6.304752966989176421, 0.3683132026965428851, 10.25818663482831994 ) ) ;
#471 = PRODUCT ( 'Part6_coverplate', 'Part6_coverplate', '', ( #66 ) ) ;
#472 = APPLICATION_CONTEXT ( 'automotive_design' ) ;
#473 = CARTESIAN_POINT ( 'NONE',  ( -8.000000000000000000, -0.5000000000000000000, 10.50000000000000178 ) ) ;
#474 = CIRCLE ( 'NONE', #490, 0.9999999999999931166 ) ;
#475 = VERTEX_POINT ( 'NONE', #481 ) ;
#476 = EDGE_CURVE ( 'NONE', #772, #50, #603, .T. ) ;
#477 = CARTESIAN_POINT ( 'NONE',  ( -0.9396113025473361580, 0.4882669361572713473, 10.06244672117375494 ) ) ;
#478 = EDGE_LOOP ( 'NONE', ( #509 ) ) ;
#479 = ORIENTED_EDGE ( 'NONE', *, *, #537, .F. ) ;
#480 = CARTESIAN_POINT ( 'NONE',  ( 6.509501739131360765, 0.3635163532310499157, 10.26351845561206844 ) ) ;
#481 = CARTESIAN_POINT ( 'NONE',  ( 5.333809621032666648, 0.5000000000000000000, 10.00000000000133227 ) ) ;
#482 = CARTESIAN_POINT ( 'NONE',  ( -1.388199043974832403, 0.4107033197095828481, 10.20422142661006326 ) ) ;
#483 = CARTESIAN_POINT ( 'NONE',  ( -0.8640612672926500926, 0.4986488921613723146, -10.02156201539572855 ) ) ;
#484 = DIRECTION ( 'NONE',  ( -0.000000000000000000, -0.000000000000000000, 1.000000000000000000 ) ) ;
#485 = CARTESIAN_POINT ( 'NONE',  ( 8.000000000000000000, 0.5000000000000000000, -7.333809621030945358 ) ) ;
#486 = CARTESIAN_POINT ( 'NONE',  ( -3.021354909926770915, 0.4816889524202880857, 10.08043126516915500 ) ) ;
#487 = ORIENTED_EDGE ( 'NONE', *, *, #86, .T. ) ;
#488 = CARTESIAN_POINT ( 'NONE',  ( -0.9398956249943141161, 0.4882200285319859279, -10.06258319704601867 ) ) ;
#489 = CARTESIAN_POINT ( 'NONE',  ( 7.136600308757864219, 0.4144193965286372405, 10.19912919890258429 ) ) ;
#490 = AXIS2_PLACEMENT_3D ( 'NONE', #917, #679, #894 ) ;
#491 = CARTESIAN_POINT ( 'NONE',  ( 5.497490252371272312, 0.4783004976046656420, -10.08841998442166954 ) ) ;
#492 = CARTESIAN_POINT ( 'NONE',  ( -2.622317965499384229, 0.4122691906051201283, 10.20207650383638409 ) ) ;
#493 = ORIENTED_EDGE ( 'NONE', *, *, #696, .F. ) ;
#494 = ORIENTED_EDGE ( 'NONE', *, *, #293, .F. ) ;
#495 = CARTESIAN_POINT ( 'NONE',  ( 7.280752233046563937, 0.4380189186847805449, 10.16468877324255615 ) ) ;
#496 = CARTESIAN_POINT ( 'NONE',  ( 5.743544785676138353, 0.4339325636966218092, -10.17083714885866286 ) ) ;
#497 = CARTESIAN_POINT ( 'NONE',  ( -2.933624851311782855, 0.4657413304694060785, 10.11536176397651410 ) ) ;
#498 = DIRECTION ( 'NONE',  ( 0.000000000000000000, 0.000000000000000000, 1.000000000000000000 ) ) ;
#499 = FACE_BOUND ( 'NONE', #199, .T. ) ;
#500 = CARTESIAN_POINT ( 'NONE',  ( 8.000000000000000000, 0.1464554639505522837, 8.082993536090949505 ) ) ;
#501 = CARTESIAN_POINT ( 'NONE',  ( -8.000000000000000000, 0.1428449681073620803, 10.45095160826652148 ) ) ;
#502 = ORIENTED_EDGE ( 'NONE', *, *, #397, .F. ) ;
#503 = CARTESIAN_POINT ( 'NONE',  ( -2.683494726052795265, 0.4216621469797012800, -10.18930116367455696 ) ) ;
#504 = EDGE_CURVE ( 'NONE', #475, #540, #359, .T. ) ;
#505 = FACE_BOUND ( 'NONE', #16, .T. ) ;
#506 = AXIS2_PLACEMENT_3D ( 'NONE', #632, #422, #498 ) ;
#507 = CARTESIAN_POINT ( 'NONE',  ( 7.999999999999998224, 0.1109114626854203478, 8.706842423637702666 ) ) ;
#508 = CARTESIAN_POINT ( 'NONE',  ( 7.999999999999998224, 0.2577552618483561764, 10.36979483818760173 ) ) ;
#509 = ORIENTED_EDGE ( 'NONE', *, *, #550, .T. ) ;
#510 = CARTESIAN_POINT ( 'NONE',  ( -2.992228834536713844, 0.4764446025621112413, -10.09269583816024785 ) ) ;
#511 = DIRECTION ( 'NONE',  ( 0.000000000000000000, 1.000000000000000000, 0.000000000000000000 ) ) ;
#512 = DIRECTION ( 'NONE',  ( -0.000000000000000000, 1.000000000000000000, -0.000000000000000000 ) ) ;
#513 = CARTESIAN_POINT ( 'NONE',  ( 8.000000000000000000, 0.3378193158005629027, 10.29269304217099013 ) ) ;
#514 = ORIENTED_EDGE ( 'NONE', *, *, #248, .F. ) ;
#515 = CYLINDRICAL_SURFACE ( 'NONE', #647, 0.9999999999999931166 ) ;
#516 = CARTESIAN_POINT ( 'NONE',  ( -0.8338096210321070956, 0.5000000000000000000, -10.00000000000089884 ) ) ;
#517 = CARTESIAN_POINT ( 'NONE',  ( -8.000000000000000000, 0.4287034760706793235, 10.17835720802735189 ) ) ;
#518 = CARTESIAN_POINT ( 'NONE',  ( -3.030795156663641077, 0.4833062923169120784, -10.07616772806113481 ) ) ;
#519 = DIRECTION ( 'NONE',  ( -0.000000000000000000, -0.000000000000000000, 1.000000000000000000 ) ) ;
#520 = CARTESIAN_POINT ( 'NONE',  ( 8.000000000000000000, 0.5000000000000000000, 9.999999999999998224 ) ) ;
#521 = COLOUR_RGB ( '',0.7921568627450980005, 0.8196078431372548767, 0.9333333333333333481 ) ;
#522 = CARTESIAN_POINT ( 'NONE',  ( 7.999999999999998224, 0.06237587037148407260, -10.49092383748601520 ) ) ;
#523 = EDGE_CURVE ( 'NONE', #83, #622, #892, .T. ) ;
#524 = DIRECTION ( 'NONE',  ( 0.000000000000000000, 1.000000000000000000, 0.000000000000000000 ) ) ;
#525 = DIRECTION ( 'NONE',  ( 0.000000000000000000, 1.000000000000000000, 0.000000000000000000 ) ) ;
#526 = CARTESIAN_POINT ( 'NONE',  ( 7.999999999999998224, 0.4244930309667924173, -10.18459260220390128 ) ) ;
#527 = DIRECTION ( 'NONE',  ( 0.000000000000000000, 1.000000000000000000, 0.000000000000000000 ) ) ;
#528 = CARTESIAN_POINT ( 'NONE',  ( -8.000000000000000000, -0.5000000000000000000, -10.49999999999999822 ) ) ;
#529 = B_SPLINE_CURVE_WITH_KNOTS ( 'NONE', 3,
 ( #905, #307, #687, #629 ),
 .UNSPECIFIED., .F., .F.,
 ( 4, 4 ),
 ( 0.000000000000000000, 1.000000000000000000 ),
 .UNSPECIFIED. ) ;
#530 = ORIENTED_EDGE ( 'NONE', *, *, #853, .F. ) ;
#531 = LINE ( 'NONE', #826, #861 ) ;
#532 = CARTESIAN_POINT ( 'NONE',  ( -8.000000000000001776, 0.4996059212885972656, -10.02335838175967986 ) ) ;
#533 = CARTESIAN_POINT ( 'NONE',  ( 8.000000000000000000, 0.5000000000000000000, 10.49999999999999822 ) ) ;
#534 = EDGE_CURVE ( 'NONE', #736, #736, #474, .T. ) ;
#535 = EDGE_LOOP ( 'NONE', ( #24, #699, #413, #543 ) ) ;
#536 = DIRECTION ( 'NONE',  ( 0.000000000000000000, 0.000000000000000000, 1.000000000000000000 ) ) ;
#537 = EDGE_CURVE ( 'NONE', #319, #560, #926, .T. ) ;
#538 = DIRECTION ( 'NONE',  ( -0.000000000000000000, -1.000000000000000000, -0.000000000000000000 ) ) ;
#539 = UNCERTAINTY_MEASURE_WITH_UNIT (LENGTH_MEASURE( 1.000000000000000082E-05 ), #440, 'distance_accuracy_value', 'NONE');
#540 = VERTEX_POINT ( 'NONE', #722 ) ;
#541 = CARTESIAN_POINT ( 'NONE',  ( 5.364061267281565293, 0.4986488921619754433, 10.02156201538808133 ) ) ;
#542 = LINE ( 'NONE', #473, #760 ) ;
#543 = ORIENTED_EDGE ( 'NONE', *, *, #184, .T. ) ;
#544 = CARTESIAN_POINT ( 'NONE',  ( 5.890458508461974496, 0.4103675352832083512, 10.20467993750289537 ) ) ;
#545 = LINE ( 'NONE', #6, #243 ) ;
#546 = ORIENTED_EDGE ( 'NONE', *, *, #723, .T. ) ;
#547 = CARTESIAN_POINT ( 'NONE',  ( 6.475525786357556157, 0.3635798837190126753, 10.26345148846361610 ) ) ;
#548 = CARTESIAN_POINT ( 'NONE',  ( -0.9582866490147536886, 0.4851707109765514558, 10.07121172385327768 ) ) ;
#549 = B_SPLINE_CURVE_WITH_KNOTS ( 'NONE', 3,
 ( #134, #432, #522, #590, #738, #145, #65, #360, #420, #665, #444, #766, #232, #80, #706, #166, #526, #827, #901, #453, #260, #701 ),
 .UNSPECIFIED., .F., .F.,
 ( 4, 1, 1, 1, 2, 2, 2, 2, 1, 1, 1, 2, 2, 4 ),
 ( 0.000000000000000000, 0.1249999999999961142, 0.1874999999999954481, 0.2187499999999937550, 0.2343749999999943101, 0.2499999999999948930, 0.3750000000000076605, 0.5000000000000204281, 0.6250000000000331957, 0.6875000000000421885, 0.7187500000000468514, 0.7343750000000461853, 0.7500000000000456302, 1.000000000000000000 ),
 .UNSPECIFIED. ) ;
#550 = EDGE_CURVE ( 'NONE', #451, #451, #68, .T. ) ;
#551 = CYLINDRICAL_SURFACE ( 'NONE', #801, 0.9999999999999940048 ) ;
#552 = CARTESIAN_POINT ( 'NONE',  ( 5.496393555855957125, 0.4785137260730052966, 10.08814496859858423 ) ) ;
#553 = CARTESIAN_POINT ( 'NONE',  ( 7.334476057807936655, 0.4474927514834346476, -10.14941803298618517 ) ) ;
#554 = CARTESIAN_POINT ( 'NONE',  ( -0.9961065853007452509, 0.4785652315701953707, 10.08802422601417881 ) ) ;
#555 = EDGE_LOOP ( 'NONE', ( #433 ) ) ;
#556 = PRODUCT_DEFINITION_CONTEXT ( 'detailed design', #311, 'design' ) ;
#557 = VERTEX_POINT ( 'NONE', #485 ) ;
#558 = CARTESIAN_POINT ( 'NONE',  ( 7.999999999999998224, 0.2930966961284903194, 7.694427960142220080 ) ) ;
#559 = CARTESIAN_POINT ( 'NONE',  ( -1.502893258726575088, 0.3940249347446672101, 10.22703559735762724 ) ) ;
#560 = VERTEX_POINT ( 'NONE', #425 ) ;
#561 = CARTESIAN_POINT ( 'NONE',  ( -1.999999999999998668, 0.5000000000000000000, -8.500000000000000000 ) ) ;
#562 = CARTESIAN_POINT ( 'NONE',  ( 7.111800955490605425, 0.4107033196306326683, 10.20422142671810128 ) ) ;
#563 = CARTESIAN_POINT ( 'NONE',  ( 5.542805043916380292, 0.4700756575869547982, -10.10672828042732441 ) ) ;
#564 = EDGE_CURVE ( 'NONE', #557, #560, #424, .T. ) ;
#565 = EDGE_CURVE ( 'NONE', #654, #129, #934, .T. ) ;
#566 = CARTESIAN_POINT ( 'NONE',  ( -1.363399690737009173, 0.4144193966063329793, 10.19912919879619118 ) ) ;
#567 = ORIENTED_EDGE ( 'NONE', *, *, #133, .F. ) ;
#568 = ORIENTED_EDGE ( 'NONE', *, *, #523, .T. ) ;
#569 = CARTESIAN_POINT ( 'NONE',  ( 8.000000000000000000, 0.2930966961284889316, -9.305572039857779032 ) ) ;
#570 = AXIS2_PLACEMENT_3D ( 'NONE', #881, #13, #310 ) ;
#571 = DIRECTION ( 'NONE',  ( 0.000000000000000000, 0.000000000000000000, 1.000000000000000000 ) ) ;
#572 = CARTESIAN_POINT ( 'NONE',  ( -1.915809865456450378, 0.3643436103917565561, 10.26262629694837791 ) ) ;
#573 = DIRECTION ( 'NONE',  ( 0.000000000000000000, 0.000000000000000000, 1.000000000000000000 ) ) ;
#574 = CARTESIAN_POINT ( 'NONE',  ( -8.800000000000002487, 0.000000000000000000, -10.49999999999999822 ) ) ;
#575 = CARTESIAN_POINT ( 'NONE',  ( 6.104920058978143160, 0.3835309954718371661, -10.23998547879279464 ) ) ;
#576 = B_SPLINE_CURVE_WITH_KNOTS ( 'NONE', 3,
 ( #618, #247, #541, #175, #251, #109, #626, #690, #836, #169, #776, #467, #552, #830, #91, #95, #769, #382, #462, #394, #25, #847, #765, #913, #17, #315, #623, #544, #695, #98, #839, #470, #317, #178, #21, #547, #320, #480, #400, #8, #863, #713, #869, #705, #131, #196, #562, #581, #489, #36, #423, #495, #113, #726, #797, #803, #924, #405, #280, #941, #920, #345, #30, #126, #651, #207, #201, #721, #52, #874 ),
 .UNSPECIFIED., .F., .F.,
 ( 4, 2, 2, 1, 1, 2, 2, 2, 2, 2, 2, 2, 2, 1, 2, 2, 2, 2, 1, 2, 2, 2, 1, 1, 2, 2, 2, 1, 1, 2, 2, 2, 1, 2, 2, 2, 1, 1, 1, 2, 4 ),
 ( 0.000000000000000000, 0.03124999999999675260, 0.04687499999999518441, 0.05468749999999440031, 0.05859374999999399092, 0.06054687499999381051, 0.06249999999999363010, 0.09374999999999580891, 0.1093749999999972800, 0.1171874999999973216, 0.1249999999999973910, 0.1874999999999983347, 0.2187499999999993061, 0.2343749999999995282, 0.2421875000000000278, 0.2500000000000004996, 0.3750000000000081046, 0.4375000000000123790, 0.4687500000000150435, 0.4843750000000163758, 0.5000000000000177636, 0.5156250000000190958, 0.5312500000000205391, 0.5625000000000219824, 0.6250000000000263123, 0.7500000000000358602, 0.7578125000000354161, 0.7656250000000348610, 0.7812500000000345279, 0.8125000000000337508, 0.8750000000000318634, 0.8828125000000317524, 0.8906250000000315303, 0.9062500000000306422, 0.9375000000000277556, 0.9394531250000270894, 0.9414062500000263123, 0.9453125000000248690, 0.9531250000000214273, 0.9687500000000135447, 1.000000000000000000 ),
 .UNSPECIFIED. ) ;
#577 = EDGE_CURVE ( 'NONE', #540, #83, #157, .T. ) ;
#578 = CARTESIAN_POINT ( 'NONE',  ( 8.000000000000000000, 0.5000000000000000000, -9.666190378969041319 ) ) ;
#579 = ORIENTED_EDGE ( 'NONE', *, *, #781, .F. ) ;
#580 = CARTESIAN_POINT ( 'NONE',  ( 2.666666666666666963, 0.000000000000000000, -10.50000000000000000 ) ) ;
#581 = CARTESIAN_POINT ( 'NONE',  ( 7.121619660402535246, 0.4121647588329905854, 10.20222051440468825 ) ) ;
#582 = CARTESIAN_POINT ( 'NONE',  ( 8.000000000000001776, 0.1003396422356319373, 8.289322283241395084 ) ) ;
#583 = CARTESIAN_POINT ( 'NONE',  ( -8.000000000000001776, 0.1148611267034557043, 10.46663554967921250 ) ) ;
#584 = EDGE_LOOP ( 'NONE', ( #568, #915, #12 ) ) ;
#585 = CARTESIAN_POINT ( 'NONE',  ( -3.032418285031039051, 0.4835866444781541373, -10.07544022523616611 ) ) ;
#586 = PLANE ( 'NONE',  #84 ) ;
#587 = PRODUCT_DEFINITION ( 'General', '', #442, #556 ) ;
#588 = VECTOR ( 'NONE', #616, 1000.000000000000000 ) ;
#589 = DIRECTION ( 'NONE',  ( 0.000000000000000000, 1.000000000000000000, 0.000000000000000000 ) ) ;
#590 = CARTESIAN_POINT ( 'NONE',  ( 8.000000000000001776, 0.1148611267034902877, -10.46663554967921428 ) ) ;
#591 = ORIENTED_EDGE ( 'NONE', *, *, #781, .T. ) ;
#592 = CARTESIAN_POINT ( 'NONE',  ( -1.044579000703292460, 0.4697389594744189045, -10.10727334570354863 ) ) ;
#593 = VERTEX_POINT ( 'NONE', #142 ) ;
#594 = CARTESIAN_POINT ( 'NONE',  ( -3.166190378968595454, 0.5000000000000000000, 10.00000000000034994 ) ) ;
#595 = CARTESIAN_POINT ( 'NONE',  ( -8.000000000000005329, 0.02335838175964070201, 10.49960592128861059 ) ) ;
#596 = EDGE_LOOP ( 'NONE', ( #288, #295, #239, #530 ) ) ;
#597 = VERTEX_POINT ( 'NONE', #607 ) ;
#598 = DIRECTION ( 'NONE',  ( -0.000000000000000000, 1.000000000000000000, -0.000000000000000000 ) ) ;
#599 = CARTESIAN_POINT ( 'NONE',  ( 7.999999999999998224, 0.4909238374860002696, 10.06237587037153958 ) ) ;
#600 = CARTESIAN_POINT ( 'NONE',  ( -1.066375148738662793, 0.4657413304609110405, -10.11536176399582487 ) ) ;
#601 = FACE_OUTER_BOUND ( 'NONE', #535, .T. ) ;
#602 = CARTESIAN_POINT ( 'NONE',  ( 0.000000000000000000, 0.5000000000000000000, 0.000000000000000000 ) ) ;
#603 = B_SPLINE_CURVE_WITH_KNOTS ( 'NONE', 3,
 ( #634, #532, #897, #615, #823, #370, #963, #300, #375, #605, #630, #31, #818, #156, #328, #683, #756, #463, #9, #921, #152, #161 ),
 .UNSPECIFIED., .F., .F.,
 ( 4, 1, 1, 1, 2, 2, 2, 2, 1, 1, 1, 2, 2, 4 ),
 ( 0.000000000000000000, 0.1249999999999845679, 0.1874999999999769074, 0.2187499999999730771, 0.2343749999999736600, 0.2499999999999742428, 0.3749999999999790168, 0.4999999999999837907, 0.6249999999999885647, 0.6874999999999887867, 0.7187499999999890088, 0.7343749999999890088, 0.7499999999999891198, 1.000000000000000000 ),
 .UNSPECIFIED. ) ;
#604 = AXIS2_PLACEMENT_3D ( 'NONE', #936, #868, #200 ) ;
#605 = CARTESIAN_POINT ( 'NONE',  ( -7.999999999999998224, 0.3998303470537422633, -10.21992041594888789 ) ) ;
#606 = CARTESIAN_POINT ( 'NONE',  ( -3.070580795311783628, 0.4898666912103925575, 10.05740430745369984 ) ) ;
#607 = CARTESIAN_POINT ( 'NONE',  ( -1.999999999999998668, -0.3999999999999988565, 9.499999999999994671 ) ) ;
#608 = DIRECTION ( 'NONE',  ( -0.000000000000000000, 1.000000000000000000, -0.000000000000000000 ) ) ;
#609 = CARTESIAN_POINT ( 'NONE',  ( 7.537501117510389648, 0.4844569821206725080, -10.07314142892582964 ) ) ;
#610 = ADVANCED_FACE ( 'NONE', ( #85, #155 ), #368, .F. ) ;
#611 = CARTESIAN_POINT ( 'NONE',  ( -1.999999999999998668, -0.3999999999999988565, -8.500000000000000000 ) ) ;
#612 = ORIENTED_EDGE ( 'NONE', *, *, #22, .F. ) ;
#613 = CARTESIAN_POINT ( 'NONE',  ( 8.000000000000000000, -0.5000000000000000000, 10.49999999999999822 ) ) ;
#614 = B_SPLINE_CURVE_WITH_KNOTS ( 'NONE', 3,
 ( #704, #851, #483, #783, #112, #404, #488, #712, #856, #788, #929, #409, #40, #268, #592, #600, #428, #742, #136, #141, #668, #439, #219, #450, #960, #890, #940, #130, #735, #299, #747, #956, #153, #69, #61, #434, #296, #356, #886, #206, #362, #503, #57, #662, #952, #349, #802, #73, #366, #289, #873, #510, #878, #751, #671, #225, #518, #585, #284, #213, #731, #814 ),
 .UNSPECIFIED., .F., .F.,
 ( 4, 2, 2, 1, 1, 2, 2, 2, 2, 2, 2, 2, 2, 1, 2, 2, 2, 2, 2, 1, 1, 2, 2, 2, 2, 1, 2, 2, 2, 2, 1, 1, 2, 2, 4 ),
 ( 0.000000000000000000, 0.03125000000000858341, 0.04687500000001345452, 0.05468750000001588313, 0.05859375000001709050, 0.06054687500001731948, 0.06250000000001754152, 0.09375000000001917910, 0.1093750000000194983, 0.1171875000000193456, 0.1250000000000192069, 0.1875000000000184019, 0.2187500000000184297, 0.2343750000000185685, 0.2421875000000186517, 0.2500000000000187073, 0.5000000000000192069, 0.6250000000000195399, 0.6875000000000196509, 0.7187500000000195399, 0.7343750000000195399, 0.7421875000000194289, 0.7500000000000193179, 0.8125000000000139888, 0.8437500000000109912, 0.8593750000000095479, 0.8671875000000086597, 0.8750000000000078826, 0.9062500000000036637, 0.9218750000000019984, 0.9296875000000007772, 0.9335937500000012212, 0.9355468750000011102, 0.9375000000000008882, 1.000000000000000000 ),
 .UNSPECIFIED. ) ;
#615 = CARTESIAN_POINT ( 'NONE',  ( -8.000000000000001776, 0.4666355496791950164, -10.11486112670350579 ) ) ;
#616 = DIRECTION ( 'NONE',  ( -1.000000000000000000, 0.000000000000000000, 2.168404344971008868E-16 ) ) ;
#617 = ORIENTED_EDGE ( 'NONE', *, *, #534, .T. ) ;
#618 = CARTESIAN_POINT ( 'NONE',  ( 5.333809621032666648, 0.5000000000000000000, 10.00000000000133227 ) ) ;
#619 = ADVANCED_FACE ( 'NONE', ( #962 ), #659, .T. ) ;
#620 = AXIS2_PLACEMENT_3D ( 'NONE', #281, #658, #571 ) ;
#621 = CARTESIAN_POINT ( 'NONE',  ( 8.000000000000000000, -0.5000000000000000000, 10.49999999999999822 ) ) ;
#622 = VERTEX_POINT ( 'NONE', #358 ) ;
#623 = CARTESIAN_POINT ( 'NONE',  ( 5.887477838179685286, 0.4108097606904829724, 10.20407542279371071 ) ) ;
#624 = CARTESIAN_POINT ( 'NONE',  ( 8.000000000000000000, -0.5000000000000000000, 10.49999999999999822 ) ) ;
#625 = ORIENTED_EDGE ( 'NONE', *, *, #464, .T. ) ;
#626 = CARTESIAN_POINT ( 'NONE',  ( 5.439895624959796727, 0.4882200285372229054, 10.06258319702891058 ) ) ;
#627 = CARTESIAN_POINT ( 'NONE',  ( -3.034346316120366538, 0.4839178155314005081, 10.07457128121872358 ) ) ;
#628 = ORIENTED_EDGE ( 'NONE', *, *, #879, .F. ) ;
#629 = CARTESIAN_POINT ( 'NONE',  ( -8.000000000000000000, 0.5000000000000000000, -9.999999999999984013 ) ) ;
#630 = CARTESIAN_POINT ( 'NONE',  ( -7.999999999999998224, 0.3605979029660345003, -10.26772102860880054 ) ) ;
#631 = CARTESIAN_POINT ( 'NONE',  ( -2.652950212077009429, 0.4169562329087412866, 10.19561352554401168 ) ) ;
#632 = CARTESIAN_POINT ( 'NONE',  ( 6.500000000000000888, -0.3999999999999988565, 8.500000000000000000 ) ) ;
#633 = CARTESIAN_POINT ( 'NONE',  ( 0.000000000000000000, -0.5000000000000000000, 0.000000000000000000 ) ) ;
#634 = CARTESIAN_POINT ( 'NONE',  ( -8.000000000000000000, 0.5000000000000000000, -9.999999999999984013 ) ) ;
#635 = CARTESIAN_POINT ( 'NONE',  ( -0.8970068556710627528, 0.4946170889897154588, 10.04049966396689619 ) ) ;
#636 = VERTEX_POINT ( 'NONE', #954 ) ;
#637 = FACE_OUTER_BOUND ( 'NONE', #800, .T. ) ;
#638 = CARTESIAN_POINT ( 'NONE',  ( 5.471703742302029383, 0.4828732439774686136, -10.07728384691397494 ) ) ;
#639 = CARTESIAN_POINT ( 'NONE',  ( -1.219247766455577198, 0.4380189187746551527, 10.16468877310880181 ) ) ;
#640 = CARTESIAN_POINT ( 'NONE',  ( 8.000000000000000000, 0.000000000000000000, 10.49999999999999822 ) ) ;
#641 = CARTESIAN_POINT ( 'NONE',  ( 8.000000000000000000, 0.5000000000000000000, -9.666190378969041319 ) ) ;
#642 = CARTESIAN_POINT ( 'NONE',  ( 5.469204845925445646, 0.4833062918706299005, -10.07616772922111004 ) ) ;
#643 = CARTESIAN_POINT ( 'NONE',  ( -1.292189562584194151, 0.4257514655930811354, 10.18314737997951092 ) ) ;
#644 = VERTEX_POINT ( 'NONE', #520 ) ;
#645 = CARTESIAN_POINT ( 'NONE',  ( 8.000000000000000000, 0.1464554639505510625, -8.917006463909045166 ) ) ;
#646 = STYLED_ITEM ( 'NONE', ( #759 ), #667 ) ;
#647 = AXIS2_PLACEMENT_3D ( 'NONE', #285, #807, #137 ) ;
#648 = CARTESIAN_POINT ( 'NONE',  ( -1.999999999999998668, -0.3999999999999988565, -8.500000000000000000 ) ) ;
#649 = DIRECTION ( 'NONE',  ( 0.000000000000000000, 0.000000000000000000, 1.000000000000000000 ) ) ;
#650 = CARTESIAN_POINT ( 'NONE',  ( 7.777460252004329000, 0.5000000000000000000, 9.999999999999998224 ) ) ;
#651 = CARTESIAN_POINT ( 'NONE',  ( 7.560388696949821963, 0.4882669360782995738, 10.06244672141987095 ) ) ;
#652 = CARTESIAN_POINT ( 'NONE',  ( 5.359488373448041187, 0.4999999999999995559, -10.01996420927214615 ) ) ;
#653 = CARTESIAN_POINT ( 'NONE',  ( 8.000000000000000000, 0.5000000000000000000, 9.999999999999998224 ) ) ;
#654 = VERTEX_POINT ( 'NONE', #594 ) ;
#655 = FACE_OUTER_BOUND ( 'NONE', #778, .T. ) ;
#656 = CARTESIAN_POINT ( 'NONE',  ( 8.000000000000000000, 0.5000000000000000000, -7.333809621030945358 ) ) ;
#657 = B_SPLINE_CURVE_WITH_KNOTS ( 'NONE', 3,
 ( #331, #108, #716, #846 ),
 .UNSPECIFIED., .F., .F.,
 ( 4, 4 ),
 ( 0.000000000000000000, 1.000000000000000000 ),
 .UNSPECIFIED. ) ;
#658 = DIRECTION ( 'NONE',  ( -0.000000000000000000, -1.000000000000000000, -0.000000000000000000 ) ) ;
#659 =( BOUNDED_SURFACE ( )  B_SPLINE_SURFACE ( 2, 3, ( 
 ( #364, #75, #292, #138 ),
 ( #737, #812, #63, #373 ),
 ( #682, #664, #456, #151 ) ),
 .UNSPECIFIED., .F., .F., .T. ) 
 B_SPLINE_SURFACE_WITH_KNOTS ( ( 3, 3 ),
 ( 4, 4 ),
 ( 0.000000000000000000, 1.000000000000000000 ),
 ( -0.008800000000000002265, 0.008799999999999998795 ),
 .UNSPECIFIED. ) 
 GEOMETRIC_REPRESENTATION_ITEM ( )  RATIONAL_B_SPLINE_SURFACE ( (
 ( 1.000000000000000000, 1.000000000000000000, 1.000000000000000000, 1.000000000000000000),
 ( 0.3535533905932739529, 0.3535533905932739529, 0.3535533905932739529, 0.3535533905932739529),
 ( 1.000000000000000000, 1.000000000000000000, 1.000000000000000000, 1.000000000000000000) ) ) 
 REPRESENTATION_ITEM ( '' )  SURFACE ( )  );
#660 = CARTESIAN_POINT ( 'NONE',  ( -8.000000000000001776, 0.1959767146346534372, 10.41739490599976392 ) ) ;
#661 = VERTEX_POINT ( 'NONE', #215 ) ;
#662 = CARTESIAN_POINT ( 'NONE',  ( -2.782094331251290242, 0.4383556563806316753, -10.16392428371469769 ) ) ;
#663 = CARTESIAN_POINT ( 'NONE',  ( 6.500000000000000888, -0.5000000000000000000, 9.500000000000000000 ) ) ;
#664 = CARTESIAN_POINT ( 'NONE',  ( -2.933333333333330462, 0.000000000000000000, 10.50000000000000000 ) ) ;
#665 = CARTESIAN_POINT ( 'NONE',  ( 8.000000000000000000, 0.2199204159487424259, -10.39983034705384490 ) ) ;
#666 = ORIENTED_EDGE ( 'NONE', *, *, #395, .T. ) ;
#667 = MANIFOLD_SOLID_BREP ( 'Fillet1', #831 ) ;
#668 = CARTESIAN_POINT ( 'NONE',  ( -1.219163853284734866, 0.4380323359123184379, -10.16465768231228850 ) ) ;
#669 = VERTEX_POINT ( 'NONE', #149 ) ;
#670 = CARTESIAN_POINT ( 'NONE',  ( -8.000000000000000000, 0.4991960330293858106, 10.04765235482291885 ) ) ;
#671 = CARTESIAN_POINT ( 'NONE',  ( -3.022015567919626999, 0.4817751616798373049, -10.08006006397477528 ) ) ;
#672 = LINE ( 'NONE', #229, #832 ) ;
#673 = CARTESIAN_POINT ( 'NONE',  ( 5.333809623567820957, 0.5000000000000000000, -10.00000000197231387 ) ) ;
#674 = CARTESIAN_POINT ( 'NONE',  ( 7.541364324915898365, 0.4851114249787493726, -10.07137195919764139 ) ) ;
#675 = CARTESIAN_POINT ( 'NONE',  ( -3.153333794073896801, 0.4999999999999980571, 10.00999548374073811 ) ) ;
#676 = LINE ( 'NONE', #528, #390 ) ;
#677 = FILL_AREA_STYLE_COLOUR ( '', #521 ) ;
#678 = EDGE_CURVE ( 'NONE', #560, #829, #819, .T. ) ;
#679 = DIRECTION ( 'NONE',  ( 0.000000000000000000, 1.000000000000000000, 0.000000000000000000 ) ) ;
#680 = CARTESIAN_POINT ( 'NONE',  ( 0.000000000000000000, 0.5000000000000000000, 0.000000000000000000 ) ) ;
#681 = ORIENTED_EDGE ( 'NONE', *, *, #523, .F. ) ;
#682 = CARTESIAN_POINT ( 'NONE',  ( -8.800000000000000711, 0.000000000000000000, 10.50000000000000178 ) ) ;
#683 = CARTESIAN_POINT ( 'NONE',  ( -8.000000000000000000, 0.1939165343375755246, -10.41810415538934542 ) ) ;
#684 = PRODUCT_RELATED_PRODUCT_CATEGORY ( 'part', '', ( #471 ) ) ;
#685 = DIRECTION ( 'NONE',  ( 0.000000000000000000, 1.000000000000000000, 0.000000000000000000 ) ) ;
#686 = ORIENTED_EDGE ( 'NONE', *, *, #697, .T. ) ;
#687 = CARTESIAN_POINT ( 'NONE',  ( -6.388730126322590408, 0.5000000000000000000, -9.999999999999998224 ) ) ;
#688 = LINE ( 'NONE', #533, #326 ) ;
#689 = VERTEX_POINT ( 'NONE', #744 ) ;
#690 = CARTESIAN_POINT ( 'NONE',  ( 5.452896641016724111, 0.4860772559503560020, 10.06872303523243417 ) ) ;
#691 = AXIS2_PLACEMENT_3D ( 'NONE', #228, #524, #820 ) ;
#692 = AXIS2_PLACEMENT_3D ( 'NONE', #372, #896, #891 ) ;
#693 = PLANE ( 'NONE',  #192 ) ;
#694 = ORIENTED_EDGE ( 'NONE', *, *, #564, .T. ) ;
#695 = CARTESIAN_POINT ( 'NONE',  ( 6.002077832793681011, 0.3941248165951036775, 10.22690399775028958 ) ) ;
#696 = EDGE_CURVE ( 'NONE', #947, #947, #745, .T. ) ;
#697 = EDGE_CURVE ( 'NONE', #290, #290, #272, .T. ) ;
#698 = CARTESIAN_POINT ( 'NONE',  ( -2.910041866970357827, 0.4614069911917440536, 10.12380089645046333 ) ) ;
#699 = ORIENTED_EDGE ( 'NONE', *, *, #147, .T. ) ;
#700 = CYLINDRICAL_SURFACE ( 'NONE', #376, 0.9999999999999940048 ) ;
#701 = CARTESIAN_POINT ( 'NONE',  ( 8.000000000000000000, 0.5000000000000000000, -9.999999999999991118 ) ) ;
#702 = CARTESIAN_POINT ( 'NONE',  ( -2.244841015228729919, 0.3711829826092193363, 10.25489721906271079 ) ) ;
#703 = ORIENTED_EDGE ( 'NONE', *, *, #87, .T. ) ;
#704 = CARTESIAN_POINT ( 'NONE',  ( -0.8338096210321070956, 0.5000000000000000000, -10.00000000000089884 ) ) ;
#705 = CARTESIAN_POINT ( 'NONE',  ( 6.894497248840667503, 0.3825750887267829747, 10.24127381118043090 ) ) ;
#706 = CARTESIAN_POINT ( 'NONE',  ( 8.000000000000000000, 0.4026843235906171214, -10.21546826206500391 ) ) ;
#707 = ADVANCED_FACE ( 'NONE', ( #236 ), #753, .T. ) ;
#708 = CONICAL_SURFACE ( 'NONE', #951, 0.9999999999999931166, 0.7853981633974482790 ) ;
#709 = CARTESIAN_POINT ( 'NONE',  ( -0.9152474869215390108, 0.4920938494536450936, 10.05039438000869900 ) ) ;
#710 = EDGE_CURVE ( 'NONE', #636, #661, #531, .T. ) ;
#711 = CIRCLE ( 'NONE', #327, 0.9999999999999940048 ) ;
#712 = CARTESIAN_POINT ( 'NONE',  ( -0.9528966410549406518, 0.4860772559441666751, -10.06872303525050683 ) ) ;
#713 = CARTESIAN_POINT ( 'NONE',  ( 6.669632076349519600, 0.3668411011940225785, 10.25987288100346895 ) ) ;
#714 = DIRECTION ( 'NONE',  ( 0.000000000000000000, 0.000000000000000000, 1.000000000000000000 ) ) ;
#715 = ORIENTED_EDGE ( 'NONE', *, *, #105, .F. ) ;
#716 = CARTESIAN_POINT ( 'NONE',  ( -4.777460252645547634, 0.5000000000000000000, 10.00000000000000178 ) ) ;
#717 = CARTESIAN_POINT ( 'NONE',  ( 6.306113129614151269, 0.3673160366933658771, -10.25951742538235756 ) ) ;
#718 = CARTESIAN_POINT ( 'NONE',  ( -2.968525206103099112, 0.4721346772883138199, 10.10218641371420567 ) ) ;
#719 = EDGE_LOOP ( 'NONE', ( #768 ) ) ;
#720 = CARTESIAN_POINT ( 'NONE',  ( 7.666190378969043095, 0.5000000000000000000, -10.00000000000000355 ) ) ;
#721 = CARTESIAN_POINT ( 'NONE',  ( 7.635992411416826720, 0.4986542722383721093, 10.02152752048704265 ) ) ;
#722 = CARTESIAN_POINT ( 'NONE',  ( 8.000000000000000000, 0.5000000000000000000, 7.333809621030953352 ) ) ;
#723 = EDGE_CURVE ( 'NONE', #319, #385, #443, .T. ) ;
#724 = CARTESIAN_POINT ( 'NONE',  ( 8.000000000000000000, 0.1783572080273627125, 10.42870347607066250 ) ) ;
#725 = CARTESIAN_POINT ( 'NONE',  ( 7.888730126323011405, 0.5000000000000000000, -10.00000000000000178 ) ) ;
#726 = CARTESIAN_POINT ( 'NONE',  ( 7.400927238690031551, 0.4597296805317497848, 10.12695517366241660 ) ) ;
#727 = AXIS2_PLACEMENT_3D ( 'NONE', #49, #959, #649 ) ;
#728 = CARTESIAN_POINT ( 'NONE',  ( 5.677519921497666822, 0.4454897243555877018, -10.15213493836260561 ) ) ;
#729 = CARTESIAN_POINT ( 'NONE',  ( 8.000000000000003553, 0.4383160177894162013, 10.16353820303979383 ) ) ;
#730 = ORIENTED_EDGE ( 'NONE', *, *, #117, .F. ) ;
#731 = CARTESIAN_POINT ( 'NONE',  ( -3.140511627729585253, 0.5000000000000002220, -10.01996420842624502 ) ) ;
#732 = CARTESIAN_POINT ( 'NONE',  ( 5.902559825222679635, 0.4086074484689490305, -10.20708788981899673 ) ) ;
#733 = CARTESIAN_POINT ( 'NONE',  ( -8.000000000000003553, 0.2677210286086076363, 10.36059790296618743 ) ) ;
#734 = EDGE_LOOP ( 'NONE', ( #694, #309, #775, #181, #872, #194, #389, #212, #7, #950 ) ) ;
#735 = CARTESIAN_POINT ( 'NONE',  ( -1.607131314852402904, 0.3788375519111676915, -10.24782076039317325 ) ) ;
#736 = VERTEX_POINT ( 'NONE', #446 ) ;
#737 = CARTESIAN_POINT ( 'NONE',  ( -8.800000000000000711, 0.5000000000000000000, 10.50000000000000178 ) ) ;
#738 = CARTESIAN_POINT ( 'NONE',  ( 8.000000000000001776, 0.1428449681073828414, -10.45095160826652148 ) ) ;
#739 = ORIENTED_EDGE ( 'NONE', *, *, #395, .F. ) ;
#740 = EDGE_CURVE ( 'NONE', #195, #772, #529, .T. ) ;
#741 = AXIS2_PLACEMENT_3D ( 'NONE', #602, #589, #893 ) ;
#742 = CARTESIAN_POINT ( 'NONE',  ( -1.089958133053782419, 0.4614069911876828023, -10.12380089645929004 ) ) ;
#743 = CONICAL_SURFACE ( 'NONE', #604, 0.9999999999999940048, 0.7853981633974482790 ) ;
#744 = CARTESIAN_POINT ( 'NONE',  ( -8.000000000000000000, -0.5000000000000000000, 10.50000000000000178 ) ) ;
#745 = CIRCLE ( 'NONE', #101, 0.9999999999999991118 ) ;
#746 = CARTESIAN_POINT ( 'NONE',  ( -8.000000000000000000, 0.2926930421709102448, 10.33781931580063151 ) ) ;
#747 = CARTESIAN_POINT ( 'NONE',  ( -2.095855473214920828, 0.3635065414109808213, -10.26352737364267043 ) ) ;
#748 = CARTESIAN_POINT ( 'NONE',  ( 8.000000000000000000, -0.5000000000000000000, -10.50000000000000178 ) ) ;
#749 = FILL_AREA_STYLE ('',( #677 ) ) ;
#750 = CARTESIAN_POINT ( 'NONE',  ( 7.666190378969043095, 0.5000000000000000000, -10.00000000000000355 ) ) ;
#751 = CARTESIAN_POINT ( 'NONE',  ( -3.015859000698561498, 0.4806837119750843601, -10.08272691441490743 ) ) ;
#752 = CARTESIAN_POINT ( 'NONE',  ( 0.000000000000000000, 0.000000000000000000, 0.000000000000000000 ) ) ;
#753 = PLANE ( 'NONE',  #741 ) ;
#754 = ADVANCED_FACE ( 'NONE', ( #391 ), #916, .T. ) ;
#755 = ADVANCED_FACE ( 'NONE', ( #386, #240 ), #700, .F. ) ;
#756 = CARTESIAN_POINT ( 'NONE',  ( -8.000000000000000000, 0.1845926022038875125, -10.42449303096678825 ) ) ;
#757 = FACE_OUTER_BOUND ( 'NONE', #274, .T. ) ;
#758 = ORIENTED_EDGE ( 'NONE', *, *, #710, .F. ) ;
#759 = PRESENTATION_STYLE_ASSIGNMENT (( #816 ) ) ;
#760 = VECTOR ( 'NONE', #234, 1000.000000000000000 ) ;
#761 = AXIS2_PLACEMENT_3D ( 'NONE', #452, #598, #447 ) ;
#762 = CARTESIAN_POINT ( 'NONE',  ( 7.602845879126284956, 0.4945955686558785036, -10.04057890889359861 ) ) ;
#763 = CARTESIAN_POINT ( 'NONE',  ( 8.000000000000000000, 0.000000000000000000, 10.49999999999999822 ) ) ;
#764 = ORIENTED_EDGE ( 'NONE', *, *, #565, .F. ) ;
#765 = CARTESIAN_POINT ( 'NONE',  ( 5.814680014387057838, 0.4220755287127060384, 10.18842316090086264 ) ) ;
#766 = CARTESIAN_POINT ( 'NONE',  ( 8.000000000000000000, 0.2926930421709321162, -10.33781931580061197 ) ) ;
#767 = CARTESIAN_POINT ( 'NONE',  ( 8.000000000000000000, 0.5000000000000000000, 10.49999999999999822 ) ) ;
#768 = ORIENTED_EDGE ( 'NONE', *, *, #697, .F. ) ;
#769 = CARTESIAN_POINT ( 'NONE',  ( 5.573997161741870876, 0.4643414454228512733, 10.11813390445719207 ) ) ;
#770 = CARTESIAN_POINT ( 'NONE',  ( -8.000000000000000000, 0.000000000000000000, 10.50000000000000178 ) ) ;
#771 = ADVANCED_FACE ( 'NONE', ( #900 ), #165, .T. ) ;
#772 = VERTEX_POINT ( 'NONE', #245 ) ;
#773 = CARTESIAN_POINT ( 'NONE',  ( 6.500000000000000888, 0.5000000000000000000, 8.500000000000000000 ) ) ;
#774 = DIRECTION ( 'NONE',  ( 0.000000000000000000, 0.000000000000000000, -1.000000000000000000 ) ) ;
#775 = ORIENTED_EDGE ( 'NONE', *, *, #22, .T. ) ;
#776 = CARTESIAN_POINT ( 'NONE',  ( 5.465653683837404131, 0.4839178155386203439, 10.07457128119961887 ) ) ;
#777 = CARTESIAN_POINT ( 'NONE',  ( -2.780836146660223385, 0.4380323359044192011, 10.16465768232937528 ) ) ;
#778 = EDGE_LOOP ( 'NONE', ( #361, #487, #546 ) ) ;
#779 = DIRECTION ( 'NONE',  ( 0.000000000000000000, 0.000000000000000000, 1.000000000000000000 ) ) ;
#780 = DIRECTION ( 'NONE',  ( 0.000000000000000000, 0.000000000000000000, 1.000000000000000000 ) ) ;
#781 = EDGE_CURVE ( 'NONE', #475, #622, #576, .T. ) ;
#782 = CARTESIAN_POINT ( 'NONE',  ( -1.326679522161051228, 0.4201175701410068131, 10.19123902441127960 ) ) ;
#783 = CARTESIAN_POINT ( 'NONE',  ( -0.8971541209569020570, 0.4945955686454976963, -10.04057890894052285 ) ) ;
#784 = CARTESIAN_POINT ( 'NONE',  ( -8.800000000000002487, 0.5000000000000000000, -10.49999999999999822 ) ) ;
#785 = CARTESIAN_POINT ( 'NONE',  ( 8.000000000000000000, 0.3906187892846586518, 9.487982511619918569 ) ) ;
#786 = CIRCLE ( 'NONE', #727, 0.9999999999999940048 ) ;
#787 = CARTESIAN_POINT ( 'NONE',  ( -2.085002783114383806, 0.3643624703461020853, 10.26260621708834186 ) ) ;
#788 = CARTESIAN_POINT ( 'NONE',  ( -0.9624988826654515828, 0.4844569820908158908, -10.07314142900603748 ) ) ;
#789 = FACE_BOUND ( 'NONE', #555, .T. ) ;
#790 = CARTESIAN_POINT ( 'NONE',  ( 5.717905670956958453, 0.4383556559923220131, -10.16392428432183337 ) ) ;
#791 = CARTESIAN_POINT ( 'NONE',  ( -1.099072760664125514, 0.4597296806507265021, 10.12695517344083918 ) ) ;
#792 = FACE_OUTER_BOUND ( 'NONE', #421, .T. ) ;
#793 = CARTESIAN_POINT ( 'NONE',  ( 8.800000000000000711, 0.5000000000000000000, -10.50000000000000178 ) ) ;
#794 = CARTESIAN_POINT ( 'NONE',  ( 7.122317966229590347, 0.4122691907133791966, -10.20207650368464947 ) ) ;
#795 = CARTESIAN_POINT ( 'NONE',  ( -1.391262688061346120, 0.4102494156063674069, 10.20484185315176617 ) ) ;
#796 = ORIENTED_EDGE ( 'NONE', *, *, #907, .T. ) ;
#797 = CARTESIAN_POINT ( 'NONE',  ( 7.410517402650659058, 0.4614949179106823118, 10.12363496539935248 ) ) ;
#798 = CARTESIAN_POINT ( 'NONE',  ( 5.656845659038060248, 0.4491816160171491212, -10.14588477391857957 ) ) ;
#799 = CARTESIAN_POINT ( 'NONE',  ( 8.000000000000001776, 0.2926016233684896051, 10.33808987046156425 ) ) ;
#800 = EDGE_LOOP ( 'NONE', ( #883, #427, #758, #262 ) ) ;
#801 = AXIS2_PLACEMENT_3D ( 'NONE', #919, #862, #263 ) ;
#802 = CARTESIAN_POINT ( 'NONE',  ( -2.864537136253429761, 0.4530607943627571466, -10.13904409884609770 ) ) ;
#803 = CARTESIAN_POINT ( 'NONE',  ( 7.426424939525152702, 0.4644196954023588342, 10.11798230646066976 ) ) ;
#804 = CARTESIAN_POINT ( 'NONE',  ( 8.000000000000000000, 0.1519119508944785368, 8.910318222202272764 ) ) ;
#805 = CARTESIAN_POINT ( 'NONE',  ( 8.000000000000000000, 0.1050165730629552402, 10.47680960411371665 ) ) ;
#806 = ORIENTED_EDGE ( 'NONE', *, *, #550, .F. ) ;
#807 = DIRECTION ( 'NONE',  ( -0.000000000000000000, 1.000000000000000000, -0.000000000000000000 ) ) ;
#808 = EDGE_CURVE ( 'NONE', #772, #946, #332, .T. ) ;
#809 = CARTESIAN_POINT ( 'NONE',  ( -8.000000000000000000, 0.1635382030397775910, 10.43831601778941831 ) ) ;
#810 = ORIENTED_EDGE ( 'NONE', *, *, #417, .F. ) ;
#811 = CARTESIAN_POINT ( 'NONE',  ( -1.999999999999998668, -0.5000000000000000000, -7.500000000000001776 ) ) ;
#812 = CARTESIAN_POINT ( 'NONE',  ( -2.933333333333333126, 0.5000000000000000000, 10.50000000000000178 ) ) ;
#813 = CARTESIAN_POINT ( 'NONE',  ( 8.000000000000000000, 0.2154682620650619496, 10.40268432359053286 ) ) ;
#814 = CARTESIAN_POINT ( 'NONE',  ( -3.166190378968249508, 0.5000000000000000000, -10.00000000000061995 ) ) ;
#815 = VECTOR ( 'NONE', #55, 1000.000000000000000 ) ;
#816 = SURFACE_STYLE_USAGE ( .BOTH. , #226 ) ;
#817 = VECTOR ( 'NONE', #484, 1000.000000000000000 ) ;
#818 = CARTESIAN_POINT ( 'NONE',  ( -8.000000000000000000, 0.2926016233684167744, -10.33808987046161931 ) ) ;
#819 = B_SPLINE_CURVE_WITH_KNOTS ( 'NONE', 3,
 ( #673, #221, #436, #516 ),
 .UNSPECIFIED., .F., .F.,
 ( 4, 4 ),
 ( 0.000000000000000000, 1.000000000000000000 ),
 .UNSPECIFIED. ) ;
#820 = DIRECTION ( 'NONE',  ( 0.000000000000000000, -0.000000000000000000, 1.000000000000000000 ) ) ;
#821 = CARTESIAN_POINT ( 'NONE',  ( 7.999999999999998224, 0.09983313681268224382, -8.398309524289999217 ) ) ;
#822 = ADVANCED_FACE ( 'NONE', ( #499, #789, #505, #264, #637 ), #325, .F. ) ;
#823 = CARTESIAN_POINT ( 'NONE',  ( -8.000000000000001776, 0.4509516082665142034, -10.14284496810739178 ) ) ;
#824 = DIRECTION ( 'NONE',  ( 0.000000000000000000, -0.000000000000000000, 1.000000000000000000 ) ) ;
#825 = VERTEX_POINT ( 'NONE', #46 ) ;
#826 = CARTESIAN_POINT ( 'NONE',  ( 8.000000000000000000, -0.5000000000000000000, 10.49999999999999822 ) ) ;
#827 = CARTESIAN_POINT ( 'NONE',  ( 8.000000000000000000, 0.4287034760706738279, -10.17835720802735189 ) ) ;
#828 = FACE_OUTER_BOUND ( 'NONE', #596, .T. ) ;
#829 = VERTEX_POINT ( 'NONE', #183 ) ;
#830 = CARTESIAN_POINT ( 'NONE',  ( 5.531474793864713746, 0.4721346772948433190, 10.10218641370234494 ) ) ;
#831 = CLOSED_SHELL ( 'NONE', ( #146, #707, #771, #865, #754, #223, #822, #291, #933, #610, #755, #54, #11, #106, #330, #322, #845, #619 ) ) ;
#832 = VECTOR ( 'NONE', #519, 1000.000000000000000 ) ;
#833 = CARTESIAN_POINT ( 'NONE',  ( 7.426002838445978860, 0.4643414454582964757, -10.11813390439041527 ) ) ;
#834 = CARTESIAN_POINT ( 'NONE',  ( 7.666190378969043095, 0.5000000000000000000, -10.00000000000000355 ) ) ;
#835 = EDGE_LOOP ( 'NONE', ( #739, #494, #810, #715, #579, #187, #125, #730 ) ) ;
#836 = CARTESIAN_POINT ( 'NONE',  ( 5.458635675214535077, 0.4851114249567677339, 10.07137195925770712 ) ) ;
#837 = CARTESIAN_POINT ( 'NONE',  ( 8.000000000000000000, -0.5000000000000000000, 10.49999999999999822 ) ) ;
#838 = ORIENTED_EDGE ( 'NONE', *, *, #208, .T. ) ;
#839 = CARTESIAN_POINT ( 'NONE',  ( 6.255158984452555693, 0.3711829826288515766, 10.25489721903761442 ) ) ;
#840 = B_SPLINE_CURVE_WITH_KNOTS ( 'NONE', 3,
 ( #911, #675, #312, #1, #93, #606, #895, #408, #180, #334, #627, #486, #193, #718, #121, #497, #323, #698, #107, #43, #777, #318, #918, #631, #866, #492, #849, #329, #27, #398, #702, #914, #38, #787, #252, #844, #859, #338, #198, #23, #572, #34, #412, #186, #559, #795, #482, #266, #566, #782, #643, #639, #257, #791, #927, #392, #935, #111, #554, #403, #273, #116, #548, #176, #477, #709, #635, #922, #261, #855 ),
 .UNSPECIFIED., .F., .F.,
 ( 4, 2, 2, 1, 1, 2, 2, 2, 2, 2, 2, 2, 2, 1, 2, 2, 2, 2, 1, 2, 2, 2, 1, 1, 2, 2, 2, 1, 1, 2, 2, 2, 1, 2, 2, 2, 1, 1, 1, 2, 4 ),
 ( 0.000000000000000000, 0.03124999999998686467, 0.04687499999998029354, 0.05468749999997719879, 0.05859374999997549877, 0.06054687499997497141, 0.06249999999997445099, 0.09374999999997665756, 0.1093749999999775180, 0.1171874999999777539, 0.1249999999999779898, 0.1874999999999788503, 0.2187499999999790168, 0.2343749999999785727, 0.2421874999999780176, 0.2499999999999774625, 0.3749999999999709122, 0.4374999999999673039, 0.4687499999999658606, 0.4843749999999650835, 0.4999999999999643618, 0.5156249999999635847, 0.5312499999999628075, 0.5624999999999612532, 0.6249999999999588107, 0.7499999999999535927, 0.7578124999999534817, 0.7656249999999532596, 0.7812499999999528155, 0.8124999999999520384, 0.8749999999999500400, 0.8828124999999500400, 0.8906249999999499289, 0.9062499999999492628, 0.9374999999999485967, 0.9394531249999501510, 0.9414062499999518163, 0.9453124999999550360, 0.9531249999999613642, 0.9687499999999742428, 1.000000000000000000 ),
 .UNSPECIFIED. ) ;
#841 = DIRECTION ( 'NONE',  ( 0.000000000000000000, 1.000000000000000000, 0.000000000000000000 ) ) ;
#842 = EDGE_LOOP ( 'NONE', ( #493 ) ) ;
#843 = CARTESIAN_POINT ( 'NONE',  ( -8.000000000000000000, -0.5000000000000000000, 10.50000000000000178 ) ) ;
#844 = CARTESIAN_POINT ( 'NONE',  ( -2.024474213275585743, 0.3635798837164833652, 10.26345148846619182 ) ) ;
#845 = ADVANCED_FACE ( 'NONE', ( #259 ), #431, .T. ) ;
#846 = CARTESIAN_POINT ( 'NONE',  ( -3.166190378968595454, 0.5000000000000000000, 10.00000000000034994 ) ) ;
#847 = CARTESIAN_POINT ( 'NONE',  ( 5.791778003232207261, 0.4258177285366300246, 10.18304451396637056 ) ) ;
#848 = DIRECTION ( 'NONE',  ( -0.000000000000000000, -1.000000000000000000, -0.000000000000000000 ) ) ;
#849 = CARTESIAN_POINT ( 'NONE',  ( -2.612522161635393747, 0.4108097606630595755, 10.20407542283103020 ) ) ;
#850 = EDGE_LOOP ( 'NONE', ( #796 ) ) ;
#851 = CARTESIAN_POINT ( 'NONE',  ( -0.8466662059260080531, 0.4999999999999975020, -10.00999548374065640 ) ) ;
#852 = CARTESIAN_POINT ( 'NONE',  ( -2.933333333333336235, 0.5000000000000000000, -9.999999999999998224 ) ) ;
#853 = EDGE_CURVE ( 'NONE', #385, #557, #419, .T. ) ;
#854 = CARTESIAN_POINT ( 'NONE',  ( 8.000000000000000000, 0.1816978701578875477, 9.009915718908491300 ) ) ;
#855 = CARTESIAN_POINT ( 'NONE',  ( -0.8338096210321114254, 0.5000000000000000000, 10.00000000000090239 ) ) ;
#856 = CARTESIAN_POINT ( 'NONE',  ( -0.9586356752543686577, 0.4851114249501497500, -10.07137195927617235 ) ) ;
#857 = DIRECTION ( 'NONE',  ( 0.000000000000000000, 1.000000000000000000, 0.000000000000000000 ) ) ;
#858 = CARTESIAN_POINT ( 'NONE',  ( 7.185319986035496598, 0.4220755287781149945, -10.18842316079946464 ) ) ;
#859 = CARTESIAN_POINT ( 'NONE',  ( -2.010266743533457579, 0.3635185993988512831, 10.26351641405619830 ) ) ;
#860 = ORIENTED_EDGE ( 'NONE', *, *, #87, .F. ) ;
#861 = VECTOR ( 'NONE', #160, 1000.000000000000000 ) ;
#862 = DIRECTION ( 'NONE',  ( -0.000000000000000000, 1.000000000000000000, -0.000000000000000000 ) ) ;
#863 = CARTESIAN_POINT ( 'NONE',  ( 6.584190134408511419, 0.3643436103827387140, 10.26262629694491224 ) ) ;
#864 = CARTESIAN_POINT ( 'NONE',  ( 8.000000000000000000, 0.5000000000000000000, 7.333809621030953352 ) ) ;
#865 = ADVANCED_FACE ( 'NONE', ( #601 ), #586, .T. ) ;
#866 = CARTESIAN_POINT ( 'NONE',  ( -2.637260844717285391, 0.4145200860136988852, 10.19898883217355312 ) ) ;
#867 = ORIENTED_EDGE ( 'NONE', *, *, #384, .T. ) ;
#868 = DIRECTION ( 'NONE',  ( 0.000000000000000000, 1.000000000000000000, 0.000000000000000000 ) ) ;
#869 = CARTESIAN_POINT ( 'NONE',  ( 6.744021039334902490, 0.3711307002891737761, 10.25495864462465612 ) ) ;
#870 = CARTESIAN_POINT ( 'NONE',  ( 8.000000000000000000, 0.3909286795006597370, 7.511512603910944108 ) ) ;
#871 = CARTESIAN_POINT ( 'NONE',  ( -8.000000000000000000, 0.1689912312992682963, 10.43484691382863794 ) ) ;
#872 = ORIENTED_EDGE ( 'NONE', *, *, #808, .T. ) ;
#873 = CARTESIAN_POINT ( 'NONE',  ( -2.957194958174166555, 0.4700756579748879282, -10.10672827963367304 ) ) ;
#874 = CARTESIAN_POINT ( 'NONE',  ( 7.666190378369117653, 0.5000000000000000000, 10.00000000046642157 ) ) ;
#875 = CARTESIAN_POINT ( 'NONE',  ( 7.999999999999998224, 0.09983313681268179973, 8.601690475709995454 ) ) ;
#876 = CARTESIAN_POINT ( 'NONE',  ( 8.000000000000001776, 0.4509516082665147585, 10.14284496810740599 ) ) ;
#877 = EDGE_LOOP ( 'NONE', ( #164, #912, #461, #90, #567, #250, #479, #909 ) ) ;
#878 = CARTESIAN_POINT ( 'NONE',  ( -3.002509749769642688, 0.4783004979887574559, -10.08841998352534119 ) ) ;
#879 = EDGE_CURVE ( 'NONE', #593, #593, #230, .T. ) ;
#880 =( GEOMETRIC_REPRESENTATION_CONTEXT ( 3 ) GLOBAL_UNCERTAINTY_ASSIGNED_CONTEXT ( ( #539 ) ) GLOBAL_UNIT_ASSIGNED_CONTEXT ( ( #440, #429, #957 ) ) REPRESENTATION_CONTEXT ( 'NONE', 'WORKASPACE' ) );
#881 = CARTESIAN_POINT ( 'NONE',  ( 6.500000000000000888, 0.5000000000000000000, -8.500000000000000000 ) ) ;
#882 = CARTESIAN_POINT ( 'NONE',  ( -8.000000000000000000, 0.3697948381877566026, 10.25775526184824216 ) ) ;
#883 = ORIENTED_EDGE ( 'NONE', *, *, #944, .F. ) ;
#884 = CARTESIAN_POINT ( 'NONE',  ( 8.000000000000000000, 0.1109114626854211388, -8.293157576362292005 ) ) ;
#885 = CARTESIAN_POINT ( 'NONE',  ( -8.000000000000000000, 0.2199204159486922439, 10.39983034705389464 ) ) ;
#886 = CARTESIAN_POINT ( 'NONE',  ( -2.589060971072775885, 0.4074031055585337069, -10.20872957086980470 ) ) ;
#887 =( NAMED_UNIT ( * ) PLANE_ANGLE_UNIT ( ) SI_UNIT ( $, .RADIAN. ) );
#888 = CARTESIAN_POINT ( 'NONE',  ( -8.000000000000000000, 0.000000000000000000, 10.50000000000000178 ) ) ;
#889 = SHAPE_DEFINITION_REPRESENTATION ( #203, #188 ) ;
#890 = CARTESIAN_POINT ( 'NONE',  ( -1.377682034484039919, 0.4122691906074782975, -10.20207650383284914 ) ) ;
#891 = DIRECTION ( 'NONE',  ( 0.000000000000000000, 0.000000000000000000, 1.000000000000000000 ) ) ;
#892 = CIRCLE ( 'NONE', #313, 1.899999999999991918 ) ;
#893 = DIRECTION ( 'NONE',  ( 0.000000000000000000, -0.000000000000000000, 1.000000000000000000 ) ) ;
#894 = DIRECTION ( 'NONE',  ( 0.000000000000000000, 0.000000000000000000, 1.000000000000000000 ) ) ;
#895 = CARTESIAN_POINT ( 'NONE',  ( -3.060104375005797017, 0.4882200285320817401, 10.06258319704605775 ) ) ;
#896 = DIRECTION ( 'NONE',  ( -0.000000000000000000, 1.000000000000000000, -0.000000000000000000 ) ) ;
#897 = CARTESIAN_POINT ( 'NONE',  ( -7.999999999999998224, 0.4909238374860008802, -10.06237587037150583 ) ) ;
#898 = CARTESIAN_POINT ( 'NONE',  ( 8.000000000000000000, 0.000000000000000000, -10.50000000000000178 ) ) ;
#899 = EDGE_LOOP ( 'NONE', ( #218, #118, #355, #928, #838, #666 ) ) ;
#900 = FACE_OUTER_BOUND ( 'NONE', #899, .T. ) ;
#901 = CARTESIAN_POINT ( 'NONE',  ( 8.000000000000001776, 0.4300926575741349511, -10.17628490982323264 ) ) ;
#902 = DIRECTION ( 'NONE',  ( 0.000000000000000000, 1.000000000000000000, 0.000000000000000000 ) ) ;
#903 = PRESENTATION_LAYER_ASSIGNMENT (  '', '', ( #646 ) ) ;
#904 = ORIENTED_EDGE ( 'NONE', *, *, #577, .F. ) ;
#905 = CARTESIAN_POINT ( 'NONE',  ( -3.166190378968249508, 0.5000000000000000000, -10.00000000000061995 ) ) ;
#906 = AXIS2_PLACEMENT_3D ( 'NONE', #449, #848, #780 ) ;
#907 = EDGE_CURVE ( 'NONE', #597, #597, #711, .T. ) ;
#908 = DIRECTION ( 'NONE',  ( 0.000000000000000000, 0.000000000000000000, -1.000000000000000000 ) ) ;
#909 = ORIENTED_EDGE ( 'NONE', *, *, #86, .F. ) ;
#910 = DIRECTION ( 'NONE',  ( -1.000000000000000000, 0.000000000000000000, 0.000000000000000000 ) ) ;
#911 = CARTESIAN_POINT ( 'NONE',  ( -3.166190378968595454, 0.5000000000000000000, 10.00000000000034994 ) ) ;
#912 = ORIENTED_EDGE ( 'NONE', *, *, #147, .F. ) ;
#913 = CARTESIAN_POINT ( 'NONE',  ( 5.847049787727300441, 0.4169562329394746469, 10.19561352550159228 ) ) ;
#914 = CARTESIAN_POINT ( 'NONE',  ( -2.195247032678653731, 0.3683132026798174863, 10.25818663484869120 ) ) ;
#915 = ORIENTED_EDGE ( 'NONE', *, *, #105, .T. ) ;
#916 = PLANE ( 'NONE',  #15 ) ;
#917 = CARTESIAN_POINT ( 'NONE',  ( 6.500000000000000888, -0.3999999999999988565, -8.500000000000000000 ) ) ;
#918 = CARTESIAN_POINT ( 'NONE',  ( -2.685319985415977939, 0.4220755286807773010, 10.18842316094633560 ) ) ;
#919 = CARTESIAN_POINT ( 'NONE',  ( -1.999999999999998668, 0.5000000000000000000, 8.500000000000000000 ) ) ;
#920 = CARTESIAN_POINT ( 'NONE',  ( 7.534770479942447530, 0.4839905008714835422, 10.07437954688353443 ) ) ;
#921 = CARTESIAN_POINT ( 'NONE',  ( -7.999999999999998224, 0.1050165730629040728, -10.47680960411371665 ) ) ;
#922 = CARTESIAN_POINT ( 'NONE',  ( -0.8640075882147840725, 0.4986542722474282541, 10.02152752022349169 ) ) ;
#923 = FACE_OUTER_BOUND ( 'NONE', #103, .T. ) ;
#924 = CARTESIAN_POINT ( 'NONE',  ( 7.449221859461312434, 0.4686066775873669599, 10.10968415765774786 ) ) ;
#925 = CARTESIAN_POINT ( 'NONE',  ( 7.208221997159175665, 0.4258177285984330873, -10.18304451386835829 ) ) ;
#926 = B_SPLINE_CURVE_WITH_KNOTS ( 'NONE', 3,
 ( #750, #92, #5, #762, #241, #304, #76, #88, #674, #609, #237, #179, #379, #401, #26, #308, #833, #321, #256, #553, #110, #925, #858, #277, #333, #794, #53, #197, #209, #37, #341, #717, #418, #575, #943, #411, #124, #132, #127, #732, #47, #191, #496, #790, #728, #798, #351, #202, #931, #42, #563, #346, #491, #430, #114, #638, #642, #337, #265, #407, #652, #120 ),
 .UNSPECIFIED., .F., .F.,
 ( 4, 2, 2, 1, 1, 2, 2, 2, 2, 2, 2, 2, 2, 1, 2, 2, 2, 2, 2, 1, 1, 2, 2, 2, 2, 1, 2, 2, 2, 2, 1, 1, 2, 2, 4 ),
 ( 0.000000000000000000, 0.03124999999997822575, 0.04687499999996778965, 0.05468749999996255773, 0.05859374999995959482, 0.06054687499995813765, 0.06249999999995667355, 0.09374999999995289879, 0.1093749999999514833, 0.1171874999999511918, 0.1249999999999509004, 0.1874999999999482359, 0.2187499999999463762, 0.2343749999999454603, 0.2421874999999449884, 0.2499999999999445444, 0.4999999999999653610, 0.6249999999999756861, 0.6874999999999815703, 0.7187499999999843459, 0.7343749999999854561, 0.7421874999999866773, 0.7499999999999878986, 0.8124999999999975575, 0.8437500000000028866, 0.8593750000000048850, 0.8671875000000058842, 0.8750000000000067724, 0.9062500000000117684, 0.9218750000000143219, 0.9296875000000155431, 0.9335937500000168754, 0.9355468750000167644, 0.9375000000000165423, 1.000000000000000000 ),
 .UNSPECIFIED. ) ;
#927 = CARTESIAN_POINT ( 'NONE',  ( -1.089482596719641538, 0.4614949180266834650, 10.12363496517921035 ) ) ;
#928 = ORIENTED_EDGE ( 'NONE', *, *, #944, .T. ) ;
#929 = CARTESIAN_POINT ( 'NONE',  ( -0.9656536838773396303, 0.4839178155317911401, -10.07457128121768619 ) ) ;
#930 = CARTESIAN_POINT ( 'NONE',  ( -8.000000000000000000, 0.5000000000000000000, 10.50000000000000178 ) ) ;
#931 = CARTESIAN_POINT ( 'NONE',  ( 5.615072906063853786, 0.4567830351469387984, -10.13236895193279707 ) ) ;
#932 = EDGE_CURVE ( 'NONE', #825, #50, #676, .T. ) ;
#933 = ADVANCED_FACE ( 'NONE', ( #62, #367 ), #515, .F. ) ;
#934 = CIRCLE ( 'NONE', #18, 1.899999999999991918 ) ;
#935 = CARTESIAN_POINT ( 'NONE',  ( -1.050778139919379184, 0.4686066777010423623, 10.10968415742448734 ) ) ;
#936 = CARTESIAN_POINT ( 'NONE',  ( -1.999999999999998668, -0.3999999999999988565, 8.500000000000000000 ) ) ;
#937 = CARTESIAN_POINT ( 'NONE',  ( 8.000000000000001776, 0.1003396422356312295, -8.710677716758604916 ) ) ;
#938 = DIRECTION ( 'NONE',  ( -0.000000000000000000, -1.000000000000000000, -0.000000000000000000 ) ) ;
#939 = CARTESIAN_POINT ( 'NONE',  ( 8.000000000000001776, 0.3998303470537484805, 10.21992041594886125 ) ) ;
#940 = CARTESIAN_POINT ( 'NONE',  ( -1.387477838356240945, 0.4108097606642478472, -10.20407542282930535 ) ) ;
#941 = CARTESIAN_POINT ( 'NONE',  ( 7.521679426962577075, 0.4817456657430595479, 10.08028990553798820 ) ) ;
#942 = B_SPLINE_CURVE_WITH_KNOTS ( 'NONE', 3,
 ( #653, #347, #599, #224, #876, #59, #729, #128, #211, #939, #437, #513, #799, #508, #813, #365, #227, #724, #298, #805, #294, #217 ),
 .UNSPECIFIED., .F., .F.,
 ( 4, 1, 1, 1, 2, 2, 2, 2, 1, 1, 1, 2, 2, 4 ),
 ( 0.000000000000000000, 0.1250000000000313916, 0.1875000000000471567, 0.2187500000000523193, 0.2343750000000524580, 0.2500000000000525691, 0.3750000000000413003, 0.5000000000000300870, 0.6250000000000188738, 0.6875000000000111022, 0.7187500000000094369, 0.7343750000000085487, 0.7500000000000076605, 1.000000000000000000 ),
 .UNSPECIFIED. ) ;
#943 = CARTESIAN_POINT ( 'NONE',  ( 6.027934203597533624, 0.3921187623831247637, -10.22901915719642219 ) ) ;
#944 = EDGE_CURVE ( 'NONE', #825, #689, #672, .T. ) ;
#945 = CARTESIAN_POINT ( 'NONE',  ( -8.000000000000000000, 0.4300926575741347846, 10.17628490982323086 ) ) ;
#946 = VERTEX_POINT ( 'NONE', #435 ) ;
#947 = VERTEX_POINT ( 'NONE', #663 ) ;
#948 = DIRECTION ( 'NONE',  ( 0.000000000000000000, 0.000000000000000000, 1.000000000000000000 ) ) ;
#949 = CARTESIAN_POINT ( 'NONE',  ( -8.000000000000001776, 0.4181041553893650731, 10.19391653433758194 ) ) ;
#950 = ORIENTED_EDGE ( 'NONE', *, *, #397, .T. ) ;
#951 = AXIS2_PLACEMENT_3D ( 'NONE', #380, #841, #14 ) ;
#952 = CARTESIAN_POINT ( 'NONE',  ( -2.822480080856181406, 0.4454897247785516434, -10.15213493766370156 ) ) ;
#953 = CARTESIAN_POINT ( 'NONE',  ( 8.000000000000000000, 0.1816978701578892130, -7.990084281091504259 ) ) ;
#954 = CARTESIAN_POINT ( 'NONE',  ( 8.000000000000000000, -0.5000000000000000000, 10.49999999999999822 ) ) ;
#955 = EDGE_LOOP ( 'NONE', ( #283 ) ) ;
#956 = CARTESIAN_POINT ( 'NONE',  ( -2.193886872167620794, 0.3673160367892512324, -10.25951742528964772 ) ) ;
#957 =( NAMED_UNIT ( * ) SI_UNIT ( $, .STERADIAN. ) SOLID_ANGLE_UNIT ( ) );
#958 = CARTESIAN_POINT ( 'NONE',  ( 6.500000000000000888, -0.5000000000000000000, 8.500000000000000000 ) ) ;
#959 = DIRECTION ( 'NONE',  ( 0.000000000000000000, 1.000000000000000000, 0.000000000000000000 ) ) ;
#960 = CARTESIAN_POINT ( 'NONE',  ( -1.362739155254711232, 0.4145200860176863622, -10.19898883216738561 ) ) ;
#961 = CARTESIAN_POINT ( 'NONE',  ( -1.999999999999998668, -0.3999999999999988565, 8.500000000000000000 ) ) ;
#962 = FACE_OUTER_BOUND ( 'NONE', #835, .T. ) ;
#963 = CARTESIAN_POINT ( 'NONE',  ( -8.000000000000000000, 0.4383160177894160903, -10.16353820303978672 ) ) ;
ENDSEC;
END-ISO-10303-21;
