ISO-10303-21;
HEADER;
FILE_DESCRIPTION (( 'STEP AP214' ),
    '1' );
FILE_NAME ('Part5_Lockpin.STEP',
    '2025-07-18T14:00:16',
    ( '' ),
    ( '' ),
    'SwSTEP 2.0',
    'SolidWorks 2025',
    '' );
FILE_SCHEMA (( 'AUTOMOTIVE_DESIGN' ));
ENDSEC;

DATA;
#1 = CARTESIAN_POINT ( 'NONE',  ( -1.087541720777699616, 4.000000000000000000, 1.886901009540785878 ) ) ;
#2 = AXIS2_PLACEMENT_3D ( 'NONE', #189, #293, #193 ) ;
#3 =( NAMED_UNIT ( * ) SI_UNIT ( $, .STERADIAN. ) SOLID_ANGLE_UNIT ( ) );
#4 = CARTESIAN_POINT ( 'NONE',  ( -0.3218620088528668099, -1.509139863733712813E-16, 2.463751613188879475 ) ) ;
#5 = CARTESIAN_POINT ( 'NONE',  ( 2.003205432734811886, 3.919161676646700343, -1.154575397634599820 ) ) ;
#6 = CARTESIAN_POINT ( 'NONE',  ( 2.463624310270756457, 0.000000000000000000, -0.6449753184849932319 ) ) ;
#7 = CARTESIAN_POINT ( 'NONE',  ( -2.159453421137080387, 4.000000000000000000, 2.644567720103326888E-16 ) ) ;
#8 = CARTESIAN_POINT ( 'NONE',  ( 0.6369749419838673932, -1.155289836133479292E-16, -2.400017442747256702 ) ) ;
#9 = CARTESIAN_POINT ( 'NONE',  ( 0.6449753184853446175, -8.461799164091735839E-17, -2.463624310270756457 ) ) ;
#10 = ADVANCED_FACE ( 'NONE', ( #295, #499 ), #382, .T. ) ;
#11 = SURFACE_STYLE_USAGE ( .BOTH. , #405 ) ;
#12 = CARTESIAN_POINT ( 'NONE',  ( 1.969726281911486909, -6.634501150984297416E-17, -1.514544663778703004 ) ) ;
#13 = CARTESIAN_POINT ( 'NONE',  ( -1.801639163176600666, 1.250000000000000222, -0.4849276289533255291 ) ) ;
#14 = AXIS2_PLACEMENT_3D ( 'NONE', #130, #637, #330 ) ;
#15 = CARTESIAN_POINT ( 'NONE',  ( 1.246659307809944384, -9.302913841164553972E-17, 2.147477909655233219 ) ) ;
#16 = FACE_OUTER_BOUND ( 'NONE', #248, .T. ) ;
#17 = CARTESIAN_POINT ( 'NONE',  ( -0.6369749419835563087, -1.625429416392464161E-16, 2.400017442747361063 ) ) ;
#18 = FACE_OUTER_BOUND ( 'NONE', #407, .T. ) ;
#19 = CARTESIAN_POINT ( 'NONE',  ( 2.567013795208325178, 0.8225806451612904802, -1.972758934514032392 ) ) ;
#20 = CARTESIAN_POINT ( 'NONE',  ( -1.747572776708516518, 1.400000000000000355, 1.007237960741799832 ) ) ;
#21 = AXIS2_PLACEMENT_3D ( 'NONE', #55, #429, #576 ) ;
#22 = CARTESIAN_POINT ( 'NONE',  ( -0.3000950586098677375, 3.919161676646708337, 2.292557374810201942 ) ) ;
#23 = CARTESIAN_POINT ( 'NONE',  ( -0.2617993877991495744, 1.399999999999999911, 2.000000000000000000 ) ) ;
#24 = CARTESIAN_POINT ( 'NONE',  ( -2.191977376924314047, 4.000000000000000000, 0.5890775637208124360 ) ) ;
#25 = CARTESIAN_POINT ( 'NONE',  ( -0.8402379520974299076, 0.8225806451612902581, 3.126553665355819245 ) ) ;
#26 = CARTESIAN_POINT ( 'NONE',  ( 1.599333675781497321, 1.400000000000000133, 1.229093448964692747 ) ) ;
#27 = CARTESIAN_POINT ( 'NONE',  ( -1.133421327478935758, 4.000000000000000000, 1.966502807382602969 ) ) ;
#28 = CARTESIAN_POINT ( 'NONE',  ( -1.154575407543700027, 3.919161676646709225, -2.003205428630324914 ) ) ;
#29 = CARTESIAN_POINT ( 'NONE',  ( 1.947945353336631769, 1.400000000000000133, -0.5234957687185599617 ) ) ;
#30 = CARTESIAN_POINT ( 'NONE',  ( 1.383070130451317548, 4.000000000000000000, -1.799692810254371445 ) ) ;
#31 = CARTESIAN_POINT ( 'NONE',  ( -2.292557374810201498, 3.919161676646709225, 0.3000950586098664052 ) ) ;
#32 = CARTESIAN_POINT ( 'NONE',  ( -2.000000000000000000, 1.400000000000000577, -4.607859233063393845E-16 ) ) ;
#33 = CARTESIAN_POINT ( 'NONE',  ( -1.799692810254260644, 4.000000000000000000, -1.383070130451336865 ) ) ;
#34 = CARTESIAN_POINT ( 'NONE',  ( 2.567013795208325622, 0.8225806451612902581, 1.972758934514030171 ) ) ;
#35 = CARTESIAN_POINT ( 'NONE',  ( -0.5234957804970312711, 1.400000000000000133, 1.947945348457829073 ) ) ;
#36 = CARTESIAN_POINT ( 'NONE',  ( 0.5890775637208234272, 4.000000000000000000, 2.191977376924437504 ) ) ;
#37 = CARTESIAN_POINT ( 'NONE',  ( -0.2819501056835276298, 4.000000000000000000, 2.159382072889495685 ) ) ;
#38 = CARTESIAN_POINT ( 'NONE',  ( 0.5234957804971624995, 1.249999999999973799, -1.947945348457808645 ) ) ;
#39 = EDGE_LOOP ( 'NONE', ( #91 ) ) ;
#40 = CARTESIAN_POINT ( 'NONE',  ( 1.308147545195113892, 1.250000000000000222, -1.308147545195112116 ) ) ;
#41 = CARTESIAN_POINT ( 'NONE',  ( 1.995074817200024997, 4.000000000000000000, -0.8263870472332731643 ) ) ;
#42 = CARTESIAN_POINT ( 'NONE',  ( -0.5234957804971254181, 1.250000000000026645, -1.947945348457781334 ) ) ;
#43 = ORIENTED_EDGE ( 'NONE', *, *, #378, .F. ) ;
#44 = CARTESIAN_POINT ( 'NONE',  ( 1.301042606982605321E-15, 1.250000000000000222, -1.850000000000000089 ) ) ;
#45 = CARTESIAN_POINT ( 'NONE',  ( -1.476163501172726410E-16, 4.000000000000000000, 0.000000000000000000 ) ) ;
#46 = CARTESIAN_POINT ( 'NONE',  ( -1.599333675781501096, 1.400000000000000133, 1.229093448964689195 ) ) ;
#47 = CARTESIAN_POINT ( 'NONE',  ( -1.616715107115162420, 1.250000000000000222, -0.9310010707975014954 ) ) ;
#48 = FACE_OUTER_BOUND ( 'NONE', #191, .T. ) ;
#49 = CARTESIAN_POINT ( 'NONE',  ( -1.850000000000000089, 1.250000000000000222, 2.265596578422603100E-16 ) ) ;
#50 = CARTESIAN_POINT ( 'NONE',  ( 1.709177135145880433, 1.250000000000000222, 0.7079643498754161213 ) ) ;
#51 = CARTESIAN_POINT ( 'NONE',  ( -2.103038368583705520, 4.000000000000000000, -0.5659264191968430557 ) ) ;
#52 = CARTESIAN_POINT ( 'NONE',  ( 2.400017442747292229, -5.046550884726650496E-17, 0.6369749419836193693 ) ) ;
#53 = CARTESIAN_POINT ( 'NONE',  ( -3.210104082232442479, 0.8225806451612901471, 0.8404032604230193826 ) ) ;
#54 = MECHANICAL_DESIGN_GEOMETRIC_PRESENTATION_REPRESENTATION (  '', ( #202 ), #417 ) ;
#55 = CARTESIAN_POINT ( 'NONE',  ( 0.000000000000000000, 0.000000000000000000, 0.000000000000000000 ) ) ;
#56 = CARTESIAN_POINT ( 'NONE',  ( -0.3218620088529223211, -1.509139863733733520E-16, -2.463497007352632995 ) ) ;
#57 = EDGE_CURVE ( 'NONE', #152, #152, #328, .T. ) ;
#58 = CARTESIAN_POINT ( 'NONE',  ( 1.833282109347077249, 3.919161676646706560, -1.408883622627968402 ) ) ;
#59 = CARTESIAN_POINT ( 'NONE',  ( -1.850000000000000089, 1.250000000000000222, 2.265596578422603100E-16 ) ) ;
#60 =( NAMED_UNIT ( * ) SI_UNIT ( $, .STERADIAN. ) SOLID_ANGLE_UNIT ( ) );
#61 = CARTESIAN_POINT ( 'NONE',  ( -2.273859791204140723, -2.229506833902976490E-16, 0.9418635644516961669 ) ) ;
#62 = CARTESIAN_POINT ( 'NONE',  ( 1.675631520485111325, 0.8225806451612904802, 2.864141209237247132 ) ) ;
#63 = CARTESIAN_POINT ( 'NONE',  ( -2.147702139661011866, -2.182949503752568080E-16, -1.246752186919633187 ) ) ;
#64 = CARTESIAN_POINT ( 'NONE',  ( 2.198111877487167742, 1.683071513447990237E-17, 1.285979034689798350 ) ) ;
#65 = B_SPLINE_CURVE_WITH_KNOTS ( 'NONE', 3,
 ( #336, #97, #449, #490, #393, #541, #437, #651, #290, #89, #297, #37, #343, #401, #237, #599, #594, #148, #283, #442, #140, #339, #501, #183, #584, #494, #332, #41, #445, #144, #487, #603, #351, #555, #607, #100, #112, #166, #519, #506, #366, #254, #452, #464, #566, #211, #51, #409, #115 ),
 .UNSPECIFIED., .T., .F.,
 ( 4, 3, 3, 3, 3, 3, 3, 3, 3, 3, 3, 3, 3, 3, 3, 3, 4 ),
 ( 0.000000000000000000, 0.06250000000000000000, 0.1250000000000000000, 0.1875000000000000000, 0.2500000000000000000, 0.3125000000000000000, 0.3750000000000000000, 0.4375000000000000000, 0.5000000000000000000, 0.5625000000000000000, 0.6250000000000000000, 0.6875000000000000000, 0.7500000000000000000, 0.8125000000000000000, 0.8750000000000000000, 0.9375000000000000000, 1.000000000000000000 ),
 .UNSPECIFIED. ) ;
#66 =( GEOMETRIC_REPRESENTATION_CONTEXT ( 3 ) GLOBAL_UNCERTAINTY_ASSIGNED_CONTEXT ( ( #369 ) ) GLOBAL_UNIT_ASSIGNED_CONTEXT ( ( #214, #516, #60 ) ) REPRESENTATION_CONTEXT ( 'NONE', 'WORKASPACE' ) );
#67 = CARTESIAN_POINT ( 'NONE',  ( 2.463624310270756457, -4.811815544071485002E-17, 0.3221696652721058873 ) ) ;
#68 = CARTESIAN_POINT ( 'NONE',  ( -2.864141209236946928, 0.8225806451612805992, -1.675631520485411086 ) ) ;
#69 = ADVANCED_FACE ( 'NONE', ( #18, #16 ), #151, .T. ) ;
#70 = CARTESIAN_POINT ( 'NONE',  ( -2.292557374810201498, 3.919161676646708337, -7.047314121155778821E-16 ) ) ;
#71 = CARTESIAN_POINT ( 'NONE',  ( 1.747572781587321655, 1.400000000000000133, 1.007237948963319418 ) ) ;
#72 = CARTESIAN_POINT ( 'NONE',  ( -2.804945252255145238, 0.8225806451612901471, 1.616669344778362660 ) ) ;
#73 = CARTESIAN_POINT ( 'NONE',  ( -1.599333684796360178, 1.400000000000000355, -1.229093439949831001 ) ) ;
#74 = CARTESIAN_POINT ( 'NONE',  ( 1.966502807382589424, 4.000000000000000000, -1.133421327478967067 ) ) ;
#75 = CARTESIAN_POINT ( 'NONE',  ( -2.804945252255147015, 0.8225806451612902581, -1.616669344778363993 ) ) ;
#76 = CARTESIAN_POINT ( 'NONE',  ( -1.383070130451396373, 4.000000000000000000, -1.799692810254323483 ) ) ;
#77 = CARTESIAN_POINT ( 'NONE',  ( 0.3000950586098680706, 3.919161676646706560, -2.292557374810200610 ) ) ;
#78 = CARTESIAN_POINT ( 'NONE',  ( -1.007237960741799387, 1.400000000000000577, -1.747572776708516074 ) ) ;
#79 = CARTESIAN_POINT ( 'NONE',  ( 0.2826717817143932776, 4.000000000000000000, -2.159453421137080387 ) ) ;
#80 = CARTESIAN_POINT ( 'NONE',  ( 0.6000720426288355114, 3.919161676646707448, 2.232888242759578645 ) ) ;
#81 = CARTESIAN_POINT ( 'NONE',  ( 1.007237948963231933, 1.400000000000000133, -1.747572781587357849 ) ) ;
#82 = CARTESIAN_POINT ( 'NONE',  ( 2.191977376924451271, 4.000000000000000000, -0.5890775637207761317 ) ) ;
#83 = DIRECTION ( 'NONE',  ( -1.000000000000000000, 0.000000000000000000, 0.000000000000000000 ) ) ;
#84 = CARTESIAN_POINT ( 'NONE',  ( -1.747572781587354296, 1.250000000000000222, -1.007237948963304985 ) ) ;
#85 = CARTESIAN_POINT ( 'NONE',  ( -1.966502807382542350, 4.000000000000000000, -1.133421327478885798 ) ) ;
#86 = DIRECTION ( 'NONE',  ( -3.690408752931816026E-17, 1.000000000000000000, -0.000000000000000000 ) ) ;
#87 = CARTESIAN_POINT ( 'NONE',  ( -1.850000000000000089, 1.250000000000000222, -0.2421644219214479643 ) ) ;
#88 = CARTESIAN_POINT ( 'NONE',  ( 2.103248624859276994, 4.000000000000000000, -0.5652323736888170691 ) ) ;
#89 = CARTESIAN_POINT ( 'NONE',  ( -0.8263870472332744965, 4.000000000000000000, 1.995074817200024553 ) ) ;
#90 = CARTESIAN_POINT ( 'NONE',  ( -1.229093448964704516, 1.250000000000025979, 1.599333675781511976 ) ) ;
#91 = ORIENTED_EDGE ( 'NONE', *, *, #545, .T. ) ;
#92 = CARTESIAN_POINT ( 'NONE',  ( 1.849928682673878555, 1.250000000000000222, 0.2414427477084895579 ) ) ;
#93 = PLANE ( 'NONE',  #335 ) ;
#94 = CARTESIAN_POINT ( 'NONE',  ( 1.801849447323460751, 1.250000000000000222, -0.4842335969598550727 ) ) ;
#95 = EDGE_CURVE ( 'NONE', #456, #456, #626, .T. ) ;
#96 = CARTESIAN_POINT ( 'NONE',  ( -1.308147545195112116, 1.250000000000000222, -1.308147545195113892 ) ) ;
#97 = CARTESIAN_POINT ( 'NONE',  ( -2.159453421137080387, 4.000000000000000000, 0.2823092635914120074 ) ) ;
#98 = CARTESIAN_POINT ( 'NONE',  ( -0.4842335969598581258, 1.250000000000000222, -1.801849447323459641 ) ) ;
#99 = CARTESIAN_POINT ( 'NONE',  ( -0.4849276289531499473, 1.250000000000000222, 1.801639163176702141 ) ) ;
#100 = CARTESIAN_POINT ( 'NONE',  ( 0.2819501056829456509, 4.000000000000000000, -2.159382072889496129 ) ) ;
#101 = CARTESIAN_POINT ( 'NONE',  ( 0.4842335969597628131, 1.250000000000000222, 1.801849447323487174 ) ) ;
#102 = EDGE_LOOP ( 'NONE', ( #656 ) ) ;
#103 = CARTESIAN_POINT ( 'NONE',  ( -2.103248624859201055, 4.000000000000000000, 0.5652323736888362760 ) ) ;
#104 = CARTESIAN_POINT ( 'NONE',  ( 2.463624310270756457, -4.811815544071485002E-17, 3.017069625874687299E-16 ) ) ;
#105 = CARTESIAN_POINT ( 'NONE',  ( -0.9316951027910693739, 1.250000000000000222, 1.616504822968247490 ) ) ;
#106 = CARTESIAN_POINT ( 'NONE',  ( -0.6000720525379714676, 3.919161676646713666, -2.232888238655077462 ) ) ;
#107 = CARTESIAN_POINT ( 'NONE',  ( -2.463624310270756457, -2.168404344971008868E-16, 0.6449753184853389554 ) ) ;
#108 = VERTEX_POINT ( 'NONE', #510 ) ;
#109 = CARTESIAN_POINT ( 'NONE',  ( 1.850000000000000089, 1.250000000000000222, -0.2421644219214521276 ) ) ;
#110 = CARTESIAN_POINT ( 'NONE',  ( 3.210104082232442479, 0.8225806451612903691, 3.931243689235812183E-16 ) ) ;
#111 = PRODUCT_DEFINITION_CONTEXT ( 'detailed design', #598, 'design' ) ;
#112 = CARTESIAN_POINT ( 'NONE',  ( 1.301042606982605321E-15, 4.000000000000000000, -2.159453421137080387 ) ) ;
#113 = CARTESIAN_POINT ( 'NONE',  ( -1.742045456088483268, -2.033245606178432673E-16, 1.742045456088483046 ) ) ;
#114 = CARTESIAN_POINT ( 'NONE',  ( 0.8613419684877782201, -1.084202172485504434E-16, -3.290084057799764761 ) ) ;
#115 = CARTESIAN_POINT ( 'NONE',  ( -2.159453421137080387, 4.000000000000000000, 2.644567720103326888E-16 ) ) ;
#116 = CARTESIAN_POINT ( 'NONE',  ( -0.4842335969597642009, 1.250000000000000222, 1.801849447323512932 ) ) ;
#117 = CARTESIAN_POINT ( 'NONE',  ( 3.290084057799765205, 0.000000000000000000, -0.8613419684873090398 ) ) ;
#118 = CARTESIAN_POINT ( 'NONE',  ( -0.6000720426288358444, 3.919161676646709225, 2.232888242759580422 ) ) ;
#119 = CARTESIAN_POINT ( 'NONE',  ( 1.675631520485106440, 0.8225806451612902581, -2.864141209237249797 ) ) ;
#120 = CARTESIAN_POINT ( 'NONE',  ( -3.210104082232442924, 0.8225806451612902581, -0.4202016417500027412 ) ) ;
#121 = CARTESIAN_POINT ( 'NONE',  ( 1.599333684796359734, 1.400000000000000355, 1.229093439949830779 ) ) ;
#122 = CARTESIAN_POINT ( 'NONE',  ( 0.5890775637205645232, 4.000000000000000000, -2.191977376924559184 ) ) ;
#123 = CARTESIAN_POINT ( 'NONE',  ( -2.232888242759578645, 3.919161676646706560, 0.6000720426288351783 ) ) ;
#124 = CARTESIAN_POINT ( 'NONE',  ( -0.5234957804971509532, 1.400000000000000133, -1.947945348457779779 ) ) ;
#125 = CARTESIAN_POINT ( 'NONE',  ( -2.250553258282208091, 4.000000000000000000, -0.2945967220847862666 ) ) ;
#126 = CARTESIAN_POINT ( 'NONE',  ( -1.408883615043911686, 3.919161676646708337, 1.833282116931135075 ) ) ;
#127 = CARTESIAN_POINT ( 'NONE',  ( -0.5234957687185608499, 1.400000000000000355, -1.947945353336631324 ) ) ;
#128 = CARTESIAN_POINT ( 'NONE',  ( -0.5652323736888517081, 4.000000000000000000, -2.103248624859262783 ) ) ;
#129 = CARTESIAN_POINT ( 'NONE',  ( -1.616669344778362216, 0.8225806451612901471, -2.804945252255146126 ) ) ;
#130 = CARTESIAN_POINT ( 'NONE',  ( 0.000000000000000000, 4.336808689942017736E-16, 0.000000000000000000 ) ) ;
#131 = CARTESIAN_POINT ( 'NONE',  ( 1.726843291442903938, 4.000000000000000000, -1.327085024042133687 ) ) ;
#132 = PRODUCT ( 'Part5_Lockpin', 'Part5_Lockpin', '', ( #629 ) ) ;
#133 = PLANE ( 'NONE',  #613 ) ;
#134 = CARTESIAN_POINT ( 'NONE',  ( -1.007237948963213725, 1.400000000000000133, -1.747572781587365176 ) ) ;
#135 = CARTESIAN_POINT ( 'NONE',  ( 1.966502807382650486, 4.000000000000000000, 1.133421327478936202 ) ) ;
#136 = ADVANCED_FACE ( 'NONE', ( #631, #435 ), #539, .T. ) ;
#137 = DIRECTION ( 'NONE',  ( -3.690408752931816026E-17, 1.000000000000000000, -0.000000000000000000 ) ) ;
#138 = CARTESIAN_POINT ( 'NONE',  ( 1.747572781587338309, 1.250000000000000222, -1.007237948963236152 ) ) ;
#139 = CARTESIAN_POINT ( 'NONE',  ( 0.7079643498754165654, 1.250000000000000222, -1.709177135145880211 ) ) ;
#140 = CARTESIAN_POINT ( 'NONE',  ( 1.887111265816263872, 4.000000000000000000, 1.086847675269728697 ) ) ;
#141 = CARTESIAN_POINT ( 'NONE',  ( 2.000000000000000000, 1.250000000000000222, -0.2617993750502184969 ) ) ;
#142 = ORIENTED_EDGE ( 'NONE', *, *, #278, .F. ) ;
#143 = CARTESIAN_POINT ( 'NONE',  ( 1.616715107115304750, 1.250000000000000222, 0.9310010707971489996 ) ) ;
#144 = CARTESIAN_POINT ( 'NONE',  ( 1.726282538597411431, 4.000000000000000000, -1.327544875228135801 ) ) ;
#145 = ADVANCED_FACE ( 'NONE', ( #387, #427 ), #262, .T. ) ;
#146 = CARTESIAN_POINT ( 'NONE',  ( 1.136911440292250441, 1.250000000000000222, -1.479383650097923164 ) ) ;
#147 = CARTESIAN_POINT ( 'NONE',  ( -0.9310556547153767681, 1.250000000000000222, -1.616846884351266445 ) ) ;
#148 = CARTESIAN_POINT ( 'NONE',  ( 1.327544875228074739, 4.000000000000000000, 1.726282538597529337 ) ) ;
#149 = CARTESIAN_POINT ( 'NONE',  ( -2.000000000000000000, 1.250000000000000222, 0.2617993750502145556 ) ) ;
#150 = CARTESIAN_POINT ( 'NONE',  ( 0.7079643498754153441, 1.250000000000000222, 1.709177135145880877 ) ) ;
#151 =( BOUNDED_SURFACE ( )  B_SPLINE_SURFACE ( 2, 3, ( 
 ( #610, #307, #513, #119, #515, #216, #210, #68, #218, #53, #159, #618, #314, #414, #62, #170, #213, #110 ),
 ( #418, #117, #264, #570, #114, #568, #471, #521, #317, #253, #459, #165, #612, #621, #563, #256, #422, #565 ),
 ( #371, #6, #207, #162, #9, #412, #358, #561, #616, #107, #258, #309, #311, #365, #518, #64, #260, #468 ) ),
 .UNSPECIFIED., .F., .T., .T. ) 
 B_SPLINE_SURFACE_WITH_KNOTS ( ( 3, 3 ),
 ( 4, 2, 2, 2, 2, 2, 2, 2, 4 ),
 ( 0.000000000000000000, 1.000000000000000000 ),
 ( -3.141592653589793116, -2.356194490192344837, -1.570796326794896558, -0.7853981633974482790, 0.000000000000000000, 0.7853981633974482790, 1.570796326794896558, 2.356194490192344837, 3.141592653589793116 ),
 .UNSPECIFIED. ) 
 GEOMETRIC_REPRESENTATION_ITEM ( )  RATIONAL_B_SPLINE_SURFACE ( (
 ( 1.000000000000000000, 1.000000000000000000, 1.000000000000000000, 1.000000000000000000, 1.000000000000000000, 1.000000000000000000, 1.000000000000000000, 1.000000000000000000, 1.000000000000000000, 1.000000000000000000, 1.000000000000000000, 1.000000000000000000, 1.000000000000000000, 1.000000000000000000, 1.000000000000000000, 1.000000000000000000, 1.000000000000000000, 1.000000000000000000),
 ( 1.008032257548370669, 1.008032257548370669, 1.008032257548370891, 1.008032257548370891, 1.008032257548370447, 1.008032257548370447, 1.008032257548370447, 1.008032257548370447, 1.008032257548370447, 1.008032257548370447, 1.008032257548370891, 1.008032257548370891, 1.008032257548370447, 1.008032257548370447, 1.008032257548370891, 1.008032257548370891, 1.008032257548370669, 1.008032257548370669),
 ( 1.000000000000000000, 1.000000000000000000, 1.000000000000000000, 1.000000000000000000, 1.000000000000000000, 1.000000000000000000, 1.000000000000000000, 1.000000000000000000, 1.000000000000000000, 1.000000000000000000, 1.000000000000000000, 1.000000000000000000, 1.000000000000000000, 1.000000000000000000, 1.000000000000000000, 1.000000000000000000, 1.000000000000000000, 1.000000000000000000) ) ) 
 REPRESENTATION_ITEM ( '' )  SURFACE ( )  );
#152 = VERTEX_POINT ( 'NONE', #204 ) ;
#153 = CARTESIAN_POINT ( 'NONE',  ( -1.850000000000000089, 1.250000000000000222, 0.2421644219214483806 ) ) ;
#154 = CARTESIAN_POINT ( 'NONE',  ( -1.833282109346994204, 3.919161676646706560, -1.408883622628052334 ) ) ;
#155 = CARTESIAN_POINT ( 'NONE',  ( 1.850071317326121623, 1.250000000000000222, -0.2414427477084895579 ) ) ;
#156 = B_SPLINE_CURVE_WITH_KNOTS ( 'NONE', 3,
 ( #265, #569, #534, #316, #383, #169, #28, #580, #279, #77, #630, #434, #228, #571, #472, #484, #171, #174, #275, #177, #625, #379, #528, #80, #370, #22, #118, #272, #126, #577, #329, #123, #31, #70 ),
 .UNSPECIFIED., .T., .F.,
 ( 4, 2, 2, 2, 2, 2, 2, 2, 2, 2, 2, 2, 2, 2, 2, 2, 4 ),
 ( 0.000000000000000000, 0.06250000000000001388, 0.1250000000000000000, 0.1874999999999999722, 0.2499999999999999722, 0.3124999999999999445, 0.3749999999999999445, 0.4375000000000000000, 0.5000000000000000000, 0.5625000000000000000, 0.6250000000000000000, 0.6875000000000000000, 0.7500000000000000000, 0.8125000000000001110, 0.8750000000000001110, 0.9375000000000001110, 1.000000000000000000 ),
 .UNSPECIFIED. ) ;
#157 = CARTESIAN_POINT ( 'NONE',  ( 1.801849447323486730, 1.250000000000000222, 0.4842335969597635348 ) ) ;
#158 = CARTESIAN_POINT ( 'NONE',  ( 2.292557374810201942, 3.919161676646706560, 0.3000950478842664970 ) ) ;
#159 = CARTESIAN_POINT ( 'NONE',  ( -2.864141209237294650, 0.8225806451612901471, 1.675631520485063364 ) ) ;
#160 = VERTEX_POINT ( 'NONE', #460 ) ;
#161 = CARTESIAN_POINT ( 'NONE',  ( -1.969726281911320376, -2.117269137427566837E-16, 1.514544663778795597 ) ) ;
#162 = CARTESIAN_POINT ( 'NONE',  ( 1.285979034689728184, -1.683071513448249390E-17, -2.198111877487167298 ) ) ;
#163 = CIRCLE ( 'NONE', #261, 2.000000000000000000 ) ;
#164 = CARTESIAN_POINT ( 'NONE',  ( 0.9418635644516085703, -1.042773472031051599E-16, 2.273859791204124736 ) ) ;
#165 = CARTESIAN_POINT ( 'NONE',  ( -1.717380001106031395, 3.474734260066850818E-14, 2.935501494781904697 ) ) ;
#166 = CARTESIAN_POINT ( 'NONE',  ( -0.2819501056829430419, 4.000000000000000000, -2.159524769384664644 ) ) ;
#167 = CARTESIAN_POINT ( 'NONE',  ( -1.514364630265646383, -1.949222074929298509E-16, 1.969546248398170496 ) ) ;
#168 = CARTESIAN_POINT ( 'NONE',  ( -2.000000000000000000, 1.400000000000000355, -0.2617993877991500185 ) ) ;
#169 = CARTESIAN_POINT ( 'NONE',  ( -1.408883615043909909, 3.919161676646706560, -1.833282116931135963 ) ) ;
#170 = CARTESIAN_POINT ( 'NONE',  ( 2.864141209237250685, 0.8225806451612902581, 1.675631520485106440 ) ) ;
#171 = CARTESIAN_POINT ( 'NONE',  ( 2.292557374810201942, 3.919161676646707448, -0.3000950586098675155 ) ) ;
#172 = CARTESIAN_POINT ( 'NONE',  ( 0.2617993877991499074, 1.399999999999999911, -1.999999999999999556 ) ) ;
#173 = CARTESIAN_POINT ( 'NONE',  ( -2.250553258282208091, 4.000000000000000000, 2.756132844065952657E-16 ) ) ;
#174 = CARTESIAN_POINT ( 'NONE',  ( 2.292557374810201498, 3.919161676646708337, 0.3000950586098682371 ) ) ;
#175 = CARTESIAN_POINT ( 'NONE',  ( 1.007237960741799165, 1.400000000000000355, 1.747572776708515851 ) ) ;
#176 = CARTESIAN_POINT ( 'NONE',  ( -0.5890775637208277571, 4.000000000000000000, -2.191977376924436172 ) ) ;
#177 = CARTESIAN_POINT ( 'NONE',  ( 2.003205428630325802, 3.919161676646704784, 1.154575407543700027 ) ) ;
#178 = CARTESIAN_POINT ( 'NONE',  ( 1.229093448964615476, 1.400000000000000133, -1.599333675781575037 ) ) ;
#179 = CARTESIAN_POINT ( 'NONE',  ( -1.087541720777701837, 4.000000000000000000, -1.886901009540784990 ) ) ;
#180 = CARTESIAN_POINT ( 'NONE',  ( -0.4202016417500014644, 0.8225806451612900361, -3.210104082232442035 ) ) ;
#181 = CARTESIAN_POINT ( 'NONE',  ( 0.5234957687185620712, 1.399999999999999911, -1.947945353336631324 ) ) ;
#182 = CARTESIAN_POINT ( 'NONE',  ( 2.191977376924388654, 4.000000000000000000, 0.5890775637208071069 ) ) ;
#183 = CARTESIAN_POINT ( 'NONE',  ( 2.159382072889496129, 4.000000000000000000, 0.2819501056824114671 ) ) ;
#184 = CARTESIAN_POINT ( 'NONE',  ( -1.229093448964689195, 1.400000000000000133, -1.599333675781500874 ) ) ;
#185 = CARTESIAN_POINT ( 'NONE',  ( -2.292557374810201942, 3.919161676646706560, 2.807573050922972117E-16 ) ) ;
#186 = PLANE ( 'NONE',  #2 ) ;
#187 = CARTESIAN_POINT ( 'NONE',  ( 1.229093448964602153, 1.250000000000000444, -1.599333675781561936 ) ) ;
#188 = CARTESIAN_POINT ( 'NONE',  ( -0.9310010707976835720, 1.250000000000000222, 1.616715107115058281 ) ) ;
#189 = CARTESIAN_POINT ( 'NONE',  ( -2.894062312289599464E-33, 4.000000000000000000, 0.000000000000000000 ) ) ;
#190 = CARTESIAN_POINT ( 'NONE',  ( 1.007237948963197738, 1.250000000000026201, -1.747572781587338309 ) ) ;
#191 = EDGE_LOOP ( 'NONE', ( #648 ) ) ;
#192 = CARTESIAN_POINT ( 'NONE',  ( -1.616846884351026414, 1.250000000000000222, 0.9310556547159359875 ) ) ;
#193 = DIRECTION ( 'NONE',  ( 1.000000000000000000, 3.690408752931816026E-17, 0.000000000000000000 ) ) ;
#194 = CARTESIAN_POINT ( 'NONE',  ( -0.9316951027909793348, 1.250000000000000222, -1.616504822968299671 ) ) ;
#195 = CARTESIAN_POINT ( 'NONE',  ( -1.850000000000000089, 1.250000000000000222, 0.2418018279991917263 ) ) ;
#196 = CARTESIAN_POINT ( 'NONE',  ( -1.361911676371575424E-33, 1.250000000000000222, 0.000000000000000000 ) ) ;
#197 = CARTESIAN_POINT ( 'NONE',  ( 2.000000000000000000, 1.250000000000000222, 0.2617993750502184969 ) ) ;
#198 = CARTESIAN_POINT ( 'NONE',  ( -2.292557374810201942, 3.919161676646706560, -0.3000950478843093516 ) ) ;
#199 = CARTESIAN_POINT ( 'NONE',  ( -0.2826717817143918898, 4.000000000000000000, 2.159453421137080387 ) ) ;
#200 = CARTESIAN_POINT ( 'NONE',  ( 1.479383650097977343, 1.250000000000000222, -1.136911440292301068 ) ) ;
#201 = ORIENTED_EDGE ( 'NONE', *, *, #378, .T. ) ;
#202 = STYLED_ITEM ( 'NONE', ( #355 ), #650 ) ;
#203 = CARTESIAN_POINT ( 'NONE',  ( -1.886901009540846053, 4.000000000000000000, 1.087541720777716936 ) ) ;
#204 = CARTESIAN_POINT ( 'NONE',  ( -1.850000000000000089, 1.250000000000000222, 2.265596578422603100E-16 ) ) ;
#205 = CARTESIAN_POINT ( 'NONE',  ( -2.463751613188804424, -2.299584678099213845E-16, -0.3218620088529206003 ) ) ;
#206 = CARTESIAN_POINT ( 'NONE',  ( 1.408883622627970622, 3.919161676646706560, -1.833282109347075473 ) ) ;
#207 = CARTESIAN_POINT ( 'NONE',  ( 2.198111877487234800, 1.683071513448249390E-17, -1.285979034689800793 ) ) ;
#208 =( NAMED_UNIT ( * ) PLANE_ANGLE_UNIT ( ) SI_UNIT ( $, .RADIAN. ) );
#209 = CARTESIAN_POINT ( 'NONE',  ( -2.463624310270756457, -2.299537698118910201E-16, 0.000000000000000000 ) ) ;
#210 = CARTESIAN_POINT ( 'NONE',  ( -1.675631520485413972, 0.8225806451612996950, -2.864141209236942487 ) ) ;
#211 = CARTESIAN_POINT ( 'NONE',  ( -1.995074817200025885, 4.000000000000000000, -0.8263870472332707218 ) ) ;
#212 = CARTESIAN_POINT ( 'NONE',  ( 2.147350111826414665, -5.978996614336978231E-17, -1.246967518399685781 ) ) ;
#213 = CARTESIAN_POINT ( 'NONE',  ( 3.210104082232442479, 0.8225806451612903691, 0.8404032604225700753 ) ) ;
#214 =( LENGTH_UNIT ( ) NAMED_UNIT ( * ) SI_UNIT ( .MILLI., .METRE. ) );
#215 = CARTESIAN_POINT ( 'NONE',  ( 1.969546248398285515, -6.635165548237238893E-17, 1.514364630265492950 ) ) ;
#216 = CARTESIAN_POINT ( 'NONE',  ( -0.8404032604230314840, 0.8225806451612901471, -3.210104082232442035 ) ) ;
#217 = CARTESIAN_POINT ( 'NONE',  ( -1.969546248398049482, -2.117202697702247297E-16, -1.514364630265766509 ) ) ;
#218 = CARTESIAN_POINT ( 'NONE',  ( -3.210104082232442479, 0.8225806451612901471, -0.8404032604230193826 ) ) ;
#219 = CARTESIAN_POINT ( 'NONE',  ( 1.972758934514031948, 0.8225806451612901471, -2.567013795208325178 ) ) ;
#220 = CARTESIAN_POINT ( 'NONE',  ( -1.229093439949829447, 1.400000000000000355, -1.599333684796360622 ) ) ;
#221 = SHAPE_DEFINITION_REPRESENTATION ( #319, #269 ) ;
#222 = CARTESIAN_POINT ( 'NONE',  ( -2.567013795208327398, 0.8225806451612902581, 1.972758934514029283 ) ) ;
#223 = CARTESIAN_POINT ( 'NONE',  ( -0.5234957687185608499, 1.400000000000000799, 1.947945353336630880 ) ) ;
#224 = CARTESIAN_POINT ( 'NONE',  ( -2.292557374810201942, 3.919161676646706560, 0.3000950478843099067 ) ) ;
#225 = CARTESIAN_POINT ( 'NONE',  ( -0.4202016417500027412, 0.8225806451612900361, 3.210104082232442479 ) ) ;
#226 = CARTESIAN_POINT ( 'NONE',  ( 1.229093448964692747, 1.400000000000000133, 1.599333675781497321 ) ) ;
#227 = CARTESIAN_POINT ( 'NONE',  ( -1.383070130451398816, 4.000000000000000000, 1.799692810254321484 ) ) ;
#228 = CARTESIAN_POINT ( 'NONE',  ( 1.408883615043911908, 3.919161676646710113, -1.833282116931135297 ) ) ;
#229 = CARTESIAN_POINT ( 'NONE',  ( -1.229093439949832112, 1.400000000000000799, 1.599333684796360622 ) ) ;
#230 = CARTESIAN_POINT ( 'NONE',  ( 0.5652323736886039063, 4.000000000000000000, -2.103248624859385796 ) ) ;
#231 = CLOSED_SHELL ( 'NONE', ( #69, #505, #469, #581, #136, #524, #10, #145 ) ) ;
#232 = CARTESIAN_POINT ( 'NONE',  ( 2.400369470581888098, -5.045251758124583401E-17, -0.6367596105035306930 ) ) ;
#233 = CARTESIAN_POINT ( 'NONE',  ( 1.747572776708516962, 1.400000000000000577, -1.007237960741798721 ) ) ;
#234 = CARTESIAN_POINT ( 'NONE',  ( -1.408883622628052779, 3.919161676646706560, 1.833282109346993760 ) ) ;
#235 = CARTESIAN_POINT ( 'NONE',  ( 2.804945252255143906, 0.8225806451612903691, 1.616669344778366879 ) ) ;
#236 = CARTESIAN_POINT ( 'NONE',  ( 1.137371312057086747, 1.250000000000000222, 1.478822920403204400 ) ) ;
#237 = CARTESIAN_POINT ( 'NONE',  ( 0.5658718116112473329, 4.000000000000000000, 2.102906534212754419 ) ) ;
#238 = CARTESIAN_POINT ( 'NONE',  ( -0.2617993750502142780, 1.250000000000000222, 2.000000000000000000 ) ) ;
#239 = CARTESIAN_POINT ( 'NONE',  ( -1.709177135145879545, 1.250000000000000222, 0.7079643498754186748 ) ) ;
#240 = CARTESIAN_POINT ( 'NONE',  ( 3.210104082232442479, 0.8225806451612903691, 4.607859233063393845E-16 ) ) ;
#241 = ORIENTED_EDGE ( 'NONE', *, *, #545, .F. ) ;
#242 = CARTESIAN_POINT ( 'NONE',  ( 1.327085024042195860, 4.000000000000000000, 1.726843291442872630 ) ) ;
#243 = DIRECTION ( 'NONE',  ( 1.000000000000000000, 3.690408752931816026E-17, 0.000000000000000000 ) ) ;
#244 = CARTESIAN_POINT ( 'NONE',  ( 0.2617993750502143335, 1.400000000000000133, 2.000000000000000000 ) ) ;
#245 = EDGE_LOOP ( 'NONE', ( #503 ) ) ;
#246 = CARTESIAN_POINT ( 'NONE',  ( -2.159453421137080387, 4.000000000000000000, 2.644567720103326888E-16 ) ) ;
#247 = CARTESIAN_POINT ( 'NONE',  ( -2.000000000000000000, 1.400000000000000133, 2.449293598294706414E-16 ) ) ;
#248 = EDGE_LOOP ( 'NONE', ( #142 ) ) ;
#249 = CARTESIAN_POINT ( 'NONE',  ( 1.801639163176456115, 1.250000000000000222, 0.4849276289536832985 ) ) ;
#250 = CARTESIAN_POINT ( 'NONE',  ( -2.463497007352708046, -2.299490718138606064E-16, 0.3218620088529206003 ) ) ;
#251 = ORIENTED_EDGE ( 'NONE', *, *, #95, .T. ) ;
#252 = PRESENTATION_LAYER_ASSIGNMENT (  '', '', ( #202 ) ) ;
#253 = CARTESIAN_POINT ( 'NONE',  ( -3.290084057799764761, -2.168404344971008868E-16, 0.8613419684877711147 ) ) ;
#254 = CARTESIAN_POINT ( 'NONE',  ( -1.327544875228547916, 4.000000000000000000, -1.726282538596999760 ) ) ;
#255 = CARTESIAN_POINT ( 'NONE',  ( -1.734723475976807094E-15, -1.390359626263029905E-16, -2.463624310270756457 ) ) ;
#256 = CARTESIAN_POINT ( 'NONE',  ( 2.935501494781853182, 0.000000000000000000, 1.717380001105942799 ) ) ;
#257 = CARTESIAN_POINT ( 'NONE',  ( 1.742045456088481492, -7.474736463476262748E-17, -1.742045456088483935 ) ) ;
#258 = CARTESIAN_POINT ( 'NONE',  ( -2.198111877487205934, -2.336711496315794734E-16, 1.285979034689689993 ) ) ;
#259 = CARTESIAN_POINT ( 'NONE',  ( -1.801849447323500497, 1.250000000000000222, 0.4842335969597660883 ) ) ;
#260 = CARTESIAN_POINT ( 'NONE',  ( 2.463624310270756457, 0.000000000000000000, 0.6449753184849938981 ) ) ;
#261 = AXIS2_PLACEMENT_3D ( 'NONE', #552, #137, #83 ) ;
#262 =( BOUNDED_SURFACE ( )  B_SPLINE_SURFACE ( 2, 3, ( 
 ( #572, #320, #627, #376, #535, #184, #134, #124, #585, #431, #323, #81, #178, #523, #266, #529, #273, #380, #280, #71, #26, #226, #578, #532, #244, #291, #35, #294, #542, #46, #390, #655, #549, #247 ),
 ( #640, #538, #450, #84, #495, #498, #604, #42, #644, #284, #38, #190, #187, #588, #138, #406, #141, #197, #491, #348, #298, #333, #337, #402, #600, #238, #340, #453, #90, #394, #443, #446, #149, #553 ),
 ( #49, #87, #287, #591, #546, #647, #194, #98, #502, #398, #488, #595, #146, #200, #344, #94, #109, #559, #157, #356, #507, #364, #416, #101, #457, #467, #116, #105, #564, #520, #310, #259, #153, #421 ) ),
 .UNSPECIFIED., .F., .T., .F. ) 
 B_SPLINE_SURFACE_WITH_KNOTS ( ( 3, 3 ),
 ( 4, 2, 2, 2, 2, 2, 2, 2, 2, 2, 2, 2, 2, 2, 2, 2, 4 ),
 ( 0.000000000000000000, 1.000000000000000000 ),
 ( -3.141592653589793116, -2.748893571891068976, -2.356194490192344837, -1.963495408493620697, -1.570796326794896558, -1.178097245096172418, -0.7853981633974482790, -0.3926990816987241395, 0.000000000000000000, 0.3926990816987241395, 0.7853981633974482790, 1.178097245096172418, 1.570796326794896558, 1.963495408493620697, 2.356194490192344837, 2.748893571891068976, 3.141592653589793116 ),
 .UNSPECIFIED. ) 
 GEOMETRIC_REPRESENTATION_ITEM ( )  RATIONAL_B_SPLINE_SURFACE ( (
 ( 1.000000000000000000, 1.000000000000000000, 1.000000000000000000, 1.000000000000000000, 1.000000000000000000, 1.000000000000000000, 1.000000000000000000, 1.000000000000000000, 1.000000000000000000, 1.000000000000000000, 1.000000000000000000, 1.000000000000000000, 1.000000000000000000, 1.000000000000000000, 1.000000000000000000, 1.000000000000000000, 1.000000000000000000, 1.000000000000000000, 1.000000000000000000, 1.000000000000000000, 1.000000000000000000, 1.000000000000000000, 1.000000000000000000, 1.000000000000000000, 1.000000000000000000, 1.000000000000000000, 1.000000000000000000, 1.000000000000000000, 1.000000000000000000, 1.000000000000000000, 1.000000000000000000, 1.000000000000000000, 1.000000000000000000, 1.000000000000000000),
 ( 0.2121320343559642274, 0.2121320343559642274, 0.2121320343559642274, 0.2121320343559642274, 0.2121320343559643107, 0.2121320343559643107, 0.2121320343559641719, 0.2121320343559641719, 0.2121320343559642274, 0.2121320343559642274, 0.2121320343559640054, 0.2121320343559640054, 0.2121320343559643107, 0.2121320343559643107, 0.2121320343559642552, 0.2121320343559642552, 0.2121320343559642274, 0.2121320343559642274, 0.2121320343559642552, 0.2121320343559642552, 0.2121320343559641719, 0.2121320343559641719, 0.2121320343559642552, 0.2121320343559642552, 0.2121320343559642274, 0.2121320343559642274, 0.2121320343559640609, 0.2121320343559640609, 0.2121320343559643107, 0.2121320343559643107, 0.2121320343559641719, 0.2121320343559641719, 0.2121320343559642274, 0.2121320343559642274),
 ( 1.000000000000000000, 1.000000000000000000, 1.000000000000000000, 1.000000000000000000, 1.000000000000000000, 1.000000000000000000, 1.000000000000000000, 1.000000000000000000, 1.000000000000000000, 1.000000000000000000, 1.000000000000000000, 1.000000000000000000, 1.000000000000000000, 1.000000000000000000, 1.000000000000000000, 1.000000000000000000, 1.000000000000000000, 1.000000000000000000, 1.000000000000000000, 1.000000000000000000, 1.000000000000000000, 1.000000000000000000, 1.000000000000000000, 1.000000000000000000, 1.000000000000000000, 1.000000000000000000, 1.000000000000000000, 1.000000000000000000, 1.000000000000000000, 1.000000000000000000, 1.000000000000000000, 1.000000000000000000, 1.000000000000000000, 1.000000000000000000) ) ) 
 REPRESENTATION_ITEM ( '' )  SURFACE ( )  );
#263 = CARTESIAN_POINT ( 'NONE',  ( -2.400241672753097077, -2.276146914091002365E-16, 0.6370678210935369901 ) ) ;
#264 = CARTESIAN_POINT ( 'NONE',  ( 2.935501494781987741, 0.000000000000000000, -1.717380001106085796 ) ) ;
#265 = CARTESIAN_POINT ( 'NONE',  ( -2.292557374810201498, 3.919161676646708337, -7.047314121155778821E-16 ) ) ;
#266 = CARTESIAN_POINT ( 'NONE',  ( 1.747572781587358293, 1.400000000000000133, -1.007237948963231045 ) ) ;
#267 = APPLICATION_PROTOCOL_DEFINITION ( 'draft international standard', 'automotive_design', 1998, #282 ) ;
#268 = CARTESIAN_POINT ( 'NONE',  ( 2.463624310270756457, -4.811815544071485002E-17, 3.017069625874687299E-16 ) ) ;
#269 = ADVANCED_BREP_SHAPE_REPRESENTATION ( 'Part5_Lockpin', ( #650, #21 ), #66 ) ;
#270 = CARTESIAN_POINT ( 'NONE',  ( 1.229093439949829669, 1.399999999999999689, -1.599333684796360844 ) ) ;
#271 = CARTESIAN_POINT ( 'NONE',  ( -2.159453421137080387, 4.000000000000000000, 2.644567720103326888E-16 ) ) ;
#272 = CARTESIAN_POINT ( 'NONE',  ( -1.154575407543699139, 3.919161676646708337, 2.003205428630324025 ) ) ;
#273 = CARTESIAN_POINT ( 'NONE',  ( 2.000000000000000000, 1.400000000000000133, -0.2617993750502184414 ) ) ;
#274 = CARTESIAN_POINT ( 'NONE',  ( -0.2945967220847865442, 4.000000000000000000, 2.250553258282208091 ) ) ;
#275 = CARTESIAN_POINT ( 'NONE',  ( 2.232888242759579533, 3.919161676646706560, 0.6000720426288362885 ) ) ;
#276 = CARTESIAN_POINT ( 'NONE',  ( 1.599333684796361066, 1.400000000000000799, -1.229093439949829669 ) ) ;
#277 = CARTESIAN_POINT ( 'NONE',  ( -1.966502807382724205, 4.000000000000000000, 1.133421327478938423 ) ) ;
#278 = EDGE_CURVE ( 'NONE', #415, #415, #360, .T. ) ;
#279 = CARTESIAN_POINT ( 'NONE',  ( -0.3000950586098674600, 3.919161676646710113, -2.292557374810201942 ) ) ;
#280 = CARTESIAN_POINT ( 'NONE',  ( 1.947945348457825299, 1.400000000000000133, 0.5234957804970397088 ) ) ;
#281 = CARTESIAN_POINT ( 'NONE',  ( -0.6000720525379555914, 3.919161676646715442, 2.232888238655082347 ) ) ;
#282 = APPLICATION_CONTEXT ( 'automotive_design' ) ;
#283 = CARTESIAN_POINT ( 'NONE',  ( 1.526964157742519035, 4.000000000000000000, 1.526964157742519035 ) ) ;
#284 = CARTESIAN_POINT ( 'NONE',  ( 0.2617993750501081407, 1.250000000000000222, -2.000000000000000000 ) ) ;
#285 = CARTESIAN_POINT ( 'NONE',  ( 0.3000950478843096847, 3.919161676646706560, 2.292557374810201942 ) ) ;
#286 = DIRECTION ( 'NONE',  ( -3.690408752931816026E-17, 1.000000000000000000, 0.000000000000000000 ) ) ;
#287 = CARTESIAN_POINT ( 'NONE',  ( -1.801849447323476072, 1.250000000000000222, -0.4842335969597741374 ) ) ;
#288 = EDGE_LOOP ( 'NONE', ( #592 ) ) ;
#289 = CARTESIAN_POINT ( 'NONE',  ( 1.709177135145880655, 1.250000000000000222, -0.7079643498754156772 ) ) ;
#290 = CARTESIAN_POINT ( 'NONE',  ( -1.086847675270799174, 4.000000000000000000, 1.887111265815890171 ) ) ;
#291 = CARTESIAN_POINT ( 'NONE',  ( -0.2617993750502142780, 1.400000000000000133, 2.000000000000000000 ) ) ;
#292 = CARTESIAN_POINT ( 'NONE',  ( 1.137472169986929238, 1.250000000000000222, -1.478923778333182781 ) ) ;
#293 = DIRECTION ( 'NONE',  ( 3.690408752931816026E-17, -1.000000000000000000, 0.000000000000000000 ) ) ;
#294 = CARTESIAN_POINT ( 'NONE',  ( -1.007237948963329410, 1.400000000000000133, 1.747572781587317658 ) ) ;
#295 = FACE_OUTER_BOUND ( 'NONE', #492, .T. ) ;
#296 = CARTESIAN_POINT ( 'NONE',  ( -1.478923778332771777, 1.250000000000000222, -1.137472169987485460 ) ) ;
#297 = CARTESIAN_POINT ( 'NONE',  ( -0.5659264191957499301, 4.000000000000000000, 2.103038368584158491 ) ) ;
#298 = CARTESIAN_POINT ( 'NONE',  ( 1.599333675781483999, 1.250000000000026645, 1.229093448964653446 ) ) ;
#299 = EDGE_LOOP ( 'NONE', ( #550 ) ) ;
#300 = CARTESIAN_POINT ( 'NONE',  ( -1.726843291442826001, 4.000000000000000000, 1.327085024042212291 ) ) ;
#301 = FILL_AREA_STYLE_COLOUR ( '', #315 ) ;
#302 = CARTESIAN_POINT ( 'NONE',  ( 2.463624310270756457, -4.811815544071485002E-17, 3.017069625874687299E-16 ) ) ;
#303 = CARTESIAN_POINT ( 'NONE',  ( 1.801507385940834594, 1.250000000000000222, -0.4848730450347601972 ) ) ;
#304 = CARTESIAN_POINT ( 'NONE',  ( -2.292557374810201942, 3.919161676646708337, -5.615146101845945220E-16 ) ) ;
#305 = CARTESIAN_POINT ( 'NONE',  ( 1.129846147195895418E-33, -1.390359626263029166E-16, 2.463624310270756457 ) ) ;
#306 = CARTESIAN_POINT ( 'NONE',  ( 0.3000950478843112390, 3.919161676646706560, -2.292557374810201942 ) ) ;
#307 = CARTESIAN_POINT ( 'NONE',  ( 3.210104082232442479, 0.8225806451612903691, -0.8404032604225691871 ) ) ;
#308 = CARTESIAN_POINT ( 'NONE',  ( -1.742045456088483935, -2.033245606178433166E-16, -1.742045456088481492 ) ) ;
#309 = CARTESIAN_POINT ( 'NONE',  ( -1.285979034689759937, -2.000097193626223002E-16, 2.198111877487276100 ) ) ;
#310 = CARTESIAN_POINT ( 'NONE',  ( -1.616504822968258814, 1.250000000000000222, 0.9316951027910711502 ) ) ;
#311 = CARTESIAN_POINT ( 'NONE',  ( -0.6449753184849934540, -1.322224428561705122E-16, 2.463624310270756457 ) ) ;
#312 = SURFACE_STYLE_FILL_AREA ( #363 ) ;
#313 = CARTESIAN_POINT ( 'NONE',  ( 1.742045456088484379, -7.474736463476251655E-17, 1.742045456088481492 ) ) ;
#314 = CARTESIAN_POINT ( 'NONE',  ( -0.8404032604225696312, 0.8225806451612902581, 3.210104082232442479 ) ) ;
#315 = COLOUR_RGB ( '',0.7921568627450980005, 0.8196078431372548767, 0.9333333333333333481 ) ;
#316 = CARTESIAN_POINT ( 'NONE',  ( -2.003205428630323581, 3.919161676646708337, -1.154575407543700249 ) ) ;
#317 = CARTESIAN_POINT ( 'NONE',  ( -3.290084057799764761, -2.168404344971008868E-16, -0.8613419684877711147 ) ) ;
#318 = CARTESIAN_POINT ( 'NONE',  ( -3.210104082232442479, 0.8225806451612901471, 0.4202016417500009093 ) ) ;
#319 = PRODUCT_DEFINITION_SHAPE ( 'NONE', 'NONE',  #392 ) ;
#320 = CARTESIAN_POINT ( 'NONE',  ( -2.000000000000000000, 1.400000000000000133, -0.2617993750502140560 ) ) ;
#321 = CARTESIAN_POINT ( 'NONE',  ( -2.103248624859265004, 4.000000000000000000, -0.5652323736888609229 ) ) ;
#322 = CARTESIAN_POINT ( 'NONE',  ( -1.616669344778363770, 0.8225806451612905912, 2.804945252255145238 ) ) ;
#323 = CARTESIAN_POINT ( 'NONE',  ( 0.5234957804971280826, 1.400000000000000133, -1.947945348457788883 ) ) ;
#324 = CARTESIAN_POINT ( 'NONE',  ( 1.833282109347027289, 3.919161676646715442, 1.408883622628012589 ) ) ;
#325 = CARTESIAN_POINT ( 'NONE',  ( 3.210104082232441591, 0.8225806451612901471, -0.4202016417500014644 ) ) ;
#326 = CARTESIAN_POINT ( 'NONE',  ( -1.599333684796360178, 1.400000000000000355, 1.229093439949830557 ) ) ;
#327 = CARTESIAN_POINT ( 'NONE',  ( -0.2826717817143905576, 4.000000000000000000, -2.159453421137080387 ) ) ;
#328 = B_SPLINE_CURVE_WITH_KNOTS ( 'NONE', 3,
 ( #547, #195, #645, #239, #192, #589, #404, #500, #188, #543, #99, #408, #396, #601, #606, #150, #504, #236, #509, #346, #143, #50, #249, #92, #455, #155, #303, #289, #593, #342, #40, #292, #391, #139, #338, #496, #44, #649, #400, #597, #147, #551, #96, #296, #47, #362, #13, #463, #59 ),
 .UNSPECIFIED., .T., .F.,
 ( 4, 3, 3, 3, 3, 3, 3, 3, 3, 3, 3, 3, 3, 3, 3, 3, 4 ),
 ( 0.000000000000000000, 0.06250000000000000000, 0.1250000000000000000, 0.1875000000000000000, 0.2500000000000000000, 0.3125000000000000000, 0.3750000000000000000, 0.4375000000000000000, 0.5000000000000000000, 0.5625000000000000000, 0.6250000000000000000, 0.6875000000000000000, 0.7500000000000000000, 0.8125000000000000000, 0.8750000000000000000, 0.9375000000000000000, 1.000000000000000000 ),
 .UNSPECIFIED. ) ;
#329 = CARTESIAN_POINT ( 'NONE',  ( -2.003205428630324469, 3.919161676646709225, 1.154575407543700027 ) ) ;
#330 = DIRECTION ( 'NONE',  ( -1.000000000000000000, -3.690408752931816026E-17, 0.000000000000000000 ) ) ;
#331 = CARTESIAN_POINT ( 'NONE',  ( 1.886901009540773222, 4.000000000000000000, -1.087541720777729370 ) ) ;
#332 = CARTESIAN_POINT ( 'NONE',  ( 2.102906534212821921, 4.000000000000000000, -0.5658718116111985941 ) ) ;
#333 = CARTESIAN_POINT ( 'NONE',  ( 1.229093448964706070, 1.249999999999974243, 1.599333675781536401 ) ) ;
#334 = CARTESIAN_POINT ( 'NONE',  ( -0.5890775637208102156, 4.000000000000000000, 2.191977376924437060 ) ) ;
#335 = AXIS2_PLACEMENT_3D ( 'NONE', #590, #286, #639 ) ;
#336 = CARTESIAN_POINT ( 'NONE',  ( -2.159453421137080387, 4.000000000000000000, 2.644567720103326888E-16 ) ) ;
#337 = CARTESIAN_POINT ( 'NONE',  ( 1.007237948963314755, 1.250000000000000222, 1.747572781587312551 ) ) ;
#338 = CARTESIAN_POINT ( 'NONE',  ( 0.4849276289532724604, 1.250000000000000222, -1.801639163176662839 ) ) ;
#339 = CARTESIAN_POINT ( 'NONE',  ( 1.995074817200024553, 4.000000000000000000, 0.8263870472332734973 ) ) ;
#340 = CARTESIAN_POINT ( 'NONE',  ( -0.5234957804970317152, 1.250000000000026423, 1.947945348457861492 ) ) ;
#341 = EDGE_LOOP ( 'NONE', ( #345 ) ) ;
#342 = CARTESIAN_POINT ( 'NONE',  ( 1.478822920403298324, 1.250000000000000222, -1.137371312057041228 ) ) ;
#343 = CARTESIAN_POINT ( 'NONE',  ( 0.000000000000000000, 4.000000000000000000, 2.159453421137080387 ) ) ;
#344 = CARTESIAN_POINT ( 'NONE',  ( 1.616504822968300559, 1.250000000000000222, -0.9316951027909763372 ) ) ;
#345 = ORIENTED_EDGE ( 'NONE', *, *, #278, .T. ) ;
#346 = CARTESIAN_POINT ( 'NONE',  ( 1.478923778333139261, 1.250000000000000222, 1.137472169987021386 ) ) ;
#347 = CARTESIAN_POINT ( 'NONE',  ( 0.8402379520974314620, 0.8225806451612902581, 3.126553665355818357 ) ) ;
#348 = CARTESIAN_POINT ( 'NONE',  ( 1.747572781587312107, 1.250000000000000222, 1.007237948963302321 ) ) ;
#349 = B_SPLINE_CURVE_WITH_KNOTS ( 'NONE', 3,
 ( #620, #325, #522, #478, #19, #219, #423, #531, #481, #180, #622, #129, #474, #375, #75, #372, #120, #318, #525, #72, #222, #426, #322, #25, #225, #430, #347, #537, #397, #34, #235, #440, #587, #240 ),
 .UNSPECIFIED., .T., .F.,
 ( 4, 2, 2, 2, 2, 2, 2, 2, 2, 2, 2, 2, 2, 2, 2, 2, 4 ),
 ( 0.000000000000000000, 0.06250000000000000000, 0.1250000000000000000, 0.1875000000000000000, 0.2500000000000000000, 0.3125000000000000000, 0.3750000000000000000, 0.4375000000000000000, 0.5000000000000000000, 0.5625000000000000000, 0.6250000000000000000, 0.6875000000000000000, 0.7500000000000000000, 0.8125000000000000000, 0.8750000000000000000, 0.9375000000000000000, 1.000000000000000000 ),
 .UNSPECIFIED. ) ;
#350 = CARTESIAN_POINT ( 'NONE',  ( 1.886901009540833840, 4.000000000000000000, 1.087541720777699172 ) ) ;
#351 = CARTESIAN_POINT ( 'NONE',  ( 1.086847675271434222, 4.000000000000000000, -1.887111265815505812 ) ) ;
#352 = CARTESIAN_POINT ( 'NONE',  ( 2.147702139660960796, -5.977697487735093560E-17, 1.246752186919594996 ) ) ;
#353 = CARTESIAN_POINT ( 'NONE',  ( -1.154575397634570288, 3.919161676646699455, -2.003205432734824321 ) ) ;
#354 = CARTESIAN_POINT ( 'NONE',  ( 0.2826717817143918898, 4.000000000000000000, 2.159453421137080387 ) ) ;
#355 = PRESENTATION_STYLE_ASSIGNMENT (( #11 ) ) ;
#356 = CARTESIAN_POINT ( 'NONE',  ( 1.616504822968274135, 1.250000000000000222, 0.9316951027910687078 ) ) ;
#357 = CARTESIAN_POINT ( 'NONE',  ( 2.232888238655063251, 3.919161676646731873, 0.6000720525379790171 ) ) ;
#358 = CARTESIAN_POINT ( 'NONE',  ( -1.285979034689970879, -2.000097193626272553E-16, -2.198111877486924381 ) ) ;
#359 = EDGE_CURVE ( 'NONE', #466, #466, #156, .T. ) ;
#360 = B_SPLINE_CURVE_WITH_KNOTS ( 'NONE', 3,
 ( #302, #67, #52, #567, #352, #215, #313, #470, #15, #164, #617, #419, #305, #4, #17, #511, #361, #167, #113, #161, #556, #61, #263, #250, #209, #205, #465, #517, #63, #217, #308, #410, #608, #367, #514, #56, #255, #461, #8, #413, #611, #562, #257, #12, #212, #615, #232, #574, #268 ),
 .UNSPECIFIED., .T., .F.,
 ( 4, 3, 3, 3, 3, 3, 3, 3, 3, 3, 3, 3, 3, 3, 3, 3, 4 ),
 ( 0.000000000000000000, 0.06250000000000000000, 0.1250000000000000000, 0.1875000000000000000, 0.2500000000000000000, 0.3125000000000000000, 0.3750000000000000000, 0.4375000000000000000, 0.5000000000000000000, 0.5625000000000000000, 0.6250000000000000000, 0.6875000000000000000, 0.7500000000000000000, 0.8125000000000000000, 0.8750000000000000000, 0.9375000000000000000, 1.000000000000000000 ),
 .UNSPECIFIED. ) ;
#361 = CARTESIAN_POINT ( 'NONE',  ( -1.246752186919629635, -1.850462144597537716E-16, 2.147702139660972787 ) ) ;
#362 = CARTESIAN_POINT ( 'NONE',  ( -1.709177135145881543, 1.250000000000000222, -0.7079643498754135678 ) ) ;
#363 = FILL_AREA_STYLE ('',( #301 ) ) ;
#364 = CARTESIAN_POINT ( 'NONE',  ( 1.136911440292354358, 1.250000000000000222, 1.479383650097897629 ) ) ;
#365 = CARTESIAN_POINT ( 'NONE',  ( 0.6449753184849932319, -8.461799164093039925E-17, 2.463624310270756457 ) ) ;
#366 = CARTESIAN_POINT ( 'NONE',  ( -1.086902282854927071, 4.000000000000000000, -1.887243100187359302 ) ) ;
#367 = CARTESIAN_POINT ( 'NONE',  ( -0.9418635644518054129, -1.737945780495079332E-16, -2.273859791204035030 ) ) ;
#368 = CARTESIAN_POINT ( 'NONE',  ( -1.947945353336631547, 1.400000000000000133, -0.5234957687185620712 ) ) ;
#369 = UNCERTAINTY_MEASURE_WITH_UNIT (LENGTH_MEASURE( 1.000000000000000082E-05 ), #214, 'distance_accuracy_value', 'NONE');
#370 = CARTESIAN_POINT ( 'NONE',  ( 0.3000950586098665163, 3.919161676646709225, 2.292557374810202386 ) ) ;
#371 = CARTESIAN_POINT ( 'NONE',  ( 2.463624310270756457, 0.000000000000000000, 3.017069625874687299E-16 ) ) ;
#372 = CARTESIAN_POINT ( 'NONE',  ( -3.126553665355819245, 0.8225806451612901471, -0.8402379520974295746 ) ) ;
#373 = CARTESIAN_POINT ( 'NONE',  ( -1.947945353336631547, 1.399999999999999911, 0.5234957687185609609 ) ) ;
#374 = CARTESIAN_POINT ( 'NONE',  ( -2.250553258282208091, 4.000000000000000000, 2.756132844065952657E-16 ) ) ;
#375 = CARTESIAN_POINT ( 'NONE',  ( -2.567013795208323845, 0.8225806451612901471, -1.972758934514032392 ) ) ;
#376 = CARTESIAN_POINT ( 'NONE',  ( -1.747572781587331869, 1.400000000000000133, -1.007237948963295660 ) ) ;
#377 = CARTESIAN_POINT ( 'NONE',  ( -2.003205432734840308, 3.919161676646674586, 1.154575397634566736 ) ) ;
#378 = EDGE_CURVE ( 'NONE', #108, #108, #349, .T. ) ;
#379 = CARTESIAN_POINT ( 'NONE',  ( 1.408883615043910575, 3.919161676646707448, 1.833282116931135741 ) ) ;
#380 = CARTESIAN_POINT ( 'NONE',  ( 2.000000000000000000, 1.400000000000000133, 0.2617993750502184414 ) ) ;
#381 = CARTESIAN_POINT ( 'NONE',  ( -1.133421327478922880, 4.000000000000000000, -1.966502807382602080 ) ) ;
#382 =( BOUNDED_SURFACE ( )  B_SPLINE_SURFACE ( 2, 3, ( 
 ( #652, #198, #403, #605, #154, #641, #353, #106, #411, #306, #512, #458, #206, #58, #5, #560, #609, #158, #357, #480, #324, #579, #486, #439, #285, #483, #281, #638, #234, #489, #377, #624, #224, #185 ),
 ( #374, #125, #575, #85, #33, #76, #381, #176, #428, #628, #122, #635, #30, #573, #74, #82, #388, #530, #182, #135, #583, #536, #425, #36, #533, #274, #334, #27, #227, #586, #277, #24, #540, #173 ),
 ( #271, #477, #321, #527, #432, #632, #179, #128, #327, #79, #230, #436, #385, #131, #331, #88, #557, #444, #448, #350, #451, #242, #441, #653, #354, #199, #493, #1, #642, #300, #203, #103, #554, #246 ) ),
 .UNSPECIFIED., .F., .T., .T. ) 
 B_SPLINE_SURFACE_WITH_KNOTS ( ( 3, 3 ),
 ( 4, 2, 2, 2, 2, 2, 2, 2, 2, 2, 2, 2, 2, 2, 2, 2, 4 ),
 ( 0.000000000000000000, 1.000000000000000000 ),
 ( -3.141592653589793116, -2.748893571891068976, -2.356194490192344837, -1.963495408493620697, -1.570796326794896558, -1.178097245096172418, -0.7853981633974482790, -0.3926990816987241395, 0.000000000000000000, 0.3926990816987241395, 0.7853981633974482790, 1.178097245096172418, 1.570796326794896558, 1.963495408493620697, 2.356194490192344837, 2.748893571891068976, 3.141592653589793116 ),
 .UNSPECIFIED. ) 
 GEOMETRIC_REPRESENTATION_ITEM ( )  RATIONAL_B_SPLINE_SURFACE ( (
 ( 1.000000000000000000, 1.000000000000000000, 1.000000000000000000, 1.000000000000000000, 1.000000000000000000, 1.000000000000000000, 1.000000000000000000, 1.000000000000000000, 1.000000000000000000, 1.000000000000000000, 1.000000000000000000, 1.000000000000000000, 1.000000000000000000, 1.000000000000000000, 1.000000000000000000, 1.000000000000000000, 1.000000000000000000, 1.000000000000000000, 1.000000000000000000, 1.000000000000000000, 1.000000000000000000, 1.000000000000000000, 1.000000000000000000, 1.000000000000000000, 1.000000000000000000, 1.000000000000000000, 1.000000000000000000, 1.000000000000000000, 1.000000000000000000, 1.000000000000000000, 1.000000000000000000, 1.000000000000000000, 1.000000000000000000, 1.000000000000000000),
 ( 0.2564147090047907418, 0.2564147090047907418, 0.2564147090047906308, 0.2564147090047906308, 0.2564147090047907418, 0.2564147090047907418, 0.2564147090047907418, 0.2564147090047907418, 0.2564147090047907418, 0.2564147090047907418, 0.2564147090047907418, 0.2564147090047907418, 0.2564147090047905753, 0.2564147090047905753, 0.2564147090047907418, 0.2564147090047907418, 0.2564147090047907418, 0.2564147090047907418, 0.2564147090047907418, 0.2564147090047907418, 0.2564147090047907418, 0.2564147090047907418, 0.2564147090047907418, 0.2564147090047907418, 0.2564147090047907418, 0.2564147090047907418, 0.2564147090047907418, 0.2564147090047907418, 0.2564147090047906863, 0.2564147090047906863, 0.2564147090047907973, 0.2564147090047907973, 0.2564147090047907418, 0.2564147090047907418),
 ( 1.000000000000000000, 1.000000000000000000, 1.000000000000000000, 1.000000000000000000, 1.000000000000000000, 1.000000000000000000, 1.000000000000000000, 1.000000000000000000, 1.000000000000000000, 1.000000000000000000, 1.000000000000000000, 1.000000000000000000, 1.000000000000000000, 1.000000000000000000, 1.000000000000000000, 1.000000000000000000, 1.000000000000000000, 1.000000000000000000, 1.000000000000000000, 1.000000000000000000, 1.000000000000000000, 1.000000000000000000, 1.000000000000000000, 1.000000000000000000, 1.000000000000000000, 1.000000000000000000, 1.000000000000000000, 1.000000000000000000, 1.000000000000000000, 1.000000000000000000, 1.000000000000000000, 1.000000000000000000, 1.000000000000000000, 1.000000000000000000) ) ) 
 REPRESENTATION_ITEM ( '' )  SURFACE ( )  );
#383 = CARTESIAN_POINT ( 'NONE',  ( -1.833282116931134853, 3.919161676646709225, -1.408883615043910797 ) ) ;
#384 = CARTESIAN_POINT ( 'NONE',  ( -2.000000000000000000, 1.400000000000000577, 0.2617993877991481311 ) ) ;
#385 = CARTESIAN_POINT ( 'NONE',  ( 1.327085024042135686, 4.000000000000000000, -1.726843291442901940 ) ) ;
#386 = DIRECTION ( 'NONE',  ( -1.000000000000000000, 0.000000000000000000, 0.000000000000000000 ) ) ;
#387 = FACE_OUTER_BOUND ( 'NONE', #288, .T. ) ;
#388 = CARTESIAN_POINT ( 'NONE',  ( 2.250553258282208091, 4.000000000000000000, -0.2945967220847439672 ) ) ;
#389 = FACE_OUTER_BOUND ( 'NONE', #596, .T. ) ;
#390 = CARTESIAN_POINT ( 'NONE',  ( -1.747572781587316548, 1.400000000000000133, 1.007237948963330743 ) ) ;
#391 = CARTESIAN_POINT ( 'NONE',  ( 0.9310010707975606703, 1.250000000000000222, -1.616715107115097805 ) ) ;
#392 = PRODUCT_DEFINITION ( 'General', '', #476, #111 ) ;
#393 = CARTESIAN_POINT ( 'NONE',  ( -1.887243100187598666, 4.000000000000000000, 1.086902282854650847 ) ) ;
#394 = CARTESIAN_POINT ( 'NONE',  ( -1.599333675781487996, 1.249999999999974021, 1.229093448964675650 ) ) ;
#395 = EDGE_LOOP ( 'NONE', ( #241 ) ) ;
#396 = CARTESIAN_POINT ( 'NONE',  ( 0.000000000000000000, 1.250000000000000222, 1.850000000000000089 ) ) ;
#397 = CARTESIAN_POINT ( 'NONE',  ( 1.972758934514034612, 0.8225806451612903691, 2.567013795208324289 ) ) ;
#398 = CARTESIAN_POINT ( 'NONE',  ( 0.2421644219213499871, 1.250000000000000222, -1.850000000000000089 ) ) ;
#399 = EDGE_LOOP ( 'NONE', ( #508 ) ) ;
#400 = CARTESIAN_POINT ( 'NONE',  ( -0.4848730450354607480, 1.250000000000000222, -1.801507385940492867 ) ) ;
#401 = CARTESIAN_POINT ( 'NONE',  ( 0.2819501056835276298, 4.000000000000000000, 2.159524769384665088 ) ) ;
#402 = CARTESIAN_POINT ( 'NONE',  ( 0.5234957804970431505, 1.250000000000000222, 1.947945348457835513 ) ) ;
#403 = CARTESIAN_POINT ( 'NONE',  ( -2.232888238655094781, 3.919161676646687464, -0.6000720525379611425 ) ) ;
#404 = CARTESIAN_POINT ( 'NONE',  ( -1.308147545195114114, 1.250000000000000222, 1.308147545195112116 ) ) ;
#405 = SURFACE_SIDE_STYLE ('',( #312 ) ) ;
#406 = CARTESIAN_POINT ( 'NONE',  ( 1.947945348457808867, 1.250000000000000222, -0.5234957804971220874 ) ) ;
#407 = EDGE_LOOP ( 'NONE', ( #43 ) ) ;
#408 = CARTESIAN_POINT ( 'NONE',  ( -0.2414427477086637797, 1.250000000000000222, 1.849928682673830149 ) ) ;
#409 = CARTESIAN_POINT ( 'NONE',  ( -2.159453421137080387, 4.000000000000000000, -0.2830333959154380241 ) ) ;
#410 = CARTESIAN_POINT ( 'NONE',  ( -1.514544663778919054, -1.949288514654618788E-16, -1.969726281911196475 ) ) ;
#411 = CARTESIAN_POINT ( 'NONE',  ( -0.3000950478843082969, 3.919161676646706560, -2.292557374810201942 ) ) ;
#412 = CARTESIAN_POINT ( 'NONE',  ( -0.6449753184853481702, -1.322224428561835284E-16, -2.463624310270756457 ) ) ;
#413 = CARTESIAN_POINT ( 'NONE',  ( 0.9418635644517122651, -1.042773472031013389E-16, -2.273859791204126068 ) ) ;
#414 = CARTESIAN_POINT ( 'NONE',  ( 0.8404032604225691871, 0.8225806451612902581, 3.210104082232442479 ) ) ;
#415 = VERTEX_POINT ( 'NONE', #104 ) ;
#416 = CARTESIAN_POINT ( 'NONE',  ( 0.9316951027910679306, 1.250000000000000222, 1.616504822968274580 ) ) ;
#417 =( GEOMETRIC_REPRESENTATION_CONTEXT ( 3 ) GLOBAL_UNCERTAINTY_ASSIGNED_CONTEXT ( ( #619 ) ) GLOBAL_UNIT_ASSIGNED_CONTEXT ( ( #654, #208, #3 ) ) REPRESENTATION_CONTEXT ( 'NONE', 'WORKASPACE' ) );
#418 = CARTESIAN_POINT ( 'NONE',  ( 3.290084057799765205, 0.000000000000000000, 4.029190910310218403E-16 ) ) ;
#419 = CARTESIAN_POINT ( 'NONE',  ( 0.3218620088528668099, -1.271579388792345765E-16, 2.463497007352632995 ) ) ;
#420 = CARTESIAN_POINT ( 'NONE',  ( -2.000000000000000000, 1.400000000000000577, -4.607859233063393845E-16 ) ) ;
#421 = CARTESIAN_POINT ( 'NONE',  ( -1.850000000000000089, 1.250000000000000222, 2.265596578422603100E-16 ) ) ;
#422 = CARTESIAN_POINT ( 'NONE',  ( 3.290084057799765205, 0.000000000000000000, 0.8613419684873099280 ) ) ;
#423 = CARTESIAN_POINT ( 'NONE',  ( 1.616669344778363770, 0.8225806451612901471, -2.804945252255147015 ) ) ;
#424 = CARTESIAN_POINT ( 'NONE',  ( -1.007237960741798499, 1.399999999999999911, 1.747572776708515407 ) ) ;
#425 = CARTESIAN_POINT ( 'NONE',  ( 1.133421327478918661, 4.000000000000000000, 1.966502807382603413 ) ) ;
#426 = CARTESIAN_POINT ( 'NONE',  ( -1.972758934514034168, 0.8225806451612900361, 2.567013795208322957 ) ) ;
#427 = FACE_OUTER_BOUND ( 'NONE', #102, .T. ) ;
#428 = CARTESIAN_POINT ( 'NONE',  ( -0.2945967220847849899, 4.000000000000000000, -2.250553258282208091 ) ) ;
#429 = DIRECTION ( 'NONE',  ( 0.000000000000000000, 0.000000000000000000, 1.000000000000000000 ) ) ;
#430 = CARTESIAN_POINT ( 'NONE',  ( 0.4202016417500009093, 0.8225806451612902581, 3.210104082232442479 ) ) ;
#431 = CARTESIAN_POINT ( 'NONE',  ( 0.2617993750501080852, 1.400000000000000133, -2.000000000000000000 ) ) ;
#432 = CARTESIAN_POINT ( 'NONE',  ( -1.726843291442823780, 4.000000000000000000, -1.327085024042214290 ) ) ;
#433 = APPLICATION_PROTOCOL_DEFINITION ( 'draft international standard', 'automotive_design', 1998, #598 ) ;
#434 = CARTESIAN_POINT ( 'NONE',  ( 1.154575407543700472, 3.919161676646708337, -2.003205428630323581 ) ) ;
#435 = FACE_OUTER_BOUND ( 'NONE', #447, .T. ) ;
#436 = CARTESIAN_POINT ( 'NONE',  ( 1.087541720777944310, 4.000000000000000000, -1.886901009540663088 ) ) ;
#437 = CARTESIAN_POINT ( 'NONE',  ( -1.526964157742520367, 4.000000000000000000, 1.526964157742517925 ) ) ;
#438 = CARTESIAN_POINT ( 'NONE',  ( 2.000000000000000000, 1.400000000000000577, 0.2617993877991496299 ) ) ;
#439 = CARTESIAN_POINT ( 'NONE',  ( 0.6000720525379671377, 3.919161676646713666, 2.232888238655078350 ) ) ;
#440 = CARTESIAN_POINT ( 'NONE',  ( 3.126553665355816136, 0.8225806451612902581, 0.8402379520974327942 ) ) ;
#441 = CARTESIAN_POINT ( 'NONE',  ( 1.087541720777682519, 4.000000000000000000, 1.886901009540786101 ) ) ;
#442 = CARTESIAN_POINT ( 'NONE',  ( 1.726383440256963109, 4.000000000000000000, 1.327645776887508955 ) ) ;
#443 = CARTESIAN_POINT ( 'NONE',  ( -1.747572781587299673, 1.250000000000026645, 1.007237948963323859 ) ) ;
#444 = CARTESIAN_POINT ( 'NONE',  ( 2.159453421137080387, 4.000000000000000000, 0.2826717817143511446 ) ) ;
#445 = CARTESIAN_POINT ( 'NONE',  ( 1.887243100187228295, 4.000000000000000000, -1.086902282855347845 ) ) ;
#446 = CARTESIAN_POINT ( 'NONE',  ( -1.947945348457845283, 1.249999999999974243, 0.5234957804970408191 ) ) ;
#447 = EDGE_LOOP ( 'NONE', ( #201 ) ) ;
#448 = CARTESIAN_POINT ( 'NONE',  ( 2.103248624859214821, 4.000000000000000000, 0.5652323736888479333 ) ) ;
#449 = CARTESIAN_POINT ( 'NONE',  ( -2.102906534212448442, 4.000000000000000000, 0.5658718116119023644 ) ) ;
#450 = CARTESIAN_POINT ( 'NONE',  ( -1.947945348457795545, 1.250000000000000222, -0.5234957804970485906 ) ) ;
#451 = CARTESIAN_POINT ( 'NONE',  ( 1.726843291442841988, 4.000000000000000000, 1.327085024042165662 ) ) ;
#452 = CARTESIAN_POINT ( 'NONE',  ( -1.526964157742518147, 4.000000000000000000, -1.526964157742519923 ) ) ;
#453 = CARTESIAN_POINT ( 'NONE',  ( -1.007237948963329410, 1.249999999999973799, 1.747572781587285462 ) ) ;
#454 = ORIENTED_EDGE ( 'NONE', *, *, #359, .F. ) ;
#455 = CARTESIAN_POINT ( 'NONE',  ( 1.850000000000000089, 1.250000000000000222, 0.000000000000000000 ) ) ;
#456 = VERTEX_POINT ( 'NONE', #558 ) ;
#457 = CARTESIAN_POINT ( 'NONE',  ( 0.2421644219214482141, 1.250000000000000222, 1.850000000000000089 ) ) ;
#458 = CARTESIAN_POINT ( 'NONE',  ( 1.154575397634832079, 3.919161676646705672, -2.003205432734712854 ) ) ;
#459 = CARTESIAN_POINT ( 'NONE',  ( -2.935501494781904697, -3.518102346966270995E-14, 1.717380001106031395 ) ) ;
#460 = CARTESIAN_POINT ( 'NONE',  ( -2.000000000000000000, 4.000000000000000000, 0.000000000000000000 ) ) ;
#461 = CARTESIAN_POINT ( 'NONE',  ( 0.3218620088529188239, -1.271579388792326290E-16, -2.463751613188879475 ) ) ;
#462 = PRODUCT_RELATED_PRODUCT_CATEGORY ( 'part', '', ( #132 ) ) ;
#463 = CARTESIAN_POINT ( 'NONE',  ( -1.850000000000000089, 1.250000000000000222, -0.2425259607194812650 ) ) ;
#464 = CARTESIAN_POINT ( 'NONE',  ( -1.726383440256488155, 4.000000000000000000, -1.327645776888040308 ) ) ;
#465 = CARTESIAN_POINT ( 'NONE',  ( -2.400017442747113705, -2.276064164053327461E-16, -0.6369749419840200488 ) ) ;
#466 = VERTEX_POINT ( 'NONE', #304 ) ;
#467 = CARTESIAN_POINT ( 'NONE',  ( -0.2421644219214481308, 1.250000000000000222, 1.850000000000000089 ) ) ;
#468 = CARTESIAN_POINT ( 'NONE',  ( 2.463624310270756457, 0.000000000000000000, 3.017069625874687299E-16 ) ) ;
#469 = ADVANCED_FACE ( 'NONE', ( #389, #548 ), #497, .F. ) ;
#470 = CARTESIAN_POINT ( 'NONE',  ( 1.514544663778683464, -8.314307378715264416E-17, 1.969726281911469590 ) ) ;
#471 = CARTESIAN_POINT ( 'NONE',  ( -1.717380001106312726, -2.168404344971008868E-16, -2.935501494781482812 ) ) ;
#472 = CARTESIAN_POINT ( 'NONE',  ( 2.003205428630324914, 3.919161676646707448, -1.154575407543700249 ) ) ;
#473 = CARTESIAN_POINT ( 'NONE',  ( -0.2617993877991494078, 1.400000000000000799, -2.000000000000000444 ) ) ;
#474 = CARTESIAN_POINT ( 'NONE',  ( -1.972758934514030615, 0.8225806451612902581, -2.567013795208325178 ) ) ;
#475 = CARTESIAN_POINT ( 'NONE',  ( 0.2617993877991491858, 1.400000000000001021, 1.999999999999999556 ) ) ;
#476 = PRODUCT_DEFINITION_FORMATION_WITH_SPECIFIED_SOURCE ( 'Symmetric', '', #132, .NOT_KNOWN. ) ;
#477 = CARTESIAN_POINT ( 'NONE',  ( -2.159453421137080387, 4.000000000000000000, -0.2826717817143915568 ) ) ;
#478 = CARTESIAN_POINT ( 'NONE',  ( 2.804945252255145238, 0.8225806451612899250, -1.616669344778362216 ) ) ;
#479 = CARTESIAN_POINT ( 'NONE',  ( 0.5234957687185602948, 1.399999999999999689, 1.947945353336631102 ) ) ;
#480 = CARTESIAN_POINT ( 'NONE',  ( 2.003205432734840308, 3.919161676646681247, 1.154575397634556078 ) ) ;
#481 = CARTESIAN_POINT ( 'NONE',  ( 0.4202016417500027967, 0.8225806451612904802, -3.210104082232442479 ) ) ;
#482 = CARTESIAN_POINT ( 'NONE',  ( 1.747572776708515851, 1.400000000000000133, 1.007237960741799387 ) ) ;
#483 = CARTESIAN_POINT ( 'NONE',  ( -0.3000950478843096847, 3.919161676646706560, 2.292557374810201942 ) ) ;
#484 = CARTESIAN_POINT ( 'NONE',  ( 2.232888242759579978, 3.919161676646704784, -0.6000720426288352893 ) ) ;
#485 = CARTESIAN_POINT ( 'NONE',  ( 1.007237960741799387, 1.400000000000000577, -1.747572776708515185 ) ) ;
#486 = CARTESIAN_POINT ( 'NONE',  ( 1.154575397634566292, 3.919161676646699455, 2.003205432734826097 ) ) ;
#487 = CARTESIAN_POINT ( 'NONE',  ( 1.526964157742519701, 4.000000000000000000, -1.526964157742517925 ) ) ;
#488 = CARTESIAN_POINT ( 'NONE',  ( 0.4842335969598559609, 1.250000000000000222, -1.801849447323460307 ) ) ;
#489 = CARTESIAN_POINT ( 'NONE',  ( -1.833282109346996425, 3.919161676646706560, 1.408883622628049670 ) ) ;
#490 = CARTESIAN_POINT ( 'NONE',  ( -1.995074817200023665, 4.000000000000000000, 0.8263870472332766060 ) ) ;
#491 = CARTESIAN_POINT ( 'NONE',  ( 1.947945348457835069, 1.250000000000000222, 0.5234957804970568063 ) ) ;
#492 = EDGE_LOOP ( 'NONE', ( #454 ) ) ;
#493 = CARTESIAN_POINT ( 'NONE',  ( -0.5652323736888493766, 4.000000000000000000, 2.103248624859263671 ) ) ;
#494 = CARTESIAN_POINT ( 'NONE',  ( 2.159524769384664644, 4.000000000000000000, -0.2819501056824114671 ) ) ;
#495 = CARTESIAN_POINT ( 'NONE',  ( -1.599333675781485331, 1.250000000000000444, -1.229093448964730051 ) ) ;
#496 = CARTESIAN_POINT ( 'NONE',  ( 0.2414427477085318297, 1.250000000000000222, -1.849928682673830149 ) ) ;
#497 = CYLINDRICAL_SURFACE ( 'NONE', #602, 2.000000000000000000 ) ;
#498 = CARTESIAN_POINT ( 'NONE',  ( -1.229093448964702739, 1.250000000000000444, -1.599333675781460906 ) ) ;
#499 = FACE_OUTER_BOUND ( 'NONE', #299, .T. ) ;
#500 = CARTESIAN_POINT ( 'NONE',  ( -1.137472169987276738, 1.250000000000000222, 1.478923778332835282 ) ) ;
#501 = CARTESIAN_POINT ( 'NONE',  ( 2.103038368583785456, 4.000000000000000000, 0.5659264191968182978 ) ) ;
#502 = CARTESIAN_POINT ( 'NONE',  ( -0.2421644219213475169, 1.250000000000000222, -1.850000000000000089 ) ) ;
#503 = ORIENTED_EDGE ( 'NONE', *, *, #359, .T. ) ;
#504 = CARTESIAN_POINT ( 'NONE',  ( 0.9310556547158826968, 1.250000000000000222, 1.616846884351048397 ) ) ;
#505 = ADVANCED_FACE ( 'NONE', ( #646 ), #133, .F. ) ;
#506 = CARTESIAN_POINT ( 'NONE',  ( -0.8263870472332768280, 4.000000000000000000, -1.995074817200023665 ) ) ;
#507 = CARTESIAN_POINT ( 'NONE',  ( 1.479383650097871428, 1.250000000000000222, 1.136911440292328157 ) ) ;
#508 = ORIENTED_EDGE ( 'NONE', *, *, #57, .T. ) ;
#509 = CARTESIAN_POINT ( 'NONE',  ( 1.308147545195113004, 1.250000000000000222, 1.308147545195113004 ) ) ;
#510 = CARTESIAN_POINT ( 'NONE',  ( 3.210104082232442479, 0.8225806451612903691, 3.931243689235812183E-16 ) ) ;
#511 = CARTESIAN_POINT ( 'NONE',  ( -0.9418635644515929162, -1.737945780495000939E-16, 2.273859791204166925 ) ) ;
#512 = CARTESIAN_POINT ( 'NONE',  ( 0.6000720525377039039, 3.919161676646707448, -2.232888238655190705 ) ) ;
#513 = CARTESIAN_POINT ( 'NONE',  ( 2.864141209237247132, 0.8225806451612904802, -1.675631520485110881 ) ) ;
#514 = CARTESIAN_POINT ( 'NONE',  ( -0.6370678210937350539, -1.625463692580581121E-16, -2.400241672752986499 ) ) ;
#515 = CARTESIAN_POINT ( 'NONE',  ( 0.8404032604230269321, 0.8225806451612903691, -3.210104082232442924 ) ) ;
#516 =( NAMED_UNIT ( * ) PLANE_ANGLE_UNIT ( ) SI_UNIT ( $, .RADIAN. ) );
#517 = CARTESIAN_POINT ( 'NONE',  ( -2.273859791204063008, -2.229506833902947894E-16, -0.9418635644518267291 ) ) ;
#518 = CARTESIAN_POINT ( 'NONE',  ( 1.285979034689801237, -1.683071513447990237E-17, 2.198111877487164634 ) ) ;
#519 = CARTESIAN_POINT ( 'NONE',  ( -0.5658718116116265850, 4.000000000000000000, -2.102906534212687806 ) ) ;
#520 = CARTESIAN_POINT ( 'NONE',  ( -1.479383650097880976, 1.250000000000000222, 1.136911440292345032 ) ) ;
#521 = CARTESIAN_POINT ( 'NONE',  ( -2.935501494781626253, -2.168404344971008868E-16, -1.717380001106448839 ) ) ;
#522 = CARTESIAN_POINT ( 'NONE',  ( 3.126553665355819245, 0.8225806451612904802, -0.8402379520974285754 ) ) ;
#523 = CARTESIAN_POINT ( 'NONE',  ( 1.599333675781576813, 1.400000000000000133, -1.229093448964613255 ) ) ;
#524 = ADVANCED_FACE ( 'NONE', ( #643 ), #93, .F. ) ;
#525 = CARTESIAN_POINT ( 'NONE',  ( -3.126553665355819245, 0.8225806451612902581, 0.8402379520974292415 ) ) ;
#526 = CARTESIAN_POINT ( 'NONE',  ( -1.747572776708515185, 1.400000000000000355, -1.007237960741799832 ) ) ;
#527 = CARTESIAN_POINT ( 'NONE',  ( -1.886901009540786989, 4.000000000000000000, -1.087541720777680521 ) ) ;
#528 = CARTESIAN_POINT ( 'NONE',  ( 1.154575407543699139, 3.919161676646708337, 2.003205428630324469 ) ) ;
#529 = CARTESIAN_POINT ( 'NONE',  ( 1.947945348457789105, 1.400000000000000133, -0.5234957804971270834 ) ) ;
#530 = CARTESIAN_POINT ( 'NONE',  ( 2.250553258282208091, 4.000000000000000000, 0.2945967220847439672 ) ) ;
#531 = CARTESIAN_POINT ( 'NONE',  ( 0.8402379520974293525, 0.8225806451612899250, -3.126553665355817468 ) ) ;
#532 = CARTESIAN_POINT ( 'NONE',  ( 0.5234957804970389317, 1.400000000000000133, 1.947945348457825743 ) ) ;
#533 = CARTESIAN_POINT ( 'NONE',  ( 0.2945967220847865442, 4.000000000000000000, 2.250553258282208091 ) ) ;
#534 = CARTESIAN_POINT ( 'NONE',  ( -2.232888242759579533, 3.919161676646709225, -0.6000720426288372877 ) ) ;
#535 = CARTESIAN_POINT ( 'NONE',  ( -1.599333675781499320, 1.400000000000000133, -1.229093448964691193 ) ) ;
#536 = CARTESIAN_POINT ( 'NONE',  ( 1.383070130451347302, 4.000000000000000000, 1.799692810254341913 ) ) ;
#537 = CARTESIAN_POINT ( 'NONE',  ( 1.616669344778364437, 0.8225806451612902581, 2.804945252255145238 ) ) ;
#538 = CARTESIAN_POINT ( 'NONE',  ( -2.000000000000000000, 1.250000000000000222, -0.2617993750502140560 ) ) ;
#539 = TOROIDAL_SURFACE ( 'NONE', #14, -5.249999999999998224, 8.499999999999998224 ) ;
#540 = CARTESIAN_POINT ( 'NONE',  ( -2.250553258282208091, 4.000000000000000000, 0.2945967220847867662 ) ) ;
#541 = CARTESIAN_POINT ( 'NONE',  ( -1.726282538596445759, 4.000000000000000000, 1.327544875229045518 ) ) ;
#542 = CARTESIAN_POINT ( 'NONE',  ( -1.229093448964691415, 1.400000000000000133, 1.599333675781499320 ) ) ;
#543 = CARTESIAN_POINT ( 'NONE',  ( -0.7079643498754167874, 1.250000000000000222, 1.709177135145880211 ) ) ;
#544 = FACE_BOUND ( 'NONE', #395, .T. ) ;
#545 = EDGE_CURVE ( 'NONE', #160, #160, #163, .T. ) ;
#546 = CARTESIAN_POINT ( 'NONE',  ( -1.479383650097905401, 1.250000000000000222, -1.136911440292346809 ) ) ;
#547 = CARTESIAN_POINT ( 'NONE',  ( -1.850000000000000089, 1.250000000000000222, 2.265596578422603100E-16 ) ) ;
#548 = FACE_OUTER_BOUND ( 'NONE', #39, .T. ) ;
#549 = CARTESIAN_POINT ( 'NONE',  ( -2.000000000000000000, 1.400000000000000133, 0.2617993750502145556 ) ) ;
#550 = ORIENTED_EDGE ( 'NONE', *, *, #633, .F. ) ;
#551 = CARTESIAN_POINT ( 'NONE',  ( -1.137371312057452455, 1.250000000000000222, -1.478822920402742103 ) ) ;
#552 = CARTESIAN_POINT ( 'NONE',  ( -1.476163501172726410E-16, 4.000000000000000000, 0.000000000000000000 ) ) ;
#553 = CARTESIAN_POINT ( 'NONE',  ( -2.000000000000000000, 1.250000000000000222, 2.449293598294706414E-16 ) ) ;
#554 = CARTESIAN_POINT ( 'NONE',  ( -2.159453421137080387, 4.000000000000000000, 0.2826717817143920564 ) ) ;
#555 = CARTESIAN_POINT ( 'NONE',  ( 0.8263870472332740524, 4.000000000000000000, -1.995074817200024553 ) ) ;
#556 = CARTESIAN_POINT ( 'NONE',  ( -2.147477909655184369, -2.182866753714950616E-16, 1.246659307809855344 ) ) ;
#557 = CARTESIAN_POINT ( 'NONE',  ( 2.159453421137080387, 4.000000000000000000, -0.2826717817143511446 ) ) ;
#558 = CARTESIAN_POINT ( 'NONE',  ( -2.000000000000000000, 1.400000000000000133, -4.898587196589412829E-16 ) ) ;
#559 = CARTESIAN_POINT ( 'NONE',  ( 1.850000000000000089, 1.250000000000000222, 0.2421644219214521276 ) ) ;
#560 = CARTESIAN_POINT ( 'NONE',  ( 2.232888238655092561, 3.919161676646712777, -0.6000720525379343862 ) ) ;
#561 = CARTESIAN_POINT ( 'NONE',  ( -2.198111877486997212, -2.336711496315744937E-16, -1.285979034690038381 ) ) ;
#562 = CARTESIAN_POINT ( 'NONE',  ( 1.514364630265475631, -8.314971775968228079E-17, -1.969546248398265087 ) ) ;
#563 = CARTESIAN_POINT ( 'NONE',  ( 1.717380001106086240, 0.000000000000000000, 2.935501494781987741 ) ) ;
#564 = CARTESIAN_POINT ( 'NONE',  ( -1.136911440292347031, 1.250000000000000222, 1.479383650097878977 ) ) ;
#565 = CARTESIAN_POINT ( 'NONE',  ( 3.290084057799765205, 0.000000000000000000, 4.029190910310218403E-16 ) ) ;
#566 = CARTESIAN_POINT ( 'NONE',  ( -1.887111265816346029, 4.000000000000000000, -1.086847675269698499 ) ) ;
#567 = CARTESIAN_POINT ( 'NONE',  ( 2.273859791204126513, -5.512124186230872028E-17, 0.9418635644516072380 ) ) ;
#568 = CARTESIAN_POINT ( 'NONE',  ( -0.8613419684877831051, -1.084202172485504434E-16, -3.290084057799764761 ) ) ;
#569 = CARTESIAN_POINT ( 'NONE',  ( -2.292557374810201498, 3.919161676646707448, -0.3000950586098683481 ) ) ;
#570 = CARTESIAN_POINT ( 'NONE',  ( 1.717380001105942799, 0.000000000000000000, -2.935501494781852738 ) ) ;
#571 = CARTESIAN_POINT ( 'NONE',  ( 1.833282116931135963, 3.919161676646708337, -1.408883615043911020 ) ) ;
#572 = CARTESIAN_POINT ( 'NONE',  ( -2.000000000000000000, 1.400000000000000133, 2.449293598294706414E-16 ) ) ;
#573 = CARTESIAN_POINT ( 'NONE',  ( 1.799692810254343023, 4.000000000000000000, -1.383070130451284463 ) ) ;
#574 = CARTESIAN_POINT ( 'NONE',  ( 2.463624310270756457, -4.811815544071485002E-17, -0.3228050890196611511 ) ) ;
#575 = CARTESIAN_POINT ( 'NONE',  ( -2.191977376924500565, 4.000000000000000000, -0.5890775637208522930 ) ) ;
#576 = DIRECTION ( 'NONE',  ( 1.000000000000000000, 0.000000000000000000, 0.000000000000000000 ) ) ;
#577 = CARTESIAN_POINT ( 'NONE',  ( -1.833282116931135963, 3.919161676646709225, 1.408883615043911020 ) ) ;
#578 = CARTESIAN_POINT ( 'NONE',  ( 1.007237948963318752, 1.400000000000000133, 1.747572781587322099 ) ) ;
#579 = CARTESIAN_POINT ( 'NONE',  ( 1.408883622628018806, 3.919161676646697678, 1.833282109347033950 ) ) ;
#580 = CARTESIAN_POINT ( 'NONE',  ( -0.6000720426288361775, 3.919161676646707448, -2.232888242759579089 ) ) ;
#581 = ADVANCED_FACE ( 'NONE', ( #48, #544 ), #186, .F. ) ;
#582 = CARTESIAN_POINT ( 'NONE',  ( 1.229093439949830335, 1.400000000000000577, 1.599333684796360400 ) ) ;
#583 = CARTESIAN_POINT ( 'NONE',  ( 1.799692810254311492, 4.000000000000000000, 1.383070130451316437 ) ) ;
#584 = CARTESIAN_POINT ( 'NONE',  ( 2.159453421137080387, 4.000000000000000000, 0.000000000000000000 ) ) ;
#585 = CARTESIAN_POINT ( 'NONE',  ( -0.2617993750501054206, 1.400000000000000133, -2.000000000000000000 ) ) ;
#586 = CARTESIAN_POINT ( 'NONE',  ( -1.799692810254263087, 4.000000000000000000, 1.383070130451334423 ) ) ;
#587 = CARTESIAN_POINT ( 'NONE',  ( 3.210104082232443368, 0.8225806451612904802, 0.4202016417500024081 ) ) ;
#588 = CARTESIAN_POINT ( 'NONE',  ( 1.599333675781589470, 1.250000000000000444, -1.229093448964626578 ) ) ;
#589 = CARTESIAN_POINT ( 'NONE',  ( -1.478822920402951491, 1.250000000000000222, 1.137371312057388950 ) ) ;
#590 = CARTESIAN_POINT ( 'NONE',  ( 5.130995334484091769E-33, -1.390359626263029166E-16, 0.000000000000000000 ) ) ;
#591 = CARTESIAN_POINT ( 'NONE',  ( -1.616504822968287014, 1.250000000000000222, -0.9316951027910529426 ) ) ;
#592 = ORIENTED_EDGE ( 'NONE', *, *, #95, .F. ) ;
#593 = CARTESIAN_POINT ( 'NONE',  ( 1.616846884350926716, 1.250000000000000222, -0.9310556547160711016 ) ) ;
#594 = CARTESIAN_POINT ( 'NONE',  ( 1.086902282855298330, 4.000000000000000000, 1.887243100187295353 ) ) ;
#595 = CARTESIAN_POINT ( 'NONE',  ( 0.9316951027909772254, 1.250000000000000222, -1.616504822968300115 ) ) ;
#596 = EDGE_LOOP ( 'NONE', ( #251 ) ) ;
#597 = CARTESIAN_POINT ( 'NONE',  ( -0.7079643498754186748, 1.250000000000000222, -1.709177135145879545 ) ) ;
#598 = APPLICATION_CONTEXT ( 'automotive_design' ) ;
#599 = CARTESIAN_POINT ( 'NONE',  ( 0.8263870472332728312, 4.000000000000000000, 1.995074817200024997 ) ) ;
#600 = CARTESIAN_POINT ( 'NONE',  ( 0.2617993750502143890, 1.250000000000000222, 2.000000000000000000 ) ) ;
#601 = CARTESIAN_POINT ( 'NONE',  ( 0.2414427477086637797, 1.250000000000000222, 1.850071317326169806 ) ) ;
#602 = AXIS2_PLACEMENT_3D ( 'NONE', #45, #86, #386 ) ;
#603 = CARTESIAN_POINT ( 'NONE',  ( 1.327645776887628193, 4.000000000000000000, -1.726383440256899826 ) ) ;
#604 = CARTESIAN_POINT ( 'NONE',  ( -1.007237948963239482, 1.249999999999974243, -1.747572781587363400 ) ) ;
#605 = CARTESIAN_POINT ( 'NONE',  ( -2.003205432734810998, 3.919161676646725656, -1.154575397634567846 ) ) ;
#606 = CARTESIAN_POINT ( 'NONE',  ( 0.4848730450349481025, 1.250000000000000222, 1.801507385940713357 ) ) ;
#607 = CARTESIAN_POINT ( 'NONE',  ( 0.5659264191951139944, 4.000000000000000000, -2.103038368584543516 ) ) ;
#608 = CARTESIAN_POINT ( 'NONE',  ( -1.246659307809875994, -1.850427868409577543E-16, -2.147477909655083561 ) ) ;
#609 = CARTESIAN_POINT ( 'NONE',  ( 2.292557374810201942, 3.919161676646706560, -0.3000950478842664970 ) ) ;
#610 = CARTESIAN_POINT ( 'NONE',  ( 3.210104082232442479, 0.8225806451612903691, 3.931243689235812183E-16 ) ) ;
#611 = CARTESIAN_POINT ( 'NONE',  ( 1.246752186919557248, -9.302571079285474854E-17, -2.147702139660995435 ) ) ;
#612 = CARTESIAN_POINT ( 'NONE',  ( -0.8613419684873098170, -1.084202172485504434E-16, 3.290084057799764761 ) ) ;
#613 = AXIS2_PLACEMENT_3D ( 'NONE', #196, #636, #243 ) ;
#614 = VERTEX_POINT ( 'NONE', #7 ) ;
#615 = CARTESIAN_POINT ( 'NONE',  ( 2.273859791204151382, -5.512124186230780816E-17, -0.9418635644516082372 ) ) ;
#616 = CARTESIAN_POINT ( 'NONE',  ( -2.463624310270756457, -2.168404344971008868E-16, -0.6449753184853389554 ) ) ;
#617 = CARTESIAN_POINT ( 'NONE',  ( 0.6370678210932725349, -1.155255559945648048E-16, 2.400241672753016697 ) ) ;
#618 = CARTESIAN_POINT ( 'NONE',  ( -1.675631520485063364, 0.8225806451612901471, 2.864141209237294650 ) ) ;
#619 = UNCERTAINTY_MEASURE_WITH_UNIT (LENGTH_MEASURE( 1.000000000000000082E-05 ), #654, 'distance_accuracy_value', 'NONE');
#620 = CARTESIAN_POINT ( 'NONE',  ( 3.210104082232442479, 0.8225806451612903691, 4.607859233063393845E-16 ) ) ;
#621 = CARTESIAN_POINT ( 'NONE',  ( 0.8613419684873093729, -1.084202172485504434E-16, 3.290084057799764761 ) ) ;
#622 = CARTESIAN_POINT ( 'NONE',  ( -0.8402379520974282423, 0.8225806451612904802, -3.126553665355819689 ) ) ;
#623 = CARTESIAN_POINT ( 'NONE',  ( 1.947945353336631324, 1.400000000000000355, 0.5234957687185608499 ) ) ;
#624 = CARTESIAN_POINT ( 'NONE',  ( -2.232888238655061475, 3.919161676646738535, 0.6000720525379746872 ) ) ;
#625 = CARTESIAN_POINT ( 'NONE',  ( 1.833282116931134409, 3.919161676646707448, 1.408883615043911020 ) ) ;
#626 = B_SPLINE_CURVE_WITH_KNOTS ( 'NONE', 3,
 ( #420, #168, #368, #526, #73, #220, #78, #127, #473, #172, #181, #485, #270, #276, #233, #29, #634, #438, #623, #482, #121, #582, #175, #479, #475, #23, #223, #424, #229, #326, #20, #373, #384, #32 ),
 .UNSPECIFIED., .T., .F.,
 ( 4, 2, 2, 2, 2, 2, 2, 2, 2, 2, 2, 2, 2, 2, 2, 2, 4 ),
 ( 0.000000000000000000, 0.06250000000000002776, 0.1250000000000000555, 0.1875000000000000833, 0.2500000000000001110, 0.3125000000000000555, 0.3750000000000000555, 0.4375000000000000000, 0.5000000000000000000, 0.5625000000000000000, 0.6250000000000000000, 0.6875000000000001110, 0.7500000000000001110, 0.8125000000000001110, 0.8750000000000001110, 0.9375000000000002220, 1.000000000000000000 ),
 .UNSPECIFIED. ) ;
#627 = CARTESIAN_POINT ( 'NONE',  ( -1.947945348457817305, 1.400000000000000133, -0.5234957804970576944 ) ) ;
#628 = CARTESIAN_POINT ( 'NONE',  ( 0.2945967220847878210, 4.000000000000000000, -2.250553258282208091 ) ) ;
#629 = PRODUCT_CONTEXT ( 'NONE', #282, 'mechanical' ) ;
#630 = CARTESIAN_POINT ( 'NONE',  ( 0.6000720426288366216, 3.919161676646710113, -2.232888242759578645 ) ) ;
#631 = FACE_OUTER_BOUND ( 'NONE', #245, .T. ) ;
#632 = CARTESIAN_POINT ( 'NONE',  ( -1.327085024042212513, 4.000000000000000000, -1.726843291442825556 ) ) ;
#633 = EDGE_CURVE ( 'NONE', #614, #614, #65, .T. ) ;
#634 = CARTESIAN_POINT ( 'NONE',  ( 2.000000000000000000, 1.400000000000000133, -0.2617993877991492968 ) ) ;
#635 = CARTESIAN_POINT ( 'NONE',  ( 1.133421327479180452, 4.000000000000000000, -1.966502807382479068 ) ) ;
#636 = DIRECTION ( 'NONE',  ( 3.690408752931816026E-17, -1.000000000000000000, 0.000000000000000000 ) ) ;
#637 = DIRECTION ( 'NONE',  ( -3.690408752931816026E-17, 1.000000000000000000, -0.000000000000000000 ) ) ;
#638 = CARTESIAN_POINT ( 'NONE',  ( -1.154575397634581613, 3.919161676646697678, 2.003205432734821212 ) ) ;
#639 = DIRECTION ( 'NONE',  ( -1.000000000000000000, -3.690408752931816026E-17, 0.000000000000000000 ) ) ;
#640 = CARTESIAN_POINT ( 'NONE',  ( -2.000000000000000000, 1.250000000000000222, 2.449293598294706414E-16 ) ) ;
#641 = CARTESIAN_POINT ( 'NONE',  ( -1.408883622628050114, 3.919161676646706560, -1.833282109346995981 ) ) ;
#642 = CARTESIAN_POINT ( 'NONE',  ( -1.327085024042214734, 4.000000000000000000, 1.726843291442823558 ) ) ;
#643 = FACE_OUTER_BOUND ( 'NONE', #341, .T. ) ;
#644 = CARTESIAN_POINT ( 'NONE',  ( -0.2617993750501053651, 1.250000000000000222, -2.000000000000000000 ) ) ;
#645 = CARTESIAN_POINT ( 'NONE',  ( -1.801507385940732897, 1.250000000000000222, 0.4848730450349013066 ) ) ;
#646 = FACE_OUTER_BOUND ( 'NONE', #399, .T. ) ;
#647 = CARTESIAN_POINT ( 'NONE',  ( -1.136911440292318831, 1.250000000000000222, -1.479383650097880754 ) ) ;
#648 = ORIENTED_EDGE ( 'NONE', *, *, #633, .T. ) ;
#649 = CARTESIAN_POINT ( 'NONE',  ( -0.2414427477085292206, 1.250000000000000222, -1.850071317326169806 ) ) ;
#650 = MANIFOLD_SOLID_BREP ( 'Fillet2', #231 ) ;
#651 = CARTESIAN_POINT ( 'NONE',  ( -1.327645776888594975, 4.000000000000000000, 1.726383440255990331 ) ) ;
#652 = CARTESIAN_POINT ( 'NONE',  ( -2.292557374810201942, 3.919161676646706560, 2.807573050922972117E-16 ) ) ;
#653 = CARTESIAN_POINT ( 'NONE',  ( 0.5652323736888630323, 4.000000000000000000, 2.103248624859264115 ) ) ;
#654 =( LENGTH_UNIT ( ) NAMED_UNIT ( * ) SI_UNIT ( .MILLI., .METRE. ) );
#655 = CARTESIAN_POINT ( 'NONE',  ( -1.947945348457828407, 1.400000000000000133, 0.5234957804970338247 ) ) ;
#656 = ORIENTED_EDGE ( 'NONE', *, *, #57, .F. ) ;
ENDSEC;
END-ISO-10303-21;
