ISO-10303-21;
HEADER;
FILE_DESCRIPTION (( 'STEP AP214' ),
    '1' );
FILE_NAME ('Power Supply Chassis.STEP',
    '2025-08-06T10:04:06',
    ( '' ),
    ( '' ),
    'SwSTEP 2.0',
    'SolidWorks 2025',
    '' );
FILE_SCHEMA (( 'AUTOMOTIVE_DESIGN' ));
ENDSEC;

DATA;
#1 = PRODUCT_DEFINITION ( 'General', '', #81, #6 ) ;
#2 = APPLICATION_CONTEXT ( 'automotive_design' ) ;
#3 = PROPERTY_DEFINITION_REPRESENTATION ( #55, #20 ) ;
#4 =( LENGTH_UNIT ( ) NAMED_UNIT ( * ) SI_UNIT ( .MILLI., .METRE. ) );
#5 = EXTERNAL_SOURCE (IDENTIFIER('') ) ;
#6 = PRODUCT_DEFINITION_CONTEXT ( 'detailed design', #102, 'design' ) ;
#7 = DIRECTION ( 'NONE',  ( 0.000000000000000000, 0.000000000000000000, 1.000000000000000000 ) ) ;
#8 = PRODUCT_RELATED_PRODUCT_CATEGORY ( 'part', '', ( #37 ) ) ;
#9 =( NAMED_UNIT ( * ) PLANE_ANGLE_UNIT ( ) SI_UNIT ( $, .RADIAN. ) );
#10 = CARTESIAN_POINT ( 'NONE',  ( 0.000000000000000000, 0.000000000000000000, 0.000000000000000000 ) ) ;
#11 = CONTEXT_DEPENDENT_SHAPE_REPRESENTATION ( #27, #18 ) ;
#12 = PROPERTY_DEFINITION ('external definition','', #78 ) ;
#13 = APPLICATION_PROTOCOL_DEFINITION ( 'draft international standard', 'automotive_design', 1998, #93 ) ;
#14 =( GEOMETRIC_REPRESENTATION_CONTEXT ( 3 ) GLOBAL_UNCERTAINTY_ASSIGNED_CONTEXT ( ( #60 ) ) GLOBAL_UNIT_ASSIGNED_CONTEXT ( ( #4, #9, #63 ) ) REPRESENTATION_CONTEXT ( 'NONE', 'WORKASPACE' ) );
#15 = DIRECTION ( 'NONE',  ( 0.000000000000000000, 0.000000000000000000, 1.000000000000000000 ) ) ;
#16 =( LENGTH_UNIT ( ) NAMED_UNIT ( * ) SI_UNIT ( .MILLI., .METRE. ) );
#17 = SHAPE_DEFINITION_REPRESENTATION ( #86, #20 ) ;
#18 = PRODUCT_DEFINITION_SHAPE ( 'NONE', 'NONE',  #108 ) ;
#19 = DOCUMENT_FILE ( 'Part2.STEP' , '', '', #48, '' ,$ ) ;
#20 = SHAPE_REPRESENTATION ( 'Part2', ( #52 ), #14 ) ;
#21 = AXIS2_PLACEMENT_3D ( 'NONE', #10, #23, #33 ) ;
#22 = PRODUCT_RELATED_PRODUCT_CATEGORY ( 'part', '', ( #26 ) ) ;
#23 = DIRECTION ( 'NONE',  ( 0.000000000000000000, 0.000000000000000000, 1.000000000000000000 ) ) ;
#24 =( NAMED_UNIT ( * ) SI_UNIT ( $, .STERADIAN. ) SOLID_ANGLE_UNIT ( ) );
#25 = DIRECTION ( 'NONE',  ( 0.000000000000000000, 0.000000000000000000, 1.000000000000000000 ) ) ;
#26 = PRODUCT ( 'Part1', 'Part1', '', ( #95 ) ) ;
#27 =( REPRESENTATION_RELATIONSHIP ('NONE','NONE', #31, #20 ) REPRESENTATION_RELATIONSHIP_WITH_TRANSFORMATION ( #57 )SHAPE_REPRESENTATION_RELATIONSHIP( ) );
#28 = PROPERTY_DEFINITION_REPRESENTATION ( #12, #29 ) ;
#29 = SHAPE_REPRESENTATION ( 'Part1', ( #82 ), #30 ) ;
#30 =( GEOMETRIC_REPRESENTATION_CONTEXT ( 3 ) GLOBAL_UNCERTAINTY_ASSIGNED_CONTEXT ( ( #70 ) ) GLOBAL_UNIT_ASSIGNED_CONTEXT ( ( #16, #99, #24 ) ) REPRESENTATION_CONTEXT ( 'NONE', 'WORKASPACE' ) );
#31 = SHAPE_REPRESENTATION ( 'Power Supply Chassis', ( #67, #21, #69 ), #68 ) ;
#32 = PRODUCT_DEFINITION_CONTEXT ( 'detailed design', #93, 'design' ) ;
#33 = DIRECTION ( 'NONE',  ( 1.000000000000000000, 0.000000000000000000, 0.000000000000000000 ) ) ;
#34 = PRODUCT_DEFINITION_FORMATION_WITH_SPECIFIED_SOURCE ( 'Symmetric', '', #96, .NOT_KNOWN. ) ;
#35 = APPLIED_DOCUMENT_REFERENCE ( #19,'',( #103) ) ;
#36 = APPLICATION_PROTOCOL_DEFINITION ( 'draft international standard', 'automotive_design', 1998, #46 ) ;
#37 = PRODUCT ( 'Power Supply Chassis', 'Power Supply Chassis', '', ( #42 ) ) ;
#38 = PROPERTY_DEFINITION_REPRESENTATION ( #62, #20 ) ;
#39 = OBJECT_ROLE ('mandatory',$ ) ;
#40 =( NAMED_UNIT ( * ) PLANE_ANGLE_UNIT ( ) SI_UNIT ( $, .RADIAN. ) );
#41 = APPLICATION_CONTEXT ( 'automotive_design' ) ;
#42 = PRODUCT_CONTEXT ( 'NONE', #88, 'mechanical' ) ;
#43 = ROLE_ASSOCIATION ( #39, #35 ) ;
#44 = CONTEXT_DEPENDENT_SHAPE_REPRESENTATION ( #97, #89 ) ;
#45 = DIRECTION ( 'NONE',  ( 1.000000000000000000, 0.000000000000000000, 0.000000000000000000 ) ) ;
#46 = APPLICATION_CONTEXT ( 'automotive_design' ) ;
#47 =( NAMED_UNIT ( * ) SI_UNIT ( $, .STERADIAN. ) SOLID_ANGLE_UNIT ( ) );
#48 = DOCUMENT_TYPE ( 'geometry' ) ;
#49 = PRODUCT_CONTEXT ( 'NONE', #2, 'mechanical' ) ;
#50 = IDENTIFICATION_ROLE ( 'external document id and location', $) ;
#51 = CARTESIAN_POINT ( 'NONE',  ( -3.469446951953614189E-15, 39.55022405766456473, 0.000000000000000000 ) ) ;
#52 = AXIS2_PLACEMENT_3D ( 'NONE', #64, #53, #92 ) ;
#53 = DIRECTION ( 'NONE',  ( 0.000000000000000000, 0.000000000000000000, 1.000000000000000000 ) ) ;
#54 = APPLICATION_PROTOCOL_DEFINITION ( 'draft international standard', 'automotive_design', 1998, #102 ) ;
#55 = PROPERTY_DEFINITION ('external definition','', #19 ) ;
#56 = PROPERTY_DEFINITION_REPRESENTATION ( #79, #29 ) ;
#57 = ITEM_DEFINED_TRANSFORMATION ( 'NONE', 'NONE', #69,  #52 ) ;
#58 = SHAPE_DEFINITION_REPRESENTATION ( #101, #29 ) ;
#59 = OBJECT_ROLE ('mandatory',$ ) ;
#60 = UNCERTAINTY_MEASURE_WITH_UNIT (LENGTH_MEASURE( 1.000000000000000082E-05 ), #4, 'distance_accuracy_value', 'NONE');
#61 = PRODUCT_DEFINITION_FORMATION_WITH_SPECIFIED_SOURCE ( 'Symmetric', '', #26, .NOT_KNOWN. ) ;
#62 = PROPERTY_DEFINITION ('document property','', #19 ) ;
#63 =( NAMED_UNIT ( * ) SI_UNIT ( $, .STERADIAN. ) SOLID_ANGLE_UNIT ( ) );
#64 = CARTESIAN_POINT ( 'NONE',  ( 0.000000000000000000, 0.000000000000000000, 0.000000000000000000 ) ) ;
#65 = APPLICATION_PROTOCOL_DEFINITION ( 'draft international standard', 'automotive_design', 1998, #2 ) ;
#66 = APPLICATION_PROTOCOL_DEFINITION ( 'draft international standard', 'automotive_design', 1998, #41 ) ;
#67 = AXIS2_PLACEMENT_3D ( 'NONE', #100, #25, #84 ) ;
#68 =( GEOMETRIC_REPRESENTATION_CONTEXT ( 3 ) GLOBAL_UNCERTAINTY_ASSIGNED_CONTEXT ( ( #91 ) ) GLOBAL_UNIT_ASSIGNED_CONTEXT ( ( #74, #40, #47 ) ) REPRESENTATION_CONTEXT ( 'NONE', 'WORKASPACE' ) );
#69 = AXIS2_PLACEMENT_3D ( 'NONE', #51, #7, #76 ) ;
#70 = UNCERTAINTY_MEASURE_WITH_UNIT (LENGTH_MEASURE( 1.000000000000000082E-05 ), #16, 'distance_accuracy_value', 'NONE');
#71 = DOCUMENT_TYPE ( 'geometry' ) ;
#72 = APPLIED_EXTERNAL_IDENTIFICATION_ASSIGNMENT ( 'Part1.STEP' , #50, #5,( #78) ) ;
#73 = PRODUCT_RELATED_PRODUCT_CATEGORY ( 'part', '', ( #96 ) ) ;
#74 =( LENGTH_UNIT ( ) NAMED_UNIT ( * ) SI_UNIT ( .MILLI., .METRE. ) );
#75 = EXTERNAL_SOURCE (IDENTIFIER('') ) ;
#76 = DIRECTION ( 'NONE',  ( 1.000000000000000000, 0.000000000000000000, 0.000000000000000000 ) ) ;
#77 = ROLE_ASSOCIATION ( #59, #80 ) ;
#78 = DOCUMENT_FILE ( 'Part1.STEP' , '', '', #71, '' ,$ ) ;
#79 = PROPERTY_DEFINITION ('document property','', #78 ) ;
#80 = APPLIED_DOCUMENT_REFERENCE ( #78,'',( #85) ) ;
#81 = PRODUCT_DEFINITION_FORMATION_WITH_SPECIFIED_SOURCE ( 'Symmetric', '', #37, .NOT_KNOWN. ) ;
#82 = AXIS2_PLACEMENT_3D ( 'NONE', #106, #15, #45 ) ;
#83 = IDENTIFICATION_ROLE ( 'external document id and location', $) ;
#84 = DIRECTION ( 'NONE',  ( 1.000000000000000000, 0.000000000000000000, 0.000000000000000000 ) ) ;
#85 = PRODUCT_DEFINITION ( 'General', '', #61, #105 ) ;
#86 = PRODUCT_DEFINITION_SHAPE ( 'NONE', 'NONE',  #103 ) ;
#87 = ITEM_DEFINED_TRANSFORMATION ( 'NONE', 'NONE', #21,  #82 ) ;
#88 = APPLICATION_CONTEXT ( 'automotive_design' ) ;
#89 = PRODUCT_DEFINITION_SHAPE ( 'NONE', 'NONE',  #107 ) ;
#90 = APPLIED_EXTERNAL_IDENTIFICATION_ASSIGNMENT ( 'Part2.STEP' , #83, #75,( #19) ) ;
#91 = UNCERTAINTY_MEASURE_WITH_UNIT (LENGTH_MEASURE( 1.000000000000000082E-05 ), #74, 'distance_accuracy_value', 'NONE');
#92 = DIRECTION ( 'NONE',  ( 1.000000000000000000, 0.000000000000000000, 0.000000000000000000 ) ) ;
#93 = APPLICATION_CONTEXT ( 'automotive_design' ) ;
#94 = PRODUCT_DEFINITION_SHAPE ( 'NONE', 'NONE',  #1 ) ;
#95 = PRODUCT_CONTEXT ( 'NONE', #46, 'mechanical' ) ;
#96 = PRODUCT ( 'Part2', 'Part2', '', ( #49 ) ) ;
#97 =( REPRESENTATION_RELATIONSHIP ('NONE','NONE', #31, #29 ) REPRESENTATION_RELATIONSHIP_WITH_TRANSFORMATION ( #87 )SHAPE_REPRESENTATION_RELATIONSHIP( ) );
#98 = APPLICATION_PROTOCOL_DEFINITION ( 'draft international standard', 'automotive_design', 1998, #88 ) ;
#99 =( NAMED_UNIT ( * ) PLANE_ANGLE_UNIT ( ) SI_UNIT ( $, .RADIAN. ) );
#100 = CARTESIAN_POINT ( 'NONE',  ( 0.000000000000000000, 0.000000000000000000, 0.000000000000000000 ) ) ;
#101 = PRODUCT_DEFINITION_SHAPE ( 'NONE', 'NONE',  #85 ) ;
#102 = APPLICATION_CONTEXT ( 'automotive_design' ) ;
#103 = PRODUCT_DEFINITION ( 'General', '', #34, #32 ) ;
#104 = SHAPE_DEFINITION_REPRESENTATION ( #94, #31 ) ;
#105 = PRODUCT_DEFINITION_CONTEXT ( 'detailed design', #41, 'design' ) ;
#106 = CARTESIAN_POINT ( 'NONE',  ( 0.000000000000000000, 0.000000000000000000, 0.000000000000000000 ) ) ;
#107 = NEXT_ASSEMBLY_USAGE_OCCURRENCE ( 'NAUO1', ' ', ' ', #1, #85, $ ) ;
#108 = NEXT_ASSEMBLY_USAGE_OCCURRENCE ( 'NAUO2', ' ', ' ', #1, #103, $ ) ;
ENDSEC;
END-ISO-10303-21;
